<svg width="253" height="136" viewBox="0 0 253 136" fill="none" xmlns="http://www.w3.org/2000/svg">
<path d="M203.832 12H42.0605C38.304 12 35.2588 15.0416 35.2588 18.7936V127.797C35.2588 131.549 38.304 134.59 42.0605 134.59H203.832C207.588 134.59 210.633 131.549 210.633 127.797V18.7936C210.633 15.0416 207.588 12 203.832 12Z" fill="#4D5B6C"/>
<path d="M201.389 21.1367H44.7578V121.315H201.389V21.1367Z" fill="#24303E"/>
<path d="M227.82 128.226C227.82 127.473 227.29 126.863 226.635 126.863H122.91H19.1853C18.5307 126.863 18 127.473 18 128.226V134.638C18 135.39 18.5307 136 19.1853 136H226.635C227.29 136 227.82 135.39 227.82 134.638V128.226Z" fill="#24303E"/>
<path d="M104.146 126.863H142.256V127.153C142.256 128.01 141.915 128.833 141.308 129.439C140.701 130.045 139.878 130.386 139.02 130.386H107.391C106.532 130.386 105.709 130.045 105.102 129.439C104.495 128.833 104.154 128.01 104.154 127.153V126.863H104.146Z" fill="#70879C"/>
<rect x="92" y="45.2383" width="68.8396" height="47.2043" rx="5.4221" fill="#3D7FFC"/>
<rect x="129.37" width="51.6297" height="35.4032" rx="4.06657" fill="#98C1FF"/>
<path d="M127.626 80.1367H122.508L121.083 76.0944H113.929L112.504 80.1367H107.618L115.179 60.0414H120.065L127.626 80.1367ZM120.007 72.4301L117.506 65.2179L115.005 72.4301H120.007ZM147.712 70.1036C147.712 74.0005 146.142 76.327 144.455 77.752C142.798 79.1479 140.209 80.1367 136.72 80.1367H129.914V60.0705H136.72C140.209 60.0705 142.798 61.0592 144.455 62.4842C146.142 63.8801 147.712 66.2067 147.712 70.1036ZM142.943 70.1036C142.943 67.6317 142.012 66.2067 141.169 65.3924C140.326 64.6072 138.93 63.9674 136.981 63.9674H134.597V76.1525H136.981C138.93 76.1525 140.326 75.5128 141.169 74.6985C142.012 73.9133 142.943 72.5755 142.943 70.1036Z" fill="white"/>
<path d="M156.091 26.4258H152.252L151.183 23.394H145.818L144.749 26.4258H141.085L146.756 11.3543H150.42L156.091 26.4258ZM150.376 20.6458L148.5 15.2367L146.625 20.6458H150.376ZM171.155 18.9009C171.155 21.8236 169.978 23.5685 168.713 24.6373C167.469 25.6842 165.528 26.4258 162.911 26.4258H157.807V11.3761H162.911C165.528 11.3761 167.469 12.1177 168.713 13.1864C169.978 14.2333 171.155 15.9782 171.155 18.9009ZM167.578 18.9009C167.578 17.047 166.88 15.9782 166.248 15.3675C165.615 14.7786 164.568 14.2988 163.107 14.2988H161.319V23.4377H163.107C164.568 23.4377 165.615 22.9578 166.248 22.3471C166.88 21.7582 167.578 20.7549 167.578 18.9009Z" fill="white"/>
<g filter="url(#filter0_bd_54892_8627)">
<rect x="191" y="42" width="54" height="54" rx="5.19231" fill="url(#paint0_linear_54892_8627)" shape-rendering="crispEdges"/>
<rect x="191.25" y="42.25" width="53.5" height="53.5" rx="4.94231" stroke="url(#paint1_linear_54892_8627)" stroke-width="0.5" shape-rendering="crispEdges"/>
</g>
<path fill-rule="evenodd" clip-rule="evenodd" d="M218 52.3379C218 52.3379 218 52.3379 218 52.3379C224.599 52.3379 230.302 56.1744 233 61.7386C234.064 63.933 234.661 66.3961 234.661 68.9985C234.661 69.6615 234.622 70.3154 234.547 70.9581C234.115 74.6453 232.48 77.9641 230.044 80.5113C229.132 81.4648 228.108 82.3102 226.993 83.0263C224.399 84.6927 221.313 85.6592 218 85.6592C209.134 85.6592 201.885 78.7329 201.369 69.9957C201.35 69.6658 201.34 69.3333 201.34 68.9985C201.34 68.6158 201.353 68.2361 201.378 67.8598C201.679 63.4053 203.731 59.4315 206.849 56.6199C207.682 55.8688 208.592 55.2007 209.564 54.6285C210.209 54.2491 210.882 53.9122 211.577 53.6209C213.555 52.7944 215.722 52.3379 217.999 52.3379C217.999 52.3379 217.999 52.3379 218 52.3379ZM205.875 62.9729C204.972 64.7876 204.464 66.8337 204.464 68.9985C204.464 75.0052 208.376 80.0981 213.791 81.8682C213.787 81.8128 213.782 81.7575 213.777 81.7021L213.777 81.7021C213.737 81.2193 213.696 80.7362 213.704 80.2594C213.707 80.091 213.725 79.9225 213.744 79.7553C213.798 79.2598 213.851 78.7759 213.492 78.3403C213.213 78.0019 212.795 77.707 212.398 77.4264C212.216 77.2971 212.037 77.1708 211.878 77.0447C211.4 76.6658 211.284 76.2458 211.14 75.7259L211.14 75.7258C211.108 75.6107 211.075 75.4906 211.036 75.3649C210.762 74.4833 210.516 73.6348 210.891 72.7406C210.939 72.6255 211.013 72.5083 211.089 72.3883C211.254 72.1274 211.428 71.8537 211.359 71.5615C211.276 71.2151 211.004 71.1618 210.715 71.1052C210.666 71.0957 210.617 71.0861 210.568 71.075C209.811 70.9017 209.41 70.3135 208.999 69.7103C208.749 69.3438 208.495 68.9717 208.155 68.6837L207.676 68.3798C207.536 68.2523 207.372 68.1257 207.203 67.9958L207.203 67.9957C206.848 67.7232 206.475 67.4359 206.266 67.0937C206.03 66.7048 206.011 66.0578 206.039 65.617C206.051 65.4304 206.071 65.2526 206.091 65.0792C206.148 64.5709 206.2 64.1009 206.036 63.561C205.973 63.353 205.918 63.1584 205.875 62.9729ZM231.497 70.0561C230.957 77.038 225.121 82.5353 218 82.5353C217.35 82.5353 216.711 82.4895 216.085 82.4008C216.424 82.1198 216.849 81.8699 217.222 81.6498L217.222 81.6498C217.458 81.5109 217.674 81.3839 217.835 81.2685C218.147 81.0458 218.473 80.834 218.801 80.6212L218.801 80.6212C219.548 80.136 220.302 79.6462 220.911 79.0126C221.051 78.866 221.156 78.6383 221.272 78.3836L221.272 78.3835C221.382 78.1429 221.504 77.8782 221.676 77.6351C221.769 77.5044 221.937 77.4625 222.101 77.4215C222.279 77.3769 222.453 77.3334 222.523 77.1785C222.763 76.6511 222.793 75.8608 222.594 75.3823C222.405 74.9274 221.821 74.6628 221.329 74.4398C221.194 74.3787 221.066 74.3208 220.955 74.2629C220.723 74.1417 220.467 74.0614 220.21 73.9811C219.927 73.8924 219.644 73.8037 219.394 73.66C219.167 73.5289 218.947 73.2734 218.728 73.0196C218.527 72.7856 218.326 72.5532 218.123 72.421C217.853 72.2454 217.554 72.1899 217.252 72.1336C216.928 72.0734 216.601 72.0124 216.299 71.8023C216.087 71.6546 215.903 71.4615 215.722 71.2707L215.722 71.2707C215.436 70.9694 215.156 70.674 214.778 70.5728C214.018 70.3701 213.294 70.4471 212.565 70.5246H212.565C212.11 70.5729 211.654 70.6215 211.185 70.6027C210.403 70.5715 210.13 69.7374 209.915 69.0801L209.91 69.0647C209.857 68.9034 209.837 68.661 209.816 68.4014C209.773 67.888 209.724 67.3072 209.406 67.1535C209.19 67.0489 208.906 67.0615 208.625 67.0739C208.089 67.0976 207.565 67.1208 207.546 66.3333C207.517 65.184 208.918 64.4111 209.915 64.781C210.775 65.1013 210.709 65.5952 210.62 66.2674C210.611 66.3388 210.601 66.4122 210.592 66.4876C210.493 67.3266 211.294 68.2429 212.188 68.128C213.15 68.0036 212.903 66.7631 212.402 66.2546C212.209 66.0578 211.977 65.9397 211.702 65.8988C211.106 64.7899 211.686 64.4886 212.348 64.145C212.765 63.9282 213.215 63.6945 213.422 63.2304C213.484 63.0901 213.594 63.0504 213.664 63.025C213.675 63.0208 213.686 63.017 213.695 63.0131C213.825 62.9559 213.955 62.923 214.078 62.8919C214.35 62.8227 214.589 62.7623 214.724 62.4637C214.735 62.4403 214.745 62.418 214.754 62.3967L214.755 62.3966C214.859 62.1621 214.91 62.0471 215.223 61.9851C215.372 61.9556 215.537 61.9647 215.702 61.9738C215.952 61.9876 216.205 62.0016 216.414 61.8843C216.603 61.7789 216.773 61.4467 216.569 61.2531C216.473 61.1609 216.345 61.1428 216.21 61.1239C216.046 61.1008 215.873 61.0764 215.738 60.9146C215.838 60.5844 216.215 60.514 216.583 60.4452C217.002 60.367 217.411 60.2907 217.39 59.8378C217.36 59.1907 216.697 58.5799 216.107 58.4886C216.074 58.4834 216.042 58.4787 216.012 58.4742C215.775 58.4389 215.607 58.4138 215.401 58.2478C215.361 58.2151 215.323 58.1809 215.286 58.1475L215.286 58.1475C215.111 57.9906 214.956 57.8514 214.682 57.9785C214.46 58.0819 214.327 58.4381 214.195 58.792C214.019 59.2628 213.844 59.7297 213.463 59.5922C213.227 59.5068 213.107 59.1726 212.998 58.8669C212.94 58.7048 212.885 58.5508 212.816 58.4461C212.385 57.7865 212.931 57.4716 213.592 57.3614C213.767 57.3324 213.954 57.3129 214.145 57.2931L214.145 57.2931C214.832 57.2215 215.576 57.1442 216.023 56.5885C216.672 55.7808 215.263 55.9304 214.855 56.0107C214.613 56.0588 214.199 56.1237 213.788 56.1301C214.755 55.8136 215.77 55.6032 216.82 55.5125C216.874 55.6945 217.105 55.8517 217.298 55.9822C217.375 56.0347 217.446 56.0829 217.497 56.1266C217.835 56.4194 218.112 56.7689 218.109 57.2349C218.109 57.3103 218.103 57.3776 218.097 57.4403C218.081 57.6265 218.068 57.7727 218.213 57.9717C218.367 58.1842 218.769 58.5164 219.055 58.4156C219.252 58.3466 219.321 58.1238 219.385 57.915C219.416 57.8141 219.447 57.7164 219.49 57.641C219.626 57.4045 219.83 57.2603 220.017 57.1279C220.354 56.8903 220.636 56.6911 220.373 56.0652C220.303 55.8998 220.227 55.7556 220.143 55.6304C221.869 55.9049 223.486 56.5055 224.929 57.3671C225.101 57.4917 225.263 57.6296 225.415 57.7833C225.582 57.9502 226.095 58.4744 225.834 58.7389C225.637 58.9398 225.167 58.6622 224.869 58.4858C224.79 58.4396 224.724 58.4003 224.677 58.3784C224.656 58.3685 224.633 58.3579 224.61 58.3469L224.61 58.3468C224.32 58.2087 223.902 58.0102 224.109 58.4445C224.135 58.4997 224.173 58.5479 224.211 58.596L224.211 58.5961C224.275 58.6757 224.338 58.755 224.345 58.8649C224.35 58.9441 224.317 59.0125 224.283 59.081C224.256 59.1351 224.23 59.1893 224.222 59.249C224.183 59.5576 224.444 59.9275 224.683 59.5749C224.758 59.4649 224.785 59.3543 224.805 59.2718C224.845 59.1098 224.858 59.0555 225.156 59.3246C225.18 59.3468 225.204 59.3717 225.229 59.397L225.229 59.397C225.32 59.4899 225.416 59.5883 225.551 59.5796C225.614 59.5749 225.663 59.5261 225.712 59.478C225.76 59.4301 225.808 59.3828 225.869 59.3797C226.22 59.3591 226.065 59.6277 225.951 59.825C225.916 59.8848 225.885 59.9381 225.873 59.9747C225.85 60.0472 225.825 60.0621 225.813 60.069C225.809 60.071 225.807 60.0723 225.806 60.0742C225.805 60.0777 225.81 60.0832 225.823 60.0991C225.832 60.1103 225.845 60.1267 225.864 60.1511C225.915 60.218 226.073 60.261 226.215 60.3001C226.304 60.3243 226.387 60.3471 226.436 60.373C226.749 60.5383 226.835 60.6753 226.577 60.9414C226.497 61.0243 226.385 61.0838 226.274 61.1436C226.118 61.2267 225.962 61.3102 225.888 61.4577C225.727 61.7757 225.988 62.2024 226.258 62.3677C226.845 62.7297 227.717 62.6006 227.736 61.7741C227.74 61.6107 227.669 61.4487 227.598 61.2865C227.498 61.055 227.397 60.8232 227.512 60.5871C227.728 60.1456 228.23 60.334 228.612 60.5925C229.037 61.1287 229.423 61.6978 229.764 62.2954C229.672 62.2298 229.576 62.1628 229.464 62.1C228.92 61.7915 228.337 62.2055 227.933 62.5755C227.438 63.0273 227.289 63.4838 227.205 64.1246C227.137 64.6495 226.959 65.1041 226.774 65.5749L226.774 65.575C226.718 65.7184 226.661 65.8633 226.607 66.0121C226.417 66.5297 226.488 66.9952 226.566 67.5155C226.573 67.5602 226.58 67.6054 226.587 67.6509C226.614 67.8359 226.636 68.0219 226.657 68.2078V68.2078C226.708 68.6391 226.758 69.0701 226.881 69.4881C227.194 70.5539 227.815 71.3773 228.91 71.0435C229.145 70.9719 229.461 70.8112 229.799 70.6393C230.408 70.3297 231.089 69.9837 231.497 70.0561Z" fill="white"/>
<g clip-path="url(#clip0_54892_8627)">
<path d="M13.45 62.7266H6.38285C5.50155 62.7266 4.78711 63.441 4.78711 64.3223V87.6414C4.78711 88.5227 5.50155 89.2371 6.38285 89.2371H13.45C14.3313 89.2371 15.0457 88.5227 15.0457 87.6414V64.3223C15.0457 63.441 14.3313 62.7266 13.45 62.7266Z" fill="#9D97F4"/>
<path d="M31.8406 51.6719H24.7735C23.8922 51.6719 23.1777 52.3863 23.1777 53.2676V87.642C23.1777 88.5233 23.8922 89.2377 24.7735 89.2377H31.8406C32.7219 89.2377 33.4364 88.5233 33.4364 87.642V53.2676C33.4364 52.3863 32.7219 51.6719 31.8406 51.6719Z" fill="#00E0FF"/>
<path d="M50.2283 56.707H43.1612C42.2799 56.707 41.5654 57.4215 41.5654 58.3028V87.6408C41.5654 88.5221 42.2799 89.2365 43.1612 89.2365H50.2283C51.1096 89.2365 51.8241 88.5221 51.8241 87.6408V58.3028C51.8241 57.4215 51.1096 56.707 50.2283 56.707Z" fill="#9D97F4"/>
<path d="M68.617 39.6387H61.5498C60.6685 39.6387 59.9541 40.3531 59.9541 41.2344V87.6451C59.9541 88.5264 60.6685 89.2408 61.5498 89.2408H68.617C69.4983 89.2408 70.2127 88.5264 70.2127 87.6451V41.2344C70.2127 40.3531 69.4983 39.6387 68.617 39.6387Z" fill="#00E0FF"/>
<path d="M9.99751 55.7308C9.63205 55.7308 9.27139 55.5657 9.03576 55.2515C8.63664 54.721 8.74244 53.9676 9.273 53.5685L28.1954 39.333L46.4862 46.3955L64.3234 28.9333C64.7979 28.4685 65.5592 28.4765 66.0241 28.951C66.4889 29.4254 66.4809 30.1868 66.0065 30.6517L47.0649 49.1957L28.5769 42.0564L10.7204 55.4904C10.504 55.6539 10.2508 55.7324 9.99912 55.7324L9.99751 55.7308Z" fill="white"/>
<path d="M32.2546 41.3393C32.6116 39.1569 31.1318 37.0983 28.9494 36.7413C26.767 36.3843 24.7085 37.8641 24.3515 40.0465C23.9945 42.2289 25.4743 44.2874 27.6566 44.6444C29.839 45.0014 31.8976 43.5216 32.2546 41.3393Z" fill="white"/>
<path d="M9.99432 58.5316C12.2057 58.5316 13.9984 56.7389 13.9984 54.5275C13.9984 52.3161 12.2057 50.5234 9.99432 50.5234C7.78293 50.5234 5.99023 52.3161 5.99023 54.5275C5.99023 56.7389 7.78293 58.5316 9.99432 58.5316Z" fill="white"/>
<path d="M46.6945 51.221C48.9059 51.221 50.6986 49.4284 50.6986 47.217C50.6986 45.0056 48.9059 43.2129 46.6945 43.2129C44.4831 43.2129 42.6904 45.0056 42.6904 47.217C42.6904 49.4284 44.4831 51.221 46.6945 51.221Z" fill="white"/>
<path d="M65.0832 33.7953C67.2946 33.7953 69.0872 32.0026 69.0872 29.7912C69.0872 27.5798 67.2946 25.7871 65.0832 25.7871C62.8718 25.7871 61.0791 27.5798 61.0791 29.7912C61.0791 32.0026 62.8718 33.7953 65.0832 33.7953Z" fill="white"/>
<path d="M73.425 95.5093L1.57498 95.5093C0.70559 95.5093 0 94.8037 0 93.9344C0 93.065 0.70559 92.3594 1.57498 92.3594L73.425 92.3594C74.2944 92.3594 75 93.065 75 93.9344C75 94.8037 74.2944 95.5093 73.425 95.5093Z" fill="white"/>
</g>
<defs>
<filter id="filter0_bd_54892_8627" x="183.686" y="36.8077" width="68.6275" height="68.8029" filterUnits="userSpaceOnUse" color-interpolation-filters="sRGB">
<feFlood flood-opacity="0" result="BackgroundImageFix"/>
<feGaussianBlur in="BackgroundImageFix" stdDeviation="2.59615"/>
<feComposite in2="SourceAlpha" operator="in" result="effect1_backgroundBlur_54892_8627"/>
<feColorMatrix in="SourceAlpha" type="matrix" values="0 0 0 0 0 0 0 0 0 0 0 0 0 0 0 0 0 0 127 0" result="hardAlpha"/>
<feMorphology radius="0.574198" operator="erode" in="SourceAlpha" result="effect2_dropShadow_54892_8627"/>
<feOffset dy="2.29679"/>
<feGaussianBlur stdDeviation="3.94398"/>
<feComposite in2="hardAlpha" operator="out"/>
<feColorMatrix type="matrix" values="0 0 0 0 0 0 0 0 0 0 0 0 0 0 0 0 0 0 0.2 0"/>
<feBlend mode="normal" in2="effect1_backgroundBlur_54892_8627" result="effect2_dropShadow_54892_8627"/>
<feBlend mode="normal" in="SourceGraphic" in2="effect2_dropShadow_54892_8627" result="shape"/>
</filter>
<linearGradient id="paint0_linear_54892_8627" x1="245" y1="96" x2="179.816" y2="68.9582" gradientUnits="userSpaceOnUse">
<stop stop-color="white" stop-opacity="0.4"/>
<stop offset="1" stop-color="white" stop-opacity="0.1"/>
</linearGradient>
<linearGradient id="paint1_linear_54892_8627" x1="198.341" y1="43.08" x2="250.397" y2="70.9267" gradientUnits="userSpaceOnUse">
<stop stop-color="white" stop-opacity="0"/>
<stop offset="1" stop-color="#00E0FF"/>
</linearGradient>
<clipPath id="clip0_54892_8627">
<rect width="75" height="75" fill="white" transform="translate(0 21)"/>
</clipPath>
</defs>
</svg>
