<svg width="173" height="29" viewBox="0 0 173 29" fill="none" xmlns="http://www.w3.org/2000/svg">
<path d="M161.373 17.7482C161.71 18.0225 162.132 18.1492 162.639 18.1492C163.863 18.1492 164.454 17.5793 164.454 16.503C164.454 16.0387 164.264 15.6589 163.905 15.3634C163.546 15.0468 163.103 14.8991 162.618 14.8991C162.132 14.8991 161.71 15.0468 161.352 15.3423C160.93 15.6378 160.74 16.0387 160.761 16.503C160.782 17.0517 160.993 17.4527 161.373 17.7482ZM148.309 14.8991C146.41 14.8991 144.848 15.5533 143.687 16.8196C142.548 18.0436 141.999 19.6264 142.02 21.568C141.999 23.5307 142.632 25.1346 143.877 26.2953C145.123 27.4771 146.726 28.047 148.731 28.047C150.905 28.047 152.509 27.4771 153.522 26.4008C153.649 26.2531 153.712 26.1476 153.712 26.0843C153.712 25.8732 153.501 25.3879 153.1 24.6281C152.678 23.8473 152.382 23.4252 152.214 23.3407C151.855 23.5307 151.538 23.7206 151.222 23.9528C150.462 24.3537 149.723 24.5648 149.006 24.5648C148.351 24.5648 147.782 24.4593 147.296 24.206C146.684 23.9106 146.347 23.4885 146.241 22.9398C148.225 22.7921 149.702 22.6654 150.715 22.5388C152.361 22.37 153.227 22.2855 153.311 22.2644C153.86 22.1378 154.134 21.6524 154.134 20.8083C154.134 19.1832 153.564 17.7693 152.467 16.6085C151.327 15.4267 149.955 14.8569 148.309 14.8991ZM149.28 20.2596C147.951 20.4706 147.001 20.5761 146.389 20.5972C146.157 20.5761 146.03 20.4706 146.03 20.2385C146.03 19.6686 146.178 19.1621 146.515 18.7823C146.853 18.318 147.317 18.1069 147.866 18.128C148.394 18.128 148.816 18.3391 149.196 18.7401C149.554 19.0988 149.744 19.5631 149.744 20.0696C149.723 20.154 149.576 20.2174 149.28 20.2596ZM89.0279 15.0468C87.7828 15.0468 86.812 15.4478 86.0733 16.2709C85.9889 16.3342 85.9045 16.3553 85.8201 16.3553C85.6724 16.3342 85.6091 16.2076 85.6091 15.9543C85.6091 14.4981 85.6302 13.3585 85.6935 12.5355C85.6935 12.3244 85.7146 11.9023 85.7779 11.2481C85.799 10.6783 85.8201 10.2351 85.8412 9.91856C85.8201 9.64421 85.7357 9.51758 85.5879 9.51758C85.0181 9.51758 84.2795 9.55979 83.3931 9.6442C82.0847 9.79193 81.3671 9.85524 81.2194 9.85524C80.945 9.85524 80.8184 9.91856 80.8184 10.0663L80.8395 10.214C81.0928 12.852 81.2194 15.9754 81.2194 19.5631C81.2194 23.3196 81.135 25.8521 80.9662 27.1817C80.9451 27.2872 80.945 27.3505 80.945 27.3716C80.945 27.5827 81.2194 27.6882 81.747 27.7093C84.0051 27.7093 85.2081 27.6671 85.3558 27.6249C85.4613 27.6038 85.5457 27.4349 85.6302 27.0973C85.6935 26.7807 85.7568 26.6119 85.8412 26.6119C85.8834 26.6119 85.9256 26.6541 85.9889 26.7385C86.7698 27.4561 87.7828 27.8148 89.049 27.8148C90.7584 27.8148 92.1935 27.1817 93.2909 25.9365C94.2828 24.7336 94.7893 23.2563 94.7893 21.5258C94.7893 19.6053 94.325 18.0647 93.3542 16.9462C92.299 15.68 90.8429 15.0468 89.0279 15.0468ZM89.5766 23.1508C89.1334 23.6362 88.5636 23.8895 87.8672 23.8895C87.1285 23.8895 86.5587 23.6573 86.2 23.193C85.7779 22.7287 85.5879 22.1167 85.6091 21.3992C85.5879 20.6605 85.799 20.0696 86.2 19.6053C86.6009 19.0988 87.1708 18.8667 87.8672 18.8878C88.5425 18.8878 89.1123 19.1199 89.5344 19.6053C89.9565 20.0907 90.1675 20.6816 90.1675 21.357C90.1675 22.0956 89.9565 22.7076 89.5766 23.1508ZM108.022 9.91856H103.526C103.315 9.91856 103.189 10.0241 103.168 10.2351C103.168 10.2773 103.189 10.3406 103.189 10.4462C103.379 11.7757 103.484 13.4007 103.505 15.2368V20.0907C103.484 20.8294 103.463 21.9268 103.442 23.4463C103.4 24.9236 103.4 26.0421 103.4 26.8018V27.3505C103.421 27.5405 103.526 27.646 103.716 27.6882C104.012 27.7515 104.666 27.7726 105.7 27.7726C106.671 27.7726 107.325 27.7515 107.705 27.6882C107.916 27.646 108.022 27.5405 108.043 27.3716C108.022 27.1184 108 26.7807 107.979 26.3586C107.958 25.8943 107.958 25.5567 107.958 25.3456C107.937 24.1005 107.937 22.3489 107.937 20.0696C107.937 17.2628 108.064 14.055 108.317 10.4462V10.2351C108.338 10.0452 108.254 9.93966 108.022 9.91856ZM100.973 15.68C100.72 15.68 100.34 15.7011 99.8332 15.7433C99.3478 15.7855 98.989 15.8066 98.7569 15.8066C98.5036 15.7855 98.1449 15.7644 97.6806 15.7222C97.1741 15.6589 96.7942 15.6378 96.541 15.6589C96.3088 15.68 96.1822 15.7644 96.1611 15.9543C96.1611 15.9754 96.1822 16.0598 96.2033 16.2076C96.3932 17.6004 96.4988 19.5209 96.5199 21.8846C96.4988 22.4755 96.4777 23.3618 96.4566 24.5648C96.4566 25.7466 96.4354 26.5908 96.4354 27.1606C96.4354 27.3927 96.4566 27.5194 96.4777 27.5616C96.5199 27.6249 96.6254 27.6671 96.8153 27.7093C97.0897 27.7515 97.7439 27.7726 98.7569 27.7726C99.7699 27.7726 100.382 27.7515 100.677 27.7093C100.91 27.6671 101.015 27.5616 101.015 27.3927C100.994 26.7807 100.973 25.8732 100.952 24.6703C100.931 23.4252 100.931 22.4966 100.931 21.8635C100.931 19.7108 101.036 17.8326 101.247 16.1865V15.9332C101.289 15.7644 101.184 15.68 100.973 15.68ZM130.371 16.1021C130.012 15.9754 129.421 15.8277 128.619 15.68C127.712 15.4689 127.121 15.3634 126.825 15.3634C126.678 15.3423 126.572 15.5745 126.424 15.9965C126.34 16.3975 126.277 16.6085 126.213 16.6085C126.171 16.6085 126.129 16.5874 126.087 16.5241C125.348 15.5956 124.314 15.1524 122.984 15.1524C121.085 15.1524 119.587 15.7855 118.489 17.0095C117.413 18.2125 116.906 19.7531 116.906 21.6735C116.885 23.3407 117.392 24.818 118.405 26.021C119.481 27.3083 120.832 27.9414 122.499 27.9414C123.596 27.9414 124.588 27.4771 125.559 26.5486C125.665 26.4219 125.749 26.3375 125.812 26.2953C125.876 26.3164 125.939 26.5908 126.002 27.0762C126.066 27.5405 126.192 27.7937 126.382 27.8148C127.712 27.8148 128.894 27.7726 129.949 27.6882C130.265 27.646 130.413 27.456 130.413 27.1395C130.413 26.5064 130.371 25.5567 130.286 24.2693C130.202 22.982 130.16 22.0323 130.16 21.3781C130.16 19.6897 130.286 18.0647 130.561 16.5452C130.582 16.3975 130.603 16.3131 130.624 16.292C130.582 16.2076 130.519 16.1443 130.371 16.1021ZM125.369 23.193C124.926 23.6784 124.335 23.9106 123.639 23.9106C122.963 23.9106 122.372 23.6573 121.929 23.1719C121.465 22.6865 121.212 22.0956 121.191 21.4203C121.191 20.6816 121.423 20.1118 121.866 19.6686C122.33 19.1832 122.921 18.9511 123.639 18.9511C124.377 18.9511 124.968 19.2044 125.411 19.6897C125.855 20.154 126.087 20.7238 126.066 21.3992C126.066 22.1378 125.833 22.7498 125.369 23.193ZM114.986 15.7011C114.754 15.7011 114.374 15.7222 113.889 15.7644C113.403 15.8066 113.044 15.8277 112.791 15.8277L111.63 15.7644C111.145 15.7011 110.786 15.68 110.533 15.7011C110.301 15.7011 110.195 15.7855 110.216 15.9754C110.195 15.9965 110.195 16.0809 110.216 16.2287C110.406 17.6215 110.512 19.542 110.533 21.9057C110.533 22.4966 110.533 23.383 110.512 24.5859C110.47 25.7677 110.449 26.6119 110.449 27.1817C110.449 27.4138 110.47 27.5405 110.491 27.5827C110.533 27.646 110.638 27.6882 110.828 27.7304C111.103 27.7726 111.757 27.7937 112.77 27.7937C113.783 27.7937 114.395 27.7726 114.69 27.7304C114.923 27.6882 115.028 27.5827 115.028 27.4138C115.028 26.8018 115.028 25.8943 115.007 24.6914C114.965 23.4463 114.944 22.5177 114.944 21.8846C114.944 19.732 115.028 17.8537 115.218 16.2076C115.26 16.0598 115.26 15.9754 115.26 15.9543C115.302 15.7855 115.197 15.7011 114.986 15.7011ZM164.264 18.9089C164.074 18.8878 163.779 18.8878 163.441 18.9511C163.082 18.9722 162.808 18.9722 162.618 18.9722C162.428 18.9722 162.154 18.9722 161.816 18.9511C161.457 18.8878 161.183 18.8667 160.993 18.8878C160.824 18.8667 160.74 18.93 160.74 19.0777C160.74 19.0988 160.761 19.1621 160.782 19.2888C160.93 20.344 160.993 21.7368 160.993 23.4885C160.972 23.9106 160.951 24.5648 160.93 25.4301C160.908 26.2953 160.908 26.9284 160.93 27.3505C160.908 27.5194 160.908 27.6038 160.93 27.6249C160.972 27.6882 161.056 27.7304 161.204 27.7515C161.394 27.7937 161.879 27.8148 162.639 27.8148C163.378 27.8148 163.842 27.7937 164.053 27.7515C164.222 27.7093 164.306 27.6249 164.327 27.4983C164.327 27.0551 164.306 26.3797 164.285 25.4934C164.264 24.607 164.264 23.9317 164.264 23.4885C164.264 21.8846 164.327 20.4706 164.475 19.2888V19.0988C164.475 18.9722 164.412 18.9089 164.264 18.9089ZM73.1154 15.0468C71.1739 15.0468 69.6122 15.6589 68.4936 16.8618C67.3329 18.0647 66.7842 19.6475 66.7842 21.6102C66.7842 23.4463 67.3751 24.9658 68.557 26.1265C69.7599 27.3294 71.2794 27.9203 73.1365 27.9203C75.057 27.8992 76.6187 27.2872 77.8005 26.1054C78.9613 24.9025 79.5311 23.3619 79.5311 21.4414C79.5311 19.542 78.9402 17.9803 77.7794 16.8196C76.5976 15.6167 75.0359 15.0468 73.1154 15.0468ZM74.7616 23.2141C74.3395 23.7206 73.7908 23.995 73.1576 24.0161C72.4823 23.995 71.9125 23.7206 71.5115 23.2141C71.1105 22.7287 70.8995 22.1378 70.8995 21.4625C70.8995 20.7872 71.1105 20.1962 71.5115 19.732C71.9547 19.2044 72.5034 18.9511 73.1576 18.9722C73.8119 18.9511 74.3606 19.2044 74.7616 19.732C75.1836 20.2174 75.3947 20.8083 75.4158 21.4625C75.3947 22.1589 75.1836 22.7498 74.7616 23.2141ZM140.522 15.4689C139.762 15.4689 138.981 15.7011 138.179 16.1443C137.441 16.5452 137.082 16.7774 137.124 16.8196C137.019 16.7563 136.955 16.4819 136.913 16.0176C136.871 15.4689 136.765 15.1946 136.597 15.2157C136.554 15.1946 135.858 15.3212 134.549 15.6167C133.642 15.7433 132.967 15.8277 132.502 15.8699C132.376 15.9121 132.312 15.9965 132.312 16.1443C132.312 16.1865 132.333 16.2287 132.355 16.292C132.692 17.6004 132.882 19.2255 132.903 21.1881V24.2482C132.882 25.5567 132.882 26.5697 132.903 27.2661C132.882 27.4983 133.009 27.6249 133.304 27.6671C133.79 27.7093 134.423 27.7304 135.225 27.7304C136.069 27.7304 136.681 27.7304 137.082 27.7093C137.356 27.6671 137.483 27.5616 137.483 27.3716C137.483 27.1395 137.483 26.7596 137.462 26.2742C137.42 25.7888 137.398 25.43 137.398 25.1979C137.377 24.818 137.377 24.2693 137.377 23.5518C137.356 22.792 137.356 22.2433 137.377 21.9057C137.356 21.2092 137.462 20.7661 137.715 20.5761C137.968 20.344 138.454 20.2385 139.15 20.2385C139.319 20.2385 139.551 20.2596 139.889 20.3018H140.564C140.923 20.3018 141.113 20.154 141.113 19.8164C141.113 19.6475 141.113 19.3099 141.092 18.8034V17.8537C141.092 17.6215 141.113 17.2628 141.176 16.7985C141.218 16.3553 141.239 16.0176 141.239 15.7855C141.239 15.5533 140.986 15.4689 140.522 15.4689ZM42.4934 18.4024C42.4934 17.305 42.0924 16.503 41.2905 15.9332C40.5729 15.4056 39.6655 15.1313 38.5681 15.1313C37.8083 15.1313 37.0486 15.3423 36.2888 15.7433C35.508 16.1654 34.8748 16.693 34.4739 17.2839C34.2417 16.5663 33.7985 16.0176 33.1232 15.6378C32.5112 15.279 31.8148 15.1102 31.055 15.1102C30.2742 15.1102 29.5777 15.2579 28.9446 15.5956C28.5014 15.8066 27.9105 16.2076 27.193 16.7985C27.0663 16.8829 26.9608 16.9462 26.8764 16.9884C26.8131 16.9884 26.7709 16.693 26.7498 16.1021C26.7287 15.5111 26.6443 15.2157 26.4965 15.2157C26.2222 15.2157 25.8845 15.279 25.5046 15.4056C24.8926 15.5745 24.5549 15.6589 24.4494 15.68C24.3439 15.7011 23.964 15.7433 23.352 15.8066C22.8244 15.8488 22.4867 15.9121 22.3179 15.9965C22.1702 16.0598 22.1069 16.1443 22.128 16.292C22.128 16.3342 22.128 16.3975 22.1491 16.503C22.339 18.2125 22.4234 19.7953 22.4234 21.1881V27.2028C22.4234 27.4138 22.4445 27.5405 22.5079 27.6038C22.529 27.646 22.6345 27.6671 22.8455 27.6882C23.5208 27.7304 24.1329 27.7515 24.6394 27.7515C25.4624 27.7515 26.0533 27.7515 26.4121 27.7304C26.6232 27.7093 26.7709 27.6882 26.8342 27.646C26.8342 27.5616 26.8553 27.4349 26.8553 27.2239V23.8261C26.8342 22.3278 26.8342 21.167 26.8553 20.3862C26.8553 20.0274 27.1085 19.7109 27.5728 19.3943C27.9949 19.0988 28.417 18.9511 28.7969 18.9722C29.7254 18.9722 30.1897 19.5842 30.1897 20.7872V22.1378C30.2108 22.7709 30.2108 23.2352 30.2108 23.5518C30.2108 23.9528 30.2108 24.5226 30.1897 25.2823C30.1686 26.0843 30.1686 26.6752 30.1686 27.0762C30.1686 27.4349 30.2953 27.6038 30.5485 27.6038H34.3683C34.6005 27.6038 34.706 27.4771 34.706 27.2028V25.3878C34.6849 24.5648 34.6849 23.9739 34.6849 23.594C34.6638 21.9057 34.6638 20.8716 34.706 20.5128C34.7482 20.0907 34.9804 19.732 35.3813 19.4154C35.7612 19.0566 36.1411 18.8878 36.5421 18.8878C37.4284 18.8667 37.9138 19.3521 37.9771 20.344C37.9771 20.9771 37.9982 22.0323 37.9982 23.5518C37.9982 23.9317 37.9982 24.5015 37.9771 25.2612C37.956 26.021 37.956 26.6119 37.956 26.9918C37.956 27.3505 38.0827 27.5616 38.3359 27.6038C38.5892 27.646 39.2223 27.6671 40.2564 27.6671C41.2483 27.6671 41.8603 27.6671 42.1346 27.646C42.3879 27.6038 42.5145 27.4349 42.5145 27.1184C42.5145 26.5697 42.5145 25.7888 42.4934 24.7336C42.4512 23.6573 42.4301 22.8765 42.4301 22.3489C42.4301 21.9057 42.4512 21.2303 42.4934 20.344V18.4024ZM64.9904 18.4235C64.9904 17.3261 64.5894 16.5241 63.7874 15.9543C63.1121 15.4267 62.2046 15.1524 61.1283 15.1524C60.3686 15.1524 59.6088 15.3634 58.8491 15.7644C58.0682 16.1865 57.4351 16.7141 57.0341 17.305C56.802 16.5874 56.3588 16.0176 55.6835 15.6589C55.0503 15.3001 54.3539 15.1313 53.6153 15.1313C52.8766 15.1313 52.138 15.279 51.526 15.6167C51.0828 15.8277 50.4708 16.2287 49.7321 16.8196C49.6055 16.904 49.5 16.9673 49.4156 17.0095C49.3522 17.0095 49.3311 16.7141 49.3311 16.1232C49.31 15.5322 49.2256 15.2368 49.0779 15.2368C48.8035 15.2368 48.4659 15.3001 48.0649 15.4267C47.4529 15.5744 47.1152 15.6589 46.9886 15.7011C46.8831 15.7222 46.5032 15.7644 45.8912 15.8277C45.3636 15.8699 45.0048 15.9332 44.8149 16.0176C44.6882 16.0598 44.646 16.1443 44.6671 16.292C44.6671 16.3342 44.6671 16.3975 44.6882 16.503C44.8782 18.2125 44.9626 19.7953 44.9626 21.1881V27.2028C44.9415 27.4138 44.9415 27.5405 44.9837 27.6038C45.0048 27.646 45.1314 27.6671 45.3425 27.6882C46.0178 27.7304 46.6298 27.7515 47.1363 27.7515C47.9383 27.7515 48.5714 27.7515 48.9513 27.7304C49.1412 27.7093 49.2678 27.6882 49.3311 27.646C49.3733 27.5616 49.3945 27.4349 49.3945 27.2239V20.3862C49.3945 20.0274 49.6477 19.7109 50.112 19.3943C50.5341 19.0988 50.9562 18.9511 51.336 18.9722C52.2646 18.9722 52.7289 19.5842 52.7289 20.7872C52.7078 21.1037 52.7078 21.568 52.7289 22.18C52.7289 22.8131 52.75 23.2985 52.7711 23.594C52.7711 23.9739 52.7711 24.5648 52.75 25.3245C52.7289 26.1265 52.7289 26.7174 52.75 27.1184C52.7289 27.4772 52.8344 27.646 53.0666 27.646H56.9075C57.1396 27.646 57.2452 27.5194 57.2452 27.245V25.4301C57.203 24.607 57.1819 24.0372 57.1819 23.6362C57.1819 21.9479 57.203 20.9138 57.2452 20.555C57.2663 20.1329 57.4773 19.7742 57.8572 19.4576C58.2582 19.0988 58.6591 18.93 59.0812 18.93C59.9887 18.9089 60.453 19.3943 60.4952 20.3862C60.5374 21.0193 60.5585 22.0745 60.5796 23.594C60.5585 23.9739 60.5374 24.5437 60.5163 25.3034C60.4952 26.0843 60.4952 26.633 60.4952 27.034C60.4741 27.3927 60.6007 27.6038 60.8751 27.646C61.1283 27.6882 61.7614 27.7093 62.7955 27.7093C63.7874 27.7093 64.3783 27.7093 64.6527 27.6882C64.9059 27.646 65.0326 27.4772 65.0326 27.1606C65.0326 26.6119 65.0326 25.831 65.0115 24.7758C64.9904 23.6995 64.9904 22.9187 64.9904 22.3911C64.9904 21.9479 64.9904 21.2725 65.0115 20.3862C64.9904 19.5209 64.9904 18.8456 64.9904 18.4235ZM172.051 24.8602C171.925 24.8602 171.735 24.8814 171.46 24.9447C171.165 25.008 170.954 25.0502 170.785 25.0713C170.3 25.0713 169.962 24.9447 169.772 24.6703C169.667 24.4382 169.624 24.0583 169.624 23.5307V22.2433C169.603 21.969 169.624 21.8213 169.709 21.8213H170.447C170.574 21.8213 170.785 21.8213 171.102 21.8424H171.714C171.904 21.8424 171.988 21.779 171.988 21.6524C171.967 21.4836 171.967 21.2726 171.967 20.9771V20.3229C171.967 20.1751 171.988 19.9641 172.03 19.6686C172.072 19.3732 172.072 19.1621 172.072 19.0144C172.072 18.9089 172.009 18.8667 171.883 18.8667C171.629 18.8667 171.292 18.8878 170.87 18.9089C170.426 18.9089 170.089 18.9089 169.857 18.93C169.667 18.93 169.582 18.7823 169.582 18.4657C169.582 18.1914 169.603 17.8115 169.667 17.3261C169.709 16.8196 169.709 16.4397 169.709 16.1865C169.709 16.0809 169.645 16.0387 169.498 16.0387C168.822 15.9121 168.337 15.8488 167.978 15.8699C167.852 15.8488 167.619 15.8066 167.24 15.7433C166.944 15.6589 166.712 15.6378 166.543 15.6589C166.395 15.6378 166.332 15.9965 166.332 16.7352L166.395 17.8959C166.395 18.4024 166.374 18.7823 166.332 19.0355C166.311 19.141 166.206 19.1832 165.994 19.1621C165.594 19.1832 165.382 19.2677 165.382 19.4154C165.361 19.542 165.361 19.732 165.382 20.0063C165.425 20.2807 165.425 20.4706 165.425 20.6183C165.425 20.7238 165.425 20.8716 165.404 21.1037C165.382 21.2937 165.382 21.4414 165.404 21.5258C165.382 21.6946 165.488 21.779 165.741 21.779H166.037C166.353 21.779 166.501 21.9057 166.501 22.2011C166.501 22.6021 166.48 23.2141 166.459 24.0161C166.417 24.8391 166.395 25.4723 166.395 25.8944C166.395 27.2661 167.303 27.9414 169.076 27.9414C170.046 27.8992 170.933 27.6671 171.756 27.2239C171.925 27.1395 172.009 27.0762 172.03 27.034C172.072 26.9918 172.094 26.8862 172.115 26.6963C172.115 26.5275 172.136 26.232 172.178 25.8732C172.22 25.4723 172.241 25.1979 172.262 25.008C172.284 24.9236 172.199 24.8602 172.051 24.8602ZM159.22 26.2531C159.199 27.3294 158.587 27.857 157.405 27.857C156.856 27.8359 156.392 27.6882 156.054 27.4349C155.696 27.1184 155.506 26.7174 155.527 26.232C155.527 25.7466 155.738 25.3456 156.139 25.0291C156.477 24.7336 156.878 24.607 157.405 24.607C157.869 24.607 158.292 24.7547 158.671 25.0291C159.009 25.3667 159.199 25.7466 159.22 26.2531Z" fill="#2B6481"/>
<path d="M5.75107 27.2039L4.10495 13.043H0.770508C5.24457 8.90665 10.5417 2.76536 12.1034 0.908203C13.6651 2.76536 18.9622 8.90665 23.4363 13.043H20.1018L18.4557 27.2039H5.75107Z" fill="white"/>
<path d="M24.0059 12.768C18.6455 7.85072 12.1032 0 12.1032 0C12.1032 0 5.56094 7.85072 0.200505 12.768C-0.200473 13.1267 0.0527751 13.6543 0.495961 13.6543H3.55605L5.13886 27.3509C5.18107 27.6041 5.30769 27.8152 5.62426 27.8152H18.5611C18.8776 27.8152 19.0042 27.6041 19.0464 27.3509L20.6293 13.6543H23.6893C24.1536 13.6543 24.4069 13.1267 24.0059 12.768ZM20.2072 12.6202C19.975 12.6202 19.7429 12.8102 19.7007 13.0845L18.1179 26.8022H14.4247C14.3191 24.2697 14.1714 20.682 14.5724 16.2079C14.5935 15.8703 14.6568 15.5748 14.2347 15.5959C13.4961 15.6592 12.7996 15.7647 12.1032 15.7647C11.4068 15.7647 10.7103 15.6592 9.97169 15.5959C9.57072 15.5537 9.61293 15.8703 9.63403 16.2079C10.035 20.6609 9.88728 24.2697 9.78176 26.8022H6.08854L4.50574 13.0845C4.46353 12.8313 4.23138 12.6202 3.99924 12.6202H1.78331C5.26548 9.72898 11.5545 2.30034 12.1032 1.66722C12.6519 2.30034 18.9409 9.75008 22.4231 12.6202H20.2072Z" fill="#2B6481"/>
<path d="M115.112 8.71557C114.564 8.14576 113.888 7.8503 113.107 7.8503C112.305 7.8503 111.63 8.14576 111.102 8.71557C110.533 9.28538 110.258 9.96071 110.279 10.7627C110.258 11.5435 110.533 12.1977 111.102 12.7464C111.651 13.3163 112.326 13.6117 113.107 13.6117C113.909 13.6117 114.585 13.3163 115.112 12.7464C115.661 12.1766 115.935 11.5224 115.935 10.7627C115.935 9.93961 115.661 9.26427 115.112 8.71557ZM12.1665 7.23828C11.3646 7.23828 10.6893 7.53374 10.1617 8.10355C9.59185 8.65226 9.29639 9.32759 9.29639 10.1084C9.29639 10.8893 9.59185 11.5857 10.1617 12.1555C10.7104 12.7042 11.3857 12.9786 12.1665 12.9786C12.9685 12.9786 13.6649 12.7042 14.2136 12.1555C14.7623 11.5646 15.0367 10.8893 15.0367 10.1084C15.0367 9.32759 14.7623 8.65226 14.2136 8.10355C13.6438 7.53374 12.9685 7.23828 12.1665 7.23828ZM98.7777 7.8503C97.9757 7.8503 97.2793 8.14576 96.7306 8.71557C96.1819 9.28538 95.9075 9.96071 95.9075 10.7627C95.9075 11.5435 96.1819 12.1977 96.7306 12.7464C97.3215 13.3163 97.9968 13.6117 98.7777 13.6117C99.5585 13.6117 100.255 13.3163 100.783 12.7464C101.331 12.1766 101.606 11.5224 101.606 10.7627C101.606 9.93961 101.331 9.26427 100.783 8.71557C100.234 8.14576 99.5585 7.8503 98.7777 7.8503Z" fill="#D61F27"/>
</svg>
