<svg width="60" height="31" viewBox="0 0 60 31" fill="none" xmlns="http://www.w3.org/2000/svg">
<g clip-path="url(#clip0_1135_183543)">
<path d="M48.6332 24.0323L51.7057 23.5357L53.3601 20.7815L53.8839 21.9747L54.676 22.7488L55.072 23.626L57.8235 24.3154L55.7302 26.5382L56.3884 29.4504L55.072 28.9409L53.3128 28.0056L50.4294 29.3601L50.8075 26.2447L48.6332 24.0323ZM1.41113 24.1226L4.48364 23.626L6.09079 20.6912L7.55614 23.5808L10.865 24.1226L8.5488 26.2899L9.02149 29.4504L6.09079 28.0959L3.1601 29.4504L3.53825 26.335L1.41113 24.1226ZM13.1812 24.1226L16.2537 23.626L17.8608 20.6912L19.3735 23.5808L22.635 24.1226L20.3189 26.2899L20.8388 29.4504L17.8608 28.0959L14.9774 29.4504L15.3556 26.335L13.1812 24.1226ZM25.1876 24.1226L28.2601 23.626L29.8673 20.6912L31.3326 23.5808L34.6414 24.1226L32.3253 26.2899L32.8452 29.4504L29.8673 28.0959L26.9366 29.4504L27.3147 26.335L25.1876 24.1226ZM36.8158 24.1226L39.8883 23.626L41.4955 20.6912L43.0081 23.5808L46.2697 24.1226L43.9535 26.2899L44.4735 29.4504L41.4955 28.0959L38.6121 29.4504L38.9902 26.335L36.8158 24.1226Z" fill="#FF9D28"/>
<path d="M11.7616 23.8536L7.83827 23.3118L6.08931 19.9255L4.34034 23.3118L0.416992 23.8536L3.25315 26.4724L2.59138 30.2199L6.08931 28.459L9.58724 30.2199L8.92546 26.4724L11.7616 23.8536ZM6.08931 27.6463L3.63131 28.9105L4.104 26.2918L2.11869 24.4406L4.90758 24.0343L6.13658 21.6413L7.36558 24.0343L10.1545 24.4406L8.16916 26.2918L8.64185 28.9105L6.08931 27.6463ZM23.5789 23.8536L19.6556 23.3118L17.9066 19.9255L16.1577 23.3118L12.2343 23.8536L15.0705 26.4724L14.4087 30.2199L17.9066 28.459L21.4046 30.2199L20.7428 26.4724L23.5789 23.8536ZM17.9066 27.6463L15.4486 28.9105L15.9213 26.2918L13.936 24.4406L16.7249 24.0343L17.9539 21.6413L19.1829 24.0343L21.9718 24.4406L19.9865 26.2918L20.4592 28.9105L17.9066 27.6463ZM35.3963 23.8536L31.4729 23.3118L29.724 19.9255L27.975 23.3118L24.0516 23.8536L26.8878 26.4724L26.226 30.2199L29.724 28.459L33.2219 30.2199L32.5601 26.4724L35.3963 23.8536ZM29.724 27.6463L27.266 28.9105L27.7386 26.2918L25.7533 24.4406L28.5422 24.0343L29.7712 21.6413L31.0002 24.0343L33.7891 24.4406L31.8038 26.2918L32.2765 28.9105L29.724 27.6463ZM47.2136 23.8536L43.2902 23.3118L41.5413 19.9255L39.7923 23.3118L35.869 23.8536L38.7051 26.4724L38.0434 30.2199L41.5413 28.459L45.0392 30.2199L44.3774 26.4724L47.2136 23.8536ZM41.5413 27.6463L39.0833 28.9105L39.556 26.2918L37.5707 24.4406L40.3595 24.0343L41.5886 21.6413L42.8175 24.0343L45.6064 24.4406L43.6211 26.2918L44.0938 28.9105L41.5413 27.6463ZM59.0309 23.8536L55.1076 23.3118L53.3586 19.9255L51.6096 23.3118L47.6863 23.8536L50.5224 26.4724L49.8607 30.2199L53.3586 28.459L56.8565 30.2199L56.1948 26.4724L59.0309 23.8536ZM53.3586 27.6463L50.9006 28.9105L51.3733 26.2918L49.388 24.4406L52.1769 24.0343L53.4059 21.6413L54.6349 24.0343L57.4238 24.4406L55.4384 26.2918L55.9111 28.9105L53.3586 27.6463Z" fill="#FF9D28"/>
</g>
<g clip-path="url(#clip1_1135_183543)">
<path d="M0.754883 4.85456L5.89176 4.85559L9.01532 4.85612V1.76147L0.754883 4.85456Z" fill="#FF9D28"/>
<path d="M9.01562 1.75401V12.6797L12.9169 0.292725L9.01562 1.75401Z" fill="#68C5ED"/>
<path d="M9.01614 4.85576L5.89258 4.85522L9.01614 12.6868V4.85576Z" fill="#044D80"/>
<path d="M0.754883 4.84741L6.69276 6.8579L5.89176 4.84844L0.754883 4.84741Z" fill="#E54747"/>
<path d="M19.6785 9.80188C19.6333 9.84718 19.5578 9.90369 19.4523 9.97156C19.3465 10.0395 19.209 10.1074 19.0393 10.1753C18.8696 10.2431 18.662 10.3015 18.417 10.3507C18.1717 10.3996 17.8909 10.4242 17.5741 10.4242C16.963 10.4242 16.435 10.3261 15.99 10.1301C15.5448 9.93405 15.1771 9.6604 14.8868 9.30972C14.5964 8.95893 14.3834 8.54414 14.2476 8.06501C14.1118 7.58603 14.0439 7.05993 14.0439 6.48656C14.0439 5.91342 14.1175 5.38337 14.2646 4.89683C14.4116 4.41025 14.6323 3.98988 14.9264 3.63517C15.2206 3.28072 15.5883 3.00346 16.0296 2.8035C16.4709 2.60376 16.9894 2.50366 17.5854 2.50366C17.8796 2.50366 18.1454 2.53015 18.3831 2.58286C18.6207 2.63568 18.828 2.69797 19.0054 2.76956C19.1825 2.84135 19.3296 2.91663 19.4466 2.99586C19.5635 3.07506 19.6521 3.14122 19.7126 3.19385C19.7804 3.25435 19.8388 3.32595 19.8879 3.40883C19.9369 3.49194 19.9615 3.58246 19.9615 3.68043C19.9615 3.83141 19.9049 3.9822 19.7917 4.13303C19.6786 4.28401 19.5541 4.42355 19.4183 4.5517C19.3278 4.46118 19.226 4.36891 19.1129 4.27451C18.9997 4.18023 18.8733 4.09735 18.7338 4.02556C18.5942 3.95397 18.4358 3.89366 18.2586 3.84452C18.0813 3.79554 17.8833 3.77095 17.6646 3.77095C17.2799 3.77095 16.9575 3.8484 16.6972 4.00291C16.437 4.15762 16.2277 4.35933 16.0693 4.60828C15.9109 4.85723 15.7977 5.14202 15.7298 5.46256C15.6619 5.78326 15.628 6.10947 15.628 6.44134C15.628 6.79597 15.6619 7.13541 15.7298 7.45964C15.7977 7.78402 15.9145 8.07075 16.0806 8.31958C16.2464 8.5685 16.4633 8.76846 16.7312 8.91925C16.9988 9.07027 17.3326 9.14559 17.7325 9.14559C17.9435 9.14559 18.1379 9.11926 18.3152 9.06643C18.4923 9.01369 18.6489 8.9495 18.7847 8.87396C18.9205 8.79871 19.0393 8.71955 19.1411 8.63648C19.243 8.55348 19.3278 8.48193 19.3957 8.42143C19.441 8.47433 19.4936 8.53851 19.5541 8.61383C19.6149 8.68995 19.6715 8.76927 19.7238 8.85146C19.7765 8.93453 19.8218 9.01745 19.8596 9.10029C19.8972 9.18344 19.9161 9.25876 19.9161 9.32656C19.9161 9.42475 19.8972 9.50767 19.8596 9.57554C19.8217 9.64345 19.7614 9.71896 19.6785 9.80188ZM25.5094 8.93407C25.5094 9.53363 25.5965 9.97 25.7712 10.2432C25.6346 10.2962 25.5074 10.3342 25.3898 10.357C25.2721 10.3798 25.1489 10.3911 25.0199 10.3911C24.7468 10.3911 24.5399 10.338 24.3996 10.2318C24.2591 10.1256 24.17 9.97384 24.1321 9.77642C23.9651 9.95116 23.745 10.0991 23.4719 10.2205C23.1987 10.3417 22.8647 10.4026 22.4702 10.4026C22.2653 10.4026 22.0605 10.3742 21.8556 10.3176C21.6506 10.2606 21.4647 10.1681 21.2978 10.0397C21.1308 9.91095 20.9942 9.73884 20.888 9.52322C20.7816 9.30759 20.7286 9.04477 20.7286 8.73468C20.7286 8.34888 20.8215 8.03483 21.0075 7.79288C21.1934 7.55069 21.4267 7.35973 21.7076 7.21973C21.9883 7.07989 22.2918 6.98363 22.6182 6.93054C22.9444 6.87753 23.2443 6.84359 23.5174 6.82828C23.6085 6.82079 23.6976 6.81687 23.7849 6.81687H24.0297V6.60969C24.0297 6.31799 23.9518 6.11076 23.7963 5.98805C23.6407 5.86531 23.3883 5.80378 23.0393 5.80378C22.713 5.80378 22.4227 5.85695 22.1686 5.96312C21.9142 6.06949 21.6658 6.19079 21.423 6.32741C21.3167 6.19843 21.2312 6.05619 21.1669 5.90054C21.1024 5.74511 21.0701 5.62932 21.0701 5.55335C21.0701 5.44717 21.1288 5.34472 21.2466 5.24599C21.3642 5.14749 21.5255 5.05819 21.7304 4.9785C21.9353 4.89881 22.1704 4.83443 22.4361 4.78499C22.7016 4.7357 22.9825 4.711 23.2784 4.711C23.6882 4.711 24.0354 4.7528 24.3199 4.83622C24.6045 4.91982 24.8359 5.04876 25.0143 5.22323C25.1925 5.39792 25.3196 5.61598 25.3956 5.87777C25.4713 6.13961 25.5094 6.44518 25.5094 6.79411V8.93407H25.5094ZM24.0523 7.61366H23.8931C23.8398 7.61366 23.7867 7.61761 23.7337 7.6251C23.5439 7.64038 23.356 7.6631 23.1703 7.69331C22.9842 7.72375 22.8191 7.77688 22.6751 7.85273C22.5309 7.92866 22.4133 8.02739 22.3222 8.14865C22.2312 8.27014 22.1856 8.4258 22.1856 8.61543C22.1856 8.82793 22.2463 9.00806 22.3677 9.15608C22.489 9.3041 22.6939 9.37809 22.9824 9.37809C23.1265 9.37809 23.2631 9.35924 23.3922 9.32108C23.5211 9.28331 23.635 9.23395 23.7337 9.17322C23.8322 9.11249 23.9101 9.04614 23.967 8.97394C24.0239 8.90192 24.0524 8.83557 24.0524 8.77481V7.61366H24.0523ZM28.3435 5.37117C28.4645 5.2271 28.6537 5.08091 28.9108 4.93289C29.168 4.78491 29.4933 4.71093 29.8867 4.71093C30.1667 4.71093 30.4333 4.75839 30.6868 4.8532C30.94 4.94817 31.1652 5.10189 31.3619 5.31424C31.5586 5.52679 31.7155 5.80762 31.8329 6.15659C31.9501 6.50575 32.0088 6.9346 32.0088 7.44288C32.0088 8.0348 31.9406 8.52251 31.8045 8.90565C31.6682 9.28901 31.4925 9.59257 31.277 9.81636C31.0614 10.0402 30.8211 10.1977 30.5564 10.2887C30.2916 10.3798 30.0268 10.4254 29.7621 10.4254C29.5427 10.4254 29.3516 10.4007 29.1891 10.3514C29.0264 10.302 28.8883 10.2471 28.7749 10.1863C28.6614 10.1257 28.5745 10.065 28.514 10.0042C28.4535 9.94352 28.4156 9.90168 28.4005 9.87888V12.6771H26.8525V4.87027C26.8905 4.86282 26.9364 4.85518 26.9901 4.84754C27.036 4.84009 27.0895 4.83436 27.1507 4.83044C27.2119 4.82672 27.2845 4.82478 27.3686 4.82478C27.6208 4.82478 27.8349 4.86658 28.0108 4.94999C28.1866 5.0336 28.2976 5.1739 28.3435 5.37117ZM30.3924 7.47701C30.3924 7.24937 30.3735 7.03702 30.3358 6.8396C30.2981 6.64237 30.2359 6.47159 30.1491 6.32737C30.0623 6.18327 29.9452 6.07124 29.7982 5.99151C29.6509 5.91186 29.4718 5.87207 29.2607 5.87207C28.9438 5.87207 28.7231 5.93288 28.5985 6.05414C28.4741 6.17563 28.4118 6.30852 28.4118 6.45259V8.86586C28.4721 8.92666 28.5795 8.99864 28.7342 9.08213C28.889 9.1657 29.068 9.20727 29.2719 9.20727C29.6567 9.20727 29.9397 9.05564 30.1208 8.75201C30.3019 8.44852 30.3924 8.02343 30.3924 7.47701ZM33.2036 9.43501C33.1504 9.28331 33.1163 9.12385 33.1011 8.95687C33.0859 8.79001 33.0784 8.6231 33.0784 8.45593V3.17417C33.1314 3.16672 33.1883 3.15908 33.2491 3.1514C33.302 3.14396 33.359 3.13829 33.4198 3.13434C33.4805 3.13062 33.5411 3.12868 33.6019 3.12868C33.7232 3.12868 33.8448 3.14008 33.9662 3.1628C34.0875 3.18561 34.1976 3.23113 34.2964 3.29938C34.3949 3.36767 34.4745 3.46074 34.5353 3.57828C34.596 3.69601 34.6264 3.84973 34.6264 4.03928V4.84747H36.22V5.99725H34.6264V8.4247C34.6264 8.95406 34.8426 9.21867 35.2752 9.21867C35.3814 9.21867 35.4819 9.20168 35.5769 9.16744C35.6717 9.13332 35.757 9.09543 35.833 9.05367C35.9088 9.01194 35.9753 8.96831 36.0322 8.92275C36.0891 8.87719 36.1289 8.8431 36.1517 8.82033C36.2655 8.98739 36.3526 9.13199 36.4135 9.25401C36.4741 9.37619 36.5045 9.49084 36.5045 9.59797C36.5045 9.69764 36.4648 9.79539 36.385 9.89107C36.3053 9.98676 36.1933 10.075 36.0492 10.1554C35.905 10.2358 35.7305 10.3008 35.5256 10.3507C35.3208 10.4005 35.0968 10.4254 34.854 10.4254C34.3834 10.4254 34.0174 10.3343 33.7556 10.1522C33.4938 9.97001 33.3097 9.73093 33.2036 9.43501ZM40.1407 9.287C40.331 9.287 40.4986 9.26621 40.6434 9.22437C40.788 9.1828 40.9174 9.13153 41.0317 9.0708C41.1458 9.01015 41.2449 8.94373 41.3287 8.8716C41.4124 8.79955 41.4885 8.73316 41.5572 8.67232C41.6485 8.78609 41.7436 8.93232 41.8427 9.11052C41.9416 9.28901 41.9912 9.43501 41.9912 9.54879C41.9912 9.71581 41.8962 9.86759 41.7067 10.0042C41.5473 10.1257 41.3214 10.23 41.0294 10.3172C40.7372 10.4044 40.3937 10.4481 39.9993 10.4481C39.6424 10.4481 39.2915 10.4026 38.9464 10.3115C38.601 10.2205 38.2936 10.0611 38.0244 9.83335C37.7549 9.60579 37.5367 9.30037 37.3698 8.91709C37.2029 8.53388 37.1194 8.05019 37.1194 7.46568C37.1194 6.98754 37.1934 6.57602 37.3413 6.23062C37.4893 5.88537 37.6866 5.59888 37.9334 5.37121C38.1798 5.14354 38.4587 4.97671 38.7699 4.87031C39.081 4.76417 39.3998 4.71096 39.7261 4.71096C40.151 4.71096 40.5114 4.7775 40.8074 4.91017C41.1034 5.04302 41.3442 5.2214 41.5302 5.4452C41.716 5.66907 41.8507 5.9252 41.9343 6.21356C42.0176 6.50203 42.0595 6.80547 42.0595 7.1242V7.28354C42.0595 7.34442 42.0576 7.40875 42.0538 7.47704C42.0499 7.54541 42.0462 7.61191 42.0425 7.67625C42.0385 7.74089 42.0328 7.79204 42.0254 7.82997H38.6674C38.6979 8.24738 38.8273 8.59453 39.0557 8.8716C39.284 9.14867 39.6457 9.287 40.1407 9.287ZM40.6594 6.97618C40.6594 6.61193 40.5887 6.31597 40.4476 6.0883C40.3064 5.86067 40.0525 5.74678 39.6863 5.74678C39.3733 5.74678 39.1234 5.85497 38.9365 6.07124C38.7493 6.28755 38.6561 6.58917 38.6561 6.97614H40.6594V6.97618ZM44.7535 5.39994C44.7989 5.33222 44.8596 5.25697 44.9356 5.17405C45.0113 5.09121 45.1043 5.01593 45.2144 4.94821C45.3244 4.88045 45.4458 4.82387 45.5787 4.77872C45.7113 4.73354 45.8537 4.71096 46.0056 4.71096C46.0966 4.71096 46.1934 4.7186 46.2958 4.73354C46.3983 4.74866 46.493 4.77693 46.5803 4.8182C46.6675 4.85966 46.7378 4.91602 46.7909 4.98754C46.844 5.05906 46.8706 5.14745 46.8706 5.25276C46.8706 5.41833 46.8288 5.60849 46.7454 5.82316C46.6618 6.03803 46.5785 6.22123 46.495 6.37294C46.3659 6.26672 46.2369 6.18513 46.108 6.12821C45.9789 6.07132 45.8271 6.04281 45.6527 6.04281C45.4174 6.04281 45.2201 6.11133 45.0608 6.24825C44.9014 6.38521 44.8217 6.54885 44.8217 6.73912V10.4241H43.2737V4.87027C43.3116 4.86282 43.3571 4.85518 43.4103 4.84754C43.4558 4.84009 43.5089 4.83436 43.5696 4.83044C43.6303 4.82672 43.7023 4.82478 43.7859 4.82478C44.0287 4.82478 44.2392 4.87186 44.4177 4.96584C44.5958 5.05971 44.7079 5.20449 44.7535 5.39994ZM49.1547 5.39994C49.2003 5.33222 49.2609 5.25697 49.3369 5.17405C49.4126 5.09121 49.5057 5.01593 49.6157 4.94821C49.7257 4.88045 49.8471 4.82387 49.98 4.77872C50.1127 4.73354 50.2549 4.71096 50.4068 4.71096C50.4978 4.71096 50.5946 4.7186 50.697 4.73354C50.7994 4.74866 50.8943 4.77693 50.9816 4.8182C51.0688 4.85966 51.139 4.91602 51.1923 4.98754C51.2453 5.05906 51.2719 5.14745 51.2719 5.25276C51.2719 5.41833 51.2301 5.60849 51.1467 5.82316C51.0631 6.03803 50.9797 6.22123 50.8963 6.37294C50.7672 6.26672 50.6381 6.18513 50.5092 6.12821C50.3802 6.07132 50.2284 6.04281 50.054 6.04281C49.8187 6.04281 49.6214 6.11133 49.4621 6.24825C49.3027 6.38521 49.2231 6.54885 49.2231 6.73912V10.4241H47.675V4.87027C47.7129 4.86282 47.7584 4.85518 47.8116 4.84754C47.8571 4.84009 47.9102 4.83436 47.971 4.83044C48.0316 4.82672 48.1036 4.82478 48.1872 4.82478C48.43 4.82478 48.6406 4.87186 48.8189 4.96584C48.9971 5.05971 49.1091 5.20449 49.1547 5.39994ZM56.5422 8.93407C56.5422 9.53363 56.6294 9.97 56.804 10.2432C56.6674 10.2962 56.5402 10.3342 56.4227 10.357C56.305 10.3798 56.1817 10.3911 56.0528 10.3911C55.7795 10.3911 55.5727 10.338 55.4324 10.2318C55.2918 10.1256 55.2028 9.97384 55.1649 9.77642C54.9979 9.95116 54.7779 10.0991 54.5047 10.2205C54.2315 10.3417 53.8975 10.4026 53.503 10.4026C53.2981 10.4026 53.0933 10.3742 52.8883 10.3176C52.6834 10.2606 52.4974 10.1681 52.3306 10.0397C52.1636 9.91095 52.027 9.73884 51.9208 9.52322C51.8145 9.30759 51.7615 9.04477 51.7615 8.73468C51.7615 8.34888 51.8543 8.03483 52.0404 7.79288C52.2262 7.55069 52.4596 7.35973 52.7404 7.21973C53.021 7.07989 53.3246 6.98363 53.651 6.93054C53.9772 6.87753 54.2771 6.84359 54.5502 6.82828C54.6413 6.82079 54.7304 6.81687 54.8178 6.81687H55.0625V6.60969C55.0625 6.31799 54.9845 6.11076 54.8291 5.98805C54.6734 5.86531 54.4211 5.80378 54.0721 5.80378C53.7458 5.80378 53.4556 5.85695 53.2014 5.96312C52.9471 6.06949 52.6986 6.19079 52.4558 6.32741C52.3495 6.19843 52.264 6.05619 52.1997 5.90054C52.1352 5.74511 52.103 5.62932 52.103 5.55335C52.103 5.44717 52.1616 5.34472 52.2794 5.24599C52.397 5.14749 52.5583 5.05819 52.7631 4.9785C52.9681 4.89881 53.2032 4.83443 53.4688 4.78499C53.7344 4.7357 54.0152 4.711 54.3112 4.711C54.7209 4.711 55.0681 4.7528 55.3527 4.83622C55.6372 4.91982 55.8686 5.04876 56.047 5.22323C56.2252 5.39792 56.3524 5.61598 56.4284 5.87777C56.5041 6.13961 56.5422 6.44518 56.5422 6.79411V8.93407ZM55.0852 7.61366H54.9258C54.8726 7.61366 54.8195 7.61761 54.7665 7.6251C54.5768 7.64038 54.3889 7.6631 54.203 7.69331C54.017 7.72375 53.852 7.77688 53.7079 7.85273C53.5637 7.92866 53.4461 8.02739 53.355 8.14865C53.264 8.27014 53.2184 8.4258 53.2184 8.61543C53.2184 8.82793 53.2791 9.00806 53.4006 9.15608C53.5218 9.3041 53.7268 9.37809 54.0152 9.37809C54.1593 9.37809 54.2959 9.35924 54.425 9.32108C54.554 9.28331 54.6678 9.23395 54.7665 9.17322C54.865 9.11249 54.943 9.04614 54.9998 8.97394C55.0567 8.90192 55.0852 8.83557 55.0852 8.77481V7.61366H55.0852Z" fill="#044D80"/>
</g>
<defs>
<clipPath id="clip0_1135_183543">
<rect width="58.6139" height="10.8362" fill="white" transform="translate(0.416992 19.6521)"/>
</clipPath>
<clipPath id="clip1_1135_183543">
<rect width="57" height="13.11" fill="white" transform="translate(0.416992 0.0114746)"/>
</clipPath>
</defs>
</svg>
