<svg width="60" height="33" viewBox="0 0 60 33" fill="none" xmlns="http://www.w3.org/2000/svg">
<path d="M21.3935 11.3831C20.8409 11.3831 20.3546 11.2763 19.9346 11.0626C19.5146 10.8415 19.1904 10.532 18.9619 10.1342C18.7335 9.73626 18.6193 9.27941 18.6193 8.76362V6.08889C18.6193 5.56573 18.7335 5.10889 18.9619 4.71836C19.1904 4.32047 19.5146 4.01468 19.9346 3.80099C20.3546 3.57994 20.8409 3.46941 21.3935 3.46941C21.9388 3.46941 22.4177 3.57626 22.8304 3.78994C23.2504 4.00362 23.5746 4.29468 23.803 4.6631C24.0314 5.03152 24.1456 5.44784 24.1456 5.91205V6.00047C24.1456 6.03731 24.1309 6.07047 24.1014 6.09994C24.0793 6.12205 24.0498 6.1331 24.013 6.1331H23.0072C22.9704 6.1331 22.9372 6.12205 22.9077 6.09994C22.8856 6.07047 22.8746 6.03731 22.8746 6.00047V5.9452C22.8746 5.54731 22.7383 5.21941 22.4656 4.96152C22.2004 4.70362 21.843 4.57468 21.3935 4.57468C20.9441 4.57468 20.583 4.71099 20.3104 4.98362C20.0377 5.24889 19.9014 5.60257 19.9014 6.04468V8.80784C19.9014 9.24994 20.0451 9.60731 20.3325 9.87994C20.6198 10.1452 20.9919 10.2778 21.4488 10.2778C21.8909 10.2778 22.2372 10.1636 22.4877 9.9352C22.7456 9.69941 22.8746 9.37889 22.8746 8.97362V8.28836C22.8746 8.25152 22.8562 8.2331 22.8193 8.2331H21.4598C21.423 8.2331 21.3898 8.22205 21.3604 8.19994C21.3383 8.17047 21.3272 8.13731 21.3272 8.10047V7.28257C21.3272 7.24573 21.3383 7.21626 21.3604 7.19415C21.3898 7.16468 21.423 7.14994 21.4598 7.14994H24.013C24.0498 7.14994 24.0793 7.16468 24.1014 7.19415C24.1309 7.21626 24.1456 7.24573 24.1456 7.28257V8.69731C24.1456 9.54468 23.8951 10.2042 23.3941 10.6757C22.9004 11.1473 22.2335 11.3831 21.3935 11.3831ZM27.0445 10.1231C27.0298 10.1378 27.0224 10.1526 27.0224 10.1673C27.0298 10.182 27.0445 10.1894 27.0666 10.1894H30.2166C30.2535 10.1894 30.2829 10.2042 30.3051 10.2336C30.3345 10.2557 30.3493 10.2852 30.3493 10.322V11.162C30.3493 11.1989 30.3345 11.232 30.3051 11.2615C30.2829 11.2836 30.2535 11.2947 30.2166 11.2947H25.464C25.4272 11.2947 25.394 11.2836 25.3645 11.2615C25.3424 11.232 25.3314 11.1989 25.3314 11.162V10.3663C25.3314 10.2999 25.3535 10.2447 25.3977 10.2005C25.9577 9.60362 26.6061 8.87047 27.3429 8.00099L27.8624 7.3931C28.5403 6.60468 28.8793 6.00784 28.8793 5.60257C28.8793 5.30047 28.7724 5.05362 28.5587 4.86205C28.3451 4.67047 28.0687 4.57468 27.7298 4.57468C27.3908 4.57468 27.1145 4.67047 26.9008 4.86205C26.6945 5.05362 26.5914 5.30783 26.5914 5.62468V5.91205C26.5914 5.94889 26.5766 5.98205 26.5472 6.01152C26.5251 6.03362 26.4956 6.04468 26.4587 6.04468H25.4308C25.394 6.04468 25.3608 6.03362 25.3314 6.01152C25.3093 5.98205 25.2982 5.94889 25.2982 5.91205V5.43678C25.3129 5.03889 25.4272 4.69257 25.6408 4.39784C25.8545 4.1031 26.1419 3.87468 26.5029 3.71257C26.8714 3.55047 27.2803 3.46941 27.7298 3.46941C28.2235 3.46941 28.6545 3.56152 29.0229 3.74573C29.3914 3.92994 29.6751 4.18415 29.874 4.50836C30.0729 4.8252 30.1724 5.18257 30.1724 5.58047C30.1724 6.18468 29.8519 6.88099 29.2108 7.66941C28.8572 8.11152 28.2751 8.77468 27.4645 9.65889L27.0445 10.1231Z" fill="#303B45"/>
<g clip-path="url(#clip0_1135_183530)">
<path d="M7.42522 14.1674C11.0825 14.1674 14.0473 11.3373 14.0473 7.84626C14.0473 4.35521 11.0825 1.52515 7.42522 1.52515C3.76793 1.52515 0.803101 4.35521 0.803101 7.84626C0.803101 11.3373 3.76793 14.1674 7.42522 14.1674Z" fill="#FF492C"/>
<path d="M10.2925 6.3688H9.16143C9.19189 6.19939 9.30182 6.10458 9.52432 5.99712L9.73225 5.89598C10.1044 5.71393 10.3031 5.50786 10.3031 5.17158C10.3031 4.96046 10.217 4.79358 10.0461 4.67348C9.87529 4.55338 9.67398 4.49396 9.43823 4.49396C9.25586 4.49191 9.07681 4.54068 8.92303 4.63429C8.76807 4.72531 8.65285 4.84288 8.58133 4.98953L8.90846 5.30306C9.03561 5.0578 9.2197 4.9377 9.46207 4.9377C9.66736 4.9377 9.79318 5.03884 9.79318 5.17917C9.79318 5.29674 9.73225 5.39408 9.49651 5.50786L9.36274 5.56981C9.07269 5.71014 8.87138 5.8707 8.75483 6.05274C8.63828 6.23479 8.58133 6.46362 8.58133 6.74048V6.81633H10.2925V6.3688ZM10.1415 7.33214H8.26876L7.3324 8.87954H9.20513L10.1415 10.4282L11.0779 8.87954L10.1415 7.33214Z" fill="white"/>
<path d="M7.49128 9.90463C6.29929 9.90463 5.32849 8.97795 5.32849 7.84015C5.32849 6.70235 6.29929 5.77568 7.49128 5.77568L8.23163 4.2978C7.98783 4.25152 7.73984 4.22823 7.49128 4.22827C5.40134 4.22827 3.7074 5.84521 3.7074 7.84015C3.7074 9.8351 5.40134 11.452 7.49128 11.452C8.29218 11.4535 9.07264 11.2107 9.71896 10.7592L8.90046 9.404C8.50888 9.72687 8.00871 9.90457 7.49128 9.90463Z" fill="white"/>
</g>
<g clip-path="url(#clip1_1135_183530)">
<path d="M49.0173 25.7491L52.0898 25.2525L53.7442 22.4983L54.2681 23.6915L55.0602 24.4656L55.4562 25.2525V30.6577L53.697 29.7224L50.8135 31.0769L51.1917 27.9615L49.0173 25.7491ZM1.79529 25.8394L4.86779 25.3428L6.47495 22.408L7.9403 25.2976L11.2491 25.8394L8.93295 28.0067L9.40564 31.1672L6.47495 29.8127L3.54425 31.1672L3.92241 28.0518L1.79529 25.8394ZM13.5653 25.8394L16.6378 25.3428L18.245 22.408L19.7576 25.2976L23.0192 25.8394L20.703 28.0067L21.223 31.1672L18.245 29.8127L15.3616 31.1672L15.7397 28.0518L13.5653 25.8394ZM25.5717 25.8394L28.6442 25.3428L30.2514 22.408L31.7167 25.2976L35.0256 25.8394L32.7094 28.0067L33.2294 31.1672L30.2514 29.8127L27.3207 31.1672L27.6989 28.0518L25.5717 25.8394ZM37.2 25.8394L40.2725 25.3428L41.8796 22.408L43.3923 25.2976L46.6539 25.8394L44.3377 28.0067L44.8576 31.1672L41.8796 29.8127L38.9962 31.1672L39.3744 28.0518L37.2 25.8394Z" fill="#FF492C"/>
<path d="M12.1477 25.5626L8.22438 25.0208L6.47542 21.6345L4.72645 25.0208L0.803101 25.5626L3.63926 28.1814L2.97749 31.9289L6.47542 30.168L9.97334 31.9289L9.31157 28.1814L12.1477 25.5626ZM6.47542 29.3553L4.01741 30.6195L4.49011 28.0008L2.50479 26.1496L5.29368 25.7432L6.52268 23.3502L7.75168 25.7432L10.5406 26.1496L8.55526 28.0008L9.02796 30.6195L6.47542 29.3553ZM23.9651 25.5626L20.0417 25.0208L18.2927 21.6345L16.5438 25.0208L12.6204 25.5626L15.4566 28.1814L14.7948 31.9289L18.2927 30.168L21.7907 31.9289L21.1289 28.1814L23.9651 25.5626ZM18.2927 29.3553L15.8347 30.6195L16.3074 28.0008L14.3221 26.1496L17.111 25.7432L18.34 23.3502L19.569 25.7432L22.3579 26.1496L20.3726 28.0008L20.8453 30.6195L18.2927 29.3553ZM35.7824 25.5626L31.859 25.0208L30.1101 21.6345L28.3611 25.0208L24.4377 25.5626L27.2739 28.1814L26.6121 31.9289L30.1101 30.168L33.608 31.9289L32.9462 28.1814L35.7824 25.5626ZM30.1101 29.3553L27.6521 30.6195L28.1248 28.0008L26.1394 26.1496L28.9283 25.7432L30.1573 23.3502L31.3863 25.7432L34.1752 26.1496L32.1899 28.0008L32.6626 30.6195L30.1101 29.3553ZM47.5997 25.5626L43.6763 25.0208L41.9274 21.6345L40.1784 25.0208L36.2551 25.5626L39.0912 28.1814L38.4295 31.9289L41.9274 30.168L45.4253 31.9289L44.7635 28.1814L47.5997 25.5626ZM41.9274 29.3553L39.4694 30.6195L39.9421 28.0008L37.9568 26.1496L40.7457 25.7432L41.9747 23.3502L43.2037 25.7432L45.9925 26.1496L44.0072 28.0008L44.4799 30.6195L41.9274 29.3553ZM59.417 25.5626L55.4937 25.0208L53.7447 21.6345L51.9957 25.0208L48.0724 25.5626L50.9086 28.1814L50.2468 31.9289L53.7447 30.168L57.2426 31.9289L56.5809 28.1814L59.417 25.5626ZM53.7447 29.3553L51.2867 30.6195L51.7594 28.0008L49.7741 26.1496L52.563 25.7432L53.792 23.3502L55.021 25.7432L57.8099 26.1496L55.8246 28.0008L56.2972 30.6195L53.7447 29.3553Z" fill="#FF492C"/>
</g>
<defs>
<clipPath id="clip0_1135_183530">
<rect width="13.2442" height="12.6422" fill="white" transform="translate(0.803101 1.52515)"/>
</clipPath>
<clipPath id="clip1_1135_183530">
<rect width="58.6139" height="10.8362" fill="white" transform="translate(0.803101 21.3689)"/>
</clipPath>
</defs>
</svg>
