<svg width="128" height="44" viewBox="0 0 128 44" fill="none" xmlns="http://www.w3.org/2000/svg">
<g id="updated_Overstock_logo_color" clip-path="url(#clip0_8547_12220)">
<path id="Vector" fill-rule="evenodd" clip-rule="evenodd" d="M18.4004 32.1C20.3004 29.7 21.3004 26.8 21.3004 23.2C21.3004 20.2 20.6004 17.8 19.1004 15.8C17.6004 13.8 15.6004 13 13.3004 13C10.4004 13 8.00039 14.2 6.10039 16.6C4.20039 19 3.20039 21.9 3.20039 25.5C3.20039 28.5 3.90039 30.9 5.40039 32.9C6.90039 34.8 8.80039 35.8 11.1004 35.8C14.1004 35.7 16.4004 34.5 18.4004 32.1ZM-0.0996094 6.79999V23.1C0.600391 20.5 2.10039 18.2 4.30039 16.2C7.60039 13.1 11.5004 11.5 15.9004 11.5C18.7004 11.5 20.9004 12.4 22.6004 14.3C24.3004 16.2 25.2004 18.5 25.2004 21.5C25.2004 25.8 23.5004 29.5 20.2004 32.6C18.3004 34.4 16.1004 35.7 13.8004 36.5H29.4004V6.79999H-0.0996094Z" fill="#C7202C"/>
<path id="Vector_2" d="M38.7996 18.4C35.1996 18.4 33.5996 21.4 33.5996 24.3C33.5996 27.2 35.1996 30.2 38.7996 30.2C42.3996 30.2 43.9996 27.2 43.9996 24.3C43.9996 21.4 42.3996 18.4 38.7996 18.4ZM38.7996 28.6C36.0996 28.6 35.5996 25.8 35.5996 24.3C35.5996 22.8 36.1996 20 38.7996 20C41.4996 20 41.9996 22.8 41.9996 24.3C41.9996 25.8 41.4996 28.6 38.7996 28.6ZM49.6996 27.8L46.7996 18.7H44.5996L48.6996 29.9H50.6996L54.9996 18.7H52.8996L49.6996 27.8ZM60.7996 18.4C57.0996 18.4 55.3996 21.2 55.3996 24.6C55.3996 27.8 57.2996 30.2 60.3996 30.2C62.1996 30.2 62.8996 29.8 63.3996 29.4C64.7996 28.5 65.2996 26.9 65.3996 26.3H63.4996C63.3996 27.1 62.3996 28.5 60.5996 28.5C58.3996 28.5 57.3996 27.2 57.3996 24.8H65.5996C65.5996 20.9 63.9996 18.4 60.7996 18.4ZM57.3996 23.4C57.3996 21.7 58.7996 20.1 60.4996 20.1C62.7996 20.1 63.4996 21.7 63.5996 23.4H57.3996ZM69.5996 20.6V18.7H67.7996V29.9H69.6996V23.4C69.6996 21.8 70.7996 20.4 72.5996 20.4H73.2996V18.4C73.1996 18.4 72.9996 18.3 72.7996 18.3C71.3996 18.4 70.3996 19.3 69.5996 20.6ZM79.8996 23.6L77.9996 23.1C76.4996 22.7 75.9996 22.5 75.9996 21.6C75.9996 20.2 77.6996 20 78.1996 20C80.5996 20 80.7996 21.2 80.8996 21.9H82.6996C82.6996 21.3 82.3996 18.4 78.3996 18.4C76.1996 18.4 74.1996 19.5 74.1996 22C74.1996 23.5 75.1996 24.3 76.7996 24.7L78.9996 25.2C80.5996 25.6 81.1996 25.9 81.1996 26.8C81.1996 28 79.9996 28.6 78.5996 28.6C75.8996 28.6 75.6996 27.2 75.5996 26.3H73.7996C73.8996 27.6 74.1996 30.2 78.5996 30.2C81.0996 30.2 82.9996 28.8 82.9996 26.5C83.0996 25 82.2996 24.1 79.8996 23.6ZM87.5996 15.6H85.6996V18.7H84.1996V20.3H85.6996V27.7C85.6996 29 86.0996 30.1 87.9996 30.1C88.1996 30.1 88.6996 30 89.3996 30V28.5H88.6996C88.2996 28.5 87.5996 28.5 87.5996 27.6V20.3H89.3996V18.7H87.5996V15.6ZM95.5996 18.4C91.9996 18.4 90.3996 21.4 90.3996 24.3C90.3996 27.2 91.9996 30.2 95.5996 30.2C99.1996 30.2 100.8 27.2 100.8 24.3C100.8 21.4 99.1996 18.4 95.5996 18.4ZM95.5996 28.6C92.8996 28.6 92.3996 25.8 92.3996 24.3C92.3996 22.8 92.9996 20 95.5996 20C98.2996 20 98.7996 22.8 98.7996 24.3C98.8996 25.8 98.2996 28.6 95.5996 28.6ZM107.6 20.1C109.2 20.1 110 21 110.3 22.5H112.1C112 20.5 110.8 18.4 107.9 18.4C104.2 18.4 102.5 21.2 102.5 24.6C102.5 27.8 104.4 30.2 107.5 30.2C110.8 30.2 111.9 27.7 112.1 25.9H110.3C110 27.6 108.9 28.6 107.6 28.6C105 28.6 104.5 26.2 104.5 24.3C104.6 22.3 105.3 20.1 107.6 20.1ZM123 18.7H120.6L115.8 23.4V14.5H114V29.9H115.8V25.7L117.4 24.3L120.9 29.9H123.3L118.8 22.9L123 18.7ZM124 16V17.8H123.7V16H123V15.7H124.7V16H124ZM127 17.8V16.1L126.3 17.8H126.1L125.4 16.1V17.8H125.1V15.7H125.6L126.2 17.3L126.8 15.7H127.3V17.8H127Z" fill="black"/>
</g>
<defs>
<clipPath id="clip0_8547_12220">
<rect width="128" height="44" fill="white"/>
</clipPath>
</defs>
</svg>
