<svg width="48" height="47" viewBox="0 0 48 47" fill="none" xmlns="http://www.w3.org/2000/svg">
<g clip-path="url(#clip0_8706_5965)">
<g clip-path="url(#clip1_8706_5965)">
<mask id="mask0_8706_5965" style="mask-type:luminance" maskUnits="userSpaceOnUse" x="5" y="-3" width="37" height="24">
<path d="M9.43258 -2.99972L5.93555 14.4854L38.4168 20.9816L41.9138 3.49656L9.43258 -2.99972Z" fill="white"/>
</mask>
<g mask="url(#mask0_8706_5965)">
<path d="M36.3501 31.2562C36.1802 31.4474 36.0315 31.6279 35.8722 31.7978C35.0651 32.6687 34.1411 33.4015 33.1322 34.0281C31.741 34.8989 30.2648 35.568 28.6823 36.0247C27.1743 36.4601 25.6237 36.6937 24.0519 36.7468C22.8518 36.7893 21.6624 36.7044 20.4729 36.5026C18.094 36.0884 15.885 35.2282 13.8565 33.9325C11.9555 32.7218 10.3306 31.2243 8.98183 29.4189C7.68616 27.6666 6.73034 25.7549 6.12499 23.6627C5.62584 21.9529 5.3922 20.2005 5.41344 18.4163C5.41344 17.6517 5.50902 16.8977 5.57274 16.133C5.62584 15.5914 5.74266 15.071 5.83824 14.5506C5.88073 14.3488 5.96569 14.1683 6.01879 13.9665C6.26305 13.1062 6.5498 12.2566 6.90027 11.4282C8.01539 8.80504 9.67214 6.56418 11.8705 4.7375C13.3043 3.54803 14.8761 2.58159 16.5965 1.87004C18.3382 1.14786 20.1437 0.712435 22.0235 0.553132C23.1173 0.45755 24.2006 0.45755 25.2945 0.553132C25.9636 0.616853 26.6326 0.712435 27.2911 0.850498C29.9568 1.42399 32.3676 2.52849 34.5553 4.15339C34.8527 4.37641 35.1501 4.61006 35.4368 4.85432C35.4793 4.88618 35.5111 4.8968 35.5642 4.85432C36.5519 4.22773 37.5396 3.60114 38.5379 2.98516C38.6122 2.93206 38.6866 2.88958 38.7928 2.82586C39.0795 6.60666 39.3344 10.3768 39.5574 14.147C39.5574 14.147 39.5362 14.1683 39.5256 14.1789C36.1165 12.4903 32.718 10.8016 29.2877 9.09179C30.1904 8.4652 31.0719 7.84922 31.964 7.23325C31.6985 7.05271 31.4436 6.87216 31.1887 6.70224C30.1161 6.00131 28.9797 5.47029 27.7584 5.09859C24.7529 4.17463 21.7686 4.21711 18.7949 5.26851C17.6904 5.66146 16.6603 6.18185 15.6832 6.8403C14.4937 7.64744 13.4529 8.61388 12.5502 9.729C11.5413 10.9609 10.766 12.331 10.2032 13.8284C9.99075 14.4019 9.81021 14.9966 9.68276 15.5914C9.22609 17.7579 9.26858 19.9032 9.81021 22.0485C10.1819 23.514 10.7979 24.8734 11.5944 26.1585C12.4759 27.571 13.5698 28.8029 14.8867 29.8225C16.0018 30.6827 17.2337 31.3518 18.5506 31.8403C19.1985 32.0739 19.8463 32.2651 20.5154 32.4138C22.3421 32.8174 24.1687 32.9023 26.0167 32.5731C27.6734 32.2651 29.2134 31.6704 30.6471 30.8101C31.2206 30.4597 31.7622 30.0773 32.3251 29.695C32.4738 29.5994 32.6012 29.5782 32.7605 29.6525C33.8969 30.1729 35.0439 30.6827 36.1802 31.1925C36.2121 31.2031 36.2439 31.2243 36.3077 31.2562H36.3501Z" fill="#FECE4D"/>
</g>
<mask id="mask1_8706_5965" style="mask-type:luminance" maskUnits="userSpaceOnUse" x="1" y="22" width="38" height="30">
<path d="M32.4567 50.4764L2.36829 39.4001L8.16145 23.6632L38.2499 34.7396L32.4567 50.4764Z" fill="white" stroke="white" stroke-width="1.06202"/>
</mask>
<g mask="url(#mask1_8706_5965)">
<path d="M11.4667 13.148C11.6579 12.9887 11.8384 12.8294 12.0296 12.6914C12.9642 11.9586 13.9837 11.3745 15.0776 10.9178C16.5857 10.2806 18.1575 9.84515 19.7824 9.63274C21.3435 9.43096 22.9047 9.4522 24.4659 9.63274C25.6554 9.78142 26.8236 10.0469 27.9599 10.4293C30.2433 11.2045 32.293 12.394 34.0984 13.9977C35.787 15.4845 37.1677 17.2156 38.2085 19.2122C39.2174 21.1451 39.8652 23.1841 40.1413 25.34C40.3644 27.1136 40.3219 28.8766 40.0351 30.6395C39.9077 31.3936 39.7059 32.1264 39.5254 32.8698C39.3979 33.3902 39.1961 33.8893 39.0156 34.3991C38.9519 34.5903 38.835 34.7602 38.7501 34.9513C38.3784 35.7691 37.9642 36.555 37.4863 37.3197C35.9782 39.7411 34.0028 41.6952 31.539 43.1608C29.9353 44.1166 28.2361 44.8175 26.42 45.2636C24.5933 45.7096 22.7348 45.8583 20.855 45.7203C19.7611 45.6459 18.6885 45.476 17.6265 45.2105C16.968 45.0406 16.3308 44.8494 15.6936 44.6051C13.1554 43.6281 10.9357 42.1625 9.03471 40.219C8.7692 39.9535 8.52494 39.6667 8.27005 39.3906C8.22757 39.3481 8.20633 39.3375 8.15323 39.3587C7.08059 39.826 6.00795 40.2827 4.93531 40.75C4.85034 40.7818 4.76538 40.8243 4.65918 40.8668C4.96717 37.086 5.29639 33.3265 5.65748 29.5669C5.65748 29.5669 5.67872 29.5563 5.68934 29.5457C8.79044 31.744 11.8915 33.9424 15.0245 36.1514C14.0368 36.6293 13.0704 37.0966 12.0827 37.5745C12.3164 37.7976 12.5394 38.01 12.773 38.2118C13.7182 39.0614 14.7696 39.7729 15.9166 40.3358C18.7416 41.7164 21.7046 42.1306 24.7951 41.5465C25.9421 41.3341 27.0466 40.973 28.1086 40.4739C29.4043 39.8685 30.5831 39.0614 31.6452 38.1056C32.8346 37.0435 33.8117 35.8116 34.5976 34.4203C34.9056 33.8893 35.1711 33.3265 35.3835 32.753C36.1694 30.6926 36.4667 28.558 36.2543 26.349C36.1163 24.8409 35.7127 23.4072 35.1286 22.0159C34.4701 20.476 33.5887 19.0954 32.4417 17.8847C31.4752 16.8651 30.3601 16.0155 29.1282 15.3252C28.5334 14.9853 27.9068 14.6986 27.2696 14.4543C25.5279 13.764 23.7331 13.4029 21.8533 13.4454C20.1753 13.4879 18.5504 13.8383 16.9999 14.4756C16.3839 14.7304 15.7785 15.0278 15.1732 15.3146C15.0139 15.3889 14.8758 15.3783 14.7378 15.2933C13.6864 14.603 12.6456 13.9233 11.5942 13.2436C11.5623 13.2224 11.5305 13.2011 11.4774 13.1587L11.4667 13.148Z" fill="#FECE4D"/>
</g>
<path fill-rule="evenodd" clip-rule="evenodd" d="M3.42776 22.5579C1.96217 21.1029 1.04883 19.1063 1.04883 16.8973C1.04883 12.4793 4.68094 8.88965 9.16268 8.88965C13.6444 8.88965 17.2765 12.4687 17.2765 16.8973C17.2765 19.1063 16.3632 21.1135 14.8976 22.5579L9.16268 28.2185L3.42776 22.5579Z" fill="#9FC0FF"/>
<path fill-rule="evenodd" clip-rule="evenodd" d="M1.63297 24.3632C-0.289295 22.4622 -1.5 19.8178 -1.5 16.8866C-1.5 11.0242 3.30034 6.33008 9.1627 6.33008C15.0251 6.33008 19.8254 11.0242 19.8254 16.8866C19.8254 19.8071 18.6147 22.4622 16.6924 24.3632L9.17332 31.7867L1.64359 24.3526L1.63297 24.3632ZM14.8976 22.5578C16.3632 21.1134 17.2766 19.1062 17.2766 16.8972C17.2766 12.4686 13.6444 8.88955 9.1627 8.88955C4.68097 8.88955 1.04885 12.4792 1.04885 16.8972C1.04885 19.1062 1.96219 21.1134 3.42778 22.5578L9.1627 28.2184L14.8976 22.5578Z" fill="#092349"/>
<path fill-rule="evenodd" clip-rule="evenodd" d="M32.1026 31.054C30.637 29.599 29.7236 27.6024 29.7236 25.3934C29.7236 20.9754 33.3557 17.3857 37.8375 17.3857C42.3192 17.3857 45.9513 20.9648 45.9513 25.3934C45.9513 27.6024 45.038 29.6096 43.5724 31.054L37.8375 36.7145L32.1026 31.054Z" fill="white"/>
<path fill-rule="evenodd" clip-rule="evenodd" d="M30.3078 32.8593C28.3855 30.9583 27.1748 28.3138 27.1748 25.3827C27.1748 19.5203 31.9751 14.8262 37.8375 14.8262C43.6999 14.8262 48.5002 19.5203 48.5002 25.3827C48.5002 28.3032 47.2895 30.9583 45.3672 32.8593L37.8481 40.2828L30.3184 32.8487L30.3078 32.8593ZM43.5724 31.0539C45.038 29.6095 45.9514 27.6023 45.9514 25.3933C45.9514 20.9647 42.3192 17.3856 37.8375 17.3856C33.3558 17.3856 29.7237 20.9753 29.7237 25.3933C29.7237 27.6023 30.637 29.6095 32.1026 31.0539L37.8375 36.7144L43.5724 31.0539Z" fill="#092349"/>
</g>
</g>
<defs>
<clipPath id="clip0_8706_5965">
<rect width="47" height="47" fill="white" transform="translate(0.5)"/>
</clipPath>
<clipPath id="clip1_8706_5965">
<rect width="47.07" height="51" fill="white" transform="translate(0.5 -2)"/>
</clipPath>
</defs>
</svg>
