<svg width="158" height="155" viewBox="0 0 158 155" fill="none" xmlns="http://www.w3.org/2000/svg">
<rect x="2.5" width="155" height="155" fill="white"/>
<circle cx="80.1896" cy="77.6896" r="58.6896" fill="#F5F8FF"/>
<g filter="url(#filter0_dd_2577_23776)">
<path d="M27.2121 37H129.788C134.596 37 138.5 41.4211 138.5 46.8664V110.134C138.5 115.579 134.596 120 129.788 120H27.2121C22.4039 120 18.5 115.579 18.5 110.134V46.8664C18.5 41.4211 22.4039 37 27.2121 37Z" fill="white"/>
</g>
<rect x="29.5" y="56" width="98" height="55" rx="2.47482" fill="#E6EEFF"/>
<g clip-path="url(#clip0_2577_23776)">
<path d="M30.5 42.7263C30.5 42.3252 30.8252 42 31.2263 42H38.4486C38.8497 42 39.1749 42.3252 39.1749 42.7263V49.9486C39.1749 50.3497 38.8497 50.6749 38.4486 50.6749H31.2263C30.8252 50.6749 30.5 50.3497 30.5 49.9486V42.7263Z" fill="#3D7FFC"/>
<path d="M34.2381 43.963C34.3224 44.1232 34.2803 44.2582 34.2212 44.4016C34.1284 44.6378 34.1537 44.8656 34.3224 45.0596C34.4911 45.262 34.7273 45.2873 34.972 45.2367C35.3094 45.1608 35.5034 44.8403 35.4528 44.486C35.4275 44.3173 35.3263 44.1486 35.419 43.963C35.3347 44.0052 35.3347 44.0052 35.2335 44.1739C35.1407 44.0642 35.0563 43.9461 34.9551 43.828C34.8707 43.7352 34.7864 43.6509 34.837 43.499C34.7358 43.5496 34.6852 43.6171 34.6514 43.7015C34.6261 43.7858 34.6092 43.8702 34.5924 43.9545C34.5755 44.0389 34.5333 44.1148 34.449 44.1654C34.3983 44.0726 34.3477 44.0052 34.2381 43.963Z" fill="white"/>
<path d="M34.0391 49.1597V48.7472L34.4861 48.689V46.3298L34.0739 46.1962V45.7371L35.2001 45.586L35.4381 45.5625V45.7197V48.6832L35.8793 48.7472V49.1597H34.0391Z" fill="white"/>
</g>
<g clip-path="url(#clip1_2577_23776)">
<path d="M49.649 43.4989C49.739 43.6713 49.694 43.8164 49.631 43.9707C49.532 44.2247 49.559 44.4696 49.739 44.6782C49.919 44.896 50.1709 44.9232 50.4319 44.8687C50.7918 44.7871 50.9988 44.4424 50.9448 44.0614C50.9178 43.8799 50.8098 43.6985 50.9088 43.4989C50.8188 43.5443 50.8188 43.5443 50.7108 43.7257C50.6119 43.6078 50.5219 43.4808 50.4139 43.3538C50.3239 43.254 50.2339 43.1633 50.2879 43C50.1799 43.0544 50.1259 43.127 50.0899 43.2177C50.0629 43.3084 50.0449 43.3991 50.0269 43.4899C50.0089 43.5806 49.964 43.6622 49.874 43.7167C49.82 43.6169 49.766 43.5443 49.649 43.4989Z" fill="#3D7FFC"/>
<path d="M41.9892 48.7857V44.6016L41.5 44.5204V44.1329L42.7757 43.9704L42.9924 43.9395V44.1079V45.5299C43.042 45.4799 43.1039 45.4237 43.1782 45.3799C43.2463 45.3299 43.3268 45.2862 43.4073 45.2487C43.494 45.2112 43.5807 45.18 43.6798 45.155C43.7789 45.13 43.8842 45.1175 43.9956 45.1175C44.1938 45.1175 44.3796 45.1487 44.553 45.2175C44.7264 45.2862 44.8812 45.3924 45.0112 45.5362C45.1413 45.6861 45.2466 45.8736 45.3271 46.1111C45.4014 46.3485 45.4447 46.6297 45.4447 46.9734C45.4447 47.2671 45.4014 47.5359 45.3147 47.7921C45.228 48.0483 45.0979 48.2608 44.9307 48.4482C44.7635 48.6357 44.5592 48.7794 44.3239 48.8857C44.0823 48.9919 43.8161 49.0481 43.5126 49.0481C43.3021 49.0481 43.1101 49.0356 42.9305 49.0169C42.7571 48.9981 42.6023 48.9731 42.4722 48.9419C42.3422 48.9107 42.2369 48.8857 42.1564 48.8544C42.0759 48.8232 42.014 48.8044 41.9892 48.7857ZM43.5807 45.7236C43.4445 45.7236 43.3268 45.7486 43.2278 45.7986C43.1287 45.8486 43.0482 45.9048 42.9924 45.9673V48.442C43.0234 48.492 43.0791 48.5357 43.1658 48.5607C43.2525 48.592 43.3578 48.6045 43.4693 48.6045C43.6179 48.6045 43.7479 48.567 43.8532 48.4857C43.9647 48.4045 44.0514 48.2982 44.1257 48.1608C44.2 48.0233 44.2495 47.8608 44.2867 47.6796C44.3239 47.4984 44.3424 47.2984 44.3424 47.0922C44.3424 46.8797 44.33 46.686 44.2991 46.511C44.2681 46.3423 44.2248 46.1986 44.1567 46.0798C44.0947 45.9611 44.0142 45.8736 43.9151 45.8111C43.8284 45.7549 43.7108 45.7236 43.5807 45.7236Z" fill="#3D7FFC"/>
<path d="M45.9844 48.9363V48.4927L46.455 48.4302V45.893L46.0091 45.7556V45.2556L47.1238 45.0932H47.1424L47.3158 45.2369V45.5119L47.3096 46.0243H47.322C47.3468 45.9555 47.3963 45.868 47.4644 45.7618C47.5325 45.6556 47.6192 45.5493 47.7183 45.4494C47.8174 45.3494 47.9351 45.2619 48.0651 45.1931C48.1952 45.1244 48.3376 45.0869 48.4924 45.0869C48.5605 45.0869 48.6101 45.0869 48.6472 45.0932C48.6844 45.0994 48.7153 45.1057 48.7401 45.1119V46.2555C48.7153 46.2367 48.6534 46.218 48.5543 46.1992C48.4552 46.1805 48.3314 46.168 48.1952 46.168C48.1208 46.168 48.0403 46.1743 47.966 46.1805C47.8917 46.1868 47.8174 46.1993 47.7493 46.218C47.6812 46.2305 47.6254 46.2492 47.5697 46.268C47.514 46.2867 47.4768 46.3055 47.4458 46.3242V48.4239L48.2571 48.5052V48.9363H45.9844Z" fill="#3D7FFC"/>
<path d="M49.4375 48.973V48.5293L49.9143 48.4668V45.9297L49.4747 45.786V45.2923L50.676 45.1298L50.9299 45.1045V45.2735V48.4606L51.4006 48.5293V48.973H49.4375Z" fill="#3D7FFC"/>
<path d="M53.5827 47.754C53.3968 47.754 53.2236 47.741 53.0698 47.7149C53.0313 47.754 52.9992 47.7995 52.9736 47.8515C52.9479 47.9036 52.9351 47.9621 52.9351 48.0337C52.9351 48.1117 52.9479 48.1768 52.98 48.2288C53.0121 48.2744 53.0569 48.3134 53.1211 48.3394C53.1852 48.3654 53.2621 48.3849 53.3647 48.3915C53.4673 48.398 53.5827 48.4045 53.7173 48.4045H54.3905C54.8778 48.4045 55.2369 48.489 55.4805 48.6517C55.7177 48.8208 55.8396 49.094 55.8396 49.4713C55.8396 49.699 55.7819 49.9136 55.66 50.1023C55.5446 50.2909 55.3843 50.447 55.1792 50.5836C54.9804 50.7137 54.7432 50.8178 54.4803 50.8894C54.2174 50.9609 53.9417 51 53.6532 51H53.6468C53.3262 51 53.0569 50.9739 52.8325 50.9154C52.6081 50.8568 52.4222 50.7788 52.2747 50.6812C52.1273 50.5836 52.0247 50.46 51.9541 50.3234C51.8836 50.1868 51.8516 50.0307 51.8516 49.8681C51.8516 49.764 51.8708 49.6664 51.9093 49.5689C51.9477 49.4778 51.999 49.3932 52.0631 49.3152C52.1273 49.2371 52.1978 49.1721 52.2875 49.1135C52.3709 49.055 52.4607 49.0094 52.5504 48.9769C52.4222 48.9053 52.3196 48.8208 52.2491 48.7167C52.1786 48.6126 52.1465 48.489 52.1465 48.3459C52.1465 48.1703 52.1914 48.0272 52.2811 47.9036C52.3709 47.7865 52.4863 47.6759 52.6274 47.5848C52.3965 47.4808 52.2298 47.3311 52.1208 47.136C52.0119 46.9408 51.9541 46.7132 51.9541 46.453C51.9541 46.2448 51.999 46.0627 52.0888 45.8935C52.1786 45.7244 52.3068 45.5813 52.4607 45.4642C52.621 45.3471 52.8005 45.256 53.0121 45.191C53.2236 45.1259 53.448 45.0934 53.6853 45.0934H53.6917C54.2559 45.0934 54.6727 45.204 54.9484 45.4252C54.9804 45.3861 55.0253 45.3471 55.0766 45.3081C55.1279 45.2691 55.192 45.23 55.2625 45.1975C55.333 45.165 55.41 45.139 55.4933 45.1194C55.5767 45.0999 55.6664 45.0869 55.7626 45.0869H55.9229V45.8545H55.2561C55.2818 45.9261 55.301 46.0041 55.3138 46.0822C55.3266 46.1602 55.333 46.2513 55.333 46.3424C55.333 46.5505 55.2882 46.7392 55.2048 46.9083C55.1215 47.0774 54.9996 47.2271 54.8458 47.3572C54.6919 47.4808 54.506 47.5783 54.2944 47.6499C54.0764 47.7214 53.8456 47.754 53.5827 47.754ZM53.4096 49.1395C53.2621 49.1395 53.1275 49.1265 53.0056 49.107C52.9608 49.159 52.9159 49.2241 52.8774 49.3022C52.8389 49.3802 52.8197 49.4973 52.8197 49.6339C52.8197 49.79 52.8389 49.9201 52.8774 50.0242C52.9159 50.1283 52.98 50.2194 53.0569 50.2844C53.1339 50.3495 53.2365 50.4015 53.3519 50.4275C53.4673 50.46 53.6019 50.4731 53.7558 50.4731H53.7622C53.8969 50.4731 54.0315 50.46 54.1661 50.4275C54.2944 50.395 54.4162 50.3495 54.5188 50.2844C54.6214 50.2194 54.7047 50.1348 54.7624 50.0372C54.8265 49.9396 54.8586 49.8226 54.8586 49.6925C54.8586 49.5949 54.8458 49.5038 54.8265 49.4323C54.8073 49.3607 54.7688 49.3022 54.7111 49.2566C54.6534 49.2111 54.5829 49.1786 54.4867 49.159C54.3905 49.1395 54.2687 49.1265 54.1213 49.1265H53.4096V49.1395ZM53.666 47.2986C53.7814 47.2986 53.8776 47.2726 53.9546 47.2271C54.0315 47.1815 54.0892 47.1165 54.1341 47.0384C54.179 46.9604 54.2046 46.8628 54.2238 46.7522C54.2431 46.6416 54.2495 46.5245 54.2495 46.4074C54.2495 46.1082 54.2046 45.887 54.1084 45.7504C54.0123 45.6138 53.8584 45.5488 53.634 45.5488H53.6276C53.416 45.5488 53.2621 45.6203 53.1659 45.7569C53.0698 45.8935 53.0185 46.0952 53.0185 46.3749C53.0185 46.5115 53.0313 46.6351 53.0505 46.7457C53.0698 46.8563 53.1082 46.9538 53.1531 47.0384C53.2044 47.1165 53.2685 47.1815 53.3519 47.2271C53.4352 47.2726 53.5378 47.2986 53.666 47.2986Z" fill="#3D7FFC"/>
<path d="M56.2859 48.9732V48.5295L56.6884 48.4607V44.5655L56.1992 44.4843V44.0969L57.4687 43.9344L57.5425 43.9219H57.6805L57.6917 45.1362L57.6805 45.609C57.7363 45.5528 57.7722 45.5487 57.865 45.4862C57.9579 45.4237 58.0508 45.3674 58.1623 45.3174C58.2738 45.2675 58.3976 45.2237 58.5277 45.1862C58.6577 45.155 58.8001 45.1362 58.9426 45.1362C59.1531 45.1362 59.3327 45.1675 59.4689 45.2237C59.6052 45.2799 59.7167 45.3737 59.8034 45.4987C59.89 45.6236 59.9396 45.7799 59.9767 45.9673C60.0077 46.1548 60.0263 46.3798 60.0263 46.636V48.4607L60.4845 48.5295V48.9732H58.6577V48.542L59.0231 48.467V46.6298C59.0231 46.4798 59.0169 46.3485 58.9983 46.2361C58.9859 46.1236 58.955 46.0361 58.9116 45.9611C58.8683 45.8861 58.8125 45.8361 58.7382 45.8049C58.6639 45.7736 58.5648 45.7549 58.4472 45.7549C58.379 45.7549 58.3109 45.7611 58.2366 45.7799C58.1623 45.7986 58.0942 45.8174 58.0322 45.8361C57.9641 45.8611 57.9022 45.8861 57.8465 45.9174C57.7907 45.9486 57.7412 45.9798 57.6978 46.0111V48.467L58.1437 48.5357V48.9794H56.2859V48.9732Z" fill="#3D7FFC"/>
<path d="M61.2122 48.2076V45.783H60.7539V45.408C60.7725 45.4018 60.7973 45.3955 60.8344 45.383C60.8716 45.3705 60.9087 45.3518 60.9521 45.3393C60.9892 45.3268 61.0264 45.308 61.0635 45.2955C61.1007 45.2831 61.1193 45.2706 61.1255 45.2643C61.1998 45.2081 61.2741 45.1018 61.3546 44.9456C61.3794 44.9019 61.3979 44.8519 61.4289 44.7894C61.4599 44.7269 61.4784 44.6706 61.5032 44.6082C61.528 44.5457 61.5528 44.4832 61.5713 44.4207C61.5961 44.3582 61.6085 44.3019 61.6271 44.252H62.2092L62.2216 45.2268H63.1814V45.7892H62.2216V47.614C62.2216 47.7889 62.2216 47.9264 62.2278 48.0326C62.234 48.1389 62.2463 48.2139 62.2649 48.2639C62.2835 48.3139 62.3206 48.3513 62.364 48.3638C62.4073 48.3763 62.4693 48.3888 62.5436 48.3888H62.5498C62.5993 48.3888 62.6551 48.3826 62.717 48.3763C62.7727 48.3701 62.8284 48.3576 62.8842 48.3451C62.9399 48.3326 62.9895 48.3201 63.039 48.3076C63.0885 48.2951 63.1257 48.2826 63.1567 48.2701H63.1629L63.3177 48.6576C63.2495 48.7075 63.1752 48.7575 63.0762 48.8075C62.9771 48.8575 62.878 48.9013 62.7603 48.945C62.6427 48.9888 62.525 49.02 62.395 49.045C62.2649 49.07 62.1411 49.0825 62.011 49.0825H62.0048C61.8624 49.0825 61.7385 49.0637 61.6395 49.0263C61.5404 48.9888 61.4537 48.9325 61.3917 48.8575C61.3298 48.7825 61.2865 48.695 61.2555 48.5826C61.2245 48.4701 61.2122 48.3513 61.2122 48.2076Z" fill="#3D7FFC"/>
<path d="M66.149 49.0671C65.957 49.0671 65.7712 49.0296 65.5916 48.9546C65.412 48.8796 65.2572 48.7609 65.1272 48.6109C64.9909 48.4547 64.8857 48.261 64.8052 48.0297C64.7247 47.7985 64.6875 47.5236 64.6875 47.2049C64.6875 46.9112 64.7308 46.6425 64.8175 46.3925C64.9042 46.1425 65.0343 45.9238 65.1953 45.7363C65.3625 45.5489 65.5607 45.4051 65.796 45.2989C66.0313 45.1927 66.2976 45.1427 66.5948 45.1427C66.7001 45.1427 66.7992 45.1489 66.9045 45.1614C67.0036 45.1739 67.1026 45.1864 67.1955 45.2052V44.5119L66.5515 44.4494V44.1369L67.7529 43.9932H67.7714L67.9325 43.9736V48.5984H68.3226V48.9484C68.2297 48.9734 68.1244 48.9984 68.0006 49.0296C67.8767 49.0608 67.7467 49.0733 67.6104 49.0733C67.5547 49.0733 67.499 49.0671 67.4556 49.0608C67.4123 49.0546 67.3751 49.0359 67.3442 49.0109C67.3132 48.9859 67.2884 48.9484 67.276 48.9046C67.2636 48.8609 67.2513 48.7984 67.2513 48.7234V48.5797C67.1955 48.6422 67.1274 48.6984 67.0531 48.7609C66.9788 48.8234 66.8983 48.8734 66.8054 48.9171C66.7125 48.9609 66.6134 48.9984 66.502 49.0296C66.3967 49.0483 66.279 49.0671 66.149 49.0671ZM66.4524 48.5609C66.5391 48.5609 66.6196 48.5484 66.7001 48.5297C66.7744 48.5047 66.8487 48.4797 66.9107 48.4484C66.9726 48.4172 67.0283 48.3797 67.0779 48.3422C67.1274 48.3047 67.1708 48.2672 67.2017 48.2297V45.7176C67.1893 45.6926 67.1584 45.6676 67.1212 45.6426C67.0779 45.6176 67.0345 45.5926 66.9726 45.5739C66.9169 45.5551 66.8487 45.5364 66.7806 45.5301C66.7125 45.5176 66.6382 45.5114 66.5577 45.5114C66.4091 45.5114 66.2728 45.5364 66.149 45.5926C66.0189 45.6488 65.9075 45.7363 65.8084 45.8613C65.7093 45.9863 65.635 46.1488 65.5792 46.3487C65.5235 46.5487 65.4925 46.7924 65.4864 47.0799C65.4802 47.3361 65.5049 47.5611 65.5545 47.7485C65.604 47.936 65.6721 48.086 65.7588 48.211C65.8455 48.3297 65.9508 48.4234 66.0685 48.4797C66.1861 48.5297 66.3162 48.5609 66.4524 48.5609Z" fill="#9FC0FF"/>
<path d="M68.4141 48.0183C68.4141 47.8621 68.445 47.7184 68.5008 47.5934C68.5565 47.4684 68.637 47.3622 68.7423 47.2622C68.8475 47.1685 68.9652 47.0872 69.1014 47.0185C69.2377 46.9497 69.3863 46.8997 69.5473 46.856C69.7083 46.8123 69.8755 46.781 70.0489 46.7623C70.2223 46.7435 70.3957 46.731 70.5629 46.7248V46.5498C70.5629 46.3936 70.5505 46.2623 70.532 46.1561C70.5072 46.0499 70.47 45.9624 70.4205 45.8936C70.3648 45.8249 70.2966 45.7749 70.2037 45.7499C70.117 45.7187 69.9994 45.7062 69.8631 45.7062C69.7455 45.7062 69.6278 45.7187 69.5102 45.7374C69.3925 45.7624 69.281 45.7874 69.1696 45.8187C69.0643 45.8499 68.9652 45.8874 68.8723 45.9186C68.7794 45.9561 68.7051 45.9874 68.6432 46.0186H68.637L68.4884 45.6999C68.5317 45.6624 68.5998 45.6124 68.7051 45.5499C68.8104 45.4875 68.9342 45.4312 69.0767 45.3687C69.2191 45.3125 69.3739 45.2625 69.5349 45.2187C69.7021 45.175 69.8631 45.1562 70.0242 45.1562C70.2533 45.1562 70.4453 45.1812 70.6063 45.225C70.7611 45.275 70.8911 45.35 70.9902 45.45C71.0893 45.5562 71.1574 45.6874 71.2008 45.8561C71.2441 46.0249 71.2627 46.2248 71.2627 46.4686V48.6432H71.6652V48.9619C71.6219 48.9744 71.5723 48.9869 71.5166 48.9994C71.4609 49.0119 71.3989 49.0244 71.337 49.0369C71.2751 49.0494 71.207 49.0619 71.145 49.0682C71.0831 49.0744 71.015 49.0807 70.9592 49.0807C70.8973 49.0807 70.8478 49.0807 70.7982 49.0744C70.7549 49.0682 70.7177 49.0557 70.6868 49.0307C70.6558 49.0057 70.6372 48.9744 70.6248 48.9244C70.6125 48.8807 70.6063 48.8182 70.6063 48.737V48.612C70.5753 48.637 70.532 48.6745 70.47 48.7307C70.4081 48.7807 70.3276 48.837 70.2347 48.887C70.1418 48.9369 70.0365 48.9869 69.9127 49.0244C69.795 49.0619 69.665 49.0807 69.5287 49.0807C69.3801 49.0807 69.2377 49.0619 69.1014 49.0182C68.9652 48.9744 68.8475 48.9119 68.7423 48.8307C68.637 48.7432 68.5565 48.637 68.4946 48.4995C68.4326 48.362 68.4141 48.2058 68.4141 48.0183ZM69.8198 48.5807C69.8631 48.5807 69.9189 48.5745 69.9808 48.562C70.0427 48.5495 70.1109 48.5308 70.179 48.512C70.2471 48.487 70.3152 48.462 70.3771 48.4308C70.4453 48.3995 70.501 48.362 70.5567 48.3245V47.0997C70.2966 47.0997 70.0799 47.1247 69.9003 47.1685C69.7269 47.2122 69.5845 47.2747 69.4792 47.3497C69.3739 47.4247 69.2996 47.5122 69.2563 47.6121C69.2129 47.7121 69.1881 47.8121 69.1881 47.9183C69.1881 48.0371 69.2067 48.1433 69.2377 48.2245C69.2686 48.3058 69.312 48.3745 69.3677 48.4308C69.4235 48.4808 69.4916 48.5245 69.5659 48.5433C69.6526 48.5682 69.7331 48.5807 69.8198 48.5807Z" fill="#9FC0FF"/>
<path d="M71.8495 48.2264V45.6455H71.3789V45.333C71.447 45.308 71.5151 45.2893 71.5771 45.2643C71.6452 45.2393 71.6947 45.2206 71.7195 45.1956C71.7938 45.1456 71.8495 45.0643 71.9053 44.9456C71.9239 44.9081 71.9424 44.8519 71.9734 44.7894C71.9982 44.7269 72.0229 44.6581 72.0477 44.5894C72.0725 44.5207 72.0973 44.4582 72.1158 44.3957C72.1344 44.3332 72.153 44.2832 72.1592 44.252H72.5803V45.1643H73.6764V45.6455H72.5803V47.6265C72.5803 47.8202 72.5803 47.9764 72.5865 48.0889C72.5927 48.2014 72.6051 48.2826 72.6298 48.3326C72.6546 48.3826 72.6918 48.4201 72.7413 48.4326C72.7908 48.4451 72.859 48.4513 72.9457 48.4513H72.9518C73.0138 48.4513 73.0819 48.4451 73.15 48.4388C73.2181 48.4326 73.2862 48.4201 73.3482 48.4076C73.4163 48.3951 73.472 48.3826 73.5278 48.3701C73.5835 48.3576 73.6268 48.3451 73.6578 48.3264H73.664L73.7755 48.6513C73.7259 48.6888 73.6516 48.7325 73.5587 48.7763C73.4658 48.82 73.3668 48.8575 73.2615 48.895C73.1562 48.9325 73.0447 48.9575 72.9271 48.9825C72.8094 49.0075 72.7041 49.02 72.5989 49.02H72.5927C72.475 49.02 72.3759 49.0075 72.283 48.9825C72.1901 48.9575 72.1158 48.9138 72.0477 48.8513C71.9858 48.7888 71.9362 48.7075 71.8991 48.6076C71.8681 48.4951 71.8495 48.3701 71.8495 48.2264Z" fill="#9FC0FF"/>
<path d="M73.793 47.949C73.793 47.7928 73.8239 47.649 73.8797 47.5241C73.9354 47.3991 74.0159 47.2928 74.1212 47.1929C74.2265 47.0991 74.3441 47.0179 74.4804 46.9491C74.6166 46.8804 74.7652 46.8304 74.9262 46.7867C75.0872 46.7429 75.2544 46.7117 75.4278 46.6929C75.6012 46.6742 75.7746 46.6617 75.9418 46.6554V46.4805C75.9418 46.3242 75.9294 46.193 75.9109 46.0868C75.8861 45.9805 75.8489 45.893 75.7994 45.8243C75.7437 45.7556 75.6755 45.7056 75.5826 45.6806C75.496 45.6493 75.3783 45.6368 75.2421 45.6368C75.1244 45.6368 75.0067 45.6493 74.8891 45.6681C74.7714 45.6931 74.6599 45.7181 74.5485 45.7493C74.4432 45.7806 74.3441 45.8181 74.2512 45.8493C74.1583 45.8868 74.084 45.918 74.0221 45.9493H74.0159L73.8673 45.6306C73.9106 45.5931 73.9787 45.5431 74.084 45.4806C74.1893 45.4181 74.3132 45.3619 74.4556 45.2994C74.598 45.2431 74.7528 45.1931 74.9138 45.1494C75.081 45.1057 75.2421 45.0869 75.4031 45.0869C75.6322 45.0869 75.8242 45.1119 75.9852 45.1557C76.14 45.2056 76.27 45.2806 76.3691 45.3806C76.4682 45.4869 76.5363 45.6181 76.5797 45.7868C76.623 45.9555 76.6416 46.1555 76.6416 46.3992V48.5739H77.0441V48.8926C77.0008 48.9051 76.9512 48.9176 76.8955 48.9301C76.8398 48.9426 76.7778 48.9551 76.7159 48.9676C76.654 48.9801 76.5859 48.9926 76.5239 48.9988C76.462 49.0051 76.3939 49.0113 76.3382 49.0113C76.2762 49.0113 76.2267 49.0113 76.1771 49.0051C76.1338 48.9988 76.0966 48.9863 76.0657 48.9613C76.0347 48.9363 76.0161 48.9051 76.0038 48.8551C75.9914 48.8114 75.9852 48.7489 75.9852 48.6676V48.5427C75.9542 48.5677 75.9109 48.6051 75.8489 48.6614C75.787 48.7114 75.7065 48.7676 75.6136 48.8176C75.5207 48.8676 75.4154 48.9176 75.2916 48.9551C75.1739 48.9926 75.0439 49.0113 74.9076 49.0113C74.759 49.0113 74.6166 48.9926 74.4804 48.9488C74.3441 48.9051 74.2265 48.8426 74.1212 48.7614C74.0159 48.6739 73.9354 48.5677 73.8735 48.4302C73.8115 48.2927 73.793 48.1365 73.793 47.949ZM75.2049 48.5114C75.2482 48.5114 75.304 48.5052 75.3659 48.4927C75.4278 48.4802 75.496 48.4614 75.5641 48.4427C75.6322 48.4177 75.7003 48.3927 75.7622 48.3614C75.8304 48.3302 75.8861 48.2927 75.9418 48.2552V47.0304C75.6817 47.0304 75.465 47.0554 75.2854 47.0991C75.112 47.1429 74.9696 47.2054 74.8643 47.2803C74.759 47.3553 74.6847 47.4428 74.6414 47.5428C74.598 47.6428 74.5732 47.7428 74.5732 47.849C74.5732 47.9677 74.5918 48.074 74.6228 48.1552C74.6537 48.2365 74.6971 48.3052 74.7528 48.3614C74.8086 48.4114 74.8767 48.4552 74.951 48.4739C75.0377 48.4989 75.1182 48.5114 75.2049 48.5114Z" fill="#9FC0FF"/>
</g>
<g opacity="0.8">
<g filter="url(#filter1_dd_2577_23776)">
<path d="M72.1421 95H138.572C141.686 95 144.214 97.2372 144.214 99.9926V122.007C144.214 124.763 141.686 127 138.572 127H72.1421C69.0282 127 66.5 124.763 66.5 122.007V99.9926C66.5 97.2372 69.0282 95 72.1421 95Z" fill="white"/>
</g>
<path d="M90.7519 111.622C90.7519 113.636 90.1322 115.504 89.072 117.05C88.6239 117.711 88.0964 118.307 87.4972 118.832C87.1515 119.136 86.7801 119.421 86.3935 119.674C86.0529 119.894 85.6995 120.096 85.3307 120.275C84.0606 120.892 82.6317 121.24 81.1234 121.24C81.0466 121.24 80.9749 121.24 80.898 121.238C80.0735 121.217 79.272 121.097 78.5114 120.882C78.3731 120.844 78.2374 120.803 78.1017 120.757C77.2592 120.478 76.4628 120.084 75.7406 119.597C75.2003 119.229 74.6958 118.809 74.24 118.34C73.628 117.718 73.1056 117.009 72.6831 116.242C71.9276 114.87 71.5 113.295 71.5 111.622C71.5 106.31 75.8123 102 81.1259 102C86.4396 102 90.7519 106.31 90.7519 111.622Z" fill="#E7EEFF"/>
<path d="M87.5501 111.112C87.6141 109.254 86.262 103.851 81.627 104.393C81.627 104.393 80.4132 103.902 78.8972 104.685C76.9562 105.696 73.6528 111.629 72.6797 116.242C72.6797 116.242 72.882 116.687 73.2738 117.263C73.6144 117.765 74.2392 118.341 74.2392 118.341C74.695 118.806 75.1995 119.229 75.7398 119.595C76.4619 120.084 77.2583 120.478 78.1008 120.754C78.2366 120.803 78.3723 120.841 78.5106 120.882C79.2865 120.821 80.1495 120.893 80.8972 121.238C80.974 121.241 81.0483 121.241 81.1226 121.241C82.6308 121.241 84.0598 120.893 85.3299 120.276C85.6987 120.094 86.052 119.894 86.3926 119.674C86.7793 119.421 87.1506 119.137 87.4963 118.832C88.093 118.305 88.6231 117.708 89.0712 117.051C87.2966 114.785 87.4938 112.889 87.5501 111.112Z" fill="#091B36"/>
<path d="M87.4985 118.832C87.1527 119.136 86.7814 119.42 86.3948 119.674C86.0542 119.894 85.7008 120.096 85.332 120.275L85.4703 117.708C85.4703 117.708 86.5868 117.964 87.4985 118.829V118.832Z" fill="#3D7FFC"/>
<path d="M86.3911 119.673C86.0505 119.894 85.6971 120.096 85.3284 120.275C84.0582 120.892 82.6293 121.24 81.121 121.24C81.0442 121.24 80.9725 121.24 80.8957 121.237C80.0711 121.217 79.2696 121.097 78.509 120.882C78.3708 120.843 78.235 120.802 78.0993 120.756C77.2568 120.477 76.4604 120.083 75.7383 119.597L76.8445 117.398C77.5206 117.344 78.1608 117.308 78.7651 117.288H78.7677C80.6191 117.224 82.1172 117.29 83.2209 117.39C84.6907 117.523 85.4692 117.71 85.4692 117.71C85.4692 117.71 85.8789 118.442 86.3911 119.673Z" fill="#3D7FFC"/>
<path d="M75.7389 119.595C75.1986 119.229 74.6941 118.809 74.2383 118.34C75.5264 117.491 76.8451 117.398 76.8451 117.398C76.8451 117.398 77.68 119.142 78.0999 120.754C77.2574 120.478 76.461 120.083 75.7389 119.597V119.595Z" fill="#3D7FFC"/>
<path d="M78.7332 117.353C78.9765 116.895 79.6782 114.56 79.673 113.35L79.8805 113.383L83.3734 113.969C83.3734 113.969 83.294 114.901 83.2914 115.779C83.2914 115.786 83.2914 115.794 83.2914 115.799C83.2863 116.562 83.3016 116.936 83.148 117.88C83.0789 118.305 81.7857 118.461 80.3235 118.244C79.8011 118.164 78.5719 117.657 78.7332 117.353Z" fill="#FFB27D"/>
<path d="M83.3783 113.97C83.3783 113.97 83.2989 114.902 83.2963 115.78C81.3399 115.734 80.3079 114.224 79.8828 113.387L83.3757 113.973L83.3783 113.97Z" fill="#E8945B"/>
<path d="M84.0291 115.063C84.0291 115.063 79.4018 115.14 79.3992 112.258C79.3967 109.378 78.7975 107.448 81.75 107.277C84.7026 107.105 85.2788 108.203 85.5144 109.166C85.75 110.125 85.2327 114.968 84.0291 115.063Z" fill="#FFB27D"/>
<path d="M83.8606 107.207C83.8606 107.207 82.593 110.586 80.6494 111.085C78.7058 111.584 77.8633 111.065 77.8633 111.065C77.8633 111.065 79.3537 109.88 79.6635 107.814C79.6635 107.814 82.9054 105.597 83.8606 107.207Z" fill="#091B36"/>
<path d="M83.5469 107.482C83.5469 107.482 84.4867 107.833 84.8734 108.519C85.2523 109.189 85.5724 110.075 85.4982 111.163C85.4982 111.163 86.4533 108.867 85.3804 107.566C84.2434 106.189 83.5469 107.482 83.5469 107.482Z" fill="#091B36"/>
<rect x="96.7969" y="102.091" width="14.8278" height="2.57876" rx="1.28938" fill="#E6EEFF"/>
<rect x="96.7969" y="107.249" width="12.8938" height="2.57876" rx="1.28938" fill="#EDF1F6"/>
<rect x="96.7969" y="112.405" width="14.8278" height="2.57876" rx="1.28938" fill="#EDF1F6"/>
<rect x="96.7969" y="117.563" width="14.8278" height="2.57876" rx="1.28938" fill="#EDF1F6"/>
<g clip-path="url(#clip2_2577_23776)">
<g clip-path="url(#clip3_2577_23776)">
<g clip-path="url(#clip4_2577_23776)">
<path d="M138.968 107.211C138.641 106.437 138.173 105.742 137.576 105.145C136.98 104.549 136.285 104.08 135.511 103.753C134.71 103.414 133.859 103.242 132.982 103.242C132.544 103.242 132.112 103.285 131.689 103.371C131.266 103.456 130.853 103.584 130.453 103.753C129.679 104.08 128.984 104.549 128.387 105.145C127.791 105.742 127.322 106.437 126.995 107.211C126.656 108.012 126.484 108.863 126.484 109.74C126.484 111.416 127.121 113.007 128.277 114.22C129.317 115.312 129.89 116.731 129.89 118.216C129.89 118.478 130.102 118.691 130.364 118.691H135.599C135.861 118.691 136.074 118.478 136.074 118.216C136.074 116.731 136.647 115.312 137.687 114.22C138.843 113.007 139.479 111.416 139.479 109.74C139.479 108.863 139.307 108.012 138.968 107.211Z" fill="#FECE4D"/>
<path d="M129.941 106.113L129.278 106.776C129.174 106.88 129.166 107.044 129.261 107.157L129.665 107.641C129.741 107.732 129.753 107.855 129.694 107.96C129.56 108.203 129.451 108.462 129.373 108.735C129.341 108.85 129.245 108.928 129.127 108.939L128.5 108.995C128.353 109.008 128.242 109.13 128.242 109.277V110.215C128.242 110.361 128.353 110.483 128.5 110.496L129.127 110.553C129.245 110.563 129.341 110.642 129.373 110.757C129.451 111.029 129.56 111.289 129.694 111.532C129.753 111.636 129.741 111.759 129.665 111.85L129.261 112.334C129.167 112.447 129.174 112.612 129.278 112.716L129.941 113.379C130.045 113.483 130.209 113.49 130.322 113.396L130.806 112.992C130.897 112.916 131.02 112.904 131.125 112.962C131.368 113.098 131.627 113.206 131.9 113.284C132.015 113.316 132.093 113.411 132.104 113.53L132.16 114.157C132.173 114.304 132.295 114.415 132.442 114.415H133.38C133.526 114.415 133.648 114.303 133.661 114.157L133.718 113.53C133.728 113.411 133.807 113.316 133.922 113.283C134.195 113.206 134.454 113.098 134.697 112.962C134.801 112.904 134.924 112.916 135.015 112.992L135.499 113.396C135.612 113.49 135.777 113.483 135.881 113.379L136.544 112.716C136.648 112.612 136.656 112.447 136.561 112.334L136.158 111.85C136.081 111.759 136.069 111.636 136.127 111.532C136.263 111.289 136.371 111.029 136.449 110.757C136.481 110.642 136.576 110.563 136.695 110.553L137.322 110.496C137.469 110.483 137.58 110.361 137.58 110.215V109.277C137.58 109.13 137.468 109.008 137.322 108.995L136.695 108.939C136.576 108.928 136.481 108.85 136.449 108.735C136.371 108.462 136.263 108.203 136.127 107.96C136.069 107.855 136.081 107.732 136.158 107.641L136.561 107.157C136.655 107.044 136.648 106.88 136.544 106.776L135.881 106.113C135.777 106.009 135.612 106.001 135.499 106.096L135.015 106.5C134.924 106.576 134.801 106.587 134.697 106.529C134.454 106.395 134.195 106.286 133.922 106.208C133.807 106.176 133.728 106.08 133.718 105.962L133.661 105.334C133.648 105.188 133.526 105.077 133.38 105.077H132.442C132.295 105.077 132.173 105.188 132.16 105.334L132.104 105.962C132.093 106.08 132.015 106.176 131.9 106.208C131.627 106.286 131.368 106.395 131.125 106.529C131.02 106.587 130.897 106.576 130.806 106.5L130.322 106.096C130.209 106.002 130.045 106.009 129.941 106.113ZM132.911 107.67C134.057 107.67 134.987 108.6 134.987 109.746C134.987 110.892 134.058 111.822 132.911 111.822C131.764 111.822 130.835 110.893 130.835 109.746C130.835 108.599 131.765 107.67 132.911 107.67Z" fill="white"/>
<path d="M125.49 109.814C125.49 109.56 125.285 109.354 125.031 109.354H121.959C121.706 109.354 121.5 109.56 121.5 109.814C121.5 110.067 121.706 110.273 121.959 110.273H125.031C125.285 110.273 125.49 110.067 125.49 109.814Z" fill="#9FC0FF"/>
<path d="M125.49 109.814C125.49 109.56 125.285 109.354 125.031 109.354H121.959C121.706 109.354 121.5 109.56 121.5 109.814C121.5 110.067 121.706 110.273 121.959 110.273H125.031C125.285 110.273 125.49 110.067 125.49 109.814Z" stroke="#9FC0FF"/>
<path d="M144 109.354H140.928C140.674 109.354 140.469 109.56 140.469 109.814C140.469 110.067 140.674 110.273 140.928 110.273H144C144.254 110.273 144.459 110.067 144.459 109.814C144.459 109.56 144.254 109.354 144 109.354Z" fill="#9FC0FF"/>
<path d="M144 109.354H140.928C140.674 109.354 140.469 109.56 140.469 109.814C140.469 110.067 140.674 110.273 140.928 110.273H144C144.254 110.273 144.459 110.067 144.459 109.814C144.459 109.56 144.254 109.354 144 109.354Z" stroke="#9FC0FF"/>
<path d="M127.033 115.11L124.861 117.282C124.771 117.372 124.727 117.49 124.727 117.607C124.727 117.725 124.771 117.842 124.861 117.932C124.951 118.022 125.068 118.066 125.186 118.066C125.303 118.066 125.421 118.022 125.51 117.932L127.683 115.76C127.772 115.67 127.817 115.552 127.817 115.435C127.817 115.317 127.772 115.2 127.683 115.11C127.503 114.931 127.213 114.931 127.033 115.11Z" fill="#9FC0FF"/>
<path d="M127.033 115.11L124.861 117.282C124.771 117.372 124.727 117.49 124.727 117.607C124.727 117.725 124.771 117.842 124.861 117.932C124.951 118.022 125.068 118.066 125.186 118.066C125.303 118.066 125.421 118.022 125.51 117.932L127.683 115.76C127.772 115.67 127.817 115.552 127.817 115.435C127.817 115.317 127.772 115.2 127.683 115.11C127.503 114.931 127.213 114.931 127.033 115.11Z" stroke="#9FC0FF"/>
<path d="M138.6 104.651C138.717 104.651 138.835 104.607 138.925 104.517L141.097 102.345C141.187 102.255 141.231 102.137 141.231 102.02C141.231 101.902 141.187 101.785 141.097 101.695C140.917 101.516 140.627 101.516 140.447 101.695L138.275 103.867C138.185 103.957 138.141 104.075 138.141 104.192C138.141 104.31 138.185 104.427 138.275 104.517C138.365 104.607 138.482 104.651 138.6 104.651Z" fill="#9FC0FF"/>
<path d="M138.6 104.651C138.717 104.651 138.835 104.607 138.925 104.517L141.097 102.345C141.187 102.255 141.231 102.137 141.231 102.02C141.231 101.902 141.187 101.785 141.097 101.695C140.917 101.516 140.627 101.516 140.447 101.695L138.275 103.867C138.185 103.957 138.141 104.075 138.141 104.192C138.141 104.31 138.185 104.427 138.275 104.517C138.365 104.607 138.482 104.651 138.6 104.651Z" stroke="#9FC0FF"/>
<path d="M132.979 102.323C133.232 102.323 133.438 102.118 133.438 101.864V98.7922C133.438 98.5386 133.232 98.333 132.979 98.333C132.725 98.333 132.52 98.5386 132.52 98.7922V101.864C132.52 102.118 132.725 102.323 132.979 102.323Z" fill="#9FC0FF"/>
<path d="M132.979 102.323C133.232 102.323 133.438 102.118 133.438 101.864V98.7922C133.438 98.5386 133.232 98.333 132.979 98.333C132.725 98.333 132.52 98.5386 132.52 98.7922V101.864C132.52 102.118 132.725 102.323 132.979 102.323Z" stroke="#9FC0FF"/>
<path d="M138.925 115.11C138.745 114.931 138.455 114.931 138.275 115.11C138.185 115.2 138.141 115.317 138.141 115.435C138.141 115.552 138.185 115.67 138.275 115.76L140.447 117.932C140.537 118.022 140.655 118.066 140.772 118.066C140.89 118.066 141.007 118.022 141.097 117.932C141.187 117.842 141.231 117.725 141.231 117.607C141.231 117.49 141.187 117.372 141.097 117.282L138.925 115.11Z" fill="#9FC0FF"/>
<path d="M138.925 115.11C138.745 114.931 138.455 114.931 138.275 115.11C138.185 115.2 138.141 115.317 138.141 115.435C138.141 115.552 138.185 115.67 138.275 115.76L140.447 117.932C140.537 118.022 140.655 118.066 140.772 118.066C140.89 118.066 141.007 118.022 141.097 117.932C141.187 117.842 141.231 117.725 141.231 117.607C141.231 117.49 141.187 117.372 141.097 117.282L138.925 115.11Z" stroke="#9FC0FF"/>
<path d="M127.033 104.517C127.123 104.607 127.241 104.651 127.358 104.651C127.476 104.651 127.593 104.607 127.683 104.517C127.772 104.427 127.817 104.31 127.817 104.192C127.817 104.075 127.772 103.957 127.683 103.867L125.51 101.695C125.331 101.516 125.04 101.516 124.861 101.695C124.771 101.785 124.727 101.902 124.727 102.02C124.727 102.137 124.771 102.255 124.861 102.345L127.033 104.517Z" fill="#9FC0FF"/>
<path d="M127.033 104.517C127.123 104.607 127.241 104.651 127.358 104.651C127.476 104.651 127.593 104.607 127.683 104.517C127.772 104.427 127.817 104.31 127.817 104.192C127.817 104.075 127.772 103.957 127.683 103.867L125.51 101.695C125.331 101.516 125.04 101.516 124.861 101.695C124.771 101.785 124.727 101.902 124.727 102.02C124.727 102.137 124.771 102.255 124.861 102.345L127.033 104.517Z" stroke="#9FC0FF"/>
<path d="M135.262 120.521H130.703C130.466 120.521 130.273 120.713 130.273 120.95C130.273 121.187 130.466 121.379 130.703 121.379H135.262C135.499 121.379 135.691 121.187 135.691 120.95C135.691 120.713 135.499 120.521 135.262 120.521Z" fill="#3D7FFC"/>
<path d="M135.554 119.17H130.41C130.173 119.17 129.98 119.362 129.98 119.599C129.98 119.836 130.173 120.029 130.41 120.029H135.554C135.791 120.029 135.984 119.836 135.984 119.599C135.984 119.362 135.791 119.17 135.554 119.17Z" fill="#3D7FFC"/>
<path d="M134.683 121.854H131.28C131.176 121.854 131.122 121.978 131.192 122.055L131.523 122.416C131.697 122.606 131.942 122.713 132.198 122.713H133.765C134.021 122.713 134.266 122.606 134.44 122.416L134.771 122.055C134.841 121.978 134.787 121.854 134.683 121.854Z" fill="#3D7FFC"/>
</g>
</g>
</g>
</g>
<g filter="url(#filter2_dd_2577_23776)">
<path d="M19.9053 62H107.095C111.182 62 114.5 64.9363 114.5 68.5528V97.4472C114.5 101.064 111.182 104 107.095 104H19.9053C15.8183 104 12.5 101.064 12.5 97.4472V68.5528C12.5 64.9363 15.8183 62 19.9053 62Z" fill="white"/>
</g>
<path d="M46.0416 82.318C46.0416 85.2484 45.1415 87.9629 43.6053 90.2119C42.9693 91.1502 42.2179 92.0029 41.3699 92.7551C41.3513 92.7737 41.3327 92.7923 41.3141 92.8072C40.8157 93.2503 40.2763 93.6599 39.711 94.0322C39.2163 94.3525 38.703 94.6429 38.1674 94.9073C36.3225 95.8046 34.247 96.311 32.0561 96.311C31.9483 96.311 31.8404 96.311 31.7288 96.311C30.5311 96.2812 29.3669 96.1062 28.2622 95.7897C28.0614 95.7302 27.8642 95.6743 27.6708 95.6073C26.4434 95.2014 25.2866 94.6317 24.2377 93.9205C23.4529 93.3843 22.7201 92.7737 22.058 92.0923C21.9874 92.0215 21.913 91.9433 21.846 91.8689C21.05 91.0199 20.3582 90.0667 19.8003 89.039C18.6993 87.0394 18.0781 84.7532 18.0781 82.318C18.0781 74.5917 24.3418 68.3213 32.0599 68.3213C39.7779 68.3213 46.0416 74.5917 46.0416 82.318Z" fill="#E7EEFF"/>
<path d="M41.3676 92.7587C41.3676 92.7587 41.3304 92.7959 41.3118 92.8108C40.8134 93.2539 40.2741 93.6635 39.7087 94.0359C39.214 94.3561 38.7007 94.6465 38.1651 94.9109C36.3202 95.8083 34.2447 96.3147 32.0539 96.3147C31.946 96.3147 31.8381 96.3147 31.7266 96.3147C30.5289 96.2849 29.3647 96.1099 28.26 95.7934C28.0591 95.7338 27.862 95.678 27.6685 95.6109C26.4411 95.2051 25.2843 94.6354 24.2354 93.9242C23.4506 93.388 22.7178 92.7773 22.0558 92.0959C21.9851 92.0252 21.9107 91.947 21.8438 91.8725C23.313 91.1203 25.6972 90.6214 28.3715 90.4501C30.9194 90.2863 33.7314 90.4203 36.2532 90.9156C38.2209 91.3028 40.01 91.9023 41.3713 92.7587H41.3676Z" fill="#3D7FFC"/>
<path d="M28.5126 91.0077C30.3315 92.9811 36.4427 92.687 36.2604 90.9667C36.2344 90.7545 36.1972 89.4922 36.1749 89.2986C36.16 89.1422 36.1451 88.9895 36.1303 88.8443C36.0893 88.4198 36.0559 88.0437 36.0261 87.7198C35.9443 86.774 35.9182 86.2639 35.9182 86.2639H35.9108C35.736 86.2155 31.8082 85.0984 29.8517 84.6367C29.197 84.4803 28.7619 84.3984 28.7693 84.458C29.3681 88.8517 27.9101 90.3635 28.5052 91.0114L28.5126 91.0077Z" fill="#FFB27D"/>
<path d="M29.6443 85.9306C29.6443 85.9306 31.2847 87.5987 36.0233 87.7179C35.9415 86.7721 35.9155 86.262 35.9155 86.262H35.908C35.7332 86.2136 31.8054 85.0965 29.8489 84.6348C29.503 84.7763 29.9605 85.696 29.6406 85.9306H29.6443Z" fill="#ED975D"/>
<path d="M37.1229 86.0272C37.1229 86.0272 35.9252 86.4592 34.3928 86.664C32.1573 86.9656 29.2152 86.7868 28.2927 84.0798C26.738 79.5222 24.748 76.7854 29.3268 74.9237C31.7779 73.9258 33.3476 73.8736 34.4114 74.2534C35.3375 74.5811 35.8806 75.2364 36.2972 75.8881C37.1861 77.2844 38.9752 85.2304 37.1229 86.0272Z" fill="#FFB27D"/>
<path d="M35.9482 72.361C37.5848 73.4371 37.0492 75.958 35.1224 76.2968C33.9657 76.5016 32.9986 76.5426 32.4369 76.792C31.2988 77.2984 30.3205 77.8346 30.5883 79.6033C30.6813 80.2065 30.9714 80.9363 29.4278 80.5751C29.1749 80.5156 28.9926 80.5342 28.8662 80.6087C28.2264 80.9885 29.0447 82.8353 29.2902 83.2375C29.2902 83.2375 29.6473 84.5593 28.855 85.2035C28.7583 85.2817 27.2073 85.9594 23.4691 80.2326C22.8814 79.3352 22.3198 77.3096 23.2274 75.3585C24.1349 73.4074 26.6605 70.9424 31.4252 70.9424C32.6638 70.9424 34.5273 71.4339 35.9445 72.3648L35.9482 72.361Z" fill="#091B36"/>
<rect x="52.2656" y="71.3066" width="19.4615" height="3.38462" rx="1.69231" fill="#E6EEFF"/>
<rect x="52.2656" y="78.0771" width="16.9231" height="3.38462" rx="1.69231" fill="#EDF1F6"/>
<rect x="52.2656" y="84.8438" width="19.4615" height="3.38462" rx="1.69231" fill="#EDF1F6"/>
<rect x="52.2656" y="91.6143" width="19.4615" height="3.38462" rx="1.69231" fill="#EDF1F6"/>
<g clip-path="url(#clip5_2577_23776)">
<g clip-path="url(#clip6_2577_23776)">
<g clip-path="url(#clip7_2577_23776)">
<path d="M101.424 77.6508C100.995 76.6353 100.38 75.7233 99.5973 74.9402C98.8142 74.157 97.9022 73.5424 96.8866 73.113C95.8351 72.6682 94.7182 72.4424 93.5671 72.4424C92.992 72.4424 92.4248 72.4988 91.8697 72.6108C91.3151 72.7233 90.7733 72.8904 90.2475 73.113C89.232 73.5424 88.32 74.157 87.5368 74.9402C86.7537 75.7233 86.1391 76.6353 85.7097 77.6508C85.2648 78.7024 85.0391 79.8193 85.0391 80.9704C85.0391 83.1699 85.8746 85.2588 87.3915 86.8513C88.7564 88.2842 89.5084 90.1468 89.5084 92.0962C89.5084 92.4397 89.7875 92.7193 90.1315 92.7193H97.0026C97.3462 92.7193 97.6257 92.4397 97.6257 92.0962C97.6257 90.1468 98.3777 88.2842 99.7426 86.8513C101.26 85.2588 102.095 83.1699 102.095 80.9704C102.095 79.8193 101.869 78.7024 101.424 77.6508Z" fill="#FECE4D"/>
<path d="M89.5814 76.21L88.7109 77.0804C88.5746 77.2167 88.5644 77.4326 88.6886 77.5805L89.2185 78.2155C89.319 78.3356 89.3339 78.497 89.2576 78.6342C89.0808 78.9529 88.9384 79.2934 88.8361 79.6512C88.7933 79.8019 88.6681 79.9047 88.5123 79.9187L87.6893 79.9931C87.4972 80.0104 87.3516 80.1699 87.3516 80.363V81.5935C87.3516 81.7861 87.4976 81.9457 87.6893 81.9634L88.5123 82.0373C88.6681 82.0513 88.7933 82.1546 88.8361 82.3053C88.938 82.663 89.0808 83.0036 89.2576 83.3223C89.3339 83.459 89.3185 83.6205 89.2185 83.7405L88.6886 84.3755C88.5649 84.5235 88.5751 84.7403 88.7109 84.8766L89.5814 85.747C89.7177 85.8833 89.9335 85.8931 90.0815 85.7693L90.7165 85.2394C90.8365 85.1385 90.998 85.1236 91.1352 85.1999C91.4539 85.3776 91.7944 85.5195 92.1522 85.6218C92.3029 85.6646 92.4057 85.7893 92.4201 85.9452L92.4941 86.7682C92.5113 86.9603 92.6709 87.1059 92.864 87.1059H94.0945C94.2871 87.1059 94.4466 86.9598 94.4643 86.7682L94.5383 85.9452C94.5523 85.7893 94.6555 85.6646 94.8063 85.6214C95.164 85.5195 95.5046 85.3776 95.8232 85.1999C95.96 85.1236 96.1214 85.1389 96.2415 85.2394L96.8765 85.7693C97.0244 85.8926 97.2412 85.8828 97.3775 85.747L98.248 84.8766C98.3843 84.7403 98.394 84.5239 98.2703 84.3755L97.7404 83.7405C97.6395 83.6205 97.6246 83.459 97.7009 83.3223C97.8786 83.0036 98.0205 82.663 98.1228 82.3053C98.1656 82.1546 98.2903 82.0513 98.4462 82.0373L99.2691 81.9634C99.4613 81.9457 99.6069 81.7856 99.6069 81.5935V80.363C99.6069 80.1699 99.4608 80.0104 99.2691 79.9931L98.4462 79.9192C98.2903 79.9047 98.1656 79.8019 98.1224 79.6512C98.0205 79.2934 97.8786 78.9529 97.7009 78.6342C97.6246 78.497 97.6399 78.3356 97.7404 78.2155L98.2703 77.5805C98.3936 77.4326 98.3838 77.2162 98.248 77.0804L97.3775 76.21C97.2412 76.0737 97.0249 76.0634 96.8765 76.1876L96.2415 76.7175C96.1214 76.818 95.96 76.8329 95.8232 76.7566C95.5046 76.5798 95.164 76.437 94.8063 76.3351C94.6555 76.2923 94.5523 76.1672 94.5383 76.0113L94.4643 75.1883C94.4466 74.9962 94.2866 74.8506 94.0945 74.8506H92.864C92.6709 74.8506 92.5113 74.9967 92.4941 75.1883L92.4201 76.0113C92.4057 76.1672 92.3029 76.2923 92.1522 76.3351C91.7944 76.437 91.4539 76.5798 91.1352 76.7566C90.998 76.8329 90.8365 76.8175 90.7165 76.7175L90.0815 76.1876C89.9335 76.0639 89.7172 76.0741 89.5814 76.21ZM93.4795 78.2541C94.984 78.2541 96.2038 79.474 96.2038 80.9785C96.2038 82.483 94.9844 83.7028 93.4795 83.7028C91.9745 83.7028 90.7551 82.4835 90.7551 80.9785C90.7551 79.4735 91.9749 78.2541 93.4795 78.2541Z" fill="white"/>
<path d="M83.7373 81.0685C83.7373 80.7356 83.4676 80.4658 83.1347 80.4658H79.1027C78.7698 80.4658 78.5 80.7356 78.5 81.0685C78.5 81.4014 78.7698 81.6712 79.1027 81.6712H83.1347C83.4676 81.6712 83.7373 81.4014 83.7373 81.0685Z" fill="#9FC0FF"/>
<path d="M83.7373 81.0685C83.7373 80.7356 83.4676 80.4658 83.1347 80.4658H79.1027C78.7698 80.4658 78.5 80.7356 78.5 81.0685C78.5 81.4014 78.7698 81.6712 79.1027 81.6712H83.1347C83.4676 81.6712 83.7373 81.4014 83.7373 81.0685Z" stroke="#9FC0FF"/>
<path d="M108.033 80.4658H104.001C103.668 80.4658 103.398 80.7356 103.398 81.0685C103.398 81.4014 103.668 81.6712 104.001 81.6712H108.033C108.366 81.6712 108.636 81.4014 108.636 81.0685C108.636 80.7356 108.366 80.4658 108.033 80.4658Z" fill="#9FC0FF"/>
<path d="M108.033 80.4658H104.001C103.668 80.4658 103.398 80.7356 103.398 81.0685C103.398 81.4014 103.668 81.6712 104.001 81.6712H108.033C108.366 81.6712 108.636 81.4014 108.636 81.0685C108.636 80.7356 108.366 80.4658 108.033 80.4658Z" stroke="#9FC0FF"/>
<path d="M85.7658 88.0194L82.9147 90.8706C82.7969 90.9883 82.7383 91.1426 82.7383 91.2968C82.7383 91.451 82.7969 91.6052 82.9147 91.723C83.0325 91.8408 83.1867 91.8994 83.3409 91.8994C83.4952 91.8994 83.6494 91.8408 83.7672 91.723L86.6183 88.8719C86.7361 88.7541 86.7947 88.5999 86.7947 88.4457C86.7947 88.2914 86.7361 88.1372 86.6183 88.0194C86.3827 87.7839 86.0014 87.7839 85.7658 88.0194Z" fill="#9FC0FF"/>
<path d="M85.7658 88.0194L82.9147 90.8706C82.7969 90.9883 82.7383 91.1426 82.7383 91.2968C82.7383 91.451 82.7969 91.6052 82.9147 91.723C83.0325 91.8408 83.1867 91.8994 83.3409 91.8994C83.4952 91.8994 83.6494 91.8408 83.7672 91.723L86.6183 88.8719C86.7361 88.7541 86.7947 88.5999 86.7947 88.4457C86.7947 88.2914 86.7361 88.1372 86.6183 88.0194C86.3827 87.7839 86.0014 87.7839 85.7658 88.0194Z" stroke="#9FC0FF"/>
<path d="M100.946 74.293C101.101 74.293 101.255 74.2343 101.373 74.1166L104.224 71.2654C104.342 71.1477 104.4 70.9934 104.4 70.8392C104.4 70.685 104.342 70.5308 104.224 70.413C103.988 70.1774 103.607 70.1774 103.371 70.413L100.52 73.2641C100.402 73.3819 100.344 73.5361 100.344 73.6903C100.344 73.8445 100.402 73.9988 100.52 74.1166C100.638 74.2343 100.792 74.293 100.946 74.293Z" fill="#9FC0FF"/>
<path d="M100.946 74.293C101.101 74.293 101.255 74.2343 101.373 74.1166L104.224 71.2654C104.342 71.1477 104.4 70.9934 104.4 70.8392C104.4 70.685 104.342 70.5308 104.224 70.413C103.988 70.1774 103.607 70.1774 103.371 70.413L100.52 73.2641C100.402 73.3819 100.344 73.5361 100.344 73.6903C100.344 73.8445 100.402 73.9988 100.52 74.1166C100.638 74.2343 100.792 74.293 100.946 74.293Z" stroke="#9FC0FF"/>
<path d="M93.5675 71.2373C93.9004 71.2373 94.1702 70.9676 94.1702 70.6347V66.6027C94.1702 66.2698 93.9004 66 93.5675 66C93.2346 66 92.9648 66.2698 92.9648 66.6027V70.6347C92.9648 70.9676 93.2346 71.2373 93.5675 71.2373Z" fill="#9FC0FF"/>
<path d="M93.5675 71.2373C93.9004 71.2373 94.1702 70.9676 94.1702 70.6347V66.6027C94.1702 66.2698 93.9004 66 93.5675 66C93.2346 66 92.9648 66.2698 92.9648 66.6027V70.6347C92.9648 70.9676 93.2346 71.2373 93.5675 71.2373Z" stroke="#9FC0FF"/>
<path d="M101.373 88.0194C101.137 87.7839 100.756 87.7839 100.52 88.0194C100.402 88.1372 100.344 88.2914 100.344 88.4457C100.344 88.5999 100.402 88.7541 100.52 88.8719L103.371 91.723C103.489 91.8408 103.643 91.8994 103.798 91.8994C103.952 91.8994 104.106 91.8408 104.224 91.723C104.342 91.6052 104.4 91.451 104.4 91.2968C104.4 91.1426 104.342 90.9883 104.224 90.8706L101.373 88.0194Z" fill="#9FC0FF"/>
<path d="M101.373 88.0194C101.137 87.7839 100.756 87.7839 100.52 88.0194C100.402 88.1372 100.344 88.2914 100.344 88.4457C100.344 88.5999 100.402 88.7541 100.52 88.8719L103.371 91.723C103.489 91.8408 103.643 91.8994 103.798 91.8994C103.952 91.8994 104.106 91.8408 104.224 91.723C104.342 91.6052 104.4 91.451 104.4 91.2968C104.4 91.1426 104.342 90.9883 104.224 90.8706L101.373 88.0194Z" stroke="#9FC0FF"/>
<path d="M85.7658 74.1166C85.8836 74.2343 86.0378 74.293 86.1921 74.293C86.3463 74.293 86.5005 74.2343 86.6183 74.1166C86.7361 73.9988 86.7947 73.8445 86.7947 73.6903C86.7947 73.5361 86.7361 73.3819 86.6183 73.2641L83.7672 70.413C83.5316 70.1774 83.1503 70.1774 82.9147 70.413C82.7969 70.5308 82.7383 70.685 82.7383 70.8392C82.7383 70.9934 82.7969 71.1477 82.9147 71.2654L85.7658 74.1166Z" fill="#9FC0FF"/>
<path d="M85.7658 74.1166C85.8836 74.2343 86.0378 74.293 86.1921 74.293C86.3463 74.293 86.5005 74.2343 86.6183 74.1166C86.7361 73.9988 86.7947 73.8445 86.7947 73.6903C86.7947 73.5361 86.7361 73.3819 86.6183 73.2641L83.7672 70.413C83.5316 70.1774 83.1503 70.1774 82.9147 70.413C82.7969 70.5308 82.7383 70.685 82.7383 70.8392C82.7383 70.9934 82.7969 71.1477 82.9147 71.2654L85.7658 74.1166Z" stroke="#9FC0FF"/>
<path d="M96.5593 95.1211H90.5753C90.2642 95.1211 90.0117 95.3735 90.0117 95.6846C90.0117 95.9958 90.2642 96.2482 90.5753 96.2482H96.5593C96.8704 96.2482 97.1228 95.9958 97.1228 95.6846C97.1228 95.3735 96.8704 95.1211 96.5593 95.1211Z" fill="#3D7FFC"/>
<path d="M96.9445 93.3486H90.1925C89.8814 93.3486 89.6289 93.6011 89.6289 93.9122C89.6289 94.2233 89.8814 94.4757 90.1925 94.4757H96.9445C97.2556 94.4757 97.508 94.2233 97.508 93.9122C97.508 93.6011 97.2556 93.3486 96.9445 93.3486Z" fill="#3D7FFC"/>
<path d="M95.8038 96.8721H91.3367C91.2002 96.8721 91.1291 97.0343 91.2211 97.1347L91.6562 97.6094C91.8838 97.8578 92.2056 97.9992 92.5425 97.9992H94.598C94.9349 97.9992 95.2567 97.8578 95.4842 97.6094L95.9194 97.1347C96.0114 97.0343 95.9402 96.8721 95.8038 96.8721Z" fill="#3D7FFC"/>
</g>
</g>
</g>
<g clip-path="url(#clip8_2577_23776)">
<path d="M131.468 54.9992C138.924 54.9992 144.968 48.9552 144.968 41.4996C144.968 34.044 138.924 28 131.468 28C124.013 28 117.969 34.044 117.969 41.4996C117.969 48.9552 124.013 54.9992 131.468 54.9992Z" fill="#DADAFF"/>
<path d="M120.536 49.3984L115.891 57.45L121.312 57.1622L123.775 62.0012L128.072 54.552C124.993 53.7555 122.349 51.9016 120.536 49.3984Z" fill="#7879F1"/>
<path d="M142.434 49.3584C140.634 51.8682 137.99 53.7289 134.918 54.5387L139.228 62.0013L141.691 57.1623L147.112 57.4501L142.434 49.3584Z" fill="#7879F1"/>
<path d="M131.469 51.2849C136.873 51.2849 141.254 46.904 141.254 41.4999C141.254 36.0958 136.873 31.7148 131.469 31.7148C126.065 31.7148 121.684 36.0958 121.684 41.4999C121.684 46.904 126.065 51.2849 131.469 51.2849Z" fill="#7879F1"/>
<path d="M137.269 39.8868C137.528 39.6218 137.384 39.1581 137.028 39.1039L133.707 38.5981C133.564 38.574 133.443 38.4837 133.379 38.3452L131.895 35.1959C131.734 34.8527 131.267 34.8527 131.106 35.1959L129.627 38.3452C129.564 38.4777 129.438 38.574 129.299 38.5981L125.979 39.1039C125.622 39.1581 125.479 39.6218 125.737 39.8868L128.137 42.3376C128.241 42.4459 128.287 42.5965 128.264 42.741L127.7 46.1974C127.636 46.5708 128.016 46.8598 128.338 46.6792L131.308 45.0473C131.434 44.975 131.59 44.975 131.716 45.0473L134.686 46.6792C135.008 46.8538 135.382 46.5708 135.324 46.1974L134.755 42.741C134.732 42.5905 134.778 42.4399 134.881 42.3376L137.269 39.8868Z" fill="white"/>
</g>
<defs>
<filter id="filter0_dd_2577_23776" x="2.74483" y="23.8707" width="151.51" height="114.51" filterUnits="userSpaceOnUse" color-interpolation-filters="sRGB">
<feFlood flood-opacity="0" result="BackgroundImageFix"/>
<feColorMatrix in="SourceAlpha" type="matrix" values="0 0 0 0 0 0 0 0 0 0 0 0 0 0 0 0 0 0 127 0" result="hardAlpha"/>
<feOffset dy="5.25172"/>
<feGaussianBlur stdDeviation="6.56466"/>
<feColorMatrix type="matrix" values="0 0 0 0 0.607843 0 0 0 0 0.67451 0 0 0 0 0.737255 0 0 0 0.35 0"/>
<feBlend mode="normal" in2="BackgroundImageFix" result="effect1_dropShadow_2577_23776"/>
<feColorMatrix in="SourceAlpha" type="matrix" values="0 0 0 0 0 0 0 0 0 0 0 0 0 0 0 0 0 0 127 0" result="hardAlpha"/>
<feOffset dy="2.62586"/>
<feGaussianBlur stdDeviation="7.87759"/>
<feColorMatrix type="matrix" values="0 0 0 0 0.89625 0 0 0 0 0.930414 0 0 0 0 0.995833 0 0 0 0.5 0"/>
<feBlend mode="normal" in2="effect1_dropShadow_2577_23776" result="effect2_dropShadow_2577_23776"/>
<feBlend mode="normal" in="SourceGraphic" in2="effect2_dropShadow_2577_23776" result="shape"/>
</filter>
<filter id="filter1_dd_2577_23776" x="56.288" y="86.49" width="98.1389" height="52.4241" filterUnits="userSpaceOnUse" color-interpolation-filters="sRGB">
<feFlood flood-opacity="0" result="BackgroundImageFix"/>
<feColorMatrix in="SourceAlpha" type="matrix" values="0 0 0 0 0 0 0 0 0 0 0 0 0 0 0 0 0 0 127 0" result="hardAlpha"/>
<feOffset dy="3.40402"/>
<feGaussianBlur stdDeviation="4.25502"/>
<feColorMatrix type="matrix" values="0 0 0 0 0.607843 0 0 0 0 0.67451 0 0 0 0 0.737255 0 0 0 0.35 0"/>
<feBlend mode="normal" in2="BackgroundImageFix" result="effect1_dropShadow_2577_23776"/>
<feColorMatrix in="SourceAlpha" type="matrix" values="0 0 0 0 0 0 0 0 0 0 0 0 0 0 0 0 0 0 127 0" result="hardAlpha"/>
<feOffset dy="1.70201"/>
<feGaussianBlur stdDeviation="5.10602"/>
<feColorMatrix type="matrix" values="0 0 0 0 0.89625 0 0 0 0 0.930414 0 0 0 0 0.995833 0 0 0 0.5 0"/>
<feBlend mode="normal" in2="effect1_dropShadow_2577_23776" result="effect2_dropShadow_2577_23776"/>
<feBlend mode="normal" in="SourceGraphic" in2="effect2_dropShadow_2577_23776" result="shape"/>
</filter>
<filter id="filter2_dd_2577_23776" x="0.5" y="52" width="126" height="66" filterUnits="userSpaceOnUse" color-interpolation-filters="sRGB">
<feFlood flood-opacity="0" result="BackgroundImageFix"/>
<feColorMatrix in="SourceAlpha" type="matrix" values="0 0 0 0 0 0 0 0 0 0 0 0 0 0 0 0 0 0 127 0" result="hardAlpha"/>
<feOffset dy="4"/>
<feGaussianBlur stdDeviation="5"/>
<feColorMatrix type="matrix" values="0 0 0 0 0.607843 0 0 0 0 0.67451 0 0 0 0 0.737255 0 0 0 0.35 0"/>
<feBlend mode="normal" in2="BackgroundImageFix" result="effect1_dropShadow_2577_23776"/>
<feColorMatrix in="SourceAlpha" type="matrix" values="0 0 0 0 0 0 0 0 0 0 0 0 0 0 0 0 0 0 127 0" result="hardAlpha"/>
<feOffset dy="2"/>
<feGaussianBlur stdDeviation="6"/>
<feColorMatrix type="matrix" values="0 0 0 0 0.89625 0 0 0 0 0.930414 0 0 0 0 0.995833 0 0 0 0.5 0"/>
<feBlend mode="normal" in2="effect1_dropShadow_2577_23776" result="effect2_dropShadow_2577_23776"/>
<feBlend mode="normal" in="SourceGraphic" in2="effect2_dropShadow_2577_23776" result="shape"/>
</filter>
<clipPath id="clip0_2577_23776">
<rect width="8.67489" height="8.67489" fill="white" transform="translate(30.5 42)"/>
</clipPath>
<clipPath id="clip1_2577_23776">
<rect width="35.4" height="8" fill="white" transform="translate(41.5 43)"/>
</clipPath>
<clipPath id="clip2_2577_23776">
<rect width="24.381" height="24.381" fill="white" transform="translate(121.5 98.333)"/>
</clipPath>
<clipPath id="clip3_2577_23776">
<rect width="24.381" height="24.381" fill="white" transform="translate(121.5 98.333)"/>
</clipPath>
<clipPath id="clip4_2577_23776">
<rect width="22.9608" height="24.381" fill="white" transform="translate(121.5 98.333)"/>
</clipPath>
<clipPath id="clip5_2577_23776">
<rect width="32" height="32" fill="white" transform="translate(78.5 66)"/>
</clipPath>
<clipPath id="clip6_2577_23776">
<rect width="32" height="32" fill="white" transform="translate(78.5 66)"/>
</clipPath>
<clipPath id="clip7_2577_23776">
<rect width="30.136" height="32" fill="white" transform="translate(78.5 66)"/>
</clipPath>
<clipPath id="clip8_2577_23776">
<rect width="34" height="34" fill="white" transform="translate(114.5 28)"/>
</clipPath>
</defs>
</svg>
