<svg width="48" height="47" viewBox="0 0 48 47" fill="none" xmlns="http://www.w3.org/2000/svg">
<g clip-path="url(#clip0_8706_5838)">
<g clip-path="url(#clip1_8706_5838)">
<rect x="14.5862" width="32.6857" height="22" rx="1.40898" fill="white"/>
<path d="M19.8662 2.82463C19.8662 3.34126 19.44 3.76749 18.9233 3.76749C18.4067 3.76749 17.9805 3.34126 17.9805 2.82463C17.9805 2.308 18.4067 1.88177 18.9233 1.88177C19.44 1.88177 19.8662 2.308 19.8662 2.82463Z" fill="#092349"/>
<path d="M22.9465 2.82463C22.9465 3.34126 22.5203 3.76749 22.0036 3.76749C21.487 3.76749 21.0608 3.34126 21.0608 2.82463C21.0608 2.308 21.487 1.88177 22.0036 1.88177C22.5332 1.88177 22.9465 2.308 22.9465 2.82463Z" fill="#092349"/>
<path d="M26.0273 2.82463C26.0273 3.34126 25.6011 3.76749 25.0845 3.76749C24.5678 3.76749 24.1416 3.34126 24.1416 2.82463C24.1416 2.308 24.5678 1.88177 25.0845 1.88177C25.6011 1.88177 26.0273 2.308 26.0273 2.82463Z" fill="#092349"/>
<path d="M29.0247 6.6119C29.0247 6.37671 29.2153 6.18605 29.4505 6.18605H44.557C44.7922 6.18605 44.9829 6.37671 44.9829 6.6119V11.8395C44.9829 12.0747 44.7922 12.2654 44.557 12.2654H29.4505C29.2153 12.2654 29.0247 12.0747 29.0247 11.8395V6.6119Z" fill="#092349"/>
<path d="M29.0247 14.2111C29.0247 13.9759 29.2153 13.7852 29.4505 13.7852H44.557C44.7922 13.7852 44.9829 13.9759 44.9829 14.2111V19.4387C44.9829 19.6739 44.7922 19.8645 44.557 19.8645H29.4505C29.2153 19.8645 29.0247 19.6739 29.0247 19.4387V14.2111Z" fill="#092349"/>
<path d="M16.866 6.6119C16.866 6.37671 17.0566 6.18605 17.2918 6.18605H27.0789C27.3141 6.18605 27.5048 6.37671 27.5048 6.6119V19.4387C27.5048 19.6739 27.3141 19.8645 27.0789 19.8645H17.2918C17.0566 19.8645 16.866 19.6739 16.866 19.4387V6.6119Z" fill="#092349"/>
<rect x="6.50024" y="10" width="29" height="19.5192" rx="1.2501" fill="#C6DBFF"/>
<path d="M11.185 12.5058C11.185 12.9642 10.8069 13.3424 10.3485 13.3424C9.89012 13.3424 9.51196 12.9642 9.51196 12.5058C9.51196 12.0475 9.89012 11.6693 10.3485 11.6693C10.8069 11.6693 11.185 12.0475 11.185 12.5058Z" fill="#092349"/>
<path d="M13.9179 12.5058C13.9179 12.9642 13.5398 13.3424 13.0814 13.3424C12.623 13.3424 12.2449 12.9642 12.2449 12.5058C12.2449 12.0475 12.623 11.6693 13.0814 11.6693C13.5512 11.6693 13.9179 12.0475 13.9179 12.5058Z" fill="#092349"/>
<path d="M16.6513 12.5058C16.6513 12.9642 16.2732 13.3424 15.8148 13.3424C15.3564 13.3424 14.9783 12.9642 14.9783 12.5058C14.9783 12.0475 15.3564 11.6693 15.8148 11.6693C16.2732 11.6693 16.6513 12.0475 16.6513 12.5058Z" fill="#092349"/>
<path d="M19.3105 15.8663C19.3105 15.6577 19.4797 15.4885 19.6884 15.4885H33.0914C33.3001 15.4885 33.4693 15.6577 33.4693 15.8663V20.5045C33.4693 20.7131 33.3001 20.8823 33.0914 20.8823H19.6884C19.4797 20.8823 19.3105 20.7131 19.3105 20.5045V15.8663Z" fill="#092349"/>
<path d="M19.3105 22.6086C19.3105 22.3999 19.4797 22.2308 19.6884 22.2308H33.0914C33.3001 22.2308 33.4693 22.3999 33.4693 22.6086V27.2467C33.4693 27.4554 33.3001 27.6246 33.0914 27.6246H19.6884C19.4797 27.6246 19.3105 27.4554 19.3105 27.2467V22.6086Z" fill="#092349"/>
<path d="M8.52295 15.8663C8.52295 15.6577 8.69211 15.4885 8.90078 15.4885H17.5843C17.7929 15.4885 17.9621 15.6577 17.9621 15.8663V27.2467C17.9621 27.4554 17.7929 27.6245 17.5843 27.6245H8.90078C8.69211 27.6245 8.52295 27.4554 8.52295 27.2467V15.8663Z" fill="#092349"/>
<rect x="2.50024" y="24" width="23.7714" height="16" rx="1.02472" fill="#9FC0FF"/>
<path d="M6.33945 26.0547C6.33945 26.4305 6.02946 26.7404 5.65373 26.7404C5.278 26.7404 4.96802 26.4305 4.96802 26.0547C4.96802 25.679 5.278 25.369 5.65373 25.369C6.02946 25.369 6.33945 25.679 6.33945 26.0547Z" fill="#092349"/>
<path d="M8.57968 26.0547C8.57968 26.4305 8.2697 26.7404 7.89397 26.7404C7.51823 26.7404 7.20825 26.4305 7.20825 26.0547C7.20825 25.679 7.51823 25.369 7.89397 25.369C8.27909 25.369 8.57968 25.679 8.57968 26.0547Z" fill="#092349"/>
<path d="M10.8202 26.0547C10.8202 26.4305 10.5102 26.7404 10.1344 26.7404C9.75871 26.7404 9.44873 26.4305 9.44873 26.0547C9.44873 25.679 9.75871 25.369 10.1344 25.369C10.5102 25.369 10.8202 25.679 10.8202 26.0547Z" fill="#092349"/>
<path d="M13.001 28.8087C13.001 28.6376 13.1396 28.4989 13.3107 28.4989H24.2972C24.4683 28.4989 24.6069 28.6376 24.6069 28.8087V32.6106C24.6069 32.7816 24.4683 32.9203 24.2972 32.9203H13.3107C13.1396 32.9203 13.001 32.7816 13.001 32.6106V28.8087Z" fill="#092349"/>
<path d="M13.001 34.3353C13.001 34.1643 13.1396 34.0256 13.3107 34.0256H24.2972C24.4683 34.0256 24.6069 34.1643 24.6069 34.3353V38.1372C24.6069 38.3083 24.4683 38.4469 24.2972 38.4469H13.3107C13.1396 38.4469 13.001 38.3083 13.001 38.1372V34.3353Z" fill="#092349"/>
<path d="M4.1582 28.8087C4.1582 28.6376 4.29686 28.4989 4.46791 28.4989H11.5858C11.7569 28.4989 11.8955 28.6376 11.8955 28.8087V38.1372C11.8955 38.3083 11.7569 38.4469 11.5858 38.4469H4.46791C4.29686 38.4469 4.1582 38.3083 4.1582 38.1372V28.8087Z" fill="#092349"/>
<path d="M33.4802 29.38H34.4802V28.38C34.4802 27.2968 34.9138 26.2507 35.6874 25.4771C36.4609 24.7035 37.507 24.27 38.5902 24.27C39.6735 24.27 40.7196 24.7035 41.4931 25.4771L41.4931 25.4771L41.4968 25.4808C42.2647 26.2407 42.7002 27.2938 42.7002 28.38V33.03H29.5002H28.5002V34.03V47.66V48.66H29.5002H47.6702H48.6702V47.66V34.03V33.03H47.6702H46.9702V28.38C46.9702 26.1529 46.0836 24.0305 44.5199 22.4555C42.949 20.8732 40.8122 20 38.5902 20C36.3646 20 34.2318 20.8856 32.6557 22.4503C31.0734 24.0212 30.2002 26.1581 30.2002 28.38V29.38H31.2002H33.4802Z" fill="#FECE4D" stroke="#092349" stroke-width="2"/>
<circle cx="38.5002" cy="41" r="2" fill="#092349"/>
</g>
</g>
<defs>
<clipPath id="clip0_8706_5838">
<rect width="47" height="47" fill="white" transform="translate(0.5)"/>
</clipPath>
<clipPath id="clip1_8706_5838">
<rect width="47" height="47" fill="white" transform="translate(0.500244)"/>
</clipPath>
</defs>
</svg>
