<svg width="48" height="47" viewBox="0 0 48 47" fill="none" xmlns="http://www.w3.org/2000/svg">
<g id="Icons" clip-path="url(#clip0_8706_5938)">
<path id="Subtract" d="M31.0148 38.977C30.5115 38.9362 30.0049 38.8435 29.5014 38.6954C27.0528 37.9748 25.2522 36.111 24.5101 33.8571C23.3138 34.1247 22.0348 34.1011 20.7755 33.7305C16.8161 32.5654 14.551 28.4111 15.7161 24.4517C16.283 22.5254 17.5574 21.0001 19.1726 20.0758C18.3154 18.4239 18.0703 16.4514 18.6372 14.525C18.7825 14.0312 18.9743 13.5637 19.2065 13.126C11.2497 12.1395 3.51986 17.026 1.18245 24.9688C-1.41675 33.8013 3.63632 43.0685 12.4688 45.6678C19.6244 47.7735 27.0652 44.8568 31.0148 38.977Z" fill="#FECE4D"/>
<circle id="Ellipse 2532" cx="30.9911" cy="20.6947" r="19.6947" fill="#092349"/>
<path id="Subtract_2" fill-rule="evenodd" clip-rule="evenodd" d="M46.8936 25.7103C46.3994 25.8132 45.8873 25.8673 45.3626 25.8673C42.809 25.8673 40.5545 24.5865 39.2066 22.6322C38.0032 23.461 36.5448 23.9462 34.9731 23.9462C30.8458 23.9462 27.5 20.6004 27.5 16.4731C27.5 14.2102 28.5058 12.1822 30.0947 10.8118C28.867 9.48026 28.1171 7.70146 28.1171 5.7475C28.1171 5.23239 28.1692 4.72946 28.2684 4.24368C20.3565 5.54337 14.3203 12.4134 14.3203 20.6932C14.3203 29.9002 21.7841 37.364 30.9911 37.364C38.4498 37.364 44.7644 32.4656 46.8936 25.7103Z" fill="white"/>
<circle id="Ellipse 2522" cx="35.0151" cy="16.6707" r="1.72456" fill="white"/>
<circle id="Ellipse 2524" cx="44.2127" cy="18.9705" r="2.29941" fill="#3D7FFC"/>
<circle id="Ellipse 2526" cx="34.7994" cy="6.29941" r="2.29941" fill="white"/>
<circle id="Ellipse 2525" cx="40.9371" cy="11.4371" r="1.43713" fill="#3D7FFC"/>
<circle id="Ellipse 2527" cx="21.2186" cy="16.0964" r="2.29941" fill="#092349"/>
<circle id="Ellipse 2534" cx="10.7994" cy="38.2994" r="2.29941" fill="#092349"/>
<circle id="Ellipse 2529" cx="36.7398" cy="29.8923" r="2.29941" fill="#092349"/>
<circle id="Ellipse 2528" cx="26.3924" cy="24.1438" r="1.14971" fill="#092349"/>
<circle id="Ellipse 2530" cx="27.542" cy="31.0421" r="1.14971" fill="#092349"/>
<circle id="Ellipse 2535" cx="20.6497" cy="41.1497" r="1.14971" fill="#3D7FFC"/>
<circle id="Ellipse 2531" cx="18.9192" cy="24.1438" r="1.14971" fill="#3D7FFC"/>
<circle id="Ellipse 2533" cx="4.64971" cy="25.1497" r="1.14971" fill="#3D7FFC"/>
<circle id="Ellipse 2536" cx="9.64971" cy="30.1497" r="1.14971" fill="#092349"/>
</g>
<defs>
<clipPath id="clip0_8706_5938">
<rect width="47" height="47" fill="white" transform="translate(0.5)"/>
</clipPath>
</defs>
</svg>
