<svg width="47" height="40" viewBox="0 0 47 40" fill="none" xmlns="http://www.w3.org/2000/svg">
<g clip-path="url(#clip0_2611_25106)">
<g clip-path="url(#clip1_2611_25106)">
<path d="M20.3046 30.377H6.63281V32.0706H20.3046V30.377Z" fill="white"/>
<path d="M8.47964 13.8022C8.47964 11.7367 8.40301 10.1458 8.35579 9.10461H8.38753C8.61898 10.0377 9.09813 11.3388 9.43795 12.2105L11.0295 16.1277H12.8834V5.81543H11.1069V8.09562C11.1069 9.99322 11.2462 11.7835 11.3074 12.8699H11.2764C10.983 11.9821 10.4729 10.6511 10.164 9.85521L8.55782 5.81543H6.70312V16.1284H8.47964V13.8022Z" fill="#3D7FFC"/>
<path d="M19.3884 14.3842H16.7V11.5995H19.0788V9.93112H16.7V7.55969H19.2026V5.81543H14.6758V16.1284H19.3884V14.3842Z" fill="#3D7FFC"/>
<path d="M20.3046 24.7637H6.63281V26.4573H20.3046V24.7637Z" fill="white"/>
<path d="M23.9001 16.1282L24.5952 12.7616C24.812 11.7511 24.9823 10.6041 25.1673 9.36431H25.1982C25.3376 10.6194 25.4916 11.7971 25.6619 12.7463L26.2804 16.1274H28.3658L30.2042 5.81445H28.2264L27.7163 9.90024C27.577 11.0932 27.4539 12.1958 27.3153 13.5421H27.2844C27.1605 12.1958 26.9755 11.048 26.7897 9.88491L26.0946 5.81522H24.4567L23.7143 9.91634C23.4983 11.1553 23.2661 12.2732 23.1276 13.5429H23.0803C22.9565 12.2885 22.8644 11.1101 22.725 9.93168L22.2149 5.81599H20.1133L21.8898 16.129H23.8978L23.9001 16.1282Z" fill="#3D7FFC"/>
<path d="M20.3046 27.5703H6.63281V29.264H20.3046V27.5703Z" fill="white"/>
<path d="M20.3046 21.9561H6.63281V23.6497H20.3046V21.9561Z" fill="white"/>
<path d="M34.3312 10.146C33.2033 9.47207 32.8945 9.15158 32.8945 8.53899C32.8945 7.98772 33.3117 7.46789 34.1771 7.46789C34.7639 7.46789 35.2121 7.63657 35.5054 7.81981L35.8298 6.09089C35.5209 5.90764 34.8715 5.72363 34.1918 5.72363C32.0136 5.72363 30.9012 7.10064 30.9012 8.75366C30.9012 9.68675 31.4415 10.7732 32.8635 11.6304C33.7436 12.1962 34.2073 12.5634 34.2073 13.3133C34.2073 13.9872 33.7436 14.4764 32.7853 14.4764C32.1986 14.4764 31.4887 14.3077 31.0707 14.0785L30.7773 15.8074C31.1172 16.0067 31.9361 16.2206 32.7698 16.2206C34.8095 16.2206 36.2153 14.9816 36.2153 13.0994C36.2153 12.0129 35.7051 10.9725 34.3312 10.146Z" fill="#3D7FFC"/>
<path d="M36.0223 21.9561H23.5V32.0988H36.0223V21.9561Z" fill="white"/>
<path d="M36.1115 18.0947H6.64844V19.6074H36.1115V18.0947Z" fill="#FECE4D"/>
<path d="M43.6282 5.60583C42.9888 5.60583 42.4709 6.11876 42.4709 6.75206V33.3722C42.4709 34.168 41.8191 34.8136 41.0156 34.8136H40.4622V5.60583V2H2.21094V33.8307C2.21094 35.6393 3.69098 37.1053 5.51704 37.1053H41.0164C43.0979 37.1053 44.7854 35.4338 44.7854 33.3722V6.75206C44.7854 6.11876 44.2675 5.60583 43.6282 5.60583ZM22.2163 5.81591L22.7264 9.9316C22.8657 11.11 22.9579 12.2885 23.0817 13.5428H23.1289C23.2675 12.2731 23.4997 11.156 23.7157 9.91626L24.458 5.81514H26.096L26.7911 9.88483C26.9761 11.0479 27.1619 12.1957 27.2858 13.542H27.3167C27.456 12.1957 27.5791 11.0939 27.7177 9.90016L28.2278 5.81437H30.2056L28.3671 16.1274H26.2818L25.6633 12.7462C25.493 11.797 25.3389 10.6193 25.1996 9.36423H25.1686C24.9836 10.6032 24.8133 11.751 24.5966 12.7615L23.9015 16.1281H21.8935L20.117 5.81514H22.2186L22.2163 5.81591ZM14.6752 5.81591H19.202V7.56017H16.6994V9.9316H19.0782V11.6H16.6994V14.3846H19.387V16.1289H14.6744V5.81591H14.6752ZM6.70216 5.81591H8.55686L10.1631 9.85569C10.4719 10.6515 10.9821 11.9825 11.2754 12.8704H11.3064C11.2452 11.784 11.1059 9.9937 11.1059 8.0961V5.81591H12.8824V16.1289H11.0285L9.43699 12.2118C9.09716 11.3393 8.61801 10.0389 8.38656 9.10585H8.35482C8.40204 10.1463 8.47867 11.738 8.47867 13.8035V16.1297H6.70216V5.81591ZM20.3066 32.0718H6.63481V30.3782H20.3066V32.0718ZM20.3066 29.2649H6.63481V27.5712H20.3066V29.2649ZM20.3066 26.458H6.63481V24.7643H20.3066V26.458ZM20.3066 23.6511H6.63481V21.9574H20.3066V23.6511ZM36.0205 32.1002H23.4982V21.9574H36.0205V32.1002ZM36.1103 19.609H6.6472V18.0963H36.1103V19.609ZM32.7701 16.2217C31.9357 16.2217 31.1175 16.0078 30.7776 15.8084L31.071 14.0795C31.4882 14.3087 32.1988 14.4774 32.7856 14.4774C33.7439 14.4774 34.2076 13.9875 34.2076 13.3143C34.2076 12.5645 33.7439 12.1972 32.8638 11.6314C31.4418 10.7742 30.9015 9.68778 30.9015 8.7547C30.9015 7.10168 32.0138 5.72467 34.1921 5.72467C34.8717 5.72467 35.5204 5.90791 35.8301 6.09192L35.5057 7.82085C35.2123 7.6376 34.7634 7.46893 34.1774 7.46893C33.3127 7.46893 32.8947 7.98876 32.8947 8.54002C32.8947 9.15262 33.2036 9.4731 34.3314 10.147C35.7062 10.9736 36.2156 12.014 36.2156 13.1004C36.2156 14.9827 34.8098 16.2217 32.7701 16.2217Z" fill="#C6DBFF"/>
</g>
</g>
<defs>
<clipPath id="clip0_2611_25106">
<rect width="47" height="40" fill="white"/>
</clipPath>
<clipPath id="clip1_2611_25106">
<rect width="42.5745" height="35.1053" fill="white" transform="translate(2.21094 2)"/>
</clipPath>
</defs>
</svg>
