<svg width="48" height="47" viewBox="0 0 48 47" fill="none" xmlns="http://www.w3.org/2000/svg">
<g clip-path="url(#clip0_8706_5825)">
<g clip-path="url(#clip1_8706_5825)">
<path d="M38.1065 38.3529C37.112 38.3529 36.2984 37.5393 36.2984 36.5449V23.7077C36.2984 14.8302 29.0843 7.6161 20.2068 7.6161C11.3292 7.6161 4.11512 14.8302 4.11512 23.7077V35.3516C4.11512 36.346 3.3015 37.1596 2.30707 37.1596C1.31265 37.1596 0.499023 36.346 0.499023 35.3516V23.7077C0.499023 12.8414 9.34039 4 20.2068 4C31.0731 4 39.9145 12.8414 39.9145 23.7077V36.5449C39.9145 37.5393 39.1009 38.3529 38.1065 38.3529Z" fill="#9FC0FF"/>
<path d="M26.4462 47.3189C18.7078 47.3189 12.4338 41.0269 12.4338 33.3065V23.7239C12.4338 19.4388 15.9234 15.9493 20.2085 15.9493C24.4935 15.9493 27.9831 19.4388 27.9831 23.7239V32.9449C27.9831 33.9394 27.1694 34.753 26.175 34.753C25.1806 34.753 24.367 33.9394 24.367 32.9449V23.7239C24.367 21.4276 22.5047 19.5654 20.2085 19.5654C17.9122 19.5654 16.0499 21.4276 16.0499 23.7239V33.3065C16.0499 39.0381 20.7147 43.7028 26.4462 43.7028C27.4406 43.7028 28.2543 44.5164 28.2543 45.5109C28.2543 46.5053 27.4587 47.3189 26.4462 47.3189Z" fill="#9FC0FF"/>
<path d="M10.9879 46.8329C8.07694 43.7954 6.46777 39.7996 6.46777 35.5869V23.708C6.46777 16.1322 12.6513 9.9668 20.2632 9.9668C27.8751 9.9668 33.9501 16.0961 33.9501 23.6537V32.7482C33.9501 37.1418 30.3883 40.7036 25.9947 40.7036C21.8 40.7036 18.4009 37.2864 18.4009 33.1098V24.2504C18.4009 23.256 19.2145 22.4423 20.209 22.4423C21.2034 22.4423 22.017 23.256 22.017 24.2504V33.1098C22.017 35.2976 23.807 37.0875 25.9947 37.0875C28.3994 37.0875 30.334 35.1529 30.334 32.7482V23.6537C30.334 18.0849 25.832 13.5829 20.2632 13.5829C14.6944 13.5829 10.0839 18.1211 10.0839 23.708V35.6049C10.0839 38.8775 11.3314 41.9874 13.5915 44.3378C14.2785 45.061 14.2605 46.2001 13.5372 46.8872C12.814 47.5742 11.675 47.5561 10.9879 46.8329Z" fill="white"/>
</g>
<circle cx="38.5" cy="9" r="10.0588" fill="#FECE4D" stroke="#092349" stroke-width="2.11765"/>
<path fill-rule="evenodd" clip-rule="evenodd" d="M37.3596 10.0272L35.1291 7.79673L33.5 9.42582L37.3596 13.2854L38.9886 11.6563L44.0166 6.62831L42.3875 4.99922L37.3596 10.0272Z" fill="#092349"/>
</g>
<defs>
<clipPath id="clip0_8706_5825">
<rect width="47" height="47" fill="white" transform="translate(0.5)"/>
</clipPath>
<clipPath id="clip1_8706_5825">
<rect width="39.4155" height="43.3887" fill="white" transform="translate(0.5 4)"/>
</clipPath>
</defs>
</svg>
