<svg width="513" height="429" viewBox="0 0 513 429" fill="none" xmlns="http://www.w3.org/2000/svg">
<g clip-path="url(#clip0_8502_177425)">
<path d="M248.164 280.828C242.99 274.619 238.064 269.021 227.35 266.737C225.588 264.861 225.839 268.714 225.543 264.786C225.986 264.307 226.009 259.907 223.575 262.444C220.649 258.451 216.435 253.617 209.897 261.126C210.08 259.279 217.203 256.249 213.625 254.558C211.687 253.318 210.023 252.506 210.036 250.655C212.387 241.202 208.204 227.683 193.574 225.579C191.424 225.757 191.982 219.302 188.572 221.823C192.371 217.453 184.161 213.443 183.924 211.107C186.621 208.123 180.413 207.366 179.828 203.926C186.714 204.74 180.132 201.2 172.048 203.062C170.674 199.694 166.14 200.87 164.102 198.185C165.607 197.799 164.145 194.987 161.183 194.257C162.192 193.061 160.322 188.59 159.72 194.495C158.727 193.857 156.549 196.001 156.277 193.997C155.933 194.265 156.361 194.375 155.01 195.744C153.406 192.554 159.914 193.112 157.273 189.478C155.472 188.867 152.124 193.972 148.996 191.448C148.306 191.491 148.675 191.721 147.585 192.975C147.228 192.344 146.782 192.093 146.295 192.141C144.796 192.211 142.962 195.063 142.629 197.686C141.052 197.538 138.83 198.95 138.08 202.464C138.506 200.775 136.278 194.642 132.734 194.126C121.712 200.763 124.32 180.918 130.325 173.389C130.086 173.129 132.16 170.237 128.982 169.61C130.814 165.141 124.199 167.725 119.918 164.64C123.964 159.97 128.234 153.449 133.596 146.236C128.688 142.79 122.954 149.193 118.164 153.804C117.744 151.984 115.1 153.151 111.691 153.122C108.347 143.663 120.152 119.908 133.675 117.026C133.489 116.962 133.313 116.916 133.152 116.85C134.196 116.504 133.792 117.136 135.373 115.439C135.285 115.756 135.261 115.607 135.2 116.273C137.333 114.498 138.664 118.465 141.021 116.945C141.063 117.535 139.921 120.986 142.552 119.213C142.654 119.438 142.587 120.656 143.403 119.775L143.301 119.788C143.648 119.418 143.475 119.896 143.771 118.737C143.841 120.348 145.351 123.133 145.148 118.604C144.856 118.449 146.828 118.62 146.29 117.521C147.833 116.108 148.613 118.402 151.081 116.333C150.985 116.53 150.897 117.086 149.869 117.73C151.114 118.489 152.644 116.977 154.659 119.355C151.457 125.44 162.08 114.508 156.265 128.48C155.56 128.812 153.28 131.77 154.9 132.087C154.819 132.233 153.078 133.326 154.491 133.122C150.675 145.007 161.785 134.533 162.779 125.228L162.76 125.207L163.139 125.345C166.701 113.64 181.982 114.661 188.601 110.557C189.651 110.988 191.356 110.258 191.23 108.348C191.592 108.901 195.486 106.347 193.061 105.955C194.954 104.37 196.236 101.241 200.337 99.6513C198.417 100.801 196.809 101.326 196.377 103.924C195.957 104.171 195.193 103.83 194.874 105.427C194.847 105.523 194.832 105.638 194.82 105.77C196.333 104.229 199.681 104.98 201.556 100.206C202.08 100.619 200.812 102.16 201.602 101.905C201.569 101.936 201.562 101.959 201.552 101.996C203.16 100.939 206.377 100.301 208.435 97.4682C208.35 99.1972 218.033 97.8457 211.089 97.3017C212.639 96.809 214.433 98.1546 216.576 96.6987C217.056 97.6237 215.961 97.7117 218.329 97.4866C217.877 97.7893 217.312 97.8804 216.809 98.0745C216.865 98.1683 219.994 98.7354 221.034 96.1847C220.245 96.2016 220.813 97.0463 219.101 96.9979C220.153 93.4282 224.278 93.4379 229.976 91.574C230.165 91.9242 228.461 91.7591 228.665 92.8262C229.513 92.5077 233.331 92.2395 236.149 91.6245C236.941 91.4499 237.649 91.2535 238.205 91.0175C236.977 92.4735 239.56 91.1715 242.657 90.8191C242.346 91.1185 242.657 91.0567 240.494 91.4299C241.213 92.1712 240.65 92.0488 242.731 91.9714C241.253 92.9424 238.619 91.6796 235.593 93.1044C232.188 95.0726 236.14 97.8105 240.786 93.7164C240.875 93.7791 240.732 93.7025 241.098 94.1541C239.456 94.7418 245.795 95.3186 249.975 93.7103C249.917 94.2738 255.448 93.7531 253.082 91.9898C256.458 90.0379 252.442 89.692 248.685 92.9633C248.517 92.0639 248.698 91.7939 246.756 92.3433C246.579 92.1548 246.697 92.0267 245.936 91.734C244.868 91.5755 245.304 90.5875 243.79 89.6791C244.174 88.8202 244.618 88.1033 245.298 87.5036C245.937 86.9088 246.759 86.4487 247.972 86.0824C247.702 85.9331 245.878 85.7604 244.826 85.7247C245.316 85.3688 244.775 85.2282 243.549 84.6958C257.312 86.7415 248.742 78.5331 231.803 84.5766C239.99 81.4258 249.862 79.2438 259.238 82.3765C260.346 82.7437 261.457 83.1906 262.568 83.7249C266.091 82.1281 268.928 82.5086 273.331 82.1942C275.296 82.3878 277.625 79.5221 276.832 77.6284C276.436 76.6064 275.131 75.887 272.433 76.0658C273.916 75.3734 278.208 77.7084 276.477 74.0654C276.271 76.2862 273.703 71.7681 273.007 73.1641C272.351 72.9937 274.541 71.249 272.98 71.398C273.116 70.8154 273.302 71.0617 272.711 70.211C273.161 70.209 275.683 68.8912 274.504 68.7828C275.689 67.7755 274.531 67.4113 275.664 65.471C277.561 58.6103 274.24 64.0869 266.935 64.2574C266.783 64.2178 267.335 63.4025 266.41 63.4078C265.321 61.1677 268.74 60.5663 270.257 58.7734L270.267 58.7365C268.693 58.8426 269.799 58.7177 267.657 57.6227C268.054 57.7257 269.717 57.0009 268.306 56.9908C269.094 55.6187 260.764 51.4819 259.97 55.1821C258.693 55.2467 257.325 55.5252 255.759 57.6143C251.105 56.8254 251.031 62.4478 245.041 64.0378C235.811 64.1917 235.834 67.3037 228.626 71.2317C229.885 68.0088 226.173 73.867 226.667 68.3536C226.683 68.0011 227.272 67.4964 228.105 66.9363C228.428 66.743 228.75 66.5254 229.102 66.3158C232.208 64.4523 236.579 62.2437 231.708 62.0324C231.657 61.9796 231.614 61.9288 231.544 61.8868C231.642 61.7696 231.726 61.6726 231.81 61.5755C231.539 61.521 231.58 61.4604 230.556 61.3527C230.927 60.3952 231.041 60.4249 229.052 59.1319C230.863 57.7875 228.77 55.0966 225.399 55.5522C226.156 55.2099 228.142 54.4106 229.98 52.8198C229.226 52.5605 229.111 52.5308 228.425 52.5586C231.147 50.1356 238.344 49.5568 244.231 48.2492C245.615 48.8306 250.105 48.9985 246.335 46.284C247.097 46.3391 247.341 47.7021 248.843 47.9178C249.325 48.1856 249.571 47.8851 251.105 47.3327C251.643 48.669 256.111 48.0308 257.805 46.9574C258.876 46.9582 259.134 46.7637 260.926 46.754C258.801 47.3747 255.753 48.1994 252.721 49.147C253.422 49.2104 254.119 49.2329 254.676 49.4963C254.666 49.5333 254.148 49.692 253.484 50.1694C254.083 50.9032 256.889 49.9762 259.047 49.6809C256.856 51.6632 265.287 51.8564 261.023 50.1308C261.155 50.0068 261.399 50.1889 262.206 49.725C262.106 49.4374 262.255 48.3036 261.309 48.0023C261.687 47.2844 261.651 47.7108 262.193 46.8136C261.661 46.818 261.382 47.6804 260.329 47.7635C260.818 47.4707 260.977 47.5754 261.575 46.8908C261.518 46.8602 261.571 46.9056 261.297 46.7155C261.654 46.5468 261.661 46.0493 262.643 46.368C262.568 46.4911 262.391 46.8967 263.098 46.8822C261.769 47.0759 263.674 49.5595 263.54 46.9971C263.902 47.107 263.833 47.6517 264.794 46.8393C265.528 47.6719 269.365 47.6305 271.061 45.5751C271.531 45.7369 274.656 45.1937 273.687 44.4111C273.657 43.8407 274.301 44.0554 275.26 43.8371C275.541 44.4488 276.665 45.0817 277.768 45.0272C277.81 45.0223 277.839 45.0061 277.877 45.016C278.424 44.96 278.943 44.7382 279.361 44.2605C279.666 44.5773 279.405 44.4543 280.028 44.8933C279.807 45.0104 278.668 45.4355 279.744 45.4772C279.713 45.5881 279.739 45.5551 280.054 45.835C280.021 45.866 280.011 45.8399 279.743 46.0713C279.908 46.1538 279.728 46.0673 280.358 46.1519C279.749 46.2552 276.526 46.7095 279.658 46.8812C278.841 47.0888 279.013 48.0923 280.386 47.2923C280.274 47.4612 280.223 47.3527 279.865 47.9967C277.967 47.2027 279.215 50.4349 280.661 47.72C280.67 47.9207 280.428 48.1191 281.115 48.2343C280.015 51.237 277.076 48.1202 274.933 51.1133C272.454 51.3885 269.769 48.829 266.699 50.9475C267.114 52.4896 266.71 51.2038 268.884 52.0302C270.139 51.5717 270.591 53.1311 272.143 51.9812C272.228 52.2648 271.194 53.1057 272.527 52.6596C272.417 53.1461 272.29 52.7801 272.584 53.7281C271.351 54.7866 272.126 56.5964 275.51 58.0143C279.468 61.1738 277.005 56.6277 277.798 55.6214C279.363 56.2893 279.895 62.0218 282.262 56.8601C282.188 58.2514 284.012 57.8931 283.355 55.6545C284.69 57.4511 283.421 53.3181 282.745 52.8652C285.159 52.2325 285.393 52.4517 286.14 55.4585C288.309 54.5879 297.159 55.4526 289.001 50.1638C288.678 49.7631 289.03 50.116 287.812 49.2607C288.614 48.8115 289.401 49.1585 291.008 48.934C291.212 48.7888 289.727 48.6013 290.05 48.083C291.121 49.1772 291.812 46.9717 290.136 47.3287C290.39 47.2363 290.734 47.0878 290.991 46.8377C291.01 46.6208 289.885 46.6693 289.124 45.5763C289.966 45.5176 288.157 43.8117 286.946 44.9708C287.08 44.546 288.497 43.6779 286.454 42.7275C290.853 41.0967 278.981 40.4613 285.706 42.3904C284.977 42.4231 281.851 42.3479 281.817 42.1172C287.808 40.2265 277.796 39.0996 275.656 41.8719C275.204 40.0191 279.018 40.4155 281.119 39.8204C279.071 39.1297 275.591 38.7648 270.769 40.539C270.953 41.2048 271.388 40.1611 272.544 41.4201C269.162 39.6699 268.364 42.7036 274.277 43.3439C274.659 44.0613 273.942 43.875 271.497 42.8438C271.385 43.0127 270.025 42.8179 270.239 44.0542C269.165 44.2112 268.487 43.5596 266.736 44.1586C266.59 43.8591 264.485 44.1125 264.902 44.7599C264.599 44.8236 263.693 44.9054 262.856 44.9493C263.137 44.2855 263.038 44.1409 264.421 43.6047C264.437 43.7516 264.717 43.6577 264.765 44.0744C265.351 43.7275 266.721 43.386 266.547 42.2395C265.736 42.4249 264.944 42.243 262.698 43.2127C262.959 42.9477 264.677 41.5554 264.706 42.4824C265.365 42.2573 265.741 42.6719 265.526 41.3799C265.085 41.2019 265.29 41.4931 264.15 41.2999C264.406 41.0256 264.776 41.3436 265.545 40.9254C266.219 41.536 267.842 40.1274 268.193 39.0062C270.757 38.5708 272.909 39.2724 276.968 38.5756C275.83 38.1374 274.738 36.8237 272.415 37.6306C269.868 37.706 266.554 38.7548 263.068 39.4498C263.102 39.4745 263.163 39.4904 263.201 39.5003C262.537 39.3911 259.635 40.1903 262.102 40.7281C262.136 40.7528 261.775 40.7859 262.025 41.0648C260.976 41.1331 260.941 40.9654 259.304 41.2376C259.367 41.3965 259.539 41.5125 259.662 41.5684C257.863 42.1944 256.48 41.3995 254.15 42.4662C254.154 42.3641 254.17 42.4554 254.103 42.1925C253.919 42.3269 253.716 42.4721 253.497 42.6133C253.699 42.4124 253.834 42.2809 255.247 41.3961C254.915 41.6506 254.534 41.908 254.179 42.1566C254.372 42.0484 255.444 41.7483 256.799 41.4585C256.676 41.3711 256.598 41.446 256.051 41.1214C256.897 41.3413 264.035 40.2083 259.637 40.1829C259.474 39.2056 258.502 39.2306 256.954 40.1596C257.136 40.0326 257.34 39.8874 257.539 39.757C256.747 39.9316 253.632 39.4631 255.941 40.4829C254.161 40.5355 250.477 41.9477 248.822 39.3865C248.761 39.3706 248.144 39.5351 247.912 39.1897C247.924 39.0896 249.659 39.4057 248.981 38.4292C249.038 38.4598 249.133 38.4688 249.207 38.29C248.481 38.5213 245.711 36.8906 244.418 38.5832C243.7 38.2224 242.276 39.5007 241.315 39.2511C241.695 39.2071 243.017 38.2985 242.209 38.0885C245.228 37.5734 240.702 38.1884 237.913 36.8934C238.435 35.9514 240.378 37.8508 241.201 35.7904C239.214 35.615 239.57 33.3539 236.888 33.4736C237.132 33.4182 237.392 33.3667 238.298 33.2218C237.487 32.5198 234.868 33.5669 234.707 33.1131C235.558 32.6369 234.873 33.489 237.535 32.049C236.736 32.1028 236.439 32.525 233.996 32.2865C234.131 32.2423 234.258 32.3149 235.303 32.111C234.236 31.7148 232.593 31.8032 229.981 31.5842C230.019 31.5941 230.166 31.5928 230.265 31.444C229.812 31.3661 230.23 31.4193 229.156 31.4333C229.426 31.1073 228.255 31.5004 228.12 31.3069C227.632 31.0613 226.938 31.8558 225.465 31.3305C225.63 30.7947 225.919 30.87 227.054 30.4912C226.483 30.3983 224.832 28.7729 224.851 28.8809L224.703 28.8822C224.774 28.6866 224.835 28.9958 225.234 28.4416C224.479 28.1266 225.279 28.5723 223.75 28.072C224.343 28.1467 225.909 27.476 224.156 27.6387C224.33 27.5412 225.536 27.2601 224.097 27.3221C226.306 26.8977 223.407 27.3015 222.618 26.8747C220.544 26.7796 218.004 27.2134 213.503 27.0583C212.363 27.1586 209.54 27.6454 206.861 28.7008C206.876 28.7047 206.963 28.6876 207.136 28.6533C206.424 28.8645 205.141 29.3949 204.024 29.0574C205.502 28.7677 204.24 29.0182 205.801 28.6631C205.475 28.6578 205.261 28.4593 203.554 28.8956C203.575 28.8217 203.539 28.8917 203.779 28.7322C202.003 29.0077 199.992 29.3648 197.256 30.3896C197.68 30.3334 197.285 30.3733 198.347 30.3164C198.225 30.4035 197.967 30.3603 197.447 30.6767C197.788 30.6229 197.653 30.6114 199.288 30.4023C199.326 30.4122 199.355 30.396 199.397 30.3911C199.355 30.396 199.311 30.4082 199.267 30.4205C197.33 30.8921 196.1 31.2303 193.21 31.6603C193.265 31.6111 193.495 31.5759 194.059 31.3419C193.732 31.3997 193.318 31.5061 192.982 31.6009L192.992 31.564C190.506 32.2493 189.335 32.5236 184.564 34.3748C184.751 34.3203 184.969 34.2421 185.151 34.2024C184.901 34.28 184.67 34.3783 184.421 34.4485C182.779 35.0363 181.067 35.7324 178.536 36.7865C178.465 36.8077 178.395 36.8529 178.279 36.8863C178.14 36.9453 177.966 37.0427 177.758 37.147C178.233 36.9933 178.105 37.0153 179.373 36.5681C179.469 36.514 179.585 36.4806 179.691 36.4526C179.527 36.5131 179.55 36.519 179.373 36.5681C179.261 36.6183 179.022 36.7146 178.563 36.8965C178.774 36.8721 178.567 36.8817 179.212 36.7642C178.347 37.0545 175.429 38.0318 172.908 39.255L173.226 39.1395C173.226 39.1395 173.242 39.1435 173.104 39.2266C173.715 39.0287 174.29 38.663 176.932 37.9467L176.924 38.0636C176.783 38.13 176.6 38.2013 175.729 38.5138C175.771 38.4217 175.714 38.5098 175.972 38.3154C175.162 38.6438 174.51 38.6963 172.681 39.7507C172.787 39.7227 173.038 39.6452 173.698 39.357C173.694 39.3718 173.713 39.361 173.569 39.4663L173.563 39.4885L173.585 39.4703C173.69 39.4423 174.162 39.3033 174.751 39.0363C174.741 39.0732 174.774 39.0422 174.705 39.1432C175.348 39.033 175.759 38.8782 177.412 38.1904L177.358 38.2396C177.588 38.2359 178.521 37.9634 179.539 37.475C178.82 37.6211 178.785 37.4534 176.86 38.2371C178.338 37.5037 180.432 36.9939 182.653 36.2318L182.669 36.2357C182.755 36.2186 182.984 36.278 183.784 35.9865C183.752 36.0417 183.795 36.0053 183.671 36.0998C183.975 36.1233 184.945 35.7177 186.349 35.4008C186.267 35.4589 186.17 35.4573 185.882 35.6123C186.289 35.5595 186.188 35.3908 188.115 35.0435C186.658 35.4653 184.234 35.9846 181.552 36.9044C182.055 37.3916 183.883 36.3372 185.03 36.6511C185.275 36.5957 185.578 36.5319 185.804 36.4558C185.453 36.6023 185.74 36.4789 184.967 36.8803C185.871 36.8932 187.16 36.0156 190.12 35.5088C189.253 36.0999 189.127 35.6708 186.667 36.7038C187.445 36.5494 186.907 36.6631 188.905 36.2074C188.495 36.418 188.772 36.157 187.638 36.7103C187.756 36.7253 187.676 36.7202 187.986 36.7216C187.472 37.1031 187.611 36.8064 186.112 37.4708C186.003 37.6565 190.045 36.4006 187.535 38.3554L188.359 38.2129C187.163 38.6632 186.348 39.3071 184.861 40.3708L184.783 40.4141C184.753 40.525 179.66 42.2131 180.293 42.3775C179.729 42.6116 179.707 42.4868 177.477 43.6349C177.613 43.7337 177.478 43.7779 177.892 43.6398C176.464 44.2831 175.168 44.8022 172.946 46.1268C173.592 46.0965 173.079 46.1773 174.477 45.645C174.424 45.7499 174.382 45.6044 174.093 46.0601C175.181 45.701 176.258 45.2043 178.863 43.9713C177.97 44.4524 175.5 45.7285 173.607 46.6946L173.925 46.5791C171.185 47.9436 167.902 49.8561 164.271 52.2012C164.016 52.2936 163.874 52.217 162.897 53.0012L163.377 53.126C152.982 59.6569 131.588 69.8998 120.148 84.0832C118.887 85.2137 119.862 83.9932 115.777 89.1045C115.608 89.4174 115.076 89.4217 114.166 90.9998C114.149 91.0589 114.17 90.985 114.063 91.3695C115.831 95.9172 105.77 101.592 105.645 107.78C105.537 107.728 105.41 107.655 105.299 107.611C106.082 107.973 104.721 110.353 102.863 109.949C102.159 109.806 100.168 114.408 101.13 115.775C102.482 117.655 97.9002 121.132 97.3431 124.213C97.3431 124.213 97.3914 124.186 97.5274 124.078L97.5378 124.247L97.6635 124.177C98.7555 124.16 94.8689 131.597 97.3949 129.171C99.1413 123.444 103.767 115.699 106.209 107.926L106.637 108.093C107.616 105.202 108.735 103.757 111.714 100.49C112.045 100.536 110.996 101.46 112.395 101.308C112.366 101.356 111.057 102.807 112.216 102.252C111.78 102.797 109.413 106.065 108.064 108.345C107.57 108.652 107.527 108.72 106.45 110.16C106.718 110.166 106.688 110.277 107.205 110.031C104.139 121.271 100.74 131.648 96.3908 144.987C96.5499 144.648 96.7222 144.32 96.8737 143.979C96.6905 148.131 101.045 162.955 106.5 160.608C107.405 159.789 109.176 160.21 109.683 162.251C110.242 166.263 110.823 170.4 114.342 173.223C115.711 173.238 116.045 176.732 118.531 174.953C117.748 176.366 118.243 181.051 120.104 183.753C119.158 185.401 117.932 188.268 119.563 191.061C119.927 190.482 119.948 189.727 120.606 189.359C122.014 191.183 121.052 195.552 123.737 198.643C123.474 196.459 127.766 198.556 125.683 200.147C124.753 198.368 124.471 203.794 126.223 200.707C126.301 200.664 126.2 200.939 126.795 200.855C126.613 202.639 130.936 204.681 129.334 198.884C130.488 198.645 130.38 199.33 131.89 197.298C133.692 195.096 136.464 205.974 134.148 210.182C133.78 211.457 134.562 216.05 132.551 215.369C131.593 215.937 132.56 217.701 133.388 218.376C132.738 220.283 129.67 220.382 128.893 223.785C127.938 223.513 127.547 224.188 128.216 225.701C125.607 225.705 124.303 227.141 123.834 231.441C122.58 232.193 121.172 236.605 123.583 239.624C116.715 249.599 130.24 271.607 136.829 284.736C139.198 289.472 141.78 291.957 144.221 294.128C148.726 298.143 152.774 301.096 154.148 315.257C154.296 317.411 154.669 319.552 155.173 321.719C157.447 331.414 162.613 341.053 164.031 350.208C165.567 352.517 166.841 353.347 168.525 356.336L168.486 356.326C168.641 357.483 169.537 358.913 171.066 360.388C171.016 360.335 170.88 360.236 170.706 360.215C171.403 360.737 171.441 362.759 173.6 363.581C173.3 362.45 173.298 363.344 171.788 360.321C172.835 360.554 173.239 362.79 174.611 363.86C174.593 364.013 175.325 365.059 175.791 366.123C175.268 365.71 175.862 366.102 174.16 364.662C174.94 365.863 175.988 367.807 177.634 369.867C177.634 369.867 177.509 369.636 177.469 369.428C177.619 369.625 178.132 370.313 178.674 369.741L178.605 369.398C178.956 369.846 179.442 370.154 180.181 371.297C180.12 371.281 180.114 371.184 179.243 370.816C179.29 370.883 179.205 370.806 179.611 371.347C179.596 371.343 179.554 371.316 179.475 371.248C180.261 373.608 184.193 375.826 186.326 378.075C186.327 378.012 186.336 378.038 186.345 377.858C186.345 377.858 186.385 377.948 186.799 378.373C186.794 378.332 186.826 378.364 186.67 378.101C186.828 378.182 186.719 378.13 187.091 378.353L187.114 378.359L187.118 378.344C187.195 378.507 187.442 378.444 187.843 378.913C187.691 378.874 187.783 378.834 187.246 378.679C187.311 378.68 187.444 379.087 187.791 379.161C187.888 379.107 188.491 379.676 188.537 379.45C188.56 379.456 188.608 379.635 188.871 379.719L188.875 379.704C188.99 379.734 188.887 379.81 189.569 380.241C189.558 380.222 189.568 380.185 189.584 380.126C189.684 380.208 189.625 380.216 189.997 380.408L189.979 380.324C189.939 380.234 190.223 380.625 190.781 380.912L191.04 381.099L191.016 381.037L191.325 381.252C191.325 381.252 191.302 381.246 191.316 381.194C191.41 381.298 191.302 381.246 191.69 381.41C191.794 381.477 191.741 381.463 192.048 381.622C192.048 381.622 192.003 381.547 191.952 381.438C192.376 381.707 192.14 381.646 192.995 382.129C192.988 382.064 193.02 382.096 192.917 381.967C193.529 382.443 194.437 382.797 195.398 383.253L195.078 382.932C195.249 382.992 195.665 383.56 196.105 383.595C195.997 383.392 196.094 383.632 195.487 383.078C195.541 383.092 195.745 383.327 195.753 383.004C195.819 383.061 196.002 383.227 196.049 382.907C190.476 379.589 184.44 372.181 184.683 366.246C184.304 365.902 183.747 365.758 183.445 365.283C186.685 365.744 183.966 366.06 181.35 361.625C181.856 361.954 183.056 362.67 183.934 362.835C185.111 363.101 185.71 362.44 183.254 358.672C191.655 362.788 191.434 355.393 186.148 350.359C188.645 351.586 196.618 357.397 196.614 347.301C197.218 346.682 197.281 344.828 199.372 344.832C197.238 352.907 203.444 336.342 206.192 332.579C206.698 332.552 209.126 330.512 211.82 332.06C211.992 330.551 211.794 331.118 215.304 330.16C219.256 331.329 222.129 332.17 224.331 326.807C230.211 323.216 226.072 310.247 235.005 305.872C252.291 297.391 259.524 285.3 248.097 280.834L248.164 280.828ZM270.973 76.1144C271.49 75.8128 271.226 76.3228 271.845 76.3013C271.228 76.4658 269.86 76.7999 269.261 76.3668C269.853 76.3227 270.397 76.1867 270.973 76.1144ZM255.11 45.2351C255.395 45.3252 255.833 45.3676 256.196 45.5332C256.634 45.6629 256.959 45.9689 256.882 46.6305C256.322 46.6436 255.447 46.3212 256.332 45.632C256.282 45.5791 256.257 45.5491 256.196 45.5332C256.006 45.4837 255.644 45.6671 254.82 45.1599L255.11 45.2351ZM145.211 116.663C145.605 116.123 145.854 116.553 146.02 117.372C145.731 117.234 145.793 117.456 145.169 116.668L145.211 116.663ZM122.117 184.688C121.894 185.113 121.585 183.718 120.216 183.759C120.364 183.314 121.185 177.592 122.144 184.679L122.125 184.69L122.117 184.688ZM154.773 196.602C154.373 198.194 157.02 200.656 153.672 202.211C152.031 201.611 152.724 198.661 154.773 196.602ZM270.289 58.8055C270.228 59.0273 270.361 58.8401 270.289 58.8055V58.8055Z" fill="url(#paint0_radial_8502_177425)"/>
<path d="M383.261 68.8479C383.32 68.8778 383.334 68.8814 383.32 68.8778L383.249 68.8374C383.249 68.8374 383.256 68.8392 383.263 68.841L383.261 68.8479Z" fill="url(#paint1_linear_8502_177425)"/>
<path d="M413.374 101.225C405.844 90.7481 396.956 80.6215 386.634 70.8819C386.259 70.5474 385.837 70.1772 385.272 69.7146C385.614 70.0803 385.408 69.8051 386.217 70.5526C386.26 70.6273 386.359 70.7082 386.516 70.8677L386.38 70.7772C386.648 71.0604 386.43 70.8297 387.066 71.4454L386.929 71.3549C387.044 71.4638 386.899 71.5218 387.701 72.2915C387.181 72.1023 386.878 71.5401 385.673 70.5323C385.984 71.0091 385.965 70.9328 386.814 71.8256C386.771 71.775 386.684 71.7128 386.581 71.6468C386.995 72.3327 386.642 71.8053 387.671 73.0622L387.536 73.0274C387.84 73.5265 388.723 74.2134 389.785 75.5263C389.763 75.5205 389.612 75.4818 389.272 75.2518C388.735 74.6296 388.428 74.7733 387.47 73.5506C387.481 73.5693 387.535 73.607 387.633 73.6321C387.253 73.1137 385.897 71.9242 384.427 71.2295C385.247 72.1387 385.94 72.4355 387.634 74.2043C387.623 74.1856 387.578 74.1741 387.54 74.1644C389.07 75.5972 389.08 75.274 390.607 77.0078C389.544 76.1556 390.541 76.9514 388.933 75.8002C389.515 77.125 391.424 78.8775 392.66 80.4095C392.602 80.6727 389.146 77.6341 390.616 79.3691L390.578 79.3595C390.77 79.8295 391.58 80.1962 393.257 81.6825C390.552 80.7507 388.327 77.3844 384.999 74.8152C389.179 77.6029 391.269 77.4398 384.554 72.2786C384.547 72.3008 384.585 72.3105 384.623 72.4632C383.153 71.6255 382.086 70.4147 379.481 69.2702C379.547 69.3824 379.429 69.3124 379.886 69.787C379.35 69.451 378.677 68.7383 377.425 67.9009C377.486 68.1152 377.429 67.9418 377.698 68.3681C377.358 68.138 376.789 68.699 376.507 67.6019L376.642 67.6367C376.072 66.847 375.505 66.7652 373.99 65.797C374.03 65.8865 374.066 65.9594 374.112 66.0267C373.894 65.8517 373.532 65.6159 372.979 65.3391C372.964 65.391 373.31 65.5431 373.919 66.5412C373.521 66.201 373.831 66.336 372.795 65.4748C373.383 66.3191 373.737 66.8441 373.857 67.0496C373.288 66.4587 373.949 67.0097 372.151 65.1506C372.164 65.2492 372.136 65.1468 372.246 65.4767C372.143 65.4107 372.082 65.3952 371.724 65.1445C372.062 65.6123 371.888 65.3691 372.643 66.2219C372.459 66.0715 372.658 66.2258 372.144 65.8956C372.144 65.8956 372.119 65.9287 372.145 66.0386C372.046 65.8147 371.704 65.5047 371.069 65.6674C371.118 65.8388 371.498 65.9523 372.359 66.6576C372.24 66.5635 372.026 66.4053 371.817 66.7172C371.654 66.6356 371.752 66.6608 371.363 66.3782C371.577 66.711 371.52 66.4819 372.202 67.5942C371.221 66.2226 369.959 66.0818 372.135 68.4109C371.5 67.8509 370.291 67.001 372.074 68.9751C372.009 68.9187 371.875 68.8207 371.473 68.4953L371.702 68.9751C371.556 68.9773 371.392 68.0616 370.694 68.0732C370.226 68.0723 368.603 68.2994 369.197 69.1507C369.671 69.8521 371.294 72.6829 372.108 69.9211C372.997 70.7288 373.335 72.4915 374.447 74.3493C374.355 74.2462 374.42 74.3026 374.131 74.0934C374.203 74.4694 375.207 75.3304 375.443 76.4474C375.383 76.4319 375.376 76.3111 375.137 76.1545L375.408 76.6607L374.933 76.5947C375.494 76.8418 376.192 78.2756 375.634 78.5932C375.729 78.9193 375.668 78.7608 375.937 79.4731C375.462 79.3513 375.917 79.5472 375.039 78.7582C374.987 79.0865 375.126 78.8204 375.319 79.6323C375.19 79.5753 375.158 79.4876 374.579 78.9579C374.71 79.7302 375.046 79.3955 375.792 80.9449C375.564 80.807 375.742 80.8924 374.908 80.3211C375.063 80.7184 374.895 80.4529 375.401 81.242C375.314 81.3228 375.242 80.9468 374.851 81.1008C374.866 81.1047 374.808 81.2565 374.898 81.6531C374.802 81.5648 374.84 81.5745 374.557 81.3431C374.541 81.4582 374.631 81.2826 374.358 81.9672C374.223 81.8135 374.353 81.9263 373.913 81.5355C374.159 81.9559 374.426 82.4454 374.734 82.9612C375.816 84.8985 377.183 87.3459 378.766 89.4518C378.783 89.3925 378.762 89.4666 378.868 89.176C378.944 89.2511 378.939 89.2102 379.369 89.638C378.645 89.5955 382.795 96.3307 383.925 91.0844C383.853 90.7641 383.762 90.3675 383.642 90.0746C385.865 92.7256 387.381 94.2103 390.241 98.7404L390.046 98.627C390.011 98.896 389.991 99.2562 390.042 99.5075C388.405 97.8247 390.367 102.704 391.986 103.445C392.753 102.379 391.522 102.564 391.456 100.633C392.355 101.26 394.097 103.089 392.793 99.6967C393.531 99.6873 392.908 99.6625 394.12 100.037C394.113 99.9161 394.211 99.9412 393.964 99.4408C394.014 99.4934 394.144 99.6061 394.356 99.859C394.288 99.667 394.036 98.3157 393.098 96.8201C393.096 97.0579 393.136 97.3463 393.175 97.5547C392.249 96.0146 392.299 95.8925 390.821 93.1784C391.084 93.0472 390.832 93.197 391.212 92.3574C391.352 92.3774 391.31 92.2395 391.532 92.4553C391.24 90.76 389.614 89.525 387.995 87.9501C387.284 87.2835 386.6 86.5521 386.026 85.6899L386.145 85.6967C384.821 83.181 383.499 79.8237 382.409 76.5338C383.21 77.0174 383.406 76.75 384.933 78.4837C384.627 78.2782 384.933 78.4837 384.137 77.8348C384.863 79.1648 385.276 79.3659 386.034 81.8796C385.959 81.8603 385.986 81.907 385.861 81.8352C387.037 84.0113 389.068 86.7718 391.778 89.4444C391.821 89.5192 391.858 89.592 391.902 89.6352C392.181 90.0244 392.576 90.1417 393.054 90.1687C394.283 90.2219 396.02 89.5315 397.594 91.1505C397.371 91.5143 397.318 91.9373 397.155 92.1419C396.986 92.4003 396.653 92.3468 395.66 91.5361C395.661 91.6792 395.638 91.848 395.615 91.9853C395.437 91.8999 395.249 91.9946 395.039 92.5127C395.115 92.8181 395.334 93.1919 395.487 93.4535C395.372 93.3446 395.229 93.2206 395.097 93.1152C395.377 94.2197 394.78 94.3921 396.319 96.0813C396.313 96.0163 396.114 95.4254 396.455 95.2188C396.358 94.9318 396.163 94.588 396.018 94.3283C396.709 94.6882 396.135 94.3425 397.411 95.3844C397.411 95.3844 397.387 95.3229 397.349 95.1702C397.636 96.1651 398.624 96.331 399.17 98.5361C393.848 94.1134 399.57 100.513 399.447 103.635C399.778 106.579 399.936 102.466 395.227 105.491C394.731 104.808 394.902 105.122 393.497 103.388C393.39 103.424 393.654 103.69 393.203 103.916C393.335 104.109 392.214 104.044 392.183 104.79C389.509 103.231 388.385 98.328 385.701 94.1211C385.508 93.7141 385.968 95.9927 385.072 95.183C384.559 96.1477 385.91 100.386 388.25 102.273C388.125 103.297 389.367 103.274 389.065 105.103C388.697 104.889 387.457 103.515 387.62 105.328C386.817 105.138 385.417 104.279 385.567 106.342L385.485 106.202C385.429 106.545 386.247 110.289 383.238 110.82C383.683 111.57 381.949 112.507 382.069 114.937C380.787 115.386 380.287 114.202 378.684 113.028C377.645 112.96 382.183 117.5 378.209 116.544C377.699 115.969 378.107 115.954 375.135 115.692C373.69 116.783 376.617 118.392 379.006 120.219C379.006 120.219 379.07 120.22 379.302 120.113C379.309 120.234 386.786 132.659 380.755 132.352C377.802 132.452 372.824 128.3 369.303 130.138C369.184 132.959 368.451 142.183 369.309 147.891C369.335 149.701 367.157 152.113 372.896 151.21C377.468 156.87 372.806 155.515 383.819 155.369C384.632 154.918 383.899 153.268 386.481 153.192C385.515 151.65 387.89 150.702 387.958 149.218C385.305 146.862 387.699 142.44 392.228 140.146C390.536 135.741 392.273 134.908 397.991 136.994C399.503 128.97 402.707 140.324 403.284 139.272C404.039 140.268 404.592 141.784 406.002 142.781C406.178 143.97 407.531 144.937 409.208 146.28C410.332 148.728 413.979 150.998 414.102 154.771C414.529 157.517 411.386 156.131 409.976 156.23C409.878 156.062 409.965 156.212 409.687 155.735C408.962 157.805 416.181 167.369 414.03 157.365C414.03 157.421 414.303 157.975 414.77 158.27C414.952 158.054 414.731 157.545 415.081 156.928C415.123 156.923 415.044 156.918 415.281 157.082C415.496 156.661 414.955 156.197 415.278 154.985C417.083 153.851 413.242 152.39 414.266 149.253C414.588 149.256 414.289 150.093 415.496 150.283C420.65 154.385 404.501 137.956 403.489 131.47C404.933 130.442 404.481 131.565 406.302 134.208L406.376 133.711C406.298 133.993 407.841 135.58 407.246 134.157C410.577 140.841 416.221 142.733 418.542 152.073C418.486 152.043 418.613 152.107 418.278 151.862C418.522 153.386 420.33 154.922 421.56 157.859C421.549 157.84 421.534 157.749 421.607 157.545C421.699 157.449 422.11 157.857 422.604 158.142C423.003 158.388 423.464 158.561 423.822 158.351C424.267 158.926 423.558 159.205 425.272 159.779C425.213 159.645 425.299 159.826 424.822 158.703C425.04 158.934 424.948 158.974 425.758 159.777C425.298 157.205 422.399 154.92 421.299 150.508C423.988 153.835 421.001 148.311 424.539 149.759C424.576 150.928 425.607 150.072 425.781 152.277C425.435 151.926 425.473 155.629 426.916 156.42C426.979 155.761 426.77 155.644 426.734 154.674C426.836 155.177 427.446 155.738 427.267 157.329C427.245 157.323 427.276 157.212 427.169 157.16C427.174 157.201 427.09 157.156 427.101 157.604C427.101 157.604 426.965 157.513 426.626 157.339C426.683 158.434 426.373 157.377 427.256 159.216C427.277 159.142 427.318 158.994 427.223 158.469C427.506 158.843 427.251 159.032 427.97 159.955C427.97 159.955 427.958 159.912 428.02 159.69C428.334 159.81 428.266 160.198 428.907 160.362C428.831 160.343 428.752 160.338 428.639 160.309L428.736 160.771C428.736 160.771 428.465 160.527 428.176 160.087C428.291 160.339 427.706 160.523 428.657 161.569C428.691 161.593 428.592 161.457 428.763 161.421C428.952 161.47 428.567 162.268 429.486 162.909C429.403 163.349 429.208 163.958 429.387 165.6C429.624 164.986 429.462 165.62 429.73 163.711C429.768 163.72 429.77 163.8 430.195 163.726L430.192 164.083L430.093 164.002C430.121 164.105 429.51 164.409 430.065 165.313C430.882 165.166 430.274 164.049 430.755 167.786C431.07 167.668 430.799 166.097 430.963 164.646C431.079 164.954 430.959 164.661 431.39 165.518L431.59 165.149C431.606 166.392 433.741 170.394 433.213 165.009C434.144 164.946 434.567 168.454 436.034 167.773C436.09 167.804 436.057 167.835 436.235 167.865C436.273 167.295 436.247 166.351 436.301 165.523C436.513 165.919 437.25 167.124 437.142 165.635C437.746 170.23 441.436 180.858 438.579 185.463C438.081 187.527 437.023 181.093 435.787 184.985C435.733 184.948 435.779 184.959 435.642 184.869C435.417 184.866 435.785 185.167 434.857 186.288C431.611 184.836 422.011 168.451 423.649 184.732C423.448 189.375 415.029 176.128 408.543 171.129C406.518 171.03 408.776 163.977 407.636 158.99C406.115 158.822 403.998 157.755 400.937 158.154C400.245 158.953 400.137 155.788 399.475 157.779C399.355 158.551 397.842 157.003 397.705 158.961C395.039 153.162 385.591 162.169 382.124 159.461C379.02 162.263 376.212 152.354 374.719 159.214C374.22 161.803 371.259 162.942 367.82 165.412C364.32 168.271 368.618 175.688 359.719 179.911C355.28 180.528 351.291 185.279 347.618 191.931C346.395 192.951 337.166 202.912 340.381 204.038C343.969 214.164 330.557 225.99 331.997 236.661C331.703 239.008 334.745 237.723 334.604 240.133C334.763 244.066 338.445 246.209 337.597 251.083C336.891 256.231 341.052 261.079 344.054 266.4C345.596 267.558 344.072 272.799 349.224 271.165C358.082 266.542 359.27 276.497 370.107 270.69C370.735 271.566 373.315 269.535 374.906 269.887C385.003 269.379 373.479 281.3 386.158 279.103C386.05 279.576 385.426 282.728 386.998 281.471C385.8 287.335 378.907 292.358 377.156 298.899C372.297 317.113 366.919 328.037 350.678 343.443C339.501 354.039 327.155 372.644 308.709 380.836C308.958 380.9 308.709 380.836 309.461 380.688C309.166 380.731 309.285 381.087 308.468 381.609C308.882 381.659 308.878 381.674 309.002 381.666C309.131 381.636 309.415 381.574 310.377 381.399C310.363 381.451 310.392 381.403 310.219 381.533C310.67 381.594 310.702 381.538 310.992 381.454C311.278 381.384 311.816 381.284 313.328 381.251C313.407 381.604 313.138 381.639 314.2 381.395C314.23 381.521 314.05 381.356 314.077 381.776C314.395 381.739 314.138 381.792 315.501 381.482L315.575 381.739C322.47 380.632 340.711 373.404 346.746 369.399C346.742 369.414 346.789 369.331 346.655 369.376C353.807 366.198 359.161 363.528 367.31 356.357L367.3 356.394C387.172 346.891 400.562 327.673 414.77 309.283L414.77 309.339C416.831 306.77 423.361 296.522 423.178 296.515C430.88 286.584 450.883 242.136 446.656 191.561C443.974 159.476 433.43 129.092 413.344 101.186L413.374 101.225ZM429.165 160.42C429.203 160.43 429.263 160.445 429.32 160.444C429.272 160.472 429.255 160.444 429.165 160.42Z" fill="url(#paint2_radial_8502_177425)"/>
<path d="M384.412 69.9265C384.786 70.278 385.142 70.6331 385.516 70.9846C385.887 71.3193 386.225 71.6218 386.572 71.9263C386.065 71.3809 385.705 71.1529 385.663 71.0702C384.779 70.1882 384.589 70.0517 384.412 69.9265Z" fill="url(#paint3_linear_8502_177425)"/>
<path d="M383.27 68.8538C383.214 68.8233 383.116 68.7662 382.962 68.6467C383.117 68.7905 382.955 68.6691 383.429 69.1024C383.003 68.7613 382.813 68.4805 381.533 67.6086C381.88 67.9134 382.482 68.4679 383.943 69.5942L383.951 69.5643C384.178 69.7744 384.281 69.8409 384.39 69.9169C384.009 69.5631 383.654 69.2002 383.265 68.8444L383.27 68.8538Z" fill="url(#paint4_linear_8502_177425)"/>
<path opacity="0.2" d="M176.232 221.93L176.232 246.478" stroke="#15C1E6" stroke-width="1.14178" stroke-linecap="round" stroke-dasharray="5.71 5.71"/>
</g>
<g filter="url(#filter0_dd_8502_177425)">
<rect x="405.936" y="236.411" width="53.5882" height="48.4355" rx="9.37835" fill="url(#paint5_linear_8502_177425)"/>
<rect x="405.031" y="235.507" width="55.3968" height="50.2441" rx="10.2827" stroke="url(#paint6_linear_8502_177425)" stroke-width="1.8086"/>
</g>
<mask id="mask0_8502_177425" style="mask-type:alpha" maskUnits="userSpaceOnUse" x="411" y="239" width="42" height="42">
<rect x="411.701" y="239.871" width="40.3629" height="40.3629" fill="#F5EFEF"/>
</mask>
<g mask="url(#mask0_8502_177425)">
<path fill-rule="evenodd" clip-rule="evenodd" d="M424.718 245.926C424.216 245.926 423.81 246.378 423.81 246.935V258.539H428.856C431.642 258.539 433.901 260.798 433.901 263.584V268.126H450.146C450.648 268.126 451.055 267.674 451.055 267.117V246.935C451.055 246.378 450.648 245.926 450.146 245.926H424.718ZM431.883 268.126V263.584C431.883 261.912 430.528 260.557 428.856 260.557H423.81V267.117C423.81 267.674 424.216 268.126 424.718 268.126H431.883Z" fill="#98DEF4"/>
<path d="M426.838 250.191C426.838 249.507 427.392 248.952 428.076 248.952C428.76 248.952 429.315 249.507 429.315 250.191C429.315 250.875 428.76 251.429 428.076 251.429C427.392 251.429 426.838 250.875 426.838 250.191Z" fill="#0A3570"/>
<path d="M430.139 250.191C430.139 249.507 430.693 248.952 431.377 248.952C432.061 248.952 432.615 249.507 432.615 250.191C432.615 250.875 432.061 251.429 431.377 251.429C430.693 251.429 430.139 250.875 430.139 250.191Z" fill="#0A3570"/>
<path d="M433.44 250.191C433.44 249.507 433.995 248.952 434.679 248.952C435.363 248.952 435.917 249.507 435.917 250.191C435.917 250.875 435.363 251.429 434.679 251.429C433.995 251.429 433.44 250.875 433.44 250.191Z" fill="#0A3570"/>
<rect x="426.838" y="253.997" width="21.1905" height="11.0998" rx="1.00907" fill="#0A2B5B"/>
<path d="M415.736 263.079C415.736 261.407 417.092 260.052 418.764 260.052H428.854C430.526 260.052 431.881 261.407 431.881 263.079V271.152C431.881 272.824 430.526 274.179 428.854 274.179H418.764C417.092 274.179 415.736 272.824 415.736 271.152V263.079Z" fill="#15C1E6"/>
<path fill-rule="evenodd" clip-rule="evenodd" d="M421.792 255.511C421.792 253.003 419.759 250.97 417.251 250.97C414.743 250.97 412.71 253.003 412.71 255.511V257.025C412.71 257.582 413.162 258.034 413.719 258.034C414.277 258.034 414.728 257.582 414.728 257.025V255.511C414.728 254.118 415.858 252.989 417.251 252.989C418.644 252.989 419.774 254.118 419.774 255.511V261.061C419.774 261.618 420.226 262.07 420.783 262.07C421.34 262.07 421.792 261.618 421.792 261.061V255.511Z" fill="#15C1E6"/>
<path d="M421.792 265.603C421.792 264.488 422.696 263.584 423.81 263.584C424.925 263.584 425.828 264.488 425.828 265.603C425.828 266.717 424.925 267.621 423.81 267.621C422.696 267.621 421.792 266.717 421.792 265.603Z" fill="#0A2A58"/>
<path d="M422.801 265.602C422.801 265.045 423.253 264.593 423.81 264.593C424.367 264.593 424.819 265.045 424.819 265.602V269.639C424.819 270.196 424.367 270.648 423.81 270.648C423.253 270.648 422.801 270.196 422.801 269.639V265.602Z" fill="#0A2A58"/>
</g>
<g filter="url(#filter1_dd_8502_177425)">
<rect x="92.5762" y="266.395" width="68.3501" height="63.7934" rx="12.4775" fill="url(#paint7_linear_8502_177425)"/>
<rect x="91.5766" y="265.395" width="70.3493" height="65.7926" rx="13.4772" stroke="url(#paint8_linear_8502_177425)" stroke-width="1.99924"/>
</g>
<mask id="mask1_8502_177425" style="mask-type:alpha" maskUnits="userSpaceOnUse" x="101" y="275" width="51" height="51">
<rect x="101.484" y="275.621" width="49.5887" height="49.5887" fill="#F5EFEF"/>
</mask>
<g mask="url(#mask1_8502_177425)">
<path fill-rule="evenodd" clip-rule="evenodd" d="M117.477 283.059C116.86 283.059 116.361 283.614 116.361 284.299V298.555H122.559C125.983 298.555 128.758 301.331 128.758 304.754V310.333H148.717C149.334 310.333 149.833 309.778 149.833 309.093V284.299C149.833 283.614 149.334 283.059 148.717 283.059H117.477ZM126.278 310.333V304.754C126.278 302.7 124.613 301.035 122.559 301.035H116.361V309.093C116.361 309.778 116.86 310.333 117.477 310.333H126.278Z" fill="#98DEF4"/>
<path d="M120.081 288.299C120.081 287.459 120.762 286.778 121.602 286.778C122.442 286.778 123.124 287.459 123.124 288.299C123.124 289.139 122.442 289.82 121.602 289.82C120.762 289.82 120.081 289.139 120.081 288.299Z" fill="#0A3570"/>
<path d="M124.138 288.299C124.138 287.459 124.819 286.777 125.66 286.777C126.5 286.777 127.181 287.459 127.181 288.299C127.181 289.139 126.5 289.82 125.66 289.82C124.819 289.82 124.138 289.139 124.138 288.299Z" fill="#0A3570"/>
<path d="M128.195 288.299C128.195 287.459 128.876 286.777 129.716 286.777C130.557 286.777 131.238 287.459 131.238 288.299C131.238 289.139 130.557 289.82 129.716 289.82C128.876 289.82 128.195 289.139 128.195 288.299Z" fill="#0A3570"/>
<rect x="120.08" y="292.976" width="26.0341" height="13.6369" rx="1.23972" fill="#0A2B5B"/>
<path d="M106.443 304.134C106.443 302.08 108.108 300.415 110.162 300.415H122.559C124.613 300.415 126.278 302.08 126.278 304.134V314.052C126.278 316.106 124.613 317.771 122.559 317.771H110.162C108.108 317.771 106.443 316.106 106.443 314.052V304.134Z" fill="#15C1E6"/>
<path fill-rule="evenodd" clip-rule="evenodd" d="M113.881 294.836C113.881 291.755 111.384 289.258 108.303 289.258C105.222 289.258 102.724 291.755 102.724 294.836V296.696C102.724 297.381 103.279 297.936 103.964 297.936C104.648 297.936 105.203 297.381 105.203 296.696V294.836C105.203 293.125 106.591 291.737 108.303 291.737C110.014 291.737 111.402 293.125 111.402 294.836V301.655C111.402 302.34 111.957 302.895 112.642 302.895C113.326 302.895 113.881 302.34 113.881 301.655V294.836Z" fill="#15C1E6"/>
<path d="M113.881 307.234C113.881 305.864 114.991 304.754 116.361 304.754C117.73 304.754 118.84 305.864 118.84 307.234C118.84 308.603 117.73 309.713 116.361 309.713C114.991 309.713 113.881 308.603 113.881 307.234Z" fill="#0A2A58"/>
<path d="M115.122 307.233C115.122 306.549 115.677 305.994 116.361 305.994C117.046 305.994 117.601 306.549 117.601 307.233V312.192C117.601 312.877 117.046 313.432 116.361 313.432C115.677 313.432 115.122 312.877 115.122 312.192V307.233Z" fill="#0A2A58"/>
</g>
<g filter="url(#filter2_dd_8502_177425)">
<rect x="143.44" y="38.8793" width="51.8951" height="47.2822" rx="9.24069" fill="url(#paint9_linear_8502_177425)"/>
<rect x="142.428" y="37.8674" width="53.9191" height="49.3062" rx="10.2526" stroke="url(#paint10_linear_8502_177425)" stroke-width="2.02391"/>
</g>
<mask id="mask2_8502_177425" style="mask-type:alpha" maskUnits="userSpaceOnUse" x="148" y="44" width="39" height="40">
<rect x="148.766" y="44.9752" width="38.0564" height="38.0564" fill="#F5EFEF"/>
</mask>
<g mask="url(#mask2_8502_177425)">
<path fill-rule="evenodd" clip-rule="evenodd" d="M161.039 50.6841C160.566 50.6841 160.183 51.1101 160.183 51.6356V62.5767H164.94C167.567 62.5767 169.697 64.7065 169.697 67.3338V71.6152H185.015C185.488 71.6152 185.871 71.1892 185.871 70.6638V51.6356C185.871 51.1101 185.488 50.6841 185.015 50.6841H161.039ZM167.794 71.6152V67.3338C167.794 65.7574 166.516 64.4795 164.94 64.4795H160.183V70.6638C160.183 71.1892 160.566 71.6152 161.039 71.6152H167.794Z" fill="#98DEF4"/>
<path d="M163.038 54.7055C163.038 54.0607 163.56 53.5379 164.205 53.5379C164.85 53.5379 165.373 54.0607 165.373 54.7055C165.373 55.3504 164.85 55.8732 164.205 55.8732C163.56 55.8732 163.038 55.3504 163.038 54.7055Z" fill="#0A3570"/>
<path d="M166.152 54.7058C166.152 54.0609 166.675 53.5381 167.319 53.5381C167.964 53.5381 168.487 54.0609 168.487 54.7058C168.487 55.3507 167.964 55.8734 167.319 55.8734C166.675 55.8734 166.152 55.3507 166.152 54.7058Z" fill="#0A3570"/>
<path d="M169.264 54.7058C169.264 54.0609 169.787 53.5381 170.432 53.5381C171.077 53.5381 171.599 54.0609 171.599 54.7058C171.599 55.3507 171.077 55.8734 170.432 55.8734C169.787 55.8734 169.264 55.3507 169.264 54.7058Z" fill="#0A3570"/>
<rect x="163.038" y="58.295" width="19.9796" height="10.4655" rx="0.951411" fill="#0A2B5B"/>
<path d="M152.572 66.8579C152.572 65.2815 153.85 64.0037 155.426 64.0037H164.94C166.516 64.0037 167.794 65.2815 167.794 66.8579V74.4692C167.794 76.0455 166.516 77.3234 164.94 77.3234H155.426C153.85 77.3234 152.572 76.0455 152.572 74.4692V66.8579Z" fill="#15C1E6"/>
<path fill-rule="evenodd" clip-rule="evenodd" d="M158.28 59.7225C158.28 57.358 156.363 55.4412 153.998 55.4412C151.634 55.4412 149.717 57.358 149.717 59.7225V61.1496C149.717 61.6751 150.143 62.101 150.668 62.101C151.194 62.101 151.62 61.6751 151.62 61.1496V59.7225C151.62 58.4089 152.685 57.344 153.998 57.344C155.312 57.344 156.377 58.4089 156.377 59.7225V64.9553C156.377 65.4807 156.803 65.9067 157.328 65.9067C157.854 65.9067 158.28 65.4807 158.28 64.9553V59.7225Z" fill="#15C1E6"/>
<path d="M158.281 69.2366C158.281 68.1857 159.133 67.3338 160.184 67.3338C161.234 67.3338 162.086 68.1857 162.086 69.2366C162.086 70.2875 161.234 71.1394 160.184 71.1394C159.133 71.1394 158.281 70.2875 158.281 69.2366Z" fill="#0A2A58"/>
<path d="M159.232 69.2371C159.232 68.7116 159.658 68.2856 160.183 68.2856C160.709 68.2856 161.135 68.7116 161.135 69.2371V73.0427C161.135 73.5681 160.709 73.9941 160.183 73.9941C159.658 73.9941 159.232 73.5681 159.232 73.0427V69.2371Z" fill="#0A2A58"/>
</g>
<g opacity="0.8">
<g filter="url(#filter3_dd_8502_177425)">
<rect x="70.5474" y="166.064" width="35.75" height="31.1371" rx="6.05692" fill="url(#paint11_linear_8502_177425)"/>
<rect x="69.7884" y="165.305" width="37.2679" height="32.655" rx="6.81589" stroke="url(#paint12_linear_8502_177425)" stroke-width="1.51793"/>
</g>
<mask id="mask3_8502_177425" style="mask-type:alpha" maskUnits="userSpaceOnUse" x="74" y="169" width="27" height="26">
<rect x="74.96" y="169.423" width="25.371" height="25.371" fill="#F5EFEF"/>
</mask>
<g mask="url(#mask3_8502_177425)">
<path fill-rule="evenodd" clip-rule="evenodd" d="M83.1421 173.229C82.8269 173.229 82.5713 173.513 82.5713 173.863V181.158H85.7425C87.494 181.158 88.9139 182.578 88.9139 184.329V187.183H99.1258C99.4411 187.183 99.6967 186.899 99.6967 186.549V173.863C99.6967 173.513 99.4411 173.229 99.1258 173.229H83.1421ZM87.6453 187.183V184.329C87.6453 183.278 86.7934 182.426 85.7425 182.426H82.5713V186.549C82.5713 186.899 82.8269 187.183 83.1421 187.183H87.6453Z" fill="#98DEF4"/>
<path d="M84.4736 175.91C84.4736 175.481 84.8221 175.132 85.2521 175.132C85.682 175.132 86.0305 175.481 86.0305 175.91C86.0305 176.34 85.682 176.689 85.2521 176.689C84.8221 176.689 84.4736 176.34 84.4736 175.91Z" fill="#0A3570"/>
<path d="M86.5498 175.91C86.5498 175.48 86.8983 175.132 87.3282 175.132C87.7581 175.132 88.1067 175.48 88.1067 175.91C88.1067 176.34 87.7581 176.689 87.3282 176.689C86.8983 176.689 86.5498 176.34 86.5498 175.91Z" fill="#0A3570"/>
<path d="M88.625 175.91C88.625 175.48 88.9735 175.132 89.4034 175.132C89.8333 175.132 90.1819 175.48 90.1819 175.91C90.1819 176.34 89.8333 176.689 89.4034 176.689C88.9735 176.689 88.625 176.34 88.625 175.91Z" fill="#0A3570"/>
<rect x="84.4736" y="178.304" width="13.3198" height="6.97701" rx="0.634274" fill="#0A2B5B"/>
<path d="M77.4961 184.012C77.4961 182.961 78.348 182.109 79.3989 182.109H85.7417C86.7926 182.109 87.6445 182.961 87.6445 184.012V189.086C87.6445 190.137 86.7926 190.989 85.7417 190.989H79.3989C78.348 190.989 77.4961 190.137 77.4961 189.086V184.012Z" fill="#15C1E6"/>
<path fill-rule="evenodd" clip-rule="evenodd" d="M81.3027 179.255C81.3027 177.678 80.0249 176.4 78.4485 176.4C76.8722 176.4 75.5943 177.678 75.5943 179.255V180.206C75.5943 180.556 75.8782 180.84 76.2285 180.84C76.5788 180.84 76.8628 180.556 76.8628 180.206V179.255C76.8628 178.379 77.5728 177.669 78.4485 177.669C79.3243 177.669 80.0342 178.379 80.0342 179.255V182.743C80.0342 183.093 80.3182 183.377 80.6685 183.377C81.0188 183.377 81.3027 183.093 81.3027 182.743V179.255Z" fill="#15C1E6"/>
<path d="M81.3018 185.597C81.3018 184.897 81.8697 184.329 82.5703 184.329C83.2709 184.329 83.8389 184.897 83.8389 185.597C83.8389 186.298 83.2709 186.866 82.5703 186.866C81.8697 186.866 81.3018 186.298 81.3018 185.597Z" fill="#0A2A58"/>
<path d="M81.9365 185.597C81.9365 185.247 82.2205 184.963 82.5708 184.963C82.9211 184.963 83.2051 185.247 83.2051 185.597V188.134C83.2051 188.484 82.9211 188.768 82.5708 188.768C82.2205 188.768 81.9365 188.484 81.9365 188.134V185.597Z" fill="#0A2A58"/>
</g>
<g filter="url(#filter4_dd_8502_177425)">
<rect x="402.676" y="103.79" width="35.75" height="31.1371" rx="6.05692" fill="url(#paint13_linear_8502_177425)"/>
<rect x="401.917" y="103.031" width="37.2679" height="32.655" rx="6.81589" stroke="url(#paint14_linear_8502_177425)" stroke-width="1.51793"/>
</g>
<mask id="mask4_8502_177425" style="mask-type:alpha" maskUnits="userSpaceOnUse" x="407" y="107" width="27" height="27">
<rect x="407.088" y="107.249" width="26.5242" height="26.5242" fill="#F5EFEF"/>
</mask>
<g mask="url(#mask4_8502_177425)">
<path fill-rule="evenodd" clip-rule="evenodd" d="M415.642 111.228C415.312 111.228 415.045 111.525 415.045 111.891V119.516H418.361C420.192 119.516 421.676 121.001 421.676 122.832V125.817H432.352C432.682 125.817 432.949 125.52 432.949 125.154V111.891C432.949 111.525 432.682 111.228 432.352 111.228H415.642ZM420.35 125.817V122.832C420.35 121.733 419.459 120.843 418.361 120.843H415.045V125.154C415.045 125.52 415.312 125.817 415.642 125.817H420.35Z" fill="#98DEF4"/>
<path d="M417.035 114.03C417.035 113.581 417.4 113.217 417.849 113.217C418.298 113.217 418.663 113.581 418.663 114.03C418.663 114.48 418.298 114.844 417.849 114.844C417.4 114.844 417.035 114.48 417.035 114.03Z" fill="#0A3570"/>
<path d="M419.204 114.03C419.204 113.581 419.568 113.217 420.018 113.217C420.467 113.217 420.832 113.581 420.832 114.03C420.832 114.48 420.467 114.844 420.018 114.844C419.568 114.844 419.204 114.48 419.204 114.03Z" fill="#0A3570"/>
<path d="M421.375 114.03C421.375 113.581 421.739 113.217 422.189 113.217C422.638 113.217 423.003 113.581 423.003 114.03C423.003 114.48 422.638 114.844 422.189 114.844C421.739 114.844 421.375 114.48 421.375 114.03Z" fill="#0A3570"/>
<rect x="417.035" y="116.533" width="13.9252" height="7.29415" rx="0.663105" fill="#0A2B5B"/>
<path d="M409.74 122.5C409.74 121.402 410.631 120.511 411.73 120.511H418.361C419.459 120.511 420.35 121.402 420.35 122.5V127.805C420.35 128.904 419.459 129.794 418.361 129.794H411.73C410.631 129.794 409.74 128.904 409.74 127.805V122.5Z" fill="#15C1E6"/>
<path fill-rule="evenodd" clip-rule="evenodd" d="M413.72 117.527C413.72 115.879 412.384 114.543 410.736 114.543C409.088 114.543 407.752 115.879 407.752 117.527V118.522C407.752 118.888 408.049 119.185 408.415 119.185C408.781 119.185 409.078 118.888 409.078 118.522V117.527C409.078 116.612 409.82 115.87 410.736 115.87C411.651 115.87 412.394 116.612 412.394 117.527V121.175C412.394 121.541 412.69 121.838 413.057 121.838C413.423 121.838 413.72 121.541 413.72 121.175V117.527Z" fill="#15C1E6"/>
<path d="M413.72 124.158C413.72 123.426 414.313 122.832 415.046 122.832C415.778 122.832 416.372 123.426 416.372 124.158C416.372 124.891 415.778 125.485 415.046 125.485C414.313 125.485 413.72 124.891 413.72 124.158Z" fill="#0A2A58"/>
<path d="M414.383 124.158C414.383 123.792 414.68 123.495 415.046 123.495C415.412 123.495 415.709 123.792 415.709 124.158V126.811C415.709 127.177 415.412 127.474 415.046 127.474C414.68 127.474 414.383 127.177 414.383 126.811V124.158Z" fill="#0A2A58"/>
</g>
</g>
<g opacity="0.3">
<g filter="url(#filter5_dd_8502_177425)">
<rect x="352.795" y="56.5081" width="27.6774" height="25.371" rx="4.81448" fill="url(#paint15_linear_8502_177425)"/>
<rect x="352.289" y="56.0021" width="28.6894" height="26.3829" rx="5.32045" stroke="url(#paint16_linear_8502_177425)" stroke-width="1.01196"/>
</g>
<mask id="mask5_8502_177425" style="mask-type:alpha" maskUnits="userSpaceOnUse" x="356" y="58" width="21" height="21">
<rect x="356.347" y="58.8148" width="20.1668" height="20.1668" fill="#F5EFEF"/>
</mask>
<g mask="url(#mask5_8502_177425)">
<path fill-rule="evenodd" clip-rule="evenodd" d="M362.85 61.8404C362.6 61.8404 362.396 62.0661 362.396 62.3446V68.1422H364.918C366.31 68.1422 367.439 69.2708 367.439 70.6631V72.9321H375.555C375.806 72.9321 376.009 72.7064 376.009 72.428V62.3446C376.009 62.0661 375.806 61.8404 375.555 61.8404H362.85ZM366.43 72.9321V70.6631C366.43 69.8277 365.753 69.1505 364.918 69.1505H362.396V72.428C362.396 72.7064 362.6 72.9321 362.85 72.9321H366.43Z" fill="#98DEF4"/>
<path d="M363.91 63.9714C363.91 63.6296 364.187 63.3526 364.529 63.3526C364.871 63.3526 365.148 63.6296 365.148 63.9714C365.148 64.3131 364.871 64.5901 364.529 64.5901C364.187 64.5901 363.91 64.3131 363.91 63.9714Z" fill="#0A3570"/>
<path d="M365.56 63.9712C365.56 63.6295 365.837 63.3525 366.178 63.3525C366.52 63.3525 366.797 63.6295 366.797 63.9712C366.797 64.313 366.52 64.59 366.178 64.59C365.837 64.59 365.56 64.313 365.56 63.9712Z" fill="#0A3570"/>
<path d="M367.209 63.9714C367.209 63.6296 367.486 63.3526 367.828 63.3526C368.169 63.3526 368.446 63.6296 368.446 63.9714C368.446 64.3131 368.169 64.5901 367.828 64.5901C367.486 64.5901 367.209 64.3131 367.209 63.9714Z" fill="#0A3570"/>
<rect x="363.91" y="65.8734" width="10.5876" height="5.54587" rx="0.50417" fill="#0A2B5B"/>
<path d="M358.363 70.4108C358.363 69.5754 359.04 68.8983 359.876 68.8983H364.917C365.753 68.8983 366.43 69.5754 366.43 70.4108V74.4441C366.43 75.2795 365.753 75.9566 364.917 75.9566H359.876C359.04 75.9566 358.363 75.2795 358.363 74.4441V70.4108Z" fill="#15C1E6"/>
<path fill-rule="evenodd" clip-rule="evenodd" d="M361.389 66.6296C361.389 65.3766 360.373 64.3608 359.12 64.3608C357.867 64.3608 356.851 65.3766 356.851 66.6296V67.3859C356.851 67.6643 357.077 67.89 357.355 67.89C357.634 67.89 357.859 67.6643 357.859 67.3859V66.6296C357.859 65.9335 358.424 65.3692 359.12 65.3692C359.816 65.3692 360.38 65.9335 360.38 66.6296V69.4025C360.38 69.681 360.606 69.9067 360.885 69.9067C361.163 69.9067 361.389 69.681 361.389 69.4025V66.6296Z" fill="#15C1E6"/>
<path d="M361.389 71.6714C361.389 71.1145 361.84 70.663 362.397 70.663C362.954 70.663 363.405 71.1145 363.405 71.6714C363.405 72.2283 362.954 72.6797 362.397 72.6797C361.84 72.6797 361.389 72.2283 361.389 71.6714Z" fill="#0A2A58"/>
<path d="M361.893 71.6712C361.893 71.3928 362.118 71.1671 362.397 71.1671C362.675 71.1671 362.901 71.3928 362.901 71.6712V73.6879C362.901 73.9663 362.675 74.1921 362.397 74.1921C362.118 74.1921 361.893 73.9663 361.893 73.6879V71.6712Z" fill="#0A2A58"/>
</g>
</g>
<g opacity="0.3">
<g filter="url(#filter6_dd_8502_177425)">
<rect x="205.128" y="320.596" width="26.5242" height="24.2177" rx="4.73682" fill="url(#paint17_linear_8502_177425)"/>
<rect x="204.622" y="320.091" width="27.5361" height="25.2297" rx="5.2428" stroke="url(#paint18_linear_8502_177425)" stroke-width="1.01196"/>
</g>
<mask id="mask6_8502_177425" style="mask-type:alpha" maskUnits="userSpaceOnUse" x="207" y="322" width="21" height="22">
<rect x="207.581" y="322.903" width="20.1668" height="20.1668" fill="#F5EFEF"/>
</mask>
<g mask="url(#mask6_8502_177425)">
<path fill-rule="evenodd" clip-rule="evenodd" d="M214.084 325.928C213.834 325.928 213.63 326.154 213.63 326.432V332.23H216.152C217.544 332.23 218.673 333.358 218.673 334.751V337.02H226.789C227.04 337.02 227.243 336.794 227.243 336.516V326.432C227.243 326.154 227.04 325.928 226.789 325.928H214.084ZM217.664 337.02V334.751C217.664 333.915 216.987 333.238 216.152 333.238H213.63V336.516C213.63 336.794 213.834 337.02 214.084 337.02H217.664Z" fill="#98DEF4"/>
<path d="M215.144 328.059C215.144 327.717 215.421 327.44 215.763 327.44C216.105 327.44 216.382 327.717 216.382 328.059C216.382 328.401 216.105 328.678 215.763 328.678C215.421 328.678 215.144 328.401 215.144 328.059Z" fill="#0A3570"/>
<path d="M216.793 328.059C216.793 327.717 217.07 327.44 217.412 327.44C217.754 327.44 218.031 327.717 218.031 328.059C218.031 328.401 217.754 328.678 217.412 328.678C217.07 328.678 216.793 328.401 216.793 328.059Z" fill="#0A3570"/>
<path d="M218.443 328.059C218.443 327.717 218.72 327.44 219.062 327.44C219.403 327.44 219.68 327.717 219.68 328.059C219.68 328.401 219.403 328.678 219.062 328.678C218.72 328.678 218.443 328.401 218.443 328.059Z" fill="#0A3570"/>
<rect x="215.144" y="329.961" width="10.5876" height="5.54587" rx="0.50417" fill="#0A2B5B"/>
<path d="M209.597 334.499C209.597 333.663 210.274 332.986 211.11 332.986H216.151C216.987 332.986 217.664 333.663 217.664 334.499V338.532C217.664 339.367 216.987 340.044 216.151 340.044H211.11C210.274 340.044 209.597 339.367 209.597 338.532V334.499Z" fill="#15C1E6"/>
<path fill-rule="evenodd" clip-rule="evenodd" d="M212.623 330.717C212.623 329.464 211.607 328.449 210.354 328.449C209.101 328.449 208.085 329.464 208.085 330.717V331.474C208.085 331.752 208.311 331.978 208.589 331.978C208.868 331.978 209.093 331.752 209.093 331.474V330.717C209.093 330.021 209.658 329.457 210.354 329.457C211.05 329.457 211.614 330.021 211.614 330.717V333.49C211.614 333.769 211.84 333.995 212.118 333.995C212.397 333.995 212.623 333.769 212.623 333.49V330.717Z" fill="#15C1E6"/>
<path d="M212.623 335.759C212.623 335.202 213.074 334.751 213.631 334.751C214.188 334.751 214.639 335.202 214.639 335.759C214.639 336.316 214.188 336.768 213.631 336.768C213.074 336.768 212.623 336.316 212.623 335.759Z" fill="#0A2A58"/>
<path d="M213.126 335.759C213.126 335.48 213.352 335.255 213.631 335.255C213.909 335.255 214.135 335.48 214.135 335.759V337.776C214.135 338.054 213.909 338.28 213.631 338.28C213.352 338.28 213.126 338.054 213.126 337.776V335.759Z" fill="#0A2A58"/>
</g>
</g>
<g opacity="0.3">
<g filter="url(#filter7_dd_8502_177425)">
<rect x="232.547" y="86.1615" width="26.5242" height="24.2177" rx="4.73682" fill="url(#paint19_linear_8502_177425)"/>
<rect x="232.041" y="85.6555" width="27.5361" height="25.2297" rx="5.2428" stroke="url(#paint20_linear_8502_177425)" stroke-width="1.01196"/>
</g>
<mask id="mask7_8502_177425" style="mask-type:alpha" maskUnits="userSpaceOnUse" x="235" y="87" width="21" height="22">
<rect x="235.257" y="87.9745" width="20.1668" height="20.1668" fill="#F5EFEF"/>
</mask>
<g mask="url(#mask7_8502_177425)">
<path fill-rule="evenodd" clip-rule="evenodd" d="M241.761 91.0001C241.51 91.0001 241.307 91.2258 241.307 91.5043V97.3019H243.828C245.22 97.3019 246.349 98.4305 246.349 99.8227V102.092H254.466C254.717 102.092 254.92 101.866 254.92 101.588V91.5043C254.92 91.2258 254.717 91.0001 254.466 91.0001H241.761ZM245.34 102.092V99.8227C245.34 98.9874 244.663 98.3102 243.828 98.3102H241.307V101.588C241.307 101.866 241.51 102.092 241.761 102.092H245.34Z" fill="#98DEF4"/>
<path d="M242.82 93.131C242.82 92.7892 243.097 92.5122 243.439 92.5122C243.78 92.5122 244.057 92.7892 244.057 93.131C244.057 93.4727 243.78 93.7497 243.439 93.7497C243.097 93.7497 242.82 93.4727 242.82 93.131Z" fill="#0A3570"/>
<path d="M244.469 93.1307C244.469 92.789 244.746 92.512 245.088 92.512C245.43 92.512 245.707 92.789 245.707 93.1307C245.707 93.4724 245.43 93.7495 245.088 93.7495C244.746 93.7495 244.469 93.4724 244.469 93.1307Z" fill="#0A3570"/>
<path d="M246.12 93.1307C246.12 92.789 246.397 92.512 246.738 92.512C247.08 92.512 247.357 92.789 247.357 93.1307C247.357 93.4724 247.08 93.7495 246.738 93.7495C246.397 93.7495 246.12 93.4724 246.12 93.1307Z" fill="#0A3570"/>
<rect x="242.821" y="95.0328" width="10.5876" height="5.54587" rx="0.50417" fill="#0A2B5B"/>
<path d="M237.274 99.5704C237.274 98.7351 237.951 98.0579 238.786 98.0579H243.828C244.663 98.0579 245.341 98.7351 245.341 99.5704V103.604C245.341 104.439 244.663 105.116 243.828 105.116H238.786C237.951 105.116 237.274 104.439 237.274 103.604V99.5704Z" fill="#15C1E6"/>
<path fill-rule="evenodd" clip-rule="evenodd" d="M240.299 95.7892C240.299 94.5362 239.284 93.5204 238.031 93.5204C236.778 93.5204 235.762 94.5362 235.762 95.7892V96.5455C235.762 96.8239 235.988 97.0496 236.266 97.0496C236.544 97.0496 236.77 96.8239 236.77 96.5455V95.7892C236.77 95.0931 237.334 94.5288 238.031 94.5288C238.727 94.5288 239.291 95.0931 239.291 95.7892V98.5621C239.291 98.8406 239.517 99.0663 239.795 99.0663C240.074 99.0663 240.299 98.8406 240.299 98.5621V95.7892Z" fill="#15C1E6"/>
<path d="M240.299 100.831C240.299 100.274 240.751 99.8226 241.308 99.8226C241.865 99.8226 242.316 100.274 242.316 100.831C242.316 101.388 241.865 101.839 241.308 101.839C240.751 101.839 240.299 101.388 240.299 100.831Z" fill="#0A2A58"/>
<path d="M240.803 100.831C240.803 100.552 241.029 100.327 241.307 100.327C241.586 100.327 241.812 100.552 241.812 100.831V102.847C241.812 103.126 241.586 103.352 241.307 103.352C241.029 103.352 240.803 103.126 240.803 102.847V100.831Z" fill="#0A2A58"/>
</g>
</g>
<circle cx="266.395" cy="220.266" r="145.306" fill="url(#paint21_radial_8502_177425)"/>
<g filter="url(#filter8_d_8502_177425)">
<path d="M172.952 226.201C175.546 227.27 176.562 228.715 176.562 231.015C176.562 234.438 174.048 236.711 170.144 236.711C166.988 236.711 164.821 235.24 163.618 233.85L165.276 231.336C166.72 232.914 168.459 233.769 170.197 233.769C171.909 233.769 173.085 232.94 173.085 231.336C173.085 229.891 172.123 229.41 170.545 228.768L167.656 227.618C165.65 226.816 164.313 225.398 164.313 223.152C164.313 219.942 166.827 217.722 170.705 217.722C173.326 217.722 175.225 218.819 176.322 219.942L174.663 222.43C173.487 221.36 172.069 220.584 170.491 220.584C168.967 220.584 167.763 221.333 167.763 222.697C167.763 224.034 168.913 224.542 169.876 224.944L172.952 226.201ZM196.914 217.936V228.768C196.914 231.229 196.567 233.021 195.283 234.492C194.026 235.909 192.1 236.711 189.533 236.711C186.965 236.711 185.04 235.909 183.783 234.492C182.499 233.021 182.151 231.229 182.151 228.768V217.936H185.655V228.661C185.655 230.079 185.708 231.336 186.43 232.272C187.099 233.128 188.142 233.663 189.533 233.663C190.95 233.663 191.967 233.128 192.635 232.272C193.357 231.336 193.438 230.079 193.438 228.661V217.936H196.914ZM218.81 234.09C217.767 235.214 215.761 236.711 212.124 236.711C206.722 236.711 202.549 233.047 202.549 227.19C202.549 221.333 206.775 217.669 212.124 217.669C215.735 217.669 217.821 219.193 218.57 219.942L217.339 222.777C216.804 222.082 214.718 220.664 212.097 220.664C208.888 220.664 206.133 222.777 206.133 227.137C206.133 231.122 208.62 233.716 212.311 233.716C214.772 233.716 216.484 232.646 217.58 231.469L218.81 234.09ZM238.654 234.09C237.611 235.214 235.605 236.711 231.968 236.711C226.565 236.711 222.393 233.047 222.393 227.19C222.393 221.333 226.619 217.669 231.968 217.669C235.578 217.669 237.664 219.193 238.413 219.942L237.183 222.777C236.648 222.082 234.562 220.664 231.941 220.664C228.731 220.664 225.977 222.777 225.977 227.137C225.977 231.122 228.464 233.716 232.155 233.716C234.615 233.716 236.327 232.646 237.424 231.469L238.654 234.09ZM244.036 217.936H255.429V220.825H247.513V225.398H254.974V228.26H247.513V233.502H255.643V236.391H244.036V217.936ZM269.897 226.201C272.492 227.27 273.508 228.715 273.508 231.015C273.508 234.438 270.994 236.711 267.089 236.711C263.933 236.711 261.767 235.24 260.563 233.85L262.222 231.336C263.666 232.914 265.404 233.769 267.143 233.769C268.854 233.769 270.031 232.94 270.031 231.336C270.031 229.891 269.068 229.41 267.49 228.768L264.602 227.618C262.596 226.816 261.259 225.398 261.259 223.152C261.259 219.942 263.773 217.722 267.651 217.722C270.272 217.722 272.171 218.819 273.267 219.942L271.609 222.43C270.432 221.36 269.015 220.584 267.437 220.584C265.912 220.584 264.709 221.333 264.709 222.697C264.709 224.034 265.859 224.542 266.822 224.944L269.897 226.201ZM287.234 226.201C289.828 227.27 290.844 228.715 290.844 231.015C290.844 234.438 288.33 236.711 284.425 236.711C281.269 236.711 279.103 235.24 277.9 233.85L279.558 231.336C281.002 232.914 282.74 233.769 284.479 233.769C286.191 233.769 287.367 232.94 287.367 231.336C287.367 229.891 286.404 229.41 284.827 228.768L281.938 227.618C279.932 226.816 278.595 225.398 278.595 223.152C278.595 219.942 281.109 217.722 284.987 217.722C287.608 217.722 289.507 218.819 290.603 219.942L288.945 222.43C287.768 221.36 286.351 220.584 284.773 220.584C283.249 220.584 282.045 221.333 282.045 222.697C282.045 224.034 283.195 224.542 284.158 224.944L287.234 226.201ZM310.08 228.902H308.421V236.391H304.944V217.936H310.882C312.834 217.936 314.385 218.364 315.536 219.247C316.686 220.13 317.515 221.547 317.515 223.312C317.515 226.495 315.776 227.779 313.53 228.474L318.504 236.391H314.439L310.08 228.902ZM310.213 226.174C311.337 226.174 312.192 226.094 312.861 225.585C313.556 225.077 313.931 224.462 313.931 223.419C313.931 222.403 313.556 221.734 312.861 221.253C312.192 220.745 311.337 220.664 310.213 220.664H308.395V226.174H310.213ZM333.968 232.138H326.72L325.115 236.391H321.505L328.753 217.91H332.123L339.371 236.391H335.573L333.968 232.138ZM327.576 229.357H333.112L330.358 221.895L327.576 229.357ZM345.521 220.745H340.439V217.936H354.026V220.745H348.971V236.391H345.521V220.745ZM359.095 217.936H370.488V220.825H362.572V225.398H370.034V228.26H362.572V233.502H370.702V236.391H359.095V217.936Z" fill="#15C1E6"/>
</g>
<g filter="url(#filter9_d_8502_177425)">
<path d="M185.371 173.559C185.371 182.457 182.818 189.46 178.588 193.909C175.014 197.702 169.908 200.036 163.27 200.036C155.101 200.036 149.703 196.754 147.588 195.076L151.819 187.417C152.84 188.438 157.508 191.064 162.833 191.064C166.042 191.064 168.303 190.043 170.273 188.001C172.607 185.594 174.138 181.582 174.138 175.966C172.971 178.081 169.324 181.582 161.52 181.582C153.715 181.582 145.983 176.111 145.983 166.119C145.983 156.199 153.059 148.175 164.802 148.175C172.826 148.175 178.077 152.406 180.995 156.563C183.475 160.064 185.371 165.754 185.371 173.559ZM173.336 165.097C173.336 160.648 170.346 156.782 165.24 156.782C160.134 156.782 157.216 160.648 157.216 165.097C157.216 169.474 160.134 173.413 165.24 173.413C170.346 173.413 173.336 169.474 173.336 165.097ZM228.113 173.559C228.113 182.457 225.56 189.46 221.33 193.909C217.756 197.702 212.65 200.036 206.012 200.036C197.843 200.036 192.445 196.754 190.33 195.076L194.56 187.417C195.581 188.438 200.25 191.064 205.574 191.064C208.784 191.064 211.045 190.043 213.014 188.001C215.348 185.594 216.88 181.582 216.88 175.966C215.713 178.081 212.066 181.582 204.261 181.582C196.457 181.582 188.725 176.111 188.725 166.119C188.725 156.199 195.8 148.175 207.544 148.175C215.567 148.175 220.819 152.406 223.737 156.563C226.217 160.064 228.113 165.754 228.113 173.559ZM216.078 165.097C216.078 160.648 213.087 156.782 207.981 156.782C202.876 156.782 199.958 160.648 199.958 165.097C199.958 169.474 202.876 173.413 207.981 173.413C213.087 173.413 216.078 169.474 216.078 165.097ZM246.089 193.763C246.089 197.702 243.244 200.036 239.233 200.036C235.148 200.036 232.303 197.702 232.303 193.763C232.303 189.824 235.148 187.49 239.233 187.49C243.244 187.49 246.089 189.824 246.089 193.763ZM290.304 173.559C290.304 182.457 287.751 189.46 283.52 193.909C279.946 197.702 274.84 200.036 268.203 200.036C260.033 200.036 254.636 196.754 252.521 195.076L256.751 187.417C257.772 188.438 262.44 191.064 267.765 191.064C270.975 191.064 273.236 190.043 275.205 188.001C277.539 185.594 279.071 181.582 279.071 175.966C277.904 178.081 274.257 181.582 266.452 181.582C258.648 181.582 250.916 176.111 250.916 166.119C250.916 156.199 257.991 148.175 269.735 148.175C277.758 148.175 283.01 152.406 285.928 156.563C288.408 160.064 290.304 165.754 290.304 173.559ZM278.269 165.097C278.269 160.648 275.278 156.782 270.172 156.782C265.066 156.782 262.149 160.648 262.149 165.097C262.149 169.474 265.066 173.413 270.172 173.413C275.278 173.413 278.269 169.474 278.269 165.097ZM333.046 173.559C333.046 182.457 330.493 189.46 326.262 193.909C322.688 197.702 317.582 200.036 310.945 200.036C302.775 200.036 297.378 196.754 295.262 195.076L299.493 187.417C300.514 188.438 305.182 191.064 310.507 191.064C313.716 191.064 315.978 190.043 317.947 188.001C320.281 185.594 321.813 181.582 321.813 175.966C320.646 178.081 316.999 181.582 309.194 181.582C301.389 181.582 293.658 176.111 293.658 166.119C293.658 156.199 300.733 148.175 312.476 148.175C320.5 148.175 325.752 152.406 328.669 156.563C331.149 160.064 333.046 165.754 333.046 173.559ZM321.01 165.097C321.01 160.648 318.02 156.782 312.914 156.782C307.808 156.782 304.89 160.648 304.89 165.097C304.89 169.474 307.808 173.413 312.914 173.413C318.02 173.413 321.01 169.474 321.01 165.097ZM345.955 198.358C356.312 181.509 366.816 164.587 377.173 147.664L381.477 150.29L350.258 200.911L345.955 198.358ZM348.872 173.704C341.651 173.704 336.399 168.599 336.399 161.086C336.399 153.573 341.651 148.467 348.872 148.467C356.093 148.467 361.345 153.573 361.345 161.086C361.345 168.599 356.093 173.704 348.872 173.704ZM348.872 167.942C352.738 167.942 354.999 165.024 354.999 161.013C354.999 156.928 352.738 154.083 348.872 154.083C345.006 154.083 342.818 156.928 342.818 161.013C342.818 165.024 345.006 167.942 348.872 167.942ZM378.559 200.109C371.338 200.109 366.086 195.149 366.086 187.563C366.086 180.05 371.338 175.017 378.559 175.017C385.853 175.017 391.032 180.05 391.032 187.563C391.032 195.149 385.853 200.109 378.559 200.109ZM378.559 194.42C382.425 194.42 384.686 191.575 384.686 187.49C384.686 183.478 382.425 180.561 378.559 180.561C374.766 180.561 372.505 183.478 372.505 187.49C372.505 191.575 374.766 194.42 378.559 194.42Z" fill="#15C1E6"/>
</g>
<g filter="url(#filter10_d_8502_177425)">
<path d="M178.625 252.379H175.06V263.572H173.277V252.379H169.693V250.89H178.625V252.379ZM188.035 263.572H186.271V258.628C186.271 257.378 186.068 256.128 184.469 256.128C182.871 256.128 182.19 257.507 182.19 259.253V263.572H180.444V250.89H182.19V256.22H182.227C182.687 255.356 183.642 254.676 184.911 254.676C187.428 254.676 188.035 256.294 188.035 258.37V263.572ZM198.766 258.848C198.766 259.179 198.71 259.62 198.71 259.62H191.984C192.076 261.348 193.178 262.395 194.796 262.395C196.431 262.395 197.479 261.513 197.681 261.385L198.416 262.395C198.306 262.487 197.185 263.774 194.575 263.774C191.984 263.774 190.201 261.973 190.201 259.198C190.201 256.441 192.204 254.676 194.63 254.676C197.056 254.676 198.766 256.404 198.766 258.848ZM197.093 258.444C197.075 257.47 196.34 255.944 194.575 255.944C192.829 255.944 192.057 257.396 192.002 258.444H197.093ZM212.596 263.572H210.832V258.628C210.832 257.378 210.629 256.128 209.03 256.128C207.431 256.128 206.751 257.507 206.751 259.253V263.572H205.005V250.89H206.751V256.22H206.788C207.248 255.356 208.203 254.676 209.472 254.676C211.989 254.676 212.596 256.294 212.596 258.37V263.572ZM217.445 251.975C217.445 252.6 216.967 253.059 216.306 253.059C215.626 253.059 215.148 252.6 215.148 251.975C215.148 251.35 215.626 250.89 216.306 250.89C216.967 250.89 217.445 251.35 217.445 251.975ZM217.188 263.572H215.424V254.842H217.188V263.572ZM228.515 261.734C228.515 263.664 228.203 264.73 227.56 265.502C226.916 266.292 225.832 267.174 223.663 267.174C221.513 267.174 220.024 266.053 219.767 265.869L220.594 264.638C221.054 265.042 222.414 265.74 223.718 265.74C225.942 265.74 226.769 264.399 226.769 262.34V261.899H226.733C226.144 262.781 225.152 263.461 223.682 263.461C221.439 263.461 219.473 261.844 219.473 259.069C219.473 256.294 221.439 254.676 223.682 254.676C225.207 254.676 226.218 255.411 226.733 256.22H226.788L226.769 254.842H228.515V261.734ZM226.824 259.069C226.824 257.415 225.85 256.092 224.049 256.092C222.267 256.092 221.274 257.415 221.274 259.069C221.274 260.723 222.267 262.028 224.049 262.028C225.85 262.028 226.824 260.723 226.824 259.069ZM239.006 263.572H237.241V258.628C237.241 257.378 237.039 256.128 235.44 256.128C233.841 256.128 233.161 257.507 233.161 259.253V263.572H231.415V250.89H233.161V256.22H233.198C233.657 255.356 234.613 254.676 235.881 254.676C238.399 254.676 239.006 256.294 239.006 258.37V263.572ZM249.736 258.848C249.736 259.179 249.681 259.62 249.681 259.62H242.954C243.046 261.348 244.149 262.395 245.766 262.395C247.402 262.395 248.45 261.513 248.652 261.385L249.387 262.395C249.277 262.487 248.155 263.774 245.546 263.774C242.954 263.774 241.172 261.973 241.172 259.198C241.172 256.441 243.175 254.676 245.601 254.676C248.027 254.676 249.736 256.404 249.736 258.848ZM248.064 258.444C248.045 257.47 247.31 255.944 245.546 255.944C243.8 255.944 243.028 257.396 242.973 258.444H248.064ZM257.736 261.017C257.736 262.892 256.101 263.774 254.41 263.774C252.939 263.774 251.745 263.167 251.01 262.212L251.855 261.182C252.59 261.954 253.619 262.432 254.428 262.432C255.237 262.432 256.101 262.138 256.101 261.182C256.101 260.227 254.722 259.933 254.134 259.731C252.848 259.289 251.561 258.83 251.561 257.176C251.561 255.559 252.958 254.676 254.502 254.676C256.045 254.676 256.928 255.228 257.479 255.816L256.744 256.9C256.229 256.367 255.384 255.963 254.538 255.963C253.693 255.963 253.142 256.33 253.142 257.047C253.142 257.764 253.987 258.076 254.851 258.352C255.329 258.518 255.66 258.628 256.027 258.775C257.001 259.179 257.736 259.878 257.736 261.017ZM264.078 263.48C263.619 263.682 263.086 263.774 262.479 263.774C260.292 263.774 260.182 261.973 260.182 260.264V256.275H258.895V254.86H260.182V252.25H261.946V254.86H264.041V256.275H261.946V260.227C261.946 260.962 261.965 261.458 262.167 261.826C262.332 262.101 262.571 262.267 263.067 262.267C263.582 262.267 263.968 262.065 263.968 262.065L264.078 263.48ZM275.818 261.017C275.818 262.892 274.182 263.774 272.491 263.774C271.021 263.774 269.826 263.167 269.091 262.212L269.937 261.182C270.672 261.954 271.701 262.432 272.51 262.432C273.318 262.432 274.182 262.138 274.182 261.182C274.182 260.227 272.804 259.933 272.216 259.731C270.929 259.289 269.643 258.83 269.643 257.176C269.643 255.559 271.04 254.676 272.583 254.676C274.127 254.676 275.009 255.228 275.561 255.816L274.826 256.9C274.311 256.367 273.466 255.963 272.62 255.963C271.775 255.963 271.223 256.33 271.223 257.047C271.223 257.764 272.069 258.076 272.933 258.352C273.41 258.518 273.741 258.628 274.109 258.775C275.083 259.179 275.818 259.878 275.818 261.017ZM285.339 263.572H283.63L283.612 262.322C283.134 263.167 282.142 263.774 280.91 263.774C278.484 263.774 277.841 262.23 277.841 260.061V254.823H279.587V259.988C279.587 261.182 279.844 262.304 281.406 262.304C282.95 262.304 283.575 260.98 283.575 259.51V254.823H285.339V263.572ZM295.45 262.451C295.193 262.708 294.292 263.774 291.958 263.774C289.606 263.774 287.547 262.01 287.547 259.216C287.547 256.404 289.698 254.676 292.013 254.676C294.348 254.676 295.303 255.816 295.395 255.926L294.77 257.213C294.476 256.919 293.704 256.147 292.16 256.147C290.617 256.147 289.33 257.323 289.33 259.161C289.33 260.999 290.47 262.267 292.16 262.267C293.87 262.267 294.825 261.164 294.825 261.164L295.45 262.451ZM304.541 262.451C304.283 262.708 303.383 263.774 301.049 263.774C298.696 263.774 296.638 262.01 296.638 259.216C296.638 256.404 298.788 254.676 301.104 254.676C303.438 254.676 304.394 255.816 304.486 255.926L303.861 257.213C303.567 256.919 302.795 256.147 301.251 256.147C299.707 256.147 298.42 257.323 298.42 259.161C298.42 260.999 299.56 262.267 301.251 262.267C302.96 262.267 303.916 261.164 303.916 261.164L304.541 262.451ZM314.293 258.848C314.293 259.179 314.238 259.62 314.238 259.62H307.511C307.603 261.348 308.705 262.395 310.323 262.395C311.959 262.395 313.006 261.513 313.208 261.385L313.943 262.395C313.833 262.487 312.712 263.774 310.102 263.774C307.511 263.774 305.728 261.973 305.728 259.198C305.728 256.441 307.731 254.676 310.157 254.676C312.583 254.676 314.293 256.404 314.293 258.848ZM312.62 258.444C312.602 257.47 311.867 255.944 310.102 255.944C308.356 255.944 307.584 257.396 307.529 258.444H312.62ZM322.293 261.017C322.293 262.892 320.657 263.774 318.966 263.774C317.496 263.774 316.301 263.167 315.566 262.212L316.412 261.182C317.147 261.954 318.176 262.432 318.985 262.432C319.793 262.432 320.657 262.138 320.657 261.182C320.657 260.227 319.279 259.933 318.691 259.731C317.404 259.289 316.118 258.83 316.118 257.176C316.118 255.559 317.514 254.676 319.058 254.676C320.602 254.676 321.484 255.228 322.036 255.816L321.3 256.9C320.786 256.367 319.94 255.963 319.095 255.963C318.25 255.963 317.698 256.33 317.698 257.047C317.698 257.764 318.544 258.076 319.407 258.352C319.885 258.518 320.216 258.628 320.584 258.775C321.558 259.179 322.293 259.878 322.293 261.017ZM330.091 261.017C330.091 262.892 328.455 263.774 326.764 263.774C325.294 263.774 324.099 263.167 323.364 262.212L324.21 261.182C324.945 261.954 325.974 262.432 326.783 262.432C327.591 262.432 328.455 262.138 328.455 261.182C328.455 260.227 327.077 259.933 326.489 259.731C325.202 259.289 323.916 258.83 323.916 257.176C323.916 255.559 325.313 254.676 326.856 254.676C328.4 254.676 329.282 255.228 329.834 255.816L329.099 256.9C328.584 256.367 327.739 255.963 326.893 255.963C326.048 255.963 325.496 256.33 325.496 257.047C325.496 257.764 326.342 258.076 327.206 258.352C327.683 258.518 328.014 258.628 328.382 258.775C329.356 259.179 330.091 259.878 330.091 261.017ZM341.087 254.823L340.976 256.459H340.903C340.738 256.386 340.425 256.275 339.947 256.275C338.367 256.275 337.981 257.948 337.981 259.216V263.572H336.216V254.842H337.981L337.962 256.183H338.017C338.44 255.191 339.231 254.676 340.168 254.676C340.756 254.676 341.087 254.823 341.087 254.823ZM349.163 263.572H347.454L347.435 262.469C347.086 262.837 346.259 263.774 344.66 263.774C343.043 263.774 341.646 262.763 341.646 261.072C341.646 259.363 343.043 258.499 345.065 258.407L347.399 258.315V257.966C347.399 256.643 346.498 255.981 345.23 255.981C343.962 255.981 342.896 256.551 342.602 256.735L342.069 255.559C342.712 255.191 343.888 254.676 345.34 254.676C347.895 254.676 349.163 255.963 349.163 258.499V263.572ZM347.417 259.381L345.377 259.51C343.962 259.583 343.392 260.19 343.392 261.017C343.392 261.844 344.035 262.524 345.193 262.524C346.333 262.524 347.086 261.752 347.417 261.256V259.381ZM356.04 263.48C355.581 263.682 355.048 263.774 354.441 263.774C352.254 263.774 352.144 261.973 352.144 260.264V256.275H350.857V254.86H352.144V252.25H353.908V254.86H356.003V256.275H353.908V260.227C353.908 260.962 353.927 261.458 354.129 261.826C354.294 262.101 354.533 262.267 355.029 262.267C355.544 262.267 355.93 262.065 355.93 262.065L356.04 263.48ZM365.846 258.848C365.846 259.179 365.791 259.62 365.791 259.62H359.064C359.156 261.348 360.259 262.395 361.876 262.395C363.512 262.395 364.56 261.513 364.762 261.385L365.497 262.395C365.387 262.487 364.266 263.774 361.656 263.774C359.064 263.774 357.282 261.973 357.282 259.198C357.282 256.441 359.285 254.676 361.711 254.676C364.137 254.676 365.846 256.404 365.846 258.848ZM364.174 258.444C364.155 257.47 363.42 255.944 361.656 255.944C359.91 255.944 359.138 257.396 359.083 258.444H364.174ZM213.649 273.975C213.649 274.6 213.171 275.059 212.51 275.059C211.83 275.059 211.352 274.6 211.352 273.975C211.352 273.35 211.83 272.89 212.51 272.89C213.171 272.89 213.649 273.35 213.649 273.975ZM213.392 285.572H211.628V276.842H213.392V285.572ZM223.856 285.572H222.091V280.701C222.091 279.231 221.834 278.128 220.272 278.128C218.636 278.128 218.029 279.507 218.029 281.179V285.572H216.265V276.842H218.029L218.011 278.22H218.066C218.526 277.356 219.463 276.676 220.731 276.676C223.212 276.676 223.856 278.312 223.856 280.407V285.572ZM234.85 285.48C234.391 285.682 233.858 285.774 233.251 285.774C231.064 285.774 230.954 283.973 230.954 282.264V278.275H229.668V276.86H230.954V274.25H232.718V276.86H234.814V278.275H232.718V282.227C232.718 282.962 232.737 283.458 232.939 283.826C233.104 284.101 233.343 284.267 233.84 284.267C234.354 284.267 234.74 284.065 234.74 284.065L234.85 285.48ZM244.362 285.572H242.598V280.628C242.598 279.378 242.396 278.128 240.797 278.128C239.198 278.128 238.518 279.507 238.518 281.253V285.572H236.772V272.89H238.518V278.22H238.555C239.014 277.356 239.97 276.676 241.238 276.676C243.756 276.676 244.362 278.294 244.362 280.37V285.572ZM255.093 280.848C255.093 281.179 255.038 281.62 255.038 281.62H248.311C248.403 283.348 249.506 284.395 251.123 284.395C252.759 284.395 253.806 283.513 254.009 283.385L254.744 284.395C254.633 284.487 253.512 285.774 250.902 285.774C248.311 285.774 246.528 283.973 246.528 281.198C246.528 278.441 248.532 276.676 250.958 276.676C253.384 276.676 255.093 278.404 255.093 280.848ZM253.42 280.444C253.402 279.47 252.667 277.944 250.902 277.944C249.156 277.944 248.385 279.396 248.329 280.444H253.42ZM263.336 273.975C263.336 274.6 262.858 275.059 262.197 275.059C261.517 275.059 261.039 274.6 261.039 273.975C261.039 273.35 261.517 272.89 262.197 272.89C262.858 272.89 263.336 273.35 263.336 273.975ZM263.079 285.572H261.314V276.842H263.079V285.572ZM273.542 285.572H271.778V280.701C271.778 279.231 271.521 278.128 269.959 278.128C268.323 278.128 267.716 279.507 267.716 281.179V285.572H265.952V276.842H267.716L267.698 278.22H267.753C268.213 277.356 269.15 276.676 270.418 276.676C272.899 276.676 273.542 278.312 273.542 280.407V285.572ZM284.717 285.572H283.026V284.175H282.989C282.273 285.241 281.188 285.774 279.92 285.774C277.329 285.774 275.675 283.789 275.675 281.198C275.675 278.624 277.329 276.676 279.883 276.676C281.299 276.676 282.328 277.301 282.934 278.202H282.971V272.89H284.717V285.572ZM283.026 281.179C283.026 279.433 281.997 278.11 280.251 278.11C278.505 278.11 277.476 279.433 277.476 281.179C277.476 282.925 278.505 284.267 280.251 284.267C281.997 284.267 283.026 282.925 283.026 281.179ZM295.022 285.572H293.313L293.294 284.322C292.816 285.167 291.824 285.774 290.592 285.774C288.166 285.774 287.523 284.23 287.523 282.061V276.823H289.269V281.988C289.269 283.182 289.526 284.304 291.089 284.304C292.632 284.304 293.257 282.98 293.257 281.51V276.823H295.022V285.572ZM303.699 283.017C303.699 284.892 302.063 285.774 300.372 285.774C298.902 285.774 297.708 285.167 296.972 284.212L297.818 283.182C298.553 283.954 299.582 284.432 300.391 284.432C301.199 284.432 302.063 284.138 302.063 283.182C302.063 282.227 300.685 281.933 300.097 281.731C298.81 281.289 297.524 280.83 297.524 279.176C297.524 277.559 298.921 276.676 300.464 276.676C302.008 276.676 302.89 277.228 303.442 277.816L302.707 278.9C302.192 278.367 301.347 277.963 300.501 277.963C299.656 277.963 299.104 278.33 299.104 279.047C299.104 279.764 299.95 280.076 300.814 280.352C301.291 280.518 301.622 280.628 301.99 280.775C302.964 281.179 303.699 281.878 303.699 283.017ZM310.041 285.48C309.581 285.682 309.048 285.774 308.442 285.774C306.255 285.774 306.145 283.973 306.145 282.264V278.275H304.858V276.86H306.145V274.25H307.909V276.86H310.004V278.275H307.909V282.227C307.909 282.962 307.927 283.458 308.129 283.826C308.295 284.101 308.534 284.267 309.03 284.267C309.545 284.267 309.931 284.065 309.931 284.065L310.041 285.48ZM316.741 276.823L316.631 278.459H316.557C316.392 278.386 316.079 278.275 315.601 278.275C314.021 278.275 313.635 279.948 313.635 281.216V285.572H311.87V276.842H313.635L313.616 278.183H313.672C314.094 277.191 314.885 276.676 315.822 276.676C316.41 276.676 316.741 276.823 316.741 276.823ZM326.021 276.842L321.813 287.097C321.206 288.604 320.489 289.119 319.515 289.119C318.541 289.119 317.861 288.806 317.861 288.806L318.21 287.373C318.21 287.373 318.688 287.575 319.129 287.575C319.846 287.575 320.03 287.189 320.269 286.546L320.692 285.388L317.144 276.823L318.982 276.842L321.629 283.624L324.202 276.823L326.021 276.842Z" fill="#15C1E6"/>
</g>
<defs>
<filter id="filter0_dd_8502_177425" x="397.797" y="228.272" width="77.0997" height="71.9473" filterUnits="userSpaceOnUse" color-interpolation-filters="sRGB">
<feFlood flood-opacity="0" result="BackgroundImageFix"/>
<feColorMatrix in="SourceAlpha" type="matrix" values="0 0 0 0 0 0 0 0 0 0 0 0 0 0 0 0 0 0 127 0" result="hardAlpha"/>
<feOffset dx="4.5215" dy="4.5215"/>
<feGaussianBlur stdDeviation="4.5215"/>
<feColorMatrix type="matrix" values="0 0 0 0 0 0 0 0 0 0.296699 0 0 0 0 0.858629 0 0 0 0.08 0"/>
<feBlend mode="normal" in2="BackgroundImageFix" result="effect1_dropShadow_8502_177425"/>
<feColorMatrix in="SourceAlpha" type="matrix" values="0 0 0 0 0 0 0 0 0 0 0 0 0 0 0 0 0 0 127 0" result="hardAlpha"/>
<feOffset/>
<feGaussianBlur stdDeviation="3.16505"/>
<feComposite in2="hardAlpha" operator="out"/>
<feColorMatrix type="matrix" values="0 0 0 0 0.0354167 0 0 0 0 0.105426 0 0 0 0 0.2125 0 0 0 0.07 0"/>
<feBlend mode="normal" in2="effect1_dropShadow_8502_177425" result="effect2_dropShadow_8502_177425"/>
<feBlend mode="normal" in="SourceGraphic" in2="effect2_dropShadow_8502_177425" result="shape"/>
</filter>
<filter id="filter1_dd_8502_177425" x="82.1552" y="255.974" width="98.8172" height="94.2609" filterUnits="userSpaceOnUse" color-interpolation-filters="sRGB">
<feFlood flood-opacity="0" result="BackgroundImageFix"/>
<feColorMatrix in="SourceAlpha" type="matrix" values="0 0 0 0 0 0 0 0 0 0 0 0 0 0 0 0 0 0 127 0" result="hardAlpha"/>
<feOffset dx="6.01569" dy="6.01569"/>
<feGaussianBlur stdDeviation="6.01569"/>
<feColorMatrix type="matrix" values="0 0 0 0 0 0 0 0 0 0.296699 0 0 0 0 0.858629 0 0 0 0.08 0"/>
<feBlend mode="normal" in2="BackgroundImageFix" result="effect1_dropShadow_8502_177425"/>
<feColorMatrix in="SourceAlpha" type="matrix" values="0 0 0 0 0 0 0 0 0 0 0 0 0 0 0 0 0 0 127 0" result="hardAlpha"/>
<feOffset/>
<feGaussianBlur stdDeviation="4.21098"/>
<feComposite in2="hardAlpha" operator="out"/>
<feColorMatrix type="matrix" values="0 0 0 0 0.0354167 0 0 0 0 0.105426 0 0 0 0 0.2125 0 0 0 0.07 0"/>
<feBlend mode="normal" in2="effect1_dropShadow_8502_177425" result="effect2_dropShadow_8502_177425"/>
<feBlend mode="normal" in="SourceGraphic" in2="effect2_dropShadow_8502_177425" result="shape"/>
</filter>
<filter id="filter2_dd_8502_177425" x="135.179" y="30.6182" width="75.5455" height="70.9327" filterUnits="userSpaceOnUse" color-interpolation-filters="sRGB">
<feFlood flood-opacity="0" result="BackgroundImageFix"/>
<feColorMatrix in="SourceAlpha" type="matrix" values="0 0 0 0 0 0 0 0 0 0 0 0 0 0 0 0 0 0 127 0" result="hardAlpha"/>
<feOffset dx="4.45513" dy="4.45513"/>
<feGaussianBlur stdDeviation="4.45513"/>
<feColorMatrix type="matrix" values="0 0 0 0 0 0 0 0 0 0.296699 0 0 0 0 0.858629 0 0 0 0.08 0"/>
<feBlend mode="normal" in2="BackgroundImageFix" result="effect1_dropShadow_8502_177425"/>
<feColorMatrix in="SourceAlpha" type="matrix" values="0 0 0 0 0 0 0 0 0 0 0 0 0 0 0 0 0 0 127 0" result="hardAlpha"/>
<feOffset/>
<feGaussianBlur stdDeviation="3.11859"/>
<feComposite in2="hardAlpha" operator="out"/>
<feColorMatrix type="matrix" values="0 0 0 0 0.0354167 0 0 0 0 0.105426 0 0 0 0 0.2125 0 0 0 0.07 0"/>
<feBlend mode="normal" in2="effect1_dropShadow_8502_177425" result="effect2_dropShadow_8502_177425"/>
<feBlend mode="normal" in="SourceGraphic" in2="effect2_dropShadow_8502_177425" result="shape"/>
</filter>
<filter id="filter3_dd_8502_177425" x="64.9411" y="160.458" width="51.6349" height="47.0217" filterUnits="userSpaceOnUse" color-interpolation-filters="sRGB">
<feFlood flood-opacity="0" result="BackgroundImageFix"/>
<feColorMatrix in="SourceAlpha" type="matrix" values="0 0 0 0 0 0 0 0 0 0 0 0 0 0 0 0 0 0 127 0" result="hardAlpha"/>
<feOffset dx="2.92017" dy="2.92017"/>
<feGaussianBlur stdDeviation="2.92017"/>
<feColorMatrix type="matrix" values="0 0 0 0 0 0 0 0 0 0.296699 0 0 0 0 0.858629 0 0 0 0.08 0"/>
<feBlend mode="normal" in2="BackgroundImageFix" result="effect1_dropShadow_8502_177425"/>
<feColorMatrix in="SourceAlpha" type="matrix" values="0 0 0 0 0 0 0 0 0 0 0 0 0 0 0 0 0 0 127 0" result="hardAlpha"/>
<feOffset/>
<feGaussianBlur stdDeviation="2.04412"/>
<feComposite in2="hardAlpha" operator="out"/>
<feColorMatrix type="matrix" values="0 0 0 0 0.0354167 0 0 0 0 0.105426 0 0 0 0 0.2125 0 0 0 0.07 0"/>
<feBlend mode="normal" in2="effect1_dropShadow_8502_177425" result="effect2_dropShadow_8502_177425"/>
<feBlend mode="normal" in="SourceGraphic" in2="effect2_dropShadow_8502_177425" result="shape"/>
</filter>
<filter id="filter4_dd_8502_177425" x="397.07" y="98.1834" width="51.6339" height="47.0217" filterUnits="userSpaceOnUse" color-interpolation-filters="sRGB">
<feFlood flood-opacity="0" result="BackgroundImageFix"/>
<feColorMatrix in="SourceAlpha" type="matrix" values="0 0 0 0 0 0 0 0 0 0 0 0 0 0 0 0 0 0 127 0" result="hardAlpha"/>
<feOffset dx="2.92017" dy="2.92017"/>
<feGaussianBlur stdDeviation="2.92017"/>
<feColorMatrix type="matrix" values="0 0 0 0 0 0 0 0 0 0.296699 0 0 0 0 0.858629 0 0 0 0.08 0"/>
<feBlend mode="normal" in2="BackgroundImageFix" result="effect1_dropShadow_8502_177425"/>
<feColorMatrix in="SourceAlpha" type="matrix" values="0 0 0 0 0 0 0 0 0 0 0 0 0 0 0 0 0 0 127 0" result="hardAlpha"/>
<feOffset/>
<feGaussianBlur stdDeviation="2.04412"/>
<feComposite in2="hardAlpha" operator="out"/>
<feColorMatrix type="matrix" values="0 0 0 0 0.0354167 0 0 0 0 0.105426 0 0 0 0 0.2125 0 0 0 0.07 0"/>
<feBlend mode="normal" in2="effect1_dropShadow_8502_177425" result="effect2_dropShadow_8502_177425"/>
<feBlend mode="normal" in="SourceGraphic" in2="effect2_dropShadow_8502_177425" result="shape"/>
</filter>
<filter id="filter5_dd_8502_177425" x="348.534" y="52.2465" width="39.9143" height="37.608" filterUnits="userSpaceOnUse" color-interpolation-filters="sRGB">
<feFlood flood-opacity="0" result="BackgroundImageFix"/>
<feColorMatrix in="SourceAlpha" type="matrix" values="0 0 0 0 0 0 0 0 0 0 0 0 0 0 0 0 0 0 127 0" result="hardAlpha"/>
<feOffset dx="2.32116" dy="2.32116"/>
<feGaussianBlur stdDeviation="2.32116"/>
<feColorMatrix type="matrix" values="0 0 0 0 0 0 0 0 0 0.296699 0 0 0 0 0.858629 0 0 0 0.08 0"/>
<feBlend mode="normal" in2="BackgroundImageFix" result="effect1_dropShadow_8502_177425"/>
<feColorMatrix in="SourceAlpha" type="matrix" values="0 0 0 0 0 0 0 0 0 0 0 0 0 0 0 0 0 0 127 0" result="hardAlpha"/>
<feOffset/>
<feGaussianBlur stdDeviation="1.62481"/>
<feComposite in2="hardAlpha" operator="out"/>
<feColorMatrix type="matrix" values="0 0 0 0 0.0354167 0 0 0 0 0.105426 0 0 0 0 0.2125 0 0 0 0.07 0"/>
<feBlend mode="normal" in2="effect1_dropShadow_8502_177425" result="effect2_dropShadow_8502_177425"/>
<feBlend mode="normal" in="SourceGraphic" in2="effect2_dropShadow_8502_177425" result="shape"/>
</filter>
<filter id="filter6_dd_8502_177425" x="200.919" y="316.387" width="38.5962" height="36.29" filterUnits="userSpaceOnUse" color-interpolation-filters="sRGB">
<feFlood flood-opacity="0" result="BackgroundImageFix"/>
<feColorMatrix in="SourceAlpha" type="matrix" values="0 0 0 0 0 0 0 0 0 0 0 0 0 0 0 0 0 0 127 0" result="hardAlpha"/>
<feOffset dx="2.28372" dy="2.28372"/>
<feGaussianBlur stdDeviation="2.28372"/>
<feColorMatrix type="matrix" values="0 0 0 0 0 0 0 0 0 0.296699 0 0 0 0 0.858629 0 0 0 0.08 0"/>
<feBlend mode="normal" in2="BackgroundImageFix" result="effect1_dropShadow_8502_177425"/>
<feColorMatrix in="SourceAlpha" type="matrix" values="0 0 0 0 0 0 0 0 0 0 0 0 0 0 0 0 0 0 127 0" result="hardAlpha"/>
<feOffset/>
<feGaussianBlur stdDeviation="1.59861"/>
<feComposite in2="hardAlpha" operator="out"/>
<feColorMatrix type="matrix" values="0 0 0 0 0.0354167 0 0 0 0 0.105426 0 0 0 0 0.2125 0 0 0 0.07 0"/>
<feBlend mode="normal" in2="effect1_dropShadow_8502_177425" result="effect2_dropShadow_8502_177425"/>
<feBlend mode="normal" in="SourceGraphic" in2="effect2_dropShadow_8502_177425" result="shape"/>
</filter>
<filter id="filter7_dd_8502_177425" x="228.338" y="81.9523" width="38.5962" height="36.29" filterUnits="userSpaceOnUse" color-interpolation-filters="sRGB">
<feFlood flood-opacity="0" result="BackgroundImageFix"/>
<feColorMatrix in="SourceAlpha" type="matrix" values="0 0 0 0 0 0 0 0 0 0 0 0 0 0 0 0 0 0 127 0" result="hardAlpha"/>
<feOffset dx="2.28372" dy="2.28372"/>
<feGaussianBlur stdDeviation="2.28372"/>
<feColorMatrix type="matrix" values="0 0 0 0 0 0 0 0 0 0.296699 0 0 0 0 0.858629 0 0 0 0.08 0"/>
<feBlend mode="normal" in2="BackgroundImageFix" result="effect1_dropShadow_8502_177425"/>
<feColorMatrix in="SourceAlpha" type="matrix" values="0 0 0 0 0 0 0 0 0 0 0 0 0 0 0 0 0 0 127 0" result="hardAlpha"/>
<feOffset/>
<feGaussianBlur stdDeviation="1.59861"/>
<feComposite in2="hardAlpha" operator="out"/>
<feColorMatrix type="matrix" values="0 0 0 0 0.0354167 0 0 0 0 0.105426 0 0 0 0 0.2125 0 0 0 0.07 0"/>
<feBlend mode="normal" in2="effect1_dropShadow_8502_177425" result="effect2_dropShadow_8502_177425"/>
<feBlend mode="normal" in="SourceGraphic" in2="effect2_dropShadow_8502_177425" result="shape"/>
</filter>
<filter id="filter8_d_8502_177425" x="140.451" y="209.611" width="253.417" height="65.3749" filterUnits="userSpaceOnUse" color-interpolation-filters="sRGB">
<feFlood flood-opacity="0" result="BackgroundImageFix"/>
<feColorMatrix in="SourceAlpha" type="matrix" values="0 0 0 0 0 0 0 0 0 0 0 0 0 0 0 0 0 0 127 0" result="hardAlpha"/>
<feOffset dy="15.1084"/>
<feGaussianBlur stdDeviation="11.5831"/>
<feColorMatrix type="matrix" values="0 0 0 0 0 0 0 0 0 0 0 0 0 0 0 0 0 0 0.38 0"/>
<feBlend mode="normal" in2="BackgroundImageFix" result="effect1_dropShadow_8502_177425"/>
<feBlend mode="normal" in="SourceGraphic" in2="effect1_dropShadow_8502_177425" result="shape"/>
</filter>
<filter id="filter9_d_8502_177425" x="122.817" y="139.607" width="291.381" height="99.5794" filterUnits="userSpaceOnUse" color-interpolation-filters="sRGB">
<feFlood flood-opacity="0" result="BackgroundImageFix"/>
<feColorMatrix in="SourceAlpha" type="matrix" values="0 0 0 0 0 0 0 0 0 0 0 0 0 0 0 0 0 0 127 0" result="hardAlpha"/>
<feOffset dy="15.1084"/>
<feGaussianBlur stdDeviation="11.5831"/>
<feColorMatrix type="matrix" values="0 0 0 0 0 0 0 0 0 0 0 0 0 0 0 0 0 0 0.38 0"/>
<feBlend mode="normal" in2="BackgroundImageFix" result="effect1_dropShadow_8502_177425"/>
<feBlend mode="normal" in="SourceGraphic" in2="effect1_dropShadow_8502_177425" result="shape"/>
</filter>
<filter id="filter10_d_8502_177425" x="142.991" y="241.603" width="249.557" height="91.6327" filterUnits="userSpaceOnUse" color-interpolation-filters="sRGB">
<feFlood flood-opacity="0" result="BackgroundImageFix"/>
<feColorMatrix in="SourceAlpha" type="matrix" values="0 0 0 0 0 0 0 0 0 0 0 0 0 0 0 0 0 0 127 0" result="hardAlpha"/>
<feOffset dy="17.4144"/>
<feGaussianBlur stdDeviation="13.351"/>
<feColorMatrix type="matrix" values="0 0 0 0 0 0 0 0 0 0 0 0 0 0 0 0 0 0 0.38 0"/>
<feBlend mode="normal" in2="BackgroundImageFix" result="effect1_dropShadow_8502_177425"/>
<feBlend mode="normal" in="SourceGraphic" in2="effect1_dropShadow_8502_177425" result="shape"/>
</filter>
<radialGradient id="paint0_radial_8502_177425" cx="0" cy="0" r="1" gradientUnits="userSpaceOnUse" gradientTransform="translate(37.3216 100.485) rotate(8.17489) scale(322.902 365.317)">
<stop stop-color="#15C1E6"/>
<stop offset="0.869792" stop-color="#15C1E6" stop-opacity="0"/>
</radialGradient>
<linearGradient id="paint1_linear_8502_177425" x1="383.312" y1="68.8567" x2="383.305" y2="68.876" gradientUnits="userSpaceOnUse">
<stop stop-color="#15C1E6"/>
<stop offset="1" stop-color="#15C1E6" stop-opacity="0"/>
</linearGradient>
<radialGradient id="paint2_radial_8502_177425" cx="0" cy="0" r="1" gradientUnits="userSpaceOnUse" gradientTransform="translate(534.243 148.732) rotate(148.448) scale(250.557 188.107)">
<stop stop-color="#15C1E6"/>
<stop offset="1" stop-color="#15C1E6" stop-opacity="0"/>
</radialGradient>
<linearGradient id="paint3_linear_8502_177425" x1="386.338" y1="70.6259" x2="385.794" y2="71.8242" gradientUnits="userSpaceOnUse">
<stop stop-color="#15C1E6"/>
<stop offset="1" stop-color="#15C1E6" stop-opacity="0"/>
</linearGradient>
<linearGradient id="paint4_linear_8502_177425" x1="384.024" y1="68.4716" x2="383.464" y2="69.7974" gradientUnits="userSpaceOnUse">
<stop stop-color="#15C1E6"/>
<stop offset="1" stop-color="#15C1E6" stop-opacity="0"/>
</linearGradient>
<linearGradient id="paint5_linear_8502_177425" x1="462.693" y1="215.861" x2="407.516" y2="287.724" gradientUnits="userSpaceOnUse">
<stop stop-color="#0A479C"/>
<stop offset="1" stop-color="#091B36"/>
</linearGradient>
<linearGradient id="paint6_linear_8502_177425" x1="411.919" y1="282.211" x2="462.354" y2="240.36" gradientUnits="userSpaceOnUse">
<stop stop-color="#1B4582"/>
<stop offset="1" stop-color="#3160A6"/>
</linearGradient>
<linearGradient id="paint7_linear_8502_177425" x1="164.968" y1="239.329" x2="91.7263" y2="331.706" gradientUnits="userSpaceOnUse">
<stop stop-color="#0A479C"/>
<stop offset="1" stop-color="#091B36"/>
</linearGradient>
<linearGradient id="paint8_linear_8502_177425" x1="100.208" y1="326.717" x2="166.21" y2="273.679" gradientUnits="userSpaceOnUse">
<stop stop-color="#1B4582"/>
<stop offset="1" stop-color="#3160A6"/>
</linearGradient>
<linearGradient id="paint9_linear_8502_177425" x1="198.404" y1="18.8185" x2="144.431" y2="88.5531" gradientUnits="userSpaceOnUse">
<stop stop-color="#0A479C"/>
<stop offset="1" stop-color="#091B36"/>
</linearGradient>
<linearGradient id="paint10_linear_8502_177425" x1="149.234" y1="83.5884" x2="198.395" y2="43.121" gradientUnits="userSpaceOnUse">
<stop stop-color="#1B4582"/>
<stop offset="1" stop-color="#3160A6"/>
</linearGradient>
<linearGradient id="paint11_linear_8502_177425" x1="108.411" y1="152.853" x2="73.3008" y2="200.308" gradientUnits="userSpaceOnUse">
<stop stop-color="#0A479C"/>
<stop offset="1" stop-color="#091B36"/>
</linearGradient>
<linearGradient id="paint12_linear_8502_177425" x1="74.539" y1="195.507" x2="107.162" y2="167.414" gradientUnits="userSpaceOnUse">
<stop stop-color="#1B4582"/>
<stop offset="1" stop-color="#3160A6"/>
</linearGradient>
<linearGradient id="paint13_linear_8502_177425" x1="440.54" y1="90.5788" x2="405.429" y2="138.034" gradientUnits="userSpaceOnUse">
<stop stop-color="#0A479C"/>
<stop offset="1" stop-color="#091B36"/>
</linearGradient>
<linearGradient id="paint14_linear_8502_177425" x1="406.667" y1="133.232" x2="439.291" y2="105.14" gradientUnits="userSpaceOnUse">
<stop stop-color="#1B4582"/>
<stop offset="1" stop-color="#3160A6"/>
</linearGradient>
<linearGradient id="paint15_linear_8502_177425" x1="382.109" y1="45.7438" x2="353.104" y2="82.9917" gradientUnits="userSpaceOnUse">
<stop stop-color="#0A479C"/>
<stop offset="1" stop-color="#091B36"/>
</linearGradient>
<linearGradient id="paint16_linear_8502_177425" x1="355.885" y1="80.4983" x2="382.233" y2="58.9413" gradientUnits="userSpaceOnUse">
<stop stop-color="#1B4582"/>
<stop offset="1" stop-color="#3160A6"/>
</linearGradient>
<linearGradient id="paint17_linear_8502_177425" x1="233.221" y1="310.321" x2="205.561" y2="345.982" gradientUnits="userSpaceOnUse">
<stop stop-color="#0A479C"/>
<stop offset="1" stop-color="#091B36"/>
</linearGradient>
<linearGradient id="paint18_linear_8502_177425" x1="208.089" y1="343.496" x2="233.259" y2="322.821" gradientUnits="userSpaceOnUse">
<stop stop-color="#1B4582"/>
<stop offset="1" stop-color="#3160A6"/>
</linearGradient>
<linearGradient id="paint19_linear_8502_177425" x1="260.64" y1="75.8864" x2="232.98" y2="111.547" gradientUnits="userSpaceOnUse">
<stop stop-color="#0A479C"/>
<stop offset="1" stop-color="#091B36"/>
</linearGradient>
<linearGradient id="paint20_linear_8502_177425" x1="235.508" y1="109.061" x2="260.678" y2="88.3864" gradientUnits="userSpaceOnUse">
<stop stop-color="#1B4582"/>
<stop offset="1" stop-color="#3160A6"/>
</linearGradient>
<radialGradient id="paint21_radial_8502_177425" cx="0" cy="0" r="1" gradientUnits="userSpaceOnUse" gradientTransform="translate(266.395 220.266) rotate(90) scale(115.681)">
<stop offset="0.393777" stop-color="#091B36"/>
<stop offset="1" stop-color="#091B36" stop-opacity="0"/>
</radialGradient>
<clipPath id="clip0_8502_177425">
<rect width="512.032" height="382.871" fill="white"/>
</clipPath>
</defs>
</svg>
