<svg width="48" height="47" viewBox="0 0 48 47" fill="none" xmlns="http://www.w3.org/2000/svg">
<g clip-path="url(#clip0_8706_5993)">
<path d="M21.5 46.6121C33.098 46.6121 42.5 37.21 42.5 25.6121C42.5 14.0141 33.098 4.61206 21.5 4.61206C9.90202 4.61206 0.5 14.0141 0.5 25.6121C0.5 37.21 9.90202 46.6121 21.5 46.6121Z" fill="#3D7FFC"/>
<path d="M42.3928 28.4074C41.0584 38.7017 32.2187 46.6664 21.535 46.6664C9.93249 46.6686 0.5 37.2361 0.5 25.6358C0.5 24.7564 0.563437 23.8749 0.688125 23.0261C0.734062 22.6542 0.815 22.2955 0.878437 21.9302C3.02875 22.803 5.36937 23.9755 6.40406 25.8086C7.36218 27.4755 6.93781 29.4246 7.07781 31.2161C7.185 32.7889 7.82375 34.2655 8.5325 35.6502C9.24343 36.9714 11.6912 41.6549 13.8941 40.7755C15.1016 40.303 15.2787 39.4542 15.6331 38.3539C16.1669 36.593 17.6566 35.1777 18.4375 33.4802C19.0062 32.3799 19.3606 30.5883 18.4375 29.5492C17.7987 28.7639 16.6984 28.6699 15.7403 28.4489C14.64 28.1974 13.6819 27.7883 12.7587 27.2546C8.99625 25.0846 7.46937 20.8714 11.1969 17.9796C12.5466 16.9427 13.7891 15.5908 13.8241 13.8299C13.8569 11.8655 11.735 9.62987 10.0025 8.11612C11.1816 7.31331 12.4131 6.60456 13.7366 6.07956C13.8437 6.03581 13.9597 6.00519 14.0669 5.96362C15.62 6.843 17.8819 6.91081 18.2625 7.753C18.735 8.88175 16.88 10.3342 18.9866 10.8352C21.1237 11.3624 23.2303 8.40487 25.9975 7.90394C27.4281 7.6305 28.3119 6.79925 28.9375 6.0205C29.0009 6.04456 29.2 6.10363 29.2656 6.12988C30.9762 6.79269 32.5469 7.65237 34.0147 8.75487C32.4397 9.61893 33.1904 10.7742 32.0573 11.5223C29.0954 13.5348 29.7581 14.9908 31.1888 16.1546C33.5513 18.0402 34.7344 15.0702 36.1322 17.6492C36.5325 18.4039 36.4319 19.3774 35.8325 20.0074C34.5681 21.2958 32.4047 20.5105 30.8056 20.5105C28.874 20.4799 27.0453 20.9502 25.945 22.5864C24.9453 24.0324 24.814 26.2658 26.1769 27.5542C27.3428 28.6239 28.9725 28.4664 30.1712 29.5974C32.0678 31.4524 28.7406 39.4061 32.735 38.2752C36.7294 37.1114 40.1243 31.1374 41.3887 29.4399C41.7234 29.0111 42.0559 28.6808 42.3884 28.4096L42.3928 28.4074Z" fill="white"/>
<path fill-rule="evenodd" clip-rule="evenodd" d="M11.3894 28.1162C10.6356 27.3627 10.1694 26.3217 10.1694 25.1718C10.1694 22.8725 12.0334 21.0086 14.3326 21.0086C16.6319 21.0086 18.4958 22.8725 18.4958 25.1718C18.4958 26.3216 18.0297 27.3626 17.276 28.1161L14.3327 31.0604L11.3894 28.1162Z" fill="#FECE4D"/>
<path fill-rule="evenodd" clip-rule="evenodd" d="M11.3893 28.1166C10.6356 27.3632 10.1694 26.3221 10.1694 25.1722C10.1694 22.873 12.0334 21.009 14.3326 21.009C16.6319 21.009 18.4958 22.873 18.4958 25.1722C18.4958 26.3221 18.0297 27.3631 17.276 28.1165L14.3329 31.0607L11.3893 28.1166ZM18.4941 29.335L15.5512 32.2789C15.2281 32.6022 14.7898 32.7838 14.3328 32.7838C13.8757 32.7838 13.4374 32.6022 13.1143 32.279L10.1713 29.3351C9.1078 28.2718 8.44653 26.7973 8.44653 25.1722C8.44653 21.9214 11.0818 19.2861 14.3326 19.2861C17.5834 19.2861 20.2187 21.9214 20.2187 25.1722C20.2187 26.7973 19.5575 28.2716 18.4941 29.335Z" fill="#092349"/>
<path fill-rule="evenodd" clip-rule="evenodd" d="M33.2922 18.6814C32.0629 17.4525 31.3025 15.7546 31.3025 13.879C31.3025 10.1288 34.3426 7.08871 38.0928 7.08871C41.843 7.08872 44.8831 10.1288 44.8831 13.879C44.8831 15.7545 44.1228 17.4523 42.8936 18.6812L42.8944 18.6821L38.093 23.4836L33.2915 18.6821L33.2922 18.6814Z" fill="#FECE4D"/>
<path fill-rule="evenodd" clip-rule="evenodd" d="M33.2916 18.6821L33.2923 18.6814C33.2903 18.6793 33.2882 18.6773 33.2862 18.6752C32.0604 17.4468 31.3026 15.7514 31.3026 13.879C31.3026 10.1288 34.3427 7.08871 38.0929 7.08871C41.8431 7.08871 44.8832 10.1288 44.8832 13.879C44.8832 15.7537 44.1235 17.451 42.8951 18.6798C42.8946 18.6803 42.8941 18.6807 42.8936 18.6812L42.8945 18.6821L38.0931 23.4836L33.2916 18.6821ZM44.2218 19.9018C45.7438 18.353 46.6858 16.2243 46.6858 13.879C46.6858 9.1333 42.8386 5.28613 38.0929 5.28613C33.3472 5.28613 29.5 9.1333 29.5 13.879C29.5 16.2275 30.4445 18.3588 31.9701 19.9081C31.9854 19.9245 32.001 19.9408 32.017 19.9567L36.8184 24.7582C37.5224 25.4621 38.6637 25.4621 39.3677 24.7582L44.1691 19.9567C44.1872 19.9387 44.2047 19.9204 44.2218 19.9018Z" fill="#092349"/>
<path fill-rule="evenodd" clip-rule="evenodd" d="M15.0759 6.94287C14.4552 6.34323 14.0713 5.5147 14.0713 4.59952C14.0713 2.76959 15.6063 1.28613 17.4999 1.28613C19.3934 1.28613 20.9284 2.76959 20.9284 4.59952C20.9284 5.51466 20.5445 6.34315 19.9239 6.94278L17.4999 9.28613L15.0759 6.94287Z" fill="#FECE4D"/>
<path fill-rule="evenodd" clip-rule="evenodd" d="M13.4874 8.58583C12.4484 7.5819 11.7856 6.17087 11.7856 4.5991C11.7856 1.43381 14.4183 -1 17.4999 -1C20.5816 -0.999999 23.2142 1.43381 23.2142 4.5991C23.2142 6.1708 22.5515 7.58177 21.5126 8.58569C21.5125 8.58587 21.5123 8.58604 21.5121 8.58622L19.0887 10.929C18.2028 11.7855 16.7974 11.7856 15.9114 10.9291L13.4879 8.58636C13.4877 8.58618 13.4875 8.58601 13.4874 8.58583ZM15.076 6.94245C14.4553 6.34281 14.0714 5.51429 14.0714 4.5991C14.0714 2.76917 15.6064 1.28571 17.4999 1.28571C19.3935 1.28571 20.9285 2.76917 20.9285 4.5991C20.9285 5.51424 20.5446 6.34273 19.9239 6.94237L17.5 9.28571L15.076 6.94245Z" fill="#092349"/>
</g>
<defs>
<clipPath id="clip0_8706_5993">
<rect width="47" height="47" fill="white" transform="translate(0.5)"/>
</clipPath>
</defs>
</svg>
