<svg width="588" height="446" viewBox="0 0 588 446" fill="none" xmlns="http://www.w3.org/2000/svg">
<mask id="mask0_13943_2533" style="mask-type:alpha" maskUnits="userSpaceOnUse" x="64" y="0" width="461" height="446">
<rect x="64" width="460.431" height="446" fill="url(#paint0_radial_13943_2533)"/>
</mask>
<g mask="url(#mask0_13943_2533)">
<g opacity="0.61">
<path d="M91.7734 37.1706L101.994 47.7812L124.989 23.9075" stroke="#15C1E6" stroke-width="10.5459" stroke-linecap="square"/>
<path d="M153.79 37.1706L164.01 47.7812L187.005 23.9075" stroke="#15C1E6" stroke-width="10.5459" stroke-linecap="square"/>
<path d="M215.806 37.1706L226.026 47.7812L249.022 23.9075" stroke="#15C1E6" stroke-width="10.5459" stroke-linecap="square"/>
<path d="M277.822 37.1706L288.042 47.7812L311.038 23.9075" stroke="#15C1E6" stroke-width="10.5459" stroke-linecap="square"/>
<path d="M339.839 37.1706L350.059 47.7812L373.054 23.9075" stroke="#15C1E6" stroke-width="10.5459" stroke-linecap="square"/>
<path d="M401.855 37.1706L412.075 47.7812L435.071 23.9075" stroke="#15C1E6" stroke-width="10.5459" stroke-linecap="square"/>
<path d="M463.872 37.1706L474.092 47.7812L497.087 23.9075" stroke="#15C1E6" stroke-width="10.5459" stroke-linecap="square"/>
<path d="M91.7734 90.595L101.994 101.206L124.989 77.3318" stroke="#15C1E6" stroke-width="10.5459" stroke-linecap="square"/>
<path d="M153.79 90.5949L164.01 101.205L187.005 77.3317" stroke="#15C1E6" stroke-width="10.5459" stroke-linecap="square"/>
<path d="M215.806 90.595L226.026 101.206L249.022 77.3318" stroke="#15C1E6" stroke-width="10.5459" stroke-linecap="square"/>
<path d="M277.822 90.5949L288.042 101.205L311.038 77.3317" stroke="#15C1E6" stroke-width="10.5459" stroke-linecap="square"/>
<path d="M339.839 90.595L350.059 101.206L373.054 77.3318" stroke="#15C1E6" stroke-width="10.5459" stroke-linecap="square"/>
<path d="M401.855 90.5949L412.075 101.205L435.071 77.3317" stroke="#15C1E6" stroke-width="10.5459" stroke-linecap="square"/>
<path d="M463.872 90.5949L474.092 101.205L497.087 77.3317" stroke="#15C1E6" stroke-width="10.5459" stroke-linecap="square"/>
<path d="M91.7734 144.019L101.994 154.63L124.989 130.756" stroke="#15C1E6" stroke-width="10.5459" stroke-linecap="square"/>
<path d="M153.79 144.019L164.01 154.63L187.005 130.756" stroke="#15C1E6" stroke-width="10.5459" stroke-linecap="square"/>
<path d="M215.806 144.019L226.026 154.63L249.022 130.756" stroke="#15C1E6" stroke-width="10.5459" stroke-linecap="square"/>
<path d="M277.822 144.019L288.042 154.63L311.038 130.756" stroke="#15C1E6" stroke-width="10.5459" stroke-linecap="square"/>
<path d="M339.839 144.019L350.059 154.63L373.054 130.756" stroke="#15C1E6" stroke-width="10.5459" stroke-linecap="square"/>
<path d="M401.855 144.019L412.075 154.63L435.071 130.756" stroke="#15C1E6" stroke-width="10.5459" stroke-linecap="square"/>
<path d="M463.872 144.019L474.092 154.63L497.087 130.756" stroke="#15C1E6" stroke-width="10.5459" stroke-linecap="square"/>
<path d="M91.7734 197.443L101.994 208.054L124.989 184.18" stroke="#15C1E6" stroke-width="10.5459" stroke-linecap="square"/>
<path d="M153.79 197.443L164.01 208.054L187.005 184.18" stroke="#15C1E6" stroke-width="10.5459" stroke-linecap="square"/>
<path d="M215.806 197.443L226.026 208.054L249.022 184.18" stroke="#15C1E6" stroke-width="10.5459" stroke-linecap="square"/>
<path d="M277.822 197.443L288.042 208.054L311.038 184.18" stroke="#15C1E6" stroke-width="10.5459" stroke-linecap="square"/>
<path d="M339.839 197.443L350.059 208.054L373.054 184.18" stroke="#15C1E6" stroke-width="10.5459" stroke-linecap="square"/>
<path d="M401.855 197.443L412.075 208.054L435.071 184.18" stroke="#15C1E6" stroke-width="10.5459" stroke-linecap="square"/>
<path d="M463.872 197.443L474.092 208.054L497.087 184.18" stroke="#15C1E6" stroke-width="10.5459" stroke-linecap="square"/>
<path d="M91.7734 250.868L101.994 261.478L124.989 237.605" stroke="#15C1E6" stroke-width="10.5459" stroke-linecap="square"/>
<path d="M153.79 250.868L164.01 261.478L187.005 237.604" stroke="#15C1E6" stroke-width="10.5459" stroke-linecap="square"/>
<path d="M215.806 250.868L226.026 261.478L249.022 237.605" stroke="#15C1E6" stroke-width="10.5459" stroke-linecap="square"/>
<path d="M277.822 250.868L288.042 261.478L311.038 237.604" stroke="#15C1E6" stroke-width="10.5459" stroke-linecap="square"/>
<path d="M339.839 250.868L350.059 261.478L373.054 237.605" stroke="#15C1E6" stroke-width="10.5459" stroke-linecap="square"/>
<path d="M401.855 250.868L412.075 261.478L435.071 237.604" stroke="#15C1E6" stroke-width="10.5459" stroke-linecap="square"/>
<path d="M463.872 250.868L474.092 261.478L497.087 237.604" stroke="#15C1E6" stroke-width="10.5459" stroke-linecap="square"/>
<path d="M91.7734 304.292L101.994 314.903L124.989 291.029" stroke="#15C1E6" stroke-width="10.5459" stroke-linecap="square"/>
<path d="M153.79 304.292L164.01 314.903L187.005 291.029" stroke="#15C1E6" stroke-width="10.5459" stroke-linecap="square"/>
<path d="M215.806 304.292L226.026 314.903L249.022 291.029" stroke="#15C1E6" stroke-width="10.5459" stroke-linecap="square"/>
<path d="M277.822 304.292L288.042 314.903L311.038 291.029" stroke="#15C1E6" stroke-width="10.5459" stroke-linecap="square"/>
<path d="M339.839 304.292L350.059 314.903L373.054 291.029" stroke="#15C1E6" stroke-width="10.5459" stroke-linecap="square"/>
<path d="M401.855 304.292L412.075 314.903L435.071 291.029" stroke="#15C1E6" stroke-width="10.5459" stroke-linecap="square"/>
<path d="M463.872 304.292L474.092 314.903L497.087 291.029" stroke="#15C1E6" stroke-width="10.5459" stroke-linecap="square"/>
<path d="M91.7734 357.716L101.994 368.327L124.989 344.453" stroke="#15C1E6" stroke-width="10.5459" stroke-linecap="square"/>
<path d="M153.79 357.716L164.01 368.327L187.005 344.453" stroke="#15C1E6" stroke-width="10.5459" stroke-linecap="square"/>
<path d="M215.806 357.716L226.026 368.327L249.022 344.453" stroke="#15C1E6" stroke-width="10.5459" stroke-linecap="square"/>
<path d="M277.822 357.716L288.042 368.327L311.038 344.453" stroke="#15C1E6" stroke-width="10.5459" stroke-linecap="square"/>
<path d="M339.839 357.716L350.059 368.327L373.054 344.453" stroke="#15C1E6" stroke-width="10.5459" stroke-linecap="square"/>
<path d="M401.855 357.716L412.075 368.327L435.071 344.453" stroke="#15C1E6" stroke-width="10.5459" stroke-linecap="square"/>
<path d="M463.872 357.716L474.092 368.327L497.087 344.453" stroke="#15C1E6" stroke-width="10.5459" stroke-linecap="square"/>
<path d="M91.7734 411.141L101.994 421.751L124.989 397.877" stroke="#15C1E6" stroke-width="10.5459" stroke-linecap="square"/>
<path d="M153.79 411.141L164.01 421.751L187.005 397.878" stroke="#15C1E6" stroke-width="10.5459" stroke-linecap="square"/>
<path d="M215.806 411.141L226.026 421.751L249.022 397.877" stroke="#15C1E6" stroke-width="10.5459" stroke-linecap="square"/>
<path d="M277.822 411.141L288.042 421.751L311.038 397.878" stroke="#15C1E6" stroke-width="10.5459" stroke-linecap="square"/>
<path d="M339.839 411.141L350.059 421.751L373.054 397.877" stroke="#15C1E6" stroke-width="10.5459" stroke-linecap="square"/>
<path d="M401.855 411.141L412.075 421.751L435.071 397.878" stroke="#15C1E6" stroke-width="10.5459" stroke-linecap="square"/>
<path d="M463.872 411.141L474.092 421.751L497.087 397.878" stroke="#15C1E6" stroke-width="10.5459" stroke-linecap="square"/>
</g>
</g>
<g filter="url(#filter0_d_13943_2533)">
<path d="M454.145 118.905L542.852 136.81L542.999 229.744C543.147 291.012 504.264 322.676 454.441 340.88C404.621 322.973 365.733 291.305 365.586 230.041L365.438 137.107L454.145 118.905Z" fill="#EDF1F6"/>
<path d="M540.681 141.045L540.677 138.641L538.32 138.169L454.886 121.444L454.303 121.327L453.721 121.446L370.284 138.473L367.93 138.953L367.934 141.356L368.081 230.047L368.081 230.051C368.157 255.638 375.169 277.437 389.484 295.493C403.767 313.51 425.144 327.579 453.587 338.067L454.609 338.443L455.629 338.063C483.998 327.5 505.336 313.355 519.58 295.282C533.854 277.17 540.829 255.332 540.829 229.741V229.736L540.681 141.045Z" fill="url(#paint1_linear_13943_2533)" stroke="url(#paint2_linear_13943_2533)" stroke-width="5.8757"/>
<path d="M414.941 243.214V199.211H404.61V243.214H414.941Z" fill="white"/>
<path d="M453.976 229.822C453.976 225.868 452.381 223.189 450.532 221.34C448.555 219.363 445.621 218.215 444.41 217.769C443.007 217.195 439.754 216.047 437.841 215.282C435.864 214.516 433.377 213.496 433.377 210.817C433.377 208.139 435.8 206.864 439.117 206.864C442.433 206.864 446.387 208.777 448.938 211.328L453.338 204.121C450.341 201.124 444.474 198.701 439.372 198.701C434.27 198.701 430.252 200.104 427.765 202.208C425.214 204.313 423.173 207.629 423.173 211.838C423.173 215.983 424.704 218.534 426.617 220.32C428.53 222.169 430.762 222.998 431.846 223.508C433.313 224.146 436.629 225.294 438.543 225.995C440.456 226.697 443.708 227.845 443.708 230.842C443.708 233.776 441.157 235.37 437.841 235.37C434.461 235.37 429.551 233.138 426.362 229.822L421.26 237.347C424.831 240.663 430.507 243.979 436.885 243.979C441.604 243.979 445.685 242.832 448.81 240.344C451.999 237.857 453.976 234.031 453.976 229.822Z" fill="white"/>
<path d="M505.17 221.276C505.17 207.055 494.903 198.509 481.829 198.509C468.756 198.509 458.488 207.055 458.488 221.276C458.488 235.498 468.756 243.979 481.829 243.979C494.903 243.979 505.17 235.498 505.17 221.276ZM494.711 221.021C494.711 229.439 489.163 234.796 481.829 234.796C474.495 234.796 468.947 229.439 468.947 221.021C468.947 212.603 474.495 207.31 481.829 207.31C489.163 207.31 494.711 212.667 494.711 221.021Z" fill="white"/>
<path d="M428.163 279.145L427.453 277.945C426.693 278.773 425.509 279.365 423.971 279.365C421.47 279.365 419.627 277.556 419.627 274.818C419.627 272.08 421.453 270.271 423.971 270.271C425.594 270.271 426.895 271.117 427.352 271.691L428.045 270.373C427.403 269.747 426.084 268.835 423.904 268.835C420.557 268.835 417.937 271.218 417.937 274.852C417.937 278.486 420.489 280.869 423.887 280.869C426.101 280.869 427.436 279.957 428.163 279.145Z" fill="#3D7FFC"/>
<path d="M437.936 276.323C437.936 274.074 436.364 272.486 434.132 272.486C431.901 272.486 430.059 274.108 430.059 276.644C430.059 279.196 431.698 280.852 434.082 280.852C436.482 280.852 437.513 279.669 437.614 279.585L436.938 278.655C436.752 278.773 435.789 279.585 434.285 279.585C432.797 279.585 431.783 278.621 431.698 277.032H437.885C437.885 277.032 437.936 276.627 437.936 276.323ZM436.397 275.951H431.715C431.766 274.987 432.476 273.652 434.082 273.652C435.704 273.652 436.38 275.055 436.397 275.951Z" fill="#3D7FFC"/>
<path d="M445.04 272.621C445.04 272.621 444.735 272.486 444.195 272.486C443.332 272.486 442.606 272.959 442.217 273.872H442.166L442.183 272.638H440.56V280.667H442.183V276.661C442.183 275.494 442.538 273.956 443.992 273.956C444.431 273.956 444.718 274.058 444.871 274.125H444.938L445.04 272.621Z" fill="#3D7FFC"/>
<path d="M451.141 280.582L451.039 279.28C451.039 279.28 450.684 279.466 450.211 279.466C449.755 279.466 449.535 279.314 449.383 279.061C449.197 278.723 449.18 278.266 449.18 277.59V273.956H451.107V272.655H449.18V270.254H447.557V272.655H446.374V273.956H447.557V277.624C447.557 279.196 447.659 280.852 449.67 280.852C450.228 280.852 450.718 280.768 451.141 280.582Z" fill="#3D7FFC"/>
<path d="M455.426 270.001C455.426 269.426 454.987 269.004 454.378 269.004C453.753 269.004 453.314 269.426 453.314 270.001C453.314 270.576 453.753 270.998 454.378 270.998C454.987 270.998 455.426 270.576 455.426 270.001ZM455.19 280.667V272.638H453.567V280.667H455.19Z" fill="#3D7FFC"/>
<path d="M465.236 270.001C465.236 269.426 464.796 269.004 464.171 269.004C463.562 269.004 463.123 269.426 463.123 270.001C463.123 270.576 463.562 270.998 464.171 270.998C464.796 270.998 465.236 270.576 465.236 270.001ZM464.982 280.667V272.638H463.376V280.667H464.982ZM462.497 270.204L462.616 269.004C462.616 269.004 462.024 268.818 461.348 268.818C460.283 268.818 459.742 269.257 459.353 269.697C458.965 270.136 458.813 270.795 458.813 271.843V272.655H457.663V273.956H458.813V280.667H460.418V273.956H462.328V272.655H460.418V272.164C460.418 271.218 460.384 270.052 461.652 270.052C461.956 270.052 462.244 270.102 462.497 270.204Z" fill="#3D7FFC"/>
<path d="M475.64 276.323C475.64 274.074 474.068 272.486 471.837 272.486C469.605 272.486 467.763 274.108 467.763 276.644C467.763 279.196 469.403 280.852 471.786 280.852C474.186 280.852 475.217 279.669 475.319 279.585L474.642 278.655C474.456 278.773 473.493 279.585 471.989 279.585C470.501 279.585 469.487 278.621 469.403 277.032H475.589C475.589 277.032 475.64 276.627 475.64 276.323ZM474.102 275.951H469.419C469.47 274.987 470.18 273.652 471.786 273.652C473.409 273.652 474.085 275.055 474.102 275.951Z" fill="#3D7FFC"/>
<path d="M486.122 280.667V269.004H484.517V273.889H484.483C483.925 273.06 482.978 272.486 481.677 272.486C479.327 272.486 477.806 274.277 477.806 276.644C477.806 279.027 479.327 280.852 481.711 280.852C482.877 280.852 483.874 280.362 484.534 279.382H484.567V280.667H486.122ZM484.567 276.627C484.567 278.233 483.621 279.466 482.015 279.466C480.409 279.466 479.463 278.233 479.463 276.627C479.463 275.021 480.409 273.804 482.015 273.804C483.621 273.804 484.567 275.021 484.567 276.627Z" fill="#3D7FFC"/>
<path d="M416.418 188.579V187.368H411.091L413.77 184.811C414.421 184.205 415.98 182.904 415.98 181.058C415.98 179.211 414.572 177.985 412.484 177.985C410.41 177.985 409.351 179.363 409.063 179.998L409.835 180.861C410.259 180.165 411.076 179.181 412.393 179.181C413.725 179.181 414.542 180.028 414.542 181.209C414.542 182.374 413.649 183.328 412.847 184.099L409.154 187.595L409.366 188.579H416.418Z" fill="white"/>
<path d="M426.021 178.984L425.628 178.137H418.515V179.317H424.387L419.453 188.579H420.997L426.021 178.984Z" fill="white"/>
<path d="M435.516 183.373C435.516 180.649 434.336 177.985 431.521 177.985C428.721 177.985 427.526 180.649 427.526 183.373C427.526 186.082 428.706 188.745 431.521 188.745C434.336 188.745 435.516 186.082 435.516 183.373ZM434.033 183.343C434.033 185.719 433.201 187.459 431.521 187.459C429.841 187.459 429.009 185.719 429.009 183.343C429.009 180.952 429.841 179.226 431.521 179.226C433.201 179.226 434.033 180.952 434.033 183.343Z" fill="white"/>
<path d="M445.292 183.373C445.292 180.649 444.111 177.985 441.297 177.985C438.497 177.985 437.301 180.649 437.301 183.373C437.301 186.082 438.482 188.745 441.297 188.745C444.111 188.745 445.292 186.082 445.292 183.373ZM443.809 183.343C443.809 185.719 442.976 187.459 441.297 187.459C439.617 187.459 438.784 185.719 438.784 183.343C438.784 180.952 439.617 179.226 441.297 179.226C442.976 179.226 443.809 180.952 443.809 183.343Z" fill="white"/>
<path d="M451.042 188.579V178.137H447.576V179.211H449.619V188.579H451.042Z" fill="white"/>
<path d="M457.421 182.223C457.421 181.648 456.997 181.269 456.422 181.269C455.832 181.269 455.408 181.648 455.408 182.223C455.408 182.798 455.832 183.176 456.422 183.176C456.997 183.176 457.421 182.798 457.421 182.223ZM457.421 187.792C457.421 187.202 456.997 186.839 456.422 186.839C455.832 186.839 455.408 187.202 455.408 187.792C455.408 188.367 455.832 188.73 456.422 188.73C456.997 188.73 457.421 188.367 457.421 187.792Z" fill="white"/>
<path d="M467.8 188.579V187.368H462.473L465.151 184.811C465.802 184.205 467.361 182.904 467.361 181.058C467.361 179.211 465.953 177.985 463.865 177.985C461.792 177.985 460.732 179.363 460.445 179.998L461.216 180.861C461.64 180.165 462.457 179.181 463.774 179.181C465.106 179.181 465.923 180.028 465.923 181.209C465.923 182.374 465.03 183.328 464.228 184.099L460.535 187.595L460.747 188.579H467.8Z" fill="white"/>
<path d="M477.802 183.373C477.802 180.649 476.622 177.985 473.807 177.985C471.007 177.985 469.811 180.649 469.811 183.373C469.811 186.082 470.992 188.745 473.807 188.745C476.622 188.745 477.802 186.082 477.802 183.373ZM476.319 183.343C476.319 185.719 475.487 187.459 473.807 187.459C472.127 187.459 471.295 185.719 471.295 183.343C471.295 180.952 472.127 179.226 473.807 179.226C475.487 179.226 476.319 180.952 476.319 183.343Z" fill="white"/>
<path d="M483.552 188.579V178.137H480.086V179.211H482.129V188.579H483.552Z" fill="white"/>
<path d="M494.593 185.658C494.593 184.039 493.397 183.252 492.58 183.101V183.055C493.231 182.843 494.275 182.238 494.275 180.694C494.275 178.984 492.716 177.985 491.006 177.985C489.296 177.985 488.388 178.712 487.707 179.469L488.388 180.346C489.084 179.665 489.826 179.151 490.885 179.151C491.944 179.151 492.852 179.741 492.852 180.846C492.852 181.935 492.08 182.541 490.976 182.541H490.204V183.706H490.976C492.171 183.706 493.14 184.342 493.14 185.598C493.14 186.854 492.156 187.535 490.794 187.535C489.432 187.535 488.418 186.279 488.252 186.067L487.434 186.96C487.586 187.156 488.721 188.73 490.824 188.73C492.943 188.73 494.593 187.565 494.593 185.658Z" fill="white"/>
<path d="M437.417 253.729L434.584 253.297L433.317 250.609C433.283 250.535 433.226 250.475 433.156 250.439C432.98 250.348 432.765 250.424 432.677 250.609L431.41 253.297L428.578 253.729C428.499 253.74 428.428 253.779 428.373 253.837C428.307 253.908 428.271 254.004 428.272 254.103C428.274 254.203 428.312 254.297 428.38 254.366L430.43 256.459L429.946 259.414C429.934 259.483 429.941 259.554 429.967 259.618C429.992 259.683 430.033 259.739 430.087 259.78C430.141 259.821 430.205 259.845 430.271 259.85C430.338 259.855 430.405 259.841 430.464 259.808L432.997 258.413L435.531 259.808C435.6 259.847 435.681 259.859 435.758 259.845C435.952 259.81 436.082 259.618 436.049 259.414L435.565 256.459L437.615 254.366C437.67 254.309 437.707 254.234 437.718 254.153C437.748 253.948 437.612 253.759 437.417 253.729Z" fill="#FECE4D"/>
<path d="M458.233 253.803L455.401 253.371L454.134 250.683C454.1 250.609 454.042 250.549 453.972 250.513C453.796 250.422 453.582 250.498 453.494 250.683L452.227 253.371L449.394 253.803C449.316 253.814 449.245 253.853 449.19 253.911C449.124 253.982 449.087 254.078 449.088 254.177C449.09 254.277 449.129 254.371 449.196 254.44L451.246 256.533L450.762 259.488C450.751 259.557 450.758 259.628 450.783 259.692C450.808 259.757 450.85 259.813 450.904 259.854C450.958 259.895 451.022 259.919 451.088 259.924C451.154 259.929 451.221 259.915 451.28 259.882L453.814 258.487L456.347 259.882C456.417 259.921 456.497 259.933 456.574 259.919C456.768 259.884 456.899 259.692 456.865 259.488L456.381 256.533L458.431 254.44C458.487 254.383 458.524 254.308 458.535 254.227C458.565 254.022 458.429 253.833 458.233 253.803Z" fill="#FECE4D"/>
<path d="M476.318 253.729L473.486 253.297L472.219 250.609C472.185 250.535 472.127 250.475 472.057 250.439C471.881 250.348 471.667 250.424 471.579 250.609L470.312 253.297L467.479 253.729C467.401 253.74 467.33 253.779 467.275 253.837C467.209 253.908 467.172 254.004 467.173 254.103C467.175 254.203 467.214 254.297 467.281 254.366L469.331 256.459L468.847 259.414C468.836 259.483 468.843 259.554 468.868 259.618C468.893 259.683 468.935 259.739 468.989 259.78C469.043 259.821 469.107 259.845 469.173 259.85C469.239 259.855 469.306 259.841 469.365 259.808L471.899 258.413L474.432 259.808C474.502 259.847 474.582 259.859 474.659 259.845C474.853 259.81 474.984 259.618 474.95 259.414L474.466 256.459L476.516 254.366C476.572 254.309 476.609 254.234 476.62 254.153C476.65 253.948 476.514 253.759 476.318 253.729Z" fill="#FECE4D"/>
</g>
<g filter="url(#filter1_d_13943_2533)">
<path d="M133.702 118.905L222.404 136.809L222.552 229.738C222.7 291.003 183.819 322.665 133.999 340.868C84.1805 322.962 45.2954 291.296 45.1477 230.035L45 137.105L133.702 118.905Z" fill="#EDF1F6"/>
<path d="M220.235 141.043L220.231 138.64L217.875 138.167L134.445 121.443L133.862 121.326L133.28 121.445L49.8476 138.471L47.4932 138.952L47.4972 141.354L47.6449 230.041L47.6449 230.045C47.7204 255.63 54.732 277.428 69.046 295.484C83.3283 313.499 104.704 327.568 133.146 338.055L134.168 338.431L135.188 338.052C163.556 327.489 184.893 313.344 199.135 295.272C213.409 277.161 220.383 255.324 220.383 229.734V229.73L220.235 141.043Z" fill="url(#paint3_linear_13943_2533)" stroke="url(#paint4_linear_13943_2533)" stroke-width="5.8757"/>
<path d="M109.998 265.88L108.062 261.361C106.699 262.759 104.475 263.979 101.391 263.979C97.3385 263.979 93.9674 261.217 93.9674 256.376C93.9674 251.534 97.1951 248.737 101.391 248.737C104.655 248.737 107.309 250.709 107.775 251.319L109.568 246.513C108.922 245.832 106.161 243.716 101.068 243.716C93.8598 243.716 88.0857 248.486 88.0857 256.483C88.0857 264.445 93.788 269.251 101.068 269.251C106.125 269.251 108.743 267.171 109.998 265.88Z" fill="white"/>
<path d="M133.673 265.88L131.736 261.361C130.373 262.759 128.15 263.979 125.065 263.979C121.013 263.979 117.642 261.217 117.642 256.376C117.642 251.534 120.869 248.737 125.065 248.737C128.329 248.737 130.983 250.709 131.449 251.319L133.242 246.513C132.597 245.832 129.835 243.716 124.743 243.716C117.534 243.716 111.76 248.486 111.76 256.483C111.76 264.445 117.462 269.251 124.743 269.251C129.799 269.251 132.417 267.171 133.673 265.88Z" fill="white"/>
<path d="M155.671 251.857C155.671 249.203 154.738 247.302 153.089 245.939C151.439 244.577 149.18 244.074 146.633 244.074H137.775V268.82H143.585V259.675H146.633C149.18 259.675 151.439 259.173 153.089 257.81C154.738 256.412 155.671 254.511 155.671 251.857ZM149.789 251.857C149.789 253.112 149.287 254.009 148.606 254.511C147.889 255.013 147.064 255.192 145.808 255.192H143.549V248.557H145.808C147.064 248.557 147.889 248.737 148.606 249.239C149.287 249.741 149.789 250.602 149.789 251.857Z" fill="white"/>
<path d="M181.129 268.82L171.804 244.039H165.779L156.455 268.82H162.48L164.237 263.835H173.059L174.817 268.82H181.129ZM171.733 259.316H165.564L168.648 250.422L171.733 259.316Z" fill="white"/>
<path d="M95.8994 287.943L95.1161 286.619C94.2769 287.533 92.9715 288.185 91.2744 288.185C88.5144 288.185 86.4816 286.19 86.4816 283.169C86.4816 280.147 88.4957 278.152 91.2744 278.152C93.0647 278.152 94.5007 279.084 95.0042 279.719L95.7688 278.264C95.0602 277.574 93.6056 276.567 91.1998 276.567C87.5073 276.567 84.6167 279.196 84.6167 283.206C84.6167 287.215 87.4327 289.845 91.1812 289.845C93.6242 289.845 95.0975 288.838 95.8994 287.943Z" fill="white"/>
<path d="M109.733 283.206C109.733 279.084 106.711 276.567 103.094 276.567C99.4756 276.567 96.4545 279.084 96.4545 283.206C96.4545 287.327 99.4756 289.845 103.094 289.845C106.711 289.845 109.733 287.327 109.733 283.206ZM107.886 283.169C107.886 286.302 105.723 288.204 103.094 288.204C100.483 288.204 98.3007 286.302 98.3007 283.169C98.3007 280.017 100.464 278.133 103.094 278.133C105.723 278.133 107.886 280.017 107.886 283.169Z" fill="white"/>
<path d="M125.512 289.621L124.337 276.753H122.118L118.407 286.693H118.37L114.658 276.753H112.421L111.264 289.621H113.055L113.875 279.457H113.931L117.866 289.733H118.892L122.827 279.457H122.883L123.722 289.621H125.512Z" fill="white"/>
<path d="M135.742 280.427C135.742 279.196 135.294 278.357 134.492 277.667C133.709 276.996 132.627 276.753 131.378 276.753H127.76V289.621H129.569V284.101H131.378C133.727 284.101 135.742 283.019 135.742 280.427ZM133.877 280.427C133.877 282.05 132.664 282.628 131.228 282.628H129.569V278.227H131.228C132.664 278.227 133.877 278.823 133.877 280.427Z" fill="white"/>
<path d="M144.008 289.621V288.092H139.476V276.753H137.667V289.621H144.008Z" fill="white"/>
<path d="M147.416 289.621V276.753H145.607V289.621H147.416Z" fill="white"/>
<path d="M160.937 289.621L155.678 276.716H154.093L148.853 289.621H150.755L152.079 286.264H157.599L158.923 289.621H160.937ZM157.096 284.754H152.583L154.839 278.973L157.096 284.754Z" fill="white"/>
<path d="M173.346 289.621V276.753H171.574V283.579C171.574 285.276 171.593 286.861 171.593 286.861L164.301 276.753H162.399V289.621H164.189V282.777C164.189 281.099 164.152 279.364 164.152 279.364L171.574 289.621H173.346Z" fill="white"/>
<path d="M183.98 278.264V276.753H174.917V278.264H178.553V289.621H180.362V278.264H183.98Z" fill="white"/>
<path d="M111.208 158.375C115.084 158.726 119.38 159.128 123.684 159.478C125.004 159.581 126.33 159.599 127.653 159.533C128.937 159.472 129.541 159.839 129.425 161.266C128.931 167.247 129.061 173.268 128.312 179.232C128.196 180.116 128.741 180.537 129.261 181.037C136.952 188.424 144.641 195.812 152.328 203.203C153.935 204.746 155.543 206.288 157.186 207.792C158.519 209.014 158.831 210.829 159.852 212.224C160.108 212.695 160.405 213.143 160.738 213.564C161.575 214.357 161.414 214.949 160.607 215.647C160.23 215.902 159.942 216.268 159.782 216.695C159.621 217.122 159.598 217.587 159.713 218.028C159.775 218.418 159.745 218.816 159.627 219.192C159.508 219.568 159.303 219.912 159.029 220.195C158.621 220.723 158.421 221.381 158.465 222.047C158.509 222.712 158.795 223.339 159.27 223.808C160.154 224.961 159.913 225.519 158.404 225.727C156.522 226.082 154.62 226.32 152.708 226.439C150.67 226.536 148.641 226.778 146.638 227.162C144.823 227.444 143.836 226.695 143.733 224.888C143.531 221.371 140.84 220.062 138.336 218.562C138.088 218.414 137.558 218.43 137.519 218.279C137.025 216.278 135.472 216.428 133.941 216.35C133.399 216.257 132.914 215.959 132.586 215.518C131.023 213.462 128.744 213.261 126.479 213.13C124.975 213.044 124.281 212.583 124.495 210.93C124.79 208.619 123.488 206.833 122.068 205.258C120.405 203.411 119.535 201.06 117.922 199.194C117.298 198.474 117.734 197.641 118.204 197.034C119.006 196.001 118.63 195.329 117.634 194.932C115.679 194.16 115.308 192.568 115.183 190.741C115.119 189.807 115.384 189.728 116.04 190.249C116.334 190.483 116.623 190.783 116.956 190.434C117.289 190.084 116.909 189.752 116.766 189.463C116.554 189.04 116.279 188.383 115.949 188.33C113.645 187.965 112.785 186.374 112.175 184.389C111.978 183.752 111.292 183.272 110.858 182.701C109.812 181.645 109.15 180.268 108.976 178.792C108.743 175.822 109.24 172.336 106.408 169.979C105.804 169.475 106.096 168.702 106.514 168.163C107.01 167.595 107.382 166.929 107.608 166.209C107.833 165.489 107.907 164.73 107.825 163.979C107.78 163.682 107.844 163.377 108.006 163.123C108.231 162.901 108.409 162.635 108.527 162.341C108.645 162.047 108.701 161.732 108.692 161.415C108.683 161.099 108.609 160.787 108.475 160.5C108.34 160.214 108.148 159.958 107.91 159.749C107.21 158.95 107.61 158.424 108.611 158.379C109.333 158.343 110.057 158.375 111.208 158.375Z" fill="#FECE4D"/>
<path d="M158.259 196.744H157.329H135.822H134.892V195.814V180.759V179.829H135.822H137.043V176.995C137.043 171.739 141.32 167.462 146.576 167.462C151.833 167.462 156.109 171.739 156.109 176.995V179.829H157.329H158.259V180.759V195.814V196.744ZM141.592 179.829H151.56V176.995C151.56 174.247 149.324 172.011 146.576 172.011C143.828 172.011 141.592 174.247 141.592 176.995V179.829Z" fill="#3D7FFC"/>
<path d="M157.333 195.814V180.759H155.183V176.996C155.183 172.251 151.323 168.392 146.58 168.392C141.836 168.392 137.977 172.251 137.977 176.996V180.759H135.826V195.814H157.333ZM146.58 171.081C149.841 171.081 152.494 173.734 152.494 176.996V180.759H140.666V176.996C140.666 173.734 143.318 171.081 146.58 171.081ZM159.193 197.674H133.966V178.899H136.117V176.996C136.117 171.226 140.811 166.532 146.58 166.532C152.349 166.532 157.043 171.226 157.043 176.996V178.899H159.193V197.674ZM142.526 178.899H150.634V176.996C150.634 174.76 148.815 172.941 146.58 172.941C144.345 172.941 142.526 174.76 142.526 176.996V178.899Z" fill="#093A81"/>
</g>
<g filter="url(#filter2_d_13943_2533)">
<path d="M293.481 84L403.312 106.169L403.494 221.233C403.677 297.091 355.535 336.296 293.848 358.834C232.163 336.663 184.016 297.454 183.833 221.6L183.65 106.536L293.481 84Z" fill="#EDF1F6"/>
<path d="M400.512 111.412L400.507 108.528L397.68 107.961L294.376 87.2532L293.677 87.113L292.979 87.2556L189.673 108.337L186.848 108.914L186.853 111.797L187.036 221.608L187.036 221.613C187.129 253.271 195.804 280.236 213.51 302.57C231.178 324.855 257.626 342.265 292.83 355.245L294.055 355.697L295.279 355.241C330.391 342.167 356.791 324.664 374.41 302.308C392.066 279.905 400.695 252.893 400.695 221.229L400.695 221.223L400.512 111.412Z" fill="url(#paint5_linear_13943_2533)" stroke="url(#paint6_linear_13943_2533)" stroke-width="7.05012"/>
<path d="M263.716 264.861V252.16H250.261V257.622H256.7V262.152C256.7 262.152 255.279 264.106 250.306 264.106C245.332 264.106 241.424 260.509 241.424 254.292C241.424 248.075 245.243 244.478 250.172 244.478C254.346 244.478 256.744 246.565 258.032 247.986L262.784 243.856C261.807 242.791 258.299 238.528 250.172 238.528C241.602 238.528 234.142 244.078 234.142 254.292C234.142 264.505 241.602 270.101 250.083 270.101C258.521 270.101 262.162 266.237 263.716 264.861Z" fill="white"/>
<path d="M297.26 254.292C297.26 248.341 294.862 244.789 292.286 242.657C289.755 240.482 285.803 238.972 280.474 238.972H270.083V269.612H280.474C285.803 269.612 289.755 268.102 292.286 265.971C294.862 263.795 297.26 260.242 297.26 254.292ZM289.977 254.292C289.977 258.066 288.556 260.109 287.268 261.308C285.98 262.551 283.849 263.528 280.874 263.528H277.232V244.922H280.874C283.849 244.922 285.98 245.899 287.268 247.098C288.556 248.341 289.977 250.517 289.977 254.292Z" fill="white"/>
<path d="M325.241 248.608C325.241 245.322 324.086 242.968 322.044 241.281C320.001 239.593 317.203 238.972 314.051 238.972H303.082V269.612H310.276V258.288H314.051C317.203 258.288 320.001 257.667 322.044 255.979C324.086 254.248 325.241 251.894 325.241 248.608ZM317.958 248.608C317.958 250.162 317.337 251.272 316.493 251.894C315.605 252.516 314.583 252.738 313.029 252.738H310.232V244.523H313.029C314.583 244.523 315.605 244.745 316.493 245.366C317.337 245.988 317.958 247.054 317.958 248.608Z" fill="white"/>
<path d="M354.777 269.612L347.006 256.956C349.27 256.246 353 253.981 353 248.164C353 245.1 351.668 242.657 349.626 241.148C347.627 239.682 344.963 238.972 341.544 238.972H330.531V269.612H337.725V257.889H339.989L346.428 269.612H354.777ZM345.762 248.43C345.762 250.029 345.141 250.873 344.208 251.539C343.32 252.205 342.165 252.382 340.522 252.382H337.68V244.523H340.522C342.165 244.523 343.32 244.656 344.208 245.322C345.141 245.988 345.762 246.876 345.762 248.43Z" fill="white"/>
<path d="M246.418 293.289L245.449 291.65C244.409 292.781 242.793 293.59 240.692 293.59C237.274 293.59 234.757 291.119 234.757 287.378C234.757 283.637 237.251 281.167 240.692 281.167C242.909 281.167 244.687 282.321 245.31 283.106L246.257 281.305C245.379 280.451 243.578 279.204 240.599 279.204C236.027 279.204 232.448 282.46 232.448 287.424C232.448 292.389 235.935 295.645 240.576 295.645C243.601 295.645 245.426 294.398 246.418 293.289Z" fill="white"/>
<path d="M263.547 287.424C263.547 282.321 259.806 279.204 255.326 279.204C250.847 279.204 247.106 282.321 247.106 287.424C247.106 292.527 250.847 295.645 255.326 295.645C259.806 295.645 263.547 292.527 263.547 287.424ZM261.261 287.378C261.261 291.257 258.582 293.613 255.326 293.613C252.093 293.613 249.392 291.257 249.392 287.378C249.392 283.476 252.07 281.143 255.326 281.143C258.582 281.143 261.261 283.476 261.261 287.378Z" fill="white"/>
<path d="M283.085 295.368L281.63 279.435H278.882L274.287 291.742H274.241L269.646 279.435H266.875L265.443 295.368H267.66L268.676 282.783H268.745L273.618 295.506H274.888L279.76 282.783H279.829L280.868 295.368H283.085Z" fill="white"/>
<path d="M295.751 283.984C295.751 282.46 295.197 281.421 294.204 280.566C293.234 279.735 291.895 279.435 290.347 279.435H285.868V295.368H288.108V288.533H290.347C293.257 288.533 295.751 287.193 295.751 283.984ZM293.442 283.984C293.442 285.993 291.941 286.708 290.163 286.708H288.108V281.259H290.163C291.941 281.259 293.442 281.998 293.442 283.984Z" fill="white"/>
<path d="M305.986 295.368V293.474H300.375V279.435H298.135V295.368H305.986Z" fill="white"/>
<path d="M310.207 295.368V279.435H307.967V295.368H310.207Z" fill="white"/>
<path d="M326.948 295.368L320.437 279.389H318.474L311.985 295.368H314.341L315.98 291.211H322.815L324.454 295.368H326.948ZM322.192 289.341H316.603L319.398 282.183L322.192 289.341Z" fill="white"/>
<path d="M342.312 295.368V279.435H340.119V287.886C340.119 289.987 340.142 291.95 340.142 291.95L331.113 279.435H328.758V295.368H330.975V286.893C330.975 284.815 330.929 282.667 330.929 282.667L340.119 295.368H342.312Z" fill="white"/>
<path d="M355.48 281.305V279.435H344.258V281.305H348.76V295.368H351V281.305H355.48Z" fill="white"/>
<path d="M293.548 125.749L295.101 130.778H300.13L296.061 133.886L297.615 138.915L293.546 135.807L289.479 138.915L291.033 133.886L286.965 130.778H291.994L293.548 125.749Z" fill="#FECE4D"/>
<path d="M293.548 208.502L295.101 213.532H300.13L296.061 216.641L297.615 221.669L293.546 218.56L289.479 221.669L291.033 216.641L286.965 213.532H291.994L293.548 208.502Z" fill="#FECE4D"/>
<path d="M314.219 133.272L315.772 138.301H320.801L316.733 141.409L318.287 146.437L314.219 143.328L310.151 146.437L311.703 141.41L307.636 138.301H312.665L314.219 133.272Z" fill="#FECE4D"/>
<path d="M330.945 187.407L332.498 192.438H337.526L333.458 195.546L335.013 200.573L330.945 197.464L326.876 200.573L328.43 195.546L324.362 192.438H329.391L330.945 187.407Z" fill="#FECE4D"/>
<path d="M334.889 167.129L336.443 172.157H341.472L337.404 175.266L338.958 180.295L334.89 177.187L330.822 180.295L332.376 175.265L328.307 172.157H333.334L334.889 167.129Z" fill="#FECE4D"/>
<path d="M252.149 167.129L253.702 172.157H258.731L254.662 175.266L256.218 180.295L252.15 177.187L248.081 180.295L249.635 175.266L245.565 172.157H250.595L252.149 167.129Z" fill="#FECE4D"/>
<path d="M255.549 187.407L257.102 192.438H262.131L258.063 195.546L259.616 200.573L255.549 197.464L251.48 200.573L253.035 195.546L248.965 192.438H253.995L255.549 187.407Z" fill="#FECE4D"/>
<path d="M330.945 146.302L332.498 151.333H337.526L333.458 154.441L335.013 159.468L330.945 156.359L326.876 159.468L328.43 154.441L324.362 151.333H329.391L330.945 146.302Z" fill="#FECE4D"/>
<path d="M257.315 146.302L258.868 151.333H263.897L259.829 154.441L261.382 159.468L257.315 156.359L253.247 159.468L254.801 154.441L250.731 151.333H255.761L257.315 146.302Z" fill="#FECE4D"/>
<path d="M317.961 204.739L319.515 209.767H324.544L320.475 212.875L322.03 217.903L317.962 214.795L313.893 217.903L315.447 212.876L311.378 209.767H316.408L317.961 204.739Z" fill="#FECE4D"/>
<path d="M272.819 133.272L274.371 138.301H279.4L275.332 141.409L276.887 146.437L272.819 143.328L268.751 146.437L270.305 141.409L266.236 138.301H271.264L272.819 133.272Z" fill="#FECE4D"/>
<path d="M269.076 204.739L270.63 209.77H275.66L271.591 212.878L273.145 217.907L269.077 214.798L265.009 217.907L266.564 212.878L262.494 209.77H267.522L269.076 204.739Z" fill="#FECE4D"/>
<path d="M306.888 172.372H280.245V191.023H306.888V172.372Z" fill="#3D7FFC"/>
<path d="M286.226 177.032H282.896V167.707C282.896 165.599 283.521 163.539 284.692 161.786C285.863 160.034 287.528 158.668 289.475 157.861C291.422 157.055 293.565 156.844 295.633 157.255C297.7 157.666 299.599 158.681 301.089 160.171C302.082 161.159 302.869 162.333 303.405 163.627C303.941 164.92 304.215 166.307 304.211 167.707V177.032H300.881V167.707C300.881 165.764 300.109 163.9 298.734 162.526C297.36 161.152 295.497 160.38 293.553 160.38C291.61 160.38 289.747 161.152 288.372 162.526C286.998 163.9 286.226 165.764 286.226 167.707V177.032Z" fill="#3D7FFC"/>
</g>
<defs>
<filter id="filter0_d_13943_2533" x="348.915" y="112.739" width="210.924" height="255.392" filterUnits="userSpaceOnUse" color-interpolation-filters="sRGB">
<feFlood flood-opacity="0" result="BackgroundImageFix"/>
<feColorMatrix in="SourceAlpha" type="matrix" values="0 0 0 0 0 0 0 0 0 0 0 0 0 0 0 0 0 0 127 0" result="hardAlpha"/>
<feOffset dy="10.4823"/>
<feGaussianBlur stdDeviation="8.0364"/>
<feColorMatrix type="matrix" values="0 0 0 0 0 0 0 0 0 0 0 0 0 0 0 0 0 0 0.38 0"/>
<feBlend mode="normal" in2="BackgroundImageFix" result="effect1_dropShadow_13943_2533"/>
<feBlend mode="normal" in="SourceGraphic" in2="effect1_dropShadow_13943_2533" result="shape"/>
</filter>
<filter id="filter1_d_13943_2533" x="28.4785" y="112.738" width="210.915" height="255.381" filterUnits="userSpaceOnUse" color-interpolation-filters="sRGB">
<feFlood flood-opacity="0" result="BackgroundImageFix"/>
<feColorMatrix in="SourceAlpha" type="matrix" values="0 0 0 0 0 0 0 0 0 0 0 0 0 0 0 0 0 0 127 0" result="hardAlpha"/>
<feOffset dy="10.4823"/>
<feGaussianBlur stdDeviation="8.0364"/>
<feColorMatrix type="matrix" values="0 0 0 0 0 0 0 0 0 0 0 0 0 0 0 0 0 0 0.38 0"/>
<feBlend mode="normal" in2="BackgroundImageFix" result="effect1_dropShadow_13943_2533"/>
<feBlend mode="normal" in="SourceGraphic" in2="effect1_dropShadow_13943_2533" result="shape"/>
</filter>
<filter id="filter2_d_13943_2533" x="167.246" y="77.9261" width="253.047" height="308.086" filterUnits="userSpaceOnUse" color-interpolation-filters="sRGB">
<feFlood flood-opacity="0" result="BackgroundImageFix"/>
<feColorMatrix in="SourceAlpha" type="matrix" values="0 0 0 0 0 0 0 0 0 0 0 0 0 0 0 0 0 0 127 0" result="hardAlpha"/>
<feOffset dy="10.4823"/>
<feGaussianBlur stdDeviation="8.0364"/>
<feColorMatrix type="matrix" values="0 0 0 0 0 0 0 0 0 0 0 0 0 0 0 0 0 0 0.38 0"/>
<feBlend mode="normal" in2="BackgroundImageFix" result="effect1_dropShadow_13943_2533"/>
<feBlend mode="normal" in="SourceGraphic" in2="effect1_dropShadow_13943_2533" result="shape"/>
</filter>
<radialGradient id="paint0_radial_13943_2533" cx="0" cy="0" r="1" gradientUnits="userSpaceOnUse" gradientTransform="translate(294.215 223) rotate(88.525) scale(282.282 291.452)">
<stop/>
<stop offset="0.442708"/>
<stop offset="0.848958" stop-opacity="0.03"/>
<stop offset="0.911458" stop-opacity="0.03"/>
</radialGradient>
<linearGradient id="paint1_linear_13943_2533" x1="568.137" y1="50.6292" x2="367.607" y2="360.481" gradientUnits="userSpaceOnUse">
<stop stop-color="#0A479C"/>
<stop offset="1" stop-color="#092A5F"/>
</linearGradient>
<linearGradient id="paint2_linear_13943_2533" x1="389.52" y1="323.828" x2="585.771" y2="207.312" gradientUnits="userSpaceOnUse">
<stop stop-color="#1B4582"/>
<stop offset="1" stop-color="#3160A6"/>
</linearGradient>
<linearGradient id="paint3_linear_13943_2533" x1="247.69" y1="50.6324" x2="47.1711" y2="360.468" gradientUnits="userSpaceOnUse">
<stop stop-color="#0A479C"/>
<stop offset="1" stop-color="#092A5F"/>
</linearGradient>
<linearGradient id="paint4_linear_13943_2533" x1="69.0826" y1="323.817" x2="265.323" y2="207.307" gradientUnits="userSpaceOnUse">
<stop stop-color="#1B4582"/>
<stop offset="1" stop-color="#3160A6"/>
</linearGradient>
<linearGradient id="paint5_linear_13943_2533" x1="434.619" y1="-0.534683" x2="186.336" y2="383.102" gradientUnits="userSpaceOnUse">
<stop stop-color="#0A479C"/>
<stop offset="1" stop-color="#092A5F"/>
</linearGradient>
<linearGradient id="paint6_linear_13943_2533" x1="213.467" y1="337.721" x2="456.452" y2="193.459" gradientUnits="userSpaceOnUse">
<stop stop-color="#1B4582"/>
<stop offset="1" stop-color="#3160A6"/>
</linearGradient>
</defs>
</svg>
