<svg width="48" height="47" viewBox="0 0 48 47" fill="none" xmlns="http://www.w3.org/2000/svg">
<g clip-path="url(#clip0_8706_6013)">
<g clip-path="url(#clip1_8706_6013)">
<path d="M35.5 12H0.5V47H35.5V12Z" fill="#3D7FFC"/>
<path d="M24.0097 39.344C24.7147 40.4952 25.6319 41.3413 27.2541 41.3413C28.6169 41.3413 29.4874 40.6602 29.4874 39.719C29.4874 38.5913 28.593 38.1918 27.093 37.5357L26.2708 37.1829C23.8974 36.1718 22.3208 34.9052 22.3208 32.2274C22.3208 29.7607 24.2002 27.8829 27.1374 27.8829C29.2286 27.8829 30.7319 28.6107 31.8152 30.5163L29.2541 32.1607C28.6902 31.1496 28.0819 30.7513 27.1374 30.7513C26.1741 30.7513 25.5636 31.3624 25.5636 32.1607C25.5636 33.1474 26.1747 33.5468 27.5858 34.1579L28.408 34.5102C31.2024 35.7085 32.7802 36.9302 32.7802 39.6768C32.7802 42.6379 30.4541 44.2602 27.3302 44.2602C24.2758 44.2602 22.3024 42.8046 21.3369 40.8968L24.0097 39.344ZM12.3913 39.629C12.908 40.5457 13.378 41.3207 14.508 41.3207C15.5886 41.3207 16.2702 40.8979 16.2702 39.254V28.0707H19.5591V39.2985C19.5591 42.704 17.5624 44.254 14.648 44.254C12.0147 44.254 10.4897 42.8913 9.71411 41.2499L12.3913 39.629Z" fill="white"/>
</g>
<rect x="23.5" width="24" height="24" rx="3.24324" fill="#FECE4D"/>
<mask id="mask0_8706_6013" style="mask-type:alpha" maskUnits="userSpaceOnUse" x="28" y="4" width="15" height="16">
<path d="M28.1388 19.3612V4.63877H42.8613V19.3612H28.1388Z" fill="#15C1E6" stroke="#76A5FF" stroke-width="0.268388"/>
</mask>
<g mask="url(#mask0_8706_6013)">
<path d="M40.1418 6.49844L39.5113 7.26249C38.2386 6.23841 36.6222 5.73321 34.9877 5.8544C33.2806 5.98098 31.6936 6.78054 30.576 8.07719L30.5759 8.07727C30.2573 8.44723 29.9817 8.85209 29.7543 9.28412L29.6548 9.47311L29.8437 9.57272L30.9487 10.1554L31.1376 10.255L31.2374 10.0661C31.5516 9.47129 31.9877 8.94932 32.5172 8.53426C33.0466 8.11926 33.6575 7.82044 34.3101 7.65728C35.0464 7.47503 35.8156 7.47038 36.5541 7.64373C37.2244 7.80107 37.852 8.10096 38.3947 8.52204L37.7991 9.24812L37.5518 9.54954L37.9389 9.59588L41.062 9.96972L41.37 10.0066L41.2947 9.70567L40.514 6.58263L40.4113 6.17185L40.1418 6.49844Z" fill="#092349" stroke="#092349" stroke-width="0.427446"/>
<path d="M30.7 17.1554L31.3677 16.4237C32.5878 17.5099 34.1771 18.0951 35.8155 18.0555C37.5269 18.0141 39.1517 17.2947 40.3326 16.0554L40.3327 16.0553C40.6693 15.7017 40.9647 15.311 41.2134 14.8909L41.3222 14.7071L41.1385 14.5982L40.0639 13.9612L39.8802 13.8523L39.7711 14.0359C39.4276 14.6144 38.9661 15.1139 38.4166 15.5021C37.8671 15.8902 37.2421 16.1582 36.5822 16.2886C35.8377 16.4339 35.0692 16.4002 34.3403 16.1903C33.6787 15.9998 33.0667 15.669 32.5457 15.2214L33.1768 14.5259L33.4388 14.2371L33.0545 14.1716L29.9539 13.6425L29.6482 13.5904L29.7083 13.8946L30.3324 17.0527L30.4145 17.4681L30.7 17.1554Z" fill="#092349" stroke="#092349" stroke-width="0.427446"/>
</g>
</g>
<defs>
<clipPath id="clip0_8706_6013">
<rect width="47" height="47" fill="white" transform="translate(0.5)"/>
</clipPath>
<clipPath id="clip1_8706_6013">
<rect width="35" height="35" fill="white" transform="translate(0.5 12)"/>
</clipPath>
</defs>
</svg>
