<svg width="373" height="85" viewBox="0 0 373 85" fill="none" xmlns="http://www.w3.org/2000/svg">
<rect x="171.356" y="1.30906" width="101.948" height="32.9333" rx="16.4667" fill="#092349"/>
<rect x="185.25" y="7.99864" width="20.1293" height="19.5541" rx="2.57291" fill="#FFD600"/>
<path d="M198.924 23.008C199.258 23.5335 199.692 23.9198 200.461 23.9198C201.107 23.9198 201.519 23.6088 201.519 23.1792C201.519 22.6643 201.095 22.482 200.385 22.1824L199.995 22.0214C198.871 21.5598 198.124 20.9815 198.124 19.7591C198.124 18.633 199.014 17.7757 200.406 17.7757C201.396 17.7757 202.109 18.108 202.622 18.9779L201.408 19.7286C201.141 19.267 200.853 19.0852 200.406 19.0852C199.949 19.0852 199.66 19.3642 199.66 19.7286C199.66 20.1791 199.95 20.3614 200.618 20.6404L201.008 20.8012C202.331 21.3483 203.079 21.906 203.079 23.1599C203.079 24.5117 201.977 25.2523 200.497 25.2523C199.05 25.2523 198.115 24.5878 197.658 23.7169L198.924 23.008ZM193.42 23.1381C193.665 23.5566 193.887 23.9104 194.423 23.9104C194.935 23.9104 195.257 23.7174 195.257 22.9669V17.8614H196.816V22.9872C196.816 24.5419 195.87 25.2495 194.489 25.2495C193.241 25.2495 192.519 24.6274 192.152 23.878L193.42 23.1381Z" fill="black"/>
<path d="M213.18 21.4669C213.314 21.5184 213.499 21.5493 213.736 21.5493C214.23 21.5493 214.322 21.1067 214.322 20.5201V13.4703H215.65V20.4892C215.65 21.2199 215.516 21.7242 215.269 22.0433C215.033 22.352 214.621 22.599 214.055 22.599C213.602 22.599 213.201 22.4961 213.139 22.4549L213.18 21.4669ZM219.968 19.9952C219.762 20.3554 219.186 20.6848 218.445 20.6848C217.478 20.6848 216.695 20.1599 216.695 19.1204C216.695 18.081 217.714 17.6796 218.743 17.6076L219.937 17.5252V17.3914C219.937 16.7534 219.515 16.4549 218.826 16.4549C218.167 16.4549 217.622 16.7019 217.406 16.8666L217.004 16.0226C217.385 15.7962 218.085 15.4978 218.949 15.4978C219.834 15.4978 220.339 15.7242 220.709 16.0741C221.069 16.424 221.255 16.8769 221.255 17.7208V20.5716H219.989L219.968 19.9952ZM219.052 18.3794C218.352 18.4206 218.013 18.6573 218.013 19.0793C218.013 19.5012 218.332 19.7894 218.877 19.7894C219.392 19.7894 219.773 19.4909 219.948 19.2439V18.328L219.052 18.3794ZM221.728 15.5904H223.097L224.445 19.1822L225.793 15.5904H227.11L225.062 20.5716H223.776L221.728 15.5904ZM230.817 19.9952C230.612 20.3554 230.035 20.6848 229.294 20.6848C228.327 20.6848 227.545 20.1599 227.545 19.1204C227.545 18.081 228.564 17.6796 229.593 17.6076L230.787 17.5252V17.3914C230.787 16.7534 230.365 16.4549 229.675 16.4549C229.016 16.4549 228.471 16.7019 228.255 16.8666L227.853 16.0226C228.234 15.7962 228.934 15.4978 229.799 15.4978C230.684 15.4978 231.188 15.7242 231.558 16.0741C231.919 16.424 232.104 16.8769 232.104 17.7208V20.5716H230.838L230.817 19.9952ZM229.902 18.3794C229.202 18.4206 228.862 18.6573 228.862 19.0793C228.862 19.5012 229.181 19.7894 229.727 19.7894C230.241 19.7894 230.622 19.4909 230.797 19.2439V18.328L229.902 18.3794ZM236.206 16.9077C235.918 16.6916 235.496 16.4858 235.043 16.4858C234.611 16.4858 234.395 16.6504 234.395 16.8871C234.395 17.1033 234.56 17.2782 235.116 17.4532L235.465 17.5664C236.567 17.9266 236.958 18.3177 236.958 19.0381C236.958 19.9849 236.206 20.6848 234.982 20.6848C234.22 20.6848 233.366 20.376 232.965 19.9129L233.5 19.0175C234.086 19.4703 234.591 19.6968 235.013 19.6968C235.507 19.6968 235.733 19.5115 235.733 19.2233C235.733 18.9661 235.537 18.822 234.899 18.6058L234.323 18.4103C233.582 18.1633 233.201 17.7208 233.201 16.9901C233.201 16.0844 234.025 15.4978 234.982 15.4978C235.867 15.4978 236.361 15.7345 236.772 16.0329L236.206 16.9077ZM241.719 19.0484L242.09 20.0158C241.987 20.1084 241.472 20.6848 240.144 20.6848C238.786 20.6848 237.53 19.7482 237.53 18.1221C237.53 16.4858 238.827 15.4978 240.165 15.4978C241.421 15.4978 241.915 16.0021 242.048 16.1359L241.688 17.1239C241.534 16.9798 241.091 16.599 240.319 16.599C239.537 16.599 238.909 17.1444 238.909 18.0604C238.909 18.9763 239.537 19.5733 240.391 19.5733C241.246 19.5733 241.719 19.0484 241.719 19.0484ZM242.948 15.5904H244.255L244.235 16.3931H244.265C244.461 15.858 244.955 15.4978 245.49 15.4978C245.83 15.4978 246.015 15.5904 246.015 15.5904L245.922 16.7328H245.861C245.717 16.6916 245.49 16.671 245.315 16.671C244.924 16.671 244.626 16.8357 244.44 17.1547C244.317 17.4017 244.255 17.7414 244.255 18.1221V20.5716H242.948V15.5904ZM247.47 14.7979C247.006 14.7979 246.677 14.4995 246.677 14.0672C246.677 13.6453 247.006 13.3365 247.47 13.3365C247.933 13.3365 248.262 13.6453 248.262 14.0672C248.262 14.4995 247.933 14.7979 247.47 14.7979ZM246.811 15.5904H248.128V20.5716H246.811V15.5904ZM250.834 16.2902L250.855 16.3005C251.256 15.7036 251.853 15.4772 252.511 15.4772C253.973 15.4772 254.868 16.6093 254.868 18.0913C254.868 19.5012 253.932 20.6642 252.419 20.6642C251.657 20.6642 251.235 20.3966 250.824 19.9026L250.803 19.9129C250.813 20.1496 250.824 20.376 250.824 20.7259V22.4549H249.517V15.5904H250.855L250.834 16.2902ZM252.141 16.5475C251.349 16.5475 250.793 17.1547 250.793 18.0913C250.793 18.9249 251.338 19.6556 252.182 19.6556C253.036 19.6556 253.53 18.9249 253.53 18.0913C253.53 17.2268 252.995 16.5475 252.141 16.5475ZM257.424 18.6367C257.424 19.3983 257.558 19.5836 258.021 19.5836C258.288 19.5836 258.494 19.5012 258.494 19.5012L258.566 20.5201C258.504 20.5407 258.113 20.6848 257.558 20.6848C256.539 20.6848 256.117 20.2216 256.117 18.9249V16.6196H255.376V15.6007H256.117V14.1804H257.424V15.6007H258.576V16.6196H257.424V18.6367Z" fill="white"/>
<rect x="171.613" y="1.56635" width="101.433" height="32.4187" rx="16.2094" stroke="white" stroke-opacity="0.1" stroke-width="0.514583"/>
<rect x="283.081" y="0.794472" width="89.1276" height="33.4479" rx="16.7239" fill="#092349"/>
<path d="M306.989 7.48405C301.868 7.48405 302.187 9.70498 302.187 9.70498L302.193 12.0058H307.08V12.6967H300.252C300.252 12.6967 296.975 12.325 296.975 17.4925C296.975 22.66 299.835 22.4767 299.835 22.4767H301.542V20.0788C301.542 20.0788 301.45 17.2184 304.357 17.2184C307.264 17.2184 309.204 17.2184 309.204 17.2184C309.204 17.2184 311.928 17.2625 311.928 14.5864C311.928 11.9104 311.928 10.1617 311.928 10.1617C311.928 10.1617 312.341 7.48405 306.989 7.48405ZM304.294 9.03128C304.78 9.03128 305.173 9.42427 305.173 9.91051C305.173 10.3967 304.78 10.7897 304.294 10.7897C303.808 10.7897 303.415 10.3967 303.415 9.91051C303.415 9.42427 303.808 9.03128 304.294 9.03128Z" fill="#027BEA"/>
<path d="M307.135 27.5528C312.256 27.5528 311.936 25.3319 311.936 25.3319L311.931 23.031H307.043V22.3402H313.872C313.872 22.3402 317.149 22.7118 317.149 17.5443C317.149 12.3769 314.288 12.5601 314.288 12.5601H312.581V14.958C312.581 14.958 312.673 17.8184 309.767 17.8184C306.86 17.8184 304.919 17.8184 304.919 17.8184C304.919 17.8184 302.196 17.7744 302.196 20.4504C302.196 23.1264 302.196 24.8751 302.196 24.8751C302.196 24.8751 301.783 27.5528 307.135 27.5528ZM309.829 26.0056C309.343 26.0056 308.95 25.6126 308.95 25.1263C308.95 24.6401 309.343 24.2471 309.829 24.2471C310.316 24.2471 310.709 24.6401 310.709 25.1263C310.709 25.6126 310.316 26.0056 309.829 26.0056Z" fill="#FFC107"/>
<path d="M326.082 13.9172H328.367C329.077 13.9172 329.694 14.0613 330.147 14.442C330.61 14.8228 330.888 15.3271 330.888 16.0475C330.888 16.768 330.61 17.2825 330.147 17.6633C329.694 18.0441 329.077 18.2191 328.367 18.2191H327.43V21.0184H326.082V13.9172ZM328.202 17.1693C328.614 17.1693 328.892 17.0664 329.118 16.9018C329.344 16.7371 329.509 16.4489 329.509 16.0475C329.509 15.6565 329.313 15.3683 329.087 15.2036C328.861 15.039 328.583 14.9669 328.171 14.9669H327.42V17.1693H328.202ZM331.193 16.0373H332.572L333.889 19.5673L335.186 16.0373H336.555L334.239 21.6874C333.879 22.5622 333.467 22.9841 332.767 22.9841C332.057 22.9841 331.594 22.7783 331.594 22.7783L331.862 21.7697C331.862 21.7697 332.212 21.8932 332.459 21.8932C332.716 21.8932 332.932 21.8212 333.035 21.5639L333.251 21.0493L331.193 16.0373ZM338.734 19.0836C338.734 19.8452 338.868 20.0304 339.331 20.0304C339.598 20.0304 339.804 19.9481 339.804 19.9481L339.876 20.967C339.814 20.9875 339.423 21.1316 338.868 21.1316C337.849 21.1316 337.427 20.6685 337.427 19.3718V17.0664H336.686V16.0475H337.427V14.6273H338.734V16.0475H339.886V17.0664H338.734V19.0836ZM343.612 15.9446C345.042 15.9446 345.403 16.8709 345.403 18.0647V21.0184H344.085V18.3529C344.085 17.6119 343.952 17.0253 343.19 17.0253C342.377 17.0253 342.099 17.7045 342.099 18.5381V21.0184H340.792V13.9172H342.099V16.7885H342.12C342.387 16.2637 342.891 15.9446 343.612 15.9446ZM349.091 21.1316C347.557 21.1316 346.384 20.123 346.384 18.5484C346.384 16.9738 347.557 15.9446 349.091 15.9446C350.614 15.9446 351.787 16.9738 351.787 18.5484C351.787 20.123 350.614 21.1316 349.091 21.1316ZM350.429 18.5175C350.429 17.6633 349.935 17.0047 349.091 17.0047C348.226 17.0047 347.753 17.6633 347.753 18.5175C347.753 19.3718 348.226 20.0407 349.091 20.0407C349.935 20.0407 350.429 19.3718 350.429 18.5175ZM356.099 18.3529C356.099 17.6119 355.966 17.0253 355.204 17.0253C354.391 17.0253 354.113 17.7045 354.113 18.5381V21.0184H352.796V16.0373H354.113L354.103 16.7885H354.134C354.401 16.2637 354.906 15.9446 355.626 15.9446C357.057 15.9446 357.417 16.8709 357.417 18.0647V21.0184H356.099V18.3529Z" fill="white"/>
<rect x="283.338" y="1.05176" width="88.613" height="32.9333" rx="16.4667" stroke="white" stroke-opacity="0.1" stroke-width="0.514583"/>
<rect x="3.60229" y="48.1361" width="90.5666" height="36.0031" rx="18.0016" fill="#092349"/>
<path d="M27.5344 77.4496C27.2314 77.4496 26.9305 77.3701 26.6649 77.2172L23.8973 75.5787C23.4839 75.3475 23.6856 75.2657 23.822 75.2186C24.3731 75.0256 24.485 74.9821 25.0733 74.648C25.1351 74.6127 25.216 74.6251 25.2793 74.6625L27.4055 75.9242C27.4823 75.9657 27.5913 75.9657 27.6624 75.9242L35.9526 71.1389C36.0294 71.0953 36.0792 71.0061 36.0792 70.9148V61.3484C36.0792 61.2529 36.0294 61.1678 35.951 61.1201L27.6641 56.339C27.5873 56.2933 27.4856 56.2933 27.4089 56.339L19.1236 61.1201C19.0433 61.1657 18.9923 61.255 18.9923 61.3463V70.9127C18.9923 71.004 19.0421 71.0912 19.1209 71.1347L21.3911 72.4462C22.6238 73.0625 23.3771 72.3362 23.3771 71.6058V62.1639C23.3771 62.029 23.4829 61.9252 23.6178 61.9252H24.6678C24.7985 61.9252 24.9064 62.029 24.9064 62.1639V71.6099C24.9064 73.2535 24.01 74.1977 22.4515 74.1977C21.9722 74.1977 21.5945 74.1977 20.5403 73.6789L18.3656 72.4255C17.8281 72.1142 17.4961 71.5332 17.4961 70.9127V61.3463C17.4961 60.7237 17.8281 60.1427 18.3656 59.8356L26.6641 55.0482C27.1891 54.7515 27.8863 54.7515 28.4072 55.0482L36.6953 59.8376C37.2307 60.1468 37.5648 60.7258 37.5648 61.3484V70.9148C37.5648 71.5352 37.2307 72.1142 36.6953 72.4255L28.4072 77.2128C28.1416 77.3664 27.8407 77.4453 27.5336 77.4453" fill="#83CC28"/>
<path d="M30.0949 70.8576C26.4676 70.8576 25.707 69.1925 25.707 67.796C25.707 67.6632 25.8141 67.5573 25.9471 67.5573H27.0179C27.1362 67.5573 27.2358 67.6435 27.2545 67.7603C27.4163 68.8514 27.8978 69.4017 30.0912 69.4017C31.8385 69.4017 32.5814 69.007 32.5814 68.0805C32.5814 67.5472 32.3697 67.1508 29.6554 66.8852C27.3852 66.6611 25.9824 66.161 25.9824 64.3452C25.9824 62.6727 27.3935 61.6766 29.7571 61.6766C32.4112 61.6766 33.7268 62.5979 33.8929 64.5776C33.8991 64.6461 33.8742 64.7125 33.8285 64.7623C33.7829 64.8101 33.7185 64.8391 33.6521 64.8391H32.5751C32.4631 64.8391 32.3655 64.7602 32.3427 64.6523C32.0833 63.5048 31.4566 63.1375 29.7529 63.1375C27.8459 63.1375 27.6238 63.8015 27.6238 64.2996C27.6238 64.9034 27.8853 65.0798 30.4585 65.4201C33.0068 65.7584 34.2166 66.2357 34.2166 68.0265C34.2166 69.8319 32.71 70.8674 30.0829 70.8674L30.0949 70.8576Z" fill="#83CC28"/>
<path d="M47.7947 64.3992C47.7947 64.3992 47.8153 65.3048 47.8153 66.1488V69.6376H46.5082V62.5364H47.9285L51.4585 67.7131C51.4585 67.7131 51.4379 66.8795 51.4379 66.0355V62.5364H52.745V69.6376H51.3968L47.7947 64.3992ZM56.5747 69.7508C55.0412 69.7508 53.868 68.7423 53.868 67.1676C53.868 65.593 55.0412 64.5638 56.5747 64.5638C58.0978 64.5638 59.2711 65.593 59.2711 67.1676C59.2711 68.7423 58.0978 69.7508 56.5747 69.7508ZM57.9126 67.1368C57.9126 66.2825 57.4186 65.6239 56.5747 65.6239C55.7102 65.6239 55.2368 66.2825 55.2368 67.1368C55.2368 67.991 55.7102 68.6599 56.5747 68.6599C57.4186 68.6599 57.9126 67.991 57.9126 67.1368ZM64.0671 68.8555H64.0362C63.6348 69.4935 63.0173 69.7508 62.3278 69.7508C60.8664 69.7508 59.971 68.6188 59.971 67.1368C59.971 65.7268 60.9075 64.5638 62.4204 64.5638C63.0894 64.5638 63.6554 64.8108 64.0053 65.346H64.0259C64.0156 65.1196 64.0156 64.852 64.0156 64.5021V62.5364H65.3227V69.6376H64.0774L64.0671 68.8555ZM62.6983 68.6805C63.4907 68.6805 64.0465 68.0733 64.0465 67.1368C64.0465 66.3031 63.501 65.5724 62.6571 65.5724C61.8029 65.5724 61.3089 66.3031 61.3089 67.1368C61.3089 68.0013 61.8441 68.6805 62.6983 68.6805ZM67.7235 67.569C67.847 68.3615 68.4542 68.7423 69.2055 68.7423C69.8745 68.7423 70.4714 68.4438 70.7081 68.238L71.2227 68.9481C70.9448 69.2363 70.1935 69.7508 68.9791 69.7508C67.4765 69.7508 66.365 68.8349 66.365 67.2294C66.365 65.6342 67.528 64.5638 68.9482 64.5638C70.4817 64.5638 71.4079 65.5724 71.4079 66.9C71.4079 67.1573 71.3873 67.569 71.3873 67.569H67.7235ZM68.9379 65.5415C68.1558 65.5415 67.7441 66.087 67.7029 66.7148H70.0906C70.07 66.1693 69.8642 65.5415 68.9379 65.5415ZM71.3458 70.533C71.4796 70.5845 71.6649 70.6153 71.9016 70.6153C72.3956 70.6153 72.4882 70.1728 72.4882 69.5862V62.5364H73.8158V69.5553C73.8158 70.286 73.6821 70.7903 73.4351 71.1093C73.1983 71.4181 72.7867 71.6651 72.2206 71.6651C71.7678 71.6651 71.3664 71.5622 71.3047 71.521L71.3458 70.533ZM78.5251 65.7165C79.5234 66.1282 79.9145 66.6839 79.9145 67.569C79.9145 68.8863 78.947 69.7611 77.4445 69.7611C76.23 69.7611 75.3964 69.1951 74.9333 68.6599L75.5714 67.6925C76.1271 68.2997 76.7961 68.629 77.465 68.629C78.1237 68.629 78.5765 68.31 78.5765 67.6925C78.5765 67.1368 78.206 66.9515 77.5988 66.7045L76.4873 66.262C75.7155 65.9532 75.2009 65.4078 75.2009 64.5433C75.2009 63.3083 76.1683 62.454 77.6606 62.454C78.6692 62.454 79.3999 62.876 79.8218 63.3083L79.1838 64.2654C78.7309 63.8537 78.1855 63.5553 77.5783 63.5553C76.9916 63.5553 76.5285 63.8434 76.5285 64.3683C76.5285 64.8829 76.971 65.0784 77.3415 65.2328L78.5251 65.7165Z" fill="white"/>
<rect x="3.85959" y="48.3934" width="90.052" height="35.4885" rx="17.7443" stroke="white" stroke-opacity="0.1" stroke-width="0.514583"/>
<rect x="103.781" y="48.1361" width="90.052" height="35.963" rx="17.9815" fill="#092349"/>
<path d="M137.489 71.7636C137.646 71.4908 137.744 71.1835 137.744 70.9075V61.3277C137.744 61.0517 137.646 60.7445 137.489 60.4717L127.709 66.1176L137.489 71.7636Z" fill="#2695FF"/>
<path d="M128.578 77.2025L136.875 72.4126C137.114 72.2747 137.331 72.0364 137.489 71.7636L127.709 66.1176L117.93 71.7636C118.088 72.0364 118.305 72.2747 118.544 72.4126L126.84 77.2025C127.318 77.4785 128.101 77.4785 128.578 77.2025Z" fill="#2695FF"/>
<path d="M137.488 60.4716C137.331 60.1988 137.113 59.9605 136.875 59.8225L128.578 55.0326C128.1 54.7567 127.318 54.7567 126.84 55.0326L118.544 59.8225C118.066 60.0984 117.675 60.7758 117.675 61.3277V70.9075C117.675 71.1834 117.773 71.4908 117.93 71.7635L127.709 66.1176L137.488 60.4716Z" fill="#2695FF"/>
<path d="M127.709 72.8072C124.021 72.8072 121.02 69.8062 121.02 66.1176C121.02 62.4289 124.021 59.428 127.709 59.428C130.09 59.428 132.309 60.7089 133.502 62.7707L130.607 64.446C130.01 63.4139 128.9 62.7728 127.709 62.7728C125.865 62.7728 124.365 64.2732 124.365 66.1176C124.365 67.9619 125.865 69.4624 127.709 69.4624C128.9 69.4624 130.01 68.8212 130.608 67.789L133.503 69.4642C132.31 71.5262 130.09 72.8072 127.709 72.8072Z" fill="white"/>
<path d="M134.399 65.7459H133.656V65.0027H132.913V65.7459H132.169V66.4892H132.913V67.2325H133.656V66.4892H134.399V65.7459Z" fill="white"/>
<path d="M137.186 65.7459H136.443V65.0027H135.7V65.7459H134.957V66.4892H135.7V67.2325H136.443V66.4892H137.186V65.7459Z" fill="white"/>
<path d="M152.564 68.7325C152.162 69.1647 151.39 69.7411 149.991 69.7411C147.912 69.7411 146.306 68.3311 146.306 66.0772C146.306 63.8234 147.932 62.4134 149.991 62.4134C151.38 62.4134 152.183 63 152.471 63.2882L151.998 64.3791C151.792 64.1115 150.989 63.5661 149.981 63.5661C148.746 63.5661 147.685 64.3791 147.685 66.0567C147.685 67.5901 148.643 68.5884 150.063 68.5884C151.01 68.5884 151.668 68.1767 152.09 67.7239L152.564 68.7325ZM157.31 61.4666L158.124 61.8268L153.853 70.6056L153.05 70.2351L157.31 61.4666ZM165.001 68.7325C164.6 69.1647 163.828 69.7411 162.428 69.7411C160.349 69.7411 158.744 68.3311 158.744 66.0772C158.744 63.8234 160.37 62.4134 162.428 62.4134C163.817 62.4134 164.62 63 164.908 63.2882L164.435 64.3791C164.229 64.1115 163.426 63.5661 162.418 63.5661C161.183 63.5661 160.123 64.3791 160.123 66.0567C160.123 67.5901 161.08 68.5884 162.5 68.5884C163.447 68.5884 164.106 68.1767 164.528 67.7239L165.001 68.7325ZM169.295 68.8148H168.307V66.561H166.043V65.5832H168.307V63.3191H169.295V65.5832H171.559V66.561H169.295V68.8148ZM176.433 68.8148H175.445V66.561H173.181V65.5832H175.445V63.3191H176.433V65.5832H178.697V66.561H176.433V68.8148Z" fill="white"/>
<rect x="104.039" y="48.3934" width="89.5374" height="35.4484" rx="17.7242" stroke="white" stroke-opacity="0.1" stroke-width="0.514583"/>
<rect x="203.775" y="48.1361" width="69.5454" height="36.0208" rx="18.0104" fill="#092349"/>
<path d="M237.813 61.4823C237.813 61.1016 237.731 60.7652 237.567 60.4765C237.405 60.1925 237.163 59.9546 236.838 59.7664C234.156 58.22 231.472 56.6783 228.79 55.1304C228.068 54.7131 227.367 54.7284 226.649 55.1517C225.582 55.7811 220.237 58.8431 218.645 59.7655C217.989 60.1453 217.67 60.7264 217.67 61.4816C217.669 64.5915 217.67 67.7014 217.669 70.8113C217.669 71.1836 217.747 71.5136 217.904 71.7979C218.066 72.0904 218.312 72.3349 218.644 72.5273C220.237 73.4497 225.582 76.5115 226.649 77.1412C227.367 77.5647 228.068 77.5798 228.791 77.1625C231.472 75.6144 234.156 74.0727 236.839 72.5263C237.171 72.334 237.417 72.0894 237.579 71.7971C237.736 71.5127 237.814 71.1828 237.814 70.8104C237.814 70.8104 237.814 64.5923 237.813 61.4823Z" fill="#8A3BFF"/>
<path d="M227.772 66.1161L217.904 71.7978C218.066 72.0904 218.311 72.3349 218.644 72.5273C220.237 73.4497 225.582 76.5114 226.649 77.1412C227.367 77.5647 228.068 77.5798 228.791 77.1624C231.472 75.6144 234.156 74.0727 236.839 72.5263C237.171 72.334 237.417 72.0893 237.578 71.7971L227.772 66.1161Z" fill="#8A3BFF"/>
<path d="M237.813 61.4822C237.813 61.1015 237.731 60.7651 237.567 60.4765L227.772 66.1161L237.579 71.797C237.736 71.5127 237.814 71.1828 237.814 70.8104C237.814 70.8104 237.814 64.5922 237.813 61.4822Z" fill="#8A3BFF"/>
<path d="M233.582 63.9923V65.0543H234.644V63.9923H235.175V65.0543H236.237V65.5853H235.175V66.6473H236.237V67.1783H235.175V68.2404H234.644V67.1783H233.582V68.2404H233.051V67.1783H231.989V66.6473H233.051V65.5853H231.989V65.0543H233.051V63.9923H233.582ZM234.644 65.5853H233.582V66.6473H234.644V65.5853Z" fill="white"/>
<path d="M227.794 58.6585C230.564 58.6585 232.982 60.1629 234.278 62.3991L234.265 62.3775L231.006 64.2541C230.364 63.1669 229.187 62.4332 227.836 62.4181L227.794 62.4178C225.734 62.4178 224.065 64.0873 224.065 66.1465C224.064 66.7955 224.234 67.4334 224.557 67.9964C225.2 69.1184 226.408 69.8752 227.794 69.8752C229.188 69.8752 230.403 69.1088 231.043 67.9748L231.027 68.002L234.282 69.8873C233 72.1045 230.615 73.6042 227.877 73.6341L227.794 73.6346C225.015 73.6346 222.59 72.1209 221.297 69.8729C220.667 68.7755 220.306 67.5032 220.306 66.1465C220.306 62.011 223.658 58.6584 227.794 58.6584L227.794 58.6585Z" fill="white"/>
<path d="M252.634 68.7614C252.233 69.1936 251.461 69.77 250.061 69.77C247.982 69.77 246.377 68.36 246.377 66.1061C246.377 63.8523 248.003 62.4423 250.061 62.4423C251.45 62.4423 252.253 63.0289 252.541 63.3171L252.068 64.408C251.862 64.1404 251.059 63.595 250.051 63.595C248.816 63.595 247.756 64.408 247.756 66.0856C247.756 67.619 248.713 68.6173 250.133 68.6173C251.08 68.6173 251.739 68.2056 252.161 67.7528L252.634 68.7614ZM256.527 67.3926H255.209L254.849 69.523H254.046L254.407 67.3926H253.316V66.631H254.53L254.777 65.1284H253.655V64.3668H254.901L255.261 62.2262H256.053L255.703 64.3668H257.031L257.391 62.2262H258.184L257.834 64.3668H258.945V65.1284H257.7L257.463 66.631H258.606V67.3926H257.329L256.979 69.523H256.177L256.527 67.3926ZM255.58 65.1284L255.333 66.631H256.66L256.897 65.1284H255.58Z" fill="white"/>
<rect x="204.032" y="48.3934" width="69.0308" height="35.5062" rx="17.7531" stroke="white" stroke-opacity="0.1" stroke-width="0.514583"/>
<rect x="283.097" y="49.6798" width="79.8163" height="33.4479" rx="16.7239" fill="#092349"/>
<path fill-rule="evenodd" clip-rule="evenodd" d="M312.582 69.6155L301.092 76.4381L315.97 75.4286L317.115 60.4272L312.582 69.6155Z" fill="url(#paint0_linear_13678_64353)"/>
<path fill-rule="evenodd" clip-rule="evenodd" d="M315.994 75.4183L314.715 66.5926L311.232 71.1918L315.994 75.4183Z" fill="url(#paint1_linear_13678_64353)"/>
<path fill-rule="evenodd" clip-rule="evenodd" d="M316.011 75.4184L306.643 74.683L301.142 76.419L316.011 75.4184Z" fill="url(#paint2_linear_13678_64353)"/>
<path fill-rule="evenodd" clip-rule="evenodd" d="M301.155 76.4209L303.495 68.7542L298.346 69.8553L301.155 76.4209Z" fill="url(#paint3_linear_13678_64353)"/>
<path fill-rule="evenodd" clip-rule="evenodd" d="M311.231 71.2174L309.078 62.7828L302.916 68.5593L311.231 71.2174Z" fill="url(#paint4_linear_13678_64353)"/>
<path fill-rule="evenodd" clip-rule="evenodd" d="M316.627 62.9016L310.802 58.1439L309.18 63.3881L316.627 62.9016Z" fill="url(#paint5_linear_13678_64353)"/>
<path fill-rule="evenodd" clip-rule="evenodd" d="M313.902 56.4476L310.476 58.341L308.315 56.4223L313.902 56.4476Z" fill="url(#paint6_linear_13678_64353)"/>
<path fill-rule="evenodd" clip-rule="evenodd" d="M296.99 72.4271L298.426 69.8095L297.265 66.6913L296.99 72.4271Z" fill="url(#paint7_linear_13678_64353)"/>
<path fill-rule="evenodd" clip-rule="evenodd" d="M297.188 66.5927L298.356 69.906L303.432 68.7673L309.226 63.3819L310.862 58.1876L308.287 56.3694L303.909 58.0078C302.53 59.2906 299.853 61.829 299.757 61.8767C299.661 61.9254 297.989 65.0854 297.188 66.5927Z" fill="white"/>
<path fill-rule="evenodd" clip-rule="evenodd" d="M301.289 60.6406C304.279 57.6767 308.132 55.9256 309.611 57.4177C311.089 58.9098 309.522 62.5359 306.533 65.4988C303.543 68.4617 299.737 70.3093 298.259 68.8172C296.781 67.3261 298.3 63.6035 301.289 60.6406Z" fill="url(#paint8_linear_13678_64353)"/>
<path fill-rule="evenodd" clip-rule="evenodd" d="M301.155 76.4178L303.477 68.7267L311.189 71.2041C308.4 73.8186 305.299 76.0288 301.155 76.4178Z" fill="url(#paint9_linear_13678_64353)"/>
<path fill-rule="evenodd" clip-rule="evenodd" d="M309.237 63.3667L311.216 71.2081C313.545 68.7592 315.636 66.1265 316.659 62.87L309.237 63.3667Z" fill="url(#paint10_linear_13678_64353)"/>
<path fill-rule="evenodd" clip-rule="evenodd" d="M316.639 62.9097C317.431 60.5187 317.614 57.0886 313.878 56.4517L310.813 58.1449L316.639 62.9097Z" fill="url(#paint11_linear_13678_64353)"/>
<path fill-rule="evenodd" clip-rule="evenodd" d="M296.99 72.3925C297.1 76.3387 299.947 76.3975 301.16 76.4321L298.359 69.8897L296.99 72.3925Z" fill="#9E1209"/>
<path fill-rule="evenodd" clip-rule="evenodd" d="M309.248 63.3789C311.037 64.479 314.644 66.6882 314.717 66.7288C314.831 66.7928 316.272 64.2982 316.599 62.8883L309.248 63.3789Z" fill="url(#paint12_radial_13678_64353)"/>
<path fill-rule="evenodd" clip-rule="evenodd" d="M303.474 68.7267L306.578 74.7154C308.414 73.72 309.851 72.5073 311.167 71.2081L303.474 68.7267Z" fill="url(#paint13_radial_13678_64353)"/>
<path fill-rule="evenodd" clip-rule="evenodd" d="M298.347 69.8979L297.907 75.135C298.737 76.2686 299.879 76.3671 301.076 76.2787C300.21 74.1223 298.479 69.8106 298.347 69.8979Z" fill="url(#paint14_linear_13678_64353)"/>
<path fill-rule="evenodd" clip-rule="evenodd" d="M310.795 58.1581L316.961 59.0235C316.632 57.6289 315.621 56.729 313.899 56.4476L310.795 58.1581Z" fill="url(#paint15_linear_13678_64353)"/>
<path d="M328.035 67.0221H327.397V69.9038H326.059V62.8025H328.344C329.095 62.8025 329.692 62.9672 330.134 63.3068C330.577 63.6464 330.896 64.1919 330.896 64.8712C330.896 66.0959 330.227 66.5899 329.362 66.8574L331.277 69.9038H329.712L328.035 67.0221ZM328.086 65.9724C328.518 65.9724 328.848 65.9415 329.105 65.7459C329.373 65.5504 329.517 65.3137 329.517 64.9123C329.517 64.5212 329.373 64.2639 329.105 64.0787C328.848 63.8832 328.518 63.8523 328.086 63.8523H327.386V65.9724H328.086ZM333.203 67.5882C333.203 68.3292 333.327 68.9158 334.088 68.9158C334.881 68.9158 335.179 68.288 335.179 67.4544V64.9226H336.497V69.9038H335.22L335.21 69.2039C334.922 69.6979 334.387 69.9964 333.666 69.9964C332.236 69.9964 331.886 69.0702 331.886 67.8763V64.9226H333.203V67.5882ZM337.862 62.8025H339.179V65.0255C339.179 65.396 339.158 65.6122 339.158 65.6122H339.189C339.621 65.0461 340.188 64.8094 340.856 64.8094C342.308 64.8094 343.213 65.9518 343.213 67.4132C343.213 68.8334 342.277 69.9964 340.764 69.9964C340.064 69.9964 339.519 69.7494 339.127 69.1834H339.107L339.076 69.9038H337.862V62.8025ZM340.486 65.8797C339.694 65.8797 339.138 66.4869 339.138 67.4235C339.138 68.2571 339.683 68.9878 340.527 68.9878C341.381 68.9878 341.875 68.2571 341.875 67.4235C341.875 66.559 341.34 65.8797 340.486 65.8797ZM343.315 64.9226H344.694L346.011 68.4527L347.308 64.9226H348.677L346.361 70.5727C346.001 71.4475 345.59 71.8695 344.89 71.8695C344.18 71.8695 343.716 71.6636 343.716 71.6636L343.984 70.6551C343.984 70.6551 344.334 70.7786 344.581 70.7786C344.838 70.7786 345.054 70.7065 345.157 70.4492L345.373 69.9346L343.315 64.9226Z" fill="white"/>
<rect x="283.354" y="49.9371" width="79.3018" height="32.9333" rx="16.4666" stroke="white" stroke-opacity="0.1" stroke-width="0.514583"/>
<rect x="79.7605" y="1.30906" width="81.8187" height="32.8745" rx="16.4372" fill="#092349"/>
<rect x="93.6541" y="7.99864" width="20.0687" height="19.4953" rx="2.57291" fill="#61DAFB"/>
<g clip-path="url(#clip0_13678_64353)">
<path d="M103.688 19.1249C104.451 19.1249 105.068 18.5077 105.068 17.7463C105.068 16.9849 104.451 16.3677 103.688 16.3677C102.926 16.3677 102.309 16.9849 102.309 17.7463C102.309 18.5077 102.926 19.1249 103.688 19.1249Z" fill="white"/>
<path fill-rule="evenodd" clip-rule="evenodd" d="M97.0824 16.8861C96.7476 17.188 96.607 17.4793 96.607 17.7463C96.607 18.0133 96.7476 18.3046 97.0824 18.6065C97.4172 18.9084 97.9197 19.1951 98.5681 19.4425C99.8628 19.9363 101.673 20.2485 103.689 20.2485C105.704 20.2485 107.515 19.9363 108.809 19.4425C109.458 19.1951 109.96 18.9084 110.295 18.6065C110.63 18.3046 110.77 18.0133 110.77 17.7463C110.77 17.4793 110.63 17.188 110.295 16.8861C109.96 16.5842 109.458 16.2975 108.809 16.0502C107.515 15.5563 105.704 15.2441 103.689 15.2441C101.673 15.2441 99.8628 15.5563 98.5681 16.0502C97.9197 16.2975 97.4172 16.5842 97.0824 16.8861ZM98.3381 15.4481C99.7232 14.9197 101.615 14.5996 103.689 14.5996C105.762 14.5996 107.654 14.9197 109.039 15.4481C109.731 15.7119 110.313 16.0338 110.727 16.4077C111.142 16.7816 111.415 17.2334 111.415 17.7463C111.415 18.2592 111.142 18.711 110.727 19.0849C110.313 19.4588 109.731 19.7808 109.039 20.0445C107.654 20.5729 105.762 20.893 103.689 20.893C101.615 20.893 99.7232 20.5729 98.3381 20.0445C97.6466 19.7808 97.0648 19.4588 96.6502 19.0849C96.2356 18.711 95.9619 18.2592 95.9619 17.7463C95.9619 17.2334 96.2356 16.7816 96.6502 16.4077C97.0648 16.0338 97.6466 15.7119 98.3381 15.4481Z" fill="white"/>
<path fill-rule="evenodd" clip-rule="evenodd" d="M101.131 11.6003C100.702 11.4616 100.379 11.4856 100.148 11.6191C99.9164 11.7526 99.7343 12.0199 99.6399 12.4606C99.5456 12.9012 99.5484 13.4793 99.6582 14.164C99.8774 15.5311 100.512 17.2535 101.52 18.9974C102.528 20.7414 103.703 22.1516 104.779 23.0248C105.317 23.4621 105.817 23.7536 106.246 23.8923C106.675 24.031 106.998 24.0071 107.23 23.8735C107.461 23.74 107.643 23.4727 107.738 23.0321C107.832 22.5915 107.829 22.0133 107.719 21.3286C107.5 19.9616 106.866 18.2392 105.858 16.4952C104.85 14.7512 103.674 13.3411 102.599 12.4678C102.06 12.0305 101.56 11.739 101.131 11.6003ZM103.006 11.9677C104.156 12.902 105.38 14.3788 106.416 16.173C107.453 17.9671 108.122 19.764 108.356 21.2267C108.473 21.9568 108.485 22.6212 108.368 23.1669C108.251 23.7125 107.997 24.1752 107.552 24.4317C107.107 24.6881 106.579 24.6772 106.048 24.5055C105.516 24.3337 104.946 23.9913 104.372 23.5249C103.221 22.5906 101.998 21.1138 100.961 19.3196C99.9243 17.5255 99.2558 15.7286 99.0212 14.2659C98.9041 13.5358 98.8923 12.8714 99.0091 12.3258C99.126 11.7801 99.3807 11.3174 99.8253 11.061C100.27 10.8045 100.798 10.8154 101.33 10.9872C101.861 11.1589 102.431 11.5013 103.006 11.9677Z" fill="white"/>
<path fill-rule="evenodd" clip-rule="evenodd" d="M107.737 12.4605C107.643 12.0199 107.461 11.7526 107.229 11.6191C106.998 11.4856 106.675 11.4616 106.246 11.6003C105.817 11.739 105.317 12.0305 104.779 12.4678C103.703 13.341 102.527 14.7512 101.52 16.4952C100.512 18.2392 99.8772 19.9616 99.658 21.3286C99.5482 22.0133 99.5454 22.5915 99.6397 23.0321C99.7341 23.4727 99.9162 23.74 100.148 23.8735C100.379 24.0071 100.702 24.031 101.131 23.8923C101.56 23.7536 102.06 23.4621 102.599 23.0248C103.674 22.1516 104.85 20.7414 105.858 18.9974C106.865 17.2535 107.5 15.531 107.719 14.164C107.829 13.4793 107.832 12.9012 107.737 12.4605ZM108.356 14.2659C108.121 15.7286 107.453 17.5255 106.416 19.3196C105.379 21.1138 104.156 22.5906 103.005 23.5249C102.431 23.9913 101.861 24.3337 101.33 24.5054C100.798 24.6772 100.27 24.6881 99.8251 24.4317C99.3805 24.1752 99.1257 23.7125 99.0089 23.1669C98.8921 22.6212 98.9039 21.9568 99.021 21.2267C99.2556 19.764 99.9241 17.9671 100.961 16.173C101.998 14.3788 103.221 12.902 104.372 11.9677C104.946 11.5013 105.516 11.1589 106.047 10.9872C106.579 10.8154 107.107 10.8045 107.552 11.0609C107.997 11.3174 108.251 11.7801 108.368 12.3258C108.485 12.8714 108.473 13.5358 108.356 14.2659Z" fill="white"/>
</g>
<path d="M124.642 18.3646H124.004V21.2463H122.666V14.1451H124.951C125.702 14.1451 126.299 14.3097 126.742 14.6494C127.184 14.989 127.504 15.5344 127.504 16.2137C127.504 17.4384 126.835 17.9324 125.97 18.2L127.884 21.2463H126.32L124.642 18.3646ZM124.694 17.3149C125.126 17.3149 125.455 17.284 125.713 17.0885C125.98 16.8929 126.124 16.6562 126.124 16.2549C126.124 15.8638 125.98 15.6065 125.713 15.4212C125.455 15.2257 125.126 15.1948 124.694 15.1948H123.994V17.3149H124.694ZM129.465 19.1777C129.588 19.9701 130.195 20.3509 130.947 20.3509C131.616 20.3509 132.212 20.0525 132.449 19.8466L132.964 20.5568C132.686 20.8449 131.935 21.3595 130.72 21.3595C129.218 21.3595 128.106 20.4436 128.106 18.8381C128.106 17.2429 129.269 16.1725 130.689 16.1725C132.223 16.1725 133.149 17.1811 133.149 18.5087C133.149 18.766 133.128 19.1777 133.128 19.1777H129.465ZM130.679 17.1502C129.897 17.1502 129.485 17.6957 129.444 18.3235H131.832C131.811 17.778 131.605 17.1502 130.679 17.1502ZM137.119 20.67C136.913 21.0302 136.337 21.3595 135.596 21.3595C134.628 21.3595 133.846 20.8346 133.846 19.7952C133.846 18.7557 134.865 18.3543 135.894 18.2823L137.088 18.2V18.0662C137.088 17.4281 136.666 17.1296 135.976 17.1296C135.318 17.1296 134.772 17.3766 134.556 17.5413L134.155 16.6974C134.536 16.471 135.235 16.1725 136.1 16.1725C136.985 16.1725 137.489 16.3989 137.86 16.7489C138.22 17.0988 138.405 17.5516 138.405 18.3955V21.2463H137.139L137.119 20.67ZM136.203 19.0542C135.503 19.0953 135.163 19.3321 135.163 19.754C135.163 20.176 135.482 20.4641 136.028 20.4641C136.542 20.4641 136.923 20.1657 137.098 19.9187V19.0027L136.203 19.0542ZM143.475 19.7231L143.846 20.6906C143.743 20.7832 143.228 21.3595 141.901 21.3595C140.542 21.3595 139.286 20.423 139.286 18.7969C139.286 17.1605 140.583 16.1725 141.921 16.1725C143.177 16.1725 143.671 16.6768 143.805 16.8106L143.444 17.7986C143.29 17.6545 142.847 17.2737 142.076 17.2737C141.293 17.2737 140.666 17.8192 140.666 18.7351C140.666 19.6511 141.293 20.248 142.148 20.248C143.002 20.248 143.475 19.7231 143.475 19.7231ZM146.187 19.3115C146.187 20.0731 146.321 20.2583 146.784 20.2583C147.052 20.2583 147.258 20.176 147.258 20.176L147.33 21.1948C147.268 21.2154 146.877 21.3595 146.321 21.3595C145.302 21.3595 144.88 20.8964 144.88 19.5996V17.2943H144.139V16.2754H144.88V14.8552H146.187V16.2754H147.34V17.2943H146.187V19.3115Z" fill="white"/>
<rect x="80.0178" y="1.56635" width="81.3041" height="32.3599" rx="16.18" stroke="white" stroke-opacity="0.1" stroke-width="0.514583"/>
<rect y="1.30906" width="69.9833" height="32.8745" rx="16.4372" fill="#092349"/>
<rect x="13.8938" y="7.99864" width="20.0687" height="19.4953" rx="2.57291" fill="#007D9C"/>
<path d="M16.8688 16.7605C16.8364 16.7605 16.8283 16.7444 16.8445 16.7201L17.0145 16.5015C17.0307 16.4772 17.0712 16.461 17.1036 16.461H19.9939C20.0263 16.461 20.0344 16.4853 20.0182 16.5096L19.8806 16.7201C19.8644 16.7444 19.8239 16.7686 19.7996 16.7686L16.8688 16.7605Z" fill="white"/>
<path d="M15.6464 17.5053C15.614 17.5053 15.6059 17.4891 15.6221 17.4648L15.7921 17.2462C15.8083 17.2219 15.8488 17.2057 15.8812 17.2057H19.573C19.6054 17.2057 19.6216 17.23 19.6135 17.2543L19.5487 17.4486C19.5406 17.481 19.5082 17.4972 19.4758 17.4972L15.6464 17.5053Z" fill="white"/>
<path d="M17.6059 18.2501C17.5735 18.2501 17.5654 18.2259 17.5816 18.2016L17.6949 17.9992C17.7111 17.9749 17.7435 17.9506 17.7759 17.9506H19.3951C19.4275 17.9506 19.4437 17.9749 19.4437 18.0073L19.4275 18.2016C19.4275 18.2339 19.3951 18.2582 19.3708 18.2582L17.6059 18.2501Z" fill="white"/>
<path d="M26.0096 16.6147C25.4996 16.7443 25.1515 16.8414 24.6495 16.9709C24.5281 17.0033 24.52 17.0114 24.4147 16.89C24.2933 16.7524 24.2042 16.6633 24.0342 16.5823C23.5241 16.3314 23.0303 16.4042 22.5688 16.7038C22.0183 17.06 21.7349 17.5863 21.743 18.242C21.7511 18.8897 22.1964 19.4241 22.836 19.5131C23.3865 19.586 23.848 19.3917 24.2123 18.9788C24.2852 18.8897 24.3499 18.7926 24.4309 18.6792C24.1394 18.6792 23.7751 18.6792 22.8684 18.6792C22.6983 18.6792 22.6579 18.574 22.7145 18.4363C22.8198 18.1854 23.0141 17.7644 23.1274 17.5539C23.1517 17.5053 23.2084 17.4243 23.3298 17.4243C23.7427 17.4243 25.2648 17.4243 26.2768 17.4243C26.2606 17.6429 26.2606 17.8615 26.2282 18.0801C26.1392 18.663 25.9206 19.1974 25.5644 19.6669C24.9814 20.4361 24.2204 20.9137 23.257 21.0433C22.4635 21.1485 21.7268 20.9947 21.0791 20.5089C20.48 20.0556 20.14 19.4564 20.0509 18.7116C19.9457 17.8291 20.2047 17.0357 20.7391 16.3395C21.3139 15.5865 22.0749 15.1088 23.006 14.9388C23.767 14.8012 24.4957 14.8903 25.1514 15.3355C25.5805 15.6189 25.8882 16.0075 26.0906 16.4771C26.1392 16.55 26.1068 16.5904 26.0096 16.6147Z" fill="white"/>
<path d="M28.6892 21.0919C27.9524 21.0757 27.2805 20.8652 26.7137 20.3794C26.2361 19.9665 25.9365 19.4403 25.8394 18.8169C25.6936 17.902 25.9446 17.0924 26.4951 16.3718C27.0862 15.5946 27.7986 15.1898 28.762 15.0198C29.5878 14.8741 30.3651 14.955 31.0694 15.4327C31.709 15.8699 32.1057 16.4609 32.211 17.2381C32.3486 18.3311 32.0329 19.2217 31.2799 19.9827C30.7456 20.5251 30.0898 20.8652 29.3369 21.019C29.1183 21.0595 28.8997 21.0676 28.6892 21.0919ZM30.6161 17.821C30.608 17.7158 30.608 17.6348 30.5918 17.5539C30.446 16.7523 29.7093 16.299 28.9402 16.4771C28.1872 16.6471 27.7015 17.1248 27.5233 17.8858C27.3776 18.5173 27.6853 19.1569 28.2682 19.416C28.7135 19.6103 29.1588 19.586 29.5878 19.3674C30.2274 19.0354 30.5756 18.5173 30.6161 17.821Z" fill="white"/>
<path d="M46.2713 18.3749V17.3355H49.2765V20.1863C49.0295 20.423 48.1135 21.3698 46.2095 21.3698C44.1924 21.3698 42.5251 20.0936 42.5251 17.706C42.5251 15.4212 44.1924 14.0421 46.189 14.0421C48.0209 14.0421 48.8442 15.0199 49.0912 15.2771L48.1958 16.0696C47.8356 15.6579 47.2284 15.1742 46.189 15.1742C44.8922 15.1742 43.9042 16.1005 43.9042 17.6957C43.9042 19.2909 44.9231 20.2171 46.2404 20.2171C47.5475 20.2171 47.9797 19.682 47.9797 19.682V18.3749H46.2713ZM52.9724 21.3595C51.4389 21.3595 50.2657 20.3509 50.2657 18.7763C50.2657 17.2017 51.4389 16.1725 52.9724 16.1725C54.4955 16.1725 55.6688 17.2017 55.6688 18.7763C55.6688 20.3509 54.4955 21.3595 52.9724 21.3595ZM54.3103 18.7454C54.3103 17.8912 53.8163 17.2326 52.9724 17.2326C52.1079 17.2326 51.6345 17.8912 51.6345 18.7454C51.6345 19.5996 52.1079 20.2686 52.9724 20.2686C53.8163 20.2686 54.3103 19.5996 54.3103 18.7454Z" fill="white"/>
<rect x="0.257291" y="1.56635" width="69.4687" height="32.3599" rx="16.18" stroke="white" stroke-opacity="0.1" stroke-width="0.514583"/>
<defs>
<linearGradient id="paint0_linear_13678_64353" x1="314.672" y1="78.2633" x2="310.426" y2="70.7677" gradientUnits="userSpaceOnUse">
<stop stop-color="#FB7655"/>
<stop offset="0.41" stop-color="#E42B1E"/>
<stop offset="0.99" stop-color="#990000"/>
<stop offset="1" stop-color="#990000"/>
</linearGradient>
<linearGradient id="paint1_linear_13678_64353" x1="316.787" y1="71.9666" x2="311.316" y2="68.2949" gradientUnits="userSpaceOnUse">
<stop stop-color="#871101"/>
<stop offset="0.99" stop-color="#911209"/>
<stop offset="1" stop-color="#911209"/>
</linearGradient>
<linearGradient id="paint2_linear_13678_64353" x1="312.409" y1="78.4905" x2="306.938" y2="74.8189" gradientUnits="userSpaceOnUse">
<stop stop-color="#871101"/>
<stop offset="0.99" stop-color="#911209"/>
<stop offset="1" stop-color="#911209"/>
</linearGradient>
<linearGradient id="paint3_linear_13678_64353" x1="300.921" y1="69.3088" x2="301.769" y2="74.8213" gradientUnits="userSpaceOnUse">
<stop stop-color="white"/>
<stop offset="0.23" stop-color="#E57252"/>
<stop offset="0.46" stop-color="#DE3B20"/>
<stop offset="0.99" stop-color="#A60003"/>
<stop offset="1" stop-color="#A60003"/>
</linearGradient>
<linearGradient id="paint4_linear_13678_64353" x1="306.755" y1="64.1617" x2="307.068" y2="69.7875" gradientUnits="userSpaceOnUse">
<stop stop-color="white"/>
<stop offset="0.23" stop-color="#E4714E"/>
<stop offset="0.56" stop-color="#BE1A0D"/>
<stop offset="0.99" stop-color="#A80D00"/>
<stop offset="1" stop-color="#A80D00"/>
</linearGradient>
<linearGradient id="paint5_linear_13678_64353" x1="311.933" y1="58.9617" x2="312.868" y2="62.9936" gradientUnits="userSpaceOnUse">
<stop stop-color="white"/>
<stop offset="0.18" stop-color="#E46342"/>
<stop offset="0.4" stop-color="#C82410"/>
<stop offset="0.99" stop-color="#A80D00"/>
<stop offset="1" stop-color="#A80D00"/>
</linearGradient>
<linearGradient id="paint6_linear_13678_64353" x1="309.075" y1="57.5417" x2="313.107" y2="55.5259" gradientUnits="userSpaceOnUse">
<stop stop-color="white"/>
<stop offset="0.54" stop-color="#C81F11"/>
<stop offset="0.99" stop-color="#BF0905"/>
<stop offset="1" stop-color="#BF0905"/>
</linearGradient>
<linearGradient id="paint7_linear_13678_64353" x1="297.387" y1="67.9035" x2="297.719" y2="71.2258" gradientUnits="userSpaceOnUse">
<stop stop-color="white"/>
<stop offset="0.31" stop-color="#DE4024"/>
<stop offset="0.99" stop-color="#BF190B"/>
<stop offset="1" stop-color="#BF190B"/>
</linearGradient>
<linearGradient id="paint8_linear_13678_64353" x1="295.106" y1="72.1238" x2="310.705" y2="56.0841" gradientUnits="userSpaceOnUse">
<stop stop-color="#BD0012"/>
<stop offset="0.07" stop-color="white"/>
<stop offset="0.17" stop-color="white"/>
<stop offset="0.27" stop-color="#C82F1C"/>
<stop offset="0.33" stop-color="#820C01"/>
<stop offset="0.46" stop-color="#A31601"/>
<stop offset="0.72" stop-color="#B31301"/>
<stop offset="0.99" stop-color="#E82609"/>
<stop offset="1" stop-color="#E82609"/>
</linearGradient>
<linearGradient id="paint9_linear_13678_64353" x1="307.054" y1="73.7417" x2="302.356" y2="72.5821" gradientUnits="userSpaceOnUse">
<stop stop-color="#8C0C01"/>
<stop offset="0.54" stop-color="#990C00"/>
<stop offset="0.99" stop-color="#A80D0E"/>
<stop offset="1" stop-color="#A80D0E"/>
</linearGradient>
<linearGradient id="paint10_linear_13678_64353" x1="315.124" y1="68.1025" x2="310.95" y2="64.3615" gradientUnits="userSpaceOnUse">
<stop stop-color="#7E110B"/>
<stop offset="0.99" stop-color="#9E0C00"/>
<stop offset="1" stop-color="#9E0C00"/>
</linearGradient>
<linearGradient id="paint11_linear_13678_64353" x1="316.658" y1="61.2385" x2="314.579" y2="59.0158" gradientUnits="userSpaceOnUse">
<stop stop-color="#79130D"/>
<stop offset="0.99" stop-color="#9E120B"/>
<stop offset="1" stop-color="#9E120B"/>
</linearGradient>
<radialGradient id="paint12_radial_13678_64353" cx="0" cy="0" r="1" gradientUnits="userSpaceOnUse" gradientTransform="translate(311.6 64.4331) scale(5.11496)">
<stop stop-color="#A80D00"/>
<stop offset="0.99" stop-color="#7E0E08"/>
<stop offset="1" stop-color="#7E0E08"/>
</radialGradient>
<radialGradient id="paint13_radial_13678_64353" cx="0" cy="0" r="1" gradientUnits="userSpaceOnUse" gradientTransform="translate(304.517 71.1737) scale(6.79966)">
<stop stop-color="#A30C00"/>
<stop offset="0.99" stop-color="#800E08"/>
<stop offset="1" stop-color="#800E08"/>
</radialGradient>
<linearGradient id="paint14_linear_13678_64353" x1="299.7" y1="76.4134" x2="298.006" y2="70.665" gradientUnits="userSpaceOnUse">
<stop stop-color="#8B2114"/>
<stop offset="0.43" stop-color="#9E100A"/>
<stop offset="0.99" stop-color="#B3100C"/>
<stop offset="1" stop-color="#B3100C"/>
</linearGradient>
<linearGradient id="paint15_linear_13678_64353" x1="312.698" y1="57.3646" x2="316.497" y2="59.0414" gradientUnits="userSpaceOnUse">
<stop stop-color="#B31000"/>
<stop offset="0.44" stop-color="#910F08"/>
<stop offset="0.99" stop-color="#791C12"/>
<stop offset="1" stop-color="#791C12"/>
</linearGradient>
<clipPath id="clip0_13678_64353">
<rect width="15.4816" height="13.7614" fill="white" transform="translate(95.9478 10.8656)"/>
</clipPath>
</defs>
</svg>
