<svg width="41" height="41" viewBox="0 0 41 41" fill="none" xmlns="http://www.w3.org/2000/svg">
<path d="M5.5625 8.10882C5.5625 7.00425 6.45793 6.10883 7.5625 6.10883H33.6218C34.7264 6.10883 35.6218 7.00426 35.6218 8.10883V12.0416H5.5625V8.10882Z" fill="#BFBAFC"/>
<path d="M35.6221 33.3768C35.6221 34.4814 34.7266 35.3768 33.6221 35.3768L7.56276 35.3768C6.45819 35.3768 5.56277 34.4814 5.56277 33.3768L5.56277 13.6234L35.6221 13.6234L35.6221 33.3768Z" fill="#9D97F4"/>
<path d="M8.72656 9.04406C8.72656 8.51477 9.15564 8.08569 9.68493 8.08569C10.2142 8.08569 10.6433 8.51477 10.6433 9.04406C10.6433 9.57335 10.2142 10.0024 9.68493 10.0024C9.15564 10.0024 8.72656 9.57335 8.72656 9.04406Z" fill="white"/>
<path d="M11.9214 9.04406C11.9214 8.51477 12.3505 8.08569 12.8798 8.08569C13.409 8.08569 13.8381 8.51477 13.8381 9.04406C13.8381 9.57335 13.409 10.0024 12.8798 10.0024C12.3505 10.0024 11.9214 9.57335 11.9214 9.04406Z" fill="white"/>
<path d="M15.1152 9.04406C15.1152 8.51477 15.5443 8.08569 16.0736 8.08569C16.6029 8.08569 17.032 8.51477 17.032 9.04406C17.032 9.57335 16.6029 10.0024 16.0736 10.0024C15.5443 10.0024 15.1152 9.57335 15.1152 9.04406Z" fill="white"/>
<path fill-rule="evenodd" clip-rule="evenodd" d="M15.4555 18.9842L16.5444 20.0158L12.533 24.25L16.5444 28.4842L15.4555 29.5158L10.4668 24.25L15.4555 18.9842Z" fill="white"/>
<path fill-rule="evenodd" clip-rule="evenodd" d="M26.0445 29.5158L24.9556 28.4842L28.967 24.25L24.9556 20.0158L26.0445 18.9842L31.0332 24.25L26.0445 29.5158Z" fill="white"/>
<path fill-rule="evenodd" clip-rule="evenodd" d="M17.2837 31.2777L21.7837 16.7777L23.2163 17.2223L18.7163 31.7223L17.2837 31.2777Z" fill="white"/>
</svg>
