<svg width="41" height="41" viewBox="0 0 41 41" fill="none" xmlns="http://www.w3.org/2000/svg">
<path fill-rule="evenodd" clip-rule="evenodd" d="M28.5007 26.5C29.7561 24.8287 30.5 22.7512 30.5 20.5C30.5 18.2488 29.7561 16.1713 28.5007 14.5H38.3824C38.9996 14.5 39.5 14.9477 39.5 15.5V25.5C39.5 26.0523 38.9996 26.5 38.3824 26.5H28.5007ZM12.4993 26.5H2.61765C2.00039 26.5 1.5 26.0523 1.5 25.5V15.5C1.5 14.9477 2.00039 14.5 2.61765 14.5H12.4993C11.2439 16.1713 10.5 18.2488 10.5 20.5C10.5 22.7512 11.2439 24.8287 12.4993 26.5ZM15.2084 26.5C13.5475 25.0341 12.5 22.8894 12.5 20.5C12.5 18.1106 13.5475 15.9659 15.2084 14.5H25.7916C27.4525 15.9659 28.5 18.1106 28.5 20.5C28.5 22.8894 27.4525 25.0341 25.7916 26.5H15.2084Z" fill="#98DEF4"/>
<path d="M28.5 20.5C28.5 24.9183 24.9183 28.5 20.5 28.5C16.0817 28.5 12.5 24.9183 12.5 20.5C12.5 16.0817 16.0817 12.5 20.5 12.5C24.9183 12.5 28.5 16.0817 28.5 20.5Z" fill="#15C1E6"/>
<path d="M23.4395 23.6816C23.049 24.0721 23.049 24.7053 23.4395 25.0958L31.0243 32.6805C31.4148 33.0711 32.048 33.0711 32.4385 32.6806L32.6822 32.4368C33.0727 32.0463 33.0727 31.4132 32.6822 31.0226L25.0974 23.4379C24.7069 23.0473 24.0738 23.0473 23.6832 23.4379L23.4395 23.6816Z" fill="#15C1E6"/>
</svg>
