<svg width="48" height="47" viewBox="0 0 48 47" fill="none" xmlns="http://www.w3.org/2000/svg">
<g clip-path="url(#clip0_8706_5915)">
<path d="M41.95 0L22.55 0C21.92 0 21.5 0.42 21.5 1.05V19.95C21.5 20.4716 21.92 21 22.55 21H41.95C42.4784 21 43 20.4716 43 19.95V1.05C43 0.42 42.4784 0 41.95 0ZM29.35 2.1C29.98 2.1 30.4 2.52 30.4 3.15C30.4 3.67839 29.98 4.2 29.35 4.2C28.72 4.2 28.3 3.67839 28.3 3.15C28.3 2.52 28.72 2.1 29.35 2.1ZM25.15 2.1C25.6716 2.1 26.2 2.52 26.2 3.15C26.2 3.67839 25.78 4.2 25.15 4.2C24.52 4.2 24.1 3.67839 24.1 3.15C24.1 2.52 24.52 2.1 25.15 2.1ZM40.9 18.9H23.5V6.3H40.9V18.9Z" fill="#C6DBFF"/>
<path d="M33.5432 4.24106C34.1942 4.24106 34.7219 3.71333 34.7219 3.06235C34.7219 2.41136 34.1942 1.88364 33.5432 1.88364C32.8922 1.88364 32.3645 2.41136 32.3645 3.06235C32.3645 3.71333 32.8922 4.24106 33.5432 4.24106Z" fill="#092349"/>
<path d="M29.3025 4.24106C29.9535 4.24106 30.4812 3.71333 30.4812 3.06235C30.4812 2.41136 29.9535 1.88364 29.3025 1.88364C28.6515 1.88364 28.1238 2.41136 28.1238 3.06235C28.1238 3.71333 28.6515 4.24106 29.3025 4.24106Z" fill="#092349"/>
<path d="M25.062 4.24106C25.713 4.24106 26.2407 3.71333 26.2407 3.06235C26.2407 2.41136 25.713 1.88364 25.062 1.88364C24.411 1.88364 23.8833 2.41136 23.8833 3.06235C23.8833 3.71333 24.411 4.24106 25.062 4.24106Z" fill="#092349"/>
<rect x="27.5" y="11" width="10.4348" height="2.6087" rx="0.358868" fill="#FECE4D"/>
<path d="M22.35 11H1.65C0.96 11 0.5 11.46 0.5 12.15V32.85C0.5 33.4213 0.96 34 1.65 34H22.35C22.9287 34 23.5 33.4213 23.5 32.85V12.15C23.5 11.46 22.9287 11 22.35 11ZM8.55 13.3C9.24 13.3 9.7 13.76 9.7 14.45C9.7 15.0287 9.24 15.6 8.55 15.6C7.86 15.6 7.4 15.0287 7.4 14.45C7.4 13.76 7.86 13.3 8.55 13.3ZM3.95 13.3C4.52129 13.3 5.1 13.76 5.1 14.45C5.1 15.0287 4.64 15.6 3.95 15.6C3.26 15.6 2.8 15.0287 2.8 14.45C2.8 13.76 3.26 13.3 3.95 13.3ZM21.2 31.7H2.8V17.9H21.2V31.7Z" fill="#76A5FF"/>
<path d="M13.1425 15.6444C13.8555 15.6444 14.4335 15.0664 14.4335 14.3535C14.4335 13.6405 13.8555 13.0625 13.1425 13.0625C12.4295 13.0625 11.8516 13.6405 11.8516 14.3535C11.8516 15.0664 12.4295 15.6444 13.1425 15.6444Z" fill="#092349"/>
<path d="M8.498 15.6444C9.21098 15.6444 9.78897 15.0664 9.78897 14.3535C9.78897 13.6405 9.21098 13.0625 8.498 13.0625C7.78502 13.0625 7.20703 13.6405 7.20703 14.3535C7.20703 15.0664 7.78502 15.6444 8.498 15.6444Z" fill="#092349"/>
<path d="M3.85347 15.6444C4.56645 15.6444 5.14444 15.0664 5.14444 14.3535C5.14444 13.6405 4.56645 13.0625 3.85347 13.0625C3.14049 13.0625 2.5625 13.6405 2.5625 14.3535C2.5625 15.0664 3.14049 15.6444 3.85347 15.6444Z" fill="#092349"/>
<path d="M46.2 21H22.8C22.02 21 21.5 21.52 21.5 22.3V45.7C21.5 46.3458 22.02 47 22.8 47H46.2C46.8542 47 47.5 46.3458 47.5 45.7V22.3C47.5 21.52 46.8542 21 46.2 21ZM30.6 23.6C31.38 23.6 31.9 24.12 31.9 24.9C31.9 25.5542 31.38 26.2 30.6 26.2C29.82 26.2 29.3 25.5542 29.3 24.9C29.3 24.12 29.82 23.6 30.6 23.6ZM25.4 23.6C26.0458 23.6 26.7 24.12 26.7 24.9C26.7 25.5542 26.18 26.2 25.4 26.2C24.62 26.2 24.1 25.5542 24.1 24.9C24.1 24.12 24.62 23.6 25.4 23.6ZM44.9 44.4H24.1V28.8H44.9V44.4Z" fill="#3D7FFC"/>
<path d="M35.7916 26.2509C36.5976 26.2509 37.251 25.5975 37.251 24.7915C37.251 23.9855 36.5976 23.3322 35.7916 23.3322C34.9857 23.3322 34.3323 23.9855 34.3323 24.7915C34.3323 25.5975 34.9857 26.2509 35.7916 26.2509Z" fill="#092349"/>
<path d="M30.5414 26.2509C31.3474 26.2509 32.0007 25.5975 32.0007 24.7915C32.0007 23.9855 31.3474 23.3322 30.5414 23.3322C29.7354 23.3322 29.082 23.9855 29.082 24.7915C29.082 25.5975 29.7354 26.2509 30.5414 26.2509Z" fill="#092349"/>
<path d="M25.2909 26.2509C26.0969 26.2509 26.7503 25.5975 26.7503 24.7915C26.7503 23.9855 26.0969 23.3322 25.2909 23.3322C24.4849 23.3322 23.8315 23.9855 23.8315 24.7915C23.8315 25.5975 24.4849 26.2509 25.2909 26.2509Z" fill="#092349"/>
<rect x="5.5" y="23" width="13" height="3" rx="0.412698" fill="#FECE4D"/>
<rect x="27.5" y="35" width="15" height="3.88889" rx="0.555556" fill="#FECE4D"/>
</g>
<defs>
<clipPath id="clip0_8706_5915">
<rect width="47" height="47" fill="white" transform="translate(0.5)"/>
</clipPath>
</defs>
</svg>
