<svg width="40" height="41" viewBox="0 0 40 41" fill="none" xmlns="http://www.w3.org/2000/svg">
<mask id="mask0_8671_3559" style="mask-type:alpha" maskUnits="userSpaceOnUse" x="0" y="0" width="40" height="41">
<rect y="0.25" width="40" height="40" fill="#F5EFEF"/>
</mask>
<g mask="url(#mask0_8671_3559)">
<path fill-rule="evenodd" clip-rule="evenodd" d="M10 5.75C9.44772 5.75 9 6.19772 9 6.75V18.75H17C19.7614 18.75 22 20.9886 22 23.75V27.75H38C38.5523 27.75 39 27.3023 39 26.75V6.75C39 6.19772 38.5523 5.75 38 5.75H10ZM20 27.75V23.75C20 22.0931 18.6569 20.75 17 20.75H9V26.75C9 27.3023 9.44772 27.75 10 27.75H20Z" fill="#98DEF4"/>
<path d="M13 10.25C13 9.42157 13.6716 8.75 14.5 8.75C15.3284 8.75 16 9.42157 16 10.25C16 11.0784 15.3284 11.75 14.5 11.75C13.6716 11.75 13 11.0784 13 10.25Z" fill="#15C1E6"/>
<path d="M18 10.25C18 9.42157 18.6716 8.75 19.5 8.75C20.3284 8.75 21 9.42157 21 10.25C21 11.0784 20.3284 11.75 19.5 11.75C18.6716 11.75 18 11.0784 18 10.25Z" fill="#15C1E6"/>
<path d="M23 10.25C23 9.42157 23.6716 8.75 24.5 8.75C25.3284 8.75 26 9.42157 26 10.25C26 11.0784 25.3284 11.75 24.5 11.75C23.6716 11.75 23 11.0784 23 10.25Z" fill="#15C1E6"/>
<path d="M4 23.75C4 22.0931 5.34315 20.75 7 20.75H17C18.6569 20.75 20 22.0931 20 23.75V31.75C20 33.4069 18.6569 34.75 17 34.75H7C5.34315 34.75 4 33.4069 4 31.75V23.75Z" fill="#15C1E6"/>
<path d="M10 25.75C10 24.6454 10.8954 23.75 12 23.75C13.1046 23.75 14 24.6454 14 25.75C14 26.8546 13.1046 27.75 12 27.75C10.8954 27.75 10 26.8546 10 25.75Z" fill="#15C1E6"/>
<path d="M11 25.75C11 25.1977 11.4477 24.75 12 24.75C12.5523 24.75 13 25.1977 13 25.75V29.75C13 30.3023 12.5523 30.75 12 30.75C11.4477 30.75 11 30.3023 11 29.75V25.75Z" fill="#15C1E6"/>
<path fill-rule="evenodd" clip-rule="evenodd" d="M10 16.25C10 13.7647 7.98528 11.75 5.5 11.75C3.01472 11.75 1 13.7647 1 16.25V17.75C1 18.3023 1.44772 18.75 2 18.75C2.55228 18.75 3 18.3023 3 17.75V16.25C3 14.8693 4.11929 13.75 5.5 13.75C6.88071 13.75 8 14.8693 8 16.25V21.75C8 22.3023 8.44772 22.75 9 22.75C9.55228 22.75 10 22.3023 10 21.75V16.25Z" fill="#15C1E6"/>
</g>
</svg>
