<svg xmlns="http://www.w3.org/2000/svg" width="491" height="23" viewBox="0 0 491 23" fill="none"><path d="M18.2639 7.30762H25.301V8.62584H22.534V16.0362H21.0125V8.62584H18.2578V7.30762H18.2639ZM25.0004 9.71614H26.3011V10.9358H26.3256C26.3686 10.7633 26.4483 10.597 26.5649 10.4369C26.6814 10.2767 26.8226 10.1227 26.9882 9.99334C27.1539 9.85782 27.3379 9.7531 27.5404 9.66686C27.7428 9.58678 27.9514 9.54366 28.16 9.54366C28.3195 9.54366 28.4361 9.54982 28.4975 9.55598C28.5588 9.56214 28.6202 9.57446 28.6877 9.58062V10.9235C28.5895 10.905 28.4913 10.8927 28.387 10.8804C28.2827 10.868 28.1846 10.8619 28.0864 10.8619C27.8533 10.8619 27.6324 10.9112 27.4238 11.0036C27.2152 11.096 27.0373 11.2376 26.8839 11.4163C26.7305 11.6011 26.6078 11.8228 26.5158 12.0939C26.4238 12.3649 26.3808 12.6729 26.3808 13.024V16.0301H24.9943V9.71614H25.0004ZM35.0621 16.0362H33.7001V15.1553H33.6756C33.5038 15.4757 33.2523 15.7282 32.9148 15.9192C32.5774 16.1101 32.2338 16.2087 31.8841 16.2087C31.0559 16.2087 30.4546 16.0054 30.0865 15.5927C29.7184 15.18 29.5343 14.5578 29.5343 13.7262V9.71614H30.9209V13.5907C30.9209 14.1451 31.0252 14.5394 31.2399 14.7673C31.4485 14.9952 31.7491 15.1122 32.1295 15.1122C32.424 15.1122 32.6633 15.0691 32.8596 14.9767C33.0559 14.8843 33.2154 14.7673 33.332 14.6133C33.4547 14.4654 33.5406 14.2806 33.5958 14.0712C33.651 13.8618 33.6756 13.6338 33.6756 13.3874V9.7223H35.0621V16.0362ZM37.4242 14.0096C37.4671 14.4162 37.6205 14.6995 37.8843 14.8658C38.1543 15.026 38.4733 15.1122 38.8476 15.1122C38.9764 15.1122 39.1236 15.0999 39.2893 15.0814C39.455 15.0629 39.6145 15.0198 39.7556 14.9644C39.9028 14.9089 40.0194 14.8227 40.1176 14.7118C40.2096 14.601 40.2525 14.4593 40.2464 14.2806C40.2403 14.102 40.1728 13.9542 40.0501 13.8433C39.9274 13.7262 39.774 13.64 39.5838 13.5661C39.3936 13.4983 39.1789 13.4367 38.9335 13.3874C38.688 13.3382 38.4426 13.2827 38.1911 13.2273C37.9334 13.1719 37.6819 13.0979 37.4426 13.0179C37.2033 12.9378 36.9886 12.8269 36.7984 12.6852C36.6082 12.5497 36.4548 12.3711 36.3444 12.1555C36.2278 11.9399 36.1726 11.675 36.1726 11.3547C36.1726 11.0097 36.2585 10.7264 36.4242 10.4923C36.5898 10.2582 36.8045 10.0734 37.0561 9.93174C37.3138 9.79006 37.596 9.6915 37.9089 9.6299C38.2218 9.57446 38.5224 9.54366 38.8046 9.54366C39.1298 9.54366 39.4427 9.58062 39.7372 9.64838C40.0317 9.71614 40.3016 9.82702 40.5409 9.98718C40.7802 10.1412 40.9765 10.3445 41.136 10.5908C41.2955 10.8372 41.3937 11.1391 41.4366 11.4902H39.9887C39.9212 11.1576 39.774 10.9296 39.5347 10.8188C39.2954 10.7017 39.0193 10.6463 38.7126 10.6463C38.6144 10.6463 38.4979 10.6524 38.3629 10.6709C38.2279 10.6894 38.1052 10.7202 37.9825 10.7633C37.8659 10.8064 37.7678 10.8742 37.6819 10.9604C37.6021 11.0467 37.5592 11.1576 37.5592 11.2992C37.5592 11.4717 37.6205 11.6072 37.7371 11.712C37.8537 11.8167 38.007 11.9029 38.1972 11.9768C38.3874 12.0446 38.6022 12.1062 38.8476 12.1555C39.093 12.2047 39.3445 12.2602 39.6022 12.3156C39.8537 12.3711 40.0991 12.445 40.3446 12.5251C40.59 12.6051 40.8047 12.716 40.9949 12.8577C41.1851 12.9994 41.3385 13.1719 41.455 13.3813C41.5716 13.5907 41.6329 13.8556 41.6329 14.1636C41.6329 14.5394 41.5471 14.8535 41.3753 15.1184C41.2035 15.3771 40.9826 15.5927 40.7127 15.7529C40.4427 15.913 40.136 16.0362 39.8047 16.1101C39.4734 16.184 39.1421 16.221 38.8169 16.221C38.4181 16.221 38.05 16.1779 37.7126 16.0855C37.3751 15.9931 37.0806 15.8576 36.8352 15.6789C36.5898 15.4941 36.3935 15.2662 36.2524 14.9952C36.1113 14.7241 36.0376 14.3977 36.0254 14.0219H37.4242V14.0096ZM42.0011 9.71614H43.0502V7.81889H44.4367V9.71614H45.6883V10.7572H44.4367V14.1328C44.4367 14.2806 44.4429 14.4038 44.4551 14.5147C44.4674 14.6194 44.4981 14.7118 44.541 14.7857C44.584 14.8597 44.6515 14.9151 44.7435 14.9521C44.8355 14.989 44.9521 15.0075 45.1116 15.0075C45.2098 15.0075 45.3079 15.0075 45.4061 15.0013C45.5043 14.9952 45.6024 14.9829 45.7006 14.9582V16.0362C45.5472 16.0547 45.3938 16.067 45.2527 16.0855C45.1055 16.104 44.9582 16.1101 44.8048 16.1101C44.4367 16.1101 44.1422 16.0732 43.9214 16.0054C43.7005 15.9377 43.5226 15.8329 43.3999 15.6974C43.271 15.5619 43.1913 15.3956 43.1422 15.1923C43.0993 14.989 43.0686 14.7549 43.0625 14.4962V10.7695H42.0133V9.71614H42.0011ZM46.67 9.71614H47.9829V10.5724H48.0074C48.2038 10.2028 48.4737 9.94406 48.8234 9.7839C49.1731 9.62374 49.5474 9.54366 49.9584 9.54366C50.4554 9.54366 50.8848 9.6299 51.253 9.80854C51.6211 9.98102 51.9278 10.2213 52.1732 10.5292C52.4186 10.8372 52.5966 11.1945 52.7193 11.6011C52.842 12.0076 52.9033 12.445 52.9033 12.907C52.9033 13.332 52.8481 13.7447 52.7377 14.139C52.6272 14.5394 52.4616 14.8905 52.2407 15.1985C52.0199 15.5065 51.7376 15.7467 51.3941 15.9315C51.0505 16.1163 50.6517 16.2087 50.1854 16.2087C49.983 16.2087 49.7805 16.1902 49.578 16.1532C49.3756 16.1163 49.1792 16.0547 48.9952 15.9746C48.8111 15.8945 48.6332 15.7898 48.4798 15.6605C48.3203 15.5311 48.1915 15.3833 48.081 15.2169H48.0565V18.3708H46.67V9.71614ZM51.5168 12.8823C51.5168 12.599 51.48 12.3218 51.4063 12.0507C51.3327 11.7797 51.2223 11.5456 51.075 11.3362C50.9278 11.1268 50.7437 10.9604 50.529 10.8372C50.3081 10.714 50.0566 10.6463 49.7744 10.6463C49.1915 10.6463 48.7498 10.8496 48.4553 11.2561C48.1608 11.6627 48.0136 12.2047 48.0136 12.8823C48.0136 13.2027 48.0504 13.4983 48.1301 13.7694C48.2099 14.0404 48.3203 14.2745 48.4798 14.4716C48.6332 14.6687 48.8173 14.8227 49.032 14.9336C49.2467 15.0506 49.4983 15.1061 49.7805 15.1061C50.0995 15.1061 50.3633 15.0383 50.5842 14.9089C50.8051 14.7796 50.983 14.6071 51.1241 14.4038C51.2652 14.1944 51.3695 13.9603 51.4309 13.6954C51.4861 13.4306 51.5168 13.1595 51.5168 12.8823ZM53.9647 7.30762H55.3513V8.62584H53.9647V7.30762ZM53.9647 9.71614H55.3513V16.0362H53.9647V9.71614ZM56.5906 7.30762H57.9771V16.0362H56.5906V7.30762ZM62.2288 16.2087C61.7257 16.2087 61.2779 16.1224 60.8852 15.9561C60.4926 15.7898 60.1613 15.5557 59.8852 15.2662C59.6152 14.9705 59.4066 14.6194 59.2655 14.2129C59.1244 13.8063 59.0508 13.3566 59.0508 12.87C59.0508 12.3895 59.1244 11.946 59.2655 11.5395C59.4066 11.1329 59.6152 10.7818 59.8852 10.4861C60.1551 10.1905 60.4926 9.96254 60.8852 9.79622C61.2779 9.6299 61.7257 9.54366 62.2288 9.54366C62.7319 9.54366 63.1798 9.6299 63.5724 9.79622C63.9651 9.96254 64.2964 10.1966 64.5725 10.4861C64.8424 10.7818 65.051 11.1329 65.1921 11.5395C65.3332 11.946 65.4069 12.3895 65.4069 12.87C65.4069 13.3566 65.3332 13.8063 65.1921 14.2129C65.051 14.6194 64.8424 14.9705 64.5725 15.2662C64.3025 15.5619 63.9651 15.7898 63.5724 15.9561C63.1798 16.1224 62.7319 16.2087 62.2288 16.2087ZM62.2288 15.1061C62.5356 15.1061 62.8055 15.0383 63.0325 14.9089C63.2596 14.7796 63.4436 14.6071 63.5909 14.3977C63.7381 14.1882 63.8424 13.948 63.916 13.6831C63.9835 13.4182 64.0203 13.1472 64.0203 12.87C64.0203 12.599 63.9835 12.3341 63.916 12.0631C63.8485 11.792 63.7381 11.558 63.5909 11.3485C63.4436 11.1391 63.2596 10.9728 63.0325 10.8434C62.8055 10.714 62.5356 10.6463 62.2288 10.6463C61.9221 10.6463 61.6521 10.714 61.4251 10.8434C61.1981 10.9728 61.0141 11.1452 60.8668 11.3485C60.7196 11.558 60.6153 11.792 60.5416 12.0631C60.4742 12.3341 60.4374 12.599 60.4374 12.87C60.4374 13.1472 60.4742 13.4182 60.5416 13.6831C60.6091 13.948 60.7196 14.1882 60.8668 14.3977C61.0141 14.6071 61.1981 14.7796 61.4251 14.9089C61.6521 15.0445 61.9221 15.1061 62.2288 15.1061ZM65.8118 9.71614H66.8609V7.81889H68.2475V9.71614H69.4991V10.7572H68.2475V14.1328C68.2475 14.2806 68.2536 14.4038 68.2659 14.5147C68.2781 14.6194 68.3088 14.7118 68.3518 14.7857C68.3947 14.8597 68.4622 14.9151 68.5542 14.9521C68.6463 14.989 68.7628 15.0075 68.9223 15.0075C69.0205 15.0075 69.1187 15.0075 69.2168 15.0013C69.315 14.9952 69.4132 14.9829 69.5113 14.9582V16.0362C69.3579 16.0547 69.2046 16.067 69.0634 16.0855C68.9162 16.104 68.769 16.1101 68.6156 16.1101C68.2475 16.1101 67.953 16.0732 67.7321 16.0054C67.5112 15.9377 67.3333 15.8329 67.2106 15.6974C67.0818 15.5619 67.002 15.3956 66.9529 15.1923C66.91 14.989 66.8793 14.7549 66.8732 14.4962V10.7695H65.8241V9.71614H65.8118Z" fill="white"></path><path d="M16.6448 7.30903H10.2887L8.32547 1.23535L6.35607 7.30903L0 7.30287L5.14744 11.0604L3.17803 17.1279L8.32547 13.3765L13.4668 17.1279L11.5035 11.0604L16.6448 7.30903Z" fill="white"></path><path d="M11.944 12.4323L11.5023 11.0586L8.32422 13.3747L11.944 12.4323Z" fill="white"></path><g clip-path="url(#clip0_3428_118325)"><path d="M87.1575 14.3223L89.0896 13.8569L89.8969 16.2217L87.1575 14.3223ZM91.604 11.2657H88.2029L87.1575 8.22168L86.112 11.2657H82.7109L85.4636 13.1525L84.4181 16.1965L87.1707 14.3097L88.8646 13.1525L91.604 11.2657Z" fill="white"></path><path d="M99.509 14.3223L101.441 13.8569L102.248 16.2217L99.509 14.3223ZM103.956 11.2657H100.555L99.509 8.22168L98.4636 11.2657H95.0625L97.8151 13.1525L96.7697 16.1965L99.5223 14.3097L101.216 13.1525L103.956 11.2657Z" fill="white"></path><path d="M111.861 14.3223L113.793 13.8569L114.6 16.2217L111.861 14.3223ZM116.307 11.2657H112.906L111.861 8.22168L110.815 11.2657H107.414L110.167 13.1525L109.121 16.1965L111.874 14.3097L113.568 13.1525L116.307 11.2657Z" fill="white"></path><path d="M124.212 14.3223L126.144 13.8569L126.952 16.2217L124.212 14.3223ZM128.659 11.2657H125.258L124.212 8.22168L123.167 11.2657H119.766L122.518 13.1525L121.473 16.1965L124.225 14.3097L125.919 13.1525L128.659 11.2657Z" fill="white"></path><path d="M136.56 14.3223L138.492 13.8569L139.299 16.2217L136.56 14.3223ZM141.006 11.2657H137.605L136.56 8.22168L135.514 11.2657H132.113L134.866 13.1525L133.82 16.1965L136.573 14.3097L138.267 13.1525L141.006 11.2657Z" fill="white"></path></g><path d="M216.375 16.5402C215.635 16.5402 214.984 16.3972 214.421 16.111C213.859 15.815 213.425 15.4006 213.119 14.8678C212.813 14.335 212.66 13.7233 212.66 13.0326V9.45098C212.66 8.75044 212.813 8.13871 213.119 7.61577C213.425 7.08297 213.859 6.6735 214.421 6.38736C214.984 6.09136 215.635 5.94336 216.375 5.94336C217.105 5.94336 217.746 6.08643 218.299 6.37256C218.861 6.6587 219.295 7.04843 219.601 7.54177C219.907 8.03511 220.06 8.59258 220.06 9.21418V9.33258C220.06 9.38192 220.04 9.42632 220.001 9.46578C219.971 9.49538 219.932 9.51018 219.882 9.51018H218.536C218.486 9.51018 218.442 9.49538 218.402 9.46578C218.373 9.42632 218.358 9.38192 218.358 9.33258V9.25858C218.358 8.72578 218.175 8.28671 217.81 7.94137C217.455 7.59604 216.977 7.42337 216.375 7.42337C215.773 7.42337 215.289 7.6059 214.924 7.97097C214.559 8.32618 214.377 8.79978 214.377 9.39178V13.0918C214.377 13.6838 214.569 14.1623 214.954 14.5274C215.339 14.8826 215.837 15.0602 216.449 15.0602C217.041 15.0602 217.504 14.9073 217.84 14.6014C218.185 14.2857 218.358 13.8565 218.358 13.3138V12.3962C218.358 12.3469 218.333 12.3222 218.284 12.3222H216.464C216.414 12.3222 216.37 12.3074 216.33 12.2778C216.301 12.2383 216.286 12.1939 216.286 12.1446V11.0494C216.286 11.0001 216.301 10.9606 216.33 10.931C216.37 10.8915 216.414 10.8718 216.464 10.8718H219.882C219.932 10.8718 219.971 10.8915 220.001 10.931C220.04 10.9606 220.06 11.0001 220.06 11.0494V12.9438C220.06 14.0785 219.724 14.9616 219.054 15.593C218.392 16.2245 217.5 16.5402 216.375 16.5402Z" fill="white"></path><path d="M223.942 14.853C223.922 14.8728 223.912 14.8925 223.912 14.9122C223.922 14.932 223.942 14.9418 223.971 14.9418H228.189C228.239 14.9418 228.278 14.9616 228.308 15.001C228.347 15.0306 228.367 15.0701 228.367 15.1194V16.2442C228.367 16.2936 228.347 16.338 228.308 16.3774C228.278 16.407 228.239 16.4218 228.189 16.4218H221.825C221.776 16.4218 221.732 16.407 221.692 16.3774C221.663 16.338 221.648 16.2936 221.648 16.2442V15.1786C221.648 15.0898 221.677 15.0158 221.737 14.9566C222.486 14.1574 223.355 13.1757 224.341 12.0114L225.037 11.1974C225.945 10.1417 226.399 9.34245 226.399 8.79978C226.399 8.39524 226.256 8.06471 225.969 7.80817C225.683 7.55164 225.313 7.42337 224.859 7.42337C224.405 7.42337 224.035 7.55164 223.749 7.80817C223.473 8.06471 223.335 8.40511 223.335 8.82938V9.21418C223.335 9.26351 223.315 9.30792 223.276 9.34738C223.246 9.37698 223.207 9.39178 223.157 9.39178H221.781C221.732 9.39178 221.687 9.37698 221.648 9.34738C221.618 9.30792 221.603 9.26351 221.603 9.21418V8.57778C221.623 8.04497 221.776 7.58124 222.062 7.18657C222.348 6.7919 222.733 6.48603 223.217 6.26896C223.71 6.05189 224.257 5.94336 224.859 5.94336C225.52 5.94336 226.098 6.06669 226.591 6.31336C227.084 6.56003 227.464 6.90043 227.731 7.33457C227.997 7.75884 228.13 8.23737 228.13 8.77018C228.13 9.57925 227.701 10.5117 226.843 11.5674C226.369 12.1594 225.589 13.0474 224.504 14.2314L223.942 14.853Z" fill="white"></path><path d="M203.53 8.59502H201.417C201.474 8.25246 201.679 8.06073 202.095 7.84343L202.483 7.63892C203.179 7.27079 203.55 6.85409 203.55 6.17408C203.55 5.74716 203.389 5.40971 203.07 5.16685C202.751 4.92399 202.375 4.80384 201.934 4.80384C201.593 4.79969 201.258 4.89832 200.971 5.0876C200.681 5.27166 200.466 5.50941 200.332 5.80596L200.944 6.43995C201.181 5.944 201.526 5.70114 201.978 5.70114C202.362 5.70114 202.597 5.90566 202.597 6.18942C202.597 6.42717 202.483 6.62401 202.043 6.85409L201.793 6.97936C201.251 7.26312 200.875 7.58779 200.657 7.95591C200.439 8.32404 200.332 8.78675 200.332 9.34661V9.5H203.53V8.59502ZM203.248 10.543H199.748L197.998 13.6721H201.498L203.248 16.8037L204.998 13.6721L203.248 10.543Z" fill="white"></path><path d="M197.551 15.8048C195.172 15.8048 193.234 14.0088 193.234 11.8037C193.234 9.5986 195.172 7.80266 197.551 7.80266L199.029 4.93847C198.543 4.84877 198.048 4.80364 197.551 4.80371C193.38 4.80371 189.998 7.93741 189.998 11.8037C189.998 15.67 193.38 18.8037 197.551 18.8037C199.15 18.8065 200.708 18.3361 201.998 17.461L200.364 14.8345C199.583 15.4602 198.584 15.8046 197.551 15.8048Z" fill="white"></path><g clip-path="url(#clip1_3428_118325)"><path d="M288.581 10.766L291.654 10.2693L293.308 7.51511L293.832 8.70838L294.624 9.4824L295.02 10.2693V15.6745L293.261 14.7392L290.377 16.0938L290.756 12.9784L288.581 10.766ZM241.359 10.8563L244.432 10.3596L246.039 7.4248L247.504 10.3145L250.813 10.8563L248.497 13.0235L248.969 16.1841L246.039 14.8295L243.108 16.1841L243.486 13.0687L241.359 10.8563ZM253.129 10.8563L256.202 10.3596L257.809 7.4248L259.321 10.3145L262.583 10.8563L260.267 13.0235L260.787 16.1841L257.809 14.8295L254.925 16.1841L255.304 13.0687L253.129 10.8563ZM265.136 10.8563L268.208 10.3596L269.815 7.4248L271.281 10.3145L274.589 10.8563L272.273 13.0235L272.793 16.1841L269.815 14.8295L266.885 16.1841L267.263 13.0687L265.136 10.8563ZM276.764 10.8563L279.836 10.3596L281.443 7.4248L282.956 10.3145L286.218 10.8563L283.901 13.0235L284.421 16.1841L281.443 14.8295L278.56 16.1841L278.938 13.0687L276.764 10.8563Z" fill="white"></path><path d="M251.712 10.5795L247.788 10.0377L246.039 6.65137L244.29 10.0377L240.367 10.5795L243.203 13.1982L242.541 16.9457L246.039 15.1849L249.537 16.9457L248.875 13.1982L251.712 10.5795ZM246.039 14.3722L243.581 15.6364L244.054 13.0176L242.069 11.1664L244.858 10.7601L246.087 8.36709L247.316 10.7601L250.104 11.1664L248.119 13.0176L248.592 15.6364L246.039 14.3722ZM263.529 10.5795L259.606 10.0377L257.857 6.65137L256.108 10.0377L252.184 10.5795L255.02 13.1982L254.359 16.9457L257.857 15.1849L261.355 16.9457L260.693 13.1982L263.529 10.5795ZM257.857 14.3722L255.399 15.6364L255.871 13.0176L253.886 11.1664L256.675 10.7601L257.904 8.36709L259.133 10.7601L261.922 11.1664L259.936 13.0176L260.409 15.6364L257.857 14.3722ZM275.346 10.5795L271.423 10.0377L269.674 6.65137L267.925 10.0377L264.002 10.5795L266.838 13.1982L266.176 16.9457L269.674 15.1849L273.172 16.9457L272.51 13.1982L275.346 10.5795ZM269.674 14.3722L267.216 15.6364L267.689 13.0176L265.703 11.1664L268.492 10.7601L269.721 8.36709L270.95 10.7601L273.739 11.1664L271.754 13.0176L272.226 15.6364L269.674 14.3722ZM287.164 10.5795L283.24 10.0377L281.491 6.65137L279.742 10.0377L275.819 10.5795L278.655 13.1982L277.993 16.9457L281.491 15.1849L284.989 16.9457L284.327 13.1982L287.164 10.5795ZM281.491 14.3722L279.033 15.6364L279.506 13.0176L277.521 11.1664L280.309 10.7601L281.538 8.36709L282.767 10.7601L285.556 11.1664L283.571 13.0176L284.044 15.6364L281.491 14.3722ZM298.981 10.5795L295.058 10.0377L293.309 6.65137L291.56 10.0377L287.636 10.5795L290.472 13.1982L289.811 16.9457L293.309 15.1849L296.806 16.9457L296.145 13.1982L298.981 10.5795ZM293.309 14.3722L290.851 15.6364L291.323 13.0176L289.338 11.1664L292.127 10.7601L293.356 8.36709L294.585 10.7601L297.374 11.1664L295.388 13.0176L295.861 15.6364L293.309 14.3722Z" fill="white"></path></g><g clip-path="url(#clip2_3428_118325)"><path d="M346.43 9.45286L353.279 9.45426L357.444 9.45499V5.20605L346.43 9.45286Z" fill="white"></path><path d="M357.446 5.1958V20.1967L362.647 3.18945L357.446 5.1958Z" fill="white"></path><path d="M357.446 9.45483L353.282 9.4541L357.446 20.2068V9.45483Z" fill="white"></path><path d="M346.43 9.44336L354.347 12.2038L353.279 9.44477L346.43 9.44336Z" fill="white"></path><path d="M371.662 16.246C371.601 16.3082 371.501 16.3858 371.36 16.479C371.219 16.5723 371.036 16.6655 370.809 16.7588C370.583 16.8518 370.306 16.932 369.98 16.9996C369.653 17.0667 369.278 17.1005 368.856 17.1005C368.041 17.1005 367.337 16.9658 366.744 16.6966C366.15 16.4275 365.66 16.0518 365.273 15.5703C364.886 15.0886 364.601 14.5191 364.42 13.8613C364.239 13.2037 364.149 12.4813 364.149 11.6941C364.149 10.9072 364.247 10.1794 364.443 9.5114C364.639 8.84333 364.933 8.26616 365.326 7.77914C365.718 7.29249 366.208 6.91181 366.797 6.63726C367.385 6.36302 368.076 6.22559 368.871 6.22559C369.263 6.22559 369.618 6.26195 369.934 6.33432C370.251 6.40685 370.528 6.49236 370.764 6.59066C371 6.68923 371.197 6.79259 371.353 6.90138C371.508 7.01011 371.626 7.10095 371.707 7.17322C371.798 7.25628 371.875 7.35458 371.941 7.46838C372.006 7.58249 372.039 7.70677 372.039 7.84128C372.039 8.04858 371.963 8.25562 371.813 8.4627C371.662 8.67 371.496 8.86159 371.315 9.03753C371.194 8.91325 371.058 8.78656 370.908 8.65696C370.757 8.52751 370.588 8.41371 370.402 8.31515C370.216 8.21685 370.005 8.13405 369.768 8.06658C369.532 7.99933 369.268 7.96557 368.976 7.96557C368.464 7.96557 368.034 8.0719 367.687 8.28405C367.34 8.49646 367.061 8.77342 366.849 9.11522C366.638 9.45703 366.487 9.84804 366.397 10.2882C366.306 10.7285 366.261 11.1764 366.261 11.632C366.261 12.1189 366.306 12.585 366.397 13.0301C366.487 13.4755 366.643 13.8692 366.864 14.2108C367.086 14.5526 367.375 14.8271 367.732 15.0342C368.089 15.2415 368.534 15.3449 369.067 15.3449C369.348 15.3449 369.607 15.3088 369.844 15.2363C370.08 15.1638 370.289 15.0757 370.47 14.972C370.651 14.8687 370.809 14.76 370.945 14.6459C371.081 14.532 371.194 14.4337 371.285 14.3507C371.345 14.4233 371.415 14.5114 371.496 14.6148C371.577 14.7193 371.652 14.8283 371.722 14.9411C371.792 15.0552 371.853 15.169 371.903 15.2827C371.953 15.3969 371.978 15.5003 371.978 15.5934C371.978 15.7282 371.953 15.8421 371.903 15.9353C371.853 16.0285 371.772 16.1322 371.662 16.246ZM379.436 15.0545C379.436 15.8777 379.552 16.4769 379.785 16.852C379.603 16.9247 379.434 16.9769 379.277 17.0082C379.12 17.0395 378.955 17.055 378.784 17.055C378.419 17.055 378.144 16.9821 377.956 16.8362C377.769 16.6905 377.65 16.4821 377.6 16.2111C377.377 16.451 377.084 16.654 376.72 16.8208C376.355 16.9872 375.91 17.0708 375.384 17.0708C375.111 17.0708 374.838 17.0318 374.564 16.9541C374.291 16.8758 374.043 16.7489 373.821 16.5725C373.598 16.3958 373.416 16.1595 373.274 15.8634C373.133 15.5674 373.062 15.2065 373.062 14.7808C373.062 14.2511 373.186 13.8199 373.434 13.4877C373.682 13.1551 373.993 12.893 374.367 12.7007C374.741 12.5087 375.146 12.3766 375.581 12.3037C376.016 12.2309 376.416 12.1843 376.78 12.1633C376.902 12.153 377.02 12.1476 377.137 12.1476H377.463V11.8632C377.463 11.4626 377.359 11.1781 377.152 11.0096C376.945 10.8411 376.608 10.7566 376.143 10.7566C375.708 10.7566 375.321 10.8296 374.982 10.9754C374.643 11.1215 374.311 11.288 373.988 11.4756C373.846 11.2985 373.732 11.1032 373.646 10.8895C373.56 10.6761 373.517 10.5171 373.517 10.4128C373.517 10.267 373.595 10.1264 373.752 9.9908C373.909 9.85556 374.124 9.73294 374.397 9.62353C374.671 9.51411 374.984 9.42573 375.339 9.35784C375.693 9.29017 376.067 9.25626 376.462 9.25626C377.008 9.25626 377.471 9.31365 377.85 9.42818C378.23 9.54297 378.538 9.72 378.776 9.95954C379.014 10.1994 379.183 10.4988 379.284 10.8582C379.385 11.2177 379.436 11.6373 379.436 12.1164V15.0545H379.436ZM377.493 13.2416H377.281C377.21 13.2416 377.139 13.247 377.069 13.2573C376.815 13.2783 376.565 13.3095 376.317 13.351C376.069 13.3928 375.849 13.4657 375.657 13.5698C375.465 13.6741 375.308 13.8096 375.187 13.9761C375.065 14.1429 375.005 14.3567 375.005 14.617C375.005 14.9088 375.085 15.1561 375.247 15.3593C375.409 15.5626 375.682 15.6642 376.067 15.6642C376.259 15.6642 376.441 15.6383 376.613 15.5859C376.785 15.534 376.937 15.4663 377.069 15.3829C377.2 15.2995 377.304 15.2084 377.38 15.1093C377.456 15.0104 377.494 14.9193 377.494 14.8359V13.2416H377.493ZM383.215 10.1627C383.376 9.96487 383.629 9.76414 383.971 9.56092C384.314 9.35774 384.748 9.25615 385.273 9.25615C385.646 9.25615 386.001 9.32132 386.339 9.4515C386.677 9.58189 386.977 9.79294 387.24 10.0845C387.502 10.3763 387.711 10.7619 387.868 11.2411C388.024 11.7204 388.102 12.3093 388.102 13.0071C388.102 13.8198 388.011 14.4895 387.83 15.0155C387.648 15.5419 387.414 15.9586 387.126 16.2659C386.839 16.5733 386.518 16.7895 386.166 16.9145C385.812 17.0395 385.459 17.1021 385.106 17.1021C384.814 17.1021 384.559 17.0682 384.342 17.0005C384.125 16.9326 383.941 16.8573 383.79 16.7738C383.639 16.6906 383.523 16.6073 383.442 16.5238C383.362 16.4405 383.311 16.383 383.291 16.3517V20.1938H381.227V9.47493C381.278 9.4647 381.339 9.45421 381.41 9.44373C381.472 9.4335 381.543 9.42562 381.625 9.42025C381.706 9.41513 381.803 9.41247 381.915 9.41247C382.251 9.41247 382.537 9.46987 382.771 9.5844C383.006 9.69918 383.154 9.89182 383.215 10.1627ZM385.947 13.054C385.947 12.7414 385.922 12.4499 385.871 12.1788C385.821 11.908 385.738 11.6735 385.622 11.4755C385.507 11.2777 385.351 11.1239 385.155 11.0144C384.958 10.905 384.719 10.8504 384.438 10.8504C384.015 10.8504 383.721 10.9339 383.555 11.1004C383.389 11.2672 383.306 11.4497 383.306 11.6475V14.9609C383.386 15.0444 383.53 15.1432 383.736 15.2578C383.942 15.3725 384.181 15.4296 384.453 15.4296C384.966 15.4296 385.343 15.2214 385.585 14.8045C385.826 14.3879 385.947 13.8042 385.947 13.054ZM389.695 15.7423C389.624 15.534 389.579 15.3151 389.559 15.0858C389.538 14.8567 389.528 14.6276 389.528 14.398V7.14619C389.599 7.13596 389.675 7.12547 389.756 7.11493C389.826 7.10471 389.902 7.09693 389.983 7.09151C390.064 7.08639 390.145 7.08373 390.226 7.08373C390.388 7.08373 390.55 7.09939 390.712 7.13059C390.874 7.16189 391.02 7.2244 391.152 7.31811C391.284 7.41187 391.39 7.53965 391.471 7.70103C391.552 7.86268 391.592 8.07373 391.592 8.33399V9.44362H393.717V11.0223H391.592V14.3552C391.592 15.082 391.881 15.4453 392.457 15.4453C392.599 15.4453 392.733 15.422 392.859 15.3749C392.986 15.3281 393.1 15.2761 393.201 15.2187C393.302 15.1614 393.391 15.1015 393.467 15.039C393.542 14.9764 393.596 14.9296 393.626 14.8984C393.778 15.1277 393.894 15.3263 393.975 15.4938C394.056 15.6615 394.096 15.819 394.096 15.966C394.096 16.1029 394.043 16.2371 393.937 16.3685C393.831 16.4999 393.681 16.621 393.489 16.7314C393.297 16.8417 393.064 16.9311 392.791 16.9995C392.518 17.0679 392.219 17.1021 391.896 17.1021C391.268 17.1021 390.78 16.977 390.431 16.727C390.082 16.4769 389.837 16.1486 389.695 15.7423ZM398.945 15.5391C399.198 15.5391 399.422 15.5105 399.615 15.4531C399.808 15.396 399.98 15.3256 400.133 15.2423C400.285 15.159 400.417 15.0678 400.529 14.9687C400.64 14.8698 400.742 14.7787 400.833 14.6951C400.955 14.8514 401.082 15.0521 401.214 15.2968C401.346 15.5419 401.412 15.7423 401.412 15.8985C401.412 16.1278 401.285 16.3362 401.033 16.5238C400.82 16.6906 400.519 16.8338 400.13 16.9535C399.74 17.0732 399.282 17.1332 398.756 17.1332C398.28 17.1332 397.812 17.0708 397.352 16.9457C396.892 16.8208 396.482 16.6019 396.123 16.2892C395.764 15.9768 395.473 15.5575 395.25 15.0312C395.027 14.5051 394.916 13.841 394.916 13.0384C394.916 12.3819 395.015 11.8169 395.212 11.3427C395.409 10.8687 395.672 10.4753 396.001 10.1627C396.33 9.85013 396.702 9.62108 397.117 9.47498C397.532 9.32925 397.957 9.25621 398.392 9.25621C398.958 9.25621 399.439 9.34757 399.834 9.52971C400.228 9.71212 400.549 9.95704 400.797 10.2643C401.045 10.5717 401.225 10.9233 401.336 11.3193C401.447 11.7153 401.503 12.132 401.503 12.5696V12.7883C401.503 12.8719 401.5 12.9603 401.495 13.054C401.49 13.1479 401.485 13.2392 401.48 13.3275C401.475 13.4163 401.467 13.4865 401.458 13.5386H396.98C397.021 14.1117 397.193 14.5883 397.498 14.9687C397.802 15.3492 398.285 15.5391 398.945 15.5391ZM399.636 12.3663C399.636 11.8662 399.542 11.4599 399.354 11.1473C399.165 10.8348 398.827 10.6784 398.339 10.6784C397.921 10.6784 397.588 10.8269 397.339 11.1239C397.089 11.4209 396.965 11.835 396.965 12.3663H399.636V12.3663ZM405.095 10.2022C405.156 10.1092 405.236 10.0059 405.338 9.89203C405.439 9.77828 405.563 9.67492 405.71 9.58194C405.856 9.48891 406.018 9.41122 406.195 9.34924C406.372 9.2872 406.562 9.25621 406.764 9.25621C406.886 9.25621 407.015 9.26669 407.151 9.2872C407.288 9.30796 407.414 9.34678 407.531 9.40345C407.647 9.46037 407.741 9.53775 407.812 9.63595C407.882 9.73414 407.918 9.8555 407.918 10.0001C407.918 10.2274 407.862 10.4885 407.751 10.7833C407.639 11.0783 407.528 11.3298 407.417 11.5381C407.245 11.3923 407.073 11.2802 406.901 11.2021C406.729 11.124 406.526 11.0848 406.294 11.0848C405.98 11.0848 405.717 11.1789 405.505 11.3669C405.292 11.5549 405.186 11.7796 405.186 12.0409V17.1004H403.122V9.47493C403.172 9.4647 403.233 9.45421 403.304 9.44373C403.365 9.4335 403.436 9.42562 403.517 9.42025C403.597 9.41513 403.693 9.41247 403.805 9.41247C404.129 9.41247 404.409 9.47712 404.647 9.60615C404.885 9.73503 405.034 9.93382 405.095 10.2022ZM410.963 10.2022C411.024 10.1092 411.105 10.0059 411.206 9.89203C411.307 9.77828 411.431 9.67492 411.578 9.58194C411.725 9.48891 411.886 9.41122 412.064 9.34924C412.241 9.2872 412.43 9.25621 412.633 9.25621C412.754 9.25621 412.883 9.26669 413.02 9.2872C413.156 9.30796 413.283 9.34678 413.399 9.40345C413.515 9.46037 413.609 9.53775 413.68 9.63595C413.751 9.73414 413.786 9.8555 413.786 10.0001C413.786 10.2274 413.73 10.4885 413.619 10.7833C413.508 11.0783 413.397 11.3298 413.285 11.5381C413.113 11.3923 412.941 11.2802 412.769 11.2021C412.597 11.124 412.395 11.0848 412.162 11.0848C411.849 11.0848 411.586 11.1789 411.373 11.3669C411.161 11.5549 411.054 11.7796 411.054 12.0409V17.1004H408.99V9.47493C409.041 9.4647 409.102 9.45421 409.172 9.44373C409.233 9.4335 409.304 9.42562 409.385 9.42025C409.466 9.41513 409.562 9.41247 409.673 9.41247C409.997 9.41247 410.278 9.47712 410.516 9.60615C410.753 9.73503 410.903 9.93382 410.963 10.2022ZM420.813 15.0545C420.813 15.8777 420.929 16.4769 421.162 16.852C420.98 16.9247 420.811 16.9769 420.654 17.0082C420.497 17.0395 420.333 17.055 420.161 17.055C419.796 17.055 419.521 16.9821 419.334 16.8362C419.146 16.6905 419.027 16.4821 418.977 16.2111C418.754 16.451 418.461 16.654 418.097 16.8208C417.732 16.9872 417.287 17.0708 416.761 17.0708C416.488 17.0708 416.215 17.0318 415.941 16.9541C415.668 16.8758 415.42 16.7489 415.198 16.5725C414.975 16.3958 414.793 16.1595 414.651 15.8634C414.51 15.5674 414.439 15.2065 414.439 14.7808C414.439 14.2511 414.563 13.8199 414.811 13.4877C415.059 13.1551 415.37 12.893 415.744 12.7007C416.118 12.5087 416.523 12.3766 416.958 12.3037C417.393 12.2309 417.793 12.1843 418.157 12.1633C418.279 12.153 418.398 12.1476 418.514 12.1476H418.84V11.8632C418.84 11.4626 418.736 11.1781 418.529 11.0096C418.322 10.8411 417.985 10.7566 417.52 10.7566C417.085 10.7566 416.698 10.8296 416.359 10.9754C416.02 11.1215 415.688 11.288 415.365 11.4756C415.223 11.2985 415.109 11.1032 415.023 10.8895C414.937 10.6761 414.894 10.5171 414.894 10.4128C414.894 10.267 414.973 10.1264 415.13 9.9908C415.286 9.85556 415.501 9.73294 415.775 9.62353C416.048 9.51411 416.361 9.42573 416.715 9.35784C417.07 9.29017 417.444 9.25626 417.839 9.25626C418.385 9.25626 418.848 9.31365 419.227 9.42818C419.607 9.54297 419.915 9.72 420.153 9.95954C420.391 10.1994 420.56 10.4988 420.662 10.8582C420.762 11.2177 420.813 11.6373 420.813 12.1164V15.0545ZM418.871 13.2416H418.658C418.587 13.2416 418.516 13.247 418.446 13.2573C418.193 13.2783 417.942 13.3095 417.694 13.351C417.446 13.3928 417.226 13.4657 417.034 13.5698C416.842 13.6741 416.685 13.8096 416.564 13.9761C416.442 14.1429 416.382 14.3567 416.382 14.617C416.382 14.9088 416.462 15.1561 416.624 15.3593C416.786 15.5626 417.059 15.6642 417.444 15.6642C417.636 15.6642 417.818 15.6383 417.99 15.5859C418.162 15.534 418.314 15.4663 418.446 15.3829C418.577 15.2995 418.681 15.2084 418.757 15.1093C418.833 15.0104 418.871 14.9193 418.871 14.8359V13.2416H418.871Z" fill="white"></path></g><g clip-path="url(#clip3_3428_118325)"><path d="M480.199 10.766L483.272 10.2693L484.926 7.51511L485.45 8.70838L486.242 9.4824L486.638 10.3596L489.389 11.0491L487.296 13.2718L487.954 16.1841L486.638 15.6745L484.879 14.7392L481.995 16.0938L482.373 12.9784L480.199 10.766ZM432.977 10.8563L436.05 10.3596L437.657 7.4248L439.122 10.3145L442.431 10.8563L440.115 13.0235L440.587 16.1841L437.657 14.8295L434.726 16.1841L435.104 13.0687L432.977 10.8563ZM444.747 10.8563L447.82 10.3596L449.427 7.4248L450.939 10.3145L454.201 10.8563L451.885 13.0235L452.405 16.1841L449.427 14.8295L446.543 16.1841L446.921 13.0687L444.747 10.8563ZM456.754 10.8563L459.826 10.3596L461.433 7.4248L462.899 10.3145L466.207 10.8563L463.891 13.0235L464.411 16.1841L461.433 14.8295L458.502 16.1841L458.881 13.0687L456.754 10.8563ZM468.382 10.8563L471.454 10.3596L473.061 7.4248L474.574 10.3145L477.836 10.8563L475.519 13.0235L476.039 16.1841L473.061 14.8295L470.178 16.1841L470.556 13.0687L468.382 10.8563Z" fill="white"></path><path d="M443.326 10.5873L439.402 10.0455L437.653 6.65918L435.904 10.0455L431.981 10.5873L434.817 13.206L434.155 16.9536L437.653 15.1927L441.151 16.9536L440.489 13.206L443.326 10.5873ZM437.653 14.38L435.195 15.6442L435.668 13.0254L433.683 11.1743L436.472 10.7679L437.701 8.3749L438.93 10.7679L441.718 11.1743L439.733 13.0254L440.206 15.6442L437.653 14.38ZM455.143 10.5873L451.22 10.0455L449.471 6.65918L447.722 10.0455L443.798 10.5873L446.634 13.206L445.973 16.9536L449.471 15.1927L452.969 16.9536L452.307 13.206L455.143 10.5873ZM449.471 14.38L447.013 15.6442L447.485 13.0254L445.5 11.1743L448.289 10.7679L449.518 8.3749L450.747 10.7679L453.536 11.1743L451.55 13.0254L452.023 15.6442L449.471 14.38ZM466.96 10.5873L463.037 10.0455L461.288 6.65918L459.539 10.0455L455.616 10.5873L458.452 13.206L457.79 16.9536L461.288 15.1927L464.786 16.9536L464.124 13.206L466.96 10.5873ZM461.288 14.38L458.83 15.6442L459.303 13.0254L457.317 11.1743L460.106 10.7679L461.335 8.3749L462.564 10.7679L465.353 11.1743L463.368 13.0254L463.84 15.6442L461.288 14.38ZM478.778 10.5873L474.854 10.0455L473.105 6.65918L471.356 10.0455L467.433 10.5873L470.269 13.206L469.607 16.9536L473.105 15.1927L476.603 16.9536L475.941 13.206L478.778 10.5873ZM473.105 14.38L470.647 15.6442L471.12 13.0254L469.135 11.1743L471.924 10.7679L473.153 8.3749L474.382 10.7679L477.17 11.1743L475.185 13.0254L475.658 15.6442L473.105 14.38ZM490.595 10.5873L486.672 10.0455L484.923 6.65918L483.174 10.0455L479.25 10.5873L482.086 13.206L481.425 16.9536L484.923 15.1927L488.42 16.9536L487.759 13.206L490.595 10.5873ZM484.923 14.38L482.465 15.6442L482.937 13.0254L480.952 11.1743L483.741 10.7679L484.97 8.3749L486.199 10.7679L488.988 11.1743L487.002 13.0254L487.475 15.6442L484.923 14.38Z" fill="white"></path></g><defs><clipPath id="clip0_3428_118325"><rect width="60.8031" height="10.8362" fill="white" transform="translate(81 6.38574)"></rect></clipPath><clipPath id="clip1_3428_118325"><rect width="58.6139" height="10.8362" fill="white" transform="translate(240.367 6.38574)"></rect></clipPath><clipPath id="clip2_3428_118325"><rect width="76" height="18" fill="white" transform="translate(345.981 2.80371)"></rect></clipPath><clipPath id="clip3_3428_118325"><rect width="58.6139" height="10.8362" fill="white" transform="translate(431.981 6.38574)"></rect></clipPath></defs></svg>