<svg xmlns="http://www.w3.org/2000/svg" width="136" height="42" viewBox="0 0 136 42" fill="none"><g clip-path="url(#clip0_26369_52712)"><path d="M133.791 18.7158C134.707 18.7158 135.456 17.9683 135.456 17.0547V15.0059H130.239V10.4377H127.353C126.437 10.4377 125.688 11.1852 125.688 12.0988V14.9782H124.827C123.911 14.9782 123.162 15.7257 123.162 16.6394V18.6881H125.688V25.3605C125.688 26.4403 125.688 27.4093 125.715 28.2676C125.743 29.1259 125.965 29.9564 126.409 30.787C126.909 31.673 127.63 32.3098 128.574 32.6974C129.517 33.085 130.6 33.3065 131.793 33.3342C132.986 33.3618 134.207 33.2511 135.484 33.0296V31.0639C135.484 30.1226 134.707 29.375 133.736 29.4027C133.319 29.4027 132.931 29.4027 132.542 29.375C131.654 29.3197 131.016 28.9874 130.627 28.3506C130.405 28.0184 130.294 27.5754 130.294 26.994C130.267 26.4403 130.267 25.8035 130.267 25.0837V18.7158H133.791Z" fill="#071D2B"></path><path d="M62.4692 8.99802H57.6404L48.9541 33.0574H52.6451C53.3389 33.0574 53.9772 32.6144 54.2269 31.9776L55.6978 28.0461H66.4377L67.9085 31.9776C68.1583 32.6421 68.7688 33.0574 69.4904 33.0574H73.1814L65.1611 10.853C64.6893 9.74554 63.6625 8.99802 62.4692 8.99802ZM57.1964 23.9209L61.0261 13.5939L64.8558 23.9209H57.1964Z" fill="#071D2B"></path><path d="M97.1312 14.535C93.3014 14.535 90.8315 16.2239 89.555 19.5462L92.3024 20.5153C92.9684 20.7367 93.7177 20.5429 94.1617 19.9892C94.7445 19.2694 95.4383 18.6326 97.0757 18.6326C99.157 18.6326 100.017 19.3801 100.184 21.3458L94.6058 22.3149C89.444 23.1731 88.8057 26.3294 88.8057 28.0736C88.8057 29.8178 90.1377 33.5555 95.1053 33.5555C97.6307 33.5555 99.4346 32.6418 100.628 31.5067C100.683 32.365 101.405 33.0571 102.293 33.0571H104.624V21.4289C104.652 16.5561 101.571 14.535 97.1312 14.535ZM95.8546 29.9839C94.1062 29.9839 93.2459 29.4025 93.2459 28.2951C93.2459 27.1876 94.0785 26.0248 96.8537 25.5265C98.38 25.2496 99.6288 25.0281 100.406 24.8897V26.0248C100.434 28.3228 98.1025 29.9839 95.8546 29.9839Z" fill="#071D2B"></path><path d="M85.4477 15.006C84.7539 15.006 84.1156 15.449 83.8658 16.0857L79.7586 27.2156L75.6513 16.0857C75.4016 15.4213 74.791 15.006 74.0695 15.006H70.5728L77.4829 33.0574H82.0342L88.9444 15.006H85.4477Z" fill="#071D2B"></path><path d="M122.218 27.8243C122.218 25.997 121.275 24.3635 119.887 23.4222C119.832 23.3945 119.776 23.3668 119.721 23.3114C119.693 23.2838 119.665 23.2838 119.638 23.2561C119.471 23.1453 119.305 23.0623 119.11 22.9792C118.444 22.647 117.723 22.3978 117.723 22.3978C117.417 22.2871 117.112 22.1763 116.779 22.0656C113.671 21.0412 112.2 20.7643 112.2 19.7399C112.2 18.8263 113.31 18.3556 114.448 18.3556C115.197 18.3556 116.252 18.5771 117.084 19.6292C117.084 19.6292 117.084 19.6292 117.112 19.6569C117.14 19.6846 117.14 19.7122 117.168 19.7122L117.195 19.7399C117.501 20.0445 117.917 20.2383 118.389 20.2383C118.583 20.2383 118.75 20.2106 118.916 20.1552H118.944L121.469 19.2969C120.609 16.3899 117.917 14.5072 114.309 14.5072C112.922 14.5072 111.784 14.7287 110.84 15.0886C108.981 15.7808 107.677 17.5527 107.677 19.6292C107.677 21.5949 108.842 23.2838 110.535 24.059C111.34 24.4743 112.339 24.8342 113.504 25.1941C116.751 26.1631 117.528 26.7999 117.528 27.935C117.528 28.0735 117.501 28.2119 117.473 28.3227C117.417 28.5441 117.279 28.7656 117.14 28.9318C116.696 29.4024 115.836 29.6516 114.725 29.6516C113.338 29.6516 112.089 29.0702 111.257 27.6582C110.84 26.9937 110.035 26.6892 109.286 26.966L106.761 27.852C107.815 30.8975 109.897 33.583 114.725 33.583C116.918 33.583 118.666 33.1124 119.887 32.2541C121.303 31.2574 122.218 29.6516 122.218 27.8243Z" fill="#071D2B"></path><path d="M18.0663 5.23227C20.7582 3.37729 24.4769 4.40168 25.8645 7.33642L38.1585 33.2507C40.6284 29.8453 42.0715 25.6647 42.127 21.1519C42.1825 9.55132 32.8302 0.0826324 21.2022 -0.000426294C9.57425 -0.083485 0.08316 9.24678 -9.51947e-05 20.8473C-0.0278469 25.4432 1.41524 29.6792 3.88515 33.1677L4.38468 33.0569L12.4049 31.285C12.6269 31.2296 12.7379 31.5342 12.5437 31.6449L5.91102 35.5764C9.71301 39.4801 15.0136 41.9442 20.8969 41.9996C27.5019 42.055 33.413 39.0648 37.2982 34.3582L17.206 13.2613C14.9581 10.8803 15.3744 7.08725 18.0663 5.23227ZM21.8405 29.0424L8.90821 30.1499C7.52062 30.2606 6.3273 29.1255 6.4383 27.7135C6.54931 26.3015 7.88139 25.3325 9.24123 25.6647L21.8683 28.6271C22.0903 28.7102 22.0625 29.0424 21.8405 29.0424ZM15.8461 17.6911L31.5259 30.3437C31.6924 30.4821 31.5536 30.759 31.3316 30.7036L12.4604 23.5606C10.4901 22.813 9.6575 20.4874 10.6843 18.6324C11.7666 16.8328 14.2088 16.3898 15.8461 17.6911Z" fill="#FF7800"></path></g><defs><clipPath id="clip0_26369_52712"><rect width="135.484" height="42" fill="white"></rect></clipPath></defs></svg>