<svg width="593" height="573" viewBox="0 0 593 573" fill="none" xmlns="http://www.w3.org/2000/svg">
<rect x="2" width="589" height="536" fill="#091B36"/>
<g style="mix-blend-mode:screen" opacity="0.7" filter="url(#filter0_f_14271_1663)">
<ellipse cx="296.5" cy="197" rx="232.5" ry="25" fill="#9E98FC"/>
</g>
<path d="M74.3811 164.389H127.831C130.591 164.389 132.823 166.606 132.823 169.334V222.319C132.823 225.048 130.591 227.265 127.831 227.265H74.3811C71.6207 227.265 69.3888 225.048 69.3888 222.319V169.334C69.3888 166.606 71.6207 164.389 74.3811 164.389Z" fill="url(#paint0_linear_14271_1663)" stroke="url(#paint1_linear_14271_1663)" stroke-width="0.777502"/>
<path d="M76.4461 168.787C76.4461 169.553 75.8089 170.185 75.0365 170.185C74.2642 170.185 73.627 169.553 73.627 168.787C73.627 168.022 74.2642 167.39 75.0365 167.39C75.8089 167.39 76.4461 168.022 76.4461 168.787Z" fill="white"/>
<path d="M81.0506 168.787C81.0506 169.553 80.4134 170.185 79.641 170.185C78.8686 170.185 78.2314 169.553 78.2314 168.787C78.2314 168.022 78.8686 167.39 79.641 167.39C80.4327 167.39 81.0506 168.022 81.0506 168.787Z" fill="white"/>
<path d="M85.657 168.787C85.657 169.553 85.0198 170.185 84.2475 170.185C83.4751 170.185 82.8379 169.553 82.8379 168.787C82.8379 168.022 83.4751 167.39 84.2475 167.39C85.0198 167.39 85.657 168.022 85.657 168.787Z" fill="white"/>
<path d="M114.417 208.502H86.6249C85.3546 208.5 84.1369 207.995 83.2387 207.097C82.3404 206.198 81.835 204.981 81.8333 203.71V200.835C81.8333 200.327 82.0352 199.84 82.3946 199.48C82.7541 199.121 83.2416 198.919 83.7499 198.919H120.167C120.675 198.919 121.162 199.121 121.522 199.48C121.881 199.84 122.083 200.327 122.083 200.835C122.081 202.868 121.273 204.817 119.835 206.254C118.398 207.692 116.449 208.5 114.417 208.502ZM85.6666 202.752V203.71C85.6666 203.965 85.7676 204.208 85.9473 204.388C86.127 204.568 86.3708 204.669 86.6249 204.669H114.417C115.089 204.668 115.75 204.491 116.332 204.155C116.914 203.818 117.398 203.334 117.734 202.752H85.6666Z" fill="#BFBAFC"/>
<path d="M120.167 202.752C119.658 202.752 119.171 202.55 118.811 202.19C118.452 201.831 118.25 201.343 118.25 200.835C118.25 197.057 116.485 196.254 111.383 194.487C107.202 193.242 103.276 191.265 99.7867 188.647C98.6539 190.684 96.5993 193.168 93.3333 193.168C92.4098 193.168 91.4959 192.983 90.6455 192.623C89.7951 192.263 89.0255 191.736 88.3825 191.074C87.638 190.315 86.6979 189.778 85.6666 189.522V200.835C85.6666 201.343 85.4647 201.831 85.1052 202.19C84.7458 202.55 84.2583 202.752 83.7499 202.752C83.2416 202.752 82.7541 202.55 82.3946 202.19C82.0352 201.831 81.8333 201.343 81.8333 200.835V187.418C81.8333 186.91 82.0352 186.423 82.3946 186.063C82.7541 185.704 83.2416 185.502 83.7499 185.502C85.06 185.434 86.3702 185.636 87.5988 186.096C88.8274 186.556 89.9482 187.264 90.8914 188.176C91.1905 188.534 91.5637 188.823 91.9852 189.023C92.4067 189.223 92.8666 189.33 93.3333 189.335C95.8364 189.335 97.2318 185.002 97.2452 184.957C97.3382 184.643 97.5103 184.358 97.7452 184.129C97.98 183.9 98.2696 183.735 98.5863 183.65C98.9031 183.565 99.2363 183.563 99.5542 183.643C99.8721 183.724 100.164 183.885 100.402 184.11C104.586 188.074 108.864 189.557 112.638 190.865C117.495 192.548 122.083 194.137 122.083 200.835C122.083 201.343 121.881 201.831 121.522 202.19C121.162 202.55 120.675 202.752 120.167 202.752Z" fill="#BFBAFC"/>
<path d="M100.999 195.085C100.672 195.085 100.351 195.001 100.066 194.842C99.7808 194.683 99.541 194.454 99.3694 194.176C99.1977 193.898 99.0999 193.581 99.0852 193.255C99.0705 192.929 99.1394 192.604 99.2854 192.312L101.202 188.478C101.429 188.023 101.828 187.677 102.31 187.516C102.793 187.355 103.319 187.393 103.774 187.62C104.229 187.847 104.575 188.246 104.736 188.728C104.897 189.21 104.86 189.737 104.633 190.192L102.716 194.025C102.557 194.344 102.312 194.612 102.008 194.8C101.705 194.987 101.355 195.086 100.999 195.085Z" fill="#BFBAFC"/>
<path d="M106.749 197.002C106.422 197.002 106.101 196.918 105.816 196.759C105.531 196.6 105.291 196.37 105.119 196.093C104.948 195.815 104.85 195.498 104.835 195.171C104.82 194.845 104.889 194.521 105.035 194.228L106.952 190.395C107.431 189.448 107.719 190.778 108.667 191.252C109.616 191.725 110.856 191.162 110.383 192.109L108.466 195.942C108.307 196.261 108.062 196.529 107.758 196.716C107.455 196.904 107.105 197.002 106.749 197.002Z" fill="#BFBAFC"/>
<path d="M150.593 164.389H204.043C206.804 164.389 209.036 166.606 209.036 169.334V222.319C209.036 225.048 206.804 227.265 204.043 227.265H150.593C147.833 227.265 145.601 225.048 145.601 222.319V169.334C145.601 166.606 147.833 164.389 150.593 164.389Z" fill="url(#paint2_linear_14271_1663)" stroke="url(#paint3_linear_14271_1663)" stroke-width="0.777502"/>
<path d="M152.658 168.788C152.658 169.553 152.02 170.185 151.248 170.185C150.476 170.185 149.838 169.553 149.838 168.788C149.838 168.022 150.476 167.39 151.248 167.39C152.02 167.39 152.658 168.022 152.658 168.788Z" fill="white"/>
<path d="M157.262 168.787C157.262 169.553 156.625 170.185 155.853 170.185C155.08 170.185 154.443 169.553 154.443 168.787C154.443 168.022 155.08 167.39 155.853 167.39C156.644 167.39 157.262 168.022 157.262 168.787Z" fill="white"/>
<path d="M161.868 168.787C161.868 169.553 161.231 170.185 160.459 170.185C159.687 170.185 159.049 169.553 159.049 168.787C159.049 168.022 159.687 167.39 160.459 167.39C161.231 167.39 161.868 168.022 161.868 168.787Z" fill="white"/>
<path d="M189.179 211.051L189.179 211.051C189.468 212.737 187.703 214.016 186.192 213.222L186.191 213.222L177.977 208.903C177.977 208.903 177.977 208.903 177.977 208.903C177.925 208.876 177.863 208.876 177.811 208.903C177.811 208.903 177.811 208.903 177.811 208.903L169.597 213.222L169.597 213.222C168.084 214.017 166.32 212.736 166.609 211.051L166.609 211.051L168.178 201.904C168.188 201.847 168.169 201.788 168.127 201.747L189.179 211.051ZM189.179 211.051L187.61 201.904C187.61 201.904 187.61 201.904 187.61 201.904C187.601 201.846 187.62 201.788 187.662 201.747C187.662 201.747 187.662 201.747 187.662 201.747L194.307 195.269C194.307 195.269 194.307 195.269 194.307 195.269C195.531 194.076 194.857 192.003 193.166 191.757L193.166 191.756L183.982 190.422L183.982 190.422C183.924 190.414 183.874 190.377 183.848 190.325L179.741 182.003C179.741 182.003 179.741 182.003 179.741 182.003C178.984 180.469 176.804 180.471 176.048 182.003L176.048 182.003L171.94 190.325C171.94 190.325 171.94 190.325 171.94 190.325C171.915 190.377 171.865 190.413 171.806 190.422C171.806 190.422 171.806 190.422 171.806 190.422L162.623 191.756L162.622 191.757C160.932 192.003 160.257 194.075 161.481 195.269C161.481 195.269 161.481 195.269 161.481 195.269L168.127 201.747L189.179 211.051ZM183.777 189.376L184.126 190.083L184.906 190.197L193.217 191.404C195.196 191.692 195.988 194.127 194.556 195.524C194.556 195.524 194.556 195.524 194.556 195.524L188.542 201.386L187.977 201.936L188.111 202.714L189.53 210.991C189.868 212.96 187.794 214.466 186.026 213.537C186.026 213.537 186.026 213.537 186.026 213.537L178.592 209.629L177.894 209.262L177.196 209.629L169.763 213.537C169.763 213.537 169.763 213.537 169.763 213.537C167.992 214.467 165.92 212.962 166.259 210.991C166.259 210.991 166.259 210.991 166.259 210.991L167.678 202.714L167.811 201.936L167.247 201.386L161.233 195.524C161.233 195.524 161.233 195.524 161.233 195.524C159.801 194.128 160.592 191.692 162.571 191.404L162.571 191.404L170.882 190.197L171.663 190.083L172.012 189.376L175.728 181.845L175.728 181.845C176.613 180.052 179.175 180.051 180.06 181.845L180.06 181.845L183.777 189.376ZM177.051 183.33L177.051 183.33L177.051 183.33ZM192.212 193.122C192.212 193.121 192.213 193.121 192.213 193.121L192.213 193.121L192.212 193.122Z" fill="#BFBAFC" stroke="#BFBAFC" stroke-width="3"/>
<path d="M226.805 164.389H280.255C283.016 164.389 285.248 166.606 285.248 169.334V222.319C285.248 225.048 283.016 227.265 280.255 227.265H226.805C224.045 227.265 221.813 225.048 221.813 222.319V169.334C221.813 166.606 224.045 164.389 226.805 164.389Z" fill="url(#paint4_linear_14271_1663)" stroke="url(#paint5_linear_14271_1663)" stroke-width="0.777502"/>
<path d="M228.87 168.787C228.87 169.553 228.233 170.185 227.461 170.185C226.688 170.185 226.051 169.553 226.051 168.787C226.051 168.022 226.688 167.39 227.461 167.39C228.233 167.39 228.87 168.022 228.87 168.787Z" fill="white"/>
<path d="M233.475 168.787C233.475 169.553 232.838 170.185 232.066 170.185C231.293 170.185 230.656 169.553 230.656 168.787C230.656 168.022 231.293 167.39 232.066 167.39C232.857 167.39 233.475 168.022 233.475 168.787Z" fill="white"/>
<path d="M238.081 168.787C238.081 169.553 237.444 170.185 236.672 170.185C235.899 170.185 235.262 169.553 235.262 168.787C235.262 168.022 235.899 167.39 236.672 167.39C237.444 167.39 238.081 168.022 238.081 168.787Z" fill="white"/>
<path d="M254.396 216.417C250.873 216.417 247.429 215.372 244.5 213.415C241.571 211.458 239.288 208.676 237.94 205.421C236.591 202.166 236.239 198.584 236.926 195.129C237.613 191.674 239.31 188.5 241.801 186.009C244.292 183.518 247.466 181.821 250.921 181.134C254.376 180.447 257.958 180.799 261.213 182.148C264.468 183.496 267.25 185.779 269.207 188.708C271.164 191.637 272.209 195.081 272.209 198.604C272.203 203.327 270.325 207.854 266.986 211.194C263.646 214.533 259.119 216.411 254.396 216.417ZM254.396 184.354C251.578 184.354 248.823 185.19 246.479 186.756C244.136 188.322 242.31 190.547 241.231 193.151C240.152 195.755 239.87 198.62 240.42 201.384C240.97 204.149 242.327 206.688 244.32 208.681C246.313 210.673 248.852 212.031 251.616 212.58C254.38 213.13 257.246 212.848 259.849 211.77C262.453 210.691 264.679 208.865 266.245 206.521C267.81 204.178 268.646 201.423 268.646 198.604C268.642 194.826 267.139 191.204 264.468 188.533C261.796 185.862 258.174 184.359 254.396 184.354Z" fill="#BFBAFC"/>
<path fill-rule="evenodd" clip-rule="evenodd" d="M256.177 187.917H252.615V190.004C251.871 190.267 251.187 190.694 250.618 191.263C249.615 192.265 249.052 193.624 249.052 195.042C249.052 197.923 251.679 199.237 253.598 200.197L253.6 200.198C255.109 200.952 256.177 201.536 256.177 202.167C256.177 202.639 255.99 203.092 255.656 203.426C255.322 203.76 254.869 203.948 254.396 203.948C253.924 203.948 253.471 203.76 253.137 203.426C252.803 203.092 252.615 202.639 252.615 202.167H249.052C249.054 203.583 249.618 204.942 250.619 205.944C251.188 206.512 251.871 206.939 252.615 207.203V209.292H256.177V207.203C256.921 206.939 257.604 206.512 258.173 205.944C259.175 204.942 259.738 203.583 259.74 202.167C259.74 199.286 257.113 197.971 255.195 197.011L255.192 197.01C253.684 196.257 252.615 195.672 252.615 195.042C252.615 194.569 252.803 194.116 253.137 193.782C253.471 193.448 253.924 193.26 254.396 193.26C254.869 193.26 255.322 193.448 255.656 193.782C255.99 194.116 256.177 194.569 256.177 195.042H259.74C259.74 193.624 259.177 192.265 258.175 191.263C257.606 190.694 256.922 190.267 256.177 190.004V187.917Z" fill="#BFBAFC"/>
<path d="M310.381 164.389H363.831C366.591 164.389 368.823 166.606 368.823 169.334V222.319C368.823 225.048 366.591 227.265 363.831 227.265H310.381C307.621 227.265 305.389 225.048 305.389 222.319V169.334C305.389 166.606 307.621 164.389 310.381 164.389Z" fill="url(#paint6_linear_14271_1663)" stroke="url(#paint7_linear_14271_1663)" stroke-width="0.777502"/>
<path d="M312.446 168.788C312.446 169.553 311.809 170.185 311.037 170.185C310.264 170.185 309.627 169.553 309.627 168.788C309.627 168.022 310.264 167.39 311.037 167.39C311.809 167.39 312.446 168.022 312.446 168.788Z" fill="white"/>
<path d="M317.051 168.787C317.051 169.553 316.413 170.185 315.641 170.185C314.869 170.185 314.231 169.553 314.231 168.787C314.231 168.022 314.869 167.39 315.641 167.39C316.433 167.39 317.051 168.022 317.051 168.787Z" fill="white"/>
<path d="M321.657 168.787C321.657 169.553 321.02 170.185 320.247 170.185C319.475 170.185 318.838 169.553 318.838 168.787C318.838 168.022 319.475 167.39 320.247 167.39C321.02 167.39 321.657 168.022 321.657 168.787Z" fill="white"/>
<path d="M351.887 181.375C352.351 181.372 352.809 181.464 353.236 181.645C353.662 181.826 354.047 182.092 354.367 182.427C354.708 182.76 354.976 183.159 355.157 183.6C355.338 184.041 355.426 184.514 355.417 184.991V210.094C355.404 211.026 355.027 211.916 354.368 212.575C353.709 213.235 352.819 213.611 351.887 213.625H323.197C322.721 213.635 322.247 213.546 321.806 213.365C321.365 213.184 320.966 212.915 320.634 212.573C320.298 212.254 320.032 211.869 319.852 211.442C319.671 211.016 319.58 210.557 319.584 210.094V184.993C319.579 184.523 319.668 184.056 319.844 183.62C320.02 183.183 320.281 182.786 320.61 182.45C320.94 182.114 321.333 181.847 321.766 181.663C322.199 181.479 322.664 181.382 323.135 181.378H351.891L351.887 181.375ZM351.834 210.042V184.958H323.167V210.042H351.834Z" fill="#BFBAFC"/>
<path d="M321.375 207.354L328.691 199.636L333.917 205.149L345.413 193.021L352.729 200.739" stroke="#BFBAFC" stroke-width="3.39474"/>
<circle cx="331.677" cy="191.677" r="3.13542" fill="#BFBAFC"/>
<path d="M386.593 164.389H440.043C442.804 164.389 445.036 166.606 445.036 169.334V222.319C445.036 225.048 442.804 227.265 440.043 227.265H386.593C383.833 227.265 381.601 225.048 381.601 222.319V169.334C381.601 166.606 383.833 164.389 386.593 164.389Z" fill="url(#paint8_linear_14271_1663)" stroke="url(#paint9_linear_14271_1663)" stroke-width="0.777502"/>
<path d="M388.658 168.788C388.658 169.553 388.02 170.185 387.248 170.185C386.476 170.185 385.838 169.553 385.838 168.788C385.838 168.022 386.476 167.39 387.248 167.39C388.02 167.39 388.658 168.022 388.658 168.788Z" fill="white"/>
<path d="M393.262 168.787C393.262 169.553 392.625 170.185 391.853 170.185C391.08 170.185 390.443 169.553 390.443 168.787C390.443 168.022 391.08 167.39 391.853 167.39C392.644 167.39 393.262 168.022 393.262 168.787Z" fill="white"/>
<path d="M397.868 168.787C397.868 169.553 397.231 170.185 396.459 170.185C395.687 170.185 395.049 169.553 395.049 168.787C395.049 168.022 395.687 167.39 396.459 167.39C397.231 167.39 397.868 168.022 397.868 168.787Z" fill="white"/>
<path d="M419 181.25H399.5C398.641 181.254 397.818 181.599 397.212 182.208C396.606 182.817 396.266 183.641 396.266 184.5L396.25 208.875L402.75 202.375H419C419.861 202.372 420.686 202.029 421.295 201.42C421.904 200.811 422.247 199.986 422.25 199.125V184.5C422.247 183.639 421.904 182.814 421.295 182.205C420.686 181.596 419.861 181.253 419 181.25ZM419 199.125H401.401L400.442 200.084L399.5 201.026V184.5H419V199.125ZM402.75 187.75H415.75V191H402.75V187.75ZM402.75 192.625H412.5V195.875H402.75V192.625Z" fill="#BFBAFC"/>
<path d="M428.734 192.625C428.734 191.766 428.394 190.942 427.788 190.333C427.182 189.724 426.359 189.379 425.5 189.375H422.25V192.625H425.5V207.525L424.557 206.583L423.599 205.624H406V202.374H402.75V205.624C402.753 206.485 403.096 207.31 403.705 207.919C404.314 208.528 405.139 208.872 406 208.874H422.25L428.75 215.374L428.734 192.625Z" fill="#BFBAFC"/>
<path d="M462.805 164.389H516.255C519.016 164.389 521.248 166.606 521.248 169.334V222.319C521.248 225.048 519.016 227.265 516.255 227.265H462.805C460.045 227.265 457.813 225.048 457.813 222.319V169.334C457.813 166.606 460.045 164.389 462.805 164.389Z" fill="url(#paint10_linear_14271_1663)" stroke="url(#paint11_linear_14271_1663)" stroke-width="0.777502"/>
<path d="M464.87 168.788C464.87 169.553 464.232 170.185 463.46 170.185C462.688 170.185 462.051 169.553 462.051 168.788C462.051 168.022 462.688 167.39 463.46 167.39C464.232 167.39 464.87 168.022 464.87 168.788Z" fill="white"/>
<path d="M469.474 168.787C469.474 169.553 468.837 170.185 468.065 170.185C467.292 170.185 466.655 169.553 466.655 168.787C466.655 168.022 467.292 167.39 468.065 167.39C468.857 167.39 469.474 168.022 469.474 168.787Z" fill="white"/>
<path d="M474.081 168.787C474.081 169.553 473.443 170.185 472.671 170.185C471.899 170.185 471.261 169.553 471.261 168.787C471.261 168.022 471.899 167.39 472.671 167.39C473.443 167.39 474.081 168.022 474.081 168.787Z" fill="white"/>
<g clip-path="url(#clip0_14271_1663)">
<path d="M480.05 193.39L475.97 197.48C474.05 199.39 473 201.93 473 204.64C473 207.35 474.05 209.89 475.97 211.8C476.05 211.88 476.12 211.95 476.19 212.03C478.08 213.93 480.69 215.01 483.36 215.01C486.03 215.01 488.62 213.96 490.53 212.04L494.62 207.95C495.34 207.23 495.34 206.06 494.62 205.34C493.9 204.62 492.73 204.63 492 205.34L487.91 209.43C486.72 210.63 485.06 211.31 483.36 211.31C481.66 211.31 480.01 210.62 478.81 209.43L478.57 209.19C477.37 207.99 476.69 206.33 476.69 204.64C476.69 202.95 477.38 201.29 478.57 200.09L482.66 196C483.37 195.28 483.37 194.11 482.66 193.39C481.94 192.67 480.77 192.67 480.04 193.39H480.05Z" fill="#BFBAFC"/>
<path d="M497.171 192.68C497.171 192.19 496.981 191.72 496.631 191.38C496.281 191.03 495.821 190.84 495.331 190.84C494.841 190.84 494.371 191.03 494.031 191.38L483.391 202.02C483.041 202.37 482.851 202.83 482.851 203.33C482.851 203.83 483.041 204.29 483.391 204.63C484.081 205.33 485.301 205.33 486.001 204.63L496.641 193.98C496.991 193.63 497.181 193.17 497.181 192.67L497.171 192.68Z" fill="#BFBAFC"/>
<path d="M504.031 184.2C503.951 184.12 503.881 184.05 503.811 183.97C501.921 182.07 499.311 180.99 496.641 180.99C493.971 180.99 491.381 182.04 489.481 183.96L485.401 188.05C485.051 188.4 484.861 188.86 484.861 189.36C484.861 189.86 485.051 190.32 485.401 190.67C486.091 191.37 487.311 191.37 488.011 190.67L492.101 186.58C493.291 185.38 494.951 184.7 496.651 184.7C498.351 184.7 500.001 185.39 501.201 186.58L501.441 186.82C502.641 188.02 503.321 189.68 503.321 191.37C503.321 193.06 502.631 194.72 501.441 195.92L497.331 200.03C496.981 200.38 496.791 200.84 496.791 201.34C496.791 201.84 496.981 202.3 497.331 202.64C498.031 203.34 499.241 203.34 499.941 202.64L504.051 198.53C505.971 196.62 507.021 194.08 507.021 191.37C507.021 188.66 505.971 186.12 504.051 184.21L504.031 184.2Z" fill="#BFBAFC"/>
</g>
<g style="mix-blend-mode:screen" opacity="0.8" filter="url(#filter1_f_14271_1663)">
<ellipse cx="293" cy="397.5" rx="139" ry="75.5" fill="#9E98FC"/>
</g>
<g opacity="0.2">
<g filter="url(#filter2_bd_14271_1663)">
<rect x="216.237" y="358.675" width="234.763" height="150.742" rx="7.05108" fill="url(#paint12_linear_14271_1663)"/>
<rect x="217.044" y="359.482" width="233.149" height="149.129" rx="6.24432" stroke="url(#paint13_linear_14271_1663)" stroke-width="1.61351"/>
</g>
</g>
<g opacity="0.4">
<g filter="url(#filter3_bd_14271_1663)">
<rect x="197.491" y="342.296" width="234.763" height="150.742" rx="7.05108" fill="url(#paint14_linear_14271_1663)"/>
<rect x="198.298" y="343.103" width="233.149" height="149.129" rx="6.24432" stroke="url(#paint15_linear_14271_1663)" stroke-width="1.61351"/>
</g>
</g>
<g opacity="0.8">
<g filter="url(#filter4_bd_14271_1663)">
<rect x="178.746" y="321.823" width="234.763" height="150.742" rx="7.05108" fill="url(#paint16_linear_14271_1663)"/>
<rect x="179.553" y="322.63" width="233.149" height="149.129" rx="6.24432" stroke="url(#paint17_linear_14271_1663)" stroke-width="1.61351"/>
</g>
</g>
<g filter="url(#filter5_bd_14271_1663)">
<rect x="160" y="306.826" width="234.947" height="151.216" rx="5.39291" fill="url(#paint18_linear_14271_1663)"/>
<rect x="160.617" y="307.443" width="233.713" height="149.982" rx="4.77587" stroke="url(#paint19_linear_14271_1663)" stroke-width="1.23407"/>
</g>
<path d="M175.847 317.397C175.847 318.647 174.816 319.679 173.565 319.679C172.315 319.679 171.283 318.647 171.283 317.397C171.283 316.146 172.315 315.114 173.565 315.114C174.816 315.114 175.847 316.146 175.847 317.397Z" fill="white"/>
<path d="M184.417 317.397C184.417 318.647 183.385 319.679 182.135 319.679C180.885 319.679 179.853 318.647 179.853 317.397C179.853 316.146 180.885 315.114 182.135 315.114C183.417 315.114 184.417 316.146 184.417 317.397Z" fill="white"/>
<path d="M192.987 317.397C192.987 318.647 191.955 319.679 190.705 319.679C189.454 319.679 188.423 318.647 188.423 317.397C188.423 316.146 189.454 315.114 190.705 315.114C191.955 315.114 192.987 316.146 192.987 317.397Z" fill="white"/>
<path d="M295.868 333.968H192.709V338.171H295.868V333.968Z" fill="#FFA57E"/>
<path d="M340.586 425.772H237.427V429.976H340.586V425.772Z" fill="#8ED7FF"/>
<path d="M178.397 333.968H171.632V338.171H178.397V333.968Z" fill="white" fill-opacity="0.2"/>
<path d="M178.397 425.772H171.632V429.976H178.397V425.772Z" fill="white" fill-opacity="0.2"/>
<path d="M332.293 343.217H229.134V347.42H332.293V343.217Z" fill="#8ED7FF"/>
<path d="M366.829 435.02H271.503V439.224H366.829V435.02Z" fill="#8ED7FF"/>
<path d="M359.348 343.217H339.054V347.42H359.348V343.217Z" fill="#9D97F4"/>
<path d="M267.141 435.02H246.848V439.224H267.141V435.02Z" fill="#FFA57E"/>
<path d="M266.339 352.463H229.134V356.666H266.339V352.463Z" fill="#FFA57E"/>
<path d="M249.92 444.268H212.715V448.472H249.92V444.268Z" fill="#FFA57E"/>
<path d="M301.849 352.463H274.791V356.666H301.849V352.463Z" fill="#9D97F4"/>
<path d="M285.431 444.268H258.373V448.472H285.431V444.268Z" fill="#9D97F4"/>
<path d="M349.2 352.463H310.304V356.666H349.2V352.463Z" fill="#8ED7FF"/>
<path d="M332.782 444.268H293.886V448.472H332.782V444.268Z" fill="#8ED7FF"/>
<path d="M339.048 361.711H264.637V365.914H339.048V361.711Z" fill="#8ED7FF"/>
<path d="M372.452 453.515H309.506V457.719H372.452V453.515Z" fill="#8ED7FF"/>
<path d="M256.187 361.711H244.349V365.914H256.187V361.711Z" fill="#9D97F4"/>
<path d="M301.056 453.515H289.218V457.719H301.056V453.515Z" fill="#9D97F4"/>
<path d="M301.989 370.959H244.49V375.162H301.989V370.959Z" fill="#FFA57E"/>
<path d="M178.397 343.217H171.632V347.42H178.397V343.217Z" fill="white" fill-opacity="0.2"/>
<path d="M178.397 435.02H171.632V439.224H178.397V435.02Z" fill="white" fill-opacity="0.2"/>
<path d="M178.397 352.463H171.632V356.666H178.397V352.463Z" fill="white" fill-opacity="0.2"/>
<path d="M178.397 444.268H171.632V448.472H178.397V444.268Z" fill="white" fill-opacity="0.2"/>
<path d="M178.397 361.712H171.632V365.916H178.397V361.712Z" fill="white" fill-opacity="0.2"/>
<path d="M178.397 453.515H171.632V457.719H178.397V453.515Z" fill="white" fill-opacity="0.2"/>
<path d="M178.397 370.958H171.632V375.161H178.397V370.958Z" fill="white" fill-opacity="0.2"/>
<path d="M327.643 379.87H224.484V384.074H327.643V379.87Z" fill="#9D97F4"/>
<path d="M178.397 379.87H171.632V384.074H178.397V379.87Z" fill="white" fill-opacity="0.2"/>
<path d="M332.293 389.119H229.134V393.322H332.293V389.119Z" fill="#8ED7FF"/>
<path d="M359.348 389.119H339.054V393.322H359.348V389.119Z" fill="#FFA57E"/>
<path d="M266.339 398.366H229.134V402.569H266.339V398.366Z" fill="#FFA57E"/>
<path d="M301.849 398.366H274.791V402.569H301.849V398.366Z" fill="#9D97F4"/>
<path d="M349.2 398.366H310.304V402.569H349.2V398.366Z" fill="#8ED7FF"/>
<path d="M339.048 407.613H264.637V411.816H339.048V407.613Z" fill="#8ED7FF"/>
<path d="M256.187 407.613H244.349V411.816H256.187V407.613Z" fill="#9D97F4"/>
<path d="M261.263 416.86H203.764V421.064H261.263V416.86Z" fill="#8ED7FF"/>
<path d="M178.397 389.119H171.632V393.322H178.397V389.119Z" fill="white" fill-opacity="0.2"/>
<path d="M178.397 398.366H171.632V402.569H178.397V398.366Z" fill="white" fill-opacity="0.2"/>
<path d="M178.397 407.614H171.632V411.817H178.397V407.614Z" fill="white" fill-opacity="0.2"/>
<path d="M178.397 416.862H171.632V421.065H178.397V416.862Z" fill="white" fill-opacity="0.2"/>
<path d="M295 289.326L295 278.448C295 269.059 302.611 261.448 312 261.448L479 261.448C484.523 261.448 489 256.971 489 251.448L489 236.826" stroke="url(#paint20_linear_14271_1663)" stroke-width="2" stroke-dasharray="4 4"/>
<path d="M295 288.826L295 278.214C295 268.825 302.611 261.214 312 261.214L393 261.214C401.837 261.214 409 254.05 409 245.214L409 236.826" stroke="url(#paint21_linear_14271_1663)" stroke-width="2" stroke-dasharray="4 4"/>
<path d="M295 300L295 278.214C295 268.825 302.611 261.214 312 261.214L327 261.214C332.523 261.214 337 256.737 337 251.214L337 236.826" stroke="url(#paint22_linear_14271_1663)" stroke-width="2" stroke-dasharray="4 4"/>
<path d="M294 101.674L294 112.552C294 121.941 286.389 129.552 277 129.552L110 129.552C104.477 129.552 100 134.029 100 139.552L100 154.174" stroke="url(#paint23_linear_14271_1663)" stroke-width="2" stroke-dasharray="4 4"/>
<path d="M294 102.174L294 112.786C294 122.175 286.389 129.786 277 129.786L196 129.786C187.163 129.786 180 136.95 180 145.786L180 154.174" stroke="url(#paint24_linear_14271_1663)" stroke-width="2" stroke-dasharray="4 4"/>
<path d="M294 91L294 112.786C294 122.175 286.389 129.786 277 129.786L262 129.786C256.477 129.786 252 134.263 252 139.786L252 154.174" stroke="url(#paint25_linear_14271_1663)" stroke-width="2" stroke-dasharray="4 4"/>
<path d="M294 289.326L294 278.448C294 269.059 286.389 261.448 277 261.448L110 261.448C104.477 261.448 100 256.971 100 251.448L100 236.826" stroke="url(#paint26_linear_14271_1663)" stroke-width="2" stroke-dasharray="4 4"/>
<path d="M294 288.826L294 278.214C294 268.825 286.389 261.214 277 261.214L196 261.214C187.163 261.214 180 254.05 180 245.214L180 236.826" stroke="url(#paint27_linear_14271_1663)" stroke-width="2" stroke-dasharray="4 4"/>
<path d="M294 300L294 278.214C294 268.825 286.389 261.214 277 261.214L262 261.214C256.477 261.214 252 256.737 252 251.214L252 236.826" stroke="url(#paint28_linear_14271_1663)" stroke-width="2" stroke-dasharray="4 4"/>
<path d="M295 101.674L295 112.552C295 121.941 302.611 129.552 312 129.552L479 129.552C484.523 129.552 489 134.029 489 139.552L489 154.174" stroke="url(#paint29_linear_14271_1663)" stroke-width="2" stroke-dasharray="4 4"/>
<path d="M295 102.174L295 112.786C295 122.175 302.611 129.786 312 129.786L393 129.786C401.837 129.786 409 136.95 409 145.786L409 154.174" stroke="url(#paint30_linear_14271_1663)" stroke-width="2" stroke-dasharray="4 4"/>
<path d="M295 91L295 112.786C295 122.175 302.611 129.786 312 129.786L327 129.786C332.523 129.786 337 134.263 337 139.786L337 154.174" stroke="url(#paint31_linear_14271_1663)" stroke-width="2" stroke-dasharray="4 4"/>
<g filter="url(#filter6_dd_14271_1663)">
<ellipse cx="5" cy="5" rx="5" ry="5" transform="matrix(1 8.74228e-08 8.74228e-08 -1 363 266.826)" fill="#D1CCFF"/>
</g>
<g filter="url(#filter7_dd_14271_1663)">
<ellipse cx="3.5" cy="3.5" rx="3.5" ry="3.5" transform="matrix(1 8.74228e-08 8.74228e-08 -1 178 248.826)" fill="#D1CCFF"/>
</g>
<g filter="url(#filter8_dd_14271_1663)">
<ellipse cx="5" cy="5" rx="5" ry="5" transform="matrix(1 8.74228e-08 8.74228e-08 -1 111 266.826)" fill="#D1CCFF"/>
</g>
<g filter="url(#filter9_dd_14271_1663)">
<ellipse cx="3.5" cy="3.5" rx="3.5" ry="3.5" transform="matrix(1 8.74228e-08 8.74228e-08 -1 483 262)" fill="#D1CCFF"/>
</g>
<g filter="url(#filter10_bd_14271_1663)">
<mask id="path-111-outside-1_14271_1663" maskUnits="userSpaceOnUse" x="109" y="424" width="86" height="57" fill="black">
<rect fill="white" x="109" y="424" width="86" height="57"/>
<path fill-rule="evenodd" clip-rule="evenodd" d="M192.888 460.604C192.888 451.232 186.237 443.492 177.623 442.309C176.4 433.094 168.868 426 159.758 426C153.49 426 147.968 429.359 144.735 434.457C142.815 431.362 139.491 429.316 135.712 429.316C129.767 429.316 124.948 434.378 124.948 440.623C124.948 441.277 125.001 441.917 125.102 442.54C117.061 444.218 111 451.676 111 460.621C111 470.803 118.851 479.056 128.535 479.056C128.686 479.056 128.835 479.054 128.985 479.05V479.056H158.64C158.683 479.056 158.725 479.056 158.768 479.056C158.811 479.056 158.854 479.056 158.896 479.056H175.746V479.049C185.251 478.814 192.888 470.646 192.888 460.604Z"/>
</mask>
<path fill-rule="evenodd" clip-rule="evenodd" d="M192.888 460.604C192.888 451.232 186.237 443.492 177.623 442.309C176.4 433.094 168.868 426 159.758 426C153.49 426 147.968 429.359 144.735 434.457C142.815 431.362 139.491 429.316 135.712 429.316C129.767 429.316 124.948 434.378 124.948 440.623C124.948 441.277 125.001 441.917 125.102 442.54C117.061 444.218 111 451.676 111 460.621C111 470.803 118.851 479.056 128.535 479.056C128.686 479.056 128.835 479.054 128.985 479.05V479.056H158.64C158.683 479.056 158.725 479.056 158.768 479.056C158.811 479.056 158.854 479.056 158.896 479.056H175.746V479.049C185.251 478.814 192.888 470.646 192.888 460.604Z" fill="url(#paint32_linear_14271_1663)" shape-rendering="crispEdges"/>
<path d="M177.623 442.309L176.072 442.515L176.229 443.696L177.41 443.859L177.623 442.309ZM144.735 434.457L143.407 435.281L144.721 437.4L146.056 435.294L144.735 434.457ZM125.102 442.54L125.421 444.071L126.886 443.765L126.646 442.289L125.102 442.54ZM128.985 479.05H130.549V477.444L128.943 477.487L128.985 479.05ZM128.985 479.056H127.421V480.62H128.985V479.056ZM158.64 479.056L158.65 477.492H158.64V479.056ZM158.896 479.056V477.492L158.886 477.492L158.896 479.056ZM175.746 479.056V480.62H177.31V479.056H175.746ZM175.746 479.049L175.707 477.486L174.182 477.523V479.049H175.746ZM177.41 443.859C185.202 444.928 191.324 451.964 191.324 460.604H194.452C194.452 450.499 187.271 442.055 177.835 440.76L177.41 443.859ZM159.758 427.564C168.015 427.564 174.943 434.007 176.072 442.515L179.173 442.104C177.856 432.181 169.72 424.436 159.758 424.436V427.564ZM146.056 435.294C149.027 430.61 154.07 427.564 159.758 427.564V424.436C152.91 424.436 146.91 428.108 143.415 433.619L146.056 435.294ZM135.712 430.88C138.904 430.88 141.747 432.606 143.407 435.281L146.064 433.632C143.883 430.118 140.077 427.752 135.712 427.752V430.88ZM126.512 440.623C126.512 435.168 130.702 430.88 135.712 430.88V427.752C128.832 427.752 123.384 433.588 123.384 440.623H126.512ZM126.646 442.289C126.558 441.749 126.512 441.192 126.512 440.623H123.384C123.384 441.361 123.444 442.085 123.558 442.791L126.646 442.289ZM112.564 460.621C112.564 452.378 118.143 445.59 125.421 444.071L124.783 441.009C115.98 442.846 109.436 450.974 109.436 460.621H112.564ZM128.535 477.492C119.787 477.492 112.564 470.014 112.564 460.621H109.436C109.436 471.592 117.914 480.62 128.535 480.62V477.492ZM128.943 477.487C128.808 477.49 128.672 477.492 128.535 477.492V480.62C128.699 480.62 128.863 480.618 129.026 480.613L128.943 477.487ZM130.549 479.056V479.05H127.421V479.056H130.549ZM158.64 477.492H128.985V480.62H158.64V477.492ZM158.768 477.492C158.729 477.492 158.69 477.492 158.65 477.492L158.63 480.62C158.676 480.62 158.722 480.62 158.768 480.62V477.492ZM158.886 477.492C158.847 477.492 158.808 477.492 158.768 477.492V480.62C158.814 480.62 158.861 480.62 158.907 480.62L158.886 477.492ZM175.746 477.492H158.896V480.62H175.746V477.492ZM174.182 479.049V479.056H177.31V479.049H174.182ZM191.324 460.604C191.324 469.866 184.297 477.273 175.707 477.486L175.784 480.612C186.205 480.355 194.452 471.426 194.452 460.604H191.324Z" fill="url(#paint33_linear_14271_1663)" mask="url(#path-111-outside-1_14271_1663)"/>
</g>
<path d="M142.287 462.463H133.756L131.867 467.468H127.618L136.148 445.717H140.115L148.645 467.468H144.175L142.287 462.463ZM134.763 459.189H141.279L138.037 450.407L134.763 459.189ZM151.385 445.748H158.373C160.545 445.748 162.434 446.189 163.819 447.353C165.235 448.518 166.085 450.061 166.085 452.264C166.085 454.468 165.235 456.041 163.819 457.206C162.434 458.371 160.545 458.906 158.373 458.906H155.509V467.468H151.385V445.748ZM157.869 455.695C159.129 455.695 159.978 455.38 160.671 454.877C161.364 454.373 161.867 453.492 161.867 452.264C161.867 451.068 161.269 450.187 160.577 449.683C159.884 449.179 159.034 448.959 157.775 448.959H155.477V455.695H157.869ZM169.476 445.748H173.568V467.468H169.476V445.748Z" fill="white"/>
<g filter="url(#filter11_bd_14271_1663)">
<rect x="194" y="41" width="201" height="42" rx="7.63636" fill="url(#paint34_linear_14271_1663)" shape-rendering="crispEdges"/>
<rect x="193.375" y="40.3747" width="202.251" height="43.2505" rx="8.26164" stroke="url(#paint35_linear_14271_1663)" stroke-width="1.25055" shape-rendering="crispEdges"/>
</g>
<path d="M250.788 65.1057C251.08 66.9807 252.517 67.8816 254.294 67.8816C255.877 67.8816 257.289 67.1755 257.849 66.6885L259.067 68.3686C258.409 69.0504 256.632 70.2678 253.758 70.2678C250.203 70.2678 247.574 68.1007 247.574 64.3022C247.574 60.528 250.325 57.9957 253.685 57.9957C257.313 57.9957 259.505 60.3819 259.505 63.523C259.505 64.1318 259.456 65.1057 259.456 65.1057H250.788ZM253.661 60.3089C251.81 60.3089 250.837 61.5994 250.739 63.0847H256.388C256.339 61.7942 255.853 60.3089 253.661 60.3089ZM276.208 67.9059C275.258 68.9286 273.432 70.2922 270.121 70.2922C265.202 70.2922 261.403 66.9563 261.403 61.6238C261.403 56.2912 265.251 52.9553 270.121 52.9553C273.408 52.9553 275.307 54.3433 275.989 55.025L274.869 57.6061C274.382 56.973 272.482 55.6825 270.096 55.6825C267.174 55.6825 264.666 57.6061 264.666 61.5751C264.666 65.2031 266.931 67.565 270.291 67.565C272.531 67.565 274.09 66.5911 275.088 65.5197L276.208 67.9059ZM284.106 70.2678C280.477 70.2678 277.702 67.8816 277.702 64.1561C277.702 60.4306 280.477 57.9957 284.106 57.9957C287.709 57.9957 290.485 60.4306 290.485 64.1561C290.485 67.8816 287.709 70.2678 284.106 70.2678ZM287.271 64.0831C287.271 62.0621 286.102 60.5037 284.106 60.5037C282.06 60.5037 280.94 62.0621 280.94 64.0831C280.94 66.1041 282.06 67.6868 284.106 67.6868C286.102 67.6868 287.271 66.1041 287.271 64.0831ZM307.774 63.4013C307.774 61.9647 307.457 60.5524 305.923 60.5524C304.365 60.5524 303.561 61.8916 303.561 63.9126V70H300.444V63.3769C300.444 61.7699 300.03 60.5524 298.545 60.5524C296.938 60.5524 296.232 62.0621 296.232 63.9126V70H293.115V58.2148H296.232L296.207 59.9923H296.281C296.816 58.8966 298.253 57.9957 299.787 57.9957C301.491 57.9957 302.514 58.6775 303.074 60.2358C303.902 58.7992 305.241 57.9957 306.946 57.9957C310.038 57.9957 310.89 60.1871 310.89 62.8899V70H307.774V63.4013ZM328.829 63.4013C328.829 61.9647 328.513 60.5524 326.979 60.5524C325.42 60.5524 324.617 61.8916 324.617 63.9126V70H321.5V63.3769C321.5 61.7699 321.086 60.5524 319.601 60.5524C317.994 60.5524 317.288 62.0621 317.288 63.9126V70H314.171V58.2148H317.288L317.263 59.9923H317.336C317.872 58.8966 319.309 57.9957 320.843 57.9957C322.547 57.9957 323.57 58.6775 324.13 60.2358C324.958 58.7992 326.297 57.9957 328.001 57.9957C331.094 57.9957 331.946 60.1871 331.946 62.8899V70H328.829V63.4013ZM337.661 65.1057C337.954 66.9807 339.39 67.8816 341.168 67.8816C342.75 67.8816 344.163 67.1755 344.723 66.6885L345.94 68.3686C345.283 69.0504 343.505 70.2678 340.632 70.2678C337.077 70.2678 334.447 68.1007 334.447 64.3022C334.447 60.528 337.199 57.9957 340.559 57.9957C344.187 57.9957 346.379 60.3819 346.379 63.523C346.379 64.1318 346.33 65.1057 346.33 65.1057H337.661ZM340.535 60.3089C338.684 60.3089 337.71 61.5994 337.613 63.0847H343.262C343.213 61.7942 342.726 60.3089 340.535 60.3089ZM348.934 58.2148H352.027L351.978 60.1141H352.051C352.514 58.8479 353.683 57.9957 354.949 57.9957C355.752 57.9957 356.191 58.2148 356.191 58.2148L355.972 60.9176H355.825C355.485 60.8202 354.949 60.7715 354.535 60.7715C353.61 60.7715 352.903 61.1611 352.465 61.916C352.173 62.5003 352.027 63.3039 352.027 64.2048V70H348.934V58.2148ZM367.183 66.3963L368.06 68.6851C367.816 68.9043 366.599 70.2678 363.458 70.2678C360.244 70.2678 357.273 68.052 357.273 64.2048C357.273 60.3332 360.341 57.9957 363.506 57.9957C366.477 57.9957 367.646 59.1888 367.962 59.5054L367.11 61.8429C366.745 61.502 365.698 60.6011 363.872 60.6011C362.021 60.6011 360.536 61.8916 360.536 64.0587C360.536 66.2258 362.021 67.6381 364.042 67.6381C366.063 67.6381 367.183 66.3963 367.183 66.3963ZM372.651 65.1057C372.943 66.9807 374.379 67.8816 376.157 67.8816C377.74 67.8816 379.152 67.1755 379.712 66.6885L380.929 68.3686C380.272 69.0504 378.494 70.2678 375.621 70.2678C372.066 70.2678 369.436 68.1007 369.436 64.3022C369.436 60.528 372.188 57.9957 375.548 57.9957C379.176 57.9957 381.368 60.3819 381.368 63.523C381.368 64.1318 381.319 65.1057 381.319 65.1057H372.651ZM375.524 60.3089C373.673 60.3089 372.699 61.5994 372.602 63.0847H378.251C378.202 61.7942 377.715 60.3089 375.524 60.3089Z" fill="white"/>
<path d="M218.123 74.6251C217.547 74.6251 216.983 74.454 216.503 74.1335C216.023 73.813 215.65 73.3575 215.429 72.8246C215.208 72.2916 215.15 71.7052 215.263 71.1394C215.375 70.5736 215.653 70.0539 216.061 69.646C216.469 69.2381 216.989 68.9603 217.554 68.8478C218.12 68.7353 218.707 68.793 219.24 69.0138C219.773 69.2345 220.228 69.6084 220.549 70.088C220.869 70.5676 221.04 71.1316 221.04 71.7084C221.04 72.482 220.733 73.2238 220.186 73.7708C219.639 74.3178 218.897 74.6251 218.123 74.6251Z" fill="white"/>
<path d="M231.252 74.6251C230.675 74.6251 230.111 74.454 229.632 74.1335C229.152 73.813 228.778 73.3575 228.557 72.8246C228.337 72.2916 228.279 71.7052 228.391 71.1394C228.504 70.5736 228.782 70.0539 229.19 69.646C229.598 69.2381 230.117 68.9603 230.683 68.8478C231.249 68.7353 231.835 68.793 232.368 69.0138C232.901 69.2345 233.357 69.6084 233.677 70.088C233.998 70.5676 234.169 71.1316 234.169 71.7084C234.169 72.482 233.861 73.2238 233.315 73.7708C232.768 74.3178 232.026 74.6251 231.252 74.6251Z" fill="white"/>
<path d="M215.211 67.3333L211.183 51.2917H207.919V48.375H213.412L214.618 52.7996L237.086 54.2083L234.169 65.875L215.211 67.3333ZM215.43 55.7717L217.384 64.2067L231.919 63.1523L233.284 56.899L215.43 55.7717Z" fill="white"/>
<g filter="url(#filter12_dd_14271_1663)">
<ellipse cx="5.19355" cy="5.19355" rx="5.19355" ry="5.19355" transform="matrix(1 8.74228e-08 8.74228e-08 -1 307 134.387)" fill="#D1CCFF"/>
</g>
<g filter="url(#filter13_dd_14271_1663)">
<ellipse cx="3.63548" cy="3.63548" rx="3.63548" ry="3.63548" transform="matrix(1 8.74228e-08 8.74228e-08 -1 209 133.271)" fill="#D1CCFF"/>
</g>
<g filter="url(#filter14_dd_14271_1663)">
<ellipse cx="5.19355" cy="5.19355" rx="5.19355" ry="5.19355" transform="matrix(1 8.74228e-08 8.74228e-08 -1 130 134.387)" fill="#D1CCFF"/>
</g>
<g filter="url(#filter15_dd_14271_1663)">
<ellipse cx="3.63548" cy="3.63548" rx="3.63548" ry="3.63548" transform="matrix(1 8.74228e-08 8.74228e-08 -1 443 132.271)" fill="#D1CCFF"/>
</g>
<defs>
<filter id="filter0_f_14271_1663" x="0" y="108" width="593" height="178" filterUnits="userSpaceOnUse" color-interpolation-filters="sRGB">
<feFlood flood-opacity="0" result="BackgroundImageFix"/>
<feBlend mode="normal" in="SourceGraphic" in2="BackgroundImageFix" result="shape"/>
<feGaussianBlur stdDeviation="32" result="effect1_foregroundBlur_14271_1663"/>
</filter>
<filter id="filter1_f_14271_1663" x="54" y="222" width="478" height="351" filterUnits="userSpaceOnUse" color-interpolation-filters="sRGB">
<feFlood flood-opacity="0" result="BackgroundImageFix"/>
<feBlend mode="normal" in="SourceGraphic" in2="BackgroundImageFix" result="shape"/>
<feGaussianBlur stdDeviation="50" result="effect1_foregroundBlur_14271_1663"/>
</filter>
<filter id="filter2_bd_14271_1663" x="173.931" y="316.369" width="319.376" height="235.355" filterUnits="userSpaceOnUse" color-interpolation-filters="sRGB">
<feFlood flood-opacity="0" result="BackgroundImageFix"/>
<feGaussianBlur in="BackgroundImageFix" stdDeviation="21.1532"/>
<feComposite in2="SourceAlpha" operator="in" result="effect1_backgroundBlur_14271_1663"/>
<feColorMatrix in="SourceAlpha" type="matrix" values="0 0 0 0 0 0 0 0 0 0 0 0 0 0 0 0 0 0 127 0" result="hardAlpha"/>
<feMorphology radius="1.51889" operator="erode" in="SourceAlpha" result="effect2_dropShadow_14271_1663"/>
<feOffset dy="6.07555"/>
<feGaussianBlur stdDeviation="15.0541"/>
<feComposite in2="hardAlpha" operator="out"/>
<feColorMatrix type="matrix" values="0 0 0 0 0 0 0 0 0 0 0 0 0 0 0 0 0 0 0.2 0"/>
<feBlend mode="normal" in2="effect1_backgroundBlur_14271_1663" result="effect2_dropShadow_14271_1663"/>
<feBlend mode="normal" in="SourceGraphic" in2="effect2_dropShadow_14271_1663" result="shape"/>
</filter>
<filter id="filter3_bd_14271_1663" x="155.185" y="299.99" width="319.376" height="235.355" filterUnits="userSpaceOnUse" color-interpolation-filters="sRGB">
<feFlood flood-opacity="0" result="BackgroundImageFix"/>
<feGaussianBlur in="BackgroundImageFix" stdDeviation="21.1532"/>
<feComposite in2="SourceAlpha" operator="in" result="effect1_backgroundBlur_14271_1663"/>
<feColorMatrix in="SourceAlpha" type="matrix" values="0 0 0 0 0 0 0 0 0 0 0 0 0 0 0 0 0 0 127 0" result="hardAlpha"/>
<feMorphology radius="1.51889" operator="erode" in="SourceAlpha" result="effect2_dropShadow_14271_1663"/>
<feOffset dy="6.07555"/>
<feGaussianBlur stdDeviation="15.0541"/>
<feComposite in2="hardAlpha" operator="out"/>
<feColorMatrix type="matrix" values="0 0 0 0 0 0 0 0 0 0 0 0 0 0 0 0 0 0 0.2 0"/>
<feBlend mode="normal" in2="effect1_backgroundBlur_14271_1663" result="effect2_dropShadow_14271_1663"/>
<feBlend mode="normal" in="SourceGraphic" in2="effect2_dropShadow_14271_1663" result="shape"/>
</filter>
<filter id="filter4_bd_14271_1663" x="136.439" y="279.516" width="319.376" height="235.355" filterUnits="userSpaceOnUse" color-interpolation-filters="sRGB">
<feFlood flood-opacity="0" result="BackgroundImageFix"/>
<feGaussianBlur in="BackgroundImageFix" stdDeviation="21.1532"/>
<feComposite in2="SourceAlpha" operator="in" result="effect1_backgroundBlur_14271_1663"/>
<feColorMatrix in="SourceAlpha" type="matrix" values="0 0 0 0 0 0 0 0 0 0 0 0 0 0 0 0 0 0 127 0" result="hardAlpha"/>
<feMorphology radius="1.51889" operator="erode" in="SourceAlpha" result="effect2_dropShadow_14271_1663"/>
<feOffset dy="6.07555"/>
<feGaussianBlur stdDeviation="15.0541"/>
<feComposite in2="hardAlpha" operator="out"/>
<feColorMatrix type="matrix" values="0 0 0 0 0 0 0 0 0 0 0 0 0 0 0 0 0 0 0.2 0"/>
<feBlend mode="normal" in2="effect1_backgroundBlur_14271_1663" result="effect2_dropShadow_14271_1663"/>
<feBlend mode="normal" in="SourceGraphic" in2="effect2_dropShadow_14271_1663" result="shape"/>
</filter>
<filter id="filter5_bd_14271_1663" x="127.643" y="274.469" width="299.662" height="215.931" filterUnits="userSpaceOnUse" color-interpolation-filters="sRGB">
<feFlood flood-opacity="0" result="BackgroundImageFix"/>
<feGaussianBlur in="BackgroundImageFix" stdDeviation="16.1787"/>
<feComposite in2="SourceAlpha" operator="in" result="effect1_backgroundBlur_14271_1663"/>
<feColorMatrix in="SourceAlpha" type="matrix" values="0 0 0 0 0 0 0 0 0 0 0 0 0 0 0 0 0 0 127 0" result="hardAlpha"/>
<feMorphology radius="1.1617" operator="erode" in="SourceAlpha" result="effect2_dropShadow_14271_1663"/>
<feOffset dy="4.64679"/>
<feGaussianBlur stdDeviation="11.5139"/>
<feComposite in2="hardAlpha" operator="out"/>
<feColorMatrix type="matrix" values="0 0 0 0 0 0 0 0 0 0 0 0 0 0 0 0 0 0 0.2 0"/>
<feBlend mode="normal" in2="effect1_backgroundBlur_14271_1663" result="effect2_dropShadow_14271_1663"/>
<feBlend mode="normal" in="SourceGraphic" in2="effect2_dropShadow_14271_1663" result="shape"/>
</filter>
<filter id="filter6_dd_14271_1663" x="347.479" y="241.305" width="41.0418" height="41.0418" filterUnits="userSpaceOnUse" color-interpolation-filters="sRGB">
<feFlood flood-opacity="0" result="BackgroundImageFix"/>
<feColorMatrix in="SourceAlpha" type="matrix" values="0 0 0 0 0 0 0 0 0 0 0 0 0 0 0 0 0 0 127 0" result="hardAlpha"/>
<feOffset/>
<feGaussianBlur stdDeviation="3.10418"/>
<feColorMatrix type="matrix" values="0 0 0 0 0.854902 0 0 0 0 0.847059 0 0 0 0 1 0 0 0 1 0"/>
<feBlend mode="normal" in2="BackgroundImageFix" result="effect1_dropShadow_14271_1663"/>
<feColorMatrix in="SourceAlpha" type="matrix" values="0 0 0 0 0 0 0 0 0 0 0 0 0 0 0 0 0 0 127 0" result="hardAlpha"/>
<feOffset/>
<feGaussianBlur stdDeviation="7.76044"/>
<feColorMatrix type="matrix" values="0 0 0 0 0.854902 0 0 0 0 0.847059 0 0 0 0 1 0 0 0 1 0"/>
<feBlend mode="normal" in2="effect1_dropShadow_14271_1663" result="effect2_dropShadow_14271_1663"/>
<feBlend mode="normal" in="SourceGraphic" in2="effect2_dropShadow_14271_1663" result="shape"/>
</filter>
<filter id="filter7_dd_14271_1663" x="162.479" y="226.305" width="38.0418" height="38.0418" filterUnits="userSpaceOnUse" color-interpolation-filters="sRGB">
<feFlood flood-opacity="0" result="BackgroundImageFix"/>
<feColorMatrix in="SourceAlpha" type="matrix" values="0 0 0 0 0 0 0 0 0 0 0 0 0 0 0 0 0 0 127 0" result="hardAlpha"/>
<feOffset/>
<feGaussianBlur stdDeviation="3.10418"/>
<feColorMatrix type="matrix" values="0 0 0 0 0.854902 0 0 0 0 0.847059 0 0 0 0 1 0 0 0 1 0"/>
<feBlend mode="normal" in2="BackgroundImageFix" result="effect1_dropShadow_14271_1663"/>
<feColorMatrix in="SourceAlpha" type="matrix" values="0 0 0 0 0 0 0 0 0 0 0 0 0 0 0 0 0 0 127 0" result="hardAlpha"/>
<feOffset/>
<feGaussianBlur stdDeviation="7.76044"/>
<feColorMatrix type="matrix" values="0 0 0 0 0.854902 0 0 0 0 0.847059 0 0 0 0 1 0 0 0 1 0"/>
<feBlend mode="normal" in2="effect1_dropShadow_14271_1663" result="effect2_dropShadow_14271_1663"/>
<feBlend mode="normal" in="SourceGraphic" in2="effect2_dropShadow_14271_1663" result="shape"/>
</filter>
<filter id="filter8_dd_14271_1663" x="95.4791" y="241.305" width="41.0418" height="41.0418" filterUnits="userSpaceOnUse" color-interpolation-filters="sRGB">
<feFlood flood-opacity="0" result="BackgroundImageFix"/>
<feColorMatrix in="SourceAlpha" type="matrix" values="0 0 0 0 0 0 0 0 0 0 0 0 0 0 0 0 0 0 127 0" result="hardAlpha"/>
<feOffset/>
<feGaussianBlur stdDeviation="3.10418"/>
<feColorMatrix type="matrix" values="0 0 0 0 0.854902 0 0 0 0 0.847059 0 0 0 0 1 0 0 0 1 0"/>
<feBlend mode="normal" in2="BackgroundImageFix" result="effect1_dropShadow_14271_1663"/>
<feColorMatrix in="SourceAlpha" type="matrix" values="0 0 0 0 0 0 0 0 0 0 0 0 0 0 0 0 0 0 127 0" result="hardAlpha"/>
<feOffset/>
<feGaussianBlur stdDeviation="7.76044"/>
<feColorMatrix type="matrix" values="0 0 0 0 0.854902 0 0 0 0 0.847059 0 0 0 0 1 0 0 0 1 0"/>
<feBlend mode="normal" in2="effect1_dropShadow_14271_1663" result="effect2_dropShadow_14271_1663"/>
<feBlend mode="normal" in="SourceGraphic" in2="effect2_dropShadow_14271_1663" result="shape"/>
</filter>
<filter id="filter9_dd_14271_1663" x="467.479" y="239.479" width="38.0418" height="38.0418" filterUnits="userSpaceOnUse" color-interpolation-filters="sRGB">
<feFlood flood-opacity="0" result="BackgroundImageFix"/>
<feColorMatrix in="SourceAlpha" type="matrix" values="0 0 0 0 0 0 0 0 0 0 0 0 0 0 0 0 0 0 127 0" result="hardAlpha"/>
<feOffset/>
<feGaussianBlur stdDeviation="3.10418"/>
<feColorMatrix type="matrix" values="0 0 0 0 0.854902 0 0 0 0 0.847059 0 0 0 0 1 0 0 0 1 0"/>
<feBlend mode="normal" in2="BackgroundImageFix" result="effect1_dropShadow_14271_1663"/>
<feColorMatrix in="SourceAlpha" type="matrix" values="0 0 0 0 0 0 0 0 0 0 0 0 0 0 0 0 0 0 127 0" result="hardAlpha"/>
<feOffset/>
<feGaussianBlur stdDeviation="7.76044"/>
<feColorMatrix type="matrix" values="0 0 0 0 0.854902 0 0 0 0 0.847059 0 0 0 0 1 0 0 0 1 0"/>
<feBlend mode="normal" in2="effect1_dropShadow_14271_1663" result="effect2_dropShadow_14271_1663"/>
<feBlend mode="normal" in="SourceGraphic" in2="effect2_dropShadow_14271_1663" result="shape"/>
</filter>
<filter id="filter10_bd_14271_1663" x="105.266" y="420.266" width="93.3558" height="68.6944" filterUnits="userSpaceOnUse" color-interpolation-filters="sRGB">
<feFlood flood-opacity="0" result="BackgroundImageFix"/>
<feGaussianBlur in="BackgroundImageFix" stdDeviation="2.08509"/>
<feComposite in2="SourceAlpha" operator="in" result="effect1_backgroundBlur_14271_1663"/>
<feColorMatrix in="SourceAlpha" type="matrix" values="0 0 0 0 0 0 0 0 0 0 0 0 0 0 0 0 0 0 127 0" result="hardAlpha"/>
<feOffset dy="4.17018"/>
<feGaussianBlur stdDeviation="2.08509"/>
<feComposite in2="hardAlpha" operator="out"/>
<feColorMatrix type="matrix" values="0 0 0 0 0 0 0 0 0 0 0 0 0 0 0 0 0 0 0.25 0"/>
<feBlend mode="normal" in2="effect1_backgroundBlur_14271_1663" result="effect2_dropShadow_14271_1663"/>
<feBlend mode="normal" in="SourceGraphic" in2="effect2_dropShadow_14271_1663" result="shape"/>
</filter>
<filter id="filter11_bd_14271_1663" x="189.415" y="36.4147" width="210.171" height="54.5054" filterUnits="userSpaceOnUse" color-interpolation-filters="sRGB">
<feFlood flood-opacity="0" result="BackgroundImageFix"/>
<feGaussianBlur in="BackgroundImageFix" stdDeviation="1.6674"/>
<feComposite in2="SourceAlpha" operator="in" result="effect1_backgroundBlur_14271_1663"/>
<feColorMatrix in="SourceAlpha" type="matrix" values="0 0 0 0 0 0 0 0 0 0 0 0 0 0 0 0 0 0 127 0" result="hardAlpha"/>
<feOffset dy="3.3348"/>
<feGaussianBlur stdDeviation="1.6674"/>
<feComposite in2="hardAlpha" operator="out"/>
<feColorMatrix type="matrix" values="0 0 0 0 0 0 0 0 0 0 0 0 0 0 0 0 0 0 0.25 0"/>
<feBlend mode="normal" in2="effect1_backgroundBlur_14271_1663" result="effect2_dropShadow_14271_1663"/>
<feBlend mode="normal" in="SourceGraphic" in2="effect2_dropShadow_14271_1663" result="shape"/>
</filter>
<filter id="filter12_dd_14271_1663" x="290.878" y="107.878" width="42.6306" height="42.6306" filterUnits="userSpaceOnUse" color-interpolation-filters="sRGB">
<feFlood flood-opacity="0" result="BackgroundImageFix"/>
<feColorMatrix in="SourceAlpha" type="matrix" values="0 0 0 0 0 0 0 0 0 0 0 0 0 0 0 0 0 0 127 0" result="hardAlpha"/>
<feOffset/>
<feGaussianBlur stdDeviation="3.22434"/>
<feColorMatrix type="matrix" values="0 0 0 0 0.854902 0 0 0 0 0.847059 0 0 0 0 1 0 0 0 1 0"/>
<feBlend mode="normal" in2="BackgroundImageFix" result="effect1_dropShadow_14271_1663"/>
<feColorMatrix in="SourceAlpha" type="matrix" values="0 0 0 0 0 0 0 0 0 0 0 0 0 0 0 0 0 0 127 0" result="hardAlpha"/>
<feOffset/>
<feGaussianBlur stdDeviation="8.06084"/>
<feColorMatrix type="matrix" values="0 0 0 0 0.854902 0 0 0 0 0.847059 0 0 0 0 1 0 0 0 1 0"/>
<feBlend mode="normal" in2="effect1_dropShadow_14271_1663" result="effect2_dropShadow_14271_1663"/>
<feBlend mode="normal" in="SourceGraphic" in2="effect2_dropShadow_14271_1663" result="shape"/>
</filter>
<filter id="filter13_dd_14271_1663" x="192.878" y="109.878" width="39.5144" height="39.5144" filterUnits="userSpaceOnUse" color-interpolation-filters="sRGB">
<feFlood flood-opacity="0" result="BackgroundImageFix"/>
<feColorMatrix in="SourceAlpha" type="matrix" values="0 0 0 0 0 0 0 0 0 0 0 0 0 0 0 0 0 0 127 0" result="hardAlpha"/>
<feOffset/>
<feGaussianBlur stdDeviation="3.22434"/>
<feColorMatrix type="matrix" values="0 0 0 0 0.854902 0 0 0 0 0.847059 0 0 0 0 1 0 0 0 1 0"/>
<feBlend mode="normal" in2="BackgroundImageFix" result="effect1_dropShadow_14271_1663"/>
<feColorMatrix in="SourceAlpha" type="matrix" values="0 0 0 0 0 0 0 0 0 0 0 0 0 0 0 0 0 0 127 0" result="hardAlpha"/>
<feOffset/>
<feGaussianBlur stdDeviation="8.06084"/>
<feColorMatrix type="matrix" values="0 0 0 0 0.854902 0 0 0 0 0.847059 0 0 0 0 1 0 0 0 1 0"/>
<feBlend mode="normal" in2="effect1_dropShadow_14271_1663" result="effect2_dropShadow_14271_1663"/>
<feBlend mode="normal" in="SourceGraphic" in2="effect2_dropShadow_14271_1663" result="shape"/>
</filter>
<filter id="filter14_dd_14271_1663" x="113.878" y="107.878" width="42.6306" height="42.6306" filterUnits="userSpaceOnUse" color-interpolation-filters="sRGB">
<feFlood flood-opacity="0" result="BackgroundImageFix"/>
<feColorMatrix in="SourceAlpha" type="matrix" values="0 0 0 0 0 0 0 0 0 0 0 0 0 0 0 0 0 0 127 0" result="hardAlpha"/>
<feOffset/>
<feGaussianBlur stdDeviation="3.22434"/>
<feColorMatrix type="matrix" values="0 0 0 0 0.854902 0 0 0 0 0.847059 0 0 0 0 1 0 0 0 1 0"/>
<feBlend mode="normal" in2="BackgroundImageFix" result="effect1_dropShadow_14271_1663"/>
<feColorMatrix in="SourceAlpha" type="matrix" values="0 0 0 0 0 0 0 0 0 0 0 0 0 0 0 0 0 0 127 0" result="hardAlpha"/>
<feOffset/>
<feGaussianBlur stdDeviation="8.06084"/>
<feColorMatrix type="matrix" values="0 0 0 0 0.854902 0 0 0 0 0.847059 0 0 0 0 1 0 0 0 1 0"/>
<feBlend mode="normal" in2="effect1_dropShadow_14271_1663" result="effect2_dropShadow_14271_1663"/>
<feBlend mode="normal" in="SourceGraphic" in2="effect2_dropShadow_14271_1663" result="shape"/>
</filter>
<filter id="filter15_dd_14271_1663" x="426.878" y="108.878" width="39.5144" height="39.5144" filterUnits="userSpaceOnUse" color-interpolation-filters="sRGB">
<feFlood flood-opacity="0" result="BackgroundImageFix"/>
<feColorMatrix in="SourceAlpha" type="matrix" values="0 0 0 0 0 0 0 0 0 0 0 0 0 0 0 0 0 0 127 0" result="hardAlpha"/>
<feOffset/>
<feGaussianBlur stdDeviation="3.22434"/>
<feColorMatrix type="matrix" values="0 0 0 0 0.854902 0 0 0 0 0.847059 0 0 0 0 1 0 0 0 1 0"/>
<feBlend mode="normal" in2="BackgroundImageFix" result="effect1_dropShadow_14271_1663"/>
<feColorMatrix in="SourceAlpha" type="matrix" values="0 0 0 0 0 0 0 0 0 0 0 0 0 0 0 0 0 0 127 0" result="hardAlpha"/>
<feOffset/>
<feGaussianBlur stdDeviation="8.06084"/>
<feColorMatrix type="matrix" values="0 0 0 0 0.854902 0 0 0 0 0.847059 0 0 0 0 1 0 0 0 1 0"/>
<feBlend mode="normal" in2="effect1_dropShadow_14271_1663" result="effect2_dropShadow_14271_1663"/>
<feBlend mode="normal" in="SourceGraphic" in2="effect2_dropShadow_14271_1663" result="shape"/>
</filter>
<linearGradient id="paint0_linear_14271_1663" x1="75.7688" y1="168.835" x2="132.82" y2="227.82" gradientUnits="userSpaceOnUse">
<stop offset="0.173212" stop-color="#0E2446"/>
<stop offset="1" stop-color="#003C97"/>
</linearGradient>
<linearGradient id="paint1_linear_14271_1663" x1="101.106" y1="164" x2="101.106" y2="227.654" gradientUnits="userSpaceOnUse">
<stop stop-color="white" stop-opacity="0.09"/>
<stop offset="1" stop-color="#9D97F4"/>
</linearGradient>
<linearGradient id="paint2_linear_14271_1663" x1="150.139" y1="168.835" x2="205.256" y2="227.82" gradientUnits="userSpaceOnUse">
<stop stop-color="#0E2446"/>
<stop offset="1" stop-color="#003C97"/>
</linearGradient>
<linearGradient id="paint3_linear_14271_1663" x1="177.318" y1="164" x2="177.318" y2="227.654" gradientUnits="userSpaceOnUse">
<stop stop-color="white" stop-opacity="0.09"/>
<stop offset="1" stop-color="#9D97F4"/>
</linearGradient>
<linearGradient id="paint4_linear_14271_1663" x1="229.344" y1="168.835" x2="285.428" y2="227.82" gradientUnits="userSpaceOnUse">
<stop stop-color="#0E2446"/>
<stop offset="1" stop-color="#003C97"/>
</linearGradient>
<linearGradient id="paint5_linear_14271_1663" x1="253.53" y1="164" x2="253.53" y2="227.654" gradientUnits="userSpaceOnUse">
<stop stop-color="white" stop-opacity="0.09"/>
<stop offset="1" stop-color="#9D97F4"/>
</linearGradient>
<linearGradient id="paint6_linear_14271_1663" x1="310.802" y1="168.756" x2="368.82" y2="227.258" gradientUnits="userSpaceOnUse">
<stop stop-color="#0E2446"/>
<stop offset="1" stop-color="#003C97"/>
</linearGradient>
<linearGradient id="paint7_linear_14271_1663" x1="337.106" y1="164" x2="337.106" y2="227.654" gradientUnits="userSpaceOnUse">
<stop stop-color="white" stop-opacity="0.09"/>
<stop offset="1" stop-color="#9D97F4"/>
</linearGradient>
<linearGradient id="paint8_linear_14271_1663" x1="387.106" y1="170.207" x2="438.839" y2="227.258" gradientUnits="userSpaceOnUse">
<stop stop-color="#0E2446"/>
<stop offset="1" stop-color="#003C97"/>
</linearGradient>
<linearGradient id="paint9_linear_14271_1663" x1="413.318" y1="164" x2="413.318" y2="227.654" gradientUnits="userSpaceOnUse">
<stop stop-color="white" stop-opacity="0.09"/>
<stop offset="1" stop-color="#9D97F4"/>
</linearGradient>
<linearGradient id="paint10_linear_14271_1663" x1="463.893" y1="170.207" x2="512.726" y2="227.258" gradientUnits="userSpaceOnUse">
<stop stop-color="#0E2446"/>
<stop offset="1" stop-color="#003C97"/>
</linearGradient>
<linearGradient id="paint11_linear_14271_1663" x1="489.53" y1="164" x2="489.53" y2="227.654" gradientUnits="userSpaceOnUse">
<stop stop-color="white" stop-opacity="0.09"/>
<stop offset="1" stop-color="#9D97F4"/>
</linearGradient>
<linearGradient id="paint12_linear_14271_1663" x1="216.237" y1="365.053" x2="456.885" y2="511.953" gradientUnits="userSpaceOnUse">
<stop offset="0.27" stop-color="#0E2446"/>
<stop offset="1" stop-color="#003C97"/>
</linearGradient>
<linearGradient id="paint13_linear_14271_1663" x1="248.15" y1="361.69" x2="419.971" y2="504.833" gradientUnits="userSpaceOnUse">
<stop stop-color="white" stop-opacity="0"/>
<stop offset="1" stop-color="#BBB7FF"/>
</linearGradient>
<linearGradient id="paint14_linear_14271_1663" x1="197.491" y1="348.674" x2="438.139" y2="495.574" gradientUnits="userSpaceOnUse">
<stop offset="0.27" stop-color="#0E2446"/>
<stop offset="1" stop-color="#003C97"/>
</linearGradient>
<linearGradient id="paint15_linear_14271_1663" x1="229.405" y1="345.311" x2="401.226" y2="488.455" gradientUnits="userSpaceOnUse">
<stop stop-color="white" stop-opacity="0"/>
<stop offset="1" stop-color="#BBB7FF"/>
</linearGradient>
<linearGradient id="paint16_linear_14271_1663" x1="178.746" y1="328.2" x2="419.393" y2="475.1" gradientUnits="userSpaceOnUse">
<stop offset="0.27" stop-color="#0E2446"/>
<stop offset="1" stop-color="#003C97"/>
</linearGradient>
<linearGradient id="paint17_linear_14271_1663" x1="210.659" y1="324.838" x2="382.48" y2="467.981" gradientUnits="userSpaceOnUse">
<stop stop-color="white" stop-opacity="0"/>
<stop offset="1" stop-color="#BBB7FF"/>
</linearGradient>
<linearGradient id="paint18_linear_14271_1663" x1="194" y1="300.326" x2="395.174" y2="448.783" gradientUnits="userSpaceOnUse">
<stop offset="0.28" stop-color="#092349"/>
<stop offset="1" stop-color="#003C97"/>
</linearGradient>
<linearGradient id="paint19_linear_14271_1663" x1="191.938" y1="309.85" x2="364.225" y2="453.045" gradientUnits="userSpaceOnUse">
<stop stop-color="white" stop-opacity="0"/>
<stop offset="1" stop-color="#BBB7FF"/>
</linearGradient>
<linearGradient id="paint20_linear_14271_1663" x1="279.584" y1="316.553" x2="323.416" y2="159.336" gradientUnits="userSpaceOnUse">
<stop stop-color="#C3BFFF"/>
<stop offset="0.7" stop-color="#C3BFFF"/>
<stop offset="1" stop-color="#091B36" stop-opacity="0"/>
</linearGradient>
<linearGradient id="paint21_linear_14271_1663" x1="285.941" y1="315.793" x2="351.719" y2="179.523" gradientUnits="userSpaceOnUse">
<stop stop-color="#C3BFFF"/>
<stop offset="0.7" stop-color="#C3BFFF"/>
<stop offset="1" stop-color="#091B36" stop-opacity="0"/>
</linearGradient>
<linearGradient id="paint22_linear_14271_1663" x1="291.663" y1="315.793" x2="361.004" y2="233.801" gradientUnits="userSpaceOnUse">
<stop stop-color="#C3BFFF"/>
<stop offset="0.7" stop-color="#C3BFFF"/>
<stop offset="1" stop-color="#091B36" stop-opacity="0"/>
</linearGradient>
<linearGradient id="paint23_linear_14271_1663" x1="309.416" y1="74.4473" x2="265.584" y2="231.664" gradientUnits="userSpaceOnUse">
<stop stop-color="#C3BFFF"/>
<stop offset="0.7" stop-color="#C3BFFF"/>
<stop offset="1" stop-color="#091B36" stop-opacity="0"/>
</linearGradient>
<linearGradient id="paint24_linear_14271_1663" x1="303.059" y1="75.2066" x2="237.281" y2="211.477" gradientUnits="userSpaceOnUse">
<stop stop-color="#C3BFFF"/>
<stop offset="0.7" stop-color="#C3BFFF"/>
<stop offset="1" stop-color="#091B36" stop-opacity="0"/>
</linearGradient>
<linearGradient id="paint25_linear_14271_1663" x1="297.337" y1="75.2066" x2="227.996" y2="157.199" gradientUnits="userSpaceOnUse">
<stop stop-color="#C3BFFF"/>
<stop offset="0.7" stop-color="#C3BFFF"/>
<stop offset="1" stop-color="#091B36" stop-opacity="0"/>
</linearGradient>
<linearGradient id="paint26_linear_14271_1663" x1="309.416" y1="316.553" x2="265.584" y2="159.336" gradientUnits="userSpaceOnUse">
<stop stop-color="#C3BFFF"/>
<stop offset="0.7" stop-color="#C3BFFF"/>
<stop offset="1" stop-color="#091B36" stop-opacity="0"/>
</linearGradient>
<linearGradient id="paint27_linear_14271_1663" x1="303.059" y1="315.793" x2="237.281" y2="179.523" gradientUnits="userSpaceOnUse">
<stop stop-color="#C3BFFF"/>
<stop offset="0.7" stop-color="#C3BFFF"/>
<stop offset="1" stop-color="#091B36" stop-opacity="0"/>
</linearGradient>
<linearGradient id="paint28_linear_14271_1663" x1="297.337" y1="315.793" x2="227.996" y2="233.801" gradientUnits="userSpaceOnUse">
<stop stop-color="#C3BFFF"/>
<stop offset="0.7" stop-color="#C3BFFF"/>
<stop offset="1" stop-color="#091B36" stop-opacity="0"/>
</linearGradient>
<linearGradient id="paint29_linear_14271_1663" x1="279.584" y1="74.4473" x2="323.416" y2="231.665" gradientUnits="userSpaceOnUse">
<stop stop-color="#C3BFFF"/>
<stop offset="0.7" stop-color="#C3BFFF"/>
<stop offset="1" stop-color="#091B36" stop-opacity="0"/>
</linearGradient>
<linearGradient id="paint30_linear_14271_1663" x1="285.941" y1="75.2067" x2="351.719" y2="211.477" gradientUnits="userSpaceOnUse">
<stop stop-color="#C3BFFF"/>
<stop offset="0.7" stop-color="#C3BFFF"/>
<stop offset="1" stop-color="#091B36" stop-opacity="0"/>
</linearGradient>
<linearGradient id="paint31_linear_14271_1663" x1="291.663" y1="75.2066" x2="361.004" y2="157.199" gradientUnits="userSpaceOnUse">
<stop stop-color="#C3BFFF"/>
<stop offset="0.7" stop-color="#C3BFFF"/>
<stop offset="1" stop-color="#091B36" stop-opacity="0"/>
</linearGradient>
<linearGradient id="paint32_linear_14271_1663" x1="200.138" y1="479.17" x2="115.691" y2="437.989" gradientUnits="userSpaceOnUse">
<stop stop-color="white" stop-opacity="0"/>
<stop offset="1.0001" stop-color="white" stop-opacity="0.33"/>
</linearGradient>
<linearGradient id="paint33_linear_14271_1663" x1="151.944" y1="426" x2="151.944" y2="479.056" gradientUnits="userSpaceOnUse">
<stop stop-color="#D7D4FF"/>
<stop offset="1" stop-color="#5B588E" stop-opacity="0.7"/>
</linearGradient>
<linearGradient id="paint34_linear_14271_1663" x1="412.796" y1="83.0908" x2="334.724" y2="-34.9593" gradientUnits="userSpaceOnUse">
<stop stop-color="white" stop-opacity="0"/>
<stop offset="1.0001" stop-color="white" stop-opacity="0.33"/>
</linearGradient>
<linearGradient id="paint35_linear_14271_1663" x1="294.5" y1="41.0006" x2="294.5" y2="83.0009" gradientUnits="userSpaceOnUse">
<stop stop-color="#D7D4FF"/>
<stop offset="1" stop-color="#5B588E" stop-opacity="0.7"/>
</linearGradient>
<clipPath id="clip0_14271_1663">
<rect width="34" height="34" fill="white" transform="translate(473 181)"/>
</clipPath>
</defs>
</svg>
