<svg width="213" height="213" viewBox="0 0 213 213" fill="none" xmlns="http://www.w3.org/2000/svg">
<path opacity="0.1" d="M213 106.5C213 165.318 165.318 213 106.5 213C47.6817 213 0 165.318 0 106.5C0 47.6817 47.6817 0 106.5 0C165.318 0 213 47.6817 213 106.5Z" fill="#9D97F4"/>
<circle opacity="0.3" cx="106.5" cy="108.548" r="77.8269" fill="#9D97F4"/>
<circle cx="106.54" cy="108.589" r="51.9261" fill="#9D97F4"/>
<mask id="mask0_30149_98562" style="mask-type:alpha" maskUnits="userSpaceOnUse" x="54" y="56" width="105" height="105">
<circle cx="106.54" cy="108.589" r="51.9261" fill="#C4C4C4"/>
</mask>
<g mask="url(#mask0_30149_98562)">
</g>
<path d="M123.712 105.814C124.514 106.277 124.514 107.436 123.712 107.899L99.3317 121.975C98.529 122.438 97.5257 121.859 97.5257 120.932L97.5257 92.7809C97.5257 91.854 98.529 91.2747 99.3317 91.7382L123.712 105.814Z" fill="white"/>
</svg>
