<svg xmlns="http://www.w3.org/2000/svg" width="130" height="100" viewBox="0 0 130 100" fill="none"><circle cx="65" cy="50" r="40" fill="#E6EEFF"></circle><g filter="url(#filter0_dd_31115_6320)"><rect x="16" y="19" width="100" height="58" rx="8" fill="white"></rect><g clip-path="url(#clip0_31115_6320)"><path d="M61.9355 36.0348C60.02 33.2264 57.4405 30.9335 54.4255 29.3594C54.5213 30.5627 54.3315 31.7715 53.8717 32.8878C53.4118 34.0041 52.6947 34.9962 51.7788 35.7836C54.1355 37.1555 56.0325 39.1941 57.2301 41.642C58.4278 44.0899 58.8725 46.8374 58.508 49.5376C58.8918 49.363 59.2966 49.2386 59.7123 49.1675L60.5261 49.1278C60.8437 48.6718 61.1547 48.2025 61.4459 47.7267C61.6323 47.3121 61.8537 46.9141 62.1075 46.537C62.1869 46.3718 62.2663 46.2131 62.3391 46.0545C62.9611 44.7326 64.172 45.724 65.3034 45.1887C64.7675 40.5027 63.4772 38.282 61.9355 36.0348Z" fill="#5D5FEF"></path><path d="M42.2705 65.7106H42.4491C42.3631 65.2876 42.2705 64.8712 42.1514 64.4482C42.1051 64.2698 42.0455 64.0913 41.9992 63.9129V63.8666L41.5228 62.3597C41.3907 61.9323 41.3413 61.4837 41.3772 61.0378C38.7646 60.3534 36.4123 58.9142 34.6149 56.9004C33.4232 58.1494 32.0756 59.2401 30.6052 60.1456C30.103 60.474 29.5603 60.7362 28.9907 60.9255C31.4985 63.9525 35.8986 66.3715 39.4253 67.5348C40.4377 66.5368 40.7751 65.7106 42.2705 65.7106Z" fill="#FECE4D"></path><path d="M35.3156 57.6406C34.6365 56.9892 34.0267 56.2694 33.496 55.4926C31.6436 52.7908 30.8156 49.5181 31.1604 46.2616C31.5052 43.0052 33.0002 39.9779 35.3773 37.7228C37.7544 35.4678 40.858 34.1324 44.1316 33.9563C47.4051 33.7802 50.6344 34.7748 53.2403 36.7618L56.2906 30.4764C49.0122 25.7573 41.2177 25.8498 33.1784 30.6614C28.6536 33.7596 25.5458 38.5259 24.5383 43.9123C23.5308 49.2988 24.706 54.8644 27.8056 59.3855C28.3343 60.1582 28.9158 60.8936 29.5458 61.5864L35.3156 57.6406Z" fill="#9FC0FF"></path><path d="M39.991 67.1766L41.5202 61.5062C43.7111 62.0253 45.9963 62.0203 48.189 61.4886C50.5446 60.9174 52.7161 59.7569 54.499 58.1164C56.282 56.4758 57.6179 54.4091 58.3809 52.1106C59.0798 50.0055 59.2771 47.7695 58.9609 45.5799L64.9042 45.6755C65.5483 52.621 63.129 58.3786 57.7624 62.9101C55.7928 64.5726 53.5415 65.8699 51.1146 66.7407C47.5616 68.0104 44.4883 68.1707 39.991 67.1766Z" fill="#3D7FFC" stroke="#3D7FFC"></path><circle cx="45.0552" cy="47.9007" r="11.3518" fill="#E7EEFF"></circle></g><rect x="77.2295" y="32" width="4" height="4" rx="2" fill="#5D5FEF"></rect><rect x="77.2295" y="42.0859" width="4" height="4" rx="2" fill="#3D7FFC"></rect><rect x="77.2295" y="52.1621" width="4" height="4" rx="2" fill="#76A5FF"></rect><rect x="77.2295" y="62.2471" width="4" height="4" rx="2" fill="#FECE4D"></rect></g><rect x="85" y="32" width="21" height="4" rx="2" fill="#EDF1F6"></rect><rect x="85" y="42" width="16" height="4" rx="2" fill="#EDF1F6"></rect><rect x="85" y="52" width="19" height="4" rx="2" fill="#EDF1F6"></rect><rect x="85" y="62" width="13" height="4" rx="2" fill="#EDF1F6"></rect><defs><filter id="filter0_dd_31115_6320" x="4" y="9" width="124" height="82" filterUnits="userSpaceOnUse" color-interpolation-filters="sRGB"><feFlood flood-opacity="0" result="BackgroundImageFix"></feFlood><feColorMatrix in="SourceAlpha" type="matrix" values="0 0 0 0 0 0 0 0 0 0 0 0 0 0 0 0 0 0 127 0" result="hardAlpha"></feColorMatrix><feOffset dy="4"></feOffset><feGaussianBlur stdDeviation="5"></feGaussianBlur><feColorMatrix type="matrix" values="0 0 0 0 0.607843 0 0 0 0 0.67451 0 0 0 0 0.737255 0 0 0 0.35 0"></feColorMatrix><feBlend mode="normal" in2="BackgroundImageFix" result="effect1_dropShadow_31115_6320"></feBlend><feColorMatrix in="SourceAlpha" type="matrix" values="0 0 0 0 0 0 0 0 0 0 0 0 0 0 0 0 0 0 127 0" result="hardAlpha"></feColorMatrix><feOffset dy="2"></feOffset><feGaussianBlur stdDeviation="6"></feGaussianBlur><feColorMatrix type="matrix" values="0 0 0 0 0.89625 0 0 0 0 0.930414 0 0 0 0 0.995833 0 0 0 0.5 0"></feColorMatrix><feBlend mode="normal" in2="effect1_dropShadow_31115_6320" result="effect2_dropShadow_31115_6320"></feBlend><feBlend mode="normal" in="SourceGraphic" in2="effect2_dropShadow_31115_6320" result="shape"></feBlend></filter><clipPath id="clip0_31115_6320"><rect width="41.3215" height="41.3215" fill="white" transform="translate(24.1863 27)"></rect></clipPath></defs></svg>