<svg xmlns="http://www.w3.org/2000/svg" width="128" height="42" viewBox="0 0 128 42" fill="none"><g clip-path="url(#clip0_26369_52784)"><path d="M64.6523 18.4196H63.1461V9.67759C63.1461 8.98849 63.1863 8.14346 63.2716 7.1425H63.2365C63.1407 7.57174 63.0097 7.99233 62.8449 8.39999L58.4015 18.4146H57.6484L53.2201 8.47795C53.0489 8.04577 52.9179 7.59874 52.8284 7.1425H52.7933C52.841 7.6631 52.8661 8.51568 52.8661 9.6952V18.4196H51.395V5.38957H53.4033L57.3923 14.4762C57.6286 14.9817 57.8283 15.5037 57.9898 16.038H58.045C58.3044 15.3237 58.5128 14.7914 58.6701 14.4409L62.7419 5.38705H64.6473L64.6523 18.4196Z" fill="#2D78D0"></path><path d="M68.6339 6.75287C68.5079 6.75523 68.3828 6.73218 68.2659 6.68509C68.149 6.63799 68.0428 6.56782 67.9536 6.47873C67.8607 6.38925 67.7877 6.2812 67.7393 6.16162C67.6909 6.04204 67.6681 5.91358 67.6724 5.7846C67.6697 5.6569 67.6926 5.52995 67.7399 5.4113C67.7871 5.29266 67.8577 5.18473 67.9474 5.09394C68.0371 5.00315 68.144 4.93135 68.262 4.8828C68.3799 4.83424 68.5064 4.80993 68.6339 4.81131C68.7623 4.80881 68.89 4.83199 69.0094 4.87949C69.1288 4.92699 69.2375 4.99786 69.3293 5.08796C69.4228 5.17767 69.4966 5.286 69.5459 5.40597C69.5951 5.52594 69.6188 5.65491 69.6154 5.7846C69.6174 5.91186 69.5929 6.03812 69.5437 6.15543C69.4944 6.27275 69.4214 6.37855 69.3293 6.46616C69.2385 6.5583 69.1302 6.63118 69.0107 6.68044C68.8912 6.7297 68.7631 6.75433 68.6339 6.75287ZM69.3594 18.4198H67.8732V9.11442H69.3594V18.4198Z" fill="#2D78D0"></path><path d="M78.7031 17.9922C77.932 18.4382 77.0527 18.6619 76.1626 18.6386C74.8405 18.6386 73.7719 18.2068 72.9569 17.3434C72.1418 16.4799 71.7351 15.3607 71.7368 13.9859C71.7368 12.4551 72.1753 11.2236 73.0523 10.2914C73.9292 9.35918 75.1007 8.89391 76.5668 8.89559C77.3116 8.88103 78.05 9.03671 78.7257 9.3508V10.8774C78.0836 10.4072 77.3094 10.1528 76.5141 10.1506C76.0733 10.1381 75.6352 10.2234 75.2312 10.4004C74.8271 10.5773 74.4671 10.8416 74.1769 11.1742C73.5694 11.8565 73.2656 12.751 73.2656 13.8576C73.2656 14.9642 73.551 15.8243 74.1217 16.438C74.4133 16.7536 74.7701 17.0018 75.1673 17.1651C75.5644 17.3284 75.9923 17.403 76.4212 17.3836C77.252 17.377 78.0567 17.0929 78.7082 16.5763L78.7031 17.9922Z" fill="#2D78D0"></path><path d="M85.7972 10.6236C85.4653 10.4027 85.0701 10.2975 84.6725 10.3243C84.3529 10.3278 84.0394 10.4119 83.7608 10.5688C83.4822 10.7257 83.2475 10.9504 83.0784 11.2222C82.6533 11.8241 82.4408 12.6423 82.4408 13.6768V18.42H80.9521V9.11461H82.4408V11.0335H82.4759C82.6463 10.4402 82.9836 9.90846 83.4475 9.50192C83.8512 9.14611 84.3708 8.95025 84.9085 8.95114C85.2101 8.93781 85.5116 8.98132 85.7972 9.0794V10.6236Z" fill="#2D78D0"></path><path d="M91.2925 18.6384C89.9185 18.6384 88.8223 18.2034 88.0039 17.3332C87.1856 16.463 86.7764 15.3111 86.7764 13.8776C86.7764 12.3133 87.2023 11.0919 88.0541 10.2133C88.906 9.33473 90.0583 8.89545 91.5109 8.89545C92.895 8.89545 93.9761 9.32299 94.7543 10.1781C95.5326 11.0332 95.9208 12.2177 95.9192 13.7317C95.9192 15.2156 95.5008 16.4043 94.664 17.298C93.8272 18.1916 92.7034 18.6384 91.2925 18.6384ZM91.403 10.1504C90.9772 10.1328 90.5529 10.2117 90.1618 10.381C89.7706 10.5504 89.4226 10.806 89.1437 11.1287C88.5889 11.7776 88.3102 12.678 88.3102 13.8223C88.3102 14.9238 88.5914 15.7932 89.1537 16.4303C89.4365 16.7466 89.7858 16.9962 90.1765 17.161C90.5672 17.3259 90.9895 17.4018 91.413 17.3835C92.3753 17.3835 93.1142 17.0716 93.6297 16.4479C94.1452 15.8242 94.3987 14.9364 94.3903 13.7846C94.3903 12.6226 94.1318 11.7265 93.6146 11.096C93.0975 10.4656 92.3603 10.1504 91.403 10.1504Z" fill="#2D78D0"></path><path d="M97.7339 18.0823V16.4853C98.5048 17.0717 99.4471 17.3872 100.415 17.3832C101.72 17.3832 102.373 16.9472 102.373 16.0754C102.38 15.8529 102.322 15.6333 102.205 15.4441C102.085 15.2621 101.931 15.1057 101.75 14.9839C101.541 14.8398 101.316 14.72 101.08 14.6268C100.829 14.5186 100.548 14.4105 100.252 14.2948C99.8813 14.1474 99.5192 13.9795 99.1673 13.7918C98.8807 13.6437 98.6176 13.4538 98.3866 13.2284C98.1791 13.0286 98.015 12.788 97.9046 12.5217C97.7934 12.2227 97.7398 11.9052 97.7464 11.5862C97.7393 11.1797 97.8426 10.779 98.0452 10.4268C98.2474 10.0908 98.5197 9.80252 98.8435 9.58173C99.1923 9.35244 99.5765 9.18248 99.9807 9.07874C100.411 8.96267 100.855 8.90432 101.301 8.90521C102.042 8.89294 102.777 9.036 103.46 9.32521V10.8342C102.758 10.381 101.938 10.1472 101.103 10.1627C100.849 10.1599 100.595 10.1921 100.35 10.2583C100.143 10.3135 99.9476 10.4045 99.7723 10.5274C99.6239 10.6324 99.5005 10.7689 99.4108 10.9272C99.3228 11.0901 99.2778 11.2727 99.2803 11.4579C99.2713 11.6702 99.3162 11.8813 99.4108 12.0716C99.5054 12.2445 99.6375 12.3941 99.7974 12.5092C99.9884 12.6475 100.196 12.7616 100.415 12.8487C100.666 12.9518 100.932 13.065 101.238 13.1857C101.615 13.3285 101.985 13.4905 102.345 13.6711C102.646 13.8215 102.925 14.0109 103.176 14.2344C103.401 14.4367 103.581 14.6833 103.706 14.9587C103.836 15.2654 103.9 15.5964 103.892 15.9295C103.903 16.3498 103.798 16.7649 103.588 17.1292C103.385 17.4689 103.108 17.7579 102.777 17.9742C102.418 18.2068 102.023 18.3768 101.607 18.4772C101.153 18.5872 100.687 18.6421 100.219 18.6407C99.3576 18.6608 98.5043 18.4691 97.7339 18.0823Z" fill="#2D78D0"></path><path d="M110.06 18.6384C108.686 18.6384 107.59 18.2034 106.772 17.3332C105.953 16.463 105.544 15.3111 105.544 13.8776C105.544 12.3133 105.97 11.0919 106.822 10.2133C107.674 9.33473 108.826 8.89545 110.279 8.89545C111.661 8.89545 112.742 9.32299 113.522 10.1781C114.302 11.0332 114.69 12.2177 114.687 13.7317C114.687 15.2156 114.268 16.4043 113.432 17.298C112.595 18.1916 111.471 18.6384 110.06 18.6384ZM110.171 10.1504C109.745 10.1328 109.321 10.2117 108.929 10.381C108.538 10.5504 108.19 10.806 107.911 11.1287C107.356 11.7776 107.078 12.678 107.078 13.8223C107.078 14.9238 107.359 15.7932 107.921 16.4303C108.204 16.7466 108.553 16.9962 108.944 17.161C109.335 17.3259 109.757 17.4018 110.181 17.3835C111.143 17.3835 111.882 17.0716 112.397 16.4479C112.913 15.8242 113.171 14.9364 113.173 13.7846C113.173 12.6226 112.914 11.7265 112.397 11.096C111.88 10.4656 111.138 10.1504 110.171 10.1504Z" fill="#2D78D0"></path><path d="M121.653 5.95294C121.351 5.78422 121.01 5.69753 120.664 5.70145C119.624 5.70145 119.105 6.35869 119.105 7.67318V9.10923H121.281V10.3868H119.105V18.4196H117.626V10.3868H116.037V9.11426H117.626V7.60528C117.626 6.63282 117.907 5.8624 118.47 5.29402C118.744 5.01557 119.072 4.79644 119.433 4.65022C119.795 4.50399 120.183 4.43379 120.573 4.44396C120.94 4.43027 121.306 4.48572 121.653 4.60743V5.95294Z" fill="#2D78D0"></path><path d="M127.186 18.3293C126.754 18.5378 126.277 18.6346 125.798 18.6109C124.171 18.6109 123.358 17.7022 123.358 15.8847V10.387H121.753V9.11442H123.35V6.85095L124.839 6.36807V9.13454H127.178V10.387H124.839V15.6307C124.839 16.2544 124.944 16.6996 125.155 16.9662C125.288 17.1094 125.452 17.22 125.634 17.2894C125.817 17.3588 126.013 17.385 126.207 17.366C126.556 17.3749 126.898 17.266 127.178 17.0567L127.186 18.3293Z" fill="#2D78D0"></path><path d="M51.3901 37.0308V24.0007H54.9775C59.5614 24.0007 61.8534 26.1175 61.8534 30.351C61.8534 32.363 61.2174 33.9793 59.9455 35.1999C58.6736 36.4205 56.969 37.0308 54.8319 37.0308H51.3901ZM52.9139 25.3814V35.65H54.857C56.5607 35.65 57.8878 35.1923 58.8384 34.2769C59.789 33.3614 60.2635 32.0654 60.2618 30.3887C60.2618 27.0522 58.4903 25.3831 54.9473 25.3814H52.9139Z" fill="#2D78D0"></path><path d="M71.6813 32.7499H65.1242C65.1493 33.7861 65.4272 34.5859 65.9577 35.1492C66.4882 35.7126 67.2204 35.9942 68.1543 35.9942C69.2079 35.9932 70.2287 35.6271 71.0437 34.9581V36.3589C70.2287 36.9525 69.1492 37.2492 67.8053 37.2492C66.4932 37.2492 65.4623 36.8301 64.7125 35.9917C63.9628 35.1534 63.5879 33.9647 63.5879 32.4255C63.5879 30.9769 63.9971 29.7965 64.8155 28.8844C65.1935 28.4468 65.6628 28.0977 66.1903 27.8618C66.7178 27.6258 67.2905 27.5087 67.8681 27.5188C69.0831 27.5188 70.0237 27.912 70.6897 28.6983C71.3558 29.4847 71.6905 30.5787 71.6939 31.9804L71.6813 32.7499ZM70.1575 31.4924C70.1575 30.6323 69.9442 29.9633 69.5375 29.4805C69.3259 29.2404 69.063 29.0512 68.7683 28.9271C68.4736 28.803 68.1547 28.7471 67.8354 28.7637C67.5016 28.7586 67.1703 28.823 66.8626 28.9529C66.555 29.0827 66.2776 29.2752 66.0481 29.5182C65.5406 30.0596 65.2225 30.7516 65.1418 31.4899L70.1575 31.4924Z" fill="#2D78D0"></path><path d="M78.522 24.5634C78.2198 24.3947 77.8788 24.308 77.5329 24.3119C76.4936 24.3119 75.9731 24.9691 75.9714 26.2836V27.7197H78.1504V28.9923H75.9714V37.0251H74.4928V28.9973H72.9062V27.7247H74.4928V26.2157C74.4928 25.2433 74.774 24.4729 75.3363 23.9045C75.6107 23.6261 75.9392 23.407 76.3015 23.2608C76.6637 23.1146 77.0521 23.0444 77.4425 23.0544C77.8094 23.0409 78.1755 23.0964 78.522 23.2179V24.5634Z" fill="#2D78D0"></path><path d="M87.2108 32.7499H80.6537C80.6771 33.7861 80.9549 34.5859 81.4871 35.1492C82.0193 35.7126 82.7515 35.9942 83.6837 35.9942C84.7356 35.992 85.7545 35.626 86.5681 34.9581V36.3589C85.7531 36.9525 84.6736 37.2492 83.3297 37.2492C82.016 37.2492 80.985 36.8301 80.2369 35.9917C79.4889 35.1534 79.114 33.9647 79.1123 32.4255C79.1123 30.9769 79.5215 29.7965 80.3399 28.8844C80.7179 28.4468 81.1872 28.0977 81.7147 27.8618C82.2422 27.6258 82.8149 27.5087 83.3925 27.5188C84.6075 27.5188 85.5481 27.912 86.2142 28.6983C86.8802 29.4847 87.215 30.5787 87.2183 31.9804L87.2108 32.7499ZM85.687 31.4924C85.687 30.6323 85.4736 29.9633 85.0669 29.4805C84.8554 29.2404 84.5924 29.0512 84.2977 28.9271C84.003 28.803 83.6841 28.7471 83.3649 28.7637C83.031 28.7586 82.6998 28.823 82.3921 28.9529C82.0844 29.0827 81.807 29.2752 81.5775 29.5182C81.07 30.0596 80.752 30.7516 80.6712 31.4899L85.687 31.4924Z" fill="#2D78D0"></path><path d="M97.1719 37.0306H95.6832V31.724C95.6832 29.7506 94.9636 28.763 93.5243 28.7614C93.1735 28.7538 92.8256 28.8254 92.5062 28.9708C92.1868 29.1162 91.9042 29.3317 91.6791 29.6014C91.1808 30.1934 90.9204 30.9501 90.9486 31.724V37.0306H89.46V27.7252H90.9486V29.2694H90.9838C91.2794 28.7222 91.7208 28.2679 92.2589 27.9571C92.797 27.6463 93.4105 27.4911 94.0314 27.5089C95.0472 27.5089 95.8246 27.8367 96.3635 28.4923C96.9024 29.1478 97.1719 30.0977 97.1719 31.3417V37.0306Z" fill="#2D78D0"></path><path d="M107.901 37.0304H106.415V35.4611H106.377C105.69 36.6582 104.625 37.2576 103.184 37.2593C102.653 37.2785 102.125 37.1751 101.64 36.957C101.155 36.739 100.726 36.4121 100.388 36.0018C99.6882 35.1635 99.3384 34.0292 99.3384 32.599C99.3384 31.0599 99.7258 29.8267 100.501 28.8995C100.875 28.446 101.349 28.0849 101.886 27.8441C102.422 27.6034 103.006 27.4895 103.593 27.5113C104.869 27.5113 105.797 28.0143 106.377 29.0202H106.415V23.2534H107.901V37.0304ZM106.415 32.8229V31.4522C106.422 31.0999 106.359 30.7497 106.23 30.422C106.101 30.0943 105.908 29.7956 105.662 29.5434C105.421 29.2871 105.128 29.085 104.803 28.9502C104.478 28.8154 104.128 28.751 103.777 28.7612C103.365 28.7447 102.956 28.8275 102.584 29.0025C102.211 29.1776 101.886 29.4399 101.635 29.7672C101.115 30.4378 100.855 31.36 100.855 32.5337C100.855 33.605 101.106 34.4517 101.608 35.0738C101.846 35.376 102.152 35.6177 102.501 35.7794C102.85 35.941 103.232 36.0181 103.616 36.0043C103.997 36.0148 104.375 35.9394 104.723 35.7835C105.07 35.6276 105.378 35.3954 105.624 35.104C106.162 34.4688 106.444 33.6554 106.415 32.8229Z" fill="#2D78D0"></path><path d="M118.377 32.7499H111.82C111.845 33.7861 112.121 34.5859 112.656 35.1492C113.19 35.7126 113.911 35.9943 114.85 35.9943C115.903 35.9934 116.923 35.6273 117.737 34.9581V36.3589C116.922 36.9525 115.842 37.2492 114.498 37.2492C113.186 37.2492 112.155 36.8301 111.405 35.9917C110.656 35.1534 110.281 33.9647 110.281 32.4255C110.281 30.9769 110.691 29.7965 111.511 28.8844C111.888 28.4468 112.357 28.0976 112.884 27.8616C113.411 27.6256 113.984 27.5086 114.561 27.5188C115.779 27.5188 116.72 27.912 117.383 28.6983C118.045 29.4847 118.38 30.5787 118.387 31.9804L118.377 32.7499ZM116.853 31.4925C116.853 30.6323 116.646 29.9617 116.233 29.4805C116.021 29.2404 115.758 29.0512 115.464 28.9271C115.169 28.803 114.85 28.7472 114.531 28.7637C114.197 28.7583 113.866 28.8226 113.559 28.9525C113.252 29.0824 112.975 29.2751 112.746 29.5182C112.238 30.0594 111.919 30.7514 111.837 31.4899L116.853 31.4925Z" fill="#2D78D0"></path><path d="M125.471 29.234C125.139 29.014 124.744 28.9089 124.347 28.9347C124.028 28.9382 123.714 29.0223 123.436 29.1792C123.158 29.3362 122.924 29.5609 122.755 29.8326C122.328 30.4345 122.115 31.2527 122.115 32.2872V37.0304H120.629V27.725H122.115V29.6439H122.153C122.323 29.0512 122.659 28.5198 123.122 28.1123C123.526 27.7569 124.045 27.5611 124.583 27.5616C124.884 27.5482 125.186 27.5917 125.471 27.6898V29.234Z" fill="#2D78D0"></path><path d="M0.251236 18.8624C0.251236 14.587 0.188477 9.87894 0.188477 5.59091C3.10303 5.38469 6.01507 5.1684 8.84678 4.36864C10.5689 3.88325 11.9898 2.83954 13.486 1.93918C15.0834 0.93841 16.9456 0.444844 18.828 0.523249C18.828 6.73271 18.828 12.7611 18.828 18.8624" fill="#2D78D0"></path><path d="M39.9151 18.8621H21.5894V0.502838C23.5977 0.502838 25.498 0.653736 27.067 1.7402C30.3054 3.98607 33.8902 4.96942 37.7788 5.07254C38.1167 5.08941 38.4526 5.13484 38.783 5.20835C39.1595 5.27877 39.5361 5.38188 39.9704 5.48751C39.9779 9.88116 39.9151 14.4408 39.9151 18.8621Z" fill="#2D78D0"></path><path d="M1.09473 21.5127H18.931C18.931 28.3937 19.0389 35.179 18.6448 41.982C12.3889 40.5108 1.12485 27.36 1.09473 21.5127Z" fill="#2D78D0"></path><path d="M21.6973 42.0807V21.5611H39.3051C38.5595 29.0255 28.8945 38.7308 21.6973 42.0807Z" fill="#2D78D0"></path></g><defs><clipPath id="clip0_26369_52784"><rect width="127.527" height="42" fill="white"></rect></clipPath></defs></svg>