<svg xmlns="http://www.w3.org/2000/svg" width="136" height="100" viewBox="0 0 136 100" fill="none"><circle cx="65" cy="50" r="40" fill="#E6EEFF"></circle><g filter="url(#filter0_d_31115_6387)"><path d="M20.5505 25H109.449C113.617 25 117 28.4421 117 32.6815V66.5526C117 70.792 113.617 74.234 109.449 74.234H20.5505C16.3834 74.234 13 70.792 13 66.5526V32.6815C13 28.4421 16.3834 25 20.5505 25Z" fill="white"></path></g><path d="M52.6337 49.0123C52.6337 52.4755 51.5699 55.6835 49.7544 58.3414C49.0028 59.4503 48.1148 60.4581 47.1126 61.347C47.0906 61.369 47.0686 61.391 47.0466 61.4086C46.4576 61.9322 45.8202 62.4163 45.152 62.8564C44.5674 63.2348 43.9608 63.578 43.3278 63.8905C41.1474 64.951 38.6946 65.5495 36.1054 65.5495C35.9779 65.5495 35.8505 65.5495 35.7186 65.5495C34.3031 65.5143 32.9272 65.3075 31.6217 64.9334C31.3843 64.863 31.1513 64.797 30.9228 64.7178C29.4721 64.2381 28.105 63.5648 26.8654 62.7243C25.9379 62.0907 25.0719 61.369 24.2895 60.5637C24.2059 60.4801 24.118 60.3877 24.0389 60.2997C23.0982 59.2963 22.2806 58.1698 21.6212 56.9552C20.32 54.5922 19.5859 51.8902 19.5859 49.0123C19.5859 39.8812 26.9885 32.4707 36.1098 32.4707C45.2311 32.4707 52.6337 39.8812 52.6337 49.0123Z" fill="#E7EEFF"></path><path d="M47.1108 61.3516C47.1108 61.3516 47.0668 61.3956 47.0448 61.4132C46.4558 61.9369 45.8184 62.421 45.1502 62.861C44.5656 63.2395 43.959 63.5827 43.326 63.8951C41.1456 64.9557 38.6928 65.5542 36.1036 65.5542C35.9761 65.5542 35.8487 65.5542 35.7168 65.5542C34.3013 65.519 32.9254 65.3121 31.6199 64.9381C31.3825 64.8677 31.1495 64.8017 30.921 64.7224C29.4703 64.2428 28.1032 63.5695 26.8636 62.729C25.9361 62.0953 25.0701 61.3736 24.2877 60.5683C24.2042 60.4847 24.1162 60.3923 24.0371 60.3043C25.7735 59.4154 28.5912 58.8257 31.7518 58.6233C34.7629 58.4297 38.0861 58.5881 41.0665 59.1734C43.3919 59.631 45.5063 60.3395 47.1151 61.3516H47.1108Z" fill="#3D7FFC"></path><path d="M31.9155 59.2831C34.0651 61.6154 41.2874 61.2678 41.072 59.2347C41.0412 58.9839 40.9973 57.4921 40.9709 57.2633C40.9533 57.0784 40.9357 56.898 40.9181 56.7264C40.8698 56.2247 40.8302 55.7803 40.7951 55.3974C40.6983 54.2797 40.6676 53.6768 40.6676 53.6768H40.6588C40.4522 53.6196 35.8102 52.2995 33.498 51.7538C32.7243 51.569 32.21 51.4722 32.2188 51.5426C32.9266 56.7352 31.2034 58.5218 31.9067 59.2875L31.9155 59.2831Z" fill="#FFB27D"></path><path d="M33.2593 53.2814C33.2593 53.2814 35.1978 55.2528 40.7981 55.3937C40.7014 54.2759 40.6706 53.673 40.6706 53.673H40.6618C40.4552 53.6158 35.8132 52.2957 33.501 51.75C33.0922 51.9172 33.6329 53.0042 33.2549 53.2814H33.2593Z" fill="#ED975D"></path><path d="M42.0912 53.3951C42.0912 53.3951 40.6757 53.9056 38.8647 54.1476C36.2228 54.504 32.7457 54.2928 31.6555 51.0936C29.8181 45.7074 27.4663 42.473 32.8776 40.2727C35.7744 39.0934 37.6294 39.0318 38.8866 39.4806C39.9812 39.8679 40.623 40.6424 41.1153 41.4125C42.1659 43.0627 44.2803 52.4534 42.0912 53.3951Z" fill="#FFB27D"></path><path d="M40.7062 37.245C42.6404 38.5167 42.0074 41.4959 39.7304 41.8963C38.3633 42.1384 37.2204 42.1868 36.5566 42.4816C35.2115 43.0801 34.0554 43.7138 34.3719 45.804C34.4818 46.5169 34.8246 47.3794 33.0004 46.9525C32.7015 46.8821 32.4861 46.9041 32.3366 46.9921C31.5805 47.441 32.5476 49.6237 32.8377 50.0989C32.8377 50.0989 33.2597 51.6611 32.3234 52.4224C32.2091 52.5148 30.3761 53.3157 25.9583 46.5477C25.2637 45.4872 24.6 43.0933 25.6725 40.7874C26.7451 38.4815 29.7299 35.5684 35.3609 35.5684C36.8247 35.5684 39.027 36.1492 40.7019 37.2494L40.7062 37.245Z" fill="#091B36"></path><path d="M94.2232 46.8105H90.7778C90.3964 46.8105 90.0307 46.962 89.761 47.2317C89.4913 47.5014 89.3398 47.8672 89.3398 48.2485V57.3856C89.3416 57.7658 89.4939 58.1299 89.7634 58.3981C90.0329 58.6663 90.3976 58.8169 90.7778 58.8169H94.2232C94.6046 58.8169 94.9704 58.6654 95.2401 58.3957C95.5097 58.1261 95.6612 57.7603 95.6612 57.3789V48.2485C95.6612 47.8672 95.5097 47.5014 95.2401 47.2317C94.9704 46.962 94.6046 46.8105 94.2232 46.8105Z" fill="#9FC0FF"></path><path d="M109.158 53.1158V53.1828H109.428C109.724 53.1838 110.012 53.272 110.258 53.4364C110.503 53.6008 110.695 53.8341 110.809 54.1069C110.922 54.3797 110.953 54.6799 110.896 54.97C110.84 55.26 110.699 55.5269 110.491 55.7372C110.209 56.0194 109.827 56.1798 109.428 56.1838H109.158V56.2597C109.482 56.2832 109.785 56.4282 110.006 56.6658C110.227 56.9034 110.349 57.2158 110.349 57.5403C110.349 57.8648 110.227 58.1772 110.006 58.4148C109.785 58.6524 109.482 58.7975 109.158 58.8209C109.129 58.8241 109.099 58.8241 109.069 58.8209H99.1726C98.6098 58.8215 98.0698 58.5986 97.6712 58.2013C97.2726 57.804 97.0481 57.2647 97.0469 56.7019V48.6187C97.0469 47.3549 98.6814 44.72 99.7264 43.5478C99.9603 43.2927 100.139 42.9921 100.251 42.6647C100.363 42.3373 100.407 41.9902 100.378 41.6453C100.289 40.5289 100.363 38.9413 101.495 38.8363C103.263 38.6733 104.715 41.7391 103.877 44.0435C103.531 44.9791 103.248 45.669 103.022 46.1469H109.498C109.97 46.1503 110.422 46.3355 110.761 46.664C111.101 46.9925 111.3 47.439 111.318 47.9108C111.337 48.3825 111.173 48.8432 110.86 49.1971C110.548 49.551 110.111 49.7709 109.64 49.8111C110.072 49.8227 110.481 50.0022 110.782 50.3112C111.082 50.6203 111.251 51.0345 111.25 51.4657C111.247 51.9028 111.071 52.3209 110.762 52.6294C110.452 52.9379 110.033 53.1118 109.596 53.1136L109.158 53.1158Z" fill="#9FC0FF"></path><rect x="60" y="36" width="23" height="4" rx="2" fill="#E6EEFF"></rect><rect x="60" y="44" width="20" height="4" rx="2" fill="#EDF1F6"></rect><rect x="60" y="52" width="23" height="4" rx="2" fill="#EDF1F6"></rect><rect x="60" y="60" width="23" height="4" rx="2" fill="#EDF1F6"></rect><defs><filter id="filter0_d_31115_6387" x="4" y="16" width="132" height="77.2344" filterUnits="userSpaceOnUse" color-interpolation-filters="sRGB"><feFlood flood-opacity="0" result="BackgroundImageFix"></feFlood><feColorMatrix in="SourceAlpha" type="matrix" values="0 0 0 0 0 0 0 0 0 0 0 0 0 0 0 0 0 0 127 0" result="hardAlpha"></feColorMatrix><feOffset dx="5" dy="5"></feOffset><feGaussianBlur stdDeviation="7"></feGaussianBlur><feColorMatrix type="matrix" values="0 0 0 0 0 0 0 0 0 0.0898333 0 0 0 0 0.320833 0 0 0 0.07 0"></feColorMatrix><feBlend mode="normal" in2="BackgroundImageFix" result="effect1_dropShadow_31115_6387"></feBlend><feBlend mode="normal" in="SourceGraphic" in2="effect1_dropShadow_31115_6387" result="shape"></feBlend></filter></defs></svg>