<svg xmlns="http://www.w3.org/2000/svg" width="130" height="100" viewBox="0 0 130 100" fill="none"><circle cx="65" cy="50" r="40" fill="#E6EEFF"></circle><g filter="url(#filter0_dd_31115_6486)"><path d="M91.4113 49.7481C91.4118 55.1292 89.8165 60.3895 86.8272 64.8639C83.8379 69.3383 79.5888 72.8257 74.6174 74.8851C69.646 76.9444 64.1755 77.4833 58.8978 76.4334C53.6201 75.3835 48.7723 72.7922 44.9675 68.987C41.1627 65.1818 38.5717 60.3338 37.5223 55.056C36.473 49.7782 37.0123 44.3078 39.0721 39.3366C41.1319 34.3653 44.6197 30.1166 49.0944 27.1277C53.569 24.1388 58.8295 22.5439 64.2106 22.5449C71.4249 22.5456 78.3435 25.4119 83.4446 30.5134C88.5456 35.6149 91.4113 42.5338 91.4113 49.7481Z" fill="white"></path><path d="M62.3772 45.577C62.0319 47.8129 58.4272 47.634 57.5701 49.6935C56.8844 51.5841 58.2582 53.815 59.6321 54.8435C63.4057 57.2458 66.6651 55.3602 66.6651 61.3673C66.6651 64.4552 63.9324 70.6337 67.87 72.1765C71.1319 73.3789 76.6222 68.4028 78.1675 66.5147C79.3674 64.7981 79.7102 63.7671 81.4269 62.3958C83.4864 60.6791 84.1745 60.5077 81.9436 58.9624C80.227 57.7625 79.0246 58.2768 78.3389 55.8744C77.9936 54.672 79.196 52.784 78.8556 51.4027C78.3389 48.1408 74.2199 47.6241 71.3008 46.2502C68.2129 44.8789 66.3322 44.8789 63.0629 44.8789L62.3772 45.577Z" fill="#C6DBFF"></path><path d="M82.5174 29.623C80.6368 30.5969 77.7029 31.0341 76.1005 31.5683C71.6287 33.2849 74.0385 33.1135 73.6982 36.8896C74.8981 37.23 75.934 36.7182 76.6147 35.6848C77.8171 39.1206 73.5243 38.4448 71.9815 38.4448C71.1219 38.4448 70.4363 38.102 69.5767 38.4448C68.2054 39.133 69.922 41.5353 68.0339 39.8186C67.1744 39.3044 67.8625 37.7592 66.6601 36.9021C66.1459 36.5592 63.3982 36.3853 62.884 36.7306C60.8245 38.102 63.5696 40.3329 65.1198 41.5353C66.3198 42.5638 65.8055 42.9066 67.6936 43.252C68.7196 43.4234 69.7506 42.5638 70.7841 42.9066C72.8411 43.4234 73.7006 45.4829 75.9315 46.171C78.6643 47.0281 80.048 46.8567 81.2529 49.6043C81.9386 51.3185 82.11 53.2066 83.141 55.0947C84.8552 57.6684 87.0861 59.385 88.8027 56.1232C89.548 54.4661 89.1232 52.6749 91.2225 52.9656C91.3486 51.902 91.4133 50.8319 91.4162 49.7608C91.4228 45.9687 90.6343 42.2172 89.1015 38.7486C87.5688 35.28 85.3258 32.1713 82.5174 29.623Z" fill="#C6DBFF"></path><path d="M48.5967 62.3808C48.0799 61.8665 47.7396 59.648 47.2253 58.9499C47.0514 58.4357 46.1943 58.4357 45.8515 58.0904C45.5062 57.5761 46.0229 56.5451 45.3348 56.2023C44.3087 55.5166 43.2753 55.8595 42.2468 55.5166C40.5301 55.0024 41.3897 55.688 40.0109 54.1428C38.9923 53.1019 38.247 51.0846 37.0049 50.0586C37.0508 54.3068 38.0926 58.4849 40.0467 62.2572C42.0009 66.0295 44.8127 69.2908 48.2563 71.7789C49.1404 70.79 50.1143 69.8851 51.1654 69.076C52.7107 67.7046 55.2869 67.5307 54.0845 64.957C53.0585 62.2093 49.9705 63.5832 48.5967 62.3808Z" fill="#C6DBFF"></path><path d="M48.6315 34.613C46.9695 33.3709 45.5609 32.0716 43.8716 31.6865C40.2732 35.7277 37.9681 40.7542 37.2534 46.1179C38.8086 46.1179 38.2198 49.0046 40.3911 48.0035C40.9078 47.8296 42.1078 45.2558 42.627 44.5677C43.6555 43.5416 50.1793 41.1368 47.2602 39.599C47.603 39.0848 47.9484 38.9134 48.634 38.742C48.9769 39.7729 49.4911 40.4586 50.5221 40.6275C51.2053 37.5321 51.2053 36.3322 48.6315 34.613Z" fill="#C6DBFF"></path><path d="M47.2501 31.5578C47.5954 31.5578 50.1716 29.1555 50.1716 28.9866C50.1774 28.6063 50.074 28.2324 49.8736 27.9092C49.6733 27.586 49.3844 27.327 49.0413 27.1631C47.6595 28.0921 46.3671 29.1475 45.1807 30.3157C45.834 30.8945 46.2936 31.5578 47.2501 31.5578Z" fill="#C6DBFF"></path><path d="M63.6391 22.5576C60.1593 22.6239 56.7248 23.3594 53.523 24.7239C53.7714 24.8755 54.0025 25.0245 54.2459 25.1463C53.0858 27.0791 52.4423 27.4641 53.7292 29.782C54.6335 31.7098 56.0446 31.4514 57.7215 32.9967C59.0084 31.5806 57.9699 31.0639 58.3624 29.782C58.6109 28.4901 59.781 27.8492 60.9387 27.3325C62.7398 26.5623 65.957 27.4641 65.5719 24.7612C65.4477 23.8246 64.7098 23.0868 63.6391 22.5576Z" fill="#C6DBFF"></path><path d="M62.002 28.681C63.4181 28.4326 63.5473 29.8387 64.9633 29.4536C65.8651 31.7715 60.2009 31.2572 62.002 28.8077V28.681Z" fill="#C6DBFF"></path></g><path d="M48.5596 41.0544C54.9999 19.5507 71.9034 23.8221 90.8661 31.4694" stroke="#091B36" stroke-width="1.13618" stroke-linejoin="round" stroke-dasharray="4.36 4.36"></path><path d="M71.0479 16.494C70.444 17.0982 70.1047 17.9175 70.1047 18.7718C70.1047 19.626 70.444 20.4453 71.0479 21.0495L81.4938 31.4954L76.9382 51.9952L79.216 54.273L88.3271 38.3287L97.4381 47.4397L97.4381 54.273L99.7159 56.5508L101.994 47.4397L111.105 45.162L108.827 42.8842L101.994 42.8842L92.8826 33.7731L108.827 24.6621L106.549 22.3843L86.0493 26.9398L75.6035 16.494C74.9993 15.89 74.18 15.5508 73.3257 15.5508C72.4714 15.5508 71.6521 15.89 71.0479 16.494Z" fill="#3D7FFC"></path><g filter="url(#filter1_dd_31115_6486)"><path d="M53.8818 41.6265C53.8818 45.8384 47.8642 50.3263 46.9409 54.3317C46.0138 50.3263 40 45.8384 40 41.6265C40 37.4145 43.1075 34 46.9409 34C50.7743 34 53.8818 37.4145 53.8818 41.6265Z" fill="#5D5FEF"></path></g><circle cx="46.9664" cy="40.9659" r="3.87017" fill="white"></circle><defs><filter id="filter0_dd_31115_6486" x="25" y="12.5449" width="78.4163" height="78.4111" filterUnits="userSpaceOnUse" color-interpolation-filters="sRGB"><feFlood flood-opacity="0" result="BackgroundImageFix"></feFlood><feColorMatrix in="SourceAlpha" type="matrix" values="0 0 0 0 0 0 0 0 0 0 0 0 0 0 0 0 0 0 127 0" result="hardAlpha"></feColorMatrix><feOffset dy="4"></feOffset><feGaussianBlur stdDeviation="5"></feGaussianBlur><feColorMatrix type="matrix" values="0 0 0 0 0.607843 0 0 0 0 0.67451 0 0 0 0 0.737255 0 0 0 0.35 0"></feColorMatrix><feBlend mode="normal" in2="BackgroundImageFix" result="effect1_dropShadow_31115_6486"></feBlend><feColorMatrix in="SourceAlpha" type="matrix" values="0 0 0 0 0 0 0 0 0 0 0 0 0 0 0 0 0 0 127 0" result="hardAlpha"></feColorMatrix><feOffset dy="2"></feOffset><feGaussianBlur stdDeviation="6"></feGaussianBlur><feColorMatrix type="matrix" values="0 0 0 0 0.89625 0 0 0 0 0.930414 0 0 0 0 0.995833 0 0 0 0.5 0"></feColorMatrix><feBlend mode="normal" in2="effect1_dropShadow_31115_6486" result="effect2_dropShadow_31115_6486"></feBlend><feBlend mode="normal" in="SourceGraphic" in2="effect2_dropShadow_31115_6486" result="shape"></feBlend></filter><filter id="filter1_dd_31115_6486" x="36.6741" y="30.6741" width="24.3347" height="30.7849" filterUnits="userSpaceOnUse" color-interpolation-filters="sRGB"><feFlood flood-opacity="0" result="BackgroundImageFix"></feFlood><feColorMatrix in="SourceAlpha" type="matrix" values="0 0 0 0 0 0 0 0 0 0 0 0 0 0 0 0 0 0 127 0" result="hardAlpha"></feColorMatrix><feOffset dx="2.37565" dy="2.37565"></feOffset><feGaussianBlur stdDeviation="2.37565"></feGaussianBlur><feColorMatrix type="matrix" values="0 0 0 0 0 0 0 0 0 0.296699 0 0 0 0 0.858629 0 0 0 0.08 0"></feColorMatrix><feBlend mode="normal" in2="BackgroundImageFix" result="effect1_dropShadow_31115_6486"></feBlend><feColorMatrix in="SourceAlpha" type="matrix" values="0 0 0 0 0 0 0 0 0 0 0 0 0 0 0 0 0 0 127 0" result="hardAlpha"></feColorMatrix><feOffset></feOffset><feGaussianBlur stdDeviation="1.66295"></feGaussianBlur><feComposite in2="hardAlpha" operator="out"></feComposite><feColorMatrix type="matrix" values="0 0 0 0 0.0354167 0 0 0 0 0.105426 0 0 0 0 0.2125 0 0 0 0.07 0"></feColorMatrix><feBlend mode="normal" in2="effect1_dropShadow_31115_6486" result="effect2_dropShadow_31115_6486"></feBlend><feBlend mode="normal" in="SourceGraphic" in2="effect2_dropShadow_31115_6486" result="shape"></feBlend></filter></defs></svg>