<svg xmlns="http://www.w3.org/2000/svg" width="311" height="120" viewBox="0 0 311 120" fill="none"><g clip-path="url(#clip0_29018_90121)"><path fill-rule="evenodd" clip-rule="evenodd" d="M0 0H23.3835V6.8701H15.4743V48.0907H7.90911V6.8701H0V0Z" fill="white"></path><path fill-rule="evenodd" clip-rule="evenodd" d="M35.7625 48.0907H28.1973V0H35.7625V20.6103H44.3594V0H52.0621V48.0907H44.3594V27.4804H35.7625V48.0907Z" fill="white"></path><path fill-rule="evenodd" clip-rule="evenodd" d="M66.6434 20.2668H77.0284V27.1369H66.6434V41.2206H79.7106V48.0907H59.0781V0H79.7106V6.8701H66.6434V20.2668Z" fill="white"></path><path fill-rule="evenodd" clip-rule="evenodd" d="M114.923 22.4652H114.785L112.103 48.0907H101.718L96.3535 0H103.712L107.701 37.9229H107.839L111.415 0H118.705L122.419 38.1977H122.557L126.408 0H133.011L127.646 48.0907H117.605L114.923 22.4652Z" fill="white"></path><path fill-rule="evenodd" clip-rule="evenodd" d="M145.872 20.2668H156.257V27.1369H145.872V41.2206H158.939V48.0907H138.307V0H158.939V6.8701H145.872V20.2668Z" fill="white"></path><path fill-rule="evenodd" clip-rule="evenodd" d="M187.755 11.0609V12.7784C187.755 17.7249 186.242 20.8164 182.872 22.3965V22.5339C186.93 24.114 188.511 27.6865 188.511 32.7704V36.6863C188.511 44.106 184.591 48.0907 177.026 48.0907H165.128V0H176.545C184.385 0 187.755 3.64115 187.755 11.0609ZM172.693 6.8701V19.5798H175.65C178.47 19.5798 180.19 18.3432 180.19 14.4959V11.8166C180.19 8.38152 179.02 6.8701 176.338 6.8701H172.693ZM172.693 26.4499V41.2206H177.026C179.571 41.2206 180.946 40.0527 180.946 36.4802V32.2895C180.946 27.8239 179.502 26.4499 176.063 26.4499H172.693Z" fill="white"></path><path fill-rule="evenodd" clip-rule="evenodd" d="M206.737 0H218.704C226.269 0 229.983 4.19076 229.983 11.8853V36.2054C229.983 43.8999 226.269 48.0907 218.704 48.0907H206.737V0ZM214.303 6.8701V41.2206H218.567C220.974 41.2206 222.418 39.984 222.418 36.5489V11.5418C222.418 8.10672 220.974 6.8701 218.567 6.8701H214.303Z" fill="white"></path><path fill-rule="evenodd" clip-rule="evenodd" d="M260.725 48.0907H253.091L251.785 39.3657H242.5L241.193 48.0907H234.247L241.95 0H253.023L260.725 48.0907ZM243.463 32.8391H250.753L247.177 8.51892H247.039L243.463 32.8391Z" fill="white"></path><path fill-rule="evenodd" clip-rule="evenodd" d="M260.932 0H284.315V6.8701H276.406V48.0907H268.841V6.8701H260.932V0Z" fill="white"></path><path fill-rule="evenodd" clip-rule="evenodd" d="M311 48.0907H303.366L302.059 39.3657H292.774L291.468 48.0907H284.521L292.224 0H303.297L311 48.0907ZM293.737 32.8391H301.027L297.451 8.51892H297.314L293.737 32.8391Z" fill="white"></path><path fill-rule="evenodd" clip-rule="evenodd" d="M21.3618 119.265C20.8735 117.808 20.5502 116.915 20.5502 112.292V103.374C20.5502 98.1049 18.7621 96.1607 14.7044 96.1607H11.6233V119.265H2.69629V62.5247H16.1693C25.4195 62.5247 29.3947 66.8185 29.3947 75.5778V80.0365C29.3947 85.8761 27.5309 89.5997 23.5488 91.4684V91.6333C28.0123 93.4951 29.4704 97.7133 29.4704 103.628V112.381C29.4704 115.136 29.5529 117.163 30.447 119.272H21.3549L21.3618 119.265ZM11.6233 70.6245V88.0539H15.1102C18.4389 88.0539 20.4677 86.5975 20.4677 82.0563V76.4641C20.4677 72.4107 19.0853 70.6245 15.9217 70.6245H11.6233Z" fill="#9D97F4"></path><path fill-rule="evenodd" clip-rule="evenodd" d="M46.0315 86.4395H58.2872V94.5462H46.0315V111.165H61.4508V119.272H37.1045V62.5247H61.4508V70.6314H46.0315V86.4395Z" fill="#9D97F4"></path><path fill-rule="evenodd" clip-rule="evenodd" d="M82.1449 108.809H82.3099L89.043 62.5178H97.241L88.479 119.265H75.1711L66.4092 62.5178H75.4187L82.1517 108.809H82.1449Z" fill="#9D97F4"></path><path fill-rule="evenodd" clip-rule="evenodd" d="M102.352 76.1413C102.352 67.059 107.138 61.8721 115.907 61.8721C124.676 61.8721 129.463 67.059 129.463 76.1413V105.648C129.463 114.731 124.676 119.918 115.907 119.918C107.138 119.918 102.352 114.731 102.352 105.648V76.1413ZM111.279 106.219C111.279 110.272 113.067 111.811 115.907 111.811C118.747 111.811 120.536 110.272 120.536 106.219V75.5779C120.536 71.5246 118.747 69.9857 115.907 69.9857C113.067 69.9857 111.279 71.5246 111.279 75.5779V106.219Z" fill="#9D97F4"></path><path fill-rule="evenodd" clip-rule="evenodd" d="M137.007 62.5247H145.934V111.165H160.624V119.272H137.007V62.5247Z" fill="#9D97F4"></path><path fill-rule="evenodd" clip-rule="evenodd" d="M174.826 62.5247V106.301C174.826 110.354 176.614 111.811 179.455 111.811C182.295 111.811 184.083 110.354 184.083 106.301V62.5247H192.522V105.731C192.522 114.813 187.976 120 179.214 120C170.452 120 165.906 114.813 165.906 105.731V62.5247H174.833H174.826Z" fill="#9D97F4"></path><path fill-rule="evenodd" clip-rule="evenodd" d="M197.79 62.5247H225.383V70.6314H216.05V119.272H207.123V70.6314H197.79V62.5247Z" fill="#9D97F4"></path><path fill-rule="evenodd" clip-rule="evenodd" d="M231.063 62.5247H239.99V119.272H231.063V62.5247Z" fill="#9D97F4"></path><path fill-rule="evenodd" clip-rule="evenodd" d="M247.542 76.1413C247.542 67.059 252.329 61.8721 261.098 61.8721C269.866 61.8721 274.653 67.059 274.653 76.1413V105.648C274.653 114.731 269.866 119.918 261.098 119.918C252.329 119.918 247.542 114.731 247.542 105.648V76.1413ZM256.469 106.219C256.469 110.272 258.257 111.811 261.098 111.811C263.938 111.811 265.726 110.272 265.726 106.219V75.5779C265.726 71.5246 263.938 69.9857 261.098 69.9857C258.257 69.9857 256.469 71.5246 256.469 75.5779V106.219Z" fill="#9D97F4"></path><path fill-rule="evenodd" clip-rule="evenodd" d="M290.306 78.1679H290.141V119.265H282.108V62.5247H293.305L302.314 96.4904H302.48V62.5247H310.43V119.272H301.262L290.306 78.1747V78.1679Z" fill="#9D97F4"></path></g><defs><clipPath id="clip0_29018_90121"><rect width="311" height="120" fill="white"></rect></clipPath></defs></svg>