<svg width="50" height="50" viewBox="0 0 50 50" fill="none" xmlns="http://www.w3.org/2000/svg">
<g clip-path="url(#clip0_6036_310)">
<path d="M10.4592 24.8451C12.4236 24.8451 14.016 23.2527 14.016 21.2883C14.016 19.3239 12.4236 17.7314 10.4592 17.7314C8.4948 17.7314 6.90234 19.3239 6.90234 21.2883C6.90234 23.2527 8.4948 24.8451 10.4592 24.8451Z" fill="#FECE4D"/>
<path d="M16.6168 17.7314H36.56C39.5677 17.7314 42.0096 20.1733 42.0096 23.1811V24.8448H14.9531V19.3951C14.9531 18.477 15.6987 17.7314 16.6168 17.7314Z" fill="#9FC0FF"/>
<path d="M46.8249 24.7631V34H43.1895V31.565H5.63538V34H2V16.1318C2 15.5066 2.53399 15 3.15921 15H4.54236C5.16758 15 5.63538 15.5066 5.63538 16.1318V26.1805H43.1895V24.7631C43.1895 24.1378 43.7122 23.6426 44.3374 23.6426H45.7206C46.3458 23.6426 46.8249 24.1378 46.8249 24.7631Z" fill="#3D7FFC"/>
</g>
<defs>
<clipPath id="clip0_6036_310">
<rect width="44.8249" height="19" fill="white" transform="translate(2 15)"/>
</clipPath>
</defs>
</svg>
