<svg width="50" height="50" viewBox="0 0 50 50" fill="none" xmlns="http://www.w3.org/2000/svg">
<path d="M25 0.390625C14.4458 0.390625 5.85938 8.97705 5.85938 19.5312C5.85938 24.6582 8.96553 31.2422 15.0915 39.0994C17.8981 42.6899 20.9375 46.0922 24.19 49.2844C24.4081 49.4929 24.6982 49.6093 25 49.6093C25.3018 49.6093 25.5919 49.4929 25.81 49.2844C29.0625 46.0922 32.1019 42.6899 34.9085 39.0994C41.0345 31.2422 44.1406 24.6582 44.1406 19.5312C44.1406 8.97705 35.5542 0.390625 25 0.390625ZM25 33.2031C17.4609 33.2031 11.3281 27.0703 11.3281 19.5312C11.3281 11.9922 17.4609 5.85938 25 5.85938C32.5391 5.85938 38.6719 11.9922 38.6719 19.5312C38.6719 27.0703 32.5391 33.2031 25 33.2031Z" fill="#3D7FFC"/>
<path d="M34.3821 17.8829L25.7883 10.0704C25.5726 9.87428 25.2916 9.76562 25.0001 9.76562C24.7085 9.76562 24.4275 9.87428 24.2118 10.0704L15.618 17.8829C15.4178 18.0649 15.2868 18.3107 15.2471 18.5783C15.2074 18.846 15.2615 19.1192 15.4003 19.3515C15.5097 19.5284 15.6632 19.6739 15.8456 19.7739C16.0281 19.8738 16.2333 19.9248 16.4413 19.9218H17.5782V27.3437C17.5782 27.6545 17.7017 27.9526 17.9214 28.1724C18.1412 28.3921 18.4393 28.5156 18.7501 28.5156H21.4844C21.7952 28.5156 22.0933 28.3921 22.3131 28.1724C22.5328 27.9526 22.6563 27.6545 22.6563 27.3437V23.0468C22.6563 22.736 22.7798 22.438 22.9995 22.2182C23.2193 21.9984 23.5174 21.875 23.8282 21.875H26.1719C26.4827 21.875 26.7808 21.9984 27.0006 22.2182C27.2203 22.438 27.3438 22.736 27.3438 23.0468V27.3437C27.3438 27.6545 27.4673 27.9526 27.687 28.1724C27.9068 28.3921 28.2049 28.5156 28.5157 28.5156H31.2501C31.5609 28.5156 31.8589 28.3921 32.0787 28.1724C32.2985 27.9526 32.4219 27.6545 32.4219 27.3437V19.9218H33.5589C33.7669 19.9248 33.9721 19.8738 34.1545 19.7739C34.3369 19.6739 34.4904 19.5284 34.5999 19.3515C34.7386 19.1192 34.7928 18.846 34.7531 18.5783C34.7134 18.3107 34.5823 18.0649 34.3821 17.8829Z" fill="#FECE4D"/>
</svg>
