<svg width="152" height="20" viewBox="0 0 152 20" fill="none" xmlns="http://www.w3.org/2000/svg">
<path d="M3.50822 2.83056C6.02908 3.00718 8.91102 3.06459 12.154 3.00277C12.6789 2.99283 12.9832 2.7577 13.157 2.28744C13.6485 0.952816 10.8301 0.992558 10.0678 1.00249C5.98005 1.05548 3.35889 1.08087 2.20433 1.07866C1.39525 1.07866 1.00297 1.46393 1.02749 2.23445C1.18128 7.24839 1.17236 12.4699 1.00074 17.8989C0.98068 18.5656 1.3685 18.9321 2.16421 18.9983C2.2021 19.0028 2.23999 18.9983 2.27789 18.9851C2.95546 18.7577 3.28757 18.3294 3.27419 17.7002L3.13712 10.9708C3.13662 10.9386 3.14295 10.9067 3.15575 10.877C3.16855 10.8472 3.18755 10.8202 3.21159 10.7976C3.23564 10.7751 3.26425 10.7573 3.29569 10.7455C3.32713 10.7337 3.36076 10.7281 3.39455 10.729L8.95783 10.9277C9.64432 10.952 9.99648 10.6385 10.0143 9.98717C10.0165 9.94522 10.0177 9.92315 10.0177 9.92094C10.0511 9.2873 9.75019 8.95392 9.11496 8.9208C7.15578 8.81703 5.25455 8.83359 3.41127 8.97048C3.38965 8.97228 3.36789 8.96973 3.34729 8.96297C3.3267 8.9562 3.3077 8.94538 3.29145 8.93114C3.2752 8.9169 3.26203 8.89954 3.25275 8.88012C3.24346 8.8607 3.23824 8.83961 3.23742 8.81814C3.13266 6.44033 3.12932 4.52505 3.22739 3.07231C3.22949 3.03835 3.23843 3.00514 3.25369 2.97458C3.26896 2.94403 3.29025 2.91673 3.31635 2.89427C3.34244 2.87181 3.37283 2.85461 3.40576 2.84368C3.43869 2.83275 3.47351 2.82829 3.50822 2.83056Z" stroke="white" stroke-width="0.667447"/>
<path d="M20.2949 10.014C20.306 11.8994 20.3228 13.1093 20.3451 13.6436C20.4855 17.0591 22.2786 18.8088 25.7244 18.8927C27.8062 18.9456 29.3085 18.9346 30.2312 18.8595C31.1161 18.7867 31.8929 18.5957 32.5615 18.2866C33.6336 17.7876 34.3602 16.9818 34.7414 15.8691C35.3833 13.9946 35.3799 12.097 35.3666 9.91791C35.3498 7.73881 35.3298 5.8412 34.6645 3.97339C34.2677 2.86728 33.53 2.07136 32.4512 1.58564C31.7781 1.28538 30.9991 1.10434 30.1142 1.04252C29.1892 0.980703 27.687 0.989535 25.6074 1.06902C22.1616 1.19707 20.3919 2.96994 20.2982 6.38763C20.2826 6.92192 20.2815 8.13069 20.2949 10.014Z" stroke="white" stroke-width="0.667447"/>
<path d="M47.9878 11.6137C48.9084 11.5607 50.0908 11.5486 51.5351 11.5773C51.8315 11.5839 52.2082 11.8456 52.6651 12.3622C53.0217 12.764 53.3717 13.2641 53.7149 13.8624C54.5864 15.3836 55.5571 16.9401 56.6269 18.5319C56.6904 18.6262 56.7721 18.7071 56.8674 18.7698C56.9628 18.8326 57.0698 18.876 57.1823 18.8976C57.2949 18.9191 57.4107 18.9184 57.5231 18.8954C57.6355 18.8724 57.7423 18.8277 57.8372 18.7637L57.9308 18.7008C58.0292 18.6346 58.1133 18.5499 58.1785 18.4514C58.2437 18.353 58.2886 18.2427 58.3107 18.127C58.3327 18.0113 58.3315 17.8925 58.307 17.7772C58.2826 17.662 58.2354 17.5527 58.1682 17.4556L54.524 12.1502C54.4758 12.0798 54.4449 11.9991 54.4339 11.9147C54.4229 11.8303 54.4321 11.7445 54.4607 11.6643C54.4894 11.584 54.5366 11.5116 54.5987 11.4527C54.6608 11.3939 54.736 11.3504 54.8182 11.3256C55.6028 11.0916 56.3194 10.7041 56.968 10.1632C57.465 9.74593 57.8105 9.06923 58.0044 8.13312C58.5627 5.42083 57.9108 1.99983 54.7246 1.29443C53.8598 1.10235 53.0663 1.01294 52.3442 1.02618C48.8604 1.09463 46.7475 1.12001 46.0052 1.10235C45.8916 1.10014 45.8002 1.1443 45.7311 1.23482C45.4525 1.59911 45.331 2.01307 45.3667 2.47671C45.565 4.91634 45.6419 6.6583 45.5974 7.7026C45.5127 9.70729 45.5026 11.4062 45.5673 12.7993C45.594 13.391 45.5862 15.0921 45.5439 17.9027C45.5349 18.5076 45.8737 18.8277 46.5602 18.8631C46.5892 18.8631 46.7007 18.8145 46.8946 18.7174C47.3136 18.5032 47.5298 18.1643 47.5432 17.7007C47.5655 17.0317 47.5744 15.5403 47.5699 13.2265C47.5699 12.6989 47.5967 12.2617 47.6501 11.9151C47.6636 11.8344 47.7044 11.7606 47.7657 11.7059C47.8271 11.6511 47.9054 11.6186 47.9878 11.6137Z" stroke="white" stroke-width="0.667447"/>
<path d="M80.4276 15.1141C79.6887 14.2961 79.0268 13.7563 78.542 12.8886C78.2232 12.319 77.7942 11.7196 77.2548 11.0904C76.4725 10.1763 76.0033 9.61995 75.8473 9.42125C72.7246 5.46707 70.6328 2.89276 69.5719 1.69834C69.1506 1.22366 68.7227 1.01723 68.288 1.07904C68.1119 1.1056 67.9515 1.19459 67.8371 1.32932C67.7226 1.46405 67.6618 1.63529 67.6662 1.81093C67.7932 6.61954 67.7877 11.9658 67.6495 17.8496C67.6339 18.5053 67.9593 18.8342 68.6257 18.8365C68.6525 18.8365 68.6692 18.8365 68.6759 18.8365C69.3089 18.7835 69.6309 18.4457 69.6421 17.8231C69.7089 14.0278 69.7101 10.1013 69.6454 6.0433C69.6421 5.79161 69.5485 5.46044 69.6922 5.17895C69.703 5.15705 69.7193 5.13825 69.7395 5.12437C69.7597 5.11048 69.7832 5.10197 69.8077 5.09965C69.8322 5.09732 69.8569 5.10126 69.8794 5.11108C69.9019 5.12091 69.9215 5.13629 69.9363 5.15577C70.5815 6.01019 71.5143 6.85136 72.0626 7.59319C72.6956 8.44982 73.3777 9.25787 74.1087 10.0174C74.5768 10.5031 75.2165 11.2835 76.0278 12.3587C77.2113 13.9329 78.8875 16.0215 81.0561 18.6245C81.2189 18.821 81.4462 18.9204 81.7382 18.9226C81.9139 18.9238 82.0836 18.8584 82.2128 18.7397C82.3419 18.621 82.4209 18.4579 82.4336 18.2834C82.4938 17.4533 82.4759 16.6187 82.3801 15.7797C82.282 14.9253 82.2709 14.1106 82.3467 13.3357C82.4314 12.457 82.4693 11.2184 82.4603 9.61995C82.447 7.64396 82.4459 6.40649 82.457 5.90752C82.4949 4.02426 82.5183 2.75257 82.5272 2.09243C82.5361 1.4897 82.2341 1.16957 81.6212 1.13203C81.6167 1.13203 81.6045 1.13093 81.5844 1.12872C80.967 1.07794 80.6561 1.36716 80.6516 1.99639C80.6249 6.93526 80.6728 10.9899 80.7954 14.1603C80.811 14.5467 80.733 14.8624 80.5613 15.1075C80.519 15.1649 80.4744 15.1671 80.4276 15.1141Z" stroke="white" stroke-width="0.667447"/>
<path d="M92.9052 13.9286C92.9157 15.2457 93.4498 16.5057 94.3916 17.4355C95.3334 18.3653 96.6072 18.8901 97.9369 18.8962L102.791 18.916C103.46 18.9187 104.123 18.7898 104.741 18.5369C105.36 18.2839 105.921 17.9119 106.393 17.4425C106.865 16.973 107.239 16.4154 107.491 15.802C107.744 15.1886 107.872 14.5316 107.867 13.869L107.8 6.0136C107.788 4.69934 107.256 3.44219 106.317 2.51346C105.378 1.58472 104.108 1.05885 102.781 1.04934L97.9268 1.01622C97.2565 1.01181 96.592 1.1395 95.972 1.39186C95.3519 1.64423 94.7888 2.01622 94.3152 2.48621C93.8417 2.95619 93.4673 3.51477 93.2137 4.12945C92.9601 4.74412 92.8325 5.40261 92.8383 6.06659L92.9052 13.9286Z" stroke="white" stroke-width="0.667447"/>
<path d="M123.697 15.3487C123.405 15.2494 123.204 15.0573 123.095 14.7725C122.712 13.7834 122.27 12.7292 121.771 11.6098C121.408 10.7907 120.335 8.42834 118.552 4.52272C118.462 4.32623 118.1 3.41551 117.465 1.79056C117.242 1.22315 116.833 0.997955 116.238 1.11497L116.198 1.1249C115.598 1.24854 115.402 1.58854 115.609 2.14491C116.314 4.0348 117.044 5.7889 117.799 7.40723C119.014 10.0058 119.796 11.7268 120.146 12.5702C120.953 14.5109 121.859 16.4824 122.864 18.4849C122.954 18.6631 123.107 18.8025 123.293 18.877C123.479 18.9514 123.686 18.9557 123.874 18.8889C124.278 18.7476 124.559 18.4617 124.72 18.0312C125.257 16.5674 125.711 15.4679 126.081 14.7327C127.032 12.8406 127.558 11.7809 127.659 11.5535C128.347 9.99478 128.953 8.55749 129.474 7.24164C129.786 6.45345 130.185 5.62111 130.671 4.74461C131.126 3.92772 131.499 3.07219 131.791 2.17803C131.947 1.69673 131.781 1.38543 131.293 1.24413L130.918 1.13815C130.43 0.996851 130.084 1.15802 129.879 1.62166L123.901 15.2593C123.885 15.297 123.854 15.3271 123.817 15.3437C123.779 15.3603 123.736 15.3621 123.697 15.3487Z" stroke="white" stroke-width="0.667447"/>
<path d="M142.416 4.63609C142.438 4.58405 142.475 4.53958 142.523 4.50819C142.57 4.47681 142.626 4.45989 142.683 4.45954C142.74 4.45918 142.796 4.47541 142.843 4.50621C142.891 4.53701 142.929 4.58102 142.951 4.63278L149.2 18.5486C149.387 18.9637 149.69 19.0785 150.109 18.893L150.604 18.6744C150.983 18.5066 151.09 18.2351 150.925 17.8598C150.528 16.9568 150.086 16.0306 149.598 15.0812C149.317 14.5359 149.056 13.9365 148.816 13.283C148.47 12.3424 148.229 11.7309 148.093 11.4483C145.963 6.97305 144.637 3.9903 144.118 2.50003C143.933 1.96574 143.613 1.53853 143.159 1.2184C142.981 1.0926 142.761 1.03992 142.544 1.07141C142.328 1.1029 142.132 1.2161 141.999 1.3873C141.722 1.73834 141.456 2.2064 141.199 2.79146C139.78 6.03915 139.033 7.73916 138.959 7.8915C138.384 9.06164 137.735 10.5078 137.01 12.2298C136.251 14.0314 135.158 16.1741 134.563 17.5683C134.311 18.1578 134.507 18.595 135.151 18.8798C135.165 18.8864 135.193 18.8941 135.235 18.903C135.817 19.0332 136.231 18.8135 136.479 18.2439L142.416 4.63609Z" stroke="white" stroke-width="0.667447"/>
<path d="M32.9829 15.829C33.0134 15.804 33.0381 15.7731 33.0554 15.7382C33.0727 15.7034 33.0822 15.6654 33.0832 15.627C33.0876 15.4194 33.1222 15.107 33.1868 14.6898C33.2492 14.2857 33.2804 13.9744 33.2804 13.7559C33.2515 10.6186 33.2559 8.31691 33.2938 6.85093C33.3228 5.67858 33.2281 4.88377 33.0096 4.4665C32.5549 3.59441 31.7693 3.12746 30.6526 3.06564C29.0099 2.97291 27.0017 2.97291 24.6279 3.06564C23.6628 3.10317 22.9429 3.47519 22.4682 4.18169C22.1962 4.58793 22.0558 5.29222 22.0469 6.29456C22.038 7.86873 22.0558 10.3636 22.1004 13.779C22.1138 14.6577 22.2832 15.3057 22.6086 15.723C23.1903 16.4715 24.015 16.8656 25.0826 16.9053C25.8828 16.9362 27.4007 16.9737 29.6362 17.0179C30.4431 17.0333 31.0393 16.9649 31.4249 16.8126C31.9086 16.6227 32.4279 16.2948 32.9829 15.829Z" stroke="white" stroke-width="0.667447"/>
<path d="M47.6099 4.45985C47.6367 6.20182 47.5832 7.8654 47.4494 9.45061C47.4338 9.65152 47.5263 9.74977 47.7269 9.74535C49.6036 9.71003 51.4168 9.71886 53.1665 9.77184C54.4058 9.80938 55.2728 9.3623 55.7676 8.4306C56.1799 7.65566 56.3794 6.7637 56.3661 5.75473C56.3549 4.94005 56.1398 4.32628 55.7208 3.91342C55.1591 3.35706 54.4849 3.06121 53.6981 3.02588C52.9135 2.99056 51.0836 2.98945 48.2084 3.02257C48.0559 3.02411 47.9097 3.08357 47.7997 3.18882C47.6898 3.29407 47.6243 3.43716 47.6166 3.58887C47.6077 3.80966 47.6055 4.09998 47.6099 4.45985Z" stroke="white" stroke-width="0.667447"/>
<path d="M105.997 5.85109C105.997 5.47142 105.922 5.09547 105.775 4.7447C105.629 4.39393 105.414 4.07522 105.142 3.80675C104.871 3.53829 104.55 3.32533 104.196 3.18004C103.841 3.03474 103.462 2.95996 103.079 2.95996H97.6892C97.3059 2.95996 96.9264 3.03474 96.5723 3.18004C96.2182 3.32533 95.8964 3.53829 95.6254 3.80675C95.3543 4.07522 95.1394 4.39393 94.9927 4.7447C94.846 5.09547 94.7705 5.47142 94.7705 5.85109V14.031C94.7705 14.7978 95.078 15.5332 95.6254 16.0754C96.1727 16.6175 96.9151 16.9221 97.6892 16.9221H103.079C103.853 16.9221 104.595 16.6175 105.142 16.0754C105.69 15.5332 105.997 14.7978 105.997 14.031V5.85109Z" stroke="white" stroke-width="0.667447"/>
<path d="M3.50822 2.83056C3.47351 2.82829 3.43869 2.83275 3.40576 2.84368C3.37283 2.85461 3.34244 2.87181 3.31635 2.89427C3.29025 2.91673 3.26896 2.94403 3.25369 2.97458C3.23843 3.00514 3.22949 3.03835 3.22739 3.07231C3.12932 4.52505 3.13266 6.44033 3.23742 8.81814C3.23824 8.83961 3.24346 8.8607 3.25275 8.88012C3.26203 8.89954 3.2752 8.9169 3.29145 8.93114C3.3077 8.94538 3.3267 8.9562 3.34729 8.96297C3.36789 8.96973 3.38965 8.97228 3.41127 8.97048C5.25455 8.83359 7.15578 8.81703 9.11496 8.9208C9.75019 8.95392 10.0511 9.2873 10.0177 9.92094C10.0177 9.92315 10.0165 9.94522 10.0143 9.98717C9.99648 10.6385 9.64432 10.952 8.95783 10.9277L3.39455 10.729C3.36076 10.7281 3.32713 10.7337 3.29569 10.7455C3.26425 10.7573 3.23564 10.7751 3.21159 10.7976C3.18755 10.8202 3.16855 10.8472 3.15575 10.877C3.14295 10.9067 3.13662 10.9386 3.13712 10.9708L3.27419 17.7002C3.28757 18.3294 2.95546 18.7577 2.27789 18.9851C2.23999 18.9983 2.2021 19.0028 2.16421 18.9983C1.3685 18.9321 0.98068 18.5656 1.00074 17.8989C1.17236 12.4699 1.18128 7.24839 1.02749 2.23445C1.00297 1.46393 1.39525 1.07866 2.20433 1.07866C3.35889 1.08087 5.98005 1.05548 10.0678 1.00249C10.8301 0.992558 13.6485 0.952816 13.157 2.28744C12.9832 2.7577 12.6789 2.99283 12.154 3.00277C8.91102 3.06459 6.02908 3.00718 3.50822 2.83056Z" fill="white"/>
<path d="M35.3666 9.91791C35.3799 12.097 35.3833 13.9946 34.7414 15.8691C34.3602 16.9818 33.6336 17.7876 32.5615 18.2866C31.8929 18.5957 31.1161 18.7867 30.2312 18.8595C29.3085 18.9346 27.8062 18.9456 25.7244 18.8927C22.2786 18.8088 20.4855 17.0591 20.3451 13.6436C20.3228 13.1093 20.306 11.8994 20.2949 10.014C20.2815 8.13069 20.2826 6.92192 20.2982 6.38763C20.3919 2.96994 22.1616 1.19707 25.6074 1.06902C27.687 0.989535 29.1892 0.980703 30.1142 1.04252C30.9991 1.10434 31.7781 1.28538 32.4512 1.58564C33.53 2.07136 34.2677 2.86728 34.6645 3.97339C35.3298 5.8412 35.3498 7.73881 35.3666 9.91791ZM32.9828 15.8293C33.0133 15.8044 33.038 15.7734 33.0553 15.7386C33.0726 15.7037 33.0821 15.6658 33.0831 15.6273C33.0875 15.4198 33.1221 15.1074 33.1867 14.6901C33.2491 14.2861 33.2803 13.9748 33.2803 13.7562C33.2514 10.6189 33.2558 8.31725 33.2937 6.85127C33.3227 5.67892 33.228 4.88411 33.0095 4.46683C32.5548 3.59475 31.7692 3.1278 30.6525 3.06598C29.0098 2.97325 27.0016 2.97325 24.6278 3.06598C23.6627 3.10351 22.9428 3.47553 22.4681 4.18203C22.1961 4.58826 22.0557 5.29255 22.0468 6.2949C22.0379 7.86907 22.0557 10.3639 22.1003 13.7794C22.1137 14.6581 22.2831 15.3061 22.6085 15.7233C23.1902 16.4718 24.0149 16.8659 25.0825 16.9056C25.8827 16.9365 27.4006 16.9741 29.6361 17.0182C30.443 17.0337 31.0392 16.9652 31.4248 16.8129C31.9085 16.623 32.4278 16.2952 32.9828 15.8293Z" fill="white"/>
<path d="M47.9878 11.6137C47.9054 11.6186 47.8271 11.6511 47.7657 11.7059C47.7044 11.7606 47.6636 11.8344 47.6501 11.9151C47.5967 12.2617 47.5699 12.6989 47.5699 13.2265C47.5744 15.5403 47.5655 17.0317 47.5432 17.7007C47.5298 18.1643 47.3136 18.5032 46.8946 18.7174C46.7007 18.8145 46.5892 18.8631 46.5602 18.8631C45.8737 18.8277 45.5349 18.5076 45.5439 17.9027C45.5862 15.0921 45.594 13.391 45.5673 12.7993C45.5026 11.4062 45.5127 9.70729 45.5974 7.7026C45.6419 6.6583 45.565 4.91634 45.3667 2.47671C45.331 2.01307 45.4525 1.59911 45.7311 1.23482C45.8002 1.1443 45.8916 1.10014 46.0052 1.10235C46.7475 1.12001 48.8604 1.09463 52.3442 1.02618C53.0663 1.01294 53.8598 1.10235 54.7246 1.29443C57.9108 1.99983 58.5627 5.42083 58.0044 8.13312C57.8105 9.06923 57.465 9.74592 56.968 10.1632C56.3194 10.7041 55.6028 11.0916 54.8182 11.3256C54.736 11.3504 54.6608 11.3939 54.5987 11.4527C54.5366 11.5116 54.4894 11.584 54.4607 11.6643C54.4321 11.7445 54.4229 11.8303 54.4339 11.9147C54.4449 11.9991 54.4758 12.0798 54.524 12.1502L58.1682 17.4556C58.2354 17.5527 58.2826 17.662 58.307 17.7772C58.3315 17.8925 58.3327 18.0113 58.3107 18.127C58.2886 18.2427 58.2437 18.353 58.1785 18.4514C58.1133 18.5499 58.0292 18.6346 57.9308 18.7008L57.8372 18.7637C57.7423 18.8277 57.6355 18.8724 57.5231 18.8954C57.4107 18.9184 57.2949 18.9191 57.1823 18.8976C57.0698 18.876 56.9628 18.8326 56.8674 18.7698C56.7721 18.7071 56.6904 18.6262 56.6269 18.5319C55.5571 16.9401 54.5864 15.3836 53.7149 13.8624C53.3717 13.2641 53.0217 12.764 52.6651 12.3622C52.2082 11.8456 51.8315 11.5839 51.5351 11.5773C50.0908 11.5486 48.9084 11.5607 47.9878 11.6137ZM47.61 4.46043C47.6368 6.20239 47.5833 7.86598 47.4496 9.45118C47.434 9.65209 47.5264 9.75034 47.727 9.74593C49.6038 9.7106 51.417 9.71943 53.1666 9.77242C54.4059 9.80995 55.2729 9.36287 55.7677 8.43118C56.1801 7.65624 56.3795 6.76428 56.3662 5.75531C56.355 4.94063 56.1399 4.32686 55.7209 3.914C55.1592 3.35763 54.485 3.06178 53.6982 3.02646C52.9136 2.99113 51.0837 2.99003 48.2085 3.02315C48.056 3.02468 47.9098 3.08415 47.7998 3.1894C47.6899 3.29465 47.6244 3.43774 47.6167 3.58945C47.6078 3.81023 47.6056 4.10056 47.61 4.46043Z" fill="white"/>
<path d="M80.5613 15.1075C80.733 14.8624 80.811 14.5467 80.7954 14.1603C80.6728 10.9899 80.6249 6.93526 80.6516 1.99639C80.6561 1.36716 80.967 1.07794 81.5844 1.12872C81.6045 1.13093 81.6167 1.13203 81.6212 1.13203C82.2341 1.16957 82.5361 1.4897 82.5272 2.09243C82.5183 2.75257 82.4949 4.02426 82.457 5.90752C82.4459 6.40649 82.447 7.64396 82.4603 9.61995C82.4693 11.2184 82.4314 12.457 82.3467 13.3357C82.2709 14.1106 82.282 14.9253 82.3801 15.7797C82.4759 16.6187 82.4938 17.4533 82.4336 18.2834C82.4209 18.4579 82.3419 18.621 82.2128 18.7397C82.0836 18.8584 81.9139 18.9238 81.7382 18.9226C81.4462 18.9204 81.2189 18.821 81.0561 18.6245C78.8875 16.0215 77.2113 13.9329 76.0278 12.3587C75.2165 11.2835 74.5768 10.5031 74.1087 10.0174C73.3777 9.25787 72.6956 8.44982 72.0626 7.59319C71.5143 6.85136 70.5815 6.01019 69.9363 5.15577C69.9215 5.13629 69.9019 5.12091 69.8794 5.11108C69.8569 5.10126 69.8322 5.09732 69.8077 5.09965C69.7832 5.10197 69.7597 5.11048 69.7395 5.12437C69.7193 5.13825 69.703 5.15705 69.6922 5.17895C69.5485 5.46044 69.6421 5.79161 69.6454 6.0433C69.7101 10.1013 69.7089 14.0278 69.6421 17.8231C69.6309 18.4457 69.3089 18.7835 68.6759 18.8365C68.6692 18.8365 68.6525 18.8365 68.6257 18.8365C67.9593 18.8342 67.6339 18.5053 67.6495 17.8496C67.7877 11.9658 67.7932 6.61954 67.6662 1.81093C67.6618 1.63529 67.7226 1.46405 67.8371 1.32932C67.9515 1.19459 68.1119 1.1056 68.288 1.07904C68.7227 1.01723 69.1506 1.22366 69.5719 1.69834C70.6328 2.89276 72.7246 5.46707 75.8473 9.42125C76.0033 9.61995 76.4725 10.1763 77.2548 11.0904C77.7942 11.7196 78.2232 12.319 78.542 12.8886C79.0268 13.7563 79.6887 14.2961 80.4276 15.1141C80.4744 15.1671 80.519 15.1649 80.5613 15.1075Z" fill="white"/>
<path d="M92.9052 13.9286L92.8383 6.06659C92.8325 5.40261 92.9601 4.74412 93.2137 4.12945C93.4673 3.51477 93.8417 2.95619 94.3152 2.48621C94.7888 2.01622 95.3519 1.64423 95.972 1.39186C96.592 1.1395 97.2565 1.01181 97.9268 1.01622L102.781 1.04934C104.108 1.05885 105.378 1.58472 106.317 2.51346C107.256 3.44219 107.788 4.69934 107.8 6.0136L107.867 13.869C107.872 14.5316 107.744 15.1886 107.491 15.802C107.239 16.4154 106.865 16.973 106.393 17.4425C105.921 17.9119 105.36 18.2839 104.741 18.5369C104.123 18.7898 103.46 18.9187 102.791 18.916L97.9369 18.8962C96.6072 18.8901 95.3334 18.3653 94.3916 17.4355C93.4498 16.5057 92.9157 15.2457 92.9052 13.9286ZM105.998 5.85133C105.998 5.47166 105.922 5.09571 105.775 4.74494C105.629 4.39417 105.414 4.07546 105.143 3.80699C104.872 3.53853 104.55 3.32557 104.196 3.18027C103.842 3.03498 103.462 2.9602 103.079 2.9602H97.6895C97.3062 2.9602 96.9266 3.03498 96.5725 3.18027C96.2184 3.32557 95.8967 3.53853 95.6256 3.80699C95.3546 4.07546 95.1396 4.39417 94.9929 4.74494C94.8463 5.09571 94.7708 5.47166 94.7708 5.85133V14.0313C94.7708 14.798 95.0783 15.5334 95.6256 16.0756C96.173 16.6178 96.9154 16.9224 97.6895 16.9224H103.079C103.853 16.9224 104.595 16.6178 105.143 16.0756C105.69 15.5334 105.998 14.798 105.998 14.0313V5.85133Z" fill="white"/>
<path d="M123.697 15.3487C123.736 15.3621 123.779 15.3603 123.817 15.3437C123.854 15.3271 123.885 15.297 123.901 15.2593L129.879 1.62166C130.084 1.15802 130.43 0.996851 130.918 1.13815L131.293 1.24413C131.781 1.38543 131.947 1.69673 131.791 2.17803C131.499 3.07219 131.126 3.92772 130.671 4.74461C130.185 5.62111 129.786 6.45345 129.474 7.24164C128.953 8.55749 128.347 9.99478 127.659 11.5535C127.558 11.7809 127.032 12.8406 126.081 14.7327C125.711 15.4679 125.257 16.5674 124.72 18.0312C124.559 18.4617 124.278 18.7476 123.874 18.8889C123.686 18.9557 123.479 18.9514 123.293 18.877C123.107 18.8025 122.954 18.6631 122.864 18.4849C121.859 16.4824 120.953 14.5109 120.146 12.5702C119.796 11.7268 119.014 10.0058 117.799 7.40723C117.044 5.7889 116.314 4.0348 115.609 2.14491C115.402 1.58854 115.598 1.24854 116.198 1.1249L116.238 1.11497C116.833 0.997955 117.242 1.22315 117.465 1.79056C118.1 3.41551 118.462 4.32623 118.552 4.52272C120.335 8.42834 121.408 10.7907 121.771 11.6098C122.27 12.7292 122.712 13.7834 123.095 14.7725C123.204 15.0573 123.405 15.2494 123.697 15.3487Z" fill="white"/>
<path d="M142.416 4.63609L136.479 18.2439C136.231 18.8135 135.817 19.0332 135.235 18.903C135.193 18.8941 135.165 18.8864 135.151 18.8798C134.507 18.595 134.311 18.1578 134.563 17.5683C135.158 16.1741 136.251 14.0314 137.01 12.2298C137.735 10.5078 138.384 9.06164 138.959 7.8915C139.033 7.73916 139.78 6.03915 141.199 2.79146C141.456 2.2064 141.722 1.73834 141.999 1.3873C142.132 1.2161 142.328 1.1029 142.544 1.07141C142.761 1.03992 142.981 1.0926 143.159 1.2184C143.613 1.53853 143.933 1.96574 144.118 2.50003C144.637 3.9903 145.963 6.97305 148.093 11.4483C148.229 11.7309 148.47 12.3424 148.816 13.283C149.056 13.9365 149.317 14.5359 149.598 15.0812C150.086 16.0306 150.528 16.9568 150.925 17.8598C151.09 18.2351 150.983 18.5066 150.604 18.6744L150.109 18.893C149.69 19.0785 149.387 18.9637 149.2 18.5486L142.951 4.63278C142.929 4.58102 142.891 4.53701 142.843 4.50621C142.796 4.47541 142.74 4.45918 142.683 4.45954C142.626 4.45989 142.57 4.47681 142.523 4.50819C142.475 4.53958 142.438 4.58405 142.416 4.63609Z" fill="white"/>
</svg>
