<svg width="50" height="50" viewBox="0 0 50 50" fill="none" xmlns="http://www.w3.org/2000/svg">
<g clip-path="url(#clip0_6036_314)">
<path d="M38.4949 27.0791C32.1371 27.0791 26.9902 32.2107 26.9902 38.5372C26.9902 44.8638 32.1421 49.9953 38.4949 49.9953C44.8477 49.9953 49.9996 44.8638 49.9996 38.5372C49.9996 32.2107 44.8477 27.0791 38.4949 27.0791ZM38.4949 30.4633C39.3931 30.4633 40.1197 31.1864 40.1197 32.0801C40.1197 32.9739 39.3931 33.6969 38.4949 33.6969C37.5968 33.6969 36.8701 32.9739 36.8701 32.0801C36.8701 31.1864 37.5968 30.4633 38.4949 30.4633ZM40.1096 46.6162H38.4848C37.5867 46.6162 36.8601 45.8931 36.8601 44.9994V38.5372C35.9619 38.5372 35.2353 37.8142 35.2353 36.9204C35.2353 36.0267 35.9619 35.3036 36.8601 35.3036H38.4848C39.383 35.3036 40.1096 36.0267 40.1096 36.9204V43.3826C41.0078 43.3826 41.7344 44.1056 41.7344 44.9994C41.7344 45.8931 41.0078 46.6162 40.1096 46.6162Z" fill="#FECE4D"/>
<path d="M35.9677 24.1163V21.2141H38.3493C38.7833 21.2191 39.2122 21.1137 39.5957 20.9028C39.9792 20.6919 40.2971 20.3906 40.5292 20.0191C40.8218 19.532 40.9328 18.9647 40.8521 18.4023C40.7714 17.8449 40.4939 17.3278 40.075 16.9512L22.0863 0.637678C21.6373 0.225949 21.0469 0 20.4363 0C19.8258 0 19.2404 0.225949 18.7863 0.637678L0.802662 16.9562C0.38385 17.3378 0.111371 17.85 0.0255901 18.4073C-0.0551446 18.9647 0.0558656 19.5371 0.348529 20.0241C0.575595 20.3957 0.898534 20.6969 1.28202 20.9078C1.66551 21.1187 2.09442 21.2241 2.52837 21.2191H4.90499V36.7242C4.90499 37.372 5.16233 37.9946 5.62151 38.4565C6.08069 38.9134 6.70639 39.1745 7.35731 39.1745H13.0794C13.7303 39.1745 14.356 38.9185 14.8152 38.4565C15.2744 37.9996 15.5317 37.377 15.5317 36.7242V27.7465C15.5317 27.0988 15.789 26.4762 16.2482 26.0143C16.7074 25.5573 17.3331 25.2962 17.984 25.2962H22.8886C23.5396 25.2962 24.1653 25.5523 24.6244 26.0143C25.0836 26.4762 25.341 27.0938 25.341 27.7465V31.0303C27.3745 27.144 31.3355 24.4226 35.9677 24.1213V24.1163Z" fill="#3D7FFC"/>
</g>
<defs>
<clipPath id="clip0_6036_314">
<rect width="50" height="50" fill="white"/>
</clipPath>
</defs>
</svg>
