<svg width="50" height="50" viewBox="0 0 50 50" fill="none" xmlns="http://www.w3.org/2000/svg">
<g clip-path="url(#clip0_6036_277)">
<path d="M17.4574 0C7.81915 0 0 7.81915 0 17.4574C0 27.0957 7.81915 34.9149 17.4574 34.9149C18.7979 34.9149 20.0851 34.7553 21.3404 34.4681C21.6277 32.3511 22.3404 30.3723 23.4043 28.6277C23.4149 28.6064 23.4362 28.5745 23.4468 28.5532C24.7234 26.4681 26.4681 24.7128 28.5532 23.4468C28.5745 23.4362 28.6064 23.4149 28.6277 23.4043C30.383 22.3511 32.3511 21.6277 34.4681 21.3404C34.7553 20.0957 34.9149 18.7979 34.9149 17.4574C34.9149 7.81915 27.1064 0 17.4574 0ZM24.0745 22.383C23.7766 23.0213 23.3511 23.5851 22.8191 24.0319C22.2766 24.5 21.617 24.8617 20.8617 25.1383C20.383 25.3085 19.883 25.4255 19.3511 25.5L19.383 27.0426C19.383 27.117 19.3511 27.1915 19.2979 27.2447C19.2447 27.2979 19.1702 27.3298 19.0957 27.3298L16.7872 27.383C16.7128 27.383 16.6383 27.3511 16.5851 27.2979C16.5319 27.2447 16.5 27.1702 16.5 27.0957L16.4681 25.4468C16.0426 25.383 15.6383 25.2872 15.266 25.1702C14.3723 24.883 13.6383 24.4681 13.0319 23.9362C12.4255 23.4043 11.9468 22.734 11.6383 21.9894C11.3191 21.234 11.1277 20.3936 11.0745 19.4894L14.0532 19.4255C14.117 20.0106 14.266 20.5106 14.5213 20.9362C14.7553 21.3511 15.0638 21.7021 15.4362 21.9894C15.8085 22.266 16.234 22.4681 16.6915 22.5851C17.1809 22.7128 17.6809 22.766 18.1915 22.7553C18.6489 22.7553 19.1064 22.6915 19.5532 22.5745C19.9681 22.4681 20.3191 22.3191 20.6064 22.1277C20.883 21.9574 21.1064 21.7128 21.266 21.4362C21.4149 21.1596 21.4894 20.8511 21.4787 20.5319C21.4787 20.1915 21.383 19.9043 21.2234 19.6702C21.0638 19.4362 20.8085 19.2234 20.4574 19.0426C20.1064 18.8617 19.6489 18.7021 19.0745 18.5532C18.5 18.4043 17.8085 18.266 16.9787 18.117C16.0319 17.9255 15.2128 17.7021 14.5319 17.4362C13.8511 17.1702 13.2766 16.8511 12.8298 16.4787C12.4043 16.1277 12.0638 15.6915 11.8298 15.1809C11.6064 14.6915 11.4894 14.117 11.4787 13.4787C11.4681 12.7872 11.5957 12.1383 11.8723 11.5532C12.1489 10.9574 12.5638 10.4362 13.0745 10.0213C13.5957 9.58511 14.2234 9.24468 14.9574 8.98936C15.3085 8.8617 15.6915 8.76596 16.0851 8.70213L16.0532 7.11702C16.0532 7.04255 16.0851 6.96809 16.1383 6.91489C16.1915 6.8617 16.266 6.82979 16.3404 6.82979L18.6489 6.7766C18.7234 6.7766 18.7979 6.80851 18.8511 6.8617C18.9043 6.91489 18.9362 6.98936 18.9362 7.06383L18.9681 8.68085C19.3191 8.73404 19.6702 8.80851 20 8.91489C20.7872 9.15957 21.4574 9.51064 22.0319 9.97872C22.6064 10.4574 23.0745 11.0426 23.4043 11.7234C23.7447 12.4149 23.9255 13.2021 23.9681 14.0851L21.0213 14.1489C20.766 12.2766 19.617 11.3617 17.5638 11.4043C16.5638 11.4255 15.8085 11.617 15.2872 11.9574C14.766 12.2979 14.5106 12.7766 14.5213 13.3617C14.5213 13.5851 14.5851 13.7979 14.7128 13.9787C14.8298 14.1489 15.0213 14.3085 15.2766 14.4574C15.5319 14.5957 15.8617 14.734 16.2553 14.8404C16.6489 14.9468 17.1383 15.0638 17.7128 15.1702C18.2128 15.2553 18.7128 15.3617 19.234 15.4787C19.7553 15.5851 20.2553 15.7234 20.766 15.8936C21.2553 16.0532 21.7234 16.2553 22.1809 16.5C22.617 16.734 23.0106 17.0319 23.3511 17.383C23.7021 17.7447 23.9787 18.1596 24.1596 18.617C24.3617 19.0957 24.4681 19.6596 24.4894 20.2979C24.5106 21.0532 24.3617 21.7553 24.0638 22.3936L24.0745 22.383Z" fill="#3D7FFC"/>
<path d="M36.7028 24.4683C29.9581 24.4683 24.4688 29.9576 24.4688 36.7023C24.4688 43.447 29.9581 48.9363 36.7028 48.9363C43.4475 48.9363 48.9368 43.447 48.9368 36.7023C48.9368 29.9576 43.4475 24.4683 36.7028 24.4683ZM37.3624 40.3087L35.1496 42.5215L29.9049 37.2768L32.1177 35.064L35.1496 38.0959L41.9794 31.2661L44.1922 33.4789L37.3624 40.3087Z" fill="#FECE4D"/>
</g>
<defs>
<clipPath id="clip0_6036_277">
<rect width="50" height="50" fill="white"/>
</clipPath>
</defs>
</svg>
