<svg width="50" height="50" viewBox="0 0 50 50" fill="none" xmlns="http://www.w3.org/2000/svg">
<g clip-path="url(#clip0_6036_307)">
<path d="M25.029 27.8314C25.029 21.3574 30.3375 16.0911 36.8633 16.0911C39.2866 16.0911 41.5407 16.8192 43.4187 18.0641L44.5427 15.8349C44.6335 15.6539 44.6806 15.4557 44.6806 15.2539V9.68985C44.6806 8.97215 44.095 8.39124 43.3716 8.39124H41.9692C41.6219 8.39124 41.2894 8.52803 41.0433 8.7713L34.4163 15.3457H33.1762L32.0217 10.766C31.876 10.1876 31.3524 9.78248 30.752 9.78248H27.8547V8.29861C27.8547 7.58091 27.2692 7 26.5457 7H4.11301C3.54926 7 3.04923 7.35755 2.8712 7.88825L0.0673293 16.234C0.00275208 16.4253 -0.0155739 16.6287 0.0132241 16.8279L1.4156 26.5648C1.46447 26.9059 1.64773 27.2133 1.92611 27.4202L7.53472 31.593C7.76074 31.7618 8.03651 31.8527 8.32012 31.8527H13.3859L14.4043 32.8631C14.6504 33.1063 14.9829 33.2431 15.3302 33.2431H17.4342L19.8498 36.8377C20.0924 37.1995 20.5008 37.416 20.9389 37.416H23.7427C24.3065 37.416 24.8065 37.0584 24.9845 36.5277L26.0885 33.2431H26.4838C26.4576 33.1886 26.4305 33.134 26.4061 33.0804C25.4916 31.1255 25.0299 29.3707 25.0299 27.8305L25.029 27.8314Z" fill="#3D7FFC"/>
<path d="M37.4992 18.5391C32.2611 18.5391 28 22.7663 28 27.9629C28 30.4871 29.5413 33.7286 32.5816 37.5967C33.9743 39.3641 35.4828 41.0397 37.0966 42.6116C37.2046 42.7145 37.3489 42.7719 37.4984 42.7719C37.6478 42.7719 37.7921 42.7145 37.9001 42.6116C39.514 41.0397 41.0225 39.3649 42.4152 37.5967C45.4555 33.7286 46.9968 30.4871 46.9968 27.9629C46.9968 22.7663 42.7357 18.5391 37.4975 18.5391H37.4992ZM37.4992 34.6946C33.7574 34.6946 30.7146 31.675 30.7146 27.9638C30.7146 24.2525 33.7583 21.2329 37.4992 21.2329C41.2402 21.2329 44.2839 24.2525 44.2839 27.9638C44.2839 31.675 41.2402 34.6946 37.4992 34.6946Z" fill="#C6DBFF"/>
<path d="M37.501 32.8801C40.2446 32.8801 42.4687 30.6736 42.4687 27.9518C42.4687 25.2299 40.2446 23.0234 37.501 23.0234C34.7573 23.0234 32.5332 25.2299 32.5332 27.9518C32.5332 30.6736 34.7573 32.8801 37.501 32.8801Z" fill="#FECE4D"/>
</g>
<defs>
<clipPath id="clip0_6036_307">
<rect width="47" height="35.8909" fill="white" transform="translate(0 7)"/>
</clipPath>
</defs>
</svg>
