<svg width="593" height="573" viewBox="0 0 593 573" fill="none" xmlns="http://www.w3.org/2000/svg">
<rect x="2" width="589" height="536" fill="#091B36"/>
<g style="mix-blend-mode:screen" opacity="0.7" filter="url(#filter0_f_14032_8994)">
<ellipse cx="296.5" cy="197" rx="232.5" ry="25" fill="#9E98FC"/>
</g>
<path d="M74.3811 164.389H127.831C130.591 164.389 132.823 166.606 132.823 169.334V222.319C132.823 225.048 130.591 227.265 127.831 227.265H74.3811C71.6207 227.265 69.3888 225.048 69.3888 222.319V169.334C69.3888 166.606 71.6207 164.389 74.3811 164.389Z" fill="url(#paint0_linear_14032_8994)" stroke="url(#paint1_linear_14032_8994)" stroke-width="0.777502"/>
<g clip-path="url(#clip0_14032_8994)">
<path d="M118.968 191.245C118.924 191.007 118.827 190.78 118.698 190.575C118.568 190.37 118.395 190.197 118.19 190.068L101.993 179.292C101.702 179.097 101.356 179 101 179C100.644 179 100.309 179.108 100.007 179.292L83.8098 190.068C83.5182 190.262 83.2915 190.532 83.1511 190.845C83.0107 191.158 82.9675 191.515 83.0215 191.86C83.0539 192.217 83.1835 192.551 83.3994 192.821C83.6154 193.091 83.9069 193.307 84.2417 193.415L86.6172 194.203V209.558C86.6064 209.957 86.7252 210.357 86.9627 210.681C87.2003 211.005 87.5458 211.242 87.9345 211.35L100.536 214.946C100.698 214.978 100.86 214.978 101.022 214.946C101.108 214.957 101.194 214.968 101.27 214.968C101.356 214.968 101.432 214.968 101.518 214.968L114.119 211.372C114.508 211.264 114.843 211.026 115.08 210.692C115.318 210.368 115.437 209.968 115.415 209.569V194.095L117.78 193.318C118.147 193.188 118.471 192.94 118.687 192.616C118.827 192.411 118.914 192.184 118.968 191.947C119.022 191.709 119.022 191.461 118.968 191.223V191.245ZM101.011 183.006L113.137 191.083L111.917 191.482C111.917 191.482 111.884 191.482 111.873 191.482L100.827 195.035L90.6772 191.655C90.6772 191.655 90.5908 191.633 90.5584 191.623L88.8739 191.072L101 182.995L101.011 183.006ZM101.011 211.383L90.2129 208.241V195.326C90.2777 195.326 90.3425 195.305 90.4072 195.294L100.276 198.587C100.665 198.717 101.065 198.695 101.421 198.566C101.432 198.566 101.443 198.566 101.464 198.566L111.809 195.24V208.327L101.011 211.394V211.383Z" fill="#BFBAFC"/>
</g>
<path d="M76.4461 168.787C76.4461 169.553 75.8089 170.185 75.0365 170.185C74.2642 170.185 73.627 169.553 73.627 168.787C73.627 168.022 74.2642 167.39 75.0365 167.39C75.8089 167.39 76.4461 168.022 76.4461 168.787Z" fill="white"/>
<path d="M81.0506 168.787C81.0506 169.553 80.4134 170.185 79.641 170.185C78.8686 170.185 78.2314 169.553 78.2314 168.787C78.2314 168.022 78.8686 167.39 79.641 167.39C80.4327 167.39 81.0506 168.022 81.0506 168.787Z" fill="white"/>
<path d="M85.657 168.787C85.657 169.553 85.0198 170.185 84.2475 170.185C83.4751 170.185 82.8379 169.553 82.8379 168.787C82.8379 168.022 83.4751 167.39 84.2475 167.39C85.0198 167.39 85.657 168.022 85.657 168.787Z" fill="white"/>
<path d="M150.593 164.389H204.043C206.803 164.389 209.035 166.606 209.035 169.334V222.319C209.035 225.048 206.803 227.265 204.043 227.265H150.593C147.833 227.265 145.601 225.048 145.601 222.319V169.334C145.601 166.606 147.833 164.389 150.593 164.389Z" fill="url(#paint2_linear_14032_8994)" stroke="url(#paint3_linear_14032_8994)" stroke-width="0.777502"/>
<path d="M152.658 168.788C152.658 169.553 152.02 170.185 151.248 170.185C150.476 170.185 149.838 169.553 149.838 168.788C149.838 168.022 150.476 167.39 151.248 167.39C152.02 167.39 152.658 168.022 152.658 168.788Z" fill="white"/>
<path d="M157.262 168.787C157.262 169.553 156.625 170.185 155.853 170.185C155.081 170.185 154.443 169.553 154.443 168.787C154.443 168.022 155.081 167.39 155.853 167.39C156.645 167.39 157.262 168.022 157.262 168.787Z" fill="white"/>
<path d="M161.868 168.787C161.868 169.553 161.231 170.185 160.459 170.185C159.687 170.185 159.049 169.553 159.049 168.787C159.049 168.022 159.687 167.39 160.459 167.39C161.231 167.39 161.868 168.022 161.868 168.787Z" fill="white"/>
<path d="M178 181.75C180.516 181.75 182.929 182.748 184.71 184.525C186.491 186.302 187.495 188.713 187.5 191.229C187.5 198.386 180.85 206.925 178.01 210.25C175.15 206.925 168.5 198.386 168.5 191.229C168.506 188.713 169.509 186.302 171.29 184.525C173.071 182.748 175.484 181.75 178 181.75ZM178 178.583C174.644 178.581 171.423 179.912 169.048 182.283C166.673 184.655 165.336 187.873 165.333 191.229C165.333 199.219 171.934 208.033 175.606 212.308C175.902 212.654 176.269 212.932 176.682 213.122C177.096 213.312 177.545 213.411 178 213.411C178.455 213.411 178.905 213.312 179.318 213.122C179.731 212.932 180.098 212.654 180.394 212.308C184.066 208.033 190.667 199.219 190.667 191.229C190.664 187.873 189.328 184.655 186.952 182.283C184.577 179.912 181.357 178.581 178 178.583Z" fill="#BFBAFC"/>
<path d="M178 189.667C178.314 189.667 178.62 189.76 178.88 189.933C179.141 190.107 179.343 190.355 179.463 190.644C179.583 190.933 179.614 191.252 179.553 191.559C179.492 191.866 179.342 192.148 179.12 192.37C178.899 192.591 178.617 192.742 178.309 192.803C178.002 192.864 177.684 192.833 177.395 192.713C177.105 192.593 176.858 192.39 176.684 192.13C176.51 191.869 176.417 191.563 176.417 191.25C176.417 190.83 176.584 190.427 176.881 190.13C177.178 189.833 177.581 189.667 178 189.667ZM178 186.5C177.061 186.5 176.143 186.779 175.362 187.301C174.58 187.822 173.972 188.564 173.612 189.432C173.253 190.3 173.158 191.255 173.342 192.177C173.525 193.098 173.977 193.944 174.642 194.609C175.306 195.273 176.152 195.725 177.074 195.909C177.995 196.092 178.95 195.998 179.818 195.638C180.686 195.279 181.428 194.67 181.95 193.889C182.472 193.108 182.75 192.189 182.75 191.25C182.75 189.99 182.25 188.782 181.359 187.891C180.468 187 179.26 186.5 178 186.5Z" fill="#BFBAFC"/>
<path d="M226.805 164.389H280.255C283.016 164.389 285.248 166.606 285.248 169.334V222.319C285.248 225.048 283.016 227.265 280.255 227.265H226.805C224.045 227.265 221.813 225.048 221.813 222.319V169.334C221.813 166.606 224.045 164.389 226.805 164.389Z" fill="url(#paint4_linear_14032_8994)" stroke="url(#paint5_linear_14032_8994)" stroke-width="0.777502"/>
<path d="M228.87 168.787C228.87 169.553 228.233 170.185 227.461 170.185C226.688 170.185 226.051 169.553 226.051 168.787C226.051 168.022 226.688 167.39 227.461 167.39C228.233 167.39 228.87 168.022 228.87 168.787Z" fill="white"/>
<path d="M233.475 168.787C233.475 169.553 232.838 170.185 232.065 170.185C231.293 170.185 230.656 169.553 230.656 168.787C230.656 168.022 231.293 167.39 232.065 167.39C232.857 167.39 233.475 168.022 233.475 168.787Z" fill="white"/>
<path d="M238.081 168.787C238.081 169.553 237.444 170.185 236.672 170.185C235.899 170.185 235.262 169.553 235.262 168.787C235.262 168.022 235.899 167.39 236.672 167.39C237.444 167.39 238.081 168.022 238.081 168.787Z" fill="white"/>
<path fill-rule="evenodd" clip-rule="evenodd" d="M237.515 183.147H240.309V189.574H269.368V211.088H266.573V202.426H240.309V211.088H237.515V183.147ZM240.309 199.632H266.573V192.368H240.309V199.632Z" fill="#BFBAFC"/>
<path fill-rule="evenodd" clip-rule="evenodd" d="M237.119 182.751H240.704V189.178H269.763V211.484H266.177V202.822H240.704V211.484H237.119V182.751ZM237.91 183.543V210.692H239.913V202.031H266.969V210.692H268.972V189.969H239.913V183.543H237.91ZM239.913 191.972H266.969V200.028H239.913V191.972ZM240.704 192.763V199.237H266.177V192.763H240.704Z" fill="#BFBAFC"/>
<path fill-rule="evenodd" clip-rule="evenodd" d="M250.647 187.897H242.824V185.103H250.647V187.897Z" fill="#BFBAFC"/>
<path fill-rule="evenodd" clip-rule="evenodd" d="M242.428 184.707H251.043V188.293H242.428V184.707ZM243.219 185.499V187.501H250.251V185.499H243.219Z" fill="#BFBAFC"/>
<path d="M310.381 164.389H363.831C366.591 164.389 368.823 166.606 368.823 169.334V222.319C368.823 225.048 366.591 227.265 363.831 227.265H310.381C307.621 227.265 305.389 225.048 305.389 222.319V169.334C305.389 166.606 307.621 164.389 310.381 164.389Z" fill="url(#paint6_linear_14032_8994)" stroke="url(#paint7_linear_14032_8994)" stroke-width="0.777502"/>
<path d="M312.446 168.787C312.446 169.553 311.809 170.185 311.037 170.185C310.264 170.185 309.627 169.553 309.627 168.787C309.627 168.022 310.264 167.39 311.037 167.39C311.809 167.39 312.446 168.022 312.446 168.787Z" fill="white"/>
<path d="M317.051 168.787C317.051 169.553 316.413 170.185 315.641 170.185C314.869 170.185 314.231 169.553 314.231 168.787C314.231 168.022 314.869 167.39 315.641 167.39C316.433 167.39 317.051 168.022 317.051 168.787Z" fill="white"/>
<path d="M321.657 168.787C321.657 169.553 321.02 170.185 320.247 170.185C319.475 170.185 318.838 169.553 318.838 168.787C318.838 168.022 319.475 167.39 320.247 167.39C321.02 167.39 321.657 168.022 321.657 168.787Z" fill="white"/>
<path d="M337.396 213.417C333.873 213.417 330.429 212.372 327.5 210.415C324.571 208.457 322.288 205.676 320.939 202.421C319.591 199.166 319.238 195.584 319.926 192.129C320.613 188.674 322.31 185.5 324.801 183.009C327.292 180.518 330.466 178.821 333.921 178.134C337.376 177.447 340.958 177.799 344.213 179.148C347.467 180.496 350.249 182.779 352.207 185.708C354.164 188.637 355.208 192.081 355.208 195.604C355.203 200.327 353.325 204.854 349.985 208.194C346.646 211.533 342.119 213.411 337.396 213.417ZM337.396 181.354C334.578 181.354 331.823 182.19 329.479 183.756C327.136 185.322 325.309 187.547 324.231 190.151C323.152 192.755 322.87 195.62 323.42 198.384C323.97 201.148 325.327 203.688 327.32 205.68C329.313 207.673 331.852 209.031 334.616 209.58C337.38 210.13 340.245 209.848 342.849 208.769C345.453 207.691 347.679 205.864 349.244 203.521C350.81 201.178 351.646 198.423 351.646 195.604C351.642 191.826 350.139 188.204 347.467 185.533C344.796 182.861 341.174 181.359 337.396 181.354Z" fill="#BFBAFC"/>
<path fill-rule="evenodd" clip-rule="evenodd" d="M339.177 184.917H335.615V187.004C334.87 187.267 334.186 187.694 333.617 188.263C332.615 189.265 332.052 190.624 332.052 192.042C332.052 194.922 334.679 196.237 336.597 197.197L336.6 197.198C338.108 197.952 339.177 198.536 339.177 199.167C339.177 199.639 338.99 200.092 338.656 200.426C338.321 200.76 337.868 200.948 337.396 200.948C336.924 200.948 336.471 200.76 336.136 200.426C335.802 200.092 335.615 199.639 335.615 199.167H332.052C332.054 200.583 332.617 201.942 333.619 202.943C334.188 203.512 334.871 203.939 335.615 204.203V206.292H339.177V204.203C339.921 203.939 340.604 203.512 341.173 202.943C342.175 201.942 342.738 200.583 342.74 199.167C342.74 196.286 340.113 194.971 338.195 194.011L338.192 194.01C336.683 193.256 335.615 192.672 335.615 192.042C335.615 191.569 335.802 191.116 336.136 190.782C336.471 190.448 336.924 190.26 337.396 190.26C337.868 190.26 338.321 190.448 338.656 190.782C338.99 191.116 339.177 191.569 339.177 192.042H342.74C342.74 190.624 342.177 189.265 341.175 188.263C340.606 187.694 339.922 187.267 339.177 187.004V184.917Z" fill="#BFBAFC"/>
<path d="M386.593 164.389H440.043C442.803 164.389 445.035 166.606 445.035 169.334V222.319C445.035 225.048 442.803 227.265 440.043 227.265H386.593C383.833 227.265 381.601 225.048 381.601 222.319V169.334C381.601 166.606 383.833 164.389 386.593 164.389Z" fill="url(#paint8_linear_14032_8994)" stroke="url(#paint9_linear_14032_8994)" stroke-width="0.777502"/>
<path d="M388.658 168.788C388.658 169.553 388.02 170.185 387.248 170.185C386.476 170.185 385.838 169.553 385.838 168.788C385.838 168.022 386.476 167.39 387.248 167.39C388.02 167.39 388.658 168.022 388.658 168.788Z" fill="white"/>
<path d="M393.262 168.787C393.262 169.553 392.625 170.185 391.852 170.185C391.08 170.185 390.443 169.553 390.443 168.787C390.443 168.022 391.08 167.39 391.852 167.39C392.644 167.39 393.262 168.022 393.262 168.787Z" fill="white"/>
<path d="M397.868 168.787C397.868 169.553 397.231 170.185 396.459 170.185C395.687 170.185 395.049 169.553 395.049 168.787C395.049 168.022 395.687 167.39 396.459 167.39C397.231 167.39 397.868 168.022 397.868 168.787Z" fill="white"/>
<path d="M428.833 212.833H397.167V182.75H428.833V212.833ZM400.333 209.667H425.667V185.917H400.333V209.667Z" fill="#BFBAFC"/>
<path d="M406.667 179.583H403.5V189.083H406.667V179.583Z" fill="#BFBAFC"/>
<path d="M422.5 179.583H419.333V189.083H422.5V179.583Z" fill="#BFBAFC"/>
<path d="M427.25 190.667H398.75V193.833H427.25V190.667Z" fill="#BFBAFC"/>
<path d="M411.417 206.5C410.997 206.5 410.594 206.333 410.297 206.036L406.667 202.406L408.905 200.167L411.417 202.678L417.094 197L419.333 199.239L412.536 206.036C412.239 206.333 411.836 206.5 411.417 206.5Z" fill="#BFBAFC"/>
<path d="M462.805 164.389H516.255C519.016 164.389 521.248 166.606 521.248 169.334V222.319C521.248 225.048 519.016 227.265 516.255 227.265H462.805C460.045 227.265 457.813 225.048 457.813 222.319V169.334C457.813 166.606 460.045 164.389 462.805 164.389Z" fill="url(#paint10_linear_14032_8994)" stroke="url(#paint11_linear_14032_8994)" stroke-width="0.777502"/>
<path d="M464.87 168.788C464.87 169.553 464.233 170.185 463.46 170.185C462.688 170.185 462.051 169.553 462.051 168.788C462.051 168.022 462.688 167.39 463.46 167.39C464.233 167.39 464.87 168.022 464.87 168.788Z" fill="white"/>
<path d="M469.475 168.787C469.475 169.553 468.838 170.185 468.065 170.185C467.293 170.185 466.656 169.553 466.656 168.787C466.656 168.022 467.293 167.39 468.065 167.39C468.857 167.39 469.475 168.022 469.475 168.787Z" fill="white"/>
<path d="M474.081 168.787C474.081 169.553 473.444 170.185 472.671 170.185C471.899 170.185 471.262 169.553 471.262 168.787C471.262 168.022 471.899 167.39 472.671 167.39C473.444 167.39 474.081 168.022 474.081 168.787Z" fill="white"/>
<path d="M503.887 180.375C504.35 180.372 504.809 180.464 505.235 180.645C505.662 180.826 506.047 181.092 506.367 181.427C506.707 181.76 506.976 182.159 507.157 182.6C507.337 183.041 507.426 183.514 507.416 183.991V209.094C507.403 210.026 507.027 210.916 506.368 211.575C505.709 212.235 504.819 212.611 503.887 212.625H475.197C474.72 212.635 474.247 212.546 473.806 212.365C473.365 212.184 472.966 211.915 472.633 211.573C472.298 211.254 472.032 210.869 471.851 210.442C471.671 210.016 471.579 209.557 471.583 209.094V183.993C471.579 183.523 471.667 183.056 471.844 182.62C472.02 182.183 472.28 181.786 472.61 181.45C472.94 181.114 473.332 180.847 473.765 180.663C474.199 180.479 474.664 180.382 475.134 180.378H503.891L503.887 180.375ZM503.833 209.042V183.958H475.166V209.042H503.833Z" fill="#BFBAFC"/>
<path d="M473.375 206.354L480.691 198.636L485.917 204.149L497.413 192.021L504.729 199.739" stroke="#BFBAFC" stroke-width="3.39474"/>
<circle cx="483.677" cy="190.677" r="3.13542" fill="#BFBAFC"/>
<g style="mix-blend-mode:screen" opacity="0.8" filter="url(#filter1_f_14032_8994)">
<ellipse cx="293" cy="397.5" rx="139" ry="75.5" fill="#9E98FC"/>
</g>
<g opacity="0.2">
<g filter="url(#filter2_bd_14032_8994)">
<rect x="216.237" y="358.675" width="234.763" height="150.742" rx="7.05108" fill="url(#paint12_linear_14032_8994)"/>
<rect x="217.044" y="359.482" width="233.149" height="149.129" rx="6.24432" stroke="url(#paint13_linear_14032_8994)" stroke-width="1.61351"/>
</g>
</g>
<g opacity="0.4">
<g filter="url(#filter3_bd_14032_8994)">
<rect x="197.492" y="342.296" width="234.763" height="150.742" rx="7.05108" fill="url(#paint14_linear_14032_8994)"/>
<rect x="198.298" y="343.103" width="233.149" height="149.129" rx="6.24432" stroke="url(#paint15_linear_14032_8994)" stroke-width="1.61351"/>
</g>
</g>
<g opacity="0.8">
<g filter="url(#filter4_bd_14032_8994)">
<rect x="178.746" y="321.823" width="234.763" height="150.742" rx="7.05108" fill="url(#paint16_linear_14032_8994)"/>
<rect x="179.552" y="322.63" width="233.149" height="149.129" rx="6.24432" stroke="url(#paint17_linear_14032_8994)" stroke-width="1.61351"/>
</g>
</g>
<g filter="url(#filter5_bd_14032_8994)">
<rect x="160" y="306.826" width="234.947" height="151.216" rx="5.39291" fill="url(#paint18_linear_14032_8994)"/>
<rect x="160.617" y="307.443" width="233.713" height="149.982" rx="4.77587" stroke="url(#paint19_linear_14032_8994)" stroke-width="1.23407"/>
</g>
<path d="M175.847 317.397C175.847 318.647 174.816 319.679 173.565 319.679C172.315 319.679 171.283 318.647 171.283 317.397C171.283 316.146 172.315 315.114 173.565 315.114C174.816 315.114 175.847 316.146 175.847 317.397Z" fill="white"/>
<path d="M184.417 317.397C184.417 318.647 183.385 319.679 182.135 319.679C180.885 319.679 179.853 318.647 179.853 317.397C179.853 316.146 180.885 315.114 182.135 315.114C183.417 315.114 184.417 316.146 184.417 317.397Z" fill="white"/>
<path d="M192.987 317.397C192.987 318.647 191.955 319.679 190.705 319.679C189.454 319.679 188.423 318.647 188.423 317.397C188.423 316.146 189.454 315.114 190.705 315.114C191.955 315.114 192.987 316.146 192.987 317.397Z" fill="white"/>
<path d="M295.868 333.968H192.708V338.171H295.868V333.968Z" fill="#FFA57E"/>
<path d="M340.586 425.772H237.427V429.976H340.586V425.772Z" fill="#8ED7FF"/>
<path d="M178.396 333.968H171.632V338.171H178.396V333.968Z" fill="white" fill-opacity="0.2"/>
<path d="M178.396 425.772H171.632V429.976H178.396V425.772Z" fill="white" fill-opacity="0.2"/>
<path d="M332.293 343.216H229.133V347.42H332.293V343.216Z" fill="#8ED7FF"/>
<path d="M366.828 435.02H271.503V439.224H366.828V435.02Z" fill="#8ED7FF"/>
<path d="M359.348 343.216H339.054V347.42H359.348V343.216Z" fill="#9D97F4"/>
<path d="M267.141 435.02H246.848V439.224H267.141V435.02Z" fill="#FFA57E"/>
<path d="M266.338 352.463H229.133V356.666H266.338V352.463Z" fill="#FFA57E"/>
<path d="M249.92 444.268H212.715V448.472H249.92V444.268Z" fill="#FFA57E"/>
<path d="M301.849 352.463H274.791V356.666H301.849V352.463Z" fill="#9D97F4"/>
<path d="M285.43 444.268H258.372V448.472H285.43V444.268Z" fill="#9D97F4"/>
<path d="M349.2 352.463H310.304V356.666H349.2V352.463Z" fill="#8ED7FF"/>
<path d="M332.782 444.268H293.886V448.472H332.782V444.268Z" fill="#8ED7FF"/>
<path d="M339.047 361.711H264.637V365.914H339.047V361.711Z" fill="#8ED7FF"/>
<path d="M372.452 453.515H309.505V457.719H372.452V453.515Z" fill="#8ED7FF"/>
<path d="M256.187 361.711H244.349V365.914H256.187V361.711Z" fill="#9D97F4"/>
<path d="M301.055 453.515H289.217V457.719H301.055V453.515Z" fill="#9D97F4"/>
<path d="M301.989 370.959H244.49V375.162H301.989V370.959Z" fill="#FFA57E"/>
<path d="M178.396 343.216H171.632V347.42H178.396V343.216Z" fill="white" fill-opacity="0.2"/>
<path d="M178.396 435.02H171.632V439.224H178.396V435.02Z" fill="white" fill-opacity="0.2"/>
<path d="M178.396 352.463H171.632V356.666H178.396V352.463Z" fill="white" fill-opacity="0.2"/>
<path d="M178.396 444.268H171.632V448.472H178.396V444.268Z" fill="white" fill-opacity="0.2"/>
<path d="M178.396 361.712H171.632V365.916H178.396V361.712Z" fill="white" fill-opacity="0.2"/>
<path d="M178.396 453.515H171.632V457.719H178.396V453.515Z" fill="white" fill-opacity="0.2"/>
<path d="M178.396 370.958H171.632V375.161H178.396V370.958Z" fill="white" fill-opacity="0.2"/>
<path d="M327.643 379.87H224.484V384.074H327.643V379.87Z" fill="#9D97F4"/>
<path d="M178.396 379.87H171.632V384.074H178.396V379.87Z" fill="white" fill-opacity="0.2"/>
<path d="M332.293 389.119H229.133V393.322H332.293V389.119Z" fill="#8ED7FF"/>
<path d="M359.348 389.119H339.054V393.322H359.348V389.119Z" fill="#FFA57E"/>
<path d="M266.338 398.366H229.133V402.57H266.338V398.366Z" fill="#FFA57E"/>
<path d="M301.849 398.366H274.791V402.57H301.849V398.366Z" fill="#9D97F4"/>
<path d="M349.2 398.366H310.304V402.57H349.2V398.366Z" fill="#8ED7FF"/>
<path d="M339.047 407.612H264.637V411.816H339.047V407.612Z" fill="#8ED7FF"/>
<path d="M256.187 407.612H244.349V411.816H256.187V407.612Z" fill="#9D97F4"/>
<path d="M261.262 416.86H203.764V421.064H261.262V416.86Z" fill="#8ED7FF"/>
<path d="M178.396 389.119H171.632V393.322H178.396V389.119Z" fill="white" fill-opacity="0.2"/>
<path d="M178.396 398.366H171.632V402.57H178.396V398.366Z" fill="white" fill-opacity="0.2"/>
<path d="M178.396 407.614H171.632V411.817H178.396V407.614Z" fill="white" fill-opacity="0.2"/>
<path d="M178.396 416.862H171.632V421.065H178.396V416.862Z" fill="white" fill-opacity="0.2"/>
<path d="M295 289.326L295 278.448C295 269.059 302.611 261.448 312 261.448L479 261.448C484.523 261.448 489 256.971 489 251.448L489 236.826" stroke="url(#paint20_linear_14032_8994)" stroke-width="2" stroke-dasharray="4 4"/>
<path d="M295 288.826L295 278.214C295 268.825 302.611 261.214 312 261.214L393 261.214C401.837 261.214 409 254.05 409 245.214L409 236.826" stroke="url(#paint21_linear_14032_8994)" stroke-width="2" stroke-dasharray="4 4"/>
<path d="M295 300L295 278.214C295 268.825 302.611 261.214 312 261.214L327 261.214C332.523 261.214 337 256.737 337 251.214L337 236.826" stroke="url(#paint22_linear_14032_8994)" stroke-width="2" stroke-dasharray="4 4"/>
<path d="M294 101.674L294 112.552C294 121.941 286.389 129.552 277 129.552L110 129.552C104.477 129.552 100 134.029 100 139.552L100 154.174" stroke="url(#paint23_linear_14032_8994)" stroke-width="2" stroke-dasharray="4 4"/>
<path d="M294 102.174L294 112.786C294 122.175 286.389 129.786 277 129.786L196 129.786C187.163 129.786 180 136.95 180 145.786L180 154.174" stroke="url(#paint24_linear_14032_8994)" stroke-width="2" stroke-dasharray="4 4"/>
<path d="M294 91L294 112.786C294 122.175 286.389 129.786 277 129.786L262 129.786C256.477 129.786 252 134.263 252 139.786L252 154.174" stroke="url(#paint25_linear_14032_8994)" stroke-width="2" stroke-dasharray="4 4"/>
<path d="M294 289.326L294 278.448C294 269.059 286.389 261.448 277 261.448L110 261.448C104.477 261.448 100 256.971 100 251.448L100 236.826" stroke="url(#paint26_linear_14032_8994)" stroke-width="2" stroke-dasharray="4 4"/>
<path d="M294 288.826L294 278.214C294 268.825 286.389 261.214 277 261.214L196 261.214C187.163 261.214 180 254.05 180 245.214L180 236.826" stroke="url(#paint27_linear_14032_8994)" stroke-width="2" stroke-dasharray="4 4"/>
<path d="M294 300L294 278.214C294 268.825 286.389 261.214 277 261.214L262 261.214C256.477 261.214 252 256.737 252 251.214L252 236.826" stroke="url(#paint28_linear_14032_8994)" stroke-width="2" stroke-dasharray="4 4"/>
<path d="M295 101.674L295 112.552C295 121.941 302.611 129.552 312 129.552L479 129.552C484.523 129.552 489 134.029 489 139.552L489 154.174" stroke="url(#paint29_linear_14032_8994)" stroke-width="2" stroke-dasharray="4 4"/>
<path d="M295 102.174L295 112.786C295 122.175 302.611 129.786 312 129.786L393 129.786C401.837 129.786 409 136.95 409 145.786L409 154.174" stroke="url(#paint30_linear_14032_8994)" stroke-width="2" stroke-dasharray="4 4"/>
<path d="M295 91L295 112.786C295 122.175 302.611 129.786 312 129.786L327 129.786C332.523 129.786 337 134.263 337 139.786L337 154.174" stroke="url(#paint31_linear_14032_8994)" stroke-width="2" stroke-dasharray="4 4"/>
<g filter="url(#filter6_dd_14032_8994)">
<ellipse cx="5" cy="5" rx="5" ry="5" transform="matrix(1 8.74228e-08 8.74228e-08 -1 363 266.826)" fill="#D1CCFF"/>
</g>
<g filter="url(#filter7_dd_14032_8994)">
<ellipse cx="3.5" cy="3.5" rx="3.5" ry="3.5" transform="matrix(1 8.74228e-08 8.74228e-08 -1 178 248.826)" fill="#D1CCFF"/>
</g>
<g filter="url(#filter8_dd_14032_8994)">
<ellipse cx="5" cy="5" rx="5" ry="5" transform="matrix(1 8.74228e-08 8.74228e-08 -1 111 266.826)" fill="#D1CCFF"/>
</g>
<g filter="url(#filter9_dd_14032_8994)">
<ellipse cx="3.5" cy="3.5" rx="3.5" ry="3.5" transform="matrix(1 8.74228e-08 8.74228e-08 -1 483 262)" fill="#D1CCFF"/>
</g>
<g filter="url(#filter10_bd_14032_8994)">
<mask id="path-113-outside-1_14032_8994" maskUnits="userSpaceOnUse" x="109" y="424" width="86" height="57" fill="black">
<rect fill="white" x="109" y="424" width="86" height="57"/>
<path fill-rule="evenodd" clip-rule="evenodd" d="M192.888 460.604C192.888 451.232 186.237 443.492 177.623 442.309C176.4 433.094 168.868 426 159.758 426C153.49 426 147.968 429.359 144.735 434.457C142.815 431.362 139.491 429.316 135.712 429.316C129.767 429.316 124.948 434.378 124.948 440.623C124.948 441.277 125.001 441.917 125.102 442.54C117.061 444.218 111 451.676 111 460.621C111 470.803 118.851 479.056 128.535 479.056C128.686 479.056 128.835 479.054 128.985 479.05V479.056H158.64C158.683 479.056 158.725 479.056 158.768 479.056C158.811 479.056 158.854 479.056 158.896 479.056H175.746V479.049C185.251 478.814 192.888 470.646 192.888 460.604Z"/>
</mask>
<path fill-rule="evenodd" clip-rule="evenodd" d="M192.888 460.604C192.888 451.232 186.237 443.492 177.623 442.309C176.4 433.094 168.868 426 159.758 426C153.49 426 147.968 429.359 144.735 434.457C142.815 431.362 139.491 429.316 135.712 429.316C129.767 429.316 124.948 434.378 124.948 440.623C124.948 441.277 125.001 441.917 125.102 442.54C117.061 444.218 111 451.676 111 460.621C111 470.803 118.851 479.056 128.535 479.056C128.686 479.056 128.835 479.054 128.985 479.05V479.056H158.64C158.683 479.056 158.725 479.056 158.768 479.056C158.811 479.056 158.854 479.056 158.896 479.056H175.746V479.049C185.251 478.814 192.888 470.646 192.888 460.604Z" fill="url(#paint32_linear_14032_8994)" shape-rendering="crispEdges"/>
<path d="M177.623 442.309L176.072 442.515L176.229 443.696L177.41 443.859L177.623 442.309ZM144.735 434.457L143.407 435.281L144.721 437.4L146.056 435.294L144.735 434.457ZM125.102 442.54L125.421 444.071L126.886 443.765L126.646 442.289L125.102 442.54ZM128.985 479.05H130.549V477.444L128.943 477.487L128.985 479.05ZM128.985 479.056H127.421V480.62H128.985V479.056ZM158.64 479.056L158.65 477.492H158.64V479.056ZM158.896 479.056V477.492L158.886 477.492L158.896 479.056ZM175.746 479.056V480.62H177.31V479.056H175.746ZM175.746 479.049L175.707 477.486L174.182 477.523V479.049H175.746ZM177.41 443.859C185.202 444.928 191.324 451.964 191.324 460.604H194.452C194.452 450.499 187.271 442.055 177.835 440.76L177.41 443.859ZM159.758 427.564C168.015 427.564 174.943 434.007 176.072 442.515L179.173 442.104C177.856 432.181 169.72 424.436 159.758 424.436V427.564ZM146.056 435.294C149.027 430.61 154.07 427.564 159.758 427.564V424.436C152.91 424.436 146.91 428.108 143.415 433.619L146.056 435.294ZM135.712 430.88C138.904 430.88 141.747 432.606 143.407 435.281L146.064 433.632C143.883 430.118 140.077 427.752 135.712 427.752V430.88ZM126.512 440.623C126.512 435.168 130.702 430.88 135.712 430.88V427.752C128.832 427.752 123.384 433.588 123.384 440.623H126.512ZM126.646 442.289C126.558 441.749 126.512 441.192 126.512 440.623H123.384C123.384 441.361 123.444 442.085 123.558 442.791L126.646 442.289ZM112.564 460.621C112.564 452.378 118.143 445.59 125.421 444.071L124.783 441.009C115.98 442.846 109.436 450.974 109.436 460.621H112.564ZM128.535 477.492C119.787 477.492 112.564 470.014 112.564 460.621H109.436C109.436 471.592 117.914 480.62 128.535 480.62V477.492ZM128.943 477.487C128.808 477.49 128.672 477.492 128.535 477.492V480.62C128.699 480.62 128.863 480.618 129.026 480.613L128.943 477.487ZM130.549 479.056V479.05H127.421V479.056H130.549ZM158.64 477.492H128.985V480.62H158.64V477.492ZM158.768 477.492C158.729 477.492 158.69 477.492 158.65 477.492L158.63 480.62C158.676 480.62 158.722 480.62 158.768 480.62V477.492ZM158.886 477.492C158.847 477.492 158.808 477.492 158.768 477.492V480.62C158.814 480.62 158.861 480.62 158.907 480.62L158.886 477.492ZM175.746 477.492H158.896V480.62H175.746V477.492ZM174.182 479.049V479.056H177.31V479.049H174.182ZM191.324 460.604C191.324 469.866 184.297 477.273 175.707 477.486L175.784 480.612C186.205 480.355 194.452 471.426 194.452 460.604H191.324Z" fill="url(#paint33_linear_14032_8994)" mask="url(#path-113-outside-1_14032_8994)"/>
</g>
<path d="M142.287 462.463H133.756L131.867 467.468H127.618L136.148 445.717H140.115L148.645 467.468H144.175L142.287 462.463ZM134.763 459.189H141.279L138.037 450.407L134.763 459.189ZM151.385 445.748H158.373C160.545 445.748 162.434 446.189 163.819 447.354C165.235 448.518 166.085 450.061 166.085 452.264C166.085 454.468 165.235 456.041 163.819 457.206C162.434 458.371 160.545 458.906 158.373 458.906H155.509V467.468H151.385V445.748ZM157.869 455.695C159.129 455.695 159.978 455.38 160.671 454.877C161.364 454.373 161.867 453.492 161.867 452.264C161.867 451.068 161.269 450.187 160.577 449.683C159.884 449.179 159.034 448.959 157.775 448.959H155.477V455.695H157.869ZM169.476 445.748H173.568V467.468H169.476V445.748Z" fill="white"/>
<g filter="url(#filter11_bd_14032_8994)">
<rect x="213" y="42" width="163" height="42" rx="7.63636" fill="url(#paint34_linear_14032_8994)" shape-rendering="crispEdges"/>
<rect x="212.375" y="41.3747" width="164.251" height="43.2505" rx="8.26164" stroke="url(#paint35_linear_14032_8994)" stroke-width="1.25055" shape-rendering="crispEdges"/>
</g>
<path d="M234.989 68.1738L241.369 60.6741H235.306V58.2392H245.265V60.041L238.958 67.5163H245.581V70H234.989V68.1738ZM249.662 56.3399C248.566 56.3399 247.787 55.6338 247.787 54.6111C247.787 53.6128 248.566 52.8823 249.662 52.8823C250.758 52.8823 251.537 53.6128 251.537 54.6111C251.537 55.6338 250.758 56.3399 249.662 56.3399ZM248.103 58.2148H251.22V70H248.103V58.2148ZM254.797 53.1988H257.89V70H254.797V53.1988ZM261.491 53.1988H264.583V70H261.491V53.1988ZM273.736 70.2678C270.107 70.2678 267.332 67.8816 267.332 64.1561C267.332 60.4306 270.107 57.9957 273.736 57.9957C277.339 57.9957 280.115 60.4306 280.115 64.1561C280.115 67.8816 277.339 70.2678 273.736 70.2678ZM276.901 64.0831C276.901 62.0621 275.732 60.5037 273.736 60.5037C271.69 60.5037 270.57 62.0621 270.57 64.0831C270.57 66.1041 271.69 67.6868 273.736 67.6868C275.732 67.6868 276.901 66.1041 276.901 64.0831ZM290.521 62.0134L287.916 70H284.848L281.074 58.2148H284.166L286.625 66.6641L289.425 58.2148H291.86L294.758 66.445L297.022 58.2148H300.115L296.219 70H293.419L290.521 62.0134ZM302.834 70.2678C301.665 70.2678 300.862 69.5861 300.862 68.466C300.862 67.3216 301.665 66.6398 302.834 66.6398C303.954 66.6398 304.782 67.3216 304.782 68.466C304.782 69.5861 303.954 70.2678 302.834 70.2678ZM317.65 66.3963L318.527 68.6851C318.283 68.9043 317.066 70.2678 313.925 70.2678C310.711 70.2678 307.74 68.052 307.74 64.2048C307.74 60.3332 310.808 57.9957 313.974 57.9957C316.944 57.9957 318.113 59.1888 318.43 59.5054L317.577 61.8429C317.212 61.502 316.165 60.6011 314.339 60.6011C312.488 60.6011 311.003 61.8916 311.003 64.0587C311.003 66.2258 312.488 67.6381 314.509 67.6381C316.53 67.6381 317.65 66.3963 317.65 66.3963ZM326.356 70.2678C322.728 70.2678 319.952 67.8816 319.952 64.1561C319.952 60.4306 322.728 57.9957 326.356 57.9957C329.96 57.9957 332.736 60.4306 332.736 64.1561C332.736 67.8816 329.96 70.2678 326.356 70.2678ZM329.522 64.0831C329.522 62.0621 328.353 60.5037 326.356 60.5037C324.311 60.5037 323.191 62.0621 323.191 64.0831C323.191 66.1041 324.311 67.6868 326.356 67.6868C328.353 67.6868 329.522 66.1041 329.522 64.0831ZM350.024 63.4013C350.024 61.9647 349.708 60.5524 348.174 60.5524C346.615 60.5524 345.812 61.8916 345.812 63.9126V70H342.695V63.3769C342.695 61.7699 342.281 60.5524 340.796 60.5524C339.189 60.5524 338.482 62.0621 338.482 63.9126V70H335.366V58.2148H338.482L338.458 59.9923H338.531C339.067 58.8966 340.503 57.9957 342.038 57.9957C343.742 57.9957 344.765 58.6775 345.325 60.2358C346.153 58.7992 347.492 57.9957 349.196 57.9957C352.289 57.9957 353.141 60.1871 353.141 62.8899V70H350.024V63.4013Z" fill="white"/>
<g filter="url(#filter12_dd_14032_8994)">
<ellipse cx="5.19355" cy="5.19355" rx="5.19355" ry="5.19355" transform="matrix(1 8.74228e-08 8.74228e-08 -1 307 135.387)" fill="#D1CCFF"/>
</g>
<g filter="url(#filter13_dd_14032_8994)">
<ellipse cx="3.63548" cy="3.63548" rx="3.63548" ry="3.63548" transform="matrix(1 8.74228e-08 8.74228e-08 -1 209 134.271)" fill="#D1CCFF"/>
</g>
<g filter="url(#filter14_dd_14032_8994)">
<ellipse cx="5.19355" cy="5.19355" rx="5.19355" ry="5.19355" transform="matrix(1 8.74228e-08 8.74228e-08 -1 130 135.387)" fill="#D1CCFF"/>
</g>
<g filter="url(#filter15_dd_14032_8994)">
<ellipse cx="3.63548" cy="3.63548" rx="3.63548" ry="3.63548" transform="matrix(1 8.74228e-08 8.74228e-08 -1 443 133.271)" fill="#D1CCFF"/>
</g>
<defs>
<filter id="filter0_f_14032_8994" x="0" y="108" width="593" height="178" filterUnits="userSpaceOnUse" color-interpolation-filters="sRGB">
<feFlood flood-opacity="0" result="BackgroundImageFix"/>
<feBlend mode="normal" in="SourceGraphic" in2="BackgroundImageFix" result="shape"/>
<feGaussianBlur stdDeviation="32" result="effect1_foregroundBlur_14032_8994"/>
</filter>
<filter id="filter1_f_14032_8994" x="54" y="222" width="478" height="351" filterUnits="userSpaceOnUse" color-interpolation-filters="sRGB">
<feFlood flood-opacity="0" result="BackgroundImageFix"/>
<feBlend mode="normal" in="SourceGraphic" in2="BackgroundImageFix" result="shape"/>
<feGaussianBlur stdDeviation="50" result="effect1_foregroundBlur_14032_8994"/>
</filter>
<filter id="filter2_bd_14032_8994" x="173.931" y="316.369" width="319.376" height="235.355" filterUnits="userSpaceOnUse" color-interpolation-filters="sRGB">
<feFlood flood-opacity="0" result="BackgroundImageFix"/>
<feGaussianBlur in="BackgroundImageFix" stdDeviation="21.1532"/>
<feComposite in2="SourceAlpha" operator="in" result="effect1_backgroundBlur_14032_8994"/>
<feColorMatrix in="SourceAlpha" type="matrix" values="0 0 0 0 0 0 0 0 0 0 0 0 0 0 0 0 0 0 127 0" result="hardAlpha"/>
<feMorphology radius="1.51889" operator="erode" in="SourceAlpha" result="effect2_dropShadow_14032_8994"/>
<feOffset dy="6.07555"/>
<feGaussianBlur stdDeviation="15.0541"/>
<feComposite in2="hardAlpha" operator="out"/>
<feColorMatrix type="matrix" values="0 0 0 0 0 0 0 0 0 0 0 0 0 0 0 0 0 0 0.2 0"/>
<feBlend mode="normal" in2="effect1_backgroundBlur_14032_8994" result="effect2_dropShadow_14032_8994"/>
<feBlend mode="normal" in="SourceGraphic" in2="effect2_dropShadow_14032_8994" result="shape"/>
</filter>
<filter id="filter3_bd_14032_8994" x="155.185" y="299.99" width="319.376" height="235.355" filterUnits="userSpaceOnUse" color-interpolation-filters="sRGB">
<feFlood flood-opacity="0" result="BackgroundImageFix"/>
<feGaussianBlur in="BackgroundImageFix" stdDeviation="21.1532"/>
<feComposite in2="SourceAlpha" operator="in" result="effect1_backgroundBlur_14032_8994"/>
<feColorMatrix in="SourceAlpha" type="matrix" values="0 0 0 0 0 0 0 0 0 0 0 0 0 0 0 0 0 0 127 0" result="hardAlpha"/>
<feMorphology radius="1.51889" operator="erode" in="SourceAlpha" result="effect2_dropShadow_14032_8994"/>
<feOffset dy="6.07555"/>
<feGaussianBlur stdDeviation="15.0541"/>
<feComposite in2="hardAlpha" operator="out"/>
<feColorMatrix type="matrix" values="0 0 0 0 0 0 0 0 0 0 0 0 0 0 0 0 0 0 0.2 0"/>
<feBlend mode="normal" in2="effect1_backgroundBlur_14032_8994" result="effect2_dropShadow_14032_8994"/>
<feBlend mode="normal" in="SourceGraphic" in2="effect2_dropShadow_14032_8994" result="shape"/>
</filter>
<filter id="filter4_bd_14032_8994" x="136.439" y="279.516" width="319.376" height="235.355" filterUnits="userSpaceOnUse" color-interpolation-filters="sRGB">
<feFlood flood-opacity="0" result="BackgroundImageFix"/>
<feGaussianBlur in="BackgroundImageFix" stdDeviation="21.1532"/>
<feComposite in2="SourceAlpha" operator="in" result="effect1_backgroundBlur_14032_8994"/>
<feColorMatrix in="SourceAlpha" type="matrix" values="0 0 0 0 0 0 0 0 0 0 0 0 0 0 0 0 0 0 127 0" result="hardAlpha"/>
<feMorphology radius="1.51889" operator="erode" in="SourceAlpha" result="effect2_dropShadow_14032_8994"/>
<feOffset dy="6.07555"/>
<feGaussianBlur stdDeviation="15.0541"/>
<feComposite in2="hardAlpha" operator="out"/>
<feColorMatrix type="matrix" values="0 0 0 0 0 0 0 0 0 0 0 0 0 0 0 0 0 0 0.2 0"/>
<feBlend mode="normal" in2="effect1_backgroundBlur_14032_8994" result="effect2_dropShadow_14032_8994"/>
<feBlend mode="normal" in="SourceGraphic" in2="effect2_dropShadow_14032_8994" result="shape"/>
</filter>
<filter id="filter5_bd_14032_8994" x="127.643" y="274.469" width="299.662" height="215.931" filterUnits="userSpaceOnUse" color-interpolation-filters="sRGB">
<feFlood flood-opacity="0" result="BackgroundImageFix"/>
<feGaussianBlur in="BackgroundImageFix" stdDeviation="16.1787"/>
<feComposite in2="SourceAlpha" operator="in" result="effect1_backgroundBlur_14032_8994"/>
<feColorMatrix in="SourceAlpha" type="matrix" values="0 0 0 0 0 0 0 0 0 0 0 0 0 0 0 0 0 0 127 0" result="hardAlpha"/>
<feMorphology radius="1.1617" operator="erode" in="SourceAlpha" result="effect2_dropShadow_14032_8994"/>
<feOffset dy="4.64679"/>
<feGaussianBlur stdDeviation="11.5139"/>
<feComposite in2="hardAlpha" operator="out"/>
<feColorMatrix type="matrix" values="0 0 0 0 0 0 0 0 0 0 0 0 0 0 0 0 0 0 0.2 0"/>
<feBlend mode="normal" in2="effect1_backgroundBlur_14032_8994" result="effect2_dropShadow_14032_8994"/>
<feBlend mode="normal" in="SourceGraphic" in2="effect2_dropShadow_14032_8994" result="shape"/>
</filter>
<filter id="filter6_dd_14032_8994" x="347.479" y="241.305" width="41.0418" height="41.0418" filterUnits="userSpaceOnUse" color-interpolation-filters="sRGB">
<feFlood flood-opacity="0" result="BackgroundImageFix"/>
<feColorMatrix in="SourceAlpha" type="matrix" values="0 0 0 0 0 0 0 0 0 0 0 0 0 0 0 0 0 0 127 0" result="hardAlpha"/>
<feOffset/>
<feGaussianBlur stdDeviation="3.10418"/>
<feColorMatrix type="matrix" values="0 0 0 0 0.854902 0 0 0 0 0.847059 0 0 0 0 1 0 0 0 1 0"/>
<feBlend mode="normal" in2="BackgroundImageFix" result="effect1_dropShadow_14032_8994"/>
<feColorMatrix in="SourceAlpha" type="matrix" values="0 0 0 0 0 0 0 0 0 0 0 0 0 0 0 0 0 0 127 0" result="hardAlpha"/>
<feOffset/>
<feGaussianBlur stdDeviation="7.76044"/>
<feColorMatrix type="matrix" values="0 0 0 0 0.854902 0 0 0 0 0.847059 0 0 0 0 1 0 0 0 1 0"/>
<feBlend mode="normal" in2="effect1_dropShadow_14032_8994" result="effect2_dropShadow_14032_8994"/>
<feBlend mode="normal" in="SourceGraphic" in2="effect2_dropShadow_14032_8994" result="shape"/>
</filter>
<filter id="filter7_dd_14032_8994" x="162.479" y="226.305" width="38.0418" height="38.0418" filterUnits="userSpaceOnUse" color-interpolation-filters="sRGB">
<feFlood flood-opacity="0" result="BackgroundImageFix"/>
<feColorMatrix in="SourceAlpha" type="matrix" values="0 0 0 0 0 0 0 0 0 0 0 0 0 0 0 0 0 0 127 0" result="hardAlpha"/>
<feOffset/>
<feGaussianBlur stdDeviation="3.10418"/>
<feColorMatrix type="matrix" values="0 0 0 0 0.854902 0 0 0 0 0.847059 0 0 0 0 1 0 0 0 1 0"/>
<feBlend mode="normal" in2="BackgroundImageFix" result="effect1_dropShadow_14032_8994"/>
<feColorMatrix in="SourceAlpha" type="matrix" values="0 0 0 0 0 0 0 0 0 0 0 0 0 0 0 0 0 0 127 0" result="hardAlpha"/>
<feOffset/>
<feGaussianBlur stdDeviation="7.76044"/>
<feColorMatrix type="matrix" values="0 0 0 0 0.854902 0 0 0 0 0.847059 0 0 0 0 1 0 0 0 1 0"/>
<feBlend mode="normal" in2="effect1_dropShadow_14032_8994" result="effect2_dropShadow_14032_8994"/>
<feBlend mode="normal" in="SourceGraphic" in2="effect2_dropShadow_14032_8994" result="shape"/>
</filter>
<filter id="filter8_dd_14032_8994" x="95.4791" y="241.305" width="41.0418" height="41.0418" filterUnits="userSpaceOnUse" color-interpolation-filters="sRGB">
<feFlood flood-opacity="0" result="BackgroundImageFix"/>
<feColorMatrix in="SourceAlpha" type="matrix" values="0 0 0 0 0 0 0 0 0 0 0 0 0 0 0 0 0 0 127 0" result="hardAlpha"/>
<feOffset/>
<feGaussianBlur stdDeviation="3.10418"/>
<feColorMatrix type="matrix" values="0 0 0 0 0.854902 0 0 0 0 0.847059 0 0 0 0 1 0 0 0 1 0"/>
<feBlend mode="normal" in2="BackgroundImageFix" result="effect1_dropShadow_14032_8994"/>
<feColorMatrix in="SourceAlpha" type="matrix" values="0 0 0 0 0 0 0 0 0 0 0 0 0 0 0 0 0 0 127 0" result="hardAlpha"/>
<feOffset/>
<feGaussianBlur stdDeviation="7.76044"/>
<feColorMatrix type="matrix" values="0 0 0 0 0.854902 0 0 0 0 0.847059 0 0 0 0 1 0 0 0 1 0"/>
<feBlend mode="normal" in2="effect1_dropShadow_14032_8994" result="effect2_dropShadow_14032_8994"/>
<feBlend mode="normal" in="SourceGraphic" in2="effect2_dropShadow_14032_8994" result="shape"/>
</filter>
<filter id="filter9_dd_14032_8994" x="467.479" y="239.479" width="38.0418" height="38.0418" filterUnits="userSpaceOnUse" color-interpolation-filters="sRGB">
<feFlood flood-opacity="0" result="BackgroundImageFix"/>
<feColorMatrix in="SourceAlpha" type="matrix" values="0 0 0 0 0 0 0 0 0 0 0 0 0 0 0 0 0 0 127 0" result="hardAlpha"/>
<feOffset/>
<feGaussianBlur stdDeviation="3.10418"/>
<feColorMatrix type="matrix" values="0 0 0 0 0.854902 0 0 0 0 0.847059 0 0 0 0 1 0 0 0 1 0"/>
<feBlend mode="normal" in2="BackgroundImageFix" result="effect1_dropShadow_14032_8994"/>
<feColorMatrix in="SourceAlpha" type="matrix" values="0 0 0 0 0 0 0 0 0 0 0 0 0 0 0 0 0 0 127 0" result="hardAlpha"/>
<feOffset/>
<feGaussianBlur stdDeviation="7.76044"/>
<feColorMatrix type="matrix" values="0 0 0 0 0.854902 0 0 0 0 0.847059 0 0 0 0 1 0 0 0 1 0"/>
<feBlend mode="normal" in2="effect1_dropShadow_14032_8994" result="effect2_dropShadow_14032_8994"/>
<feBlend mode="normal" in="SourceGraphic" in2="effect2_dropShadow_14032_8994" result="shape"/>
</filter>
<filter id="filter10_bd_14032_8994" x="105.266" y="420.266" width="93.356" height="68.6945" filterUnits="userSpaceOnUse" color-interpolation-filters="sRGB">
<feFlood flood-opacity="0" result="BackgroundImageFix"/>
<feGaussianBlur in="BackgroundImageFix" stdDeviation="2.08509"/>
<feComposite in2="SourceAlpha" operator="in" result="effect1_backgroundBlur_14032_8994"/>
<feColorMatrix in="SourceAlpha" type="matrix" values="0 0 0 0 0 0 0 0 0 0 0 0 0 0 0 0 0 0 127 0" result="hardAlpha"/>
<feOffset dy="4.17018"/>
<feGaussianBlur stdDeviation="2.08509"/>
<feComposite in2="hardAlpha" operator="out"/>
<feColorMatrix type="matrix" values="0 0 0 0 0 0 0 0 0 0 0 0 0 0 0 0 0 0 0.25 0"/>
<feBlend mode="normal" in2="effect1_backgroundBlur_14032_8994" result="effect2_dropShadow_14032_8994"/>
<feBlend mode="normal" in="SourceGraphic" in2="effect2_dropShadow_14032_8994" result="shape"/>
</filter>
<filter id="filter11_bd_14032_8994" x="208.415" y="37.4147" width="172.171" height="54.5055" filterUnits="userSpaceOnUse" color-interpolation-filters="sRGB">
<feFlood flood-opacity="0" result="BackgroundImageFix"/>
<feGaussianBlur in="BackgroundImageFix" stdDeviation="1.6674"/>
<feComposite in2="SourceAlpha" operator="in" result="effect1_backgroundBlur_14032_8994"/>
<feColorMatrix in="SourceAlpha" type="matrix" values="0 0 0 0 0 0 0 0 0 0 0 0 0 0 0 0 0 0 127 0" result="hardAlpha"/>
<feOffset dy="3.3348"/>
<feGaussianBlur stdDeviation="1.6674"/>
<feComposite in2="hardAlpha" operator="out"/>
<feColorMatrix type="matrix" values="0 0 0 0 0 0 0 0 0 0 0 0 0 0 0 0 0 0 0.25 0"/>
<feBlend mode="normal" in2="effect1_backgroundBlur_14032_8994" result="effect2_dropShadow_14032_8994"/>
<feBlend mode="normal" in="SourceGraphic" in2="effect2_dropShadow_14032_8994" result="shape"/>
</filter>
<filter id="filter12_dd_14032_8994" x="290.878" y="108.878" width="42.6306" height="42.6305" filterUnits="userSpaceOnUse" color-interpolation-filters="sRGB">
<feFlood flood-opacity="0" result="BackgroundImageFix"/>
<feColorMatrix in="SourceAlpha" type="matrix" values="0 0 0 0 0 0 0 0 0 0 0 0 0 0 0 0 0 0 127 0" result="hardAlpha"/>
<feOffset/>
<feGaussianBlur stdDeviation="3.22434"/>
<feColorMatrix type="matrix" values="0 0 0 0 0.854902 0 0 0 0 0.847059 0 0 0 0 1 0 0 0 1 0"/>
<feBlend mode="normal" in2="BackgroundImageFix" result="effect1_dropShadow_14032_8994"/>
<feColorMatrix in="SourceAlpha" type="matrix" values="0 0 0 0 0 0 0 0 0 0 0 0 0 0 0 0 0 0 127 0" result="hardAlpha"/>
<feOffset/>
<feGaussianBlur stdDeviation="8.06084"/>
<feColorMatrix type="matrix" values="0 0 0 0 0.854902 0 0 0 0 0.847059 0 0 0 0 1 0 0 0 1 0"/>
<feBlend mode="normal" in2="effect1_dropShadow_14032_8994" result="effect2_dropShadow_14032_8994"/>
<feBlend mode="normal" in="SourceGraphic" in2="effect2_dropShadow_14032_8994" result="shape"/>
</filter>
<filter id="filter13_dd_14032_8994" x="192.878" y="110.878" width="39.5144" height="39.5143" filterUnits="userSpaceOnUse" color-interpolation-filters="sRGB">
<feFlood flood-opacity="0" result="BackgroundImageFix"/>
<feColorMatrix in="SourceAlpha" type="matrix" values="0 0 0 0 0 0 0 0 0 0 0 0 0 0 0 0 0 0 127 0" result="hardAlpha"/>
<feOffset/>
<feGaussianBlur stdDeviation="3.22434"/>
<feColorMatrix type="matrix" values="0 0 0 0 0.854902 0 0 0 0 0.847059 0 0 0 0 1 0 0 0 1 0"/>
<feBlend mode="normal" in2="BackgroundImageFix" result="effect1_dropShadow_14032_8994"/>
<feColorMatrix in="SourceAlpha" type="matrix" values="0 0 0 0 0 0 0 0 0 0 0 0 0 0 0 0 0 0 127 0" result="hardAlpha"/>
<feOffset/>
<feGaussianBlur stdDeviation="8.06084"/>
<feColorMatrix type="matrix" values="0 0 0 0 0.854902 0 0 0 0 0.847059 0 0 0 0 1 0 0 0 1 0"/>
<feBlend mode="normal" in2="effect1_dropShadow_14032_8994" result="effect2_dropShadow_14032_8994"/>
<feBlend mode="normal" in="SourceGraphic" in2="effect2_dropShadow_14032_8994" result="shape"/>
</filter>
<filter id="filter14_dd_14032_8994" x="113.878" y="108.878" width="42.6306" height="42.6305" filterUnits="userSpaceOnUse" color-interpolation-filters="sRGB">
<feFlood flood-opacity="0" result="BackgroundImageFix"/>
<feColorMatrix in="SourceAlpha" type="matrix" values="0 0 0 0 0 0 0 0 0 0 0 0 0 0 0 0 0 0 127 0" result="hardAlpha"/>
<feOffset/>
<feGaussianBlur stdDeviation="3.22434"/>
<feColorMatrix type="matrix" values="0 0 0 0 0.854902 0 0 0 0 0.847059 0 0 0 0 1 0 0 0 1 0"/>
<feBlend mode="normal" in2="BackgroundImageFix" result="effect1_dropShadow_14032_8994"/>
<feColorMatrix in="SourceAlpha" type="matrix" values="0 0 0 0 0 0 0 0 0 0 0 0 0 0 0 0 0 0 127 0" result="hardAlpha"/>
<feOffset/>
<feGaussianBlur stdDeviation="8.06084"/>
<feColorMatrix type="matrix" values="0 0 0 0 0.854902 0 0 0 0 0.847059 0 0 0 0 1 0 0 0 1 0"/>
<feBlend mode="normal" in2="effect1_dropShadow_14032_8994" result="effect2_dropShadow_14032_8994"/>
<feBlend mode="normal" in="SourceGraphic" in2="effect2_dropShadow_14032_8994" result="shape"/>
</filter>
<filter id="filter15_dd_14032_8994" x="426.878" y="109.878" width="39.5144" height="39.5143" filterUnits="userSpaceOnUse" color-interpolation-filters="sRGB">
<feFlood flood-opacity="0" result="BackgroundImageFix"/>
<feColorMatrix in="SourceAlpha" type="matrix" values="0 0 0 0 0 0 0 0 0 0 0 0 0 0 0 0 0 0 127 0" result="hardAlpha"/>
<feOffset/>
<feGaussianBlur stdDeviation="3.22434"/>
<feColorMatrix type="matrix" values="0 0 0 0 0.854902 0 0 0 0 0.847059 0 0 0 0 1 0 0 0 1 0"/>
<feBlend mode="normal" in2="BackgroundImageFix" result="effect1_dropShadow_14032_8994"/>
<feColorMatrix in="SourceAlpha" type="matrix" values="0 0 0 0 0 0 0 0 0 0 0 0 0 0 0 0 0 0 127 0" result="hardAlpha"/>
<feOffset/>
<feGaussianBlur stdDeviation="8.06084"/>
<feColorMatrix type="matrix" values="0 0 0 0 0.854902 0 0 0 0 0.847059 0 0 0 0 1 0 0 0 1 0"/>
<feBlend mode="normal" in2="effect1_dropShadow_14032_8994" result="effect2_dropShadow_14032_8994"/>
<feBlend mode="normal" in="SourceGraphic" in2="effect2_dropShadow_14032_8994" result="shape"/>
</filter>
<linearGradient id="paint0_linear_14032_8994" x1="75.7688" y1="168.835" x2="132.82" y2="227.82" gradientUnits="userSpaceOnUse">
<stop offset="0.173212" stop-color="#0E2446"/>
<stop offset="1" stop-color="#003C97"/>
</linearGradient>
<linearGradient id="paint1_linear_14032_8994" x1="101.106" y1="164" x2="101.106" y2="227.654" gradientUnits="userSpaceOnUse">
<stop stop-color="white" stop-opacity="0.09"/>
<stop offset="1" stop-color="#9D97F4"/>
</linearGradient>
<linearGradient id="paint2_linear_14032_8994" x1="150.138" y1="168.835" x2="205.256" y2="227.82" gradientUnits="userSpaceOnUse">
<stop stop-color="#0E2446"/>
<stop offset="1" stop-color="#003C97"/>
</linearGradient>
<linearGradient id="paint3_linear_14032_8994" x1="177.318" y1="164" x2="177.318" y2="227.654" gradientUnits="userSpaceOnUse">
<stop stop-color="white" stop-opacity="0.09"/>
<stop offset="1" stop-color="#9D97F4"/>
</linearGradient>
<linearGradient id="paint4_linear_14032_8994" x1="229.344" y1="168.835" x2="285.428" y2="227.82" gradientUnits="userSpaceOnUse">
<stop stop-color="#0E2446"/>
<stop offset="1" stop-color="#003C97"/>
</linearGradient>
<linearGradient id="paint5_linear_14032_8994" x1="253.53" y1="164" x2="253.53" y2="227.654" gradientUnits="userSpaceOnUse">
<stop stop-color="white" stop-opacity="0.09"/>
<stop offset="1" stop-color="#9D97F4"/>
</linearGradient>
<linearGradient id="paint6_linear_14032_8994" x1="310.802" y1="168.756" x2="368.82" y2="227.258" gradientUnits="userSpaceOnUse">
<stop stop-color="#0E2446"/>
<stop offset="1" stop-color="#003C97"/>
</linearGradient>
<linearGradient id="paint7_linear_14032_8994" x1="337.106" y1="164" x2="337.106" y2="227.654" gradientUnits="userSpaceOnUse">
<stop stop-color="white" stop-opacity="0.09"/>
<stop offset="1" stop-color="#9D97F4"/>
</linearGradient>
<linearGradient id="paint8_linear_14032_8994" x1="387.105" y1="170.207" x2="438.839" y2="227.258" gradientUnits="userSpaceOnUse">
<stop stop-color="#0E2446"/>
<stop offset="1" stop-color="#003C97"/>
</linearGradient>
<linearGradient id="paint9_linear_14032_8994" x1="413.318" y1="164" x2="413.318" y2="227.654" gradientUnits="userSpaceOnUse">
<stop stop-color="white" stop-opacity="0.09"/>
<stop offset="1" stop-color="#9D97F4"/>
</linearGradient>
<linearGradient id="paint10_linear_14032_8994" x1="463.893" y1="170.207" x2="512.726" y2="227.258" gradientUnits="userSpaceOnUse">
<stop stop-color="#0E2446"/>
<stop offset="1" stop-color="#003C97"/>
</linearGradient>
<linearGradient id="paint11_linear_14032_8994" x1="489.53" y1="164" x2="489.53" y2="227.654" gradientUnits="userSpaceOnUse">
<stop stop-color="white" stop-opacity="0.09"/>
<stop offset="1" stop-color="#9D97F4"/>
</linearGradient>
<linearGradient id="paint12_linear_14032_8994" x1="216.237" y1="365.053" x2="456.885" y2="511.953" gradientUnits="userSpaceOnUse">
<stop offset="0.27" stop-color="#0E2446"/>
<stop offset="1" stop-color="#003C97"/>
</linearGradient>
<linearGradient id="paint13_linear_14032_8994" x1="248.15" y1="361.69" x2="419.971" y2="504.833" gradientUnits="userSpaceOnUse">
<stop stop-color="white" stop-opacity="0"/>
<stop offset="1" stop-color="#BBB7FF"/>
</linearGradient>
<linearGradient id="paint14_linear_14032_8994" x1="197.492" y1="348.674" x2="438.139" y2="495.574" gradientUnits="userSpaceOnUse">
<stop offset="0.27" stop-color="#0E2446"/>
<stop offset="1" stop-color="#003C97"/>
</linearGradient>
<linearGradient id="paint15_linear_14032_8994" x1="229.405" y1="345.311" x2="401.226" y2="488.455" gradientUnits="userSpaceOnUse">
<stop stop-color="white" stop-opacity="0"/>
<stop offset="1" stop-color="#BBB7FF"/>
</linearGradient>
<linearGradient id="paint16_linear_14032_8994" x1="178.746" y1="328.2" x2="419.393" y2="475.1" gradientUnits="userSpaceOnUse">
<stop offset="0.27" stop-color="#0E2446"/>
<stop offset="1" stop-color="#003C97"/>
</linearGradient>
<linearGradient id="paint17_linear_14032_8994" x1="210.659" y1="324.838" x2="382.48" y2="467.981" gradientUnits="userSpaceOnUse">
<stop stop-color="white" stop-opacity="0"/>
<stop offset="1" stop-color="#BBB7FF"/>
</linearGradient>
<linearGradient id="paint18_linear_14032_8994" x1="194" y1="300.326" x2="395.174" y2="448.783" gradientUnits="userSpaceOnUse">
<stop offset="0.28" stop-color="#092349"/>
<stop offset="1" stop-color="#003C97"/>
</linearGradient>
<linearGradient id="paint19_linear_14032_8994" x1="191.938" y1="309.85" x2="364.225" y2="453.045" gradientUnits="userSpaceOnUse">
<stop stop-color="white" stop-opacity="0"/>
<stop offset="1" stop-color="#BBB7FF"/>
</linearGradient>
<linearGradient id="paint20_linear_14032_8994" x1="279.584" y1="316.553" x2="323.416" y2="159.335" gradientUnits="userSpaceOnUse">
<stop stop-color="#C3BFFF"/>
<stop offset="0.7" stop-color="#C3BFFF"/>
<stop offset="1" stop-color="#091B36" stop-opacity="0"/>
</linearGradient>
<linearGradient id="paint21_linear_14032_8994" x1="285.941" y1="315.793" x2="351.719" y2="179.523" gradientUnits="userSpaceOnUse">
<stop stop-color="#C3BFFF"/>
<stop offset="0.7" stop-color="#C3BFFF"/>
<stop offset="1" stop-color="#091B36" stop-opacity="0"/>
</linearGradient>
<linearGradient id="paint22_linear_14032_8994" x1="291.663" y1="315.793" x2="361.004" y2="233.801" gradientUnits="userSpaceOnUse">
<stop stop-color="#C3BFFF"/>
<stop offset="0.7" stop-color="#C3BFFF"/>
<stop offset="1" stop-color="#091B36" stop-opacity="0"/>
</linearGradient>
<linearGradient id="paint23_linear_14032_8994" x1="309.416" y1="74.4473" x2="265.584" y2="231.665" gradientUnits="userSpaceOnUse">
<stop stop-color="#C3BFFF"/>
<stop offset="0.7" stop-color="#C3BFFF"/>
<stop offset="1" stop-color="#091B36" stop-opacity="0"/>
</linearGradient>
<linearGradient id="paint24_linear_14032_8994" x1="303.059" y1="75.2067" x2="237.281" y2="211.477" gradientUnits="userSpaceOnUse">
<stop stop-color="#C3BFFF"/>
<stop offset="0.7" stop-color="#C3BFFF"/>
<stop offset="1" stop-color="#091B36" stop-opacity="0"/>
</linearGradient>
<linearGradient id="paint25_linear_14032_8994" x1="297.337" y1="75.2066" x2="227.996" y2="157.199" gradientUnits="userSpaceOnUse">
<stop stop-color="#C3BFFF"/>
<stop offset="0.7" stop-color="#C3BFFF"/>
<stop offset="1" stop-color="#091B36" stop-opacity="0"/>
</linearGradient>
<linearGradient id="paint26_linear_14032_8994" x1="309.416" y1="316.553" x2="265.584" y2="159.335" gradientUnits="userSpaceOnUse">
<stop stop-color="#C3BFFF"/>
<stop offset="0.7" stop-color="#C3BFFF"/>
<stop offset="1" stop-color="#091B36" stop-opacity="0"/>
</linearGradient>
<linearGradient id="paint27_linear_14032_8994" x1="303.059" y1="315.793" x2="237.281" y2="179.523" gradientUnits="userSpaceOnUse">
<stop stop-color="#C3BFFF"/>
<stop offset="0.7" stop-color="#C3BFFF"/>
<stop offset="1" stop-color="#091B36" stop-opacity="0"/>
</linearGradient>
<linearGradient id="paint28_linear_14032_8994" x1="297.337" y1="315.793" x2="227.996" y2="233.801" gradientUnits="userSpaceOnUse">
<stop stop-color="#C3BFFF"/>
<stop offset="0.7" stop-color="#C3BFFF"/>
<stop offset="1" stop-color="#091B36" stop-opacity="0"/>
</linearGradient>
<linearGradient id="paint29_linear_14032_8994" x1="279.584" y1="74.4473" x2="323.416" y2="231.665" gradientUnits="userSpaceOnUse">
<stop stop-color="#C3BFFF"/>
<stop offset="0.7" stop-color="#C3BFFF"/>
<stop offset="1" stop-color="#091B36" stop-opacity="0"/>
</linearGradient>
<linearGradient id="paint30_linear_14032_8994" x1="285.941" y1="75.2067" x2="351.719" y2="211.477" gradientUnits="userSpaceOnUse">
<stop stop-color="#C3BFFF"/>
<stop offset="0.7" stop-color="#C3BFFF"/>
<stop offset="1" stop-color="#091B36" stop-opacity="0"/>
</linearGradient>
<linearGradient id="paint31_linear_14032_8994" x1="291.663" y1="75.2067" x2="361.004" y2="157.199" gradientUnits="userSpaceOnUse">
<stop stop-color="#C3BFFF"/>
<stop offset="0.7" stop-color="#C3BFFF"/>
<stop offset="1" stop-color="#091B36" stop-opacity="0"/>
</linearGradient>
<linearGradient id="paint32_linear_14032_8994" x1="200.138" y1="479.17" x2="115.691" y2="437.989" gradientUnits="userSpaceOnUse">
<stop stop-color="white" stop-opacity="0"/>
<stop offset="1.0001" stop-color="white" stop-opacity="0.33"/>
</linearGradient>
<linearGradient id="paint33_linear_14032_8994" x1="151.944" y1="426" x2="151.944" y2="479.056" gradientUnits="userSpaceOnUse">
<stop stop-color="#D7D4FF"/>
<stop offset="1" stop-color="#5B588E" stop-opacity="0.7"/>
</linearGradient>
<linearGradient id="paint34_linear_14032_8994" x1="390.431" y1="84.0908" x2="307.324" y2="-17.8159" gradientUnits="userSpaceOnUse">
<stop stop-color="white" stop-opacity="0"/>
<stop offset="1.0001" stop-color="white" stop-opacity="0.33"/>
</linearGradient>
<linearGradient id="paint35_linear_14032_8994" x1="294.5" y1="42.0006" x2="294.5" y2="84.0009" gradientUnits="userSpaceOnUse">
<stop stop-color="#D7D4FF"/>
<stop offset="1" stop-color="#5B588E" stop-opacity="0.7"/>
</linearGradient>
<clipPath id="clip0_14032_8994">
<rect width="36" height="36" fill="white" transform="translate(83 179)"/>
</clipPath>
</defs>
</svg>
