<svg width="230" height="230" viewBox="0 0 230 230" fill="none" xmlns="http://www.w3.org/2000/svg">
<path d="M201.511 142.354C186.286 190.251 135.116 216.736 87.2201 201.511C39.3237 186.286 12.8383 135.116 28.0633 87.22C43.2882 39.3237 94.4581 12.8383 142.354 28.0632C190.251 43.2882 216.736 94.4581 201.511 142.354Z" fill="url(#paint0_linear_13552_512)"/>
<path d="M195.317 140.385C181.179 184.86 133.664 209.454 89.1892 195.317C44.714 181.179 20.1204 133.664 34.2579 89.1891C48.3953 44.7139 95.9102 20.1204 140.385 34.2578C184.861 48.3953 209.454 95.9102 195.317 140.385Z" stroke="white"/>
<path d="M109.791 69.729C108.909 72.5023 107.814 74.2634 105.931 75.3333C104.087 76.3838 101.67 76.5599 98.8106 75.6511C95.9229 74.7332 94.0799 73.203 93.1516 71.271C92.2609 69.3194 92.3838 67.2494 93.2653 64.4761L96.9187 52.9828L101.579 54.4642L97.9255 65.9575C97.4802 67.3584 97.2492 68.4812 97.6523 69.4907C98.045 70.434 98.8054 71.2109 100.092 71.6199C101.379 72.0288 102.448 71.8336 103.313 71.2902C104.225 70.6987 104.685 69.6486 105.13 68.2477L108.784 56.7544L113.444 58.2357L109.791 69.729ZM128.631 77.0401C127.313 81.1857 123.722 83.5699 119.634 82.2703C117.547 81.6068 116.306 80.3623 115.837 78.7654L113.629 85.7129L109.054 84.2588L115.18 64.9889L119.526 66.3703L118.924 68.1624L118.982 68.1806C120.402 67.2784 122.18 66.9309 124.325 67.6125C128.385 68.903 129.949 72.8945 128.631 77.0401ZM123.989 75.5015C124.68 73.3287 123.809 71.4148 121.836 70.7878C119.892 70.1698 118.075 71.2293 117.385 73.4022C116.694 75.5751 117.565 77.4889 119.509 78.1069C121.482 78.734 123.298 77.6744 123.989 75.5015ZM146.584 78.8119L143.467 77.8213L141.859 82.8817C141.477 84.0825 141.558 84.423 141.705 84.753C141.832 85.0453 142.082 85.2506 142.682 85.4414C143.397 85.6686 144.136 85.6203 144.136 85.6203L143.229 89.2668C142.859 89.2435 141.483 89.2153 139.824 88.6882C138.195 88.1702 137.263 87.3388 136.811 86.2825C136.36 85.2262 136.447 83.9631 137.129 81.8188L138.864 76.3581L136.863 75.7219L137.963 72.2625L139.964 72.8986L141.182 69.0675L145.785 70.5307L144.567 74.3618L147.683 75.3524L146.584 78.8119ZM162.376 87.798C160.931 92.3439 156.704 94.0538 152.244 92.6361C147.784 91.2183 145.292 87.3727 146.737 82.8268C148.182 78.281 152.446 76.5515 156.906 77.9693C161.366 79.387 163.821 83.2522 162.376 87.798ZM157.8 86.2491C158.463 84.162 157.762 82.2078 155.761 81.5716C153.731 80.9264 152.059 82.1262 151.396 84.2133C150.732 86.3004 151.404 88.2455 153.434 88.8908C155.436 89.5269 157.136 88.3362 157.8 86.2491ZM77.1356 98.9182C75.6724 103.521 70.9622 104.574 67.0453 103.329C63.0998 102.075 61.2708 99.51 60.8103 97.7897L63.7894 95.7461C64.3941 97.6068 66.18 99.1188 67.8668 99.655C69.5537 100.191 71.8926 99.8644 72.6469 97.4914C73.3921 95.147 71.757 93.557 69.9844 92.9935C68.6978 92.5845 67.141 92.5304 66.0548 92.8776L64.4352 91.0407L69.0131 81.8874L80.5636 85.559L79.4367 89.1042L71.2313 86.4959L69.5326 89.8594C70.2148 89.7929 71.0126 89.8576 72.2992 90.2666C75.3012 91.2209 78.5897 94.3438 77.1356 98.9182ZM97.0315 101.685C95.3774 106.889 91.3659 111.091 85.6193 109.264C79.844 107.429 79.0238 101.691 80.6778 96.4871C82.3318 91.2836 86.3433 87.0814 92.09 88.9081C97.8366 90.7348 98.6855 96.482 97.0315 101.685ZM92.5129 100.155C93.6398 96.6095 93.4076 93.5767 90.8631 92.7678C88.3185 91.959 86.3778 94.3011 85.2509 97.8463C84.124 101.392 84.338 104.482 86.8825 105.29C89.427 106.099 91.3859 103.7 92.5129 100.155ZM120.001 114.59C119.019 117.678 116.258 119.035 113.256 118.081C110.254 117.127 108.784 114.424 109.765 111.337C110.747 108.249 113.508 106.891 116.51 107.846C119.512 108.8 120.982 111.502 120.001 114.59ZM120.494 98.9758L101.949 114.833L100.349 113.034L118.923 97.1856L120.494 98.9758ZM111.077 100.673C110.096 103.761 107.326 105.147 104.324 104.192C101.351 103.247 99.8606 100.507 100.842 97.4194C101.824 94.3317 104.613 92.9833 107.587 93.9285C110.589 94.8828 112.059 97.5852 111.077 100.673ZM117.046 113.588C117.5 112.158 117.084 110.893 115.683 110.447C114.311 110.011 113.24 110.804 112.786 112.234C112.322 113.692 112.738 114.957 114.111 115.393C115.512 115.839 116.582 115.046 117.046 113.588ZM108.142 99.7083C108.605 98.2502 108.16 96.9755 106.76 96.5302C105.387 96.094 104.345 96.896 103.882 98.3542C103.427 99.7837 103.806 101.069 105.178 101.505C106.579 101.95 107.687 101.138 108.142 99.7083ZM144.435 119.87C142.99 124.416 138.763 126.126 134.303 124.708C129.843 123.291 127.351 119.445 128.796 114.899C130.241 110.353 134.505 108.624 138.966 110.041C143.426 111.459 145.88 115.324 144.435 119.87ZM139.859 118.321C140.523 116.234 139.822 114.28 137.82 113.644C135.791 112.999 134.118 114.198 133.455 116.286C132.792 118.373 133.464 120.318 135.494 120.963C137.495 121.599 139.196 120.408 139.859 118.321ZM159.793 110.744L158.555 113.845C158.555 113.845 157.751 113.306 156.95 113.051C155.606 112.624 155.018 113.287 154.682 114.345L154.391 115.26L157.421 116.223L156.322 119.682L153.291 118.719L149.919 129.326L145.316 127.863L148.688 117.256L146.887 116.683L147.987 113.224L149.788 113.796L150.033 113.024C150.533 111.452 151.284 110.18 152.385 109.585C153.496 108.963 155.022 108.818 156.794 109.381C158.596 109.954 159.793 110.744 159.793 110.744ZM171.063 114.326L169.826 117.427C169.826 117.427 169.021 116.888 168.221 116.634C166.877 116.207 166.289 116.869 165.952 117.927L165.662 118.842L168.692 119.806L167.593 123.265L164.562 122.302L161.19 132.909L156.587 131.445L159.959 120.838L158.158 120.266L159.257 116.806L161.059 117.379L161.304 116.607C161.804 115.035 162.554 113.762 163.656 113.168C164.767 112.545 166.293 112.401 168.065 112.964C169.866 113.537 171.063 114.326 171.063 114.326Z" fill="white"/>
<path d="M89.1502 135.475L88.0602 135.682C87.4538 133.575 87.1031 130.929 88.0434 127.971C88.9837 125.013 90.7983 123.054 92.5097 121.684L93.2799 122.483C92.1539 123.384 90.2231 125.709 89.37 128.392C88.517 131.076 88.7514 134.089 89.1502 135.475ZM98.6827 132.259C98.5955 132.534 98.4334 132.885 98.4334 132.885L92.8526 131.111C92.4732 132.569 93.1118 133.729 94.4536 134.155C95.8107 134.587 96.9125 134.131 97.1142 134.077L97.4575 135.11C97.3418 135.157 96.0724 135.929 93.9071 135.241C91.7571 134.557 90.7531 132.593 91.485 130.29C92.212 128.003 94.3394 127.067 96.3521 127.707C98.3649 128.347 99.3274 130.231 98.6827 132.259ZM97.4018 131.483C97.6434 130.67 97.4358 129.21 95.972 128.745C94.5234 128.284 93.5 129.285 93.178 130.14L97.4018 131.483ZM105.34 138.69L103.876 138.225L105.161 134.184C105.549 132.964 105.626 131.981 104.33 131.569C102.973 131.138 102.106 132.122 101.665 133.509L100.506 137.154L99.0426 136.688L101.345 129.445L102.809 129.911L102.43 131.05L102.476 131.064C103.085 130.469 104.042 130.152 105.094 130.486C107.152 131.14 107.255 132.667 106.702 134.405L105.34 138.69ZM114.459 141.589L113.056 141.143L113.424 139.984L113.394 139.974C112.518 140.67 111.478 140.826 110.426 140.491C108.276 139.808 107.427 137.725 108.11 135.575C108.789 133.44 110.675 132.26 112.794 132.934C113.969 133.307 114.658 134.097 114.923 135.004L114.954 135.014L116.355 130.607L117.803 131.067L114.459 141.589ZM114.214 137.498C114.675 136.05 114.17 134.681 112.721 134.22C111.273 133.76 110.07 134.586 109.609 136.035C109.149 137.483 109.649 138.868 111.098 139.328C112.546 139.789 113.754 138.947 114.214 137.498ZM122.249 141.731C121.754 143.287 120.164 143.587 118.762 143.141C117.542 142.753 116.711 141.935 116.353 140.948L117.325 140.317C117.732 141.152 118.46 141.82 119.131 142.033C119.802 142.246 120.596 142.23 120.848 141.437C121.1 140.644 120.034 140.037 119.599 139.714C118.648 139.009 117.702 138.288 118.138 136.916C118.565 135.574 119.956 135.21 121.237 135.618C122.518 136.025 123.104 136.715 123.407 137.348L122.511 138.054C122.224 137.476 121.63 136.918 120.928 136.695C120.227 136.472 119.672 136.631 119.483 137.226C119.294 137.821 119.913 138.303 120.557 138.759C120.91 139.023 121.156 139.201 121.422 139.42C122.123 140.013 122.549 140.786 122.249 141.731ZM73.417 141.655C72.3458 145.025 69.2213 146.298 66.2631 145.358C63.305 144.417 61.4891 141.574 62.5603 138.204C63.6315 134.834 66.756 133.561 69.7142 134.501C72.6723 135.441 74.4882 138.285 73.417 141.655ZM71.9171 141.144C72.7362 138.567 71.457 136.465 69.307 135.782C67.157 135.098 64.8987 136.076 64.0795 138.653C63.2653 141.215 64.5549 143.337 66.6896 144.016C68.8396 144.699 71.1028 143.706 71.9171 141.144ZM79.8391 148.447C79.5578 148.593 78.5295 149.24 76.593 148.624C74.6412 148.004 73.3987 145.997 74.1355 143.68C74.8771 141.347 77.1167 140.48 79.038 141.091C80.9745 141.707 81.4669 142.904 81.5141 143.02L80.6563 143.922C80.4899 143.601 80.0531 142.757 78.7722 142.35C77.4914 141.943 76.1138 142.579 75.6291 144.104C75.1444 145.629 75.7553 146.981 77.1582 147.427C78.5763 147.878 79.66 147.215 79.66 147.215L79.8391 148.447ZM84.4107 150.841C83.9761 150.887 83.5097 150.823 83.0065 150.663C81.192 150.086 81.5755 148.563 82.0263 147.145L83.0781 143.836L82.0107 143.497L82.3839 142.323L83.4513 142.662L84.1396 140.497L85.6034 140.962L84.9151 143.127L86.6534 143.68L86.2802 144.854L84.5419 144.301L83.4998 147.58C83.3059 148.19 83.1903 148.606 83.2611 148.964C83.3256 149.237 83.4802 149.437 83.8919 149.568C84.3189 149.704 84.6924 149.638 84.6924 149.638L84.4107 150.841ZM94.0776 150.035C93.3603 152.292 91.2031 153.269 89.0531 152.585C86.8879 151.897 85.6904 149.854 86.4078 147.597C87.1203 145.356 89.2871 144.349 91.4524 145.037C93.6024 145.721 94.7901 147.794 94.0776 150.035ZM92.6131 149.52C93.0639 148.101 92.5229 146.687 91.0743 146.227C89.6105 145.761 88.3522 146.604 87.9014 148.022C87.4458 149.455 87.9868 150.869 89.4506 151.335C90.8992 151.795 92.1575 150.953 92.6131 149.52ZM103.347 152.948C102.664 155.098 100.768 156.309 98.6181 155.626C97.566 155.291 96.8021 154.578 96.4885 153.505L96.458 153.495L96.0945 154.639L94.6917 154.193L98.0361 143.672L99.4847 144.132L98.0839 148.539L98.1144 148.548C98.8849 147.92 99.9043 147.724 101.048 148.087C103.167 148.761 104.026 150.814 103.347 152.948ZM101.858 152.458C102.318 151.01 101.813 149.64 100.365 149.18C98.9163 148.719 97.6982 149.541 97.2377 150.99C96.7772 152.438 97.2926 153.828 98.7411 154.288C100.19 154.748 101.397 153.907 101.858 152.458ZM111.73 155.294C111.642 155.568 111.48 155.92 111.48 155.92L105.899 154.146C105.52 155.603 106.159 156.763 107.501 157.19C108.858 157.621 109.959 157.166 110.161 157.112L110.504 158.145C110.389 158.192 109.119 158.964 106.954 158.275C104.804 157.592 103.8 155.627 104.532 153.325C105.259 151.038 107.386 150.102 109.399 150.742C111.412 151.382 112.374 153.266 111.73 155.294ZM110.449 154.517C110.69 153.704 110.483 152.245 109.019 151.78C107.57 151.319 106.547 152.32 106.225 153.175L110.449 154.517ZM118.437 153.749L117.915 155.077L117.854 155.058C117.736 154.953 117.506 154.78 117.109 154.654C115.798 154.237 115.037 155.522 114.702 156.575L113.553 160.188L112.09 159.723L114.392 152.48L115.856 152.946L115.487 154.054L115.532 154.068C116.145 153.356 116.936 153.138 117.714 153.385C118.202 153.54 118.437 153.749 118.437 153.749ZM128.474 161.691C127.863 163.612 125.828 164.258 123.693 163.58C121.574 162.906 120.934 160.956 120.845 160.71L121.954 160.072C122.054 160.339 122.673 161.929 124.046 162.365C125.418 162.801 126.627 162.43 127.03 161.165C127.432 159.899 126.66 158.949 125.455 158.566L124.677 158.318L125.051 157.144L125.828 157.392C126.941 157.745 127.913 157.383 128.262 156.285C128.616 155.172 127.89 154.286 126.822 153.947C125.755 153.608 124.843 153.888 123.924 154.352L123.519 153.249C124.447 152.705 125.595 152.264 127.318 152.812C129.041 153.359 130.291 154.865 129.744 156.588C129.249 158.143 128.003 158.419 127.28 158.424L127.265 158.469C128.04 158.884 128.993 160.06 128.474 161.691ZM133.058 166.388L131.624 165.933L134.624 156.494L132.566 155.84L132.91 154.757L136.402 155.867L133.058 166.388ZM140.505 163.534C139.564 166.492 137.75 168.451 136.023 169.816L135.253 169.017C136.379 168.116 138.31 165.791 139.163 163.108C140.016 160.424 139.782 157.411 139.383 156.025L140.473 155.818C141.094 157.929 141.445 160.576 140.505 163.534Z" fill="white"/>
<defs>
<linearGradient id="paint0_linear_13552_512" x1="70.9946" y1="38.433" x2="142.544" y2="217.72" gradientUnits="userSpaceOnUse">
<stop stop-color="#F50F32"/>
<stop offset="1" stop-color="#E68615"/>
</linearGradient>
</defs>
</svg>
