<svg xmlns="http://www.w3.org/2000/svg" width="621" height="549" viewBox="0 0 621 549" fill="none"><circle cx="272.301" cy="227" r="227" fill="#F5F8FF"></circle><g opacity="0.3"><g filter="url(#filter0_dd_20544_55390)"><path d="M29.9062 71.7806C29.9062 66.7759 33.9634 62.7188 38.9681 62.7188H413.341C418.346 62.7188 422.403 66.7759 422.403 71.7806V328.907C422.403 333.911 418.346 337.969 413.341 337.969H38.9681C33.9634 337.969 29.9062 333.911 29.9062 328.907V71.7806Z" fill="white"></path></g><path d="M29.9062 71.7806C29.9062 66.7759 33.9634 62.7188 38.9681 62.7188H413.224C418.228 62.7188 422.286 66.7759 422.286 71.7806V83.5611H29.9062V71.7806Z" fill="#000C36"></path><path d="M46.4839 73.5954C46.4839 75.5816 44.8453 77.2202 42.8591 77.2202C40.873 77.2202 39.2344 75.5816 39.2344 73.5954C39.2344 71.6093 40.873 69.9707 42.8591 69.9707C44.8453 69.9707 46.4839 71.6093 46.4839 73.5954Z" fill="#F66058"></path><path d="M60.8823 73.5954C60.8823 75.5816 59.2437 77.2202 57.2576 77.2202C55.2714 77.2202 53.6328 75.5816 53.6328 73.5954C53.6328 71.6093 55.2714 69.9707 57.2576 69.9707C59.2934 69.9707 60.8823 71.6093 60.8823 73.5954Z" fill="#F9BD2E"></path><path d="M75.6479 73.5954C75.6479 75.5816 74.0094 77.2202 72.0232 77.2202C70.037 77.2202 68.3984 75.5816 68.3984 73.5954C68.3984 71.6093 70.037 69.9707 72.0232 69.9707C74.0094 69.9707 75.6479 71.6093 75.6479 73.5954Z" fill="#3CC840"></path><path d="M29.9062 83.5605H422.286V110.746H29.9062V83.5605Z" fill="#EDF1F6"></path><path fill-rule="evenodd" clip-rule="evenodd" d="M90.4267 69.0635C88.5854 69.0635 87.0366 70.444 86.8258 72.2732L85.8946 80.3528C85.6837 82.182 84.135 83.5625 82.2937 83.5625H29.9062V112.56H422.286V83.5625H165.859C164.018 83.5625 162.469 82.182 162.258 80.3528L161.327 72.2732C161.116 70.444 159.567 69.0635 157.726 69.0635H90.4267Z" fill="#EDF1F6"></path><g clip-path="url(#clip0_20544_55390)"><path fill-rule="evenodd" clip-rule="evenodd" d="M44.5937 97.2218L54.592 97.2218L54.592 98.5811L44.5938 98.5811L44.5937 97.2218Z" fill="#B8C4D0"></path><path fill-rule="evenodd" clip-rule="evenodd" d="M43.1881 98.3653C42.9477 98.105 42.9477 97.7037 43.1881 97.4433L47.1832 93.1153L48.182 94.0373L44.6124 97.9043L48.182 101.771L47.1832 102.693L43.1881 98.3653Z" fill="#B8C4D0"></path></g><g clip-path="url(#clip1_20544_55390)"><path fill-rule="evenodd" clip-rule="evenodd" d="M80.4609 98.4247L70.4627 98.4247L70.4627 97.0654L80.4609 97.0654L80.4609 98.4247Z" fill="#B8C4D0"></path><path fill-rule="evenodd" clip-rule="evenodd" d="M81.8833 97.2984C82.1014 97.5529 82.1014 97.9284 81.8833 98.183L77.9068 102.822L76.8748 101.938L80.4721 97.7407L76.8748 93.5438L77.9068 92.6592L81.8833 97.2984Z" fill="#B8C4D0"></path></g><path d="M96.0625 94.4373C96.0625 92.9359 97.2796 91.7188 98.7811 91.7188H385.136C386.638 91.7188 387.855 92.9359 387.855 94.4373V101.687C387.855 103.188 386.638 104.405 385.136 104.405H98.7811C97.2796 104.405 96.0625 103.188 96.0625 101.687V94.4373Z" fill="white"></path><path d="M406.442 94.4363C405.697 94.4363 405.082 93.8219 405.082 93.0771C405.082 92.3322 405.697 91.7178 406.442 91.7178C407.186 91.7178 407.801 92.3322 407.801 93.0771C407.801 93.8219 407.186 94.4363 406.442 94.4363Z" fill="#B8C4D0"></path><path d="M406.438 99.2508C405.693 99.2508 405.078 98.6363 405.078 97.8915C405.078 97.1467 405.693 96.5322 406.438 96.5322C407.182 96.5322 407.797 97.1467 407.797 97.8915C407.797 98.6549 407.182 99.2508 406.438 99.2508Z" fill="#B8C4D0"></path><path d="M406.438 104.402C405.693 104.402 405.078 103.788 405.078 103.043C405.078 102.298 405.693 101.684 406.438 101.684C407.182 101.684 407.797 102.298 407.797 103.043C407.797 103.788 407.182 104.402 406.438 104.402Z" fill="#B8C4D0"></path><path d="M176.695 138.846C176.695 133.841 180.752 129.784 185.757 129.784H280.907C285.912 129.784 289.969 133.841 289.969 138.846V265.712C289.969 270.717 285.912 274.774 280.907 274.774H185.757C180.752 274.774 176.695 270.717 176.695 265.712V138.846Z" fill="#E3E7EC"></path><g filter="url(#filter1_dd_20544_55390)"><path d="M322.574 114.378C322.574 109.374 326.631 105.316 331.636 105.316H443.097C448.102 105.316 452.159 109.374 452.159 114.378V139.752C452.159 144.756 448.102 148.813 443.097 148.813H331.636C326.631 148.813 322.574 144.756 322.574 139.752V114.378Z" fill="white"></path><path fill-rule="evenodd" clip-rule="evenodd" d="M331.648 100.784H443.109C450.616 100.784 456.701 106.87 456.701 114.377V139.75C456.701 147.257 450.616 153.343 443.109 153.343H331.648C324.14 153.343 318.055 147.257 318.055 139.75V114.377C318.055 106.87 324.14 100.784 331.648 100.784ZM331.648 105.315C326.643 105.315 322.586 109.372 322.586 114.377V139.75C322.586 144.755 326.643 148.812 331.648 148.812H443.109C448.113 148.812 452.17 144.755 452.17 139.75V114.377C452.17 109.372 448.113 105.315 443.109 105.315H331.648Z" fill="#3D7FFC"></path></g><g filter="url(#filter2_dd_20544_55390)"><path d="M343.41 286.556C343.41 281.551 347.467 277.494 352.472 277.494H463.933C468.938 277.494 472.995 281.551 472.995 286.556V314.648C472.995 319.653 468.938 323.71 463.933 323.71H352.472C347.467 323.71 343.41 319.653 343.41 314.648V286.556Z" fill="white"></path><path fill-rule="evenodd" clip-rule="evenodd" d="M352.483 272.962H463.945C471.452 272.962 477.537 279.048 477.537 286.555V314.647C477.537 322.154 471.452 328.239 463.945 328.239H352.483C344.976 328.239 338.891 322.154 338.891 314.647V286.555C338.891 279.048 344.976 272.962 352.483 272.962ZM352.483 277.493C347.479 277.493 343.422 281.55 343.422 286.555V314.647C343.422 319.651 347.479 323.708 352.483 323.708H463.945C468.949 323.708 473.006 319.651 473.006 314.647V286.555C473.006 281.55 468.949 277.493 463.945 277.493H352.483Z" fill="#3D7FFC"></path></g><g filter="url(#filter3_dd_20544_55390)"><path d="M22.625 143.377C22.625 138.373 26.6821 134.315 31.6869 134.315H143.148C148.153 134.315 152.21 138.373 152.21 143.377V171.469C152.21 176.474 148.153 180.531 143.148 180.531H31.6869C26.6821 180.531 22.625 176.474 22.625 171.469V143.377Z" fill="white"></path><path fill-rule="evenodd" clip-rule="evenodd" d="M31.6983 129.783H143.159C150.666 129.783 156.752 135.869 156.752 143.376V171.468C156.752 178.975 150.666 185.061 143.159 185.061H31.6983C24.1912 185.061 18.1055 178.975 18.1055 171.468V143.376C18.1055 135.869 24.1912 129.783 31.6983 129.783ZM31.6983 134.314C26.6935 134.314 22.6364 138.371 22.6364 143.376V171.468C22.6364 176.473 26.6935 180.53 31.6983 180.53H143.159C148.164 180.53 152.221 176.473 152.221 171.468V143.376C152.221 138.371 148.164 134.314 143.159 134.314H31.6983Z" fill="#3D7FFC"></path></g><g filter="url(#filter4_dd_20544_55390)"><g filter="url(#filter5_dd_20544_55390)"><path d="M160.383 310.117C160.383 305.112 164.44 301.055 169.445 301.055H297.217C302.222 301.055 306.279 305.112 306.279 310.117V338.208C306.279 343.213 302.222 347.27 297.217 347.27H169.445C164.44 347.27 160.383 343.213 160.383 338.208V310.117Z" fill="white"></path></g><path fill-rule="evenodd" clip-rule="evenodd" d="M169.456 296.522H297.229C304.736 296.522 310.821 302.608 310.821 310.115V338.207C310.821 345.714 304.736 351.8 297.229 351.8H169.456C161.949 351.8 155.863 345.714 155.863 338.207V310.115C155.863 302.608 161.949 296.522 169.456 296.522ZM169.456 301.053C164.451 301.053 160.394 305.111 160.394 310.115V338.207C160.394 343.212 164.451 347.269 169.456 347.269H297.229C302.233 347.269 306.29 343.212 306.29 338.207V310.115C306.29 305.111 302.233 301.053 297.229 301.053H169.456Z" fill="#3D7FFC"></path></g><path fill-rule="evenodd" clip-rule="evenodd" d="M192.098 242.147C192.098 239.645 194.126 237.616 196.629 237.616H263.686C266.189 237.616 268.217 239.645 268.217 242.147C268.217 244.65 266.189 246.678 263.686 246.678H196.629C194.126 246.678 192.098 244.65 192.098 242.147Z" fill="white"></path><path fill-rule="evenodd" clip-rule="evenodd" d="M192.098 261.181C192.098 258.679 194.126 256.65 196.629 256.65H232.876C235.378 256.65 237.407 258.679 237.407 261.181C237.407 263.684 235.378 265.712 232.876 265.712H196.629C194.126 265.712 192.098 263.684 192.098 261.181Z" fill="white"></path><path fill-rule="evenodd" clip-rule="evenodd" d="M222.914 325.516C222.914 323.014 224.943 320.985 227.445 320.985L272.754 320.985C275.257 320.985 277.285 323.014 277.285 325.516C277.285 328.019 275.257 330.047 272.754 330.047L227.445 330.047C224.943 330.047 222.914 328.019 222.914 325.516Z" fill="#3D7FFC"></path><path fill-rule="evenodd" clip-rule="evenodd" d="M389.652 301.961C389.652 299.458 391.681 297.43 394.183 297.43H445.836C448.338 297.43 450.367 299.458 450.367 301.961C450.367 304.463 448.338 306.492 445.836 306.492H394.183C391.681 306.492 389.652 304.463 389.652 301.961Z" fill="#76A5FF"></path><path fill-rule="evenodd" clip-rule="evenodd" d="M68.8672 158.781C68.8672 156.279 70.8958 154.25 73.3981 154.25H125.051C127.553 154.25 129.582 156.279 129.582 158.781C129.582 161.283 127.553 163.312 125.051 163.312H73.3981C70.8958 163.312 68.8672 161.283 68.8672 158.781Z" fill="#76A5FF"></path><path d="M48.0078 218.589C48.0078 215.587 50.4421 213.152 53.4449 213.152H151.313C154.316 213.152 156.75 215.587 156.75 218.589V272.055C156.75 275.057 154.316 277.492 151.313 277.492H53.4449C50.4421 277.492 48.0078 275.057 48.0078 272.055V218.589Z" fill="#D2DCE4"></path><path d="M204.264 321.545H198.532C200.752 313.253 196.957 312.832 196.957 312.832C195.41 312.832 195.733 314.096 195.612 314.314C195.612 318.391 191.347 321.545 191.347 321.545V333.044C191.347 334.173 192.921 334.58 193.486 334.58H202.097C202.905 334.58 203.564 332.433 203.564 332.433C205.69 325.106 205.69 322.918 205.69 322.918C205.69 322.731 205.653 322.546 205.579 322.375C205.506 322.203 205.398 322.049 205.263 321.921C205.128 321.794 204.968 321.696 204.794 321.633C204.62 321.571 204.435 321.545 204.25 321.559L204.264 321.545ZM189.005 321.545H185.561C185.468 321.543 185.375 321.56 185.289 321.595C185.202 321.63 185.124 321.681 185.057 321.747C184.991 321.813 184.938 321.891 184.902 321.978C184.866 322.065 184.848 322.158 184.848 322.252L185.561 333.846C185.559 333.943 185.577 334.04 185.612 334.129C185.648 334.219 185.702 334.301 185.77 334.37C185.837 334.438 185.918 334.492 186.007 334.528C186.096 334.565 186.191 334.582 186.287 334.58H189.261C189.88 334.58 189.88 334.091 189.88 334.091V322.428C189.884 322.311 189.864 322.195 189.821 322.086C189.778 321.977 189.714 321.878 189.632 321.795C189.55 321.713 189.452 321.648 189.344 321.605C189.237 321.561 189.121 321.541 189.005 321.545Z" fill="#3D7FFC"></path><g filter="url(#filter6_dd_20544_55390)"><path d="M189.387 147.905C189.387 144.902 191.821 142.468 194.824 142.468H271.85C274.853 142.468 277.287 144.902 277.287 147.905V219.494C277.287 222.497 274.853 224.931 271.85 224.931H194.824C191.821 224.931 189.387 222.497 189.387 219.494V147.905Z" fill="#C6DBFF"></path><path fill-rule="evenodd" clip-rule="evenodd" d="M271.85 146.999H194.824C194.323 146.999 193.918 147.404 193.918 147.905V219.494C193.918 219.994 194.323 220.4 194.824 220.4H271.85C272.35 220.4 272.756 219.994 272.756 219.494V147.905C272.756 147.404 272.35 146.999 271.85 146.999ZM194.824 142.468C191.821 142.468 189.387 144.902 189.387 147.905V219.494C189.387 222.497 191.821 224.931 194.824 224.931H271.85C274.853 224.931 277.287 222.497 277.287 219.494V147.905C277.287 144.902 274.853 142.468 271.85 142.468H194.824Z" fill="#3D7FFC"></path><path fill-rule="evenodd" clip-rule="evenodd" d="M250.601 176.993L277.226 198.267C277.812 198.735 277.908 199.59 277.439 200.177C276.97 200.763 276.115 200.859 275.529 200.39L250.556 180.438L229.859 196.123L243.497 206.637C244.091 207.095 244.202 207.949 243.743 208.543C243.285 209.138 242.432 209.248 241.837 208.79L214.032 187.354L192.817 200.484C192.179 200.879 191.341 200.682 190.946 200.044C190.551 199.405 190.748 198.568 191.386 198.173L214.201 184.052L227.628 194.403L250.601 176.993Z" fill="white"></path><path fill-rule="evenodd" clip-rule="evenodd" d="M236.518 175.091C236.518 180.096 232.461 184.153 227.456 184.153C222.452 184.153 218.395 180.096 218.395 175.091C218.395 170.086 222.452 166.029 227.456 166.029C232.461 166.029 236.518 170.086 236.518 175.091ZM227.456 181.434C230.96 181.434 233.8 178.594 233.8 175.091C233.8 171.588 230.96 168.748 227.456 168.748C223.953 168.748 221.113 171.588 221.113 175.091C221.113 178.594 223.953 181.434 227.456 181.434Z" fill="white"></path></g><path fill-rule="evenodd" clip-rule="evenodd" d="M271.85 147H194.824C194.323 147 193.918 147.405 193.918 147.906V219.495C193.918 219.995 194.323 220.401 194.824 220.401H271.85C272.35 220.401 272.756 219.995 272.756 219.495V147.906C272.756 147.405 272.35 147 271.85 147ZM194.824 142.469C191.821 142.469 189.387 144.903 189.387 147.906V219.495C189.387 222.498 191.821 224.932 194.824 224.932H271.85C274.853 224.932 277.287 222.498 277.287 219.495V147.906C277.287 144.903 274.853 142.469 271.85 142.469H194.824Z" fill="#3D7FFC"></path><path d="M377.28 305.795C377.28 303.163 375.754 301.428 373.332 300.352L371.448 299.545L371.568 294.76C372.674 294.909 374.05 295.627 375.067 296.763L376.921 293.803C375.725 292.368 373.691 291.53 371.897 291.381L371.927 289.706H369.774L369.714 291.321C368.099 291.47 366.544 291.979 365.527 292.876C364.421 293.833 363.554 295.238 363.554 297.212C363.554 299.664 364.989 300.98 365.647 301.488C366.305 302.027 367.202 302.475 368.338 302.954L369.355 303.372L369.265 308.366C367.979 308.336 365.826 307.29 364.959 305.914L362.746 308.905C364.241 310.789 366.693 311.865 368.936 311.955L368.876 313.54H371.03L371.089 311.895C372.226 311.805 373.93 311.237 374.977 310.4C376.143 309.473 377.28 307.918 377.28 305.795ZM369.684 294.73L369.594 298.887L369.265 298.737C368.518 298.378 367.74 297.84 367.74 296.734C367.74 295.567 368.548 294.82 369.684 294.73ZM373.153 306.363C373.153 307.529 372.076 308.336 371.149 308.426L371.239 303.97L371.717 304.21C372.614 304.658 373.153 305.226 373.153 306.363Z" fill="#3D7FFC"></path><g opacity="0.4"><path d="M400.566 167.848L314.811 167.844C313.508 167.854 312.261 168.438 311.341 169.471C310.42 170.506 309.904 171.909 309.906 173.37V212.782L317.961 208.738L400.617 208.743C401.924 208.741 403.177 208.158 404.101 207.123C405.027 206.09 405.549 204.688 405.554 203.224V173.374C405.55 171.908 405.027 170.504 404.101 169.468C403.636 168.95 403.085 168.54 402.478 168.262C401.871 167.984 401.222 167.844 400.566 167.848Z" fill="#B8C4D0"></path><path fill-rule="evenodd" clip-rule="evenodd" d="M354.434 181.887C354.434 180.136 355.854 178.716 357.605 178.716H388.367C390.118 178.716 391.538 180.136 391.538 181.887C391.538 183.639 390.118 185.059 388.367 185.059H357.605C355.854 185.059 354.434 183.639 354.434 181.887Z" fill="white"></path><path fill-rule="evenodd" clip-rule="evenodd" d="M355.293 195.779C355.293 194.027 356.713 192.607 358.465 192.607H375.78C377.532 192.607 378.952 194.027 378.952 195.779C378.952 197.531 377.532 198.951 375.78 198.951H358.465C356.713 198.951 355.293 197.531 355.293 195.779Z" fill="white"></path><path d="M400.566 219.796L314.811 219.791C313.508 219.801 312.261 220.385 311.341 221.418C310.42 222.453 309.904 223.856 309.906 225.317V259.369L317.961 255.326L400.617 255.331C401.924 255.328 403.177 254.746 404.101 253.711C405.027 252.678 405.549 251.276 405.554 249.812V225.322C405.55 223.856 405.027 222.451 404.101 221.416C403.636 220.898 403.085 220.488 402.478 220.21C401.871 219.932 401.222 219.791 400.566 219.796Z" fill="#B8C4D0"></path><path fill-rule="evenodd" clip-rule="evenodd" d="M354.434 237.069C354.434 235.317 355.854 233.897 357.605 233.897L388.367 233.897C390.118 233.897 391.538 235.317 391.538 237.069C391.538 238.821 390.118 240.241 388.367 240.241L357.605 240.241C355.854 240.241 354.434 238.821 354.434 237.069Z" fill="white"></path><path d="M343.779 188.044C343.779 194.647 338.426 200 331.823 200C325.22 200 319.867 194.647 319.867 188.044C319.867 181.441 325.22 176.088 331.823 176.088C338.426 176.088 343.779 181.441 343.779 188.044Z" fill="white"></path><path d="M343.779 237.519C343.779 244.123 338.426 249.475 331.823 249.475C325.22 249.475 319.867 244.123 319.867 237.519C319.867 230.916 325.22 225.563 331.823 225.563C338.426 225.563 343.779 230.916 343.779 237.519Z" fill="white"></path></g><path opacity="0.4" fill-rule="evenodd" clip-rule="evenodd" d="M49.8164 295.615C49.8164 293.113 51.845 291.084 54.3473 291.084H144.966C147.468 291.084 149.497 293.113 149.497 295.615C149.497 298.117 147.468 300.146 144.966 300.146H54.3473C51.845 300.146 49.8164 298.117 49.8164 295.615Z" fill="#B8C4D0"></path><path opacity="0.4" fill-rule="evenodd" clip-rule="evenodd" d="M49.8164 312.832C49.8164 310.329 51.845 308.301 54.3473 308.301H121.405C123.908 308.301 125.936 310.329 125.936 312.832C125.936 315.334 123.908 317.363 121.405 317.363H54.3473C51.845 317.363 49.8164 315.334 49.8164 312.832Z" fill="#B8C4D0"></path><path d="M115.98 245.322L96.2709 256.701L96.2709 233.942L115.98 245.322Z" fill="white"></path><path d="M434.953 97.1615C434.953 92.1568 439.01 88.0996 444.015 88.0996H459.42C464.425 88.0996 468.482 92.1568 468.482 97.1615V112.567C468.482 117.571 464.425 121.629 459.42 121.629H444.015C439.01 121.629 434.953 117.571 434.953 112.567V97.1615Z" fill="white"></path><path fill-rule="evenodd" clip-rule="evenodd" d="M459.42 92.6305H444.015C441.513 92.6305 439.484 94.6591 439.484 97.1615V112.567C439.484 115.069 441.513 117.098 444.015 117.098H459.42C461.923 117.098 463.951 115.069 463.951 112.567V97.1615C463.951 94.6591 461.923 92.6305 459.42 92.6305ZM444.015 88.0996C439.01 88.0996 434.953 92.1568 434.953 97.1615V112.567C434.953 117.571 439.01 121.629 444.015 121.629H459.42C464.425 121.629 468.482 117.571 468.482 112.567V97.1615C468.482 92.1567 464.425 88.0996 459.42 88.0996H444.015Z" fill="#3D7FFC"></path><path fill-rule="evenodd" clip-rule="evenodd" d="M476.781 87.219C477.677 88.0922 477.696 89.5265 476.822 90.4226L457.221 110.54C456.795 110.978 456.209 111.224 455.598 111.224C454.987 111.224 454.402 110.978 453.976 110.54L445.264 101.599C444.391 100.703 444.409 99.2685 445.306 98.3954C446.202 97.5222 447.636 97.5408 448.509 98.437L455.598 105.713L473.577 87.2607C474.45 86.3645 475.885 86.3459 476.781 87.219Z" fill="#091B36"></path><path d="M454.895 269.338C454.895 264.334 458.952 260.276 463.956 260.276H479.362C484.366 260.276 488.423 264.334 488.423 269.338V284.743C488.423 289.748 484.366 293.805 479.362 293.805H463.956C458.952 293.805 454.895 289.748 454.895 284.743V269.338Z" fill="white"></path><path fill-rule="evenodd" clip-rule="evenodd" d="M479.362 264.807H463.956C461.454 264.807 459.425 266.836 459.425 269.338V284.743C459.425 287.246 461.454 289.274 463.956 289.274H479.362C481.864 289.274 483.893 287.246 483.893 284.743V269.338C483.893 266.836 481.864 264.807 479.362 264.807ZM463.956 260.276C458.952 260.276 454.895 264.334 454.895 269.338V284.743C454.895 289.748 458.952 293.805 463.956 293.805H479.362C484.366 293.805 488.423 289.748 488.423 284.743V269.338C488.423 264.334 484.366 260.276 479.362 260.276H463.956Z" fill="#3D7FFC"></path><path fill-rule="evenodd" clip-rule="evenodd" d="M496.722 259.396C497.618 260.269 497.637 261.703 496.764 262.599L477.162 282.717C476.736 283.154 476.151 283.401 475.54 283.401C474.929 283.401 474.344 283.154 473.917 282.717L465.205 273.776C464.332 272.88 464.351 271.445 465.247 270.572C466.143 269.699 467.577 269.718 468.451 270.614L475.54 277.889L493.519 259.437C494.392 258.541 495.826 258.523 496.722 259.396Z" fill="#091B36"></path><path d="M259.148 135.22C259.148 130.215 263.206 126.158 268.21 126.158H283.616C288.62 126.158 292.677 130.215 292.677 135.22V150.625C292.677 155.63 288.62 159.687 283.616 159.687H268.21C263.206 159.687 259.148 155.63 259.148 150.625V135.22Z" fill="white"></path><path fill-rule="evenodd" clip-rule="evenodd" d="M283.616 130.689H268.21C265.708 130.689 263.679 132.718 263.679 135.22V150.625C263.679 153.128 265.708 155.156 268.21 155.156H283.616C286.118 155.156 288.146 153.128 288.146 150.625V135.22C288.146 132.718 286.118 130.689 283.616 130.689ZM268.21 126.158C263.206 126.158 259.148 130.215 259.148 135.22V150.625C259.148 155.63 263.206 159.687 268.21 159.687H283.616C288.62 159.687 292.677 155.63 292.677 150.625V135.22C292.677 130.215 288.62 126.158 283.616 126.158H268.21Z" fill="#3D7FFC"></path><path fill-rule="evenodd" clip-rule="evenodd" d="M300.976 125.278C301.872 126.151 301.891 127.585 301.018 128.481L281.416 148.599C280.99 149.036 280.405 149.283 279.794 149.283C279.183 149.283 278.597 149.036 278.171 148.599L269.459 139.658C268.586 138.761 268.605 137.327 269.501 136.454C270.397 135.581 271.831 135.599 272.704 136.496L279.794 143.771L297.773 125.319C298.646 124.423 300.08 124.404 300.976 125.278Z" fill="#091B36"></path><path d="M287.238 291.994C287.238 286.99 291.295 282.933 296.3 282.933H311.705C316.71 282.933 320.767 286.99 320.767 291.994V307.4C320.767 312.404 316.71 316.462 311.705 316.462H296.3C291.295 316.462 287.238 312.404 287.238 307.4V291.994Z" fill="white"></path><path fill-rule="evenodd" clip-rule="evenodd" d="M311.705 287.464H296.3C293.798 287.464 291.769 289.492 291.769 291.994V307.4C291.769 309.902 293.798 311.931 296.3 311.931H311.705C314.208 311.931 316.236 309.902 316.236 307.4V291.994C316.236 289.492 314.208 287.464 311.705 287.464ZM296.3 282.933C291.295 282.933 287.238 286.99 287.238 291.994V307.4C287.238 312.404 291.295 316.462 296.3 316.462H311.705C316.71 316.462 320.767 312.404 320.767 307.4V291.994C320.767 286.99 316.71 282.933 311.705 282.933H296.3Z" fill="#3D7FFC"></path><path fill-rule="evenodd" clip-rule="evenodd" d="M329.066 282.052C329.962 282.925 329.981 284.36 329.108 285.256L309.506 305.373C309.08 305.811 308.495 306.057 307.884 306.057C307.272 306.057 306.687 305.811 306.261 305.373L297.549 296.432C296.676 295.536 296.695 294.102 297.591 293.228C298.487 292.355 299.921 292.374 300.794 293.27L307.884 300.546L325.862 282.094C326.736 281.198 328.17 281.179 329.066 282.052Z" fill="#091B36"></path><path d="M132.293 123.443C132.293 118.438 136.35 114.381 141.355 114.381H156.76C161.765 114.381 165.822 118.438 165.822 123.443V138.848C165.822 143.853 161.765 147.91 156.76 147.91H141.355C136.35 147.91 132.293 143.853 132.293 138.848V123.443Z" fill="white"></path><path fill-rule="evenodd" clip-rule="evenodd" d="M156.76 118.912H141.355C138.852 118.912 136.824 120.94 136.824 123.443V138.848C136.824 141.35 138.852 143.379 141.355 143.379H156.76C159.262 143.379 161.291 141.35 161.291 138.848V123.443C161.291 120.94 159.262 118.912 156.76 118.912ZM141.355 114.381C136.35 114.381 132.293 118.438 132.293 123.443V138.848C132.293 143.853 136.35 147.91 141.355 147.91H156.76C161.765 147.91 165.822 143.853 165.822 138.848V123.443C165.822 118.438 161.765 114.381 156.76 114.381H141.355Z" fill="#3D7FFC"></path><path fill-rule="evenodd" clip-rule="evenodd" d="M174.121 113.5C175.017 114.373 175.035 115.808 174.162 116.704L154.561 136.821C154.134 137.259 153.549 137.506 152.938 137.506C152.327 137.506 151.742 137.259 151.316 136.821L142.604 127.88C141.731 126.984 141.749 125.55 142.645 124.677C143.542 123.803 144.976 123.822 145.849 124.718L152.938 131.994L170.917 113.542C171.79 112.646 173.225 112.627 174.121 113.5Z" fill="#091B36"></path><path d="M132.293 207.712C132.293 202.708 136.35 198.65 141.355 198.65H156.76C161.765 198.65 165.822 202.708 165.822 207.712V223.117C165.822 228.122 161.765 232.179 156.76 232.179H141.355C136.35 232.179 132.293 228.122 132.293 223.117V207.712Z" fill="white"></path><path fill-rule="evenodd" clip-rule="evenodd" d="M156.76 203.181H141.355C138.852 203.181 136.824 205.21 136.824 207.712V223.117C136.824 225.62 138.852 227.648 141.355 227.648H156.76C159.262 227.648 161.291 225.62 161.291 223.117V207.712C161.291 205.21 159.262 203.181 156.76 203.181ZM141.355 198.65C136.35 198.65 132.293 202.708 132.293 207.712V223.117C132.293 228.122 136.35 232.179 141.355 232.179H156.76C161.765 232.179 165.822 228.122 165.822 223.117V207.712C165.822 202.708 161.765 198.65 156.76 198.65H141.355Z" fill="#B8C4D0"></path><path fill-rule="evenodd" clip-rule="evenodd" d="M157.991 206.395C158.72 207.081 158.755 208.228 158.069 208.957L143.57 224.362C142.884 225.091 141.737 225.126 141.008 224.44C140.279 223.754 140.244 222.607 140.93 221.878L155.429 206.473C156.115 205.744 157.262 205.709 157.991 206.395Z" fill="#B8C4D0"></path><path fill-rule="evenodd" clip-rule="evenodd" d="M141.017 206.395C140.288 207.081 140.253 208.228 140.939 208.957L155.438 224.362C156.124 225.091 157.271 225.126 158 224.44C158.729 223.754 158.764 222.607 158.078 221.878L143.579 206.473C142.893 205.744 141.746 205.709 141.017 206.395Z" fill="#B8C4D0"></path><path d="M395.992 204.997C395.992 199.993 400.049 195.936 405.054 195.936H420.459C425.464 195.936 429.521 199.993 429.521 204.997V220.403C429.521 225.407 425.464 229.464 420.459 229.464H405.054C400.049 229.464 395.992 225.407 395.992 220.403V204.997Z" fill="white"></path><path fill-rule="evenodd" clip-rule="evenodd" d="M420.459 200.466H405.054C402.552 200.466 400.523 202.495 400.523 204.997V220.403C400.523 222.905 402.552 224.934 405.054 224.934H420.459C422.962 224.934 424.99 222.905 424.99 220.403V204.997C424.99 202.495 422.962 200.466 420.459 200.466ZM405.054 195.936C400.049 195.936 395.992 199.993 395.992 204.997V220.403C395.992 225.407 400.049 229.464 405.054 229.464H420.459C425.464 229.464 429.521 225.407 429.521 220.403V204.997C429.521 199.993 425.464 195.936 420.459 195.936H405.054Z" fill="#B8C4D0"></path><path fill-rule="evenodd" clip-rule="evenodd" d="M421.69 203.68C422.419 204.366 422.454 205.513 421.768 206.242L407.269 221.647C406.583 222.376 405.436 222.411 404.707 221.725C403.978 221.039 403.943 219.892 404.629 219.163L419.128 203.758C419.814 203.029 420.961 202.994 421.69 203.68Z" fill="#B8C4D0"></path><path fill-rule="evenodd" clip-rule="evenodd" d="M404.716 203.68C403.987 204.366 403.952 205.513 404.638 206.242L419.137 221.647C419.823 222.376 420.97 222.411 421.699 221.725C422.428 221.039 422.463 219.892 421.777 219.163L407.278 203.758C406.592 203.029 405.445 202.994 404.716 203.68Z" fill="#B8C4D0"></path></g><g filter="url(#filter7_dd_20544_55390)"><rect x="102.414" y="147.005" width="392.497" height="275.25" rx="10" fill="white"></rect></g><path d="M102.414 157.005C102.414 151.482 106.891 147.005 112.414 147.005H484.793C490.316 147.005 494.793 151.482 494.793 157.005V167.847H102.414V157.005Z" fill="#000C36"></path><path d="M119.023 157.882C119.023 159.868 117.384 161.506 115.398 161.506C113.412 161.506 111.773 159.868 111.773 157.882C111.773 155.895 113.412 154.257 115.398 154.257C117.384 154.257 119.023 155.895 119.023 157.882Z" fill="#F66058"></path><path d="M133.39 157.882C133.39 159.868 131.752 161.506 129.765 161.506C127.779 161.506 126.141 159.868 126.141 157.882C126.141 155.895 127.779 154.257 129.765 154.257C131.801 154.257 133.39 155.895 133.39 157.882Z" fill="#F9BD2E"></path><path d="M148.109 157.882C148.109 159.868 146.47 161.506 144.484 161.506C142.498 161.506 140.859 159.868 140.859 157.882C140.859 155.895 142.498 154.257 144.484 154.257C146.47 154.257 148.109 155.895 148.109 157.882Z" fill="#3CC840"></path><rect x="102.414" y="167.847" width="392.379" height="27.1856" fill="#EDF1F6"></rect><path opacity="0.7" d="M102.395 233.089H494.774V271.149H102.395V233.089Z" fill="#F1F6FB"></path><path opacity="0.7" d="M102.395 309.212H494.774V346.366H102.395V309.212Z" fill="#F1F6FB"></path><path opacity="0.7" d="M102.395 384.424H494.774V412.484C494.774 418.007 490.297 422.484 484.774 422.484H112.395C106.872 422.484 102.395 418.007 102.395 412.484V384.424Z" fill="#F1F6FB"></path><path opacity="0.7" d="M102.395 271.147H494.774V309.207H102.395V271.147Z" fill="white"></path><path opacity="0.7" d="M102.395 346.365H494.774V384.425H102.395V346.365Z" fill="white"></path><path d="M111.461 176.98C111.461 175.939 112.305 175.095 113.346 175.095H124.028C125.069 175.095 125.913 175.939 125.913 176.98V187.661C125.913 188.702 125.069 189.546 124.028 189.546H113.346C112.305 189.546 111.461 188.702 111.461 187.661V176.98Z" fill="#60BA82"></path><path d="M118.989 183.198L121.019 186.653H123.023L120.062 182.18L122.829 177.982H120.851L118.976 181.112L117.102 177.982H115.124L117.89 182.167L114.93 186.653H116.921L118.989 183.198Z" fill="white"></path><line x1="444.293" y1="215.592" x2="461.854" y2="215.592" stroke="#76A5FF" stroke-width="6" stroke-linecap="round"></line><path d="M432.245 217.53C432.245 215.629 431.104 214.376 429.292 213.598L427.882 213.015L427.972 209.558C428.8 209.666 429.829 210.185 430.59 211.006L431.977 208.867C431.082 207.83 429.56 207.225 428.218 207.117L428.24 205.907H426.629L426.584 207.074C425.376 207.182 424.213 207.549 423.452 208.197C422.624 208.888 421.975 209.904 421.975 211.33C421.975 213.101 423.049 214.052 423.541 214.419C424.034 214.808 424.705 215.132 425.555 215.477L426.316 215.78L426.249 219.387C425.287 219.366 423.676 218.61 423.027 217.616L421.371 219.776C422.49 221.137 424.325 221.915 426.003 221.98L425.958 223.125H427.569L427.614 221.937C428.464 221.872 429.739 221.461 430.522 220.856C431.395 220.187 432.245 219.063 432.245 217.53ZM426.562 209.537L426.495 212.539L426.249 212.431C425.689 212.172 425.108 211.783 425.108 210.984C425.108 210.141 425.712 209.601 426.562 209.537ZM429.158 217.94C429.158 218.783 428.352 219.366 427.658 219.431L427.726 216.212L428.084 216.385C428.755 216.709 429.158 217.119 429.158 217.94Z" fill="#76A5FF"></path><path d="M59.8794 159.605C59.8794 156.919 58.3081 155.148 55.8126 154.049L53.8717 153.225L53.9949 148.34C55.1348 148.493 56.552 149.225 57.5995 150.385L59.5097 147.363C58.2773 145.898 56.1823 145.043 54.3338 144.89L54.3646 143.181H52.1464L52.0847 144.829C50.4211 144.982 48.819 145.501 47.7715 146.417C46.6316 147.394 45.7381 148.828 45.7381 150.843C45.7381 153.347 47.2169 154.69 47.8947 155.209C48.5725 155.758 49.4968 156.216 50.6675 156.705L51.715 157.132L51.6226 162.231C50.2978 162.2 48.0796 161.132 47.1861 159.727L44.9062 162.78C46.4467 164.703 48.973 165.802 51.2837 165.894L51.2221 167.512H53.4403L53.5019 165.833C54.6727 165.741 56.4288 165.161 57.5071 164.307C58.7087 163.36 59.8794 161.773 59.8794 159.605ZM52.0539 148.309L51.9615 152.553L51.6226 152.4C50.8524 152.034 50.0513 151.484 50.0513 150.355C50.0513 149.164 50.8832 148.401 52.0539 148.309ZM55.6278 160.185C55.6278 161.376 54.5186 162.2 53.5636 162.292L53.656 157.743L54.1489 157.987C55.0732 158.445 55.6278 159.025 55.6278 160.185Z" fill="#C6DBFF"></path><line x1="444.336" y1="253.646" x2="474.583" y2="253.646" stroke="#76A5FF" stroke-width="6" stroke-linecap="round"></line><path d="M432.269 255.583C432.269 253.682 431.128 252.429 429.315 251.652L427.906 251.068L427.995 247.612C428.823 247.72 429.852 248.238 430.613 249.059L432 246.921C431.105 245.884 429.584 245.279 428.241 245.171L428.264 243.961H426.653L426.608 245.127C425.4 245.236 424.236 245.603 423.475 246.251C422.648 246.942 421.999 247.957 421.999 249.383C421.999 251.155 423.073 252.105 423.565 252.473C424.057 252.861 424.728 253.185 425.579 253.531L426.339 253.833L426.272 257.441C425.31 257.42 423.699 256.663 423.05 255.67L421.395 257.83C422.513 259.191 424.348 259.969 426.026 260.034L425.981 261.179H427.592L427.637 259.99C428.487 259.926 429.763 259.515 430.546 258.91C431.419 258.24 432.269 257.117 432.269 255.583ZM426.586 247.59L426.518 250.593L426.272 250.485C425.713 250.226 425.131 249.837 425.131 249.038C425.131 248.195 425.735 247.655 426.586 247.59ZM429.181 255.994C429.181 256.836 428.376 257.42 427.682 257.484L427.749 254.266L428.107 254.438C428.778 254.762 429.181 255.173 429.181 255.994Z" fill="#76A5FF"></path><line x1="444.336" y1="292.42" x2="474.583" y2="292.42" stroke="#76A5FF" stroke-width="6" stroke-linecap="round"></line><path d="M432.269 294.358C432.269 292.457 431.128 291.204 429.315 290.426L427.906 289.843L427.995 286.386C428.823 286.494 429.852 287.013 430.613 287.834L432 285.695C431.105 284.658 429.584 284.053 428.241 283.945L428.264 282.735H426.653L426.608 283.902C425.4 284.01 424.236 284.377 423.475 285.025C422.648 285.717 421.999 286.732 421.999 288.158C421.999 289.929 423.073 290.88 423.565 291.247C424.057 291.636 424.728 291.96 425.579 292.305L426.339 292.608L426.272 296.216C425.31 296.194 423.699 295.438 423.05 294.444L421.395 296.604C422.513 297.965 424.348 298.743 426.026 298.808L425.981 299.953H427.592L427.637 298.765C428.487 298.7 429.763 298.289 430.546 297.685C431.419 297.015 432.269 295.892 432.269 294.358ZM426.586 286.365L426.518 289.367L426.272 289.259C425.713 289 425.131 288.611 425.131 287.812C425.131 286.97 425.735 286.429 426.586 286.365ZM429.181 294.768C429.181 295.611 428.376 296.194 427.682 296.259L427.749 293.04L428.107 293.213C428.778 293.537 429.181 293.947 429.181 294.768Z" fill="#76A5FF"></path><line x1="444.336" y1="328.861" x2="456.46" y2="328.861" stroke="#76A5FF" stroke-width="6" stroke-linecap="round"></line><path d="M432.269 330.799C432.269 328.898 431.128 327.645 429.315 326.867L427.906 326.284L427.995 322.828C428.823 322.936 429.852 323.454 430.613 324.275L432 322.136C431.105 321.099 429.584 320.495 428.241 320.387L428.264 319.177H426.653L426.608 320.343C425.4 320.451 424.236 320.819 423.475 321.467C422.648 322.158 421.999 323.173 421.999 324.599C421.999 326.371 423.073 327.321 423.565 327.688C424.057 328.077 424.728 328.401 425.579 328.747L426.339 329.049L426.272 332.657C425.31 332.635 423.699 331.879 423.05 330.886L421.395 333.046C422.513 334.407 424.348 335.185 426.026 335.249L425.981 336.394H427.592L427.637 335.206C428.487 335.141 429.763 334.731 430.546 334.126C431.419 333.456 432.269 332.333 432.269 330.799ZM426.586 322.806L426.518 325.809L426.272 325.701C425.713 325.442 425.131 325.053 425.131 324.253C425.131 323.411 425.735 322.871 426.586 322.806ZM429.181 331.21C429.181 332.052 428.376 332.635 427.682 332.7L427.749 329.481L428.107 329.654C428.778 329.978 429.181 330.389 429.181 331.21Z" fill="#76A5FF"></path><line x1="444.336" y1="366.921" x2="469.146" y2="366.921" stroke="#76A5FF" stroke-width="6" stroke-linecap="round"></line><path d="M432.269 368.859C432.269 366.958 431.128 365.705 429.315 364.927L427.906 364.344L427.995 360.887C428.823 360.995 429.852 361.514 430.613 362.335L432 360.196C431.105 359.159 429.584 358.554 428.241 358.446L428.264 357.236H426.653L426.608 358.403C425.4 358.511 424.236 358.878 423.475 359.526C422.648 360.218 421.999 361.233 421.999 362.659C421.999 364.43 423.073 365.381 423.565 365.748C424.057 366.137 424.728 366.461 425.579 366.806L426.339 367.109L426.272 370.717C425.31 370.695 423.699 369.939 423.05 368.945L421.395 371.105C422.513 372.466 424.348 373.244 426.026 373.309L425.981 374.454H427.592L427.637 373.266C428.487 373.201 429.763 372.79 430.546 372.186C431.419 371.516 432.269 370.393 432.269 368.859ZM426.586 360.866L426.518 363.868L426.272 363.76C425.713 363.501 425.131 363.112 425.131 362.313C425.131 361.471 425.735 360.93 426.586 360.866ZM429.181 369.269C429.181 370.112 428.376 370.695 427.682 370.76L427.749 367.541L428.107 367.714C428.778 368.038 429.181 368.448 429.181 369.269Z" fill="#76A5FF"></path><line x1="444.336" y1="404.985" x2="474.583" y2="404.985" stroke="#76A5FF" stroke-width="6" stroke-linecap="round"></line><path d="M432.269 406.923C432.269 405.022 431.128 403.769 429.315 402.991L427.906 402.408L427.995 398.952C428.823 399.06 429.852 399.578 430.613 400.399L432 398.26C431.105 397.223 429.584 396.619 428.241 396.511L428.264 395.301H426.653L426.608 396.467C425.4 396.575 424.236 396.943 423.475 397.591C422.648 398.282 421.999 399.297 421.999 400.723C421.999 402.495 423.073 403.445 423.565 403.812C424.057 404.201 424.728 404.525 425.579 404.871L426.339 405.173L426.272 408.781C425.31 408.759 423.699 408.003 423.05 407.01L421.395 409.17C422.513 410.531 424.348 411.309 426.026 411.373L425.981 412.518H427.592L427.637 411.33C428.487 411.265 429.763 410.855 430.546 410.25C431.419 409.58 432.269 408.457 432.269 406.923ZM426.586 398.93L426.518 401.933L426.272 401.825C425.713 401.566 425.131 401.177 425.131 400.377C425.131 399.535 425.735 398.995 426.586 398.93ZM429.181 407.334C429.181 408.176 428.376 408.759 427.682 408.824L427.749 405.605L428.107 405.778C428.778 406.102 429.181 406.513 429.181 407.334Z" fill="#76A5FF"></path><path d="M40.0003 211.793C39.9042 210.966 40.4904 210.219 41.3097 210.124C42.129 210.029 42.8711 210.622 42.9672 211.448L40.0003 211.793ZM93.1764 247.002C93.786 247.564 93.8296 248.517 93.2739 249.131L84.2176 259.13C83.6618 259.744 82.7171 259.786 82.1075 259.224C81.4979 258.662 81.4543 257.709 82.01 257.096L90.0601 248.207L81.2298 240.07C80.6202 239.508 80.5765 238.555 81.1323 237.942C81.688 237.328 82.6327 237.286 83.2423 237.848L93.1764 247.002ZM42.9672 211.448C44.1775 221.86 47.1693 229.209 51.0597 234.402C54.9444 239.586 59.7928 242.71 64.8714 244.566C75.1342 248.316 86.1779 246.872 92.1012 246.609L92.2391 249.618C86.6616 249.867 74.8302 251.407 63.8591 247.398C58.3208 245.375 52.9625 241.933 48.6778 236.215C44.3987 230.504 41.2581 222.612 40.0003 211.793L42.9672 211.448Z" fill="#3D7FFC"></path><path d="M422.127 46.5726C421.321 46.7502 420.813 47.5523 420.993 48.3643C421.172 49.1763 421.971 49.6906 422.777 49.5131L422.127 46.5726ZM497.225 130.985C497.583 131.736 498.476 132.054 499.22 131.697L511.345 125.873C512.089 125.515 512.402 124.617 512.044 123.867C511.686 123.117 510.792 122.798 510.048 123.155L499.271 128.332L494.085 117.462C493.727 116.712 492.834 116.393 492.09 116.751C491.346 117.108 491.033 118.006 491.391 118.757L497.225 130.985ZM422.777 49.5131C450.315 43.4466 473.035 51.6691 486.794 67.2188C500.563 82.7796 505.518 105.854 497.161 129.835L499.983 130.841C508.672 105.908 503.573 81.6647 489.023 65.2218C474.464 48.7677 450.601 40.2999 422.127 46.5726L422.777 49.5131Z" fill="#3D7FFC"></path><line x1="224.789" y1="215.044" x2="265.58" y2="215.044" stroke="#76A5FF" stroke-width="6" stroke-linecap="round"></line><path fill-rule="evenodd" clip-rule="evenodd" d="M209.134 221.764C208.738 222.261 207.983 222.261 207.586 221.764C204.515 217.914 202.137 214.459 202.137 211.246C202.137 207.767 204.923 204.945 208.36 204.945C211.797 204.945 214.583 207.766 214.583 211.246C214.583 214.46 212.206 217.914 209.134 221.764Z" fill="#76A5FF"></path><line x1="366.219" y1="128.821" x2="429.213" y2="128.821" stroke="#C6DBFF" stroke-width="10" stroke-linecap="round"></line><path d="M346.355 138.164C346.158 138.411 345.785 138.41 345.588 138.164C343.782 135.907 342.196 133.791 341.061 131.781C339.925 129.769 339.266 127.904 339.266 126.145C339.266 122.387 342.274 119.35 345.972 119.35C349.669 119.35 352.677 122.386 352.677 126.145C352.677 127.905 352.018 129.77 350.882 131.782C349.747 133.792 348.161 135.907 346.355 138.164Z" fill="#C6DBFF" stroke="#C6DBFF"></path><line x1="131.191" y1="215.046" x2="171.982" y2="215.046" stroke="#76A5FF" stroke-width="6" stroke-linecap="round"></line><line x1="131.191" y1="252.48" x2="171.982" y2="252.48" stroke="#76A5FF" stroke-width="6" stroke-linecap="round"></line><line x1="131.191" y1="290.847" x2="171.982" y2="290.847" stroke="#76A5FF" stroke-width="6" stroke-linecap="round"></line><line x1="131.191" y1="327.346" x2="171.982" y2="327.346" stroke="#76A5FF" stroke-width="6" stroke-linecap="round"></line><line x1="131.191" y1="366.648" x2="171.982" y2="366.648" stroke="#76A5FF" stroke-width="6" stroke-linecap="round"></line><line x1="131.191" y1="405.014" x2="171.982" y2="405.014" stroke="#76A5FF" stroke-width="6" stroke-linecap="round"></line><line x1="224.789" y1="253.411" x2="255.286" y2="253.411" stroke="#76A5FF" stroke-width="6" stroke-linecap="round"></line><path fill-rule="evenodd" clip-rule="evenodd" d="M209.134 260.131C208.738 260.628 207.983 260.628 207.586 260.131C204.515 256.281 202.137 252.826 202.137 249.613C202.137 246.134 204.923 243.312 208.36 243.312C211.797 243.312 214.583 246.133 214.583 249.613C214.583 252.827 212.206 256.281 209.134 260.131Z" fill="#76A5FF"></path><line x1="224.789" y1="292.714" x2="278.682" y2="292.714" stroke="#76A5FF" stroke-width="6" stroke-linecap="round"></line><path fill-rule="evenodd" clip-rule="evenodd" d="M209.134 299.434C208.738 299.931 207.983 299.931 207.586 299.434C204.515 295.584 202.137 292.129 202.137 288.916C202.137 285.437 204.923 282.615 208.36 282.615C211.797 282.615 214.583 285.436 214.583 288.916C214.583 292.13 212.206 295.584 209.134 299.434Z" fill="#76A5FF"></path><line x1="224.789" y1="327.346" x2="267.452" y2="327.346" stroke="#76A5FF" stroke-width="6" stroke-linecap="round"></line><path fill-rule="evenodd" clip-rule="evenodd" d="M209.134 334.066C208.738 334.563 207.983 334.563 207.586 334.066C204.515 330.215 202.137 326.76 202.137 323.547C202.137 320.069 204.923 317.247 208.36 317.247C211.797 317.247 214.583 320.068 214.583 323.547C214.583 326.762 212.206 330.216 209.134 334.066Z" fill="#76A5FF"></path><line x1="224.789" y1="367.579" x2="252.479" y2="367.579" stroke="#76A5FF" stroke-width="6" stroke-linecap="round"></line><path fill-rule="evenodd" clip-rule="evenodd" d="M209.134 374.299C208.738 374.796 207.983 374.796 207.586 374.299C204.515 370.449 202.137 366.994 202.137 363.781C202.137 360.302 204.923 357.48 208.36 357.48C211.797 357.48 214.583 360.301 214.583 363.781C214.583 366.995 212.206 370.449 209.134 374.299Z" fill="#76A5FF"></path><line x1="224.789" y1="405.021" x2="263.709" y2="405.021" stroke="#76A5FF" stroke-width="6" stroke-linecap="round"></line><path fill-rule="evenodd" clip-rule="evenodd" d="M209.134 411.741C208.738 412.238 207.983 412.238 207.586 411.741C204.515 407.89 202.137 404.435 202.137 401.222C202.137 397.744 204.923 394.922 208.36 394.922C211.797 394.922 214.583 397.742 214.583 401.222C214.583 404.437 212.206 407.89 209.134 411.741Z" fill="#76A5FF"></path><path d="M306.582 218.819V208.469H304.152V218.819H306.582ZM315.883 218.819V214.454C315.883 212.669 315.328 211.289 313.183 211.289C312.118 211.289 311.443 211.829 311.038 212.489H311.008L311.023 211.424H308.623V218.819H311.023V215.159C311.023 214.094 311.308 213.254 312.343 213.254C313.333 213.254 313.483 213.989 313.483 214.964V218.819H315.883ZM321.567 215.729V213.854H317.382V215.729H321.567ZM329.395 218.099L328.825 216.284C328.825 216.284 328.075 217.004 326.95 217.004C325.825 217.004 325.09 216.269 325.09 215.099C325.09 213.929 325.9 213.224 326.92 213.224C327.955 213.224 328.615 213.719 328.825 213.884L329.35 212.069C329.35 212.069 328.495 211.289 326.605 211.289C324.58 211.289 322.675 212.669 322.675 215.144C322.675 217.604 324.55 218.984 326.575 218.984C328.54 218.984 329.32 218.159 329.395 218.099ZM338.416 215.144C338.416 212.759 336.661 211.289 334.321 211.289C331.981 211.289 330.211 212.759 330.211 215.144C330.211 217.529 331.981 218.984 334.321 218.984C336.661 218.984 338.416 217.529 338.416 215.144ZM336.001 215.099C336.001 216.194 335.371 217.019 334.321 217.019C333.256 217.019 332.641 216.194 332.641 215.099C332.641 214.004 333.256 213.179 334.321 213.179C335.371 213.179 336.001 214.004 336.001 215.099ZM347.142 218.819V214.454C347.142 212.669 346.587 211.289 344.442 211.289C343.377 211.289 342.702 211.829 342.297 212.489H342.267L342.282 211.424H339.882V218.819H342.282V215.159C342.282 214.094 342.567 213.254 343.602 213.254C344.592 213.254 344.742 213.989 344.742 214.964V218.819H347.142ZM353.396 213.254V211.439H351.761V209.429H349.346V211.439H348.296V213.254H349.346V216.119C349.346 217.244 349.496 217.859 349.871 218.294C350.246 218.729 350.816 218.984 351.671 218.984C352.541 218.984 353.201 218.789 353.381 218.744L353.261 216.869C353.261 216.869 352.916 217.004 352.541 217.004C352.226 217.004 352.076 216.944 351.971 216.824C351.851 216.689 351.761 216.539 351.761 215.909V213.254H353.396ZM359.657 211.424C359.657 211.424 359.402 211.289 358.907 211.289C358.112 211.289 357.497 211.664 357.077 212.474H357.047L357.062 211.424H354.662V218.819H357.062V215.534C357.062 214.709 357.257 214.229 357.437 213.989C357.617 213.749 358.007 213.449 358.547 213.449C358.967 213.449 359.282 213.554 359.417 213.629H359.522L359.657 211.424ZM367.099 218.819V214.649C367.099 213.404 366.784 212.684 366.214 212.144C365.629 211.604 364.834 211.289 363.454 211.289C362.074 211.289 360.919 211.724 360.289 212.039L360.919 213.599C361.294 213.359 362.239 212.939 363.184 212.939C364.144 212.939 364.699 213.344 364.699 214.124V214.289L362.839 214.364C361.474 214.424 359.959 214.979 359.959 216.629C359.959 218.279 361.339 218.984 362.644 218.984C363.844 218.984 364.444 218.354 364.759 218.039L364.804 218.819H367.099ZM364.714 215.564V216.779C364.564 217.034 364.129 217.454 363.484 217.454C362.824 217.454 362.359 217.109 362.359 216.539C362.359 215.984 362.794 215.669 363.529 215.639L364.714 215.564ZM375.17 218.099L374.6 216.284C374.6 216.284 373.85 217.004 372.725 217.004C371.6 217.004 370.865 216.269 370.865 215.099C370.865 213.929 371.675 213.224 372.695 213.224C373.73 213.224 374.39 213.719 374.6 213.884L375.125 212.069C375.125 212.069 374.27 211.289 372.38 211.289C370.355 211.289 368.45 212.669 368.45 215.144C368.45 217.604 370.325 218.984 372.35 218.984C374.315 218.984 375.095 218.159 375.17 218.099ZM380.831 213.254V211.439H379.196V209.429H376.781V211.439H375.731V213.254H376.781V216.119C376.781 217.244 376.931 217.859 377.306 218.294C377.681 218.729 378.251 218.984 379.106 218.984C379.976 218.984 380.636 218.789 380.816 218.744L380.696 216.869C380.696 216.869 380.351 217.004 379.976 217.004C379.661 217.004 379.511 216.944 379.406 216.824C379.286 216.689 379.196 216.539 379.196 215.909V213.254H380.831Z" fill="#76A5FF"></path><path d="M306.582 407.852V397.502H304.152V407.852H306.582ZM315.883 407.852V403.487C315.883 401.702 315.328 400.322 313.183 400.322C312.118 400.322 311.443 400.862 311.038 401.522H311.008L311.023 400.457H308.623V407.852H311.023V404.192C311.023 403.127 311.308 402.287 312.343 402.287C313.333 402.287 313.483 403.022 313.483 403.997V407.852H315.883ZM321.567 404.762V402.887H317.382V404.762H321.567ZM329.395 407.132L328.825 405.317C328.825 405.317 328.075 406.037 326.95 406.037C325.825 406.037 325.09 405.302 325.09 404.132C325.09 402.962 325.9 402.257 326.92 402.257C327.955 402.257 328.615 402.752 328.825 402.917L329.35 401.102C329.35 401.102 328.495 400.322 326.605 400.322C324.58 400.322 322.675 401.702 322.675 404.177C322.675 406.637 324.55 408.017 326.575 408.017C328.54 408.017 329.32 407.192 329.395 407.132ZM338.416 404.177C338.416 401.792 336.661 400.322 334.321 400.322C331.981 400.322 330.211 401.792 330.211 404.177C330.211 406.562 331.981 408.017 334.321 408.017C336.661 408.017 338.416 406.562 338.416 404.177ZM336.001 404.132C336.001 405.227 335.371 406.052 334.321 406.052C333.256 406.052 332.641 405.227 332.641 404.132C332.641 403.037 333.256 402.212 334.321 402.212C335.371 402.212 336.001 403.037 336.001 404.132ZM347.142 407.852V403.487C347.142 401.702 346.587 400.322 344.442 400.322C343.377 400.322 342.702 400.862 342.297 401.522H342.267L342.282 400.457H339.882V407.852H342.282V404.192C342.282 403.127 342.567 402.287 343.602 402.287C344.592 402.287 344.742 403.022 344.742 403.997V407.852H347.142ZM353.396 402.287V400.472H351.761V398.462H349.346V400.472H348.296V402.287H349.346V405.152C349.346 406.277 349.496 406.892 349.871 407.327C350.246 407.762 350.816 408.017 351.671 408.017C352.541 408.017 353.201 407.822 353.381 407.777L353.261 405.902C353.261 405.902 352.916 406.037 352.541 406.037C352.226 406.037 352.076 405.977 351.971 405.857C351.851 405.722 351.761 405.572 351.761 404.942V402.287H353.396ZM359.657 400.457C359.657 400.457 359.402 400.322 358.907 400.322C358.112 400.322 357.497 400.697 357.077 401.507H357.047L357.062 400.457H354.662V407.852H357.062V404.567C357.062 403.742 357.257 403.262 357.437 403.022C357.617 402.782 358.007 402.482 358.547 402.482C358.967 402.482 359.282 402.587 359.417 402.662H359.522L359.657 400.457ZM367.099 407.852V403.682C367.099 402.437 366.784 401.717 366.214 401.177C365.629 400.637 364.834 400.322 363.454 400.322C362.074 400.322 360.919 400.757 360.289 401.072L360.919 402.632C361.294 402.392 362.239 401.972 363.184 401.972C364.144 401.972 364.699 402.377 364.699 403.157V403.322L362.839 403.397C361.474 403.457 359.959 404.012 359.959 405.662C359.959 407.312 361.339 408.017 362.644 408.017C363.844 408.017 364.444 407.387 364.759 407.072L364.804 407.852H367.099ZM364.714 404.597V405.812C364.564 406.067 364.129 406.487 363.484 406.487C362.824 406.487 362.359 406.142 362.359 405.572C362.359 405.017 362.794 404.702 363.529 404.672L364.714 404.597ZM375.17 407.132L374.6 405.317C374.6 405.317 373.85 406.037 372.725 406.037C371.6 406.037 370.865 405.302 370.865 404.132C370.865 402.962 371.675 402.257 372.695 402.257C373.73 402.257 374.39 402.752 374.6 402.917L375.125 401.102C375.125 401.102 374.27 400.322 372.38 400.322C370.355 400.322 368.45 401.702 368.45 404.177C368.45 406.637 370.325 408.017 372.35 408.017C374.315 408.017 375.095 407.192 375.17 407.132ZM380.831 402.287V400.472H379.196V398.462H376.781V400.472H375.731V402.287H376.781V405.152C376.781 406.277 376.931 406.892 377.306 407.327C377.681 407.762 378.251 408.017 379.106 408.017C379.976 408.017 380.636 407.822 380.816 407.777L380.696 405.902C380.696 405.902 380.351 406.037 379.976 406.037C379.661 406.037 379.511 405.977 379.406 405.857C379.286 405.722 379.196 405.572 379.196 404.942V402.287H380.831Z" fill="#76A5FF"></path><path d="M310.617 247.834V245.899H304.152V256.249H306.567V252.304H310.377V250.369H306.567V247.834H310.617ZM319.689 252.574C319.689 250.189 317.934 248.719 315.594 248.719C313.254 248.719 311.484 250.189 311.484 252.574C311.484 254.959 313.254 256.414 315.594 256.414C317.934 256.414 319.689 254.959 319.689 252.574ZM317.274 252.529C317.274 253.624 316.644 254.449 315.594 254.449C314.529 254.449 313.914 253.624 313.914 252.529C313.914 251.434 314.529 250.609 315.594 250.609C316.644 250.609 317.274 251.434 317.274 252.529ZM326.15 248.854C326.15 248.854 325.895 248.719 325.4 248.719C324.605 248.719 323.99 249.094 323.57 249.904H323.54L323.555 248.854H321.155V256.249H323.555V252.964C323.555 252.139 323.75 251.659 323.93 251.419C324.11 251.179 324.5 250.879 325.04 250.879C325.46 250.879 325.775 250.984 325.91 251.059H326.015L326.15 248.854ZM334.442 252.334C334.442 250.174 332.927 248.719 330.737 248.719C328.547 248.719 326.747 250.114 326.747 252.559C326.747 255.004 328.412 256.414 330.692 256.414C332.987 256.414 333.962 255.394 334.202 255.214L333.257 253.969C332.837 254.254 331.997 254.674 331.037 254.674C330.062 254.674 329.252 254.194 329.147 253.129H334.412C334.412 253.129 334.442 252.694 334.442 252.334ZM332.207 251.764H329.162C329.192 251.059 329.702 250.279 330.692 250.279C331.697 250.279 332.192 251.089 332.207 251.764ZM342.205 255.529L341.635 253.714C341.635 253.714 340.885 254.434 339.76 254.434C338.635 254.434 337.9 253.699 337.9 252.529C337.9 251.359 338.71 250.654 339.73 250.654C340.765 250.654 341.425 251.149 341.635 251.314L342.16 249.499C342.16 249.499 341.305 248.719 339.415 248.719C337.39 248.719 335.485 250.099 335.485 252.574C335.485 255.034 337.36 256.414 339.385 256.414C341.35 256.414 342.13 255.589 342.205 255.529ZM345.916 256.249V245.899H343.516V256.249H345.916ZM355.628 252.574C355.628 250.189 353.873 248.719 351.533 248.719C349.193 248.719 347.423 250.189 347.423 252.574C347.423 254.959 349.193 256.414 351.533 256.414C353.873 256.414 355.628 254.959 355.628 252.574ZM353.213 252.529C353.213 253.624 352.583 254.449 351.533 254.449C350.468 254.449 349.853 253.624 349.853 252.529C349.853 251.434 350.468 250.609 351.533 250.609C352.583 250.609 353.213 251.434 353.213 252.529ZM362.733 253.969C362.733 253.189 362.373 252.709 362.133 252.469C361.878 252.229 361.503 252.034 361.173 251.914C360.858 251.794 360.633 251.719 360.123 251.569C359.613 251.419 359.043 251.239 359.043 250.849C359.043 250.459 359.358 250.309 359.928 250.309C360.528 250.309 361.368 250.699 361.788 251.029L362.568 249.619C362.148 249.274 361.278 248.704 359.733 248.704C358.188 248.704 356.928 249.589 356.928 251.029C356.928 252.349 357.843 252.814 358.188 252.964C358.533 253.114 358.953 253.234 359.238 253.309C359.508 253.399 360.588 253.639 360.588 254.119C360.588 254.599 360.168 254.749 359.568 254.749C358.968 254.749 357.978 254.359 357.378 253.849L356.478 255.274C357.318 256.069 358.488 256.414 359.598 256.414C360.588 256.414 361.323 256.189 361.863 255.769C362.403 255.334 362.733 254.734 362.733 253.969ZM371.421 252.334C371.421 250.174 369.906 248.719 367.716 248.719C365.526 248.719 363.726 250.114 363.726 252.559C363.726 255.004 365.391 256.414 367.671 256.414C369.966 256.414 370.941 255.394 371.181 255.214L370.236 253.969C369.816 254.254 368.976 254.674 368.016 254.674C367.041 254.674 366.231 254.194 366.126 253.129H371.391C371.391 253.129 371.421 252.694 371.421 252.334ZM369.186 251.764H366.141C366.171 251.059 366.681 250.279 367.671 250.279C368.676 250.279 369.171 251.089 369.186 251.764ZM380.698 256.249V245.899H378.298V249.754C378.058 249.394 377.308 248.719 375.958 248.719C373.813 248.719 372.463 250.384 372.463 252.559C372.463 254.734 373.813 256.414 375.958 256.414C376.948 256.414 377.833 256.039 378.388 255.289L378.433 255.274L378.418 256.249H380.698ZM378.373 252.529C378.373 253.669 377.683 254.449 376.648 254.449C375.613 254.449 374.908 253.669 374.908 252.529C374.908 251.389 375.613 250.609 376.648 250.609C377.683 250.609 378.373 251.389 378.373 252.529Z" fill="#76A5FF"></path><path d="M314.607 291.328C314.607 287.983 312.192 285.973 309.117 285.973C306.042 285.973 303.627 287.983 303.627 291.328C303.627 294.673 306.042 296.668 309.117 296.668C312.192 296.668 314.607 294.673 314.607 291.328ZM312.147 291.268C312.147 293.248 310.842 294.508 309.117 294.508C307.392 294.508 306.087 293.248 306.087 291.268C306.087 289.288 307.392 288.043 309.117 288.043C310.842 288.043 312.147 289.303 312.147 291.268ZM325.603 286.138C325.603 286.138 324.913 285.943 323.968 285.943C323.038 285.943 322.333 286.243 321.898 286.708C321.463 287.158 321.298 287.878 321.298 288.703V289.108H318.853V288.628C318.853 288.073 319.033 287.668 319.738 287.668C320.158 287.668 320.623 287.803 320.623 287.803L320.743 286.138C320.743 286.138 320.053 285.943 319.108 285.943C318.178 285.943 317.473 286.243 317.038 286.708C316.603 287.158 316.438 287.878 316.438 288.703V289.108H315.493V290.923H316.438V296.488H318.853V290.923H321.298V296.488H323.713V290.923H325.303V289.108H323.713V288.628C323.713 288.073 323.893 287.668 324.598 287.668C325.018 287.668 325.483 287.803 325.483 287.803L325.603 286.138ZM329.99 293.398V291.523H325.805V293.398H329.99ZM343.113 296.488V292.033C343.113 290.248 342.438 288.958 340.548 288.958C339.453 288.958 338.718 289.408 338.193 290.308C337.818 289.303 337.008 288.958 335.988 288.958C335.043 288.958 334.323 289.528 333.948 290.143L333.918 290.158L333.933 289.093H331.533V296.488H333.933V292.693C333.933 291.673 334.293 290.923 335.133 290.923C335.913 290.923 336.123 291.553 336.123 292.468V296.488H338.523V292.693C338.523 291.673 338.883 290.923 339.723 290.923C340.548 290.923 340.698 291.673 340.698 292.468V296.488H343.113ZM351.573 296.488V292.318C351.573 291.073 351.258 290.353 350.688 289.813C350.103 289.273 349.308 288.958 347.928 288.958C346.548 288.958 345.393 289.393 344.763 289.708L345.393 291.268C345.768 291.028 346.713 290.608 347.658 290.608C348.618 290.608 349.173 291.013 349.173 291.793V291.958L347.313 292.033C345.948 292.093 344.433 292.648 344.433 294.298C344.433 295.948 345.813 296.653 347.118 296.653C348.318 296.653 348.918 296.023 349.233 295.708L349.278 296.488H351.573ZM349.188 293.233V294.448C349.038 294.703 348.603 295.123 347.958 295.123C347.298 295.123 346.833 294.778 346.833 294.208C346.833 293.653 347.268 293.338 348.003 293.308L349.188 293.233ZM358.353 289.093C358.353 289.093 358.098 288.958 357.603 288.958C356.808 288.958 356.193 289.333 355.773 290.143H355.743L355.758 289.093H353.358V296.488H355.758V293.203C355.758 292.378 355.953 291.898 356.133 291.658C356.313 291.418 356.703 291.118 357.243 291.118C357.663 291.118 357.978 291.223 358.113 291.298H358.218L358.353 289.093ZM367.154 296.488L364.229 291.868L366.929 289.093H364.169L361.919 291.538V286.138H359.519V296.488H361.919V294.253L362.579 293.608L364.394 296.488H367.154ZM375.281 292.573C375.281 290.413 373.766 288.958 371.576 288.958C369.386 288.958 367.586 290.353 367.586 292.798C367.586 295.243 369.251 296.653 371.531 296.653C373.826 296.653 374.801 295.633 375.041 295.453L374.096 294.208C373.676 294.493 372.836 294.913 371.876 294.913C370.901 294.913 370.091 294.433 369.986 293.368H375.251C375.251 293.368 375.281 292.933 375.281 292.573ZM373.046 292.003H370.001C370.031 291.298 370.541 290.518 371.531 290.518C372.536 290.518 373.031 291.328 373.046 292.003ZM381.095 290.923V289.108H379.46V287.098H377.045V289.108H375.995V290.923H377.045V293.788C377.045 294.913 377.195 295.528 377.57 295.963C377.945 296.398 378.515 296.653 379.37 296.653C380.24 296.653 380.9 296.458 381.08 296.413L380.96 294.538C380.96 294.538 380.615 294.673 380.24 294.673C379.925 294.673 379.775 294.613 379.67 294.493C379.55 294.358 379.46 294.208 379.46 293.578V290.923H381.095Z" fill="#76A5FF"></path><path d="M313.512 331.114V320.764H311.142V325.459C311.142 326.554 311.187 327.724 311.187 327.724L306.747 320.764H304.152V331.114H306.522V326.434C306.522 325.339 306.477 324.094 306.477 324.094L311.022 331.114H313.512ZM322.812 327.199C322.812 325.039 321.297 323.584 319.107 323.584C316.917 323.584 315.117 324.979 315.117 327.424C315.117 329.869 316.782 331.279 319.062 331.279C321.357 331.279 322.332 330.259 322.572 330.079L321.627 328.834C321.207 329.119 320.367 329.539 319.407 329.539C318.432 329.539 317.622 329.059 317.517 327.994H322.782C322.782 327.994 322.812 327.559 322.812 327.199ZM320.577 326.629H317.532C317.562 325.924 318.072 325.144 319.062 325.144C320.067 325.144 320.562 325.954 320.577 326.629ZM335.59 323.719H333.16L331.855 328.444L330.43 323.719H328.465L327.04 328.444L325.735 323.719H323.305L325.735 331.114H328L329.455 326.584L330.895 331.114H333.16L335.59 323.719ZM340.558 328.024V326.149H336.373V328.024H340.558ZM346.511 325.549V323.734H344.876V321.724H342.461V323.734H341.411V325.549H342.461V328.414C342.461 329.539 342.611 330.154 342.986 330.589C343.361 331.024 343.931 331.279 344.786 331.279C345.656 331.279 346.316 331.084 346.496 331.039L346.376 329.164C346.376 329.164 346.031 329.299 345.656 329.299C345.341 329.299 345.191 329.239 345.086 329.119C344.966 328.984 344.876 328.834 344.876 328.204V325.549H346.511ZM355.547 327.439C355.547 325.054 353.792 323.584 351.452 323.584C349.112 323.584 347.342 325.054 347.342 327.439C347.342 329.824 349.112 331.279 351.452 331.279C353.792 331.279 355.547 329.824 355.547 327.439ZM353.132 327.394C353.132 328.489 352.502 329.314 351.452 329.314C350.387 329.314 349.772 328.489 349.772 327.394C349.772 326.299 350.387 325.474 351.452 325.474C352.502 325.474 353.132 326.299 353.132 327.394ZM360.853 328.024V326.149H356.668V328.024H360.853ZM315.582 346.114V341.659C315.582 339.874 314.907 338.584 313.017 338.584C311.922 338.584 311.187 339.034 310.662 339.934C310.287 338.929 309.477 338.584 308.457 338.584C307.512 338.584 306.792 339.154 306.417 339.769L306.387 339.784L306.402 338.719H304.002V346.114H306.402V342.319C306.402 341.299 306.762 340.549 307.602 340.549C308.382 340.549 308.592 341.179 308.592 342.094V346.114H310.992V342.319C310.992 341.299 311.352 340.549 312.192 340.549C313.017 340.549 313.167 341.299 313.167 342.094V346.114H315.582ZM324.042 346.114V341.944C324.042 340.699 323.727 339.979 323.157 339.439C322.572 338.899 321.777 338.584 320.397 338.584C319.017 338.584 317.862 339.019 317.232 339.334L317.862 340.894C318.237 340.654 319.182 340.234 320.127 340.234C321.087 340.234 321.642 340.639 321.642 341.419V341.584L319.782 341.659C318.417 341.719 316.902 342.274 316.902 343.924C316.902 345.574 318.282 346.279 319.587 346.279C320.787 346.279 321.387 345.649 321.702 345.334L321.747 346.114H324.042ZM321.657 342.859V344.074C321.507 344.329 321.072 344.749 320.427 344.749C319.767 344.749 319.302 344.404 319.302 343.834C319.302 343.279 319.737 342.964 320.472 342.934L321.657 342.859ZM330.823 338.719C330.823 338.719 330.568 338.584 330.073 338.584C329.278 338.584 328.663 338.959 328.243 339.769H328.213L328.228 338.719H325.828V346.114H328.228V342.829C328.228 342.004 328.423 341.524 328.603 341.284C328.783 341.044 329.173 340.744 329.713 340.744C330.133 340.744 330.448 340.849 330.583 340.924H330.688L330.823 338.719ZM339.623 346.114L336.698 341.494L339.398 338.719H336.638L334.388 341.164V335.764H331.988V346.114H334.388V343.879L335.048 343.234L336.863 346.114H339.623ZM347.75 342.199C347.75 340.039 346.235 338.584 344.045 338.584C341.855 338.584 340.055 339.979 340.055 342.424C340.055 344.869 341.72 346.279 344 346.279C346.295 346.279 347.27 345.259 347.51 345.079L346.565 343.834C346.145 344.119 345.305 344.539 344.345 344.539C343.37 344.539 342.56 344.059 342.455 342.994H347.72C347.72 342.994 347.75 342.559 347.75 342.199ZM345.515 341.629H342.47C342.5 340.924 343.01 340.144 344 340.144C345.005 340.144 345.5 340.954 345.515 341.629ZM353.564 340.549V338.734H351.929V336.724H349.514V338.734H348.464V340.549H349.514V343.414C349.514 344.539 349.664 345.154 350.039 345.589C350.414 346.024 350.984 346.279 351.839 346.279C352.709 346.279 353.369 346.084 353.549 346.039L353.429 344.164C353.429 344.164 353.084 344.299 352.709 344.299C352.394 344.299 352.244 344.239 352.139 344.119C352.019 343.984 351.929 343.834 351.929 343.204V340.549H353.564Z" fill="#76A5FF"></path><path d="M311.142 367.272C311.142 366.342 310.767 365.712 310.332 365.277C309.867 364.812 309.177 364.542 308.892 364.437C308.562 364.302 307.797 364.032 307.347 363.852C306.882 363.672 306.297 363.432 306.297 362.802C306.297 362.172 306.867 361.872 307.647 361.872C308.427 361.872 309.357 362.322 309.957 362.922L310.992 361.227C310.287 360.522 308.907 359.952 307.707 359.952C306.507 359.952 305.562 360.282 304.977 360.777C304.377 361.272 303.897 362.052 303.897 363.042C303.897 364.017 304.257 364.617 304.707 365.037C305.157 365.472 305.682 365.667 305.937 365.787C306.282 365.937 307.062 366.207 307.512 366.372C307.962 366.537 308.727 366.807 308.727 367.512C308.727 368.202 308.127 368.577 307.347 368.577C306.552 368.577 305.397 368.052 304.647 367.272L303.447 369.042C304.287 369.822 305.622 370.602 307.122 370.602C308.232 370.602 309.192 370.332 309.927 369.747C310.677 369.162 311.142 368.262 311.142 367.272ZM320.348 366.747C320.348 364.362 318.593 362.892 316.253 362.892C313.913 362.892 312.143 364.362 312.143 366.747C312.143 369.132 313.913 370.587 316.253 370.587C318.593 370.587 320.348 369.132 320.348 366.747ZM317.933 366.702C317.933 367.797 317.303 368.622 316.253 368.622C315.188 368.622 314.573 367.797 314.573 366.702C314.573 365.607 315.188 364.782 316.253 364.782C317.303 364.782 317.933 365.607 317.933 366.702ZM324.274 370.422V360.072H321.874V370.422H324.274ZM334.016 370.422V360.072H331.616V363.927C331.376 363.567 330.626 362.892 329.276 362.892C327.131 362.892 325.781 364.557 325.781 366.732C325.781 368.907 327.131 370.587 329.276 370.587C330.266 370.587 331.151 370.212 331.706 369.462L331.751 369.447L331.736 370.422H334.016ZM331.691 366.702C331.691 367.842 331.001 368.622 329.966 368.622C328.931 368.622 328.226 367.842 328.226 366.702C328.226 365.562 328.931 364.782 329.966 364.782C331.001 364.782 331.691 365.562 331.691 366.702Z" fill="#76A5FF"></path><defs><filter id="filter0_dd_20544_55390" x="22.9062" y="55.7188" width="414.496" height="297.25" filterUnits="userSpaceOnUse" color-interpolation-filters="sRGB"><feFlood flood-opacity="0" result="BackgroundImageFix"></feFlood><feColorMatrix in="SourceAlpha" type="matrix" values="0 0 0 0 0 0 0 0 0 0 0 0 0 0 0 0 0 0 127 0" result="hardAlpha"></feColorMatrix><feOffset dx="5" dy="5"></feOffset><feGaussianBlur stdDeviation="5"></feGaussianBlur><feColorMatrix type="matrix" values="0 0 0 0 0 0 0 0 0 0.296699 0 0 0 0 0.858629 0 0 0 0.08 0"></feColorMatrix><feBlend mode="normal" in2="BackgroundImageFix" result="effect1_dropShadow_20544_55390"></feBlend><feColorMatrix in="SourceAlpha" type="matrix" values="0 0 0 0 0 0 0 0 0 0 0 0 0 0 0 0 0 0 127 0" result="hardAlpha"></feColorMatrix><feOffset></feOffset><feGaussianBlur stdDeviation="3.5"></feGaussianBlur><feComposite in2="hardAlpha" operator="out"></feComposite><feColorMatrix type="matrix" values="0 0 0 0 0.0354167 0 0 0 0 0.105426 0 0 0 0 0.2125 0 0 0 0.07 0"></feColorMatrix><feBlend mode="normal" in2="effect1_dropShadow_20544_55390" result="effect2_dropShadow_20544_55390"></feBlend><feBlend mode="normal" in="SourceGraphic" in2="effect2_dropShadow_20544_55390" result="shape"></feBlend></filter><filter id="filter1_dd_20544_55390" x="311.055" y="93.7842" width="160.648" height="74.5586" filterUnits="userSpaceOnUse" color-interpolation-filters="sRGB"><feFlood flood-opacity="0" result="BackgroundImageFix"></feFlood><feColorMatrix in="SourceAlpha" type="matrix" values="0 0 0 0 0 0 0 0 0 0 0 0 0 0 0 0 0 0 127 0" result="hardAlpha"></feColorMatrix><feOffset dx="5" dy="5"></feOffset><feGaussianBlur stdDeviation="5"></feGaussianBlur><feColorMatrix type="matrix" values="0 0 0 0 0 0 0 0 0 0.296699 0 0 0 0 0.858629 0 0 0 0.08 0"></feColorMatrix><feBlend mode="normal" in2="BackgroundImageFix" result="effect1_dropShadow_20544_55390"></feBlend><feColorMatrix in="SourceAlpha" type="matrix" values="0 0 0 0 0 0 0 0 0 0 0 0 0 0 0 0 0 0 127 0" result="hardAlpha"></feColorMatrix><feOffset></feOffset><feGaussianBlur stdDeviation="3.5"></feGaussianBlur><feComposite in2="hardAlpha" operator="out"></feComposite><feColorMatrix type="matrix" values="0 0 0 0 0.0354167 0 0 0 0 0.105426 0 0 0 0 0.2125 0 0 0 0.07 0"></feColorMatrix><feBlend mode="normal" in2="effect1_dropShadow_20544_55390" result="effect2_dropShadow_20544_55390"></feBlend><feBlend mode="normal" in="SourceGraphic" in2="effect2_dropShadow_20544_55390" result="shape"></feBlend></filter><filter id="filter2_dd_20544_55390" x="331.891" y="265.962" width="160.648" height="77.2773" filterUnits="userSpaceOnUse" color-interpolation-filters="sRGB"><feFlood flood-opacity="0" result="BackgroundImageFix"></feFlood><feColorMatrix in="SourceAlpha" type="matrix" values="0 0 0 0 0 0 0 0 0 0 0 0 0 0 0 0 0 0 127 0" result="hardAlpha"></feColorMatrix><feOffset dx="5" dy="5"></feOffset><feGaussianBlur stdDeviation="5"></feGaussianBlur><feColorMatrix type="matrix" values="0 0 0 0 0 0 0 0 0 0.296699 0 0 0 0 0.858629 0 0 0 0.08 0"></feColorMatrix><feBlend mode="normal" in2="BackgroundImageFix" result="effect1_dropShadow_20544_55390"></feBlend><feColorMatrix in="SourceAlpha" type="matrix" values="0 0 0 0 0 0 0 0 0 0 0 0 0 0 0 0 0 0 127 0" result="hardAlpha"></feColorMatrix><feOffset></feOffset><feGaussianBlur stdDeviation="3.5"></feGaussianBlur><feComposite in2="hardAlpha" operator="out"></feComposite><feColorMatrix type="matrix" values="0 0 0 0 0.0354167 0 0 0 0 0.105426 0 0 0 0 0.2125 0 0 0 0.07 0"></feColorMatrix><feBlend mode="normal" in2="effect1_dropShadow_20544_55390" result="effect2_dropShadow_20544_55390"></feBlend><feBlend mode="normal" in="SourceGraphic" in2="effect2_dropShadow_20544_55390" result="shape"></feBlend></filter><filter id="filter3_dd_20544_55390" x="11.1055" y="122.783" width="160.648" height="77.2773" filterUnits="userSpaceOnUse" color-interpolation-filters="sRGB"><feFlood flood-opacity="0" result="BackgroundImageFix"></feFlood><feColorMatrix in="SourceAlpha" type="matrix" values="0 0 0 0 0 0 0 0 0 0 0 0 0 0 0 0 0 0 127 0" result="hardAlpha"></feColorMatrix><feOffset dx="5" dy="5"></feOffset><feGaussianBlur stdDeviation="5"></feGaussianBlur><feColorMatrix type="matrix" values="0 0 0 0 0 0 0 0 0 0.296699 0 0 0 0 0.858629 0 0 0 0.08 0"></feColorMatrix><feBlend mode="normal" in2="BackgroundImageFix" result="effect1_dropShadow_20544_55390"></feBlend><feColorMatrix in="SourceAlpha" type="matrix" values="0 0 0 0 0 0 0 0 0 0 0 0 0 0 0 0 0 0 127 0" result="hardAlpha"></feColorMatrix><feOffset></feOffset><feGaussianBlur stdDeviation="3.5"></feGaussianBlur><feComposite in2="hardAlpha" operator="out"></feComposite><feColorMatrix type="matrix" values="0 0 0 0 0.0354167 0 0 0 0 0.105426 0 0 0 0 0.2125 0 0 0 0.07 0"></feColorMatrix><feBlend mode="normal" in2="effect1_dropShadow_20544_55390" result="effect2_dropShadow_20544_55390"></feBlend><feBlend mode="normal" in="SourceGraphic" in2="effect2_dropShadow_20544_55390" result="shape"></feBlend></filter><filter id="filter4_dd_20544_55390" x="148.863" y="289.522" width="176.957" height="77.2773" filterUnits="userSpaceOnUse" color-interpolation-filters="sRGB"><feFlood flood-opacity="0" result="BackgroundImageFix"></feFlood><feColorMatrix in="SourceAlpha" type="matrix" values="0 0 0 0 0 0 0 0 0 0 0 0 0 0 0 0 0 0 127 0" result="hardAlpha"></feColorMatrix><feOffset dx="5" dy="5"></feOffset><feGaussianBlur stdDeviation="5"></feGaussianBlur><feColorMatrix type="matrix" values="0 0 0 0 0 0 0 0 0 0.296699 0 0 0 0 0.858629 0 0 0 0.08 0"></feColorMatrix><feBlend mode="normal" in2="BackgroundImageFix" result="effect1_dropShadow_20544_55390"></feBlend><feColorMatrix in="SourceAlpha" type="matrix" values="0 0 0 0 0 0 0 0 0 0 0 0 0 0 0 0 0 0 127 0" result="hardAlpha"></feColorMatrix><feOffset></feOffset><feGaussianBlur stdDeviation="3.5"></feGaussianBlur><feComposite in2="hardAlpha" operator="out"></feComposite><feColorMatrix type="matrix" values="0 0 0 0 0.0354167 0 0 0 0 0.105426 0 0 0 0 0.2125 0 0 0 0.07 0"></feColorMatrix><feBlend mode="normal" in2="effect1_dropShadow_20544_55390" result="effect2_dropShadow_20544_55390"></feBlend><feBlend mode="normal" in="SourceGraphic" in2="effect2_dropShadow_20544_55390" result="shape"></feBlend></filter><filter id="filter5_dd_20544_55390" x="148.383" y="291.055" width="169.895" height="70.2158" filterUnits="userSpaceOnUse" color-interpolation-filters="sRGB"><feFlood flood-opacity="0" result="BackgroundImageFix"></feFlood><feColorMatrix in="SourceAlpha" type="matrix" values="0 0 0 0 0 0 0 0 0 0 0 0 0 0 0 0 0 0 127 0" result="hardAlpha"></feColorMatrix><feOffset dy="4"></feOffset><feGaussianBlur stdDeviation="5"></feGaussianBlur><feColorMatrix type="matrix" values="0 0 0 0 0.607843 0 0 0 0 0.67451 0 0 0 0 0.737255 0 0 0 0.35 0"></feColorMatrix><feBlend mode="normal" in2="BackgroundImageFix" result="effect1_dropShadow_20544_55390"></feBlend><feColorMatrix in="SourceAlpha" type="matrix" values="0 0 0 0 0 0 0 0 0 0 0 0 0 0 0 0 0 0 127 0" result="hardAlpha"></feColorMatrix><feOffset dy="2"></feOffset><feGaussianBlur stdDeviation="6"></feGaussianBlur><feColorMatrix type="matrix" values="0 0 0 0 0.89625 0 0 0 0 0.930414 0 0 0 0 0.995833 0 0 0 1 0"></feColorMatrix><feBlend mode="normal" in2="effect1_dropShadow_20544_55390" result="effect2_dropShadow_20544_55390"></feBlend><feBlend mode="normal" in="SourceGraphic" in2="effect2_dropShadow_20544_55390" result="shape"></feBlend></filter><filter id="filter6_dd_20544_55390" x="93.3867" y="46.4678" width="310.352" height="304.463" filterUnits="userSpaceOnUse" color-interpolation-filters="sRGB"><feFlood flood-opacity="0" result="BackgroundImageFix"></feFlood><feColorMatrix in="SourceAlpha" type="matrix" values="0 0 0 0 0 0 0 0 0 0 0 0 0 0 0 0 0 0 127 0" result="hardAlpha"></feColorMatrix><feOffset dx="15" dy="15"></feOffset><feGaussianBlur stdDeviation="55.5"></feGaussianBlur><feColorMatrix type="matrix" values="0 0 0 0 0 0 0 0 0 0.0486432 0 0 0 0 0.221106 0 0 0 0.1 0"></feColorMatrix><feBlend mode="normal" in2="BackgroundImageFix" result="effect1_dropShadow_20544_55390"></feBlend><feColorMatrix in="SourceAlpha" type="matrix" values="0 0 0 0 0 0 0 0 0 0 0 0 0 0 0 0 0 0 127 0" result="hardAlpha"></feColorMatrix><feOffset dy="1"></feOffset><feGaussianBlur stdDeviation="7"></feGaussianBlur><feComposite in2="hardAlpha" operator="out"></feComposite><feColorMatrix type="matrix" values="0 0 0 0 0.0354167 0 0 0 0 0.105426 0 0 0 0 0.2125 0 0 0 0.04 0"></feColorMatrix><feBlend mode="normal" in2="effect1_dropShadow_20544_55390" result="effect2_dropShadow_20544_55390"></feBlend><feBlend mode="normal" in="SourceGraphic" in2="effect2_dropShadow_20544_55390" result="shape"></feBlend></filter><filter id="filter7_dd_20544_55390" x="6.41406" y="51.0049" width="614.496" height="497.25" filterUnits="userSpaceOnUse" color-interpolation-filters="sRGB"><feFlood flood-opacity="0" result="BackgroundImageFix"></feFlood><feColorMatrix in="SourceAlpha" type="matrix" values="0 0 0 0 0 0 0 0 0 0 0 0 0 0 0 0 0 0 127 0" result="hardAlpha"></feColorMatrix><feOffset dx="15" dy="15"></feOffset><feGaussianBlur stdDeviation="55.5"></feGaussianBlur><feColorMatrix type="matrix" values="0 0 0 0 0 0 0 0 0 0.0486432 0 0 0 0 0.221106 0 0 0 0.1 0"></feColorMatrix><feBlend mode="normal" in2="BackgroundImageFix" result="effect1_dropShadow_20544_55390"></feBlend><feColorMatrix in="SourceAlpha" type="matrix" values="0 0 0 0 0 0 0 0 0 0 0 0 0 0 0 0 0 0 127 0" result="hardAlpha"></feColorMatrix><feOffset dy="1"></feOffset><feGaussianBlur stdDeviation="7"></feGaussianBlur><feComposite in2="hardAlpha" operator="out"></feComposite><feColorMatrix type="matrix" values="0 0 0 0 0.0354167 0 0 0 0 0.105426 0 0 0 0 0.2125 0 0 0 0.04 0"></feColorMatrix><feBlend mode="normal" in2="effect1_dropShadow_20544_55390" result="effect2_dropShadow_20544_55390"></feBlend><feBlend mode="normal" in="SourceGraphic" in2="effect2_dropShadow_20544_55390" result="shape"></feBlend></filter><clipPath id="clip0_20544_55390"><rect width="10.8742" height="11.7804" fill="white" transform="translate(42.5977 91.7188)"></rect></clipPath><clipPath id="clip1_20544_55390"><rect width="10.8742" height="12.6866" fill="white" transform="translate(82.457 104.403) rotate(-180)"></rect></clipPath></defs></svg>