<svg xmlns="http://www.w3.org/2000/svg" width="683" height="482" viewBox="0 0 683 482" fill="none"><rect width="911" height="482" rx="48" fill="#F5F8FF"></rect><g clip-path="url(#clip0_28138_81428)"><path d="M369.285 381.755L365.088 349.935H311.761L307.564 381.755C306.641 388.732 300.693 393.961 293.634 393.961C290.265 393.961 287.554 396.687 287.554 400.035V404.586H389.276V400.035C389.276 396.669 386.546 393.961 383.196 393.961C376.156 393.961 370.189 388.751 369.266 381.755H369.285Z" fill="#9BACBC"></path><path d="M451.524 188.914H225.343C216.371 188.914 209.099 196.18 209.099 205.144V351.045C209.099 360.009 216.371 365.469 225.343 365.469H451.524C460.495 365.469 468.183 360.577 468.183 351.614L467.768 205.144C467.768 196.18 460.495 188.914 451.524 188.914Z" fill="#303B45"></path><path d="M208.981 351.045C208.981 360.458 216.276 368.098 225.264 368.098H451.899C460.888 368.098 468.183 360.458 468.183 351.045H208.981Z" fill="#D2DCE4"></path><path d="M452.485 203.282H224.384V339.365H452.485V203.282Z" fill="white"></path><path d="M441.341 214.942H235.546V329.153H441.341V214.942Z" fill="#EDF1F6"></path><path d="M429.709 225.078H329.55V317.493H429.709V225.078Z" fill="white"></path><path d="M317.54 225.078H245.164V317.493H317.54V225.078Z" fill="white"></path><path d="M394.659 234.895H341.295V238.581H394.659V234.895Z" fill="#B8C4D0"></path><path d="M394.659 243.17H341.295V246.856H394.659V243.17Z" fill="#B8C4D0"></path><path d="M394.659 251.426H341.295V255.112H394.659V251.426Z" fill="#B8C4D0"></path><path d="M394.659 259.701H341.295V263.387H394.659V259.701Z" fill="#B8C4D0"></path><path d="M394.659 267.976H341.295V271.662H394.659V267.976Z" fill="#B8C4D0"></path><path d="M394.659 276.232H341.295V279.918H394.659V276.232Z" fill="#9BACBC"></path><path d="M394.659 284.507H341.295V288.193H394.659V284.507Z" fill="#9BACBC"></path><path d="M394.659 292.782H341.295V296.468H394.659V292.782Z" fill="#9BACBC"></path><path d="M409.792 242.587L404.258 236.437L406.705 234.256L409.661 237.547L414.498 231.642L417.039 233.711L409.792 242.587Z" fill="#76A5FF"></path><path d="M409.792 258.742L404.258 252.611L406.705 250.411L409.661 253.702L414.498 247.815L417.039 249.884L409.792 258.742Z" fill="#76A5FF"></path><path d="M409.792 274.916L404.258 268.785L406.705 266.584L409.661 269.875L414.498 263.97L417.039 266.058L409.792 274.916Z" fill="#76A5FF"></path><path d="M342.876 359.864C342.876 362.309 340.881 364.303 338.434 364.303C335.987 364.303 333.992 362.309 333.992 359.864C333.992 357.42 335.987 355.426 338.434 355.426C340.881 355.426 342.876 357.42 342.876 359.864Z" fill="#303B45"></path><path d="M369.285 381.755L368.702 377.26H308.166L307.582 381.755C306.66 388.732 300.712 393.961 293.653 393.961C292.919 393.961 292.241 394.111 291.601 394.337H385.266C384.626 394.111 383.93 393.961 383.214 393.961C376.175 393.961 370.208 388.751 369.285 381.755Z" fill="#9BACBC"></path><mask id="mask0_28138_81428" style="mask-type:alpha" maskUnits="userSpaceOnUse" x="260" y="231" width="43" height="45"><ellipse cx="281.523" cy="253.479" rx="21.0001" ry="21.5218" fill="#C4C4C4"></ellipse></mask><g mask="url(#mask0_28138_81428)"><ellipse cx="281.523" cy="253.479" rx="21.0001" ry="21.5218" fill="#E7EEFF"></ellipse><path d="M288.608 264.869C288.082 264.649 287.632 264.272 287.327 263.779L287.117 263.442C286.851 263.015 286.703 262.52 286.688 262.013C286.648 260.624 286.644 259.372 286.69 258.354L277.27 259.192C277.27 259.192 277.293 260.425 277.283 262.408C277.281 262.798 277.199 263.184 277.044 263.541L277.011 263.617C276.727 264.267 276.214 264.782 275.573 265.054C275.488 265.09 275.403 265.126 275.318 265.165L265.018 269.39C263.468 270.025 262.392 271.491 262.224 273.193L262.124 274.214H298.701V269.029L289.282 265.165C289.058 265.062 288.834 264.963 288.608 264.869Z" fill="#FFB27D"></path><path d="M279.977 258.952L277.301 261.195L287.36 271.338L292.738 266.584L289.282 265.166C289.058 265.061 288.834 264.963 288.608 264.868C288.082 264.649 287.632 264.272 287.327 263.779L287.117 263.442C286.851 263.015 286.703 262.519 286.688 262.014C286.648 260.626 286.644 259.373 286.69 258.355L279.977 258.952Z" fill="#ED975D"></path><path d="M281.89 271.426C278.331 271.426 275.367 269.018 273.899 265.748L265.017 269.391C263.467 270.026 262.391 271.492 262.223 273.194L262.111 274.327H298.7V269.03L290.348 265.603C288.753 268.947 285.501 271.426 281.89 271.426Z" fill="#C6DBFF"></path><path d="M275.284 253.36C275.275 252.935 275.272 252.526 275.275 252.131C275.061 251.782 274.664 251.301 274.158 251.415C273.38 251.59 274.212 254.057 274.212 254.057C274.212 254.057 274.371 256.745 274.929 256.805C275.193 256.833 275.402 256.858 275.578 256.845C275.358 255.445 275.311 254.664 275.284 253.36Z" fill="#FFB27D"></path><path d="M288.174 253.202C288.232 254.891 288.447 256.331 288.148 258.076C288.114 258.278 288.053 258.475 287.97 258.661C287.117 260.559 285.819 261.848 284.629 263.148C283.538 264.34 280.633 264.317 279.702 263.531C278.147 262.223 277.303 261.3 276.183 259.443C276.005 259.147 275.881 258.82 275.819 258.478C275.37 256.005 275.301 255.18 275.264 253.457C275.093 245.299 277.12 242.628 281.493 242.541C286 242.451 287.901 245.209 288.174 253.202Z" fill="#FFB27D"></path><path d="M289.408 251.175C288.609 251.027 288.134 252.299 288.134 252.299C288.15 252.592 288.163 252.894 288.173 253.204C288.216 254.451 288.343 255.56 288.288 256.758C288.446 256.752 288.63 256.724 288.853 256.692C289.418 256.609 289.464 253.865 289.464 253.865C289.464 253.865 290.208 251.322 289.408 251.175Z" fill="#FFB27D"></path><path d="M276.573 242.271C276.402 242.399 276.248 242.55 276.115 242.716C275.44 243.553 273.486 246.274 274.024 249.096C274.024 249.096 274.33 250.982 274.77 251.925C274.97 252.354 275.028 252.712 275.14 252.873C275.24 253.016 275.366 252.968 275.389 252.795C275.511 251.868 275.854 249.175 275.808 248.452C275.758 247.663 275.991 246.029 277.927 245.895C279.815 245.764 279.884 246.017 281.609 246.029C283.335 246.017 283.404 245.764 285.293 245.895C287.229 246.029 287.378 247.725 287.393 248.515C287.408 249.337 287.9 251.613 288.086 252.445C288.124 252.616 288.209 252.624 288.281 252.464C288.365 252.276 288.485 252.021 288.623 251.767C289.124 250.852 289.194 249.096 289.194 249.096C289.729 246.296 287.81 243.598 287.121 242.737C286.961 242.538 286.776 242.366 286.567 242.221C285.39 241.409 281.076 238.914 276.573 242.271Z" fill="#091B36"></path><path opacity="0.5" d="M287.555 264.306L287.463 264.159C287.496 264.2 287.526 264.25 287.555 264.306Z" fill="#C8C8C8"></path><path d="M282.146 272.86C277.868 272.86 274.225 270.078 272.843 266.183L265.02 269.391C263.47 270.026 262.394 271.492 262.226 273.194L262.048 275.001H298.701V269.03L291.486 266.069C290.135 270.023 286.464 272.86 282.146 272.86Z" fill="#76A5FF"></path></g><path d="M266.641 300.325H256.914V309.763H266.641V300.325Z" fill="#76A5FF"></path><path d="M280.108 294.58H270.38V309.784H280.108V294.58Z" fill="#76A5FF"></path><path d="M293.597 290.887H283.869V309.784H293.597V290.887Z" fill="#C6DBFF"></path><path d="M307.063 280.218H297.336V309.784H307.063V280.218Z" fill="#76A5FF"></path></g><g filter="url(#filter0_d_28138_81428)"><circle cx="90.7531" cy="267.718" r="47.7531" fill="white"></circle></g><path d="M65.1663 267.013C65.1614 265.965 65.4482 264.94 65.9902 264.066C66.5322 263.193 67.3051 262.511 68.2109 262.106C69.1167 261.702 70.1147 261.593 71.0784 261.794C72.0421 261.996 72.9281 262.497 73.6242 263.236C74.3203 263.975 74.7951 264.918 74.9885 265.944C75.1819 266.971 75.0852 268.036 74.7105 269.005C74.3359 269.973 73.7002 270.801 72.884 271.383C72.0679 271.966 71.108 272.277 70.126 272.277C68.8149 272.277 67.5571 271.723 66.6277 270.736C65.6983 269.75 65.1728 268.411 65.1663 267.013Z" fill="#76A5FF"></path><path d="M65.1663 285.528C65.1614 284.481 65.4482 283.455 65.9902 282.582C66.5322 281.709 67.3051 281.026 68.2109 280.622C69.1167 280.217 70.1147 280.109 71.0784 280.31C72.0421 280.511 72.9281 281.013 73.6242 281.752C74.3203 282.491 74.7951 283.433 74.9885 284.46C75.1819 285.487 75.0852 286.552 74.7105 287.52C74.3359 288.489 73.7002 289.316 72.884 289.899C72.0679 290.481 71.108 290.792 70.126 290.792C68.8149 290.792 67.5571 290.239 66.6277 289.252C65.6983 288.266 65.1728 286.927 65.1663 285.528Z" fill="#76A5FF"></path><path d="M65.1663 249.158C65.1614 248.11 65.4482 247.085 65.9902 246.212C66.5322 245.338 67.3051 244.656 68.2109 244.252C69.1167 243.847 70.1147 243.739 71.0784 243.94C72.0421 244.141 72.9281 244.643 73.6242 245.381C74.3203 246.12 74.7951 247.063 74.9885 248.09C75.1819 249.117 75.0852 250.182 74.7105 251.15C74.3359 252.118 73.7002 252.946 72.884 253.528C72.0679 254.111 71.108 254.422 70.126 254.422C68.8153 254.421 67.5583 253.866 66.6291 252.88C65.7 251.894 65.1741 250.556 65.1663 249.158Z" fill="#76A5FF"></path><path d="M115.425 265.002H81.0375V269.631H115.425V265.002Z" fill="#76A5FF"></path><path d="M115.425 247.148H81.0375V251.115H115.425V247.148Z" fill="#3D7FFC"></path><path d="M115.425 283.519H81.0375V287.486H115.425V283.519Z" fill="#76A5FF"></path><path d="M144.9 266.463H191.696" stroke="black" stroke-width="2.27371" stroke-linecap="round" stroke-linejoin="round" stroke-dasharray="4.55 4.55"></path><g filter="url(#filter1_d_28138_81428)"><rect x="65.7371" y="61.1476" width="159.436" height="98.1651" rx="9.09483" fill="white"></rect><path d="M65.7371 69.7124C65.7371 64.9822 69.5716 61.1476 74.3018 61.1476H216.608C221.338 61.1476 225.173 64.9822 225.173 69.7124H65.7371Z" fill="#091B36"></path><path d="M73.5058 65.6926C73.5058 66.3785 72.94 66.9443 72.2542 66.9443C71.5685 66.9443 71.0027 66.3785 71.0027 65.6926C71.0027 65.0067 71.5685 64.4408 72.2542 64.4408C72.94 64.4408 73.5058 65.0067 73.5058 65.6926Z" fill="#F5F8FF"></path><path d="M78.7844 65.6927C78.7844 66.3786 78.2186 66.9445 77.5329 66.9445C76.8471 66.9445 76.2814 66.3786 76.2814 65.6927C76.2814 65.0068 76.8471 64.441 77.5329 64.441C78.2358 64.441 78.7844 65.0068 78.7844 65.6927Z" fill="#F5F8FF"></path><path d="M84.1775 65.6927C84.1775 66.3786 83.6118 66.9445 82.926 66.9445C82.2403 66.9445 81.6745 66.3786 81.6745 65.6927C81.6745 65.0068 82.2403 64.4409 82.926 64.4409C83.6118 64.4409 84.1775 65.0068 84.1775 65.6927Z" fill="#F5F8FF"></path><rect x="157.884" y="89.3866" width="46.2986" height="12.0397" rx="3.97899" stroke="#E7EEFF" stroke-width="1.13685"></rect><rect x="157.884" y="105.857" width="46.2986" height="12.0397" rx="3.97899" stroke="#E7EEFF" stroke-width="1.13685"></rect><rect x="161.694" y="92.8336" width="6.01801" height="5.47091" rx="2.73546" fill="#C6DBFF"></rect><rect x="169.343" y="92.6118" width="13.2277" height="1.80378" rx="0.901888" fill="#E7EEFF"></rect><rect x="169.343" y="96.2199" width="29.4617" height="1.80378" rx="0.901888" fill="#E7EEFF"></rect><rect x="161.694" y="109.068" width="6.01801" height="5.47091" rx="2.73546" fill="#76A5FF"></rect><rect x="169.343" y="108.846" width="13.2277" height="1.80378" rx="0.901888" fill="#E7EEFF"></rect><rect x="169.343" y="112.454" width="29.4617" height="1.80378" rx="0.901888" fill="#E7EEFF"></rect><rect x="158.632" y="123.078" width="13.2277" height="2.85501" rx="1.4275" fill="#E7EEFF"></rect><rect x="158.633" y="129.008" width="38.2119" height="2.6353" rx="1.31765" fill="#E7EEFF"></rect><rect x="158.633" y="134.278" width="46.1178" height="2.6353" rx="1.31765" fill="#E7EEFF"></rect><rect x="158.633" y="140.208" width="46.1178" height="2.6353" rx="1.31765" fill="#E7EEFF"></rect></g><path d="M111.855 115.167V87.5009C106.382 87.5009 101.032 89.1238 96.4812 92.1645C91.9307 95.2052 88.3841 99.527 86.2899 104.583C84.1957 109.64 83.6479 115.204 84.716 120.571C85.784 125.939 88.4198 130.87 92.29 134.739C96.1603 138.609 101.091 141.244 106.459 142.311C111.827 143.378 117.391 142.83 122.447 140.735C127.503 138.64 131.824 135.092 134.864 130.541C137.904 125.99 139.526 120.64 139.525 115.167C139.525 114.984 139.525 114.805 139.499 114.621L111.855 115.167Z" fill="#C6DBFF"></path><path d="M143.479 111.327C143.338 104.087 140.361 97.1917 135.187 92.1209C130.014 87.05 123.056 84.2085 115.808 84.2064V111.877L143.479 111.327Z" fill="#76A5FF"></path><path d="M251.044 111.169H352.131V175.87" stroke="black" stroke-width="2.27371" stroke-linecap="round" stroke-linejoin="round" stroke-dasharray="4.55 4.55"></path><path d="M474.709 282.047H497.958" stroke="black" stroke-width="2.27371" stroke-linecap="round" stroke-linejoin="round" stroke-dasharray="4.55 4.55"></path><path d="M485.099 76.0181H417.593V172.972" stroke="black" stroke-width="2.27371" stroke-linecap="round" stroke-linejoin="round" stroke-dasharray="4.55 4.55"></path><path d="M516.775 154.145C515.142 153.836 513.483 153.68 511.821 153.68C510.152 153.681 508.487 153.836 506.847 154.145L506.009 160.06C504.334 160.523 502.722 161.192 501.211 162.05L496.429 158.469C493.675 160.354 491.295 162.735 489.41 165.49L492.985 170.279C492.115 171.79 491.436 173.403 490.965 175.082L485.062 175.921C484.449 179.206 484.449 182.577 485.062 185.862L490.965 186.7C491.438 188.382 492.116 189.999 492.985 191.514L489.405 196.298C491.293 199.043 493.668 201.418 496.414 203.304L501.211 199.723C502.724 200.582 504.337 201.25 506.014 201.713L506.852 207.628C508.492 207.937 510.157 208.092 511.826 208.093C513.488 208.093 515.147 207.937 516.78 207.628L517.629 201.713C519.304 201.241 520.913 200.562 522.421 199.692L527.223 203.284C529.972 201.399 532.348 199.022 534.233 196.273L530.637 191.494C531.495 189.981 532.163 188.367 532.627 186.69L538.55 185.852C539.17 182.567 539.17 179.195 538.55 175.911L532.627 175.072C532.163 173.399 531.494 171.789 530.637 170.279L534.228 165.495C532.342 162.74 529.962 160.36 527.208 158.474L522.421 162.06C520.909 161.192 519.296 160.513 517.618 160.04L516.775 154.145ZM527.91 180.917C527.905 184.101 526.957 187.212 525.184 189.857C523.412 192.502 520.896 194.562 517.953 195.777C515.011 196.992 511.774 197.307 508.653 196.682C505.532 196.057 502.665 194.521 500.417 192.268C498.168 190.014 496.637 187.144 496.019 184.021C495.4 180.897 495.721 177.66 496.941 174.719C498.161 171.779 500.226 169.265 502.873 167.498C505.521 165.73 508.633 164.787 511.816 164.788C513.93 164.786 516.023 165.202 517.977 166.011C519.93 166.819 521.705 168.005 523.199 169.5C524.694 170.995 525.879 172.77 526.688 174.724C527.496 176.678 527.912 178.772 527.91 180.886V180.917Z" fill="#76A5FF"></path><ellipse cx="538.354" cy="73.9179" rx="39.7287" ry="38.9179" fill="#3D7FFC"></ellipse><path d="M518.993 75.33L531.576 86.3654L556.646 61.5357" stroke="white" stroke-width="5.68427" stroke-linecap="round"></path><g filter="url(#filter2_d_28138_81428)"><rect x="514.481" y="235.87" width="116.519" height="96.3063" rx="9.09483" fill="white"></rect></g><path d="M543.018 286.996L543.018 317.909C543.018 321.193 545.679 323.854 548.963 323.854C552.246 323.854 554.907 321.193 554.907 317.909L554.907 286.996C554.907 283.713 552.246 281.051 548.963 281.051C545.679 281.051 543.018 283.713 543.018 286.996Z" fill="#76A5FF"></path><path d="M526.372 297.103L526.372 318.504C526.372 321.459 528.767 323.854 531.722 323.854C534.677 323.854 537.073 321.459 537.073 318.504L537.073 297.103C537.073 294.148 534.677 291.752 531.722 291.752C528.767 291.752 526.372 294.148 526.372 297.103Z" fill="#76A5FF"></path><path d="M560.852 297.103L560.852 318.504C560.852 321.459 563.247 323.854 566.202 323.854C569.157 323.854 571.552 321.459 571.552 318.504L571.552 297.103C571.552 294.148 569.157 291.752 566.202 291.752C563.247 291.752 560.852 294.148 560.852 297.103Z" fill="#76A5FF"></path><path d="M594.143 311.37L594.143 318.504C594.143 321.459 596.539 323.854 599.494 323.854C602.449 323.854 604.844 321.459 604.844 318.504L604.844 311.37C604.844 308.415 602.449 306.02 599.494 306.02C596.539 306.02 594.143 308.415 594.143 311.37Z" fill="#76A5FF"></path><path d="M577.496 306.614L577.496 318.504C577.496 321.459 579.892 323.854 582.847 323.854C585.802 323.854 588.197 321.459 588.197 318.504L588.197 306.614C588.197 303.659 585.802 301.264 582.847 301.264C579.892 301.264 577.496 303.659 577.496 306.614Z" fill="#76A5FF"></path><rect x="525.183" y="244.194" width="49.0786" height="5.50703" rx="2.75351" fill="#EDF1F6"></rect><rect x="525.183" y="255.208" width="91.5505" height="5.50703" rx="2.75351" fill="#EDF1F6"></rect><rect x="525.183" y="264.845" width="91.5505" height="5.50703" rx="2.75351" fill="#EDF1F6"></rect><g clip-path="url(#clip1_28138_81428)"><path d="M430.305 330.22C423.968 336.557 419.652 344.632 417.904 353.422C416.155 362.212 417.053 371.323 420.483 379.603C423.912 387.883 429.72 394.96 437.172 399.939C444.624 404.918 453.385 407.576 462.347 407.576C471.31 407.576 480.071 404.918 487.523 399.939C494.974 394.96 500.782 387.883 504.212 379.603C507.642 371.323 508.539 362.212 506.791 353.422C505.043 344.632 500.727 336.557 494.39 330.22C490.182 326.012 485.187 322.674 479.689 320.397C474.191 318.119 468.298 316.947 462.347 316.947C456.397 316.947 450.504 318.119 445.006 320.397C439.508 322.674 434.513 326.012 430.305 330.22ZM488.22 388.135C483.102 393.256 476.581 396.744 469.481 398.157C462.38 399.571 455.02 398.848 448.331 396.078C441.642 393.309 435.925 388.618 431.902 382.598C427.88 376.579 425.733 369.502 425.733 362.262C425.733 355.023 427.88 347.946 431.902 341.926C435.925 335.907 441.642 331.216 448.331 328.446C455.02 325.677 462.38 324.953 469.481 326.367C476.581 327.781 483.102 331.269 488.22 336.39C495.079 343.253 498.933 352.559 498.933 362.262C498.933 371.966 495.079 381.272 488.22 388.135Z" fill="#3D7FFC"></path><path d="M498.791 388.847L488.931 398.706L492.629 402.403L502.488 392.544L498.791 388.847Z" fill="#C6DBFF"></path><path d="M503.725 391.358L491.401 403.682L523.443 435.724L535.767 423.4L503.725 391.358Z" fill="#091B36"></path><path d="M503.725 391.346L501.261 393.811L533.315 425.842L535.778 423.376L503.725 391.346Z" fill="#091B36"></path><path d="M527.157 439.437L530.852 443.132C532.486 444.766 534.702 445.684 537.013 445.684C539.324 445.684 541.54 444.766 543.174 443.132C544.808 441.498 545.725 439.282 545.725 436.971C545.725 434.661 544.808 432.444 543.174 430.81L539.479 427.115L527.157 439.437Z" fill="#091B36"></path><path d="M535.771 423.412L523.447 435.736L527.145 439.433L539.468 427.11L535.771 423.412Z" fill="#091B36"></path><path d="M435.325 335.152C429.962 340.514 426.309 347.346 424.829 354.784C423.349 362.222 424.108 369.932 427.01 376.939C429.912 383.945 434.826 389.934 441.132 394.148C447.438 398.361 454.851 400.61 462.435 400.61C470.019 400.61 477.432 398.361 483.738 394.148C490.043 389.934 494.958 383.945 497.86 376.939C500.761 369.932 501.52 362.222 500.04 354.784C498.56 347.346 494.908 340.514 489.545 335.152C482.354 327.963 472.603 323.924 462.435 323.924C452.267 323.924 442.515 327.963 435.325 335.152ZM488.308 388.135C483.19 393.256 476.668 396.744 469.568 398.158C462.468 399.572 455.108 398.848 448.419 396.078C441.73 393.309 436.012 388.618 431.99 382.598C427.967 376.579 425.82 369.502 425.82 362.262C425.82 355.023 427.967 347.946 431.99 341.926C436.012 335.907 441.73 331.216 448.419 328.447C455.108 325.677 462.468 324.953 469.568 326.367C476.668 327.781 483.19 331.269 488.308 336.39C495.155 343.265 498.993 352.577 498.976 362.28C498.96 371.984 495.091 381.283 488.22 388.135H488.308Z" fill="#3D7FFC"></path></g><defs><filter id="filter0_d_28138_81428" x="37.3157" y="214.28" width="118.243" height="118.243" filterUnits="userSpaceOnUse" color-interpolation-filters="sRGB"><feFlood flood-opacity="0" result="BackgroundImageFix"></feFlood><feColorMatrix in="SourceAlpha" type="matrix" values="0 0 0 0 0 0 0 0 0 0 0 0 0 0 0 0 0 0 127 0" result="hardAlpha"></feColorMatrix><feOffset dx="5.68427" dy="5.68427"></feOffset><feGaussianBlur stdDeviation="5.68427"></feGaussianBlur><feColorMatrix type="matrix" values="0 0 0 0 0.0941177 0 0 0 0 0.188235 0 0 0 0 0.247059 0 0 0 0.05 0"></feColorMatrix><feBlend mode="normal" in2="BackgroundImageFix" result="effect1_dropShadow_28138_81428"></feBlend><feBlend mode="normal" in="SourceGraphic" in2="effect1_dropShadow_28138_81428" result="shape"></feBlend></filter><filter id="filter1_d_28138_81428" x="60.0528" y="55.4633" width="182.173" height="120.902" filterUnits="userSpaceOnUse" color-interpolation-filters="sRGB"><feFlood flood-opacity="0" result="BackgroundImageFix"></feFlood><feColorMatrix in="SourceAlpha" type="matrix" values="0 0 0 0 0 0 0 0 0 0 0 0 0 0 0 0 0 0 127 0" result="hardAlpha"></feColorMatrix><feOffset dx="5.68427" dy="5.68427"></feOffset><feGaussianBlur stdDeviation="5.68427"></feGaussianBlur><feColorMatrix type="matrix" values="0 0 0 0 0.0941177 0 0 0 0 0.188235 0 0 0 0 0.247059 0 0 0 0.05 0"></feColorMatrix><feBlend mode="normal" in2="BackgroundImageFix" result="effect1_dropShadow_28138_81428"></feBlend><feBlend mode="normal" in="SourceGraphic" in2="effect1_dropShadow_28138_81428" result="shape"></feBlend></filter><filter id="filter2_d_28138_81428" x="508.797" y="230.186" width="139.256" height="119.043" filterUnits="userSpaceOnUse" color-interpolation-filters="sRGB"><feFlood flood-opacity="0" result="BackgroundImageFix"></feFlood><feColorMatrix in="SourceAlpha" type="matrix" values="0 0 0 0 0 0 0 0 0 0 0 0 0 0 0 0 0 0 127 0" result="hardAlpha"></feColorMatrix><feOffset dx="5.68427" dy="5.68427"></feOffset><feGaussianBlur stdDeviation="5.68427"></feGaussianBlur><feColorMatrix type="matrix" values="0 0 0 0 0.0941177 0 0 0 0 0.188235 0 0 0 0 0.247059 0 0 0 0.05 0"></feColorMatrix><feBlend mode="normal" in2="BackgroundImageFix" result="effect1_dropShadow_28138_81428"></feBlend><feBlend mode="normal" in="SourceGraphic" in2="effect1_dropShadow_28138_81428" result="shape"></feBlend></filter><clipPath id="clip0_28138_81428"><rect width="262.171" height="215.673" fill="white" transform="translate(207.348 188.914)"></rect></clipPath><clipPath id="clip1_28138_81428"><rect width="130.435" height="130.435" fill="white" transform="translate(417.025 316.94)"></rect></clipPath></defs></svg>