<?xml version="1.0" encoding="utf-8"?>
<!-- Generator: Adobe Illustrator 26.3.1, SVG Export Plug-In . SVG Version: 6.00 Build 0)  -->
<!DOCTYPE svg PUBLIC "-//W3C//DTD SVG 1.1//EN" "http://www.w3.org/Graphics/SVG/1.1/DTD/svg11.dtd" [
	<!ENTITY ns_extend "http://ns.adobe.com/Extensibility/1.0/">
	<!ENTITY ns_ai "http://ns.adobe.com/AdobeIllustrator/10.0/">
	<!ENTITY ns_graphs "http://ns.adobe.com/Graphs/1.0/">
	<!ENTITY ns_vars "http://ns.adobe.com/Variables/1.0/">
	<!ENTITY ns_imrep "http://ns.adobe.com/ImageReplacement/1.0/">
	<!ENTITY ns_sfw "http://ns.adobe.com/SaveForWeb/1.0/">
	<!ENTITY ns_custom "http://ns.adobe.com/GenericCustomNamespace/1.0/">
	<!ENTITY ns_adobe_xpath "http://ns.adobe.com/XPath/1.0/">
]>
<svg version="1.1" id="Layer_1" xmlns:x="&ns_extend;" xmlns:i="&ns_ai;" xmlns:graph="&ns_graphs;"
	 xmlns="http://www.w3.org/2000/svg" xmlns:xlink="http://www.w3.org/1999/xlink" x="0px" y="0px" viewBox="0 0 166 44"
	 style="enable-background:new 0 0 166 44;" xml:space="preserve">
<style type="text/css">
	.st0{fill:#E32213;}
	.st1{fill:#FFFFFF;}
</style>
<metadata>
	<sfw  xmlns="&ns_sfw;">
		<slices></slices>
		<sliceSourceBounds  bottomLeftOrigin="true" height="35.29" width="100.2" x="6.11" y="4.22"></sliceSourceBounds>
	</sfw>
</metadata>
<g>
	<rect x="6.11" y="4.49" class="st0" width="100.2" height="35.29"/>
	<g>
		<path class="st1" d="M23.87,28.65l-6.1-9.61c-0.59-0.91-0.3-2.13,0.61-2.7c0.91-0.59,2.13-0.3,2.7,0.61l2.77,4.38l2.77-4.38
			c0.59-0.91,1.79-1.18,2.7-0.61c0.91,0.59,1.18,1.79,0.61,2.7L23.87,28.65z"/>
	</g>
	<g>
		<path class="st1" d="M32.73,28.65l-6.1-9.61c-0.59-0.91-0.3-2.13,0.61-2.7c0.91-0.59,2.13-0.3,2.7,0.61l2.77,4.38l2.77-4.38
			c0.59-0.91,1.79-1.18,2.7-0.61c0.91,0.59,1.18,1.79,0.61,2.7L32.73,28.65z"/>
	</g>
	<path class="st1" d="M45.58,15.89c-3.64,0-6.6,2.88-6.6,6.43s2.96,6.43,6.6,6.43c3.64,0,6.6-2.88,6.6-6.43S49.22,15.89,45.58,15.89
		z M45.58,25.36c-1.52,0-2.79-1.39-2.79-3.09c0-1.7,1.24-3.09,2.79-3.09s2.79,1.39,2.79,3.09C48.37,23.97,47.13,25.36,45.58,25.36z"
		/>
	<g>
		<path class="st1" d="M57.04,28.39h-3.92v-7.78c0-2.44,1.98-4.42,4.42-4.42h2.81v3.38h-2.7c-0.28,0-0.63,0.41-0.63,0.7v8.13H57.04z
			"/>
	</g>
	<path class="st1" d="M65.1,24.4v-4.86h1.72c0.94,0,1.68-0.76,1.68-1.68c0-0.94-0.76-1.68-1.68-1.68H65.1v-1.68
		c0-0.96-0.78-1.74-1.87-1.74c-1,0-1.79,0.85-1.79,1.87v10.06c0,2.05,1.66,3.7,3.7,3.7h3.35v-3.4h-2.79
		C65.38,25.01,65.1,24.73,65.1,24.4z"/>
	<path class="st1" d="M81.42,23.53c0.09-0.39,0.13-0.81,0.13-1.24c0-3.53-2.88-6.43-6.4-6.43c-3.53,0-6.4,2.88-6.4,6.43
		c0,3.55,2.88,6.43,6.4,6.43c2.72,0,5.08-1.72,5.99-4.14h-3.86c-0.54,0.63-1.33,1.02-2.18,1.02c-1.26,0-2.35-0.85-2.81-2.07H81.42z
		 M75.1,19c1.13,0,2.11,0.68,2.61,1.68h-5.25C72.99,19.68,73.97,19,75.1,19z"/>
	<g>
		<path class="st1" d="M94.92,28.45h-3.79l-0.02-6.14c0-0.78-0.35-2.68-2.55-2.68c-1.76,0-2.42,1.48-2.42,2.31c0,1.7,0,6.51,0,6.51
			H82.4v-6.51c0-2.46,1.92-5.93,6.16-5.93c4.12,0,6.34,3.25,6.34,6.3v6.14H94.92z"/>
	</g>
</g>
</svg>
