<svg width="47" height="47" viewBox="0 0 47 47" fill="none" xmlns="http://www.w3.org/2000/svg">
<g clip-path="url(#clip0_12833_6459)">
<path fill-rule="evenodd" clip-rule="evenodd" d="M37.068 6.13C37.068 7.81 35.308 9.25 31.788 10.45C28.268 11.66 24.018 12.27 19.048 12.27C14.078 12.27 9.79805 11.66 6.27805 10.45C2.75805 9.25 0.998047 7.82 0.998047 6.13C0.998047 4.44 2.75805 3.01 6.27805 1.79C9.79805 0.59 14.058 0 19.048 0C24.038 0 28.268 0.6 31.788 1.79C35.308 3 37.068 4.45 37.068 6.13Z" fill="#3D7FFC"/>
<path fill-rule="evenodd" clip-rule="evenodd" d="M37.0178 10.6806V19.9906C36.0978 20.5406 34.9078 21.0706 33.4278 21.5806C29.4578 22.9706 24.6678 23.6606 19.0478 23.6606C13.4278 23.6606 8.59781 22.9706 4.61781 21.5806C3.12781 21.0806 1.91781 20.5406 1.00781 19.9706V10.6406C1.92781 11.2106 3.12781 11.7506 4.61781 12.2506C8.60781 13.6406 13.4178 14.3306 19.0478 14.3306C24.6778 14.3306 29.4578 13.6406 33.4278 12.2506C34.8978 11.7506 36.0978 11.2306 37.0178 10.6906V10.6806Z" fill="#9FC0FF"/>
<path fill-rule="evenodd" clip-rule="evenodd" d="M26.3978 25.5269C24.1278 25.8269 21.6878 25.9869 19.0478 25.9869C13.4078 25.9869 8.59781 25.2969 4.61781 23.9069C3.12781 23.4069 1.91781 22.8669 1.00781 22.2969V31.6269C1.92781 32.1969 3.12781 32.7369 4.61781 33.2369C8.60781 34.6269 13.4378 35.3169 19.0478 35.3169C21.6878 35.3169 24.1378 35.1569 26.4178 34.8469L26.3978 25.5169V25.5269Z" fill="#9FC0FF"/>
<path d="M46.8887 25.3109L37.6387 23.4609L28.3887 25.3409L28.4087 35.1309C28.4287 40.6509 31.4387 44.4609 37.6687 46.7509C43.8787 44.4509 46.8987 40.6209 46.8987 35.1009L46.8787 25.3109H46.8887ZM38.4687 36.8609L36.8387 38.4909L32.9787 34.6309L34.6087 33.0009L36.8387 35.2309L41.8687 30.2009L43.4987 31.8309L38.4687 36.8609Z" fill="#FECE4D"/>
<path fill-rule="evenodd" clip-rule="evenodd" d="M29.1478 43.4066C27.7078 41.5966 26.8678 39.5066 26.5578 37.1866C24.2478 37.5066 21.7478 37.6666 19.0478 37.6666C13.4078 37.6666 8.59781 36.9766 4.61781 35.5866C3.12781 35.0866 1.91781 34.5466 1.00781 33.9766V43.3066C1.92781 43.8766 3.12781 44.4166 4.61781 44.9166C8.60781 46.3066 13.4378 46.9966 19.0478 46.9966C23.7078 46.9966 27.7978 46.5066 31.3278 45.5566C30.5078 44.9066 29.7778 44.1966 29.1478 43.4066Z" fill="#9FC0FF"/>
</g>
<defs>
<clipPath id="clip0_12833_6459">
<rect width="47" height="47" fill="white" transform="translate(-0.00195312)"/>
</clipPath>
</defs>
</svg>
