<svg width="84" height="84" viewBox="0 0 84 84" fill="none" xmlns="http://www.w3.org/2000/svg">
<path d="M76.9607 0H7.03934C3.15162 0 0 3.15162 0 7.03934V76.9607C0 80.8484 3.15162 84 7.03934 84H76.9607C80.8484 84 84 80.8484 84 76.9607V7.03934C84 3.15162 80.8484 0 76.9607 0Z" fill="white"/>
<g clip-path="url(#clip0_17655_5279)">
<path d="M55.3424 35.863L52.8371 38.3683C52.2835 38.922 52.2835 39.7571 52.8371 40.3108C53.1185 40.5922 53.8084 41.1459 54.7796 40.3108L58.2561 36.8343C58.5375 36.5529 58.6737 36.2806 58.6737 35.863C58.6737 35.4455 58.5375 35.1641 58.2561 34.8918L54.7796 31.4153C54.2259 30.8616 53.3908 30.8616 52.8371 31.4153C52.2835 31.969 52.2835 32.8041 52.8371 33.3578L55.3424 35.863Z" fill="#FECE4D"/>
<path d="M45.3313 35.8708L47.8365 38.3761C48.3902 38.9298 48.3902 39.7649 47.8365 40.3186C47.5551 40.6 46.8653 41.1537 45.894 40.3186L42.4175 36.8421C42.1362 36.5607 42 36.2884 42 35.8708C42 35.4533 42.1362 35.1719 42.4175 34.8996L45.894 31.4231C46.4477 30.8694 47.2828 30.8694 47.8365 31.4231C48.3902 31.9768 48.3902 32.8119 47.8365 33.3656L45.3313 35.8708Z" fill="#FECE4D"/>
<path d="M18 60.9999C18 61.9899 18.39 62.9199 19.13 63.6599C19.83 64.3499 20.76 64.7399 21.75 64.7399V64.7699C22.75 64.7699 23.68 64.3799 24.38 63.6799L35.21 52.8399C36.15 53.1799 37.16 53.3499 38.16 53.3499C39.16 53.3499 40.04 53.1999 40.94 52.8999C42.22 52.4699 43.35 51.7599 44.31 50.7999C45.93 49.1699 46.83 47.0199 46.86 44.7299V44.6699C46.86 44.2699 46.71 43.9099 46.44 43.6299C46.16 43.3499 45.78 43.1899 45.39 43.1899C45 43.1899 44.63 43.3399 44.35 43.6199L41.61 46.3599L37.48 45.2599L36.37 41.1299L39.09 38.4099C39.51 37.9899 39.64 37.3599 39.41 36.8099C39.18 36.2599 38.65 35.8999 38.05 35.8999C35.94 35.9099 33.92 36.6799 32.36 38.0499C31.21 39.0699 30.34 40.3699 29.85 41.8199C29.23 43.6999 29.26 45.6999 29.92 47.5399L19.09 58.3799C18.39 59.0799 18 60.0099 18 60.9999Z" fill="#3D7FFC"/>
<path fill-rule="evenodd" clip-rule="evenodd" d="M63.86 18H35.96C35.03 18 34.41 18.62 34.41 19.55V35.09C35.39 34.71 36.44 34.49 37.51 34.43V27.3H62.31V45.9H48.27C48.13 46.98 47.83 48.03 47.36 49H63.85C64.36 49 64.87 48.67 65.15 48.23C65.3 47.99 65.4 47.72 65.4 47.46V19.55C65.4 18.62 64.63 18 63.85 18H63.86ZM38.93 24.26C37.97 24.26 37.19 23.49 37.19 22.53C37.19 21.57 37.97 20.79 38.93 20.79C39.89 20.79 40.67 21.57 40.67 22.53C40.67 23.49 39.89 24.26 38.93 24.26ZM46.37 23.97C46.09 24.15 45.76 24.26 45.41 24.26C45.09 24.26 44.78 24.17 44.52 24.02C44.01 23.72 43.67 23.16 43.67 22.53C43.67 22.25 43.74 21.98 43.86 21.73C43.98 21.48 44.17 21.27 44.39 21.11C44.68 20.91 45.03 20.79 45.41 20.79C45.82 20.79 46.2 20.94 46.5 21.18C46.89 21.49 47.15 21.98 47.15 22.53C47.15 23.13 46.84 23.66 46.37 23.98V23.97ZM51.89 24.26C50.93 24.26 50.15 23.49 50.15 22.53C50.15 21.57 50.93 20.79 51.89 20.79C52.85 20.79 53.63 21.57 53.63 22.53C53.63 23.49 52.85 24.26 51.89 24.26Z" fill="#C6DBFF"/>
</g>
<defs>
<clipPath id="clip0_17655_5279">
<rect width="47.41" height="46.77" fill="white" transform="translate(18 18)"/>
</clipPath>
</defs>
</svg>
