<svg width="323" height="317" viewBox="0 0 323 317" fill="none" xmlns="http://www.w3.org/2000/svg">
<g clip-path="url(#clip0_6531_35410)">
<path fill-rule="evenodd" clip-rule="evenodd" d="M6.08587 321.174L6.08587 322.471L58.6958 322.471L58.6958 356.854L59.9948 356.854L59.9948 322.471L130.141 322.471L130.141 356.854L131.44 356.854L131.44 322.471L201.587 322.471L201.587 356.854L202.886 356.854L202.886 322.471L273.033 322.471L273.033 356.854L274.332 356.854L274.332 322.471L344.478 322.471L344.478 356.854L345.777 356.854L345.777 322.471L399.686 322.471L399.686 321.174L345.777 321.174L345.777 251.112L399.686 251.112L399.686 249.815L345.777 249.815L345.777 179.753L399.686 179.753L399.686 178.456L345.777 178.456L345.777 108.394L399.686 108.394L399.686 107.097L345.777 107.097L345.777 37.0349L399.686 37.0349L399.686 35.7374L345.777 35.7374L345.777 2.00403L344.478 2.00403L344.478 35.7374L274.332 35.7374L274.332 2.00404L273.033 2.00404L273.033 35.7374L202.886 35.7374L202.886 2.00405L201.587 2.00405L201.587 35.7374L131.44 35.7375L131.44 2.00405L130.141 2.00405L130.141 35.7375L59.9948 35.7375L59.9948 2.00406L58.6958 2.00406L58.6958 35.7375L6.08585 35.7375L6.08585 37.0349L58.6958 37.0349L58.6958 107.097L6.08585 107.097L6.08585 108.394L58.6958 108.394L58.6958 178.456L6.08586 178.456L6.08586 179.753L58.6958 179.753L58.6958 249.815L6.08587 249.815L6.08587 251.112L58.6958 251.112L58.6958 321.174L6.08587 321.174ZM131.44 321.174L131.44 251.112L201.587 251.112L201.587 321.174L131.44 321.174ZM202.886 178.456L202.886 108.394L273.033 108.394L273.033 178.456L202.886 178.456ZM273.033 179.753L273.033 249.815L202.886 249.815L202.886 179.753L273.033 179.753ZM201.587 178.456L131.44 178.456L131.44 108.394L201.587 108.394L201.587 178.456ZM201.587 179.753L201.587 249.815L131.44 249.815L131.44 179.753L201.587 179.753ZM202.886 321.174L202.886 251.112L273.033 251.112L273.033 321.174L202.886 321.174ZM344.478 321.174L274.332 321.174L274.332 251.112L344.478 251.112L344.478 321.174ZM344.478 249.815L274.332 249.815L274.332 179.753L344.478 179.753L344.478 249.815ZM344.478 178.456L274.332 178.456L274.332 108.394L344.478 108.394L344.478 178.456ZM344.478 37.0349L344.478 107.097L274.332 107.097L274.332 37.0349L344.478 37.0349ZM273.033 37.0349L273.033 107.097L202.886 107.097L202.886 37.0349L273.033 37.0349ZM201.587 37.0349L201.587 107.097L131.44 107.097L131.44 37.0349L201.587 37.0349ZM59.9948 37.0349L130.141 37.0349L130.141 107.097L59.9948 107.097L59.9948 37.0349ZM59.9948 108.394L130.141 108.394L130.141 178.456L59.9948 178.456L59.9948 108.394ZM59.9948 179.753L130.141 179.753L130.141 249.815L59.9948 249.815L59.9948 179.753ZM59.9948 251.112L130.141 251.112L130.141 321.174L59.9948 321.174L59.9948 251.112Z" fill="url(#paint0_linear_6531_35410)"/>
<g filter="url(#filter0_d_6531_35410)">
<g filter="url(#filter1_dd_6531_35410)">
<rect x="42.944" y="235.013" width="107.089" height="30.0969" rx="4.66989" fill="white"/>
<rect x="43.3207" y="235.39" width="106.336" height="29.3435" rx="4.29315" stroke="#D2DCE4" stroke-width="0.753475"/>
</g>
<path d="M55.3893 245.42L56.9713 245.42L56.9713 253.816L55.3893 253.816L55.3893 245.42ZM58.9983 245.42L61.6999 245.42C62.5395 245.42 63.2697 245.59 63.8051 246.04C64.3527 246.491 64.6813 247.087 64.6813 247.939C64.6813 248.791 64.3527 249.399 63.8051 249.849C63.2697 250.3 62.5395 250.506 61.6999 250.506L60.5925 250.506L60.5925 253.816L58.9983 253.816L58.9983 245.42ZM61.5052 249.265C61.9919 249.265 62.3205 249.144 62.5882 248.949C62.8559 248.754 63.0506 248.413 63.0506 247.939C63.0506 247.476 62.8194 247.136 62.5517 246.941C62.284 246.746 61.9554 246.661 61.4686 246.661L60.5803 246.661L60.5803 249.265L61.5052 249.265ZM70.4001 246.612L68.8181 246.612L68.8181 245.42L71.9334 245.42L71.9334 253.816L70.4001 253.816L70.4001 246.612ZM75.8531 253.95C75.2689 253.95 74.8674 253.61 74.8674 253.05C74.8674 252.478 75.2689 252.137 75.8531 252.137C76.4128 252.137 76.8266 252.478 76.8266 253.05C76.8266 253.61 76.4128 253.95 75.8531 253.95ZM78.8524 252.806L81.7608 250.117C82.4301 249.496 83.0386 248.803 83.0386 247.975C83.0386 247.136 82.5031 246.6 81.5539 246.6C80.4952 246.6 79.899 247.269 79.4974 247.72L78.7672 246.758C79.035 246.369 79.899 245.298 81.6756 245.298C83.4645 245.298 84.6205 246.284 84.6205 247.768C84.6205 249.204 83.4888 250.263 82.9656 250.762L81.0915 252.514L84.9734 252.514L84.9734 253.816L79.0593 253.816L78.8524 252.806ZM86.5973 252.806L89.5057 250.117C90.175 249.496 90.7835 248.803 90.7835 247.975C90.7835 247.136 90.248 246.6 89.2988 246.6C88.2401 246.6 87.6439 247.269 87.2423 247.72L86.5121 246.758C86.7799 246.369 87.6439 245.298 89.4205 245.298C91.2094 245.298 92.3654 246.284 92.3654 247.768C92.3654 249.204 91.2337 250.263 90.7105 250.762L88.8364 252.514L92.7183 252.514L92.7183 253.816L86.8042 253.816L86.5973 252.806ZM97.1411 252.636C97.8712 252.636 98.7596 252.21 98.7596 251.066C98.7596 249.934 97.9564 249.436 97.0072 249.436C96.4475 249.436 95.8877 249.618 95.4983 249.874L94.7803 249.448L95.5713 245.42L100.037 245.42L100.025 246.722L96.5692 246.722L96.1676 248.596C96.5692 248.426 97.0681 248.316 97.5792 248.316C99.1125 248.316 100.366 249.326 100.366 251.091C100.366 252.928 98.8204 253.95 97.0803 253.95C95.4861 253.95 94.4031 252.843 94.1962 252.551L95.0359 251.553C95.4618 252.088 96.1797 252.636 97.1411 252.636ZM103.268 253.95C102.683 253.95 102.282 253.61 102.282 253.05C102.282 252.478 102.683 252.137 103.268 252.137C103.827 252.137 104.241 252.478 104.241 253.05C104.241 253.61 103.827 253.95 103.268 253.95ZM110.623 249.46C111.305 249.618 112.205 250.19 112.205 251.395C112.205 253.001 110.806 253.95 109.09 253.95C107.496 253.95 106.413 252.843 106.206 252.551L107.046 251.553C107.472 252.088 108.19 252.636 109.151 252.636C110.112 252.636 110.636 252.222 110.636 251.334C110.636 250.458 109.832 250.056 108.968 250.056L108.409 250.056L108.409 248.9L109.09 248.9C109.869 248.9 110.404 248.486 110.404 247.72C110.404 247.05 109.881 246.6 109.029 246.6C108.275 246.6 107.678 246.917 107.277 247.416L106.486 246.527C106.875 246.053 107.837 245.298 109.163 245.298C110.721 245.298 111.938 246.113 111.938 247.513C111.938 248.523 111.171 249.229 110.623 249.423L110.623 249.46ZM113.574 249.63C113.574 247.428 114.62 245.298 116.969 245.298C119.317 245.298 120.352 247.428 120.352 249.63C120.352 251.833 119.317 253.962 116.969 253.962C114.608 253.962 113.574 251.833 113.574 249.63ZM118.746 249.606C118.746 247.89 118.186 246.661 116.969 246.661C115.752 246.661 115.18 247.89 115.18 249.606C115.18 251.31 115.752 252.551 116.969 252.551C118.186 252.551 118.746 251.31 118.746 249.606ZM122.699 253.95C122.115 253.95 121.714 253.61 121.714 253.05C121.714 252.478 122.115 252.137 122.699 252.137C123.259 252.137 123.673 252.478 123.673 253.05C123.673 253.61 123.259 253.95 122.699 253.95ZM129.965 246.734L125.39 246.734L125.39 245.42L131.243 245.42L131.669 246.345L127.775 253.816L126.193 253.816L129.965 246.734ZM137.254 249.46C137.935 249.618 138.835 250.19 138.835 251.395C138.835 253.001 137.436 253.95 135.72 253.95C134.126 253.95 133.043 252.843 132.836 252.551L133.676 251.553C134.102 252.088 134.82 252.636 135.781 252.636C136.742 252.636 137.266 252.222 137.266 251.334C137.266 250.458 136.463 250.056 135.599 250.056L135.039 250.056L135.039 248.9L135.72 248.9C136.499 248.9 137.034 248.486 137.034 247.72C137.034 247.05 136.511 246.6 135.659 246.6C134.905 246.6 134.309 246.917 133.907 247.416L133.116 246.527C133.505 246.053 134.467 245.298 135.793 245.298C137.351 245.298 138.568 246.113 138.568 247.513C138.568 248.523 137.801 249.229 137.254 249.423L137.254 249.46Z" fill="#526373"/>
<g filter="url(#filter2_dd_6531_35410)">
<rect x="177" y="154" width="134" height="33" rx="5.21963" fill="white"/>
<rect x="177.421" y="154.421" width="133.158" height="32.1578" rx="4.79854" stroke="#D2DCE4" stroke-width="0.842174"/>
</g>
<path d="M188.932 164.615L190.7 164.615L190.7 174L188.932 174L188.932 164.615ZM192.966 164.615L195.986 164.615C196.924 164.615 197.74 164.805 198.339 165.309C198.951 165.812 199.318 166.478 199.318 167.43C199.318 168.383 198.951 169.063 198.339 169.566C197.74 170.069 196.924 170.3 195.986 170.3L194.748 170.3L194.748 174L192.966 174L192.966 164.615ZM195.768 168.913C196.312 168.913 196.679 168.777 196.979 168.559C197.278 168.342 197.495 167.961 197.495 167.43C197.495 166.914 197.237 166.533 196.938 166.315C196.638 166.098 196.271 166.002 195.727 166.002L194.734 166.002L194.734 168.913L195.768 168.913ZM205.71 165.948L203.942 165.948L203.942 164.615L207.424 164.615L207.424 174L205.71 174L205.71 165.948ZM215.355 169.131C216.117 169.307 217.123 169.947 217.123 171.293C217.123 173.089 215.559 174.15 213.641 174.15C211.859 174.15 210.649 172.912 210.418 172.585L211.356 171.47C211.832 172.069 212.635 172.681 213.709 172.681C214.784 172.681 215.369 172.218 215.369 171.225C215.369 170.246 214.471 169.797 213.505 169.797L212.879 169.797L212.879 168.505L213.641 168.505C214.512 168.505 215.11 168.043 215.11 167.186C215.11 166.438 214.525 165.934 213.573 165.934C212.73 165.934 212.063 166.288 211.615 166.846L210.73 165.853C211.166 165.322 212.24 164.479 213.723 164.479C215.464 164.479 216.824 165.39 216.824 166.954C216.824 168.083 215.967 168.872 215.355 169.09L215.355 169.131ZM218.653 169.321C218.653 166.859 219.822 164.479 222.447 164.479C225.072 164.479 226.229 166.859 226.229 169.321C226.229 171.783 225.072 174.163 222.447 174.163C219.809 174.163 218.653 171.783 218.653 169.321ZM224.433 169.294C224.433 167.376 223.808 166.002 222.447 166.002C221.087 166.002 220.448 167.376 220.448 169.294C220.448 171.198 221.087 172.585 222.447 172.585C223.808 172.585 224.433 171.198 224.433 169.294ZM228.853 174.15C228.2 174.15 227.751 173.769 227.751 173.143C227.751 172.504 228.2 172.123 228.853 172.123C229.478 172.123 229.941 172.504 229.941 173.143C229.941 173.769 229.478 174.15 228.853 174.15ZM233.337 165.948L231.568 165.948L231.568 164.615L235.05 164.615L235.05 174L233.337 174L233.337 165.948ZM237.622 169.321C237.622 166.859 238.792 164.479 241.417 164.479C244.042 164.479 245.198 166.859 245.198 169.321C245.198 171.783 244.042 174.163 241.417 174.163C238.779 174.163 237.622 171.783 237.622 169.321ZM243.403 169.294C243.403 167.376 242.777 166.002 241.417 166.002C240.057 166.002 239.418 167.376 239.418 169.294C239.418 171.198 240.057 172.585 241.417 172.585C242.777 172.585 243.403 171.198 243.403 169.294ZM252.645 166.574C252.141 166.166 251.461 165.866 250.672 165.866C249.965 165.866 249.475 166.098 249.067 166.56C248.659 167.036 248.306 167.907 248.306 169.144C248.85 168.437 249.571 167.961 250.808 167.961C252.277 167.961 253.651 168.913 253.651 170.872C253.651 172.694 252.373 174.163 250.292 174.163C248.632 174.163 247.762 173.17 247.367 172.572C246.973 171.987 246.633 171.062 246.633 169.484C246.633 167.798 247.163 166.492 247.87 165.689C248.537 164.928 249.38 164.479 250.618 164.479C251.937 164.479 252.794 164.941 253.311 165.309L252.645 166.574ZM251.965 171.008C251.965 170.069 251.339 169.253 250.224 169.253C249.176 169.253 248.496 170.069 248.496 171.008C248.496 171.96 249.176 172.789 250.319 172.789C251.434 172.789 251.965 171.96 251.965 171.008ZM256.745 174.15C256.092 174.15 255.643 173.769 255.643 173.143C255.643 172.504 256.092 172.123 256.745 172.123C257.37 172.123 257.833 172.504 257.833 173.143C257.833 173.769 257.37 174.15 256.745 174.15ZM261.229 165.948L259.461 165.948L259.461 164.615L262.943 164.615L262.943 174L261.229 174L261.229 165.948ZM267.813 165.948L266.045 165.948L266.045 164.615L269.527 164.615L269.527 174L267.813 174L267.813 165.948ZM275.717 172.681C276.533 172.681 277.526 172.205 277.526 170.926C277.526 169.661 276.628 169.103 275.568 169.103C274.942 169.103 274.316 169.307 273.881 169.593L273.078 169.117L273.963 164.615L278.954 164.615L278.941 166.07L275.078 166.07L274.629 168.165C275.078 167.975 275.636 167.852 276.207 167.852C277.921 167.852 279.322 168.981 279.322 170.953C279.322 173.007 277.594 174.15 275.649 174.15C273.867 174.15 272.657 172.912 272.426 172.585L273.364 171.47C273.84 172.069 274.643 172.681 275.717 172.681ZM282.565 174.15C281.912 174.15 281.463 173.769 281.463 173.143C281.463 172.504 281.912 172.123 282.565 172.123C283.19 172.123 283.653 172.504 283.653 173.143C283.653 173.769 283.19 174.15 282.565 174.15ZM291.793 166.574C291.29 166.166 290.61 165.866 289.821 165.866C289.114 165.866 288.624 166.098 288.216 166.56C287.808 167.036 287.454 167.907 287.454 169.144C287.998 168.437 288.719 167.961 289.957 167.961C291.426 167.961 292.8 168.913 292.8 170.872C292.8 172.694 291.521 174.163 289.44 174.163C287.781 174.163 286.91 173.17 286.516 172.572C286.121 171.987 285.781 171.062 285.781 169.484C285.781 167.798 286.312 166.492 287.019 165.689C287.685 164.928 288.529 164.479 289.766 164.479C291.086 164.479 291.943 164.941 292.46 165.309L291.793 166.574ZM291.113 171.008C291.113 170.069 290.487 169.253 289.372 169.253C288.325 169.253 287.645 170.069 287.645 171.008C287.645 171.96 288.325 172.789 289.467 172.789C290.583 172.789 291.113 171.96 291.113 171.008ZM297.702 172.681C298.518 172.681 299.511 172.205 299.511 170.926C299.511 169.661 298.614 169.103 297.553 169.103C296.927 169.103 296.301 169.307 295.866 169.593L295.064 169.117L295.948 164.615L300.939 164.615L300.926 166.07L297.063 166.07L296.614 168.165C297.063 167.975 297.621 167.852 298.192 167.852C299.906 167.852 301.307 168.981 301.307 170.953C301.307 173.007 299.579 174.15 297.634 174.15C295.852 174.15 294.642 172.912 294.411 172.585L295.349 171.47C295.825 172.069 296.628 172.681 297.702 172.681Z" fill="#526373"/>
<g filter="url(#filter3_dd_6531_35410)">
<rect x="16.1178" y="78.2795" width="123.599" height="34.738" rx="5.38984" fill="white"/>
<rect x="16.5526" y="78.7144" width="122.729" height="33.8684" rx="4.95502" stroke="#D2DCE4" stroke-width="0.869637"/>
</g>
<path d="M27.748 90.5948L29.5739 90.5948L29.5739 100.286L27.748 100.286L27.748 90.5948ZM31.9135 90.5948L35.0315 90.5948C36.0006 90.5948 36.8433 90.7914 37.4613 91.3111C38.0933 91.8308 38.4725 92.519 38.4725 93.5021C38.4725 94.4853 38.0933 95.1875 37.4613 95.7072C36.8433 96.2269 36.0006 96.4656 35.0315 96.4656L33.7534 96.4656L33.7534 100.286L31.9135 100.286L31.9135 90.5948ZM34.8068 95.033C35.3686 95.033 35.7478 94.8926 36.0568 94.6679C36.3658 94.4431 36.5905 94.0499 36.5905 93.5021C36.5905 92.9684 36.3236 92.5751 36.0146 92.3504C35.7056 92.1257 35.3264 92.0274 34.7646 92.0274L33.7393 92.0274L33.7393 95.033L34.8068 95.033ZM43.2051 99.1201L46.5618 96.0162C47.3343 95.2999 48.0366 94.4993 48.0366 93.5443C48.0366 92.5751 47.4186 91.9572 46.3231 91.9572C45.1011 91.9572 44.4129 92.7296 43.9494 93.2493L43.1067 92.1397C43.4157 91.6903 44.4129 90.4543 46.4635 90.4543C48.5281 90.4543 49.8624 91.592 49.8624 93.3055C49.8624 94.9628 48.5562 96.1847 47.9523 96.7606L45.7893 98.7831L50.2697 98.7831L50.2697 100.286L43.4438 100.286L43.2051 99.1201ZM56.1534 98.2072L51.35 98.2072L51.35 96.8448L56.027 90.5527L57.909 90.5527L57.909 96.7325L59.2574 96.7325L59.2574 98.2072L57.909 98.2072L57.909 100.286L56.1534 100.286L56.1534 98.2072ZM56.1955 96.7606L56.1955 92.5611L53.0775 96.7606L56.1955 96.7606ZM62.1709 100.44C61.4968 100.44 61.0333 100.047 61.0333 99.401C61.0333 98.7409 61.4968 98.3477 62.1709 98.3477C62.817 98.3477 63.2945 98.7409 63.2945 99.401C63.2945 100.047 62.817 100.44 62.1709 100.44ZM66.8012 91.9712L64.9753 91.9712L64.9753 90.5948L68.5709 90.5948L68.5709 100.286L66.8012 100.286L66.8012 91.9712ZM73.6004 91.9712L71.7746 91.9712L71.7746 90.5948L75.3701 90.5948L75.3701 100.286L73.6004 100.286L73.6004 91.9712ZM79.8941 100.44C79.2199 100.44 78.7564 100.047 78.7564 99.401C78.7564 98.7409 79.2199 98.3477 79.8941 98.3477C80.5401 98.3477 81.0177 98.7409 81.0177 99.401C81.0177 100.047 80.5401 100.44 79.8941 100.44ZM88.2802 92.1117L82.9992 92.1117L82.9992 90.5948L89.7549 90.5948L90.2465 91.6622L85.7521 100.286L83.9262 100.286L88.2802 92.1117ZM95.2139 100.44C93.2476 100.44 91.6184 99.4572 91.6184 97.5752C91.6184 96.4095 92.3628 95.5387 93.4723 95.2156L93.4723 95.1735C92.7701 94.9066 91.9133 94.1903 91.9133 92.9965C91.9133 91.3392 93.4723 90.4543 95.2139 90.4543C96.9555 90.4543 98.5145 91.3392 98.5145 92.9965C98.5145 94.1903 97.6578 94.9066 96.9555 95.1735L96.9555 95.2156C98.0651 95.5387 98.8095 96.4095 98.8095 97.5752C98.8095 99.4572 97.1802 100.44 95.2139 100.44ZM95.2139 94.5555C96.0847 94.5555 96.7168 94.0639 96.7168 93.2212C96.7168 92.3926 96.0847 91.8588 95.2139 91.8588C94.3431 91.8588 93.7111 92.3926 93.7111 93.2212C93.7111 94.0639 94.3431 94.5555 95.2139 94.5555ZM95.2139 99.0078C96.169 99.0078 96.9696 98.446 96.9696 97.4347C96.9696 96.4235 96.2111 95.8336 95.2139 95.8336C94.2167 95.8336 93.4583 96.4235 93.4583 97.4347C93.4583 98.446 94.2589 99.0078 95.2139 99.0078ZM102.102 100.44C101.428 100.44 100.965 100.047 100.965 99.401C100.965 98.7409 101.428 98.3477 102.102 98.3477C102.748 98.3477 103.226 98.7409 103.226 99.401C103.226 100.047 102.748 100.44 102.102 100.44ZM105.564 99.1201L108.921 96.0162C109.693 95.2999 110.396 94.4993 110.396 93.5443C110.396 92.5751 109.778 91.9572 108.682 91.9572C107.46 91.9572 106.772 92.7296 106.308 93.2493L105.466 92.1397C105.775 91.6903 106.772 90.4543 108.823 90.4543C110.887 90.4543 112.221 91.592 112.221 93.3055C112.221 94.9628 110.915 96.1847 110.311 96.7606L108.148 98.7831L112.629 98.7831L112.629 100.286L105.803 100.286L105.564 99.1201ZM118.512 98.2072L113.709 98.2072L113.709 96.8448L118.386 90.5527L120.268 90.5527L120.268 96.7325L121.616 96.7325L121.616 98.2072L120.268 98.2072L120.268 100.286L118.512 100.286L118.512 98.2072ZM118.555 96.7606L118.555 92.5611L115.437 96.7606L118.555 96.7606ZM127.955 92.1117L122.674 92.1117L122.674 90.5948L129.429 90.5948L129.921 91.6622L125.427 100.286L123.601 100.286L127.955 92.1117Z" fill="#526373"/>
<g filter="url(#filter4_dd_6531_35410)">
<rect x="158.514" y="3.0061" width="134.142" height="37.7011" rx="5.84958" fill="white"/>
<rect x="158.986" y="3.47801" width="133.198" height="36.7573" rx="5.37767" stroke="#D2DCE4" stroke-width="0.943816"/>
</g>
<path d="M168.516 16.4823L170.498 16.4823L170.498 27L168.516 27L168.516 16.4823ZM173.037 16.4823L176.421 16.4823C177.473 16.4823 178.387 16.6957 179.058 17.2597C179.744 17.8237 180.155 18.5706 180.155 19.6376C180.155 20.7046 179.744 21.4668 179.058 22.0308C178.387 22.5947 177.473 22.8539 176.421 22.8539L175.034 22.8539L175.034 27L173.037 27L173.037 16.4823ZM176.177 21.2991C176.787 21.2991 177.198 21.1467 177.534 20.9028C177.869 20.6589 178.113 20.2321 178.113 19.6376C178.113 19.0583 177.823 18.6315 177.488 18.3877C177.152 18.1438 176.741 18.0371 176.131 18.0371L175.018 18.0371L175.018 21.2991L176.177 21.2991ZM185.292 25.7348L188.935 22.3661C189.773 21.5887 190.535 20.7198 190.535 19.6833C190.535 18.6315 189.864 17.9608 188.676 17.9608C187.349 17.9608 186.602 18.7992 186.099 19.3632L185.185 18.159C185.52 17.6712 186.602 16.3298 188.828 16.3298C191.069 16.3298 192.517 17.5645 192.517 19.4242C192.517 21.2229 191.099 22.549 190.444 23.174L188.096 25.369L192.959 25.369L192.959 27L185.551 27L185.292 25.7348ZM200.45 21.543C201.304 21.7411 202.432 22.4576 202.432 23.9666C202.432 25.9787 200.679 27.1677 198.529 27.1677C196.533 27.1677 195.176 25.7806 194.917 25.4147L195.969 24.1648C196.502 24.8355 197.401 25.5214 198.606 25.5214C199.81 25.5214 200.465 25.0032 200.465 23.8904C200.465 22.7929 199.459 22.2899 198.377 22.2899L197.676 22.2899L197.676 20.8418L198.529 20.8418C199.505 20.8418 200.176 20.3235 200.176 19.3632C200.176 18.5248 199.52 17.9608 198.453 17.9608C197.508 17.9608 196.761 18.3572 196.258 18.9821L195.267 17.8694C195.755 17.2749 196.959 16.3298 198.621 16.3298C200.572 16.3298 202.096 17.3511 202.096 19.1041C202.096 20.3693 201.136 21.2534 200.45 21.4972L200.45 21.543ZM208.398 27.1677C206.264 27.1677 204.496 26.1007 204.496 24.0581C204.496 22.7929 205.304 21.8478 206.508 21.4972L206.508 21.4515C205.746 21.1619 204.816 20.3845 204.816 19.0888C204.816 17.2902 206.508 16.3298 208.398 16.3298C210.289 16.3298 211.981 17.2902 211.981 19.0888C211.981 20.3845 211.051 21.1619 210.289 21.4515L210.289 21.4972C211.493 21.8478 212.301 22.7929 212.301 24.0581C212.301 26.1007 210.532 27.1677 208.398 27.1677ZM208.398 20.7808C209.343 20.7808 210.029 20.2473 210.029 19.3327C210.029 18.4334 209.343 17.8541 208.398 17.8541C207.453 17.8541 206.767 18.4334 206.767 19.3327C206.767 20.2473 207.453 20.7808 208.398 20.7808ZM208.398 25.6129C209.435 25.6129 210.304 25.0032 210.304 23.9057C210.304 22.8081 209.481 22.1679 208.398 22.1679C207.316 22.1679 206.493 22.8081 206.493 23.9057C206.493 25.0032 207.362 25.6129 208.398 25.6129ZM215.874 27.1677C215.143 27.1677 214.64 26.7409 214.64 26.0397C214.64 25.3233 215.143 24.8965 215.874 24.8965C216.575 24.8965 217.094 25.3233 217.094 26.0397C217.094 26.7409 216.575 27.1677 215.874 27.1677ZM220.9 17.9761L218.918 17.9761L218.918 16.4823L222.82 16.4823L222.82 27L220.9 27L220.9 17.9761ZM226.968 24.8355C227.486 25.2166 228.294 25.6281 229.331 25.6281C230.108 25.6281 230.718 25.4604 231.16 24.9269C231.663 24.3325 231.922 23.2807 231.922 21.8936C231.617 22.4728 230.809 23.2502 229.178 23.2502C227.532 23.2502 225.931 22.1679 225.931 20.0187C225.931 17.9761 227.364 16.3298 229.696 16.3298C231.48 16.3298 232.41 17.1987 232.897 17.9456C233.339 18.6011 233.797 19.8967 233.797 21.6039C233.797 23.4788 233.385 24.9879 232.577 25.9025C231.876 26.7256 230.748 27.1829 229.391 27.1829C227.623 27.1829 226.587 26.4817 226.221 26.1921L226.968 24.8355ZM231.708 19.8205C231.708 18.7687 231.022 17.8084 229.757 17.8084C228.492 17.8084 227.821 18.7687 227.821 19.8205C227.821 20.8723 228.492 21.8478 229.757 21.8478C231.022 21.8478 231.708 20.9942 231.708 19.8205ZM237.134 27.1677C236.402 27.1677 235.899 26.7409 235.899 26.0397C235.899 25.3233 236.402 24.8965 237.134 24.8965C237.835 24.8965 238.353 25.3233 238.353 26.0397C238.353 26.7409 237.835 27.1677 237.134 27.1677ZM242.159 17.9761L240.177 17.9761L240.177 16.4823L244.08 16.4823L244.08 27L242.159 27L242.159 17.9761ZM249.538 17.9761L247.556 17.9761L247.556 16.4823L251.459 16.4823L251.459 27L249.538 27L249.538 17.9761ZM259.539 24.744L254.326 24.744L254.326 23.2654L259.402 16.4365L261.444 16.4365L261.444 23.1435L262.908 23.1435L262.908 24.744L261.444 24.744L261.444 27L259.539 27L259.539 24.744ZM259.585 23.174L259.585 18.6163L256.201 23.174L259.585 23.174ZM266.07 27.1677C265.338 27.1677 264.835 26.7409 264.835 26.0397C264.835 25.3233 265.338 24.8965 266.07 24.8965C266.771 24.8965 267.289 25.3233 267.289 26.0397C267.289 26.7409 266.771 27.1677 266.07 27.1677ZM270.543 24.8355C271.062 25.2166 271.87 25.6281 272.906 25.6281C273.684 25.6281 274.293 25.4604 274.735 24.9269C275.238 24.3325 275.497 23.2807 275.497 21.8936C275.193 22.4728 274.385 23.2502 272.754 23.2502C271.107 23.2502 269.507 22.1679 269.507 20.0187C269.507 17.9761 270.94 16.3298 273.272 16.3298C275.055 16.3298 275.985 17.1987 276.473 17.9456C276.915 18.6011 277.372 19.8967 277.372 21.6039C277.372 23.4788 276.961 24.9879 276.153 25.9025C275.452 26.7256 274.324 27.1829 272.967 27.1829C271.199 27.1829 270.162 26.4817 269.797 26.1921L270.543 24.8355ZM275.284 19.8205C275.284 18.7687 274.598 17.8084 273.333 17.8084C272.068 17.8084 271.397 18.7687 271.397 19.8205C271.397 20.8723 272.068 21.8478 273.333 21.8478C274.598 21.8478 275.284 20.9942 275.284 19.8205ZM281.556 17.9761L279.574 17.9761L279.574 16.4823L283.476 16.4823L283.476 27L281.556 27L281.556 17.9761Z" fill="#526373"/>
<path d="M227.939 87.0859L227.939 127.121C227.939 127.735 227.442 128.233 226.827 128.233L144.783 128.233C144.169 128.233 143.671 128.731 143.671 129.345L143.671 137.408C143.671 138.022 143.173 138.52 142.559 138.52L109.128 138.52" stroke="#98DEF4" stroke-width="1.11207" stroke-dasharray="5.56 4.45"/>
<path d="M84.4401 155.493L84.4401 213.529C84.4401 214.144 84.938 214.641 85.5521 214.641L134.247 214.641C134.862 214.641 135.359 214.144 135.359 213.529L135.359 194.666C135.359 194.051 135.857 193.554 136.471 193.554L162.049 193.554C162.663 193.554 163.161 194.051 163.161 194.666L163.161 208.9C163.161 209.515 163.659 210.012 164.273 210.012L220.225 210.012" stroke="#98DEF4" stroke-width="1.11207" stroke-dasharray="5.56 4.45"/>
<g filter="url(#filter5_d_6531_35410)">
<circle cx="184.597" cy="128.094" r="5.00431" fill="#15C1E6"/>
</g>
<g filter="url(#filter6_d_6531_35410)">
<circle cx="102.302" cy="214.502" r="5.00431" fill="#15C1E6"/>
</g>
<path d="M247.999 229.043L247.999 265.784C247.999 266.398 247.501 266.896 246.887 266.896L202.32 266.896C201.706 266.896 201.208 267.394 201.208 268.008L201.208 283.994C201.208 284.608 200.71 285.106 200.096 285.106L126.616 285.106" stroke="#98DEF4" stroke-width="1.11207" stroke-dasharray="5.56 4.45"/>
<g filter="url(#filter7_d_6531_35410)">
<circle cx="168.138" cy="285.481" r="5.00431" fill="#15C1E6"/>
</g>
</g>
</g>
<g clip-path="url(#clip1_6531_35410)">
<mask id="mask0_6531_35410" style="mask-type:luminance" maskUnits="userSpaceOnUse" x="55" y="118" width="47" height="45">
<path d="M101.577 118.704H55.9381V162.738H101.577V118.704Z" fill="white"/>
</mask>
<g mask="url(#mask0_6531_35410)">
<path fill-rule="evenodd" clip-rule="evenodd" d="M60.3743 153.994C58.0714 151.642 56.852 148.202 57.5355 144.504C58.312 140.385 61.5657 137.067 65.6106 136.265C72.2391 134.96 78.0379 140.072 78.0379 146.557C78.0379 149.453 76.8863 152.091 75.0115 153.981L67.6995 161.404L60.3876 153.981L60.3743 153.994Z" fill="#15C1E6"/>
<path d="M98.2306 124.734C95.9129 126.488 93.6099 128.255 91.2936 130.009C90.5304 130.594 89.4454 130.404 88.9228 129.602L83.1387 120.805C82.5216 119.88 81.1827 119.88 80.5671 120.805L74.7949 129.602C74.2738 130.404 73.1887 130.594 72.4255 130.009C70.1077 128.255 67.8048 126.488 65.4885 124.734C64.6175 124.081 63.4129 124.816 63.5738 125.903C63.9753 128.527 64.3636 131.152 64.7651 133.776C64.9792 133.721 65.18 133.64 65.394 133.599C69.2914 132.837 73.2418 133.844 76.2549 136.359C77.6618 137.542 78.7852 138.983 79.5765 140.587H97.8955C98.6321 135.693 99.3821 130.798 100.119 125.903C100.278 124.816 99.0602 124.081 98.2025 124.734H98.2306Z" fill="#98DEF4"/>
<path d="M80.8256 148.729H96.2393C97.1634 148.729 97.9134 147.968 97.9134 147.03V143.292H80.5983C80.8655 144.353 81.0131 145.44 81.0131 146.555C81.0131 147.289 80.9467 148.023 80.8256 148.729Z" fill="#75D1ED"/>
</g>
</g>
<g clip-path="url(#clip2_6531_35410)">
<mask id="mask1_6531_35410" style="mask-type:luminance" maskUnits="userSpaceOnUse" x="222" y="192" width="45" height="44">
<path d="M266.477 192.732H222.28V235.376H266.477V192.732Z" fill="white"/>
</mask>
<g mask="url(#mask1_6531_35410)">
<path fill-rule="evenodd" clip-rule="evenodd" d="M226.576 226.908C224.345 224.63 223.164 221.299 223.826 217.718C224.578 213.728 227.729 210.515 231.647 209.739C238.066 208.475 243.681 213.425 243.681 219.706C243.681 222.51 242.566 225.065 240.75 226.895L233.669 234.084L226.588 226.895L226.576 226.908Z" fill="#9BACBC"/>
<path d="M263.237 198.572C260.993 200.27 258.762 201.982 256.519 203.681C255.78 204.247 254.729 204.062 254.223 203.286L248.622 194.766C248.024 193.871 246.728 193.871 246.132 194.766L240.542 203.286C240.037 204.062 238.986 204.247 238.247 203.681C236.003 201.982 233.772 200.27 231.529 198.572C230.686 197.94 229.519 198.651 229.675 199.704C230.064 202.245 230.44 204.787 230.829 207.328C231.036 207.275 231.23 207.196 231.438 207.157C235.212 206.419 239.038 207.394 241.956 209.829C243.318 210.975 244.406 212.371 245.172 213.924H262.913C263.626 209.184 264.352 204.444 265.066 199.704C265.22 198.651 264.041 197.94 263.21 198.572H263.237Z" fill="#D2DCE4"/>
<path d="M246.381 221.809H261.308C262.203 221.809 262.929 221.072 262.929 220.163V216.544H246.161C246.42 217.57 246.563 218.623 246.563 219.703C246.563 220.414 246.498 221.124 246.381 221.809Z" fill="#B8C4D0"/>
</g>
</g>
<g clip-path="url(#clip3_6531_35410)">
<mask id="mask2_6531_35410" style="mask-type:luminance" maskUnits="userSpaceOnUse" x="76" y="270" width="40" height="39">
<path d="M115.789 270.402H76.2467V308.554H115.789V270.402Z" fill="white"/>
</mask>
<g mask="url(#mask2_6531_35410)">
<path fill-rule="evenodd" clip-rule="evenodd" d="M80.0926 300.978C78.0972 298.94 77.0407 295.96 77.6329 292.756C78.3057 289.186 81.1248 286.312 84.6294 285.617C90.3725 284.486 95.3967 288.915 95.3967 294.534C95.3967 297.044 94.399 299.329 92.7746 300.966L86.4393 307.398L80.1041 300.966L80.0926 300.978Z" fill="#9BACBC"/>
<path d="M112.892 275.626C110.884 277.146 108.889 278.677 106.882 280.197C106.221 280.703 105.28 280.538 104.828 279.843L99.8162 272.221C99.2815 271.42 98.1215 271.42 97.5881 272.221L92.5869 279.843C92.1354 280.538 91.1953 280.703 90.534 280.197C88.5258 278.677 86.5305 277.146 84.5236 275.626C83.769 275.06 82.7253 275.697 82.8647 276.639C83.2126 278.913 83.549 281.186 83.8969 283.46C84.0824 283.413 84.2563 283.342 84.4418 283.307C87.8185 282.647 91.2413 283.519 93.8519 285.698C95.0709 286.723 96.0442 287.971 96.7298 289.362H112.602C113.24 285.121 113.89 280.88 114.528 276.639C114.666 275.697 113.611 275.06 112.868 275.626H112.892Z" fill="#D2DCE4"/>
<path d="M97.8127 296.416H111.167C111.968 296.416 112.618 295.756 112.618 294.944V291.705H97.6157C97.8472 292.624 97.9751 293.566 97.9751 294.531C97.9751 295.167 97.9176 295.803 97.8127 296.416Z" fill="#B8C4D0"/>
</g>
</g>
<defs>
<filter id="filter0_d_6531_35410" x="8.79308" y="-1.38873" width="309.532" height="302.128" filterUnits="userSpaceOnUse" color-interpolation-filters="sRGB">
<feFlood flood-opacity="0" result="BackgroundImageFix"/>
<feColorMatrix in="SourceAlpha" type="matrix" values="0 0 0 0 0 0 0 0 0 0 0 0 0 0 0 0 0 0 127 0" result="hardAlpha"/>
<feOffset dy="2.92989"/>
<feGaussianBlur stdDeviation="3.66236"/>
<feColorMatrix type="matrix" values="0 0 0 0 0.0941177 0 0 0 0 0.188235 0 0 0 0 0.247059 0 0 0 0.05 0"/>
<feBlend mode="normal" in2="BackgroundImageFix" result="effect1_dropShadow_6531_35410"/>
<feBlend mode="normal" in="SourceGraphic" in2="effect1_dropShadow_6531_35410" result="shape"/>
</filter>
<filter id="filter1_dd_6531_35410" x="38.2842" y="230.354" width="121.734" height="44.7419" filterUnits="userSpaceOnUse" color-interpolation-filters="sRGB">
<feFlood flood-opacity="0" result="BackgroundImageFix"/>
<feColorMatrix in="SourceAlpha" type="matrix" values="0 0 0 0 0 0 0 0 0 0 0 0 0 0 0 0 0 0 127 0" result="hardAlpha"/>
<feOffset dx="3.32841" dy="3.32841"/>
<feGaussianBlur stdDeviation="3.32841"/>
<feColorMatrix type="matrix" values="0 0 0 0 0 0 0 0 0 0.296699 0 0 0 0 0.858629 0 0 0 0.08 0"/>
<feBlend mode="normal" in2="BackgroundImageFix" result="effect1_dropShadow_6531_35410"/>
<feColorMatrix in="SourceAlpha" type="matrix" values="0 0 0 0 0 0 0 0 0 0 0 0 0 0 0 0 0 0 127 0" result="hardAlpha"/>
<feOffset/>
<feGaussianBlur stdDeviation="2.32989"/>
<feComposite in2="hardAlpha" operator="out"/>
<feColorMatrix type="matrix" values="0 0 0 0 0.0354167 0 0 0 0 0.105426 0 0 0 0 0.2125 0 0 0 0.07 0"/>
<feBlend mode="normal" in2="effect1_dropShadow_6531_35410" result="effect2_dropShadow_6531_35410"/>
<feBlend mode="normal" in="SourceGraphic" in2="effect2_dropShadow_6531_35410" result="shape"/>
</filter>
<filter id="filter2_dd_6531_35410" x="171.792" y="148.792" width="150.369" height="49.369" filterUnits="userSpaceOnUse" color-interpolation-filters="sRGB">
<feFlood flood-opacity="0" result="BackgroundImageFix"/>
<feColorMatrix in="SourceAlpha" type="matrix" values="0 0 0 0 0 0 0 0 0 0 0 0 0 0 0 0 0 0 127 0" result="hardAlpha"/>
<feOffset dx="3.72023" dy="3.72023"/>
<feGaussianBlur stdDeviation="3.72023"/>
<feColorMatrix type="matrix" values="0 0 0 0 0 0 0 0 0 0.296699 0 0 0 0 0.858629 0 0 0 0.08 0"/>
<feBlend mode="normal" in2="BackgroundImageFix" result="effect1_dropShadow_6531_35410"/>
<feColorMatrix in="SourceAlpha" type="matrix" values="0 0 0 0 0 0 0 0 0 0 0 0 0 0 0 0 0 0 127 0" result="hardAlpha"/>
<feOffset/>
<feGaussianBlur stdDeviation="2.60416"/>
<feComposite in2="hardAlpha" operator="out"/>
<feColorMatrix type="matrix" values="0 0 0 0 0.0354167 0 0 0 0 0.105426 0 0 0 0 0.2125 0 0 0 0.07 0"/>
<feBlend mode="normal" in2="effect1_dropShadow_6531_35410" result="effect2_dropShadow_6531_35410"/>
<feBlend mode="normal" in="SourceGraphic" in2="effect2_dropShadow_6531_35410" result="shape"/>
</filter>
<filter id="filter3_dd_6531_35410" x="10.7396" y="72.9014" width="140.502" height="51.6408" filterUnits="userSpaceOnUse" color-interpolation-filters="sRGB">
<feFlood flood-opacity="0" result="BackgroundImageFix"/>
<feColorMatrix in="SourceAlpha" type="matrix" values="0 0 0 0 0 0 0 0 0 0 0 0 0 0 0 0 0 0 127 0" result="hardAlpha"/>
<feOffset dx="3.84155" dy="3.84155"/>
<feGaussianBlur stdDeviation="3.84155"/>
<feColorMatrix type="matrix" values="0 0 0 0 0 0 0 0 0 0.296699 0 0 0 0 0.858629 0 0 0 0.08 0"/>
<feBlend mode="normal" in2="BackgroundImageFix" result="effect1_dropShadow_6531_35410"/>
<feColorMatrix in="SourceAlpha" type="matrix" values="0 0 0 0 0 0 0 0 0 0 0 0 0 0 0 0 0 0 127 0" result="hardAlpha"/>
<feOffset/>
<feGaussianBlur stdDeviation="2.68908"/>
<feComposite in2="hardAlpha" operator="out"/>
<feColorMatrix type="matrix" values="0 0 0 0 0.0354167 0 0 0 0 0.105426 0 0 0 0 0.2125 0 0 0 0.07 0"/>
<feBlend mode="normal" in2="effect1_dropShadow_6531_35410" result="effect2_dropShadow_6531_35410"/>
<feBlend mode="normal" in="SourceGraphic" in2="effect2_dropShadow_6531_35410" result="shape"/>
</filter>
<filter id="filter4_dd_6531_35410" x="152.677" y="-2.83081" width="152.486" height="56.0458" filterUnits="userSpaceOnUse" color-interpolation-filters="sRGB">
<feFlood flood-opacity="0" result="BackgroundImageFix"/>
<feColorMatrix in="SourceAlpha" type="matrix" values="0 0 0 0 0 0 0 0 0 0 0 0 0 0 0 0 0 0 127 0" result="hardAlpha"/>
<feOffset dx="4.16923" dy="4.16923"/>
<feGaussianBlur stdDeviation="4.16923"/>
<feColorMatrix type="matrix" values="0 0 0 0 0 0 0 0 0 0.296699 0 0 0 0 0.858629 0 0 0 0.08 0"/>
<feBlend mode="normal" in2="BackgroundImageFix" result="effect1_dropShadow_6531_35410"/>
<feColorMatrix in="SourceAlpha" type="matrix" values="0 0 0 0 0 0 0 0 0 0 0 0 0 0 0 0 0 0 127 0" result="hardAlpha"/>
<feOffset/>
<feGaussianBlur stdDeviation="2.91846"/>
<feComposite in2="hardAlpha" operator="out"/>
<feColorMatrix type="matrix" values="0 0 0 0 0.0354167 0 0 0 0 0.105426 0 0 0 0 0.2125 0 0 0 0.07 0"/>
<feBlend mode="normal" in2="effect1_dropShadow_6531_35410" result="effect2_dropShadow_6531_35410"/>
<feBlend mode="normal" in="SourceGraphic" in2="effect2_dropShadow_6531_35410" result="shape"/>
</filter>
<filter id="filter5_d_6531_35410" x="175.144" y="118.641" width="18.9052" height="18.9051" filterUnits="userSpaceOnUse" color-interpolation-filters="sRGB">
<feFlood flood-opacity="0" result="BackgroundImageFix"/>
<feColorMatrix in="SourceAlpha" type="matrix" values="0 0 0 0 0 0 0 0 0 0 0 0 0 0 0 0 0 0 127 0" result="hardAlpha"/>
<feOffset/>
<feGaussianBlur stdDeviation="2.22414"/>
<feColorMatrix type="matrix" values="0 0 0 0 0.0823529 0 0 0 0 0.756863 0 0 0 0 0.901961 0 0 0 0.8 0"/>
<feBlend mode="normal" in2="BackgroundImageFix" result="effect1_dropShadow_6531_35410"/>
<feBlend mode="normal" in="SourceGraphic" in2="effect1_dropShadow_6531_35410" result="shape"/>
</filter>
<filter id="filter6_d_6531_35410" x="92.8492" y="205.05" width="18.9052" height="18.9051" filterUnits="userSpaceOnUse" color-interpolation-filters="sRGB">
<feFlood flood-opacity="0" result="BackgroundImageFix"/>
<feColorMatrix in="SourceAlpha" type="matrix" values="0 0 0 0 0 0 0 0 0 0 0 0 0 0 0 0 0 0 127 0" result="hardAlpha"/>
<feOffset/>
<feGaussianBlur stdDeviation="2.22414"/>
<feColorMatrix type="matrix" values="0 0 0 0 0.0823529 0 0 0 0 0.756863 0 0 0 0 0.901961 0 0 0 0.8 0"/>
<feBlend mode="normal" in2="BackgroundImageFix" result="effect1_dropShadow_6531_35410"/>
<feBlend mode="normal" in="SourceGraphic" in2="effect1_dropShadow_6531_35410" result="shape"/>
</filter>
<filter id="filter7_d_6531_35410" x="158.685" y="276.028" width="18.9052" height="18.9051" filterUnits="userSpaceOnUse" color-interpolation-filters="sRGB">
<feFlood flood-opacity="0" result="BackgroundImageFix"/>
<feColorMatrix in="SourceAlpha" type="matrix" values="0 0 0 0 0 0 0 0 0 0 0 0 0 0 0 0 0 0 127 0" result="hardAlpha"/>
<feOffset/>
<feGaussianBlur stdDeviation="2.22414"/>
<feColorMatrix type="matrix" values="0 0 0 0 0.0823529 0 0 0 0 0.756863 0 0 0 0 0.901961 0 0 0 0.8 0"/>
<feBlend mode="normal" in2="BackgroundImageFix" result="effect1_dropShadow_6531_35410"/>
<feBlend mode="normal" in="SourceGraphic" in2="effect1_dropShadow_6531_35410" result="shape"/>
</filter>
<linearGradient id="paint0_linear_6531_35410" x1="202.886" y1="356.854" x2="206.25" y2="-3.0493" gradientUnits="userSpaceOnUse">
<stop stop-color="#D2DCE4"/>
<stop offset="0.379545" stop-color="#D2DCE4" stop-opacity="0.6"/>
<stop offset="1" stop-color="#D2DCE4" stop-opacity="0"/>
</linearGradient>
<clipPath id="clip0_6531_35410">
<rect width="322" height="316.78" fill="white" transform="translate(322.061 316.779) rotate(180)"/>
</clipPath>
<clipPath id="clip1_6531_35410">
<rect width="46" height="44" fill="white" transform="translate(56.1959 118)"/>
</clipPath>
<clipPath id="clip2_6531_35410">
<rect width="42.4098" height="42.3783" fill="white" transform="translate(223.215 191.338)"/>
</clipPath>
<clipPath id="clip3_6531_35410">
<rect width="39" height="40" fill="white" transform="translate(77.1959 269)"/>
</clipPath>
</defs>
</svg>
