<svg width="580" height="348" viewBox="0 0 580 348" fill="none" xmlns="http://www.w3.org/2000/svg">
<rect width="580" height="348" fill="#092349"/>
<path d="M279.161 241.266C274.598 235.791 270.254 230.854 260.807 228.84C259.253 227.186 259.474 230.584 259.214 227.12C259.604 226.697 259.624 222.818 257.478 225.055C254.898 221.534 251.182 217.271 245.417 223.893C245.578 222.265 251.86 219.592 248.704 218.102C246.995 217.008 245.528 216.291 245.54 214.659C247.613 206.324 243.924 194.403 231.023 192.547C229.127 192.704 229.62 187.012 226.612 189.235C229.962 185.382 222.723 181.846 222.514 179.786C224.892 177.155 219.418 176.487 218.902 173.454C224.974 174.171 219.17 171.05 212.041 172.692C210.83 169.722 206.831 170.758 205.035 168.391C206.361 168.051 205.072 165.571 202.461 164.928C203.35 163.873 201.701 159.93 201.17 165.137C200.295 164.575 198.374 166.465 198.134 164.698C197.831 164.934 198.208 165.032 197.017 166.239C195.603 163.426 201.342 163.917 199.013 160.713C197.424 160.175 194.472 164.676 191.714 162.451C191.105 162.488 191.431 162.692 190.47 163.797C190.155 163.24 189.762 163.02 189.332 163.062C188.011 163.124 186.393 165.638 186.1 167.952C184.709 167.821 182.75 169.066 182.088 172.164C182.464 170.675 180.499 165.267 177.374 164.812C167.655 170.665 169.955 153.165 175.249 146.526C175.039 146.297 176.868 143.746 174.066 143.193C175.681 139.253 169.847 141.531 166.073 138.811C169.64 134.693 173.406 128.943 178.134 122.582C173.806 119.544 168.75 125.19 164.526 129.256C164.156 127.651 161.824 128.68 158.819 128.654C155.869 120.314 166.28 99.3659 178.204 96.8247C178.04 96.768 177.885 96.7278 177.742 96.6698C178.663 96.3639 178.307 96.9213 179.701 95.4248C179.624 95.7051 179.602 95.5738 179.548 96.1606C181.43 94.5951 182.603 98.0932 184.682 96.7535C184.719 97.2731 183.712 100.316 186.032 98.7532C186.121 98.9511 186.062 100.026 186.782 99.2484L186.692 99.26C186.998 98.9343 186.846 99.3558 187.107 98.3336C187.168 99.754 188.5 102.21 188.321 98.2159C188.064 98.0791 189.802 98.2302 189.327 97.2615C190.688 96.0149 191.376 98.0381 193.552 96.2138C193.468 96.3876 193.391 96.8775 192.484 97.4456C193.582 98.115 194.931 96.7815 196.708 98.8782C193.884 104.245 203.252 94.6039 198.124 106.925C197.502 107.218 195.491 109.826 196.92 110.106C196.849 110.234 195.314 111.198 196.56 111.018C193.195 121.499 202.991 112.263 203.868 104.057L203.852 104.039L204.185 104.16C207.327 93.8387 220.801 94.7395 226.638 91.12C227.563 91.5002 229.068 90.8567 228.957 89.1719C229.276 89.6601 232.709 87.4077 230.571 87.0618C232.24 85.6647 233.37 82.9049 236.986 81.5035C235.294 82.5171 233.875 82.9802 233.494 85.2709C233.124 85.4892 232.451 85.1884 232.169 86.5967C232.146 86.6814 232.132 86.7827 232.122 86.8988C233.456 85.5404 236.408 86.2025 238.062 81.9925C238.524 82.357 237.406 83.7156 238.102 83.4912C238.073 83.5185 238.067 83.5381 238.058 83.5707C239.476 82.6394 242.313 82.0766 244.128 79.5785C244.052 81.103 252.591 79.9113 246.468 79.4316C247.835 78.9971 249.417 80.1837 251.307 78.8999C251.73 79.7155 250.764 79.7931 252.852 79.5947C252.454 79.8616 251.956 79.9419 251.512 80.1131C251.561 80.1957 254.321 80.6959 255.238 78.4466C254.542 78.4615 255.042 79.2064 253.533 79.1637C254.461 76.0159 258.098 76.0245 263.122 74.3809C263.289 74.6897 261.787 74.5441 261.967 75.4851C262.715 75.2042 266.081 74.9677 268.566 74.4254C269.265 74.2715 269.889 74.0983 270.379 73.8902C269.296 75.1741 271.574 74.0259 274.305 73.7152C274.03 73.9792 274.305 73.9247 272.398 74.2538C273.031 74.9075 272.535 74.7996 274.37 74.7313C273.067 75.5875 270.744 74.474 268.076 75.7304C265.073 77.4659 268.558 79.8803 272.655 76.27C272.733 76.3254 272.608 76.2578 272.93 76.656C271.482 77.1743 277.072 77.6829 280.758 76.2647C280.707 76.7615 285.584 76.3024 283.498 74.7475C286.475 73.0263 282.934 72.7213 279.621 75.606C279.472 74.8128 279.632 74.5748 277.92 75.0593C277.764 74.893 277.867 74.7801 277.196 74.522C276.254 74.3822 276.639 73.511 275.304 72.7099C275.643 71.9525 276.034 71.3204 276.634 70.7916C277.197 70.267 277.922 69.8614 278.991 69.5383C278.754 69.4067 277.145 69.2544 276.217 69.2229C276.65 68.9091 276.172 68.7851 275.091 68.3156C287.228 70.1196 279.671 62.8813 264.734 68.2105C271.953 65.4322 280.658 63.5081 288.926 66.2705C289.903 66.5942 290.882 66.9884 291.862 67.4595C294.969 66.0514 297.471 66.3869 301.353 66.1097C303.086 66.2804 305.14 63.7534 304.441 62.0836C304.092 61.1824 302.941 60.548 300.562 60.7057C301.869 60.0951 305.654 62.1541 304.127 58.9417C303.946 60.9 301.681 56.9159 301.067 58.1469C300.489 57.9967 302.421 56.4581 301.044 56.5896C301.164 56.0758 301.327 56.293 300.807 55.5428C301.204 55.5411 303.428 54.379 302.387 54.2835C303.433 53.3952 302.412 53.074 303.411 51.3631C305.083 45.3133 302.155 50.1426 295.713 50.293C295.579 50.258 296.066 49.5391 295.25 49.5438C294.29 47.5685 297.305 47.0381 298.643 45.4571L298.652 45.4245C297.264 45.5181 298.238 45.408 296.35 44.4424C296.7 44.5332 298.167 43.8941 296.922 43.8852C297.617 42.6753 290.272 39.0274 289.572 42.2903C288.446 42.3472 287.239 42.5928 285.858 44.435C281.754 43.7394 281.689 48.6972 276.407 50.0993C268.268 50.235 268.288 52.9792 261.932 56.4429C263.042 53.6009 259.769 58.7667 260.205 53.905C260.219 53.5941 260.738 53.1491 261.473 52.6552C261.758 52.4847 262.041 52.2929 262.352 52.108C265.091 50.4648 268.945 48.5172 264.65 48.331C264.605 48.2844 264.567 48.2396 264.505 48.2025C264.592 48.0992 264.666 48.0136 264.74 47.9281C264.501 47.88 264.537 47.8265 263.634 47.7316C263.961 46.8872 264.062 46.9134 262.308 45.7732C263.904 44.5878 262.059 42.2149 259.087 42.6166C259.754 42.3148 261.506 41.6099 263.126 40.2071C262.461 39.9786 262.36 39.9524 261.755 39.9769C264.155 37.8403 270.502 37.3298 275.693 36.1768C276.913 36.6895 280.873 36.8375 277.549 34.4438C278.22 34.4925 278.435 35.6944 279.76 35.8846C280.184 36.1207 280.402 35.8557 281.754 35.3687C282.229 36.5469 286.168 35.9842 287.662 35.0377C288.607 35.0384 288.834 34.8669 290.415 34.8583C288.541 35.4057 285.853 36.1329 283.179 36.9685C283.798 37.0244 284.412 37.0442 284.903 37.2765C284.894 37.3091 284.437 37.449 283.852 37.8701C284.38 38.5171 286.855 37.6996 288.757 37.4393C286.825 39.1873 294.26 39.3577 290.5 37.836C290.617 37.7266 290.832 37.8873 291.543 37.4781C291.455 37.2246 291.587 36.2248 290.752 35.9591C291.086 35.326 291.054 35.702 291.532 34.9109C291.062 34.9147 290.816 35.6752 289.888 35.7485C290.32 35.4903 290.46 35.5827 290.987 34.979C290.937 34.952 290.983 34.992 290.741 34.8243C291.056 34.6756 291.062 34.2369 291.929 34.5179C291.863 34.6265 291.706 34.9841 292.33 34.9714C291.158 35.1422 292.838 37.3322 292.72 35.0727C293.039 35.1696 292.978 35.6499 293.825 34.9336C294.473 35.6677 297.856 35.6312 299.351 33.8188C299.766 33.9614 302.522 33.4824 301.668 32.7924C301.641 32.2893 302.208 32.4787 303.055 32.2862C303.302 32.8256 304.294 33.3836 305.266 33.3356C305.303 33.3313 305.328 33.317 305.362 33.3258C305.844 33.2763 306.302 33.0808 306.67 32.6595C306.939 32.9389 306.71 32.8304 307.259 33.2175C307.064 33.3208 306.06 33.6957 307.008 33.7324C306.981 33.8302 307.004 33.8011 307.281 34.048C307.252 34.0753 307.244 34.0523 307.008 34.2563C307.153 34.3291 306.994 34.2528 307.55 34.3274C307.013 34.4185 304.171 34.8191 306.933 34.9705C306.212 35.1536 306.364 36.0385 307.575 35.333C307.476 35.482 307.43 35.3863 307.115 35.9541C305.442 35.254 306.542 38.1042 307.817 35.7102C307.825 35.8871 307.611 36.0621 308.217 36.1637C307.248 38.8115 304.656 36.063 302.766 38.7024C300.58 38.945 298.212 36.6881 295.505 38.5561C295.871 39.916 295.515 38.7822 297.432 39.5109C298.539 39.1066 298.937 40.4817 300.306 39.4677C300.381 39.7178 299.469 40.4593 300.645 40.0659C300.548 40.4949 300.435 40.1722 300.694 41.0081C299.607 41.9415 300.291 43.5374 303.275 44.7878C306.765 47.5738 304.593 43.565 305.293 42.6777C306.672 43.2666 307.142 48.3216 309.229 43.77C309.164 44.9968 310.772 44.6808 310.193 42.7068C311.37 44.2911 310.251 40.6466 309.655 40.2472C311.784 39.6893 311.99 39.8826 312.648 42.534C314.561 41.7663 322.365 42.5288 315.171 37.8651C314.887 37.5118 315.197 37.823 314.123 37.0687C314.83 36.6726 315.524 36.9786 316.941 36.7807C317.121 36.6526 315.811 36.4872 316.096 36.0302C317.04 36.9952 317.65 35.0503 316.172 35.3651C316.396 35.2836 316.699 35.1527 316.926 34.9321C316.943 34.7408 315.951 34.7836 315.28 33.8198C316.022 33.7681 314.427 32.2638 313.359 33.2859C313.477 32.9113 314.726 32.1458 312.926 31.3077C316.804 29.8697 306.335 29.3093 312.265 31.0105C311.623 31.0393 308.866 30.973 308.836 30.7695C314.119 29.1023 305.29 28.1087 303.404 30.5533C303.005 28.9194 306.368 29.269 308.221 28.7442C306.415 28.1352 303.347 27.8134 299.094 29.3779C299.256 29.965 299.64 29.0446 300.66 30.1549C297.677 28.6115 296.974 31.2866 302.187 31.8513C302.524 32.4838 301.892 32.3196 299.736 31.4102C299.637 31.5593 298.438 31.3874 298.627 32.4776C297.68 32.616 297.082 32.0415 295.538 32.5696C295.409 32.3056 293.553 32.5291 293.921 33.0999C293.653 33.1561 292.855 33.2282 292.116 33.2669C292.364 32.6816 292.277 32.5541 293.496 32.0812C293.511 32.2108 293.757 32.128 293.8 32.4954C294.317 32.1895 295.524 31.8884 295.371 30.8774C294.656 31.0409 293.958 30.8805 291.977 31.7356C292.208 31.5019 293.722 30.2742 293.748 31.0916C294.329 30.8931 294.661 31.2587 294.471 30.1194C294.082 29.9625 294.263 30.2192 293.258 30.0489C293.483 29.807 293.809 30.0874 294.488 29.7186C295.082 30.2571 296.513 29.0149 296.823 28.0262C299.084 27.6424 300.981 28.261 304.56 27.6465C303.557 27.2602 302.594 26.1018 300.545 26.8132C298.3 26.8798 295.377 27.8046 292.303 28.4175C292.333 28.4392 292.387 28.4532 292.421 28.462C291.835 28.3656 289.276 29.0704 291.451 29.5447C291.481 29.5664 291.163 29.5956 291.384 29.8415C290.459 29.9017 290.428 29.7539 288.985 29.994C289.04 30.134 289.191 30.2363 289.3 30.2856C287.713 30.8376 286.494 30.1367 284.44 31.0773C284.443 30.9873 284.457 31.0678 284.398 30.836C284.236 30.9545 284.056 31.0825 283.863 31.207C284.042 31.0299 284.161 30.9139 285.407 30.1337C285.114 30.3581 284.778 30.5851 284.465 30.8043C284.635 30.7089 285.581 30.4443 286.776 30.1888C286.667 30.1117 286.598 30.1777 286.115 29.8915C286.862 30.0854 293.156 29.0862 289.278 29.0639C289.134 28.2021 288.277 28.2241 286.912 29.0434C287.073 28.9314 287.252 28.8033 287.428 28.6883C286.73 28.8423 283.982 28.4291 286.019 29.3284C284.449 29.3748 281.2 30.6201 279.741 28.3616C279.688 28.3476 279.143 28.4926 278.939 28.1881C278.949 28.0998 280.479 28.3785 279.881 27.5175C279.931 27.5445 280.016 27.5524 280.081 27.3947C279.441 27.5987 276.998 26.1607 275.858 27.6532C275.225 27.3351 273.969 28.4623 273.122 28.2422C273.457 28.2034 274.622 27.4022 273.91 27.2171C276.572 26.7628 272.581 27.3051 270.121 26.1632C270.582 25.3325 272.295 27.0074 273.021 25.1905C271.269 25.0359 271.582 23.0421 269.218 23.1476C269.433 23.0987 269.662 23.0533 270.461 22.9255C269.746 22.3065 267.436 23.2299 267.295 22.8297C268.045 22.4097 267.441 23.1612 269.789 21.8914C269.084 21.9388 268.822 22.3111 266.667 22.1008C266.786 22.0618 266.898 22.1258 267.82 21.946C266.879 21.5967 265.43 21.6746 263.127 21.4815C263.16 21.4902 263.29 21.4891 263.377 21.3579C262.978 21.2892 263.347 21.3361 262.399 21.3485C262.637 21.0609 261.605 21.4076 261.486 21.237C261.056 21.0204 260.444 21.721 259.145 21.2578C259.29 20.7854 259.546 20.8517 260.546 20.5177C260.043 20.4358 258.586 19.0025 258.603 19.0977L258.473 19.0989C258.535 18.9263 258.59 19.199 258.941 18.7103C258.275 18.4326 258.981 18.8256 257.633 18.3845C258.155 18.4503 259.537 17.8589 257.991 18.0023C258.144 17.9164 259.207 17.6685 257.938 17.7231C259.887 17.3489 257.33 17.705 256.634 17.3286C254.805 17.2447 252.566 17.6273 248.596 17.4906C247.592 17.579 245.102 18.0082 242.74 18.9389C242.753 18.9424 242.83 18.9273 242.982 18.897C242.354 19.0832 241.223 19.551 240.238 19.2534C241.542 18.9979 240.428 19.2188 241.805 18.9056C241.518 18.9009 241.328 18.7259 239.824 19.1107C239.842 19.0455 239.81 19.1072 240.022 18.9666C238.456 19.2095 236.682 19.5244 234.27 20.4281C234.644 20.3785 234.296 20.4138 235.232 20.3635C235.124 20.4404 234.897 20.4023 234.438 20.6813C234.739 20.6338 234.62 20.6237 236.062 20.4393C236.095 20.448 236.121 20.4337 236.158 20.4294C236.121 20.4337 236.082 20.4445 236.043 20.4554C234.335 20.8712 233.251 21.1695 230.703 21.5486C230.751 21.5052 230.954 21.4742 231.45 21.2678C231.163 21.3188 230.798 21.4127 230.501 21.4962L230.51 21.4636C228.317 22.068 227.285 22.3098 223.078 23.9422C223.243 23.8942 223.435 23.8253 223.596 23.7902C223.375 23.8587 223.171 23.9454 222.952 24.0073C221.504 24.5256 219.994 25.1394 217.762 26.069C217.7 26.0876 217.638 26.1275 217.536 26.1569C217.414 26.209 217.26 26.2949 217.076 26.3868C217.496 26.2512 217.382 26.2707 218.5 25.8764C218.586 25.8286 218.687 25.7992 218.781 25.7745C218.636 25.8278 218.656 25.8331 218.5 25.8764C218.402 25.9206 218.191 26.0056 217.786 26.1659C217.972 26.1444 217.79 26.1529 218.359 26.0492C217.596 26.3053 215.023 27.167 212.8 28.2457L213.08 28.1438C213.08 28.1438 213.094 28.1473 212.973 28.2207C213.511 28.0461 214.018 27.7236 216.348 27.092L216.341 27.1951C216.217 27.2536 216.055 27.3165 215.287 27.5921C215.324 27.5108 215.274 27.5886 215.501 27.4171C214.787 27.7067 214.212 27.753 212.6 28.6828C212.693 28.6581 212.914 28.5897 213.496 28.3356C213.492 28.3486 213.509 28.3391 213.383 28.432L213.377 28.4515L213.396 28.4355C213.49 28.4108 213.905 28.2883 214.425 28.0528C214.416 28.0854 214.445 28.058 214.384 28.1471C214.952 28.0499 215.314 27.9134 216.771 27.3069L216.723 27.3503C216.926 27.347 217.749 27.1067 218.647 26.676C218.013 26.8049 217.982 26.657 216.284 27.348C217.588 26.7013 219.434 26.2518 221.393 25.5797L221.407 25.5832C221.483 25.5681 221.685 25.6205 222.39 25.3635C222.362 25.4122 222.4 25.3801 222.29 25.4634C222.559 25.4841 223.414 25.1265 224.652 24.847C224.58 24.8983 224.494 24.8969 224.24 25.0335C224.599 24.987 224.51 24.8382 226.209 24.5319C224.924 24.9039 222.787 25.3618 220.422 26.1729C220.866 26.6025 222.478 25.6727 223.489 25.9495C223.705 25.9007 223.973 25.8445 224.171 25.7773C223.862 25.9065 224.115 25.7977 223.434 26.1516C224.23 26.163 225.367 25.3891 227.977 24.9422C227.213 25.4634 227.101 25.0851 224.932 25.996C225.619 25.8598 225.144 25.9601 226.906 25.5583C226.545 25.744 226.788 25.5138 225.789 26.0018C225.893 26.0149 225.822 26.0105 226.096 26.0117C225.642 26.3481 225.765 26.0865 224.443 26.6723C224.347 26.8361 227.911 25.7286 225.698 27.4524L226.424 27.3268C225.37 27.7238 224.651 28.2916 223.34 29.2296L223.271 29.2677C223.244 29.3655 218.753 30.8541 219.312 30.9991C218.815 31.2055 218.795 31.0955 216.828 32.1079C216.948 32.195 216.83 32.234 217.195 32.1122C215.935 32.6794 214.792 33.1372 212.833 34.3053C213.403 34.2785 212.951 34.3498 214.183 33.8804C214.136 33.9729 214.1 33.8446 213.844 34.2465C214.804 33.9298 215.754 33.4918 218.051 32.4045C217.263 32.8288 215.086 33.954 213.416 34.8059L213.696 34.7041C211.281 35.9073 208.386 37.5938 205.183 39.6617C204.959 39.7432 204.833 39.6756 203.972 40.3672L204.396 40.4772C195.229 46.2362 176.363 55.2685 166.275 67.7755C165.164 68.7724 166.024 67.696 162.421 72.2033C162.272 72.4792 161.803 72.483 161 73.8746C160.986 73.9267 161.004 73.8615 160.91 74.2005C162.469 78.2107 153.597 83.2149 153.487 88.6713C153.391 88.6256 153.279 88.5615 153.182 88.5223C153.872 88.8413 152.672 90.9402 151.034 90.5845C150.413 90.4581 148.657 94.5158 149.506 95.7214C150.698 97.3797 146.657 100.446 146.166 103.162C146.166 103.162 146.209 103.138 146.329 103.043L146.338 103.192L146.449 103.13C147.412 103.115 143.984 109.673 146.212 107.534C147.752 102.484 151.831 95.6546 153.984 88.8006L154.362 88.9476C155.225 86.3979 156.212 85.1239 158.839 82.2428C159.13 82.2836 158.206 83.0985 159.439 82.9647C159.413 83.0069 158.259 84.2863 159.281 83.7971C158.896 84.2771 156.81 87.1588 155.62 89.1694C155.184 89.4406 155.146 89.5006 154.197 90.7703C154.433 90.7758 154.406 90.8736 154.862 90.6567C152.159 100.568 149.161 109.718 145.326 121.481C145.467 121.182 145.619 120.893 145.752 120.592C145.591 124.254 149.43 137.325 154.241 135.256C155.038 134.533 156.601 134.904 157.048 136.704C157.54 140.242 158.053 143.89 161.156 146.38C162.363 146.393 162.657 149.474 164.85 147.905C164.159 149.151 164.596 153.282 166.236 155.665C165.402 157.118 164.322 159.646 165.76 162.109C166.081 161.599 166.099 160.933 166.679 160.608C167.921 162.216 167.073 166.07 169.44 168.795C169.209 166.869 172.993 168.718 171.157 170.121C170.336 168.552 170.088 173.337 171.633 170.615C171.701 170.577 171.612 170.819 172.137 170.746C171.976 172.318 175.789 174.119 174.376 169.008C175.393 168.797 175.298 169.401 176.63 167.609C178.219 165.667 180.663 175.259 178.621 178.97C178.296 180.095 178.986 184.145 177.213 183.544C176.368 184.045 177.221 185.601 177.95 186.196C177.377 187.877 174.672 187.964 173.987 190.965C173.145 190.726 172.8 191.321 173.39 192.655C171.09 192.658 169.94 193.925 169.526 197.716C168.42 198.379 167.179 202.27 169.305 204.933C163.248 213.728 175.175 233.135 180.985 244.712C183.074 248.888 185.351 251.08 187.503 252.995C191.476 256.535 195.045 259.139 196.257 271.626C196.388 273.525 196.717 275.413 197.161 277.325C199.166 285.874 203.722 294.373 204.972 302.446C206.326 304.482 207.45 305.214 208.934 307.85L208.901 307.841C209.037 308.861 209.827 310.122 211.176 311.422C211.131 311.376 211.011 311.289 210.858 311.27C211.473 311.73 211.506 313.513 213.41 314.239C213.146 313.241 213.144 314.03 211.812 311.364C212.735 311.569 213.091 313.541 214.301 314.484C214.285 314.62 214.931 315.542 215.342 316.48C214.881 316.116 215.405 316.462 213.904 315.191C214.591 316.25 215.516 317.965 216.967 319.781C216.967 319.781 216.857 319.578 216.822 319.394C216.954 319.568 217.406 320.175 217.884 319.67L217.824 319.368C218.132 319.762 218.562 320.035 219.213 321.042C219.159 321.028 219.154 320.943 218.386 320.618C218.427 320.678 218.353 320.609 218.711 321.087C218.697 321.083 218.661 321.06 218.591 320.999C219.284 323.08 222.751 325.036 224.632 327.02C224.633 326.964 224.641 326.987 224.648 326.828C224.648 326.828 224.684 326.907 225.049 327.282C225.045 327.246 225.073 327.274 224.935 327.042C225.074 327.114 224.979 327.068 225.306 327.265L225.326 327.27L225.33 327.257C225.398 327.4 225.616 327.345 225.97 327.758C225.835 327.723 225.917 327.689 225.443 327.552C225.501 327.553 225.618 327.912 225.924 327.977C226.009 327.929 226.541 328.431 226.581 328.232C226.602 328.237 226.644 328.395 226.876 328.469L226.88 328.456C226.981 328.482 226.89 328.549 227.491 328.929C227.482 328.913 227.491 328.88 227.505 328.828C227.593 328.9 227.541 328.907 227.869 329.076L227.853 329.002C227.817 328.923 228.068 329.268 228.56 329.521L228.789 329.685L228.768 329.631L229.04 329.821C229.04 329.821 229.02 329.815 229.032 329.77C229.115 329.861 229.02 329.815 229.362 329.96C229.453 330.019 229.406 330.007 229.677 330.147C229.677 330.147 229.638 330.081 229.592 329.985C229.967 330.222 229.758 330.168 230.512 330.594C230.507 330.537 230.535 330.565 230.444 330.451C230.984 330.871 231.784 331.183 232.632 331.585L232.349 331.302C232.5 331.355 232.867 331.856 233.255 331.887C233.16 331.708 233.246 331.919 232.71 331.431C232.757 331.443 232.938 331.651 232.944 331.366C233.003 331.416 233.164 331.563 233.206 331.28C228.292 328.355 222.969 321.822 223.183 316.589C222.849 316.285 222.358 316.158 222.092 315.739C224.949 316.146 222.551 316.424 220.244 312.513C220.69 312.804 221.748 313.435 222.523 313.58C223.56 313.815 224.089 313.232 221.922 309.91C229.331 313.539 229.136 307.018 224.475 302.579C226.677 303.661 233.708 308.786 233.704 299.883C234.237 299.337 234.292 297.702 236.136 297.706C234.254 304.826 239.726 290.219 242.15 286.9C242.596 286.877 244.737 285.078 247.113 286.443C247.264 285.113 247.09 285.612 250.185 284.767C253.67 285.798 256.203 286.54 258.145 281.811C263.33 278.644 259.68 267.208 267.557 263.35C282.8 255.872 289.178 245.21 279.102 241.272L279.161 241.266ZM299.274 60.7485C299.73 60.4826 299.497 60.9323 300.043 60.9133C299.499 61.0583 298.293 61.353 297.764 60.9711C298.286 60.9322 298.767 60.8123 299.274 60.7485ZM285.286 33.519C285.538 33.5984 285.924 33.6358 286.244 33.7818C286.63 33.8962 286.916 34.166 286.848 34.7494C286.355 34.761 285.583 34.4766 286.364 33.8689C286.319 33.8223 286.298 33.7958 286.244 33.7818C286.076 33.7381 285.757 33.8999 285.03 33.4526L285.286 33.519ZM188.376 96.5043C188.724 96.0287 188.944 96.4072 189.09 97.1299C188.835 97.0079 188.889 97.2036 188.339 96.5086L188.376 96.5043ZM168.012 156.49C167.815 156.865 167.542 155.634 166.336 155.67C166.466 155.277 167.19 150.232 168.036 156.482L168.019 156.491L168.012 156.49ZM196.808 166.995C196.456 168.399 198.789 170.57 195.837 171.941C194.39 171.412 195.001 168.81 196.808 166.995ZM298.671 45.4854C298.617 45.681 298.735 45.5159 298.671 45.4854V45.4854Z" fill="url(#paint0_radial_12240_18658)"/>
<path d="M395.462 54.477C395.514 54.5034 395.526 54.5066 395.514 54.5034L395.451 54.4678C395.451 54.4678 395.457 54.4693 395.463 54.4709L395.462 54.477Z" fill="url(#paint1_linear_12240_18658)"/>
<path d="M422.016 83.0269C415.377 73.7881 407.539 64.8584 398.437 56.2699C398.106 55.975 397.735 55.6485 397.236 55.2406C397.538 55.563 397.356 55.3204 398.069 55.9795C398.108 56.0455 398.195 56.1168 398.334 56.2574L398.213 56.1776C398.45 56.4273 398.257 56.2239 398.818 56.7668L398.698 56.687C398.799 56.783 398.671 56.8341 399.379 57.5129C398.919 57.3461 398.652 56.8503 397.59 55.9616C397.864 56.3821 397.847 56.3148 398.596 57.1021C398.558 57.0575 398.481 57.0026 398.391 56.9444C398.756 57.5493 398.444 57.0842 399.352 58.1925L399.232 58.1618C399.501 58.6019 400.279 59.2076 401.216 60.3654C401.196 60.3603 401.063 60.3262 400.764 60.1233C400.29 59.5747 400.02 59.7014 399.174 58.6232C399.184 58.6397 399.232 58.6729 399.318 58.6951C398.983 58.2379 397.788 57.189 396.491 56.5764C397.215 57.3782 397.825 57.6399 399.319 59.1997C399.31 59.1832 399.27 59.173 399.237 59.1644C400.586 60.4279 400.594 60.1429 401.94 61.6717C401.004 60.9203 401.883 61.622 400.464 60.6069C400.978 61.7751 402.661 63.3205 403.751 64.6714C403.7 64.9035 400.653 62.2241 401.949 63.754L401.915 63.7455C402.084 64.16 402.799 64.4833 404.277 65.7939C401.892 64.9723 399.931 62.0039 396.995 59.7384C400.682 62.1965 402.525 62.0527 396.603 57.5015C396.597 57.5211 396.631 57.5296 396.664 57.6643C395.368 56.9256 394.427 55.8579 392.13 54.8487C392.188 54.9476 392.084 54.886 392.487 55.3045C392.014 55.0081 391.421 54.3797 390.317 53.6413C390.371 53.8302 390.321 53.6773 390.557 54.0532C390.258 53.8504 389.756 54.345 389.507 53.3776L389.627 53.4083C389.123 52.7119 388.623 52.6398 387.288 51.786C387.323 51.865 387.355 51.9292 387.395 51.9886C387.203 51.8343 386.884 51.6263 386.396 51.3823C386.383 51.428 386.688 51.5621 387.225 52.4423C386.875 52.1423 387.148 52.2613 386.234 51.5019C386.753 52.2464 387.065 52.7094 387.171 52.8906C386.668 52.3696 387.252 52.8554 385.666 51.2161C385.677 51.303 385.653 51.2127 385.749 51.5036C385.659 51.4453 385.606 51.4317 385.29 51.2107C385.588 51.6232 385.434 51.4087 386.1 52.1607C385.937 52.0281 386.113 52.1641 385.66 51.8729C385.66 51.8729 385.638 51.9022 385.661 51.9991C385.573 51.8016 385.272 51.5283 384.712 51.6718C384.755 51.8229 385.09 51.9229 385.85 52.5449C385.745 52.4619 385.556 52.3224 385.372 52.5974C385.228 52.5255 385.315 52.5477 384.971 52.2985C385.16 52.592 385.109 52.39 385.711 53.3708C384.846 52.1613 383.733 52.0371 385.652 54.091C385.092 53.5972 384.026 52.8477 385.598 54.5885C385.541 54.5388 385.422 54.4524 385.068 54.1654L385.27 54.5885C385.141 54.5905 384.997 53.783 384.381 53.7932C383.968 53.7924 382.537 53.9927 383.061 54.7433C383.479 55.3618 384.91 57.858 385.628 55.4226C386.412 56.1349 386.71 57.6893 387.691 59.3275C387.61 59.2366 387.667 59.2863 387.412 59.1019C387.476 59.4334 388.361 60.1926 388.569 61.1776C388.516 61.164 388.51 61.0575 388.3 60.9194L388.538 61.3657L388.12 61.3075C388.614 61.5254 389.229 62.7897 388.738 63.0698C388.821 63.3573 388.768 63.2175 389.005 63.8457C388.586 63.7383 388.987 63.9111 388.212 63.2153C388.167 63.5048 388.29 63.2701 388.46 63.9861C388.346 63.9358 388.317 63.8585 387.807 63.3914C387.922 64.0724 388.219 63.7772 388.877 65.1435C388.675 65.0219 388.833 65.0972 388.097 64.5935C388.234 64.9438 388.086 64.7097 388.532 65.4055C388.455 65.4768 388.392 65.1452 388.047 65.281C388.06 65.2845 388.009 65.4183 388.089 65.768C388.004 65.6902 388.037 65.6987 387.788 65.4947C387.774 65.5961 387.853 65.4413 387.612 66.045C387.494 65.9095 387.608 66.0089 387.22 65.6643C387.437 66.0351 387.672 66.4666 387.944 66.9215C388.898 68.6299 390.103 70.788 391.5 72.645C391.514 72.5927 391.496 72.6581 391.589 72.4018C391.656 72.468 391.652 72.4319 392.031 72.8092C391.393 72.7717 395.052 78.7108 396.049 74.0846C395.985 73.8022 395.905 73.4524 395.799 73.1942C397.759 75.5319 399.096 76.8411 401.618 80.8357L401.446 80.7357C401.416 80.9729 401.398 81.2906 401.443 81.5122C399.999 80.0282 401.729 84.3311 403.157 84.9843C403.833 84.0442 402.747 84.207 402.69 82.5043C403.482 83.0578 405.019 84.6704 403.868 81.679C404.519 81.6707 403.97 81.6488 405.038 81.979C405.033 81.8724 405.119 81.8946 404.901 81.4534C404.945 81.4997 405.059 81.5991 405.246 81.8222C405.187 81.6528 404.965 80.4613 404.137 79.1424C404.135 79.3521 404.171 79.6064 404.205 79.7902C403.388 78.4321 403.433 78.3244 402.129 75.9311C402.361 75.8154 402.139 75.9475 402.475 75.2072C402.598 75.2248 402.561 75.1032 402.757 75.2935C402.499 73.7985 401.065 72.7095 399.637 71.3208C399.011 70.7329 398.408 70.088 397.901 69.3277L398.006 69.3337C396.839 67.1153 395.673 64.1549 394.711 61.2538C395.418 61.6803 395.591 61.4444 396.937 62.9732C396.667 62.792 396.937 62.9732 396.235 62.401C396.876 63.5739 397.24 63.7512 397.908 65.9678C397.842 65.9508 397.866 65.992 397.756 65.9286C398.793 67.8475 400.584 70.2818 402.973 72.6385C403.012 72.7044 403.044 72.7686 403.083 72.8067C403.329 73.1499 403.677 73.2533 404.098 73.2772C405.182 73.3241 406.714 72.7152 408.102 74.1429C407.906 74.4637 407.858 74.8367 407.715 75.0171C407.566 75.245 407.272 75.1978 406.397 74.483C406.397 74.6091 406.377 74.758 406.357 74.879C406.2 74.8037 406.034 74.8872 405.849 75.3441C405.916 75.6134 406.109 75.943 406.244 76.1737C406.143 76.0777 406.016 75.9683 405.9 75.8754C406.147 76.8493 405.62 77.0013 406.977 78.4909C406.972 78.4336 406.797 77.9125 407.098 77.7304C407.012 77.4772 406.84 77.1741 406.712 76.9451C407.321 77.2624 406.815 76.9576 407.94 77.8764C407.94 77.8764 407.92 77.8221 407.886 77.6875C408.139 78.5648 409.01 78.7111 409.492 80.6556C404.798 76.7556 409.844 82.3989 409.736 85.1517C410.028 87.7479 410.167 84.1206 406.014 86.7887C405.577 86.1864 405.728 86.4631 404.489 84.9337C404.394 84.9656 404.628 85.2005 404.23 85.3997C404.346 85.5696 403.358 85.5122 403.33 86.1705C400.972 84.7954 399.981 80.472 397.614 76.7624C397.444 76.4035 397.85 78.4128 397.06 77.6988C396.608 78.5494 397.799 82.2867 399.862 83.9504C399.752 84.8536 400.847 84.8334 400.581 86.4461C400.256 86.2577 399.163 85.0459 399.307 86.6447C398.599 86.477 397.365 85.7193 397.496 87.539L397.424 87.4154C397.375 87.718 398.096 91.0197 395.443 91.4879C395.835 92.1488 394.306 92.9755 394.412 95.1177C393.282 95.5143 392.841 94.4697 391.427 93.4349C390.511 93.375 394.513 97.3778 391.008 96.5351C390.559 96.0277 390.919 96.0149 388.297 95.7839C387.023 96.7459 389.604 98.1642 391.711 99.776C391.711 99.776 391.768 99.7766 391.972 99.682C391.978 99.7885 398.571 110.745 393.253 110.474C390.649 110.563 386.259 106.902 383.155 108.522C383.05 111.01 382.403 119.143 383.16 124.177C383.183 125.773 381.262 127.9 386.323 127.103C390.355 132.094 386.243 130.9 395.955 130.771C396.672 130.374 396.025 128.919 398.303 128.852C397.451 127.491 399.545 126.656 399.605 125.347C397.265 123.27 399.376 119.37 403.37 117.348C401.878 113.463 403.41 112.728 408.452 114.568C409.785 107.493 412.61 117.504 413.119 116.577C413.785 117.455 414.273 118.792 415.516 119.671C415.671 120.719 416.865 121.572 418.343 122.756C419.334 124.916 422.55 126.917 422.659 130.244C423.035 132.665 420.264 131.443 419.021 131.531C418.934 131.382 419.011 131.514 418.765 131.094C418.126 132.919 424.492 141.353 422.595 132.531C422.596 132.581 422.836 133.07 423.248 133.329C423.408 133.139 423.213 132.69 423.523 132.146C423.559 132.141 423.489 132.137 423.698 132.282C423.888 131.91 423.411 131.501 423.696 130.432C425.287 129.433 421.9 128.144 422.803 125.378C423.087 125.381 422.824 126.118 423.888 126.286C428.433 129.903 414.192 115.416 413.3 109.697C414.573 108.79 414.175 109.781 415.781 112.112L415.846 111.673C415.777 111.922 417.138 113.321 416.613 112.066C419.551 117.96 424.527 119.629 426.574 127.865C426.525 127.838 426.637 127.895 426.341 127.679C426.556 129.023 428.15 130.377 429.235 132.966C429.225 132.95 429.212 132.87 429.277 132.69C429.358 132.606 429.72 132.965 430.156 133.216C430.508 133.433 430.914 133.586 431.23 133.401C431.622 133.908 430.997 134.154 432.509 134.66C432.456 134.542 432.533 134.702 432.112 133.711C432.304 133.915 432.223 133.95 432.937 134.658C432.532 132.39 429.975 130.376 429.005 126.485C431.376 129.418 428.743 124.548 431.862 125.824C431.894 126.855 432.804 126.1 432.958 128.045C432.652 127.735 432.686 131.001 433.958 131.698C434.014 131.117 433.829 131.014 433.798 130.158C433.888 130.602 434.426 131.097 434.268 132.499C434.248 132.494 434.276 132.396 434.181 132.351C434.186 132.387 434.111 132.347 434.122 132.742C434.122 132.742 434.002 132.662 433.703 132.508C433.753 133.474 433.479 132.542 434.258 134.163C434.276 134.098 434.313 133.967 434.229 133.505C434.478 133.835 434.254 134.001 434.888 134.815C434.888 134.815 434.877 134.777 434.932 134.581C435.209 134.687 435.148 135.029 435.714 135.174C435.647 135.157 435.577 135.153 435.477 135.127L435.563 135.535C435.563 135.535 435.324 135.319 435.069 134.932C435.171 135.154 434.655 135.316 435.494 136.238C435.523 136.26 435.436 136.139 435.587 136.108C435.754 136.151 435.414 136.855 436.225 137.42C436.152 137.808 435.98 138.345 436.137 139.793C436.346 139.251 436.204 139.81 436.44 138.127C436.473 138.135 436.475 138.206 436.849 138.141L436.847 138.455L436.76 138.384C436.784 138.474 436.246 138.743 436.735 139.54C437.456 139.41 436.919 138.425 437.343 141.72C437.622 141.617 437.382 140.232 437.527 138.952C437.629 139.223 437.523 138.965 437.903 139.721L438.08 139.395C438.094 140.491 439.976 144.02 439.511 139.272C440.332 139.216 440.705 142.309 441.999 141.71C442.048 141.736 442.019 141.764 442.176 141.79C442.21 141.287 442.186 140.455 442.234 139.725C442.421 140.074 443.071 141.137 442.976 139.824C443.508 143.876 446.762 153.248 444.243 157.308C443.804 159.129 442.871 153.454 441.781 156.887C441.733 156.854 441.773 156.864 441.653 156.784C441.454 156.782 441.779 157.048 440.961 158.035C438.099 156.755 429.633 142.307 431.078 156.664C430.9 160.757 423.476 149.076 417.757 144.668C415.971 144.581 417.963 138.361 416.957 133.964C415.616 133.816 413.749 132.875 411.05 133.227C410.439 133.932 410.344 131.141 409.76 132.896C409.655 133.577 408.32 132.212 408.2 133.939C405.849 128.825 397.518 136.768 394.46 134.38C391.723 136.851 389.247 128.112 387.93 134.162C387.491 136.445 384.879 137.449 381.847 139.627C378.761 142.149 382.551 148.689 374.704 152.412C370.789 152.956 367.272 157.146 364.033 163.011C362.954 163.911 354.816 172.694 357.651 173.688C360.815 182.617 348.988 193.045 350.258 202.455C349.999 204.524 352.682 203.391 352.557 205.517C352.697 208.984 355.944 210.875 355.196 215.172C354.573 219.712 358.243 223.987 360.89 228.679C362.25 229.7 360.906 234.321 365.449 232.881C373.26 228.805 374.307 237.583 383.864 232.462C384.417 233.234 386.693 231.444 388.095 231.754C396.999 231.306 386.837 241.818 398.018 239.881C397.922 240.297 397.372 243.077 398.758 241.969C397.702 247.14 391.623 251.569 390.079 257.337C385.795 273.398 381.052 283.031 366.731 296.616C356.875 305.96 345.989 322.366 329.722 329.59C329.942 329.646 329.722 329.59 330.386 329.459C330.126 329.497 330.23 329.811 329.51 330.271C329.875 330.315 329.872 330.329 329.981 330.321C330.095 330.295 330.345 330.24 331.194 330.086C331.181 330.132 331.207 330.09 331.054 330.204C331.452 330.257 331.48 330.209 331.736 330.134C331.988 330.073 332.462 329.984 333.795 329.955C333.865 330.267 333.628 330.297 334.565 330.082C334.591 330.194 334.432 330.048 334.457 330.419C334.737 330.385 334.51 330.432 335.712 330.159L335.777 330.386C341.857 329.41 357.942 323.036 363.264 319.505C363.26 319.518 363.302 319.444 363.184 319.484C369.491 316.682 374.211 314.327 381.397 308.004L381.388 308.036C398.912 299.657 410.719 282.71 423.248 266.494L423.248 266.543C425.065 264.277 430.824 255.241 430.662 255.235C437.454 246.477 455.092 207.282 451.365 162.686C449 134.393 439.702 107.6 421.991 82.9922L422.016 83.0269ZM435.941 135.225C435.975 135.234 436.028 135.248 436.078 135.247C436.036 135.271 436.021 135.246 435.941 135.225Z" fill="url(#paint2_radial_12240_18658)"/>
<path d="M396.475 55.4277C396.804 55.7377 397.119 56.0508 397.448 56.3608C397.775 56.6559 398.074 56.9226 398.379 57.1911C397.932 56.7102 397.615 56.5092 397.578 56.4363C396.798 55.6585 396.63 55.5381 396.475 55.4277Z" fill="url(#paint3_linear_12240_18658)"/>
<path d="M395.469 54.4818C395.419 54.4549 395.333 54.4045 395.197 54.2992C395.334 54.426 395.192 54.3189 395.609 54.701C395.234 54.4002 395.066 54.1526 393.938 53.3838C394.243 53.6526 394.774 54.1414 396.062 55.1347L396.07 55.1083C396.269 55.2935 396.361 55.3522 396.457 55.4192C396.12 55.1072 395.808 54.7872 395.464 54.4735L395.469 54.4818Z" fill="url(#paint4_linear_12240_18658)"/>
<path opacity="0.3" fill-rule="evenodd" clip-rule="evenodd" d="M189.476 267.565C186.531 264.62 184.709 260.552 184.709 256.058C184.709 247.072 191.993 239.788 200.979 239.788C209.965 239.788 217.249 247.072 217.249 256.058C217.249 260.552 215.427 264.62 212.482 267.564L212.484 267.567L200.979 279.071L189.475 267.567L189.476 267.565Z" fill="#15C1E6"/>
<path fill-rule="evenodd" clip-rule="evenodd" d="M390.258 61.7209C388.568 60.0323 387.523 57.6991 387.523 55.1218C387.523 49.9686 391.701 45.791 396.854 45.791C402.008 45.791 406.185 49.9686 406.185 55.1218C406.185 57.6989 405.14 60.0321 403.451 61.7207L403.452 61.7219L396.854 68.3198L390.257 61.7219L390.258 61.7209Z" fill="#15C1E6"/>
<path fill-rule="evenodd" clip-rule="evenodd" d="M390.038 263.547C388.547 262.056 387.625 259.997 387.625 257.722C387.625 253.174 391.312 249.487 395.86 249.487C400.408 249.487 404.095 253.174 404.095 257.722C404.095 259.997 403.173 262.056 401.682 263.546L401.683 263.548L395.86 269.371L390.037 263.548L390.038 263.547Z" fill="#15C1E6"/>
<path opacity="0.7" fill-rule="evenodd" clip-rule="evenodd" d="M195.058 172.721C193.567 171.231 192.645 169.172 192.645 166.897C192.645 162.349 196.332 158.662 200.88 158.662C205.428 158.662 209.115 162.349 209.115 166.897C209.115 169.172 208.193 171.231 206.702 172.721L206.703 172.722L200.88 178.545L195.057 172.722L195.058 172.721Z" fill="#15C1E6"/>
<path opacity="0.7" fill-rule="evenodd" clip-rule="evenodd" d="M432.663 123.213C430.4 120.964 429 117.857 429 114.425C429 107.563 434.596 102 441.5 102C448.404 102 454 107.563 454 114.425C454 117.857 452.6 120.964 450.338 123.212L450.339 123.214L441.5 132L432.661 123.214L432.663 123.213Z" fill="#15C1E6"/>
<path fill-rule="evenodd" clip-rule="evenodd" d="M335.672 182.179C331.55 178.059 329 172.365 329 166.076C329 153.5 339.194 143.306 351.77 143.306C364.346 143.306 374.54 153.5 374.54 166.076C374.54 172.365 371.99 178.058 367.868 182.179L367.871 182.182L351.771 198.283L335.67 182.182L335.672 182.179Z" fill="#15C1E6"/>
<path opacity="0.7" fill-rule="evenodd" clip-rule="evenodd" d="M173.603 63.8675C170.658 60.9231 168.836 56.8547 168.836 52.3608C168.836 43.3751 176.12 36.0908 185.106 36.0908C194.092 36.0908 201.376 43.3751 201.376 52.3608C201.376 56.8545 199.554 60.9227 196.609 63.8671L196.611 63.8693L185.106 75.3739L173.602 63.8693L173.603 63.8675Z" fill="#15C1E6"/>
<path fill-rule="evenodd" clip-rule="evenodd" d="M260.849 68.259C259.027 66.4381 257.9 63.9223 257.9 61.1433C257.9 55.5866 262.405 51.082 267.962 51.082C273.518 51.082 278.023 55.5866 278.023 61.1433C278.023 63.9222 276.896 66.4379 275.075 68.2587L275.076 68.26L267.962 75.3744L260.848 68.26L260.849 68.259Z" fill="#15C1E6"/>
<defs>
<radialGradient id="paint0_radial_12240_18658" cx="0" cy="0" r="1" gradientUnits="userSpaceOnUse" gradientTransform="translate(93.2388 82.2385) rotate(8.17489) scale(284.737 322.138)">
<stop stop-color="#15C1E6"/>
<stop offset="0.869792" stop-color="#15C1E6" stop-opacity="0"/>
</radialGradient>
<linearGradient id="paint1_linear_12240_18658" x1="395.506" y1="54.4848" x2="395.501" y2="54.5018" gradientUnits="userSpaceOnUse">
<stop stop-color="#15C1E6"/>
<stop offset="1" stop-color="#15C1E6" stop-opacity="0"/>
</linearGradient>
<radialGradient id="paint2_radial_12240_18658" cx="0" cy="0" r="1" gradientUnits="userSpaceOnUse" gradientTransform="translate(528.6 124.919) rotate(148.448) scale(220.943 165.874)">
<stop stop-color="#15C1E6"/>
<stop offset="1" stop-color="#15C1E6" stop-opacity="0"/>
</radialGradient>
<linearGradient id="paint3_linear_12240_18658" x1="398.172" y1="56.0445" x2="397.693" y2="57.1012" gradientUnits="userSpaceOnUse">
<stop stop-color="#15C1E6"/>
<stop offset="1" stop-color="#15C1E6" stop-opacity="0"/>
</linearGradient>
<linearGradient id="paint4_linear_12240_18658" x1="396.134" y1="54.1448" x2="395.64" y2="55.3138" gradientUnits="userSpaceOnUse">
<stop stop-color="#15C1E6"/>
<stop offset="1" stop-color="#15C1E6" stop-opacity="0"/>
</linearGradient>
</defs>
</svg>
