<svg width="84" height="84" viewBox="0 0 84 84" fill="none" xmlns="http://www.w3.org/2000/svg">
<path d="M76.9607 0H7.03934C3.15162 0 0 3.15162 0 7.03934V76.9607C0 80.8484 3.15162 84 7.03934 84H76.9607C80.8484 84 84 80.8484 84 76.9607V7.03934C84 3.15162 80.8484 0 76.9607 0Z" fill="white"/>
<path d="M24.889 28.4907H52.1348L56.8323 66.0711H20.1915L24.889 28.4907Z" fill="#9FC0FF"/>
<path d="M52.1313 28.5338L58.2381 26.1851L62.9356 63.7654L56.8288 66.1142L52.1313 28.5338Z" fill="#3D7FFC"/>
<path d="M31.0014 26.1851H58.2472L52.1404 28.5338H24.8946L31.0014 26.1851Z" fill="#C6DBFF"/>
<path fill-rule="evenodd" clip-rule="evenodd" d="M34.3044 25.6319C33.2563 28.8955 32.9778 32.8686 33.0539 35.5338L30.8174 35.5977C30.7369 32.7824 31.0221 28.5349 32.1741 24.9478C33.2945 21.4588 35.4539 18.0056 39.4517 18.0056C41.4193 18.0056 42.9553 18.8687 44.0906 20.1952C45.1964 21.4873 45.9198 23.2092 46.3938 25.0043C47.3426 28.5978 47.3846 32.848 47.1435 35.6612L44.9143 35.4702C45.1428 32.803 45.0905 28.8325 44.2305 25.5755C43.8001 23.9453 43.1904 22.5844 42.3907 21.65C41.6205 20.7501 40.6785 20.2431 39.4517 20.2431C37.0608 20.2431 35.3839 22.2704 34.3044 25.6319Z" fill="#FECE4D"/>
</svg>
