<svg width="47" height="47" viewBox="0 0 47 47" fill="none" xmlns="http://www.w3.org/2000/svg">
<g clip-path="url(#clip0_12833_6423)">
<path d="M37.5 33.8L34.29 36.42L35.58 38L38.79 35.3801L37.5 33.8Z" fill="#3D7FFC"/>
<path d="M35.15 38.31L39.15 35.04L45.66 42.57C46.56 43.67 46.4 45.3 45.3 46.2C44.2 47.1 42.57 46.94 41.67 45.84L35.16 38.31H35.15Z" fill="#C6DBFF"/>
<path d="M19.24 14.96C17.23 16.6 15.76 18.8 15 21.28C14.24 23.76 14.24 26.41 14.99 28.9C15.74 31.38 17.21 33.59 19.21 35.24C21.21 36.89 23.66 37.91 26.24 38.17C28.82 38.43 31.42 37.92 33.71 36.7C36 35.48 37.88 33.61 39.1 31.32C40.33 29.03 40.85 26.44 40.6 23.85C40.35 21.27 39.34 18.82 37.7 16.81C36.61 15.48 35.27 14.37 33.75 13.56C32.23 12.75 30.57 12.24 28.85 12.07C27.14 11.9 25.4 12.07 23.76 12.56C22.11 13.06 20.58 13.87 19.24 14.96ZM34.02 33.03C32.45 34.31 30.54 35.1 28.53 35.29C26.52 35.49 24.49 35.08 22.71 34.12C20.93 33.16 19.47 31.7 18.52 29.91C17.57 28.12 17.17 26.1 17.37 24.08C17.57 22.07 18.37 20.16 19.65 18.6C20.94 17.04 22.66 15.89 24.59 15.31C26.53 14.73 28.59 14.73 30.53 15.32C32.47 15.91 34.18 17.06 35.46 18.63C37.18 20.73 37.99 23.43 37.72 26.12C37.45 28.82 36.12 31.3 34.02 33.02V33.03Z" fill="#FECE4D"/>
<path d="M4.38 8.67C7.3 9.68 10.85 10.18 14.98 10.18C19.11 10.18 22.63 9.68 25.55 8.67C28.47 7.68 29.93 6.48 29.93 5.09C29.93 3.7 28.47 2.5 25.55 1.49C22.63 0.5 19.12 0 14.98 0C10.84 0 7.3 0.5 4.38 1.49C1.46 2.5 0 3.7 0 5.09C0 6.48 1.46 7.68 4.38 8.67Z" fill="#3D7FFC"/>
<path d="M14.98 19.63C15.21 19.63 15.42 19.63 15.65 19.62C16.48 17.82 17.71 16.23 19.25 14.97C20.58 13.88 22.12 13.06 23.77 12.57C25.42 12.07 27.15 11.91 28.86 12.08C29.21 12.11 29.55 12.17 29.89 12.24V8.87996C29.13 9.32996 28.14 9.75996 26.91 10.17C23.61 11.32 19.65 11.9 14.98 11.9C10.31 11.9 6.31 11.32 3 10.17C1.76 9.74996 0.76 9.30996 0 8.82996V16.57C0.76 17.04 1.76 17.49 3 17.91C6.31 19.06 10.32 19.64 14.98 19.64V19.63Z" fill="#9FC0FF"/>
<path d="M19.21 35.2399C17.86 34.1299 16.77 32.7699 15.96 31.2399C15.63 31.2399 15.31 31.2599 14.98 31.2599C10.3 31.2599 6.31 30.6799 3 29.5299C1.76 29.1099 0.76 28.6699 0 28.1899V35.9299C0.76 36.3999 1.76 36.8499 3 37.2699C6.27 38.4099 10.23 38.9799 14.83 38.9899H15.13C18.75 38.9899 21.95 38.6199 24.74 37.9099C22.72 37.4699 20.82 36.5599 19.21 35.2299V35.2399Z" fill="#9FC0FF"/>
<path d="M14.98 29.31C15.03 29.31 15.08 29.31 15.13 29.31C15.08 29.17 15.03 29.04 14.99 28.9C14.27 26.51 14.25 23.97 14.93 21.57C10.28 21.57 6.30001 20.99 3.01001 19.85C1.77001 19.43 0.77001 18.99 0.0100098 18.51V26.25C0.77001 26.72 1.77001 27.17 3.01001 27.59C6.32001 28.74 10.33 29.32 14.99 29.32L14.98 29.31Z" fill="#9FC0FF"/>
</g>
<defs>
<clipPath id="clip0_12833_6423">
<rect width="46.24" height="46.79" fill="white"/>
</clipPath>
</defs>
</svg>
