<svg width="384" height="376" viewBox="0 0 384 376" fill="none" xmlns="http://www.w3.org/2000/svg">
<path d="M191.593 301.186C254.329 301.186 305.186 250.329 305.186 187.593C305.186 124.857 254.329 74 191.593 74C128.857 74 78 124.857 78 187.593C78 250.329 128.857 301.186 191.593 301.186Z" fill="#F5F8FF" fill-opacity="0.15"/>
<g filter="url(#filter0_dd_12240_19134)">
<path d="M267.5 298C286.554 298 302 282.554 302 263.5C302 244.446 286.554 229 267.5 229C248.446 229 233 244.446 233 263.5C233 282.554 248.446 298 267.5 298Z" fill="#00E0FF" stroke="#00E0FF" stroke-width="2"/>
</g>
<path d="M253.871 271H242.719L242.3 268.752L247.458 264.101C248.89 262.801 249.75 261.809 249.75 260.509C249.75 259.209 248.802 258.371 247.303 258.371C245.783 258.371 244.46 259.363 243.623 260.421L242.124 258.085C242.322 257.622 244.196 255.572 247.634 255.572C251.072 255.572 253.166 257.401 253.166 260.068C253.166 262.735 251.182 264.322 249.97 265.402L246.819 268.245H253.871V271ZM268.163 267.958H266.135V271H262.697V267.958H255.292V265.358L262.19 255.748H266.135V265.203H268.163V267.958ZM262.785 265.27V259.385L258.532 265.27H262.785ZM280.615 254.382L271.513 273.16L269.463 272.212L278.543 253.456L280.615 254.382ZM294.566 257.908L287.8 271H284.053L290.731 258.525H282.753V255.792H293.597L294.566 257.908Z" fill="#092349"/>
<g filter="url(#filter1_bd_12240_19134)">
<rect x="42" y="173" width="156" height="107" rx="8.81001" fill="url(#paint0_linear_12240_19134)" shape-rendering="crispEdges"/>
<rect x="42.75" y="173.75" width="154.5" height="105.5" rx="8.06001" stroke="url(#paint1_linear_12240_19134)" stroke-width="1.5" shape-rendering="crispEdges"/>
</g>
<g clip-path="url(#clip0_12240_19134)">
<mask id="mask0_12240_19134" style="mask-type:alpha" maskUnits="userSpaceOnUse" x="96" y="204" width="89" height="89">
<circle cx="140.474" cy="248.337" r="43.8552" fill="#F5F8FF"/>
</mask>
<g mask="url(#mask0_12240_19134)">
<path d="M118.104 273.359L167.423 271.205L164.374 282.353L135.658 294.395L117.371 286.243L118.104 273.359Z" fill="#0A44B3"/>
<path d="M135.484 234.598C135.484 234.598 119.391 237.86 116.431 240.291C113.471 242.721 110.54 272.534 111.539 273.91C112.539 275.286 172.767 276.69 174.155 274.113C175.542 271.536 167.809 240.658 165.725 239.111C163.644 237.565 140.583 234.253 135.482 234.6L135.484 234.598Z" fill="#9D97F4"/>
<path d="M161.483 266.142C161.483 266.142 161.473 266.142 161.468 266.142C161.371 266.134 161.299 266.048 161.307 265.951C161.8 260.272 161.312 244.277 161.307 244.116C161.304 244.018 161.381 243.936 161.478 243.933C161.569 243.926 161.658 244.007 161.661 244.104C161.666 244.265 162.153 260.282 161.661 265.982C161.653 266.074 161.576 266.144 161.485 266.144L161.483 266.142Z" fill="white"/>
<path d="M121.72 265.559C121.72 265.559 121.706 265.559 121.699 265.559C121.602 265.547 121.532 265.46 121.544 265.363C122.313 258.639 120.927 244.826 120.913 244.688C120.903 244.591 120.975 244.503 121.072 244.493C121.169 244.483 121.257 244.555 121.267 244.652C121.281 244.791 122.67 258.641 121.898 265.402C121.887 265.492 121.81 265.559 121.721 265.559H121.72Z" fill="white"/>
<path d="M127.312 272.67L126.551 269.599C126.498 269.388 126.62 269.173 126.828 269.108L127.869 268.785C128.014 268.741 128.122 268.618 128.151 268.469L128.327 267.515C128.363 267.32 128.532 267.18 128.731 267.18H129.582C129.723 267.18 129.855 267.107 129.929 266.987L130.448 266.157C130.566 265.969 130.814 265.907 131.005 266.022L131.99 266.606C132.116 266.681 132.272 266.683 132.398 266.611L132.976 266.288C133.164 266.184 133.4 266.24 133.518 266.42L135.589 269.551C135.717 269.744 135.659 270.005 135.461 270.127L135.001 270.407C134.832 270.511 134.611 270.477 134.48 270.328C134.208 270.022 133.704 270.258 133.767 270.663L133.788 270.8C133.815 270.978 133.724 271.152 133.564 271.231L129.501 273.236C129.474 273.249 129.447 273.259 129.418 273.266C129.163 273.33 127.915 273.591 127.365 272.801C127.338 272.762 127.319 272.718 127.309 272.672L127.312 272.67Z" fill="#FEBAC7"/>
<path d="M155.943 272.67L156.703 269.599C156.756 269.388 156.635 269.173 156.426 269.108L155.386 268.785C155.24 268.741 155.133 268.618 155.104 268.469L154.928 267.515C154.892 267.32 154.723 267.18 154.524 267.18H153.673C153.531 267.18 153.4 267.107 153.326 266.987L152.807 266.157C152.689 265.969 152.441 265.907 152.25 266.022L151.265 266.606C151.139 266.681 150.983 266.683 150.857 266.611L150.279 266.288C150.091 266.184 149.855 266.24 149.737 266.42L147.666 269.551C147.538 269.744 147.596 270.005 147.794 270.127L148.254 270.407C148.423 270.511 148.643 270.477 148.775 270.328C149.047 270.022 149.551 270.258 149.488 270.663L149.467 270.8C149.44 270.978 149.53 271.152 149.691 271.231L153.754 273.236C153.781 273.249 153.808 273.259 153.837 273.266C154.092 273.33 155.34 273.591 155.89 272.801C155.917 272.762 155.936 272.718 155.946 272.672L155.943 272.67Z" fill="#FEBAC7"/>
<path d="M126.543 268.549C126.534 268.549 126.526 268.549 126.517 268.547L116.883 267.129C116.786 267.115 116.719 267.025 116.735 266.927C116.748 266.83 116.839 266.763 116.936 266.779L126.57 268.197C126.668 268.211 126.734 268.301 126.719 268.399C126.705 268.486 126.63 268.551 126.545 268.551L126.543 268.549Z" fill="white"/>
<path d="M157.564 269.06C157.48 269.06 157.405 269 157.39 268.913C157.372 268.818 157.436 268.725 157.533 268.708L165.366 267.312C165.461 267.293 165.554 267.358 165.571 267.455C165.588 267.551 165.525 267.643 165.427 267.66L157.595 269.057C157.584 269.059 157.574 269.06 157.564 269.06Z" fill="white"/>
<path d="M132.918 227.7C132.918 227.7 131.566 239.325 139.845 239.325C147.375 239.325 147.112 229.323 147.112 229.323C147.112 229.323 147.865 223.133 142.027 222.434C136.189 221.733 132.566 225.611 132.918 227.701V227.7Z" fill="#FEB79C"/>
<path d="M145.107 223.884C145.107 223.884 143.268 227.487 145.133 229.317C146.322 230.485 146.849 232.17 146.467 233.794L146.447 233.881C146.447 233.881 149.573 231.404 150.152 226.385C150.732 221.363 148.453 218.205 146.524 218.561C146.524 218.561 145.756 214.703 140.857 215.064C135.957 215.424 131.913 215.026 130.139 218.911C128.365 222.796 131.457 226.197 131.457 226.197C131.457 226.197 131.698 230.307 133.371 233.884L132.718 229.083C132.718 229.083 138.102 221.851 145.107 223.884Z" fill="#303B45"/>
<path d="M146.726 227.31V229.64C146.726 232.536 144.378 234.884 141.482 234.884V234.884" stroke="#303B45" stroke-width="1.16527"/>
<path d="M147.016 229.944L146.445 233.88C146.445 233.88 149.228 232.404 149.183 230.399C149.168 229.731 148.937 229.362 148.635 229.167C147.989 228.75 147.127 229.184 147.016 229.944Z" fill="#FEB79C"/>
<path d="M132.93 228.813L133.412 233.881C133.412 233.881 130.737 232.331 130.782 230.328C130.826 228.325 132.93 228.813 132.93 228.813Z" fill="#FEB79C"/>
<path d="M154.835 254.428H126.955C125.73 254.428 124.736 255.421 124.736 256.646V275.046C124.736 276.271 125.73 277.264 126.955 277.264H154.835C156.06 277.264 157.053 276.271 157.053 275.046V256.646C157.053 255.421 156.06 254.428 154.835 254.428Z" fill="#D2DCE4"/>
<path d="M156.515 278.339H125.273C124.976 278.339 124.736 278.098 124.736 277.802C124.736 277.505 124.977 277.266 125.273 277.266H156.515C156.812 277.266 157.051 277.507 157.051 277.802C157.051 278.1 156.81 278.339 156.515 278.339Z" fill="#647A8C"/>
<path d="M151.866 277.761C151.866 277.888 151.764 277.99 151.637 277.99C151.511 277.99 151.408 277.888 151.408 277.761C151.408 277.635 151.511 277.532 151.637 277.532C151.764 277.532 151.866 277.635 151.866 277.761Z" fill="#647A8C"/>
<path d="M150.855 277.532H149.006V277.99H150.855V277.532Z" fill="#647A8C"/>
<path d="M111.614 266.236C111.294 270.394 111.231 273.488 111.538 273.91C111.82 274.296 116.782 274.686 123.803 274.988L111.614 266.238V266.236Z" fill="#9D97F4"/>
<path d="M156.779 275.52C166.307 275.411 173.677 274.994 174.152 274.112C174.492 273.481 174.285 271.152 173.747 267.973L156.779 275.52Z" fill="#9D97F4"/>
</g>
<circle cx="141.083" cy="265.189" r="2.63943" fill="#9BACBC"/>
<g filter="url(#filter2_d_12240_19134)">
<path d="M61.6621 187.769C61.6621 186.482 62.7055 185.438 63.9927 185.438L118.739 185.438C120.026 185.438 121.07 186.482 121.07 187.769V217.083C121.07 218.489 119.929 219.63 118.522 219.63H64.2094C62.8026 219.63 61.6621 218.489 61.6621 217.083V187.769Z" fill="white"/>
</g>
<path d="M112.984 216.149V230.151L100.116 217.283" fill="white"/>
<rect x="137.404" y="233.72" width="4.6611" height="2.33055" rx="1.16527" fill="#303B45"/>
</g>
<g filter="url(#filter3_bd_12240_19134)">
<rect x="216" y="136" width="104.972" height="72" rx="5.92823" fill="url(#paint2_linear_12240_19134)" shape-rendering="crispEdges"/>
<rect x="216.505" y="136.505" width="103.963" height="70.9907" rx="5.42356" stroke="url(#paint3_linear_12240_19134)" stroke-width="1.00935" shape-rendering="crispEdges"/>
</g>
<g clip-path="url(#clip1_12240_19134)">
<mask id="mask1_12240_19134" style="mask-type:alpha" maskUnits="userSpaceOnUse" x="224" y="160" width="59" height="59">
<circle cx="253.811" cy="189.262" r="28.8418" fill="white"/>
</mask>
<g mask="url(#mask1_12240_19134)">
<path d="M239.097 205.717L271.532 204.301L269.527 211.633L250.642 219.552L238.615 214.191L239.097 205.717Z" fill="#0A44B3"/>
<path d="M250.527 180.225C250.527 180.225 239.943 182.371 237.997 183.969C236.05 185.568 234.122 205.175 234.78 206.079C235.437 206.984 275.046 207.908 275.959 206.213C276.872 204.518 271.786 184.211 270.416 183.194C269.047 182.177 253.881 179.998 250.526 180.227L250.527 180.225Z" fill="#FECE4D"/>
<path d="M267.624 200.971C267.624 200.971 267.617 200.971 267.614 200.971C267.55 200.965 267.503 200.909 267.508 200.845C267.832 197.11 267.512 186.59 267.508 186.485C267.506 186.421 267.557 186.367 267.621 186.365C267.68 186.36 267.739 186.413 267.741 186.477C267.744 186.583 268.065 197.117 267.741 200.865C267.735 200.926 267.685 200.972 267.625 200.972L267.624 200.971Z" fill="white"/>
<path d="M241.475 200.588C241.475 200.588 241.466 200.588 241.461 200.588C241.397 200.58 241.351 200.523 241.359 200.459C241.865 196.037 240.953 186.953 240.944 186.862C240.937 186.798 240.984 186.741 241.049 186.734C241.113 186.727 241.17 186.775 241.177 186.839C241.186 186.93 242.099 196.038 241.591 200.485C241.585 200.544 241.534 200.588 241.476 200.588H241.475Z" fill="white"/>
<path d="M245.155 205.264L244.655 203.244C244.62 203.106 244.7 202.964 244.837 202.921L245.521 202.709C245.617 202.68 245.688 202.599 245.707 202.501L245.822 201.874C245.846 201.746 245.957 201.654 246.088 201.654H246.647C246.741 201.654 246.827 201.605 246.876 201.527L247.217 200.98C247.295 200.857 247.458 200.816 247.584 200.891L248.231 201.276C248.314 201.325 248.417 201.326 248.5 201.279L248.88 201.067C249.003 200.998 249.158 201.035 249.236 201.153L250.598 203.212C250.683 203.34 250.644 203.511 250.514 203.591L250.212 203.776C250.1 203.844 249.955 203.822 249.869 203.724C249.69 203.523 249.359 203.678 249.4 203.944L249.414 204.034C249.432 204.151 249.372 204.266 249.266 204.317L246.595 205.636C246.577 205.645 246.559 205.652 246.54 205.656C246.372 205.698 245.552 205.87 245.19 205.35C245.172 205.324 245.159 205.295 245.153 205.265L245.155 205.264Z" fill="#FEBAC7"/>
<path d="M263.979 205.264L264.479 203.244C264.514 203.106 264.434 202.964 264.297 202.921L263.612 202.709C263.517 202.68 263.446 202.599 263.427 202.501L263.311 201.874C263.287 201.746 263.176 201.654 263.046 201.654H262.486C262.393 201.654 262.306 201.605 262.258 201.527L261.916 200.98C261.838 200.857 261.675 200.816 261.55 200.891L260.902 201.276C260.819 201.325 260.717 201.326 260.634 201.279L260.254 201.067C260.13 200.998 259.975 201.035 259.897 201.153L258.535 203.212C258.451 203.34 258.489 203.511 258.619 203.591L258.922 203.776C259.033 203.844 259.178 203.822 259.265 203.724C259.443 203.523 259.775 203.678 259.733 203.944L259.72 204.034C259.702 204.151 259.761 204.266 259.867 204.317L262.539 205.636C262.557 205.645 262.575 205.652 262.594 205.656C262.761 205.698 263.582 205.87 263.944 205.35C263.962 205.324 263.974 205.295 263.981 205.265L263.979 205.264Z" fill="#FEBAC7"/>
<path d="M244.643 202.554C244.638 202.554 244.632 202.554 244.627 202.552L238.291 201.62C238.227 201.611 238.183 201.551 238.193 201.487C238.202 201.423 238.261 201.379 238.325 201.389L244.661 202.322C244.725 202.331 244.769 202.391 244.759 202.455C244.75 202.512 244.701 202.555 244.645 202.555L244.643 202.554Z" fill="white"/>
<path d="M265.048 202.89C264.993 202.89 264.944 202.851 264.933 202.794C264.922 202.731 264.964 202.67 265.028 202.659L270.179 201.74C270.242 201.728 270.303 201.771 270.314 201.835C270.325 201.898 270.284 201.958 270.22 201.97L265.068 202.888C265.062 202.889 265.055 202.89 265.048 202.89Z" fill="white"/>
<path d="M246.868 172.45C246.868 172.45 245.602 183.333 253.353 183.333C260.403 183.333 260.157 173.97 260.157 173.97C260.157 173.97 260.862 168.174 255.396 167.52C249.93 166.864 246.538 170.494 246.868 172.451V172.45Z" fill="#FEB79C"/>
<path d="M258.11 177.165L257.734 179.753C257.734 179.753 259.564 178.782 259.535 177.464C259.525 177.024 259.373 176.782 259.174 176.653C258.749 176.379 258.183 176.665 258.11 177.165Z" fill="#FEB79C"/>
<path d="M248.847 176.421L249.164 179.754C249.164 179.754 247.405 178.734 247.434 177.417C247.463 176.1 248.847 176.421 248.847 176.421Z" fill="#FEB79C"/>
<path d="M263.25 193.268H244.914C244.108 193.268 243.455 193.921 243.455 194.727V206.827C243.455 207.633 244.108 208.286 244.914 208.286H263.25C264.055 208.286 264.708 207.633 264.708 206.827V194.727C264.708 193.921 264.055 193.268 263.25 193.268Z" fill="#D2DCE4"/>
<path d="M234.83 201.033C234.62 203.768 234.578 205.802 234.78 206.08C234.966 206.334 238.229 206.59 242.846 206.789L234.83 201.034V201.033Z" fill="#FECE4D"/>
<path d="M264.535 207.138C270.801 207.066 275.648 206.792 275.96 206.212C276.184 205.797 276.048 204.265 275.694 202.175L264.535 207.138Z" fill="#FECE4D"/>
<path d="M261.454 174.929C261.454 168.408 257.983 163.121 253.149 163.121C248.313 163.121 245.761 168.436 245.158 174.929C244.999 176.636 243.557 179.359 245.175 181.763C245.297 181.944 245.572 182.154 245.772 182.245C246.602 182.629 247.812 183.223 248.548 183.43C248.662 183.462 247.961 182.137 248.076 182.093C248.076 182.093 249.27 181.727 249.944 181.701C249.944 181.701 250.049 180.948 250.043 180.28C250.043 180.28 248.528 178.634 248.215 176.806C248.213 176.804 248.211 176.802 248.208 176.8C247.175 176.038 247.071 175.778 246.972 175.375C246.631 173.979 247.499 172.189 247.886 173.277C248.538 171.952 249.05 169.637 249.05 169.637C249.121 169.662 249.03 170.9 249.104 170.929C249.535 171.094 250.163 171.275 250.909 171.371C250.962 171.378 251.019 170.174 251.072 170.176C251.121 170.179 251.168 171.381 251.218 171.387C253.294 171.628 255.833 171.475 257.51 171.068C257.618 171.042 257.603 170.026 257.704 169.997C257.804 171.177 258.172 172.442 258.619 173.518C258.988 172.852 259.373 173.105 259.562 173.66C259.803 174.368 259.485 175.344 259.1 175.932C258.969 176.131 258.295 176.606 258.262 176.807C258.262 176.807 258.184 177.607 257.683 178.718C257.595 178.913 257.495 179.022 256.654 180.043C256.655 180.933 256.771 181.351 256.806 181.497C256.806 181.497 258.236 181.645 258.879 181.876C258.918 181.89 258.18 183.448 258.221 183.436C258.96 183.196 261.021 182.591 261.49 181.888C262.964 179.965 261.635 177.601 261.454 174.929Z" fill="#514B4E"/>
<path d="M259.895 172V174C259.895 176.485 257.88 178.5 255.395 178.5V178.5" stroke="#303B45"/>
<rect x="251.895" y="177.5" width="4" height="2" rx="1" fill="#303B45"/>
</g>
<circle cx="254.212" cy="200.344" r="1.73585" fill="#9BACBC"/>
<g filter="url(#filter4_d_12240_19134)">
<path d="M264.762 149.804C264.762 148.699 265.657 147.804 266.762 147.804L301.832 147.804C302.936 147.804 303.832 148.699 303.832 149.804V168.29C303.832 169.395 302.936 170.29 301.832 170.29H266.437C265.512 170.29 264.762 169.54 264.762 168.615V149.804Z" fill="white"/>
</g>
<path d="M264.762 168.002V177.21L273.224 168.747" fill="white"/>
</g>
<g filter="url(#filter5_bd_12240_19134)">
<rect x="116" y="86" width="76" height="52" rx="4.29198" fill="url(#paint4_linear_12240_19134)" shape-rendering="crispEdges"/>
<rect x="116.5" y="86.5" width="75" height="51" rx="3.79198" stroke="url(#paint5_linear_12240_19134)" shape-rendering="crispEdges"/>
</g>
<g clip-path="url(#clip2_12240_19134)">
<mask id="mask2_12240_19134" style="mask-type:alpha" maskUnits="userSpaceOnUse" x="118" y="102" width="41" height="42">
<circle cx="138.458" cy="122.667" r="20.4174" fill="#F5F8FF"/>
</mask>
<g mask="url(#mask2_12240_19134)">
<path d="M133.517 114.721C133.543 114.666 133.512 114.597 133.455 114.58C133.213 114.509 133.034 114.355 132.993 114.157C132.967 114.027 133.005 113.893 133.091 113.779C133.113 113.751 133.115 113.708 133.101 113.675C132.898 113.658 132.726 113.516 132.699 113.328C132.685 113.233 132.711 113.14 132.764 113.066C132.762 113.059 132.759 113.052 132.757 113.045C132.75 113.019 132.738 112.993 132.714 112.983C132.173 112.762 131.683 111.257 132.972 110.49C133.027 110.456 133.032 110.371 132.979 110.328C132.678 110.074 132.494 109.741 132.511 109.403C132.542 108.792 133.213 108.4 134.012 108.531C134.024 108.533 134.033 108.536 134.045 108.536C134.115 108.548 134.165 108.472 134.134 108.403C133.883 107.825 133.864 107.285 134.127 107.041C134.375 106.808 134.815 106.898 135.262 107.226C135.32 107.269 135.394 107.233 135.399 107.159C135.422 106.746 135.587 106.442 135.812 106.442C135.96 106.442 136.104 106.579 136.207 106.791C136.242 106.867 136.34 106.867 136.367 106.793C136.656 106.016 137.189 105.557 137.622 105.75C137.868 105.859 138.033 106.154 138.102 106.544C138.117 106.627 138.215 106.656 138.26 106.591C138.621 106.083 139.178 105.864 139.69 106.092C140.056 106.254 140.326 106.61 140.462 107.048C140.476 107.093 140.515 107.121 140.555 107.121C140.787 107.114 141.031 107.162 141.273 107.269C142.09 107.63 142.592 108.559 142.477 109.427C142.468 109.491 142.52 109.551 142.58 109.544C142.979 109.508 143.355 109.712 143.484 110.074C143.601 110.397 143.486 110.756 143.226 110.996C143.168 111.048 143.202 111.158 143.281 111.167C143.625 111.217 143.907 111.431 143.967 111.728C144.034 112.061 143.799 112.389 143.422 112.522C143.355 112.546 143.343 112.643 143.403 112.693C143.675 112.919 143.828 113.171 143.766 113.333C143.706 113.489 143.462 113.516 143.156 113.423C143.087 113.401 143.03 113.475 143.056 113.549C143.171 113.846 143.161 114.138 143.011 114.312C142.872 114.469 142.645 114.49 142.408 114.397C142.348 114.374 142.286 114.424 142.293 114.492C142.332 114.861 142.21 115.184 141.959 115.298C141.76 115.389 141.524 115.324 141.318 115.156C141.284 115.13 141.241 115.13 141.21 115.156C140.782 115.536 140.276 115.845 139.704 116.059C138.985 116.328 138.339 116.392 137.636 116.313C137.576 116.306 137.531 116.363 137.543 116.427C137.653 116.974 137.321 117.293 136.838 117.371C136.668 117.4 136.41 117.316 136.326 117.2C136.314 117.181 136.24 117.143 136.168 117.219C135.86 117.533 135.257 117.2 135.145 116.653C135.119 116.527 135.116 116.404 135.131 116.287C135.138 116.225 135.047 116.104 134.913 116.192C134.863 116.225 134.796 116.235 134.729 116.247C134.249 116.332 133.548 115.945 133.436 115.398C133.393 115.146 133.426 114.913 133.517 114.721Z" fill="#4F381D"/>
<path d="M128.048 134.316L151.009 133.313L149.59 138.504L136.221 144.11L127.707 140.315L128.048 134.316Z" fill="#0A44B3"/>
<path d="M136.139 116.271C136.139 116.271 128.647 117.79 127.269 118.921C125.89 120.053 124.526 133.932 124.991 134.573C125.457 135.213 153.497 135.867 154.143 134.668C154.789 133.468 151.188 119.092 150.218 118.372C149.249 117.652 138.513 116.11 136.138 116.272L136.139 116.271Z" fill="#15C1E6"/>
<path d="M148.244 130.956C148.244 130.956 148.24 130.956 148.237 130.956C148.192 130.952 148.158 130.912 148.162 130.867C148.392 128.223 148.165 120.776 148.162 120.702C148.161 120.656 148.197 120.618 148.242 120.616C148.284 120.613 148.326 120.651 148.327 120.696C148.33 120.771 148.556 128.228 148.327 130.881C148.323 130.924 148.287 130.957 148.245 130.957L148.244 130.956Z" fill="white"/>
<path d="M129.731 130.685C129.731 130.685 129.725 130.685 129.722 130.685C129.677 130.679 129.644 130.639 129.65 130.593C130.008 127.463 129.362 121.033 129.356 120.968C129.351 120.923 129.385 120.882 129.43 120.877C129.475 120.873 129.516 120.906 129.521 120.951C129.527 121.016 130.174 127.464 129.814 130.612C129.809 130.654 129.774 130.685 129.732 130.685H129.731Z" fill="white"/>
<path d="M132.336 133.995L131.982 132.565C131.958 132.467 132.014 132.367 132.111 132.337L132.596 132.187C132.663 132.166 132.714 132.109 132.727 132.039L132.809 131.595C132.826 131.505 132.905 131.439 132.997 131.439H133.393C133.459 131.439 133.52 131.405 133.555 131.349L133.796 130.963C133.851 130.875 133.967 130.847 134.056 130.9L134.514 131.172C134.573 131.207 134.645 131.208 134.704 131.174L134.973 131.024C135.061 130.975 135.171 131.002 135.226 131.085L136.19 132.543C136.25 132.633 136.223 132.755 136.13 132.811L135.916 132.942C135.837 132.99 135.735 132.974 135.673 132.905C135.547 132.763 135.312 132.872 135.342 133.061L135.351 133.125C135.364 133.207 135.322 133.289 135.247 133.325L133.356 134.258C133.343 134.265 133.33 134.27 133.317 134.273C133.198 134.302 132.617 134.424 132.361 134.056C132.348 134.038 132.34 134.017 132.335 133.996L132.336 133.995Z" fill="#FEBAC7"/>
<path d="M145.663 133.995L146.017 132.565C146.041 132.467 145.985 132.367 145.888 132.337L145.403 132.187C145.336 132.166 145.285 132.109 145.272 132.039L145.19 131.595C145.173 131.505 145.094 131.439 145.002 131.439H144.606C144.54 131.439 144.479 131.405 144.444 131.349L144.202 130.963C144.148 130.875 144.032 130.847 143.943 130.9L143.485 131.172C143.426 131.207 143.353 131.208 143.295 131.174L143.026 131.024C142.938 130.975 142.828 131.002 142.773 131.085L141.809 132.543C141.749 132.633 141.776 132.755 141.869 132.811L142.083 132.942C142.162 132.99 142.264 132.974 142.325 132.905C142.452 132.763 142.687 132.872 142.657 133.061L142.648 133.125C142.635 133.207 142.677 133.289 142.752 133.325L144.643 134.258C144.656 134.265 144.669 134.27 144.682 134.273C144.801 134.302 145.382 134.424 145.638 134.056C145.651 134.038 145.659 134.017 145.664 133.996L145.663 133.995Z" fill="#FEBAC7"/>
<path d="M131.976 132.077C131.972 132.077 131.968 132.077 131.964 132.077L127.478 131.416C127.433 131.41 127.402 131.368 127.409 131.322C127.416 131.277 127.458 131.246 127.503 131.253L131.988 131.913C132.034 131.92 132.065 131.962 132.058 132.007C132.051 132.048 132.016 132.078 131.976 132.078L131.976 132.077Z" fill="white"/>
<path d="M146.418 132.315C146.379 132.315 146.344 132.287 146.337 132.246C146.329 132.202 146.359 132.159 146.404 132.151L150.051 131.501C150.095 131.492 150.138 131.522 150.146 131.567C150.154 131.612 150.125 131.655 150.079 131.663L146.433 132.313C146.428 132.314 146.423 132.315 146.418 132.315Z" fill="white"/>
<path d="M134.94 113.059C134.94 113.059 134.311 118.471 138.165 118.471C141.671 118.471 141.549 113.815 141.549 113.815C141.549 113.815 141.899 110.933 139.181 110.607C136.463 110.281 134.777 112.086 134.94 113.06V113.059Z" fill="#FEB79C"/>
<path d="M141.506 114.104L141.24 115.937C141.24 115.937 142.536 115.249 142.515 114.316C142.508 114.005 142.4 113.833 142.259 113.742C141.959 113.548 141.558 113.75 141.506 114.104Z" fill="#FEB79C"/>
<path d="M134.948 113.577L135.172 115.936C135.172 115.936 133.927 115.215 133.948 114.282C133.968 113.35 134.948 113.577 134.948 113.577Z" fill="#FEB79C"/>
<path d="M142.32 111.999V113.332C142.32 114.989 140.977 116.332 139.32 116.332V116.332" stroke="#303B45" stroke-width="0.666667"/>
<rect x="136.986" y="115.666" width="2.66667" height="1.33333" rx="0.666667" fill="#303B45"/>
<path d="M145.149 125.503H132.17C131.599 125.503 131.137 125.965 131.137 126.536V135.102C131.137 135.672 131.599 136.135 132.17 136.135H145.149C145.72 136.135 146.182 135.672 146.182 135.102V126.536C146.182 125.965 145.72 125.503 145.149 125.503Z" fill="#D2DCE4"/>
<path d="M145.932 136.635H131.387C131.248 136.635 131.137 136.523 131.137 136.386C131.137 136.247 131.249 136.136 131.387 136.136H145.932C146.07 136.136 146.181 136.248 146.181 136.386C146.181 136.524 146.069 136.635 145.932 136.635Z" fill="#647A8C"/>
<path d="M143.766 136.366C143.766 136.425 143.718 136.473 143.659 136.473C143.6 136.473 143.553 136.425 143.553 136.366C143.553 136.308 143.6 136.26 143.659 136.26C143.718 136.26 143.766 136.308 143.766 136.366Z" fill="#647A8C"/>
<path d="M143.298 136.26H142.438V136.473H143.298V136.26Z" fill="#647A8C"/>
<path d="M125.027 131C124.878 132.936 124.849 134.376 124.992 134.573C125.123 134.752 127.433 134.934 130.702 135.075L125.027 131.001V131Z" fill="#15C1E6"/>
<path d="M146.057 135.322C150.493 135.271 153.924 135.077 154.145 134.667C154.303 134.373 154.207 133.289 153.956 131.809L146.057 135.322Z" fill="#15C1E6"/>
<path d="M134.684 109.757C134.648 109.633 134.622 109.5 134.612 109.364C134.555 108.568 135.004 107.888 135.619 107.846C135.932 107.824 136.229 107.974 136.448 108.231C136.656 108.117 136.917 108.038 137.206 108.017C137.52 107.995 137.814 108.043 138.045 108.145C138.151 107.563 138.536 107.121 139.026 107.087C139.609 107.045 140.128 107.594 140.226 108.333C140.443 108.202 140.718 108.114 141.024 108.093C141.737 108.043 142.344 108.369 142.428 108.832C142.813 109.041 143.102 109.512 143.142 110.08C143.166 110.415 143.102 110.729 142.97 110.983C143.224 111.038 143.42 111.233 143.437 111.482C143.458 111.789 143.2 112.058 142.86 112.081C142.815 112.084 142.772 112.084 142.731 112.079C142.707 112.203 142.667 112.331 142.607 112.452C142.315 113.051 141.701 113.353 141.232 113.13C140.859 112.949 140.694 112.485 140.792 112.001C140.541 112.119 140.266 112.162 139.992 112.105C139.542 112.012 139.195 111.68 139.019 111.233C138.923 111.309 138.808 111.345 138.693 111.323C138.564 111.299 138.459 111.204 138.399 111.074C138.213 111.195 137.995 111.273 137.756 111.29C137.319 111.321 136.917 111.14 136.649 110.838C136.652 110.852 136.654 110.869 136.654 110.883C136.709 111.646 136.159 112.307 135.425 112.359C134.691 112.412 134.053 111.837 133.998 111.074C133.957 110.51 134.242 110.009 134.684 109.757Z" fill="#4F381D"/>
</g>
<circle cx="138.742" cy="130.513" r="1.22882" fill="#9BACBC"/>
<g filter="url(#filter6_d_12240_19134)">
<path d="M180.643 97.8926C180.643 97.0642 179.971 96.3926 179.143 96.3926L154.485 96.3926C153.656 96.3926 152.985 97.0642 152.985 97.8926V110.811C152.985 111.639 153.656 112.311 154.485 112.311H179.143C179.971 112.311 180.643 111.639 180.643 110.811V97.8926Z" fill="white"/>
</g>
<path d="M154.986 110.69V117.209L160.977 111.218" fill="white"/>
</g>
<defs>
<filter id="filter0_dd_12240_19134" x="224.183" y="220.183" width="95.5667" height="95.5667" filterUnits="userSpaceOnUse" color-interpolation-filters="sRGB">
<feFlood flood-opacity="0" result="BackgroundImageFix"/>
<feColorMatrix in="SourceAlpha" type="matrix" values="0 0 0 0 0 0 0 0 0 0 0 0 0 0 0 0 0 0 127 0" result="hardAlpha"/>
<feOffset dx="5.58333" dy="5.58333"/>
<feGaussianBlur stdDeviation="5.58333"/>
<feColorMatrix type="matrix" values="0 0 0 0 0 0 0 0 0 0.296699 0 0 0 0 0.858629 0 0 0 0.08 0"/>
<feBlend mode="normal" in2="BackgroundImageFix" result="effect1_dropShadow_12240_19134"/>
<feColorMatrix in="SourceAlpha" type="matrix" values="0 0 0 0 0 0 0 0 0 0 0 0 0 0 0 0 0 0 127 0" result="hardAlpha"/>
<feOffset/>
<feGaussianBlur stdDeviation="3.90833"/>
<feComposite in2="hardAlpha" operator="out"/>
<feColorMatrix type="matrix" values="0 0 0 0 0.0354167 0 0 0 0 0.105426 0 0 0 0 0.2125 0 0 0 0.07 0"/>
<feBlend mode="normal" in2="effect1_dropShadow_12240_19134" result="effect2_dropShadow_12240_19134"/>
<feBlend mode="normal" in="SourceGraphic" in2="effect2_dropShadow_12240_19134" result="shape"/>
</filter>
<filter id="filter1_bd_12240_19134" x="19.5919" y="154.489" width="200.816" height="151.816" filterUnits="userSpaceOnUse" color-interpolation-filters="sRGB">
<feFlood flood-opacity="0" result="BackgroundImageFix"/>
<feGaussianBlur in="BackgroundImageFix" stdDeviation="4.405"/>
<feComposite in2="SourceAlpha" operator="in" result="effect1_backgroundBlur_12240_19134"/>
<feColorMatrix in="SourceAlpha" type="matrix" values="0 0 0 0 0 0 0 0 0 0 0 0 0 0 0 0 0 0 127 0" result="hardAlpha"/>
<feMorphology radius="0.974265" operator="erode" in="SourceAlpha" result="effect2_dropShadow_12240_19134"/>
<feOffset dy="3.89706"/>
<feGaussianBlur stdDeviation="11.6912"/>
<feComposite in2="hardAlpha" operator="out"/>
<feColorMatrix type="matrix" values="0 0 0 0 0 0 0 0 0 0 0 0 0 0 0 0 0 0 0.2 0"/>
<feBlend mode="normal" in2="effect1_backgroundBlur_12240_19134" result="effect2_dropShadow_12240_19134"/>
<feBlend mode="normal" in="SourceGraphic" in2="effect2_dropShadow_12240_19134" result="shape"/>
</filter>
<filter id="filter2_d_12240_19134" x="58.5488" y="182.325" width="65.6348" height="40.418" filterUnits="userSpaceOnUse" color-interpolation-filters="sRGB">
<feFlood flood-opacity="0" result="BackgroundImageFix"/>
<feColorMatrix in="SourceAlpha" type="matrix" values="0 0 0 0 0 0 0 0 0 0 0 0 0 0 0 0 0 0 127 0" result="hardAlpha"/>
<feOffset/>
<feGaussianBlur stdDeviation="1.55666"/>
<feColorMatrix type="matrix" values="0 0 0 0 0 0 0 0 0 0.0486432 0 0 0 0 0.221106 0 0 0 0.06 0"/>
<feBlend mode="normal" in2="BackgroundImageFix" result="effect1_dropShadow_12240_19134"/>
<feBlend mode="normal" in="SourceGraphic" in2="effect1_dropShadow_12240_19134" result="shape"/>
</filter>
<filter id="filter3_bd_12240_19134" x="200.922" y="123.544" width="135.129" height="102.157" filterUnits="userSpaceOnUse" color-interpolation-filters="sRGB">
<feFlood flood-opacity="0" result="BackgroundImageFix"/>
<feGaussianBlur in="BackgroundImageFix" stdDeviation="2.96412"/>
<feComposite in2="SourceAlpha" operator="in" result="effect1_backgroundBlur_12240_19134"/>
<feColorMatrix in="SourceAlpha" type="matrix" values="0 0 0 0 0 0 0 0 0 0 0 0 0 0 0 0 0 0 127 0" result="hardAlpha"/>
<feMorphology radius="0.65558" operator="erode" in="SourceAlpha" result="effect2_dropShadow_12240_19134"/>
<feOffset dy="2.62232"/>
<feGaussianBlur stdDeviation="7.86697"/>
<feComposite in2="hardAlpha" operator="out"/>
<feColorMatrix type="matrix" values="0 0 0 0 0 0 0 0 0 0 0 0 0 0 0 0 0 0 0.2 0"/>
<feBlend mode="normal" in2="effect1_backgroundBlur_12240_19134" result="effect2_dropShadow_12240_19134"/>
<feBlend mode="normal" in="SourceGraphic" in2="effect2_dropShadow_12240_19134" result="shape"/>
</filter>
<filter id="filter4_d_12240_19134" x="262.714" y="145.756" width="43.1653" height="26.5813" filterUnits="userSpaceOnUse" color-interpolation-filters="sRGB">
<feFlood flood-opacity="0" result="BackgroundImageFix"/>
<feColorMatrix in="SourceAlpha" type="matrix" values="0 0 0 0 0 0 0 0 0 0 0 0 0 0 0 0 0 0 127 0" result="hardAlpha"/>
<feOffset/>
<feGaussianBlur stdDeviation="1.02375"/>
<feColorMatrix type="matrix" values="0 0 0 0 0 0 0 0 0 0.0486432 0 0 0 0 0.221106 0 0 0 0.06 0"/>
<feBlend mode="normal" in2="BackgroundImageFix" result="effect1_dropShadow_12240_19134"/>
<feBlend mode="normal" in="SourceGraphic" in2="effect1_dropShadow_12240_19134" result="shape"/>
</filter>
<filter id="filter5_bd_12240_19134" x="105.083" y="76.982" width="97.8331" height="73.8331" filterUnits="userSpaceOnUse" color-interpolation-filters="sRGB">
<feFlood flood-opacity="0" result="BackgroundImageFix"/>
<feGaussianBlur in="BackgroundImageFix" stdDeviation="2.14599"/>
<feComposite in2="SourceAlpha" operator="in" result="effect1_backgroundBlur_12240_19134"/>
<feColorMatrix in="SourceAlpha" type="matrix" values="0 0 0 0 0 0 0 0 0 0 0 0 0 0 0 0 0 0 127 0" result="hardAlpha"/>
<feMorphology radius="0.474634" operator="erode" in="SourceAlpha" result="effect2_dropShadow_12240_19134"/>
<feOffset dy="1.89853"/>
<feGaussianBlur stdDeviation="5.6956"/>
<feComposite in2="hardAlpha" operator="out"/>
<feColorMatrix type="matrix" values="0 0 0 0 0 0 0 0 0 0 0 0 0 0 0 0 0 0 0.2 0"/>
<feBlend mode="normal" in2="effect1_backgroundBlur_12240_19134" result="effect2_dropShadow_12240_19134"/>
<feBlend mode="normal" in="SourceGraphic" in2="effect2_dropShadow_12240_19134" result="shape"/>
</filter>
<filter id="filter6_d_12240_19134" x="151.535" y="94.9431" width="30.5571" height="18.8169" filterUnits="userSpaceOnUse" color-interpolation-filters="sRGB">
<feFlood flood-opacity="0" result="BackgroundImageFix"/>
<feColorMatrix in="SourceAlpha" type="matrix" values="0 0 0 0 0 0 0 0 0 0 0 0 0 0 0 0 0 0 127 0" result="hardAlpha"/>
<feOffset/>
<feGaussianBlur stdDeviation="0.724721"/>
<feColorMatrix type="matrix" values="0 0 0 0 0 0 0 0 0 0.0486432 0 0 0 0 0.221106 0 0 0 0.06 0"/>
<feBlend mode="normal" in2="BackgroundImageFix" result="effect1_dropShadow_12240_19134"/>
<feBlend mode="normal" in="SourceGraphic" in2="effect1_dropShadow_12240_19134" result="shape"/>
</filter>
<linearGradient id="paint0_linear_12240_19134" x1="48.3665" y1="173" x2="185.401" y2="250.666" gradientUnits="userSpaceOnUse">
<stop stop-color="white" stop-opacity="0.35"/>
<stop offset="1" stop-color="white" stop-opacity="0.15"/>
</linearGradient>
<linearGradient id="paint1_linear_12240_19134" x1="63.2063" y1="175.14" x2="183.472" y2="268.936" gradientUnits="userSpaceOnUse">
<stop stop-color="white"/>
<stop offset="0.34223" stop-color="#15C1E6" stop-opacity="0.6"/>
<stop offset="0.691989" stop-color="#15C1E6" stop-opacity="0.7"/>
<stop offset="1" stop-color="#15C1E6" stop-opacity="0.45"/>
</linearGradient>
<linearGradient id="paint2_linear_12240_19134" x1="220.284" y1="136" x2="312.494" y2="188.261" gradientUnits="userSpaceOnUse">
<stop stop-color="white" stop-opacity="0.35"/>
<stop offset="1" stop-color="white" stop-opacity="0.15"/>
</linearGradient>
<linearGradient id="paint3_linear_12240_19134" x1="230.27" y1="137.44" x2="311.196" y2="200.555" gradientUnits="userSpaceOnUse">
<stop stop-color="white"/>
<stop offset="0.34223" stop-color="#15C1E6" stop-opacity="0.6"/>
<stop offset="0.691989" stop-color="#15C1E6" stop-opacity="0.7"/>
<stop offset="1" stop-color="#15C1E6" stop-opacity="0.45"/>
</linearGradient>
<linearGradient id="paint4_linear_12240_19134" x1="119.102" y1="86" x2="185.782" y2="123.885" gradientUnits="userSpaceOnUse">
<stop stop-color="white" stop-opacity="0.35"/>
<stop offset="1" stop-color="white" stop-opacity="0.15"/>
</linearGradient>
<linearGradient id="paint5_linear_12240_19134" x1="126.331" y1="87.04" x2="184.813" y2="132.763" gradientUnits="userSpaceOnUse">
<stop stop-color="white"/>
<stop offset="0.34223" stop-color="#15C1E6" stop-opacity="0.6"/>
<stop offset="0.691989" stop-color="#15C1E6" stop-opacity="0.7"/>
<stop offset="1" stop-color="#15C1E6" stop-opacity="0.45"/>
</linearGradient>
<clipPath id="clip0_12240_19134">
<rect width="119.86" height="95.5524" fill="white" transform="translate(57 182.447)"/>
</clipPath>
<clipPath id="clip1_12240_19134">
<rect width="78.6878" height="61.2857" fill="white" transform="translate(224.973 145.836)"/>
</clipPath>
<clipPath id="clip2_12240_19134">
<rect width="63" height="41" fill="white" transform="translate(118 96)"/>
</clipPath>
</defs>
</svg>
