<svg width="165" height="147" viewBox="0 0 165 147" fill="none" xmlns="http://www.w3.org/2000/svg">
<path d="M35.7578 108.322L83.352 132.54L129.139 108.322V13.6152H35.7578V108.322Z" fill="white"/>
<path d="M130.102 13.9775L34.793 110.009L84.1945 134.469L130.102 110.973V13.9775Z" fill="#F2F3F2"/>
<path d="M32.625 45.185V110.371L34.3119 111.214L81.9061 135.433L83.352 136.156L84.7979 135.433L130.705 111.214L132.392 110.371V10.4834H32.625V45.185ZM35.7578 108.564V13.6162H129.259V108.564L83.352 132.782L35.7578 108.564Z" fill="#DCDEDC"/>
<path d="M82.5086 15.1826C82.9906 15.1826 83.4725 15.1826 83.9545 15.3031L82.5086 18.0744C80.3398 17.9539 78.4119 19.6408 78.2914 21.8096C78.1709 23.9785 79.8578 25.9063 82.0266 26.0268H82.5086C83.4725 26.0268 84.4365 25.6653 85.1594 25.0629L86.7258 27.7137C85.5209 28.5571 84.075 29.0391 82.5086 29.0391C78.6529 29.1596 75.3996 26.2678 75.2791 22.4121C75.1586 18.5563 78.0504 15.3031 81.9061 15.1826H82.5086ZM87.4488 21.0867L89.2561 24.099L87.4488 26.9907L85.7619 24.099H82.2676L84.075 21.0867H87.4488ZM84.557 20.0022C84.557 19.5203 84.6775 19.0383 84.9184 18.6768C85.1594 18.3154 85.6414 17.9539 86.0029 17.7129L86.2438 17.5924C86.7258 17.3514 86.8463 17.2309 86.8463 16.9899C86.8463 16.749 86.4848 16.508 86.2438 16.508C85.7619 16.508 85.4004 16.749 85.1594 17.2309L84.557 16.6285C84.6775 16.3875 84.9184 16.1465 85.1594 15.9055C85.5209 15.6645 85.8824 15.6645 86.2438 15.6645C86.6053 15.6645 87.0873 15.785 87.3283 16.026C87.5693 16.267 87.8102 16.6285 87.8102 16.9899C87.8102 17.5924 87.4488 18.0744 86.7258 18.3154L86.3643 18.5563C86.0029 18.7973 85.7619 18.9178 85.6414 19.2793H87.8102V20.1227L84.557 20.0022ZM82.5086 35.0637L93.9553 28.5571V10.4834H70.9414V28.4366L82.5086 35.0637Z" fill="#FF492C"/>
<path d="M134.682 77.7178H30.3362L26.4805 86.1522L30.3362 94.5866H134.682L138.417 86.1522L134.682 77.7178Z" fill="#5A39A2"/>
<path d="M59.8309 72.2957C59.7105 72.2957 59.6261 72.2394 59.5779 72.127L57.3247 67.1266C57.3006 67.0784 57.2645 67.0543 57.2163 67.0543H55.5294C55.4732 67.0543 55.445 67.0864 55.445 67.1507V72.0788C55.445 72.1431 55.425 72.1953 55.3848 72.2354C55.3366 72.2756 55.2844 72.2957 55.2282 72.2957H53.1075C53.0513 72.2957 53.0031 72.2756 52.9629 72.2354C52.9147 72.1953 52.8906 72.1431 52.8906 72.0788V59.8609C52.8906 59.8047 52.9147 59.7525 52.9629 59.7043C53.0031 59.6641 53.0513 59.6441 53.1075 59.6441H58.2766C59.0477 59.6441 59.7265 59.8007 60.3129 60.114C60.8993 60.4273 61.3532 60.8731 61.6745 61.4514C61.9877 62.0298 62.1444 62.7005 62.1444 63.4636C62.1444 64.283 61.9395 64.9818 61.5299 65.5602C61.1202 66.1466 60.5499 66.5603 59.8189 66.8013C59.7546 66.8254 59.7345 66.8655 59.7586 66.9218L62.2167 72.0426C62.2488 72.0908 62.2649 72.127 62.2649 72.1511C62.2649 72.2475 62.1966 72.2957 62.06 72.2957H59.8309ZM55.5294 61.825C55.4732 61.825 55.445 61.8571 55.445 61.9213V65.018C55.445 65.0742 55.4732 65.1023 55.5294 65.1023H57.9031C58.4091 65.1023 58.8228 64.9537 59.1441 64.6565C59.4655 64.3513 59.6261 63.9577 59.6261 63.4757C59.6261 62.9937 59.4655 62.6001 59.1441 62.2949C58.8228 61.9816 58.4091 61.825 57.9031 61.825H55.5294ZM71.9283 66.6928C72.0006 67.1507 72.0247 67.6608 72.0006 68.2231C71.9845 68.3757 71.9042 68.452 71.7596 68.452H66.1809C66.1086 68.452 66.0845 68.4801 66.1086 68.5363C66.1407 68.7773 66.205 69.0183 66.3013 69.2593C66.6146 69.934 67.2532 70.2714 68.2172 70.2714C68.9883 70.2634 69.5988 69.9501 70.0486 69.3316C70.0968 69.2593 70.149 69.2231 70.2053 69.2231C70.2454 69.2231 70.2896 69.2472 70.3378 69.2954L71.6391 70.5726C71.6954 70.6369 71.7235 70.6931 71.7235 70.7413C71.7235 70.7654 71.6994 70.8136 71.6512 70.8859C71.2576 71.384 70.7475 71.7655 70.1209 72.0306C69.4944 72.3037 68.8076 72.4403 68.0605 72.4403C67.0243 72.4403 66.1487 72.2073 65.4338 71.7414C64.7109 71.2675 64.1927 70.6088 63.8795 69.7654C63.6304 69.1629 63.5059 68.3757 63.5059 67.4037C63.5059 66.737 63.5943 66.1506 63.771 65.6445C64.0522 64.7931 64.5382 64.1143 65.229 63.6082C65.9198 63.1022 66.7431 62.8491 67.699 62.8491C68.904 62.8491 69.8719 63.1986 70.6029 63.8974C71.3339 64.5963 71.7757 65.5281 71.9283 66.6928ZM67.7111 65.0541C66.956 65.0541 66.458 65.4076 66.217 66.1145C66.1688 66.2751 66.1246 66.4679 66.0845 66.6928C66.0845 66.749 66.1166 66.7772 66.1809 66.7772H69.3016C69.3739 66.7772 69.398 66.749 69.3739 66.6928C69.3176 66.3474 69.2895 66.1787 69.2895 66.1868C69.1771 65.8253 68.9883 65.5441 68.7232 65.3433C68.4501 65.1505 68.1127 65.0541 67.7111 65.0541ZM77.1456 72.4162C76.3423 72.4162 75.6394 72.3037 75.037 72.0788C74.4345 71.8539 73.9686 71.5366 73.6393 71.1269C73.3019 70.7172 73.1332 70.2513 73.1332 69.7292V69.5485C73.1332 69.4922 73.1573 69.44 73.2055 69.3918C73.2457 69.3517 73.2939 69.3316 73.3501 69.3316H75.3623C75.4185 69.3316 75.4708 69.3517 75.519 69.3918C75.5591 69.44 75.5792 69.4922 75.5792 69.5485V69.5605C75.5792 69.8336 75.7278 70.0626 76.025 70.2473C76.3142 70.4321 76.6837 70.5244 77.1335 70.5244C77.5432 70.5244 77.8726 70.4441 78.1216 70.2835C78.3786 70.1148 78.5071 69.914 78.5071 69.681C78.5071 69.4641 78.3987 69.2994 78.1818 69.187C77.9649 69.0826 77.6075 68.9701 77.1094 68.8496C76.5471 68.705 76.1013 68.5645 75.772 68.4279C75.0008 68.1628 74.3863 67.8375 73.9285 67.4519C73.4706 67.0663 73.2417 66.5121 73.2417 65.7891C73.2417 64.8975 73.5911 64.1906 74.2899 63.6685C74.9808 63.1463 75.8965 62.8853 77.0371 62.8853C77.8083 62.8853 78.483 63.0058 79.0614 63.2468C79.6398 63.4958 80.0896 63.8452 80.4109 64.295C80.7322 64.7368 80.8929 65.2429 80.8929 65.8132C80.8929 65.8695 80.8728 65.9177 80.8326 65.9578C80.7844 65.998 80.7322 66.0181 80.676 66.0181H78.7361C78.6798 66.0181 78.6317 65.998 78.5915 65.9578C78.5433 65.9177 78.5192 65.8695 78.5192 65.8132C78.5192 65.5481 78.3867 65.3232 78.1216 65.1385C77.8485 64.9537 77.487 64.8613 77.0371 64.8613C76.6435 64.8613 76.3182 64.9377 76.0612 65.0903C75.8121 65.2349 75.6876 65.4317 75.6876 65.6807C75.6876 65.9217 75.8121 66.1024 76.0612 66.2229C76.3021 66.3434 76.7118 66.4719 77.2902 66.6085L77.748 66.7169C77.9167 66.7571 78.0975 66.8093 78.2903 66.8736C79.1417 67.1306 79.8165 67.4559 80.3145 67.8495C80.8045 68.2512 81.0495 68.8295 81.0495 69.5846C81.0495 70.4763 80.7001 71.1711 80.0012 71.6691C79.2944 72.1672 78.3425 72.4162 77.1456 72.4162ZM87.9416 63.2227C87.9416 63.1664 87.9617 63.1142 88.0019 63.066C88.042 63.0259 88.0943 63.0058 88.1585 63.0058H90.2671C90.3314 63.0058 90.3836 63.0259 90.4238 63.066C90.4639 63.1142 90.484 63.1664 90.484 63.2227V72.0788C90.484 72.1431 90.4639 72.1953 90.4238 72.2354C90.3836 72.2756 90.3314 72.2957 90.2671 72.2957H88.1585C88.0943 72.2957 88.042 72.2756 88.0019 72.2354C87.9617 72.1953 87.9416 72.1431 87.9416 72.0788V71.4643C87.9416 71.4322 87.9296 71.4121 87.9055 71.404C87.8814 71.396 87.8573 71.4121 87.8332 71.4522C87.3512 72.0949 86.6042 72.4162 85.5921 72.4162C84.6763 72.4162 83.9212 72.1431 83.3268 71.5968C82.7404 71.0426 82.4472 70.2634 82.4472 69.2593V63.2227C82.4472 63.1664 82.4673 63.1142 82.5075 63.066C82.5476 63.0259 82.5998 63.0058 82.6641 63.0058H84.7607C84.8169 63.0058 84.8691 63.0259 84.9173 63.066C84.9575 63.1142 84.9775 63.1664 84.9775 63.2227V68.6327C84.9775 69.1147 85.1061 69.5043 85.3631 69.8015C85.6202 70.1067 85.9776 70.2594 86.4355 70.2594C86.8532 70.2594 87.1906 70.1349 87.4476 69.8858C87.7127 69.6368 87.8774 69.3155 87.9416 68.9219V63.2227ZM92.5806 72.2957C92.5243 72.2957 92.4761 72.2756 92.436 72.2354C92.3878 72.1953 92.3637 72.1431 92.3637 72.0788V59.8609C92.3637 59.8047 92.3878 59.7525 92.436 59.7043C92.4761 59.6641 92.5243 59.6441 92.5806 59.6441H94.7012C94.7575 59.6441 94.8097 59.6641 94.8579 59.7043C94.898 59.7525 94.9181 59.8047 94.9181 59.8609V72.0788C94.9181 72.1431 94.898 72.1953 94.8579 72.2354C94.8097 72.2756 94.7575 72.2957 94.7012 72.2957H92.5806ZM102.111 64.8372C102.111 64.8935 102.091 64.9417 102.051 64.9818C102.003 65.03 101.951 65.0541 101.895 65.0541H100.159C100.095 65.0541 100.063 65.0822 100.063 65.1385V68.9701C100.063 69.3637 100.147 69.6609 100.316 69.8617C100.477 70.0545 100.738 70.1509 101.099 70.1509H101.69C101.754 70.1509 101.806 70.171 101.846 70.2112C101.887 70.2513 101.907 70.3036 101.907 70.3678V72.0788C101.907 72.2153 101.834 72.2917 101.69 72.3077C101.184 72.3318 100.822 72.3439 100.605 72.3439C99.6092 72.3439 98.8622 72.1792 98.3642 71.8499C97.8742 71.5205 97.6211 70.898 97.6051 69.9822V65.1385C97.6051 65.0822 97.577 65.0541 97.5207 65.0541H96.4845C96.4283 65.0541 96.3801 65.03 96.3399 64.9818C96.2917 64.9417 96.2676 64.8935 96.2676 64.8372V63.2227C96.2676 63.1664 96.2917 63.1142 96.3399 63.066C96.3801 63.0259 96.4283 63.0058 96.4845 63.0058H97.5207C97.577 63.0058 97.6051 62.9736 97.6051 62.9094V60.7646C97.6051 60.7084 97.6292 60.6562 97.6774 60.608C97.7175 60.5678 97.7657 60.5477 97.822 60.5477H99.8462C99.9105 60.5477 99.9627 60.5678 100.003 60.608C100.043 60.6562 100.063 60.7084 100.063 60.7646V62.9094C100.063 62.9736 100.095 63.0058 100.159 63.0058H101.895C101.951 63.0058 102.003 63.0259 102.051 63.066C102.091 63.1142 102.111 63.1664 102.111 63.2227V64.8372ZM107.353 72.4162C106.542 72.4162 105.835 72.3037 105.232 72.0788C104.63 71.8539 104.164 71.5366 103.834 71.1269C103.505 70.7172 103.34 70.2513 103.34 69.7292V69.5485C103.34 69.4922 103.361 69.44 103.401 69.3918C103.441 69.3517 103.493 69.3316 103.557 69.3316H105.558C105.622 69.3316 105.674 69.3517 105.714 69.3918C105.754 69.44 105.774 69.4922 105.774 69.5485V69.5605C105.774 69.8336 105.923 70.0626 106.22 70.2473C106.517 70.4321 106.887 70.5244 107.329 70.5244C107.738 70.5244 108.072 70.4441 108.329 70.2835C108.578 70.1148 108.702 69.914 108.702 69.681C108.702 69.4641 108.594 69.2994 108.377 69.187C108.16 69.0826 107.807 68.9701 107.317 68.8496C106.746 68.705 106.301 68.5645 105.979 68.4279C105.208 68.1628 104.594 67.8375 104.136 67.4519C103.678 67.0663 103.449 66.5121 103.449 65.7891C103.449 64.8975 103.794 64.1906 104.485 63.6685C105.176 63.1463 106.096 62.8853 107.244 62.8853C108.016 62.8853 108.69 63.0058 109.269 63.2468C109.847 63.4958 110.297 63.8452 110.618 64.295C110.931 64.7368 111.088 65.2429 111.088 65.8132C111.088 65.8695 111.068 65.9177 111.028 65.9578C110.988 65.998 110.935 66.0181 110.871 66.0181H108.943C108.879 66.0181 108.827 65.998 108.787 65.9578C108.747 65.9177 108.726 65.8695 108.726 65.8132C108.726 65.5481 108.59 65.3232 108.317 65.1385C108.044 64.9537 107.686 64.8613 107.244 64.8613C106.843 64.8613 106.517 64.9377 106.268 65.0903C106.011 65.2349 105.883 65.4317 105.883 65.6807C105.883 65.9217 106.007 66.1024 106.256 66.2229C106.505 66.3434 106.919 66.4719 107.497 66.6085C107.626 66.6406 107.775 66.6768 107.943 66.7169C108.112 66.7571 108.293 66.8093 108.485 66.8736C109.345 67.1306 110.02 67.4559 110.51 67.8495C111.008 68.2512 111.257 68.8295 111.257 69.5846C111.257 70.4763 110.903 71.1711 110.196 71.6691C109.49 72.1672 108.542 72.4162 107.353 72.4162ZM71.9885 47.631C71.9163 47.6632 71.9163 47.6993 71.9885 47.7395C73.1292 48.3259 73.6995 49.3059 73.6995 50.6795C73.6995 51.8523 73.3019 52.7359 72.5067 53.3303C71.7114 53.9247 70.6712 54.2219 69.3859 54.2219H64.6988C64.6426 54.2219 64.5944 54.2019 64.5542 54.1617C64.506 54.1215 64.4819 54.0693 64.4819 54.005V41.7872C64.4819 41.731 64.506 41.6788 64.5542 41.6306C64.5944 41.5904 64.6426 41.5703 64.6988 41.5703H69.2413C72.093 41.5703 73.5188 42.727 73.5188 45.0405C73.5188 46.2454 73.0087 47.1089 71.9885 47.631ZM67.1207 43.7512C67.0645 43.7512 67.0363 43.7833 67.0363 43.8476V46.6671C67.0363 46.7314 67.0645 46.7635 67.1207 46.7635H69.2413C69.8036 46.7635 70.2454 46.631 70.5667 46.3659C70.872 46.1008 71.0246 45.7393 71.0246 45.2815C71.0246 44.8075 70.872 44.434 70.5667 44.1609C70.2454 43.8878 69.8036 43.7512 69.2413 43.7512H67.1207ZM69.3859 52.0169C69.9402 52.0169 70.374 51.8764 70.6872 51.5952C71.0005 51.3141 71.1572 50.9245 71.1572 50.4264C71.1572 49.9364 71.0005 49.5469 70.6872 49.2577C70.374 48.9765 69.9322 48.836 69.3618 48.836H67.1207C67.0645 48.836 67.0363 48.8681 67.0363 48.9324V51.9205C67.0363 51.9848 67.0645 52.0169 67.1207 52.0169H69.3859ZM83.7485 48.6191C83.8208 49.0769 83.8449 49.587 83.8208 50.1493C83.8128 50.3019 83.7365 50.3783 83.5919 50.3783H78.0011C77.9288 50.3783 77.9047 50.4064 77.9288 50.4626C77.9689 50.7036 78.0372 50.9446 78.1336 51.1855C78.4469 51.8603 79.0855 52.1977 80.0494 52.1977C80.8206 52.1896 81.4271 51.8764 81.8689 51.2578C81.9171 51.1855 81.9733 51.1494 82.0375 51.1494C82.0697 51.1494 82.1098 51.1735 82.158 51.2217L83.4593 52.4989C83.5236 52.5632 83.5557 52.6194 83.5557 52.6676C83.5557 52.6917 83.5316 52.7399 83.4834 52.8122C83.0818 53.3102 82.5677 53.6918 81.9412 53.9569C81.3226 54.23 80.6358 54.3665 79.8808 54.3665C78.8445 54.3665 77.969 54.1336 77.254 53.6677C76.5391 53.1937 76.025 52.5351 75.7117 51.6916C75.4547 51.0892 75.3262 50.3019 75.3262 49.33C75.3262 48.6633 75.4185 48.0769 75.6033 47.5708C75.8764 46.7193 76.3624 46.0406 77.0612 45.5345C77.7521 45.0284 78.5714 44.7754 79.5193 44.7754C80.7242 44.7754 81.6921 45.1248 82.4231 45.8237C83.1541 46.5225 83.5959 47.4543 83.7485 48.6191ZM79.5434 46.9804C78.7803 46.9804 78.2782 47.3338 78.0372 48.0407C77.989 48.2014 77.9489 48.3942 77.9167 48.6191C77.9167 48.6753 77.9449 48.7034 78.0011 48.7034H81.1339C81.2062 48.7034 81.2303 48.6753 81.2062 48.6191C81.1419 48.2737 81.1098 48.105 81.1098 48.113C81.0053 47.7515 80.8166 47.4704 80.5435 47.2696C80.2703 47.0768 79.937 46.9804 79.5434 46.9804ZM88.9779 54.3424C88.1666 54.3424 87.4597 54.23 86.8572 54.005C86.2548 53.7801 85.7889 53.4628 85.4595 53.0532C85.1302 52.6435 84.9655 52.1776 84.9655 51.6555V51.4747C84.9655 51.4185 84.9856 51.3663 85.0257 51.3181C85.0659 51.2779 85.1181 51.2578 85.1824 51.2578H87.1825C87.2468 51.2578 87.299 51.2779 87.3392 51.3181C87.3793 51.3663 87.3994 51.4185 87.3994 51.4747V51.4868C87.3994 51.7599 87.548 51.9888 87.8452 52.1736C88.1425 52.3583 88.512 52.4507 88.9538 52.4507C89.3634 52.4507 89.6968 52.3704 89.9538 52.2097C90.2029 52.041 90.3274 51.8402 90.3274 51.6073C90.3274 51.3904 90.2189 51.2257 90.002 51.1132C89.7852 51.0088 89.4317 50.8964 88.9417 50.7759C88.3714 50.6313 87.9256 50.4907 87.6043 50.3542C86.8331 50.0891 86.2186 49.7637 85.7607 49.3782C85.3029 48.9926 85.0739 48.4383 85.0739 47.7154C85.0739 46.8237 85.4193 46.1169 86.1102 45.5947C86.801 45.0726 87.7207 44.8115 88.8694 44.8115C89.6406 44.8115 90.3153 44.932 90.8937 45.173C91.472 45.422 91.9219 45.7715 92.2432 46.2213C92.5565 46.6631 92.7131 47.1692 92.7131 47.7395C92.7131 47.7957 92.693 47.8439 92.6529 47.8841C92.6127 47.9242 92.5605 47.9443 92.4962 47.9443H90.5684C90.5041 47.9443 90.4519 47.9242 90.4117 47.8841C90.3716 47.8439 90.3515 47.7957 90.3515 47.7395C90.3515 47.4744 90.2149 47.2495 89.9418 47.0647C89.6687 46.88 89.3112 46.7876 88.8694 46.7876C88.4678 46.7876 88.1425 46.8639 87.8934 47.0165C87.6364 47.1611 87.5079 47.3579 87.5079 47.6069C87.5079 47.8479 87.6324 48.0287 87.8814 48.1492C88.1304 48.2696 88.5441 48.3982 89.1225 48.5347C89.251 48.5669 89.3996 48.603 89.5683 48.6432C89.737 48.6833 89.9177 48.7355 90.1105 48.7998C90.97 49.0569 91.6447 49.3822 92.1347 49.7758C92.6328 50.1774 92.8818 50.7558 92.8818 51.5109C92.8818 52.4025 92.5284 53.0973 91.8215 53.5954C91.1146 54.0934 90.1667 54.3424 88.9779 54.3424ZM99.6534 46.7635C99.6534 46.8197 99.6333 46.8679 99.5932 46.9081C99.553 46.9563 99.5008 46.9804 99.4365 46.9804H97.7015C97.6452 46.9804 97.6171 47.0085 97.6171 47.0647V50.8964C97.6171 51.29 97.6974 51.5872 97.8581 51.788C98.0188 51.9808 98.2838 52.0772 98.6533 52.0772H99.2438C99.3 52.0772 99.3522 52.0973 99.4004 52.1374C99.4406 52.1776 99.4606 52.2298 99.4606 52.2941V54.005C99.4606 54.1416 99.3883 54.2179 99.2438 54.234C98.7377 54.2581 98.3762 54.2701 98.1593 54.2701C97.1552 54.2701 96.4082 54.1055 95.9182 53.7761C95.4202 53.4468 95.1671 52.8242 95.1591 51.9085V47.0647C95.1591 47.0085 95.127 46.9804 95.0627 46.9804H94.0385C93.9743 46.9804 93.922 46.9563 93.8819 46.9081C93.8417 46.8679 93.8216 46.8197 93.8216 46.7635V45.1489C93.8216 45.0927 93.8417 45.0405 93.8819 44.9923C93.922 44.9521 93.9743 44.932 94.0385 44.932H95.0627C95.127 44.932 95.1591 44.8999 95.1591 44.8356V42.6909C95.1591 42.6347 95.1792 42.5824 95.2193 42.5342C95.2595 42.4941 95.3117 42.474 95.376 42.474H97.4002C97.4565 42.474 97.5087 42.4941 97.5569 42.5342C97.597 42.5824 97.6171 42.6347 97.6171 42.6909V44.8356C97.6171 44.8999 97.6452 44.932 97.7015 44.932H99.4365C99.5008 44.932 99.553 44.9521 99.5932 44.9923C99.6333 45.0405 99.6534 45.0927 99.6534 45.1489V46.7635Z" fill="#252530"/>
<path d="M65.9287 90.9475C65.3021 90.9475 64.7559 90.8471 64.29 90.6463C63.8241 90.4455 63.4626 90.1643 63.2056 89.8028C62.9565 89.4414 62.832 89.0156 62.832 88.5256V88.2244C62.832 88.1842 62.8481 88.1481 62.8802 88.116C62.9043 88.0919 62.9365 88.0798 62.9766 88.0798H64.049C64.0892 88.0798 64.1253 88.0919 64.1574 88.116C64.1815 88.1481 64.1936 88.1842 64.1936 88.2244V88.4533C64.1936 88.8228 64.3583 89.1281 64.6876 89.3691C65.0169 89.6181 65.4668 89.7426 66.0371 89.7426C66.5271 89.7426 66.8966 89.6382 67.1456 89.4293C67.3946 89.2205 67.5192 88.9514 67.5192 88.622C67.5192 88.3971 67.4509 88.2043 67.3143 88.0437C67.1778 87.891 66.985 87.7505 66.736 87.6219C66.4789 87.4934 66.0974 87.3328 65.5913 87.14C65.021 86.9311 64.5591 86.7343 64.2056 86.5496C63.8522 86.3648 63.559 86.1118 63.326 85.7905C63.0851 85.4772 62.9646 85.0836 62.9646 84.6097C62.9646 83.9028 63.2216 83.3445 63.7357 82.9348C64.2498 82.5252 64.9366 82.3203 65.7961 82.3203C66.3986 82.3203 66.9328 82.4247 67.3987 82.6336C67.8565 82.8424 68.214 83.1356 68.471 83.5132C68.7281 83.8827 68.8566 84.3124 68.8566 84.8024V85.0073C68.8566 85.0474 68.8405 85.0836 68.8084 85.1157C68.7843 85.1398 68.7522 85.1519 68.712 85.1519H67.6276C67.5874 85.1519 67.5553 85.1398 67.5312 85.1157C67.4991 85.0836 67.483 85.0474 67.483 85.0073V84.8747C67.483 84.4972 67.3304 84.1799 67.0251 83.9229C66.7119 83.6578 66.2821 83.5252 65.7359 83.5252C65.2941 83.5252 64.9527 83.6176 64.7117 83.8024C64.4627 83.9871 64.3382 84.2482 64.3382 84.5856C64.3382 84.8265 64.4024 85.0233 64.531 85.176C64.6595 85.3286 64.8523 85.4651 65.1093 85.5856C65.3664 85.7142 65.764 85.8748 66.3022 86.0676C66.8725 86.2845 67.3304 86.4813 67.6758 86.658C68.0132 86.8347 68.3064 87.0797 68.5554 87.393C68.7964 87.7143 68.9169 88.1119 68.9169 88.5859C68.9169 89.3088 68.6478 89.8832 68.1096 90.3089C67.5794 90.7346 66.8524 90.9475 65.9287 90.9475ZM73.7124 82.4047C74.2185 82.4047 74.6643 82.5091 75.0499 82.7179C75.4355 82.9268 75.7327 83.22 75.9415 83.5975C76.1584 83.9831 76.2668 84.4249 76.2668 84.9229C76.2668 85.4129 76.1584 85.8467 75.9415 86.2242C75.7246 86.6018 75.4194 86.891 75.0258 87.0918C74.6241 87.3006 74.1623 87.4051 73.6401 87.4051H71.7123C71.6721 87.4051 71.652 87.4251 71.652 87.4653V90.7065C71.652 90.7467 71.64 90.7788 71.6159 90.8029C71.5837 90.8351 71.5476 90.8511 71.5074 90.8511H70.3989C70.3587 90.8511 70.3266 90.8351 70.3025 90.8029C70.2704 90.7788 70.2543 90.7467 70.2543 90.7065V82.5492C70.2543 82.5091 70.2704 82.4729 70.3025 82.4408C70.3266 82.4167 70.3587 82.4047 70.3989 82.4047H73.7124ZM73.5076 86.2724C73.9173 86.2724 74.2466 86.1519 74.4956 85.911C74.7446 85.67 74.8691 85.3527 74.8691 84.9591C74.8691 84.5574 74.7446 84.2321 74.4956 83.9831C74.2466 83.7341 73.9173 83.6096 73.5076 83.6096H71.7123C71.6721 83.6096 71.652 83.6297 71.652 83.6698V86.2122C71.652 86.2524 71.6721 86.2724 71.7123 86.2724H73.5076ZM82.2312 90.8511C82.1509 90.8511 82.0946 90.815 82.0625 90.7427L80.472 87.2725C80.4559 87.2404 80.4318 87.2243 80.3997 87.2243H78.9538C78.9136 87.2243 78.8936 87.2444 78.8936 87.2846V90.7065C78.8936 90.7467 78.8775 90.7788 78.8454 90.8029C78.8213 90.8351 78.7891 90.8511 78.749 90.8511H77.6405C77.6003 90.8511 77.5682 90.8351 77.5441 90.8029C77.5119 90.7788 77.4959 90.7467 77.4959 90.7065V82.5613C77.4959 82.5211 77.5119 82.489 77.5441 82.4649C77.5682 82.4328 77.6003 82.4167 77.6405 82.4167H80.954C81.444 82.4167 81.8777 82.5171 82.2553 82.7179C82.6328 82.9268 82.926 83.216 83.1349 83.5855C83.3437 83.963 83.4481 84.3928 83.4481 84.8747C83.4481 85.429 83.3076 85.8989 83.0264 86.2845C82.7372 86.6781 82.3396 86.9512 81.8336 87.1038C81.8175 87.1038 81.8054 87.1119 81.7974 87.1279C81.7894 87.144 81.7894 87.1601 81.7974 87.1761L83.4963 90.6824C83.5124 90.7146 83.5204 90.7387 83.5204 90.7547C83.5204 90.819 83.4763 90.8511 83.3879 90.8511H82.2312ZM78.9538 83.6216C78.9136 83.6216 78.8936 83.6417 78.8936 83.6819V86.0797C78.8936 86.1198 78.9136 86.1399 78.9538 86.1399H80.7612C81.1468 86.1399 81.456 86.0234 81.689 85.7905C81.93 85.5655 82.0504 85.2643 82.0504 84.8868C82.0504 84.5092 81.93 84.204 81.689 83.9711C81.456 83.7381 81.1468 83.6216 80.7612 83.6216H78.9538ZM85.0266 90.8511C84.9864 90.8511 84.9503 90.8351 84.9181 90.8029C84.894 90.7788 84.882 90.7467 84.882 90.7065V82.5613C84.882 82.5211 84.894 82.489 84.9181 82.4649C84.9503 82.4328 84.9864 82.4167 85.0266 82.4167H86.1351C86.1753 82.4167 86.2074 82.4328 86.2315 82.4649C86.2636 82.489 86.2797 82.5211 86.2797 82.5613V90.7065C86.2797 90.7467 86.2636 90.7788 86.2315 90.8029C86.2074 90.8351 86.1753 90.8511 86.1351 90.8511H85.0266ZM92.9429 82.5613C92.9429 82.5211 92.959 82.489 92.9911 82.4649C93.0152 82.4328 93.0473 82.4167 93.0875 82.4167H94.196C94.2362 82.4167 94.2723 82.4328 94.3044 82.4649C94.3285 82.489 94.3406 82.5211 94.3406 82.5613V90.7065C94.3406 90.7467 94.3285 90.7788 94.3044 90.8029C94.2723 90.8351 94.2362 90.8511 94.196 90.8511H93.1236C93.0433 90.8511 92.9871 90.819 92.9549 90.7547L89.4848 85.0675C89.4687 85.0434 89.4526 85.0314 89.4366 85.0314C89.4205 85.0394 89.4125 85.0595 89.4125 85.0916L89.4366 90.7065C89.4366 90.7467 89.4205 90.7788 89.3884 90.8029C89.3643 90.8351 89.3322 90.8511 89.292 90.8511H88.1835C88.1433 90.8511 88.1112 90.8351 88.0871 90.8029C88.0549 90.7788 88.0389 90.7467 88.0389 90.7065V82.5613C88.0389 82.5211 88.0549 82.489 88.0871 82.4649C88.1112 82.4328 88.1433 82.4167 88.1835 82.4167H89.2558C89.3362 82.4167 89.3924 82.4488 89.4245 82.5131L92.8826 88.2003C92.8987 88.2244 92.9148 88.2324 92.9308 88.2244C92.9469 88.2244 92.9549 88.2083 92.9549 88.1762L92.9429 82.5613ZM98.9193 90.9475C98.3168 90.9475 97.7866 90.831 97.3288 90.5981C96.8709 90.3571 96.5175 90.0197 96.2685 89.586C96.0194 89.1522 95.8949 88.6542 95.8949 88.0919V85.176C95.8949 84.6056 96.0194 84.1036 96.2685 83.6698C96.5175 83.2441 96.8709 82.9107 97.3288 82.6697C97.7866 82.4368 98.3168 82.3203 98.9193 82.3203C99.5137 82.3203 100.04 82.4368 100.498 82.6697C100.948 82.9027 101.297 83.22 101.546 83.6216C101.795 84.0233 101.92 84.4771 101.92 84.9832V85.0796C101.92 85.1197 101.907 85.1519 101.883 85.176C101.851 85.2081 101.815 85.2242 101.775 85.2242H100.678C100.638 85.2242 100.606 85.2081 100.582 85.176C100.55 85.1519 100.534 85.1197 100.534 85.0796V85.0193C100.534 84.5856 100.385 84.2281 100.088 83.9469C99.7989 83.6658 99.4093 83.5252 98.9193 83.5252C98.4293 83.5252 98.0357 83.6738 97.7385 83.9711C97.4412 84.2602 97.2926 84.6458 97.2926 85.1278V88.1401C97.2926 88.622 97.4493 89.0116 97.7626 89.3088C98.0758 89.598 98.4815 89.7426 98.9795 89.7426C99.4615 89.7426 99.843 89.6141 100.124 89.357C100.397 89.108 100.534 88.7626 100.534 88.3208V87.5737C100.534 87.5336 100.514 87.5135 100.474 87.5135H98.9916C98.9514 87.5135 98.9153 87.4974 98.8831 87.4653C98.859 87.4412 98.847 87.4091 98.847 87.3689V86.4773C98.847 86.4371 98.859 86.405 98.8831 86.3809C98.9153 86.3488 98.9514 86.3327 98.9916 86.3327H101.775C101.815 86.3327 101.851 86.3488 101.883 86.3809C101.907 86.405 101.92 86.4371 101.92 86.4773V88.0196C101.92 88.9433 101.65 89.6623 101.112 90.1764C100.566 90.6905 99.835 90.9475 98.9193 90.9475Z" fill="white"/>
<path d="M67.0023 112.612C66.9782 112.636 66.9702 112.66 66.9782 112.684C66.9943 112.708 67.0184 112.72 67.0505 112.72H71.7859C71.8421 112.72 71.8903 112.74 71.9304 112.78C71.9786 112.82 72.0027 112.869 72.0027 112.925V114.624C72.0027 114.68 71.9786 114.728 71.9304 114.768C71.8903 114.809 71.8421 114.829 71.7859 114.829H63.9298C63.8655 114.829 63.8133 114.809 63.7732 114.768C63.733 114.728 63.7129 114.68 63.7129 114.624V113.009C63.7129 112.905 63.7491 112.816 63.8214 112.744C64.3917 112.19 64.9741 111.583 65.5685 110.925C66.1629 110.266 66.5364 109.856 66.6891 109.696C67.0104 109.31 67.3397 108.941 67.6771 108.587C68.7374 107.414 69.2676 106.543 69.2676 105.972C69.2676 105.563 69.123 105.225 68.8338 104.96C68.5446 104.703 68.1671 104.575 67.7012 104.575C67.2353 104.575 66.8577 104.703 66.5686 104.96C66.2714 105.225 66.1228 105.575 66.1228 106.009V106.442C66.1228 106.499 66.1027 106.547 66.0625 106.587C66.0223 106.627 65.9741 106.647 65.9179 106.647H63.8575C63.8013 106.647 63.7531 106.627 63.7129 106.587C63.6647 106.547 63.6406 106.499 63.6406 106.442V105.623C63.6808 104.996 63.8816 104.438 64.2431 103.948C64.6046 103.466 65.0825 103.097 65.6769 102.84C66.2794 102.583 66.9541 102.454 67.7012 102.454C68.5286 102.454 69.2475 102.611 69.858 102.924C70.4685 103.229 70.9384 103.643 71.2677 104.165C71.6051 104.695 71.7738 105.278 71.7738 105.912C71.7738 106.402 71.6493 106.904 71.4003 107.418C71.1593 107.932 70.7938 108.487 70.3038 109.081C69.9423 109.531 69.5527 109.981 69.135 110.431C68.7173 110.872 68.0948 111.511 67.2674 112.346L67.0023 112.612ZM77.6779 115.021C76.3927 115.021 75.3805 114.664 74.6415 113.949C73.8945 113.234 73.5209 112.258 73.5209 111.021V106.406C73.5209 105.193 73.8945 104.233 74.6415 103.526C75.3805 102.812 76.3927 102.454 77.6779 102.454C78.9551 102.454 79.9713 102.812 80.7263 103.526C81.4734 104.233 81.8469 105.193 81.8469 106.406V111.021C81.8469 112.258 81.4734 113.234 80.7263 113.949C79.9713 114.664 78.9551 115.021 77.6779 115.021ZM77.6779 112.913C78.2 112.913 78.6137 112.752 78.919 112.431C79.2322 112.109 79.3889 111.68 79.3889 111.142V106.334C79.3889 105.804 79.2322 105.378 78.919 105.057C78.6137 104.735 78.2 104.575 77.6779 104.575C77.1638 104.575 76.7541 104.735 76.4489 105.057C76.1356 105.378 75.979 105.804 75.979 106.334V111.142C75.979 111.68 76.1356 112.109 76.4489 112.431C76.7541 112.752 77.1638 112.913 77.6779 112.913ZM86.7389 112.612C86.7148 112.636 86.7108 112.66 86.7268 112.684C86.7349 112.708 86.7589 112.72 86.7991 112.72H91.5344C91.5907 112.72 91.6389 112.74 91.679 112.78C91.7192 112.82 91.7393 112.869 91.7393 112.925V114.624C91.7393 114.68 91.7192 114.728 91.679 114.768C91.6389 114.809 91.5907 114.829 91.5344 114.829H83.6663C83.6101 114.829 83.5619 114.809 83.5217 114.768C83.4816 114.728 83.4615 114.68 83.4615 114.624V113.009C83.4615 112.905 83.4936 112.816 83.5579 112.744C84.1362 112.19 84.7186 111.583 85.305 110.925C85.8994 110.266 86.273 109.856 86.4256 109.696C86.7549 109.31 87.0883 108.941 87.4257 108.587C88.486 107.414 89.0162 106.543 89.0162 105.972C89.0162 105.563 88.8716 105.225 88.5824 104.96C88.2852 104.703 87.9036 104.575 87.4377 104.575C86.9718 104.575 86.5943 104.703 86.3051 104.96C86.0159 105.225 85.8713 105.575 85.8713 106.009V106.442C85.8713 106.499 85.8512 106.547 85.8111 106.587C85.7709 106.627 85.7187 106.647 85.6544 106.647H83.594C83.5378 106.647 83.4896 106.627 83.4494 106.587C83.4093 106.547 83.3892 106.499 83.3892 106.442V105.623C83.4213 104.996 83.6181 104.438 83.9796 103.948C84.3411 103.466 84.823 103.097 85.4255 102.84C86.028 102.583 86.6987 102.454 87.4377 102.454C88.2651 102.454 88.984 102.611 89.5945 102.924C90.213 103.229 90.687 103.643 91.0163 104.165C91.3457 104.695 91.5103 105.278 91.5103 105.912C91.5103 106.402 91.3898 106.904 91.1489 107.418C90.8998 107.932 90.5303 108.487 90.0403 109.081C89.6789 109.531 89.2893 109.981 88.8716 110.431C88.4539 110.872 87.8313 111.511 87.004 112.346L86.7389 112.612ZM100.547 108.997C100.78 109.527 100.897 110.141 100.897 110.84C100.897 111.475 100.792 112.057 100.583 112.587C100.302 113.334 99.8323 113.917 99.1736 114.335C98.5149 114.76 97.7357 114.973 96.8361 114.973C95.9525 114.973 95.1773 114.752 94.5106 114.31C93.8439 113.861 93.3619 113.258 93.0647 112.503C92.904 112.053 92.8116 111.563 92.7875 111.033C92.7875 110.897 92.8558 110.828 92.9924 110.828H95.0648C95.2014 110.828 95.2697 110.897 95.2697 111.033C95.3179 111.419 95.3821 111.704 95.4625 111.889C95.5669 112.194 95.7396 112.431 95.9806 112.599C96.2135 112.768 96.4947 112.853 96.824 112.853C97.4747 112.853 97.9245 112.567 98.1735 111.997C98.3342 111.652 98.4145 111.246 98.4145 110.78C98.4145 110.226 98.3261 109.776 98.1494 109.431C97.8843 108.884 97.4385 108.611 96.812 108.611C96.6834 108.611 96.5469 108.647 96.4023 108.72C96.2657 108.8 96.097 108.908 95.8962 109.045C95.848 109.077 95.8039 109.093 95.7637 109.093C95.6914 109.093 95.6392 109.061 95.607 108.997L94.5708 107.539C94.5467 107.507 94.5347 107.467 94.5347 107.418C94.5347 107.346 94.5588 107.29 94.607 107.25L97.3783 104.816C97.4024 104.792 97.4144 104.768 97.4144 104.743C97.4064 104.719 97.3863 104.707 97.3542 104.707H93.2454C93.1892 104.707 93.137 104.687 93.0888 104.647C93.0486 104.607 93.0285 104.559 93.0285 104.502V102.804C93.0285 102.747 93.0486 102.699 93.0888 102.659C93.137 102.619 93.1892 102.599 93.2454 102.599H100.523C100.587 102.599 100.64 102.619 100.68 102.659C100.72 102.699 100.74 102.747 100.74 102.804V104.731C100.74 104.82 100.7 104.908 100.62 104.996L98.3302 107.093C98.3061 107.117 98.298 107.137 98.3061 107.153C98.3061 107.177 98.3302 107.189 98.3784 107.189C99.3905 107.39 100.113 107.993 100.547 108.997Z" fill="#252530"/>
</svg>
