<svg width="65" height="48" viewBox="0 0 65 48" fill="none" xmlns="http://www.w3.org/2000/svg">
<g clip-path="url(#clip0_548_10843)">
<path fill-rule="evenodd" clip-rule="evenodd" d="M28.2184 29.6274L28.309 30L28 29.7944L27.691 30L27.7816 29.6274L27.5 29.3819L27.8651 29.3575L28 29L28.135 29.3575L28.5 29.3819L28.2184 29.6274Z" fill="white"/>
<path fill-rule="evenodd" clip-rule="evenodd" d="M24.2185 26.6271L24.3091 27L24 26.7941L23.691 27L23.7815 26.6271L23.5 26.3819L23.865 26.3574L24 26L24.135 26.3574L24.5 26.3819L24.2185 26.6271Z" fill="white"/>
<path fill-rule="evenodd" clip-rule="evenodd" d="M23.2184 21.6274L23.309 22L23 21.7943L22.691 22L22.7816 21.6274L22.5 21.382L22.8651 21.3575L23 21L23.1349 21.3575L23.5 21.382L23.2184 21.6274Z" fill="white"/>
<path fill-rule="evenodd" clip-rule="evenodd" d="M64.5 0V51.2H0.5V0H64.5Z" fill="#009C37"/>
<path d="M59.5 23.5L32.5 41L5.5 23.5L32.5 6L59.5 23.5Z" fill="#FEE000"/>
<path d="M32.4999 12C38.5741 12 43.5 17.1497 43.5 23.5001C43.5 29.8504 38.5741 35 32.4999 35C26.4258 35 21.5 29.8503 21.5 23.5001C21.5 17.1499 26.4258 12 32.4999 12Z" fill="#002277"/>
<path fill-rule="evenodd" clip-rule="evenodd" d="M36.2184 19.6274L36.309 20L36.0001 19.7943L35.691 20L35.7817 19.6274L35.5 19.382L35.8652 19.3575L36.0001 19L36.1349 19.3575L36.5 19.382L36.2184 19.6274Z" fill="white"/>
<path fill-rule="evenodd" clip-rule="evenodd" d="M35.2185 22.6274L35.3089 23L35.0001 22.7943L34.691 23L34.7817 22.6274L34.5 22.3819L34.865 22.3575L35.0001 22L35.135 22.3575L35.5 22.3819L35.2185 22.6274Z" fill="white"/>
<path fill-rule="evenodd" clip-rule="evenodd" d="M23.2184 21.6274L23.309 22L23.0001 21.7943L22.691 22L22.7817 21.6274L22.5 21.382L22.8652 21.3575L23.0001 21L23.1349 21.3575L23.5 21.382L23.2184 21.6274Z" fill="white"/>
<path fill-rule="evenodd" clip-rule="evenodd" d="M28.2184 23.6275L28.3091 24L27.9999 23.7944L27.6909 24L27.7816 23.6275L27.5 23.3818L27.865 23.3574L27.9999 23L28.135 23.3574L28.5 23.3818L28.2184 23.6275Z" fill="white"/>
<path fill-rule="evenodd" clip-rule="evenodd" d="M24.2184 26.6274L24.309 27L24.0001 26.7943L23.691 27L23.7817 26.6274L23.5 26.382L23.8652 26.3575L24.0001 26L24.1349 26.3575L24.5 26.382L24.2184 26.6274Z" fill="white"/>
<path fill-rule="evenodd" clip-rule="evenodd" d="M23.2185 27.6275L23.309 28L23 27.7944L22.691 28L22.7815 27.6275L22.5 27.3822L22.8649 27.3576L23 27L23.135 27.3576L23.5 27.3822L23.2185 27.6275Z" fill="white"/>
<path fill-rule="evenodd" clip-rule="evenodd" d="M27.2184 27.6273L27.309 28L27.0001 27.7942L26.691 28L26.7816 27.6273L26.5 27.3819L26.8651 27.3574L27.0001 27L27.135 27.3574L27.5 27.3819L27.2184 27.6273Z" fill="white"/>
<path fill-rule="evenodd" clip-rule="evenodd" d="M26.2185 28.6275L26.309 29L26 28.7942L25.691 29L25.7815 28.6275L25.5 28.3821L25.8651 28.3576L26 28L26.1349 28.3576L26.5 28.3821L26.2185 28.6275Z" fill="white"/>
<path fill-rule="evenodd" clip-rule="evenodd" d="M28.2184 29.6274L28.309 30L28.0001 29.7943L27.691 30L27.7817 29.6274L27.5 29.382L27.8652 29.3575L28.0001 29L28.1349 29.3575L28.5 29.382L28.2184 29.6274Z" fill="white"/>
<path fill-rule="evenodd" clip-rule="evenodd" d="M33.2186 25.6274L33.309 26L33 25.7943L32.691 26L32.7815 25.6274L32.5 25.382L32.865 25.3573L33 25L33.1351 25.3573L33.5 25.382L33.2186 25.6274Z" fill="white"/>
<path fill-rule="evenodd" clip-rule="evenodd" d="M34.2183 26.6273L34.3089 27L34.0001 26.7941L33.6911 27L33.7815 26.6273L33.5 26.382L33.8649 26.3574L34.0001 26L34.135 26.3574L34.5 26.382L34.2183 26.6273Z" fill="white"/>
<path fill-rule="evenodd" clip-rule="evenodd" d="M31.2185 26.6275L31.309 27L31 26.7942L30.691 27L30.7815 26.6275L30.5 26.3818L30.8651 26.3575L31 26L31.1349 26.3575L31.5 26.3818L31.2185 26.6275Z" fill="white"/>
<path fill-rule="evenodd" clip-rule="evenodd" d="M32.9368 29.2549L33.118 30L32.5002 29.5886L31.882 30L32.0634 29.2549L31.5 28.7641L32.2304 28.7149L32.5002 28L32.7698 28.7149L33.5 28.7641L32.9368 29.2549Z" fill="white"/>
<path fill-rule="evenodd" clip-rule="evenodd" d="M36.2184 31.6273L36.309 32L36.0001 31.7941L35.6909 32L35.7816 31.6273L35.5 31.3821L35.865 31.3573L36.0001 31L36.1348 31.3573L36.5 31.3821L36.2184 31.6273Z" fill="white"/>
<path fill-rule="evenodd" clip-rule="evenodd" d="M37.2184 30.6275L37.3091 31L37.0001 30.7944L36.6909 31L36.7816 30.6275L36.5 30.3822L36.8648 30.3576L37.0001 30L37.1349 30.3576L37.5 30.3822L37.2184 30.6275Z" fill="white"/>
<path fill-rule="evenodd" clip-rule="evenodd" d="M38.2184 32.6273L38.3089 33L38.0001 32.7942L37.6911 33L37.7815 32.6273L37.5 32.382L37.8651 32.3574L38.0001 32L38.1347 32.3574L38.5 32.382L38.2184 32.6273Z" fill="white"/>
<path fill-rule="evenodd" clip-rule="evenodd" d="M38.2184 31.6275L38.309 32L37.9998 31.7943L37.6908 32L37.7815 31.6275L37.5 31.382L37.865 31.3576L37.9998 31L38.1348 31.3576L38.5 31.382L38.2184 31.6275Z" fill="white"/>
<path fill-rule="evenodd" clip-rule="evenodd" d="M40.2184 29.6276L40.3091 30L40.0001 29.7945L39.6909 30L39.7816 29.6276L39.5 29.3819L39.8651 29.3575L40.0001 29L40.1349 29.3575L40.5 29.3819L40.2184 29.6276Z" fill="white"/>
<path fill-rule="evenodd" clip-rule="evenodd" d="M41.2184 28.6275L41.3091 29L40.9998 28.7945L40.6908 29L40.7815 28.6275L40.5 28.3819L40.865 28.3574L40.9998 28L41.1349 28.3574L41.5 28.3819L41.2184 28.6275Z" fill="white"/>
<path fill-rule="evenodd" clip-rule="evenodd" d="M40.2184 27.6274L40.309 28L40.0001 27.7943L39.691 28L39.7817 27.6274L39.5 27.382L39.8652 27.3575L40.0001 27L40.1349 27.3575L40.5 27.382L40.2184 27.6274Z" fill="white"/>
<path fill-rule="evenodd" clip-rule="evenodd" d="M42.2186 27.6274L42.3091 28L42.0001 27.7943L41.6909 28L41.7817 27.6274L41.5 27.3823L41.865 27.3574L42.0001 27L42.135 27.3574L42.5 27.3823L42.2186 27.6274Z" fill="white"/>
<path fill-rule="evenodd" clip-rule="evenodd" d="M25.584 19.6993C24.1962 19.6993 23.3324 19.7722 22 20C22.1628 19.3763 22.3681 18.7726 22.6117 18.1925C23.7504 18.0367 24.4087 18 25.5841 18C32.3617 18 38.599 20.6675 43.5 25.1096C43.4284 25.7558 43.3131 26.3874 43.1567 27C38.4294 22.4535 32.2855 19.6993 25.584 19.6993Z" fill="white"/>
<path fill-rule="evenodd" clip-rule="evenodd" d="M22.9648 18.7849C22.9699 18.8895 22.9982 18.9697 23.0491 19.0256C23.1001 19.0816 23.169 19.1075 23.2557 19.1039C23.3432 19.1002 23.4099 19.0685 23.4558 19.0085C23.5017 18.9486 23.5219 18.8662 23.5169 18.7616C23.5118 18.6573 23.4836 18.577 23.4321 18.5212C23.3806 18.4652 23.3111 18.4393 23.2236 18.443C23.137 18.4467 23.0708 18.4784 23.0254 18.5382C22.9801 18.5977 22.9598 18.68 22.9648 18.7849L22.9648 18.7849ZM22.758 18.7936C22.7506 18.6401 22.7881 18.5165 22.8705 18.4228C22.9529 18.329 23.0678 18.2788 23.2152 18.2727C23.3624 18.2665 23.4818 18.3067 23.5736 18.3933C23.6653 18.48 23.7148 18.5998 23.7222 18.7529C23.7297 18.9061 23.692 19.0299 23.6091 19.1238C23.5261 19.2177 23.4111 19.2679 23.2639 19.274C23.1165 19.2802 22.9972 19.2401 22.906 19.1534C22.8148 19.0668 22.7655 18.9468 22.758 18.7936L22.758 18.7936ZM24.3707 18.6815L24.6096 18.6835C24.6612 18.6839 24.6993 18.674 24.7239 18.6541C24.7482 18.634 24.7606 18.6022 24.7608 18.5587C24.761 18.5175 24.7494 18.4861 24.7259 18.4645C24.7024 18.4429 24.667 18.432 24.6203 18.4316L24.3721 18.4296L24.3707 18.6815L24.3707 18.6815ZM24.1643 19.2151L24.1698 18.2638L24.6487 18.2677C24.7563 18.2685 24.836 18.2915 24.8876 18.3362C24.9393 18.381 24.9647 18.4491 24.9642 18.5403C24.9638 18.5983 24.9509 18.6468 24.9255 18.6853C24.9001 18.7239 24.8634 18.75 24.816 18.7638C24.8589 18.7789 24.8892 18.8015 24.9073 18.8317C24.9252 18.8621 24.9353 18.9091 24.9376 18.9729L24.9412 19.0852C24.9411 19.0861 24.9411 19.0875 24.9411 19.0892C24.9418 19.1459 24.9545 19.1805 24.9788 19.1926L24.9785 19.2218L24.7557 19.22C24.7488 19.2065 24.7435 19.1901 24.7398 19.1705C24.7363 19.1508 24.7338 19.1275 24.7334 19.1003L24.7312 19.0002C24.7292 18.9413 24.718 18.9013 24.6974 18.8807C24.6767 18.8597 24.6392 18.8491 24.5851 18.8487L24.3697 18.8469L24.3676 19.2167L24.1644 19.2151L24.1643 19.2151ZM25.6291 19.0604L25.7917 19.07C25.8859 19.0756 25.9556 19.0558 26.0005 19.0108C26.0456 18.966 26.0712 18.89 26.0777 18.7835C26.0841 18.6774 26.0691 18.5981 26.0329 18.546C25.9965 18.4937 25.9367 18.4653 25.8532 18.4604L25.6658 18.4493L25.6291 19.0604L25.6291 19.0604ZM25.42 19.2203L25.4771 18.2707L25.8632 18.2933C26.0144 18.3023 26.1249 18.3483 26.1943 18.4311C26.2639 18.5141 26.294 18.6356 26.2844 18.7955C26.2792 18.8822 26.2609 18.958 26.2295 19.0225C26.198 19.0871 26.1548 19.138 26.1004 19.1753C26.0593 19.203 26.0135 19.2221 25.9627 19.2323C25.9118 19.2423 25.8415 19.2448 25.7512 19.2395L25.42 19.2203L25.42 19.2203ZM26.671 19.292L26.7625 18.3452L27.4765 18.4113L27.4605 18.5759L26.946 18.5283L26.9265 18.7302L27.3971 18.7738L27.3813 18.9357L26.9108 18.8921L26.8872 19.1357L27.4258 19.1856L27.4089 19.3605L26.671 19.292L26.671 19.292ZM27.8295 19.4054L27.9723 18.4647L28.2697 18.5074L28.3552 19.2514L28.6557 18.5628L28.9542 18.6058L28.8114 19.5467L28.623 19.5196L28.7381 18.7608L28.4245 19.4911L28.2189 19.4615L28.133 18.6738L28.0179 19.4326L27.8295 19.4054L27.8295 19.4054ZM30.4309 19.8353L30.6751 18.9143L31.37 19.0872L31.3275 19.2473L30.8269 19.1228L30.7748 19.3191L31.2327 19.433L31.191 19.5906L30.733 19.4767L30.6702 19.7136L31.1944 19.844L31.1492 20.0143L30.4309 19.8353L30.4309 19.8353ZM33.04 19.9996L33.2276 20.0565C33.2782 20.0719 33.3183 20.0726 33.3483 20.059C33.378 20.0451 33.4004 20.0154 33.4152 19.9694C33.4291 19.9263 33.4284 19.8903 33.4131 19.8611C33.3975 19.8322 33.3675 19.8109 33.3227 19.7972L33.125 19.7373L33.04 19.9996L33.04 19.9996ZM32.9855 20.1636L32.8811 20.4863L32.6871 20.4275L32.981 19.5202L33.4 19.6474C33.499 19.6773 33.566 19.725 33.6012 19.7898C33.6359 19.8547 33.6382 19.9349 33.607 20.0309C33.5768 20.1245 33.5283 20.189 33.4622 20.2245C33.3958 20.2601 33.316 20.2639 33.2238 20.2359L32.9855 20.1636L32.9855 20.1636ZM34.1657 20.3609L34.3912 20.4377C34.4399 20.4543 34.4794 20.457 34.5095 20.4457C34.5394 20.4344 34.5616 20.4083 34.5767 20.3672C34.5908 20.3283 34.5903 20.295 34.5755 20.2673C34.5603 20.2396 34.5306 20.2182 34.4866 20.2031L34.2524 20.1233L34.1657 20.3609L34.1657 20.3609ZM33.7902 20.8002L34.1169 19.9034L34.5689 20.0574C34.6705 20.0919 34.738 20.1385 34.7716 20.197C34.8054 20.2556 34.8065 20.3278 34.7751 20.4139C34.7553 20.4686 34.7268 20.5103 34.6894 20.5386C34.6523 20.5671 34.6089 20.5803 34.5595 20.5784C34.5949 20.6061 34.6159 20.6369 34.623 20.6713C34.6297 20.7056 34.6231 20.7531 34.604 20.8141L34.5694 20.9212C34.5687 20.9221 34.5684 20.9233 34.568 20.9249C34.5497 20.9787 34.5499 21.0154 34.5687 21.0345L34.5587 21.062L34.3482 20.9904C34.3463 20.9754 34.347 20.9583 34.35 20.9386C34.3533 20.9189 34.3589 20.8961 34.3678 20.8704L34.3995 20.775C34.4175 20.7189 34.4204 20.6776 34.4078 20.6516C34.3952 20.6253 34.3633 20.6034 34.3125 20.5862L34.1093 20.517L33.9822 20.8658L33.7904 20.8002L33.7902 20.8002ZM35.293 20.8576C35.2517 20.9544 35.2421 21.0384 35.2639 21.1098C35.2858 21.1811 35.3368 21.2327 35.4169 21.2646C35.498 21.2969 35.5726 21.2954 35.6405 21.2598C35.7085 21.2242 35.7631 21.158 35.8043 21.0613C35.8455 20.9647 35.8551 20.8806 35.8328 20.8091C35.8106 20.7376 35.7588 20.6857 35.6779 20.6535C35.5977 20.6214 35.5237 20.6232 35.4564 20.6588C35.3889 20.6944 35.3343 20.7607 35.293 20.8576L35.293 20.8576ZM35.1015 20.7812C35.1619 20.6393 35.2504 20.5427 35.3662 20.4914C35.4822 20.4401 35.6084 20.4415 35.7451 20.4958C35.8814 20.5503 35.9722 20.6352 36.0172 20.751C36.0624 20.8667 36.055 20.9953 35.9946 21.1369C35.934 21.2787 35.8456 21.3753 35.7291 21.4266C35.6127 21.4779 35.4863 21.4764 35.3499 21.4221C35.2132 21.3677 35.1227 21.2828 35.0779 21.1672C35.0332 21.0517 35.0408 20.923 35.1015 20.7812L35.1015 20.7812ZM36.8815 21.9712C36.827 21.9992 36.7739 22.0135 36.7217 22.0145C36.6697 22.0152 36.615 22.0027 36.5578 21.9764C36.4332 21.9193 36.3527 21.8312 36.3162 21.7124C36.2799 21.5935 36.2951 21.4661 36.3618 21.3306C36.4291 21.1938 36.5216 21.102 36.639 21.0555C36.7564 21.0088 36.8794 21.0151 37.008 21.0739C37.1199 21.1252 37.1985 21.1927 37.2441 21.2766C37.2891 21.3606 37.2965 21.4508 37.2654 21.547L37.0782 21.4611C37.0888 21.4113 37.0826 21.3668 37.059 21.3275C37.0354 21.2881 36.9955 21.2554 36.9394 21.2297C36.8649 21.1955 36.7932 21.1949 36.7246 21.228C36.6559 21.2611 36.5991 21.3241 36.5534 21.4169C36.5075 21.5103 36.4937 21.5934 36.5122 21.6668C36.5306 21.74 36.5787 21.7944 36.6564 21.8299C36.7143 21.8566 36.7712 21.8624 36.8265 21.8474C36.882 21.8321 36.9287 21.7979 36.966 21.7447L36.7638 21.6521L36.836 21.5051L37.2057 21.6747L36.9771 22.1393L36.8542 22.0828L36.8815 21.9712L36.8815 21.9712ZM37.8206 21.9841L38.0309 22.0939C38.0765 22.1177 38.115 22.1262 38.1465 22.1196C38.1778 22.1129 38.2041 22.0905 38.2256 22.0521C38.246 22.0159 38.2508 21.983 38.2408 21.9533C38.2304 21.9237 38.2044 21.8981 38.1633 21.8766L37.9449 21.7625L37.8206 21.9841L37.8206 21.9841ZM37.3783 22.3611L37.8466 21.5251L38.2682 21.7452C38.3629 21.7946 38.4223 21.8509 38.446 21.9137C38.4698 21.9765 38.4592 22.048 38.4143 22.1282C38.3858 22.1792 38.3507 22.216 38.3093 22.2385C38.268 22.261 38.223 22.2675 38.1745 22.2581C38.205 22.2908 38.2208 22.3244 38.2221 22.3594C38.2232 22.3942 38.2091 22.4402 38.1801 22.4975L38.1284 22.5981C38.1278 22.5988 38.1274 22.6 38.1267 22.6015C38.0996 22.6519 38.0938 22.6882 38.1096 22.7098L38.0951 22.7353L37.8989 22.633C37.8993 22.6179 37.9027 22.6011 37.9089 22.5821C37.9153 22.5632 37.9246 22.5415 37.9375 22.5173L37.9841 22.4281C38.0113 22.3753 38.0209 22.335 38.0125 22.3074C38.0045 22.2797 37.9765 22.2533 37.9289 22.2285L37.7395 22.1295L37.5573 22.4546L37.3784 22.3612L37.3783 22.3611ZM38.4587 22.9511L38.972 22.1399L39.5847 22.5008L39.4954 22.6419L39.0541 22.3819L38.9447 22.5548L39.3483 22.7926L39.2605 22.9314L38.8569 22.6936L38.725 22.9022L39.187 23.1745L39.0922 23.3243L38.4587 22.9511L38.4587 22.9511ZM39.5602 23.2907L39.7276 23.3973C39.7043 23.4447 39.7009 23.4887 39.717 23.5292C39.7333 23.5696 39.7703 23.6082 39.8282 23.645C39.8777 23.6765 39.9205 23.6915 39.957 23.6906C39.9936 23.6898 40.023 23.6727 40.0457 23.6397C40.0784 23.5915 40.0339 23.5061 39.9115 23.3829C39.91 23.3813 39.9085 23.3799 39.9073 23.3787C39.9041 23.3755 39.8993 23.3706 39.8926 23.3637C39.8266 23.2985 39.784 23.2456 39.7652 23.2046C39.7482 23.1682 39.7426 23.1297 39.748 23.0898C39.7534 23.0497 39.7701 23.0091 39.7984 22.9677C39.8512 22.8905 39.919 22.8488 40.0017 22.8422C40.0841 22.8358 40.177 22.8653 40.28 22.9309C40.3764 22.9922 40.4369 23.0621 40.4613 23.1403C40.4855 23.2188 40.472 23.2986 40.4205 23.3805L40.2574 23.2767C40.2807 23.2363 40.2855 23.1973 40.2715 23.1598C40.2575 23.1221 40.225 23.0869 40.1739 23.0545C40.1293 23.0262 40.0896 23.0126 40.0539 23.0141C40.0184 23.0155 39.9903 23.0316 39.9691 23.0625C39.9404 23.1045 39.9659 23.1656 40.0452 23.2461C40.0667 23.268 40.0834 23.2852 40.0954 23.2974C40.1456 23.3503 40.1804 23.3892 40.2 23.4132C40.2196 23.4375 40.2353 23.4608 40.2471 23.4828C40.2682 23.522 40.2774 23.5619 40.2737 23.6022C40.2705 23.6424 40.2544 23.6835 40.2261 23.7247C40.1697 23.8071 40.0973 23.8526 40.0081 23.8614C39.9193 23.87 39.8223 23.841 39.717 23.7739C39.6131 23.7079 39.5475 23.6329 39.5202 23.5491C39.4929 23.465 39.5062 23.3791 39.5601 23.2907L39.5602 23.2907ZM40.5747 23.9592L40.7362 24.0741C40.7102 24.1201 40.7044 24.1639 40.7184 24.2053C40.7325 24.2465 40.7673 24.2867 40.8231 24.3266C40.8707 24.3605 40.9128 24.3777 40.9492 24.3786C40.9858 24.3797 41.0161 24.3642 41.0406 24.3322C41.0762 24.2857 41.036 24.1982 40.9208 24.0692C40.9192 24.0674 40.9177 24.066 40.9168 24.0645C40.9136 24.0613 40.9089 24.0561 40.9028 24.0489C40.8404 23.9806 40.8007 23.9257 40.7842 23.8837C40.7692 23.8463 40.7657 23.8078 40.7731 23.7681C40.7807 23.7284 40.7998 23.6887 40.8301 23.6488C40.887 23.5745 40.9573 23.5361 41.04 23.5338C41.1226 23.5316 41.2138 23.5658 41.3133 23.6364C41.4062 23.7027 41.4628 23.7752 41.4829 23.8546C41.5027 23.9343 41.4851 24.0134 41.4291 24.0925L41.2719 23.9807C41.2972 23.9414 41.304 23.9028 41.2923 23.8646C41.2803 23.8263 41.25 23.7895 41.2006 23.7547C41.1577 23.724 41.1185 23.7086 41.0829 23.708C41.0475 23.7078 41.0184 23.7224 40.9957 23.752C40.9644 23.7925 40.9868 23.8548 41.0615 23.9394C41.0817 23.9622 41.0979 23.9802 41.1089 23.9929C41.1561 24.0484 41.1889 24.0887 41.207 24.114C41.2253 24.1392 41.2397 24.1632 41.2502 24.1856C41.2692 24.226 41.2761 24.266 41.2706 24.3062C41.2649 24.3463 41.247 24.3864 41.2165 24.4262C41.1555 24.5057 41.0806 24.5476 40.9912 24.5516C40.9019 24.5557 40.8066 24.5218 40.7048 24.4495C40.6049 24.3784 40.5432 24.3003 40.5207 24.2151C40.498 24.1296 40.5158 24.0446 40.5746 23.9592L40.5747 23.9592ZM41.8025 24.6509C41.7335 24.7315 41.699 24.8094 41.698 24.8835C41.6972 24.9578 41.7304 25.0215 41.7975 25.0746C41.8654 25.1283 41.9372 25.1478 42.0129 25.1331C42.0888 25.1182 42.1611 25.07 42.23 24.9892C42.2987 24.9088 42.3332 24.8312 42.3338 24.7564C42.3343 24.6819 42.3004 24.6179 42.2326 24.5642C42.1657 24.5109 42.0942 24.4919 42.0191 24.5069C41.9437 24.5219 41.8715 24.5699 41.8025 24.6509L41.8025 24.6509ZM41.6423 24.524C41.743 24.4053 41.8572 24.338 41.9836 24.3217C42.1102 24.3052 42.2306 24.3422 42.3449 24.4328C42.459 24.523 42.5199 24.6298 42.5281 24.7529C42.5363 24.8764 42.4899 24.9971 42.3893 25.1154C42.2882 25.2338 42.1743 25.3011 42.0474 25.3174C41.9203 25.3335 41.7996 25.2964 41.6858 25.2063C41.5715 25.1157 41.5106 25.0092 41.5028 24.8863C41.4951 24.7633 41.5414 24.6424 41.6423 24.524L41.6423 24.524Z" fill="#009C37"/>
</g>
<rect x="1" y="0.5" width="63" height="47" rx="3.5" stroke="#D2DCE4"/>
<defs>
<clipPath id="clip0_548_10843">
<rect x="0.5" width="64" height="48" rx="4" fill="white"/>
</clipPath>
</defs>
</svg>
