<svg width="65" height="48" viewBox="0 0 65 48" fill="none" xmlns="http://www.w3.org/2000/svg">
<g clip-path="url(#clip0_548_10234)">
<path d="M15.5186 0H49.4819V48H15.5186V0Z" fill="white"/>
<path d="M-1.46313 0H15.5185V48H-1.46313V0ZM49.4818 0H66.4634V48H49.4819L49.4818 0ZM20.5972 23.1947L19.2784 23.6454L25.4149 29.031C25.8789 30.4151 25.2536 30.8231 24.8552 31.5491L31.5171 30.7035L31.3436 37.4077L32.7234 37.3681L32.4225 30.7195L39.0909 31.51C38.6783 30.6384 38.3109 30.1757 38.6928 28.7821L44.8253 23.6797L43.7522 23.2912C42.8747 22.6141 44.1313 20.0302 44.3209 18.3995C44.3209 18.3995 40.7401 19.6309 40.5054 18.9865L39.5935 17.2348L36.336 20.8132C35.9801 20.8986 35.8285 20.757 35.745 20.4562L37.25 12.9782L34.8668 14.3185C34.6674 14.4038 34.4678 14.3303 34.3364 14.0978L32.0442 9.49837L29.6808 14.2749C29.5027 14.4461 29.3243 14.4659 29.1762 14.3496L26.9071 13.0766L28.2693 20.4963C28.1609 20.7907 27.9014 20.8736 27.5962 20.7142L24.4822 17.1763C24.0748 17.829 23.7987 18.8953 23.2603 19.1343C22.7218 19.3581 20.9184 18.6821 19.7097 18.4183C20.1226 19.9085 21.4137 22.3841 20.5966 23.1955L20.5972 23.1947Z" fill="#BF0A30"/>
</g>
<rect x="1" y="0.5" width="63" height="47" rx="3.5" stroke="#D2DCE4"/>
<defs>
<clipPath id="clip0_548_10234">
<rect x="0.5" width="64" height="48" rx="4" fill="white"/>
</clipPath>
</defs>
</svg>
