<svg width="589" height="576" viewBox="0 0 589 576" fill="none" xmlns="http://www.w3.org/2000/svg">
<g opacity="0.52">
<path d="M295.202 374.932C287.961 369.53 281.154 364.729 269.124 365.137C266.725 363.558 268.072 367.715 266.657 363.488C266.993 362.842 265.784 358.011 263.908 361.455C259.678 357.872 253.843 353.715 248.997 363.727C248.674 361.653 255.397 356.393 251.119 355.512C248.711 354.679 246.715 354.24 246.21 352.207C246.059 341.202 237.821 327.513 221.679 329.182C219.443 329.962 218.227 322.731 215.308 326.423C218.121 320.598 208.269 318.432 207.362 315.935C209.393 311.929 202.582 312.787 200.994 309.173C208.543 308.194 200.553 306.101 192.482 310.34C190.077 307.02 185.586 309.541 182.668 307.151C184.159 306.319 181.816 303.633 178.463 303.637C179.2 302.052 175.958 297.656 176.974 304.296C175.74 303.866 174.025 306.809 173.174 304.685C172.884 305.072 173.369 305.078 172.317 306.946C169.718 303.883 176.792 302.726 172.966 299.459C170.88 299.279 168.752 305.787 164.719 303.869C163.997 304.103 164.455 304.256 163.647 305.927C163.091 305.332 162.547 305.178 162.042 305.363C160.468 305.848 159.318 309.473 159.699 312.441C157.981 312.707 156.015 314.859 156.203 318.916C156.182 316.949 152.094 310.828 148.182 311.225C138.325 321.5 135.534 299.028 139.807 289.14C139.48 288.92 140.875 285.184 137.32 285.36C138.015 279.962 131.706 284.593 126.291 282.374C129.282 276.153 131.994 267.841 135.672 258.474C129.488 256.029 125.187 264.609 121.388 270.968C120.431 269.085 117.948 271.084 114.316 271.978C108.109 262.515 113.999 233.256 127.567 226.42C127.351 226.4 127.152 226.398 126.961 226.37C127.974 225.706 127.722 226.508 128.927 224.218C128.922 224.59 128.855 224.433 128.976 225.18C130.747 222.653 133.274 226.642 135.354 224.335C135.563 224.97 135.317 229.065 137.617 226.406C137.788 226.624 138.058 227.979 138.679 226.79L138.574 226.833C138.84 226.333 138.79 226.904 138.78 225.553C139.305 227.3 141.692 229.944 140.206 225.032C139.852 224.941 141.996 224.593 141.116 223.535C142.36 221.565 143.833 223.869 145.876 220.93C145.83 221.172 145.892 221.805 144.98 222.791C146.516 223.285 147.719 221.211 150.528 223.271C148.83 230.815 157.058 215.938 154.793 232.841C154.137 233.397 152.542 237.26 154.353 237.168C154.308 237.35 152.764 239.021 154.209 238.414C153.484 252.484 162.358 237.979 160.807 227.504L160.781 227.487L161.222 227.535C161.727 213.731 178.258 210.698 184.144 204.398C185.381 204.585 186.99 203.321 186.32 201.26C186.86 201.769 190.284 197.91 187.595 198.139C189.163 195.887 189.649 192.106 193.563 189.249C191.844 191.031 190.282 192.044 190.551 195.01C190.174 195.396 189.266 195.229 189.375 197.067C189.374 197.18 189.389 197.31 189.414 197.458C190.59 195.357 194.36 195.271 195.015 189.525C195.687 189.836 194.772 191.871 195.54 191.377C195.513 191.42 195.513 191.446 195.512 191.489C196.926 189.894 200.167 188.32 201.56 184.654C201.954 186.573 211.87 182.459 204.335 183.75C205.845 182.788 208.129 183.776 210 181.597C210.769 182.481 209.63 182.875 212.083 181.985C211.688 182.44 211.113 182.693 210.633 183.043C210.718 183.13 214.204 182.902 214.595 179.822C213.76 180.055 214.6 180.827 212.767 181.239C212.885 177.039 217.273 175.928 222.807 172.336C223.107 172.668 221.249 172.95 221.765 174.065C222.578 173.485 226.561 172.153 229.385 170.713C230.178 170.306 230.875 169.899 231.4 169.489C230.503 171.419 232.884 169.289 236.078 168.061C235.83 168.474 236.144 168.322 233.949 169.319C234.921 169.936 234.288 169.955 236.479 169.305C235.18 170.771 232.025 170.102 229.208 172.487C226.14 175.571 231.109 177.499 234.9 171.747C235.012 171.792 234.84 171.746 235.355 172.142C233.774 173.233 240.674 172.143 244.667 169.243C244.764 169.876 250.497 167.802 247.488 166.511C250.53 163.453 246.164 164.166 243.087 168.774C242.656 167.833 242.773 167.488 240.862 168.619C240.622 168.46 240.71 168.288 239.819 168.173C238.639 168.29 238.827 167.088 236.962 166.503C237.13 165.457 237.4 164.55 237.956 163.707C238.468 162.881 239.213 162.154 240.399 161.422C240.071 161.332 238.084 161.638 236.954 161.885C237.376 161.361 236.761 161.354 235.309 161.104C250.514 159.607 239.102 152.934 222.789 164.165C230.608 158.485 240.491 153.409 251.337 154.296C252.618 154.398 253.924 154.586 255.255 154.87C258.553 152.161 261.676 151.808 266.268 150.266C268.412 149.944 270.084 146.169 268.71 144.308C268.003 143.294 266.414 142.86 263.596 143.79C264.978 142.627 270.195 144.021 267.333 140.497C267.738 142.988 263.741 138.732 263.392 140.452C262.647 140.443 264.486 137.934 262.868 138.522C262.85 137.846 263.116 138.066 262.25 137.293C262.728 137.169 265.04 135.038 263.755 135.24C264.733 133.813 263.4 133.729 264.06 131.293C264.153 123.254 262.159 130.162 254.44 132.335C254.267 132.333 254.625 131.288 253.643 131.546C251.858 129.385 255.324 127.796 256.434 125.418L256.435 125.374C254.791 125.919 255.931 125.481 253.348 124.862C253.798 124.868 255.363 123.621 253.86 123.993C254.313 122.274 244.298 120.002 244.491 124.275C243.152 124.693 241.776 125.37 240.696 128.087C235.528 128.487 237.025 134.673 231.103 138.044C221.334 140.721 222.231 144.128 215.67 150.395C216.104 146.518 213.801 153.951 212.78 147.771C212.698 147.38 213.183 146.666 213.911 145.826C214.201 145.526 214.482 145.2 214.797 144.874C217.577 141.987 221.604 138.377 216.367 139.469C216.298 139.425 216.238 139.381 216.152 139.354C216.223 139.199 216.285 139.069 216.347 138.94C216.044 138.954 216.071 138.876 214.951 139.037C215.077 137.886 215.207 137.887 212.731 137.01C214.278 135.043 211.299 132.661 207.843 134.077C208.552 133.496 210.439 132.08 211.947 129.836C211.073 129.756 210.943 129.755 210.221 129.972C212.435 126.575 219.924 123.984 225.816 120.95C227.45 121.212 232.271 120.175 227.502 118.223C228.327 118.077 228.969 119.505 230.625 119.333C231.213 119.496 231.391 119.1 232.867 118.077C233.813 119.396 238.384 117.482 239.884 115.844C241.022 115.554 241.242 115.271 243.145 114.773C241.06 116.031 238.051 117.764 235.093 119.627C235.856 119.506 236.603 119.341 237.269 119.479C237.268 119.522 236.762 119.837 236.191 120.541C237.033 121.183 239.756 119.404 241.967 118.493C240.194 121.263 249.211 119.183 244.195 118.45C244.301 118.278 244.611 118.411 245.338 117.683C245.151 117.395 244.993 116.111 243.902 116.038C244.103 115.148 244.184 115.625 244.509 114.494C243.944 114.643 243.889 115.665 242.793 116.042C243.231 115.588 243.43 115.66 243.873 114.747C243.804 114.729 243.873 114.764 243.528 114.63C243.861 114.348 243.728 113.801 244.862 113.883C244.817 114.038 244.742 114.531 245.49 114.323C244.131 114.897 246.853 117.103 245.992 114.329C246.408 114.351 246.487 114.967 247.28 113.815C248.294 114.529 252.362 113.441 253.588 110.726C254.134 110.775 257.304 109.33 256.055 108.735C255.862 108.118 256.607 108.179 257.566 107.678C258.035 108.273 259.408 108.661 260.565 108.302C260.608 108.285 260.635 108.26 260.678 108.26C261.243 108.05 261.733 107.666 262.044 107.028C262.456 107.293 262.145 107.229 262.93 107.541C262.729 107.729 261.637 108.505 262.792 108.258C262.79 108.388 262.808 108.345 263.221 108.567C263.195 108.61 263.178 108.583 262.958 108.91C263.156 108.956 262.94 108.91 263.634 108.831C263.016 109.11 259.717 110.484 263.094 109.821C262.283 110.271 262.748 111.325 263.984 110.074C263.912 110.29 263.827 110.185 263.627 110.988C261.387 110.634 263.62 113.839 264.395 110.469C264.462 110.686 264.259 110.97 265.023 110.909C264.695 114.501 260.697 111.882 259.257 115.747C256.699 116.722 253.127 114.645 250.457 117.803C251.332 119.381 250.541 118.081 253.084 118.396C254.29 117.552 255.207 119.14 256.535 117.457C256.705 117.745 255.842 118.948 257.134 118.096C257.153 118.66 256.915 118.293 257.493 119.253C256.479 120.748 257.811 122.523 261.806 123.158C266.899 125.547 263.006 121.231 263.567 119.912C265.418 120.219 267.591 126.36 268.66 120.057C268.972 121.603 270.81 120.714 269.485 118.438C271.407 120.045 268.899 115.858 268.054 115.545C270.443 114.195 270.753 114.371 272.389 117.466C274.452 115.921 284.103 114.464 273.947 110.882C273.492 110.53 273.965 110.822 272.43 110.215C273.157 109.504 274.091 109.671 275.736 108.988C275.912 108.773 274.281 108.971 274.479 108.315C275.924 109.224 276.04 106.617 274.359 107.464C274.603 107.294 274.927 107.038 275.13 106.694C275.089 106.451 273.907 106.809 272.792 105.818C273.67 105.525 271.269 104.145 270.306 105.746C270.329 105.244 271.592 103.906 269.155 103.419C273.374 100.435 260.574 102.965 268.264 103.253C267.499 103.487 264.155 104.254 264.054 104.01C269.892 100.309 258.933 101.794 257.436 105.416C256.435 103.507 260.601 102.905 262.668 101.681C260.297 101.481 256.496 102.026 251.866 105.282C252.248 105.963 252.419 104.7 254.001 105.766C249.914 104.766 249.917 108.31 256.382 107.405C256.989 108.088 256.175 108.078 253.286 107.612C253.215 107.828 251.714 107.984 252.288 109.281C251.191 109.745 250.288 109.215 248.594 110.348C248.354 110.059 246.187 110.909 246.813 111.506C246.508 111.658 245.568 111.994 244.69 112.269C244.803 111.465 244.658 111.333 245.977 110.37C246.036 110.526 246.306 110.347 246.475 110.791C247.001 110.251 248.361 109.505 247.855 108.295C247.044 108.718 246.152 108.734 244.036 110.408C244.239 110.046 245.674 108.053 245.966 109.061C246.603 108.635 247.119 108.988 246.528 107.629C246.009 107.554 246.31 107.818 245.044 107.916C245.238 107.545 245.721 107.793 246.422 107.126C247.308 107.612 248.639 105.626 248.698 104.302C251.302 103.127 253.786 103.312 257.906 101.444C256.574 101.273 255.045 100.129 252.801 101.646C250.114 102.42 246.885 104.471 243.374 106.181C243.417 106.199 243.486 106.2 243.53 106.2C242.793 106.261 239.932 107.926 242.705 107.845C242.748 107.863 242.374 107.998 242.718 108.235C241.622 108.595 241.538 108.421 239.874 109.164C239.985 109.322 240.201 109.402 240.348 109.43C238.61 110.605 236.918 110.109 234.74 111.912C234.715 111.8 234.757 111.895 234.613 111.625C234.455 111.823 234.279 112.037 234.086 112.251C234.245 111.976 234.351 111.795 235.606 110.441C235.324 110.81 234.99 111.196 234.683 111.565C234.858 111.394 235.914 110.774 237.273 110.088C237.118 110.025 237.056 110.128 236.383 109.921C237.344 109.932 244.615 106.75 239.932 107.917C239.484 106.89 238.459 107.181 237.073 108.621C237.231 108.432 237.407 108.218 237.583 108.02C236.79 108.427 233.346 108.76 236.087 109.251C234.209 109.792 230.689 112.342 228.212 109.983C228.143 109.982 227.532 110.331 227.189 110.015C227.173 109.902 229.107 109.777 228.112 108.89C228.181 108.909 228.285 108.892 228.314 108.676C227.607 109.127 224.205 108.092 223.304 110.299C222.44 110.099 221.285 111.888 220.193 111.875C220.585 111.724 221.736 110.368 220.817 110.357C223.883 108.972 219.243 110.876 215.915 110.214C216.206 109.039 218.805 110.594 219.102 108.111C216.94 108.459 216.684 105.883 213.867 106.743C214.111 106.615 214.373 106.488 215.296 106.083C214.236 105.534 211.746 107.394 211.448 106.94C212.219 106.186 211.729 107.307 214.156 105.004C213.321 105.281 213.124 105.824 210.459 106.227C210.59 106.142 210.746 106.187 211.8 105.679C210.554 105.535 208.832 106.078 205.994 106.548C206.037 106.549 206.194 106.507 206.256 106.317C205.754 106.355 206.213 106.299 205.075 106.607C205.27 106.176 204.136 106.925 203.938 106.75C203.351 106.613 202.836 107.673 201.123 107.497C201.147 106.865 201.476 106.869 202.576 106.145C201.943 106.198 199.732 104.865 199.783 104.978L199.626 105.019C199.646 104.786 199.799 105.108 200.067 104.392C199.176 104.252 200.152 104.523 198.386 104.39C199.037 104.311 200.514 103.149 198.696 103.804C198.854 103.65 200.057 103.014 198.544 103.473C200.774 102.407 197.805 103.638 196.847 103.384C194.615 103.844 192.037 105.01 187.208 106.063C186.024 106.483 183.159 107.784 180.608 109.67C180.625 109.67 180.712 109.627 180.886 109.543C180.188 109.968 178.973 110.898 177.692 110.832C179.182 110.112 177.91 110.73 179.47 109.916C179.122 109.999 178.838 109.84 177.147 110.782C177.148 110.695 177.129 110.782 177.34 110.542C175.529 111.327 173.491 112.265 170.87 114.132C171.305 113.955 170.896 114.106 172.009 113.755C171.904 113.884 171.618 113.907 171.153 114.395C171.501 114.243 171.354 114.268 173.034 113.594C173.077 113.594 173.103 113.569 173.147 113.552C173.103 113.569 173.06 113.594 173.016 113.62C171.089 114.663 169.877 115.368 166.925 116.625C166.969 116.556 167.204 116.455 167.738 116.045C167.407 116.198 166.997 116.427 166.665 116.622L166.666 116.579C164.215 118.006 163.047 118.625 158.495 121.952C158.678 121.841 158.888 121.696 159.071 121.603C158.826 121.756 158.608 121.927 158.363 122.072C156.783 123.162 155.157 124.391 152.762 126.235C152.692 126.278 152.631 126.346 152.517 126.414C152.386 126.517 152.228 126.671 152.036 126.842C152.498 126.544 152.368 126.603 153.59 125.768C153.678 125.682 153.791 125.614 153.896 125.555C153.739 125.666 153.765 125.666 153.59 125.768C153.485 125.854 153.258 126.024 152.821 126.348C153.039 126.264 152.821 126.331 153.475 126.027C152.637 126.58 149.808 128.445 147.472 130.471L147.777 130.258C147.777 130.258 147.795 130.259 147.672 130.387C148.265 130.004 148.774 129.447 151.382 127.943L151.407 128.074C151.275 128.185 151.101 128.313 150.262 128.892C150.281 128.78 150.245 128.892 150.465 128.608C149.696 129.189 149.017 129.424 147.369 131.077C147.474 131.017 147.718 130.864 148.339 130.369C148.339 130.386 148.356 130.369 148.233 130.524L148.233 130.55L148.251 130.524C148.355 130.464 148.818 130.184 149.369 129.731C149.368 129.774 149.395 129.731 149.35 129.861C150.003 129.565 150.396 129.284 151.961 128.08L151.917 128.149C152.16 128.082 153.076 127.53 154.021 126.717C153.298 127.073 153.213 126.899 151.387 128.281C152.752 127.075 154.836 125.947 156.984 124.508L157.001 124.508C157.088 124.465 157.348 124.468 158.117 123.931C158.099 124.001 158.134 123.949 158.028 124.086C158.358 124.03 159.276 123.321 160.679 122.592C160.609 122.678 160.505 122.703 160.242 122.951C160.66 122.782 160.506 122.625 162.457 121.72C161.026 122.579 158.595 123.807 156.002 125.545C156.673 125.942 158.321 124.289 159.628 124.321C159.872 124.194 160.177 124.042 160.396 123.897C160.064 124.153 160.335 123.94 159.625 124.59C160.59 124.358 161.714 123.046 164.718 121.685C163.963 122.569 163.708 122.133 161.383 123.934C162.167 123.553 161.627 123.825 163.623 122.782C163.246 123.124 163.467 122.763 162.417 123.678C162.547 123.662 162.46 123.678 162.79 123.595C162.351 124.153 162.416 123.79 161.008 124.926C160.944 125.16 164.889 122.684 162.768 125.51L163.604 125.13C162.46 125.948 161.774 126.876 160.491 128.447L160.421 128.515C160.419 128.645 155.478 131.88 156.197 131.889C155.664 132.298 155.605 132.168 153.556 134.033C153.728 134.104 153.597 134.189 153.999 133.925C152.661 135.019 151.429 135.941 149.438 137.997C150.117 137.788 149.594 138.016 150.931 137.052C150.903 137.182 150.818 137.034 150.638 137.612C151.695 136.923 152.701 136.085 155.124 134.025C154.31 134.795 152.042 136.866 150.3 138.44L150.605 138.227C148.076 140.468 145.122 143.458 141.918 147.016C141.674 147.187 141.501 147.141 140.682 148.267L141.228 148.273C132.007 158.26 112.136 175.308 103.95 193.971C102.927 195.553 103.621 193.95 100.711 200.665C100.62 201.054 100.055 201.204 99.5297 203.182C99.5289 203.251 99.5299 203.164 99.5247 203.615C102.678 208.121 93.5737 217.079 95.176 223.899C95.0464 223.871 94.8909 223.826 94.7612 223.807C95.6948 223.991 94.9154 226.971 92.8267 227.034C92.0379 227.068 91.2112 232.656 92.6178 233.893C94.5823 235.588 90.6861 240.646 90.9574 244.176C90.9574 244.176 91.0012 244.133 91.1156 243.978L91.1741 244.161L91.288 244.049C92.444 243.734 90.3973 252.946 92.4025 249.598C92.6535 242.844 95.3994 233.094 95.817 223.906L96.3188 223.972C96.5489 220.536 97.3331 218.647 99.5842 214.255C99.9486 214.215 99.0932 215.514 100.538 214.967C100.52 215.028 99.5356 216.974 100.612 216.051C100.3 216.767 98.701 220.994 97.9056 223.861C97.4669 224.332 97.44 224.419 96.6993 226.29C96.986 226.224 96.9845 226.354 97.4657 225.944C97.3577 239.103 96.653 251.406 95.7693 267.216C95.8434 266.801 95.9347 266.395 96.0001 265.98C96.9695 270.583 105.755 285.655 110.896 281.599C111.628 280.455 113.629 280.435 114.74 282.536C116.459 286.783 118.236 291.162 122.769 293.302C124.229 292.946 125.563 296.687 127.707 294.06C127.271 295.823 129.111 300.826 131.847 303.283C131.303 305.347 130.804 308.825 133.321 311.444C133.546 310.71 133.356 309.876 133.952 309.294C135.961 310.911 136.163 315.965 139.883 318.624C138.992 316.3 144.142 317.434 142.374 319.744C140.886 318.046 142.108 324.073 143.105 320.212C143.176 320.143 143.146 320.472 143.755 320.219C144.061 322.224 149.23 323.289 145.902 317.368C147.061 316.792 147.138 317.572 148.174 314.933C149.472 312.028 155.469 323.204 154.187 328.449C154.152 329.947 156.272 334.771 153.943 334.571C153.084 335.454 154.607 337.126 155.675 337.641C155.519 339.909 152.286 340.851 152.413 344.794C151.322 344.756 151.096 345.602 152.231 347.079C149.459 347.793 148.475 349.722 149.182 354.565C148.06 355.73 147.8 360.951 151.209 363.607C146.704 376.412 167.253 396.87 177.938 409.478C181.785 414.027 185.227 416.051 188.43 417.768C194.346 420.947 199.476 423.085 204.907 438.24C205.669 440.562 206.665 442.809 207.809 445.049C212.944 455.063 221.139 464.228 225.212 473.883C227.493 475.997 229.08 476.561 231.708 479.381L231.664 479.381C232.153 480.608 233.506 481.932 235.546 483.134C235.477 483.089 235.305 483.018 235.114 483.042C236.002 483.425 236.609 485.632 239.135 485.947C238.499 484.788 238.747 485.769 236.294 482.865C237.473 482.835 238.529 485.178 240.287 485.978C240.311 486.151 241.383 487.099 242.177 488.139C241.505 487.829 242.247 488.097 240.033 486.98C241.198 488.085 242.858 489.932 245.185 491.744C245.185 491.744 244.988 491.525 244.887 491.307C245.101 491.483 245.839 492.098 246.255 491.323L246.086 490.966C246.584 491.361 247.188 491.567 248.294 492.62C248.225 492.619 248.191 492.515 247.162 492.347C247.231 492.408 247.119 492.346 247.702 492.83C247.685 492.829 247.633 492.812 247.53 492.758C249.027 495.132 253.829 496.496 256.727 498.383C256.71 498.313 256.727 498.34 256.686 498.14C256.686 498.14 256.755 498.227 257.314 498.58C257.297 498.537 257.34 498.563 257.1 498.318C257.29 498.363 257.161 498.336 257.618 498.48L257.644 498.48L257.644 498.463C257.772 498.62 258.017 498.484 258.575 498.889C258.402 498.887 258.489 498.819 257.874 498.795C257.944 498.778 258.199 499.188 258.589 499.176C258.677 499.09 259.477 499.55 259.463 499.29C259.489 499.29 259.591 499.473 259.894 499.494L259.894 499.476C260.024 499.478 259.936 499.59 260.782 499.876C260.765 499.859 260.765 499.816 260.766 499.746C260.895 499.809 260.834 499.834 261.283 499.943L261.241 499.856C261.173 499.768 261.585 500.12 262.258 500.283L262.586 500.417L262.544 500.356L262.932 500.508C262.932 500.508 262.906 500.507 262.906 500.447C263.035 500.535 262.906 500.507 263.364 500.582C263.493 500.627 263.433 500.626 263.804 500.717C263.804 500.717 263.736 500.647 263.65 500.542C264.177 500.721 263.908 500.718 264.953 501.016C264.928 500.947 264.971 500.973 264.825 500.859C265.609 501.214 266.673 501.357 267.823 501.595L267.393 501.33C267.592 501.35 268.192 501.859 268.67 501.778C268.499 501.585 268.669 501.821 267.869 501.379C267.929 501.38 268.213 501.582 268.13 501.226C268.217 501.27 268.458 501.403 268.418 501.039C261.564 498.915 253.07 492.432 251.664 485.857C251.165 485.583 250.532 485.576 250.078 485.137C253.652 484.763 250.85 485.848 246.825 481.695C247.455 481.919 248.932 482.378 249.911 482.32C251.237 482.292 251.689 481.405 248.021 477.94C258.106 480.17 255.799 472.121 248.767 468.037C251.766 468.704 261.872 472.91 259.036 461.839C259.505 460.996 259.052 458.946 261.276 458.382C261.272 467.817 263.224 447.965 265.091 443.091C265.622 442.924 267.63 440.027 270.929 440.992C270.688 439.291 270.637 439.967 274.1 437.962C278.629 438.17 281.919 438.312 282.756 431.832C288.001 426.296 279.964 413.199 288.235 405.973C304.233 391.974 308.533 376.749 295.133 374.958L295.202 374.932ZM262.057 144.24C262.522 143.769 262.385 144.399 263.037 144.208C262.426 144.556 261.066 145.294 260.307 144.982C260.925 144.772 261.465 144.475 262.057 144.24ZM236.536 114.688C236.865 114.709 237.342 114.637 237.774 114.72C238.276 114.743 238.707 114.99 238.811 115.737C238.22 115.903 237.199 115.787 237.947 114.791C237.878 114.747 237.844 114.721 237.774 114.72C237.558 114.717 237.225 115.017 236.206 114.684L236.536 114.688ZM139.729 222.886C139.996 222.188 140.382 222.591 140.788 223.444C140.442 223.371 140.569 223.598 139.685 222.903L139.729 222.886ZM134.25 303.761C134.131 304.288 133.411 302.842 131.968 303.258C132 302.73 131.269 296.233 134.276 303.744L134.258 303.761L134.25 303.761ZM172.305 307.95C172.327 309.805 175.83 311.786 172.707 314.401C170.795 314.188 170.705 310.765 172.305 307.95ZM256.477 125.444C256.564 125.463 256.474 125.704 256.477 125.444Z" fill="url(#paint0_radial_956_70913)"/>
<path d="M379.395 105.751C379.465 105.768 379.481 105.768 379.465 105.768L379.379 105.743C379.379 105.743 379.387 105.743 379.395 105.743L379.395 105.751Z" fill="url(#paint1_linear_956_70913)"/>
<path d="M419.857 133.539C408.746 124.089 396.275 115.385 382.374 107.488C381.874 107.223 381.314 106.93 380.573 106.575C381.046 106.884 380.746 106.638 381.831 107.24C381.899 107.31 382.028 107.372 382.244 107.504L382.071 107.442C382.441 107.68 382.14 107.486 383 107.989L382.828 107.927C382.983 108.015 382.843 108.118 383.927 108.745C383.313 108.678 382.825 108.143 381.24 107.363C381.712 107.801 381.669 107.723 382.839 108.473C382.779 108.429 382.667 108.384 382.537 108.339C383.18 108.979 382.648 108.497 384.117 109.596L383.961 109.595C384.432 110.059 385.578 110.575 387.099 111.727C387.073 111.727 386.899 111.725 386.468 111.564C385.712 111.027 385.423 111.266 384.041 110.185C384.058 110.202 384.127 110.229 384.239 110.23C383.682 109.765 381.882 108.826 380.101 108.459C381.245 109.234 382.075 109.374 384.406 110.856C384.388 110.839 384.336 110.838 384.293 110.837C386.35 111.996 386.268 111.64 388.408 113.129C387.021 112.48 388.322 113.084 386.261 112.255C387.268 113.549 389.825 114.956 391.595 116.302C391.608 116.605 387.018 114.204 389.098 115.71L389.054 115.709C389.395 116.172 390.372 116.357 392.603 117.535C389.426 117.238 386.066 114.15 381.747 112.229C387.045 114.161 389.245 113.424 380.539 109.573C380.539 109.599 380.582 109.599 380.667 109.756C378.845 109.233 377.349 108.193 374.219 107.637C374.322 107.742 374.175 107.697 374.803 108.094C374.13 107.87 373.201 107.27 371.614 106.689C371.741 106.907 371.63 106.732 372.042 107.127C371.61 106.966 371.16 107.732 370.54 106.607L370.696 106.609C369.855 105.898 369.222 105.96 367.315 105.305C367.383 105.393 367.443 105.463 367.512 105.524C367.227 105.391 366.77 105.23 366.096 105.075C366.095 105.135 366.51 105.209 367.453 106.138C366.927 105.873 367.299 105.937 365.938 105.272C366.813 106.039 367.344 106.518 367.533 106.711C366.75 106.217 367.62 106.643 365.151 105.09C365.194 105.194 365.134 105.089 365.347 105.421C365.218 105.376 365.148 105.376 364.691 105.197C365.189 105.619 364.931 105.399 365.989 106.13C365.747 106.015 366.006 106.13 365.359 105.906C365.359 105.906 365.341 105.95 365.4 106.063C365.229 105.844 364.773 105.596 364.137 105.944C364.239 106.119 364.68 106.141 365.809 106.683C365.654 106.612 365.378 106.496 365.243 106.893C365.045 106.847 365.157 106.849 364.657 106.643C364.983 106.95 364.856 106.715 365.909 107.75C364.459 106.511 363.062 106.694 366.072 108.661C365.228 108.218 363.684 107.611 366.169 109.295C366.083 109.25 365.91 109.179 365.385 108.93L365.769 109.394C365.613 109.436 365.173 108.477 364.426 108.677C363.922 108.801 362.242 109.483 363.125 110.256C363.837 110.897 366.397 113.56 366.478 110.321C367.666 110.967 368.537 112.805 370.267 114.54C370.138 114.452 370.224 114.496 369.853 114.345C370.04 114.737 371.366 115.411 371.942 116.569C371.873 116.569 371.831 116.438 371.529 116.331L371.965 116.812L371.436 116.867C372.11 116.987 373.273 118.37 372.764 118.866C372.96 119.198 372.849 119.04 373.343 119.748C372.798 119.742 373.342 119.834 372.171 119.206C372.21 119.579 372.284 119.25 372.724 120.087C372.569 120.059 372.509 119.972 371.734 119.547C372.098 120.357 372.363 119.901 373.61 121.397C373.326 121.307 373.542 121.353 372.481 120.951C372.762 121.344 372.505 121.098 373.276 121.826C373.206 121.938 373.02 121.546 372.644 121.819C372.661 121.819 372.642 122.001 372.854 122.411C372.725 122.34 372.768 122.34 372.397 122.163C372.413 122.293 372.459 122.077 372.363 122.899C372.174 122.767 372.346 122.855 371.76 122.545C372.146 122.94 372.574 123.404 373.053 123.886C374.774 125.716 376.948 128.029 379.257 129.909C379.257 129.84 379.256 129.927 379.286 129.58C379.39 129.642 379.373 129.599 379.958 129.952C379.168 130.099 385.568 136.358 385.273 130.316C385.104 129.985 384.892 129.576 384.679 129.287C387.832 131.593 389.888 132.813 394.267 137.004L394.026 136.932C394.066 137.236 394.148 137.635 394.274 137.897C392.029 136.493 395.544 141.308 397.497 141.685C398.015 140.314 396.744 140.845 396.119 138.75C397.266 139.196 399.665 140.731 397.287 137.368C398.078 137.161 397.4 137.3 398.812 137.386C398.77 137.255 398.882 137.257 398.472 136.776C398.541 136.82 398.713 136.908 399.014 137.128C398.886 136.936 398.227 135.525 396.787 134.14C396.853 134.4 396.98 134.705 397.081 134.923C395.642 133.485 395.661 133.338 393.291 130.764C393.536 130.55 393.308 130.781 393.476 129.761C393.632 129.745 393.547 129.606 393.848 129.783C393.045 128.006 390.942 127.089 388.748 125.799C387.792 125.26 386.846 124.642 385.98 123.853L386.11 123.828C383.963 121.43 381.576 118.11 379.456 114.802C380.458 115.117 380.592 114.772 382.732 116.26C382.344 116.117 382.732 116.26 381.689 115.763C382.853 117.024 383.354 117.134 384.893 119.681C384.807 119.68 384.849 119.724 384.694 119.679C386.585 121.746 389.563 124.223 393.246 126.423C393.314 126.493 393.374 126.563 393.434 126.598C393.846 126.949 394.305 126.972 394.826 126.874C396.163 126.604 397.832 125.384 399.991 126.734C399.856 127.192 399.92 127.669 399.804 127.936C399.696 128.264 399.323 128.295 398.022 127.673C398.064 127.83 398.088 128.021 398.103 128.177C397.887 128.131 397.712 128.285 397.636 128.908C397.805 129.222 398.148 129.572 398.387 129.817C398.233 129.729 398.043 129.632 397.871 129.552C398.49 130.685 397.897 131.033 400.038 132.47C400.013 132.401 399.63 131.807 399.936 131.49C399.749 131.202 399.441 130.878 399.21 130.633C400.056 130.842 399.34 130.617 401.012 131.416C401.012 131.416 400.969 131.355 400.884 131.198C401.479 132.21 402.589 132.127 403.81 134.394C396.815 130.978 404.809 136.45 405.575 139.898C406.778 143.031 405.765 138.488 401.571 143.058C400.841 142.443 401.115 142.741 399.105 141.219C399.001 141.287 399.362 141.508 398.942 141.875C399.139 142.051 397.915 142.279 398.096 143.104C394.772 142.113 392.153 137.049 388.056 133.164C387.732 132.771 388.883 135.14 387.686 134.494C387.412 135.687 390.083 139.963 393.143 141.401C393.303 142.556 394.632 142.198 394.834 144.28C394.376 144.145 392.648 142.972 393.345 144.913C392.426 144.919 390.674 144.353 391.428 146.571L391.3 146.44C391.339 146.83 393.295 150.708 390.212 152.094C390.906 152.795 389.312 154.284 390.14 156.91C388.891 157.744 388.012 156.582 385.951 155.727C384.814 155.93 391 159.683 386.451 159.7C385.738 159.207 386.173 159.082 382.901 159.59C381.661 161.17 385.271 162.147 388.366 163.509C388.366 163.509 388.435 163.492 388.654 163.313C388.696 163.443 400.31 175.039 393.737 176.315C390.591 177.214 384.043 174.003 380.786 176.954C381.469 180.072 383.335 190.361 385.9 196.377C386.449 198.35 384.8 201.571 390.712 199.049C397.257 204.019 391.853 203.784 403.654 200.679C404.399 199.969 403.135 198.36 405.89 197.586C404.408 196.157 406.689 194.485 406.335 192.843C402.804 190.974 404.106 185.497 408.316 181.776C405.23 177.409 406.858 176.033 413.607 176.786C412.924 167.603 419.635 179.169 419.954 177.864C421.052 178.752 422.083 180.262 423.886 180.976C424.417 182.23 426.151 182.926 428.34 183.947C430.253 186.326 434.827 187.834 436.045 191.929C437.294 194.82 433.516 194.144 432.029 194.629C431.875 194.471 432.012 194.611 431.575 194.165C431.391 196.623 441.906 205.157 436.714 194.787C436.731 194.848 437.184 195.381 437.771 195.579C437.904 195.294 437.52 194.796 437.719 194.027C437.763 194.01 437.676 194.027 437.978 194.143C438.088 193.624 437.373 193.261 437.372 191.849C438.986 190.126 434.435 189.554 434.634 185.848C434.981 185.765 434.9 186.761 436.253 186.646C442.975 189.756 420.884 176.099 417.93 169.272C419.186 167.762 419.023 169.112 421.742 171.517L421.679 170.953C421.675 171.282 423.791 172.606 422.742 171.208C428.248 177.63 434.86 178.192 440.043 187.79C439.974 187.772 440.13 187.808 439.699 187.63C440.399 189.232 442.786 190.429 444.953 193.313C444.936 193.296 444.894 193.2 444.914 192.958C444.985 192.829 445.544 193.164 446.157 193.345C446.658 193.506 447.203 193.573 447.527 193.248C448.171 193.758 447.489 194.252 449.497 194.423C449.395 194.292 449.54 194.467 448.704 193.365C449.005 193.559 448.917 193.628 450.019 194.29C448.785 191.599 445.01 189.875 442.558 185.341C446.406 188.262 441.606 183.017 445.827 183.655C446.202 184.924 447.065 183.712 447.887 186.078C447.413 185.787 448.519 189.828 450.299 190.308C450.177 189.57 449.918 189.498 449.601 188.446C449.855 188.969 450.673 189.42 450.938 191.208C450.912 191.207 450.913 191.077 450.784 191.05C450.801 191.093 450.697 191.066 450.839 191.553C450.839 191.553 450.666 191.49 450.251 191.39C450.628 192.573 449.99 191.5 451.469 193.276C451.47 193.189 451.472 193.016 451.218 192.467C451.63 192.801 451.41 193.076 452.449 193.894C452.449 193.894 452.424 193.85 452.427 193.59C452.799 193.638 452.837 194.08 453.573 194.088C453.487 194.087 453.4 194.104 453.27 194.102L453.507 194.581C453.507 194.581 453.145 194.387 452.708 193.983C452.905 194.228 452.329 194.585 453.653 195.476C453.696 195.493 453.55 195.37 453.724 195.286C453.941 195.288 453.756 196.265 454.929 196.721C454.967 197.223 454.932 197.942 455.597 199.691C455.675 198.956 455.683 199.692 455.422 197.532C455.466 197.532 455.491 197.619 455.926 197.425L456.026 197.816L455.896 197.754C455.956 197.859 455.387 198.355 456.244 199.196C457.08 198.816 456.104 197.756 457.696 201.717C458.002 201.504 457.258 199.858 457.017 198.226C457.23 198.532 457.017 198.243 457.727 199.066L457.836 198.608C458.21 199.964 461.658 203.772 459.541 198.021C460.523 197.703 461.988 201.428 463.37 200.292C463.439 200.31 463.413 200.353 463.612 200.338C463.489 199.704 463.189 198.678 463.009 197.758C463.352 198.134 464.491 199.256 463.946 197.656C465.918 202.522 472.943 213.164 471.195 218.966C471.254 221.358 468.265 214.6 468.056 219.19C467.987 219.163 468.039 219.163 467.867 219.101C467.624 219.159 468.106 219.389 467.431 220.863C463.523 220.143 448.486 204.782 454.931 222.158C456.05 227.291 443.187 215.048 434.774 211.312C432.568 211.746 432.967 203.425 430.306 198.274C428.623 198.497 426.039 197.896 422.862 199.15C422.348 200.21 421.321 196.776 421.182 199.131C421.276 200.007 419.202 198.718 419.619 200.897C415.084 195.266 407.516 207.646 403.008 205.61C400.477 209.506 394.606 199.414 394.975 207.32C395.183 210.285 392.327 212.323 389.339 215.945C386.399 220.009 393.154 226.974 384.8 233.974C380.204 235.836 377.281 242.101 375.246 250.36C374.224 251.804 367.165 265.169 370.947 265.542C377.718 275.661 366.699 292.186 371.316 303.476C371.676 306.123 374.578 303.904 375.119 306.578C376.421 310.839 380.998 312.2 381.488 317.759C382.21 323.581 388.079 327.772 392.838 332.791C394.83 333.646 394.698 339.787 399.768 336.622C407.963 329.196 412.104 339.771 422.087 330.52C423.014 331.31 425.205 328.398 427.016 328.359C437.727 325.103 428.765 341.227 441.767 335.433C441.787 335.979 442.023 339.595 443.351 337.8C443.75 344.536 437.783 351.875 437.782 359.499C437.798 380.726 435.157 394.116 422.126 415.314C413.155 429.896 405.233 453.552 387.754 467.447C388.04 467.45 387.754 467.447 388.521 467.083C388.216 467.21 388.446 467.568 387.718 468.356C388.177 468.301 388.177 468.318 388.308 468.277C388.438 468.209 388.726 468.065 389.71 467.617C389.709 467.678 389.727 467.617 389.578 467.806C390.081 467.751 390.099 467.682 390.387 467.512C390.675 467.359 391.224 467.106 392.84 466.665C393.026 467.031 392.748 467.141 393.82 466.59C393.888 466.721 393.647 466.588 393.797 467.04C394.128 466.914 393.867 467.041 395.244 466.338L395.397 466.599C402.493 463.545 420.028 450.759 425.365 444.765C425.365 444.782 425.392 444.678 425.261 444.763C432.037 439.374 437.026 435.022 443.726 424.997L443.725 425.04C462.36 409.331 471.229 384.723 481.216 360.805L481.233 360.865C482.71 357.503 486.784 344.546 486.584 344.587C492.009 331.662 500.731 277.683 481.635 223.479C469.52 189.091 449.441 158.666 419.814 133.504L419.857 133.539ZM453.868 194.083C453.911 194.084 453.981 194.084 454.041 194.068C453.998 194.111 453.972 194.084 453.868 194.083Z" fill="url(#paint2_radial_956_70913)"/>
<path d="M380.924 106.623C381.423 106.906 381.905 107.197 382.404 107.48C382.895 107.746 383.343 107.985 383.799 108.224C383.103 107.766 382.654 107.613 382.585 107.535C381.39 106.81 381.148 106.712 380.924 106.623V106.623Z" fill="url(#paint3_linear_956_70913)"/>
<path d="M379.411 105.756C379.342 105.738 379.221 105.702 379.023 105.613C379.229 105.728 379.022 105.639 379.651 105.984C379.099 105.726 378.816 105.472 377.203 104.864C377.66 105.103 378.46 105.546 380.339 106.382L380.34 106.347C380.641 106.515 380.77 106.56 380.908 106.614C380.401 106.331 379.919 106.03 379.402 105.747L379.411 105.756Z" fill="url(#paint4_linear_956_70913)"/>
</g>
<g filter="url(#filter0_d_956_70913)">
<g filter="url(#filter1_d_956_70913)">
<path d="M187.045 187.472L369.589 187.472V293.382C369.589 295.759 367.661 297.687 365.284 297.687H191.35C188.972 297.687 187.045 295.759 187.045 293.382V187.472Z" fill="#0E2548"/>
</g>
<rect x="217.186" y="198.664" width="75.4697" height="3.0752" fill="#7879F1"/>
<rect x="249.902" y="265.827" width="75.4697" height="3.0752" fill="#FECE4D"/>
<rect x="201.764" y="198.664" width="4.94883" height="3.0752" fill="#3D7FFC"/>
<rect x="201.764" y="265.827" width="4.94883" height="3.0752" fill="#3D7FFC"/>
<rect x="243.834" y="205.431" width="75.4697" height="3.0752" fill="#FECE4D"/>
<rect x="274.834" y="272.594" width="75.4697" height="3.0752" fill="#FECE4D"/>
<rect x="324.252" y="205.431" width="14.8465" height="3.0752" fill="#7879F1"/>
<rect x="256.791" y="272.594" width="14.8465" height="3.0752" fill="#15C1E6"/>
<rect x="243.834" y="212.195" width="27.2186" height="3.0752" fill="#15C1E6"/>
<rect x="231.824" y="279.358" width="27.2186" height="3.0752" fill="#FECE4D"/>
<rect x="277.24" y="212.195" width="19.7953" height="3.0752" fill="#7879F1"/>
<rect x="265.221" y="279.358" width="19.7953" height="3.0752" fill="#7879F1"/>
<rect x="303.215" y="212.195" width="28.4558" height="3.0752" fill="#FECE4D"/>
<rect x="291.207" y="279.358" width="28.4558" height="3.0752" fill="#FECE4D"/>
<rect x="269.807" y="218.961" width="54.4372" height="3.0752" fill="#FECE4D"/>
<rect x="302.637" y="286.123" width="54.4372" height="3.0752" fill="#FECE4D"/>
<rect x="254.967" y="218.961" width="8.66046" height="3.0752" fill="#7879F1"/>
<rect x="287.789" y="286.123" width="8.66046" height="3.0752" fill="#7879F1"/>
<rect x="255.07" y="225.726" width="42.0651" height="3.0752" fill="#FECE4D"/>
<rect x="201.764" y="205.431" width="4.94883" height="3.0752" fill="#3D7FFC"/>
<rect x="201.764" y="272.594" width="4.94883" height="3.0752" fill="#3D7FFC"/>
<rect x="201.764" y="212.195" width="4.94883" height="3.0752" fill="#3D7FFC"/>
<rect x="201.764" y="279.358" width="4.94883" height="3.0752" fill="#3D7FFC"/>
<rect x="201.764" y="218.961" width="4.94883" height="3.0752" fill="#3D7FFC"/>
<rect x="201.764" y="286.123" width="4.94883" height="3.0752" fill="#3D7FFC"/>
<rect x="201.764" y="225.726" width="4.94883" height="3.0752" fill="#3D7FFC"/>
<rect x="240.43" y="232.245" width="75.4697" height="3.0752" fill="#7879F1"/>
<rect x="201.764" y="232.245" width="4.94883" height="3.0752" fill="#3D7FFC"/>
<rect x="243.834" y="239.012" width="75.4697" height="3.0752" fill="#FECE4D"/>
<rect x="324.252" y="239.012" width="14.8465" height="3.0752" fill="#15C1E6"/>
<rect x="243.834" y="245.777" width="27.2186" height="3.0752" fill="#15C1E6"/>
<rect x="277.24" y="245.777" width="19.7953" height="3.0752" fill="#7879F1"/>
<rect x="303.215" y="245.777" width="28.4558" height="3.0752" fill="#FECE4D"/>
<rect x="269.807" y="252.543" width="54.4372" height="3.0752" fill="#FECE4D"/>
<rect x="254.967" y="252.543" width="8.66046" height="3.0752" fill="#7879F1"/>
<rect x="225.27" y="259.309" width="42.0651" height="3.0752" fill="#FECE4D"/>
<rect x="201.764" y="239.012" width="4.94883" height="3.0752" fill="#3D7FFC"/>
<rect x="201.764" y="245.777" width="4.94883" height="3.0752" fill="#3D7FFC"/>
<rect x="201.764" y="252.543" width="4.94883" height="3.0752" fill="#3D7FFC"/>
<rect x="201.764" y="259.309" width="4.94883" height="3.0752" fill="#3D7FFC"/>
<path d="M187.045 182.305C187.045 179.928 188.972 178 191.35 178H365.284C367.661 178 369.589 179.928 369.589 182.305V187.472H187.045V182.305Z" fill="#000C36"/>
<path d="M195.811 182.782C195.812 183.137 195.707 183.485 195.51 183.781C195.313 184.077 195.032 184.308 194.702 184.445C194.373 184.581 194.011 184.617 193.661 184.549C193.312 184.48 192.99 184.309 192.738 184.058C192.486 183.807 192.314 183.487 192.244 183.138C192.174 182.79 192.209 182.428 192.346 182.1C192.482 181.772 192.713 181.491 193.009 181.293C193.305 181.096 193.654 180.99 194.01 180.99C194.486 180.994 194.942 181.183 195.279 181.519C195.615 181.854 195.807 182.307 195.811 182.782V182.782Z" fill="#F66058"/>
<path d="M203.393 182.784C203.394 183.14 203.289 183.487 203.092 183.784C202.894 184.08 202.613 184.31 202.284 184.447C201.954 184.583 201.592 184.619 201.242 184.55C200.892 184.481 200.571 184.31 200.319 184.058C200.066 183.807 199.895 183.487 199.825 183.138C199.756 182.789 199.792 182.427 199.929 182.099C200.066 181.771 200.297 181.49 200.594 181.293C200.891 181.096 201.24 180.991 201.597 180.992C201.833 180.991 202.067 181.037 202.286 181.126C202.504 181.216 202.703 181.348 202.87 181.514C203.037 181.681 203.169 181.879 203.259 182.097C203.349 182.315 203.395 182.548 203.393 182.784Z" fill="#F9BD2E"/>
<path d="M211.151 182.784C211.152 183.139 211.047 183.487 210.85 183.783C210.652 184.079 210.371 184.31 210.042 184.447C209.713 184.583 209.351 184.619 209.001 184.55C208.652 184.482 208.33 184.311 208.078 184.06C207.826 183.809 207.654 183.489 207.584 183.14C207.514 182.792 207.549 182.43 207.686 182.102C207.822 181.774 208.053 181.493 208.349 181.295C208.645 181.098 208.994 180.992 209.35 180.992C209.826 180.996 210.281 181.185 210.618 181.52C210.955 181.856 211.147 182.309 211.151 182.784V182.784Z" fill="#3CC840"/>
</g>
<g filter="url(#filter2_dd_956_70913)">
<path d="M150.461 243.876H325.479V342.361H144.208V250.129C144.208 246.676 147.008 243.876 150.461 243.876Z" fill="white" stroke="#D2DCE4" stroke-width="0.685929"/>
<rect x="320.213" y="262.924" width="2.63819" height="13.1909" rx="1.31909" fill="#D2DCE4"/>
<mask id="mask0_956_70913" style="mask-type:alpha" maskUnits="userSpaceOnUse" x="143" y="242" width="176" height="101">
<rect x="143" y="242.671" width="175.058" height="100.033" fill="#D9D9D9"/>
</mask>
<g mask="url(#mask0_956_70913)">
<path d="M143.457 256.328L143.457 243.137L156.648 243.137L156.648 256.328L143.457 256.328Z" fill="white" stroke="#D2DCE4" stroke-width="0.680999"/>
<path d="M143.457 269.51L143.457 256.319L156.648 256.319L156.648 269.51L143.457 269.51Z" fill="white" stroke="#D2DCE4" stroke-width="0.680999"/>
<path d="M143.457 322.277L143.457 309.086L156.648 309.086L156.648 322.277L143.457 322.277Z" fill="white" stroke="#D2DCE4" stroke-width="0.680999"/>
<path d="M143.457 295.899L143.457 282.708L156.648 282.708L156.648 295.899L143.457 295.899Z" fill="white" stroke="#D2DCE4" stroke-width="0.680999"/>
<path d="M143.457 348.654L143.457 335.463L156.648 335.463L156.648 348.654L143.457 348.654Z" fill="white" stroke="#D2DCE4" stroke-width="0.680999"/>
<path d="M143.457 282.703L143.457 269.512L156.648 269.512L156.648 282.703L143.457 282.703Z" fill="white" stroke="#D2DCE4" stroke-width="0.680999"/>
<path d="M143.457 335.472L143.457 322.281L156.648 322.281L156.648 335.472L143.457 335.472Z" fill="white" stroke="#D2DCE4" stroke-width="0.680999"/>
<path d="M143.457 309.082L143.457 295.891L156.648 295.891L156.648 309.082L143.457 309.082Z" fill="white" stroke="#D2DCE4" stroke-width="0.680999"/>
<path d="M148.396 265.906H147.555V262.787H146.882V262.189H148.396V265.906ZM152.306 265.906H149.58L149.477 265.357L150.738 264.22C151.088 263.902 151.298 263.66 151.298 263.342C151.298 263.024 151.067 262.819 150.7 262.819C150.329 262.819 150.005 263.062 149.801 263.32L149.434 262.749C149.483 262.636 149.941 262.135 150.781 262.135C151.622 262.135 152.133 262.582 152.133 263.234C152.133 263.886 151.649 264.274 151.352 264.538L150.582 265.233H152.306V265.906Z" fill="#303B45"/>
<path d="M148.396 318.675H147.555V315.555H146.882V314.957H148.396V318.675ZM152.327 317.409C152.327 318.141 151.805 318.734 150.937 318.734C150.312 318.734 149.935 318.395 149.741 318.114C149.558 317.856 149.423 317.463 149.423 316.865C149.423 316.196 149.612 315.679 149.919 315.361C150.205 315.06 150.566 314.903 151.056 314.903C151.562 314.903 151.939 315.076 152.209 315.264L151.891 315.835C151.713 315.695 151.395 315.561 151.094 315.561C150.851 315.561 150.689 315.642 150.544 315.782C150.388 315.938 150.248 316.245 150.248 316.654C150.35 316.541 150.609 316.272 151.185 316.272C151.762 316.272 152.327 316.676 152.327 317.409ZM151.503 317.468C151.503 317.145 151.288 316.854 150.91 316.854C150.528 316.854 150.307 317.145 150.307 317.468C150.307 317.797 150.528 318.082 150.91 318.082C151.288 318.082 151.503 317.797 151.503 317.468Z" fill="#303B45"/>
<path d="M148.396 292.297H147.555V289.177H146.882V288.579H148.396V292.297ZM152.424 291.553H151.929V292.297H151.088V291.553H149.278V290.918L150.964 288.569H151.929V290.88H152.424V291.553ZM151.11 290.896V289.458L150.07 290.896H151.11Z" fill="#303B45"/>
<path d="M148.396 345.052H147.555V341.932H146.882V341.334H148.396V345.052ZM152.268 344.001C152.268 344.739 151.622 345.111 150.846 345.111C150.07 345.111 149.423 344.739 149.423 344.001C149.423 343.549 149.682 343.241 150.091 343.112V343.101C149.822 343.004 149.526 342.784 149.526 342.304C149.526 341.631 150.135 341.28 150.846 341.28C151.552 341.28 152.16 341.631 152.16 342.304C152.16 342.789 151.869 343.01 151.6 343.101V343.118C152.004 343.241 152.268 343.549 152.268 344.001ZM151.336 342.369C151.336 342.078 151.131 341.916 150.846 341.916C150.555 341.916 150.355 342.078 150.355 342.369C150.355 342.654 150.555 342.816 150.846 342.816C151.131 342.816 151.336 342.654 151.336 342.369ZM151.422 343.92C151.422 343.586 151.169 343.392 150.846 343.392C150.517 343.392 150.269 343.586 150.269 343.92C150.269 344.254 150.528 344.448 150.846 344.448C151.164 344.448 151.422 344.254 151.422 343.92Z" fill="#303B45"/>
<path d="M148.396 278.833H147.555V275.714H146.882V275.115H148.396V278.833ZM152.23 277.745C152.23 278.488 151.546 278.892 150.781 278.892C150.011 278.892 149.553 278.461 149.423 278.273L149.822 277.755C149.973 277.939 150.372 278.219 150.733 278.219C151.099 278.219 151.385 278.03 151.385 277.696C151.385 277.368 151.126 277.195 150.792 277.195H150.463V276.586H150.792C151.083 276.586 151.288 276.441 151.288 276.15C151.288 275.859 151.045 275.714 150.749 275.714C150.452 275.714 150.161 275.832 149.86 276.075L149.537 275.525C149.795 275.299 150.14 275.062 150.819 275.062C151.492 275.062 152.112 275.428 152.112 276.053C152.112 276.549 151.826 276.764 151.578 276.866V276.883C151.891 276.963 152.23 277.26 152.23 277.745Z" fill="#303B45"/>
<path d="M148.396 331.6H147.555V328.48H146.882V327.882H148.396V331.6ZM152.37 328.399L150.716 331.6H149.801L151.433 328.55H149.483V327.882H152.133L152.37 328.399Z" fill="#303B45"/>
<path d="M148.396 305.21H147.555V302.09H146.882V301.492H148.396V305.21ZM152.257 303.965C152.257 304.833 151.508 305.269 150.77 305.269C150.027 305.269 149.574 304.93 149.402 304.66L149.801 304.149C150.005 304.434 150.393 304.596 150.711 304.596C151.029 304.596 151.411 304.413 151.411 303.965C151.411 303.524 151.045 303.34 150.711 303.34C150.469 303.34 150.199 303.416 150.032 303.534L149.655 303.308L149.941 301.492H152.117V302.161H150.571L150.463 302.829C150.576 302.78 150.716 302.748 150.959 302.748C151.525 302.748 152.257 303.103 152.257 303.965Z" fill="#303B45"/>
<rect x="156.648" y="256.328" width="13.1909" height="35.6156" transform="rotate(-90 156.648 256.328)" fill="white" stroke="#D2DCE4" stroke-width="0.680999"/>
<rect x="192.273" y="256.328" width="13.1909" height="36.9347" transform="rotate(-90 192.273 256.328)" fill="white" stroke="#D2DCE4" stroke-width="0.680999"/>
<rect x="229.203" y="256.328" width="13.1909" height="36.9347" transform="rotate(-90 229.203 256.328)" fill="white" stroke="#D2DCE4" stroke-width="0.680999"/>
<rect x="266.135" y="256.328" width="13.1909" height="36.9347" transform="rotate(-90 266.135 256.328)" fill="white" stroke="#D2DCE4" stroke-width="0.680999"/>
<rect x="303.072" y="256.328" width="13.1909" height="35.6156" transform="rotate(-90 303.072 256.328)" fill="white" stroke="#D2DCE4" stroke-width="0.680999"/>
<rect x="156.648" y="282.703" width="13.1909" height="35.6156" transform="rotate(-90 156.648 282.703)" fill="#D2DCE4" fill-opacity="0.5" stroke="#D2DCE4" stroke-width="0.680999"/>
<rect x="156.648" y="309.082" width="13.1909" height="35.6156" transform="rotate(-90 156.648 309.082)" fill="#D2DCE4" fill-opacity="0.5" stroke="#D2DCE4" stroke-width="0.680999"/>
<rect x="156.648" y="335.472" width="13.1909" height="35.6156" transform="rotate(-90 156.648 335.472)" fill="#D2DCE4" fill-opacity="0.5" stroke="#D2DCE4" stroke-width="0.680999"/>
<rect x="192.273" y="282.703" width="13.1909" height="36.9347" transform="rotate(-90 192.273 282.703)" fill="#D2DCE4" fill-opacity="0.5" stroke="#D2DCE4" stroke-width="0.680999"/>
<rect x="192.273" y="309.082" width="13.1909" height="36.9347" transform="rotate(-90 192.273 309.082)" fill="#D2DCE4" fill-opacity="0.5" stroke="#D2DCE4" stroke-width="0.680999"/>
<rect x="192.273" y="335.472" width="13.1909" height="36.9347" transform="rotate(-90 192.273 335.472)" fill="#D2DCE4" fill-opacity="0.5" stroke="#D2DCE4" stroke-width="0.680999"/>
<rect x="229.203" y="282.703" width="13.1909" height="36.9347" transform="rotate(-90 229.203 282.703)" fill="#D2DCE4" fill-opacity="0.5" stroke="#D2DCE4" stroke-width="0.680999"/>
<rect x="229.203" y="309.082" width="13.1909" height="36.9347" transform="rotate(-90 229.203 309.082)" fill="#D2DCE4" fill-opacity="0.5" stroke="#D2DCE4" stroke-width="0.680999"/>
<rect x="229.203" y="335.472" width="13.1909" height="36.9347" transform="rotate(-90 229.203 335.472)" fill="#D2DCE4" fill-opacity="0.5" stroke="#D2DCE4" stroke-width="0.680999"/>
<rect x="266.135" y="282.704" width="13.1909" height="36.9347" transform="rotate(-90 266.135 282.704)" fill="#D2DCE4" fill-opacity="0.5" stroke="#D2DCE4" stroke-width="0.680999"/>
<rect x="266.135" y="309.082" width="13.1909" height="36.9347" transform="rotate(-90 266.135 309.082)" fill="#D2DCE4" fill-opacity="0.5" stroke="#D2DCE4" stroke-width="0.680999"/>
<rect x="266.135" y="335.472" width="13.1909" height="36.9347" transform="rotate(-90 266.135 335.472)" fill="#D2DCE4" fill-opacity="0.5" stroke="#D2DCE4" stroke-width="0.680999"/>
<rect x="303.072" y="282.704" width="13.1909" height="35.6156" transform="rotate(-90 303.072 282.704)" fill="#D2DCE4" fill-opacity="0.5" stroke="#D2DCE4" stroke-width="0.680999"/>
<rect x="303.072" y="309.082" width="13.1909" height="35.6156" transform="rotate(-90 303.072 309.082)" fill="#D2DCE4" fill-opacity="0.5" stroke="#D2DCE4" stroke-width="0.680999"/>
<rect x="303.072" y="335.472" width="13.1909" height="35.6156" transform="rotate(-90 303.072 335.472)" fill="#D2DCE4" fill-opacity="0.5" stroke="#D2DCE4" stroke-width="0.680999"/>
<rect x="156.648" y="269.51" width="13.1909" height="35.6156" transform="rotate(-90 156.648 269.51)" fill="white" stroke="#D2DCE4" stroke-width="0.680999"/>
<rect x="156.648" y="295.899" width="13.1909" height="35.6156" transform="rotate(-90 156.648 295.899)" fill="white" stroke="#D2DCE4" stroke-width="0.680999"/>
<rect x="156.648" y="322.277" width="13.1909" height="35.6156" transform="rotate(-90 156.648 322.277)" fill="white" stroke="#D2DCE4" stroke-width="0.680999"/>
<rect x="156.648" y="348.654" width="13.1909" height="35.6156" transform="rotate(-90 156.648 348.654)" fill="white" stroke="#D2DCE4" stroke-width="0.680999"/>
<rect x="192.273" y="269.51" width="13.1909" height="36.9347" transform="rotate(-90 192.273 269.51)" fill="white" stroke="#D2DCE4" stroke-width="0.680999"/>
<rect x="192.273" y="295.899" width="13.1909" height="36.9347" transform="rotate(-90 192.273 295.899)" fill="white" stroke="#D2DCE4" stroke-width="0.680999"/>
<rect x="192.273" y="322.277" width="13.1909" height="36.9347" transform="rotate(-90 192.273 322.277)" fill="white" stroke="#D2DCE4" stroke-width="0.680999"/>
<rect x="192.273" y="348.654" width="13.1909" height="36.9347" transform="rotate(-90 192.273 348.654)" fill="white" stroke="#D2DCE4" stroke-width="0.680999"/>
<rect x="229.203" y="269.51" width="13.1909" height="36.9347" transform="rotate(-90 229.203 269.51)" fill="white" stroke="#D2DCE4" stroke-width="0.680999"/>
<rect x="229.203" y="295.899" width="13.1909" height="36.9347" transform="rotate(-90 229.203 295.899)" fill="white" stroke="#D2DCE4" stroke-width="0.680999"/>
<rect x="229.203" y="322.277" width="13.1909" height="36.9347" transform="rotate(-90 229.203 322.277)" fill="white" stroke="#D2DCE4" stroke-width="0.680999"/>
<rect x="229.203" y="348.654" width="13.1909" height="36.9347" transform="rotate(-90 229.203 348.654)" fill="white" stroke="#D2DCE4" stroke-width="0.680999"/>
<rect x="266.135" y="269.51" width="13.1909" height="36.9347" transform="rotate(-90 266.135 269.51)" fill="white" stroke="#D2DCE4" stroke-width="0.680999"/>
<rect x="266.135" y="295.899" width="13.1909" height="36.9347" transform="rotate(-90 266.135 295.899)" fill="white" stroke="#D2DCE4" stroke-width="0.680999"/>
<rect x="266.135" y="322.277" width="13.1909" height="36.9347" transform="rotate(-90 266.135 322.277)" fill="white" stroke="#D2DCE4" stroke-width="0.680999"/>
<rect x="266.135" y="348.654" width="13.1909" height="36.9347" transform="rotate(-90 266.135 348.654)" fill="white" stroke="#D2DCE4" stroke-width="0.680999"/>
<rect x="303.072" y="269.51" width="13.1909" height="35.6156" transform="rotate(-90 303.072 269.51)" fill="white" stroke="#D2DCE4" stroke-width="0.680999"/>
<rect x="303.072" y="295.899" width="13.1909" height="35.6156" transform="rotate(-90 303.072 295.899)" fill="white" stroke="#D2DCE4" stroke-width="0.680999"/>
<rect x="303.072" y="322.277" width="13.1909" height="35.6156" transform="rotate(-90 303.072 322.277)" fill="white" stroke="#D2DCE4" stroke-width="0.680999"/>
<rect x="303.072" y="348.654" width="13.1909" height="35.6156" transform="rotate(-90 303.072 348.654)" fill="white" stroke="#D2DCE4" stroke-width="0.680999"/>
<path d="M163.248 276.117H186.992" stroke="#B8C4D0" stroke-width="2.63819" stroke-linecap="round"/>
<path d="M163.248 302.495H186.992" stroke="#B8C4D0" stroke-width="2.63819" stroke-linecap="round"/>
<path d="M163.248 328.872H186.992" stroke="#B8C4D0" stroke-width="2.63819" stroke-linecap="round"/>
<path d="M198.859 276.117H223.922" stroke="#B8C4D0" stroke-width="2.63819" stroke-linecap="round"/>
<path d="M198.859 302.495H223.922" stroke="#B8C4D0" stroke-width="2.63819" stroke-linecap="round"/>
<path d="M198.859 328.872H223.922" stroke="#B8C4D0" stroke-width="2.63819" stroke-linecap="round"/>
<path d="M235.797 276.117H259.541" stroke="#B8C4D0" stroke-width="2.63819" stroke-linecap="round"/>
<path d="M235.797 302.495H259.541" stroke="#B8C4D0" stroke-width="2.63819" stroke-linecap="round"/>
<path d="M235.797 328.872H259.541" stroke="#B8C4D0" stroke-width="2.63819" stroke-linecap="round"/>
<path d="M271.418 276.117H296.481" stroke="#B8C4D0" stroke-width="2.63819" stroke-linecap="round"/>
<path d="M271.418 302.495H296.481" stroke="#B8C4D0" stroke-width="2.63819" stroke-linecap="round"/>
<path d="M271.418 328.872H296.481" stroke="#B8C4D0" stroke-width="2.63819" stroke-linecap="round"/>
<path d="M309.674 276.117H332.098" stroke="#B8C4D0" stroke-width="2.63819" stroke-linecap="round"/>
<path d="M309.674 302.495H332.098" stroke="#B8C4D0" stroke-width="2.63819" stroke-linecap="round"/>
<path d="M309.674 328.872H332.098" stroke="#B8C4D0" stroke-width="2.63819" stroke-linecap="round"/>
<path d="M163.248 262.923H186.992" stroke="#D2DCE4" stroke-width="2.63819" stroke-linecap="round"/>
<path d="M163.248 289.301H186.992" stroke="#D2DCE4" stroke-width="2.63819" stroke-linecap="round"/>
<path d="M163.248 315.689H186.992" stroke="#D2DCE4" stroke-width="2.63819" stroke-linecap="round"/>
<path d="M163.248 342.067H186.992" stroke="#D2DCE4" stroke-width="2.63819" stroke-linecap="round"/>
<path d="M198.859 262.923H223.922" stroke="#D2DCE4" stroke-width="2.63819" stroke-linecap="round"/>
<path d="M198.859 289.301H223.922" stroke="#D2DCE4" stroke-width="2.63819" stroke-linecap="round"/>
<path d="M198.859 315.689H223.922" stroke="#D2DCE4" stroke-width="2.63819" stroke-linecap="round"/>
<path d="M198.859 342.067H223.922" stroke="#D2DCE4" stroke-width="2.63819" stroke-linecap="round"/>
<path d="M235.797 262.923H259.541" stroke="#D2DCE4" stroke-width="2.63819" stroke-linecap="round"/>
<path d="M235.797 289.301H259.541" stroke="#D2DCE4" stroke-width="2.63819" stroke-linecap="round"/>
<path d="M235.797 315.689H259.541" stroke="#D2DCE4" stroke-width="2.63819" stroke-linecap="round"/>
<path d="M235.797 342.067H259.541" stroke="#D2DCE4" stroke-width="2.63819" stroke-linecap="round"/>
<path d="M271.418 262.923H296.481" stroke="#D2DCE4" stroke-width="2.63819" stroke-linecap="round"/>
<path d="M271.418 289.301H296.481" stroke="#D2DCE4" stroke-width="2.63819" stroke-linecap="round"/>
<path d="M271.418 315.689H296.481" stroke="#D2DCE4" stroke-width="2.63819" stroke-linecap="round"/>
<path d="M271.418 342.067H296.481" stroke="#D2DCE4" stroke-width="2.63819" stroke-linecap="round"/>
<path d="M309.674 262.923H332.098" stroke="#D2DCE4" stroke-width="2.63819" stroke-linecap="round"/>
<path d="M309.674 289.301H332.098" stroke="#D2DCE4" stroke-width="2.63819" stroke-linecap="round"/>
<path d="M309.674 315.689H332.098" stroke="#D2DCE4" stroke-width="2.63819" stroke-linecap="round"/>
<path d="M309.674 342.067H332.098" stroke="#D2DCE4" stroke-width="2.63819" stroke-linecap="round"/>
<path d="M153.288 253.135V246.538L146.691 253.135H153.288Z" fill="#B8C4D0"/>
<path d="M176.614 250.425C176.614 251.246 176.284 251.736 175.928 252.036C175.579 252.33 175.034 252.538 174.299 252.538H172.866V248.312H174.299C175.034 248.312 175.579 248.521 175.928 248.821C176.284 249.115 176.614 249.605 176.614 250.425ZM175.61 250.425C175.61 249.905 175.414 249.605 175.236 249.433C175.059 249.268 174.765 249.133 174.354 249.133H173.852V251.699H174.354C174.765 251.699 175.059 251.564 175.236 251.393C175.414 251.228 175.61 250.946 175.61 250.425Z" fill="#303B45"/>
<path d="M212.594 252.538H209.802V248.312H212.539V249.102H210.788V249.966H212.441V250.756H210.788V251.736H212.594V252.538Z" fill="#303B45"/>
<path d="M249.377 249.102H247.723V250.137H249.279V250.927H247.723V252.538H246.737V248.312H249.377V249.102Z" fill="#303B45"/>
<path d="M287.535 251.884C287.321 252.074 286.819 252.606 285.655 252.606C284.485 252.606 283.457 251.835 283.457 250.426C283.457 249.018 284.485 248.252 285.667 248.252C286.788 248.252 287.272 248.84 287.407 248.987L286.751 249.557C286.574 249.361 286.243 249.073 285.667 249.073C284.988 249.073 284.461 249.569 284.461 250.426C284.461 251.284 285 251.78 285.686 251.78C286.372 251.78 286.568 251.51 286.568 251.51V250.886H285.68V250.132H287.535V251.884Z" fill="#303B45"/>
</g>
<path d="M318.057 342.704V243.143" stroke="#D2DCE4" stroke-width="0.659547"/>
<rect x="143.004" y="232.323" width="182.819" height="11.2106" fill="#63B97F"/>
<path d="M143 227.149C143 224.767 144.93 222.837 147.312 222.837H321.508C323.889 222.837 325.819 224.767 325.819 227.149V232.323H143V227.149Z" fill="#4B825D"/>
<path d="M151.784 227.627C151.785 227.983 151.679 228.331 151.482 228.627C151.284 228.924 151.003 229.155 150.673 229.292C150.344 229.428 149.981 229.465 149.63 229.396C149.28 229.327 148.958 229.156 148.706 228.904C148.453 228.653 148.281 228.333 148.211 227.983C148.141 227.634 148.176 227.272 148.313 226.944C148.449 226.615 148.68 226.333 148.977 226.135C149.274 225.938 149.623 225.832 149.98 225.832C150.456 225.835 150.913 226.025 151.25 226.361C151.587 226.697 151.779 227.151 151.784 227.627V227.627Z" fill="#F66058"/>
<path d="M159.37 227.627C159.37 227.983 159.265 228.331 159.067 228.628C158.869 228.924 158.588 229.155 158.258 229.292C157.928 229.429 157.565 229.465 157.215 229.395C156.864 229.326 156.543 229.155 156.29 228.903C156.038 228.651 155.866 228.33 155.796 227.981C155.727 227.631 155.763 227.269 155.9 226.941C156.037 226.612 156.269 226.331 156.566 226.133C156.863 225.936 157.213 225.831 157.57 225.832C157.807 225.831 158.041 225.877 158.26 225.966C158.479 226.056 158.678 226.188 158.845 226.355C159.012 226.522 159.145 226.72 159.235 226.939C159.325 227.157 159.371 227.391 159.37 227.627Z" fill="#F9BD2E"/>
<path d="M167.145 227.627C167.146 227.983 167.041 228.331 166.843 228.627C166.645 228.924 166.364 229.155 166.034 229.292C165.705 229.428 165.342 229.465 164.992 229.396C164.642 229.327 164.32 229.156 164.067 228.904C163.814 228.653 163.642 228.333 163.572 227.983C163.502 227.634 163.538 227.272 163.674 226.944C163.81 226.615 164.042 226.333 164.338 226.135C164.635 225.938 164.984 225.832 165.341 225.832C165.818 225.835 166.274 226.025 166.611 226.361C166.949 226.697 167.14 227.151 167.145 227.627V227.627Z" fill="#3CC840"/>
<rect x="147.479" y="234.91" width="6.33831" height="6.03649" rx="1.28892" fill="#4B825D"/>
<path d="M150.801 238.234L151.558 239.437H152.305L151.201 237.88L152.233 236.419H151.495L150.796 237.508L150.097 236.419H149.359L150.391 237.876L149.287 239.437H150.03L150.801 238.234Z" fill="white"/>
<rect opacity="0.3" x="304.264" y="235.772" width="21.5589" height="4.31178" fill="white"/>
<rect opacity="0.3" x="268.043" y="235.772" width="30.1825" height="4.31178" fill="white"/>
<rect opacity="0.3" x="196.469" y="235.772" width="30.1825" height="4.31178" fill="white"/>
<rect opacity="0.3" x="231.828" y="235.772" width="31.0448" height="4.31178" fill="white"/>
<rect opacity="0.3" x="160.252" y="235.772" width="30.1825" height="4.31178" fill="white"/>
</g>
<g filter="url(#filter3_dd_956_70913)">
<path d="M402.907 222.072L456.393 232.868L456.482 288.904C456.571 325.846 433.126 344.938 403.085 355.914C373.045 345.117 349.598 326.022 349.509 289.082L349.42 233.047L402.907 222.072Z" fill="#EDF1F6"/>
<path d="M453.314 235.425L453.403 288.902C453.403 319.077 436.99 339.968 403.184 352.556C369.288 340.058 352.875 319.255 352.786 289.084L352.697 235.606L403.006 225.34L453.314 235.425Z" fill="white"/>
<path d="M388.633 310.697L387.465 307.972C386.644 308.815 385.303 309.55 383.443 309.55C380.999 309.55 378.966 307.885 378.966 304.966C378.966 302.046 380.913 300.36 383.443 300.36C385.411 300.36 387.011 301.549 387.292 301.917L388.374 299.019C387.984 298.608 386.319 297.332 383.248 297.332C378.902 297.332 375.42 300.208 375.42 305.031C375.42 309.832 378.858 312.729 383.248 312.729C386.298 312.729 387.876 311.475 388.633 310.697Z" fill="#3D7FFC"/>
<path d="M402.908 310.697L401.741 307.972C400.919 308.815 399.578 309.55 397.718 309.55C395.275 309.55 393.242 307.885 393.242 304.966C393.242 302.046 395.188 300.36 397.718 300.36C399.686 300.36 401.286 301.549 401.568 301.917L402.649 299.019C402.26 298.608 400.594 297.332 397.524 297.332C393.177 297.332 389.695 300.208 389.695 305.031C389.695 309.832 393.134 312.729 397.524 312.729C400.573 312.729 402.151 311.475 402.908 310.697Z" fill="#3D7FFC"/>
<path d="M416.173 302.241C416.173 300.641 415.611 299.495 414.616 298.673C413.621 297.851 412.259 297.548 410.724 297.548H405.382V312.47H408.885V306.955H410.724C412.259 306.955 413.621 306.653 414.616 305.831C415.611 304.987 416.173 303.841 416.173 302.241ZM412.627 302.241C412.627 302.998 412.324 303.539 411.913 303.841C411.481 304.144 410.983 304.252 410.226 304.252H408.864V300.251H410.226C410.983 300.251 411.481 300.36 411.913 300.662C412.324 300.965 412.627 301.484 412.627 302.241Z" fill="#3D7FFC"/>
<path d="M431.524 312.47L425.901 297.527H422.268L416.646 312.47H420.279L421.338 309.464H426.658L427.718 312.47H431.524ZM425.858 306.739H422.139L423.998 301.376L425.858 306.739Z" fill="#3D7FFC"/>
<path d="M380.131 324.001L379.659 323.202C379.153 323.753 378.366 324.147 377.343 324.147C375.678 324.147 374.453 322.943 374.453 321.122C374.453 319.3 375.667 318.097 377.343 318.097C378.422 318.097 379.288 318.659 379.592 319.041L380.053 318.164C379.625 317.748 378.748 317.141 377.298 317.141C375.071 317.141 373.328 318.726 373.328 321.144C373.328 323.562 375.026 325.148 377.286 325.148C378.76 325.148 379.648 324.54 380.131 324.001Z" fill="#3D7FFC"/>
<path d="M388.473 321.144C388.473 318.659 386.651 317.141 384.47 317.141C382.288 317.141 380.466 318.659 380.466 321.144C380.466 323.629 382.288 325.148 384.47 325.148C386.651 325.148 388.473 323.629 388.473 321.144ZM387.36 321.122C387.36 323.011 386.055 324.158 384.47 324.158C382.895 324.158 381.579 323.011 381.579 321.122C381.579 319.221 382.884 318.086 384.47 318.086C386.055 318.086 387.36 319.221 387.36 321.122Z" fill="#3D7FFC"/>
<path d="M397.988 325.013L397.279 317.253H395.941L393.703 323.247H393.681L391.443 317.253H390.094L389.396 325.013H390.476L390.971 318.884H391.004L393.377 325.08H393.996L396.368 318.884H396.402L396.908 325.013H397.988Z" fill="#3D7FFC"/>
<path d="M404.156 319.469C404.156 318.726 403.886 318.22 403.403 317.804C402.93 317.4 402.278 317.253 401.525 317.253H399.343V325.013H400.434V321.684H401.525C402.941 321.684 404.156 321.032 404.156 319.469ZM403.031 319.469C403.031 320.447 402.3 320.796 401.435 320.796H400.434V318.142H401.435C402.3 318.142 403.031 318.502 403.031 319.469Z" fill="#3D7FFC"/>
<path d="M409.14 325.013V324.09H406.408V317.253H405.317V325.013H409.14Z" fill="#3D7FFC"/>
<path d="M411.196 325.013V317.253H410.105V325.013H411.196Z" fill="#3D7FFC"/>
<path d="M419.349 325.013L416.178 317.231H415.222L412.062 325.013H413.209L414.007 322.988H417.336L418.134 325.013H419.349ZM417.032 322.078H414.311L415.672 318.592L417.032 322.078Z" fill="#3D7FFC"/>
<path d="M426.831 325.013V317.253H425.763V321.369C425.763 322.392 425.774 323.348 425.774 323.348L421.377 317.253H420.23V325.013H421.31V320.886C421.31 319.874 421.287 318.828 421.287 318.828L425.763 325.013H426.831Z" fill="#3D7FFC"/>
<path d="M433.243 318.164V317.253H427.778V318.164H429.971V325.013H431.062V318.164H433.243Z" fill="#3D7FFC"/>
<path d="M389.371 245.875C391.708 246.086 394.299 246.329 396.894 246.54C397.69 246.602 398.49 246.613 399.287 246.573C400.062 246.536 400.426 246.758 400.356 247.618C400.058 251.224 400.136 254.855 399.685 258.452C399.615 258.985 399.943 259.238 400.257 259.54C404.895 263.994 409.531 268.449 414.167 272.906C415.135 273.836 416.105 274.766 417.096 275.673C417.899 276.41 418.087 277.505 418.703 278.346C418.858 278.63 419.037 278.9 419.238 279.153C419.742 279.632 419.645 279.989 419.159 280.409C418.931 280.563 418.757 280.784 418.661 281.041C418.564 281.299 418.55 281.58 418.62 281.845C418.657 282.08 418.639 282.321 418.567 282.547C418.496 282.774 418.372 282.981 418.207 283.152C417.961 283.47 417.84 283.867 417.867 284.269C417.894 284.67 418.066 285.048 418.352 285.33C418.886 286.026 418.74 286.362 417.83 286.488C416.695 286.702 415.548 286.845 414.395 286.917C413.166 286.975 411.943 287.121 410.735 287.353C409.641 287.523 409.046 287.072 408.984 285.982C408.862 283.861 407.239 283.072 405.73 282.167C405.58 282.078 405.26 282.088 405.237 281.997C404.939 280.79 404.002 280.88 403.079 280.833C402.753 280.777 402.46 280.598 402.262 280.332C401.319 279.092 399.945 278.971 398.58 278.892C397.673 278.84 397.254 278.562 397.383 277.565C397.561 276.172 396.776 275.095 395.92 274.145C394.917 273.031 394.392 271.613 393.42 270.489C393.044 270.054 393.306 269.552 393.59 269.186C394.073 268.563 393.847 268.158 393.246 267.919C392.067 267.453 391.843 266.493 391.768 265.391C391.729 264.828 391.889 264.781 392.285 265.095C392.462 265.236 392.637 265.417 392.837 265.206C393.038 264.996 392.809 264.795 392.723 264.621C392.595 264.366 392.429 263.969 392.23 263.938C390.841 263.717 390.322 262.758 389.954 261.561C389.836 261.177 389.422 260.888 389.16 260.543C388.53 259.906 388.13 259.077 388.025 258.186C387.885 256.396 388.185 254.293 386.477 252.872C386.113 252.568 386.289 252.102 386.541 251.777C386.84 251.434 387.064 251.033 387.2 250.599C387.336 250.165 387.381 249.707 387.331 249.254C387.304 249.075 387.343 248.891 387.441 248.738C387.577 248.604 387.683 248.444 387.755 248.266C387.826 248.089 387.86 247.899 387.854 247.708C387.849 247.517 387.804 247.33 387.723 247.157C387.642 246.984 387.526 246.829 387.383 246.703C386.96 246.222 387.202 245.905 387.805 245.877C388.241 245.856 388.677 245.875 389.371 245.875Z" fill="#3D7FFC"/>
<path d="M417.743 269.011H417.182H404.213H403.652V268.45V259.372V258.811H404.213H404.95V257.103C404.95 253.933 407.528 251.354 410.698 251.354C413.867 251.354 416.446 253.933 416.446 257.103V258.811H417.182H417.743V259.372V268.45V269.011ZM407.692 258.811H413.703V257.103C413.703 255.446 412.355 254.097 410.698 254.097C409.041 254.097 407.692 255.446 407.692 257.103V258.811Z" fill="#3D7FFC"/>
<path d="M417.178 268.451V259.372H415.881V257.103C415.881 254.242 413.554 251.916 410.694 251.916C407.833 251.916 405.507 254.242 405.507 257.103V259.372H404.21V268.451H417.178ZM410.694 253.537C412.66 253.537 414.26 255.136 414.26 257.103V259.372H407.128V257.103C407.128 255.136 408.727 253.537 410.694 253.537ZM418.3 269.572H403.088V258.251H404.385V257.103C404.385 253.624 407.215 250.794 410.694 250.794C414.173 250.794 417.003 253.624 417.003 257.103V258.251H418.3V269.572ZM408.249 258.251H413.139V257.103C413.139 255.755 412.042 254.658 410.694 254.658C409.346 254.658 408.249 255.755 408.249 257.103V258.251Z" fill="#FEFEFF"/>
<path d="M403.368 222.079L403.191 355.923C432.945 345.126 456.166 326.031 456.254 289.091L456.343 233.056L403.368 222.079Z" fill="#003395" fill-opacity="0.15"/>
</g>
<g filter="url(#filter4_dd_956_70913)">
<path d="M317.688 272.123L371.175 282.919L371.264 338.955C371.353 375.896 347.908 394.989 317.867 405.965C287.827 395.168 264.379 376.073 264.29 339.133L264.201 283.098L317.688 272.123Z" fill="#EDF1F6"/>
<path d="M368.095 285.474L368.184 338.952C368.184 369.127 351.771 390.018 317.966 402.606C284.069 390.108 267.657 369.305 267.568 339.133L267.479 285.656L317.787 275.39L368.095 285.474Z" fill="white"/>
<path d="M303.202 360.202V354.017H296.649V356.677H299.785V358.883C299.785 358.883 299.093 359.834 296.671 359.834C294.249 359.834 292.346 358.083 292.346 355.055C292.346 352.027 294.206 350.276 296.606 350.276C298.639 350.276 299.807 351.292 300.434 351.984L302.748 349.973C302.272 349.454 300.564 347.378 296.606 347.378C292.432 347.378 288.799 350.081 288.799 355.055C288.799 360.029 292.432 362.754 296.563 362.754C300.672 362.754 302.445 360.872 303.202 360.202Z" fill="#3D7FFC"/>
<path d="M319.537 355.055C319.537 352.157 318.369 350.427 317.115 349.389C315.882 348.329 313.958 347.594 311.363 347.594H306.302V362.516H311.363C313.958 362.516 315.882 361.78 317.115 360.742C318.369 359.683 319.537 357.953 319.537 355.055ZM315.991 355.055C315.991 356.893 315.299 357.888 314.671 358.472C314.044 359.077 313.006 359.553 311.557 359.553H309.784V350.492H311.557C313.006 350.492 314.044 350.968 314.671 351.552C315.299 352.157 315.991 353.217 315.991 355.055Z" fill="#3D7FFC"/>
<path d="M333.164 352.287C333.164 350.687 332.602 349.54 331.607 348.719C330.612 347.897 329.25 347.594 327.714 347.594H322.373V362.516H325.876V357.001H327.714C329.25 357.001 330.612 356.698 331.607 355.877C332.602 355.033 333.164 353.887 333.164 352.287ZM329.617 352.287C329.617 353.044 329.315 353.584 328.904 353.887C328.471 354.19 327.974 354.298 327.217 354.298H325.854V350.297H327.217C327.974 350.297 328.471 350.405 328.904 350.708C329.315 351.011 329.617 351.53 329.617 352.287Z" fill="#3D7FFC"/>
<path d="M347.547 362.516L343.763 356.352C344.866 356.006 346.682 354.904 346.682 352.071C346.682 350.578 346.034 349.389 345.039 348.654C344.066 347.94 342.768 347.594 341.103 347.594H335.74V362.516H339.243V356.807H340.346L343.482 362.516H347.547ZM343.158 352.2C343.158 352.979 342.855 353.39 342.401 353.714C341.968 354.039 341.406 354.125 340.606 354.125H339.222V350.297H340.606C341.406 350.297 341.968 350.362 342.401 350.687C342.855 351.011 343.158 351.444 343.158 352.2Z" fill="#3D7FFC"/>
<path d="M294.778 374.046L294.306 373.248C293.8 373.799 293.012 374.193 291.989 374.193C290.325 374.193 289.099 372.989 289.099 371.168C289.099 369.346 290.314 368.143 291.989 368.143C293.069 368.143 293.935 368.705 294.238 369.087L294.699 368.21C294.272 367.794 293.395 367.187 291.944 367.187C289.718 367.187 287.975 368.772 287.975 371.19C287.975 373.608 289.673 375.193 291.933 375.193C293.406 375.193 294.294 374.586 294.778 374.046Z" fill="#3D7FFC"/>
<path d="M303.119 371.19C303.119 368.705 301.298 367.187 299.116 367.187C296.934 367.187 295.113 368.705 295.113 371.19C295.113 373.675 296.934 375.193 299.116 375.193C301.298 375.193 303.119 373.675 303.119 371.19ZM302.006 371.168C302.006 373.057 300.702 374.204 299.116 374.204C297.542 374.204 296.226 373.057 296.226 371.168C296.226 369.267 297.53 368.131 299.116 368.131C300.702 368.131 302.006 369.267 302.006 371.168Z" fill="#3D7FFC"/>
<path d="M312.634 375.058L311.926 367.299H310.588L308.35 373.293H308.327L306.09 367.299H304.74L304.043 375.058H305.122L305.617 368.93H305.651L308.024 375.126H308.642L311.015 368.93H311.049L311.555 375.058H312.634Z" fill="#3D7FFC"/>
<path d="M318.802 369.515C318.802 368.772 318.533 368.266 318.049 367.85C317.577 367.445 316.924 367.299 316.171 367.299H313.989V375.058H315.08V371.73H316.171C317.588 371.73 318.802 371.078 318.802 369.515ZM317.678 369.515C317.678 370.493 316.947 370.842 316.081 370.842H315.08V368.188H316.081C316.947 368.188 317.678 368.547 317.678 369.515Z" fill="#3D7FFC"/>
<path d="M323.787 375.058V374.136H321.054V367.299H319.963V375.058H323.787Z" fill="#3D7FFC"/>
<path d="M325.842 375.058V367.299H324.752V375.058H325.842Z" fill="#3D7FFC"/>
<path d="M333.995 375.058L330.824 367.277H329.868L326.708 375.058H327.855L328.654 373.034H331.982L332.781 375.058H333.995ZM331.679 372.123H328.957L330.318 368.637L331.679 372.123Z" fill="#3D7FFC"/>
<path d="M341.478 375.058V367.299H340.409V371.415C340.409 372.438 340.42 373.394 340.42 373.394L336.024 367.299H334.877V375.058H335.956V370.931C335.956 369.919 335.934 368.874 335.934 368.874L340.409 375.058H341.478Z" fill="#3D7FFC"/>
<path d="M347.89 368.21V367.299H342.425V368.21H344.618V375.058H345.708V368.21H347.89Z" fill="#3D7FFC"/>
<path d="M317.733 292.456L318.49 294.905H320.938L318.957 296.419L319.714 298.868L317.732 297.354L315.751 298.868L316.508 296.419L314.527 294.905H316.976L317.733 292.456Z" fill="#C6DBFF"/>
<path d="M317.733 332.756L318.49 335.206H320.938L318.957 336.719L319.714 339.168L317.732 337.654L315.751 339.168L316.508 336.719L314.527 335.206H316.976L317.733 332.756Z" fill="#C6DBFF"/>
<path d="M327.798 296.119L328.554 298.568H331.003L329.022 300.082L329.779 302.53L327.798 301.016L325.817 302.53L326.573 300.082L324.592 298.568H327.041L327.798 296.119Z" fill="#C6DBFF"/>
<path d="M335.944 322.482L336.7 324.932H339.149L337.168 326.446L337.925 328.894L335.944 327.38L333.963 328.894L334.72 326.446L332.738 324.932H335.188L335.944 322.482Z" fill="#C6DBFF"/>
<path d="M337.864 312.607L338.62 315.056H341.07L339.088 316.57L339.845 319.019L337.864 317.506L335.883 319.019L336.64 316.57L334.658 315.056H337.107L337.864 312.607Z" fill="#C6DBFF"/>
<path d="M297.571 312.607L298.328 315.056H300.777L298.795 316.57L299.553 319.019L297.572 317.506L295.59 319.019L296.347 316.57L294.365 315.056H296.815L297.571 312.607Z" fill="#C6DBFF"/>
<path d="M299.228 322.482L299.984 324.932H302.433L300.452 326.446L301.208 328.894L299.228 327.38L297.246 328.894L298.003 326.446L296.021 324.932H298.471L299.228 322.482Z" fill="#C6DBFF"/>
<path d="M335.944 302.466L336.7 304.916H339.149L337.168 306.429L337.925 308.877L335.944 307.364L333.963 308.877L334.72 306.429L332.738 304.916H335.188L335.944 302.466Z" fill="#C6DBFF"/>
<path d="M300.089 302.466L300.845 304.916H303.294L301.313 306.429L302.069 308.877L300.089 307.364L298.108 308.877L298.865 306.429L296.883 304.916H299.332L300.089 302.466Z" fill="#C6DBFF"/>
<path d="M329.62 330.924L330.376 333.372H332.826L330.844 334.886L331.601 337.334L329.62 335.821L327.638 337.334L328.395 334.886L326.414 333.372H328.863L329.62 330.924Z" fill="#C6DBFF"/>
<path d="M307.635 296.119L308.391 298.568H310.841L308.859 300.082L309.617 302.53L307.635 301.016L305.655 302.53L306.411 300.082L304.43 298.568H306.879L307.635 296.119Z" fill="#C6DBFF"/>
<path d="M305.815 330.924L306.572 333.374H309.021L307.04 334.887L307.796 337.336L305.815 335.822L303.834 337.336L304.591 334.887L302.609 333.374H305.058L305.815 330.924Z" fill="#C6DBFF"/>
<path d="M324.225 315.162H311.25V324.245H324.225V315.162Z" fill="#3D7FFC"/>
<path d="M314.163 317.431H312.541V312.89C312.541 311.864 312.845 310.86 313.416 310.007C313.986 309.153 314.797 308.488 315.745 308.095C316.693 307.702 317.737 307.6 318.744 307.8C319.75 308 320.675 308.494 321.401 309.22C321.884 309.701 322.268 310.273 322.529 310.903C322.79 311.533 322.923 312.208 322.921 312.89V317.431H321.299V312.89C321.299 311.944 320.923 311.036 320.254 310.367C319.585 309.698 318.677 309.322 317.731 309.322C316.785 309.322 315.877 309.698 315.208 310.367C314.539 311.036 314.163 311.944 314.163 312.89V317.431Z" fill="#3D7FFC"/>
<path d="M317.982 272.125L317.805 405.969C347.559 395.171 371.086 376.103 371.175 339.163L371.083 282.917L317.982 272.125Z" fill="#003395" fill-opacity="0.15"/>
</g>
<path fill-rule="evenodd" clip-rule="evenodd" d="M116.142 181.066C112.296 177.222 109.917 171.91 109.917 166.042C109.917 154.31 119.428 144.799 131.16 144.799C142.892 144.799 152.403 154.31 152.403 166.042C152.403 171.91 150.025 177.221 146.179 181.066L146.182 181.069L131.161 196.09L116.14 181.069L116.142 181.066Z" fill="#3D7FFC"/>
<path fill-rule="evenodd" clip-rule="evenodd" d="M439.412 167.228C436.747 164.564 435.098 160.883 435.098 156.817C435.098 148.688 441.689 142.097 449.818 142.097C457.948 142.097 464.538 148.688 464.538 156.817C464.538 160.883 462.89 164.564 460.225 167.227L460.227 167.229L449.819 177.638L439.41 167.229L439.412 167.228Z" fill="#3D7FFC"/>
<path opacity="0.6" fill-rule="evenodd" clip-rule="evenodd" d="M175.825 386.123C174.108 384.406 173.046 382.035 173.046 379.415C173.046 374.176 177.293 369.929 182.531 369.929C187.77 369.929 192.017 374.176 192.017 379.415C192.017 382.034 190.955 384.406 189.238 386.123L189.239 386.124L182.531 392.831L175.824 386.124L175.825 386.123Z" fill="#3D7FFC"/>
<path opacity="0.6" fill-rule="evenodd" clip-rule="evenodd" d="M183.775 132.978C182.583 131.786 181.845 130.138 181.845 128.318C181.845 124.679 184.795 121.729 188.434 121.729C192.073 121.729 195.022 124.679 195.022 128.318C195.022 130.138 194.285 131.785 193.092 132.978L193.093 132.979L188.434 137.638L183.775 132.979L183.775 132.978Z" fill="#3D7FFC"/>
<path fill-rule="evenodd" clip-rule="evenodd" d="M455.775 364.978C454.583 363.786 453.845 362.138 453.845 360.318C453.845 356.679 456.795 353.729 460.434 353.729C464.073 353.729 467.022 356.679 467.022 360.318C467.022 362.138 466.285 363.785 465.092 364.978L465.093 364.979L460.434 369.638L455.775 364.979L455.775 364.978Z" fill="#3D7FFC"/>
<path opacity="0.6" fill-rule="evenodd" clip-rule="evenodd" d="M394.99 189.308C393.625 187.944 392.781 186.059 392.781 183.977C392.781 179.815 396.156 176.44 400.318 176.44C404.481 176.44 407.855 179.815 407.855 183.977C407.855 186.059 407.011 187.943 405.647 189.307L405.648 189.308L400.319 194.638L394.989 189.308L394.99 189.308Z" fill="#3D7FFC"/>
<path opacity="0.6" fill-rule="evenodd" clip-rule="evenodd" d="M387.775 116.978C386.583 115.786 385.845 114.138 385.845 112.318C385.845 108.679 388.795 105.729 392.434 105.729C396.073 105.729 399.022 108.679 399.022 112.318C399.022 114.138 398.285 115.785 397.092 116.978L397.093 116.979L392.434 121.638L387.775 116.979L387.775 116.978Z" fill="#3D7FFC"/>
<path fill-rule="evenodd" clip-rule="evenodd" d="M227.186 420.209C225.632 418.656 224.671 416.51 224.671 414.139C224.671 409.398 228.513 405.555 233.254 405.555C237.994 405.555 241.837 409.398 241.837 414.139C241.837 416.509 240.876 418.656 239.322 420.209L239.323 420.21L233.254 426.28L227.185 420.21L227.186 420.209Z" fill="#3D7FFC"/>
<path opacity="0.4" fill-rule="evenodd" clip-rule="evenodd" d="M247.205 127.61C245.105 125.51 243.806 122.61 243.806 119.406C243.806 112.999 248.999 107.805 255.406 107.805C261.813 107.805 267.007 112.999 267.007 119.406C267.007 122.61 265.708 125.51 263.608 127.61L263.609 127.611L255.407 135.814L247.204 127.611L247.205 127.61Z" fill="#3D7FFC"/>
<defs>
<filter id="filter0_d_956_70913" x="182.045" y="173" width="202.542" height="139.686" filterUnits="userSpaceOnUse" color-interpolation-filters="sRGB">
<feFlood flood-opacity="0" result="BackgroundImageFix"/>
<feColorMatrix in="SourceAlpha" type="matrix" values="0 0 0 0 0 0 0 0 0 0 0 0 0 0 0 0 0 0 127 0" result="hardAlpha"/>
<feOffset dx="4.99968" dy="4.99968"/>
<feGaussianBlur stdDeviation="4.99968"/>
<feColorMatrix type="matrix" values="0 0 0 0 0.0941177 0 0 0 0 0.188235 0 0 0 0 0.247059 0 0 0 0.05 0"/>
<feBlend mode="normal" in2="BackgroundImageFix" result="effect1_dropShadow_956_70913"/>
<feBlend mode="normal" in="SourceGraphic" in2="effect1_dropShadow_956_70913" result="shape"/>
</filter>
<filter id="filter1_d_956_70913" x="178.113" y="178.54" width="200.407" height="128.079" filterUnits="userSpaceOnUse" color-interpolation-filters="sRGB">
<feFlood flood-opacity="0" result="BackgroundImageFix"/>
<feColorMatrix in="SourceAlpha" type="matrix" values="0 0 0 0 0 0 0 0 0 0 0 0 0 0 0 0 0 0 127 0" result="hardAlpha"/>
<feOffset/>
<feGaussianBlur stdDeviation="4.46599"/>
<feColorMatrix type="matrix" values="0 0 0 0 0 0 0 0 0 0.0486432 0 0 0 0 0.221106 0 0 0 0.06 0"/>
<feBlend mode="normal" in2="BackgroundImageFix" result="effect1_dropShadow_956_70913"/>
<feBlend mode="normal" in="SourceGraphic" in2="effect1_dropShadow_956_70913" result="shape"/>
</filter>
<filter id="filter2_dd_956_70913" x="132.652" y="214.213" width="203.521" height="140.564" filterUnits="userSpaceOnUse" color-interpolation-filters="sRGB">
<feFlood flood-opacity="0" result="BackgroundImageFix"/>
<feColorMatrix in="SourceAlpha" type="matrix" values="0 0 0 0 0 0 0 0 0 0 0 0 0 0 0 0 0 0 127 0" result="hardAlpha"/>
<feOffset dy="3.44942"/>
<feGaussianBlur stdDeviation="4.31178"/>
<feColorMatrix type="matrix" values="0 0 0 0 0.607843 0 0 0 0 0.67451 0 0 0 0 0.737255 0 0 0 0.35 0"/>
<feBlend mode="normal" in2="BackgroundImageFix" result="effect1_dropShadow_956_70913"/>
<feColorMatrix in="SourceAlpha" type="matrix" values="0 0 0 0 0 0 0 0 0 0 0 0 0 0 0 0 0 0 127 0" result="hardAlpha"/>
<feOffset dy="1.72471"/>
<feGaussianBlur stdDeviation="5.17413"/>
<feColorMatrix type="matrix" values="0 0 0 0 0.89625 0 0 0 0 0.930414 0 0 0 0 0.995833 0 0 0 0.5 0"/>
<feBlend mode="normal" in2="effect1_dropShadow_956_70913" result="effect2_dropShadow_956_70913"/>
<feBlend mode="normal" in="SourceGraphic" in2="effect2_dropShadow_956_70913" result="shape"/>
</filter>
<filter id="filter3_dd_956_70913" x="343.487" y="216.139" width="125.709" height="152.497" filterUnits="userSpaceOnUse" color-interpolation-filters="sRGB">
<feFlood flood-opacity="0" result="BackgroundImageFix"/>
<feColorMatrix in="SourceAlpha" type="matrix" values="0 0 0 0 0 0 0 0 0 0 0 0 0 0 0 0 0 0 127 0" result="hardAlpha"/>
<feOffset dx="4.23783" dy="4.23783"/>
<feGaussianBlur stdDeviation="4.23783"/>
<feColorMatrix type="matrix" values="0 0 0 0 0 0 0 0 0 0.296699 0 0 0 0 0.858629 0 0 0 0.08 0"/>
<feBlend mode="normal" in2="BackgroundImageFix" result="effect1_dropShadow_956_70913"/>
<feColorMatrix in="SourceAlpha" type="matrix" values="0 0 0 0 0 0 0 0 0 0 0 0 0 0 0 0 0 0 127 0" result="hardAlpha"/>
<feOffset/>
<feGaussianBlur stdDeviation="2.96648"/>
<feComposite in2="hardAlpha" operator="out"/>
<feColorMatrix type="matrix" values="0 0 0 0 0.0354167 0 0 0 0 0.105426 0 0 0 0 0.2125 0 0 0 0.07 0"/>
<feBlend mode="normal" in2="effect1_dropShadow_956_70913" result="effect2_dropShadow_956_70913"/>
<feBlend mode="normal" in="SourceGraphic" in2="effect2_dropShadow_956_70913" result="shape"/>
</filter>
<filter id="filter4_dd_956_70913" x="258.268" y="266.19" width="125.709" height="152.492" filterUnits="userSpaceOnUse" color-interpolation-filters="sRGB">
<feFlood flood-opacity="0" result="BackgroundImageFix"/>
<feColorMatrix in="SourceAlpha" type="matrix" values="0 0 0 0 0 0 0 0 0 0 0 0 0 0 0 0 0 0 127 0" result="hardAlpha"/>
<feOffset dx="4.23783" dy="4.23783"/>
<feGaussianBlur stdDeviation="4.23783"/>
<feColorMatrix type="matrix" values="0 0 0 0 0 0 0 0 0 0.296699 0 0 0 0 0.858629 0 0 0 0.08 0"/>
<feBlend mode="normal" in2="BackgroundImageFix" result="effect1_dropShadow_956_70913"/>
<feColorMatrix in="SourceAlpha" type="matrix" values="0 0 0 0 0 0 0 0 0 0 0 0 0 0 0 0 0 0 127 0" result="hardAlpha"/>
<feOffset/>
<feGaussianBlur stdDeviation="2.96648"/>
<feComposite in2="hardAlpha" operator="out"/>
<feColorMatrix type="matrix" values="0 0 0 0 0.0354167 0 0 0 0 0.105426 0 0 0 0 0.2125 0 0 0 0.07 0"/>
<feBlend mode="normal" in2="effect1_dropShadow_956_70913" result="effect2_dropShadow_956_70913"/>
<feBlend mode="normal" in="SourceGraphic" in2="effect2_dropShadow_956_70913" result="shape"/>
</filter>
<radialGradient id="paint0_radial_956_70913" cx="0" cy="0" r="1" gradientUnits="userSpaceOnUse" gradientTransform="translate(77 261.5) rotate(-13.0312) scale(235.053 273.961)">
<stop stop-color="#3D7FFC"/>
<stop offset="1" stop-color="#E7EEFF"/>
</radialGradient>
<linearGradient id="paint1_linear_956_70913" x1="379.451" y1="105.747" x2="379.448" y2="105.77" gradientUnits="userSpaceOnUse">
<stop stop-color="#3D7FFC"/>
<stop offset="1" stop-color="#3D7FFC" stop-opacity="0"/>
</linearGradient>
<radialGradient id="paint2_radial_956_70913" cx="0" cy="0" r="1" gradientUnits="userSpaceOnUse" gradientTransform="translate(544.5 190) rotate(135.311) scale(260.926 200.112)">
<stop stop-color="#3D7FFC"/>
<stop offset="1" stop-color="#E7EEFF"/>
</radialGradient>
<linearGradient id="paint3_linear_956_70913" x1="383.178" y1="106.873" x2="382.903" y2="108.313" gradientUnits="userSpaceOnUse">
<stop stop-color="#3D7FFC"/>
<stop offset="1" stop-color="#3D7FFC" stop-opacity="0"/>
</linearGradient>
<linearGradient id="paint4_linear_956_70913" x1="380.105" y1="105.141" x2="379.847" y2="106.723" gradientUnits="userSpaceOnUse">
<stop stop-color="#3D7FFC"/>
<stop offset="1" stop-color="#3D7FFC" stop-opacity="0"/>
</linearGradient>
</defs>
</svg>
