<svg width="65" height="48" viewBox="0 0 65 48" fill="none" xmlns="http://www.w3.org/2000/svg">
<g clip-path="url(#clip0_548_10176)">
<path d="M-15.564 0H80.6939V48.1289H-15.564V0Z" fill="#000066"/>
<path d="M-15.564 0V5.38094L69.9323 48.1291H80.6939V42.7484L-4.80237 0H-15.564ZM80.6939 0V5.38084L-4.80237 48.1289H-15.564V42.7481L69.9323 0H80.6939Z" fill="white"/>
<path d="M24.5435 0V48.1289H40.5865V0H24.5435ZM-15.564 16.043V32.086H80.6939V16.043H-15.564Z" fill="white"/>
<path d="M-15.564 19.2516V28.8774H80.6939V19.2516H-15.564ZM27.7522 0V48.1289H37.3778V0H27.7522ZM-15.564 48.1289L16.522 32.086H23.6965L-8.38951 48.1289H-15.564ZM-15.564 0L16.522 16.043H9.34754L-15.564 3.58742V0ZM41.4335 16.043L73.5195 0H80.6939L48.608 16.043H41.4335ZM80.6939 48.1289L48.608 32.086H55.7824L80.6939 44.5417V48.1289Z" fill="#CC0000"/>
</g>
<rect x="1" y="0.5" width="63" height="47" rx="3.5" stroke="#D2DCE4"/>
<defs>
<clipPath id="clip0_548_10176">
<rect x="0.5" width="64" height="48" rx="4" fill="white"/>
</clipPath>
</defs>
</svg>
