<svg width="165" height="147" viewBox="0 0 165 147" fill="none" xmlns="http://www.w3.org/2000/svg">
<g id="Awards">
<g id="Group 114305">
<g id="DataExtraction_Leader_Enterprise_Leader 2">
<path id="Vector" d="M35.7598 108.322L83.354 132.541L129.141 108.322V13.6156H35.7598V108.322Z" fill="white"/>
<path id="Vector_2" d="M130.105 13.9771L34.7959 110.009L84.1975 134.469L130.105 110.973V13.9771Z" fill="#F2F3F2"/>
<path id="Vector_3" d="M32.627 45.1844V110.37L34.3138 111.214L81.9081 135.433L83.354 136.156L84.7999 135.433L130.707 111.214L132.394 110.37V10.4828H32.627V45.1844ZM35.7597 108.563V13.6156H129.261V108.563L83.354 132.782L35.7597 108.563Z" fill="#DCDEDC"/>
<path id="Vector_4" d="M82.5111 15.182C82.9931 15.182 83.475 15.182 83.957 15.3025L82.5111 18.0738C80.3423 17.9533 78.4144 19.6402 78.2939 21.809C78.1734 23.9779 79.8603 25.9057 82.0291 26.0262H82.5111C83.475 26.0262 84.439 25.6648 85.1619 25.0623L86.7283 27.7131C85.5234 28.5566 84.0775 29.0385 82.5111 29.0385C78.6554 29.159 75.4021 26.2672 75.2816 22.4115C75.1611 18.5557 78.0529 15.3025 81.9087 15.182H82.5111ZM87.4513 21.0861L89.2586 24.0984L87.4513 26.9902L85.7644 24.0984H82.2701L84.0775 21.0861H87.4513ZM84.5595 20.0016C84.5595 19.5197 84.68 19.0377 84.9209 18.6762C85.1619 18.3148 85.6439 17.9533 86.0054 17.7123L86.2464 17.5918C86.7283 17.3508 86.8488 17.2303 86.8488 16.9893C86.8488 16.7484 86.4873 16.5074 86.2464 16.5074C85.7644 16.5074 85.4029 16.7484 85.1619 17.2303L84.5595 16.6279C84.68 16.3869 84.9209 16.1459 85.1619 15.9049C85.5234 15.6639 85.8849 15.6639 86.2464 15.6639C86.6078 15.6639 87.0898 15.7844 87.3308 16.0254C87.5718 16.2664 87.8127 16.6279 87.8127 16.9893C87.8127 17.5918 87.4513 18.0738 86.7283 18.3148L86.3668 18.5557C86.0054 18.7967 85.7644 18.9172 85.6439 19.2787H87.8127V20.1221L84.5595 20.0016ZM82.5111 35.0631L93.9578 28.5566V10.4828H70.9439V28.4361L82.5111 35.0631ZM134.684 77.7172H30.3382L26.4824 86.1516L30.3382 94.5861H134.684L138.419 86.1516L134.684 77.7172Z" fill="#FF492C"/>
<path id="Vector_5" d="M49.0021 72.2951C48.9298 72.2951 48.8695 72.271 48.8213 72.2228C48.7731 72.1666 48.749 72.1023 48.749 72.03V57.3782C48.749 57.3059 48.7731 57.2417 48.8213 57.1855C48.8695 57.1373 48.9298 57.1132 49.0021 57.1132H51.5444C51.6167 57.1132 51.677 57.1373 51.7252 57.1855C51.7814 57.2417 51.8095 57.3059 51.8095 57.3782V69.56C51.8095 69.6323 51.8457 69.6684 51.918 69.6684H59.0029C59.0752 69.6684 59.1394 69.6925 59.1957 69.7407C59.2439 69.7969 59.268 69.8612 59.268 69.9335V72.03C59.268 72.1023 59.2439 72.1666 59.1957 72.2228C59.1394 72.271 59.0752 72.2951 59.0029 72.2951H49.0021ZM70.8231 65.5717C70.9115 66.1179 70.9396 66.7324 70.9075 67.4152C70.8994 67.5919 70.8071 67.6803 70.6303 67.6803H63.931C63.8426 67.6803 63.8145 67.7164 63.8466 67.7887C63.8868 68.0779 63.9631 68.3671 64.0756 68.6563C64.4531 69.4596 65.2203 69.8612 66.377 69.8612C67.3007 69.8532 68.0317 69.4796 68.5699 68.7406C68.6262 68.6523 68.6904 68.6081 68.7627 68.6081C68.8109 68.6081 68.8631 68.6362 68.9194 68.6924L70.4737 70.2347C70.546 70.307 70.5821 70.3713 70.5821 70.4275C70.5821 70.4596 70.554 70.5199 70.4978 70.6082C70.0239 71.1946 69.4094 71.6525 68.6543 71.9818C67.9072 72.3032 67.0839 72.4638 66.1842 72.4638C64.9391 72.4638 63.8868 72.1827 63.0273 71.6204C62.1678 71.0581 61.5493 70.2709 61.1717 69.2587C60.8665 68.5358 60.7139 67.5879 60.7139 66.4151C60.7139 65.6199 60.8223 64.921 61.0392 64.3186C61.3766 63.2904 61.9589 62.471 62.7863 61.8605C63.6217 61.2581 64.6098 60.9568 65.7504 60.9568C67.1963 60.9568 68.3571 61.3746 69.2326 62.21C70.1082 63.0454 70.6384 64.1659 70.8231 65.5717ZM65.7745 63.5956C64.8588 63.5956 64.2563 64.0214 63.9671 64.8728C63.9109 65.0656 63.8627 65.2986 63.8225 65.5717C63.8225 65.644 63.8587 65.6801 63.931 65.6801H67.6783C67.7666 65.6801 67.7948 65.644 67.7626 65.5717C67.6903 65.154 67.6542 64.9532 67.6542 64.9692C67.5257 64.5355 67.3007 64.1981 66.9794 63.9571C66.6501 63.7161 66.2485 63.5956 65.7745 63.5956ZM77.1369 60.9689C78.0767 60.9689 78.9162 61.1336 79.6552 61.4629C80.3942 61.7842 80.9685 62.23 81.3782 62.8004C81.7879 63.3627 81.9927 63.9892 81.9927 64.68V72.03C81.9927 72.1023 81.9686 72.1666 81.9204 72.2228C81.8722 72.271 81.812 72.2951 81.7397 72.2951H79.1973C79.125 72.2951 79.0648 72.271 79.0166 72.2228C78.9603 72.1666 78.9322 72.1023 78.9322 72.03V71.3191C78.9322 71.279 78.9202 71.2509 78.8961 71.2348C78.8639 71.2187 78.8358 71.2308 78.8117 71.2709C78.2012 72.0662 77.2253 72.4638 75.8838 72.4638C74.7512 72.4638 73.8394 72.1907 73.1486 71.6445C72.4498 71.0982 72.1003 70.2869 72.1003 69.2105C72.1003 68.102 72.4939 67.2385 73.2812 66.62C74.0603 66.0095 75.1729 65.7042 76.6188 65.7042H78.8238C78.8961 65.7042 78.9322 65.6681 78.9322 65.5958V65.1138C78.9322 64.6399 78.7876 64.2664 78.4985 63.9932C78.2093 63.7282 77.7755 63.5956 77.1971 63.5956C76.7553 63.5956 76.3858 63.6759 76.0886 63.8366C75.7914 63.9973 75.5986 64.2222 75.5103 64.5114C75.4701 64.672 75.3777 64.7443 75.2331 64.7282L72.6064 64.3788C72.4297 64.3467 72.3494 64.2824 72.3654 64.186C72.4216 63.5755 72.6626 63.0253 73.0884 62.5353C73.5141 62.0453 74.0804 61.6637 74.7873 61.3906C75.4862 61.1095 76.2694 60.9689 77.1369 60.9689ZM76.7031 70.1865C77.3217 70.1865 77.8478 70.0218 78.2816 69.6925C78.7153 69.3632 78.9322 68.9374 78.9322 68.4153V67.6321C78.9322 67.5598 78.8961 67.5237 78.8238 67.5237H77.2694C76.6188 67.5237 76.1087 67.6482 75.7392 67.8972C75.3697 68.1382 75.1849 68.4836 75.1849 68.9334C75.1849 69.327 75.3215 69.6323 75.5946 69.8491C75.8677 70.0741 76.2372 70.1865 76.7031 70.1865ZM91.0658 57.3782C91.0658 57.3059 91.0898 57.2417 91.138 57.1855C91.1862 57.1373 91.2465 57.1132 91.3188 57.1132H93.8612C93.9335 57.1132 93.9937 57.1373 94.0419 57.1855C94.0901 57.2417 94.1142 57.3059 94.1142 57.3782V72.03C94.1142 72.1023 94.0901 72.1666 94.0419 72.2228C93.9937 72.271 93.9335 72.2951 93.8612 72.2951H91.3188C91.2465 72.2951 91.1862 72.271 91.138 72.2228C91.0898 72.1666 91.0658 72.1023 91.0658 72.03V71.3191C91.0658 71.279 91.0497 71.2549 91.0176 71.2468C90.9854 71.2388 90.9573 71.2468 90.9332 71.2709C90.3227 72.0662 89.4913 72.4638 88.439 72.4638C87.4269 72.4638 86.5553 72.1827 85.8244 71.6204C85.0934 71.0581 84.5672 70.2869 84.2459 69.3069C84.0049 68.5518 83.8844 67.6763 83.8844 66.6802C83.8844 65.652 84.013 64.7564 84.27 63.9932C84.6074 63.0614 85.1335 62.3264 85.8485 61.7882C86.5634 61.242 87.447 60.9689 88.4993 60.9689C89.5435 60.9689 90.3548 61.3304 90.9332 62.0533C90.9573 62.1015 90.9854 62.1176 91.0176 62.1015C91.0497 62.0855 91.0658 62.0573 91.0658 62.0172V57.3782ZM90.6079 68.9093C90.8971 68.3791 91.0416 67.6482 91.0416 66.7164C91.0416 65.7524 90.881 64.9933 90.5597 64.4391C90.2303 63.8768 89.7484 63.5956 89.1138 63.5956C88.431 63.5956 87.9169 63.8768 87.5715 64.4391C87.21 65.0094 87.0293 65.7765 87.0293 66.7405C87.0293 67.608 87.1819 68.3309 87.4871 68.9093C87.8486 69.5359 88.3828 69.8491 89.0897 69.8491C89.7403 69.8491 90.2464 69.5359 90.6079 68.9093ZM106.284 65.5717C106.372 66.1179 106.4 66.7324 106.368 67.4152C106.36 67.5919 106.268 67.6803 106.091 67.6803H99.3917C99.3034 67.6803 99.2753 67.7164 99.3074 67.7887C99.3476 68.0779 99.4239 68.3671 99.5363 68.6563C99.9139 69.4596 100.681 69.8612 101.838 69.8612C102.761 69.8532 103.492 69.4796 104.031 68.7406C104.087 68.6523 104.151 68.6081 104.223 68.6081C104.272 68.6081 104.324 68.6362 104.38 68.6924L105.934 70.2347C106.007 70.307 106.043 70.3713 106.043 70.4275C106.043 70.4596 106.015 70.5199 105.959 70.6082C105.485 71.1946 104.87 71.6525 104.115 71.9818C103.368 72.3032 102.545 72.4638 101.645 72.4638C100.4 72.4638 99.3476 72.1827 98.488 71.6204C97.6285 71.0581 97.01 70.2709 96.6325 69.2587C96.3272 68.5358 96.1746 67.5879 96.1746 66.4151C96.1746 65.6199 96.283 64.921 96.4999 64.3186C96.8373 63.2904 97.4197 62.471 98.2471 61.8605C99.0825 61.2581 100.071 60.9568 101.211 60.9568C102.657 60.9568 103.818 61.3746 104.693 62.21C105.569 63.0454 106.099 64.1659 106.284 65.5717ZM101.235 63.5956C100.32 63.5956 99.7171 64.0214 99.4279 64.8728C99.3716 65.0656 99.3235 65.2986 99.2833 65.5717C99.2833 65.644 99.3194 65.6801 99.3917 65.6801H103.139C103.227 65.6801 103.256 65.644 103.223 65.5717C103.151 65.154 103.115 64.9532 103.115 64.9692C102.986 64.5355 102.761 64.1981 102.44 63.9571C102.111 63.7161 101.709 63.5956 101.235 63.5956ZM113.815 60.993C114.337 60.993 114.746 61.0934 115.044 61.2942C115.164 61.3585 115.208 61.4669 115.176 61.6196L114.718 64.1017C114.71 64.2704 114.61 64.3186 114.417 64.2463C114.2 64.174 113.947 64.1378 113.658 64.1378C113.546 64.1378 113.389 64.1539 113.188 64.186C112.666 64.2262 112.224 64.415 111.863 64.7523C111.501 65.0977 111.32 65.5516 111.32 66.1139V72.03C111.32 72.1023 111.296 72.1666 111.248 72.2228C111.192 72.271 111.128 72.2951 111.055 72.2951H108.525C108.453 72.2951 108.388 72.271 108.332 72.2228C108.284 72.1666 108.26 72.1023 108.26 72.03V61.4027C108.26 61.3304 108.284 61.2701 108.332 61.2219C108.388 61.1737 108.453 61.1496 108.525 61.1496H111.055C111.128 61.1496 111.192 61.1737 111.248 61.2219C111.296 61.2701 111.32 61.3304 111.32 61.4027V62.2341C111.32 62.2742 111.332 62.3023 111.357 62.3184C111.389 62.3345 111.413 62.3264 111.429 62.2943C112.023 61.4268 112.819 60.993 113.815 60.993Z" fill="#252530"/>
<path id="Vector_6" d="M60.6293 83.4767C60.6293 83.5169 60.6172 83.549 60.5931 83.5731C60.561 83.6053 60.5249 83.6213 60.4847 83.6213H56.3759C56.3358 83.6213 56.3157 83.6414 56.3157 83.6816V85.9348C56.3157 85.9749 56.3358 85.995 56.3759 85.995H59.1352C59.1753 85.995 59.2115 86.0071 59.2436 86.0312C59.2677 86.0633 59.2798 86.0994 59.2798 86.1396V87.0553C59.2798 87.0955 59.2677 87.1317 59.2436 87.1638C59.2115 87.1879 59.1753 87.1999 59.1352 87.1999H56.3759C56.3358 87.1999 56.3157 87.22 56.3157 87.2602V89.5857C56.3157 89.6258 56.3358 89.6459 56.3759 89.6459H60.4847C60.5249 89.6459 60.561 89.662 60.5931 89.6941C60.6172 89.7182 60.6293 89.7503 60.6293 89.7905V90.7063C60.6293 90.7464 60.6172 90.7785 60.5931 90.8026C60.561 90.8348 60.5249 90.8508 60.4847 90.8508H55.0626C55.0224 90.8508 54.9903 90.8348 54.9662 90.8026C54.934 90.7785 54.918 90.7464 54.918 90.7063V82.561C54.918 82.5208 54.934 82.4887 54.9662 82.4646C54.9903 82.4325 55.0224 82.4164 55.0626 82.4164H60.4847C60.5249 82.4164 60.561 82.4325 60.5931 82.4646C60.6172 82.4887 60.6293 82.5208 60.6293 82.561V83.4767ZM64.8706 84.5973C65.5212 84.5973 66.0434 84.7901 66.437 85.1757C66.8226 85.5613 67.0153 86.0874 67.0153 86.7541V90.7063C67.0153 90.7464 66.9993 90.7785 66.9671 90.8026C66.9431 90.8348 66.9109 90.8508 66.8708 90.8508H65.7622C65.7221 90.8508 65.6859 90.8348 65.6538 90.8026C65.6297 90.7785 65.6176 90.7464 65.6176 90.7063V87.0433C65.6176 86.6738 65.5132 86.3726 65.3044 86.1396C65.0955 85.9147 64.8184 85.8022 64.473 85.8022C64.1276 85.8022 63.8464 85.9147 63.6295 86.1396C63.4207 86.3645 63.3162 86.6617 63.3162 87.0313V90.7063C63.3162 90.7464 63.3042 90.7785 63.2801 90.8026C63.248 90.8348 63.2118 90.8508 63.1717 90.8508H62.0631C62.023 90.8508 61.9908 90.8348 61.9667 90.8026C61.9346 90.7785 61.9185 90.7464 61.9185 90.7063V84.8383C61.9185 84.7981 61.9346 84.762 61.9667 84.7299C61.9908 84.7058 62.023 84.6937 62.0631 84.6937H63.1717C63.2118 84.6937 63.248 84.7058 63.2801 84.7299C63.3042 84.762 63.3162 84.7981 63.3162 84.8383V85.2239C63.3162 85.248 63.3243 85.264 63.3403 85.2721C63.3564 85.2801 63.3685 85.2721 63.3765 85.248C63.7058 84.8142 64.2039 84.5973 64.8706 84.5973ZM71.7386 85.6817C71.7386 85.7219 71.7226 85.754 71.6904 85.7781C71.6663 85.8103 71.6342 85.8263 71.594 85.8263H70.365C70.3249 85.8263 70.3048 85.8464 70.3048 85.8866V88.7904C70.3048 89.0957 70.369 89.3166 70.4976 89.4531C70.6341 89.5897 70.847 89.658 71.1362 89.658H71.4976C71.5378 89.658 71.5699 89.67 71.594 89.6941C71.6262 89.7263 71.6422 89.7624 71.6422 89.8026V90.7063C71.6422 90.7946 71.594 90.8468 71.4976 90.8629L70.8711 90.8749C70.2365 90.8749 69.7626 90.7665 69.4493 90.5496C69.136 90.3327 68.9753 89.9231 68.9673 89.3206V85.8866C68.9673 85.8464 68.9472 85.8263 68.9071 85.8263H68.2203C68.1801 85.8263 68.144 85.8103 68.1118 85.7781C68.0877 85.754 68.0757 85.7219 68.0757 85.6817V84.8383C68.0757 84.7981 68.0877 84.762 68.1118 84.7299C68.144 84.7058 68.1801 84.6937 68.2203 84.6937H68.9071C68.9472 84.6937 68.9673 84.6736 68.9673 84.6335V83.2237C68.9673 83.1835 68.9794 83.1474 69.0035 83.1153C69.0356 83.0912 69.0717 83.0791 69.1119 83.0791H70.1602C70.2003 83.0791 70.2325 83.0912 70.2566 83.1153C70.2887 83.1474 70.3048 83.1835 70.3048 83.2237V84.6335C70.3048 84.6736 70.3249 84.6937 70.365 84.6937H71.594C71.6342 84.6937 71.6663 84.7058 71.6904 84.7299C71.7226 84.762 71.7386 84.7981 71.7386 84.8383V85.6817ZM78.0524 87.0794C78.0845 87.2803 78.1006 87.5052 78.1006 87.7542L78.0885 88.1277C78.0885 88.2241 78.0403 88.2723 77.944 88.2723H74.1726C74.1324 88.2723 74.1123 88.2924 74.1123 88.3326C74.1364 88.5976 74.1726 88.7784 74.2208 88.8748C74.4135 89.4531 74.8835 89.7463 75.6305 89.7544C76.1767 89.7544 76.6105 89.5294 76.9318 89.0796C76.964 89.0314 77.0041 89.0073 77.0523 89.0073C77.0844 89.0073 77.1126 89.0194 77.1367 89.0435L77.8837 89.658C77.956 89.7142 77.9681 89.7785 77.9199 89.8508C77.6708 90.2042 77.3415 90.4773 76.9318 90.6701C76.5141 90.8629 76.0522 90.9593 75.5462 90.9593C74.9196 90.9593 74.3854 90.8187 73.9436 90.5376C73.5099 90.2564 73.1926 89.8628 72.9917 89.3567C72.807 88.923 72.7146 88.3205 72.7146 87.5494C72.7146 87.0835 72.7628 86.7059 72.8592 86.4167C73.0199 85.8544 73.3251 85.4086 73.7749 85.0793C74.2167 84.758 74.7509 84.5973 75.3775 84.5973C76.9599 84.5973 77.8516 85.4247 78.0524 87.0794ZM75.3775 85.8022C75.0803 85.8022 74.8312 85.8785 74.6304 86.0312C74.4376 86.1758 74.3011 86.3806 74.2208 86.6457C74.1726 86.7822 74.1404 86.959 74.1244 87.1758C74.1083 87.216 74.1244 87.2361 74.1726 87.2361H76.6185C76.6587 87.2361 76.6788 87.216 76.6788 87.1758C76.6627 86.975 76.6386 86.8224 76.6065 86.718C76.5342 86.4288 76.3936 86.2039 76.1848 86.0432C75.9679 85.8826 75.6988 85.8022 75.3775 85.8022ZM82.2455 84.6214C82.5026 84.6214 82.7275 84.6736 82.9203 84.7781C82.9845 84.8102 83.0086 84.8704 82.9926 84.9588L82.7877 86.0432C82.7797 86.1396 82.7235 86.1677 82.619 86.1276C82.4985 86.0874 82.358 86.0673 82.1973 86.0673C82.0929 86.0673 82.0126 86.0713 81.9563 86.0794C81.619 86.0954 81.3378 86.2119 81.1129 86.4288C80.888 86.6537 80.7755 86.9429 80.7755 87.2963V90.7063C80.7755 90.7464 80.7635 90.7785 80.7394 90.8026C80.7072 90.8348 80.6711 90.8508 80.6309 90.8508H79.5224C79.4822 90.8508 79.4501 90.8348 79.426 90.8026C79.3939 90.7785 79.3778 90.7464 79.3778 90.7063V84.8383C79.3778 84.7981 79.3939 84.762 79.426 84.7299C79.4501 84.7058 79.4822 84.6937 79.5224 84.6937H80.6309C80.6711 84.6937 80.7072 84.7058 80.7394 84.7299C80.7635 84.762 80.7755 84.7981 80.7755 84.8383V85.3805C80.7755 85.4126 80.7795 85.4287 80.7876 85.4287C80.8036 85.4367 80.8197 85.4287 80.8358 85.4046C81.1731 84.8825 81.6431 84.6214 82.2455 84.6214ZM89.1256 86.2842C89.2702 86.6939 89.3425 87.1959 89.3425 87.7904C89.3425 88.3607 89.2742 88.8507 89.1376 89.2604C88.9609 89.7905 88.6798 90.2042 88.2942 90.5014C87.9006 90.7986 87.4066 90.9472 86.8122 90.9472C86.2418 90.9472 85.784 90.7424 85.4385 90.3327C85.4225 90.3167 85.4064 90.3126 85.3903 90.3207C85.3743 90.3287 85.3662 90.3448 85.3662 90.3689V92.9835C85.3662 93.0237 85.3542 93.0558 85.3301 93.0799C85.298 93.1121 85.2618 93.1281 85.2217 93.1281H84.1131C84.073 93.1281 84.0408 93.1121 84.0167 93.0799C83.9846 93.0558 83.9685 93.0237 83.9685 92.9835V84.8383C83.9685 84.7981 83.9846 84.762 84.0167 84.7299C84.0408 84.7058 84.073 84.6937 84.1131 84.6937H85.2217C85.2618 84.6937 85.298 84.7058 85.3301 84.7299C85.3542 84.762 85.3662 84.7981 85.3662 84.8383V85.1998C85.3662 85.2239 85.3743 85.2399 85.3903 85.248C85.4064 85.256 85.4225 85.248 85.4385 85.2239C85.792 84.8062 86.2539 84.5973 86.8242 84.5973C87.3945 84.5973 87.8765 84.7459 88.2701 85.0431C88.6637 85.3404 88.9489 85.754 89.1256 86.2842ZM87.5592 89.2362C87.8002 88.8667 87.9207 88.3767 87.9207 87.7662C87.9207 87.1799 87.8243 86.718 87.6315 86.3806C87.4066 85.987 87.0652 85.7902 86.6073 85.7902C86.1896 85.7902 85.8763 85.983 85.6675 86.3685C85.4827 86.6818 85.3903 87.1477 85.3903 87.7662C85.3903 88.4008 85.4908 88.8828 85.6916 89.2122C85.9004 89.5656 86.2017 89.7423 86.5953 89.7423C87.021 89.7423 87.3423 89.5736 87.5592 89.2362ZM93.5597 84.6214C93.8167 84.6214 94.0417 84.6736 94.2344 84.7781C94.2987 84.8102 94.3228 84.8704 94.3067 84.9588L94.1019 86.0432C94.0939 86.1396 94.0376 86.1677 93.9332 86.1276C93.8127 86.0874 93.6721 86.0673 93.5115 86.0673C93.4071 86.0673 93.3267 86.0713 93.2705 86.0794C92.9331 86.0954 92.652 86.2119 92.4271 86.4288C92.2022 86.6537 92.0897 86.9429 92.0897 87.2963V90.7063C92.0897 90.7464 92.0776 90.7785 92.0535 90.8026C92.0214 90.8348 91.9853 90.8508 91.9451 90.8508H90.8366C90.7964 90.8508 90.7643 90.8348 90.7402 90.8026C90.708 90.7785 90.692 90.7464 90.692 90.7063V84.8383C90.692 84.7981 90.708 84.762 90.7402 84.7299C90.7643 84.7058 90.7964 84.6937 90.8366 84.6937H91.9451C91.9853 84.6937 92.0214 84.7058 92.0535 84.7299C92.0776 84.762 92.0897 84.7981 92.0897 84.8383V85.3805C92.0897 85.4126 92.0937 85.4287 92.1017 85.4287C92.1178 85.4367 92.1339 85.4287 92.1499 85.4046C92.4873 84.8825 92.9572 84.6214 93.5597 84.6214ZM96.0177 83.8503C95.7687 83.8503 95.5639 83.7699 95.4032 83.6093C95.2426 83.4486 95.1622 83.2438 95.1622 82.9948C95.1622 82.7458 95.2426 82.5409 95.4032 82.3803C95.5639 82.2196 95.7687 82.1393 96.0177 82.1393C96.2667 82.1393 96.4716 82.2196 96.6322 82.3803C96.7929 82.5409 96.8732 82.7458 96.8732 82.9948C96.8732 83.2438 96.7929 83.4486 96.6322 83.6093C96.4716 83.7699 96.2667 83.8503 96.0177 83.8503ZM95.4394 90.8508C95.3992 90.8508 95.3671 90.8348 95.343 90.8026C95.3108 90.7785 95.2948 90.7464 95.2948 90.7063V84.8263C95.2948 84.7861 95.3108 84.754 95.343 84.7299C95.3671 84.6977 95.3992 84.6817 95.4394 84.6817H96.5479C96.588 84.6817 96.6242 84.6977 96.6563 84.7299C96.6804 84.754 96.6925 84.7861 96.6925 84.8263V90.7063C96.6925 90.7464 96.6804 90.7785 96.6563 90.8026C96.6242 90.8348 96.588 90.8508 96.5479 90.8508H95.4394ZM100.584 90.9231C100.078 90.9231 99.6325 90.8468 99.2469 90.6942C98.8694 90.5496 98.5762 90.3448 98.3673 90.0797C98.1585 89.8226 98.054 89.5335 98.054 89.2122V89.1037C98.054 89.0635 98.0661 89.0274 98.0902 88.9953C98.1223 88.9712 98.1585 88.9591 98.1986 88.9591H99.259C99.2991 88.9591 99.3353 88.9712 99.3674 88.9953C99.3915 89.0274 99.4035 89.0635 99.4035 89.1037V89.1278C99.4035 89.3286 99.512 89.5054 99.7289 89.658C99.9538 89.8026 100.235 89.8749 100.572 89.8749C100.894 89.8749 101.155 89.8106 101.356 89.6821C101.556 89.5455 101.657 89.3768 101.657 89.176C101.657 88.9913 101.572 88.8507 101.404 88.7543C101.243 88.6659 100.978 88.5695 100.608 88.4651L100.151 88.3205C99.7409 88.2 99.3955 88.0715 99.1144 87.9349C98.8332 87.7984 98.5962 87.6096 98.4035 87.3686C98.2107 87.1357 98.1143 86.8345 98.1143 86.4649C98.1143 85.9026 98.3352 85.4568 98.777 85.1275C99.2188 84.7901 99.8012 84.6214 100.524 84.6214C101.014 84.6214 101.444 84.6977 101.813 84.8503C102.183 85.011 102.468 85.2279 102.669 85.501C102.87 85.7822 102.97 86.0994 102.97 86.4529C102.97 86.4931 102.958 86.5292 102.934 86.5613C102.902 86.5854 102.866 86.5975 102.826 86.5975H101.801C101.761 86.5975 101.725 86.5854 101.693 86.5613C101.669 86.5292 101.657 86.4931 101.657 86.4529C101.657 86.244 101.556 86.0713 101.356 85.9348C101.147 85.7902 100.866 85.7179 100.512 85.7179C100.199 85.7179 99.9458 85.7741 99.753 85.8866C99.5521 86.0071 99.4517 86.1717 99.4517 86.3806C99.4517 86.5734 99.5441 86.718 99.7289 86.8144C99.9217 86.9188 100.239 87.0313 100.681 87.1517L100.946 87.224C101.372 87.3526 101.729 87.4811 102.018 87.6096C102.307 87.7462 102.552 87.9309 102.753 88.1639C102.954 88.4049 103.054 88.7141 103.054 89.0917C103.054 89.662 102.83 90.1078 102.38 90.4291C101.93 90.7585 101.331 90.9231 100.584 90.9231ZM109.428 87.0794C109.461 87.2803 109.477 87.5052 109.477 87.7542L109.465 88.1277C109.465 88.2241 109.416 88.2723 109.32 88.2723H105.549C105.508 88.2723 105.488 88.2924 105.488 88.3326C105.512 88.5976 105.549 88.7784 105.597 88.8748C105.79 89.4531 106.26 89.7463 107.007 89.7544C107.553 89.7544 107.987 89.5294 108.308 89.0796C108.34 89.0314 108.38 89.0073 108.428 89.0073C108.461 89.0073 108.489 89.0194 108.513 89.0435L109.26 89.658C109.332 89.7142 109.344 89.7785 109.296 89.8508C109.047 90.2042 108.714 90.4773 108.296 90.6701C107.886 90.8629 107.428 90.9593 106.922 90.9593C106.296 90.9593 105.761 90.8187 105.32 90.5376C104.886 90.2564 104.569 89.8628 104.368 89.3567C104.183 88.923 104.091 88.3205 104.091 87.5494C104.091 87.0835 104.139 86.7059 104.235 86.4167C104.396 85.8544 104.697 85.4086 105.139 85.0793C105.589 84.758 106.127 84.5973 106.754 84.5973C108.336 84.5973 109.228 85.4247 109.428 87.0794ZM106.754 85.8022C106.456 85.8022 106.207 85.8785 106.006 86.0312C105.814 86.1758 105.677 86.3806 105.597 86.6457C105.549 86.7822 105.516 86.959 105.5 87.1758C105.484 87.216 105.5 87.2361 105.549 87.2361H107.995C108.035 87.2361 108.055 87.216 108.055 87.1758C108.039 86.975 108.015 86.8224 107.983 86.718C107.91 86.4288 107.766 86.2039 107.549 86.0432C107.34 85.8826 107.075 85.8022 106.754 85.8022Z" fill="white"/>
<path id="Vector_7" d="M62.8346 107.937C62.192 107.937 61.6297 107.832 61.1477 107.623C60.6658 107.422 60.2963 107.129 60.0392 106.744C59.7741 106.366 59.6416 105.924 59.6416 105.418V105.153C59.6416 105.113 59.6577 105.081 59.6898 105.057C59.7139 105.025 59.746 105.009 59.7862 105.009H61.1598C61.2 105.009 61.2361 105.025 61.2682 105.057C61.2923 105.081 61.3044 105.113 61.3044 105.153V105.334C61.3044 105.655 61.453 105.924 61.7502 106.141C62.0474 106.366 62.4491 106.479 62.9551 106.479C63.3809 106.479 63.6982 106.39 63.907 106.214C64.1159 106.029 64.2203 105.804 64.2203 105.539C64.2203 105.346 64.156 105.185 64.0275 105.057C63.899 104.92 63.7223 104.804 63.4973 104.707C63.2805 104.603 62.931 104.462 62.4491 104.286C61.9109 104.101 61.453 103.912 61.0755 103.719C60.7059 103.527 60.3967 103.261 60.1477 102.924C59.8906 102.595 59.7621 102.185 59.7621 101.695C59.7621 101.213 59.8866 100.791 60.1356 100.43C60.3846 100.068 60.73 99.7913 61.1718 99.5985C61.6137 99.4057 62.1237 99.3093 62.7021 99.3093C63.3126 99.3093 63.8548 99.4178 64.3287 99.6347C64.8107 99.8515 65.1882 100.157 65.4614 100.55C65.7264 100.936 65.859 101.386 65.859 101.9V102.081C65.859 102.121 65.8469 102.153 65.8228 102.177C65.7907 102.209 65.7546 102.225 65.7144 102.225H64.3287C64.2886 102.225 64.2564 102.209 64.2323 102.177C64.2002 102.153 64.1841 102.121 64.1841 102.081V101.984C64.1841 101.647 64.0476 101.358 63.7745 101.117C63.4933 100.884 63.1118 100.767 62.6298 100.767C62.2523 100.767 61.955 100.848 61.7382 101.008C61.5293 101.169 61.4249 101.39 61.4249 101.671C61.4249 101.872 61.4891 102.04 61.6177 102.177C61.7382 102.314 61.9229 102.434 62.1719 102.539C62.4129 102.651 62.7905 102.8 63.3046 102.984C63.8749 103.193 64.3207 103.378 64.642 103.539C64.9714 103.699 65.2686 103.936 65.5337 104.249C65.7907 104.571 65.9192 104.984 65.9192 105.491C65.9192 106.246 65.6421 106.84 65.0878 107.274C64.5336 107.716 63.7825 107.937 62.8346 107.937ZM70.1726 107.937C69.5541 107.937 69.0118 107.816 68.5459 107.575C68.072 107.334 67.7025 106.997 67.4374 106.563C67.1804 106.121 67.0518 105.615 67.0518 105.045V99.5503C67.0518 99.5102 67.0639 99.478 67.088 99.4539C67.1201 99.4218 67.1563 99.4057 67.1964 99.4057H68.6062C68.6464 99.4057 68.6785 99.4218 68.7026 99.4539C68.7347 99.478 68.7508 99.5102 68.7508 99.5503V105.057C68.7508 105.483 68.8833 105.824 69.1484 106.081C69.4055 106.346 69.7468 106.479 70.1726 106.479C70.5983 106.479 70.9437 106.346 71.2088 106.081C71.4659 105.824 71.5944 105.483 71.5944 105.057V99.5503C71.5944 99.5102 71.6105 99.478 71.6426 99.4539C71.6667 99.4218 71.6988 99.4057 71.739 99.4057H73.1487C73.1889 99.4057 73.225 99.4218 73.2572 99.4539C73.2813 99.478 73.2933 99.5102 73.2933 99.5503V105.045C73.2933 105.615 73.1648 106.121 72.9077 106.563C72.6427 106.997 72.2772 107.334 71.8113 107.575C71.3373 107.816 70.7911 107.937 70.1726 107.937ZM80.1132 99.5021C80.1533 99.4379 80.2096 99.4057 80.2818 99.4057H81.6916C81.7318 99.4057 81.7679 99.4218 81.8 99.4539C81.8241 99.478 81.8362 99.5102 81.8362 99.5503V107.696C81.8362 107.736 81.8241 107.768 81.8 107.792C81.7679 107.824 81.7318 107.84 81.6916 107.84H80.2818C80.2417 107.84 80.2096 107.824 80.1855 107.792C80.1533 107.768 80.1373 107.736 80.1373 107.696V102.382C80.1373 102.35 80.1292 102.334 80.1132 102.334C80.0971 102.334 80.081 102.346 80.065 102.37L78.7878 104.37C78.7476 104.434 78.6914 104.466 78.6191 104.466H77.9082C77.8359 104.466 77.7796 104.434 77.7395 104.37L76.4623 102.37C76.4462 102.346 76.4301 102.334 76.4141 102.334C76.398 102.342 76.39 102.362 76.39 102.394V107.696C76.39 107.736 76.3739 107.768 76.3418 107.792C76.3177 107.824 76.2855 107.84 76.2454 107.84H74.8356C74.7955 107.84 74.7593 107.824 74.7272 107.792C74.7031 107.768 74.691 107.736 74.691 107.696V99.5503C74.691 99.5102 74.7031 99.478 74.7272 99.4539C74.7593 99.4218 74.7955 99.4057 74.8356 99.4057H76.2454C76.3177 99.4057 76.3739 99.4379 76.4141 99.5021L78.2214 102.31C78.2455 102.358 78.2696 102.358 78.2937 102.31L80.1132 99.5021ZM88.7283 99.5021C88.7685 99.4379 88.8247 99.4057 88.897 99.4057H90.3068C90.3469 99.4057 90.3791 99.4218 90.4032 99.4539C90.4353 99.478 90.4514 99.5102 90.4514 99.5503V107.696C90.4514 107.736 90.4353 107.768 90.4032 107.792C90.3791 107.824 90.3469 107.84 90.3068 107.84H88.897C88.8568 107.84 88.8207 107.824 88.7886 107.792C88.7645 107.768 88.7524 107.736 88.7524 107.696V102.382C88.7524 102.35 88.7444 102.334 88.7283 102.334C88.7123 102.334 88.6962 102.346 88.6801 102.37L87.4029 104.37C87.3627 104.434 87.3065 104.466 87.2342 104.466H86.5233C86.451 104.466 86.3948 104.434 86.3546 104.37L85.0774 102.37C85.0614 102.346 85.0453 102.334 85.0292 102.334C85.0132 102.342 85.0051 102.362 85.0051 102.394V107.696C85.0051 107.736 84.9931 107.768 84.969 107.792C84.9368 107.824 84.9007 107.84 84.8605 107.84H83.4508C83.4106 107.84 83.3785 107.824 83.3544 107.792C83.3223 107.768 83.3062 107.736 83.3062 107.696V99.5503C83.3062 99.5102 83.3223 99.478 83.3544 99.4539C83.3785 99.4218 83.4106 99.4057 83.4508 99.4057H84.8605C84.9328 99.4057 84.9891 99.4379 85.0292 99.5021L86.8366 102.31C86.8607 102.358 86.8848 102.358 86.9089 102.31L88.7283 99.5021ZM97.7773 100.719C97.7773 100.759 97.7652 100.791 97.7411 100.815C97.709 100.848 97.6728 100.864 97.6327 100.864H93.6805C93.6404 100.864 93.6203 100.884 93.6203 100.924V102.792C93.6203 102.832 93.6404 102.852 93.6805 102.852H96.2711C96.3113 102.852 96.3434 102.864 96.3675 102.888C96.3996 102.92 96.4157 102.956 96.4157 102.996V104.165C96.4157 104.205 96.3996 104.241 96.3675 104.274C96.3434 104.298 96.3113 104.31 96.2711 104.31H93.6805C93.6404 104.31 93.6203 104.33 93.6203 104.37V106.322C93.6203 106.362 93.6404 106.382 93.6805 106.382H97.6327C97.6728 106.382 97.709 106.394 97.7411 106.418C97.7652 106.45 97.7773 106.487 97.7773 106.527V107.696C97.7773 107.736 97.7652 107.768 97.7411 107.792C97.709 107.824 97.6728 107.84 97.6327 107.84H92.0659C92.0258 107.84 91.9896 107.824 91.9575 107.792C91.9334 107.768 91.9214 107.736 91.9214 107.696V99.5503C91.9214 99.5102 91.9334 99.478 91.9575 99.4539C91.9896 99.4218 92.0258 99.4057 92.0659 99.4057H97.6327C97.6728 99.4057 97.709 99.4218 97.7411 99.4539C97.7652 99.478 97.7773 99.5102 97.7773 99.5503V100.719ZM103.585 107.84C103.505 107.84 103.448 107.804 103.416 107.732L101.91 104.394C101.894 104.362 101.87 104.346 101.838 104.346H100.717C100.677 104.346 100.657 104.366 100.657 104.406V107.696C100.657 107.736 100.641 107.768 100.609 107.792C100.585 107.824 100.553 107.84 100.512 107.84H99.1027C99.0625 107.84 99.0264 107.824 98.9942 107.792C98.9701 107.768 98.9581 107.736 98.9581 107.696V99.5503C98.9581 99.5102 98.9701 99.478 98.9942 99.4539C99.0264 99.4218 99.0625 99.4057 99.1027 99.4057H102.549C103.063 99.4057 103.513 99.5102 103.898 99.719C104.292 99.9279 104.593 100.225 104.802 100.611C105.019 100.996 105.127 101.442 105.127 101.948C105.127 102.494 104.991 102.96 104.718 103.346C104.444 103.739 104.063 104.017 103.573 104.177C103.533 104.193 103.521 104.221 103.537 104.262L105.175 107.671C105.192 107.704 105.2 107.728 105.2 107.744C105.2 107.808 105.155 107.84 105.067 107.84H103.585ZM100.717 100.864C100.677 100.864 100.657 100.884 100.657 100.924V102.984C100.657 103.024 100.677 103.045 100.717 103.045H102.296C102.633 103.045 102.906 102.944 103.115 102.743C103.332 102.543 103.44 102.281 103.44 101.96C103.44 101.639 103.332 101.374 103.115 101.165C102.906 100.964 102.633 100.864 102.296 100.864H100.717ZM71.8595 117.636C71.8434 117.652 71.8394 117.668 71.8474 117.684C71.8555 117.7 71.8715 117.708 71.8956 117.708H75.1609C75.2011 117.708 75.2373 117.72 75.2694 117.745C75.2935 117.777 75.3055 117.813 75.3055 117.853V119.022C75.3055 119.062 75.2935 119.094 75.2694 119.118C75.2373 119.15 75.2011 119.166 75.1609 119.166H69.7388C69.6986 119.166 69.6625 119.15 69.6304 119.118C69.6063 119.094 69.5942 119.062 69.5942 119.022V117.913C69.5942 117.841 69.6183 117.781 69.6665 117.733C70.0601 117.347 70.4618 116.929 70.8714 116.479C71.2811 116.022 71.5382 115.736 71.6426 115.624C71.8675 115.359 72.0964 115.106 72.3294 114.865C73.0604 114.054 73.4259 113.451 73.4259 113.057C73.4259 112.776 73.3255 112.543 73.1246 112.359C72.9238 112.182 72.6627 112.094 72.3414 112.094C72.0201 112.094 71.7591 112.182 71.5582 112.359C71.3574 112.543 71.257 112.784 71.257 113.082V113.383C71.257 113.423 71.2409 113.459 71.2088 113.491C71.1847 113.515 71.1526 113.527 71.1124 113.527H69.6906C69.6505 113.527 69.6183 113.515 69.5942 113.491C69.5621 113.459 69.546 113.423 69.546 113.383V112.816C69.5701 112.383 69.7067 111.997 69.9557 111.66C70.2047 111.33 70.5341 111.077 70.9437 110.901C71.3614 110.724 71.8273 110.636 72.3414 110.636C72.9118 110.636 73.4098 110.74 73.8355 110.949C74.2532 111.166 74.5786 111.455 74.8115 111.816C75.0364 112.178 75.1489 112.579 75.1489 113.021C75.1489 113.359 75.0646 113.704 74.8959 114.058C74.7272 114.411 74.4741 114.793 74.1368 115.202C73.8877 115.515 73.6186 115.825 73.3295 116.13C73.0403 116.435 72.6105 116.877 72.0402 117.455L71.8595 117.636ZM79.2215 119.299C78.3379 119.299 77.6391 119.05 77.125 118.552C76.6109 118.062 76.3538 117.391 76.3538 116.54V113.359C76.3538 112.523 76.6109 111.861 77.125 111.371C77.6391 110.881 78.3379 110.636 79.2215 110.636C80.1051 110.636 80.808 110.881 81.3301 111.371C81.8442 111.861 82.1013 112.523 82.1013 113.359V116.54C82.1013 117.391 81.8442 118.062 81.3301 118.552C80.808 119.05 80.1051 119.299 79.2215 119.299ZM79.2215 117.841C79.583 117.841 79.8722 117.729 80.0891 117.504C80.2979 117.287 80.4023 116.994 80.4023 116.624V113.31C80.4023 112.941 80.2979 112.648 80.0891 112.431C79.8722 112.206 79.583 112.094 79.2215 112.094C78.8681 112.094 78.5869 112.206 78.3781 112.431C78.1612 112.648 78.0527 112.941 78.0527 113.31V116.624C78.0527 116.994 78.1612 117.287 78.3781 117.504C78.5869 117.729 78.8681 117.841 79.2215 117.841ZM85.475 117.636C85.459 117.652 85.455 117.668 85.463 117.684C85.471 117.7 85.4871 117.708 85.5112 117.708H88.7765C88.8167 117.708 88.8528 117.72 88.885 117.745C88.9091 117.777 88.9211 117.813 88.9211 117.853V119.022C88.9211 119.062 88.9091 119.094 88.885 119.118C88.8528 119.15 88.8167 119.166 88.7765 119.166H83.3544C83.3142 119.166 83.2821 119.15 83.258 119.118C83.2259 119.094 83.2098 119.062 83.2098 119.022V117.913C83.2098 117.841 83.2339 117.781 83.2821 117.733C83.6757 117.347 84.0773 116.929 84.487 116.479C84.8967 116.022 85.1537 115.736 85.2582 115.624C85.4831 115.359 85.712 115.106 85.945 114.865C86.6759 114.054 87.0414 113.451 87.0414 113.057C87.0414 112.776 86.941 112.543 86.7402 112.359C86.5394 112.182 86.2783 112.094 85.957 112.094C85.6357 112.094 85.3746 112.182 85.1738 112.359C84.973 112.543 84.8726 112.784 84.8726 113.082V113.383C84.8726 113.423 84.8605 113.459 84.8364 113.491C84.8043 113.515 84.7682 113.527 84.728 113.527H83.3062C83.266 113.527 83.2339 113.515 83.2098 113.491C83.1777 113.459 83.1616 113.423 83.1616 113.383V112.816C83.1857 112.383 83.3223 111.997 83.5713 111.66C83.8203 111.33 84.1537 111.077 84.5714 110.901C84.981 110.724 85.4429 110.636 85.957 110.636C86.5273 110.636 87.0254 110.74 87.4511 110.949C87.8688 111.166 88.1941 111.455 88.4271 111.816C88.652 112.178 88.7645 112.579 88.7645 113.021C88.7645 113.359 88.6801 113.704 88.5114 114.058C88.3428 114.411 88.0897 114.793 87.7523 115.202C87.5033 115.515 87.2342 115.825 86.945 116.13C86.6559 116.435 86.2261 116.877 85.6558 117.455L85.475 117.636ZM94.9939 115.142C95.1546 115.511 95.2349 115.937 95.2349 116.419C95.2349 116.853 95.1626 117.255 95.018 117.624C94.8252 118.138 94.5039 118.54 94.0541 118.829C93.5962 119.118 93.058 119.263 92.4395 119.263C91.829 119.263 91.2948 119.11 90.8369 118.805C90.371 118.5 90.0377 118.086 89.8368 117.564C89.7244 117.251 89.6601 116.913 89.6441 116.552C89.6441 116.455 89.6923 116.407 89.7886 116.407H91.2105C91.3068 116.407 91.355 116.455 91.355 116.552C91.3872 116.817 91.4314 117.014 91.4876 117.142C91.5599 117.351 91.6804 117.512 91.8491 117.624C92.0097 117.745 92.2025 117.805 92.4274 117.805C92.8773 117.805 93.1865 117.608 93.3552 117.214C93.4677 116.973 93.5239 116.692 93.5239 116.371C93.5239 115.993 93.4636 115.684 93.3432 115.443C93.1584 115.066 92.8491 114.877 92.4154 114.877C92.327 114.877 92.2346 114.901 92.1382 114.949C92.0418 115.005 91.9254 115.082 91.7888 115.178C91.7567 115.202 91.7246 115.214 91.6924 115.214C91.6442 115.214 91.6081 115.19 91.584 115.142L90.8731 114.142C90.857 114.118 90.849 114.09 90.849 114.058C90.849 114.009 90.865 113.969 90.8972 113.937L92.813 112.262C92.8291 112.246 92.8371 112.23 92.8371 112.214C92.8291 112.198 92.813 112.19 92.7889 112.19H89.9573C89.9172 112.19 89.885 112.174 89.8609 112.142C89.8288 112.118 89.8127 112.085 89.8127 112.045V110.877C89.8127 110.836 89.8288 110.804 89.8609 110.78C89.885 110.748 89.9172 110.732 89.9573 110.732H94.9818C95.022 110.732 95.0582 110.748 95.0903 110.78C95.1144 110.804 95.1264 110.836 95.1264 110.877V112.202C95.1264 112.266 95.0983 112.326 95.0421 112.383L93.4637 113.829C93.4476 113.845 93.4436 113.861 93.4516 113.877C93.4516 113.893 93.4677 113.901 93.4998 113.901C94.1987 114.037 94.6967 114.451 94.9939 115.142Z" fill="#252530"/>
</g>
</g>
</g>
</svg>
