<svg width="138" height="131" viewBox="0 0 138 131" fill="none" xmlns="http://www.w3.org/2000/svg">
<circle cx="71" cy="65.5" r="65.5" fill="#F5F8FF"/>
<g opacity="0.5">
<path d="M20.1819 20.4711C20.1819 19.2245 21.1925 18.2139 22.4392 18.2139H115.694C116.941 18.2139 117.951 19.2245 117.951 20.4711V84.5204C117.951 85.767 116.941 86.7776 115.694 86.7776H22.4392C21.1925 86.7776 20.1819 85.767 20.1819 84.5203V20.4711Z" fill="white"/>
<path d="M20.1819 20.6448C20.1819 19.3022 21.1902 18.2139 22.434 18.2139H115.444C116.688 18.2139 117.696 19.3022 117.696 20.6448V26.641H20.1819V20.6448Z" fill="#000C36"/>
<path d="M29.8167 22.4257C29.8167 23.4152 29.0004 24.2315 28.0109 24.2315C27.0214 24.2315 26.2051 23.4152 26.2051 22.4257C26.2051 21.4362 27.0214 20.6199 28.0109 20.6199C29.0004 20.6199 29.8167 21.4362 29.8167 22.4257Z" fill="#F66058"/>
<path d="M37.0396 22.4257C37.0396 23.4152 36.2233 24.2315 35.2338 24.2315C34.2443 24.2315 33.428 23.4152 33.428 22.4257C33.428 21.4362 34.2443 20.6199 35.2338 20.6199C36.248 20.6199 37.0396 21.4362 37.0396 22.4257Z" fill="#F9BD2E"/>
<path d="M44.2574 22.4255C44.2574 23.4149 43.4411 24.2313 42.4516 24.2313C41.4621 24.2313 40.6458 23.4149 40.6458 22.4255C40.6458 21.436 41.4621 20.6196 42.4516 20.6196C43.4411 20.6196 44.2574 21.436 44.2574 22.4255Z" fill="#3CC840"/>
<path d="M20.1819 26.2107H117.951V40.4317H20.1819V26.2107Z" fill="#EDF1F6"/>
<path d="M29.0735 46.6582H109.067V79.5443H29.0735V46.6582Z" fill="#EDF1F6"/>
<path fill-rule="evenodd" clip-rule="evenodd" d="M30.853 33.0667C30.853 31.7369 31.8879 30.6589 33.1645 30.6589H104.69C105.966 30.6589 107.001 31.7369 107.001 33.0667C107.001 34.3965 105.966 35.4745 104.69 35.4745L33.1645 35.4745C31.8879 35.4745 30.853 34.3965 30.853 33.0667Z" fill="white"/>
</g>
<g filter="url(#filter0_d_337_6719)">
<path d="M14.0234 32.4237C14.0234 31.0254 15.157 29.8918 16.5553 29.8918H121.152C122.551 29.8918 123.684 31.0254 123.684 32.4237V104.263C123.684 105.661 122.551 106.795 121.152 106.795H16.5553C15.157 106.795 14.0234 105.661 14.0234 104.263V32.4237Z" fill="white"/>
</g>
<path d="M14.0234 32.6184C14.0234 31.1126 15.1544 29.8918 16.5494 29.8918H120.872C122.267 29.8918 123.398 31.1126 123.398 32.6184V39.344H14.0234V32.6184Z" fill="#000C36"/>
<path d="M24.8226 34.6177C24.8226 35.7276 23.907 36.6432 22.7972 36.6432C21.6873 36.6432 20.7717 35.7276 20.7717 34.6177C20.7717 33.5079 21.6873 32.5923 22.7972 32.5923C23.907 32.5923 24.8226 33.5079 24.8226 34.6177Z" fill="#F66058"/>
<path d="M32.9298 34.6177C32.9298 35.7276 32.0142 36.6432 30.9044 36.6432C29.7945 36.6432 28.8789 35.7276 28.8789 34.6177C28.8789 33.5079 29.7945 32.5923 30.9044 32.5923C32.042 32.5923 32.9298 33.5079 32.9298 34.6177Z" fill="#F9BD2E"/>
<path d="M41.0341 34.6177C41.0341 35.7276 40.1185 36.6432 39.0086 36.6432C37.8988 36.6432 36.9832 35.7276 36.9832 34.6177C36.9832 33.5079 37.8988 32.5923 39.0086 32.5923C40.1185 32.5923 41.0341 33.5079 41.0341 34.6177Z" fill="#3CC840"/>
<path d="M14.0232 38.863H123.684V54.8137H14.0232V38.863Z" fill="#EDF1F6"/>
<path d="M74.1526 66.0195C74.1526 63.8104 75.9434 62.0195 78.1526 62.0195H109.383C111.592 62.0195 113.383 63.8104 113.383 66.0195V94.4473C113.383 96.6565 111.592 98.4473 109.383 98.4473H78.1526C75.9434 98.4473 74.1526 96.6565 74.1526 94.4473V66.0195Z" fill="#E7EEFF"/>
<path fill-rule="evenodd" clip-rule="evenodd" d="M25.9841 46.5497C25.9841 45.0582 27.1449 43.8491 28.5767 43.8491H108.801C110.233 43.8491 111.394 45.0582 111.394 46.5497C111.394 48.0412 110.233 49.2503 108.801 49.2503L28.5767 49.2503C27.1449 49.2503 25.9841 48.0412 25.9841 46.5497Z" fill="white"/>
<g filter="url(#filter1_d_337_6719)">
<path d="M94.4546 61.1976C94.4546 59.3299 95.9656 57.8159 97.8293 57.8159H128.878C130.742 57.8159 132.253 59.3299 132.253 61.1976V71.948C132.253 73.8153 130.742 75.3293 128.878 75.3293H97.8293C95.9656 75.3293 94.4546 73.8153 94.4546 71.948V61.1976Z" fill="white"/>
</g>
<path fill-rule="evenodd" clip-rule="evenodd" d="M113.016 66.2702C113.016 65.5228 113.621 64.9172 114.366 64.9172H121.791C122.537 64.9172 123.141 65.5228 123.141 66.2702C123.141 67.0171 122.537 67.6227 121.791 67.6227H114.366C113.621 67.6227 113.016 67.0171 113.016 66.2702Z" fill="#7879F1"/>
<path fill-rule="evenodd" clip-rule="evenodd" d="M105.601 70.3272C108.024 70.3272 109.988 68.5108 109.988 66.2697C109.988 64.0285 108.024 62.2117 105.601 62.2117C103.178 62.2117 101.213 64.0285 101.213 66.2697C101.213 67.5416 101.846 68.6768 102.836 69.4209L103.002 70.6695C103.034 70.909 103.299 71.0384 103.507 70.9168L104.671 70.236C104.971 70.296 105.282 70.3272 105.601 70.3272Z" fill="#7879F1"/>
<path d="M102.867 98.6436C102.867 95.8268 105.146 93.5435 107.957 93.5435H126.499C129.31 93.5435 131.589 95.8268 131.589 98.6436V107.31C131.589 110.127 129.31 112.41 126.499 112.41H107.957C105.146 112.41 102.867 110.127 102.867 107.31V98.6436Z" fill="#3D7FFC"/>
<path fill-rule="evenodd" clip-rule="evenodd" d="M117.405 103.379C117.405 102.574 118.056 101.922 118.859 101.922H123.948C124.752 101.922 125.403 102.574 125.403 103.379C125.403 104.184 124.752 104.836 123.948 104.836H118.859C118.056 104.836 117.405 104.184 117.405 103.379Z" fill="white"/>
<path d="M113.912 104.531C113.912 103.602 113.355 102.99 112.472 102.61L111.785 102.325L111.828 100.637C112.232 100.69 112.733 100.943 113.104 101.344L113.78 100.3C113.344 99.7932 112.603 99.4976 111.948 99.4449L111.959 98.854H111.174L111.152 99.4236C110.563 99.4767 109.996 99.656 109.625 99.9725C109.221 100.31 108.905 100.806 108.905 101.503C108.905 102.368 109.429 102.832 109.669 103.011C109.908 103.201 110.236 103.359 110.65 103.528L111.021 103.676L110.988 105.438C110.519 105.428 109.734 105.058 109.418 104.573L108.611 105.628C109.156 106.293 110.05 106.673 110.868 106.704L110.846 107.263H111.632L111.654 106.683C112.068 106.651 112.69 106.451 113.072 106.156C113.497 105.829 113.912 105.28 113.912 104.531ZM111.141 100.627L111.108 102.093L110.988 102.04C110.715 101.914 110.432 101.724 110.432 101.333C110.432 100.922 110.727 100.658 111.141 100.627ZM112.406 104.731C112.406 105.142 112.013 105.428 111.675 105.459L111.708 103.887L111.883 103.971C112.21 104.13 112.406 104.33 112.406 104.731Z" fill="white"/>
<path fill-rule="evenodd" clip-rule="evenodd" d="M26.511 65.1716C26.511 63.8175 27.8333 62.7197 29.4644 62.7197H60.6859C62.3171 62.7197 63.6393 63.8175 63.6393 65.1716C63.6393 66.5257 62.3171 67.6235 60.6859 67.6235H29.4644C27.8333 67.6235 26.511 66.5257 26.511 65.1716Z" fill="#E7EEFF"/>
<path fill-rule="evenodd" clip-rule="evenodd" d="M26.511 71.1264C26.511 70.3526 27.2996 69.7253 28.2723 69.7253H55.5732C56.5459 69.7253 57.3345 70.3526 57.3345 71.1264C57.3345 71.9002 56.5459 72.5275 55.5732 72.5275H28.2723C27.2996 72.5275 26.511 71.9002 26.511 71.1264Z" fill="#E7EEFF"/>
<path fill-rule="evenodd" clip-rule="evenodd" d="M25.8088 77.0806C25.8088 76.5002 26.5407 76.0298 27.4434 76.0298H43.7892C44.692 76.0298 45.4238 76.5002 45.4238 77.0806C45.4238 77.6609 44.692 78.1314 43.7892 78.1314H27.4434C26.5407 78.1314 25.8088 77.6609 25.8088 77.0806Z" fill="#E7EEFF"/>
<path fill-rule="evenodd" clip-rule="evenodd" d="M46.8254 77.0806C46.8254 76.5002 47.2959 76.0298 47.8762 76.0298H53.4805C54.0609 76.0298 54.5313 76.5002 54.5313 77.0806C54.5313 77.6609 54.0609 78.1314 53.4805 78.1314H47.8762C47.2959 78.1314 46.8254 77.6609 46.8254 77.0806Z" fill="#E7EEFF"/>
<g filter="url(#filter2_d_337_6719)">
<path d="M27.9094 87.9055C27.9094 86.3764 29.1467 85.1367 30.6728 85.1367H64.1109C65.6373 85.1367 66.8746 86.3764 66.8746 87.9055V112.491C66.8746 114.02 65.6373 115.26 64.1109 115.26H30.6728C29.1467 115.26 27.9094 114.02 27.9094 112.491V87.9055Z" fill="white"/>
</g>
<path d="M30.675 89.8871C30.675 88.3581 31.9123 87.1184 33.4384 87.1184H61.3384C62.8644 87.1184 64.1017 88.3581 64.1017 89.8871V106.149C64.1017 107.678 62.8644 108.918 61.3384 108.918H33.4384C31.9123 108.918 30.675 107.678 30.675 106.149V89.8871Z" fill="#0AC98A"/>
<path fill-rule="evenodd" clip-rule="evenodd" d="M59.6083 107.085C60.4189 107.085 60.8927 106.171 60.4256 105.509L53.447 95.6102C53.0487 95.0451 52.2108 95.0451 51.8124 95.6101L46.7435 102.8C46.3873 103.305 45.6626 103.369 45.223 102.934L42.1577 99.9027C41.7681 99.5174 41.1409 99.5174 40.7513 99.9027L35.2195 105.374C34.5842 106.002 35.0291 107.085 35.9227 107.085H43.7226H49.4195H59.6083Z" fill="white"/>
<path d="M40.1682 93.0643C40.1682 94.5964 38.9286 95.8388 37.3992 95.8388C35.8698 95.8388 34.6301 94.5964 34.6301 93.0643C34.6301 91.5319 35.8698 90.2896 37.3992 90.2896C38.9286 90.2896 40.1682 91.5319 40.1682 93.0643Z" fill="white"/>
<path d="M6.18579 57.2888C6.18579 55.6455 7.51551 54.3132 9.15555 54.3132H46.5763C48.2167 54.3132 49.5464 55.6455 49.5464 57.2888V66.7491C49.5464 68.3927 48.2167 69.725 46.5763 69.725H9.15555C7.51551 69.725 6.18579 68.3927 6.18579 66.7491V57.2888Z" fill="#FECE4D"/>
<path d="M16.7073 61.2977H15.3556V61.2951C15.2805 61.294 15.208 61.2716 15.147 61.2308C15.0864 61.1896 15.0405 61.1321 15.0164 61.0659C15.012 61.0558 15.0084 61.0457 15.0055 61.0352L14.609 59.8478L14.5992 59.8178C14.5823 59.773 14.5502 59.7347 14.5079 59.7079C14.4657 59.6812 14.4156 59.6678 14.3643 59.6696C14.3134 59.6714 14.2644 59.6888 14.2247 59.7184C14.1846 59.7484 14.1561 59.7889 14.1431 59.8352L13.7419 61.0305C13.7419 61.0312 13.7419 61.0323 13.7419 61.0326C13.7386 61.0453 13.7346 61.0576 13.7296 61.0695C13.7047 61.135 13.6585 61.1921 13.5979 61.2326C13.5373 61.2727 13.4647 61.2948 13.39 61.2955V61.298H12.0372C11.9784 61.3074 11.925 61.3363 11.8868 61.3794C11.8489 61.4224 11.8283 61.4763 11.8294 61.5323C11.829 61.5681 11.8373 61.6039 11.8539 61.6364C11.8705 61.669 11.8947 61.6975 11.9246 61.7203L11.9358 61.7286L12.9863 62.4745C13.0361 62.5081 13.0768 62.5522 13.1046 62.6032C13.1324 62.6545 13.1468 62.7113 13.1465 62.7684C13.1465 62.7952 13.1432 62.8219 13.1367 62.8476C13.132 62.8679 13.1255 62.8874 13.1172 62.9062L12.7189 64.1V64.1044L12.716 64.113C12.7095 64.1351 12.7062 64.1579 12.7062 64.1806C12.7052 64.211 12.7109 64.2414 12.7225 64.2699C12.734 64.2985 12.7517 64.3245 12.7741 64.3466C12.7968 64.3687 12.8239 64.3864 12.8538 64.3987C12.8834 64.411 12.9159 64.4175 12.9484 64.4182C12.9909 64.4182 13.0324 64.4077 13.0689 64.3871L13.1115 64.3582L14.1543 63.6199L14.177 63.6033C14.2348 63.5657 14.3033 63.5454 14.3737 63.5447C14.4441 63.5443 14.513 63.5635 14.5714 63.5996C14.5844 63.6072 14.5967 63.6159 14.6083 63.6253L15.645 64.3607L15.6742 64.3817C15.7124 64.4041 15.7565 64.4157 15.8016 64.4153C15.834 64.4146 15.8662 64.4077 15.8961 64.3954C15.9261 64.3831 15.9528 64.3658 15.9751 64.3433C15.9979 64.3213 16.0152 64.2953 16.0271 64.2671C16.0386 64.2385 16.0444 64.2085 16.0433 64.1778C16.0433 64.1539 16.0397 64.13 16.0321 64.1072C16.0321 64.1036 16.0296 64.1 16.0289 64.096L15.6287 62.8979C15.6222 62.8823 15.6168 62.8664 15.6132 62.8501C15.5962 62.7847 15.5995 62.716 15.6219 62.6524C15.6442 62.5884 15.6854 62.5313 15.7406 62.4879C15.7492 62.4806 15.7586 62.4745 15.768 62.4683L16.8069 61.7319L16.8383 61.7091C16.8653 61.6867 16.887 61.6588 16.9018 61.6277C16.9162 61.5967 16.9238 61.5634 16.9231 61.5294C16.9234 61.473 16.9018 61.4184 16.8617 61.3757C16.822 61.3331 16.7672 61.3052 16.7073 61.2977Z" fill="white"/>
<path d="M23.4951 61.2977H22.1434V61.2951C22.0683 61.294 21.9954 61.2716 21.9348 61.2308C21.8742 61.1896 21.8284 61.1321 21.8038 61.0659C21.7999 61.0558 21.7962 61.0457 21.7934 61.0352L21.3968 59.8478L21.3863 59.8178C21.3694 59.773 21.3376 59.7347 21.2954 59.7079C21.2532 59.6812 21.2027 59.6678 21.1518 59.6696C21.1009 59.6714 21.0518 59.6888 21.0118 59.7184C20.9721 59.7484 20.9436 59.7889 20.9306 59.8352L20.529 61.0305C20.529 61.0312 20.529 61.0323 20.529 61.0326C20.5257 61.0453 20.5217 61.0576 20.5167 61.0695C20.4918 61.135 20.446 61.1921 20.3853 61.2326C20.3247 61.2727 20.2518 61.2948 20.1775 61.2955V61.298H18.8243C18.7655 61.3074 18.7121 61.3363 18.6742 61.3794C18.636 61.4224 18.6158 61.4763 18.6165 61.5323C18.6161 61.5681 18.6248 61.6039 18.6414 61.6364C18.6576 61.669 18.6818 61.6975 18.7121 61.7203L18.7229 61.7286L19.7733 62.4745C19.835 62.5164 19.8823 62.5743 19.909 62.6408C19.9357 62.7073 19.9411 62.78 19.9242 62.8494C19.9195 62.8693 19.913 62.8888 19.9047 62.908L19.5063 64.1015V64.1058L19.5031 64.1145C19.4969 64.1365 19.4933 64.1593 19.4933 64.1825C19.4926 64.2128 19.498 64.2428 19.5096 64.2714C19.5215 64.3 19.5392 64.326 19.5615 64.348C19.5839 64.3701 19.611 64.3878 19.6409 64.4001C19.6709 64.4124 19.703 64.4189 19.7358 64.4196C19.778 64.42 19.8199 64.4095 19.8563 64.3889L19.8986 64.3596L20.9414 63.6217L20.9645 63.6051C21.0222 63.5675 21.0908 63.5472 21.1612 63.5465C21.2315 63.5458 21.3004 63.5649 21.3589 63.6011C21.3719 63.609 21.3842 63.6174 21.3953 63.6271L22.4324 64.3621L22.4616 64.3835C22.4995 64.4055 22.5439 64.4175 22.5887 64.4171C22.6215 64.4164 22.6536 64.4095 22.6836 64.3972C22.7132 64.3849 22.7402 64.3672 22.7626 64.3452C22.785 64.3231 22.8026 64.2971 22.8142 64.2685C22.8261 64.2403 22.8315 64.2099 22.8308 64.1796C22.8308 64.1557 22.8272 64.1318 22.8196 64.1091C22.8196 64.1054 22.8171 64.1015 22.8156 64.0975L22.4158 62.8997C22.409 62.8841 22.4039 62.8679 22.3999 62.8516C22.3927 62.8238 22.3891 62.7952 22.3891 62.7663C22.3888 62.7135 22.4007 62.6614 22.4245 62.6133C22.4479 62.5656 22.4826 62.5229 22.5259 62.489C22.5349 62.4821 22.5443 62.4756 22.5537 62.4694L23.5925 61.7333L23.6239 61.7102C23.651 61.6878 23.6726 61.6599 23.6871 61.6288C23.7019 61.5981 23.7091 61.5645 23.7087 61.5305C23.7094 61.4741 23.6882 61.4195 23.6488 61.3765C23.6095 61.3338 23.5546 61.3056 23.4951 61.2977Z" fill="white"/>
<path d="M30.286 61.2977H28.9343V61.2951C28.8596 61.294 28.7867 61.2716 28.7257 61.2308C28.6651 61.1896 28.6193 61.1321 28.5951 61.0659C28.5908 61.0558 28.5872 61.0457 28.5843 61.0352L28.1877 59.8478L28.1776 59.8178C28.1606 59.773 28.1285 59.7347 28.0863 59.7079C28.0441 59.6812 27.9939 59.6678 27.9427 59.6696C27.8918 59.6714 27.8427 59.6888 27.8031 59.7184C27.763 59.7484 27.7345 59.7889 27.7215 59.8352L27.3202 61.0305C27.3202 61.0305 27.3202 61.0308 27.3202 61.0326C27.317 61.0453 27.3127 61.0576 27.308 61.0695C27.2831 61.135 27.2369 61.1921 27.1763 61.2326C27.1156 61.2727 27.0431 61.2948 26.9684 61.2955V61.298H25.6156C25.5568 61.3074 25.5034 61.3363 25.4651 61.3794C25.4272 61.4224 25.4067 61.4763 25.4078 61.5323C25.407 61.5681 25.4157 61.6039 25.4323 61.6364C25.4485 61.669 25.4731 61.6975 25.503 61.7203L25.5142 61.7286L26.5646 62.4745C26.6263 62.5164 26.6732 62.5743 26.6999 62.6408C26.727 62.7073 26.7321 62.78 26.7151 62.8494C26.7108 62.8693 26.7039 62.8888 26.6956 62.908L26.2972 64.1015V64.1058L26.2944 64.1145C26.2879 64.1365 26.2846 64.1593 26.2846 64.1825C26.2835 64.2128 26.2893 64.2428 26.3009 64.2714C26.3124 64.3 26.3301 64.326 26.3524 64.348C26.3752 64.3701 26.4022 64.3878 26.4322 64.4001C26.4618 64.4124 26.4943 64.4189 26.5267 64.4196C26.5693 64.42 26.6108 64.4095 26.6473 64.3889L26.6898 64.3596L27.7327 63.6217L27.7554 63.6051C27.8131 63.5675 27.8817 63.5472 27.9521 63.5465C28.0224 63.5458 28.0914 63.5649 28.1498 63.6011C28.1628 63.609 28.1751 63.6174 28.1866 63.6271L29.2233 64.3621L29.2526 64.3835C29.2908 64.4055 29.3348 64.4175 29.3799 64.4171C29.4124 64.4164 29.4445 64.4095 29.4745 64.3972C29.5044 64.3849 29.5311 64.3672 29.5535 64.3452C29.5762 64.3231 29.5936 64.2971 29.6055 64.2685C29.617 64.2403 29.6228 64.2099 29.6217 64.1796C29.6217 64.1557 29.6181 64.1318 29.6105 64.1091C29.6105 64.1054 29.608 64.1015 29.6073 64.0975L29.2071 62.8997C29.2006 62.8841 29.1952 62.8679 29.1916 62.8516C29.1844 62.8238 29.1804 62.7952 29.1804 62.7663C29.18 62.7135 29.1923 62.6614 29.2158 62.6133C29.2396 62.5656 29.2742 62.5229 29.3175 62.489C29.3265 62.4821 29.3359 62.4756 29.3449 62.4694L30.3842 61.7333L30.4159 61.7102C30.443 61.6878 30.4646 61.6599 30.4791 61.6288C30.4939 61.5981 30.5011 61.5645 30.5007 61.5305C30.5014 61.4741 30.4798 61.4191 30.4405 61.3765C30.4008 61.3334 30.3459 61.3056 30.286 61.2977Z" fill="white"/>
<path d="M37.0713 61.2977H35.7196V61.2951C35.6445 61.294 35.5716 61.2716 35.511 61.2308C35.4504 61.1896 35.4045 61.1321 35.38 61.0659C35.376 61.0558 35.3724 61.0457 35.3695 61.0352L34.973 59.8478L34.9629 59.8178C34.9455 59.773 34.9138 59.7347 34.8716 59.7079C34.8293 59.6812 34.7788 59.6678 34.7279 59.6696C34.6771 59.6714 34.628 59.6888 34.5883 59.7184C34.5482 59.7484 34.5197 59.7889 34.5067 59.8352L34.1051 61.0305C34.1055 61.0312 34.1055 61.0323 34.1051 61.0326C34.1022 61.0453 34.0979 61.0576 34.0929 61.0695C34.068 61.135 34.0221 61.1921 33.9615 61.2326C33.9009 61.2727 33.8284 61.2948 33.7537 61.2955V61.298H32.4005C32.3417 61.3074 32.2883 61.3363 32.2504 61.3794C32.2121 61.4224 32.1919 61.4763 32.1926 61.5323C32.1923 61.5681 32.2006 61.6039 32.2172 61.6364C32.2338 61.669 32.258 61.6975 32.2883 61.7203L32.2991 61.7286L33.3499 62.4745C33.4112 62.5164 33.4585 62.5743 33.4852 62.6408C33.5123 62.7073 33.5173 62.78 33.5004 62.8494C33.4957 62.8693 33.4892 62.8888 33.4809 62.908L33.0825 64.1015V64.1058L33.0789 64.1145C33.0728 64.1365 33.0691 64.1593 33.0691 64.1825C33.0684 64.2128 33.0738 64.2428 33.0854 64.2714C33.0973 64.3 33.115 64.326 33.1373 64.348C33.1597 64.3701 33.1868 64.3878 33.2167 64.4001C33.2467 64.4124 33.2788 64.4189 33.3116 64.4196C33.3539 64.42 33.3957 64.4095 33.4322 64.3889L33.4744 64.3596L34.5172 63.6217L34.5403 63.6051C34.598 63.5675 34.6666 63.5472 34.737 63.5465C34.8073 63.5458 34.8763 63.5649 34.9347 63.6011C34.9477 63.6087 34.96 63.6174 34.9715 63.6271L36.0086 64.3621L36.0378 64.3835C36.0757 64.4055 36.1201 64.4175 36.1652 64.4171C36.1977 64.4164 36.2298 64.4095 36.2597 64.3972C36.2893 64.3849 36.3164 64.3672 36.3388 64.3452C36.3611 64.3231 36.3788 64.2971 36.3904 64.2685C36.4023 64.2403 36.4077 64.2099 36.407 64.1796C36.407 64.1557 36.4034 64.1318 36.3958 64.1091C36.3958 64.1054 36.3933 64.1015 36.3922 64.0975L35.992 62.8997C35.9851 62.8841 35.9801 62.8679 35.9761 62.8516C35.9689 62.8238 35.9653 62.7952 35.9653 62.7663C35.9649 62.7135 35.9768 62.6614 36.0007 62.6133C36.0241 62.5656 36.0591 62.5229 36.1024 62.489C36.1111 62.4821 36.1205 62.4756 36.1298 62.4694L37.1687 61.7333L37.2001 61.7102C37.2272 61.6878 37.2488 61.6599 37.2636 61.6288C37.278 61.5981 37.2856 61.5645 37.2849 61.5305C37.2856 61.4741 37.2643 61.4195 37.225 61.3765C37.1857 61.3338 37.1312 61.3056 37.0713 61.2977Z" fill="white"/>
<path d="M43.8607 61.2977H42.509V61.2951C42.4339 61.294 42.361 61.2716 42.3004 61.2308C42.2394 61.1896 42.194 61.1321 42.1694 61.0659C42.1655 61.0558 42.1619 61.0457 42.159 61.0352L41.762 59.8478L41.7519 59.8178C41.735 59.773 41.7032 59.7347 41.661 59.7079C41.6184 59.6812 41.5683 59.6678 41.5174 59.6696C41.4661 59.6714 41.4174 59.6888 41.3774 59.7184C41.3377 59.7484 41.3092 59.7889 41.2958 59.8352L40.8946 61.0305C40.8946 61.0305 40.8946 61.0308 40.8946 61.0326C40.8913 61.0453 40.8874 61.0576 40.8823 61.0695C40.8574 61.135 40.8116 61.1921 40.7509 61.2326C40.69 61.2727 40.6174 61.2948 40.5427 61.2955V61.298H39.1896C39.1308 61.3074 39.0774 61.3363 39.0391 61.3794C39.0012 61.4224 38.9806 61.4763 38.9817 61.5323C38.9814 61.5681 38.9897 61.6039 39.0063 61.6364C39.0229 61.669 39.047 61.6975 39.077 61.7203L39.0882 61.7286L40.14 62.4738C40.2014 62.5154 40.2487 62.5736 40.2754 62.6401C40.3021 62.7066 40.3075 62.7793 40.2905 62.8487C40.2858 62.8686 40.2793 62.8881 40.271 62.9073L39.8727 64.1007V64.1051L39.8698 64.1138C39.8629 64.1358 39.8597 64.1586 39.8593 64.1814C39.8586 64.2117 39.864 64.2421 39.8755 64.2707C39.8874 64.2992 39.9051 64.3253 39.9275 64.3473C39.9499 64.3694 39.9769 64.3871 40.0069 64.3994C40.0368 64.4117 40.069 64.4182 40.1018 64.4189C40.144 64.4193 40.1859 64.4084 40.2223 64.3878L40.2645 64.3589L41.3074 63.6206L41.3305 63.604C41.3882 63.5667 41.4568 63.5465 41.5271 63.5458C41.5975 63.545 41.6664 63.5642 41.7249 63.6004C41.7379 63.608 41.7501 63.6166 41.7613 63.626L42.7984 64.3614L42.8276 64.3824C42.8655 64.4048 42.9099 64.4164 42.9546 64.416C42.9875 64.4153 43.0196 64.4088 43.0492 64.3965C43.0791 64.3842 43.1062 64.3665 43.1286 64.3444C43.1509 64.3224 43.1686 64.2963 43.1802 64.2678C43.1921 64.2392 43.1975 64.2092 43.1968 64.1788C43.1968 64.155 43.1932 64.1311 43.1856 64.1083C43.1856 64.1047 43.183 64.1007 43.1816 64.0968L42.7818 62.899C42.7749 62.8834 42.7699 62.8671 42.7659 62.8509C42.7587 62.823 42.7551 62.7941 42.7551 62.7655C42.7547 62.7128 42.7666 62.6603 42.7904 62.6126C42.8139 62.5645 42.8485 62.5222 42.8918 62.4882C42.9009 62.4814 42.9103 62.4749 42.9196 62.4687L43.9585 61.7322L43.9899 61.7095C44.017 61.687 44.0386 61.6592 44.053 61.6281C44.0678 61.597 44.0751 61.5638 44.0747 61.5298C44.0751 61.4734 44.0538 61.4188 44.0141 61.3761C43.9747 61.3334 43.9203 61.3056 43.8607 61.2977Z" fill="white"/>
<defs>
<filter id="filter0_d_337_6719" x="0.0234375" y="16.8918" width="137.661" height="104.903" filterUnits="userSpaceOnUse" color-interpolation-filters="sRGB">
<feFlood flood-opacity="0" result="BackgroundImageFix"/>
<feColorMatrix in="SourceAlpha" type="matrix" values="0 0 0 0 0 0 0 0 0 0 0 0 0 0 0 0 0 0 127 0" result="hardAlpha"/>
<feOffset dy="1"/>
<feGaussianBlur stdDeviation="7"/>
<feComposite in2="hardAlpha" operator="out"/>
<feColorMatrix type="matrix" values="0 0 0 0 0.0354167 0 0 0 0 0.105426 0 0 0 0 0.2125 0 0 0 0.04 0"/>
<feBlend mode="normal" in2="BackgroundImageFix" result="effect1_dropShadow_337_6719"/>
<feBlend mode="normal" in="SourceGraphic" in2="effect1_dropShadow_337_6719" result="shape"/>
</filter>
<filter id="filter1_d_337_6719" x="90.4546" y="53.8159" width="45.7986" height="25.5134" filterUnits="userSpaceOnUse" color-interpolation-filters="sRGB">
<feFlood flood-opacity="0" result="BackgroundImageFix"/>
<feColorMatrix in="SourceAlpha" type="matrix" values="0 0 0 0 0 0 0 0 0 0 0 0 0 0 0 0 0 0 127 0" result="hardAlpha"/>
<feOffset/>
<feGaussianBlur stdDeviation="2"/>
<feColorMatrix type="matrix" values="0 0 0 0 0 0 0 0 0 0.296699 0 0 0 0 0.858629 0 0 0 0.07 0"/>
<feBlend mode="normal" in2="BackgroundImageFix" result="effect1_dropShadow_337_6719"/>
<feBlend mode="normal" in="SourceGraphic" in2="effect1_dropShadow_337_6719" result="shape"/>
</filter>
<filter id="filter2_d_337_6719" x="17.9094" y="75.1367" width="58.9651" height="50.123" filterUnits="userSpaceOnUse" color-interpolation-filters="sRGB">
<feFlood flood-opacity="0" result="BackgroundImageFix"/>
<feColorMatrix in="SourceAlpha" type="matrix" values="0 0 0 0 0 0 0 0 0 0 0 0 0 0 0 0 0 0 127 0" result="hardAlpha"/>
<feOffset/>
<feGaussianBlur stdDeviation="5"/>
<feColorMatrix type="matrix" values="0 0 0 0 0 0 0 0 0 0.296699 0 0 0 0 0.858629 0 0 0 0.05 0"/>
<feBlend mode="normal" in2="BackgroundImageFix" result="effect1_dropShadow_337_6719"/>
<feBlend mode="normal" in="SourceGraphic" in2="effect1_dropShadow_337_6719" result="shape"/>
</filter>
</defs>
</svg>
