<svg width="137" height="131" viewBox="0 0 137 131" fill="none" xmlns="http://www.w3.org/2000/svg">
<circle cx="69" cy="65.5" r="65.5" fill="#F5F8FF"/>
<g filter="url(#filter0_d_337_6772)">
<path d="M9.86011 26.5665C9.86011 25.0795 11.0656 23.874 12.5526 23.874H123.787C125.274 23.874 126.479 25.0795 126.479 26.5665V102.964C126.479 104.451 125.274 105.657 123.787 105.657H12.5526C11.0656 105.657 9.86011 104.451 9.86011 102.964V26.5665Z" fill="white"/>
</g>
<path d="M9.86011 26.7736C9.86011 25.1722 11.0628 23.874 12.5464 23.874H123.489C124.973 23.874 126.175 25.1722 126.175 26.7736V33.926H9.86011V26.7736Z" fill="#000C36"/>
<path d="M21.3478 28.9001C21.3478 30.0803 20.374 31.0541 19.1938 31.0541C18.0135 31.0541 17.0398 30.0803 17.0398 28.9001C17.0398 27.7198 18.0135 26.7461 19.1938 26.7461C20.374 26.7461 21.3478 27.7198 21.3478 28.9001Z" fill="#F66058"/>
<path d="M29.9642 28.9001C29.9642 30.0803 28.9905 31.0541 27.8102 31.0541C26.63 31.0541 25.6562 30.0803 25.6562 28.9001C25.6562 27.7198 26.63 26.7461 27.8102 26.7461C29.02 26.7461 29.9642 27.7198 29.9642 28.9001Z" fill="#F9BD2E"/>
<path d="M38.5802 28.9001C38.5802 30.0803 37.6065 31.0541 36.4262 31.0541C35.2459 31.0541 34.2722 30.0803 34.2722 28.9001C34.2722 27.7198 35.2459 26.7461 36.4262 26.7461C37.6065 26.7461 38.5802 27.7198 38.5802 28.9001Z" fill="#3CC840"/>
<g clip-path="url(#clip0_337_6772)">
<path d="M27.3908 49.6646H16.997C16.3267 49.6646 15.7839 50.2085 15.7839 50.8803C15.7839 51.5521 16.3267 52.096 16.997 52.096H27.3908C28.0611 52.096 28.6039 51.5521 28.6039 50.8803C28.6039 50.2085 28.0611 49.6646 27.3908 49.6646Z" fill="#C6DBFF"/>
<path d="M33.7578 50.8805C33.7578 51.5523 34.3006 52.0963 34.9709 52.0963H112.634C113.304 52.0963 113.847 51.5523 113.847 50.8805C113.847 50.2087 113.304 49.6648 112.634 49.6648H34.9709C34.3006 49.6648 33.7578 50.2087 33.7578 50.8805Z" fill="#D2DCE4"/>
<path d="M118.738 50.8805C118.738 51.5523 119.281 52.0963 119.951 52.0963H121.534C122.204 52.0963 122.747 51.5523 122.747 50.8805C122.747 50.2087 122.204 49.6648 121.534 49.6648H119.951C119.281 49.6648 118.738 50.2087 118.738 50.8805Z" fill="#EDF1F6"/>
<path d="M97.0395 56.7622H16.997C16.3267 56.7622 15.7839 57.3062 15.7839 57.9779C15.7839 58.6497 16.3267 59.1937 16.997 59.1937H97.0395C97.7098 59.1937 98.2526 58.6497 98.2526 57.9779C98.2526 57.3062 97.7098 56.7622 97.0395 56.7622Z" fill="#EDF1F6"/>
<path d="M104.464 57.9779C104.464 58.6497 105.007 59.1937 105.677 59.1937H121.533C122.204 59.1937 122.747 58.6497 122.747 57.9779C122.747 57.3062 122.204 56.7622 121.533 56.7622H105.677C105.007 56.7622 104.464 57.3062 104.464 57.9779Z" fill="#C6DBFF"/>
<path d="M35.7168 63.8586H16.997C16.3267 63.8586 15.7839 64.4026 15.7839 65.0744C15.7839 65.7461 16.3267 66.2901 16.997 66.2901H35.7168C36.3871 66.2901 36.9299 65.7461 36.9299 65.0744C36.9299 64.4026 36.3871 63.8586 35.7168 63.8586Z" fill="#EDF1F6"/>
<path d="M42.7449 65.0744C42.7449 65.7461 43.2877 66.2901 43.958 66.2901H121.533C122.204 66.2901 122.746 65.7461 122.746 65.0744C122.746 64.4026 122.204 63.8586 121.533 63.8586H43.958C43.2877 63.8586 42.7449 64.4026 42.7449 65.0744Z" fill="#EDF1F6"/>
<path d="M23.1612 70.9561H16.997C16.3271 70.9561 15.7839 71.5004 15.7839 72.1718C15.7839 72.8432 16.3271 73.3875 16.997 73.3875H23.1612C23.8312 73.3875 24.3743 72.8432 24.3743 72.1718C24.3743 71.5004 23.8312 70.9561 23.1612 70.9561Z" fill="#C6DBFF"/>
<path d="M121.532 70.9561H33.7812C33.1112 70.9561 32.5681 71.5004 32.5681 72.1718C32.5681 72.8432 33.1112 73.3875 33.7812 73.3875H121.532C122.202 73.3875 122.746 72.8432 122.746 72.1718C122.746 71.5004 122.202 70.9561 121.532 70.9561Z" fill="#D2DCE4"/>
<path d="M50.7833 78.053H16.997C16.3271 78.053 15.7839 78.5973 15.7839 79.2687C15.7839 79.9401 16.3271 80.4844 16.997 80.4844H50.7833C51.4533 80.4844 51.9964 79.9401 51.9964 79.2687C51.9964 78.5973 51.4533 78.053 50.7833 78.053Z" fill="#D2DCE4"/>
<path d="M85.8061 78.053H61.0068C60.3368 78.053 59.7937 78.5973 59.7937 79.2687C59.7937 79.9401 60.3368 80.4844 61.0068 80.4844H85.8061C86.476 80.4844 87.0192 79.9401 87.0192 79.2687C87.0192 78.5973 86.476 78.053 85.8061 78.053Z" fill="#EDF1F6"/>
<path d="M121.533 78.053H94.9719C94.3019 78.053 93.7588 78.5973 93.7588 79.2687C93.7588 79.9401 94.3019 80.4844 94.9719 80.4844H121.533C122.203 80.4844 122.746 79.9401 122.746 79.2687C122.746 78.5973 122.203 78.053 121.533 78.053Z" fill="#EDF1F6"/>
<path d="M56.4895 86.3651C56.4895 87.0369 57.0323 87.5809 57.7026 87.5809H121.533C122.203 87.5809 122.746 87.0369 122.746 86.3651C122.746 85.6934 122.203 85.1494 121.533 85.1494H57.7026C57.0323 85.1494 56.4895 85.6934 56.4895 86.3651Z" fill="#D2DCE4"/>
<path d="M47.6114 85.1494H16.997C16.3267 85.1494 15.7839 85.6934 15.7839 86.3651C15.7839 87.0369 16.3267 87.5809 16.997 87.5809H47.6114C48.2817 87.5809 48.8245 87.0369 48.8245 86.3651C48.8245 85.6934 48.2817 85.1494 47.6114 85.1494Z" fill="#EDF1F6"/>
<path d="M102.855 92.2468H39.1999C38.5296 92.2468 37.9868 92.7908 37.9868 93.4626C37.9868 94.1343 38.5296 94.6783 39.1999 94.6783H102.855C103.525 94.6783 104.068 94.1343 104.068 93.4626C104.068 92.7908 103.525 92.2468 102.855 92.2468Z" fill="#EDF1F6"/>
<path d="M112.526 93.4626C112.526 94.1343 113.069 94.6783 113.739 94.6783H121.534C122.204 94.6783 122.747 94.1343 122.747 93.4626C122.747 92.7908 122.204 92.2468 121.534 92.2468H113.739C113.069 92.2468 112.526 92.7908 112.526 93.4626Z" fill="#C6DBFF"/>
<path d="M30.1661 92.2468H16.997C16.3267 92.2468 15.7839 92.7908 15.7839 93.4626C15.7839 94.1343 16.3267 94.6783 16.997 94.6783H30.1661C30.8365 94.6783 31.3792 94.1343 31.3792 93.4626C31.3792 92.7908 30.8365 92.2468 30.1661 92.2468Z" fill="#EDF1F6"/>
<path d="M87.7743 49.7346C87.7203 56.0008 87.6681 62.2697 87.6141 68.5387C87.5369 78.1358 81.9229 86.8241 73.2189 90.8259C71.5338 91.5984 69.8542 92.3747 68.1719 93.1472V93.165C68.1644 93.1622 68.1561 93.1575 68.1514 93.1547C68.1458 93.1575 68.1384 93.1622 68.1309 93.165V93.1472C66.4486 92.3747 64.7691 91.5984 63.0839 90.8259C54.3799 86.8241 48.7669 78.1349 48.6887 68.5387C48.6347 62.2697 48.5826 56.0008 48.5286 49.7346C55.0614 48.4377 61.599 47.1408 68.1309 45.8411H68.1719C74.7038 47.1408 81.2414 48.4377 87.7743 49.7346Z" fill="#9FC0FF"/>
<path d="M84.2487 53.2875C84.204 58.4285 84.1621 63.5704 84.1174 68.7113C84.0513 76.5842 79.4484 83.7106 72.3076 86.9949C70.9269 87.6284 69.549 88.2638 68.1683 88.8973V88.9132C68.1627 88.9113 68.1572 88.9076 68.1506 88.9057C68.1469 88.9076 68.1413 88.9113 68.1348 88.9132V88.8973C66.7541 88.2638 65.3762 87.6284 63.9956 86.9949C56.8557 83.7106 52.2518 76.5842 52.1857 68.7113C52.141 63.5704 52.0991 58.4285 52.0544 53.2875C57.4143 52.2239 62.775 51.1602 68.1348 50.0947H68.1674C73.5272 51.1602 78.888 52.2239 84.2478 53.2875H84.2487Z" fill="#3D7FFC"/>
<path d="M74.2379 65.383H73.6524V63.2761C73.6524 60.4313 71.3229 58.1252 68.4492 58.1252H67.9814C65.1077 58.1252 62.7781 60.4313 62.7781 63.2761V65.383H62.1926C61.7139 65.383 61.3257 65.7673 61.3257 66.2412V75.2416C61.3257 75.7155 61.7139 76.1021 62.1926 76.1021H74.2387C74.7174 76.1021 75.108 75.7163 75.108 75.2416V66.2412C75.108 65.7673 74.7182 65.383 74.2387 65.383H74.2379ZM68.694 70.6804V73.4866C68.694 73.6433 68.5638 73.7722 68.4032 73.7722H68.0243C67.866 73.7722 67.7358 73.6433 67.7358 73.4866V70.6804C67.2696 70.4937 66.9382 70.0414 66.9382 69.5089C66.9382 68.8205 67.4972 68.2602 68.1911 68.2494C68.1997 68.247 68.2059 68.247 68.2153 68.247C68.9177 68.247 69.49 68.8112 69.49 69.5089C69.49 70.0406 69.1602 70.4937 68.6947 70.6804H68.694ZM72.0011 65.383H64.3335V63.0916C64.3335 61.0858 65.9738 59.4596 68.0024 59.4596H68.3299C70.3585 59.4596 72.0011 61.0858 72.0011 63.0916V65.383Z" fill="white"/>
</g>
<defs>
<filter id="filter0_d_337_6772" x="0.0526209" y="14.7671" width="136.234" height="101.398" filterUnits="userSpaceOnUse" color-interpolation-filters="sRGB">
<feFlood flood-opacity="0" result="BackgroundImageFix"/>
<feColorMatrix in="SourceAlpha" type="matrix" values="0 0 0 0 0 0 0 0 0 0 0 0 0 0 0 0 0 0 127 0" result="hardAlpha"/>
<feOffset dy="0.700535"/>
<feGaussianBlur stdDeviation="4.90374"/>
<feComposite in2="hardAlpha" operator="out"/>
<feColorMatrix type="matrix" values="0 0 0 0 0.0354167 0 0 0 0 0.105426 0 0 0 0 0.2125 0 0 0 0.04 0"/>
<feBlend mode="normal" in2="BackgroundImageFix" result="effect1_dropShadow_337_6772"/>
<feBlend mode="normal" in="SourceGraphic" in2="effect1_dropShadow_337_6772" result="shape"/>
</filter>
<clipPath id="clip0_337_6772">
<rect width="106.963" height="48.8372" fill="white" transform="translate(15.7839 45.8411)"/>
</clipPath>
</defs>
</svg>
