<svg width="205" height="184" viewBox="0 0 205 184" fill="none" xmlns="http://www.w3.org/2000/svg">
<path d="M103.593 0.597679L187.392 15.3364L187.531 91.8369C187.671 142.27 150.939 168.336 103.873 183.32C56.8084 168.58 20.0728 142.512 19.9333 92.0809L19.7937 15.5805L103.593 0.597679Z" fill="url(#paint0_linear_2121_29945)"/>
<path d="M182.548 18.8254L182.688 91.8332C182.688 133.029 156.973 161.55 104.009 178.735C50.9028 161.672 25.1885 133.273 25.0489 92.0816L24.9094 19.0738L103.73 5.05772L182.548 18.8254Z" fill="url(#paint1_linear_2121_29945)"/>
<path d="M104.193 0.597702L103.916 183.323C150.532 168.582 187.394 142.55 187.532 92.1189L187.389 15.3312L104.193 0.597702Z" fill="#003395" fill-opacity="0.15"/>
<g filter="url(#filter0_d_2121_29945)">
<path d="M9 35.3477C9 32.8651 11.0126 30.8525 13.4952 30.8525L191.505 30.8525C193.987 30.8525 196 32.8651 196 35.3477V82.8052C196 88.8693 191.084 93.7852 185.02 93.7852L19.98 93.7852C13.9159 93.7852 9 88.8693 9 82.8052L9 35.3477Z" fill="#3D7FFC"/>
</g>
<path d="M68.6483 62.171C68.6483 67.3261 67.1694 71.3826 64.7186 73.9601C62.6481 76.1574 59.6903 77.5095 55.8451 77.5095C51.1126 77.5095 47.9857 75.6081 46.7603 74.6362L49.2111 70.1995C49.8027 70.791 52.507 72.3122 55.5916 72.3122C57.4508 72.3122 58.7607 71.7206 59.9016 70.5375C61.2537 69.1431 62.1411 66.8191 62.1411 63.5655C61.465 64.7908 59.3522 66.8191 54.831 66.8191C50.3097 66.8191 45.8307 63.65 45.8307 57.8611C45.8307 52.1144 49.9294 47.4664 56.7324 47.4664C61.3805 47.4664 64.4228 49.9172 66.113 52.3257C67.5497 54.3539 68.6483 57.6498 68.6483 62.171ZM61.6763 57.2695C61.6763 54.6919 59.9438 52.4524 56.986 52.4524C54.0281 52.4524 52.3379 54.6919 52.3379 57.2695C52.3379 59.8048 54.0281 62.0865 56.986 62.0865C59.9438 62.0865 61.6763 59.8048 61.6763 57.2695ZM94.0425 62.171C94.0425 67.3261 92.5635 71.3826 90.1128 73.9601C88.0423 76.1574 85.0844 77.5095 81.2392 77.5095C76.5067 77.5095 73.3799 75.6081 72.1545 74.6362L74.6052 70.1995C75.1968 70.791 77.9011 72.3122 80.9857 72.3122C82.8449 72.3122 84.1548 71.7206 85.2957 70.5375C86.6479 69.1431 87.5352 66.8191 87.5352 63.5655C86.8591 64.7908 84.7464 66.8191 80.2251 66.8191C75.7039 66.8191 71.2249 63.65 71.2249 57.8611C71.2249 52.1144 75.3236 47.4664 82.1266 47.4664C86.7746 47.4664 89.817 49.9172 91.5072 52.3257C92.9438 54.3539 94.0425 57.6498 94.0425 62.171ZM87.0704 57.2695C87.0704 54.6919 85.338 52.4524 82.3801 52.4524C79.4223 52.4524 77.7321 54.6919 77.7321 57.2695C77.7321 59.8048 79.4223 62.0865 82.3801 62.0865C85.338 62.0865 87.0704 59.8048 87.0704 57.2695ZM105.09 73.8756C105.09 76.1574 103.442 77.5095 101.118 77.5095C98.7516 77.5095 97.1036 76.1574 97.1036 73.8756C97.1036 71.5939 98.7516 70.2417 101.118 70.2417C103.442 70.2417 105.09 71.5939 105.09 73.8756ZM131.337 62.171C131.337 67.3261 129.858 71.3826 127.408 73.9601C125.337 76.1574 122.379 77.5095 118.534 77.5095C113.802 77.5095 110.675 75.6081 109.449 74.6362L111.9 70.1995C112.492 70.791 115.196 72.3122 118.281 72.3122C120.14 72.3122 121.45 71.7206 122.591 70.5375C123.943 69.1431 124.83 66.8191 124.83 63.5655C124.154 64.7908 122.041 66.8191 117.52 66.8191C112.999 66.8191 108.52 63.65 108.52 57.8611C108.52 52.1144 112.618 47.4664 119.421 47.4664C124.069 47.4664 127.112 49.9172 128.802 52.3257C130.239 54.3539 131.337 57.6498 131.337 62.171ZM124.365 57.2695C124.365 54.6919 122.633 52.4524 119.675 52.4524C116.717 52.4524 115.027 54.6919 115.027 57.2695C115.027 59.8048 116.717 62.0865 119.675 62.0865C122.633 62.0865 124.365 59.8048 124.365 57.2695ZM167.126 70.0304C167.126 74.594 163.999 77.5941 159.562 77.5941C155.126 77.5941 151.999 74.594 151.999 70.0304C151.999 65.4669 155.126 62.4668 159.562 62.4668C163.999 62.4668 167.126 65.4669 167.126 70.0304ZM161.126 48.8608L142.999 78.0589L140.083 76.3264L158.253 47.1283L161.126 48.8608ZM149.21 55.1567C149.21 59.7203 146.083 62.7626 141.646 62.7626C137.252 62.7626 134.083 59.7203 134.083 55.1567C134.083 50.5932 137.252 47.5931 141.646 47.5931C146.083 47.5931 149.21 50.5932 149.21 55.1567ZM162.732 69.9459C162.732 67.8332 161.633 66.312 159.562 66.312C157.534 66.312 156.436 67.8332 156.436 69.9459C156.436 72.1009 157.534 73.6221 159.562 73.6221C161.633 73.6221 162.732 72.1009 162.732 69.9459ZM144.858 55.1145C144.858 52.9595 143.717 51.4383 141.646 51.4383C139.618 51.4383 138.562 52.9595 138.562 55.1145C138.562 57.2272 139.618 58.7907 141.646 58.7907C143.717 58.7907 144.858 57.2272 144.858 55.1145Z" fill="white"/>
<path d="M58.6273 119.472C60.0804 120.071 60.6496 120.88 60.6496 122.168C60.6496 124.086 59.2415 125.359 57.0544 125.359C55.2868 125.359 54.0734 124.535 53.3993 123.756L54.328 122.348C55.137 123.232 56.1107 123.711 57.0844 123.711C58.0431 123.711 58.7022 123.247 58.7022 122.348C58.7022 121.539 58.1629 121.27 57.2791 120.91L55.6613 120.266C54.5378 119.816 53.7888 119.023 53.7888 117.764C53.7888 115.967 55.1969 114.723 57.369 114.723C58.837 114.723 59.9006 115.337 60.5148 115.967L59.586 117.36C58.9269 116.761 58.133 116.326 57.2491 116.326C56.3953 116.326 55.7212 116.746 55.7212 117.51C55.7212 118.259 56.3653 118.543 56.9046 118.768L58.6273 119.472ZM70.7756 114.843V120.91C70.7756 122.288 70.5809 123.292 69.8618 124.116C69.1578 124.91 68.0792 125.359 66.6411 125.359C65.2031 125.359 64.1245 124.91 63.4204 124.116C62.7014 123.292 62.5067 122.288 62.5067 120.91V114.843H64.469V120.85C64.469 121.644 64.499 122.348 64.9035 122.872C65.278 123.352 65.8622 123.651 66.6411 123.651C67.4351 123.651 68.0043 123.352 68.3788 122.872C68.7833 122.348 68.8282 121.644 68.8282 120.85V114.843H70.7756ZM81.7663 123.891C81.182 124.52 80.0585 125.359 78.0213 125.359C74.9953 125.359 72.6584 123.307 72.6584 120.026C72.6584 116.746 75.0253 114.693 78.0213 114.693C80.0436 114.693 81.212 115.547 81.6314 115.967L80.9424 117.555C80.6428 117.165 79.4743 116.371 78.0063 116.371C76.2087 116.371 74.6657 117.555 74.6657 119.996C74.6657 122.228 76.0589 123.681 78.1261 123.681C79.5043 123.681 80.463 123.082 81.0772 122.423L81.7663 123.891ZM91.6074 123.891C91.0232 124.52 89.8997 125.359 87.8624 125.359C84.8365 125.359 82.4996 123.307 82.4996 120.026C82.4996 116.746 84.8664 114.693 87.8624 114.693C89.8847 114.693 91.0532 115.547 91.4726 115.967L90.7835 117.555C90.4839 117.165 89.3155 116.371 87.8474 116.371C86.0498 116.371 84.5069 117.555 84.5069 119.996C84.5069 122.228 85.9 123.681 87.9673 123.681C89.3454 123.681 90.3042 123.082 90.9183 122.423L91.6074 123.891ZM93.3485 114.843H99.73V116.461H95.2959V119.023H99.4753V120.625H95.2959V123.561H99.8498V125.179H93.3485V114.843ZM106.56 119.472C108.013 120.071 108.583 120.88 108.583 122.168C108.583 124.086 107.175 125.359 104.987 125.359C103.22 125.359 102.006 124.535 101.332 123.756L102.261 122.348C103.07 123.232 104.044 123.711 105.017 123.711C105.976 123.711 106.635 123.247 106.635 122.348C106.635 121.539 106.096 121.27 105.212 120.91L103.594 120.266C102.471 119.816 101.722 119.023 101.722 117.764C101.722 115.967 103.13 114.723 105.302 114.723C106.77 114.723 107.834 115.337 108.448 115.967L107.519 117.36C106.86 116.761 106.066 116.326 105.182 116.326C104.328 116.326 103.654 116.746 103.654 117.51C103.654 118.259 104.298 118.543 104.838 118.768L106.56 119.472ZM114.997 119.472C116.45 120.071 117.019 120.88 117.019 122.168C117.019 124.086 115.611 125.359 113.424 125.359C111.657 125.359 110.443 124.535 109.769 123.756L110.698 122.348C111.507 123.232 112.481 123.711 113.454 123.711C114.413 123.711 115.072 123.247 115.072 122.348C115.072 121.539 114.533 121.27 113.649 120.91L112.031 120.266C110.908 119.816 110.159 119.023 110.159 117.764C110.159 115.967 111.567 114.723 113.739 114.723C115.207 114.723 116.27 115.337 116.885 115.967L115.956 117.36C115.297 116.761 114.503 116.326 113.619 116.326C112.765 116.326 112.091 116.746 112.091 117.51C112.091 118.259 112.735 118.543 113.274 118.768L114.997 119.472ZM125.247 120.985H124.318V125.179H122.37V114.843H125.696C126.79 114.843 127.658 115.083 128.303 115.577C128.947 116.071 129.411 116.865 129.411 117.854C129.411 119.637 128.437 120.356 127.179 120.745L129.965 125.179H127.688L125.247 120.985ZM125.322 119.457C125.951 119.457 126.43 119.412 126.805 119.127C127.194 118.843 127.404 118.498 127.404 117.914C127.404 117.345 127.194 116.97 126.805 116.701C126.43 116.416 125.951 116.371 125.322 116.371H124.303V119.457H125.322ZM137.353 122.798H133.294L132.395 125.179H130.373L134.432 114.828H136.32L140.379 125.179H138.252L137.353 122.798ZM133.773 121.24H136.874L135.331 117.06L133.773 121.24ZM142.551 116.416H139.705V114.843H147.315V116.416H144.483V125.179H142.551V116.416ZM148.88 114.843H155.262V116.461H150.828V119.023H155.007V120.625H150.828V123.561H155.382V125.179H148.88V114.843Z" fill="white"/>
<defs>
<filter id="filter0_d_2121_29945" x="0.0096159" y="26.3573" width="204.981" height="80.9135" filterUnits="userSpaceOnUse" color-interpolation-filters="sRGB">
<feFlood flood-opacity="0" result="BackgroundImageFix"/>
<feColorMatrix in="SourceAlpha" type="matrix" values="0 0 0 0 0 0 0 0 0 0 0 0 0 0 0 0 0 0 127 0" result="hardAlpha"/>
<feOffset dy="4.49519"/>
<feGaussianBlur stdDeviation="4.49519"/>
<feColorMatrix type="matrix" values="0 0 0 0 0.0941177 0 0 0 0 0.188235 0 0 0 0 0.247059 0 0 0 0.19 0"/>
<feBlend mode="normal" in2="BackgroundImageFix" result="effect1_dropShadow_2121_29945"/>
<feBlend mode="normal" in="SourceGraphic" in2="effect1_dropShadow_2121_29945" result="shape"/>
</filter>
<linearGradient id="paint0_linear_2121_29945" x1="62.0485" y1="0.59916" x2="115.209" y2="183.621" gradientUnits="userSpaceOnUse">
<stop stop-color="#3D7FFC"/>
<stop offset="1" stop-color="#0057FB"/>
</linearGradient>
<linearGradient id="paint1_linear_2121_29945" x1="37.7743" y1="5.29961" x2="119.335" y2="198.247" gradientUnits="userSpaceOnUse">
<stop stop-color="#72A2FF"/>
<stop offset="0.177083" stop-color="#87B0FF"/>
<stop offset="0.859375" stop-color="#3D7FFC"/>
</linearGradient>
</defs>
</svg>
