<svg width="65" height="48" viewBox="0 0 65 48" fill="none" xmlns="http://www.w3.org/2000/svg">
<g clip-path="url(#clip0_548_10160)">
<path fill-rule="evenodd" clip-rule="evenodd" d="M0.5 0H91.7009V3.69234H0.5V0ZM0.5 7.38469H91.7009V11.077H0.5V7.38469ZM0.5 14.7694H91.7009V18.4617H0.5V14.7694ZM0.5 22.1541H91.7009V25.8464H0.5V22.1541ZM0.5 29.5387H91.7009V33.2311H0.5V29.5387ZM0.5 36.9234H91.7009V40.6158H0.5V36.9234ZM0.5 44.3081H91.7009V48.0005H0.5V44.3081Z" fill="#BD3D44"/>
<path fill-rule="evenodd" clip-rule="evenodd" d="M0.5 3.69238H91.7009V7.38473H0.5V3.69238ZM0.5 11.0771H91.7009V14.7694H0.5V11.0771ZM0.5 18.4618H91.7009V22.1541H0.5V18.4618ZM0.5 25.8464H91.7009V29.5388H0.5V25.8464ZM0.5 33.2311H91.7009V36.9235H0.5V33.2311ZM0.5 40.6158H91.7009V44.3082H0.5V40.6158Z" fill="white"/>
<path fill-rule="evenodd" clip-rule="evenodd" d="M0.5 0H36.98V25.8459H0.5V0Z" fill="#192F5D"/>
<path fill-rule="evenodd" clip-rule="evenodd" d="M3.5401 1.1062L3.87197 2.1277H4.94616L4.0771 2.75911L4.40906 3.78061L3.54 3.1493L2.67113 3.78061L3.003 2.75911L2.13403 2.1277H3.20813L3.5401 1.1062ZM9.62006 1.1062L9.95203 2.1277H11.0262L10.1572 2.75911L10.4891 3.78061L9.62006 3.1493L8.75119 3.78061L9.08306 2.75911L8.21409 2.1277H9.28819L9.62006 1.1062ZM15.7003 1.1062L16.0322 2.1277H17.1064L16.2373 2.75911L16.5693 3.78061L15.7003 3.1493L14.8313 3.78061L15.1632 2.75911L14.2943 2.1277H15.3684L15.7003 1.1062ZM21.7802 1.1062L22.1121 2.1277H23.1862L22.3172 2.75911L22.6491 3.78061L21.7802 3.1493L20.9111 3.78061L21.2431 2.75911L20.374 2.1277H21.4482L21.7802 1.1062ZM27.8603 1.1062L28.1922 2.1277H29.2664L28.3973 2.75911L28.7293 3.78061L27.8603 3.1493L26.9914 3.78061L27.3232 2.75911L26.4543 2.1277H27.5284L27.8603 1.1062ZM33.9405 1.1062L34.2724 2.1277H35.3466L34.4775 2.75911L34.8095 3.78061L33.9405 3.1493L33.0714 3.78061L33.4035 2.75911L32.5344 2.1277H33.6086L33.9405 1.1062ZM6.58022 3.69089L6.9121 4.71239H7.98628L7.11722 5.3437L7.44928 6.3653L6.58022 5.73398L5.71125 6.3653L6.04313 5.3437L5.17416 4.71239H6.24835L6.58022 3.69089ZM12.6601 3.69089L12.992 4.71239H14.0661L13.1971 5.3437L13.529 6.3653L12.6601 5.73398L11.791 6.3653L12.123 5.3437L11.2539 4.71239H12.3281L12.6601 3.69089ZM18.7402 3.69089L19.0721 4.71239H20.1463L19.2773 5.3437L19.6092 6.3653L18.7402 5.73398L17.8713 6.3653L18.2032 5.3437L17.3342 4.71239H18.4083L18.7402 3.69089ZM24.8204 3.69089L25.1523 4.71239H26.2265L25.3574 5.3437L25.6894 6.3653L24.8204 5.73398L23.9513 6.3653L24.2835 5.3437L23.4144 4.71239H24.4886L24.8204 3.69089ZM30.9003 3.69089L31.2322 4.71239H32.3062L31.4373 5.3437L31.7692 6.3653L30.9003 5.73398L30.0312 6.3653L30.3632 5.3437L29.4941 4.71239H30.5683L30.9003 3.69089ZM3.5401 6.27548L3.87197 7.29698H4.94616L4.0771 7.92839L4.40906 8.94989L3.54 8.31858L2.67113 8.94989L3.003 7.92839L2.13403 7.29698H3.20813L3.5401 6.27548ZM9.62006 6.27548L9.95203 7.29698H11.0262L10.1572 7.92839L10.4891 8.94989L9.62006 8.31858L8.75119 8.94989L9.08306 7.92839L8.21409 7.29698H9.28819L9.62006 6.27548ZM15.7003 6.27548L16.0322 7.29698H17.1064L16.2373 7.92839L16.5693 8.94989L15.7003 8.31858L14.8313 8.94989L15.1632 7.92839L14.2943 7.29698H15.3684L15.7003 6.27548ZM21.7802 6.27548L22.1121 7.29698H23.1862L22.3172 7.92839L22.6491 8.94989L21.7802 8.31858L20.9111 8.94989L21.2431 7.92839L20.374 7.29698H21.4482L21.7802 6.27548ZM27.8603 6.27548L28.1922 7.29698H29.2664L28.3973 7.92839L28.7293 8.94989L27.8603 8.31858L26.9914 8.94989L27.3232 7.92839L26.4543 7.29698H27.5284L27.8603 6.27548ZM33.9405 6.27548L34.2724 7.29698H35.3466L34.4775 7.92839L34.8095 8.94989L33.9405 8.31858L33.0714 8.94989L33.4035 7.92839L32.5344 7.29698H33.6086L33.9405 6.27548ZM6.58022 8.86008L6.9121 9.88167H7.98628L7.11722 10.513L7.44928 11.5346L6.58022 10.9033L5.71125 11.5346L6.04313 10.513L5.17416 9.88167H6.24835L6.58022 8.86008ZM12.6601 8.86008L12.992 9.88167H14.0661L13.1971 10.513L13.529 11.5346L12.6601 10.9033L11.791 11.5346L12.123 10.513L11.2539 9.88167H12.3281L12.6601 8.86008ZM18.7402 8.86008L19.0721 9.88167H20.1463L19.2773 10.513L19.6092 11.5346L18.7402 10.9033L17.8713 11.5346L18.2032 10.513L17.3342 9.88167H18.4083L18.7402 8.86008ZM24.8204 8.86008L25.1523 9.88167H26.2265L25.3574 10.513L25.6894 11.5346L24.8204 10.9033L23.9513 11.5346L24.2834 10.513L23.4143 9.88167H24.4885L24.8204 8.86008ZM30.9003 8.86008L31.2322 9.88167H32.3062L31.4373 10.513L31.7692 11.5346L30.9003 10.9033L30.0312 11.5346L30.3632 10.513L29.4941 9.88167H30.5683L30.9003 8.86008ZM3.5401 11.4448L3.87197 12.4663H4.94616L4.0771 13.0977L4.40906 14.1192L3.54 13.4879L2.67113 14.1192L3.003 13.0977L2.13403 12.4663H3.20813L3.5401 11.4448ZM9.62006 11.4448L9.95203 12.4663H11.0262L10.1572 13.0977L10.4891 14.1192L9.62006 13.4879L8.75119 14.1192L9.08306 13.0977L8.21409 12.4663H9.28819L9.62006 11.4448ZM15.7003 11.4448L16.0322 12.4663H17.1064L16.2373 13.0977L16.5693 14.1192L15.7003 13.4879L14.8313 14.1192L15.1632 13.0977L14.2943 12.4663H15.3684L15.7003 11.4448ZM21.7802 11.4448L22.1121 12.4663H23.1862L22.3172 13.0977L22.6491 14.1192L21.7802 13.4879L20.9111 14.1192L21.2431 13.0977L20.374 12.4663H21.4482L21.7802 11.4448ZM27.8603 11.4448L28.1922 12.4663H29.2664L28.3973 13.0977L28.7293 14.1192L27.8603 13.4879L26.9914 14.1192L27.3232 13.0977L26.4543 12.4663H27.5284L27.8603 11.4448ZM33.9405 11.4448L34.2724 12.4663H35.3466L34.4775 13.0977L34.8095 14.1192L33.9405 13.4879L33.0714 14.1192L33.4035 13.0977L32.5344 12.4663H33.6086L33.9405 11.4448ZM6.58022 14.0294L6.9121 15.051H7.98628L7.11722 15.6823L7.44928 16.7039L6.58022 16.0725L5.71125 16.7039L6.04313 15.6823L5.17416 15.051H6.24835L6.58022 14.0294ZM12.6601 14.0294L12.992 15.051H14.0661L13.1971 15.6823L13.529 16.7039L12.6601 16.0725L11.791 16.7039L12.123 15.6823L11.2539 15.051H12.3281L12.6601 14.0294ZM18.7402 14.0294L19.0721 15.051H20.1463L19.2773 15.6823L19.6092 16.7039L18.7402 16.0725L17.8713 16.7039L18.2032 15.6823L17.3342 15.051H18.4083L18.7402 14.0294ZM24.8204 14.0294L25.1523 15.051H26.2265L25.3574 15.6823L25.6894 16.7039L24.8204 16.0725L23.9513 16.7039L24.2834 15.6823L23.4143 15.051H24.4885L24.8204 14.0294ZM30.9003 14.0294L31.2322 15.051H32.3062L31.4373 15.6823L31.7692 16.7039L30.9003 16.0725L30.0312 16.7039L30.3632 15.6823L29.4941 15.051H30.5683L30.9003 14.0294Z" fill="white"/>
<path fill-rule="evenodd" clip-rule="evenodd" d="M3.5401 16.614L3.87197 17.6355H4.94616L4.0771 18.2669L4.40906 19.2884L3.54 18.6571L2.67113 19.2884L3.003 18.2669L2.13403 17.6355H3.20813L3.5401 16.614ZM9.62006 16.614L9.95203 17.6355H11.0262L10.1572 18.2669L10.4891 19.2884L9.62006 18.6571L8.75119 19.2884L9.08306 18.2669L8.21409 17.6355H9.28819L9.62006 16.614ZM15.7003 16.614L16.0322 17.6355H17.1064L16.2373 18.2669L16.5693 19.2884L15.7003 18.6571L14.8313 19.2884L15.1632 18.2669L14.2943 17.6355H15.3684L15.7003 16.614ZM21.7802 16.614L22.1121 17.6355H23.1862L22.3172 18.2669L22.6491 19.2884L21.7802 18.6571L20.9111 19.2884L21.2431 18.2669L20.374 17.6355H21.4482L21.7802 16.614ZM27.8603 16.614L28.1922 17.6355H29.2664L28.3973 18.2669L28.7293 19.2884L27.8603 18.6571L26.9914 19.2884L27.3232 18.2669L26.4543 17.6355H27.5284L27.8603 16.614ZM33.9405 16.614L34.2724 17.6355H35.3466L34.4775 18.2669L34.8095 19.2884L33.9405 18.6571L33.0714 19.2884L33.4035 18.2669L32.5344 17.6355H33.6086L33.9405 16.614ZM6.58022 19.1986L6.9121 20.2202H7.98628L7.11722 20.8515L7.44928 21.8731L6.58022 21.2418L5.71125 21.8731L6.04313 20.8515L5.17416 20.2202H6.24835L6.58022 19.1986ZM12.6601 19.1986L12.992 20.2202H14.0661L13.1971 20.8515L13.529 21.8731L12.6601 21.2418L11.791 21.8731L12.123 20.8515L11.2539 20.2202H12.3281L12.6601 19.1986ZM18.7402 19.1986L19.0721 20.2202H20.1463L19.2773 20.8515L19.6092 21.8731L18.7402 21.2418L17.8713 21.8731L18.2032 20.8515L17.3342 20.2202H18.4083L18.7402 19.1986ZM24.8204 19.1986L25.1523 20.2202H26.2265L25.3574 20.8515L25.6894 21.8731L24.8204 21.2418L23.9513 21.8731L24.2834 20.8515L23.4143 20.2202H24.4885L24.8204 19.1986ZM30.9003 19.1986L31.2322 20.2202H32.3062L31.4373 20.8515L31.7692 21.8731L30.9003 21.2418L30.0312 21.8731L30.3632 20.8515L29.4941 20.2202H30.5683L30.9003 19.1986Z" fill="white"/>
<path fill-rule="evenodd" clip-rule="evenodd" d="M3.5401 21.7833L3.87197 22.8048H4.94616L4.0771 23.4362L4.40906 24.4577L3.54 23.8264L2.67113 24.4577L3.003 23.4362L2.13403 22.8048H3.20813L3.5401 21.7833ZM9.62006 21.7833L9.95203 22.8048H11.0262L10.1572 23.4362L10.4891 24.4577L9.62006 23.8264L8.75119 24.4577L9.08306 23.4362L8.21409 22.8048H9.28819L9.62006 21.7833ZM15.7003 21.7833L16.0322 22.8048H17.1064L16.2373 23.4362L16.5693 24.4577L15.7003 23.8264L14.8313 24.4577L15.1632 23.4362L14.2943 22.8048H15.3684L15.7003 21.7833ZM21.7802 21.7833L22.1121 22.8048H23.1862L22.3172 23.4362L22.6491 24.4577L21.7802 23.8264L20.9111 24.4577L21.2431 23.4362L20.374 22.8048H21.4482L21.7802 21.7833ZM27.8603 21.7833L28.1922 22.8048H29.2664L28.3973 23.4362L28.7293 24.4577L27.8603 23.8264L26.9914 24.4577L27.3232 23.4362L26.4543 22.8048H27.5284L27.8603 21.7833ZM33.9405 21.7833L34.2724 22.8048H35.3466L34.4775 23.4362L34.8095 24.4577L33.9405 23.8264L33.0714 24.4577L33.4035 23.4362L32.5344 22.8048H33.6086L33.9405 21.7833Z" fill="white"/>
</g>
<rect x="1" y="0.5" width="63" height="47" rx="3.5" stroke="#D2DCE4"/>
<defs>
<clipPath id="clip0_548_10160">
<rect x="0.5" width="64" height="48" rx="4" fill="white"/>
</clipPath>
</defs>
</svg>
