<svg width="135" height="31" viewBox="0 0 135 31" fill="none" xmlns="http://www.w3.org/2000/svg">
<g clip-path="url(#clip0_53466_8250)">
<path d="M31.8117 1.88863C32.1523 2.54106 31.982 3.09048 31.7435 3.67424C31.3688 4.63572 31.471 5.56287 32.1523 6.35266C32.8335 7.17678 33.7873 7.2798 34.7751 7.07376C36.1376 6.76472 36.921 5.45985 36.7167 4.01762C36.6145 3.33085 36.2057 2.64408 36.5804 1.88863C36.2398 2.06032 36.2398 2.06032 35.831 2.74709C35.4563 2.30069 35.1157 1.81995 34.707 1.33921C34.3663 0.961481 34.0257 0.618096 34.2301 0C33.8213 0.206032 33.617 0.480739 33.4807 0.824126C33.3785 1.16751 33.3104 1.5109 33.2423 1.85429C33.1742 2.19767 33.0038 2.50672 32.6632 2.71275C32.4588 2.33503 32.2545 2.06032 31.8117 1.88863Z" fill="#B8C4D0"/>
<path d="M2.81889 21.8994V6.06132L0.967041 5.75381V4.28722L5.79592 3.67219L6.61636 3.55493V4.1926V9.57528C6.80389 9.38605 7.0383 9.17315 7.3196 9.00757C7.57745 8.81833 7.88218 8.65275 8.18692 8.51082C8.5151 8.36889 8.84327 8.25062 9.21833 8.156C9.59339 8.06138 9.99189 8.01407 10.4138 8.01407C11.1639 8.01407 11.8672 8.13235 12.5235 8.39255C13.1799 8.65275 13.7659 9.05488 14.2582 9.59894C14.7504 10.1667 15.1489 10.8763 15.4537 11.7752C15.735 12.6741 15.8991 13.7385 15.8991 15.0395C15.8991 16.1513 15.735 17.1684 15.4068 18.1383C15.0786 19.1081 14.5864 19.9124 13.9534 20.622C13.3205 21.3317 12.547 21.8757 11.6562 22.2779C10.742 22.68 9.73404 22.8929 8.58542 22.8929C7.78842 22.8929 7.06174 22.8456 6.38195 22.7746C5.7256 22.7036 5.13957 22.609 4.6473 22.4908C4.15504 22.3725 3.75654 22.2779 3.4518 22.1596C3.14707 22.0413 2.91266 21.9704 2.81889 21.8994ZM8.84327 10.3086C8.32757 10.3086 7.88218 10.4032 7.50713 10.5924C7.13207 10.7817 6.82733 10.9946 6.61636 11.2311V20.5984C6.73357 20.7876 6.94454 20.9532 7.27271 21.0478C7.60089 21.1661 7.99939 21.2134 8.42133 21.2134C8.98392 21.2134 9.47618 21.0715 9.87468 20.764C10.2966 20.4564 10.6248 20.0543 10.9061 19.5339C11.1874 19.0135 11.3749 18.3985 11.5156 17.7125C11.6562 17.0265 11.7265 16.2696 11.7265 15.489C11.7265 14.6847 11.6797 13.9514 11.5624 13.2891C11.4452 12.6504 11.2812 12.1063 11.0233 11.6569C10.7889 11.2075 10.4842 10.8763 10.1091 10.6397C9.78092 10.4269 9.33554 10.3086 8.84327 10.3086Z" fill="#B8C4D0"/>
<path d="M17.9456 22.471V20.7915L19.7271 20.5549V10.9511L18.0393 10.4307V8.53834L22.2587 7.92331H22.3291L22.9854 8.46737V9.50818L22.962 11.4479H23.0088C23.1026 11.1877 23.2901 10.8565 23.548 10.4544C23.8058 10.0522 24.134 9.65011 24.5091 9.27163C24.8841 8.89316 25.3295 8.56199 25.8218 8.30179C26.314 8.04159 26.8532 7.89966 27.4392 7.89966C27.6971 7.89966 27.8846 7.89966 28.0253 7.92331C28.1659 7.94697 28.2831 7.97062 28.3769 7.99428V12.3231C28.2831 12.2521 28.0487 12.1812 27.6736 12.1102C27.2986 12.0392 26.8298 11.9919 26.3141 11.9919C26.0328 11.9919 25.728 12.0156 25.4467 12.0392C25.1654 12.0629 24.8841 12.1102 24.6263 12.1812C24.3684 12.2285 24.1575 12.2994 23.9465 12.3704C23.7355 12.4414 23.5949 12.5123 23.4777 12.5833V20.5313L26.5485 20.8388V22.471H17.9456Z" fill="#B8C4D0"/>
<path d="M31.0061 22.609V20.9295L32.8111 20.693V11.0892L31.1468 10.5451V8.67639L35.6943 8.06137L36.6554 7.96558V8.60542V20.6693L38.437 20.9295V22.609H31.0061Z" fill="#B8C4D0"/>
<path d="M46.7013 17.9953C45.9975 17.9953 45.3422 17.946 44.7597 17.8475C44.6141 17.9953 44.4927 18.1676 44.3956 18.3646C44.2986 18.5616 44.25 18.7832 44.25 19.0541C44.25 19.3496 44.2986 19.5958 44.4199 19.7928C44.5413 19.9651 44.7112 20.1129 44.9539 20.2114C45.1966 20.3099 45.4878 20.3837 45.8761 20.4084C46.2644 20.433 46.7013 20.4576 47.2109 20.4576H49.7593C51.6038 20.4576 52.9629 20.7777 53.8851 21.3933C54.7831 22.0335 55.2442 23.0677 55.2442 24.4959C55.2442 25.3577 55.0258 26.1703 54.5647 26.8843C54.1278 27.5984 53.5211 28.1894 52.7445 28.7065C51.9921 29.1989 51.0941 29.5929 50.099 29.8638C49.104 30.1346 48.0604 30.2824 46.9682 30.2824H46.944C45.7305 30.2824 44.7112 30.1839 43.8617 29.9623C43.0123 29.7407 42.3084 29.4452 41.7502 29.0758C41.192 28.7065 40.8037 28.2386 40.5368 27.7215C40.2698 27.2044 40.1484 26.6135 40.1484 25.9979C40.1484 25.6039 40.2212 25.2346 40.3669 24.8652C40.5125 24.5205 40.7066 24.2004 40.9493 23.9049C41.192 23.6094 41.459 23.3632 41.7988 23.1416C42.1143 22.92 42.4541 22.7476 42.7938 22.6245C42.3084 22.3536 41.9201 22.0335 41.6532 21.6395C41.3862 21.2456 41.2648 20.7777 41.2648 20.236C41.2648 19.5712 41.4347 19.0295 41.7745 18.5616C42.1143 18.1184 42.5511 17.6998 43.0851 17.3551C42.2114 16.9611 41.5804 16.3947 41.1678 15.656C40.7552 14.9173 40.5368 14.0555 40.5368 13.0706C40.5368 12.2826 40.7066 11.5932 41.0464 10.953C41.3862 10.3128 41.8716 9.77104 42.4541 9.32782C43.0608 8.8846 43.7404 8.53987 44.5413 8.29363C45.3422 8.0474 46.1916 7.92428 47.0896 7.92428H47.1139C49.2496 7.92428 50.8271 8.34288 51.8707 9.18008C51.9921 9.03234 52.162 8.8846 52.3561 8.73686C52.5503 8.58911 52.793 8.44137 53.06 8.31826C53.3269 8.19514 53.6182 8.09665 53.9337 8.02278C54.2492 7.94891 54.589 7.89966 54.953 7.89966H55.5597V10.8052H53.0357C53.1328 11.0761 53.2056 11.3716 53.2541 11.667C53.3027 11.9625 53.3269 12.3073 53.3269 12.652C53.3269 13.4399 53.157 14.154 52.8415 14.7942C52.526 15.4344 52.0649 16.0008 51.4824 16.4932C50.8999 16.9611 50.1961 17.3304 49.3952 17.6013C48.57 17.8722 47.6963 17.9953 46.7013 17.9953ZM46.046 23.2401C45.4878 23.2401 44.9781 23.1908 44.517 23.1169C44.3471 23.3139 44.1772 23.5602 44.0316 23.8556C43.886 24.1511 43.8132 24.5944 43.8132 25.1114C43.8132 25.7024 43.886 26.1949 44.0316 26.5888C44.1772 26.9828 44.4199 27.3276 44.7112 27.5738C45.0024 27.82 45.3907 28.017 45.8276 28.1155C46.2644 28.2386 46.7741 28.2879 47.3566 28.2879H47.3808C47.8905 28.2879 48.4002 28.2386 48.9098 28.1155C49.3952 27.9924 49.8563 27.82 50.2447 27.5738C50.633 27.3276 50.9485 27.0075 51.1669 26.6381C51.4096 26.2687 51.531 25.8255 51.531 25.3331C51.531 24.9637 51.4824 24.619 51.4096 24.3481C51.3368 24.0773 51.1912 23.8556 50.9728 23.6833C50.7543 23.5109 50.4874 23.3878 50.1233 23.3139C49.7593 23.2401 49.2981 23.1908 48.7399 23.1908H46.046V23.2401ZM47.0168 16.2716C47.4536 16.2716 47.8177 16.1731 48.1089 16.0008C48.4002 15.8284 48.6186 15.5822 48.7885 15.2867C48.9584 14.9912 49.0554 14.6219 49.1283 14.2033C49.2011 13.7847 49.2253 13.3414 49.2253 12.8982C49.2253 11.7655 49.0554 10.9283 48.6914 10.4112C48.3274 9.89416 47.7449 9.64792 46.8954 9.64792H46.8712C46.0703 9.64792 45.4878 9.91878 45.1237 10.4359C44.7597 10.953 44.5655 11.7163 44.5655 12.7751C44.5655 13.2922 44.6141 13.76 44.6869 14.1786C44.7597 14.5972 44.9053 14.9666 45.0752 15.2867C45.2694 15.5822 45.5121 15.8284 45.8276 16.0008C46.1431 16.1731 46.5314 16.2716 47.0168 16.2716Z" fill="#B8C4D0"/>
<path d="M56.9327 22.609V20.9295L58.4563 20.6693V5.92472L56.6045 5.61721V4.15062L61.4099 3.5356L61.6893 3.48828H62.2117L62.2538 8.08495L62.2117 9.87467C62.4226 9.66178 62.5585 9.64616 62.9102 9.40962C63.2618 9.17307 63.6134 8.96018 64.0353 8.77094C64.4573 8.5817 64.9261 8.41612 65.4184 8.27419C65.9106 8.15592 66.4498 8.08495 66.9889 8.08495C67.7859 8.08495 68.4657 8.20323 68.9814 8.41612C69.4971 8.62901 69.9191 8.98383 70.2473 9.45693C70.5754 9.93002 70.763 10.5214 70.9036 11.231C71.0208 11.9407 71.0911 12.7922 71.0911 13.7621V20.6693L72.8258 20.9295V22.609H65.9106V20.9768L67.2937 20.6929V13.7384C67.2937 13.1707 67.2702 12.674 67.1999 12.2482C67.153 11.8224 67.0358 11.4912 66.8717 11.2074C66.7076 10.9235 66.4967 10.7343 66.2154 10.616C65.9341 10.4977 65.559 10.4268 65.1136 10.4268C64.8558 10.4268 64.5979 10.4504 64.3166 10.5214C64.0353 10.5924 63.7775 10.6633 63.5431 10.7343C63.2852 10.8289 63.0508 10.9235 62.8398 11.0418C62.6289 11.1601 62.4413 11.2783 62.2773 11.3966V20.6929L63.965 20.9531V22.6326H56.9327V22.609Z" fill="#B8C4D0"/>
<path d="M75.5789 19.7132V10.5352H73.8442V9.11587C73.9146 9.09221 74.0083 9.06856 74.149 9.02125C74.2896 8.97394 74.4303 8.90297 74.5944 8.85567C74.735 8.80836 74.8756 8.73739 75.0163 8.69008C75.1569 8.64277 75.2273 8.59546 75.2507 8.57181C75.532 8.35892 75.8133 7.95679 76.118 7.36542C76.2118 7.19984 76.2821 7.0106 76.3993 6.77405C76.5165 6.5375 76.5869 6.32461 76.6806 6.08806C76.7744 5.85152 76.8682 5.61497 76.9385 5.37842C77.0322 5.14188 77.0791 4.92898 77.1494 4.73975H79.3529L79.3998 8.42988H83.0332V10.5588H79.3998V17.466C79.3998 18.1283 79.3998 18.6487 79.4232 19.0508C79.4467 19.453 79.4936 19.7368 79.5639 19.9261C79.6342 20.1153 79.7749 20.2572 79.9389 20.3045C80.103 20.3519 80.3374 20.3992 80.6187 20.3992H80.6422C80.8297 20.3992 81.0407 20.3755 81.2751 20.3519C81.4861 20.3282 81.697 20.2809 81.908 20.2336C82.119 20.1863 82.3065 20.139 82.494 20.0917C82.6816 20.0443 82.8222 19.997 82.9394 19.9497H82.9629L83.5489 21.4163C83.291 21.6056 83.0097 21.7948 82.6347 21.984C82.2596 22.1733 81.8846 22.3389 81.4392 22.5044C80.9938 22.67 80.5484 22.7883 80.0561 22.8829C79.5639 22.9775 79.0951 23.0248 78.6028 23.0248H78.5794C78.0402 23.0248 77.5714 22.9539 77.1963 22.8119C76.8213 22.67 76.4931 22.4571 76.2587 22.1733C76.0243 21.8894 75.8602 21.5582 75.743 21.1325C75.6258 20.7067 75.5789 20.2572 75.5789 19.7132Z" fill="#B8C4D0"/>
<path d="M94.2653 22.9669C93.5386 22.9669 92.8354 22.8249 92.1556 22.5411C91.4758 22.2572 90.8897 21.8078 90.3975 21.2401C89.8818 20.6487 89.4833 19.9154 89.1785 19.0402C88.8738 18.165 88.7332 17.1242 88.7332 15.9178C88.7332 14.806 88.8972 13.7888 89.2254 12.8427C89.5536 11.8965 90.0459 11.0685 90.6553 10.3589C91.2882 9.64927 92.0384 9.10521 92.9291 8.70308C93.8199 8.30095 94.8279 8.11171 95.953 8.11171C96.3515 8.11171 96.7266 8.13537 97.1251 8.18267C97.5002 8.22998 97.8752 8.27729 98.2268 8.34826V5.72392L95.7889 5.48738V4.30464L100.337 3.76058H100.407L101.016 3.68652V21.1928H102.493V22.5174C102.142 22.612 101.743 22.7067 101.274 22.8249C100.805 22.9432 100.313 22.9905 99.7974 22.9905C99.5864 22.9905 99.3754 22.9669 99.2114 22.9432C99.0473 22.9196 98.9066 22.8486 98.7894 22.754C98.6722 22.6594 98.5784 22.5174 98.5316 22.3518C98.4847 22.1863 98.4378 21.9497 98.4378 21.6659V21.1218C98.2268 21.3583 97.969 21.5712 97.6877 21.8078C97.4064 22.0443 97.1017 22.2336 96.75 22.3992C96.3984 22.5647 96.0234 22.7067 95.6014 22.8249C95.2029 22.8959 94.7575 22.9669 94.2653 22.9669ZM95.4139 21.0508C95.7421 21.0508 96.0468 21.0035 96.3515 20.9326C96.6328 20.8379 96.9141 20.7433 97.1485 20.625C97.3829 20.5068 97.5939 20.3648 97.7814 20.2229C97.969 20.081 98.1331 19.9391 98.2503 19.7971V10.2879C98.2034 10.1933 98.0862 10.0987 97.9455 10.0041C97.7814 9.90947 97.6174 9.81485 97.3829 9.74389C97.172 9.67292 96.9141 9.60196 96.6563 9.5783C96.3984 9.53099 96.1171 9.50734 95.8124 9.50734C95.2498 9.50734 94.7341 9.60196 94.2653 9.81485C93.773 10.0277 93.3511 10.3589 92.976 10.832C92.6009 11.3051 92.3197 11.9201 92.1087 12.6771C91.8977 13.434 91.7805 14.3566 91.7571 15.4447C91.7336 16.4145 91.8274 17.2661 92.0149 17.9757C92.2024 18.6854 92.4603 19.2531 92.7885 19.7262C93.1167 20.1756 93.5152 20.5304 93.9605 20.7433C94.4059 20.9326 94.8982 21.0508 95.4139 21.0508Z" fill="#B8C4D0"/>
<path d="M102.838 18.9969C102.838 18.4056 102.956 17.8615 103.167 17.3884C103.378 16.9153 103.682 16.5132 104.081 16.1347C104.479 15.7799 104.925 15.4724 105.44 15.2122C105.956 14.952 106.519 14.7627 107.128 14.5972C107.738 14.4316 108.37 14.3133 109.027 14.2423C109.683 14.1714 110.34 14.1241 110.972 14.1004V13.4381C110.972 12.8467 110.926 12.35 110.855 11.9478C110.761 11.5457 110.621 11.2145 110.433 10.9543C110.222 10.6941 109.964 10.5049 109.613 10.4103C109.285 10.292 108.839 10.2447 108.324 10.2447C107.878 10.2447 107.433 10.292 106.987 10.363C106.542 10.4576 106.12 10.5522 105.698 10.6705C105.3 10.7888 104.925 10.9307 104.573 11.049C104.221 11.1909 103.94 11.3092 103.706 11.4274H103.682L103.12 10.221C103.284 10.0791 103.542 9.88988 103.94 9.65333C104.339 9.41679 104.807 9.20389 105.347 8.96735C105.886 8.75445 106.472 8.56522 107.081 8.39963C107.714 8.23405 108.324 8.16309 108.933 8.16309C109.8 8.16309 110.527 8.2577 111.137 8.42329C111.723 8.61253 112.215 8.89638 112.59 9.27486C112.965 9.67699 113.223 10.1737 113.387 10.8124C113.551 11.4511 113.621 12.208 113.621 13.1306V21.3624H115.145V22.5688C114.981 22.6161 114.793 22.6634 114.582 22.7107C114.371 22.758 114.137 22.8054 113.903 22.8527C113.668 22.9 113.41 22.9473 113.176 22.9709C112.942 22.9946 112.684 23.0182 112.473 23.0182C112.238 23.0182 112.051 23.0182 111.863 22.9946C111.699 22.9709 111.558 22.9236 111.441 22.829C111.324 22.7344 111.254 22.6161 111.207 22.4269C111.16 22.2613 111.137 22.0247 111.137 21.7172V21.2441C111.019 21.3388 110.855 21.4807 110.621 21.6936C110.386 21.8828 110.082 22.0957 109.73 22.2849C109.378 22.4742 108.98 22.6634 108.511 22.8053C108.066 22.9473 107.573 23.0182 107.058 23.0182C106.495 23.0182 105.956 22.9473 105.44 22.7817C104.925 22.6161 104.479 22.3796 104.081 22.0721C103.682 21.7409 103.378 21.3388 103.143 20.8184C102.909 20.2979 102.838 19.7066 102.838 18.9969ZM108.16 21.1259C108.324 21.1259 108.535 21.1022 108.769 21.0549C109.003 21.0076 109.261 20.9366 109.519 20.8657C109.777 20.771 110.035 20.6764 110.269 20.5582C110.527 20.4399 110.738 20.298 110.949 20.156V15.5197C109.964 15.5197 109.144 15.6143 108.464 15.7799C107.808 15.9455 107.269 16.182 106.87 16.4659C106.472 16.7497 106.19 17.0809 106.026 17.4594C105.862 17.8379 105.769 18.2163 105.769 18.6185C105.769 19.0679 105.839 19.47 105.956 19.7775C106.073 20.0851 106.237 20.3453 106.448 20.5582C106.659 20.7474 106.917 20.913 107.198 20.9839C107.527 21.0786 107.831 21.1259 108.16 21.1259Z" fill="#B8C4D0"/>
<path d="M115.852 19.7841V10.0147H114.07V8.83201C114.328 8.73739 114.586 8.66643 114.82 8.57181C115.078 8.47719 115.266 8.40623 115.36 8.31161C115.641 8.12237 115.852 7.81486 116.063 7.36542C116.133 7.22349 116.203 7.0106 116.321 6.77405C116.414 6.5375 116.508 6.2773 116.602 6.0171C116.696 5.7569 116.789 5.52035 116.86 5.2838C116.93 5.04726 117 4.85802 117.024 4.73975H118.618V8.19333H122.767V10.0147H118.618V17.5133C118.618 18.2466 118.618 18.838 118.641 19.2637C118.665 19.6895 118.712 19.997 118.805 20.1863C118.899 20.3755 119.04 20.5174 119.227 20.5647C119.415 20.6121 119.673 20.6357 120.001 20.6357H120.024C120.259 20.6357 120.517 20.6121 120.774 20.5884C121.032 20.5647 121.29 20.5174 121.525 20.4701C121.782 20.4228 121.993 20.3755 122.204 20.3282C122.415 20.2809 122.579 20.2336 122.697 20.1626H122.72L123.142 21.3927C122.955 21.5346 122.673 21.7002 122.322 21.8658C121.97 22.0313 121.595 22.1733 121.196 22.3152C120.798 22.4571 120.376 22.5517 119.931 22.6464C119.485 22.741 119.087 22.7883 118.688 22.7883H118.665C118.219 22.7883 117.844 22.741 117.493 22.6464C117.141 22.5517 116.86 22.3862 116.602 22.1496C116.368 21.9131 116.18 21.6056 116.039 21.2271C115.922 20.8013 115.852 20.3282 115.852 19.7841Z" fill="#B8C4D0"/>
<path d="M123.213 18.7335C123.213 18.1421 123.33 17.5981 123.541 17.125C123.752 16.6519 124.057 16.2498 124.455 15.8713C124.854 15.5165 125.299 15.209 125.815 14.9488C126.33 14.6886 126.893 14.4993 127.502 14.3337C128.112 14.1682 128.745 14.0499 129.401 13.9789C130.057 13.908 130.714 13.8606 131.347 13.837V13.1747C131.347 12.5833 131.3 12.0865 131.23 11.6844C131.136 11.2823 130.995 10.9511 130.808 10.6909C130.597 10.4307 130.339 10.2415 129.987 10.1469C129.659 10.0286 129.214 9.98127 128.698 9.98127C128.252 9.98127 127.807 10.0286 127.362 10.0995C126.916 10.1942 126.494 10.2888 126.072 10.4071C125.674 10.5253 125.299 10.6673 124.947 10.7855C124.596 10.9275 124.314 11.0457 124.08 11.164H124.057L123.494 9.95762C123.658 9.81569 123.916 9.62645 124.314 9.3899C124.713 9.15336 125.182 8.94047 125.721 8.70392C126.26 8.49103 126.846 8.30179 127.455 8.13621C128.088 7.97062 128.698 7.89966 129.307 7.89966C130.175 7.89966 130.901 7.99428 131.511 8.15986C132.097 8.3491 132.589 8.63295 132.964 9.01143C133.339 9.41356 133.597 9.91031 133.761 10.549C133.925 11.1877 133.996 11.9446 133.996 12.8671V21.099H135.519V22.3054C135.355 22.3527 135.168 22.4 134.957 22.4473C134.746 22.4946 134.511 22.5419 134.277 22.5892C134.042 22.6365 133.785 22.6839 133.55 22.7075C133.316 22.7312 133.058 22.7548 132.847 22.7548C132.613 22.7548 132.425 22.7548 132.237 22.7312C132.073 22.7075 131.933 22.6602 131.816 22.5656C131.698 22.471 131.628 22.3527 131.581 22.1634C131.534 21.9979 131.511 21.7613 131.511 21.4538V20.9807C131.394 21.0753 131.23 21.2173 130.995 21.4302C130.761 21.6194 130.456 21.8323 130.104 22.0215C129.753 22.2108 129.354 22.4 128.885 22.5419C128.44 22.6838 127.948 22.7548 127.432 22.7548C126.869 22.7548 126.33 22.6838 125.815 22.5183C125.299 22.3527 124.854 22.1161 124.455 21.8086C124.057 21.4775 123.752 21.0753 123.517 20.5549C123.283 20.0345 123.213 19.4432 123.213 18.7335ZM128.557 20.8624C128.721 20.8624 128.932 20.8388 129.167 20.7915C129.401 20.7442 129.659 20.6732 129.917 20.6022C130.175 20.5076 130.433 20.413 130.667 20.2947C130.925 20.1765 131.136 20.0345 131.347 19.8926V15.2563C130.362 15.2563 129.542 15.3509 128.862 15.5165C128.206 15.6821 127.666 15.9186 127.268 16.2025C126.869 16.4863 126.588 16.8175 126.424 17.196C126.26 17.5744 126.166 17.9529 126.166 18.355C126.166 18.8045 126.237 19.2066 126.354 19.5141C126.471 19.8216 126.635 20.0818 126.846 20.2947C127.057 20.484 127.315 20.6495 127.596 20.7205C127.924 20.8151 128.229 20.8624 128.557 20.8624Z" fill="#B8C4D0"/>
</g>
<defs>
<clipPath id="clip0_53466_8250">
<rect width="134" height="30.2825" fill="white" transform="translate(0.967041)"/>
</clipPath>
</defs>
</svg>
