<svg width="51" height="51" viewBox="0 0 51 51" fill="none" xmlns="http://www.w3.org/2000/svg">
<path d="M25.4019 40.1601C36.3745 40.1601 45.2696 31.265 45.2696 20.2924C45.2696 9.31977 36.3745 0.424698 25.4019 0.424698C14.4292 0.424698 5.53418 9.31977 5.53418 20.2924C5.53418 31.265 14.4292 40.1601 25.4019 40.1601Z" fill="#C6DBFF"/>
<path d="M9.30425 31.9156L2.46826 43.7653L10.4469 43.3418L14.0717 50.4634L20.3955 39.5002C15.8644 38.328 11.9736 35.5996 9.30425 31.9156Z" fill="#3D7FFC"/>
<path d="M41.5329 31.8611C38.8832 35.5549 34.9924 38.2932 30.4712 39.4851L36.8147 50.4679L40.4395 43.3463L48.4181 43.7699L41.5329 31.8611Z" fill="#3D7FFC"/>
<path d="M25.3989 34.6903C33.3523 34.6903 39.7998 28.2428 39.7998 20.2895C39.7998 12.3361 33.3523 5.88858 25.3989 5.88858C17.4455 5.88858 10.998 12.3361 10.998 20.2895C10.998 28.2428 17.4455 34.6903 25.3989 34.6903Z" fill="#3D7FFC"/>
<path d="M33.9302 17.9167C34.3113 17.5268 34.0996 16.8444 33.5745 16.7647L28.6879 16.0202C28.4762 15.9848 28.2984 15.8519 28.2052 15.648L26.0202 11.0131C25.7831 10.508 25.0971 10.508 24.86 11.0131L22.6834 15.648C22.5903 15.843 22.404 15.9848 22.2007 16.0202L17.3141 16.7647C16.7891 16.8444 16.5773 17.5268 16.9584 17.9167L20.49 21.5237C20.6424 21.6832 20.7102 21.9047 20.6763 22.1174L19.8463 27.2043C19.7532 27.7538 20.3121 28.1791 20.7864 27.9133L25.1564 25.5116C25.3427 25.4053 25.5714 25.4053 25.7577 25.5116L30.1277 27.9133C30.6019 28.1703 31.1524 27.7538 31.0677 27.2043L30.2293 22.1174C30.1954 21.8959 30.2632 21.6743 30.4156 21.5237L33.9302 17.9167Z" fill="#FECE4D"/>
</svg>
