<svg width="64" height="64" viewBox="0 0 64 64" fill="none" xmlns="http://www.w3.org/2000/svg">
<path d="M5.647 9.41177V12.1223C5.64324 14.7455 5.99129 17.3571 6.68237 19.8808L8.19748 25.4118L19.7646 13.4287L17.803 12.4074C14.0303 10.4422 9.86811 9.41698 5.647 9.41177Z" fill="#C6DBFF"/>
<path d="M40.5545 12.3744L38.5884 13.391L50.1174 25.4118L51.65 19.8833C52.3465 17.3603 52.7023 14.7488 52.706 12.1236V9.4118C48.4895 9.40529 44.3288 10.4199 40.5545 12.3744Z" fill="#C6DBFF"/>
<path d="M52.9151 38.5882H58.353C58.353 42.2266 55.3101 45.1765 51.5556 45.1765H46.1177C46.1177 41.5375 49.1612 38.5882 52.9151 38.5882Z" fill="#FECE4D"/>
<path d="M46.1177 45.1765H51.5556C55.3101 45.1765 58.353 48.1257 58.353 51.7647H52.9151C49.1612 51.7647 46.1177 48.8148 46.1177 45.1765Z" fill="#FECE4D"/>
<path d="M46.1177 38.5882H12.2354V42.4232C12.5427 47.613 15.3711 52.3458 19.8463 55.1568C21.5834 56.2442 23.3645 57.2633 25.1888 58.2133C25.2683 58.2537 25.3453 58.2998 25.4248 58.3402L29.0995 60.2353L33.009 58.0958L37.2106 55.804L37.7317 55.5162C42.6034 52.8009 45.7537 47.8766 46.1177 42.4083V38.5882Z" fill="#FECE4D"/>
<path d="M35.1297 48.9412H23.2235C22.0476 48.9412 20.9064 48.5317 19.9882 47.7795L10.4119 39.9334C9.18537 38.9283 8.47133 37.407 8.4707 35.7985V25.9679C8.4707 24.5625 9.01666 23.2146 9.98725 22.2211L17.3071 14.7287C18.2777 13.7346 19.5952 13.1765 20.9683 13.1765H37.3855C38.7586 13.1765 40.0755 13.7346 41.0461 14.7287L48.3659 22.2211C49.3371 23.2146 49.8825 24.5625 49.8825 25.9679V35.7985C49.8825 37.407 49.1684 38.9283 47.9413 39.9334L38.3649 47.7782C37.4468 48.5304 36.3056 48.9412 35.1297 48.9412Z" fill="#C6DBFF"/>
<path d="M40.396 28.2353C36.2611 28.308 32.6052 30.8861 31.2205 34.7059H27.1275C25.7428 30.8861 22.0869 28.308 17.9514 28.2353C13.8868 28.3023 10.2753 30.7957 8.84161 34.5245C7.98678 36.642 8.64369 39.0584 10.4604 40.4776L19.7996 47.8063C20.7363 48.5412 21.9006 48.9412 23.1003 48.9412H35.2471C36.4468 48.9412 37.6111 48.5412 38.5478 47.8063L47.8928 40.4789C49.7095 39.0596 50.3664 36.6433 49.5116 34.5258C48.0772 30.7945 44.4632 28.3004 40.396 28.2353Z" fill="#9FC0FF"/>
<path d="M27.9214 29.1765H30.4312C31.8173 29.1765 32.941 30.4407 32.941 32C32.941 33.5593 31.8173 34.8235 30.4312 34.8235H27.9214C26.5354 34.8235 25.4116 33.5593 25.4116 32C25.4116 30.4407 26.5354 29.1765 27.9214 29.1765Z" fill="#3D7FFC"/>
<path d="M32.941 39.7647C32.941 41.7138 31.2554 43.2941 29.1763 43.2941C27.0973 43.2941 25.4116 41.7138 25.4116 39.7647L29.1763 38.5882L32.941 39.7647Z" fill="#C6DBFF"/>
<path d="M22.5882 25.4118C22.5882 26.971 21.5347 28.2353 20.2353 28.2353C18.9359 28.2353 17.8823 26.971 17.8823 25.4118C17.8823 23.8525 18.9359 22.5882 20.2353 22.5882C21.5347 22.5882 22.5882 23.8525 22.5882 25.4118Z" fill="#3D7FFC"/>
<path d="M41.4117 25.4118C41.4117 26.971 40.1475 28.2353 38.5882 28.2353C37.0289 28.2353 35.7646 26.971 35.7646 25.4118C35.7646 23.8525 37.0289 22.5882 38.5882 22.5882C40.1475 22.5882 41.4117 23.8525 41.4117 25.4118Z" fill="#3D7FFC"/>
<path d="M18.8232 17.8824H21.6468V19.7647H18.8232V17.8824Z" fill="#3D7FFC"/>
<path d="M36.7061 18.8235H39.5296V20.7059H36.7061V18.8235Z" fill="#3D7FFC"/>
<path d="M37.3294 35.3492L35.6694 37.5785C35.3705 37.9756 34.8348 38.1741 34.3094 38.0818L30.4981 37.3996V34.8235H27.8543V37.3996L24.0436 38.0818C23.5182 38.1758 22.9818 37.9767 22.6843 37.5785L21.0229 35.3492L18.8232 36.661L20.4853 38.8891C21.3747 40.0866 22.9864 40.6833 24.5632 40.3993L29.1762 39.5724L33.7898 40.3993C35.366 40.6867 36.9803 40.0889 37.8678 38.8891L39.5291 36.661L37.3294 35.3492Z" fill="#3D7FFC"/>
</svg>
