<svg width="92" height="32" viewBox="0 0 92 32" fill="none" xmlns="http://www.w3.org/2000/svg">
<path fill-rule="evenodd" clip-rule="evenodd" d="M5.32658 17.2478H15.302V13.7996H5.32658V9.47607H16.1956V5.74744H0.800049V25.922H16.4263V22.1917H5.32658V17.2478ZM26.8891 5.80709H17.6054V25.9821H22.1313V18.7488H26.8891C32.0204 18.7488 34.0101 15.5554 34.0101 12.2774C34.0101 8.99941 32.021 5.80709 26.8891 5.80709ZM25.6487 15.3011H22.1313V9.25428H25.6487C27.7534 9.25428 29.6274 9.70707 29.6274 12.2774C29.6274 14.8499 27.7534 15.3011 25.6487 15.3011ZM45.6349 14.2675C40.4743 12.9677 39.4938 12.7693 39.4938 11.2162C39.4938 9.52053 41.1659 8.92675 42.6078 8.92675C44.7695 8.92675 46.5279 9.54819 46.6723 11.9781H51.0555C51.0555 7.31621 47.1055 5.4801 42.8086 5.4801C39.0905 5.4801 35.1111 7.45775 35.1111 11.5817C35.1111 15.3683 38.1963 16.5272 41.2522 17.3183C44.2793 18.1095 47.3639 18.4772 47.3639 20.6533C47.3639 22.7144 44.9421 23.1678 43.3569 23.1678C40.9352 23.1678 38.8011 22.1223 38.8011 19.4375H34.4195C34.362 24.4112 38.629 26.615 43.1838 26.615C48.7776 26.615 51.7472 23.8467 51.7472 20.1446C51.7472 15.5679 47.1338 14.6352 45.6349 14.2675ZM62.5044 5.39062C56.1326 5.39062 52.384 10.0536 52.384 16.0446C52.384 21.8642 56.1326 26.5277 62.5044 26.5277C68.875 26.5277 72.6236 21.8642 72.6236 16.0446C72.6236 10.0536 68.875 5.39062 62.5044 5.39062ZM62.5044 22.7974C58.4387 22.7974 56.9111 19.405 56.9111 16.0446C56.9111 12.5122 58.4393 9.12088 62.5044 9.12088C66.5689 9.12088 68.0977 12.5117 68.0977 16.0446C68.0977 19.4055 66.5689 22.7974 62.5044 22.7974ZM91.2001 5.82715H86.9618V19.3627H86.9053L78.3121 5.82715H73.8154V26.0028H78.0526V12.496H78.1112L86.6741 26.0028H91.2001V5.82715Z" fill="#70879C"/>
</svg>
