<svg width="84" height="24" viewBox="0 0 84 24" fill="none" xmlns="http://www.w3.org/2000/svg">
<path d="M34.6851 19.4303H34.6479C34.6646 19.4303 34.6758 19.449 34.6925 19.4508H34.7037L34.6851 19.4321V19.4303ZM34.6925 19.4508C34.5197 19.4527 34.0848 19.5443 33.6257 19.5443C32.1761 19.5443 31.6743 18.8714 31.6743 17.9928V12.1403H34.6293C34.7966 12.1403 34.9267 11.9908 34.9267 11.7852V8.6075C34.9267 8.43927 34.778 8.28973 34.6293 8.28973H31.6743V4.34568C31.6743 4.19615 31.5814 4.10268 31.4141 4.10268H27.3998C27.2325 4.10268 27.1396 4.19615 27.1396 4.34568V8.40189C27.1396 8.40189 25.1139 8.90658 24.9838 8.92527C24.8351 8.96265 24.7422 9.0935 24.7422 9.24303V11.7852C24.7422 11.9908 24.8908 12.1403 25.0581 12.1403H27.121V18.2714C27.121 22.8323 30.2805 23.2996 32.4363 23.2996C33.4213 23.2996 34.6107 22.9818 34.7966 22.8883C34.9081 22.8509 34.9638 22.7201 34.9638 22.5893V19.7854C34.9664 19.7059 34.9404 19.6281 34.8905 19.5663C34.8407 19.5045 34.7704 19.4629 34.6925 19.449V19.4508ZM78.7312 15.3367C78.7312 11.9534 77.3745 11.5048 75.9435 11.6543C74.8284 11.7291 73.9363 12.2899 73.9363 12.2899V18.8695C73.9363 18.8695 74.847 19.505 76.2036 19.5424C78.1179 19.5985 78.7312 18.9069 78.7312 15.3367ZM83.2473 15.0376C83.2473 21.449 81.1844 23.2809 77.5789 23.2809C74.531 23.2809 72.8955 21.7294 72.8955 21.7294C72.8955 21.7294 72.8212 22.5893 72.7283 22.7014C72.6725 22.8136 72.5796 22.8509 72.4681 22.8509H69.7175C69.5317 22.8509 69.3644 22.7014 69.3644 22.5332L69.4016 1.76616C69.4016 1.59793 69.5503 1.44839 69.7175 1.44839H73.6761C73.8434 1.44839 73.9921 1.59793 73.9921 1.76616V8.81311C73.9921 8.81311 75.516 7.82243 77.7462 7.82243L77.7276 7.78505C79.9578 7.78505 83.2473 8.62619 83.2473 15.0376ZM67.0413 8.28973H63.1385C62.9341 8.28973 62.8225 8.43927 62.8225 8.64489V18.8134C62.8225 18.8134 61.8004 19.5424 60.4065 19.5424C59.0126 19.5424 58.6038 18.9069 58.6038 17.505V8.62619C58.6038 8.45796 58.4551 8.30843 58.2878 8.30843H54.3107C54.1434 8.30843 53.9947 8.45796 53.9947 8.62619V18.1779C53.9947 22.2902 56.2807 23.3182 59.4215 23.3182C62.0048 23.3182 64.1049 21.879 64.1049 21.879C64.1049 21.879 64.1978 22.6079 64.2536 22.7201C64.2907 22.8136 64.4208 22.8883 64.5509 22.8883H67.0413C67.2457 22.8883 67.3573 22.7388 67.3573 22.5706L67.3944 8.6075C67.3944 8.43927 67.2457 8.28973 67.0413 8.28973ZM22.9952 8.27104H19.0366C18.8693 8.27104 18.7207 8.43927 18.7207 8.64489V22.3649C18.7207 22.7388 18.9623 22.8696 19.2782 22.8696H22.8465C23.2182 22.8696 23.3111 22.7014 23.3111 22.3649V8.58881C23.3111 8.42058 23.1625 8.27104 22.9952 8.27104ZM21.0438 1.95308C19.6127 1.95308 18.4791 3.09331 18.4791 4.5326C18.4791 5.9719 19.6127 7.11213 21.0438 7.11213C22.4376 7.11213 23.5713 5.9719 23.5713 4.5326C23.5713 3.09331 22.4376 1.95308 21.0438 1.95308ZM51.6902 1.48578H47.7688C47.6015 1.48578 47.4529 1.63532 47.4529 1.80355V9.44865H41.3013V1.80355C41.3013 1.63532 41.1526 1.48578 40.9853 1.48578H37.0268C36.8595 1.48578 36.7108 1.63532 36.7108 1.80355V22.5706C36.7108 22.7388 36.8781 22.8883 37.0268 22.8883H40.9853C41.1526 22.8883 41.3013 22.7388 41.3013 22.5706V13.6918H47.4529L47.4157 22.5706C47.4157 22.7388 47.5644 22.8883 47.7316 22.8883H51.6902C51.8575 22.8883 52.0062 22.7388 52.0062 22.5706V1.80355C52.0062 1.63532 51.8575 1.48578 51.6902 1.48578ZM16.6206 10.6823V21.4116C16.6206 21.4864 16.602 21.6173 16.5091 21.6546C16.5091 21.6546 14.186 23.3182 10.3575 23.3182C5.72985 23.3182 0.247314 21.8603 0.247314 12.2525C0.247314 2.64469 5.04221 0.663323 9.72559 0.682015C13.7771 0.682015 15.4126 1.59793 15.6728 1.76616C15.7471 1.85962 15.7843 1.93439 15.7843 2.02785L15.0037 5.35506C15.0037 5.52329 14.8364 5.72891 14.632 5.67283C13.9629 5.46721 12.9594 5.05599 10.5991 5.05599C7.86711 5.05599 4.9307 5.84106 4.9307 12.0282C4.9307 18.2153 7.71843 18.9443 9.72559 18.9443C11.4354 18.9443 12.0487 18.7387 12.0487 18.7387V14.4395H9.31673C9.11229 14.4395 8.96362 14.2899 8.96362 14.1217V10.6823C8.96362 10.5141 9.11229 10.3646 9.31673 10.3646H16.2675C16.4719 10.3646 16.6206 10.5141 16.6206 10.6823Z" fill="#B8C4D0"/>
</svg>
