<svg width="51" height="51" viewBox="0 0 51 51" fill="none" xmlns="http://www.w3.org/2000/svg">
<g id="home_res">
<g id="Layer_1" clip-path="url(#clip0_13696_21138)">
<path id="Vector" d="M48.5057 22.6437L27.5904 4.63132C26.7974 3.95161 25.5229 3.93745 24.7299 4.63132L3.6447 22.6295C3.20572 23.0119 2.9225 23.5358 2.88002 24.1306C2.83754 24.7111 3.02163 25.2776 3.40397 25.7307C4.16864 26.6087 5.61303 26.7361 6.50515 25.9714L7.87874 24.7961V42.6385C7.87874 43.8564 8.86998 44.8334 10.0736 44.8334H22.0851C23.3029 44.8334 24.28 43.8422 24.28 42.6385V29.5116H28.2272V42.6385C28.2272 43.8564 29.2184 44.8334 30.4221 44.8334H42.0626C43.2804 44.8334 44.2575 43.8422 44.2575 42.6385V24.7961L45.6311 25.9714C46.0276 26.3113 46.5374 26.5095 47.0613 26.5095C47.6985 26.5095 48.3074 26.2263 48.7323 25.7449C49.1146 25.3059 49.2987 24.7253 49.2562 24.1447C49.2137 23.5641 48.9447 23.026 48.4915 22.6437H48.5057ZM30.4363 25.1076H22.0851C20.8673 25.1076 19.8902 26.0989 19.8902 27.3025V40.4295H12.2685V21.2984C12.2685 21.2135 12.2544 21.1427 12.2402 21.0577L26.1602 9.19105L39.9102 21.0294C39.9102 21.1143 39.8818 21.2135 39.8818 21.2984V40.4295H32.6312V27.3025C32.6312 26.0847 31.6399 25.1076 30.4363 25.1076Z" fill="#BFBAFC"/>
</g>
</g>
<defs>
<clipPath id="clip0_13696_21138">
<rect width="46.3903" height="40.7119" fill="white" transform="translate(2.87988 4.12207)"/>
</clipPath>
</defs>
</svg>
