<svg width="100" height="32" viewBox="0 0 100 32" fill="none" xmlns="http://www.w3.org/2000/svg">
<path d="M65.7763 7.79615C68.5522 5.53431 71.5337 5.22588 74.8237 6.25399C77.8052 7.17928 79.3473 9.3383 79.7586 12.4226C79.8614 13.5535 79.8614 14.6845 79.8614 15.7126C79.8614 18.8997 79.8614 22.0868 79.8614 25.1711C79.8614 26.1992 79.6558 26.4049 78.6277 26.4049C77.7024 26.4049 76.6743 26.4049 75.749 26.4049C74.9265 26.4049 74.618 26.0964 74.618 25.2739C74.618 21.7784 74.618 18.2828 74.618 14.6845C74.618 14.1704 74.618 13.6563 74.5152 13.1423C74.2068 11.7029 73.1787 10.7777 71.6365 10.7777C70.0944 10.7777 68.9635 11.6001 68.655 13.0395C68.5522 13.5535 68.5522 14.0676 68.5522 14.5816C68.5522 18.0772 68.5522 21.5728 68.5522 25.1711C68.5522 26.1992 68.3466 26.4049 67.3185 26.4049C66.3932 26.4049 65.4679 26.4049 64.5426 26.4049C63.5145 26.4049 63.3089 26.1992 63.3089 25.1711C63.3089 21.7784 63.3089 18.2828 63.3089 14.8901C63.3089 14.4788 63.3089 14.0676 63.3089 13.6563C63.2061 11.9086 61.9724 10.7777 60.3274 10.7777C58.5796 10.7777 57.4487 11.9086 57.3459 13.6563C57.2431 15.9182 57.3459 18.2828 57.3459 20.6475C57.3459 22.1896 57.3459 23.7318 57.3459 25.2739C57.3459 26.0964 57.0374 26.4049 56.215 26.4049C55.1869 26.4049 54.2616 26.4049 53.2335 26.4049C52.411 26.4049 52.1025 26.0964 52.1025 25.2739C52.1025 24.7599 52.1025 24.2458 52.1025 23.7318C52.1025 20.339 52.1025 16.9463 52.1025 13.5535C52.1025 8.41301 55.7009 5.22588 60.8414 5.63712C62.5892 5.84275 64.337 6.3568 65.7763 7.79615Z" fill="#70879C"/>
<path d="M94.6659 24.7613C92.8153 26.509 90.5534 26.9203 88.1888 26.7147C83.8708 26.4062 81.1977 22.6022 82.4314 18.4898C83.1511 16.0224 85.3101 14.3774 88.1888 14.2746C89.9366 14.1718 91.6844 14.2746 93.4321 14.2746C94.5631 14.2746 94.9743 13.7605 94.5631 12.6296C94.1518 11.3959 93.2265 10.779 91.9928 10.5734C90.5535 10.3678 89.2169 10.779 88.4972 12.2184C88.086 13.0409 87.5719 13.3493 86.6466 13.3493C85.8242 13.3493 84.8989 13.3493 84.0764 13.3493C83.0483 13.3493 82.7398 12.938 83.0483 11.9099C83.7679 9.13406 85.5157 7.18066 88.1888 6.25536C90.5534 5.43288 92.9181 5.53569 95.2827 6.35817C98.2642 7.48909 99.9092 9.85373 100.012 13.0409C100.115 17.1533 100.012 21.2657 100.012 25.3781C100.012 26.0978 99.7036 26.509 98.9839 26.4062C98.1614 26.4062 97.3389 26.4062 96.5165 26.4062C94.8715 26.4062 94.8715 26.4062 94.6659 24.7613ZM94.6659 18.0786C92.9181 18.0786 91.1703 18.0786 89.4225 18.0786C88.2916 18.0786 87.4691 18.9011 87.3663 19.9292C87.2635 20.9573 87.8804 21.7798 89.0113 22.0882C90.245 22.3966 91.4787 22.2938 92.6097 21.7798C94.1518 21.2657 94.8715 19.8264 94.6659 18.0786Z" fill="#70879C"/>
<path d="M32.7742 24.7564C30.5123 26.7098 27.9421 27.0182 25.269 26.5042C21.9791 25.7845 20.0257 23.1114 20.3341 19.6159C20.5397 16.6344 22.9044 14.3725 26.1943 14.1669C27.9421 14.0641 29.7927 14.1669 31.5404 14.1669C32.877 14.1669 33.1854 13.6529 32.7742 12.4191C32.2601 11.1854 31.3348 10.6714 30.1011 10.5685C28.6617 10.4657 27.3252 10.7742 26.7083 12.2135C26.2971 13.036 25.6802 13.3444 24.8578 13.3444C23.9325 13.3444 23.0072 13.3444 22.0819 13.3444C21.2594 13.3444 21.0538 12.9332 21.1566 12.1107C21.7734 8.82077 24.4465 6.35331 27.9421 5.83926C29.9983 5.53083 31.9517 5.73645 33.8023 6.55894C36.4753 7.79266 38.0175 9.95168 38.1203 12.8304C38.2231 17.0456 38.1203 21.158 38.1203 25.3733C38.1203 26.0929 37.8119 26.4014 37.0922 26.4014C36.2697 26.4014 35.3444 26.4014 34.5219 26.4014C33.0826 26.4014 33.0826 26.4014 32.7742 24.7564ZM32.7742 18.0737C31.0264 18.0737 29.2786 18.0737 27.5308 18.0737C26.3999 18.0737 25.6802 18.8962 25.5774 19.8215C25.4746 20.8496 26.0915 21.7749 27.1196 22.0833C28.3533 22.3918 29.587 22.3918 30.8208 21.7749C32.3629 21.158 32.9798 19.8215 32.7742 18.0737Z" fill="#70879C"/>
<path d="M6.04339 20.1332C6.04339 21.7781 6.04339 23.5259 6.04339 25.1709C6.04339 26.199 5.83776 26.4046 4.80966 26.4046C3.78155 26.4046 2.85626 26.4046 1.82815 26.4046C1.10848 26.4046 0.800049 26.0962 0.800049 25.3765C0.800049 19.3107 0.800049 13.1421 0.800049 7.07623C0.800049 6.35656 1.10848 6.04812 1.82815 6.04812C2.85626 6.04812 3.78155 6.04812 4.80966 6.04812C5.83776 6.04812 6.04339 6.25374 6.04339 7.28185C6.04339 9.85211 6.04339 12.5252 6.04339 15.0954C6.04339 15.3011 6.04339 15.5067 6.04339 15.9179C6.35182 15.6095 6.45463 15.4039 6.66025 15.1983C8.61365 12.4224 10.567 9.64649 12.5204 6.87061C12.9317 6.25374 13.4457 5.94531 14.1654 5.94531C15.2963 5.94531 16.5301 5.94531 17.661 5.94531C17.9694 5.94531 18.3806 6.15093 18.4835 6.35655C18.5863 6.56218 18.4835 7.07623 18.2778 7.28185C16.1188 10.3662 13.857 13.4505 11.698 16.5348C11.2867 17.1517 11.2867 17.5629 11.5952 18.1798C12.9317 20.3388 14.8851 21.1613 17.2497 21.3669C18.4835 21.4697 18.6891 21.5725 18.6891 22.8062C18.6891 23.5259 18.6891 24.2456 18.6891 24.9653C18.6891 25.9934 18.4835 26.199 17.4554 26.199C12.7261 26.199 9.1277 24.3484 6.55744 20.3388C6.45463 20.1332 6.35182 20.0304 6.24901 19.8247C6.1462 20.0304 6.04339 20.0304 6.04339 20.1332Z" fill="#70879C"/>
<path d="M41.3074 19.1044C41.3074 17.2539 41.3074 15.5061 41.3074 13.6555C41.4102 9.02901 44.8029 5.9447 49.4294 6.15032C50.0463 6.15032 50.3547 6.45875 50.3547 7.07561C50.3547 8.20653 50.3547 9.23463 50.3547 10.3655C50.3547 10.9824 49.9435 11.188 49.4294 11.2908C47.3732 11.7021 46.5507 12.5246 46.5507 14.6836C46.5507 17.9735 46.5507 21.3663 46.5507 24.6562C46.5507 26.404 46.5507 26.404 44.8029 26.404C43.9804 26.404 43.158 26.404 42.3355 26.404C41.6158 26.404 41.3074 26.0956 41.3074 25.3759C41.3074 23.2169 41.3074 21.1607 41.3074 19.1044Z" fill="#70879C"/>
</svg>
