<svg width="75" height="32" viewBox="0 0 75 32" fill="none" xmlns="http://www.w3.org/2000/svg">
<g clip-path="url(#clip0_3900_23008)">
<mask id="mask0_3900_23008" style="mask-type:luminance" maskUnits="userSpaceOnUse" x="0" y="4" width="75" height="25">
<path d="M74.8 4.79688H0.800049V28.7969H74.8V4.79688Z" fill="white"/>
</mask>
<g mask="url(#mask0_3900_23008)">
<path fill-rule="evenodd" clip-rule="evenodd" d="M74.8 4.79688H0.800049V28.7969H74.8V4.79688ZM71.1086 22.0829C71.231 22.0829 71.3534 22.0597 71.4962 22.0134L71.5574 23.6104C71.0474 23.9112 70.4559 24.0964 69.8848 24.0964C68.6406 24.0964 67.9675 23.2632 67.8451 21.9903C67.3148 23.0781 66.3562 24.0964 64.8672 24.0964C63.521 24.0964 62.0116 23.2863 62.0116 21.0877C62.0116 18.4956 64.1941 17.8939 66.3154 17.8939C66.8253 17.8939 67.3556 17.917 67.8247 17.9864V17.6393C67.8247 16.5515 67.8043 15.2786 66.3154 15.2786C65.7646 15.2786 65.3363 15.3249 64.908 15.5795L64.602 16.7598L62.4807 16.5052L62.8479 14.0983C64.4592 13.3577 65.2955 13.1494 66.8049 13.1494C68.7834 13.1494 70.4763 14.3066 70.4763 16.7135V21.2728C70.4763 21.8746 70.6803 22.0829 71.1086 22.0829ZM64.7244 20.7405C64.7244 21.4117 65.01 21.944 65.8054 21.944C66.7437 21.944 67.7431 21.1803 67.8247 19.4445C67.3964 19.3751 66.9273 19.3056 66.4989 19.3056C65.5403 19.3056 64.7244 19.6065 64.7244 20.7405ZM58.2586 23.8649L62.2564 7.84951H59.6456L55.6478 23.8649H58.2586ZM52.8738 23.8649L56.8716 7.84951H54.2608L50.263 23.8649H52.8738ZM48.5293 13.3577H45.7553V17.1301H48.5293V13.3577ZM48.5293 20.0925H45.7553V23.8649H48.5293V20.0925ZM43.8176 20.1851L41.7167 19.9537L41.2883 21.5737H38.29L43.43 14.9315L43.2261 13.3577H35.0877L34.7613 17.0376L36.6786 17.269L37.0866 15.6489H39.9829L34.8837 22.2912L35.1489 23.8649H43.2465L43.8176 20.1851ZM23.4818 18.7733C23.4818 15.6952 25.134 13.1494 28.4587 13.1494C31.7834 13.1494 33.3947 15.6952 33.4151 18.6113C33.4151 21.9672 31.1715 24.0964 28.3159 24.0964C25.4603 24.0964 23.4818 22.1292 23.4818 18.7733ZM26.215 18.565C26.215 20.3934 26.9697 21.782 28.3975 21.782C29.7641 21.782 30.6616 20.5322 30.682 18.5187C30.682 16.3895 29.6621 15.4406 28.4179 15.4406C27.0513 15.4406 26.215 16.5747 26.215 18.565ZM22.3192 21.5737H21.0954V16.7598C21.0954 14.2603 19.586 13.1263 17.9135 13.1263C16.4449 13.1263 15.4047 14.0057 14.8947 15.3944C14.446 13.8437 13.1814 13.1263 11.876 13.1263C10.5706 13.1263 9.61194 13.7974 9.06123 14.9083V13.3346H5.18581V15.6258H6.40963V21.5737H5.18581V23.8649H10.8154V21.5737H9.04083V17.917C9.04083 16.4358 9.57115 15.4175 10.8358 15.4175C11.8964 15.4175 12.4267 16.1118 12.4267 17.9402V23.8649H16.3021V21.5737H15.0783V17.917C15.0783 16.4358 15.6086 15.4175 16.8732 15.4175C17.9135 15.4175 18.4438 16.1118 18.4438 17.9402V23.8649H22.3192V21.5737Z" fill="#70879C"/>
</g>
</g>
<defs>
<clipPath id="clip0_3900_23008">
<rect width="74" height="32" fill="white" transform="translate(0.800049)"/>
</clipPath>
</defs>
</svg>
