<svg width="107" height="32" viewBox="0 0 107 32" fill="none" xmlns="http://www.w3.org/2000/svg">
<g clip-path="url(#clip0_3900_23010)">
<path fill-rule="evenodd" clip-rule="evenodd" d="M91.9357 4.64507H89.0726H89.0603V9.93705H89.7099V7.43889H91.791V6.91996H89.7099V5.17608H91.9357V4.64507ZM87.3024 7.2639C87.3024 5.67088 86.3049 4.54852 84.8948 4.54852C83.4417 4.54852 82.4196 5.74027 82.4196 7.32123C82.4196 8.90218 83.4417 10.0366 84.8394 10.0366C86.3049 10.0366 87.3024 8.90218 87.3024 7.2639ZM76.7887 7.11908L75.4649 4.64507V4.66317H74.7291L76.4501 7.85224V9.93705H77.0873V7.85224L78.7837 4.64507H78.0756L76.7887 7.11908ZM73.9717 4.64507H70.1234V5.17608H71.7212V9.93705H72.3708V5.17608H73.9717V4.64507ZM64.314 7.37855C64.6793 7.51163 65.0195 7.70332 65.3207 7.94576C65.4929 8.09654 65.597 8.30815 65.6101 8.5341C65.6101 9.05304 65.2961 9.49051 64.4925 9.49051C64.0336 9.45398 63.5927 9.29886 63.2149 9.04097L62.907 9.46638C63.3612 9.83335 63.9316 10.0339 64.5203 10.0336C65.647 10.0336 66.2628 9.37285 66.2628 8.48884C66.2628 8.31075 66.2266 8.13444 66.1563 7.97022C66.086 7.806 65.983 7.65717 65.8533 7.53242C65.5033 7.22493 65.0984 6.98352 64.6588 6.82039C64.3918 6.71899 64.141 6.58083 63.9138 6.41007C63.8325 6.34685 63.7674 6.26595 63.7235 6.17378C63.6797 6.08161 63.6584 5.9807 63.6613 5.87906C63.6613 5.40839 64.0461 5.05238 64.7327 5.05238C65.1478 5.06061 65.5489 5.20151 65.8749 5.45365L66.1827 5.07651C65.9855 4.88573 65.7496 4.73771 65.4902 4.64207C65.2309 4.54643 64.9539 4.50531 64.6773 4.52137C63.7044 4.52137 63.0425 5.10065 63.0425 5.91527C63.0331 6.07144 63.0554 6.22789 63.1083 6.37551C63.1611 6.52313 63.2434 6.65897 63.3504 6.77514C63.6303 7.03348 63.9571 7.23815 64.314 7.37855ZM56.3095 4.64507H53.3632V9.93705H56.3587V9.39699H54.0005V7.43889H56.1555V6.91996H54.0005V5.17608H56.3095V4.64507ZM49.6565 9.31251L48.0802 4.64507H47.3967L49.2624 9.92498H50.0074L51.8977 4.64507H51.282L49.6565 9.31251ZM45.959 4.64507H45.3094V9.92498H45.959V4.64507ZM39.8725 4.64507H39.2106L39.2167 9.92498H39.8047V5.59847L42.4001 9.92498H43.0712V4.64507H42.4832V8.99571L39.8725 4.64507ZM33.2934 4.64507V7.75569L33.2933 7.83224C33.2925 8.45266 33.2917 9.0384 33.7767 9.49051C33.9738 9.67199 34.2055 9.81341 34.4586 9.90662C34.7117 9.99983 34.9812 10.043 35.2514 10.0336C35.5153 10.0466 35.7792 10.0073 36.0272 9.91812C36.2753 9.82897 36.5025 9.69175 36.6953 9.51465C37.1821 9.02625 37.1807 8.35879 37.1789 7.44689L37.1786 7.27295V4.64507H36.5414V7.45096L36.5415 7.5991C36.5425 8.44591 36.543 8.81324 36.1904 9.16165C36.0677 9.27566 35.9224 9.3637 35.7635 9.42028C35.6046 9.47686 35.4355 9.50076 35.2668 9.49051C34.8999 9.50584 34.5416 9.37903 34.2693 9.13752C33.943 8.8177 33.943 8.40436 33.943 7.98197V4.64507H33.2934ZM15.6311 26.3259C17.8547 26.0685 19.9158 25.0553 21.4559 23.4627L21.4682 23.4747C23.6368 21.8603 25.2272 19.6137 26.0111 17.0579C26.795 14.502 26.7319 11.7684 25.8309 9.24982C24.93 6.73128 23.2375 4.55748 20.9967 3.04078C18.7559 1.52408 16.0822 0.742569 13.3597 0.808546C10.6373 0.874524 8.00622 1.78459 5.84467 3.40798C3.68313 5.03137 2.10236 7.2845 1.32951 9.84361C0.556668 12.4027 0.631538 15.136 1.54337 17.6508C2.45519 20.1656 4.15704 22.3324 6.40434 23.8398C6.57633 24.4705 6.95651 25.0278 7.48558 25.4246C8.01466 25.8213 8.66286 26.0354 9.32907 26.0332C9.70288 26.0314 10.0732 25.9629 10.422 25.8311C10.8949 25.986 11.3771 26.1119 11.8659 26.2082C11.7243 26.5779 11.5469 26.9335 11.3364 27.2702L11.6011 27.5297C11.6719 27.4914 11.7512 27.4707 11.832 27.4693C11.9532 27.4788 12.0662 27.5327 12.1486 27.6202C12.2311 27.7077 12.2768 27.8224 12.2768 27.9415C12.2768 28.0606 12.2311 28.1753 12.1486 28.2628C12.0662 28.3503 11.9532 28.4042 11.832 28.4137C11.724 28.4079 11.6189 28.3777 11.5249 28.3253C11.4309 28.273 11.3505 28.1999 11.2902 28.112C11.2487 28.2748 11.2281 28.442 11.2286 28.6098C11.2286 29.5179 12.2415 30.5528 13.6361 30.9903C15.0308 30.5649 16.0406 29.527 16.0406 28.6219C16.0451 28.4541 16.0254 28.2865 15.9821 28.1241C15.9212 28.2115 15.8407 28.2842 15.7468 28.3365C15.6529 28.3888 15.548 28.4193 15.4402 28.4258C15.3191 28.4163 15.206 28.3624 15.1236 28.2749C15.0412 28.1874 14.9954 28.0727 14.9954 27.9536C14.9954 27.8345 15.0412 27.7198 15.1236 27.6323C15.206 27.5448 15.3191 27.4909 15.4402 27.4814C15.53 27.4794 15.6182 27.5047 15.6927 27.5538L15.9574 27.2944C15.8219 26.9808 15.7128 26.6569 15.6311 26.3259ZM32.2343 20.4094C32.2343 23.6376 34.8296 26.1147 38.2162 26.1147C39.003 26.1318 39.7852 25.9932 40.5161 25.7071C41.2469 25.421 41.9114 24.9933 42.4696 24.4496C43.0278 23.906 43.4683 23.2575 43.7648 22.543C44.0612 21.8286 44.2075 21.0629 44.1949 20.2917C44.1949 17.0604 41.6027 14.5834 38.2162 14.5834C37.4288 14.5658 36.646 14.7042 35.9146 14.9903C35.1831 15.2764 34.5182 15.7043 33.9596 16.2483C33.401 16.7924 32.9603 17.4414 32.6638 18.1564C32.3673 18.8714 32.2213 19.6377 32.2343 20.4094ZM51.9993 25.9276H56.9806V25.5384L56.0293 25.288C55.6865 25.2105 55.3838 25.0144 55.1765 24.7359L51.5067 19.996L54.7917 15.929C55.0243 15.6717 55.337 15.4967 55.6814 15.4312L56.6912 15.1838V14.7855H52.6889V15.1838L53.6987 15.4312C54.0497 15.5277 53.9881 15.6212 53.7942 15.8686L51.1742 19.465H51.1127L48.5512 15.8686C48.3573 15.6092 48.2618 15.4553 48.6467 15.398L49.718 15.1838V14.7855H44.7244V15.1868L45.6758 15.4342C46.0197 15.5109 46.323 15.7084 46.5285 15.9893L50.0044 20.515L46.5285 24.7932C46.2982 25.0527 45.9843 25.2273 45.6388 25.288L44.629 25.5384V25.9367H48.6528V25.5384L47.643 25.288C47.2921 25.1945 47.3536 25.1009 47.5445 24.8535L50.3615 21.0339H50.4323L53.2031 24.8777C53.3786 25.1251 53.4555 25.2548 53.0707 25.3121L51.9993 25.5263V25.9276ZM59.2465 4.64507H58.0889V9.92196H58.7262V7.62294H59.0987C59.8807 7.62294 60.05 7.71948 60.4349 8.55522L61.0506 9.92196H61.7248L61.0013 8.35609C60.9065 8.09887 60.7681 7.85917 60.5919 7.64707C60.4777 7.52285 60.3187 7.4471 60.1485 7.43588C60.4769 7.39983 60.7825 7.25383 61.0136 7.02254C61.2432 6.77599 61.3648 6.45096 61.3523 6.11741C61.3588 5.92166 61.3247 5.72665 61.2522 5.54413C61.1798 5.36161 61.0703 5.19536 60.9305 5.05539C60.5088 4.64507 59.9669 4.64507 59.2465 4.64507ZM66.6815 17.5673H67.1494V14.7734H58.5476V15.1476L59.7145 15.4312C60.0531 15.5277 60.1855 15.6605 60.1855 15.9622V24.7117C60.1855 25.0285 60.0623 25.1492 59.7145 25.2427L58.5476 25.5263V25.9246H63.6336V25.5263L62.3344 25.2427C61.9988 25.1703 61.8664 25.0134 61.8664 24.7117V20.6206H64.6218C64.792 20.6034 64.9622 20.6517 65.0967 20.7553C65.2311 20.8589 65.3192 21.0096 65.3422 21.1757L65.6316 22.295H66.0996V18.581H65.6316L65.3422 19.5344C65.317 19.6995 65.2284 19.8489 65.0945 19.9521C64.9606 20.0553 64.7915 20.1045 64.6218 20.0895H61.8695V15.2894H65.4408C65.8318 15.2894 66.0072 15.4553 66.1396 15.8928L66.6815 17.5673ZM68.0392 9.93705H68.6888V4.64507H68.0392V9.93705ZM68.7349 20.4094C68.7349 23.6376 71.3272 26.1147 74.7137 26.1147H74.7045C75.4923 26.1335 76.2759 25.9961 77.0082 25.7107C77.7405 25.4253 78.4064 24.9979 78.9659 24.4541C79.5255 23.9102 79.9671 23.2612 80.2643 22.5459C80.5615 21.8307 80.7082 21.0639 80.6955 20.2917C80.6955 17.0604 78.1002 14.5834 74.7137 14.5834C73.9266 14.5662 73.1441 14.7049 72.4131 14.9912C71.682 15.2775 71.0174 15.7055 70.4592 16.2494C69.9009 16.7934 69.4604 17.4423 69.1642 18.1571C68.8679 18.8719 68.7219 19.6379 68.7349 20.4094ZM93.7829 25.9276V25.5384L92.6407 25.291C92.4673 25.2608 92.3021 25.1959 92.1554 25.1003C92.0087 25.0048 91.8836 24.8808 91.7879 24.7359L90.2486 22.7204C89.0202 21.1395 88.8263 20.9162 88.4784 20.7624V20.702C90.2024 20.3038 91.2492 19.1573 91.2492 17.7905C91.2434 17.201 91.0568 16.6268 90.7137 16.1425C90.3705 15.6583 89.8867 15.2864 89.325 15.0751C88.5585 14.8413 87.7565 14.7392 86.9545 14.7734H81.9855V15.1717L83.1523 15.4553C83.4879 15.5518 83.6203 15.6846 83.6203 15.9863V24.7117C83.6203 25.0315 83.5002 25.1492 83.1523 25.2427L81.9855 25.5263V25.9276H87.0838V25.5263L85.7846 25.2427C85.4336 25.1703 85.3012 25.0134 85.3012 24.7117V20.9283H86.194C87.0129 20.9283 87.2747 21.2692 87.9366 22.2015L90.3071 25.4539C90.5965 25.8311 90.7566 25.9276 91.0645 25.9276H93.7829ZM100.113 25.9276C101.726 25.9276 102.951 25.7134 103.844 25.2427H103.835C105.759 24.2531 106.516 22.4006 106.51 20.4094C106.51 18.3698 105.537 16.294 103.382 15.3256C102.526 14.9605 101.48 14.7734 100.026 14.7734H94.6911V15.1717L95.8579 15.4553C96.2058 15.5518 96.3259 15.6846 96.3259 15.9863V24.7117C96.3259 25.0315 96.2058 25.1492 95.8579 25.2427L94.6911 25.5263V25.9276H100.113ZM10.1128 11.4406C10.1751 11.4338 10.2382 11.4397 10.298 11.4579C10.3579 11.476 10.4133 11.5061 10.4607 11.5462C10.4931 11.5763 10.5184 11.613 10.5349 11.6536C10.5513 11.6942 10.5586 11.7379 10.5562 11.7816C10.5562 12.0652 10.3284 12.1949 10.0636 12.1949H9.75572V12.1466C9.84192 12.1466 9.85424 12.1466 9.85424 12.0048V11.6277C9.85424 11.5538 9.85424 11.522 9.83833 11.5061C9.8263 11.494 9.80516 11.4911 9.76804 11.4859V11.4406H10.1128ZM10.0513 12.0048C10.0513 12.1104 10.0759 12.1225 10.1375 12.1225C10.199 12.1225 10.3407 12.0169 10.3407 11.8208C10.3407 11.6247 10.2083 11.501 10.1128 11.501H10.0636V11.5613L10.0513 12.0048ZM11.4354 11.9632C11.4539 11.9127 11.4612 11.859 11.4567 11.8055C11.4571 11.755 11.4473 11.7048 11.4278 11.658C11.4083 11.6111 11.3796 11.5685 11.3433 11.5326C11.3069 11.4967 11.2637 11.4682 11.216 11.4488C11.1684 11.4293 11.1173 11.4193 11.0657 11.4193C11.0116 11.4176 10.9577 11.4269 10.9074 11.4465C10.8571 11.4661 10.8115 11.4956 10.7734 11.5333C10.7352 11.5709 10.7054 11.6159 10.6858 11.6653C10.6662 11.7147 10.6572 11.7676 10.6593 11.8206C10.6567 11.8721 10.6651 11.9236 10.6839 11.9718C10.7028 12.02 10.7316 12.0638 10.7687 12.1004C10.8058 12.137 10.8503 12.1657 10.8993 12.1845C10.9483 12.2034 11.0008 12.212 11.0534 12.2098C11.108 12.213 11.1627 12.2047 11.2137 12.1854C11.2648 12.1661 11.311 12.1362 11.3492 12.0979C11.3875 12.0596 11.4168 12.0136 11.4354 11.9632ZM11.0719 12.1706C10.9641 12.1706 10.881 12.0167 10.881 11.8055V11.7935C10.881 11.5823 10.9302 11.5038 11.038 11.5038C11.1457 11.5038 11.2289 11.6607 11.2289 11.8689C11.2289 12.0771 11.1796 12.1706 11.0719 12.1706ZM12.4953 11.4472V11.4894C12.4506 11.4894 12.4261 11.4894 12.4128 11.5016C12.3968 11.5162 12.3968 11.5483 12.3968 11.6191V12.0083C12.3968 12.1381 12.3968 12.1381 12.4922 12.1501V12.2135H12.132V12.1652C12.2182 12.1652 12.2305 12.1652 12.2305 12.0234V11.6101L11.9996 12.1894H11.9412L11.7226 11.6463V11.9058V12.0958C11.7226 12.1411 11.7595 12.1532 11.8334 12.1532V12.2014H11.544V12.1532C11.6025 12.1532 11.6271 12.1532 11.6271 12.0958C11.6398 12.029 11.648 11.9615 11.6518 11.8937V11.6583C11.6518 11.5165 11.6518 11.5045 11.5563 11.4924V11.4472H11.8334L12.0366 11.9058L12.2182 11.4472H12.4953ZM12.9752 12.1501C12.8797 12.1381 12.8797 12.1381 12.8797 12.0083L12.8828 11.6312C12.8828 11.4894 12.892 11.4894 12.9782 11.4894V11.4441H12.5934V11.4894C12.6889 11.5015 12.6889 11.5015 12.6889 11.6312V12.0234C12.6889 12.1652 12.6765 12.1652 12.5934 12.1652V12.2135H12.9752V12.1501ZM10.9765 13.598H10.8811L10.4378 13.0549V13.2661C10.4288 13.3413 10.4288 13.4172 10.4378 13.4924C10.4378 13.5256 10.4747 13.5497 10.5578 13.5497V13.598H10.2684V13.5497C10.3177 13.5497 10.3546 13.5256 10.3546 13.4924V13.2661V13.0428C10.3546 12.9614 10.3546 12.9372 10.33 12.9131C10.32 12.9003 10.3069 12.8902 10.2918 12.8839C10.2767 12.8776 10.2601 12.8751 10.2438 12.8769V12.8316H10.5086L10.9057 13.3144V13.1605C10.9148 13.0863 10.9148 13.0114 10.9057 12.9372C10.9057 12.901 10.8719 12.8769 10.7857 12.8769V12.8316H11.0935V12.8769C11.0728 12.8739 11.0518 12.8784 11.0342 12.8895C11.0167 12.9006 11.0038 12.9176 10.9981 12.9372V13.1605V13.598H10.9765ZM11.4258 13.5228L11.4562 13.601H11.5424C11.6255 13.3626 11.7825 12.9976 11.7825 12.9976C11.8318 12.8769 11.841 12.8769 11.9149 12.8769V12.8316H11.6255V12.8769H11.6624C11.6994 12.889 11.724 12.9161 11.6994 12.9734C11.6822 13.0134 11.6411 13.134 11.6063 13.2361L11.6063 13.2362L11.6063 13.2362C11.5911 13.2805 11.5772 13.3214 11.567 13.3506C11.5503 13.3001 11.5191 13.2231 11.4888 13.1483C11.4521 13.0577 11.4167 12.9703 11.41 12.9372C11.3977 12.8769 11.3977 12.8769 11.4469 12.8769H11.4808V12.8316H11.096V12.8769L11.0992 12.8775C11.1579 12.889 11.1676 12.8909 11.216 12.9976C11.2595 13.0934 11.3484 13.3229 11.4258 13.5228L11.4258 13.5228ZM11.9768 13.355C12.0014 13.4244 12.0753 13.5541 12.1954 13.5541C12.2108 13.5547 12.2261 13.552 12.2403 13.5461C12.2545 13.5403 12.2672 13.5314 12.2775 13.5202C12.2878 13.5089 12.2954 13.4956 12.2999 13.4811C12.3043 13.4667 12.3054 13.4514 12.3031 13.4365C12.3031 13.3671 12.2539 13.3309 12.1831 13.2947C12.0876 13.2494 11.9768 13.1891 11.9768 13.0714C11.9774 13.0375 11.9853 13.0041 11.9999 12.9734C12.0145 12.9427 12.0356 12.9153 12.0618 12.8931C12.0879 12.8709 12.1185 12.8544 12.1516 12.8445C12.1847 12.8347 12.2196 12.8318 12.2539 12.8361C12.2906 12.8302 12.328 12.8302 12.3647 12.8361C12.3839 12.8409 12.404 12.8409 12.4232 12.8361C12.427 12.8949 12.4352 12.9534 12.4478 13.0111H12.3986C12.3739 12.9417 12.3278 12.8572 12.2416 12.8572C12.2127 12.858 12.1853 12.8698 12.1652 12.89C12.1451 12.9103 12.1338 12.9375 12.1338 12.9658C12.1338 13.0231 12.1831 13.0593 12.2539 13.0955H12.2785C12.3863 13.1408 12.4848 13.2011 12.4848 13.3429C12.4826 13.3795 12.4727 13.4153 12.4557 13.4479C12.4387 13.4806 12.415 13.5094 12.3861 13.5327C12.3572 13.5559 12.3237 13.573 12.2877 13.583C12.2517 13.5929 12.214 13.5954 12.1769 13.5903C12.1317 13.5893 12.0871 13.5811 12.0445 13.5662C12.0206 13.5562 11.9959 13.5482 11.9706 13.5421C11.9706 13.5037 11.9619 13.4666 11.9524 13.4261C11.947 13.4028 11.9413 13.3784 11.9368 13.352L11.9768 13.355ZM10.4539 14.9122C10.4379 14.8963 10.4379 14.8642 10.4379 14.7926V14.4124C10.4379 14.2737 10.4502 14.2737 10.5333 14.2737V14.2254H10.1485V14.2737C10.1932 14.2778 10.2176 14.28 10.2309 14.2933C10.247 14.3094 10.247 14.3415 10.247 14.4124V14.7896C10.247 14.9284 10.2347 14.9284 10.1485 14.9284V14.9797H10.5333V14.9314C10.4906 14.9273 10.467 14.9251 10.4539 14.9122ZM10.9174 14.8137C10.9174 14.8741 10.9174 14.9103 10.939 14.9103C10.9673 14.917 10.9968 14.917 11.0252 14.9103C11.0448 14.9134 11.0649 14.9118 11.0837 14.9055C11.1025 14.8992 11.1194 14.8884 11.1329 14.8741C11.1603 14.8391 11.1802 14.7991 11.1914 14.7564H11.2407C11.2407 14.8017 11.2037 14.9193 11.1914 14.9555H10.6034V14.9284C10.6865 14.9284 10.6988 14.9284 10.6988 14.7896V14.4124V14.4124C10.6988 14.3378 10.6988 14.3061 10.683 14.2909C10.6713 14.2797 10.651 14.2775 10.6157 14.2737V14.2254H11.0005V14.2737C10.9174 14.2737 10.9051 14.2737 10.9051 14.4124V14.8137H10.9174ZM11.6024 14.9103C11.5809 14.9103 11.5809 14.8741 11.5809 14.8137H11.5747V14.4124C11.5747 14.2737 11.587 14.2737 11.6702 14.2737V14.2254H11.2792V14.2737C11.3145 14.2775 11.3348 14.2797 11.3465 14.2909C11.3623 14.3061 11.3623 14.3378 11.3623 14.4124V14.4124V14.7896C11.3623 14.9284 11.35 14.9284 11.2669 14.9284V14.9555H11.8549C11.8672 14.9193 11.9041 14.8017 11.9041 14.7564H11.8549C11.8437 14.7991 11.8238 14.8391 11.7964 14.8741C11.7829 14.8884 11.766 14.8992 11.7472 14.9055C11.7284 14.9118 11.7082 14.9134 11.6886 14.9103C11.6603 14.917 11.6307 14.917 11.6024 14.9103ZM12.1439 14.9885C12.1214 14.9315 12.0972 14.8693 12.0728 14.8066C12.0068 14.637 11.9397 14.4644 11.9037 14.3851C11.8554 14.2785 11.8426 14.2765 11.7868 14.2679L11.7837 14.2674V14.2191H12.1685V14.2674H12.1315C12.0854 14.2674 12.0854 14.2674 12.0977 14.3247C12.1038 14.3534 12.1338 14.4286 12.1664 14.5107C12.1992 14.593 12.2347 14.6822 12.2516 14.7381C12.2743 14.6807 12.3108 14.5735 12.3407 14.4858C12.3595 14.4306 12.3757 14.3831 12.384 14.3609C12.4055 14.3036 12.384 14.2765 12.3501 14.2674H12.3132V14.2191H12.5933V14.2674C12.5195 14.2674 12.5071 14.2674 12.461 14.3851C12.461 14.3851 12.3039 14.7501 12.2208 14.9885H12.1439ZM15.3209 11.4894V11.4441L15.3086 11.4472H15.0315L14.8499 11.9058L14.6467 11.4472H14.3696V11.4924C14.465 11.5045 14.465 11.5165 14.465 11.6583V11.8937C14.4634 11.9615 14.4562 12.0291 14.4435 12.0958C14.4435 12.1532 14.4189 12.1532 14.3573 12.1532V12.2014H14.6467V12.1532C14.5759 12.1532 14.5389 12.1411 14.5389 12.0958V11.9058V11.6463L14.7544 12.1894H14.816L15.0438 11.6101V12.0234C15.0438 12.1652 15.0315 12.1652 14.9484 12.1652V12.2135H15.3209V12.1501C15.2255 12.1381 15.2255 12.1381 15.2255 12.0083V11.6191C15.2255 11.4894 15.2378 11.4894 15.3209 11.4894ZM15.7051 12.0083C15.7051 12.1381 15.7051 12.1381 15.8005 12.1501V12.2135H15.4157V12.1652C15.4988 12.1652 15.5111 12.1652 15.5111 12.0234V11.6312C15.5111 11.5015 15.5111 11.5015 15.4157 11.4894V11.4441H15.8005V11.4894C15.7174 11.4894 15.7051 11.4894 15.7051 11.6312V12.0083ZM16.4993 12.2172H16.5947H16.6071V11.7917V11.5685C16.6071 11.5323 16.644 11.5081 16.7025 11.5081V11.4629H16.3946V11.5081C16.4778 11.5081 16.5147 11.5323 16.5147 11.5685C16.5239 11.6426 16.5239 11.7176 16.5147 11.7917V11.9456L16.1176 11.4629H15.8528V11.5081C15.8687 11.5066 15.8847 11.5092 15.8992 11.5155C15.9138 11.5219 15.9264 11.5318 15.9359 11.5443C15.9605 11.5685 15.9605 11.5926 15.9605 11.6741V11.8853V12.1116C15.9605 12.1447 15.9236 12.1689 15.8774 12.1689V12.2172H16.1853V12.1689C16.1022 12.1689 16.0652 12.1447 16.0652 12.1116C16.0563 12.0364 16.0563 11.9604 16.0652 11.8853V11.6741L16.4993 12.2172ZM17.0751 12.1443H17.112C17.1613 12.1443 17.1613 12.1443 17.149 12.087L17.0997 11.9693H16.9027L16.8657 12.0749C16.8657 12.1202 16.8657 12.1322 16.9027 12.1443H16.9366V12.2077H16.6626V12.1594C16.7211 12.1594 16.7457 12.1594 16.7826 12.0538L17.0228 11.4504H17.1059L17.1921 11.6737C17.2383 11.8155 17.2875 11.9452 17.3337 12.0629C17.3744 12.1666 17.3912 12.1695 17.4347 12.177C17.4405 12.178 17.4468 12.1791 17.4538 12.1805V12.2077H17.0874V12.1473L17.0751 12.1443ZM16.9335 11.906H17.0874L17.0166 11.6827L16.9335 11.906ZM15.4152 13.5368C15.3074 13.5247 15.3074 13.5247 15.3074 13.395H15.2828V12.9002H15.3074C15.3659 12.9002 15.4028 12.9002 15.4275 12.9243C15.4523 12.9593 15.4681 12.9997 15.4736 13.042H15.5229V12.8066H15.486C15.4644 12.8308 15.4644 12.8308 15.4275 12.8308H15.4275H14.9595C14.948 12.8323 14.9363 12.8308 14.9255 12.8266C14.9147 12.8224 14.9052 12.8155 14.8979 12.8066H14.861V13.042H14.9103C14.9209 13.0007 14.9375 12.9611 14.9595 12.9243C14.9811 12.8881 15.0057 12.8881 15.0919 12.8881H15.1134V13.395C15.1134 13.5368 15.1042 13.5368 15.0057 13.5368V13.585H15.4152V13.5368ZM15.9336 13.3958C15.9336 13.5256 15.9336 13.5256 16.029 13.5376V13.5859H15.6442V13.5376C15.7304 13.5376 15.7427 13.5376 15.7427 13.3958V13.0187C15.7427 12.9478 15.7427 12.9157 15.7266 12.8991C15.7133 12.8854 15.6889 12.8824 15.6442 12.8769V12.8316H16.029V12.8769C15.9459 12.8769 15.9336 12.8769 15.9336 13.0187V13.3958ZM16.806 13.4715C16.8804 13.3985 16.9223 13.2995 16.9223 13.1962C16.9223 13.0957 16.8819 12.9991 16.8099 12.9274C16.7379 12.8557 16.6401 12.8147 16.5374 12.8131C16.4848 12.8115 16.4323 12.8201 16.3831 12.8386C16.3339 12.8571 16.2889 12.8849 16.2508 12.9206C16.2127 12.9563 16.1822 12.999 16.1611 13.0463C16.14 13.0936 16.1288 13.1446 16.128 13.1962C16.128 13.2995 16.1698 13.3985 16.2443 13.4715C16.3188 13.5444 16.4198 13.5854 16.5251 13.5854C16.6305 13.5854 16.7315 13.5444 16.806 13.4715ZM16.5374 13.5613C16.4266 13.5613 16.3435 13.4074 16.3435 13.1962V13.1842C16.3435 12.973 16.3928 12.8915 16.5005 12.8915C16.6083 12.8915 16.6914 13.0514 16.6914 13.2596C16.6914 13.4678 16.6483 13.5613 16.5374 13.5613ZM15.6708 14.2222V14.2704C15.5876 14.2704 15.5753 14.2704 15.5753 14.4002V14.7894C15.5753 14.9191 15.5753 14.9191 15.6708 14.9282V14.9764H15.2982V14.9251C15.3814 14.9251 15.3937 14.9251 15.3937 14.7863V14.376L15.1659 14.9523H15.1074L14.8888 14.4092V14.6687V14.8588C14.8888 14.907 14.9257 14.9191 14.9965 14.9191V14.9644H14.7102V14.9251C14.7687 14.9251 14.7933 14.9251 14.7933 14.8678C14.8062 14.801 14.8144 14.7335 14.818 14.6657V14.4303C14.818 14.2885 14.818 14.2765 14.7195 14.2674V14.2191H14.9965L15.2028 14.6777L15.3814 14.2191L15.6708 14.2222ZM15.8337 14.2914C15.8496 14.3068 15.8496 14.3386 15.8496 14.4124V14.4124H15.8373V14.7896V14.7896C15.8373 14.8676 15.8373 14.9018 15.8203 14.9167C15.8071 14.9284 15.7836 14.9284 15.7419 14.9284V14.9555H16.3576C16.3576 14.9395 16.3648 14.9075 16.3729 14.8718L16.3729 14.8718L16.3729 14.8718C16.3831 14.8269 16.3945 14.7763 16.3945 14.7443H16.3453C16.3315 14.786 16.3118 14.8256 16.2868 14.862C16.2515 14.8881 16.2078 14.901 16.1636 14.8982C16.1363 14.9047 16.1078 14.9047 16.0805 14.8982C16.0559 14.8982 16.0559 14.862 16.0559 14.8017V14.6146H16.1175C16.1801 14.6146 16.21 14.6146 16.2244 14.6296C16.2375 14.6433 16.2375 14.6696 16.2375 14.7202H16.2868V14.4487H16.2283C16.216 14.5422 16.2037 14.5422 16.1082 14.5422H16.0466V14.3189C16.0466 14.2827 16.0466 14.2827 16.0959 14.2827H16.1205C16.179 14.2827 16.216 14.2948 16.2406 14.3068C16.2652 14.3189 16.2868 14.3551 16.2868 14.4124H16.3299V14.2254H15.7634V14.2737C15.8005 14.2776 15.8217 14.2798 15.8337 14.2914ZM16.8106 14.9281H16.8352C16.8585 14.9281 16.8708 14.9281 16.8759 14.9221C16.8817 14.9153 16.8786 14.901 16.8721 14.8708L16.8229 14.7532H16.632L16.595 14.8588C16.595 14.907 16.595 14.9191 16.632 14.9281H16.6689V14.9764H16.3919V14.9281C16.4503 14.9281 16.475 14.9282 16.5119 14.8226L16.7521 14.2191H16.8352L16.9214 14.4424C16.9676 14.5842 17.0168 14.7139 17.0661 14.8316C17.1099 14.9362 17.122 14.9383 17.1675 14.9459L17.1764 14.9475L17.1861 14.9493V14.9975H16.8106V14.9281ZM16.6566 14.6807H16.8106L16.7397 14.4575L16.6566 14.6807ZM7.42304 21.7569L7.42294 21.7568L7.42292 21.7568C7.32719 21.7016 7.23071 21.6459 7.13849 21.5892L7.13541 21.5771C7.38073 21.2275 7.71006 20.9425 8.09436 20.7471C8.47865 20.5517 8.9061 20.452 9.33901 20.4568C9.77191 20.4616 10.197 20.5707 10.5767 20.7745C10.9564 20.9783 11.2791 21.2705 11.5163 21.6254C11.0885 21.5226 10.6703 21.3844 10.2664 21.212C9.9768 21.0812 9.66173 21.0132 9.34281 21.0129C9.00698 21.0125 8.67584 21.0902 8.37665 21.2397C8.07745 21.3892 7.81876 21.6062 7.62184 21.8728C7.55709 21.8342 7.49025 21.7957 7.42304 21.7569ZM10.5668 21.8042L10.0989 21.5327C9.73823 21.3647 9.3293 21.3247 8.94188 21.4193C8.55446 21.5139 8.21257 21.7374 7.97458 22.0516C8.45941 22.3009 8.92581 22.499 9.26429 22.6428C9.40511 22.7026 9.52378 22.753 9.61243 22.7938C9.70026 22.8324 9.77197 22.8993 9.81566 22.9834C9.85935 23.0674 9.87239 23.1636 9.85261 23.2559C9.83284 23.3482 9.78144 23.4311 9.70695 23.4909C9.63245 23.5506 9.53935 23.5836 9.4431 23.5843C9.36127 23.5843 9.28153 23.559 9.21528 23.5119C8.69063 23.2054 8.19321 22.8562 7.72829 22.468C7.646 22.6704 7.60521 22.8867 7.60822 23.1046C7.61136 23.4288 7.70479 23.7459 7.87841 24.0219C8.05202 24.2979 8.29925 24.5221 8.59339 24.6705C10.2359 25.5684 12.079 26.0555 13.9595 26.0885C16.6687 26.0885 18.8576 25.3101 20.6248 23.7442C15.952 25.0096 12.0834 22.7069 10.5733 21.8081L10.5668 21.8042ZM12.2755 24.6101C12.1938 24.6101 12.1155 24.5783 12.0578 24.5217C12 24.4652 11.9676 24.3884 11.9676 24.3084C11.9676 24.2284 12 24.1516 12.0578 24.0951C12.1155 24.0385 12.1938 24.0067 12.2755 24.0067C12.3571 24.0067 12.4354 24.0385 12.4932 24.0951C12.5509 24.1516 12.5833 24.2284 12.5833 24.3084C12.5834 24.3869 12.5522 24.4623 12.4965 24.5186C12.4407 24.5749 12.3647 24.6078 12.2847 24.6101H12.2755ZM15.4157 25.117C15.3548 25.117 15.2953 25.0993 15.2447 25.0661C15.194 25.033 15.1546 24.9859 15.1313 24.9307C15.108 24.8756 15.1019 24.8149 15.1138 24.7564C15.1256 24.6979 15.155 24.6441 15.198 24.6019C15.2411 24.5597 15.2959 24.531 15.3556 24.5194C15.4154 24.5077 15.4773 24.5137 15.5335 24.5365C15.5898 24.5594 15.6379 24.598 15.6717 24.6476C15.7055 24.6973 15.7236 24.7556 15.7236 24.8153C15.7236 24.8953 15.6911 24.972 15.6334 25.0286C15.5757 25.0852 15.4974 25.117 15.4157 25.117ZM12.2522 26.2879C12.8167 26.3833 13.388 26.4348 13.9608 26.4418C14.3949 26.4418 14.829 26.4176 15.26 26.3814C15.3216 26.6168 15.4047 26.8642 15.5002 27.1236H15.454C15.3398 27.119 15.2258 27.1375 15.1192 27.1779C15.0125 27.2182 14.9155 27.2796 14.8341 27.3583C14.7527 27.4369 14.6886 27.5312 14.6459 27.6351C14.6032 27.739 14.5827 27.8504 14.5858 27.9624C14.5845 28.0738 14.6062 28.1842 14.6496 28.2872C14.6929 28.3902 14.7571 28.4835 14.8382 28.5615C14.9193 28.6396 15.0156 28.7008 15.1214 28.7414C15.2272 28.7821 15.3404 28.8014 15.454 28.7981C15.5223 28.796 15.5903 28.7879 15.6572 28.774C15.5494 29.483 14.7182 30.2614 13.6499 30.6144C12.5631 30.2614 11.7473 29.4709 11.6395 28.774C11.7063 28.7885 11.7743 28.7966 11.8427 28.7981C11.957 28.804 12.0713 28.7866 12.1783 28.7469C12.2854 28.7072 12.3828 28.6461 12.4645 28.5675C12.5461 28.4889 12.6102 28.3945 12.6526 28.2903C12.695 28.1862 12.7149 28.0745 12.7109 27.9624C12.7121 27.8529 12.6912 27.7443 12.6494 27.6428C12.6076 27.5413 12.5457 27.4489 12.4673 27.3709C12.3889 27.2929 12.2955 27.2309 12.1925 27.1885C12.0896 27.1461 11.979 27.124 11.8673 27.1236C12.0171 26.855 12.1458 26.5757 12.2522 26.2879ZM22.0226 8.24331C22.075 8.32869 22.149 8.39937 22.2375 8.44852C22.3259 8.49768 22.4258 8.52364 22.5275 8.5239C22.7329 8.51237 22.9315 8.44784 23.1032 8.33684C23.2284 8.27404 23.3351 8.18093 23.4132 8.06634C23.4913 7.95176 23.5383 7.8195 23.5496 7.68214C23.5469 7.56633 23.5141 7.45312 23.4542 7.35327C23.4015 7.26876 23.3272 7.19923 23.2386 7.15159C23.15 7.10395 23.0503 7.07987 22.9493 7.08174C22.7515 7.0885 22.5597 7.14909 22.3951 7.25672C22.2658 7.3236 22.1559 7.4215 22.0757 7.54126C21.9955 7.66103 21.9476 7.79876 21.9364 7.94161C21.9389 8.04766 21.9685 8.1514 22.0226 8.24331ZM6.31379 3.50487C8.45002 1.98523 11.0224 1.16757 13.6621 1.16914C16.9819 1.17473 20.1637 2.47084 22.5094 4.77301C24.8551 7.07518 26.173 10.1953 26.1738 13.4487C26.1805 15.3419 25.7359 17.2105 24.8753 18.9056C24.0148 20.6007 22.7621 22.0753 21.2171 23.212C19.3794 23.8429 17.3963 23.9476 15.5001 23.5137C15.5493 22.7685 15.8634 22.0051 16.3313 21.8633C18.2599 21.2844 19.9346 20.0882 21.0875 18.4663C22.2405 16.8444 22.805 14.8903 22.6909 12.9168C22.5767 10.9433 21.7905 9.06427 20.4579 7.5804C19.1253 6.09653 17.3234 5.09353 15.3404 4.73184C13.3574 4.37016 11.308 4.67069 9.51985 5.58537C7.73174 6.50004 6.30832 7.976 5.47731 9.77714C4.64629 11.5783 4.4557 13.6005 4.93601 15.5204C5.41632 17.4402 6.53978 19.1467 8.12667 20.3669C7.61207 20.5849 7.1704 20.9404 6.85211 21.3927C6.68796 21.2888 6.53064 21.1749 6.38107 21.0517L6.29795 21.1332C6.39339 21.2388 6.5504 21.3927 6.73204 21.5677C6.45553 22.0242 6.30982 22.5453 6.31026 23.0762C6.30413 23.1586 6.30413 23.2413 6.31026 23.3236C4.17458 21.8032 2.58502 19.6592 1.76953 17.1988C0.954042 14.7384 0.954513 12.0882 1.77088 9.62813C2.58724 7.16805 4.17756 5.0245 6.31379 3.50487ZM2.7421 9.74068L2.43423 9.65922L2.07403 10.863L4.25372 11.4665L4.58929 10.2596L4.28143 10.1782L4.03206 11.0501L3.35783 10.8721L3.59796 10.0695L3.30857 9.98808L3.08075 10.7906L2.46502 10.6247L2.7421 9.74068ZM3.63183 12.9961L1.78463 13.503L1.80926 13.8801L4.09671 13.2073V12.8422L1.85236 11.9582V12.3233L3.63183 12.9961ZM4.13057 14.6495L1.90778 14.9512L1.95396 15.3193L4.17983 15.0025L4.13057 14.6495ZM5.99932 19.2777C5.9991 19.0875 5.9365 18.9024 5.82076 18.7497C5.7472 18.6391 5.64983 18.5456 5.53548 18.4757C5.42114 18.4059 5.29259 18.3614 5.15884 18.3454C4.89607 18.3833 4.64956 18.4931 4.44767 18.6622L3.45019 19.323L3.65338 19.6066L4.70012 18.9096L4.72764 18.8918C4.92898 18.761 5.04391 18.6863 5.15884 18.6863C5.23576 18.6878 5.31112 18.7079 5.37824 18.7447C5.44537 18.7816 5.50219 18.8341 5.54368 18.8975C5.60662 18.9868 5.64384 19.091 5.65143 19.1993C5.65143 19.3531 5.56831 19.4587 5.37435 19.5885C5.34972 19.6005 4.20754 20.4031 4.20754 20.4031L4.41073 20.7048L5.54368 19.9264C5.92851 19.6669 5.99932 19.4919 5.99932 19.2777ZM4.93102 17.3649L4.80788 17.0632L3.27163 17.6545L4.50309 16.2033L4.38302 15.9016L2.25259 16.6317L2.37266 16.9334L3.93662 16.3903L2.70515 17.8536L2.82522 18.1553L4.93102 17.3649ZM4.87561 8.36187L5.51289 8.4192L5.66682 8.07223L4.93102 8.01189C4.81156 7.99514 4.69028 7.99514 4.57082 8.01189C4.53239 8.02735 4.49617 8.04764 4.46307 8.07223C4.47712 8.03441 4.48542 7.99476 4.4877 7.95457C4.49162 7.89422 4.48325 7.8337 4.46307 7.77656C4.43994 7.7106 4.40348 7.64989 4.35588 7.59805C4.30827 7.54622 4.25049 7.50431 4.18599 7.47485C4.09236 7.42151 3.9864 7.39244 3.87812 7.39037C3.5641 7.39037 3.4194 7.58045 3.21621 7.93345L2.95144 8.39204L4.9341 9.44199L5.10343 9.14028L4.28451 8.7028L4.33376 8.62134C4.47846 8.36187 4.52772 8.33774 4.87561 8.36187ZM5.89772 7.49899C6.15782 7.46265 6.39654 7.33766 6.57195 7.14599H6.56272C6.69752 7.0089 6.78478 6.83364 6.81209 6.64515C6.80993 6.55542 6.78853 6.46715 6.74928 6.38606C6.71003 6.30497 6.65381 6.23288 6.58427 6.17449C6.47296 6.07364 6.32638 6.01855 6.1748 6.02061C6.00405 6.03487 5.83726 6.0788 5.68222 6.15035L5.65237 6.1648C5.48306 6.24705 5.23918 6.36553 5.09111 6.23181C5.06479 6.20798 5.04381 6.17904 5.0295 6.14684C5.01519 6.11464 5.00786 6.07987 5.00799 6.04475C5.01301 5.94295 5.0557 5.84642 5.12806 5.77321C5.2448 5.64883 5.40319 5.56961 5.57446 5.54995L5.51289 5.24824C5.38736 5.2513 5.26413 5.28189 5.15225 5.33776C5.04037 5.39362 4.94269 5.47335 4.86637 5.57107C4.73853 5.70595 4.66521 5.88185 4.6601 6.06587C4.66084 6.14648 4.67938 6.22598 4.71446 6.29889C4.74953 6.37181 4.80031 6.43641 4.86329 6.48826C5.11574 6.71153 5.40514 6.618 5.68222 6.5124C5.82449 6.43944 5.9787 6.39145 6.13786 6.3706C6.21335 6.36913 6.28676 6.3949 6.34413 6.44301C6.37714 6.47067 6.40381 6.50486 6.42239 6.54334C6.44096 6.58182 6.45101 6.62371 6.45188 6.66627C6.44842 6.77198 6.40573 6.87281 6.33182 6.94988C6.19094 7.0777 6.01579 7.16353 5.82691 7.19728L5.89772 7.49899ZM6.34413 4.28277L7.71414 6.02665L7.97582 5.8245L6.62121 4.06252L6.34413 4.28277ZM8.28369 3.39575L9.19497 5.0823L9.51515 4.91938L8.60695 3.23886L9.17342 2.95525L9.02872 2.68371L7.57252 3.42592L7.71721 3.69746L8.28369 3.39575ZM11.1807 4.30389L11.5286 4.21036L11.2823 3.37463L11.5902 1.89927L11.2023 2.00487L11.0114 3.06688L10.2417 2.27641L9.8692 2.38201L10.9375 3.48023L11.1807 4.30389ZM13.4413 3.10825C13.4991 3.16483 13.5774 3.19662 13.659 3.19662C13.7407 3.19662 13.819 3.16483 13.8767 3.10825C13.9345 3.05167 13.9669 2.97493 13.9669 2.89491C13.9669 2.81489 13.9345 2.73815 13.8767 2.68157C13.819 2.62499 13.7407 2.5932 13.659 2.5932C13.5774 2.5932 13.4991 2.62499 13.4413 2.68157C13.3836 2.73815 13.3512 2.81489 13.3512 2.89491C13.3512 2.97493 13.3836 3.05167 13.4413 3.10825ZM16.6576 4.4819C16.8215 4.48406 16.983 4.44345 17.1256 4.36423C17.3156 4.24142 17.4727 4.07561 17.5837 3.88079C17.6946 3.68598 17.756 3.46788 17.7629 3.24489C17.7659 3.05586 17.7204 2.86912 17.6305 2.70182C17.5426 2.55012 17.4149 2.42424 17.2606 2.33723C17.1063 2.25022 16.9311 2.20526 16.7531 2.20701C16.5055 2.21467 16.2678 2.3036 16.078 2.45953C15.8881 2.61545 15.7573 2.82934 15.7063 3.06688C15.6689 3.18525 15.6482 3.30808 15.6448 3.43195C15.6374 3.62528 15.6831 3.81701 15.7771 3.9871C15.8658 4.13882 15.9941 4.26465 16.1489 4.35162C16.3036 4.43859 16.4793 4.48356 16.6576 4.4819ZM19.3669 3.54962L20.1211 4.01123L20.2658 3.76081L19.2222 3.12723L18.08 5.02497L18.3879 5.19997L18.9051 4.34009L19.6255 4.75344L19.7825 4.49397L19.059 4.08063L19.3669 3.54962ZM20.8328 5.97931C20.881 6.01453 20.9386 6.03518 20.9986 6.03872V6.02665C21.0798 6.02633 21.1581 5.99657 21.2184 5.9431C21.2786 5.88964 21.3165 5.81624 21.3249 5.73701C21.3248 5.67813 21.3071 5.62057 21.274 5.57142C21.2409 5.52227 21.1939 5.48368 21.1387 5.46041C21.0835 5.43714 21.0226 5.4302 20.9634 5.44045C20.9043 5.4507 20.8495 5.47769 20.8058 5.51809C20.7621 5.55849 20.7314 5.61054 20.7175 5.66783C20.7036 5.72511 20.7071 5.78513 20.7276 5.84047C20.7481 5.89582 20.7847 5.94408 20.8328 5.97931ZM22.2023 21.0005C22.5163 21.0005 22.7688 20.919 23.1536 20.4363L23.4954 19.9988L21.7405 18.62L21.4327 19.0092C21.1962 19.2439 21.0513 19.5525 21.0232 19.8811C21.0283 20.0491 21.0722 20.2138 21.1516 20.3628C21.2311 20.5117 21.344 20.641 21.4819 20.741C21.6857 20.904 21.9393 20.9953 22.2023 21.0005ZM23.9264 18.5747C24.2927 18.5747 24.4313 18.3605 24.6006 17.9713C24.6584 17.8114 24.7262 17.6553 24.8038 17.5037L22.7596 16.5985L22.6149 16.9183L23.4707 17.2955L23.4215 17.389C23.3014 17.6424 23.2521 17.6907 22.9043 17.6907H22.2547L22.0976 18.0316H22.8427C22.965 18.0407 23.088 18.0285 23.206 17.9954C23.2406 17.9813 23.2728 17.9619 23.3014 17.9381V17.9954C23.2987 18.0776 23.3155 18.1592 23.3507 18.2338C23.4057 18.3367 23.4885 18.4229 23.59 18.483C23.6915 18.5431 23.8078 18.5748 23.9264 18.5747ZM24.3728 16.0947C24.6132 16.0991 24.8491 16.0295 25.047 15.8955H25.0316C25.1609 15.8073 25.2656 15.6888 25.336 15.5507C25.4065 15.4126 25.4405 15.2594 25.4349 15.1051C25.4349 14.4443 24.8192 14.0672 24.2034 14.0672C23.9592 14.0664 23.7202 14.1367 23.5169 14.2693C23.3913 14.3599 23.2897 14.4787 23.2206 14.6157C23.1515 14.7527 23.1169 14.904 23.1198 15.0568C23.1198 15.793 23.8309 16.0947 24.3728 16.0947ZM25.2564 13.159L25.5642 13.1349L25.4657 11.91L23.2306 12.088L23.2521 12.441L24.265 12.3565L24.3358 13.1711L24.6437 13.147L24.5698 12.3354L25.1855 12.2871L25.2564 13.159ZM24.1881 10.0364L24.8038 9.35148L24.6745 8.9502L23.8586 9.90361L22.5225 9.6019L22.6426 9.96696L23.6401 10.1902L22.9781 10.9445L23.0982 11.3216L23.9787 10.2868L25.2102 10.5885L25.0901 10.2355L24.1881 10.0364ZM23.9017 7.70113C23.9029 7.51717 23.8494 7.33686 23.7478 7.18219H23.7324C23.6463 7.04026 23.5229 6.92364 23.375 6.84454C23.2272 6.76545 23.0603 6.7268 22.8919 6.73265C22.6434 6.73998 22.4016 6.81408 22.1931 6.94686C22.0237 7.0413 21.8811 7.17582 21.7784 7.33815C21.6757 7.50047 21.6161 7.68543 21.6051 7.87612C21.6046 8.06041 21.6592 8.2408 21.7621 8.39506C21.8503 8.53589 21.9739 8.65224 22.121 8.73304C22.2681 8.81384 22.4339 8.8564 22.6025 8.85668C22.8559 8.84714 23.1018 8.76994 23.3137 8.63341C23.4825 8.53744 23.6244 8.40214 23.727 8.23951C23.8296 8.07688 23.8896 7.89195 23.9017 7.70113ZM84.8746 9.49305C86.0045 9.49305 86.6295 8.5487 86.6295 7.23928C86.6295 5.92987 85.8844 5.09413 84.8377 5.09413C83.791 5.09413 83.0952 5.96607 83.0952 7.28756C83.0952 8.60904 83.8618 9.49305 84.8746 9.49305ZM3.84452 7.73791C3.90709 7.73713 3.96874 7.75275 4.02308 7.78317C4.10564 7.82911 4.17623 7.89313 4.22935 7.97023C4.23558 8.00111 4.23558 8.03288 4.22935 8.06376C4.20651 8.20688 4.153 8.34364 4.07234 8.46503L4.02308 8.54649L3.3858 8.21763L3.48124 8.03962C3.61362 7.83144 3.69982 7.73791 3.84452 7.73791ZM16.7774 2.48788C16.2848 2.48788 16.02 3.04001 16.02 3.42921C16.0134 3.56905 16.0464 3.70795 16.1155 3.83049C16.1668 3.92506 16.2429 4.00453 16.336 4.06074C16.4291 4.11694 16.5357 4.14786 16.645 4.1503C17.1745 4.1503 17.4024 3.51369 17.4024 3.19388C17.4108 3.10689 17.4011 3.01912 17.3739 2.9359C17.3467 2.85268 17.3026 2.77574 17.2441 2.70973C17.1857 2.64372 17.1142 2.59003 17.034 2.55189C16.9537 2.51376 16.8665 2.49198 16.7774 2.48788ZM12.8572 22.2079C12.7504 22.2829 12.6604 22.3783 12.5925 22.4885C12.2507 22.3377 11.8413 22.1355 11.595 21.9816C12.0108 22.0814 12.4323 22.157 12.8572 22.2079ZM7.22375 23.0928C7.22202 22.7868 7.29151 22.4845 7.42694 22.2088C7.40053 22.1869 7.37429 22.1655 7.34833 22.1442C7.21996 22.0391 7.09836 21.9395 6.99593 21.8316C6.78127 22.2121 6.66896 22.6399 6.66959 23.0747C6.66959 23.4169 6.73841 23.7557 6.87213 24.0718C7.00584 24.3879 7.20182 24.675 7.44886 24.9169C7.6959 25.1587 7.98916 25.3504 8.31186 25.4811C8.63457 25.6118 8.98039 25.6788 9.32955 25.6784C9.50312 25.6818 9.67655 25.6666 9.84677 25.6332C9.34193 25.4469 8.85468 25.2177 8.39056 24.9483C8.04231 24.7722 7.74964 24.5064 7.54404 24.1794C7.33845 23.8525 7.22771 23.4768 7.22375 23.0928ZM21.3376 19.823C21.3467 19.9467 21.3838 20.0669 21.4461 20.1749C21.5084 20.2829 21.5943 20.376 21.6978 20.4475C21.8398 20.5736 22.0234 20.6454 22.215 20.6497C22.5228 20.6497 22.6953 20.4716 22.9385 20.176L23.0339 20.0583L21.747 19.0566L21.6023 19.2346C21.4545 19.3994 21.3621 19.6049 21.3376 19.823ZM24.3066 17.8657C24.1865 18.1372 24.1034 18.2217 23.9341 18.2217C23.863 18.2217 23.7934 18.2015 23.7338 18.1635C23.6742 18.1254 23.6272 18.0712 23.5985 18.0075C23.5841 17.9656 23.5758 17.9219 23.5739 17.8777C23.5871 17.7453 23.628 17.6169 23.694 17.5006L23.7309 17.4191L24.3805 17.7027L24.3066 17.8657ZM24.176 14.4265C23.9968 14.4217 23.8205 14.4712 23.6711 14.5683C23.5919 14.6279 23.5279 14.7047 23.4841 14.7927C23.4403 14.8806 23.4179 14.9773 23.4186 15.0751C23.4186 15.5126 23.9358 15.7479 24.3699 15.7479C24.5453 15.7528 24.7177 15.7032 24.8625 15.6061C24.9407 15.5484 25.0042 15.4736 25.048 15.3878C25.0918 15.3019 25.1147 15.2073 25.115 15.1113C25.1157 14.9933 25.0779 14.8781 25.0072 14.7825C24.9058 14.6646 24.7781 14.5712 24.634 14.5095C24.4898 14.4477 24.3331 14.4193 24.176 14.4265ZM99.6395 15.3066C100.973 15.3066 101.828 15.4273 102.49 15.8045C104.088 16.7005 104.608 18.5259 104.608 20.4478C104.608 22.3696 104.067 23.8903 102.9 24.729C102.201 25.2238 101.216 25.4139 99.8919 25.4139H98.4942C98.0848 25.4139 97.9893 25.3173 97.9893 24.9161V15.3066H99.6395ZM22.2963 13.4304C22.2955 11.9857 21.9174 10.5652 21.198 9.30414C20.4787 8.04307 19.442 6.98339 18.1867 6.22595C16.9313 5.4685 15.499 5.0385 14.0262 4.97685C12.5533 4.9152 11.0888 5.22396 9.77214 5.87375C8.45545 6.52353 7.33035 7.49273 6.50391 8.68909C5.67747 9.88546 5.17719 11.2692 5.05068 12.7086C4.92417 14.148 5.17564 15.5952 5.78115 16.9124C6.38667 18.2296 7.32609 19.3731 8.51001 20.234C8.77279 20.1633 9.04412 20.1277 9.31662 20.1284C9.87653 20.13 10.4252 20.2826 10.9025 20.5694C11.3798 20.8562 11.7674 21.2663 12.0228 21.7546C12.5588 21.8532 13.1029 21.9047 13.6483 21.9084C15.9397 21.8997 18.1346 21.0036 19.7546 19.4154C21.3745 17.8273 22.2882 15.676 22.2963 13.4304ZM14.2917 7.31176L15.2153 7.91518V7.97552L14.9998 8.05698C14.9506 8.08112 14.9506 8.11733 14.9752 8.12638L15.5047 8.60006H15.554L15.9789 8.02983C16.0035 7.99664 15.9788 7.96044 15.9419 7.94837L15.6771 7.9001V7.85484L16.376 6.88635H16.4838L17.1826 7.85484V7.92423L16.9178 7.97251C16.8686 7.97251 16.8563 8.01776 16.8809 8.05397L17.278 8.63325H17.3273L17.8907 8.15957C17.9153 8.13543 17.9153 8.10224 17.8661 8.09017L17.6506 7.99664V7.9363L18.5526 7.33288L18.6234 7.35702L18.0723 8.9953C17.5303 8.8323 16.9641 8.75988 16.3975 8.78109C15.8321 8.76208 15.2673 8.83445 14.7258 8.9953L14.1748 7.35702L14.2917 7.31176ZM17.9861 9.42372C17.9861 9.58966 17.2904 9.72543 16.4468 9.72543C15.6033 9.72543 14.9075 9.5957 14.9075 9.42372C14.9075 9.25175 15.6063 9.12202 16.4468 9.12202C17.2873 9.12202 17.9892 9.26985 17.9892 9.43278L17.9861 9.42372ZM13.8361 11.8072C13.8157 11.6038 13.8518 11.3988 13.9407 11.214C14.0296 11.0291 14.1679 10.8713 14.341 10.7573C14.6143 10.6266 14.9182 10.5693 15.2215 10.5913H17.8907V15.8592H14.9783C14.3195 15.8592 13.9223 16.001 13.8854 16.5893H13.8238L13.8361 11.8072ZM13.4636 11.8072V16.5803H13.4051C13.3681 15.9768 12.9833 15.8501 12.3091 15.8501H9.4213V10.6004H12.0813C12.3836 10.5783 12.6865 10.6356 12.9587 10.7663C13.1304 10.8818 13.2679 11.0398 13.3571 11.2242C13.4464 11.4086 13.4841 11.6129 13.4667 11.8163L13.4636 11.8072ZM9.31354 9.42372C9.31354 9.2608 10.0093 9.12202 10.8529 9.12202C11.6964 9.12202 12.3922 9.25175 12.3922 9.42372C12.3922 9.5957 11.6933 9.72543 10.8529 9.72543C10.0124 9.72543 9.31662 9.59872 9.31662 9.43278L9.31354 9.42372ZM8.72244 7.31176L9.64604 7.91518V7.97552L9.43053 8.06905C9.38128 8.09319 9.38128 8.12638 9.4059 8.13845L9.93543 8.61213H9.98161L10.3788 8.03285C10.4034 7.99664 10.3788 7.96345 10.3449 7.95139L10.0801 7.90311V7.84579L10.7759 6.8773H10.8867L11.5825 7.84579V7.91518L11.3609 7.98457C11.3147 7.98457 11.3024 8.02983 11.327 8.06603L11.7211 8.64532H11.7703L12.3368 8.17163C12.3614 8.1475 12.3614 8.11431 12.3122 8.10224L12.0967 8.00871V7.94837L12.9987 7.34495L13.0695 7.36909L12.5154 9.00737C11.9743 8.84454 11.4092 8.77212 10.8436 8.79315C10.2782 8.77415 9.71339 8.84652 9.17192 9.00737L8.61776 7.36909L8.72244 7.31176ZM13.6483 20.7408C12.7924 20.7408 12.109 20.6111 12.109 20.4391C12.109 20.2671 12.8078 20.1374 13.6483 20.1374C14.4888 20.1374 15.1876 20.2671 15.1876 20.4391C15.1876 20.6111 14.5134 20.7408 13.6606 20.7408H13.6483ZM15.3077 19.9986C14.7667 19.8358 14.2015 19.7634 13.636 19.7844C13.0695 19.7652 12.5037 19.8376 11.9612 19.9986L11.4101 18.3603L11.4809 18.3362L12.4045 18.9396V19L12.189 19.0935C12.1398 19.1176 12.1398 19.1508 12.1644 19.1629L12.6939 19.6366H12.7401L13.1372 19.0573C13.1619 19.0211 13.1372 18.9879 13.1034 18.9758L12.8386 18.9276V18.8582L13.5344 17.8897H13.6421L14.341 18.8582V18.9276L14.0762 18.9758C14.027 18.9758 14.0177 19.0211 14.0393 19.0573L14.4364 19.6366H14.4857L15.0522 19.1629C15.0737 19.1388 15.0737 19.1056 15.0275 19.0935L14.809 19V18.9396L15.711 18.3362L15.7849 18.3603L15.3077 19.9986ZM18.8328 16.9212H14.5842C14.49 17.0744 14.3529 17.1979 14.1891 17.277C14.0254 17.3562 13.842 17.3876 13.6606 17.3677C13.4794 17.3858 13.2967 17.3535 13.1333 17.2745C12.97 17.1956 12.8326 17.0731 12.737 16.9212H8.48538V16.5199L8.13749 16.6617C8.12294 16.7389 8.08093 16.8086 8.01892 16.8583C7.95692 16.908 7.87894 16.9346 7.79884 16.9333C7.71006 16.9309 7.62561 16.8951 7.5631 16.8333C7.50058 16.7715 7.46482 16.6884 7.46326 16.6014C7.46326 16.5142 7.49862 16.4305 7.56155 16.3688C7.62449 16.3072 7.70984 16.2725 7.79884 16.2725C7.86406 16.2723 7.92766 16.2924 7.98048 16.3298L8.47307 16.1186V15.6842L8.13749 15.7898C8.11811 15.8593 8.07534 15.9204 8.01611 15.9631C7.95687 16.0058 7.88465 16.0277 7.81116 16.0251C7.72237 16.0228 7.63792 15.987 7.57541 15.9252C7.5129 15.8633 7.47713 15.7803 7.47558 15.6932C7.47558 15.6501 7.48426 15.6073 7.50113 15.5674C7.51799 15.5275 7.54271 15.4912 7.57387 15.4607C7.60503 15.4302 7.64202 15.4059 7.68274 15.3894C7.72345 15.3729 7.76709 15.3644 7.81116 15.3644C7.89123 15.3669 7.96815 15.3956 8.02974 15.4458L8.47307 15.3161V14.8696L8.12518 14.9239C8.09979 14.9835 8.05705 15.0344 8.0023 15.0704C7.94755 15.1063 7.88321 15.1257 7.81731 15.126C7.73346 15.1182 7.65561 15.08 7.59896 15.0189C7.5423 14.9578 7.51091 14.8782 7.51091 14.7957C7.51091 14.7131 7.5423 14.6335 7.59896 14.5724C7.65561 14.5113 7.73346 14.4731 7.81731 14.4653C7.86281 14.4644 7.90795 14.4734 7.94948 14.4917C7.991 14.5099 8.02787 14.537 8.05745 14.5709L8.46691 14.5015V14.0429H8.10671C8.07643 14.092 8.03408 14.1329 7.98354 14.1619C7.93299 14.1909 7.87585 14.207 7.81731 14.2088C7.72905 14.2065 7.64504 14.1712 7.58261 14.11C7.52018 14.0488 7.48407 13.9665 7.48174 13.88C7.48133 13.8365 7.48971 13.7934 7.50639 13.7532C7.52307 13.7129 7.54773 13.6763 7.57893 13.6455C7.61013 13.6146 7.64726 13.5901 7.68818 13.5734C7.72909 13.5567 7.77298 13.5481 7.81731 13.5481C7.87145 13.5496 7.92452 13.5631 7.97253 13.5877C8.02053 13.6123 8.0622 13.6472 8.09439 13.6899H8.46691V13.1951H8.08208C8.05091 13.2388 8.00946 13.2745 7.96123 13.2992C7.913 13.3239 7.85941 13.3368 7.805 13.3369C7.72115 13.329 7.6433 13.2908 7.58664 13.2297C7.52999 13.1687 7.4986 13.0891 7.4986 13.0065C7.4986 12.924 7.52999 12.8444 7.58664 12.7833C7.6433 12.7222 7.72115 12.684 7.805 12.6761C7.86353 12.6779 7.92068 12.6941 7.97122 12.7231C8.02177 12.752 8.06411 12.793 8.09439 12.8421H8.4546V12.3805L8.0359 12.3111C7.97249 12.375 7.88661 12.4127 7.79576 12.4167C7.70696 12.4152 7.62218 12.3801 7.5591 12.3188C7.49601 12.2576 7.45947 12.1748 7.45711 12.0878C7.45751 12.0116 7.48468 11.9378 7.53403 11.8789C7.58339 11.82 7.65193 11.7796 7.72813 11.7644C7.80434 11.7491 7.88357 11.7601 7.95251 11.7954C8.02145 11.8306 8.0759 11.8881 8.10671 11.9581L8.4546 12.0154V11.5689L7.97432 11.4271C7.92386 11.4649 7.86371 11.4883 7.80051 11.4948C7.73732 11.5012 7.67354 11.4904 7.61621 11.4636C7.55888 11.4367 7.51023 11.3949 7.47564 11.3426C7.44104 11.2904 7.42185 11.2298 7.42016 11.1676C7.42016 11.0796 7.45585 10.9952 7.51936 10.9329C7.58287 10.8707 7.669 10.8357 7.75882 10.8357C7.83121 10.8379 7.90114 10.862 7.95901 10.9047C8.01689 10.9473 8.05988 11.0065 8.08208 11.0741L8.44228 11.1797V11.0017H8.81788V16.5682H12.9187L12.9679 16.6859C13.0387 16.8608 13.1711 17.0147 13.6175 17.0147C14.0639 17.0147 14.1932 16.8488 14.2671 16.6859L14.3164 16.5682H18.4418V11.0017H18.8143V16.9091L18.8328 16.9212ZM34.1372 20.3671C34.1372 17.7272 35.4456 15.1566 38.2164 15.1566C40.7778 15.1566 42.2925 17.2897 42.2925 20.3671C42.2925 22.995 40.9872 25.5656 38.2164 25.5656C35.6519 25.5656 34.1372 23.4325 34.1372 20.3671ZM12.9018 22.6383C13.6108 22.9607 14.3474 23.2212 15.1031 23.4167C15.1404 22.9276 15.2978 22.4546 15.5618 22.0379C14.9293 22.1701 14.2843 22.2368 13.6376 22.237C13.4913 22.242 13.3483 22.2809 13.2203 22.3507C13.0924 22.4205 12.9832 22.519 12.9018 22.6383ZM60.7151 6.10658C60.7177 6.36161 60.6182 6.6075 60.438 6.79146C60.0647 7.15431 59.4815 7.13267 58.9152 7.11166L58.9048 7.11127H58.6893V5.14413H59.305C59.7514 5.14413 60.1517 5.14413 60.4595 5.44584C60.6279 5.62589 60.7194 5.86239 60.7151 6.10658ZM74.7043 15.1566C71.9335 15.1566 70.6282 17.7272 70.6282 20.3671C70.6282 23.4325 72.1429 25.5656 74.7043 25.5656C77.4751 25.5656 78.7836 22.995 78.7836 20.3671C78.7836 17.2897 77.2689 15.1566 74.7043 15.1566ZM88.9874 16.4495C89.2471 16.8587 89.3731 17.336 89.3484 17.8173C89.3484 19.0784 88.8805 20.412 86.7162 20.4422H85.2938V15.3131H86.1497C86.7403 15.2685 87.3341 15.3414 87.8953 15.5273C88.3467 15.7185 88.7277 16.0402 88.9874 16.4495Z" fill="#70879C"/>
</g>
<defs>
<clipPath id="clip0_3900_23010">
<rect width="105.6" height="32" fill="white" transform="translate(0.800049)"/>
</clipPath>
</defs>
</svg>
