<svg width="64" height="64" viewBox="0 0 64 64" fill="none" xmlns="http://www.w3.org/2000/svg">
<path fill-rule="evenodd" clip-rule="evenodd" d="M45.4962 42.2063L45.7423 41.8521L50.5502 43.0886L52.459 38.4908L48.1853 35.9578L48.2693 35.5376C48.6354 33.5313 48.6354 31.4754 48.2693 29.4692L48.1913 29.043L52.453 26.468L50.5502 21.8701L45.7483 23.0706L45.5022 22.7165C44.3447 21.0367 42.8903 19.5823 41.2105 18.4248L40.8624 18.1786L42.0628 13.3767L37.465 11.474L34.932 15.7477L34.5118 15.6696C32.5058 15.3005 30.4494 15.3005 28.4434 15.6696L28.0172 15.7477L25.4902 11.48L20.8924 13.3827L22.1229 18.1846L21.7687 18.4248C20.0879 19.5814 18.6349 21.0384 17.483 22.7225L17.2369 23.0766L12.435 21.8761L10.5322 26.474L14.7999 29.001L14.7219 29.4211C14.3497 31.4289 14.3497 33.4879 14.7219 35.4956L14.7999 35.9157L10.5322 38.4428L12.441 43.0466L17.2429 41.8461L17.489 42.2003C18.6433 43.8827 20.0983 45.3377 21.7807 46.492L22.1709 46.7501L20.9404 51.552L25.5382 53.4548L28.0712 49.1871L28.4914 49.2651C30.4991 49.6373 32.5581 49.6373 34.5658 49.2651L34.986 49.1871L37.489 53.4428L42.0868 51.54L40.8564 46.7381L41.2105 46.492C42.8903 45.3389 44.3431 43.886 45.4962 42.2063ZM31.5116 25.8878C32.3796 25.8867 33.2391 26.058 34.0403 26.3917C34.8446 26.7226 35.5754 27.2097 36.1904 27.8247C36.8054 28.4397 37.2924 29.1705 37.6233 29.9749C37.9583 30.7775 38.1307 31.6386 38.1307 32.5084C38.1307 33.3781 37.9583 34.2392 37.6233 35.0418C37.1244 36.253 36.2763 37.2885 35.1872 38.0163C34.098 38.7441 32.8169 39.1314 31.507 39.1289C30.6375 39.13 29.7765 38.9588 28.9736 38.625C27.3531 37.9511 26.0659 36.6621 25.3943 35.0406C24.7226 33.4191 24.7213 31.5974 25.3906 29.9749C25.8909 28.7637 26.7399 27.7284 27.8298 27.0007C28.9196 26.273 30.2012 25.8856 31.5116 25.8878Z" fill="#3D7FFC"/>
<path fill-rule="evenodd" clip-rule="evenodd" d="M31.512 23.9049C32.6403 23.9035 33.7577 24.1262 34.7993 24.56C35.8449 24.9902 36.7949 25.6234 37.5944 26.4229C38.3939 27.2225 39.027 28.1725 39.4572 29.2182C39.8926 30.2616 40.1168 31.381 40.1168 32.5117C40.1168 33.6423 39.8926 34.7617 39.4572 35.8052C38.8085 37.3798 37.7061 38.7258 36.2902 39.672C34.8743 40.6181 33.2089 41.1216 31.5059 41.1184C30.3757 41.1198 29.2563 40.8972 28.2126 40.4633C26.1059 39.5873 24.4326 37.9116 23.5594 35.8036C22.6863 33.6956 22.6846 31.3274 23.5547 29.2182C24.2051 27.6436 25.3088 26.2978 26.7256 25.3518C28.1424 24.4057 29.8084 23.9021 31.512 23.9049ZM31.5106 25.8884C32.3786 25.8873 33.2381 26.0586 34.0393 26.3923C34.8436 26.7233 35.5744 27.2103 36.1894 27.8254C36.8044 28.4404 37.2914 29.1712 37.6223 29.9755C37.9573 30.7782 38.1297 31.6393 38.1297 32.509C38.1297 33.3787 37.9573 34.2398 37.6223 35.0424C37.1234 36.2537 36.2753 37.2891 35.1862 38.0169C34.097 38.7447 32.8159 39.132 31.506 39.1296C30.6365 39.1307 29.7755 38.9594 28.9726 38.6257C27.3521 37.9518 26.0649 36.6628 25.3933 35.0412C24.7216 33.4197 24.7203 31.598 25.3896 29.9755C25.8899 28.7643 26.7389 27.7291 27.8288 27.0014C28.9186 26.2736 30.2002 25.8863 31.5106 25.8884Z" fill="#FECE4D"/>
</svg>
