<svg width="51" height="51" viewBox="0 0 51 51" fill="none" xmlns="http://www.w3.org/2000/svg">
<g id="shop_ecommerce_bag">
<g id="Group 2470">
<path id="Path 38730" d="M18.1919 48.0005C17.203 48.0005 16.2363 47.7072 15.414 47.1578C14.5918 46.6084 13.9509 45.8275 13.5725 44.9139C13.1941 44.0003 13.095 42.9949 13.288 42.025C13.4809 41.0551 13.9571 40.1642 14.6564 39.465C15.3556 38.7657 16.2465 38.2895 17.2164 38.0966C18.1864 37.9036 19.1917 38.0027 20.1053 38.3811C21.0189 38.7595 21.7998 39.4004 22.3492 40.2226C22.8987 41.0449 23.1919 42.0116 23.1919 43.0005C23.1919 44.3266 22.6651 45.5983 21.7274 46.536C20.7897 47.4737 19.518 48.0005 18.1919 48.0005Z" fill="#BFBAFC"/>
<path id="Path 38731" d="M40.6982 48.0005C39.7093 48.0005 38.7426 47.7072 37.9204 47.1578C37.0981 46.6084 36.4573 45.8275 36.0788 44.9139C35.7004 44.0003 35.6014 42.9949 35.7943 42.025C35.9872 41.0551 36.4634 40.1642 37.1627 39.465C37.862 38.7657 38.7529 38.2895 39.7228 38.0966C40.6927 37.9036 41.698 38.0027 42.6117 38.3811C43.5253 38.7595 44.3062 39.4004 44.8556 40.2226C45.405 41.0449 45.6982 42.0116 45.6982 43.0005C45.6982 44.3266 45.1715 45.5983 44.2338 46.536C43.2961 47.4737 42.0243 48.0005 40.6982 48.0005Z" fill="#BFBAFC"/>
<path id="Path 38767" d="M13.1997 35.5L6.29471 8H0.699707V3H10.1147L12.1822 10.585L50.6997 13L45.6997 33L13.1997 35.5ZM13.5747 15.68L16.9247 30.14L41.8422 28.3325L44.1822 17.6125L13.5747 15.68Z" fill="#BFBAFC"/>
</g>
</g>
</svg>
