<svg width="100" height="32" viewBox="0 0 100 32" fill="none" xmlns="http://www.w3.org/2000/svg">
<g clip-path="url(#clip0_3900_23005)">
<path fill-rule="evenodd" clip-rule="evenodd" d="M18.2678 22.1457C18.0956 23.5667 17.2345 24.7049 15.9007 25.2748C15.1579 25.5922 14.1606 25.7636 13.3712 25.7098C12.1397 25.6627 10.9828 25.3632 9.9163 24.8158C9.53531 24.6201 8.96736 24.2293 8.53126 23.8633C8.4208 23.7709 8.40768 23.7116 8.48077 23.6079C8.52023 23.5484 8.59299 23.4411 8.75383 23.2054C8.9871 22.8636 9.0162 22.8208 9.04244 22.7807C9.11707 22.6662 9.23833 22.6562 9.35794 22.7503C9.37051 22.7601 9.37051 22.7601 9.37999 22.7675C9.39961 22.7827 9.39961 22.7827 9.44591 22.8187C9.49276 22.8552 9.52054 22.8768 9.53179 22.8852C10.6819 23.786 12.0214 24.3055 13.3737 24.3574C15.2552 24.3318 16.6081 23.4858 16.8506 22.1869C17.1171 20.7572 15.9949 19.5223 13.7993 18.834C13.1126 18.6188 11.3769 17.924 11.0568 17.7363C9.55394 16.8545 8.85128 15.6995 8.95116 14.2729C9.10417 12.2953 10.94 10.8204 13.2596 10.8105C14.297 10.8084 15.3321 11.024 16.3266 11.443C16.6787 11.5915 17.3074 11.9336 17.5245 12.0956C17.6495 12.1874 17.6742 12.2944 17.6025 12.4099C17.5625 12.4768 17.4963 12.5829 17.3569 12.8042L17.3553 12.8066C17.1718 13.098 17.1661 13.1071 17.1239 13.1752C17.0512 13.286 16.9656 13.2963 16.8345 13.2131C15.7703 12.4982 14.5907 12.1386 13.2932 12.1126C11.678 12.1446 10.4674 13.1059 10.3878 14.4154C10.3666 15.5981 11.2537 16.4616 13.1699 17.12C17.0595 18.3699 18.5479 19.8352 18.2678 22.1457ZM13.4642 1.72777C15.9965 1.72777 18.0607 4.13089 18.1572 7.13909H8.77136C8.86793 4.13089 10.932 1.72777 13.4642 1.72777ZM26.5697 7.70465C26.5697 7.39229 26.3181 7.13909 26.0079 7.13909H19.9242C19.775 3.16716 16.9399 0 13.4642 0C9.98873 0 7.1536 3.16716 7.00433 7.13909L0.911972 7.1392C0.6065 7.14475 0.360556 7.39584 0.360556 7.70465C0.360556 7.71942 0.361109 7.73407 0.362209 7.7485H0.35791L1.22637 26.8927C1.22648 26.946 1.22847 26.9998 1.23244 27.0538C1.23332 27.066 1.23431 27.0781 1.2353 27.0902L1.23718 27.1306L1.23927 27.1327C1.37123 28.4649 2.33802 29.5379 3.65263 29.5874L3.6556 29.5903H22.9811C22.9902 29.5904 22.9994 29.5905 23.0085 29.5905C23.0177 29.5905 23.0268 29.5904 23.036 29.5903H23.0771L23.078 29.5895C24.4155 29.553 25.4989 28.465 25.6133 27.1164L25.614 27.1158L25.6149 27.0977C25.616 27.0835 25.617 27.0694 25.6179 27.0552C25.62 27.0212 25.6214 26.9873 25.622 26.9537L26.5696 7.73386H26.5689C26.5695 7.7242 26.5697 7.71442 26.5697 7.70465ZM90.9955 20.1818C91.3679 18.9673 92.4937 18.1576 93.8075 18.1576C95.0615 18.1576 96.2555 19.0092 96.668 20.1795L96.6963 20.2599H90.9715L90.9955 20.1818ZM97.9704 21.9414C97.9781 21.9417 97.9781 21.9417 97.9894 21.9418C98.0008 21.9417 98.0008 21.9417 98.0124 21.9414C98.2864 21.9288 98.5034 21.6951 98.5034 21.4108C98.5034 21.397 98.503 21.3851 98.5019 21.3661C98.5021 21.3626 98.5021 21.3556 98.5021 21.3332C98.5021 18.651 96.3993 16.4772 93.8058 16.4772C91.2125 16.4772 89.1097 18.651 89.1097 21.3332C89.1097 21.5332 89.1213 21.7326 89.1447 21.9308L89.1463 21.9414L89.1536 21.9937C89.2827 22.9588 89.6945 23.8446 90.3449 24.5614C90.3446 24.5611 90.3452 24.5618 90.3485 24.5655C91.0696 25.3591 92.0487 25.8999 93.1346 26.1022L93.1488 26.1049V26.1035L93.2194 26.1153C93.2556 26.1214 93.2938 26.1275 93.3451 26.1354C94.7743 26.3073 96.0421 26.1013 97.1157 25.5607C97.38 25.4275 97.6177 25.2805 97.8237 25.1253C97.8899 25.0752 97.9495 25.0269 98.0011 24.9816C98.0276 24.9582 98.0488 24.9386 98.06 24.9273C98.3023 24.6777 98.3174 24.5893 98.1712 24.3614C98.0103 24.1054 97.8684 23.8872 97.7468 23.7067C97.7042 23.6434 97.6672 23.5896 97.636 23.5448C97.6188 23.5203 97.6188 23.5203 97.6079 23.5047C97.6038 23.4987 97.6038 23.4987 97.6007 23.4948L97.5992 23.4928C97.4668 23.3281 97.3763 23.313 97.2294 23.4427C97.2137 23.4566 97.1614 23.497 97.1519 23.507C96.1191 24.4241 94.7088 24.7192 93.3005 24.4245C93.0383 24.3541 92.793 24.2646 92.5671 24.1566C91.6847 23.7142 91.0596 22.9259 90.8792 22.0134L90.865 21.9414L97.9704 21.9414ZM79.8206 20.1818C80.193 18.9673 81.3188 18.1576 82.6326 18.1576C83.8866 18.1576 85.0806 19.0092 85.4931 20.1795L85.5213 20.2599H79.7966L79.8206 20.1818ZM86.7954 21.9414C86.8032 21.9417 86.8032 21.9417 86.8146 21.9418C86.8258 21.9417 86.8258 21.9417 86.8374 21.9414C87.1115 21.9288 87.3284 21.6951 87.3284 21.4108C87.3284 21.397 87.328 21.3851 87.3269 21.3661C87.3271 21.3626 87.3271 21.3556 87.3271 21.3332C87.3271 18.651 85.2244 16.4772 82.6309 16.4772C80.0377 16.4772 77.9347 18.651 77.9347 21.3332C77.9347 21.5332 77.9465 21.7326 77.9699 21.9308L77.9714 21.9414L77.9787 21.9937C78.1078 22.9588 78.5197 23.8446 79.17 24.5614C79.1697 24.5611 79.1703 24.5618 79.1736 24.5655C79.8948 25.3591 80.8738 25.8999 81.9597 26.1022L81.9739 26.1049V26.1035L82.0444 26.1153C82.0807 26.1214 82.1189 26.1275 82.1703 26.1354C83.5995 26.3073 84.8673 26.1013 85.9407 25.5607C86.2051 25.4275 86.4427 25.2805 86.6487 25.1253C86.7149 25.0752 86.7745 25.0269 86.8261 24.9816C86.8527 24.9582 86.8738 24.9386 86.8851 24.9273C87.1273 24.6777 87.1424 24.5893 86.9962 24.3614C86.8354 24.1054 86.6934 23.8872 86.5718 23.7067C86.5293 23.6434 86.4922 23.5896 86.4612 23.5448C86.4438 23.5203 86.4438 23.5203 86.4329 23.5047C86.4288 23.4987 86.4288 23.4987 86.4258 23.4948L86.4247 23.4928C86.2923 23.3281 86.2017 23.313 86.0548 23.4427C86.0392 23.4566 85.9868 23.497 85.9773 23.507C84.9447 24.4241 83.5343 24.7192 82.126 24.4245C81.8638 24.3541 81.6185 24.2646 81.3926 24.1566C80.5102 23.7142 79.8852 22.9259 79.7048 22.0134L79.6905 21.9414L86.7954 21.9414ZM71.292 24.6159C69.5454 24.6159 68.1169 23.2311 68.073 21.4957V21.3323C68.1164 19.5997 69.5454 18.2147 71.292 18.2147C73.0702 18.2147 74.5118 19.6476 74.5118 21.4153C74.5118 23.1829 73.0702 24.6159 71.292 24.6159ZM71.2931 16.5167C70.1475 16.5167 69.0528 16.9069 68.1731 17.6226L68.0732 17.7038V16.8082C68.0732 16.5693 68.0218 16.5167 67.7801 16.5167H66.6558C66.4109 16.5167 66.3626 16.5654 66.3626 16.8082V31.0858C66.3626 31.3203 66.4172 31.3772 66.6558 31.3772H67.7801C68.0195 31.3772 68.0732 31.3215 68.0732 31.0858V25.1316L68.1731 25.2129C69.053 25.9286 70.1476 26.3188 71.2931 26.3188C74.016 26.3188 76.2234 24.1245 76.2234 21.4177C76.2234 18.711 74.016 16.5167 71.2931 16.5167ZM59.7142 24.5065C57.9324 24.5065 56.4879 23.0861 56.4879 21.3335C56.4879 19.5809 57.9325 18.1604 59.7142 18.1604C61.4957 18.1604 62.9403 19.5809 62.9403 21.3335C62.9403 23.086 61.4958 24.5065 59.7142 24.5065ZM59.7152 16.4772C56.9869 16.4772 54.7754 18.6526 54.7754 21.3359C54.7754 24.0191 56.9869 26.1946 59.7152 26.1946C62.4435 26.1946 64.6547 24.0191 64.6547 21.3359C64.6547 18.6526 62.4436 16.4772 59.7152 16.4772ZM48.7035 16.5851C47.7075 16.5851 46.7437 16.9054 45.9442 17.4972L45.847 17.5691V10.9383C45.847 10.7185 45.7749 10.6468 45.5551 10.6468H44.3783C44.1406 10.6468 44.0863 10.7036 44.0863 10.9383V26.0648C44.0863 26.2938 44.145 26.3566 44.3783 26.3566H45.5551C45.7734 26.3566 45.847 26.2813 45.847 26.0648V21.124C45.8592 19.5687 47.1348 18.3133 48.7035 18.3133C50.2762 18.3133 51.5532 19.5748 51.5599 21.1353V26.0648C51.5599 26.3151 51.6015 26.3564 51.8519 26.3564H53.0258C53.2747 26.3564 53.3178 26.3138 53.3178 26.0648V21.1208C53.3085 18.6269 51.2288 16.5851 48.7035 16.5851ZM32.305 23.6127L32.3022 23.617C32.1344 23.8712 32.0641 23.9781 32.0249 24.0395C31.8926 24.2364 31.909 24.3242 32.111 24.4949C32.5825 24.875 33.1885 25.2742 33.5974 25.4741C34.735 26.0304 35.9637 26.3243 37.2659 26.3509C38.107 26.3934 39.1634 26.1934 39.9501 25.8425C41.3742 25.2072 42.2813 23.969 42.4403 22.4439C42.6978 19.9726 41.0899 18.4278 36.9482 17.1828L36.9471 17.1824C35.0175 16.5601 34.111 15.7328 34.1107 14.5777C34.1675 13.301 35.3512 12.3472 36.9482 12.2877C38.2347 12.2909 39.3721 12.6326 40.4896 13.3517C40.7253 13.4947 40.8339 13.4683 40.9924 13.2627C41.0106 13.2324 41.0612 13.1588 41.273 12.8546L41.2737 12.8536C41.4715 12.5695 41.5366 12.4747 41.5529 12.4466C41.6864 12.1954 41.6673 12.0986 41.4263 11.9277C41.189 11.7577 40.5205 11.4099 40.1382 11.2573C39.075 10.8331 37.9757 10.6271 36.8817 10.6483C34.392 10.7024 32.4503 12.3216 32.3223 14.4458C32.2411 15.9801 33.0198 17.2139 34.6469 18.126C35.103 18.3668 36.7707 18.9973 37.5491 19.2252C39.7624 19.8734 40.9164 21.0657 40.6779 22.4725C40.4614 23.7506 39.1222 24.6007 37.2429 24.6588C35.8801 24.6305 34.5071 24.131 33.3149 23.2351C33.3089 23.2308 33.2787 23.2083 33.223 23.1667C33.1446 23.1083 33.1446 23.1083 33.1329 23.0996C32.8899 22.9318 32.7469 22.9458 32.5985 23.1668C32.5806 23.1942 32.396 23.4749 32.305 23.6127Z" fill="#70879C"/>
</g>
<defs>
<clipPath id="clip0_3900_23005">
<rect width="98.1454" height="31.3772" fill="white" transform="translate(0.35791)"/>
</clipPath>
</defs>
</svg>
