<svg width="114" height="32" viewBox="0 0 114 32" fill="none" xmlns="http://www.w3.org/2000/svg">
<path d="M45.7252 5.46094V8.67533H49.2572V5.46094H45.7252ZM14.7523 5.50248V10.0717H12.7986V12.974H14.7523V23.5288C14.7523 26.1339 16.2315 27.3428 18.8783 27.3428C19.4729 27.3668 20.068 27.3034 20.6448 27.1553V24.1281H19.4779C18.6594 24.1281 18.279 23.6072 18.279 22.7423V12.974H20.6448V10.0717H18.2689V5.50248H14.7523ZM37.5042 5.50248V10.0717H35.5503V12.974H37.5042V23.5288C37.5042 26.1339 38.9839 27.3428 41.6302 27.3428C42.2253 27.3662 42.8197 27.3028 43.3965 27.1553V24.1281H42.2348C41.4163 24.1281 41.0362 23.6072 41.0362 22.7423V12.974H43.3965V10.0717H41.0314V5.50248H37.5042ZM65.5178 5.50248V10.0717H63.5639V12.974H65.5178V23.5288C65.5178 26.1339 66.9975 27.3428 69.6443 27.3428C70.2389 27.3662 70.834 27.3028 71.4108 27.1553V24.1281H70.2432C69.4254 24.1281 69.045 23.6072 69.045 22.7423V12.974H71.4103V10.0717H69.045V5.50248H65.5178ZM6.20243 9.74313C3.53533 9.75933 1.4508 11.6189 1.4508 14.3176C1.4508 18.9493 8.07252 20.0487 8.07252 22.982C8.08979 23.3945 7.92759 23.7946 7.62792 24.0787C7.32886 24.3634 6.9212 24.5049 6.50998 24.4667C4.90541 24.4667 4.39973 23.2006 4.1812 21.7834L1.07593 22.6174C1.59703 25.5766 3.37897 27.3428 6.46342 27.3428C9.33407 27.3428 11.4125 25.78 11.4125 22.7738C11.4125 17.7303 4.79605 16.6624 4.79605 14.0108C4.79605 13.1302 5.4265 12.6557 6.35883 12.6557C7.49487 12.6557 8.12513 13.4167 8.37529 14.7713L11.3707 14.2503C10.8496 11.6033 8.97406 9.74313 6.20243 9.74313ZM56.9685 9.74313C54.3168 9.74313 52.2378 11.6033 52.2378 14.2813C52.2378 18.9128 58.8543 20.0124 58.8543 22.9457C58.8716 23.3582 58.7091 23.7582 58.4095 24.0424C58.1104 24.3271 57.7027 24.4686 57.2913 24.4304C55.6867 24.4304 55.2076 23.1643 54.9575 21.7471L51.873 22.6019C52.3941 25.5609 54.1704 27.3273 57.2602 27.3273C60.1255 27.3273 62.2096 25.7639 62.2096 22.7583C62.1785 17.7303 55.5616 16.6624 55.5616 14.0108C55.5616 13.1302 56.1872 12.6557 57.1248 12.6557C58.2603 12.6557 58.8913 13.4167 59.1408 14.7713L62.1367 14.2503C61.6156 11.6033 59.7401 9.74313 56.9685 9.74313ZM28.2409 9.75937C24.9636 9.75937 22.7543 11.6189 22.5669 15.0525H26.0841C26.1516 13.6043 26.4955 12.6557 28.1 12.6557C29.2671 12.6557 29.8352 13.4168 29.8352 14.8341V15.8393C24.7607 17.762 22.3066 19.8093 22.3066 23.5288C22.3066 25.7017 23.5 27.3428 25.8961 27.3428C27.5997 27.3428 28.6993 26.7749 30.0227 25.7017C30.0537 26.1129 30.184 26.5561 30.2156 27.0252H33.5864C33.4736 26.4421 33.4037 25.8518 33.3775 25.259V14.3594C33.3775 11.2703 31.5181 9.75937 28.2409 9.75937ZM79.0014 9.75937C75.7241 9.75937 73.5203 11.6189 73.3329 15.0525H76.8603C76.923 13.6043 77.2715 12.6557 78.8761 12.6557C80.0431 12.6557 80.6115 13.4168 80.6115 14.8341V15.8393C75.5369 17.762 73.0774 19.8093 73.0774 23.5288C73.0774 25.7017 74.276 27.3428 76.6727 27.3428C78.3711 27.3428 79.4753 26.7749 80.7987 25.7017C80.8299 26.1129 80.9554 26.5561 80.9864 27.0252H84.3627C84.2438 26.4337 84.1685 25.835 84.1387 25.2327V14.3594C84.1387 11.2703 82.2786 9.75937 79.0014 9.75937ZM45.7252 10.0717V27.0247H49.2572V10.0717H45.7252ZM29.8455 18.3923V22.8674C29.2461 23.7163 28.4591 24.4304 27.4802 24.4304C26.438 24.4304 25.8441 23.9873 25.8441 22.8674C25.8441 21.3877 26.631 20.2207 29.8455 18.3923ZM80.6115 18.3923V22.8674C80.0122 23.7163 79.2254 24.4304 78.2457 24.4304C77.1778 24.4304 76.6101 23.9873 76.6101 22.8674C76.6101 21.3877 77.397 20.2207 80.6115 18.3923Z" fill="#70879C"/>
<path d="M91.7654 5.46094C91.5625 5.46094 91.3675 5.54143 91.2241 5.68539C91.0803 5.82919 90.9997 6.02375 90.9997 6.22669V20.1007H91.1088C91.1088 20.1007 94.4016 20.0387 95.7979 19.3039C96.9959 18.5995 98.0323 17.6514 98.8406 16.5215L99.6636 15.3598L99.9246 14.9897C99.9556 14.9534 100.091 14.7557 100.169 14.6411C100.247 14.5265 100.586 14.0471 100.914 13.5678C102.191 11.8039 103.826 10.3306 105.713 9.24362C108.755 7.68015 112.788 7.83675 112.788 7.83675H112.85V6.27373C112.863 6.06238 112.788 5.85542 112.643 5.70138C112.498 5.54735 112.296 5.46094 112.085 5.46094H91.7654ZM112.845 12.7082C112.78 12.7249 112.714 12.7334 112.647 12.734C112.647 12.734 109.36 12.7967 107.948 13.5363C106.75 14.2382 105.713 15.1844 104.905 16.3133L104.098 17.4802C103.978 17.6474 103.863 17.8139 103.832 17.8503L103.587 18.1994L102.842 19.2729C102.842 19.2729 100.857 22.1382 98.0436 23.5971C95.1257 25.1132 91.307 25.0142 90.9942 25.0035V26.5668C90.9919 26.7715 91.0713 26.9691 91.2151 27.1148C91.359 27.2604 91.5554 27.3428 91.7602 27.3428H112.079C112.282 27.3428 112.477 27.2621 112.621 27.1183C112.765 26.975 112.845 26.78 112.845 26.577V12.7082Z" fill="#70879C"/>
</svg>
