<svg width="588" height="447" viewBox="0 0 588 447" fill="none" xmlns="http://www.w3.org/2000/svg">
<path d="M260.541 262.516L260.541 339.892C260.541 341.395 259.323 342.613 257.82 342.613L193.397 342.613" stroke="#81D3E5" stroke-width="2.26786" stroke-dasharray="6.35 6.35"/>
<path d="M325.034 262.727L325.034 341.34C325.034 342.843 326.253 344.061 327.756 344.061L392.179 344.061" stroke="#81D3E5" stroke-width="2.26786" stroke-dasharray="6.35 6.35"/>
<g filter="url(#filter0_dd_52637_10844)">
<rect x="55.3442" y="306.17" width="143.82" height="85.6723" rx="3.00486" fill="#2D3948"/>
</g>
<g filter="url(#filter1_dd_52637_10844)">
<rect x="55.3442" y="299.244" width="143.82" height="92.599" rx="3.00486" fill="#2D3948"/>
</g>
<line x1="55.3442" y1="311.096" x2="199.164" y2="311.096" stroke="#495463" stroke-opacity="0.7" stroke-width="0.356847"/>
<path fill-rule="evenodd" clip-rule="evenodd" d="M65.1519 304.909H65.5552C65.639 304.909 65.7069 304.972 65.7069 305.049V305.749C65.7069 305.826 65.639 305.889 65.5552 305.889H65.1519C65.1052 306.049 65.0362 306.202 64.9479 306.343L65.2331 306.606C65.2924 306.66 65.2924 306.749 65.2331 306.804L64.6969 307.298C64.6376 307.353 64.5416 307.353 64.4824 307.298L64.1971 307.035C64.0443 307.117 63.8791 307.18 63.7047 307.223V307.595C63.7047 307.673 63.6368 307.735 63.553 307.735H62.7946C62.7108 307.735 62.6429 307.673 62.6429 307.595V307.223C62.4685 307.18 62.3033 307.117 62.1505 307.035L61.8653 307.298C61.806 307.353 61.71 307.353 61.6507 307.298L61.1145 306.804C61.0552 306.749 61.0552 306.66 61.1145 306.606L61.3998 306.343C61.3115 306.202 61.2424 306.049 61.1957 305.889H60.7924C60.7086 305.889 60.6407 305.826 60.6407 305.749V305.049C60.6407 304.972 60.7086 304.909 60.7924 304.909H61.1957C61.2424 304.749 61.3115 304.596 61.3997 304.455L61.1145 304.192C61.0552 304.138 61.0552 304.049 61.1145 303.994L61.6508 303.5C61.71 303.445 61.806 303.445 61.8653 303.5L62.1505 303.763C62.3033 303.681 62.4685 303.618 62.6429 303.575V303.203C62.6429 303.125 62.7108 303.063 62.7946 303.063H63.553C63.6368 303.063 63.7047 303.125 63.7047 303.203V303.575C63.8791 303.618 64.0443 303.681 64.1971 303.763L64.4823 303.5C64.5415 303.445 64.6376 303.445 64.6968 303.5L65.2331 303.994C65.2923 304.049 65.2923 304.138 65.2331 304.192L64.9478 304.455C65.0361 304.596 65.1052 304.749 65.1519 304.909ZM63.1731 306.333C63.7327 306.333 64.1863 305.915 64.1863 305.399C64.1863 304.883 63.7327 304.464 63.1731 304.464C62.6136 304.464 62.16 304.883 62.16 305.399C62.16 305.915 62.6136 306.333 63.1731 306.333Z" fill="white" fill-opacity="0.5"/>
<rect x="65.904" y="319.55" width="4.32614" height="2.16307" rx="1.08153" fill="#697583"/>
<rect x="81.7709" y="319.644" width="14.9186" height="2.35413" rx="1.17707" fill="#9D97F4"/>
<rect x="98.2212" y="319.644" width="19.1264" height="2.35413" rx="1.17707" fill="#15C1E6"/>
<rect x="118.879" y="319.644" width="4.59033" height="2.35413" rx="1.17707" fill="#D2DCE4"/>
<rect x="125.939" y="319.551" width="23.3228" height="2.35413" rx="1.17707" fill="#9D97F4"/>
<rect x="151.854" y="319.551" width="29.8014" height="2.35413" rx="1.17707" fill="#15C1E6"/>
<rect x="65.9039" y="369.586" width="3.88714" height="2.34236" rx="1.17118" fill="#697583"/>
<rect x="81.7708" y="369.481" width="14.9186" height="2.34236" rx="1.17118" fill="#9D97F4"/>
<rect x="99.282" y="369.481" width="19.1264" height="2.34236" rx="1.17118" fill="#D2DCE4"/>
<rect x="121.001" y="369.481" width="7.77428" height="2.34236" rx="1.17118" fill="#15C1E6"/>
<rect x="131.364" y="369.481" width="24.6185" height="2.34236" rx="1.17118" fill="#9D97F4"/>
<rect x="158.575" y="369.481" width="31.529" height="2.34236" rx="1.17118" fill="#D2DCE4"/>
<rect x="118.703" y="329.341" width="4.59033" height="2.23062" rx="1.11531" fill="#15C1E6"/>
<rect x="125.887" y="329.341" width="14.9186" height="2.23062" rx="1.11531" fill="#9D97F4"/>
<rect x="143.398" y="329.341" width="19.1264" height="2.23062" rx="1.11531" fill="#D2DCE4"/>
<rect x="65.9039" y="329.5" width="4.32614" height="2.16307" rx="1.08153" fill="#697583"/>
<rect x="81.7708" y="329.341" width="10.7108" height="2.23062" rx="1.11531" fill="#9D97F4"/>
<rect x="95.0733" y="329.341" width="21.039" height="2.23062" rx="1.11531" fill="#D2DCE4"/>
<rect x="117.767" y="379.754" width="18.6723" height="2.31382" rx="1.15691" fill="#D2DCE4"/>
<rect x="138.851" y="379.754" width="4.48136" height="2.31382" rx="1.15691" fill="#15C1E6"/>
<rect x="146.016" y="379.754" width="14.5644" height="2.31382" rx="1.15691" fill="#9D97F4"/>
<rect x="65.9038" y="379.683" width="4.32614" height="2.16307" rx="1.08153" fill="#697583"/>
<rect x="81.3943" y="379.754" width="10.4565" height="2.31382" rx="1.15691" fill="#9D97F4"/>
<rect x="94.575" y="379.754" width="20.5396" height="2.31382" rx="1.15691" fill="#15C1E6"/>
<rect x="163.306" y="379.754" width="20.5396" height="2.31382" rx="1.15691" fill="#15C1E6"/>
<rect x="164.811" y="339.621" width="4.59033" height="2.43416" rx="1.21708" fill="#15C1E6"/>
<rect x="172.154" y="339.621" width="14.9186" height="2.43416" rx="1.21708" fill="#9D97F4"/>
<rect x="141.054" y="339.621" width="21.039" height="2.43416" rx="1.21708" fill="#D2DCE4"/>
<rect x="65.9038" y="339.607" width="3.88714" height="2.43416" rx="1.21708" fill="#697583"/>
<rect x="98.2956" y="339.621" width="17.2138" height="2.43416" rx="1.21708" fill="#15C1E6"/>
<path d="M118.163 340.838C118.163 340.166 118.708 339.621 119.38 339.621H137.22C137.892 339.621 138.437 340.166 138.437 340.838C138.437 341.51 137.892 342.055 137.22 342.055H119.38C118.708 342.055 118.163 341.51 118.163 340.838Z" fill="#9D97F4"/>
<rect x="65.9038" y="349.398" width="3.88714" height="2.43416" rx="1.21708" fill="#697583"/>
<rect x="91.8551" y="349.593" width="27.5507" height="2.08717" rx="1.04359" fill="#9D97F4"/>
<rect x="121.91" y="349.593" width="10.4359" height="2.08717" rx="1.04359" fill="#15C1E6"/>
<rect x="134.851" y="349.593" width="27.5507" height="2.08717" rx="1.04359" fill="#9D97F4"/>
<rect x="164.906" y="349.593" width="10.4359" height="2.08717" rx="1.04359" fill="#15C1E6"/>
<rect x="149.263" y="359.691" width="10.7108" height="2.43416" rx="1.21708" fill="#9D97F4"/>
<rect x="162.649" y="359.691" width="21.039" height="2.43416" rx="1.21708" fill="#15C1E6"/>
<rect x="65.9038" y="359.677" width="3.88714" height="2.43416" rx="1.21708" fill="#697583"/>
<rect x="106.934" y="359.691" width="22.1866" height="2.43416" rx="1.21708" fill="#15C1E6"/>
<path d="M131.554 360.908C131.554 360.236 132.098 359.691 132.771 359.691H145.638C146.31 359.691 146.855 360.236 146.855 360.908C146.855 361.58 146.31 362.125 145.638 362.125H132.771C132.098 362.125 131.554 361.58 131.554 360.908Z" fill="#D2DCE4"/>
<g filter="url(#filter2_dd_52637_10844)">
<path d="M188.449 339.626H153.304C152.185 339.626 151.278 340.331 151.278 341.2V402.322C151.278 403.191 152.185 403.895 153.304 403.895H188.449C189.568 403.895 190.475 403.191 190.475 402.322V341.2C190.475 340.331 189.568 339.626 188.449 339.626Z" fill="#4D5B6C"/>
<path d="M153.304 339.877H188.449C189.492 339.877 190.224 340.525 190.224 341.2V402.322C190.224 402.997 189.492 403.645 188.449 403.645H153.304C152.26 403.645 151.528 402.997 151.528 402.322V341.2C151.528 340.525 152.26 339.877 153.304 339.877Z" stroke="white" stroke-opacity="0.3" stroke-width="0.501315"/>
</g>
<g filter="url(#filter3_d_52637_10844)">
<path d="M184.253 350.327H157.36C155.774 350.327 154.487 351.613 154.487 353.2V391.329C154.487 392.916 155.774 394.202 157.36 394.202H184.253C185.84 394.202 187.126 392.916 187.126 391.329V353.2C187.126 351.613 185.84 350.327 184.253 350.327Z" fill="#24303E"/>
<path d="M157.36 350.578H184.253C185.701 350.578 186.875 351.752 186.875 353.2V391.329C186.875 392.777 185.701 393.951 184.253 393.951H157.36C155.912 393.951 154.738 392.777 154.738 391.329V353.2C154.738 351.752 155.912 350.578 157.36 350.578Z" stroke="white" stroke-opacity="0.3" stroke-width="0.501315"/>
</g>
<path d="M183.647 355.678H170.582C169.802 355.678 169.169 356.31 169.169 357.09C169.169 357.87 169.802 358.503 170.582 358.503H183.647C184.428 358.503 185.06 357.87 185.06 357.09C185.06 356.31 184.428 355.678 183.647 355.678Z" fill="white" fill-opacity="0.2"/>
<path d="M158.78 355.678H158.372C157.704 355.678 157.163 356.219 157.163 356.886V357.294C157.163 357.962 157.704 358.503 158.372 358.503H158.78C159.447 358.503 159.988 357.962 159.988 357.294V356.886C159.988 356.219 159.447 355.678 158.78 355.678Z" fill="#3D7FFC"/>
<path d="M162.664 355.678H162.256C161.589 355.678 161.048 356.219 161.048 356.886V357.294C161.048 357.962 161.589 358.503 162.256 358.503H162.664C163.332 358.503 163.873 357.962 163.873 357.294V356.886C163.873 356.219 163.332 355.678 162.664 355.678Z" fill="#15C1E6"/>
<path d="M166.548 355.678H166.14C165.473 355.678 164.932 356.219 164.932 356.886V357.294C164.932 357.962 165.473 358.503 166.14 358.503H166.548C167.216 358.503 167.757 357.962 167.757 357.294V356.886C167.757 356.219 167.216 355.678 166.548 355.678Z" fill="#9D97F4"/>
<path d="M183.647 363.168H170.582C169.802 363.168 169.169 363.801 169.169 364.581C169.169 365.361 169.802 365.993 170.582 365.993H183.647C184.428 365.993 185.06 365.361 185.06 364.581C185.06 363.801 184.428 363.168 183.647 363.168Z" fill="white" fill-opacity="0.2"/>
<path d="M158.78 363.168H158.372C157.704 363.168 157.163 363.71 157.163 364.377V364.785C157.163 365.452 157.704 365.993 158.372 365.993H158.78C159.447 365.993 159.988 365.452 159.988 364.785V364.377C159.988 363.71 159.447 363.168 158.78 363.168Z" fill="#3D7FFC"/>
<path d="M162.664 363.168H162.256C161.589 363.168 161.048 363.71 161.048 364.377V364.785C161.048 365.452 161.589 365.993 162.256 365.993H162.664C163.332 365.993 163.873 365.452 163.873 364.785V364.377C163.873 363.71 163.332 363.168 162.664 363.168Z" fill="#3D7FFC"/>
<path d="M166.548 363.168H166.14C165.473 363.168 164.932 363.71 164.932 364.377V364.785C164.932 365.452 165.473 365.993 166.14 365.993H166.548C167.216 365.993 167.757 365.452 167.757 364.785V364.377C167.757 363.71 167.216 363.168 166.548 363.168Z" fill="#15C1E6"/>
<path d="M183.647 370.659H170.582C169.802 370.659 169.169 371.292 169.169 372.072C169.169 372.852 169.802 373.484 170.582 373.484H183.647C184.428 373.484 185.06 372.852 185.06 372.072C185.06 371.292 184.428 370.659 183.647 370.659Z" fill="white" fill-opacity="0.2"/>
<path d="M158.78 370.659H158.372C157.704 370.659 157.163 371.2 157.163 371.868V372.276C157.163 372.943 157.704 373.484 158.372 373.484H158.78C159.447 373.484 159.988 372.943 159.988 372.276V371.868C159.988 371.2 159.447 370.659 158.78 370.659Z" fill="#15C1E6"/>
<path d="M162.664 370.659H162.256C161.589 370.659 161.048 371.2 161.048 371.868V372.276C161.048 372.943 161.589 373.484 162.256 373.484H162.664C163.332 373.484 163.873 372.943 163.873 372.276V371.868C163.873 371.2 163.332 370.659 162.664 370.659Z" fill="#9D97F4"/>
<path d="M166.548 370.659H166.14C165.473 370.659 164.932 371.2 164.932 371.868V372.276C164.932 372.943 165.473 373.484 166.14 373.484H166.548C167.216 373.484 167.757 372.943 167.757 372.276V371.868C167.757 371.2 167.216 370.659 166.548 370.659Z" fill="#3D7FFC"/>
<path d="M183.647 378.15H170.582C169.802 378.15 169.169 378.782 169.169 379.563C169.169 380.343 169.802 380.975 170.582 380.975H183.647C184.428 380.975 185.06 380.343 185.06 379.563C185.06 378.782 184.428 378.15 183.647 378.15Z" fill="white" fill-opacity="0.2"/>
<path d="M158.78 378.15H158.372C157.704 378.15 157.163 378.691 157.163 379.359V379.767C157.163 380.434 157.704 380.975 158.372 380.975H158.78C159.447 380.975 159.988 380.434 159.988 379.767V379.359C159.988 378.691 159.447 378.15 158.78 378.15Z" fill="#3D7FFC"/>
<path d="M162.664 378.15H162.256C161.589 378.15 161.048 378.691 161.048 379.359V379.767C161.048 380.434 161.589 380.975 162.256 380.975H162.664C163.332 380.975 163.873 380.434 163.873 379.767V379.359C163.873 378.691 163.332 378.15 162.664 378.15Z" fill="#15C1E6"/>
<path d="M166.548 378.15H166.14C165.473 378.15 164.932 378.691 164.932 379.359V379.767C164.932 380.434 165.473 380.975 166.14 380.975H166.548C167.216 380.975 167.757 380.434 167.757 379.767V379.359C167.757 378.691 167.216 378.15 166.548 378.15Z" fill="#3D7FFC"/>
<path d="M183.647 385.64H170.582C169.802 385.64 169.169 386.273 169.169 387.053C169.169 387.833 169.802 388.465 170.582 388.465H183.647C184.428 388.465 185.06 387.833 185.06 387.053C185.06 386.273 184.428 385.64 183.647 385.64Z" fill="white" fill-opacity="0.2"/>
<path d="M158.78 385.64H158.372C157.704 385.64 157.163 386.181 157.163 386.849V387.257C157.163 387.924 157.704 388.465 158.372 388.465H158.78C159.447 388.465 159.988 387.924 159.988 387.257V386.849C159.988 386.181 159.447 385.64 158.78 385.64Z" fill="#3D7FFC"/>
<path d="M162.664 385.64H162.256C161.589 385.64 161.048 386.181 161.048 386.849V387.257C161.048 387.924 161.589 388.465 162.256 388.465H162.664C163.332 388.465 163.873 387.924 163.873 387.257V386.849C163.873 386.181 163.332 385.64 162.664 385.64Z" fill="#15C1E6"/>
<path d="M166.548 385.64H166.14C165.473 385.64 164.932 386.181 164.932 386.849V387.257C164.932 387.924 165.473 388.465 166.14 388.465H166.548C167.216 388.465 167.757 387.924 167.757 387.257V386.849C167.757 386.181 167.216 385.64 166.548 385.64Z" fill="#3D7FFC"/>
<path d="M163.54 344.097C163.69 343.465 163.297 342.832 162.664 342.683C162.031 342.533 161.397 342.925 161.247 343.557C161.098 344.189 161.49 344.823 162.123 344.972C162.756 345.121 163.391 344.73 163.54 344.097Z" fill="#0BE597"/>
<path d="M160.008 344.017C160.112 343.376 159.676 342.772 159.034 342.668C158.392 342.564 157.786 342.999 157.682 343.64C157.578 344.281 158.014 344.885 158.656 344.989C159.298 345.094 159.903 344.658 160.008 344.017Z" fill="#0BE597"/>
<path d="M156.125 344.66C156.585 344.2 156.585 343.456 156.125 342.996C155.665 342.537 154.919 342.537 154.459 342.996C153.999 343.456 153.999 344.2 154.459 344.66C154.919 345.119 155.665 345.119 156.125 344.66Z" fill="#0BE597"/>
<g filter="url(#filter4_dd_52637_10844)">
<path d="M214.13 347.652H178.985C177.866 347.652 176.959 348.357 176.959 349.226V410.348C176.959 411.217 177.866 411.921 178.985 411.921H214.13C215.249 411.921 216.156 411.217 216.156 410.348V349.226C216.156 348.357 215.249 347.652 214.13 347.652Z" fill="#4D5B6C"/>
<path d="M178.985 347.903H214.13C215.174 347.903 215.906 348.55 215.906 349.226V410.348C215.906 411.023 215.174 411.67 214.13 411.67H178.985C177.942 411.67 177.21 411.023 177.21 410.348V349.226C177.21 348.55 177.942 347.903 178.985 347.903Z" stroke="white" stroke-opacity="0.3" stroke-width="0.501315"/>
</g>
<g filter="url(#filter5_d_52637_10844)">
<path d="M209.936 358.353H183.042C181.456 358.353 180.17 359.639 180.17 361.225V399.355C180.17 400.941 181.456 402.227 183.042 402.227H209.936C211.522 402.227 212.808 400.941 212.808 399.355V361.225C212.808 359.639 211.522 358.353 209.936 358.353Z" fill="#24303E"/>
<path d="M183.042 358.604H209.936C211.384 358.604 212.557 359.778 212.557 361.225V399.355C212.557 400.803 211.384 401.977 209.936 401.977H183.042C181.594 401.977 180.421 400.803 180.421 399.355V361.225C180.421 359.778 181.594 358.604 183.042 358.604Z" stroke="white" stroke-opacity="0.3" stroke-width="0.501315"/>
</g>
<path d="M209.33 363.703H196.264C195.484 363.703 194.852 364.336 194.852 365.116C194.852 365.896 195.484 366.528 196.264 366.528H209.33C210.11 366.528 210.743 365.896 210.743 365.116C210.743 364.336 210.11 363.703 209.33 363.703Z" fill="white" fill-opacity="0.2"/>
<path d="M184.462 363.703H184.054C183.386 363.703 182.845 364.244 182.845 364.912V365.32C182.845 365.987 183.386 366.528 184.054 366.528H184.462C185.129 366.528 185.67 365.987 185.67 365.32V364.912C185.67 364.244 185.129 363.703 184.462 363.703Z" fill="#3D7FFC"/>
<path d="M188.346 363.703H187.938C187.271 363.703 186.73 364.244 186.73 364.912V365.32C186.73 365.987 187.271 366.528 187.938 366.528H188.346C189.014 366.528 189.555 365.987 189.555 365.32V364.912C189.555 364.244 189.014 363.703 188.346 363.703Z" fill="#15C1E6"/>
<path d="M192.231 363.703H191.823C191.155 363.703 190.614 364.244 190.614 364.912V365.32C190.614 365.987 191.155 366.528 191.823 366.528H192.231C192.898 366.528 193.439 365.987 193.439 365.32V364.912C193.439 364.244 192.898 363.703 192.231 363.703Z" fill="#3D7FFC"/>
<path d="M209.33 371.195H196.264C195.484 371.195 194.852 371.827 194.852 372.607C194.852 373.387 195.484 374.02 196.264 374.02H209.33C210.11 374.02 210.743 373.387 210.743 372.607C210.743 371.827 210.11 371.195 209.33 371.195Z" fill="white" fill-opacity="0.2"/>
<path d="M184.462 371.195H184.054C183.386 371.195 182.845 371.736 182.845 372.403V372.811C182.845 373.479 183.386 374.02 184.054 374.02H184.462C185.129 374.02 185.67 373.479 185.67 372.811V372.403C185.67 371.736 185.129 371.195 184.462 371.195Z" fill="#9D97F4"/>
<path d="M188.346 371.195H187.938C187.271 371.195 186.73 371.736 186.73 372.403V372.811C186.73 373.479 187.271 374.02 187.938 374.02H188.346C189.014 374.02 189.555 373.479 189.555 372.811V372.403C189.555 371.736 189.014 371.195 188.346 371.195Z" fill="#3D7FFC"/>
<path d="M192.231 371.195H191.823C191.155 371.195 190.614 371.736 190.614 372.403V372.811C190.614 373.479 191.155 374.02 191.823 374.02H192.231C192.898 374.02 193.439 373.479 193.439 372.811V372.403C193.439 371.736 192.898 371.195 192.231 371.195Z" fill="#15C1E6"/>
<path d="M209.33 378.685H196.264C195.484 378.685 194.852 379.317 194.852 380.098C194.852 380.878 195.484 381.51 196.264 381.51H209.33C210.11 381.51 210.743 380.878 210.743 380.098C210.743 379.317 210.11 378.685 209.33 378.685Z" fill="white" fill-opacity="0.2"/>
<path d="M184.462 378.685H184.054C183.386 378.685 182.845 379.226 182.845 379.894V380.302C182.845 380.969 183.386 381.51 184.054 381.51H184.462C185.129 381.51 185.67 380.969 185.67 380.302V379.894C185.67 379.226 185.129 378.685 184.462 378.685Z" fill="#15C1E6"/>
<path d="M188.346 378.685H187.938C187.271 378.685 186.73 379.226 186.73 379.894V380.302C186.73 380.969 187.271 381.51 187.938 381.51H188.346C189.014 381.51 189.555 380.969 189.555 380.302V379.894C189.555 379.226 189.014 378.685 188.346 378.685Z" fill="#3D7FFC"/>
<path d="M192.231 378.685H191.823C191.155 378.685 190.614 379.226 190.614 379.894V380.302C190.614 380.969 191.155 381.51 191.823 381.51H192.231C192.898 381.51 193.439 380.969 193.439 380.302V379.894C193.439 379.226 192.898 378.685 192.231 378.685Z" fill="#3D7FFC"/>
<path d="M209.33 386.176H196.264C195.484 386.176 194.852 386.808 194.852 387.588C194.852 388.368 195.484 389.001 196.264 389.001H209.33C210.11 389.001 210.743 388.368 210.743 387.588C210.743 386.808 210.11 386.176 209.33 386.176Z" fill="white" fill-opacity="0.2"/>
<path d="M184.462 386.176H184.054C183.386 386.176 182.845 386.717 182.845 387.384V387.792C182.845 388.46 183.386 389.001 184.054 389.001H184.462C185.129 389.001 185.67 388.46 185.67 387.792V387.384C185.67 386.717 185.129 386.176 184.462 386.176Z" fill="#3D7FFC"/>
<path d="M188.346 386.176H187.938C187.271 386.176 186.73 386.717 186.73 387.384V387.792C186.73 388.46 187.271 389.001 187.938 389.001H188.346C189.014 389.001 189.555 388.46 189.555 387.792V387.384C189.555 386.717 189.014 386.176 188.346 386.176Z" fill="#15C1E6"/>
<path d="M192.231 386.176H191.823C191.155 386.176 190.614 386.717 190.614 387.384V387.792C190.614 388.46 191.155 389.001 191.823 389.001H192.231C192.898 389.001 193.439 388.46 193.439 387.792V387.384C193.439 386.717 192.898 386.176 192.231 386.176Z" fill="#3D7FFC"/>
<path d="M209.33 393.667H196.264C195.484 393.667 194.852 394.299 194.852 395.079C194.852 395.859 195.484 396.492 196.264 396.492H209.33C210.11 396.492 210.743 395.859 210.743 395.079C210.743 394.299 210.11 393.667 209.33 393.667Z" fill="white" fill-opacity="0.2"/>
<path d="M184.462 393.667H184.054C183.386 393.667 182.845 394.208 182.845 394.875V395.283C182.845 395.95 183.386 396.492 184.054 396.492H184.462C185.129 396.492 185.67 395.95 185.67 395.283V394.875C185.67 394.208 185.129 393.667 184.462 393.667Z" fill="#3D7FFC"/>
<path d="M188.346 393.667H187.938C187.271 393.667 186.73 394.208 186.73 394.875V395.283C186.73 395.95 187.271 396.492 187.938 396.492H188.346C189.014 396.492 189.555 395.95 189.555 395.283V394.875C189.555 394.208 189.014 393.667 188.346 393.667Z" fill="#15C1E6"/>
<path d="M192.231 393.667H191.823C191.155 393.667 190.614 394.208 190.614 394.875V395.283C190.614 395.95 191.155 396.492 191.823 396.492H192.231C192.898 396.492 193.439 395.95 193.439 395.283V394.875C193.439 394.208 192.898 393.667 192.231 393.667Z" fill="#9D97F4"/>
<path d="M189.222 352.124C189.372 351.491 188.979 350.858 188.346 350.709C187.713 350.56 187.079 350.951 186.929 351.583C186.78 352.216 187.172 352.849 187.805 352.998C188.438 353.147 189.073 352.756 189.222 352.124Z" fill="#0BE597"/>
<path d="M185.69 352.043C185.794 351.402 185.358 350.797 184.716 350.693C184.074 350.589 183.469 351.025 183.364 351.666C183.26 352.307 183.696 352.911 184.338 353.015C184.98 353.119 185.585 352.684 185.69 352.043Z" fill="#0BE597"/>
<path d="M181.807 352.685C182.267 352.226 182.267 351.481 181.807 351.022C181.347 350.563 180.601 350.563 180.141 351.022C179.681 351.481 179.681 352.226 180.141 352.685C180.601 353.145 181.347 353.145 181.807 352.685Z" fill="#0BE597"/>
<g filter="url(#filter6_dd_52637_10844)">
<rect x="385.973" y="306.065" width="143.82" height="85.6723" rx="3.00486" fill="#2D3948"/>
</g>
<g filter="url(#filter7_dd_52637_10844)">
<rect x="385.973" y="299.138" width="143.82" height="92.599" rx="3.00486" fill="#2D3948"/>
</g>
<line x1="385.973" y1="310.99" x2="529.793" y2="310.99" stroke="#495463" stroke-opacity="0.7" stroke-width="0.356847"/>
<path fill-rule="evenodd" clip-rule="evenodd" d="M395.781 304.804H396.184C396.268 304.804 396.336 304.866 396.336 304.944V305.643C396.336 305.72 396.268 305.783 396.184 305.783H395.781C395.734 305.944 395.665 306.096 395.577 306.237L395.862 306.5C395.922 306.555 395.922 306.643 395.862 306.698L395.326 307.193C395.267 307.247 395.171 307.247 395.112 307.193L394.826 306.93C394.674 307.011 394.508 307.075 394.334 307.118V307.49C394.334 307.567 394.266 307.63 394.182 307.63H393.424C393.34 307.63 393.272 307.567 393.272 307.49V307.118C393.098 307.075 392.932 307.011 392.78 306.93L392.494 307.193C392.435 307.247 392.339 307.247 392.28 307.193L391.744 306.698C391.684 306.643 391.684 306.555 391.744 306.5L392.029 306.237C391.941 306.096 391.872 305.944 391.825 305.783H391.422C391.338 305.783 391.27 305.72 391.27 305.643V304.944C391.27 304.866 391.338 304.804 391.422 304.804H391.825C391.872 304.643 391.941 304.491 392.029 304.35L391.744 304.087C391.684 304.032 391.684 303.943 391.744 303.889L392.28 303.394C392.339 303.34 392.435 303.34 392.494 303.394L392.78 303.657C392.932 303.576 393.098 303.512 393.272 303.469V303.097C393.272 303.02 393.34 302.957 393.424 302.957H394.182C394.266 302.957 394.334 303.02 394.334 303.097V303.469C394.508 303.512 394.674 303.576 394.826 303.657L395.112 303.394C395.171 303.34 395.267 303.34 395.326 303.394L395.862 303.889C395.922 303.943 395.922 304.032 395.862 304.087L395.577 304.35C395.665 304.491 395.734 304.643 395.781 304.804ZM393.802 306.228C394.362 306.228 394.816 305.809 394.816 305.293C394.816 304.777 394.362 304.359 393.802 304.359C393.243 304.359 392.789 304.777 392.789 305.293C392.789 305.809 393.243 306.228 393.802 306.228Z" fill="white" fill-opacity="0.5"/>
<rect x="396.533" y="319.445" width="4.32614" height="2.16307" rx="1.08153" fill="#697583"/>
<rect x="412.4" y="319.538" width="14.9186" height="2.35413" rx="1.17707" fill="#9D97F4"/>
<rect x="428.85" y="319.538" width="19.1264" height="2.35413" rx="1.17707" fill="#15C1E6"/>
<rect x="449.508" y="319.538" width="4.59033" height="2.35413" rx="1.17707" fill="#D2DCE4"/>
<rect x="456.568" y="319.445" width="23.3228" height="2.35413" rx="1.17707" fill="#9D97F4"/>
<rect x="482.483" y="319.445" width="29.8014" height="2.35413" rx="1.17707" fill="#15C1E6"/>
<rect x="396.533" y="369.48" width="3.88714" height="2.34236" rx="1.17118" fill="#697583"/>
<rect x="412.4" y="369.375" width="14.9186" height="2.34236" rx="1.17118" fill="#9D97F4"/>
<rect x="429.911" y="369.375" width="19.1264" height="2.34236" rx="1.17118" fill="#D2DCE4"/>
<rect x="451.63" y="369.375" width="7.77428" height="2.34236" rx="1.17118" fill="#15C1E6"/>
<rect x="461.993" y="369.375" width="24.6185" height="2.34236" rx="1.17118" fill="#9D97F4"/>
<rect x="489.204" y="369.375" width="31.529" height="2.34236" rx="1.17118" fill="#D2DCE4"/>
<rect x="449.332" y="329.235" width="4.59033" height="2.23062" rx="1.11531" fill="#15C1E6"/>
<rect x="456.516" y="329.235" width="14.9186" height="2.23062" rx="1.11531" fill="#9D97F4"/>
<rect x="474.027" y="329.235" width="19.1264" height="2.23062" rx="1.11531" fill="#D2DCE4"/>
<rect x="396.533" y="329.395" width="4.32614" height="2.16307" rx="1.08153" fill="#697583"/>
<rect x="412.4" y="329.235" width="10.7108" height="2.23062" rx="1.11531" fill="#9D97F4"/>
<rect x="425.702" y="329.235" width="21.039" height="2.23062" rx="1.11531" fill="#D2DCE4"/>
<rect x="448.396" y="379.648" width="18.6723" height="2.31382" rx="1.15691" fill="#D2DCE4"/>
<rect x="469.479" y="379.648" width="4.48136" height="2.31382" rx="1.15691" fill="#15C1E6"/>
<rect x="476.645" y="379.648" width="14.5644" height="2.31382" rx="1.15691" fill="#9D97F4"/>
<rect x="396.533" y="379.578" width="4.32614" height="2.16307" rx="1.08153" fill="#697583"/>
<rect x="412.023" y="379.648" width="10.4565" height="2.31382" rx="1.15691" fill="#9D97F4"/>
<rect x="425.204" y="379.648" width="20.5396" height="2.31382" rx="1.15691" fill="#15C1E6"/>
<rect x="493.934" y="379.648" width="20.5396" height="2.31382" rx="1.15691" fill="#15C1E6"/>
<rect x="495.44" y="339.516" width="4.59033" height="2.43416" rx="1.21708" fill="#15C1E6"/>
<rect x="502.783" y="339.516" width="14.9186" height="2.43416" rx="1.21708" fill="#9D97F4"/>
<rect x="471.683" y="339.516" width="21.039" height="2.43416" rx="1.21708" fill="#D2DCE4"/>
<rect x="396.533" y="339.502" width="3.88714" height="2.43416" rx="1.21708" fill="#697583"/>
<rect x="428.924" y="339.516" width="17.2138" height="2.43416" rx="1.21708" fill="#15C1E6"/>
<path d="M448.792 340.733C448.792 340.06 449.337 339.516 450.009 339.516H467.849C468.521 339.516 469.066 340.06 469.066 340.733C469.066 341.405 468.521 341.95 467.849 341.95H450.009C449.337 341.95 448.792 341.405 448.792 340.733Z" fill="#9D97F4"/>
<rect x="396.533" y="349.292" width="3.88714" height="2.43416" rx="1.21708" fill="#697583"/>
<rect x="422.484" y="349.487" width="27.5507" height="2.08717" rx="1.04359" fill="#9D97F4"/>
<rect x="452.539" y="349.487" width="10.4359" height="2.08717" rx="1.04359" fill="#15C1E6"/>
<rect x="465.48" y="349.487" width="27.5507" height="2.08717" rx="1.04359" fill="#9D97F4"/>
<rect x="495.535" y="349.487" width="10.4359" height="2.08717" rx="1.04359" fill="#15C1E6"/>
<rect x="479.892" y="359.585" width="10.7108" height="2.43416" rx="1.21708" fill="#9D97F4"/>
<rect x="493.278" y="359.585" width="21.039" height="2.43416" rx="1.21708" fill="#15C1E6"/>
<rect x="396.533" y="359.571" width="3.88714" height="2.43416" rx="1.21708" fill="#697583"/>
<rect x="437.563" y="359.585" width="22.1866" height="2.43416" rx="1.21708" fill="#15C1E6"/>
<path d="M462.182 360.802C462.182 360.13 462.727 359.585 463.399 359.585H476.266C476.939 359.585 477.483 360.13 477.483 360.802C477.483 361.475 476.939 362.019 476.266 362.019H463.399C462.727 362.019 462.182 361.475 462.182 360.802Z" fill="#D2DCE4"/>
<g filter="url(#filter8_dd_52637_10844)">
<path d="M519.078 339.521H483.933C482.814 339.521 481.907 340.225 481.907 341.094V402.216C481.907 403.085 482.814 403.79 483.933 403.79H519.078C520.197 403.79 521.104 403.085 521.104 402.216V341.094C521.104 340.225 520.197 339.521 519.078 339.521Z" fill="#4D5B6C"/>
<path d="M483.933 339.771H519.078C520.121 339.771 520.853 340.419 520.853 341.094V402.216C520.853 402.891 520.121 403.539 519.078 403.539H483.933C482.89 403.539 482.158 402.891 482.158 402.216V341.094C482.158 340.419 482.89 339.771 483.933 339.771Z" stroke="white" stroke-opacity="0.3" stroke-width="0.501315"/>
</g>
<g filter="url(#filter9_d_52637_10844)">
<path d="M514.882 350.222H487.989C486.403 350.222 485.117 351.508 485.117 353.094V391.224C485.117 392.81 486.403 394.096 487.989 394.096H514.883C516.469 394.096 517.755 392.81 517.755 391.224V353.094C517.755 351.508 516.469 350.222 514.882 350.222Z" fill="#24303E"/>
<path d="M487.989 350.473H514.882C516.33 350.473 517.504 351.646 517.504 353.094V391.224C517.504 392.672 516.33 393.845 514.883 393.845H487.989C486.541 393.845 485.368 392.672 485.368 391.224V353.094C485.368 351.646 486.541 350.473 487.989 350.473Z" stroke="white" stroke-opacity="0.3" stroke-width="0.501315"/>
</g>
<path d="M514.277 355.572H501.211C500.431 355.572 499.799 356.205 499.799 356.985C499.799 357.765 500.431 358.397 501.211 358.397H514.277C515.057 358.397 515.689 357.765 515.689 356.985C515.689 356.205 515.057 355.572 514.277 355.572Z" fill="white" fill-opacity="0.2"/>
<path d="M489.409 355.572H489.001C488.333 355.572 487.792 356.113 487.792 356.781V357.189C487.792 357.856 488.333 358.397 489.001 358.397H489.409C490.076 358.397 490.617 357.856 490.617 357.189V356.781C490.617 356.113 490.076 355.572 489.409 355.572Z" fill="#3D7FFC"/>
<path d="M493.293 355.572H492.885C492.218 355.572 491.677 356.113 491.677 356.781V357.189C491.677 357.856 492.218 358.397 492.885 358.397H493.293C493.961 358.397 494.502 357.856 494.502 357.189V356.781C494.502 356.113 493.961 355.572 493.293 355.572Z" fill="#15C1E6"/>
<path d="M497.178 355.572H496.77C496.102 355.572 495.561 356.113 495.561 356.781V357.189C495.561 357.856 496.102 358.397 496.77 358.397H497.178C497.845 358.397 498.386 357.856 498.386 357.189V356.781C498.386 356.113 497.845 355.572 497.178 355.572Z" fill="#9D97F4"/>
<path d="M514.277 363.063H501.211C500.431 363.063 499.799 363.695 499.799 364.475C499.799 365.255 500.431 365.888 501.211 365.888H514.277C515.057 365.888 515.689 365.255 515.689 364.475C515.689 363.695 515.057 363.063 514.277 363.063Z" fill="white" fill-opacity="0.2"/>
<path d="M489.409 363.063H489.001C488.333 363.063 487.792 363.604 487.792 364.271V364.679C487.792 365.347 488.333 365.888 489.001 365.888H489.409C490.076 365.888 490.617 365.347 490.617 364.679V364.271C490.617 363.604 490.076 363.063 489.409 363.063Z" fill="#3D7FFC"/>
<path d="M493.293 363.063H492.885C492.218 363.063 491.677 363.604 491.677 364.271V364.679C491.677 365.347 492.218 365.888 492.885 365.888H493.293C493.961 365.888 494.502 365.347 494.502 364.679V364.271C494.502 363.604 493.961 363.063 493.293 363.063Z" fill="#3D7FFC"/>
<path d="M497.178 363.063H496.77C496.102 363.063 495.561 363.604 495.561 364.271V364.679C495.561 365.347 496.102 365.888 496.77 365.888H497.178C497.845 365.888 498.386 365.347 498.386 364.679V364.271C498.386 363.604 497.845 363.063 497.178 363.063Z" fill="#15C1E6"/>
<path d="M514.277 370.554H501.211C500.431 370.554 499.799 371.186 499.799 371.966C499.799 372.746 500.431 373.379 501.211 373.379H514.277C515.057 373.379 515.689 372.746 515.689 371.966C515.689 371.186 515.057 370.554 514.277 370.554Z" fill="white" fill-opacity="0.2"/>
<path d="M489.409 370.554H489.001C488.333 370.554 487.792 371.095 487.792 371.762V372.17C487.792 372.838 488.333 373.379 489.001 373.379H489.409C490.076 373.379 490.617 372.838 490.617 372.17V371.762C490.617 371.095 490.076 370.554 489.409 370.554Z" fill="#15C1E6"/>
<path d="M493.293 370.554H492.885C492.218 370.554 491.677 371.095 491.677 371.762V372.17C491.677 372.838 492.218 373.379 492.885 373.379H493.293C493.961 373.379 494.502 372.838 494.502 372.17V371.762C494.502 371.095 493.961 370.554 493.293 370.554Z" fill="#9D97F4"/>
<path d="M497.178 370.554H496.77C496.102 370.554 495.561 371.095 495.561 371.762V372.17C495.561 372.838 496.102 373.379 496.77 373.379H497.178C497.845 373.379 498.386 372.838 498.386 372.17V371.762C498.386 371.095 497.845 370.554 497.178 370.554Z" fill="#3D7FFC"/>
<path d="M514.277 378.044H501.211C500.431 378.044 499.799 378.677 499.799 379.457C499.799 380.237 500.431 380.869 501.211 380.869H514.277C515.057 380.869 515.689 380.237 515.689 379.457C515.689 378.677 515.057 378.044 514.277 378.044Z" fill="white" fill-opacity="0.2"/>
<path d="M489.409 378.045H489.001C488.334 378.045 487.792 378.586 487.792 379.253V379.661C487.792 380.328 488.334 380.87 489.001 380.87H489.409C490.076 380.87 490.617 380.328 490.617 379.661V379.253C490.617 378.586 490.076 378.045 489.409 378.045Z" fill="#3D7FFC"/>
<path d="M493.293 378.044H492.885C492.218 378.044 491.677 378.585 491.677 379.253V379.661C491.677 380.328 492.218 380.869 492.885 380.869H493.293C493.961 380.869 494.502 380.328 494.502 379.661V379.253C494.502 378.585 493.961 378.044 493.293 378.044Z" fill="#15C1E6"/>
<path d="M497.178 378.044H496.77C496.102 378.044 495.561 378.585 495.561 379.253V379.661C495.561 380.328 496.102 380.869 496.77 380.869H497.178C497.845 380.869 498.386 380.328 498.386 379.661V379.253C498.386 378.585 497.845 378.044 497.178 378.044Z" fill="#3D7FFC"/>
<path d="M514.277 385.535H501.211C500.431 385.535 499.799 386.167 499.799 386.947C499.799 387.727 500.431 388.36 501.211 388.36H514.277C515.057 388.36 515.689 387.727 515.689 386.947C515.689 386.167 515.057 385.535 514.277 385.535Z" fill="white" fill-opacity="0.2"/>
<path d="M489.409 385.535H489.001C488.333 385.535 487.792 386.076 487.792 386.743V387.151C487.792 387.819 488.333 388.36 489.001 388.36H489.409C490.076 388.36 490.617 387.819 490.617 387.151V386.743C490.617 386.076 490.076 385.535 489.409 385.535Z" fill="#3D7FFC"/>
<path d="M493.293 385.535H492.885C492.218 385.535 491.677 386.076 491.677 386.743V387.151C491.677 387.819 492.218 388.36 492.885 388.36H493.293C493.961 388.36 494.502 387.819 494.502 387.151V386.743C494.502 386.076 493.961 385.535 493.293 385.535Z" fill="#15C1E6"/>
<path d="M497.178 385.535H496.77C496.102 385.535 495.561 386.076 495.561 386.743V387.151C495.561 387.819 496.102 388.36 496.77 388.36H497.178C497.845 388.36 498.386 387.819 498.386 387.151V386.743C498.386 386.076 497.845 385.535 497.178 385.535Z" fill="#3D7FFC"/>
<path d="M494.169 343.992C494.319 343.36 493.927 342.726 493.294 342.577C492.661 342.428 492.026 342.819 491.877 343.451C491.727 344.084 492.119 344.717 492.753 344.866C493.386 345.015 494.02 344.624 494.169 343.992Z" fill="#0BE597"/>
<path d="M490.637 343.911C490.741 343.27 490.305 342.666 489.663 342.562C489.021 342.458 488.416 342.893 488.312 343.534C488.207 344.176 488.643 344.78 489.285 344.884C489.928 344.988 490.533 344.553 490.637 343.911Z" fill="#0BE597"/>
<path d="M486.754 344.554C487.214 344.095 487.214 343.35 486.754 342.891C486.294 342.431 485.548 342.431 485.088 342.891C484.628 343.35 484.628 344.095 485.088 344.554C485.548 345.013 486.294 345.013 486.754 344.554Z" fill="#0BE597"/>
<g filter="url(#filter10_dd_52637_10844)">
<path d="M544.76 347.547H509.615C508.496 347.547 507.589 348.251 507.589 349.12V410.242C507.589 411.111 508.496 411.816 509.615 411.816H544.76C545.879 411.816 546.786 411.111 546.786 410.242V349.12C546.786 348.251 545.879 347.547 544.76 347.547Z" fill="#4D5B6C"/>
<path d="M509.615 347.797H544.76C545.803 347.797 546.535 348.445 546.535 349.12V410.242C546.535 410.917 545.803 411.565 544.76 411.565H509.615C508.572 411.565 507.839 410.917 507.839 410.242V349.12C507.839 348.445 508.572 347.797 509.615 347.797Z" stroke="white" stroke-opacity="0.3" stroke-width="0.501315"/>
</g>
<g filter="url(#filter11_d_52637_10844)">
<path d="M540.565 358.247H513.672C512.085 358.247 510.799 359.533 510.799 361.12V399.249C510.799 400.836 512.085 402.122 513.672 402.122H540.565C542.151 402.122 543.437 400.836 543.437 399.249V361.12C543.437 359.533 542.151 358.247 540.565 358.247Z" fill="#24303E"/>
<path d="M513.672 358.498H540.565C542.013 358.498 543.187 359.672 543.187 361.12V399.249C543.187 400.697 542.013 401.871 540.565 401.871H513.672C512.224 401.871 511.05 400.697 511.05 399.249V361.12C511.05 359.672 512.224 358.498 513.672 358.498Z" stroke="white" stroke-opacity="0.3" stroke-width="0.501315"/>
</g>
<path d="M539.959 363.598H526.894C526.114 363.598 525.481 364.23 525.481 365.01C525.481 365.79 526.114 366.423 526.894 366.423H539.959C540.739 366.423 541.372 365.79 541.372 365.01C541.372 364.23 540.739 363.598 539.959 363.598Z" fill="white" fill-opacity="0.2"/>
<path d="M515.091 363.598H514.683C514.016 363.598 513.475 364.139 513.475 364.806V365.214C513.475 365.882 514.016 366.423 514.683 366.423H515.091C515.759 366.423 516.3 365.882 516.3 365.214V364.806C516.3 364.139 515.759 363.598 515.091 363.598Z" fill="#3D7FFC"/>
<path d="M518.976 363.598H518.568C517.9 363.598 517.359 364.139 517.359 364.806V365.214C517.359 365.881 517.9 366.423 518.568 366.423H518.976C519.643 366.423 520.184 365.881 520.184 365.214V364.806C520.184 364.139 519.643 363.598 518.976 363.598Z" fill="#15C1E6"/>
<path d="M522.86 363.598H522.452C521.784 363.598 521.243 364.139 521.243 364.806V365.214C521.243 365.881 521.784 366.423 522.452 366.423H522.86C523.527 366.423 524.068 365.881 524.068 365.214V364.806C524.068 364.139 523.527 363.598 522.86 363.598Z" fill="#3D7FFC"/>
<path d="M539.959 371.089H526.894C526.114 371.089 525.481 371.721 525.481 372.501C525.481 373.281 526.114 373.914 526.894 373.914H539.959C540.739 373.914 541.372 373.281 541.372 372.501C541.372 371.721 540.739 371.089 539.959 371.089Z" fill="white" fill-opacity="0.2"/>
<path d="M515.091 371.089H514.683C514.016 371.089 513.475 371.63 513.475 372.297V372.705C513.475 373.373 514.016 373.914 514.683 373.914H515.091C515.759 373.914 516.3 373.373 516.3 372.705V372.297C516.3 371.63 515.759 371.089 515.091 371.089Z" fill="#9D97F4"/>
<path d="M518.976 371.089H518.568C517.9 371.089 517.359 371.63 517.359 372.297V372.705C517.359 373.373 517.9 373.914 518.568 373.914H518.976C519.643 373.914 520.184 373.373 520.184 372.705V372.297C520.184 371.63 519.643 371.089 518.976 371.089Z" fill="#3D7FFC"/>
<path d="M522.86 371.089H522.452C521.784 371.089 521.243 371.63 521.243 372.297V372.705C521.243 373.373 521.784 373.914 522.452 373.914H522.86C523.527 373.914 524.068 373.373 524.068 372.705V372.297C524.068 371.63 523.527 371.089 522.86 371.089Z" fill="#15C1E6"/>
<path d="M539.959 378.579H526.894C526.114 378.579 525.481 379.212 525.481 379.992C525.481 380.772 526.114 381.404 526.894 381.404H539.959C540.739 381.404 541.372 380.772 541.372 379.992C541.372 379.212 540.739 378.579 539.959 378.579Z" fill="white" fill-opacity="0.2"/>
<path d="M515.091 378.579H514.683C514.016 378.579 513.475 379.12 513.475 379.788V380.196C513.475 380.863 514.016 381.404 514.683 381.404H515.091C515.759 381.404 516.3 380.863 516.3 380.196V379.788C516.3 379.12 515.759 378.579 515.091 378.579Z" fill="#15C1E6"/>
<path d="M518.976 378.579H518.568C517.9 378.579 517.359 379.12 517.359 379.788V380.196C517.359 380.863 517.9 381.404 518.568 381.404H518.976C519.643 381.404 520.184 380.863 520.184 380.196V379.788C520.184 379.12 519.643 378.579 518.976 378.579Z" fill="#3D7FFC"/>
<path d="M522.86 378.579H522.452C521.784 378.579 521.243 379.12 521.243 379.788V380.196C521.243 380.863 521.784 381.404 522.452 381.404H522.86C523.527 381.404 524.068 380.863 524.068 380.196V379.788C524.068 379.12 523.527 378.579 522.86 378.579Z" fill="#3D7FFC"/>
<path d="M539.959 386.07H526.894C526.114 386.07 525.481 386.702 525.481 387.483C525.481 388.263 526.114 388.895 526.894 388.895H539.959C540.739 388.895 541.372 388.263 541.372 387.483C541.372 386.702 540.739 386.07 539.959 386.07Z" fill="white" fill-opacity="0.2"/>
<path d="M515.091 386.07H514.683C514.016 386.07 513.475 386.611 513.475 387.278V387.686C513.475 388.354 514.016 388.895 514.683 388.895H515.091C515.759 388.895 516.3 388.354 516.3 387.686V387.278C516.3 386.611 515.759 386.07 515.091 386.07Z" fill="#3D7FFC"/>
<path d="M518.976 386.07H518.568C517.9 386.07 517.359 386.611 517.359 387.279V387.687C517.359 388.354 517.9 388.895 518.568 388.895H518.976C519.643 388.895 520.184 388.354 520.184 387.687V387.279C520.184 386.611 519.643 386.07 518.976 386.07Z" fill="#15C1E6"/>
<path d="M522.86 386.07H522.452C521.784 386.07 521.243 386.611 521.243 387.279V387.687C521.243 388.354 521.784 388.895 522.452 388.895H522.86C523.527 388.895 524.068 388.354 524.068 387.687V387.279C524.068 386.611 523.527 386.07 522.86 386.07Z" fill="#3D7FFC"/>
<path d="M539.959 393.561H526.894C526.114 393.561 525.481 394.193 525.481 394.973C525.481 395.753 526.114 396.386 526.894 396.386H539.959C540.739 396.386 541.372 395.753 541.372 394.973C541.372 394.193 540.739 393.561 539.959 393.561Z" fill="white" fill-opacity="0.2"/>
<path d="M515.091 393.561H514.683C514.016 393.561 513.475 394.102 513.475 394.769V395.177C513.475 395.845 514.016 396.386 514.683 396.386H515.091C515.759 396.386 516.3 395.845 516.3 395.177V394.769C516.3 394.102 515.759 393.561 515.091 393.561Z" fill="#3D7FFC"/>
<path d="M518.976 393.561H518.568C517.9 393.561 517.359 394.102 517.359 394.769V395.177C517.359 395.845 517.9 396.386 518.568 396.386H518.976C519.643 396.386 520.184 395.845 520.184 395.177V394.769C520.184 394.102 519.643 393.561 518.976 393.561Z" fill="#15C1E6"/>
<path d="M522.86 393.561H522.452C521.784 393.561 521.243 394.102 521.243 394.769V395.177C521.243 395.845 521.784 396.386 522.452 396.386H522.86C523.527 396.386 524.068 395.845 524.068 395.177V394.769C524.068 394.102 523.527 393.561 522.86 393.561Z" fill="#9D97F4"/>
<path d="M519.851 352.018C520.001 351.386 519.609 350.752 518.976 350.603C518.342 350.454 517.708 350.845 517.559 351.477C517.409 352.11 517.801 352.743 518.434 352.892C519.068 353.041 519.702 352.65 519.851 352.018Z" fill="#0BE597"/>
<path d="M516.319 351.937C516.423 351.296 515.987 350.692 515.345 350.588C514.703 350.484 514.098 350.919 513.993 351.56C513.889 352.201 514.325 352.805 514.967 352.91C515.61 353.014 516.215 352.578 516.319 351.937Z" fill="#0BE597"/>
<path d="M512.436 352.58C512.896 352.12 512.896 351.376 512.436 350.916C511.976 350.457 511.23 350.457 510.77 350.916C510.31 351.376 510.31 352.12 510.77 352.58C511.23 353.039 511.976 353.039 512.436 352.58Z" fill="#0BE597"/>
<path d="M421.651 65.9216H164.79C158.825 65.9216 153.99 70.7511 153.99 76.7085V249.784C153.99 255.742 158.825 260.571 164.79 260.571H421.651C427.616 260.571 432.451 255.742 432.451 249.784V76.7085C432.451 70.7511 427.616 65.9216 421.651 65.9216Z" fill="#4D5B6C"/>
<path d="M417.768 80.4299H169.069V239.494H417.768V80.4299Z" fill="#2D3948"/>
<rect x="169.102" y="80.4238" width="248.702" height="18.8867" fill="#24303E"/>
<path d="M186.436 89.9635C186.436 92.3208 184.491 94.2657 182.134 94.2657C179.776 94.2657 177.831 92.3208 177.831 89.9635C177.831 87.6061 179.776 85.6613 182.134 85.6613C184.491 85.6613 186.436 87.6061 186.436 89.9635Z" fill="#F66058"/>
<path d="M203.643 89.9635C203.643 92.3208 201.698 94.2657 199.341 94.2657C196.984 94.2657 195.039 92.3208 195.039 89.9635C195.039 87.6061 196.984 85.6613 199.341 85.6613C201.757 85.6613 203.643 87.6061 203.643 89.9635Z" fill="#F9BD2E"/>
<path d="M220.854 89.9635C220.854 92.3208 218.909 94.2657 216.552 94.2657C214.195 94.2657 212.25 92.3208 212.25 89.9635C212.25 87.6061 214.195 85.6613 216.552 85.6613C218.909 85.6613 220.854 87.6061 220.854 89.9635Z" fill="#3CC840"/>
<rect opacity="0.3" x="188.136" y="112.948" width="209.672" height="10.1196" rx="5.0598" fill="#8994A1" fill-opacity="0.4" stroke="#8994A1" stroke-width="0.618654"/>
<rect opacity="0.3" x="212.748" y="154.066" width="152.716" height="12.921" rx="6.4605" fill="#8994A1" fill-opacity="0.4" stroke="#8994A1" stroke-width="0.634839"/>
<rect opacity="0.3" x="229.635" y="176.884" width="16.7611" height="16.7611" rx="8.38053" fill="#8994A1" fill-opacity="0.4" stroke="#8994A1" stroke-width="0.519426"/>
<rect opacity="0.3" x="229.635" y="200.926" width="16.7611" height="16.7611" rx="8.38053" fill="#8994A1" fill-opacity="0.4" stroke="#8994A1" stroke-width="0.519426"/>
<rect opacity="0.3" x="255.18" y="176.884" width="16.7611" height="16.7611" rx="8.38053" fill="#8994A1" fill-opacity="0.4" stroke="#8994A1" stroke-width="0.519426"/>
<rect opacity="0.3" x="255.18" y="200.926" width="16.7611" height="16.7611" rx="8.38053" fill="#8994A1" fill-opacity="0.4" stroke="#8994A1" stroke-width="0.519426"/>
<rect opacity="0.3" x="280.725" y="176.884" width="16.7611" height="16.7611" rx="8.38053" fill="#8994A1" fill-opacity="0.4" stroke="#8994A1" stroke-width="0.519426"/>
<rect opacity="0.3" x="280.725" y="200.926" width="16.7611" height="16.7611" rx="8.38053" fill="#8994A1" fill-opacity="0.4" stroke="#8994A1" stroke-width="0.519426"/>
<rect opacity="0.3" x="306.27" y="176.884" width="16.7611" height="16.7611" rx="8.38053" fill="#8994A1" fill-opacity="0.4" stroke="#8994A1" stroke-width="0.519426"/>
<rect opacity="0.3" x="306.27" y="200.926" width="16.7611" height="16.7611" rx="8.38053" fill="#8994A1" fill-opacity="0.4" stroke="#8994A1" stroke-width="0.519426"/>
<rect opacity="0.3" x="331.815" y="176.884" width="16.7611" height="16.7611" rx="8.38053" fill="#8994A1" fill-opacity="0.4" stroke="#8994A1" stroke-width="0.519426"/>
<rect opacity="0.3" x="331.815" y="200.926" width="16.7611" height="16.7611" rx="8.38053" fill="#8994A1" fill-opacity="0.4" stroke="#8994A1" stroke-width="0.519426"/>
<g clip-path="url(#clip0_52637_10844)">
<path d="M224.075 163.311L222.462 161.634C222.877 161.14 223.104 160.52 223.104 159.874C223.104 158.365 221.876 157.138 220.368 157.138C218.859 157.138 217.631 158.365 217.631 159.874C217.631 161.383 218.859 162.611 220.368 162.611C220.934 162.611 221.474 162.44 221.935 162.116L223.561 163.806C223.629 163.877 223.72 163.916 223.818 163.916C223.911 163.916 223.999 163.88 224.065 163.816C224.207 163.68 224.212 163.453 224.075 163.311ZM220.368 157.852C221.483 157.852 222.39 158.759 222.39 159.874C222.39 160.99 221.483 161.897 220.368 161.897C219.252 161.897 218.345 160.99 218.345 159.874C218.345 158.759 219.252 157.852 220.368 157.852Z" fill="white" fill-opacity="0.2"/>
</g>
<path d="M169.93 132.325H417.804" stroke="#8994A1" stroke-opacity="0.2" stroke-width="0.925138"/>
<path d="M459.735 250.465C459.735 249.271 458.892 248.302 457.853 248.302H293.158H128.463C127.423 248.302 126.581 249.271 126.581 250.465V260.647C126.581 261.841 127.423 262.81 128.463 262.81H457.853C458.892 262.81 459.735 261.841 459.735 260.647V250.465Z" fill="#24303E"/>
<path d="M263.367 248.302H323.878V248.762C323.878 250.124 323.336 251.429 322.372 252.392C321.409 253.354 320.102 253.895 318.739 253.895H268.518C267.155 253.895 265.848 253.354 264.884 252.392C263.92 251.429 263.379 250.124 263.379 248.762V248.302H263.367Z" fill="#70879C"/>
<g filter="url(#filter12_d_52637_10844)">
<path d="M243.862 352.855C238.899 352.855 234.875 348.831 234.875 343.868C234.875 338.904 238.899 334.881 243.862 334.881C248.826 334.881 252.849 338.904 252.849 343.868C252.849 348.831 248.826 352.855 243.862 352.855Z" fill="#15C1E6"/>
</g>
<g clip-path="url(#clip1_52637_10844)">
<path d="M248.04 339.733C247.866 339.531 247.569 339.512 247.372 339.685L242.349 344.092C242.152 344.265 241.85 344.241 241.677 344.044L240.187 342.333C240.014 342.136 239.711 342.117 239.514 342.29L238.168 343.472C237.967 343.645 237.952 343.948 238.12 344.145L239.923 346.216L240.394 346.754L241.412 347.922C241.585 348.124 241.883 348.143 242.085 347.97L249.169 341.756C249.366 341.583 249.385 341.28 249.212 341.083L248.035 339.733H248.04Z" fill="white"/>
</g>
<g filter="url(#filter13_d_52637_10844)">
<path d="M325.218 312.177C320.255 312.177 316.231 308.153 316.231 303.19C316.231 298.227 320.255 294.203 325.218 294.203C330.181 294.203 334.205 298.227 334.205 303.19C334.205 308.153 330.181 312.177 325.218 312.177Z" fill="#15C1E6"/>
</g>
<g clip-path="url(#clip2_52637_10844)">
<path d="M329.395 299.055C329.222 298.853 328.924 298.834 328.727 299.007L323.705 303.414C323.508 303.587 323.205 303.563 323.032 303.366L321.543 301.655C321.37 301.458 321.067 301.439 320.87 301.612L319.524 302.794C319.322 302.967 319.308 303.27 319.476 303.467L321.278 305.538L321.749 306.076L322.768 307.244C322.941 307.446 323.239 307.465 323.441 307.292L330.525 301.078C330.722 300.905 330.741 300.602 330.568 300.405L329.39 299.055H329.395Z" fill="white"/>
</g>
<defs>
<filter id="filter0_dd_52637_10844" x="42.0874" y="296.596" width="170.334" height="112.186" filterUnits="userSpaceOnUse" color-interpolation-filters="sRGB">
<feFlood flood-opacity="0" result="BackgroundImageFix"/>
<feColorMatrix in="SourceAlpha" type="matrix" values="0 0 0 0 0 0 0 0 0 0 0 0 0 0 0 0 0 0 127 0" result="hardAlpha"/>
<feOffset dy="3.68243"/>
<feGaussianBlur stdDeviation="6.62838"/>
<feComposite in2="hardAlpha" operator="out"/>
<feColorMatrix type="matrix" values="0 0 0 0 0.00677083 0 0 0 0 0.0690625 0 0 0 0 0.1625 0 0 0 0.47 0"/>
<feBlend mode="normal" in2="BackgroundImageFix" result="effect1_dropShadow_52637_10844"/>
<feColorMatrix in="SourceAlpha" type="matrix" values="0 0 0 0 0 0 0 0 0 0 0 0 0 0 0 0 0 0 127 0" result="hardAlpha"/>
<feOffset/>
<feGaussianBlur stdDeviation="0.859234"/>
<feComposite in2="hardAlpha" operator="out"/>
<feColorMatrix type="matrix" values="0 0 0 0 0 0 0 0 0 0 0 0 0 0 0 0 0 0 0.15 0"/>
<feBlend mode="normal" in2="effect1_dropShadow_52637_10844" result="effect2_dropShadow_52637_10844"/>
<feBlend mode="normal" in="SourceGraphic" in2="effect2_dropShadow_52637_10844" result="shape"/>
</filter>
<filter id="filter1_dd_52637_10844" x="42.0874" y="289.669" width="170.334" height="119.113" filterUnits="userSpaceOnUse" color-interpolation-filters="sRGB">
<feFlood flood-opacity="0" result="BackgroundImageFix"/>
<feColorMatrix in="SourceAlpha" type="matrix" values="0 0 0 0 0 0 0 0 0 0 0 0 0 0 0 0 0 0 127 0" result="hardAlpha"/>
<feOffset dy="3.68243"/>
<feGaussianBlur stdDeviation="6.62838"/>
<feComposite in2="hardAlpha" operator="out"/>
<feColorMatrix type="matrix" values="0 0 0 0 0.00677083 0 0 0 0 0.0690625 0 0 0 0 0.1625 0 0 0 0.5 0"/>
<feBlend mode="normal" in2="BackgroundImageFix" result="effect1_dropShadow_52637_10844"/>
<feColorMatrix in="SourceAlpha" type="matrix" values="0 0 0 0 0 0 0 0 0 0 0 0 0 0 0 0 0 0 127 0" result="hardAlpha"/>
<feOffset/>
<feGaussianBlur stdDeviation="0.859234"/>
<feComposite in2="hardAlpha" operator="out"/>
<feColorMatrix type="matrix" values="0 0 0 0 0 0 0 0 0 0 0 0 0 0 0 0 0 0 0.15 0"/>
<feBlend mode="normal" in2="effect1_dropShadow_52637_10844" result="effect2_dropShadow_52637_10844"/>
<feBlend mode="normal" in="SourceGraphic" in2="effect2_dropShadow_52637_10844" result="shape"/>
</filter>
<filter id="filter2_dd_52637_10844" x="135.72" y="324.069" width="70.3117" height="95.3837" filterUnits="userSpaceOnUse" color-interpolation-filters="sRGB">
<feFlood flood-opacity="0" result="BackgroundImageFix"/>
<feColorMatrix in="SourceAlpha" type="matrix" values="0 0 0 0 0 0 0 0 0 0 0 0 0 0 0 0 0 0 127 0" result="hardAlpha"/>
<feOffset/>
<feGaussianBlur stdDeviation="7.77865"/>
<feColorMatrix type="matrix" values="0 0 0 0 0.00392157 0 0 0 0 0.00392157 0 0 0 0 0.0235294 0 0 0 0.32 0"/>
<feBlend mode="normal" in2="BackgroundImageFix" result="effect1_dropShadow_52637_10844"/>
<feColorMatrix in="SourceAlpha" type="matrix" values="0 0 0 0 0 0 0 0 0 0 0 0 0 0 0 0 0 0 127 0" result="hardAlpha"/>
<feOffset dy="4.14861"/>
<feGaussianBlur stdDeviation="2.07431"/>
<feComposite in2="hardAlpha" operator="out"/>
<feColorMatrix type="matrix" values="0 0 0 0 0 0 0 0 0 0 0 0 0 0 0 0 0 0 0.25 0"/>
<feBlend mode="normal" in2="effect1_dropShadow_52637_10844" result="effect2_dropShadow_52637_10844"/>
<feBlend mode="normal" in="SourceGraphic" in2="effect2_dropShadow_52637_10844" result="shape"/>
</filter>
<filter id="filter3_d_52637_10844" x="138.93" y="334.77" width="63.7527" height="74.9888" filterUnits="userSpaceOnUse" color-interpolation-filters="sRGB">
<feFlood flood-opacity="0" result="BackgroundImageFix"/>
<feColorMatrix in="SourceAlpha" type="matrix" values="0 0 0 0 0 0 0 0 0 0 0 0 0 0 0 0 0 0 127 0" result="hardAlpha"/>
<feOffset/>
<feGaussianBlur stdDeviation="7.77865"/>
<feColorMatrix type="matrix" values="0 0 0 0 0.00392157 0 0 0 0 0.00392157 0 0 0 0 0.0235294 0 0 0 0.32 0"/>
<feBlend mode="normal" in2="BackgroundImageFix" result="effect1_dropShadow_52637_10844"/>
<feBlend mode="normal" in="SourceGraphic" in2="effect1_dropShadow_52637_10844" result="shape"/>
</filter>
<filter id="filter4_dd_52637_10844" x="161.402" y="332.095" width="70.3117" height="95.3837" filterUnits="userSpaceOnUse" color-interpolation-filters="sRGB">
<feFlood flood-opacity="0" result="BackgroundImageFix"/>
<feColorMatrix in="SourceAlpha" type="matrix" values="0 0 0 0 0 0 0 0 0 0 0 0 0 0 0 0 0 0 127 0" result="hardAlpha"/>
<feOffset/>
<feGaussianBlur stdDeviation="7.77865"/>
<feColorMatrix type="matrix" values="0 0 0 0 0.00392157 0 0 0 0 0.00392157 0 0 0 0 0.0235294 0 0 0 0.32 0"/>
<feBlend mode="normal" in2="BackgroundImageFix" result="effect1_dropShadow_52637_10844"/>
<feColorMatrix in="SourceAlpha" type="matrix" values="0 0 0 0 0 0 0 0 0 0 0 0 0 0 0 0 0 0 127 0" result="hardAlpha"/>
<feOffset dy="4.14861"/>
<feGaussianBlur stdDeviation="2.07431"/>
<feComposite in2="hardAlpha" operator="out"/>
<feColorMatrix type="matrix" values="0 0 0 0 0 0 0 0 0 0 0 0 0 0 0 0 0 0 0.25 0"/>
<feBlend mode="normal" in2="effect1_dropShadow_52637_10844" result="effect2_dropShadow_52637_10844"/>
<feBlend mode="normal" in="SourceGraphic" in2="effect2_dropShadow_52637_10844" result="shape"/>
</filter>
<filter id="filter5_d_52637_10844" x="164.613" y="342.796" width="63.7527" height="74.9888" filterUnits="userSpaceOnUse" color-interpolation-filters="sRGB">
<feFlood flood-opacity="0" result="BackgroundImageFix"/>
<feColorMatrix in="SourceAlpha" type="matrix" values="0 0 0 0 0 0 0 0 0 0 0 0 0 0 0 0 0 0 127 0" result="hardAlpha"/>
<feOffset/>
<feGaussianBlur stdDeviation="7.77865"/>
<feColorMatrix type="matrix" values="0 0 0 0 0.00392157 0 0 0 0 0.00392157 0 0 0 0 0.0235294 0 0 0 0.32 0"/>
<feBlend mode="normal" in2="BackgroundImageFix" result="effect1_dropShadow_52637_10844"/>
<feBlend mode="normal" in="SourceGraphic" in2="effect1_dropShadow_52637_10844" result="shape"/>
</filter>
<filter id="filter6_dd_52637_10844" x="372.717" y="296.49" width="170.334" height="112.186" filterUnits="userSpaceOnUse" color-interpolation-filters="sRGB">
<feFlood flood-opacity="0" result="BackgroundImageFix"/>
<feColorMatrix in="SourceAlpha" type="matrix" values="0 0 0 0 0 0 0 0 0 0 0 0 0 0 0 0 0 0 127 0" result="hardAlpha"/>
<feOffset dy="3.68243"/>
<feGaussianBlur stdDeviation="6.62838"/>
<feComposite in2="hardAlpha" operator="out"/>
<feColorMatrix type="matrix" values="0 0 0 0 0.00677083 0 0 0 0 0.0690625 0 0 0 0 0.1625 0 0 0 0.47 0"/>
<feBlend mode="normal" in2="BackgroundImageFix" result="effect1_dropShadow_52637_10844"/>
<feColorMatrix in="SourceAlpha" type="matrix" values="0 0 0 0 0 0 0 0 0 0 0 0 0 0 0 0 0 0 127 0" result="hardAlpha"/>
<feOffset/>
<feGaussianBlur stdDeviation="0.859234"/>
<feComposite in2="hardAlpha" operator="out"/>
<feColorMatrix type="matrix" values="0 0 0 0 0 0 0 0 0 0 0 0 0 0 0 0 0 0 0.15 0"/>
<feBlend mode="normal" in2="effect1_dropShadow_52637_10844" result="effect2_dropShadow_52637_10844"/>
<feBlend mode="normal" in="SourceGraphic" in2="effect2_dropShadow_52637_10844" result="shape"/>
</filter>
<filter id="filter7_dd_52637_10844" x="372.717" y="289.564" width="170.334" height="119.113" filterUnits="userSpaceOnUse" color-interpolation-filters="sRGB">
<feFlood flood-opacity="0" result="BackgroundImageFix"/>
<feColorMatrix in="SourceAlpha" type="matrix" values="0 0 0 0 0 0 0 0 0 0 0 0 0 0 0 0 0 0 127 0" result="hardAlpha"/>
<feOffset dy="3.68243"/>
<feGaussianBlur stdDeviation="6.62838"/>
<feComposite in2="hardAlpha" operator="out"/>
<feColorMatrix type="matrix" values="0 0 0 0 0.00677083 0 0 0 0 0.0690625 0 0 0 0 0.1625 0 0 0 0.5 0"/>
<feBlend mode="normal" in2="BackgroundImageFix" result="effect1_dropShadow_52637_10844"/>
<feColorMatrix in="SourceAlpha" type="matrix" values="0 0 0 0 0 0 0 0 0 0 0 0 0 0 0 0 0 0 127 0" result="hardAlpha"/>
<feOffset/>
<feGaussianBlur stdDeviation="0.859234"/>
<feComposite in2="hardAlpha" operator="out"/>
<feColorMatrix type="matrix" values="0 0 0 0 0 0 0 0 0 0 0 0 0 0 0 0 0 0 0.15 0"/>
<feBlend mode="normal" in2="effect1_dropShadow_52637_10844" result="effect2_dropShadow_52637_10844"/>
<feBlend mode="normal" in="SourceGraphic" in2="effect2_dropShadow_52637_10844" result="shape"/>
</filter>
<filter id="filter8_dd_52637_10844" x="466.35" y="323.963" width="70.3117" height="95.3837" filterUnits="userSpaceOnUse" color-interpolation-filters="sRGB">
<feFlood flood-opacity="0" result="BackgroundImageFix"/>
<feColorMatrix in="SourceAlpha" type="matrix" values="0 0 0 0 0 0 0 0 0 0 0 0 0 0 0 0 0 0 127 0" result="hardAlpha"/>
<feOffset/>
<feGaussianBlur stdDeviation="7.77865"/>
<feColorMatrix type="matrix" values="0 0 0 0 0.00392157 0 0 0 0 0.00392157 0 0 0 0 0.0235294 0 0 0 0.32 0"/>
<feBlend mode="normal" in2="BackgroundImageFix" result="effect1_dropShadow_52637_10844"/>
<feColorMatrix in="SourceAlpha" type="matrix" values="0 0 0 0 0 0 0 0 0 0 0 0 0 0 0 0 0 0 127 0" result="hardAlpha"/>
<feOffset dy="4.14861"/>
<feGaussianBlur stdDeviation="2.07431"/>
<feComposite in2="hardAlpha" operator="out"/>
<feColorMatrix type="matrix" values="0 0 0 0 0 0 0 0 0 0 0 0 0 0 0 0 0 0 0.25 0"/>
<feBlend mode="normal" in2="effect1_dropShadow_52637_10844" result="effect2_dropShadow_52637_10844"/>
<feBlend mode="normal" in="SourceGraphic" in2="effect2_dropShadow_52637_10844" result="shape"/>
</filter>
<filter id="filter9_d_52637_10844" x="469.56" y="334.665" width="63.7527" height="74.9888" filterUnits="userSpaceOnUse" color-interpolation-filters="sRGB">
<feFlood flood-opacity="0" result="BackgroundImageFix"/>
<feColorMatrix in="SourceAlpha" type="matrix" values="0 0 0 0 0 0 0 0 0 0 0 0 0 0 0 0 0 0 127 0" result="hardAlpha"/>
<feOffset/>
<feGaussianBlur stdDeviation="7.77865"/>
<feColorMatrix type="matrix" values="0 0 0 0 0.00392157 0 0 0 0 0.00392157 0 0 0 0 0.0235294 0 0 0 0.32 0"/>
<feBlend mode="normal" in2="BackgroundImageFix" result="effect1_dropShadow_52637_10844"/>
<feBlend mode="normal" in="SourceGraphic" in2="effect1_dropShadow_52637_10844" result="shape"/>
</filter>
<filter id="filter10_dd_52637_10844" x="492.031" y="331.989" width="70.3117" height="95.3837" filterUnits="userSpaceOnUse" color-interpolation-filters="sRGB">
<feFlood flood-opacity="0" result="BackgroundImageFix"/>
<feColorMatrix in="SourceAlpha" type="matrix" values="0 0 0 0 0 0 0 0 0 0 0 0 0 0 0 0 0 0 127 0" result="hardAlpha"/>
<feOffset/>
<feGaussianBlur stdDeviation="7.77865"/>
<feColorMatrix type="matrix" values="0 0 0 0 0.00392157 0 0 0 0 0.00392157 0 0 0 0 0.0235294 0 0 0 0.32 0"/>
<feBlend mode="normal" in2="BackgroundImageFix" result="effect1_dropShadow_52637_10844"/>
<feColorMatrix in="SourceAlpha" type="matrix" values="0 0 0 0 0 0 0 0 0 0 0 0 0 0 0 0 0 0 127 0" result="hardAlpha"/>
<feOffset dy="4.14861"/>
<feGaussianBlur stdDeviation="2.07431"/>
<feComposite in2="hardAlpha" operator="out"/>
<feColorMatrix type="matrix" values="0 0 0 0 0 0 0 0 0 0 0 0 0 0 0 0 0 0 0.25 0"/>
<feBlend mode="normal" in2="effect1_dropShadow_52637_10844" result="effect2_dropShadow_52637_10844"/>
<feBlend mode="normal" in="SourceGraphic" in2="effect2_dropShadow_52637_10844" result="shape"/>
</filter>
<filter id="filter11_d_52637_10844" x="495.242" y="342.69" width="63.7527" height="74.9888" filterUnits="userSpaceOnUse" color-interpolation-filters="sRGB">
<feFlood flood-opacity="0" result="BackgroundImageFix"/>
<feColorMatrix in="SourceAlpha" type="matrix" values="0 0 0 0 0 0 0 0 0 0 0 0 0 0 0 0 0 0 127 0" result="hardAlpha"/>
<feOffset/>
<feGaussianBlur stdDeviation="7.77865"/>
<feColorMatrix type="matrix" values="0 0 0 0 0.00392157 0 0 0 0 0.00392157 0 0 0 0 0.0235294 0 0 0 0.32 0"/>
<feBlend mode="normal" in2="BackgroundImageFix" result="effect1_dropShadow_52637_10844"/>
<feBlend mode="normal" in="SourceGraphic" in2="effect1_dropShadow_52637_10844" result="shape"/>
</filter>
<filter id="filter12_d_52637_10844" x="218.025" y="318.03" width="51.6751" height="51.675" filterUnits="userSpaceOnUse" color-interpolation-filters="sRGB">
<feFlood flood-opacity="0" result="BackgroundImageFix"/>
<feColorMatrix in="SourceAlpha" type="matrix" values="0 0 0 0 0 0 0 0 0 0 0 0 0 0 0 0 0 0 127 0" result="hardAlpha"/>
<feOffset/>
<feGaussianBlur stdDeviation="8.42528"/>
<feColorMatrix type="matrix" values="0 0 0 0 0.0823529 0 0 0 0 0.756863 0 0 0 0 0.901961 0 0 0 0.5 0"/>
<feBlend mode="normal" in2="BackgroundImageFix" result="effect1_dropShadow_52637_10844"/>
<feBlend mode="normal" in="SourceGraphic" in2="effect1_dropShadow_52637_10844" result="shape"/>
</filter>
<filter id="filter13_d_52637_10844" x="299.38" y="277.352" width="51.6751" height="51.675" filterUnits="userSpaceOnUse" color-interpolation-filters="sRGB">
<feFlood flood-opacity="0" result="BackgroundImageFix"/>
<feColorMatrix in="SourceAlpha" type="matrix" values="0 0 0 0 0 0 0 0 0 0 0 0 0 0 0 0 0 0 127 0" result="hardAlpha"/>
<feOffset/>
<feGaussianBlur stdDeviation="8.42528"/>
<feColorMatrix type="matrix" values="0 0 0 0 0.0823529 0 0 0 0 0.756863 0 0 0 0 0.901961 0 0 0 0.5 0"/>
<feBlend mode="normal" in2="BackgroundImageFix" result="effect1_dropShadow_52637_10844"/>
<feBlend mode="normal" in="SourceGraphic" in2="effect1_dropShadow_52637_10844" result="shape"/>
</filter>
<clipPath id="clip0_52637_10844">
<rect width="6.77792" height="6.77792" fill="white" transform="translate(217.514 157.138)"/>
</clipPath>
<clipPath id="clip1_52637_10844">
<rect width="11.332" height="8.5158" fill="white" transform="translate(238.005 339.57)"/>
</clipPath>
<clipPath id="clip2_52637_10844">
<rect width="11.332" height="8.5158" fill="white" transform="translate(319.361 298.892)"/>
</clipPath>
</defs>
</svg>
