<svg width="319" height="79" viewBox="0 0 319 79" fill="none" xmlns="http://www.w3.org/2000/svg">
<path d="M85.1352 40.9565C82.8027 41.488 78.5618 42.1257 75.1691 42.1257C64.5669 42.1257 62.2344 36.1733 62.2344 24.2684C62.2344 11.8321 64.8849 6.41113 75.1691 6.41113C78.7739 6.41113 82.9087 7.26148 85.1352 7.68665L84.9232 12.151C82.5907 11.8321 78.4558 11.3006 76.0173 11.3006C69.762 11.3006 68.0656 14.2768 68.0656 24.2684C68.0656 33.7285 69.3379 37.2362 76.1233 37.2362C78.7739 37.2362 82.6967 36.9173 84.9232 36.3859L85.1352 40.9565Z" fill="white"/>
<path d="M109.416 36.8127L109.628 40.9581C109.628 40.9581 103.796 42.1274 99.3434 42.1274C91.7098 42.1274 88.9532 38.1945 88.9532 29.1596C88.9532 19.912 92.8761 15.7666 99.8735 15.7666C106.977 15.7666 110.476 19.3806 110.476 27.3526L109.946 31.1791H94.1483C94.1483 35.112 95.6327 37.3442 99.9796 37.3442C104.114 37.1316 109.416 36.8127 109.416 36.8127ZM104.963 26.8211C104.963 21.719 103.478 20.0183 99.8735 20.0183C96.0567 20.0183 94.4664 21.8253 94.4664 26.8211H104.963Z" fill="white"/>
<path d="M115.67 16.085H121.077V19.0612C121.077 19.0612 125.424 16.2976 129.665 15.4473V20.8682C125 21.7186 121.077 23.5256 121.077 23.5256V41.2765H115.67V16.085Z" fill="white"/>
<path d="M137.193 16.0859L142.07 36.8131H143.554L148.75 16.0859H154.369L147.689 41.4901H137.935L131.362 16.0859H137.193Z" fill="white"/>
<path d="M177.481 36.8127L177.693 40.9581C177.693 40.9581 171.862 42.1274 167.409 42.1274C159.775 42.1274 157.018 38.1945 157.018 29.1596C157.018 19.912 160.941 15.7666 167.939 15.7666C175.042 15.7666 178.541 19.3806 178.541 27.3526L178.223 31.2854H162.532C162.532 35.2183 164.016 37.4505 168.363 37.4505C172.18 37.1316 177.481 36.8127 177.481 36.8127ZM173.134 26.8211C173.134 21.719 171.65 20.0183 168.045 20.0183C164.228 20.0183 162.638 21.8253 162.638 26.8211H173.134Z" fill="white"/>
<path d="M189.462 5.66895H184.055V41.4898H189.462V5.66895Z" fill="white"/>
<path d="M202.185 5.66895H196.777V41.4898H202.185V5.66895Z" fill="white"/>
<path d="M230.705 28.734C230.705 37.1312 228.055 42.1269 219.467 42.1269C210.879 42.1269 208.229 37.1312 208.229 28.734C208.229 20.6557 210.985 15.6599 219.467 15.6599C227.737 15.5536 230.705 20.4431 230.705 28.734ZM225.086 28.734C225.086 22.8878 223.814 20.3368 219.467 20.3368C215.014 20.3368 213.848 22.7816 213.848 28.734C213.848 34.5801 214.802 37.3437 219.467 37.3437C224.132 37.3437 225.086 34.4738 225.086 28.734Z" fill="white"/>
<path d="M33.5026 22.7804C37.9555 18.4224 42.9386 15.1273 48.2397 12.6825C47.0734 10.663 45.5891 8.85597 43.9988 7.15527C41.4542 12.5762 37.9555 17.8909 33.5026 22.7804Z" fill="white"/>
<path d="M31.594 22.781C25.2326 16.0845 20.9917 8.32506 18.5532 0.0341797C12.722 1.3097 7.73892 4.39221 3.92212 8.64394C13.9942 10.4509 23.6423 15.1278 31.594 22.781Z" fill="white"/>
<path d="M31.5947 24.6934C22.6888 33.0905 11.5564 38.0863 0 39.5744C3.49874 46.3772 9.54201 51.4793 17.1756 53.6052C18.978 43.0821 23.749 32.9842 31.5947 24.6934Z" fill="white"/>
<path d="M33.5026 24.6934C39.1217 30.6458 43.0446 37.6611 45.6951 44.8891C47.8156 42.2318 49.618 39.2555 50.7842 35.9605C44.6349 33.3031 38.6977 29.4766 33.5026 24.6934Z" fill="white"/>
<path d="M195.504 59.6672L195.186 60.9427C194.974 60.7301 194.656 60.305 194.338 59.9861C193.702 59.4546 192.854 59.1357 192.005 59.1357H191.793C190.309 59.3483 189.037 59.7735 187.658 60.9427C185.644 62.6434 185.22 65.3008 185.22 65.6196C184.902 66.8952 184.69 69.2336 185.856 70.9343C186.174 71.4658 186.704 71.7847 187.128 71.891C187.658 72.1035 188.295 72.2098 188.825 72.2098C191.263 72.2098 192.429 70.9343 192.96 70.1903L192.641 71.891H196.776L199.427 59.4546H195.504V59.6672ZM194.762 62.856C193.596 68.7022 192.429 69.6588 190.945 69.6588C190.627 69.6588 190.309 69.6588 190.097 69.4462C189.885 69.2336 189.779 69.2336 189.779 69.1273C189.567 68.9147 189.567 68.8084 189.567 68.5959C189.249 67.7455 189.355 66.47 189.567 65.8322C189.567 65.5134 189.779 64.9819 190.097 64.3441C190.415 63.7064 190.733 63.0686 191.263 62.5371C191.263 62.5371 191.475 62.5371 191.475 62.3245C191.687 62.112 191.793 62.112 192.005 62.0057C192.217 61.7931 192.323 61.7931 192.535 61.7931C193.172 61.5805 193.808 61.7931 194.338 62.112C194.656 62.3245 194.868 62.4308 194.868 62.4308C194.762 62.6434 194.762 62.6434 194.762 62.856Z" fill="white"/>
<path d="M138.464 56.4785L128.922 72.2099H130.937L133.375 68.0645H140.797L141.645 72.2099H143.659L140.691 56.4785H138.464ZM140.479 66.2575H134.329L139.101 58.2855L140.479 66.2575Z" fill="white"/>
<path d="M144.615 56.4785L144.085 58.1792H149.492L146.417 72.1036H148.22L151.4 58.1792H156.489L157.02 56.4785H144.615Z" fill="white"/>
<path d="M173.345 56.3701H168.15L161.471 63.4918L164.757 72.1015H170.058L166.03 63.4918L173.345 56.3701Z" fill="white"/>
<path d="M158.291 56.3701L154.793 72.1015H159.246L162.744 56.3701H158.291Z" fill="white"/>
<path d="M210.667 59.4512C210.454 59.4512 210.454 59.4512 210.348 59.4512C209.182 59.4512 207.38 59.7701 206.002 61.8959L205.79 62.2148L206.32 59.4512H201.973L199.322 71.8875H203.775L204.941 66.5728C205.471 64.2344 206.744 63.0651 208.864 63.0651C209.076 63.0651 209.712 63.0651 209.818 63.0651L210.667 59.4512Z" fill="white"/>
<path d="M242.047 72.2096L239.715 59.667H244.38L245.016 68.2768L249.363 59.667H253.816C253.498 60.3048 251.059 64.4502 249.151 67.639C246.712 71.997 243.744 76.5676 241.729 78.0558L239.397 75.611C240.457 74.7607 241.517 73.3788 242.047 72.2096Z" fill="white"/>
<path d="M216.284 61.4718L216.602 59.6648H212.256L209.605 72.1012H214.058L215.542 64.9795C215.86 63.2788 216.815 62.3221 218.193 62.3221C218.723 62.3221 219.147 62.5347 219.359 62.8536C219.889 63.4914 219.677 64.5543 219.571 65.1921L218.087 72.3137H222.54L224.024 64.6606C224.236 63.4914 224.66 61.6844 223.706 60.5152C223.07 59.8774 222.01 59.5585 220.737 59.5585C218.405 59.3459 217.133 60.5152 216.284 61.4718Z" fill="white"/>
<path d="M174.83 66.7889H183.63C184.16 64.4504 184.16 63.2812 183.842 62.3245C183.312 60.1987 181.722 59.1357 178.753 59.1357C176.633 59.1357 174.618 59.7735 173.346 60.9427C172.074 62.112 171.226 63.7064 170.908 65.9385C170.59 67.9581 170.696 69.5525 171.756 70.6154C172.604 71.7847 174.088 72.3161 176.209 72.3161C179.389 72.3161 181.828 71.1469 182.994 69.021L179.708 68.0644C179.071 69.2336 178.011 69.7651 176.951 69.7651C176.315 69.7651 175.785 69.5525 175.467 69.1273C174.512 68.5959 174.618 67.3203 174.83 66.7889ZM175.361 64.1315C175.891 62.4308 176.845 61.4742 178.117 61.4742C178.753 61.4742 179.071 61.6868 179.389 62.0057C179.92 62.6434 179.708 63.7064 179.708 64.1315H175.361Z" fill="white"/>
<path d="M229.643 66.7889H238.443C238.973 64.4504 238.973 63.2812 238.655 62.3245C238.125 60.1987 236.534 59.1357 233.566 59.1357C231.445 59.1357 229.431 59.7735 228.158 60.9427C226.886 62.112 226.038 63.7064 225.72 65.9385C225.402 67.9581 225.508 69.5525 226.568 70.6154C227.416 71.7847 228.901 72.3161 231.021 72.3161C234.202 72.3161 236.64 71.1469 237.806 69.021L234.52 68.0644C233.884 69.2336 232.823 69.7651 231.763 69.7651C231.127 69.7651 230.597 69.5525 230.279 69.1273C229.219 68.5959 229.537 67.3203 229.643 66.7889ZM230.173 64.1315C230.703 62.4308 231.657 61.4742 232.929 61.4742C233.566 61.4742 233.884 61.6868 234.202 62.0057C234.732 62.6434 234.52 63.7064 234.52 64.1315H230.173Z" fill="white"/>
<path d="M109.203 70.0828C109.203 68.2758 110.899 67.7443 112.702 67.7443H114.398V67.1066C114.398 65.6184 113.868 65.087 112.383 65.087C111.217 65.087 110.369 65.6184 110.263 66.7877H109.415C109.627 65.087 110.899 64.4492 112.383 64.4492C114.08 64.4492 115.034 65.2996 115.034 67.1066V72.1023H114.186V70.9331C113.656 71.5709 112.914 72.2086 111.747 72.2086C110.157 72.2086 109.203 71.5709 109.203 70.0828ZM114.186 69.7639V68.4884H112.702C111.005 68.4884 109.945 68.8072 109.945 70.1891C109.945 71.1457 110.581 71.6772 111.747 71.6772C113.232 71.5709 114.186 70.7205 114.186 69.7639Z" fill="white"/>
<path d="M117.26 64.6628H118.109V66.1509C118.427 65.3005 119.381 64.4502 120.759 64.4502C122.455 64.4502 123.41 65.3005 123.41 67.4264V72.1033H122.562V67.4264C122.562 65.7257 121.713 65.088 120.441 65.088C119.169 65.088 118.003 65.9383 118.003 67.5327V72.2096H117.154V64.5565H117.26V64.6628Z" fill="white"/>
<path d="M257.21 68.4905C257.21 66.0457 258.906 64.5576 260.815 64.5576C262.299 64.5576 263.783 65.408 263.995 67.0024H263.147C262.935 65.7268 261.981 65.1954 260.709 65.1954C259.012 65.1954 257.952 66.3646 257.952 68.3842V68.5968C257.952 70.6163 259.118 71.7856 260.709 71.7856C261.981 71.7856 263.041 71.1478 263.147 69.6597H263.783C263.571 71.3604 262.299 72.4233 260.603 72.4233C258.8 72.2107 257.21 70.7226 257.21 68.4905Z" fill="white"/>
<path d="M265.161 68.4905C265.161 66.152 266.858 64.5576 268.766 64.5576C270.781 64.5576 272.371 66.0457 272.371 68.3842V68.5968C272.371 70.9352 270.675 72.4233 268.766 72.4233C266.858 72.2107 265.161 70.6163 265.161 68.4905ZM271.841 68.4905C271.841 66.3646 270.568 65.1954 269.084 65.1954C267.388 65.1954 266.328 66.3646 266.328 68.3842V68.5968C266.328 70.6163 267.494 71.7856 269.084 71.7856C270.462 71.573 271.841 70.4037 271.841 68.4905Z" fill="white"/>
<path d="M274.279 64.6618H275.128V65.9373C275.446 65.087 276.4 64.4492 277.566 64.4492C278.732 64.4492 279.581 64.9807 279.899 66.1499C280.429 65.1933 281.383 64.4492 282.549 64.4492C284.033 64.4492 284.988 65.2996 284.988 67.4254V72.2086H284.139V67.4254C284.139 65.7247 283.503 65.087 282.337 65.087C281.171 65.087 280.005 65.9373 280.005 67.5317V72.2086H279.156V67.4254C279.156 65.7247 278.52 65.087 277.354 65.087C276.188 65.087 275.022 65.9373 275.022 67.5317V72.2086H274.173V64.6618H274.279Z" fill="white"/>
<path d="M287.532 64.6602H288.38V66.4671C288.91 65.5105 289.864 64.6602 291.136 64.6602C293.151 64.6602 294.635 66.1483 294.635 68.4867V68.6993C294.635 71.0378 293.151 72.5259 291.136 72.5259C289.652 72.5259 288.698 71.5692 288.38 70.7189V75.0769H287.532V64.6602ZM293.575 68.4867C293.575 66.3609 292.409 65.1916 290.924 65.1916C289.44 65.1916 288.168 66.3609 288.168 68.3804V68.593C288.168 70.6126 289.44 71.7818 290.924 71.7818C292.621 71.5692 293.575 70.4 293.575 68.4867Z" fill="white"/>
<path d="M295.803 70.0828C295.803 68.2758 297.499 67.7443 299.301 67.7443H300.998V67.1066C300.998 65.6184 300.468 65.087 298.983 65.087C297.817 65.087 296.969 65.6184 296.863 66.7877H296.227C296.439 65.087 297.711 64.4492 299.195 64.4492C300.892 64.4492 301.846 65.2996 301.846 67.1066V72.1023H300.998V70.9331C300.468 71.5709 299.725 72.2086 298.559 72.2086C296.757 72.2086 295.803 71.5709 295.803 70.0828ZM300.892 69.7639V68.4884H299.407C297.711 68.4884 296.651 68.8072 296.651 70.1891C296.651 71.1457 297.287 71.6772 298.453 71.6772C299.725 71.5709 300.892 70.7205 300.892 69.7639Z" fill="white"/>
<path d="M303.86 64.6618H304.708V66.1499C305.026 65.2996 305.981 64.4492 307.359 64.4492C309.055 64.4492 310.009 65.2996 310.009 67.4254V72.1023H309.373V67.4254C309.373 65.7247 308.525 65.087 307.253 65.087C305.981 65.087 304.814 65.9373 304.814 67.5317V72.2086H303.966V64.6618H303.86Z" fill="white"/>
<path d="M314.25 71.4667L311.281 64.5576H312.129L314.78 70.5101L317.218 64.5576H318.066L313.932 74.8681H313.083L314.25 71.4667Z" fill="white"/>
</svg>
