<svg width="246" height="44" viewBox="0 0 246 44" fill="none" xmlns="http://www.w3.org/2000/svg">
<path d="M37.9443 15.1928C36.774 18.3714 34.1519 20.8891 30.8335 22.0105C29.6187 22.419 28.3077 22.6492 26.9448 22.6492H19.8191C19.5228 22.6492 19.3228 22.3521 19.4562 22.0922L22.8783 15.4082C22.9449 15.2745 23.0856 15.1928 23.2412 15.1928H26.9448C28.6558 15.1928 30.8335 13.5218 30.8335 11.4646C30.8335 9.40002 29.0632 7.73644 26.9077 7.73644H21.2561C21.1005 7.73644 20.9598 7.81814 20.8931 7.95182L11.7009 25.813C11.5676 26.0729 11.7602 26.37 12.0639 26.37H18.2118C18.5673 26.37 18.7525 26.7859 18.4932 27.0309L1.50874 43.325C1.18283 43.637 0.656922 43.2731 0.864321 42.8794L7.23443 30.6626C7.36776 30.4026 7.17518 30.1056 6.87149 30.1056H0.405079C0.108795 30.1056 -0.0911964 29.8011 0.0421316 29.5486L15.1823 0.510295C15.2489 0.376615 15.3897 0.294922 15.5452 0.294922H26.9522C28.3151 0.294922 29.6261 0.517722 30.8409 0.933615C34.1519 2.05504 36.7814 4.57268 37.9517 7.7513C38.3813 8.91728 38.6184 10.1724 38.6184 11.4795C38.6184 12.7866 38.3739 14.0268 37.9443 15.1928Z" fill="white"/>
<path d="M65.0678 31.7864C62.8086 31.7864 61.0013 31.0883 59.6532 30.108V37.6609H54.0164V12.2246H58.5569L58.9199 13.8362C60.3272 12.6628 62.4012 11.623 64.9715 11.623C71.1342 11.623 75.0896 16.1385 75.0896 21.6936C75.097 27.2339 71.2898 31.7864 65.0678 31.7864ZM64.416 16.443C61.6087 16.443 59.3865 18.5298 59.3865 21.7085C59.3865 24.8202 61.6457 26.922 64.4382 26.922C67.2677 26.922 69.4528 24.8574 69.4528 21.7085C69.4454 18.5447 67.201 16.443 64.416 16.443Z" fill="white"/>
<path d="M87.1488 11.6162C93.3856 11.6162 97.704 16.1539 97.704 21.709C97.704 27.2865 93.4004 31.7796 87.1118 31.7796C80.9639 31.7796 76.6233 27.2642 76.6233 21.709C76.6307 16.1688 80.9342 11.6162 87.1488 11.6162ZM87.1859 26.9374C89.9413 26.9374 92.0894 24.8728 92.0894 21.6868C92.0894 18.575 89.9191 16.4732 87.1636 16.4732C84.4304 16.4732 82.2601 18.5601 82.2601 21.6868C82.2675 24.8357 84.4749 26.9374 87.1859 26.9374Z" fill="white"/>
<path d="M127.785 12.2295L121.148 31.1898H116.096L112.489 20.8221L108.911 31.1898H103.86L97.2598 12.2295H103.297L106.963 23.622H107.015L110.481 12.326H114.548L117.992 23.622H118.066L121.711 12.2295H127.785Z" fill="white"/>
<path d="M137.717 11.6162C143.969 11.6162 148.295 16.1539 148.295 21.7091C148.295 22.474 148.221 22.8453 148.147 23.2835H132.814C133.473 25.66 135.584 27.1602 137.754 27.1602C139.525 27.1602 140.888 26.2987 141.569 25.1476H147.658C146.561 28.4748 143.028 31.7871 137.717 31.7871C131.532 31.7871 127.229 27.2345 127.214 21.7165C127.214 16.1688 131.518 11.6162 137.717 11.6162ZM132.992 19.3548H142.295C141.599 17.4387 140.014 16.1019 137.754 16.1019C135.399 16.0945 133.725 17.4164 132.992 19.3548Z" fill="white"/>
<path d="M163.45 17.1459L161.079 17.1608C157.976 17.1608 156.139 18.9135 156.139 22.3743V31.1898H150.524V12.2295H155.05L155.487 14.0193C156.687 13.0167 158.442 12.2295 160.776 12.2295H163.457V17.1459H163.45Z" fill="white"/>
<path d="M174.974 12.0046C178.107 12.0046 180.611 13.3934 182.211 15.2946V5.43945H185.381V31.1803H182.625L182.388 28.1651C180.84 30.1554 178.211 31.715 175.018 31.715C169.241 31.715 165.078 27.3481 165.078 21.8598C165.093 16.3938 169.174 12.0046 174.974 12.0046ZM175.3 28.9374C179.203 28.9374 182.359 25.9593 182.359 21.8598C182.359 17.7974 179.188 14.7822 175.3 14.7822C171.381 14.7822 168.241 17.7826 168.241 21.8598C168.241 25.9519 171.396 28.9374 175.3 28.9374Z" fill="white"/>
<path d="M201.293 15.3553H199.248C195.456 15.3553 192.885 17.6205 192.885 21.9948V31.189H189.73V12.5332H192.337L192.663 15.4222C193.937 13.7586 196.13 12.5332 199.1 12.5332H201.285V15.3553H201.293Z" fill="white"/>
<path d="M211.84 12.0068C217.655 12.0068 222.018 16.396 222.018 21.862C222.018 27.3503 217.662 31.7172 211.84 31.7172C206.063 31.7172 201.722 27.3503 201.722 21.862C201.722 16.396 206.063 12.0068 211.84 12.0068ZM211.877 28.9397C215.759 28.9397 218.862 25.9616 218.862 21.862C218.862 17.7996 215.744 14.7844 211.877 14.7844C207.996 14.7844 204.892 17.7848 204.892 21.862C204.892 25.9393 208.011 28.9397 211.877 28.9397Z" fill="white"/>
<path d="M235.557 31.7168C232.424 31.7168 229.906 30.3429 228.32 28.4417V37.5616H225.165V12.5337H227.772L228.061 15.5118C229.609 13.5958 232.276 11.999 235.498 11.999C241.276 11.999 245.453 16.3659 245.453 21.8542C245.453 27.3128 241.357 31.7168 235.557 31.7168ZM235.224 14.7692C231.32 14.7692 228.165 17.7695 228.165 21.8616C228.165 25.924 231.335 28.9393 235.239 28.9393C239.157 28.9393 242.261 25.9389 242.261 21.8616C242.268 17.7695 239.127 14.7692 235.224 14.7692Z" fill="white"/>
</svg>
