<svg xmlns="http://www.w3.org/2000/svg" width="497" height="462" viewBox="0 0 497 462" fill="none"><circle cx="243" cy="231" r="231" fill="#F5F8FF"></circle><g filter="url(#filter0_dd_17817_41147)"><g clip-path="url(#clip0_17817_41147)"><path d="M459.534 96.8779H27.4661C25.5518 96.8779 24 98.4808 24 100.458V368.144C24 370.121 25.5518 371.724 27.4661 371.724H459.534C461.448 371.724 463 370.121 463 368.144V100.458C463 98.4808 461.448 96.8779 459.534 96.8779Z" fill="white"></path><path d="M463 82H24V96.8777H463V82Z" fill="#000C36"></path><path d="M39.6522 89.8249C39.6533 90.2898 39.5166 90.7445 39.2593 91.1316C39.002 91.5186 38.6358 91.8206 38.2069 91.9992C37.7781 92.1779 37.3059 92.2252 36.8501 92.1352C36.3943 92.0452 35.9755 91.8219 35.6466 91.4936C35.3177 91.1653 35.0936 90.7468 35.0026 90.291C34.9115 89.8351 34.9577 89.3625 35.1352 88.9329C35.3127 88.5033 35.6136 88.1361 35.9998 87.8777C36.386 87.6193 36.8401 87.4814 37.3046 87.4814C37.9249 87.4859 38.5186 87.734 38.9577 88.1724C39.3969 88.6107 39.6463 89.2042 39.6522 89.8249Z" fill="#F66058"></path><path d="M50.6092 89.8249C50.6103 90.29 50.4735 90.7449 50.2159 91.1321C49.9584 91.5193 49.5918 91.8213 49.1626 91.9998C48.7334 92.1783 48.261 92.2253 47.805 92.1348C47.3491 92.0443 46.9303 91.8205 46.6017 91.4916C46.273 91.1628 46.0493 90.7437 45.9589 90.2875C45.8685 89.8313 45.9155 89.3585 46.0938 88.929C46.2722 88.4995 46.574 88.1327 46.9609 87.875C47.3478 87.6173 47.8025 87.4804 48.2673 87.4815C48.5753 87.48 48.8805 87.5395 49.1653 87.6568C49.4501 87.774 49.7089 87.9466 49.9266 88.1645C50.1444 88.3824 50.3168 88.6414 50.434 88.9264C50.5512 89.2114 50.6107 89.5168 50.6092 89.8249Z" fill="#F9BD2E"></path><path d="M61.5624 89.8249C61.5635 90.2898 61.4268 90.7445 61.1695 91.1316C60.9122 91.5186 60.546 91.8206 60.1171 91.9992C59.6882 92.1779 59.216 92.2252 58.7603 92.1352C58.3045 92.0452 57.8857 91.8219 57.5568 91.4936C57.2279 91.1653 57.0038 90.7468 56.9127 90.291C56.8217 89.8351 56.8678 89.3625 57.0453 88.9329C57.2229 88.5033 57.5238 88.1361 57.9099 87.8777C58.2961 87.6193 58.7502 87.4814 59.2148 87.4814C59.8351 87.4859 60.4288 87.734 60.8679 88.1724C61.307 88.6107 61.5565 89.2042 61.5624 89.8249Z" fill="#3CC840"></path><path d="M463 96.8779H24V116.454H463V96.8779Z" fill="#EDF1F6"></path><path d="M437.178 103.576C437.178 102.472 436.282 101.576 435.178 101.576H75.3008C74.1962 101.576 73.3008 102.472 73.3008 103.576V110.539C73.3008 111.643 74.1962 112.539 75.3008 112.539H435.178C436.282 112.539 437.178 111.643 437.178 110.539V103.576Z" fill="white"></path><rect x="54.5195" y="101.575" width="10.9554" height="10.9625" rx="2" fill="white"></rect><path fill-rule="evenodd" clip-rule="evenodd" d="M58.6002 104.86C58.8244 104.655 59.1872 104.656 59.4106 104.862L61.3947 106.688C61.6177 106.894 61.6174 107.226 61.3939 107.431L59.4098 109.251C59.186 109.457 58.8232 109.457 58.5995 109.251C58.3757 109.046 58.3757 108.713 58.5995 108.508L60.1792 107.059L58.5987 105.604C58.3754 105.398 58.376 105.065 58.6002 104.86Z" fill="#B8C4D0"></path><rect x="50.6074" y="112.538" width="10.9554" height="10.9625" rx="2" transform="rotate(-180 50.6074 112.538)" fill="white"></rect><path fill-rule="evenodd" clip-rule="evenodd" d="M46.5267 109.253C46.3026 109.458 45.9398 109.457 45.7164 109.252L43.7323 107.425C43.5092 107.219 43.5095 106.887 43.733 106.682L45.7171 104.862C45.9409 104.657 46.3037 104.657 46.5275 104.862C46.7513 105.067 46.7513 105.4 46.5275 105.605L44.9478 107.054L46.5282 108.51C46.7516 108.715 46.7509 109.048 46.5267 109.253Z" fill="#B8C4D0"></path><path d="M451.163 104.14C450.986 104.14 450.813 104.087 450.667 103.989C450.52 103.891 450.406 103.751 450.339 103.588C450.271 103.425 450.254 103.246 450.289 103.073C450.324 102.9 450.41 102.741 450.536 102.617C450.661 102.493 450.821 102.409 450.994 102.375C451.167 102.342 451.347 102.361 451.51 102.43C451.672 102.498 451.811 102.614 451.908 102.761C452.005 102.908 452.056 103.081 452.054 103.258C452.052 103.492 451.957 103.717 451.79 103.882C451.623 104.047 451.398 104.14 451.163 104.14Z" fill="#9BACBC"></path><path d="M451.163 107.916C450.986 107.916 450.813 107.864 450.667 107.766C450.52 107.667 450.406 107.528 450.339 107.365C450.271 107.202 450.254 107.022 450.289 106.849C450.324 106.676 450.41 106.518 450.536 106.394C450.661 106.269 450.821 106.185 450.994 106.152C451.167 106.118 451.347 106.137 451.51 106.206C451.672 106.275 451.811 106.39 451.908 106.537C452.005 106.685 452.056 106.858 452.054 107.034C452.052 107.269 451.957 107.493 451.79 107.658C451.623 107.824 451.398 107.916 451.163 107.916Z" fill="#9BACBC"></path><path d="M451.163 111.719C450.986 111.719 450.814 111.667 450.668 111.569C450.521 111.471 450.407 111.332 450.339 111.169C450.272 111.007 450.254 110.828 450.289 110.655C450.323 110.482 450.408 110.324 450.533 110.199C450.657 110.075 450.816 109.99 450.989 109.956C451.162 109.921 451.341 109.939 451.504 110.006C451.667 110.074 451.806 110.188 451.904 110.334C452.002 110.481 452.054 110.653 452.054 110.829C452.054 111.065 451.96 111.291 451.793 111.458C451.626 111.625 451.399 111.719 451.163 111.719Z" fill="#9BACBC"></path><g filter="url(#filter1_dd_17817_41147)"><rect x="64" y="135" width="355" height="29" rx="14.5" fill="white"></rect></g><path d="M379 142V157" stroke="#9BACBC"></path></g></g><g filter="url(#filter2_dd_17817_41147)"><path d="M123.81 183H411C413.209 183 415 184.791 415 187V254.401C415 256.61 413.209 258.401 411 258.401H123.81C122.912 258.401 122.051 257.947 121.416 257.139C120.781 256.331 120.424 255.235 120.424 254.092V187.309C120.424 186.166 120.781 185.07 121.416 184.262C122.051 183.454 122.912 183 123.81 183Z" fill="white"></path></g><path d="M97.404 215.424V232H100.932V212.68H93.764V215.424H97.404Z" fill="#526373"></path><path d="M78 216L84.9282 225H71.0718L78 216Z" fill="#0BE597"></path><path d="M91.68 311.528L92.156 313.852H105.764V310.856H96.832L101.144 306.824C102.348 305.676 104.952 303.24 104.952 299.936C104.952 296.52 102.292 294.252 98.176 294.252C94.088 294.252 92.1 296.716 91.484 297.612L93.164 299.824C94.088 298.788 95.46 297.248 97.896 297.248C100.08 297.248 101.312 298.48 101.312 300.412C101.312 302.316 99.912 303.912 98.372 305.34L91.68 311.528Z" fill="#526373"></path><path d="M78 309.852L71.0718 300.852L84.9282 300.852L78 309.852Z" fill="#F50F32"></path><path d="M101.704 386.828V386.744C102.964 386.296 104.728 384.672 104.728 382.348C104.728 379.128 101.928 377.252 98.344 377.252C95.292 377.252 93.08 378.988 92.184 380.08L94.004 382.124C94.928 380.976 96.3 380.248 98.036 380.248C99.996 380.248 101.2 381.284 101.2 382.824C101.2 384.588 99.968 385.54 98.176 385.54H96.608V388.2H97.896C99.884 388.2 101.732 389.124 101.732 391.14C101.732 393.184 100.528 394.136 98.316 394.136C96.104 394.136 94.452 392.876 93.472 391.644L91.54 393.94C92.016 394.612 94.508 397.16 98.176 397.16C102.124 397.16 105.344 394.976 105.344 391.28C105.344 388.508 103.272 387.192 101.704 386.828Z" fill="#526373"></path><path d="M78 380.852L84.9282 389.852H71.0718L78 380.852Z" fill="#0BE597"></path><path d="M229.338 199.211C229.193 199.211 229.052 199.168 228.931 199.088C228.811 199.007 228.717 198.893 228.662 198.759C228.607 198.625 228.593 198.478 228.622 198.337C228.651 198.195 228.721 198.065 228.824 197.963C228.927 197.861 229.057 197.793 229.2 197.765C229.342 197.738 229.489 197.753 229.622 197.809C229.756 197.866 229.869 197.96 229.949 198.081C230.028 198.202 230.07 198.344 230.068 198.488C230.067 198.681 229.989 198.865 229.852 199C229.715 199.135 229.53 199.211 229.338 199.211Z" fill="#D2DCE4"></path><path d="M229.338 201.49C229.193 201.49 229.052 201.446 228.931 201.366C228.811 201.286 228.717 201.171 228.662 201.037C228.607 200.904 228.593 200.757 228.622 200.615C228.651 200.473 228.721 200.343 228.824 200.242C228.927 200.14 229.057 200.071 229.2 200.043C229.342 200.016 229.489 200.032 229.622 200.088C229.756 200.144 229.869 200.239 229.949 200.36C230.028 200.48 230.07 200.622 230.068 200.767C230.067 200.959 229.989 201.143 229.852 201.278C229.715 201.414 229.53 201.49 229.338 201.49Z" fill="#D2DCE4"></path><path d="M229.338 203.769C229.193 203.769 229.052 203.726 228.932 203.646C228.812 203.566 228.718 203.452 228.663 203.318C228.608 203.185 228.593 203.038 228.621 202.897C228.65 202.755 228.719 202.625 228.821 202.523C228.924 202.421 229.054 202.352 229.195 202.324C229.337 202.295 229.484 202.31 229.617 202.365C229.751 202.42 229.865 202.514 229.945 202.634C230.026 202.754 230.068 202.895 230.068 203.039C230.068 203.233 229.991 203.418 229.854 203.555C229.717 203.692 229.532 203.769 229.338 203.769Z" fill="#D2DCE4"></path><path opacity="0.7" fill-rule="evenodd" clip-rule="evenodd" d="M135.176 199.752C135.176 198.647 136.071 197.752 137.176 197.752H220.871C221.975 197.752 222.871 198.647 222.871 199.752V201.489C222.871 202.594 221.975 203.489 220.871 203.489H137.176C136.071 203.489 135.176 202.594 135.176 201.489V199.752Z" fill="#D2DCE4"></path><path fill-rule="evenodd" clip-rule="evenodd" d="M135.176 213.686C135.176 212.581 136.071 211.686 137.176 211.686H325.776C326.881 211.686 327.776 212.581 327.776 213.686V218.701C327.776 219.805 326.881 220.701 325.776 220.701H137.176C136.071 220.701 135.176 219.805 135.176 218.701V213.686Z" fill="#C6DBFF"></path><path opacity="0.7" fill-rule="evenodd" clip-rule="evenodd" d="M135.176 230.077C135.176 228.973 136.071 228.077 137.176 228.077H224.149C225.253 228.077 226.149 228.973 226.149 230.077V231.814C226.149 232.919 225.253 233.814 224.149 233.814H137.176C136.071 233.814 135.176 232.919 135.176 231.814V230.077Z" fill="#D2DCE4"></path><path opacity="0.7" fill-rule="evenodd" clip-rule="evenodd" d="M235.164 230.077C235.164 228.973 236.059 228.077 237.164 228.077H369.214C370.318 228.077 371.214 228.973 371.214 230.077V231.814C371.214 232.919 370.318 233.814 369.214 233.814H237.164C236.059 233.814 235.164 232.919 235.164 231.814V230.077Z" fill="#D2DCE4"></path><path opacity="0.7" fill-rule="evenodd" clip-rule="evenodd" d="M135.176 243.19C135.176 242.086 136.071 241.19 137.176 241.19H325.776C326.881 241.19 327.776 242.086 327.776 243.19V244.927C327.776 246.032 326.881 246.927 325.776 246.927H137.176C136.071 246.927 135.176 246.032 135.176 244.927V243.19Z" fill="#D2DCE4"></path><path opacity="0.7" fill-rule="evenodd" clip-rule="evenodd" d="M335.152 243.19C335.152 242.086 336.048 241.19 337.152 241.19L388.884 241.19C389.988 241.19 390.884 242.086 390.884 243.19L390.884 244.927C390.884 246.032 389.988 246.927 388.884 246.927L337.152 246.927C336.048 246.927 335.152 246.032 335.152 244.927L335.152 243.19Z" fill="#D2DCE4"></path><g filter="url(#filter3_dd_17817_41147)"><path d="M123.81 266C123.81 266 123.81 266 123.81 266H411C413.209 266 415 267.791 415 270V337.401C415 339.61 413.209 341.401 411 341.401H123.81C122.912 341.401 122.051 340.947 121.416 340.139C120.781 339.331 120.424 338.235 120.424 337.092V270.309C120.424 269.166 120.781 268.07 121.416 267.262C122.051 266.454 122.912 266 123.81 266C123.81 266 123.81 266 123.81 266Z" fill="white"></path></g><path d="M229.338 282.211C229.193 282.211 229.052 282.168 228.931 282.088C228.811 282.007 228.717 281.893 228.662 281.759C228.607 281.625 228.593 281.478 228.622 281.337C228.651 281.195 228.721 281.065 228.824 280.963C228.927 280.861 229.057 280.793 229.2 280.765C229.342 280.738 229.489 280.753 229.622 280.809C229.756 280.866 229.869 280.96 229.949 281.081C230.028 281.202 230.07 281.344 230.068 281.488C230.067 281.681 229.989 281.865 229.852 282C229.715 282.135 229.53 282.211 229.338 282.211Z" fill="#D2DCE4"></path><path d="M229.338 284.49C229.193 284.49 229.052 284.446 228.931 284.366C228.811 284.286 228.717 284.171 228.662 284.037C228.607 283.904 228.593 283.757 228.622 283.615C228.651 283.473 228.721 283.343 228.824 283.242C228.927 283.14 229.057 283.071 229.2 283.043C229.342 283.016 229.489 283.032 229.622 283.088C229.756 283.144 229.869 283.239 229.949 283.36C230.028 283.48 230.07 283.622 230.068 283.767C230.067 283.959 229.989 284.143 229.852 284.278C229.715 284.414 229.53 284.49 229.338 284.49Z" fill="#D2DCE4"></path><path d="M229.338 286.769C229.193 286.769 229.052 286.726 228.932 286.646C228.812 286.566 228.718 286.452 228.663 286.318C228.608 286.185 228.593 286.038 228.621 285.897C228.65 285.755 228.719 285.625 228.821 285.523C228.924 285.421 229.054 285.352 229.195 285.324C229.337 285.295 229.484 285.31 229.617 285.365C229.751 285.42 229.865 285.514 229.945 285.634C230.026 285.754 230.068 285.895 230.068 286.039C230.068 286.233 229.991 286.418 229.854 286.555C229.717 286.692 229.532 286.769 229.338 286.769Z" fill="#D2DCE4"></path><path opacity="0.7" fill-rule="evenodd" clip-rule="evenodd" d="M135.176 282.752C135.176 281.647 136.071 280.752 137.176 280.752H220.871C221.975 280.752 222.871 281.647 222.871 282.752V284.489C222.871 285.594 221.975 286.489 220.871 286.489H137.176C136.071 286.489 135.176 285.594 135.176 284.489V282.752Z" fill="#D2DCE4"></path><path fill-rule="evenodd" clip-rule="evenodd" d="M135.176 296.686C135.176 295.581 136.071 294.686 137.176 294.686H325.776C326.881 294.686 327.776 295.581 327.776 296.686V301.701C327.776 302.805 326.881 303.701 325.776 303.701H137.176C136.071 303.701 135.176 302.805 135.176 301.701V296.686Z" fill="#C6DBFF"></path><path opacity="0.7" fill-rule="evenodd" clip-rule="evenodd" d="M135.176 313.077C135.176 311.973 136.071 311.077 137.176 311.077H224.149C225.253 311.077 226.149 311.973 226.149 313.077V314.814C226.149 315.919 225.253 316.814 224.149 316.814H137.176C136.071 316.814 135.176 315.919 135.176 314.814V313.077Z" fill="#D2DCE4"></path><path opacity="0.7" fill-rule="evenodd" clip-rule="evenodd" d="M235.164 313.077C235.164 311.973 236.059 311.077 237.164 311.077H369.214C370.318 311.077 371.214 311.973 371.214 313.077V314.814C371.214 315.919 370.318 316.814 369.214 316.814H237.164C236.059 316.814 235.164 315.919 235.164 314.814V313.077Z" fill="#D2DCE4"></path><path opacity="0.7" fill-rule="evenodd" clip-rule="evenodd" d="M135.176 326.19C135.176 325.086 136.071 324.19 137.176 324.19H325.776C326.881 324.19 327.776 325.086 327.776 326.19V327.927C327.776 329.032 326.881 329.927 325.776 329.927H137.176C136.071 329.927 135.176 329.032 135.176 327.927V326.19Z" fill="#D2DCE4"></path><path opacity="0.7" fill-rule="evenodd" clip-rule="evenodd" d="M335.152 326.19C335.152 325.086 336.048 324.19 337.152 324.19L388.884 324.19C389.988 324.19 390.884 325.086 390.884 326.19L390.884 327.927C390.884 329.032 389.988 329.927 388.884 329.927L337.152 329.927C336.048 329.927 335.152 329.032 335.152 327.927L335.152 326.19Z" fill="#D2DCE4"></path><g filter="url(#filter4_dd_17817_41147)"><path d="M123.81 349C123.81 349 123.81 349 123.81 349H411C413.209 349 415 350.791 415 353V420.401C415 422.61 413.209 424.401 411 424.401H123.81C122.912 424.401 122.051 423.947 121.416 423.139C120.781 422.331 120.424 421.235 120.424 420.092V353.309C120.424 352.166 120.781 351.07 121.416 350.262C122.051 349.454 122.912 349 123.81 349C123.81 349 123.81 349 123.81 349Z" fill="white"></path></g><path d="M229.338 365.211C229.193 365.211 229.052 365.168 228.931 365.088C228.811 365.007 228.717 364.893 228.662 364.759C228.607 364.625 228.593 364.478 228.622 364.337C228.651 364.195 228.721 364.065 228.824 363.963C228.927 363.861 229.057 363.793 229.2 363.765C229.342 363.738 229.489 363.753 229.622 363.809C229.756 363.866 229.869 363.96 229.949 364.081C230.028 364.202 230.07 364.344 230.068 364.488C230.067 364.681 229.989 364.865 229.852 365C229.715 365.135 229.53 365.211 229.338 365.211Z" fill="#D2DCE4"></path><path d="M229.338 367.49C229.193 367.49 229.052 367.446 228.931 367.366C228.811 367.286 228.717 367.171 228.662 367.037C228.607 366.904 228.593 366.757 228.622 366.615C228.651 366.473 228.721 366.343 228.824 366.242C228.927 366.14 229.057 366.071 229.2 366.043C229.342 366.016 229.489 366.032 229.622 366.088C229.756 366.144 229.869 366.239 229.949 366.36C230.028 366.48 230.07 366.622 230.068 366.767C230.067 366.959 229.989 367.143 229.852 367.278C229.715 367.414 229.53 367.49 229.338 367.49Z" fill="#D2DCE4"></path><path d="M229.338 369.769C229.193 369.769 229.052 369.726 228.932 369.646C228.812 369.566 228.718 369.452 228.663 369.318C228.608 369.185 228.593 369.038 228.621 368.897C228.65 368.755 228.719 368.625 228.821 368.523C228.924 368.421 229.054 368.352 229.195 368.324C229.337 368.295 229.484 368.31 229.617 368.365C229.751 368.42 229.865 368.514 229.945 368.634C230.026 368.754 230.068 368.895 230.068 369.039C230.068 369.233 229.991 369.418 229.854 369.555C229.717 369.692 229.532 369.769 229.338 369.769Z" fill="#D2DCE4"></path><path opacity="0.7" fill-rule="evenodd" clip-rule="evenodd" d="M135.176 365.752C135.176 364.647 136.071 363.752 137.176 363.752H220.871C221.975 363.752 222.871 364.647 222.871 365.752V367.489C222.871 368.594 221.975 369.489 220.871 369.489H137.176C136.071 369.489 135.176 368.594 135.176 367.489V365.752Z" fill="#D2DCE4"></path><path fill-rule="evenodd" clip-rule="evenodd" d="M135.176 379.686C135.176 378.581 136.071 377.686 137.176 377.686H325.776C326.881 377.686 327.776 378.581 327.776 379.686V384.701C327.776 385.805 326.881 386.701 325.776 386.701H137.176C136.071 386.701 135.176 385.805 135.176 384.701V379.686Z" fill="#C6DBFF"></path><path opacity="0.7" fill-rule="evenodd" clip-rule="evenodd" d="M135.176 396.077C135.176 394.973 136.071 394.077 137.176 394.077H224.149C225.253 394.077 226.149 394.973 226.149 396.077V397.814C226.149 398.919 225.253 399.814 224.149 399.814H137.176C136.071 399.814 135.176 398.919 135.176 397.814V396.077Z" fill="#D2DCE4"></path><path opacity="0.7" fill-rule="evenodd" clip-rule="evenodd" d="M235.164 396.077C235.164 394.973 236.059 394.077 237.164 394.077H369.214C370.318 394.077 371.214 394.973 371.214 396.077V397.814C371.214 398.919 370.318 399.814 369.214 399.814H237.164C236.059 399.814 235.164 398.919 235.164 397.814V396.077Z" fill="#D2DCE4"></path><path opacity="0.7" fill-rule="evenodd" clip-rule="evenodd" d="M135.176 409.19C135.176 408.086 136.071 407.19 137.176 407.19H325.776C326.881 407.19 327.776 408.086 327.776 409.19V410.927C327.776 412.032 326.881 412.927 325.776 412.927H137.176C136.071 412.927 135.176 412.032 135.176 410.927V409.19Z" fill="#D2DCE4"></path><path opacity="0.7" fill-rule="evenodd" clip-rule="evenodd" d="M335.152 409.19C335.152 408.086 336.048 407.19 337.152 407.19L388.884 407.19C389.988 407.19 390.884 408.086 390.884 409.19L390.884 410.927C390.884 412.032 389.988 412.927 388.884 412.927L337.152 412.927C336.048 412.927 335.152 412.032 335.152 410.927L335.152 409.19Z" fill="#D2DCE4"></path><path d="M401.216 150.564L406.615 155.679L404.985 157.223L399.587 152.107L400.605 151.602L400.666 152.384C399.394 153.426 397.764 153.993 396.082 153.975C395.149 153.992 394.221 153.827 393.358 153.491C392.494 153.155 391.712 152.655 391.061 152.021C390.394 151.408 389.868 150.672 389.514 149.858C389.16 149.045 388.985 148.171 389.001 147.291C388.986 146.411 389.161 145.538 389.515 144.725C389.87 143.911 390.397 143.175 391.063 142.562C391.711 141.931 392.487 141.432 393.346 141.096C394.205 140.76 395.127 140.594 396.056 140.608C396.984 140.594 397.907 140.76 398.765 141.096C399.624 141.432 400.401 141.931 401.048 142.562C401.716 143.179 402.244 143.92 402.599 144.738C402.954 145.556 403.128 146.435 403.11 147.319C403.129 148.912 402.531 150.457 401.43 151.661L400.972 151.107L401.216 150.564ZM392.617 150.598C393.067 151.035 393.606 151.381 394.202 151.613C394.797 151.846 395.437 151.96 396.081 151.949C396.724 151.952 397.361 151.834 397.956 151.602C398.55 151.37 399.09 151.028 399.545 150.598C400 150.167 400.36 149.655 400.605 149.092C400.85 148.529 400.974 147.926 400.972 147.317C400.975 146.707 400.85 146.104 400.605 145.54C400.36 144.977 400 144.465 399.546 144.035C399.091 143.604 398.551 143.263 397.956 143.031C397.362 142.799 396.724 142.681 396.081 142.684C395.438 142.681 394.801 142.799 394.206 143.031C393.612 143.262 393.071 143.604 392.617 144.034C392.162 144.465 391.802 144.977 391.557 145.54C391.312 146.104 391.188 146.707 391.191 147.317C391.179 147.927 391.3 148.533 391.545 149.097C391.791 149.661 392.155 150.172 392.617 150.598Z" fill="#3D7FFC"></path><defs><filter id="filter0_dd_17817_41147" x="0" y="58" width="497" height="313.214" filterUnits="userSpaceOnUse" color-interpolation-filters="sRGB"><feFlood flood-opacity="0" result="BackgroundImageFix"></feFlood><feColorMatrix in="SourceAlpha" type="matrix" values="0 0 0 0 0 0 0 0 0 0 0 0 0 0 0 0 0 0 127 0" result="hardAlpha"></feColorMatrix><feOffset dx="5" dy="5"></feOffset><feGaussianBlur stdDeviation="14.5"></feGaussianBlur><feColorMatrix type="matrix" values="0 0 0 0 0 0 0 0 0 0.296699 0 0 0 0 0.858629 0 0 0 0.14 0"></feColorMatrix><feBlend mode="normal" in2="BackgroundImageFix" result="effect1_dropShadow_17817_41147"></feBlend><feColorMatrix in="SourceAlpha" type="matrix" values="0 0 0 0 0 0 0 0 0 0 0 0 0 0 0 0 0 0 127 0" result="hardAlpha"></feColorMatrix><feOffset></feOffset><feGaussianBlur stdDeviation="3.5"></feGaussianBlur><feComposite in2="hardAlpha" operator="out"></feComposite><feColorMatrix type="matrix" values="0 0 0 0 0.0354167 0 0 0 0 0.105426 0 0 0 0 0.2125 0 0 0 0.09 0"></feColorMatrix><feBlend mode="normal" in2="effect1_dropShadow_17817_41147" result="effect2_dropShadow_17817_41147"></feBlend><feBlend mode="normal" in="SourceGraphic" in2="effect2_dropShadow_17817_41147" result="shape"></feBlend></filter><filter id="filter1_dd_17817_41147" x="52" y="125" width="379" height="53" filterUnits="userSpaceOnUse" color-interpolation-filters="sRGB"><feFlood flood-opacity="0" result="BackgroundImageFix"></feFlood><feColorMatrix in="SourceAlpha" type="matrix" values="0 0 0 0 0 0 0 0 0 0 0 0 0 0 0 0 0 0 127 0" result="hardAlpha"></feColorMatrix><feOffset dy="4"></feOffset><feGaussianBlur stdDeviation="5"></feGaussianBlur><feColorMatrix type="matrix" values="0 0 0 0 0.607843 0 0 0 0 0.67451 0 0 0 0 0.737255 0 0 0 0.35 0"></feColorMatrix><feBlend mode="normal" in2="BackgroundImageFix" result="effect1_dropShadow_17817_41147"></feBlend><feColorMatrix in="SourceAlpha" type="matrix" values="0 0 0 0 0 0 0 0 0 0 0 0 0 0 0 0 0 0 127 0" result="hardAlpha"></feColorMatrix><feOffset dy="2"></feOffset><feGaussianBlur stdDeviation="6"></feGaussianBlur><feColorMatrix type="matrix" values="0 0 0 0 0.89625 0 0 0 0 0.930414 0 0 0 0 0.995833 0 0 0 1 0"></feColorMatrix><feBlend mode="normal" in2="effect1_dropShadow_17817_41147" result="effect2_dropShadow_17817_41147"></feBlend><feBlend mode="normal" in="SourceGraphic" in2="effect2_dropShadow_17817_41147" result="shape"></feBlend></filter><filter id="filter2_dd_17817_41147" x="108.424" y="173" width="318.576" height="99.4014" filterUnits="userSpaceOnUse" color-interpolation-filters="sRGB"><feFlood flood-opacity="0" result="BackgroundImageFix"></feFlood><feColorMatrix in="SourceAlpha" type="matrix" values="0 0 0 0 0 0 0 0 0 0 0 0 0 0 0 0 0 0 127 0" result="hardAlpha"></feColorMatrix><feOffset dy="4"></feOffset><feGaussianBlur stdDeviation="5"></feGaussianBlur><feColorMatrix type="matrix" values="0 0 0 0 0.607843 0 0 0 0 0.67451 0 0 0 0 0.737255 0 0 0 0.35 0"></feColorMatrix><feBlend mode="normal" in2="BackgroundImageFix" result="effect1_dropShadow_17817_41147"></feBlend><feColorMatrix in="SourceAlpha" type="matrix" values="0 0 0 0 0 0 0 0 0 0 0 0 0 0 0 0 0 0 127 0" result="hardAlpha"></feColorMatrix><feOffset dy="2"></feOffset><feGaussianBlur stdDeviation="6"></feGaussianBlur><feColorMatrix type="matrix" values="0 0 0 0 0.89625 0 0 0 0 0.930414 0 0 0 0 0.995833 0 0 0 1 0"></feColorMatrix><feBlend mode="normal" in2="effect1_dropShadow_17817_41147" result="effect2_dropShadow_17817_41147"></feBlend><feBlend mode="normal" in="SourceGraphic" in2="effect2_dropShadow_17817_41147" result="shape"></feBlend></filter><filter id="filter3_dd_17817_41147" x="108.424" y="256" width="318.576" height="99.4014" filterUnits="userSpaceOnUse" color-interpolation-filters="sRGB"><feFlood flood-opacity="0" result="BackgroundImageFix"></feFlood><feColorMatrix in="SourceAlpha" type="matrix" values="0 0 0 0 0 0 0 0 0 0 0 0 0 0 0 0 0 0 127 0" result="hardAlpha"></feColorMatrix><feOffset dy="4"></feOffset><feGaussianBlur stdDeviation="5"></feGaussianBlur><feColorMatrix type="matrix" values="0 0 0 0 0.607843 0 0 0 0 0.67451 0 0 0 0 0.737255 0 0 0 0.35 0"></feColorMatrix><feBlend mode="normal" in2="BackgroundImageFix" result="effect1_dropShadow_17817_41147"></feBlend><feColorMatrix in="SourceAlpha" type="matrix" values="0 0 0 0 0 0 0 0 0 0 0 0 0 0 0 0 0 0 127 0" result="hardAlpha"></feColorMatrix><feOffset dy="2"></feOffset><feGaussianBlur stdDeviation="6"></feGaussianBlur><feColorMatrix type="matrix" values="0 0 0 0 0.89625 0 0 0 0 0.930414 0 0 0 0 0.995833 0 0 0 1 0"></feColorMatrix><feBlend mode="normal" in2="effect1_dropShadow_17817_41147" result="effect2_dropShadow_17817_41147"></feBlend><feBlend mode="normal" in="SourceGraphic" in2="effect2_dropShadow_17817_41147" result="shape"></feBlend></filter><filter id="filter4_dd_17817_41147" x="108.424" y="339" width="318.576" height="99.4014" filterUnits="userSpaceOnUse" color-interpolation-filters="sRGB"><feFlood flood-opacity="0" result="BackgroundImageFix"></feFlood><feColorMatrix in="SourceAlpha" type="matrix" values="0 0 0 0 0 0 0 0 0 0 0 0 0 0 0 0 0 0 127 0" result="hardAlpha"></feColorMatrix><feOffset dy="4"></feOffset><feGaussianBlur stdDeviation="5"></feGaussianBlur><feColorMatrix type="matrix" values="0 0 0 0 0.607843 0 0 0 0 0.67451 0 0 0 0 0.737255 0 0 0 0.35 0"></feColorMatrix><feBlend mode="normal" in2="BackgroundImageFix" result="effect1_dropShadow_17817_41147"></feBlend><feColorMatrix in="SourceAlpha" type="matrix" values="0 0 0 0 0 0 0 0 0 0 0 0 0 0 0 0 0 0 127 0" result="hardAlpha"></feColorMatrix><feOffset dy="2"></feOffset><feGaussianBlur stdDeviation="6"></feGaussianBlur><feColorMatrix type="matrix" values="0 0 0 0 0.89625 0 0 0 0 0.930414 0 0 0 0 0.995833 0 0 0 1 0"></feColorMatrix><feBlend mode="normal" in2="effect1_dropShadow_17817_41147" result="effect2_dropShadow_17817_41147"></feBlend><feBlend mode="normal" in="SourceGraphic" in2="effect2_dropShadow_17817_41147" result="shape"></feBlend></filter><clipPath id="clip0_17817_41147"><rect x="24" y="82" width="439" height="255.214" rx="10" fill="white"></rect></clipPath></defs></svg>