<svg xmlns="http://www.w3.org/2000/svg" width="497" height="462" viewBox="0 0 497 462" fill="none"><circle cx="243" cy="231" r="231" fill="#F5F8FF"></circle><g filter="url(#filter0_dd_16759_46366)"><g clip-path="url(#clip0_16759_46366)"><path d="M459.534 118.271H27.4663C25.5521 118.271 24.0002 119.873 24.0002 121.851V389.537C24.0002 391.514 25.5521 393.117 27.4663 393.117H459.534C461.448 393.117 463 391.514 463 389.537V121.851C463 119.873 461.448 118.271 459.534 118.271Z" fill="white"></path><path d="M463 103.393H24V118.27H463V103.393Z" fill="#000C36"></path><path d="M39.6522 111.217C39.6533 111.682 39.5166 112.137 39.2593 112.524C39.002 112.911 38.6358 113.213 38.2069 113.392C37.7781 113.57 37.3059 113.618 36.8501 113.528C36.3943 113.438 35.9755 113.215 35.6466 112.886C35.3177 112.558 35.0936 112.139 35.0026 111.684C34.9115 111.228 34.9577 110.755 35.1352 110.326C35.3127 109.896 35.6136 109.529 35.9998 109.27C36.386 109.012 36.8401 108.874 37.3046 108.874C37.9249 108.878 38.5186 109.127 38.9577 109.565C39.3969 110.003 39.6463 110.597 39.6522 111.217Z" fill="#F66058"></path><path d="M50.609 111.218C50.6101 111.683 50.4732 112.138 50.2157 112.525C49.9582 112.912 49.5916 113.214 49.1624 113.392C48.7332 113.571 48.2607 113.618 47.8048 113.527C47.3489 113.437 46.9301 113.213 46.6014 112.884C46.2728 112.555 46.0491 112.136 45.9587 111.68C45.8683 111.224 45.9152 110.751 46.0936 110.322C46.272 109.892 46.5738 109.525 46.9607 109.268C47.3476 109.01 47.8023 108.873 48.2671 108.874C48.575 108.873 48.8802 108.932 49.165 109.049C49.4499 109.167 49.7086 109.339 49.9264 109.557C50.1442 109.775 50.3166 110.034 50.4338 110.319C50.5509 110.604 50.6105 110.909 50.609 111.218Z" fill="#F9BD2E"></path><path d="M61.5631 111.217C61.5642 111.682 61.4275 112.137 61.1702 112.524C60.9129 112.911 60.5467 113.213 60.1178 113.392C59.689 113.57 59.2168 113.618 58.761 113.528C58.3052 113.438 57.8864 113.215 57.5575 112.886C57.2286 112.558 57.0045 112.139 56.9134 111.684C56.8224 111.228 56.8686 110.755 57.0461 110.326C57.2236 109.896 57.5245 109.529 57.9107 109.27C58.2969 109.012 58.751 108.874 59.2155 108.874C59.8358 108.878 60.4295 109.127 60.8686 109.565C61.3078 110.003 61.5572 110.597 61.5631 111.217Z" fill="#3CC840"></path><path d="M463 118.271H24.0002V137.846H463V118.271Z" fill="#EDF1F6"></path><path d="M437.178 124.969C437.178 123.864 436.283 122.969 435.178 122.969H75.3013C74.1967 122.969 73.3013 123.864 73.3013 124.969V131.931C73.3013 133.036 74.1967 133.931 75.3013 133.931H435.178C436.283 133.931 437.178 133.036 437.178 131.931V124.969Z" fill="white"></path><rect x="54.5193" y="122.968" width="10.9554" height="10.9625" rx="2" fill="white"></rect><path fill-rule="evenodd" clip-rule="evenodd" d="M58.6005 126.253C58.8246 126.048 59.1874 126.049 59.4108 126.254L61.3949 128.081C61.618 128.286 61.6177 128.619 61.3942 128.824L59.4101 130.644C59.1863 130.849 58.8235 130.849 58.5997 130.644C58.3759 130.439 58.3759 130.106 58.5997 129.901L60.1794 128.451L58.599 126.996C58.3756 126.791 58.3763 126.458 58.6005 126.253Z" fill="#B8C4D0"></path><rect x="50.6067" y="133.931" width="10.9554" height="10.9625" rx="2" transform="rotate(-180 50.6067 133.931)" fill="white"></rect><path fill-rule="evenodd" clip-rule="evenodd" d="M46.5255 130.646C46.3013 130.85 45.9385 130.85 45.7152 130.644L43.731 128.817C43.508 128.612 43.5083 128.28 43.7318 128.075L45.7159 126.255C45.9397 126.049 46.3025 126.049 46.5263 126.255C46.75 126.46 46.75 126.793 46.5263 126.998L44.9465 128.447L46.527 129.902C46.7504 130.108 46.7497 130.441 46.5255 130.646Z" fill="#B8C4D0"></path><path d="M451.163 125.532C450.986 125.532 450.814 125.48 450.667 125.382C450.52 125.284 450.406 125.144 450.339 124.981C450.272 124.818 450.254 124.638 450.289 124.465C450.325 124.292 450.41 124.134 450.536 124.01C450.661 123.886 450.821 123.801 450.994 123.768C451.168 123.735 451.347 123.753 451.51 123.822C451.673 123.891 451.811 124.006 451.908 124.154C452.005 124.301 452.056 124.474 452.054 124.65C452.052 124.885 451.957 125.109 451.79 125.275C451.623 125.44 451.398 125.532 451.163 125.532Z" fill="#9BACBC"></path><path d="M451.163 129.309C450.986 129.309 450.814 129.256 450.667 129.158C450.52 129.06 450.406 128.92 450.339 128.757C450.272 128.594 450.254 128.415 450.289 128.242C450.325 128.069 450.41 127.91 450.536 127.786C450.661 127.662 450.821 127.578 450.994 127.544C451.168 127.511 451.347 127.53 451.51 127.599C451.673 127.667 451.811 127.783 451.908 127.93C452.005 128.078 452.056 128.25 452.054 128.427C452.052 128.662 451.957 128.886 451.79 129.051C451.623 129.216 451.398 129.309 451.163 129.309Z" fill="#9BACBC"></path><path d="M451.163 133.111C450.987 133.111 450.814 133.059 450.668 132.961C450.521 132.864 450.407 132.725 450.34 132.562C450.272 132.399 450.254 132.22 450.289 132.048C450.323 131.875 450.408 131.716 450.533 131.592C450.657 131.467 450.816 131.383 450.989 131.348C451.162 131.314 451.341 131.331 451.504 131.399C451.667 131.466 451.806 131.58 451.904 131.727C452.002 131.873 452.054 132.045 452.054 132.221C452.054 132.457 451.96 132.684 451.793 132.851C451.626 133.018 451.399 133.111 451.163 133.111Z" fill="#9BACBC"></path><rect x="185" y="153" width="110" height="106" rx="3" fill="#CEFAEA"></rect><rect x="69" y="268" width="226" height="74" rx="3" fill="#CEFAEA"></rect><rect x="309" y="153" width="109" height="189" rx="3" fill="#3D7FFC"></rect><path d="M343.873 211.293H339.142L335.436 218.621L331.731 211.293H327L333.308 222.245V229.68H337.565V222.245L343.873 211.293Z" fill="white"></path><path d="M362.957 220.513C362.957 214.571 358.726 211 353.338 211C347.95 211 343.719 214.571 343.719 220.513C343.719 226.456 347.95 230 353.338 230C358.726 230 362.957 226.456 362.957 220.513ZM358.647 220.407C358.647 223.924 356.36 226.163 353.338 226.163C350.316 226.163 348.029 223.924 348.029 220.407C348.029 216.889 350.316 214.677 353.338 214.677C356.36 214.677 358.647 216.916 358.647 220.407Z" fill="white"></path><path d="M380.936 222.006V211.293H376.652V222.006C376.652 223.311 376.547 224.324 375.942 225.07C375.364 225.763 374.523 226.216 373.34 226.216C372.158 226.216 371.317 225.763 370.739 225.07C370.134 224.324 370.029 223.311 370.029 222.006V211.293H365.745V222.006C365.745 224.59 366.192 226.376 367.453 227.788C368.741 229.174 370.686 229.973 373.34 229.973C375.969 229.973 377.94 229.174 379.201 227.788C380.489 226.376 380.936 224.59 380.936 222.006Z" fill="white"></path><path d="M399 229.68L394.401 222.086C395.741 221.659 397.949 220.3 397.949 216.809C397.949 214.971 397.16 213.505 395.951 212.599C394.769 211.719 393.192 211.293 391.168 211.293H384.65V229.68H388.908V222.645H390.248L394.059 229.68H399ZM393.665 216.969C393.665 217.928 393.297 218.435 392.745 218.835C392.219 219.234 391.536 219.341 390.564 219.341H388.882V214.624H390.564C391.536 214.624 392.219 214.704 392.745 215.104C393.297 215.504 393.665 216.036 393.665 216.969Z" fill="white"></path><path d="M362.928 279L348.973 242H339.955L326 279H335.017L337.647 271.557H350.851L353.481 279H362.928ZM348.865 264.81H339.633L344.249 251.531L348.865 264.81Z" fill="white"></path><path d="M400 260.527C400 253.352 397.102 249.068 393.988 246.498C390.929 243.874 386.152 242.054 379.711 242.054H367.151V279H379.711C386.152 279 390.929 277.179 393.988 274.609C397.102 271.986 400 267.702 400 260.527ZM391.197 260.527C391.197 265.078 389.48 267.541 387.923 268.987C386.367 270.486 383.79 271.664 380.194 271.664H375.793V249.229H380.194C383.79 249.229 386.367 250.407 387.923 251.852C389.48 253.352 391.197 255.975 391.197 260.527Z" fill="white"></path><rect opacity="0.2" x="69" y="153" width="110" height="106.103" rx="3" fill="#0BE597"></rect></g></g><circle cx="437" cy="341" r="47.5" fill="#0BE597" stroke="white" stroke-width="3"></circle><path d="M418 344L431.382 355L456 327" stroke="white" stroke-width="8" stroke-linecap="square" stroke-linejoin="round"></path><defs><filter id="filter0_dd_16759_46366" x="0" y="79.3926" width="497" height="313.214" filterUnits="userSpaceOnUse" color-interpolation-filters="sRGB"><feFlood flood-opacity="0" result="BackgroundImageFix"></feFlood><feColorMatrix in="SourceAlpha" type="matrix" values="0 0 0 0 0 0 0 0 0 0 0 0 0 0 0 0 0 0 127 0" result="hardAlpha"></feColorMatrix><feOffset dx="5" dy="5"></feOffset><feGaussianBlur stdDeviation="14.5"></feGaussianBlur><feColorMatrix type="matrix" values="0 0 0 0 0 0 0 0 0 0.296699 0 0 0 0 0.858629 0 0 0 0.14 0"></feColorMatrix><feBlend mode="normal" in2="BackgroundImageFix" result="effect1_dropShadow_16759_46366"></feBlend><feColorMatrix in="SourceAlpha" type="matrix" values="0 0 0 0 0 0 0 0 0 0 0 0 0 0 0 0 0 0 127 0" result="hardAlpha"></feColorMatrix><feOffset></feOffset><feGaussianBlur stdDeviation="3.5"></feGaussianBlur><feComposite in2="hardAlpha" operator="out"></feComposite><feColorMatrix type="matrix" values="0 0 0 0 0.0354167 0 0 0 0 0.105426 0 0 0 0 0.2125 0 0 0 0.09 0"></feColorMatrix><feBlend mode="normal" in2="effect1_dropShadow_16759_46366" result="effect2_dropShadow_16759_46366"></feBlend><feBlend mode="normal" in="SourceGraphic" in2="effect2_dropShadow_16759_46366" result="shape"></feBlend></filter><clipPath id="clip0_16759_46366"><rect x="24" y="103.393" width="439" height="255.214" rx="10" fill="white"></rect></clipPath></defs></svg>