<svg xmlns="http://www.w3.org/2000/svg" width="462" height="462" viewBox="0 0 462 462" fill="none"><circle cx="231" cy="231" r="231" fill="#F5F8FF"></circle><path d="M231.317 99L336.634 120.258L336.809 230.593C336.985 303.333 290.821 340.927 231.669 362.539C172.519 341.279 126.351 303.681 126.175 230.945L126 120.609L231.317 99Z" fill="#76A5FF"></path><path d="M330.547 125.29L330.722 230.588C330.722 290.004 298.405 331.139 231.84 355.925C165.098 331.316 132.78 290.356 132.605 230.946L132.43 125.648L231.49 105.433L330.547 125.29Z" fill="#3D7FFC"></path><path d="M232.071 99L231.723 362.542C290.309 341.282 336.636 303.736 336.81 231L336.63 120.25L232.071 99Z" fill="#003395" fill-opacity="0.15"></path><path d="M256.344 250.128L251.16 238.032C247.512 241.776 241.56 245.04 233.304 245.04C222.456 245.04 213.432 237.648 213.432 224.688C213.432 211.728 222.072 204.24 233.304 204.24C242.04 204.24 249.144 209.52 250.392 211.152L255.192 198.288C253.464 196.464 246.072 190.8 232.44 190.8C213.144 190.8 197.688 203.568 197.688 224.976C197.688 246.288 212.952 259.152 232.44 259.152C245.976 259.152 252.984 253.584 256.344 250.128Z" fill="white"></path><circle cx="232" cy="225" r="59" stroke="white" stroke-width="10"></circle></svg>