<svg width="682" height="482" viewBox="0 0 682 482" fill="none" xmlns="http://www.w3.org/2000/svg">
<rect width="911" height="482" rx="48" fill="#F5F8FF"/>
<path d="M189.738 22.6598C189.738 11.802 198.674 3 209.698 3H382.346C393.369 3 402.306 11.802 402.306 22.6599V416.84C402.306 427.698 393.369 436.5 382.346 436.5H209.698C198.674 436.5 189.738 427.698 189.738 416.84V22.6598Z" fill="#091B36"/>
<path d="M194.328 19.4187C194.328 13.6646 199.096 9 204.977 9H387.071C392.952 9 397.72 13.6646 397.72 19.4187V421.581C397.72 427.335 392.952 432 387.071 432H204.977C199.096 432 194.328 427.335 194.328 421.581V19.4187Z" fill="white"/>
<path fill-rule="evenodd" clip-rule="evenodd" d="M204.022 0H386.496C397.738 0 406.895 8.8832 406.895 19.8944V421.106C406.895 432.117 397.738 441 386.496 441H204.022C192.78 441 183.623 432.117 183.623 421.106V19.8944C183.623 8.8832 192.78 0 204.022 0ZM204.022 9.50035C198.128 9.50035 193.351 14.1539 193.351 19.8944V421.106C193.351 426.846 198.128 431.5 204.022 431.5H386.496C392.39 431.5 397.168 426.846 397.168 421.106V19.8944C397.168 14.1539 392.39 9.50035 386.496 9.50035H204.022Z" fill="#091B36"/>
<path d="M185.152 53.9571C185.152 52.324 186.522 51 188.211 51V85.5C186.522 85.5 185.152 84.176 185.152 82.5429V53.9571Z" fill="#091B36"/>
<path d="M405.371 94.5409C405.371 96.1741 404.002 97.498 402.313 97.498L402.313 62.998C404.002 62.998 405.371 64.322 405.371 65.9552L405.371 94.5409Z" fill="#091B36"/>
<path d="M185.152 94.4571C185.152 92.824 186.522 91.5 188.211 91.5V126C186.522 126 185.152 124.676 185.152 123.043V94.4571Z" fill="#091B36"/>
<path d="M255.496 4.5H338.076L337.258 15.8689C336.807 22.1407 331.549 27 325.214 27H268.359C262.024 27 256.766 22.1407 256.314 15.8689L255.496 4.5Z" fill="#091B36"/>
<path opacity="0.3" d="M273.848 15C273.848 14.1716 274.739 13.5 275.839 13.5H314.675C315.775 13.5 316.667 14.1716 316.667 15C316.667 15.8284 315.775 16.5 314.675 16.5H275.839C274.739 16.5 273.848 15.8284 273.848 15Z" fill="#FFFEFE"/>
<circle cx="359.547" cy="57" r="15" fill="#EDF1F6"/>
<circle cx="305" cy="57" r="15" fill="#EDF1F6"/>
<circle cx="265" cy="57" r="15" fill="#EDF1F6"/>
<circle cx="225" cy="57" r="15" fill="#EDF1F6"/>
<rect x="209.547" y="85" width="170" height="130" rx="7" fill="#EDF1F6"/>
<rect x="209.547" y="227" width="170" height="144" rx="7" fill="#EDF1F6"/>
<rect x="209.547" y="383" width="170" height="48" fill="#EDF1F6"/>
<rect x="335" y="101.453" width="170.41" height="320.429" rx="10" fill="#091B36" stroke="url(#paint0_linear_17587_39860)" stroke-width="6"/>
<circle cx="359.781" cy="56.7812" r="25.2812" fill="#091B36" stroke="url(#paint1_linear_17587_39860)" stroke-width="5"/>
<circle cx="363.254" cy="138.041" r="10.4179" fill="white"/>
<path d="M384.785 137.347H450.071" stroke="white" stroke-width="4" stroke-linecap="round"/>
<path d="M355.613 113.732H377.838" stroke="white" stroke-width="3" stroke-linecap="round"/>
<path d="M383.395 113.732H405.619" stroke="white" stroke-width="3" stroke-linecap="round"/>
<path d="M411.176 113.732H433.401" stroke="white" stroke-width="3" stroke-linecap="round"/>
<path d="M438.957 113.732H461.182" stroke="white" stroke-opacity="0.4" stroke-width="3" stroke-linecap="round"/>
<path d="M438.957 113.732H451.459" stroke="white" stroke-width="3" stroke-linecap="round"/>
<path d="M466.738 113.732H488.963" stroke="white" stroke-opacity="0.4" stroke-width="3" stroke-linecap="round"/>
<mask id="mask0_17587_39860" style="mask-type:alpha" maskUnits="userSpaceOnUse" x="336" y="33" width="48" height="48">
<circle cx="359.78" cy="56.781" r="22.114" fill="#D2DCE4" stroke="url(#paint2_linear_17587_39860)" stroke-width="3"/>
</mask>
<g mask="url(#mask0_17587_39860)">
<circle cx="359.778" cy="49.8361" r="11.1125" fill="white"/>
<path d="M340.332 81.5656C340.332 72.4808 347.697 65.1162 356.781 65.1162H362.776C371.861 65.1162 379.226 72.4808 379.226 81.5656C379.226 83.9882 377.262 85.9521 374.839 85.9521H344.719C342.296 85.9521 340.332 83.9882 340.332 81.5656Z" fill="white"/>
</g>
<rect x="85" y="148" width="205.581" height="238.918" rx="10" fill="#9FC0FF"/>
<rect x="96.1133" y="195" width="183.356" height="180.578" rx="8" fill="#091B36"/>
<circle cx="110.004" cy="173.003" r="13.8906" fill="white"/>
<path d="M85 408.328C85 403.91 88.5817 400.328 93 400.328H282.581C286.999 400.328 290.581 403.91 290.581 408.328V443.723C290.581 448.142 286.999 451.723 282.581 451.723H93C88.5817 451.723 85 448.142 85 443.723V408.328Z" fill="#9FC0FF"/>
<path d="M143.34 173H230.156" stroke="white" stroke-width="7" stroke-linecap="round"/>
<path d="M153.547 426.328H259.547" stroke="white" stroke-width="9" stroke-linecap="round"/>
<path d="M124.699 423.411V420.476H121.205L122.403 413.328H119.375L118.144 420.476H114.018L115.216 413.328H112.155L110.957 420.476H106.864V423.411H110.458L109.659 428.28H105.699V431.215H109.16L107.962 438.328H111.023L112.221 431.215H116.347L115.149 438.328H118.211L119.408 431.215H123.568V428.28H119.908L120.706 423.411H124.699ZM117.645 423.411L116.846 428.28H112.72L113.519 423.411H117.645Z" fill="white"/>
<rect x="540.609" y="100.012" width="93.0669" height="93.0669" rx="46.5334" fill="#3D7FFC"/>
<path d="M575.238 139.201H568.514C567.769 139.201 567.055 139.497 566.529 140.023C566.003 140.55 565.707 141.263 565.707 142.008V159.842C565.71 160.584 566.008 161.294 566.534 161.818C567.06 162.341 567.772 162.635 568.514 162.635H575.238C575.983 162.635 576.697 162.339 577.223 161.813C577.749 161.287 578.045 160.573 578.045 159.828V142.008C578.045 141.263 577.749 140.55 577.223 140.023C576.697 139.497 575.983 139.201 575.238 139.201ZM574.367 160.966C574.049 160.966 573.738 160.872 573.473 160.695C573.209 160.518 573.003 160.267 572.881 159.973C572.759 159.679 572.727 159.356 572.789 159.044C572.851 158.732 573.005 158.446 573.23 158.221C573.454 157.996 573.741 157.843 574.053 157.781C574.365 157.718 574.688 157.75 574.982 157.872C575.276 157.994 575.527 158.2 575.704 158.464C575.881 158.729 575.975 159.04 575.975 159.358C575.974 159.785 575.803 160.194 575.501 160.495C575.199 160.797 574.789 160.966 574.362 160.966H574.367Z" fill="white"/>
<path d="M604.389 151.509V151.64H604.916C605.493 151.642 606.056 151.814 606.535 152.135C607.015 152.455 607.388 152.911 607.61 153.443C607.832 153.976 607.891 154.562 607.781 155.128C607.671 155.694 607.396 156.215 606.991 156.625C606.44 157.176 605.695 157.489 604.916 157.497H604.389V157.645C605.02 157.691 605.611 157.974 606.043 158.438C606.474 158.901 606.714 159.511 606.714 160.145C606.714 160.778 606.474 161.388 606.043 161.851C605.611 162.315 605.02 162.598 604.389 162.644C604.331 162.65 604.272 162.65 604.214 162.644H584.899C583.801 162.645 582.746 162.21 581.969 161.435C581.191 160.659 580.752 159.606 580.75 158.508V142.731C580.75 140.265 583.94 135.122 585.98 132.834C586.436 132.336 586.785 131.749 587.004 131.11C587.223 130.471 587.308 129.794 587.252 129.121C587.078 126.942 587.222 123.843 589.431 123.638C592.883 123.32 595.716 129.304 594.082 133.801C593.406 135.628 592.853 136.974 592.413 137.907H605.051C605.973 137.913 606.856 138.275 607.518 138.916C608.18 139.557 608.569 140.429 608.605 141.35C608.641 142.27 608.321 143.17 607.711 143.86C607.101 144.551 606.248 144.98 605.33 145.059C606.171 145.081 606.971 145.432 607.558 146.035C608.144 146.638 608.473 147.446 608.472 148.288C608.465 149.141 608.123 149.957 607.518 150.559C606.914 151.161 606.096 151.501 605.243 151.504L604.389 151.509Z" fill="white"/>
<rect x="337.809" y="190.301" width="54.1733" height="54.1733" rx="27.0866" fill="#3D7FFC"/>
<path d="M357.966 213.113H354.052C353.618 213.113 353.203 213.285 352.896 213.592C352.59 213.898 352.418 214.314 352.418 214.747V225.128C352.42 225.56 352.593 225.973 352.899 226.278C353.205 226.583 353.62 226.754 354.052 226.754H357.966C358.399 226.754 358.815 226.582 359.121 226.275C359.428 225.969 359.6 225.554 359.6 225.12V214.747C359.6 214.314 359.428 213.898 359.121 213.592C358.815 213.285 358.399 213.113 357.966 213.113ZM357.459 225.782C357.274 225.782 357.093 225.727 356.939 225.625C356.785 225.522 356.665 225.376 356.594 225.204C356.523 225.033 356.504 224.845 356.541 224.664C356.577 224.482 356.666 224.315 356.797 224.184C356.928 224.053 357.095 223.964 357.276 223.928C357.458 223.892 357.646 223.911 357.817 223.981C357.988 224.052 358.134 224.172 358.237 224.326C358.34 224.48 358.395 224.661 358.395 224.846C358.394 225.095 358.295 225.333 358.119 225.508C357.943 225.684 357.705 225.782 357.456 225.782H357.459Z" fill="white"/>
<path d="M374.936 220.277V220.353H375.243C375.578 220.354 375.906 220.455 376.185 220.641C376.464 220.828 376.682 221.093 376.811 221.403C376.94 221.713 376.974 222.054 376.91 222.384C376.846 222.713 376.686 223.016 376.45 223.255C376.13 223.576 375.696 223.758 375.243 223.763H374.936V223.849C375.303 223.876 375.647 224.04 375.898 224.31C376.149 224.58 376.289 224.935 376.289 225.304C376.289 225.673 376.149 226.028 375.898 226.297C375.647 226.567 375.303 226.732 374.936 226.759C374.902 226.763 374.868 226.763 374.834 226.759H363.591C362.951 226.759 362.338 226.506 361.885 226.055C361.432 225.603 361.177 224.991 361.176 224.351V215.168C361.176 213.732 363.033 210.739 364.22 209.407C364.486 209.117 364.689 208.775 364.816 208.403C364.944 208.032 364.993 207.637 364.961 207.245C364.859 205.977 364.943 204.173 366.229 204.054C368.238 203.869 369.887 207.352 368.936 209.97C368.543 211.033 368.221 211.817 367.964 212.36H375.321C375.858 212.363 376.372 212.574 376.757 212.947C377.142 213.32 377.369 213.828 377.39 214.364C377.411 214.9 377.224 215.423 376.869 215.825C376.514 216.227 376.018 216.477 375.484 216.523C375.973 216.536 376.439 216.74 376.78 217.091C377.122 217.442 377.313 217.913 377.313 218.402C377.309 218.899 377.109 219.374 376.757 219.725C376.405 220.075 375.93 220.273 375.433 220.275L374.936 220.277Z" fill="white"/>
<rect x="301.691" y="306.981" width="45.8389" height="45.8389" rx="22.9195" fill="#3D7FFC"/>
<path d="M318.299 340.548V336.339H324.311L318.299 340.548Z" fill="white"/>
<path d="M314.691 325.308C314.691 323.098 316.482 321.308 318.691 321.308H330.532C332.741 321.308 334.532 323.098 334.532 325.308V332.927C334.532 335.136 332.741 336.927 330.532 336.927H318.691C316.482 336.927 314.691 335.136 314.691 332.927V325.308Z" fill="white"/>
<rect x="496.16" y="212.525" width="73.6201" height="73.6201" rx="36.81" fill="#3D7FFC"/>
<path d="M522.83 266.433V259.674H532.486L522.83 266.433Z" fill="white"/>
<path d="M517.037 239.534C517.037 237.325 518.828 235.534 521.037 235.534H544.903C547.112 235.534 548.903 237.325 548.903 239.534V256.62C548.903 258.829 547.112 260.62 544.903 260.62H521.037C518.828 260.62 517.037 258.829 517.037 256.62V239.534Z" fill="white"/>
<rect x="608.674" y="219.471" width="79.1763" height="79.1763" rx="39.5881" fill="#3D7FFC"/>
<ellipse cx="648.852" cy="249.013" rx="9.45389" ry="9.45388" fill="white"/>
<path d="M632.309 276.007C632.309 268.278 638.574 262.013 646.303 262.013H651.403C659.132 262.013 665.397 268.278 665.397 276.007C665.397 278.068 663.726 279.739 661.665 279.739H636.04C633.979 279.739 632.309 278.068 632.309 276.007Z" fill="white"/>
<rect x="283.635" y="156.964" width="37.5046" height="37.5046" rx="18.7523" fill="#3D7FFC"/>
<ellipse cx="302.67" cy="170.959" rx="4.47816" ry="4.47816" fill="white"/>
<path d="M294.832 183.745C294.832 180.084 297.8 177.116 301.461 177.116H303.877C307.538 177.116 310.506 180.084 310.506 183.745C310.506 184.721 309.714 185.513 308.738 185.513H296.6C295.623 185.513 294.832 184.721 294.832 183.745Z" fill="white"/>
<rect x="501.717" y="327.817" width="93.0669" height="93.0669" rx="46.5334" fill="#3D7FFC"/>
<ellipse cx="548.945" cy="362.544" rx="11.1125" ry="11.1125" fill="white"/>
<path d="M529.498 394.274C529.498 385.189 536.863 377.824 545.947 377.824H551.942C561.027 377.824 568.392 385.189 568.392 394.274C568.392 396.696 566.428 398.66 564.005 398.66H533.885C531.462 398.66 529.498 396.696 529.498 394.274Z" fill="white"/>
<rect x="379.48" y="248.642" width="93.0669" height="93.0669" rx="46.5334" fill="#3D7FFC"/>
<path d="M425.75 318.094C415.561 310.184 397.448 300.579 404.807 284.755C411.585 271.194 425.75 280.799 425.75 285.886C425.75 280.799 440.465 271.194 447.259 284.755C454.617 300.573 435.936 310.178 425.75 318.094Z" fill="white"/>
<rect x="440.598" y="152.796" width="54.1733" height="54.1733" rx="27.0866" fill="#3D7FFC"/>
<path d="M467.532 193.224C461.601 188.619 451.057 183.028 455.341 173.817C459.286 165.923 467.532 171.514 467.532 174.476C467.532 171.514 476.097 165.923 480.052 173.817C484.335 183.024 473.461 188.615 467.532 193.224Z" fill="white"/>
<rect x="260.021" y="223.639" width="54.1733" height="54.1733" rx="27.0866" fill="#3D7FFC"/>
<path d="M286.954 264.066C281.023 259.462 270.479 253.871 274.763 244.66C278.708 236.766 286.954 242.357 286.954 245.318C286.954 242.357 295.519 236.766 299.473 244.66C303.757 253.867 292.883 259.458 286.954 264.066Z" fill="white"/>
<path d="M124.962 282.951L121.627 281.588C120.583 281.153 119.336 280.602 119.336 279.152C119.336 277.673 120.641 276.861 122.294 276.861C124.005 276.861 125.542 277.702 126.818 278.862L128.616 276.165C127.427 274.947 125.368 273.758 122.526 273.758C118.321 273.758 115.595 276.165 115.595 279.645C115.595 282.081 117.045 283.618 119.22 284.488L122.352 285.735C124.063 286.431 125.107 286.953 125.107 288.519C125.107 290.259 123.831 291.158 121.975 291.158C120.09 291.158 118.205 290.23 116.639 288.519L114.841 291.245C116.146 292.753 118.495 294.348 121.917 294.348C126.151 294.348 128.877 291.883 128.877 288.171C128.877 285.677 127.775 284.111 124.962 282.951ZM135.836 281.936L135.894 279.964H132.124V299.307H135.807V294.435C135.807 293.449 135.778 292.811 135.749 292.144L135.807 292.115C136.967 293.507 138.156 294.261 140.302 294.261C144.565 294.261 147.204 290.984 147.204 287.011C147.204 282.835 144.681 279.645 140.563 279.645C138.707 279.645 137.025 280.283 135.894 281.965L135.836 281.936ZM139.519 282.661C141.926 282.661 143.434 284.575 143.434 287.011C143.434 289.36 142.042 291.419 139.635 291.419C137.257 291.419 135.72 289.36 135.72 287.011C135.72 284.372 137.286 282.661 139.519 282.661ZM157.131 294.319C161.423 294.319 164.729 291.477 164.729 287.04C164.729 282.603 161.423 279.703 157.131 279.703C152.81 279.703 149.504 282.603 149.504 287.04C149.504 291.477 152.81 294.319 157.131 294.319ZM160.901 286.953C160.901 289.36 159.509 291.245 157.131 291.245C154.695 291.245 153.361 289.36 153.361 286.953C153.361 284.546 154.695 282.69 157.131 282.69C159.509 282.69 160.901 284.546 160.901 286.953ZM177.17 286.489V294H180.882V285.677C180.882 282.313 179.867 279.703 175.836 279.703C173.806 279.703 172.385 280.602 171.631 282.081H171.544L171.573 279.964H167.861V294H171.573V287.011C171.573 284.662 172.356 282.748 174.647 282.748C176.793 282.748 177.17 284.401 177.17 286.489ZM192.901 283.676L194.496 281.211C193.336 280.37 191.944 279.703 189.45 279.703C186.753 279.703 184.433 281.356 184.433 283.908C184.433 285.967 185.506 287.214 187.594 287.91L189.218 288.461C191.016 289.07 191.567 289.476 191.567 290.201C191.567 291.013 190.929 291.535 189.537 291.535C188.348 291.535 186.927 290.897 185.274 289.621L183.766 292.144C184.897 293.449 187.304 294.319 189.45 294.319C192.901 294.319 195.018 292.347 195.018 289.679C195.018 287.649 193.916 286.547 190.813 285.532L189.827 285.213C188.261 284.72 187.797 284.227 187.797 283.618C187.797 282.951 188.406 282.487 189.624 282.487C190.9 282.487 192.089 283.067 192.901 283.676ZM204.665 294.319C208.957 294.319 212.263 291.477 212.263 287.04C212.263 282.603 208.957 279.703 204.665 279.703C200.344 279.703 197.038 282.603 197.038 287.04C197.038 291.477 200.344 294.319 204.665 294.319ZM208.435 286.953C208.435 289.36 207.043 291.245 204.665 291.245C202.229 291.245 200.895 289.36 200.895 286.953C200.895 284.546 202.229 282.69 204.665 282.69C207.043 282.69 208.435 284.546 208.435 286.953ZM215.395 279.964V294H219.078V287.098C219.078 286.025 219.252 285.068 219.6 284.372C220.122 283.473 220.963 283.009 222.065 283.009C222.558 283.009 223.196 283.067 223.602 283.183H223.776L224.037 279.964C224.037 279.964 223.515 279.703 222.558 279.703C221.05 279.703 219.658 280.718 219.107 282.226H219.02L219.078 279.964H215.395ZM229.212 288.171H239.536C239.536 288.171 239.594 287.011 239.594 286.286C239.594 282.545 236.984 279.703 232.663 279.703C228.661 279.703 225.384 282.719 225.384 287.214C225.384 291.738 228.516 294.319 232.75 294.319C236.172 294.319 238.289 292.869 239.072 292.057L237.622 290.056C236.955 290.636 235.273 291.477 233.388 291.477C231.271 291.477 229.56 290.404 229.212 288.171ZM232.634 282.458C235.244 282.458 235.824 284.227 235.882 285.764H229.154C229.27 283.995 230.43 282.458 232.634 282.458ZM253.452 291.796L253.481 294H256.99V273.99H253.307V279.529C253.307 280.515 253.307 281.269 253.336 281.907H253.278C252.292 280.399 250.697 279.703 248.812 279.703C244.549 279.703 241.91 282.98 241.91 286.953C241.91 291.129 244.433 294.319 248.551 294.319C250.494 294.319 252.234 293.594 253.365 291.796H253.452ZM249.595 291.303C247.188 291.303 245.68 289.389 245.68 286.953C245.68 284.604 247.072 282.545 249.479 282.545C251.857 282.545 253.394 284.604 253.394 286.953C253.394 289.592 251.828 291.303 249.595 291.303Z" fill="#E7EEFF"/>
<defs>
<linearGradient id="paint0_linear_17587_39860" x1="368.355" y1="94.286" x2="437.965" y2="421.099" gradientUnits="userSpaceOnUse">
<stop stop-color="#BC3D77"/>
<stop offset="1" stop-color="#F2A24A"/>
</linearGradient>
<linearGradient id="paint1_linear_17587_39860" x1="359.781" y1="29" x2="359.781" y2="84.5623" gradientUnits="userSpaceOnUse">
<stop stop-color="#BC3D77"/>
<stop offset="1" stop-color="#F3A548"/>
</linearGradient>
<linearGradient id="paint2_linear_17587_39860" x1="359.78" y1="33.167" x2="359.78" y2="80.395" gradientUnits="userSpaceOnUse">
<stop stop-color="#BC3D77"/>
<stop offset="1" stop-color="#F3A548"/>
</linearGradient>
</defs>
</svg>
