<svg width="526" height="462" viewBox="0 0 526 462" fill="none" xmlns="http://www.w3.org/2000/svg">
<circle cx="293" cy="231" r="231" fill="#F5F8FF"/>
<path d="M137 121.917C166.271 121.917 190 98.1881 190 68.917C190 39.6459 166.271 15.917 137 15.917C107.729 15.917 84 39.6459 84 68.917C84 98.1881 107.729 121.917 137 121.917Z" fill="#EDF1F6"/>
<mask id="mask0_17587_39859" style="mask-type:alpha" maskUnits="userSpaceOnUse" x="85" y="22" width="102" height="102">
<circle cx="136.101" cy="73.1077" r="50.5657" fill="#C4C4C4"/>
</mask>
<g mask="url(#mask0_17587_39859)">
<path d="M199.207 194.667C198.508 173.978 192.781 119.879 188.87 115.127C184.261 109.535 162.61 97.5131 150.179 94.5775C139.144 92.0613 135.932 93.0398 128.808 92.6205C121.684 92.2011 82.7136 113.17 81.8755 118.062C80.0596 127.009 75.7296 148.257 74.3328 157.203C72.5169 169.645 71.8185 182.226 72.3773 194.807L199.207 194.667Z" fill="#3D7FFC"/>
<path d="M122.521 77.3828V94.0178C122.521 94.2974 122.661 94.4372 122.801 94.577C124.756 96.534 137.747 108.276 150.038 94.9963C150.178 94.8565 150.318 94.5769 150.318 94.2974L149.061 77.243C149.061 76.8237 148.642 76.4043 148.223 76.4043H123.36C122.801 76.5441 122.521 76.8237 122.521 77.3828Z" fill="#E7C6A7"/>
<path d="M157.727 63.9632C157.307 63.6836 156.749 63.5438 156.33 63.5438C158.425 50.5434 157.447 34.3278 136.216 35.0267C123.924 35.4461 119.873 46.4895 119.035 58.2318C119.035 58.791 118.476 59.0705 118.057 58.9308C117.359 58.791 116.661 58.9308 116.102 59.0705C111.772 60.3287 114.565 70.8129 118.895 73.0495C119.175 73.1893 119.315 73.3291 119.315 73.6087C121.13 84.5123 126.997 91.5017 135.238 92.0609C142.92 92.6201 148.927 86.7489 152.698 77.8024C152.838 77.5228 152.977 77.383 153.257 77.383C157.726 75.9851 161.917 65.7804 157.727 63.9632Z" fill="#E7C6A7"/>
<path d="M136.216 93.0399C135.797 93.0399 135.518 93.0399 135.099 93.0399C130.629 92.7604 126.578 90.5237 123.785 87.029C123.505 86.7494 123.505 86.1903 123.924 85.9107C124.204 85.6311 124.762 85.6311 125.042 86.0505C127.556 89.2656 131.188 91.2227 135.238 91.5023C139.568 91.7818 143.759 89.9646 146.552 86.6096C146.832 86.33 147.39 86.33 147.67 86.6096C147.949 86.8892 147.949 87.3086 147.67 87.5882C144.737 90.9431 140.686 92.9002 136.216 93.0399Z" fill="#DFB996"/>
<path d="M118.889 59.2104L121.542 63.5439H124.476V56.1351C126.571 54.0382 127.968 51.2424 128.526 48.3068L150.316 49.8445C150.316 49.8445 149.618 55.1565 151.294 57.2534V65.9203H153.948L156.462 63.5439C156.462 63.5439 161.77 44.3927 159.535 39.6399C158.558 36.9839 155.624 35.586 153.11 36.5645C153.11 36.5645 145.986 28.1771 135.929 30.9729C125.873 33.9085 117.911 39.9195 116.374 44.1131C114.698 48.4466 118.889 59.2104 118.889 59.2104Z" fill="#42505D"/>
<path d="M149.626 96.2561L137.194 164.613C137.054 165.592 135.658 165.592 135.518 164.613L122.528 96.2561C122.388 95.5572 123.086 94.998 123.785 95.2776L135.937 101.009C136.216 101.149 136.496 101.149 136.635 101.009L148.369 95.2776C149.067 94.998 149.765 95.5572 149.626 96.2561Z" fill="#9FC0FF"/>
<path d="M123.776 95.2776L135.928 101.009C136.208 101.149 136.487 101.149 136.627 101.009L148.36 95.2776C148.918 94.998 149.757 95.5572 149.617 96.2561L146.823 111.773C146.684 112.472 145.985 112.751 145.427 112.332L137.185 105.342C136.906 105.063 136.347 105.063 136.068 105.342L127.268 114.009C126.849 114.429 126.011 114.289 125.871 113.59L122.659 96.3959C122.519 95.5572 123.217 94.998 123.776 95.2776Z" fill="#F7FAFF"/>
</g>
<path d="M446 415C477.48 415 503 389.48 503 358C503 326.52 477.48 301 446 301C414.52 301 389 326.52 389 358C389 389.48 414.52 415 446 415Z" fill="#E7EEFF"/>
<path d="M394.527 53.3628C394.527 48.7868 398.221 45.0771 402.778 45.0771H474.149C478.706 45.0771 482.4 48.7868 482.4 53.3628V219.491C482.4 224.067 478.706 227.777 474.149 227.777H402.778C398.221 227.777 394.527 224.067 394.527 219.491V53.3628Z" fill="#091B36"/>
<path d="M396.424 51.9974C396.424 49.5724 398.395 47.6064 400.826 47.6064H476.101C478.533 47.6064 480.504 49.5724 480.504 51.9974V221.49C480.504 223.915 478.533 225.881 476.101 225.881H400.826C398.395 225.881 396.424 223.915 396.424 221.49V51.9974Z" fill="white"/>
<path fill-rule="evenodd" clip-rule="evenodd" d="M400.433 43.8135H475.865C480.512 43.8135 484.298 47.5573 484.298 52.198V221.289C484.298 225.93 480.513 229.674 475.865 229.674H400.433C395.785 229.674 392 225.93 392 221.289V52.198C392 47.5573 395.785 43.8135 400.433 43.8135ZM400.433 47.8174C397.996 47.8174 396.021 49.7787 396.021 52.198V221.289C396.021 223.709 397.996 225.67 400.433 225.67H475.865C478.302 225.67 480.277 223.709 480.277 221.289V52.198C480.277 49.7787 478.302 47.8174 475.865 47.8174H400.433Z" fill="#091B36"/>
<path d="M392.631 66.5539C392.631 65.8656 393.197 65.3076 393.895 65.3076V79.8477C393.197 79.8477 392.631 79.2897 392.631 78.6014V66.5539Z" fill="#091B36"/>
<path d="M483.668 83.658C483.668 84.3463 483.102 84.9043 482.404 84.9043L482.404 70.3642C483.102 70.3642 483.668 70.9222 483.668 71.6105L483.668 83.658Z" fill="#091B36"/>
<path d="M392.631 83.6223C392.631 82.934 393.197 82.376 393.895 82.376V96.9161C393.197 96.9161 392.631 96.3581 392.631 95.6698V83.6223Z" fill="#091B36"/>
<path d="M421.713 45.71H455.851L455.512 50.5014C455.326 53.1447 453.152 55.1926 450.533 55.1926H427.03C424.411 55.1926 422.238 53.1447 422.051 50.5014L421.713 45.71Z" fill="#091B36"/>
<path opacity="0.3" d="M429.297 50.1361C429.297 49.7869 429.665 49.5039 430.12 49.5039H446.175C446.629 49.5039 446.998 49.7869 446.998 50.1361C446.998 50.4852 446.629 50.7683 446.175 50.7683H430.12C429.665 50.7683 429.297 50.4852 429.297 50.1361Z" fill="#FFFEFE"/>
<rect x="401.191" y="72.5254" width="74.0744" height="93.5978" rx="3" fill="white"/>
<rect x="407.527" y="88.9824" width="62.1066" height="62.1066" rx="3" fill="#3D7FFC"/>
<circle cx="411.726" cy="80.8278" r="4.47033" fill="#C6DBFF"/>
<line x1="421.529" y1="81.2441" x2="455.569" y2="81.2441" stroke="#C6DBFF" stroke-width="3" stroke-linecap="round"/>
<line x1="408.256" y1="155.823" x2="461.816" y2="155.823" stroke="#C6DBFF" stroke-width="2" stroke-linecap="round"/>
<line x1="408.256" y1="160.932" x2="442.018" y2="160.932" stroke="#C6DBFF" stroke-width="2" stroke-linecap="round"/>
<path d="M426.86 107.34H424.34L422.366 111.19L420.392 107.34H417.872L421.232 113.094V117H423.5V113.094L426.86 107.34ZM437.026 112.184C437.026 109.062 434.772 107.186 431.902 107.186C429.032 107.186 426.778 109.062 426.778 112.184C426.778 115.306 429.032 117.168 431.902 117.168C434.772 117.168 437.026 115.306 437.026 112.184ZM434.73 112.128C434.73 113.976 433.512 115.152 431.902 115.152C430.292 115.152 429.074 113.976 429.074 112.128C429.074 110.28 430.292 109.118 431.902 109.118C433.512 109.118 434.73 110.294 434.73 112.128ZM446.603 112.968V107.34H444.321V112.968C444.321 113.654 444.265 114.186 443.943 114.578C443.635 114.942 443.187 115.18 442.557 115.18C441.927 115.18 441.479 114.942 441.171 114.578C440.849 114.186 440.793 113.654 440.793 112.968V107.34H438.511V112.968C438.511 114.326 438.749 115.264 439.421 116.006C440.107 116.734 441.143 117.154 442.557 117.154C443.957 117.154 445.007 116.734 445.679 116.006C446.365 115.264 446.603 114.326 446.603 112.968ZM456.225 117L453.775 113.01C454.489 112.786 455.665 112.072 455.665 110.238C455.665 109.272 455.245 108.502 454.601 108.026C453.971 107.564 453.131 107.34 452.053 107.34H448.581V117H450.849V113.304H451.563L453.593 117H456.225ZM453.383 110.322C453.383 110.826 453.187 111.092 452.893 111.302C452.613 111.512 452.249 111.568 451.731 111.568H450.835V109.09H451.731C452.249 109.09 452.613 109.132 452.893 109.342C453.187 109.552 453.383 109.832 453.383 110.322ZM422.904 132.228C422.904 131.038 422.106 130.226 420.902 129.932V129.904C421.63 129.652 422.316 128.84 422.316 127.776C422.316 126.712 421.728 126.082 421.084 125.746C420.44 125.41 419.586 125.34 418.704 125.34H415.414V135H419.362C420.356 135 421.224 134.818 421.84 134.37C422.456 133.922 422.904 133.292 422.904 132.228ZM420.09 128.112C420.09 128.588 419.894 128.84 419.614 129.036C419.348 129.218 419.054 129.246 418.55 129.246H417.668V127.02H418.606C419.096 127.02 419.348 127.048 419.614 127.216C419.894 127.384 420.09 127.65 420.09 128.112ZM420.608 132.046C420.608 132.466 420.454 132.788 420.118 133.012C419.782 133.25 419.404 133.278 418.914 133.278H417.668V130.814H418.914C419.404 130.814 419.782 130.842 420.118 131.08C420.454 131.318 420.608 131.612 420.608 132.046ZM431.993 135L429.543 131.01C430.257 130.786 431.433 130.072 431.433 128.238C431.433 127.272 431.013 126.502 430.369 126.026C429.739 125.564 428.899 125.34 427.821 125.34H424.349V135H426.617V131.304H427.331L429.361 135H431.993ZM429.151 128.322C429.151 128.826 428.955 129.092 428.661 129.302C428.381 129.512 428.017 129.568 427.499 129.568H426.603V127.09H427.499C428.017 127.09 428.381 127.132 428.661 127.342C428.955 127.552 429.151 127.832 429.151 128.322ZM441.786 135L438.146 125.326H435.794L432.154 135H434.506L435.192 133.054H438.636L439.322 135H441.786ZM438.118 131.29H435.71L436.914 127.818L438.118 131.29ZM451.623 135V125.34H449.411V129.722C449.411 130.744 449.453 131.836 449.453 131.836L445.309 125.34H442.887V135H445.099V130.632C445.099 129.61 445.057 128.448 445.057 128.448L449.299 135H451.623ZM462.235 130.17C462.235 128.294 461.479 127.174 460.667 126.502C459.869 125.816 458.623 125.34 456.943 125.34H453.667V135H456.943C458.623 135 459.869 134.524 460.667 133.852C461.479 133.166 462.235 132.046 462.235 130.17ZM459.939 130.17C459.939 131.36 459.491 132.004 459.085 132.382C458.679 132.774 458.007 133.082 457.069 133.082H455.921V127.216H457.069C458.007 127.216 458.679 127.524 459.085 127.902C459.491 128.294 459.939 128.98 459.939 130.17Z" fill="white"/>
<rect x="401.189" y="61.6152" width="48.8087" height="6.89064" rx="3" fill="#EDF1F6"/>
<rect x="452.295" y="61.6152" width="10.336" height="6.89064" rx="3" fill="#EDF1F6"/>
<rect x="464.928" y="61.6152" width="10.336" height="6.89064" rx="3" fill="#EDF1F6"/>
<rect x="401.191" y="167.846" width="74.0744" height="57.422" rx="3" fill="white"/>
<path d="M407.508 186.924C407.508 185.267 408.851 183.924 410.508 183.924H465.949C467.606 183.924 468.949 185.267 468.949 186.924V225.268H407.508V186.924Z" fill="#EDF1F6"/>
<circle cx="411.726" cy="176.148" r="3.97033" fill="#EDF1F6" stroke="#EDF1F6"/>
<line x1="421.529" y1="176.564" x2="455.569" y2="176.564" stroke="#EDF1F6" stroke-width="3" stroke-linecap="round"/>
<rect x="465.398" y="153.912" width="60.6007" height="60.6007" rx="30.3003" fill="#3D7FFC"/>
<path d="M487.947 179.43H483.568C483.083 179.43 482.618 179.622 482.276 179.965C481.933 180.308 481.74 180.773 481.74 181.257V192.87C481.742 193.353 481.936 193.816 482.278 194.156C482.621 194.497 483.085 194.689 483.568 194.689H487.947C488.431 194.689 488.896 194.496 489.239 194.153C489.582 193.811 489.774 193.346 489.774 192.861V181.257C489.774 180.773 489.582 180.308 489.239 179.965C488.896 179.622 488.431 179.43 487.947 179.43ZM487.379 193.602C487.172 193.602 486.969 193.54 486.797 193.425C486.625 193.31 486.491 193.147 486.412 192.955C486.332 192.764 486.312 192.554 486.352 192.35C486.392 192.147 486.492 191.961 486.639 191.814C486.785 191.668 486.972 191.568 487.175 191.528C487.378 191.487 487.588 191.508 487.78 191.587C487.971 191.667 488.135 191.801 488.25 191.973C488.365 192.145 488.426 192.348 488.426 192.555C488.425 192.833 488.314 193.099 488.118 193.295C487.921 193.492 487.654 193.602 487.376 193.602H487.379Z" fill="white"/>
<path d="M506.928 187.444V187.529H507.271C507.647 187.53 508.013 187.643 508.325 187.852C508.637 188.06 508.881 188.357 509.025 188.704C509.169 189.05 509.208 189.432 509.136 189.8C509.065 190.169 508.886 190.508 508.622 190.776C508.263 191.134 507.778 191.338 507.271 191.343H506.928V191.44C507.339 191.469 507.724 191.654 508.005 191.956C508.285 192.258 508.442 192.655 508.442 193.067C508.442 193.48 508.285 193.877 508.005 194.179C507.724 194.481 507.339 194.665 506.928 194.695C506.89 194.699 506.852 194.699 506.814 194.695H494.237C493.522 194.695 492.835 194.412 492.329 193.907C491.822 193.402 491.537 192.717 491.535 192.002V181.729C491.535 180.122 493.612 176.774 494.941 175.284C495.238 174.96 495.465 174.578 495.608 174.162C495.75 173.745 495.805 173.304 495.769 172.866C495.656 171.447 495.749 169.429 497.188 169.296C499.436 169.089 501.28 172.985 500.216 175.914C499.776 177.103 499.416 177.98 499.129 178.587H507.359C507.959 178.591 508.534 178.827 508.965 179.244C509.396 179.662 509.65 180.229 509.673 180.829C509.696 181.428 509.488 182.014 509.091 182.464C508.694 182.914 508.138 183.193 507.541 183.244C508.088 183.259 508.609 183.487 508.991 183.88C509.373 184.272 509.587 184.799 509.587 185.347C509.582 185.902 509.359 186.434 508.965 186.826C508.572 187.218 508.039 187.439 507.484 187.441L506.928 187.444Z" fill="white"/>
<g filter="url(#filter0_dd_17587_39859)">
<g clip-path="url(#clip0_17587_39859)">
<path d="M249.208 272.693H25.7923C24.8024 272.693 24 273.522 24 274.545V412.961C24 413.983 24.8024 414.812 25.7923 414.812H249.208C250.198 414.812 251 413.983 251 412.961V274.545C251 273.522 250.198 272.693 249.208 272.693Z" fill="white"/>
<path d="M251 265H24V272.693H251V265Z" fill="#000C36"/>
<path d="M32.0938 269.046C32.0944 269.286 32.0237 269.521 31.8907 269.721C31.7576 269.922 31.5682 270.078 31.3465 270.17C31.1247 270.262 30.8806 270.287 30.6449 270.24C30.4092 270.194 30.1927 270.078 30.0226 269.909C29.8525 269.739 29.7366 269.522 29.6896 269.287C29.6425 269.051 29.6663 268.807 29.7581 268.585C29.8499 268.362 30.0055 268.172 30.2052 268.039C30.4049 267.905 30.6397 267.834 30.8799 267.834C31.2006 267.836 31.5076 267.965 31.7347 268.191C31.9618 268.418 32.0908 268.725 32.0938 269.046Z" fill="#F66058"/>
<path d="M37.7598 269.046C37.7604 269.286 37.6896 269.521 37.5565 269.722C37.4233 269.922 37.2338 270.078 37.0118 270.17C36.7899 270.263 36.5456 270.287 36.3098 270.24C36.0741 270.193 35.8575 270.078 35.6876 269.908C35.5176 269.738 35.402 269.521 35.3552 269.285C35.3085 269.049 35.3328 268.805 35.425 268.582C35.5172 268.36 35.6733 268.171 35.8733 268.037C36.0734 267.904 36.3085 267.833 36.5489 267.834C36.7081 267.833 36.8659 267.864 37.0132 267.925C37.1605 267.985 37.2943 268.075 37.4069 268.187C37.5195 268.3 37.6086 268.434 37.6692 268.581C37.7298 268.729 37.7606 268.886 37.7598 269.046Z" fill="#F9BD2E"/>
<path d="M43.4239 269.046C43.4245 269.286 43.3538 269.521 43.2207 269.721C43.0877 269.922 42.8983 270.078 42.6766 270.17C42.4548 270.262 42.2106 270.287 41.975 270.24C41.7393 270.194 41.5227 270.078 41.3527 269.909C41.1826 269.739 41.0667 269.522 41.0196 269.287C40.9726 269.051 40.9964 268.807 41.0882 268.585C41.18 268.362 41.3356 268.172 41.5353 268.039C41.735 267.905 41.9698 267.834 42.21 267.834C42.5307 267.836 42.8377 267.965 43.0648 268.191C43.2919 268.418 43.4208 268.725 43.4239 269.046Z" fill="#3CC840"/>
<path d="M251 272.693H24V282.816H251V272.693Z" fill="#EDF1F6"/>
<path d="M237.647 277.122C237.647 276.018 236.752 275.122 235.647 275.122H51.4922C50.3876 275.122 49.4922 276.018 49.4922 277.122V278.791C49.4922 279.895 50.3876 280.791 51.4922 280.791H235.647C236.752 280.791 237.647 279.895 237.647 278.791V277.122Z" fill="white"/>
<rect x="39.7812" y="275.122" width="5.66488" height="5.66855" rx="2" fill="white"/>
<path fill-rule="evenodd" clip-rule="evenodd" d="M41.8919 276.82C42.0078 276.715 42.1954 276.715 42.3109 276.821L43.3368 277.766C43.4522 277.872 43.452 278.044 43.3364 278.15L42.3105 279.091C42.1948 279.197 42.0072 279.197 41.8915 279.091C41.7758 278.985 41.7758 278.813 41.8915 278.707L42.7083 277.957L41.8911 277.205C41.7756 277.098 41.7759 276.926 41.8919 276.82Z" fill="#B8C4D0"/>
<rect x="37.7578" y="280.791" width="5.66488" height="5.66855" rx="2" transform="rotate(-180 37.7578 280.791)" fill="white"/>
<path fill-rule="evenodd" clip-rule="evenodd" d="M35.6472 279.093C35.5313 279.199 35.3437 279.198 35.2282 279.092L34.2022 278.147C34.0869 278.041 34.0871 277.869 34.2026 277.763L35.2286 276.822C35.3443 276.716 35.5319 276.716 35.6476 276.822C35.7633 276.928 35.7633 277.1 35.6476 277.206L34.8307 277.956L35.648 278.708C35.7635 278.815 35.7631 278.987 35.6472 279.093Z" fill="#B8C4D0"/>
<path d="M244.879 276.448C244.787 276.448 244.698 276.421 244.622 276.37C244.546 276.319 244.487 276.247 244.453 276.163C244.418 276.078 244.409 275.986 244.427 275.896C244.445 275.807 244.49 275.725 244.554 275.661C244.619 275.596 244.702 275.553 244.792 275.536C244.881 275.518 244.974 275.528 245.058 275.564C245.142 275.599 245.214 275.659 245.264 275.735C245.314 275.811 245.341 275.901 245.34 275.992C245.339 276.113 245.29 276.229 245.203 276.315C245.117 276.4 245 276.448 244.879 276.448Z" fill="#9BACBC"/>
<path d="M244.879 278.4C244.787 278.4 244.698 278.373 244.622 278.322C244.546 278.271 244.487 278.199 244.453 278.115C244.418 278.031 244.409 277.938 244.427 277.848C244.445 277.759 244.49 277.677 244.554 277.613C244.619 277.549 244.702 277.505 244.792 277.488C244.881 277.471 244.974 277.48 245.058 277.516C245.142 277.551 245.214 277.611 245.264 277.687C245.314 277.763 245.341 277.853 245.34 277.944C245.339 278.065 245.29 278.181 245.203 278.267C245.117 278.352 245 278.4 244.879 278.4Z" fill="#9BACBC"/>
<path d="M244.879 280.367C244.788 280.367 244.699 280.34 244.623 280.289C244.547 280.239 244.488 280.167 244.453 280.083C244.418 279.999 244.409 279.906 244.427 279.817C244.445 279.728 244.489 279.645 244.553 279.581C244.617 279.517 244.7 279.473 244.789 279.455C244.878 279.437 244.971 279.446 245.055 279.481C245.139 279.516 245.211 279.575 245.262 279.651C245.313 279.727 245.34 279.816 245.34 279.907C245.34 280.029 245.291 280.146 245.205 280.232C245.118 280.318 245.001 280.367 244.879 280.367Z" fill="#9BACBC"/>
<rect x="41" y="296.124" width="108.728" height="50.2139" rx="3" fill="#EDF1F6"/>
<rect x="41" y="350.903" width="51.8739" height="46.064" rx="3" fill="#EDF1F6"/>
<rect x="97.8535" y="350.903" width="51.8739" height="46.064" rx="3" fill="#EDF1F6"/>
<rect x="41" y="401.532" width="51.8739" height="46.064" rx="3" fill="#EDF1F6"/>
<rect x="97.8535" y="401.532" width="51.8739" height="46.064" rx="3" fill="#EDF1F6"/>
</g>
</g>
<rect x="164" y="299" width="74" height="128.312" rx="3" fill="#3D7FFC"/>
<path d="M187.676 338.575H184.464L181.948 343.55L179.432 338.575H176.221L180.503 346.01V351.058H183.393V346.01L187.676 338.575Z" fill="white"/>
<path d="M200.632 344.835C200.632 340.8 197.759 338.376 194.102 338.376C190.444 338.376 187.571 340.8 187.571 344.835C187.571 348.869 190.444 351.275 194.102 351.275C197.759 351.275 200.632 348.869 200.632 344.835ZM197.706 344.762C197.706 347.15 196.153 348.67 194.102 348.67C192.05 348.67 190.497 347.15 190.497 344.762C190.497 342.374 192.05 340.873 194.102 340.873C196.153 340.873 197.706 342.392 197.706 344.762Z" fill="white"/>
<path d="M212.838 345.848V338.575H209.929V345.848C209.929 346.734 209.858 347.422 209.448 347.928C209.055 348.399 208.484 348.706 207.681 348.706C206.878 348.706 206.307 348.399 205.915 347.928C205.504 347.422 205.433 346.734 205.433 345.848V338.575H202.525V345.848C202.525 347.603 202.828 348.815 203.684 349.773C204.559 350.714 205.879 351.257 207.681 351.257C209.465 351.257 210.804 350.714 211.66 349.773C212.534 348.815 212.838 347.603 212.838 345.848Z" fill="white"/>
<path d="M225.101 351.058L221.979 345.902C222.889 345.612 224.388 344.69 224.388 342.32C224.388 341.072 223.852 340.077 223.032 339.461C222.229 338.864 221.158 338.575 219.784 338.575H215.359V351.058H218.25V346.282H219.16L221.747 351.058H225.101ZM221.479 342.428C221.479 343.08 221.23 343.423 220.855 343.695C220.498 343.966 220.034 344.039 219.374 344.039H218.232V340.836H219.374C220.034 340.836 220.498 340.891 220.855 341.162C221.23 341.433 221.479 341.795 221.479 342.428Z" fill="white"/>
<path d="M200.611 384.541L191.137 359.422H185.015L175.541 384.541H181.663L183.448 379.488H192.412L194.198 384.541H200.611ZM191.064 374.908H184.797L187.93 365.893L191.064 374.908Z" fill="white"/>
<path d="M225.78 372C225.78 367.129 223.812 364.22 221.698 362.475C219.621 360.694 216.378 359.458 212.005 359.458H203.479V384.541H212.005C216.378 384.541 219.621 383.305 221.698 381.56C223.812 379.779 225.78 376.871 225.78 372ZM219.803 372C219.803 375.09 218.637 376.762 217.581 377.743C216.524 378.761 214.775 379.561 212.333 379.561H209.345V364.329H212.333C214.775 364.329 216.524 365.129 217.581 366.111C218.637 367.129 219.803 368.91 219.803 372Z" fill="white"/>
<path d="M504.844 400.992L374.808 389.544C374.119 389.484 373.448 389.288 372.835 388.967C372.221 388.647 371.676 388.209 371.232 387.677C370.787 387.146 370.451 386.532 370.243 385.87C370.035 385.209 369.96 384.513 370.02 383.822L376.332 311.819C376.392 311.129 376.588 310.456 376.907 309.841C377.227 309.226 377.664 308.68 378.195 308.234C378.725 307.789 379.337 307.452 379.997 307.244C380.657 307.036 381.352 306.96 382.041 307.02L512.074 318.456C513.466 318.579 514.752 319.251 515.65 320.324C516.548 321.397 516.984 322.784 516.862 324.179L510.554 396.196C510.43 397.591 509.76 398.879 508.689 399.778C507.619 400.678 506.236 401.114 504.844 400.992Z" fill="#9FC0FF"/>
<path d="M375.696 319.124L374.1 337.345L514.632 349.718L516.228 331.497L375.696 319.124Z" fill="#091B36"/>
<path d="M385.67 350.008L385.086 356.676L455.94 362.914L456.524 356.246L385.67 350.008Z" fill="white"/>
<path d="M469.686 357.404L469.102 364.072L500.452 366.832L501.037 360.164L469.686 357.404Z" fill="white"/>
<path d="M444.923 371.764L444.631 375.098L499.308 379.912L499.6 376.578L444.923 371.764Z" fill="#3D7FFC"/>
<path d="M444.296 378.946L444.004 382.28L498.681 387.094L498.973 383.76L444.296 378.946Z" fill="#3D7FFC"/>
<path d="M382.707 74.7071C383.098 74.3166 383.098 73.6834 382.707 73.2929L376.343 66.9289C375.953 66.5384 375.319 66.5384 374.929 66.9289C374.538 67.3195 374.538 67.9526 374.929 68.3431L380.586 74L374.929 79.6569C374.538 80.0474 374.538 80.6805 374.929 81.0711C375.319 81.4616 375.953 81.4616 376.343 81.0711L382.707 74.7071ZM190 75H192V73H190V75ZM196 75H200V73H196V75ZM204 75H208V73H204V75ZM212 75H216V73H212V75ZM220 75H224V73H220V75ZM228 75H232V73H228V75ZM236 75H240V73H236V75ZM244 75H248V73H244V75ZM252 75H256V73H252V75ZM260 75H264V73H260V75ZM268 75H272V73H268V75ZM276 75H280V73H276V75ZM284 75H288V73H284V75ZM292 75H296V73H292V75ZM300 75H304V73H300V75ZM308 75H312V73H308V75ZM316 75H320V73H316V75ZM324 75H328V73H324V75ZM332 75H336V73H332V75ZM340 75H344V73H340V75ZM348 75H352V73H348V75ZM356 75H360V73H356V75ZM364 75H368V73H364V75ZM372 75H376V73H372V75ZM380 75H382V73H380V75Z" fill="#76A5FF"/>
<path d="M353.707 342.707C354.098 342.317 354.098 341.683 353.707 341.293L347.343 334.929C346.953 334.538 346.319 334.538 345.929 334.929C345.538 335.319 345.538 335.953 345.929 336.343L351.586 342L345.929 347.657C345.538 348.047 345.538 348.681 345.929 349.071C346.319 349.462 346.953 349.462 347.343 349.071L353.707 342.707ZM251 343L252.962 343L252.962 341L251 341L251 343ZM256.885 343L260.808 343L260.808 341L256.885 341L256.885 343ZM264.731 343L268.654 343L268.654 341L264.731 341L264.731 343ZM272.577 343L276.5 343L276.5 341L272.577 341L272.577 343ZM280.423 343L284.346 343L284.346 341L280.423 341L280.423 343ZM288.269 343L292.192 343L292.192 341L288.269 341L288.269 343ZM296.115 343L300.038 343L300.038 341L296.115 341L296.115 343ZM303.962 343L307.885 343L307.885 341L303.962 341L303.962 343ZM311.808 343L315.731 343L315.731 341L311.808 341L311.808 343ZM319.654 343L323.577 343L323.577 341L319.654 341L319.654 343ZM327.5 343L331.423 343L331.423 341L327.5 341L327.5 343ZM335.346 343L339.269 343L339.269 341L335.346 341L335.346 343ZM343.192 343L347.115 343L347.115 341L343.192 341L343.192 343ZM351.038 343L353 343L353 341L351.038 341L351.038 343Z" fill="#76A5FF"/>
<path d="M138.293 253.707C138.683 254.098 139.317 254.098 139.707 253.707L146.071 247.343C146.462 246.953 146.462 246.319 146.071 245.929C145.681 245.538 145.047 245.538 144.657 245.929L139 251.586L133.343 245.929C132.953 245.538 132.319 245.538 131.929 245.929C131.538 246.319 131.538 246.953 131.929 247.343L138.293 253.707ZM139 177.999L139 176.999L138 176.999L138 177.999L139 177.999ZM391 176.999L389.031 176.999L389.031 178.999L391 178.999L391 176.999ZM385.094 176.999L381.156 176.999L381.156 178.999L385.094 178.999L385.094 176.999ZM377.219 176.999L373.281 176.999L373.281 178.999L377.219 178.999L377.219 176.999ZM369.344 176.999L365.406 176.999L365.406 178.999L369.344 178.999L369.344 176.999ZM361.469 176.999L357.531 176.999L357.531 178.999L361.469 178.999L361.469 176.999ZM353.594 176.999L349.656 176.999L349.656 178.999L353.594 178.999L353.594 176.999ZM345.719 176.999L341.781 176.999L341.781 178.999L345.719 178.999L345.719 176.999ZM337.844 176.999L333.906 176.999L333.906 178.999L337.844 178.999L337.844 176.999ZM329.969 176.999L326.031 176.999L326.031 178.999L329.969 178.999L329.969 176.999ZM322.094 176.999L318.156 176.999L318.156 178.999L322.094 178.999L322.094 176.999ZM314.219 176.999L310.281 176.999L310.281 178.999L314.219 178.999L314.219 176.999ZM306.344 176.999L302.406 176.999L302.406 178.999L306.344 178.999L306.344 176.999ZM298.469 176.999L294.531 176.999L294.531 178.999L298.469 178.999L298.469 176.999ZM290.594 176.999L286.656 176.999L286.656 178.999L290.594 178.999L290.594 176.999ZM282.719 176.999L278.781 176.999L278.781 178.999L282.719 178.999L282.719 176.999ZM274.844 176.999L270.906 176.999L270.906 178.999L274.844 178.999L274.844 176.999ZM266.969 176.999L263.031 176.999L263.031 178.999L266.969 178.999L266.969 176.999ZM259.094 176.999L255.156 176.999L255.156 178.999L259.094 178.999L259.094 176.999ZM251.219 176.999L247.281 176.999L247.281 178.999L251.219 178.999L251.219 176.999ZM243.344 176.999L239.406 176.999L239.406 178.999L243.344 178.999L243.344 176.999ZM235.469 176.999L231.531 176.999L231.531 178.999L235.469 178.999L235.469 176.999ZM227.594 176.999L223.656 176.999L223.656 178.999L227.594 178.999L227.594 176.999ZM219.719 176.999L215.781 176.999L215.781 178.999L219.719 178.999L219.719 176.999ZM211.844 176.999L207.906 176.999L207.906 178.999L211.844 178.999L211.844 176.999ZM203.969 176.999L200.031 176.999L200.031 178.999L203.969 178.999L203.969 176.999ZM196.094 176.999L192.156 176.999L192.156 178.999L196.094 178.999L196.094 176.999ZM188.219 176.999L184.281 176.999L184.281 178.999L188.219 178.999L188.219 176.999ZM180.344 176.999L176.406 176.999L176.406 178.999L180.344 178.999L180.344 176.999ZM172.469 176.999L168.531 176.999L168.531 178.999L172.469 178.999L172.469 176.999ZM164.594 176.999L160.656 176.999L160.656 178.999L164.594 178.999L164.594 176.999ZM156.719 176.999L152.781 176.999L152.781 178.999L156.719 178.999L156.719 176.999ZM148.844 176.999L144.906 176.999L144.906 178.999L148.844 178.999L148.844 176.999ZM140.969 176.999L139 176.999L139 178.999L140.969 178.999L140.969 176.999ZM138 177.999L138 180.082L140 180.082L140 177.999L138 177.999ZM138 184.249L138 188.416L140 188.416L140 184.249L138 184.249ZM138 192.582L138 196.749L140 196.749L140 192.582L138 192.582ZM138 200.916L138 205.083L140 205.083L140 200.916L138 200.916ZM138 209.249L138 213.416L140 213.416L140 209.249L138 209.249ZM138 217.583L138 221.75L140 221.75L140 217.583L138 217.583ZM138 225.916L138 230.083L140 230.083L140 225.916L138 225.916ZM138 234.25L138 238.416L140 238.416L140 234.25L138 234.25ZM138 242.583L138 246.75L140 246.75L140 242.583L138 242.583ZM138 250.917L138 253L140 253L140 250.917L138 250.917Z" fill="#76A5FF"/>
<defs>
<filter id="filter0_dd_17587_39859" x="0" y="241" width="285" height="199.927" filterUnits="userSpaceOnUse" color-interpolation-filters="sRGB">
<feFlood flood-opacity="0" result="BackgroundImageFix"/>
<feColorMatrix in="SourceAlpha" type="matrix" values="0 0 0 0 0 0 0 0 0 0 0 0 0 0 0 0 0 0 127 0" result="hardAlpha"/>
<feOffset dx="5" dy="5"/>
<feGaussianBlur stdDeviation="14.5"/>
<feColorMatrix type="matrix" values="0 0 0 0 0 0 0 0 0 0.296699 0 0 0 0 0.858629 0 0 0 0.14 0"/>
<feBlend mode="normal" in2="BackgroundImageFix" result="effect1_dropShadow_17587_39859"/>
<feColorMatrix in="SourceAlpha" type="matrix" values="0 0 0 0 0 0 0 0 0 0 0 0 0 0 0 0 0 0 127 0" result="hardAlpha"/>
<feOffset/>
<feGaussianBlur stdDeviation="3.5"/>
<feComposite in2="hardAlpha" operator="out"/>
<feColorMatrix type="matrix" values="0 0 0 0 0.0354167 0 0 0 0 0.105426 0 0 0 0 0.2125 0 0 0 0.09 0"/>
<feBlend mode="normal" in2="effect1_dropShadow_17587_39859" result="effect2_dropShadow_17587_39859"/>
<feBlend mode="normal" in="SourceGraphic" in2="effect2_dropShadow_17587_39859" result="shape"/>
</filter>
<clipPath id="clip0_17587_39859">
<rect x="24" y="265" width="227" height="141.927" rx="5" fill="white"/>
</clipPath>
</defs>
</svg>
