<svg xmlns="http://www.w3.org/2000/svg" width="130" height="100" viewBox="0 0 130 100" fill="none"><circle cx="65" cy="50" r="40" fill="#E6EEFF"></circle><g filter="url(#filter0_dd_1855_57356)"><rect x="15" y="21" width="100" height="58" rx="8" fill="white"></rect></g><rect x="21" y="27" width="45.9999" height="45.9999" rx="2.62701" fill="#F5F8FF"></rect><path d="M47.844 44.2776V64.792L33.4233 64.8739V44.2776H47.844Z" fill="#76A5FF"></path><path d="M59.0422 44.2971H47.8398V64.8115H59.0422V44.2971Z" fill="white"></path><path d="M51.5071 35.8789L46.7822 45.6044H45.5489L34.2456 44.037L33.3788 45.6044H32.4277L39.9115 35.9142L51.5071 35.8789Z" fill="#3D7FFC"></path><path d="M52.074 35.8789L47.3491 45.6044H32.9946L40.4784 35.9142L52.074 35.8789Z" fill="#76A5FF"></path><path d="M60.6051 46.1439H47.5753L39.874 35.8784L44.2096 35.8793L52.6792 35.8808L60.6051 46.1439Z" fill="#3D7FFC"></path><path d="M60.6053 46.1435H58.2179L44.2097 35.8789L52.6793 35.8804L60.6053 46.1435Z" fill="#3D7FFC"></path><path d="M40.1924 49.7002L37.1086 56.0479H27.7395L32.624 49.7233L40.1924 49.7002Z" fill="#3D7FFC"></path><path d="M40.4759 49.7002L37.392 56.0479H28.0229L32.9075 49.7233L40.4759 49.7002Z" fill="#76A5FF"></path><path d="M37.3715 56.0481V64.8984L28.0229 64.8002V56.0481H37.3715Z" fill="#76A5FF"></path><path d="M45.2854 56.0481V64.8002L37.3689 64.8984V56.0481H45.2854Z" fill="white"></path><path d="M46.155 56.4238H37.651L32.624 49.7236L35.1571 49.7242L40.9821 49.7254L46.155 56.4238Z" fill="#5D5FEF"></path><path d="M46.1554 56.4234H44.5414L35.1575 49.7239L40.9824 49.7251L46.1554 56.4234Z" fill="#5D5FEF"></path><path d="M46.1581 56.4236H37.6538V56.655H46.1581V56.4236Z" fill="#3D7FFC"></path><path d="M37.6493 56.6552L32.4844 49.9025L32.6224 49.7236L37.6493 56.4238V56.6552Z" fill="#3D7FFC"></path><path d="M60.5144 46.1433H47.573V46.5415H60.5144V46.1433Z" fill="#3D7FFC"></path><path d="M39.7315 36.1476C39.7172 36.166 47.5749 46.5418 47.5749 46.5418V46.1437L39.8736 35.8782L39.7315 36.1476Z" fill="#3D7FFC"></path><path d="M71 57C71 55.8954 71.8954 55 73 55H107C108.105 55 109 55.8954 109 57V71C109 72.1046 108.105 73 107 73H73C71.8954 73 71 72.1046 71 71V57Z" fill="#E7EEFF"></path><mask id="mask0_1855_57356" style="mask-type:alpha" maskUnits="userSpaceOnUse" x="71" y="55" width="38" height="17"><path d="M71 55H109V72H71V55Z" fill="#C6DBFF"></path></mask><g mask="url(#mask0_1855_57356)"><mask id="mask1_1855_57356" style="mask-type:alpha" maskUnits="userSpaceOnUse" x="71" y="53" width="38" height="19"><rect x="71.1257" y="53.4257" width="37.7487" height="17.5987" fill="#F5F8FF" stroke="black" stroke-width="0.251331"></rect></mask><g mask="url(#mask1_1855_57356)"><path opacity="0.8" d="M68.2182 73.939C66.9868 73.9374 66.3137 72.5026 67.0995 71.5546C67.2448 71.3793 67.4293 71.2405 67.638 71.1494L69.7493 70.2281C71.3152 69.5448 72.7201 68.5401 73.8729 67.2791L76.4277 64.4846C76.9726 63.8886 77.6127 63.3872 78.3219 63.001L78.51 62.8986C80.3763 61.8822 82.6084 61.7887 84.5531 62.6454L84.6112 62.671C85.4865 63.0566 86.267 63.6288 86.8982 64.3474L87.8442 65.4244C89.6638 67.4959 92.6823 68.0168 95.0909 66.6749C95.9129 66.2169 96.6125 65.5675 97.1301 64.7817L100.141 60.212C100.753 59.2817 101.602 58.5307 102.6 58.0355C104.574 57.0561 106.916 57.1799 108.776 58.3618L109.806 59.0162L114.809 63.2129L118.244 66.5262C119.226 67.4739 120.616 67.8701 121.951 67.5829C123.404 67.2701 124.87 68.0552 125.415 69.4381L125.476 69.5932C126.313 71.7167 124.746 74.0157 122.464 74.0126L68.2182 73.939Z" stroke="#3D7FFC" stroke-width="1.06001"></path><path d="M68.0796 73.1178C67.4501 73.1171 67.1446 72.3477 67.6022 71.9154C67.6746 71.847 67.7609 71.7949 67.8552 71.7627L69.6811 71.1385C70.9571 70.7024 72.1387 70.0277 73.1628 69.1504L74.9761 67.5972C75.5089 67.1408 76.1082 66.7686 76.7534 66.4933L76.8776 66.4403C78.3684 65.8042 80.0424 65.7448 81.5745 66.2736L81.7322 66.328C82.446 66.5744 83.1038 66.96 83.6674 67.4626L84.2779 68.007C85.8773 69.4331 88.1605 69.7977 90.1245 68.9407C90.8991 68.6027 91.5851 68.0904 92.1291 67.4436L94.1859 64.9985C94.8167 64.2486 95.626 63.6695 96.5393 63.3145C98.0722 62.7186 99.7853 62.7967 101.258 63.5296L102.208 64.0026L106.265 66.6683L108.997 68.7319C109.858 69.383 110.951 69.6503 112.016 69.4707L112.704 69.3545C113.535 69.2146 114.359 69.632 114.738 70.3841C115.38 71.6611 114.451 73.1673 113.021 73.1658L68.0796 73.1178Z" stroke="#5D5FEF" stroke-width="1.06001"></path></g></g><path d="M76.5001 38.0001C75.4123 38.0001 74.3489 37.6776 73.4444 37.0732C72.5399 36.4688 71.835 35.6099 71.4187 34.6048C71.0024 33.5998 70.8935 32.494 71.1057 31.4271C71.3179 30.3601 71.8417 29.3801 72.6109 28.6109C73.3801 27.8417 74.3601 27.3179 75.4271 27.1057C76.494 26.8935 77.5998 27.0024 78.6048 27.4187C79.6099 27.835 80.4688 28.5399 81.0732 29.4444C81.6776 30.3489 82.0001 31.4123 82.0001 32.5001C81.9985 33.9583 81.4184 35.3562 80.3873 36.3873C79.3562 37.4184 77.9583 37.9985 76.5001 38.0001Z" fill="#FECE4D"></path><path d="M76.4622 35.2551C76.0099 35.2546 75.5762 35.0747 75.2564 34.7548C74.9365 34.435 74.7566 34.0013 74.7561 33.549H75.8935C75.8935 33.6998 75.9534 33.8445 76.0601 33.9511C76.1667 34.0578 76.3114 34.1177 76.4622 34.1177C76.613 34.1177 76.7577 34.0578 76.8643 33.9511C76.971 33.8445 77.0309 33.6998 77.0309 33.549C77.0309 33.3477 76.6897 33.1612 76.208 32.9206C75.5955 32.6141 74.7561 32.1944 74.7561 31.2742C74.7561 30.8217 74.9359 30.3878 75.2558 30.0678C75.5758 29.7479 76.0097 29.5681 76.4622 29.5681C76.9147 29.5681 77.3486 29.7479 77.6686 30.0678C77.9886 30.3878 78.1683 30.8217 78.1683 31.2742H77.0309C77.0309 31.1234 76.971 30.9787 76.8643 30.8721C76.7577 30.7654 76.613 30.7055 76.4622 30.7055C76.3114 30.7055 76.1667 30.7654 76.0601 30.8721C75.9534 30.9787 75.8935 31.1234 75.8935 31.2742C75.8935 31.4755 76.2347 31.6621 76.7164 31.9026C77.3289 32.2092 78.1683 32.6289 78.1683 33.549C78.1678 34.0013 77.9879 34.435 77.668 34.7548C77.3482 35.0747 76.9145 35.2546 76.4622 35.2551Z" fill="white"></path><path d="M77.031 29H75.8936V30.1374H77.031V29Z" fill="white"></path><path d="M77.031 34.6863H75.8936V35.8237H77.031V34.6863Z" fill="white"></path><circle cx="76.5001" cy="45.6407" r="5.50006" fill="#5D5FEF"></circle><path fill-rule="evenodd" clip-rule="evenodd" d="M76.5382 49.0037C75.3467 47.572 74.3806 46.3018 74.3806 45.1273C74.3806 43.9528 75.3467 43 76.5382 43C77.7297 43 78.6958 43.9523 78.6958 45.1273C78.6958 46.3023 77.7297 47.572 76.5382 49.0037Z" fill="white"></path><path d="M85 31.209C85 30.6189 85.4783 30.1406 86.0684 30.1406H95.4316C96.0217 30.1406 96.5 30.6189 96.5 31.209C96.5 31.799 96.0217 32.2774 95.4316 32.2774H86.0684C85.4783 32.2774 85 31.799 85 31.209Z" fill="#E7EEFF"></path><path d="M85 44.209C85 43.6189 85.4783 43.1406 86.0684 43.1406H95.4316C96.0217 43.1406 96.5 43.6189 96.5 44.209C96.5 44.799 96.0217 45.2774 95.4316 45.2774H86.0684C85.4783 45.2774 85 44.799 85 44.209Z" fill="#E7EEFF"></path><path d="M85 35.4824C85 34.8924 85.4783 34.4141 86.0684 34.4141H106.432C107.022 34.4141 107.5 34.8924 107.5 35.4824C107.5 36.0725 107.022 36.5508 106.432 36.5508H86.0684C85.4783 36.5508 85 36.0725 85 35.4824Z" fill="#E7EEFF"></path><path d="M85 48.4824C85 47.8924 85.4783 47.4141 86.0684 47.4141H106.432C107.022 47.4141 107.5 47.8924 107.5 48.4824C107.5 49.0725 107.022 49.5508 106.432 49.5508H86.0684C85.4783 49.5508 85 49.0725 85 48.4824Z" fill="#E7EEFF"></path><defs><filter id="filter0_dd_1855_57356" x="3" y="11" width="124" height="82" filterUnits="userSpaceOnUse" color-interpolation-filters="sRGB"><feFlood flood-opacity="0" result="BackgroundImageFix"></feFlood><feColorMatrix in="SourceAlpha" type="matrix" values="0 0 0 0 0 0 0 0 0 0 0 0 0 0 0 0 0 0 127 0" result="hardAlpha"></feColorMatrix><feOffset dy="4"></feOffset><feGaussianBlur stdDeviation="5"></feGaussianBlur><feColorMatrix type="matrix" values="0 0 0 0 0.607843 0 0 0 0 0.67451 0 0 0 0 0.737255 0 0 0 0.35 0"></feColorMatrix><feBlend mode="normal" in2="BackgroundImageFix" result="effect1_dropShadow_1855_57356"></feBlend><feColorMatrix in="SourceAlpha" type="matrix" values="0 0 0 0 0 0 0 0 0 0 0 0 0 0 0 0 0 0 127 0" result="hardAlpha"></feColorMatrix><feOffset dy="2"></feOffset><feGaussianBlur stdDeviation="6"></feGaussianBlur><feColorMatrix type="matrix" values="0 0 0 0 0.89625 0 0 0 0 0.930414 0 0 0 0 0.995833 0 0 0 0.5 0"></feColorMatrix><feBlend mode="normal" in2="effect1_dropShadow_1855_57356" result="effect2_dropShadow_1855_57356"></feBlend><feBlend mode="normal" in="SourceGraphic" in2="effect2_dropShadow_1855_57356" result="shape"></feBlend></filter></defs></svg>