<svg width="38" height="44" viewBox="0 0 38 44" fill="none" xmlns="http://www.w3.org/2000/svg">
<g id="updated1_Adretreaver_logo_color" clip-path="url(#clip0_12946_80243)">
<g id="Layer_x0020_1">
<g id="_1773995062192">
<g id="Group">
<path id="Vector" d="M7.5999 38.3C7.5999 37.9 7.4999 37.6 7.1999 37.3C6.8999 37 6.5999 36.9 6.1999 36.9C5.7999 36.9 5.4999 37 5.1999 37.3C4.8999 37.6 4.7999 37.9 4.7999 38.3C4.7999 38.7 4.8999 39 5.1999 39.3C5.4999 39.6 5.7999 39.7 6.1999 39.7C6.5999 39.7 6.8999 39.6 7.1999 39.3C7.4999 39 7.5999 38.6 7.5999 38.3ZM8.0999 40.1H7.5999V39.5C7.5999 39.5 7.5999 39.6 7.4999 39.6C7.0999 40 6.6999 40.1 6.1999 40.1C5.6999 40.1 5.2999 39.9 4.8999 39.6C4.4999 39.2 4.3999 38.8 4.3999 38.3C4.3999 37.8 4.5999 37.4 4.8999 37C5.2999 36.6 5.6999 36.5 6.1999 36.5C6.6999 36.5 7.0999 36.7 7.4999 37L7.5999 37.1V34.7H8.0999V40.1Z" fill="#C91A2E"/>
<path id="Vector_2" d="M9 35.1V37.1H10.7C11.4 37.1 11.7 36.8 11.7 36.1C11.7 35.4 11.4 35.1 10.7 35.1H9ZM10.1 37.6L12.3 40.1H11.7L9.5 37.6H9V40.1H8.5V34.6H10.7C11.7 34.6 12.2 35.1 12.2 36.1C12.2 37.1 11.7 37.6 10.7 37.6H10.1ZM15.1 37.8C15 37.6 14.9 37.4 14.8 37.3C14.5 37 14.2 36.9 13.8 36.9C13.5 36.9 13.2 37 13 37.3C12.8 37.5 12.7 37.6 12.7 37.8H15.1ZM12.6 38.3C12.6 38.7 12.7 39 13 39.3C13.3 39.6 13.6 39.7 14 39.7C14.4 39.7 14.7 39.6 15 39.3C15.1 39.2 15.2 39.1 15.2 39L15.6 39.1C15.5 39.3 15.4 39.4 15.3 39.5C14.9 39.9 14.5 40 14 40C13.5 40 13.1 39.8 12.7 39.5C12.3 39.1 12.2 38.7 12.2 38.2C12.2 37.7 12.4 37.3 12.7 36.9C13.1 36.5 13.4 36.4 13.8 36.4C14.3 36.4 14.7 36.6 15.1 36.9C15.5 37.3 15.6 37.7 15.6 38.2L12.6 38.3ZM16.5 36.4V34.6H17V36.4H17.9V36.9H17V40.1H16.5V36.9H15.6V36.4H16.5ZM19.1 37.2C18.9 37.4 18.8 37.7 18.8 38V40H18.3V36.4H18.8V36.9C19.1 36.6 19.4 36.5 19.7 36.5C19.8 36.5 19.8 36.5 19.9 36.5C20.1 36.5 20.2 36.5 20.4 36.6L20.2 37C20.1 37 20 36.9 19.8 36.9C19.7 36.9 19.6 36.9 19.6 36.9C19.4 37 19.2 37.1 19.1 37.2ZM23.1 37.8C23 37.6 22.9 37.4 22.8 37.3C22.5 37 22.2 36.9 21.8 36.9C21.5 36.9 21.2 37 21 37.3C20.8 37.5 20.7 37.6 20.7 37.8H23.1ZM20.6 38.3C20.6 38.7 20.7 39 21 39.3C21.3 39.6 21.6 39.7 22 39.7C22.4 39.7 22.7 39.6 23 39.3C23.1 39.2 23.2 39.1 23.2 39L23.6 39.1C23.5 39.3 23.4 39.4 23.3 39.5C22.9 39.9 22.5 40 22 40C21.5 40 21.1 39.8 20.7 39.5C20.3 39.1 20.2 38.7 20.2 38.2C20.2 37.7 20.4 37.3 20.7 36.9C21.1 36.5 21.4 36.4 21.8 36.4C22.3 36.4 22.7 36.6 23.1 36.9C23.5 37.3 23.6 37.7 23.6 38.2L20.6 38.3ZM27.3 38.3C27.3 37.9 27.2 37.6 26.9 37.3C26.6 37 26.3 36.9 25.9 36.9C25.5 36.9 25.2 37 24.9 37.3C24.6 37.6 24.5 37.9 24.5 38.3C24.5 38.7 24.6 39 24.9 39.3C25.2 39.6 25.5 39.7 25.9 39.7C26.3 39.7 26.6 39.6 26.9 39.3C27.1 39 27.3 38.6 27.3 38.3ZM27.7 40.1H27.2V39.5C27.2 39.5 27.2 39.6 27.1 39.6C26.7 40 26.3 40.1 25.8 40.1C25.3 40.1 24.9 39.9 24.5 39.6C24.1 39.2 24 38.8 24 38.3C24 37.8 24.2 37.4 24.5 37C24.9 36.6 25.3 36.5 25.8 36.5C26.3 36.5 26.7 36.7 27.1 37L27.2 37.1V36.5H27.7V40.1ZM29.6 39.6L28 36.4H28.5L29.8 39.1L31.1 36.4H31.6L30 39.6L29.8 40.1L29.6 39.6ZM34.6 37.8C34.5 37.6 34.4 37.4 34.3 37.3C34 37 33.7 36.9 33.3 36.9C33 36.9 32.7 37 32.5 37.3C32.3 37.5 32.2 37.6 32.2 37.8H34.6ZM32.1 38.3C32.1 38.7 32.2 39 32.5 39.3C32.8 39.6 33.1 39.7 33.5 39.7C33.9 39.7 34.2 39.6 34.5 39.3C34.6 39.2 34.7 39.1 34.7 39L35.1 39.1C35 39.3 34.9 39.4 34.8 39.5C34.4 39.9 34 40 33.5 40C33 40 32.6 39.8 32.2 39.5C31.8 39.1 31.7 38.7 31.7 38.2C31.7 37.7 31.9 37.3 32.2 36.9C32.6 36.5 32.9 36.4 33.3 36.4C33.8 36.4 34.2 36.6 34.6 36.9C35 37.3 35.1 37.7 35.1 38.2L32.1 38.3ZM36.4 37.2C36.2 37.4 36.1 37.7 36.1 38V40H35.6V36.4H36.1V36.9C36.4 36.6 36.7 36.5 37 36.5C37.1 36.5 37.1 36.5 37.2 36.5C37.4 36.5 37.5 36.5 37.7 36.6L37.6 37C37.5 37 37.4 36.9 37.2 36.9C37.1 36.9 37 36.9 37 36.9C36.8 37 36.6 37.1 36.4 37.2Z" fill="#3E4095"/>
</g>
<g id="Group_2">
<g id="Group_3">
<g id="Group_4">
<path id="Vector_3" d="M5.80005 12.8V10.5L7.80005 9.30002V11.6L5.80005 12.8ZM5.80005 10.5V12.7L7.70005 11.6V9.40002L5.80005 10.5Z" fill="#BDBFC1"/>
</g>
<g id="Group_5">
<path id="Vector_4" d="M5.80005 10.5L3.80005 9.40001L5.80005 8.20001L7.80005 9.30001L5.80005 10.5ZM3.90005 9.40001L5.80005 10.5L7.80005 9.30001L5.90005 8.20001L3.90005 9.40001Z" fill="#BDBFC1"/>
</g>
<g id="Group_6">
<path id="Vector_5" d="M5.80005 12.8L3.80005 11.7V9.40002L5.80005 10.5V12.8ZM3.80005 11.7L5.70005 12.8V10.5L3.90005 9.40002L3.80005 11.7Z" fill="#BDBFC1"/>
</g>
</g>
<g id="Group_7">
<g id="Group_8">
<path id="Vector_6" d="M5.90015 8.20001V5.90001L7.90015 4.70001V7.00001L5.90015 8.20001ZM5.90015 5.90001V8.10001L7.80015 7.00001V4.80001L5.90015 5.90001Z" fill="#BDBFC1"/>
</g>
<g id="Group_9">
<path id="Vector_7" d="M9.80005 8.10001L7.80005 7.00001V4.70001L9.80005 5.80001V8.10001ZM7.80005 7.00001L9.70005 8.10001V5.80001L7.80005 4.70001V7.00001Z" fill="#BDBFC1"/>
</g>
<g id="Group_10">
<path id="Vector_8" d="M7.80005 9.3L5.80005 8.2L7.80005 7L9.80005 8.1L7.80005 9.3ZM5.90005 8.2L7.80005 9.3L9.80005 8.1L7.80005 7L5.90005 8.2Z" fill="#BDBFC1"/>
</g>
</g>
<g id="Group_11">
<g id="Group_12">
<path id="Vector_9" d="M1.80005 15.2V12.9L3.80005 11.7V14L1.80005 15.2ZM1.90005 12.9V15.1L3.80005 14V11.8L1.90005 12.9Z" fill="#BDBFC1"/>
</g>
<g id="Group_13">
<path id="Vector_10" d="M1.80005 12.9L-0.199951 11.8L1.80005 10.6L3.80005 11.7L1.80005 12.9ZM-0.0999513 11.8L1.80005 12.9L3.80005 11.7L1.90005 10.6L-0.0999513 11.8Z" fill="#BDBFC1"/>
</g>
<g id="Group_14">
<path id="Vector_11" d="M1.80005 15.2L-0.199951 14.1V11.8L1.80005 12.9V15.2ZM-0.0999513 14.1L1.80005 15.2V12.9L-0.0999513 11.8V14.1Z" fill="#BDBFC1"/>
</g>
</g>
<g id="Group_15">
<g id="Group_16">
<path id="Vector_12" d="M1.80005 17.6V15.3L3.80005 14.1V16.4L1.80005 17.6ZM1.80005 15.3V17.5L3.70005 16.4V14.2L1.80005 15.3Z" fill="#BDBFC1"/>
</g>
<g id="Group_17">
<path id="Vector_13" d="M5.69995 17.5L3.69995 16.4V14.1L5.69995 15.2V17.5ZM3.79995 16.4L5.69995 17.5V15.2L3.79995 14.1V16.4Z" fill="#BDBFC1"/>
</g>
<g id="Group_18">
<path id="Vector_14" d="M3.69995 18.7L1.69995 17.6L3.69995 16.4L5.69995 17.5L3.69995 18.7ZM1.79995 17.6L3.69995 18.7L5.69995 17.5L3.79995 16.4L1.79995 17.6Z" fill="#BDBFC1"/>
</g>
</g>
<g id="Group_19">
<g id="Group_20">
<path id="Vector_15" d="M7.80005 11.6V9.30001L9.80005 8.10001V10.4L7.80005 11.6ZM7.80005 9.30001V11.5L9.70005 10.4V8.20001L7.80005 9.30001Z" fill="#BDBFC1"/>
</g>
<g id="Group_21">
<path id="Vector_16" d="M11.7 11.6L9.69995 10.5V8.20001L11.7 9.30001V11.6ZM9.69995 10.4L11.6 11.5V9.20001L9.69995 8.10001V10.4Z" fill="#BDBFC1"/>
</g>
<g id="Group_22">
<path id="Vector_17" d="M9.69995 12.8L7.69995 11.7L9.69995 10.5L11.7 11.6L9.69995 12.8ZM7.79995 11.6L9.69995 12.7L11.7 11.5L9.79995 10.4L7.79995 11.6Z" fill="#BDBFC1"/>
</g>
</g>
<g id="Group_23">
<g id="Group_24">
<path id="Vector_18" d="M13.7 12.7V10.4L15.7 9.20001V11.5L13.7 12.7ZM13.7 10.4V12.6L15.6 11.5V9.30001L13.7 10.4Z" fill="#BDBFC1"/>
</g>
<g id="Group_25">
<path id="Vector_19" d="M13.7 10.4L11.7 9.30001L13.7 8.10001L15.7 9.20001L13.7 10.4ZM11.7 9.30001L13.6 10.4L15.6 9.20001L13.7 8.10001L11.7 9.30001Z" fill="#BDBFC1"/>
</g>
<g id="Group_26">
<path id="Vector_20" d="M13.7 12.7L11.7 11.6V9.30002L13.7 10.4V12.7ZM11.7 11.6L13.6 12.7V10.4L11.7 9.30002V11.6Z" fill="#BDBFC1"/>
</g>
</g>
<g id="Group_27">
<g id="Group_28">
<path id="Vector_21" d="M9.69995 17.3V15L11.7 13.8V16.1L9.69995 17.3ZM9.79995 15V17.2L11.7 16.1V13.9L9.79995 15Z" fill="#BDBFC1"/>
</g>
<g id="Group_29">
<path id="Vector_22" d="M9.80005 15L7.80005 13.9L9.80005 12.7L11.8 13.8L9.80005 15ZM7.80005 13.9L9.70005 15L11.7 13.8L9.80005 12.7L7.80005 13.9Z" fill="#BDBFC1"/>
</g>
<g id="Group_30">
<path id="Vector_23" d="M9.69995 17.4L7.69995 16.3V14L9.69995 15.1V17.4ZM7.79995 16.2L9.69995 17.3V15L7.79995 13.9V16.2Z" fill="#BDBFC1"/>
</g>
</g>
<g id="Group_31">
<g id="Group_32">
<path id="Vector_24" d="M13.7002 15V12.7L15.7002 11.5V13.8L13.7002 15ZM13.7002 12.7V14.9L15.6002 13.8V11.6L13.7002 12.7Z" fill="#BDBFC1"/>
</g>
<g id="Group_33">
<path id="Vector_25" d="M17.6001 15L15.6001 13.9V11.6L17.6001 12.7V15ZM15.6001 13.8L17.5001 14.9V12.6L15.6001 11.5V13.8Z" fill="#BDBFC1"/>
</g>
<g id="Group_34">
<path id="Vector_26" d="M15.6001 16.2L13.6001 15.1L15.6001 13.9L17.6001 15L15.6001 16.2ZM13.6001 15L15.5001 16.1L17.5001 14.9L15.6001 13.8L13.6001 15Z" fill="#BDBFC1"/>
</g>
</g>
<g id="Group_35">
<g id="Group_36">
<path id="Vector_27" d="M15.7002 7V4.7L17.7002 3.5V5.8L15.7002 7ZM15.7002 4.8V7L17.6002 5.9V3.7L15.7002 4.8Z" fill="#BDBFC1"/>
</g>
<g id="Group_37">
<path id="Vector_28" d="M19.6001 7.00001L17.6001 5.90001V3.60001L19.6001 4.70001V7.00001ZM17.7001 5.90001L19.6001 7.00001V4.70001L17.7001 3.60001V5.90001Z" fill="#BDBFC1"/>
</g>
<g id="Group_38">
<path id="Vector_29" d="M17.6001 8.19999L15.6001 7.09999L17.6001 5.89999L19.6001 6.99999L17.6001 8.19999ZM15.7001 7.09999L17.6001 8.19999L19.6001 6.99999L17.7001 5.89999L15.7001 7.09999Z" fill="#BDBFC1"/>
</g>
</g>
<g id="Group_39">
<g id="Group_40">
<path id="Vector_30" d="M17.6001 12.7V10.4L19.6001 9.20001V11.5L17.6001 12.7ZM17.7001 10.4V12.6L19.6001 11.5V9.30001L17.7001 10.4Z" fill="#BDBFC1"/>
</g>
<g id="Group_41">
<path id="Vector_31" d="M17.7002 10.4L15.7002 9.30001L17.7002 8.10001L19.7002 9.20001L17.7002 10.4ZM15.7002 9.30001L17.6002 10.4L19.6002 9.20001L17.7002 8.10001L15.7002 9.30001Z" fill="#BDBFC1"/>
</g>
<g id="Group_42">
<path id="Vector_32" d="M17.6001 12.7L15.6001 11.6V9.30002L17.6001 10.4V12.7ZM15.7001 11.6L17.6001 12.7V10.4L15.7001 9.30002V11.6Z" fill="#BDBFC1"/>
</g>
</g>
<g id="Group_43">
<g id="Group_44">
<path id="Vector_33" d="M15.6001 20.8V18.5L17.6001 17.3V19.6L15.6001 20.8ZM15.7001 18.5V20.7L17.6001 19.6V17.4L15.7001 18.5Z" fill="#BDBFC1"/>
</g>
<g id="Group_45">
<path id="Vector_34" d="M15.7002 18.5L13.7002 17.4L15.7002 16.2L17.7002 17.3L15.7002 18.5ZM13.7002 17.4L15.6002 18.5L17.6002 17.3L15.7002 16.2L13.7002 17.4Z" fill="#BDBFC1"/>
</g>
<g id="Group_46">
<path id="Vector_35" d="M15.6001 20.8L13.6001 19.7V17.4L15.6001 18.5V20.8ZM13.7001 19.7L15.6001 20.8V18.5L13.7001 17.4V19.7Z" fill="#BDBFC1"/>
</g>
</g>
<g id="Group_47">
<g id="Group_48">
<path id="Vector_36" d="M9.80005 19.7V17.4L11.8 16.2V18.5L9.80005 19.7ZM9.80005 17.4V19.6L11.7 18.5V16.3L9.80005 17.4Z" fill="#BDBFC1"/>
</g>
<g id="Group_49">
<path id="Vector_37" d="M13.7 19.7L11.7 18.6V16.3L13.7 17.4V19.7ZM11.7 18.6L13.6 19.7V17.4L11.7 16.3V18.6Z" fill="#BDBFC1"/>
</g>
<g id="Group_50">
<path id="Vector_38" d="M11.7 20.9L9.69995 19.8L11.7 18.6L13.7 19.7L11.7 20.9ZM9.69995 19.7L11.6 20.8L13.6 19.6L11.7 18.5L9.69995 19.7Z" fill="#BDBFC1"/>
</g>
</g>
<g id="Group_51">
<g id="Group_52">
<path id="Vector_39" d="M4.3999 25.8V23.5L6.3999 22.3V24.6L4.3999 25.8ZM4.4999 23.6V25.8L6.3999 24.7V22.5L4.4999 23.6Z" fill="#BDBFC1"/>
</g>
<g id="Group_53">
<path id="Vector_40" d="M4.5 23.6L2.5 22.5L4.5 21.3L6.5 22.4L4.5 23.6ZM2.5 22.4L4.4 23.5L6.4 22.3L4.5 21.2L2.5 22.4Z" fill="#BDBFC1"/>
</g>
<g id="Group_54">
<path id="Vector_41" d="M4.3999 25.9L2.3999 24.8V22.5L4.3999 23.6V25.9ZM2.4999 24.7L4.3999 25.8V23.5L2.4999 22.4V24.7Z" fill="#BDBFC1"/>
</g>
</g>
<g id="Group_55">
<g id="Group_56">
<path id="Vector_42" d="M4.5 21.2V18.9L6.5 17.7V20L4.5 21.2ZM4.5 18.9V21.1L6.4 20V17.8L4.5 18.9Z" fill="#BDBFC1"/>
</g>
<g id="Group_57">
<path id="Vector_43" d="M8.3999 21.2L6.3999 20.1V17.8L8.3999 18.9V21.2ZM6.4999 20L8.3999 21.1V18.8L6.4999 17.7V20Z" fill="#BDBFC1"/>
</g>
<g id="Group_58">
<path id="Vector_44" d="M6.3999 22.4L4.3999 21.3L6.3999 20.1L8.3999 21.2L6.3999 22.4ZM4.4999 21.2L6.3999 22.3L8.3999 21.1L6.4999 20L4.4999 21.2Z" fill="#BDBFC1"/>
</g>
</g>
<g id="Group_59">
<g id="Group_60">
<path id="Vector_45" d="M0.5 28.2V25.9L2.5 24.7V27L0.5 28.2ZM0.5 25.9V28.1L2.4 27V24.8L0.5 25.9Z" fill="#BDBFC1"/>
</g>
<g id="Group_61">
<path id="Vector_46" d="M0.5 26L-1.5 24.9L0.5 23.7L2.5 24.8L0.5 26ZM-1.5 24.8L0.4 25.9L2.4 24.7L0.5 23.6L-1.5 24.8Z" fill="#BDBFC1"/>
</g>
<g id="Group_62">
<path id="Vector_47" d="M0.5 28.3L-1.5 27.2V24.9L0.5 26V28.3ZM-1.5 27.1L0.4 28.2V25.9L-1.5 24.8V27.1Z" fill="#BDBFC1"/>
</g>
</g>
<g id="Group_63">
<g id="Group_64">
<path id="Vector_48" d="M0.399902 30.5V28.2L2.3999 27V29.3L0.399902 30.5ZM0.499902 28.2V30.4L2.3999 29.3V27.1L0.499902 28.2Z" fill="#BDBFC1"/>
</g>
<g id="Group_65">
<path id="Vector_49" d="M4.3999 30.5L2.3999 29.4V27.1L4.3999 28.2V30.5ZM2.3999 29.3L4.2999 30.4V28.1L2.3999 27V29.3Z" fill="#BDBFC1"/>
</g>
<g id="Group_66">
<path id="Vector_50" d="M2.3999 31.7L0.399902 30.6L2.3999 29.4L4.3999 30.5L2.3999 31.7ZM0.399902 30.5L2.2999 31.6L4.2999 30.4L2.3999 29.3L0.399902 30.5Z" fill="#BDBFC1"/>
</g>
</g>
<g id="Group_67">
<g id="Group_68">
<path id="Vector_51" d="M6.40015 24.6V22.3L8.40015 21.1V23.4L6.40015 24.6ZM6.40015 22.4V24.6L8.30015 23.5V21.3L6.40015 22.4Z" fill="#BDBFC1"/>
</g>
<g id="Group_69">
<path id="Vector_52" d="M10.3 24.6L8.30005 23.5V21.2L10.3 22.3V24.6ZM8.40005 23.5L10.3 24.6V22.3L8.40005 21.2V23.5Z" fill="#BDBFC1"/>
</g>
<g id="Group_70">
<path id="Vector_53" d="M8.30005 25.8L6.30005 24.7L8.30005 23.5L10.3 24.6L8.30005 25.8ZM6.40005 24.7L8.30005 25.8L10.3 24.6L8.40005 23.5L6.40005 24.7Z" fill="#BDBFC1"/>
</g>
</g>
<g id="Group_71">
<g id="Group_72">
<path id="Vector_54" d="M12.3999 25.9V23.6L14.3999 22.4V24.7L12.3999 25.9ZM12.3999 23.6V25.8L14.2999 24.7V22.5L12.3999 23.6Z" fill="#BDBFC1"/>
</g>
<g id="Group_73">
<path id="Vector_55" d="M12.3999 23.6L10.3999 22.5L12.3999 21.3L14.3999 22.4L12.3999 23.6ZM10.4999 22.5L12.3999 23.6L14.3999 22.4L12.4999 21.3L10.4999 22.5Z" fill="#BDBFC1"/>
</g>
<g id="Group_74">
<path id="Vector_56" d="M12.3999 25.9L10.3999 24.8V22.5L12.3999 23.6V25.9ZM10.3999 24.8L12.2999 25.9V23.6L10.3999 22.5V24.8Z" fill="#BDBFC1"/>
</g>
</g>
<g id="Group_75">
<g id="Group_76">
<path id="Vector_57" d="M8.3999 30.4V28.1L10.3999 26.9V29.2L8.3999 30.4ZM8.3999 28.1V30.3L10.2999 29.2V27L8.3999 28.1Z" fill="#BDBFC1"/>
</g>
<g id="Group_77">
<path id="Vector_58" d="M8.3999 28.1L6.3999 27L8.3999 25.8L10.3999 26.9L8.3999 28.1ZM6.4999 27L8.3999 28.1L10.3999 26.9L8.4999 25.8L6.4999 27Z" fill="#BDBFC1"/>
</g>
<g id="Group_78">
<path id="Vector_59" d="M8.3999 30.4L6.3999 29.3V27L8.3999 28.1V30.4ZM6.3999 29.3L8.2999 30.4V28.1L6.4999 27L6.3999 29.3Z" fill="#BDBFC1"/>
</g>
</g>
<g id="Group_79">
<g id="Group_80">
<path id="Vector_60" d="M12.4001 28.5V26.2L14.4001 25V27.3L12.4001 28.5ZM12.4001 26.3V28.5L14.3001 27.4V25.2L12.4001 26.3Z" fill="#BDBFC1"/>
</g>
<g id="Group_81">
<path id="Vector_61" d="M16.3 28.5L14.3 27.4V25.1L16.3 26.2V28.5ZM14.3 27.4L16.2001 28.5V26.2L14.3 25.1V27.4Z" fill="#BDBFC1"/>
</g>
<g id="Group_82">
<path id="Vector_62" d="M14.3 29.7L12.3 28.6L14.3 27.4L16.3 28.5L14.3 29.7ZM12.4 28.6L14.3 29.7L16.3 28.5L14.4 27.4L12.4 28.6Z" fill="#BDBFC1"/>
</g>
</g>
<g id="Group_83">
<g id="Group_84">
<path id="Vector_63" d="M14.8 20.3V18L16.8 16.8V19.1L14.8 20.3ZM14.8 18V20.2L16.7001 19.1V16.9L14.8 18Z" fill="#BDBFC1"/>
</g>
<g id="Group_85">
<path id="Vector_64" d="M18.7 20.3L16.7 19.2V16.9L18.7 18V20.3ZM16.7999 19.1L18.7 20.2V17.9L16.7999 16.8V19.1Z" fill="#BDBFC1"/>
</g>
<g id="Group_86">
<path id="Vector_65" d="M16.7 21.5L14.7 20.4L16.7 19.2L18.7 20.3L16.7 21.5ZM14.7999 20.3L16.7 21.4L18.7 20.2L16.7999 19.1L14.7999 20.3Z" fill="#BDBFC1"/>
</g>
</g>
<g id="Group_87">
<g id="Group_88">
<path id="Vector_66" d="M16.3 25.8V23.5L18.3 22.3V24.6L16.3 25.8ZM16.3 23.6V25.8L18.2001 24.7V22.5L16.3 23.6Z" fill="#BDBFC1"/>
</g>
<g id="Group_89">
<path id="Vector_67" d="M16.3 23.6L14.3 22.5L16.3 21.3L18.3 22.4L16.3 23.6ZM14.4 22.4L16.3 23.5L18.3 22.3L16.4 21.2L14.4 22.4Z" fill="#BDBFC1"/>
</g>
<g id="Group_90">
<path id="Vector_68" d="M16.3 25.9L14.3 24.8V22.5L16.3 23.6V25.9ZM14.3 24.7L16.2001 25.8V23.5L14.3 22.4V24.7Z" fill="#BDBFC1"/>
</g>
</g>
<g id="Group_91">
<g id="Group_92">
<path id="Vector_69" d="M14.2 33.7V31.4L16.2 30.2V32.5L14.2 33.7ZM14.2999 31.4V33.6L16.2 32.5V30.3L14.2999 31.4Z" fill="#BDBFC1"/>
</g>
<g id="Group_93">
<path id="Vector_70" d="M14.3 31.4L12.3 30.3L14.3 29.1L16.3 30.2L14.3 31.4ZM12.3 30.3L14.2001 31.4L16.2001 30.2L14.3 29.1L12.3 30.3Z" fill="#BDBFC1"/>
</g>
<g id="Group_94">
<path id="Vector_71" d="M14.2 33.7L12.2 32.6V30.3L14.2 31.4V33.7ZM12.2999 32.6L14.2 33.7V31.4L12.2999 30.3V32.6Z" fill="#BDBFC1"/>
</g>
</g>
<g id="Group_95">
<g id="Group_96">
<path id="Vector_72" d="M8.40015 32.6V30.3L10.4001 29.1V31.4L8.40015 32.6ZM8.40015 30.4V32.6L10.3001 31.5V29.3L8.40015 30.4Z" fill="#BDBFC1"/>
</g>
<g id="Group_97">
<path id="Vector_73" d="M12.3 32.6L10.3 31.5V29.2L12.3 30.3V32.6ZM10.3 31.5L12.2 32.6V30.3L10.3 29.2V31.5Z" fill="#BDBFC1"/>
</g>
<g id="Group_98">
<path id="Vector_74" d="M10.3 33.8L8.30005 32.7L10.3 31.5L12.3 32.6L10.3 33.8ZM8.30005 32.7L10.2 33.8L12.2 32.6L10.3 31.5L8.30005 32.7Z" fill="#BDBFC1"/>
</g>
</g>
</g>
<g id="Group_99">
<path id="Vector_75" d="M30.4001 25L25.6001 24L29.8001 6L34.6001 23.6L30.4001 25ZM25.6001 24L30.4001 24.9L34.5001 23.6L29.8001 6.1L25.6001 24Z" fill="#BDBFC1"/>
<path id="Vector_76" d="M30.4001 25L25.6001 7.3L29.8001 6L34.6001 7L30.4001 25ZM25.6001 7.4L30.4001 24.9L34.6001 7L29.8001 6L25.6001 7.4Z" fill="#BDBFC1"/>
<path id="Vector_77" d="M22.0002 20L20.7002 15.8L21.7002 11L39.7002 15.2L22.0002 20ZM20.7002 15.8L22.0002 20L39.5002 15.2L21.6002 11L20.7002 15.8Z" fill="#BDBFC1"/>
<path id="Vector_78" d="M31.9002 23.4L22.2002 7.60001L38.0002 16.8L36.0002 20.7L31.9002 23.4ZM22.3002 7.70001L31.9002 23.4L36.0002 20.7L38.0002 16.9L22.3002 7.70001Z" fill="#BDBFC1"/>
<path id="Vector_79" d="M22.2002 23.4L31.9002 7.60001L36.0002 10.3L38.0002 14.2L22.2002 23.4ZM31.9002 7.60001L22.3002 23.3L38.0002 14.2L36.0002 10.4L31.9002 7.60001Z" fill="#BDBFC1"/>
<path id="Vector_80" d="M28.3002 23.4L24.2002 20.7L22.2002 16.8L38.0002 7.60001L28.3002 23.4ZM24.3002 20.6L28.4002 23.3L38.0002 7.70001L22.3002 16.8L24.3002 20.6Z" fill="#BDBFC1"/>
<path id="Vector_81" d="M38.0002 23.4L22.2002 14.2L24.2002 10.3L28.3002 7.60001L38.0002 23.4ZM22.2002 14.2L38.0002 23.3L28.3002 7.60001L24.2002 10.3L22.2002 14.2Z" fill="#BDBFC1"/>
<path id="Vector_82" d="M38.6001 20L20.6001 15.8L38.2001 11L39.5001 15.2L38.6001 20ZM20.7001 15.8L38.6001 20L39.5001 15.2L38.2001 11L20.7001 15.8Z" fill="#BDBFC1"/>
</g>
<g id="Group_100">
<path id="Vector_83" fill-rule="evenodd" clip-rule="evenodd" d="M20.8001 23H11.5001L9.6001 25.7C25.2001 25.7 17.8001 25.7 28.6001 25.7L32.5001 31.2C32.7001 31.5 32.9001 31.8 33.2001 32.1C34.1001 33.3 33.3001 33 37.1001 33C37.0001 32.7 34.6001 29.5 34.2001 28.9C33.9001 28.5 33.7001 28.2 33.5001 27.9L31.3001 24.8L31.6001 24.5C33.4001 23.4 35.1001 21.7 35.9001 19.7C39.3001 11.6 32.5001 5.09999 28.0001 5.19999C26.4001 5.19999 24.7001 5.19999 23.1001 5.19999V7.89999H28.4001C28.9001 7.99999 29.9001 8.39999 30.3001 8.69999C35.4001 11.8 35.7001 18.7 30.6001 22.2C29.0001 23.2 28.3001 23.1 26.3001 23.1C24.4001 23 22.6001 23 20.8001 23Z" fill="#1A146A"/>
<path id="Vector_84" fill-rule="evenodd" clip-rule="evenodd" d="M19.9001 5.10001L19.8001 5.20001L0.100098 33.1H3.4001L19.8001 10L19.7001 33.2H22.5001L22.6001 5.20001H19.9001V5.10001Z" fill="#C91A2E"/>
</g>
<path id="Vector_85" fill-rule="evenodd" clip-rule="evenodd" d="M3.60005 34.6H4.00005V40.1H3.60005V38.3H1.60005L0.300049 40.1H-0.199951L3.60005 34.6ZM3.60005 37.8V35.4L1.90005 37.8H3.60005Z" fill="#C91A2E"/>
</g>
</g>
</g>
<defs>
<clipPath id="clip0_12946_80243">
<rect width="38" height="44" fill="white"/>
</clipPath>
</defs>
</svg>
