<svg width="47" height="47" viewBox="0 0 47 47" fill="none" xmlns="http://www.w3.org/2000/svg">
<g clip-path="url(#clip0_16_24604)">
<path d="M9.1825 10.39C11.5425 10.92 12.3625 12.43 12.6425 13.48C13.0525 12.95 13.4825 12.44 13.9525 11.96C14.9225 10.98 16.0025 10.14 17.1825 9.43C20.3625 7.52 23.8025 6.78 27.4825 7.16C28.9725 7.31 30.4225 7.66 31.8125 8.22C32.1525 8.36 32.4825 8.5 32.8325 8.65C31.9425 9.58 31.0625 10.49 30.1625 11.42C34.5125 12.6 38.8425 13.76 43.1625 14.93C43.1725 14.91 43.1925 14.9 43.1925 14.89C42.0525 10.59 40.8925 6.3 39.6925 2C39.6025 2.09 39.5225 2.17 39.4425 2.24C38.4425 3.19 37.4425 4.14 36.4425 5.09C36.3825 5.14 36.3525 5.14 36.2925 5.11C35.9025 4.91 35.5125 4.7 35.1125 4.51C32.2225 3.14 29.1725 2.42 25.9625 2.37C25.1625 2.35 24.3725 2.4 23.5825 2.48C22.3025 2.62 21.0425 2.87 19.8025 3.23C17.6625 3.85 15.6725 4.76 13.8325 6C12.0225 7.21 10.4425 8.68 9.0625 10.36C9.1025 10.36 9.1425 10.38 9.1825 10.39Z" fill="#9FC0FF"/>
<path d="M43.4321 35.3672C43.4321 35.3672 43.4221 35.3872 43.4121 35.3972V35.3672H43.4321Z" fill="#9FC0FF"/>
<path d="M38.9512 34.3625C38.7512 34.3125 38.5912 34.3625 38.4512 34.5125C37.8912 35.0725 37.3512 35.6525 36.7712 36.1825C35.3212 37.5125 33.6712 38.5625 31.8312 39.2925C30.8512 39.6825 29.8612 39.9425 28.8412 40.1225C28.8212 40.3525 28.8012 40.5825 28.7512 40.8325C28.6912 41.1825 28.6312 41.4825 28.5212 41.9525C28.2412 43.3025 27.4712 44.3625 26.7012 45.0525C27.9812 44.9925 29.2412 44.8325 30.4912 44.5425C32.3012 44.1125 34.0312 43.4925 35.6712 42.6425C37.3912 41.7525 38.9412 40.6325 40.3512 39.3125C41.3712 38.3625 42.2712 37.3025 43.0012 36.1125C43.1412 35.8825 43.2712 35.6525 43.4112 35.4025C43.3412 35.3825 43.2912 35.3625 43.2612 35.3525C41.8212 35.0225 40.3812 34.6925 38.9512 34.3625Z" fill="#9FC0FF"/>
<path d="M23.6817 27.1344C23.6617 26.9744 23.6517 26.8244 23.6317 26.6744C23.5917 26.2744 23.5517 25.8744 23.5117 25.4744C23.5117 25.3844 23.5217 25.3144 23.5717 25.2444C25.0517 23.2144 26.5317 21.1844 28.0117 19.1444C28.0517 19.0844 28.1017 19.0544 28.1717 19.0644H30.3217V25.0744H31.4917C31.4317 25.7644 31.3717 26.4344 31.3117 27.1244H30.3317V29.3544H27.9917V27.1244H23.6617H23.6817V27.1344ZM28.0017 22.5144H27.9817C27.4017 23.3644 26.8217 24.2244 26.2317 25.0944H28.0017V22.5244V22.5144Z" fill="#3D7FFC"/>
<path d="M17.8322 22.3544C17.2222 21.9244 16.6122 21.4944 15.9922 21.0544C16.7422 19.9144 17.7122 19.1044 19.1022 18.8844C19.8222 18.7744 20.5222 18.8144 21.1922 19.1044C22.3122 19.5844 22.9022 20.4444 22.9722 21.6644C23.0122 22.5344 22.7422 23.3144 22.3022 24.0544C21.9322 24.6744 21.4822 25.2244 21.0022 25.7644C20.6322 26.1844 20.2322 26.5844 19.8522 26.9944C19.8322 27.0144 19.8122 27.0344 19.7822 27.0744H23.0022C22.9322 27.8444 22.8722 28.6044 22.8022 29.3644H16.3622V27.6244C16.3622 27.5544 16.3822 27.5144 16.4322 27.4644C17.3722 26.4244 18.3122 25.3944 19.2422 24.3544C19.6022 23.9544 19.9122 23.5144 20.1622 23.0444C20.3122 22.7744 20.4122 22.4844 20.4422 22.1744C20.4922 21.5344 20.0422 21.1044 19.4022 21.1844C18.9522 21.2344 18.5922 21.4744 18.2922 21.8044C18.1322 21.9844 17.9922 22.1744 17.8322 22.3744V22.3544Z" fill="#3D7FFC"/>
<path d="M42.9821 29.6847C42.1221 29.5047 41.2621 29.3347 40.4021 29.1547C41.5021 26.5047 42.5921 23.8647 43.6921 21.2047H39.6621C39.7221 20.4847 39.7821 19.7747 39.8421 19.0547H46.2121V20.7847C46.2121 20.7847 46.2121 20.8847 46.1921 20.9247C45.1321 23.8147 44.0721 26.7147 43.0121 29.6047C43.0121 29.6247 42.9921 29.6547 42.9821 29.6847Z" fill="#3D7FFC"/>
<path d="M31.9121 29.3337C32.0021 29.1438 32.0821 28.9737 32.1721 28.8037C33.3221 26.4437 34.4621 24.0937 35.6121 21.7337C36.1921 20.5437 36.7621 19.3637 37.3421 18.1737C37.3721 18.1037 37.4121 18.0938 37.4821 18.0938C38.0221 18.1438 38.5621 18.1937 39.1021 18.2337C39.2221 18.2437 39.3421 18.2538 39.4721 18.2638C39.4021 18.4138 39.3321 18.5637 39.2621 18.7137C38.1421 21.0137 37.0221 23.3238 35.9021 25.6238C35.2821 26.8938 34.6621 28.1637 34.0521 29.4338C34.0321 29.4738 34.0121 29.5037 33.9521 29.5037C33.2821 29.4437 32.6121 29.3837 31.9121 29.3237V29.3337Z" fill="#3D7FFC"/>
<path d="M26.542 41.4878C26.642 41.0378 26.702 40.7578 26.762 40.4178C27.052 39.0678 26.642 38.2978 25.922 37.7878C25.212 37.2778 22.162 34.8778 21.522 34.4378C21.172 34.1978 20.672 34.0378 20.112 34.0378C19.652 34.0378 19.142 34.1478 18.662 34.4278C17.602 35.0378 16.992 35.3178 16.692 35.4878C16.592 35.5478 16.372 35.6078 16.082 35.6078C15.542 35.6078 14.722 35.3978 13.842 34.5378C12.792 33.5078 11.462 31.6778 10.882 30.7778C10.302 29.8778 9.19204 27.9178 8.69204 26.5278C8.05204 24.7678 8.73204 23.7378 9.01204 23.5378C9.29204 23.3378 9.80204 22.8978 10.802 22.1878C11.802 21.4778 12.112 20.3578 11.982 19.5878C11.852 18.8178 10.932 15.0578 10.762 14.1878C10.602 13.3278 10.072 12.6278 8.72204 12.3378C8.39204 12.2578 8.11204 12.1878 7.65204 12.0978C7.38204 12.0378 7.11204 12.0078 6.86204 12.0078H6.85204C6.00204 12.0078 5.27204 12.2878 4.86204 12.5478C2.42204 14.1078 -0.0579641 17.6178 1.48204 23.7778C2.89204 29.4178 5.73204 33.3978 6.04204 33.8878C6.36204 34.3778 8.81204 38.6078 13.352 42.2278C16.012 44.3578 18.472 45.1078 20.542 45.1078C22.332 45.1078 23.842 44.5478 24.972 43.8178C25.502 43.4778 26.302 42.6578 26.542 41.4878Z" fill="#FECE4D"/>
</g>
<defs>
<clipPath id="clip0_16_24604">
<rect width="45.21" height="43.11" fill="white" transform="translate(1.00195 2)"/>
</clipPath>
</defs>
</svg>
