<svg width="47" height="47" viewBox="0 0 47 47" fill="none" xmlns="http://www.w3.org/2000/svg">
<g clip-path="url(#clip0_21_31193)">
<path fill-rule="evenodd" clip-rule="evenodd" d="M40.2543 15.2578C40.1853 15.1202 40.1145 14.9838 40.0419 14.8486C39.8748 14.5319 39.8924 14.1537 40.1123 13.8722L42.461 10.7318C42.6985 10.4063 42.7161 9.9577 42.4786 9.63223C41.0447 7.6706 39.3206 5.94647 37.3678 4.52143C37.0423 4.28392 36.5937 4.29272 36.2682 4.53902L33.1366 6.8877C32.8463 7.09882 32.4681 7.12521 32.1514 6.95808C31.175 6.44788 30.1458 6.01684 29.0814 5.68258C28.7383 5.57702 28.4833 5.28673 28.4305 4.93487L27.8851 1.06438C27.8323 0.668538 27.5244 0.343066 27.1286 0.28149C25.9498 0.0967621 24.7359 0 23.5044 0C22.2729 0 21.0502 0.0967621 19.8714 0.28149C19.4756 0.343066 19.1677 0.668538 19.1149 1.06438L18.5695 4.93487C18.5168 5.28673 18.2617 5.57702 17.9186 5.68258C16.8454 6.01684 15.8162 6.43908 14.8486 6.95808C14.5319 7.12521 14.1537 7.09882 13.8634 6.8877L10.7406 4.53902C10.4151 4.29272 9.9665 4.28392 9.64103 4.52143C7.67939 5.95527 5.95527 7.67939 4.52143 9.64102C4.28392 9.9665 4.29272 10.4151 4.53902 10.7406L6.8877 13.8634C7.09882 14.1449 7.12521 14.5319 6.95808 14.8398C6.43908 15.825 6.00805 16.8542 5.67378 17.9274C5.56822 18.2616 5.28673 18.5167 4.93487 18.5695L1.06438 19.1237C0.668538 19.1765 0.343066 19.4844 0.28149 19.8802C0.0967622 21.059 0 22.2641 0 23.4956C0 24.7271 0.0967621 25.941 0.290286 27.1286C0.351862 27.5244 0.677335 27.8323 1.07318 27.8851L4.93487 28.4305C5.28673 28.4832 5.56822 28.7296 5.67378 29.0726C6.00805 30.1546 6.43908 31.175 6.94928 32.1514C7.11641 32.4681 7.09002 32.8463 6.87891 33.1278L4.53902 36.2506C4.30152 36.5761 4.28392 37.0247 4.52143 37.3502C5.95527 39.3118 7.68819 41.0447 9.64103 42.4698C9.9665 42.7073 10.4151 42.6985 10.7406 42.4522L13.8634 40.1123C14.1537 39.9012 14.5319 39.8748 14.8398 40.0419C15.8162 40.5609 16.8542 40.9832 17.9274 41.3262C18.2704 41.4318 18.5168 41.7133 18.5695 42.0651L19.1149 45.918C19.1677 46.3139 19.4756 46.6393 19.8714 46.7009C21.059 46.8856 22.2729 46.9824 23.5044 46.9824C24.7359 46.9824 25.9498 46.8856 27.1286 46.7009C27.5244 46.6393 27.8323 46.3139 27.8851 45.918L28.4305 42.0651C28.4833 41.7133 28.7296 41.4318 29.0726 41.3262C30.1458 40.992 31.1838 40.5609 32.169 40.0419C32.4857 39.8748 32.8639 39.9012 33.1454 40.1123L36.2682 42.4522C36.5937 42.6985 37.0423 42.7073 37.3678 42.4698C39.3206 41.0359 41.0447 39.3118 42.4786 37.359C42.7161 37.0335 42.7073 36.5849 42.461 36.2594L40.1211 33.1278C40.0068 32.9754 39.9466 32.7946 39.942 32.6105H33.2855C30.8476 35.2295 27.3698 36.8664 23.5044 36.8664C16.1153 36.8664 10.1336 30.8671 10.1336 23.4956C10.1336 16.1241 16.1153 10.1248 23.5044 10.1248C27.785 10.1248 31.5902 12.1323 34.0343 15.2578H40.2543Z" fill="#3D7FFC"/>
<path d="M22.4482 16.8281H17.7333L12.8691 31.1445H16.5993L17.7333 27.474H22.2841L23.515 31.1445H27.3869L22.4482 16.8281ZM18.248 25.0494L19.188 22.013C19.4566 21.1849 19.6879 20.0957 19.9266 19.2527H19.9714C20.2101 20.0957 20.4861 21.1626 20.7771 22.013L21.7693 25.0494H18.248Z" fill="#FECE4D"/>
<path d="M39.2267 17.8676C38.1598 17.0992 36.5857 16.7188 34.3625 16.7188C32.1394 16.7188 30.6174 16.853 29.5059 17.0172V31.147H33.0644V26.0292C33.4001 26.0665 33.8254 26.0889 34.2954 26.0889C36.4216 26.0889 38.2344 25.6189 39.4654 24.5819C40.4128 23.7762 40.9351 22.59 40.9351 21.1875C40.9351 19.7849 40.2487 18.5988 39.2267 17.8676ZM34.2655 23.6121C33.7508 23.6121 33.3703 23.5897 33.0644 23.5226V19.2926C33.333 19.2329 33.8254 19.1657 34.5565 19.1657C36.347 19.1657 37.3616 19.9491 37.3616 21.2621C37.3616 22.7318 36.1828 23.6121 34.2655 23.6121Z" fill="#FECE4D"/>
<path d="M46.8295 16.8281H43.2188V31.1445H46.8295V16.8281Z" fill="#FECE4D"/>
</g>
<defs>
<clipPath id="clip0_21_31193">
<rect width="47" height="47" fill="white"/>
</clipPath>
</defs>
</svg>
