<svg width="300" height="300" viewBox="0 0 300 300" fill="none" xmlns="http://www.w3.org/2000/svg">
<g clip-path="url(#clip0_49458_60440)">
<path d="M150.372 263.96C213.108 263.96 263.965 213.103 263.965 150.367C263.965 87.6317 213.108 36.7744 150.372 36.7744C87.6366 36.7744 36.7793 87.6317 36.7793 150.367C36.7793 213.103 87.6366 263.96 150.372 263.96Z" fill="#F5F8FF"/>
<g filter="url(#filter0_dd_49458_60440)">
<rect x="21" y="74.373" width="202.816" height="129.065" rx="6.3584" fill="white"/>
</g>
<rect x="138.338" y="105.338" width="33.7819" height="8.44548" rx="4.22274" fill="#424D5A" fill-opacity="0.2"/>
<rect opacity="0.88" x="35.6699" y="105.338" width="89.6346" height="83.1158" rx="9.31275" fill="#3D7FFC"/>
<g clip-path="url(#clip1_49458_60440)">
<path d="M61.0388 139.754C61.2194 140.097 61.1291 140.387 61.0026 140.694C60.804 141.199 60.8582 141.687 61.2194 142.103C61.5806 142.536 62.0863 142.59 62.61 142.482C63.3324 142.319 63.7478 141.633 63.6394 140.874C63.5852 140.513 63.3685 140.152 63.5672 139.754C63.3866 139.845 63.3866 139.845 63.1699 140.206C62.9712 139.971 62.7906 139.718 62.5739 139.465C62.3933 139.267 62.2127 139.086 62.321 138.761C62.1043 138.869 61.996 139.014 61.9237 139.194C61.8695 139.375 61.8334 139.556 61.7973 139.736C61.7612 139.917 61.6709 140.079 61.4903 140.188C61.3819 139.989 61.2735 139.845 61.0388 139.754Z" fill="white"/>
<path d="M45.6655 150.28V141.948L44.6836 141.787V141.015L47.2439 140.692L47.6789 140.63V140.965V143.797C47.7783 143.697 47.9026 143.585 48.0517 143.498C48.1885 143.399 48.35 143.312 48.5116 143.237C48.6856 143.162 48.8596 143.1 49.0585 143.05C49.2573 143.001 49.4686 142.976 49.6923 142.976C50.09 142.976 50.4629 143.038 50.8109 143.175C51.1589 143.312 51.4696 143.523 51.7306 143.809C51.9916 144.108 52.2029 144.481 52.3645 144.954C52.5136 145.427 52.6006 145.987 52.6006 146.671C52.6006 147.256 52.5136 147.791 52.3396 148.302C52.1656 148.812 51.9046 149.235 51.569 149.608C51.2335 149.982 50.8233 150.268 50.351 150.479C49.8663 150.691 49.3319 150.803 48.7229 150.803C48.3003 150.803 47.915 150.778 47.5546 150.741C47.2066 150.703 46.8959 150.653 46.6349 150.591C46.3739 150.529 46.1626 150.479 46.001 150.417C45.8395 150.355 45.7152 150.318 45.6655 150.28ZM48.8596 144.183C48.5862 144.183 48.35 144.232 48.1512 144.332C47.9523 144.432 47.7907 144.544 47.6789 144.668V149.596C47.741 149.695 47.8529 149.782 48.0269 149.832C48.2009 149.894 48.4122 149.919 48.6359 149.919C48.9342 149.919 49.1952 149.845 49.4065 149.683C49.6302 149.521 49.8042 149.31 49.9533 149.036C50.1025 148.762 50.2019 148.438 50.2765 148.078C50.351 147.717 50.3883 147.319 50.3883 146.908C50.3883 146.485 50.3635 146.099 50.3013 145.751C50.2392 145.415 50.1522 145.128 50.0155 144.892C49.8912 144.656 49.7296 144.481 49.5307 144.357C49.3567 144.245 49.1206 144.183 48.8596 144.183Z" fill="white"/>
<path d="M53.6875 150.58V149.697L54.6321 149.572V144.52L53.7372 144.247V143.251L55.9744 142.927H56.0116L56.3596 143.214V143.761L56.3472 144.782H56.3721C56.4218 144.645 56.5212 144.471 56.6579 144.259C56.7946 144.047 56.9686 143.836 57.1675 143.637C57.3664 143.438 57.6025 143.263 57.8635 143.127C58.1245 142.99 58.4104 142.915 58.7211 142.915C58.8578 142.915 58.9572 142.915 59.0318 142.927C59.1064 142.94 59.1685 142.952 59.2182 142.965V145.242C59.1685 145.205 59.0442 145.167 58.8454 145.13C58.6465 145.093 58.3979 145.068 58.1245 145.068C57.9754 145.068 57.8138 145.08 57.6647 145.093C57.5155 145.105 57.3664 145.13 57.2296 145.167C57.0929 145.192 56.9811 145.23 56.8692 145.267C56.7574 145.304 56.6828 145.342 56.6206 145.379V149.56L58.2488 149.722V150.58H53.6875Z" fill="white"/>
<path d="M60.6133 150.654V149.77L61.5703 149.646V144.593L60.6879 144.307V143.324L63.099 143.001L63.6086 142.95V143.287V149.633L64.5531 149.77V150.654H60.6133Z" fill="white"/>
<path d="M68.9333 148.226C68.5602 148.226 68.2127 148.2 67.9039 148.148C67.8267 148.226 67.7623 148.317 67.7109 148.42C67.6594 148.524 67.6337 148.64 67.6337 148.783C67.6337 148.938 67.6594 149.068 67.7237 149.172C67.7881 149.262 67.8782 149.34 68.0068 149.392C68.1355 149.444 68.2899 149.482 68.4958 149.495C68.7017 149.508 68.9333 149.521 69.2036 149.521H70.5547C71.5326 149.521 72.2532 149.69 72.7422 150.014C73.2183 150.35 73.4628 150.894 73.4628 151.646C73.4628 152.099 73.347 152.526 73.1025 152.902C72.8709 153.278 72.5492 153.589 72.1374 153.861C71.7385 154.12 71.2624 154.327 70.7348 154.469C70.2072 154.612 69.6539 154.69 69.0749 154.69H69.062C68.4186 154.69 67.8782 154.638 67.4278 154.521C66.9774 154.405 66.6042 154.249 66.3083 154.055C66.0123 153.861 65.8064 153.615 65.6649 153.343C65.5233 153.071 65.459 152.76 65.459 152.436C65.459 152.229 65.4976 152.034 65.5748 151.84C65.652 151.659 65.7549 151.49 65.8836 151.335C66.0123 151.179 66.1539 151.05 66.334 150.933C66.5013 150.817 66.6814 150.726 66.8616 150.661C66.6042 150.519 66.3983 150.35 66.2568 150.143C66.1152 149.936 66.0509 149.69 66.0509 149.405C66.0509 149.055 66.141 148.77 66.3211 148.524C66.5013 148.291 66.7329 148.07 67.016 147.889C66.5528 147.682 66.2182 147.384 65.9994 146.995C65.7807 146.607 65.6649 146.153 65.6649 145.635C65.6649 145.221 65.7549 144.858 65.9351 144.521C66.1152 144.184 66.3726 143.899 66.6814 143.666C67.0031 143.433 67.3634 143.252 67.7881 143.122C68.2127 142.993 68.6631 142.928 69.1392 142.928H69.1521C70.2845 142.928 71.1209 143.148 71.6742 143.589C71.7385 143.511 71.8286 143.433 71.9316 143.355C72.0345 143.278 72.1632 143.2 72.3047 143.135C72.4463 143.07 72.6007 143.019 72.768 142.98C72.9353 142.941 73.1154 142.915 73.3084 142.915H73.6301V144.444H72.2919C72.3433 144.586 72.3819 144.741 72.4077 144.897C72.4334 145.052 72.4463 145.234 72.4463 145.415C72.4463 145.83 72.3562 146.205 72.1889 146.542C72.0216 146.879 71.7771 147.177 71.4683 147.436C71.1595 147.682 70.7863 147.876 70.3617 148.019C69.9242 148.161 69.4609 148.226 68.9333 148.226ZM68.5859 150.985C68.2899 150.985 68.0197 150.959 67.7752 150.92C67.6851 151.024 67.5951 151.153 67.5179 151.309C67.4406 151.464 67.402 151.697 67.402 151.969C67.402 152.28 67.4406 152.539 67.5179 152.747C67.5951 152.954 67.7237 153.135 67.8782 153.265C68.0326 153.394 68.2385 153.498 68.4701 153.55C68.7017 153.615 68.9719 153.64 69.2808 153.64H69.2936C69.5639 153.64 69.8341 153.615 70.1043 153.55C70.3617 153.485 70.6062 153.394 70.812 153.265C71.0179 153.135 71.1852 152.967 71.301 152.773C71.4297 152.578 71.494 152.345 71.494 152.086C71.494 151.892 71.4683 151.71 71.4297 151.568C71.3911 151.425 71.3139 151.309 71.1981 151.218C71.0823 151.128 70.9407 151.063 70.7477 151.024C70.5547 150.985 70.3102 150.959 70.0142 150.959H68.5859V150.985ZM69.1006 147.319C69.3322 147.319 69.5252 147.267 69.6797 147.177C69.8341 147.086 69.9499 146.957 70.04 146.801C70.13 146.646 70.1815 146.451 70.2201 146.231C70.2587 146.011 70.2716 145.778 70.2716 145.545C70.2716 144.949 70.1815 144.508 69.9885 144.236C69.7955 143.964 69.4866 143.835 69.0363 143.835H69.0234C68.5988 143.835 68.2899 143.977 68.0969 144.249C67.9039 144.521 67.8009 144.923 67.8009 145.48C67.8009 145.752 67.8267 145.998 67.8653 146.218C67.9039 146.438 67.9811 146.633 68.0712 146.801C68.1741 146.957 68.3028 147.086 68.4701 147.177C68.6374 147.267 68.8432 147.319 69.1006 147.319Z" fill="white"/>
<path d="M74.3595 150.653V149.77L75.1674 149.633V141.876L74.1855 141.715V140.943L76.7334 140.62L76.8815 140.595H77.1585L77.1808 143.013L77.1585 143.954C77.2704 143.842 77.3424 143.834 77.5288 143.71C77.7153 143.585 77.9017 143.473 78.1254 143.374C78.3491 143.274 78.5977 143.187 78.8587 143.112C79.1197 143.05 79.4056 143.013 79.6914 143.013C80.114 143.013 80.4744 143.075 80.7478 143.187C81.0213 143.299 81.245 143.486 81.419 143.735C81.593 143.983 81.6924 144.295 81.767 144.668C81.8291 145.041 81.8664 145.489 81.8664 145.999V149.633L82.7861 149.77V150.653H79.1197V149.795L79.853 149.645V145.987C79.853 145.688 79.8406 145.427 79.8033 145.203C79.7784 144.979 79.7163 144.805 79.6293 144.655C79.5423 144.506 79.4304 144.407 79.2813 144.344C79.1321 144.282 78.9333 144.245 78.6971 144.245C78.5604 144.245 78.4237 144.257 78.2746 144.295C78.1254 144.332 77.9887 144.369 77.8644 144.407C77.7277 144.456 77.6034 144.506 77.4916 144.568C77.3797 144.631 77.2803 144.693 77.1933 144.755V149.645L78.0881 149.782V150.666H74.3595V150.653Z" fill="white"/>
<path d="M84.2459 149.13V144.302H83.3262V143.555C83.3635 143.543 83.4132 143.53 83.4877 143.505C83.5623 143.48 83.6369 143.443 83.7239 143.418C83.7985 143.393 83.873 143.356 83.9476 143.331C84.0222 143.306 84.0595 143.281 84.0719 143.269C84.221 143.157 84.3702 142.945 84.5317 142.634C84.5815 142.547 84.6187 142.448 84.6809 142.323C84.743 142.199 84.7803 142.087 84.83 141.962C84.8797 141.838 84.9295 141.713 84.9667 141.589C85.0165 141.464 85.0413 141.352 85.0786 141.253H86.2469L86.2717 143.194H88.1982V144.314H86.2717V147.948C86.2717 148.296 86.2717 148.57 86.2842 148.781C86.2966 148.993 86.3215 149.142 86.3587 149.242C86.396 149.341 86.4706 149.416 86.5576 149.441C86.6446 149.466 86.7689 149.491 86.918 149.491H86.9305C87.0299 149.491 87.1418 149.478 87.266 149.466C87.3779 149.453 87.4897 149.429 87.6016 149.404C87.7135 149.379 87.8129 149.354 87.9123 149.329C88.0117 149.304 88.0863 149.279 88.1485 149.254H88.1609L88.4716 150.026C88.3349 150.125 88.1858 150.225 87.9869 150.324C87.788 150.424 87.5892 150.511 87.353 150.598C87.1169 150.685 86.8807 150.748 86.6197 150.797C86.3587 150.847 86.1102 150.872 85.8492 150.872H85.8367C85.5509 150.872 85.3023 150.835 85.1035 150.76C84.9046 150.685 84.7306 150.573 84.6063 150.424C84.482 150.275 84.395 150.1 84.3329 149.876C84.2707 149.652 84.2459 149.416 84.2459 149.13Z" fill="white"/>
<path d="M94.1519 150.842C93.7666 150.842 93.3938 150.767 93.0333 150.618C92.6729 150.469 92.3622 150.232 92.1012 149.933C91.8278 149.622 91.6165 149.237 91.4549 148.776C91.2933 148.316 91.2188 147.768 91.2188 147.134C91.2188 146.549 91.3058 146.014 91.4798 145.516C91.6538 145.018 91.9148 144.583 92.2379 144.209C92.5735 143.836 92.9712 143.55 93.4435 143.338C93.9158 143.127 94.4502 143.027 95.0468 143.027C95.258 143.027 95.4569 143.04 95.6682 143.064C95.867 143.089 96.0659 143.114 96.2523 143.152V141.771L94.9598 141.647V141.024L97.3709 140.738H97.4082L97.7313 140.699V149.909H98.5143V150.605C98.3279 150.655 98.1166 150.705 97.868 150.767C97.6195 150.829 97.3585 150.854 97.085 150.854C96.9732 150.854 96.8613 150.842 96.7743 150.829C96.6873 150.817 96.6128 150.78 96.5506 150.73C96.4885 150.68 96.4388 150.605 96.4139 150.518C96.389 150.431 96.3642 150.307 96.3642 150.157V149.871C96.2523 149.996 96.1156 150.108 95.9665 150.232C95.8173 150.357 95.6558 150.456 95.4693 150.543C95.2829 150.63 95.084 150.705 94.8603 150.767C94.649 150.805 94.4129 150.842 94.1519 150.842ZM94.7609 149.834C94.9349 149.834 95.0965 149.809 95.258 149.772C95.4072 149.722 95.5563 149.672 95.6806 149.61C95.8049 149.548 95.9168 149.473 96.0162 149.398C96.1156 149.324 96.2026 149.249 96.2648 149.174V144.172C96.2399 144.122 96.1778 144.072 96.1032 144.023C96.0162 143.973 95.9292 143.923 95.8049 143.886C95.693 143.848 95.5563 143.811 95.4196 143.799C95.2829 143.774 95.1338 143.761 94.9722 143.761C94.6739 143.761 94.4005 143.811 94.1519 143.923C93.8909 144.035 93.6672 144.209 93.4683 144.458C93.2695 144.707 93.1203 145.031 93.0085 145.429C92.8966 145.827 92.8345 146.312 92.822 146.885C92.8096 147.395 92.8593 147.843 92.9588 148.216C93.0582 148.59 93.1949 148.888 93.3689 149.137C93.5429 149.373 93.7542 149.56 93.9903 149.672C94.2265 149.772 94.4875 149.834 94.7609 149.834Z" fill="#C6DBFF"/>
<path d="M98.6992 148.753C98.6992 148.442 98.7614 148.156 98.8732 147.907C98.9851 147.658 99.1466 147.446 99.3579 147.247C99.5692 147.061 99.8054 146.899 100.079 146.762C100.352 146.625 100.651 146.526 100.974 146.438C101.297 146.351 101.632 146.289 101.98 146.252C102.328 146.214 102.676 146.19 103.012 146.177V145.829C103.012 145.518 102.987 145.256 102.95 145.045C102.9 144.833 102.826 144.659 102.726 144.522C102.614 144.385 102.478 144.286 102.291 144.236C102.117 144.174 101.881 144.149 101.608 144.149C101.371 144.149 101.135 144.174 100.899 144.211C100.663 144.261 100.439 144.311 100.216 144.373C100.004 144.435 99.8054 144.51 99.6189 144.572C99.4325 144.647 99.2834 144.709 99.1591 144.771H99.1466L98.8484 144.136C98.9354 144.062 99.0721 143.962 99.2834 143.838C99.4947 143.713 99.7432 143.601 100.029 143.477C100.315 143.365 100.626 143.265 100.949 143.178C101.284 143.091 101.608 143.054 101.931 143.054C102.391 143.054 102.776 143.103 103.099 143.191C103.41 143.29 103.671 143.439 103.87 143.639C104.068 143.85 104.205 144.111 104.292 144.447C104.379 144.783 104.416 145.182 104.416 145.667V149.997H105.224V150.632C105.137 150.657 105.038 150.682 104.926 150.707C104.814 150.732 104.69 150.756 104.566 150.781C104.441 150.806 104.305 150.831 104.18 150.844C104.056 150.856 103.919 150.868 103.807 150.868C103.683 150.868 103.584 150.868 103.484 150.856C103.397 150.844 103.323 150.819 103.261 150.769C103.198 150.719 103.161 150.657 103.136 150.557C103.111 150.47 103.099 150.346 103.099 150.184V149.935C103.037 149.985 102.95 150.06 102.826 150.172C102.701 150.271 102.54 150.383 102.353 150.483C102.167 150.582 101.956 150.682 101.707 150.756C101.471 150.831 101.21 150.868 100.936 150.868C100.638 150.868 100.352 150.831 100.079 150.744C99.8054 150.657 99.5692 150.532 99.3579 150.371C99.1466 150.196 98.9851 149.985 98.8608 149.711C98.7365 149.437 98.6992 149.126 98.6992 148.753ZM101.521 149.873C101.608 149.873 101.719 149.86 101.844 149.836C101.968 149.811 102.105 149.773 102.241 149.736C102.378 149.686 102.515 149.636 102.639 149.574C102.776 149.512 102.888 149.437 103 149.363V146.924C102.478 146.924 102.043 146.974 101.682 147.061C101.334 147.148 101.048 147.272 100.837 147.421C100.626 147.571 100.477 147.745 100.39 147.944C100.303 148.143 100.253 148.342 100.253 148.554C100.253 148.79 100.29 149.002 100.352 149.164C100.414 149.325 100.501 149.462 100.613 149.574C100.725 149.674 100.862 149.761 101.011 149.798C101.185 149.848 101.347 149.873 101.521 149.873Z" fill="#C6DBFF"/>
<path d="M105.599 149.167V144.028H104.654V143.406C104.791 143.356 104.928 143.319 105.052 143.269C105.189 143.219 105.288 143.182 105.338 143.132C105.487 143.032 105.599 142.871 105.711 142.634C105.748 142.56 105.785 142.448 105.847 142.323C105.897 142.199 105.947 142.062 105.997 141.925C106.046 141.788 106.096 141.664 106.133 141.539C106.171 141.415 106.208 141.315 106.22 141.253H107.065V143.07H109.265V144.028H107.065V147.973C107.065 148.358 107.065 148.669 107.078 148.893C107.09 149.117 107.115 149.279 107.165 149.379C107.215 149.478 107.289 149.553 107.389 149.578C107.488 149.603 107.625 149.615 107.799 149.615H107.811C107.935 149.615 108.072 149.603 108.209 149.59C108.346 149.578 108.482 149.553 108.607 149.528C108.743 149.503 108.855 149.478 108.967 149.453C109.079 149.429 109.166 149.404 109.228 149.366H109.24L109.464 150.013C109.365 150.088 109.216 150.175 109.029 150.262C108.843 150.349 108.644 150.424 108.433 150.499C108.221 150.573 107.998 150.623 107.761 150.673C107.525 150.723 107.314 150.748 107.103 150.748H107.09C106.854 150.748 106.655 150.723 106.469 150.673C106.282 150.623 106.133 150.536 105.997 150.412C105.872 150.287 105.773 150.125 105.698 149.926C105.636 149.702 105.599 149.453 105.599 149.167Z" fill="#C6DBFF"/>
<path d="M109.502 148.614C109.502 148.303 109.564 148.017 109.676 147.768C109.788 147.519 109.949 147.308 110.161 147.109C110.372 146.922 110.608 146.76 110.882 146.623C111.155 146.486 111.453 146.387 111.776 146.3C112.1 146.213 112.435 146.15 112.783 146.113C113.131 146.076 113.479 146.051 113.815 146.038V145.69C113.815 145.379 113.79 145.118 113.753 144.906C113.703 144.695 113.628 144.52 113.529 144.383C113.417 144.247 113.28 144.147 113.094 144.097C112.92 144.035 112.684 144.01 112.41 144.01C112.174 144.01 111.938 144.035 111.702 144.072C111.466 144.122 111.242 144.172 111.018 144.234C110.807 144.296 110.608 144.371 110.422 144.433C110.235 144.508 110.086 144.57 109.962 144.632H109.949L109.651 143.998C109.738 143.923 109.875 143.823 110.086 143.699C110.297 143.575 110.546 143.463 110.832 143.338C111.118 143.226 111.428 143.127 111.752 143.039C112.087 142.952 112.41 142.915 112.733 142.915C113.193 142.915 113.579 142.965 113.902 143.052C114.212 143.151 114.473 143.301 114.672 143.5C114.871 143.711 115.008 143.973 115.095 144.309C115.182 144.645 115.219 145.043 115.219 145.528V149.859H116.027V150.493C115.94 150.518 115.841 150.543 115.729 150.568C115.617 150.593 115.493 150.618 115.368 150.643C115.244 150.668 115.107 150.692 114.983 150.705C114.859 150.717 114.722 150.73 114.61 150.73C114.486 150.73 114.386 150.73 114.287 150.717C114.2 150.705 114.125 150.68 114.063 150.63C114.001 150.58 113.964 150.518 113.939 150.419C113.914 150.332 113.902 150.207 113.902 150.045V149.796C113.84 149.846 113.753 149.921 113.628 150.033C113.504 150.132 113.342 150.244 113.156 150.344C112.97 150.444 112.758 150.543 112.51 150.618C112.274 150.692 112.013 150.73 111.739 150.73C111.441 150.73 111.155 150.692 110.882 150.605C110.608 150.518 110.372 150.394 110.161 150.232C109.949 150.058 109.788 149.846 109.664 149.572C109.539 149.299 109.502 148.988 109.502 148.614ZM112.336 149.734C112.423 149.734 112.535 149.722 112.659 149.697C112.783 149.672 112.92 149.635 113.057 149.597C113.193 149.548 113.33 149.498 113.454 149.436C113.591 149.373 113.703 149.299 113.815 149.224V146.785C113.293 146.785 112.858 146.835 112.497 146.922C112.149 147.009 111.863 147.133 111.652 147.283C111.441 147.432 111.292 147.606 111.205 147.805C111.118 148.005 111.068 148.204 111.068 148.415C111.068 148.652 111.105 148.863 111.167 149.025C111.23 149.187 111.317 149.324 111.428 149.436C111.54 149.535 111.677 149.622 111.826 149.66C112 149.709 112.162 149.734 112.336 149.734Z" fill="#C6DBFF"/>
</g>
<path d="M44.832 87.1201C44.832 89.4516 42.9086 91.375 40.5771 91.375C38.2457 91.375 36.3223 89.4516 36.3223 87.1201C36.3223 84.7887 38.2457 82.8652 40.5771 82.8652C42.9086 82.8652 44.832 84.7887 44.832 87.1201Z" fill="#F66058"/>
<path d="M58.7246 87.1201C58.7246 89.4516 56.8012 91.375 54.4697 91.375C52.1383 91.375 50.2148 89.4516 50.2148 87.1201C50.2148 84.7887 52.1383 82.8652 54.4697 82.8652C56.8595 82.8652 58.7246 84.7887 58.7246 87.1201Z" fill="#F9BD2E"/>
<path d="M72.6328 87.1201C72.6328 89.4516 70.7094 91.375 68.3779 91.375C66.0465 91.375 64.123 89.4516 64.123 87.1201C64.123 84.7887 66.0465 82.8652 68.3779 82.8652C70.7094 82.8652 72.6328 84.7887 72.6328 87.1201Z" fill="#3CC840"/>
<path d="M161.478 169.814C161.478 165.665 158.99 162.931 155.04 161.234L151.968 159.961L152.163 152.418C153.967 152.654 156.211 153.785 157.869 155.577L160.892 150.91C158.942 148.647 155.625 147.327 152.699 147.091L152.748 144.451H149.236L149.139 146.997C146.505 147.233 143.969 148.034 142.311 149.448C140.507 150.957 139.092 153.173 139.092 156.284C139.092 160.15 141.433 162.224 142.506 163.025C143.579 163.874 145.042 164.581 146.895 165.335L148.554 165.995L148.407 173.868C146.31 173.821 142.799 172.171 141.384 170.002L137.775 174.717C140.214 177.687 144.213 179.384 147.871 179.525L147.773 182.024H151.285L151.382 179.431C153.236 179.289 156.015 178.394 157.722 177.074C159.624 175.612 161.478 173.161 161.478 169.814ZM149.09 152.371L148.944 158.924L148.407 158.688C147.188 158.122 145.92 157.274 145.92 155.53C145.92 153.691 147.237 152.513 149.09 152.371ZM154.747 170.71C154.747 172.548 152.992 173.821 151.48 173.962L151.626 166.938L152.406 167.315C153.87 168.022 154.747 168.918 154.747 170.71Z" fill="#3D7FFC"/>
<path d="M149.441 125.332H146.366V125.326C146.196 125.324 146.03 125.273 145.892 125.18C145.754 125.087 145.65 124.956 145.595 124.806C145.585 124.783 145.577 124.76 145.57 124.736L144.668 122.041L144.646 121.973C144.607 121.871 144.535 121.784 144.439 121.723C144.342 121.662 144.228 121.632 144.112 121.636C143.996 121.64 143.885 121.68 143.794 121.747C143.703 121.815 143.638 121.907 143.609 122.012L142.696 124.726C142.696 124.727 142.696 124.729 142.696 124.731C142.688 124.759 142.679 124.787 142.668 124.814C142.611 124.963 142.507 125.092 142.369 125.184C142.23 125.276 142.065 125.325 141.896 125.327V125.333H138.819C138.685 125.354 138.563 125.42 138.477 125.517C138.39 125.615 138.344 125.738 138.346 125.864C138.345 125.946 138.364 126.027 138.402 126.101C138.44 126.175 138.495 126.24 138.563 126.291L138.588 126.31L140.977 128.003C141.091 128.079 141.183 128.18 141.247 128.296C141.31 128.412 141.343 128.541 141.342 128.671C141.342 128.731 141.334 128.792 141.32 128.851C141.309 128.896 141.294 128.941 141.275 128.984L140.369 131.694V131.703L140.363 131.723C140.348 131.773 140.34 131.825 140.34 131.876C140.338 131.946 140.351 132.015 140.377 132.079C140.404 132.144 140.444 132.203 140.495 132.253C140.546 132.303 140.608 132.343 140.676 132.371C140.744 132.399 140.817 132.414 140.891 132.416C140.988 132.416 141.083 132.392 141.165 132.345L141.262 132.279L143.634 130.603L143.686 130.566C143.817 130.481 143.973 130.435 144.133 130.433C144.293 130.432 144.45 130.475 144.583 130.558C144.613 130.575 144.64 130.595 144.666 130.616L147.025 132.285L147.091 132.333C147.178 132.384 147.278 132.41 147.381 132.409C147.455 132.408 147.528 132.392 147.596 132.364C147.664 132.336 147.725 132.296 147.776 132.246C147.827 132.196 147.867 132.137 147.894 132.073C147.92 132.008 147.933 131.939 147.931 131.87C147.931 131.816 147.923 131.762 147.906 131.71C147.906 131.702 147.9 131.693 147.898 131.684L146.988 128.965C146.973 128.93 146.961 128.893 146.952 128.856C146.914 128.708 146.921 128.552 146.972 128.407C147.023 128.262 147.116 128.133 147.242 128.034C147.262 128.018 147.283 128.004 147.304 127.989L149.668 126.318L149.739 126.266C149.801 126.215 149.85 126.152 149.883 126.081C149.916 126.011 149.933 125.935 149.932 125.858C149.932 125.73 149.883 125.606 149.792 125.509C149.702 125.412 149.577 125.349 149.441 125.332Z" fill="#FECE4D"/>
<path d="M164.883 125.332H161.809V125.326C161.638 125.324 161.473 125.273 161.334 125.18C161.196 125.087 161.092 124.956 161.037 124.806C161.027 124.783 161.019 124.76 161.013 124.736L160.111 122.041L160.087 121.973C160.049 121.871 159.976 121.784 159.88 121.723C159.784 121.662 159.669 121.632 159.553 121.636C159.437 121.64 159.326 121.68 159.235 121.747C159.145 121.815 159.08 121.907 159.05 122.012L158.137 124.726C158.137 124.727 158.137 124.729 158.137 124.731C158.13 124.759 158.121 124.787 158.109 124.814C158.053 124.963 157.948 125.092 157.81 125.184C157.672 125.276 157.507 125.325 157.337 125.327V125.333H154.26C154.126 125.354 154.005 125.42 153.918 125.517C153.831 125.615 153.785 125.738 153.787 125.864C153.787 125.946 153.806 126.027 153.843 126.101C153.881 126.175 153.936 126.24 154.004 126.291L154.029 126.31L156.419 128.003C156.559 128.098 156.666 128.23 156.727 128.381C156.788 128.532 156.8 128.697 156.761 128.854C156.751 128.9 156.736 128.944 156.717 128.987L155.811 131.697V131.707L155.804 131.726C155.789 131.776 155.782 131.828 155.782 131.88C155.78 131.95 155.792 132.018 155.819 132.083C155.845 132.147 155.885 132.207 155.937 132.257C155.988 132.307 156.049 132.347 156.117 132.375C156.185 132.403 156.258 132.418 156.333 132.419C156.429 132.42 156.524 132.396 156.607 132.349L156.703 132.283L159.075 130.607L159.127 130.57C159.259 130.485 159.415 130.439 159.575 130.437C159.735 130.436 159.891 130.479 160.025 130.561C160.054 130.579 160.082 130.598 160.108 130.62L162.466 132.289L162.533 132.337C162.619 132.387 162.72 132.414 162.822 132.413C162.896 132.411 162.969 132.396 163.037 132.368C163.105 132.34 163.166 132.3 163.217 132.25C163.268 132.2 163.308 132.141 163.335 132.076C163.362 132.012 163.374 131.943 163.372 131.874C163.372 131.82 163.364 131.766 163.347 131.714C163.347 131.706 163.341 131.697 163.338 131.688L162.428 128.968C162.413 128.933 162.401 128.897 162.393 128.86C162.376 128.796 162.368 128.731 162.368 128.666C162.367 128.546 162.394 128.427 162.448 128.319C162.502 128.21 162.581 128.114 162.679 128.037C162.699 128.02 162.721 128.006 162.742 127.992L165.105 126.321L165.177 126.269C165.238 126.217 165.287 126.154 165.32 126.084C165.354 126.014 165.37 125.938 165.37 125.861C165.371 125.733 165.322 125.608 165.233 125.511C165.143 125.414 165.019 125.35 164.883 125.332Z" fill="#FECE4D"/>
<path d="M180.327 125.332H177.252V125.326C177.082 125.324 176.916 125.273 176.778 125.18C176.64 125.087 176.536 124.956 176.48 124.806C176.471 124.783 176.463 124.76 176.456 124.736L175.554 122.041L175.531 121.973C175.492 121.871 175.419 121.784 175.323 121.723C175.227 121.662 175.113 121.632 174.997 121.636C174.881 121.64 174.769 121.68 174.679 121.747C174.588 121.815 174.523 121.907 174.493 122.012L173.581 124.726C173.581 124.726 173.581 124.726 173.581 124.731C173.573 124.759 173.564 124.787 173.553 124.814C173.496 124.963 173.391 125.092 173.253 125.184C173.115 125.276 172.95 125.325 172.781 125.327V125.333H169.703C169.569 125.354 169.448 125.42 169.361 125.517C169.275 125.615 169.228 125.738 169.231 125.864C169.23 125.946 169.249 126.027 169.286 126.101C169.324 126.175 169.379 126.24 169.448 126.291L169.473 126.31L171.862 128.003C172.002 128.098 172.109 128.23 172.17 128.381C172.231 128.532 172.243 128.697 172.205 128.854C172.194 128.9 172.179 128.944 172.16 128.987L171.254 131.697V131.707L171.247 131.726C171.233 131.776 171.225 131.829 171.225 131.88C171.223 131.95 171.235 132.018 171.262 132.083C171.289 132.147 171.329 132.207 171.38 132.257C171.431 132.307 171.493 132.347 171.561 132.375C171.629 132.403 171.702 132.418 171.776 132.419C171.873 132.42 171.967 132.396 172.05 132.349L172.147 132.283L174.518 130.607L174.571 130.57C174.702 130.485 174.858 130.439 175.018 130.437C175.178 130.436 175.335 130.479 175.468 130.561C175.497 130.579 175.525 130.598 175.551 130.62L177.909 132.289L177.976 132.337C178.063 132.387 178.163 132.414 178.265 132.413C178.34 132.411 178.413 132.396 178.481 132.368C178.548 132.34 178.61 132.3 178.661 132.25C178.712 132.2 178.752 132.141 178.778 132.076C178.805 132.012 178.817 131.943 178.815 131.874C178.816 131.82 178.807 131.766 178.79 131.714C178.79 131.706 178.785 131.697 178.783 131.688L177.873 128.968C177.858 128.933 177.846 128.897 177.837 128.86C177.82 128.796 177.812 128.731 177.812 128.666C177.811 128.546 177.838 128.427 177.892 128.319C177.946 128.21 178.025 128.114 178.124 128.037C178.144 128.02 178.165 128.006 178.186 127.992L180.549 126.321L180.622 126.269C180.683 126.217 180.732 126.154 180.766 126.084C180.799 126.014 180.816 125.938 180.815 125.861C180.816 125.732 180.767 125.608 180.677 125.511C180.588 125.413 180.463 125.35 180.327 125.332Z" fill="#FECE4D"/>
<path d="M195.764 125.332H192.69V125.326C192.519 125.324 192.353 125.273 192.215 125.18C192.077 125.087 191.973 124.956 191.918 124.806C191.908 124.783 191.9 124.76 191.894 124.736L190.991 122.041L190.968 121.973C190.93 121.871 190.857 121.784 190.761 121.723C190.665 121.662 190.55 121.632 190.434 121.636C190.318 121.64 190.207 121.68 190.116 121.747C190.026 121.815 189.961 121.907 189.931 122.012L189.018 124.726C189.018 124.727 189.018 124.729 189.018 124.731C189.011 124.759 189.001 124.787 188.99 124.814C188.933 124.963 188.829 125.092 188.691 125.184C188.553 125.276 188.388 125.325 188.218 125.327V125.333H185.141C185.007 125.354 184.886 125.42 184.799 125.517C184.712 125.615 184.666 125.738 184.668 125.864C184.667 125.946 184.686 126.027 184.724 126.101C184.761 126.175 184.817 126.24 184.885 126.291L184.91 126.31L187.299 128.003C187.44 128.098 187.547 128.23 187.608 128.381C187.669 128.532 187.681 128.697 187.642 128.854C187.632 128.9 187.617 128.944 187.598 128.987L186.692 131.697V131.707L186.684 131.726C186.669 131.776 186.662 131.829 186.662 131.88C186.659 131.95 186.672 132.018 186.699 132.083C186.725 132.147 186.765 132.207 186.816 132.257C186.868 132.307 186.929 132.347 186.997 132.375C187.065 132.403 187.138 132.418 187.213 132.419C187.309 132.42 187.404 132.396 187.487 132.349L187.583 132.283L189.955 130.607L190.007 130.57C190.139 130.485 190.294 130.439 190.454 130.437C190.615 130.436 190.771 130.479 190.905 130.561C190.934 130.579 190.962 130.598 190.988 130.62L193.347 132.289L193.413 132.337C193.5 132.387 193.601 132.414 193.703 132.413C193.777 132.411 193.85 132.396 193.918 132.368C193.986 132.34 194.047 132.3 194.098 132.25C194.149 132.2 194.189 132.141 194.216 132.076C194.242 132.012 194.255 131.943 194.253 131.874C194.253 131.82 194.245 131.766 194.228 131.714C194.228 131.706 194.222 131.697 194.219 131.688L193.309 128.968C193.294 128.933 193.282 128.897 193.274 128.86C193.257 128.796 193.249 128.731 193.248 128.666C193.247 128.546 193.275 128.427 193.329 128.319C193.383 128.21 193.462 128.114 193.56 128.037C193.58 128.02 193.602 128.006 193.623 127.992L195.986 126.321L196.057 126.269C196.119 126.217 196.168 126.154 196.201 126.084C196.235 126.014 196.251 125.938 196.25 125.861C196.252 125.733 196.203 125.608 196.114 125.511C196.024 125.414 195.9 125.35 195.764 125.332Z" fill="#FECE4D"/>
<path d="M211.191 125.332H208.116V125.326C207.946 125.324 207.78 125.273 207.642 125.18C207.504 125.087 207.4 124.956 207.344 124.806C207.335 124.783 207.327 124.76 207.32 124.736L206.418 122.041L206.395 121.973C206.356 121.871 206.284 121.784 206.188 121.723C206.091 121.662 205.977 121.632 205.861 121.636C205.745 121.64 205.634 121.68 205.543 121.747C205.452 121.815 205.387 121.907 205.358 122.012L204.445 124.726C204.445 124.726 204.445 124.726 204.445 124.731C204.438 124.759 204.428 124.787 204.417 124.814C204.36 124.963 204.256 125.092 204.118 125.184C203.98 125.276 203.815 125.325 203.645 125.327V125.333H200.567C200.433 125.354 200.311 125.42 200.225 125.517C200.138 125.615 200.092 125.738 200.094 125.864C200.093 125.946 200.112 126.027 200.15 126.101C200.188 126.175 200.243 126.24 200.311 126.291L200.336 126.31L202.728 128.002C202.868 128.097 202.976 128.228 203.036 128.379C203.097 128.53 203.109 128.695 203.071 128.853C203.06 128.898 203.045 128.943 203.026 128.985L202.12 131.695V131.705L202.113 131.725C202.098 131.775 202.091 131.826 202.09 131.878C202.088 131.947 202.101 132.016 202.127 132.081C202.154 132.146 202.194 132.205 202.245 132.255C202.296 132.305 202.358 132.345 202.426 132.373C202.494 132.401 202.567 132.416 202.641 132.417C202.738 132.418 202.833 132.393 202.915 132.347L203.012 132.281L205.384 130.605L205.436 130.567C205.567 130.483 205.723 130.437 205.883 130.435C206.043 130.434 206.2 130.477 206.333 130.56C206.363 130.577 206.39 130.596 206.416 130.618L208.775 132.287L208.841 132.335C208.928 132.385 209.028 132.412 209.131 132.411C209.205 132.41 209.278 132.394 209.346 132.366C209.414 132.338 209.475 132.298 209.526 132.248C209.577 132.198 209.617 132.139 209.644 132.074C209.67 132.01 209.683 131.941 209.681 131.872C209.681 131.818 209.672 131.764 209.656 131.712C209.656 131.704 209.65 131.695 209.647 131.686L208.737 128.967C208.722 128.931 208.71 128.895 208.701 128.858C208.685 128.794 208.676 128.729 208.676 128.664C208.675 128.544 208.703 128.426 208.757 128.317C208.81 128.208 208.889 128.112 208.988 128.035C209.008 128.019 209.029 128.004 209.051 127.99L211.414 126.319L211.485 126.267C211.547 126.216 211.596 126.153 211.629 126.082C211.662 126.012 211.679 125.936 211.678 125.859C211.679 125.731 211.63 125.607 211.54 125.51C211.451 125.413 211.327 125.35 211.191 125.332Z" fill="#FECE4D"/>
<g filter="url(#filter1_dd_49458_60440)">
<rect x="177" y="163" width="118.385" height="71.1808" rx="6.3584" fill="#091B36"/>
</g>
<path d="M196.841 223H195.869L195.23 221.38H192.566L191.927 223H191.009L193.538 216.772H194.303L196.841 223ZM194.987 220.651L193.898 217.861L192.809 220.651H194.987ZM204.998 216.79L203.207 223.009H202.352L200.858 217.987L199.373 223.009H198.518L196.727 216.79H197.645L198.986 221.686L200.417 216.79H201.308L202.739 221.686L204.08 216.79H204.998ZM209.527 221.272C209.527 222.478 208.447 223.108 207.358 223.108C206.269 223.108 205.648 222.406 205.351 222.064L205.864 221.479C206.179 221.902 206.764 222.37 207.439 222.37C208.114 222.37 208.654 221.983 208.654 221.326C208.654 220.678 207.961 220.426 207.646 220.3C207.322 220.174 206.89 220.003 206.656 219.886C206.017 219.589 205.63 219.094 205.63 218.365C205.63 217.258 206.638 216.709 207.628 216.709C208.645 216.709 209.239 217.33 209.41 217.51L208.951 218.104C208.645 217.78 208.195 217.438 207.583 217.438C206.971 217.438 206.503 217.726 206.503 218.302C206.503 218.878 206.926 219.094 207.304 219.247L208.447 219.724C209.086 220.021 209.527 220.534 209.527 221.272Z" fill="white"/>
<rect x="177" y="176" width="118" height="11" fill="white" fill-opacity="0.2"/>
<rect x="190" y="196" width="46" height="11" fill="white" fill-opacity="0.2"/>
<path d="M247.078 150.768C247.226 151.001 247.535 151.07 247.768 150.922L251.565 148.506C251.798 148.358 251.867 148.049 251.718 147.816C251.57 147.583 251.261 147.514 251.028 147.662L247.653 149.81L245.506 146.435C245.358 146.202 245.049 146.133 244.816 146.282C244.583 146.43 244.514 146.739 244.662 146.972L247.078 150.768ZM247.988 150.608C248.672 147.531 248.753 142.787 246.752 138.537C244.735 134.251 240.627 130.526 233.067 129.505L232.933 130.495C240.173 131.474 243.982 134.999 245.848 138.963C247.73 142.963 247.661 147.469 247.012 150.392L247.988 150.608Z" fill="#3D7FFC"/>
<path d="M145.749 217.396C145.545 217.21 145.229 217.223 145.042 217.427L142.003 220.746C141.817 220.95 141.831 221.266 142.034 221.452C142.238 221.639 142.554 221.625 142.741 221.421L145.442 218.471L148.392 221.173C148.596 221.359 148.912 221.345 149.098 221.141C149.285 220.938 149.271 220.622 149.067 220.435L145.749 217.396ZM144.911 217.787C145.05 220.936 146.203 225.538 149.239 229.123C152.3 232.738 157.234 235.269 164.8 234.293L164.672 233.301C157.427 234.236 152.834 231.821 150.002 228.477C147.146 225.104 146.042 220.734 145.91 217.743L144.911 217.787Z" fill="#3D7FFC"/>
</g>
<defs>
<filter id="filter0_dd_49458_60440" x="12.0087" y="66.8803" width="220.799" height="147.047" filterUnits="userSpaceOnUse" color-interpolation-filters="sRGB">
<feFlood flood-opacity="0" result="BackgroundImageFix"/>
<feColorMatrix in="SourceAlpha" type="matrix" values="0 0 0 0 0 0 0 0 0 0 0 0 0 0 0 0 0 0 127 0" result="hardAlpha"/>
<feOffset dy="2.99708"/>
<feGaussianBlur stdDeviation="3.74636"/>
<feColorMatrix type="matrix" values="0 0 0 0 0.607843 0 0 0 0 0.67451 0 0 0 0 0.737255 0 0 0 0.35 0"/>
<feBlend mode="normal" in2="BackgroundImageFix" result="effect1_dropShadow_49458_60440"/>
<feColorMatrix in="SourceAlpha" type="matrix" values="0 0 0 0 0 0 0 0 0 0 0 0 0 0 0 0 0 0 127 0" result="hardAlpha"/>
<feOffset dy="1.49854"/>
<feGaussianBlur stdDeviation="4.49563"/>
<feColorMatrix type="matrix" values="0 0 0 0 0.89625 0 0 0 0 0.930414 0 0 0 0 0.995833 0 0 0 0.5 0"/>
<feBlend mode="normal" in2="effect1_dropShadow_49458_60440" result="effect2_dropShadow_49458_60440"/>
<feBlend mode="normal" in="SourceGraphic" in2="effect2_dropShadow_49458_60440" result="shape"/>
</filter>
<filter id="filter1_dd_49458_60440" x="168.009" y="155.507" width="136.367" height="89.1632" filterUnits="userSpaceOnUse" color-interpolation-filters="sRGB">
<feFlood flood-opacity="0" result="BackgroundImageFix"/>
<feColorMatrix in="SourceAlpha" type="matrix" values="0 0 0 0 0 0 0 0 0 0 0 0 0 0 0 0 0 0 127 0" result="hardAlpha"/>
<feOffset dy="2.99708"/>
<feGaussianBlur stdDeviation="3.74636"/>
<feColorMatrix type="matrix" values="0 0 0 0 0.607843 0 0 0 0 0.67451 0 0 0 0 0.737255 0 0 0 0.35 0"/>
<feBlend mode="normal" in2="BackgroundImageFix" result="effect1_dropShadow_49458_60440"/>
<feColorMatrix in="SourceAlpha" type="matrix" values="0 0 0 0 0 0 0 0 0 0 0 0 0 0 0 0 0 0 127 0" result="hardAlpha"/>
<feOffset dy="1.49854"/>
<feGaussianBlur stdDeviation="4.49563"/>
<feColorMatrix type="matrix" values="0 0 0 0 0.89625 0 0 0 0 0.930414 0 0 0 0 0.995833 0 0 0 0.5 0"/>
<feBlend mode="normal" in2="effect1_dropShadow_49458_60440" result="effect2_dropShadow_49458_60440"/>
<feBlend mode="normal" in="SourceGraphic" in2="effect2_dropShadow_49458_60440" result="shape"/>
</filter>
<clipPath id="clip0_49458_60440">
<rect width="300" height="300" fill="white"/>
</clipPath>
<clipPath id="clip1_49458_60440">
<rect width="71.0473" height="15.9304" fill="white" transform="translate(44.6836 138.76)"/>
</clipPath>
</defs>
</svg>
