<svg width="249" height="240" viewBox="0 0 249 240" fill="none" xmlns="http://www.w3.org/2000/svg">
<path d="M123.868 228.186C186.604 228.186 237.461 177.329 237.461 114.593C237.461 51.8573 186.604 1 123.868 1C61.1327 1 10.2754 51.8573 10.2754 114.593C10.2754 177.329 61.1327 228.186 123.868 228.186Z" fill="#F5F8FF" fill-opacity="0.2"/>
<g filter="url(#filter0_dd_10192_20499)">
<path d="M170.762 7.52051L233.869 20.2581L233.974 86.372C234.079 129.957 206.417 152.484 170.973 165.434C135.531 152.694 107.866 130.166 107.761 86.582L107.656 20.469L170.762 7.52051Z" fill="#EDF1F6"/>
<path d="M230.236 23.2734L230.341 86.368C230.341 121.97 210.976 146.619 171.091 161.471C131.098 146.725 111.734 122.181 111.629 86.583L111.523 23.488L170.88 11.375L230.236 23.2734Z" fill="white"/>
<path d="M153.918 112.084L152.54 108.869C151.571 109.864 149.989 110.731 147.794 110.731C144.911 110.731 142.513 108.767 142.513 105.322C142.513 101.878 144.809 99.8869 147.794 99.8869C150.116 99.8869 152.004 101.291 152.336 101.725L153.612 98.3059C153.152 97.8209 151.188 96.3149 147.565 96.3149C142.436 96.3149 138.328 99.7089 138.328 105.399C138.328 111.063 142.385 114.482 147.565 114.482C151.162 114.482 153.025 113.002 153.918 112.084Z" fill="#3D7FFC"/>
<path d="M170.76 112.084L169.382 108.869C168.412 109.864 166.83 110.731 164.636 110.731C161.753 110.731 159.355 108.767 159.355 105.322C159.355 101.878 161.651 99.8869 164.636 99.8869C166.958 99.8869 168.846 101.291 169.178 101.725L170.453 98.3059C169.994 97.8209 168.03 96.3149 164.406 96.3149C159.278 96.3149 155.17 99.7089 155.17 105.399C155.17 111.063 159.227 114.482 164.406 114.482C168.004 114.482 169.867 113.002 170.76 112.084Z" fill="#3D7FFC"/>
<path d="M186.41 102.107C186.41 100.219 185.747 98.867 184.573 97.897C183.399 96.928 181.792 96.571 179.98 96.571H173.678V114.176H177.812V107.669H179.98C181.792 107.669 183.399 107.312 184.573 106.343C185.747 105.348 186.41 103.995 186.41 102.107ZM182.226 102.107C182.226 103 181.868 103.638 181.384 103.995C180.873 104.353 180.287 104.48 179.394 104.48H177.786V99.76H179.394C180.287 99.76 180.873 99.887 181.384 100.245C181.868 100.602 182.226 101.214 182.226 102.107Z" fill="#3D7FFC"/>
<path d="M204.523 114.176L197.889 96.5449H193.602L186.969 114.176H191.255L192.505 110.629H198.782L200.032 114.176H204.523ZM197.838 107.414H193.449L195.644 101.087L197.838 107.414Z" fill="#3D7FFC"/>
<path d="M143.886 127.78L143.329 126.838C142.732 127.488 141.803 127.953 140.596 127.953C138.632 127.953 137.186 126.533 137.186 124.384C137.186 122.234 138.619 120.815 140.596 120.815C141.87 120.815 142.891 121.478 143.249 121.929L143.793 120.894C143.289 120.403 142.254 119.687 140.543 119.687C137.916 119.687 135.859 121.558 135.859 124.41C135.859 127.263 137.863 129.134 140.53 129.134C142.268 129.134 143.316 128.417 143.886 127.78Z" fill="#3D7FFC"/>
<path d="M153.728 124.41C153.728 121.478 151.578 119.687 149.005 119.687C146.431 119.687 144.281 121.478 144.281 124.41C144.281 127.342 146.431 129.134 149.005 129.134C151.578 129.134 153.728 127.342 153.728 124.41ZM152.414 124.384C152.414 126.613 150.875 127.966 149.005 127.966C147.147 127.966 145.595 126.613 145.595 124.384C145.595 122.141 147.134 120.801 149.005 120.801C150.875 120.801 152.414 122.141 152.414 124.384Z" fill="#3D7FFC"/>
<path d="M164.954 128.974L164.118 119.82H162.539L159.899 126.891H159.873L157.232 119.82H155.64L154.818 128.974H156.091L156.675 121.743H156.715L159.514 129.054H160.244L163.043 121.743H163.083L163.68 128.974H164.954Z" fill="#3D7FFC"/>
<path d="M172.232 122.433C172.232 121.558 171.913 120.961 171.343 120.47C170.785 119.992 170.016 119.82 169.127 119.82H166.553V128.974H167.84V125.047H169.127C170.799 125.047 172.232 124.278 172.232 122.433ZM170.905 122.433C170.905 123.588 170.042 123.999 169.021 123.999H167.84V120.868H169.021C170.042 120.868 170.905 121.292 170.905 122.433Z" fill="#3D7FFC"/>
<path d="M178.113 128.974V127.886H174.889V119.82H173.602V128.974H178.113Z" fill="#3D7FFC"/>
<path d="M180.539 128.974V119.82H179.252V128.974H180.539Z" fill="#3D7FFC"/>
<path d="M190.157 128.974L186.415 119.793H185.288L181.559 128.974H182.913L183.855 126.586H187.782L188.724 128.974H190.157ZM187.424 125.511H184.213L185.818 121.398L187.424 125.511Z" fill="#3D7FFC"/>
<path d="M198.985 128.974V119.82H197.724V124.676C197.724 125.883 197.738 127.011 197.738 127.011L192.55 119.82H191.197V128.974H192.47V124.105C192.47 122.911 192.444 121.677 192.444 121.677L197.724 128.974H198.985Z" fill="#3D7FFC"/>
<path d="M206.55 120.894V119.82H200.102V120.894H202.69V128.974H203.977V120.894H206.55Z" fill="#3D7FFC"/>
<path d="M154.792 35.6011C157.55 35.8504 160.606 36.1371 163.668 36.3856C164.608 36.4589 165.551 36.472 166.492 36.4246C167.405 36.3814 167.836 36.6423 167.753 37.6578C167.401 41.9126 167.493 46.1964 166.961 50.4395C166.878 51.0686 167.266 51.3678 167.636 51.7235C173.108 56.9788 178.578 62.2354 184.047 67.493C185.19 68.591 186.334 69.688 187.503 70.759C188.451 71.628 188.673 72.919 189.4 73.911C189.582 74.247 189.793 74.565 190.03 74.864C190.626 75.429 190.511 75.85 189.937 76.346C189.669 76.528 189.464 76.789 189.35 77.092C189.236 77.396 189.219 77.727 189.301 78.041C189.345 78.318 189.324 78.601 189.239 78.869C189.155 79.136 189.009 79.381 188.814 79.582C188.524 79.957 188.381 80.426 188.413 80.9C188.444 81.373 188.648 81.819 188.985 82.152C189.615 82.973 189.443 83.37 188.37 83.518C187.031 83.771 185.677 83.94 184.317 84.025C182.867 84.093 181.424 84.265 179.998 84.539C178.708 84.739 178.005 84.207 177.932 82.921C177.788 80.419 175.874 79.487 174.093 78.42C173.916 78.315 173.539 78.327 173.511 78.219C173.16 76.796 172.055 76.902 170.966 76.846C170.58 76.78 170.235 76.569 170.002 76.255C168.889 74.792 167.268 74.649 165.657 74.556C164.587 74.495 164.093 74.166 164.245 72.991C164.455 71.347 163.529 70.076 162.519 68.955C161.335 67.641 160.717 65.969 159.569 64.6414C159.125 64.1287 159.435 63.5362 159.77 63.1049C160.34 62.3694 160.073 61.8917 159.364 61.6091C157.973 61.0598 157.709 59.9272 157.62 58.6275C157.575 57.9627 157.763 57.907 158.23 58.2776C158.439 58.4438 158.645 58.6573 158.882 58.4089C159.119 58.1604 158.849 57.9236 158.747 57.7183C158.596 57.4175 158.4 56.9497 158.165 56.9123C156.527 56.6522 155.914 55.5203 155.48 54.1085C155.341 53.6556 154.852 53.314 154.543 52.9076C153.799 52.1559 153.328 51.1769 153.205 50.1263C153.038 48.0139 153.392 45.5333 151.377 43.8563C150.948 43.4981 151.156 42.948 151.453 42.565C151.806 42.1602 152.07 41.6867 152.231 41.1744C152.392 40.6621 152.444 40.122 152.386 39.5883C152.353 39.3763 152.399 39.1598 152.514 38.9791C152.675 38.821 152.801 38.6315 152.885 38.4224C152.969 38.2133 153.009 37.9892 153.003 37.7639C152.996 37.5387 152.944 37.3172 152.848 37.1132C152.752 36.9092 152.615 36.7272 152.446 36.5784C151.948 36.01 152.233 35.636 152.945 35.6035C153.459 35.5786 153.974 35.6011 154.792 35.6011Z" fill="#3D7FFC"/>
<path d="M188.265 62.8985H187.603H172.302H171.641V62.2369V51.5261V50.8644H172.302H173.171V48.8487C173.171 45.1089 176.214 42.0664 179.953 42.0664C183.693 42.0664 186.735 45.1089 186.735 48.8487V50.8644H187.603H188.265V51.5261V62.2369V62.8985ZM176.407 50.8644H183.499V48.8487C183.499 46.8933 181.908 45.3025 179.953 45.3025C177.998 45.3025 176.407 46.8933 176.407 48.8487V50.8644Z" fill="#3D7FFC"/>
<path d="M187.601 62.2364V51.5256H186.071V48.8483C186.071 45.4729 183.325 42.7276 179.951 42.7276C176.576 42.7276 173.83 45.4729 173.83 48.8483V51.5256H172.3V62.2364H187.601ZM179.951 44.6404C182.27 44.6404 184.158 46.5276 184.158 48.8483V51.5256H175.743V48.8483C175.743 46.5276 177.63 44.6404 179.951 44.6404ZM188.924 63.5598H170.977V50.2023H172.507V48.8483C172.507 44.7436 175.846 41.4043 179.951 41.4043C184.055 41.4043 187.394 44.7436 187.394 48.8483V50.2023H188.924V63.5598ZM177.066 50.2023H182.835V48.8483C182.835 47.2577 181.541 45.9638 179.951 45.9638C178.36 45.9638 177.066 47.2577 177.066 48.8483V50.2023Z" fill="#FEFEFF"/>
<path d="M171.302 7.52734L171.094 165.443C206.199 152.704 233.595 130.175 233.7 86.591L233.804 20.478L171.302 7.52734Z" fill="#003395" fill-opacity="0.15"/>
</g>
<g filter="url(#filter1_dd_10192_20499)">
<path d="M70.216 66.574L133.322 79.312L133.427 145.425C133.532 189.011 105.87 211.537 70.426 224.487C34.9839 211.748 7.31947 189.22 7.21437 145.636L7.10938 79.523L70.216 66.574Z" fill="#EDF1F6"/>
<path d="M129.689 82.3279L129.794 145.423C129.794 181.025 110.429 205.674 70.544 220.525C30.5513 205.779 11.1867 181.236 11.0816 145.638L10.9766 82.5429L70.334 70.4299L129.689 82.3279Z" fill="white"/>
<path d="M53.1217 170.493V163.195H45.3907V166.334H49.0903V168.936C49.0903 168.936 48.2739 170.059 45.4162 170.059C42.5586 170.059 40.3133 167.992 40.3133 164.42C40.3133 160.848 42.5075 158.781 45.3397 158.781C47.7381 158.781 49.1159 159.98 49.8558 160.797L52.5859 158.424C52.0245 157.812 50.0089 155.362 45.3397 155.362C40.4153 155.362 36.1289 158.552 36.1289 164.42C36.1289 170.288 40.4153 173.503 45.2886 173.503C50.1364 173.503 52.2287 171.284 53.1217 170.493Z" fill="#3D7FFC"/>
<path d="M72.396 164.42C72.396 161.001 71.018 158.96 69.5386 157.735C68.0843 156.485 65.8135 155.617 62.7517 155.617H56.7812V173.223H62.7517C65.8135 173.223 68.0843 172.355 69.5386 171.13C71.018 169.88 72.396 167.839 72.396 164.42ZM68.2119 164.42C68.2119 166.589 67.3954 167.762 66.6555 168.451C65.9155 169.166 64.6908 169.727 62.9813 169.727H60.8891V159.036H62.9813C64.6908 159.036 65.9155 159.598 66.6555 160.287C67.3954 161.001 68.2119 162.251 68.2119 164.42Z" fill="#3D7FFC"/>
<path d="M88.4722 161.154C88.4722 159.266 87.8082 157.914 86.6352 156.944C85.4612 155.975 83.8542 155.617 82.0422 155.617H75.7402V173.223H79.8732V166.716H82.0422C83.8542 166.716 85.4612 166.359 86.6352 165.39C87.8082 164.395 88.4722 163.042 88.4722 161.154ZM84.2872 161.154C84.2872 162.047 83.9302 162.685 83.4452 163.042C82.9352 163.399 82.3482 163.527 81.4552 163.527H79.8482V158.807H81.4552C82.3482 158.807 82.9352 158.934 83.4452 159.292C83.9302 159.649 84.2872 160.261 84.2872 161.154Z" fill="#3D7FFC"/>
<path d="M105.443 173.223L100.978 165.951C102.279 165.543 104.423 164.241 104.423 160.899C104.423 159.138 103.657 157.735 102.484 156.868C101.335 156.026 99.8037 155.617 97.8397 155.617H91.5117V173.223H95.6457V166.487H96.9467L100.646 173.223H105.443ZM100.264 161.052C100.264 161.971 99.9067 162.455 99.3707 162.838C98.8597 163.221 98.1967 163.323 97.2527 163.323H95.6197V158.807H97.2527C98.1967 158.807 98.8597 158.883 99.3707 159.266C99.9067 159.649 100.264 160.159 100.264 161.052Z" fill="#3D7FFC"/>
<path d="M43.1833 186.827L42.626 185.885C42.029 186.535 41.1003 187 39.8929 187C37.9293 187 36.4831 185.58 36.4831 183.431C36.4831 181.281 37.916 179.862 39.8929 179.862C41.1666 179.862 42.1882 180.525 42.5464 180.976L43.0904 179.941C42.5862 179.45 41.5514 178.734 39.8398 178.734C37.2128 178.734 35.1562 180.605 35.1562 183.457C35.1562 186.31 37.1598 188.18 39.8266 188.18C41.5646 188.18 42.6128 187.464 43.1833 186.827Z" fill="#3D7FFC"/>
<path d="M53.0247 183.457C53.0247 180.525 50.8753 178.734 48.3014 178.734C45.7275 178.734 43.5781 180.525 43.5781 183.457C43.5781 186.389 45.7275 188.18 48.3014 188.18C50.8753 188.18 53.0247 186.389 53.0247 183.457ZM51.7112 183.431C51.7112 185.66 50.1721 187.013 48.3014 187.013C46.4439 187.013 44.8916 185.66 44.8916 183.431C44.8916 181.188 46.4307 179.848 48.3014 179.848C50.1721 179.848 51.7112 181.188 51.7112 183.431Z" fill="#3D7FFC"/>
<path d="M64.2517 188.021L63.4158 178.866H61.837L59.1967 185.938H59.1702L56.5299 178.866H54.9378L54.1152 188.021H55.3889L55.9727 180.79H56.0125L58.812 188.101H59.5417L62.3412 180.79H62.381L62.978 188.021H64.2517Z" fill="#3D7FFC"/>
<path d="M71.5277 181.48C71.5277 180.605 71.2097 180.008 70.6387 179.517C70.0817 179.039 69.3124 178.866 68.4235 178.866H65.8496V188.021H67.1365V184.094H68.4235C70.0957 184.094 71.5277 183.324 71.5277 181.48ZM70.2017 181.48C70.2017 182.634 69.339 183.046 68.3173 183.046H67.1365V179.915H68.3173C69.339 179.915 70.2017 180.339 70.2017 181.48Z" fill="#3D7FFC"/>
<path d="M77.4094 188.021V186.933H74.1854V178.866H72.8984V188.021H77.4094Z" fill="#3D7FFC"/>
<path d="M79.8339 188.021V178.866H78.5469V188.021H79.8339Z" fill="#3D7FFC"/>
<path d="M89.4535 188.021L85.7115 178.84H84.5845L80.8555 188.021H82.2095L83.1515 185.633H87.0785L88.0205 188.021H89.4535ZM86.7205 184.558H83.5095L85.1145 180.445L86.7205 184.558Z" fill="#3D7FFC"/>
<path d="M98.2821 188.021V178.866H97.0211V183.722C97.0211 184.93 97.0341 186.058 97.0341 186.058L91.8471 178.866H90.4941V188.021H91.7671V183.152C91.7671 181.958 91.7411 180.724 91.7411 180.724L97.0211 188.021H98.2821Z" fill="#3D7FFC"/>
<path d="M105.846 179.941V178.866H99.3984V179.941H101.985V188.021H103.272V179.941H105.846Z" fill="#3D7FFC"/>
<path d="M70.267 90.562L71.159 93.452H74.048L71.711 95.238L72.603 98.127L70.266 96.341L67.9285 98.127L68.8215 95.238L66.4844 93.452H69.3737L70.267 90.562Z" fill="#C6DBFF"/>
<path d="M70.267 138.11L71.159 141.001H74.048L71.711 142.787L72.603 145.675L70.266 143.889L67.9285 145.675L68.8215 142.787L66.4844 141.001H69.3737L70.267 138.11Z" fill="#C6DBFF"/>
<path d="M82.1424 94.885L83.0344 97.774H85.9244L83.5864 99.56L84.4794 102.449L82.1424 100.663L79.8054 102.449L80.6974 99.561L78.3594 97.774H81.2494L82.1424 94.885Z" fill="#C6DBFF"/>
<path d="M91.7517 125.99L92.6437 128.881H95.5327L93.1947 130.667L94.0887 133.555L91.7507 131.769L89.4128 133.555L90.3057 130.667L87.9688 128.881H90.8587L91.7517 125.99Z" fill="#C6DBFF"/>
<path d="M94.0174 114.338L94.9094 117.227H97.7994L95.4614 119.013L96.3544 121.903L94.0174 120.117L91.6804 121.903L92.5734 119.013L90.2344 117.227H93.1234L94.0174 114.338Z" fill="#C6DBFF"/>
<path d="M46.4781 114.338L47.3706 117.227H50.2599L47.9223 119.013L48.8158 121.903L46.4786 120.117L44.1405 121.903L45.0335 119.013L42.6953 117.227H45.5851L46.4781 114.338Z" fill="#C6DBFF"/>
<path d="M48.4313 125.99L49.3238 128.881H52.213L49.8759 130.667L50.7679 133.555L48.4313 131.769L46.0936 133.555L46.9866 130.667L44.6484 128.881H47.5382L48.4313 125.99Z" fill="#C6DBFF"/>
<path d="M91.7517 102.371L92.6437 105.261H95.5327L93.1947 107.047L94.0887 109.936L91.7507 108.15L89.4128 109.936L90.3057 107.047L87.9688 105.261H90.8587L91.7517 102.371Z" fill="#C6DBFF"/>
<path d="M49.4469 102.371L50.3394 105.261H53.2287L50.8915 107.047L51.7835 109.936L49.4469 108.15L47.1092 109.936L48.0022 107.047L45.6641 105.261H48.5539L49.4469 102.371Z" fill="#C6DBFF"/>
<path d="M84.2898 135.948L85.1828 138.837H88.0718L85.7338 140.623L86.6278 143.512L84.2908 141.726L81.9518 143.512L82.8448 140.624L80.5078 138.837H83.3978L84.2898 135.948Z" fill="#C6DBFF"/>
<path d="M58.3526 94.885L59.2446 97.774H62.1344L59.7968 99.56L60.6903 102.449L58.3526 100.663L56.0155 102.449L56.9085 99.56L54.5703 97.774H57.4596L58.3526 94.885Z" fill="#C6DBFF"/>
<path d="M56.2037 135.948L57.0967 138.839H59.9865L57.6488 140.625L58.5418 143.514L56.2042 141.728L53.867 143.514L54.76 140.625L52.4219 138.839H55.3107L56.2037 135.948Z" fill="#C6DBFF"/>
<path d="M77.926 117.351H62.6172V128.067H77.926V117.351Z" fill="#3D7FFC"/>
<path d="M66.0542 120.028H64.1406V114.67C64.1407 113.459 64.4999 112.275 65.1727 111.268C65.8456 110.261 66.8019 109.476 67.9208 109.013C69.0397 108.55 70.271 108.428 71.459 108.665C72.647 108.901 73.738 109.484 74.594 110.34C75.164 110.908 75.617 111.582 75.925 112.326C76.232 113.069 76.39 113.866 76.388 114.67V120.028H74.474V114.67C74.474 113.554 74.031 112.483 73.241 111.693C72.452 110.904 71.381 110.46 70.264 110.46C69.1476 110.46 68.0768 110.904 67.2873 111.693C66.4978 112.483 66.0542 113.554 66.0542 114.67V120.028Z" fill="#3D7FFC"/>
<path d="M70.5596 66.574L70.3516 224.489C105.457 211.75 133.216 189.253 133.32 145.669L133.212 79.307L70.5596 66.574Z" fill="#003395" fill-opacity="0.15"/>
</g>
<path d="M205.4 208.093C224.852 208.093 240.621 192.325 240.621 172.873C240.621 153.421 224.852 137.652 205.4 137.652C185.948 137.652 170.18 153.421 170.18 172.873C170.18 192.325 185.948 208.093 205.4 208.093Z" fill="#3D7FFC" stroke="white" stroke-width="2"/>
<path fill-rule="evenodd" clip-rule="evenodd" d="M192.812 169.652V164.158C192.813 161.677 193.548 159.252 194.927 157.189C196.306 155.126 198.265 153.518 200.557 152.568C202.85 151.619 205.372 151.37 207.806 151.854C210.239 152.338 212.475 153.533 214.229 155.288C215.398 156.45 216.324 157.832 216.955 159.355C217.586 160.878 217.908 162.51 217.904 164.158V169.652H221.013V191.607H189.648V169.652H192.812ZM213.983 169.652V164.158C213.983 161.871 213.075 159.677 211.457 158.06C209.84 156.442 207.646 155.533 205.358 155.533C203.071 155.533 200.877 156.442 199.259 158.06C197.642 159.677 196.733 161.871 196.733 164.158V169.652H213.983Z" fill="white"/>
<path d="M199.883 180.557L203.377 184.186L211.24 176.022" stroke="#3D7FFC" stroke-width="3.60595" stroke-linecap="square"/>
<defs>
<filter id="filter0_dd_10192_20499" x="100.656" y="0.520508" width="148.318" height="179.923" filterUnits="userSpaceOnUse" color-interpolation-filters="sRGB">
<feFlood flood-opacity="0" result="BackgroundImageFix"/>
<feColorMatrix in="SourceAlpha" type="matrix" values="0 0 0 0 0 0 0 0 0 0 0 0 0 0 0 0 0 0 127 0" result="hardAlpha"/>
<feOffset dx="5" dy="5"/>
<feGaussianBlur stdDeviation="5"/>
<feColorMatrix type="matrix" values="0 0 0 0 0 0 0 0 0 0.296699 0 0 0 0 0.858629 0 0 0 0.08 0"/>
<feBlend mode="normal" in2="BackgroundImageFix" result="effect1_dropShadow_10192_20499"/>
<feColorMatrix in="SourceAlpha" type="matrix" values="0 0 0 0 0 0 0 0 0 0 0 0 0 0 0 0 0 0 127 0" result="hardAlpha"/>
<feOffset/>
<feGaussianBlur stdDeviation="3.5"/>
<feComposite in2="hardAlpha" operator="out"/>
<feColorMatrix type="matrix" values="0 0 0 0 0.0354167 0 0 0 0 0.105426 0 0 0 0 0.2125 0 0 0 0.07 0"/>
<feBlend mode="normal" in2="effect1_dropShadow_10192_20499" result="effect2_dropShadow_10192_20499"/>
<feBlend mode="normal" in="SourceGraphic" in2="effect2_dropShadow_10192_20499" result="shape"/>
</filter>
<filter id="filter1_dd_10192_20499" x="0.109375" y="59.574" width="148.318" height="179.915" filterUnits="userSpaceOnUse" color-interpolation-filters="sRGB">
<feFlood flood-opacity="0" result="BackgroundImageFix"/>
<feColorMatrix in="SourceAlpha" type="matrix" values="0 0 0 0 0 0 0 0 0 0 0 0 0 0 0 0 0 0 127 0" result="hardAlpha"/>
<feOffset dx="5" dy="5"/>
<feGaussianBlur stdDeviation="5"/>
<feColorMatrix type="matrix" values="0 0 0 0 0 0 0 0 0 0.296699 0 0 0 0 0.858629 0 0 0 0.08 0"/>
<feBlend mode="normal" in2="BackgroundImageFix" result="effect1_dropShadow_10192_20499"/>
<feColorMatrix in="SourceAlpha" type="matrix" values="0 0 0 0 0 0 0 0 0 0 0 0 0 0 0 0 0 0 127 0" result="hardAlpha"/>
<feOffset/>
<feGaussianBlur stdDeviation="3.5"/>
<feComposite in2="hardAlpha" operator="out"/>
<feColorMatrix type="matrix" values="0 0 0 0 0.0354167 0 0 0 0 0.105426 0 0 0 0 0.2125 0 0 0 0.07 0"/>
<feBlend mode="normal" in2="effect1_dropShadow_10192_20499" result="effect2_dropShadow_10192_20499"/>
<feBlend mode="normal" in="SourceGraphic" in2="effect2_dropShadow_10192_20499" result="shape"/>
</filter>
</defs>
</svg>
