<svg width="47" height="47" viewBox="0 0 47 47" fill="none" xmlns="http://www.w3.org/2000/svg">
<g id="data_scaling" clip-path="url(#clip0_21_30844)">
<g id="Group 114076">
<g id="Group 114063">
<g id="Group 114093">
<g id="Group 114092">
<path id="Vector" d="M8.42875 26.1484H4C3.44772 26.1484 3 26.5962 3 27.1484V41.7617C3 42.314 3.44772 42.7617 4 42.7617H8.42875C8.98103 42.7617 9.42875 42.314 9.42875 41.7617V27.1484C9.42875 26.5962 8.98103 26.1484 8.42875 26.1484Z" fill="#C6DBFF"/>
<path id="Vector_2" d="M19.9522 19.2188H15.5234C14.9712 19.2188 14.5234 19.6665 14.5234 20.2188V41.76C14.5234 42.3123 14.9712 42.76 15.5234 42.76H19.9522C20.5045 42.76 20.9522 42.3123 20.9522 41.76V20.2187C20.9522 19.6665 20.5045 19.2188 19.9522 19.2188Z" fill="#3D7FFC"/>
<path id="Vector_3" d="M31.4756 22.375H27.0469C26.4946 22.375 26.0469 22.8227 26.0469 23.375V41.7602C26.0469 42.3124 26.4946 42.7602 27.0469 42.7602H31.4756C32.0279 42.7602 32.4756 42.3124 32.4756 41.7602V23.375C32.4756 22.8227 32.0279 22.375 31.4756 22.375Z" fill="#C6DBFF"/>
<path id="Vector_4" d="M42.9991 11.6797H38.5703C38.018 11.6797 37.5703 12.1274 37.5703 12.6797V41.7637C37.5703 42.316 38.018 42.7637 38.5703 42.7637H42.9991C43.5513 42.7637 43.9991 42.316 43.9991 41.7637V12.6797C43.9991 12.1274 43.5513 11.6797 42.9991 11.6797Z" fill="#3D7FFC"/>
<path id="Vector_5" d="M6.26595 21.7662C6.03693 21.7662 5.81092 21.6627 5.66326 21.4658C5.41314 21.1333 5.47944 20.6612 5.81193 20.4111L17.67 11.4902L29.1322 15.916L40.3102 4.97307C40.6075 4.68176 41.0846 4.68679 41.3759 4.98412C41.6673 5.28145 41.6622 5.75858 41.3649 6.04988L29.4948 17.6708L17.909 13.1968L6.71898 21.6155C6.58337 21.7179 6.42466 21.7672 6.26696 21.7672L6.26595 21.7662Z" fill="#9FC0FF"/>
<path id="Vector_6" d="M20.2132 12.7479C20.4369 11.3803 19.5095 10.0902 18.1419 9.86651C16.7743 9.6428 15.4842 10.5701 15.2605 11.9377C15.0368 13.3054 15.9642 14.5954 17.3318 14.8191C18.6994 15.0428 19.9894 14.1155 20.2132 12.7479Z" fill="#FFB727"/>
<path id="Vector_7" d="M6.26313 23.5184C7.64893 23.5184 8.77235 22.395 8.77235 21.0092C8.77235 19.6234 7.64893 18.5 6.26313 18.5C4.87733 18.5 3.75391 19.6234 3.75391 21.0092C3.75391 22.395 4.87733 23.5184 6.26313 23.5184Z" fill="#FFB727"/>
<path id="Vector_8" d="M29.2631 18.9403C30.6489 18.9403 31.7723 17.8169 31.7723 16.4311C31.7723 15.0453 30.6489 13.9219 29.2631 13.9219C27.8773 13.9219 26.7539 15.0453 26.7539 16.4311C26.7539 17.8169 27.8773 18.9403 29.2631 18.9403Z" fill="#FFB727"/>
<path id="Vector_9" d="M40.7866 8.01844C42.1724 8.01844 43.2958 6.89502 43.2958 5.50922C43.2958 4.12342 42.1724 3 40.7866 3C39.4008 3 38.2773 4.12342 38.2773 5.50922C38.2773 6.89502 39.4008 8.01844 40.7866 8.01844Z" fill="#FFB727"/>
</g>
<path id="Vector_10" d="M46.013 46.6927L0.986986 46.6927C0.442169 46.6927 0 46.2506 0 45.7057C0 45.1609 0.442169 44.7188 0.986986 44.7188L46.013 44.7188C46.5578 44.7188 47 45.1609 47 45.7057C47 46.2506 46.5578 46.6927 46.013 46.6927Z" fill="#9FC0FF"/>
</g>
</g>
</g>
</g>
<defs>
<clipPath id="clip0_21_30844">
<rect width="47" height="47" fill="white"/>
</clipPath>
</defs>
</svg>
