<svg width="47" height="47" viewBox="0 0 47 47" fill="none" xmlns="http://www.w3.org/2000/svg">
<path fill-rule="evenodd" clip-rule="evenodd" d="M37.072 6.13C37.072 7.81 35.312 9.25 31.792 10.45C28.272 11.66 24.022 12.27 19.052 12.27C14.082 12.27 9.80195 11.66 6.28195 10.45C2.76195 9.25 1.00195 7.82 1.00195 6.13C1.00195 4.44 2.76195 3.01 6.28195 1.79C9.80195 0.59 14.062 0 19.052 0C24.042 0 28.272 0.6 31.792 1.79C35.312 3 37.072 4.45 37.072 6.13Z" fill="#3D7FFC"/>
<path fill-rule="evenodd" clip-rule="evenodd" d="M37.0217 10.6806V19.9906C36.1017 20.5406 34.9117 21.0706 33.4317 21.5806C29.4617 22.9706 24.6717 23.6606 19.0517 23.6606C13.4317 23.6606 8.60172 22.9706 4.62172 21.5806C3.13172 21.0806 1.92172 20.5406 1.01172 19.9706V10.6406C1.93172 11.2106 3.13172 11.7506 4.62172 12.2506C8.61172 13.6406 13.4217 14.3306 19.0517 14.3306C24.6817 14.3306 29.4617 13.6406 33.4317 12.2506C34.9017 11.7506 36.1017 11.2306 37.0217 10.6906V10.6806Z" fill="#9FC0FF"/>
<path fill-rule="evenodd" clip-rule="evenodd" d="M26.4017 25.5269C24.1317 25.8269 21.6917 25.9869 19.0517 25.9869C13.4117 25.9869 8.60172 25.2969 4.62172 23.9069C3.13172 23.4069 1.92172 22.8669 1.01172 22.2969V31.6269C1.93172 32.1969 3.13172 32.7369 4.62172 33.2369C8.61172 34.6269 13.4417 35.3169 19.0517 35.3169C21.6917 35.3169 24.1417 35.1569 26.4217 34.8469L26.4017 25.5169V25.5269Z" fill="#9FC0FF"/>
<path d="M46.8926 25.3109L37.6426 23.4609L28.3926 25.3409L28.4126 35.1309C28.4326 40.6509 31.4426 44.4609 37.6726 46.7509C43.8826 44.4509 46.9026 40.6209 46.9026 35.1009L46.8826 25.3109H46.8926ZM38.4726 36.8609L36.8426 38.4909L32.9826 34.6309L34.6126 33.0009L36.8426 35.2309L41.8726 30.2009L43.5026 31.8309L38.4726 36.8609Z" fill="#FECE4D"/>
<path fill-rule="evenodd" clip-rule="evenodd" d="M29.1517 43.4066C27.7117 41.5966 26.8717 39.5066 26.5617 37.1866C24.2517 37.5066 21.7517 37.6666 19.0517 37.6666C13.4117 37.6666 8.60172 36.9766 4.62172 35.5866C3.13172 35.0866 1.92172 34.5466 1.01172 33.9766V43.3066C1.93172 43.8766 3.13172 44.4166 4.62172 44.9166C8.61172 46.3066 13.4417 46.9966 19.0517 46.9966C23.7117 46.9966 27.8017 46.5066 31.3317 45.5566C30.5117 44.9066 29.7817 44.1966 29.1517 43.4066Z" fill="#9FC0FF"/>
</svg>
