<svg width="47" height="47" viewBox="0 0 47 47" fill="none" xmlns="http://www.w3.org/2000/svg">
<g clip-path="url(#clip0_14811_79897)">
<path fill-rule="evenodd" clip-rule="evenodd" d="M37.0696 6.13C37.0696 7.81 35.3096 9.25 31.7897 10.45C28.2697 11.66 24.0198 12.27 19.0498 12.27C14.0799 12.27 9.79991 11.66 6.27995 10.45C2.75998 9.25 1 7.82 1 6.13C1 4.44 2.75998 3.01 6.27995 1.79C9.79991 0.59 14.0599 0 19.0498 0C24.0398 0 28.2697 0.6 31.7897 1.79C35.3096 3 37.0696 4.45 37.0696 6.13Z" fill="#3D7FFC"/>
<path fill-rule="evenodd" clip-rule="evenodd" d="M37.0194 10.6806V19.9906C36.0994 20.5406 34.9094 21.0706 33.4294 21.5806C29.4595 22.9706 24.6695 23.6606 19.0496 23.6606C13.4296 23.6606 8.59969 22.9706 4.61973 21.5806C3.12974 21.0806 1.91976 20.5406 1.00977 19.9706V10.6406C1.92976 11.2106 3.12974 11.7506 4.61973 12.2506C8.60969 13.6406 13.4196 14.3306 19.0496 14.3306C24.6795 14.3306 29.4595 13.6406 33.4294 12.2506C34.8994 11.7506 36.0994 11.2306 37.0194 10.6906V10.6806Z" fill="#9FC0FF"/>
<path fill-rule="evenodd" clip-rule="evenodd" d="M26.3995 25.5269C24.1295 25.8269 21.6896 25.9869 19.0496 25.9869C13.4096 25.9869 8.59969 25.2969 4.61973 23.9069C3.12974 23.4069 1.91976 22.8669 1.00977 22.2969V31.6269C1.92976 32.1969 3.12974 32.7369 4.61973 33.2369C8.60969 34.6269 13.4396 35.3169 19.0496 35.3169C21.6896 35.3169 24.1395 35.1569 26.4195 34.8469L26.3995 25.5169V25.5269Z" fill="#9FC0FF"/>
<path d="M46.8901 25.3109L37.6401 23.4609L28.3901 25.3409L28.4101 35.1309C28.4301 40.6509 31.4401 44.4609 37.6701 46.7509C43.8801 44.4509 46.9001 40.6209 46.9001 35.1009L46.8801 25.3109H46.8901ZM38.4701 36.8609L36.8401 38.4909L32.9801 34.6309L34.6101 33.0009L36.8401 35.2309L41.8701 30.2009L43.5001 31.8309L38.4701 36.8609Z" fill="#FECE4D"/>
<path fill-rule="evenodd" clip-rule="evenodd" d="M29.1495 43.4066C27.7095 41.5966 26.8695 39.5066 26.5595 37.1866C24.2495 37.5066 21.7495 37.6666 19.0496 37.6666C13.4096 37.6666 8.59969 36.9766 4.61973 35.5866C3.12974 35.0866 1.91976 34.5466 1.00977 33.9766V43.3066C1.92976 43.8766 3.12974 44.4166 4.61973 44.9166C8.60969 46.3066 13.4396 46.9966 19.0496 46.9966C23.7095 46.9966 27.7995 46.5066 31.3294 45.5566C30.5095 44.9066 29.7795 44.1966 29.1495 43.4066Z" fill="#9FC0FF"/>
</g>
<defs>
<clipPath id="clip0_14811_79897">
<rect width="46.9995" height="47" fill="white"/>
</clipPath>
</defs>
</svg>
