<svg width="47" height="47" viewBox="0 0 47 47" fill="none" xmlns="http://www.w3.org/2000/svg">
<g clip-path="url(#clip0_23_34008)">
<g clip-path="url(#clip1_23_34008)">
<path d="M16.41 0C7.35 0 0 7.35 0 16.41C0 25.47 7.35 32.82 16.41 32.82C17.67 32.82 18.88 32.67 20.06 32.4C20.33 30.41 21 28.55 22 26.91C22.01 26.89 22.03 26.86 22.04 26.84C23.24 24.88 24.88 23.23 26.84 22.04C26.86 22.03 26.89 22.01 26.91 22C28.56 21.01 30.41 20.33 32.4 20.06C32.67 18.89 32.82 17.67 32.82 16.41C32.82 7.35 25.48 0 16.41 0ZM22.63 21.04C22.35 21.64 21.95 22.17 21.45 22.59C20.94 23.03 20.32 23.37 19.61 23.63C19.16 23.79 18.69 23.9 18.19 23.97L18.22 25.42C18.22 25.49 18.19 25.56 18.14 25.61C18.09 25.66 18.02 25.69 17.95 25.69L15.78 25.74C15.71 25.74 15.64 25.71 15.59 25.66C15.54 25.61 15.51 25.54 15.51 25.47L15.48 23.92C15.08 23.86 14.7 23.77 14.35 23.66C13.51 23.39 12.82 23 12.25 22.5C11.68 22 11.23 21.37 10.94 20.67C10.64 19.96 10.46 19.17 10.41 18.32L13.21 18.26C13.27 18.81 13.41 19.28 13.65 19.68C13.87 20.07 14.16 20.4 14.51 20.67C14.86 20.93 15.26 21.12 15.69 21.23C16.15 21.35 16.62 21.4 17.1 21.39C17.53 21.39 17.96 21.33 18.38 21.22C18.77 21.12 19.1 20.98 19.37 20.8C19.63 20.64 19.84 20.41 19.99 20.15C20.13 19.89 20.2 19.6 20.19 19.3C20.19 18.98 20.1 18.71 19.95 18.49C19.8 18.27 19.56 18.07 19.23 17.9C18.9 17.73 18.47 17.58 17.93 17.44C17.39 17.3 16.74 17.17 15.96 17.03C15.07 16.85 14.3 16.64 13.66 16.39C13.02 16.14 12.48 15.84 12.06 15.49C11.66 15.16 11.34 14.75 11.12 14.27C10.91 13.81 10.8 13.27 10.79 12.67C10.78 12.02 10.9 11.41 11.16 10.86C11.42 10.3 11.81 9.81 12.29 9.42C12.78 9.01 13.37 8.69 14.06 8.45C14.39 8.33 14.75 8.24 15.12 8.18L15.09 6.69C15.09 6.62 15.12 6.55 15.17 6.5C15.22 6.45 15.29 6.42 15.36 6.42L17.53 6.37C17.6 6.37 17.67 6.4 17.72 6.45C17.77 6.5 17.8 6.57 17.8 6.64L17.83 8.16C18.16 8.21 18.49 8.28 18.8 8.38C19.54 8.61 20.17 8.94 20.71 9.38C21.25 9.83 21.69 10.38 22 11.02C22.32 11.67 22.49 12.41 22.53 13.24L19.76 13.3C19.52 11.54 18.44 10.68 16.51 10.72C15.57 10.74 14.86 10.92 14.37 11.24C13.88 11.56 13.64 12.01 13.65 12.56C13.65 12.77 13.71 12.97 13.83 13.14C13.94 13.3 14.12 13.45 14.36 13.59C14.6 13.72 14.91 13.85 15.28 13.95C15.65 14.05 16.11 14.16 16.65 14.26C17.12 14.34 17.59 14.44 18.08 14.55C18.57 14.65 19.04 14.78 19.52 14.94C19.98 15.09 20.42 15.28 20.85 15.51C21.26 15.73 21.63 16.01 21.95 16.34C22.28 16.68 22.54 17.07 22.71 17.5C22.9 17.95 23 18.48 23.02 19.08C23.04 19.79 22.9 20.45 22.62 21.05L22.63 21.04Z" fill="#FECE4D"/>
<path d="M31.6392 22.5209C27.1092 23.5609 23.5492 27.1109 22.5192 31.6409C22.3192 32.5209 22.1992 33.4209 22.1992 34.3609C22.1992 34.5909 22.2192 34.8109 22.2292 35.0309C28.3192 33.1309 33.1192 28.3209 35.0192 22.2409C34.7992 22.2309 34.5792 22.2109 34.3492 22.2109C33.4092 22.2109 32.5092 22.3309 31.6292 22.5309L31.6392 22.5209Z" fill="#3D7FFC"/>
<path d="M35.0302 22.2266C33.1302 28.3166 28.3202 33.1166 22.2402 35.0166C22.5902 41.4166 27.8802 46.5066 34.3602 46.5066C40.8402 46.5066 46.5202 41.0666 46.5202 34.3466C46.5202 27.6266 41.4302 22.5766 35.0302 22.2266ZM39.1702 36.5866L35.2002 40.5566C34.8202 40.9366 34.1902 40.9366 33.8102 40.5566L29.8402 36.5866C29.4602 36.2066 29.4602 35.5766 29.8402 35.1966C30.2202 34.8166 30.8502 34.8166 31.2302 35.1966L33.5202 37.4866V27.7966C33.5202 27.2566 33.9602 26.8166 34.5002 26.8166C35.0402 26.8166 35.4802 27.2566 35.4802 27.7966V37.4866L37.7702 35.1966C38.1502 34.8166 38.7802 34.8166 39.1602 35.1966C39.5402 35.5766 39.5402 36.2066 39.1602 36.5866H39.1702Z" fill="#3D7FFC"/>
</g>
</g>
<defs>
<clipPath id="clip0_23_34008">
<rect width="47" height="47" fill="white"/>
</clipPath>
<clipPath id="clip1_23_34008">
<rect width="46.51" height="46.51" fill="white"/>
</clipPath>
</defs>
</svg>
