<svg width="588" height="376" viewBox="0 0 588 376" fill="none" xmlns="http://www.w3.org/2000/svg">
<g opacity="0.46">
<path d="M299.202 255.956C292.485 250.944 286.171 246.492 275.012 246.87C272.787 245.405 274.036 249.261 272.723 245.34C273.036 244.741 271.914 240.26 270.173 243.455C266.25 240.13 260.837 236.275 256.342 245.562C256.043 243.638 262.279 238.759 258.31 237.942C256.077 237.169 254.225 236.761 253.757 234.875C253.617 224.667 245.976 211.97 231.002 213.518C228.928 214.241 227.8 207.534 225.092 210.958C227.702 205.555 218.563 203.546 217.722 201.229C219.605 197.514 213.287 198.309 211.815 194.957C218.817 194.049 211.405 192.108 203.918 196.04C201.687 192.96 197.522 195.299 194.815 193.082C196.198 192.31 194.024 189.818 190.914 189.822C191.598 188.352 188.591 184.275 189.533 190.433C188.388 190.034 186.798 192.765 186.009 190.795C185.739 191.153 186.189 191.158 185.213 192.891C182.803 190.051 189.365 188.977 185.815 185.946C183.881 185.779 181.906 191.816 178.166 190.037C177.496 190.255 177.92 190.396 177.171 191.947C176.655 191.394 176.151 191.252 175.683 191.423C174.223 191.873 173.155 195.236 173.509 197.988C171.915 198.235 170.092 200.231 170.266 203.995C170.247 202.17 166.454 196.493 162.826 196.861C153.683 206.392 151.094 185.547 155.057 176.375C154.754 176.17 156.047 172.705 152.75 172.868C153.395 167.861 147.543 172.157 142.52 170.098C145.294 164.328 147.81 156.617 151.221 147.929C145.485 145.661 141.496 153.619 137.972 159.518C137.084 157.772 134.78 159.626 131.411 160.455C125.654 151.677 131.117 124.536 143.703 118.195C143.503 118.177 143.318 118.175 143.141 118.149C144.081 117.533 143.847 118.277 144.964 116.152C144.961 116.498 144.898 116.353 145.01 117.045C146.653 114.701 148.997 118.401 150.926 116.261C151.121 116.85 150.892 120.649 153.026 118.182C153.184 118.385 153.435 119.641 154.01 118.539L153.914 118.578C154.16 118.115 154.114 118.645 154.104 117.391C154.592 119.012 156.806 121.464 155.428 116.908C155.099 116.824 157.088 116.501 156.271 115.519C157.425 113.692 158.791 115.829 160.687 113.103C160.644 113.327 160.702 113.914 159.856 114.829C161.281 115.287 162.396 113.363 165.002 115.274C163.427 122.272 171.059 108.472 168.958 124.152C168.35 124.667 166.87 128.25 168.55 128.165C168.508 128.334 167.076 129.884 168.417 129.321C167.744 142.373 175.976 128.918 174.536 119.201L174.512 119.185L174.922 119.23C175.391 106.425 190.725 103.611 196.185 97.7672C197.332 97.9411 198.824 96.7689 198.203 94.857C198.704 95.3289 201.879 91.749 199.386 91.9614C200.84 89.8725 201.29 86.3657 204.921 83.7152C203.327 85.3685 201.878 86.3082 202.127 89.0596C201.778 89.4172 200.936 89.2628 201.036 90.9678C201.035 91.0722 201.05 91.193 201.073 91.3298C202.164 89.3815 205.661 89.3011 206.268 83.9718C206.892 84.2602 206.043 86.1471 206.755 85.6892C206.73 85.7291 206.73 85.7532 206.73 85.7934C208.041 84.3136 211.047 82.8534 212.34 79.4527C212.705 81.233 221.903 77.417 214.913 78.6144C216.314 77.7224 218.433 78.6388 220.168 76.6175C220.882 77.4374 219.825 77.8029 222.101 76.9772C221.734 77.3989 221.201 77.6339 220.755 77.9583C220.835 78.0396 224.068 77.8276 224.43 74.9708C223.656 75.1869 224.436 75.9031 222.736 76.2853C222.845 72.3888 226.915 71.3588 232.049 68.0263C232.326 68.3349 230.603 68.5964 231.082 69.6306C231.835 69.0928 235.53 67.8575 238.15 66.5214C238.885 66.1441 239.533 65.7658 240.019 65.3856C239.187 67.1762 241.396 65.2005 244.358 64.0613C244.129 64.4444 244.42 64.303 242.384 65.2279C243.285 65.8009 242.698 65.8182 244.731 65.2148C243.526 66.5752 240.599 65.9548 237.986 68.167C235.14 71.0274 239.749 72.8164 243.266 67.4803C243.37 67.5217 243.21 67.4797 243.688 67.8468C242.221 68.8587 248.622 67.8473 252.326 65.1575C252.416 65.7452 257.734 63.8213 254.943 62.6239C257.764 59.7873 253.714 60.4479 250.86 64.7227C250.46 63.8502 250.568 63.5299 248.796 64.5784C248.573 64.4312 248.655 64.2714 247.829 64.1655C246.734 64.2734 246.908 63.1583 245.178 62.6161C245.334 61.6454 245.585 60.8044 246.1 60.0228C246.575 59.2567 247.266 58.5816 248.367 57.9031C248.062 57.8192 246.219 58.1034 245.171 58.3324C245.563 57.8467 244.992 57.8401 243.645 57.6077C257.749 56.2188 247.164 50.0294 232.031 60.4476C239.285 55.1787 248.452 50.4702 258.513 51.2932C259.701 51.3872 260.913 51.5619 262.147 51.8252C265.206 49.3128 268.103 48.9845 272.363 47.5547C274.351 47.2561 275.902 43.7539 274.628 42.0275C273.972 41.0877 272.498 40.685 269.884 41.547C271.166 40.4687 276.006 41.762 273.351 38.4927C273.726 40.8036 270.019 36.8551 269.695 38.4507C269.004 38.4427 270.71 36.1157 269.209 36.6609C269.192 36.0339 269.439 36.2376 268.636 35.5212C269.079 35.4057 271.223 33.4293 270.032 33.6165C270.939 32.2929 269.702 32.2143 270.315 29.9551C270.401 22.498 268.551 28.9061 261.391 30.9213C261.231 30.9194 261.563 29.9508 260.652 30.1895C258.996 28.1854 262.211 26.7114 263.241 24.5052L263.242 24.465C261.717 24.9699 262.774 24.5641 260.378 23.9901C260.796 23.9949 262.248 22.8382 260.853 23.1838C261.274 21.5894 251.983 19.4814 252.163 23.4455C250.921 23.833 249.644 24.4613 248.642 26.9813C243.848 27.3521 245.237 33.0901 239.744 36.2175C230.682 38.701 231.514 41.861 225.427 47.6738C225.83 44.078 223.694 50.9729 222.747 45.24C222.671 44.8774 223.121 44.2156 223.797 43.4358C224.065 43.1576 224.326 42.8552 224.618 42.5531C227.197 39.8745 230.932 36.526 226.074 37.539C226.011 37.498 225.955 37.4572 225.875 37.4322C225.941 37.2883 225.998 37.1684 226.056 37.0485C225.775 37.0614 225.8 36.9893 224.761 37.1381C224.878 36.0706 224.998 36.072 222.701 35.2579C224.137 33.4341 221.373 31.2244 218.168 32.5376C218.825 31.9987 220.576 30.6848 221.974 28.6033C221.163 28.5297 221.043 28.5283 220.373 28.7295C222.427 25.5787 229.374 23.1753 234.839 20.361C236.355 20.6035 240.827 19.6423 236.403 17.8314C237.168 17.6956 237.764 19.0204 239.301 18.8613C239.845 19.0122 240.01 18.6444 241.379 17.6958C242.257 18.9194 246.497 17.1439 247.889 15.6249C248.945 15.3558 249.149 15.0929 250.914 14.631C248.98 15.7982 246.189 17.4055 243.444 19.134C244.153 19.0216 244.846 18.8688 245.463 18.9965C245.463 19.0367 244.993 19.3286 244.463 19.9815C245.244 20.5772 247.771 18.9266 249.822 18.0822C248.177 20.6511 256.541 18.7221 251.887 18.0417C251.986 17.8821 252.274 18.006 252.948 17.3306C252.775 17.0634 252.628 15.8723 251.616 15.8044C251.802 14.9788 251.877 15.4217 252.179 14.3723C251.655 14.511 251.604 15.4587 250.587 15.8086C250.994 15.3874 251.178 15.4538 251.589 14.6066C251.525 14.5898 251.589 14.6227 251.269 14.4985C251.578 14.2368 251.455 13.7291 252.507 13.8055C252.465 13.9497 252.395 14.4069 253.089 14.214C251.829 14.746 254.353 16.7922 253.555 14.2194C253.94 14.2399 254.014 14.8113 254.75 13.7429C255.69 14.4047 259.463 13.3953 260.601 10.8768C261.107 10.9228 264.048 9.5824 262.889 9.03061C262.711 8.45796 263.401 8.51413 264.29 8.0502C264.726 8.60171 266 8.96193 267.072 8.62869C267.113 8.61309 267.137 8.58927 267.177 8.58973C267.702 8.39485 268.156 8.03842 268.444 7.44703C268.827 7.69253 268.539 7.63294 269.267 7.9226C269.08 8.09726 268.067 8.81695 269.138 8.58818C269.137 8.70871 269.153 8.66872 269.537 8.87405C269.512 8.91395 269.496 8.88966 269.292 9.1927C269.476 9.235 269.276 9.19251 269.92 9.11955C269.346 9.37816 266.286 10.6529 269.419 10.038C268.667 10.4553 269.098 11.4327 270.244 10.2725C270.177 10.4727 270.098 10.3753 269.913 11.1206C267.835 10.7913 269.907 13.7646 270.626 10.6386C270.688 10.8402 270.5 11.1032 271.208 11.0471C270.904 14.3788 267.195 11.9492 265.86 15.5343C263.487 16.4392 260.174 14.5125 257.697 17.4415C258.508 18.9055 257.774 17.6996 260.134 17.9919C261.252 17.2091 262.103 18.6816 263.334 17.1206C263.492 17.3876 262.691 18.5035 263.89 17.7137C263.908 18.2363 263.687 17.8962 264.223 18.7864C263.283 20.1739 264.518 21.8196 268.224 22.4087C272.948 24.6249 269.337 20.6213 269.858 19.3977C271.574 19.6826 273.59 25.3797 274.582 19.5324C274.871 20.9663 276.576 20.142 275.346 18.0303C277.13 19.5215 274.803 15.6372 274.019 15.3469C276.236 14.0946 276.523 14.2586 278.041 17.1291C279.954 15.6964 288.907 14.3448 279.486 11.0218C279.063 10.6955 279.502 10.9657 278.078 10.4028C278.753 9.74356 279.619 9.89816 281.145 9.26475C281.308 9.06571 279.795 9.24924 279.979 8.64057C281.32 9.48376 281.428 7.06597 279.868 7.85169C280.094 7.69357 280.395 7.45592 280.583 7.13663C280.546 6.91117 279.449 7.24412 278.415 6.32408C279.229 6.05217 277.002 4.77284 276.109 6.25738C276.13 5.7915 277.302 4.55126 275.041 4.0993C278.954 1.3315 267.081 3.67824 274.215 3.94514C273.505 4.16201 270.403 4.87372 270.309 4.64761C275.725 1.21398 265.559 2.59186 264.17 5.95127C263.242 4.18057 267.106 3.62227 269.024 2.48706C266.824 2.30102 263.298 2.80694 259.004 5.82753C259.358 6.45846 259.516 5.28693 260.984 6.27624C257.193 5.34861 257.195 8.63563 263.192 7.79648C263.756 8.42982 263 8.42113 260.321 7.98847C260.254 8.18862 258.862 8.33334 259.395 9.53693C258.377 9.96724 257.539 9.4754 255.968 10.5262C255.746 10.2584 253.736 11.047 254.316 11.6002C254.033 11.7416 253.162 12.053 252.347 12.3088C252.452 11.5626 252.317 11.4405 253.541 10.5465C253.595 10.6918 253.846 10.5259 254.002 10.9375C254.49 10.4368 255.752 9.74414 255.283 8.62165C254.531 9.01483 253.703 9.02941 251.74 10.582C251.929 10.2466 253.26 8.39747 253.531 9.33283C254.122 8.9378 254.6 9.26476 254.052 8.00475C253.571 7.93491 253.849 8.17922 252.675 8.27019C252.856 7.92669 253.303 8.15687 253.953 7.53749C254.776 7.98897 256.01 6.1467 256.065 4.91772C258.48 3.82842 260.785 3.99958 264.606 2.26745C263.37 2.10857 261.952 1.04751 259.87 2.45408C257.379 3.17282 254.383 5.07518 251.126 6.66111C251.166 6.67764 251.231 6.6784 251.271 6.67886C250.587 6.73529 247.933 8.27994 250.506 8.20506C250.546 8.22159 250.199 8.34617 250.518 8.56683C249.501 8.90071 249.423 8.73909 247.88 9.42856C247.983 9.5744 248.183 9.64902 248.319 9.6747C246.707 10.7652 245.137 10.3051 243.117 11.9776C243.094 11.8729 243.133 11.9618 242.999 11.7111C242.853 11.8942 242.69 12.0933 242.511 12.2921C242.658 12.0366 242.756 11.869 243.92 10.6126C243.659 10.9552 243.35 11.3133 243.064 11.6556C243.227 11.4967 244.206 10.9213 245.467 10.2848C245.323 10.2269 245.266 10.3227 244.641 10.1307C245.533 10.1409 252.277 7.18871 247.933 8.2719C247.518 7.3188 246.567 7.58914 245.282 8.92451C245.428 8.74939 245.591 8.55034 245.754 8.36737C245.019 8.74467 241.824 9.0535 244.367 9.50869C242.625 10.011 239.359 12.3764 237.062 10.1881C236.997 10.1874 236.431 10.5104 236.113 10.2174C236.098 10.1128 237.892 9.99676 236.969 9.17445C237.033 9.19126 237.13 9.1763 237.156 8.97569C236.5 9.39408 233.345 8.43357 232.51 10.4813C231.708 10.2953 230.636 11.9546 229.624 11.9429C229.987 11.8025 231.054 10.5449 230.203 10.5351C233.046 9.24985 228.742 11.0166 225.655 10.4025C225.925 9.3126 228.336 10.7548 228.611 8.45144C226.606 8.77395 226.369 6.38433 223.756 7.18204C223.982 7.06409 224.224 6.94633 225.081 6.57043C224.098 6.06085 221.788 7.78626 221.511 7.36518C222.227 6.66618 221.773 7.70571 224.023 5.56975C223.249 5.82605 223.066 6.33027 220.595 6.70367C220.716 6.6247 220.86 6.66652 221.838 6.19557C220.682 6.06173 219.085 6.56575 216.452 7.00158C216.493 7.00204 216.638 6.96354 216.696 6.7874C216.229 6.82222 216.656 6.77085 215.6 7.05606C215.781 6.65631 214.728 7.35144 214.546 7.18861C214 7.06179 213.523 8.04479 211.934 7.88185C211.956 7.29544 212.262 7.29894 213.282 6.62756C212.695 6.67706 210.644 5.43994 210.691 5.54495L210.546 5.58348C210.564 5.36671 210.705 5.66568 210.954 5.0015C210.128 4.87144 211.033 5.12295 209.395 4.99963C209.999 4.9262 211.369 3.84899 209.683 4.45645C209.829 4.31347 210.945 3.72356 209.542 4.14943C211.61 3.16061 208.857 4.30229 207.967 4.06704C205.897 4.49327 203.506 5.57482 199.026 6.55197C197.929 6.94117 195.271 8.14824 192.904 9.8971C192.92 9.89729 193.001 9.85804 193.162 9.77953C192.515 10.1739 191.388 11.0369 190.199 10.975C191.581 10.3078 190.401 10.8809 191.848 10.1261C191.526 10.2027 191.263 10.055 189.693 10.929C189.694 10.8487 189.677 10.9288 189.873 10.7061C188.193 11.4341 186.302 12.3045 183.871 14.0365C184.275 13.8724 183.896 14.0127 184.928 13.687C184.83 13.8065 184.565 13.8275 184.134 14.2806C184.457 14.1397 184.32 14.1622 185.878 13.5372C185.918 13.5377 185.943 13.5139 185.983 13.4983C185.943 13.5139 185.902 13.5375 185.862 13.5612C184.075 14.5291 182.95 15.1832 180.212 16.3492C180.253 16.2853 180.471 16.1914 180.966 15.8113C180.659 15.9525 180.279 16.1651 179.971 16.3464L179.971 16.3062C177.698 17.6302 176.614 18.2044 172.392 21.2901C172.562 21.1876 172.756 21.0532 172.926 20.9668C172.699 21.1088 172.497 21.2672 172.27 21.4012C170.804 22.4131 169.296 23.553 167.074 25.2633C167.009 25.3028 166.952 25.3664 166.847 25.4295C166.726 25.5245 166.579 25.6675 166.401 25.8262C166.83 25.5498 166.709 25.6047 167.843 24.8302C167.924 24.7507 168.029 24.6877 168.126 24.6325C167.98 24.7353 168.004 24.7356 167.843 24.8302C167.745 24.9094 167.534 25.0677 167.129 25.3684C167.331 25.2904 167.129 25.3524 167.735 25.07C166.958 25.5835 164.334 27.3133 162.167 29.193L162.45 28.9954C162.45 28.9954 162.466 28.9956 162.353 29.1148C162.903 28.7595 163.375 28.2425 165.794 26.8479L165.817 26.9687C165.695 27.0718 165.533 27.1905 164.755 27.728C164.773 27.6237 164.739 27.7278 164.943 27.465C164.23 28.0032 163.6 28.221 162.072 29.7545C162.169 29.6994 162.396 29.5573 162.972 29.0978C162.971 29.1139 162.988 29.098 162.873 29.2414L162.873 29.2655L162.89 29.2416C162.987 29.1864 163.416 28.9261 163.927 28.5061C163.926 28.5463 163.951 28.5064 163.909 28.6264C164.515 28.3521 164.88 28.0911 166.331 26.9746L166.29 27.0385C166.516 26.9768 167.366 26.4642 168.242 25.7108C167.572 26.0406 167.493 25.8789 165.799 27.1614C167.065 26.0428 168.998 24.9962 170.99 23.6609L171.006 23.6611C171.087 23.6218 171.328 23.6246 172.041 23.1265C172.024 23.1906 172.057 23.1427 171.959 23.2702C172.265 23.2175 173.117 22.5602 174.418 21.884C174.353 21.9637 174.256 21.9867 174.013 22.2169C174.4 22.0606 174.257 21.9143 176.067 21.0752C174.74 21.8717 172.485 23.011 170.079 24.6228C170.702 24.9916 172.23 23.4582 173.444 23.4882C173.67 23.3702 173.953 23.2288 174.155 23.0946C173.847 23.3321 174.099 23.1341 173.441 23.7373C174.335 23.5226 175.378 22.3049 178.165 21.0431C177.464 21.8628 177.228 21.4583 175.071 23.1292C175.798 22.7759 175.297 23.0273 177.149 22.0601C176.8 22.3776 177.004 22.0424 176.03 22.8911C176.151 22.8764 176.07 22.8916 176.377 22.8147C175.969 23.3324 176.029 22.9956 174.723 24.0494C174.664 24.2657 178.323 21.9691 176.356 24.5906L177.132 24.2379C176.07 24.9972 175.433 25.8578 174.243 27.3148L174.178 27.3783C174.177 27.4989 169.594 30.5001 170.261 30.5077C169.766 30.8878 169.711 30.7666 167.811 32.4967C167.971 32.5629 167.849 32.6419 168.222 32.397C166.98 33.4114 165.837 34.2662 163.991 36.1738C164.62 35.9801 164.136 36.1915 165.375 35.2976C165.35 35.4179 165.271 35.2803 165.104 35.8169C166.084 35.1772 167.017 34.4003 169.265 32.4894C168.51 33.204 166.406 35.1246 164.79 36.5848L165.074 36.3871C162.727 38.4657 159.987 41.239 157.016 44.54C156.789 44.6981 156.628 44.6561 155.869 45.7002L156.375 45.706C147.822 54.9703 129.389 70.7833 121.796 88.0952C120.847 89.563 121.491 88.0756 118.791 94.3051C118.707 94.6658 118.183 94.8044 117.696 96.6392C117.695 96.7035 117.696 96.6231 117.691 97.041C120.617 101.222 112.171 109.531 113.657 115.857C113.537 115.831 113.393 115.789 113.272 115.772C114.138 115.942 113.415 118.707 111.478 118.765C110.746 118.797 109.979 123.979 111.284 125.128C113.106 126.7 109.492 131.392 109.744 134.665C109.744 134.665 109.785 134.626 109.891 134.482L109.945 134.652L110.051 134.548C111.123 134.255 109.224 142.801 111.084 139.696C111.317 133.43 113.864 124.386 114.252 115.863L114.717 115.925C114.931 112.737 115.658 110.985 117.746 106.911C118.084 106.874 117.291 108.079 118.631 107.572C118.614 107.628 117.701 109.434 118.7 108.577C118.411 109.241 116.927 113.162 116.189 115.821C115.782 116.259 115.757 116.339 115.07 118.075C115.336 118.014 115.335 118.134 115.781 117.754C115.681 129.96 115.027 141.373 114.208 156.038C114.276 155.653 114.361 155.276 114.422 154.891C115.321 159.161 123.47 173.142 128.239 169.379C128.918 168.318 130.775 168.3 131.805 170.248C133.399 174.189 135.048 178.25 139.253 180.235C140.607 179.905 141.844 183.375 143.833 180.939C143.429 182.574 145.135 187.214 147.673 189.494C147.169 191.409 146.706 194.634 149.04 197.064C149.249 196.383 149.073 195.61 149.626 195.07C151.489 196.57 151.676 201.257 155.128 203.724C154.301 201.569 159.079 202.62 157.439 204.763C156.058 203.188 157.191 208.779 158.117 205.197C158.182 205.133 158.154 205.438 158.719 205.204C159.003 207.064 163.798 208.051 160.711 202.559C161.786 202.024 161.858 202.749 162.818 200.3C164.023 197.606 169.585 207.973 168.396 212.837C168.364 214.227 170.33 218.702 168.17 218.517C167.373 219.335 168.786 220.887 169.777 221.364C169.632 223.468 166.632 224.342 166.751 228C165.739 227.964 165.529 228.749 166.582 230.119C164.011 230.781 163.098 232.571 163.753 237.063C162.712 238.144 162.472 242.987 165.634 245.451C161.455 257.329 180.516 276.306 190.428 288C193.996 292.22 197.189 294.098 200.16 295.691C205.647 298.639 210.406 300.623 215.444 314.681C216.151 316.834 217.075 318.919 218.136 320.996C222.899 330.285 230.501 338.787 234.279 347.743C236.395 349.704 237.867 350.227 240.304 352.843L240.264 352.843C240.717 353.981 241.973 355.209 243.865 356.324C243.801 356.283 243.641 356.217 243.464 356.239C244.288 356.594 244.851 358.642 247.194 358.934C246.604 357.858 246.834 358.769 244.559 356.075C245.652 356.047 246.632 358.22 248.263 358.962C248.285 359.123 249.279 360.003 250.016 360.967C249.392 360.679 250.08 360.928 248.027 359.892C249.108 360.917 250.648 362.63 252.806 364.311C252.806 364.311 252.624 364.108 252.529 363.906C252.729 364.069 253.413 364.639 253.799 363.92L253.642 363.589C254.104 363.956 254.664 364.147 255.69 365.123C255.626 365.123 255.595 365.026 254.64 364.87C254.704 364.927 254.6 364.87 255.141 365.318C255.125 365.318 255.077 365.301 254.981 365.252C256.37 367.454 260.824 368.719 263.512 370.469C263.497 370.405 263.513 370.429 263.475 370.244C263.475 370.244 263.538 370.325 264.057 370.652C264.041 370.612 264.081 370.637 263.859 370.409C264.035 370.451 263.915 370.426 264.339 370.559L264.363 370.559L264.363 370.543C264.482 370.689 264.709 370.563 265.227 370.939C265.066 370.937 265.147 370.874 264.577 370.851C264.641 370.836 264.878 371.216 265.24 371.204C265.321 371.125 266.064 371.551 266.05 371.31C266.074 371.31 266.169 371.48 266.45 371.5L266.45 371.484C266.571 371.485 266.489 371.588 267.274 371.855C267.258 371.838 267.258 371.798 267.259 371.734C267.379 371.792 267.322 371.815 267.739 371.916L267.7 371.835C267.636 371.754 268.018 372.08 268.644 372.232L268.948 372.356L268.908 372.299L269.268 372.44C269.268 372.44 269.244 372.44 269.245 372.384C269.364 372.465 269.244 372.44 269.669 372.509C269.789 372.551 269.733 372.55 270.078 372.634C270.078 372.634 270.014 372.569 269.935 372.472C270.423 372.638 270.174 372.635 271.143 372.912C271.12 372.847 271.16 372.872 271.024 372.766C271.752 373.096 272.739 373.228 273.805 373.449L273.406 373.203C273.591 373.221 274.148 373.694 274.591 373.618C274.432 373.44 274.59 373.659 273.848 373.248C273.904 373.249 274.167 373.437 274.09 373.106C274.17 373.148 274.394 373.271 274.358 372.933C267.999 370.963 260.12 364.949 258.816 358.851C258.353 358.596 257.766 358.589 257.345 358.183C260.66 357.835 258.061 358.842 254.328 354.99C254.912 355.197 256.281 355.623 257.19 355.569C258.42 355.543 258.839 354.72 255.437 351.506C264.792 353.575 262.651 346.108 256.129 342.32C258.911 342.939 268.285 346.84 265.654 336.571C266.089 335.789 265.669 333.887 267.733 333.364C267.728 342.116 269.539 323.701 271.271 319.18C271.763 319.025 273.626 316.338 276.686 317.233C276.463 315.656 276.416 316.282 279.628 314.422C283.829 314.615 286.881 314.747 287.657 308.736C292.522 303.601 285.068 291.452 292.739 284.749C307.58 271.764 311.568 257.641 299.138 255.979L299.202 255.956ZM268.457 41.9645C268.888 41.5275 268.761 42.1127 269.365 41.9348C268.799 42.2578 267.538 42.9424 266.834 42.653C267.407 42.4587 267.908 42.1832 268.457 41.9645ZM244.783 14.5524C245.088 14.572 245.531 14.5048 245.932 14.5817C246.398 14.6032 246.797 14.8328 246.893 15.525C246.345 15.6795 245.398 15.5721 246.092 14.6479C246.028 14.6069 245.996 14.5825 245.932 14.5817C245.731 14.5794 245.422 14.8571 244.478 14.5489L244.783 14.5524ZM154.984 114.918C155.233 114.269 155.59 114.643 155.967 115.435C155.646 115.367 155.764 115.577 154.944 114.933L154.984 114.918ZM149.902 189.937C149.792 190.426 149.124 189.085 147.786 189.471C147.815 188.981 147.137 182.954 149.926 189.921L149.91 189.937L149.902 189.937ZM185.202 193.823C185.223 195.543 188.473 197.381 185.576 199.807C183.802 199.61 183.718 196.434 185.202 193.823ZM263.281 24.5298C263.278 24.7708 263.361 24.5467 263.281 24.5298V24.5298Z" fill="url(#paint0_radial_50514_9576)"/>
<path d="M377.303 6.26215C377.369 6.27759 377.383 6.27775 377.369 6.27759L377.288 6.25464C377.288 6.25464 377.295 6.25472 377.303 6.25481L377.303 6.26215Z" fill="url(#paint1_linear_50514_9576)"/>
<path d="M414.83 32.0376C404.524 23.2716 392.955 15.1983 380.061 7.87328C379.597 7.62685 379.078 7.35567 378.391 7.0263C378.829 7.31263 378.551 7.0844 379.557 7.64246C379.62 7.70749 379.74 7.76511 379.94 7.88796L379.78 7.82985C380.123 8.05079 379.844 7.87079 380.642 8.33806L380.482 8.27996C380.626 8.36198 380.496 8.45692 381.502 9.03909C380.932 8.97628 380.48 8.48085 379.009 7.75671C379.446 8.16357 379.407 8.09079 380.492 8.78639C380.436 8.74556 380.332 8.70419 380.212 8.66263C380.808 9.25616 380.315 8.80846 381.678 9.82872L381.533 9.82705C381.97 10.258 383.033 10.7364 384.444 11.8054C384.419 11.8051 384.259 11.8033 383.859 11.654C383.157 11.1557 382.889 11.3776 381.607 10.3744C381.623 10.3906 381.687 10.4155 381.791 10.4167C381.274 9.98479 379.604 9.11371 377.953 8.77324C379.013 9.49266 379.783 9.62207 381.945 10.9971C381.929 10.9808 381.881 10.9803 381.841 10.9798C383.75 12.0546 383.673 11.7242 385.658 13.1052C384.371 12.5037 385.578 13.0641 383.666 12.2947C384.601 13.4949 386.973 14.8 388.614 16.0485C388.627 16.3299 384.369 14.103 386.298 15.4995L386.257 15.499C386.574 15.9286 387.48 16.0997 389.549 17.1924C386.603 16.9174 383.485 14.0527 379.48 12.2707C384.393 14.0631 386.435 13.3794 378.359 9.8066C378.358 9.8307 378.399 9.83116 378.477 9.97673C376.787 9.49116 375.4 8.52689 372.497 8.01129C372.592 8.10882 372.456 8.06706 373.038 8.43541C372.414 8.22731 371.552 7.67092 370.08 7.1316C370.198 7.33387 370.095 7.17196 370.477 7.538C370.077 7.38874 369.659 8.09917 369.084 7.05584L369.229 7.0575C368.449 6.39756 367.861 6.4551 366.092 5.84808C366.155 5.92917 366.211 5.9941 366.275 6.05109C366.011 5.92751 365.587 5.77797 364.961 5.63415C364.961 5.6904 365.346 5.75912 366.22 6.62106C365.732 6.37435 366.077 6.43459 364.815 5.81732C365.626 6.52852 366.119 6.97351 366.294 7.15233C365.568 6.69393 366.375 7.08897 364.085 5.64818C364.124 5.74507 364.069 5.648 364.267 5.95566C364.146 5.9141 364.082 5.91336 363.658 5.74775C364.12 6.13882 363.881 5.93515 364.862 6.61348C364.638 6.50643 364.878 6.61366 364.277 6.40584C364.277 6.40584 364.261 6.44583 364.316 6.55093C364.158 6.3482 363.734 6.11831 363.144 6.44102C363.238 6.60284 363.648 6.62364 364.695 7.12592C364.551 7.05997 364.295 6.95255 364.17 7.3208C363.986 7.27849 364.091 7.27969 363.627 7.08951C363.929 7.37427 363.811 7.15591 364.788 8.11548C363.443 6.96684 362.147 7.13679 364.939 8.96107C364.156 8.55024 362.724 7.98725 365.029 9.54877C364.949 9.50766 364.789 9.44153 364.301 9.21089L364.658 9.64094C364.513 9.67945 364.105 8.79073 363.412 8.97563C362.945 9.09081 361.386 9.72384 362.206 10.4405C362.866 11.0348 365.241 13.5052 365.315 10.5004C366.417 11.0998 367.226 12.8048 368.83 14.4145C368.711 14.3327 368.791 14.3738 368.447 14.2333C368.619 14.5969 369.85 15.2218 370.384 16.2969C370.32 16.2961 370.281 16.1751 370.001 16.0755L370.405 16.5221L369.915 16.5727C370.54 16.6844 371.618 17.9666 371.147 18.4273C371.328 18.7348 371.226 18.5889 371.684 19.2452C371.178 19.2394 371.683 19.3255 370.597 18.7425C370.633 19.0884 370.701 18.7838 371.11 19.56C370.966 19.5343 370.91 19.4533 370.191 19.0592C370.528 19.8105 370.774 19.3874 371.932 20.775C371.668 20.6916 371.868 20.7341 370.884 20.3611C371.145 20.7257 370.906 20.498 371.622 21.1733C371.556 21.277 371.384 20.9133 371.035 21.1665C371.051 21.1667 371.033 21.3353 371.23 21.7153C371.11 21.6496 371.15 21.65 370.806 21.4854C370.821 21.6061 370.864 21.4056 370.775 22.1681C370.599 22.0455 370.759 22.1277 370.216 21.8402C370.573 22.206 370.97 22.6365 371.415 23.0836C373.011 24.7816 375.027 26.9265 377.169 28.671C377.17 28.6067 377.169 28.687 377.197 28.3659C377.293 28.4233 377.277 28.3829 377.82 28.7106C377.087 28.8468 383.023 34.6533 382.75 29.0486C382.593 28.7414 382.397 28.3614 382.199 28.0939C385.124 30.2332 387.031 31.3642 391.093 35.2524L390.869 35.1855C390.906 35.4673 390.982 35.8378 391.1 36.0803C389.017 34.7785 392.277 39.2442 394.089 39.5945C394.57 38.3222 393.391 38.815 392.811 36.8715C393.875 37.2855 396.101 38.7095 393.894 35.5901C394.628 35.3976 393.999 35.527 395.308 35.6063C395.27 35.4853 395.374 35.4865 394.994 35.0401C395.057 35.081 395.217 35.1632 395.496 35.3674C395.378 35.1892 394.766 33.8802 393.43 32.5951C393.492 32.8369 393.609 33.1195 393.703 33.3215C392.368 31.9882 392.386 31.8517 390.187 29.4637C390.415 29.2654 390.203 29.4799 390.359 28.5334C390.504 28.519 390.425 28.3895 390.704 28.5534C389.96 26.9054 388.009 26.0552 385.973 24.8584C385.087 24.358 384.209 23.7853 383.406 23.0528L383.527 23.0301C381.535 20.8051 379.32 17.7257 377.355 14.6572C378.283 14.9492 378.408 14.6291 380.393 16.0102C380.033 15.8774 380.393 16.0102 379.426 15.549C380.505 16.7187 380.97 16.8205 382.398 19.1836C382.317 19.1827 382.357 19.2233 382.213 19.1815C383.967 21.0983 386.729 23.3964 390.145 25.4368C390.209 25.5018 390.264 25.5668 390.32 25.5996C390.702 25.9254 391.128 25.9464 391.611 25.8555C392.852 25.6046 394.4 24.4732 396.403 25.7258C396.277 26.1503 396.336 26.593 396.229 26.8409C396.129 27.1451 395.783 27.1733 394.576 26.5969C394.615 26.742 394.637 26.919 394.651 27.0638C394.451 27.0213 394.288 27.1641 394.218 27.742C394.375 28.0331 394.693 28.3582 394.915 28.5858C394.771 28.5038 394.596 28.4134 394.436 28.3392C395.01 29.3906 394.46 29.7137 396.446 31.0466C396.423 30.982 396.067 30.4314 396.352 30.1373C396.178 29.8701 395.892 29.5695 395.678 29.342C396.463 29.5359 395.799 29.3273 397.349 30.0684C397.349 30.0684 397.31 30.0117 397.231 29.8662C397.783 30.8048 398.812 30.7282 399.945 32.8308C393.456 29.662 400.872 34.7381 401.582 37.9368C402.698 40.8428 401.758 36.6288 397.868 40.8676C397.191 40.2973 397.445 40.5734 395.581 39.1616C395.484 39.2248 395.819 39.4296 395.429 39.7707C395.612 39.9335 394.477 40.1455 394.645 40.9109C391.561 39.9914 389.132 35.2942 385.332 31.6902C385.031 31.3251 386.098 33.5233 384.988 32.9239C384.734 34.03 387.212 37.9965 390.05 39.3311C390.198 40.4017 391.432 40.0703 391.618 42.0012C391.194 41.8758 389.591 40.7884 390.237 42.5881C389.385 42.5943 387.76 42.0693 388.46 44.1267L388.341 44.0048C388.377 44.3669 390.192 47.964 387.332 49.2492C387.975 49.8995 386.497 51.2809 387.264 53.7167C386.106 54.491 385.291 53.4128 383.379 52.6193C382.324 52.808 388.063 56.2896 383.843 56.3054C383.181 55.8477 383.585 55.7318 380.549 56.2032C379.399 57.6687 382.748 58.5752 385.619 59.8378C385.619 59.8378 385.683 59.8225 385.886 59.656C385.925 59.777 396.699 70.5334 390.601 71.717C387.683 72.5514 381.609 69.5722 378.588 72.3101C379.222 75.2026 380.952 84.7459 383.331 90.3266C383.841 92.1567 382.311 95.1449 387.795 92.805C393.866 97.4155 388.854 97.1971 399.801 94.3174C400.491 93.6583 399.319 92.166 401.875 91.4481C400.5 90.1223 402.615 88.5714 402.287 87.0487C399.012 85.3153 400.22 80.234 404.125 76.783C401.262 72.7317 402.772 71.4552 409.032 72.1541C408.399 63.636 414.625 74.3642 414.92 73.1541C415.939 73.9775 416.895 75.3788 418.567 76.041C419.06 77.2039 420.668 77.8493 422.699 78.7968C424.474 81.0032 428.717 82.4022 429.846 86.2005C431.005 88.882 427.5 88.2549 426.121 88.7052C425.978 88.5589 426.105 88.6889 425.7 88.2744C425.529 90.5549 435.283 98.4707 430.467 88.8517C430.482 88.9081 430.903 89.4032 431.447 89.5862C431.571 89.3224 431.214 88.8603 431.399 88.1471C431.44 88.1315 431.359 88.1467 431.639 88.2544C431.741 87.7733 431.078 87.4362 431.077 86.1262C432.574 84.5281 428.353 83.9973 428.537 80.5598C428.859 80.4831 428.785 81.4064 430.039 81.3003C436.275 84.1849 415.783 71.5165 413.043 65.1842C414.208 63.7832 414.057 65.0352 416.579 67.2662L416.521 66.7432C416.517 67.0485 418.48 68.2766 417.506 66.9795C422.613 72.9372 428.747 73.4578 433.555 82.3614C433.491 82.3446 433.636 82.3784 433.236 82.2131C433.886 83.6993 436.099 84.8097 438.109 87.485C438.094 87.4687 438.054 87.3798 438.073 87.155C438.139 87.0352 438.658 87.3466 439.226 87.5139C439.691 87.6639 440.196 87.7259 440.497 87.424C441.094 87.897 440.462 88.3558 442.325 88.5139C442.23 88.3923 442.365 88.5545 441.589 87.533C441.868 87.713 441.787 87.7764 442.808 88.3909C441.664 85.8944 438.162 84.295 435.888 80.0898C439.457 82.799 435.005 77.9339 438.92 78.5254C439.268 79.7027 440.068 78.5788 440.831 80.7735C440.392 80.5033 441.418 84.2521 443.068 84.697C442.955 84.0126 442.715 83.9456 442.421 82.9697C442.656 83.4546 443.415 83.8732 443.661 85.5316C443.637 85.5313 443.638 85.4108 443.518 85.3853C443.534 85.4257 443.438 85.4005 443.569 85.852C443.569 85.852 443.409 85.7939 443.024 85.7011C443.373 86.7981 442.782 85.8028 444.153 87.45C444.154 87.3697 444.156 87.2089 443.921 86.6999C444.303 87.0097 444.099 87.2645 445.063 88.023C445.063 88.023 445.039 87.9826 445.042 87.7415C445.387 87.7857 445.423 88.196 446.106 88.2038C446.025 88.2029 445.945 88.218 445.824 88.2166L446.044 88.6612C446.044 88.6612 445.709 88.4805 445.303 88.1062C445.485 88.3333 444.951 88.6647 446.179 89.4905C446.219 89.507 446.084 89.393 446.246 89.3144C446.446 89.3168 446.275 90.2229 447.363 90.6453C447.398 91.1119 447.366 91.7785 447.983 93.401C448.055 92.7187 448.063 93.4019 447.821 91.398C447.861 91.3985 447.884 91.4791 448.288 91.2989L448.38 91.6616L448.261 91.604C448.316 91.701 447.788 92.1611 448.583 92.9418C449.358 92.589 448.453 91.6062 449.93 95.2799C450.214 95.0822 449.524 93.5553 449.3 92.0419C449.498 92.3254 449.3 92.0579 449.958 92.821L450.06 92.3962C450.407 93.6539 453.605 97.1866 451.641 91.8518C452.553 91.5569 453.911 95.0122 455.193 93.9581C455.257 93.9749 455.233 94.0148 455.418 94.0009C455.304 93.4129 455.026 92.4614 454.859 91.6076C455.176 91.9568 456.233 92.9976 455.728 91.5131C457.556 96.0266 464.073 105.898 462.452 111.28C462.507 113.499 459.734 107.231 459.54 111.488C459.476 111.463 459.524 111.463 459.364 111.405C459.139 111.459 459.586 111.673 458.96 113.04C455.335 112.372 441.387 98.123 447.365 114.241C448.403 119.002 436.471 107.646 428.667 104.181C426.621 104.583 426.991 96.8644 424.523 92.0863C422.961 92.2934 420.565 91.7354 417.618 92.899C417.141 93.882 416.189 90.6966 416.059 92.881C416.146 93.6937 414.223 92.4983 414.61 94.5199C410.402 89.2959 403.383 100.78 399.201 98.8914C396.853 102.505 391.408 93.1439 391.749 100.477C391.943 103.228 389.293 105.118 386.522 108.478C383.794 112.248 390.061 118.709 382.311 125.202C378.048 126.929 375.337 132.74 373.449 140.402C372.501 141.741 365.953 154.138 369.461 154.484C375.742 163.871 365.52 179.2 369.804 189.673C370.137 192.128 372.829 190.069 373.331 192.55C374.539 196.502 378.784 197.764 379.239 202.921C379.908 208.321 385.353 212.209 389.767 216.865C391.615 217.658 391.493 223.354 396.196 220.419C403.798 213.531 407.639 223.339 416.899 214.758C417.759 215.491 419.791 212.79 421.471 212.753C431.407 209.733 423.094 224.69 435.154 219.316C435.172 219.823 435.391 223.176 436.624 221.511C436.994 227.76 431.459 234.567 431.458 241.639C431.472 261.329 429.023 273.75 416.935 293.413C408.614 306.939 401.265 328.883 385.051 341.772C385.317 341.775 385.051 341.772 385.763 341.435C385.48 341.552 385.693 341.884 385.018 342.616C385.444 342.565 385.444 342.581 385.565 342.542C385.686 342.479 385.953 342.345 386.866 341.93C386.865 341.986 386.882 341.93 386.743 342.105C387.21 342.054 387.227 341.99 387.494 341.833C387.761 341.691 388.27 341.456 389.769 341.047C389.942 341.387 389.684 341.488 390.678 340.977C390.741 341.098 390.518 340.975 390.657 341.395C390.964 341.278 390.722 341.396 391.999 340.743L392.141 340.986C398.723 338.152 414.989 326.293 419.939 320.732C419.939 320.748 419.964 320.652 419.843 320.731C426.129 315.732 430.756 311.695 436.971 302.396L436.971 302.436C454.256 287.863 462.483 265.037 471.747 242.85L471.763 242.907C473.133 239.788 476.912 227.769 476.726 227.807C481.759 215.818 489.849 165.746 472.136 115.466C460.898 83.5681 442.272 55.3461 414.791 32.005L414.83 32.0376ZM446.379 88.1989C446.419 88.1994 446.483 88.2001 446.54 88.1847C446.499 88.2244 446.475 88.2 446.379 88.1989Z" fill="url(#paint2_radial_50514_9576)"/>
<path d="M378.72 7.0708C379.183 7.3333 379.63 7.60365 380.093 7.86615C380.548 8.11249 380.963 8.33425 381.387 8.55611C380.741 8.13078 380.325 7.98936 380.261 7.91631C379.152 7.24454 378.928 7.15356 378.72 7.0708Z" fill="url(#paint3_linear_50514_9576)"/>
<path d="M377.32 6.26643C377.256 6.24962 377.144 6.21618 376.96 6.1337C377.152 6.24038 376.96 6.15779 377.543 6.47793C377.031 6.23898 376.769 6.00291 375.272 5.43921C375.696 5.66107 376.439 6.07144 378.182 6.84693L378.182 6.81479C378.461 6.9707 378.582 7.01228 378.71 7.06197C378.238 6.79938 377.792 6.52098 377.312 6.2583L377.32 6.26643Z" fill="url(#paint4_linear_50514_9576)"/>
</g>
<g filter="url(#filter0_dd_50514_9576)">
<rect x="427.525" y="95.5264" width="58" height="58" rx="4.01203" fill="url(#paint5_linear_50514_9576)"/>
<rect x="426.588" y="94.5888" width="59.8751" height="59.8751" rx="4.94956" stroke="url(#paint6_linear_50514_9576)" stroke-width="1.87506"/>
</g>
<path d="M467.972 110.142H457.83V105.527H454.754V110.142H444.612L437.83 122.45V123.989C437.83 126.029 438.641 127.986 440.083 129.428C441.526 130.871 443.482 131.681 445.523 131.681C447.563 131.681 449.519 130.871 450.962 129.428C452.405 127.986 453.215 126.029 453.215 123.989V122.45L448.129 113.219H454.754V136.297H440.907V139.374H471.677V136.297H457.83V113.219H464.455L459.369 122.45V123.989C459.369 126.029 460.179 127.986 461.622 129.428C463.065 130.871 465.021 131.681 467.061 131.681C469.102 131.681 471.058 130.871 472.501 129.428C473.943 127.986 474.754 126.029 474.754 123.989V122.45L467.972 110.142ZM445.523 128.604C444.571 128.6 443.645 128.303 442.869 127.752C442.094 127.201 441.507 126.424 441.19 125.527H449.855C449.538 126.424 448.951 127.201 448.176 127.752C447.4 128.303 446.474 128.6 445.523 128.604ZM441.349 122.45L445.523 114.873L449.696 122.45H441.349ZM467.061 114.873L471.235 122.45H462.888L467.061 114.873ZM467.061 128.604C466.11 128.6 465.184 128.303 464.408 127.752C463.633 127.201 463.046 126.424 462.729 125.527H471.394C471.077 126.424 470.49 127.201 469.715 127.752C468.939 128.303 468.013 128.6 467.061 128.604Z" fill="#3D7FFC"/>
<g opacity="0.5">
<g filter="url(#filter1_dd_50514_9576)">
<rect x="194" y="290" width="28.4437" height="28.4437" rx="1.96754" fill="url(#paint7_linear_50514_9576)"/>
<rect x="193.25" y="289.25" width="29.9437" height="29.9437" rx="2.71754" stroke="url(#paint8_linear_50514_9576)" stroke-width="1.5"/>
</g>
<path d="M213.835 297.168H208.861V294.904H207.352V297.168H202.379L199.053 303.203V303.958C199.053 304.958 199.45 305.918 200.158 306.625C200.865 307.333 201.825 307.73 202.825 307.73C203.826 307.73 204.785 307.333 205.493 306.625C206.2 305.918 206.598 304.958 206.598 303.958V303.203L204.103 298.677H207.352V309.994H200.562V311.503H215.652V309.994H208.861V298.677H212.11L209.616 303.203V303.958C209.616 304.958 210.013 305.918 210.721 306.625C211.428 307.333 212.388 307.73 213.388 307.73C214.389 307.73 215.348 307.333 216.056 306.625C216.763 305.918 217.161 304.958 217.161 303.958V303.203L213.835 297.168ZM202.825 306.221C202.359 306.219 201.904 306.073 201.524 305.803C201.144 305.533 200.856 305.152 200.701 304.712H204.95C204.794 305.152 204.507 305.533 204.126 305.803C203.746 306.073 203.292 306.219 202.825 306.221ZM200.778 303.203L202.825 299.488L204.872 303.203H200.778ZM213.388 299.488L215.435 303.203H211.341L213.388 299.488ZM213.388 306.221C212.922 306.219 212.467 306.073 212.087 305.803C211.706 305.533 211.419 305.152 211.263 304.712H215.513C215.357 305.152 215.07 305.533 214.689 305.803C214.309 306.073 213.855 306.219 213.388 306.221Z" fill="#3D7FFC"/>
</g>
<g filter="url(#filter2_dd_50514_9576)">
<rect x="350.525" y="289.526" width="61.3984" height="61.3984" rx="4.24711" fill="url(#paint9_linear_50514_9576)"/>
<rect x="349.775" y="288.776" width="62.8984" height="62.8984" rx="4.99711" stroke="url(#paint10_linear_50514_9576)" stroke-width="1.5"/>
</g>
<path d="M380.979 335.943C380.736 335.943 380.496 335.896 380.271 335.804C377.945 334.889 366.321 329.879 366.321 321.285V307.116L380.293 301.87C380.736 301.704 381.224 301.704 381.666 301.87L395.637 307.116V321.285C395.637 329.879 384.013 334.889 381.683 335.806C381.459 335.897 381.22 335.943 380.979 335.943ZM380.572 305.088L369.579 309.368V321.282C369.579 327.308 378.714 331.594 380.979 332.565C383.259 331.588 392.38 327.303 392.38 321.282V309.368L380.979 305.088H380.572Z" fill="#3D7FFC"/>
<path d="M379.351 322.913C378.919 322.913 378.505 322.742 378.199 322.436L374.465 318.702L376.768 316.399L379.351 318.982L385.191 313.142L387.494 315.445L380.502 322.436C380.197 322.742 379.783 322.913 379.351 322.913Z" fill="#3D7FFC"/>
<g opacity="0.7">
<g filter="url(#filter3_dd_50514_9576)">
<rect x="102" y="118" width="34.7227" height="35.0017" rx="2.43699" fill="url(#paint11_linear_50514_9576)"/>
<rect x="101.25" y="117.25" width="36.2227" height="36.5017" rx="3.18699" stroke="url(#paint12_linear_50514_9576)" stroke-width="1.5"/>
</g>
<path d="M119.222 144.461C119.085 144.461 118.949 144.434 118.821 144.382C117.506 143.86 110.933 141.004 110.933 136.105V128.027L118.834 125.037C119.085 124.942 119.36 124.942 119.611 125.037L127.511 128.027V136.105C127.511 141.004 120.938 143.86 119.62 144.383C119.494 144.434 119.358 144.461 119.222 144.461ZM118.992 126.871L112.775 129.311V136.103C112.775 139.538 117.941 141.982 119.222 142.535C120.511 141.978 125.669 139.535 125.669 136.103V129.311L119.222 126.871H118.992Z" fill="#3D7FFC"/>
<path d="M118.301 137.033C118.057 137.033 117.823 136.935 117.65 136.761L115.538 134.632L116.84 133.319L118.301 134.792L121.604 131.462L122.906 132.775L118.952 136.761C118.78 136.935 118.545 137.033 118.301 137.033Z" fill="#3D7FFC"/>
</g>
<g filter="url(#filter4_dd_50514_9576)">
<rect x="130.525" y="197.526" width="53.5684" height="53.5684" rx="3.70548" fill="url(#paint13_linear_50514_9576)"/>
<rect x="129.775" y="196.776" width="55.0684" height="55.0684" rx="4.45548" stroke="url(#paint14_linear_50514_9576)" stroke-width="1.5"/>
</g>
<path fill-rule="evenodd" clip-rule="evenodd" d="M169.992 222.161V239.406H145.357V222.161H147.821V217.851C147.821 212.416 152.241 207.997 157.676 207.997C163.108 207.997 167.529 212.416 167.529 217.851V222.161H169.992ZM164.449 217.851C164.449 214.114 161.41 211.076 157.676 211.076C153.939 211.076 150.901 214.114 150.901 217.851V222.161H164.449V217.851ZM156.599 233.972C156.222 233.972 155.861 233.822 155.594 233.555L152.336 230.297L154.345 228.288L156.599 230.542L161.695 225.446L163.704 227.455L157.604 233.555C157.337 233.822 156.976 233.972 156.599 233.972Z" fill="#3D7FFC"/>
<g opacity="0.5">
<g filter="url(#filter5_dd_50514_9576)">
<rect x="354" y="38" width="37" height="37" rx="2.5594" fill="url(#paint15_linear_50514_9576)"/>
<rect x="353.25" y="37.25" width="38.5" height="38.5" rx="3.3094" stroke="url(#paint16_linear_50514_9576)" stroke-width="1.5"/>
</g>
<path fill-rule="evenodd" clip-rule="evenodd" d="M381.26 55.0156V66.9263H364.245V55.0156H365.947V52.0382C365.947 48.2848 369 45.2319 372.753 45.2319C376.505 45.2319 379.559 48.2848 379.559 52.0382V55.0156H381.26ZM377.432 52.0382C377.432 49.4576 375.333 47.359 372.753 47.359C370.173 47.359 368.074 49.4576 368.074 52.0382V55.0156H377.432V52.0382ZM372.009 63.1731C371.749 63.173 371.499 63.0696 371.315 62.8855L369.065 60.6351L370.452 59.2473L372.009 60.8039L375.528 57.2844L376.916 58.6722L372.703 62.8855C372.519 63.0696 372.269 63.173 372.009 63.1731Z" fill="#3D7FFC"/>
</g>
<g filter="url(#filter6_dd_50514_9576)">
<rect x="403.025" y="197.526" width="43.0625" height="43.0625" rx="2.97876" fill="url(#paint17_linear_50514_9576)"/>
<rect x="402.469" y="196.97" width="44.175" height="44.175" rx="3.535" stroke="url(#paint18_linear_50514_9576)" stroke-width="1.11249"/>
</g>
<path d="M431.239 228.939H412.963V212.474L419.344 206.094H431.239V211.805H428.955V208.378H420.289L415.247 213.42V226.654H428.955V223.227H431.239V228.939Z" fill="#3D7FFC"/>
<path d="M427.813 212.947C429.024 212.947 430.187 213.429 431.043 214.285C431.9 215.142 432.382 216.304 432.382 217.516C432.382 218.728 431.9 219.89 431.043 220.747C430.187 221.604 429.024 222.085 427.813 222.085C426.601 222.085 425.439 221.604 424.582 220.747C423.725 219.89 423.244 218.728 423.244 217.516C423.244 216.304 423.725 215.142 424.582 214.285C425.439 213.429 426.601 212.947 427.813 212.947ZM427.813 210.663C425.995 210.663 424.252 211.385 422.966 212.67C421.681 213.955 420.959 215.699 420.959 217.516C420.959 219.334 421.681 221.077 422.966 222.362C424.252 223.648 425.995 224.37 427.813 224.37C429.63 224.37 431.374 223.648 432.659 222.362C433.944 221.077 434.666 219.334 434.666 217.516C434.666 215.699 433.944 213.955 432.659 212.67C431.374 211.385 429.63 210.663 427.813 210.663Z" fill="#3D7FFC"/>
<path d="M432.047 220.135L430.432 221.75L435.335 226.654L436.951 225.039L432.047 220.135Z" fill="#3D7FFC"/>
<path d="M420.959 214.089H414.105V211.805H418.675V207.236H420.959V214.089Z" fill="#3D7FFC"/>
<g filter="url(#filter7_dd_50514_9576)">
<rect x="174.525" y="45.5264" width="47.2988" height="47.2988" rx="3.2718" fill="url(#paint19_linear_50514_9576)"/>
<rect x="173.706" y="44.7071" width="48.9374" height="48.9374" rx="4.09108" stroke="url(#paint20_linear_50514_9576)" stroke-width="1.63857"/>
</g>
<path d="M196.731 78.7744C194.25 78.7744 191.824 78.0386 189.761 76.6599C187.697 75.2813 186.089 73.3219 185.14 71.0293C184.19 68.7368 183.942 66.2141 184.426 63.7803C184.91 61.3466 186.105 59.111 187.859 57.3564C189.614 55.6018 191.85 54.4068 194.283 53.9227C196.717 53.4386 199.24 53.6871 201.532 54.6367C203.825 55.5863 205.784 57.1944 207.163 59.2576C208.541 61.3209 209.277 63.7466 209.277 66.228C209.273 69.5543 207.95 72.7433 205.598 75.0954C203.246 77.4475 200.057 78.7706 196.731 78.7744ZM196.731 56.1909C194.746 56.1909 192.805 56.7796 191.155 57.8825C189.504 58.9854 188.218 60.5529 187.458 62.387C186.698 64.221 186.499 66.2391 186.887 68.1862C187.274 70.1332 188.23 71.9216 189.634 73.3253C191.037 74.729 192.826 75.685 194.773 76.0723C196.72 76.4595 198.738 76.2608 200.572 75.5011C202.406 74.7414 203.974 73.4549 205.076 71.8043C206.179 70.1537 206.768 68.2132 206.768 66.228C206.765 63.567 205.706 61.0158 203.825 59.1342C201.943 57.2526 199.392 56.1941 196.731 56.1909Z" fill="#3D7FFC"/>
<path d="M205.145 72.8685L203.371 74.6428L210.012 81.2837L211.786 79.5094L205.145 72.8685Z" fill="#3D7FFC"/>
<path d="M199.452 68.8345C199.11 69.191 198.701 69.4767 198.248 69.6751C197.795 69.8735 197.308 69.9807 196.813 69.9908C196.319 70.0008 195.828 69.9133 195.367 69.7335C194.907 69.5536 194.486 69.2848 194.13 68.9424C193.773 68.6 193.488 68.1908 193.289 67.738C193.091 67.2852 192.984 66.7978 192.974 66.3036C192.964 65.8094 193.051 65.3181 193.231 64.8576C193.411 64.3972 193.68 63.9767 194.022 63.6202C194.364 63.2636 194.774 62.978 195.226 62.7796C195.679 62.5812 196.167 62.4739 196.661 62.4639C197.155 62.4539 197.646 62.5413 198.107 62.7212C198.567 62.9011 198.988 63.1699 199.344 63.5123C199.381 63.5474 199.417 63.5838 199.452 63.6202L201.748 62.4747C201.255 61.8142 200.637 61.2573 199.929 60.8358C199.221 60.4144 198.436 60.1366 197.621 60.0183C196.805 59.9 195.974 59.9436 195.176 60.1466C194.377 60.3496 193.626 60.708 192.966 61.2012C191.633 62.1964 190.749 63.6804 190.51 65.3266C190.271 66.9729 190.696 68.6467 191.691 69.9799C192.184 70.6405 192.802 71.1975 193.51 71.6191C194.218 72.0407 195.002 72.3187 195.818 72.437C196.634 72.5554 197.465 72.5119 198.263 72.309C199.062 72.1062 199.813 71.7479 200.473 71.2547C200.958 70.8935 201.387 70.4641 201.748 69.9799L199.452 68.8345Z" fill="#3D7FFC"/>
<g filter="url(#filter8_d_50514_9576)">
<path d="M300.733 93L371.466 107.277L371.583 181.38C371.701 230.234 340.697 255.482 300.969 269.997C261.243 255.719 230.236 230.468 230.118 181.617L230 107.513L300.733 93Z" fill="#76A5FF"/>
<path d="M367.373 110.66L367.49 181.38C367.49 221.284 345.786 248.912 301.079 265.558C256.254 249.03 234.549 221.521 234.431 181.62L234.313 110.9L300.844 97.3232L367.373 110.66Z" fill="#3D7FFC"/>
<path d="M301.145 93L300.911 270C340.259 255.721 371.373 230.504 371.49 181.654L371.369 107.272L301.145 93Z" fill="#003395" fill-opacity="0.15"/>
<g clip-path="url(#clip0_50514_9576)">
<path d="M287.943 157.782C288.357 158.569 288.15 159.232 287.86 159.936C287.404 161.096 287.529 162.214 288.357 163.166C289.185 164.16 290.345 164.285 291.546 164.036C293.203 163.663 294.155 162.09 293.907 160.35C293.783 159.522 293.286 158.693 293.741 157.782C293.327 157.989 293.327 157.989 292.83 158.818C292.374 158.279 291.96 157.699 291.463 157.12C291.049 156.664 290.635 156.25 290.883 155.504C290.386 155.753 290.138 156.084 289.972 156.498C289.848 156.913 289.765 157.327 289.682 157.741C289.599 158.155 289.392 158.528 288.978 158.776C288.73 158.321 288.481 157.989 287.943 157.782Z" fill="white"/>
<path d="M252.691 181.917V162.815L250.439 162.444V160.675L256.311 159.933L257.308 159.792V160.561V167.053C257.536 166.825 257.821 166.568 258.163 166.368C258.477 166.14 258.847 165.941 259.218 165.769C259.617 165.598 260.016 165.455 260.472 165.341C260.928 165.227 261.413 165.17 261.926 165.17C262.838 165.17 263.693 165.313 264.491 165.627C265.289 165.941 266.001 166.426 266.6 167.082C267.198 167.766 267.683 168.622 268.054 169.706C268.396 170.791 268.595 172.074 268.595 173.644C268.595 174.985 268.396 176.211 267.997 177.381C267.597 178.551 266.999 179.521 266.229 180.377C265.46 181.233 264.519 181.889 263.436 182.374C262.325 182.859 261.099 183.116 259.703 183.116C258.733 183.116 257.85 183.059 257.023 182.973C256.225 182.887 255.513 182.773 254.914 182.631C254.316 182.488 253.831 182.374 253.461 182.231C253.09 182.089 252.805 182.003 252.691 181.917ZM260.016 167.938C259.389 167.938 258.847 168.052 258.391 168.28C257.935 168.508 257.565 168.765 257.308 169.05V180.348C257.451 180.576 257.707 180.776 258.106 180.89C258.505 181.033 258.99 181.09 259.503 181.09C260.187 181.09 260.786 180.919 261.27 180.548C261.783 180.177 262.182 179.692 262.524 179.064C262.866 178.437 263.094 177.695 263.265 176.868C263.436 176.04 263.522 175.127 263.522 174.186C263.522 173.216 263.465 172.331 263.322 171.532C263.18 170.762 262.98 170.106 262.667 169.564C262.382 169.022 262.011 168.622 261.555 168.337C261.156 168.08 260.615 167.938 260.016 167.938Z" fill="white"/>
<path d="M271.083 182.607V180.581L273.249 180.296V168.713L271.197 168.085V165.803L276.327 165.061H276.413L277.211 165.717V166.973L277.182 169.312H277.239C277.353 168.998 277.581 168.599 277.895 168.114C278.208 167.629 278.607 167.144 279.063 166.687C279.52 166.231 280.061 165.831 280.66 165.517C281.258 165.204 281.914 165.032 282.626 165.032C282.94 165.032 283.168 165.032 283.339 165.061C283.51 165.09 283.652 165.118 283.766 165.147V170.368C283.652 170.282 283.367 170.196 282.911 170.111C282.455 170.025 281.885 169.968 281.258 169.968C280.916 169.968 280.546 169.997 280.204 170.025C279.862 170.054 279.52 170.111 279.206 170.196C278.892 170.253 278.636 170.339 278.379 170.425C278.123 170.51 277.952 170.596 277.809 170.681V180.268L281.543 180.638V182.607H271.083Z" fill="white"/>
<path d="M286.963 182.773V180.748L289.158 180.462V168.879L287.134 168.223V165.969L292.663 165.227L293.832 165.112V165.884V180.434L295.998 180.748V182.773H286.963Z" fill="white"/>
<path d="M306.047 177.209C305.191 177.209 304.394 177.149 303.686 177.031C303.509 177.209 303.361 177.417 303.243 177.654C303.125 177.892 303.066 178.159 303.066 178.486C303.066 178.842 303.125 179.139 303.273 179.377C303.42 179.585 303.627 179.763 303.922 179.882C304.217 180.001 304.571 180.09 305.043 180.119C305.515 180.149 306.047 180.179 306.666 180.179H309.765C312.007 180.179 313.66 180.565 314.781 181.307C315.873 182.079 316.434 183.327 316.434 185.049C316.434 186.089 316.168 187.069 315.608 187.93C315.076 188.791 314.339 189.504 313.394 190.128C312.48 190.722 311.388 191.197 310.178 191.524C308.968 191.85 307.699 192.028 306.371 192.028H306.342C304.866 192.028 303.627 191.91 302.594 191.642C301.561 191.375 300.705 191.019 300.027 190.573C299.348 190.128 298.876 189.563 298.551 188.94C298.227 188.316 298.079 187.603 298.079 186.861C298.079 186.386 298.168 185.94 298.345 185.495C298.522 185.079 298.758 184.693 299.053 184.336C299.348 183.98 299.673 183.683 300.086 183.416C300.469 183.149 300.882 182.941 301.296 182.792C300.705 182.465 300.233 182.079 299.909 181.604C299.584 181.129 299.437 180.565 299.437 179.911C299.437 179.11 299.643 178.456 300.056 177.892C300.469 177.357 301.001 176.852 301.65 176.437C300.587 175.962 299.82 175.278 299.318 174.387C298.817 173.497 298.551 172.457 298.551 171.269C298.551 170.319 298.758 169.487 299.171 168.715C299.584 167.943 300.174 167.29 300.882 166.755C301.62 166.22 302.446 165.805 303.42 165.508C304.394 165.211 305.427 165.062 306.519 165.062H306.548C309.145 165.062 311.063 165.567 312.332 166.577C312.48 166.399 312.686 166.22 312.922 166.042C313.158 165.864 313.453 165.686 313.778 165.537C314.103 165.389 314.457 165.27 314.84 165.181C315.224 165.092 315.637 165.032 316.08 165.032H316.817V168.537H313.748C313.867 168.864 313.955 169.22 314.014 169.576C314.073 169.933 314.103 170.348 314.103 170.764C314.103 171.715 313.896 172.576 313.512 173.348C313.129 174.12 312.568 174.803 311.86 175.397C311.152 175.962 310.296 176.407 309.322 176.734C308.319 177.06 307.256 177.209 306.047 177.209ZM305.25 183.535C304.571 183.535 303.951 183.475 303.391 183.386C303.184 183.624 302.978 183.921 302.801 184.277C302.624 184.633 302.535 185.168 302.535 185.792C302.535 186.504 302.624 187.098 302.801 187.574C302.978 188.049 303.273 188.465 303.627 188.762C303.981 189.059 304.453 189.296 304.984 189.415C305.515 189.563 306.135 189.623 306.843 189.623H306.873C307.493 189.623 308.112 189.563 308.732 189.415C309.322 189.266 309.883 189.059 310.355 188.762C310.827 188.465 311.211 188.078 311.476 187.633C311.771 187.188 311.919 186.653 311.919 186.059C311.919 185.614 311.86 185.198 311.771 184.871C311.683 184.544 311.506 184.277 311.24 184.069C310.975 183.861 310.65 183.713 310.207 183.624C309.765 183.535 309.204 183.475 308.525 183.475H305.25V183.535ZM306.43 175.13C306.961 175.13 307.404 175.011 307.758 174.803C308.112 174.595 308.378 174.298 308.584 173.942C308.791 173.586 308.909 173.14 308.998 172.635C309.086 172.13 309.116 171.596 309.116 171.061C309.116 169.695 308.909 168.685 308.466 168.062C308.024 167.438 307.315 167.141 306.283 167.141H306.253C305.279 167.141 304.571 167.468 304.128 168.091C303.686 168.715 303.45 169.636 303.45 170.913C303.45 171.536 303.509 172.101 303.597 172.606C303.686 173.11 303.863 173.556 304.069 173.942C304.306 174.298 304.601 174.595 304.984 174.803C305.368 175.011 305.84 175.13 306.43 175.13Z" fill="white"/>
<path d="M318.487 182.773V180.748L320.34 180.434V162.65L318.088 162.279V160.511L323.931 159.769L324.27 159.712H324.906L324.957 165.256L324.906 167.414C325.162 167.158 325.327 167.139 325.755 166.853C326.182 166.568 326.61 166.311 327.123 166.083C327.636 165.855 328.206 165.655 328.805 165.484C329.403 165.341 330.059 165.256 330.714 165.256C331.683 165.256 332.51 165.398 333.137 165.655C333.764 165.912 334.277 166.34 334.676 166.91C335.075 167.481 335.303 168.194 335.474 169.05C335.616 169.906 335.702 170.933 335.702 172.103V180.434L337.811 180.748V182.773H329.403V180.805L331.085 180.462V172.074C331.085 171.39 331.056 170.791 330.971 170.277C330.914 169.764 330.771 169.364 330.572 169.022C330.372 168.679 330.116 168.451 329.774 168.308C329.432 168.166 328.976 168.08 328.434 168.08C328.12 168.08 327.807 168.109 327.465 168.194C327.123 168.28 326.809 168.366 326.524 168.451C326.211 168.565 325.926 168.679 325.669 168.822C325.413 168.965 325.185 169.107 324.985 169.25V180.462L327.037 180.776V182.802H318.487V182.773Z" fill="white"/>
<path d="M341.159 179.281V168.211H339.05V166.499C339.135 166.471 339.249 166.442 339.42 166.385C339.591 166.328 339.762 166.242 339.962 166.185C340.133 166.128 340.304 166.043 340.475 165.986C340.646 165.929 340.731 165.872 340.76 165.843C341.102 165.586 341.444 165.101 341.814 164.388C341.928 164.188 342.014 163.96 342.156 163.675C342.299 163.389 342.385 163.133 342.499 162.847C342.613 162.562 342.727 162.277 342.812 161.992C342.926 161.706 342.983 161.449 343.069 161.221H345.748L345.805 165.672H350.222V168.24H345.805V176.57C345.805 177.369 345.805 177.997 345.833 178.482C345.862 178.967 345.919 179.309 346.004 179.538C346.09 179.766 346.261 179.937 346.46 179.994C346.66 180.051 346.945 180.108 347.287 180.108H347.315C347.543 180.108 347.8 180.08 348.085 180.051C348.341 180.023 348.598 179.965 348.854 179.908C349.111 179.851 349.339 179.794 349.567 179.737C349.795 179.68 349.966 179.623 350.108 179.566H350.137L350.85 181.335C350.536 181.563 350.194 181.791 349.738 182.02C349.282 182.248 348.826 182.448 348.284 182.647C347.743 182.847 347.201 182.99 346.603 183.104C346.004 183.218 345.434 183.275 344.836 183.275H344.807C344.152 183.275 343.582 183.189 343.126 183.018C342.67 182.847 342.27 182.59 341.985 182.248C341.7 181.905 341.501 181.506 341.358 180.993C341.216 180.479 341.159 179.937 341.159 179.281Z" fill="white"/>
</g>
</g>
<defs>
<filter id="filter0_dd_50514_9576" x="420.284" y="88.2847" width="78.6167" height="78.6167" filterUnits="userSpaceOnUse" color-interpolation-filters="sRGB">
<feFlood flood-opacity="0" result="BackgroundImageFix"/>
<feColorMatrix in="SourceAlpha" type="matrix" values="0 0 0 0 0 0 0 0 0 0 0 0 0 0 0 0 0 0 127 0" result="hardAlpha"/>
<feOffset dx="3.83333" dy="3.83333"/>
<feGaussianBlur stdDeviation="3.83333"/>
<feColorMatrix type="matrix" values="0 0 0 0 0 0 0 0 0 0.296699 0 0 0 0 0.858629 0 0 0 0.08 0"/>
<feBlend mode="normal" in2="BackgroundImageFix" result="effect1_dropShadow_50514_9576"/>
<feColorMatrix in="SourceAlpha" type="matrix" values="0 0 0 0 0 0 0 0 0 0 0 0 0 0 0 0 0 0 127 0" result="hardAlpha"/>
<feOffset/>
<feGaussianBlur stdDeviation="2.68333"/>
<feComposite in2="hardAlpha" operator="out"/>
<feColorMatrix type="matrix" values="0 0 0 0 0.0354167 0 0 0 0 0.105426 0 0 0 0 0.2125 0 0 0 0.07 0"/>
<feBlend mode="normal" in2="effect1_dropShadow_50514_9576" result="effect2_dropShadow_50514_9576"/>
<feBlend mode="normal" in="SourceGraphic" in2="effect2_dropShadow_50514_9576" result="shape"/>
</filter>
<filter id="filter1_dd_50514_9576" x="189.868" y="285.868" width="39.7149" height="39.7154" filterUnits="userSpaceOnUse" color-interpolation-filters="sRGB">
<feFlood flood-opacity="0" result="BackgroundImageFix"/>
<feColorMatrix in="SourceAlpha" type="matrix" values="0 0 0 0 0 0 0 0 0 0 0 0 0 0 0 0 0 0 127 0" result="hardAlpha"/>
<feOffset dx="1.8799" dy="1.8799"/>
<feGaussianBlur stdDeviation="1.8799"/>
<feColorMatrix type="matrix" values="0 0 0 0 0 0 0 0 0 0.296699 0 0 0 0 0.858629 0 0 0 0.08 0"/>
<feBlend mode="normal" in2="BackgroundImageFix" result="effect1_dropShadow_50514_9576"/>
<feColorMatrix in="SourceAlpha" type="matrix" values="0 0 0 0 0 0 0 0 0 0 0 0 0 0 0 0 0 0 127 0" result="hardAlpha"/>
<feOffset/>
<feGaussianBlur stdDeviation="1.31593"/>
<feComposite in2="hardAlpha" operator="out"/>
<feColorMatrix type="matrix" values="0 0 0 0 0.0354167 0 0 0 0 0.105426 0 0 0 0 0.2125 0 0 0 0.07 0"/>
<feBlend mode="normal" in2="effect1_dropShadow_50514_9576" result="effect2_dropShadow_50514_9576"/>
<feBlend mode="normal" in="SourceGraphic" in2="effect2_dropShadow_50514_9576" result="shape"/>
</filter>
<filter id="filter2_dd_50514_9576" x="343.344" y="282.345" width="82.2534" height="82.2534" filterUnits="userSpaceOnUse" color-interpolation-filters="sRGB">
<feFlood flood-opacity="0" result="BackgroundImageFix"/>
<feColorMatrix in="SourceAlpha" type="matrix" values="0 0 0 0 0 0 0 0 0 0 0 0 0 0 0 0 0 0 127 0" result="hardAlpha"/>
<feOffset dx="4.05794" dy="4.05794"/>
<feGaussianBlur stdDeviation="4.05794"/>
<feColorMatrix type="matrix" values="0 0 0 0 0 0 0 0 0 0.296699 0 0 0 0 0.858629 0 0 0 0.08 0"/>
<feBlend mode="normal" in2="BackgroundImageFix" result="effect1_dropShadow_50514_9576"/>
<feColorMatrix in="SourceAlpha" type="matrix" values="0 0 0 0 0 0 0 0 0 0 0 0 0 0 0 0 0 0 127 0" result="hardAlpha"/>
<feOffset/>
<feGaussianBlur stdDeviation="2.84056"/>
<feComposite in2="hardAlpha" operator="out"/>
<feColorMatrix type="matrix" values="0 0 0 0 0.0354167 0 0 0 0 0.105426 0 0 0 0 0.2125 0 0 0 0.07 0"/>
<feBlend mode="normal" in2="effect1_dropShadow_50514_9576" result="effect2_dropShadow_50514_9576"/>
<feBlend mode="normal" in="SourceGraphic" in2="effect2_dropShadow_50514_9576" result="shape"/>
</filter>
<filter id="filter3_dd_50514_9576" x="97.2402" y="113.24" width="47.9678" height="48.2469" filterUnits="userSpaceOnUse" color-interpolation-filters="sRGB">
<feFlood flood-opacity="0" result="BackgroundImageFix"/>
<feColorMatrix in="SourceAlpha" type="matrix" values="0 0 0 0 0 0 0 0 0 0 0 0 0 0 0 0 0 0 127 0" result="hardAlpha"/>
<feOffset dx="2.32844" dy="2.32844"/>
<feGaussianBlur stdDeviation="2.32844"/>
<feColorMatrix type="matrix" values="0 0 0 0 0 0 0 0 0 0.296699 0 0 0 0 0.858629 0 0 0 0.08 0"/>
<feBlend mode="normal" in2="BackgroundImageFix" result="effect1_dropShadow_50514_9576"/>
<feColorMatrix in="SourceAlpha" type="matrix" values="0 0 0 0 0 0 0 0 0 0 0 0 0 0 0 0 0 0 127 0" result="hardAlpha"/>
<feOffset/>
<feGaussianBlur stdDeviation="1.62991"/>
<feComposite in2="hardAlpha" operator="out"/>
<feColorMatrix type="matrix" values="0 0 0 0 0.0354167 0 0 0 0 0.105426 0 0 0 0 0.2125 0 0 0 0.07 0"/>
<feBlend mode="normal" in2="effect1_dropShadow_50514_9576" result="effect2_dropShadow_50514_9576"/>
<feBlend mode="normal" in="SourceGraphic" in2="effect2_dropShadow_50514_9576" result="shape"/>
</filter>
<filter id="filter4_dd_50514_9576" x="124.069" y="191.07" width="72.1463" height="72.1463" filterUnits="userSpaceOnUse" color-interpolation-filters="sRGB">
<feFlood flood-opacity="0" result="BackgroundImageFix"/>
<feColorMatrix in="SourceAlpha" type="matrix" values="0 0 0 0 0 0 0 0 0 0 0 0 0 0 0 0 0 0 127 0" result="hardAlpha"/>
<feOffset dx="3.54044" dy="3.54044"/>
<feGaussianBlur stdDeviation="3.54044"/>
<feColorMatrix type="matrix" values="0 0 0 0 0 0 0 0 0 0.296699 0 0 0 0 0.858629 0 0 0 0.08 0"/>
<feBlend mode="normal" in2="BackgroundImageFix" result="effect1_dropShadow_50514_9576"/>
<feColorMatrix in="SourceAlpha" type="matrix" values="0 0 0 0 0 0 0 0 0 0 0 0 0 0 0 0 0 0 127 0" result="hardAlpha"/>
<feOffset/>
<feGaussianBlur stdDeviation="2.47831"/>
<feComposite in2="hardAlpha" operator="out"/>
<feColorMatrix type="matrix" values="0 0 0 0 0.0354167 0 0 0 0 0.105426 0 0 0 0 0.2125 0 0 0 0.07 0"/>
<feBlend mode="normal" in2="effect1_dropShadow_50514_9576" result="effect2_dropShadow_50514_9576"/>
<feBlend mode="normal" in="SourceGraphic" in2="effect2_dropShadow_50514_9576" result="shape"/>
</filter>
<filter id="filter5_dd_50514_9576" x="349.076" y="33.0764" width="50.7598" height="50.7598" filterUnits="userSpaceOnUse" color-interpolation-filters="sRGB">
<feFlood flood-opacity="0" result="BackgroundImageFix"/>
<feColorMatrix in="SourceAlpha" type="matrix" values="0 0 0 0 0 0 0 0 0 0 0 0 0 0 0 0 0 0 127 0" result="hardAlpha"/>
<feOffset dx="2.4454" dy="2.4454"/>
<feGaussianBlur stdDeviation="2.4454"/>
<feColorMatrix type="matrix" values="0 0 0 0 0 0 0 0 0 0.296699 0 0 0 0 0.858629 0 0 0 0.08 0"/>
<feBlend mode="normal" in2="BackgroundImageFix" result="effect1_dropShadow_50514_9576"/>
<feColorMatrix in="SourceAlpha" type="matrix" values="0 0 0 0 0 0 0 0 0 0 0 0 0 0 0 0 0 0 127 0" result="hardAlpha"/>
<feOffset/>
<feGaussianBlur stdDeviation="1.71178"/>
<feComposite in2="hardAlpha" operator="out"/>
<feColorMatrix type="matrix" values="0 0 0 0 0.0354167 0 0 0 0 0.105426 0 0 0 0 0.2125 0 0 0 0.07 0"/>
<feBlend mode="normal" in2="effect1_dropShadow_50514_9576" result="effect2_dropShadow_50514_9576"/>
<feBlend mode="normal" in="SourceGraphic" in2="effect2_dropShadow_50514_9576" result="shape"/>
</filter>
<filter id="filter6_dd_50514_9576" x="397.929" y="192.429" width="57.8099" height="57.8104" filterUnits="userSpaceOnUse" color-interpolation-filters="sRGB">
<feFlood flood-opacity="0" result="BackgroundImageFix"/>
<feColorMatrix in="SourceAlpha" type="matrix" values="0 0 0 0 0 0 0 0 0 0 0 0 0 0 0 0 0 0 127 0" result="hardAlpha"/>
<feOffset dx="2.84608" dy="2.84608"/>
<feGaussianBlur stdDeviation="2.84608"/>
<feColorMatrix type="matrix" values="0 0 0 0 0 0 0 0 0 0.296699 0 0 0 0 0.858629 0 0 0 0.08 0"/>
<feBlend mode="normal" in2="BackgroundImageFix" result="effect1_dropShadow_50514_9576"/>
<feColorMatrix in="SourceAlpha" type="matrix" values="0 0 0 0 0 0 0 0 0 0 0 0 0 0 0 0 0 0 127 0" result="hardAlpha"/>
<feOffset/>
<feGaussianBlur stdDeviation="1.99226"/>
<feComposite in2="hardAlpha" operator="out"/>
<feColorMatrix type="matrix" values="0 0 0 0 0.0354167 0 0 0 0 0.105426 0 0 0 0 0.2125 0 0 0 0.07 0"/>
<feBlend mode="normal" in2="effect1_dropShadow_50514_9576" result="effect2_dropShadow_50514_9576"/>
<feBlend mode="normal" in="SourceGraphic" in2="effect2_dropShadow_50514_9576" result="shape"/>
</filter>
<filter id="filter7_dd_50514_9576" x="168.51" y="39.5112" width="64.3309" height="64.3309" filterUnits="userSpaceOnUse" color-interpolation-filters="sRGB">
<feFlood flood-opacity="0" result="BackgroundImageFix"/>
<feColorMatrix in="SourceAlpha" type="matrix" values="0 0 0 0 0 0 0 0 0 0 0 0 0 0 0 0 0 0 127 0" result="hardAlpha"/>
<feOffset dx="3.12607" dy="3.12607"/>
<feGaussianBlur stdDeviation="3.12607"/>
<feColorMatrix type="matrix" values="0 0 0 0 0 0 0 0 0 0.296699 0 0 0 0 0.858629 0 0 0 0.08 0"/>
<feBlend mode="normal" in2="BackgroundImageFix" result="effect1_dropShadow_50514_9576"/>
<feColorMatrix in="SourceAlpha" type="matrix" values="0 0 0 0 0 0 0 0 0 0 0 0 0 0 0 0 0 0 127 0" result="hardAlpha"/>
<feOffset/>
<feGaussianBlur stdDeviation="2.18825"/>
<feComposite in2="hardAlpha" operator="out"/>
<feColorMatrix type="matrix" values="0 0 0 0 0.0354167 0 0 0 0 0.105426 0 0 0 0 0.2125 0 0 0 0.07 0"/>
<feBlend mode="normal" in2="effect1_dropShadow_50514_9576" result="effect2_dropShadow_50514_9576"/>
<feBlend mode="normal" in="SourceGraphic" in2="effect2_dropShadow_50514_9576" result="shape"/>
</filter>
<filter id="filter8_d_50514_9576" x="200.268" y="82.6584" width="201.048" height="236.464" filterUnits="userSpaceOnUse" color-interpolation-filters="sRGB">
<feFlood flood-opacity="0" result="BackgroundImageFix"/>
<feColorMatrix in="SourceAlpha" type="matrix" values="0 0 0 0 0 0 0 0 0 0 0 0 0 0 0 0 0 0 127 0" result="hardAlpha"/>
<feOffset dy="19.3905"/>
<feGaussianBlur stdDeviation="14.866"/>
<feColorMatrix type="matrix" values="0 0 0 0 0 0 0 0 0 0.265407 0 0 0 0 0.768073 0 0 0 0.33 0"/>
<feBlend mode="normal" in2="BackgroundImageFix" result="effect1_dropShadow_50514_9576"/>
<feBlend mode="normal" in="SourceGraphic" in2="effect1_dropShadow_50514_9576" result="shape"/>
</filter>
<radialGradient id="paint0_radial_50514_9576" cx="0" cy="0" r="1" gradientUnits="userSpaceOnUse" gradientTransform="translate(96.797 150.736) rotate(-13.0312) scale(218.036 254.127)">
<stop stop-color="#3D7FFC"/>
<stop offset="1" stop-color="#E7EEFF"/>
</radialGradient>
<linearGradient id="paint1_linear_50514_9576" x1="377.355" y1="6.25855" x2="377.353" y2="6.27929" gradientUnits="userSpaceOnUse">
<stop stop-color="#3D7FFC"/>
<stop offset="1" stop-color="#3D7FFC" stop-opacity="0"/>
</linearGradient>
<radialGradient id="paint2_radial_50514_9576" cx="0" cy="0" r="1" gradientUnits="userSpaceOnUse" gradientTransform="translate(530.45 84.4114) rotate(135.311) scale(242.036 185.625)">
<stop stop-color="#3D7FFC"/>
<stop offset="1" stop-color="#E7EEFF"/>
</radialGradient>
<linearGradient id="paint3_linear_50514_9576" x1="380.81" y1="7.30244" x2="380.556" y2="8.63809" gradientUnits="userSpaceOnUse">
<stop stop-color="#3D7FFC"/>
<stop offset="1" stop-color="#3D7FFC" stop-opacity="0"/>
</linearGradient>
<linearGradient id="paint4_linear_50514_9576" x1="377.964" y1="5.69612" x2="377.725" y2="7.16328" gradientUnits="userSpaceOnUse">
<stop stop-color="#3D7FFC"/>
<stop offset="1" stop-color="#3D7FFC" stop-opacity="0"/>
</linearGradient>
<linearGradient id="paint5_linear_50514_9576" x1="496.029" y1="75.2676" x2="446.986" y2="170.996" gradientUnits="userSpaceOnUse">
<stop stop-color="white"/>
<stop offset="1" stop-color="#E7EEFF"/>
</linearGradient>
<linearGradient id="paint6_linear_50514_9576" x1="434.001" y1="150.37" x2="492.993" y2="106.126" gradientUnits="userSpaceOnUse">
<stop stop-color="#C6DBFF"/>
<stop offset="1" stop-color="#E7EEFF"/>
</linearGradient>
<linearGradient id="paint7_linear_50514_9576" x1="227.595" y1="280.065" x2="203.544" y2="327.011" gradientUnits="userSpaceOnUse">
<stop stop-color="white"/>
<stop offset="1" stop-color="#E7EEFF"/>
</linearGradient>
<linearGradient id="paint8_linear_50514_9576" x1="197.176" y1="316.896" x2="226.106" y2="295.198" gradientUnits="userSpaceOnUse">
<stop stop-color="#C6DBFF"/>
<stop offset="1" stop-color="#E7EEFF"/>
</linearGradient>
<linearGradient id="paint9_linear_50514_9576" x1="423.043" y1="268.081" x2="371.126" y2="369.418" gradientUnits="userSpaceOnUse">
<stop stop-color="white"/>
<stop offset="1" stop-color="#E7EEFF"/>
</linearGradient>
<linearGradient id="paint10_linear_50514_9576" x1="357.381" y1="347.583" x2="419.829" y2="300.748" gradientUnits="userSpaceOnUse">
<stop stop-color="#C6DBFF"/>
<stop offset="1" stop-color="#E7EEFF"/>
</linearGradient>
<linearGradient id="paint11_linear_50514_9576" x1="143.011" y1="105.774" x2="113.276" y2="163.351" gradientUnits="userSpaceOnUse">
<stop stop-color="white"/>
<stop offset="1" stop-color="#E7EEFF"/>
</linearGradient>
<linearGradient id="paint12_linear_50514_9576" x1="105.877" y1="151.097" x2="141.396" y2="124.67" gradientUnits="userSpaceOnUse">
<stop stop-color="#C6DBFF"/>
<stop offset="1" stop-color="#E7EEFF"/>
</linearGradient>
<linearGradient id="paint13_linear_50514_9576" x1="193.795" y1="178.816" x2="148.499" y2="267.23" gradientUnits="userSpaceOnUse">
<stop stop-color="white"/>
<stop offset="1" stop-color="#E7EEFF"/>
</linearGradient>
<linearGradient id="paint14_linear_50514_9576" x1="136.507" y1="248.179" x2="190.99" y2="207.317" gradientUnits="userSpaceOnUse">
<stop stop-color="#C6DBFF"/>
<stop offset="1" stop-color="#E7EEFF"/>
</linearGradient>
<linearGradient id="paint15_linear_50514_9576" x1="397.701" y1="25.0763" x2="366.414" y2="86.1446" gradientUnits="userSpaceOnUse">
<stop stop-color="white"/>
<stop offset="1" stop-color="#E7EEFF"/>
</linearGradient>
<linearGradient id="paint16_linear_50514_9576" x1="358.131" y1="72.9864" x2="395.764" y2="44.7621" gradientUnits="userSpaceOnUse">
<stop stop-color="#C6DBFF"/>
<stop offset="1" stop-color="#E7EEFF"/>
</linearGradient>
<linearGradient id="paint17_linear_50514_9576" x1="453.886" y1="182.485" x2="417.474" y2="253.56" gradientUnits="userSpaceOnUse">
<stop stop-color="white"/>
<stop offset="1" stop-color="#E7EEFF"/>
</linearGradient>
<linearGradient id="paint18_linear_50514_9576" x1="407.834" y1="238.245" x2="451.632" y2="205.396" gradientUnits="userSpaceOnUse">
<stop stop-color="#C6DBFF"/>
<stop offset="1" stop-color="#E7EEFF"/>
</linearGradient>
<linearGradient id="paint19_linear_50514_9576" x1="230.39" y1="29.0054" x2="190.395" y2="107.072" gradientUnits="userSpaceOnUse">
<stop stop-color="white"/>
<stop offset="1" stop-color="#E7EEFF"/>
</linearGradient>
<linearGradient id="paint20_linear_50514_9576" x1="179.807" y1="90.2511" x2="227.914" y2="54.1707" gradientUnits="userSpaceOnUse">
<stop stop-color="#C6DBFF"/>
<stop offset="1" stop-color="#E7EEFF"/>
</linearGradient>
<clipPath id="clip0_50514_9576">
<rect width="101.632" height="36.5239" fill="white" transform="translate(250.439 155.504)"/>
</clipPath>
</defs>
</svg>
