<svg width="40" height="41" viewBox="0 0 40 41" fill="none" xmlns="http://www.w3.org/2000/svg">
<path d="M5.0625 7.85888C5.0625 6.75431 5.95793 5.85889 7.0625 5.85889H33.1218C34.2264 5.85889 35.1218 6.75432 35.1218 7.85889V11.7916H5.0625V7.85888Z" fill="#BFBAFC"/>
<path d="M35.123 33.127C35.123 34.2315 34.2276 35.127 33.123 35.127L7.06374 35.127C5.95917 35.127 5.06374 34.2315 5.06374 33.127L5.06374 13.3735L35.123 13.3735L35.123 33.127Z" fill="#9D97F4"/>
<path d="M8.22656 8.79406C8.22656 8.26477 8.65564 7.83569 9.18493 7.83569C9.71422 7.83569 10.1433 8.26477 10.1433 8.79406C10.1433 9.32335 9.71422 9.75243 9.18493 9.75243C8.65564 9.75243 8.22656 9.32335 8.22656 8.79406Z" fill="white"/>
<path d="M11.4219 8.79406C11.4219 8.26477 11.851 7.83569 12.3802 7.83569C12.9095 7.83569 13.3386 8.26477 13.3386 8.79406C13.3386 9.32335 12.9095 9.75243 12.3802 9.75243C11.851 9.75243 11.4219 9.32335 11.4219 8.79406Z" fill="white"/>
<path d="M14.6152 8.79406C14.6152 8.26477 15.0443 7.83569 15.5736 7.83569C16.1029 7.83569 16.532 8.26477 16.532 8.79406C16.532 9.32335 16.1029 9.75243 15.5736 9.75243C15.0443 9.75243 14.6152 9.32335 14.6152 8.79406Z" fill="white"/>
<path fill-rule="evenodd" clip-rule="evenodd" d="M14.9555 18.7341L16.0444 19.7657L12.033 23.9999L16.0444 28.2341L14.9555 29.2657L9.9668 23.9999L14.9555 18.7341Z" fill="white"/>
<path fill-rule="evenodd" clip-rule="evenodd" d="M25.5445 29.2656L24.4556 28.234L28.467 23.9998L24.4556 19.7656L25.5445 18.734L30.5332 23.9998L25.5445 29.2656Z" fill="white"/>
<path fill-rule="evenodd" clip-rule="evenodd" d="M16.7832 31.0276L21.2832 16.5276L22.7158 16.9722L18.2158 31.4722L16.7832 31.0276Z" fill="white"/>
</svg>
