<svg width="60" height="60" viewBox="0 0 60 60" fill="none" xmlns="http://www.w3.org/2000/svg">
<circle cx="30" cy="30" r="30" fill="white"/>
<path fill-rule="evenodd" clip-rule="evenodd" d="M16.4602 13.9381C16.2997 13.8418 16.1672 13.7037 16.0779 13.5387L12.9834 13.2167L13.0993 12.1738L16.1129 12.4874C16.2975 12.1945 16.6239 12 16.9957 12C17.4444 12 17.827 12.2834 17.9741 12.681L28.9496 13.823C29.1912 13.3594 29.6761 13.043 30.2349 13.043C30.8999 13.043 31.4603 13.4911 31.6304 14.1019L42.5897 15.2421C42.774 14.9479 43.1012 14.7522 43.4741 14.7522C43.9239 14.7522 44.3072 15.037 44.4535 15.436L47.4865 15.7516L47.3706 16.7945L44.2678 16.4717C44.1898 16.5631 44.0962 16.6409 43.9913 16.7009L51.032 32.583H51.4698C51.4698 37.0009 47.892 40.5787 43.4741 40.5787C39.0562 40.5787 35.4785 37.0009 35.4785 32.583H35.9162L42.957 16.701C42.7891 16.605 42.6506 16.4637 42.5579 16.2938L31.5274 15.1461C31.3662 15.4638 31.0913 15.714 30.7563 15.8433V20.3869V43.5916H34.421V45.6919H26.0342V43.5916H29.7134V20.3869V15.8432C29.2851 15.6779 28.9552 15.3149 28.8353 14.866L17.7915 13.717C17.7176 13.8041 17.6296 13.879 17.5311 13.9381L24.5518 28.9038H24.9913C24.9913 33.3217 21.4136 36.8995 16.9957 36.8995C12.5778 36.8995 9 33.3217 9 28.9038H9.43958L16.4602 13.9381ZM23.39 28.9038L16.9957 15L10.6014 28.9038H23.39ZM49.9812 32.583H36.9799L43.4741 17.9293L49.9812 32.583ZM45.3137 47.7922V46.2133V45.6919H15.1561V46.2133V47.7922H45.3137Z" fill="#3D7FFC"/>
</svg>
