<svg width="60" height="60" viewBox="0 0 60 60" fill="none" xmlns="http://www.w3.org/2000/svg">
<circle cx="30" cy="30" r="30" fill="white"/>
<path d="M16.0815 32.1418C18.3356 32.1418 20.1629 30.3188 20.1629 28.0701C20.1629 25.8213 18.3356 23.9983 16.0815 23.9983C13.8273 23.9983 12 25.8213 12 28.0701C12 30.3188 13.8273 32.1418 16.0815 32.1418Z" fill="#3D7FFC"/>
<path d="M24.11 24.2707C26.7402 24.2707 28.8724 22.1436 28.8724 19.5198C28.8724 16.8959 26.7402 14.7688 24.11 14.7688C21.4797 14.7688 19.3475 16.8959 19.3475 19.5198C19.3475 22.1436 21.4797 24.2707 24.11 24.2707Z" fill="#3D7FFC"/>
<path d="M35.2666 24.2707C37.8968 24.2707 40.029 22.1436 40.029 19.5198C40.029 16.8959 37.8968 14.7688 35.2666 14.7688C32.6364 14.7688 30.5041 16.8959 30.5041 19.5198C30.5041 22.1436 32.6364 24.2707 35.2666 24.2707Z" fill="#3D7FFC"/>
<path d="M43.2943 32.1418C45.5484 32.1418 47.3757 30.3188 47.3757 28.0701C47.3757 25.8213 45.5484 23.9983 43.2943 23.9983C41.0401 23.9983 39.2128 25.8213 39.2128 28.0701C39.2128 30.3188 41.0401 32.1418 43.2943 32.1418Z" fill="#3D7FFC"/>
<path d="M29.7047 26.2659C30.1371 26.2542 30.5697 26.2767 30.9986 26.3331C31.1851 26.3678 31.3683 26.4187 31.546 26.4852C32.6932 26.9608 33.6944 27.7308 34.4486 28.7174C35.9078 30.4429 37.1186 31.9145 38.5619 33.6391C40.7357 35.8554 43.4057 38.3069 42.8954 41.7569C42.6739 42.7029 42.196 43.5696 41.5143 44.2619C40.8325 44.9541 39.9732 45.4451 39.0306 45.681C38.8718 45.7083 38.7107 45.7208 38.5495 45.7181C36.9841 45.7181 33.5085 44.9372 29.8409 44.9372H29.5429C25.893 44.9372 22.4394 45.7225 20.8608 45.7225C20.6906 45.7255 20.5205 45.7116 20.3531 45.681C19.4082 45.4489 18.5462 44.9592 17.8629 44.2665C17.1797 43.5737 16.702 42.705 16.483 41.7569C15.9869 38.3255 18.6577 35.8713 20.8307 33.6568C22.2899 31.9313 23.5007 30.4597 24.944 28.7342C25.7021 27.7515 26.7022 26.9824 27.8466 26.502C28.0243 26.4358 28.2075 26.3852 28.394 26.3508C28.8272 26.2805 29.2661 26.2521 29.7047 26.2659Z" fill="#3D7FFC"/>
</svg>
