<svg width="60" height="60" viewBox="0 0 60 60" fill="none" xmlns="http://www.w3.org/2000/svg">
<circle cx="30" cy="30" r="30" fill="white"/>
<path d="M19.6518 20.0751C18.0843 22.4307 17.2667 25.2056 17.3064 28.0347C17.3064 35.8501 20.8439 48.3757 29.6879 48.3757C38.5318 48.3757 42.0694 35.8501 42.0694 28.0347C42.109 25.2056 41.2914 22.4307 39.724 20.0751H19.6518Z" fill="#3D7FFC"/>
<path d="M19.0751 38.6474C21.5173 38.6474 23.4971 36.6676 23.4971 34.2254C23.4971 31.7832 21.5173 29.8035 19.0751 29.8035C16.633 29.8035 14.6532 31.7832 14.6532 34.2254C14.6532 36.6676 16.633 38.6474 19.0751 38.6474Z" fill="#3D7FFC"/>
<path d="M40.3006 38.6474C42.7428 38.6474 44.7225 36.6676 44.7225 34.2254C44.7225 31.7832 42.7428 29.8035 40.3006 29.8035C37.8584 29.8035 35.8786 31.7832 35.8786 34.2254C35.8786 36.6676 37.8584 38.6474 40.3006 38.6474Z" fill="#3D7FFC"/>
<path d="M19.1415 30.6879H27.6829C27.8209 30.6876 27.9571 30.7196 28.0805 30.7813C28.2039 30.8431 28.3112 30.9329 28.3937 31.0435C28.4762 31.1541 28.5317 31.2825 28.5557 31.4184C28.5797 31.5543 28.5716 31.6939 28.532 31.8261C27.9881 33.6134 27.9191 37.763 22.6127 37.763C19.3184 37.763 18.4782 33.4419 18.2642 31.6899C18.2474 31.5649 18.2575 31.4377 18.294 31.3169C18.3304 31.1962 18.3922 31.0846 18.4753 30.9897C18.5584 30.8948 18.6608 30.8187 18.7757 30.7667C18.8906 30.7146 19.0153 30.6878 19.1415 30.6879Z" fill="#F1F7FF"/>
<path d="M40.2342 30.6879H31.6928C31.5548 30.6876 31.4186 30.7196 31.2952 30.7813C31.1718 30.8431 31.0646 30.9329 30.982 31.0435C30.8995 31.1541 30.8441 31.2825 30.82 31.4184C30.796 31.5543 30.8041 31.6939 30.8438 31.8261C31.3877 33.6134 31.4566 37.763 36.763 37.763C40.0574 37.763 40.8975 33.4419 41.1116 31.6899C41.1283 31.5649 41.1182 31.4377 41.0818 31.3169C41.0453 31.1962 40.9835 31.0846 40.9004 30.9897C40.8173 30.8948 40.7149 30.8187 40.6 30.7667C40.4851 30.7146 40.3604 30.6878 40.2342 30.6879Z" fill="#F1F7FF"/>
<path d="M27.9191 31.5723H32.341V33.3411H27.9191V31.5723Z" fill="#F1F7FF"/>
<path d="M17.3064 26.2659V14.7688L21.1756 18.3064L25.2659 13L29.6879 17.422L34.1098 13L38.2002 18.3064L42.0517 14.7688L42.0694 26.2659H17.3064Z" fill="#3D7FFC"/>
</svg>
