<svg width="94" height="44" viewBox="0 0 94 44" fill="none" xmlns="http://www.w3.org/2000/svg">
<g id="Bitget_logo_color 1" clip-path="url(#clip0_12946_80181)">
<g id="Group">
<g id="Group_2">
<g id="Group_3">
<path id="Vector" d="M93.0945 17.4167C93.2167 17.4167 93.2778 17.4167 93.4 17.5389C93.5223 17.6611 93.5223 17.7222 93.5223 17.8444V20.1667C93.5223 20.2889 93.5223 20.35 93.4 20.4722C93.2778 20.5944 93.2167 20.5944 93.0945 20.5944H91.1389V29.7611C91.1389 29.8833 91.1389 29.9444 91.0167 30.0667C90.8945 30.1889 90.8334 30.1889 90.7112 30.1889H87.6556C87.5334 30.1889 87.4723 30.1889 87.35 30.0667C87.2278 29.9444 87.2278 29.8833 87.2278 29.7611V20.4111H85.2723C85.15 20.4111 85.0889 20.4111 84.9667 20.2889C84.8445 20.1667 84.8445 20.1056 84.8445 19.9833V17.7222C84.8445 17.6 84.8445 17.5389 84.9667 17.4167C85.0889 17.4167 85.15 17.4167 85.2723 17.4167H87.2278V14.1778C87.2278 14.0556 87.2278 13.9944 87.35 13.8722C87.4723 13.75 87.5334 13.75 87.6556 13.75H90.7112C90.8334 13.75 90.8945 13.75 91.0167 13.8722C91.1389 13.9944 91.1389 14.0556 91.1389 14.1778V17.4167H93.0945Z" fill="#1EA2B4"/>
<path id="Vector_2" d="M84.4778 23.5278C84.4778 24.0778 84.3555 24.4445 84.2944 24.75C84.1722 24.9334 83.9889 25.0556 83.5611 25.0556H76.0444C76.2278 25.7889 76.5944 26.2778 77.0833 26.6445C77.5722 27.0111 78.3055 27.1945 79.1611 27.1945C79.5889 27.1945 80.0167 27.1945 80.3222 27.0722C80.75 26.95 81.1778 26.7667 81.5444 26.4611C81.6667 26.3389 81.7278 26.3389 81.85 26.3389C81.9722 26.3389 82.0333 26.3389 82.1555 26.4611L83.5 27.6834C83.6222 27.8056 83.6222 27.8056 83.6222 27.8667C83.6222 27.9889 83.6222 28.05 83.5 28.1722C82.8889 28.7834 82.2778 29.2111 81.4222 29.6389C80.6889 29.9445 79.8333 30.1889 78.9167 30.1889C77.6944 30.1889 76.5333 29.8834 75.4944 29.3334C74.5778 28.7222 73.7222 27.9889 73.1722 26.95C72.6222 26.0334 72.3167 24.8722 72.3167 23.7111C72.3167 22.55 72.6222 21.3889 73.1722 20.4722C73.7222 19.5556 74.5166 18.7 75.4944 18.15C76.4111 17.5389 77.45 17.2945 78.7333 17.2945C79.8944 17.2945 80.9333 17.6 81.7889 18.15C82.7055 18.7 83.3778 19.4945 83.8667 20.4722C84.2333 21.3278 84.4778 22.4278 84.4778 23.5278ZM78.6111 20.5334C78 20.5334 77.3889 20.7167 76.9611 21.0834C76.4111 21.3889 76.2278 21.9389 76.0444 22.6722H81.1778C81.0555 21.9389 80.75 21.45 80.3222 21.0834C79.7722 20.7167 79.2222 20.5334 78.6111 20.5334Z" fill="#1EA2B4"/>
<path id="Vector_3" d="M70.6666 17.6C70.7888 17.6 70.8499 17.6 70.9721 17.7222C71.0944 17.8444 71.0944 17.9056 71.0944 18.0278V30.0056C71.0944 31.2278 70.7888 32.3278 70.0555 33.0611C69.4444 33.9167 68.5888 34.4056 67.5499 34.7111C66.511 34.8944 65.5944 35.1389 64.4333 35.1389C63.3944 35.1389 62.3555 35.0167 61.3777 34.7111C60.461 34.4056 59.6055 33.9778 58.9944 33.55C58.8721 33.4278 58.8721 33.3667 58.8721 33.2444C58.8721 33.1222 58.8721 33.0611 58.8721 33.0611L59.7888 31.2889C59.911 31.1667 59.9721 31.1056 60.0944 31.1056C60.2166 31.1056 60.2166 31.1056 60.2777 31.1056C60.8277 31.4111 61.4388 31.7167 62.0499 31.8389C62.661 31.9611 63.2721 32.0222 64.1277 32.0222C64.9833 32.0222 65.7777 31.8389 66.4499 31.4722C67.1833 31.1667 67.4888 30.5556 67.4888 29.7V28.5389C66.5721 29.7 65.2888 30.1889 63.8221 30.1889C62.661 30.1889 61.6221 29.8833 60.7666 29.3333C59.8499 28.7222 59.1166 27.9889 58.5666 26.95C58.0166 26.0333 57.8333 24.8722 57.8333 23.7111C57.8333 22.55 58.0166 21.5111 58.5666 20.4722C59.1777 19.4333 59.7888 18.7 60.7666 18.0889C61.6833 17.4778 62.661 17.2333 63.8221 17.2333C65.1666 17.2333 66.3277 17.7833 67.3666 18.8833L67.4888 17.8444C67.4888 17.6611 67.6721 17.4167 67.9166 17.4167H70.6055V17.6H70.6666ZM64.4333 26.7056C65.1666 26.7056 65.8999 26.4 66.3888 25.7889C66.9388 25.1778 67.2444 24.5667 67.2444 23.7111C67.2444 22.8556 66.9388 22.2444 66.3888 21.6333C65.8388 21.0222 65.2277 20.7167 64.4333 20.7167C63.5777 20.7167 62.9666 21.0222 62.4777 21.5722C61.9277 22.1222 61.6221 22.7944 61.6221 23.65C61.6221 24.5056 61.8055 25.2389 62.3555 25.7278C62.9666 26.3389 63.5777 26.7056 64.4333 26.7056Z" fill="#1EA2B4"/>
<path id="Vector_4" d="M56.6724 17.4167C56.7946 17.4167 56.8557 17.4167 56.9779 17.5389C57.1001 17.6611 57.1001 17.7222 57.1001 17.8444V20.1667C57.1001 20.2889 57.1001 20.35 56.9779 20.4722C56.8557 20.5944 56.7946 20.5944 56.6724 20.5944H54.7168V29.7611C54.7168 29.8833 54.7168 29.9444 54.5946 30.0667C54.4724 30.1889 54.4113 30.1889 54.289 30.1889H51.2335C51.1113 30.1889 51.0501 30.1889 50.9279 30.0667C50.9279 29.9444 50.9279 29.8833 50.9279 29.7611V20.4111H48.8501C48.7279 20.4111 48.6668 20.4111 48.5446 20.2889C48.4224 20.1667 48.4224 20.1056 48.4224 19.9833V17.7222C48.4224 17.6 48.4224 17.5389 48.5446 17.4167C48.6668 17.4167 48.7279 17.4167 48.8501 17.4167H50.9279V14.1778C50.9279 14.0556 50.9279 13.9944 51.0501 13.8722C51.1724 13.75 51.2335 13.75 51.3557 13.75H54.4113C54.5335 13.75 54.5946 13.75 54.7168 13.8722C54.839 13.9944 54.839 14.0556 54.839 14.1778V17.4167H56.6724Z" fill="#1EA2B4"/>
<path id="Vector_5" d="M45.1834 16.3167C44.6334 16.3167 44.1445 16.1334 43.7167 15.7056C43.4112 15.2778 43.1667 14.85 43.1667 14.2389C43.1667 13.6278 43.3501 13.2 43.7779 12.7722C44.0834 12.3445 44.6334 12.1611 45.1223 12.1611C45.6112 12.1611 46.1612 12.3445 46.589 12.7722C47.0167 13.2 47.2001 13.6889 47.2001 14.2389C47.2001 14.7889 47.0167 15.2778 46.589 15.7056C46.2223 16.1334 45.8556 16.3167 45.1834 16.3167ZM43.3501 17.7222C43.3501 17.6 43.3501 17.5389 43.4723 17.4167C43.5945 17.4167 43.6556 17.4167 43.7779 17.4167H46.8334C46.9556 17.4167 47.0167 17.4167 47.139 17.5389C47.2612 17.6611 47.2612 17.7222 47.2612 17.8445V29.7611C47.2612 29.8834 47.2612 29.9445 47.139 30.0667C47.0167 30.1889 46.9556 30.1889 46.8334 30.1889H43.7779C43.6556 30.1889 43.5945 30.1889 43.4723 30.0667C43.3501 29.9445 43.3501 29.8834 43.3501 29.7611V17.7222Z" fill="#1EA2B4"/>
<path id="Vector_6" d="M38.5223 20.5334C39.439 20.7167 40.2946 21.2667 40.9057 22.1222C41.639 22.9778 41.9446 23.8945 41.9446 24.9334C41.9446 26.5834 41.3946 27.9889 40.2946 28.7834C39.2557 29.6389 37.6057 30.0056 35.4057 30.0056H29.2334C29.1112 30.0056 29.0501 30.0056 28.9279 29.8834C28.8057 29.7611 28.8057 29.7 28.8057 29.5778V12.5889C28.8057 12.4667 28.8057 12.4056 28.9279 12.2834C28.9279 12.2834 29.0501 12.1611 29.1112 12.1611H35.2834C36.4446 12.1611 37.3612 12.3445 38.0946 12.7722C38.9501 13.2 39.5612 13.6889 39.8668 14.4222C40.2946 15.1556 40.4779 15.8889 40.4779 16.8056C40.4779 17.6611 40.2946 18.4556 39.8668 19.1278C39.5612 19.8 39.0723 20.2889 38.5223 20.5334ZM36.9334 17.4167C36.9334 16.3778 36.3223 15.7667 34.9779 15.7667H32.6557V19.1889H34.9779C35.589 19.1889 36.139 19.0667 36.4446 18.7611C36.7501 18.4556 36.9334 17.9056 36.9334 17.4167ZM35.4668 26.5834C36.2001 26.5834 36.8112 26.4 37.3612 26.0334C37.789 25.7278 38.0946 25.1167 38.0946 24.4445C38.0946 23.7111 37.9112 23.2222 37.3612 22.8556C36.9334 22.55 36.3223 22.3056 35.4668 22.3056H32.6557V26.4611H35.4668V26.5834Z" fill="#1EA2B4"/>
<path id="Vector_7" d="M7.23337 10.6333C7.53892 10.3278 7.9667 10.0833 8.39448 10.0833H11.45C11.8778 10.0833 12.0611 10.5111 11.7556 10.8167L5.82781 17.2945H9.18892L12.55 20.8389H5.7667L12.4278 28.05H8.33337C7.90559 28.05 7.4167 27.8667 7.11115 27.5L0.327813 20.1667C-0.222187 19.5556 -0.222186 18.5167 0.450036 17.8445L7.23337 10.6333Z" fill="#1EA2B4"/>
<path id="Vector_8" d="M16.5222 34.5889C16.2166 34.8945 15.7888 35.1389 15.2999 35.1389H12.2444C11.8166 35.1389 11.6333 34.7111 11.9388 34.4056L17.9888 27.9278H14.6277L11.2666 24.3834H17.9277L11.2666 17.1722H15.361C15.7888 17.1722 16.2777 17.3556 16.5833 17.7222L23.3666 25.0556C23.9777 25.6667 23.9777 26.7056 23.3666 27.3778L16.5222 34.5889Z" fill="#1EA2B4"/>
</g>
</g>
</g>
</g>
<defs>
<clipPath id="clip0_12946_80181">
<rect width="94" height="44" fill="white"/>
</clipPath>
</defs>
</svg>
