<svg xmlns="http://www.w3.org/2000/svg" viewBox="0 0 137.2 137.2"><defs><style>.cls-1{fill:#fff;}.cls-2{fill:#00559a;}</style></defs><g id="Layer_2" data-name="Layer 2"><g id="Layer_1-2" data-name="Layer 1"><circle class="cls-1" cx="68.95" cy="68.63" r="55.63"></circle><path class="cls-2" d="M68.6,0a68.6,68.6,0,1,0,68.6,68.6A68.68,68.68,0,0,0,68.6,0Zm0,120.6a52,52,0,1,1,52-52A52.05,52.05,0,0,1,68.6,120.6Z"></path><path class="cls-2" d="M114,51.36l.24-1.48,0-.24a4,4,0,0,1-.21.38l-.88,1.4-.39-1.4a2.27,2.27,0,0,1-.09-.38l0,.24-.24,1.48h-.28l.36-2.22h.33l.36,1.33c0,.13.08.31.1.4,0-.09.15-.27.22-.4l.81-1.33h.32l-.37,2.22Zm-2.67-2-.33,2h-.3l.33-2h-.72l0-.23h1.73l0,.23Z"></path><path class="cls-2" d="M76.54,55.5h0s0,0,0-.08Z"></path><path class="cls-2" d="M29.55,60.08a6.94,6.94,0,0,0,2.25,1.33,28.85,28.85,0,0,0,3.3,1c.71.17,1.29.33,1.75.48a6.69,6.69,0,0,1,1.07.47,1.42,1.42,0,0,1,.53.49.88.88,0,0,1,.09.56,1.35,1.35,0,0,1-.76,1.1,6,6,0,0,1-2.29.31,7.09,7.09,0,0,1-1.59-.19,10.7,10.7,0,0,1-1.67-.5,15.73,15.73,0,0,1-1.56-.7,9.8,9.8,0,0,1-1.28-.8l-3.61,4.76a14.31,14.31,0,0,0,3.88,1.89,15.75,15.75,0,0,0,5,.76,16,16,0,0,0,3.68-.4,9.77,9.77,0,0,0,3-1.25,7.38,7.38,0,0,0,2.19-2.19A8.08,8.08,0,0,0,44.67,64a6.61,6.61,0,0,0-.1-2.66,4.05,4.05,0,0,0-1.16-1.93,5.75,5.75,0,0,0-1-.74H28.54A4.1,4.1,0,0,0,29.55,60.08Z"></path><path class="cls-2" d="M34.38,55a1.44,1.44,0,0,1,.58-1,3.28,3.28,0,0,1,1.87-.38,8.7,8.7,0,0,1,3.08.53,9.28,9.28,0,0,1,1.93,1c.33.22.75.57.75.57l.46-.57L46.24,51a12,12,0,0,0-3.56-1.88,15.72,15.72,0,0,0-4.81-.65,12.35,12.35,0,0,0-3.63.5,9.44,9.44,0,0,0-2.92,1.41,7.5,7.5,0,0,0-2.05,2.19,7.36,7.36,0,0,0-1,2.64h6.08Z"></path><polygon class="cls-2" points="51.95 71 58.02 71 59.72 58.94 53.65 58.94 51.95 71"></polygon><polygon class="cls-2" points="60.36 54.39 66.49 54.39 67.23 49.1 48.9 49.1 48.16 54.39 54.29 54.39 54.13 55.5 60.2 55.5 60.36 54.39"></polygon><path class="cls-2" d="M76.57,55.42s0,0,0,.08H82l-1.42-6.4H74.43l-3.22,6.4h5.33Z"></path><path class="cls-2" d="M88.55,71h6l1-7.38H98L100.52,71h6.8l-3.21-8.35a8.35,8.35,0,0,0,3.22-2.38,6.88,6.88,0,0,0,.82-1.33H90.25Z"></path><path class="cls-2" d="M96.88,54h3.68a2.38,2.38,0,0,1,2,.66,1.77,1.77,0,0,1,.36.8H109a6.75,6.75,0,0,0-.22-2.57,4.56,4.56,0,0,0-1.42-2.2,6.25,6.25,0,0,0-2.53-1.24,14,14,0,0,0-3.44-.39H91.63l-.9,6.4h6Z"></path><path class="cls-2" d="M82.74,59H69.47L63.4,71h6.51l1.73-3.81h6.57L78.86,71h6.57Zm-5.32,2.92.38,3.29-2.37-2-3.13,2L74,62l-2.42-1.94,3.29,0L75.34,59H77l.18,1,3.3,0Z"></path><polygon class="cls-2" points="76.58 56.41 75.34 58.99 77 58.99 76.58 56.41"></polygon><path class="cls-1" d="M11.16,60.63a3.54,3.54,0,0,0,1.05-1.94c.15-.8-.12-1.44-.86-1.57s-1.17.62-1.58,1.46-1,1.78-2.24,1.56A1.94,1.94,0,0,1,6,57.61a4,4,0,0,1,.85-1.87l.94.17a3.75,3.75,0,0,0-1,1.86c-.13.76.11,1.35.8,1.48.85.15,1.13-.62,1.51-1.41s1-1.84,2.32-1.61A2,2,0,0,1,13,58.85a4.23,4.23,0,0,1-.89,1.95Z"></path><path class="cls-1" d="M8.18,52.18l-.63,2.23-.79-.22,1.49-5.33.79.22-.62,2.23L14.28,53l-.24.87Z"></path><path class="cls-1" d="M9.23,46.22l.31-.81L17,45.23l-.35.91-2.08,0-1.11,2.9L15,50.5l-.33.86Zm3.62,2.28.89-2.32H12.2c-.59,0-1.23,0-1.83,0v0q.68.6,1.38,1.26Z"></path><path class="cls-1" d="M11.25,41.39l.86-1.66a3.94,3.94,0,0,1,1.2-1.56,1.76,1.76,0,0,1,1.87-.1,1.85,1.85,0,0,1,1,1.54,2.11,2.11,0,0,1-.11.83l3.72-.55-.51,1-3.6.5-.54,1,2.63,1.36-.42.81Zm3.8-.37a2.18,2.18,0,0,0,.35-1.35,1,1,0,0,0-.57-.76,1.09,1.09,0,0,0-1.14.05,3,3,0,0,0-.88,1.2l-.42.8,2.12,1.1Z"></path><path class="cls-1" d="M15.92,33.22l.52-.74,5,3.54,1.9-2.65.67.47-2.43,3.4Z"></path><path class="cls-1" d="M19.37,28.57l2.61-3,.62.53-2,2.34,1.58,1.37,1.77-2,.6.51-1.77,2,1.8,1.55,2.07-2.39.62.53L24.6,33.08Z"></path><path class="cls-1" d="M22.75,24.67l.7-.67,3.73,1.81c.58.27,1.15.55,1.76.86h0c-.27-.62-.52-1.22-.78-1.83L26.6,21l.68-.64,2.82,6.84-.67.64Z"></path><path class="cls-1" d="M28.44,19.48,31.59,17l.51.65-2.44,1.88,1.28,1.67,2.14-1.66.48.63-2.14,1.65,1.45,1.88,2.51-1.93.5.65L32.66,25Z"></path><path class="cls-1" d="M33.12,16l.77-.49,3.26,5.14L39.9,18.9l.44.69-3.52,2.23Z"></path><path class="cls-1" d="M43.29,10.32a3.48,3.48,0,0,1,4.64,1.86,3.51,3.51,0,1,1-4.64-1.86Zm2.5,5.75a2.6,2.6,0,0,0,1.31-3.52,2.61,2.61,0,1,0-4.78,2.07A2.61,2.61,0,0,0,45.79,16.07Z"></path><path class="cls-1" d="M50.33,15,48.44,8.37l.83-.23L53.1,11q.8.6,1.59,1.23l0,0c-.18-.57-.38-1.24-.56-1.89L53.2,7,54,6.78l1.89,6.65-.82.24-3.84-2.91c-.52-.39-1.06-.81-1.58-1.22h0l.56,1.89,1,3.34Z"></path><path class="cls-1" d="M56.24,6.35l3.93-.66.14.81-3,.51.34,2.07,2.67-.44.13.78-2.66.44.39,2.35,3.12-.52.14.8-4,.68Z"></path><path class="cls-1" d="M62.17,8.24a.62.62,0,1,1,.68.56A.62.62,0,0,1,62.17,8.24Zm.9,3a.62.62,0,0,1,.68.56.62.62,0,0,1-1.24.12A.62.62,0,0,1,63.07,11.21Z"></path><path class="cls-1" d="M67.49,10.63a3.67,3.67,0,0,0,2.08.74c.82,0,1.4-.35,1.42-1.11s-.8-1-1.7-1.32-1.91-.71-1.89-2,.92-1.91,2.27-1.89a3.9,3.9,0,0,1,2,.55v1a3.7,3.7,0,0,0-2-.67c-.77,0-1.32.31-1.33,1,0,.86.79,1,1.62,1.27,1,.3,2,.71,2,2s-.95,2-2.34,2a4.43,4.43,0,0,1-2.07-.58Z"></path><path class="cls-1" d="M73.71,5.35l4,.43-.09.82-3.07-.34-.23,2.09,2.69.3-.09.78-2.68-.29L74,11.5l3.15.35-.09.81L73,12.22Z"></path><path class="cls-1" d="M79.51,6.08l.89.18-1.22,6,3.2.65-.16.81-4.09-.84Z"></path><path class="cls-1" d="M85.17,7.33l3.91,1.18-.23.79-3-.92-.64,2.14,2.68.81-.23.75-2.68-.8L84,14.21,83.17,14Z"></path><path class="cls-1" d="M89.37,11.91l2.12.83-.28.71-2.12-.82Z"></path><path class="cls-1" d="M95.88,11.32l.78.38-.44,7.46-.88-.42.15-2.07-2.8-1.36L91.14,16.7l-.83-.4Zm-2.56,3.41,2.23,1.09.12-1.54c0-.59.09-1.23.15-1.82h0l-1.36,1.27Z"></path><path class="cls-1" d="M97.43,18.28A3.75,3.75,0,0,0,98.83,20c.7.43,1.39.42,1.79-.22s-.14-1.31-.77-2-1.27-1.59-.6-2.66a1.93,1.93,0,0,1,2.91-.45,3.85,3.85,0,0,1,1.41,1.48l-.5.81a3.69,3.69,0,0,0-1.36-1.6c-.66-.41-1.3-.41-1.67.19s.15,1.27.73,1.92,1.34,1.64.64,2.75a2,2,0,0,1-3,.48,4.19,4.19,0,0,1-1.48-1.56Z"></path><path class="cls-1" d="M102,21.21A3.62,3.62,0,0,0,103.26,23c.65.5,1.34.55,1.8-.05s0-1.31-.58-2.07-1.12-1.7-.35-2.7a1.94,1.94,0,0,1,2.94-.18,3.93,3.93,0,0,1,1.26,1.62l-.57.75a3.74,3.74,0,0,0-1.21-1.72c-.61-.47-1.25-.53-1.68,0s0,1.28.56,2,1.17,1.75.37,2.8a2,2,0,0,1-3,.19A4.27,4.27,0,0,1,101.42,22Z"></path><path class="cls-1" d="M110.16,20.66l2.93,2.69-.55.61-2.27-2.09-1.42,1.55,2,1.82-.54.59-2-1.83-1.61,1.75L109,27.89l-.56.6-3-2.75Z"></path><path class="cls-1" d="M110.21,28.21a3.65,3.65,0,0,0,.87,2c.55.61,1.22.79,1.78.28s.23-1.29-.19-2.14-.78-1.88.15-2.72a2,2,0,0,1,2.93.36,3.85,3.85,0,0,1,1,1.82l-.71.64a3.65,3.65,0,0,0-.87-1.91c-.52-.58-1.13-.76-1.65-.28s-.21,1.26.18,2c.46.94.82,1.94-.15,2.83a2,2,0,0,1-3-.37,4.43,4.43,0,0,1-1-1.91Z"></path><path class="cls-1" d="M113.81,32.29a3.64,3.64,0,0,0,.68,2.09c.49.66,1.14.9,1.74.45s.35-1.27,0-2.15-.61-1.94.4-2.69a1.93,1.93,0,0,1,2.88.63,3.93,3.93,0,0,1,.78,1.9l-.77.57a3.69,3.69,0,0,0-.68-2c-.47-.62-1.06-.85-1.63-.43s-.32,1.24,0,2.06c.37,1,.64,2-.41,2.79a2,2,0,0,1-3-.65,4.12,4.12,0,0,1-.8-2Z"></path><path class="cls-1" d="M120.33,37.06c.23-.5.47-1,.72-1.49h0c-.35.22-.8.49-1.29.77l-3.37,2-.44-.76,6-3.46.43.76-1.81,3.88,4.27.37.43.75-6,3.46-.46-.79,3.38-1.94c.48-.29.94-.54,1.3-.74v0c-.55,0-1.1-.07-1.64-.12l-2.63-.23Z"></path><path class="cls-1" d="M126.18,41.89l1.58,3.67-.76.32-1.22-2.83-1.93.83,1.07,2.48-.73.31-1.06-2.48-2.19.94L122.19,48l-.75.33-1.61-3.75Z"></path><path class="cls-1" d="M121.85,49.38l6.6-2,.25.82-2.82,3.88c-.39.54-.79,1.08-1.2,1.61l0,0c.57-.18,1.23-.4,1.87-.59l3.32-1,.26.84-6.61,2-.25-.82,2.83-3.88c.38-.54.79-1.08,1.19-1.61v0c-.57.19-1.24.4-1.87.59l-3.33,1Z"></path><path class="cls-1" d="M130.13,57l-.41-2.28.81-.14,1,5.45-.8.15-.42-2.28-6,1.08-.16-.9Z"></path><path class="cls-1" d="M6.73,79a3.62,3.62,0,0,0-.28,2.19c.16.81.64,1.3,1.38,1.15s.86-1,.93-1.94.29-2,1.52-2.26,2.07.49,2.33,1.81a3.82,3.82,0,0,1-.11,2l-.93.19a3.8,3.8,0,0,0,.23-2.09c-.16-.76-.59-1.22-1.28-1.08s-.83,1-.89,1.85c-.09,1-.28,2.09-1.57,2.35a2,2,0,0,1-2.42-1.86,4.14,4.14,0,0,1,.12-2.15Z"></path><path class="cls-1" d="M13.22,83.21,14.36,87l-.78.24-.88-3-2,.6.78,2.59-.76.23-.77-2.59-2.28.68.91,3-.79.23-1.16-3.9Z"></path><path class="cls-1" d="M16,91a4.15,4.15,0,0,1,.29,2l-.92.38a3.35,3.35,0,0,0-.15-2.06,2.63,2.63,0,0,0-3.54-1.44,2.64,2.64,0,0,0-1.46,3.58A3.09,3.09,0,0,0,11.65,95l-.93.39a3.92,3.92,0,0,1-1.26-1.68A3.47,3.47,0,0,1,11.35,89,3.49,3.49,0,0,1,16,91Z"></path><path class="cls-1" d="M13.92,95.55l3.19-1.77.44.79-3.11,1.72A3.8,3.8,0,0,0,13,97.39a1.68,1.68,0,0,0,.06,1.83,1.67,1.67,0,0,0,1.51,1,3.66,3.66,0,0,0,1.65-.62l3.15-1.73.42.77-3.1,1.71a4.26,4.26,0,0,1-2.31.75,2.7,2.7,0,0,1-2.07-1.52,2.65,2.65,0,0,1-.18-2.55A4.17,4.17,0,0,1,13.92,95.55Z"></path><path class="cls-1" d="M20.5,99.7l1.08,1.53a3.83,3.83,0,0,1,.83,1.77,1.74,1.74,0,0,1-.76,1.71,1.83,1.83,0,0,1-1.84.21,2,2,0,0,1-.69-.48L17.91,108l-.64-.89,1.2-3.43-.67-1-2.42,1.71-.52-.74Zm-1.42,3.55a2.14,2.14,0,0,0,1,.92,1,1,0,0,0,.94-.16,1.07,1.07,0,0,0,.48-1,3,3,0,0,0-.67-1.34l-.52-.74-2,1.38Z"></path><path class="cls-1" d="M24.08,104.57l.58.7-5.34,4.38-.57-.7Z"></path><path class="cls-1" d="M26.17,108.22l-1.6-1.69.6-.56L29,110l-.59.57-1.6-1.69-4.42,4.19-.62-.66Z"></path><path class="cls-1" d="M28.65,114.72l.43-4.61.8.69-.2,2c-.06.52-.11,1-.18,1.58h0l1.54-.42,2-.52.77.66-4.46,1.15-2,2.38-.69-.59Z"></path><path class="cls-1" d="M36.83,117.19l-1.95-1.26.45-.69,4.66,3-.44.69-1.95-1.26-3.31,5.12-.76-.49Z"></path><path class="cls-1" d="M40.67,118.61l1.67.85a3.81,3.81,0,0,1,1.56,1.18A1.72,1.72,0,0,1,44,122.5a1.8,1.8,0,0,1-1.52,1,2.18,2.18,0,0,1-.84-.1l.6,3.72-1-.5-.54-3.6-1.05-.53-1.34,2.64-.81-.41Zm.4,3.8a2.09,2.09,0,0,0,1.35.33,1,1,0,0,0,.76-.58,1.07,1.07,0,0,0-.06-1.13,3,3,0,0,0-1.22-.87l-.79-.41L40,121.88Z"></path><path class="cls-1" d="M44.64,124.66l1.28-3.43.85.32-1.24,3.34a3.94,3.94,0,0,0-.38,1.76A1.69,1.69,0,0,0,46.4,128a1.66,1.66,0,0,0,1.81-.21,3.69,3.69,0,0,0,.85-1.54l1.26-3.37.83.3-1.25,3.33a4.21,4.21,0,0,1-1.26,2.07A3,3,0,0,1,44.27,127,4.23,4.23,0,0,1,44.64,124.66Z"></path><path class="cls-1" d="M50.81,128.78A3.53,3.53,0,0,0,52.65,130c.8.21,1.45,0,1.64-.74S53.77,128,53,127.57s-1.69-1.14-1.37-2.36a1.93,1.93,0,0,1,2.64-1.3,3.75,3.75,0,0,1,1.79,1l-.24.92A3.57,3.57,0,0,0,54,124.71c-.75-.2-1.36,0-1.54.67-.22.83.52,1.17,1.28,1.61s1.75,1.17,1.42,2.44a2,2,0,0,1-2.73,1.36,4.29,4.29,0,0,1-1.88-1Z"></path><path class="cls-1" d="M59,125.85l-2.29-.36.13-.81,5.48.87-.13.81L59.87,126l-1,6-.89-.14Z"></path><path class="cls-1" d="M67.44,125.82h.87l2.74,7h-1l-.74-1.94-3.11-.05-.81,1.91h-.93ZM66.56,130,69,130l-.54-1.44c-.22-.55-.43-1.15-.64-1.72h0c-.22.56-.46,1.14-.71,1.73Z"></path><path class="cls-1" d="M72.09,131.24a3.53,3.53,0,0,0,2.14.52c.82-.07,1.37-.49,1.3-1.24s-.9-1-1.83-1.14-2-.51-2.08-1.76.72-2,2.06-2.12a3.9,3.9,0,0,1,2,.34l.08,1a3.7,3.7,0,0,0-2-.46c-.77.07-1.28.45-1.22,1.15.08.86.89.93,1.75,1.09,1,.2,2,.51,2.16,1.82s-.75,2.08-2.13,2.2a4.26,4.26,0,0,1-2.12-.36Z"></path><path class="cls-1" d="M77.76,130.68a3.62,3.62,0,0,0,2.18.32c.81-.15,1.32-.61,1.18-1.36s-1-.88-1.92-1-2-.32-2.23-1.56.53-2,1.86-2.29a3.83,3.83,0,0,1,2,.15l.17.94a3.63,3.63,0,0,0-2.08-.27c-.77.13-1.24.56-1.12,1.25.16.85,1,.85,1.84.93,1,.1,2.08.32,2.32,1.62s-.56,2.13-1.92,2.38a4.23,4.23,0,0,1-2.14-.17Z"></path><path class="cls-1" d="M83,127.84l-1-3.51.87-.25,1,3.41a4,4,0,0,0,.76,1.64,1.72,1.72,0,0,0,1.81.34,1.67,1.67,0,0,0,1.32-1.25,3.73,3.73,0,0,0-.24-1.75l-1-3.45.84-.25,1,3.41a4.28,4.28,0,0,1,.23,2.41,3.06,3.06,0,0,1-4.47,1.31A4.2,4.2,0,0,1,83,127.84Z"></path><path class="cls-1" d="M88.5,122.32l1.73-.72a3.9,3.9,0,0,1,1.91-.42,1.74,1.74,0,0,1,1.5,1.12,1.83,1.83,0,0,1-.19,1.84,2.41,2.41,0,0,1-.62.57l3.21,2-1,.42-3.09-1.91-1.08.45L92,128.35l-.84.35Zm3.16,2.16a2.18,2.18,0,0,0,1.13-.81,1,1,0,0,0,0-1,1,1,0,0,0-.89-.69,3.09,3.09,0,0,0-1.46.36l-.83.34.92,2.2Z"></path><path class="cls-1" d="M95.85,119l.76-.42,5.84,4.66-.86.47-1.6-1.31-2.72,1.5.24,2.07-.81.44ZM97.16,123l2.17-1.2-1.18-1c-.46-.38-1-.79-1.4-1.18h0c.09.6.17,1.22.24,1.85Z"></path><path class="cls-1" d="M103.62,122.42l-4-5.61.7-.5,4.58,1.43c.64.19,1.28.4,1.91.61v0c-.35-.48-.77-1-1.16-1.59l-2-2.82.72-.51,4,5.61-.7.5-4.59-1.42c-.63-.2-1.27-.4-1.91-.62v0c.36.48.78,1,1.17,1.59l2,2.82Z"></path><path class="cls-1" d="M107.64,110.32a4,4,0,0,1,1.76-.95l.67.73a3.34,3.34,0,0,0-1.87.84,2.72,2.72,0,1,0,3.71,4,3,3,0,0,0,1-1.85l.68.74a3.88,3.88,0,0,1-1.15,1.76,3.55,3.55,0,1,1-4.8-5.24Z"></path><path class="cls-1" d="M109.92,108.24l2.67-3,.61.55-2.06,2.29,1.56,1.4,1.8-2,.59.53-1.8,2,1.77,1.59,2.11-2.35.61.54-2.72,3Z"></path><path class="cls-1" d="M120,99.76l1.65,2.1,2.18-.42v0l-.6.9-1.14.22a2.37,2.37,0,0,1-.38,2.22,2,2,0,0,1-3.71-1.15l0-.26-.3,0a2,2,0,0,1-1.58-.22,1.77,1.77,0,0,1,2-2.92,1.83,1.83,0,0,1,.74,1.63v.47l1.89-.36-1.24-1.55Zm-2.34,2.87.42-.08V102a1.13,1.13,0,0,0-.44-1,.84.84,0,0,0-1.21.29.83.83,0,0,0,.2,1.2A1.29,1.29,0,0,0,117.62,102.63Zm3.57.13-2.43.47,0,.42a1.21,1.21,0,0,0,2.32.69A1.47,1.47,0,0,0,121.19,102.76Z"></path><path class="cls-1" d="M119.35,95.18l.8-1.69a3.83,3.83,0,0,1,1.14-1.59,1.74,1.74,0,0,1,1.86-.17,1.83,1.83,0,0,1,1.09,1.49,2.17,2.17,0,0,1-.08.84l3.7-.69-.47,1-3.58.63-.5,1.07L126,97.32l-.39.82Zm3.79-.5a2.19,2.19,0,0,0,.29-1.36,1,1,0,0,0-.6-.74,1.05,1.05,0,0,0-1.13.09,3.06,3.06,0,0,0-.84,1.24l-.38.81,2.15,1Z"></path><path class="cls-1" d="M121.83,89.68l.32-.85,6.44,2.5-.32.85Z"></path><path class="cls-1" d="M127.85,89.29a3.65,3.65,0,0,0,1.3-1.78c.24-.78.06-1.45-.66-1.68s-1.24.47-1.75,1.26-1.22,1.63-2.42,1.25a1.94,1.94,0,0,1-1.18-2.7,3.86,3.86,0,0,1,1.08-1.74l.92.28a3.62,3.62,0,0,0-1.21,1.73c-.23.73-.07,1.35.6,1.56s1.2-.47,1.67-1.2,1.25-1.7,2.51-1.3a2,2,0,0,1,1.22,2.79,4.24,4.24,0,0,1-1.13,1.83Z"></path><path class="cls-1" d="M124.17,82.53l.19-.89,3.06.64h0L125,78.67l.23-1.1,2.5,3.69L132,78.72l-.24,1.16-4.15,2.43v0l3.49.73-.19.88Z"></path><path class="cls-2" d="M26.34,76.14h1.49v10h5.38v1.35H26.34Z"></path><path class="cls-2" d="M35.1,76.14h6.58v1.35H36.59V81h4.46v1.3H36.59v3.92h5.23v1.35H35.1Z"></path><path class="cls-2" d="M42.73,76.14h1.6l2.43,6.39c.37,1,.74,2,1.11,3h0c.38-1,.76-2,1.15-3.07l2.44-6.34H53L48.64,87.53H47.12Z"></path><path class="cls-2" d="M54.53,76.14H61.1v1.35H56V81h4.45v1.3H56v3.92h5.23v1.35H54.53Z"></path><path class="cls-2" d="M63.35,76.14h1.5v10h5.38v1.35H63.35Z"></path><path class="cls-2" d="M81.22,76a5.87,5.87,0,1,1-5.79,5.87A5.72,5.72,0,0,1,81.22,76Zm0,10.35a4.49,4.49,0,1,0-4.29-4.48A4.3,4.3,0,0,0,81.22,86.32Z"></path><path class="cls-2" d="M89.07,87.53V76.14h1.42l4.77,6.33c.66.86,1.32,1.76,2,2.66l0,0c0-1,0-2.14,0-3.24V76.14h1.45V87.53H97.25l-4.76-6.32c-.66-.87-1.32-1.76-2-2.66l0,0c0,1,0,2.14,0,3.24v5.72Z"></path><path class="cls-2" d="M101.38,76.14H108v1.35h-5.08V81h4.45v1.3h-4.45v3.92h5.22v1.35h-6.71Z"></path></g></g></svg>