<svg width="183" height="44" viewBox="0 0 183 44" fill="none" xmlns="http://www.w3.org/2000/svg">
<path d="M14.9899 16.699V27H13.7456C13.5618 27 13.4062 26.9717 13.279 26.9152C13.1564 26.8539 13.0339 26.7502 12.9113 26.6041L8.05424 20.4602C8.07309 20.6441 8.08488 20.8232 8.08959 20.9976C8.09902 21.1672 8.10373 21.3275 8.10373 21.4783V27H5.99687V16.699H7.25533C7.35902 16.699 7.44622 16.7037 7.51692 16.7131C7.58762 16.7226 7.65125 16.7414 7.70781 16.7697C7.76437 16.7933 7.81857 16.8286 7.87042 16.8758C7.92227 16.9229 7.98118 16.9865 8.04717 17.0666L12.9467 23.2529C12.9231 23.0549 12.9066 22.864 12.8972 22.6802C12.8878 22.4917 12.8831 22.3149 12.8831 22.15V16.699H14.9899ZM21.5133 27H19.1095V16.699H21.5133V27ZM32.5644 24.3346C32.6209 24.3346 32.6775 24.3464 32.7341 24.37C32.7906 24.3888 32.8448 24.4242 32.8967 24.476L33.8441 25.4729C33.4293 26.0149 32.9085 26.425 32.2816 26.7031C31.6594 26.9764 30.9218 27.1131 30.0687 27.1131C29.2863 27.1131 28.584 26.9811 27.9618 26.7172C27.3444 26.4485 26.8188 26.0809 26.3852 25.6143C25.9563 25.1429 25.6264 24.5868 25.3954 23.9458C25.1645 23.3 25.049 22.6001 25.049 21.846C25.049 21.0777 25.1739 20.3731 25.4237 19.732C25.6735 19.0863 26.0246 18.5301 26.4771 18.0635C26.9296 17.5969 27.4716 17.234 28.1032 16.9747C28.7348 16.7155 29.43 16.5859 30.1889 16.5859C30.5754 16.5859 30.9383 16.6212 31.2776 16.6919C31.6217 16.7579 31.9422 16.8522 32.2392 16.9747C32.5361 17.0926 32.8095 17.2363 33.0593 17.406C33.3091 17.5757 33.5306 17.7595 33.7239 17.9575L32.9179 19.0392C32.866 19.1052 32.8048 19.1664 32.7341 19.223C32.6634 19.2748 32.5644 19.3008 32.4371 19.3008C32.3523 19.3008 32.2722 19.2819 32.1967 19.2442C32.1213 19.2065 32.0412 19.1617 31.9564 19.1099C31.8715 19.0533 31.7773 18.9944 31.6736 18.9331C31.5746 18.8671 31.4544 18.8082 31.313 18.7564C31.1763 18.6998 31.0137 18.6527 30.8252 18.615C30.6413 18.5773 30.4245 18.5584 30.1747 18.5584C29.7788 18.5584 29.4159 18.6315 29.0859 18.7776C28.7607 18.9237 28.4779 19.1382 28.2375 19.421C28.0019 19.699 27.8181 20.0431 27.6861 20.4532C27.5588 20.8585 27.4952 21.3228 27.4952 21.846C27.4952 22.3739 27.5659 22.8428 27.7073 23.2529C27.8534 23.663 28.049 24.0094 28.2941 24.2922C28.5439 24.5703 28.8338 24.7824 29.1637 24.9285C29.4936 25.0746 29.8471 25.1477 30.2242 25.1477C30.441 25.1477 30.639 25.1382 30.8181 25.1194C30.9972 25.0958 31.1645 25.0605 31.3201 25.0133C31.4756 24.9615 31.6217 24.8955 31.7584 24.8154C31.8951 24.7305 32.0341 24.6245 32.1755 24.4972C32.2321 24.4501 32.2934 24.4124 32.3594 24.3841C32.4253 24.3511 32.4937 24.3346 32.5644 24.3346ZM46.0013 16.699V27H43.5975V22.6449H39.412V27H37.0082V16.699H39.412V21.0046H43.5975V16.699H46.0013ZM60.231 21.846C60.231 22.5907 60.1013 23.2835 59.8421 23.9245C59.5876 24.5656 59.227 25.1241 58.7604 25.6001C58.2938 26.0715 57.7305 26.4415 57.0707 26.7101C56.4155 26.9788 55.6873 27.1131 54.886 27.1131C54.0848 27.1131 53.3542 26.9788 52.6943 26.7101C52.0345 26.4415 51.4689 26.0715 50.9975 25.6001C50.5309 25.1241 50.168 24.5656 49.9088 23.9245C49.6542 23.2835 49.527 22.5907 49.527 21.846C49.527 21.1013 49.6542 20.4084 49.9088 19.7674C50.168 19.1264 50.5309 18.5702 50.9975 18.0989C51.4689 17.6275 52.0345 17.2575 52.6943 16.9889C53.3542 16.7202 54.0848 16.5859 54.886 16.5859C55.6873 16.5859 56.4155 16.7226 57.0707 16.9959C57.7305 17.2646 58.2938 17.6346 58.7604 18.1059C59.227 18.5773 59.5876 19.1334 59.8421 19.7745C60.1013 20.4155 60.231 21.106 60.231 21.846ZM57.7847 21.846C57.7847 21.3369 57.7187 20.8797 57.5868 20.4744C57.4548 20.0643 57.2639 19.7179 57.0141 19.4351C56.769 19.1523 56.4674 18.9355 56.1091 18.7847C55.7509 18.6338 55.3432 18.5584 54.886 18.5584C54.4241 18.5584 54.0117 18.6338 53.6488 18.7847C53.2906 18.9355 52.9866 19.1523 52.7368 19.4351C52.4917 19.7179 52.3031 20.0643 52.1712 20.4744C52.0392 20.8797 51.9732 21.3369 51.9732 21.846C51.9732 22.3597 52.0392 22.8216 52.1712 23.2317C52.3031 23.637 52.4917 23.9811 52.7368 24.2639C52.9866 24.5467 53.2906 24.7635 53.6488 24.9143C54.0117 25.0605 54.4241 25.1335 54.886 25.1335C55.3432 25.1335 55.7509 25.0605 56.1091 24.9143C56.4674 24.7635 56.769 24.5467 57.0141 24.2639C57.2639 23.9811 57.4548 23.637 57.5868 23.2317C57.7187 22.8216 57.7847 22.3597 57.7847 21.846ZM69.9657 25.0911V27H63.7582V16.699H66.1479V25.0911H69.9657ZM78.7521 23.062L77.7977 20.2411C77.727 20.062 77.6516 19.8522 77.5715 19.6118C77.4913 19.3668 77.4112 19.1028 77.3311 18.82C77.2604 19.1075 77.185 19.3738 77.1048 19.6189C77.0247 19.864 76.9493 20.0761 76.8786 20.2552L75.9312 23.062H78.7521ZM82.5487 27H80.6964C80.489 27 80.3217 26.9529 80.1944 26.8586C80.0672 26.7596 79.9705 26.6347 79.9046 26.4839L79.2965 24.6881H75.3798L74.7717 26.4839C74.7199 26.6159 74.6256 26.7361 74.4889 26.8445C74.357 26.9482 74.192 27 73.994 27H72.1276L76.115 16.699H78.5613L82.5487 27ZM91.1733 18.7917C91.1026 18.9048 91.0271 18.9897 90.947 19.0462C90.8716 19.1028 90.7726 19.1311 90.6501 19.1311C90.5417 19.1311 90.4238 19.0981 90.2966 19.0321C90.174 18.9614 90.0326 18.8836 89.8724 18.7988C89.7168 18.714 89.5377 18.6385 89.3351 18.5726C89.1324 18.5019 88.9014 18.4665 88.6422 18.4665C88.1944 18.4665 87.8598 18.5631 87.6383 18.7564C87.4214 18.9449 87.313 19.2018 87.313 19.527C87.313 19.7344 87.379 19.9064 87.511 20.0431C87.643 20.1798 87.815 20.2976 88.0271 20.3966C88.2439 20.4956 88.489 20.5875 88.7624 20.6723C89.0405 20.7525 89.3233 20.8444 89.6108 20.9481C89.8983 21.0471 90.1787 21.1649 90.4521 21.3016C90.7302 21.4383 90.9753 21.6127 91.1874 21.8248C91.4042 22.0369 91.5786 22.2961 91.7106 22.6025C91.8425 22.9041 91.9085 23.2694 91.9085 23.6983C91.9085 24.1744 91.826 24.6198 91.6611 25.0345C91.4961 25.4493 91.2557 25.8122 90.9399 26.1233C90.6289 26.4297 90.2424 26.6724 89.7805 26.8515C89.3233 27.0259 88.8024 27.1131 88.218 27.1131C87.8975 27.1131 87.5699 27.0801 87.2353 27.0141C86.9053 26.9482 86.5848 26.8562 86.2737 26.7384C85.9627 26.6159 85.6704 26.4721 85.3971 26.3071C85.1237 26.1422 84.8857 25.9584 84.683 25.7557L85.39 24.6386C85.4466 24.5585 85.5196 24.4925 85.6092 24.4407C85.7034 24.3841 85.8048 24.3558 85.9132 24.3558C86.0546 24.3558 86.196 24.4006 86.3374 24.4901C86.4835 24.5797 86.6461 24.6787 86.8252 24.7871C87.009 24.8955 87.2188 24.9945 87.4544 25.084C87.6901 25.1736 87.9682 25.2184 88.2887 25.2184C88.7223 25.2184 89.0593 25.1241 89.2997 24.9356C89.5401 24.7423 89.6603 24.4383 89.6603 24.0235C89.6603 23.7831 89.5943 23.5875 89.4623 23.4367C89.3303 23.2859 89.1559 23.161 88.9391 23.062C88.727 22.963 88.4843 22.8758 88.2109 22.8004C87.9375 22.725 87.6571 22.6425 87.3696 22.553C87.0821 22.4587 86.8016 22.3456 86.5283 22.2136C86.2549 22.0769 86.0098 21.9002 85.793 21.6834C85.5809 21.4618 85.4088 21.1885 85.2769 20.8632C85.1449 20.5333 85.0789 20.128 85.0789 19.6472C85.0789 19.2607 85.1567 18.8836 85.3122 18.516C85.4678 18.1484 85.6964 17.8208 85.998 17.5333C86.2997 17.2458 86.6697 17.0172 87.108 16.8475C87.5463 16.6731 88.0483 16.5859 88.6139 16.5859C88.9297 16.5859 89.2361 16.6118 89.533 16.6637C89.8347 16.7108 90.1198 16.7838 90.3885 16.8828C90.6571 16.9771 90.9069 17.0926 91.1379 17.2293C91.3736 17.3612 91.5833 17.5121 91.7671 17.6817L91.1733 18.7917ZM104.177 21.542C104.502 21.542 104.778 21.5019 105.004 21.4218C105.235 21.3369 105.424 21.2215 105.57 21.0753C105.716 20.9292 105.822 20.7595 105.888 20.5663C105.954 20.3683 105.987 20.1562 105.987 19.93C105.987 19.4775 105.839 19.124 105.542 18.8695C105.249 18.615 104.795 18.4877 104.177 18.4877H103.216V21.542H104.177ZM109.253 27H107.09C106.689 27 106.402 26.8492 106.227 26.5475L104.517 23.5569C104.436 23.4296 104.347 23.3377 104.248 23.2812C104.149 23.2199 104.008 23.1893 103.824 23.1893H103.216V27H100.826V16.699H104.177C104.922 16.699 105.556 16.7768 106.079 16.9323C106.607 17.0831 107.036 17.2952 107.366 17.5686C107.7 17.842 107.943 18.1649 108.094 18.5372C108.245 18.9096 108.32 19.3149 108.32 19.7532C108.32 20.0879 108.275 20.4037 108.186 20.7006C108.096 20.9976 107.964 21.2733 107.79 21.5278C107.616 21.7776 107.399 22.0015 107.14 22.1995C106.885 22.3974 106.59 22.56 106.256 22.6873C106.411 22.7674 106.557 22.8688 106.694 22.9913C106.831 23.1091 106.953 23.2505 107.062 23.4155L109.253 27ZM114.644 18.5372V20.941H117.882V22.7085H114.644V25.1618H118.872V27H112.24V16.699H118.872V18.5372H114.644ZM131.46 16.699V27H130.216C130.032 27 129.876 26.9717 129.749 26.9152C129.626 26.8539 129.504 26.7502 129.381 26.6041L124.524 20.4602C124.543 20.6441 124.555 20.8232 124.56 20.9976C124.569 21.1672 124.574 21.3275 124.574 21.4783V27H122.467V16.699H123.725C123.829 16.699 123.916 16.7037 123.987 16.7131C124.058 16.7226 124.121 16.7414 124.178 16.7697C124.234 16.7933 124.289 16.8286 124.34 16.8758C124.392 16.9229 124.451 16.9865 124.517 17.0666L129.417 23.2529C129.393 23.0549 129.377 22.864 129.367 22.6802C129.358 22.4917 129.353 22.3149 129.353 22.15V16.699H131.46ZM145.69 21.846C145.69 22.5907 145.56 23.2835 145.301 23.9245C145.046 24.5656 144.686 25.1241 144.219 25.6001C143.752 26.0715 143.189 26.4415 142.529 26.7101C141.874 26.9788 141.146 27.1131 140.345 27.1131C139.543 27.1131 138.813 26.9788 138.153 26.7101C137.493 26.4415 136.927 26.0715 136.456 25.6001C135.99 25.1241 135.627 24.5656 135.367 23.9245C135.113 23.2835 134.986 22.5907 134.986 21.846C134.986 21.1013 135.113 20.4084 135.367 19.7674C135.627 19.1264 135.99 18.5702 136.456 18.0989C136.927 17.6275 137.493 17.2575 138.153 16.9889C138.813 16.7202 139.543 16.5859 140.345 16.5859C141.146 16.5859 141.874 16.7226 142.529 16.9959C143.189 17.2646 143.752 17.6346 144.219 18.1059C144.686 18.5773 145.046 19.1334 145.301 19.7745C145.56 20.4155 145.69 21.106 145.69 21.846ZM143.243 21.846C143.243 21.3369 143.177 20.8797 143.045 20.4744C142.913 20.0643 142.723 19.7179 142.473 19.4351C142.228 19.1523 141.926 18.9355 141.568 18.7847C141.21 18.6338 140.802 18.5584 140.345 18.5584C139.883 18.5584 139.47 18.6338 139.107 18.7847C138.749 18.9355 138.445 19.1523 138.195 19.4351C137.95 19.7179 137.762 20.0643 137.63 20.4744C137.498 20.8797 137.432 21.3369 137.432 21.846C137.432 22.3597 137.498 22.8216 137.63 23.2317C137.762 23.637 137.95 23.9811 138.195 24.2639C138.445 24.5467 138.749 24.7635 139.107 24.9143C139.47 25.0605 139.883 25.1335 140.345 25.1335C140.802 25.1335 141.21 25.0605 141.568 24.9143C141.926 24.7635 142.228 24.5467 142.473 24.2639C142.723 23.9811 142.913 23.637 143.045 23.2317C143.177 22.8216 143.243 22.3597 143.243 21.846ZM156.371 18.5938H153.472V27H151.082V18.5938H148.184V16.699H156.371V18.5938ZM167.108 18.5938H164.209V27H161.82V18.5938H158.921V16.699H167.108V18.5938ZM172.847 18.5372V20.941H176.085V22.7085H172.847V25.1618H177.075V27H170.443V16.699H177.075V18.5372H172.847Z" fill="#003399"/>
</svg>
