<svg width="70" height="66" viewBox="0 0 70 66" fill="none" xmlns="http://www.w3.org/2000/svg">
<g clip-path="url(#clip0_42539_144137)">
<path d="M46.16 2H4V44.3667L23.6333 64H66V21.84L46.16 2Z" fill="white"/>
<path d="M45.6433 3.29511L64.7118 22.3636V62.7118H24.15L5.29511 43.85V3.29511H45.6433ZM46.16 2H4V44.3667L23.6333 64H66V21.84L46.16 2Z" fill="#FF9900"/>
<path d="M14.0716 36.9268V39.2001H12.7765V33.0001H15.1532C15.718 32.9519 16.2347 33.1585 16.7032 33.5168C17.4747 34.3434 17.4747 35.5834 16.7032 36.4101C16.2898 36.7752 15.718 36.975 15.1532 36.9268H14.0716ZM14.0716 35.9417H15.0016C15.2634 35.9417 15.5183 35.8934 15.6698 35.6799C15.9798 35.2665 15.9798 34.6465 15.6698 34.2332C15.4632 34.0748 15.2565 33.9714 15.0016 33.9714H14.0716V35.9348V35.9417ZM22.6965 39.2001L22.2832 37.8085H20.1683L19.7549 39.2001H18.3634L20.5334 33.0001H22.0352L24.15 39.2001H22.7034H22.6965ZM20.4232 36.8234H21.9732L21.2016 34.2401L20.43 36.8234H20.4232ZM26.0032 39.2001V33.0001H28.3798C28.9516 32.9519 29.4683 33.1585 29.9298 33.5168C30.2949 33.875 30.5016 34.3917 30.5016 34.9083C30.5016 35.2734 30.3983 35.5834 30.1916 35.8934C29.9849 36.2034 29.6749 36.4101 29.3649 36.5685L30.9149 39.2552H29.5234L28.18 36.8303H27.2983V39.207H26.0032V39.2001ZM27.2983 35.8383H28.2283C28.6967 35.8865 29.1032 35.5765 29.1583 35.115V34.8532C29.2134 34.3848 28.8965 33.9783 28.49 33.9232H27.3534V35.8314H27.3052L27.2983 35.8383ZM34.0632 39.2001V34.0817H32.1549V33.0001H37.2734V34.0817H35.3583V39.2001H34.0632ZM40.518 34.9083V39.2001H39.3332V33.0001H40.7798L43.3149 37.3401V33.0001H44.5067V39.2001H43.06L40.5249 34.9083H40.518ZM46.8765 39.2001V33.0001H50.9616V34.0334H48.2198V35.4801H50.4449V36.5134H48.2198V38.1668H50.9616V39.2001H46.8765ZM53.3383 39.2001V33.0001H55.7149C56.2798 32.9519 56.7965 33.1585 57.2649 33.5168C57.63 33.875 57.8298 34.3917 57.8298 34.9083C57.8298 35.2734 57.7265 35.5834 57.5198 35.8934C57.3132 36.2034 57.0032 36.4101 56.6932 36.5685L58.2432 39.2552H56.8516L55.5083 36.8303H54.6334V39.207H53.3383V39.2001ZM54.6334 35.8383H55.5634C56.0249 35.8865 56.4383 35.5765 56.4934 35.115V34.8532C56.5416 34.3848 56.2316 33.9783 55.8252 33.9232H54.6334V35.8314V35.8383Z" fill="#242E3D"/>
<path d="M17.7915 16.205C17.7915 16.4117 17.7915 16.6183 17.8949 16.825C17.9431 16.9834 18.0464 17.1901 18.1015 17.3417C18.1498 17.3968 18.1498 17.445 18.1498 17.5001C18.1498 17.6034 18.1015 17.6585 17.9913 17.7068L17.5229 18.0168H17.3713C17.268 18.0168 17.2129 17.9685 17.1646 17.9134C17.0613 17.8101 16.958 17.7068 16.9029 17.6034C16.8546 17.5001 16.7444 17.3417 16.6962 17.1901C16.1795 17.8101 15.4562 18.1752 14.6295 18.1752C14.1129 18.2234 13.5962 18.0168 13.238 17.6585C12.8729 17.2934 12.7213 16.8319 12.7213 16.3152C12.7213 15.7503 12.928 15.2337 13.3413 14.8685C13.8098 14.5034 14.4229 14.3037 15.0498 14.3037C15.3115 14.3037 15.5664 14.3037 15.7731 14.3519L16.5446 14.5034V13.9868C16.5929 13.5734 16.4895 13.1601 16.2346 12.8501C15.9246 12.5883 15.5113 12.4919 15.098 12.5401C14.8362 12.5401 14.5813 12.5883 14.3264 12.6434C14.0715 12.6985 13.8098 12.8019 13.5549 12.9052C13.4515 12.9534 13.3964 12.9534 13.2931 13.0085H13.1898C13.0864 13.0085 13.0313 12.9534 13.0313 12.8019V12.4368C13.0313 12.3334 13.0313 12.2852 13.0795 12.175C13.1278 12.1268 13.1829 12.0717 13.2862 12.0234C13.548 11.865 13.8511 11.7617 14.1611 11.7134C14.5262 11.6101 14.8844 11.555 15.2495 11.555C15.9178 11.5068 16.5446 11.7134 17.0544 12.1199C17.4678 12.5883 17.6744 13.2014 17.6193 13.8283L17.7709 16.205H17.7915ZM14.9533 17.2383C15.2151 17.2383 15.4218 17.1901 15.6766 17.135C15.9384 17.0317 16.1451 16.8732 16.3518 16.6665C16.4551 16.5632 16.5584 16.4048 16.6135 16.1981C16.6686 15.9914 16.6618 15.7848 16.6618 15.5781V15.2681C16.4551 15.2199 16.2484 15.1648 16.0418 15.1648C15.8351 15.1165 15.6284 15.1165 15.3666 15.1165C15.0084 15.0683 14.6433 15.1648 14.3333 15.3783C13.92 15.7917 13.8649 16.4599 14.23 16.9283C14.4366 17.1901 14.6915 17.2865 14.9533 17.2383ZM20.5884 18.0099C20.4851 18.0099 20.3818 18.0099 20.3266 17.9617C20.2784 17.9134 20.2233 17.8032 20.1751 17.6999L18.5218 12.2714C18.4735 12.1681 18.4735 12.0648 18.4735 12.0097C18.4735 11.9063 18.5218 11.8512 18.5769 11.8512H19.3002C19.4035 11.8512 19.5069 11.8512 19.562 11.8994C19.6102 11.9545 19.6653 12.0579 19.7204 12.1612L20.9053 16.763L21.9938 12.1612C21.9938 12.0579 22.042 11.9545 22.1453 11.8994C22.2486 11.8512 22.352 11.8512 22.4071 11.8512H22.972C23.0753 11.8512 23.1786 11.8512 23.2338 11.8994C23.2889 11.9545 23.3371 12.0579 23.3922 12.1612L24.4738 16.8663L25.6655 12.1612C25.6655 12.0579 25.7138 11.9545 25.8171 11.8994C25.9204 11.8512 25.9755 11.8512 26.0789 11.8512H26.754C26.8573 11.8512 26.9124 11.8994 26.9124 11.9545V12.1061C26.9124 12.1543 26.8573 12.2094 26.8573 12.2645L25.204 17.6379C25.204 17.7412 25.1558 17.8445 25.0455 17.8997C24.9973 18.003 24.894 18.003 24.7838 18.003H24.1638C24.0604 18.003 23.9571 18.003 23.902 17.9548C23.8538 17.8514 23.7986 17.7963 23.7435 17.693L22.662 13.1945L21.5804 17.693C21.5804 17.7963 21.5322 17.8997 21.422 17.9548C21.3738 18.003 21.2704 18.003 21.2153 18.003H20.5953L20.5884 18.0099ZM29.5784 18.2165C29.2202 18.2165 28.8551 18.1683 28.4969 18.1132C28.2351 18.065 27.932 17.9617 27.6702 17.8514C27.5118 17.8032 27.4084 17.6448 27.4084 17.4381V17.073C27.4084 16.9214 27.4566 16.8663 27.56 16.8663H27.6633C27.7115 16.8663 27.7666 16.9145 27.8149 16.9145C28.0766 17.0179 28.3315 17.1212 28.5864 17.1763C28.8482 17.2245 29.1513 17.2797 29.4131 17.2797C29.7782 17.2797 30.1364 17.2314 30.4464 17.0179C30.6531 16.8663 30.8115 16.6045 30.8115 16.3497C30.8115 16.143 30.7633 15.9845 30.6049 15.8812C30.3982 15.7228 30.1364 15.5712 29.8815 15.5161L28.8482 15.2061C28.4349 15.1028 28.0215 14.8479 27.7115 14.4828C27.5049 14.1728 27.3464 13.8145 27.3464 13.4494C27.3464 13.1877 27.4015 12.9328 27.5531 12.6779C27.6564 12.4712 27.8631 12.2645 28.0698 12.113C28.2764 11.9614 28.5382 11.803 28.7931 11.7548C29.1031 11.6514 29.358 11.6514 29.668 11.6514C29.8264 11.6514 29.978 11.6514 30.1364 11.7065C30.2949 11.7065 30.4464 11.7548 30.6049 11.8099C30.7633 11.865 30.8666 11.8581 31.0182 11.9132C31.1215 11.9683 31.2249 11.9683 31.3282 12.0165C31.4315 12.0648 31.4798 12.1199 31.5349 12.1681C31.5831 12.2232 31.5831 12.3265 31.5831 12.4299V12.7399C31.5831 12.8914 31.5349 12.9465 31.4246 12.9465C31.3144 12.9465 31.218 12.8983 31.1629 12.8432C30.7495 12.6365 30.288 12.5814 29.8195 12.5814C29.5095 12.5814 29.1995 12.6297 28.8895 12.7881C28.6829 12.8914 28.5313 13.1463 28.5795 13.4081C28.5795 13.6148 28.6278 13.7732 28.7862 13.9248C28.9929 14.1314 29.2546 14.2348 29.5578 14.2899L30.5429 14.5999C30.9562 14.7032 31.3144 14.9581 31.6244 15.2681C31.8311 15.5299 31.9344 15.8881 31.9344 16.2532C31.9344 16.515 31.8862 16.8181 31.7278 17.0799C31.6244 17.3417 31.4178 17.5483 31.2111 17.6999C31.0044 17.8514 30.6944 18.0099 30.4395 18.1132C30.2329 18.1683 29.8746 18.2165 29.5646 18.2165H29.5784Z" fill="#242E3D"/>
<path d="M30.8667 21.5852C28.5383 23.2867 25.2316 24.1685 22.3383 24.1685C18.5149 24.1685 14.7949 22.7701 11.9567 20.1867C11.75 19.9801 11.9567 19.7252 12.2185 19.8767C15.3667 21.7367 18.9834 22.6667 22.6 22.6667C25.3418 22.6667 28.0285 22.1018 30.5567 21.0685C30.9149 20.9101 31.28 21.3303 30.8667 21.5852ZM31.2249 23.1352C31.1216 23.3418 31.3283 23.4452 31.5349 23.2867C32.7749 22.2534 33.0849 20.0834 32.83 19.7734C32.5683 19.4634 30.3983 19.2085 29.11 20.1316C28.9034 20.2901 28.9585 20.4967 29.1583 20.4416C29.8816 20.3383 31.5349 20.1316 31.8449 20.5449C32.1549 20.9583 31.4798 22.4532 31.2249 23.1283V23.1352Z" fill="#FF9900"/>
</g>
<defs>
<clipPath id="clip0_42539_144137">
<rect width="62" height="62" fill="white" transform="translate(4 2)"/>
</clipPath>
</defs>
</svg>
