<svg width="113" height="66" viewBox="0 0 113 66" fill="none" xmlns="http://www.w3.org/2000/svg">
<g clip-path="url(#clip0_51025_33904)">
<path d="M16.2568 37.1318V34.1045L15.9325 33.9L8.14866 38.1954L0.770271 34.1045V32.3455L8.14866 36.3954L16.2973 31.9364V28.95L15.973 28.7455L8.14866 33.0818L1.05406 29.1546L8.14866 25.2274L13.8649 28.3773L14.3108 28.1319V27.8046L8.14866 24.4092L0 28.8682V29.3182L8.14866 33.8182L15.527 29.7273V31.5273L8.14866 35.6182L0.324325 31.2818L0 31.4864V34.5136L8.14866 38.9727L15.527 34.9227V36.6818L8.14866 40.7726L0.324325 36.4772L0 36.6818V37.1318L8.14866 41.5908L16.2568 37.1318Z" fill="#FF3621"/>
<path fill-rule="evenodd" clip-rule="evenodd" d="M31.7433 25.3092V39.0954H29.5541V38.0727C29.5541 37.9909 29.5136 37.9091 29.4325 37.9091C29.3514 37.8682 29.2703 37.9091 29.2298 37.95C28.4595 38.8091 27.3244 39.3409 26.0676 39.3409C24.7703 39.3409 23.5541 38.8091 22.6622 37.9091C21.7703 36.9682 21.2838 35.7 21.2838 34.3091C21.2838 31.4864 23.3919 29.2773 26.0676 29.2773C27.3244 29.2773 28.5 29.7682 29.2298 30.5864C29.2703 30.6273 29.3514 30.6682 29.4325 30.6273C29.5136 30.5864 29.5541 30.5455 29.5541 30.4637V25.3092H31.7433ZM23.473 34.3091C23.473 36.0682 24.8109 37.4182 26.5541 37.4182C28.2973 37.4182 29.6352 36.0682 29.6352 34.3091C29.6352 32.55 28.2973 31.2001 26.5541 31.2001C24.8514 31.2001 23.473 32.55 23.473 34.3091Z" fill="white"/>
<path fill-rule="evenodd" clip-rule="evenodd" d="M43.3379 29.4819V39.0954H41.1892V38.0727C41.1892 37.9909 41.1487 37.9091 41.0676 37.9091C40.9865 37.8682 40.9054 37.9091 40.8649 37.95C40.0946 38.85 38.9595 39.3409 37.7027 39.3409C35.0271 39.3409 32.9189 37.1318 32.9189 34.3091C32.9189 31.4864 35.0271 29.2773 37.7027 29.2773C39 29.2773 40.1352 29.7273 40.8649 30.5864C40.9054 30.6273 40.9865 30.6682 41.0676 30.6273C41.1487 30.5864 41.1892 30.5455 41.1892 30.4637V29.4819H43.3379ZM35.1081 34.3091C35.1081 36.0682 36.446 37.4182 38.1892 37.4182C39.9325 37.4182 41.2703 36.0682 41.2703 34.3091C41.2703 32.55 39.9325 31.2001 38.1892 31.2001C36.4865 31.2001 35.1081 32.55 35.1081 34.3091Z" fill="white"/>
<path fill-rule="evenodd" clip-rule="evenodd" d="M61.7838 29.4819V39.0954H59.6352V38.0727C59.6352 37.9909 59.5946 37.9091 59.5136 37.9091C59.4325 37.8682 59.3514 37.9091 59.3109 37.95C58.5406 38.85 57.4054 39.3409 56.1487 39.3409C53.473 39.3409 51.3649 37.1318 51.3649 34.3091C51.3649 31.4864 53.473 29.2773 56.1487 29.2773C57.446 29.2773 58.5811 29.7273 59.3109 30.5864C59.3514 30.6273 59.4325 30.6682 59.5136 30.6273C59.5946 30.5864 59.6352 30.5455 59.6352 30.4637V29.4819H61.7838ZM53.5541 34.3091C53.5541 36.0682 54.8919 37.4182 56.6352 37.4182C58.3784 37.4182 59.7163 36.0682 59.7163 34.3091C59.7163 32.55 58.3784 31.2001 56.6352 31.2001C54.8919 31.2001 53.5541 32.55 53.5541 34.3091Z" fill="white"/>
<path fill-rule="evenodd" clip-rule="evenodd" d="M65.8379 37.95C65.7974 37.95 65.7974 37.95 65.7568 37.95C65.6757 37.9909 65.6352 38.0318 65.6352 38.1136V39.0954H63.446V25.3092H65.6352V30.5046C65.6352 30.5864 65.6757 30.6682 65.7568 30.6682C65.8379 30.7091 65.919 30.6682 65.9595 30.6273C66.7298 29.7682 67.8649 29.2364 69.1217 29.2364C70.419 29.2364 71.6352 29.7682 72.5271 30.6682C73.419 31.6091 73.9055 32.8773 73.9055 34.2682C73.9055 37.0909 71.7974 39.3 69.1217 39.3C67.8649 39.3 66.6893 38.8091 65.9595 37.9909C65.919 37.9909 65.8784 37.95 65.8379 37.95ZM68.6352 31.2001C66.892 31.2001 65.5541 32.55 65.5541 34.3091C65.5541 36.0682 66.892 37.4182 68.6352 37.4182C70.3785 37.4182 71.7163 36.0682 71.7163 34.3091C71.7163 32.55 70.3379 31.2001 68.6352 31.2001Z" fill="white"/>
<path d="M80.1893 31.4455C80.392 31.4455 80.5947 31.4455 80.7163 31.4864V29.3183C80.6352 29.3183 80.5136 29.2773 80.3514 29.2773C79.2163 29.2773 78.1623 29.8501 77.6352 30.7501C77.5947 30.8319 77.5136 30.8728 77.4325 30.8319C77.3514 30.791 77.3109 30.7501 77.3109 30.6682V29.4819H75.1622V39.0954H77.3514V34.8818C77.2704 32.7546 78.4055 31.4455 80.1893 31.4455Z" fill="white"/>
<path d="M84.2433 29.4818H82.0542V39.0954H84.2433V29.4818Z" fill="white"/>
<path d="M83.1487 25.3092C82.419 25.3092 81.8109 25.8819 81.8109 26.6183C81.8109 27.3546 82.419 27.9274 83.1487 27.9274C83.8785 27.9274 84.4866 27.3546 84.4866 26.6183C84.4866 25.9228 83.8785 25.3092 83.1487 25.3092Z" fill="white"/>
<path d="M90.7298 29.2773C87.7298 29.2773 85.5406 31.4046 85.5406 34.3091C85.5406 35.7409 86.0676 37.0091 87.0001 37.9091C87.9325 38.8091 89.2704 39.3409 90.7298 39.3409C91.946 39.3409 92.919 39.0954 94.7028 37.8273L93.4866 36.5591C92.5947 37.1318 91.7839 37.4182 90.9731 37.4182C89.1487 37.4182 87.7704 36.0682 87.7704 34.3091C87.7704 32.55 89.1487 31.2001 90.9731 31.2001C91.8244 31.2001 92.6352 31.4864 93.446 32.0591L94.8244 30.791C93.1622 29.4001 91.7028 29.2773 90.7298 29.2773Z" fill="white"/>
<path d="M98.4731 34.8818C98.5136 34.8409 98.5542 34.8409 98.5947 34.8409C98.6353 34.8409 98.6758 34.8818 98.7163 34.9227L102.203 39.1363H104.879L100.379 33.8182C100.297 33.7364 100.338 33.6546 100.379 33.5728L104.514 29.5228H101.879L98.3109 33C98.2704 33.0409 98.1893 33.0819 98.1082 33.0409C98.0272 33 97.9866 32.9591 97.9866 32.8773V25.3092H95.7974V39.0954H97.9866V35.3727C97.9866 35.3318 98.0272 35.2909 98.0272 35.25L98.4731 34.8818Z" fill="white"/>
<path d="M108.487 39.3409C110.27 39.3409 112.095 38.2773 112.095 36.2727C112.095 34.9636 111.243 34.0637 109.5 33.4909L108.324 33.1228C107.514 32.8773 107.149 32.5091 107.149 31.9773C107.149 31.4046 107.676 30.9955 108.446 30.9955C109.176 30.9955 109.824 31.4455 110.23 32.2637L111.973 31.3637C111.324 30.0546 109.987 29.2773 108.446 29.2773C106.5 29.2773 105.081 30.5046 105.081 32.1819C105.081 33.5318 105.892 34.4318 107.554 34.9227L108.77 35.2909C109.622 35.5364 109.987 35.8636 109.987 36.4364C109.987 37.2545 109.216 37.5409 108.568 37.5409C107.676 37.5409 106.906 36.9682 106.5 36.0682L104.716 36.9682C105.284 38.4409 106.743 39.3409 108.487 39.3409Z" fill="white"/>
<path d="M49.3784 39.259C50.0676 39.259 50.6757 39.2181 51.0406 39.1362V37.2954C50.7568 37.3363 50.2703 37.3772 49.946 37.3772C49.0541 37.3772 48.4054 37.2135 48.4054 35.3726V31.4454C48.4054 31.3636 48.4865 31.2818 48.6082 31.2818H50.7163V29.5636H48.6082C48.4865 29.5636 48.4054 29.4818 48.4054 29.4V26.5364H46.2568V29.3182C46.2568 29.4 46.1757 29.4818 46.0541 29.4818H44.5541V31.2H46.0541C46.1757 31.2 46.2568 31.2818 46.2568 31.3636V35.8226C46.2163 39.259 48.5271 39.259 49.3784 39.259Z" fill="white"/>
</g>
<defs>
<clipPath id="clip0_51025_33904">
<rect width="112.054" height="17.1816" fill="white" transform="translate(0 24.4092)"/>
</clipPath>
</defs>
</svg>
