<svg width="78" height="66" viewBox="0 0 78 66" fill="none" xmlns="http://www.w3.org/2000/svg">
<path d="M66 33C66 47.9117 53.9117 60 39 60C24.0883 60 12 47.9117 12 33C12 18.0883 24.0883 6 39 6C53.9117 6 66 18.0883 66 33Z" fill="#215A99"/>
<path d="M25.2244 39.6528V23.9147H21.5294V39.6528H25.2244Z" fill="white"/>
<path d="M39.1854 34.863C39.1854 33.4488 38.6151 32.4908 37.9537 31.8294C37.2466 31.1223 36.1974 30.7117 35.764 30.5521C35.2622 30.3468 34.099 29.9362 33.4147 29.6625C32.7076 29.3888 31.8181 29.0239 31.8181 28.0659C31.8181 27.108 32.6848 26.6518 33.8709 26.6518C35.057 26.6518 36.4711 27.336 37.3835 28.2484L38.9573 25.671C37.8852 24.599 35.7868 23.7322 33.9621 23.7322C32.1374 23.7322 30.7005 24.234 29.8109 24.9867C28.8986 25.7394 28.1687 26.9255 28.1687 28.4309C28.1687 29.9134 28.7161 30.8258 29.4004 31.4644C30.0846 32.1259 30.8829 32.4224 31.2707 32.6049C31.7953 32.833 32.9813 33.2435 33.6656 33.4944C34.3499 33.7453 35.5131 34.1559 35.5131 35.2279C35.5131 36.2771 34.6008 36.8473 33.4147 36.8473C32.2058 36.8473 30.4496 36.049 29.3091 34.863L27.4844 37.5544C28.7617 38.7405 30.7917 39.9265 33.0726 39.9265C34.7604 39.9265 36.2202 39.516 37.3378 38.6264C38.4783 37.7369 39.1854 36.3683 39.1854 34.863Z" fill="white"/>
<path d="M57.4953 31.8066C57.4953 26.7202 53.8231 23.6638 49.1473 23.6638C44.4715 23.6638 40.7993 26.7202 40.7993 31.8066C40.7993 36.8929 44.4715 39.9265 49.1473 39.9265C53.8231 39.9265 57.4953 36.8929 57.4953 31.8066ZM53.7547 31.7153C53.7547 34.7261 51.7703 36.642 49.1473 36.642C46.5243 36.642 44.5399 34.7261 44.5399 31.7153C44.5399 28.7046 46.5243 26.8114 49.1473 26.8114C51.7703 26.8114 53.7547 28.7274 53.7547 31.7153Z" fill="white"/>
<path d="M29.9515 52.504L29.6976 52.0748C29.4256 52.371 29.0024 52.5826 28.4523 52.5826C27.5575 52.5826 26.8986 51.9357 26.8986 50.9564C26.8986 49.9771 27.5515 49.3302 28.4523 49.3302C29.0326 49.3302 29.4981 49.6325 29.6613 49.838L29.9092 49.3665C29.6795 49.1428 29.2079 48.8163 28.4281 48.8163C27.2311 48.8163 26.2941 49.6687 26.2941 50.9685C26.2941 52.2682 27.2069 53.1206 28.422 53.1206C29.214 53.1206 29.6915 52.7942 29.9515 52.504Z" fill="white"/>
<path d="M33.4466 51.4944C33.4466 50.6904 32.8844 50.1221 32.0864 50.1221C31.2885 50.1221 30.6295 50.7025 30.6295 51.6093C30.6295 52.5221 31.2159 53.1146 32.0683 53.1146C32.9267 53.1146 33.2955 52.6914 33.3318 52.6612L33.09 52.3287C33.0235 52.371 32.6789 52.6612 32.1409 52.6612C31.6089 52.6612 31.2461 52.3166 31.2159 51.7483H33.4285C33.4285 51.7483 33.4466 51.6032 33.4466 51.4944ZM32.8965 51.3614H31.222C31.2401 51.0169 31.494 50.5393 32.0683 50.5393C32.6487 50.5393 32.8905 51.041 32.8965 51.3614Z" fill="white"/>
<path d="M35.9875 50.1705C35.9875 50.1705 35.8787 50.1221 35.6852 50.1221C35.3769 50.1221 35.117 50.2914 34.9779 50.6179H34.9598L34.9658 50.1765H34.3855V53.0481H34.9658V51.6153C34.9658 51.1982 35.0928 50.6481 35.6127 50.6481C35.7698 50.6481 35.8726 50.6844 35.927 50.7085H35.9512L35.9875 50.1705Z" fill="white"/>
<path d="M38.1696 53.0179L38.1333 52.5524C38.1333 52.5524 38.0064 52.6189 37.8371 52.6189C37.6739 52.6189 37.5953 52.5645 37.5409 52.4738C37.4744 52.3529 37.4684 52.1896 37.4684 51.9478V50.6481H38.1575V50.1826H37.4684V49.3242H36.888V50.1826H36.4648V50.6481H36.888V51.9599C36.888 52.5221 36.9243 53.1146 37.6437 53.1146C37.8432 53.1146 38.0185 53.0844 38.1696 53.0179Z" fill="white"/>
<path d="M39.7024 49.2335C39.7024 49.0279 39.5452 48.8768 39.3276 48.8768C39.1039 48.8768 38.9467 49.0279 38.9467 49.2335C38.9467 49.439 39.1039 49.5902 39.3276 49.5902C39.5452 49.5902 39.7024 49.439 39.7024 49.2335ZM39.6178 53.0481V50.1765H39.0374V53.0481H39.6178Z" fill="white"/>
<path d="M43.2107 49.2335C43.2107 49.0279 43.0535 48.8768 42.8298 48.8768C42.6122 48.8768 42.455 49.0279 42.455 49.2335C42.455 49.439 42.6122 49.5902 42.8298 49.5902C43.0535 49.5902 43.2107 49.439 43.2107 49.2335ZM43.12 53.0481V50.1765H42.5457V53.0481H43.12ZM42.2313 49.306L42.2736 48.8768C42.2736 48.8768 42.0621 48.8103 41.8202 48.8103C41.4394 48.8103 41.2459 48.9675 41.1069 49.1247C40.9678 49.2818 40.9134 49.5176 40.9134 49.8924V50.1826H40.5024V50.6481H40.9134V53.0481H41.4877V50.6481H42.1709V50.1826H41.4877V50.0073C41.4877 49.6687 41.4757 49.2516 41.9291 49.2516C42.0379 49.2516 42.1406 49.2697 42.2313 49.306Z" fill="white"/>
<path d="M46.9318 51.4944C46.9318 50.6904 46.3695 50.1221 45.5716 50.1221C44.7736 50.1221 44.1146 50.7025 44.1146 51.6093C44.1146 52.5221 44.701 53.1146 45.5534 53.1146C46.4119 53.1146 46.7806 52.6914 46.8169 52.6612L46.5751 52.3287C46.5086 52.371 46.164 52.6612 45.626 52.6612C45.094 52.6612 44.7313 52.3166 44.701 51.7483H46.9136C46.9136 51.7483 46.9318 51.6032 46.9318 51.4944ZM46.3816 51.3614H44.7071C44.7252 51.0169 44.9791 50.5393 45.5534 50.5393C46.1338 50.5393 46.3756 51.041 46.3816 51.3614Z" fill="white"/>
<path d="M50.681 53.0481V48.8768H50.1066V50.6239H50.0946C49.8951 50.3277 49.5565 50.1221 49.091 50.1221C48.2507 50.1221 47.7066 50.7629 47.7066 51.6093C47.7066 52.4617 48.2507 53.1146 49.1031 53.1146C49.5202 53.1146 49.8769 52.9393 50.1127 52.5886H50.1248V53.0481H50.681ZM50.1248 51.6032C50.1248 52.1776 49.7862 52.6189 49.2119 52.6189C48.6376 52.6189 48.2991 52.1776 48.2991 51.6032C48.2991 51.0289 48.6376 50.5937 49.2119 50.5937C49.7862 50.5937 50.1248 51.0289 50.1248 51.6032Z" fill="white"/>
<path d="M25.7482 20.1123V19.6793H23.8429L24.8009 18.7646C25.0337 18.5481 25.5912 18.0826 25.5912 17.4223C25.5912 16.7619 25.0878 16.3235 24.3409 16.3235C23.5993 16.3235 23.2205 16.816 23.1176 17.0434L23.3937 17.3519C23.5452 17.1029 23.8375 16.7511 24.3084 16.7511C24.7847 16.7511 25.077 17.0542 25.077 17.4764C25.077 17.8932 24.7576 18.2342 24.4708 18.5102L23.1501 19.7605L23.2259 20.1123H25.7482Z" fill="white"/>
<path d="M29.1827 16.6807L29.042 16.3776H26.4981V16.7998H28.5982L26.8337 20.1123H27.3857L29.1827 16.6807Z" fill="white"/>
<path d="M32.5787 18.2504C32.5787 17.2761 32.1565 16.3235 31.1497 16.3235C30.1484 16.3235 29.7208 17.2761 29.7208 18.2504C29.7208 19.2193 30.143 20.1719 31.1497 20.1719C32.1565 20.1719 32.5787 19.2193 32.5787 18.2504ZM32.0482 18.2396C32.0482 19.0893 31.7505 19.7118 31.1497 19.7118C30.5489 19.7118 30.2512 19.0893 30.2512 18.2396C30.2512 17.3844 30.5489 16.7673 31.1497 16.7673C31.7505 16.7673 32.0482 17.3844 32.0482 18.2396Z" fill="white"/>
<path d="M36.0749 18.2504C36.0749 17.2761 35.6527 16.3235 34.646 16.3235C33.6446 16.3235 33.217 17.2761 33.217 18.2504C33.217 19.2193 33.6392 20.1719 34.646 20.1719C35.6527 20.1719 36.0749 19.2193 36.0749 18.2504ZM35.5445 18.2396C35.5445 19.0893 35.2468 19.7118 34.646 19.7118C34.0452 19.7118 33.7475 19.0893 33.7475 18.2396C33.7475 17.3844 34.0452 16.7673 34.646 16.7673C35.2468 16.7673 35.5445 17.3844 35.5445 18.2396Z" fill="white"/>
<path d="M38.1314 20.1123V16.3776H36.8919V16.7619H37.6226V20.1123H38.1314Z" fill="white"/>
<path d="M40.4131 17.839C40.4131 17.6333 40.2615 17.498 40.0558 17.498C39.8447 17.498 39.6932 17.6333 39.6932 17.839C39.6932 18.0447 39.8447 18.18 40.0558 18.18C40.2615 18.18 40.4131 18.0447 40.4131 17.839ZM40.4131 19.8309C40.4131 19.6198 40.2615 19.4899 40.0558 19.4899C39.8447 19.4899 39.6932 19.6198 39.6932 19.8309C39.6932 20.0366 39.8447 20.1665 40.0558 20.1665C40.2615 20.1665 40.4131 20.0366 40.4131 19.8309Z" fill="white"/>
<path d="M44.1249 20.1123V19.6793H42.2197L43.1777 18.7646C43.4105 18.5481 43.968 18.0826 43.968 17.4223C43.968 16.7619 43.4646 16.3235 42.7177 16.3235C41.9761 16.3235 41.5972 16.816 41.4944 17.0434L41.7704 17.3519C41.922 17.1029 42.2143 16.7511 42.6852 16.7511C43.1615 16.7511 43.4538 17.0542 43.4538 17.4764C43.4538 17.8932 43.1344 18.2342 42.8476 18.5102L41.5269 19.7605L41.6027 20.1123H44.1249Z" fill="white"/>
<path d="M47.7024 18.2504C47.7024 17.2761 47.2802 16.3235 46.2734 16.3235C45.2721 16.3235 44.8445 17.2761 44.8445 18.2504C44.8445 19.2193 45.2667 20.1719 46.2734 20.1719C47.2802 20.1719 47.7024 19.2193 47.7024 18.2504ZM47.1719 18.2396C47.1719 19.0893 46.8742 19.7118 46.2734 19.7118C45.6726 19.7118 45.3749 19.0893 45.3749 18.2396C45.3749 17.3844 45.6726 16.7673 46.2734 16.7673C46.8742 16.7673 47.1719 17.3844 47.1719 18.2396Z" fill="white"/>
<path d="M49.7588 20.1123V16.3776H48.5193V16.7619H49.25V20.1123H49.7588Z" fill="white"/>
<path d="M53.7076 19.0677C53.7076 18.4885 53.28 18.2071 52.9877 18.153V18.1367C53.2205 18.0609 53.594 17.8444 53.594 17.2924C53.594 16.6807 53.0364 16.3235 52.4248 16.3235C51.8132 16.3235 51.4884 16.5833 51.2449 16.8539L51.4884 17.1679C51.7374 16.9243 52.0026 16.7403 52.3815 16.7403C52.7604 16.7403 53.0852 16.9514 53.0852 17.3465C53.0852 17.7362 52.8091 17.9527 52.414 17.9527H52.1379V18.3695H52.414C52.8416 18.3695 53.188 18.5968 53.188 19.046C53.188 19.4953 52.8362 19.7389 52.349 19.7389C51.8619 19.7389 51.4993 19.2896 51.4397 19.2138L51.1474 19.5332C51.2016 19.6036 51.6075 20.1665 52.3599 20.1665C53.1176 20.1665 53.7076 19.7497 53.7076 19.0677Z" fill="white"/>
<path d="M33.2709 43.4134L32.2577 43.2591L31.8046 42.2976C31.7924 42.2711 31.7719 42.2498 31.7469 42.2368C31.6839 42.2044 31.6072 42.2315 31.5757 42.2976L31.1226 43.2591L30.1095 43.4134C30.0815 43.4175 30.0561 43.4313 30.0364 43.4522C30.0127 43.4777 29.9997 43.5119 30.0001 43.5475C30.0007 43.583 30.0145 43.6168 30.0387 43.6415L30.772 44.3901L30.5988 45.447C30.5947 45.4714 30.5972 45.4969 30.6063 45.5199C30.6152 45.543 30.6301 45.563 30.6494 45.5777C30.6687 45.5923 30.6916 45.6011 30.7152 45.6028C30.7391 45.6046 30.7629 45.5995 30.784 45.5878L31.6902 45.0888L32.5963 45.5878C32.6212 45.6015 32.6499 45.6061 32.6775 45.6011C32.7468 45.5886 32.7935 45.5196 32.7815 45.447L32.6084 44.3901L33.3416 43.6415C33.3615 43.6212 33.3747 43.5943 33.3786 43.5651C33.3894 43.4918 33.3408 43.4243 33.2709 43.4134Z" fill="#F3D153"/>
<path d="M40.2305 43.4134L39.2173 43.2591L38.7642 42.2976C38.752 42.2711 38.7315 42.2498 38.7065 42.2368C38.6435 42.2044 38.5668 42.2315 38.5353 42.2976L38.0822 43.2591L37.0691 43.4134C37.0411 43.4175 37.0157 43.4313 36.996 43.4522C36.9723 43.4777 36.9593 43.5119 36.9597 43.5475C36.9603 43.583 36.9741 43.6168 36.9983 43.6415L37.7316 44.3901L37.5584 45.447C37.5543 45.4714 37.5568 45.4969 37.5659 45.5199C37.5747 45.543 37.5897 45.563 37.609 45.5777C37.6283 45.5923 37.6512 45.6011 37.6748 45.6028C37.6987 45.6046 37.7225 45.5995 37.7436 45.5878L38.6498 45.0888L39.5559 45.5878C39.5808 45.6015 39.6095 45.6061 39.6371 45.6011C39.7064 45.5886 39.7531 45.5196 39.7411 45.447L39.568 44.3901L40.3012 43.6415C40.3211 43.6212 40.3343 43.5943 40.3382 43.5651C40.349 43.4918 40.3004 43.4243 40.2305 43.4134Z" fill="#F3D153"/>
<path d="M47.19 43.4134L46.1769 43.2591L45.7238 42.2976C45.7116 42.2711 45.6911 42.2498 45.6661 42.2368C45.603 42.2044 45.5264 42.2315 45.4949 42.2976L45.0418 43.2591L44.0287 43.4134C44.0007 43.4175 43.9753 43.4313 43.9556 43.4522C43.9319 43.4777 43.9189 43.5119 43.9193 43.5475C43.9199 43.583 43.9337 43.6168 43.9579 43.6415L44.6912 44.3901L44.518 45.447C44.5139 45.4714 44.5164 45.4969 44.5255 45.5199C44.5343 45.543 44.5493 45.563 44.5686 45.5777C44.5879 45.5923 44.6108 45.6011 44.6344 45.6028C44.6583 45.6046 44.6821 45.5995 44.7032 45.5878L45.6093 45.0888L46.5155 45.5878C46.5404 45.6015 46.5691 45.6061 46.5967 45.6011C46.666 45.5886 46.7127 45.5196 46.7007 45.447L46.5275 44.3901L47.2608 43.6415C47.2807 43.6212 47.2939 43.5943 47.2978 43.5651C47.3086 43.4918 47.26 43.4243 47.19 43.4134Z" fill="#F3D153"/>
</svg>
