<svg width="78" height="66" viewBox="0 0 78 66" fill="none" xmlns="http://www.w3.org/2000/svg">
<path d="M38.6496 31.2929H47.8364C47.5477 29.5478 46.7662 27.9216 45.584 26.6059C44.4018 25.2902 42.8681 24.34 41.1636 23.867C39.4592 23.3941 37.6552 23.4183 35.964 23.9367C34.2729 24.4551 32.7652 25.4461 31.6187 26.793C30.4721 28.1399 29.7344 29.7864 29.4926 31.5386C29.2508 33.2908 29.5149 35.0756 30.2539 36.6827C30.9928 38.2897 32.1757 39.6521 33.6632 40.6091C35.1507 41.5662 36.8808 42.0781 38.6496 42.0845V31.2929Z" fill="#7F4194"/>
<path d="M40.4987 41.0384C40.309 41.0384 38.9217 40.381 37.3766 39.9738C36.3691 39.7198 35.3872 39.373 34.4435 38.938C33.4658 38.5308 33.4339 38.0925 33.0243 38.0925C32.693 38.0828 32.3682 37.999 32.0735 37.8473C31.7788 37.6956 31.5219 37.4799 31.3215 37.216C31.175 37.0205 31.1067 36.7774 31.13 36.5342C31.1532 36.2911 31.2664 36.0653 31.4474 35.9012C31.6067 35.7418 31.6362 35.7761 31.5103 35.4C31.3844 35.0239 31.2577 34.3354 31.5733 34.0541C31.8888 33.7728 32.2044 33.7099 32.1095 33.3657C32.0632 33.1678 32.0589 32.9625 32.0969 32.7629C32.1349 32.5633 32.2144 32.374 32.3303 32.207C32.551 31.9879 32.8036 31.9568 32.7088 31.2994C32.6139 30.642 33.2132 30.1098 33.9702 29.8906C34.5905 29.7508 35.24 29.8281 35.8101 30.1098C36.3981 30.2978 37.4388 30.8269 37.9121 30.3289C38.1251 30.0283 38.2719 29.6859 38.3426 29.3243C38.4133 28.9628 38.4065 28.5903 38.3225 28.2316C38.213 27.4695 38.3454 26.6922 38.701 26.0092C39.0153 25.4145 39.5286 24.9491 40.1513 24.6944C40.6246 24.6004 40.8134 24.6634 40.7823 24.9765C40.5405 25.5669 40.3403 26.1734 40.1831 26.7917C40.1831 27.2929 40.372 28.1065 40.3425 28.5448C40.2922 29.0366 40.4042 29.5313 40.6612 29.9536C40.9497 30.6923 40.9949 31.5038 40.7903 32.27C40.6309 33.2716 39.85 35.9665 39.85 35.9665L40.4987 41.0384Z" fill="white"/>
<path d="M38.0363 34.2846H36.7478V32.3276H38.0945V29.6343H40.5153V32.3276H42.7839V34.2846H40.5193V38.276C40.5032 38.5342 40.5442 38.7928 40.6393 39.0334C40.7344 39.274 40.8812 39.4907 41.0694 39.6682C41.2576 39.8457 41.4826 39.9796 41.7283 40.0604C41.9741 40.1412 42.2346 40.167 42.4914 40.1358C42.6419 40.1378 42.7921 40.125 42.94 40.0976V42.2491C42.6882 42.2896 42.4334 42.3091 42.1783 42.3072C40.7926 42.3072 38.0395 41.9 38.0395 38.5868L38.0363 34.2846Z" fill="white"/>
<path d="M49.319 36.0083H49.6314V35.9286C49.6314 34.5142 49.0648 33.9915 47.7986 33.9915C47.35 33.9915 46.4711 34.1078 46.4711 34.6504V35.174H44.1658V34.1277C44.1658 32.287 46.7819 32.0934 47.8162 32.0934C51.135 32.0934 52.1111 33.8178 52.1111 36.0266V39.708C52.1052 39.7657 52.1122 39.824 52.1318 39.8787C52.1513 39.9333 52.1828 39.9829 52.224 40.0238C52.2652 40.0647 52.315 40.0958 52.3698 40.1149C52.4246 40.134 52.4829 40.1407 52.5406 40.1343H53.3215V42.2061H51.096C50.178 42.2061 49.8274 41.7025 49.8274 41.1208C49.8266 40.9785 49.833 40.8362 49.8465 40.6945H49.8075C49.5236 41.2406 49.0901 41.6946 48.5577 42.0033C48.0253 42.3121 47.416 42.4628 46.801 42.438C45.0248 42.438 43.4041 41.3335 43.4041 39.3574C43.4009 36.2609 47.699 36.0083 49.319 36.0083ZM47.4066 40.5232C48.7341 40.5232 49.6712 39.1279 49.6712 37.9271V37.6944H49.2417C47.9532 37.6944 45.9037 37.8689 45.9037 39.2442C45.9083 39.4304 45.9521 39.6135 46.0322 39.7816C46.1124 39.9497 46.2271 40.099 46.3688 40.2197C46.5106 40.3405 46.6762 40.43 46.8548 40.4824C47.0335 40.5348 47.2213 40.549 47.4058 40.524L47.4066 40.5232Z" fill="white"/>
<path d="M57.9468 32.0948C60.2505 32.0948 61.0115 33.4901 61.0115 33.4901H61.0505V33.2383C61.0505 32.7929 61.3629 32.3275 62.1438 32.3275H64.4475V34.4208H63.6865C63.632 34.4135 63.5765 34.4182 63.5239 34.4344C63.4714 34.4507 63.423 34.4782 63.3821 34.5151C63.3412 34.5519 63.3089 34.5972 63.2873 34.6478C63.2657 34.6984 63.2554 34.7531 63.257 34.8081V41.6091C63.257 44.9997 60.6019 46.2786 58.0058 46.2786C56.7782 46.2699 55.5691 45.9781 54.4726 45.426L55.2344 43.4889C56.092 43.9088 57.0319 44.1335 57.9867 44.1471C59.4895 44.1471 60.7979 43.5096 60.7979 41.7255V41.2601C60.7979 41.0274 60.8179 40.7374 60.8179 40.7374H60.7764C60.4639 41.1713 60.0443 41.5169 59.5584 41.7403C59.0725 41.9638 58.5371 42.0575 58.0042 42.0123C55.1539 42.0123 53.5339 39.7262 53.5339 37.0129C53.5339 34.2997 55.0766 32.0948 57.9468 32.0948ZM60.8553 37.0353C60.8553 34.7874 59.723 34.1866 58.3763 34.1866C56.8735 34.1866 56.0535 35.2719 56.0535 36.938C56.0535 38.6624 56.9301 39.9413 58.5325 39.9413C59.723 39.9421 60.8561 39.264 60.8561 37.0361L60.8553 37.0353Z" fill="white"/>
<path d="M38.6906 20.6278C37.075 20.6123 35.4723 20.9169 33.975 21.5238C32.4777 22.1307 31.1153 23.0281 29.9665 24.1641C28.8177 25.3001 27.9051 26.6523 27.2814 28.1427C26.6577 29.6332 26.3352 31.2323 26.3325 32.8479C26.3299 34.4636 26.647 36.0638 27.2658 37.5563C27.8845 39.0487 28.7926 40.404 29.9377 41.5438C31.0827 42.6836 32.4421 43.5855 33.9374 44.1974C35.4327 44.8093 37.0343 45.1192 38.6499 45.1091V42.0811C36.8994 42.0607 35.1908 41.5422 33.7243 40.5861C32.2578 39.63 31.0939 38.2759 30.3689 36.6824C29.644 35.0889 29.3879 33.3219 29.6307 31.5881C29.8735 29.8544 30.6052 28.2257 31.74 26.8926C32.8748 25.5596 34.3658 24.5773 36.0386 24.0609C37.7113 23.5445 39.4966 23.5152 41.1854 23.9765C42.8742 24.4378 44.3966 25.3706 45.5746 26.6657C46.7525 27.9608 47.5372 29.5646 47.8367 31.2895H50.9173C50.5162 28.333 49.0556 25.6225 46.8069 23.6616C44.5582 21.7007 41.6742 20.6227 38.6906 20.6278Z" fill="white"/>
<path d="M38.6501 55.3826C34.2732 55.3424 30.003 54.0273 26.3618 51.5982C22.7207 49.1691 19.8665 45.7313 18.1486 41.7055C16.4307 37.6797 15.9235 33.2404 16.689 28.9308C17.4546 24.6212 19.4597 20.6283 22.4591 17.4405C25.4585 14.2526 29.3221 12.0082 33.5771 10.9818C37.8321 9.95542 42.294 10.1915 46.4169 11.6613C50.5398 13.1311 54.1449 15.7707 56.791 19.2573C59.4372 22.7439 61.0097 26.9262 61.3162 31.2925H64.3298C64.0579 26.2808 62.3236 21.4585 59.3411 17.4217C56.3586 13.3849 52.2587 10.3104 47.5481 8.57817C42.8374 6.84592 37.7224 6.53186 32.8352 7.67477C27.948 8.81769 23.5027 11.3675 20.0488 15.0091C16.5949 18.6507 14.2836 23.2245 13.4006 28.1653C12.5176 33.1061 13.1016 38.1974 15.0804 42.8099C17.0593 47.4224 20.3462 51.3541 24.535 54.119C28.7238 56.8839 33.631 58.3609 38.6501 58.3675V55.3826Z" fill="white"/>
<path d="M38.6908 13.9933C36.1976 13.9677 33.724 14.4364 31.4129 15.3721C29.1018 16.3079 26.999 17.6922 25.2259 19.4452C23.4528 21.1982 22.0446 23.2851 21.0825 25.5854C20.1205 27.8857 19.6237 30.3538 19.6209 32.8472C19.618 35.3405 20.1092 37.8097 21.066 40.1122C22.0228 42.4147 23.4262 44.5048 25.1953 46.2618C26.9644 48.0189 29.0641 49.408 31.373 50.349C33.682 51.2901 36.1545 51.7643 38.6478 51.7444V48.8471C35.5613 48.816 32.5499 47.8916 29.9775 46.1858C27.4051 44.4799 25.3818 42.0655 24.1521 39.2344C22.9224 36.4033 22.5389 33.2767 23.048 30.2323C23.5571 27.188 24.9371 24.3562 27.021 22.0793C29.1049 19.8023 31.8037 18.1777 34.7912 17.4016C37.7787 16.6255 40.927 16.7313 43.8556 17.7061C46.7843 18.6809 49.3679 20.483 51.2944 22.8946C53.2208 25.3063 54.4076 28.2242 54.7113 31.2959H57.6413C57.22 26.5639 55.04 22.1617 51.5317 18.9585C48.0233 15.7552 43.4415 13.9836 38.6908 13.9933Z" fill="white"/>
<path d="M39.9199 54.3192H40.2753V52.1096H39.9199V51.8004H41.1566C41.3337 51.7921 41.511 51.8122 41.6817 51.8602C41.8349 51.9091 41.9672 52.008 42.0573 52.1411C42.1475 52.2742 42.1903 52.4337 42.179 52.5941C42.1906 52.7751 42.1378 52.9545 42.0299 53.1003C41.9219 53.2462 41.7659 53.3491 41.5893 53.3909V53.3989C41.6408 53.4313 41.6826 53.477 41.7104 53.5312L42.1144 54.2292C42.159 54.3089 42.2116 54.3216 42.3128 54.3216H42.3973V54.6348H42.1583C41.9192 54.6348 41.8594 54.5901 41.7598 54.422L41.3192 53.6483C41.2943 53.5922 41.2514 53.546 41.1972 53.5171C41.1431 53.4882 41.0808 53.4783 41.0204 53.4889H40.6809V54.3192H41.0323V54.6324H39.9199V54.3192ZM41.2506 53.1598C41.3211 53.1641 41.3916 53.1532 41.4574 53.1277C41.5231 53.1022 41.5826 53.0628 41.6318 53.0121C41.6809 52.9615 41.7185 52.9009 41.7419 52.8343C41.7654 52.7678 41.7742 52.697 41.7678 52.6267C41.7772 52.5336 41.7563 52.44 41.7082 52.3597C41.6601 52.2795 41.5874 52.2169 41.5008 52.1813C41.3877 52.1432 41.2687 52.1257 41.1494 52.1295H40.6769V53.1606L41.2506 53.1598Z" fill="#7F4194"/>
<path d="M42.7358 54.3195H43.0912V52.1098H42.7358V51.8007H44.8012V52.4588H44.4498V52.1297H43.4936V53.0405H44.504V53.3696H43.4936V54.3043H44.5159V53.9633H44.8673V54.6334H42.7334L42.7358 54.3195Z" fill="#7F4194"/>
<path d="M46.7684 51.7537C47.2696 51.7537 47.8632 51.9545 47.8632 52.3115V52.6605H47.4911V52.4517C47.4911 52.2127 47.1158 52.0987 46.7795 52.0987C46.6336 52.0904 46.4875 52.1132 46.351 52.1656C46.2146 52.218 46.0908 52.2989 45.988 52.4028C45.8852 52.5067 45.8057 52.6314 45.7548 52.7684C45.7039 52.9054 45.6827 53.0517 45.6926 53.1976C45.6826 53.3461 45.7039 53.4951 45.7551 53.6349C45.8063 53.7747 45.8862 53.9022 45.9898 54.0092C46.0934 54.1161 46.2183 54.2002 46.3563 54.2558C46.4944 54.3115 46.6427 54.3375 46.7915 54.3323C47.0457 54.3323 47.5548 54.2526 47.5548 53.9793V53.6064H46.9971V53.294H47.9262V54.0908C47.9262 54.5275 47.1907 54.6845 46.7628 54.6845C46.5665 54.6923 46.3706 54.6597 46.1874 54.5887C46.0042 54.5177 45.8375 54.4098 45.6978 54.2718C45.558 54.1337 45.448 53.9684 45.3748 53.7861C45.3015 53.6038 45.2665 53.4083 45.2719 53.2119C45.2659 53.0156 45.3009 52.8201 45.3745 52.6379C45.4481 52.4558 45.5588 52.2909 45.6995 52.1538C45.8402 52.0167 46.0079 51.9103 46.1919 51.8414C46.3759 51.7726 46.5722 51.7427 46.7684 51.7537Z" fill="#7F4194"/>
<path d="M48.384 54.3195H48.7394V52.1098H48.384V51.8007H49.5036V52.1098H49.1434V54.3195H49.5036V54.6326H48.384V54.3195Z" fill="#7F4194"/>
<path d="M50.2999 53.7821V53.9909C50.2999 54.1997 50.5708 54.324 50.8696 54.324C51.1971 54.324 51.4354 54.171 51.4354 53.8905C51.4354 53.5614 51.0999 53.453 50.7485 53.3168C50.3732 53.1765 49.9883 53.0156 49.9883 52.5144C49.9883 51.9813 50.421 51.7526 50.9015 51.7526C51.3302 51.7526 51.766 51.9119 51.766 52.2219V52.555H51.3899V52.3582C51.3899 52.194 51.1357 52.1056 50.9015 52.1056C50.6226 52.1056 50.4003 52.2339 50.4003 52.4944C50.4003 52.7948 50.6871 52.8929 51.0067 53.0156C51.4266 53.1749 51.8433 53.3343 51.8433 53.8578C51.8433 54.3989 51.3987 54.6802 50.8696 54.6802C50.425 54.6802 49.9277 54.4833 49.9277 54.0785V53.7821H50.2999Z" fill="#7F4194"/>
<path d="M52.8278 54.3194H53.1879V52.1297H52.517V52.5711H52.1616V51.8014H54.6111V52.5711H54.2597V52.1297H53.5888V54.3194H53.9481V54.6326H52.8246L52.8278 54.3194Z" fill="#7F4194"/>
<path d="M54.9455 54.3195H55.3009V52.1098H54.9455V51.8007H57.0109V52.4588H56.6595V52.1297H55.7033V53.0405H56.7137V53.3696H55.7033V54.3043H56.7256V53.9633H57.0771V54.6334H54.9431L54.9455 54.3195Z" fill="#7F4194"/>
<path d="M57.4985 54.3196H57.8539V52.11H57.4985V51.8008H58.7352C58.9123 51.7924 59.0897 51.8126 59.2603 51.8606C59.4135 51.9094 59.5458 52.0084 59.6359 52.1415C59.7261 52.2746 59.7689 52.4341 59.7576 52.5945C59.7692 52.7755 59.7164 52.9549 59.6085 53.1007C59.5006 53.2466 59.3445 53.3495 59.1679 53.3913V53.3992C59.2195 53.4316 59.2613 53.4773 59.289 53.5315L59.693 54.2296C59.7377 54.3092 59.7895 54.322 59.8907 54.322H59.9759V54.6351H59.7369C59.4978 54.6351 59.438 54.5905 59.3384 54.4224L58.8978 53.6487C58.8729 53.5926 58.83 53.5464 58.7758 53.5175C58.7217 53.4886 58.6594 53.4787 58.599 53.4893H58.2595V54.3196H58.6109V54.6328H57.4993L57.4985 54.3196ZM58.8317 53.1602C58.902 53.1644 58.9725 53.1533 59.0382 53.1278C59.1039 53.1023 59.1634 53.0628 59.2125 53.0122C59.2616 52.9616 59.2991 52.901 59.3227 52.8346C59.3462 52.7681 59.3551 52.6973 59.3488 52.6271C59.3581 52.534 59.3372 52.4404 59.2891 52.3602C59.241 52.28 59.1683 52.2174 59.0819 52.1817C58.9688 52.1436 58.8497 52.126 58.7304 52.1299H58.2579V53.161L58.8317 53.1602Z" fill="#7F4194"/>
<path d="M60.3144 54.3195H60.6698V52.1098H60.3144V51.8007H62.379V52.4588H62.0276V52.1297H61.0714V53.0405H62.0818V53.3696H61.0714V54.3043H62.0937V53.9633H62.4452V54.6334H60.312L60.3144 54.3195Z" fill="#7F4194"/>
<path d="M62.8723 54.3196H63.2277V52.1099H62.8723V51.8008H64.0883C64.2927 51.7927 64.4971 51.8156 64.6947 51.8685C64.9739 51.9601 65.2143 52.1426 65.3777 52.3868C65.541 52.631 65.6179 52.9229 65.5959 53.216C65.6186 53.5081 65.5419 53.7993 65.3783 54.0425C65.2147 54.2856 64.9738 54.4664 64.6947 54.5554C64.4997 54.6141 64.2966 54.641 64.0931 54.6351H62.8723V54.3196ZM64.0676 54.3036C64.2321 54.3104 64.3965 54.2861 64.5521 54.2319C64.7521 54.1534 64.921 54.0118 65.0333 53.8286C65.1456 53.6454 65.1951 53.4306 65.1744 53.2167C65.1948 53.0025 65.1457 52.7874 65.0343 52.6033C64.923 52.4191 64.7553 52.2758 64.556 52.1944C64.3982 52.1435 64.2324 52.1216 64.0668 52.1299H63.6309V54.3036H64.0676Z" fill="#7F4194"/>
</svg>
