<svg width="66" height="66" viewBox="0 0 66 66" fill="none"
  xmlns="http://www.w3.org/2000/svg">
  <g clip-path="url(#clip0_50687_8227)">
  <path d="M33.1321 8.29613C33.2439 8.23235 33.381 8.23235 33.4928 8.29613L54.995 20.493C55.1068 20.5568 55.1754 20.6738 55.1754 20.8013V45.1987C55.1754 45.3263 55.1068 45.4432 54.995 45.507L33.4928 57.7039C33.381 57.7677 33.2439 57.7677 33.1321 57.7039L11.6299 45.5035C11.518 45.4397 11.4495 45.3228 11.4495 45.1952V20.8013C11.4495 20.6738 11.518 20.5568 11.6299 20.493L33.1321 8.29613Z"
    fill="url(#paint0_linear_50687_8227)"/>
  <path d="M11.3197 28.395H55.3124V37.6083H11.3125L11.3197 33.0016V28.395Z"
    fill="white"/>
    <path fill="white"
      d="M31.3541 20.3867V21.3683H30.1856V24.8516H29.1469V21.3683H27.9784V20.3867H31.3541ZM32.7499 24.9402C31.7941 24.9402 31.0295 24.2067 31.0295 23.257C31.0295 22.3073 31.7941 21.5738 32.7499 21.5738C33.7056 21.5738 34.4702 22.3073 34.4702 23.257C34.4702 24.2067 33.7056 24.9402 32.7499 24.9402ZM32.7499 24.0082C33.1718 24.0082 33.4964 23.707 33.4964 23.257C33.4964 22.807 33.1718 22.5058 32.7499 22.5058C32.3279 22.5058 32.0033 22.807 32.0033 23.257C32.0033 23.707 32.3279 24.0082 32.7499 24.0082ZM36.9623 21.5703C37.8135 21.5703 38.5131 22.3038 38.5131 23.2535C38.5131 24.2031 37.8135 24.9366 36.9623 24.9366C36.5259 24.9366 36.2085 24.7914 35.9958 24.5469V26.1237H35.022V21.6589H35.9958V21.9601C36.2085 21.7191 36.5295 21.5703 36.9623 21.5703ZM36.7676 24.033C37.2148 24.033 37.5394 23.7318 37.5394 23.2535C37.5394 22.7751 37.2148 22.4739 36.7676 22.4739C36.3204 22.4739 35.9958 22.7751 35.9958 23.2535C35.9958 23.7318 36.3204 24.033 36.7676 24.033Z"/>
    <path fill="url(#paint1_linear_50687_8227)"
      d="M15.6151 30.9112C16.798 30.9112 17.6997 31.8254 17.6997 33.0196C17.6997 34.2138 16.798 35.128 15.6151 35.128H13.8984V30.9112H15.6151ZM15.6151 34.1996C16.2895 34.1996 16.7548 33.7425 16.7548 33.0196C16.7548 32.2967 16.2895 31.8396 15.6151 31.8396H14.8794V34.1996H15.6151ZM20.4479 32.116H21.3675V35.128H20.4479V34.8445C20.2459 35.0748 19.9466 35.213 19.5354 35.213C18.7312 35.213 18.0712 34.5185 18.0712 33.622C18.0712 32.7255 18.7348 32.0309 19.5354 32.0309C19.9466 32.0309 20.2459 32.1691 20.4479 32.3995V32.116ZM19.7194 34.3555C20.1413 34.3555 20.4479 34.072 20.4479 33.622C20.4479 33.172 20.1413 32.8885 19.7194 32.8885C19.2974 32.8885 18.9908 33.172 18.9908 33.622C18.9908 34.072 19.2974 34.3555 19.7194 34.3555ZM23.838 32.9806H23.2069V34.0472C23.2069 34.3059 23.4341 34.3307 23.838 34.3059V35.1244C22.6371 35.2449 22.2872 34.8906 22.2872 34.0472V32.9806H21.7967V32.1124H22.2872V31.5419L23.2069 31.2726V32.116H23.838V32.9841V32.9806ZM26.5249 32.1124H27.4446V35.1244H26.5249V34.841C26.323 35.0713 26.0236 35.2095 25.6125 35.2095C24.8082 35.2095 24.1482 34.515 24.1482 33.6184C24.1482 32.7219 24.8118 32.0274 25.6125 32.0274C26.0236 32.0274 26.323 32.1656 26.5249 32.3959V32.1124ZM25.7964 34.352C26.2184 34.352 26.5249 34.0685 26.5249 33.6184C26.5249 33.1684 26.2184 32.8849 25.7964 32.8849C25.3744 32.8849 25.0679 33.1684 25.0679 33.6184C25.0679 34.0685 25.3744 34.352 25.7964 34.352ZM31.3072 30.9076C32.1547 30.9076 32.8075 31.5525 32.8075 32.3534C32.8075 33.1542 32.1511 33.7992 31.3072 33.7992H30.6616V35.1244H29.6807V30.9076H31.3072ZM31.3072 32.8956C31.6066 32.8956 31.8265 32.6617 31.8265 32.3534C31.8265 32.0451 31.6066 31.8112 31.3072 31.8112H30.6616V32.8956H31.3072ZM34.1275 32.6475C34.2502 32.2435 34.6613 32.0522 35.0472 32.0522V33.0763C34.6685 33.016 34.1275 33.1649 34.1275 33.7637V35.1244H33.2079V32.1124H34.1275V32.6475ZM36.8577 35.206C35.9561 35.206 35.2347 34.5114 35.2347 33.6149C35.2347 32.7184 35.9597 32.0238 36.8577 32.0238C37.7557 32.0238 38.4842 32.7184 38.4842 33.6149C38.4842 34.5114 37.7593 35.206 36.8577 35.206ZM36.8577 34.3271C37.258 34.3271 37.5646 34.0437 37.5646 33.6149C37.5646 33.1861 37.258 32.9026 36.8577 32.9026C36.4574 32.9026 36.1508 33.1861 36.1508 33.6149C36.1508 34.0437 36.4574 34.3271 36.8577 34.3271ZM40.8393 32.1089H41.8564L40.7239 35.1209H39.6816L38.5492 32.1089H39.5662L40.2046 34.0189L40.8429 32.1089H40.8393ZM42.6534 31.8431C42.3541 31.8431 42.1016 31.5951 42.1016 31.301C42.1016 31.0068 42.3541 30.7588 42.6534 30.7588C42.9528 30.7588 43.2052 31.0068 43.2052 31.301C43.2052 31.5951 42.9528 31.8431 42.6534 31.8431ZM42.1918 35.1209V32.1089H43.1115V35.1209H42.1918ZM46.0111 30.9041H46.9308V35.1209H46.0111V34.8374C45.8092 35.0678 45.5098 35.206 45.0987 35.206C44.2944 35.206 43.6344 34.5114 43.6344 33.6149C43.6344 32.7184 44.298 32.0238 45.0987 32.0238C45.5098 32.0238 45.8092 32.162 46.0111 32.3924V30.9041ZM45.2826 34.3484C45.7046 34.3484 46.0111 34.0649 46.0111 33.6149C46.0111 33.1649 45.7046 32.8814 45.2826 32.8814C44.8606 32.8814 44.5541 33.1649 44.5541 33.6149C44.5541 34.0649 44.8606 34.3484 45.2826 34.3484ZM48.4275 33.9763C48.5429 34.2882 48.8242 34.398 49.1632 34.398C49.4157 34.398 49.6285 34.3023 49.7511 34.1677L50.4869 34.5823C50.1875 34.9933 49.7331 35.2024 49.1488 35.2024C48.0993 35.2024 47.4501 34.5079 47.4501 33.6114C47.4501 32.7148 48.1137 32.0203 49.0803 32.0203C49.9747 32.0203 50.6383 32.7007 50.6383 33.6114C50.6383 33.7389 50.6275 33.8594 50.6023 33.9728H48.4275V33.9763ZM48.4095 33.3031H49.7259C49.6285 32.9522 49.3508 32.8282 49.0767 32.8282C48.7269 32.8282 48.496 32.9983 48.4095 33.3031ZM52.081 32.6475C52.2036 32.2435 52.6147 32.0522 53.0006 32.0522V33.0763C52.6219 33.016 52.081 33.1649 52.081 33.7637V35.1244H51.1613V32.1124H52.081V32.6475Z"/>
    <path
      d="M26.2905 45.7585V45.0179L27.8161 43.4623C28.083 43.193 28.2777 42.9343 28.2777 42.6721C28.2777 42.3922 28.0974 42.2008 27.7909 42.2008C27.4843 42.2008 27.2463 42.4063 27.1236 42.6863L26.2473 42.1831C26.5394 41.5205 27.1489 41.2086 27.78 41.2086C28.5915 41.2086 29.32 41.7331 29.32 42.6296C29.32 43.1647 29.0279 43.6253 28.6132 44.0328L27.8594 44.7805H29.385V45.7621H26.2941L26.2905 45.7585ZM31.5922 45.8471C30.4164 45.8471 29.742 44.9046 29.742 43.5261C29.742 42.1477 30.4164 41.2051 31.5922 41.2051C32.7679 41.2051 33.4423 42.1477 33.4423 43.5261C33.4423 44.9046 32.7679 45.8471 31.5922 45.8471ZM31.5922 44.8514C32.1368 44.8514 32.4036 44.3872 32.4036 43.5261C32.4036 42.665 32.1368 42.2008 31.5922 42.2008C31.0476 42.2008 30.7807 42.665 30.7807 43.5261C30.7807 44.3872 31.0476 44.8514 31.5922 44.8514ZM33.6515 45.7585V45.0179L35.1771 43.4623C35.444 43.193 35.6387 42.9343 35.6387 42.6721C35.6387 42.3922 35.4584 42.2008 35.1518 42.2008C34.8453 42.2008 34.6072 42.4063 34.4846 42.6863L33.6082 42.1831C33.9004 41.5205 34.5099 41.2086 35.141 41.2086C35.9525 41.2086 36.681 41.7331 36.681 42.6296C36.681 43.1647 36.3889 43.6253 35.9741 44.0328L35.2204 44.7805H36.7459V45.7621H33.6551L33.6515 45.7585ZM39.3138 43.1044C39.8728 43.2958 40.2804 43.7352 40.2804 44.3553C40.2804 45.3369 39.5013 45.8471 38.6249 45.8471C37.9361 45.8471 37.3122 45.5459 37.0345 44.8904L37.9289 44.3801C38.0335 44.6742 38.2282 44.8514 38.6249 44.8514C39.0541 44.8514 39.2417 44.6282 39.2417 44.3553C39.2417 44.0824 39.0541 43.8592 38.6249 43.8592H38.4122L38.0154 43.2781L38.8413 42.2504H37.1787V41.2937H40.1V42.1229L39.3138 43.1044Z"
      fill="white"/>
    <path fill-rule="evenodd" clip-rule="evenodd" fill="white"
      d="M32.0213 13.3597C32.0213 13.2215 31.9059 13.1082 31.7653 13.1082C31.6246 13.1082 31.5092 13.2215 31.5092 13.3597V14.476C31.5092 14.6142 31.6246 14.7276 31.7653 14.7276C31.9059 14.7276 32.0213 14.6142 32.0213 14.476V13.3597Z"/>
    <path fill-rule="evenodd" clip-rule="evenodd" fill="white"
      d="M34.6036 14.476C34.6036 14.6142 34.719 14.7276 34.8597 14.7276C35.0004 14.7276 35.1158 14.6142 35.1158 14.476V13.3597C35.1158 13.2215 35.0004 13.1082 34.8597 13.1082C34.719 13.1082 34.6036 13.2215 34.6036 13.3597V14.476Z"/>
    <path fill-rule="evenodd" clip-rule="evenodd" fill="white"
      d="M32.7967 12.5482C32.7967 12.41 32.6813 12.2966 32.5407 12.2966C32.4 12.2966 32.2846 12.41 32.2846 12.5482V13.6715C32.2846 13.8097 32.4 13.9231 32.5407 13.9231C32.6813 13.9231 32.7967 13.8097 32.7967 13.6715V12.5482Z"/>
    <path fill-rule="evenodd" clip-rule="evenodd" fill="white"
      d="M33.5721 11.6342C33.5721 11.496 33.4567 11.3826 33.3161 11.3826C33.1754 11.3826 33.06 11.496 33.06 11.6342V12.7504C33.06 12.8886 33.1754 13.002 33.3161 13.002C33.4567 13.002 33.5721 12.8886 33.5721 12.7504V11.6342Z"/>
    <path fill-rule="evenodd" clip-rule="evenodd"
      d="M34.3403 12.5448C34.3403 12.4066 34.2249 12.2932 34.0843 12.2932C33.9436 12.2932 33.8282 12.4066 33.8282 12.5448V13.6681C33.8282 13.8063 33.9436 13.9197 34.0843 13.9197C34.2249 13.9197 34.3403 13.8063 34.3403 13.6681V12.5448Z"
      fill="white"/>
    <path fill-rule="evenodd" clip-rule="evenodd" fill="white"
      d="M33.5721 13.4591C33.5721 13.3209 33.4567 13.2075 33.3161 13.2075C33.1754 13.2075 33.06 13.3209 33.06 13.4591V14.5824C33.06 14.7206 33.1754 14.834 33.3161 14.834C33.4567 14.834 33.5721 14.7206 33.5721 14.5824V13.4591Z"/>
    <path fill-rule="evenodd" clip-rule="evenodd" fill="white"
      d="M32.7895 15.2804C32.7895 15.1422 32.6741 15.0288 32.5335 15.0288C32.3928 15.0288 32.2774 15.1422 32.2774 15.2804V15.4859C32.2774 15.6241 32.3928 15.7375 32.5335 15.7375C32.6741 15.7375 32.7895 15.6241 32.7895 15.4859V15.2804Z"/>
    <path fill-rule="evenodd" clip-rule="evenodd"
      d="M32.7859 14.3698C32.7859 14.2316 32.6705 14.1182 32.5299 14.1182C32.3892 14.1182 32.2738 14.2316 32.2738 14.3698V14.5753C32.2738 14.7135 32.3892 14.8269 32.5299 14.8269C32.6705 14.8269 32.7859 14.7135 32.7859 14.5753V14.3698Z"
      fill="white"/>
    <path fill-rule="evenodd" clip-rule="evenodd" fill="white"
      d="M33.5721 15.2804C33.5721 15.1422 33.4567 15.0288 33.3161 15.0288C33.1754 15.0288 33.06 15.1422 33.06 15.2804V15.4859C33.06 15.6241 33.1754 15.7375 33.3161 15.7375C33.4567 15.7375 33.5721 15.6241 33.5721 15.4859V15.2804Z"/>
    <path fill-rule="evenodd" clip-rule="evenodd" fill="white"
      d="M34.3403 14.3698C34.3403 14.2316 34.2249 14.1182 34.0843 14.1182C33.9436 14.1182 33.8282 14.2316 33.8282 14.3698V14.5753C33.8282 14.7135 33.9436 14.8269 34.0843 14.8269C34.2249 14.8269 34.3403 14.7135 34.3403 14.5753V14.3698Z"/>
    <path fill-rule="evenodd" clip-rule="evenodd" fill="white"
      d="M33.5721 16.191C33.5721 16.0528 33.4567 15.9395 33.3161 15.9395C33.1754 15.9395 33.06 16.0528 33.06 16.191V16.3966C33.06 16.5348 33.1754 16.6482 33.3161 16.6482C33.4567 16.6482 33.5721 16.5348 33.5721 16.3966V16.191Z"/>
    <path fill-rule="evenodd" clip-rule="evenodd" fill="white"
      d="M34.3403 15.2804C34.3403 15.1422 34.2249 15.0288 34.0843 15.0288C33.9436 15.0288 33.8282 15.1422 33.8282 15.2804V15.4859C33.8282 15.6241 33.9436 15.7375 34.0843 15.7375C34.2249 15.7375 34.3403 15.6241 34.3403 15.4859V15.2804Z"/>
  </g>
  <defs>
    <linearGradient id="paint0_linear_50687_8227" x1="33.3124" y1="8.19337"
      x2="33.3124" y2="57.8032" gradientUnits="userSpaceOnUse">
      <stop stop-color="#2B5DB8"/>
      <stop offset="1" stop-color="#36C9E1"/>
    </linearGradient>
    <linearGradient id="paint1_linear_50687_8227" x1="33.4495" y1="29.4548"
      x2="33.4495" y2="36.8962" gradientUnits="userSpaceOnUse">
      <stop stop-color="#2B5DB8"/>
      <stop offset="1" stop-color="#36C9E1"/>
    </linearGradient>
    <clipPath id="clip0_50687_8227">
      <rect width="43.9999" height="49.4999" fill="white"
        transform="translate(11.3125 8.25)"/>
    </clipPath>
  </defs>
</svg>
