<svg width="57" height="57" viewBox="0 0 57 57" fill="none" xmlns="http://www.w3.org/2000/svg">
<g clip-path="url(#clip0_1193_25484)">
<mask id="mask0_1193_25484" style="mask-type:luminance" maskUnits="userSpaceOnUse" x="0" y="5" width="47" height="47">
<path d="M47 5H0V52H47V5Z" fill="white"/>
</mask>
<g mask="url(#mask0_1193_25484)">
<path d="M43.0023 39.34C42.8523 39.6 42.7223 39.84 42.5723 40.08C41.8423 41.27 40.9423 42.33 39.9223 43.28C38.5123 44.6 36.9623 45.72 35.2423 46.61C33.6023 47.46 31.8723 48.08 30.0623 48.51C28.6823 48.83 27.2923 49.01 25.8823 49.05C23.0423 49.12 20.2923 48.64 17.6423 47.61C15.1723 46.65 12.9423 45.3 10.9723 43.52C9.07234 41.8 7.53234 39.8 6.34234 37.53C5.37234 35.66 4.70234 33.7 4.30234 31.64C4.13234 30.76 4.06234 29.86 3.96234 28.97C3.89234 28.34 3.91234 27.71 3.90234 27.08C3.90234 26.84 3.95234 26.6 3.97234 26.37C4.05234 25.32 4.19234 24.27 4.40234 23.24C5.08234 19.95 6.47234 16.99 8.60234 14.37C9.98234 12.67 11.5823 11.19 13.4023 9.97C15.2423 8.73 17.2323 7.82 19.3723 7.2C20.6123 6.84 21.8723 6.59 23.1523 6.45C23.9423 6.37 24.7323 6.32 25.5323 6.34C28.7423 6.39 31.7923 7.11 34.6823 8.48C35.0823 8.67 35.4723 8.88 35.8623 9.08C35.9223 9.11 35.9523 9.11 36.0123 9.06C37.0123 8.11 38.0123 7.16 39.0123 6.21C39.0923 6.14 39.1723 6.06 39.2623 5.97C40.4623 10.27 41.6223 14.56 42.7623 18.86C42.7623 18.87 42.7423 18.88 42.7323 18.9C38.4123 17.73 34.0823 16.57 29.7323 15.39C30.6323 14.46 31.5123 13.55 32.4023 12.62C32.0523 12.47 31.7223 12.33 31.3823 12.19C29.9923 11.63 28.5423 11.28 27.0523 11.13C23.3723 10.75 19.9323 11.49 16.7523 13.4C15.5723 14.11 14.4923 14.95 13.5223 15.93C12.3323 17.13 11.3623 18.49 10.5723 19.99C9.69234 21.65 9.11234 23.41 8.80234 25.26C8.68234 25.98 8.61234 26.7 8.60234 27.42C8.57234 30.02 9.11234 32.5 10.2423 34.85C11.0123 36.46 12.0323 37.89 13.2523 39.18C14.6023 40.61 16.1423 41.78 17.9023 42.66C19.3923 43.4 20.9623 43.88 22.6023 44.14C23.4023 44.27 24.2023 44.33 25.0123 44.35C27.2123 44.4 29.3523 44.07 31.4023 43.26C33.2423 42.53 34.8923 41.48 36.3423 40.15C36.9223 39.62 37.4623 39.04 38.0223 38.48C38.1623 38.33 38.3223 38.28 38.5223 38.33C39.9523 38.66 41.3923 38.99 42.8323 39.32C42.8723 39.33 42.9223 39.35 42.9923 39.37L43.0023 39.34Z" fill="#9FC0FF"/>
<path d="M20.1222 50.1C17.5122 50.1 14.8822 49.06 12.3022 47C10.3122 45.41 7.40222 42.66 4.86222 38.55L4.69221 38.28C2.01221 34.27 0.712215 30.48 0.0922151 28.01C-1.81778 20.33 2.12222 16.84 3.90222 15.69C4.59222 15.24 5.54222 14.98 6.43222 14.98C6.77222 14.98 7.11222 15.02 7.44222 15.09C7.90222 15.18 8.19221 15.25 8.54222 15.34C10.1022 15.68 11.0522 16.57 11.3222 17.98C11.4022 18.38 11.6422 19.43 11.8922 20.5C12.1922 21.77 12.4722 22.96 12.5422 23.39C12.7322 24.48 12.3222 26.01 10.9622 26.98C10.3122 27.45 9.87222 27.79 9.57222 28.03C9.41222 28.16 9.28222 28.26 9.19222 28.33C9.19222 28.33 8.77222 28.91 9.22222 30.18C9.67222 31.44 10.7122 33.3 11.3122 34.23C11.9122 35.16 13.1822 36.88 14.1322 37.81C14.8322 38.5 15.4022 38.6 15.6822 38.6C15.8022 38.6 15.8622 38.58 15.8622 38.58C15.9122 38.55 16.0522 38.48 16.2322 38.38C16.5722 38.21 17.0722 37.95 17.7622 37.55C18.3622 37.21 19.0322 37.02 19.7122 37.02C20.4422 37.02 21.1422 37.23 21.6822 37.6C22.0422 37.85 23.0122 38.6 24.0422 39.39C24.9122 40.06 25.7622 40.72 26.1022 40.96C27.2722 41.79 27.6922 43.02 27.3422 44.62C27.2822 44.94 27.2222 45.23 27.1122 45.71C26.8222 47.11 25.8822 48.15 25.1022 48.65C24.0822 49.31 22.3822 50.1 20.1322 50.1H20.1222Z" fill="#FECE4D"/>
<path d="M6.43051 15.98C6.68051 15.98 6.95051 16.01 7.22051 16.07C7.68051 16.16 7.96051 16.23 8.29051 16.31C9.64051 16.6 10.1705 17.3 10.3305 18.16C10.5005 19.03 11.4205 22.79 11.5505 23.56C11.6805 24.33 11.3705 25.45 10.3705 26.16C9.37051 26.87 8.86051 27.31 8.58051 27.51C8.30051 27.71 7.62051 28.74 8.26051 30.5C8.76051 31.89 9.87051 33.85 10.4505 34.75C11.0305 35.65 12.3605 37.48 13.4105 38.51C14.2905 39.37 15.1105 39.58 15.6505 39.58C15.9405 39.58 16.1605 39.52 16.2605 39.46C16.5605 39.29 17.1705 39.01 18.2305 38.4C18.7105 38.12 19.2205 38.01 19.6805 38.01C20.2405 38.01 20.7405 38.17 21.0905 38.41C21.7305 38.85 24.7805 41.25 25.4905 41.76C26.2105 42.27 26.6205 43.04 26.3305 44.39C26.2705 44.73 26.2105 45.01 26.1105 45.46C25.8705 46.63 25.0705 47.45 24.5405 47.79C23.4105 48.52 21.9005 49.08 20.1105 49.08C18.0405 49.08 15.5805 48.33 12.9205 46.2C8.38051 42.58 5.93051 38.35 5.61051 37.86C5.30051 37.37 2.46051 33.39 1.05051 27.75C-0.489492 21.59 1.99051 18.08 4.43051 16.52C4.84051 16.26 5.57051 15.97 6.42051 15.97M6.42051 13.97C4.87051 13.97 3.76051 14.58 3.35051 14.84C-2.69949 18.75 -1.40949 26.09 -0.869493 28.25C-0.229493 30.8 1.11051 34.71 3.87051 38.84L3.95051 38.96L4.03051 39.08C6.64051 43.31 9.64051 46.15 11.7005 47.78C14.4605 49.98 17.3005 51.1 20.1405 51.1C22.6305 51.1 24.5105 50.23 25.6505 49.5C26.5905 48.89 27.7305 47.64 28.0905 45.92C28.2005 45.45 28.2605 45.15 28.3205 44.8C28.8805 42.16 27.5305 40.76 26.6705 40.15C26.3705 39.93 25.4505 39.23 24.6505 38.61C23.3905 37.64 22.6005 37.03 22.2405 36.78C21.5405 36.3 20.6305 36.03 19.7005 36.03C18.8405 36.03 18.0005 36.26 17.2505 36.69C16.5805 37.08 16.1005 37.32 15.7605 37.5C15.6905 37.53 15.6305 37.56 15.5805 37.59C15.4505 37.56 15.1805 37.45 14.8205 37.1C13.9305 36.23 12.7005 34.55 12.1405 33.69C11.5905 32.83 10.5705 31.01 10.1505 29.84C9.98051 29.37 9.99051 29.08 10.0205 28.95C10.0705 28.91 10.1205 28.87 10.1805 28.82C10.4805 28.58 10.9005 28.25 11.5305 27.8C13.2505 26.58 13.7705 24.62 13.5205 23.22C13.4505 22.8 13.2205 21.83 12.8605 20.28C12.6305 19.29 12.3605 18.16 12.2905 17.79C12.1005 16.76 11.3805 14.95 8.75051 14.36C8.40051 14.27 8.10051 14.2 7.61051 14.1C7.26051 14.02 6.84051 13.97 6.43051 13.97H6.42051Z" fill="white"/>
<path d="M23.2481 31.09C23.2281 30.93 23.2181 30.78 23.1981 30.63C23.1581 30.23 23.1181 29.83 23.0781 29.43C23.0781 29.34 23.0881 29.27 23.1381 29.2C24.6181 27.17 26.0981 25.14 27.5781 23.1C27.6181 23.04 27.6681 23.01 27.7381 23.02C28.4181 23.02 29.0981 23.02 29.7781 23.02H29.8881V29.03H31.0581C30.9981 29.72 30.9381 30.39 30.8781 31.08H29.8981V33.31H27.5581V31.08H23.2281L23.2481 31.09ZM27.5681 26.47C27.5681 26.47 27.5581 26.47 27.5481 26.47C26.9681 27.32 26.3881 28.18 25.7981 29.05H27.5681V26.48V26.47Z" fill="#3D7FFC"/>
<path d="M17.3986 26.32C16.7886 25.89 16.1786 25.46 15.5586 25.02C16.3086 23.88 17.2786 23.07 18.6686 22.85C19.3886 22.74 20.0886 22.78 20.7586 23.07C21.8786 23.55 22.4686 24.41 22.5386 25.63C22.5786 26.5 22.3086 27.28 21.8686 28.02C21.4986 28.64 21.0486 29.19 20.5686 29.73C20.1986 30.15 19.7986 30.55 19.4186 30.96C19.3986 30.98 19.3786 31 19.3486 31.04H22.5686C22.4986 31.81 22.4386 32.57 22.3686 33.33H15.9286C15.9286 33.33 15.9286 33.27 15.9286 33.23C15.9286 32.68 15.9286 32.14 15.9286 31.59C15.9286 31.52 15.9486 31.48 15.9986 31.43C16.9386 30.39 17.8786 29.36 18.8086 28.32C19.1686 27.92 19.4786 27.48 19.7286 27.01C19.8786 26.74 19.9786 26.45 20.0086 26.14C20.0586 25.5 19.6086 25.07 18.9686 25.15C18.5186 25.2 18.1586 25.44 17.8586 25.77C17.6986 25.95 17.5586 26.14 17.3986 26.34V26.32Z" fill="#3D7FFC"/>
<path d="M42.5505 33.65C41.6905 33.47 40.8305 33.3 39.9705 33.12C41.0705 30.47 42.1605 27.83 43.2605 25.17H39.2305C39.2905 24.45 39.3505 23.74 39.4105 23.02H45.7805V23.11C45.7805 23.66 45.7805 24.2 45.7805 24.75C45.7805 24.8 45.7805 24.85 45.7605 24.89C44.7005 27.78 43.6405 30.68 42.5805 33.57C42.5805 33.59 42.5605 33.62 42.5505 33.65Z" fill="#3D7FFC"/>
<path d="M31.4805 33.3C31.5705 33.11 31.6505 32.94 31.7405 32.77C32.8905 30.41 34.0305 28.06 35.1805 25.7C35.7605 24.51 36.3305 23.33 36.9105 22.14C36.9405 22.07 36.9805 22.06 37.0505 22.06C37.5905 22.11 38.1305 22.16 38.6705 22.2C38.7905 22.21 38.9105 22.22 39.0405 22.23C38.9705 22.38 38.9005 22.53 38.8305 22.68C37.7105 24.98 36.5905 27.29 35.4705 29.59C34.8505 30.86 34.2305 32.13 33.6205 33.4C33.6005 33.44 33.5805 33.47 33.5205 33.47C32.8505 33.41 32.1805 33.35 31.4805 33.29V33.3Z" fill="#3D7FFC"/>
</g>
</g>
<defs>
<clipPath id="clip0_1193_25484">
<rect width="47" height="47" fill="white" transform="translate(0 5)"/>
</clipPath>
</defs>
</svg>
