<svg width="57" height="57" viewBox="0 0 57 57" fill="none" xmlns="http://www.w3.org/2000/svg">
<g clip-path="url(#clip0_1193_25395)">
<mask id="mask0_1193_25395" style="mask-type:luminance" maskUnits="userSpaceOnUse" x="5" y="2" width="37" height="24">
<path d="M8.93063 1.99992L5.43359 19.485L37.9148 25.9813L41.4118 8.4962L8.93063 1.99992Z" fill="white"/>
</mask>
<g mask="url(#mask0_1193_25395)">
<path d="M35.8482 36.2564C35.6783 36.4476 35.5296 36.6281 35.3703 36.798C34.5631 37.6689 33.6392 38.4017 32.6303 39.0283C31.239 39.8991 29.7628 40.5682 28.1804 41.0249C26.6723 41.4603 25.1218 41.6939 23.55 41.747C22.3499 41.7895 21.1604 41.7046 19.971 41.5028C17.592 41.0886 15.383 40.2284 13.3546 38.9327C11.4535 37.722 9.82864 36.2245 8.47988 34.4191C7.18421 32.6668 6.22839 30.7551 5.62304 28.6629C5.12389 26.9531 4.89024 25.2007 4.91148 23.4165C4.91148 22.6519 5.00706 21.8979 5.07079 21.1332C5.12389 20.5916 5.24071 20.0712 5.33629 19.5508C5.37877 19.349 5.46373 19.1685 5.51684 18.9667C5.7611 18.1064 6.04785 17.2568 6.39831 16.4284C7.51344 13.8052 9.17019 11.5644 11.3686 9.7377C12.8023 8.54824 14.3741 7.5818 16.0946 6.87024C17.8363 6.14807 19.6417 5.71264 21.5215 5.55333C22.6154 5.45775 23.6987 5.45775 24.7925 5.55333C25.4616 5.61706 26.1307 5.71264 26.7891 5.8507C29.4548 6.42419 31.8656 7.5287 34.0534 9.15359C34.3507 9.37661 34.6481 9.61026 34.9348 9.85452C34.9773 9.88639 35.0092 9.89701 35.0623 9.85452C36.05 9.22793 37.0377 8.60134 38.036 7.98537C38.1103 7.93226 38.1846 7.88978 38.2908 7.82606C38.5776 11.6069 38.8325 15.377 39.0555 19.1472C39.0555 19.1472 39.0343 19.1685 39.0236 19.1791C35.6145 17.4905 32.2161 15.8018 28.7857 14.092C29.6885 13.4654 30.5699 12.8494 31.462 12.2335C31.1965 12.0529 30.9416 11.8724 30.6868 11.7024C29.6141 11.0015 28.4778 10.4705 27.2564 10.0988C24.2509 9.17483 21.2666 9.21731 18.293 10.2687C17.1885 10.6617 16.1583 11.1821 15.1812 11.8405C13.9918 12.6476 12.951 13.6141 12.0483 14.7292C11.0393 15.9612 10.2641 17.3312 9.7012 18.8286C9.4888 19.4021 9.30825 19.9968 9.18081 20.5916C8.72414 22.7581 8.76662 24.9034 9.30825 27.0487C9.67996 28.5143 10.2959 29.8736 11.0925 31.1587C11.9739 32.5712 13.0678 33.8031 14.3847 34.8227C15.4998 35.6829 16.7318 36.352 18.0487 36.8405C18.6965 37.0742 19.3444 37.2653 20.0134 37.414C21.8401 37.8176 23.6668 37.9025 25.5147 37.5733C27.1715 37.2653 28.7114 36.6706 30.1451 35.8103C30.7186 35.4599 31.2603 35.0776 31.8231 34.6952C31.9718 34.5996 32.0992 34.5784 32.2585 34.6527C33.3949 35.1731 34.5419 35.6829 35.6783 36.1927C35.7101 36.2033 35.742 36.2245 35.8057 36.2564H35.8482Z" fill="#FECE4D"/>
</g>
<mask id="mask1_1193_25395" style="mask-type:luminance" maskUnits="userSpaceOnUse" x="1" y="27" width="38" height="30">
<path d="M7.34755 27.9815L1.1875 44.7151L32.2726 56.1583L38.4326 39.4248L7.34755 27.9815Z" fill="white"/>
</mask>
<g mask="url(#mask1_1193_25395)">
<path d="M10.9677 18.1477C11.1589 17.9884 11.3394 17.8291 11.5306 17.691C12.4652 16.9582 13.4847 16.3741 14.5786 15.9174C16.0867 15.2802 17.6585 14.8448 19.2833 14.6324C20.8445 14.4306 22.4057 14.4519 23.9669 14.6324C25.1563 14.7811 26.3246 15.0466 27.4609 15.4289C29.7443 16.2042 31.794 17.3937 33.5994 18.9973C35.288 20.4841 36.6686 22.2152 37.7094 24.2118C38.7184 26.1447 39.3662 28.1838 39.6423 30.3397C39.8653 32.1133 39.8229 33.8762 39.5361 35.6392C39.4087 36.3932 39.2069 37.126 39.0263 37.8694C38.8989 38.3898 38.6971 38.889 38.5166 39.3988C38.4528 39.5899 38.336 39.7598 38.2511 39.951C37.8794 40.7688 37.4652 41.5547 36.9873 42.3193C35.4792 44.7407 33.5038 46.6948 31.0399 48.1604C29.4363 49.1163 27.737 49.8172 25.921 50.2632C24.0943 50.7093 22.2358 50.858 20.356 50.7199C19.2621 50.6456 18.1895 50.4756 17.1274 50.2101C16.469 50.0402 15.8318 49.849 15.1946 49.6048C12.6563 48.6277 10.4367 47.1621 8.53569 45.2186C8.27018 44.9531 8.02592 44.6664 7.77103 44.3903C7.72855 44.3478 7.70731 44.3372 7.65421 44.3584C6.58157 44.8257 5.50892 45.2824 4.43628 45.7496C4.35132 45.7815 4.26636 45.824 4.16016 45.8665C4.46814 42.0857 4.79737 38.3261 5.15846 34.5665C5.15846 34.5665 5.1797 34.5559 5.19032 34.5453C8.29142 36.7437 11.3925 38.9421 14.5255 41.1511C13.5378 41.629 12.5714 42.0963 11.5837 42.5742C11.8173 42.7972 12.0404 43.0096 12.274 43.2114C13.2192 44.061 14.2706 44.7726 15.4176 45.3355C18.2426 46.7161 21.2056 47.1303 24.2961 46.5462C25.4431 46.3338 26.5476 45.9727 27.6096 45.4735C28.9053 44.8682 30.0841 44.061 31.1461 43.1052C32.3356 42.0432 33.3127 40.8112 34.0986 39.42C34.4065 38.889 34.672 38.3261 34.8845 37.7526C35.6703 35.6923 35.9677 33.5576 35.7553 31.3486C35.6172 29.8406 35.2137 28.4068 34.6296 27.0156C33.9711 25.4756 33.0896 24.095 31.9427 22.8843C30.9762 21.8648 29.8611 21.0151 28.6291 20.3248C28.0344 19.985 27.4078 19.6982 26.7706 19.454C25.0289 18.7637 23.2341 18.4026 21.3543 18.4451C19.6763 18.4875 18.0514 18.838 16.5009 19.4752C15.8849 19.7301 15.2795 20.0275 14.6742 20.3142C14.5149 20.3886 14.3768 20.3779 14.2387 20.293C13.1873 19.6027 12.1466 18.923 11.0952 18.2433C11.0633 18.222 11.0314 18.2008 10.9783 18.1583L10.9677 18.1477Z" fill="#FECE4D"/>
</g>
<path fill-rule="evenodd" clip-rule="evenodd" d="M2.92971 27.5579C1.46412 26.1029 0.550781 24.1063 0.550781 21.8973C0.550781 17.4793 4.1829 13.8897 8.66463 13.8897C13.1464 13.8897 16.7785 17.4687 16.7785 21.8973C16.7785 24.1063 15.8651 26.1135 14.3995 27.5579L8.66463 33.2185L2.92971 27.5579Z" fill="#9FC0FF"/>
<path fill-rule="evenodd" clip-rule="evenodd" d="M1.13297 29.3632C-0.789295 27.4621 -2 24.8177 -2 21.8865C-2 16.0242 2.80034 11.33 8.6627 11.33C14.5251 11.33 19.3254 16.0242 19.3254 21.8865C19.3254 24.8071 18.1147 27.4621 16.1924 29.3632L8.67332 36.7867L1.14359 29.3525L1.13297 29.3632ZM14.3976 27.5577C15.8632 26.1134 16.7766 24.1062 16.7766 21.8971C16.7766 17.4685 13.1444 13.8895 8.6627 13.8895C4.18097 13.8895 0.548853 17.4791 0.548853 21.8971C0.548853 24.1062 1.46219 26.1134 2.92778 27.5577L8.6627 33.2183L14.3976 27.5577Z" fill="white"/>
<path fill-rule="evenodd" clip-rule="evenodd" d="M31.6016 36.0541C30.136 34.5991 29.2227 32.6025 29.2227 30.3935C29.2227 25.9755 32.8548 22.3858 37.3365 22.3858C41.8182 22.3858 45.4504 25.9649 45.4504 30.3935C45.4504 32.6025 44.537 34.6097 43.0714 36.0541L37.3365 41.7146L31.6016 36.0541Z" fill="#3D7FFC"/>
<path fill-rule="evenodd" clip-rule="evenodd" d="M29.8087 37.8593C27.8865 35.9583 26.6758 33.3139 26.6758 30.3827C26.6758 24.5203 31.4761 19.8262 37.3385 19.8262C43.2008 19.8262 48.0012 24.5203 48.0012 30.3827C48.0012 33.3033 46.7905 35.9583 44.8682 37.8593L37.3491 45.2829L29.8194 37.8487L29.8087 37.8593ZM43.0734 36.0539C44.539 34.6096 45.4523 32.6023 45.4523 30.3933C45.4523 25.9647 41.8202 22.3857 37.3385 22.3857C32.8568 22.3857 29.2246 25.9753 29.2246 30.3933C29.2246 32.6023 30.138 34.6096 31.6036 36.0539L37.3385 41.7145L43.0734 36.0539Z" fill="white"/>
</g>
<defs>
<clipPath id="clip0_1193_25395">
<rect width="47.07" height="51" fill="white" transform="translate(0 3)"/>
</clipPath>
</defs>
</svg>
