<svg width="47" height="47" viewBox="0 0 47 47" fill="none" xmlns="http://www.w3.org/2000/svg">
<g id="Property 1=Data Quality" clip-path="url(#clip0_173_40286)">
<g id="Group 114061">
<g id="Frame 113526" clip-path="url(#clip1_173_40286)">
<g id="Group 114104">
<g id="Layer_1" clip-path="url(#clip2_173_40286)">
<path id="Vector" fill-rule="evenodd" clip-rule="evenodd" d="M36.07 6.13496C36.07 7.81687 34.3094 9.25443 30.7909 10.4502C27.2723 11.6642 23.023 12.2699 18.0481 12.2699C13.0733 12.2699 8.79794 11.6642 5.27938 10.4502C1.76082 9.25443 0.000244141 7.81687 0.000244141 6.13496C0.000244141 4.45304 1.76082 3.00769 5.27938 1.79369C8.79794 0.597898 13.0551 0 18.0481 0C23.0412 0 27.2723 0.597898 30.7909 1.79369C34.3094 3.00769 36.07 4.45304 36.07 6.13496Z" fill="#3D7FFC"/>
<path id="Vector_2" fill-rule="evenodd" clip-rule="evenodd" d="M36.018 10.6838V19.9902C35.1 20.5439 33.9037 21.0743 32.4292 21.576C28.4582 22.9615 23.6653 23.6556 18.0481 23.6556C12.4309 23.6556 7.60168 22.9615 3.61502 21.576C2.1249 21.0743 0.918242 20.5362 0.000244141 19.9642V10.6318C0.918242 11.2037 2.1249 11.7418 3.61502 12.2436C7.60168 13.6291 12.4127 14.3232 18.0481 14.3232C23.6835 14.3232 28.4582 13.6291 32.4292 12.2436C33.9037 11.7418 35.1 11.2219 36.018 10.6838Z" fill="#9FC0FF"/>
<path id="Vector_3" fill-rule="evenodd" clip-rule="evenodd" d="M0.000244141 43.309V33.9766C0.918242 34.5485 2.1249 35.0866 3.61502 35.5883C7.60168 36.9739 12.4127 37.6679 18.0481 37.6679C23.6835 37.6679 28.4582 36.9739 32.4292 35.5883C33.9037 35.0866 35.1 34.5667 36.018 34.0286V43.335C35.1 43.8887 33.9037 44.419 32.4292 44.9207C28.4582 46.3063 23.6653 47.0003 18.0481 47.0003C12.4309 47.0003 7.60168 46.3063 3.61502 44.9207C2.1249 44.419 0.918242 43.8809 0.000244141 43.309Z" fill="#9FC0FF"/>
<path id="Vector_4" fill-rule="evenodd" clip-rule="evenodd" d="M0.000244141 31.6371V22.3047C0.918242 22.8766 2.1249 23.4147 3.61502 23.9164C7.60168 25.302 12.4127 25.9961 18.0481 25.9961C23.6835 25.9961 28.4582 25.302 32.4292 23.9164C33.9037 23.4147 35.1 22.8948 36.018 22.3567V31.6631C35.1 32.2168 33.9037 32.7471 32.4292 33.2488C28.4582 34.6344 23.6653 35.3285 18.0481 35.3285C12.4309 35.3285 7.60168 34.6344 3.61502 33.2488C2.1249 32.7471 0.918242 32.209 0.000244141 31.6371Z" fill="#9FC0FF"/>
</g>
</g>
<path id="Vector_5" d="M46.8937 25.317L46.8923 24.4983L46.0895 24.338L36.8421 22.492L36.6445 22.4526L36.4472 22.4927L27.1995 24.372L26.3973 24.535L26.3987 25.3536L26.4151 35.1425L26.4151 35.1438C26.4238 38.0992 27.2406 40.6585 28.9343 42.7861C30.617 44.8998 33.1054 46.5125 36.3344 47.698L36.6807 47.8252L37.0267 47.6969C40.2476 46.5026 42.7312 44.8812 44.409 42.7613C46.0977 40.6275 46.9101 38.0639 46.9101 35.1076L46.9101 35.1059L46.8937 25.317Z" fill="#FECE4D" stroke="white" stroke-width="2"/>
<path id="Vector_6" fill-rule="evenodd" clip-rule="evenodd" d="M35.8481 35.2282L33.6176 32.9977L31.9885 34.6268L35.8481 38.4863L37.4772 36.8573L42.5051 31.8293L40.876 30.2002L35.8481 35.2282Z" fill="white"/>
</g>
</g>
</g>
<defs>
<clipPath id="clip0_173_40286">
<rect width="47" height="47" fill="white"/>
</clipPath>
<clipPath id="clip1_173_40286">
<rect width="47" height="47" fill="white" transform="translate(0.000244141)"/>
</clipPath>
<clipPath id="clip2_173_40286">
<rect width="36.0698" height="47" fill="white" transform="translate(0.000244141)"/>
</clipPath>
</defs>
</svg>
