<svg width="56" height="56" viewBox="0 0 56 56" fill="none" xmlns="http://www.w3.org/2000/svg">
<rect width="56" height="56" rx="9.33333" fill="#15C1E6" fill-opacity="0.05"/>
<mask id="mask0_1217_36590" style="mask-type:alpha" maskUnits="userSpaceOnUse" x="6" y="9" width="41" height="41">
<rect x="6.66406" y="9.33337" width="40" height="40" fill="#F5EFEF"/>
</mask>
<g mask="url(#mask0_1217_36590)">
<path d="M16.6641 18.3301C16.6641 17.7796 17.1103 17.3334 17.6608 17.3334H39.5893C40.1398 17.3334 40.586 17.7796 40.586 18.3301V22.3171C40.586 22.8676 40.1398 23.3139 39.5893 23.3139H17.6608C17.1103 23.3139 16.6641 22.8676 16.6641 22.3171V18.3301Z" fill="#57BEE2"/>
<path fill-rule="evenodd" clip-rule="evenodd" d="M27.3539 31.2885H17.6608C17.1103 31.2885 16.6641 30.8422 16.6641 30.2917V27.6834C17.7527 27.0971 18.9982 26.7645 20.3213 26.7645C23.4459 26.7645 26.1372 28.6196 27.3539 31.2885ZM29.4344 31.2885C28.4422 28.4635 26.1736 26.2394 23.3206 25.308H39.5893C40.1398 25.308 40.586 25.7542 40.586 26.3047V30.2917C40.586 30.8422 40.1398 31.2885 39.5893 31.2885H29.4344Z" fill="#75D1ED"/>
<path fill-rule="evenodd" clip-rule="evenodd" d="M26.3966 39.2611H17.6608C17.1103 39.2611 16.6641 38.8149 16.6641 38.2644V34.2774C16.6641 33.7269 17.1103 33.2806 17.6608 33.2806H27.9522C28.014 33.6745 28.0462 34.0782 28.0462 34.4894C28.0462 36.2904 27.4298 37.9474 26.3966 39.2611ZM29.9026 33.2806C29.9521 33.6766 29.9775 34.08 29.9775 34.4894C29.9775 36.2243 29.5189 37.8537 28.7176 39.2611H39.5893C40.1398 39.2611 40.586 38.8149 40.586 38.2644V34.2774C40.586 33.7269 40.1398 33.2806 39.5893 33.2806H29.9026Z" fill="#98DEF4"/>
<path fill-rule="evenodd" clip-rule="evenodd" d="M14.859 39.9518C13.4605 38.5538 12.5954 36.6221 12.5954 34.4885C12.5954 30.2221 16.054 26.7636 20.3203 26.7636C24.5866 26.7636 28.0452 30.2221 28.0452 34.4885C28.0452 36.6221 27.1802 38.5536 25.7818 39.9516L25.7828 39.9526L20.3205 45.4149L14.8582 39.9526L14.859 39.9518Z" fill="#15C1E6"/>
</g>
</svg>
