<svg width="47" height="47" viewBox="0 0 47 47" fill="none" xmlns="http://www.w3.org/2000/svg">
<g id="Property 1=Complete Data Coverage" clip-path="url(#clip0_173_40285)">
<g id="Group 114061">
<g id="Frame 113526" clip-path="url(#clip1_173_40285)">
<g id="Group 114103">
<path id="Vector" d="M47.0001 34.9267C47.0001 39.8527 38.7249 43.9511 27.7998 44.8157V39.9214C36.4183 39.2069 42.8525 36.3909 42.8525 33.0257C42.8525 30.8665 40.2032 28.9337 36.0285 27.6368C36.3147 27.3156 36.5985 26.9883 36.8762 26.6571C42.9935 28.4729 47.0001 31.4992 47.0001 34.9267ZM17.8427 39.7892C9.9151 38.9049 4.14786 36.2117 4.14786 33.0256C4.14786 30.8644 6.8023 28.93 10.9839 27.633C10.6911 27.3017 10.4092 26.9743 10.1402 26.6523C4.01394 28.4676 0.000244141 31.4963 0.000244141 34.9267C0.000244141 39.6464 7.59727 43.6058 17.8427 44.6898V46.6523L26.6846 42.2634L17.8427 37.8745V39.7892Z" fill="#FECE4D"/>
</g>
<g id="Group 114209">
<rect id="Rectangle 8651" x="8.59277" y="3.34838" width="29.3675" height="34.333" rx="3.51133" fill="#9FC0FF" stroke="white" stroke-width="2.05714"/>
<g id="Group 114085">
<g id="Union">
<mask id="path-3-outside-1_173_40285" maskUnits="userSpaceOnUse" x="13.8284" y="-1.34766" width="19" height="12" fill="black">
<rect fill="white" x="13.8284" y="-1.34766" width="19" height="12"/>
<path fill-rule="evenodd" clip-rule="evenodd" d="M25.7547 3.13477H29.4835C30.1691 3.13477 30.7249 3.69055 30.7249 4.37614V6.8589C30.7249 7.54449 30.1691 8.10028 29.4835 8.10028H17.0697C16.3842 8.10028 15.8284 7.54449 15.8284 6.8589V4.37614C15.8284 3.69055 16.3842 3.13477 17.0697 3.13477H20.7892C20.7894 1.76373 21.9009 0.652344 23.2719 0.652344C24.643 0.652344 25.7545 1.76373 25.7547 3.13477Z"/>
</mask>
<path fill-rule="evenodd" clip-rule="evenodd" d="M25.7547 3.13477H29.4835C30.1691 3.13477 30.7249 3.69055 30.7249 4.37614V6.8589C30.7249 7.54449 30.1691 8.10028 29.4835 8.10028H17.0697C16.3842 8.10028 15.8284 7.54449 15.8284 6.8589V4.37614C15.8284 3.69055 16.3842 3.13477 17.0697 3.13477H20.7892C20.7894 1.76373 21.9009 0.652344 23.2719 0.652344C24.643 0.652344 25.7545 1.76373 25.7547 3.13477Z" fill="#3D7FFC"/>
<path d="M25.7547 3.13477L24.0359 3.13499L24.0361 4.8536H25.7547V3.13477ZM20.7892 3.13477V4.8536H22.5078L22.508 3.13499L20.7892 3.13477ZM25.7547 4.8536H29.4835V1.41593H25.7547V4.8536ZM29.4835 4.8536C29.2198 4.8536 29.0061 4.63983 29.0061 4.37614H32.4437C32.4437 2.74127 31.1184 1.41593 29.4835 1.41593V4.8536ZM29.0061 4.37614V6.8589H32.4437V4.37614H29.0061ZM29.0061 6.8589C29.0061 6.59521 29.2198 6.38145 29.4835 6.38145V9.81911C31.1184 9.81911 32.4437 8.49378 32.4437 6.8589H29.0061ZM29.4835 6.38145H17.0697V9.81911H29.4835V6.38145ZM17.0697 6.38145C17.3334 6.38145 17.5472 6.59521 17.5472 6.8589H14.1095C14.1095 8.49378 15.4349 9.81911 17.0697 9.81911V6.38145ZM17.5472 6.8589V4.37614H14.1095V6.8589H17.5472ZM17.5472 4.37614C17.5472 4.63983 17.3334 4.8536 17.0697 4.8536V1.41593C15.4349 1.41593 14.1095 2.74126 14.1095 4.37614H17.5472ZM17.0697 4.8536H20.7892V1.41593H17.0697V4.8536ZM22.508 3.13499C22.5081 2.71314 22.8501 2.37117 23.2719 2.37117V-1.06649C20.9517 -1.06649 19.0707 0.814321 19.0704 3.13454L22.508 3.13499ZM23.2719 2.37117C23.6938 2.37117 24.0358 2.71314 24.0359 3.13499L27.4735 3.13454C27.4732 0.814321 25.5922 -1.06649 23.2719 -1.06649V2.37117Z" fill="white" mask="url(#path-3-outside-1_173_40285)"/>
</g>
<circle id="Ellipse 2491" cx="23.2768" cy="3.13493" r="1.24138" fill="white"/>
</g>
<g id="Group 114089">
<g id="Frame 113520">
<g id="Group 114087">
<path id="Vector_2" fill-rule="evenodd" clip-rule="evenodd" d="M15.6881 15.7333L14.3357 14.3808L13.3479 15.3686L15.6881 17.7089L16.6759 16.7211L19.7246 13.6724L18.7368 12.6846L15.6881 15.7333Z" fill="white"/>
<rect id="Rectangle 8653" x="21.4198" y="14.5469" width="11.7931" height="1.86207" fill="white"/>
</g>
<g id="Group 114086">
<path id="Vector_3" fill-rule="evenodd" clip-rule="evenodd" d="M15.6881 23.2401L14.3357 21.8877L13.3479 22.8755L15.6881 25.2157L16.6759 24.2279L19.7246 21.1792L18.7368 20.1914L15.6881 23.2401Z" fill="white"/>
<rect id="Rectangle 8654" x="21.4198" y="22.0537" width="11.7931" height="1.86207" fill="white"/>
</g>
<g id="Group 114088">
<path id="Vector_4" fill-rule="evenodd" clip-rule="evenodd" d="M15.6881 30.7469L14.3357 29.3945L13.3479 30.3823L15.6881 32.7225L16.6759 31.7347L19.7246 28.686L18.7368 27.6982L15.6881 30.7469Z" fill="white"/>
<rect id="Rectangle 8654_2" x="21.4198" y="29.5605" width="11.7931" height="1.86207" fill="white"/>
</g>
</g>
</g>
</g>
<g id="Group 114210">
<path id="Vector_5" d="M17.8427 39.7895C9.9151 38.9053 4.14786 36.212 4.14786 33.026C4.14786 33.1527 0.000244141 31.1527 0.000244141 34.927C0.000244141 39.6467 7.59727 43.6062 17.8427 44.6901V46.6527L26.6846 42.2638L17.8427 37.8749V39.7895Z" fill="#FECE4D"/>
</g>
</g>
</g>
</g>
<defs>
<clipPath id="clip0_173_40285">
<rect width="47" height="47" fill="white"/>
</clipPath>
<clipPath id="clip1_173_40285">
<rect width="47" height="47" fill="white" transform="translate(0.000244141)"/>
</clipPath>
</defs>
</svg>
