<svg width="57" height="57" viewBox="0 0 57 57" fill="none" xmlns="http://www.w3.org/2000/svg">
<g clip-path="url(#clip0_1193_25424)">
<path d="M21 52.3259C32.598 52.3259 42 42.9239 42 31.3259C42 19.728 32.598 10.3259 21 10.3259C9.40202 10.3259 0 19.728 0 31.3259C0 42.9239 9.40202 52.3259 21 52.3259Z" fill="#3D7FFC"/>
<path d="M41.8928 34.1215C40.5584 44.4159 31.7187 52.3806 21.035 52.3806C9.43249 52.3828 0 42.9503 0 31.35C0 30.4706 0.0634375 29.589 0.188125 28.7403C0.234062 28.3684 0.315 28.0097 0.378437 27.6443C2.52875 28.5172 4.86937 29.6897 5.90406 31.5228C6.86218 33.1896 6.43781 35.1387 6.57781 36.9303C6.685 38.5031 7.32375 39.9796 8.0325 41.3643C8.74343 42.6856 11.1912 47.369 13.3941 46.4896C14.6016 46.0171 14.7787 45.1684 15.1331 44.0681C15.6669 42.3071 17.1566 40.8918 17.9375 39.1943C18.5062 38.094 18.8606 36.3025 17.9375 35.2634C17.2987 34.4781 16.1984 34.384 15.2403 34.1631C14.14 33.9115 13.1819 33.5025 12.2587 32.9687C8.49625 30.7987 6.96937 26.5856 10.6969 23.6937C12.0466 22.6568 13.2891 21.305 13.3241 19.544C13.3569 17.5797 11.235 15.344 9.50249 13.8303C10.6816 13.0275 11.9131 12.3187 13.2366 11.7937C13.3437 11.75 13.4597 11.7193 13.5669 11.6778C15.12 12.5572 17.3819 12.625 17.7625 13.4672C18.235 14.5959 16.38 16.0484 18.4866 16.5493C20.6237 17.0765 22.7303 14.119 25.4975 13.6181C26.9281 13.3447 27.8119 12.5134 28.4375 11.7347C28.5009 11.7587 28.7 11.8178 28.7656 11.844C30.4762 12.5068 32.0469 13.3665 33.5147 14.469C31.9397 15.3331 32.6904 16.4884 31.5573 17.2365C28.5954 19.249 29.2581 20.705 30.6888 21.8688C33.0513 23.7544 34.2344 20.7843 35.6322 23.3634C36.0325 24.1181 35.9319 25.0915 35.3325 25.7215C34.0681 27.01 31.9047 26.2247 30.3056 26.2247C28.374 26.194 26.5453 26.6643 25.445 28.3006C24.4453 29.7465 24.314 31.98 25.6769 33.2684C26.8428 34.3381 28.4725 34.1806 29.6712 35.3115C31.5678 37.1665 28.2406 45.1203 32.235 43.9893C36.2294 42.8256 39.6243 36.8515 40.8887 35.154C41.2234 34.7253 41.5559 34.395 41.8884 34.1237L41.8928 34.1215Z" fill="#C6DBFF"/>
<path fill-rule="evenodd" clip-rule="evenodd" d="M10.8879 33.83C10.1342 33.0766 9.66797 32.0356 9.66797 30.8857C9.66797 28.5864 11.5319 26.7224 13.8312 26.7224C16.1305 26.7224 17.9944 28.5864 17.9944 30.8857C17.9944 32.0355 17.5282 33.0765 16.7746 33.8299L13.8313 36.7743L10.8879 33.83Z" fill="#FECE4D"/>
<path fill-rule="evenodd" clip-rule="evenodd" d="M10.8881 33.8305C10.1344 33.077 9.66821 32.036 9.66821 30.8861C9.66821 28.5868 11.5321 26.7229 13.8314 26.7229C16.1307 26.7229 17.9946 28.5868 17.9946 30.8861C17.9946 32.036 17.5285 33.0769 16.7748 33.8304L13.8317 36.7746L10.8881 33.8305ZM17.9929 35.0488L15.05 37.9928C14.7269 38.316 14.2886 38.4976 13.8315 38.4976C13.3745 38.4976 12.9362 38.3161 12.6131 37.9928L9.67008 35.049C8.60658 33.9857 7.94531 32.5112 7.94531 30.8861C7.94531 27.6353 10.5806 25 13.8314 25C17.0822 25 19.7175 27.6353 19.7175 30.8861C19.7175 32.5111 19.0563 33.9855 17.9929 35.0488Z" fill="white"/>
<path fill-rule="evenodd" clip-rule="evenodd" d="M32.7905 24.3952C31.5612 23.1664 30.8008 21.4684 30.8008 19.5929C30.8008 15.8427 33.8409 12.8026 37.5911 12.8026C41.3413 12.8026 44.3814 15.8427 44.3814 19.5929C44.3814 21.4683 43.6211 23.1662 42.3918 24.3951L42.3927 24.396L37.5913 29.1974L32.7898 24.396L32.7905 24.3952Z" fill="#FECE4D"/>
<path fill-rule="evenodd" clip-rule="evenodd" d="M32.7916 24.396L32.7923 24.3952C32.7903 24.3932 32.7882 24.3911 32.7862 24.3891C31.5604 23.1607 30.8026 21.4653 30.8026 19.5929C30.8026 15.8427 33.8427 12.8026 37.5929 12.8026C41.3431 12.8026 44.3832 15.8427 44.3832 19.5929C44.3832 21.4676 43.6235 23.1649 42.3951 24.3936C42.3946 24.3941 42.3941 24.3946 42.3936 24.3951L42.3945 24.396L37.5931 29.1974L32.7916 24.396ZM43.7218 25.6156C45.2438 24.0669 46.1858 21.9382 46.1858 19.5929C46.1858 14.8472 42.3386 11 37.5929 11C32.8472 11 29 14.8472 29 19.5929C29 21.9414 29.9445 24.0727 31.4701 25.6219C31.4854 25.6384 31.501 25.6546 31.517 25.6706L36.3184 30.472C37.0224 31.176 38.1637 31.176 38.8677 30.472L43.6691 25.6706C43.6872 25.6525 43.7047 25.6342 43.7218 25.6156Z" fill="white"/>
<path fill-rule="evenodd" clip-rule="evenodd" d="M14.575 12.6567C13.9543 12.0571 13.5703 11.2286 13.5703 10.3134C13.5703 8.48345 15.1053 7 16.9989 7C18.8924 7 20.4275 8.48345 20.4275 10.3134C20.4275 11.2285 20.0436 12.057 19.4229 12.6567L16.999 15L14.575 12.6567Z" fill="#FECE4D"/>
<path fill-rule="evenodd" clip-rule="evenodd" d="M12.9869 14.2997C11.9479 13.2958 11.2852 11.8847 11.2852 10.313C11.2852 7.14767 13.9178 4.71387 16.9994 4.71387C20.0811 4.71387 22.7137 7.14767 22.7137 10.313C22.7137 11.8847 22.051 13.2956 21.0121 14.2996C21.012 14.2997 21.0118 14.2999 21.0116 14.3001L18.5882 16.6429C17.7023 17.4994 16.2969 17.4994 15.4109 16.643L12.9874 14.3002C12.9872 14.3 12.9871 14.2999 12.9869 14.2997ZM14.5755 12.6563C13.9548 12.0567 13.5709 11.2282 13.5709 10.313C13.5709 8.48303 15.1059 6.99958 16.9994 6.99958C18.893 6.99958 20.428 8.48304 20.428 10.313C20.428 11.2281 20.0441 12.0566 19.4234 12.6562L16.9995 14.9996L14.5755 12.6563Z" fill="white"/>
</g>
<defs>
<clipPath id="clip0_1193_25424">
<rect width="57" height="57" fill="white"/>
</clipPath>
</defs>
</svg>
