<svg width="138" height="132" viewBox="0 0 138 132" fill="none" xmlns="http://www.w3.org/2000/svg">
<circle cx="71" cy="66.4204" r="65.5" fill="#F5F8FF" fill-opacity="0.15"/>
<g opacity="0.5">
<path d="M20.0001 20.747C20.0001 19.5004 21.0107 18.4897 22.2573 18.4897H115.512C116.759 18.4897 117.77 19.5004 117.77 20.747V84.7962C117.77 86.0429 116.759 87.0535 115.512 87.0535H22.2573C21.0107 87.0535 20.0001 86.0429 20.0001 84.7962V20.747Z" fill="white"/>
<path d="M20.0001 20.5156C20.0001 19.0818 21.0134 17.9194 22.2633 17.9194H115.737C116.987 17.9194 118 19.0818 118 20.5156V26.9194H20.0001V20.5156Z" fill="#000C36"/>
<path d="M29.635 22.7016C29.635 23.6911 28.8187 24.5074 27.8292 24.5074C26.8397 24.5074 26.0233 23.6911 26.0233 22.7016C26.0233 21.7121 26.8397 20.8958 27.8292 20.8958C28.8187 20.8958 29.635 21.7121 29.635 22.7016Z" fill="#F66058"/>
<path d="M36.8577 22.7016C36.8577 23.6911 36.0414 24.5074 35.0519 24.5074C34.0624 24.5074 33.2461 23.6911 33.2461 22.7016C33.2461 21.7121 34.0624 20.8958 35.0519 20.8958C36.0661 20.8958 36.8577 21.7121 36.8577 22.7016Z" fill="#F9BD2E"/>
<path d="M44.0756 22.7013C44.0756 23.6908 43.2593 24.5072 42.2698 24.5072C41.2803 24.5072 40.464 23.6908 40.464 22.7013C40.464 21.7118 41.2803 20.8955 42.2698 20.8955C43.2593 20.8955 44.0756 21.7118 44.0756 22.7013Z" fill="#3CC840"/>
<path d="M20.0001 26.9194H118V40.9194H20.0001V26.9194Z" fill="#EDF1F6"/>
<path d="M28.8917 46.9341H108.885V79.8202H28.8917V46.9341Z" fill="#EDF1F6"/>
<path fill-rule="evenodd" clip-rule="evenodd" d="M30.6711 33.3426C30.6711 32.0128 31.706 30.9348 32.9826 30.9348H104.508C105.784 30.9348 106.819 32.0128 106.819 33.3426C106.819 34.6724 105.784 35.7503 104.508 35.7503L32.9826 35.7503C31.706 35.7503 30.6711 34.6724 30.6711 33.3426Z" fill="white"/>
</g>
<g filter="url(#filter0_d_2028_41311)">
<path d="M14.4682 32.4515C14.4682 31.0532 15.6018 29.9197 17.0001 29.9197H121.129C122.527 29.9197 123.66 31.0532 123.66 32.4515V104.291C123.66 105.689 122.527 106.822 121.129 106.822H16.5316C15.1333 106.822 13.9998 105.689 13.9998 104.291L14.4682 32.4515Z" fill="white"/>
</g>
<path d="M14.0001 32.8043C14.0001 31.2112 15.1374 29.9197 16.5405 29.9197H121.46C122.863 29.9197 124 31.2112 124 32.8043V39.9197H14.0001V32.8043Z" fill="#000C36"/>
<path d="M24.799 34.6456C24.799 35.7554 23.8834 36.671 22.7736 36.671C21.6637 36.671 20.7481 35.7554 20.7481 34.6456C20.7481 33.5357 21.6637 32.6201 22.7736 32.6201C23.8834 32.6201 24.799 33.5357 24.799 34.6456Z" fill="#F66058"/>
<path d="M32.9062 34.6456C32.9062 35.7554 31.9906 36.671 30.8807 36.671C29.7709 36.671 28.8553 35.7554 28.8553 34.6456C28.8553 33.5357 29.7709 32.6201 30.8807 32.6201C32.0183 32.6201 32.9062 33.5357 32.9062 34.6456Z" fill="#F9BD2E"/>
<path d="M41.0105 34.6456C41.0105 35.7554 40.0949 36.671 38.9851 36.671C37.8752 36.671 36.9596 35.7554 36.9596 34.6456C36.9596 33.5357 37.8752 32.6201 38.9851 32.6201C40.0949 32.6201 41.0105 33.5357 41.0105 34.6456Z" fill="#3CC840"/>
<path d="M14.0001 38.9197H124V54.9197H14.0001V38.9197Z" fill="#EDF1F6"/>
<path d="M74.1255 66.0474C74.1255 63.8382 75.9164 62.0474 78.1255 62.0474H109.356C111.565 62.0474 113.355 63.8382 113.355 66.0474V94.4752C113.355 96.6843 111.565 98.4752 109.355 98.4752H78.1255C75.9164 98.4752 74.1255 96.6843 74.1255 94.4752V66.0474Z" fill="#E7EEFF"/>
<path fill-rule="evenodd" clip-rule="evenodd" d="M25.9605 46.5776C25.9605 45.0861 27.1213 43.877 28.5531 43.877H108.777C110.209 43.877 111.37 45.0861 111.37 46.5776C111.37 48.0691 110.209 49.2782 108.777 49.2782L28.5531 49.2782C27.1213 49.2782 25.9605 48.0691 25.9605 46.5776Z" fill="white"/>
<g filter="url(#filter1_d_2028_41311)">
<path d="M94.4544 62.118C94.4544 60.2503 95.9654 58.7363 97.8291 58.7363H128.878C130.742 58.7363 132.253 60.2503 132.253 62.118V72.8684C132.253 74.7357 130.742 76.2497 128.878 76.2497H97.8291C95.9654 76.2497 94.4544 74.7357 94.4544 72.8684V62.118Z" fill="white"/>
</g>
<path fill-rule="evenodd" clip-rule="evenodd" d="M113.016 67.1906C113.016 66.4432 113.62 65.8376 114.366 65.8376H121.791C122.537 65.8376 123.141 66.4432 123.141 67.1906C123.141 67.9375 122.537 68.5431 121.791 68.5431H114.366C113.62 68.5431 113.016 67.9375 113.016 67.1906Z" fill="#7879F1"/>
<path fill-rule="evenodd" clip-rule="evenodd" d="M105.6 71.2476C108.023 71.2476 109.988 69.4313 109.988 67.1901C109.988 64.9489 108.023 63.1321 105.6 63.1321C103.177 63.1321 101.213 64.9489 101.213 67.1901C101.213 68.4621 101.846 69.5972 102.836 70.3413L103.002 71.5899C103.034 71.8294 103.299 71.9588 103.507 71.8372L104.671 71.1564C104.971 71.2164 105.281 71.2476 105.6 71.2476Z" fill="#7879F1"/>
<path d="M102.867 99.564C102.867 96.7472 105.146 94.4639 107.957 94.4639H126.499C129.31 94.4639 131.589 96.7472 131.589 99.564V108.231C131.589 111.047 129.31 113.331 126.499 113.331H107.957C105.146 113.331 102.867 111.047 102.867 108.231V99.564Z" fill="#3D7FFC"/>
<path fill-rule="evenodd" clip-rule="evenodd" d="M117.404 104.299C117.404 103.495 118.056 102.842 118.859 102.842H123.948C124.752 102.842 125.403 103.495 125.403 104.299C125.403 105.104 124.752 105.756 123.948 105.756H118.859C118.056 105.756 117.404 105.104 117.404 104.299Z" fill="white"/>
<path d="M113.911 105.451C113.911 104.523 113.355 103.911 112.472 103.531L111.784 103.246L111.828 101.558C112.231 101.61 112.733 101.863 113.104 102.264L113.78 101.22C113.344 100.714 112.603 100.418 111.948 100.365L111.959 99.7744H111.173L111.152 100.344C110.563 100.397 109.996 100.576 109.625 100.893C109.221 101.231 108.905 101.726 108.905 102.423C108.905 103.288 109.429 103.752 109.668 103.932C109.908 104.122 110.236 104.28 110.65 104.449L111.021 104.597L110.988 106.359C110.519 106.348 109.734 105.979 109.418 105.493L108.61 106.548C109.156 107.213 110.05 107.593 110.868 107.625L110.846 108.184H111.632L111.654 107.604C112.068 107.572 112.69 107.371 113.072 107.076C113.497 106.749 113.911 106.2 113.911 105.451ZM111.141 101.547L111.108 103.014L110.988 102.961C110.715 102.834 110.432 102.644 110.432 102.254C110.432 101.843 110.726 101.579 111.141 101.547ZM112.406 105.652C112.406 106.063 112.013 106.348 111.675 106.379L111.708 104.807L111.882 104.892C112.21 105.05 112.406 105.251 112.406 105.652Z" fill="white"/>
<path fill-rule="evenodd" clip-rule="evenodd" d="M26.5109 66.092C26.5109 64.7379 27.8332 63.6401 29.4643 63.6401H60.6859C62.317 63.6401 63.6393 64.7379 63.6393 66.092C63.6393 67.4461 62.317 68.5439 60.6859 68.5439H29.4643C27.8332 68.5439 26.5109 67.4461 26.5109 66.092Z" fill="#E7EEFF"/>
<path fill-rule="evenodd" clip-rule="evenodd" d="M26.5109 72.0468C26.5109 71.273 27.2995 70.6458 28.2723 70.6458H55.5731C56.5459 70.6458 57.3344 71.273 57.3344 72.0468C57.3344 72.8206 56.5459 73.4479 55.5731 73.4479H28.2723C27.2995 73.4479 26.5109 72.8206 26.5109 72.0468Z" fill="#E7EEFF"/>
<path fill-rule="evenodd" clip-rule="evenodd" d="M25.8088 78.001C25.8088 77.4207 26.5406 76.9502 27.4434 76.9502H43.7892C44.6919 76.9502 45.4238 77.4207 45.4238 78.001C45.4238 78.5813 44.6919 79.0518 43.7892 79.0518H27.4434C26.5406 79.0518 25.8088 78.5813 25.8088 78.001Z" fill="#E7EEFF"/>
<path fill-rule="evenodd" clip-rule="evenodd" d="M46.8254 78.001C46.8254 77.4207 47.2959 76.9502 47.8762 76.9502H53.4805C54.0609 76.9502 54.5313 77.4207 54.5313 78.001C54.5313 78.5813 54.0609 79.0518 53.4805 79.0518H47.8762C47.2959 79.0518 46.8254 78.5813 46.8254 78.001Z" fill="#E7EEFF"/>
<g filter="url(#filter2_d_2028_41311)">
<path d="M27.9095 88.8259C27.9095 87.2968 29.1467 86.0571 30.6728 86.0571H64.1109C65.6373 86.0571 66.8746 87.2968 66.8746 88.8259V113.411C66.8746 114.94 65.6373 116.18 64.1109 116.18H30.6728C29.1467 116.18 27.9095 114.94 27.9095 113.411V88.8259Z" fill="white"/>
</g>
<path d="M30.6752 90.8075C30.6752 89.2785 31.9125 88.0388 33.4385 88.0388H61.3385C62.8646 88.0388 64.1019 89.2785 64.1019 90.8075V107.069C64.1019 108.599 62.8646 109.838 61.3385 109.838H33.4385C31.9125 109.838 30.6752 108.599 30.6752 107.069V90.8075Z" fill="#0AC98A"/>
<path fill-rule="evenodd" clip-rule="evenodd" d="M59.6085 108.005C60.419 108.005 60.8928 107.091 60.4258 106.429L53.4472 96.5306C53.0488 95.9655 52.211 95.9655 51.8126 96.5306L46.7437 103.72C46.3874 104.225 45.6627 104.29 45.2232 103.855L42.1578 100.823C41.7682 100.438 41.1411 100.438 40.7515 100.823L35.2196 106.294C34.5843 106.923 35.0293 108.005 35.9228 108.005H43.7227H49.4197H59.6085Z" fill="white"/>
<path d="M40.1682 93.9847C40.1682 95.5168 38.9286 96.7592 37.3992 96.7592C35.8698 96.7592 34.6302 95.5168 34.6302 93.9847C34.6302 92.4524 35.8698 91.21 37.3992 91.21C38.9286 91.21 40.1682 92.4524 40.1682 93.9847Z" fill="white"/>
<path d="M6.18573 58.2092C6.18573 56.566 7.51545 55.2336 9.15549 55.2336H46.5762C48.2166 55.2336 49.5463 56.566 49.5463 58.2092V67.6695C49.5463 69.3131 48.2166 70.6454 46.5762 70.6454H9.15549C7.51545 70.6454 6.18573 69.3131 6.18573 67.6695V58.2092Z" fill="#FECE4D"/>
<path d="M16.7072 62.2181H15.3555V62.2155C15.2804 62.2144 15.2079 62.192 15.1469 62.1512C15.0863 62.11 15.0405 62.0525 15.0163 61.9863C15.012 61.9762 15.0084 61.9661 15.0055 61.9556L14.6089 60.7683L14.5992 60.7382C14.5822 60.6934 14.5501 60.6551 14.5079 60.6283C14.4657 60.6016 14.4155 60.5882 14.3643 60.59C14.3134 60.5918 14.2643 60.6092 14.2246 60.6388C14.1846 60.6688 14.1561 60.7093 14.1431 60.7556L13.7418 61.9509C13.7418 61.9516 13.7418 61.9527 13.7418 61.953C13.7386 61.9657 13.7346 61.978 13.7295 61.9899C13.7046 62.0554 13.6585 62.1125 13.5978 62.153C13.5372 62.1931 13.4647 62.2152 13.39 62.2159V62.2184H12.0372C11.9784 62.2278 11.9249 62.2567 11.8867 62.2998C11.8488 62.3428 11.8282 62.3967 11.8293 62.4527C11.829 62.4885 11.8373 62.5243 11.8539 62.5568C11.8705 62.5894 11.8946 62.6179 11.9246 62.6407L11.9358 62.649L12.9862 63.3949C13.036 63.4285 13.0768 63.4726 13.1046 63.5236C13.1323 63.575 13.1468 63.6317 13.1464 63.6888C13.1464 63.7156 13.1432 63.7424 13.1367 63.768C13.132 63.7883 13.1255 63.8078 13.1172 63.8266L12.7188 65.0204V65.0248L12.7159 65.0334C12.7094 65.0555 12.7062 65.0783 12.7062 65.1011C12.7051 65.1314 12.7109 65.1618 12.7224 65.1904C12.734 65.2189 12.7516 65.245 12.774 65.267C12.7968 65.2891 12.8238 65.3068 12.8538 65.3191C12.8834 65.3314 12.9158 65.3379 12.9483 65.3386C12.9909 65.3386 13.0324 65.3281 13.0688 65.3075L13.1114 65.2786L14.1542 64.5403L14.177 64.5237C14.2347 64.4861 14.3033 64.4658 14.3736 64.4651C14.444 64.4647 14.5129 64.4839 14.5714 64.52C14.5844 64.5276 14.5966 64.5363 14.6082 64.5457L15.6449 65.2811L15.6741 65.3021C15.7124 65.3245 15.7564 65.3361 15.8015 65.3357C15.834 65.335 15.8661 65.3281 15.896 65.3158C15.926 65.3035 15.9527 65.2862 15.9751 65.2638C15.9978 65.2417 16.0151 65.2157 16.027 65.1875C16.0386 65.1589 16.0444 65.1289 16.0433 65.0982C16.0433 65.0743 16.0397 65.0504 16.0321 65.0277C16.0321 65.024 16.0296 65.0204 16.0288 65.0165L15.6287 63.8183C15.6222 63.8027 15.6168 63.7868 15.6131 63.7706C15.5962 63.7051 15.5994 63.6364 15.6218 63.5728C15.6442 63.5088 15.6853 63.4517 15.7405 63.4083C15.7492 63.401 15.7586 63.3949 15.7679 63.3888L16.8068 62.6523L16.8382 62.6295C16.8653 62.6071 16.8869 62.5792 16.9017 62.5482C16.9162 62.5171 16.9237 62.4838 16.923 62.4498C16.9234 62.3934 16.9017 62.3388 16.8617 62.2962C16.822 62.2535 16.7671 62.2257 16.7072 62.2181Z" fill="white"/>
<path d="M23.495 62.2181H22.1433V62.2155C22.0683 62.2144 21.9954 62.192 21.9347 62.1512C21.8741 62.11 21.8283 62.0525 21.8038 61.9863C21.7998 61.9762 21.7962 61.9661 21.7933 61.9556L21.3967 60.7683L21.3863 60.7382C21.3693 60.6934 21.3375 60.6551 21.2953 60.6283C21.2531 60.6016 21.2026 60.5882 21.1517 60.59C21.1008 60.5918 21.0518 60.6092 21.0117 60.6388C20.972 60.6688 20.9435 60.7093 20.9305 60.7556L20.5289 61.9509C20.5289 61.9516 20.5289 61.9527 20.5289 61.953C20.5256 61.9657 20.5217 61.978 20.5166 61.9899C20.4917 62.0554 20.4459 62.1125 20.3853 62.153C20.3247 62.1931 20.2518 62.2152 20.1774 62.2159V62.2184H18.8243C18.7654 62.2278 18.712 62.2567 18.6741 62.2998C18.6359 62.3428 18.6157 62.3967 18.6164 62.4527C18.6161 62.4885 18.6247 62.5243 18.6413 62.5568C18.6575 62.5894 18.6817 62.6179 18.712 62.6407L18.7229 62.649L19.7733 63.3949C19.835 63.4368 19.8823 63.4947 19.909 63.5612C19.9357 63.6277 19.9411 63.7004 19.9241 63.7698C19.9194 63.7897 19.9129 63.8092 19.9046 63.8284L19.5063 65.0219V65.0262L19.503 65.0349C19.4969 65.057 19.4933 65.0797 19.4933 65.1029C19.4925 65.1332 19.498 65.1632 19.5095 65.1918C19.5214 65.2204 19.5391 65.2464 19.5615 65.2685C19.5838 65.2905 19.6109 65.3082 19.6409 65.3205C19.6708 65.3328 19.7029 65.3393 19.7358 65.34C19.778 65.3404 19.8198 65.3299 19.8563 65.3093L19.8985 65.28L20.9413 64.5421L20.9644 64.5255C21.0222 64.4879 21.0907 64.4676 21.1611 64.4669C21.2315 64.4662 21.3004 64.4853 21.3588 64.5215C21.3718 64.5295 21.3841 64.5378 21.3953 64.5475L22.4324 65.2826L22.4616 65.3039C22.4995 65.3259 22.5439 65.3379 22.5886 65.3375C22.6214 65.3368 22.6536 65.3299 22.6835 65.3176C22.7131 65.3053 22.7402 65.2876 22.7625 65.2656C22.7849 65.2435 22.8026 65.2175 22.8141 65.1889C22.826 65.1607 22.8315 65.1303 22.8307 65.1C22.8307 65.0761 22.8271 65.0523 22.8195 65.0295C22.8195 65.0259 22.817 65.0219 22.8156 65.0179L22.4158 63.8201C22.4089 63.8045 22.4038 63.7883 22.3999 63.772C22.3927 63.7442 22.3891 63.7156 22.3891 63.6867C22.3887 63.6339 22.4006 63.5818 22.4244 63.5337C22.4479 63.486 22.4825 63.4434 22.5258 63.4094C22.5348 63.4025 22.5442 63.396 22.5536 63.3898L23.5925 62.6537L23.6239 62.6306C23.6509 62.6082 23.6726 62.5803 23.687 62.5492C23.7018 62.5185 23.709 62.4849 23.7087 62.4509C23.7094 62.3945 23.6881 62.3399 23.6488 62.2969C23.6094 62.2542 23.5546 62.226 23.495 62.2181Z" fill="white"/>
<path d="M30.2859 62.2181H28.9342V62.2155C28.8595 62.2144 28.7866 62.192 28.7256 62.1512C28.665 62.11 28.6192 62.0525 28.595 61.9863C28.5907 61.9762 28.587 61.9661 28.5842 61.9556L28.1876 60.7683L28.1775 60.7382C28.1605 60.6934 28.1284 60.6551 28.0862 60.6283C28.044 60.6016 27.9938 60.5882 27.9426 60.59C27.8917 60.5918 27.8426 60.6092 27.8029 60.6388C27.7629 60.6688 27.7344 60.7093 27.7214 60.7556L27.3201 61.9509C27.3201 61.9509 27.3201 61.9512 27.3201 61.953C27.3169 61.9657 27.3125 61.978 27.3078 61.9899C27.2829 62.0554 27.2368 62.1125 27.1761 62.153C27.1155 62.1931 27.043 62.2152 26.9683 62.2159V62.2184H25.6155C25.5567 62.2278 25.5033 62.2567 25.465 62.2998C25.4271 62.3428 25.4066 62.3967 25.4076 62.4527C25.4069 62.4885 25.4156 62.5243 25.4322 62.5568C25.4484 62.5894 25.473 62.6179 25.5029 62.6407L25.5141 62.649L26.5645 63.3949C26.6262 63.4368 26.6731 63.4947 26.6998 63.5612C26.7269 63.6277 26.7319 63.7004 26.715 63.7698C26.7106 63.7897 26.7038 63.8092 26.6955 63.8284L26.2971 65.0219V65.0262L26.2942 65.0349C26.2877 65.057 26.2845 65.0797 26.2845 65.1029C26.2834 65.1332 26.2892 65.1632 26.3007 65.1918C26.3123 65.2204 26.3299 65.2464 26.3523 65.2685C26.3751 65.2905 26.4021 65.3082 26.4321 65.3205C26.4617 65.3328 26.4941 65.3393 26.5266 65.34C26.5692 65.3404 26.6107 65.3299 26.6471 65.3093L26.6897 65.28L27.7326 64.5421L27.7553 64.5255C27.813 64.4879 27.8816 64.4676 27.952 64.4669C28.0223 64.4662 28.0912 64.4853 28.1497 64.5215C28.1627 64.5295 28.175 64.5378 28.1865 64.5475L29.2232 65.2826L29.2524 65.3039C29.2907 65.3259 29.3347 65.3379 29.3798 65.3375C29.4123 65.3368 29.4444 65.3299 29.4744 65.3176C29.5043 65.3053 29.531 65.2876 29.5534 65.2656C29.5761 65.2435 29.5934 65.2175 29.6054 65.1889C29.6169 65.1607 29.6227 65.1303 29.6216 65.1C29.6216 65.0761 29.618 65.0523 29.6104 65.0295C29.6104 65.0259 29.6079 65.0219 29.6072 65.0179L29.207 63.8201C29.2005 63.8045 29.1951 63.7883 29.1915 63.772C29.1842 63.7442 29.1803 63.7156 29.1803 63.6867C29.1799 63.6339 29.1922 63.5818 29.2156 63.5337C29.2395 63.486 29.2741 63.4434 29.3174 63.4094C29.3264 63.4025 29.3358 63.396 29.3448 63.3898L30.3841 62.6537L30.4158 62.6306C30.4429 62.6082 30.4645 62.5803 30.479 62.5492C30.4937 62.5185 30.501 62.4849 30.5006 62.4509C30.5013 62.3945 30.4797 62.3395 30.4403 62.2969C30.4007 62.2539 30.3458 62.226 30.2859 62.2181Z" fill="white"/>
<path d="M37.0713 62.2181H35.7196V62.2155C35.6446 62.2144 35.5717 62.192 35.511 62.1512C35.4504 62.11 35.4046 62.0525 35.3801 61.9863C35.3761 61.9762 35.3725 61.9661 35.3696 61.9556L34.973 60.7683L34.9629 60.7382C34.9456 60.6934 34.9138 60.6551 34.8716 60.6283C34.8294 60.6016 34.7789 60.5882 34.728 60.59C34.6771 60.5918 34.6281 60.6092 34.5884 60.6388C34.5483 60.6688 34.5198 60.7093 34.5068 60.7556L34.1052 61.9509C34.1056 61.9516 34.1056 61.9527 34.1052 61.953C34.1023 61.9657 34.098 61.978 34.0929 61.9899C34.068 62.0554 34.0222 62.1125 33.9616 62.153C33.901 62.1931 33.8284 62.2152 33.7537 62.2159V62.2184H32.4006C32.3417 62.2278 32.2883 62.2567 32.2504 62.2998C32.2122 62.3428 32.192 62.3967 32.1927 62.4527C32.1923 62.4885 32.2007 62.5243 32.2173 62.5568C32.2339 62.5894 32.258 62.6179 32.2883 62.6407L32.2992 62.649L33.3499 63.3949C33.4113 63.4368 33.4586 63.4947 33.4853 63.5612C33.5123 63.6277 33.5174 63.7004 33.5004 63.7698C33.4957 63.7897 33.4892 63.8092 33.4809 63.8284L33.0826 65.0219V65.0262L33.079 65.0349C33.0728 65.057 33.0692 65.0797 33.0692 65.1029C33.0685 65.1332 33.0739 65.1632 33.0854 65.1918C33.0973 65.2204 33.115 65.2464 33.1374 65.2685C33.1598 65.2905 33.1868 65.3082 33.2168 65.3205C33.2467 65.3328 33.2789 65.3393 33.3117 65.34C33.3539 65.3404 33.3958 65.3299 33.4322 65.3093L33.4744 65.28L34.5173 64.5421L34.5404 64.5255C34.5981 64.4879 34.6667 64.4676 34.737 64.4669C34.8074 64.4662 34.8763 64.4853 34.9348 64.5215C34.9478 64.5291 34.96 64.5378 34.9716 64.5475L36.0087 65.2826L36.0379 65.3039C36.0758 65.3259 36.1202 65.3379 36.1653 65.3375C36.1977 65.3368 36.2298 65.3299 36.2598 65.3176C36.2894 65.3053 36.3165 65.2876 36.3388 65.2656C36.3612 65.2435 36.3789 65.2175 36.3904 65.1889C36.4023 65.1607 36.4078 65.1303 36.407 65.1C36.407 65.0761 36.4034 65.0523 36.3958 65.0295C36.3958 65.0259 36.3933 65.0219 36.3922 65.0179L35.9921 63.8201C35.9852 63.8045 35.9801 63.7883 35.9762 63.772C35.969 63.7442 35.9654 63.7156 35.9654 63.6867C35.965 63.6339 35.9769 63.5818 36.0007 63.5337C36.0242 63.486 36.0592 63.4434 36.1025 63.4094C36.1111 63.4025 36.1205 63.396 36.1299 63.3898L37.1688 62.6537L37.2002 62.6306C37.2272 62.6082 37.2489 62.5803 37.2637 62.5492C37.2781 62.5185 37.2857 62.4849 37.285 62.4509C37.2857 62.3945 37.2644 62.3399 37.2251 62.2969C37.1857 62.2542 37.1312 62.226 37.0713 62.2181Z" fill="white"/>
<path d="M43.8607 62.2181H42.5089V62.2155C42.4339 62.2144 42.361 62.192 42.3004 62.1512C42.2394 62.11 42.1939 62.0525 42.1694 61.9863C42.1654 61.9762 42.1618 61.9661 42.1589 61.9556L41.762 60.7683L41.7519 60.7382C41.7349 60.6934 41.7032 60.6551 41.6609 60.6283C41.6184 60.6016 41.5682 60.5882 41.5173 60.59C41.4661 60.5918 41.4174 60.6092 41.3773 60.6388C41.3376 60.6688 41.3091 60.7093 41.2958 60.7556L40.8945 61.9509C40.8945 61.9509 40.8945 61.9512 40.8945 61.953C40.8913 61.9657 40.8873 61.978 40.8822 61.9899C40.8573 62.0554 40.8115 62.1125 40.7509 62.153C40.6899 62.1931 40.6174 62.2152 40.5427 62.2159V62.2184H39.1895C39.1307 62.2278 39.0773 62.2567 39.039 62.2998C39.0012 62.3428 38.9806 62.3967 38.9817 62.4527C38.9813 62.4885 38.9896 62.5243 39.0062 62.5568C39.0228 62.5894 39.047 62.6179 39.0769 62.6407L39.0881 62.649L40.14 63.3942C40.2013 63.4358 40.2486 63.494 40.2753 63.5605C40.302 63.627 40.3074 63.6997 40.2904 63.7691C40.2858 63.789 40.2793 63.8085 40.271 63.8277L39.8726 65.0212V65.0255L39.8697 65.0342C39.8629 65.0562 39.8596 65.079 39.8592 65.1018C39.8585 65.1322 39.8639 65.1625 39.8755 65.1911C39.8874 65.2196 39.9051 65.2457 39.9274 65.2677C39.9498 65.2898 39.9769 65.3075 40.0068 65.3198C40.0368 65.3321 40.0689 65.3386 40.1017 65.3393C40.144 65.3397 40.1858 65.3288 40.2223 65.3082L40.2645 65.2793L41.3073 64.541L41.3304 64.5244C41.3881 64.4871 41.4567 64.4669 41.5271 64.4662C41.5974 64.4655 41.6664 64.4846 41.7248 64.5208C41.7378 64.5284 41.7501 64.537 41.7613 64.5464L42.7983 65.2818L42.8276 65.3028C42.8654 65.3252 42.9098 65.3368 42.9546 65.3364C42.9874 65.3357 43.0195 65.3292 43.0491 65.3169C43.0791 65.3046 43.1061 65.2869 43.1285 65.2648C43.1509 65.2428 43.1685 65.2168 43.1801 65.1882C43.192 65.1596 43.1974 65.1296 43.1967 65.0992C43.1967 65.0754 43.1931 65.0515 43.1855 65.0287C43.1855 65.0251 43.183 65.0212 43.1815 65.0172L42.7817 63.8194C42.7749 63.8038 42.7698 63.7876 42.7659 63.7713C42.7586 63.7434 42.755 63.7145 42.755 63.686C42.7547 63.6332 42.7666 63.5807 42.7904 63.533C42.8138 63.4849 42.8485 63.4426 42.8918 63.4086C42.9008 63.4018 42.9102 63.3953 42.9196 63.3891L43.9584 62.6526L43.9898 62.6299C44.0169 62.6075 44.0385 62.5796 44.053 62.5485C44.0678 62.5174 44.075 62.4842 44.0746 62.4502C44.075 62.3938 44.0537 62.3392 44.014 62.2965C43.9747 62.2539 43.9202 62.226 43.8607 62.2181Z" fill="white"/>
<defs>
<filter id="filter0_d_2028_41311" x="-0.000183105" y="16.9197" width="137.661" height="104.903" filterUnits="userSpaceOnUse" color-interpolation-filters="sRGB">
<feFlood flood-opacity="0" result="BackgroundImageFix"/>
<feColorMatrix in="SourceAlpha" type="matrix" values="0 0 0 0 0 0 0 0 0 0 0 0 0 0 0 0 0 0 127 0" result="hardAlpha"/>
<feOffset dy="1"/>
<feGaussianBlur stdDeviation="7"/>
<feComposite in2="hardAlpha" operator="out"/>
<feColorMatrix type="matrix" values="0 0 0 0 0.0354167 0 0 0 0 0.105426 0 0 0 0 0.2125 0 0 0 0.04 0"/>
<feBlend mode="normal" in2="BackgroundImageFix" result="effect1_dropShadow_2028_41311"/>
<feBlend mode="normal" in="SourceGraphic" in2="effect1_dropShadow_2028_41311" result="shape"/>
</filter>
<filter id="filter1_d_2028_41311" x="90.4544" y="54.7363" width="45.7986" height="25.5134" filterUnits="userSpaceOnUse" color-interpolation-filters="sRGB">
<feFlood flood-opacity="0" result="BackgroundImageFix"/>
<feColorMatrix in="SourceAlpha" type="matrix" values="0 0 0 0 0 0 0 0 0 0 0 0 0 0 0 0 0 0 127 0" result="hardAlpha"/>
<feOffset/>
<feGaussianBlur stdDeviation="2"/>
<feColorMatrix type="matrix" values="0 0 0 0 0 0 0 0 0 0.296699 0 0 0 0 0.858629 0 0 0 0.07 0"/>
<feBlend mode="normal" in2="BackgroundImageFix" result="effect1_dropShadow_2028_41311"/>
<feBlend mode="normal" in="SourceGraphic" in2="effect1_dropShadow_2028_41311" result="shape"/>
</filter>
<filter id="filter2_d_2028_41311" x="17.9095" y="76.0571" width="58.9651" height="50.123" filterUnits="userSpaceOnUse" color-interpolation-filters="sRGB">
<feFlood flood-opacity="0" result="BackgroundImageFix"/>
<feColorMatrix in="SourceAlpha" type="matrix" values="0 0 0 0 0 0 0 0 0 0 0 0 0 0 0 0 0 0 127 0" result="hardAlpha"/>
<feOffset/>
<feGaussianBlur stdDeviation="5"/>
<feColorMatrix type="matrix" values="0 0 0 0 0 0 0 0 0 0.296699 0 0 0 0 0.858629 0 0 0 0.05 0"/>
<feBlend mode="normal" in2="BackgroundImageFix" result="effect1_dropShadow_2028_41311"/>
<feBlend mode="normal" in="SourceGraphic" in2="effect1_dropShadow_2028_41311" result="shape"/>
</filter>
</defs>
</svg>
