<svg width="132" height="132" viewBox="0 0 132 132" fill="none" xmlns="http://www.w3.org/2000/svg">
<circle cx="66" cy="66.4204" r="65.5" fill="#F5F8FF" fill-opacity="0.15"/>
<g clip-path="url(#clip0_2028_41402)">
<path d="M98.7133 55.1628L99.2473 76.378C99.4219 85.0675 85.0558 92.3327 67.1668 92.6057C49.2778 92.8786 34.6273 86.0501 34.4576 77.3605L33.9187 56.1504L98.7133 55.1628Z" fill="#091B36"/>
<path d="M46.9625 90.2819C45.8797 89.8898 44.8368 89.463 43.8488 89.0015C37.3968 85.9942 33.799 81.8603 33.7092 77.3592L33.1753 56.1491C33.1707 55.9522 33.2442 55.7615 33.3799 55.6181C33.4481 55.5467 33.5301 55.4897 33.621 55.4505C33.7119 55.4113 33.8098 55.3906 33.9088 55.3898L98.7034 54.3973C98.9011 54.3946 99.0918 54.4698 99.2339 54.6065C99.376 54.7432 99.458 54.9302 99.4619 55.1268L99.9958 76.3369C100.051 78.9671 98.923 81.4832 96.6526 83.8206C91.1636 89.4928 79.8514 93.1354 67.1769 93.3289C59.7967 93.4579 52.7509 92.386 46.9625 90.2819ZM34.6872 56.8637L35.1862 77.3245C35.3459 85.5972 49.6571 92.1081 67.122 91.8451C79.2276 91.6615 90.3852 88.1033 95.5648 82.7883C97.5607 80.7487 98.5288 78.59 98.4839 76.3766L97.9849 55.901L34.6872 56.8637Z" fill="#3D7FFC"/>
<path d="M31.9878 49.7327L64.9215 35.1774C65.5439 34.9447 66.2283 34.9342 66.8576 35.1477L100.37 48.6906L113.604 48.4921L113.728 54.8541C113.736 55.064 113.676 55.2707 113.557 55.4446C113.439 55.6185 113.268 55.7506 113.07 55.8219L67.6061 72.8188C66.9838 73.0519 66.2993 73.0624 65.67 72.8485L19.5578 57.2412C19.356 57.1769 19.18 57.0504 19.0553 56.88C18.9306 56.7095 18.8637 56.5041 18.8643 56.2933L18.7395 49.9312L31.9878 49.7327Z" fill="#3D7FFC"/>
<path d="M19.2831 57.9361C18.9447 57.8156 18.6515 57.5951 18.4428 57.3041C18.2341 57.0132 18.1198 56.6657 18.1154 56.3083L17.9907 49.9463C17.9882 49.8483 18.0055 49.7509 18.0415 49.6597C18.0775 49.5685 18.1315 49.4854 18.2002 49.4153C18.3376 49.2732 18.526 49.1911 18.7242 49.187L31.8029 48.9885L64.6168 34.4927C65.4169 34.1858 66.3 34.1682 67.1118 34.4431L100.545 47.9463L113.618 47.7478C113.716 47.7459 113.814 47.7632 113.905 47.7989C113.996 47.8345 114.08 47.8878 114.15 47.9556C114.221 48.0234 114.277 48.1044 114.316 48.194C114.355 48.2835 114.375 48.3798 114.377 48.4773L114.506 54.8394C114.517 55.2029 114.413 55.5605 114.207 55.8616C114.002 56.1627 113.707 56.3919 113.364 56.5167L67.9002 73.5137C67.1159 73.8067 66.2537 73.8208 65.4601 73.5534L19.3479 57.946L19.2831 57.9361ZM19.5026 50.6658L19.6124 56.2786C19.6097 56.3352 19.6258 56.3912 19.6582 56.4379C19.6907 56.4845 19.7377 56.5192 19.792 56.5366L65.9042 72.144C66.3657 72.308 66.87 72.308 67.3314 72.144L112.795 55.1471C112.848 55.1288 112.894 55.0937 112.926 55.0472C112.957 55.0006 112.973 54.9451 112.97 54.889L112.86 49.2664L100.385 49.455C100.284 49.4595 100.183 49.4408 100.09 49.4004L66.5779 35.8574C66.1235 35.7105 65.6321 35.7227 65.1857 35.8922L32.252 50.4326C32.1584 50.471 32.0587 50.4928 31.9576 50.4971L19.5026 50.6658Z" fill="#3D7FFC"/>
<path d="M19.4129 48.9634L64.8764 31.9665C65.4988 31.7338 66.1832 31.7232 66.8125 31.9367L112.925 47.5441C113.125 47.6106 113.299 47.737 113.424 47.9059C113.549 48.0749 113.619 48.2782 113.623 48.4879C113.628 48.6977 113.567 48.9036 113.449 49.0776C113.331 49.2515 113.162 49.385 112.965 49.4597L67.5012 66.4616C66.8788 66.6943 66.1944 66.7048 65.565 66.4913L19.4529 50.8839C19.2511 50.8185 19.0748 50.6923 18.9484 50.5228C18.822 50.3532 18.7517 50.1488 18.7473 49.9378C18.7429 49.7268 18.8046 49.5196 18.9239 49.345C19.0432 49.1705 19.2141 49.0371 19.4129 48.9634Z" fill="#091B36"/>
<path d="M19.1784 51.5723C18.8388 51.4522 18.5447 51.2311 18.3358 50.939C18.1269 50.6469 18.0134 50.298 18.0107 49.9396C18.0003 49.5768 18.1051 49.2199 18.3102 48.9197C18.5154 48.6195 18.8104 48.3912 19.1534 48.2672L64.6169 31.2703C65.4012 30.9772 66.2634 30.9632 67.057 31.2306L113.169 46.838C113.515 46.9556 113.815 47.1766 114.03 47.4706C114.244 47.7647 114.362 48.1174 114.367 48.4806C114.377 48.8427 114.272 49.1988 114.068 49.4988C113.864 49.7988 113.571 50.0276 113.229 50.153L67.7656 67.1499C66.9812 67.443 66.119 67.457 65.3255 67.1896L19.2133 51.5723H19.1784ZM19.6774 49.6568C19.6234 49.6736 19.5771 49.7086 19.5461 49.7556C19.5152 49.8027 19.5016 49.8589 19.5077 49.9148C19.5013 49.9729 19.5166 50.0312 19.5506 50.0788C19.5847 50.1263 19.6351 50.1598 19.6923 50.1729L65.8045 65.7802C66.2701 65.9387 66.7768 65.9299 67.2366 65.7554L112.7 48.7635C112.754 48.7458 112.799 48.7107 112.83 48.6638C112.861 48.617 112.875 48.5612 112.87 48.5054C112.874 48.4478 112.858 48.3904 112.824 48.3433C112.791 48.2962 112.741 48.2622 112.685 48.2474L66.573 32.64C66.1073 32.4816 65.6006 32.4904 65.1408 32.6648L19.6774 49.6568Z" fill="#3D7FFC"/>
<path d="M34.278 74.6012C34.6943 74.7383 35.0424 75.0283 35.251 75.412C35.4597 75.7957 35.5132 76.2441 35.4007 76.6657L28.9687 101.36L22.362 99.1661L32.1323 75.5788C32.2984 75.1755 32.6125 74.85 33.0109 74.6685C33.4094 74.4869 33.8623 74.4629 34.278 74.6012Z" fill="#3D7FFC"/>
<path d="M22.1077 99.8641C22.0144 99.83 21.9288 99.7778 21.856 99.7105C21.7832 99.6432 21.7246 99.5621 21.6836 99.472C21.6428 99.3789 21.6217 99.2783 21.6217 99.1767C21.6217 99.0751 21.6428 98.9746 21.6836 98.8815L31.4539 75.2942C31.6952 74.719 32.1454 74.2551 32.715 73.9949C33.2845 73.7347 33.9316 73.6971 34.5277 73.8898H34.5876C35.1634 74.1034 35.6396 74.5208 35.9251 75.062C36.2105 75.6033 36.2851 76.2302 36.1345 76.8227L29.7024 101.522C29.6769 101.62 29.6315 101.712 29.5688 101.792C29.5062 101.873 29.4277 101.939 29.3382 101.988C29.2483 102.037 29.1489 102.067 29.0466 102.076C28.9443 102.085 28.8413 102.072 28.7444 102.038L22.1377 99.8442L22.1077 99.8641Z" fill="#FECE4D"/>
<path d="M34.3928 75.1955C34.2086 75.1282 34.0583 74.9917 33.9743 74.8154C33.8904 74.639 33.8793 74.4369 33.9437 74.2526L39.6622 57.8363C39.6967 57.7339 39.7535 57.6404 39.8286 57.5623C39.9036 57.4843 39.995 57.4236 40.0963 57.3847L65.8944 47.3404C66.079 47.269 66.2846 47.2733 66.4661 47.3524C66.6475 47.4314 66.7901 47.5788 66.8625 47.7622C66.9343 47.9459 66.9299 48.1503 66.8504 48.3308C66.7709 48.5112 66.6227 48.653 66.4383 48.725L40.9596 58.6502L35.3558 74.7439C35.3244 74.8363 35.2749 74.9217 35.2101 74.995C35.1453 75.0683 35.0666 75.1281 34.9784 75.171C34.8903 75.2139 34.7945 75.2391 34.6966 75.245C34.5986 75.2509 34.5005 75.2374 34.4078 75.2054L34.3928 75.1955Z" fill="#FECE4D"/>
</g>
<defs>
<clipPath id="clip0_2028_41402">
<rect width="96.4858" height="71.0644" fill="white" transform="translate(18.011 31.0437)"/>
</clipPath>
</defs>
</svg>
