<svg width="132" height="132" viewBox="0 0 132 132" fill="none" xmlns="http://www.w3.org/2000/svg">
<circle cx="66" cy="66.4204" r="65.5" fill="#F5F8FF" fill-opacity="0.15"/>
<rect x="4.70312" y="27.541" width="122.594" height="77.2137" rx="10" fill="#091B36"/>
<path d="M33.3502 68.2986H24.166C21.9569 68.2986 20.166 70.0894 20.166 72.2986V81.3857C20.166 83.5948 21.9569 85.3857 24.166 85.3857H33.3502C35.5593 85.3857 37.3502 83.5948 37.3502 81.3857V72.2986C37.3502 70.0894 35.5593 68.2986 33.3502 68.2986Z" fill="#0AC98A"/>
<path d="M28.7576 79.8144L31.3711 79.1559L32.463 82.5021L28.7576 79.8144ZM34.7721 75.4893H30.1717L28.7576 71.1819L27.3435 75.4893H22.7432L26.4664 78.1591L25.0523 82.4665L28.7755 79.7966L31.0668 78.1591L34.7721 75.4893Z" fill="white"/>
<path d="M51.9616 68.2986H42.7774C40.5683 68.2986 38.7774 70.0894 38.7774 72.2986V81.3857C38.7774 83.5948 40.5683 85.3857 42.7774 85.3857H51.9616C54.1707 85.3857 55.9616 83.5948 55.9616 81.3857V72.2986C55.9616 70.0894 54.1707 68.2986 51.9616 68.2986Z" fill="#0AC98A"/>
<path d="M47.37 79.8147L49.9834 79.1561L51.0753 82.5023L47.37 79.8147ZM53.3845 75.4895H48.7841L47.37 71.1821L45.9559 75.4895H41.3555L45.0788 78.1594L43.6647 82.4667L47.3879 79.7969L49.6791 78.1594L53.3845 75.4895Z" fill="white"/>
<path d="M70.5854 68.2986H61.4012C59.192 68.2986 57.4012 70.0894 57.4012 72.2986V81.3857C57.4012 83.5948 59.192 85.3857 61.4012 85.3857H70.5854C72.7945 85.3857 74.5854 83.5948 74.5854 81.3857V72.2986C74.5854 70.0894 72.7945 68.2986 70.5854 68.2986Z" fill="#0AC98A"/>
<path d="M65.9957 79.8147L68.6092 79.1561L69.7011 82.5023L65.9957 79.8147ZM72.0102 75.4895H67.4098L65.9957 71.1821L64.5816 75.4895H59.9813L63.7045 78.1594L62.2904 82.4667L66.0136 79.7969L68.3048 78.1594L72.0102 75.4895Z" fill="white"/>
<path d="M89.1968 68.2986H80.0126C77.8034 68.2986 76.0126 70.0894 76.0126 72.2986V81.3857C76.0126 83.5948 77.8034 85.3857 80.0126 85.3857H89.1968C91.4059 85.3857 93.1968 83.5948 93.1968 81.3857V72.2986C93.1968 70.0894 91.4059 68.2986 89.1968 68.2986Z" fill="#0AC98A"/>
<path d="M84.6071 79.8144L87.2205 79.1559L88.3125 82.5021L84.6071 79.8144ZM90.6216 75.4893H86.0212L84.6071 71.1819L83.193 75.4893H78.5927L82.3159 78.1591L80.9018 82.4665L84.625 79.7966L86.9162 78.1591L90.6216 75.4893Z" fill="white"/>
<path d="M107.806 68.2986H103.214V85.3857H107.806C110.015 85.3857 111.806 83.5948 111.806 81.3857V72.2986C111.806 70.0894 110.015 68.2986 107.806 68.2986Z" fill="#DCDCE6"/>
<path d="M109.764 68.2986H98.4355C96.2264 68.2986 94.4355 70.0894 94.4355 72.2986V81.3857C94.4355 83.5948 96.2264 85.3857 98.4355 85.3857H109.764V68.2986Z" fill="#0AC98A"/>
<path d="M103.222 79.8142L105.835 79.1556L106.927 82.5018L103.222 79.8142ZM109.236 75.489H104.636L103.222 71.1816L101.808 75.489H97.2072L100.93 78.1589L99.5163 82.4662L103.24 79.7964L105.531 78.1589L109.236 75.489Z" fill="white"/>
<g clip-path="url(#clip0_2028_41417)">
<path d="M45.3164 49.7048H54.1641V51.3556H50.6852V60.6352H48.7722V51.3556H45.3087L45.3164 49.7048ZM53.7861 52.7209H55.4214V54.2482H55.4523C55.511 54.0224 55.6132 53.8102 55.7531 53.6234C55.904 53.4145 56.0831 53.2276 56.2854 53.068C56.4962 52.8994 56.7299 52.7617 56.9796 52.6592C57.2273 52.5592 57.4916 52.5069 57.7587 52.5049C57.9593 52.5049 58.1058 52.5126 58.183 52.5204C58.2601 52.5281 58.3372 52.5435 58.4221 52.5512V54.2328C58.2987 54.2097 58.1752 54.1942 58.0441 54.1788C57.9187 54.1636 57.7925 54.1559 57.6661 54.1557C57.3791 54.1556 57.0952 54.2161 56.833 54.3331C56.5709 54.4523 56.3389 54.6289 56.1542 54.8499C55.9487 55.1016 55.7918 55.3893 55.6914 55.6984C55.5713 56.0747 55.5139 56.4682 55.5217 56.8632V60.6275H53.7784L53.7861 52.7209ZM66.4367 60.6352H64.7242V59.5321H64.6934C64.4738 59.9368 64.1416 60.2691 63.7369 60.4887C63.3439 60.7204 62.8971 60.8454 62.4409 60.8512C61.3996 60.8512 60.6436 60.5966 60.1808 60.0798C59.718 59.563 59.4866 58.7839 59.4866 57.7426V52.7209H61.2299V57.5729C61.2299 58.2671 61.361 58.7608 61.631 59.0462C61.901 59.3316 62.2712 59.4782 62.7495 59.4782C63.0642 59.4897 63.3776 59.4317 63.6674 59.3084C63.8997 59.2076 64.1036 59.0513 64.2614 58.8533C64.4201 58.654 64.5333 58.4223 64.5931 58.1745C64.6633 57.8946 64.697 57.6068 64.6934 57.3183V52.7286H66.4367V60.6352ZM69.4065 58.0974C69.4605 58.6065 69.6533 58.9613 69.985 59.1696C70.3531 59.3806 70.7718 59.4873 71.196 59.4782C71.3817 59.4753 71.5671 59.4624 71.7514 59.4396C71.9524 59.4164 72.1494 59.3671 72.3377 59.293C72.5133 59.2271 72.6698 59.1184 72.7928 58.9768C72.9134 58.8239 72.9713 58.6308 72.9548 58.4368C72.9539 58.3334 72.9315 58.2313 72.889 58.137C72.8465 58.0427 72.7848 57.9583 72.7079 57.8891C72.5373 57.7359 72.3381 57.6179 72.1217 57.542C71.8549 57.4479 71.5816 57.3731 71.304 57.3183C70.9955 57.2566 70.6869 57.1872 70.3707 57.1177C70.0524 57.0477 69.7382 56.9601 69.4296 56.8555C69.1392 56.7606 68.8658 56.62 68.6197 56.4389C68.3786 56.2672 68.1827 56.0395 68.0488 55.7756C67.9023 55.5056 67.8329 55.1739 67.8329 54.7728C67.8207 54.3883 67.9315 54.01 68.1491 53.6928C68.3583 53.4025 68.6297 53.1626 68.9436 52.9909C69.2793 52.8102 69.641 52.6826 70.0158 52.6129C70.3874 52.5444 70.7642 52.5083 71.142 52.5049C71.5366 52.5044 71.9299 52.5484 72.3145 52.6361C72.6744 52.7147 73.0169 52.8585 73.325 53.0603C73.6258 53.2557 73.881 53.5135 74.0733 53.8163C74.2835 54.1579 74.4128 54.5432 74.4512 54.9425H72.6308C72.546 54.5259 72.3608 54.2405 72.06 54.1017C71.7364 53.9518 71.3829 53.8779 71.0263 53.8857C70.8793 53.886 70.7324 53.8963 70.5867 53.9165C70.4237 53.9387 70.2635 53.9774 70.1084 54.0322C69.9658 54.0858 69.8368 54.17 69.7304 54.2791C69.6254 54.3948 69.57 54.5472 69.5762 54.7033C69.573 54.8007 69.5914 54.8975 69.6301 54.9868C69.6687 55.0762 69.7267 55.1559 69.7999 55.2202C69.9713 55.3645 70.1672 55.4768 70.3784 55.5519C70.6452 55.646 70.9185 55.7207 71.196 55.7756C71.5046 55.8373 71.8209 55.9067 72.1448 55.9761C72.4688 56.0455 72.7697 56.1381 73.0782 56.2384C73.3717 56.3316 73.6479 56.4723 73.8959 56.6549C74.1335 56.8294 74.3309 57.053 74.4744 57.3106C74.6311 57.6128 74.7081 57.95 74.6981 58.2902C74.7109 58.7121 74.5981 59.1282 74.3741 59.4859C74.1602 59.8104 73.8754 60.0821 73.541 60.2804C73.1863 60.4885 72.8011 60.6395 72.3994 60.7278C71.9917 60.8192 71.5753 60.8658 71.1575 60.8666C70.6892 60.872 70.2222 60.815 69.769 60.6969C69.3736 60.5952 68.9999 60.4227 68.6659 60.1878C68.3603 59.9613 68.1098 59.6686 67.9331 59.3316C67.7476 58.9519 67.65 58.5354 67.6477 58.1128H69.4065V58.0974ZM75.1609 52.7209H76.48V50.3451H78.2233V52.7209H79.7969V54.0245H78.2233V58.2517C78.2221 58.4114 78.2298 58.5711 78.2464 58.7299C78.2589 58.8492 78.2956 58.9647 78.3544 59.0693C78.413 59.1658 78.5028 59.2392 78.609 59.2776C78.7575 59.3298 78.9145 59.3534 79.0718 59.347C79.1952 59.347 79.3186 59.347 79.442 59.3393C79.5669 59.3327 79.6908 59.3146 79.8123 59.2853V60.6352C79.6195 60.6584 79.4266 60.6738 79.2492 60.6969C79.0623 60.7189 78.8743 60.7292 78.6861 60.7278C78.3115 60.7376 77.9374 60.6935 77.5753 60.5966C77.3262 60.5291 77.0997 60.3959 76.9196 60.211C76.7566 60.0332 76.6447 59.8146 76.5957 59.5784C76.5355 59.2916 76.5019 58.9998 76.4954 58.7068V54.04H75.1763V52.7209H75.1609ZM81.0311 52.7209H82.6818V53.7931H82.7127C82.9328 53.3572 83.2946 53.009 83.7386 52.8058C84.1867 52.6029 84.6737 52.5002 85.1656 52.5049C85.7905 52.5049 86.3304 52.6129 86.7932 52.8366C87.244 53.0432 87.6402 53.3522 87.9503 53.7391C88.2632 54.1383 88.4963 54.594 88.6368 55.0813C88.794 55.6121 88.872 56.1631 88.8682 56.7166C88.8699 57.238 88.7998 57.7571 88.66 58.2594C88.5325 58.7354 88.3209 59.1847 88.0352 59.5861C87.7561 59.9704 87.3918 60.2846 86.9707 60.5041C86.5011 60.745 85.9786 60.8643 85.451 60.8512C85.1949 60.8511 84.9393 60.8278 84.6874 60.7818C84.4354 60.7354 84.1895 60.6603 83.9546 60.5581C83.7208 60.4587 83.5026 60.3262 83.3066 60.1647C83.112 60.0064 82.9429 59.8191 82.8052 59.6093H82.7744V63.5587H81.0311V52.7209ZM87.1249 56.6858C87.1253 56.334 87.0786 55.9838 86.9861 55.6444C86.9011 55.3239 86.7601 55.021 86.5695 54.7496C86.3896 54.4933 86.1552 54.2799 85.883 54.1248C85.5926 53.9649 85.2658 53.8825 84.9342 53.8857C84.2014 53.8857 83.646 54.1402 83.2758 54.6493C82.9055 55.1585 82.7204 55.8373 82.7204 56.6858C82.7157 57.0612 82.765 57.4352 82.8669 57.7966C82.9534 58.1161 83.1029 58.4151 83.3066 58.6759C83.4929 58.9172 83.7299 59.1147 84.0009 59.2545C84.3061 59.4017 84.6415 59.4756 84.9803 59.4702C85.3191 59.4648 85.652 59.3804 85.9524 59.2236C86.2224 59.0651 86.4541 58.8491 86.6313 58.5911C86.8136 58.3218 86.9444 58.021 87.0169 57.704C87.088 57.3692 87.1242 57.028 87.1249 56.6858ZM90.2027 49.7048H91.946V51.3556H90.2027V49.7048ZM90.2027 52.7209H91.946V60.6352H90.2027V52.7209ZM93.5042 49.7048H95.2475V60.6352H93.5042V49.7048ZM100.593 60.8512C100.015 60.8602 99.44 60.7527 98.9038 60.5349C98.4259 60.3414 97.996 60.0457 97.6442 59.6686C97.2925 59.2915 97.0273 58.8422 96.8674 58.3519C96.6836 57.8105 96.5923 57.2421 96.5974 56.6703C96.5929 56.1037 96.6842 55.5404 96.8674 55.0042C97.0339 54.5157 97.2991 54.0667 97.6465 53.6851C97.9981 53.3095 98.4271 53.0147 98.9038 52.8212C99.9906 52.3995 101.196 52.3995 102.282 52.8212C102.76 53.0148 103.19 53.3104 103.542 53.6875C103.894 54.0646 104.159 54.5139 104.319 55.0042C104.502 55.5404 104.593 56.1037 104.589 56.6703C104.594 57.2421 104.503 57.8105 104.319 58.3519C104.152 58.8404 103.887 59.2894 103.54 59.671C103.188 60.0466 102.759 60.3414 102.282 60.5349C101.746 60.7527 101.172 60.8602 100.593 60.8512ZM100.593 59.4704C100.946 59.4777 101.294 59.3926 101.604 59.2236C101.882 59.0652 102.122 58.8464 102.306 58.5834C102.492 58.3108 102.631 58.0081 102.714 57.6886C102.889 57.0236 102.889 56.3248 102.714 55.6598C102.635 55.3386 102.497 55.0351 102.306 54.765C102.122 54.5043 101.882 54.2881 101.604 54.1325C101.291 53.9703 100.945 53.8856 100.593 53.8856C100.241 53.8856 99.8948 53.9703 99.5826 54.1325C99.3059 54.2904 99.0665 54.5062 98.8807 54.765C98.6926 55.0368 98.5542 55.3398 98.4719 55.6598C98.297 56.3248 98.297 57.0236 98.4719 57.6886C98.5524 58.0093 98.6909 58.3125 98.8807 58.5834C99.064 58.8464 99.3038 59.0652 99.5826 59.2236C99.8908 59.3961 100.24 59.4815 100.593 59.4704ZM105.098 52.7209H106.417V50.3451H108.16V52.7209H109.734V54.0245H108.16V58.2517C108.159 58.4114 108.167 58.5711 108.183 58.7299C108.196 58.8492 108.233 58.9647 108.291 59.0693C108.35 59.1658 108.44 59.2392 108.546 59.2776C108.694 59.3298 108.852 59.3534 109.009 59.347C109.132 59.347 109.256 59.347 109.379 59.3393C109.504 59.3327 109.628 59.3146 109.749 59.2853V60.6352C109.557 60.6584 109.364 60.6738 109.186 60.6969C108.999 60.7189 108.811 60.7292 108.623 60.7278C108.249 60.7376 107.874 60.6935 107.512 60.5966C107.263 60.5291 107.037 60.3959 106.857 60.211C106.694 60.0332 106.582 59.8146 106.533 59.5784C106.473 59.2916 106.439 58.9998 106.432 58.7068V54.04H105.113V52.7209H105.098Z" fill="white"/>
<path d="M43.2799 49.7049H35.2885L32.8201 42.0991L30.344 49.7049L22.3525 49.6972L28.8244 54.4025L26.3483 62.0006L32.8201 57.3029L39.2842 62.0006L36.8158 54.4025L43.2799 49.7049Z" fill="#0AC98A"/>
<path d="M37.3713 56.122L36.8159 54.4019L32.8202 57.3022L37.3713 56.122Z" fill="#091B36"/>
</g>
<defs>
<clipPath id="clip0_2028_41417">
<rect width="87.3967" height="21.4596" fill="white" transform="translate(22.3525 42.0991)"/>
</clipPath>
</defs>
</svg>
