<svg width="56" height="56" viewBox="0 0 56 56" fill="none" xmlns="http://www.w3.org/2000/svg">
<rect width="56" height="56" rx="9.33333" fill="#15C1E6" fill-opacity="0.05"/>
<mask id="mask0_1217_36633" style="mask-type:alpha" maskUnits="userSpaceOnUse" x="6" y="9" width="41" height="41">
<rect x="6.66406" y="9.33337" width="40" height="40" fill="#F5EFEF"/>
</mask>
<g mask="url(#mask0_1217_36633)">
<path d="M30.5688 11.4793C30.7635 11.2847 31.079 11.2847 31.2736 11.4793L42.0314 22.2371C42.3454 22.5511 42.123 23.0879 41.679 23.0879H20.1634C19.7194 23.0879 19.4971 22.5511 19.811 22.2371L30.5688 11.4793Z" fill="#61C7E8"/>
<path fill-rule="evenodd" clip-rule="evenodd" d="M25.8247 29.0684H22.946C22.3955 29.0684 21.9492 28.6222 21.9492 28.0717V26.9363C23.4488 27.258 24.7868 28.0149 25.8247 29.0684ZM28.3135 29.0684C26.9995 27.1349 25.0022 25.7033 22.6688 25.1205C22.7568 25.095 22.8498 25.0814 22.946 25.0814H38.8939C39.4444 25.0814 39.8907 25.5277 39.8907 26.0782V28.0717C39.8907 28.6222 39.4444 29.0684 38.8939 29.0684H28.3135Z" fill="#57BEE2"/>
<path fill-rule="evenodd" clip-rule="evenodd" d="M25.7838 39.9535L25.7828 39.9525L25.7844 39.9509C26.5952 39.1399 27.2265 38.1495 27.6137 37.0443H22.946C22.3955 37.0443 21.9492 37.4906 21.9492 38.0411V40.0346C21.9492 40.585 22.3955 41.0313 22.946 41.0313H24.706L25.7838 39.9535ZM29.6355 37.0443C29.2223 38.5531 28.4525 39.9148 27.4239 41.0313H38.8939C39.4444 41.0313 39.8907 40.585 39.8907 40.0346V38.0411C39.8907 37.4906 39.4444 37.0443 38.8939 37.0443H29.6355Z" fill="#98DEF4"/>
<path fill-rule="evenodd" clip-rule="evenodd" d="M28.0261 35.0508H22.946C22.3955 35.0508 21.9492 34.6046 21.9492 34.0541V32.0606C21.9492 31.5101 22.3955 31.0638 22.946 31.0638H27.247C27.7586 32.0962 28.0462 33.2592 28.0462 34.4894C28.0462 34.6782 28.0394 34.8654 28.0261 35.0508ZM29.3523 31.0638C29.7563 32.1285 29.9775 33.2831 29.9775 34.4894C29.9775 34.6778 29.9721 34.865 29.9614 35.0508H38.8939C39.4444 35.0508 39.8907 34.6046 39.8907 34.0541V32.0606C39.8907 31.5101 39.4444 31.0638 38.8939 31.0638H29.3523Z" fill="#75D1ED"/>
<path fill-rule="evenodd" clip-rule="evenodd" d="M14.859 39.9518C13.4605 38.5538 12.5954 36.6221 12.5954 34.4885C12.5954 30.2221 16.054 26.7636 20.3203 26.7636C24.5866 26.7636 28.0452 30.2221 28.0452 34.4885C28.0452 36.6221 27.1802 38.5536 25.7818 39.9516L25.7828 39.9526L20.3205 45.4149L14.8582 39.9526L14.859 39.9518Z" fill="#15C1E6"/>
</g>
</svg>
