<svg xmlns="http://www.w3.org/2000/svg" width="86" height="28" viewBox="0 0 86 28" fill="none"><g id="logos_alone/Shopee"><g id="Group 114215"><g id="Group 114213"><g id="Shopee 1" clip-path="url(#clip0_47945_27593)"><g id="Group"><path id="Vector" fill-rule="evenodd" clip-rule="evenodd" d="M16.1601 19.0699C16.0118 20.2936 15.2703 21.2736 14.1218 21.7644C13.4822 22.0377 12.6234 22.1853 11.9436 22.139C10.8831 22.0984 9.88687 21.8405 8.96854 21.3691C8.64046 21.2006 8.1514 20.8641 7.77586 20.549C7.68074 20.4694 7.66945 20.4183 7.73238 20.329C7.76637 20.2778 7.82902 20.1854 7.96752 19.9824C8.16839 19.6881 8.19345 19.6512 8.21604 19.6167C8.28031 19.5181 8.38473 19.5095 8.48773 19.5905C8.49855 19.5989 8.49855 19.5989 8.50671 19.6053C8.52361 19.6184 8.52361 19.6184 8.56348 19.6494C8.60382 19.6809 8.62774 19.6994 8.63743 19.7067C9.62781 20.4824 10.7813 20.9297 11.9458 20.9744C13.5659 20.9524 14.731 20.2239 14.9397 19.1053C15.1692 17.8743 14.2029 16.8109 12.3122 16.2181C11.7209 16.0328 10.2262 15.4345 9.95066 15.2729C8.65651 14.5136 8.05144 13.519 8.13744 12.2905C8.2692 10.5876 9.85004 9.31757 11.8475 9.30906C12.7408 9.30724 13.6322 9.49287 14.4885 9.85371C14.7917 9.98151 15.3331 10.2761 15.52 10.4157C15.6276 10.4947 15.6489 10.5869 15.5872 10.6863C15.5527 10.7439 15.4958 10.8353 15.3757 11.0258L15.3744 11.0279C15.2163 11.2788 15.2114 11.2866 15.1751 11.3453C15.1125 11.4407 15.0388 11.4496 14.9258 11.3779C14.0095 10.7623 12.9937 10.4526 11.8765 10.4303C10.4856 10.4578 9.44308 11.2856 9.37454 12.4132C9.35631 13.4317 10.1202 14.1753 11.7702 14.7422C15.1196 15.8185 16.4013 17.0803 16.1601 19.0699ZM12.0237 1.48779C14.2043 1.48779 15.9817 3.55714 16.0649 6.14753H7.98261C8.06577 3.55714 9.8432 1.48779 12.0237 1.48779ZM23.3089 6.63455C23.3089 6.36557 23.0923 6.14753 22.8252 6.14753H17.5865C17.458 2.72726 15.0166 -1.52588e-05 12.0237 -1.52588e-05C9.0309 -1.52588e-05 6.58954 2.72726 6.46101 6.14753L1.21481 6.14763C0.951765 6.15241 0.73998 6.36862 0.73998 6.63455C0.73998 6.64726 0.740456 6.65988 0.741404 6.6723H0.737701L1.48555 23.1576C1.48564 23.2035 1.48735 23.2498 1.49077 23.2963C1.49153 23.3068 1.49238 23.3173 1.49324 23.3277L1.49485 23.3625L1.49665 23.3643C1.61028 24.5114 2.4428 25.4354 3.57482 25.478L3.57738 25.4805H20.2187C20.2266 25.4806 20.2345 25.4807 20.2424 25.4807C20.2503 25.4807 20.2581 25.4806 20.266 25.4805H20.3014L20.3022 25.4798C21.4539 25.4484 22.3869 24.5115 22.4854 23.3502L22.486 23.3497L22.4868 23.3341C22.4877 23.3218 22.4886 23.3097 22.4894 23.2975C22.4912 23.2682 22.4924 23.2391 22.4929 23.2101L23.3089 6.65969H23.3083C23.3088 6.65138 23.3089 6.64296 23.3089 6.63455ZM78.7867 17.3788C79.1074 16.3329 80.0769 15.6357 81.2082 15.6357C82.288 15.6357 83.3162 16.369 83.6713 17.3768L83.6957 17.446H78.766L78.7867 17.3788ZM84.7929 18.894C84.7995 18.8942 84.7995 18.8942 84.8093 18.8943C84.8191 18.8942 84.8191 18.8942 84.829 18.894C85.065 18.8831 85.2519 18.6819 85.2519 18.4371C85.2519 18.4252 85.2515 18.4149 85.2505 18.3985C85.2507 18.3955 85.2507 18.3895 85.2507 18.3703C85.2507 16.0605 83.44 14.1887 81.2067 14.1887C78.9736 14.1887 77.1629 16.0605 77.1629 18.3703C77.1629 18.5425 77.1728 18.7142 77.193 18.8848L77.1944 18.894L77.2006 18.939C77.3118 19.7701 77.6664 20.5329 78.2265 21.1501C78.2262 21.1498 78.2268 21.1504 78.2296 21.1536C78.8506 21.837 79.6937 22.3027 80.6287 22.4769L80.641 22.4792V22.478L80.7017 22.4881C80.7329 22.4934 80.7659 22.4987 80.81 22.5055C82.0407 22.6535 83.1324 22.4761 84.0569 22.0106C84.2845 21.8959 84.4892 21.7693 84.6665 21.6356C84.7236 21.5925 84.7749 21.5509 84.8193 21.5119C84.8422 21.4918 84.8604 21.4749 84.8701 21.4651C85.0787 21.2503 85.0917 21.1741 84.9658 20.9779C84.8273 20.7574 84.7051 20.5695 84.6003 20.4141C84.5637 20.3596 84.5318 20.3132 84.505 20.2747C84.4901 20.2535 84.4901 20.2535 84.4807 20.2402C84.4772 20.2349 84.4772 20.2349 84.4746 20.2316L84.4732 20.2299C84.3593 20.0881 84.2813 20.0751 84.1548 20.1868C84.1413 20.1987 84.0962 20.2335 84.0881 20.2422C83.1987 21.0319 81.9843 21.2859 80.7716 21.0322C80.5458 20.9715 80.3346 20.8945 80.14 20.8015C79.3802 20.4205 78.8419 19.7417 78.6866 18.956L78.6743 18.8939L84.7929 18.894ZM69.1639 17.3788C69.4845 16.3329 70.454 15.6357 71.5853 15.6357C72.6652 15.6357 73.6933 16.369 74.0486 17.3768L74.0729 17.446H69.1432L69.1639 17.3788ZM75.17 18.894C75.1767 18.8942 75.1767 18.8942 75.1865 18.8943C75.1962 18.8942 75.1962 18.8942 75.2061 18.894C75.4421 18.8831 75.629 18.6819 75.629 18.4371C75.629 18.4252 75.6286 18.4149 75.6276 18.3985C75.6278 18.3955 75.6278 18.3895 75.6278 18.3703C75.6278 16.0605 73.8171 14.1887 71.5839 14.1887C69.3508 14.1887 67.54 16.0605 67.54 18.3703C67.54 18.5425 67.5501 18.7142 67.5702 18.8848L67.5715 18.894L67.5778 18.939C67.689 19.7701 68.0436 20.5329 68.6037 21.1501C68.6034 21.1498 68.604 21.1504 68.6068 21.1536C69.2278 21.837 70.0708 22.3027 71.0059 22.4769L71.0181 22.4792V22.478L71.0789 22.4881C71.1101 22.4934 71.143 22.4987 71.1872 22.5055C72.4179 22.6535 73.5097 22.4761 74.434 22.0106C74.6616 21.8959 74.8663 21.7693 75.0437 21.6356C75.1007 21.5925 75.152 21.5509 75.1964 21.5119C75.2193 21.4918 75.2375 21.4749 75.2472 21.4651C75.4558 21.2503 75.4688 21.1741 75.3429 20.9779C75.2044 20.7574 75.0822 20.5695 74.9774 20.4141C74.9408 20.3596 74.9089 20.3132 74.8821 20.2747C74.8672 20.2535 74.8672 20.2535 74.8579 20.2402C74.8543 20.2349 74.8543 20.2349 74.8517 20.2316L74.8508 20.2299C74.7367 20.0881 74.6587 20.0751 74.5322 20.1868C74.5188 20.1987 74.4737 20.2335 74.4655 20.2422C73.5763 21.0319 72.3618 21.2859 71.1491 21.0322C70.9233 20.9715 70.7121 20.8945 70.5175 20.8015C69.7578 20.4205 69.2195 19.7417 69.0642 18.956L69.0519 18.8939L75.17 18.894ZM61.8198 21.197C60.3158 21.197 59.0857 20.0045 59.0479 18.5101V18.3695C59.0853 16.8775 60.3158 15.6848 61.8198 15.6848C63.3511 15.6848 64.5924 16.9188 64.5924 18.4409C64.5924 19.963 63.3511 21.197 61.8198 21.197ZM61.8207 14.2227C60.8342 14.2227 59.8917 14.5587 59.1341 15.175L59.048 15.245V14.4737C59.048 14.268 59.0038 14.2227 58.7957 14.2227H57.8275C57.6166 14.2227 57.575 14.2647 57.575 14.4737V26.7683C57.575 26.9702 57.6221 27.0193 57.8275 27.0193H58.7957C59.0018 27.0193 59.048 26.9713 59.048 26.7683V21.6411L59.1341 21.7111C59.8918 22.3274 60.8343 22.6634 61.8207 22.6634C64.1655 22.6634 66.0663 20.7739 66.0663 18.443C66.0663 16.1123 64.1655 14.2227 61.8207 14.2227ZM51.8501 21.1028C50.3157 21.1028 49.0719 19.8797 49.0719 18.3705C49.0719 16.8613 50.3158 15.6381 51.8501 15.6381C53.3841 15.6381 54.6281 16.8613 54.6281 18.3705C54.6281 19.8796 53.3842 21.1028 51.8501 21.1028ZM51.851 14.1887C49.5015 14.1887 47.5972 16.0619 47.5972 18.3726C47.5972 20.6831 49.5015 22.5564 51.851 22.5564C54.2003 22.5564 56.1044 20.6831 56.1044 18.3726C56.1044 16.0619 54.2004 14.1887 51.851 14.1887ZM42.3686 14.2816C41.511 14.2816 40.6811 14.5574 39.9925 15.067L39.9088 15.129V9.41909C39.9088 9.22984 39.8467 9.16806 39.6575 9.16806H38.6441C38.4395 9.16806 38.3927 9.21701 38.3927 9.41909V22.4447C38.3927 22.6419 38.4432 22.6959 38.6441 22.6959H39.6575C39.8455 22.6959 39.9088 22.6311 39.9088 22.4447V18.1901C39.9194 16.8508 41.0178 15.7698 42.3686 15.7698C43.7229 15.7698 44.8226 16.8561 44.8283 18.1998V22.4447C44.8283 22.6602 44.8642 22.6958 45.0797 22.6958H46.0906C46.3049 22.6958 46.342 22.6591 46.342 22.4447V18.1874C46.334 16.0398 44.5432 14.2816 42.3686 14.2816ZM28.2477 20.3332L28.2453 20.3368C28.1008 20.5557 28.0403 20.6478 28.0065 20.7006C27.8925 20.8702 27.9067 20.9458 28.0807 21.0928C28.4866 21.4201 29.0085 21.7638 29.3606 21.936C30.3402 22.415 31.3983 22.6682 32.5195 22.6911C33.2439 22.7276 34.1535 22.5554 34.8309 22.2533C36.0573 21.7062 36.8384 20.64 36.9753 19.3267C37.1971 17.1986 35.8125 15.8683 32.246 14.7963L32.2451 14.796C30.5834 14.2601 29.8029 13.5477 29.8026 12.553C29.8515 11.4536 30.8708 10.6323 32.246 10.5811C33.3538 10.5838 34.3332 10.878 35.2955 11.4973C35.4985 11.6204 35.5921 11.5977 35.7285 11.4207C35.7442 11.3945 35.7878 11.3312 35.9702 11.0692L35.9708 11.0684C36.1411 10.8237 36.1972 10.742 36.2111 10.7179C36.3261 10.5016 36.3096 10.4182 36.1021 10.271C35.8978 10.1247 35.3221 9.82513 34.993 9.69374C34.0774 9.32846 33.1308 9.15106 32.1888 9.16939C30.0448 9.21595 28.3728 10.6103 28.2626 12.4394C28.1927 13.7607 28.8633 14.8231 30.2643 15.6085C30.6571 15.8159 32.0932 16.3587 32.7634 16.555C34.6694 17.1131 35.663 18.1399 35.4577 19.3513C35.2712 20.4519 34.118 21.1839 32.4998 21.234C31.3263 21.2096 30.1439 20.7795 29.1173 20.008C29.1122 20.0042 29.0861 19.9849 29.0382 19.9491C28.9707 19.8988 28.9707 19.8988 28.9606 19.8913C28.7513 19.7468 28.6282 19.7588 28.5004 19.9492C28.485 19.9728 28.326 20.2144 28.2477 20.3332Z" fill="#EE4D2D"></path></g></g></g></g></g><defs><clipPath id="clip0_47945_27593"><rect width="84.5141" height="27.0193" fill="white" transform="translate(0.737701 -1.52588e-05)"></rect></clipPath></defs></svg>