<svg xmlns="http://www.w3.org/2000/svg" width="101" height="22" viewBox="0 0 101 22" fill="none"><g clip-path="url(#clip0_47945_27596)"><path d="M35.4459 12.7445L34.8493 14.4331H34.7996C34.7001 14.0523 34.5178 13.4729 34.2195 12.7776L31.0208 4.7486H27.8884V17.5454H29.9601V9.64879C29.9601 9.15215 29.9601 8.58929 29.9435 7.89399C29.9269 7.54634 29.8938 7.28147 29.8772 7.08281H29.9269C30.0264 7.57945 30.1424 7.94366 30.2253 8.17542L34.0703 17.5123H35.5288L39.3407 8.09265C39.4236 7.87744 39.5064 7.44702 39.5893 7.08281H39.639C39.5893 8.02643 39.5562 8.87072 39.5396 9.38392V17.4957H41.7439V4.71549H38.7275L35.4459 12.7445ZM43.8321 8.32441H45.9867V17.4957H43.8321V8.32441ZM44.926 4.45062C44.5614 4.45062 44.2631 4.58305 44.0144 4.81482C43.7658 5.04658 43.6333 5.34457 43.6333 5.70877C43.6333 6.05642 43.7658 6.35441 44.0144 6.58617C44.2631 6.81794 44.5614 6.93382 44.926 6.93382C45.2906 6.93382 45.6055 6.80138 45.8375 6.58617C46.0861 6.35441 46.2187 6.05642 46.2187 5.70877C46.2187 5.36112 46.0861 5.06314 45.8375 4.81482C45.6221 4.58305 45.3072 4.45062 44.926 4.45062ZM53.6271 8.24164C53.2293 8.15887 52.815 8.1092 52.4172 8.1092C51.4394 8.1092 50.5444 8.32441 49.7986 8.75484C49.0528 9.18526 48.4562 9.78123 48.075 10.5262C47.6772 11.2877 47.4783 12.1651 47.4783 13.1749C47.4783 14.0523 47.6772 14.8304 48.0584 15.5423C48.4396 16.2376 48.9699 16.8004 49.6826 17.1812C50.3621 17.5619 51.1576 17.7606 52.0526 17.7606C53.0802 17.7606 53.9586 17.5454 54.6547 17.1481L54.6712 17.1315V15.1449L54.5884 15.2112C54.2735 15.4429 53.9088 15.6416 53.5442 15.7575C53.163 15.8899 52.815 15.9561 52.5167 15.9561C51.6549 15.9561 50.9753 15.7078 50.4947 15.1615C49.9975 14.6318 49.7489 13.9033 49.7489 12.9928C49.7489 12.0492 49.9975 11.3043 50.5113 10.758C51.0251 10.2116 51.7046 9.93022 52.5332 9.93022C53.2293 9.93022 53.942 10.162 54.5884 10.6255L54.6712 10.6917V8.58929L54.6547 8.57273C54.3729 8.45685 54.058 8.32441 53.6271 8.24164ZM60.7371 8.17542C60.2068 8.17542 59.7096 8.34097 59.2787 8.68862C58.9141 8.9866 58.6655 9.41702 58.45 9.93022H58.4334V8.32441H56.2789V17.4957H58.4334V12.8107C58.4334 12.0161 58.5992 11.3539 58.9638 10.8738C59.3284 10.3772 59.7925 10.1289 60.356 10.1289C60.5548 10.1289 60.7537 10.1785 61.0023 10.2117C61.2344 10.2779 61.4001 10.3441 61.5161 10.4269L61.599 10.4931V8.34097L61.5493 8.32441C61.4001 8.22509 61.1018 8.17542 60.7371 8.17542ZM66.6042 8.12576C65.096 8.12576 63.8861 8.57274 63.0409 9.45013C62.179 10.3275 61.7647 11.536 61.7647 13.0591C61.7647 14.4828 62.1956 15.6416 63.0243 16.4859C63.853 17.3136 64.98 17.744 66.3887 17.744C67.8638 17.744 69.0405 17.2971 69.8857 16.4031C70.7476 15.5092 71.1619 14.3172 71.1619 12.8438C71.1619 11.387 70.7641 10.2282 69.952 9.38392C69.1731 8.53963 68.0295 8.12576 66.6042 8.12576ZM68.3278 15.1781C67.9301 15.6913 67.3003 15.9396 66.5213 15.9396C65.7424 15.9396 65.1126 15.6913 64.6651 15.1449C64.2176 14.6318 64.0021 13.8868 64.0021 12.9432C64.0021 11.9664 64.2342 11.2215 64.6651 10.6917C65.1126 10.162 65.7258 9.89711 66.5047 9.89711C67.2671 9.89711 67.8638 10.1454 68.2947 10.6586C68.7256 11.1718 68.9576 11.9168 68.9576 12.8935C68.9245 13.8868 68.7422 14.6649 68.3278 15.1781ZM75.9682 12.132C75.2887 11.8506 74.8578 11.6354 74.6589 11.4533C74.4932 11.2877 74.4103 11.0559 74.4103 10.758C74.4103 10.5096 74.5098 10.2613 74.7584 10.0958C75.007 9.93022 75.2887 9.84745 75.703 9.84745C76.0677 9.84745 76.4489 9.91366 76.8135 10.013C77.1781 10.1123 77.5096 10.2613 77.7747 10.46L77.8576 10.5262V8.50652L77.8079 8.48996C77.5593 8.39063 77.2278 8.29131 76.83 8.20853C76.4323 8.14231 76.0677 8.1092 75.7693 8.1092C74.7418 8.1092 73.8965 8.35752 73.2336 8.90383C72.5707 9.41702 72.2558 10.1123 72.2558 10.9235C72.2558 11.3539 72.322 11.7347 72.4712 12.0492C72.6204 12.3638 72.8358 12.6617 73.1342 12.9101C73.4325 13.1418 73.8634 13.4067 74.46 13.655C74.9572 13.8702 75.3384 14.0358 75.5705 14.1682C75.8025 14.3007 75.9516 14.4497 76.0677 14.5655C76.1505 14.698 76.2003 14.8635 76.2003 15.0787C76.2003 15.6913 75.7362 15.9892 74.7915 15.9892C74.4269 15.9892 74.0457 15.923 73.5982 15.774C73.1507 15.625 72.7364 15.4098 72.3883 15.1615L72.3055 15.0953V17.1977L72.3552 17.2143C72.6701 17.3633 73.0513 17.4626 73.5153 17.5785C73.9794 17.6613 74.3937 17.7275 74.7584 17.7275C75.8688 17.7275 76.7803 17.4792 77.4267 16.9329C78.0896 16.4031 78.4377 15.7244 78.4377 14.847C78.4377 14.2344 78.2719 13.6881 77.9073 13.2743C77.4267 12.877 76.8301 12.4631 75.9682 12.132ZM84.1224 8.12576C82.6142 8.12576 81.4043 8.57274 80.5591 9.45013C79.7138 10.3275 79.2829 11.536 79.2829 13.0591C79.2829 14.4828 79.7138 15.6416 80.5425 16.4859C81.3712 17.3136 82.4982 17.744 83.907 17.744C85.382 17.744 86.5587 17.2971 87.404 16.4031C88.2658 15.5092 88.6801 14.3172 88.6801 12.8438C88.6801 11.387 88.2824 10.2282 87.4703 9.38392C86.6913 8.53963 85.5477 8.12576 84.1224 8.12576ZM85.8295 15.1781C85.4317 15.6913 84.8019 15.9396 84.023 15.9396C83.2274 15.9396 82.6142 15.6913 82.1667 15.1449C81.7192 14.6318 81.5038 13.8868 81.5038 12.9432C81.5038 11.9664 81.7358 11.2215 82.1667 10.6917C82.6142 10.162 83.2274 9.89711 84.0064 9.89711C84.7522 9.89711 85.3654 10.1454 85.7963 10.6586C86.2272 11.1718 86.4593 11.9168 86.4593 12.8935C86.4593 13.8868 86.2438 14.6649 85.8295 15.1781ZM100.199 10.0958V8.32441H98.0276V5.60944L97.9613 5.626L95.9062 6.23852L95.8565 6.25508V8.32441H92.6081V7.16559C92.6081 6.63584 92.7406 6.22197 92.9727 5.95709C93.2047 5.69222 93.5527 5.55978 93.9837 5.55978C94.282 5.55978 94.5969 5.626 94.9449 5.77499L95.0278 5.82466V3.95398L94.9781 3.93742C94.6797 3.83809 94.282 3.77187 93.7682 3.77187C93.1218 3.77187 92.5583 3.92087 92.0446 4.16919C91.5308 4.45062 91.1496 4.83137 90.8678 5.34457C90.5861 5.84121 90.4369 6.40407 90.4369 7.0497V8.32441H88.9287V10.0792H90.4369V17.4957H92.6081V10.0958H95.8565V14.8139C95.8565 16.7508 96.768 17.7275 98.5911 17.7275C98.8894 17.7275 99.2043 17.6778 99.5026 17.6282C99.8175 17.5619 100.05 17.4792 100.182 17.4129L100.199 17.3964V15.625L100.116 15.6913C99.9833 15.774 99.8673 15.8402 99.6684 15.8899C99.5026 15.9396 99.3535 15.9561 99.2375 15.9561C98.8066 15.9561 98.5082 15.8568 98.2928 15.6085C98.0939 15.3767 97.9945 14.996 97.9945 14.4331V10.0958H100.199Z" fill="#737373"></path><path d="M0.111115 0.444435H10.2707V10.5925H0.111115V0.444435Z" fill="#F25022"></path><path d="M11.3314 0.444443H21.491V10.5925H11.3314V0.444443Z" fill="#7FBA00"></path><path d="M0.111115 11.6519H10.2707V21.8H0.111115V11.6519Z" fill="#00A4EF"></path><path d="M11.3314 11.6519H21.491V21.8H11.3314V11.6519Z" fill="#FFB900"></path></g><defs><clipPath id="clip0_47945_27596"><rect width="100.104" height="21.3556" fill="white" transform="translate(0.111115 0.444435)"></rect></clipPath></defs></svg>