<svg xmlns="http://www.w3.org/2000/svg" width="97" height="30" viewBox="0 0 97 30" fill="none"><g id="logos_alone/McDonald's"><g id="Frame 114265"><g id="Group 114214"><g id="Group 114212"><g id="Frame 113532"><g id="Group"><g id="Group_2"><path id="Vector" d="M22.6863 14.6966C22.6668 13.8847 21.9351 13.31 21.1295 13.31C19.3478 13.31 19.067 14.8073 19.067 16.1367C19.067 17.375 19.6102 18.6484 20.9608 18.6484C22.0674 18.6484 22.6299 18.0214 22.7808 17.0051H25.8742C25.5925 19.5724 23.5682 21.0495 20.9793 21.0495C18.0538 21.0495 15.8774 19.0741 15.8774 16.1367C15.8774 13.0893 17.8476 10.9094 20.9793 10.9094C23.3993 10.9094 25.5559 12.166 25.7791 14.6968H22.6863V14.6966Z" fill="#231F20"></path><path id="Vector_2" d="M49.0857 11.1871H52.1783V12.5397H52.2176C52.7978 11.5336 53.7687 10.9094 55.1489 10.9094C58.3932 10.9094 58.7803 13.2354 58.7803 14.6217V20.7738H55.5929V16.1369C55.5929 14.8254 55.652 13.4942 53.9982 13.4942C52.8856 13.4942 52.2731 14.3967 52.2731 15.7958V20.7738H49.0859V11.1871H49.0857Z" fill="#231F20"></path><path id="Vector_3" d="M59.8426 14.142C59.8973 12.8863 60.4987 12.0732 61.3606 11.576C62.224 11.095 63.3487 10.9094 64.4557 10.9094C66.7615 10.9094 68.9946 11.4089 68.9946 14.1225V18.3162C68.9946 19.129 68.9946 20.0155 69.3701 20.7738H66.1619C66.0496 20.4772 66.0134 20.1821 65.9747 19.8682C65.1508 20.7172 63.931 21.0495 62.7668 21.0495C60.9109 21.0495 59.4485 20.1268 59.4485 18.1493C59.4485 15.0289 62.8989 15.2677 65.1117 14.825C65.6553 14.7141 65.9557 14.5304 65.9557 13.9385C65.9557 13.2172 65.0753 12.9424 64.4181 12.9424C63.5368 12.9424 62.9753 13.3296 62.8249 14.142H59.8426ZM63.9676 19.1105C65.4866 19.1105 65.9936 18.2615 65.9193 16.2844C65.4693 16.5632 64.6444 16.6171 63.9495 16.8014C63.2374 16.9672 62.6368 17.2637 62.6368 18.0214C62.6368 18.7962 63.2557 19.1105 63.9676 19.1105Z" fill="#231F20"></path><path id="Vector_4" d="M70.0353 9.04993H73.2223V20.7742H70.0353V9.04993Z" fill="#231F20"></path><path id="Vector_5" d="M83.9987 20.7744H80.9586V19.6653H80.9224C80.3041 20.5703 79.3664 21.0501 78.2403 21.0501C75.1841 21.0501 73.8897 18.4643 73.8897 15.7678C73.8897 13.2744 75.239 10.91 77.9962 10.91C79.1962 10.91 80.1162 11.3537 80.7716 12.2215H80.8107V9.04993H83.9985L83.9987 20.7744ZM77.0781 15.8787C77.0781 17.19 77.565 18.649 79.0282 18.649C80.5851 18.649 80.9226 17.19 80.9226 15.9715C80.9226 14.5861 80.4158 13.3108 79.0282 13.3108C77.565 13.3108 77.0781 14.6602 77.0781 15.8787Z" fill="#231F20"></path><path id="Vector_6" d="M86.1552 12.2215H84.6636V9.04993H87.6451L86.1552 12.2215Z" fill="#231F20"></path><g id="Group_3"><path id="Vector_7" d="M31.6611 9.0539H26.543V20.7782H31.6611C35.2784 20.7782 37.4953 18.7092 37.4953 14.8681C37.4953 11.2377 35.3108 9.0539 31.6611 9.0539ZM31.3729 18.061H29.9399V11.7722H31.3729C33.2252 11.7722 34.0557 12.9922 34.0557 14.8585C34.0557 16.9132 33.3858 18.061 31.3729 18.061Z" fill="#231F20"></path></g><path id="Vector_8" d="M9.80508 20.7751L11.08 16.0754C11.2248 15.5268 11.3675 14.8838 11.4224 14.5596H11.4587C11.4901 14.8089 11.5881 15.5123 11.7058 16.1123L12.6108 20.7751H16.1209L13.6623 9.03384H9.94122L8.45084 14.931C8.32511 15.388 8.17125 16.1274 8.07863 16.5142H8.04321C7.94885 16.1274 7.79578 15.388 7.671 14.931L6.17966 9.03384H2.45854L0 20.7751H3.51105L4.41624 16.1123C4.5339 15.5123 4.63037 14.8089 4.6631 14.5596H4.69814C4.75379 14.8838 4.89686 15.5268 5.04051 16.0754L6.31676 20.7751H9.80508Z" fill="#231F20"></path><path id="Vector_9" d="M43.2812 10.9094C40.1383 10.9094 38.1598 13.1078 38.1598 15.9878C38.1598 18.869 40.1383 21.0672 43.2812 21.0672C46.4237 21.0672 48.4009 18.869 48.4009 15.9878C48.4009 13.1078 46.4237 10.9094 43.2812 10.9094ZM43.2812 18.6668C41.9016 18.6668 41.3489 17.5238 41.3489 15.9878C41.3489 14.453 41.9016 13.3102 43.2812 13.3102C44.6589 13.3102 45.2122 14.4532 45.2122 15.9878C45.2122 17.5238 44.6591 18.6668 43.2812 18.6668Z" fill="#231F20"></path><g id="Group_4"><path id="Vector_10" d="M89.9236 17.6187C89.9236 18.098 90.1273 18.4492 90.4423 18.6894C90.7375 18.9116 91.1215 19.0225 91.5655 19.0225C92.1771 19.0225 93.0466 18.7641 93.0466 18.0062C93.0466 17.2669 92.0656 17.1196 91.5102 16.9899C89.5302 16.4908 86.9665 16.4365 86.9665 13.8503C86.9665 11.5406 89.5487 10.9134 91.4367 10.9134C93.5469 10.9134 95.7487 11.5226 95.86 14.0158H92.9134C92.9134 13.6098 92.7645 13.3515 92.5061 13.1852C92.246 13.0198 91.9366 12.9451 91.548 12.9451C91.03 12.9451 90.1966 13.0001 90.1966 13.6664C90.1966 14.5714 92.3896 14.7372 93.8332 15.0506C95.778 15.4384 96.2767 16.8426 96.2767 17.6368C96.2767 20.203 93.7506 21.0541 91.5853 21.0541C89.3084 21.0541 86.9756 20.2972 86.8833 17.6187H89.9236Z" fill="#231F20"></path></g></g><g id="Group_5"><path id="Vector_11" d="M95.5281 9.05521C95.9354 9.05521 96.2777 9.38101 96.2777 9.80386C96.2777 10.236 95.9354 10.56 95.5281 10.56C95.1178 10.56 94.7733 10.236 94.7733 9.80386C94.7733 9.38101 95.1178 9.05521 95.5281 9.05521ZM95.5281 10.4489C95.8745 10.4489 96.142 10.1718 96.142 9.80367C96.142 9.44436 95.8745 9.16612 95.5281 9.16612C95.1781 9.16612 94.9102 9.44455 94.9102 9.80367C94.9102 10.1718 95.1781 10.4489 95.5281 10.4489ZM95.2356 9.36734H95.5755C95.7817 9.36734 95.8809 9.4511 95.8809 9.61958C95.8809 9.77729 95.7802 9.8441 95.6512 9.85816L95.9005 10.2462H95.7546L95.5168 9.86875H95.3727V10.2462H95.2356V9.36734ZM95.3727 9.75803H95.515C95.6338 9.75803 95.7451 9.75264 95.7451 9.61323C95.7451 9.49673 95.645 9.47844 95.5518 9.47844H95.3727V9.75803Z" fill="#231F20"></path></g></g></g></g></g></g></g></svg>