<svg width="56" height="56" viewBox="0 0 56 56" fill="none" xmlns="http://www.w3.org/2000/svg">
<rect width="56" height="56" rx="9.33333" fill="#15C1E6" fill-opacity="0.05"/>
<mask id="mask0_1217_36679" style="mask-type:alpha" maskUnits="userSpaceOnUse" x="6" y="9" width="41" height="41">
<rect x="6.66406" y="9.33337" width="40" height="40" fill="#F5EFEF"/>
</mask>
<g mask="url(#mask0_1217_36679)">
<path fill-rule="evenodd" clip-rule="evenodd" d="M23.6608 14.3334C23.1103 14.3334 22.6641 14.7796 22.6641 15.3301V25.1193C26.865 26.1662 29.9775 29.9643 29.9775 34.4894C29.9775 37.119 28.9239 39.5061 27.2203 41.2456H38.612C39.1625 41.2456 39.6088 40.7993 39.6088 40.2488V15.3301C39.6088 14.7796 39.1625 14.3334 38.612 14.3334H23.6608ZM24.4917 41.2456L25.7838 39.9535L25.7828 39.9525L25.7844 39.9509C27.1819 38.553 28.0462 36.6221 28.0462 34.4894C28.0462 31.0398 25.7851 28.1183 22.6641 27.1261V40.2488C22.6641 40.7993 23.1103 41.2456 23.6608 41.2456H24.4917Z" fill="#98DEF4"/>
<path fill-rule="evenodd" clip-rule="evenodd" d="M14.859 39.9518C13.4605 38.5538 12.5954 36.6221 12.5954 34.4885C12.5954 30.2221 16.054 26.7636 20.3203 26.7636C24.5866 26.7636 28.0452 30.2221 28.0452 34.4885C28.0452 36.6221 27.1802 38.5536 25.7818 39.9516L25.7828 39.9526L20.3205 45.4149L14.8582 39.9526L14.859 39.9518Z" fill="#15C1E6"/>
<path d="M27.6484 14.3334H35.6224L34.3269 15.9528C34.1377 16.1892 33.8514 16.3269 33.5486 16.3269H29.7223C29.4195 16.3269 29.1331 16.1892 28.944 15.9528L27.6484 14.3334Z" fill="#15C1E6"/>
</g>
</svg>
