<svg width="47" height="47" viewBox="0 0 47 47" fill="none" xmlns="http://www.w3.org/2000/svg">
<g id="Property 1=Powerful Infrastructure" clip-path="url(#clip0_173_40284)">
<g id="Group 114061">
<g id="Frame 113526" clip-path="url(#clip1_173_40284)">
<g id="www">
<rect id="Rectangle 7434" x="14.0862" width="32.6857" height="22" rx="1.40898" fill="#3D7FFC"/>
<g id="Group 110858">
<path id="Vector" d="M19.3659 2.82469C19.3659 3.34133 18.9397 3.76755 18.4231 3.76755C17.9064 3.76755 17.4802 3.34133 17.4802 2.82469C17.4802 2.30806 17.9064 1.88184 18.4231 1.88184C18.9397 1.88184 19.3659 2.30806 19.3659 2.82469Z" fill="#FDFDFE"/>
<path id="Vector_2" d="M22.4461 2.82469C22.4461 3.34133 22.0199 3.76755 21.5033 3.76755C20.9866 3.76755 20.5604 3.34133 20.5604 2.82469C20.5604 2.30806 20.9866 1.88184 21.5033 1.88184C22.0328 1.88184 22.4461 2.30806 22.4461 2.82469Z" fill="#FDFDFE"/>
<path id="Vector_3" d="M25.527 2.82469C25.527 3.34132 25.1007 3.76755 24.5841 3.76755C24.0675 3.76755 23.6412 3.34132 23.6412 2.82469C23.6412 2.30806 24.0675 1.88184 24.5841 1.88184C25.1007 1.88184 25.527 2.30806 25.527 2.82469Z" fill="#FDFDFE"/>
</g>
<path id="Rectangle 7443" d="M28.5245 6.61237C28.5245 6.37718 28.7152 6.18652 28.9504 6.18652H44.0569C44.2921 6.18652 44.4828 6.37718 44.4828 6.61237V11.84C44.4828 12.0752 44.2921 12.2658 44.0569 12.2658H28.9504C28.7152 12.2658 28.5245 12.0752 28.5245 11.84V6.61237Z" fill="white"/>
<path id="Rectangle 7446" d="M28.5245 14.211C28.5245 13.9758 28.7152 13.7852 28.9504 13.7852H44.0569C44.2921 13.7852 44.4828 13.9758 44.4828 14.211V19.4386C44.4828 19.6738 44.2921 19.8645 44.0569 19.8645H28.9504C28.7152 19.8645 28.5245 19.6738 28.5245 19.4386V14.211Z" fill="white"/>
<path id="Rectangle 7445" d="M16.366 6.61237C16.366 6.37718 16.5566 6.18652 16.7918 6.18652H26.5789C26.8141 6.18652 27.0048 6.37718 27.0048 6.61237V19.4391C27.0048 19.6743 26.8141 19.865 26.5789 19.865H16.7918C16.5566 19.865 16.366 19.6743 16.366 19.4391V6.61237Z" fill="white"/>
</g>
<g id="Group 114195">
<g id="Group 10241">
<g id="Group 9204">
<g id="Group 9200">
<g id="Group 9303">
<g id="Group 9283">
<g id="Group 9200_2">
<g id="Group 9039">
<g id="Group 8804">
<g id="Rectangle 5981" filter="url(#filter0_d_173_40284)">
<path d="M6.00024 12.4994C6.00024 12.1405 6.34492 11.8496 6.77009 11.8496H38.5746C38.9998 11.8496 39.3445 12.1405 39.3445 12.4994V30.9362C39.3445 31.295 38.9998 31.5859 38.5746 31.5859H6.77009C6.34491 31.5859 6.00024 31.295 6.00024 30.9362V12.4994Z" fill="white"/>
</g>
<path id="Rectangle 5983" d="M6.00024 12.1055H39.3445V15.9502H6.00024V12.1055Z" fill="#C6DBFF"/>
</g>
</g>
</g>
</g>
<g id="Group 8765">
<path id="star 12" d="M24.0389 18.1H23.7067V18.0994C23.6883 18.0991 23.6704 18.0936 23.6554 18.0836C23.6405 18.0735 23.6293 18.0594 23.6233 18.0431C23.6223 18.0407 23.6214 18.0381 23.6207 18.0355L23.5232 17.744L23.5208 17.7367C23.5166 17.7257 23.5088 17.7162 23.4984 17.7096C23.488 17.7031 23.4756 17.6998 23.4631 17.7002C23.4506 17.7007 23.4385 17.7049 23.4287 17.7122C23.419 17.7196 23.4119 17.7296 23.4087 17.7409L23.3101 18.0345C23.3101 18.0346 23.3101 18.0348 23.3101 18.035C23.3093 18.038 23.3083 18.041 23.3071 18.044C23.3009 18.0601 23.2897 18.0741 23.2747 18.084C23.2598 18.0939 23.242 18.0993 23.2237 18.0995V18.1001H22.8912C22.8767 18.1024 22.8636 18.1095 22.8542 18.1201C22.8449 18.1306 22.8399 18.1439 22.8401 18.1576C22.84 18.1664 22.8421 18.1752 22.8462 18.1832C22.8502 18.1912 22.8562 18.1982 22.8636 18.2038L22.8663 18.2058L23.1244 18.389C23.1367 18.3972 23.1467 18.4081 23.1535 18.4206C23.1604 18.4332 23.1639 18.4471 23.1638 18.4612C23.1638 18.4677 23.163 18.4743 23.1614 18.4807C23.1603 18.4856 23.1587 18.4904 23.1566 18.495L23.0587 18.7882V18.7892L23.058 18.7913C23.0564 18.7968 23.0556 18.8023 23.0556 18.8079C23.0554 18.8154 23.0567 18.8229 23.0596 18.8299C23.0625 18.8369 23.0668 18.8433 23.0723 18.8487C23.0779 18.8541 23.0845 18.8585 23.0918 18.8615C23.0992 18.8645 23.1071 18.8661 23.1151 18.8663C23.1256 18.8663 23.1358 18.8637 23.1447 18.8587L23.1552 18.8515L23.4114 18.6702L23.4171 18.6662C23.4313 18.657 23.4481 18.652 23.4654 18.6518C23.4827 18.6517 23.4996 18.6564 23.514 18.6653C23.5172 18.6672 23.5202 18.6693 23.523 18.6716L23.7778 18.8522L23.785 18.8573C23.7944 18.8628 23.8052 18.8657 23.8163 18.8656C23.8243 18.8654 23.8322 18.8637 23.8395 18.8607C23.8468 18.8577 23.8535 18.8534 23.859 18.8479C23.8645 18.8425 23.8688 18.8361 23.8717 18.8292C23.8746 18.8222 23.8759 18.8147 23.8757 18.8073C23.8757 18.8014 23.8748 18.7956 23.873 18.79C23.873 18.7891 23.8724 18.7881 23.8721 18.7872L23.7738 18.493C23.7722 18.4892 23.7709 18.4852 23.77 18.4812C23.7658 18.4652 23.7666 18.4483 23.7721 18.4326C23.7776 18.4169 23.7877 18.403 23.8013 18.3923C23.8034 18.3906 23.8057 18.389 23.808 18.3875L24.0634 18.2067L24.0711 18.2011C24.0777 18.1955 24.083 18.1887 24.0866 18.1811C24.0902 18.1735 24.092 18.1652 24.0919 18.1569C24.092 18.1431 24.0866 18.1296 24.0769 18.1192C24.0671 18.1087 24.0536 18.1019 24.0389 18.1Z" fill="#B8C4D0"/>
<path id="star_12" d="M25.7069 18.1H25.3748V18.0994C25.3563 18.0991 25.3384 18.0936 25.3235 18.0836C25.3086 18.0735 25.2973 18.0594 25.2914 18.0431C25.2903 18.0407 25.2895 18.0381 25.2887 18.0355L25.1913 17.744L25.1888 17.7367C25.1846 17.7257 25.1767 17.7162 25.1663 17.7096C25.156 17.7031 25.1436 17.6998 25.1311 17.7002C25.1185 17.7007 25.1065 17.7049 25.0967 17.7122C25.0869 17.7196 25.0799 17.7296 25.0767 17.7409L24.9781 18.0345C24.9781 18.0346 24.9781 18.0348 24.9781 18.035C24.9773 18.038 24.9763 18.041 24.975 18.044C24.9689 18.0601 24.9576 18.0741 24.9427 18.084C24.9278 18.0939 24.91 18.0993 24.8916 18.0995V18.1001H24.5592C24.5447 18.1024 24.5316 18.1095 24.5222 18.1201C24.5128 18.1306 24.5078 18.1439 24.5081 18.1576C24.508 18.1664 24.5101 18.1752 24.5141 18.1832C24.5182 18.1912 24.5241 18.1982 24.5315 18.2038L24.5342 18.2058L24.7924 18.389C24.8075 18.3993 24.8191 18.4135 24.8257 18.4298C24.8323 18.4462 24.8336 18.464 24.8294 18.481C24.8283 18.486 24.8267 18.4908 24.8246 18.4954L24.7267 18.7885V18.7896L24.726 18.7917C24.7244 18.7971 24.7236 18.8028 24.7236 18.8084C24.7233 18.8159 24.7247 18.8233 24.7276 18.8303C24.7304 18.8372 24.7348 18.8437 24.7403 18.8491C24.7458 18.8545 24.7525 18.8588 24.7598 18.8619C24.7672 18.8649 24.7751 18.8665 24.7831 18.8666C24.7935 18.8667 24.8038 18.8641 24.8127 18.8591L24.8231 18.8519L25.0794 18.6707L25.085 18.6666C25.0992 18.6574 25.1161 18.6524 25.1334 18.6523C25.1506 18.6521 25.1676 18.6568 25.182 18.6657C25.1852 18.6676 25.1882 18.6697 25.191 18.672L25.4458 18.8526L25.453 18.8577C25.4623 18.8632 25.4732 18.8661 25.4842 18.866C25.4922 18.8658 25.5001 18.8642 25.5075 18.8611C25.5148 18.8581 25.5214 18.8537 25.5269 18.8483C25.5325 18.8429 25.5368 18.8365 25.5396 18.8295C25.5425 18.8226 25.5439 18.8151 25.5437 18.8077C25.5437 18.8018 25.5428 18.796 25.5409 18.7904C25.5409 18.7895 25.5403 18.7885 25.54 18.7875L25.4417 18.4934C25.4401 18.4896 25.4388 18.4856 25.4378 18.4816C25.436 18.4747 25.4351 18.4677 25.4351 18.4606C25.435 18.4477 25.438 18.4349 25.4438 18.4231C25.4496 18.4113 25.4582 18.4009 25.4688 18.3926C25.471 18.3908 25.4733 18.3893 25.4756 18.3877L25.7309 18.207L25.7386 18.2013C25.7453 18.1958 25.7506 18.189 25.7542 18.1814C25.7578 18.1738 25.7596 18.1655 25.7595 18.1572C25.7596 18.1434 25.7544 18.1299 25.7447 18.1194C25.735 18.1089 25.7216 18.102 25.7069 18.1Z" fill="#B8C4D0"/>
<path id="star_12_2" d="M27.3749 18.1H27.0427V18.0994C27.0243 18.0991 27.0064 18.0936 26.9915 18.0836C26.9766 18.0735 26.9653 18.0594 26.9593 18.0431C26.9583 18.0407 26.9574 18.0381 26.9567 18.0355L26.8592 17.744L26.8567 17.7367C26.8526 17.7257 26.8447 17.7162 26.8343 17.7096C26.8239 17.7031 26.8116 17.6998 26.7991 17.7002C26.7865 17.7007 26.7745 17.7049 26.7647 17.7122C26.7549 17.7196 26.7479 17.7296 26.7447 17.7409L26.646 18.0345C26.646 18.0345 26.646 18.0345 26.646 18.035C26.6452 18.038 26.6442 18.041 26.643 18.044C26.6369 18.0601 26.6256 18.0741 26.6107 18.084C26.5958 18.0939 26.5779 18.0993 26.5596 18.0995V18.1001H26.2271C26.2126 18.1024 26.1995 18.1095 26.1902 18.1201C26.1808 18.1306 26.1758 18.1439 26.176 18.1576C26.1759 18.1664 26.178 18.1752 26.1821 18.1832C26.1861 18.1912 26.1921 18.1982 26.1995 18.2038L26.2022 18.2058L26.4603 18.389C26.4755 18.3993 26.4871 18.4135 26.4937 18.4298C26.5002 18.4462 26.5015 18.464 26.4974 18.481C26.4962 18.486 26.4946 18.4908 26.4926 18.4954L26.3947 18.7885V18.7896L26.3939 18.7917C26.3923 18.7971 26.3915 18.8028 26.3915 18.8084C26.3913 18.8159 26.3927 18.8233 26.3955 18.8303C26.3984 18.8372 26.4027 18.8437 26.4083 18.8491C26.4138 18.8545 26.4204 18.8588 26.4278 18.8619C26.4351 18.8649 26.443 18.8665 26.4511 18.8667C26.4615 18.8667 26.4717 18.8641 26.4807 18.8591L26.4911 18.8519L26.7474 18.6707L26.753 18.6666C26.7672 18.6574 26.7841 18.6524 26.8013 18.6523C26.8186 18.6521 26.8356 18.6568 26.85 18.6657C26.8531 18.6676 26.8561 18.6697 26.8589 18.672L27.1137 18.8526L27.1209 18.8577C27.1303 18.8632 27.1412 18.8661 27.1522 18.866C27.1602 18.8658 27.1681 18.8642 27.1755 18.8612C27.1828 18.8581 27.1894 18.8538 27.1949 18.8483C27.2004 18.8429 27.2048 18.8365 27.2076 18.8295C27.2105 18.8226 27.2119 18.8151 27.2116 18.8077C27.2117 18.8018 27.2108 18.796 27.2089 18.7904C27.2089 18.7895 27.2083 18.7885 27.2081 18.7876L27.1098 18.4934C27.1082 18.4896 27.1069 18.4856 27.1059 18.4816C27.1041 18.4747 27.1032 18.4677 27.1032 18.4606C27.1031 18.4477 27.1061 18.4349 27.1119 18.4231C27.1177 18.4113 27.1263 18.4009 27.1369 18.3926C27.1391 18.3908 27.1414 18.3893 27.1437 18.3878L27.399 18.207L27.4068 18.2014C27.4135 18.1958 27.4188 18.189 27.4224 18.1814C27.426 18.1738 27.4278 18.1655 27.4277 18.1572C27.4278 18.1433 27.4225 18.1299 27.4128 18.1194C27.4031 18.1088 27.3897 18.102 27.3749 18.1Z" fill="#B8C4D0"/>
<path id="star_12_3" d="M29.039 18.1H28.7068V18.0994C28.6884 18.0991 28.6705 18.0936 28.6555 18.0836C28.6406 18.0735 28.6294 18.0594 28.6234 18.0431C28.6224 18.0407 28.6215 18.0381 28.6208 18.0355L28.5233 17.744L28.5208 17.7367C28.5166 17.7257 28.5088 17.7162 28.4984 17.7096C28.488 17.7031 28.4756 17.6998 28.4631 17.7002C28.4506 17.7007 28.4385 17.7049 28.4287 17.7122C28.419 17.7196 28.4119 17.7296 28.4087 17.7409L28.3101 18.0345C28.3101 18.0346 28.3101 18.0348 28.3101 18.035C28.3093 18.038 28.3083 18.041 28.3071 18.044C28.301 18.0601 28.2897 18.0741 28.2748 18.084C28.2598 18.0939 28.242 18.0993 28.2237 18.0995V18.1001H27.8912C27.8767 18.1024 27.8636 18.1095 27.8542 18.1201C27.8449 18.1306 27.8399 18.1439 27.8401 18.1576C27.84 18.1664 27.8421 18.1752 27.8461 18.1832C27.8502 18.1912 27.8561 18.1982 27.8636 18.2038L27.8663 18.2058L28.1244 18.389C28.1396 18.3993 28.1512 18.4135 28.1577 18.4298C28.1643 18.4462 28.1656 18.464 28.1614 18.481C28.1603 18.486 28.1587 18.4908 28.1566 18.4954L28.0587 18.7885V18.7896L28.0579 18.7917C28.0563 18.7971 28.0555 18.8028 28.0555 18.8084C28.0553 18.8159 28.0566 18.8233 28.0595 18.8303C28.0624 18.8372 28.0667 18.8437 28.0722 18.8491C28.0778 18.8545 28.0844 18.8588 28.0917 18.8619C28.0991 18.8649 28.107 18.8665 28.115 18.8666C28.1255 18.8667 28.1357 18.8641 28.1446 18.8591L28.1551 18.8519L28.4113 18.6707L28.417 18.6666C28.4312 18.6574 28.448 18.6524 28.4653 18.6523C28.4826 18.6521 28.4995 18.6568 28.5139 18.6657C28.5171 18.6675 28.5202 18.6697 28.523 18.672L28.7778 18.8526L28.785 18.8577C28.7944 18.8632 28.8052 18.8661 28.8163 18.866C28.8243 18.8658 28.8322 18.8642 28.8395 18.8611C28.8468 18.8581 28.8535 18.8537 28.859 18.8483C28.8645 18.8429 28.8688 18.8365 28.8717 18.8295C28.8746 18.8226 28.8759 18.8151 28.8757 18.8077C28.8757 18.8018 28.8748 18.796 28.873 18.7904C28.873 18.7895 28.8724 18.7885 28.8721 18.7875L28.7737 18.4934C28.7721 18.4896 28.7708 18.4856 28.7699 18.4816C28.7681 18.4747 28.7672 18.4677 28.7672 18.4606C28.7671 18.4477 28.77 18.4349 28.7759 18.4231C28.7817 18.4113 28.7902 18.4009 28.8008 18.3926C28.803 18.3908 28.8053 18.3893 28.8076 18.3877L29.0629 18.207L29.0707 18.2013C29.0773 18.1958 29.0826 18.189 29.0862 18.1814C29.0898 18.1738 29.0916 18.1655 29.0915 18.1572C29.0917 18.1434 29.0864 18.1299 29.0767 18.1194C29.0671 18.1089 29.0537 18.102 29.039 18.1Z" fill="#B8C4D0"/>
</g>
<g id="Group 8768">
<path id="Line 133 (Stroke)" fill-rule="evenodd" clip-rule="evenodd" d="M33.8401 18.3612C33.8401 18.1525 34.009 17.9834 34.2174 17.9834H35.3494C35.5578 17.9834 35.7268 18.1525 35.7268 18.3612C35.7268 18.5698 35.5578 18.7389 35.3494 18.7389H34.2174C34.009 18.7389 33.8401 18.5698 33.8401 18.3612Z" fill="#BBC7D2"/>
<path id="$" d="M32.894 18.6283C32.894 18.4302 32.7752 18.2996 32.5865 18.2185L32.4398 18.1577L32.4491 17.7975C32.5353 17.8087 32.6424 17.8628 32.7216 17.9483L32.866 17.7254C32.7728 17.6174 32.6144 17.5543 32.4747 17.5431L32.477 17.417H32.3093L32.3047 17.5386C32.1789 17.5498 32.0578 17.5881 31.9786 17.6556C31.8924 17.7277 31.8249 17.8335 31.8249 17.9821C31.8249 18.1667 31.9367 18.2658 31.9879 18.3041C32.0391 18.3446 32.109 18.3784 32.1975 18.4144L32.2767 18.4459L32.2697 18.8219C32.1696 18.8197 32.0019 18.7409 31.9343 18.6373L31.762 18.8624C31.8784 19.0043 32.0694 19.0853 32.2441 19.0921L32.2394 19.2114H32.4072L32.4118 19.0876C32.5003 19.0808 32.6331 19.038 32.7146 18.975C32.8054 18.9052 32.894 18.7881 32.894 18.6283ZM32.3023 17.7952L32.2953 18.1082L32.2697 18.0969C32.2115 18.0699 32.1509 18.0294 32.1509 17.9461C32.1509 17.8583 32.2138 17.802 32.3023 17.7952ZM32.5725 18.6711C32.5725 18.7589 32.4887 18.8197 32.4165 18.8264L32.4235 18.4909L32.4607 18.509C32.5306 18.5427 32.5725 18.5855 32.5725 18.6711Z" fill="#BBC7D2"/>
</g>
<g id="Group 8769">
<path id="Line 133 (Stroke)_2" fill-rule="evenodd" clip-rule="evenodd" d="M33.8401 23.5487C33.8401 23.34 34.009 23.1709 34.2174 23.1709H36.6701C36.8785 23.1709 37.0474 23.34 37.0474 23.5487C37.0474 23.7573 36.8785 23.9264 36.6701 23.9264H34.2174C34.009 23.9264 33.8401 23.7573 33.8401 23.5487Z" fill="#BBC7D2"/>
<path id="$_2" d="M32.894 23.8158C32.894 23.6177 32.7752 23.4871 32.5865 23.406L32.4398 23.3452L32.4491 22.985C32.5353 22.9962 32.6424 23.0503 32.7216 23.1358L32.866 22.9129C32.7728 22.8049 32.6144 22.7418 32.4747 22.7306L32.477 22.6045H32.3093L32.3047 22.7261C32.1789 22.7373 32.0578 22.7756 31.9786 22.8431C31.8924 22.9152 31.8249 23.021 31.8249 23.1696C31.8249 23.3542 31.9367 23.4533 31.9879 23.4916C32.0391 23.5321 32.109 23.5659 32.1975 23.6019L32.2767 23.6334L32.2697 24.0094C32.1696 24.0072 32.0019 23.9284 31.9343 23.8248L31.762 24.0499C31.8784 24.1918 32.0694 24.2728 32.2441 24.2796L32.2394 24.3989H32.4072L32.4118 24.2751C32.5003 24.2683 32.6331 24.2255 32.7146 24.1625C32.8054 24.0927 32.894 23.9756 32.894 23.8158ZM32.3023 22.9827L32.2953 23.2957L32.2697 23.2844C32.2115 23.2574 32.1509 23.2169 32.1509 23.1336C32.1509 23.0458 32.2138 22.9895 32.3023 22.9827ZM32.5725 23.8586C32.5725 23.9464 32.4887 24.0072 32.4165 24.0139L32.4235 23.6784L32.4607 23.6965C32.5306 23.7302 32.5725 23.773 32.5725 23.8586Z" fill="#BBC7D2"/>
</g>
<g id="Group 8770">
<path id="$_3" d="M32.894 29.2035C32.894 29.0053 32.7752 28.8748 32.5865 28.7937L32.4398 28.7329L32.4491 28.3727C32.5353 28.3839 32.6424 28.438 32.7216 28.5235L32.866 28.3006C32.7728 28.1926 32.6144 28.1295 32.4747 28.1183L32.477 27.9922H32.3093L32.3047 28.1138C32.1789 28.125 32.0578 28.1633 31.9786 28.2308C31.8924 28.3029 31.8249 28.4087 31.8249 28.5573C31.8249 28.7419 31.9367 28.841 31.9879 28.8793C32.0391 28.9198 32.109 28.9536 32.1975 28.9896L32.2767 29.0211L32.2697 29.3971C32.1696 29.3948 32.0019 29.316 31.9343 29.2125L31.762 29.4376C31.8784 29.5795 32.0694 29.6605 32.2441 29.6673L32.2394 29.7866H32.4072L32.4118 29.6628C32.5003 29.656 32.6331 29.6132 32.7146 29.5502C32.8054 29.4804 32.894 29.3633 32.894 29.2035ZM32.3023 28.3704L32.2953 28.6834L32.2697 28.6721C32.2115 28.6451 32.1509 28.6046 32.1509 28.5213C32.1509 28.4335 32.2138 28.3772 32.3023 28.3704ZM32.5725 29.2463C32.5725 29.3341 32.4887 29.3948 32.4165 29.4016L32.4235 29.0661L32.4607 29.0841C32.5306 29.1179 32.5725 29.1607 32.5725 29.2463Z" fill="#BBC7D2"/>
</g>
<g id="Group 8771">
<path id="Line 134 (Stroke)" fill-rule="evenodd" clip-rule="evenodd" d="M9.66431 18.2674C9.66431 18.0588 9.83324 17.8896 10.0416 17.8896H11.3576C11.566 17.8896 11.735 18.0588 11.735 18.2674C11.735 18.4761 11.566 18.6452 11.3576 18.6452H10.0416C9.83324 18.6452 9.66431 18.4761 9.66431 18.2674Z" fill="#B8C4D0"/>
<path id="#" d="M8.72325 18.1752V17.9477H8.51024L8.59544 17.5117H8.33983L8.25463 17.9477H8.00967L8.09487 17.5117H7.83926L7.75405 17.9477H7.4814V18.1752H7.71145L7.6582 18.4516H7.40259V18.6813H7.6156L7.53039 19.1172H7.78601L7.87121 18.6813H8.11617L8.03097 19.1172H8.28658L8.37178 18.6813H8.6423V18.4516H8.41438L8.46764 18.1752H8.72325ZM8.21202 18.1752L8.15877 18.4516H7.91381L7.96706 18.1752H8.21202Z" fill="#B8C4D0"/>
</g>
<g id="Group 8776">
<path id="Line 135 (Stroke)" fill-rule="evenodd" clip-rule="evenodd" d="M14.8518 18.2674C14.8518 18.0588 15.0207 17.8896 15.2291 17.8896L19.8222 17.8896C20.0306 17.8896 20.1996 18.0588 20.1996 18.2674C20.1996 18.4761 20.0306 18.6452 19.8222 18.6452L15.2291 18.6452C15.0207 18.6452 14.8518 18.4761 14.8518 18.2674Z" fill="#B8C4D0"/>
</g>
</g>
</g>
</g>
<path id="Rectangle 5982" d="M6.01196 10.8313C6.01196 10.3722 6.35702 10 6.78268 10H38.6133C39.039 10 39.384 10.3722 39.384 10.8313V12.882H6.01196V10.8313Z" fill="#9FC0FF"/>
</g>
<path id="Vector_4" d="M9.38873 11.4408C9.38873 11.7792 9.10936 12.0584 8.77072 12.0584C8.43208 12.0584 8.15271 11.7792 8.15271 11.4408C8.15271 11.1024 8.43208 10.8232 8.77072 10.8232C9.10936 10.8232 9.38873 11.1024 9.38873 11.4408Z" fill="#FDFDFE"/>
<path id="Vector_5" d="M11.8613 11.4408C11.8613 11.7792 11.5819 12.0584 11.2432 12.0584C10.9046 12.0584 10.6252 11.7792 10.6252 11.4408C10.6252 11.1024 10.9046 10.8232 11.2432 10.8232C11.5903 10.8232 11.8613 11.1024 11.8613 11.4408Z" fill="#FDFDFE"/>
<path id="Vector_6" d="M14.3339 11.4408C14.3339 11.7792 14.0545 12.0584 13.7159 12.0584C13.3773 12.0584 13.0979 11.7792 13.0979 11.4408C13.0979 11.1024 13.3773 10.8232 13.7159 10.8232C14.0545 10.8232 14.3339 11.1024 14.3339 11.4408Z" fill="#FDFDFE"/>
</g>
<g id="Group 114204" opacity="0.5">
<g id="Group 10241_2">
<g id="Group 9204_2">
<g id="Group 9200_3">
<g id="Group 9303_2">
<g id="Group 9283_2">
<g id="Group 9200_4">
<g id="Group 9039_2">
<g id="Group 8804_2">
<g id="Rectangle 5981_2" filter="url(#filter1_d_173_40284)">
<path d="M0.000244141 22.4994C0.000244141 22.1405 0.344915 21.8496 0.770088 21.8496H32.5746C32.9998 21.8496 33.3445 22.1405 33.3445 22.4994V40.9362C33.3445 41.295 32.9998 41.5859 32.5746 41.5859H0.770087C0.344914 41.5859 0.000244141 41.295 0.000244141 40.9362V22.4994Z" fill="white"/>
</g>
<path id="Rectangle 5983_2" d="M0.000244141 22.1055H33.3445V25.9502H0.000244141V22.1055Z" fill="#C6DBFF"/>
<path id="Rectangle 5988" d="M0.000244141 30.8086H33.3445V36.3954H0.000244141V30.8086Z" fill="#EDF1F6"/>
</g>
</g>
</g>
</g>
<g id="Group 8765_2">
<path id="star 12_2" d="M18.0389 28.1H17.7067V28.0994C17.6883 28.0991 17.6704 28.0936 17.6554 28.0836C17.6405 28.0735 17.6293 28.0594 17.6233 28.0431C17.6223 28.0407 17.6214 28.0381 17.6207 28.0355L17.5232 27.744L17.5208 27.7367C17.5166 27.7257 17.5088 27.7162 17.4984 27.7096C17.488 27.7031 17.4756 27.6998 17.4631 27.7002C17.4506 27.7007 17.4385 27.7049 17.4287 27.7122C17.419 27.7196 17.4119 27.7296 17.4087 27.7409L17.3101 28.0345C17.3101 28.0346 17.3101 28.0348 17.3101 28.035C17.3093 28.038 17.3083 28.041 17.3071 28.044C17.3009 28.0601 17.2897 28.0741 17.2747 28.084C17.2598 28.0939 17.242 28.0993 17.2237 28.0995V28.1001H16.8912C16.8767 28.1024 16.8636 28.1095 16.8542 28.1201C16.8449 28.1306 16.8399 28.1439 16.8401 28.1576C16.84 28.1664 16.8421 28.1752 16.8462 28.1832C16.8502 28.1912 16.8562 28.1982 16.8636 28.2038L16.8663 28.2058L17.1244 28.389C17.1367 28.3972 17.1467 28.4081 17.1535 28.4206C17.1604 28.4332 17.1639 28.4471 17.1638 28.4612C17.1638 28.4677 17.163 28.4743 17.1614 28.4807C17.1603 28.4856 17.1587 28.4904 17.1566 28.495L17.0587 28.7882V28.7892L17.058 28.7913C17.0564 28.7968 17.0556 28.8023 17.0556 28.8079C17.0554 28.8154 17.0567 28.8229 17.0596 28.8299C17.0625 28.8369 17.0668 28.8433 17.0723 28.8487C17.0779 28.8541 17.0845 28.8585 17.0918 28.8615C17.0992 28.8645 17.1071 28.8661 17.1151 28.8663C17.1256 28.8663 17.1358 28.8637 17.1447 28.8587L17.1552 28.8515L17.4114 28.6702L17.4171 28.6662C17.4313 28.657 17.4481 28.652 17.4654 28.6518C17.4827 28.6517 17.4996 28.6564 17.514 28.6653C17.5172 28.6672 17.5202 28.6693 17.523 28.6716L17.7778 28.8522L17.785 28.8573C17.7944 28.8628 17.8052 28.8657 17.8163 28.8656C17.8243 28.8654 17.8322 28.8637 17.8395 28.8607C17.8468 28.8577 17.8535 28.8534 17.859 28.8479C17.8645 28.8425 17.8688 28.8361 17.8717 28.8292C17.8746 28.8222 17.8759 28.8147 17.8757 28.8073C17.8757 28.8014 17.8748 28.7956 17.873 28.79C17.873 28.7891 17.8724 28.7881 17.8721 28.7872L17.7738 28.493C17.7722 28.4892 17.7709 28.4852 17.77 28.4812C17.7658 28.4652 17.7666 28.4483 17.7721 28.4326C17.7776 28.4169 17.7877 28.403 17.8013 28.3923C17.8034 28.3906 17.8057 28.389 17.808 28.3875L18.0634 28.2067L18.0711 28.2011C18.0777 28.1955 18.083 28.1887 18.0866 28.1811C18.0902 28.1735 18.092 28.1652 18.0919 28.1569C18.092 28.1431 18.0866 28.1296 18.0769 28.1192C18.0671 28.1087 18.0536 28.1019 18.0389 28.1Z" fill="#B8C4D0"/>
<path id="star_12_4" d="M19.7069 28.1H19.3748V28.0994C19.3563 28.0991 19.3384 28.0936 19.3235 28.0836C19.3086 28.0735 19.2973 28.0594 19.2914 28.0431C19.2903 28.0407 19.2895 28.0381 19.2887 28.0355L19.1913 27.744L19.1888 27.7367C19.1846 27.7257 19.1767 27.7162 19.1663 27.7096C19.156 27.7031 19.1436 27.6998 19.1311 27.7002C19.1185 27.7007 19.1065 27.7049 19.0967 27.7122C19.0869 27.7196 19.0799 27.7296 19.0767 27.7409L18.9781 28.0345C18.9781 28.0346 18.9781 28.0348 18.9781 28.035C18.9773 28.038 18.9763 28.041 18.975 28.044C18.9689 28.0601 18.9576 28.0741 18.9427 28.084C18.9278 28.0939 18.91 28.0993 18.8916 28.0995V28.1001H18.5592C18.5447 28.1024 18.5316 28.1095 18.5222 28.1201C18.5128 28.1306 18.5078 28.1439 18.5081 28.1576C18.508 28.1664 18.5101 28.1752 18.5141 28.1832C18.5182 28.1912 18.5241 28.1982 18.5315 28.2038L18.5342 28.2058L18.7924 28.389C18.8075 28.3993 18.8191 28.4135 18.8257 28.4298C18.8323 28.4462 18.8336 28.464 18.8294 28.481C18.8283 28.486 18.8267 28.4908 18.8246 28.4954L18.7267 28.7885V28.7896L18.726 28.7917C18.7244 28.7971 18.7236 28.8028 18.7236 28.8084C18.7233 28.8159 18.7247 28.8233 18.7276 28.8303C18.7304 28.8372 18.7348 28.8437 18.7403 28.8491C18.7458 28.8545 18.7525 28.8588 18.7598 28.8619C18.7672 28.8649 18.7751 28.8665 18.7831 28.8666C18.7935 28.8667 18.8038 28.8641 18.8127 28.8591L18.8231 28.8519L19.0794 28.6707L19.085 28.6666C19.0992 28.6574 19.1161 28.6524 19.1334 28.6523C19.1506 28.6521 19.1676 28.6568 19.182 28.6657C19.1852 28.6676 19.1882 28.6697 19.191 28.672L19.4458 28.8526L19.453 28.8577C19.4623 28.8632 19.4732 28.8661 19.4842 28.866C19.4922 28.8658 19.5001 28.8642 19.5075 28.8611C19.5148 28.8581 19.5214 28.8537 19.5269 28.8483C19.5325 28.8429 19.5368 28.8365 19.5396 28.8295C19.5425 28.8226 19.5439 28.8151 19.5437 28.8077C19.5437 28.8018 19.5428 28.796 19.5409 28.7904C19.5409 28.7895 19.5403 28.7885 19.54 28.7875L19.4417 28.4934C19.4401 28.4896 19.4388 28.4856 19.4378 28.4816C19.436 28.4747 19.4351 28.4677 19.4351 28.4606C19.435 28.4477 19.438 28.4349 19.4438 28.4231C19.4496 28.4113 19.4582 28.4009 19.4688 28.3926C19.471 28.3908 19.4733 28.3893 19.4756 28.3877L19.7309 28.207L19.7386 28.2013C19.7453 28.1958 19.7506 28.189 19.7542 28.1814C19.7578 28.1738 19.7596 28.1655 19.7595 28.1572C19.7596 28.1434 19.7544 28.1299 19.7447 28.1194C19.735 28.1089 19.7216 28.102 19.7069 28.1Z" fill="#B8C4D0"/>
<path id="star_12_5" d="M21.3749 28.1H21.0427V28.0994C21.0243 28.0991 21.0064 28.0936 20.9915 28.0836C20.9766 28.0735 20.9653 28.0594 20.9593 28.0431C20.9583 28.0407 20.9574 28.0381 20.9567 28.0355L20.8592 27.744L20.8567 27.7367C20.8526 27.7257 20.8447 27.7162 20.8343 27.7096C20.8239 27.7031 20.8116 27.6998 20.7991 27.7002C20.7865 27.7007 20.7745 27.7049 20.7647 27.7122C20.7549 27.7196 20.7479 27.7296 20.7447 27.7409L20.646 28.0345C20.646 28.0345 20.646 28.0345 20.646 28.035C20.6452 28.038 20.6442 28.041 20.643 28.044C20.6369 28.0601 20.6256 28.0741 20.6107 28.084C20.5958 28.0939 20.5779 28.0993 20.5596 28.0995V28.1001H20.2271C20.2126 28.1024 20.1995 28.1095 20.1902 28.1201C20.1808 28.1306 20.1758 28.1439 20.176 28.1576C20.1759 28.1664 20.178 28.1752 20.1821 28.1832C20.1861 28.1912 20.1921 28.1982 20.1995 28.2038L20.2022 28.2058L20.4603 28.389C20.4755 28.3993 20.4871 28.4135 20.4937 28.4298C20.5002 28.4462 20.5015 28.464 20.4974 28.481C20.4962 28.486 20.4946 28.4908 20.4926 28.4954L20.3947 28.7885V28.7896L20.3939 28.7917C20.3923 28.7971 20.3915 28.8028 20.3915 28.8084C20.3913 28.8159 20.3927 28.8233 20.3955 28.8303C20.3984 28.8372 20.4027 28.8437 20.4083 28.8491C20.4138 28.8545 20.4204 28.8588 20.4278 28.8619C20.4351 28.8649 20.443 28.8665 20.4511 28.8667C20.4615 28.8667 20.4717 28.8641 20.4807 28.8591L20.4911 28.8519L20.7474 28.6707L20.753 28.6666C20.7672 28.6574 20.7841 28.6524 20.8013 28.6523C20.8186 28.6521 20.8356 28.6568 20.85 28.6657C20.8531 28.6676 20.8561 28.6697 20.8589 28.672L21.1137 28.8526L21.1209 28.8577C21.1303 28.8632 21.1412 28.8661 21.1522 28.866C21.1602 28.8658 21.1681 28.8642 21.1755 28.8612C21.1828 28.8581 21.1894 28.8538 21.1949 28.8483C21.2004 28.8429 21.2048 28.8365 21.2076 28.8295C21.2105 28.8226 21.2119 28.8151 21.2116 28.8077C21.2117 28.8018 21.2108 28.796 21.2089 28.7904C21.2089 28.7895 21.2083 28.7885 21.2081 28.7876L21.1098 28.4934C21.1082 28.4896 21.1069 28.4856 21.1059 28.4816C21.1041 28.4747 21.1032 28.4677 21.1032 28.4606C21.1031 28.4477 21.1061 28.4349 21.1119 28.4231C21.1177 28.4113 21.1263 28.4009 21.1369 28.3926C21.1391 28.3908 21.1414 28.3893 21.1437 28.3878L21.399 28.207L21.4068 28.2014C21.4135 28.1958 21.4188 28.189 21.4224 28.1814C21.426 28.1738 21.4278 28.1655 21.4277 28.1572C21.4278 28.1433 21.4225 28.1299 21.4128 28.1194C21.4031 28.1088 21.3897 28.102 21.3749 28.1Z" fill="#B8C4D0"/>
<path id="star_12_6" d="M23.039 28.1H22.7068V28.0994C22.6884 28.0991 22.6705 28.0936 22.6555 28.0836C22.6406 28.0735 22.6294 28.0594 22.6234 28.0431C22.6224 28.0407 22.6215 28.0381 22.6208 28.0355L22.5233 27.744L22.5208 27.7367C22.5166 27.7257 22.5088 27.7162 22.4984 27.7096C22.488 27.7031 22.4756 27.6998 22.4631 27.7002C22.4506 27.7007 22.4385 27.7049 22.4287 27.7122C22.419 27.7196 22.4119 27.7296 22.4087 27.7409L22.3101 28.0345C22.3101 28.0346 22.3101 28.0348 22.3101 28.035C22.3093 28.038 22.3083 28.041 22.3071 28.044C22.301 28.0601 22.2897 28.0741 22.2748 28.084C22.2598 28.0939 22.242 28.0993 22.2237 28.0995V28.1001H21.8912C21.8767 28.1024 21.8636 28.1095 21.8542 28.1201C21.8449 28.1306 21.8399 28.1439 21.8401 28.1576C21.84 28.1664 21.8421 28.1752 21.8461 28.1832C21.8502 28.1912 21.8561 28.1982 21.8636 28.2038L21.8663 28.2058L22.1244 28.389C22.1396 28.3993 22.1512 28.4135 22.1577 28.4298C22.1643 28.4462 22.1656 28.464 22.1614 28.481C22.1603 28.486 22.1587 28.4908 22.1566 28.4954L22.0587 28.7885V28.7896L22.0579 28.7917C22.0563 28.7971 22.0555 28.8028 22.0555 28.8084C22.0553 28.8159 22.0566 28.8233 22.0595 28.8303C22.0624 28.8372 22.0667 28.8437 22.0722 28.8491C22.0778 28.8545 22.0844 28.8588 22.0917 28.8619C22.0991 28.8649 22.107 28.8665 22.115 28.8666C22.1255 28.8667 22.1357 28.8641 22.1446 28.8591L22.1551 28.8519L22.4113 28.6707L22.417 28.6666C22.4312 28.6574 22.448 28.6524 22.4653 28.6523C22.4826 28.6521 22.4995 28.6568 22.5139 28.6657C22.5171 28.6675 22.5202 28.6697 22.523 28.672L22.7778 28.8526L22.785 28.8577C22.7944 28.8632 22.8052 28.8661 22.8163 28.866C22.8243 28.8658 22.8322 28.8642 22.8395 28.8611C22.8468 28.8581 22.8535 28.8537 22.859 28.8483C22.8645 28.8429 22.8688 28.8365 22.8717 28.8295C22.8746 28.8226 22.8759 28.8151 22.8757 28.8077C22.8757 28.8018 22.8748 28.796 22.873 28.7904C22.873 28.7895 22.8724 28.7885 22.8721 28.7875L22.7737 28.4934C22.7721 28.4896 22.7708 28.4856 22.7699 28.4816C22.7681 28.4747 22.7672 28.4677 22.7672 28.4606C22.7671 28.4477 22.77 28.4349 22.7759 28.4231C22.7817 28.4113 22.7902 28.4009 22.8008 28.3926C22.803 28.3908 22.8053 28.3893 22.8076 28.3877L23.0629 28.207L23.0707 28.2013C23.0773 28.1958 23.0826 28.189 23.0862 28.1814C23.0898 28.1738 23.0916 28.1655 23.0915 28.1572C23.0917 28.1434 23.0864 28.1299 23.0767 28.1194C23.0671 28.1089 23.0537 28.102 23.039 28.1Z" fill="#B8C4D0"/>
</g>
<g id="Group 8766">
<path id="star_12_7" d="M23.039 33.2885H22.7068V33.2878C22.6884 33.2876 22.6705 33.2821 22.6555 33.272C22.6406 33.262 22.6294 33.2479 22.6234 33.2316C22.6224 33.2291 22.6215 33.2266 22.6208 33.224L22.5233 32.9325L22.5208 32.9252C22.5166 32.9141 22.5088 32.9047 22.4984 32.8981C22.488 32.8916 22.4756 32.8882 22.4631 32.8887C22.4506 32.8892 22.4385 32.8934 22.4287 32.9007C22.4189 32.908 22.4119 32.918 22.4087 32.9293L22.3101 33.2229C22.3101 33.2229 22.3101 33.223 22.3101 33.2235C22.3093 33.2265 22.3083 33.2295 22.3071 33.2325C22.3009 33.2486 22.2897 33.2625 22.2747 33.2725C22.2598 33.2824 22.242 33.2878 22.2237 33.2879V33.2886H21.8911C21.8766 33.2909 21.8635 33.298 21.8541 33.3085C21.8447 33.3191 21.8397 33.3324 21.84 33.3461C21.8399 33.3549 21.842 33.3637 21.846 33.3717C21.8501 33.3796 21.856 33.3867 21.8634 33.3922L21.8661 33.3943L22.1246 33.5773C22.1398 33.5876 22.1513 33.6018 22.1579 33.6181C22.1645 33.6345 22.1658 33.6523 22.1616 33.6693C22.1605 33.6742 22.1589 33.6791 22.1568 33.6837L22.0589 33.9768V33.9779L22.0582 33.98C22.0566 33.9854 22.0557 33.991 22.0557 33.9966C22.0555 34.0041 22.0568 34.0116 22.0597 34.0185C22.0626 34.0255 22.0669 34.032 22.0724 34.0374C22.0779 34.0428 22.0846 34.0471 22.0919 34.0501C22.0993 34.0532 22.1072 34.0548 22.1152 34.0549C22.1256 34.055 22.1359 34.0524 22.1448 34.0473L22.1553 34.0402L22.4115 33.8589L22.4172 33.8548C22.4314 33.8456 22.4482 33.8407 22.4655 33.8405C22.4828 33.8404 22.4997 33.845 22.5141 33.854C22.5173 33.8558 22.5203 33.858 22.5231 33.8603L22.7779 34.0408L22.7851 34.046C22.7945 34.0515 22.8053 34.0544 22.8164 34.0543C22.8244 34.0541 22.8323 34.0525 22.8396 34.0494C22.8469 34.0464 22.8536 34.042 22.8591 34.0366C22.8646 34.0312 22.8689 34.0248 22.8718 34.0178C22.8747 34.0109 22.876 34.0034 22.8758 33.996C22.8758 33.9901 22.8749 33.9843 22.8731 33.9787C22.8731 33.9778 22.8725 33.9768 22.8721 33.9758L22.7738 33.6817C22.7722 33.6779 22.7709 33.6739 22.77 33.6699C22.7682 33.663 22.7673 33.656 22.7673 33.6489C22.7672 33.636 22.7701 33.6231 22.776 33.6114C22.7818 33.5996 22.7903 33.5892 22.8009 33.5809C22.8031 33.5791 22.8054 33.5776 22.8077 33.576L23.063 33.3952L23.0708 33.3896C23.0774 33.3841 23.0827 33.3773 23.0863 33.3697C23.0899 33.362 23.0917 33.3538 23.0916 33.3455C23.0917 33.3317 23.0864 33.3183 23.0767 33.3078C23.0671 33.2973 23.0536 33.2905 23.039 33.2885Z" fill="#B8C4D0"/>
<path id="Subtract" fill-rule="evenodd" clip-rule="evenodd" d="M22.4772 32.8898V33.8412C22.4733 33.8407 22.4694 33.8405 22.4655 33.8405C22.4482 33.8407 22.4314 33.8456 22.4171 33.8548L22.4115 33.8589L22.1552 34.0402L22.1448 34.0473C22.1359 34.0524 22.1256 34.055 22.1152 34.0549C22.1072 34.0548 22.0993 34.0532 22.0919 34.0501C22.0846 34.0471 22.0779 34.0428 22.0724 34.0374C22.0669 34.032 22.0625 34.0255 22.0597 34.0185C22.0568 34.0116 22.0554 34.0041 22.0557 33.9966C22.0557 33.991 22.0566 33.9854 22.0582 33.98L22.0589 33.9779V33.9768L22.1568 33.6837C22.1589 33.6791 22.1605 33.6742 22.1616 33.6693C22.1658 33.6523 22.1645 33.6345 22.1579 33.6181C22.1513 33.6018 22.1397 33.5876 22.1246 33.5773L21.8661 33.3943L21.8634 33.3922C21.856 33.3867 21.8501 33.3796 21.846 33.3717C21.842 33.3637 21.8399 33.3549 21.84 33.3461C21.8397 33.3324 21.8447 33.3191 21.8541 33.3085C21.8635 33.298 21.8766 33.2909 21.8911 33.2886H22.2236V33.2879C22.242 33.2878 22.2598 33.2824 22.2747 33.2725C22.2896 33.2625 22.3009 33.2486 22.307 33.2325C22.3083 33.2295 22.3093 33.2265 22.3101 33.2235V33.2229L22.4087 32.9293C22.4119 32.918 22.4189 32.908 22.4287 32.9007C22.4385 32.8934 22.4506 32.8892 22.4631 32.8887C22.4678 32.8885 22.4726 32.8889 22.4772 32.8898Z" fill="#B8C4D0"/>
<g id="Group 8204">
<path id="star 12_3" d="M18.0389 33.2885H17.7067V33.2878C17.6883 33.2876 17.6704 33.2821 17.6554 33.272C17.6405 33.262 17.6293 33.2479 17.6233 33.2316C17.6223 33.2291 17.6214 33.2266 17.6207 33.224L17.5232 32.9325L17.5208 32.9252C17.5166 32.9141 17.5088 32.9047 17.4984 32.8981C17.488 32.8916 17.4756 32.8882 17.4631 32.8887C17.4506 32.8892 17.4385 32.8934 17.4288 32.9007C17.419 32.908 17.4119 32.918 17.4087 32.9293L17.3101 33.2229C17.3101 33.2231 17.3101 33.2233 17.3101 33.2235C17.3093 33.2265 17.3083 33.2295 17.3071 33.2325C17.3009 33.2486 17.2897 33.2625 17.2747 33.2725C17.2598 33.2824 17.242 33.2878 17.2237 33.2879V33.2886H16.8912C16.8767 33.2909 16.8636 33.298 16.8542 33.3085C16.8449 33.3191 16.8399 33.3324 16.8401 33.3461C16.84 33.3549 16.8421 33.3637 16.8462 33.3717C16.8502 33.3796 16.8562 33.3867 16.8636 33.3922L16.8663 33.3943L17.1244 33.5775C17.1367 33.5857 17.1467 33.5966 17.1535 33.6091C17.1604 33.6217 17.1639 33.6356 17.1638 33.6497C17.1638 33.6562 17.163 33.6628 17.1614 33.6691C17.1603 33.6741 17.1587 33.6789 17.1566 33.6835L17.0587 33.9766V33.9777L17.058 33.9798C17.0564 33.9852 17.0556 33.9908 17.0556 33.9964C17.0554 34.0039 17.0567 34.0114 17.0596 34.0184C17.0625 34.0253 17.0668 34.0318 17.0723 34.0372C17.0779 34.0426 17.0845 34.0469 17.0918 34.05C17.0992 34.053 17.1071 34.0546 17.1151 34.0547C17.1256 34.0548 17.1358 34.0522 17.1447 34.0472L17.1552 34.04L17.4114 33.8587L17.4171 33.8546C17.4313 33.8455 17.4481 33.8405 17.4654 33.8403C17.4827 33.8401 17.4996 33.8449 17.514 33.8538C17.5172 33.8557 17.5202 33.8578 17.523 33.8601L17.7778 34.0407L17.785 34.0458C17.7944 34.0513 17.8052 34.0542 17.8163 34.0541C17.8243 34.0539 17.8322 34.0522 17.8395 34.0492C17.8468 34.0462 17.8535 34.0418 17.859 34.0364C17.8645 34.031 17.8688 34.0246 17.8717 34.0176C17.8746 34.0107 17.8759 34.0032 17.8757 33.9958C17.8757 33.9899 17.8748 33.984 17.873 33.9784C17.873 33.9776 17.8724 33.9766 17.8722 33.9756L17.7738 33.6815C17.7722 33.6777 17.7709 33.6737 17.77 33.6697C17.7659 33.6536 17.7666 33.6368 17.7721 33.6211C17.7776 33.6054 17.7877 33.5914 17.8013 33.5808C17.8035 33.579 17.8057 33.5775 17.808 33.5759L18.0634 33.3951L18.0711 33.3895C18.0777 33.384 18.083 33.3772 18.0866 33.3696C18.0902 33.362 18.092 33.3537 18.0919 33.3454C18.092 33.3315 18.0866 33.3181 18.0769 33.3076C18.0671 33.2972 18.0536 33.2904 18.0389 33.2885Z" fill="#B8C4D0"/>
<path id="star_12_8" d="M19.7069 33.2885H19.3748V33.2878C19.3563 33.2876 19.3384 33.2821 19.3235 33.272C19.3086 33.262 19.2974 33.2479 19.2914 33.2316C19.2903 33.2291 19.2895 33.2266 19.2888 33.224L19.1913 32.9325L19.1888 32.9252C19.1846 32.9141 19.1767 32.9047 19.1664 32.8981C19.156 32.8916 19.1436 32.8882 19.1311 32.8887C19.1185 32.8892 19.1065 32.8934 19.0967 32.9007C19.0869 32.908 19.0799 32.918 19.0767 32.9293L18.9781 33.2229C18.9781 33.2231 18.9781 33.2233 18.9781 33.2235C18.9773 33.2265 18.9763 33.2295 18.975 33.2325C18.9689 33.2486 18.9576 33.2625 18.9427 33.2725C18.9278 33.2824 18.91 33.2878 18.8916 33.2879V33.2886H18.5592C18.5447 33.2909 18.5316 33.298 18.5222 33.3085C18.5128 33.3191 18.5078 33.3324 18.5081 33.3461C18.508 33.3549 18.5101 33.3637 18.5141 33.3717C18.5182 33.3796 18.5241 33.3867 18.5315 33.3922L18.5342 33.3943L18.7924 33.5775C18.8075 33.5877 18.8191 33.602 18.8257 33.6183C18.8323 33.6347 18.8336 33.6525 18.8294 33.6695C18.8283 33.6744 18.8267 33.6792 18.8246 33.6839L18.7267 33.977V33.9781L18.726 33.9802C18.7244 33.9856 18.7236 33.9912 18.7236 33.9969C18.7233 34.0043 18.7247 34.0117 18.7276 34.0187C18.7304 34.0257 18.7348 34.0321 18.7403 34.0376C18.7458 34.043 18.7525 34.0473 18.7598 34.0503C18.7672 34.0534 18.7751 34.055 18.7831 34.0551C18.7935 34.0552 18.8038 34.0526 18.8127 34.0476L18.8231 34.0404L19.0794 33.8591L19.085 33.8551C19.0992 33.8459 19.1161 33.8409 19.1334 33.8407C19.1507 33.8406 19.1676 33.8452 19.182 33.8542C19.1852 33.856 19.1882 33.8581 19.191 33.8605L19.4458 34.041L19.453 34.0462C19.4623 34.0517 19.4732 34.0545 19.4842 34.0545C19.4923 34.0543 19.5002 34.0526 19.5075 34.0496C19.5148 34.0466 19.5214 34.0422 19.5269 34.0368C19.5325 34.0314 19.5368 34.025 19.5397 34.018C19.5425 34.011 19.5439 34.0036 19.5437 33.9961C19.5437 33.9903 19.5428 33.9845 19.541 33.9789C19.541 33.978 19.5403 33.977 19.54 33.976L19.4417 33.6819C19.4401 33.678 19.4388 33.6741 19.4378 33.6701C19.4361 33.6632 19.4351 33.6562 19.4351 33.6491C19.435 33.6362 19.438 33.6233 19.4438 33.6116C19.4496 33.5998 19.4582 33.5894 19.4688 33.5811C19.471 33.5793 19.4733 33.5778 19.4756 33.5762L19.7309 33.3955L19.7386 33.3898C19.7453 33.3843 19.7506 33.3775 19.7542 33.3698C19.7578 33.3622 19.7596 33.354 19.7595 33.3457C19.7596 33.3318 19.7544 33.3184 19.7447 33.3079C19.7351 33.2974 19.7216 33.2905 19.7069 33.2885Z" fill="#B8C4D0"/>
<path id="star_12_9" d="M21.3749 33.2885H21.0427V33.2878C21.0243 33.2876 21.0064 33.2821 20.9915 33.272C20.9765 33.262 20.9653 33.2479 20.9593 33.2316C20.9583 33.2291 20.9574 33.2266 20.9567 33.224L20.8592 32.9325L20.8567 32.9252C20.8526 32.9141 20.8447 32.9047 20.8343 32.8981C20.8239 32.8916 20.8116 32.8882 20.799 32.8887C20.7865 32.8892 20.7745 32.8934 20.7647 32.9007C20.7549 32.908 20.7479 32.918 20.7447 32.9293L20.646 33.2229C20.646 33.2229 20.646 33.223 20.646 33.2235C20.6452 33.2265 20.6442 33.2295 20.643 33.2325C20.6369 33.2486 20.6256 33.2625 20.6107 33.2725C20.5958 33.2824 20.5779 33.2878 20.5596 33.2879V33.2886H20.2271C20.2126 33.2909 20.1995 33.298 20.1902 33.3085C20.1808 33.3191 20.1758 33.3324 20.176 33.3461C20.1759 33.3549 20.178 33.3637 20.1821 33.3717C20.1861 33.3797 20.1921 33.3867 20.1995 33.3922L20.2022 33.3943L20.4603 33.5775C20.4755 33.5877 20.4871 33.602 20.4937 33.6183C20.5002 33.6347 20.5015 33.6525 20.4974 33.6695C20.4962 33.6744 20.4946 33.6792 20.4926 33.6839L20.3947 33.977V33.9781L20.3939 33.9802C20.3923 33.9856 20.3915 33.9912 20.3915 33.9969C20.3913 34.0043 20.3927 34.0117 20.3955 34.0187C20.3984 34.0257 20.4027 34.0321 20.4083 34.0376C20.4138 34.043 20.4204 34.0473 20.4278 34.0503C20.4351 34.0534 20.443 34.055 20.4511 34.0551C20.4615 34.0552 20.4717 34.0526 20.4807 34.0476L20.4911 34.0404L20.7474 33.8591L20.753 33.8551C20.7672 33.8459 20.784 33.8409 20.8013 33.8407C20.8186 33.8406 20.8356 33.8452 20.85 33.8542C20.8531 33.856 20.8561 33.8581 20.8589 33.8605L21.1137 34.041L21.1209 34.0462C21.1303 34.0517 21.1411 34.0545 21.1522 34.0545C21.1602 34.0543 21.1681 34.0526 21.1754 34.0496C21.1828 34.0466 21.1894 34.0422 21.1949 34.0368C21.2004 34.0314 21.2048 34.025 21.2076 34.018C21.2105 34.011 21.2119 34.0036 21.2116 33.9961C21.2117 33.9903 21.2108 33.9845 21.2089 33.9789C21.2089 33.978 21.2083 33.977 21.2081 33.976L21.1098 33.6819C21.1081 33.678 21.1069 33.6741 21.1059 33.6701C21.1041 33.6632 21.1032 33.6562 21.1032 33.6491C21.1031 33.6362 21.1061 33.6233 21.1119 33.6116C21.1177 33.5998 21.1262 33.5894 21.1369 33.5811C21.1391 33.5793 21.1414 33.5778 21.1437 33.5762L21.399 33.3955L21.4068 33.3898C21.4135 33.3843 21.4188 33.3775 21.4224 33.3698C21.426 33.3622 21.4278 33.354 21.4277 33.3457C21.4278 33.3318 21.4225 33.3184 21.4128 33.3078C21.4031 33.2973 21.3896 33.2904 21.3749 33.2885Z" fill="#B8C4D0"/>
</g>
</g>
<g id="Group 8767">
<path id="star_12_10" d="M23.039 38.6752H22.7068V38.6746C22.6884 38.6743 22.6705 38.6688 22.6555 38.6588C22.6406 38.6487 22.6294 38.6346 22.6234 38.6183C22.6224 38.6159 22.6215 38.6133 22.6208 38.6107L22.5233 38.3192L22.5208 38.3119C22.5166 38.3009 22.5088 38.2914 22.4984 38.2848C22.488 38.2783 22.4756 38.275 22.4631 38.2754C22.4506 38.2759 22.4385 38.2801 22.4287 38.2874C22.4189 38.2948 22.4119 38.3048 22.4087 38.3161L22.3101 38.6097C22.3101 38.6097 22.3101 38.6097 22.3101 38.6102C22.3093 38.6132 22.3083 38.6162 22.3071 38.6192C22.3009 38.6353 22.2897 38.6493 22.2747 38.6592C22.2598 38.6691 22.242 38.6745 22.2237 38.6747V38.6753H21.8911C21.8766 38.6776 21.8635 38.6847 21.8541 38.6953C21.8447 38.7058 21.8397 38.7191 21.84 38.7328C21.8399 38.7416 21.842 38.7504 21.846 38.7584C21.8501 38.7664 21.856 38.7734 21.8634 38.779L21.8661 38.781L22.1246 38.964C22.1398 38.9743 22.1513 38.9885 22.1579 39.0048C22.1645 39.0212 22.1658 39.039 22.1616 39.056C22.1605 39.061 22.1589 39.0658 22.1568 39.0704L22.0589 39.3635V39.3646L22.0582 39.3667C22.0566 39.3721 22.0557 39.3777 22.0557 39.3833C22.0555 39.3908 22.0568 39.3983 22.0597 39.4053C22.0626 39.4122 22.0669 39.4187 22.0724 39.4241C22.0779 39.4295 22.0846 39.4338 22.0919 39.4369C22.0993 39.4399 22.1072 39.4415 22.1152 39.4417C22.1256 39.4417 22.1359 39.4391 22.1448 39.4341L22.1553 39.4269L22.4115 39.2456L22.4172 39.2415C22.4314 39.2324 22.4482 39.2274 22.4655 39.2273C22.4828 39.2271 22.4997 39.2318 22.5141 39.2407C22.5173 39.2426 22.5203 39.2447 22.5231 39.247L22.7779 39.4276L22.7851 39.4327C22.7945 39.4382 22.8053 39.4411 22.8164 39.441C22.8244 39.4408 22.8323 39.4392 22.8396 39.4362C22.8469 39.4331 22.8536 39.4288 22.8591 39.4233C22.8646 39.4179 22.8689 39.4115 22.8718 39.4045C22.8747 39.3976 22.876 39.3901 22.8758 39.3827C22.8758 39.3768 22.8749 39.371 22.8731 39.3654C22.8731 39.3645 22.8725 39.3635 22.8721 39.3626L22.7738 39.0684C22.7722 39.0646 22.7709 39.0606 22.77 39.0566C22.7682 39.0497 22.7673 39.0427 22.7673 39.0356C22.7672 39.0227 22.7701 39.0099 22.776 38.9981C22.7818 38.9863 22.7903 38.9759 22.8009 38.9676C22.8031 38.9658 22.8054 38.9643 22.8077 38.9628L23.063 38.782L23.0708 38.7764C23.0774 38.7708 23.0827 38.764 23.0863 38.7564C23.0899 38.7488 23.0917 38.7405 23.0916 38.7322C23.0917 38.7184 23.0864 38.705 23.0767 38.6945C23.0671 38.684 23.0536 38.6772 23.039 38.6752Z" fill="#B8C4D0"/>
<path id="Subtract_2" fill-rule="evenodd" clip-rule="evenodd" d="M22.4772 38.2765V39.2279C22.4733 39.2274 22.4694 39.2272 22.4655 39.2273C22.4482 39.2274 22.4314 39.2324 22.4171 39.2415L22.4115 39.2456L22.1552 39.4269L22.1448 39.4341C22.1359 39.4391 22.1256 39.4417 22.1152 39.4417C22.1072 39.4415 22.0993 39.4399 22.0919 39.4369C22.0846 39.4338 22.0779 39.4295 22.0724 39.4241C22.0669 39.4187 22.0625 39.4122 22.0597 39.4053C22.0568 39.3983 22.0554 39.3908 22.0557 39.3833C22.0557 39.3777 22.0566 39.3721 22.0582 39.3667L22.0589 39.3646V39.3635L22.1568 39.0704C22.1589 39.0658 22.1605 39.061 22.1616 39.056C22.1658 39.039 22.1645 39.0212 22.1579 39.0048C22.1513 38.9885 22.1397 38.9743 22.1246 38.964L21.8661 38.781L21.8634 38.779C21.856 38.7734 21.8501 38.7664 21.846 38.7584C21.842 38.7504 21.8399 38.7416 21.84 38.7328C21.8397 38.7191 21.8447 38.7058 21.8541 38.6953C21.8635 38.6847 21.8766 38.6776 21.8911 38.6753H22.2236V38.6747C22.242 38.6745 22.2598 38.6691 22.2747 38.6592C22.2896 38.6493 22.3009 38.6353 22.307 38.6192C22.3083 38.6162 22.3093 38.6132 22.3101 38.6102V38.6097L22.4087 38.3161C22.4119 38.3048 22.4189 38.2948 22.4287 38.2874C22.4385 38.2801 22.4506 38.2759 22.4631 38.2754C22.4678 38.2753 22.4726 38.2756 22.4772 38.2765Z" fill="#B8C4D0"/>
<g id="Group 8204_2">
<path id="star 12_4" d="M18.0389 38.6752H17.7067V38.6746C17.6883 38.6743 17.6704 38.6688 17.6554 38.6588C17.6405 38.6487 17.6293 38.6346 17.6233 38.6183C17.6223 38.6159 17.6214 38.6133 17.6207 38.6107L17.5232 38.3192L17.5208 38.3119C17.5166 38.3009 17.5088 38.2914 17.4984 38.2848C17.488 38.2783 17.4756 38.275 17.4631 38.2754C17.4506 38.2759 17.4385 38.2801 17.4288 38.2874C17.419 38.2948 17.4119 38.3048 17.4087 38.3161L17.3101 38.6096C17.3101 38.6098 17.3101 38.61 17.3101 38.6102C17.3093 38.6132 17.3083 38.6162 17.3071 38.6192C17.3009 38.6353 17.2897 38.6493 17.2747 38.6592C17.2598 38.6691 17.242 38.6745 17.2237 38.6747V38.6753H16.8912C16.8767 38.6776 16.8636 38.6847 16.8542 38.6953C16.8449 38.7058 16.8399 38.7191 16.8401 38.7328C16.84 38.7416 16.8421 38.7504 16.8462 38.7584C16.8502 38.7664 16.8562 38.7734 16.8636 38.779L16.8663 38.781L17.1244 38.9642C17.1367 38.9724 17.1467 38.9833 17.1535 38.9958C17.1604 39.0084 17.1639 39.0223 17.1638 39.0364C17.1638 39.0429 17.163 39.0495 17.1614 39.0559C17.1603 39.0608 17.1587 39.0656 17.1566 39.0702L17.0587 39.3634V39.3644L17.058 39.3665C17.0564 39.3719 17.0556 39.3775 17.0556 39.3831C17.0554 39.3906 17.0567 39.3981 17.0596 39.4051C17.0625 39.4121 17.0668 39.4185 17.0723 39.4239C17.0779 39.4293 17.0845 39.4336 17.0918 39.4367C17.0992 39.4397 17.1071 39.4413 17.1151 39.4415C17.1256 39.4415 17.1358 39.4389 17.1447 39.4339L17.1552 39.4267L17.4114 39.2454L17.4171 39.2413C17.4313 39.2322 17.4481 39.2272 17.4654 39.227C17.4827 39.2269 17.4996 39.2316 17.514 39.2405C17.5172 39.2424 17.5202 39.2445 17.523 39.2468L17.7778 39.4274L17.785 39.4325C17.7944 39.438 17.8052 39.4409 17.8163 39.4408C17.8243 39.4406 17.8322 39.4389 17.8395 39.4359C17.8468 39.4329 17.8535 39.4286 17.859 39.4231C17.8645 39.4177 17.8688 39.4113 17.8717 39.4044C17.8746 39.3974 17.8759 39.3899 17.8757 39.3825C17.8757 39.3766 17.8748 39.3708 17.873 39.3652C17.873 39.3643 17.8724 39.3633 17.8722 39.3624L17.7738 39.0682C17.7722 39.0644 17.7709 39.0604 17.77 39.0564C17.7659 39.0404 17.7666 39.0235 17.7721 39.0078C17.7776 38.9921 17.7877 38.9782 17.8013 38.9675C17.8035 38.9657 17.8057 38.9642 17.808 38.9627L18.0634 38.7819L18.0711 38.7763C18.0777 38.7707 18.083 38.7639 18.0866 38.7563C18.0902 38.7487 18.092 38.7404 18.0919 38.7321C18.092 38.7183 18.0866 38.7048 18.0769 38.6944C18.0671 38.6839 18.0536 38.6771 18.0389 38.6752Z" fill="#B8C4D0"/>
<path id="star_12_11" d="M19.7069 38.6752H19.3748V38.6746C19.3563 38.6743 19.3384 38.6688 19.3235 38.6588C19.3086 38.6487 19.2974 38.6346 19.2914 38.6183C19.2903 38.6159 19.2895 38.6133 19.2888 38.6107L19.1913 38.3192L19.1888 38.3119C19.1846 38.3009 19.1767 38.2914 19.1664 38.2848C19.156 38.2783 19.1436 38.275 19.1311 38.2754C19.1185 38.2759 19.1065 38.2801 19.0967 38.2874C19.0869 38.2948 19.0799 38.3048 19.0767 38.3161L18.9781 38.6096C18.9781 38.6098 18.9781 38.61 18.9781 38.6102C18.9773 38.6132 18.9763 38.6162 18.975 38.6192C18.9689 38.6353 18.9576 38.6493 18.9427 38.6592C18.9278 38.6691 18.91 38.6745 18.8916 38.6747V38.6753H18.5592C18.5447 38.6776 18.5316 38.6847 18.5222 38.6953C18.5128 38.7058 18.5078 38.7191 18.5081 38.7328C18.508 38.7416 18.5101 38.7504 18.5141 38.7584C18.5182 38.7664 18.5241 38.7734 18.5315 38.779L18.5342 38.781L18.7924 38.9642C18.8075 38.9745 18.8191 38.9887 18.8257 39.005C18.8323 39.0214 18.8336 39.0392 18.8294 39.0562C18.8283 39.0612 18.8267 39.066 18.8246 39.0706L18.7267 39.3637V39.3648L18.726 39.3669C18.7244 39.3723 18.7236 39.378 18.7236 39.3836C18.7233 39.3911 18.7247 39.3985 18.7276 39.4054C18.7304 39.4124 18.7348 39.4189 18.7403 39.4243C18.7458 39.4297 18.7525 39.434 18.7598 39.4371C18.7672 39.4401 18.7751 39.4417 18.7831 39.4418C18.7935 39.4419 18.8038 39.4393 18.8127 39.4343L18.8231 39.4271L19.0794 39.2459L19.085 39.2418C19.0992 39.2326 19.1161 39.2276 19.1334 39.2274C19.1507 39.2273 19.1676 39.232 19.182 39.2409C19.1852 39.2427 19.1882 39.2449 19.191 39.2472L19.4458 39.4277L19.453 39.4329C19.4623 39.4384 19.4732 39.4413 19.4842 39.4412C19.4923 39.441 19.5002 39.4394 19.5075 39.4363C19.5148 39.4333 19.5214 39.4289 19.5269 39.4235C19.5325 39.4181 19.5368 39.4117 19.5397 39.4047C19.5425 39.3978 19.5439 39.3903 19.5437 39.3829C19.5437 39.377 19.5428 39.3712 19.541 39.3656C19.541 39.3647 19.5403 39.3637 19.54 39.3627L19.4417 39.0686C19.4401 39.0648 19.4388 39.0608 19.4378 39.0568C19.4361 39.0499 19.4351 39.0429 19.4351 39.0358C19.435 39.0229 19.438 39.0101 19.4438 38.9983C19.4496 38.9865 19.4582 38.9761 19.4688 38.9678C19.471 38.966 19.4733 38.9645 19.4756 38.9629L19.7309 38.7822L19.7386 38.7765C19.7453 38.771 19.7506 38.7642 19.7542 38.7566C19.7578 38.749 19.7596 38.7407 19.7595 38.7324C19.7596 38.7186 19.7544 38.7051 19.7447 38.6946C19.7351 38.6841 19.7216 38.6772 19.7069 38.6752Z" fill="#B8C4D0"/>
<path id="star_12_12" d="M21.3749 38.6752H21.0427V38.6746C21.0243 38.6743 21.0064 38.6688 20.9915 38.6588C20.9765 38.6487 20.9653 38.6346 20.9593 38.6183C20.9583 38.6159 20.9574 38.6133 20.9567 38.6107L20.8592 38.3192L20.8567 38.3119C20.8526 38.3009 20.8447 38.2914 20.8343 38.2848C20.8239 38.2783 20.8116 38.275 20.799 38.2754C20.7865 38.2759 20.7745 38.2801 20.7647 38.2874C20.7549 38.2948 20.7479 38.3048 20.7447 38.3161L20.646 38.6096C20.646 38.6096 20.646 38.6097 20.646 38.6102C20.6452 38.6132 20.6442 38.6162 20.643 38.6192C20.6369 38.6353 20.6256 38.6493 20.6107 38.6592C20.5958 38.6691 20.5779 38.6745 20.5596 38.6747V38.6753H20.2271C20.2126 38.6776 20.1995 38.6847 20.1902 38.6953C20.1808 38.7058 20.1758 38.7191 20.176 38.7328C20.1759 38.7416 20.178 38.7504 20.1821 38.7584C20.1861 38.7664 20.1921 38.7734 20.1995 38.779L20.2022 38.781L20.4603 38.9642C20.4755 38.9745 20.4871 38.9887 20.4937 39.005C20.5002 39.0214 20.5015 39.0392 20.4974 39.0562C20.4962 39.0612 20.4946 39.066 20.4926 39.0706L20.3947 39.3637V39.3648L20.3939 39.3669C20.3923 39.3723 20.3915 39.378 20.3915 39.3836C20.3913 39.3911 20.3927 39.3985 20.3955 39.4054C20.3984 39.4124 20.4027 39.4189 20.4083 39.4243C20.4138 39.4297 20.4204 39.434 20.4278 39.4371C20.4351 39.4401 20.443 39.4417 20.4511 39.4418C20.4615 39.4419 20.4717 39.4393 20.4807 39.4343L20.4911 39.4271L20.7474 39.2459L20.753 39.2418C20.7672 39.2326 20.784 39.2276 20.8013 39.2274C20.8186 39.2273 20.8356 39.232 20.85 39.2409C20.8531 39.2427 20.8561 39.2449 20.8589 39.2472L21.1137 39.4277L21.1209 39.4329C21.1303 39.4384 21.1411 39.4413 21.1522 39.4412C21.1602 39.441 21.1681 39.4394 21.1754 39.4363C21.1828 39.4333 21.1894 39.4289 21.1949 39.4235C21.2004 39.4181 21.2048 39.4117 21.2076 39.4047C21.2105 39.3978 21.2119 39.3903 21.2116 39.3829C21.2117 39.377 21.2108 39.3712 21.2089 39.3656C21.2089 39.3647 21.2083 39.3637 21.2081 39.3627L21.1098 39.0686C21.1081 39.0648 21.1069 39.0608 21.1059 39.0568C21.1041 39.0499 21.1032 39.0429 21.1032 39.0358C21.1031 39.0229 21.1061 39.0101 21.1119 38.9983C21.1177 38.9865 21.1262 38.9761 21.1369 38.9678C21.1391 38.966 21.1414 38.9645 21.1437 38.9629L21.399 38.7822L21.4068 38.7765C21.4135 38.771 21.4188 38.7642 21.4224 38.7566C21.426 38.749 21.4278 38.7407 21.4277 38.7324C21.4278 38.7185 21.4225 38.7051 21.4128 38.6945C21.4031 38.684 21.3896 38.6772 21.3749 38.6752Z" fill="#B8C4D0"/>
</g>
</g>
<g id="Group 8768_2">
<path id="Line 133 (Stroke)_3" fill-rule="evenodd" clip-rule="evenodd" d="M27.8401 28.3612C27.8401 28.1525 28.009 27.9834 28.2174 27.9834H29.3494C29.5578 27.9834 29.7268 28.1525 29.7268 28.3612C29.7268 28.5698 29.5578 28.7389 29.3494 28.7389H28.2174C28.009 28.7389 27.8401 28.5698 27.8401 28.3612Z" fill="#BBC7D2"/>
<path id="$_4" d="M26.894 28.6283C26.894 28.4302 26.7752 28.2996 26.5865 28.2185L26.4398 28.1577L26.4491 27.7975C26.5353 27.8087 26.6424 27.8628 26.7216 27.9483L26.866 27.7254C26.7728 27.6174 26.6144 27.5543 26.4747 27.5431L26.477 27.417H26.3093L26.3047 27.5386C26.1789 27.5498 26.0578 27.5881 25.9786 27.6556C25.8924 27.7277 25.8249 27.8335 25.8249 27.9821C25.8249 28.1667 25.9367 28.2658 25.9879 28.3041C26.0391 28.3446 26.109 28.3784 26.1975 28.4144L26.2767 28.4459L26.2697 28.8219C26.1696 28.8197 26.0019 28.7409 25.9343 28.6373L25.762 28.8624C25.8784 29.0043 26.0694 29.0853 26.2441 29.0921L26.2394 29.2114H26.4072L26.4118 29.0876C26.5003 29.0808 26.6331 29.038 26.7146 28.975C26.8054 28.9052 26.894 28.7881 26.894 28.6283ZM26.3023 27.7952L26.2953 28.1082L26.2697 28.0969C26.2115 28.0699 26.1509 28.0294 26.1509 27.9461C26.1509 27.8583 26.2138 27.802 26.3023 27.7952ZM26.5725 28.6711C26.5725 28.7589 26.4887 28.8197 26.4165 28.8264L26.4235 28.4909L26.4607 28.509C26.5306 28.5427 26.5725 28.5855 26.5725 28.6711Z" fill="#BBC7D2"/>
</g>
<g id="Group 8769_2">
<path id="Line 133 (Stroke)_4" fill-rule="evenodd" clip-rule="evenodd" d="M27.8401 33.5487C27.8401 33.34 28.009 33.1709 28.2174 33.1709H30.6701C30.8785 33.1709 31.0474 33.34 31.0474 33.5487C31.0474 33.7573 30.8785 33.9264 30.6701 33.9264H28.2174C28.009 33.9264 27.8401 33.7573 27.8401 33.5487Z" fill="#BBC7D2"/>
<path id="$_5" d="M26.894 33.8158C26.894 33.6177 26.7752 33.4871 26.5865 33.406L26.4398 33.3452L26.4491 32.985C26.5353 32.9962 26.6424 33.0503 26.7216 33.1358L26.866 32.9129C26.7728 32.8049 26.6144 32.7418 26.4747 32.7306L26.477 32.6045H26.3093L26.3047 32.7261C26.1789 32.7373 26.0578 32.7756 25.9786 32.8431C25.8924 32.9152 25.8249 33.021 25.8249 33.1696C25.8249 33.3542 25.9367 33.4533 25.9879 33.4916C26.0391 33.5321 26.109 33.5659 26.1975 33.6019L26.2767 33.6334L26.2697 34.0094C26.1696 34.0072 26.0019 33.9284 25.9343 33.8248L25.762 34.0499C25.8784 34.1918 26.0694 34.2728 26.2441 34.2796L26.2394 34.3989H26.4072L26.4118 34.2751C26.5003 34.2683 26.6331 34.2255 26.7146 34.1625C26.8054 34.0927 26.894 33.9756 26.894 33.8158ZM26.3023 32.9827L26.2953 33.2957L26.2697 33.2844C26.2115 33.2574 26.1509 33.2169 26.1509 33.1336C26.1509 33.0458 26.2138 32.9895 26.3023 32.9827ZM26.5725 33.8586C26.5725 33.9464 26.4887 34.0072 26.4165 34.0139L26.4235 33.6784L26.4607 33.6965C26.5306 33.7302 26.5725 33.773 26.5725 33.8586Z" fill="#BBC7D2"/>
</g>
<g id="Group 8770_2">
<path id="Line 133 (Stroke)_5" fill-rule="evenodd" clip-rule="evenodd" d="M27.8401 38.9364C27.8401 38.7277 28.009 38.5586 28.2174 38.5586H30.2377C30.4461 38.5586 30.6151 38.7277 30.6151 38.9364C30.6151 39.145 30.4461 39.3141 30.2377 39.3141H28.2174C28.009 39.3141 27.8401 39.145 27.8401 38.9364Z" fill="#BBC7D2"/>
<path id="$_6" d="M26.894 39.2035C26.894 39.0053 26.7752 38.8748 26.5865 38.7937L26.4398 38.7329L26.4491 38.3727C26.5353 38.3839 26.6424 38.438 26.7216 38.5235L26.866 38.3006C26.7728 38.1926 26.6144 38.1295 26.4747 38.1183L26.477 37.9922H26.3093L26.3047 38.1138C26.1789 38.125 26.0578 38.1633 25.9786 38.2308C25.8924 38.3029 25.8249 38.4087 25.8249 38.5573C25.8249 38.7419 25.9367 38.841 25.9879 38.8793C26.0391 38.9198 26.109 38.9536 26.1975 38.9896L26.2767 39.0211L26.2697 39.3971C26.1696 39.3948 26.0019 39.316 25.9343 39.2125L25.762 39.4376C25.8784 39.5795 26.0694 39.6605 26.2441 39.6673L26.2394 39.7866H26.4072L26.4118 39.6628C26.5003 39.656 26.6331 39.6132 26.7146 39.5502C26.8054 39.4804 26.894 39.3633 26.894 39.2035ZM26.3023 38.3704L26.2953 38.6834L26.2697 38.6721C26.2115 38.6451 26.1509 38.6046 26.1509 38.5213C26.1509 38.4335 26.2138 38.3772 26.3023 38.3704ZM26.5725 39.2463C26.5725 39.3341 26.4887 39.3948 26.4165 39.4016L26.4235 39.0661L26.4607 39.0841C26.5306 39.1179 26.5725 39.1607 26.5725 39.2463Z" fill="#BBC7D2"/>
</g>
<g id="Group 8771_2">
<path id="Line 134 (Stroke)_2" fill-rule="evenodd" clip-rule="evenodd" d="M3.66431 28.2674C3.66431 28.0588 3.83324 27.8896 4.04164 27.8896H5.35764C5.56603 27.8896 5.73497 28.0588 5.73497 28.2674C5.73497 28.4761 5.56603 28.6452 5.35764 28.6452H4.04164C3.83324 28.6452 3.66431 28.4761 3.66431 28.2674Z" fill="#B8C4D0"/>
<path id="#_2" d="M2.72325 28.1752V27.9477H2.51024L2.59544 27.5117H2.33983L2.25463 27.9477H2.00967L2.09487 27.5117H1.83926L1.75405 27.9477H1.4814V28.1752H1.71145L1.6582 28.4516H1.40259V28.6813H1.6156L1.53039 29.1172H1.78601L1.87121 28.6813H2.11617L2.03097 29.1172H2.28658L2.37178 28.6813H2.6423V28.4516H2.41438L2.46764 28.1752H2.72325ZM2.21202 28.1752L2.15877 28.4516H1.91381L1.96706 28.1752H2.21202Z" fill="#B8C4D0"/>
</g>
<g id="Group 8772">
<path id="Line 134 (Stroke)_3" fill-rule="evenodd" clip-rule="evenodd" d="M3.66431 33.4549C3.66431 33.2463 3.83324 33.0771 4.04164 33.0771H6.33396C6.54236 33.0771 6.7113 33.2463 6.7113 33.4549C6.7113 33.6635 6.54236 33.8327 6.33396 33.8327H4.04164C3.83324 33.8327 3.66431 33.6635 3.66431 33.4549Z" fill="#B8C4D0"/>
<path id="#_3" d="M2.72325 33.3627V33.1352H2.51024L2.59544 32.6992H2.33983L2.25463 33.1352H2.00967L2.09487 32.6992H1.83926L1.75405 33.1352H1.4814V33.3627H1.71145L1.6582 33.6391H1.40259V33.8688H1.6156L1.53039 34.3048H1.78601L1.87121 33.8688H2.11617L2.03097 34.3048H2.28658L2.37178 33.8688H2.6423V33.6391H2.41438L2.46764 33.3627H2.72325ZM2.21202 33.3627L2.15877 33.6391H1.91381L1.96706 33.3627H2.21202Z" fill="#B8C4D0"/>
</g>
<g id="Group 8773">
<path id="Line 134 (Stroke)_4" fill-rule="evenodd" clip-rule="evenodd" d="M3.66431 38.9364C3.66431 38.7277 3.83324 38.5586 4.04164 38.5586H5.26796C5.47636 38.5586 5.6453 38.7277 5.6453 38.9364C5.6453 39.145 5.47636 39.3141 5.26796 39.3141H4.04164C3.83324 39.3141 3.66431 39.145 3.66431 38.9364Z" fill="#B8C4D0"/>
<path id="#_4" d="M2.72325 38.8441V38.6166H2.51024L2.59544 38.1807H2.33983L2.25463 38.6166H2.00967L2.09487 38.1807H1.83926L1.75405 38.6166H1.4814V38.8441H1.71145L1.6582 39.1206H1.40259V39.3503H1.6156L1.53039 39.7862H1.78601L1.87121 39.3503H2.11617L2.03097 39.7862H2.28658L2.37178 39.3503H2.6423V39.1206H2.41438L2.46764 38.8441H2.72325ZM2.21202 38.8441L2.15877 39.1206H1.91381L1.96706 38.8441H2.21202Z" fill="#B8C4D0"/>
</g>
<g id="Group 8774">
<path id="Line 136 (Stroke)" fill-rule="evenodd" clip-rule="evenodd" d="M8.85181 33.4549C8.85181 33.2463 9.02074 33.0771 9.22914 33.0771L13.8222 33.0771C14.0306 33.0771 14.1996 33.2463 14.1996 33.4549C14.1996 33.6636 14.0306 33.8327 13.8222 33.8327L9.22914 33.8327C9.02074 33.8327 8.85181 33.6636 8.85181 33.4549Z" fill="#B8C4D0"/>
</g>
<g id="Group 8775">
<path id="Line 136 (Stroke)_2" fill-rule="evenodd" clip-rule="evenodd" d="M8.85181 38.9364C8.85181 38.7277 9.02074 38.5586 9.22914 38.5586L13.8222 38.5586C14.0306 38.5586 14.1996 38.7277 14.1996 38.9364C14.1996 39.145 14.0306 39.3141 13.8222 39.3141L9.22914 39.3141C9.02074 39.3141 8.85181 39.145 8.85181 38.9364Z" fill="#B8C4D0"/>
</g>
<g id="Group 8776_2">
<path id="Line 135 (Stroke)_2" fill-rule="evenodd" clip-rule="evenodd" d="M8.85181 28.2674C8.85181 28.0588 9.02074 27.8896 9.22914 27.8896L13.8222 27.8896C14.0306 27.8896 14.1996 28.0588 14.1996 28.2674C14.1996 28.4761 14.0306 28.6452 13.8222 28.6452L9.22914 28.6452C9.02074 28.6452 8.85181 28.4761 8.85181 28.2674Z" fill="#B8C4D0"/>
</g>
</g>
</g>
</g>
<path id="Rectangle 5982_2" d="M0.0119629 20.8313C0.0119629 20.3722 0.357025 20 0.78268 20H32.6133C33.039 20 33.384 20.3722 33.384 20.8313V22.882H0.0119629V20.8313Z" fill="#9FC0FF"/>
</g>
<path id="Vector_7" d="M3.38873 21.4408C3.38873 21.7792 3.10936 22.0584 2.77072 22.0584C2.43208 22.0584 2.15271 21.7792 2.15271 21.4408C2.15271 21.1024 2.43208 20.8232 2.77072 20.8232C3.10936 20.8232 3.38873 21.1024 3.38873 21.4408Z" fill="#FDFDFE"/>
<path id="Vector_8" d="M5.86125 21.4408C5.86125 21.7792 5.58188 22.0584 5.24325 22.0584C4.90462 22.0584 4.62524 21.7792 4.62524 21.4408C4.62524 21.1024 4.90462 20.8232 5.24325 20.8232C5.59035 20.8232 5.86125 21.1024 5.86125 21.4408Z" fill="#FDFDFE"/>
<path id="Vector_9" d="M8.33389 21.4408C8.33389 21.7792 8.05453 22.0584 7.7159 22.0584C7.37727 22.0584 7.0979 21.7792 7.0979 21.4408C7.0979 21.1024 7.37727 20.8232 7.7159 20.8232C8.05453 20.8232 8.33389 21.1024 8.33389 21.4408Z" fill="#FDFDFE"/>
</g>
<path id="Vector_10" d="M32.9802 29.38H33.9802V28.38C33.9802 27.2968 34.4138 26.2507 35.1874 25.4771C35.9609 24.7035 37.007 24.27 38.0902 24.27C39.1735 24.27 40.2196 24.7035 40.9931 25.4771L40.9931 25.4771L40.9968 25.4808C41.7647 26.2407 42.2002 27.2938 42.2002 28.38V33.03H29.0002H28.0002V34.03V47.66V48.66H29.0002H47.1702H48.1702V47.66V34.03V33.03H47.1702H46.4702V28.38C46.4702 26.1529 45.5836 24.0305 44.0199 22.4555C42.449 20.8732 40.3122 20 38.0902 20C35.8646 20 33.7318 20.8856 32.1557 22.4503C30.5734 24.0212 29.7002 26.1581 29.7002 28.38V29.38H30.7002H32.9802Z" fill="#FECE4D" stroke="white" stroke-width="2"/>
<path id="Vector_11" d="M36.1988 46.0899L37.6788 41.8599L36.0588 41.9799L37.0588 36.8399L39.3588 36.6699L38.2388 40.1899L40.5388 40.0199L36.1988 46.0899Z" fill="white"/>
</g>
</g>
</g>
<defs>
<filter id="filter0_d_173_40284" x="2.58163" y="8.67519" width="40.1815" height="26.5735" filterUnits="userSpaceOnUse" color-interpolation-filters="sRGB">
<feFlood flood-opacity="0" result="BackgroundImageFix"/>
<feColorMatrix in="SourceAlpha" type="matrix" values="0 0 0 0 0 0 0 0 0 0 0 0 0 0 0 0 0 0 127 0" result="hardAlpha"/>
<feOffset dy="0.244186"/>
<feGaussianBlur stdDeviation="1.7093"/>
<feComposite in2="hardAlpha" operator="out"/>
<feColorMatrix type="matrix" values="0 0 0 0 0.0354167 0 0 0 0 0.105426 0 0 0 0 0.2125 0 0 0 0.04 0"/>
<feBlend mode="normal" in2="BackgroundImageFix" result="effect1_dropShadow_173_40284"/>
<feBlend mode="normal" in="SourceGraphic" in2="effect1_dropShadow_173_40284" result="shape"/>
</filter>
<filter id="filter1_d_173_40284" x="-3.41837" y="18.6752" width="40.1815" height="26.5735" filterUnits="userSpaceOnUse" color-interpolation-filters="sRGB">
<feFlood flood-opacity="0" result="BackgroundImageFix"/>
<feColorMatrix in="SourceAlpha" type="matrix" values="0 0 0 0 0 0 0 0 0 0 0 0 0 0 0 0 0 0 127 0" result="hardAlpha"/>
<feOffset dy="0.244186"/>
<feGaussianBlur stdDeviation="1.7093"/>
<feComposite in2="hardAlpha" operator="out"/>
<feColorMatrix type="matrix" values="0 0 0 0 0.0354167 0 0 0 0 0.105426 0 0 0 0 0.2125 0 0 0 0.04 0"/>
<feBlend mode="normal" in2="BackgroundImageFix" result="effect1_dropShadow_173_40284"/>
<feBlend mode="normal" in="SourceGraphic" in2="effect1_dropShadow_173_40284" result="shape"/>
</filter>
<clipPath id="clip0_173_40284">
<rect width="47" height="47" fill="white"/>
</clipPath>
<clipPath id="clip1_173_40284">
<rect width="47" height="47" fill="white" transform="translate(0.000244141)"/>
</clipPath>
</defs>
</svg>
