<svg width="57" height="57" viewBox="0 0 57 57" fill="none" xmlns="http://www.w3.org/2000/svg">
<g clip-path="url(#clip0_1193_25508)">
<path fill-rule="evenodd" clip-rule="evenodd" d="M18.759 40.4193C15.8182 37.5151 14 33.5004 14 29.0587C14 20.1874 21.285 13 30.2539 13C39.2229 13 46.5078 20.1874 46.5078 29.0587C46.5078 33.4882 44.6896 37.5029 41.7488 40.4193L30.2539 51.78L18.759 40.4193Z" fill="#FECE4D"/>
<circle cx="30.3196" cy="28.9766" r="12.0775" fill="white"/>
<mask id="mask0_1193_25508" style="mask-type:alpha" maskUnits="userSpaceOnUse" x="18" y="16" width="25" height="26">
<circle cx="30.3196" cy="28.9766" r="12.0775" fill="#76A5FF"/>
</mask>
<g mask="url(#mask0_1193_25508)">
<path d="M41.8726 49.9168C41.7433 46.0869 40.6832 36.0723 39.9591 35.1924C39.1059 34.1573 35.098 31.9318 32.7967 31.3884C30.7539 30.9226 30.1592 31.1037 28.8405 31.0261C27.5218 30.9485 20.3076 34.8301 20.1524 35.7358C19.8163 37.392 19.0147 41.3254 18.7561 42.9816C18.42 45.2847 18.2907 47.6137 18.3941 49.9427L41.8726 49.9168Z" fill="#3D7FFC"/>
<path d="M27.6758 28.2062V31.2856C27.6758 31.3374 27.7016 31.3633 27.7275 31.3892C28.0895 31.7514 30.4942 33.9252 32.7697 31.4668C32.7955 31.4409 32.8214 31.3891 32.8214 31.3374L32.5887 28.1803C32.5887 28.1027 32.5111 28.0251 32.4335 28.0251H27.8309C27.7275 28.0509 27.6758 28.1027 27.6758 28.2062Z" fill="#E7C6A7"/>
<path d="M34.1928 25.7225C34.1152 25.6707 34.0118 25.6449 33.9342 25.6449C34.3221 23.2382 34.1411 20.2364 30.2108 20.3658C27.9353 20.4435 27.1855 22.4878 27.0303 24.6615C27.0303 24.765 26.9269 24.8168 26.8493 24.7909C26.72 24.765 26.5908 24.7909 26.4873 24.8168C25.6858 25.0497 26.2029 26.9905 27.0045 27.4046C27.0562 27.4304 27.082 27.4563 27.082 27.5081C27.4182 29.5265 28.5042 30.8204 30.0298 30.9239C31.4519 31.0274 32.5638 29.9406 33.262 28.2844C33.2878 28.2326 33.3137 28.2068 33.3654 28.2068C34.1928 27.948 34.9685 26.0589 34.1928 25.7225Z" fill="#E7C6A7"/>
<path d="M30.2123 31.1037C30.1348 31.1037 30.0831 31.1037 30.0055 31.1037C29.1781 31.052 28.4282 30.6379 27.911 29.991C27.8593 29.9392 27.8593 29.8357 27.9369 29.784C27.9886 29.7322 28.092 29.7322 28.1438 29.8098C28.6092 30.405 29.2815 30.7673 30.0313 30.8191C30.8329 30.8708 31.6086 30.5344 32.1258 29.9134C32.1775 29.8616 32.2809 29.8616 32.3326 29.9134C32.3844 29.9651 32.3844 30.0427 32.3326 30.0945C31.7896 30.7156 31.0398 31.0778 30.2123 31.1037Z" fill="#DFB996"/>
<path d="M27.0074 24.8406L27.4987 25.6428H28.0417V24.2713C28.4296 23.8831 28.6882 23.3656 28.7916 22.8221L32.8253 23.1068C32.8253 23.1068 32.6961 24.0901 33.0063 24.4783V26.0827H33.4976L33.9631 25.6428C33.9631 25.6428 34.9456 22.0976 34.5319 21.2177C34.3509 20.7261 33.8079 20.4673 33.3425 20.6484C33.3425 20.6484 32.0238 19.0958 30.162 19.6133C28.3003 20.1567 26.8264 21.2695 26.542 22.0458C26.2317 22.848 27.0074 24.8406 27.0074 24.8406Z" fill="#42505D"/>
<path d="M32.6954 31.6992L30.3941 44.3533C30.3683 44.5345 30.1097 44.5345 30.0838 44.3533L27.6791 31.6992C27.6533 31.5698 27.7825 31.4663 27.9118 31.518L30.1614 32.579C30.2131 32.6049 30.2648 32.6049 30.2907 32.579L32.4627 31.518C32.592 31.4663 32.7213 31.5698 32.6954 31.6992Z" fill="#76A5FF"/>
<path d="M27.9094 31.518L30.159 32.579C30.2107 32.6049 30.2624 32.6049 30.2883 32.579L32.4603 31.518C32.5637 31.4663 32.7189 31.5698 32.693 31.6992L32.1759 34.5716C32.15 34.701 32.0207 34.7527 31.9173 34.6751L30.3917 33.3812C30.34 33.3295 30.2366 33.3295 30.1849 33.3812L28.5559 34.9856C28.4783 35.0633 28.3231 35.0374 28.2973 34.908L27.7026 31.7251C27.6767 31.5698 27.806 31.4663 27.9094 31.518Z" fill="white"/>
</g>
<path d="M14.4702 24.5376C12.4675 24.5376 10.5433 24.0192 8.73689 22.9904L8.60338 22.9118C7.98292 22.582 7.35461 22.4171 6.74986 22.4171C6.14511 22.4171 5.55607 22.582 4.98273 22.8961L3.8125 23.548V9.19109L4.27588 8.98688C5.43826 8.46853 6.44356 8.23291 7.441 8.23291C8.87826 8.23291 10.292 8.73556 11.7685 9.78013C12.169 10.0629 12.6796 10.2042 13.2922 10.2042C14.9729 10.2042 16.9442 9.13611 17.7139 8.67273C17.926 8.54707 18.1694 8.48424 18.4129 8.48424C19.0019 8.48424 19.5282 8.86122 19.7088 9.4267L19.7795 9.64661L18.1144 15.6941C18.0281 16.0161 18.1537 16.3617 18.4286 16.5502L23.0231 19.6603L23.1095 19.9195C23.353 20.6813 23.0624 21.5139 22.3948 21.9458C19.7166 23.6658 17.0542 24.5376 14.4624 24.5376H14.4702Z" fill="#3D7FFC"/>
<path d="M7.44123 9.0102C8.61147 9.0102 9.87594 9.39504 11.3211 10.416C11.9022 10.8245 12.5855 10.9894 13.3002 10.9894C15.1223 10.9894 17.1408 9.93696 18.1225 9.34792C18.2168 9.29294 18.3189 9.26938 18.4131 9.26938C18.6487 9.26938 18.8844 9.4186 18.9629 9.66993L17.3607 15.4897C17.1801 16.1415 17.4392 16.8327 17.9969 17.2097L22.3715 20.1706C22.505 20.5947 22.3479 21.0581 21.9788 21.2937C19.3242 22.998 16.8031 23.7598 14.4705 23.7598C12.5463 23.7598 10.7556 23.2415 9.12197 22.3147C8.25019 21.8199 7.44909 21.6393 6.74224 21.6393C5.87831 21.6393 5.1479 21.9142 4.59812 22.2205V9.70135C5.51703 9.29294 6.45164 9.0102 7.44909 9.0102M7.44909 7.43942C6.34169 7.43942 5.22644 7.6986 3.96196 8.26408L3.02734 8.68034V24.8829L5.36781 23.5792C5.81548 23.3279 6.28671 23.2022 6.75009 23.2022C7.22918 23.2022 7.73183 23.3436 8.24233 23.6106L8.35229 23.6734C10.2765 24.7651 12.3342 25.3227 14.4783 25.3227C17.2193 25.3227 20.031 24.4117 22.8349 22.6132C23.8009 21.9848 24.2329 20.7832 23.8716 19.6836L23.7067 19.1731L23.259 18.8668L18.8844 15.9059L20.4866 10.0862L20.6122 9.63066L20.4709 9.18299C20.1803 8.2955 19.3635 7.6986 18.4288 7.6986C18.044 7.6986 17.667 7.8007 17.3371 7.99705C15.8292 8.90025 14.3605 9.4186 13.316 9.4186C12.8683 9.4186 12.5149 9.32436 12.2478 9.13586C10.6299 7.99705 9.06699 7.44728 7.4648 7.44728L7.44909 7.43942Z" fill="white"/>
<path d="M2.29051 29.9181C1.45014 29.9181 0.758998 29.2348 0.758998 28.3866V9.51368C0.617628 9.39587 0.491966 9.27021 0.374157 9.12099C0.13854 8.82254 -0.0342455 8.48482 -0.120638 8.13139C-0.18347 7.90363 -0.207031 7.67587 -0.207031 7.45596C-0.207031 5.98728 0.986761 4.79349 2.45544 4.79349C3.17014 4.79349 3.83773 5.06837 4.34038 5.57888C4.84303 6.08153 5.11791 6.74911 5.11791 7.46381C5.11791 7.68372 5.0865 7.91149 5.03152 8.13925C4.93727 8.50053 4.76449 8.8461 4.53672 9.12884C4.41891 9.27806 4.29325 9.40373 4.15188 9.52153V28.3866C4.15188 29.227 3.46859 29.9181 2.62037 29.9181H2.29836H2.29051Z" fill="#9FC0FF"/>
<path d="M2.44786 5.57078C3.48458 5.57078 4.32494 6.41115 4.32494 7.44786C4.32494 7.61279 4.30138 7.77772 4.26211 7.92695C4.19143 8.18613 4.07362 8.42174 3.90869 8.62595C3.75161 8.81444 3.56311 8.97937 3.35106 9.09718V28.3864C3.35106 28.7948 3.0212 29.1325 2.60494 29.1325H2.28293C1.87453 29.1325 1.53681 28.8026 1.53681 28.3864V9.10503C1.32475 8.98723 1.12841 8.82229 0.979182 8.6338C0.81425 8.4296 0.696442 8.19398 0.625757 7.9348C0.586487 7.77772 0.562926 7.62065 0.562926 7.45572C0.562926 6.419 1.40329 5.57863 2.44001 5.57863M2.44001 4.00785C0.547218 4 -1 5.54722 -1 7.44786C-1 7.7306 -0.960731 8.02905 -0.882192 8.31964C-0.764383 8.79088 -0.544474 9.21499 -0.246026 9.59983C-0.175341 9.68622 -0.104656 9.77261 -0.0261167 9.85115V28.3864C-0.0261167 29.6665 1.0106 30.7033 2.29078 30.7033H2.61279C3.89298 30.7033 4.92969 29.6665 4.92969 28.3864V9.85901C5.00038 9.78047 5.07892 9.70193 5.14175 9.61554C5.44805 9.23855 5.66796 8.79088 5.78577 8.3275C5.86431 8.02905 5.90358 7.73846 5.90358 7.44786C5.90358 6.52895 5.55015 5.66503 4.89828 5.01315C4.2464 4.36128 3.38247 4 2.45572 4L2.44001 4.00785Z" fill="white"/>
</g>
<defs>
<clipPath id="clip0_1193_25508">
<rect width="57" height="57" fill="white"/>
</clipPath>
</defs>
</svg>
