<svg width="667" height="233" viewBox="0 0 667 233" fill="none" xmlns="http://www.w3.org/2000/svg">
<mask id="mask0_46023_149869" style="mask-type:alpha" maskUnits="userSpaceOnUse" x="0" y="0" width="667" height="233">
<rect width="667" height="233" fill="#F5F8FF"/>
</mask>
<g mask="url(#mask0_46023_149869)">
<g filter="url(#filter0_d_46023_149869)">
<rect x="186" y="108" width="261" height="125" rx="10.0752" fill="white"/>
</g>
<path d="M465.992 107.463V272.541C465.992 278.32 461.257 283 455.43 283H189.561C183.719 283 179 278.32 179 272.541V107.463C179 106.786 179.065 106.141 179.196 105.492C179.491 103.927 180.141 102.475 181.102 101.23C183.007 98.6628 186.082 97 189.566 97H455.434C458.902 97 461.977 98.6628 463.898 101.214C464.843 102.455 465.509 103.911 465.804 105.492C465.935 106.137 466 106.782 466 107.463H465.992Z" fill="white"/>
<mask id="path-4-outside-1_46023_149869" maskUnits="userSpaceOnUse" x="178.771" y="-2.84033" width="291" height="220" fill="black">
<rect fill="white" x="178.771" y="-2.84033" width="291" height="220"/>
<path fill-rule="evenodd" clip-rule="evenodd" d="M462.721 100.256L462.754 100.28H462.743C463.031 100.582 463.301 100.901 463.551 101.236C464.474 102.479 465.135 103.925 465.438 105.509L448.737 118.253L323.455 213.913L198.212 118.253L181.511 105.509C180.5 104.5 180.547 104.248 181.511 103C182.697 101.466 184.283 100.048 185.99 98.9784L323.468 0.159668L459.585 98.0023C460.767 98.5565 461.829 99.3251 462.721 100.256Z"/>
</mask>
<path fill-rule="evenodd" clip-rule="evenodd" d="M462.721 100.256L462.754 100.28H462.743C463.031 100.582 463.301 100.901 463.551 101.236C464.474 102.479 465.135 103.925 465.438 105.509L448.737 118.253L323.455 213.913L198.212 118.253L181.511 105.509C180.5 104.5 180.547 104.248 181.511 103C182.697 101.466 184.283 100.048 185.99 98.9784L323.468 0.159668L459.585 98.0023C460.767 98.5565 461.829 99.3251 462.721 100.256Z" fill="#E7F0F8"/>
<path d="M462.754 100.28V102.28H468.964L463.921 98.6556L462.754 100.28ZM462.721 100.256L461.276 101.64L461.404 101.773L461.554 101.881L462.721 100.256ZM462.743 100.28V98.2798H458.08L461.294 101.658L462.743 100.28ZM463.551 101.236L465.156 100.043L465.153 100.038L463.551 101.236ZM465.438 105.509L466.652 107.099L467.636 106.348L467.403 105.132L465.438 105.509ZM448.737 118.253L447.524 116.663L447.524 116.663L448.737 118.253ZM323.455 213.913L322.241 215.502L323.454 216.429L324.668 215.503L323.455 213.913ZM198.212 118.253L199.426 116.663L199.426 116.663L198.212 118.253ZM181.511 105.509L180.099 106.925L180.193 107.019L180.298 107.099L181.511 105.509ZM181.511 103L179.929 101.777H179.929L181.511 103ZM185.99 98.9784L187.052 100.673L187.106 100.639L187.157 100.602L185.99 98.9784ZM323.468 0.159668L324.635 -1.46432L323.468 -2.3034L322.3 -1.46433L323.468 0.159668ZM459.585 98.0023L458.418 99.6263L458.568 99.7345L458.736 99.8131L459.585 98.0023ZM463.921 98.6556L463.888 98.6322L461.554 101.881L461.586 101.904L463.921 98.6556ZM462.743 102.28H462.754V98.2798H462.743V102.28ZM461.294 101.658C461.528 101.904 461.746 102.162 461.949 102.433L465.153 100.038C464.855 99.6402 464.534 99.2605 464.192 98.9012L461.294 101.658ZM461.945 102.428C462.697 103.441 463.229 104.611 463.474 105.886L467.403 105.132C467.04 103.24 466.251 101.517 465.156 100.043L461.945 102.428ZM464.225 103.919L447.524 116.663L449.951 119.843L466.652 107.099L464.225 103.919ZM447.524 116.663L322.241 212.323L324.668 215.503L449.951 119.842L447.524 116.663ZM324.669 212.324L199.426 116.663L196.998 119.842L322.241 215.502L324.669 212.324ZM199.426 116.663L182.725 103.919L180.298 107.099L196.999 119.843L199.426 116.663ZM182.924 104.094C182.812 103.982 182.735 103.9 182.68 103.838C182.624 103.775 182.61 103.753 182.616 103.761C182.623 103.772 182.665 103.837 182.703 103.948C182.723 104.005 182.741 104.072 182.753 104.148C182.766 104.224 182.772 104.301 182.77 104.378C182.768 104.535 182.737 104.655 182.713 104.725C182.691 104.789 182.675 104.81 182.694 104.777C182.713 104.745 182.75 104.686 182.821 104.587C182.891 104.489 182.979 104.372 183.094 104.223L179.929 101.777C179.691 102.085 179.43 102.431 179.231 102.776C179.029 103.125 178.782 103.652 178.771 104.31C178.759 105.011 179.016 105.57 179.282 105.972C179.525 106.338 179.836 106.663 180.099 106.925L182.924 104.094ZM183.094 104.223C184.126 102.887 185.532 101.625 187.052 100.673L184.928 97.2837C183.033 98.4711 181.267 100.045 179.929 101.777L183.094 104.223ZM322.3 -1.46433L184.822 97.3544L187.157 100.602L324.635 1.78366L322.3 -1.46433ZM460.752 96.3783L324.635 -1.46432L322.3 1.78365L458.418 99.6263L460.752 96.3783ZM458.736 99.8131C459.692 100.261 460.553 100.884 461.276 101.64L464.166 98.8733C463.106 97.7664 461.843 96.8518 460.434 96.1914L458.736 99.8131Z" fill="white" mask="url(#path-4-outside-1_46023_149869)"/>
<path d="M448.734 38.907V118.257L406.215 150.735L401.488 154.32L379.448 171.175L374.721 174.78L352.661 191.614L347.974 195.219L323.456 213.925L298.978 195.219L294.271 191.614L272.231 174.78L267.48 171.175L245.44 154.32L240.733 150.735L198.213 118.257V38.907C198.213 36.6589 200.069 34.8037 202.337 34.8037H444.639C446.912 34.8037 448.743 36.6589 448.743 38.907H448.734Z" fill="white"/>
<mask id="mask1_46023_149869" style="mask-type:alpha" maskUnits="userSpaceOnUse" x="198" y="56" width="251" height="158">
<path d="M448.734 60.9638L448.735 118.257L406.215 150.735L401.488 154.32L379.448 171.175L374.721 174.78L352.661 191.614L347.975 195.219L323.456 213.925L298.978 195.219L294.271 191.614L272.231 174.78L267.48 171.175L245.44 154.32L240.733 150.735L198.214 118.257L198.213 60.9638C198.213 58.7157 200.069 56.8604 202.337 56.8604H444.639C446.912 56.8604 448.743 58.7157 448.743 60.9638H448.734Z" fill="#F9FBFC"/>
</mask>
<g mask="url(#mask1_46023_149869)">
<rect x="269.97" y="61.7791" width="141.613" height="6.06912" rx="3.03456" fill="#B8C4D0"/>
<rect x="269.97" y="71.8911" width="112.279" height="6.06912" rx="3.03456" fill="#B8C4D0"/>
<path d="M247.94 77.6539C251.975 73.6193 251.975 67.0779 247.94 63.0433C243.906 59.0087 237.364 59.0087 233.33 63.0433C229.295 67.0779 229.295 73.6193 233.33 77.6539C237.364 81.6885 243.906 81.6885 247.94 77.6539Z" fill="#0BE597"/>
<path d="M239.532 74.6382C239.452 74.6382 239.381 74.6143 239.325 74.5585C239.189 74.4469 236.089 71.7847 235.77 71.4659C235.642 71.3384 235.642 71.1391 235.77 71.0116C235.897 70.8841 236.097 70.8841 236.224 71.0116C236.447 71.2348 238.336 72.8687 239.5 73.8571L245.717 66.1734C245.829 66.0379 246.028 66.014 246.164 66.1256C246.299 66.2372 246.323 66.4365 246.211 66.572L239.787 74.5107C239.731 74.5744 239.652 74.6223 239.572 74.6302C239.556 74.6382 239.548 74.6382 239.532 74.6382Z" fill="white" stroke="white" stroke-width="2.06068"/>
<rect x="269.97" y="104.067" width="141.613" height="6.06912" rx="3.03456" fill="#B8C4D0"/>
<rect x="269.97" y="114.179" width="112.279" height="6.06912" rx="3.03456" fill="#B8C4D0"/>
<path d="M247.941 119.942C251.975 115.907 251.975 109.366 247.941 105.331C243.906 101.296 237.365 101.296 233.33 105.331C229.296 109.366 229.296 115.907 233.33 119.942C237.365 123.976 243.906 123.976 247.941 119.942Z" fill="#0BE597"/>
<path d="M239.533 116.926C239.453 116.926 239.381 116.902 239.325 116.846C239.19 116.735 236.089 114.073 235.77 113.754C235.643 113.626 235.643 113.427 235.77 113.299C235.898 113.172 236.097 113.172 236.225 113.299C236.448 113.523 238.337 115.157 239.501 116.145L245.718 108.461C245.829 108.326 246.029 108.302 246.164 108.413C246.3 108.525 246.324 108.724 246.212 108.86L239.788 116.799C239.732 116.862 239.652 116.91 239.572 116.918C239.556 116.926 239.549 116.926 239.533 116.926Z" fill="white" stroke="white" stroke-width="2.06068"/>
<rect x="269.97" y="146.355" width="141.613" height="6.06912" rx="3.03456" fill="#B8C4D0"/>
<rect x="269.97" y="156.467" width="112.279" height="6.06912" rx="3.03456" fill="#B8C4D0"/>
<path d="M247.94 162.23C251.975 158.195 251.975 151.654 247.94 147.619C243.906 143.585 237.364 143.585 233.33 147.619C229.295 151.654 229.295 158.195 233.33 162.23C237.364 166.264 243.906 166.264 247.94 162.23Z" fill="#0BE597"/>
<path d="M239.532 159.214C239.452 159.214 239.381 159.19 239.325 159.134C239.189 159.023 236.089 156.36 235.77 156.042C235.642 155.914 235.642 155.715 235.77 155.587C235.897 155.46 236.097 155.46 236.224 155.587C236.447 155.81 238.336 157.444 239.5 158.433L245.717 150.749C245.829 150.614 246.028 150.59 246.164 150.701C246.299 150.813 246.323 151.012 246.211 151.148L239.787 159.086C239.731 159.15 239.652 159.198 239.572 159.206C239.556 159.214 239.548 159.214 239.532 159.214Z" fill="white" stroke="white" stroke-width="2.06068"/>
<rect x="269.97" y="193.476" width="141.613" height="6.06912" rx="3.03456" fill="#B8C4D0"/>
<rect x="269.97" y="203.588" width="112.279" height="6.06912" rx="3.03456" fill="#B8C4D0"/>
<path d="M247.94 209.351C251.975 205.316 251.975 198.775 247.94 194.74C243.906 190.706 237.364 190.706 233.33 194.74C229.295 198.775 229.295 205.316 233.33 209.351C237.364 213.385 243.906 213.385 247.94 209.351Z" fill="#0BE597"/>
<path d="M239.532 206.335C239.452 206.335 239.381 206.311 239.325 206.255C239.189 206.144 236.089 203.482 235.77 203.163C235.642 203.035 235.642 202.836 235.77 202.708C235.897 202.581 236.097 202.581 236.224 202.708C236.447 202.932 238.336 204.566 239.5 205.554L245.717 197.87C245.829 197.735 246.028 197.711 246.164 197.822C246.299 197.934 246.323 198.133 246.211 198.269L239.787 206.207C239.731 206.271 239.652 206.319 239.572 206.327C239.556 206.335 239.548 206.335 239.532 206.335Z" fill="white" stroke="white" stroke-width="2.06068"/>
</g>
<g style="mix-blend-mode:multiply">
<path d="M448.765 110.108V118.445L406.245 150.923L401.518 154.504L379.474 171.358L374.747 174.959L352.683 191.794L347.996 195.399L323.478 214.105L299 195.399L294.293 191.794L272.253 174.959L267.502 171.358L245.462 154.504L240.751 150.923L198.235 118.445V110.108L240.751 142.587L245.462 146.171L267.502 163.026L272.253 166.627L294.293 183.462L299 187.067L323.478 205.773L347.996 187.067L352.683 183.462L374.747 166.627L379.474 163.026L401.518 146.171L406.245 142.587L448.765 110.108Z" fill="#F0F1F7"/>
</g>
<circle cx="470.443" cy="134.967" r="39.761" fill="#3D7FFC"/>
<path d="M522.385 92.776C515.845 91.867 509.01 90.6822 501.304 87.7788C489.991 83.6265 477.356 75.0055 469.318 69C459.924 76.2963 442.536 86.743 415.443 91.973C415.436 92.3601 415.436 92.742 415.429 93.1291C415.309 100.981 415.196 108.398 415.626 115.686C417.58 148.563 431.91 174.038 459.439 193.565C461.387 194.939 465.352 197.167 469.023 199.127C470.274 198.485 471.372 197.894 472.004 197.505C502.81 178.571 519.172 152.123 522.04 116.659C522.588 109.843 522.505 102.927 522.42 95.5969C522.406 94.667 522.391 93.7293 522.385 92.7773V92.776ZM468.903 168.413C450.003 168.413 434.632 153.004 434.632 134.063C434.632 115.122 450.003 99.7126 468.903 99.7126C487.804 99.7126 503.167 115.122 503.167 134.062C503.167 153.002 487.797 168.412 468.903 168.412V168.413Z" fill="#3D7FFC"/>
<path d="M484.506 129.68H482.989V124.055C482.989 116.459 476.951 110.302 469.503 110.302H468.291C460.843 110.302 454.805 116.459 454.805 124.055V129.68H453.287C452.047 129.68 451.041 130.707 451.041 131.972V156.004C451.041 157.269 452.047 158.301 453.287 158.301H484.508C485.749 158.301 486.761 157.271 486.761 156.004V131.972C486.761 130.707 485.751 129.68 484.508 129.68H484.506ZM470.137 143.825V151.318C470.137 151.736 469.8 152.08 469.384 152.08H468.402C467.992 152.08 467.654 151.736 467.654 151.318V143.825C466.446 143.326 465.587 142.119 465.587 140.697C465.587 138.859 467.036 137.363 468.834 137.334C468.856 137.328 468.873 137.328 468.897 137.328C470.717 137.328 472.201 138.834 472.201 140.697C472.201 142.117 471.346 143.326 470.139 143.825H470.137ZM478.709 129.68H458.836V123.562C458.836 118.207 463.087 113.865 468.345 113.865H469.194C474.451 113.865 478.709 118.207 478.709 123.562V129.68Z" fill="white"/>
<line x1="16" y1="232" x2="664" y2="232" stroke="#F5F8FF" stroke-width="2"/>
</g>
<defs>
<filter id="filter0_d_46023_149869" x="176" y="100.594" width="301" height="165" filterUnits="userSpaceOnUse" color-interpolation-filters="sRGB">
<feFlood flood-opacity="0" result="BackgroundImageFix"/>
<feColorMatrix in="SourceAlpha" type="matrix" values="0 0 0 0 0 0 0 0 0 0 0 0 0 0 0 0 0 0 127 0" result="hardAlpha"/>
<feOffset dx="10" dy="12.594"/>
<feGaussianBlur stdDeviation="10"/>
<feColorMatrix type="matrix" values="0 0 0 0 0 0 0 0 0 0.0898333 0 0 0 0 0.320833 0 0 0 0.07 0"/>
<feBlend mode="normal" in2="BackgroundImageFix" result="effect1_dropShadow_46023_149869"/>
<feBlend mode="normal" in="SourceGraphic" in2="effect1_dropShadow_46023_149869" result="shape"/>
</filter>
</defs>
</svg>
