<svg width="47" height="47" viewBox="0 0 47 47" fill="none" xmlns="http://www.w3.org/2000/svg">
<g id="Property 1=Custom Solutions" clip-path="url(#clip0_173_40288)">
<g id="Group 114367">
<g id="Group 114061">
<g id="Frame 113526" clip-path="url(#clip1_173_40288)">
<g id="Group 114205">
<g id="_&#195;&#142;&#195;&#147;&#195;&#136;_1" clip-path="url(#clip2_173_40288)">
<path id="Vector" d="M33.6714 17.1128C33.0408 15.6212 32.1381 14.2817 30.9879 13.1315C29.8377 11.9813 28.4982 11.0785 27.0066 10.4479C25.4621 9.7945 23.8217 9.46289 22.131 9.46289C21.2863 9.46289 20.4533 9.54579 19.638 9.71029C18.8233 9.87545 18.0276 10.1209 17.2554 10.4479C15.7638 11.0785 14.4243 11.9813 13.2741 13.1315C12.1239 14.2817 11.2211 15.6212 10.5905 17.1128C9.93708 18.6573 9.60547 20.2977 9.60547 21.9884C9.60547 25.219 10.8327 28.287 13.0606 30.6259C15.0653 32.7305 16.1698 35.4663 16.1698 38.3294C16.1698 38.834 16.5797 39.2446 17.085 39.2446H27.1769C27.6815 39.2446 28.0921 38.834 28.0921 38.3294C28.0921 35.4663 29.1966 32.7305 31.2013 30.6259C33.4292 28.287 34.6565 25.219 34.6565 21.9884C34.6565 20.2977 34.3249 18.6573 33.6714 17.1128Z" fill="#FECE4D"/>
<path id="Vector_2" d="M16.275 14.9966L14.9966 16.275C14.7964 16.4752 14.7813 16.7923 14.9638 17.0096L15.7421 17.9423C15.8896 18.1186 15.9115 18.3557 15.7995 18.5572C15.5398 19.0253 15.3307 19.5255 15.1804 20.0509C15.1175 20.2723 14.9337 20.4233 14.7048 20.4438L13.4961 20.5531C13.2139 20.5784 13 20.8128 13 21.0963V22.9037C13 23.1865 13.2146 23.4209 13.4961 23.4469L14.7048 23.5555C14.9337 23.576 15.1175 23.7277 15.1804 23.9491C15.33 24.4745 15.5398 24.9747 15.7995 25.4428C15.9115 25.6437 15.889 25.8808 15.7421 26.0571L14.9638 26.9897C14.782 27.207 14.7971 27.5255 14.9966 27.7257L16.275 29.0041C16.4752 29.2043 16.7923 29.2187 17.0096 29.0369L17.9423 28.2586C18.1186 28.1104 18.3557 28.0885 18.5572 28.2005C19.0253 28.4616 19.5255 28.67 20.0509 28.8203C20.2723 28.8832 20.4233 29.0663 20.4445 29.2952L20.5531 30.5039C20.5784 30.7861 20.8128 31 21.0963 31H22.9037C23.1865 31 23.4209 30.7854 23.4469 30.5039L23.5555 29.2952C23.576 29.0663 23.7277 28.8832 23.9491 28.8196C24.4745 28.67 24.9747 28.4616 25.4428 28.2005C25.6437 28.0885 25.8808 28.111 26.0571 28.2586L26.9898 29.0369C27.207 29.218 27.5255 29.2036 27.7257 29.0041L29.0041 27.7257C29.2043 27.5255 29.2187 27.2077 29.0369 26.9897L28.2586 26.0571C28.1104 25.8808 28.0885 25.6437 28.2005 25.4428C28.4616 24.9747 28.67 24.4745 28.8203 23.9491C28.8832 23.7277 29.0663 23.576 29.2952 23.5555L30.5039 23.4469C30.7861 23.4209 31 23.1859 31 22.9037V21.0963C31 20.8128 30.7854 20.5784 30.5039 20.5531L29.2952 20.4445C29.0663 20.4233 28.8832 20.2723 28.8196 20.0509C28.67 19.5255 28.4616 19.0253 28.2005 18.5572C28.0885 18.3557 28.111 18.1186 28.2586 17.9423L29.0369 17.0096C29.218 16.7923 29.2036 16.4745 29.0041 16.275L27.7257 14.9966C27.5255 14.7964 27.2077 14.7813 26.9898 14.9638L26.0571 15.7421C25.8808 15.8896 25.6437 15.9115 25.4428 15.7995C24.9747 15.5398 24.4745 15.33 23.9491 15.1804C23.7277 15.1175 23.576 14.9337 23.5555 14.7048L23.4469 13.4961C23.4209 13.2139 23.1859 13 22.9037 13H21.0963C20.8128 13 20.5784 13.2146 20.5531 13.4961L20.4445 14.7048C20.4233 14.9337 20.2723 15.1175 20.0509 15.1804C19.5255 15.33 19.0253 15.5398 18.5572 15.7995C18.3557 15.9115 18.1186 15.889 17.9423 15.7421L17.0096 14.9638C16.7923 14.782 16.4745 14.7971 16.275 14.9966ZM22.0003 17.999C24.2101 17.999 26.0017 19.7906 26.0017 22.0003C26.0017 24.2101 24.2108 26.0017 22.0003 26.0017C19.7899 26.0017 17.999 24.2108 17.999 22.0003C17.999 19.7899 19.7906 17.999 22.0003 17.999Z" fill="white"/>
<g id="Vector_3">
<path d="M7.69221 22.1313C7.69221 21.6423 7.29598 21.2461 6.80704 21.2461H0.885045C0.396114 21.2461 -0.00012207 21.6423 -0.00012207 22.1313C-0.00012207 22.6202 0.396114 23.0164 0.885045 23.0164H6.80704C7.29598 23.0164 7.69221 22.6202 7.69221 22.1313Z" fill="#9FC0FF"/>
<path d="M7.69221 22.1313C7.69221 21.6423 7.29598 21.2461 6.80704 21.2461H0.885045C0.396114 21.2461 -0.00012207 21.6423 -0.00012207 22.1313C-0.00012207 22.6202 0.396114 23.0164 0.885045 23.0164H6.80704C7.29598 23.0164 7.69221 22.6202 7.69221 22.1313Z" stroke="#9FC0FF"/>
</g>
<g id="Vector_4">
<path d="M43.3775 21.2461H37.4555C36.9666 21.2461 36.5703 21.6423 36.5703 22.1313C36.5703 22.6202 36.9666 23.0164 37.4555 23.0164H43.3775C43.8664 23.0164 44.2626 22.6202 44.2626 22.1313C44.2626 21.6423 43.8664 21.2461 43.3775 21.2461Z" fill="#9FC0FF"/>
<path d="M43.3775 21.2461H37.4555C36.9666 21.2461 36.5703 21.6423 36.5703 22.1313C36.5703 22.6202 36.9666 23.0164 37.4555 23.0164H43.3775C43.8664 23.0164 44.2626 22.6202 44.2626 22.1313C44.2626 21.6423 43.8664 21.2461 43.3775 21.2461Z" stroke="#9FC0FF"/>
</g>
<g id="Vector_5">
<path d="M10.6694 32.3415L6.48181 36.5291C6.30882 36.7021 6.22266 36.9286 6.22266 37.1551C6.22266 37.3816 6.30882 37.6081 6.48181 37.7811C6.6548 37.9541 6.88131 38.0403 7.10782 38.0403C7.33434 38.0403 7.56085 37.9541 7.73384 37.7811L11.9214 33.5935C12.0944 33.4206 12.1806 33.194 12.1806 32.9675C12.1806 32.741 12.0944 32.5145 11.9214 32.3415C11.5754 31.9955 11.0154 31.9955 10.6694 32.3415Z" fill="#9FC0FF"/>
<path d="M10.6694 32.3415L6.48181 36.5291C6.30882 36.7021 6.22266 36.9286 6.22266 37.1551C6.22266 37.3816 6.30882 37.6081 6.48181 37.7811C6.6548 37.9541 6.88131 38.0403 7.10782 38.0403C7.33434 38.0403 7.56085 37.9541 7.73384 37.7811L11.9214 33.5935C12.0944 33.4206 12.1806 33.194 12.1806 32.9675C12.1806 32.741 12.0944 32.5145 11.9214 32.3415C11.5754 31.9955 11.0154 31.9955 10.6694 32.3415Z" stroke="#9FC0FF"/>
</g>
<g id="Vector_6">
<path d="M32.9672 12.1809C33.1937 12.1809 33.4202 12.0947 33.5932 11.9217L37.7808 7.73416C37.9538 7.56118 38.0399 7.33466 38.0399 7.10815C38.0399 6.88164 37.9538 6.65512 37.7808 6.48214C37.4348 6.13616 36.8747 6.13616 36.5288 6.48214L32.3412 10.6697C32.1682 10.8427 32.082 11.0692 32.082 11.2957C32.082 11.5222 32.1682 11.7487 32.3412 11.9217C32.5142 12.0947 32.7407 12.1809 32.9672 12.1809Z" fill="#9FC0FF"/>
<path d="M32.9672 12.1809C33.1937 12.1809 33.4202 12.0947 33.5932 11.9217L37.7808 7.73416C37.9538 7.56118 38.0399 7.33466 38.0399 7.10815C38.0399 6.88164 37.9538 6.65512 37.7808 6.48214C37.4348 6.13616 36.8747 6.13616 36.5288 6.48214L32.3412 10.6697C32.1682 10.8427 32.082 11.0692 32.082 11.2957C32.082 11.5222 32.1682 11.7487 32.3412 11.9217C32.5142 12.0947 32.7407 12.1809 32.9672 12.1809Z" stroke="#9FC0FF"/>
</g>
<g id="Vector_7">
<path d="M22.1314 7.69233C22.6203 7.69233 23.0165 7.2961 23.0165 6.80717V0.885167C23.0165 0.396236 22.6203 0 22.1314 0C21.6425 0 21.2462 0.396236 21.2462 0.885167V6.80717C21.2462 7.2961 21.6425 7.69233 22.1314 7.69233Z" fill="#9FC0FF"/>
<path d="M22.1314 7.69233C22.6203 7.69233 23.0165 7.2961 23.0165 6.80717V0.885167C23.0165 0.396236 22.6203 0 22.1314 0C21.6425 0 21.2462 0.396236 21.2462 0.885167V6.80717C21.2462 7.2961 21.6425 7.69233 22.1314 7.69233Z" stroke="#9FC0FF"/>
</g>
<g id="Vector_8">
<path d="M33.5932 32.3415C33.2472 31.9955 32.6872 31.9955 32.3412 32.3415C32.1682 32.5145 32.082 32.741 32.082 32.9675C32.082 33.194 32.1682 33.4206 32.3412 33.5935L36.5288 37.7811C36.7017 37.9541 36.9283 38.0403 37.1548 38.0403C37.3813 38.0403 37.6078 37.9541 37.7808 37.7811C37.9538 37.6081 38.0399 37.3816 38.0399 37.1551C38.0399 36.9286 37.9538 36.7021 37.7808 36.5291L33.5932 32.3415Z" fill="#9FC0FF"/>
<path d="M33.5932 32.3415C33.2472 31.9955 32.6872 31.9955 32.3412 32.3415C32.1682 32.5145 32.082 32.741 32.082 32.9675C32.082 33.194 32.1682 33.4206 32.3412 33.5935L36.5288 37.7811C36.7017 37.9541 36.9283 38.0403 37.1548 38.0403C37.3813 38.0403 37.6078 37.9541 37.7808 37.7811C37.9538 37.6081 38.0399 37.3816 38.0399 37.1551C38.0399 36.9286 37.9538 36.7021 37.7808 36.5291L33.5932 32.3415Z" stroke="#9FC0FF"/>
</g>
<g id="Vector_9">
<path d="M10.6694 11.9217C10.8424 12.0947 11.0689 12.1809 11.2954 12.1809C11.5219 12.1809 11.7484 12.0947 11.9214 11.9217C12.0944 11.7487 12.1806 11.5222 12.1806 11.2957C12.1806 11.0692 12.0944 10.8427 11.9214 10.6697L7.73384 6.48214C7.38786 6.13616 6.82778 6.13616 6.48181 6.48214C6.30882 6.65512 6.22266 6.88164 6.22266 7.10815C6.22266 7.33466 6.30882 7.56118 6.48181 7.73416L10.6694 11.9217Z" fill="#9FC0FF"/>
<path d="M10.6694 11.9217C10.8424 12.0947 11.0689 12.1809 11.2954 12.1809C11.5219 12.1809 11.7484 12.0947 11.9214 11.9217C12.0944 11.7487 12.1806 11.5222 12.1806 11.2957C12.1806 11.0692 12.0944 10.8427 11.9214 10.6697L7.73384 6.48214C7.38786 6.13616 6.82778 6.13616 6.48181 6.48214C6.30882 6.65512 6.22266 6.88164 6.22266 7.10815C6.22266 7.33466 6.30882 7.56118 6.48181 7.73416L10.6694 11.9217Z" stroke="#9FC0FF"/>
</g>
<path id="Vector_10" d="M26.5269 42.7705H17.7379C17.2809 42.7705 16.9102 43.1413 16.9102 43.5982C16.9102 44.0552 17.2809 44.426 17.7379 44.426H26.5269C26.9838 44.426 27.3546 44.0552 27.3546 43.5982C27.3546 43.1413 26.9838 42.7705 26.5269 42.7705Z" fill="#3D7FFC"/>
<path id="Vector_11" d="M27.0924 40.1689H17.1754C16.7184 40.1689 16.3477 40.5397 16.3477 40.9967C16.3477 41.4536 16.7184 41.8244 17.1754 41.8244H27.0924C27.5493 41.8244 27.9201 41.4536 27.9201 40.9967C27.9201 40.5397 27.5493 40.1689 27.0924 40.1689Z" fill="#3D7FFC"/>
<path id="Vector_12" d="M25.4128 45.3438H18.8517C18.6513 45.3438 18.5468 45.582 18.682 45.7295L19.321 46.4267C19.6553 46.7916 20.1279 46.9992 20.6227 46.9992H23.6418C24.1366 46.9992 24.6092 46.7916 24.9434 46.4267L25.5825 45.7295C25.7176 45.582 25.6132 45.3438 25.4128 45.3438Z" fill="#3D7FFC"/>
</g>
</g>
</g>
</g>
</g>
</g>
<defs>
<clipPath id="clip0_173_40288">
<rect width="47" height="47" fill="white"/>
</clipPath>
<clipPath id="clip1_173_40288">
<rect width="47" height="47" fill="white"/>
</clipPath>
<clipPath id="clip2_173_40288">
<rect width="44.2622" height="47" fill="white"/>
</clipPath>
</defs>
</svg>
