<svg width="47" height="47" viewBox="0 0 47 47" fill="none" xmlns="http://www.w3.org/2000/svg">
<g id="Property 1=24, Property 2=7 support" clip-path="url(#clip0_173_40289)">
<g id="Group 114061">
<g id="Frame 113526" clip-path="url(#clip1_173_40289)">
<g id="Clip path group">
<mask id="mask0_173_40289" style="mask-type:luminance" maskUnits="userSpaceOnUse" x="0" y="0" width="47" height="47">
<g id="clippath">
<path id="Vector" d="M47 0H0V47H47V0Z" fill="white"/>
</g>
</mask>
<g mask="url(#mask0_173_40289)">
<g id="Group">
<g id="Frame_113526">
<g id="Group_114079">
<path id="Vector_2" d="M43 34.3397C42.85 34.5997 42.72 34.8397 42.57 35.0797C41.84 36.2697 40.94 37.3297 39.92 38.2797C38.51 39.5997 36.96 40.7197 35.24 41.6097C33.6 42.4597 31.87 43.0797 30.06 43.5097C28.68 43.8297 27.29 44.0097 25.88 44.0497C23.04 44.1197 20.29 43.6397 17.64 42.6097C15.17 41.6497 12.94 40.2997 10.97 38.5197C9.07002 36.7997 7.53002 34.7997 6.34002 32.5297C5.37002 30.6597 4.70002 28.6997 4.30002 26.6397C4.13002 25.7597 4.06002 24.8597 3.96002 23.9697C3.89002 23.3397 3.91002 22.7097 3.90002 22.0797C3.90002 21.8397 3.95002 21.5997 3.97002 21.3697C4.05002 20.3197 4.19002 19.2697 4.40002 18.2397C5.08002 14.9497 6.47002 11.9897 8.60002 9.36973C9.98002 7.66973 11.58 6.18973 13.4 4.96973C15.24 3.72973 17.23 2.81973 19.37 2.19973C20.61 1.83973 21.87 1.58973 23.15 1.44973C23.94 1.36973 24.73 1.31973 25.53 1.33973C28.74 1.38973 31.79 2.10973 34.68 3.47973C35.08 3.66973 35.47 3.87973 35.86 4.07973C35.92 4.10973 35.95 4.10973 36.01 4.05973C37.01 3.10973 38.01 2.15973 39.01 1.20973C39.09 1.13973 39.17 1.05973 39.26 0.969727C40.46 5.26973 41.62 9.55973 42.76 13.8597C42.76 13.8697 42.74 13.8797 42.73 13.8997C38.41 12.7297 34.08 11.5697 29.73 10.3897C30.63 9.45973 31.51 8.54973 32.4 7.61973C32.05 7.46973 31.72 7.32973 31.38 7.18973C29.99 6.62973 28.54 6.27973 27.05 6.12973C23.37 5.74973 19.93 6.48973 16.75 8.39973C15.57 9.10973 14.49 9.94973 13.52 10.9297C12.33 12.1297 11.36 13.4897 10.57 14.9897C9.69002 16.6497 9.11002 18.4097 8.80002 20.2597C8.68002 20.9797 8.61002 21.6997 8.60002 22.4197C8.57002 25.0197 9.11002 27.4997 10.24 29.8497C11.01 31.4597 12.03 32.8897 13.25 34.1797C14.6 35.6097 16.14 36.7797 17.9 37.6597C19.39 38.3997 20.96 38.8797 22.6 39.1397C23.4 39.2697 24.2 39.3297 25.01 39.3497C27.21 39.3997 29.35 39.0697 31.4 38.2597C33.24 37.5297 34.89 36.4797 36.34 35.1497C36.92 34.6197 37.46 34.0397 38.02 33.4797C38.16 33.3297 38.32 33.2797 38.52 33.3297C39.95 33.6597 41.39 33.9897 42.83 34.3197C42.87 34.3297 42.92 34.3497 42.99 34.3697L43 34.3397Z" fill="#9FC0FF"/>
<g id="Vector_2_2">
<path id="Vector_3" d="M20.12 45.0995C17.51 45.0995 14.88 44.0595 12.3 41.9995C10.31 40.4095 7.40002 37.6595 4.86002 33.5495L4.69002 33.2795C2.01002 29.2695 0.710018 25.4795 0.0900179 23.0095C-1.81998 15.3295 2.12002 11.8395 3.90002 10.6895C4.59002 10.2395 5.54002 9.97949 6.43002 9.97949C6.77002 9.97949 7.11002 10.0195 7.44002 10.0895C7.90002 10.1795 8.19002 10.2495 8.54002 10.3395C10.1 10.6795 11.05 11.5695 11.32 12.9795C11.4 13.3795 11.64 14.4295 11.89 15.4995C12.19 16.7695 12.47 17.9595 12.54 18.3895C12.73 19.4795 12.32 21.0095 10.96 21.9795C10.31 22.4495 9.87002 22.7895 9.57002 23.0295C9.41002 23.1595 9.28002 23.2595 9.19002 23.3295C9.19002 23.3295 8.77002 23.9095 9.22002 25.1795C9.67002 26.4395 10.71 28.2995 11.31 29.2295C11.91 30.1595 13.18 31.8795 14.13 32.8095C14.83 33.4995 15.4 33.5995 15.68 33.5995C15.8 33.5995 15.86 33.5795 15.86 33.5795C15.91 33.5495 16.05 33.4795 16.23 33.3795C16.57 33.2095 17.07 32.9495 17.76 32.5495C18.36 32.2095 19.03 32.0195 19.71 32.0195C20.44 32.0195 21.14 32.2295 21.68 32.5995C22.04 32.8495 23.01 33.5995 24.04 34.3895C24.91 35.0595 25.76 35.7195 26.1 35.9595C27.27 36.7895 27.69 38.0195 27.34 39.6195C27.28 39.9395 27.22 40.2295 27.11 40.7095C26.82 42.1095 25.88 43.1495 25.1 43.6495C24.08 44.3095 22.38 45.0995 20.13 45.0995H20.12Z" fill="#FECE4D"/>
<path id="Vector_4" d="M6.43002 10.9797C6.68002 10.9797 6.95002 11.0097 7.22002 11.0697C7.68002 11.1597 7.96002 11.2297 8.29002 11.3097C9.64002 11.5997 10.17 12.2997 10.33 13.1597C10.5 14.0297 11.42 17.7897 11.55 18.5597C11.68 19.3297 11.37 20.4497 10.37 21.1597C9.37002 21.8697 8.86002 22.3097 8.58002 22.5097C8.30002 22.7097 7.62002 23.7397 8.26002 25.4997C8.76002 26.8897 9.87002 28.8497 10.45 29.7497C11.03 30.6497 12.36 32.4797 13.41 33.5097C14.29 34.3697 15.11 34.5797 15.65 34.5797C15.94 34.5797 16.16 34.5197 16.26 34.4597C16.56 34.2897 17.17 34.0097 18.23 33.3997C18.71 33.1197 19.22 33.0097 19.68 33.0097C20.24 33.0097 20.74 33.1697 21.09 33.4097C21.73 33.8497 24.78 36.2497 25.49 36.7597C26.21 37.2697 26.62 38.0397 26.33 39.3897C26.27 39.7297 26.21 40.0097 26.11 40.4597C25.87 41.6297 25.07 42.4497 24.54 42.7897C23.41 43.5197 21.9 44.0797 20.11 44.0797C18.04 44.0797 15.58 43.3297 12.92 41.1997C8.38002 37.5797 5.93002 33.3497 5.61002 32.8597C5.30002 32.3697 2.46002 28.3897 1.05002 22.7497C-0.489981 16.5897 1.99002 13.0797 4.43002 11.5197C4.84002 11.2597 5.57002 10.9697 6.42002 10.9697M6.42002 8.96973C4.87002 8.96973 3.76002 9.57973 3.35002 9.83973C-2.69998 13.7497 -1.40998 21.0897 -0.869981 23.2497C-0.229981 25.7997 1.11002 29.7097 3.87002 33.8397L3.95002 33.9597L4.03002 34.0797C6.64002 38.3097 9.64002 41.1497 11.7 42.7797C14.46 44.9797 17.3 46.0997 20.14 46.0997C22.63 46.0997 24.51 45.2297 25.65 44.4997C26.59 43.8897 27.73 42.6397 28.09 40.9197C28.2 40.4497 28.26 40.1497 28.32 39.7997C28.88 37.1597 27.53 35.7597 26.67 35.1497C26.37 34.9297 25.45 34.2297 24.65 33.6097C23.39 32.6397 22.6 32.0297 22.24 31.7797C21.54 31.2997 20.63 31.0297 19.7 31.0297C18.84 31.0297 18 31.2597 17.25 31.6897C16.58 32.0797 16.1 32.3197 15.76 32.4997C15.69 32.5297 15.63 32.5597 15.58 32.5897C15.45 32.5597 15.18 32.4497 14.82 32.0997C13.93 31.2297 12.7 29.5497 12.14 28.6897C11.59 27.8297 10.57 26.0097 10.15 24.8397C9.98002 24.3697 9.99002 24.0797 10.02 23.9497C10.07 23.9097 10.12 23.8697 10.18 23.8197C10.48 23.5797 10.9 23.2497 11.53 22.7997C13.25 21.5797 13.77 19.6197 13.52 18.2197C13.45 17.7997 13.22 16.8297 12.86 15.2797C12.63 14.2897 12.36 13.1597 12.29 12.7897C12.1 11.7597 11.38 9.94973 8.75002 9.35973C8.40002 9.26973 8.10002 9.19973 7.61002 9.09973C7.26002 9.01973 6.84002 8.96973 6.43002 8.96973H6.42002Z" fill="white"/>
</g>
<g id="Group_114098">
<path id="Vector_3_2" d="M23.2501 26.0895C23.2301 25.9295 23.2201 25.7795 23.2001 25.6295C23.1601 25.2295 23.1201 24.8295 23.0801 24.4295C23.0801 24.3395 23.0901 24.2695 23.1401 24.1995C24.6201 22.1695 26.1001 20.1395 27.5801 18.0995C27.6201 18.0395 27.6701 18.0095 27.7401 18.0195C28.4201 18.0195 29.1001 18.0195 29.7801 18.0195H29.8901V24.0295H31.0601C31.0001 24.7195 30.9401 25.3895 30.8801 26.0795H29.9001V28.3095H27.5601V26.0795H23.2301L23.2501 26.0895ZM27.5701 21.4695C27.5701 21.4695 27.5601 21.4695 27.5501 21.4695C26.9701 22.3195 26.3901 23.1795 25.8001 24.0495H27.5701V21.4795V21.4695Z" fill="#3D7FFC"/>
<path id="Vector_4_2" d="M17.4001 21.3193C16.7901 20.8893 16.1801 20.4593 15.5601 20.0193C16.3101 18.8793 17.2801 18.0693 18.6701 17.8493C19.3901 17.7393 20.0901 17.7793 20.7601 18.0693C21.8801 18.5493 22.4701 19.4093 22.5401 20.6293C22.5801 21.4993 22.3101 22.2793 21.8701 23.0193C21.5001 23.6393 21.0501 24.1893 20.5701 24.7293C20.2001 25.1493 19.8001 25.5493 19.4201 25.9593C19.4001 25.9793 19.3801 25.9993 19.3501 26.0393H22.5701C22.5001 26.8093 22.4401 27.5693 22.3701 28.3293H15.9301C15.9301 28.3293 15.9301 28.2693 15.9301 28.2293C15.9301 27.6793 15.9301 27.1393 15.9301 26.5893C15.9301 26.5193 15.9501 26.4793 16.0001 26.4293C16.9401 25.3893 17.8801 24.3593 18.8101 23.3193C19.1701 22.9193 19.4801 22.4793 19.7301 22.0093C19.8801 21.7393 19.9801 21.4493 20.0101 21.1393C20.0601 20.4993 19.6101 20.0693 18.9701 20.1493C18.5201 20.1993 18.1601 20.4393 17.8601 20.7693C17.7001 20.9493 17.5601 21.1393 17.4001 21.3393V21.3193Z" fill="#3D7FFC"/>
<path id="Vector_5" d="M42.5501 28.6495C41.6901 28.4695 40.8301 28.2995 39.9701 28.1195C41.0701 25.4695 42.1601 22.8295 43.2601 20.1695H39.2301C39.2901 19.4495 39.3501 18.7395 39.4101 18.0195H45.7801V18.1095C45.7801 18.6595 45.7801 19.1995 45.7801 19.7495C45.7801 19.7995 45.7801 19.8495 45.7601 19.8895C44.7001 22.7795 43.6401 25.6795 42.5801 28.5695C42.5801 28.5895 42.5601 28.6195 42.5501 28.6495Z" fill="#3D7FFC"/>
<path id="Vector_6" d="M31.4801 28.2996C31.5701 28.1096 31.6501 27.9396 31.7401 27.7696C32.8901 25.4096 34.0301 23.0596 35.1801 20.6996C35.7601 19.5096 36.3301 18.3296 36.9101 17.1396C36.9401 17.0696 36.9801 17.0596 37.0501 17.0596C37.5901 17.1096 38.1301 17.1596 38.6701 17.1996C38.7901 17.2096 38.9101 17.2196 39.0401 17.2296C38.9701 17.3796 38.9001 17.5296 38.8301 17.6796C37.7101 19.9796 36.5901 22.2896 35.4701 24.5896C34.8501 25.8596 34.2301 27.1296 33.6201 28.3996C33.6001 28.4396 33.5801 28.4696 33.5201 28.4696C32.8501 28.4096 32.1801 28.3496 31.4801 28.2896V28.2996Z" fill="#3D7FFC"/>
</g>
</g>
</g>
</g>
</g>
</g>
</g>
</g>
</g>
<defs>
<clipPath id="clip0_173_40289">
<rect width="47" height="47" fill="white"/>
</clipPath>
<clipPath id="clip1_173_40289">
<rect width="47" height="47" fill="white" transform="translate(0.000244141)"/>
</clipPath>
</defs>
</svg>
