<svg width="57" height="57" viewBox="0 0 57 57" fill="none" xmlns="http://www.w3.org/2000/svg">
<g clip-path="url(#clip0_1193_25465)">
<path d="M37.8895 23.9447C37.8895 34.4076 29.4076 42.8895 18.9447 42.8895C8.48185 42.8895 0 34.4076 0 23.9447C0 13.4818 8.48185 5 18.9447 5C29.4076 5 37.8895 13.4818 37.8895 23.9447Z" fill="#E6EEFF"/>
<path fill-rule="evenodd" clip-rule="evenodd" d="M18.9447 39.8895C27.7508 39.8895 34.8895 32.7508 34.8895 23.9447C34.8895 15.1387 27.7508 8 18.9447 8C10.1387 8 3 15.1387 3 23.9447C3 32.7508 10.1387 39.8895 18.9447 39.8895ZM18.9447 42.8895C29.4076 42.8895 37.8895 34.4076 37.8895 23.9447C37.8895 13.4818 29.4076 5 18.9447 5C8.48185 5 0 13.4818 0 23.9447C0 34.4076 8.48185 42.8895 18.9447 42.8895Z" fill="#9FC0FF"/>
<path d="M21.4744 14.5554V25.1088C21.4769 25.4522 21.3563 25.7852 21.1345 26.0474L16.4934 31.6935C16.3546 31.8504 16.181 31.9724 15.9864 32.0498C15.7918 32.1272 15.5818 32.1578 15.3732 32.1391C15.1646 32.1204 14.9634 32.053 14.7857 31.9422C14.608 31.8314 14.4588 31.6804 14.3502 31.5014C14.1526 31.1767 14.0672 30.7961 14.1073 30.4182C14.1474 30.0402 14.3106 29.686 14.5719 29.4099L18.3409 24.961C18.4572 24.8282 18.5204 24.6571 18.5183 24.4806V14.5554C18.4987 14.3496 18.5224 14.1419 18.5878 13.9457C18.6532 13.7495 18.7589 13.5691 18.898 13.4161C19.0372 13.2631 19.2067 13.1409 19.3959 13.0572C19.585 12.9736 19.7896 12.9304 19.9964 12.9304C20.2032 12.9304 20.4077 12.9736 20.5968 13.0572C20.786 13.1409 20.9556 13.2631 21.0947 13.4161C21.2339 13.5691 21.3395 13.7495 21.4049 13.9457C21.4703 14.1419 21.494 14.3496 21.4744 14.5554Z" fill="#3D7FFC"/>
<path d="M27.8328 51.4263L35.0711 37.3323L29.3366 36.9527L35.3402 19.4286L43.4632 19.9632L37.8471 31.7427L45.9823 32.2778L27.8328 51.4263Z" fill="#FECE4D"/>
<path fill-rule="evenodd" clip-rule="evenodd" d="M29.3729 52.8876L25.9414 50.4558L31.7024 39.2384L26.426 38.8891L33.8557 17.2021L46.7274 18.0493L41.1113 29.8286L50.6351 30.4551L29.3729 52.8876ZM45.9806 32.2778L27.8311 51.4263L35.0694 37.3323L29.3349 36.9527L35.3385 19.4286L43.4615 19.9632L37.8453 31.7427L45.9806 32.2778Z" fill="white"/>
</g>
<defs>
<clipPath id="clip0_1193_25465">
<rect width="57" height="57" fill="white"/>
</clipPath>
</defs>
</svg>
