<svg width="156" height="155" viewBox="0 0 156 155" fill="none" xmlns="http://www.w3.org/2000/svg">
<g id="data_for_Good">
<g id="data_for_good">
<rect id="Rectangle 8656" x="0.5" width="155" height="155" fill="white"/>
<circle id="Ellipse 2390" cx="78.1896" cy="77.6896" r="58.6896" fill="#F5F8FF"/>
</g>
<g id="use case">
<g id="Data &#226;&#128;&#168;for Good">
<g id="Frame" clip-path="url(#clip0_2577_22523)">
<path id="Vector" d="M45.7384 107.251V107.204C48.9782 107.204 50.9719 104.676 53.369 102.54C55.1135 100.997 57.0597 99.6562 59.8722 99.6562C61.1302 99.6562 62.2101 99.6681 63.112 99.7037H69.7339C70.707 99.7037 71.4902 100.701 71.4902 101.935C71.4902 103.169 70.707 104.166 69.7339 104.166H63.5155C62.2575 104.427 61.2963 105.803 61.2963 107.477C61.2963 108.747 61.8541 109.838 62.661 110.408C62.8628 110.479 63.8122 110.8 65.0819 111.227C65.9008 111.476 66.6721 111.737 67.4079 112.01L67.5622 112.057C70.2916 112.983 73.2347 113.968 73.7687 114.122C74.1247 114.146 74.4452 114.122 74.73 114.039L84.5323 105.946L86.3123 104.308C86.3954 104.237 86.4903 104.178 86.5734 104.118C86.704 104.035 86.8345 103.964 86.9769 103.905C87.0837 103.857 87.2024 103.833 87.321 103.81C87.4516 103.786 87.5703 103.774 87.7008 103.774C87.8788 103.774 88.0449 103.798 88.2111 103.845C89.6589 104 90.7981 105.531 90.7981 107.417C90.7981 108.414 90.4777 109.304 89.9556 109.957C89.7538 110.23 89.5165 110.444 89.2673 110.622L88.5908 111.25L73.2347 125.432C73.1754 125.456 73.1042 125.491 73.0448 125.527C72.7007 125.681 72.3328 125.776 71.953 125.776C71.7276 125.776 71.5021 125.74 71.2885 125.693L71.2173 125.669C66.0194 123.984 55.2678 120.507 50.2361 118.929C50.1174 118.869 49.9987 118.81 49.8682 118.751C48.5866 118.335 46.8302 117.849 45.7384 117.849V116.911H45.7266V107.263L45.7384 107.251Z" fill="#FFB27D"/>
<g id="Group" filter="url(#filter0_dd_2577_22523)">
<mask id="mask0_2577_22523" style="mask-type:alpha" maskUnits="userSpaceOnUse" x="21" y="36" width="60" height="36">
<path id="Vector_2" d="M21.9961 42.6934C21.9961 39.418 24.6543 36.7598 27.9297 36.7598H75.0306C78.3059 36.7598 80.9641 39.418 80.9641 42.6934V65.2173C80.9641 68.4926 78.3059 71.1509 75.0306 71.1509H27.9297C24.6543 71.1509 21.9961 68.4926 21.9961 65.2173V42.6934Z" fill="#F5F8FF"/>
</mask>
<g mask="url(#mask0_2577_22523)">
<path id="Vector_3" d="M71.4704 36.7598H31.4898C26.2466 36.7598 21.9961 41.0103 21.9961 46.2535V65.87C21.9961 71.1132 26.2466 75.3637 31.4898 75.3637H71.4704C76.7136 75.3637 80.9641 71.1132 80.9641 65.87V46.2535C80.9641 41.0103 76.7136 36.7598 71.4704 36.7598Z" fill="white"/>
<path id="Vector_4" d="M21.9961 42.6934C21.9961 39.418 24.6543 36.7598 27.9297 36.7598H75.0306C78.3059 36.7598 80.9641 39.418 80.9641 42.6934V65.2173C80.9641 68.4926 78.3059 71.1509 75.0306 71.1509H27.9297C24.6543 71.1509 21.9961 68.4926 21.9961 65.2173V42.6934Z" fill="#F5F8FF"/>
<g id="Group_2">
<g id="Group_3">
<path id="Vector_5" opacity="0.8" d="M14.4589 82.5342C11.1836 82.5342 9.13053 78.9859 10.7563 76.1378C11.1005 75.5326 11.587 75.0223 12.1804 74.6425L14.803 72.9811C16.9035 71.652 18.6955 69.8601 20.0246 67.7596L24.3087 60.9715C24.8546 60.0934 25.5547 59.322 26.3736 58.6812L26.7414 58.3845C29.5658 56.1535 33.4939 55.9636 36.52 57.8979C37.6118 58.5981 38.5256 59.5356 39.1901 60.6393L41.1245 63.8315C43.1182 67.1187 47.5565 67.902 50.547 65.4811C51.3184 64.864 51.9236 64.0689 52.339 63.167L57.4419 51.9287C58.0233 50.6471 58.9371 49.5316 60.0882 48.7009C63.2093 46.458 67.4815 46.7072 70.3177 49.318L71.4689 50.3741L78.5061 58.9423L83.5497 65.9914C84.5584 67.3917 86.3503 67.9969 87.988 67.4866C90.1478 66.8102 92.4382 68.0681 93.0315 70.2517L93.9216 73.5152C95.1795 78.1315 91.6906 82.6766 86.9081 82.6766L14.4589 82.5342Z" fill="#76A5FF"/>
<path id="Vector_6" d="M20.6887 80.8841C18.5763 80.8841 17.3658 78.487 18.6238 76.7899C18.873 76.4577 19.1934 76.1847 19.5613 76.0067L21.8635 74.8793C23.5605 74.0486 25.0558 72.85 26.2425 71.3904L29.3161 67.6047C29.9095 66.8808 30.6096 66.2519 31.4166 65.7653L31.6539 65.6229C33.9324 64.2226 36.7806 64.0921 39.1777 65.2906C40.222 65.8128 41.1358 66.5604 41.8478 67.4742L43.0464 69.0169C44.8384 71.3192 48.0781 71.8888 50.5465 70.3342C51.3179 69.8476 51.9706 69.1831 52.4334 68.388L56.0885 62.134C56.7412 61.0185 57.6905 60.0928 58.8179 59.452C61.2744 58.0754 64.3124 58.2415 66.6028 59.8911L67.7183 60.6862L73.4146 66.0739L77.3663 70.3698C78.292 71.3666 79.6804 71.7939 81.0096 71.4734C82.8846 71.0225 84.7952 72.0549 85.4242 73.8706L85.7208 74.7132C86.8008 77.7868 84.5104 81.0028 81.2469 81.0028L20.7005 80.9079L20.6887 80.8841Z" fill="#3D7FFC"/>
</g>
</g>
</g>
</g>
<g id="Vector_7" filter="url(#filter1_dd_2577_22523)">
<path d="M128.796 47.4404H68.2734C64.9964 47.4404 62.3398 50.097 62.3398 53.374V88.9756C62.3398 92.2526 64.9964 94.9092 68.2734 94.9092H128.796C132.073 94.9092 134.73 92.2526 134.73 88.9756V53.374C134.73 50.097 132.073 47.4404 128.796 47.4404Z" fill="white"/>
</g>
<path id="Vector_8" d="M87.2656 57.5275V86.0088C87.2656 88.2992 89.1288 90.1623 91.4191 90.1623C93.7095 90.1623 95.5727 88.2992 95.5727 86.0088V57.5275C95.5727 55.2372 93.7095 53.374 91.4191 53.374C89.1288 53.374 87.2656 55.2372 87.2656 57.5275Z" fill="#76A5FF"/>
<path id="Vector_9" d="M73.0273 67.0197V86.0072C73.0273 88.2976 74.8905 90.1607 77.1809 90.1607C79.4712 90.1607 81.3344 88.2976 81.3344 86.0072V67.0197C81.3344 64.7294 79.4712 62.8662 77.1809 62.8662C74.8905 62.8662 73.0273 64.7294 73.0273 67.0197Z" fill="#9FC0FF"/>
<path id="Vector_10" d="M101.508 74.1418V86.009C101.508 88.2994 103.371 90.1625 105.661 90.1625C107.952 90.1625 109.815 88.2994 109.815 86.009V74.1418C109.815 71.8514 107.952 69.9883 105.661 69.9883C103.371 69.9883 101.508 71.8514 101.508 74.1418Z" fill="#FECE4D"/>
<path id="Vector_11" d="M115.742 68.2082V84.8223C115.742 87.1126 117.605 88.9758 119.896 88.9758C122.186 88.9758 124.049 87.1126 124.049 84.8223V68.2082C124.049 65.9178 122.186 64.0547 119.896 64.0547C117.605 64.0547 115.742 65.9178 115.742 68.2082Z" fill="#7879F1"/>
<path id="Vector_12" d="M45.7258 103.215H38.6055V121.016H45.7258V103.215Z" fill="#091B36"/>
</g>
</g>
</g>
</g>
<defs>
<filter id="filter0_dd_2577_22523" x="7.75547" y="24.8926" width="87.45" height="62.8719" filterUnits="userSpaceOnUse" color-interpolation-filters="sRGB">
<feFlood flood-opacity="0" result="BackgroundImageFix"/>
<feColorMatrix in="SourceAlpha" type="matrix" values="0 0 0 0 0 0 0 0 0 0 0 0 0 0 0 0 0 0 127 0" result="hardAlpha"/>
<feOffset dy="4.74687"/>
<feGaussianBlur stdDeviation="5.93359"/>
<feColorMatrix type="matrix" values="0 0 0 0 0.607843 0 0 0 0 0.67451 0 0 0 0 0.737255 0 0 0 0.35 0"/>
<feBlend mode="normal" in2="BackgroundImageFix" result="effect1_dropShadow_2577_22523"/>
<feColorMatrix in="SourceAlpha" type="matrix" values="0 0 0 0 0 0 0 0 0 0 0 0 0 0 0 0 0 0 127 0" result="hardAlpha"/>
<feOffset dy="2.37344"/>
<feGaussianBlur stdDeviation="7.12031"/>
<feColorMatrix type="matrix" values="0 0 0 0 0.89625 0 0 0 0 0.930414 0 0 0 0 0.995833 0 0 0 0.5 0"/>
<feBlend mode="normal" in2="effect1_dropShadow_2577_22523" result="effect2_dropShadow_2577_22523"/>
<feBlend mode="normal" in="SourceGraphic" in2="effect2_dropShadow_2577_22523" result="shape"/>
</filter>
<filter id="filter1_dd_2577_22523" x="48.0992" y="35.5732" width="100.872" height="75.95" filterUnits="userSpaceOnUse" color-interpolation-filters="sRGB">
<feFlood flood-opacity="0" result="BackgroundImageFix"/>
<feColorMatrix in="SourceAlpha" type="matrix" values="0 0 0 0 0 0 0 0 0 0 0 0 0 0 0 0 0 0 127 0" result="hardAlpha"/>
<feOffset dy="4.74687"/>
<feGaussianBlur stdDeviation="5.93359"/>
<feColorMatrix type="matrix" values="0 0 0 0 0.607843 0 0 0 0 0.67451 0 0 0 0 0.737255 0 0 0 0.35 0"/>
<feBlend mode="normal" in2="BackgroundImageFix" result="effect1_dropShadow_2577_22523"/>
<feColorMatrix in="SourceAlpha" type="matrix" values="0 0 0 0 0 0 0 0 0 0 0 0 0 0 0 0 0 0 127 0" result="hardAlpha"/>
<feOffset dy="2.37344"/>
<feGaussianBlur stdDeviation="7.12031"/>
<feColorMatrix type="matrix" values="0 0 0 0 0.89625 0 0 0 0 0.930414 0 0 0 0 0.995833 0 0 0 0.5 0"/>
<feBlend mode="normal" in2="effect1_dropShadow_2577_22523" result="effect2_dropShadow_2577_22523"/>
<feBlend mode="normal" in="SourceGraphic" in2="effect2_dropShadow_2577_22523" result="shape"/>
</filter>
<clipPath id="clip0_2577_22523">
<rect width="135.286" height="94.9375" fill="white" transform="translate(10.1875 30.8252)"/>
</clipPath>
</defs>
</svg>
