<svg width="589" height="576" viewBox="0 0 589 576" fill="none" xmlns="http://www.w3.org/2000/svg">
<g clip-path="url(#clip0_54738_243221)">
<path d="M287.581 377.032C282.44 370.862 277.545 365.3 266.9 363.031C265.149 361.166 265.398 364.995 265.105 361.092C265.545 360.616 265.567 356.244 263.149 358.765C260.241 354.798 256.055 349.994 249.558 357.455C249.74 355.621 256.818 352.609 253.262 350.93C251.337 349.698 249.684 348.89 249.697 347.051C252.033 337.659 247.876 324.227 233.34 322.136C231.204 322.313 231.758 315.899 228.37 318.404C232.144 314.062 223.987 310.077 223.751 307.757C226.431 304.792 220.263 304.04 219.681 300.621C226.523 301.43 219.983 297.913 211.951 299.763C210.586 296.416 206.081 297.584 204.057 294.917C205.551 294.534 204.098 291.739 201.156 291.014C202.158 289.826 200.3 285.383 199.702 291.251C198.716 290.617 196.551 292.747 196.281 290.756C195.94 291.022 196.364 291.132 195.022 292.492C193.429 289.322 199.895 289.876 197.271 286.265C195.481 285.659 192.154 290.731 189.047 288.223C188.361 288.266 188.728 288.495 187.645 289.741C187.29 289.113 186.847 288.864 186.363 288.912C184.874 288.982 183.051 291.815 182.72 294.422C181.153 294.274 178.946 295.677 178.201 299.168C178.624 297.491 176.41 291.397 172.889 290.884C161.937 297.479 164.529 277.761 170.495 270.28C170.257 270.021 172.319 267.148 169.161 266.524C170.981 262.084 164.408 264.652 160.155 261.587C164.174 256.946 168.418 250.467 173.745 243.3C168.868 239.876 163.171 246.238 158.412 250.82C157.994 249.011 155.367 250.171 151.981 250.142C148.658 240.744 160.388 217.14 173.824 214.277C173.639 214.213 173.464 214.168 173.304 214.102C174.341 213.758 173.94 214.386 175.511 212.699C175.424 213.015 175.399 212.867 175.338 213.529C177.458 211.765 178.781 215.706 181.123 214.197C181.164 214.782 180.03 218.211 182.644 216.45C182.745 216.673 182.679 217.884 183.489 217.008L183.388 217.021C183.733 216.654 183.561 217.129 183.855 215.977C183.925 217.578 185.425 220.345 185.224 215.844C184.933 215.69 186.892 215.861 186.358 214.769C187.891 213.364 188.666 215.644 191.118 213.589C191.023 213.784 190.936 214.336 189.914 214.976C191.151 215.731 192.671 214.228 194.674 216.591C191.492 222.637 202.048 211.774 196.269 225.658C195.569 225.987 193.303 228.926 194.913 229.242C194.833 229.386 193.103 230.472 194.507 230.27C190.715 242.079 201.754 231.672 202.742 222.426L202.723 222.406L203.099 222.543C206.639 210.912 221.822 211.927 228.399 207.849C229.441 208.277 231.136 207.552 231.011 205.654C231.371 206.204 235.24 203.666 232.83 203.276C234.711 201.702 235.984 198.592 240.059 197.013C238.152 198.155 236.554 198.677 236.124 201.258C235.707 201.504 234.948 201.165 234.631 202.752C234.605 202.848 234.59 202.962 234.578 203.092C236.081 201.562 239.408 202.308 241.271 197.564C241.791 197.975 240.532 199.506 241.316 199.253C241.283 199.284 241.277 199.306 241.267 199.342C242.865 198.293 246.061 197.659 248.106 194.844C248.021 196.562 257.643 195.219 250.743 194.679C252.283 194.189 254.066 195.526 256.195 194.079C256.672 194.998 255.584 195.086 257.936 194.862C257.488 195.163 256.927 195.254 256.427 195.446C256.482 195.54 259.591 196.103 260.625 193.569C259.84 193.585 260.404 194.425 258.704 194.377C259.749 190.83 263.848 190.839 269.509 188.987C269.697 189.335 268.004 189.171 268.207 190.232C269.049 189.915 272.843 189.649 275.643 189.038C276.43 188.864 277.133 188.669 277.686 188.435C276.465 189.881 279.032 188.587 282.109 188.237C281.8 188.535 282.109 188.473 279.96 188.844C280.674 189.581 280.115 189.459 282.183 189.382C280.714 190.347 278.097 189.092 275.09 190.508C271.707 192.464 275.633 195.184 280.25 191.116C280.338 191.178 280.197 191.102 280.56 191.551C278.929 192.135 285.227 192.708 289.38 191.11C289.323 191.67 294.818 191.153 292.468 189.401C295.822 187.461 291.832 187.118 288.099 190.368C287.932 189.474 288.112 189.206 286.182 189.752C286.006 189.565 286.123 189.437 285.367 189.146C284.306 188.989 284.739 188.007 283.235 187.105C283.617 186.251 284.057 185.539 284.734 184.943C285.368 184.352 286.185 183.895 287.39 183.531C287.122 183.383 285.31 183.211 284.264 183.176C284.751 182.822 284.213 182.682 282.995 182.153C296.67 184.186 288.156 176.03 271.325 182.035C279.459 178.904 289.268 176.736 298.584 179.849C299.685 180.214 300.789 180.658 301.893 181.189C305.393 179.602 308.212 179.98 312.587 179.668C314.539 179.86 316.853 177.013 316.066 175.131C315.672 174.116 314.376 173.401 311.695 173.578C313.168 172.89 317.433 175.21 315.712 171.591C315.509 173.797 312.957 169.308 312.265 170.695C311.613 170.526 313.79 168.792 312.238 168.94C312.374 168.362 312.558 168.606 311.971 167.761C312.418 167.759 314.924 166.45 313.752 166.342C314.93 165.341 313.78 164.979 314.905 163.051C316.789 156.235 313.491 161.676 306.232 161.845C306.08 161.806 306.629 160.996 305.71 161.001C304.628 158.776 308.025 158.178 309.533 156.397L309.543 156.36C307.979 156.465 309.077 156.341 306.949 155.253C307.344 155.355 308.996 154.635 307.594 154.625C308.377 153.262 300.1 149.152 299.311 152.828C298.043 152.892 296.683 153.169 295.127 155.245C290.503 154.461 290.429 160.047 284.478 161.627C275.307 161.78 275.33 164.872 268.168 168.775C269.418 165.573 265.73 171.394 266.221 165.915C266.237 165.565 266.822 165.064 267.65 164.507C267.971 164.315 268.291 164.099 268.641 163.891C271.727 162.039 276.069 159.845 271.23 159.635C271.18 159.582 271.137 159.532 271.067 159.49C271.164 159.374 271.248 159.277 271.331 159.181C271.062 159.127 271.103 159.066 270.085 158.959C270.454 158.008 270.567 158.037 268.591 156.753C270.39 155.417 268.311 152.743 264.962 153.196C265.713 152.856 267.687 152.062 269.513 150.481C268.764 150.223 268.65 150.194 267.968 150.221C270.672 147.814 277.824 147.239 283.673 145.94C285.048 146.517 289.51 146.684 285.764 143.987C286.52 144.042 286.763 145.396 288.255 145.61C288.734 145.876 288.979 145.578 290.503 145.029C291.038 146.357 295.477 145.723 297.16 144.656C298.224 144.657 298.48 144.464 300.262 144.454C298.15 145.071 295.122 145.89 292.108 146.832C292.806 146.895 293.498 146.917 294.051 147.179C294.041 147.215 293.526 147.373 292.867 147.848C293.462 148.577 296.25 147.656 298.394 147.362C296.217 149.332 304.594 149.524 300.358 147.809C300.489 147.686 300.731 147.867 301.533 147.406C301.433 147.12 301.582 145.994 300.642 145.694C301.018 144.981 300.982 145.405 301.52 144.513C300.991 144.517 300.714 145.374 299.668 145.457C300.154 145.166 300.312 145.27 300.906 144.59C300.85 144.559 300.902 144.605 300.63 144.416C300.985 144.248 300.991 143.754 301.968 144.07C301.893 144.193 301.717 144.596 302.419 144.581C301.099 144.774 302.992 147.242 302.859 144.696C303.218 144.805 303.15 145.346 304.104 144.539C304.834 145.366 308.646 145.325 310.331 143.283C310.798 143.443 313.904 142.904 312.941 142.126C312.911 141.559 313.551 141.773 314.504 141.556C314.783 142.163 315.9 142.792 316.995 142.738C317.037 142.733 317.066 142.717 317.104 142.727C317.647 142.671 318.163 142.451 318.578 141.976C318.881 142.291 318.622 142.169 319.241 142.605C319.022 142.721 317.89 143.144 318.959 143.185C318.928 143.296 318.954 143.263 319.267 143.541C319.234 143.572 319.225 143.546 318.958 143.776C319.122 143.858 318.943 143.772 319.569 143.856C318.964 143.958 315.762 144.41 318.874 144.58C318.061 144.787 318.232 145.784 319.597 144.989C319.486 145.157 319.434 145.049 319.079 145.689C317.194 144.9 318.434 148.111 319.87 145.414C319.88 145.613 319.638 145.81 320.321 145.925C319.229 148.908 316.308 145.811 314.179 148.785C311.715 149.059 309.048 146.516 305.997 148.621C306.41 150.153 306.008 148.875 308.169 149.696C309.415 149.241 309.864 150.79 311.406 149.648C311.491 149.93 310.464 150.765 311.788 150.322C311.679 150.805 311.552 150.442 311.844 151.383C310.62 152.435 311.39 154.233 314.752 155.642C318.684 158.782 316.238 154.265 317.026 153.265C318.58 153.928 319.109 159.624 321.461 154.495C321.387 155.878 323.199 155.522 322.547 153.298C323.873 155.083 322.612 150.976 321.941 150.526C324.34 149.897 324.572 150.115 325.314 153.103C327.469 152.238 336.263 153.097 328.156 147.842C327.836 147.444 328.186 147.794 326.975 146.945C327.773 146.498 328.554 146.843 330.151 146.62C330.353 146.476 328.878 146.289 329.199 145.774C330.263 146.862 330.95 144.67 329.284 145.025C329.537 144.933 329.878 144.786 330.134 144.537C330.153 144.322 329.035 144.37 328.279 143.284C329.116 143.226 327.318 141.53 326.115 142.682C326.248 142.26 327.656 141.398 325.626 140.453C329.997 138.833 318.2 138.201 324.882 140.118C324.159 140.151 321.053 140.076 321.019 139.847C326.971 137.968 317.023 136.849 314.897 139.603C314.448 137.762 318.237 138.156 320.326 137.565C318.29 136.878 314.833 136.516 310.041 138.279C310.224 138.94 310.657 137.903 311.805 139.154C308.445 137.415 307.652 140.429 313.527 141.066C313.906 141.778 313.194 141.593 310.765 140.569C310.653 140.737 309.302 140.543 309.514 141.771C308.448 141.927 307.774 141.28 306.034 141.875C305.889 141.578 303.797 141.829 304.212 142.473C303.911 142.536 303.011 142.617 302.179 142.661C302.458 142.001 302.36 141.858 303.734 141.325C303.75 141.471 304.028 141.377 304.076 141.791C304.658 141.447 306.019 141.107 305.847 139.968C305.04 140.153 304.254 139.972 302.022 140.935C302.282 140.672 303.988 139.289 304.017 140.21C304.672 139.986 305.046 140.398 304.832 139.114C304.393 138.937 304.598 139.227 303.465 139.035C303.719 138.762 304.087 139.078 304.851 138.663C305.52 139.269 307.133 137.87 307.482 136.756C310.03 136.323 312.168 137.02 316.201 136.328C315.07 135.892 313.985 134.587 311.677 135.389C309.146 135.464 305.853 136.506 302.389 137.196C302.423 137.221 302.484 137.237 302.522 137.247C301.862 137.138 298.978 137.932 301.429 138.467C301.463 138.491 301.105 138.524 301.353 138.801C300.311 138.869 300.276 138.702 298.65 138.973C298.712 139.131 298.883 139.246 299.006 139.301C297.218 139.923 295.844 139.134 293.529 140.194C293.533 140.092 293.548 140.183 293.482 139.922C293.299 140.055 293.097 140.199 292.879 140.34C293.081 140.14 293.214 140.009 294.619 139.13C294.289 139.383 293.91 139.639 293.557 139.886C293.749 139.778 294.814 139.48 296.161 139.192C296.039 139.105 295.961 139.18 295.417 138.857C296.258 139.076 303.351 137.95 298.98 137.925C298.818 136.954 297.853 136.979 296.315 137.902C296.496 137.776 296.698 137.631 296.896 137.502C296.109 137.675 293.014 137.21 295.308 138.223C293.539 138.275 289.879 139.678 288.235 137.134C288.174 137.118 287.561 137.281 287.331 136.938C287.342 136.839 289.066 137.153 288.392 136.182C288.449 136.213 288.544 136.222 288.617 136.044C287.896 136.274 285.144 134.654 283.859 136.335C283.146 135.977 281.731 137.247 280.776 136.999C281.154 136.955 282.467 136.053 281.664 135.844C284.664 135.332 280.166 135.943 277.395 134.656C277.914 133.72 279.845 135.608 280.662 133.56C278.688 133.386 279.041 131.14 276.377 131.258C276.62 131.203 276.878 131.152 277.778 131.008C276.972 130.311 274.37 131.351 274.21 130.9C275.056 130.427 274.375 131.274 277.02 129.843C276.226 129.896 275.931 130.316 273.503 130.079C273.637 130.035 273.764 130.107 274.802 129.905C273.742 129.511 272.109 129.599 269.514 129.381C269.552 129.391 269.698 129.39 269.796 129.242C269.346 129.164 269.762 129.217 268.694 129.231C268.962 128.907 267.799 129.298 267.665 129.106C267.18 128.862 266.491 129.651 265.027 129.129C265.191 128.597 265.478 128.671 266.606 128.295C266.038 128.203 264.398 126.588 264.417 126.695L264.27 126.696C264.34 126.502 264.401 126.809 264.797 126.259C264.047 125.946 264.843 126.388 263.323 125.891C263.912 125.966 265.469 125.299 263.726 125.461C263.899 125.364 265.097 125.085 263.667 125.146C265.863 124.725 262.983 125.126 262.198 124.702C260.137 124.607 257.614 125.038 253.141 124.884C252.009 124.984 249.203 125.467 246.542 126.516C246.557 126.52 246.643 126.503 246.815 126.469C246.107 126.679 244.833 127.206 243.723 126.87C245.192 126.583 243.937 126.832 245.489 126.479C245.165 126.473 244.952 126.276 243.256 126.71C243.277 126.636 243.241 126.706 243.48 126.547C241.715 126.821 239.716 127.176 236.998 128.194C237.42 128.138 237.027 128.178 238.082 128.121C237.961 128.208 237.705 128.165 237.188 128.479C237.527 128.426 237.392 128.415 239.017 128.207C239.055 128.217 239.084 128.2 239.126 128.196C239.084 128.2 239.04 128.213 238.996 128.225C237.072 128.693 235.85 129.03 232.979 129.457C233.033 129.408 233.262 129.373 233.821 129.14C233.497 129.198 233.086 129.304 232.751 129.398L232.761 129.361C230.291 130.042 229.127 130.314 224.388 132.154C224.573 132.1 224.79 132.022 224.971 131.983C224.722 132.06 224.492 132.157 224.246 132.227C222.614 132.811 220.912 133.503 218.398 134.55C218.327 134.571 218.258 134.616 218.143 134.649C218.005 134.708 217.832 134.805 217.625 134.908C218.097 134.756 217.969 134.778 219.229 134.333C219.325 134.279 219.44 134.246 219.545 134.218C219.382 134.279 219.405 134.284 219.229 134.333C219.118 134.383 218.88 134.479 218.424 134.659C218.634 134.635 218.428 134.645 219.07 134.528C218.21 134.816 215.311 135.787 212.806 137.003L213.122 136.888C213.122 136.888 213.137 136.892 213.001 136.975C213.608 136.778 214.179 136.415 216.804 135.703L216.796 135.819C216.656 135.885 216.474 135.956 215.609 136.266C215.65 136.175 215.594 136.262 215.85 136.069C215.045 136.396 214.397 136.448 212.581 137.495C212.686 137.468 212.935 137.391 213.59 137.104C213.586 137.119 213.606 137.108 213.463 137.213L213.457 137.235L213.478 137.217C213.583 137.189 214.052 137.051 214.637 136.786C214.627 136.822 214.66 136.791 214.591 136.892C215.231 136.782 215.639 136.628 217.281 135.945L217.227 135.994C217.456 135.99 218.383 135.72 219.394 135.234C218.68 135.379 218.645 135.213 216.732 135.991C218.201 135.263 220.282 134.756 222.489 133.999L222.504 134.003C222.59 133.986 222.817 134.045 223.612 133.755C223.581 133.81 223.623 133.774 223.5 133.868C223.802 133.891 224.766 133.488 226.161 133.173C226.08 133.231 225.983 133.23 225.697 133.383C226.101 133.331 226.001 133.163 227.916 132.818C226.468 133.237 224.059 133.753 221.395 134.667C221.894 135.151 223.711 134.104 224.851 134.416C225.093 134.361 225.395 134.297 225.619 134.222C225.27 134.367 225.556 134.245 224.788 134.643C225.686 134.656 226.966 133.784 229.908 133.281C229.047 133.868 228.921 133.442 226.477 134.468C227.25 134.315 226.715 134.428 228.7 133.975C228.293 134.184 228.568 133.925 227.442 134.475C227.559 134.489 227.479 134.484 227.788 134.486C227.277 134.865 227.415 134.57 225.925 135.23C225.817 135.415 229.833 134.167 227.339 136.109L228.158 135.967C226.97 136.415 226.16 137.055 224.682 138.112L224.605 138.155C224.575 138.265 219.514 139.942 220.143 140.105C219.584 140.338 219.561 140.214 217.345 141.355C217.481 141.453 217.347 141.497 217.758 141.36C216.339 141.999 215.051 142.515 212.844 143.831C213.486 143.801 212.976 143.881 214.365 143.352C214.312 143.456 214.271 143.312 213.983 143.765C215.064 143.408 216.135 142.914 218.723 141.689C217.835 142.167 215.382 143.435 213.5 144.395L213.816 144.28C211.094 145.636 207.832 147.536 204.224 149.866C203.971 149.958 203.829 149.882 202.859 150.661L203.336 150.785C193.007 157.274 171.75 167.452 160.383 181.545C159.13 182.668 160.099 181.455 156.04 186.534C155.872 186.845 155.343 186.849 154.439 188.417C154.423 188.476 154.443 188.402 154.337 188.784C156.093 193.303 146.097 198.941 145.973 205.09C145.865 205.038 145.739 204.966 145.629 204.922C146.407 205.281 145.055 207.646 143.209 207.245C142.509 207.103 140.53 211.675 141.487 213.034C142.83 214.902 138.278 218.357 137.724 221.417C137.724 221.417 137.772 221.391 137.907 221.284L137.917 221.452L138.042 221.382C139.127 221.365 135.266 228.754 137.776 226.344C139.511 220.653 144.107 212.958 146.534 205.235L146.959 205.401C147.932 202.528 149.043 201.093 152.003 197.846C152.332 197.892 151.29 198.81 152.68 198.66C152.651 198.707 151.351 200.149 152.502 199.598C152.068 200.138 149.717 203.385 148.376 205.651C147.885 205.957 147.842 206.024 146.773 207.455C147.039 207.461 147.009 207.571 147.523 207.327C144.477 218.495 141.099 228.805 136.778 242.059C136.936 241.722 137.107 241.397 137.258 241.058C137.076 245.183 141.402 259.912 146.822 257.58C147.721 256.767 149.482 257.185 149.985 259.213C150.54 263.199 151.118 267.309 154.614 270.115C155.974 270.13 156.306 273.601 158.776 271.834C157.998 273.238 158.49 277.893 160.339 280.577C159.399 282.215 158.181 285.064 159.802 287.839C160.164 287.263 160.185 286.513 160.838 286.147C162.237 287.959 161.281 292.301 163.949 295.372C163.688 293.202 167.952 295.286 165.883 296.866C164.958 295.099 164.678 300.49 166.42 297.423C166.496 297.38 166.396 297.653 166.988 297.57C166.807 299.342 171.103 301.371 169.511 295.612C170.657 295.374 170.55 296.055 172.05 294.035C173.841 291.847 176.595 302.656 174.294 306.837C173.928 308.104 174.705 312.668 172.707 311.992C171.755 312.555 172.716 314.309 173.538 314.979C172.892 316.874 169.844 316.972 169.072 320.353C168.123 320.083 167.735 320.754 168.4 322.257C165.808 322.261 164.512 323.688 164.046 327.96C162.8 328.707 161.401 333.092 163.796 336.091C156.972 346.002 170.411 367.869 176.957 380.915C179.311 385.62 181.877 388.09 184.302 390.247C188.779 394.236 192.8 397.171 194.166 411.24C194.313 413.381 194.684 415.508 195.185 417.662C197.444 427.295 202.577 436.871 203.985 445.969C205.512 448.262 206.778 449.087 208.45 452.057L208.413 452.047C208.566 453.197 209.456 454.617 210.976 456.083C210.926 456.03 210.79 455.932 210.618 455.911C211.311 456.429 211.348 458.439 213.494 459.256C213.196 458.131 213.193 459.021 211.693 456.017C212.733 456.248 213.134 458.47 214.498 459.533C214.48 459.685 215.208 460.725 215.671 461.782C215.151 461.371 215.741 461.761 214.05 460.33C214.825 461.523 215.866 463.455 217.501 465.501C217.501 465.501 217.378 465.272 217.338 465.065C217.487 465.261 217.996 465.945 218.535 465.376L218.467 465.036C218.815 465.48 219.298 465.787 220.032 466.922C219.972 466.907 219.966 466.811 219.101 466.444C219.147 466.511 219.063 466.434 219.466 466.972C219.451 466.968 219.41 466.942 219.331 466.874C220.112 469.219 224.019 471.422 226.138 473.657C226.139 473.595 226.148 473.621 226.157 473.442C226.157 473.442 226.197 473.531 226.609 473.953C226.604 473.912 226.635 473.944 226.48 473.683C226.637 473.763 226.529 473.712 226.898 473.934L226.921 473.939L226.925 473.925C227.002 474.087 227.247 474.024 227.646 474.49C227.494 474.451 227.586 474.412 227.052 474.257C227.117 474.258 227.249 474.662 227.594 474.736C227.69 474.683 228.289 475.248 228.335 475.023C228.358 475.029 228.406 475.207 228.667 475.291L228.671 475.276C228.785 475.305 228.683 475.381 229.36 475.809C229.349 475.791 229.359 475.754 229.376 475.695C229.475 475.776 229.416 475.784 229.786 475.975L229.768 475.892C229.728 475.802 230.01 476.191 230.565 476.476L230.822 476.661L230.798 476.6L231.105 476.814C231.105 476.814 231.082 476.808 231.096 476.756C231.19 476.859 231.082 476.808 231.468 476.971C231.571 477.037 231.518 477.023 231.824 477.181C231.824 477.181 231.779 477.107 231.728 476.999C232.149 477.266 231.914 477.205 232.764 477.685C232.758 477.621 232.79 477.653 232.687 477.524C233.296 477.997 234.197 478.349 235.152 478.802L234.834 478.483C235.004 478.543 235.417 479.107 235.854 479.142C235.747 478.941 235.844 479.178 235.241 478.628C235.294 478.642 235.497 478.876 235.505 478.555C235.57 478.611 235.752 478.776 235.799 478.458C230.262 475.162 224.264 467.801 224.506 461.904C224.129 461.562 223.576 461.418 223.276 460.947C226.495 461.405 223.793 461.719 221.194 457.312C221.697 457.639 222.889 458.35 223.761 458.514C224.931 458.779 225.526 458.122 223.085 454.378C231.433 458.468 231.214 451.12 225.961 446.118C228.442 447.338 236.365 453.112 236.36 443.08C236.961 442.465 237.023 440.623 239.101 440.627C236.981 448.65 243.146 432.191 245.877 428.452C246.38 428.425 248.792 426.398 251.469 427.936C251.64 426.437 251.444 427 254.931 426.048C258.857 427.21 261.713 428.046 263.9 422.717C269.743 419.149 265.63 406.263 274.506 401.916C291.682 393.489 298.868 381.475 287.514 377.038L287.581 377.032ZM310.244 173.627C310.758 173.327 310.496 173.834 311.111 173.812C310.497 173.976 309.138 174.308 308.543 173.877C309.131 173.834 309.672 173.699 310.244 173.627ZM294.482 142.945C294.766 143.034 295.201 143.076 295.562 143.241C295.997 143.37 296.319 143.674 296.243 144.331C295.687 144.344 294.817 144.024 295.697 143.339C295.646 143.287 295.622 143.257 295.562 143.241C295.372 143.192 295.013 143.374 294.194 142.87L294.482 142.945ZM185.286 213.916C185.678 213.38 185.925 213.806 186.09 214.621C185.803 214.483 185.864 214.704 185.244 213.921L185.286 213.916ZM162.34 281.506C162.118 281.929 161.811 280.542 160.451 280.583C160.598 280.141 161.414 274.456 162.367 281.498L162.348 281.508L162.34 281.506ZM194.786 293.344C194.39 294.926 197.019 297.372 193.693 298.917C192.063 298.321 192.751 295.389 194.786 293.344ZM309.565 156.428C309.504 156.649 309.636 156.463 309.565 156.428V156.428Z" fill="url(#paint0_radial_54738_243221)"/>
<path d="M421.817 166.409C421.876 166.439 421.89 166.443 421.876 166.439L421.805 166.398C421.805 166.398 421.812 166.4 421.819 166.402L421.817 166.409Z" fill="url(#paint1_linear_54738_243221)"/>
<path d="M451.735 198.58C444.254 188.17 435.422 178.108 425.166 168.431C424.794 168.098 424.375 167.73 423.813 167.271C424.153 167.634 423.949 167.361 424.752 168.103C424.796 168.178 424.894 168.258 425.05 168.416L424.915 168.326C425.181 168.608 424.964 168.379 425.596 168.99L425.46 168.901C425.575 169.009 425.43 169.066 426.227 169.831C425.71 169.643 425.409 169.085 424.212 168.083C424.521 168.557 424.502 168.481 425.345 169.368C425.303 169.318 425.216 169.256 425.114 169.191C425.525 169.872 425.174 169.348 426.198 170.597L426.063 170.562C426.365 171.058 427.242 171.741 428.298 173.045C428.275 173.04 428.125 173.001 427.788 172.773C427.255 172.154 426.95 172.297 425.997 171.082C426.008 171.101 426.062 171.138 426.159 171.163C425.782 170.648 424.435 169.466 422.974 168.776C423.789 169.679 424.477 169.974 426.161 171.732C426.15 171.713 426.105 171.702 426.067 171.692C427.588 173.116 427.597 172.795 429.114 174.517C428.058 173.671 429.049 174.461 427.451 173.317C428.03 174.634 429.926 176.375 431.154 177.897C431.097 178.159 427.663 175.14 429.123 176.864L429.086 176.854C429.276 177.321 430.081 177.685 431.747 179.162C429.06 178.236 426.849 174.892 423.542 172.339C427.696 175.109 429.772 174.947 423.1 169.818C423.094 169.84 423.131 169.85 423.169 170.002C421.708 169.169 420.648 167.966 418.06 166.829C418.125 166.941 418.008 166.871 418.462 167.343C417.929 167.009 417.261 166.301 416.016 165.469C416.077 165.682 416.021 165.509 416.288 165.933C415.95 165.704 415.385 166.262 415.104 165.172L415.239 165.206C414.672 164.421 414.109 164.34 412.604 163.378C412.643 163.467 412.679 163.539 412.724 163.606C412.508 163.433 412.148 163.198 411.599 162.923C411.585 162.975 411.928 163.126 412.533 164.118C412.138 163.78 412.446 163.914 411.417 163.058C412.001 163.897 412.352 164.419 412.472 164.623C411.906 164.036 412.563 164.583 410.776 162.736C410.789 162.834 410.761 162.732 410.87 163.06C410.768 162.994 410.708 162.979 410.353 162.73C410.688 163.195 410.515 162.953 411.265 163.8C411.082 163.651 411.28 163.804 410.77 163.476C410.77 163.476 410.744 163.509 410.77 163.618C410.672 163.396 410.333 163.088 409.701 163.249C409.75 163.42 410.128 163.532 410.983 164.233C410.865 164.14 410.652 163.983 410.445 164.292C410.283 164.211 410.38 164.236 409.993 163.956C410.206 164.286 410.149 164.059 410.827 165.164C409.852 163.801 408.598 163.661 410.76 165.975C410.129 165.419 408.929 164.574 410.7 166.536C410.635 166.48 410.502 166.383 410.103 166.059L410.33 166.536C410.185 166.538 410.022 165.628 409.329 165.64C408.863 165.639 407.251 165.865 407.841 166.71C408.312 167.407 409.925 170.22 410.733 167.476C411.617 168.278 411.953 170.03 413.058 171.876C412.966 171.773 413.031 171.829 412.744 171.622C412.816 171.995 413.813 172.851 414.048 173.961C413.988 173.945 413.981 173.825 413.744 173.67L414.012 174.172L413.541 174.107C414.098 174.352 414.791 175.777 414.237 176.093C414.331 176.417 414.271 176.259 414.538 176.967C414.067 176.846 414.518 177.041 413.645 176.257C413.594 176.583 413.733 176.318 413.924 177.125C413.795 177.068 413.764 176.981 413.188 176.455C413.319 177.222 413.653 176.89 414.394 178.429C414.167 178.292 414.344 178.377 413.516 177.809C413.67 178.204 413.503 177.94 414.006 178.724C413.919 178.805 413.847 178.431 413.459 178.584C413.474 178.588 413.416 178.739 413.506 179.133C413.41 179.045 413.448 179.055 413.167 178.825C413.151 178.939 413.24 178.765 412.969 179.445C412.835 179.292 412.965 179.404 412.527 179.016C412.772 179.434 413.037 179.92 413.343 180.433C414.418 182.358 415.776 184.789 417.35 186.882C417.366 186.823 417.345 186.897 417.45 186.608C417.526 186.682 417.521 186.642 417.948 187.067C417.229 187.025 421.352 193.717 422.475 188.504C422.404 188.186 422.313 187.792 422.194 187.501C424.403 190.135 425.909 191.61 428.751 196.111L428.557 195.998C428.523 196.266 428.503 196.624 428.553 196.873C426.926 195.201 428.876 200.05 430.484 200.786C431.247 199.726 430.023 199.91 429.958 197.991C430.851 198.615 432.582 200.432 431.287 197.061C432.02 197.052 431.4 197.027 432.605 197.399C432.598 197.279 432.696 197.304 432.45 196.807C432.499 196.859 432.628 196.971 432.839 197.222C432.772 197.032 432.522 195.689 431.589 194.203C431.587 194.439 431.627 194.726 431.666 194.933C430.746 193.403 430.796 193.281 429.327 190.585C429.588 190.454 429.338 190.603 429.716 189.769C429.855 189.789 429.813 189.652 430.034 189.866C429.743 188.182 428.128 186.954 426.519 185.39C425.813 184.727 425.133 184.001 424.562 183.144L424.681 183.151C423.366 180.651 422.052 177.315 420.968 174.046C421.765 174.527 421.96 174.261 423.477 175.984C423.172 175.78 423.477 175.984 422.686 175.339C423.407 176.661 423.817 176.86 424.571 179.358C424.496 179.339 424.523 179.385 424.399 179.314C425.567 181.476 427.585 184.219 430.278 186.874C430.321 186.949 430.357 187.021 430.401 187.064C430.678 187.451 431.071 187.567 431.545 187.594C432.767 187.647 434.493 186.961 436.057 188.57C435.836 188.931 435.782 189.351 435.621 189.555C435.452 189.811 435.122 189.758 434.135 188.953C434.136 189.095 434.113 189.263 434.091 189.399C433.914 189.314 433.727 189.408 433.518 189.923C433.594 190.227 433.811 190.598 433.963 190.858C433.849 190.75 433.707 190.626 433.576 190.522C433.854 191.619 433.26 191.79 434.789 193.469C434.783 193.404 434.587 192.817 434.925 192.612C434.828 192.327 434.635 191.985 434.49 191.727C435.177 192.085 434.607 191.741 435.875 192.776C435.875 192.776 435.852 192.715 435.814 192.564C436.099 193.552 437.08 193.717 437.623 195.908C432.334 191.514 438.02 197.872 437.898 200.974C438.227 203.9 438.384 199.812 433.704 202.819C433.212 202.14 433.382 202.452 431.986 200.729C431.879 200.764 432.142 201.029 431.694 201.254C431.825 201.445 430.711 201.38 430.68 202.122C428.023 200.573 426.906 195.701 424.239 191.521C424.048 191.117 424.505 193.381 423.615 192.576C423.105 193.535 424.447 197.746 426.772 199.621C426.648 200.638 427.883 200.616 427.582 202.433C427.216 202.22 425.985 200.855 426.147 202.656C425.349 202.468 423.958 201.614 424.106 203.664L424.025 203.525C423.97 203.866 424.782 207.586 421.792 208.114C422.234 208.858 420.512 209.79 420.631 212.204C419.358 212.651 418.86 211.474 417.268 210.308C416.235 210.24 420.745 214.75 416.796 213.801C416.289 213.229 416.695 213.215 413.741 212.954C412.305 214.038 415.214 215.637 417.587 217.453C417.587 217.453 417.651 217.453 417.882 217.347C417.888 217.467 425.318 229.813 419.326 229.507C416.391 229.607 411.445 225.482 407.947 227.308C407.828 230.11 407.1 239.276 407.952 244.947C407.979 246.746 405.814 249.142 411.517 248.245C416.06 253.869 411.427 252.523 422.37 252.377C423.178 251.93 422.449 250.29 425.015 250.215C424.055 248.682 426.415 247.74 426.482 246.266C423.846 243.925 426.225 239.531 430.725 237.252C429.044 232.876 430.769 232.047 436.451 234.12C437.953 226.148 441.137 237.429 441.71 236.384C442.461 237.373 443.01 238.88 444.411 239.87C444.586 241.051 445.931 242.012 447.596 243.347C448.713 245.78 452.337 248.035 452.459 251.783C452.883 254.512 449.76 253.135 448.36 253.234C448.262 253.066 448.349 253.215 448.072 252.742C447.352 254.798 454.525 264.301 452.387 254.361C452.388 254.416 452.659 254.967 453.123 255.26C453.304 255.046 453.084 254.54 453.432 253.927C453.474 253.922 453.395 253.917 453.63 254.08C453.844 253.661 453.307 253.2 453.628 251.996C455.421 250.869 451.604 249.417 452.622 246.3C452.942 246.304 452.645 247.135 453.844 247.324C458.965 251.4 442.919 235.076 441.914 228.631C443.348 227.61 442.899 228.726 444.709 231.352L444.783 230.858C444.705 231.138 446.238 232.715 445.647 231.301C448.957 237.942 454.564 239.822 456.871 249.103C456.815 249.072 456.942 249.137 456.608 248.893C456.851 250.407 458.647 251.934 459.869 254.851C459.858 254.833 459.844 254.742 459.916 254.54C460.007 254.445 460.416 254.849 460.906 255.133C461.304 255.377 461.761 255.549 462.117 255.341C462.559 255.912 461.855 256.189 463.558 256.76C463.499 256.626 463.585 256.806 463.111 255.69C463.327 255.92 463.236 255.959 464.04 256.757C463.584 254.202 460.703 251.932 459.61 247.548C462.282 250.853 459.315 245.365 462.83 246.803C462.866 247.965 463.891 247.115 464.064 249.306C463.72 248.957 463.757 252.636 465.191 253.422C465.254 252.768 465.046 252.651 465.011 251.687C465.112 252.186 465.718 252.744 465.54 254.325C465.518 254.319 465.549 254.208 465.443 254.158C465.447 254.198 465.364 254.153 465.376 254.598C465.376 254.598 465.24 254.508 464.903 254.335C464.96 255.423 464.652 254.373 465.529 256.2C465.55 256.126 465.591 255.979 465.496 255.458C465.777 255.83 465.524 256.017 466.239 256.934C466.239 256.934 466.227 256.892 466.288 256.671C466.6 256.79 466.532 257.175 467.169 257.339C467.094 257.32 467.015 257.315 466.903 257.286L466.999 257.745C466.999 257.745 466.73 257.502 466.443 257.066C466.557 257.316 465.976 257.498 466.922 258.538C466.955 258.562 466.856 258.427 467.027 258.391C467.214 258.439 466.831 259.233 467.745 259.87C467.663 260.306 467.469 260.912 467.646 262.543C467.882 261.933 467.721 262.563 467.988 260.666C468.025 260.675 468.027 260.755 468.449 260.682L468.446 261.036L468.348 260.956C468.376 261.057 467.769 261.36 468.32 262.259C469.132 262.112 468.528 261.002 469.005 264.715C469.319 264.598 469.05 263.037 469.212 261.596C469.328 261.901 469.208 261.61 469.636 262.462L469.835 262.095C469.851 263.33 471.973 267.307 471.448 261.956C472.373 261.893 472.794 265.379 474.251 264.703C474.307 264.733 474.274 264.764 474.451 264.793C474.489 264.227 474.463 263.289 474.516 262.466C474.727 262.86 475.46 264.058 475.352 262.578C475.952 267.143 479.618 277.704 476.779 282.279C476.285 284.331 475.234 277.937 474.006 281.805C473.952 281.767 473.997 281.779 473.862 281.689C473.638 281.687 474.004 281.986 473.082 283.099C469.857 281.656 460.318 265.376 461.945 281.553C461.745 286.166 453.381 273.004 446.936 268.037C444.924 267.939 447.168 260.93 446.034 255.975C444.523 255.809 442.42 254.749 439.378 255.145C438.69 255.939 438.584 252.794 437.925 254.772C437.807 255.539 436.303 254.001 436.167 255.947C433.518 250.185 424.131 259.135 420.685 256.444C417.602 259.228 414.811 249.382 413.328 256.199C412.832 258.77 409.89 259.902 406.473 262.356C402.996 265.197 407.266 272.567 398.424 276.763C394.013 277.376 390.05 282.097 386.4 288.705C385.185 289.72 376.015 299.616 379.21 300.735C382.775 310.796 369.448 322.547 370.879 333.15C370.587 335.482 373.61 334.205 373.469 336.6C373.627 340.507 377.286 342.637 376.443 347.48C375.741 352.595 379.876 357.412 382.859 362.699C384.392 363.85 382.877 369.057 387.996 367.434C396.797 362.84 397.977 372.731 408.746 366.962C409.369 367.832 411.933 365.814 413.513 366.164C423.546 365.659 412.096 377.504 424.694 375.321C424.586 375.79 423.966 378.922 425.528 377.673C424.338 383.5 417.489 388.491 415.749 394.99C410.922 413.087 405.578 423.941 389.441 439.249C378.335 449.778 366.068 468.264 347.74 476.404C347.987 476.467 347.74 476.404 348.488 476.256C348.194 476.3 348.312 476.653 347.501 477.171C347.912 477.221 347.908 477.236 348.031 477.228C348.16 477.198 348.442 477.136 349.398 476.963C349.383 477.015 349.412 476.967 349.24 477.096C349.689 477.156 349.72 477.101 350.009 477.017C350.293 476.948 350.827 476.848 352.329 476.815C352.407 477.167 352.141 477.201 353.196 476.959C353.225 477.084 353.046 476.92 353.074 477.338C353.39 477.3 353.134 477.353 354.489 477.045L354.562 477.301C361.413 476.201 379.538 469.019 385.533 465.04C385.529 465.055 385.576 464.972 385.444 465.017C392.55 461.859 397.869 459.206 405.966 452.081L405.956 452.118C425.701 442.676 439.006 423.58 453.123 405.308L453.123 405.363C455.171 402.811 461.659 392.629 461.477 392.621C469.13 382.754 489.005 338.59 484.805 288.338C482.14 256.458 471.664 226.269 451.706 198.541L451.735 198.58ZM467.426 257.397C467.463 257.406 467.523 257.422 467.58 257.42C467.532 257.448 467.516 257.42 467.426 257.397Z" fill="url(#paint2_radial_54738_243221)"/>
<path d="M422.961 167.48C423.332 167.83 423.687 168.183 424.058 168.532C424.426 168.864 424.763 169.165 425.107 169.467C424.603 168.926 424.246 168.699 424.204 168.617C423.325 167.74 423.136 167.605 422.961 167.48Z" fill="url(#paint3_linear_54738_243221)"/>
<path d="M421.824 166.415C421.767 166.385 421.67 166.328 421.517 166.209C421.671 166.352 421.511 166.231 421.981 166.662C421.558 166.323 421.369 166.044 420.098 165.178C420.442 165.481 421.041 166.031 422.492 167.151L422.5 167.121C422.725 167.33 422.828 167.396 422.937 167.471C422.557 167.12 422.205 166.759 421.818 166.406L421.824 166.415Z" fill="url(#paint4_linear_54738_243221)"/>
<g opacity="0.32">
<path d="M204.898 290.564C204.898 289.886 205.44 289.336 206.107 289.336H223.032C223.7 289.336 224.241 289.886 224.241 290.564V305.301C224.241 305.979 223.7 306.529 223.032 306.529H206.107C205.44 306.529 204.898 305.979 204.898 305.301V290.564Z" fill="#15C1E6"/>
<path fill-rule="evenodd" clip-rule="evenodd" d="M209.211 287.081C209.211 284.159 211.624 281.789 214.601 281.789C217.578 281.789 219.992 284.159 219.992 287.081V292.196C219.992 292.845 219.456 293.372 218.794 293.372C218.132 293.372 217.596 292.845 217.596 292.196V287.081C217.596 285.458 216.255 284.141 214.601 284.141C212.947 284.141 211.607 285.458 211.607 287.081V293.55C211.607 294.2 211.07 294.726 210.409 294.726C209.747 294.726 209.211 294.2 209.211 293.55V287.081Z" fill="#15C1E6"/>
<path d="M212.445 295.955C212.445 294.681 213.478 293.648 214.752 293.648C216.026 293.648 217.059 294.681 217.059 295.955C217.059 297.229 216.026 298.262 214.752 298.262C213.478 298.262 212.445 297.229 212.445 295.955Z" fill="#092349"/>
<path d="M213.598 295.956C213.598 295.319 214.114 294.803 214.751 294.803C215.388 294.803 215.905 295.319 215.905 295.956V300.57C215.905 301.207 215.388 301.196 214.751 301.196C214.114 301.196 213.598 301.207 213.598 300.57V295.956Z" fill="#092349"/>
</g>
<g opacity="0.5">
<g filter="url(#filter0_dd_54738_243221)">
<rect x="133.973" y="352.848" width="129.501" height="40.8425" rx="7.96927" fill="url(#paint5_linear_54738_243221)"/>
<rect x="133.334" y="352.209" width="130.778" height="42.1194" rx="8.60772" stroke="url(#paint6_linear_54738_243221)" stroke-width="1.27689"/>
</g>
<path fill-rule="evenodd" clip-rule="evenodd" d="M149.648 377.944C147.931 376.228 146.869 373.857 146.869 371.238C146.869 366.001 151.115 361.756 156.352 361.756C161.589 361.756 165.834 366.001 165.834 371.238C165.834 373.857 164.772 376.228 163.056 377.944L163.057 377.945L156.352 384.651L149.647 377.945L149.648 377.944Z" fill="#15C1E6"/>
<path d="M177.313 370.47H175.923V369.423H178.66V376.799H177.313V370.47ZM181.569 375.281C181.932 375.548 182.499 375.837 183.226 375.837C183.771 375.837 184.199 375.719 184.509 375.345C184.861 374.928 185.043 374.19 185.043 373.218C184.829 373.624 184.263 374.169 183.119 374.169C181.964 374.169 180.842 373.41 180.842 371.903C180.842 370.47 181.847 369.316 183.482 369.316C184.733 369.316 185.385 369.925 185.727 370.449C186.037 370.909 186.358 371.817 186.358 373.015C186.358 374.329 186.069 375.388 185.503 376.029C185.011 376.606 184.22 376.927 183.269 376.927C182.029 376.927 181.302 376.435 181.045 376.232L181.569 375.281ZM184.893 371.764C184.893 371.026 184.412 370.353 183.525 370.353C182.638 370.353 182.168 371.026 182.168 371.764C182.168 372.501 182.638 373.186 183.525 373.186C184.412 373.186 184.893 372.587 184.893 371.764ZM190.468 376.916C188.971 376.916 187.731 376.168 187.731 374.736C187.731 373.848 188.298 373.186 189.142 372.94V372.908C188.608 372.705 187.956 372.159 187.956 371.251C187.956 369.989 189.142 369.316 190.468 369.316C191.793 369.316 192.98 369.989 192.98 371.251C192.98 372.159 192.328 372.705 191.793 372.908V372.94C192.638 373.186 193.204 373.848 193.204 374.736C193.204 376.168 191.964 376.916 190.468 376.916ZM190.468 372.437C191.13 372.437 191.612 372.063 191.612 371.422C191.612 370.791 191.13 370.385 190.468 370.385C189.805 370.385 189.324 370.791 189.324 371.422C189.324 372.063 189.805 372.437 190.468 372.437ZM190.468 375.826C191.195 375.826 191.804 375.398 191.804 374.629C191.804 373.859 191.227 373.41 190.468 373.41C189.709 373.41 189.131 373.859 189.131 374.629C189.131 375.398 189.741 375.826 190.468 375.826ZM195.711 376.916C195.197 376.916 194.845 376.617 194.845 376.125C194.845 375.623 195.197 375.324 195.711 375.324C196.202 375.324 196.566 375.623 196.566 376.125C196.566 376.617 196.202 376.916 195.711 376.916ZM200.804 375.762C201.446 375.762 202.226 375.388 202.226 374.383C202.226 373.389 201.52 372.95 200.687 372.95C200.195 372.95 199.703 373.111 199.361 373.335L198.73 372.961L199.425 369.423H203.348L203.338 370.567H200.302L199.949 372.213C200.302 372.063 200.74 371.967 201.189 371.967C202.536 371.967 203.637 372.854 203.637 374.404C203.637 376.018 202.279 376.916 200.751 376.916C199.35 376.916 198.399 375.944 198.217 375.687L198.955 374.81C199.329 375.281 199.96 375.762 200.804 375.762ZM206.571 370.47H205.181V369.423H207.918V376.799H206.571V370.47ZM211.361 376.916C210.848 376.916 210.495 376.617 210.495 376.125C210.495 375.623 210.848 375.324 211.361 375.324C211.853 375.324 212.216 375.623 212.216 376.125C212.216 376.617 211.853 376.916 211.361 376.916ZM214.885 370.47H213.495V369.423H216.232V376.799H214.885V370.47ZM218.254 373.121C218.254 371.187 219.173 369.316 221.236 369.316C223.299 369.316 224.208 371.187 224.208 373.121C224.208 375.056 223.299 376.927 221.236 376.927C219.162 376.927 218.254 375.056 218.254 373.121ZM222.797 373.1C222.797 371.593 222.305 370.513 221.236 370.513C220.167 370.513 219.665 371.593 219.665 373.1C219.665 374.597 220.167 375.687 221.236 375.687C222.305 375.687 222.797 374.597 222.797 373.1ZM225.057 373.121C225.057 371.187 225.977 369.316 228.04 369.316C230.103 369.316 231.012 371.187 231.012 373.121C231.012 375.056 230.103 376.927 228.04 376.927C225.966 376.927 225.057 375.056 225.057 373.121ZM229.6 373.1C229.6 371.593 229.109 370.513 228.04 370.513C226.971 370.513 226.468 371.593 226.468 373.1C226.468 374.597 226.971 375.687 228.04 375.687C229.109 375.687 229.6 374.597 229.6 373.1ZM233.074 376.916C232.561 376.916 232.208 376.617 232.208 376.125C232.208 375.623 232.561 375.324 233.074 375.324C233.566 375.324 233.929 375.623 233.929 376.125C233.929 376.617 233.566 376.916 233.074 376.916ZM238.167 375.762C238.809 375.762 239.589 375.388 239.589 374.383C239.589 373.389 238.884 372.95 238.05 372.95C237.558 372.95 237.066 373.111 236.724 373.335L236.093 372.961L236.788 369.423H240.712L240.701 370.567H237.665L237.312 372.213C237.665 372.063 238.103 371.967 238.552 371.967C239.899 371.967 241 372.854 241 374.404C241 376.018 239.643 376.916 238.114 376.916C236.713 376.916 235.762 375.944 235.58 375.687L236.318 374.81C236.692 375.281 237.323 375.762 238.167 375.762Z" fill="white"/>
<path d="M181.816 418.83C181.816 417.672 182.741 416.732 183.882 416.732H212.795C213.936 416.732 214.86 417.672 214.86 418.83V444.007C214.86 445.166 213.936 446.105 212.795 446.105H183.882C182.741 446.105 181.816 445.166 181.816 444.007V418.83Z" fill="#15C1E6"/>
<path fill-rule="evenodd" clip-rule="evenodd" d="M189.184 412.883C189.184 407.89 193.307 403.842 198.392 403.842C203.478 403.842 207.601 407.89 207.601 412.883V421.62C207.601 422.73 206.685 423.629 205.555 423.629C204.425 423.629 203.508 422.73 203.508 421.62V412.883C203.508 410.109 201.218 407.86 198.392 407.86C195.567 407.86 193.276 410.109 193.276 412.883V423.934C193.276 425.043 192.36 425.943 191.23 425.943C190.1 425.943 189.184 425.043 189.184 423.934V412.883Z" fill="#15C1E6"/>
<path d="M194.711 428.043C194.711 425.866 196.475 424.102 198.652 424.102C200.829 424.102 202.593 425.866 202.593 428.043C202.593 430.219 200.829 431.984 198.652 431.984C196.475 431.984 194.711 430.219 194.711 428.043Z" fill="#092349"/>
<path d="M196.68 428.043C196.68 426.955 197.562 426.072 198.65 426.072C199.739 426.072 200.621 426.955 200.621 428.043V435.925C200.621 437.013 199.739 436.994 198.65 436.994C197.562 436.994 196.68 437.013 196.68 435.925V428.043Z" fill="#092349"/>
</g>
<g opacity="0.3">
<g filter="url(#filter1_dd_54738_243221)">
<rect x="412.68" y="308.922" width="75.2707" height="23.7392" rx="4.63204" fill="url(#paint7_linear_54738_243221)"/>
<rect x="412.185" y="308.427" width="76.2602" height="24.7288" rx="5.12683" stroke="url(#paint8_linear_54738_243221)" stroke-width="0.98957"/>
</g>
<path fill-rule="evenodd" clip-rule="evenodd" d="M421.791 323.509C420.793 322.511 420.176 321.133 420.176 319.611C420.176 316.567 422.644 314.099 425.688 314.099C428.731 314.099 431.199 316.567 431.199 319.611C431.199 321.133 430.582 322.511 429.584 323.509L429.585 323.509L425.688 327.407L421.79 323.509L421.791 323.509Z" fill="#15C1E6"/>
<path d="M436.448 318.583H435.599V317.944H437.271V322.449H436.448V318.583ZM439.047 321.522C439.269 321.685 439.616 321.862 440.06 321.862C440.393 321.862 440.654 321.79 440.843 321.561C441.059 321.306 441.17 320.856 441.17 320.262C441.039 320.51 440.693 320.843 439.994 320.843C439.289 320.843 438.603 320.379 438.603 319.458C438.603 318.583 439.217 317.878 440.216 317.878C440.98 317.878 441.379 318.25 441.588 318.57C441.777 318.851 441.973 319.406 441.973 320.138C441.973 320.941 441.797 321.587 441.45 321.979C441.15 322.332 440.667 322.528 440.086 322.528C439.328 322.528 438.884 322.227 438.727 322.103L439.047 321.522ZM441.078 319.374C441.078 318.923 440.784 318.512 440.242 318.512C439.7 318.512 439.413 318.923 439.413 319.374C439.413 319.824 439.7 320.242 440.242 320.242C440.784 320.242 441.078 319.876 441.078 319.374ZM444.483 322.521C443.569 322.521 442.812 322.064 442.812 321.189C442.812 320.647 443.158 320.242 443.674 320.092V320.072C443.347 319.948 442.949 319.615 442.949 319.06C442.949 318.29 443.674 317.878 444.483 317.878C445.293 317.878 446.018 318.29 446.018 319.06C446.018 319.615 445.619 319.948 445.293 320.072V320.092C445.809 320.242 446.155 320.647 446.155 321.189C446.155 322.064 445.397 322.521 444.483 322.521ZM444.483 319.785C444.888 319.785 445.182 319.556 445.182 319.165C445.182 318.779 444.888 318.531 444.483 318.531C444.078 318.531 443.785 318.779 443.785 319.165C443.785 319.556 444.078 319.785 444.483 319.785ZM444.483 321.855C444.927 321.855 445.3 321.594 445.3 321.124C445.3 320.653 444.947 320.379 444.483 320.379C444.02 320.379 443.667 320.653 443.667 321.124C443.667 321.594 444.039 321.855 444.483 321.855ZM447.686 322.521C447.372 322.521 447.157 322.338 447.157 322.038C447.157 321.731 447.372 321.548 447.686 321.548C447.986 321.548 448.208 321.731 448.208 322.038C448.208 322.338 447.986 322.521 447.686 322.521ZM450.797 321.816C451.189 321.816 451.666 321.587 451.666 320.973C451.666 320.366 451.235 320.098 450.725 320.098C450.425 320.098 450.125 320.196 449.916 320.333L449.53 320.105L449.955 317.944H452.351L452.345 318.642H450.49L450.275 319.648C450.49 319.556 450.758 319.498 451.032 319.498C451.855 319.498 452.528 320.04 452.528 320.986C452.528 321.973 451.698 322.521 450.765 322.521C449.909 322.521 449.328 321.927 449.217 321.77L449.668 321.235C449.896 321.522 450.281 321.816 450.797 321.816ZM454.32 318.583H453.471V317.944H455.143V322.449H454.32V318.583ZM457.246 322.521C456.933 322.521 456.717 322.338 456.717 322.038C456.717 321.731 456.933 321.548 457.246 321.548C457.546 321.548 457.768 321.731 457.768 322.038C457.768 322.338 457.546 322.521 457.246 322.521ZM459.399 318.583H458.55V317.944H460.221V322.449H459.399V318.583ZM461.456 320.203C461.456 319.021 462.018 317.878 463.278 317.878C464.538 317.878 465.094 319.021 465.094 320.203C465.094 321.385 464.538 322.528 463.278 322.528C462.011 322.528 461.456 321.385 461.456 320.203ZM464.232 320.19C464.232 319.269 463.931 318.61 463.278 318.61C462.625 318.61 462.318 319.269 462.318 320.19C462.318 321.104 462.625 321.77 463.278 321.77C463.931 321.77 464.232 321.104 464.232 320.19ZM465.612 320.203C465.612 319.021 466.174 317.878 467.434 317.878C468.694 317.878 469.25 319.021 469.25 320.203C469.25 321.385 468.694 322.528 467.434 322.528C466.167 322.528 465.612 321.385 465.612 320.203ZM468.388 320.19C468.388 319.269 468.087 318.61 467.434 318.61C466.781 318.61 466.474 319.269 466.474 320.19C466.474 321.104 466.781 321.77 467.434 321.77C468.087 321.77 468.388 321.104 468.388 320.19ZM470.509 322.521C470.196 322.521 469.98 322.338 469.98 322.038C469.98 321.731 470.196 321.548 470.509 321.548C470.81 321.548 471.032 321.731 471.032 322.038C471.032 322.338 470.81 322.521 470.509 322.521ZM474.11 321.483H471.877V320.849L474.052 317.924H474.927V320.797H475.554V321.483H474.927V322.449H474.11V321.483ZM474.13 320.81V318.858L472.68 320.81H474.13ZM477.777 321.816C478.168 321.816 478.645 321.587 478.645 320.973C478.645 320.366 478.214 320.098 477.705 320.098C477.404 320.098 477.104 320.196 476.895 320.333L476.51 320.105L476.934 317.944H479.331L479.324 318.642H477.47L477.254 319.648C477.47 319.556 477.737 319.498 478.012 319.498C478.834 319.498 479.507 320.04 479.507 320.986C479.507 321.973 478.678 322.521 477.744 322.521C476.889 322.521 476.307 321.927 476.196 321.77L476.647 321.235C476.875 321.522 477.261 321.816 477.777 321.816Z" fill="white"/>
<path d="M440.488 348.264C440.488 347.591 441.026 347.045 441.689 347.045H458.494C459.157 347.045 459.695 347.591 459.695 348.264V362.898C459.695 363.571 459.157 364.117 458.494 364.117H441.689C441.026 364.117 440.488 363.571 440.488 362.898V348.264Z" fill="#15C1E6"/>
<path fill-rule="evenodd" clip-rule="evenodd" d="M444.77 344.808C444.77 341.906 447.166 339.553 450.122 339.553C453.078 339.553 455.475 341.906 455.475 344.808V349.886C455.475 350.531 454.942 351.054 454.285 351.054C453.628 351.054 453.096 350.531 453.096 349.886V344.808C453.096 343.196 451.764 341.888 450.122 341.888C448.48 341.888 447.148 343.196 447.148 344.808V351.231C447.148 351.876 446.616 352.399 445.959 352.399C445.302 352.399 444.77 351.876 444.77 351.231V344.808Z" fill="#15C1E6"/>
<path d="M447.98 353.619C447.98 352.354 449.006 351.328 450.271 351.328C451.536 351.328 452.562 352.354 452.562 353.619C452.562 354.884 451.536 355.91 450.271 355.91C449.006 355.91 447.98 354.884 447.98 353.619Z" fill="#092349"/>
<path d="M449.125 353.618C449.125 352.985 449.638 352.473 450.27 352.473C450.903 352.473 451.416 352.985 451.416 353.618V358.199C451.416 358.832 450.903 358.821 450.27 358.821C449.638 358.821 449.125 358.832 449.125 358.199V353.618Z" fill="#092349"/>
</g>
<g opacity="0.3">
<g filter="url(#filter2_dd_54738_243221)">
<rect x="385.262" y="138.777" width="76.5046" height="24.1284" rx="4.70798" fill="url(#paint9_linear_54738_243221)"/>
<rect x="384.767" y="138.283" width="77.4942" height="25.1179" rx="5.20276" stroke="url(#paint10_linear_54738_243221)" stroke-width="0.98957"/>
</g>
<path fill-rule="evenodd" clip-rule="evenodd" d="M394.52 153.605C393.506 152.591 392.879 151.19 392.879 149.643C392.879 146.549 395.387 144.041 398.48 144.041C401.574 144.041 404.082 146.549 404.082 149.643C404.082 151.19 403.455 152.591 402.441 153.605L402.442 153.605L398.481 157.566L394.519 153.605L394.52 153.605Z" fill="#15C1E6"/>
<path d="M413.403 148.971H412.425V148.234H414.352V153.428H413.403V148.971ZM416.4 152.359C416.656 152.547 417.055 152.75 417.567 152.75C417.951 152.75 418.252 152.667 418.47 152.404C418.719 152.11 418.847 151.591 418.847 150.906C418.696 151.192 418.297 151.576 417.492 151.576C416.679 151.576 415.888 151.041 415.888 149.98C415.888 148.971 416.596 148.158 417.748 148.158C418.628 148.158 419.088 148.587 419.329 148.956C419.547 149.28 419.773 149.92 419.773 150.763C419.773 151.689 419.569 152.434 419.17 152.886C418.824 153.292 418.267 153.518 417.597 153.518C416.724 153.518 416.212 153.172 416.031 153.029L416.4 152.359ZM418.741 149.882C418.741 149.363 418.403 148.889 417.778 148.889C417.153 148.889 416.822 149.363 416.822 149.882C416.822 150.402 417.153 150.883 417.778 150.883C418.403 150.883 418.741 150.462 418.741 149.882ZM420.764 152.803L422.563 151.139C422.977 150.755 423.353 150.326 423.353 149.814C423.353 149.295 423.022 148.964 422.435 148.964C421.78 148.964 421.411 149.378 421.163 149.656L420.711 149.062C420.877 148.821 421.411 148.158 422.51 148.158C423.617 148.158 424.332 148.768 424.332 149.686C424.332 150.575 423.632 151.23 423.308 151.538L422.149 152.622H424.55V153.428H420.892L420.764 152.803ZM426.285 153.511C425.924 153.511 425.675 153.3 425.675 152.953C425.675 152.6 425.924 152.389 426.285 152.389C426.631 152.389 426.887 152.6 426.887 152.953C426.887 153.3 426.631 153.511 426.285 153.511ZM427.723 150.838C427.723 149.476 428.37 148.158 429.823 148.158C431.276 148.158 431.915 149.476 431.915 150.838C431.915 152.201 431.276 153.518 429.823 153.518C428.362 153.518 427.723 152.201 427.723 150.838ZM430.922 150.823C430.922 149.762 430.576 149.001 429.823 149.001C429.07 149.001 428.716 149.762 428.716 150.823C428.716 151.877 429.07 152.645 429.823 152.645C430.576 152.645 430.922 151.877 430.922 150.823ZM433.368 153.511C433.006 153.511 432.758 153.3 432.758 152.953C432.758 152.6 433.006 152.389 433.368 152.389C433.714 152.389 433.97 152.6 433.97 152.953C433.97 153.3 433.714 153.511 433.368 153.511ZM435.223 152.803L437.022 151.139C437.436 150.755 437.813 150.326 437.813 149.814C437.813 149.295 437.481 148.964 436.894 148.964C436.239 148.964 435.87 149.378 435.622 149.656L435.17 149.062C435.336 148.821 435.87 148.158 436.97 148.158C438.076 148.158 438.791 148.768 438.791 149.686C438.791 150.575 438.091 151.23 437.767 151.538L436.608 152.622H439.01V153.428H435.351L435.223 152.803ZM440.744 153.511C440.383 153.511 440.135 153.3 440.135 152.953C440.135 152.6 440.383 152.389 440.744 152.389C441.091 152.389 441.346 152.6 441.346 152.953C441.346 153.3 441.091 153.511 440.744 153.511ZM442.6 152.803L444.399 151.139C444.813 150.755 445.189 150.326 445.189 149.814C445.189 149.295 444.858 148.964 444.271 148.964C443.616 148.964 443.247 149.378 442.999 149.656L442.547 149.062C442.713 148.821 443.247 148.158 444.346 148.158C445.453 148.158 446.168 148.768 446.168 149.686C446.168 150.575 445.468 151.23 445.144 151.538L443.985 152.622H446.386V153.428H442.728L442.6 152.803ZM449.122 152.698C449.574 152.698 450.123 152.434 450.123 151.726C450.123 151.026 449.626 150.718 449.039 150.718C448.693 150.718 448.347 150.831 448.106 150.989L447.662 150.725L448.151 148.234H450.914L450.906 149.039H448.768L448.52 150.198C448.768 150.093 449.077 150.025 449.393 150.025C450.342 150.025 451.117 150.65 451.117 151.742C451.117 152.878 450.161 153.511 449.084 153.511C448.098 153.511 447.428 152.826 447.3 152.645L447.82 152.028C448.083 152.359 448.527 152.698 449.122 152.698Z" fill="white"/>
<path d="M413.527 178.736C413.527 178.051 414.074 177.496 414.747 177.496H431.829C432.502 177.496 433.049 178.051 433.049 178.736V193.609C433.049 194.293 432.502 194.848 431.829 194.848H414.747C414.074 194.848 413.527 194.293 413.527 193.609V178.736Z" fill="#15C1E6"/>
<path fill-rule="evenodd" clip-rule="evenodd" d="M417.879 175.222C417.879 172.272 420.315 169.881 423.319 169.881C426.324 169.881 428.759 172.272 428.759 175.222V180.384C428.759 181.039 428.218 181.571 427.55 181.571C426.883 181.571 426.342 181.039 426.342 180.384V175.222C426.342 173.583 424.988 172.255 423.319 172.255C421.65 172.255 420.297 173.583 420.297 175.222V181.751C420.297 182.406 419.756 182.938 419.088 182.938C418.42 182.938 417.879 182.406 417.879 181.751V175.222Z" fill="#15C1E6"/>
<path d="M421.145 184.178C421.145 182.892 422.187 181.85 423.473 181.85C424.759 181.85 425.801 182.892 425.801 184.178C425.801 185.464 424.759 186.506 423.473 186.506C422.187 186.506 421.145 185.464 421.145 184.178Z" fill="#092349"/>
<path d="M422.309 184.178C422.309 183.535 422.83 183.014 423.473 183.014C424.116 183.014 424.637 183.535 424.637 184.178V188.834C424.637 189.477 424.116 189.466 423.473 189.466C422.83 189.466 422.309 189.477 422.309 188.834V184.178Z" fill="#092349"/>
</g>
<g opacity="0.7">
<g filter="url(#filter3_dd_54738_243221)">
<rect x="99.1133" y="158.465" width="109.142" height="34.4216" rx="6.71641" fill="url(#paint11_linear_54738_243221)"/>
<rect x="98.3778" y="157.729" width="110.613" height="35.8927" rx="7.45193" stroke="url(#paint12_linear_54738_243221)" stroke-width="1.47104"/>
</g>
<path fill-rule="evenodd" clip-rule="evenodd" d="M112.323 179.616C110.876 178.17 109.981 176.171 109.981 173.964C109.981 169.55 113.559 165.972 117.973 165.972C122.386 165.972 125.964 169.55 125.964 173.964C125.964 176.171 125.069 178.169 123.623 179.616L123.624 179.617L117.973 185.268L112.322 179.617L112.323 179.616Z" fill="#15C1E6"/>
<path d="M137.366 177.549L139.756 175.339C140.306 174.829 140.806 174.259 140.806 173.579C140.806 172.889 140.366 172.449 139.586 172.449C138.716 172.449 138.226 172.999 137.896 173.369L137.296 172.579C137.516 172.259 138.226 171.379 139.686 171.379C141.156 171.379 142.106 172.189 142.106 173.409C142.106 174.589 141.176 175.459 140.746 175.869L139.206 177.309H142.396V178.379H137.536L137.366 177.549ZM143.37 174.939C143.37 173.129 144.23 171.379 146.16 171.379C148.091 171.379 148.941 173.129 148.941 174.939C148.941 176.749 148.091 178.499 146.16 178.499C144.22 178.499 143.37 176.749 143.37 174.939ZM147.621 174.919C147.621 173.509 147.161 172.499 146.16 172.499C145.16 172.499 144.69 173.509 144.69 174.919C144.69 176.319 145.16 177.339 146.16 177.339C147.161 177.339 147.621 176.319 147.621 174.919ZM153.675 174.799C154.235 174.929 154.975 175.399 154.975 176.389C154.975 177.709 153.825 178.489 152.415 178.489C151.105 178.489 150.215 177.579 150.045 177.339L150.735 176.519C151.085 176.959 151.675 177.409 152.465 177.409C153.255 177.409 153.685 177.069 153.685 176.339C153.685 175.619 153.025 175.289 152.315 175.289H151.855V174.339H152.415C153.055 174.339 153.495 173.999 153.495 173.369C153.495 172.819 153.065 172.449 152.365 172.449C151.745 172.449 151.255 172.709 150.925 173.119L150.275 172.389C150.595 171.999 151.385 171.379 152.475 171.379C153.755 171.379 154.755 172.049 154.755 173.199C154.755 174.029 154.125 174.609 153.675 174.769V174.799ZM157.429 178.489C156.949 178.489 156.619 178.209 156.619 177.749C156.619 177.279 156.949 176.999 157.429 176.999C157.889 176.999 158.229 177.279 158.229 177.749C158.229 178.209 157.889 178.489 157.429 178.489ZM159.339 174.939C159.339 173.129 160.199 171.379 162.129 171.379C164.059 171.379 164.909 173.129 164.909 174.939C164.909 176.749 164.059 178.499 162.129 178.499C160.189 178.499 159.339 176.749 159.339 174.939ZM163.589 174.919C163.589 173.509 163.129 172.499 162.129 172.499C161.129 172.499 160.659 173.509 160.659 174.919C160.659 176.319 161.129 177.339 162.129 177.339C163.129 177.339 163.589 176.319 163.589 174.919ZM166.838 178.489C166.358 178.489 166.028 178.209 166.028 177.749C166.028 177.279 166.358 176.999 166.838 176.999C167.298 176.999 167.638 177.279 167.638 177.749C167.638 178.209 167.298 178.489 166.838 178.489ZM170.135 172.459H168.835V171.479H171.395V178.379H170.135V172.459ZM174.976 172.459H173.676V171.479H176.236V178.379H174.976V172.459ZM182.067 174.799C182.627 174.929 183.367 175.399 183.367 176.389C183.367 177.709 182.217 178.489 180.807 178.489C179.497 178.489 178.607 177.579 178.437 177.339L179.127 176.519C179.477 176.959 180.067 177.409 180.857 177.409C181.647 177.409 182.077 177.069 182.077 176.339C182.077 175.619 181.417 175.289 180.707 175.289H180.247V174.339H180.807C181.447 174.339 181.887 173.999 181.887 173.369C181.887 172.819 181.457 172.449 180.757 172.449C180.137 172.449 179.647 172.709 179.317 173.119L178.667 172.389C178.987 171.999 179.777 171.379 180.867 171.379C182.147 171.379 183.147 172.049 183.147 173.199C183.147 174.029 182.517 174.609 182.067 174.769V174.799ZM185.821 178.489C185.341 178.489 185.011 178.209 185.011 177.749C185.011 177.279 185.341 176.999 185.821 176.999C186.281 176.999 186.621 177.279 186.621 177.749C186.621 178.209 186.281 178.489 185.821 178.489ZM189.118 172.459H187.818V171.479H190.378V178.379H189.118V172.459ZM192.269 174.939C192.269 173.129 193.129 171.379 195.059 171.379C196.989 171.379 197.839 173.129 197.839 174.939C197.839 176.749 196.989 178.499 195.059 178.499C193.119 178.499 192.269 176.749 192.269 174.939ZM196.519 174.919C196.519 173.509 196.059 172.499 195.059 172.499C194.059 172.499 193.589 173.509 193.589 174.919C193.589 176.319 194.059 177.339 195.059 177.339C196.059 177.339 196.519 176.319 196.519 174.919Z" fill="white"/>
<path d="M139.434 214.118C139.434 213.141 140.213 212.35 141.174 212.35H165.542C166.503 212.35 167.283 213.141 167.283 214.118V235.336C167.283 236.313 166.503 237.104 165.542 237.104H141.174C140.213 237.104 139.434 236.313 139.434 235.336V214.118Z" fill="#15C1E6"/>
<path fill-rule="evenodd" clip-rule="evenodd" d="M145.641 209.104C145.641 204.896 149.115 201.484 153.402 201.484C157.688 201.484 161.163 204.896 161.163 209.104V216.468C161.163 217.403 160.391 218.161 159.438 218.161C158.486 218.161 157.713 217.403 157.713 216.468V209.104C157.713 206.766 155.783 204.871 153.402 204.871C151.02 204.871 149.09 206.766 149.09 209.104V218.418C149.09 219.353 148.318 220.111 147.365 220.111C146.413 220.111 145.641 219.353 145.641 218.418V209.104Z" fill="#15C1E6"/>
<path d="M150.297 221.88C150.297 220.046 151.784 218.559 153.618 218.559C155.453 218.559 156.94 220.046 156.94 221.88C156.94 223.715 155.453 225.202 153.618 225.202C151.784 225.202 150.297 223.715 150.297 221.88Z" fill="#092349"/>
<path d="M151.957 221.879C151.957 220.962 152.701 220.219 153.618 220.219C154.535 220.219 155.279 220.962 155.279 221.879V228.522C155.279 229.44 154.535 229.423 153.618 229.423C152.701 229.423 151.957 229.44 151.957 228.522V221.879Z" fill="#092349"/>
</g>
<g filter="url(#filter4_dd_54738_243221)">
<rect x="188.625" y="190.814" width="248.65" height="78.4205" rx="15.3016" fill="url(#paint13_linear_54738_243221)"/>
<rect x="187.15" y="189.339" width="251.601" height="81.3713" rx="16.777" stroke="url(#paint14_linear_54738_243221)" stroke-width="2.95088"/>
</g>
<path fill-rule="evenodd" clip-rule="evenodd" d="M218.718 239.002C215.422 235.707 213.383 231.154 213.383 226.125C213.383 216.07 221.535 207.918 231.59 207.918C241.645 207.918 249.797 216.07 249.797 226.125C249.797 231.154 247.758 235.706 244.462 239.001L244.464 239.004L231.59 251.878L218.716 239.004L218.718 239.002Z" fill="#15C1E6"/>
<path d="M269.799 235.688L275.535 230.384C276.855 229.16 278.055 227.792 278.055 226.16C278.055 224.504 276.999 223.448 275.127 223.448C273.039 223.448 271.863 224.768 271.071 225.656L269.631 223.76C270.159 222.992 271.863 220.88 275.367 220.88C278.895 220.88 281.175 222.824 281.175 225.752C281.175 228.584 278.943 230.672 277.911 231.656L274.215 235.112H281.871V237.68H270.207L269.799 235.688ZM284.21 229.424C284.21 225.08 286.274 220.88 290.906 220.88C295.538 220.88 297.578 225.08 297.578 229.424C297.578 233.768 295.538 237.968 290.906 237.968C286.25 237.968 284.21 233.768 284.21 229.424ZM294.41 229.376C294.41 225.992 293.306 223.568 290.906 223.568C288.506 223.568 287.378 225.992 287.378 229.376C287.378 232.736 288.506 235.184 290.906 235.184C293.306 235.184 294.41 232.736 294.41 229.376ZM308.941 229.088C310.285 229.4 312.061 230.528 312.061 232.904C312.061 236.072 309.301 237.944 305.917 237.944C302.773 237.944 300.637 235.76 300.229 235.184L301.885 233.216C302.725 234.272 304.141 235.352 306.037 235.352C307.933 235.352 308.965 234.536 308.965 232.784C308.965 231.056 307.381 230.264 305.677 230.264H304.573V227.984H305.917C307.453 227.984 308.509 227.168 308.509 225.656C308.509 224.336 307.477 223.448 305.797 223.448C304.309 223.448 303.133 224.072 302.341 225.056L300.781 223.304C301.549 222.368 303.445 220.88 306.061 220.88C309.133 220.88 311.533 222.488 311.533 225.248C311.533 227.24 310.021 228.632 308.941 229.016V229.088ZM317.951 237.944C316.799 237.944 316.007 237.272 316.007 236.168C316.007 235.04 316.799 234.368 317.951 234.368C319.055 234.368 319.871 235.04 319.871 236.168C319.871 237.272 319.055 237.944 317.951 237.944ZM322.534 229.424C322.534 225.08 324.598 220.88 329.23 220.88C333.862 220.88 335.902 225.08 335.902 229.424C335.902 233.768 333.862 237.968 329.23 237.968C324.574 237.968 322.534 233.768 322.534 229.424ZM332.734 229.376C332.734 225.992 331.63 223.568 329.23 223.568C326.83 223.568 325.702 225.992 325.702 229.376C325.702 232.736 326.83 235.184 329.23 235.184C331.63 235.184 332.734 232.736 332.734 229.376ZM340.532 237.944C339.38 237.944 338.588 237.272 338.588 236.168C338.588 235.04 339.38 234.368 340.532 234.368C341.636 234.368 342.452 235.04 342.452 236.168C342.452 237.272 341.636 237.944 340.532 237.944ZM348.444 223.472H345.324V221.12H351.468V237.68H348.444V223.472ZM360.063 223.472H356.943V221.12H363.087V237.68H360.063V223.472ZM377.081 229.088C378.425 229.4 380.201 230.528 380.201 232.904C380.201 236.072 377.441 237.944 374.057 237.944C370.913 237.944 368.777 235.76 368.369 235.184L370.025 233.216C370.865 234.272 372.281 235.352 374.177 235.352C376.073 235.352 377.105 234.536 377.105 232.784C377.105 231.056 375.521 230.264 373.817 230.264H372.713V227.984H374.057C375.593 227.984 376.649 227.168 376.649 225.656C376.649 224.336 375.617 223.448 373.937 223.448C372.449 223.448 371.273 224.072 370.481 225.056L368.921 223.304C369.689 222.368 371.585 220.88 374.201 220.88C377.273 220.88 379.673 222.488 379.673 225.248C379.673 227.24 378.161 228.632 377.081 229.016V229.088ZM386.092 237.944C384.94 237.944 384.148 237.272 384.148 236.168C384.148 235.04 384.94 234.368 386.092 234.368C387.196 234.368 388.012 235.04 388.012 236.168C388.012 237.272 387.196 237.944 386.092 237.944ZM400.422 223.712H391.398V221.12H402.942L403.782 222.944L396.102 237.68H392.982L400.422 223.712ZM411.583 235.352C413.023 235.352 414.775 234.512 414.775 232.256C414.775 230.024 413.191 229.04 411.319 229.04C410.215 229.04 409.111 229.4 408.343 229.904L406.927 229.064L408.487 221.12H417.295L417.271 223.688H410.455L409.663 227.384C410.455 227.048 411.439 226.832 412.447 226.832C415.471 226.832 417.943 228.824 417.943 232.304C417.943 235.928 414.895 237.944 411.463 237.944C408.319 237.944 406.183 235.76 405.775 235.184L407.431 233.216C408.271 234.272 409.687 235.352 411.583 235.352Z" fill="white"/>
<path d="M257.754 333.819C257.754 330.036 260.773 326.969 264.497 326.969H358.9C362.624 326.969 365.643 330.036 365.643 333.819V416.02C365.643 419.803 362.624 422.87 358.9 422.87H264.497C260.773 422.87 257.754 419.803 257.754 416.02V333.819Z" fill="#15C1E6"/>
<path fill-rule="evenodd" clip-rule="evenodd" d="M281.809 314.399C281.809 298.096 295.27 284.879 311.875 284.879C328.481 284.879 341.942 298.096 341.942 314.399V342.925C341.942 346.548 338.951 349.485 335.261 349.485C331.571 349.485 328.579 346.548 328.579 342.925V314.399C328.579 305.342 321.101 297.999 311.875 297.999C302.65 297.999 295.172 305.342 295.172 314.399V350.479C295.172 354.102 292.18 357.039 288.49 357.039C284.8 357.039 281.809 354.102 281.809 350.479V314.399Z" fill="#15C1E6"/>
<path d="M299.852 363.895C299.852 356.788 305.613 351.027 312.719 351.027C319.826 351.027 325.587 356.788 325.587 363.895C325.587 371.002 319.826 376.763 312.719 376.763C305.613 376.763 299.852 371.002 299.852 363.895Z" fill="#092349"/>
<path d="M306.285 363.895C306.285 360.341 309.166 357.461 312.719 357.461C316.272 357.461 319.153 360.341 319.153 363.895V389.63C319.153 393.183 316.272 393.119 312.719 393.119C309.166 393.119 306.285 393.183 306.285 389.63V363.895Z" fill="#092349"/>
</g>
<defs>
<filter id="filter0_dd_54738_243221" x="127.316" y="346.191" width="148.96" height="60.302" filterUnits="userSpaceOnUse" color-interpolation-filters="sRGB">
<feFlood flood-opacity="0" result="BackgroundImageFix"/>
<feColorMatrix in="SourceAlpha" type="matrix" values="0 0 0 0 0 0 0 0 0 0 0 0 0 0 0 0 0 0 127 0" result="hardAlpha"/>
<feOffset dx="3.84216" dy="3.84216"/>
<feGaussianBlur stdDeviation="3.84216"/>
<feColorMatrix type="matrix" values="0 0 0 0 0 0 0 0 0 0.296699 0 0 0 0 0.858629 0 0 0 0.08 0"/>
<feBlend mode="normal" in2="BackgroundImageFix" result="effect1_dropShadow_54738_243221"/>
<feColorMatrix in="SourceAlpha" type="matrix" values="0 0 0 0 0 0 0 0 0 0 0 0 0 0 0 0 0 0 127 0" result="hardAlpha"/>
<feOffset/>
<feGaussianBlur stdDeviation="2.68951"/>
<feComposite in2="hardAlpha" operator="out"/>
<feColorMatrix type="matrix" values="0 0 0 0 0.0354167 0 0 0 0 0.105426 0 0 0 0 0.2125 0 0 0 0.07 0"/>
<feBlend mode="normal" in2="effect1_dropShadow_54738_243221" result="effect2_dropShadow_54738_243221"/>
<feBlend mode="normal" in="SourceGraphic" in2="effect2_dropShadow_54738_243221" result="shape"/>
</filter>
<filter id="filter1_dd_54738_243221" x="408.565" y="304.805" width="87.0761" height="35.5449" filterUnits="userSpaceOnUse" color-interpolation-filters="sRGB">
<feFlood flood-opacity="0" result="BackgroundImageFix"/>
<feColorMatrix in="SourceAlpha" type="matrix" values="0 0 0 0 0 0 0 0 0 0 0 0 0 0 0 0 0 0 127 0" result="hardAlpha"/>
<feOffset dx="2.23321" dy="2.23321"/>
<feGaussianBlur stdDeviation="2.23321"/>
<feColorMatrix type="matrix" values="0 0 0 0 0 0 0 0 0 0.296699 0 0 0 0 0.858629 0 0 0 0.08 0"/>
<feBlend mode="normal" in2="BackgroundImageFix" result="effect1_dropShadow_54738_243221"/>
<feColorMatrix in="SourceAlpha" type="matrix" values="0 0 0 0 0 0 0 0 0 0 0 0 0 0 0 0 0 0 127 0" result="hardAlpha"/>
<feOffset/>
<feGaussianBlur stdDeviation="1.56324"/>
<feComposite in2="hardAlpha" operator="out"/>
<feColorMatrix type="matrix" values="0 0 0 0 0.0354167 0 0 0 0 0.105426 0 0 0 0 0.2125 0 0 0 0.07 0"/>
<feBlend mode="normal" in2="effect1_dropShadow_54738_243221" result="effect2_dropShadow_54738_243221"/>
<feBlend mode="normal" in="SourceGraphic" in2="effect2_dropShadow_54738_243221" result="shape"/>
</filter>
<filter id="filter2_dd_54738_243221" x="381.096" y="134.609" width="88.4716" height="36.0946" filterUnits="userSpaceOnUse" color-interpolation-filters="sRGB">
<feFlood flood-opacity="0" result="BackgroundImageFix"/>
<feColorMatrix in="SourceAlpha" type="matrix" values="0 0 0 0 0 0 0 0 0 0 0 0 0 0 0 0 0 0 127 0" result="hardAlpha"/>
<feOffset dx="2.26981" dy="2.26981"/>
<feGaussianBlur stdDeviation="2.26981"/>
<feColorMatrix type="matrix" values="0 0 0 0 0 0 0 0 0 0.296699 0 0 0 0 0.858629 0 0 0 0.08 0"/>
<feBlend mode="normal" in2="BackgroundImageFix" result="effect1_dropShadow_54738_243221"/>
<feColorMatrix in="SourceAlpha" type="matrix" values="0 0 0 0 0 0 0 0 0 0 0 0 0 0 0 0 0 0 127 0" result="hardAlpha"/>
<feOffset/>
<feGaussianBlur stdDeviation="1.58887"/>
<feComposite in2="hardAlpha" operator="out"/>
<feColorMatrix type="matrix" values="0 0 0 0 0.0354167 0 0 0 0 0.105426 0 0 0 0 0.2125 0 0 0 0.07 0"/>
<feBlend mode="normal" in2="effect1_dropShadow_54738_243221" result="effect2_dropShadow_54738_243221"/>
<feBlend mode="normal" in="SourceGraphic" in2="effect2_dropShadow_54738_243221" result="shape"/>
</filter>
<filter id="filter3_dd_54738_243221" x="93.1073" y="152.461" width="126.334" height="51.611" filterUnits="userSpaceOnUse" color-interpolation-filters="sRGB">
<feFlood flood-opacity="0" result="BackgroundImageFix"/>
<feColorMatrix in="SourceAlpha" type="matrix" values="0 0 0 0 0 0 0 0 0 0 0 0 0 0 0 0 0 0 127 0" result="hardAlpha"/>
<feOffset dx="3.23812" dy="3.23812"/>
<feGaussianBlur stdDeviation="3.23812"/>
<feColorMatrix type="matrix" values="0 0 0 0 0 0 0 0 0 0.296699 0 0 0 0 0.858629 0 0 0 0.08 0"/>
<feBlend mode="normal" in2="BackgroundImageFix" result="effect1_dropShadow_54738_243221"/>
<feColorMatrix in="SourceAlpha" type="matrix" values="0 0 0 0 0 0 0 0 0 0 0 0 0 0 0 0 0 0 127 0" result="hardAlpha"/>
<feOffset/>
<feGaussianBlur stdDeviation="2.26669"/>
<feComposite in2="hardAlpha" operator="out"/>
<feColorMatrix type="matrix" values="0 0 0 0 0.0354167 0 0 0 0 0.105426 0 0 0 0 0.2125 0 0 0 0.07 0"/>
<feBlend mode="normal" in2="effect1_dropShadow_54738_243221" result="effect2_dropShadow_54738_243221"/>
<feBlend mode="normal" in="SourceGraphic" in2="effect2_dropShadow_54738_243221" result="shape"/>
</filter>
<filter id="filter4_dd_54738_243221" x="175.348" y="177.535" width="287.01" height="116.782" filterUnits="userSpaceOnUse" color-interpolation-filters="sRGB">
<feFlood flood-opacity="0" result="BackgroundImageFix"/>
<feColorMatrix in="SourceAlpha" type="matrix" values="0 0 0 0 0 0 0 0 0 0 0 0 0 0 0 0 0 0 127 0" result="hardAlpha"/>
<feOffset dx="7.3772" dy="7.3772"/>
<feGaussianBlur stdDeviation="7.3772"/>
<feColorMatrix type="matrix" values="0 0 0 0 0 0 0 0 0 0.296699 0 0 0 0 0.858629 0 0 0 0.08 0"/>
<feBlend mode="normal" in2="BackgroundImageFix" result="effect1_dropShadow_54738_243221"/>
<feColorMatrix in="SourceAlpha" type="matrix" values="0 0 0 0 0 0 0 0 0 0 0 0 0 0 0 0 0 0 127 0" result="hardAlpha"/>
<feOffset/>
<feGaussianBlur stdDeviation="5.16404"/>
<feComposite in2="hardAlpha" operator="out"/>
<feColorMatrix type="matrix" values="0 0 0 0 0.0354167 0 0 0 0 0.105426 0 0 0 0 0.2125 0 0 0 0.07 0"/>
<feBlend mode="normal" in2="effect1_dropShadow_54738_243221" result="effect2_dropShadow_54738_243221"/>
<feBlend mode="normal" in="SourceGraphic" in2="effect2_dropShadow_54738_243221" result="shape"/>
</filter>
<radialGradient id="paint0_radial_54738_243221" cx="0" cy="0" r="1" gradientUnits="userSpaceOnUse" gradientTransform="translate(78.0862 197.841) rotate(8.17489) scale(320.838 362.981)">
<stop stop-color="#15C1E6"/>
<stop offset="0.869792" stop-color="#15C1E6" stop-opacity="0"/>
</radialGradient>
<linearGradient id="paint1_linear_54738_243221" x1="421.868" y1="166.418" x2="421.861" y2="166.437" gradientUnits="userSpaceOnUse">
<stop stop-color="#15C1E6"/>
<stop offset="1" stop-color="#15C1E6" stop-opacity="0"/>
</linearGradient>
<radialGradient id="paint2_radial_54738_243221" cx="0" cy="0" r="1" gradientUnits="userSpaceOnUse" gradientTransform="translate(571.832 245.783) rotate(148.448) scale(248.956 186.905)">
<stop stop-color="#15C1E6"/>
<stop offset="1" stop-color="#15C1E6" stop-opacity="0"/>
</radialGradient>
<linearGradient id="paint3_linear_54738_243221" x1="424.874" y1="168.175" x2="424.334" y2="169.366" gradientUnits="userSpaceOnUse">
<stop stop-color="#15C1E6"/>
<stop offset="1" stop-color="#15C1E6" stop-opacity="0"/>
</linearGradient>
<linearGradient id="paint4_linear_54738_243221" x1="422.573" y1="166.035" x2="422.016" y2="167.352" gradientUnits="userSpaceOnUse">
<stop stop-color="#15C1E6"/>
<stop offset="1" stop-color="#15C1E6" stop-opacity="0"/>
</linearGradient>
<linearGradient id="paint5_linear_54738_243221" x1="271.131" y1="335.519" x2="247.054" y2="425.39" gradientUnits="userSpaceOnUse">
<stop stop-color="#0A479C"/>
<stop offset="1" stop-color="#091B36"/>
</linearGradient>
<linearGradient id="paint6_linear_54738_243221" x1="148.432" y1="391.467" x2="179.356" y2="317.929" gradientUnits="userSpaceOnUse">
<stop stop-color="#1B4582"/>
<stop offset="1" stop-color="#3160A6"/>
</linearGradient>
<linearGradient id="paint7_linear_54738_243221" x1="492.402" y1="298.85" x2="478.407" y2="351.086" gradientUnits="userSpaceOnUse">
<stop stop-color="#0A479C"/>
<stop offset="1" stop-color="#091B36"/>
</linearGradient>
<linearGradient id="paint8_linear_54738_243221" x1="421.084" y1="331.369" x2="439.058" y2="288.626" gradientUnits="userSpaceOnUse">
<stop stop-color="#1B4582"/>
<stop offset="1" stop-color="#3160A6"/>
</linearGradient>
<linearGradient id="paint9_linear_54738_243221" x1="466.29" y1="128.54" x2="452.066" y2="181.633" gradientUnits="userSpaceOnUse">
<stop stop-color="#0A479C"/>
<stop offset="1" stop-color="#091B36"/>
</linearGradient>
<linearGradient id="paint10_linear_54738_243221" x1="393.804" y1="161.593" x2="412.073" y2="118.148" gradientUnits="userSpaceOnUse">
<stop stop-color="#1B4582"/>
<stop offset="1" stop-color="#3160A6"/>
</linearGradient>
<linearGradient id="paint11_linear_54738_243221" x1="214.709" y1="143.86" x2="194.417" y2="219.602" gradientUnits="userSpaceOnUse">
<stop stop-color="#0A479C"/>
<stop offset="1" stop-color="#091B36"/>
</linearGradient>
<linearGradient id="paint12_linear_54738_243221" x1="111.299" y1="191.013" x2="137.362" y2="129.035" gradientUnits="userSpaceOnUse">
<stop stop-color="#1B4582"/>
<stop offset="1" stop-color="#3160A6"/>
</linearGradient>
<linearGradient id="paint13_linear_54738_243221" x1="451.979" y1="157.542" x2="405.749" y2="330.1" gradientUnits="userSpaceOnUse">
<stop stop-color="#0A479C"/>
<stop offset="1" stop-color="#091B36"/>
</linearGradient>
<linearGradient id="paint14_linear_54738_243221" x1="216.388" y1="264.967" x2="275.764" y2="123.768" gradientUnits="userSpaceOnUse">
<stop stop-color="#1B4582"/>
<stop offset="1" stop-color="#3160A6"/>
</linearGradient>
<clipPath id="clip0_54738_243221">
<rect width="508.759" height="380.423" fill="white" transform="translate(41 98)"/>
</clipPath>
</defs>
</svg>
