<svg width="32" height="25" viewBox="0 0 32 25" fill="none" xmlns="http://www.w3.org/2000/svg">
<path d="M2.70972 0.963867H28.8648C30.0908 0.963867 31.0863 2.2112 31.0863 3.74747V21.5971C31.0863 23.1334 30.0908 24.3807 28.8648 24.3807H2.70972C1.4837 24.3807 0.488281 23.1334 0.488281 21.5971V3.74747C0.488281 2.2112 1.4837 0.963867 2.70972 0.963867Z" fill="#15C1E6"/>
<path d="M4.93969 3.65832C4.93969 4.1084 4.56837 4.47973 4.11828 4.47973C3.66819 4.47973 3.29688 4.1084 3.29688 3.65832C3.29688 3.20823 3.66819 2.83691 4.11828 2.83691C4.56837 2.83691 4.93969 3.20823 4.93969 3.65832Z" fill="white"/>
<path d="M8.22484 3.65832C8.22484 4.1084 7.85352 4.47973 7.40344 4.47973C6.95335 4.47973 6.58203 4.1084 6.58203 3.65832C6.58203 3.20823 6.95335 2.83691 7.40344 2.83691C7.86478 2.83691 8.22484 3.20823 8.22484 3.65832Z" fill="white"/>
<path d="M11.51 3.65832C11.51 4.1084 11.1387 4.47973 10.6886 4.47973C10.2385 4.47973 9.86719 4.1084 9.86719 3.65832C9.86719 3.20823 10.2385 2.83691 10.6886 2.83691C11.1387 2.83691 11.51 3.20823 11.51 3.65832Z" fill="white"/>
<rect x="3.18359" y="8.375" width="6.4006" height="1.68437" fill="white"/>
<rect x="10.8008" y="8.375" width="3.03186" height="1.68437" fill="white"/>
<rect x="3.18359" y="11.7441" width="4.37936" height="1.68437" fill="white"/>
<rect x="8.91016" y="11.7441" width="1.68437" height="1.68437" fill="white"/>
<rect x="8.91016" y="18.4814" width="5.05311" height="1.68437" fill="white"/>
<rect x="3.18359" y="15.1123" width="7.41122" height="1.68437" fill="white"/>
<rect x="3.18359" y="18.4814" width="4.37936" height="1.68437" fill="white"/>
<path d="M22.6976 10.4333L20.4206 17.2644C20.3314 17.5084 20.4775 17.8119 20.7238 17.8945C20.9703 17.9771 21.2697 17.823 21.3456 17.5744L23.6225 10.7433C23.7258 10.4511 23.4749 10.0943 23.1651 10.0928C22.9579 10.1 22.7567 10.2392 22.6974 10.4334L22.6976 10.4333ZM19.0685 10.423C18.9757 10.428 18.8846 10.4603 18.8093 10.5145L14.9058 13.2794C14.6512 13.4587 14.6512 13.8981 14.9058 14.0775L18.8093 16.8424C19.0182 16.9902 19.3426 16.9345 19.4903 16.7256C19.6381 16.5167 19.5824 16.1923 19.3735 16.0445L16.034 13.6811L19.3735 11.3125C19.5478 11.1929 19.6275 10.9518 19.559 10.7519C19.4905 10.5519 19.2796 10.4106 19.0685 10.423H19.0685ZM24.9084 10.423C24.7075 10.4362 24.523 10.5868 24.4697 10.7809C24.4165 10.975 24.4984 11.1987 24.6644 11.3125L28.0039 13.6811L24.6644 16.0445C24.4555 16.1923 24.3998 16.5167 24.5475 16.7256C24.6952 16.9345 25.0197 16.9902 25.2286 16.8424L29.1321 14.0775C29.3867 13.8982 29.3867 13.4588 29.1321 13.2794L25.2286 10.5145C25.1368 10.4481 25.0214 10.4151 24.9084 10.423H24.9084Z" fill="white"/>
</svg>
