<svg width="34" height="35" viewBox="0 0 34 35" fill="none" xmlns="http://www.w3.org/2000/svg">
<mask id="mask0_47935_36" style="mask-type:alpha" maskUnits="userSpaceOnUse" x="0" y="0" width="34" height="35">
<path d="M0.496166 34.1005V1.09382H33.5028V34.1005H0.496166Z" fill="#15C1E6" stroke="#76A5FF" stroke-width="0.601707"/>
</mask>
<g mask="url(#mask0_47935_36)">
<path d="M14.2148 7.39426C15.9395 6.9673 17.7411 6.95638 19.4708 7.36242C21.2006 7.76845 22.8091 8.57981 24.1637 9.72959L22.523 11.7297L29.5247 12.5678L27.7743 5.56618L26.0545 7.65035C23.2437 5.22768 19.5857 4.02078 15.8851 4.29517C12.1845 4.56956 8.74444 6.30276 6.32172 9.11349C5.63114 9.91549 5.03362 10.7932 4.54066 11.7297L7.01794 13.0359C7.75395 11.6428 8.77525 10.4203 10.0153 9.44828C11.2553 8.47622 12.6862 7.77634 14.2148 7.39426Z" fill="#15C1E6"/>
<path d="M19.5174 27.6808C17.7735 28.0213 15.9737 27.9424 14.2663 27.4507C12.5589 26.9589 10.9928 26.0684 9.6972 24.8525L11.4356 22.9367L4.48438 21.7506L5.88365 28.8308L7.7052 26.8349C10.3917 29.3947 13.985 30.7824 17.6947 30.6928C21.4044 30.6032 24.9265 29.0436 27.4863 26.3571C28.216 25.5905 28.8566 24.7438 29.3956 23.833L26.9865 22.4049C26.182 23.7596 25.101 24.9296 23.8141 25.8387C22.5271 26.7477 21.0631 27.3754 19.5174 27.6808Z" fill="#15C1E6"/>
<path fill-rule="evenodd" clip-rule="evenodd" d="M24.1632 9.72891C24.0676 9.64774 23.9707 9.56826 23.8726 9.4905C23.7201 9.36963 23.5647 9.2529 23.4065 9.14038C22.2246 8.29973 20.8882 7.69456 19.4703 7.36174C17.7406 6.9557 15.939 6.96662 14.2143 7.39358C12.6857 7.77566 11.2548 8.47554 10.0148 9.44761C8.77473 10.4197 7.75343 11.6421 7.01743 13.0353L4.54014 11.729C4.54327 11.7231 4.5464 11.7171 4.54954 11.7112C4.69582 11.4343 4.85125 11.1625 5.01553 10.8963C5.40285 10.2688 5.83937 9.67238 6.32121 9.11281C8.74393 6.30209 12.1839 4.56888 15.8846 4.29449C19.3848 4.03496 22.8469 5.10063 25.59 7.26682C25.747 7.39084 25.9017 7.51848 26.0539 7.64967L27.7737 5.5655L29.5242 12.5671L22.5224 11.729L24.1632 9.72891ZM25.9176 6.30926C23.0305 4.13301 19.4412 3.06984 15.8137 3.33881C11.8596 3.632 8.18399 5.48391 5.59534 8.48714C4.85753 9.34399 4.21883 10.2821 3.69214 11.2827L3.24609 12.13L7.41746 14.3295L7.86475 13.4829C8.53787 12.2088 9.4719 11.0908 10.606 10.2018C11.7398 9.31302 13.048 8.67304 14.4456 8.32354C16.0226 7.93333 17.6698 7.92344 19.2513 8.29468C20.5265 8.59401 21.7296 9.1342 22.7971 9.8832L20.6728 12.4728L30.7912 13.6839L28.243 3.4912L25.9176 6.30926ZM9.69669 24.8518C9.78815 24.9377 9.88095 25.0219 9.97506 25.1044C10.1213 25.2327 10.2707 25.3571 10.4231 25.4774C11.5616 26.3759 12.8662 27.0469 14.2658 27.45C15.9732 27.9417 17.773 28.0206 19.5168 27.6801C21.0626 27.3747 22.5266 26.747 23.8135 25.838C25.1005 24.9289 26.1814 23.7589 26.986 22.4042L29.3951 23.8323C29.3917 23.838 29.3883 23.8437 29.3849 23.8495C29.225 24.1188 29.0561 24.3825 28.8788 24.6402C28.4607 25.2477 27.9949 25.8216 27.4858 26.3565C24.926 29.0429 21.4039 30.6025 17.6942 30.6921C14.1854 30.7769 10.7807 29.54 8.14898 27.2397C7.9983 27.108 7.85016 26.9729 7.70468 26.8343L5.88314 28.8301L4.48386 21.7499L11.4351 22.936L9.69669 24.8518ZM7.77407 28.1798C10.5491 30.4972 14.0809 31.738 17.7173 31.6502C21.6811 31.5544 25.4445 29.888 28.1796 27.0175C28.9592 26.1985 29.6439 25.2935 30.2198 24.3203L30.7075 23.4962L26.6509 21.0916L26.162 21.9149C25.4262 23.1538 24.4376 24.2239 23.2607 25.0553C22.0841 25.8863 20.7457 26.4603 19.3326 26.7397C17.738 27.0509 16.0922 26.9788 14.531 26.5291C13.2723 26.1666 12.0976 25.5671 11.0688 24.7658L13.3195 22.2854L3.27409 20.5714L5.31112 30.8785L7.77407 28.1798Z" fill="#15C1E6"/>
</g>
</svg>
