<svg width="38" height="39" viewBox="0 0 38 39" fill="none" xmlns="http://www.w3.org/2000/svg">
<path d="M28.9511 24.9001C28.3388 24.9 27.7334 25.0251 27.175 25.267C26.6166 25.509 26.118 25.8623 25.712 26.3036L12.0131 19.9999C12.0967 19.5491 12.0967 19.0877 12.0131 18.6369L25.7124 12.335C26.4166 13.1041 27.386 13.6022 28.4417 13.7372C29.4975 13.8723 30.5683 13.6352 31.4568 13.0698C32.3452 12.5044 32.9913 11.6487 33.2759 10.6607C33.5605 9.67263 33.4643 8.61882 33.0052 7.69364C32.5461 6.76846 31.755 6.03433 30.7778 5.62665C29.8006 5.21898 28.7032 5.16526 27.6881 5.47541C26.673 5.78557 25.8086 6.43866 25.2544 7.31424C24.7002 8.18981 24.4935 9.2288 24.6726 10.2395L10.9733 16.5415C10.3883 15.908 9.6172 15.4606 8.7621 15.2588C7.907 15.0569 7.00837 15.1101 6.18541 15.4114C5.36246 15.7126 4.65408 16.2476 4.15424 16.9454C3.65439 17.6432 3.38672 18.4708 3.38672 19.3184C3.38672 20.166 3.65439 20.9936 4.15424 21.6914C4.65408 22.3892 5.36246 22.9242 6.18541 23.2254C7.00837 23.5266 7.907 23.5799 8.7621 23.378C9.6172 23.1762 10.3883 22.7288 10.9733 22.0953L24.6726 28.3972C24.5282 29.2413 24.6565 30.1077 25.04 30.8793C25.4235 31.6509 26.0439 32.2906 26.8172 32.7119C27.5905 33.1332 28.4795 33.3158 29.364 33.235C30.2486 33.1542 31.086 32.8139 31.7633 32.2601C32.4405 31.7063 32.9248 30.9658 33.1508 30.1385C33.3767 29.3112 33.3335 28.437 33.0268 27.6342C32.7202 26.8313 32.1649 26.1384 31.4361 25.6491C30.7073 25.1598 29.84 24.8978 28.9515 24.8983L28.9511 24.9001Z" fill="#15C1E6"/>
</svg>
