<svg width="38" height="39" viewBox="0 0 38 39" fill="none" xmlns="http://www.w3.org/2000/svg">
<path d="M17.9801 27.8657C17.9801 30.5409 15.0054 33.5168 12.329 33.5168C9.65264 33.5168 8.29297 31.3482 8.29297 28.6726V26.5329C8.29298 26.3377 8.36371 26.1491 8.49208 26.0021C8.62045 25.855 8.79777 25.7594 8.99119 25.7331C12.004 25.3107 15.0729 25.5564 17.9801 26.4528C18.1825 26.4532 17.9801 27.8657 17.9801 27.8657Z" fill="#15C1E6"/>
<path d="M19.9999 27.8657C19.9999 30.5409 22.9746 33.5168 25.651 33.5168C28.3274 33.5168 29.6875 31.3481 29.6875 28.6726V26.5329C29.6874 26.3377 29.6166 26.1492 29.4883 26.0021C29.3599 25.8551 29.1826 25.7595 28.9893 25.733C25.9763 25.3107 22.9073 25.5564 19.9999 26.4527C19.7979 26.4531 19.9999 27.8657 19.9999 27.8657Z" fill="#15C1E6"/>
<path d="M19.9987 26.5439H17.9805V28.268H19.9987V26.5439Z" fill="#15C1E6"/>
<path d="M8.29537 27.3523L6.88281 26.9487V25.7373H9.10267L8.29537 27.3523Z" fill="#15C1E6"/>
<path d="M29.6901 27.3523L31.1027 26.9487V25.7373H28.8828L29.6901 27.3523Z" fill="#15C1E6"/>
<path d="M24.7186 5.42241C24.7186 5.42241 20.2105 6.71778 18.6628 6.71073C17.2021 6.7043 12.9595 5.44354 12.9595 5.44354C12.4458 5.32937 11.9079 5.41901 11.4589 5.6936C11.01 5.96818 10.6852 6.40627 10.5528 6.9156L7.66016 18.0527H30.0044L27.1072 6.89907C26.9758 6.39267 26.6542 5.95648 26.2092 5.68139C25.7642 5.4063 25.2302 5.31353 24.7186 5.42241Z" fill="#15C1E6"/>
<path d="M19.0015 22.7911C28.0596 22.7911 37.9601 19.4057 37.9601 19.4057L19.0015 15.6816L0.0429688 19.4045C0.0429688 19.4045 9.94348 22.7911 19.0015 22.7911Z" fill="#15C1E6"/>
<path d="M28.989 14.1592C28.989 14.1592 23.0646 14.8363 18.8324 14.8363C14.6003 14.8363 8.67593 14.1592 8.67593 14.1592L7.66016 18.0526C7.66016 18.0526 13.7542 19.7452 18.8321 19.7452C23.9101 19.7452 30.0041 18.0526 30.0041 18.0526L28.989 14.1592Z" fill="#15C1E6"/>
</svg>
