<svg width="48" height="40" viewBox="0 0 48 40" fill="none" xmlns="http://www.w3.org/2000/svg">
<g id="Layer_1" clip-path="url(#clip0_3028_28177)">
<g id="Isolation_Mode">
<path id="Vector" fill-rule="evenodd" clip-rule="evenodd" d="M7.63 8.87988H14.1V5.88988C14.1 2.84988 15.71 1.07988 18.75 0.879883H30.02C33.06 1.08988 34.67 2.84988 34.67 5.88988V8.87988H41.14C42.86 8.87988 44.27 10.2899 44.27 12.0099V34.4099C44.27 36.1399 42.86 37.5399 41.14 37.5399H7.63C5.91 37.5399 4.5 36.1299 4.5 34.4099V12.0099C4.5 10.2899 5.91 8.87988 7.63 8.87988ZM18.79 8.87988H29.96V6.30988C29.98 5.84988 29.8 5.58988 29.43 5.56988H19.31C18.94 5.57988 18.77 5.84988 18.78 6.30988V8.87988H18.79Z" fill="#C6DBFF"/>
<path id="Vector_2" d="M32.5081 30.0497C32.1781 30.0497 31.8581 29.9197 31.6181 29.6797L29.2781 27.3097C26.3481 27.3097 24.5781 27.3097 21.5181 27.2997H21.3981C18.9381 27.2997 17.2581 27.6197 16.4181 28.2597C15.5081 28.9497 14.4181 29.3097 13.2681 29.3097C10.3081 29.2697 7.9781 26.8797 8.0081 23.9897C8.0481 21.1197 10.4081 18.7997 13.2681 18.7997C14.3681 18.8197 15.3681 19.1297 16.2081 19.7097C17.6681 20.6997 19.3481 20.7097 21.2881 20.7097H29.2181L31.6181 18.3297C31.8481 18.0997 32.1681 17.9697 32.4981 17.9697H36.7081C36.9581 17.9697 37.1981 18.0397 37.4081 18.1797L40.2081 20.0697C40.5481 20.2997 40.7581 20.6897 40.7581 21.1097V21.8297C40.7581 22.5197 40.1981 23.0797 39.5081 23.0797H36.1181V24.9597H39.5081C40.1981 24.9597 40.7581 25.5197 40.7581 26.2097V26.9297C40.7581 27.3497 40.5481 27.7297 40.2081 27.9697L37.4081 29.8597C37.1981 29.9997 36.9581 30.0697 36.7081 30.0697H32.4981L32.5081 30.0497Z" fill="#3D7FFC"/>
<path id="Vector_3" d="M36.7104 19.21L39.5104 21.1V21.82H35.3504C35.0804 21.82 34.8604 22.05 34.8604 22.31V25.72C34.8604 25.99 35.0804 26.21 35.3504 26.21H39.5104V26.93L36.7104 28.82H32.5004L29.7904 26.08C26.5504 26.08 24.7504 26.08 21.5104 26.07C21.4704 26.07 21.4204 26.07 21.3804 26.07C19.6104 26.07 17.0904 26.2 15.6504 27.28C14.9804 27.78 14.1504 28.08 13.2604 28.08C13.2404 28.08 13.2204 28.08 13.2004 28.08C10.9904 28.05 9.22041 26.24 9.24041 24.02C9.27041 21.82 11.0604 20.06 13.2504 20.06C13.2704 20.06 13.2804 20.06 13.3004 20.06C14.1104 20.07 14.8704 20.32 15.4904 20.75C17.3404 22.01 19.3804 21.96 21.5204 21.97H29.7304L32.4904 19.23H36.7004M36.7004 16.73H32.4904C31.8304 16.73 31.2004 16.99 30.7304 17.46L28.7004 19.48H21.2904C19.2804 19.48 17.9904 19.44 16.9004 18.69C15.8504 17.98 14.6204 17.59 13.3404 17.57C13.3304 17.57 13.2704 17.57 13.2604 17.57C9.72041 17.57 6.80041 20.45 6.75041 23.99C6.71041 27.58 9.59041 30.53 13.1704 30.58H13.2604C14.6804 30.58 16.0204 30.13 17.1604 29.28C17.5104 29.02 18.5304 28.58 21.3804 28.58H21.5004C24.3804 28.59 26.1204 28.59 28.7504 28.59L30.7204 30.59C31.1904 31.07 31.8304 31.33 32.5004 31.33H36.7104C37.2104 31.33 37.6904 31.18 38.1104 30.9L40.9104 29.01C41.6004 28.55 42.0104 27.77 42.0104 26.94V26.22C42.0104 25.28 41.4904 24.45 40.7204 24.03C41.4904 23.6 42.0104 22.78 42.0104 21.84V21.12C42.0104 20.29 41.6004 19.51 40.9104 19.05L38.1104 17.16C37.7004 16.88 37.2104 16.73 36.7104 16.73H36.7004Z" fill="white"/>
</g>
<circle id="Ellipse 2542" cx="13" cy="24" r="2" fill="white"/>
</g>
<defs>
<clipPath id="clip0_3028_28177">
<rect width="47" height="40" fill="white" transform="translate(0.5)"/>
</clipPath>
</defs>
</svg>
