<svg width="41" height="41" viewBox="0 0 41 41" fill="none" xmlns="http://www.w3.org/2000/svg">
<path fill-rule="evenodd" clip-rule="evenodd" d="M10.5 6.00012C9.94772 6.00012 9.5 6.44784 9.5 7.00012V17.4022C10.8754 16.6244 12.4645 16.1804 14.1574 16.1804C19.3902 16.1804 23.6323 20.4225 23.6323 25.6553C23.6323 26.4644 23.5306 27.2501 23.3396 28.0001H38.5C39.0523 28.0001 39.5 27.5524 39.5 27.0001V7.00012C39.5 6.44784 39.0523 6.00012 38.5 6.00012H10.5ZM21.52 28.0001C21.7553 27.2606 21.8823 26.4728 21.8823 25.6553C21.8823 21.389 18.4237 17.9304 14.1574 17.9304C12.4083 17.9304 10.7949 18.5118 9.5 19.4918V27.0001C9.5 27.5524 9.94772 28.0001 10.5 28.0001H21.52Z" fill="#98DEF4"/>
<path d="M13.5 10.5C13.5 9.67157 14.1716 9 15 9C15.8284 9 16.5 9.67157 16.5 10.5C16.5 11.3284 15.8284 12 15 12C14.1716 12 13.5 11.3284 13.5 10.5Z" fill="#15C1E6"/>
<path d="M18.5 10.5C18.5 9.67157 19.1716 9 20 9C20.8284 9 21.5 9.67157 21.5 10.5C21.5 11.3284 20.8284 12 20 12C19.1716 12 18.5 11.3284 18.5 10.5Z" fill="#15C1E6"/>
<path d="M23.5 10.5C23.5 9.67157 24.1716 9 25 9C25.8284 9 26.5 9.67157 26.5 10.5C26.5 11.3284 25.8284 12 25 12C24.1716 12 23.5 11.3284 23.5 10.5Z" fill="#15C1E6"/>
<path fill-rule="evenodd" clip-rule="evenodd" d="M8.69592 31.1185C7.2974 29.7205 6.43235 27.7889 6.43235 25.6552C6.43235 21.3889 9.89089 17.9303 14.1572 17.9303C18.4236 17.9303 21.8821 21.3889 21.8821 25.6552C21.8821 27.7888 21.0171 29.7204 19.6187 31.1183L19.6197 31.1194L14.1574 36.5817L8.69511 31.1193L8.69592 31.1185Z" fill="#15C1E6"/>
<path fill-rule="evenodd" clip-rule="evenodd" d="M8.69592 31.1185C7.2974 29.7205 6.43235 27.7889 6.43235 25.6552C6.43235 21.3889 9.89089 17.9303 14.1572 17.9303C18.4236 17.9303 21.8821 21.3889 21.8821 25.6552C21.8821 27.7888 21.0171 29.7204 19.6187 31.1183L19.6197 31.1194L14.1574 36.5817L8.69511 31.1193L8.69592 31.1185Z" fill="#15C1E6"/>
</svg>
