<svg width="589" height="576" viewBox="0 0 589 576" fill="none" xmlns="http://www.w3.org/2000/svg">
<g clip-path="url(#clip0_54738_241766)">
<path d="M287.581 377.034C282.44 370.864 277.545 365.302 266.9 363.032C265.149 361.168 265.398 364.997 265.105 361.094C265.545 360.618 265.567 356.246 263.149 358.767C260.241 354.8 256.055 349.996 249.558 357.457C249.74 355.623 256.818 352.611 253.262 350.932C251.337 349.7 249.684 348.892 249.697 347.053C252.033 337.661 247.876 324.229 233.34 322.138C231.204 322.315 231.758 315.901 228.37 318.406C232.144 314.064 223.987 310.079 223.751 307.759C226.431 304.793 220.263 304.042 219.681 300.623C226.523 301.432 219.983 297.915 211.951 299.765C210.586 296.418 206.081 297.586 204.057 294.919C205.551 294.536 204.098 291.741 201.156 291.016C202.158 289.828 200.3 285.385 199.702 291.253C198.716 290.619 196.551 292.749 196.281 290.758C195.94 291.024 196.364 291.134 195.022 292.494C193.429 289.324 199.895 289.878 197.271 286.267C195.481 285.661 192.154 290.733 189.047 288.225C188.361 288.268 188.728 288.497 187.645 289.743C187.29 289.115 186.847 288.866 186.363 288.914C184.874 288.984 183.051 291.817 182.72 294.424C181.153 294.276 178.946 295.679 178.201 299.17C178.624 297.493 176.41 291.399 172.889 290.886C161.937 297.481 164.529 277.762 170.495 270.282C170.257 270.023 172.319 267.15 169.161 266.526C170.981 262.086 164.408 264.654 160.155 261.589C164.174 256.948 168.418 250.469 173.745 243.302C168.868 239.878 163.171 246.24 158.412 250.822C157.994 249.013 155.367 250.173 151.981 250.144C148.658 240.746 160.388 217.142 173.824 214.279C173.639 214.215 173.464 214.17 173.304 214.104C174.341 213.76 173.94 214.388 175.511 212.701C175.424 213.017 175.399 212.869 175.338 213.531C177.458 211.767 178.781 215.708 181.123 214.199C181.164 214.784 180.03 218.213 182.644 216.452C182.745 216.675 182.679 217.886 183.489 217.01L183.388 217.023C183.733 216.656 183.561 217.131 183.855 215.979C183.925 217.58 185.425 220.347 185.224 215.846C184.933 215.692 186.892 215.863 186.358 214.771C187.891 213.366 188.666 215.646 191.118 213.59C191.023 213.786 190.936 214.338 189.914 214.978C191.151 215.733 192.671 214.23 194.674 216.593C191.492 222.639 202.048 211.776 196.269 225.66C195.569 225.989 193.303 228.928 194.913 229.244C194.833 229.388 193.103 230.474 194.507 230.272C190.715 242.081 201.754 231.674 202.742 222.428L202.723 222.407L203.099 222.545C206.639 210.914 221.822 211.929 228.399 207.851C229.441 208.279 231.136 207.554 231.011 205.656C231.371 206.206 235.24 203.668 232.83 203.278C234.711 201.704 235.984 198.594 240.059 197.015C238.152 198.157 236.554 198.679 236.124 201.26C235.707 201.506 234.948 201.167 234.631 202.754C234.605 202.85 234.59 202.964 234.578 203.094C236.081 201.564 239.408 202.31 241.271 197.566C241.791 197.977 240.532 199.508 241.316 199.255C241.283 199.286 241.277 199.308 241.267 199.344C242.865 198.295 246.061 197.661 248.106 194.846C248.021 196.564 257.643 195.221 250.743 194.681C252.283 194.191 254.066 195.528 256.195 194.081C256.672 195 255.584 195.088 257.936 194.864C257.488 195.165 256.927 195.255 256.427 195.448C256.482 195.542 259.591 196.105 260.625 193.571C259.84 193.587 260.404 194.427 258.704 194.379C259.749 190.832 263.848 190.841 269.509 188.989C269.697 189.337 268.004 189.173 268.207 190.234C269.049 189.917 272.843 189.651 275.643 189.04C276.43 188.866 277.133 188.671 277.686 188.437C276.465 189.883 279.032 188.589 282.109 188.239C281.8 188.537 282.109 188.475 279.96 188.846C280.674 189.583 280.115 189.461 282.183 189.384C280.714 190.349 278.097 189.094 275.09 190.51C271.707 192.466 275.633 195.186 280.25 191.118C280.338 191.18 280.197 191.104 280.56 191.553C278.929 192.137 285.227 192.71 289.38 191.112C289.323 191.672 294.818 191.155 292.468 189.403C295.822 187.463 291.832 187.119 288.099 190.37C287.932 189.476 288.112 189.208 286.182 189.754C286.006 189.566 286.123 189.439 285.367 189.148C284.306 188.991 284.739 188.009 283.235 187.107C283.617 186.253 284.057 185.541 284.734 184.945C285.368 184.354 286.185 183.897 287.39 183.533C287.122 183.385 285.31 183.213 284.264 183.177C284.751 182.824 284.213 182.684 282.995 182.155C296.67 184.188 288.156 176.032 271.325 182.037C279.459 178.906 289.268 176.738 298.584 179.851C299.685 180.216 300.789 180.66 301.893 181.19C305.393 179.604 308.212 179.982 312.587 179.67C314.539 179.862 316.853 177.014 316.066 175.133C315.672 174.117 314.376 173.403 311.695 173.58C313.168 172.892 317.433 175.212 315.712 171.593C315.509 173.799 312.957 169.31 312.265 170.697C311.613 170.528 313.79 168.794 312.238 168.942C312.374 168.364 312.558 168.608 311.971 167.763C312.418 167.761 314.924 166.452 313.752 166.344C314.93 165.343 313.78 164.981 314.905 163.053C316.789 156.236 313.491 161.678 306.232 161.847C306.08 161.808 306.629 160.998 305.71 161.003C304.628 158.778 308.025 158.18 309.533 156.398L309.543 156.362C307.979 156.467 309.077 156.343 306.949 155.255C307.344 155.357 308.996 154.637 307.594 154.627C308.377 153.264 300.1 149.154 299.311 152.83C298.043 152.894 296.683 153.171 295.127 155.247C290.503 154.463 290.429 160.049 284.478 161.629C275.307 161.782 275.33 164.874 268.168 168.777C269.418 165.575 265.73 171.396 266.221 165.917C266.237 165.567 266.822 165.066 267.65 164.509C267.971 164.317 268.291 164.101 268.641 163.893C271.727 162.041 276.069 159.847 271.23 159.637C271.18 159.584 271.137 159.534 271.067 159.492C271.164 159.376 271.248 159.279 271.331 159.183C271.062 159.129 271.103 159.068 270.085 158.961C270.454 158.01 270.567 158.039 268.591 156.755C270.39 155.419 268.311 152.745 264.962 153.198C265.713 152.858 267.687 152.064 269.513 150.483C268.764 150.225 268.65 150.196 267.968 150.223C270.672 147.816 277.824 147.241 283.673 145.942C285.048 146.519 289.51 146.686 285.764 143.989C286.52 144.044 286.763 145.398 288.255 145.612C288.734 145.878 288.979 145.58 290.503 145.031C291.038 146.359 295.477 145.725 297.16 144.658C298.224 144.659 298.48 144.466 300.262 144.456C298.15 145.073 295.122 145.892 292.108 146.834C292.806 146.897 293.498 146.919 294.051 147.181C294.041 147.217 293.526 147.375 292.867 147.849C293.462 148.579 296.25 147.657 298.394 147.364C296.217 149.334 304.594 149.526 300.358 147.811C300.489 147.688 300.731 147.869 301.533 147.408C301.433 147.122 301.582 145.996 300.642 145.696C301.018 144.983 300.982 145.407 301.52 144.515C300.991 144.519 300.714 145.376 299.668 145.459C300.154 145.168 300.312 145.272 300.906 144.592C300.85 144.561 300.902 144.607 300.63 144.418C300.985 144.25 300.991 143.756 301.968 144.072C301.893 144.195 301.717 144.598 302.419 144.583C301.099 144.776 302.992 147.243 302.859 144.697C303.218 144.807 303.15 145.348 304.104 144.541C304.834 145.368 308.646 145.327 310.331 143.285C310.798 143.445 313.904 142.906 312.941 142.128C312.911 141.561 313.551 141.775 314.504 141.558C314.783 142.165 315.9 142.794 316.995 142.74C317.037 142.735 317.066 142.719 317.104 142.729C317.647 142.673 318.163 142.453 318.578 141.978C318.881 142.293 318.622 142.171 319.241 142.607C319.022 142.723 317.89 143.146 318.959 143.187C318.928 143.297 318.954 143.265 319.267 143.543C319.234 143.574 319.225 143.548 318.958 143.778C319.122 143.86 318.943 143.774 319.569 143.858C318.964 143.96 315.762 144.412 318.874 144.582C318.061 144.789 318.232 145.786 319.597 144.991C319.486 145.159 319.434 145.051 319.079 145.691C317.194 144.902 318.434 148.113 319.87 145.416C319.88 145.615 319.638 145.812 320.321 145.927C319.229 148.91 316.308 145.813 314.179 148.787C311.715 149.061 309.048 146.518 305.997 148.623C306.41 150.155 306.008 148.877 308.169 149.698C309.415 149.243 309.864 150.792 311.406 149.65C311.491 149.931 310.464 150.767 311.788 150.324C311.679 150.807 311.552 150.444 311.844 151.385C310.62 152.437 311.39 154.235 314.752 155.644C318.684 158.784 316.238 154.267 317.026 153.267C318.58 153.93 319.109 159.626 321.461 154.497C321.387 155.88 323.199 155.524 322.547 153.299C323.873 155.085 322.612 150.978 321.941 150.528C324.34 149.899 324.572 150.117 325.314 153.105C327.469 152.24 336.263 153.099 328.156 147.844C327.836 147.446 328.186 147.796 326.975 146.947C327.773 146.5 328.554 146.845 330.151 146.622C330.353 146.478 328.878 146.291 329.199 145.776C330.263 146.864 330.95 144.672 329.284 145.027C329.537 144.935 329.878 144.788 330.134 144.539C330.153 144.324 329.035 144.372 328.279 143.286C329.116 143.227 327.318 141.532 326.115 142.684C326.248 142.262 327.656 141.4 325.626 140.455C329.997 138.835 318.2 138.203 324.882 140.12C324.159 140.153 321.053 140.078 321.019 139.849C326.971 137.97 317.023 136.85 314.897 139.605C314.448 137.764 318.237 138.158 320.326 137.567C318.29 136.88 314.833 136.518 310.041 138.281C310.224 138.942 310.657 137.905 311.805 139.156C308.445 137.417 307.652 140.431 313.527 141.068C313.906 141.78 313.194 141.595 310.765 140.571C310.653 140.739 309.302 140.545 309.514 141.773C308.448 141.929 307.774 141.282 306.034 141.877C305.889 141.58 303.797 141.831 304.212 142.475C303.911 142.538 303.011 142.619 302.179 142.663C302.458 142.003 302.36 141.86 303.734 141.327C303.75 141.473 304.028 141.379 304.076 141.793C304.658 141.449 306.019 141.109 305.847 139.97C305.04 140.154 304.254 139.974 302.022 140.937C302.282 140.674 303.988 139.291 304.017 140.212C304.672 139.988 305.046 140.4 304.832 139.116C304.393 138.939 304.598 139.229 303.465 139.037C303.719 138.764 304.087 139.08 304.851 138.665C305.52 139.271 307.133 137.872 307.482 136.758C310.03 136.325 312.168 137.022 316.201 136.33C315.07 135.894 313.985 134.589 311.677 135.391C309.146 135.466 305.853 136.508 302.389 137.198C302.423 137.223 302.484 137.239 302.522 137.249C301.862 137.14 298.978 137.934 301.429 138.469C301.463 138.493 301.105 138.526 301.353 138.803C300.311 138.871 300.276 138.704 298.65 138.975C298.712 139.133 298.883 139.248 299.006 139.303C297.218 139.925 295.844 139.136 293.529 140.195C293.533 140.094 293.548 140.185 293.482 139.924C293.299 140.057 293.097 140.201 292.879 140.342C293.081 140.142 293.214 140.011 294.619 139.132C294.289 139.385 293.91 139.641 293.557 139.888C293.749 139.78 294.814 139.482 296.161 139.194C296.039 139.107 295.961 139.182 295.417 138.859C296.258 139.078 303.351 137.952 298.98 137.927C298.818 136.956 297.853 136.981 296.315 137.904C296.496 137.778 296.698 137.633 296.896 137.504C296.109 137.677 293.014 137.212 295.308 138.225C293.539 138.277 289.879 139.68 288.235 137.135C288.174 137.12 287.561 137.283 287.331 136.94C287.342 136.841 289.066 137.155 288.392 136.184C288.449 136.215 288.544 136.224 288.617 136.046C287.896 136.276 285.144 134.656 283.859 136.337C283.146 135.979 281.731 137.249 280.776 137.001C281.154 136.957 282.467 136.054 281.664 135.846C284.664 135.334 280.166 135.945 277.395 134.658C277.914 133.722 279.845 135.61 280.662 133.562C278.688 133.388 279.041 131.141 276.377 131.26C276.62 131.205 276.878 131.154 277.778 131.01C276.972 130.313 274.37 131.353 274.21 130.902C275.056 130.429 274.375 131.276 277.02 129.845C276.226 129.898 275.931 130.318 273.503 130.081C273.637 130.037 273.764 130.109 274.802 129.906C273.742 129.513 272.109 129.601 269.514 129.383C269.552 129.393 269.698 129.392 269.796 129.244C269.346 129.166 269.762 129.219 268.694 129.233C268.962 128.909 267.799 129.3 267.665 129.108C267.18 128.864 266.491 129.653 265.027 129.131C265.191 128.599 265.478 128.673 266.606 128.297C266.038 128.205 264.398 126.59 264.417 126.697L264.27 126.698C264.34 126.504 264.401 126.811 264.797 126.261C264.047 125.948 264.843 126.39 263.323 125.893C263.912 125.968 265.469 125.301 263.726 125.463C263.899 125.366 265.097 125.087 263.667 125.148C265.863 124.726 262.983 125.128 262.198 124.704C260.137 124.609 257.614 125.04 253.141 124.886C252.009 124.986 249.203 125.469 246.542 126.518C246.557 126.522 246.643 126.505 246.815 126.471C246.107 126.681 244.833 127.208 243.723 126.872C245.192 126.585 243.937 126.833 245.489 126.481C245.165 126.475 244.952 126.278 243.256 126.712C243.277 126.638 243.241 126.708 243.48 126.549C241.715 126.823 239.716 127.178 236.998 128.196C237.42 128.14 237.027 128.18 238.082 128.123C237.961 128.21 237.705 128.167 237.188 128.481C237.527 128.428 237.392 128.417 239.017 128.209C239.055 128.219 239.084 128.202 239.126 128.198C239.084 128.202 239.04 128.215 238.996 128.227C237.072 128.695 235.85 129.031 232.979 129.459C233.033 129.41 233.262 129.375 233.821 129.142C233.497 129.2 233.086 129.306 232.751 129.4L232.761 129.363C230.291 130.044 229.127 130.316 224.388 132.156C224.573 132.102 224.79 132.024 224.971 131.985C224.722 132.062 224.492 132.159 224.246 132.229C222.614 132.813 220.912 133.505 218.398 134.552C218.327 134.573 218.258 134.618 218.143 134.651C218.005 134.71 217.832 134.807 217.625 134.91C218.097 134.758 217.969 134.779 219.229 134.335C219.325 134.281 219.44 134.248 219.545 134.22C219.382 134.28 219.405 134.286 219.229 134.335C219.118 134.385 218.88 134.481 218.424 134.661C218.634 134.637 218.428 134.647 219.07 134.53C218.21 134.818 215.311 135.789 212.806 137.005L213.122 136.89C213.122 136.89 213.137 136.894 213.001 136.977C213.608 136.78 214.179 136.417 216.804 135.705L216.796 135.821C216.656 135.887 216.474 135.958 215.609 136.268C215.65 136.177 215.594 136.264 215.85 136.071C215.045 136.398 214.397 136.45 212.581 137.497C212.686 137.47 212.935 137.393 213.59 137.106C213.586 137.121 213.606 137.11 213.463 137.215L213.457 137.237L213.478 137.219C213.583 137.191 214.052 137.053 214.637 136.788C214.627 136.824 214.66 136.793 214.591 136.894C215.231 136.784 215.639 136.63 217.281 135.947L217.227 135.996C217.456 135.992 218.383 135.721 219.394 135.236C218.68 135.381 218.645 135.215 216.732 135.993C218.201 135.265 220.282 134.758 222.489 134.001L222.504 134.005C222.59 133.988 222.817 134.047 223.612 133.757C223.581 133.812 223.623 133.776 223.5 133.87C223.802 133.893 224.766 133.49 226.161 133.175C226.08 133.233 225.983 133.231 225.697 133.385C226.101 133.333 226.001 133.165 227.916 132.82C226.468 133.239 224.059 133.755 221.395 134.669C221.894 135.153 223.711 134.106 224.851 134.418C225.093 134.363 225.395 134.299 225.619 134.224C225.27 134.369 225.556 134.246 224.788 134.645C225.686 134.658 226.966 133.786 229.908 133.283C229.047 133.87 228.921 133.444 226.477 134.47C227.25 134.317 226.715 134.43 228.7 133.977C228.293 134.186 228.568 133.927 227.442 134.476C227.559 134.491 227.479 134.486 227.788 134.488C227.277 134.867 227.415 134.572 225.925 135.232C225.817 135.417 229.833 134.169 227.339 136.111L228.158 135.969C226.97 136.417 226.16 137.057 224.682 138.114L224.605 138.157C224.575 138.267 219.514 139.944 220.143 140.107C219.584 140.34 219.561 140.216 217.345 141.357C217.481 141.455 217.347 141.499 217.758 141.362C216.339 142.001 215.051 142.517 212.844 143.833C213.486 143.803 212.976 143.883 214.365 143.354C214.312 143.458 214.271 143.314 213.983 143.766C215.064 143.41 216.135 142.916 218.723 141.691C217.835 142.169 215.382 143.437 213.5 144.397L213.816 144.282C211.094 145.638 207.832 147.538 204.224 149.868C203.971 149.96 203.829 149.884 202.859 150.663L203.336 150.787C193.007 157.276 171.75 167.454 160.383 181.547C159.13 182.67 160.099 181.457 156.04 186.536C155.872 186.847 155.343 186.851 154.439 188.419C154.423 188.478 154.443 188.404 154.337 188.786C156.093 193.305 146.097 198.943 145.973 205.092C145.865 205.04 145.739 204.968 145.629 204.924C146.407 205.283 145.055 207.648 143.209 207.247C142.509 207.105 140.53 211.677 141.487 213.036C142.83 214.904 138.278 218.359 137.724 221.419C137.724 221.419 137.772 221.393 137.907 221.286L137.917 221.454L138.042 221.384C139.127 221.367 135.266 228.756 137.776 226.346C139.511 220.655 144.107 212.96 146.534 205.237L146.959 205.403C147.932 202.53 149.043 201.094 152.003 197.848C152.332 197.894 151.29 198.812 152.68 198.662C152.651 198.709 151.351 200.151 152.502 199.599C152.068 200.14 149.717 203.387 148.376 205.653C147.885 205.959 147.842 206.026 146.773 207.457C147.039 207.463 147.009 207.573 147.523 207.329C144.477 218.497 141.099 228.807 136.778 242.061C136.936 241.724 137.107 241.399 137.258 241.06C137.076 245.185 141.402 259.914 146.822 257.582C147.721 256.769 149.482 257.186 149.985 259.215C150.54 263.201 151.118 267.311 154.614 270.117C155.974 270.132 156.306 273.603 158.776 271.836C157.998 273.24 158.49 277.895 160.339 280.579C159.399 282.217 158.181 285.065 159.802 287.841C160.164 287.265 160.185 286.515 160.838 286.149C162.237 287.961 161.281 292.303 163.949 295.374C163.688 293.204 167.952 295.288 165.883 296.868C164.958 295.101 164.678 300.492 166.42 297.425C166.496 297.382 166.396 297.655 166.988 297.572C166.807 299.344 171.103 301.373 169.511 295.614C170.657 295.376 170.55 296.057 172.05 294.037C173.841 291.849 176.595 302.658 174.294 306.839C173.928 308.106 174.705 312.67 172.707 311.993C171.755 312.557 172.716 314.311 173.538 314.981C172.892 316.876 169.844 316.974 169.072 320.355C168.123 320.085 167.735 320.756 168.4 322.259C165.808 322.263 164.512 323.69 164.046 327.962C162.8 328.709 161.401 333.093 163.796 336.093C156.972 346.004 170.411 367.871 176.957 380.917C179.311 385.622 181.877 388.092 184.302 390.249C188.779 394.238 192.8 397.172 194.166 411.242C194.313 413.383 194.684 415.51 195.185 417.664C197.444 427.297 202.577 436.873 203.985 445.97C205.512 448.264 206.778 449.089 208.45 452.059L208.413 452.049C208.566 453.199 209.456 454.619 210.976 456.085C210.926 456.032 210.79 455.934 210.618 455.913C211.311 456.431 211.348 458.441 213.494 459.258C213.196 458.133 213.193 459.023 211.693 456.019C212.733 456.25 213.134 458.472 214.498 459.535C214.48 459.687 215.208 460.727 215.671 461.784C215.151 461.373 215.741 461.763 214.05 460.332C214.825 461.525 215.866 463.457 217.501 465.503C217.501 465.503 217.378 465.274 217.338 465.067C217.487 465.263 217.996 465.947 218.535 465.378L218.467 465.037C218.815 465.482 219.298 465.789 220.032 466.924C219.972 466.909 219.966 466.813 219.101 466.446C219.147 466.513 219.063 466.436 219.466 466.974C219.451 466.97 219.41 466.944 219.331 466.876C220.112 469.22 224.019 471.424 226.138 473.659C226.139 473.597 226.148 473.623 226.157 473.444C226.157 473.444 226.197 473.533 226.609 473.955C226.604 473.914 226.635 473.946 226.48 473.685C226.637 473.765 226.529 473.714 226.898 473.936L226.921 473.941L226.925 473.927C227.002 474.089 227.247 474.026 227.646 474.492C227.494 474.453 227.586 474.413 227.052 474.259C227.117 474.26 227.249 474.664 227.594 474.738C227.69 474.685 228.289 475.25 228.335 475.025C228.358 475.031 228.406 475.209 228.667 475.293L228.671 475.278C228.785 475.307 228.683 475.383 229.36 475.811C229.349 475.793 229.359 475.756 229.376 475.697C229.475 475.778 229.416 475.786 229.786 475.977L229.768 475.893C229.728 475.804 230.01 476.193 230.565 476.478L230.822 476.663L230.798 476.602L231.105 476.815C231.105 476.815 231.082 476.81 231.096 476.758C231.19 476.861 231.082 476.81 231.468 476.973C231.571 477.039 231.518 477.025 231.824 477.183C231.824 477.183 231.779 477.109 231.728 477.001C232.149 477.268 231.914 477.207 232.764 477.687C232.758 477.623 232.79 477.655 232.687 477.526C233.296 477.999 234.197 478.351 235.152 478.804L234.834 478.485C235.004 478.545 235.417 479.109 235.854 479.143C235.747 478.942 235.844 479.18 235.241 478.63C235.294 478.644 235.497 478.878 235.505 478.557C235.57 478.613 235.752 478.778 235.799 478.46C230.262 475.164 224.264 467.803 224.506 461.906C224.129 461.564 223.576 461.42 223.276 460.949C226.495 461.407 223.793 461.721 221.194 457.314C221.697 457.641 222.889 458.352 223.761 458.516C224.931 458.78 225.526 458.124 223.085 454.38C231.433 458.47 231.214 451.122 225.961 446.12C228.442 447.34 236.365 453.114 236.36 443.082C236.961 442.466 237.023 440.625 239.101 440.629C236.981 448.652 243.146 432.193 245.877 428.454C246.38 428.427 248.792 426.4 251.469 427.938C251.64 426.439 251.444 427.002 254.931 426.05C258.857 427.212 261.713 428.048 263.9 422.719C269.743 419.151 265.63 406.265 274.506 401.918C291.682 393.491 298.868 381.477 287.514 377.04L287.581 377.034ZM310.244 173.629C310.758 173.329 310.496 173.836 311.111 173.814C310.497 173.978 309.138 174.31 308.543 173.879C309.131 173.836 309.672 173.701 310.244 173.629ZM294.482 142.947C294.766 143.036 295.201 143.078 295.562 143.243C295.997 143.372 296.319 143.676 296.243 144.333C295.687 144.346 294.817 144.026 295.697 143.341C295.646 143.289 295.622 143.259 295.562 143.243C295.372 143.194 295.013 143.376 294.194 142.872L294.482 142.947ZM185.286 213.918C185.678 213.382 185.925 213.808 186.09 214.623C185.803 214.485 185.864 214.706 185.244 213.923L185.286 213.918ZM162.34 281.508C162.118 281.931 161.811 280.544 160.451 280.585C160.598 280.143 161.414 274.458 162.367 281.5L162.348 281.51L162.34 281.508ZM194.786 293.346C194.39 294.927 197.019 297.374 193.693 298.919C192.063 298.323 192.751 295.391 194.786 293.346ZM309.565 156.43C309.504 156.651 309.636 156.465 309.565 156.43V156.43Z" fill="url(#paint0_radial_54738_241766)"/>
<path d="M421.817 166.409C421.876 166.439 421.89 166.443 421.876 166.439L421.805 166.398C421.805 166.398 421.812 166.4 421.819 166.402L421.817 166.409Z" fill="url(#paint1_linear_54738_241766)"/>
<path d="M451.735 198.58C444.254 188.17 435.422 178.108 425.166 168.431C424.794 168.098 424.375 167.73 423.813 167.271C424.153 167.634 423.949 167.361 424.752 168.103C424.796 168.178 424.894 168.258 425.05 168.416L424.915 168.326C425.181 168.608 424.964 168.379 425.596 168.99L425.46 168.901C425.575 169.009 425.43 169.066 426.227 169.831C425.71 169.643 425.409 169.085 424.212 168.083C424.521 168.557 424.502 168.481 425.345 169.368C425.303 169.318 425.216 169.256 425.114 169.191C425.525 169.872 425.174 169.348 426.198 170.597L426.063 170.562C426.365 171.058 427.242 171.741 428.298 173.045C428.275 173.04 428.125 173.001 427.788 172.773C427.255 172.154 426.95 172.297 425.997 171.082C426.008 171.101 426.062 171.138 426.159 171.163C425.782 170.648 424.435 169.466 422.974 168.776C423.789 169.679 424.477 169.974 426.161 171.732C426.15 171.713 426.105 171.702 426.067 171.692C427.588 173.116 427.597 172.795 429.114 174.517C428.058 173.671 429.049 174.461 427.451 173.317C428.03 174.634 429.926 176.375 431.154 177.897C431.097 178.159 427.663 175.14 429.123 176.864L429.086 176.854C429.276 177.321 430.081 177.685 431.747 179.162C429.06 178.236 426.849 174.892 423.542 172.339C427.696 175.109 429.772 174.947 423.1 169.818C423.094 169.84 423.131 169.85 423.169 170.002C421.708 169.169 420.648 167.966 418.06 166.829C418.125 166.941 418.008 166.871 418.462 167.343C417.929 167.009 417.261 166.301 416.016 165.469C416.077 165.682 416.021 165.509 416.288 165.933C415.95 165.704 415.385 166.262 415.104 165.172L415.239 165.206C414.672 164.421 414.109 164.34 412.604 163.378C412.643 163.467 412.679 163.539 412.724 163.606C412.508 163.433 412.148 163.198 411.599 162.923C411.585 162.975 411.928 163.126 412.533 164.118C412.138 163.78 412.446 163.914 411.417 163.058C412.001 163.897 412.352 164.419 412.472 164.623C411.906 164.036 412.563 164.583 410.776 162.736C410.789 162.834 410.761 162.732 410.87 163.06C410.768 162.994 410.708 162.979 410.353 162.73C410.688 163.195 410.515 162.953 411.265 163.8C411.082 163.651 411.28 163.804 410.77 163.476C410.77 163.476 410.744 163.509 410.77 163.618C410.672 163.396 410.333 163.088 409.701 163.249C409.75 163.42 410.128 163.532 410.983 164.233C410.865 164.14 410.652 163.983 410.445 164.292C410.283 164.211 410.38 164.236 409.993 163.956C410.206 164.286 410.149 164.059 410.827 165.164C409.852 163.801 408.598 163.661 410.76 165.975C410.129 165.419 408.929 164.574 410.7 166.536C410.635 166.48 410.502 166.383 410.103 166.059L410.33 166.536C410.185 166.538 410.022 165.628 409.329 165.64C408.863 165.639 407.251 165.865 407.841 166.71C408.312 167.407 409.925 170.22 410.733 167.476C411.617 168.278 411.953 170.03 413.058 171.876C412.966 171.773 413.031 171.829 412.744 171.622C412.816 171.995 413.813 172.851 414.048 173.961C413.988 173.945 413.981 173.825 413.744 173.67L414.012 174.172L413.541 174.107C414.098 174.352 414.791 175.777 414.237 176.093C414.331 176.417 414.271 176.259 414.538 176.967C414.067 176.846 414.518 177.041 413.645 176.257C413.594 176.583 413.733 176.318 413.924 177.125C413.795 177.068 413.764 176.981 413.188 176.455C413.319 177.222 413.653 176.89 414.394 178.429C414.167 178.292 414.344 178.377 413.516 177.809C413.67 178.204 413.503 177.94 414.006 178.724C413.919 178.805 413.847 178.431 413.459 178.584C413.474 178.588 413.416 178.739 413.506 179.133C413.41 179.045 413.448 179.055 413.167 178.825C413.151 178.939 413.24 178.765 412.969 179.445C412.835 179.292 412.965 179.404 412.527 179.016C412.772 179.434 413.037 179.92 413.343 180.433C414.418 182.358 415.776 184.789 417.35 186.882C417.366 186.823 417.345 186.897 417.45 186.608C417.526 186.682 417.521 186.642 417.948 187.067C417.229 187.025 421.352 193.717 422.475 188.504C422.404 188.186 422.313 187.792 422.194 187.501C424.403 190.135 425.909 191.61 428.751 196.111L428.557 195.998C428.523 196.266 428.503 196.624 428.553 196.873C426.926 195.201 428.876 200.05 430.484 200.786C431.247 199.726 430.023 199.91 429.958 197.991C430.851 198.615 432.582 200.432 431.287 197.061C432.02 197.052 431.4 197.027 432.605 197.399C432.598 197.279 432.696 197.304 432.45 196.807C432.499 196.859 432.628 196.971 432.839 197.222C432.772 197.032 432.522 195.689 431.589 194.203C431.587 194.439 431.627 194.726 431.666 194.933C430.746 193.403 430.796 193.281 429.327 190.585C429.588 190.454 429.338 190.603 429.716 189.769C429.855 189.789 429.813 189.652 430.034 189.866C429.743 188.182 428.128 186.954 426.519 185.39C425.813 184.727 425.133 184.001 424.562 183.144L424.681 183.151C423.366 180.651 422.052 177.315 420.968 174.046C421.765 174.527 421.96 174.261 423.477 175.984C423.172 175.78 423.477 175.984 422.686 175.339C423.407 176.661 423.817 176.86 424.571 179.358C424.496 179.339 424.523 179.385 424.399 179.314C425.567 181.476 427.585 184.219 430.278 186.874C430.321 186.949 430.357 187.021 430.401 187.064C430.678 187.451 431.071 187.567 431.545 187.594C432.767 187.647 434.493 186.961 436.057 188.57C435.836 188.931 435.782 189.351 435.621 189.555C435.452 189.811 435.122 189.758 434.135 188.953C434.136 189.095 434.113 189.263 434.091 189.399C433.914 189.314 433.727 189.408 433.518 189.923C433.594 190.227 433.811 190.598 433.963 190.858C433.849 190.75 433.707 190.626 433.576 190.522C433.854 191.619 433.26 191.79 434.789 193.469C434.783 193.404 434.587 192.817 434.925 192.612C434.828 192.327 434.635 191.985 434.49 191.727C435.177 192.085 434.607 191.741 435.875 192.776C435.875 192.776 435.852 192.715 435.814 192.564C436.099 193.552 437.08 193.717 437.623 195.908C432.334 191.514 438.02 197.872 437.898 200.974C438.227 203.9 438.384 199.812 433.704 202.819C433.212 202.14 433.382 202.452 431.986 200.729C431.879 200.764 432.142 201.029 431.694 201.254C431.825 201.445 430.711 201.38 430.68 202.122C428.023 200.573 426.906 195.701 424.239 191.521C424.048 191.117 424.505 193.381 423.615 192.576C423.105 193.535 424.447 197.746 426.772 199.621C426.648 200.638 427.883 200.616 427.582 202.433C427.216 202.22 425.985 200.855 426.147 202.656C425.349 202.468 423.958 201.614 424.106 203.664L424.025 203.525C423.97 203.866 424.782 207.586 421.792 208.114C422.234 208.858 420.512 209.79 420.631 212.204C419.358 212.651 418.86 211.474 417.268 210.308C416.235 210.24 420.745 214.75 416.796 213.801C416.289 213.229 416.695 213.215 413.741 212.954C412.305 214.038 415.214 215.637 417.587 217.453C417.587 217.453 417.651 217.453 417.882 217.347C417.888 217.467 425.318 229.813 419.326 229.507C416.391 229.607 411.445 225.482 407.947 227.308C407.828 230.11 407.1 239.276 407.952 244.947C407.979 246.746 405.814 249.142 411.517 248.245C416.06 253.869 411.427 252.523 422.37 252.377C423.178 251.93 422.449 250.29 425.015 250.215C424.055 248.682 426.415 247.74 426.482 246.266C423.846 243.925 426.225 239.531 430.725 237.252C429.044 232.876 430.769 232.047 436.451 234.12C437.953 226.148 441.137 237.429 441.71 236.384C442.461 237.373 443.01 238.88 444.411 239.87C444.586 241.051 445.931 242.012 447.596 243.347C448.713 245.78 452.337 248.035 452.459 251.783C452.883 254.512 449.76 253.135 448.36 253.234C448.262 253.066 448.349 253.215 448.072 252.742C447.352 254.798 454.525 264.301 452.387 254.361C452.388 254.416 452.659 254.967 453.123 255.26C453.304 255.046 453.084 254.54 453.432 253.927C453.474 253.922 453.395 253.917 453.63 254.08C453.844 253.661 453.307 253.2 453.628 251.996C455.421 250.869 451.604 249.417 452.622 246.3C452.942 246.304 452.645 247.135 453.844 247.324C458.965 251.4 442.919 235.076 441.914 228.631C443.348 227.61 442.899 228.726 444.709 231.352L444.783 230.858C444.705 231.138 446.238 232.715 445.647 231.301C448.957 237.942 454.564 239.822 456.871 249.103C456.815 249.072 456.942 249.137 456.608 248.893C456.851 250.407 458.647 251.934 459.869 254.851C459.858 254.833 459.844 254.742 459.916 254.54C460.007 254.445 460.416 254.849 460.906 255.133C461.304 255.377 461.761 255.549 462.117 255.341C462.559 255.912 461.855 256.189 463.558 256.76C463.499 256.626 463.585 256.806 463.111 255.69C463.327 255.92 463.236 255.959 464.04 256.757C463.584 254.202 460.703 251.932 459.61 247.548C462.282 250.853 459.315 245.365 462.83 246.803C462.866 247.965 463.891 247.115 464.064 249.306C463.72 248.957 463.757 252.636 465.191 253.422C465.254 252.768 465.046 252.651 465.011 251.687C465.112 252.186 465.718 252.744 465.54 254.325C465.518 254.319 465.549 254.208 465.443 254.158C465.447 254.198 465.364 254.153 465.376 254.598C465.376 254.598 465.24 254.508 464.903 254.335C464.96 255.423 464.652 254.373 465.529 256.2C465.55 256.126 465.591 255.979 465.496 255.458C465.777 255.83 465.524 256.017 466.239 256.934C466.239 256.934 466.227 256.892 466.288 256.671C466.6 256.79 466.532 257.175 467.169 257.339C467.094 257.32 467.015 257.315 466.903 257.286L466.999 257.745C466.999 257.745 466.73 257.502 466.443 257.066C466.557 257.316 465.976 257.498 466.922 258.538C466.955 258.562 466.856 258.427 467.027 258.391C467.214 258.439 466.831 259.233 467.745 259.87C467.663 260.306 467.469 260.912 467.646 262.543C467.882 261.933 467.721 262.563 467.988 260.666C468.025 260.675 468.027 260.755 468.449 260.682L468.446 261.036L468.348 260.956C468.376 261.057 467.769 261.36 468.32 262.259C469.132 262.112 468.528 261.002 469.005 264.715C469.319 264.598 469.05 263.037 469.212 261.596C469.328 261.901 469.208 261.61 469.636 262.462L469.835 262.095C469.851 263.33 471.973 267.307 471.448 261.956C472.373 261.893 472.794 265.379 474.251 264.703C474.307 264.733 474.274 264.764 474.451 264.793C474.489 264.227 474.463 263.289 474.516 262.466C474.727 262.86 475.46 264.058 475.352 262.578C475.952 267.143 479.618 277.704 476.779 282.279C476.285 284.331 475.234 277.937 474.006 281.805C473.952 281.767 473.997 281.779 473.862 281.689C473.638 281.687 474.004 281.986 473.082 283.099C469.857 281.656 460.318 265.376 461.945 281.553C461.745 286.166 453.381 273.004 446.936 268.037C444.924 267.939 447.168 260.93 446.034 255.975C444.523 255.809 442.42 254.749 439.378 255.145C438.69 255.939 438.584 252.794 437.925 254.772C437.807 255.539 436.303 254.001 436.167 255.947C433.518 250.185 424.131 259.135 420.685 256.444C417.602 259.228 414.811 249.382 413.328 256.199C412.832 258.77 409.89 259.902 406.473 262.356C402.996 265.197 407.266 272.567 398.424 276.763C394.013 277.376 390.05 282.097 386.4 288.705C385.185 289.72 376.015 299.616 379.21 300.735C382.775 310.796 369.448 322.547 370.879 333.15C370.587 335.482 373.61 334.205 373.469 336.6C373.627 340.507 377.286 342.637 376.443 347.48C375.741 352.595 379.876 357.412 382.859 362.699C384.392 363.85 382.877 369.057 387.996 367.434C396.797 362.84 397.977 372.731 408.746 366.962C409.369 367.832 411.933 365.814 413.513 366.164C423.546 365.659 412.096 377.504 424.694 375.321C424.586 375.79 423.966 378.922 425.528 377.673C424.338 383.5 417.489 388.491 415.749 394.99C410.922 413.087 405.578 423.941 389.441 439.249C378.335 449.778 366.068 468.264 347.74 476.404C347.987 476.467 347.74 476.404 348.488 476.256C348.194 476.3 348.312 476.653 347.501 477.171C347.912 477.221 347.908 477.236 348.031 477.228C348.16 477.198 348.442 477.136 349.398 476.963C349.383 477.015 349.412 476.967 349.24 477.096C349.689 477.156 349.72 477.101 350.009 477.017C350.293 476.948 350.827 476.848 352.329 476.815C352.407 477.167 352.141 477.201 353.196 476.959C353.225 477.084 353.046 476.92 353.074 477.338C353.39 477.3 353.134 477.353 354.489 477.045L354.562 477.301C361.413 476.201 379.538 469.019 385.533 465.04C385.529 465.055 385.576 464.972 385.444 465.017C392.55 461.859 397.869 459.206 405.966 452.081L405.956 452.118C425.701 442.676 439.006 423.58 453.123 405.308L453.123 405.363C455.171 402.811 461.659 392.629 461.477 392.621C469.13 382.754 489.005 338.59 484.805 288.338C482.14 256.458 471.664 226.269 451.706 198.541L451.735 198.58ZM467.426 257.397C467.463 257.406 467.523 257.422 467.58 257.42C467.532 257.448 467.516 257.42 467.426 257.397Z" fill="url(#paint2_radial_54738_241766)"/>
<path d="M422.961 167.481C423.332 167.831 423.687 168.184 424.058 168.533C424.426 168.865 424.763 169.166 425.107 169.468C424.603 168.926 424.246 168.7 424.204 168.618C423.325 167.741 423.136 167.606 422.961 167.481Z" fill="url(#paint3_linear_54738_241766)"/>
<path d="M421.824 166.416C421.767 166.386 421.67 166.329 421.517 166.21C421.671 166.353 421.511 166.232 421.981 166.663C421.558 166.324 421.369 166.045 420.098 165.179C420.442 165.482 421.041 166.032 422.492 167.152L422.5 167.122C422.725 167.331 422.828 167.397 422.937 167.472C422.557 167.121 422.205 166.76 421.818 166.407L421.824 166.416Z" fill="url(#paint4_linear_54738_241766)"/>
<g opacity="0.32">
<g clip-path="url(#clip1_54738_241766)">
<path d="M208.266 291.011C208.761 290.081 209.439 289.269 210.268 288.615C211.098 287.97 212.052 287.501 213.066 287.25C214.214 286.965 215.42 286.957 216.567 287.225C217.497 287.443 218.377 287.836 219.156 288.381L217.606 290.265L224.986 291.145L223.126 283.732L221.434 285.784C219.323 284.201 216.701 283.422 214.063 283.623C211.181 283.832 208.501 285.181 206.608 287.376C206.072 288.004 205.603 288.682 205.217 289.411L204.891 290.031L207.931 291.631L208.258 291.011H208.266Z" fill="#15C1E6"/>
<path d="M221.6 297.16C221.064 298.064 220.343 298.843 219.481 299.446C218.626 300.05 217.646 300.468 216.616 300.678C215.452 300.904 214.254 300.854 213.115 300.527C212.193 300.259 211.339 299.823 210.593 299.245L212.235 297.436L204.914 296.18L206.397 303.693L208.189 301.725C210.216 303.417 212.788 304.322 215.435 304.255C218.325 304.188 221.064 302.973 223.066 300.879C223.635 300.284 224.13 299.622 224.557 298.91L224.909 298.307L221.952 296.557L221.592 297.16H221.6Z" fill="#15C1E6"/>
</g>
</g>
<g opacity="0.5">
<g filter="url(#filter0_dd_54738_241766)">
<rect x="133.973" y="352.849" width="129.501" height="40.8425" rx="7.96927" fill="url(#paint5_linear_54738_241766)"/>
<rect x="133.334" y="352.21" width="130.778" height="42.1194" rx="8.60772" stroke="url(#paint6_linear_54738_241766)" stroke-width="1.27689"/>
</g>
<path fill-rule="evenodd" clip-rule="evenodd" d="M149.648 377.945C147.931 376.229 146.869 373.858 146.869 371.239C146.869 366.002 151.115 361.757 156.352 361.757C161.589 361.757 165.834 366.002 165.834 371.239C165.834 373.858 164.772 376.229 163.056 377.945L163.057 377.946L156.352 384.652L149.647 377.946L149.648 377.945Z" fill="#15C1E6"/>
<path d="M177.313 370.47H175.923V369.423H178.66V376.799H177.313V370.47ZM181.569 375.281C181.932 375.548 182.499 375.837 183.226 375.837C183.771 375.837 184.199 375.719 184.509 375.345C184.861 374.928 185.043 374.19 185.043 373.218C184.829 373.624 184.263 374.169 183.119 374.169C181.964 374.169 180.842 373.41 180.842 371.903C180.842 370.47 181.847 369.316 183.482 369.316C184.733 369.316 185.385 369.925 185.727 370.449C186.037 370.909 186.358 371.817 186.358 373.015C186.358 374.329 186.069 375.388 185.503 376.029C185.011 376.606 184.22 376.927 183.269 376.927C182.029 376.927 181.302 376.435 181.045 376.232L181.569 375.281ZM184.893 371.764C184.893 371.026 184.412 370.353 183.525 370.353C182.638 370.353 182.168 371.026 182.168 371.764C182.168 372.501 182.638 373.186 183.525 373.186C184.412 373.186 184.893 372.587 184.893 371.764ZM190.468 376.916C188.971 376.916 187.731 376.168 187.731 374.736C187.731 373.848 188.298 373.186 189.142 372.94V372.908C188.608 372.705 187.956 372.159 187.956 371.251C187.956 369.989 189.142 369.316 190.468 369.316C191.793 369.316 192.98 369.989 192.98 371.251C192.98 372.159 192.328 372.705 191.793 372.908V372.94C192.638 373.186 193.204 373.848 193.204 374.736C193.204 376.168 191.964 376.916 190.468 376.916ZM190.468 372.437C191.13 372.437 191.612 372.063 191.612 371.422C191.612 370.791 191.13 370.385 190.468 370.385C189.805 370.385 189.324 370.791 189.324 371.422C189.324 372.063 189.805 372.437 190.468 372.437ZM190.468 375.826C191.195 375.826 191.804 375.398 191.804 374.629C191.804 373.859 191.227 373.41 190.468 373.41C189.709 373.41 189.131 373.859 189.131 374.629C189.131 375.398 189.741 375.826 190.468 375.826ZM195.711 376.916C195.197 376.916 194.845 376.617 194.845 376.125C194.845 375.623 195.197 375.324 195.711 375.324C196.202 375.324 196.566 375.623 196.566 376.125C196.566 376.617 196.202 376.916 195.711 376.916ZM200.804 375.762C201.446 375.762 202.226 375.388 202.226 374.383C202.226 373.389 201.52 372.95 200.687 372.95C200.195 372.95 199.703 373.111 199.361 373.335L198.73 372.961L199.425 369.423H203.348L203.338 370.567H200.302L199.949 372.213C200.302 372.063 200.74 371.967 201.189 371.967C202.536 371.967 203.637 372.854 203.637 374.404C203.637 376.018 202.279 376.916 200.751 376.916C199.35 376.916 198.399 375.944 198.217 375.687L198.955 374.81C199.329 375.281 199.96 375.762 200.804 375.762ZM206.571 370.47H205.181V369.423H207.918V376.799H206.571V370.47ZM211.361 376.916C210.848 376.916 210.495 376.617 210.495 376.125C210.495 375.623 210.848 375.324 211.361 375.324C211.853 375.324 212.216 375.623 212.216 376.125C212.216 376.617 211.853 376.916 211.361 376.916ZM214.885 370.47H213.495V369.423H216.232V376.799H214.885V370.47ZM218.254 373.121C218.254 371.187 219.173 369.316 221.236 369.316C223.299 369.316 224.208 371.187 224.208 373.121C224.208 375.056 223.299 376.927 221.236 376.927C219.162 376.927 218.254 375.056 218.254 373.121ZM222.797 373.1C222.797 371.593 222.305 370.513 221.236 370.513C220.167 370.513 219.665 371.593 219.665 373.1C219.665 374.597 220.167 375.687 221.236 375.687C222.305 375.687 222.797 374.597 222.797 373.1ZM225.057 373.121C225.057 371.187 225.977 369.316 228.04 369.316C230.103 369.316 231.012 371.187 231.012 373.121C231.012 375.056 230.103 376.927 228.04 376.927C225.966 376.927 225.057 375.056 225.057 373.121ZM229.6 373.1C229.6 371.593 229.109 370.513 228.04 370.513C226.971 370.513 226.468 371.593 226.468 373.1C226.468 374.597 226.971 375.687 228.04 375.687C229.109 375.687 229.6 374.597 229.6 373.1ZM233.074 376.916C232.561 376.916 232.208 376.617 232.208 376.125C232.208 375.623 232.561 375.324 233.074 375.324C233.566 375.324 233.929 375.623 233.929 376.125C233.929 376.617 233.566 376.916 233.074 376.916ZM238.969 375.217H235.313V374.18L238.873 369.391H240.305V374.094H241.332V375.217H240.305V376.799H238.969V375.217ZM239.001 374.116V370.919L236.628 374.116H239.001ZM244.971 375.762C245.612 375.762 246.393 375.388 246.393 374.383C246.393 373.389 245.687 372.95 244.853 372.95C244.362 372.95 243.87 373.111 243.528 373.335L242.897 372.961L243.592 369.423H247.515L247.504 370.567H244.468L244.116 372.213C244.468 372.063 244.907 371.967 245.356 371.967C246.703 371.967 247.804 372.854 247.804 374.404C247.804 376.018 246.446 376.916 244.917 376.916C243.517 376.916 242.566 375.944 242.384 375.687L243.122 374.81C243.496 375.281 244.126 375.762 244.971 375.762Z" fill="white"/>
<g clip-path="url(#clip2_54738_241766)">
<path d="M187.568 419.595C188.412 418.007 189.571 416.619 190.988 415.503C192.404 414.401 194.036 413.6 195.767 413.17C197.728 412.684 199.788 412.669 201.749 413.127C203.337 413.499 204.84 414.172 206.171 415.102L203.523 418.322L216.13 419.824L212.954 407.16L210.063 410.666C206.457 407.961 201.978 406.631 197.47 406.974C192.548 407.332 187.968 409.636 184.734 413.385C183.818 414.458 183.017 415.617 182.359 416.862L181.801 417.921L186.995 420.654L187.553 419.595H187.568Z" fill="#15C1E6"/>
<path d="M210.349 430.099C209.433 431.645 208.203 432.975 206.729 434.006C205.269 435.036 203.595 435.752 201.835 436.109C199.846 436.496 197.799 436.41 195.853 435.852C194.279 435.394 192.82 434.65 191.546 433.662L194.351 430.571L181.844 428.425L184.377 441.261L187.439 437.898C190.902 440.789 195.295 442.334 199.817 442.22C204.754 442.105 209.433 440.03 212.854 436.453C213.827 435.437 214.671 434.306 215.401 433.09L216.002 432.06L210.95 429.069L210.335 430.099H210.349Z" fill="#15C1E6"/>
</g>
</g>
<g opacity="0.3">
<g filter="url(#filter1_dd_54738_241766)">
<rect x="412.68" y="308.921" width="75.2707" height="23.7392" rx="4.63204" fill="url(#paint7_linear_54738_241766)"/>
<rect x="412.185" y="308.426" width="76.2602" height="24.7288" rx="5.12683" stroke="url(#paint8_linear_54738_241766)" stroke-width="0.98957"/>
</g>
<path fill-rule="evenodd" clip-rule="evenodd" d="M421.791 323.508C420.793 322.51 420.176 321.132 420.176 319.61C420.176 316.566 422.644 314.098 425.688 314.098C428.731 314.098 431.199 316.566 431.199 319.61C431.199 321.132 430.582 322.51 429.584 323.508L429.585 323.508L425.688 327.406L421.79 323.508L421.791 323.508Z" fill="#15C1E6"/>
<path d="M435.579 321.906L437.14 320.463C437.499 320.13 437.826 319.758 437.826 319.314C437.826 318.863 437.538 318.576 437.029 318.576C436.461 318.576 436.141 318.935 435.925 319.177L435.534 318.661C435.677 318.452 436.141 317.877 437.094 317.877C438.054 317.877 438.675 318.406 438.675 319.203C438.675 319.973 438.067 320.541 437.786 320.809L436.781 321.75H438.864V322.448H435.69L435.579 321.906ZM439.5 320.202C439.5 319.02 440.062 317.877 441.322 317.877C442.582 317.877 443.137 319.02 443.137 320.202C443.137 321.384 442.582 322.527 441.322 322.527C440.055 322.527 439.5 321.384 439.5 320.202ZM442.275 320.189C442.275 319.268 441.975 318.609 441.322 318.609C440.669 318.609 440.362 319.268 440.362 320.189C440.362 321.103 440.669 321.769 441.322 321.769C441.975 321.769 442.275 321.103 442.275 320.189ZM446.229 320.111C446.595 320.195 447.078 320.502 447.078 321.149C447.078 322.011 446.327 322.52 445.406 322.52C444.551 322.52 443.97 321.926 443.859 321.769L444.309 321.234C444.538 321.521 444.923 321.815 445.439 321.815C445.955 321.815 446.236 321.593 446.236 321.116C446.236 320.646 445.805 320.43 445.341 320.43H445.041V319.81H445.406C445.824 319.81 446.111 319.588 446.111 319.177C446.111 318.818 445.831 318.576 445.374 318.576C444.969 318.576 444.649 318.746 444.433 319.013L444.009 318.537C444.218 318.282 444.734 317.877 445.445 317.877C446.281 317.877 446.934 318.315 446.934 319.066C446.934 319.608 446.523 319.986 446.229 320.091V320.111ZM448.681 322.52C448.367 322.52 448.152 322.337 448.152 322.037C448.152 321.73 448.367 321.547 448.681 321.547C448.981 321.547 449.203 321.73 449.203 322.037C449.203 322.337 448.981 322.52 448.681 322.52ZM449.928 320.202C449.928 319.02 450.489 317.877 451.749 317.877C453.01 317.877 453.565 319.02 453.565 320.202C453.565 321.384 453.01 322.527 451.749 322.527C450.483 322.527 449.928 321.384 449.928 320.202ZM452.703 320.189C452.703 319.268 452.402 318.609 451.749 318.609C451.096 318.609 450.79 319.268 450.79 320.189C450.79 321.103 451.096 321.769 451.749 321.769C452.402 321.769 452.703 321.103 452.703 320.189ZM454.824 322.52C454.511 322.52 454.296 322.337 454.296 322.037C454.296 321.73 454.511 321.547 454.824 321.547C455.125 321.547 455.347 321.73 455.347 322.037C455.347 322.337 455.125 322.52 454.824 322.52ZM456.977 318.582H456.128V317.943H457.8V322.448H456.977V318.582ZM460.138 318.582H459.29V317.943H460.961V322.448H460.138V318.582ZM464.769 320.111C465.135 320.195 465.618 320.502 465.618 321.149C465.618 322.011 464.867 322.52 463.946 322.52C463.091 322.52 462.509 321.926 462.398 321.769L462.849 321.234C463.078 321.521 463.463 321.815 463.979 321.815C464.495 321.815 464.775 321.593 464.775 321.116C464.775 320.646 464.344 320.43 463.881 320.43H463.58V319.81H463.946C464.364 319.81 464.651 319.588 464.651 319.177C464.651 318.818 464.371 318.576 463.913 318.576C463.509 318.576 463.189 318.746 462.973 319.013L462.549 318.537C462.758 318.282 463.273 317.877 463.985 317.877C464.821 317.877 465.474 318.315 465.474 319.066C465.474 319.608 465.063 319.986 464.769 320.091V320.111ZM467.221 322.52C466.907 322.52 466.692 322.337 466.692 322.037C466.692 321.73 466.907 321.547 467.221 321.547C467.521 321.547 467.743 321.73 467.743 322.037C467.743 322.337 467.521 322.52 467.221 322.52ZM471.119 318.648H468.664V317.943H471.805L472.034 318.439L469.944 322.448H469.095L471.119 318.648ZM474.156 321.815C474.548 321.815 475.025 321.586 475.025 320.972C475.025 320.365 474.594 320.097 474.084 320.097C473.784 320.097 473.484 320.195 473.275 320.333L472.889 320.104L473.314 317.943H475.71L475.704 318.641H473.849L473.634 319.647C473.849 319.555 474.117 319.497 474.391 319.497C475.214 319.497 475.887 320.039 475.887 320.986C475.887 321.972 475.057 322.52 474.124 322.52C473.268 322.52 472.687 321.926 472.576 321.769L473.027 321.234C473.255 321.521 473.64 321.815 474.156 321.815Z" fill="white"/>
<g clip-path="url(#clip3_54738_241766)">
<path d="M443.832 348.706C444.323 347.783 444.997 346.976 445.82 346.327C446.644 345.687 447.592 345.221 448.598 344.971C449.738 344.688 450.936 344.68 452.075 344.946C452.998 345.163 453.872 345.553 454.645 346.094L453.106 347.966L460.434 348.839L458.588 341.478L456.908 343.516C454.812 341.944 452.208 341.17 449.588 341.37C446.727 341.578 444.065 342.917 442.186 345.096C441.653 345.72 441.187 346.394 440.805 347.117L440.48 347.733L443.5 349.321L443.824 348.706H443.832Z" fill="#15C1E6"/>
<path d="M457.072 354.811C456.54 355.709 455.825 356.483 454.968 357.082C454.12 357.681 453.147 358.096 452.123 358.304C450.967 358.529 449.778 358.479 448.647 358.155C447.732 357.889 446.883 357.456 446.143 356.882L447.773 355.086L440.504 353.838L441.976 361.299L443.756 359.344C445.769 361.024 448.322 361.923 450.951 361.856C453.82 361.789 456.54 360.583 458.528 358.504C459.094 357.913 459.584 357.256 460.008 356.549L460.358 355.951L457.422 354.212L457.064 354.811H457.072Z" fill="#15C1E6"/>
</g>
</g>
<g opacity="0.3">
<g filter="url(#filter2_dd_54738_241766)">
<rect x="385.262" y="138.778" width="76.5046" height="24.1284" rx="4.70798" fill="url(#paint9_linear_54738_241766)"/>
<rect x="384.767" y="138.284" width="77.4942" height="25.1179" rx="5.20276" stroke="url(#paint10_linear_54738_241766)" stroke-width="0.98957"/>
</g>
<path fill-rule="evenodd" clip-rule="evenodd" d="M394.52 153.606C393.506 152.592 392.879 151.191 392.879 149.644C392.879 146.55 395.387 144.042 398.48 144.042C401.574 144.042 404.082 146.55 404.082 149.644C404.082 151.191 403.455 152.592 402.441 153.606L402.442 153.606L398.481 157.567L394.519 153.606L394.52 153.606Z" fill="#15C1E6"/>
<path d="M409.836 148.972H408.858V148.235H410.785V153.429H409.836V148.972ZM412.833 152.36C413.089 152.548 413.488 152.751 414 152.751C414.384 152.751 414.685 152.668 414.903 152.405C415.152 152.111 415.28 151.592 415.28 150.907C415.129 151.193 414.73 151.577 413.925 151.577C413.112 151.577 412.321 151.042 412.321 149.981C412.321 148.972 413.029 148.159 414.181 148.159C415.061 148.159 415.521 148.588 415.762 148.957C415.98 149.281 416.206 149.921 416.206 150.764C416.206 151.69 416.002 152.435 415.603 152.887C415.257 153.293 414.7 153.519 414.03 153.519C413.157 153.519 412.645 153.173 412.464 153.03L412.833 152.36ZM415.174 149.883C415.174 149.364 414.836 148.889 414.211 148.889C413.586 148.889 413.255 149.364 413.255 149.883C413.255 150.403 413.586 150.884 414.211 150.884C414.836 150.884 415.174 150.463 415.174 149.883ZM419.1 153.512C418.046 153.512 417.173 152.985 417.173 151.976C417.173 151.351 417.572 150.884 418.166 150.711V150.689C417.79 150.546 417.331 150.162 417.331 149.522C417.331 148.634 418.166 148.159 419.1 148.159C420.033 148.159 420.869 148.634 420.869 149.522C420.869 150.162 420.41 150.546 420.033 150.689V150.711C420.628 150.884 421.027 151.351 421.027 151.976C421.027 152.985 420.154 153.512 419.1 153.512ZM419.1 150.357C419.566 150.357 419.905 150.094 419.905 149.642C419.905 149.198 419.566 148.912 419.1 148.912C418.633 148.912 418.294 149.198 418.294 149.642C418.294 150.094 418.633 150.357 419.1 150.357ZM419.1 152.744C419.612 152.744 420.041 152.443 420.041 151.901C420.041 151.359 419.634 151.042 419.1 151.042C418.565 151.042 418.159 151.359 418.159 151.901C418.159 152.443 418.588 152.744 419.1 152.744ZM422.792 153.512C422.43 153.512 422.182 153.301 422.182 152.954C422.182 152.601 422.43 152.39 422.792 152.39C423.138 152.39 423.394 152.601 423.394 152.954C423.394 153.301 423.138 153.512 422.792 153.512ZM426.378 152.699C426.83 152.699 427.38 152.435 427.38 151.727C427.38 151.027 426.883 150.719 426.296 150.719C425.949 150.719 425.603 150.832 425.362 150.99L424.918 150.726L425.407 148.235H428.17L428.162 149.04H426.025L425.776 150.199C426.025 150.094 426.333 150.026 426.649 150.026C427.598 150.026 428.373 150.651 428.373 151.742C428.373 152.879 427.417 153.512 426.341 153.512C425.355 153.512 424.685 152.826 424.557 152.646L425.076 152.029C425.34 152.36 425.784 152.699 426.378 152.699ZM430.439 148.972H429.461V148.235H431.388V153.429H430.439V148.972ZM433.812 153.512C433.451 153.512 433.203 153.301 433.203 152.954C433.203 152.601 433.451 152.39 433.812 152.39C434.159 152.39 434.415 152.601 434.415 152.954C434.415 153.301 434.159 153.512 433.812 153.512ZM436.294 148.972H435.315V148.235H437.243V153.429H436.294V148.972ZM438.666 150.839C438.666 149.477 439.313 148.159 440.766 148.159C442.219 148.159 442.859 149.477 442.859 150.839C442.859 152.202 442.219 153.519 440.766 153.519C439.306 153.519 438.666 152.202 438.666 150.839ZM441.865 150.824C441.865 149.763 441.519 149.002 440.766 149.002C440.014 149.002 439.66 149.763 439.66 150.824C439.66 151.878 440.014 152.646 440.766 152.646C441.519 152.646 441.865 151.878 441.865 150.824ZM443.457 150.839C443.457 149.477 444.104 148.159 445.557 148.159C447.01 148.159 447.65 149.477 447.65 150.839C447.65 152.202 447.01 153.519 445.557 153.519C444.097 153.519 443.457 152.202 443.457 150.839ZM446.656 150.824C446.656 149.763 446.31 149.002 445.557 149.002C444.805 149.002 444.451 149.763 444.451 150.824C444.451 151.878 444.805 152.646 445.557 152.646C446.31 152.646 446.656 151.878 446.656 150.824ZM449.102 153.512C448.741 153.512 448.493 153.301 448.493 152.954C448.493 152.601 448.741 152.39 449.102 152.39C449.449 152.39 449.704 152.601 449.704 152.954C449.704 153.301 449.449 153.512 449.102 153.512ZM452.689 152.699C453.141 152.699 453.69 152.435 453.69 151.727C453.69 151.027 453.193 150.719 452.606 150.719C452.26 150.719 451.914 150.832 451.673 150.99L451.229 150.726L451.718 148.235H454.481L454.473 149.04H452.335L452.087 150.199C452.335 150.094 452.644 150.026 452.96 150.026C453.909 150.026 454.684 150.651 454.684 151.742C454.684 152.879 453.728 153.512 452.651 153.512C451.665 153.512 450.995 152.826 450.867 152.646L451.387 152.029C451.65 152.36 452.094 152.699 452.689 152.699Z" fill="white"/>
<g clip-path="url(#clip4_54738_241766)">
<path d="M416.926 179.187C417.425 178.249 418.11 177.429 418.947 176.769C419.784 176.118 420.748 175.645 421.771 175.391C422.929 175.104 424.146 175.095 425.304 175.366C426.243 175.586 427.13 175.983 427.916 176.532L426.353 178.435L433.8 179.322L431.924 171.841L430.216 173.912C428.086 172.314 425.439 171.528 422.777 171.731C419.868 171.942 417.163 173.303 415.253 175.518C414.712 176.152 414.238 176.837 413.849 177.572L413.52 178.198L416.588 179.813L416.918 179.187H416.926Z" fill="#15C1E6"/>
<path d="M430.383 185.392C429.842 186.305 429.115 187.092 428.244 187.7C427.382 188.309 426.393 188.732 425.353 188.943C424.178 189.171 422.969 189.121 421.819 188.791C420.889 188.52 420.027 188.081 419.275 187.497L420.932 185.671L413.543 184.403L415.039 191.986L416.848 190C418.894 191.707 421.49 192.62 424.161 192.553C427.078 192.485 429.842 191.259 431.862 189.146C432.437 188.546 432.936 187.878 433.367 187.159L433.722 186.551L430.738 184.784L430.375 185.392H430.383Z" fill="#15C1E6"/>
</g>
</g>
<g opacity="0.7">
<g filter="url(#filter3_dd_54738_241766)">
<rect x="99.1133" y="158.464" width="109.142" height="34.4216" rx="6.71641" fill="url(#paint11_linear_54738_241766)"/>
<rect x="98.3778" y="157.728" width="110.613" height="35.8927" rx="7.45193" stroke="url(#paint12_linear_54738_241766)" stroke-width="1.47104"/>
</g>
<path fill-rule="evenodd" clip-rule="evenodd" d="M112.323 179.615C110.876 178.169 109.981 176.17 109.981 173.963C109.981 169.549 113.559 165.971 117.973 165.971C122.386 165.971 125.964 169.549 125.964 173.963C125.964 176.17 125.069 178.169 123.623 179.615L123.624 179.616L117.973 185.267L112.322 179.616L112.323 179.615Z" fill="#15C1E6"/>
<path d="M140.746 172.888H139.321V171.814H142.128V179.378H140.746V172.888ZM145.11 177.821C145.483 178.095 146.064 178.391 146.809 178.391C147.368 178.391 147.807 178.271 148.125 177.887C148.487 177.46 148.673 176.703 148.673 175.706C148.454 176.122 147.873 176.681 146.7 176.681C145.516 176.681 144.365 175.903 144.365 174.357C144.365 172.888 145.395 171.705 147.072 171.705C148.355 171.705 149.024 172.329 149.374 172.867C149.692 173.338 150.021 174.27 150.021 175.497C150.021 176.846 149.725 177.931 149.144 178.589C148.64 179.181 147.829 179.509 146.853 179.509C145.582 179.509 144.836 179.005 144.573 178.797L145.11 177.821ZM148.519 174.215C148.519 173.458 148.026 172.768 147.116 172.768C146.206 172.768 145.724 173.458 145.724 174.215C145.724 174.971 146.206 175.673 147.116 175.673C148.026 175.673 148.519 175.059 148.519 174.215ZM151.465 178.468L154.085 176.045C154.687 175.486 155.236 174.862 155.236 174.116C155.236 173.36 154.753 172.877 153.898 172.877C152.945 172.877 152.407 173.48 152.046 173.886L151.388 173.02C151.629 172.669 152.407 171.705 154.008 171.705C155.619 171.705 156.661 172.592 156.661 173.93C156.661 175.223 155.641 176.177 155.17 176.626L153.482 178.205H156.979V179.378H151.651L151.465 178.468ZM159.505 179.499C158.978 179.499 158.617 179.192 158.617 178.687C158.617 178.172 158.978 177.865 159.505 177.865C160.009 177.865 160.382 178.172 160.382 178.687C160.382 179.192 160.009 179.499 159.505 179.499ZM161.598 175.607C161.598 173.623 162.541 171.705 164.656 171.705C166.772 171.705 167.704 173.623 167.704 175.607C167.704 177.591 166.772 179.509 164.656 179.509C162.53 179.509 161.598 177.591 161.598 175.607ZM166.257 175.585C166.257 174.039 165.752 172.932 164.656 172.932C163.56 172.932 163.045 174.039 163.045 175.585C163.045 177.12 163.56 178.238 164.656 178.238C165.752 178.238 166.257 177.12 166.257 175.585ZM169.818 179.499C169.292 179.499 168.93 179.192 168.93 178.687C168.93 178.172 169.292 177.865 169.818 177.865C170.323 177.865 170.695 178.172 170.695 178.687C170.695 179.192 170.323 179.499 169.818 179.499ZM172.52 178.468L175.14 176.045C175.743 175.486 176.291 174.862 176.291 174.116C176.291 173.36 175.809 172.877 174.954 172.877C174 172.877 173.463 173.48 173.101 173.886L172.443 173.02C172.685 172.669 173.463 171.705 175.063 171.705C176.675 171.705 177.716 172.592 177.716 173.93C177.716 175.223 176.697 176.177 176.225 176.626L174.537 178.205H178.034V179.378H172.707L172.52 178.468ZM180.56 179.499C180.034 179.499 179.672 179.192 179.672 178.687C179.672 178.172 180.034 177.865 180.56 177.865C181.064 177.865 181.437 178.172 181.437 178.687C181.437 179.192 181.064 179.499 180.56 179.499ZM183.262 178.468L185.882 176.045C186.485 175.486 187.033 174.862 187.033 174.116C187.033 173.36 186.551 172.877 185.696 172.877C184.742 172.877 184.205 173.48 183.843 173.886L183.185 173.02C183.426 172.669 184.205 171.705 185.805 171.705C187.417 171.705 188.458 172.592 188.458 173.93C188.458 175.223 187.439 176.177 186.967 176.626L185.279 178.205H188.776V179.378H183.448L183.262 178.468ZM192.76 178.315C193.418 178.315 194.218 177.931 194.218 176.901C194.218 175.881 193.494 175.432 192.639 175.432C192.135 175.432 191.631 175.596 191.28 175.826L190.633 175.443L191.346 171.814H195.369L195.358 172.987H192.245L191.883 174.675C192.245 174.522 192.694 174.423 193.155 174.423C194.536 174.423 195.665 175.333 195.665 176.922C195.665 178.578 194.273 179.499 192.705 179.499C191.269 179.499 190.293 178.501 190.107 178.238L190.864 177.339C191.247 177.821 191.894 178.315 192.76 178.315Z" fill="white"/>
<g clip-path="url(#clip5_54738_241766)">
<path d="M144.282 214.759C144.994 213.42 145.971 212.251 147.165 211.31C148.359 210.381 149.733 209.706 151.193 209.344C152.845 208.934 154.582 208.922 156.234 209.308C157.573 209.621 158.839 210.188 159.961 210.972L157.729 213.686L168.355 214.952L165.677 204.279L163.241 207.234C160.202 204.954 156.427 203.833 152.628 204.122C148.479 204.423 144.62 206.365 141.894 209.525C141.122 210.429 140.447 211.406 139.892 212.456L139.422 213.348L143.8 215.652L144.27 214.759H144.282Z" fill="#15C1E6"/>
<path d="M163.481 223.611C162.709 224.914 161.672 226.035 160.43 226.904C159.2 227.772 157.789 228.375 156.305 228.677C154.629 229.002 152.904 228.93 151.264 228.459C149.937 228.074 148.707 227.446 147.634 226.614L149.998 224.009L139.457 222.2L141.592 233.018L144.173 230.184C147.091 232.62 150.794 233.923 154.605 233.826C158.766 233.73 162.709 231.981 165.592 228.966C166.412 228.11 167.123 227.157 167.738 226.132L168.245 225.264L163.988 222.743L163.469 223.611H163.481Z" fill="#15C1E6"/>
</g>
</g>
<g filter="url(#filter4_dd_54738_241766)">
<rect x="188.625" y="190.814" width="248.65" height="78.4205" rx="15.3016" fill="url(#paint13_linear_54738_241766)"/>
<rect x="187.15" y="189.339" width="251.601" height="81.3713" rx="16.777" stroke="url(#paint14_linear_54738_241766)" stroke-width="2.95088"/>
</g>
<path fill-rule="evenodd" clip-rule="evenodd" d="M218.718 239.003C215.422 235.708 213.383 231.155 213.383 226.126C213.383 216.071 221.535 207.919 231.59 207.919C241.645 207.919 249.797 216.071 249.797 226.126C249.797 231.155 247.758 235.707 244.462 239.002L244.464 239.005L231.59 251.879L218.716 239.005L218.718 239.003Z" fill="#15C1E6"/>
<path d="M269.851 235.616L275.794 230.121C277.162 228.853 278.405 227.435 278.405 225.744C278.405 224.029 277.311 222.935 275.371 222.935C273.208 222.935 271.99 224.302 271.169 225.222L269.677 223.258C270.224 222.462 271.99 220.274 275.62 220.274C279.275 220.274 281.637 222.288 281.637 225.322C281.637 228.256 279.325 230.419 278.256 231.439L274.426 235.019H282.358V237.68H270.274L269.851 235.616ZM284.781 229.126C284.781 224.626 286.92 220.274 291.719 220.274C296.518 220.274 298.631 224.626 298.631 229.126C298.631 233.627 296.518 237.978 291.719 237.978C286.895 237.978 284.781 233.627 284.781 229.126ZM295.349 229.076C295.349 225.57 294.205 223.059 291.719 223.059C289.232 223.059 288.064 225.57 288.064 229.076C288.064 232.557 289.232 235.094 291.719 235.094C294.205 235.094 295.349 232.557 295.349 229.076ZM310.403 228.778C311.796 229.101 313.636 230.27 313.636 232.732C313.636 236.014 310.776 237.953 307.27 237.953C304.013 237.953 301.8 235.69 301.377 235.094L303.093 233.055C303.963 234.149 305.43 235.268 307.395 235.268C309.359 235.268 310.428 234.422 310.428 232.607C310.428 230.817 308.787 229.996 307.022 229.996H305.878V227.634H307.27C308.862 227.634 309.956 226.789 309.956 225.222C309.956 223.855 308.887 222.935 307.146 222.935C305.604 222.935 304.386 223.581 303.566 224.601L301.949 222.786C302.745 221.816 304.709 220.274 307.42 220.274C310.602 220.274 313.089 221.94 313.089 224.8C313.089 226.863 311.522 228.306 310.403 228.703V228.778ZM319.739 237.953C318.545 237.953 317.725 237.257 317.725 236.113C317.725 234.945 318.545 234.248 319.739 234.248C320.883 234.248 321.728 234.945 321.728 236.113C321.728 237.257 320.883 237.953 319.739 237.953ZM324.487 229.126C324.487 224.626 326.625 220.274 331.424 220.274C336.223 220.274 338.337 224.626 338.337 229.126C338.337 233.627 336.223 237.978 331.424 237.978C326.6 237.978 324.487 233.627 324.487 229.126ZM335.054 229.076C335.054 225.57 333.911 223.059 331.424 223.059C328.938 223.059 327.769 225.57 327.769 229.076C327.769 232.557 328.938 235.094 331.424 235.094C333.911 235.094 335.054 232.557 335.054 229.076ZM343.133 237.953C341.94 237.953 341.119 237.257 341.119 236.113C341.119 234.945 341.94 234.248 343.133 234.248C344.277 234.248 345.123 234.945 345.123 236.113C345.123 237.257 344.277 237.953 343.133 237.953ZM351.331 222.96H348.098V220.523H354.464V237.68H351.331V222.96ZM363.368 222.96H360.135V220.523H366.501V237.68H363.368V222.96ZM381 228.778C382.392 229.101 384.232 230.27 384.232 232.732C384.232 236.014 381.373 237.953 377.867 237.953C374.609 237.953 372.396 235.69 371.974 235.094L373.689 233.055C374.56 234.149 376.027 235.268 377.991 235.268C379.955 235.268 381.025 234.422 381.025 232.607C381.025 230.817 379.383 229.996 377.618 229.996H376.474V227.634H377.867C379.458 227.634 380.552 226.789 380.552 225.222C380.552 223.855 379.483 222.935 377.742 222.935C376.201 222.935 374.982 223.581 374.162 224.601L372.546 222.786C373.341 221.816 375.306 220.274 378.016 220.274C381.199 220.274 383.685 221.94 383.685 224.8C383.685 226.863 382.119 228.306 381 228.703V228.778ZM390.335 237.953C389.142 237.953 388.321 237.257 388.321 236.113C388.321 234.945 389.142 234.248 390.335 234.248C391.479 234.248 392.324 234.945 392.324 236.113C392.324 237.257 391.479 237.953 390.335 237.953ZM398.532 222.96H395.3V220.523H401.665V237.68H398.532V222.96ZM406.367 229.126C406.367 224.626 408.506 220.274 413.305 220.274C418.104 220.274 420.217 224.626 420.217 229.126C420.217 233.627 418.104 237.978 413.305 237.978C408.481 237.978 406.367 233.627 406.367 229.126ZM416.935 229.076C416.935 225.57 415.791 223.059 413.305 223.059C410.818 223.059 409.65 225.57 409.65 229.076C409.65 232.557 410.818 235.094 413.305 235.094C415.791 235.094 416.935 232.557 416.935 229.076Z" fill="white"/>
<g clip-path="url(#clip6_54738_241766)">
<path d="M276.536 336.31C279.293 331.124 283.077 326.592 287.703 322.948C292.328 319.35 297.654 316.734 303.308 315.332C309.709 313.743 316.437 313.697 322.838 315.192C328.024 316.407 332.93 318.603 337.275 321.639L328.631 332.152L369.793 337.058L359.421 295.709L349.983 307.156C338.209 298.325 323.585 293.98 308.868 295.101C292.795 296.269 277.844 303.792 267.285 316.033C264.295 319.537 261.678 323.321 259.529 327.386L257.707 330.844L274.667 339.768L276.489 336.31H276.536Z" fill="#15C1E6"/>
<path d="M350.918 370.604C347.928 375.65 343.91 379.995 339.097 383.359C334.332 386.723 328.865 389.059 323.118 390.227C316.624 391.489 309.943 391.209 303.589 389.386C298.449 387.891 293.684 385.462 289.525 382.238L298.683 372.146L257.848 365.138L266.117 407.047L276.116 396.068C287.423 405.506 301.766 410.552 316.531 410.178C332.65 409.804 347.928 403.029 359.094 391.349C362.272 388.032 365.028 384.34 367.411 380.369L369.373 377.005L352.88 367.24L350.871 370.604H350.918Z" fill="#15C1E6"/>
</g>
</g>
<defs>
<filter id="filter0_dd_54738_241766" x="127.316" y="346.192" width="148.96" height="60.302" filterUnits="userSpaceOnUse" color-interpolation-filters="sRGB">
<feFlood flood-opacity="0" result="BackgroundImageFix"/>
<feColorMatrix in="SourceAlpha" type="matrix" values="0 0 0 0 0 0 0 0 0 0 0 0 0 0 0 0 0 0 127 0" result="hardAlpha"/>
<feOffset dx="3.84216" dy="3.84216"/>
<feGaussianBlur stdDeviation="3.84216"/>
<feColorMatrix type="matrix" values="0 0 0 0 0 0 0 0 0 0.296699 0 0 0 0 0.858629 0 0 0 0.08 0"/>
<feBlend mode="normal" in2="BackgroundImageFix" result="effect1_dropShadow_54738_241766"/>
<feColorMatrix in="SourceAlpha" type="matrix" values="0 0 0 0 0 0 0 0 0 0 0 0 0 0 0 0 0 0 127 0" result="hardAlpha"/>
<feOffset/>
<feGaussianBlur stdDeviation="2.68951"/>
<feComposite in2="hardAlpha" operator="out"/>
<feColorMatrix type="matrix" values="0 0 0 0 0.0354167 0 0 0 0 0.105426 0 0 0 0 0.2125 0 0 0 0.07 0"/>
<feBlend mode="normal" in2="effect1_dropShadow_54738_241766" result="effect2_dropShadow_54738_241766"/>
<feBlend mode="normal" in="SourceGraphic" in2="effect2_dropShadow_54738_241766" result="shape"/>
</filter>
<filter id="filter1_dd_54738_241766" x="408.565" y="304.805" width="87.0761" height="35.5439" filterUnits="userSpaceOnUse" color-interpolation-filters="sRGB">
<feFlood flood-opacity="0" result="BackgroundImageFix"/>
<feColorMatrix in="SourceAlpha" type="matrix" values="0 0 0 0 0 0 0 0 0 0 0 0 0 0 0 0 0 0 127 0" result="hardAlpha"/>
<feOffset dx="2.23321" dy="2.23321"/>
<feGaussianBlur stdDeviation="2.23321"/>
<feColorMatrix type="matrix" values="0 0 0 0 0 0 0 0 0 0.296699 0 0 0 0 0.858629 0 0 0 0.08 0"/>
<feBlend mode="normal" in2="BackgroundImageFix" result="effect1_dropShadow_54738_241766"/>
<feColorMatrix in="SourceAlpha" type="matrix" values="0 0 0 0 0 0 0 0 0 0 0 0 0 0 0 0 0 0 127 0" result="hardAlpha"/>
<feOffset/>
<feGaussianBlur stdDeviation="1.56324"/>
<feComposite in2="hardAlpha" operator="out"/>
<feColorMatrix type="matrix" values="0 0 0 0 0.0354167 0 0 0 0 0.105426 0 0 0 0 0.2125 0 0 0 0.07 0"/>
<feBlend mode="normal" in2="effect1_dropShadow_54738_241766" result="effect2_dropShadow_54738_241766"/>
<feBlend mode="normal" in="SourceGraphic" in2="effect2_dropShadow_54738_241766" result="shape"/>
</filter>
<filter id="filter2_dd_54738_241766" x="381.096" y="134.611" width="88.4716" height="36.0946" filterUnits="userSpaceOnUse" color-interpolation-filters="sRGB">
<feFlood flood-opacity="0" result="BackgroundImageFix"/>
<feColorMatrix in="SourceAlpha" type="matrix" values="0 0 0 0 0 0 0 0 0 0 0 0 0 0 0 0 0 0 127 0" result="hardAlpha"/>
<feOffset dx="2.26981" dy="2.26981"/>
<feGaussianBlur stdDeviation="2.26981"/>
<feColorMatrix type="matrix" values="0 0 0 0 0 0 0 0 0 0.296699 0 0 0 0 0.858629 0 0 0 0.08 0"/>
<feBlend mode="normal" in2="BackgroundImageFix" result="effect1_dropShadow_54738_241766"/>
<feColorMatrix in="SourceAlpha" type="matrix" values="0 0 0 0 0 0 0 0 0 0 0 0 0 0 0 0 0 0 127 0" result="hardAlpha"/>
<feOffset/>
<feGaussianBlur stdDeviation="1.58887"/>
<feComposite in2="hardAlpha" operator="out"/>
<feColorMatrix type="matrix" values="0 0 0 0 0.0354167 0 0 0 0 0.105426 0 0 0 0 0.2125 0 0 0 0.07 0"/>
<feBlend mode="normal" in2="effect1_dropShadow_54738_241766" result="effect2_dropShadow_54738_241766"/>
<feBlend mode="normal" in="SourceGraphic" in2="effect2_dropShadow_54738_241766" result="shape"/>
</filter>
<filter id="filter3_dd_54738_241766" x="93.1073" y="152.46" width="126.334" height="51.611" filterUnits="userSpaceOnUse" color-interpolation-filters="sRGB">
<feFlood flood-opacity="0" result="BackgroundImageFix"/>
<feColorMatrix in="SourceAlpha" type="matrix" values="0 0 0 0 0 0 0 0 0 0 0 0 0 0 0 0 0 0 127 0" result="hardAlpha"/>
<feOffset dx="3.23812" dy="3.23812"/>
<feGaussianBlur stdDeviation="3.23812"/>
<feColorMatrix type="matrix" values="0 0 0 0 0 0 0 0 0 0.296699 0 0 0 0 0.858629 0 0 0 0.08 0"/>
<feBlend mode="normal" in2="BackgroundImageFix" result="effect1_dropShadow_54738_241766"/>
<feColorMatrix in="SourceAlpha" type="matrix" values="0 0 0 0 0 0 0 0 0 0 0 0 0 0 0 0 0 0 127 0" result="hardAlpha"/>
<feOffset/>
<feGaussianBlur stdDeviation="2.26669"/>
<feComposite in2="hardAlpha" operator="out"/>
<feColorMatrix type="matrix" values="0 0 0 0 0.0354167 0 0 0 0 0.105426 0 0 0 0 0.2125 0 0 0 0.07 0"/>
<feBlend mode="normal" in2="effect1_dropShadow_54738_241766" result="effect2_dropShadow_54738_241766"/>
<feBlend mode="normal" in="SourceGraphic" in2="effect2_dropShadow_54738_241766" result="shape"/>
</filter>
<filter id="filter4_dd_54738_241766" x="175.348" y="177.535" width="287.01" height="116.782" filterUnits="userSpaceOnUse" color-interpolation-filters="sRGB">
<feFlood flood-opacity="0" result="BackgroundImageFix"/>
<feColorMatrix in="SourceAlpha" type="matrix" values="0 0 0 0 0 0 0 0 0 0 0 0 0 0 0 0 0 0 127 0" result="hardAlpha"/>
<feOffset dx="7.3772" dy="7.3772"/>
<feGaussianBlur stdDeviation="7.3772"/>
<feColorMatrix type="matrix" values="0 0 0 0 0 0 0 0 0 0.296699 0 0 0 0 0.858629 0 0 0 0.08 0"/>
<feBlend mode="normal" in2="BackgroundImageFix" result="effect1_dropShadow_54738_241766"/>
<feColorMatrix in="SourceAlpha" type="matrix" values="0 0 0 0 0 0 0 0 0 0 0 0 0 0 0 0 0 0 127 0" result="hardAlpha"/>
<feOffset/>
<feGaussianBlur stdDeviation="5.16404"/>
<feComposite in2="hardAlpha" operator="out"/>
<feColorMatrix type="matrix" values="0 0 0 0 0.0354167 0 0 0 0 0.105426 0 0 0 0 0.2125 0 0 0 0.07 0"/>
<feBlend mode="normal" in2="effect1_dropShadow_54738_241766" result="effect2_dropShadow_54738_241766"/>
<feBlend mode="normal" in="SourceGraphic" in2="effect2_dropShadow_54738_241766" result="shape"/>
</filter>
<radialGradient id="paint0_radial_54738_241766" cx="0" cy="0" r="1" gradientUnits="userSpaceOnUse" gradientTransform="translate(78.0862 197.843) rotate(8.17489) scale(320.838 362.981)">
<stop stop-color="#15C1E6"/>
<stop offset="0.869792" stop-color="#15C1E6" stop-opacity="0"/>
</radialGradient>
<linearGradient id="paint1_linear_54738_241766" x1="421.868" y1="166.418" x2="421.861" y2="166.437" gradientUnits="userSpaceOnUse">
<stop stop-color="#15C1E6"/>
<stop offset="1" stop-color="#15C1E6" stop-opacity="0"/>
</linearGradient>
<radialGradient id="paint2_radial_54738_241766" cx="0" cy="0" r="1" gradientUnits="userSpaceOnUse" gradientTransform="translate(571.832 245.783) rotate(148.448) scale(248.956 186.905)">
<stop stop-color="#15C1E6"/>
<stop offset="1" stop-color="#15C1E6" stop-opacity="0"/>
</radialGradient>
<linearGradient id="paint3_linear_54738_241766" x1="424.874" y1="168.176" x2="424.334" y2="169.367" gradientUnits="userSpaceOnUse">
<stop stop-color="#15C1E6"/>
<stop offset="1" stop-color="#15C1E6" stop-opacity="0"/>
</linearGradient>
<linearGradient id="paint4_linear_54738_241766" x1="422.573" y1="166.036" x2="422.016" y2="167.353" gradientUnits="userSpaceOnUse">
<stop stop-color="#15C1E6"/>
<stop offset="1" stop-color="#15C1E6" stop-opacity="0"/>
</linearGradient>
<linearGradient id="paint5_linear_54738_241766" x1="271.131" y1="335.52" x2="247.054" y2="425.391" gradientUnits="userSpaceOnUse">
<stop stop-color="#0A479C"/>
<stop offset="1" stop-color="#091B36"/>
</linearGradient>
<linearGradient id="paint6_linear_54738_241766" x1="148.432" y1="391.468" x2="179.356" y2="317.93" gradientUnits="userSpaceOnUse">
<stop stop-color="#1B4582"/>
<stop offset="1" stop-color="#3160A6"/>
</linearGradient>
<linearGradient id="paint7_linear_54738_241766" x1="492.402" y1="298.849" x2="478.407" y2="351.085" gradientUnits="userSpaceOnUse">
<stop stop-color="#0A479C"/>
<stop offset="1" stop-color="#091B36"/>
</linearGradient>
<linearGradient id="paint8_linear_54738_241766" x1="421.084" y1="331.368" x2="439.058" y2="288.625" gradientUnits="userSpaceOnUse">
<stop stop-color="#1B4582"/>
<stop offset="1" stop-color="#3160A6"/>
</linearGradient>
<linearGradient id="paint9_linear_54738_241766" x1="466.29" y1="128.541" x2="452.066" y2="181.634" gradientUnits="userSpaceOnUse">
<stop stop-color="#0A479C"/>
<stop offset="1" stop-color="#091B36"/>
</linearGradient>
<linearGradient id="paint10_linear_54738_241766" x1="393.804" y1="161.594" x2="412.073" y2="118.149" gradientUnits="userSpaceOnUse">
<stop stop-color="#1B4582"/>
<stop offset="1" stop-color="#3160A6"/>
</linearGradient>
<linearGradient id="paint11_linear_54738_241766" x1="214.709" y1="143.86" x2="194.417" y2="219.601" gradientUnits="userSpaceOnUse">
<stop stop-color="#0A479C"/>
<stop offset="1" stop-color="#091B36"/>
</linearGradient>
<linearGradient id="paint12_linear_54738_241766" x1="111.299" y1="191.012" x2="137.362" y2="129.035" gradientUnits="userSpaceOnUse">
<stop stop-color="#1B4582"/>
<stop offset="1" stop-color="#3160A6"/>
</linearGradient>
<linearGradient id="paint13_linear_54738_241766" x1="451.979" y1="157.542" x2="405.749" y2="330.1" gradientUnits="userSpaceOnUse">
<stop stop-color="#0A479C"/>
<stop offset="1" stop-color="#091B36"/>
</linearGradient>
<linearGradient id="paint14_linear_54738_241766" x1="216.388" y1="264.967" x2="275.764" y2="123.768" gradientUnits="userSpaceOnUse">
<stop stop-color="#1B4582"/>
<stop offset="1" stop-color="#3160A6"/>
</linearGradient>
<clipPath id="clip0_54738_241766">
<rect width="508.759" height="380.423" fill="white" transform="translate(41 98)"/>
</clipPath>
<clipPath id="clip1_54738_241766">
<rect width="20.0783" height="20.673" fill="white" transform="translate(204.898 283.59)"/>
</clipPath>
<clipPath id="clip2_54738_241766">
<rect width="34.3011" height="35.3171" fill="white" transform="translate(181.816 406.917)"/>
</clipPath>
<clipPath id="clip3_54738_241766">
<rect width="19.9371" height="20.5276" fill="white" transform="translate(440.488 341.337)"/>
</clipPath>
<clipPath id="clip4_54738_241766">
<rect width="20.2639" height="20.8641" fill="white" transform="translate(413.527 171.697)"/>
</clipPath>
<clipPath id="clip5_54738_241766">
<rect width="28.9086" height="29.7648" fill="white" transform="translate(139.434 204.073)"/>
</clipPath>
<clipPath id="clip6_54738_241766">
<rect width="111.993" height="115.31" fill="white" transform="translate(257.754 294.914)"/>
</clipPath>
</defs>
</svg>
