<svg width="65" height="48" viewBox="0 0 65 48" fill="none" xmlns="http://www.w3.org/2000/svg">
<g id="South Korea" clip-path="url(#clip0_3003_21937)">
<g id="Clip path group">
<mask id="mask0_3003_21937" style="mask-type:luminance" maskUnits="userSpaceOnUse" x="0" y="0" width="65" height="48">
<g id="clip0_548_10205">
<path id="Vector" d="M60.5 0H4.5C2.29086 0 0.5 1.79086 0.5 4V44C0.5 46.2091 2.29086 48 4.5 48H60.5C62.7091 48 64.5 46.2091 64.5 44V4C64.5 1.79086 62.7091 0 60.5 0Z" fill="white"/>
</g>
</mask>
<g mask="url(#mask0_3003_21937)">
<g id="Group">
<g id="flag_cn 1" clip-path="url(#clip1_3003_21937)">
<path id="Vector_2" d="M65 0H0V48.75H65V0Z" fill="white"/>
<g id="Flag_of_South_Korea 1" clip-path="url(#clip2_3003_21937)">
<path id="Vector_3" d="M1 3H64V45H1V3Z" fill="white"/>
<g id="Group_2">
<g id="b2">
<path id="b" d="M10.6582 15.751L16.4826 7.01445L17.9386 7.98517L12.1143 16.7217L10.6582 15.751ZM12.8423 17.2071L18.6667 8.47054L20.1228 9.44126L14.2984 18.1778L12.8423 17.2071ZM15.0265 18.6632L20.8508 9.92662L22.3069 10.8973L16.4826 19.6339L15.0265 18.6632Z" fill="black"/>
<path id="b_2" d="M42.6924 37.1064L48.5167 28.3699L49.9728 29.3406L44.1485 38.0772L42.6924 37.1064ZM44.8765 38.5625L50.7009 29.826L52.157 30.7967L46.3326 39.5333L44.8765 38.5625ZM47.0606 40.0186L52.885 31.2821L54.3411 32.2528L48.5167 40.9893L47.0606 40.0186Z" fill="black"/>
</g>
<g id="Vector_4">
<path d="M44.876 32.2529L52.1564 37.1066L44.876 32.2529Z" fill="black"/>
<path d="M44.876 32.2529L52.1564 37.1066" stroke="white" stroke-width="0.875"/>
</g>
<path id="Vector_5" d="M23.7627 18.1768C25.3074 15.8597 27.7093 14.2512 30.44 13.705C33.1707 13.1589 36.0065 13.7199 38.3236 15.2646C40.6406 16.8093 42.2492 19.2112 42.7953 21.9419C43.3415 24.6726 42.7805 27.5084 41.2358 29.8255L23.7627 18.1768Z" fill="#CD2E3A"/>
<path id="Vector_6" d="M23.7628 18.1766C22.2181 20.4936 21.6571 23.3294 22.2033 26.0601C22.7494 28.7908 24.3579 31.1927 26.675 32.7374C28.9921 34.2822 31.8279 34.8431 34.5586 34.297C37.2893 33.7509 39.6912 32.1423 41.2359 29.8253C42.0082 28.6667 42.2887 27.2488 42.0157 25.8835C41.7426 24.5181 40.9383 23.3172 39.7798 22.5448C38.6213 21.7725 37.2034 21.492 35.838 21.765C34.4727 22.0381 33.2717 22.8424 32.4994 24.0009L23.7628 18.1766Z" fill="#0047A0"/>
<path id="Vector_7" d="M32.4993 24.001C34.1076 21.5885 33.4557 18.3289 31.0432 16.7206C28.6307 15.1122 25.3711 15.7641 23.7628 18.1767C22.1544 20.5892 22.8063 23.8487 25.2189 25.4571C27.6314 27.0654 30.8909 26.4135 32.4993 24.001Z" fill="#CD2E3A"/>
</g>
<g id="Group_3">
<g id="b2_2">
<path id="b_3" d="M16.4834 40.9893L10.659 32.2527L12.1151 31.282L17.9395 40.0185L16.4834 40.9893ZM18.6675 39.5332L12.8432 30.7966L14.2993 29.8259L20.1236 38.5624L18.6675 39.5332ZM20.8517 38.0771L15.0273 29.3406L16.4834 28.3698L22.3078 37.1064L20.8517 38.0771Z" fill="black"/>
<path id="b_4" d="M48.5166 19.6338L42.6922 10.8973L44.1483 9.92654L49.9727 18.6631L48.5166 19.6338ZM50.7007 18.1777L44.8764 9.44117L46.3325 8.47045L52.1568 17.207L50.7007 18.1777ZM52.8849 16.7216L47.0605 7.98508L48.5166 7.01436L54.341 15.7509L52.8849 16.7216Z" fill="black"/>
</g>
<g id="Vector_8">
<path d="M15.3906 35.4062L17.5748 33.9502L15.3906 35.4062ZM44.8764 15.7491L47.4246 14.0503L44.8764 15.7491ZM49.6087 12.5942L51.7928 11.1381L49.6087 12.5942Z" fill="black"/>
<path d="M15.3906 35.4062L17.5748 33.9502M44.8764 15.7491L47.4246 14.0503M49.6087 12.5942L51.7928 11.1381" stroke="white" stroke-width="0.875"/>
</g>
</g>
</g>
</g>
</g>
</g>
</g>
<path id="Vector_9" d="M60.5 0.5H4.5C2.567 0.5 1 2.067 1 4V44C1 45.933 2.567 47.5 4.5 47.5H60.5C62.433 47.5 64 45.933 64 44V4C64 2.067 62.433 0.5 60.5 0.5Z" stroke="#D2DCE4"/>
</g>
<defs>
<clipPath id="clip0_3003_21937">
<rect width="65" height="48" fill="white"/>
</clipPath>
<clipPath id="clip1_3003_21937">
<rect width="65" height="48.75" fill="white"/>
</clipPath>
<clipPath id="clip2_3003_21937">
<rect width="63" height="42" fill="white" transform="translate(1 3)"/>
</clipPath>
</defs>
</svg>
