<svg width="47" height="47" viewBox="0 0 47 47" fill="none" xmlns="http://www.w3.org/2000/svg">
<path d="M37.5 1C33.36 1 30 4.36 30 8.5C30 12.64 33.36 16 37.5 16C41.64 16 45 12.64 45 8.5C45 4.36 41.64 1 37.5 1ZM37.91 10.71L36.55 12.07L33.33 8.85L34.69 7.49L36.55 9.35L40.74 5.16L42.1 6.52L37.91 10.71Z" fill="#9FC0FF"/>
<path d="M23.57 28.71C24.58 27.01 24.82 25.06 24.36 23.28C24.3 23.03 24.05 22.92 23.83 22.97C23.72 23 23.63 23.06 23.56 23.17L21.44 26.75L16.38 26.69L13.9 22.27L16.01 18.72C16.21 18.39 15.9 17.98 15.53 18.07C13.9 18.5 12.42 19.48 11.42 20.95C10.68 22.04 10.27 23.26 10.18 24.47C10.05 26.28 10.6 28.08 11.74 29.51L4.12 42.34C3.41 43.54 3.8 45.09 5 45.81L5.05 45.84C5.65 46.2 6.34 46.27 6.97 46.11C7.6 45.95 8.17 45.55 8.52 44.95L16.14 32.12C17.16 32.3 18.2 32.26 19.19 32.01C19.94 31.82 20.65 31.5 21.31 31.08C22.21 30.49 22.99 29.7 23.58 28.71H23.57Z" fill="#FECE4D"/>
<path d="M39.09 17.62C39 17.7 38.89 17.75 38.76 17.75H37.87C37.75 17.75 37.63 17.77 37.5 17.77C37.37 17.77 37.25 17.76 37.13 17.75H20.73C20.45 17.75 20.22 17.52 20.22 17.24V11C20.22 10.72 20.45 10.49 20.73 10.49H28.45C28.31 9.85 28.23 9.18 28.23 8.5C28.23 6.44 28.91 4.54 30.06 3H4.68C3.75 3 3 3.75 3 4.68V27.57C3 28.5 3.75 29.25 4.68 29.25H9.35C8.94 28.48 8.65 27.66 8.47 26.81H6.23C5.95 26.81 5.72 26.58 5.72 26.3V11C5.72 10.72 5.95 10.49 6.23 10.49H17.91C18.19 10.49 18.42 10.72 18.42 11V24.84L20.23 24.86V19.96C20.23 19.68 20.46 19.45 20.74 19.45H38.76C39.04 19.45 39.27 19.68 39.27 19.96V26.2C39.27 26.48 39.04 26.71 38.76 26.71H26.26C26.09 27.59 25.8 28.44 25.37 29.25H40.32C41.25 29.25 42 28.5 42 27.57V16.59C41.11 17.09 40.13 17.44 39.09 17.62ZM8.17 7.49C7.55 7.49 7.05 6.98 7.05 6.37C7.05 5.76 7.56 5.25 8.17 5.25C8.78 5.25 9.29 5.76 9.29 6.37C9.29 6.98 8.78 7.49 8.17 7.49ZM11.85 7.49C11.23 7.49 10.73 6.98 10.73 6.37C10.73 5.76 11.24 5.25 11.85 5.25C12.46 5.25 12.97 5.76 12.97 6.37C12.97 6.98 12.46 7.49 11.85 7.49ZM15.53 7.49C14.91 7.49 14.41 6.98 14.41 6.37C14.41 5.76 14.92 5.25 15.53 5.25C16.14 5.25 16.65 5.76 16.65 6.37C16.65 6.98 16.14 7.49 15.53 7.49Z" fill="#3D7FFC"/>
</svg>
