<svg width="376" height="376" viewBox="0 0 376 376" fill="none" xmlns="http://www.w3.org/2000/svg">
<g clip-path="url(#clip0_50785_37326)">
<path d="M376 0H0V376H376V0Z" fill="white"/>
<path d="M187.49 329.86C266.119 329.86 329.86 266.119 329.86 187.49C329.86 108.861 266.119 45.12 187.49 45.12C108.861 45.12 45.1201 108.861 45.1201 187.49C45.1201 266.119 108.861 329.86 187.49 329.86Z" fill="#F5F8FF"/>
<g filter="url(#filter0_dd_50785_37326)">
<path d="M75.9946 92H292.096C302.226 92 310.45 101.314 310.45 112.786V246.074C310.45 257.546 302.226 266.86 292.096 266.86H75.9946C65.8649 266.86 57.6404 257.546 57.6404 246.074V112.786C57.6404 101.314 65.8649 92 75.9946 92Z" fill="white"/>
</g>
<rect x="80.8147" y="132.028" width="206.461" height="115.871" rx="5.21382" fill="#E6EEFF"/>
<g clip-path="url(#clip1_50785_37326)">
<path d="M82.9214 104.064C82.9214 103.219 83.6064 102.534 84.4515 102.534H99.6671C100.512 102.534 101.197 103.219 101.197 104.064V119.279C101.197 120.125 100.512 120.81 99.6671 120.81H84.4515C83.6064 120.81 82.9214 120.125 82.9214 119.279V104.064Z" fill="#3D7FFC"/>
<path d="M90.7871 106.67C90.9648 107.008 90.876 107.292 90.7516 107.594C90.5561 108.092 90.6094 108.572 90.9648 108.98C91.3202 109.407 91.8178 109.46 92.3332 109.353C93.0441 109.194 93.4528 108.518 93.3462 107.772C93.2929 107.416 93.0796 107.061 93.2751 106.67C93.0974 106.759 93.0974 106.759 92.8841 107.114C92.6886 106.883 92.5109 106.634 92.2977 106.386C92.12 106.19 91.9422 106.012 92.0489 105.693C91.8356 105.799 91.729 105.941 91.6579 106.119C91.6046 106.297 91.569 106.475 91.5335 106.652C91.498 106.83 91.4091 106.99 91.2314 107.097C91.1248 106.901 91.0181 106.759 90.7871 106.67Z" fill="white"/>
<path d="M90.3669 117.619V116.75L91.3086 116.627V111.657L90.4403 111.376V110.409L92.8129 110.09L93.3144 110.041V110.372V116.615L94.2438 116.75V117.619H90.3669Z" fill="white"/>
</g>
<g clip-path="url(#clip2_50785_37326)">
<path d="M123.263 105.692C123.452 106.055 123.357 106.361 123.225 106.685C123.016 107.221 123.073 107.737 123.452 108.176C123.831 108.635 124.362 108.692 124.912 108.577C125.67 108.405 126.106 107.679 125.992 106.877C125.936 106.494 125.708 106.112 125.917 105.692C125.727 105.787 125.727 105.787 125.5 106.169C125.291 105.921 125.101 105.653 124.874 105.386C124.684 105.176 124.495 104.985 124.609 104.641C124.381 104.755 124.267 104.908 124.191 105.099C124.135 105.29 124.097 105.481 124.059 105.673C124.021 105.864 123.926 106.036 123.736 106.15C123.623 105.94 123.509 105.787 123.263 105.692Z" fill="#3D7FFC"/>
<path d="M107.126 116.829V108.014L106.096 107.843V107.027L108.783 106.684L109.24 106.619V106.974V109.97C109.344 109.864 109.475 109.746 109.631 109.654C109.775 109.548 109.944 109.456 110.114 109.377C110.297 109.298 110.479 109.232 110.688 109.18C110.897 109.127 111.119 109.101 111.353 109.101C111.771 109.101 112.162 109.167 112.528 109.311C112.893 109.456 113.219 109.68 113.493 109.983C113.767 110.299 113.989 110.694 114.158 111.194C114.315 111.694 114.406 112.287 114.406 113.011C114.406 113.63 114.315 114.196 114.132 114.736C113.95 115.275 113.676 115.723 113.323 116.118C112.971 116.513 112.541 116.816 112.045 117.039C111.536 117.263 110.975 117.382 110.336 117.382C109.892 117.382 109.488 117.355 109.109 117.316C108.744 117.276 108.418 117.224 108.144 117.158C107.87 117.092 107.648 117.039 107.479 116.974C107.309 116.908 107.179 116.868 107.126 116.829ZM110.479 110.378C110.192 110.378 109.944 110.43 109.736 110.536C109.527 110.641 109.357 110.76 109.24 110.891V116.105C109.305 116.21 109.423 116.302 109.605 116.355C109.788 116.421 110.01 116.447 110.244 116.447C110.558 116.447 110.832 116.368 111.053 116.197C111.288 116.026 111.471 115.802 111.627 115.512C111.784 115.223 111.888 114.88 111.967 114.499C112.045 114.117 112.084 113.695 112.084 113.261C112.084 112.813 112.058 112.405 111.993 112.037C111.927 111.681 111.836 111.378 111.693 111.128C111.562 110.878 111.393 110.694 111.184 110.562C111.001 110.444 110.753 110.378 110.479 110.378Z" fill="#3D7FFC"/>
<path d="M115.545 117.147V116.212L116.537 116.081V110.735L115.597 110.446V109.393L117.946 109.05H117.985L118.35 109.353V109.932L118.337 111.012H118.363C118.415 110.867 118.52 110.683 118.663 110.459C118.807 110.235 118.989 110.011 119.198 109.801C119.407 109.59 119.655 109.406 119.929 109.261C120.203 109.116 120.503 109.037 120.829 109.037C120.972 109.037 121.077 109.037 121.155 109.05C121.233 109.064 121.299 109.077 121.351 109.09V111.499C121.299 111.46 121.168 111.42 120.959 111.381C120.751 111.341 120.49 111.315 120.203 111.315C120.046 111.315 119.877 111.328 119.72 111.341C119.563 111.354 119.407 111.381 119.263 111.42C119.12 111.446 119.002 111.486 118.885 111.525C118.768 111.565 118.689 111.604 118.624 111.644V116.067L120.333 116.239V117.147H115.545Z" fill="#3D7FFC"/>
<path d="M122.814 117.224V116.289L123.819 116.157V110.812L122.892 110.51V109.469L125.423 109.127L125.958 109.074V109.43V116.144L126.95 116.289V117.224H122.814Z" fill="#3D7FFC"/>
<path d="M131.549 114.656C131.158 114.656 130.793 114.629 130.469 114.574C130.388 114.656 130.32 114.752 130.266 114.862C130.212 114.971 130.185 115.095 130.185 115.245C130.185 115.41 130.212 115.547 130.28 115.656C130.347 115.752 130.442 115.835 130.577 115.889C130.712 115.944 130.874 115.985 131.09 115.999C131.306 116.013 131.549 116.026 131.833 116.026H133.251C134.278 116.026 135.034 116.205 135.548 116.547C136.047 116.903 136.304 117.479 136.304 118.274C136.304 118.754 136.182 119.206 135.926 119.603C135.683 120.001 135.345 120.33 134.913 120.617C134.494 120.891 133.994 121.111 133.44 121.261C132.887 121.412 132.306 121.494 131.698 121.494H131.684C131.009 121.494 130.442 121.44 129.969 121.316C129.496 121.193 129.105 121.029 128.794 120.823C128.483 120.617 128.267 120.357 128.118 120.069C127.97 119.781 127.902 119.453 127.902 119.11C127.902 118.891 127.943 118.685 128.024 118.479C128.105 118.288 128.213 118.109 128.348 117.945C128.483 117.781 128.632 117.644 128.821 117.52C128.996 117.397 129.186 117.301 129.375 117.232C129.105 117.082 128.888 116.903 128.74 116.684C128.591 116.465 128.524 116.205 128.524 115.903C128.524 115.533 128.618 115.232 128.807 114.971C128.996 114.724 129.24 114.492 129.537 114.3C129.05 114.08 128.699 113.765 128.47 113.354C128.24 112.943 128.118 112.463 128.118 111.915C128.118 111.477 128.213 111.093 128.402 110.737C128.591 110.38 128.861 110.079 129.186 109.832C129.523 109.585 129.901 109.393 130.347 109.256C130.793 109.119 131.266 109.051 131.766 109.051H131.779C132.968 109.051 133.846 109.284 134.426 109.75C134.494 109.668 134.589 109.585 134.697 109.503C134.805 109.421 134.94 109.339 135.088 109.27C135.237 109.202 135.399 109.147 135.575 109.106C135.75 109.065 135.939 109.037 136.142 109.037H136.48V110.654H135.075C135.129 110.805 135.169 110.969 135.196 111.134C135.223 111.298 135.237 111.49 135.237 111.682C135.237 112.121 135.142 112.518 134.967 112.874C134.791 113.231 134.535 113.546 134.21 113.82C133.886 114.08 133.494 114.286 133.049 114.437C132.589 114.587 132.103 114.656 131.549 114.656ZM131.185 117.575C130.874 117.575 130.59 117.548 130.334 117.506C130.239 117.616 130.145 117.753 130.064 117.918C129.983 118.082 129.942 118.329 129.942 118.617C129.942 118.945 129.983 119.22 130.064 119.439C130.145 119.658 130.28 119.85 130.442 119.987C130.604 120.124 130.82 120.234 131.063 120.288C131.306 120.357 131.59 120.384 131.914 120.384H131.928C132.211 120.384 132.495 120.357 132.779 120.288C133.049 120.22 133.305 120.124 133.521 119.987C133.738 119.85 133.913 119.672 134.035 119.466C134.17 119.261 134.237 119.014 134.237 118.74C134.237 118.534 134.21 118.342 134.17 118.192C134.129 118.041 134.048 117.918 133.927 117.822C133.805 117.726 133.657 117.657 133.454 117.616C133.251 117.575 132.995 117.548 132.684 117.548H131.185V117.575ZM131.725 113.697C131.968 113.697 132.171 113.642 132.333 113.546C132.495 113.45 132.616 113.313 132.711 113.148C132.806 112.984 132.86 112.778 132.9 112.545C132.941 112.313 132.954 112.066 132.954 111.819C132.954 111.189 132.86 110.723 132.657 110.435C132.454 110.147 132.13 110.01 131.657 110.01H131.644C131.198 110.01 130.874 110.161 130.671 110.449C130.469 110.737 130.361 111.161 130.361 111.751C130.361 112.038 130.388 112.299 130.428 112.532C130.469 112.765 130.55 112.97 130.644 113.148C130.752 113.313 130.888 113.45 131.063 113.546C131.239 113.642 131.455 113.697 131.725 113.697Z" fill="#3D7FFC"/>
<path d="M137.244 117.224V116.289L138.092 116.144V107.938L137.061 107.767V106.951L139.736 106.608L139.891 106.582H140.182L140.205 109.14L140.182 110.136C140.299 110.018 140.375 110.009 140.571 109.878C140.766 109.746 140.962 109.627 141.197 109.522C141.432 109.417 141.693 109.325 141.967 109.246C142.241 109.18 142.541 109.14 142.841 109.14C143.284 109.14 143.663 109.206 143.95 109.325C144.237 109.443 144.472 109.641 144.654 109.904C144.837 110.167 144.941 110.496 145.02 110.891C145.085 111.286 145.124 111.76 145.124 112.3V116.144L146.089 116.289V117.224H142.241V116.315L143.01 116.157V112.287C143.01 111.971 142.997 111.694 142.958 111.457C142.932 111.22 142.867 111.036 142.776 110.878C142.684 110.72 142.567 110.615 142.41 110.549C142.254 110.483 142.045 110.444 141.797 110.444C141.654 110.444 141.51 110.457 141.354 110.496C141.197 110.536 141.053 110.575 140.923 110.615C140.779 110.667 140.649 110.72 140.532 110.786C140.414 110.852 140.31 110.918 140.219 110.983V116.157L141.158 116.302V117.237H137.244V117.224Z" fill="#3D7FFC"/>
<path d="M147.622 115.612V110.504H146.656V109.714C146.695 109.701 146.748 109.688 146.826 109.661C146.904 109.635 146.982 109.596 147.074 109.569C147.152 109.543 147.23 109.503 147.309 109.477C147.387 109.451 147.426 109.424 147.439 109.411C147.596 109.293 147.752 109.069 147.922 108.74C147.974 108.648 148.013 108.542 148.078 108.411C148.144 108.279 148.183 108.161 148.235 108.029C148.287 107.897 148.339 107.766 148.378 107.634C148.431 107.502 148.457 107.384 148.496 107.279H149.722L149.748 109.332H151.77V110.517H149.748V114.361C149.748 114.73 149.748 115.02 149.761 115.243C149.774 115.467 149.8 115.625 149.84 115.731C149.879 115.836 149.957 115.915 150.048 115.941C150.14 115.968 150.27 115.994 150.427 115.994H150.44C150.544 115.994 150.661 115.981 150.792 115.968C150.909 115.954 151.027 115.928 151.144 115.902C151.262 115.875 151.366 115.849 151.47 115.823C151.575 115.796 151.653 115.77 151.718 115.744H151.731L152.057 116.56C151.914 116.665 151.757 116.771 151.549 116.876C151.34 116.981 151.131 117.073 150.883 117.166C150.635 117.258 150.388 117.324 150.114 117.376C149.84 117.429 149.579 117.455 149.305 117.455H149.292C148.992 117.455 148.731 117.416 148.522 117.337C148.313 117.258 148.13 117.139 148 116.981C147.87 116.823 147.778 116.639 147.713 116.402C147.648 116.165 147.622 115.915 147.622 115.612Z" fill="#3D7FFC"/>
<path d="M158.022 117.423C157.617 117.423 157.226 117.344 156.847 117.186C156.469 117.028 156.143 116.778 155.869 116.462C155.582 116.133 155.36 115.725 155.191 115.238C155.021 114.75 154.943 114.171 154.943 113.5C154.943 112.881 155.034 112.315 155.217 111.788C155.399 111.262 155.673 110.801 156.012 110.406C156.365 110.011 156.782 109.708 157.278 109.484C157.774 109.261 158.335 109.155 158.961 109.155C159.183 109.155 159.391 109.168 159.613 109.195C159.822 109.221 160.031 109.247 160.226 109.287V107.826L158.87 107.695V107.036L161.401 106.734H161.44L161.779 106.692V116.436H162.601V117.173C162.405 117.225 162.183 117.278 161.922 117.344C161.662 117.41 161.388 117.436 161.101 117.436C160.983 117.436 160.866 117.423 160.774 117.41C160.683 117.397 160.605 117.357 160.54 117.304C160.474 117.252 160.422 117.173 160.396 117.081C160.37 116.989 160.344 116.857 160.344 116.699V116.396C160.226 116.528 160.083 116.646 159.926 116.778C159.77 116.91 159.6 117.015 159.404 117.107C159.209 117.199 159 117.278 158.765 117.344C158.543 117.383 158.296 117.423 158.022 117.423ZM158.661 116.357C158.843 116.357 159.013 116.33 159.183 116.291C159.339 116.238 159.496 116.185 159.626 116.12C159.757 116.054 159.874 115.975 159.979 115.896C160.083 115.817 160.174 115.738 160.239 115.659V110.366C160.213 110.314 160.148 110.261 160.07 110.208C159.979 110.156 159.887 110.103 159.757 110.064C159.639 110.024 159.496 109.985 159.352 109.971C159.209 109.945 159.052 109.932 158.883 109.932C158.57 109.932 158.283 109.985 158.022 110.103C157.748 110.222 157.513 110.406 157.304 110.669C157.095 110.933 156.939 111.275 156.821 111.696C156.704 112.117 156.639 112.631 156.626 113.236C156.613 113.776 156.665 114.25 156.769 114.645C156.873 115.04 157.017 115.356 157.2 115.619C157.382 115.869 157.604 116.067 157.852 116.185C158.1 116.291 158.374 116.357 158.661 116.357Z" fill="#9FC0FF"/>
<path d="M162.793 115.213C162.793 114.884 162.858 114.581 162.976 114.318C163.093 114.055 163.263 113.831 163.485 113.62C163.706 113.423 163.954 113.252 164.241 113.107C164.528 112.962 164.841 112.857 165.181 112.765C165.52 112.673 165.872 112.607 166.237 112.567C166.603 112.528 166.968 112.501 167.32 112.488V112.12C167.32 111.79 167.294 111.514 167.255 111.29C167.203 111.066 167.125 110.882 167.02 110.737C166.903 110.592 166.759 110.487 166.564 110.434C166.381 110.369 166.133 110.342 165.846 110.342C165.598 110.342 165.35 110.369 165.102 110.408C164.855 110.461 164.62 110.513 164.385 110.579C164.163 110.645 163.954 110.724 163.759 110.79C163.563 110.869 163.406 110.935 163.276 111.001H163.263L162.95 110.329C163.041 110.25 163.185 110.145 163.406 110.013C163.628 109.881 163.889 109.763 164.189 109.631C164.489 109.513 164.815 109.408 165.155 109.315C165.507 109.223 165.846 109.184 166.185 109.184C166.668 109.184 167.072 109.236 167.412 109.329C167.738 109.434 168.012 109.592 168.221 109.802C168.429 110.026 168.573 110.303 168.664 110.658C168.755 111.014 168.795 111.435 168.795 111.948V116.53H169.643V117.201C169.551 117.228 169.447 117.254 169.329 117.28C169.212 117.307 169.082 117.333 168.951 117.359C168.821 117.386 168.677 117.412 168.547 117.425C168.416 117.438 168.273 117.451 168.155 117.451C168.025 117.451 167.92 117.451 167.816 117.438C167.725 117.425 167.646 117.399 167.581 117.346C167.516 117.293 167.477 117.228 167.451 117.122C167.425 117.03 167.412 116.899 167.412 116.727V116.464C167.346 116.517 167.255 116.596 167.125 116.714C166.994 116.82 166.825 116.938 166.629 117.043C166.433 117.149 166.211 117.254 165.95 117.333C165.703 117.412 165.429 117.451 165.142 117.451C164.828 117.451 164.528 117.412 164.241 117.32C163.954 117.228 163.706 117.096 163.485 116.925C163.263 116.741 163.093 116.517 162.963 116.227C162.832 115.937 162.793 115.608 162.793 115.213ZM165.755 116.398C165.846 116.398 165.963 116.385 166.094 116.359C166.224 116.332 166.368 116.293 166.511 116.253C166.655 116.201 166.798 116.148 166.929 116.082C167.072 116.016 167.19 115.937 167.307 115.858V113.278C166.759 113.278 166.303 113.331 165.924 113.423C165.559 113.515 165.259 113.647 165.037 113.805C164.815 113.963 164.659 114.147 164.568 114.358C164.476 114.568 164.424 114.779 164.424 115.003C164.424 115.253 164.463 115.477 164.528 115.648C164.594 115.819 164.685 115.964 164.802 116.082C164.92 116.188 165.063 116.28 165.22 116.319C165.402 116.372 165.572 116.398 165.755 116.398Z" fill="#9FC0FF"/>
<path d="M170.036 115.652V110.214H169.044V109.556C169.188 109.503 169.331 109.464 169.462 109.411C169.605 109.359 169.71 109.319 169.762 109.266C169.918 109.161 170.036 108.99 170.153 108.74C170.192 108.661 170.231 108.542 170.297 108.411C170.349 108.279 170.401 108.134 170.453 107.989C170.505 107.845 170.558 107.713 170.597 107.581C170.636 107.45 170.675 107.344 170.688 107.279H171.575V109.201H173.884V110.214H171.575V114.388C171.575 114.796 171.575 115.125 171.588 115.362C171.601 115.599 171.627 115.77 171.68 115.875C171.732 115.981 171.81 116.06 171.914 116.086C172.019 116.112 172.162 116.126 172.345 116.126H172.358C172.488 116.126 172.632 116.112 172.775 116.099C172.919 116.086 173.062 116.06 173.193 116.033C173.336 116.007 173.454 115.981 173.571 115.954C173.689 115.928 173.78 115.902 173.845 115.862H173.858L174.093 116.547C173.989 116.626 173.832 116.718 173.637 116.81C173.441 116.902 173.232 116.981 173.01 117.06C172.789 117.139 172.554 117.192 172.306 117.245C172.058 117.297 171.836 117.324 171.614 117.324H171.601C171.353 117.324 171.145 117.297 170.949 117.245C170.753 117.192 170.597 117.1 170.453 116.968C170.323 116.836 170.218 116.665 170.14 116.455C170.075 116.218 170.036 115.954 170.036 115.652Z" fill="#9FC0FF"/>
<path d="M174.133 115.067C174.133 114.738 174.198 114.435 174.315 114.172C174.433 113.908 174.602 113.684 174.824 113.474C175.046 113.276 175.294 113.105 175.581 112.96C175.868 112.816 176.181 112.71 176.52 112.618C176.859 112.526 177.212 112.46 177.577 112.421C177.942 112.381 178.307 112.355 178.66 112.342V111.973C178.66 111.644 178.634 111.367 178.594 111.144C178.542 110.92 178.464 110.735 178.36 110.591C178.242 110.446 178.099 110.341 177.903 110.288C177.72 110.222 177.472 110.196 177.185 110.196C176.938 110.196 176.69 110.222 176.442 110.262C176.194 110.314 175.959 110.367 175.724 110.433C175.502 110.499 175.294 110.578 175.098 110.643C174.902 110.722 174.746 110.788 174.615 110.854H174.602L174.289 110.183C174.38 110.104 174.524 109.998 174.746 109.867C174.968 109.735 175.228 109.616 175.529 109.485C175.829 109.366 176.155 109.261 176.494 109.169C176.846 109.077 177.185 109.037 177.525 109.037C178.007 109.037 178.412 109.09 178.751 109.182C179.077 109.287 179.351 109.445 179.56 109.656C179.769 109.88 179.912 110.156 180.003 110.512C180.095 110.867 180.134 111.288 180.134 111.802V116.383H180.982V117.055C180.891 117.081 180.786 117.107 180.669 117.134C180.551 117.16 180.421 117.186 180.29 117.213C180.16 117.239 180.016 117.265 179.886 117.279C179.756 117.292 179.612 117.305 179.495 117.305C179.364 117.305 179.26 117.305 179.155 117.292C179.064 117.279 178.986 117.252 178.921 117.2C178.855 117.147 178.816 117.081 178.79 116.976C178.764 116.884 178.751 116.752 178.751 116.581V116.318C178.686 116.37 178.594 116.449 178.464 116.568C178.334 116.673 178.164 116.791 177.968 116.897C177.773 117.002 177.551 117.107 177.29 117.186C177.042 117.265 176.768 117.305 176.481 117.305C176.168 117.305 175.868 117.265 175.581 117.173C175.294 117.081 175.046 116.949 174.824 116.778C174.602 116.594 174.433 116.37 174.302 116.081C174.172 115.791 174.133 115.462 174.133 115.067ZM177.107 116.252C177.198 116.252 177.316 116.239 177.446 116.212C177.577 116.186 177.72 116.146 177.864 116.107C178.007 116.054 178.151 116.002 178.281 115.936C178.425 115.87 178.542 115.791 178.66 115.712V113.132C178.112 113.132 177.655 113.184 177.277 113.276C176.911 113.369 176.611 113.5 176.39 113.658C176.168 113.816 176.011 114 175.92 114.211C175.829 114.422 175.776 114.632 175.776 114.856C175.776 115.106 175.816 115.33 175.881 115.501C175.946 115.672 176.037 115.817 176.155 115.936C176.272 116.041 176.416 116.133 176.572 116.173C176.755 116.225 176.924 116.252 177.107 116.252Z" fill="#9FC0FF"/>
</g>
<g opacity="0.8">
<g filter="url(#filter1_dd_50785_37326)">
<path d="M171.887 232H311.838C318.398 232 323.724 236.713 323.724 242.518V288.898C323.724 294.703 318.398 299.416 311.838 299.416H171.887C165.326 299.416 160 294.703 160 288.898V242.518C160 236.713 165.326 232 171.887 232Z" fill="white"/>
</g>
<path d="M211.093 267.017C211.093 271.261 209.787 275.198 207.554 278.455C206.609 279.846 205.498 281.102 204.236 282.208C203.507 282.849 202.725 283.448 201.91 283.982C201.193 284.446 200.448 284.872 199.672 285.249C196.996 286.549 193.985 287.282 190.808 287.282C190.646 287.282 190.495 287.282 190.333 287.277C188.596 287.234 186.907 286.98 185.305 286.527C185.014 286.446 184.728 286.36 184.442 286.263C182.667 285.675 180.989 284.845 179.468 283.82C178.329 283.044 177.267 282.159 176.306 281.172C175.017 279.862 173.916 278.368 173.026 276.751C171.435 273.86 170.534 270.544 170.534 267.017C170.534 255.828 179.619 246.747 190.813 246.747C202.008 246.747 211.093 255.828 211.093 267.017Z" fill="#E7EEFF"/>
<path d="M204.347 265.944C204.482 262.029 201.634 250.646 191.869 251.789C191.869 251.789 189.312 250.753 186.118 252.404C182.029 254.534 175.069 267.033 173.019 276.75C173.019 276.75 173.445 277.689 174.271 278.902C174.988 279.959 176.305 281.172 176.305 281.172C177.265 282.153 178.328 283.043 179.466 283.814C180.987 284.844 182.665 285.675 184.44 286.257C184.726 286.36 185.012 286.44 185.303 286.527C186.938 286.397 188.756 286.548 190.331 287.276C190.493 287.282 190.65 287.282 190.806 287.282C193.984 287.282 196.994 286.548 199.67 285.249C200.447 284.866 201.191 284.445 201.909 283.982C202.723 283.448 203.506 282.849 204.234 282.207C205.491 281.097 206.608 279.84 207.552 278.454C203.813 273.682 204.229 269.686 204.347 265.944Z" fill="#091B36"/>
<path d="M204.238 282.207C203.51 282.849 202.728 283.447 201.913 283.981C201.196 284.445 200.451 284.871 199.674 285.248L199.966 279.84C199.966 279.84 202.318 280.379 204.238 282.202V282.207Z" fill="#9D97F4"/>
<path d="M201.907 283.98C201.189 284.444 200.445 284.87 199.668 285.247C196.992 286.547 193.982 287.28 190.804 287.28C190.642 287.28 190.491 287.28 190.329 287.275C188.592 287.232 186.903 286.978 185.301 286.525C185.01 286.444 184.724 286.358 184.438 286.261C182.663 285.673 180.985 284.843 179.464 283.818L181.794 279.186C183.219 279.073 184.567 278.997 185.841 278.954H185.846C189.747 278.82 192.903 278.96 195.228 279.17C198.324 279.45 199.965 279.844 199.965 279.844C199.965 279.844 200.828 281.386 201.907 283.98Z" fill="#9D97F4"/>
<path d="M179.466 283.813C178.328 283.042 177.265 282.158 176.305 281.171C179.018 279.38 181.797 279.186 181.797 279.186C181.797 279.186 183.555 282.859 184.44 286.256C182.665 285.673 180.987 284.843 179.466 283.818V283.813Z" fill="#9D97F4"/>
<path d="M185.771 279.091C186.283 278.126 187.761 273.208 187.751 270.657L188.188 270.728L195.546 271.962C195.546 271.962 195.379 273.925 195.374 275.775C195.374 275.791 195.374 275.807 195.374 275.818C195.363 277.425 195.395 278.212 195.072 280.202C194.926 281.097 192.201 281.426 189.121 280.968C188.02 280.801 185.431 279.733 185.771 279.091Z" fill="#FFB27D"/>
<path d="M195.552 271.965C195.552 271.965 195.384 273.928 195.379 275.777C191.257 275.68 189.083 272.499 188.188 270.735L195.546 271.97L195.552 271.965Z" fill="#E8945B"/>
<path d="M196.929 274.266C196.929 274.266 187.18 274.428 187.175 268.356C187.169 262.289 185.907 258.223 192.127 257.862C198.348 257.501 199.562 259.814 200.058 261.842C200.554 263.864 199.464 274.066 196.929 274.266Z" fill="#FFB27D"/>
<path d="M196.571 257.717C196.571 257.717 193.901 264.834 189.806 265.886C185.711 266.938 183.937 265.843 183.937 265.843C183.937 265.843 187.076 263.346 187.729 258.995C187.729 258.995 194.559 254.325 196.571 257.717Z" fill="#091B36"/>
<path d="M195.909 258.294C195.909 258.294 197.889 259.033 198.703 260.478C199.502 261.891 200.176 263.756 200.02 266.048C200.02 266.048 202.032 261.211 199.772 258.472C197.376 255.571 195.909 258.294 195.909 258.294Z" fill="#091B36"/>
<rect x="223.831" y="246.938" width="31.2385" height="5.43279" rx="2.71639" fill="#FECE4D"/>
<rect x="223.831" y="257.806" width="27.1639" height="5.43279" rx="2.71639" fill="#EDF1F6"/>
<rect x="223.831" y="268.667" width="31.2385" height="5.43279" rx="2.71639" fill="#EDF1F6"/>
<rect x="223.831" y="279.535" width="31.2385" height="5.43279" rx="2.71639" fill="#EDF1F6"/>
<path d="M278.62 260.021H272.95C272.322 260.021 271.72 260.27 271.276 260.714C270.832 261.158 270.583 261.76 270.583 262.388V277.425C270.586 278.051 270.837 278.65 271.28 279.092C271.724 279.533 272.324 279.781 272.95 279.781H278.62C279.248 279.781 279.85 279.532 280.293 279.088C280.737 278.644 280.987 278.042 280.987 277.414V262.388C280.987 261.76 280.737 261.158 280.293 260.714C279.85 260.27 279.248 260.021 278.62 260.021ZM277.885 278.373C277.617 278.373 277.355 278.294 277.132 278.145C276.909 277.996 276.735 277.784 276.632 277.536C276.53 277.288 276.503 277.016 276.555 276.753C276.607 276.49 276.737 276.248 276.926 276.058C277.116 275.869 277.357 275.74 277.62 275.687C277.884 275.635 278.156 275.662 278.404 275.765C278.652 275.867 278.863 276.041 279.012 276.264C279.161 276.487 279.241 276.749 279.241 277.017C279.24 277.377 279.096 277.722 278.841 277.976C278.587 278.231 278.241 278.373 277.881 278.373H277.885Z" fill="#9D97F4"/>
<path d="M303.201 270.4V270.51H303.646C304.132 270.512 304.607 270.657 305.011 270.928C305.416 271.198 305.731 271.582 305.918 272.031C306.104 272.48 306.154 272.974 306.062 273.452C305.969 273.929 305.737 274.368 305.395 274.714C304.931 275.179 304.303 275.443 303.646 275.449H303.201V275.574C303.734 275.613 304.232 275.852 304.596 276.243C304.96 276.634 305.162 277.148 305.162 277.682C305.162 278.216 304.96 278.73 304.596 279.121C304.232 279.512 303.734 279.751 303.201 279.789C303.153 279.795 303.103 279.795 303.054 279.789H286.767C285.841 279.79 284.952 279.424 284.296 278.77C283.64 278.116 283.271 277.228 283.269 276.302V262.999C283.269 260.919 285.959 256.583 287.679 254.653C288.064 254.234 288.358 253.739 288.542 253.2C288.727 252.661 288.798 252.09 288.752 251.522C288.605 249.685 288.726 247.072 290.589 246.899C293.5 246.631 295.888 251.677 294.51 255.469C293.941 257.009 293.474 258.144 293.103 258.931H303.76C304.537 258.936 305.282 259.241 305.84 259.782C306.398 260.322 306.726 261.057 306.757 261.834C306.787 262.61 306.517 263.368 306.003 263.951C305.488 264.533 304.769 264.895 303.995 264.961C304.705 264.98 305.378 265.276 305.873 265.784C306.368 266.293 306.645 266.975 306.645 267.684C306.639 268.404 306.35 269.092 305.84 269.6C305.33 270.107 304.641 270.394 303.922 270.396L303.201 270.4Z" fill="#9D97F4"/>
</g>
<g filter="url(#filter2_dd_50785_37326)">
<path d="M62.6011 156H246.287C254.897 156 261.888 162.186 261.888 169.805V230.678C261.888 238.297 254.897 244.483 246.287 244.483H62.6011C53.9908 244.483 47 238.297 47 230.678V169.805C47 162.186 53.9908 156 62.6011 156Z" fill="white"/>
</g>
<path d="M202.11 191.984H194.249C193.379 191.984 192.544 192.329 191.929 192.945C191.313 193.56 190.968 194.394 190.968 195.265V216.112C190.972 216.98 191.319 217.81 191.934 218.422C192.549 219.034 193.381 219.378 194.249 219.378H202.11C202.98 219.378 203.815 219.032 204.43 218.417C205.045 217.802 205.391 216.967 205.391 216.097V195.265C205.391 194.394 205.045 193.56 204.43 192.945C203.815 192.329 202.98 191.984 202.11 191.984ZM201.091 217.427C200.719 217.427 200.356 217.316 200.047 217.11C199.737 216.903 199.496 216.61 199.354 216.266C199.212 215.923 199.175 215.545 199.247 215.18C199.32 214.815 199.499 214.48 199.762 214.217C200.025 213.954 200.36 213.775 200.724 213.703C201.089 213.63 201.467 213.668 201.81 213.81C202.154 213.952 202.448 214.193 202.654 214.502C202.861 214.811 202.971 215.175 202.971 215.547C202.97 216.046 202.77 216.524 202.417 216.876C202.064 217.229 201.585 217.427 201.086 217.427H201.091Z" fill="#15C1E6"/>
<path d="M236.188 206.373V206.526H236.805C237.479 206.528 238.137 206.729 238.697 207.104C239.258 207.48 239.695 208.012 239.954 208.634C240.213 209.257 240.282 209.942 240.153 210.603C240.024 211.265 239.703 211.874 239.23 212.354C238.586 212.998 237.715 213.364 236.805 213.373H236.188V213.546C236.926 213.6 237.617 213.931 238.121 214.473C238.626 215.015 238.906 215.728 238.906 216.468C238.906 217.208 238.626 217.921 238.121 218.463C237.617 219.005 236.926 219.336 236.188 219.39C236.12 219.397 236.052 219.397 235.984 219.39H213.404C212.12 219.391 210.888 218.883 209.979 217.976C209.069 217.07 208.557 215.839 208.554 214.555V196.112C208.554 193.228 212.284 187.217 214.668 184.542C215.202 183.96 215.609 183.274 215.865 182.527C216.121 181.78 216.22 180.988 216.156 180.201C215.952 177.654 216.12 174.031 218.703 173.792C222.738 173.42 226.049 180.415 224.139 185.673C223.349 187.808 222.702 189.382 222.188 190.472H236.962C238.04 190.48 239.072 190.902 239.846 191.652C240.62 192.402 241.075 193.42 241.117 194.497C241.159 195.573 240.785 196.624 240.072 197.432C239.359 198.239 238.362 198.741 237.288 198.833C238.272 198.859 239.206 199.269 239.892 199.974C240.578 200.679 240.962 201.624 240.962 202.608C240.954 203.605 240.553 204.559 239.846 205.263C239.14 205.967 238.184 206.364 237.187 206.368L236.188 206.373Z" fill="#15C1E6"/>
<path d="M117.663 198.805C117.663 204.979 115.766 210.697 112.53 215.435C111.19 217.412 109.607 219.209 107.821 220.793C107.781 220.832 107.742 220.872 107.703 220.903C106.653 221.836 105.517 222.699 104.326 223.484C103.283 224.158 102.202 224.77 101.074 225.327C97.187 227.218 92.8144 228.285 88.1989 228.285C87.9717 228.285 87.7444 228.285 87.5093 228.285C84.9861 228.222 82.5334 227.853 80.2061 227.186C79.7829 227.061 79.3676 226.943 78.9601 226.802C76.3742 225.947 73.9372 224.747 71.7274 223.249C70.0739 222.119 68.5302 220.832 67.1354 219.397C66.9865 219.248 66.8298 219.083 66.6887 218.926C65.0118 217.138 63.5543 215.129 62.3789 212.964C60.0594 208.752 58.7507 203.935 58.7507 198.805C58.7507 182.528 71.9468 169.317 88.2067 169.317C104.467 169.317 117.663 182.528 117.663 198.805Z" fill="#E7EEFF"/>
<path d="M107.818 220.801C107.818 220.801 107.74 220.879 107.701 220.91C106.651 221.844 105.515 222.707 104.323 223.491C103.281 224.166 102.2 224.778 101.071 225.335C97.1847 227.225 92.8122 228.292 88.1967 228.292C87.9694 228.292 87.7422 228.292 87.5071 228.292C84.9839 228.229 82.5312 227.861 80.2038 227.194C79.7807 227.068 79.3654 226.951 78.9579 226.81C76.372 225.955 73.9349 224.754 71.7252 223.256C70.0717 222.126 68.528 220.84 67.1332 219.404C66.9843 219.255 66.8276 219.091 66.6865 218.934C69.7818 217.349 74.8048 216.298 80.4389 215.937C85.8067 215.592 91.7308 215.874 97.0437 216.918C101.189 217.733 104.958 218.996 107.826 220.801H107.818Z" fill="#15C1E6"/>
<path d="M80.7331 217.111C84.5649 221.268 97.4397 220.649 97.0557 217.024C97.0008 216.577 96.9225 213.918 96.8755 213.51C96.8441 213.181 96.8128 212.859 96.7814 212.553C96.6952 211.659 96.6247 210.866 96.562 210.184C96.3896 208.191 96.3348 207.117 96.3348 207.117H96.3191C95.9508 207.015 87.6759 204.661 83.5541 203.689C82.1749 203.359 81.2581 203.187 81.2738 203.312C82.5354 212.569 79.4636 215.754 80.7174 217.119L80.7331 217.111Z" fill="#FFB27D"/>
<path d="M83.1204 206.415C83.1204 206.415 86.5761 209.929 96.5593 210.18C96.3869 208.188 96.3321 207.113 96.3321 207.113H96.3164C95.9481 207.011 87.6732 204.657 83.5514 203.685C82.8226 203.983 83.7865 205.92 83.1125 206.415H83.1204Z" fill="#ED975D"/>
<path d="M98.8731 206.617C98.8731 206.617 96.3499 207.527 93.1214 207.959C88.4119 208.594 82.2135 208.218 80.2702 202.515C76.9947 192.913 72.8023 187.147 82.4486 183.225C87.6126 181.123 90.9194 181.013 93.1606 181.813C95.1118 182.503 96.2558 183.884 97.1335 185.257C99.0063 188.198 102.775 204.939 98.8731 206.617Z" fill="#FFB27D"/>
<path d="M96.4036 177.827C99.8515 180.094 98.7231 185.405 94.664 186.119C92.227 186.55 90.1896 186.637 89.0063 187.162C86.6085 188.229 84.5476 189.359 85.1118 193.085C85.3077 194.356 85.9189 195.893 82.6669 195.132C82.134 195.007 81.7501 195.046 81.4836 195.203C80.1358 196.003 81.8598 199.894 82.377 200.741C82.377 200.741 83.1292 203.526 81.4601 204.883C81.2564 205.048 77.9887 206.475 70.1134 194.411C68.8753 192.52 67.692 188.253 69.6041 184.142C71.5161 180.031 76.8368 174.838 86.8749 174.838C89.4843 174.838 93.4102 175.874 96.3958 177.835L96.4036 177.827Z" fill="#091B36"/>
<rect x="130.773" y="175.607" width="41.0006" height="7.13053" rx="3.56527" fill="#FECE4D"/>
<rect x="130.773" y="189.871" width="35.6527" height="7.13053" rx="3.56527" fill="#EDF1F6"/>
<rect x="130.773" y="204.128" width="41.0006" height="7.13053" rx="3.56527" fill="#EDF1F6"/>
<rect x="130.773" y="218.391" width="41.0006" height="7.13053" rx="3.56527" fill="#EDF1F6"/>
<g filter="url(#filter3_dd_50785_37326)">
<path d="M282.627 156.48C306.508 156.48 325.867 137.121 325.867 113.24C325.867 89.359 306.508 70 282.627 70C258.746 70 239.387 89.359 239.387 113.24C239.387 137.121 258.746 156.48 282.627 156.48Z" fill="white" stroke="#3D7FFC" stroke-width="2.50667"/>
<path d="M283 124.667C278.049 124.667 273.301 122.7 269.8 119.199C266.3 115.699 264.333 110.951 264.333 106C264.333 101.049 266.3 96.3013 269.8 92.8006C273.301 89.3 278.049 87.3333 283 87.3333C287.95 87.3333 292.698 89.3 296.199 92.8006C299.7 96.3013 301.666 101.049 301.666 106C301.661 110.949 299.692 115.693 296.193 119.193C292.693 122.692 287.949 124.661 283 124.667ZM283 92C279.287 92 275.726 93.475 273.1 96.1005C270.475 98.726 269 102.287 269 106C269 109.713 270.475 113.274 273.1 115.9C275.726 118.525 279.287 120 283 120C286.713 120 290.274 118.525 292.899 115.9C295.525 113.274 297 109.713 297 106C296.996 102.288 295.52 98.7296 292.895 96.1049C290.27 93.4803 286.711 92.004 283 92Z" fill="#3D7FFC"/>
<path d="M275.981 138.667L284.148 122.333L280.097 120L275.402 129.387L272.266 124.695H266.05L271.333 116.773L268.239 113L257.333 129.361H269.777L275.981 138.667Z" fill="#3D7FFC"/>
<path d="M290.018 138.667L281.852 122.333L285.903 120L290.597 129.387L293.733 124.695H299.956L294.666 116.773L297.76 113L308.667 129.361H296.223L290.018 138.667Z" fill="#3D7FFC"/>
<path d="M280.667 113.971L274.351 107.654L277.65 104.355L280.667 107.372L288.351 99.6884L291.65 102.988L280.667 113.971Z" fill="#3D7FFC"/>
</g>
</g>
<defs>
<filter id="filter0_dd_50785_37326" x="24.4482" y="64.3399" width="319.194" height="241.244" filterUnits="userSpaceOnUse" color-interpolation-filters="sRGB">
<feFlood flood-opacity="0" result="BackgroundImageFix"/>
<feColorMatrix in="SourceAlpha" type="matrix" values="0 0 0 0 0 0 0 0 0 0 0 0 0 0 0 0 0 0 127 0" result="hardAlpha"/>
<feOffset dy="11.0641"/>
<feGaussianBlur stdDeviation="13.8301"/>
<feColorMatrix type="matrix" values="0 0 0 0 0.607843 0 0 0 0 0.67451 0 0 0 0 0.737255 0 0 0 0.35 0"/>
<feBlend mode="normal" in2="BackgroundImageFix" result="effect1_dropShadow_50785_37326"/>
<feColorMatrix in="SourceAlpha" type="matrix" values="0 0 0 0 0 0 0 0 0 0 0 0 0 0 0 0 0 0 127 0" result="hardAlpha"/>
<feOffset dy="5.53203"/>
<feGaussianBlur stdDeviation="16.5961"/>
<feColorMatrix type="matrix" values="0 0 0 0 0.89625 0 0 0 0 0.930414 0 0 0 0 0.995833 0 0 0 0.5 0"/>
<feBlend mode="normal" in2="effect1_dropShadow_50785_37326" result="effect2_dropShadow_50785_37326"/>
<feBlend mode="normal" in="SourceGraphic" in2="effect2_dropShadow_50785_37326" result="shape"/>
</filter>
<filter id="filter1_dd_50785_37326" x="138.486" y="214.071" width="206.753" height="110.444" filterUnits="userSpaceOnUse" color-interpolation-filters="sRGB">
<feFlood flood-opacity="0" result="BackgroundImageFix"/>
<feColorMatrix in="SourceAlpha" type="matrix" values="0 0 0 0 0 0 0 0 0 0 0 0 0 0 0 0 0 0 127 0" result="hardAlpha"/>
<feOffset dy="7.1714"/>
<feGaussianBlur stdDeviation="8.96425"/>
<feColorMatrix type="matrix" values="0 0 0 0 0.607843 0 0 0 0 0.67451 0 0 0 0 0.737255 0 0 0 0.35 0"/>
<feBlend mode="normal" in2="BackgroundImageFix" result="effect1_dropShadow_50785_37326"/>
<feColorMatrix in="SourceAlpha" type="matrix" values="0 0 0 0 0 0 0 0 0 0 0 0 0 0 0 0 0 0 127 0" result="hardAlpha"/>
<feOffset dy="3.5857"/>
<feGaussianBlur stdDeviation="10.7571"/>
<feColorMatrix type="matrix" values="0 0 0 0 0.89625 0 0 0 0 0.930414 0 0 0 0 0.995833 0 0 0 0.5 0"/>
<feBlend mode="normal" in2="effect1_dropShadow_50785_37326" result="effect2_dropShadow_50785_37326"/>
<feBlend mode="normal" in="SourceGraphic" in2="effect2_dropShadow_50785_37326" result="shape"/>
</filter>
<filter id="filter2_dd_50785_37326" x="21.719" y="134.933" width="265.45" height="139.045" filterUnits="userSpaceOnUse" color-interpolation-filters="sRGB">
<feFlood flood-opacity="0" result="BackgroundImageFix"/>
<feColorMatrix in="SourceAlpha" type="matrix" values="0 0 0 0 0 0 0 0 0 0 0 0 0 0 0 0 0 0 127 0" result="hardAlpha"/>
<feOffset dy="8.42699"/>
<feGaussianBlur stdDeviation="10.5337"/>
<feColorMatrix type="matrix" values="0 0 0 0 0.607843 0 0 0 0 0.67451 0 0 0 0 0.737255 0 0 0 0.35 0"/>
<feBlend mode="normal" in2="BackgroundImageFix" result="effect1_dropShadow_50785_37326"/>
<feColorMatrix in="SourceAlpha" type="matrix" values="0 0 0 0 0 0 0 0 0 0 0 0 0 0 0 0 0 0 127 0" result="hardAlpha"/>
<feOffset dy="4.2135"/>
<feGaussianBlur stdDeviation="12.6405"/>
<feColorMatrix type="matrix" values="0 0 0 0 0.89625 0 0 0 0 0.930414 0 0 0 0 0.995833 0 0 0 0.5 0"/>
<feBlend mode="normal" in2="effect1_dropShadow_50785_37326" result="effect2_dropShadow_50785_37326"/>
<feBlend mode="normal" in="SourceGraphic" in2="effect2_dropShadow_50785_37326" result="shape"/>
</filter>
<filter id="filter3_dd_50785_37326" x="228.336" y="58.9498" width="119.777" height="119.777" filterUnits="userSpaceOnUse" color-interpolation-filters="sRGB">
<feFlood flood-opacity="0" result="BackgroundImageFix"/>
<feColorMatrix in="SourceAlpha" type="matrix" values="0 0 0 0 0 0 0 0 0 0 0 0 0 0 0 0 0 0 127 0" result="hardAlpha"/>
<feOffset dx="6.99777" dy="6.99777"/>
<feGaussianBlur stdDeviation="6.99777"/>
<feColorMatrix type="matrix" values="0 0 0 0 0 0 0 0 0 0.296699 0 0 0 0 0.858629 0 0 0 0.08 0"/>
<feBlend mode="normal" in2="BackgroundImageFix" result="effect1_dropShadow_50785_37326"/>
<feColorMatrix in="SourceAlpha" type="matrix" values="0 0 0 0 0 0 0 0 0 0 0 0 0 0 0 0 0 0 127 0" result="hardAlpha"/>
<feOffset/>
<feGaussianBlur stdDeviation="4.89844"/>
<feComposite in2="hardAlpha" operator="out"/>
<feColorMatrix type="matrix" values="0 0 0 0 0.0354167 0 0 0 0 0.105426 0 0 0 0 0.2125 0 0 0 0.07 0"/>
<feBlend mode="normal" in2="effect1_dropShadow_50785_37326" result="effect2_dropShadow_50785_37326"/>
<feBlend mode="normal" in="SourceGraphic" in2="effect2_dropShadow_50785_37326" result="shape"/>
</filter>
<clipPath id="clip0_50785_37326">
<rect width="376" height="376" fill="white"/>
</clipPath>
<clipPath id="clip1_50785_37326">
<rect width="18.2758" height="18.2758" fill="white" transform="translate(82.9214 102.534)"/>
</clipPath>
<clipPath id="clip2_50785_37326">
<rect width="74.5789" height="16.854" fill="white" transform="translate(106.096 104.641)"/>
</clipPath>
</defs>
</svg>
