<svg width="47" height="47" viewBox="0 0 47 47" fill="none" xmlns="http://www.w3.org/2000/svg">
<path d="M23.1098 39.3105C21.049 39.3105 19.3792 40.9803 19.3792 43.0412C19.3792 45.102 21.049 46.7719 23.1098 46.7719C25.1707 46.7719 26.8405 45.102 26.8405 43.0412C26.8405 40.9803 25.1707 39.3105 23.1098 39.3105Z" fill="#FECE4D"/>
<path fill-rule="evenodd" clip-rule="evenodd" d="M21.9319 30.0321H24.2917V38.4622C23.914 38.365 23.518 38.3134 23.1098 38.3134C22.7032 38.3134 22.3085 38.3647 21.9319 38.4612V30.0321Z" fill="#C6DBFF"/>
<path d="M11.7573 39.3087C9.69651 39.3087 8.02661 40.9785 8.02661 43.0394C8.02661 45.1002 9.69651 46.7701 11.7573 46.7701C13.8181 46.7701 15.488 45.1002 15.488 43.0394C15.488 40.9785 13.8181 39.3087 11.7573 39.3087Z" fill="#FECE4D"/>
<path fill-rule="evenodd" clip-rule="evenodd" d="M12.9372 38.4599C12.5601 38.3631 12.1647 38.3116 11.7573 38.3116C11.3499 38.3116 10.9546 38.3631 10.5774 38.4599V36.3605C10.5774 35.8615 10.8909 35.4183 11.3593 35.2508L14.3063 34.1952V30.0303H16.6662V35.0256C16.6662 35.5246 16.3527 35.9678 15.8843 36.1371L12.9372 37.1927V38.4599Z" fill="#C6DBFF"/>
<path d="M34.4678 39.3087C36.5286 39.3087 38.1985 40.9785 38.1985 43.0394C38.1985 45.1002 36.5286 46.7701 34.4678 46.7701C32.407 46.7701 30.7371 45.1002 30.7371 43.0394C30.7371 40.9785 32.407 39.3087 34.4678 39.3087Z" fill="#FECE4D"/>
<path fill-rule="evenodd" clip-rule="evenodd" d="M33.2868 38.4602C33.6644 38.3632 34.0603 38.3116 34.4682 38.3116C34.8751 38.3116 35.2699 38.3629 35.6466 38.4594V36.3605C35.6466 35.8615 35.3332 35.4183 34.8648 35.2508L31.9177 34.1952V30.0303H29.5579V35.0256C29.5579 35.5246 29.8713 35.9678 30.3396 36.1371L33.2868 37.1927V38.4602Z" fill="#C6DBFF"/>
<path d="M36.8731 11.3596C36.3543 11.3596 35.8499 11.4137 35.3563 11.5038C34.9528 5.08536 29.6333 0 23.1122 0C17.3099 0 12.4605 4.02793 11.1743 9.43575C10.8969 9.41053 10.6195 9.39251 10.3348 9.39251C5.17922 9.39251 1 13.5718 1 18.7274C1 23.883 5.17922 28.0605 10.3348 28.0605H36.8731C41.4847 28.0605 45.2245 24.3225 45.2245 19.711C45.2245 15.0994 41.4865 11.3596 36.8731 11.3596Z" fill="#3D7FFC"/>
</svg>
