<svg width="48" height="47" viewBox="0 0 48 47" fill="none" xmlns="http://www.w3.org/2000/svg">
<g clip-path="url(#clip0_51287_4608)">
<g clip-path="url(#clip1_51287_4608)">
<g clip-path="url(#clip2_51287_4608)">
<path fill-rule="evenodd" clip-rule="evenodd" d="M31.4879 13.1295C32.6381 14.2797 33.5408 15.6192 34.1714 17.1108C34.8249 18.6553 35.1565 20.2957 35.1565 21.9864C35.1565 25.217 33.9292 28.2851 31.7013 30.624C29.6966 32.7285 28.5921 35.4643 28.5921 38.3274C28.5921 38.832 28.1815 39.2426 27.6769 39.2426H17.585C17.0797 39.2426 16.6698 38.832 16.6698 38.3274C16.6698 35.4643 15.5653 32.7285 13.5606 30.624C11.3327 28.2851 10.1055 25.217 10.1055 21.9864C10.1055 20.2957 10.4371 18.6553 11.0905 17.1108C11.7211 15.6192 12.6239 14.2797 13.7741 13.1295C14.9243 11.9794 16.2638 11.0766 17.7554 10.446C18.5276 10.1189 19.3233 9.87349 20.138 9.70834C20.9533 9.54384 21.7863 9.46094 22.631 9.46094C24.3217 9.46094 25.9621 9.79255 27.5066 10.446C28.9982 11.0766 30.3377 11.9794 31.4879 13.1295ZM15.4966 16.275L16.775 14.9966C16.9745 14.7971 17.2923 14.782 17.5096 14.9638L18.4423 15.7421C18.6186 15.889 18.8557 15.9115 19.0572 15.7995C19.5253 15.5398 20.0255 15.33 20.5509 15.1804C20.7723 15.1175 20.9233 14.9337 20.9445 14.7048L21.0531 13.4961C21.0784 13.2146 21.3128 13 21.5963 13H23.4037C23.6859 13 23.9209 13.2139 23.9469 13.4961L24.0555 14.7048C24.076 14.9337 24.2277 15.1175 24.4491 15.1804C24.9745 15.33 25.4747 15.5398 25.9428 15.7995C26.1437 15.9115 26.3808 15.8896 26.5571 15.7421L27.4898 14.9638C27.7077 14.7813 28.0255 14.7964 28.2257 14.9966L29.5041 16.275C29.7036 16.4745 29.718 16.7923 29.5369 17.0096L28.7586 17.9423C28.611 18.1186 28.5885 18.3557 28.7005 18.5572C28.9616 19.0253 29.17 19.5255 29.3196 20.0509C29.3832 20.2723 29.5663 20.4233 29.7952 20.4445L31.0039 20.5531C31.2854 20.5784 31.5 20.8128 31.5 21.0963V22.9037C31.5 23.1859 31.2861 23.4209 31.0039 23.4469L29.7952 23.5555C29.5663 23.576 29.3832 23.7277 29.3203 23.9491C29.17 24.4745 28.9616 24.9747 28.7005 25.4428C28.5885 25.6437 28.6104 25.8808 28.7586 26.0571L29.5369 26.9897C29.7187 27.2077 29.7043 27.5255 29.5041 27.7257L28.2257 29.0041C28.0255 29.2036 27.707 29.218 27.4898 29.0369L26.5571 28.2586C26.3808 28.111 26.1437 28.0885 25.9428 28.2005C25.4747 28.4616 24.9745 28.67 24.4491 28.8196C24.2277 28.8832 24.076 29.0663 24.0555 29.2952L23.9469 30.5039C23.9209 30.7854 23.6865 31 23.4037 31H21.5963C21.3128 31 21.0784 30.7861 21.0531 30.5039L20.9445 29.2952C20.9233 29.0663 20.7723 28.8832 20.5509 28.8203C20.0255 28.67 19.5253 28.4616 19.0572 28.2005C18.8557 28.0885 18.6186 28.1104 18.4423 28.2586L17.5096 29.0369C17.2923 29.2187 16.9752 29.2043 16.775 29.0041L15.4966 27.7257C15.2971 27.5255 15.282 27.207 15.4638 26.9897L16.2421 26.0571C16.389 25.8808 16.4115 25.6437 16.2995 25.4428C16.0398 24.9747 15.83 24.4745 15.6804 23.9491C15.6175 23.7277 15.4337 23.576 15.2048 23.5555L13.9961 23.4469C13.7146 23.4209 13.5 23.1865 13.5 22.9037V21.0963C13.5 20.8128 13.7139 20.5784 13.9961 20.5531L15.2048 20.4438C15.4337 20.4233 15.6175 20.2723 15.6804 20.0509C15.8307 19.5255 16.0398 19.0253 16.2995 18.5572C16.4115 18.3557 16.3896 18.1186 16.2421 17.9423L15.4638 17.0096C15.2813 16.7923 15.2964 16.4752 15.4966 16.275ZM26.5017 22.0003C26.5017 19.7906 24.7101 17.999 22.5003 17.999C20.2906 17.999 18.499 19.7899 18.499 22.0003C18.499 24.2108 20.2899 26.0017 22.5003 26.0017C24.7108 26.0017 26.5017 24.2101 26.5017 22.0003Z" fill="#FECE4D"/>
<path d="M8.19233 22.131C8.19233 21.6421 7.7961 21.2458 7.30717 21.2458H1.38517C0.896236 21.2458 0.5 21.6421 0.5 22.131C0.5 22.6199 0.896236 23.0162 1.38517 23.0162H7.30717C7.7961 23.0162 8.19233 22.6199 8.19233 22.131Z" fill="#9FC0FF"/>
<path d="M8.19233 22.131C8.19233 21.6421 7.7961 21.2458 7.30717 21.2458H1.38517C0.896236 21.2458 0.5 21.6421 0.5 22.131C0.5 22.6199 0.896236 23.0162 1.38517 23.0162H7.30717C7.7961 23.0162 8.19233 22.6199 8.19233 22.131Z" stroke="#9FC0FF"/>
<path d="M43.8775 21.2461H37.9555C37.4666 21.2461 37.0703 21.6423 37.0703 22.1313C37.0703 22.6202 37.4666 23.0164 37.9555 23.0164H43.8775C44.3664 23.0164 44.7626 22.6202 44.7626 22.1313C44.7626 21.6423 44.3664 21.2461 43.8775 21.2461Z" fill="#9FC0FF"/>
<path d="M43.8775 21.2461H37.9555C37.4666 21.2461 37.0703 21.6423 37.0703 22.1313C37.0703 22.6202 37.4666 23.0164 37.9555 23.0164H43.8775C44.3664 23.0164 44.7626 22.6202 44.7626 22.1313C44.7626 21.6423 44.3664 21.2461 43.8775 21.2461Z" stroke="#9FC0FF"/>
<path d="M11.1694 32.3415L6.98181 36.5291C6.80882 36.7021 6.72266 36.9286 6.72266 37.1551C6.72266 37.3816 6.80882 37.6081 6.98181 37.7811C7.1548 37.9541 7.38131 38.0403 7.60782 38.0403C7.83434 38.0403 8.06085 37.9541 8.23384 37.7811L12.4214 33.5935C12.5944 33.4206 12.6806 33.194 12.6806 32.9675C12.6806 32.741 12.5944 32.5145 12.4214 32.3415C12.0754 31.9955 11.5154 31.9955 11.1694 32.3415Z" fill="#9FC0FF"/>
<path d="M11.1694 32.3415L6.98181 36.5291C6.80882 36.7021 6.72266 36.9286 6.72266 37.1551C6.72266 37.3816 6.80882 37.6081 6.98181 37.7811C7.1548 37.9541 7.38131 38.0403 7.60782 38.0403C7.83434 38.0403 8.06085 37.9541 8.23384 37.7811L12.4214 33.5935C12.5944 33.4206 12.6806 33.194 12.6806 32.9675C12.6806 32.741 12.5944 32.5145 12.4214 32.3415C12.0754 31.9955 11.5154 31.9955 11.1694 32.3415Z" stroke="#9FC0FF"/>
<path d="M33.4672 12.1809C33.6937 12.1809 33.9202 12.0947 34.0932 11.9217L38.2808 7.73416C38.4538 7.56118 38.5399 7.33466 38.5399 7.10815C38.5399 6.88164 38.4538 6.65512 38.2808 6.48214C37.9348 6.13616 37.3747 6.13616 37.0288 6.48214L32.8412 10.6697C32.6682 10.8427 32.582 11.0692 32.582 11.2957C32.582 11.5222 32.6682 11.7487 32.8412 11.9217C33.0142 12.0947 33.2407 12.1809 33.4672 12.1809Z" fill="#9FC0FF"/>
<path d="M33.4672 12.1809C33.6937 12.1809 33.9202 12.0947 34.0932 11.9217L38.2808 7.73416C38.4538 7.56118 38.5399 7.33466 38.5399 7.10815C38.5399 6.88164 38.4538 6.65512 38.2808 6.48214C37.9348 6.13616 37.3747 6.13616 37.0288 6.48214L32.8412 10.6697C32.6682 10.8427 32.582 11.0692 32.582 11.2957C32.582 11.5222 32.6682 11.7487 32.8412 11.9217C33.0142 12.0947 33.2407 12.1809 33.4672 12.1809Z" stroke="#9FC0FF"/>
<path d="M22.6313 7.69233C23.1202 7.69233 23.5164 7.2961 23.5164 6.80717V0.885167C23.5164 0.396236 23.1202 0 22.6313 0C22.1423 0 21.7461 0.396236 21.7461 0.885167V6.80717C21.7461 7.2961 22.1423 7.69233 22.6313 7.69233Z" fill="#9FC0FF"/>
<path d="M22.6313 7.69233C23.1202 7.69233 23.5164 7.2961 23.5164 6.80717V0.885167C23.5164 0.396236 23.1202 0 22.6313 0C22.1423 0 21.7461 0.396236 21.7461 0.885167V6.80717C21.7461 7.2961 22.1423 7.69233 22.6313 7.69233Z" stroke="#9FC0FF"/>
<path d="M34.0932 32.3415C33.7472 31.9955 33.1872 31.9955 32.8412 32.3415C32.6682 32.5145 32.582 32.741 32.582 32.9675C32.582 33.194 32.6682 33.4206 32.8412 33.5935L37.0288 37.7811C37.2017 37.9541 37.4283 38.0403 37.6548 38.0403C37.8813 38.0403 38.1078 37.9541 38.2808 37.7811C38.4538 37.6081 38.5399 37.3816 38.5399 37.1551C38.5399 36.9286 38.4538 36.7021 38.2808 36.5291L34.0932 32.3415Z" fill="#9FC0FF"/>
<path d="M34.0932 32.3415C33.7472 31.9955 33.1872 31.9955 32.8412 32.3415C32.6682 32.5145 32.582 32.741 32.582 32.9675C32.582 33.194 32.6682 33.4206 32.8412 33.5935L37.0288 37.7811C37.2017 37.9541 37.4283 38.0403 37.6548 38.0403C37.8813 38.0403 38.1078 37.9541 38.2808 37.7811C38.4538 37.6081 38.5399 37.3816 38.5399 37.1551C38.5399 36.9286 38.4538 36.7021 38.2808 36.5291L34.0932 32.3415Z" stroke="#9FC0FF"/>
<path d="M11.1694 11.9217C11.3424 12.0947 11.5689 12.1809 11.7954 12.1809C12.0219 12.1809 12.2484 12.0947 12.4214 11.9217C12.5944 11.7487 12.6806 11.5222 12.6806 11.2957C12.6806 11.0692 12.5944 10.8427 12.4214 10.6697L8.23384 6.48214C7.88786 6.13616 7.32778 6.13616 6.98181 6.48214C6.80882 6.65512 6.72266 6.88164 6.72266 7.10815C6.72266 7.33466 6.80882 7.56118 6.98181 7.73416L11.1694 11.9217Z" fill="#9FC0FF"/>
<path d="M11.1694 11.9217C11.3424 12.0947 11.5689 12.1809 11.7954 12.1809C12.0219 12.1809 12.2484 12.0947 12.4214 11.9217C12.5944 11.7487 12.6806 11.5222 12.6806 11.2957C12.6806 11.0692 12.5944 10.8427 12.4214 10.6697L8.23384 6.48214C7.88786 6.13616 7.32778 6.13616 6.98181 6.48214C6.80882 6.65512 6.72266 6.88164 6.72266 7.10815C6.72266 7.33466 6.80882 7.56118 6.98181 7.73416L11.1694 11.9217Z" stroke="#9FC0FF"/>
<path d="M27.0269 42.7715H18.2379C17.7809 42.7715 17.4102 43.1423 17.4102 43.5992C17.4102 44.0562 17.7809 44.4269 18.2379 44.4269H27.0269C27.4838 44.4269 27.8546 44.0562 27.8546 43.5992C27.8546 43.1423 27.4838 42.7715 27.0269 42.7715Z" fill="#3D7FFC"/>
<path d="M27.5924 40.168H17.6754C17.2184 40.168 16.8477 40.5388 16.8477 40.9957C16.8477 41.4526 17.2184 41.8234 17.6754 41.8234H27.5924C28.0493 41.8234 28.4201 41.4526 28.4201 40.9957C28.4201 40.5388 28.0493 40.168 27.5924 40.168Z" fill="#3D7FFC"/>
<path d="M25.9128 45.3438H19.3517C19.1513 45.3438 19.0468 45.582 19.182 45.7295L19.821 46.4267C20.1553 46.7916 20.6279 46.9992 21.1227 46.9992H24.1418C24.6366 46.9992 25.1092 46.7916 25.4434 46.4267L26.0825 45.7295C26.2176 45.582 26.1132 45.3438 25.9128 45.3438Z" fill="#3D7FFC"/>
</g>
</g>
</g>
<defs>
<clipPath id="clip0_51287_4608">
<rect width="47" height="47" fill="white" transform="translate(0.5)"/>
</clipPath>
<clipPath id="clip1_51287_4608">
<rect width="47" height="47" fill="white" transform="translate(0.5)"/>
</clipPath>
<clipPath id="clip2_51287_4608">
<rect width="44.2622" height="47" fill="white" transform="translate(0.5)"/>
</clipPath>
</defs>
</svg>
