<svg width="88" height="40" viewBox="0 0 88 40" fill="none" xmlns="http://www.w3.org/2000/svg">
<g id="masco">
<g id="Frame 1143016">
<g id="Group 1143367">
<g id="Masco_Co._logo 1" clip-path="url(#clip0_11898_26749)">
<g id="01.Design-System">
<g id="Homepage---Spacing@2x">
<g id="Masco_432">
<path id="Fill-1" fill-rule="evenodd" clip-rule="evenodd" d="M31.8689 9.44873L39.2243 26.3463C39.2243 26.3463 40.3363 28.5409 42.1309 29.3411C42.8427 29.6584 44.4048 29.5592 44.4048 29.5592C44.4048 29.5592 47.3833 29.2035 47.4498 25.672C47.4893 23.5697 46.0972 22.6798 45.2748 22.1814C43.761 21.264 38.038 19.6825 38.1961 15.4779C38.2977 12.7813 40.6084 10.1627 43.5743 10.1627C45.553 10.1627 46.0233 11.0354 47.1334 11.0354C48.4384 11.0354 49.0316 9.96438 49.0316 9.96438L49.5852 15.3192H49.0316C49.0316 15.3192 47.8452 10.7974 43.5743 10.7974C40.4896 10.7974 40.5018 13.6138 40.4898 13.9309C40.4107 16.0332 42.7956 17.1102 45.4725 18.0958C48.5966 19.2461 50.5343 21.7451 50.6134 23.887C50.6925 26.029 48.735 29.9955 43.9302 30.174C41.1638 30.2767 40.2525 29.0832 38.5125 29.3609C37.4706 29.5272 37.0098 30.5509 37.0098 30.5509L33.6484 22.0227H27.1234L25.6998 25.2357C25.6998 25.2357 24.6716 27.4966 25.4625 28.6072C26.2534 29.7179 27.9143 29.5196 27.9143 29.5196V30.1542H16.8416V29.5196C16.8416 29.5196 18.1071 29.9162 18.9771 28.7262C19.8471 27.5363 19.6889 26.505 19.6889 26.505V11.8683L12.4916 30.1542L4.89887 12.2253L4.81978 25.3943C4.81978 25.3943 4.93842 28.1709 5.72933 28.8849C6.52023 29.5989 7.62751 29.5989 7.62751 29.5989V30.1542H0.865234V29.5989C0.865234 29.5989 2.58024 29.7439 3.23796 28.5676C4.14751 26.9413 4.18705 25.1563 4.18705 25.1563V13.4153C4.18705 13.4153 4.00499 12.3273 3.63342 11.908C3.00069 11.194 1.49796 11.0354 1.49796 11.0354V10.6387H8.06251L13.8361 24.6803L19.4121 10.6387H25.5416V11.0354C25.5416 11.0354 24.2989 11.1439 23.8016 11.5113C23.0502 12.0667 23.0107 12.622 23.0107 12.622V29.1229L23.3666 28.5279C23.3666 28.5279 24.1575 26.7033 24.6321 25.791C25.1066 24.8787 26.6093 21.6261 26.8861 20.9121C27.163 20.1981 31.8689 9.44873 31.8689 9.44873ZM27.3211 21.3881L30.4848 14.0896L33.4111 21.3881H27.3211ZM67.1434 24.125C67.1434 24.125 66.0757 29.2816 60.4602 29.4799C55.3223 29.6614 54.5284 23.0937 54.568 20.5154C54.6047 18.1239 55.0412 10.7234 60.6975 10.6784C65.6802 10.6387 66.9061 15.3986 66.9061 15.3986H67.3016L66.9457 9.80572C66.9457 9.80572 66.1943 10.7974 65.008 10.956C63.8216 11.1147 63.3471 10.004 60.5789 10.0834C57.8107 10.1627 51.0106 12.0641 50.9298 20.4758C50.8507 28.6866 58.127 30.3129 60.2625 30.2335C61.3691 30.1923 64.6726 30.0923 66.9061 26.7033C68.4484 24.363 67.1434 24.125 67.1434 24.125ZM71.1771 20.0395C71.1771 14.7379 73.5893 10.48 77.7416 10.5197C82.1707 10.4404 84.2193 14.7379 84.2193 20.0395C84.2193 25.341 81.7357 29.4799 77.7021 29.4799C73.4707 29.4006 71.1771 25.341 71.1771 20.0395ZM67.5389 20.0395C67.5389 14.1293 72.1503 9.92472 77.7416 9.92472C83.3328 9.92472 87.8652 13.6533 87.8652 20.0395C87.8652 25.6258 83.2933 30.1542 77.7021 30.1542C72.1108 30.1542 67.3016 26.1876 67.5389 20.0395Z" fill="#323E48"/>
</g>
</g>
</g>
</g>
</g>
</g>
</g>
<defs>
<clipPath id="clip0_11898_26749">
<rect width="87" height="21.1021" fill="white" transform="translate(0.865234 9.44873)"/>
</clipPath>
</defs>
</svg>
