<svg width="376" height="376" viewBox="0 0 376 376" fill="none" xmlns="http://www.w3.org/2000/svg">
<g clip-path="url(#clip0_50785_37481)">
<path d="M376 0H0V376H376V0Z" fill="white"/>
<path d="M187.49 329.86C266.119 329.86 329.86 266.119 329.86 187.49C329.86 108.861 266.119 45.1201 187.49 45.1201C108.861 45.1201 45.1201 108.861 45.1201 187.49C45.1201 266.119 108.861 329.86 187.49 329.86Z" fill="#F5F8FF"/>
<g filter="url(#filter0_dd_50785_37481)">
<rect x="117.796" y="88.7958" width="146.579" height="195.408" rx="5.57045" fill="white" stroke="#3D7FFC" stroke-width="1.59156"/>
<rect x="128.155" y="181.106" width="62.6082" height="4.77467" rx="2.38733" fill="#D2DCE4"/>
<rect x="128.155" y="191.451" width="38.3475" height="4.77467" rx="2.38733" fill="#EDF1F6"/>
<rect x="223.077" y="180.607" width="33.6752" height="5.05128" rx="2.52564" fill="#EDF1F6"/>
<rect x="172.564" y="190.709" width="84.188" height="5.05128" rx="2.52564" fill="#D2DCE4"/>
<ellipse cx="145.76" cy="103.97" rx="15.9748" ry="9.14711" fill="white"/>
</g>
<rect x="128.788" y="94.7351" width="122.915" height="65.6667" rx="5.57045" fill="#F5F8FF"/>
<path d="M167.508 151.478H219.233V148.211H215.966V120.606L197.89 115.651V148.156H195.44L195.44 100.732L170.775 105.633V148.211H167.508L167.508 151.478ZM208.562 124.853H211.829V129.1H208.562V124.853ZM208.562 132.421H211.829V136.668H208.562V132.421ZM208.562 139.989H211.829V144.236H208.562V139.989ZM201.974 124.853H205.241V129.1H201.974V124.853ZM201.974 132.421H205.241V136.668H201.974V132.421ZM201.974 139.989H205.241V144.236H201.974V139.989ZM188.035 109.771H191.302V114.018H188.035V109.771ZM188.035 117.339H191.302V121.586H188.035V117.339ZM188.035 124.853H191.302V129.1H188.035V124.853ZM188.035 132.421H191.302V136.668H188.035V132.421ZM181.446 109.771H184.714V114.018H181.446V109.771ZM181.446 117.339H184.714V121.586H181.446V117.339ZM181.446 124.853H184.714V129.1H181.446V124.853ZM181.446 132.421H184.714V136.668H181.446V132.421ZM174.858 109.771H178.126V114.018H174.858V109.771ZM174.858 117.339H178.126V121.586H174.858V117.339ZM174.858 124.853H178.126V129.1H174.858V124.853ZM174.858 132.421H178.126V136.668H174.858V132.421ZM179.976 139.99H186.238V148.211H179.976V139.99Z" fill="#3D7FFC"/>
<path d="M131.304 172.353H178.713" stroke="#9FC0FF" stroke-width="5.57045" stroke-linecap="round"/>
<path d="M161.745 225.044C160.179 222.747 158.069 220.872 155.603 219.585C155.682 220.569 155.527 221.557 155.15 222.47C154.774 223.383 154.188 224.194 153.439 224.838C155.366 225.96 156.918 227.627 157.897 229.629C158.876 231.631 159.24 233.878 158.942 236.086C159.256 235.943 159.587 235.842 159.927 235.784L160.592 235.751C160.852 235.378 161.106 234.994 161.345 234.605C161.497 234.266 161.678 233.941 161.886 233.632C161.951 233.497 162.016 233.368 162.075 233.238C162.584 232.157 163.574 232.968 164.499 232.53C164.061 228.698 163.006 226.882 161.745 225.044Z" fill="#15C1E6"/>
<path d="M145.659 249.311H145.805C145.735 248.965 145.659 248.625 145.562 248.279C145.524 248.133 145.475 247.987 145.438 247.841V247.803L145.048 246.571C144.94 246.221 144.899 245.855 144.929 245.49C142.792 244.93 140.869 243.753 139.399 242.106C138.424 243.128 137.322 244.02 136.12 244.76C135.709 245.029 135.265 245.243 134.799 245.398C136.85 247.874 140.449 249.852 143.333 250.803C144.161 249.987 144.436 249.311 145.659 249.311Z" fill="#15C1E6"/>
<path d="M139.967 242.712C139.412 242.179 138.913 241.591 138.479 240.955C136.964 238.746 136.287 236.07 136.569 233.406C136.851 230.743 138.074 228.268 140.018 226.423C141.962 224.579 144.5 223.487 147.177 223.343C149.854 223.199 152.495 224.013 154.626 225.638L157.12 220.497C151.168 216.638 144.794 216.714 138.219 220.649C134.519 223.182 131.978 227.08 131.154 231.485C130.33 235.89 131.291 240.442 133.826 244.139C134.258 244.771 134.733 245.372 135.249 245.939L139.967 242.712Z" fill="#15C1E6"/>
<path d="M143.896 250.443L145.102 245.974C146.882 246.383 148.735 246.372 150.514 245.941C152.455 245.47 154.243 244.514 155.712 243.162C157.181 241.811 158.282 240.108 158.91 238.215C159.475 236.513 159.643 234.706 159.402 232.935L164.084 233.01C164.583 238.627 162.614 243.282 158.267 246.953C156.664 248.306 154.832 249.362 152.857 250.07C149.993 251.094 147.513 251.232 143.896 250.443Z" fill="#9FC0FF" stroke="#9FC0FF" stroke-width="0.990652"/>
<circle cx="147.893" cy="234.866" r="9.57054" fill="#E7EEFF"/>
<rect x="130.466" y="258.518" width="32.7413" height="3.52599" rx="1.76299" fill="#E7EEFF"/>
<rect x="130.466" y="267.081" width="20.6522" height="3.52599" rx="1.76299" fill="#E7EEFF"/>
<path d="M207.509 225.044C205.943 222.747 203.833 220.872 201.368 219.585C201.446 220.569 201.291 221.557 200.915 222.47C200.539 223.383 199.952 224.194 199.203 224.838C201.13 225.96 202.682 227.627 203.661 229.629C204.641 231.631 205.004 233.878 204.706 236.086C205.02 235.943 205.351 235.842 205.691 235.784L206.357 235.751C206.616 235.378 206.871 234.994 207.109 234.605C207.261 234.266 207.442 233.941 207.65 233.632C207.715 233.497 207.78 233.368 207.839 233.238C208.348 232.157 209.338 232.968 210.263 232.53C209.825 228.698 208.77 226.882 207.509 225.044Z" fill="#9D97F4"/>
<path d="M191.41 249.311H191.556C191.486 248.965 191.41 248.625 191.313 248.279C191.275 248.133 191.226 247.987 191.188 247.841V247.803L190.799 246.571C190.691 246.221 190.65 245.855 190.68 245.49C188.543 244.93 186.62 243.753 185.15 242.106C184.175 243.128 183.073 244.02 181.871 244.76C181.46 245.029 181.016 245.243 180.55 245.398C182.601 247.874 186.199 249.852 189.084 250.803C189.911 249.987 190.187 249.311 191.41 249.311Z" fill="#FECE4D"/>
<path d="M185.731 242.712C185.176 242.18 184.677 241.591 184.243 240.956C182.728 238.746 182.051 236.07 182.333 233.407C182.615 230.744 183.838 228.268 185.782 226.424C187.726 224.58 190.264 223.488 192.941 223.343C195.618 223.199 198.259 224.013 200.39 225.638L202.884 220.498C196.932 216.638 190.558 216.714 183.984 220.649C180.283 223.183 177.742 227.08 176.918 231.485C176.094 235.89 177.055 240.442 179.59 244.139C180.022 244.771 180.498 245.373 181.013 245.939L185.731 242.712Z" fill="#0BE597"/>
<path d="M189.66 250.443L190.866 245.974C192.646 246.382 194.499 246.372 196.278 245.94C198.219 245.47 200.008 244.514 201.476 243.162C202.945 241.81 204.046 240.108 204.675 238.214C205.24 236.512 205.407 234.706 205.166 232.934L209.848 233.009C210.347 238.626 208.378 243.282 204.031 246.953C202.428 248.306 200.596 249.361 198.621 250.07C195.757 251.093 193.277 251.231 189.66 250.443Z" fill="#9FC0FF" stroke="#9FC0FF" stroke-width="0.990652"/>
<circle cx="193.735" cy="234.865" r="9.57054" fill="#E7EEFF"/>
<rect x="174.795" y="258.518" width="32.7413" height="3.52599" rx="1.76299" fill="#E7EEFF"/>
<rect x="174.795" y="267.081" width="20.6522" height="3.52599" rx="1.76299" fill="#E7EEFF"/>
<path d="M253.229 225.044C251.663 222.747 249.553 220.872 247.088 219.585C247.166 220.569 247.011 221.558 246.635 222.47C246.259 223.383 245.672 224.195 244.923 224.839C246.851 225.961 248.402 227.628 249.381 229.63C250.361 231.631 250.724 233.878 250.426 236.087C250.74 235.944 251.071 235.842 251.411 235.784L252.077 235.751C252.337 235.378 252.591 234.995 252.829 234.606C252.981 234.267 253.162 233.941 253.37 233.633C253.435 233.498 253.5 233.368 253.559 233.238C254.068 232.157 255.058 232.968 255.984 232.53C255.545 228.698 254.49 226.882 253.229 225.044Z" fill="#76A5FF"/>
<path d="M237.144 249.312H237.29C237.219 248.966 237.144 248.625 237.046 248.279C237.008 248.133 236.96 247.987 236.922 247.841V247.804L236.532 246.571C236.424 246.222 236.384 245.855 236.413 245.49C234.277 244.931 232.353 243.754 230.883 242.107C229.909 243.128 228.806 244.02 227.604 244.761C227.193 245.029 226.75 245.244 226.284 245.398C228.334 247.874 231.933 249.852 234.817 250.803C235.645 249.987 235.921 249.312 237.144 249.312Z" fill="#3D7FFC"/>
<path d="M231.465 242.713C230.909 242.18 230.411 241.591 229.977 240.956C228.462 238.746 227.785 236.07 228.067 233.407C228.349 230.744 229.571 228.268 231.515 226.424C233.459 224.58 235.997 223.488 238.674 223.344C241.351 223.2 243.992 224.013 246.123 225.638L248.618 220.498C242.666 216.639 236.291 216.714 229.717 220.649C226.017 223.183 223.475 227.081 222.651 231.486C221.827 235.891 222.788 240.442 225.323 244.139C225.756 244.771 226.231 245.373 226.746 245.939L231.465 242.713Z" fill="#3D7FFC"/>
<path d="M235.394 250.443L236.599 245.974C238.379 246.382 240.232 246.372 242.011 245.94C243.952 245.47 245.741 244.514 247.21 243.162C248.679 241.811 249.779 240.108 250.408 238.214C250.973 236.512 251.14 234.706 250.9 232.934L255.582 233.01C256.081 238.627 254.112 243.282 249.764 246.953C248.161 248.306 246.329 249.361 244.355 250.07C241.49 251.094 239.011 251.232 235.394 250.443Z" fill="#9FC0FF" stroke="#9FC0FF" stroke-width="0.990652"/>
<circle cx="239.588" cy="234.866" r="9.57054" fill="#E7EEFF"/>
<rect x="219.123" y="258.518" width="32.7413" height="3.52599" rx="1.76299" fill="#E7EEFF"/>
<rect x="219.123" y="267.081" width="20.6522" height="3.52599" rx="1.76299" fill="#E7EEFF"/>
<path d="M263.621 110.554C263.997 110.672 264.303 110.949 264.458 111.311C264.612 111.674 264.601 112.086 264.426 112.439L255.931 129.599C255.716 130.031 255.287 130.317 254.805 130.346C254.323 130.376 253.862 130.146 253.596 129.743L247.541 120.573H235.322C234.826 120.573 234.37 120.3 234.134 119.863C233.899 119.426 233.923 118.895 234.196 118.48L245.542 101.292C245.757 100.966 246.104 100.749 246.491 100.698C246.879 100.647 247.27 100.766 247.563 101.026L255.401 107.972L263.621 110.554Z" fill="#0BE597" stroke="white" stroke-width="2.69812" stroke-linejoin="round"/>
<path d="M267.187 110.68C266.58 111.04 266.352 111.807 266.666 112.439L275.161 129.599C275.375 130.031 275.804 130.317 276.286 130.346C276.768 130.376 277.23 130.146 277.496 129.743L283.55 120.573H295.769C296.265 120.573 296.722 120.3 296.957 119.863C297.192 119.426 297.168 118.895 296.895 118.48L285.549 101.292C285.153 100.692 284.355 100.508 283.736 100.875L267.187 110.68Z" fill="#0BE597" stroke="white" stroke-width="2.69812" stroke-linejoin="round"/>
<path d="M270.376 64.35C267.435 61.9676 263.227 61.9676 260.286 64.35C259.182 65.2433 257.768 65.6587 256.357 65.5035C252.594 65.0898 249.055 67.3645 247.868 70.959C247.423 72.307 246.458 73.4211 245.187 74.0535C241.798 75.7398 240.05 79.5668 240.995 83.2324C241.349 84.607 241.139 86.0662 240.412 87.2853C238.473 90.5361 239.071 94.7006 241.848 97.2734C242.889 98.2382 243.502 99.5791 243.549 100.998C243.675 104.781 246.43 107.961 250.157 108.624C251.555 108.873 252.795 109.67 253.602 110.838C255.753 113.952 259.79 115.138 263.284 113.681C264.594 113.134 266.068 113.134 267.378 113.681C270.872 115.138 274.909 113.952 277.06 110.838C277.867 109.67 279.107 108.873 280.505 108.624C284.232 107.961 286.987 104.781 287.113 100.998C287.16 99.5791 287.773 98.2382 288.814 97.2734C291.591 94.7006 292.189 90.5361 290.25 87.2853C289.523 86.0662 289.313 84.607 289.667 83.2324C290.612 79.5668 288.864 75.7398 285.475 74.0535C284.204 73.4211 283.239 72.307 282.794 70.959C281.607 67.3645 278.068 65.0898 274.305 65.5035C272.894 65.6587 271.48 65.2433 270.376 64.35Z" fill="#0BE597" stroke="white" stroke-width="2.69812"/>
<g filter="url(#filter1_dd_50785_37481)">
<circle cx="264.997" cy="88.4417" r="16.7283" fill="#0BE597"/>
<circle cx="264.997" cy="88.4417" r="15.1095" stroke="white" stroke-width="3.23774"/>
</g>
<g filter="url(#filter2_d_50785_37481)">
<g filter="url(#filter3_dd_50785_37481)">
<path d="M34 120.694C34 118.101 36.1014 116 38.6936 116H138.14C140.732 116 142.834 118.101 142.834 120.694V172.91C142.834 175.503 140.732 177.604 138.14 177.604H38.6936C36.1014 177.604 34 175.503 34 172.91V120.694Z" fill="white"/>
</g>
<mask id="mask0_50785_37481" style="mask-type:alpha" maskUnits="userSpaceOnUse" x="45" y="129" width="34" height="34">
<ellipse cx="61.9237" cy="145.974" rx="16.6598" ry="16.7257" fill="#C4C4C4"/>
</mask>
<g mask="url(#mask0_50785_37481)">
<ellipse cx="62.5926" cy="145.613" rx="17.3421" ry="17.4107" fill="#E7EEFF"/>
<path d="M54.8743 148.254C54.9168 148.166 54.8666 148.054 54.774 148.027C54.3842 147.911 54.0947 147.661 54.0291 147.341C53.9866 147.129 54.0484 146.913 54.1873 146.729C54.2221 146.682 54.2259 146.613 54.2028 146.559C53.8747 146.532 53.5968 146.301 53.5543 145.997C53.5312 145.842 53.5736 145.692 53.6586 145.573C53.6547 145.561 53.6508 145.55 53.647 145.538C53.6354 145.496 53.6161 145.453 53.5775 145.438C52.7052 145.08 51.914 142.641 53.9943 141.396C54.0831 141.342 54.0908 141.204 54.0059 141.134C53.5196 140.722 53.2224 140.183 53.2494 139.636C53.2996 138.646 54.3842 138.01 55.6733 138.222C55.6926 138.226 55.708 138.229 55.7273 138.229C55.8393 138.249 55.9203 138.125 55.8701 138.014C55.4649 137.078 55.434 136.203 55.8586 135.806C56.26 135.429 56.9701 135.575 57.6919 136.107C57.7845 136.176 57.9042 136.118 57.9119 135.999C57.9505 135.328 58.2168 134.835 58.5796 134.835C58.8189 134.835 59.0505 135.059 59.2165 135.402C59.2744 135.525 59.4326 135.525 59.4751 135.405C59.9421 134.146 60.8028 133.402 61.5014 133.714C61.8989 133.891 62.1652 134.369 62.2772 135.001C62.3003 135.136 62.4586 135.182 62.5319 135.078C63.1147 134.253 64.014 133.899 64.84 134.269C65.4305 134.531 65.8667 135.109 66.0867 135.818C66.1098 135.891 66.1716 135.937 66.2372 135.937C66.6116 135.926 67.0053 136.003 67.3951 136.176C68.7151 136.762 69.5256 138.268 69.3404 139.674C69.3249 139.778 69.4098 139.875 69.5063 139.863C70.1509 139.805 70.7569 140.137 70.9653 140.722C71.1544 141.246 70.9691 141.828 70.5484 142.217C70.4558 142.302 70.5098 142.479 70.6372 142.494C71.193 142.575 71.6484 142.922 71.7449 143.404C71.853 143.943 71.4748 144.475 70.8649 144.69C70.7569 144.729 70.7376 144.887 70.834 144.968C71.2741 145.334 71.5211 145.742 71.4207 146.004C71.3242 146.259 70.9305 146.301 70.4365 146.151C70.3246 146.116 70.2319 146.235 70.2744 146.355C70.4597 146.836 70.4442 147.31 70.2011 147.592C69.9772 147.846 69.6105 147.881 69.2284 147.73C69.1319 147.692 69.0316 147.773 69.0432 147.884C69.1049 148.482 68.9081 149.005 68.5028 149.19C68.1825 149.337 67.8004 149.233 67.4684 148.959C67.4144 148.917 67.3449 148.917 67.2947 148.959C66.6039 149.576 65.7856 150.077 64.8632 150.423C63.7014 150.859 62.6593 150.963 61.5245 150.836C61.4281 150.824 61.3547 150.916 61.374 151.02C61.5516 151.907 61.0151 152.423 60.2354 152.55C59.9614 152.596 59.5445 152.461 59.4095 152.273C59.3902 152.242 59.2705 152.18 59.1547 152.303C58.6568 152.812 57.6842 152.273 57.5028 151.386C57.4603 151.182 57.4565 150.982 57.4796 150.793C57.4912 150.693 57.3445 150.496 57.1284 150.639C57.0473 150.693 56.9393 150.708 56.8312 150.728C56.0554 150.866 54.9245 150.238 54.7431 149.352C54.6736 148.944 54.7277 148.566 54.8743 148.254Z" fill="#FF7817"/>
<path d="M71.4888 181.271C74.6112 171.994 78.907 165.267 76.653 161.526C74.4954 157.943 73.8161 158.024 72.1603 157.762C66.1624 156.811 65.7687 154.434 62.3491 154.541C62.2835 154.545 61.8666 154.541 61.7933 154.541C58.3968 154.445 57.0575 156.988 52.0052 157.762C50.3494 158.017 49.6739 157.943 47.5125 161.526C45.2585 165.267 49.5543 171.994 52.6729 181.271C54.3403 186.222 51.6694 190.934 50.7932 192.664C49.8283 194.575 49.3922 194.375 49.5427 195.735C49.782 197.888 55.5329 199.533 61.2645 199.475C61.5347 199.472 62.7389 199.475 63.0708 199.475C68.7407 199.495 74.3758 197.861 74.6151 195.735C74.7656 194.375 74.3333 194.575 73.3646 192.664C72.4923 190.934 69.8252 186.218 71.4888 181.271Z" fill="#3D7FFC"/>
<path d="M66.191 156.811C65.8475 151.549 65.8204 147.18 64.3499 147.827C63.8366 148.054 60.3281 148.054 59.8187 147.827C58.3481 147.18 58.2941 150.963 57.9776 156.811C57.9313 157.69 59.1278 159.855 62.0843 159.855C64.9096 159.855 66.2489 157.694 66.191 156.811Z" fill="#FBCAB8"/>
<path d="M66.7491 142.305C66.2326 140.034 64.229 138.733 62.0357 138.782C59.8425 138.733 57.8388 140.034 57.3224 142.305C56.9759 143.826 56.8746 152.035 59.058 154.587C59.4927 155.096 60.9832 156.612 62.0227 156.612C63.1961 156.612 64.5951 155.115 65.0102 154.587C66.785 152.331 66.6543 149.453 66.8733 147.371C67.1217 144.986 67.0923 143.826 66.7491 142.305Z" fill="#E7B4A1"/>
<path d="M67.5978 141.092C66.9879 138.784 64.622 137.463 62.0321 137.513C59.4423 137.463 57.0763 138.784 56.4665 141.092C56.0574 142.637 55.9377 150.978 58.516 153.571C59.0293 154.087 60.7893 155.628 62.0167 155.628C63.4023 155.628 65.0542 154.106 65.5444 153.571C67.6402 151.279 67.4858 148.354 67.7444 146.239C68.0378 143.816 68.003 142.637 67.5978 141.092Z" fill="#FBCAB8"/>
<path d="M55.5744 140.102C55.5165 139.901 55.474 139.686 55.4586 139.466C55.366 138.175 56.0916 137.073 57.0835 137.004C57.5891 136.969 58.0677 137.212 58.4228 137.628C58.7586 137.443 59.1793 137.316 59.6463 137.281C60.152 137.247 60.6267 137.324 61.0011 137.489C61.1709 136.546 61.7923 135.829 62.5835 135.775C63.5253 135.706 64.3629 136.596 64.5211 137.794C64.8723 137.582 65.3162 137.439 65.8102 137.405C66.9604 137.324 67.9408 137.852 68.0758 138.603C68.6973 138.942 69.1643 139.705 69.2299 140.626C69.2685 141.169 69.1643 141.677 68.952 142.09C69.3611 142.178 69.6776 142.494 69.7046 142.899C69.7394 143.396 69.3225 143.831 68.7744 143.87C68.7011 143.873 68.6316 143.873 68.566 143.866C68.5274 144.066 68.4618 144.274 68.3653 144.471C67.8944 145.441 66.9025 145.931 66.146 145.569C65.5439 145.276 65.2776 144.525 65.4358 143.739C65.0306 143.931 64.5867 144.001 64.1429 143.908C63.4172 143.758 62.8576 143.218 62.572 142.494C62.4176 142.617 62.2323 142.675 62.0471 142.641C61.8386 142.602 61.6688 142.448 61.5723 142.236C61.2713 142.433 60.92 142.56 60.5341 142.587C59.8277 142.637 59.1793 142.344 58.747 141.855C58.7509 141.878 58.7548 141.905 58.7548 141.928C58.8435 143.165 57.9558 144.236 56.7709 144.32C55.586 144.405 54.5554 143.473 54.4667 142.236C54.4011 141.323 54.8604 140.51 55.5744 140.102Z" fill="#FF7817"/>
</g>
<path d="M94.1832 165.873H92.4502V165.87C92.354 165.869 92.2606 165.84 92.1827 165.788C92.1048 165.735 92.0463 165.662 92.015 165.577C92.0096 165.564 92.0051 165.551 92.0014 165.538L91.4928 164.018L91.4803 163.98C91.4585 163.923 91.4175 163.873 91.3633 163.839C91.3092 163.805 91.2447 163.788 91.1793 163.79C91.1139 163.793 91.0511 163.815 91 163.853C90.9489 163.891 90.9123 163.943 90.8955 164.002L90.3809 165.532C90.381 165.533 90.381 165.534 90.3809 165.535C90.3768 165.551 90.3715 165.566 90.3652 165.582C90.3332 165.666 90.2743 165.738 90.1965 165.79C90.1186 165.842 90.0256 165.87 89.93 165.871V165.874H88.1953C88.1198 165.886 88.0514 165.923 88.0025 165.978C87.9537 166.033 87.9275 166.102 87.9288 166.174C87.9284 166.22 87.9392 166.265 87.9604 166.307C87.9816 166.349 88.0126 166.385 88.0511 166.414L88.0653 166.425L89.4121 167.38C89.4761 167.422 89.5282 167.479 89.564 167.544C89.5997 167.61 89.6182 167.682 89.6178 167.756C89.6176 167.79 89.6134 167.824 89.6052 167.857C89.5993 167.883 89.5909 167.908 89.5802 167.932L89.0694 169.46V169.465L89.0656 169.476C89.0574 169.505 89.0532 169.534 89.0531 169.563C89.0519 169.602 89.059 169.641 89.0739 169.677C89.0889 169.714 89.1115 169.747 89.1404 169.775C89.1693 169.804 89.2039 169.826 89.2422 169.842C89.2805 169.858 89.3218 169.866 89.3637 169.867C89.4181 169.867 89.4716 169.853 89.5182 169.827L89.5726 169.79L90.9097 168.845L90.939 168.824C91.0132 168.776 91.101 168.75 91.1912 168.749C91.2814 168.748 91.3698 168.773 91.4449 168.82C91.4615 168.829 91.4771 168.84 91.4917 168.852L92.8211 169.793L92.8587 169.82C92.9076 169.849 92.9642 169.864 93.0219 169.863C93.0637 169.862 93.1049 169.854 93.1431 169.838C93.1814 169.822 93.2159 169.8 93.2447 169.771C93.2735 169.743 93.296 169.71 93.311 169.673C93.326 169.637 93.3331 169.598 93.3319 169.559C93.3321 169.529 93.3273 169.498 93.3178 169.469C93.3178 169.465 93.3145 169.46 93.3134 169.455L92.8005 167.922C92.7919 167.902 92.7852 167.881 92.7803 167.86C92.7588 167.777 92.7626 167.689 92.7914 167.607C92.8203 167.525 92.8729 167.452 92.9435 167.397C92.955 167.388 92.9669 167.38 92.9789 167.372L94.3111 166.429L94.3513 166.4C94.386 166.371 94.4137 166.336 94.4324 166.296C94.4512 166.256 94.4606 166.214 94.4601 166.17C94.4603 166.098 94.4324 166.028 94.3815 165.973C94.3305 165.919 94.2601 165.883 94.1832 165.873Z" fill="#FECE4D"/>
<path d="M102.89 165.873H101.157V165.87C101.061 165.869 100.967 165.84 100.889 165.788C100.811 165.735 100.753 165.662 100.722 165.577C100.716 165.564 100.712 165.551 100.708 165.538L100.199 164.018L100.186 163.98C100.165 163.923 100.124 163.873 100.069 163.839C100.015 163.805 99.9507 163.788 99.8853 163.79C99.8199 163.793 99.7571 163.815 99.706 163.853C99.655 163.891 99.6184 163.943 99.6016 164.002L99.087 165.532C99.087 165.533 99.087 165.534 99.087 165.535C99.0829 165.551 99.0776 165.566 99.0712 165.582C99.0393 165.666 98.9804 165.738 98.9026 165.79C98.8247 165.842 98.7317 165.87 98.636 165.871V165.874H96.9013C96.8258 165.886 96.7575 165.923 96.7086 165.978C96.6597 166.033 96.6336 166.102 96.6348 166.174C96.6345 166.22 96.6453 166.265 96.6665 166.307C96.6877 166.349 96.7187 166.385 96.7572 166.414L96.7713 166.425L98.1182 167.38C98.1972 167.433 98.2577 167.507 98.292 167.592C98.3263 167.678 98.333 167.771 98.3113 167.859C98.3054 167.885 98.297 167.91 98.2863 167.934L97.7755 169.462V169.467L97.7717 169.478C97.7634 169.507 97.7592 169.536 97.7592 169.565C97.7579 169.604 97.765 169.643 97.78 169.679C97.795 169.716 97.8176 169.749 97.8464 169.777C97.8753 169.806 97.9099 169.828 97.9483 169.844C97.9866 169.86 98.0279 169.868 98.0698 169.869C98.1242 169.869 98.1776 169.856 98.2243 169.829L98.2787 169.792L99.6157 168.847L99.6451 168.826C99.7192 168.778 99.8071 168.752 99.8973 168.752C99.9875 168.751 100.076 168.775 100.151 168.822C100.168 168.831 100.183 168.842 100.198 168.854L101.527 169.795L101.565 169.822C101.614 169.851 101.67 169.866 101.728 169.865C101.77 169.864 101.811 169.856 101.849 169.84C101.887 169.824 101.922 169.802 101.951 169.773C101.98 169.745 102.002 169.712 102.017 169.675C102.032 169.639 102.039 169.6 102.038 169.561C102.038 169.531 102.033 169.501 102.024 169.471C102.024 169.467 102.021 169.462 102.019 169.457L101.506 167.924C101.497 167.904 101.491 167.883 101.486 167.862C101.477 167.826 101.472 167.79 101.472 167.753C101.471 167.685 101.487 167.619 101.517 167.557C101.547 167.496 101.592 167.442 101.647 167.398C101.659 167.389 101.671 167.381 101.683 167.373L103.015 166.431L103.055 166.402C103.09 166.373 103.118 166.337 103.136 166.298C103.155 166.258 103.164 166.215 103.164 166.172C103.165 166.1 103.137 166.029 103.087 165.975C103.037 165.92 102.967 165.884 102.89 165.873Z" fill="#FECE4D"/>
<path d="M111.586 165.873H109.853V165.87C109.756 165.869 109.663 165.84 109.585 165.788C109.507 165.735 109.449 165.662 109.417 165.577C109.412 165.564 109.407 165.551 109.404 165.538L108.895 164.018L108.882 163.98C108.86 163.923 108.819 163.873 108.765 163.839C108.711 163.805 108.647 163.788 108.581 163.79C108.516 163.793 108.453 163.815 108.402 163.853C108.351 163.891 108.314 163.943 108.297 164.002L107.783 165.532C107.783 165.532 107.783 165.532 107.783 165.535C107.779 165.551 107.773 165.566 107.767 165.582C107.735 165.666 107.676 165.738 107.598 165.79C107.52 165.842 107.427 165.87 107.332 165.871V165.874H105.597C105.522 165.886 105.453 165.923 105.404 165.978C105.356 166.033 105.329 166.102 105.331 166.174C105.33 166.22 105.341 166.266 105.362 166.307C105.383 166.349 105.414 166.386 105.453 166.414L105.467 166.425L106.814 167.38C106.893 167.433 106.953 167.507 106.988 167.592C107.022 167.678 107.029 167.771 107.007 167.859C107.001 167.885 106.993 167.91 106.982 167.934L106.471 169.462V169.467L106.467 169.478C106.459 169.507 106.455 169.536 106.455 169.565C106.454 169.604 106.461 169.643 106.476 169.679C106.491 169.716 106.513 169.749 106.542 169.777C106.571 169.806 106.606 169.828 106.644 169.844C106.682 169.86 106.724 169.868 106.766 169.869C106.82 169.869 106.873 169.856 106.92 169.829L106.974 169.792L108.312 168.847L108.341 168.826C108.415 168.778 108.503 168.752 108.593 168.752C108.683 168.751 108.772 168.775 108.847 168.822C108.863 168.831 108.879 168.842 108.894 168.854L110.223 169.795L110.261 169.822C110.309 169.851 110.366 169.866 110.424 169.865C110.466 169.864 110.507 169.856 110.545 169.84C110.583 169.824 110.618 169.802 110.647 169.773C110.675 169.745 110.698 169.712 110.713 169.675C110.728 169.639 110.735 169.6 110.734 169.561C110.734 169.531 110.729 169.501 110.72 169.471C110.72 169.467 110.716 169.462 110.715 169.457L110.202 167.924C110.194 167.904 110.187 167.883 110.182 167.862C110.173 167.826 110.168 167.79 110.168 167.753C110.168 167.685 110.183 167.619 110.213 167.557C110.244 167.496 110.288 167.442 110.344 167.398C110.355 167.389 110.367 167.381 110.379 167.373L111.711 166.431L111.752 166.402C111.787 166.373 111.814 166.337 111.833 166.298C111.852 166.258 111.861 166.215 111.861 166.172C111.862 166.099 111.834 166.029 111.783 165.974C111.733 165.92 111.663 165.884 111.586 165.873Z" fill="#FECE4D"/>
<path d="M120.292 165.873H118.559V165.87C118.462 165.869 118.369 165.84 118.291 165.788C118.213 165.735 118.155 165.662 118.123 165.577C118.118 165.564 118.114 165.551 118.11 165.538L117.601 164.018L117.588 163.98C117.566 163.923 117.525 163.873 117.471 163.839C117.417 163.805 117.353 163.788 117.287 163.79C117.222 163.793 117.159 163.815 117.108 163.853C117.057 163.891 117.02 163.943 117.003 164.002L116.489 165.532C116.489 165.533 116.489 165.534 116.489 165.535C116.485 165.551 116.479 165.566 116.473 165.582C116.441 165.666 116.382 165.738 116.304 165.79C116.227 165.842 116.134 165.87 116.038 165.871V165.874H114.303C114.228 165.886 114.159 165.923 114.11 165.978C114.062 166.033 114.035 166.102 114.037 166.174C114.036 166.22 114.047 166.266 114.068 166.307C114.089 166.349 114.12 166.386 114.159 166.414L114.173 166.425L115.52 167.38C115.599 167.433 115.66 167.507 115.694 167.592C115.728 167.678 115.735 167.771 115.713 167.859C115.707 167.885 115.699 167.91 115.688 167.934L115.177 169.462V169.467L115.173 169.478C115.165 169.507 115.161 169.536 115.16 169.565C115.159 169.604 115.166 169.643 115.181 169.679C115.196 169.716 115.219 169.749 115.248 169.777C115.277 169.806 115.311 169.828 115.35 169.844C115.388 169.86 115.429 169.868 115.471 169.869C115.525 169.869 115.579 169.856 115.626 169.829L115.68 169.792L117.017 168.847L117.046 168.826C117.121 168.778 117.208 168.752 117.299 168.752C117.389 168.751 117.477 168.775 117.552 168.822C117.569 168.831 117.585 168.842 117.6 168.854L118.929 169.795L118.967 169.822C119.015 169.851 119.072 169.866 119.13 169.865C119.172 169.864 119.213 169.856 119.251 169.84C119.289 169.824 119.324 169.802 119.353 169.773C119.381 169.745 119.404 169.712 119.419 169.675C119.434 169.639 119.441 169.6 119.44 169.561C119.44 169.531 119.435 169.501 119.426 169.471C119.426 169.467 119.422 169.462 119.421 169.457L118.908 167.924C118.899 167.904 118.893 167.883 118.888 167.862C118.878 167.826 118.874 167.79 118.874 167.753C118.873 167.685 118.889 167.619 118.919 167.557C118.949 167.496 118.994 167.442 119.049 167.398C119.061 167.389 119.073 167.381 119.085 167.373L120.417 166.431L120.457 166.402C120.492 166.373 120.519 166.337 120.538 166.298C120.557 166.258 120.566 166.215 120.566 166.172C120.567 166.1 120.539 166.029 120.489 165.975C120.438 165.92 120.368 165.884 120.292 165.873Z" fill="#FECE4D"/>
<path d="M128.993 165.873H127.26V165.87C127.164 165.869 127.071 165.84 126.993 165.788C126.915 165.735 126.856 165.662 126.825 165.577C126.82 165.564 126.815 165.551 126.812 165.538L126.303 164.018L126.29 163.98C126.268 163.923 126.227 163.873 126.173 163.839C126.119 163.805 126.054 163.788 125.989 163.79C125.924 163.793 125.861 163.815 125.81 163.853C125.759 163.891 125.722 163.943 125.705 164.002L125.191 165.532C125.191 165.532 125.191 165.532 125.191 165.535C125.186 165.551 125.181 165.566 125.175 165.582C125.143 165.666 125.084 165.738 125.006 165.79C124.928 165.842 124.835 165.87 124.74 165.871V165.874H123.004C122.929 165.886 122.86 165.923 122.812 165.978C122.763 166.033 122.737 166.102 122.738 166.174C122.737 166.22 122.748 166.265 122.77 166.307C122.791 166.349 122.822 166.385 122.86 166.414L122.874 166.425L124.223 167.379C124.302 167.432 124.362 167.506 124.397 167.591C124.431 167.677 124.438 167.77 124.416 167.858C124.41 167.884 124.402 167.909 124.391 167.933L123.88 169.461V169.466L123.876 169.477C123.868 169.506 123.863 169.535 123.863 169.564C123.862 169.603 123.869 169.642 123.884 169.678C123.899 169.715 123.922 169.748 123.951 169.776C123.979 169.805 124.014 169.827 124.052 169.843C124.091 169.859 124.132 169.867 124.174 169.868C124.228 169.868 124.282 169.854 124.328 169.828L124.383 169.791L125.72 168.846L125.749 168.825C125.823 168.777 125.911 168.751 126.001 168.751C126.092 168.75 126.18 168.774 126.255 168.821C126.272 168.83 126.287 168.841 126.302 168.853L127.631 169.794L127.669 169.821C127.718 169.85 127.774 169.865 127.832 169.864C127.874 169.863 127.915 169.855 127.953 169.839C127.992 169.823 128.026 169.801 128.055 169.772C128.084 169.744 128.106 169.711 128.121 169.674C128.136 169.638 128.143 169.599 128.142 169.56C128.142 169.53 128.137 169.5 128.128 169.47C128.128 169.466 128.125 169.461 128.123 169.456L127.61 167.923C127.602 167.903 127.595 167.882 127.59 167.861C127.581 167.825 127.576 167.789 127.576 167.752C127.575 167.684 127.591 167.618 127.621 167.556C127.652 167.495 127.696 167.441 127.752 167.397C127.763 167.388 127.775 167.38 127.787 167.372L129.119 166.43L129.159 166.401C129.194 166.372 129.222 166.336 129.24 166.297C129.259 166.257 129.269 166.214 129.268 166.171C129.269 166.099 129.241 166.029 129.19 165.974C129.14 165.92 129.07 165.884 128.993 165.873Z" fill="#FECE4D"/>
<path d="M123.077 137.045C122.945 136.609 122.721 136.206 122.421 135.863C122.117 135.52 121.744 135.245 121.327 135.057C120.909 134.869 120.456 134.772 119.997 134.773H113.884V133.217C113.877 131.854 113.337 130.548 112.38 129.579C111.898 129.107 111.333 128.731 110.712 128.469C110.088 128.207 109.418 128.073 108.742 128.075C108.509 128.081 108.283 128.149 108.085 128.272C107.875 128.398 107.706 128.583 107.599 128.804L103.18 137.643H98.2479C97.9506 137.643 97.6562 137.701 97.381 137.813C97.1067 137.929 96.857 138.096 96.6455 138.306C96.4358 138.517 96.2698 138.767 96.1571 139.042C96.0444 139.317 95.9872 139.611 95.9889 139.908V150.415C95.9863 150.714 96.0431 151.009 96.1558 151.286C96.2685 151.562 96.435 151.813 96.6455 152.024C96.8561 152.234 97.1061 152.4 97.3811 152.513C97.6561 152.625 97.9507 152.683 98.2479 152.681H118.572C119.349 152.681 120.099 152.4 120.686 151.891C121.272 151.382 121.655 150.679 121.764 149.91L123.202 138.431C123.261 137.965 123.219 137.493 123.077 137.045ZM98.5893 150.074V140.263H102.661V150.074H98.5893ZM111.382 136.572C111.515 136.893 111.77 137.148 112.091 137.282C112.249 137.349 112.418 137.385 112.59 137.387H119.978C120.068 137.382 120.159 137.4 120.24 137.439C120.316 137.475 120.385 137.524 120.444 137.584C120.497 137.65 120.538 137.726 120.562 137.807C120.582 137.893 120.582 137.983 120.562 138.07L119.137 149.549C119.119 149.693 119.049 149.826 118.94 149.923C118.832 150.02 118.692 150.074 118.546 150.074H105.294V139.265L109.523 130.82L109.733 130.898C110.037 131.018 110.313 131.197 110.548 131.424C110.782 131.657 110.967 131.935 111.094 132.24C111.22 132.546 111.284 132.873 111.283 133.203V136.073C111.282 136.245 111.318 136.415 111.388 136.572H111.382Z" fill="#3D7FFC"/>
</g>
<g filter="url(#filter4_dd_50785_37481)">
<path d="M35 241.848C35 239.171 37.1707 237 39.8485 237H142.576C145.253 237 147.424 239.171 147.424 241.848V295.788C147.424 298.465 145.253 300.636 142.576 300.636H39.8485C37.1707 300.636 35 298.465 35 295.788V241.848Z" fill="white"/>
</g>
<path d="M126.994 261.89C126.858 261.439 126.627 261.023 126.316 260.669C126.003 260.314 125.618 260.03 125.186 259.836C124.754 259.642 124.286 259.542 123.813 259.543H117.497V257.935C117.491 256.528 116.933 255.179 115.944 254.177C115.447 253.69 114.862 253.302 114.221 253.031C113.577 252.76 112.885 252.622 112.186 252.624C111.946 252.63 111.712 252.701 111.508 252.827C111.291 252.958 111.116 253.149 111.006 253.377L106.44 262.507H101.346C101.039 262.508 100.735 262.567 100.45 262.684C100.167 262.803 99.9091 262.976 99.6906 263.193C99.474 263.41 99.3025 263.668 99.1861 263.952C99.0696 264.236 99.0106 264.541 99.0123 264.848V275.701C99.0097 276.01 99.0683 276.315 99.1847 276.6C99.3012 276.886 99.4732 277.145 99.6906 277.363C99.9081 277.58 100.166 277.752 100.45 277.868C100.735 277.984 101.039 278.043 101.346 278.042H122.341C123.143 278.042 123.918 277.752 124.524 277.226C125.129 276.7 125.525 275.973 125.638 275.179L127.123 263.321C127.184 262.841 127.14 262.352 126.994 261.89ZM101.699 275.349V265.214H105.904V275.349H101.699ZM114.913 261.402C115.051 261.733 115.314 261.997 115.646 262.134C115.809 262.204 115.984 262.241 116.161 262.243H123.793C123.886 262.238 123.98 262.256 124.064 262.297C124.142 262.334 124.213 262.385 124.274 262.446C124.329 262.515 124.371 262.593 124.396 262.677C124.416 262.766 124.416 262.859 124.396 262.948L122.924 274.806C122.906 274.955 122.834 275.093 122.721 275.193C122.609 275.293 122.464 275.349 122.314 275.349H108.625V264.183L112.993 255.459L113.21 255.541C113.524 255.665 113.809 255.849 114.051 256.083C114.293 256.324 114.485 256.611 114.615 256.927C114.746 257.242 114.812 257.58 114.811 257.922V260.886C114.81 261.064 114.847 261.24 114.92 261.402H114.913Z" fill="#3D7FFC"/>
<mask id="mask1_50785_37481" style="mask-type:alpha" maskUnits="userSpaceOnUse" x="44" y="251" width="37" height="38">
<circle cx="62.6704" cy="269.924" r="18.2187" fill="#C4C4C4"/>
</mask>
<g mask="url(#mask1_50785_37481)">
<path d="M62.2135 288.794C72.4965 288.794 80.8325 280.46 80.8325 270.178C80.8325 259.897 72.4965 251.562 62.2135 251.562C51.9305 251.562 43.5945 259.897 43.5945 270.178C43.5945 280.46 51.9305 288.794 62.2135 288.794Z" fill="#E7EEFF"/>
<path d="M55.5822 283.127C57.2703 283.127 58.6387 281.147 58.6387 278.703C58.6387 276.26 57.2703 274.28 55.5822 274.28C53.8941 274.28 52.5256 276.26 52.5256 278.703C52.5256 281.147 53.8941 283.127 55.5822 283.127Z" fill="#FEB79C"/>
<path d="M53.4454 285.988L72.1887 284.941C72.1887 284.941 75.0484 277.13 74.406 276.612C73.7533 276.094 62.9466 270.366 62.9466 270.366L52.3989 270.625L53.4454 285.988Z" fill="#2C2D00"/>
<path d="M63.0769 304.21C70.121 304.21 75.8314 299.024 75.8314 292.628C75.8314 286.231 70.121 281.046 63.0769 281.046C56.0327 281.046 50.3223 286.231 50.3223 292.628C50.3223 299.024 56.0327 304.21 63.0769 304.21Z" fill="#3D7FFC"/>
<path d="M62.4235 284.817C60.9004 284.817 59.6492 283.861 59.6084 282.67L59.4316 277.196C59.3908 275.984 60.6284 274.964 62.1787 274.942C63.7426 274.921 65.0345 275.878 65.0617 277.09L65.2385 282.564C65.2793 283.775 64.0418 284.796 62.4915 284.817C62.4779 284.817 62.4507 284.817 62.4235 284.817Z" fill="#FFCDBA"/>
<path d="M62.2338 274.736C61.2287 274.757 60.3999 275.482 60.1926 276.425L60.2755 279.667C60.3066 280.838 61.2598 281.76 62.4203 281.76C62.441 281.76 62.4514 281.76 62.4721 281.76C63.4771 281.739 64.306 281.014 64.5132 280.071L64.4303 276.829C64.3993 275.637 63.4253 274.705 62.2338 274.736Z" fill="#EBB7A2"/>
<path d="M68.9257 269.071C68.9257 273.92 65.0195 279.42 61.7972 279.42C59.3519 279.42 54.6687 273.93 54.6687 269.071C54.6687 264.223 57.8599 260.287 61.7972 260.287C65.7344 260.287 68.9257 264.223 68.9257 269.071Z" fill="#FFCDBA"/>
<path d="M58.4712 262.034C57.8081 262.107 57.0932 262.604 56.3887 263.34C55.3111 264.873 54.6687 266.872 54.6687 269.068C54.6687 271.731 56.0778 274.58 57.7563 276.62C56.9896 275.036 56.6373 273.44 57.6009 271.513C58.4712 269.763 59.7457 265.847 59.7457 265.847C59.7457 265.847 61.1133 261.744 58.4712 262.034Z" fill="#EBB7A2"/>
<path d="M61.8103 260.287C59.3443 260.287 57.1788 261.83 55.894 264.171C56.5468 265.56 58.6812 269.134 63.6649 270.149C67.6436 270.957 65.2709 274.676 65.2087 277.701C67.2706 275.691 68.9387 272.241 68.9387 269.071C68.9387 264.223 65.7475 260.287 61.8103 260.287Z" fill="#EBB7A2"/>
<path d="M56.4419 262.823C56.4419 262.823 58.2241 268.096 64.4511 269.359C69.238 270.333 64.8448 275.513 66.3058 278.631C67.3937 280.952 69.8182 280.392 67.9635 282.733C66.1089 285.075 67.5698 292.979 73.1338 291.228C78.6977 289.467 79.5784 280.195 77.4336 276.394C75.2889 272.581 72.4499 271.317 72.1598 267.806C71.8697 264.294 69.2276 258.731 63.7673 258.337C60.3066 258.088 55.5612 257.747 56.4419 262.823Z" fill="#2E2F06"/>
<path d="M58.5782 264.966C58.5782 264.966 57.3038 268.882 56.4335 270.632C54.9726 273.564 56.5267 275.709 57.998 278.247C59.0756 280.111 57.7183 282.598 56.9205 283.81C55.4595 286.058 54.1851 286.544 55.8429 288.295C57.5007 290.056 48.0306 296.593 47.0566 290.636C46.0827 284.68 48.9113 282.629 50.279 279.894C51.6466 277.159 48.818 277.262 50.4758 271.306C51.3358 268.229 54.6721 261.444 57.3142 261.154C59.9459 260.864 58.5782 264.966 58.5782 264.966Z" fill="#2E2F06"/>
</g>
<path d="M97.1469 287.469H95.3566V287.465C95.2573 287.464 95.1608 287.434 95.0804 287.38C94.9999 287.326 94.9394 287.25 94.9071 287.163C94.9016 287.149 94.8969 287.136 94.8931 287.122L94.3677 285.552L94.3548 285.513C94.3323 285.453 94.2899 285.403 94.234 285.367C94.178 285.332 94.1114 285.314 94.0438 285.317C93.9763 285.319 93.9114 285.342 93.8586 285.381C93.8059 285.421 93.7681 285.474 93.7507 285.535L93.2192 287.116C93.2192 287.117 93.2192 287.118 93.2192 287.119C93.2149 287.135 93.2095 287.151 93.2029 287.167C93.1698 287.254 93.109 287.329 93.0286 287.383C92.9482 287.436 92.8521 287.465 92.7533 287.466V287.469H90.9614C90.8834 287.482 90.8128 287.52 90.7623 287.577C90.7118 287.633 90.6848 287.705 90.6861 287.779C90.6857 287.826 90.6969 287.873 90.7188 287.916C90.7407 287.959 90.7727 287.997 90.8125 288.027L90.8271 288.038L92.2184 289.024C92.2845 289.069 92.3383 289.127 92.3752 289.195C92.4122 289.262 92.4312 289.337 92.4308 289.413C92.4306 289.448 92.4263 289.484 92.4179 289.518C92.4118 289.544 92.4031 289.57 92.392 289.595L91.8644 291.173V291.179L91.8605 291.19C91.8519 291.219 91.8476 291.25 91.8475 291.28C91.8463 291.32 91.8536 291.36 91.8691 291.398C91.8845 291.435 91.9079 291.47 91.9377 291.499C91.9675 291.528 92.0033 291.552 92.0429 291.568C92.0825 291.584 92.1251 291.593 92.1684 291.594C92.2246 291.594 92.2798 291.58 92.328 291.553L92.3842 291.514L93.7653 290.538L93.7957 290.516C93.8723 290.467 93.963 290.44 94.0562 290.439C94.1494 290.438 94.2407 290.464 94.3182 290.512C94.3353 290.522 94.3515 290.533 94.3666 290.546L95.7399 291.518L95.7786 291.546C95.8291 291.575 95.8876 291.591 95.9472 291.59C95.9904 291.589 96.033 291.58 96.0725 291.564C96.112 291.547 96.1476 291.524 96.1774 291.495C96.2071 291.466 96.2304 291.431 96.2459 291.394C96.2613 291.356 96.2687 291.316 96.2675 291.276C96.2677 291.245 96.2628 291.213 96.2529 291.183C96.2529 291.178 96.2495 291.173 96.2484 291.168L95.7185 289.584C95.7097 289.564 95.7028 289.543 95.6977 289.521C95.6755 289.434 95.6794 289.344 95.7092 289.259C95.739 289.175 95.7933 289.1 95.8663 289.042C95.8781 289.033 95.8905 289.025 95.9028 289.016L97.2789 288.043L97.3205 288.013C97.3564 287.983 97.3849 287.946 97.4043 287.905C97.4237 287.864 97.4334 287.82 97.4329 287.775C97.4331 287.7 97.4042 287.628 97.3517 287.572C97.2991 287.515 97.2263 287.479 97.1469 287.469Z" fill="#FECE4D"/>
<path d="M106.143 287.469H104.352V287.465C104.253 287.464 104.157 287.434 104.076 287.38C103.996 287.326 103.935 287.25 103.903 287.163C103.897 287.149 103.893 287.136 103.889 287.122L103.363 285.552L103.35 285.513C103.327 285.453 103.285 285.403 103.229 285.367C103.173 285.332 103.106 285.314 103.039 285.317C102.971 285.319 102.907 285.342 102.854 285.381C102.801 285.421 102.763 285.474 102.746 285.535L102.214 287.116C102.214 287.117 102.214 287.118 102.214 287.119C102.21 287.135 102.205 287.151 102.198 287.167C102.165 287.254 102.104 287.329 102.024 287.383C101.943 287.436 101.847 287.465 101.748 287.466V287.469H99.9565C99.8785 287.482 99.8079 287.52 99.7574 287.577C99.7069 287.633 99.6799 287.705 99.6812 287.779C99.6808 287.826 99.692 287.873 99.7139 287.916C99.7358 287.959 99.7678 287.997 99.8076 288.027L99.8222 288.038L101.214 289.024C101.295 289.08 101.358 289.156 101.393 289.244C101.428 289.332 101.435 289.428 101.413 289.52C101.407 289.546 101.398 289.572 101.387 289.597L100.86 291.175V291.181L100.856 291.192C100.847 291.222 100.843 291.252 100.843 291.282C100.841 291.322 100.849 291.362 100.864 291.4C100.88 291.437 100.903 291.472 100.933 291.501C100.963 291.53 100.998 291.554 101.038 291.57C101.078 291.586 101.12 291.595 101.164 291.596C101.22 291.596 101.275 291.582 101.323 291.555L101.379 291.516L102.76 290.541L102.791 290.519C102.867 290.469 102.958 290.442 103.051 290.442C103.144 290.441 103.236 290.466 103.313 290.514C103.33 290.524 103.347 290.535 103.362 290.548L104.735 291.52L104.774 291.548C104.824 291.577 104.883 291.593 104.942 291.592C104.986 291.591 105.028 291.582 105.068 291.566C105.107 291.55 105.143 291.526 105.172 291.497C105.202 291.468 105.226 291.434 105.241 291.396C105.256 291.358 105.264 291.318 105.263 291.278C105.263 291.247 105.258 291.215 105.248 291.185C105.248 291.18 105.245 291.175 105.243 291.17L104.713 289.586C104.704 289.566 104.697 289.545 104.692 289.523C104.683 289.486 104.678 289.448 104.678 289.41C104.677 289.34 104.693 289.271 104.724 289.208C104.756 289.145 104.802 289.089 104.859 289.044C104.871 289.034 104.883 289.026 104.896 289.018L106.272 288.045L106.313 288.014C106.349 287.984 106.378 287.948 106.397 287.907C106.417 287.866 106.426 287.821 106.426 287.777C106.426 287.702 106.398 287.63 106.346 287.573C106.294 287.516 106.222 287.479 106.143 287.469Z" fill="#FECE4D"/>
<path d="M115.125 287.469H113.335V287.465C113.236 287.464 113.139 287.434 113.059 287.38C112.979 287.326 112.918 287.25 112.886 287.163C112.88 287.149 112.875 287.136 112.872 287.122L112.346 285.552L112.333 285.513C112.31 285.453 112.268 285.403 112.212 285.367C112.156 285.332 112.089 285.314 112.022 285.317C111.954 285.319 111.889 285.342 111.837 285.381C111.784 285.421 111.746 285.474 111.729 285.535L111.197 287.116C111.197 287.116 111.197 287.116 111.197 287.119C111.193 287.135 111.187 287.151 111.181 287.167C111.148 287.254 111.087 287.329 111.007 287.383C110.926 287.436 110.83 287.465 110.731 287.466V287.469H108.939C108.861 287.482 108.791 287.52 108.74 287.577C108.69 287.633 108.663 287.705 108.664 287.779C108.664 287.826 108.675 287.874 108.697 287.917C108.718 287.96 108.751 287.997 108.791 288.027L108.805 288.038L110.196 289.024C110.278 289.08 110.34 289.156 110.376 289.244C110.411 289.332 110.418 289.428 110.396 289.52C110.39 289.546 110.381 289.572 110.37 289.597L109.842 291.175V291.181L109.838 291.192C109.83 291.222 109.826 291.252 109.826 291.282C109.824 291.322 109.832 291.362 109.847 291.4C109.863 291.437 109.886 291.472 109.916 291.501C109.946 291.53 109.981 291.554 110.021 291.57C110.06 291.586 110.103 291.595 110.146 291.596C110.203 291.596 110.258 291.582 110.306 291.555L110.362 291.516L111.743 290.541L111.774 290.519C111.85 290.469 111.941 290.442 112.034 290.442C112.127 290.441 112.219 290.466 112.296 290.514C112.313 290.524 112.33 290.535 112.345 290.548L113.718 291.52L113.757 291.548C113.807 291.577 113.866 291.593 113.925 291.592C113.968 291.591 114.011 291.582 114.05 291.566C114.09 291.55 114.126 291.526 114.155 291.497C114.185 291.468 114.208 291.434 114.224 291.396C114.239 291.358 114.247 291.318 114.246 291.278C114.246 291.247 114.241 291.215 114.231 291.185C114.231 291.18 114.228 291.175 114.226 291.17L113.697 289.586C113.688 289.566 113.681 289.545 113.676 289.523C113.666 289.486 113.661 289.448 113.661 289.41C113.661 289.34 113.677 289.271 113.708 289.208C113.739 289.145 113.785 289.089 113.843 289.044C113.854 289.034 113.867 289.026 113.879 289.018L115.255 288.045L115.297 288.014C115.333 287.984 115.362 287.948 115.381 287.907C115.401 287.866 115.41 287.821 115.41 287.777C115.41 287.702 115.382 287.629 115.33 287.573C115.277 287.516 115.205 287.479 115.125 287.469Z" fill="#FECE4D"/>
<path d="M124.121 287.469H122.33V287.465C122.231 287.464 122.135 287.434 122.054 287.38C121.974 287.326 121.913 287.25 121.881 287.163C121.875 287.149 121.871 287.136 121.867 287.122L121.341 285.552L121.328 285.513C121.305 285.453 121.263 285.403 121.207 285.367C121.151 285.332 121.085 285.314 121.017 285.317C120.949 285.319 120.885 285.342 120.832 285.381C120.779 285.421 120.741 285.474 120.724 285.535L120.192 287.116C120.192 287.117 120.192 287.118 120.192 287.119C120.188 287.135 120.183 287.151 120.176 287.167C120.143 287.254 120.082 287.329 120.002 287.383C119.921 287.436 119.825 287.465 119.726 287.466V287.469H117.935C117.857 287.482 117.786 287.52 117.735 287.577C117.685 287.633 117.658 287.705 117.659 287.779C117.659 287.826 117.67 287.874 117.692 287.917C117.714 287.96 117.746 287.997 117.786 288.027L117.8 288.038L119.192 289.024C119.273 289.08 119.336 289.156 119.371 289.244C119.407 289.332 119.414 289.428 119.391 289.52C119.385 289.546 119.376 289.572 119.365 289.597L118.838 291.175V291.181L118.833 291.192C118.825 291.222 118.82 291.252 118.82 291.282C118.819 291.322 118.826 291.362 118.842 291.4C118.857 291.437 118.88 291.472 118.91 291.501C118.94 291.53 118.976 291.554 119.015 291.57C119.055 291.586 119.098 291.595 119.141 291.596C119.197 291.596 119.252 291.582 119.301 291.555L119.357 291.516L120.738 290.541L120.768 290.519C120.845 290.469 120.936 290.442 121.029 290.442C121.122 290.441 121.213 290.466 121.291 290.514C121.308 290.524 121.324 290.535 121.34 290.548L122.713 291.52L122.752 291.548C122.802 291.577 122.861 291.593 122.92 291.592C122.964 291.591 123.006 291.582 123.046 291.566C123.085 291.55 123.121 291.526 123.151 291.497C123.18 291.468 123.204 291.434 123.219 291.396C123.234 291.358 123.242 291.318 123.241 291.278C123.241 291.247 123.236 291.215 123.226 291.185C123.226 291.18 123.223 291.175 123.221 291.17L122.691 289.586C122.682 289.566 122.675 289.545 122.67 289.523C122.661 289.486 122.656 289.448 122.656 289.41C122.655 289.34 122.671 289.271 122.703 289.208C122.734 289.145 122.78 289.089 122.837 289.044C122.849 289.034 122.861 289.026 122.874 289.018L124.25 288.045L124.291 288.014C124.327 287.984 124.356 287.948 124.375 287.907C124.395 287.866 124.404 287.821 124.404 287.777C124.405 287.702 124.376 287.63 124.324 287.573C124.272 287.516 124.2 287.479 124.121 287.469Z" fill="#FECE4D"/>
<path opacity="0.3" d="M133.11 287.469H131.32V287.465C131.221 287.464 131.124 287.434 131.044 287.38C130.963 287.326 130.903 287.25 130.871 287.163C130.865 287.149 130.86 287.136 130.857 287.122L130.331 285.552L130.318 285.513C130.295 285.453 130.253 285.403 130.197 285.367C130.141 285.332 130.074 285.314 130.007 285.317C129.939 285.319 129.874 285.342 129.822 285.381C129.769 285.421 129.731 285.474 129.714 285.535L129.182 287.116C129.182 287.116 129.182 287.116 129.182 287.119C129.178 287.135 129.172 287.151 129.166 287.167C129.133 287.254 129.072 287.329 128.992 287.383C128.911 287.436 128.815 287.465 128.716 287.466V287.469H126.924C126.846 287.482 126.775 287.52 126.725 287.577C126.674 287.633 126.647 287.705 126.648 287.779C126.648 287.826 126.659 287.873 126.681 287.916C126.703 287.959 126.735 287.997 126.775 288.027L126.79 288.038L128.182 289.023C128.264 289.079 128.327 289.155 128.362 289.243C128.397 289.331 128.404 289.427 128.382 289.519C128.376 289.545 128.367 289.571 128.356 289.596L127.828 291.174V291.18L127.825 291.191C127.816 291.22 127.811 291.251 127.811 291.281C127.81 291.321 127.817 291.361 127.833 291.399C127.848 291.436 127.871 291.471 127.901 291.5C127.931 291.529 127.967 291.553 128.006 291.569C128.046 291.585 128.089 291.594 128.132 291.595C128.188 291.595 128.243 291.581 128.291 291.554L128.348 291.515L129.729 290.539L129.759 290.517C129.836 290.468 129.927 290.441 130.02 290.441C130.113 290.44 130.204 290.465 130.282 290.513C130.299 290.523 130.315 290.534 130.33 290.547L131.703 291.519L131.742 291.547C131.793 291.576 131.851 291.592 131.911 291.591C131.954 291.59 131.996 291.581 132.036 291.565C132.075 291.549 132.111 291.525 132.141 291.496C132.171 291.467 132.194 291.432 132.209 291.395C132.225 291.357 132.232 291.317 132.231 291.277C132.231 291.246 132.226 291.214 132.216 291.184C132.216 291.179 132.213 291.174 132.211 291.169L131.681 289.585C131.673 289.565 131.666 289.544 131.661 289.522C131.651 289.485 131.646 289.447 131.646 289.409C131.646 289.339 131.662 289.27 131.693 289.207C131.724 289.144 131.77 289.088 131.828 289.043C131.839 289.033 131.852 289.025 131.864 289.017L133.24 288.043L133.282 288.013C133.318 287.983 133.346 287.947 133.366 287.906C133.385 287.865 133.395 287.82 133.394 287.776C133.395 287.701 133.366 287.629 133.314 287.573C133.262 287.516 133.19 287.479 133.11 287.469Z" fill="#FECE4D"/>
<g filter="url(#filter5_dd_50785_37481)">
<path d="M219 164.087C219 161.83 220.83 160 223.087 160H309.671C311.928 160 313.757 161.83 313.757 164.087V209.55C313.757 211.807 311.928 213.636 309.671 213.636H223.087C220.83 213.636 219 211.807 219 209.55V164.087Z" fill="white"/>
</g>
<path d="M296.565 180.094C296.45 179.714 296.255 179.363 295.993 179.064C295.729 178.765 295.404 178.526 295.041 178.363C294.677 178.199 294.282 178.115 293.883 178.115H288.56V176.76C288.555 175.574 288.085 174.437 287.251 173.593C286.832 173.182 286.339 172.855 285.799 172.627C285.256 172.398 284.673 172.282 284.084 172.283C283.881 172.289 283.684 172.348 283.512 172.455C283.329 172.565 283.182 172.726 283.089 172.918L279.241 180.614H274.947C274.688 180.614 274.432 180.665 274.192 180.763C273.953 180.863 273.736 181.009 273.552 181.191C273.369 181.375 273.225 181.592 273.127 181.832C273.028 182.071 272.979 182.328 272.98 182.587V191.735C272.978 191.994 273.027 192.252 273.125 192.492C273.224 192.733 273.368 192.951 273.552 193.135C273.735 193.318 273.953 193.463 274.192 193.561C274.432 193.659 274.688 193.709 274.947 193.707H292.643C293.319 193.707 293.972 193.463 294.483 193.02C294.993 192.576 295.326 191.964 295.421 191.294L296.674 181.3C296.725 180.895 296.688 180.483 296.565 180.094ZM275.244 191.437V182.895H278.789V191.437H275.244ZM286.382 179.682C286.498 179.961 286.72 180.183 287 180.299C287.137 180.358 287.285 180.389 287.434 180.391H293.866C293.945 180.387 294.024 180.402 294.095 180.437C294.161 180.468 294.221 180.511 294.272 180.563C294.319 180.62 294.354 180.686 294.375 180.757C294.392 180.832 294.392 180.91 294.375 180.986L293.134 190.98C293.119 191.106 293.058 191.222 292.963 191.306C292.869 191.39 292.747 191.437 292.62 191.437H281.082V182.026L284.764 174.673L284.947 174.742C285.211 174.846 285.452 175.002 285.656 175.199C285.86 175.403 286.021 175.644 286.131 175.91C286.241 176.176 286.297 176.461 286.296 176.749V179.247C286.295 179.397 286.326 179.545 286.388 179.682H286.382Z" fill="#3D7FFC"/>
<mask id="mask2_50785_37481" style="mask-type:alpha" maskUnits="userSpaceOnUse" x="228" y="174" width="30" height="30">
<circle cx="243.302" cy="188.708" r="14.5429" fill="#C4C4C4"/>
</mask>
<g mask="url(#mask2_50785_37481)">
<circle cx="243.302" cy="188.708" r="14.5429" fill="#E6EEFF"/>
<path d="M250.777 185.409C251.182 180.687 249.404 179.141 248.259 178.832C247.48 178.624 247.761 178.832 247.345 178.736C246.697 178.585 246.523 177.687 244.368 177.622C236.308 177.375 235.34 185.078 237.141 188.112C239.223 191.624 242.393 191.971 245.131 191.644C247.187 191.401 250.299 191.015 250.777 185.409Z" fill="#D58B53"/>
<path d="M253.585 224.211C256.801 214.634 261.228 207.69 258.906 203.827C256.681 200.13 255.983 200.211 254.279 199.941C248.093 198.962 247.692 196.506 244.164 196.614C244.095 196.617 243.667 196.614 243.589 196.614C240.088 196.517 238.707 199.139 233.502 199.941C231.793 200.203 231.099 200.13 228.874 203.827C226.553 207.686 230.976 214.634 234.196 224.211C235.912 229.323 233.162 234.188 232.26 235.973C231.265 237.947 230.818 237.739 230.972 239.143C231.219 241.363 237.146 243.064 243.053 243.006C243.331 243.002 244.573 243.006 244.916 243.006C250.762 243.029 256.569 241.34 256.812 239.143C256.967 237.739 256.519 237.947 255.524 235.973C254.618 234.185 251.869 229.319 253.585 224.211Z" fill="#3D7FFC"/>
<path d="M248.124 198.957C247.77 193.525 247.743 189.014 246.227 189.681C245.699 189.916 242.086 189.916 241.554 189.681C240.038 189.01 239.98 192.92 239.656 198.957C239.606 199.867 240.84 202.099 243.89 202.099C246.798 202.099 248.182 199.867 248.124 198.957Z" fill="#FFCDBA"/>
<path d="M249.095 182.201C248.509 179.738 246.234 178.323 243.743 178.377C241.252 178.323 238.98 179.734 238.39 182.201C237.997 183.851 237.885 192.769 240.361 195.537C240.854 196.089 242.547 197.739 243.727 197.739C245.058 197.739 246.646 196.112 247.121 195.537C249.138 193.089 248.987 189.962 249.234 187.703C249.519 185.112 249.488 183.851 249.095 182.201Z" fill="#FFCDBA"/>
<path d="M250.033 187.36C249.662 188.073 247.345 185.159 247.221 181.943C245.648 184.014 241.53 186.346 237.431 185.506C237.4 185.779 237.153 185.162 237.141 183.667C237.114 179.645 240.195 177.189 246.678 178.593C252.234 179.8 250.16 187.121 250.033 187.36Z" fill="#D58B53"/>
<path d="M247.754 190.891C247.507 191.161 247.276 191.462 247.098 191.72C246.84 192.094 246.204 192.26 245.764 192.137C245.286 192.002 244.742 191.821 244.091 191.786C243.728 191.767 243.736 191.767 243.4 191.786C242.745 191.824 242.201 192.002 241.723 192.137C241.283 192.26 240.651 192.094 240.389 191.72C240.207 191.462 239.98 191.161 239.733 190.891C238.704 189.777 238.056 189.365 238.295 189.654C238.561 189.974 238.468 189.854 238.638 192.468C238.808 195.078 241.064 197.874 243.547 197.827C243.578 197.827 243.898 197.827 243.929 197.827C246.416 197.877 248.722 195.082 248.892 192.468C249.065 189.854 248.969 189.974 249.235 189.654C249.482 189.369 248.784 189.777 247.754 190.891ZM245.186 193.436C245.028 193.521 244.769 193.598 244.577 193.648C244.091 193.771 243.393 193.768 242.903 193.648C242.71 193.602 242.452 193.521 242.294 193.436C242.159 193.367 242.159 193.17 242.294 193.101C242.641 192.923 243.057 192.854 243.478 192.804C243.593 192.788 243.879 192.788 243.994 192.804C244.418 192.854 244.831 192.927 245.178 193.101C245.321 193.17 245.321 193.367 245.186 193.436Z" fill="#D58B53"/>
</g>
<path d="M271.386 203.423H269.877V203.42C269.793 203.419 269.712 203.394 269.644 203.348C269.576 203.303 269.525 203.239 269.498 203.165C269.494 203.154 269.49 203.142 269.486 203.13L269.044 201.808L269.033 201.774C269.014 201.724 268.978 201.681 268.931 201.652C268.884 201.622 268.827 201.607 268.771 201.609C268.714 201.611 268.659 201.63 268.614 201.664C268.57 201.697 268.538 201.742 268.524 201.793L268.075 203.126C268.076 203.126 268.076 203.127 268.075 203.128C268.072 203.142 268.067 203.155 268.062 203.169C268.034 203.242 267.983 203.305 267.915 203.35C267.847 203.395 267.766 203.42 267.683 203.421V203.423H266.173C266.107 203.434 266.047 203.466 266.005 203.514C265.962 203.562 265.939 203.622 265.94 203.684C265.94 203.724 265.95 203.764 265.968 203.8C265.986 203.837 266.013 203.869 266.047 203.894L266.059 203.903L267.232 204.734C267.288 204.772 267.333 204.821 267.364 204.878C267.395 204.935 267.411 204.998 267.411 205.062C267.411 205.092 267.407 205.121 267.4 205.15C267.395 205.172 267.388 205.194 267.378 205.215L266.934 206.545V206.55L266.93 206.56C266.923 206.584 266.919 206.61 266.919 206.635C266.918 206.669 266.925 206.703 266.938 206.735C266.951 206.766 266.97 206.795 266.995 206.82C267.021 206.845 267.051 206.864 267.084 206.878C267.117 206.892 267.153 206.899 267.19 206.9C267.237 206.9 267.284 206.888 267.324 206.865L267.372 206.833L268.536 206.01L268.561 205.992C268.626 205.95 268.702 205.927 268.781 205.927C268.86 205.926 268.936 205.947 269.002 205.988C269.016 205.996 269.03 206.006 269.043 206.017L270.2 206.836L270.233 206.859C270.275 206.884 270.325 206.897 270.375 206.897C270.411 206.896 270.447 206.888 270.48 206.875C270.514 206.861 270.544 206.841 270.569 206.817C270.594 206.792 270.614 206.763 270.627 206.731C270.64 206.7 270.646 206.666 270.645 206.632C270.645 206.606 270.641 206.579 270.632 206.554C270.632 206.55 270.63 206.545 270.629 206.541L270.182 205.206C270.175 205.189 270.169 205.171 270.165 205.153C270.146 205.08 270.149 205.003 270.174 204.932C270.199 204.861 270.245 204.798 270.307 204.749C270.317 204.741 270.327 204.734 270.337 204.727L271.497 203.907L271.532 203.881C271.563 203.856 271.587 203.825 271.603 203.791C271.619 203.756 271.628 203.719 271.627 203.681C271.627 203.618 271.603 203.557 271.559 203.51C271.514 203.462 271.453 203.432 271.386 203.423Z" fill="#FECE4D"/>
<path d="M278.968 203.423H277.459V203.42C277.375 203.419 277.294 203.394 277.226 203.348C277.158 203.303 277.107 203.239 277.08 203.165C277.076 203.154 277.072 203.142 277.068 203.13L276.626 201.808L276.614 201.774C276.595 201.724 276.56 201.681 276.512 201.652C276.465 201.622 276.409 201.607 276.352 201.609C276.295 201.611 276.24 201.63 276.196 201.664C276.152 201.697 276.12 201.742 276.105 201.793L275.657 203.126C275.657 203.126 275.657 203.127 275.657 203.128C275.653 203.142 275.649 203.155 275.643 203.169C275.616 203.242 275.564 203.305 275.496 203.35C275.429 203.395 275.348 203.42 275.264 203.421V203.423H273.754C273.688 203.434 273.629 203.466 273.586 203.514C273.544 203.562 273.521 203.622 273.522 203.684C273.522 203.724 273.531 203.764 273.55 203.8C273.568 203.837 273.595 203.869 273.629 203.894L273.641 203.903L274.814 204.734C274.882 204.781 274.935 204.845 274.965 204.92C274.995 204.994 275.001 205.075 274.982 205.152C274.977 205.174 274.969 205.196 274.96 205.217L274.515 206.547V206.552L274.512 206.561C274.505 206.586 274.501 206.612 274.501 206.637C274.5 206.671 274.506 206.705 274.519 206.736C274.532 206.768 274.552 206.797 274.577 206.822C274.602 206.846 274.632 206.866 274.666 206.88C274.699 206.893 274.735 206.901 274.771 206.901C274.819 206.902 274.865 206.89 274.906 206.867L274.953 206.834L276.117 206.012L276.143 205.994C276.207 205.952 276.284 205.929 276.363 205.929C276.441 205.928 276.518 205.949 276.583 205.99C276.598 205.998 276.611 206.008 276.624 206.018L277.782 206.838L277.814 206.861C277.857 206.886 277.906 206.899 277.956 206.898C277.993 206.898 278.029 206.89 278.062 206.876C278.095 206.863 278.125 206.843 278.15 206.818C278.175 206.794 278.195 206.765 278.208 206.733C278.221 206.701 278.227 206.668 278.226 206.634C278.227 206.607 278.222 206.581 278.214 206.555C278.214 206.551 278.211 206.547 278.21 206.543L277.763 205.208C277.756 205.19 277.75 205.173 277.746 205.154C277.737 205.123 277.733 205.091 277.733 205.059C277.733 205 277.746 204.942 277.773 204.889C277.799 204.836 277.838 204.788 277.886 204.75C277.896 204.743 277.907 204.736 277.917 204.729L279.077 203.908L279.112 203.883C279.142 203.858 279.166 203.827 279.183 203.792C279.199 203.758 279.207 203.72 279.207 203.683C279.207 203.62 279.183 203.559 279.14 203.511C279.096 203.463 279.035 203.432 278.968 203.423Z" fill="#FECE4D"/>
<path d="M286.54 203.423H285.031V203.42C284.947 203.419 284.866 203.394 284.798 203.348C284.73 203.303 284.679 203.239 284.652 203.165C284.647 203.154 284.643 203.142 284.64 203.13L284.197 201.808L284.186 201.774C284.167 201.724 284.131 201.681 284.084 201.652C284.037 201.622 283.981 201.607 283.924 201.609C283.867 201.611 283.812 201.63 283.768 201.664C283.723 201.697 283.691 201.742 283.677 201.793L283.229 203.126C283.229 203.126 283.229 203.126 283.229 203.128C283.225 203.142 283.221 203.155 283.215 203.169C283.187 203.242 283.136 203.305 283.068 203.35C283 203.395 282.919 203.42 282.836 203.421V203.423H281.326C281.26 203.434 281.201 203.466 281.158 203.514C281.115 203.562 281.093 203.622 281.094 203.684C281.093 203.724 281.103 203.764 281.121 203.801C281.14 203.837 281.167 203.869 281.2 203.894L281.213 203.903L282.385 204.734C282.454 204.781 282.507 204.845 282.537 204.92C282.567 204.994 282.572 205.075 282.553 205.152C282.548 205.174 282.541 205.196 282.532 205.217L282.087 206.547V206.552L282.084 206.561C282.076 206.586 282.073 206.612 282.073 206.637C282.072 206.671 282.078 206.705 282.091 206.736C282.104 206.768 282.124 206.797 282.149 206.822C282.174 206.846 282.204 206.866 282.237 206.88C282.271 206.893 282.307 206.901 282.343 206.901C282.391 206.902 282.437 206.89 282.478 206.867L282.525 206.834L283.689 206.012L283.715 205.994C283.779 205.952 283.856 205.929 283.934 205.929C284.013 205.928 284.09 205.949 284.155 205.99C284.17 205.998 284.183 206.008 284.196 206.018L285.353 206.838L285.386 206.861C285.429 206.886 285.478 206.899 285.528 206.898C285.565 206.898 285.6 206.89 285.634 206.876C285.667 206.863 285.697 206.843 285.722 206.818C285.747 206.794 285.767 206.765 285.78 206.733C285.793 206.701 285.799 206.668 285.798 206.634C285.798 206.607 285.794 206.581 285.786 206.555C285.786 206.551 285.783 206.547 285.782 206.543L285.335 205.208C285.328 205.191 285.322 205.173 285.318 205.154C285.31 205.123 285.306 205.091 285.306 205.059C285.305 205 285.319 204.942 285.345 204.889C285.371 204.836 285.41 204.788 285.459 204.75C285.468 204.743 285.479 204.736 285.489 204.729L286.649 203.908L286.685 203.883C286.715 203.858 286.739 203.827 286.755 203.792C286.772 203.758 286.78 203.72 286.779 203.683C286.78 203.62 286.756 203.558 286.712 203.511C286.668 203.463 286.607 203.432 286.54 203.423Z" fill="#FECE4D"/>
<path d="M294.121 203.423H292.612V203.42C292.528 203.419 292.447 203.394 292.379 203.348C292.311 203.303 292.26 203.239 292.233 203.165C292.228 203.154 292.224 203.142 292.221 203.13L291.778 201.808L291.767 201.774C291.748 201.724 291.712 201.681 291.665 201.652C291.618 201.622 291.562 201.607 291.505 201.609C291.448 201.611 291.393 201.63 291.349 201.664C291.304 201.697 291.273 201.742 291.258 201.793L290.81 203.126C290.81 203.126 290.81 203.127 290.81 203.128C290.806 203.142 290.802 203.155 290.796 203.169C290.768 203.242 290.717 203.305 290.649 203.35C290.582 203.395 290.501 203.42 290.417 203.421V203.423H288.907C288.841 203.434 288.782 203.466 288.739 203.514C288.697 203.562 288.674 203.622 288.675 203.684C288.674 203.724 288.684 203.764 288.702 203.801C288.721 203.837 288.748 203.869 288.781 203.894L288.794 203.903L289.966 204.734C290.035 204.781 290.088 204.845 290.118 204.92C290.148 204.994 290.153 205.075 290.134 205.152C290.129 205.174 290.122 205.196 290.113 205.217L289.668 206.547V206.552L289.664 206.561C289.657 206.586 289.653 206.612 289.653 206.637C289.652 206.671 289.658 206.705 289.671 206.736C289.684 206.768 289.704 206.797 289.729 206.822C289.754 206.846 289.785 206.866 289.818 206.88C289.851 206.893 289.887 206.901 289.924 206.901C289.971 206.902 290.018 206.89 290.058 206.867L290.106 206.834L291.27 206.012L291.295 205.994C291.36 205.952 291.436 205.929 291.515 205.929C291.593 205.928 291.67 205.949 291.736 205.99C291.75 205.998 291.764 206.008 291.777 206.018L292.934 206.838L292.967 206.861C293.01 206.886 293.059 206.899 293.109 206.898C293.146 206.898 293.182 206.89 293.215 206.876C293.248 206.863 293.278 206.843 293.303 206.818C293.328 206.794 293.348 206.765 293.361 206.733C293.374 206.701 293.38 206.668 293.379 206.634C293.379 206.607 293.375 206.581 293.367 206.555C293.367 206.551 293.364 206.547 293.363 206.543L292.916 205.208C292.909 205.19 292.903 205.173 292.898 205.154C292.89 205.123 292.886 205.091 292.886 205.059C292.886 205 292.899 204.942 292.926 204.889C292.952 204.836 292.991 204.788 293.039 204.75C293.049 204.743 293.059 204.736 293.07 204.729L294.23 203.908L294.265 203.883C294.295 203.858 294.319 203.827 294.335 203.792C294.352 203.758 294.36 203.72 294.36 203.683C294.36 203.62 294.336 203.559 294.292 203.511C294.249 203.463 294.188 203.432 294.121 203.423Z" fill="#FECE4D"/>
<path d="M301.698 203.423H300.189V203.42C300.105 203.419 300.024 203.394 299.956 203.348C299.888 203.303 299.837 203.239 299.81 203.165C299.806 203.154 299.802 203.142 299.798 203.13L299.356 201.808L299.344 201.774C299.325 201.724 299.29 201.681 299.242 201.652C299.195 201.622 299.139 201.607 299.082 201.609C299.025 201.611 298.97 201.63 298.926 201.664C298.882 201.697 298.85 201.742 298.835 201.793L298.387 203.126C298.387 203.126 298.387 203.126 298.387 203.128C298.383 203.142 298.379 203.155 298.373 203.169C298.345 203.242 298.294 203.305 298.226 203.35C298.159 203.395 298.078 203.42 297.994 203.421V203.423H296.484C296.418 203.434 296.358 203.466 296.316 203.514C296.273 203.562 296.25 203.622 296.252 203.684C296.251 203.724 296.261 203.764 296.279 203.8C296.298 203.837 296.325 203.869 296.358 203.894L296.37 203.903L297.544 204.733C297.613 204.78 297.666 204.844 297.696 204.919C297.726 204.993 297.731 205.074 297.713 205.151C297.707 205.173 297.7 205.195 297.691 205.216L297.246 206.546V206.551L297.243 206.561C297.235 206.585 297.232 206.61 297.231 206.636C297.23 206.67 297.236 206.704 297.25 206.735C297.263 206.767 297.282 206.796 297.307 206.821C297.333 206.846 297.363 206.865 297.396 206.879C297.429 206.893 297.465 206.9 297.502 206.901C297.549 206.901 297.596 206.889 297.636 206.866L297.684 206.834L298.848 206.011L298.873 205.993C298.938 205.951 299.014 205.929 299.093 205.928C299.171 205.927 299.248 205.948 299.314 205.989C299.328 205.997 299.342 206.007 299.355 206.017L300.512 206.837L300.545 206.86C300.587 206.885 300.637 206.898 300.687 206.898C300.723 206.897 300.759 206.889 300.792 206.876C300.826 206.862 300.856 206.842 300.881 206.817C300.906 206.793 300.926 206.764 300.939 206.732C300.952 206.701 300.958 206.667 300.957 206.633C300.957 206.606 300.953 206.58 300.944 206.555C300.944 206.551 300.942 206.546 300.94 206.542L300.494 205.207C300.486 205.19 300.48 205.172 300.476 205.154C300.468 205.122 300.464 205.09 300.464 205.058C300.463 205 300.477 204.941 300.503 204.888C300.53 204.835 300.568 204.787 300.617 204.75C300.627 204.742 300.637 204.735 300.648 204.728L301.807 203.907L301.842 203.882C301.873 203.857 301.897 203.826 301.913 203.791C301.929 203.757 301.938 203.719 301.937 203.682C301.938 203.619 301.914 203.558 301.87 203.511C301.826 203.463 301.765 203.432 301.698 203.423Z" fill="#FECE4D"/>
</g>
<g filter="url(#filter6_dd_50785_37481)">
<path d="M282.627 325.867C306.508 325.867 325.867 306.508 325.867 282.627C325.867 258.746 306.508 239.387 282.627 239.387C258.746 239.387 239.387 258.746 239.387 282.627C239.387 306.508 258.746 325.867 282.627 325.867Z" fill="white" stroke="#3D7FFC" stroke-width="2.50667"/>
<path d="M262.581 285.004L259.665 281.358L270.877 272.384L284.713 276.996L302.362 259.35L305.662 262.65L285.976 282.342L271.806 277.615L262.581 285.004Z" fill="#3D7FFC"/>
<path d="M306.346 270.333H301.68V263.333H294.68V258.667H306.346V270.333Z" fill="#3D7FFC"/>
<path d="M266.679 289H262.013V303H266.679V289Z" fill="#3D7FFC"/>
<path d="M276.012 284.333H271.346V303H276.012V284.333Z" fill="#3D7FFC"/>
<path d="M285.346 286.667H280.679V303H285.346V286.667Z" fill="#3D7FFC"/>
<path d="M294.679 284.333H290.013V303H294.679V284.333Z" fill="#3D7FFC"/>
<path d="M304.012 275H299.346V303H304.012V275Z" fill="#3D7FFC"/>
</g>
<defs>
<filter id="filter0_dd_50785_37481" x="107.451" y="80.0422" width="167.27" height="216.099" filterUnits="userSpaceOnUse" color-interpolation-filters="sRGB">
<feFlood flood-opacity="0" result="BackgroundImageFix"/>
<feColorMatrix in="SourceAlpha" type="matrix" values="0 0 0 0 0 0 0 0 0 0 0 0 0 0 0 0 0 0 127 0" result="hardAlpha"/>
<feOffset dy="3.18311"/>
<feGaussianBlur stdDeviation="3.97889"/>
<feColorMatrix type="matrix" values="0 0 0 0 0.607843 0 0 0 0 0.67451 0 0 0 0 0.737255 0 0 0 0.35 0"/>
<feBlend mode="normal" in2="BackgroundImageFix" result="effect1_dropShadow_50785_37481"/>
<feColorMatrix in="SourceAlpha" type="matrix" values="0 0 0 0 0 0 0 0 0 0 0 0 0 0 0 0 0 0 127 0" result="hardAlpha"/>
<feOffset dy="1.59156"/>
<feGaussianBlur stdDeviation="4.77467"/>
<feColorMatrix type="matrix" values="0 0 0 0 0.89625 0 0 0 0 0.930414 0 0 0 0 0.995833 0 0 0 0.5 0"/>
<feBlend mode="normal" in2="effect1_dropShadow_50785_37481" result="effect2_dropShadow_50785_37481"/>
<feBlend mode="normal" in="SourceGraphic" in2="effect2_dropShadow_50785_37481" result="shape"/>
</filter>
<filter id="filter1_dd_50785_37481" x="238.321" y="61.7658" width="64.7202" height="64.7202" filterUnits="userSpaceOnUse" color-interpolation-filters="sRGB">
<feFlood flood-opacity="0" result="BackgroundImageFix"/>
<feColorMatrix in="SourceAlpha" type="matrix" values="0 0 0 0 0 0 0 0 0 0 0 0 0 0 0 0 0 0 127 0" result="hardAlpha"/>
<feOffset dx="7.10538" dy="7.10538"/>
<feGaussianBlur stdDeviation="7.10538"/>
<feColorMatrix type="matrix" values="0 0 0 0 0 0 0 0 0 0.296699 0 0 0 0 0.858629 0 0 0 0.08 0"/>
<feBlend mode="normal" in2="BackgroundImageFix" result="effect1_dropShadow_50785_37481"/>
<feColorMatrix in="SourceAlpha" type="matrix" values="0 0 0 0 0 0 0 0 0 0 0 0 0 0 0 0 0 0 127 0" result="hardAlpha"/>
<feOffset/>
<feGaussianBlur stdDeviation="4.97377"/>
<feComposite in2="hardAlpha" operator="out"/>
<feColorMatrix type="matrix" values="0 0 0 0 0.0354167 0 0 0 0 0.105426 0 0 0 0 0.2125 0 0 0 0.07 0"/>
<feBlend mode="normal" in2="effect1_dropShadow_50785_37481" result="effect2_dropShadow_50785_37481"/>
<feBlend mode="normal" in="SourceGraphic" in2="effect2_dropShadow_50785_37481" result="shape"/>
</filter>
<filter id="filter2_d_50785_37481" x="20.5233" y="106.566" width="135.787" height="88.5574" filterUnits="userSpaceOnUse" color-interpolation-filters="sRGB">
<feFlood flood-opacity="0" result="BackgroundImageFix"/>
<feColorMatrix in="SourceAlpha" type="matrix" values="0 0 0 0 0 0 0 0 0 0 0 0 0 0 0 0 0 0 127 0" result="hardAlpha"/>
<feOffset dy="4.04301"/>
<feGaussianBlur stdDeviation="6.73836"/>
<feColorMatrix type="matrix" values="0 0 0 0 0 0 0 0 0 0 0 0 0 0 0 0 0 0 0.15 0"/>
<feBlend mode="normal" in2="BackgroundImageFix" result="effect1_dropShadow_50785_37481"/>
<feBlend mode="normal" in="SourceGraphic" in2="effect1_dropShadow_50785_37481" result="shape"/>
</filter>
<filter id="filter3_dd_50785_37481" x="27.9239" y="110.937" width="120.986" height="73.7562" filterUnits="userSpaceOnUse" color-interpolation-filters="sRGB">
<feFlood flood-opacity="0" result="BackgroundImageFix"/>
<feColorMatrix in="SourceAlpha" type="matrix" values="0 0 0 0 0 0 0 0 0 0 0 0 0 0 0 0 0 0 127 0" result="hardAlpha"/>
<feOffset dy="2.02536"/>
<feGaussianBlur stdDeviation="2.5317"/>
<feColorMatrix type="matrix" values="0 0 0 0 0.607843 0 0 0 0 0.67451 0 0 0 0 0.737255 0 0 0 0.35 0"/>
<feBlend mode="normal" in2="BackgroundImageFix" result="effect1_dropShadow_50785_37481"/>
<feColorMatrix in="SourceAlpha" type="matrix" values="0 0 0 0 0 0 0 0 0 0 0 0 0 0 0 0 0 0 127 0" result="hardAlpha"/>
<feOffset dy="1.01268"/>
<feGaussianBlur stdDeviation="3.03804"/>
<feColorMatrix type="matrix" values="0 0 0 0 0.89625 0 0 0 0 0.930414 0 0 0 0 0.995833 0 0 0 0.5 0"/>
<feBlend mode="normal" in2="effect1_dropShadow_50785_37481" result="effect2_dropShadow_50785_37481"/>
<feBlend mode="normal" in="SourceGraphic" in2="effect2_dropShadow_50785_37481" result="shape"/>
</filter>
<filter id="filter4_dd_50785_37481" x="28.7235" y="231.77" width="124.977" height="76.1893" filterUnits="userSpaceOnUse" color-interpolation-filters="sRGB">
<feFlood flood-opacity="0" result="BackgroundImageFix"/>
<feColorMatrix in="SourceAlpha" type="matrix" values="0 0 0 0 0 0 0 0 0 0 0 0 0 0 0 0 0 0 127 0" result="hardAlpha"/>
<feOffset dy="2.09218"/>
<feGaussianBlur stdDeviation="2.61522"/>
<feColorMatrix type="matrix" values="0 0 0 0 0.607843 0 0 0 0 0.67451 0 0 0 0 0.737255 0 0 0 0.35 0"/>
<feBlend mode="normal" in2="BackgroundImageFix" result="effect1_dropShadow_50785_37481"/>
<feColorMatrix in="SourceAlpha" type="matrix" values="0 0 0 0 0 0 0 0 0 0 0 0 0 0 0 0 0 0 127 0" result="hardAlpha"/>
<feOffset dy="1.04609"/>
<feGaussianBlur stdDeviation="3.13827"/>
<feColorMatrix type="matrix" values="0 0 0 0 0.89625 0 0 0 0 0.930414 0 0 0 0 0.995833 0 0 0 0.5 0"/>
<feBlend mode="normal" in2="effect1_dropShadow_50785_37481" result="effect2_dropShadow_50785_37481"/>
<feBlend mode="normal" in="SourceGraphic" in2="effect2_dropShadow_50785_37481" result="shape"/>
</filter>
<filter id="filter5_dd_50785_37481" x="213.71" y="155.591" width="105.338" height="64.2167" filterUnits="userSpaceOnUse" color-interpolation-filters="sRGB">
<feFlood flood-opacity="0" result="BackgroundImageFix"/>
<feColorMatrix in="SourceAlpha" type="matrix" values="0 0 0 0 0 0 0 0 0 0 0 0 0 0 0 0 0 0 127 0" result="hardAlpha"/>
<feOffset dy="1.76341"/>
<feGaussianBlur stdDeviation="2.20426"/>
<feColorMatrix type="matrix" values="0 0 0 0 0.607843 0 0 0 0 0.67451 0 0 0 0 0.737255 0 0 0 0.35 0"/>
<feBlend mode="normal" in2="BackgroundImageFix" result="effect1_dropShadow_50785_37481"/>
<feColorMatrix in="SourceAlpha" type="matrix" values="0 0 0 0 0 0 0 0 0 0 0 0 0 0 0 0 0 0 127 0" result="hardAlpha"/>
<feOffset dy="0.881703"/>
<feGaussianBlur stdDeviation="2.64511"/>
<feColorMatrix type="matrix" values="0 0 0 0 0.89625 0 0 0 0 0.930414 0 0 0 0 0.995833 0 0 0 0.5 0"/>
<feBlend mode="normal" in2="effect1_dropShadow_50785_37481" result="effect2_dropShadow_50785_37481"/>
<feBlend mode="normal" in="SourceGraphic" in2="effect2_dropShadow_50785_37481" result="shape"/>
</filter>
<filter id="filter6_dd_50785_37481" x="228.336" y="228.336" width="119.777" height="119.777" filterUnits="userSpaceOnUse" color-interpolation-filters="sRGB">
<feFlood flood-opacity="0" result="BackgroundImageFix"/>
<feColorMatrix in="SourceAlpha" type="matrix" values="0 0 0 0 0 0 0 0 0 0 0 0 0 0 0 0 0 0 127 0" result="hardAlpha"/>
<feOffset dx="6.99777" dy="6.99777"/>
<feGaussianBlur stdDeviation="6.99777"/>
<feColorMatrix type="matrix" values="0 0 0 0 0 0 0 0 0 0.296699 0 0 0 0 0.858629 0 0 0 0.08 0"/>
<feBlend mode="normal" in2="BackgroundImageFix" result="effect1_dropShadow_50785_37481"/>
<feColorMatrix in="SourceAlpha" type="matrix" values="0 0 0 0 0 0 0 0 0 0 0 0 0 0 0 0 0 0 127 0" result="hardAlpha"/>
<feOffset/>
<feGaussianBlur stdDeviation="4.89844"/>
<feComposite in2="hardAlpha" operator="out"/>
<feColorMatrix type="matrix" values="0 0 0 0 0.0354167 0 0 0 0 0.105426 0 0 0 0 0.2125 0 0 0 0.07 0"/>
<feBlend mode="normal" in2="effect1_dropShadow_50785_37481" result="effect2_dropShadow_50785_37481"/>
<feBlend mode="normal" in="SourceGraphic" in2="effect2_dropShadow_50785_37481" result="shape"/>
</filter>
<clipPath id="clip0_50785_37481">
<rect width="376" height="376" fill="white"/>
</clipPath>
</defs>
</svg>
