<svg width="48" height="47" viewBox="0 0 48 47" fill="none" xmlns="http://www.w3.org/2000/svg">
<g clip-path="url(#clip0_51287_4532)">
<g clip-path="url(#clip1_51287_4532)">
<path d="M46.11 0H20.7C20.04 0 19.5 0.54 19.5 1.2V9H21.44V5.62C21.44 5.42 21.6 5.26 21.8 5.26H30.13C30.33 5.26 30.49 5.42 30.49 5.62V16.53C30.49 16.73 30.33 16.89 30.13 16.89H27.5V18.71H46.11C46.77 18.71 47.31 18.17 47.31 17.51V1.2C47.31 0.54 46.77 0 46.11 0ZM23.19 3.21C22.75 3.21 22.39 2.85 22.39 2.41C22.39 1.97 22.75 1.61 23.19 1.61C23.63 1.61 23.99 1.97 23.99 2.41C23.99 2.85 23.63 3.21 23.19 3.21ZM25.81 3.21C25.37 3.21 25.01 2.85 25.01 2.41C25.01 1.97 25.37 1.61 25.81 1.61C26.25 1.61 26.61 1.97 26.61 2.41C26.61 2.85 26.25 3.21 25.81 3.21ZM28.43 3.21C27.99 3.21 27.63 2.85 27.63 2.41C27.63 1.97 27.99 1.61 28.43 1.61C28.87 1.61 29.23 1.97 29.23 2.41C29.23 2.85 28.87 3.21 28.43 3.21ZM45.35 16.54C45.35 16.74 45.19 16.9 44.99 16.9H32.14C31.94 16.9 31.78 16.74 31.78 16.54V12.09C31.78 11.89 31.94 11.73 32.14 11.73H44.99C45.19 11.73 45.35 11.89 45.35 12.09V16.54ZM45.35 10.07C45.35 10.27 45.19 10.43 44.99 10.43H32.14C31.94 10.43 31.78 10.27 31.78 10.07V5.62C31.78 5.42 31.94 5.26 32.14 5.26H44.99C45.19 5.26 45.35 5.42 45.35 5.62V10.07Z" fill="#3D7FFC"/>
<path d="M31.7998 22.8H35.0098V20.48C34.0298 20.84 33.1298 21.41 32.3598 22.17C32.1598 22.37 31.9698 22.59 31.7998 22.81V22.8Z" fill="#EDF1F6"/>
<path d="M30.95 20.74C32.01 19.69 33.27 18.93 34.65 18.48H6.5V22.8H29.39C29.81 22.06 30.33 21.36 30.95 20.75V20.74Z" fill="#EDF1F6"/>
<g opacity="0.5">
<path d="M0.700195 23.8301C0.700195 23.5601 0.970195 23.3401 1.3002 23.3401H26.1002C26.4302 23.3401 26.7002 23.5601 26.7002 23.8301V37.8101C26.7002 38.0801 26.4302 38.3001 26.1002 38.3001H1.3002C0.970195 38.3001 0.700195 38.0801 0.700195 37.8101V23.8301Z" fill="white"/>
<path d="M0.700195 23.3401H26.7002V25.7001H0.700195V23.3401Z" fill="#C6DBFF"/>
<path d="M0.700195 29.6399H26.7002V33.5799H0.700195V29.6399Z" fill="#EDF1F6"/>
<path d="M14.9102 27.3701H14.6502C14.6502 27.3701 14.6202 27.3701 14.6102 27.3601C14.6002 27.3601 14.5902 27.3401 14.5802 27.3301L14.5002 27.1001C14.5002 27.1001 14.5002 27.0801 14.4802 27.0701C14.4802 27.0701 14.4602 27.0701 14.4502 27.0701C14.4502 27.0701 14.4302 27.0701 14.4202 27.0701C14.4202 27.0701 14.4102 27.0801 14.4002 27.0901L14.3202 27.3201C14.3202 27.3301 14.3102 27.3401 14.2902 27.3501C14.2802 27.3501 14.2602 27.3601 14.2502 27.3601H13.9902C13.9802 27.3601 13.9702 27.3601 13.9602 27.3801C13.9602 27.3801 13.9502 27.4001 13.9502 27.4101C13.9502 27.4101 13.9502 27.4201 13.9502 27.4301C13.9502 27.4401 13.9502 27.4401 13.9602 27.4501L14.1602 27.6001C14.1602 27.6001 14.1802 27.6101 14.1802 27.6201C14.1802 27.6201 14.1802 27.6401 14.1802 27.6501C14.1802 27.6501 14.1802 27.6601 14.1802 27.6701C14.1802 27.6701 14.1802 27.6701 14.1802 27.6801L14.1002 27.9101C14.1002 27.9101 14.1002 27.9101 14.1002 27.9201C14.1002 27.9201 14.1002 27.9301 14.1002 27.9401C14.1002 27.9401 14.1002 27.9501 14.1102 27.9501C14.1102 27.9501 14.1102 27.9501 14.1302 27.9601C14.1302 27.9601 14.1402 27.9601 14.1502 27.9601H14.1702L14.3702 27.8101C14.3702 27.8101 14.3902 27.8001 14.4102 27.8001C14.4202 27.8001 14.4402 27.8001 14.4502 27.8101L14.6502 27.9501L14.6702 27.9601C14.6702 27.9601 14.6802 27.9601 14.6902 27.9601C14.6902 27.9601 14.7002 27.9601 14.7102 27.9501C14.7102 27.9501 14.7102 27.9501 14.7202 27.9401C14.7202 27.9401 14.7202 27.9301 14.7202 27.9201C14.7202 27.9201 14.7202 27.9201 14.7202 27.9101L14.6402 27.6801C14.6402 27.6701 14.6402 27.6501 14.6402 27.6401C14.6402 27.6301 14.6502 27.6201 14.6602 27.6101L14.8602 27.4701C14.8602 27.4701 14.8602 27.4601 14.8702 27.4501C14.8702 27.4501 14.8702 27.4401 14.8702 27.4301C14.8702 27.4201 14.8702 27.4101 14.8602 27.4001C14.8602 27.4001 14.8402 27.3901 14.8302 27.3801L14.9102 27.3701Z" fill="#B8C4D0"/>
<path d="M16.2198 27.3701H15.9598C15.9598 27.3701 15.9298 27.3701 15.9198 27.3601C15.9098 27.3601 15.8998 27.3401 15.8898 27.3301L15.8098 27.1001C15.8098 27.1001 15.8098 27.0801 15.7898 27.0701C15.7898 27.0701 15.7698 27.0701 15.7598 27.0701C15.7598 27.0701 15.7398 27.0701 15.7298 27.0701C15.7198 27.0701 15.7198 27.0801 15.7098 27.0901L15.6298 27.3201C15.6298 27.3301 15.6198 27.3401 15.5998 27.3501C15.5898 27.3501 15.5698 27.3601 15.5598 27.3601H15.2998C15.2898 27.3601 15.2798 27.3601 15.2698 27.3801C15.2698 27.3801 15.2598 27.4001 15.2598 27.4101C15.2598 27.4101 15.2598 27.4201 15.2598 27.4301C15.2598 27.4301 15.2598 27.4401 15.2698 27.4501L15.4698 27.6001C15.4798 27.6001 15.4898 27.6201 15.4998 27.6301C15.4998 27.6401 15.4998 27.6601 15.4998 27.6701C15.4998 27.6701 15.4998 27.6701 15.4998 27.6801L15.4198 27.9101C15.4198 27.9101 15.4198 27.9101 15.4198 27.9201C15.4198 27.9201 15.4198 27.9301 15.4198 27.9401V27.9501C15.4198 27.9501 15.4198 27.9501 15.4398 27.9601C15.4398 27.9601 15.4498 27.9601 15.4598 27.9601H15.4798L15.6798 27.8101C15.6798 27.8101 15.6998 27.8001 15.7198 27.8001C15.7298 27.8001 15.7498 27.8001 15.7598 27.8101L15.9598 27.9501L15.9798 27.9601C15.9798 27.9601 15.9898 27.9601 15.9998 27.9601C15.9998 27.9601 16.0098 27.9601 16.0198 27.9501C16.0198 27.9501 16.0198 27.9501 16.0298 27.9401C16.0298 27.9401 16.0298 27.9301 16.0298 27.9201C16.0298 27.9201 16.0298 27.9201 16.0298 27.9101L15.9498 27.6801C15.9498 27.6801 15.9498 27.6701 15.9498 27.6601C15.9498 27.6501 15.9498 27.6401 15.9498 27.6301C15.9498 27.6301 15.9598 27.6101 15.9698 27.6101L16.1698 27.4701C16.1698 27.4701 16.1698 27.4601 16.1798 27.4501C16.1798 27.4501 16.1798 27.4401 16.1798 27.4301C16.1798 27.4201 16.1798 27.4101 16.1698 27.4001C16.1698 27.4001 16.1498 27.3901 16.1398 27.3801L16.2198 27.3701Z" fill="#B8C4D0"/>
<path d="M17.5401 27.3701H17.2801C17.2801 27.3701 17.2501 27.3701 17.2401 27.3601C17.2301 27.3601 17.2201 27.3401 17.2101 27.3301L17.1301 27.1001C17.1301 27.1001 17.1301 27.0801 17.1101 27.0701C17.1101 27.0701 17.0901 27.0701 17.0801 27.0701C17.0801 27.0701 17.0601 27.0701 17.0501 27.0701C17.0401 27.0701 17.0401 27.0801 17.0301 27.0901L16.9501 27.3201C16.9501 27.3301 16.9401 27.3401 16.9201 27.3501C16.9101 27.3501 16.8901 27.3601 16.8801 27.3601H16.6201C16.6101 27.3601 16.6001 27.3601 16.5901 27.3801C16.5901 27.3801 16.5801 27.4001 16.5801 27.4101C16.5801 27.4101 16.5801 27.4201 16.5801 27.4301C16.5801 27.4301 16.5801 27.4401 16.5901 27.4501L16.7901 27.6001C16.8001 27.6001 16.8101 27.6201 16.8201 27.6301C16.8201 27.6401 16.8201 27.6601 16.8201 27.6701C16.8201 27.6701 16.8201 27.6701 16.8201 27.6801L16.7401 27.9101C16.7401 27.9101 16.7401 27.9101 16.7401 27.9201C16.7401 27.9201 16.7401 27.9301 16.7401 27.9401C16.7401 27.9401 16.7401 27.9501 16.7501 27.9501C16.7501 27.9501 16.7501 27.9501 16.7701 27.9601C16.7901 27.9701 16.7801 27.9601 16.7901 27.9601H16.8101L17.0101 27.8101C17.0101 27.8101 17.0301 27.8001 17.0501 27.8001C17.0601 27.8001 17.0801 27.8001 17.0901 27.8101L17.2901 27.9501L17.3101 27.9601C17.3101 27.9601 17.3201 27.9601 17.3301 27.9601C17.3301 27.9601 17.3401 27.9601 17.3501 27.9501C17.3501 27.9501 17.3501 27.9501 17.3601 27.9401C17.3601 27.9401 17.3601 27.9301 17.3601 27.9201C17.3601 27.9201 17.3601 27.9201 17.3601 27.9101L17.2801 27.6801C17.2801 27.6801 17.2801 27.6701 17.2801 27.6601C17.2801 27.6501 17.2801 27.6401 17.2801 27.6301C17.2801 27.6301 17.2901 27.6101 17.3001 27.6101L17.5001 27.4701C17.5001 27.4701 17.5001 27.4601 17.5101 27.4501C17.5101 27.4501 17.5101 27.4401 17.5101 27.4301C17.5101 27.4201 17.5101 27.4101 17.5001 27.4001C17.5001 27.4001 17.4801 27.3901 17.4701 27.3801L17.5401 27.3701Z" fill="#B8C4D0"/>
<path d="M18.8506 27.3701H18.5906C18.5906 27.3701 18.5606 27.3701 18.5506 27.3601C18.5406 27.3601 18.5306 27.3401 18.5206 27.3301L18.4406 27.1001C18.4406 27.1001 18.4406 27.0801 18.4206 27.0701C18.4206 27.0701 18.4006 27.0701 18.3906 27.0701C18.3906 27.0701 18.3706 27.0701 18.3606 27.0701C18.3506 27.0701 18.3506 27.0801 18.3406 27.0901L18.2606 27.3201C18.2606 27.3301 18.2506 27.3401 18.2306 27.3501C18.2206 27.3501 18.2006 27.3601 18.1906 27.3601H17.9306C17.9206 27.3601 17.9106 27.3601 17.9006 27.3801C17.9006 27.3801 17.8906 27.4001 17.8906 27.4101C17.8906 27.4101 17.8906 27.4201 17.8906 27.4301C17.8906 27.4301 17.8906 27.4401 17.9006 27.4501L18.1006 27.6001C18.1106 27.6001 18.1206 27.6201 18.1306 27.6301C18.1306 27.6401 18.1306 27.6601 18.1306 27.6701C18.1306 27.6701 18.1306 27.6701 18.1306 27.6801L18.0506 27.9101C18.0506 27.9101 18.0506 27.9101 18.0506 27.9201C18.0506 27.9201 18.0506 27.9301 18.0506 27.9401C18.0506 27.9401 18.0506 27.9501 18.0606 27.9501C18.0606 27.9501 18.0606 27.9501 18.0806 27.9601C18.1006 27.9701 18.0906 27.9601 18.1006 27.9601H18.1206L18.3206 27.8101C18.3206 27.8101 18.3406 27.8001 18.3606 27.8001C18.3706 27.8001 18.3906 27.8001 18.4006 27.8101L18.6006 27.9501L18.6206 27.9601C18.6206 27.9601 18.6306 27.9601 18.6406 27.9601C18.6406 27.9601 18.6506 27.9601 18.6606 27.9501C18.6606 27.9501 18.6606 27.9501 18.6706 27.9401C18.6706 27.9401 18.6706 27.9301 18.6706 27.9201C18.6706 27.9201 18.6706 27.9201 18.6706 27.9101L18.5906 27.6801C18.5906 27.6801 18.5906 27.6701 18.5906 27.6601C18.5906 27.6501 18.5906 27.6401 18.5906 27.6301C18.5906 27.6301 18.6006 27.6101 18.6106 27.6101L18.8106 27.4701C18.8106 27.4701 18.8106 27.4601 18.8206 27.4501C18.8206 27.4501 18.8206 27.4401 18.8206 27.4301C18.8206 27.4201 18.8206 27.4101 18.8106 27.4001C18.8106 27.4001 18.7906 27.3901 18.7806 27.3801L18.8506 27.3701Z" fill="#B8C4D0"/>
<path d="M18.8506 31.4499H18.5906C18.5906 31.4499 18.5606 31.4499 18.5506 31.4399C18.5406 31.4399 18.5306 31.4199 18.5206 31.4099L18.4406 31.1799C18.4406 31.1799 18.4406 31.1599 18.4206 31.1499C18.4206 31.1499 18.4006 31.1499 18.3906 31.1499C18.3906 31.1499 18.3706 31.1499 18.3606 31.1499C18.3606 31.1499 18.3506 31.1599 18.3406 31.1699L18.2606 31.3999C18.2606 31.4099 18.2506 31.4199 18.2306 31.4299C18.2206 31.4299 18.2006 31.4399 18.1906 31.4399H17.9306C17.9206 31.4399 17.9106 31.4399 17.9006 31.4599C17.9006 31.4599 17.8906 31.4799 17.8906 31.4899C17.8906 31.4899 17.8906 31.4999 17.8906 31.5099C17.8906 31.5199 17.8906 31.5199 17.9006 31.5299L18.1006 31.6799C18.1106 31.6799 18.1206 31.6999 18.1306 31.7099C18.1306 31.7199 18.1306 31.7399 18.1306 31.7499C18.1306 31.7499 18.1306 31.7499 18.1306 31.7599L18.0506 31.9899C18.0506 31.9899 18.0506 31.9899 18.0506 31.9999C18.0506 31.9999 18.0506 32.0099 18.0506 32.0199C18.0506 32.0199 18.0506 32.0299 18.0606 32.0299C18.0606 32.0299 18.0606 32.0299 18.0806 32.0399C18.1006 32.0499 18.0906 32.0399 18.1006 32.0399H18.1206L18.3206 31.8899C18.3206 31.8899 18.3406 31.8799 18.3606 31.8799C18.3706 31.8799 18.3906 31.8799 18.4006 31.8899L18.6006 32.0299L18.6206 32.0399C18.6206 32.0399 18.6306 32.0399 18.6406 32.0399C18.6406 32.0399 18.6506 32.0399 18.6606 32.0299C18.6606 32.0299 18.6606 32.0299 18.6706 32.0199C18.6806 32.0099 18.6706 32.0099 18.6706 31.9999C18.6706 31.9999 18.6706 31.9999 18.6706 31.9899L18.5906 31.7599C18.5906 31.7599 18.5906 31.7499 18.5906 31.7399C18.5906 31.7299 18.5906 31.7199 18.5906 31.7099C18.5906 31.7099 18.6006 31.6899 18.6106 31.6899L18.8106 31.5499C18.8106 31.5499 18.8106 31.5399 18.8206 31.5299C18.8306 31.5199 18.8206 31.5199 18.8206 31.5099C18.8206 31.4999 18.8206 31.4899 18.8106 31.4799C18.8106 31.4799 18.7906 31.4699 18.7806 31.4599L18.8506 31.4499Z" fill="#B8C4D0"/>
<path fill-rule="evenodd" clip-rule="evenodd" d="M18.4104 31.1399V31.8899C18.4004 31.8899 18.3804 31.8899 18.3704 31.8999L18.1704 32.0499L18.1504 32.0599C18.1504 32.0599 18.1404 32.0599 18.1304 32.0599C18.1304 32.0599 18.1204 32.0599 18.1104 32.0499C18.1104 32.0499 18.1104 32.0499 18.1004 32.0399C18.1004 32.0399 18.1004 32.0299 18.1004 32.0199C18.1004 32.0199 18.1004 32.0199 18.1004 32.0099L18.1804 31.7799C18.1804 31.7799 18.1804 31.7799 18.1804 31.7699C18.1804 31.7599 18.1804 31.7399 18.1804 31.7299C18.1804 31.7199 18.1704 31.7099 18.1504 31.6999L17.9504 31.5599C17.9504 31.5599 17.9404 31.5499 17.9404 31.5399C17.9404 31.5299 17.9404 31.5299 17.9404 31.5199C17.9404 31.5099 17.9404 31.4999 17.9504 31.4899C17.9504 31.4899 17.9704 31.4799 17.9804 31.4699H18.2404C18.2404 31.4699 18.2704 31.4699 18.2804 31.4599C18.2904 31.4599 18.3004 31.4399 18.3104 31.4299L18.3904 31.1999C18.3904 31.1999 18.3904 31.1799 18.4104 31.1799C18.4104 31.1799 18.4304 31.1799 18.4404 31.1799C18.4404 31.1799 18.4404 31.1799 18.4504 31.1799L18.4104 31.1399Z" fill="#B8C4D0"/>
<path d="M14.9102 31.4499H14.6502C14.6502 31.4499 14.6202 31.4499 14.6102 31.4399C14.6002 31.4399 14.5902 31.4199 14.5802 31.4099L14.5002 31.1799C14.5002 31.1799 14.5002 31.1599 14.4802 31.1499C14.4802 31.1499 14.4602 31.1499 14.4502 31.1499C14.4502 31.1499 14.4302 31.1499 14.4202 31.1499C14.4202 31.1499 14.4102 31.1599 14.4002 31.1699L14.3202 31.3999C14.3202 31.4099 14.3102 31.4199 14.2902 31.4299C14.2802 31.4299 14.2602 31.4399 14.2502 31.4399H13.9902C13.9802 31.4399 13.9702 31.4399 13.9602 31.4599C13.9602 31.4599 13.9502 31.4799 13.9502 31.4899C13.9502 31.4899 13.9502 31.4999 13.9502 31.5099C13.9502 31.5199 13.9502 31.5199 13.9602 31.5299L14.1602 31.6799L14.1802 31.6999C14.1802 31.6999 14.1802 31.7199 14.1802 31.7299C14.1802 31.7299 14.1802 31.7399 14.1802 31.7499C14.1802 31.7499 14.1802 31.7499 14.1802 31.7599L14.1002 31.9899C14.1002 31.9899 14.1002 31.9899 14.1002 31.9999C14.1002 31.9999 14.1002 32.0099 14.1002 32.0199C14.1002 32.0199 14.1002 32.0299 14.1102 32.0299C14.1102 32.0299 14.1102 32.0299 14.1302 32.0399C14.1302 32.0399 14.1402 32.0399 14.1502 32.0399H14.1702L14.3702 31.8899C14.3702 31.8899 14.3902 31.8799 14.4102 31.8799C14.4202 31.8799 14.4402 31.8799 14.4502 31.8899L14.6502 32.0299L14.6702 32.0399C14.6702 32.0399 14.6802 32.0399 14.6902 32.0399C14.6902 32.0399 14.7002 32.0399 14.7102 32.0399C14.7102 32.0399 14.7102 32.0399 14.7202 32.0299C14.7202 32.0299 14.7202 32.0199 14.7202 32.0099C14.7202 32.0099 14.7202 32.0099 14.7202 31.9999L14.6402 31.7699C14.6402 31.7599 14.6402 31.7399 14.6402 31.7299C14.6402 31.7199 14.6502 31.7099 14.6602 31.6999L14.8602 31.5599C14.8602 31.5599 14.8602 31.5499 14.8702 31.5399C14.8802 31.5299 14.8702 31.5299 14.8702 31.5199C14.8702 31.5099 14.8702 31.4999 14.8602 31.4899C14.8602 31.4899 14.8402 31.4799 14.8302 31.4699L14.9102 31.4499Z" fill="#B8C4D0"/>
<path d="M16.2198 31.4499H15.9598C15.9598 31.4499 15.9298 31.4499 15.9198 31.4399C15.9098 31.4399 15.8998 31.4199 15.8898 31.4099L15.8098 31.1799C15.8098 31.1799 15.8098 31.1599 15.7898 31.1499C15.7898 31.1499 15.7698 31.1499 15.7598 31.1499C15.7598 31.1499 15.7398 31.1499 15.7298 31.1499C15.7298 31.1499 15.7198 31.1599 15.7098 31.1699L15.6298 31.3999C15.6298 31.4099 15.6198 31.4199 15.5998 31.4299C15.5898 31.4299 15.5698 31.4399 15.5598 31.4399H15.2998C15.2898 31.4399 15.2798 31.4399 15.2698 31.4599C15.2698 31.4599 15.2598 31.4799 15.2598 31.4899C15.2598 31.4899 15.2598 31.4999 15.2598 31.5099C15.2598 31.5099 15.2598 31.5199 15.2698 31.5299L15.4698 31.6799C15.4798 31.6799 15.4898 31.6999 15.4998 31.7099C15.4998 31.7199 15.4998 31.7399 15.4998 31.7499C15.4998 31.7499 15.4998 31.7499 15.4998 31.7599L15.4198 31.9899C15.4198 31.9899 15.4198 31.9899 15.4198 31.9999C15.4198 31.9999 15.4198 32.0099 15.4198 32.0199V32.0299C15.4198 32.0299 15.4198 32.0299 15.4398 32.0299C15.4398 32.0299 15.4498 32.0299 15.4598 32.0299H15.4798L15.6798 31.8799C15.6798 31.8799 15.6998 31.8699 15.7198 31.8699C15.7298 31.8699 15.7498 31.8699 15.7598 31.8799L15.9598 32.0199L15.9798 32.0299C15.9798 32.0299 15.9898 32.0299 15.9998 32.0299C15.9998 32.0299 16.0098 32.0299 16.0198 32.0199C16.0198 32.0199 16.0198 32.0199 16.0298 32.0099C16.0298 32.0099 16.0298 31.9999 16.0298 31.9899C16.0298 31.9899 16.0298 31.9899 16.0298 31.9799L15.9498 31.7499C15.9498 31.7499 15.9498 31.7399 15.9498 31.7299C15.9498 31.7199 15.9498 31.7099 15.9498 31.6999C15.9498 31.6899 15.9598 31.6799 15.9698 31.6799L16.1698 31.5399C16.1698 31.5399 16.1698 31.5299 16.1798 31.5199C16.1798 31.5199 16.1798 31.5099 16.1798 31.4999C16.1798 31.4899 16.1798 31.4799 16.1698 31.4699C16.1698 31.4699 16.1498 31.4599 16.1398 31.4499H16.2198Z" fill="#B8C4D0"/>
<path d="M17.5401 31.4499H17.2801C17.2801 31.4499 17.2501 31.4499 17.2401 31.4399C17.2301 31.4399 17.2201 31.4199 17.2101 31.4099L17.1301 31.1799C17.1301 31.1799 17.1301 31.1599 17.1101 31.1499C17.1101 31.1499 17.0901 31.1499 17.0801 31.1499C17.0801 31.1499 17.0601 31.1499 17.0501 31.1499C17.0501 31.1499 17.0401 31.1599 17.0301 31.1699L16.9501 31.3999C16.9501 31.4099 16.9401 31.4199 16.9201 31.4299C16.9101 31.4299 16.8901 31.4399 16.8801 31.4399H16.6201C16.6101 31.4399 16.6001 31.4399 16.5901 31.4599C16.5901 31.4599 16.5801 31.4799 16.5801 31.4899C16.5801 31.4899 16.5801 31.4999 16.5801 31.5099C16.5801 31.5099 16.5801 31.5199 16.5901 31.5299L16.7901 31.6799C16.8001 31.6799 16.8101 31.6999 16.8201 31.7099C16.8201 31.7199 16.8201 31.7399 16.8201 31.7499C16.8201 31.7499 16.8201 31.7499 16.8201 31.7599L16.7401 31.9899C16.7401 31.9899 16.7401 31.9899 16.7401 31.9999C16.7401 31.9999 16.7401 32.0099 16.7401 32.0199C16.7401 32.0199 16.7401 32.0299 16.7501 32.0299C16.7501 32.0299 16.7501 32.0299 16.7701 32.0299C16.7701 32.0299 16.7801 32.0299 16.7901 32.0299H16.8101L17.0101 31.8799C17.0101 31.8799 17.0301 31.8699 17.0501 31.8699C17.0601 31.8699 17.0801 31.8699 17.0901 31.8799L17.2901 32.0199L17.3101 32.0299C17.3101 32.0299 17.3201 32.0299 17.3301 32.0299C17.3301 32.0299 17.3401 32.0299 17.3501 32.0199C17.3501 32.0199 17.3501 32.0199 17.3601 32.0099C17.3601 32.0099 17.3601 31.9999 17.3601 31.9899C17.3601 31.9899 17.3601 31.9899 17.3601 31.9799L17.2801 31.7499C17.2801 31.7499 17.2801 31.7399 17.2801 31.7299C17.2801 31.7199 17.2801 31.7099 17.2801 31.6999C17.2801 31.6999 17.2901 31.6799 17.3001 31.6799L17.5001 31.5399C17.5001 31.5399 17.5001 31.5299 17.5101 31.5199C17.5101 31.5199 17.5101 31.5099 17.5101 31.4999C17.5101 31.4899 17.5101 31.4799 17.5001 31.4699C17.5001 31.4699 17.4801 31.4599 17.4701 31.4499H17.5401Z" fill="#B8C4D0"/>
<path d="M18.8506 35.6999H18.5906C18.5906 35.6999 18.5606 35.6999 18.5506 35.6899C18.5406 35.6899 18.5306 35.6699 18.5206 35.6599L18.4406 35.4299C18.4406 35.4299 18.4406 35.4099 18.4206 35.3999C18.4206 35.3999 18.4006 35.3999 18.3906 35.3999C18.3906 35.3999 18.3706 35.3999 18.3606 35.3999C18.3606 35.3999 18.3506 35.4099 18.3406 35.4199L18.2606 35.6499C18.2606 35.6599 18.2506 35.6699 18.2306 35.6799C18.2206 35.6799 18.2006 35.6899 18.1906 35.6899H17.9306C17.9206 35.6899 17.9106 35.6899 17.9006 35.7099C17.9006 35.7099 17.8906 35.7299 17.8906 35.7399C17.8906 35.7399 17.8906 35.7499 17.8906 35.7599C17.8906 35.7599 17.8906 35.7699 17.9006 35.7799L18.1006 35.9299C18.1106 35.9299 18.1206 35.9499 18.1306 35.9599C18.1306 35.9699 18.1306 35.9899 18.1306 35.9999C18.1306 35.9999 18.1306 35.9999 18.1306 36.0099L18.0506 36.2399C18.0506 36.2399 18.0506 36.2399 18.0506 36.2499C18.0506 36.2499 18.0506 36.2599 18.0506 36.2699C18.0506 36.2699 18.0506 36.2799 18.0606 36.2799C18.0606 36.2799 18.0606 36.2799 18.0806 36.2899C18.1006 36.2999 18.0906 36.2899 18.1006 36.2899H18.1206L18.3206 36.1399C18.3206 36.1399 18.3406 36.1299 18.3606 36.1299C18.3706 36.1299 18.3906 36.1299 18.4006 36.1399L18.6006 36.2799L18.6206 36.2899C18.6206 36.2899 18.6306 36.2899 18.6406 36.2899C18.6406 36.2899 18.6506 36.2899 18.6606 36.2799C18.6606 36.2799 18.6606 36.2799 18.6706 36.2699C18.6806 36.2599 18.6706 36.2599 18.6706 36.2499C18.6706 36.2499 18.6706 36.2499 18.6706 36.2399L18.5906 36.0099C18.5906 36.0099 18.5906 35.9999 18.5906 35.9899C18.5906 35.9799 18.5906 35.9699 18.5906 35.9599C18.5906 35.9599 18.6006 35.9399 18.6106 35.9399L18.8106 35.7999C18.8106 35.7999 18.8106 35.7899 18.8206 35.7799C18.8206 35.7799 18.8206 35.7699 18.8206 35.7599C18.8206 35.7499 18.8206 35.7399 18.8106 35.7299C18.8106 35.7299 18.7906 35.7199 18.7806 35.7099L18.8506 35.6999Z" fill="#B8C4D0"/>
<path fill-rule="evenodd" clip-rule="evenodd" d="M18.4104 35.3899V36.1399C18.4004 36.1399 18.3804 36.1399 18.3704 36.1499L18.1704 36.2999L18.1504 36.3099C18.1504 36.3099 18.1404 36.3099 18.1304 36.3099C18.1304 36.3099 18.1204 36.3099 18.1104 36.2999C18.1104 36.2999 18.1104 36.2999 18.1004 36.2899C18.1004 36.2899 18.1004 36.2799 18.1004 36.2699C18.1004 36.2699 18.1004 36.2699 18.1004 36.2599L18.1804 36.0299C18.1804 36.0299 18.1804 36.0299 18.1804 36.0199C18.1804 36.0099 18.1804 35.9899 18.1804 35.9799C18.1804 35.9699 18.1704 35.9599 18.1504 35.9499L17.9504 35.8099C17.9504 35.8099 17.9404 35.7999 17.9404 35.7899C17.9404 35.7899 17.9404 35.7799 17.9404 35.7699C17.9404 35.7599 17.9404 35.7499 17.9504 35.7399C17.9504 35.7399 17.9704 35.7299 17.9804 35.7199H18.2404C18.2404 35.7199 18.2704 35.7199 18.2804 35.7099C18.2904 35.7099 18.3004 35.6899 18.3104 35.6799L18.3904 35.4499C18.3904 35.4499 18.3904 35.4299 18.4104 35.4299C18.4104 35.4299 18.4304 35.4299 18.4404 35.4299C18.4404 35.4299 18.4404 35.4299 18.4504 35.4299L18.4104 35.3899Z" fill="#B8C4D0"/>
<path d="M14.9102 35.6999H14.6502C14.6502 35.6999 14.6202 35.6999 14.6102 35.6899C14.6002 35.6899 14.5902 35.6699 14.5802 35.6599L14.5002 35.4299C14.5002 35.4299 14.5002 35.4099 14.4802 35.3999C14.4802 35.3999 14.4602 35.3999 14.4502 35.3999C14.4502 35.3999 14.4302 35.3999 14.4202 35.3999C14.4202 35.3999 14.4102 35.4099 14.4002 35.4199L14.3202 35.6499C14.3202 35.6599 14.3102 35.6699 14.2902 35.6799C14.2802 35.6799 14.2602 35.6899 14.2502 35.6899H13.9902C13.9802 35.6899 13.9702 35.6899 13.9602 35.7099C13.9602 35.7099 13.9502 35.7299 13.9502 35.7399C13.9502 35.7399 13.9502 35.7499 13.9502 35.7599C13.9502 35.7599 13.9502 35.7699 13.9602 35.7799L14.1602 35.9299L14.1802 35.9499C14.1802 35.9499 14.1802 35.9699 14.1802 35.9799C14.1802 35.9799 14.1802 35.9899 14.1802 35.9999C14.1802 35.9999 14.1802 35.9999 14.1802 36.0099L14.1002 36.2399C14.1002 36.2399 14.1002 36.2399 14.1002 36.2499C14.1002 36.2499 14.1002 36.2599 14.1002 36.2699C14.1002 36.2699 14.1002 36.2799 14.1102 36.2799C14.1102 36.2799 14.1102 36.2799 14.1302 36.2899C14.1302 36.2899 14.1402 36.2899 14.1502 36.2899H14.1702L14.3702 36.1399C14.3702 36.1399 14.3902 36.1299 14.4102 36.1299C14.4202 36.1299 14.4402 36.1299 14.4502 36.1399L14.6502 36.2799L14.6702 36.2899C14.6702 36.2899 14.6802 36.2899 14.6902 36.2899C14.6902 36.2899 14.7002 36.2899 14.7102 36.2899C14.7102 36.2899 14.7102 36.2899 14.7202 36.2799C14.7202 36.2799 14.7202 36.2699 14.7202 36.2599C14.7202 36.2599 14.7202 36.2599 14.7202 36.2499L14.6402 36.0199C14.6402 36.0099 14.6402 35.9899 14.6402 35.9799C14.6402 35.9699 14.6502 35.9599 14.6602 35.9499L14.8602 35.8099C14.8602 35.8099 14.8602 35.7999 14.8702 35.7899C14.8702 35.7899 14.8702 35.7799 14.8702 35.7699C14.8702 35.7599 14.8702 35.7499 14.8602 35.7399C14.8602 35.7399 14.8402 35.7299 14.8302 35.7199L14.9102 35.6999Z" fill="#B8C4D0"/>
<path d="M16.2198 35.6999H15.9598C15.9598 35.6999 15.9298 35.6999 15.9198 35.6899C15.9098 35.6899 15.8998 35.6699 15.8898 35.6599L15.8098 35.4299C15.8098 35.4299 15.8098 35.4099 15.7898 35.3999C15.7898 35.3999 15.7698 35.3999 15.7598 35.3999C15.7598 35.3999 15.7398 35.3999 15.7298 35.3999C15.7298 35.3999 15.7198 35.4099 15.7098 35.4199L15.6298 35.6499C15.6298 35.6599 15.6198 35.6699 15.5998 35.6799C15.5898 35.6799 15.5698 35.6899 15.5598 35.6899H15.2998C15.2898 35.6899 15.2798 35.6899 15.2698 35.7099C15.2698 35.7099 15.2598 35.7299 15.2598 35.7399C15.2598 35.7399 15.2598 35.7499 15.2598 35.7599C15.2598 35.7599 15.2598 35.7699 15.2698 35.7799L15.4698 35.9299C15.4798 35.9299 15.4898 35.9499 15.4998 35.9599C15.4998 35.9699 15.4998 35.9899 15.4998 35.9999C15.4998 35.9999 15.4998 35.9999 15.4998 36.0099L15.4198 36.2399C15.4198 36.2399 15.4198 36.2399 15.4198 36.2499C15.4198 36.2499 15.4198 36.2599 15.4198 36.2699V36.2799C15.4198 36.2799 15.4198 36.2799 15.4398 36.2799C15.4398 36.2799 15.4498 36.2799 15.4598 36.2799H15.4798L15.6798 36.1299C15.6798 36.1299 15.6998 36.1199 15.7198 36.1199C15.7298 36.1199 15.7498 36.1199 15.7598 36.1299L15.9598 36.2699L15.9798 36.2799C15.9798 36.2799 15.9898 36.2799 15.9998 36.2799C15.9998 36.2799 16.0098 36.2799 16.0198 36.2699C16.0198 36.2699 16.0198 36.2699 16.0298 36.2599C16.0298 36.2599 16.0298 36.2499 16.0298 36.2399C16.0298 36.2399 16.0298 36.2399 16.0298 36.2299L15.9498 35.9999C15.9498 35.9999 15.9498 35.9899 15.9498 35.9799C15.9498 35.9699 15.9498 35.9599 15.9498 35.9499C15.9498 35.9399 15.9598 35.9299 15.9698 35.9299L16.1698 35.7899C16.1698 35.7899 16.1698 35.7799 16.1798 35.7699C16.1798 35.7699 16.1798 35.7599 16.1798 35.7499C16.1798 35.7399 16.1798 35.7299 16.1698 35.7199C16.1698 35.7199 16.1498 35.7099 16.1398 35.6999H16.2198Z" fill="#B8C4D0"/>
<path d="M17.5401 35.6999H17.2801C17.2801 35.6999 17.2501 35.6999 17.2401 35.6899C17.2301 35.6899 17.2201 35.6699 17.2101 35.6599L17.1301 35.4299C17.1301 35.4299 17.1301 35.4099 17.1101 35.3999C17.1101 35.3999 17.0901 35.3999 17.0801 35.3999C17.0801 35.3999 17.0601 35.3999 17.0501 35.3999C17.0501 35.3999 17.0401 35.4099 17.0301 35.4199L16.9501 35.6499C16.9501 35.6599 16.9401 35.6699 16.9201 35.6799C16.9101 35.6799 16.8901 35.6899 16.8801 35.6899H16.6201C16.6101 35.6899 16.6001 35.6899 16.5901 35.7099C16.5901 35.7099 16.5801 35.7299 16.5801 35.7399C16.5801 35.7399 16.5801 35.7499 16.5801 35.7599C16.5801 35.7599 16.5801 35.7699 16.5901 35.7799L16.7901 35.9299C16.8001 35.9299 16.8101 35.9499 16.8201 35.9599C16.8201 35.9699 16.8201 35.9899 16.8201 35.9999C16.8201 35.9999 16.8201 35.9999 16.8201 36.0099L16.7401 36.2399C16.7401 36.2399 16.7401 36.2399 16.7401 36.2499C16.7401 36.2499 16.7401 36.2599 16.7401 36.2699C16.7401 36.2699 16.7401 36.2799 16.7501 36.2799C16.7501 36.2799 16.7501 36.2799 16.7701 36.2799C16.7701 36.2799 16.7801 36.2799 16.7901 36.2799H16.8101L17.0101 36.1299C17.0101 36.1299 17.0301 36.1199 17.0501 36.1199C17.0601 36.1199 17.0801 36.1199 17.0901 36.1299L17.2901 36.2699L17.3101 36.2799C17.3101 36.2799 17.3201 36.2799 17.3301 36.2799C17.3301 36.2799 17.3401 36.2799 17.3501 36.2699C17.3501 36.2699 17.3501 36.2699 17.3601 36.2599C17.3601 36.2599 17.3601 36.2499 17.3601 36.2399C17.3601 36.2399 17.3601 36.2399 17.3601 36.2299L17.2801 35.9999C17.2801 35.9999 17.2801 35.9899 17.2801 35.9799C17.2801 35.9699 17.2801 35.9599 17.2801 35.9499C17.2801 35.9499 17.2901 35.9299 17.3001 35.9299L17.5001 35.7899C17.5001 35.7899 17.5001 35.7799 17.5101 35.7699C17.5101 35.7699 17.5101 35.7599 17.5101 35.7499C17.5101 35.7399 17.5101 35.7299 17.5001 35.7199C17.5001 35.7199 17.4801 35.7099 17.4701 35.6999H17.5401Z" fill="#B8C4D0"/>
<path fill-rule="evenodd" clip-rule="evenodd" d="M22.6299 27.58C22.6299 27.42 22.7599 27.28 22.9299 27.28H23.8199C23.9799 27.28 24.1199 27.41 24.1199 27.58C24.1199 27.75 23.9899 27.88 23.8199 27.88H22.9299C22.7699 27.88 22.6299 27.75 22.6299 27.58Z" fill="#BBC7D2"/>
<path d="M21.8805 27.7901C21.8805 27.6301 21.7905 27.5301 21.6405 27.4701L21.5205 27.4201V27.1401C21.6005 27.1401 21.6805 27.1901 21.7405 27.2601L21.8505 27.0801C21.7805 26.9901 21.6505 26.9501 21.5405 26.9401V26.8401H21.4105V26.9401C21.3105 26.9401 21.2105 26.9801 21.1505 27.0301C21.0805 27.0901 21.0305 27.1701 21.0305 27.2901C21.0305 27.4401 21.1205 27.5101 21.1605 27.5401C21.2005 27.5701 21.2605 27.6001 21.3305 27.6301L21.3905 27.6501V27.9501C21.3105 27.9501 21.1705 27.8901 21.1205 27.8001L20.9805 27.9801C21.0705 28.0901 21.2205 28.1601 21.3605 28.1601V28.2501H21.4905V28.1501C21.5605 28.1501 21.6705 28.1101 21.7305 28.0601C21.8005 28.0001 21.8705 27.9101 21.8705 27.7901H21.8805ZM21.4105 27.1301V27.3801H21.3805C21.3305 27.3601 21.2905 27.3301 21.2905 27.2601C21.2905 27.1901 21.3405 27.1501 21.4105 27.1401V27.1301ZM21.6205 27.8201C21.6205 27.8901 21.5505 27.9401 21.5005 27.9401V27.6801L21.5305 27.6901C21.5905 27.7201 21.6205 27.7501 21.6205 27.8201Z" fill="#BBC7D2"/>
<path fill-rule="evenodd" clip-rule="evenodd" d="M22.6299 31.6699C22.6299 31.5099 22.7599 31.3699 22.9299 31.3699H24.8599C25.0199 31.3699 25.1599 31.4999 25.1599 31.6699C25.1599 31.8399 25.0299 31.9699 24.8599 31.9699H22.9299C22.7699 31.9699 22.6299 31.8399 22.6299 31.6699Z" fill="#BBC7D2"/>
<path d="M21.8805 31.8799C21.8805 31.7199 21.7905 31.6199 21.6405 31.5599L21.5205 31.5099V31.2299C21.6005 31.2299 21.6805 31.2799 21.7405 31.3499L21.8505 31.1699C21.7805 31.0799 21.6505 31.0399 21.5405 31.0299V30.9299H21.4105V31.0299C21.3105 31.0299 21.2105 31.0699 21.1505 31.1199C21.0805 31.1799 21.0305 31.2599 21.0305 31.3799C21.0305 31.5299 21.1205 31.5999 21.1605 31.6299C21.2005 31.6599 21.2605 31.6899 21.3305 31.7199L21.3905 31.7399V32.0399C21.3105 32.0399 21.1705 31.9799 21.1205 31.8899L20.9805 32.0699C21.0705 32.1799 21.2205 32.2499 21.3605 32.2499V32.3399H21.4905V32.2399C21.5605 32.2399 21.6705 32.1999 21.7305 32.1499C21.8005 32.0999 21.8705 31.9999 21.8705 31.8799H21.8805ZM21.4105 31.2199V31.4699H21.3805C21.3305 31.4499 21.2905 31.4199 21.2905 31.3499C21.2905 31.2799 21.3405 31.2399 21.4105 31.2299V31.2199ZM21.6205 31.9099C21.6205 31.9799 21.5505 32.0299 21.5005 32.0299V31.7699L21.5305 31.7799C21.5905 31.8099 21.6205 31.8399 21.6205 31.9099Z" fill="#BBC7D2"/>
<path fill-rule="evenodd" clip-rule="evenodd" d="M22.6299 35.9001C22.6299 35.7401 22.7599 35.6001 22.9299 35.6001H24.5199C24.6799 35.6001 24.8199 35.7301 24.8199 35.9001C24.8199 36.0701 24.6899 36.2001 24.5199 36.2001H22.9299C22.7699 36.2001 22.6299 36.0701 22.6299 35.9001Z" fill="#BBC7D2"/>
<path d="M21.8805 36.1199C21.8805 35.9599 21.7905 35.8599 21.6405 35.7999L21.5205 35.7499V35.4699C21.6005 35.4699 21.6805 35.5199 21.7405 35.5899L21.8505 35.4099C21.7805 35.3199 21.6505 35.2799 21.5405 35.2699V35.1699H21.4105V35.2699C21.3105 35.2699 21.2105 35.3099 21.1505 35.3599C21.0805 35.4199 21.0305 35.4999 21.0305 35.6199C21.0305 35.7699 21.1205 35.8399 21.1605 35.8699C21.2005 35.8999 21.2605 35.9299 21.3305 35.9599L21.3905 35.9799V36.2799C21.3105 36.2799 21.1705 36.2199 21.1205 36.1299L20.9805 36.3099C21.0705 36.4199 21.2205 36.4899 21.3605 36.4899V36.5799H21.4905V36.4799C21.5605 36.4799 21.6705 36.4399 21.7305 36.3899C21.8005 36.3299 21.8705 36.2399 21.8705 36.1199H21.8805ZM21.4105 35.4599V35.7099H21.3805C21.3305 35.6899 21.2905 35.6599 21.2905 35.5899C21.2905 35.5199 21.3405 35.4799 21.4105 35.4699V35.4599ZM21.6205 36.1499C21.6205 36.2199 21.5505 36.2699 21.5005 36.2699V36.0099L21.5305 36.0199C21.5905 36.0499 21.6205 36.0799 21.6205 36.1499Z" fill="#BBC7D2"/>
<path fill-rule="evenodd" clip-rule="evenodd" d="M3.58984 27.4899C3.58984 27.3299 3.71984 27.1899 3.88984 27.1899H4.92984C5.08984 27.1899 5.22984 27.3199 5.22984 27.4899C5.22984 27.6599 5.09984 27.7899 4.92984 27.7899H3.88984C3.72984 27.7899 3.58984 27.6599 3.58984 27.4899Z" fill="#B8C4D0"/>
<path d="M2.85031 27.4299V27.2499H2.68031L2.75031 26.9099H2.55031L2.48031 27.2499H2.29031L2.36031 26.9099H2.16031L2.09031 27.2499H1.88031V27.4299H2.06031L2.02031 27.6499H1.82031V27.8299H1.99031L1.92031 28.1699H2.12031L2.19031 27.8299H2.38031L2.31031 28.1699H2.51031L2.58031 27.8299H2.79031V27.6499H2.61031L2.65031 27.4299H2.85031ZM2.45031 27.4299L2.41031 27.6499H2.22031L2.26031 27.4299H2.45031Z" fill="#B8C4D0"/>
<path fill-rule="evenodd" clip-rule="evenodd" d="M3.58984 31.58C3.58984 31.42 3.71984 31.28 3.88984 31.28H5.69984C5.85984 31.28 5.99984 31.41 5.99984 31.58C5.99984 31.75 5.86984 31.88 5.69984 31.88H3.88984C3.72984 31.88 3.58984 31.75 3.58984 31.58Z" fill="#B8C4D0"/>
<path d="M2.85031 31.51V31.33H2.68031L2.75031 30.99H2.55031L2.48031 31.33H2.29031L2.36031 30.99H2.16031L2.09031 31.33H1.88031V31.51H2.06031L2.02031 31.73H1.82031V31.91H1.99031L1.92031 32.25H2.12031L2.19031 31.91H2.38031L2.31031 32.25H2.51031L2.58031 31.91H2.79031V31.73H2.61031L2.65031 31.51H2.85031ZM2.45031 31.51L2.41031 31.73H2.22031L2.26031 31.51H2.45031Z" fill="#B8C4D0"/>
<path fill-rule="evenodd" clip-rule="evenodd" d="M3.58984 35.8901C3.58984 35.7301 3.71984 35.5901 3.88984 35.5901H4.85984C5.01984 35.5901 5.15984 35.7201 5.15984 35.8901C5.15984 36.0601 5.02984 36.1901 4.85984 36.1901H3.88984C3.72984 36.1901 3.58984 36.0601 3.58984 35.8901Z" fill="#B8C4D0"/>
<path d="M2.85031 35.82V35.64H2.68031L2.75031 35.3H2.55031L2.48031 35.64H2.29031L2.36031 35.3H2.16031L2.09031 35.64H1.88031V35.82H2.06031L2.02031 36.0401H1.82031V36.2201H1.99031L1.92031 36.5601H2.12031L2.19031 36.2201H2.38031L2.31031 36.5601H2.51031L2.58031 36.2201H2.79031V36.0401H2.61031L2.65031 35.82H2.85031ZM2.45031 35.82L2.41031 36.0401H2.22031L2.26031 35.82H2.45031Z" fill="#B8C4D0"/>
<path fill-rule="evenodd" clip-rule="evenodd" d="M7.66992 31.58C7.66992 31.42 7.79992 31.28 7.96992 31.28H11.5899C11.7499 31.28 11.8899 31.41 11.8899 31.58C11.8899 31.75 11.7599 31.88 11.5899 31.88H7.96992C7.80992 31.88 7.66992 31.75 7.66992 31.58Z" fill="#B8C4D0"/>
<path fill-rule="evenodd" clip-rule="evenodd" d="M7.66992 35.9001C7.66992 35.7401 7.79992 35.6001 7.96992 35.6001H11.5899C11.7499 35.6001 11.8899 35.7301 11.8899 35.9001C11.8899 36.0701 11.7599 36.2001 11.5899 36.2001H7.96992C7.80992 36.2001 7.66992 36.0701 7.66992 35.9001Z" fill="#B8C4D0"/>
<path fill-rule="evenodd" clip-rule="evenodd" d="M7.66992 27.5C7.66992 27.34 7.79992 27.2 7.96992 27.2H11.5899C11.7499 27.2 11.8899 27.33 11.8899 27.5C11.8899 27.67 11.7599 27.7999 11.5899 27.7999H7.96992C7.80992 27.7999 7.66992 27.67 7.66992 27.5Z" fill="#B8C4D0"/>
<path fill-rule="evenodd" clip-rule="evenodd" d="M1.3002 20.99C0.970195 20.99 0.700195 21.3 0.700195 21.67V23.35H26.7002V21.67C26.7002 21.29 26.4302 20.99 26.1002 20.99H1.3002ZM2.8802 22.61C3.1502 22.61 3.3702 22.39 3.3702 22.12C3.3702 21.85 3.1502 21.63 2.8802 21.63C2.6102 21.63 2.3902 21.85 2.3902 22.12C2.3902 22.39 2.6102 22.61 2.8802 22.61ZM5.3102 22.12C5.3102 22.39 5.0902 22.61 4.8202 22.61C4.5502 22.61 4.3302 22.39 4.3302 22.12C4.3302 21.85 4.5502 21.63 4.8202 21.63C5.0902 21.63 5.3102 21.85 5.3102 22.12ZM6.7702 22.61C7.0402 22.61 7.2602 22.39 7.2602 22.12C7.2602 21.85 7.0402 21.63 6.7702 21.63C6.5002 21.63 6.2802 21.85 6.2802 22.12C6.2802 22.39 6.5002 22.61 6.7702 22.61Z" fill="#76A5FF"/>
</g>
<path d="M28.2 27.3801C28.2 24.8601 29.18 22.5001 30.95 20.7401C32.1 19.6001 33.49 18.7901 35.01 18.3601V12.1101C35.01 11.8101 34.72 11.5701 34.35 11.5701H7.16C6.8 11.5701 6.5 11.8101 6.5 12.1101V27.4401C6.5 27.7401 6.79 27.9801 7.16 27.9801H28.2V27.3801Z" fill="white"/>
<path d="M6.5 11.5701H35V14.1601H6.5V11.5701Z" fill="#C6DBFF"/>
<path d="M22.0798 15.9899H21.7898C21.7898 15.9899 21.7598 15.9899 21.7498 15.9799C21.7398 15.9799 21.7298 15.9599 21.7198 15.9499L21.6398 15.6999C21.6398 15.6999 21.6298 15.6799 21.6198 15.6699C21.6198 15.6699 21.5998 15.6699 21.5898 15.6699C21.5798 15.6699 21.5698 15.6699 21.5598 15.6799C21.5598 15.6799 21.5498 15.6999 21.5398 15.6999L21.4498 15.9499C21.4498 15.9599 21.4398 15.9799 21.4198 15.9799C21.4098 15.9799 21.3898 15.9899 21.3798 15.9899H21.0898C21.0798 15.9899 21.0698 15.9899 21.0598 16.0099C21.0598 16.0099 21.0498 16.0299 21.0498 16.0399V16.0599C21.0498 16.0599 21.0498 16.0699 21.0698 16.0799L21.2898 16.2399C21.2998 16.2399 21.3098 16.2599 21.3198 16.2699C21.3198 16.2799 21.3198 16.2899 21.3198 16.2999C21.3198 16.2999 21.3198 16.3099 21.3198 16.3199C21.3198 16.3199 21.3198 16.3199 21.3198 16.3299L21.2398 16.5799C21.2398 16.5799 21.2398 16.5799 21.2398 16.5899C21.2398 16.5899 21.2398 16.5999 21.2398 16.6099C21.2398 16.6099 21.2398 16.6199 21.2498 16.6299C21.2498 16.6299 21.2598 16.6299 21.2698 16.6399C21.2698 16.6399 21.2798 16.6399 21.2898 16.6399C21.2898 16.6399 21.3098 16.6399 21.3198 16.6399L21.5398 16.4799C21.5398 16.4799 21.5698 16.4599 21.5798 16.4599C21.5898 16.4599 21.6098 16.4599 21.6198 16.4699L21.8398 16.6299C21.8398 16.6299 21.8598 16.6399 21.8698 16.6399C21.8698 16.6399 21.8798 16.6399 21.8898 16.6399C21.8898 16.6399 21.8998 16.6399 21.9098 16.6299C21.9098 16.6299 21.9098 16.6199 21.9198 16.6099C21.9198 16.6099 21.9198 16.5999 21.9198 16.5899V16.5799L21.8398 16.3299C21.8398 16.3299 21.8398 16.3299 21.8398 16.3199C21.8398 16.3099 21.8398 16.2899 21.8398 16.2799C21.8398 16.2699 21.8498 16.2499 21.8698 16.2499L22.0898 16.0899L22.0998 16.0699C22.0998 16.0699 22.0998 16.0599 22.0998 16.0499C22.0998 16.0399 22.0998 16.0299 22.0898 16.0199C22.0898 16.0199 22.0698 16.0099 22.0598 15.9999L22.0798 15.9899Z" fill="#B8C4D0"/>
<path d="M23.5202 15.9899H23.2302C23.2302 15.9899 23.2002 15.9899 23.1902 15.9799C23.1802 15.9799 23.1702 15.9599 23.1602 15.9499L23.0802 15.6999C23.0802 15.6999 23.0702 15.6799 23.0602 15.6699C23.0602 15.6699 23.0402 15.6699 23.0302 15.6699C23.0202 15.6699 23.0102 15.6699 23.0002 15.6799C23.0002 15.6799 22.9902 15.6999 22.9802 15.6999L22.8902 15.9499C22.8902 15.9599 22.8802 15.9799 22.8602 15.9799C22.8502 15.9799 22.8302 15.9899 22.8202 15.9899H22.5302C22.5202 15.9899 22.5102 15.9899 22.5002 16.0099C22.4902 16.0299 22.4902 16.0299 22.4902 16.0399V16.0599C22.4902 16.0599 22.4902 16.0699 22.5002 16.0799L22.7202 16.2399C22.7302 16.2399 22.7402 16.2599 22.7502 16.2799C22.7502 16.2899 22.7502 16.3099 22.7502 16.3199C22.7502 16.3199 22.7502 16.3199 22.7502 16.3299L22.6702 16.5799C22.6702 16.5799 22.6702 16.5799 22.6702 16.5899C22.6702 16.5899 22.6702 16.5999 22.6702 16.6099C22.6702 16.6099 22.6702 16.6199 22.6802 16.6299C22.6802 16.6299 22.6902 16.6299 22.7002 16.6399C22.7002 16.6399 22.7102 16.6399 22.7202 16.6399C22.7202 16.6399 22.7402 16.6399 22.7502 16.6399L22.9702 16.4799C22.9702 16.4799 23.0002 16.4599 23.0102 16.4599C23.0202 16.4599 23.0402 16.4599 23.0502 16.4699L23.2702 16.6299C23.2702 16.6299 23.2902 16.6399 23.3002 16.6399C23.3002 16.6399 23.3102 16.6399 23.3202 16.6399C23.3202 16.6399 23.3302 16.6399 23.3402 16.6299C23.3402 16.6299 23.3402 16.6199 23.3502 16.6099C23.3502 16.6099 23.3502 16.5999 23.3502 16.5899C23.3502 16.5899 23.3502 16.5799 23.3502 16.5699L23.2702 16.3199C23.2702 16.3199 23.2702 16.3199 23.2702 16.3099C23.2702 16.3099 23.2702 16.2999 23.2702 16.2899C23.2702 16.2799 23.2702 16.2699 23.2702 16.2599C23.2702 16.2499 23.2802 16.2399 23.2902 16.2299L23.5102 16.0699L23.5202 16.0499C23.5202 16.0499 23.5202 16.0399 23.5202 16.0299C23.5202 16.0199 23.5202 16.0099 23.5102 15.9999C23.5102 15.9999 23.4902 15.9799 23.4802 15.9799L23.5202 15.9899Z" fill="#B8C4D0"/>
<path d="M24.9597 15.9899H24.6697C24.6697 15.9899 24.6397 15.9899 24.6297 15.9799C24.6197 15.9799 24.6097 15.9599 24.5997 15.9499L24.5197 15.6999C24.5197 15.6999 24.5097 15.6799 24.4997 15.6699C24.4997 15.6699 24.4797 15.6699 24.4697 15.6699C24.4597 15.6699 24.4497 15.6699 24.4397 15.6799C24.4397 15.6799 24.4297 15.6999 24.4197 15.6999L24.3297 15.9499C24.3297 15.9599 24.3097 15.9799 24.2997 15.9799C24.2897 15.9799 24.2697 15.9899 24.2597 15.9899H23.9697C23.9597 15.9899 23.9497 15.9899 23.9397 16.0099C23.9397 16.0099 23.9297 16.0299 23.9297 16.0399V16.0599C23.9297 16.0599 23.9297 16.0699 23.9497 16.0799L24.1697 16.2399C24.1797 16.2399 24.1897 16.2599 24.1997 16.2799C24.1997 16.2899 24.1997 16.3099 24.1997 16.3199C24.1997 16.3199 24.1997 16.3199 24.1997 16.3299L24.1197 16.5799C24.1197 16.5799 24.1197 16.5799 24.1197 16.5899C24.1197 16.5899 24.1197 16.5999 24.1197 16.6099C24.1197 16.6099 24.1197 16.6199 24.1297 16.6299C24.1297 16.6299 24.1397 16.6299 24.1497 16.6399C24.1497 16.6399 24.1597 16.6399 24.1697 16.6399C24.1697 16.6399 24.1897 16.6399 24.1997 16.6399L24.4197 16.4799C24.4197 16.4799 24.4497 16.4599 24.4597 16.4599C24.4697 16.4599 24.4897 16.4599 24.4997 16.4699L24.7197 16.6299C24.7197 16.6299 24.7397 16.6399 24.7497 16.6399C24.7497 16.6399 24.7597 16.6399 24.7697 16.6399C24.7697 16.6399 24.7797 16.6399 24.7897 16.6299C24.7897 16.6299 24.7897 16.6199 24.7997 16.6099C24.7997 16.6099 24.7997 16.5999 24.7997 16.5899V16.5799L24.7097 16.3299C24.7097 16.3299 24.7097 16.3299 24.7097 16.3199C24.7097 16.3199 24.7097 16.3099 24.7097 16.2999C24.7097 16.2899 24.7097 16.2799 24.7097 16.2699C24.7097 16.2599 24.7197 16.2499 24.7297 16.2399L24.9497 16.0799L24.9597 16.0599C24.9597 16.0599 24.9597 16.0499 24.9597 16.0399C24.9597 16.0299 24.9597 16.0199 24.9497 16.0099C24.9497 16.0099 24.9297 15.9899 24.9197 15.9899H24.9597Z" fill="#B8C4D0"/>
<path d="M26.4001 15.9899H26.1101C26.1101 15.9899 26.0801 15.9899 26.0701 15.9799C26.0601 15.9799 26.0501 15.9599 26.0401 15.9499L25.9601 15.6999C25.9601 15.6999 25.9501 15.6799 25.9401 15.6699C25.9401 15.6699 25.9201 15.6699 25.9101 15.6699C25.9001 15.6699 25.8901 15.6699 25.8801 15.6799C25.8801 15.6799 25.8701 15.6999 25.8601 15.6999L25.7701 15.9499C25.7701 15.9599 25.7501 15.9799 25.7401 15.9799C25.7301 15.9799 25.7101 15.9899 25.7001 15.9899H25.4101C25.4001 15.9899 25.3901 15.9899 25.3801 16.0099C25.3801 16.0099 25.3701 16.0299 25.3701 16.0399V16.0599C25.3701 16.0599 25.3701 16.0699 25.3901 16.0799L25.6101 16.2399C25.6201 16.2399 25.6301 16.2599 25.6401 16.2799C25.6401 16.2899 25.6401 16.3099 25.6401 16.3199C25.6401 16.3199 25.6401 16.3199 25.6401 16.3299L25.5601 16.5799C25.5601 16.5799 25.5601 16.5799 25.5601 16.5899C25.5601 16.5899 25.5601 16.5999 25.5601 16.6099C25.5601 16.6099 25.5601 16.6199 25.5701 16.6299C25.5701 16.6299 25.5801 16.6299 25.5901 16.6399C25.5901 16.6399 25.6001 16.6399 25.6101 16.6399C25.6101 16.6399 25.6301 16.6399 25.6401 16.6399L25.8601 16.4799C25.8601 16.4799 25.8901 16.4599 25.9001 16.4599C25.9201 16.4599 25.9301 16.4599 25.9401 16.4699L26.1601 16.6299C26.1601 16.6299 26.1801 16.6399 26.1901 16.6399C26.1901 16.6399 26.2001 16.6399 26.2101 16.6399C26.2101 16.6399 26.2201 16.6399 26.2301 16.6299C26.2301 16.6299 26.2301 16.6199 26.2401 16.6099C26.2401 16.6099 26.2401 16.5999 26.2401 16.5899C26.2401 16.5899 26.2401 16.5799 26.2401 16.5699L26.1601 16.3199C26.1601 16.3199 26.1601 16.3199 26.1601 16.3099C26.1601 16.3099 26.1601 16.2999 26.1601 16.2899C26.1601 16.2799 26.1601 16.2699 26.1601 16.2599C26.1601 16.2499 26.1701 16.2399 26.1801 16.2299L26.4001 16.0699L26.4101 16.0499C26.4101 16.0499 26.4101 16.0399 26.4101 16.0299C26.4101 16.0199 26.4101 16.0099 26.4001 15.9999C26.4001 15.9999 26.3801 15.9799 26.3701 15.9799L26.4001 15.9899Z" fill="#B8C4D0"/>
<path d="M26.4001 20.4699H26.1101C26.1101 20.4699 26.0801 20.4699 26.0701 20.4599C26.0601 20.4599 26.0501 20.4399 26.0401 20.4299L25.9601 20.1799C25.9601 20.1799 25.9501 20.1599 25.9401 20.1499C25.9401 20.1499 25.9201 20.1499 25.9101 20.1499C25.9001 20.1499 25.8901 20.1499 25.8801 20.1599C25.8801 20.1599 25.8701 20.1699 25.8601 20.1799L25.7701 20.4299C25.7701 20.4399 25.7501 20.4599 25.7401 20.4599C25.7301 20.4599 25.7101 20.4699 25.7001 20.4699H25.4101C25.4001 20.4699 25.3901 20.4699 25.3801 20.4899C25.3801 20.4899 25.3701 20.5099 25.3701 20.5199V20.5399C25.3701 20.5399 25.3701 20.5499 25.3801 20.5599L25.6001 20.7199C25.6101 20.7199 25.6201 20.7399 25.6301 20.7599C25.6301 20.7699 25.6301 20.7899 25.6301 20.7999C25.6301 20.7999 25.6301 20.7999 25.6301 20.8099L25.5501 21.0599C25.5501 21.0599 25.5501 21.0599 25.5501 21.0699C25.5501 21.0699 25.5501 21.0799 25.5501 21.0899C25.5501 21.0899 25.5501 21.0999 25.5601 21.1099C25.5601 21.1099 25.5701 21.1099 25.5801 21.1199C25.5801 21.1199 25.5901 21.1199 25.6001 21.1199C25.6001 21.1199 25.6201 21.1199 25.6301 21.1199L25.8501 20.9599C25.8501 20.9599 25.8801 20.9399 25.8901 20.9399C25.9001 20.9399 25.9201 20.9399 25.9301 20.9499L26.1501 21.1099C26.1501 21.1099 26.1701 21.1199 26.1801 21.1199C26.1801 21.1199 26.1901 21.1199 26.2001 21.1199C26.2001 21.1199 26.2101 21.1199 26.2201 21.1099C26.2201 21.1099 26.2201 21.0999 26.2301 21.0899C26.2301 21.0899 26.2301 21.0799 26.2301 21.0699V21.0599L26.1501 20.8099C26.1501 20.8099 26.1501 20.8099 26.1501 20.7999C26.1501 20.7999 26.1501 20.7899 26.1501 20.7799C26.1501 20.7699 26.1501 20.7599 26.1501 20.7499C26.1501 20.7399 26.1601 20.7299 26.1701 20.7199L26.3901 20.5599L26.4001 20.5399C26.4001 20.5399 26.4001 20.5299 26.4001 20.5199C26.4001 20.5099 26.4001 20.4999 26.3901 20.4899C26.3901 20.4899 26.3701 20.4799 26.3601 20.4699H26.4001Z" fill="#B8C4D0"/>
<path fill-rule="evenodd" clip-rule="evenodd" d="M25.9196 20.1299V20.9499C25.9196 20.9499 25.9196 20.9499 25.9096 20.9499C25.8996 20.9499 25.8796 20.9499 25.8696 20.9599L25.6496 21.1199C25.6496 21.1199 25.6296 21.1299 25.6196 21.1299C25.6196 21.1299 25.6096 21.1299 25.5996 21.1299C25.5996 21.1299 25.5896 21.1299 25.5796 21.1199C25.5796 21.1199 25.5796 21.1099 25.5696 21.0999C25.5696 21.0999 25.5696 21.0899 25.5696 21.0799C25.5696 21.0799 25.5696 21.0799 25.5696 21.0699L25.6496 20.8099C25.6496 20.8099 25.6496 20.8099 25.6496 20.7999C25.6496 20.7899 25.6496 20.7699 25.6496 20.7599C25.6496 20.7499 25.6296 20.7299 25.6196 20.7199L25.3996 20.5599C25.3996 20.5599 25.3896 20.5499 25.3896 20.5399C25.3896 20.5299 25.3896 20.5299 25.3896 20.5199C25.3896 20.5099 25.3896 20.4999 25.3996 20.4899C25.3996 20.4899 25.4196 20.4699 25.4296 20.4699H25.7196C25.7196 20.4699 25.7496 20.4699 25.7596 20.4599C25.7696 20.4599 25.7796 20.4399 25.7896 20.4299L25.8796 20.1799C25.8796 20.1799 25.8796 20.1599 25.8996 20.1599C25.8996 20.1599 25.9196 20.1499 25.9296 20.1499C25.9296 20.1499 25.9296 20.1499 25.9396 20.1499L25.9196 20.1299Z" fill="#B8C4D0"/>
<path d="M22.0798 20.4699H21.7898C21.7898 20.4699 21.7598 20.4699 21.7498 20.4599C21.7398 20.4599 21.7298 20.4399 21.7198 20.4299L21.6398 20.1799C21.6398 20.1799 21.6298 20.1599 21.6198 20.1499C21.6198 20.1499 21.5998 20.1499 21.5898 20.1499C21.5798 20.1499 21.5698 20.1499 21.5598 20.1599C21.5598 20.1599 21.5498 20.1699 21.5398 20.1799L21.4498 20.4299C21.4498 20.4399 21.4398 20.4599 21.4198 20.4599C21.4098 20.4599 21.3898 20.4699 21.3798 20.4699H21.0898C21.0798 20.4699 21.0698 20.4699 21.0598 20.4899C21.0598 20.4899 21.0498 20.5099 21.0498 20.5199V20.5399C21.0498 20.5399 21.0498 20.5499 21.0698 20.5599L21.2898 20.7199C21.2998 20.7199 21.3098 20.7399 21.3198 20.7499C21.3198 20.7599 21.3198 20.7699 21.3198 20.7899C21.3198 20.7899 21.3198 20.7999 21.3198 20.8099C21.3198 20.8099 21.3198 20.8099 21.3198 20.8199L21.2398 21.0699C21.2398 21.0699 21.2398 21.0699 21.2398 21.0799C21.2398 21.0799 21.2398 21.0899 21.2398 21.0999C21.2398 21.0999 21.2398 21.1099 21.2498 21.1199C21.2498 21.1199 21.2598 21.1199 21.2698 21.1299C21.2698 21.1299 21.2798 21.1299 21.2898 21.1299C21.2898 21.1299 21.3098 21.1299 21.3198 21.1299L21.5398 20.9699C21.5398 20.9699 21.5698 20.9499 21.5798 20.9499C21.5898 20.9499 21.6098 20.9499 21.6198 20.9599L21.8398 21.1199C21.8398 21.1199 21.8598 21.1299 21.8698 21.1299C21.8698 21.1299 21.8798 21.1299 21.8898 21.1299C21.8898 21.1299 21.8998 21.1299 21.9098 21.1199C21.9098 21.1199 21.9098 21.1099 21.9198 21.0999C21.9198 21.0999 21.9198 21.0899 21.9198 21.0799V21.0699L21.8398 20.8199C21.8398 20.8199 21.8398 20.8199 21.8398 20.8099C21.8398 20.7999 21.8398 20.7799 21.8398 20.7699C21.8398 20.7599 21.8498 20.7399 21.8698 20.7399L22.0898 20.5799L22.0998 20.5599C22.0998 20.5599 22.0998 20.5499 22.0998 20.5399C22.0998 20.5299 22.0998 20.5199 22.0898 20.5099C22.0898 20.5099 22.0698 20.4999 22.0598 20.4899L22.0798 20.4699Z" fill="#B8C4D0"/>
<path d="M23.5202 20.4699H23.2302C23.2302 20.4699 23.2002 20.4699 23.1902 20.4599C23.1802 20.4599 23.1702 20.4399 23.1602 20.4299L23.0802 20.1799C23.0802 20.1799 23.0702 20.1599 23.0602 20.1499C23.0602 20.1499 23.0402 20.1499 23.0302 20.1499C23.0202 20.1499 23.0102 20.1499 23.0002 20.1599C23.0002 20.1599 22.9902 20.1699 22.9802 20.1799L22.8902 20.4299C22.8902 20.4399 22.8802 20.4599 22.8602 20.4599C22.8502 20.4599 22.8302 20.4699 22.8202 20.4699H22.5302C22.5202 20.4699 22.5102 20.4699 22.5002 20.4899C22.5002 20.4899 22.4902 20.5099 22.4902 20.5199V20.5399C22.4902 20.5399 22.4902 20.5499 22.5002 20.5599L22.7202 20.7199C22.7302 20.7199 22.7402 20.7399 22.7502 20.7599C22.7502 20.7699 22.7502 20.7899 22.7502 20.7999C22.7502 20.7999 22.7502 20.7999 22.7502 20.8099L22.6702 21.0599C22.6702 21.0599 22.6702 21.0599 22.6702 21.0699C22.6702 21.0699 22.6702 21.0799 22.6702 21.0899C22.6702 21.0899 22.6702 21.0999 22.6802 21.1099C22.6802 21.1099 22.6902 21.1099 22.7002 21.1199C22.7002 21.1199 22.7102 21.1199 22.7202 21.1199C22.7202 21.1199 22.7402 21.1199 22.7502 21.1199L22.9702 20.9599C22.9702 20.9599 23.0002 20.9399 23.0102 20.9399C23.0202 20.9399 23.0402 20.9399 23.0502 20.9499L23.2702 21.1099C23.2702 21.1099 23.2902 21.1199 23.3002 21.1199C23.3002 21.1199 23.3102 21.1199 23.3202 21.1199C23.3202 21.1199 23.3302 21.1199 23.3402 21.1099C23.3402 21.1099 23.3402 21.0999 23.3502 21.0899C23.3502 21.0899 23.3502 21.0799 23.3502 21.0699C23.3502 21.0699 23.3502 21.0699 23.3502 21.0599L23.2702 20.8099C23.2702 20.8099 23.2702 20.8099 23.2702 20.7999C23.2702 20.7999 23.2702 20.7899 23.2702 20.7799C23.2702 20.7699 23.2702 20.7599 23.2702 20.7499C23.2702 20.7399 23.2802 20.7299 23.2902 20.7199L23.5102 20.5599L23.5202 20.5399C23.5202 20.5399 23.5202 20.5299 23.5202 20.5199C23.5202 20.5099 23.5202 20.4999 23.5102 20.4899C23.5102 20.4899 23.4902 20.4699 23.4802 20.4699H23.5202Z" fill="#B8C4D0"/>
<path d="M24.9597 20.4699H24.6697C24.6697 20.4699 24.6397 20.4699 24.6297 20.4599C24.6197 20.4599 24.6097 20.4399 24.5997 20.4299L24.5197 20.1799C24.5197 20.1799 24.5097 20.1599 24.4997 20.1499C24.4997 20.1499 24.4797 20.1499 24.4697 20.1499C24.4597 20.1499 24.4497 20.1499 24.4397 20.1599C24.4397 20.1599 24.4297 20.1699 24.4197 20.1799L24.3297 20.4299C24.3297 20.4399 24.3097 20.4599 24.2997 20.4599C24.2897 20.4599 24.2697 20.4699 24.2597 20.4699H23.9697C23.9597 20.4699 23.9497 20.4699 23.9397 20.4899C23.9397 20.4899 23.9297 20.5099 23.9297 20.5199V20.5399C23.9297 20.5399 23.9297 20.5499 23.9497 20.5599L24.1697 20.7199C24.1797 20.7199 24.1897 20.7399 24.1997 20.7599C24.1997 20.7699 24.1997 20.7899 24.1997 20.7999C24.1997 20.7999 24.1997 20.7999 24.1997 20.8099L24.1197 21.0599C24.1197 21.0599 24.1197 21.0599 24.1197 21.0699C24.1197 21.0699 24.1197 21.0799 24.1197 21.0899C24.1197 21.0899 24.1197 21.0999 24.1297 21.1099C24.1297 21.1099 24.1397 21.1099 24.1497 21.1199C24.1497 21.1199 24.1597 21.1199 24.1697 21.1199C24.1697 21.1199 24.1897 21.1199 24.1997 21.1199L24.4197 20.9599C24.4197 20.9599 24.4497 20.9399 24.4597 20.9399C24.4697 20.9399 24.4897 20.9399 24.4997 20.9499L24.7197 21.1099C24.7197 21.1099 24.7397 21.1199 24.7497 21.1199C24.7497 21.1199 24.7597 21.1199 24.7697 21.1199C24.7697 21.1199 24.7797 21.1199 24.7897 21.1099C24.7897 21.1099 24.7897 21.0999 24.7997 21.0899C24.7997 21.0899 24.7997 21.0799 24.7997 21.0699C24.7997 21.0699 24.7997 21.0699 24.7997 21.0599L24.7197 20.8099C24.7197 20.8099 24.7197 20.8099 24.7197 20.7999C24.7197 20.7999 24.7197 20.7899 24.7197 20.7799C24.7197 20.7699 24.7197 20.7599 24.7197 20.7499C24.7197 20.7399 24.7297 20.7299 24.7397 20.7199L24.9597 20.5599L24.9697 20.5399C24.9697 20.5399 24.9697 20.5299 24.9697 20.5199C24.9697 20.5099 24.9697 20.4999 24.9597 20.4899C24.9597 20.4899 24.9397 20.4799 24.9297 20.4699H24.9597Z" fill="#B8C4D0"/>
<path d="M26.4001 25.12H26.1101C26.1101 25.12 26.0801 25.12 26.0701 25.11C26.0601 25.11 26.0501 25.09 26.0401 25.07L25.9601 24.82C25.9601 24.82 25.9501 24.8 25.9401 24.79C25.9401 24.79 25.9201 24.79 25.9101 24.79C25.9001 24.79 25.8901 24.79 25.8801 24.8C25.8801 24.8 25.8701 24.81 25.8601 24.82L25.7701 25.07C25.7701 25.08 25.7501 25.1 25.7401 25.1C25.7301 25.1 25.7101 25.11 25.7001 25.11H25.4101C25.4001 25.11 25.3901 25.11 25.3801 25.13C25.3801 25.13 25.3701 25.15 25.3701 25.16V25.18C25.3701 25.18 25.3701 25.19 25.3801 25.2L25.6001 25.36C25.6101 25.36 25.6201 25.38 25.6301 25.4C25.6301 25.41 25.6301 25.43 25.6301 25.44C25.6301 25.44 25.6301 25.44 25.6301 25.45L25.5501 25.7C25.5501 25.7 25.5501 25.7 25.5501 25.71C25.5501 25.71 25.5501 25.72 25.5501 25.73C25.5501 25.73 25.5501 25.74 25.5601 25.75C25.5701 25.76 25.5701 25.75 25.5801 25.76C25.5801 25.76 25.5901 25.76 25.6001 25.76C25.6001 25.76 25.6201 25.76 25.6301 25.76L25.8501 25.6C25.8501 25.6 25.8801 25.58 25.8901 25.58C25.9001 25.58 25.9201 25.58 25.9301 25.59L26.1501 25.75C26.1501 25.75 26.1701 25.76 26.1801 25.76C26.1801 25.76 26.1901 25.76 26.2001 25.76C26.2001 25.76 26.2101 25.76 26.2201 25.75C26.2201 25.75 26.2201 25.74 26.2301 25.73C26.2301 25.73 26.2301 25.72 26.2301 25.71V25.7L26.1501 25.45C26.1501 25.45 26.1501 25.45 26.1501 25.44C26.1501 25.44 26.1501 25.43 26.1501 25.42C26.1501 25.41 26.1501 25.4 26.1501 25.39C26.1501 25.38 26.1601 25.37 26.1701 25.36L26.3901 25.2L26.4001 25.18C26.4001 25.18 26.4001 25.17 26.4001 25.16C26.4001 25.15 26.4001 25.14 26.3901 25.13C26.3901 25.13 26.3701 25.12 26.3601 25.11L26.4001 25.12Z" fill="#B8C4D0"/>
<path fill-rule="evenodd" clip-rule="evenodd" d="M25.9196 24.77V25.59C25.9196 25.59 25.9196 25.59 25.9096 25.59C25.8996 25.59 25.8796 25.59 25.8696 25.6L25.6496 25.76C25.6496 25.76 25.6296 25.77 25.6196 25.77C25.6196 25.77 25.6096 25.77 25.5996 25.77C25.5996 25.77 25.5896 25.77 25.5796 25.76C25.5696 25.75 25.5796 25.75 25.5696 25.74C25.5696 25.74 25.5696 25.73 25.5696 25.72C25.5696 25.72 25.5696 25.72 25.5696 25.71L25.6496 25.45C25.6496 25.45 25.6496 25.45 25.6496 25.44C25.6496 25.43 25.6496 25.41 25.6496 25.4C25.6496 25.39 25.6296 25.37 25.6196 25.36L25.3996 25.2C25.3996 25.2 25.3896 25.19 25.3896 25.18C25.3896 25.18 25.3896 25.17 25.3896 25.16C25.3896 25.15 25.3896 25.14 25.3996 25.13C25.3996 25.13 25.4196 25.11 25.4296 25.11H25.7196C25.7196 25.11 25.7496 25.11 25.7596 25.1C25.7696 25.1 25.7796 25.08 25.7896 25.07L25.8796 24.82C25.8796 24.82 25.8796 24.8 25.8996 24.8C25.8996 24.8 25.9196 24.8 25.9296 24.79C25.9296 24.79 25.9296 24.79 25.9396 24.79L25.9196 24.77Z" fill="#B8C4D0"/>
<path d="M22.0798 25.12H21.7898C21.7898 25.12 21.7598 25.12 21.7498 25.11C21.7398 25.11 21.7298 25.09 21.7198 25.07L21.6398 24.82C21.6398 24.82 21.6298 24.8 21.6198 24.79C21.6198 24.79 21.5998 24.79 21.5898 24.79C21.5798 24.79 21.5698 24.79 21.5598 24.8C21.5598 24.8 21.5498 24.81 21.5398 24.82L21.4498 25.07C21.4498 25.08 21.4398 25.1 21.4198 25.1C21.4098 25.1 21.3898 25.11 21.3798 25.11H21.0898C21.0798 25.11 21.0698 25.11 21.0598 25.13C21.0598 25.13 21.0498 25.15 21.0498 25.16V25.18C21.0498 25.18 21.0498 25.19 21.0698 25.2L21.2898 25.36C21.2998 25.36 21.3098 25.38 21.3198 25.39C21.3198 25.4 21.3198 25.41 21.3198 25.42C21.3198 25.42 21.3198 25.43 21.3198 25.44C21.3198 25.44 21.3198 25.44 21.3198 25.45L21.2398 25.7C21.2398 25.7 21.2398 25.7 21.2398 25.71C21.2398 25.71 21.2398 25.72 21.2398 25.73C21.2398 25.73 21.2398 25.74 21.2498 25.75C21.2498 25.75 21.2598 25.75 21.2698 25.76C21.2698 25.76 21.2798 25.76 21.2898 25.76C21.2898 25.76 21.3098 25.76 21.3198 25.76L21.5398 25.6C21.5398 25.6 21.5698 25.58 21.5798 25.58C21.5898 25.58 21.6098 25.58 21.6198 25.59L21.8398 25.75C21.8398 25.75 21.8598 25.76 21.8698 25.76C21.8698 25.76 21.8798 25.76 21.8898 25.76C21.8898 25.76 21.8998 25.76 21.9098 25.75C21.9098 25.75 21.9098 25.74 21.9198 25.73C21.9198 25.73 21.9198 25.72 21.9198 25.71V25.7L21.8398 25.45C21.8398 25.45 21.8398 25.45 21.8398 25.44C21.8398 25.43 21.8398 25.41 21.8398 25.4C21.8398 25.39 21.8498 25.37 21.8698 25.37L22.0898 25.21L22.0998 25.19C22.0998 25.19 22.0998 25.18 22.0998 25.17C22.0998 25.16 22.0998 25.15 22.0898 25.14C22.0898 25.14 22.0698 25.13 22.0598 25.12H22.0798Z" fill="#B8C4D0"/>
<path d="M23.5202 25.12H23.2302C23.2302 25.12 23.2002 25.12 23.1902 25.11C23.1802 25.11 23.1702 25.09 23.1602 25.07L23.0802 24.82C23.0802 24.82 23.0702 24.8 23.0602 24.79C23.0602 24.79 23.0402 24.79 23.0302 24.79C23.0202 24.79 23.0102 24.79 23.0002 24.8C23.0002 24.8 22.9902 24.81 22.9802 24.82L22.8902 25.07C22.8902 25.08 22.8802 25.1 22.8602 25.1C22.8502 25.1 22.8302 25.11 22.8202 25.11H22.5302C22.5202 25.11 22.5102 25.11 22.5002 25.13C22.4902 25.15 22.4902 25.15 22.4902 25.16V25.18C22.4902 25.18 22.4902 25.19 22.5002 25.2L22.7202 25.36C22.7302 25.36 22.7402 25.38 22.7502 25.4C22.7502 25.41 22.7502 25.43 22.7502 25.44C22.7502 25.44 22.7502 25.44 22.7502 25.45L22.6702 25.7C22.6702 25.7 22.6702 25.7 22.6702 25.71C22.6702 25.71 22.6702 25.72 22.6702 25.73C22.6702 25.73 22.6702 25.74 22.6802 25.75C22.6802 25.75 22.6902 25.75 22.7002 25.76C22.7002 25.76 22.7102 25.76 22.7202 25.76C22.7202 25.76 22.7402 25.76 22.7502 25.76L22.9702 25.6C22.9702 25.6 23.0002 25.58 23.0102 25.58C23.0202 25.58 23.0402 25.58 23.0502 25.59L23.2702 25.75C23.2702 25.75 23.2902 25.76 23.3002 25.76C23.3002 25.76 23.3102 25.76 23.3202 25.76C23.3302 25.76 23.3302 25.76 23.3402 25.75C23.3402 25.75 23.3402 25.74 23.3502 25.73C23.3502 25.73 23.3502 25.72 23.3502 25.71V25.7L23.2702 25.45C23.2702 25.45 23.2702 25.45 23.2702 25.44C23.2702 25.44 23.2702 25.43 23.2702 25.42C23.2702 25.41 23.2702 25.4 23.2702 25.39C23.2702 25.38 23.2802 25.37 23.2902 25.36L23.5102 25.2L23.5202 25.18C23.5202 25.18 23.5202 25.17 23.5202 25.16C23.5202 25.15 23.5202 25.14 23.5102 25.13C23.5102 25.13 23.4902 25.12 23.4802 25.11L23.5202 25.12Z" fill="#B8C4D0"/>
<path d="M24.9597 25.12H24.6697C24.6697 25.12 24.6397 25.12 24.6297 25.11C24.6197 25.11 24.6097 25.09 24.5997 25.07L24.5197 24.82C24.5197 24.82 24.5097 24.8 24.4997 24.79C24.4997 24.79 24.4797 24.79 24.4697 24.79C24.4597 24.79 24.4497 24.79 24.4397 24.8C24.4397 24.8 24.4297 24.81 24.4197 24.82L24.3297 25.07C24.3297 25.08 24.3097 25.1 24.2997 25.1C24.2897 25.1 24.2697 25.11 24.2597 25.11H23.9697C23.9597 25.11 23.9497 25.11 23.9397 25.13C23.9397 25.13 23.9297 25.15 23.9297 25.16V25.18C23.9297 25.18 23.9297 25.19 23.9497 25.2L24.1697 25.36C24.1797 25.36 24.1897 25.38 24.1997 25.4C24.1997 25.41 24.1997 25.43 24.1997 25.44C24.1997 25.44 24.1997 25.44 24.1997 25.45L24.1197 25.7C24.1197 25.7 24.1197 25.7 24.1197 25.71C24.1197 25.71 24.1197 25.72 24.1197 25.73C24.1197 25.73 24.1197 25.74 24.1297 25.75C24.1297 25.75 24.1397 25.75 24.1497 25.76C24.1497 25.76 24.1597 25.76 24.1697 25.76C24.1697 25.76 24.1897 25.76 24.1997 25.76L24.4197 25.6C24.4197 25.6 24.4497 25.58 24.4597 25.58C24.4697 25.58 24.4897 25.58 24.4997 25.59L24.7197 25.75C24.7197 25.75 24.7397 25.76 24.7497 25.76C24.7497 25.76 24.7597 25.76 24.7697 25.76C24.7697 25.76 24.7797 25.76 24.7897 25.75C24.7897 25.75 24.7897 25.74 24.7997 25.73C24.7997 25.73 24.7997 25.72 24.7997 25.71V25.7L24.7197 25.45C24.7197 25.45 24.7197 25.45 24.7197 25.44C24.7197 25.44 24.7197 25.43 24.7197 25.42C24.7197 25.41 24.7197 25.4 24.7197 25.39C24.7197 25.38 24.7297 25.37 24.7397 25.36L24.9597 25.2L24.9697 25.18C24.9697 25.18 24.9697 25.17 24.9697 25.16C24.9697 25.15 24.9697 25.14 24.9597 25.13C24.9597 25.13 24.9397 25.12 24.9297 25.11L24.9597 25.12Z" fill="#B8C4D0"/>
<path fill-rule="evenodd" clip-rule="evenodd" d="M30.5498 16.2099C30.5498 16.0299 30.6998 15.8799 30.8798 15.8799H31.8598C32.0398 15.8799 32.1898 16.0299 32.1898 16.2099C32.1898 16.3899 32.0398 16.5399 31.8598 16.5399H30.8798C30.6998 16.5399 30.5498 16.3899 30.5498 16.2099Z" fill="#BBC7D2"/>
<path d="M29.7305 16.4399C29.7305 16.2699 29.6305 16.1599 29.4605 16.0899L29.3305 16.0399V15.7299C29.4105 15.7299 29.5005 15.7899 29.5705 15.8599L29.6905 15.6699C29.6105 15.5799 29.4705 15.5199 29.3505 15.5099V15.3999H29.2105V15.4999C29.1005 15.4999 28.9905 15.5399 28.9205 15.5999C28.8505 15.6599 28.7905 15.7499 28.7905 15.8799C28.7905 16.0399 28.8905 16.1299 28.9305 16.1599C28.9705 16.1899 29.0305 16.2199 29.1105 16.2599L29.1805 16.2899V16.6099C29.0905 16.6099 28.9405 16.5399 28.8805 16.4499L28.7305 16.6399C28.8305 16.7599 29.0005 16.8299 29.1505 16.8399V16.9399H29.2905V16.8299C29.3705 16.8299 29.4905 16.7899 29.5605 16.7299C29.6405 16.6699 29.7105 16.5699 29.7105 16.4299L29.7305 16.4399ZM29.2205 15.7199V15.9899H29.1905C29.1405 15.9699 29.0905 15.9299 29.0905 15.8599C29.0905 15.7799 29.1405 15.7399 29.2205 15.7299V15.7199ZM29.4505 16.4799C29.4505 16.5599 29.3805 16.6099 29.3205 16.6099V16.3199L29.3605 16.3399C29.4205 16.3699 29.4605 16.4099 29.4605 16.4799H29.4505Z" fill="#BBC7D2"/>
<path d="M29.7305 20.9299C29.7305 20.7599 29.6305 20.6499 29.4605 20.5799L29.3305 20.5299V20.2199C29.4105 20.2199 29.5005 20.2799 29.5705 20.3499L29.6905 20.1599C29.6105 20.0699 29.4705 20.0099 29.3505 19.9999V19.8899H29.2105V19.9999C29.1005 19.9999 28.9905 20.0399 28.9205 20.0999C28.8505 20.1599 28.7905 20.2499 28.7905 20.3799C28.7905 20.5399 28.8905 20.6299 28.9305 20.6599C28.9705 20.6899 29.0305 20.7199 29.1105 20.7599L29.1805 20.7899V21.1099C29.0905 21.1099 28.9405 21.0399 28.8805 20.9499L28.7305 21.1399C28.8305 21.2599 29.0005 21.3299 29.1505 21.3399V21.4399H29.2905V21.3299C29.3705 21.3299 29.4905 21.2899 29.5605 21.2299C29.6405 21.1699 29.7105 21.0699 29.7105 20.9299H29.7305ZM29.2205 20.2099V20.4799H29.1905C29.1405 20.4599 29.0905 20.4199 29.0905 20.3499C29.0905 20.2699 29.1405 20.2299 29.2205 20.2199V20.2099ZM29.4505 20.9699C29.4505 21.0499 29.3805 21.0999 29.3205 21.0999V20.8099L29.3605 20.8299C29.4205 20.8599 29.4605 20.8999 29.4605 20.9699H29.4505Z" fill="#BBC7D2"/>
<path fill-rule="evenodd" clip-rule="evenodd" d="M30.5498 25.35C30.5498 25.17 30.6998 25.02 30.8798 25.02H32.6298C32.8098 25.02 32.9598 25.17 32.9598 25.35C32.9598 25.53 32.8098 25.68 32.6298 25.68H30.8798C30.6998 25.68 30.5498 25.53 30.5498 25.35Z" fill="#BBC7D2"/>
<path fill-rule="evenodd" clip-rule="evenodd" d="M9.66992 16.12C9.66992 15.94 9.81992 15.79 9.99992 15.79H11.1399C11.3199 15.79 11.4699 15.94 11.4699 16.12C11.4699 16.3 11.3199 16.45 11.1399 16.45H9.99992C9.81992 16.45 9.66992 16.3 9.66992 16.12Z" fill="#B8C4D0"/>
<path d="M8.84996 16.05V15.85H8.66996L8.73996 15.47H8.51996L8.44996 15.85H8.23996L8.30996 15.47H8.08996L8.01996 15.85H7.77996V16.05H7.97996L7.92996 16.29H7.70996V16.49H7.88996L7.81996 16.87H8.03996L8.10996 16.49H8.31996L8.24996 16.87H8.46996L8.53996 16.49H8.76996V16.29H8.56996L8.61996 16.05H8.83996H8.84996ZM8.40996 16.05L8.35996 16.29H8.14996L8.19996 16.05H8.40996Z" fill="#B8C4D0"/>
<path fill-rule="evenodd" clip-rule="evenodd" d="M9.66992 20.61C9.66992 20.43 9.81992 20.28 9.99992 20.28H11.9799C12.1599 20.28 12.3099 20.43 12.3099 20.61C12.3099 20.79 12.1599 20.94 11.9799 20.94H9.99992C9.81992 20.94 9.66992 20.79 9.66992 20.61Z" fill="#B8C4D0"/>
<path d="M8.84996 20.53V20.33H8.66996L8.73996 19.95H8.51996L8.44996 20.33H8.23996L8.30996 19.95H8.08996L8.01996 20.33H7.77996V20.53H7.97996L7.92996 20.77H7.70996V20.9699H7.88996L7.81996 21.35H8.03996L8.10996 20.9699H8.31996L8.24996 21.35H8.46996L8.53996 20.9699H8.76996V20.77H8.56996L8.61996 20.53H8.83996H8.84996ZM8.40996 20.53L8.35996 20.77H8.14996L8.19996 20.53H8.40996Z" fill="#B8C4D0"/>
<path fill-rule="evenodd" clip-rule="evenodd" d="M9.66992 25.33C9.66992 25.15 9.81992 25 9.99992 25H11.0599C11.2399 25 11.3899 25.15 11.3899 25.33C11.3899 25.51 11.2399 25.66 11.0599 25.66H9.99992C9.81992 25.66 9.66992 25.51 9.66992 25.33Z" fill="#B8C4D0"/>
<path d="M8.84996 25.2599V25.0599H8.66996L8.73996 24.6799H8.51996L8.44996 25.0599H8.23996L8.30996 24.6799H8.08996L8.01996 25.0599H7.77996V25.2599H7.97996L7.92996 25.4999H7.70996V25.6999H7.88996L7.81996 26.0799H8.03996L8.10996 25.6999H8.31996L8.24996 26.0799H8.46996L8.53996 25.6999H8.76996V25.4999H8.56996L8.61996 25.2599H8.83996H8.84996ZM8.40996 25.2599L8.35996 25.4999H8.14996L8.19996 25.2599H8.40996Z" fill="#B8C4D0"/>
<path fill-rule="evenodd" clip-rule="evenodd" d="M14.1504 20.61C14.1504 20.43 14.3004 20.28 14.4804 20.28H18.4504C18.6304 20.28 18.7804 20.43 18.7804 20.61C18.7804 20.79 18.6304 20.94 18.4504 20.94H14.4804C14.3004 20.94 14.1504 20.79 14.1504 20.61Z" fill="#B8C4D0"/>
<path fill-rule="evenodd" clip-rule="evenodd" d="M14.1504 25.35C14.1504 25.17 14.3004 25.02 14.4804 25.02H18.4504C18.6304 25.02 18.7804 25.17 18.7804 25.35C18.7804 25.53 18.6304 25.68 18.4504 25.68H14.4804C14.3004 25.68 14.1504 25.53 14.1504 25.35Z" fill="#B8C4D0"/>
<path fill-rule="evenodd" clip-rule="evenodd" d="M14.1504 16.13C14.1504 15.95 14.3004 15.8 14.4804 15.8H18.4504C18.6304 15.8 18.7804 15.95 18.7804 16.13C18.7804 16.31 18.6304 16.46 18.4504 16.46H14.4804C14.3004 16.46 14.1504 16.31 14.1504 16.13Z" fill="#B8C4D0"/>
<path fill-rule="evenodd" clip-rule="evenodd" d="M7.16 9C6.8 9 6.5 9.33 6.5 9.75V11.59H35V9.75C35 9.34 34.71 9 34.34 9H7.16ZM8.89 10.78C9.18 10.78 9.42 10.54 9.42 10.25C9.42 9.96 9.18 9.72 8.89 9.72C8.6 9.72 8.36 9.96 8.36 10.25C8.36 10.54 8.6 10.78 8.89 10.78ZM11.56 10.25C11.56 10.54 11.32 10.78 11.03 10.78C10.74 10.78 10.5 10.54 10.5 10.25C10.5 9.96 10.74 9.72 11.03 9.72C11.32 9.72 11.56 9.96 11.56 10.25ZM13.16 10.78C13.45 10.78 13.69 10.54 13.69 10.25C13.69 9.96 13.45 9.72 13.16 9.72C12.87 9.72 12.63 9.96 12.63 10.25C12.63 10.54 12.87 10.78 13.16 10.78Z" fill="#76A5FF"/>
<path d="M44.97 33.03V27.38C44.97 25.42 44.2 23.56 42.81 22.16C41.43 20.77 39.57 20 37.59 20C35.61 20 33.76 20.77 32.36 22.16C30.97 23.54 30.2 25.4 30.2 27.38H32.48C32.48 26.04 33.03 24.72 33.98 23.77C34.93 22.82 36.25 22.27 37.59 22.27C38.93 22.27 40.25 22.82 41.2 23.77C42.15 24.71 42.7 26.03 42.7 27.38V33.03H28.5V46.66H46.67V33.03H44.97ZM35.7 45.09L37.18 40.86L35.56 40.98L36.56 35.84L38.86 35.67L37.74 39.19L40.04 39.02L35.7 45.09Z" fill="#FECE4D"/>
<path fill-rule="evenodd" clip-rule="evenodd" d="M30.74 20.9701C30.81 20.9001 30.87 20.8201 30.95 20.7401C31.08 20.6101 31.23 20.4901 31.36 20.3701H30.87C30.69 20.3701 30.54 20.5201 30.54 20.7001C30.54 20.8301 30.63 20.9201 30.74 20.9701Z" fill="#BBC7D2"/>
</g>
</g>
<defs>
<clipPath id="clip0_51287_4532">
<rect width="47" height="47" fill="white" transform="translate(0.5)"/>
</clipPath>
<clipPath id="clip1_51287_4532">
<rect width="47" height="47" fill="white" transform="translate(0.5)"/>
</clipPath>
</defs>
</svg>
