<svg width="47" height="47" viewBox="0 0 47 47" fill="none" xmlns="http://www.w3.org/2000/svg">
<path d="M45 3.74256V20.824C45 21.5344 44.4105 22.1115 43.6849 22.1115H38.5495C38.1187 22.1115 37.7219 22.3557 37.5292 22.7331C37.3478 23.1216 37.3931 23.5655 37.6539 23.9096C38.1527 24.5311 38.4134 25.2859 38.4134 26.0961C38.4134 28.4158 36.1574 30.2361 33.6747 29.559C32.2803 29.1928 31.226 27.983 31.056 26.5845C30.9313 25.5856 31.1807 24.6532 31.7815 23.9096C32.0536 23.5655 32.099 23.1216 31.9062 22.7331C31.7135 22.3557 31.3281 22.1115 30.8859 22.1115H24.4468V17.6275C25.0249 17.8051 25.6258 17.8939 26.2493 17.8939C29.8883 17.8939 32.7905 14.653 32.099 10.957C31.5548 8.1045 28.8 6.04007 25.8412 6.22875H25.7845C25.059 6.28425 24.4468 5.6738 24.4468 4.95236V3.28749C24.4468 2.57715 25.0363 2 25.7618 2H43.2201C44.1951 2 45 2.78804 45 3.74256Z" fill="#3D7FFC"/>
<path d="M21.1836 40.0813C21.7656 40.0813 22.3475 39.9935 22.8966 39.8178V44.2539H4.73491C3.77961 44.2539 3 43.4743 3 42.519V24.3464H9.22591C9.47846 24.3464 9.70905 24.2585 9.9067 24.1048C10.0275 24.006 10.1373 23.8852 10.2141 23.7315C10.302 23.5448 10.3349 23.3362 10.324 23.1385C10.313 23.0397 10.28 22.9409 10.2471 22.842C10.2141 22.7542 10.1592 22.6663 10.0934 22.5785C9.62121 21.9636 9.36866 21.2279 9.36866 20.4373C9.36866 18.4608 10.9828 16.8577 12.9483 16.8577C14.9248 16.8577 16.5279 18.4608 16.5279 20.4373C16.5279 20.635 16.5059 20.8216 16.484 21.0193C16.3852 21.5903 16.1655 22.1283 15.8142 22.5895C15.6824 22.7542 15.6055 22.9518 15.5946 23.1495C15.5726 23.3471 15.6055 23.5558 15.7044 23.7424C15.891 24.1158 16.2644 24.3464 16.6816 24.3464H22.8966V28.7934C22.3475 28.6177 21.7766 28.5299 21.1836 28.5299C17.9993 28.5299 15.4079 31.1213 15.4079 34.2946C15.4079 37.4899 17.9993 40.0813 21.1836 40.0813Z" fill="#C6DBFF"/>
<path d="M44.9995 25.6225V42.5214C44.9995 43.4767 44.2199 44.2563 43.2646 44.2563H25.0919V38.0413C25.0919 37.6241 24.8613 37.2398 24.488 37.0531C24.1147 36.8664 23.6755 36.9104 23.3351 37.1629C22.7092 37.6351 21.9625 37.8876 21.1829 37.8876C19.2064 37.8876 17.6033 36.2845 17.6033 34.297C17.6033 32.3315 19.2064 30.7284 21.1829 30.7284C21.9625 30.7284 22.7092 30.9809 23.3351 31.4531C23.379 31.486 23.4229 31.508 23.4778 31.5299C23.5217 31.5519 23.5547 31.5848 23.6096 31.6068C23.6315 31.6178 23.6645 31.6178 23.6864 31.6288C23.7633 31.6397 23.8292 31.6617 23.8951 31.6727C23.9609 31.6837 24.0268 31.6727 24.0927 31.6617H24.1915C24.3013 31.6397 24.4002 31.6068 24.488 31.5629C24.8613 31.3762 25.0919 30.9919 25.0919 30.5746V24.3487H28.0237C28.7374 24.3487 29.3414 24.9417 29.2865 25.6554C29.2645 26.0727 29.2755 26.5009 29.3304 26.9291C29.6488 29.224 31.3947 31.1566 33.6457 31.6946C37.434 32.595 40.8269 29.7291 40.8269 26.0836C40.8269 25.9519 40.8269 25.8201 40.8159 25.6883C40.761 24.9636 41.343 24.3487 42.0677 24.3487H43.7257C44.4285 24.3487 44.9995 24.9197 44.9995 25.6225Z" fill="#C6DBFF"/>
<path d="M18.713 20.7876C18.8887 17.9108 16.8244 15.2535 13.9914 14.7484C10.3459 14.1115 7.17257 16.9115 7.17257 20.4363C7.17257 21.0292 7.26041 21.6002 7.4361 22.1492H3V3.9656C3 3.02129 3.77961 2.25266 4.73491 2.25266H21.6228C22.3256 2.25266 22.8966 2.82364 22.8966 3.52639V8.48955C22.8966 8.9068 23.1381 9.29112 23.5115 9.47779C23.8958 9.65347 24.335 9.60955 24.6754 9.357C25.2793 8.88484 26.0479 8.62131 26.8276 8.62131C28.804 8.62131 30.4182 10.2245 30.4182 12.2009C30.4182 14.1664 28.804 15.7806 26.8276 15.7806C26.0479 15.7806 25.2793 15.517 24.6754 15.0449C24.346 14.7923 23.8958 14.7374 23.5115 14.9241C23.1381 15.1108 22.8966 15.4951 22.8966 15.9123V20.8755C22.8966 21.5782 22.3256 22.1492 21.6228 22.1492H18.4605C18.6032 21.71 18.6801 21.2598 18.713 20.7876Z" fill="#C6DBFF"/>
</svg>
