<svg width="47" height="47" viewBox="0 0 47 47" fill="none" xmlns="http://www.w3.org/2000/svg">
<g clip-path="url(#clip0_50785_38399)">
<path d="M36.5863 26.5027C35.9507 26.0008 35.142 25.3768 34.3778 24.7938C33.3222 24.0099 31.8718 22.9665 29.9769 21.6758C29.7459 21.5184 29.5011 21.3586 29.2506 21.1978C29.1168 21.1125 28.9845 21.0286 28.8515 20.945C26.4773 19.4635 23.5669 17.9692 22.832 17.5958L21.0735 18.1548C20.6094 18.8591 18.6121 21.61 15.6076 21.8424C15.4424 21.8596 15.2789 21.8683 15.1275 21.8683C14.4498 21.8683 13.9826 21.6848 13.6978 21.3052C13.3582 20.8533 13.3317 20.1878 13.6151 19.2126C13.6231 19.1851 13.6334 19.158 13.6463 19.1322C14.2016 18.0134 15.3381 16.3984 16.3296 15.0286C16.1385 14.9992 15.939 14.9699 15.7343 14.9391C14.5412 14.7631 13.3082 14.5805 12.6565 14.2115C12.3736 14.0506 11.9275 13.7801 11.4402 13.4781L5.41992 24.1699L5.92611 24.7337C5.94679 24.7588 6.535 25.4904 7.3629 26.5251L7.37841 26.5044C7.78426 25.9571 8.42228 25.6431 9.1294 25.6431C9.72254 25.6431 10.3187 25.8647 10.8082 26.2684C11.2726 26.6484 11.587 27.1492 11.7405 27.6784L12.3078 26.9053C12.7141 26.3559 13.3526 26.0419 14.0602 26.0419C14.654 26.0419 15.25 26.2635 15.7388 26.6672C16.5754 27.3537 16.9312 28.4314 16.7152 29.3608C16.7521 29.3594 16.7883 29.3545 16.8256 29.3545C17.4183 29.3545 18.0147 29.5768 18.5045 29.9798C19.3303 30.6604 19.6884 31.7204 19.4898 32.6412C19.5566 32.6348 19.6233 32.6304 19.6917 32.6304C20.2841 32.6304 20.8803 32.852 21.3705 33.2543C22.4645 34.1543 22.7392 35.7241 21.982 36.7527L21.5922 37.2791C23.3471 37.8831 24.3694 38.0593 24.3865 38.0631C24.4002 38.0652 24.4145 38.0687 24.4274 38.0711C24.9273 38.1973 26.4089 38.4262 27.2573 37.97C27.8704 37.6408 28.3359 37.0864 28.617 36.6862L24.0357 34.4753C23.7962 34.3593 23.6947 34.0702 23.8113 33.8298C23.9271 33.5889 24.2157 33.4883 24.4575 33.6047L29.3152 35.9504C29.3521 35.9476 29.388 35.9441 29.4259 35.9504C29.7582 36.0043 30.7337 36.0773 31.2232 35.7575C31.8196 35.3667 31.9446 34.4509 31.969 34.0056L26.0708 30.5903C25.8395 30.4561 25.7606 30.16 25.8948 29.929C26.029 29.6973 26.3236 29.6186 26.5561 29.7526L32.6031 33.2545C33.0256 33.2825 34.0084 33.2703 34.4469 32.9161C35.2278 32.2807 35.1281 31.2782 35.0701 30.9475L28.0735 26.7471C27.8443 26.6101 27.7705 26.3119 27.9078 26.0837C28.0455 25.8541 28.3437 25.781 28.5719 25.9181L35.9361 30.3386C36.4453 30.47 37.614 30.6371 38.1768 29.605C38.5963 28.8346 38.4435 28.1254 37.7153 27.4333L36.5861 26.5032L36.5863 26.5027Z" fill="#FECE4D"/>
<path d="M15.5717 29.5927C16.0307 28.9688 15.83 27.9919 15.125 27.4133C14.8084 27.1515 14.4308 27.0081 14.0611 27.0081C13.6569 27.0081 13.3113 27.1752 13.0873 27.4765L9.98248 31.7091C9.52447 32.3295 9.72492 33.3061 10.4285 33.8878C10.7444 34.1482 11.1225 34.2922 11.4917 34.2922C11.8959 34.2922 12.2418 34.1258 12.4662 33.8224L12.4716 33.8154L15.572 29.5927H15.5717Z" fill="#C6DBFF"/>
<path d="M17.8901 30.7253C17.5735 30.4649 17.1954 30.3208 16.8262 30.3208C16.5106 30.3208 16.2328 30.4263 16.0188 30.6162C15.9595 30.6693 13.4582 34.0865 13.4582 34.0865C13.4389 34.1123 13.4274 34.1431 13.4103 34.1704C13.368 34.2392 13.3299 34.3102 13.3017 34.3847C13.0733 34.99 13.3029 35.7702 13.9031 36.2652C14.2208 36.5269 14.5994 36.6703 14.969 36.6703C15.3727 36.6703 15.7175 36.5032 15.9405 36.2012L18.3375 32.9051C18.7958 32.2826 18.5946 31.3059 17.8903 30.725L17.8901 30.7253Z" fill="#C6DBFF"/>
<path d="M20.7559 34.0067C20.4389 33.7456 20.0606 33.6016 19.6916 33.6016C19.2881 33.6016 18.9429 33.7686 18.7192 34.072C18.7192 34.072 17.061 36.3339 17.0241 36.4223C16.7673 37.0319 16.9978 37.8407 17.6128 38.3486C17.9298 38.6096 18.3089 38.753 18.6783 38.753C19.0816 38.753 19.427 38.5859 19.65 38.2832L21.2031 36.1833C21.6607 35.5615 21.46 34.5855 20.7559 34.0067Z" fill="#C6DBFF"/>
<path d="M10.6807 29.1299C11.0727 28.5161 10.8647 27.5716 10.1947 27.0222C9.87702 26.7604 9.49914 26.617 9.12972 26.617C8.72599 26.617 8.38054 26.7841 8.15612 27.0861L7.16536 28.4251C6.70899 29.0448 6.90944 30.0236 7.6128 30.6031C7.92981 30.8642 8.30816 31.0082 8.67735 31.0082C8.98496 31.0082 9.25827 30.9093 9.46977 30.7286C9.53392 30.6734 10.6659 29.1522 10.6803 29.1299H10.6807Z" fill="#C6DBFF"/>
<path d="M33.1 13.7816C32.4653 13.7285 31.726 13.555 30.8689 13.3539C29.5299 13.0394 27.8631 12.6479 26.1137 12.6479L25.9932 12.6484C22.0473 12.686 18.8351 13.2039 18.355 13.8793C18.2424 14.037 18.112 14.2177 17.9726 14.4093C17.8697 14.5512 17.7635 14.6969 17.6493 14.8532C17.5618 14.9737 17.4678 15.1027 17.3757 15.2296C16.3617 16.6232 15.112 18.3681 14.5315 19.5205C14.3024 20.3294 14.3943 20.6203 14.4707 20.7218C14.5804 20.8682 14.888 20.8983 15.1268 20.8983C15.2487 20.8983 15.3796 20.8903 15.5209 20.876C18.4057 20.6525 20.3254 17.5261 20.3449 17.4946C20.4056 17.3949 20.501 17.3188 20.6124 17.2833L21.5686 16.9792L22.7255 16.6112C22.7732 16.5962 22.823 16.5886 22.8721 16.5886C22.9464 16.5886 23.0202 16.6058 23.0879 16.6396C23.1269 16.6594 26.5414 18.3681 29.2996 20.0822C29.4961 20.2044 29.6897 20.3258 29.8777 20.4478C30.0993 20.5909 30.3146 20.7326 30.5202 20.8732C32.3776 22.1389 33.8027 23.1609 34.8548 23.9401C36.4025 25.0858 37.1341 25.6989 37.1834 25.7398L37.1841 25.7405L38.1774 26.5595C38.181 26.5566 38.1852 26.5552 38.1883 26.5538C38.5144 26.4119 39.1414 26.0876 39.8424 25.4507C40.1411 25.1802 40.3557 24.9558 40.5627 24.7394C40.8165 24.4727 41.0569 24.2217 41.4089 23.9305C41.4169 23.9237 41.4254 23.9169 41.4329 23.9103L35.4977 13.3666C34.6734 13.6535 33.8257 13.8417 33.0998 13.7818L33.1 13.7816Z" fill="#C6DBFF"/>
<path d="M11.4134 11.5552C11.5034 11.3944 11.4538 11.1834 11.3057 11.0934L7.93865 9.04019C7.89518 9.01363 7.84794 9 7.79765 9C7.69284 9 7.5979 9.05781 7.54409 9.15416L0.0442971 22.474C-0.0450029 22.6333 0.00528705 22.8443 0.154042 22.9355L3.51995 24.9885C3.65225 25.0688 3.83579 25.0143 3.91545 24.8738L11.4134 11.5552Z" fill="#3D7FFC"/>
<path d="M46.9557 22.4733L39.4562 9.15486C39.4017 9.05757 39.3067 9 39.2024 9C39.1526 9 39.106 9.01363 39.0623 9.03971L35.6957 11.0929C35.5465 11.1841 35.496 11.3951 35.586 11.5545L43.0851 24.8728C43.165 25.0155 43.345 25.0686 43.4817 24.9875L46.846 22.935C46.9955 22.8436 47.0458 22.6323 46.9562 22.473L46.9557 22.4733Z" fill="#3D7FFC"/>
</g>
<defs>
<clipPath id="clip0_50785_38399">
<rect width="47" height="29.7494" fill="white" transform="translate(0 9)"/>
</clipPath>
</defs>
</svg>
