<svg width="376" height="376" viewBox="0 0 376 376" fill="none" xmlns="http://www.w3.org/2000/svg">
<g clip-path="url(#clip0_50785_37324)">
<path d="M376 0H0V376H376V0Z" fill="white"/>
<path d="M187.49 329.86C266.119 329.86 329.86 266.119 329.86 187.49C329.86 108.861 266.119 45.12 187.49 45.12C108.861 45.12 45.1201 108.861 45.1201 187.49C45.1201 266.119 108.861 329.86 187.49 329.86Z" fill="#F5F8FF"/>
<g filter="url(#filter0_dd_50785_37324)">
<path d="M282.627 325.867C306.508 325.867 325.867 306.508 325.867 282.627C325.867 258.746 306.508 239.387 282.627 239.387C258.746 239.387 239.387 258.746 239.387 282.627C239.387 306.508 258.746 325.867 282.627 325.867Z" fill="white" stroke="#3D7FFC" stroke-width="2.50667"/>
</g>
<path d="M265.546 292.453H251.568L251.043 289.636L257.507 283.807C259.303 282.177 260.38 280.934 260.38 279.305C260.38 277.675 259.192 276.625 257.314 276.625C255.408 276.625 253.75 277.868 252.701 279.194L250.822 276.266C251.071 275.686 253.419 273.117 257.728 273.117C262.037 273.117 264.662 275.41 264.662 278.752C264.662 282.095 262.176 284.083 260.656 285.437L256.706 289H265.546V292.453ZM283.458 288.641H280.917V292.453H276.607V288.641H267.326V285.382L275.972 273.338H280.917V285.188H283.458V288.641ZM276.718 285.271V277.896L271.387 285.271H276.718ZM299.065 271.625L287.656 295.16L285.087 293.973L296.468 270.465L299.065 271.625ZM316.55 276.045L308.07 292.453H303.374L311.744 276.818H301.744V273.393H315.335L316.55 276.045Z" fill="#3D7FFC"/>
<g opacity="0.5">
<g filter="url(#filter1_dd_50785_37324)">
<path d="M186.202 70.1866H110.305C106.838 70.1866 104.027 72.9973 104.027 76.4644V128.456C104.027 131.923 106.838 134.733 110.305 134.733H186.202C189.669 134.733 192.48 131.923 192.48 128.456V76.4644C192.48 72.9973 189.669 70.1866 186.202 70.1866Z" fill="white"/>
<path d="M110.305 70.8637H186.202C189.295 70.8637 191.803 73.3712 191.803 76.4644V128.456C191.803 131.549 189.295 134.056 186.202 134.056H110.305C107.211 134.056 104.704 131.549 104.704 128.456V76.4644C104.704 73.3712 107.211 70.8637 110.305 70.8637Z" stroke="url(#paint0_linear_50785_37324)" stroke-width="1.35413"/>
</g>
<mask id="mask0_50785_37324" style="mask-type:alpha" maskUnits="userSpaceOnUse" x="104" y="86" width="52" height="52">
<circle cx="129.684" cy="112.384" r="25.5898" fill="#F5F8FF"/>
</mask>
<g mask="url(#mask0_50785_37324)">
<path d="M123.491 102.424C123.524 102.355 123.485 102.269 123.413 102.248C123.11 102.159 122.885 101.965 122.834 101.718C122.801 101.554 122.849 101.387 122.957 101.244C122.984 101.208 122.987 101.155 122.969 101.113C122.715 101.092 122.499 100.913 122.466 100.678C122.448 100.559 122.481 100.443 122.547 100.35C122.544 100.341 122.541 100.332 122.538 100.323C122.529 100.291 122.514 100.258 122.484 100.246C121.807 99.969 121.192 98.0832 122.807 97.1209C122.876 97.0792 122.882 96.9719 122.816 96.9183C122.439 96.5995 122.208 96.1824 122.229 95.7594C122.268 94.9938 123.11 94.5022 124.111 94.6661C124.126 94.669 124.138 94.672 124.153 94.672C124.24 94.6869 124.303 94.5916 124.264 94.5052C123.949 93.7812 123.925 93.105 124.255 92.7981C124.566 92.5062 125.118 92.6194 125.678 93.0305C125.75 93.0841 125.843 93.0394 125.849 92.9471C125.879 92.4287 126.086 92.0474 126.367 92.0474C126.553 92.0474 126.733 92.2202 126.862 92.4853C126.907 92.5806 127.029 92.5806 127.062 92.4883C127.425 91.5141 128.093 90.9391 128.635 91.1804C128.944 91.3175 129.151 91.6869 129.238 92.1755C129.256 92.2797 129.379 92.3155 129.435 92.235C129.888 91.5975 130.586 91.3234 131.227 91.6094C131.686 91.812 132.024 92.2589 132.195 92.807C132.213 92.8637 132.261 92.8994 132.312 92.8994C132.603 92.8905 132.908 92.95 133.211 93.0841C134.236 93.5369 134.865 94.7018 134.721 95.7892C134.709 95.8696 134.775 95.9441 134.85 95.9352C135.35 95.8905 135.821 96.1467 135.983 96.5995C136.129 97.0047 135.986 97.4546 135.659 97.7555C135.587 97.821 135.629 97.958 135.728 97.97C136.159 98.0325 136.513 98.3006 136.588 98.673C136.672 99.0901 136.378 99.5012 135.905 99.6681C135.821 99.6979 135.806 99.82 135.881 99.8826C136.222 100.166 136.414 100.481 136.336 100.684C136.261 100.881 135.956 100.913 135.572 100.797C135.485 100.77 135.413 100.863 135.446 100.955C135.59 101.327 135.578 101.694 135.389 101.911C135.215 102.108 134.931 102.135 134.634 102.019C134.559 101.989 134.481 102.051 134.49 102.138C134.538 102.6 134.385 103.005 134.071 103.148C133.822 103.261 133.525 103.181 133.268 102.969C133.226 102.936 133.172 102.936 133.133 102.969C132.597 103.446 131.961 103.833 131.245 104.101C130.343 104.438 129.534 104.518 128.653 104.42C128.578 104.411 128.522 104.482 128.537 104.563C128.674 105.248 128.258 105.647 127.653 105.746C127.44 105.781 127.116 105.677 127.011 105.531C126.996 105.507 126.904 105.46 126.814 105.555C126.427 105.948 125.672 105.531 125.531 104.846C125.498 104.688 125.495 104.533 125.513 104.387C125.522 104.31 125.408 104.158 125.241 104.268C125.178 104.31 125.094 104.322 125.01 104.336C124.408 104.444 123.53 103.958 123.389 103.273C123.335 102.957 123.377 102.665 123.491 102.424Z" fill="#4F381D"/>
<g style="mix-blend-mode:multiply" opacity="0.15">
<path d="M154.392 135.366C154.304 134.32 153.307 133.539 152.277 133.333C151.248 133.129 150.187 133.366 149.16 133.583C137.008 136.153 124.272 135.915 112.224 132.893C111.052 132.599 109.866 132.277 108.658 132.323C107.45 132.369 106.193 132.848 105.519 133.851C104.475 135.403 105.262 137.672 106.783 138.763C108.304 139.854 110.301 140.014 112.168 139.884C114.035 139.754 115.899 139.375 117.763 139.541C119.564 139.701 121.514 140.579 122.069 142.299C122.402 143.334 121.289 149.395 124.137 147.978C125.063 147.517 125.057 145.91 125.75 145.123C126.528 144.238 127.685 143.676 128.868 143.676C130.542 143.676 132.156 144.802 132.736 146.372C133.176 147.568 133.24 149.181 134.432 149.635C135.631 150.091 136.771 148.899 137.504 147.847C138.151 146.92 138.798 145.992 139.444 145.065C140.033 144.22 140.641 143.325 140.74 142.299C140.838 141.274 140.22 140.102 139.199 139.971C142.633 138.951 146.192 138.347 149.771 138.178C150.784 138.13 151.829 138.11 152.757 137.701C153.686 137.292 154.477 136.377 154.392 135.365V135.366Z" fill="#303B45"/>
</g>
<path d="M116.636 126.984L145.414 125.727L143.635 132.232L126.879 139.259L116.208 134.502L116.636 126.984Z" fill="#0A44B3"/>
<path d="M126.777 104.367C126.777 104.367 117.387 106.271 115.66 107.689C113.933 109.107 112.223 126.503 112.806 127.306C113.389 128.109 148.532 128.929 149.342 127.425C150.152 125.921 145.639 107.904 144.424 107.001C143.209 106.098 129.753 104.166 126.776 104.368L126.777 104.367Z" fill="#15C1E6"/>
<path d="M141.948 122.773C141.948 122.773 141.942 122.773 141.939 122.773C141.882 122.768 141.84 122.718 141.845 122.662C142.132 119.348 141.848 110.015 141.845 109.921C141.843 109.864 141.888 109.816 141.945 109.814C141.998 109.81 142.05 109.857 142.052 109.914C142.055 110.008 142.339 119.354 142.052 122.68C142.047 122.733 142.002 122.774 141.949 122.774L141.948 122.773Z" fill="white"/>
<path d="M118.745 122.433C118.745 122.433 118.737 122.433 118.733 122.433C118.676 122.426 118.635 122.376 118.642 122.319C119.091 118.396 118.282 110.336 118.274 110.255C118.269 110.198 118.31 110.147 118.367 110.141C118.424 110.135 118.475 110.177 118.481 110.234C118.489 110.315 119.3 118.397 118.849 122.342C118.843 122.395 118.798 122.433 118.746 122.433H118.745Z" fill="white"/>
<path d="M122.01 126.582L121.566 124.79C121.535 124.667 121.606 124.542 121.728 124.504L122.335 124.315C122.42 124.289 122.483 124.217 122.5 124.131L122.602 123.574C122.623 123.461 122.722 123.379 122.838 123.379H123.334C123.417 123.379 123.494 123.336 123.537 123.266L123.84 122.781C123.909 122.672 124.053 122.636 124.165 122.703L124.74 123.044C124.813 123.088 124.904 123.089 124.978 123.047L125.315 122.858C125.425 122.797 125.562 122.83 125.631 122.935L126.84 124.762C126.915 124.875 126.881 125.027 126.765 125.098L126.497 125.262C126.398 125.322 126.269 125.302 126.193 125.216C126.034 125.037 125.74 125.175 125.777 125.411L125.789 125.491C125.805 125.595 125.752 125.696 125.658 125.742L123.288 126.912C123.272 126.92 123.256 126.926 123.239 126.93C123.09 126.967 122.362 127.119 122.041 126.659C122.025 126.636 122.014 126.61 122.008 126.583L122.01 126.582Z" fill="#FEBAC7"/>
<path d="M138.714 126.582L139.157 124.79C139.188 124.667 139.118 124.542 138.996 124.504L138.389 124.315C138.304 124.289 138.241 124.217 138.224 124.131L138.121 123.574C138.1 123.461 138.002 123.379 137.886 123.379H137.389C137.307 123.379 137.23 123.336 137.187 123.266L136.884 122.781C136.815 122.672 136.67 122.636 136.559 122.703L135.984 123.044C135.91 123.088 135.82 123.089 135.746 123.047L135.409 122.858C135.299 122.797 135.161 122.83 135.093 122.935L133.884 124.762C133.809 124.875 133.843 125.027 133.959 125.098L134.227 125.262C134.326 125.322 134.454 125.302 134.531 125.216C134.69 125.037 134.984 125.175 134.947 125.411L134.935 125.491C134.919 125.595 134.972 125.696 135.066 125.742L137.436 126.912C137.452 126.92 137.468 126.926 137.485 126.93C137.634 126.967 138.362 127.119 138.683 126.659C138.699 126.636 138.71 126.61 138.716 126.583L138.714 126.582Z" fill="#FEBAC7"/>
<path d="M121.558 124.178C121.554 124.178 121.549 124.178 121.544 124.177L115.922 123.349C115.865 123.341 115.826 123.288 115.835 123.231C115.843 123.174 115.896 123.135 115.953 123.144L121.574 123.972C121.631 123.98 121.67 124.033 121.661 124.09C121.653 124.141 121.609 124.179 121.559 124.179L121.558 124.178Z" fill="white"/>
<path d="M139.66 124.476C139.612 124.476 139.568 124.441 139.559 124.39C139.549 124.334 139.586 124.28 139.643 124.27L144.213 123.455C144.269 123.444 144.323 123.482 144.333 123.539C144.343 123.595 144.306 123.649 144.249 123.659L139.678 124.474C139.672 124.475 139.666 124.476 139.66 124.476Z" fill="white"/>
<path d="M125.276 100.341C125.276 100.341 124.487 107.125 129.318 107.125C133.712 107.125 133.558 101.289 133.558 101.289C133.558 101.289 133.998 97.6767 130.592 97.2688C127.185 96.86 125.071 99.1227 125.276 100.342V100.341Z" fill="#FEB79C"/>
<path d="M133.504 101.652L133.171 103.948C133.171 103.948 134.794 103.087 134.768 101.917C134.76 101.527 134.625 101.312 134.448 101.198C134.071 100.955 133.569 101.208 133.504 101.652Z" fill="#FEB79C"/>
<path d="M125.285 100.991L125.566 103.948C125.566 103.948 124.006 103.044 124.032 101.875C124.057 100.706 125.285 100.991 125.285 100.991Z" fill="#FEB79C"/>
<path d="M134.525 99.0132V100.684C134.525 102.761 132.841 104.444 130.765 104.444V104.444" stroke="#303B45" stroke-width="0.835556"/>
<rect x="127.84" y="103.609" width="3.34222" height="1.67111" rx="0.835556" fill="#303B45"/>
<path d="M138.069 115.938H121.801C121.086 115.938 120.507 116.518 120.507 117.233V127.969C120.507 128.684 121.086 129.263 121.801 129.263H138.069C138.784 129.263 139.364 128.684 139.364 127.969V117.233C139.364 116.518 138.784 115.938 138.069 115.938Z" fill="#D2DCE4"/>
<path d="M139.05 129.891H120.82C120.646 129.891 120.507 129.75 120.507 129.578C120.507 129.404 120.647 129.264 120.82 129.264H139.05C139.223 129.264 139.363 129.405 139.363 129.578C139.363 129.751 139.222 129.891 139.05 129.891Z" fill="#647A8C"/>
<path d="M136.336 129.553C136.336 129.627 136.276 129.687 136.202 129.687C136.129 129.687 136.069 129.627 136.069 129.553C136.069 129.48 136.129 129.42 136.202 129.42C136.276 129.42 136.336 129.48 136.336 129.553Z" fill="#647A8C"/>
<path d="M135.749 129.42H134.67V129.687H135.749V129.42Z" fill="#647A8C"/>
<path d="M112.849 122.828C112.663 125.255 112.626 127.06 112.805 127.306C112.97 127.531 115.865 127.759 119.962 127.935L112.849 122.829V122.828Z" fill="#15C1E6"/>
<path d="M139.206 128.246C144.766 128.182 149.066 127.938 149.343 127.424C149.542 127.056 149.421 125.697 149.107 123.842L139.206 128.246Z" fill="#15C1E6"/>
<path d="M124.953 96.2021C124.908 96.0471 124.875 95.8803 124.863 95.7105C124.791 94.7125 125.355 93.8604 126.125 93.8068C126.517 93.78 126.889 93.9677 127.164 94.2894C127.425 94.1464 127.752 94.0481 128.114 94.0213C128.507 93.9945 128.875 94.0541 129.166 94.1822C129.298 93.4523 129.78 92.8982 130.395 92.8564C131.126 92.8028 131.776 93.491 131.899 94.4175C132.171 94.2537 132.516 94.1434 132.9 94.1166C133.792 94.0541 134.554 94.4622 134.658 95.0432C135.141 95.3053 135.503 95.8952 135.554 96.6072C135.584 97.0273 135.503 97.4205 135.339 97.7393C135.656 97.8078 135.902 98.0521 135.923 98.3649C135.95 98.7492 135.626 99.0859 135.201 99.1157C135.144 99.1187 135.09 99.1187 135.039 99.1127C135.009 99.2676 134.958 99.4285 134.883 99.5804C134.518 100.331 133.748 100.71 133.16 100.429C132.693 100.203 132.486 99.6221 132.609 99.0144C132.294 99.1634 131.95 99.217 131.605 99.1455C131.042 99.0293 130.607 98.6122 130.386 98.0521C130.266 98.1475 130.122 98.1921 129.978 98.1653C129.816 98.1355 129.684 98.0164 129.61 97.8525C129.376 98.0045 129.103 98.1028 128.803 98.1236C128.255 98.1623 127.752 97.9359 127.416 97.5576C127.419 97.5755 127.422 97.5963 127.422 97.6142C127.491 98.5705 126.802 99.3987 125.882 99.4642C124.962 99.5298 124.162 98.8088 124.093 97.8525C124.042 97.1465 124.399 96.5178 124.953 96.2021Z" fill="#4F381D"/>
</g>
<circle cx="130.041" cy="122.217" r="1.54012" fill="#9BACBC"/>
<g filter="url(#filter2_d_50785_37324)">
<path d="M182.555 81.3324C182.555 80.2941 181.713 79.4524 180.675 79.4524L149.771 79.4524C148.732 79.4524 147.891 80.2941 147.891 81.3324V97.5232C147.891 98.5615 148.732 99.4032 149.771 99.4032H180.675C181.713 99.4032 182.555 98.5615 182.555 97.5232V81.3324Z" fill="#C6DBFF"/>
</g>
<path d="M150.399 97.3729V105.543L157.908 98.0343" fill="#C6DBFF"/>
</g>
<g filter="url(#filter3_dd_50785_37324)">
<path d="M335.928 125.333H230.556C225.742 125.333 221.84 129.236 221.84 134.049V206.231C221.84 211.045 225.742 214.947 230.556 214.947H335.928C340.741 214.947 344.643 211.045 344.643 206.231V134.049C344.643 129.236 340.741 125.333 335.928 125.333Z" fill="white"/>
<path d="M230.556 126.273H335.928C340.222 126.273 343.703 129.755 343.703 134.049V206.231C343.703 210.525 340.222 214.007 335.928 214.007H230.556C226.261 214.007 222.78 210.525 222.78 206.231V134.049C222.78 129.755 226.261 126.273 230.556 126.273Z" stroke="url(#paint1_linear_50785_37324)" stroke-width="1.88"/>
</g>
<g clip-path="url(#clip1_50785_37324)">
<mask id="mask1_50785_37324" style="mask-type:alpha" maskUnits="userSpaceOnUse" x="233" y="155" width="73" height="74">
<circle cx="269.362" cy="192.088" r="36.1484" fill="white"/>
</mask>
<g mask="url(#mask1_50785_37324)">
<path d="M250.922 212.711L291.574 210.936L289.061 220.126L265.391 230.051L250.318 223.332L250.922 212.711Z" fill="#0A44B3"/>
<path d="M265.247 180.763C265.247 180.763 251.983 183.452 249.543 185.455C247.103 187.458 244.687 212.032 245.511 213.166C246.335 214.3 295.979 215.458 297.123 213.334C298.267 211.21 291.892 185.758 290.175 184.483C288.459 183.208 269.451 180.478 265.246 180.764L265.247 180.763Z" fill="#FECE4D"/>
<path d="M286.676 206.764C286.676 206.764 286.667 206.764 286.663 206.764C286.583 206.756 286.524 206.686 286.531 206.606C286.937 201.925 286.535 188.74 286.531 188.608C286.528 188.528 286.591 188.46 286.672 188.457C286.746 188.451 286.82 188.518 286.822 188.598C286.827 188.73 287.228 201.933 286.822 206.631C286.815 206.707 286.752 206.765 286.677 206.765L286.676 206.764Z" fill="white"/>
<path d="M253.903 206.283C253.903 206.283 253.891 206.283 253.886 206.283C253.805 206.273 253.748 206.202 253.757 206.121C254.391 200.579 253.249 189.194 253.238 189.08C253.229 189 253.288 188.928 253.369 188.919C253.449 188.911 253.521 188.97 253.529 189.05C253.54 189.164 254.686 200.581 254.049 206.154C254.041 206.228 253.977 206.283 253.904 206.283H253.903Z" fill="white"/>
<path d="M258.516 212.144L257.889 209.612C257.845 209.439 257.945 209.261 258.117 209.208L258.975 208.942C259.095 208.905 259.183 208.804 259.207 208.681L259.352 207.895C259.382 207.734 259.521 207.619 259.685 207.619H260.386C260.503 207.619 260.612 207.558 260.672 207.46L261.101 206.775C261.198 206.62 261.402 206.569 261.56 206.664L262.371 207.145C262.475 207.207 262.604 207.209 262.708 207.15L263.184 206.883C263.339 206.797 263.533 206.844 263.631 206.992L265.338 209.573C265.444 209.732 265.396 209.947 265.232 210.047L264.853 210.278C264.714 210.364 264.532 210.336 264.424 210.214C264.2 209.961 263.784 210.156 263.836 210.49L263.853 210.602C263.876 210.749 263.801 210.893 263.669 210.957L260.32 212.61C260.298 212.621 260.275 212.63 260.251 212.635C260.041 212.687 259.013 212.903 258.559 212.252C258.537 212.22 258.521 212.183 258.513 212.145L258.516 212.144Z" fill="#FEBAC7"/>
<path d="M282.108 212.144L282.735 209.612C282.778 209.439 282.678 209.261 282.506 209.208L281.648 208.942C281.529 208.905 281.44 208.804 281.416 208.681L281.271 207.895C281.241 207.734 281.102 207.619 280.938 207.619H280.237C280.12 207.619 280.011 207.558 279.951 207.46L279.523 206.775C279.425 206.62 279.221 206.569 279.063 206.664L278.252 207.145C278.148 207.207 278.02 207.209 277.915 207.15L277.439 206.883C277.284 206.797 277.09 206.844 276.993 206.992L275.285 209.573C275.18 209.732 275.227 209.947 275.391 210.047L275.77 210.278C275.909 210.364 276.091 210.336 276.199 210.214C276.423 209.961 276.839 210.156 276.787 210.49L276.77 210.602C276.747 210.749 276.822 210.893 276.955 210.957L280.303 212.61C280.326 212.621 280.348 212.63 280.372 212.635C280.582 212.687 281.61 212.903 282.064 212.252C282.087 212.22 282.102 212.183 282.11 212.145L282.108 212.144Z" fill="#FEBAC7"/>
<path d="M257.875 208.747C257.868 208.747 257.86 208.747 257.853 208.746L249.912 207.576C249.832 207.565 249.777 207.491 249.79 207.41C249.801 207.33 249.876 207.275 249.956 207.288L257.897 208.457C257.977 208.468 258.032 208.543 258.02 208.623C258.008 208.695 257.946 208.749 257.876 208.749L257.875 208.747Z" fill="white"/>
<path d="M283.446 209.168C283.377 209.168 283.315 209.119 283.303 209.047C283.289 208.968 283.341 208.892 283.421 208.878L289.877 207.727C289.956 207.712 290.032 207.765 290.046 207.846C290.06 207.925 290.008 208.001 289.928 208.015L283.472 209.166C283.463 209.167 283.455 209.168 283.446 209.168Z" fill="white"/>
<path d="M260.663 171.017C260.663 171.017 259.077 184.658 268.791 184.658C277.627 184.658 277.318 172.922 277.318 172.922C277.318 172.922 278.203 165.658 271.352 164.838C264.502 164.016 260.25 168.566 260.663 171.019V171.017Z" fill="#FEB79C"/>
<path d="M274.753 176.927L274.282 180.171C274.282 180.171 276.576 178.954 276.539 177.301C276.526 176.751 276.336 176.446 276.087 176.286C275.554 175.942 274.844 176.3 274.753 176.927Z" fill="#FEB79C"/>
<path d="M263.144 175.994L263.541 180.171C263.541 180.171 261.336 178.893 261.373 177.242C261.41 175.591 263.144 175.994 263.144 175.994Z" fill="#FEB79C"/>
<path d="M281.193 197.108H258.213C257.203 197.108 256.384 197.927 256.384 198.937V214.103C256.384 215.113 257.203 215.931 258.213 215.931H281.193C282.203 215.931 283.022 215.113 283.022 214.103V198.937C283.022 197.927 282.203 197.108 281.193 197.108Z" fill="#D2DCE4"/>
<path d="M245.574 206.841C245.311 210.269 245.259 212.818 245.512 213.166C245.745 213.485 249.834 213.806 255.621 214.055L245.574 206.843V206.841Z" fill="#FECE4D"/>
<path d="M282.805 214.494C290.658 214.403 296.733 214.06 297.124 213.333C297.405 212.813 297.234 210.893 296.791 208.273L282.805 214.494Z" fill="#FECE4D"/>
<path d="M278.94 174.123C278.94 165.951 274.59 159.324 268.531 159.324C262.47 159.324 259.272 165.985 258.516 174.123C258.317 176.263 256.509 179.675 258.537 182.688C258.691 182.916 259.035 183.179 259.285 183.293C260.327 183.775 261.843 184.518 262.765 184.778C262.908 184.819 262.03 183.158 262.173 183.102C262.173 183.102 263.67 182.643 264.515 182.611C264.515 182.611 264.646 181.667 264.639 180.83C264.639 180.83 262.741 178.767 262.348 176.475C262.345 176.474 262.342 176.471 262.339 176.468C261.045 175.513 260.913 175.187 260.79 174.683C260.363 172.933 261.451 170.689 261.935 172.053C262.753 170.392 263.394 167.491 263.394 167.491C263.483 167.523 263.37 169.074 263.462 169.11C264.002 169.317 264.789 169.544 265.725 169.664C265.791 169.673 265.862 168.164 265.929 168.167C265.99 168.17 266.049 169.677 266.111 169.685C268.714 169.986 271.896 169.795 273.997 169.285C274.133 169.252 274.114 167.978 274.24 167.942C274.366 169.421 274.827 171.006 275.387 172.355C275.85 171.521 276.333 171.838 276.57 172.533C276.872 173.42 276.473 174.644 275.99 175.38C275.826 175.631 274.981 176.225 274.94 176.477C274.94 176.477 274.842 177.48 274.215 178.873C274.105 179.117 273.979 179.253 272.925 180.532C272.926 181.649 273.071 182.172 273.115 182.355C273.115 182.355 274.907 182.541 275.713 182.83C275.763 182.848 274.838 184.801 274.889 184.786C275.815 184.485 278.398 183.726 278.985 182.845C280.834 180.436 279.168 177.473 278.94 174.123Z" fill="#514B4E"/>
<path d="M276.987 170.453V172.96C276.987 176.075 274.462 178.6 271.347 178.6V178.6" stroke="#303B45" stroke-width="1.25333"/>
<rect x="266.96" y="177.347" width="5.01333" height="2.50667" rx="1.25333" fill="#303B45"/>
</g>
<circle cx="269.867" cy="205.978" r="2.1756" fill="#9BACBC"/>
<g filter="url(#filter4_d_50785_37324)">
<path d="M283.087 142.634C283.087 141.249 284.209 140.127 285.594 140.127L329.548 140.127C330.932 140.127 332.054 141.249 332.054 142.634V165.803C332.054 167.187 330.932 168.31 329.548 168.31H285.187C284.027 168.31 283.087 167.37 283.087 166.21V142.634Z" fill="#C6DBFF"/>
</g>
<path d="M283.087 165.442V176.983L293.693 166.376" fill="#C6DBFF"/>
</g>
<g filter="url(#filter5_dd_50785_37324)">
<path d="M177.334 162.933H42.4869C36.3269 162.933 31.3333 167.927 31.3333 174.087V266.46C31.3333 272.62 36.3269 277.613 42.4869 277.613H177.334C183.494 277.613 188.487 272.62 188.487 266.46V174.087C188.487 167.927 183.494 162.933 177.334 162.933Z" fill="white"/>
<path d="M42.4869 163.873H177.334C182.975 163.873 187.547 168.446 187.547 174.087V266.46C187.547 272.101 182.975 276.673 177.334 276.673H42.4869C36.8461 276.673 32.2733 272.101 32.2733 266.46V174.087C32.2733 168.446 36.8461 163.873 42.4869 163.873Z" stroke="url(#paint2_linear_50785_37324)" stroke-width="1.88"/>
</g>
<g clip-path="url(#clip2_50785_37324)">
<mask id="mask2_50785_37324" style="mask-type:alpha" maskUnits="userSpaceOnUse" x="81" y="197" width="95" height="96">
<circle cx="128.636" cy="245.083" r="47.1694" fill="#F5F8FF"/>
</mask>
<g mask="url(#mask2_50785_37324)">
<path d="M104.576 271.995L157.622 269.679L154.342 281.67L123.457 294.622L103.788 285.854L104.576 271.995Z" fill="#0A44B3"/>
<path d="M123.269 230.306C123.269 230.306 105.96 233.815 102.776 236.429C99.5927 239.043 96.4401 271.109 97.5155 272.589C98.5908 274.069 163.37 275.58 164.862 272.808C166.355 270.036 158.037 236.824 155.796 235.161C153.557 233.497 128.754 229.935 123.267 230.308L123.269 230.306Z" fill="#9D97F4"/>
<path d="M151.233 264.234C151.233 264.234 151.222 264.234 151.217 264.234C151.112 264.225 151.035 264.133 151.044 264.028C151.573 257.92 151.049 240.716 151.044 240.543C151.04 240.438 151.123 240.35 151.228 240.346C151.325 240.339 151.421 240.425 151.424 240.53C151.43 240.703 151.954 257.931 151.424 264.061C151.415 264.161 151.332 264.236 151.235 264.236L151.233 264.234Z" fill="white"/>
<path d="M108.467 263.607C108.467 263.607 108.452 263.607 108.445 263.607C108.34 263.595 108.265 263.501 108.277 263.396C109.105 256.164 107.614 241.308 107.599 241.159C107.588 241.054 107.665 240.961 107.77 240.95C107.875 240.939 107.969 241.016 107.98 241.12C107.994 241.269 109.489 256.166 108.658 263.438C108.647 263.536 108.564 263.607 108.469 263.607H108.467Z" fill="white"/>
<path d="M114.48 271.254L113.662 267.951C113.605 267.725 113.735 267.493 113.96 267.423L115.079 267.076C115.235 267.028 115.351 266.896 115.382 266.736L115.572 265.71C115.61 265.501 115.792 265.35 116.006 265.35H116.921C117.074 265.35 117.215 265.271 117.294 265.142L117.853 264.249C117.98 264.047 118.246 263.98 118.452 264.104L119.511 264.732C119.647 264.813 119.814 264.815 119.95 264.738L120.572 264.39C120.774 264.278 121.028 264.339 121.154 264.532L123.382 267.899C123.52 268.107 123.458 268.388 123.244 268.519L122.75 268.82C122.568 268.933 122.331 268.896 122.189 268.736C121.897 268.407 121.355 268.661 121.423 269.096L121.445 269.243C121.474 269.434 121.377 269.622 121.204 269.706L116.835 271.863C116.805 271.877 116.776 271.888 116.744 271.896C116.471 271.964 115.129 272.245 114.537 271.396C114.507 271.354 114.487 271.306 114.476 271.256L114.48 271.254Z" fill="#FEBAC7"/>
<path d="M145.275 271.254L146.093 267.951C146.15 267.725 146.019 267.493 145.795 267.424L144.675 267.076C144.519 267.028 144.403 266.896 144.372 266.736L144.183 265.71C144.144 265.501 143.962 265.35 143.749 265.35H142.833C142.681 265.35 142.539 265.271 142.46 265.142L141.902 264.249C141.775 264.047 141.508 263.981 141.302 264.104L140.243 264.732C140.107 264.813 139.94 264.815 139.804 264.738L139.183 264.391C138.981 264.278 138.727 264.339 138.6 264.532L136.372 267.9C136.234 268.107 136.297 268.389 136.51 268.519L137.004 268.821C137.186 268.933 137.424 268.896 137.565 268.736C137.857 268.407 138.4 268.661 138.332 269.096L138.31 269.243C138.28 269.435 138.378 269.622 138.55 269.707L142.92 271.863C142.949 271.878 142.979 271.889 143.01 271.896C143.284 271.964 144.626 272.245 145.218 271.396C145.247 271.354 145.267 271.306 145.278 271.256L145.275 271.254Z" fill="#FEBAC7"/>
<path d="M113.653 266.822C113.643 266.822 113.634 266.822 113.625 266.821L103.263 265.295C103.158 265.28 103.086 265.183 103.103 265.078C103.118 264.973 103.215 264.901 103.32 264.918L113.682 266.444C113.787 266.458 113.858 266.556 113.842 266.661C113.827 266.754 113.746 266.824 113.654 266.824L113.653 266.822Z" fill="white"/>
<path d="M147.018 267.372C146.928 267.372 146.847 267.308 146.831 267.214C146.812 267.111 146.88 267.012 146.985 266.993L155.41 265.491C155.513 265.471 155.612 265.541 155.63 265.646C155.649 265.749 155.581 265.848 155.476 265.866L147.051 267.368C147.04 267.37 147.029 267.372 147.018 267.372Z" fill="white"/>
<path d="M120.509 222.885C120.509 222.885 119.055 235.389 127.959 235.389C136.058 235.389 135.775 224.631 135.775 224.631C135.775 224.631 136.586 217.973 130.306 217.222C124.027 216.468 120.13 220.639 120.509 222.887V222.885Z" fill="#FEB79C"/>
<path d="M133.62 218.782C133.62 218.782 131.642 222.657 133.648 224.626C134.927 225.882 135.493 227.694 135.083 229.44L135.061 229.534C135.061 229.534 138.423 226.87 139.046 221.472C139.67 216.071 137.219 212.674 135.144 213.056C135.144 213.056 134.319 208.907 129.048 209.295C123.778 209.683 119.429 209.255 117.521 213.433C115.613 217.611 118.938 221.269 118.938 221.269C118.938 221.269 119.197 225.69 120.997 229.538L120.295 224.374C120.295 224.374 126.085 216.595 133.62 218.782Z" fill="#303B45"/>
<path d="M135.36 222.467V224.973C135.36 228.088 132.835 230.613 129.72 230.613V230.613" stroke="#303B45" stroke-width="1.25333"/>
<path d="M135.674 225.301L135.06 229.534C135.06 229.534 138.052 227.946 138.004 225.79C137.988 225.071 137.74 224.674 137.414 224.464C136.719 224.016 135.793 224.483 135.674 225.301Z" fill="#FEB79C"/>
<path d="M120.524 224.084L121.042 229.534C121.042 229.534 118.165 227.867 118.213 225.712C118.261 223.558 120.524 224.084 120.524 224.084Z" fill="#FEB79C"/>
<path d="M144.082 251.635H114.095C112.777 251.635 111.709 252.703 111.709 254.021V273.811C111.709 275.129 112.777 276.197 114.095 276.197H144.082C145.4 276.197 146.468 275.129 146.468 273.811V254.021C146.468 252.703 145.4 251.635 144.082 251.635Z" fill="#D2DCE4"/>
<path d="M145.889 277.353H112.286C111.966 277.353 111.709 277.094 111.709 276.776C111.709 276.456 111.968 276.199 112.286 276.199H145.889C146.209 276.199 146.466 276.458 146.466 276.776C146.466 277.096 146.207 277.353 145.889 277.353Z" fill="#647A8C"/>
<path d="M140.888 276.732C140.888 276.868 140.778 276.978 140.642 276.978C140.506 276.978 140.396 276.868 140.396 276.732C140.396 276.596 140.506 276.485 140.642 276.485C140.778 276.485 140.888 276.596 140.888 276.732Z" fill="#647A8C"/>
<path d="M139.803 276.485H137.814V276.978H139.803V276.485Z" fill="#647A8C"/>
<path d="M97.5958 264.335C97.2521 268.808 97.184 272.135 97.5149 272.589C97.8182 273.004 103.155 273.423 110.706 273.749L97.5958 264.337V264.335Z" fill="#9D97F4"/>
<path d="M146.175 274.32C156.423 274.203 164.349 273.754 164.86 272.806C165.226 272.127 165.004 269.622 164.425 266.203L146.175 274.32Z" fill="#9D97F4"/>
</g>
<circle cx="129.29" cy="263.208" r="2.8389" fill="#9BACBC"/>
<g filter="url(#filter6_d_50785_37324)">
<path d="M43.8665 179.938C43.8665 178.553 44.9887 177.431 46.3731 177.431L105.257 177.431C106.641 177.431 107.763 178.553 107.763 179.938V211.467C107.763 212.98 106.537 214.206 105.024 214.206H46.6062C45.0931 214.206 43.8665 212.98 43.8665 211.467V179.938Z" fill="#C6DBFF"/>
</g>
<path d="M99.0674 210.464V225.523L85.2271 211.683" fill="#C6DBFF"/>
<rect x="125.333" y="229.36" width="5.01333" height="2.50667" rx="1.25333" fill="#303B45"/>
</g>
</g>
<defs>
<filter id="filter0_dd_50785_37324" x="228.336" y="228.337" width="119.777" height="119.777" filterUnits="userSpaceOnUse" color-interpolation-filters="sRGB">
<feFlood flood-opacity="0" result="BackgroundImageFix"/>
<feColorMatrix in="SourceAlpha" type="matrix" values="0 0 0 0 0 0 0 0 0 0 0 0 0 0 0 0 0 0 127 0" result="hardAlpha"/>
<feOffset dx="6.99777" dy="6.99777"/>
<feGaussianBlur stdDeviation="6.99777"/>
<feColorMatrix type="matrix" values="0 0 0 0 0 0 0 0 0 0.296699 0 0 0 0 0.858629 0 0 0 0.08 0"/>
<feBlend mode="normal" in2="BackgroundImageFix" result="effect1_dropShadow_50785_37324"/>
<feColorMatrix in="SourceAlpha" type="matrix" values="0 0 0 0 0 0 0 0 0 0 0 0 0 0 0 0 0 0 127 0" result="hardAlpha"/>
<feOffset/>
<feGaussianBlur stdDeviation="4.89844"/>
<feComposite in2="hardAlpha" operator="out"/>
<feColorMatrix type="matrix" values="0 0 0 0 0.0354167 0 0 0 0 0.105426 0 0 0 0 0.2125 0 0 0 0.07 0"/>
<feBlend mode="normal" in2="effect1_dropShadow_50785_37324" result="effect2_dropShadow_50785_37324"/>
<feBlend mode="normal" in="SourceGraphic" in2="effect2_dropShadow_50785_37324" result="shape"/>
</filter>
<filter id="filter1_dd_50785_37324" x="88.9602" y="57.6311" width="118.586" height="94.6799" filterUnits="userSpaceOnUse" color-interpolation-filters="sRGB">
<feFlood flood-opacity="0" result="BackgroundImageFix"/>
<feColorMatrix in="SourceAlpha" type="matrix" values="0 0 0 0 0 0 0 0 0 0 0 0 0 0 0 0 0 0 127 0" result="hardAlpha"/>
<feOffset dy="5.02221"/>
<feGaussianBlur stdDeviation="6.27776"/>
<feColorMatrix type="matrix" values="0 0 0 0 0.607843 0 0 0 0 0.67451 0 0 0 0 0.737255 0 0 0 0.35 0"/>
<feBlend mode="normal" in2="BackgroundImageFix" result="effect1_dropShadow_50785_37324"/>
<feColorMatrix in="SourceAlpha" type="matrix" values="0 0 0 0 0 0 0 0 0 0 0 0 0 0 0 0 0 0 127 0" result="hardAlpha"/>
<feOffset dy="2.5111"/>
<feGaussianBlur stdDeviation="7.53331"/>
<feColorMatrix type="matrix" values="0 0 0 0 0.89625 0 0 0 0 0.930414 0 0 0 0 0.995833 0 0 0 0.5 0"/>
<feBlend mode="normal" in2="effect1_dropShadow_50785_37324" result="effect2_dropShadow_50785_37324"/>
<feBlend mode="normal" in="SourceGraphic" in2="effect2_dropShadow_50785_37324" result="shape"/>
</filter>
<filter id="filter2_d_50785_37324" x="146.074" y="77.6358" width="38.2978" height="23.5841" filterUnits="userSpaceOnUse" color-interpolation-filters="sRGB">
<feFlood flood-opacity="0" result="BackgroundImageFix"/>
<feColorMatrix in="SourceAlpha" type="matrix" values="0 0 0 0 0 0 0 0 0 0 0 0 0 0 0 0 0 0 127 0" result="hardAlpha"/>
<feOffset/>
<feGaussianBlur stdDeviation="0.908317"/>
<feColorMatrix type="matrix" values="0 0 0 0 0 0 0 0 0 0.0486432 0 0 0 0 0.221106 0 0 0 0.06 0"/>
<feBlend mode="normal" in2="BackgroundImageFix" result="effect1_dropShadow_50785_37324"/>
<feBlend mode="normal" in="SourceGraphic" in2="effect1_dropShadow_50785_37324" result="shape"/>
</filter>
<filter id="filter3_dd_50785_37324" x="200.922" y="107.902" width="164.639" height="131.449" filterUnits="userSpaceOnUse" color-interpolation-filters="sRGB">
<feFlood flood-opacity="0" result="BackgroundImageFix"/>
<feColorMatrix in="SourceAlpha" type="matrix" values="0 0 0 0 0 0 0 0 0 0 0 0 0 0 0 0 0 0 127 0" result="hardAlpha"/>
<feOffset dy="6.97258"/>
<feGaussianBlur stdDeviation="8.71572"/>
<feColorMatrix type="matrix" values="0 0 0 0 0.607843 0 0 0 0 0.67451 0 0 0 0 0.737255 0 0 0 0.35 0"/>
<feBlend mode="normal" in2="BackgroundImageFix" result="effect1_dropShadow_50785_37324"/>
<feColorMatrix in="SourceAlpha" type="matrix" values="0 0 0 0 0 0 0 0 0 0 0 0 0 0 0 0 0 0 127 0" result="hardAlpha"/>
<feOffset dy="3.48629"/>
<feGaussianBlur stdDeviation="10.4589"/>
<feColorMatrix type="matrix" values="0 0 0 0 0.89625 0 0 0 0 0.930414 0 0 0 0 0.995833 0 0 0 0.5 0"/>
<feBlend mode="normal" in2="effect1_dropShadow_50785_37324" result="effect2_dropShadow_50785_37324"/>
<feBlend mode="normal" in="SourceGraphic" in2="effect2_dropShadow_50785_37324" result="shape"/>
</filter>
<filter id="filter4_d_50785_37324" x="280.521" y="137.561" width="54.1002" height="33.3151" filterUnits="userSpaceOnUse" color-interpolation-filters="sRGB">
<feFlood flood-opacity="0" result="BackgroundImageFix"/>
<feColorMatrix in="SourceAlpha" type="matrix" values="0 0 0 0 0 0 0 0 0 0 0 0 0 0 0 0 0 0 127 0" result="hardAlpha"/>
<feOffset/>
<feGaussianBlur stdDeviation="1.2831"/>
<feColorMatrix type="matrix" values="0 0 0 0 0 0 0 0 0 0.0486432 0 0 0 0 0.221106 0 0 0 0.06 0"/>
<feBlend mode="normal" in2="BackgroundImageFix" result="effect1_dropShadow_50785_37324"/>
<feBlend mode="normal" in="SourceGraphic" in2="effect1_dropShadow_50785_37324" result="shape"/>
</filter>
<filter id="filter5_dd_50785_37324" x="4.56441" y="140.626" width="210.692" height="168.218" filterUnits="userSpaceOnUse" color-interpolation-filters="sRGB">
<feFlood flood-opacity="0" result="BackgroundImageFix"/>
<feColorMatrix in="SourceAlpha" type="matrix" values="0 0 0 0 0 0 0 0 0 0 0 0 0 0 0 0 0 0 127 0" result="hardAlpha"/>
<feOffset dy="8.92295"/>
<feGaussianBlur stdDeviation="11.1537"/>
<feColorMatrix type="matrix" values="0 0 0 0 0.607843 0 0 0 0 0.67451 0 0 0 0 0.737255 0 0 0 0.35 0"/>
<feBlend mode="normal" in2="BackgroundImageFix" result="effect1_dropShadow_50785_37324"/>
<feColorMatrix in="SourceAlpha" type="matrix" values="0 0 0 0 0 0 0 0 0 0 0 0 0 0 0 0 0 0 127 0" result="hardAlpha"/>
<feOffset dy="4.46147"/>
<feGaussianBlur stdDeviation="13.3844"/>
<feColorMatrix type="matrix" values="0 0 0 0 0.89625 0 0 0 0 0.930414 0 0 0 0 0.995833 0 0 0 0.5 0"/>
<feBlend mode="normal" in2="effect1_dropShadow_50785_37324" result="effect2_dropShadow_50785_37324"/>
<feBlend mode="normal" in="SourceGraphic" in2="effect2_dropShadow_50785_37324" result="shape"/>
</filter>
<filter id="filter6_d_50785_37324" x="40.5179" y="174.083" width="70.5939" height="43.4723" filterUnits="userSpaceOnUse" color-interpolation-filters="sRGB">
<feFlood flood-opacity="0" result="BackgroundImageFix"/>
<feColorMatrix in="SourceAlpha" type="matrix" values="0 0 0 0 0 0 0 0 0 0 0 0 0 0 0 0 0 0 127 0" result="hardAlpha"/>
<feOffset/>
<feGaussianBlur stdDeviation="1.67429"/>
<feColorMatrix type="matrix" values="0 0 0 0 0 0 0 0 0 0.0486432 0 0 0 0 0.221106 0 0 0 0.06 0"/>
<feBlend mode="normal" in2="BackgroundImageFix" result="effect1_dropShadow_50785_37324"/>
<feBlend mode="normal" in="SourceGraphic" in2="effect1_dropShadow_50785_37324" result="shape"/>
</filter>
<linearGradient id="paint0_linear_50785_37324" x1="193.846" y1="135.758" x2="108.808" y2="74.6264" gradientUnits="userSpaceOnUse">
<stop stop-color="#3D7FFC"/>
<stop offset="1" stop-color="#C6DBFF"/>
</linearGradient>
<linearGradient id="paint1_linear_50785_37324" x1="346.54" y1="216.369" x2="228.478" y2="131.497" gradientUnits="userSpaceOnUse">
<stop stop-color="#3D7FFC"/>
<stop offset="1" stop-color="#C6DBFF"/>
</linearGradient>
<linearGradient id="paint2_linear_50785_37324" x1="190.914" y1="279.434" x2="39.8281" y2="170.821" gradientUnits="userSpaceOnUse">
<stop stop-color="#3D7FFC"/>
<stop offset="1" stop-color="#C6DBFF"/>
</linearGradient>
<clipPath id="clip0_50785_37324">
<rect width="376" height="376" fill="white"/>
</clipPath>
<clipPath id="clip1_50785_37324">
<rect width="98.6221" height="76.8114" fill="white" transform="translate(233.22 137.661)"/>
</clipPath>
<clipPath id="clip2_50785_37324">
<rect width="128.917" height="102.773" fill="white" transform="translate(38.8533 174.213)"/>
</clipPath>
</defs>
</svg>
