<svg width="316" height="40" viewBox="0 0 316 40" fill="none" xmlns="http://www.w3.org/2000/svg">
<rect width="40" height="40" rx="5.35902" fill="#F5F8FF"/>
<rect x="46" width="40" height="40" rx="5.35902" fill="#F5F8FF"/>
<g clip-path="url(#clip0_57570_15933)">
<path d="M69.8209 16C68.0664 16 66.4911 16.9129 66.4911 18.5882C66.4911 20.5176 69.2738 20.6494 69.2738 21.6094C69.2738 22.0141 68.8021 22.3812 68.0098 22.3812C66.8778 22.3812 66.0289 21.8729 66.0289 21.8729L65.6704 23.5671C65.6704 23.5671 66.642 24 67.9437 24C69.868 24 71.3773 23.0494 71.3773 21.3365C71.3773 19.3035 68.5852 19.1718 68.5852 18.2776C68.5852 17.9576 68.9719 17.6094 69.7643 17.6094C70.6604 17.6094 71.3962 17.9765 71.3962 17.9765L71.7546 16.3388C71.7452 16.3388 70.9434 16 69.8209 16ZM53.7474 16.1224L53.7002 16.3671C53.7002 16.3671 54.436 16.4988 55.1057 16.7718C55.9641 17.0824 56.0207 17.2612 56.1716 17.8165L57.7469 23.8682H59.8598L63.0953 16.1224H60.9918L58.9071 21.3929L58.0582 16.9224C57.9827 16.4141 57.5865 16.1224 57.096 16.1224H53.7474ZM63.9442 16.1224L62.2935 23.8682H64.3027L65.944 16.1224H63.9442ZM75.1315 16.1224C74.6505 16.1224 74.3958 16.3765 74.2071 16.8282L71.2641 23.8682H73.3676L73.7732 22.6918H76.3389L76.5842 23.8682H78.4425L76.8295 16.1224H75.1315ZM75.4051 18.2212L76.0277 21.1294H74.3581L75.4051 18.2212Z" fill="#62788A"/>
</g>
<rect x="92" width="40" height="40" rx="5.35902" fill="#F5F8FF"/>
<g clip-path="url(#clip1_57570_15933)">
<path d="M96 35H127V4H96V35Z" fill="#F5F8FF"/>
<path d="M107.23 30.0947L119.488 30.1208L121.413 27.9731L123.352 30.1126H127V26.9792L124.715 24.5149L127 22.073V19.0047L107.23 18.987V30.0947Z" fill="#62788A"/>
<path fill-rule="evenodd" clip-rule="evenodd" d="M108.55 28.877V20.2093H115.9V22.206H110.93V23.5614H115.781V25.525H110.93V26.8562H115.9V28.8769L108.55 28.877Z" fill="#F5F8FF"/>
<path d="M123.988 20.2094L121.496 22.9567L119.011 20.2094H115.863L119.93 24.5382L115.863 28.877H118.925L121.428 26.1022L123.957 28.877H127V28.7539L123.02 24.5382L127 20.2777V20.2094H123.988Z" fill="#F5F8FF"/>
<path d="M122.507 9.12777L121.489 11.9754L120.475 9.12777H114.591V12.9285L112.918 9.12777H108.152L103.257 20.2356H127V9.12777H122.507Z" fill="#62788A"/>
<path fill-rule="evenodd" clip-rule="evenodd" d="M109.385 15.317L110.538 12.5602L111.691 15.317H109.385ZM109.054 10.3345L105.208 18.9948H107.846L108.572 17.2607H112.503L113.228 18.9948H115.932L112.102 10.3345H109.054Z" fill="#F5F8FF"/>
<path d="M115.895 18.9933L118.228 18.9934V13.0446L120.44 18.9934H122.536L124.704 13.0648V19.0136L127 18.9934V10.3331H123.431L121.511 15.67L119.603 10.3459L115.895 10.3331V18.9933Z" fill="#F5F8FF"/>
</g>
<rect x="138" width="40" height="40" rx="5.35902" fill="#F5F8FF"/>
<g clip-path="url(#clip2_57570_15933)">
<path d="M161.785 12.8484H154.214V26.4356H161.785V12.8484Z" fill="#F5F8FF"/>
<path d="M154.695 19.642C154.695 17.0014 155.921 14.4808 157.988 12.8484C154.239 9.89573 148.807 10.5439 145.851 14.3127C142.895 18.0576 143.543 23.4828 147.317 26.4355C150.465 28.9081 154.864 28.9081 158.012 26.4355C155.921 24.8031 154.695 22.2826 154.695 19.642Z" fill="#62788A"/>
<path d="M172 19.642C172 24.4191 168.131 28.284 163.348 28.284C161.401 28.284 159.526 27.6358 158.012 26.4355C161.762 23.4829 162.41 18.0576 159.454 14.2888C159.022 13.7606 158.541 13.2565 158.012 12.8484C161.762 9.89576 167.217 10.5439 170.15 14.3128C171.351 15.8251 172 17.6975 172 19.642Z" fill="#62788A"/>
<path d="M171.183 24.9952V24.7071H171.303V24.6591H171.015V24.7071H171.135V24.9952H171.183ZM171.736 24.9952V24.6591H171.64L171.543 24.8992L171.447 24.6591H171.351V24.9952H171.423V24.7311L171.519 24.9472H171.592L171.688 24.7311V24.9952H171.736Z" fill="#F79E1B"/>
</g>
<rect x="184" width="40" height="40" rx="5.35902" fill="#F5F8FF"/>
<path fill-rule="evenodd" clip-rule="evenodd" d="M211.274 22.3571C214.28 23.378 215 23.4206 215 23.4206V12.4031C215 10.5314 213.476 9 211.655 9H197.345C195.524 9 194 10.5314 194 12.4031V26.8662C194 28.7379 195.524 30.2693 197.345 30.2693H211.613C213.476 30.2693 214.958 28.7379 214.958 26.8662V26.7386C214.958 26.7386 209.496 24.4415 206.744 23.0803C204.881 25.3773 202.51 26.7811 200.054 26.7811C195.863 26.7811 194.423 23.0803 196.413 20.613C196.837 20.06 197.599 19.5921 198.742 19.2943C200.52 18.8689 203.357 19.5921 206.024 20.4429C206.49 19.5496 206.913 18.5712 207.21 17.5077H198.996V16.6569H203.23V15.1681H198.107V14.3173H203.23V12.1904C203.23 12.1904 203.23 11.8075 203.611 11.8075H205.685V14.3173H210.766V15.1681H205.685V16.6569H209.835C209.454 18.3159 208.819 19.8048 208.099 21.1235C209.327 21.6339 210.427 22.0593 211.274 22.3571Z" fill="#62788A"/>
<path fill-rule="evenodd" clip-rule="evenodd" d="M198.869 20.0884C198.382 20.1291 197.408 20.3737 196.921 20.8221C195.38 22.2082 196.313 24.6949 199.437 24.6949C201.263 24.6949 203.089 23.5127 204.509 21.6375C202.48 20.6183 200.736 19.8845 198.869 20.0884Z" fill="#62788A"/>
<rect x="230" width="40" height="40" rx="5.35902" fill="#F5F8FF"/>
<path d="M233.954 21.7216V19.8843H234.747C236.228 19.8843 237.119 19.0599 237.119 17.8304C237.119 16.6707 236.221 16 234.923 16H233V21.7216H233.954ZM234.881 16.8523C235.646 16.8523 236.158 17.2016 236.158 17.9421C236.158 18.6268 235.582 19.032 234.832 19.032H233.954V16.8523H234.881ZM250.411 19.7236C250.411 18.543 249.512 17.6487 248.326 17.6487C247.182 17.6487 246.249 18.5709 246.249 19.7096C246.249 19.7236 246.249 19.7306 246.249 19.7446C246.249 20.9392 247.112 21.8055 248.326 21.8055C249.463 21.8195 250.396 20.9182 250.411 19.7865C250.418 19.7655 250.418 19.7446 250.411 19.7236ZM247.154 19.7236C247.154 19.039 247.66 18.4941 248.326 18.515C249.063 18.536 249.519 19.046 249.505 19.7236C249.491 20.4083 248.993 20.9322 248.326 20.9322C247.66 20.9322 247.154 20.4013 247.154 19.7236ZM259.428 19.9611C259.449 19.8214 259.456 19.6817 259.456 19.542C259.456 18.4242 258.6 17.6417 257.512 17.6417C256.382 17.6278 255.456 18.529 255.442 19.6537C255.442 19.6677 255.442 19.6887 255.442 19.7027C255.442 20.9182 256.256 21.7985 257.484 21.7985C258.312 21.7985 259.007 21.4073 259.295 20.8624L258.586 20.4711C258.396 20.7785 257.996 20.9881 257.54 20.9881C256.909 20.9881 256.46 20.6039 256.368 19.9542L259.428 19.9611ZM256.432 19.2695C256.551 18.7386 256.944 18.4172 257.491 18.4172C258.046 18.4172 258.467 18.7665 258.516 19.2695H256.432ZM245.246 17.7186L244.137 20.5689L243.147 17.7186H242.109L243.596 21.7216L242.979 23.1259H243.961L246.228 17.7186H245.246ZM267 17.7395C266.874 17.7046 266.74 17.6837 266.607 17.6906C266.214 17.6906 265.772 17.9142 265.582 18.2984V17.7256H264.677V21.7286H265.582V19.5839C265.582 18.8434 266.081 18.536 266.593 18.536C266.726 18.536 266.867 18.5499 266.993 18.5779C266.993 18.5849 267 17.7395 267 17.7395ZM264.011 19.9611C264.032 19.8214 264.039 19.6817 264.039 19.542C264.039 18.4242 263.182 17.6417 262.095 17.6417C260.965 17.6278 260.039 18.529 260.025 19.6537C260.025 19.6677 260.025 19.6887 260.025 19.7027C260.025 20.9182 260.839 21.7985 262.067 21.7985C262.895 21.7985 263.589 21.4073 263.877 20.8624L263.168 20.4711C262.979 20.7785 262.579 20.9881 262.123 20.9881C261.491 20.9881 261.042 20.6039 260.951 19.9542L264.011 19.9611ZM261.007 19.2695C261.126 18.7386 261.519 18.4172 262.067 18.4172C262.621 18.4172 263.042 18.7665 263.091 19.2695H261.007ZM240.67 19.7166C240.684 20.4013 240.144 20.9671 239.456 20.9881C239.435 20.9881 239.421 20.9881 239.4 20.9881C238.698 20.9881 238.228 20.4432 238.228 19.7166C238.235 19.025 238.789 18.4661 239.484 18.4591C240.193 18.4521 240.67 18.9971 240.67 19.7166ZM254.832 19.4442C254.832 18.3264 254.284 17.6487 253.26 17.6487C252.719 17.6487 252.221 17.8793 251.947 18.2426V17.7256H251.035V21.7286H251.947V19.5559C251.947 18.8853 252.432 18.4591 253.014 18.4591C253.596 18.4591 253.905 18.8503 253.905 19.514V21.7286H254.832V19.4442ZM240.67 17.7186V18.2356C240.404 17.8863 239.975 17.6417 239.337 17.6417C238.228 17.6417 237.302 18.6198 237.302 19.7725C237.302 20.9322 238.095 21.7985 239.168 21.7985C239.863 21.7985 240.382 21.554 240.677 21.1418V21.7216H241.575V17.7186H240.67Z" fill="#62788A"/>
<rect x="276" width="40" height="40" rx="5.35902" fill="#F5F8FF"/>
<path d="M302.443 18.1318C301.935 18.1479 301.404 18.3576 301.106 18.7689V16.0752H299.89V23.8821H301.106V20.5593C301.106 19.9383 301.452 19.2851 302.225 19.2206C302.588 19.1965 302.886 19.2851 303.079 19.4867C303.288 19.6964 303.385 19.9625 303.385 20.3013C303.385 21.0352 303.385 23.745 303.385 23.745V23.8821H304.601V20.3093C304.601 19.6319 304.391 19.0754 303.989 18.6802C303.602 18.3011 303.071 18.1076 302.443 18.1318Z" fill="#62788A"/>
<path d="M296.936 22.8256C295.977 22.8256 295.196 22.0433 295.196 21.0836C295.196 20.1238 295.977 19.3415 296.936 19.3415C297.515 19.3415 298.031 19.6238 298.345 20.0674L299.19 19.1802C298.651 18.535 297.837 18.1318 296.936 18.1318C295.309 18.1318 293.988 19.4545 293.988 21.0916C293.988 22.7288 295.309 24.0434 296.936 24.0434C297.902 24.0434 298.755 23.5756 299.295 22.8578L298.425 21.9707C298.127 22.4869 297.572 22.8256 296.936 22.8256Z" fill="#62788A"/>
<path d="M292.136 18.2931V18.7286C291.862 18.4544 291.154 18.0028 290.147 18.1722C288.811 18.398 287.901 19.6158 287.852 21.011C287.788 22.753 288.899 23.9305 290.292 24.0353C290.977 24.0918 291.693 23.8821 292.128 23.2531V23.8821H293.344V18.2931H292.136ZM291.75 22.3981C291.428 22.7691 291.057 22.882 290.63 22.882C289.777 22.882 289.084 22.0755 289.084 21.0836C289.084 20.0916 289.777 19.2851 290.63 19.2851C291.057 19.2851 291.428 19.398 291.75 19.769C292.072 20.14 292.176 20.5836 292.176 21.0755C292.176 21.5917 292.072 22.0352 291.75 22.3981Z" fill="#62788A"/>
<path d="M309.553 18.2931V18.7286C309.279 18.4544 308.571 18.0028 307.564 18.1722C306.227 18.398 305.318 19.6158 305.269 21.011C305.205 22.753 306.316 23.9305 307.709 24.0353C308.393 24.0918 309.11 23.8821 309.545 23.2531V23.8821H310.761V18.2931H309.553ZM309.158 22.3981C308.836 22.7691 308.466 22.882 308.039 22.882C307.186 22.882 306.493 22.0755 306.493 21.0836C306.493 20.0916 307.186 19.2851 308.039 19.2851C308.466 19.2851 308.836 19.398 309.158 19.769C309.48 20.14 309.585 20.5836 309.585 21.0755C309.585 21.5917 309.48 22.0352 309.158 22.3981Z" fill="#62788A"/>
<path d="M285.791 20.9868L281.193 16.0349C281.129 15.9623 281 16.0109 281 16.1075V23.8821H282.272V19.1399L286.87 23.995C286.934 24.0676 287.063 24.019 287.063 23.9224V16.0752H285.791V20.9868Z" fill="#62788A"/>
<path d="M34.3612 15.158L33.2828 21.9167C33.2787 21.9416 33.2802 21.967 33.287 21.9912C33.2939 22.0154 33.3059 22.0378 33.3224 22.0568C33.3388 22.0759 33.3592 22.0911 33.3822 22.1015C33.4052 22.1118 33.4301 22.1171 33.4553 22.1168H34.7315C34.7766 22.1172 34.8203 22.1014 34.8547 22.0725C34.8891 22.0435 34.912 22.0032 34.9192 21.9588L35.9975 15.2001C36.0016 15.1752 36.0001 15.1498 35.9933 15.1256C35.9865 15.1014 35.9744 15.079 35.9579 15.06C35.9415 15.0409 35.9211 15.0257 35.8981 15.0153C35.8751 15.005 35.8502 14.9998 35.825 15H34.5488C34.5036 14.9991 34.4597 15.0147 34.4251 15.0437C34.3906 15.0728 34.3679 15.1134 34.3612 15.158ZM32.9984 17.1303H31.7875C31.7425 17.1299 31.6989 17.1456 31.6645 17.1745C31.6301 17.2034 31.6073 17.2437 31.6001 17.288L31.5601 17.5368C31.5601 17.5368 30.6196 16.5195 28.9545 17.207C27.9992 17.6006 27.5406 18.4139 27.3455 19.0097C27.3455 19.0097 26.7262 20.8204 28.1268 21.817C28.1268 21.817 29.4256 22.7756 30.8881 21.758L30.8629 21.9167C30.857 21.954 30.8636 21.9922 30.8815 22.0254C30.8995 22.0586 30.9279 22.0851 30.9623 22.1007C30.9852 22.1114 31.0102 22.1168 31.0354 22.1168H32.2471C32.2923 22.1177 32.3362 22.1021 32.3708 22.0731C32.4053 22.044 32.428 22.0034 32.4347 21.9588L33.1718 17.3304C33.1759 17.3056 33.1744 17.2802 33.1675 17.256C33.1606 17.2319 33.1484 17.2095 33.1317 17.1907C33.1153 17.1714 33.0948 17.1561 33.0718 17.1456C33.0488 17.1351 33.0237 17.1301 32.9984 17.1303ZM31.2166 19.6883C31.1693 20.0117 31.0054 20.3068 30.7556 20.5182C30.5047 20.7304 30.1854 20.8449 29.8565 20.8407C29.7275 20.8422 29.5991 20.8236 29.4759 20.7855C28.9531 20.6193 28.6548 20.1221 28.7405 19.5832C28.7881 19.26 28.9522 18.9651 29.202 18.7539C29.4527 18.5416 29.7718 18.4267 30.1006 18.4302C30.2296 18.4289 30.358 18.4477 30.4812 18.486C31.0072 18.6512 31.3042 19.1491 31.2179 19.6886H31.2166V19.6883ZM24.7506 19.8162C25.4072 19.8162 26.0424 19.5835 26.5413 19.1604C27.0391 18.7387 27.3687 18.1528 27.4702 17.5092C27.6823 16.1704 26.6262 15.0019 25.129 15.0019H22.7172C22.6722 15.0015 22.6285 15.0172 22.5941 15.0462C22.5597 15.0752 22.5369 15.1155 22.5298 15.1598L21.4512 21.9186C21.4453 21.9559 21.4519 21.9941 21.4699 22.0273C21.4878 22.0605 21.5162 22.087 21.5506 22.1026C21.5738 22.1133 21.5985 22.1186 21.6238 22.1186H22.9008C22.9458 22.1191 22.9895 22.1034 23.0238 22.0744C23.0582 22.0454 23.081 22.0051 23.0881 21.9607L23.4048 19.976C23.4114 19.9314 23.4341 19.8907 23.4687 19.8616C23.5032 19.8325 23.5472 19.8169 23.5924 19.8178L24.7506 19.8162ZM25.8188 17.4483C25.74 17.9433 25.3535 18.3077 24.614 18.3077H23.6687L23.9558 16.5077H24.8842C25.6486 16.5091 25.8975 16.9555 25.8188 17.4497V17.4483Z" fill="#62788A"/>
<path d="M19.9965 17.2451L18.5359 19.6864L17.7946 17.263C17.783 17.2244 17.7591 17.1905 17.7265 17.1666C17.6939 17.1426 17.6544 17.1299 17.614 17.1303H16.2958C16.2617 17.1298 16.2286 17.1417 16.2026 17.1637C16.1766 17.1856 16.1594 17.2163 16.1542 17.2499C16.151 17.2722 16.1533 17.2949 16.1609 17.3161L17.4893 21.3981L16.2878 23.3217C16.2776 23.3376 16.2707 23.3553 16.2676 23.3739C16.2645 23.3924 16.2653 23.4114 16.2698 23.4297C16.2744 23.448 16.2826 23.4651 16.294 23.4801C16.3054 23.4951 16.3197 23.5076 16.3362 23.5169C16.3581 23.5295 16.3831 23.536 16.4085 23.5357H17.8282C17.8687 23.5358 17.9086 23.5255 17.944 23.5058C17.9793 23.4861 18.009 23.4576 18.0301 23.4231L21.7404 17.3453C21.7539 17.3242 21.7613 17.2998 21.7618 17.2747C21.7623 17.2497 21.7559 17.2249 21.7434 17.2032C21.7309 17.1815 21.7127 17.1634 21.6908 17.151C21.6689 17.1386 21.6441 17.1323 21.6189 17.1327H20.1997C20.159 17.1323 20.1189 17.1425 20.0833 17.1622C20.0477 17.1819 20.0178 17.2104 19.9965 17.2451ZM15.5486 17.1303H14.3366C14.2915 17.1299 14.2478 17.1456 14.2134 17.1746C14.1789 17.2037 14.1561 17.2441 14.149 17.2885L14.1098 17.5371C14.1098 17.5371 13.1685 16.5198 11.5033 17.2073C10.5483 17.6009 10.0895 18.4141 9.89516 19.0099C9.89516 19.0099 9.27533 20.8206 10.6757 21.8172C10.6757 21.8172 11.9748 22.7758 13.4373 21.7582L13.412 21.917C13.4061 21.9543 13.4126 21.9925 13.4305 22.0257C13.4485 22.059 13.4769 22.0854 13.5115 22.1009C13.5343 22.1116 13.5593 22.117 13.5846 22.117H14.7963C14.8412 22.1173 14.8849 22.1016 14.9192 22.0726C14.9536 22.0436 14.9764 22.0034 14.9836 21.9591L15.7209 17.3306C15.7269 17.2933 15.7204 17.255 15.7024 17.2217C15.6845 17.1884 15.656 17.1619 15.6214 17.1464C15.5985 17.1359 15.5738 17.1304 15.5486 17.1303ZM13.7665 19.6888C13.7188 20.0118 13.5549 20.3064 13.3053 20.5176C13.0545 20.7298 12.7355 20.8446 12.4067 20.841C12.2779 20.8424 12.1497 20.8238 12.0267 20.7857C11.5041 20.6195 11.206 20.1224 11.2918 19.5832C11.3395 19.2592 11.5042 18.9638 11.7549 18.7525C12.0066 18.5402 12.3266 18.4258 12.6562 18.4305C12.7852 18.4291 12.9139 18.4479 13.037 18.4862C13.5577 18.6514 13.8542 19.1491 13.7681 19.6888H13.7665ZM7.3008 19.8164C7.95634 19.8161 8.59043 19.5834 9.08986 19.1598C9.58724 18.7381 9.91647 18.1524 10.0177 17.5092C10.2301 16.1707 9.17373 15.0021 7.67711 15.0021H5.26499C5.21998 15.0017 5.17631 15.0174 5.14189 15.0463C5.10746 15.0752 5.08458 15.1155 5.07738 15.1598L4.00222 21.9167C3.99621 21.954 4.0027 21.9923 4.02067 22.0256C4.03865 22.0589 4.06711 22.0854 4.10167 22.1009C4.12452 22.1114 4.14952 22.117 4.17478 22.117H5.45099C5.49608 22.1174 5.53982 22.1017 5.57425 22.0727C5.60869 22.0436 5.63153 22.0032 5.63861 21.9588L5.95471 19.9741C5.96142 19.9295 5.98416 19.8889 6.01869 19.8599C6.05321 19.8308 6.09716 19.8153 6.14232 19.8162L7.3008 19.8164ZM8.36897 17.4483C8.29022 17.9433 7.90397 18.3077 7.16453 18.3077H6.21919L6.50572 16.5077H7.43412C8.19883 16.509 8.44746 16.9557 8.36897 17.4496V17.4483Z" fill="#62788A"/>
<defs>
<clipPath id="clip0_57570_15933">
<rect width="24.7423" height="8" fill="white" transform="translate(53.7002 16)"/>
</clipPath>
<clipPath id="clip1_57570_15933">
<rect width="31" height="31" fill="white" transform="translate(96 4)"/>
</clipPath>
<clipPath id="clip2_57570_15933">
<rect width="28" height="17.284" fill="white" transform="translate(144 11)"/>
</clipPath>
</defs>
</svg>
