<?xml version="1.0" encoding="utf-8"?>
<!-- Generator: Adobe Illustrator 27.5.0, SVG Export Plug-In . SVG Version: 6.00 Build 0)  -->
<svg version="1.1" id="Layer_1" xmlns="http://www.w3.org/2000/svg" xmlns:xlink="http://www.w3.org/1999/xlink" x="0px" y="0px"
	 viewBox="0 0 166 44" style="enable-background:new 0 0 166 44;" xml:space="preserve">
<style type="text/css">
	.st0{fill:none;}
	.st1{fill:#B02083;}
</style>
<rect x="8.6" y="13.2" class="st0" width="150.8" height="20.1"/>
<g>
	<path class="st1" d="M21.5,29.3c-1.2,0-2.5,0-3.7,0c-0.4,0-0.9-0.1-1.3-0.2c-1-0.2-1.4-0.8-1.2-1.9c0.2-1.4,0.5-2.9,0.8-4.3
		c0.5-2.2,0.9-4.4,1.4-6.6c0.1-0.4,0.2-0.9,0.4-1.3c0.4-1,1.1-1.5,2.2-1.6c0.6-0.1,1.3-0.1,1.9-0.1c1.9,0,3.9,0,5.8,0
		c0.7,0,1.4,0.1,2,0.2c0.9,0.2,1.2,0.6,1.3,1.5c0.1,0.7-0.1,1.3-0.2,2c-0.7,3-1.3,6.1-2,9.1c-0.1,0.5-0.3,1-0.4,1.4
		c-0.4,1.1-1.2,1.6-2.3,1.7c-1.1,0.1-2.2,0.1-3.3,0.1C22.5,29.3,22,29.3,21.5,29.3L21.5,29.3L21.5,29.3z M24.3,16.1
		c-0.7,0-1.5,0-2.2,0s-1.1,0.3-1.3,1c-0.1,0.2-0.1,0.4-0.1,0.5c-0.5,2.2-0.9,4.4-1.4,6.6c-0.1,0.4-0.2,0.9-0.2,1.3
		c-0.1,0.5,0.1,0.8,0.6,0.9c0.2,0,0.4,0.1,0.6,0.1c1.3,0,2.6,0,3.9,0c0.2,0,0.4,0,0.6-0.1c0.4-0.1,0.7-0.3,0.8-0.6
		c0.1-0.3,0.2-0.6,0.3-0.9c0.5-2.1,0.9-4.2,1.4-6.3c0.1-0.6,0.2-1.2,0.3-1.8c0-0.4-0.1-0.5-0.5-0.6c-0.2,0-0.3-0.1-0.5-0.1
		C25.8,16.1,25,16.1,24.3,16.1z"/>
	<path class="st1" d="M37.7,29.3c-1.2,0-2.5,0-3.7,0c-0.4,0-0.9-0.1-1.3-0.2c-1-0.2-1.4-0.8-1.2-2c0.2-1.4,0.5-2.7,0.8-4
		c0.5-2.3,1-4.6,1.5-6.9c0.1-0.4,0.2-0.8,0.4-1.2c0.4-1,1.1-1.5,2.2-1.7c0.6-0.1,1.2-0.1,1.8-0.1c2,0,4,0,6,0c0.6,0,1.3,0.1,1.9,0.2
		c0.9,0.2,1.2,0.6,1.3,1.5c0,0.7-0.1,1.5-0.3,2.2c-0.6,3-1.3,5.9-1.9,8.9c-0.1,0.5-0.3,1-0.4,1.5c-0.4,1-1.2,1.6-2.3,1.7
		c-0.7,0.1-1.4,0.1-2.2,0.1C39.4,29.3,38.6,29.3,37.7,29.3L37.7,29.3L37.7,29.3z M38.3,26.4c0.8,0,1.7,0,2.5,0
		c0.4,0,0.7-0.2,0.9-0.6c0.1-0.3,0.2-0.6,0.3-0.9c0.5-2.1,0.9-4.2,1.4-6.3c0.1-0.6,0.2-1.2,0.3-1.8c0-0.4-0.1-0.6-0.5-0.6
		c-0.1,0-0.2-0.1-0.4-0.1c-1.5,0-3,0-4.5,0c-0.7,0-1,0.3-1.3,0.9c-0.1,0.4-0.2,0.9-0.3,1.3c-0.5,2.3-1,4.7-1.5,7
		c-0.1,0.6,0.1,0.9,0.7,1C36.7,26.4,37.5,26.4,38.3,26.4z"/>
	<path d="M60.9,29.3c0.2-1,0.4-1.9,0.6-2.9c0.3,0,0.5,0,0.8,0c1,0,2,0,3,0c0.7,0,1-0.3,1.1-0.9c0.3-1.4,0.7-2.9,0.9-4.4
		c0.1-0.7-0.1-1-0.8-1c-1.6,0-3.3,0-5,0c-0.9,4.4-1.9,8.8-2.8,13.2h-3.4c0.1-0.4,0.1-0.8,0.2-1.1c1-4.9,2.1-9.9,3.1-14.8
		c0-0.2,0.1-0.2,0.3-0.2c3,0,6,0,9.1,0c0.5,0,1,0,1.5,0.1c1.2,0.2,1.7,0.8,1.6,2.1c-0.1,1.1-0.4,2.1-0.6,3.2c-0.3,1.3-0.6,2.7-0.9,4
		c0,0.2-0.1,0.4-0.2,0.6c-0.4,1.2-1.3,1.8-2.5,1.9c-0.6,0.1-1.2,0.1-1.9,0.1c-1.3,0-2.6,0-3.9,0L60.9,29.3L60.9,29.3z"/>
	<path d="M118.4,26.4h0.3c2.8,0,5.7,0,8.5,0c0.4,0,0.8-0.1,1.1-0.3c0.3-0.2,0.4-0.5,0.3-0.8c-0.1-0.3-0.4-0.4-0.7-0.5
		c-0.2,0-0.3,0-0.5,0c-1.7,0-3.5,0-5.2,0c-0.6,0-1.2-0.1-1.7-0.4c-1-0.5-1.5-1.5-1.2-2.5c0.2-0.8,0.4-1.7,0.6-2.5
		c0.4-1.3,1.4-2,2.7-2.1c0.5,0,1.1-0.1,1.6-0.1c3,0,6,0,9,0c0.1,0,0.2,0,0.3,0c-0.2,1-0.4,1.9-0.6,2.9c-0.1,0-0.2,0-0.3,0
		c-2.8,0-5.6,0-8.4,0c-0.5,0-0.9,0.1-1.2,0.4c-0.3,0.2-0.4,0.5-0.3,0.8s0.4,0.4,0.7,0.5c0.2,0,0.5,0,0.7,0c1.8,0,3.6,0,5.5,0
		c1.4,0,2.3,0.9,2.3,2.4c0,1.2-0.3,2.4-0.8,3.5c-0.4,0.9-1.2,1.4-2.1,1.5c-0.7,0.1-1.5,0.1-2.2,0.1c-3,0-6,0-8.9,0h-0.3
		C118,28.4,118.2,27.4,118.4,26.4L118.4,26.4z"/>
	<path d="M100.9,24.7h-8c0.2-1,0.4-1.9,0.6-2.9h4.7c0.1-0.3,0.1-0.6,0.1-0.8c0-0.4-0.1-0.6-0.5-0.7c-0.2-0.1-0.5-0.1-0.7-0.1
		c-1.3,0-2.5,0-3.8,0c-0.7,0-1,0.3-1.2,0.9c-0.2,0.9-0.4,1.8-0.6,2.7c-0.1,0.4-0.2,0.9-0.3,1.3v0.1c0,0.9,0.1,1.1,1,1.2
		c0.3,0,0.5,0,0.8,0c2.2,0,4.4,0,6.7,0c0.1,0,0.2,0,0.3,0c-0.2,1-0.4,1.9-0.6,2.9c-0.1,0-0.2,0-0.3,0c-2.8,0-5.7,0-8.5,0
		c-0.5,0-1.1-0.1-1.6-0.1c-1.2-0.2-1.6-0.8-1.5-2c0.2-1.2,0.4-2.3,0.7-3.5c0.2-1.2,0.5-2.4,0.8-3.5c0.4-1.8,1.5-2.7,3.4-2.8
		c0.5,0,1-0.1,1.5-0.1c1.9,0,3.8,0,5.7,0c0.4,0,0.8,0.1,1.1,0.2c1,0.2,1.4,0.9,1.3,1.9c-0.1,0.6-0.2,1.2-0.3,1.8
		C101.5,22.3,101.2,23.5,100.9,24.7L100.9,24.7z"/>
	<path d="M77.3,17.3c-0.1,0.5-0.2,0.9-0.3,1.4c0.2-0.3,0.5-0.5,0.7-0.7c0.5-0.4,1.1-0.7,1.8-0.7c1.4,0,2.9,0,4.3,0
		c0.5,0,0.9,0.1,1.4,0.1c1.1,0.2,1.5,0.8,1.4,1.9c-0.1,0.9-0.3,1.7-0.4,2.6c-0.5,2.4-1,4.9-1.6,7.3c0,0.1-0.1,0.2-0.2,0.2
		c-1,0-2.1,0-3.1,0h-0.1c0.1-0.4,0.2-0.8,0.2-1.1c0.5-2.2,1-4.5,1.4-6.8c0-0.2,0.1-0.4,0.1-0.6c0-0.3-0.2-0.5-0.5-0.6
		c-0.3,0-0.6-0.1-0.9-0.1c-1.2,0-2.3,0-3.5,0c-0.2,0-0.4,0-0.6,0.1c-0.5,0.1-0.8,0.3-0.9,0.8c-0.2,0.7-0.3,1.4-0.5,2.2
		c-0.4,2-0.9,4-1.3,6c0,0.1,0,0.1-0.1,0.2h-3.4c0.1-0.4,0.1-0.7,0.2-1.1c0.8-3.6,1.6-7.2,2.3-10.8c0-0.1,0.1-0.2,0.2-0.2
		C75.1,17.3,76.2,17.3,77.3,17.3L77.3,17.3z"/>
	<path d="M108.1,17.2c-0.2,0.8-0.3,1.5-0.5,2.3c-0.4,1.8-0.8,3.7-1.2,5.5c0,0.2-0.1,0.4-0.1,0.6c0,0.4,0.2,0.6,0.5,0.7
		c0.2,0,0.4,0.1,0.6,0.1c1.3,0,2.6,0,4,0c0.8,0,1.1-0.3,1.3-1c0.2-1,0.4-1.9,0.7-2.9c0.4-1.7,0.7-3.4,1.1-5c0-0.1,0.1-0.2,0.2-0.2
		c1.1,0,2.2,0,3.3,0c-0.1,0.4-0.2,0.8-0.2,1.1c-0.8,3.6-1.5,7.2-2.3,10.7c0,0.1,0,0.2-0.2,0.2c-1.1,0-2.1,0-3.2,0c0,0,0,0-0.1,0
		c0.1-0.5,0.2-0.9,0.3-1.4c-0.1,0.2-0.2,0.3-0.3,0.4c-0.6,0.7-1.3,1-2.2,1c-1.4,0-2.8,0-4.2,0c-0.6,0-1.2-0.1-1.7-0.2
		c-0.8-0.2-1.2-0.7-1.2-1.5c0-0.7,0.2-1.5,0.3-2.2c0.6-2.6,1.1-5.2,1.7-7.9c0-0.2,0.1-0.3,0.4-0.3c0.9,0,1.9,0,2.8,0
		C107.9,17.2,108.1,17.2,108.1,17.2z"/>
	<path class="st1" d="M145.2,17.1h3.3c-0.1,0.4-0.2,0.9-0.3,1.3c-0.1,0.5-0.2,0.9-0.3,1.4c0,0.2-0.1,0.2-0.3,0.2c-0.9,0-1.9,0-2.8,0
		c-0.2,0-0.3,0.1-0.4,0.3c-0.6,2.9-1.2,5.9-1.9,8.8c0,0.1-0.1,0.2-0.2,0.2c-1,0-2.1,0-3.1,0c0,0,0,0-0.1,0c0.1-0.5,0.2-1,0.3-1.5
		c0.7-3.3,1.4-6.5,2.1-9.8c0.2-0.9,0.4-1.8,0.7-2.6c0.4-1.3,1.4-1.9,2.7-2c1.4-0.1,2.8-0.1,4.2-0.1c0,0,0.1,0,0.2,0
		c-0.1,0.5-0.2,1-0.3,1.5c-0.1,0.4-0.2,0.8-0.2,1.2c0,0.2-0.1,0.2-0.3,0.2c-0.6,0-1.3,0-1.9,0.1c-0.3,0-0.6,0.2-0.9,0.3
		C145.4,16.6,145.3,16.8,145.2,17.1L145.2,17.1z"/>
	<path class="st1" d="M50,29.3c0.9-4.4,1.9-8.7,2.8-13.2c-0.2,0-0.3,0-0.5,0c-0.7,0-1.3,0-2,0c-0.2,0-0.3-0.1-0.2-0.3
		c0.2-0.8,0.3-1.6,0.5-2.4c0-0.1,0.1-0.2,0.2-0.2c2,0,3.9,0,5.9,0c0,0,0,0,0.1,0c-0.1,0.4-0.2,0.8-0.3,1.2
		c-0.7,3.4-1.4,6.8-2.2,10.1c-0.3,1.5-0.6,3-1,4.5c0,0.1-0.1,0.2-0.2,0.2c-1,0-2,0-3.1,0C50.1,29.3,50,29.3,50,29.3L50,29.3z"/>
	<path class="st1" d="M11.4,16.1H8.6c0.2-1,0.4-1.9,0.6-2.9h6.2c-0.1,0.3-0.1,0.6-0.2,0.9c-0.8,3.8-1.6,7.6-2.4,11.4
		c-0.3,1.2-0.5,2.4-0.8,3.5c0,0.1-0.1,0.2-0.2,0.2c-1,0-2.1,0-3.1,0c0,0,0,0-0.1,0C9.5,24.9,10.5,20.5,11.4,16.1z"/>
	<path class="st1" d="M153.5,17.3c-0.1,0.5-0.2,1-0.3,1.4c0,0,0,0,0.1,0c0.1-0.1,0.2-0.2,0.3-0.3c0.6-0.7,1.3-1.1,2.2-1.1
		c1.1,0,2.2,0,3.3,0c0.1,0,0.2,0,0.3,0c-0.1,0.5-0.2,1-0.3,1.4s-0.2,0.8-0.2,1.2c0,0.2-0.1,0.3-0.3,0.3c-1.2,0-2.4,0-3.6,0
		c-0.4,0-0.8,0-1.3,0.1s-0.9,0.3-1,0.8c-0.2,0.7-0.3,1.3-0.5,2c-0.4,2-0.9,4-1.3,6.1c0,0.1-0.1,0.2-0.2,0.2c-1,0-2,0-3.1,0
		c0,0-0.1,0-0.2,0c0.1-0.4,0.2-0.8,0.2-1.1c0.8-3.5,1.5-7,2.3-10.6c0.1-0.2,0.1-0.3,0.4-0.3c0.9,0,1.8,0,2.8,0
		C153.2,17.3,153.3,17.3,153.5,17.3L153.5,17.3z"/>
	<path class="st1" d="M133.2,29.3c0.1-0.4,0.2-0.8,0.2-1.1c0.1-0.5,0.2-0.9,0.3-1.4c0-0.1,0.1-0.2,0.2-0.2c1,0,2.1,0,3.1,0h0.1
		c-0.1,0.6-0.2,1.1-0.4,1.7c-0.1,0.3-0.1,0.6-0.2,0.8c0,0.1-0.1,0.2-0.2,0.2C135.4,29.3,134.4,29.3,133.2,29.3L133.2,29.3z"/>
</g>
</svg>
