<svg width="90" height="44" viewBox="0 0 90 44" fill="none" xmlns="http://www.w3.org/2000/svg">
<g id="Hunter-fan_logo_color 1" clip-path="url(#clip0_8547_12195)">
<g id="Group">
<g id="Clip path group">
<mask id="mask0_8547_12195" style="mask-type:luminance" maskUnits="userSpaceOnUse" x="0" y="5" width="91" height="32">
<g id="SVGID_00000080188521685948762090000006031056743497523365_">
<path id="Vector" d="M90.1004 5.20001H0.400391V37H90.1004V5.20001Z" fill="white"/>
</g>
</mask>
<g mask="url(#mask0_8547_12195)">
<g id="Group_2">
<path id="Vector_2" d="M72.3008 19.6C72.3008 19.7 72.3008 19.7 72.3008 19.7C72.1008 20 72.0008 20.5 71.8008 20.7C71.5008 20.9 71.1008 20.8 70.7008 20.8C70.1008 20.8 69.5008 20.8 69.0008 20.8C68.8008 20.8 68.7008 20.9 68.6008 21C67.5008 23.4 66.4008 25.7 65.3008 28.1C65.1008 28.4 65.1008 28.8 65.0008 29.2C64.9008 29.6 65.3008 30 65.8008 29.9C66.1008 29.9 66.4008 29.8 66.6008 29.7C67.5008 29.2 68.4008 28.6 69.1008 27.9C69.2008 27.8 69.3008 27.6 69.3008 27.5C69.4008 26.1 69.9008 24.8 70.6008 23.6C71.6008 22 72.9008 20.8 74.6008 20.1C75.6008 19.7 76.6008 19.5 77.7008 19.7C79.4008 19.9 80.3008 21.3 79.7008 23C79.2008 24.5 78.2008 25.4 76.7008 25.8C75.5008 26.2 74.4008 26.1 73.2008 26.1C73.0008 26.1 72.9008 26.1 72.7008 26.1C72.3008 26.1 72.3008 26.1 72.2008 26.5C72.1008 27.2 72.0008 27.9 72.2008 28.5C72.4008 29.4 73.1008 29.9 74.0008 30C75.5008 30.1 76.7008 29.4 77.7008 28.5C78.8008 27.6 79.6008 26.5 80.4008 25.3C81.2008 24 82.0008 22.7 82.8008 21.3C82.8008 21.2 82.8008 21.1 82.8008 21C82.2008 20.5 82.0008 19.8 82.0008 19.1C82.0008 18.5 82.2008 17.9 82.6008 17.4C83.0008 16.9 83.5008 16.6 84.2008 16.8C84.7008 16.9 84.9008 17.2 85.0008 17.6C85.1008 18.2 85.0008 18.8 84.8008 19.4C84.6008 19.8 84.5008 20.2 84.2008 20.7C84.8008 20.6 85.3008 20.6 85.8008 20.5C86.5008 20.3 87.2008 20 87.9008 19.7C88.6008 19.4 89.3008 19.6 89.8008 20.2C90.0008 20.5 90.1008 20.8 89.9008 21.1C89.7008 21.4 89.5008 21.8 89.3008 22.1C88.1008 23.8 86.9008 25.6 85.9008 27.5C85.7008 27.9 85.5008 28.4 85.4008 28.9C85.3008 29.5 85.6008 29.8 86.2008 29.8C86.7008 29.8 87.2008 29.6 87.6008 29.3C87.9008 29.1 88.2008 28.8 88.6008 28.6C88.7008 28.6 88.7008 28.5 88.8008 28.5C89.0008 28.4 89.2008 28.3 89.3008 28.4C89.5008 28.6 89.4008 28.8 89.2008 28.9C88.6008 29.6 87.9008 30.2 87.1008 30.7C86.5008 31.1 85.9008 31.3 85.2008 31.4C83.5008 31.7 82.3008 30.5 82.5008 28.8C82.6008 27.6 83.1008 26.5 83.7008 25.5C84.5008 24.1 85.4008 22.8 86.3008 21.4C86.4008 21.3 86.5008 21.1 86.6008 20.9C86.5008 20.9 86.4008 20.9 86.3008 20.9C85.5008 21.1 84.7008 21.2 83.8008 21.2C83.7008 21.2 83.6008 21.3 83.5008 21.4C83.0008 22.3 82.5008 23.3 81.9008 24.2C80.9008 26 79.7008 27.6 78.2008 29C76.9008 30.2 75.5008 31.2 73.6008 31.3C71.8008 31.5 70.2008 30.9 69.4008 29.2C69.3008 29 69.3008 28.9 69.2008 28.6C69.1008 28.7 69.0008 28.9 68.9008 29C67.7008 30.1 66.4008 31 64.8008 31.4C63.3008 31.7 62.2008 31 61.9008 29.6C61.8008 29.4 61.9008 29.1 61.9008 28.8C61.6008 29 61.4008 29.3 61.2008 29.5C60.2008 30.4 59.1008 31.1 57.8008 31.4C56.0008 32 55.0008 30.6 55.2008 29C55.4008 27.7 55.9008 26.5 56.6008 25.4C57.1008 24.6 57.6008 23.8 58.0008 23C58.2008 22.7 58.3008 22.3 58.3008 21.9C58.4008 21.3 58.1008 21 57.5008 21C57.0008 21 56.5008 21.2 56.1008 21.5C55.1008 22.2 54.4008 23.2 53.8008 24.3C53.0008 26 52.2008 27.7 51.3008 29.4C51.0008 30 50.7008 30.6 50.5008 31.2C50.4008 31.4 50.3008 31.5 50.0008 31.5C49.4008 31.5 48.7008 31.5 48.1008 31.5C47.9008 31.5 47.8008 31.5 47.5008 31.5C47.9008 30.7 48.2008 30 48.6008 29.2C48.6008 29.2 48.6008 29.2 48.5008 29.1C48.3008 29.3 48.1008 29.5 47.9008 29.7C47.0008 30.5 46.1008 31.2 45.0008 31.5C44.6008 31.6 44.1008 31.6 43.7008 31.5C42.7008 31.3 42.1008 30.6 42.1008 29.5C42.1008 29.4 42.1008 29.3 42.1008 29.1C41.9008 29.3 41.8008 29.5 41.6008 29.7C40.8008 30.6 39.9008 31.2 38.7008 31.5C38.1008 31.6 37.6008 31.6 37.0008 31.5C36.0008 31.3 35.4008 30.5 35.3008 29.4C35.3008 28.5 35.4008 27.7 35.8008 26.9C36.9008 24.5 38.0008 22.2 39.1008 19.8C39.1008 19.7 39.3008 19.6 39.3008 19.6C40.2008 19.6 41.2008 19.6 42.2008 19.6C42.1008 19.7 42.1008 19.8 42.1008 19.9C40.9008 22.5 39.7008 25.1 38.5008 27.8C38.4008 28.1 38.3008 28.4 38.2008 28.8C38.1008 29.6 38.6008 30.1 39.5008 30C40.3008 29.9 40.8008 29.4 41.3008 28.8C42.0008 28 42.5008 27 42.9008 26C43.8008 24 44.8008 21.9 45.8008 19.9C45.8008 19.8 45.9008 19.7 46.0008 19.7C47.0008 19.7 47.9008 19.7 48.9008 19.7C48.6008 20.3 48.3008 20.9 48.1008 21.5C47.1008 23.6 46.2008 25.6 45.2008 27.7C45.0008 28.1 44.9008 28.5 44.8008 28.9C44.7008 29.6 45.1008 30 45.8008 29.9C46.4008 29.8 46.9008 29.4 47.4008 29C48.6008 27.9 49.5008 26.7 50.2008 25.2C50.7008 24.1 51.2008 23 51.7008 21.8C51.8008 21.6 51.8008 21.4 51.9008 21.2C52.0008 20.9 52.0008 20.6 51.7008 20.3C51.6008 20.2 51.5008 19.9 51.5008 19.8C51.6008 19.7 51.8008 19.5 52.0008 19.5C52.8008 19.5 53.3008 19.8 53.7008 20.5C53.9008 20.8 53.9008 21.2 54.0008 21.6C54.0008 21.7 54.0008 21.8 54.1008 21.8C54.6008 21.4 55.0008 21 55.4008 20.6C56.2008 20 57.0008 19.5 58.0008 19.4C58.4008 19.3 58.8008 19.3 59.2008 19.4C60.2008 19.6 60.8008 20.3 60.9008 21.3C61.0008 22.2 60.8008 23 60.4008 23.8C59.8008 25 59.1008 26.2 58.4008 27.4C58.2008 27.8 58.0008 28.3 57.9008 28.7C57.8008 29.3 58.1008 29.7 58.7008 29.6C59.1008 29.5 59.6008 29.4 59.9008 29.1C61.3008 28.2 62.4008 26.9 63.1008 25.4C63.8008 23.9 64.5008 22.3 65.3008 20.8C65.3008 20.7 65.4008 20.6 65.4008 20.5H62.9008C63.1008 20.1 63.3008 19.7 63.5008 19.4C63.5008 19.3 63.7008 19.3 63.8008 19.3C64.5008 19.3 65.1008 19.3 65.8008 19.3C66.0008 19.3 66.1008 19.2 66.2008 19.1C67.0008 17.4 67.8008 15.7 68.6008 14.1C68.7008 13.8 68.9008 13.7 69.2008 13.6C70.1008 13.3 71.1008 13.1 72.1008 12.8C72.1008 12.8 72.2008 12.8 72.3008 12.8C71.2008 15 70.2008 17.2 69.2008 19.4L72.3008 19.6ZM72.6008 25.1C72.7008 25.1 72.8008 25.1 72.8008 25.1C73.7008 25.1 74.6008 25 75.4008 24.7C76.7008 24.2 77.6008 23.3 78.0008 21.9C78.2008 21 77.6008 20.4 76.7008 20.6C76.1008 20.7 75.7008 20.9 75.2008 21.2C74.3008 21.9 73.6008 22.8 73.1008 23.8C72.9008 24.3 72.8008 24.7 72.6008 25.1ZM83.5008 20.2C83.7008 19.8 83.8008 19.4 83.9008 19.1C84.0008 18.8 83.9008 18.4 83.7008 18.4C83.5008 18.3 83.2008 18.6 83.1008 18.9C83.0008 19.3 83.1008 19.7 83.5008 20.2Z" fill="#548055"/>
<path id="Vector_3" d="M21.4007 21.3C21.0007 21.3 20.6007 21.4 20.3007 21.4C18.6007 21.5 16.9007 21.5 15.3007 20.8C14.9007 20.6 14.5007 20.4 14.2007 20.2C12.6007 19 12.8007 17 13.9007 15.8C15.1007 14.5 16.6007 14 18.3007 14.2C18.7007 14.3 19.0007 14.4 19.2007 14.8C19.3007 15 19.2007 15.2 19.1007 15.3C19.0007 15.4 18.8007 15.4 18.7007 15.3C18.0007 14.8 17.2007 14.8 16.4007 15.3C14.9007 16.3 15.0007 18.4 16.6007 19.3C17.4007 19.8 18.3007 19.9 19.2007 19.9C20.3007 19.9 21.4007 19.8 22.5007 19.8C22.6007 19.8 22.8007 19.7 22.8007 19.6C24.5007 17.2 26.2007 14.7 27.8007 12.3C28.6007 11.1 29.2007 9.69998 29.4007 8.19998C29.5007 7.79998 29.4007 7.39998 29.4007 6.99998C29.3007 6.49998 28.8007 6.19998 28.3007 6.09998C27.4007 5.99998 26.7007 6.29998 26.0007 6.89998C25.9007 6.99998 25.9007 6.99998 25.8007 7.09998C25.7007 7.19998 25.5007 7.19998 25.4007 7.19998C25.4007 6.99998 25.3007 6.89998 25.4007 6.69998C25.4007 6.59998 25.5007 6.49998 25.6007 6.39998C26.5007 5.29998 28.4007 4.69998 29.8007 5.19998C31.0007 5.59998 31.6007 6.39998 31.8007 7.59998C32.1007 8.69998 31.9007 9.79998 31.5007 10.9C30.9007 12.8 29.9007 14.5 28.8007 16.2C28.1007 17.3 27.3007 18.3 26.6007 19.3C26.6007 19.3 26.6007 19.4 26.5007 19.4C26.6007 19.4 26.6007 19.4 26.7007 19.4C28.4007 19.1 30.2007 18.8 31.9007 18.5C32.1007 18.5 32.3007 18.3 32.4007 18.2C34.0007 15.9 35.8007 13.7 37.8007 11.8C40.1007 9.59998 42.7007 7.69998 45.6007 6.39998C47.1007 5.69998 48.7007 5.19998 50.4007 5.29998C50.8007 5.29998 51.2007 5.39998 51.6007 5.49998C53.1007 5.89998 53.7007 6.99998 53.4007 8.49998C53.1007 9.79998 52.3007 10.8 51.3007 11.7C49.1007 13.6 46.7007 14.9 44.0007 16.1C41.4007 17.2 38.7007 18.1 36.0007 18.9C35.8007 19 35.6007 19.1 35.5007 19.2C34.1007 21.6 32.7007 23.9 31.4007 26.3C30.7007 27.6 30.1007 29 29.9007 30.4C29.8007 30.9 29.8007 31.4 29.8007 31.9C29.9007 33.2 30.8007 33.9 32.1007 33.8C33.1007 33.7 34.1007 33.4 34.9007 32.7C35.1007 32.5 35.2007 32.5 35.4007 32.7C35.6007 32.8 35.5007 33 35.4007 33.2C35.3007 33.4 35.2007 33.6 35.0007 33.7C33.4007 35 31.5007 35.3 29.6007 34.7C28.2007 34.3 27.5007 33.1 27.2007 31.7C26.9007 30.3 27.1007 29 27.5007 27.6C28.1007 25.8 28.9007 24.1 29.9007 22.4C30.3007 21.7 30.8007 21 31.3007 20.2C31.4007 20.1 31.4007 20 31.5007 19.8C31.2007 20 31.0007 20 30.8007 20.1C29.1007 20.4 27.5007 20.7 25.8007 21C25.7007 21 25.5007 21.1 25.4007 21.2C23.6007 23.7 21.6007 26 19.4007 28.1C16.7007 30.7 13.8007 33 10.6007 34.8C8.90068 35.8 7.10068 36.6 5.10068 36.9C4.40068 37 3.80068 37 3.10068 36.9C1.80068 36.8 1.00068 36 0.600682 34.7C0.200682 33.2 0.400682 31.7 1.00068 30.2C2.20068 27.5 4.20068 25.5 6.80068 24.1C8.60068 23.2 10.4007 22.5 12.4007 22.4C13.4007 22.3 14.5007 22.4 15.4007 22.9C15.6007 23 15.7007 23.1 15.8007 23.3C15.9007 23.4 15.9007 23.6 15.9007 23.7C15.9007 23.8 15.7007 23.9 15.6007 23.9C15.5007 23.9 15.3007 23.9 15.2007 23.8C14.3007 23.2 13.3007 23.3 12.3007 23.4C9.20068 23.9 6.70068 25.5 4.70068 27.8C3.70068 29 2.70068 30.2 2.20068 31.7C2.00068 32.4 1.80068 33.1 1.90068 33.9C2.00068 35.1 2.70068 35.8 4.00068 35.8C5.20068 35.9 6.40068 35.5 7.50068 34.9C9.20068 34.1 10.6007 32.9 11.9007 31.7C14.8007 29.1 17.4007 26.2 19.9007 23.2C20.4007 22.6 20.9007 22.1 21.3007 21.5C21.2007 21.6 21.3007 21.5 21.4007 21.3ZM36.6007 17.3C37.2007 17.2 37.6007 17 38.1007 16.8C41.0007 15.9 43.9007 14.8 46.6007 13.4C48.0007 12.7 49.4007 12 50.5007 10.8C51.2007 10.1 51.7007 9.39998 51.9007 8.39998C52.1007 7.29998 51.5007 6.39998 50.4007 6.29998C49.5007 6.19998 48.6007 6.39998 47.8007 6.69998C46.0007 7.29998 44.4007 8.39998 43.0007 9.59998C40.6007 11.7 38.5007 14.1 36.8007 16.8C36.8007 17.1 36.7007 17.2 36.6007 17.3Z" fill="#548055"/>
<path id="Vector_4" d="M51.6004 17.1H51.5004V17C51.5004 16.9 51.5004 16.8 51.4004 16.7C51.3004 16.6 51.2004 16.6 51.1004 16.6C51.0004 16.6 51.0004 16.6 50.9004 16.6C50.8004 16.6 50.8004 16.7 50.8004 16.7V16.8C50.8004 16.9 50.8004 16.9 50.9004 17C50.9004 17.1 51.0004 17.1 51.1004 17.2L51.2004 17.3C51.3004 17.4 51.4004 17.5 51.4004 17.5C51.5004 17.6 51.5004 17.7 51.5004 17.8C51.5004 17.9 51.5004 18 51.4004 18.1C51.3004 18.2 51.3004 18.3 51.1004 18.3C51.0004 18.4 50.9004 18.4 50.7004 18.4C50.6004 18.4 50.5004 18.4 50.4004 18.3C50.3004 18.3 50.2004 18.2 50.2004 18.2L50.0004 18.3H49.9004L50.2004 17.6H50.3004V17.7C50.3004 17.8 50.3004 18 50.4004 18.1C50.5004 18.2 50.6004 18.3 50.7004 18.3C50.8004 18.3 50.8004 18.3 50.9004 18.3C51.0004 18.3 51.0004 18.2 51.0004 18.2V18.1C51.0004 18 51.0004 18 50.9004 17.9C50.9004 17.8 50.8004 17.8 50.7004 17.7L50.6004 17.6C50.5004 17.5 50.4004 17.5 50.4004 17.4C50.3004 17.3 50.3004 17.2 50.3004 17.2C50.3004 17.1 50.3004 17 50.4004 16.9C50.5004 16.8 50.5004 16.7 50.6004 16.7C50.7004 16.6 50.8004 16.6 51.0004 16.6C51.1004 16.6 51.2004 16.6 51.3004 16.6C51.4004 16.6 51.4004 16.7 51.5004 16.7L51.7004 16.6H51.8004L51.6004 17.1Z" fill="#548055"/>
<path id="Vector_5" d="M53.1016 16.6C53.0016 16.6 52.9016 16.6 52.9016 16.6C52.9016 16.6 52.8016 16.6 52.8016 16.7V16.8L52.3016 18V18.1C52.3016 18.1 52.3016 18.1 52.3016 18.2C52.3016 18.2 52.3016 18.2 52.4016 18.2H52.5016V18.3H51.6016V18.2H51.7016H51.8016C51.8016 18.2 51.9016 18.2 51.9016 18.1V18L52.4016 16.8V16.7C52.4016 16.7 52.4016 16.7 52.4016 16.6C52.4016 16.6 52.4016 16.6 52.3016 16.6H52.2016V16.5H53.1016V16.6Z" fill="#548055"/>
<path id="Vector_6" d="M55.3004 16.6C55.2004 16.6 55.1004 16.6 55.1004 16.7L55.0004 16.8C55.0004 16.8 54.9004 16.9 54.9004 17L54.4004 18.4H54.1004L53.7004 16.8L53.3004 17.9V18V18.1C53.3004 18.1 53.3004 18.2 53.4004 18.2C53.4004 18.2 53.5004 18.2 53.6004 18.2H53.7004V18.3H52.9004V18.2H53.0004C53.1004 18.2 53.1004 18.2 53.1004 18.1L53.2004 18C53.2004 18 53.3004 17.9 53.3004 17.8L53.7004 16.7V16.6C53.7004 16.6 53.7004 16.6 53.7004 16.5H53.6004H53.5004V16.4H54.3004L54.6004 17.6L54.9004 16.8C54.9004 16.7 54.9004 16.7 54.9004 16.6V16.5C54.9004 16.5 54.9004 16.5 54.8004 16.5H54.7004H54.6004V16.4H55.4004L55.3004 16.6Z" fill="#548055"/>
<path id="Vector_7" d="M56.8004 17.2H56.7004C56.7004 17.1 56.7004 17 56.7004 17C56.7004 16.9 56.7004 16.8 56.6004 16.7C56.6004 16.6 56.5004 16.6 56.4004 16.6C56.3004 16.6 56.3004 16.6 56.2004 16.6C56.1004 16.6 56.1004 16.7 56.0004 16.7C55.9004 16.8 55.8004 16.9 55.8004 17C55.8004 17.1 55.7004 17.3 55.6004 17.4C55.6004 17.5 55.5004 17.6 55.5004 17.7C55.5004 17.9 55.6004 18.1 55.8004 18.1C55.9004 18.1 56.0004 18 56.1004 17.9C56.2004 17.8 56.3004 17.7 56.4004 17.5H56.5004C56.5004 17.6 56.4004 17.7 56.3004 17.8C56.2004 17.9 56.1004 18 56.0004 18.1C55.9004 18.2 55.8004 18.2 55.6004 18.2C55.4004 18.2 55.2004 18.1 55.1004 18C55.0004 17.9 54.9004 17.7 54.9004 17.5C54.9004 17.3 55.0004 17.1 55.0004 16.9C55.1004 16.7 55.2004 16.5 55.4004 16.4C55.6004 16.3 55.8004 16.2 56.0004 16.2C56.1004 16.2 56.2004 16.2 56.3004 16.2C56.4004 16.2 56.4004 16.3 56.5004 16.3L56.7004 16.1H56.8004V17.2Z" fill="#548055"/>
<path id="Vector_8" d="M58.7008 17.1V16.9V16.8C58.7008 16.7 58.7008 16.7 58.7008 16.7C58.7008 16.7 58.6008 16.7 58.6008 16.6C58.6008 16.6 58.5008 16.6 58.4008 16.6H58.1008L57.8008 17.3H57.9008C58.0008 17.3 58.0008 17.3 58.1008 17.3H58.2008L58.3008 17.2L58.4008 17.1H58.5008L58.3008 17.7H58.2008V17.6V17.5C58.2008 17.5 58.2008 17.5 58.1008 17.5H58.0008H57.9008L57.6008 18.3H57.9008C58.0008 18.3 58.1008 18.3 58.1008 18.3C58.2008 18.3 58.2008 18.2 58.3008 18.2C58.4008 18.1 58.4008 18.1 58.5008 18L58.6008 17.8H58.7008L58.4008 18.5H56.8008V18.4H56.9008H57.0008C57.0008 18.4 57.1008 18.4 57.1008 18.3V18.2L57.6008 16.9V16.8H57.5008H57.4008V16.7H59.0008L58.8008 17.3L58.7008 17.1Z" fill="#548055"/>
<path id="Vector_9" d="M59.7004 18.2L59.8004 18.1L60.3004 16.8C60.2004 16.8 60.1004 16.8 60.0004 16.8V16.7C60.1004 16.7 60.2004 16.7 60.3004 16.7C60.4004 16.7 60.4004 16.7 60.5004 16.6C60.6004 16.6 60.6004 16.5 60.7004 16.5H60.8004L60.7004 16.7L60.2004 18.1V18.2C60.2004 18.2 60.2004 18.2 60.2004 18.3H60.3004H60.4004V18.4H59.4004V18.3H59.5004C59.6004 18.2 59.7004 18.2 59.7004 18.2Z" fill="#548055"/>
<path id="Vector_10" d="M62.1004 17.3C62.3004 17.4 62.3004 17.6 62.3004 17.7C62.3004 17.8 62.3004 17.9 62.2004 18C62.1004 18.1 62.0004 18.2 61.9004 18.2C61.8004 18.3 61.6004 18.3 61.5004 18.3C61.4004 18.3 61.3004 18.3 61.2004 18.2C61.1004 18.2 61.0004 18.1 61.0004 18.1C60.9004 18 60.9004 18 60.9004 17.9C60.9004 17.8 60.9004 17.7 61.0004 17.6C61.1004 17.5 61.1004 17.5 61.2004 17.4C61.3004 17.3 61.4004 17.3 61.5004 17.3C61.4004 17.2 61.4004 17.2 61.4004 17.1C61.4004 17 61.3004 17 61.3004 16.9C61.3004 16.8 61.3004 16.7 61.4004 16.6C61.5004 16.5 61.5004 16.5 61.6004 16.4C61.7004 16.4 61.8004 16.3 62.0004 16.3C62.1004 16.3 62.2004 16.3 62.3004 16.3C62.4004 16.3 62.5004 16.4 62.5004 16.4C62.6004 16.5 62.6004 16.5 62.6004 16.6C62.6004 16.7 62.5004 16.8 62.5004 16.9C62.3004 17.2 62.2004 17.3 62.1004 17.3ZM61.9004 17.9C61.9004 17.8 61.9004 17.8 61.8004 17.7C61.8004 17.6 61.7004 17.6 61.6004 17.5L61.5004 17.4C61.4004 17.4 61.3004 17.5 61.2004 17.6C61.1004 17.7 61.1004 17.8 61.1004 17.9C61.1004 18 61.1004 18.1 61.2004 18.1C61.3004 18.2 61.3004 18.2 61.4004 18.2C61.5004 18.2 61.6004 18.2 61.7004 18.1C61.9004 18.1 61.9004 18 61.9004 17.9ZM62.2004 16.6C62.2004 16.6 62.1004 16.5 62.0004 16.5C61.9004 16.5 61.8004 16.5 61.8004 16.6C61.7004 16.7 61.7004 16.7 61.7004 16.8C61.7004 16.9 61.7004 16.9 61.8004 17C61.8004 17.1 61.9004 17.1 61.9004 17.2L62.0004 17.3C62.2004 17.2 62.3004 17.1 62.3004 16.9C62.3004 16.8 62.3004 16.7 62.2004 16.6Z" fill="#548055"/>
<path id="Vector_11" d="M63.8016 17.3C64.0016 17.4 64.0016 17.6 64.0016 17.7C64.0016 17.8 64.0016 17.9 63.9016 18C63.8016 18.1 63.7016 18.2 63.6016 18.2C63.5016 18.3 63.3016 18.3 63.2016 18.3C63.1016 18.3 63.0016 18.3 62.9016 18.2C62.8016 18.2 62.7016 18.1 62.7016 18.1C62.6016 18 62.6016 18 62.6016 17.9C62.6016 17.8 62.6016 17.7 62.7016 17.6C62.8016 17.5 62.8016 17.5 62.9016 17.4C63.0016 17.3 63.1016 17.3 63.2016 17.3C63.1016 17.2 63.1016 17.2 63.1016 17.1C63.1016 17 63.0016 17 63.0016 16.9C63.0016 16.8 63.0016 16.7 63.1016 16.6C63.2016 16.5 63.2016 16.5 63.3016 16.4C63.4016 16.4 63.5016 16.3 63.7016 16.3C63.8016 16.3 63.9016 16.3 64.0016 16.3C64.1016 16.3 64.2016 16.4 64.2016 16.4C64.3016 16.5 64.3016 16.5 64.3016 16.6C64.3016 16.7 64.2016 16.8 64.2016 16.9C64.1016 17.2 63.9016 17.3 63.8016 17.3ZM63.6016 17.9C63.6016 17.8 63.6016 17.8 63.5016 17.7C63.5016 17.6 63.4016 17.6 63.3016 17.5L63.2016 17.4C63.1016 17.4 63.0016 17.5 62.9016 17.6C62.8016 17.7 62.8016 17.8 62.8016 17.9C62.8016 18 62.8016 18.1 62.9016 18.1C63.0016 18.2 63.0016 18.2 63.1016 18.2C63.2016 18.2 63.3016 18.2 63.4016 18.1C63.6016 18.1 63.6016 18 63.6016 17.9ZM63.9016 16.6C63.9016 16.6 63.8016 16.5 63.7016 16.5C63.6016 16.5 63.5016 16.5 63.5016 16.6C63.4016 16.7 63.4016 16.7 63.4016 16.8C63.4016 16.9 63.4016 16.9 63.5016 17C63.5016 17.1 63.6016 17.1 63.6016 17.2L63.7016 17.3C63.9016 17.2 64.0016 17.1 64.0016 16.9C64.0016 16.8 64.0016 16.7 63.9016 16.6Z" fill="#548055"/>
<path id="Vector_12" d="M65.8012 16.7H65.9012C65.9012 16.6 65.8012 16.6 65.7012 16.6C65.6012 16.6 65.5012 16.6 65.5012 16.7C65.4012 16.8 65.4012 16.8 65.3012 16.9C65.2012 17 65.2012 17.1 65.1012 17.3C65.2012 17.2 65.3012 17.2 65.4012 17.2C65.5012 17.2 65.6012 17.2 65.7012 17.3C65.8012 17.3 65.8012 17.4 65.9012 17.4C65.9012 17.5 66.0012 17.5 66.0012 17.6C66.0012 17.7 66.0012 17.9 65.9012 18C65.8012 18.1 65.7012 18.2 65.6012 18.3C65.5012 18.4 65.3012 18.4 65.2012 18.4C65.0012 18.4 64.9012 18.4 64.8012 18.3C64.7012 18.2 64.7012 18.1 64.7012 17.9C64.7012 17.7 64.8012 17.5 64.9012 17.3C65.0012 17.1 65.1012 16.9 65.3012 16.8C65.5012 16.7 65.7012 16.6 65.9012 16.6C66.0012 16.6 66.1012 16.6 66.2012 16.7C66.3012 16.7 66.3012 16.8 66.4012 16.8C66.4012 16.9 66.5012 16.9 66.5012 17C66.5012 17.1 66.5012 17.1 66.5012 17.2C66.0012 17 66.0012 17 66.0012 17H65.9012C65.8012 17 65.8012 17 65.8012 16.9C65.8012 16.8 65.7012 16.8 65.7012 16.8V16.7C65.7012 16.7 65.7012 16.7 65.8012 16.7ZM65.0012 17.5C64.9012 17.7 64.9012 17.9 64.9012 18C64.9012 18.1 64.9012 18.1 65.0012 18.1H65.1012H65.2012C65.2012 18.1 65.3012 18.1 65.3012 18C65.3012 17.9 65.4012 17.9 65.4012 17.8C65.4012 17.7 65.5012 17.6 65.5012 17.6C65.5012 17.5 65.5012 17.5 65.5012 17.4C65.5012 17.3 65.5012 17.3 65.5012 17.3C65.5012 17.3 65.4012 17.2 65.3012 17.2C65.2012 17.2 65.2012 17.2 65.1012 17.3C65.0012 17.4 65.0012 17.5 65.0012 17.5Z" fill="#548055"/>
</g>
</g>
</g>
</g>
</g>
<defs>
<clipPath id="clip0_8547_12195">
<rect width="90" height="44" fill="white"/>
</clipPath>
</defs>
</svg>
