<svg xmlns="http://www.w3.org/2000/svg" width="48" height="48" viewBox="0 0 48 48" fill="none"><circle cx="24" cy="24" r="24" fill="#E7EEFF"></circle><path d="M14.625 22.125L14.625 24L15.875 24L15.875 22.125L14.625 22.125Z" fill="#3D7FFC"></path><path d="M17.125 22.125L17.125 24L19.625 24L19.625 22.125L17.125 22.125Z" fill="#3D7FFC"></path><path d="M17.125 25.875L17.125 27.75L21.5 27.75L21.5 25.875L17.125 25.875Z" fill="#3D7FFC"></path><path d="M17.125 29.625L17.125 31.5L22.75 31.5L22.75 29.625L17.125 29.625Z" fill="#3D7FFC"></path><path d="M14.625 25.875L14.625 27.75L15.875 27.75L15.875 25.875L14.625 25.875Z" fill="#3D7FFC"></path><path d="M14.625 29.625L14.625 31.5L15.875 31.5L15.875 29.625L14.625 29.625Z" fill="#3D7FFC"></path><path fill-rule="evenodd" clip-rule="evenodd" d="M10.25 11.5V36.5H32.7494V27.9329C32.098 28.6709 31.2322 29.2151 30.2494 29.4681V34H12.75V19H30.2494V19.7831C31.2322 20.0361 32.098 20.5803 32.7494 21.3183V11.5H10.25ZM30.2494 14V16.5H12.75V14H30.2494Z" fill="#3D7FFC"></path><path fill-rule="evenodd" clip-rule="evenodd" d="M30.5625 33.375C34.532 33.375 37.75 30.157 37.75 26.1875C37.75 22.218 34.532 19 30.5625 19C26.593 19 23.375 22.218 23.375 26.1875C23.375 30.157 26.593 33.375 30.5625 33.375ZM28.4773 29.2267C28.69 29.4395 28.9786 29.5591 29.2796 29.5592C29.5806 29.5591 29.8692 29.4395 30.082 29.2267L34.9539 24.3547L33.3492 22.75L29.2796 26.8196L27.4797 25.0197L25.875 26.6244L28.4773 29.2267Z" fill="#3D7FFC"></path></svg>