<svg xmlns="http://www.w3.org/2000/svg" width="57" height="57" viewBox="0 0 57 57" fill="none"><g id="ESG Investing"><g id="Group 114005"><g id="Group 114004"><path id="Vector" d="M31.2112 18.3824V15.9473H6.27344V18.3824H7.57954V28.5477H6.27344V30.9828H31.2112V28.5477H29.9051V18.3824H31.2112ZM14.0626 28.5477H10.1892V18.3824H14.0626V28.5477ZM20.8086 28.5477H16.6735V18.3824H20.8086V28.5477ZM27.2929 28.5477H23.4195V18.3824H27.2929V28.5477Z" fill="#3D7FFC"></path><rect id="Rectangle 8636" x="6" y="27" width="27" height="5" fill="white"></rect><path id="Vector_2" d="M5.47015 15.317H32.0014C32.5108 15.317 32.7032 14.6499 32.2721 14.3791L19.0059 6.04474C18.8404 5.94082 18.6299 5.94082 18.4657 6.04474L5.19944 14.3791C4.76835 14.6499 4.95952 15.317 5.47015 15.317ZM18.7351 8.94048C19.7885 8.94048 20.643 9.79496 20.643 10.8483C20.643 11.9017 19.7885 12.7561 18.7351 12.7561C17.6818 12.7561 16.8273 11.9017 16.8273 10.8483C16.8273 9.79496 17.6818 8.94048 18.7351 8.94048Z" fill="#C6DBFF"></path><g id="Group 112739"><path id="Path 38736" d="M28.6172 13.3115C27.3548 13.3115 26.1207 12.9372 25.0711 12.2358C24.0214 11.5345 23.2033 10.5376 22.7202 9.37131C22.2371 8.205 22.1107 6.92163 22.357 5.68349C22.6033 4.44534 23.2112 3.30804 24.1039 2.41538C24.9965 1.52273 26.1338 0.914827 27.372 0.668545C28.6101 0.422263 29.8935 0.548664 31.0598 1.03176C32.2261 1.51486 33.2229 2.33296 33.9243 3.38261C34.6257 4.43226 35 5.66631 35 6.92871C34.9981 8.62094 34.325 10.2433 33.1284 11.4399C31.9318 12.6365 30.3094 13.3096 28.6172 13.3115Z" fill="#FECE4D"></path><path id="Path 38736 (Stroke)" fill-rule="evenodd" clip-rule="evenodd" d="M25.9044 10.9886C26.7072 11.525 27.6509 11.8113 28.6163 11.8115C29.911 11.8098 31.1522 11.2947 32.0677 10.3792C32.9832 9.46373 33.4983 8.22253 33.5 6.92783C33.4998 5.96241 33.2135 5.0187 32.6771 4.21597C32.1406 3.41299 31.378 2.78715 30.4858 2.41758C29.5935 2.04801 28.6118 1.95132 27.6646 2.13972C26.7174 2.32813 25.8474 2.79317 25.1645 3.47604C24.4816 4.15892 24.0166 5.02895 23.8282 5.97612C23.6398 6.9233 23.7365 7.90507 24.1061 8.79728C24.4756 9.6895 25.1015 10.4521 25.9044 10.9886ZM35 6.92871C35 5.66631 34.6257 4.43226 33.9243 3.38261C33.2229 2.33296 32.2261 1.51486 31.0598 1.03176C29.8935 0.548664 28.6101 0.422263 27.372 0.668545C26.1338 0.914827 24.9965 1.52273 24.1039 2.41538C23.2112 3.30804 22.6033 4.44534 22.357 5.68349C22.1107 6.92163 22.2371 8.205 22.7202 9.37131C23.2033 10.5376 24.0214 11.5345 25.0711 12.2358C26.1207 12.9372 27.3548 13.3115 28.6172 13.3115C30.3094 13.3096 31.9318 12.6365 33.1284 11.4399C34.325 10.2433 34.9981 8.62094 35 6.92871Z" fill="white"></path><path id="Union" fill-rule="evenodd" clip-rule="evenodd" d="M29.2503 2.9668H27.9304V3.73047C27.6451 3.82716 27.3829 3.98859 27.1658 4.20561C26.7945 4.57692 26.5859 5.08052 26.5859 5.60563C26.5859 6.67302 27.5592 7.16012 28.27 7.51581L28.2709 7.51626C28.8299 7.79543 29.2258 8.0119 29.2258 8.24553C29.2258 8.42057 29.1563 8.58843 29.0325 8.7122C28.9088 8.83597 28.7409 8.90551 28.5659 8.90551C28.3908 8.90551 28.223 8.83597 28.0992 8.7122C27.9754 8.58843 27.9059 8.42057 27.9059 8.24553H26.5859C26.5865 8.77045 26.7953 9.2737 27.1665 9.64487C27.3834 9.86174 27.6453 10.0232 27.9304 10.12V10.8867H29.2503V10.1027C29.5164 10.0044 29.7608 9.84927 29.9652 9.64487C30.3364 9.2737 30.5452 8.77045 30.5458 8.24553C30.5458 7.17814 29.5725 6.69104 28.8618 6.33535L28.8609 6.3349C28.3019 6.05573 27.9059 5.83926 27.9059 5.60563C27.9059 5.43059 27.9754 5.26273 28.0992 5.13896C28.223 5.01519 28.3908 4.94566 28.5659 4.94566C28.7409 4.94566 28.9088 5.01519 29.0325 5.13896C29.1563 5.26273 29.2258 5.43059 29.2258 5.60563H30.5458C30.5458 5.08052 30.3372 4.57692 29.9659 4.20561C29.7613 4.00106 29.5166 3.84589 29.2503 3.74777V2.9668Z" fill="white"></path></g><g id="Group"><g id="Group_2"><g id="Group 112960"><path id="Vector_3" d="M20.3056 35.8414L15.8318 35.3527C11.3453 34.8626 8.10445 30.8337 8.59375 26.3545L13.0675 26.8432C17.5541 27.3333 20.7949 31.3622 20.3056 35.8414Z" fill="#76A5FF"></path><path id="Vector (Stroke)" fill-rule="evenodd" clip-rule="evenodd" d="M21.7153 37.599L15.6565 36.9372C10.297 36.3517 6.42134 31.5378 7.00654 26.1808L7.17969 24.5957L13.2385 25.2576C18.598 25.843 22.4737 30.6569 21.8885 36.014L21.7153 37.599ZM20.3215 34.2388C19.9895 30.4377 17.0086 27.2734 13.0653 26.8426L8.5916 26.3539C8.53235 26.8963 8.52779 27.4322 8.57353 27.9559C8.90549 31.757 11.8864 34.9214 15.8297 35.3521L20.3034 35.8408C20.3627 35.2984 20.3672 34.7626 20.3215 34.2388Z" fill="white"></path><path id="Vector_4" d="M18.9807 38.4275L23.332 36.8179C27.6954 35.2037 29.9267 30.3626 28.3152 26.0064L23.964 27.616C19.6006 29.2302 17.3692 34.0713 18.9807 38.4275V38.4275Z" fill="#9FC0FF"></path><path id="Vector (Stroke)_2" fill-rule="evenodd" clip-rule="evenodd" d="M29.2592 23.9585L29.8124 25.454C31.7304 30.6384 29.074 36.3953 23.887 38.3141L18.0403 40.477L17.4871 38.9816C15.5692 33.7971 18.2255 28.0403 23.4125 26.1214L29.2592 23.9585ZM18.5711 36.8804C17.9241 32.9802 20.1145 29.0416 23.9657 27.6169L28.317 26.0072C28.5061 26.5185 28.6423 27.0364 28.7284 27.5551C29.3754 31.4553 27.185 35.394 23.3338 36.8187L18.9825 38.4284C18.7934 37.9171 18.6572 37.3991 18.5711 36.8804Z" fill="white"></path></g><path id="Vector 1036" d="M18.9003 38.8205C19.2302 38.3634 20.561 34.11 24.2414 31.8993" stroke="white" stroke-width="0.797245" stroke-linecap="round" stroke-linejoin="round"></path><path id="Vector 1037" d="M12.7038 30.4866C14.0698 31.8061 15.7029 32.5781 17.1452 33.046" stroke="white" stroke-width="0.797245" stroke-linecap="round" stroke-linejoin="round"></path></g></g></g><path id="Vector_5" d="M16.8497 49.728C16.8497 49.728 16.8709 50.1543 16.7687 50.2708C16.618 50.441 16.2143 50.409 16.2143 50.409H11.6754C11.6754 50.409 11.3261 50.409 11.2057 50.2926C11.0797 50.1725 11.0445 49.9915 11.0448 49.6974C11.0457 49.2487 11.072 48.7632 10.9986 47.8669C10.953 47.3153 10.7635 46.8771 10.5485 46.6392C9.48197 45.4622 7.86192 44.2217 5.77191 42.46C4.48329 41.3731 3.85555 40.9232 2.47344 39.3488C1.69925 38.0188 0.690786 34.2359 0.558496 33.911C0.193354 33.0082 0.262756 32.415 0.232446 32.0689C0.14378 31.0338 -0.0428986 29.3398 0.00894094 28.9551C0.0406679 28.733 0.147746 28.3871 0.228197 28.1132C0.610053 26.7897 0.967547 24.9663 1.72729 25.0065C3.31222 25.0935 2.39186 28.8384 2.39186 28.8384C2.34172 29.5021 2.48392 29.8364 2.60573 30.5338C2.79609 31.6366 2.81904 32.1691 2.93263 32.3592C3.0298 32.5215 3.56745 33.6983 4.0697 35.0127C4.15865 35.245 4.22239 35.5013 4.35808 35.6789C4.47195 35.8308 4.65552 35.9158 4.87421 36.0619C5.8212 36.6967 7.3169 37.797 7.29367 37.7477C6.86479 36.8432 6.71777 36.4642 6.49908 36.0322C6.19569 35.4251 5.25975 33.8204 5.03766 33.4255C4.12806 31.8046 4.28613 31.0162 4.82038 30.6899C5.28014 30.4106 6.10674 30.6338 7.16761 31.7428C7.75087 32.3521 8.31233 33.7784 8.8616 34.6555C9.23213 35.2438 10.1913 35.7515 11.2587 36.4497C12.7374 37.4163 13.0796 37.5279 14.6458 38.8315C16.2772 40.1901 16.5814 41.8022 16.6922 42.5237C16.7769 43.0784 16.8015 44.3353 16.8191 44.8625C16.8602 46.0613 16.8225 48.1159 16.8225 48.1159L16.85 49.7277L16.8497 49.728Z" fill="#FFB27D"></path><path id="Vector_6" d="M21.7244 48.1159C21.7244 48.1159 21.6861 46.0616 21.7283 44.8627C21.7462 44.3347 21.7703 43.0781 21.8544 42.5237C21.9649 41.8025 22.2702 40.1901 23.9011 38.8315C25.4679 37.5279 25.8095 37.4171 27.2885 36.45C28.3559 35.7517 29.315 35.2441 29.6861 34.6557C30.2351 33.779 30.7966 32.3524 31.3798 31.7428C32.4407 30.6335 33.2673 30.4103 33.7276 30.6899C34.2622 31.0156 34.4191 31.8043 33.5098 33.426C33.2883 33.8204 32.352 35.4257 32.0484 36.0322C31.8294 36.465 31.6815 36.8435 31.2538 37.7477C31.2308 37.7964 32.7268 36.6962 33.6735 36.0613C33.8928 35.9149 34.0758 35.8302 34.1902 35.6786C34.3259 35.501 34.3891 35.2449 34.4775 35.0124C34.9803 33.6988 35.5176 32.521 35.6145 32.3592C35.7284 32.1691 35.7516 31.6374 35.942 30.5335C36.0644 29.8361 36.2066 29.5021 36.1561 28.8381C36.1561 28.8381 35.2349 25.0929 36.8204 25.0065C37.5802 24.9666 37.9377 26.7897 38.3198 28.1135C38.4005 28.3874 38.5071 28.7336 38.5393 28.9551C38.5909 29.3395 38.4034 31.0341 38.3161 32.0689C38.2844 32.4153 38.3549 33.0079 37.9884 33.911C37.8569 34.2356 36.8485 38.0185 36.0737 39.3488C34.6913 40.9235 34.0627 41.3736 32.7752 42.46C30.6861 44.2222 29.0652 45.4613 27.9989 46.6392C27.7845 46.8777 27.5936 47.3153 27.5491 47.8669C27.4763 48.7637 27.5012 49.249 27.5026 49.6977C27.5032 49.9909 27.4684 50.1719 27.3426 50.2929C27.2211 50.409 26.8718 50.409 26.8718 50.409H22.3331C22.3331 50.409 21.9289 50.4404 21.779 50.2708C21.6756 50.1546 21.6972 49.7277 21.6972 49.7277L21.7244 48.1159Z" fill="#FFB27D"></path></g></g></svg>