<svg xmlns="http://www.w3.org/2000/svg" width="57" height="57" viewBox="0 0 57 57" fill="none"><g id="Group 113990"><g id="Group 113997"><g id="Group 113998"><rect id="Rectangle 7235" y="14" width="33.5094" height="37" rx="3.49057" fill="#C6DBFF"></rect><g id="Frame 110789"><path id="Vector 254" d="M22.6791 20.2832L6.27344 20.2832" stroke="#3D7FFC" stroke-width="1.74528" stroke-linecap="square"></path><path id="Vector 257" d="M27.9149 25.1699L6.27344 25.1699" stroke="#3D7FFC" stroke-width="1.74528" stroke-linecap="square"></path><path id="Vector 258" d="M15.3489 30.0567L6.27344 30.0566" stroke="white" stroke-width="1.74528" stroke-linecap="square"></path><path id="Vector 259" d="M24.4244 34.9434L6.27344 34.9434" stroke="white" stroke-width="1.74528" stroke-linecap="square"></path><path id="Vector 260" d="M18.1414 39.8301L6.27344 39.8301" stroke="white" stroke-width="1.74528" stroke-linecap="square"></path><path id="Vector 255" d="M24.4244 44.7168L6.27344 44.7168" stroke="white" stroke-width="1.74528" stroke-linecap="square"></path></g><g id="Group 113996"><g id="Group 113955"><path id="Union" fill-rule="evenodd" clip-rule="evenodd" d="M42.9041 16.664L42.9039 16.6637L42.0067 15.0034L42.0015 14.9936C40.1576 11.5813 38.3134 8.16831 36.4671 4.75624C36.1264 4.12666 35.6333 3.48827 34.918 3.01346C34.1895 2.5299 33.3708 2.31031 32.5479 2.31653C31.726 2.31109 30.9081 2.53062 30.18 3.01393C29.465 3.48852 28.9719 4.12652 28.6313 4.75623L36.4671 4.75624L42.9039 16.6637L37.3494 12.03C36.269 10.031 35.1882 8.03206 34.1067 6.03348C33.7573 5.38782 33.2921 5.04543 32.7043 5.00435C32.6528 5.00069 32.6004 4.99934 32.547 5.0003C31.8847 4.98902 31.3684 5.33252 30.9895 6.03332C30.9036 6.19204 30.8177 6.35075 30.7318 6.50947L28.6309 4.75688C27.1184 7.55203 25.6074 10.3482 24.0967 13.1437L24.0948 13.1473L22.1946 16.6634L22.1946 16.6635C21.9072 17.1951 21.6191 17.7276 21.3305 18.2608L21.3303 18.2612C20.5576 19.689 19.7822 21.1219 19.0132 22.5558C18.0535 24.3445 18.1936 26.6078 19.8208 28.1592C20.9148 29.2025 22.198 29.3864 23.0838 29.3846C25.4494 29.3808 27.8142 29.3813 30.1815 29.3817C30.9704 29.3819 31.7596 29.382 32.5492 29.382C33.3389 29.382 34.1283 29.3819 34.9173 29.3817C37.2848 29.3813 39.6494 29.3808 42.0146 29.3846H42.0156C42.896 29.3856 44.1807 29.2045 45.2766 28.1602C46.9068 26.6074 47.0426 24.3431 46.0858 22.557L46.0849 22.5553C45.3501 21.186 44.6094 19.817 43.8713 18.4527L43.869 18.4484C43.5466 17.8526 43.2248 17.2577 42.9041 16.664ZM23.0838 29.3846L23.086 29.3845L23.0795 26.7008L23.0838 29.3846ZM21.6718 26.2179L19.8206 28.1591L19.8208 28.1592L21.6718 26.2179ZM21.3765 23.8233L19.0132 22.5558L19.0136 22.5551L21.3765 23.8233ZM42.0185 26.7006L42.0188 26.7008C42.5415 26.7014 43.0273 26.5967 43.4256 26.2169C44.0686 25.6045 44.1841 24.6905 43.7201 23.8243C42.9877 22.4595 42.2508 21.0974 41.5139 19.7353L41.5134 19.7344L41.5117 19.7313C41.1886 19.1341 40.8655 18.537 40.5428 17.9395L39.6439 16.2761L39.6413 16.2712C38.8774 14.8575 38.1135 13.4437 37.3494 12.03L37.3456 12.0268C38.1111 13.4432 38.8764 14.8595 39.6418 16.2759C39.9414 16.8304 40.241 17.3849 40.5406 17.9394C40.8639 18.5378 41.1876 19.1361 41.5112 19.7343C42.2483 21.0966 42.9854 22.459 43.7179 23.8241C44.182 24.6904 44.0664 25.6043 43.4234 26.2167C43.0256 26.5961 42.5405 26.701 42.0185 26.7006Z" fill="white"></path><path id="Vector" d="M40.5406 17.9394C38.3959 13.9703 36.2517 10.0012 34.1045 6.03332C33.725 5.33189 33.2087 4.98839 32.547 5.0003C31.8847 4.98902 31.3684 5.33252 30.9895 6.03332C28.8423 10.0012 26.6987 13.9703 24.5534 17.9394C23.4933 19.9008 22.4297 21.8596 21.3761 23.8241C20.9115 24.6898 21.0276 25.6037 21.6706 26.2167C22.0689 26.5966 22.5547 26.7019 23.0774 26.7006C26.2341 26.6956 29.3908 26.6981 32.547 26.6981C35.7037 26.6981 38.8605 26.6956 42.0166 26.7006C42.5394 26.7013 43.0251 26.5966 43.4234 26.2167C44.0664 25.6043 44.182 24.6904 43.7179 23.8241C42.6637 21.8596 41.6001 19.9008 40.5406 17.9394Z" fill="#FECE4D"></path><path id="Vector_2" d="M32.8498 23.7586C32.0539 23.7586 31.4922 23.0848 31.4922 22.2245C31.4922 21.3643 32.0539 20.6905 32.8498 20.6905C33.6457 20.6905 34.1759 21.3643 34.1759 22.2245C34.1759 23.0848 33.6142 23.7586 32.8498 23.7586ZM32.7963 10.3398C33.4399 10.3398 33.9555 10.9797 33.9345 11.7505L33.7538 18.2747C33.737 18.8906 33.316 19.3793 32.8015 19.3793C32.2881 19.3793 31.8681 18.8919 31.8492 18.2772L31.6581 11.7543C31.635 10.9822 32.1516 10.3411 32.7963 10.3411V10.3398Z" fill="white"></path></g></g></g></g></g></svg>