<svg xmlns="http://www.w3.org/2000/svg" width="57" height="57" viewBox="0 0 57 57" fill="none"><path d="M38.2578 41.3906L44.9534 49.0428" stroke="#3D7FFC" stroke-width="3"></path><circle cx="12.4348" cy="37.5666" r="12.4348" fill="#FECE4D"></circle><path d="M15.8143 43.6846C15.1098 42.459 13.7871 41.6977 12.3629 41.6977C10.9386 41.6977 9.62934 42.459 8.92488 43.6846L6.625 42.3626C7.80144 40.3169 10.0004 39.0459 12.3629 39.0459C14.7253 39.0459 16.9377 40.3169 18.1142 42.3626L15.8143 43.6846Z" fill="white"></path><path d="M5.73438 35.0661C5.73438 35.7984 6.328 36.392 7.06027 36.392C7.79254 36.392 8.38616 35.7984 8.38616 35.0661C8.38616 34.3339 7.79254 33.7402 7.06027 33.7402C6.328 33.7402 5.73438 34.3339 5.73438 35.0661Z" fill="white"></path><path d="M16.3438 35.0661C16.3438 35.7984 16.9374 36.392 17.6696 36.392C18.4019 36.392 18.9955 35.7984 18.9955 35.0661C18.9955 34.3339 18.4019 33.7402 17.6696 33.7402C16.9374 33.7402 16.3438 34.3339 16.3438 35.0661Z" fill="white"></path><circle cx="12.4348" cy="18.4348" r="12.4348" fill="#3D7FFC"></circle><path d="M12.3681 25.2164C10.0152 25.2164 7.81628 23.9467 6.63281 21.9036L8.92758 20.5739C9.63843 21.8021 10.9579 22.5646 12.3681 22.5646C13.7783 22.5646 15.1093 21.8014 15.8215 20.5732L18.1162 21.9042C16.9302 23.9474 14.7274 25.2164 12.3681 25.2164Z" fill="white"></path><path d="M5.73438 15.9343C5.73438 16.6666 6.328 17.2602 7.06027 17.2602C7.79254 17.2602 8.38616 16.6666 8.38616 15.9343C8.38616 15.202 7.79254 14.6084 7.06027 14.6084C6.328 14.6084 5.73438 15.202 5.73438 15.9343Z" fill="white"></path><path d="M16.3438 15.9343C16.3438 16.6666 16.9374 17.2602 17.6696 17.2602C18.4019 17.2602 18.9955 16.6666 18.9955 15.9343C18.9955 15.202 18.4019 14.6084 17.6696 14.6084C16.9374 14.6084 16.3438 15.202 16.3438 15.9343Z" fill="white"></path><circle cx="34.4348" cy="18.4348" r="12.4348" fill="#C6DBFF"></circle><path d="M27.7344 15.9343C27.7344 16.6666 28.328 17.2602 29.0603 17.2602C29.7925 17.2602 30.3862 16.6666 30.3862 15.9343C30.3862 15.202 29.7925 14.6084 29.0603 14.6084C28.328 14.6084 27.7344 15.202 27.7344 15.9343Z" fill="white"></path><path d="M38.3438 15.9343C38.3438 16.6666 38.9374 17.2602 39.6696 17.2602C40.4019 17.2602 40.9955 16.6666 40.9955 15.9343C40.9955 15.202 40.4019 14.6084 39.6696 14.6084C38.9374 14.6084 38.3438 15.202 38.3438 15.9343Z" fill="white"></path><path d="M38.3395 21H30.3828V23.6518H38.3395V21Z" fill="white"></path><path d="M44.5 38C44.5 40.6974 43.3778 43.1301 41.5707 44.8613C39.8629 46.4972 37.5501 47.5 35 47.5C29.7533 47.5 25.5 43.2467 25.5 38C25.5 32.7533 29.7533 28.5 35 28.5C40.2467 28.5 44.5 32.7533 44.5 38Z" fill="white" stroke="#3D7FFC" stroke-width="3"></path></svg>