<svg xmlns="http://www.w3.org/2000/svg" width="48" height="48" viewBox="0 0 48 48" fill="none"><circle cx="24" cy="24" r="24" fill="#E7EEFF"></circle><path fill-rule="evenodd" clip-rule="evenodd" d="M12.6638 16.6598H12.4744C10.5637 16.6598 9 18.1945 9 20.0705V23.3781C9 25.0425 10.2299 26.4377 11.8408 26.7322C12.0464 26.7696 12.2577 26.79 12.4744 26.79H14.3919C13.8175 25.5148 13.499 24.1045 13.499 22.6208C13.499 20.4001 14.2136 18.3431 15.4307 16.6598C17.3337 14.0276 20.4637 12.3108 24.0007 12.3108C27.5377 12.3108 30.6666 14.0276 32.5696 16.6598C33.7864 18.3431 34.5021 20.4004 34.5021 22.6208C34.5021 24.1045 34.1825 25.5151 33.6081 26.79C32.3145 29.6583 29.7265 31.8382 26.5725 32.6178C26.0581 31.7488 25.0984 31.1646 24.0007 31.1646C22.3591 31.1646 21.0274 32.4707 21.0274 34.0823C21.0274 35.6938 22.3591 37 24.0007 37C25.3412 37 26.475 36.1288 26.845 34.9312C31.2049 33.9642 34.7245 30.8262 36.1592 26.7322C37.7701 26.4377 39 25.0422 39 23.3781V20.0705C39 18.1945 37.4371 16.6598 35.5253 16.6598H35.3362C33.1679 12.6955 28.9055 10 24.0004 10C19.0954 10 14.8318 12.6955 12.6638 16.6598Z" fill="#3D7FFC"></path><circle cx="19.3359" cy="21" r="2" fill="#3D7FFC"></circle><circle cx="28.6641" cy="21" r="2" fill="#3D7FFC"></circle></svg>