<svg width="47" height="47" viewBox="0 0 47 47" fill="none" xmlns="http://www.w3.org/2000/svg">
<g clip-path="url(#clip0_10027_1409)">
<path fill-rule="evenodd" clip-rule="evenodd" d="M3.38 23.0699C1.91 21.6199 1 19.6199 1 17.4099C1 12.9899 4.63 9.3999 9.11 9.3999C13.59 9.3999 17.22 12.9799 17.22 17.4099C17.22 19.6199 16.31 21.6299 14.84 23.0699L9.11 28.7299L3.38 23.0699Z" fill="#9FC0FF"/>
<path d="M38.7401 3.34012C38.6301 3.40012 38.5601 3.45012 38.4901 3.50012C37.4901 4.12012 36.5001 4.74012 35.5201 5.37012C35.4701 5.41012 35.4401 5.40012 35.3901 5.37012C35.1001 5.13012 34.8101 4.89012 34.5101 4.67012C32.3201 3.05012 29.9101 1.94012 27.2501 1.37012C26.5901 1.23012 25.9201 1.14012 25.2501 1.07012C24.1601 0.970117 23.0701 0.970117 21.9801 1.07012C20.1001 1.23012 18.2901 1.66012 16.5501 2.39012C14.8301 3.10012 13.2601 4.07012 11.8201 5.26012C11.2001 5.77012 10.6401 6.32012 10.1101 6.90012C11.6801 7.04012 13.1401 7.53012 14.4401 8.28012C14.8201 7.96012 15.2101 7.65012 15.6301 7.37012C16.6101 6.71012 17.6401 6.19012 18.7401 5.80012C21.7101 4.75012 24.7001 4.71012 27.7001 5.63012C28.9201 6.00012 30.0601 6.53012 31.1301 7.23012C31.3801 7.40012 31.6401 7.58012 31.9101 7.76012C31.0201 8.38012 30.1401 8.99012 29.2301 9.62012C32.6601 11.3301 36.0601 13.0201 39.4701 14.7101C39.4801 14.7001 39.5001 14.6801 39.5001 14.6801C39.2801 10.9101 39.0201 7.14012 38.7401 3.36012V3.34012Z" fill="#FECE4D"/>
<path fill-rule="evenodd" clip-rule="evenodd" d="M32.0499 31.5699C30.5799 30.1199 29.6699 28.1199 29.6699 25.9099C29.6699 21.4899 33.2999 17.8999 37.7799 17.8999C42.2599 17.8999 45.8899 21.4799 45.8899 25.9099C45.8899 28.1199 44.9799 30.1299 43.5099 31.5699L37.7799 37.2299L32.0499 31.5699Z" fill="#3D7FFC"/>
<path d="M33.4901 36.5401C32.9301 37.2901 32.3101 37.9901 31.6001 38.6201C30.5401 39.5801 29.3601 40.3801 28.0601 40.9901C27.0001 41.4901 25.8901 41.8501 24.7501 42.0601C21.6601 42.6401 18.7001 42.2301 15.8701 40.8501C14.7201 40.2901 13.6701 39.5801 12.7301 38.7301C12.5001 38.5301 12.2701 38.3201 12.0401 38.0901C13.0301 37.6101 13.9901 37.1401 14.9801 36.6701C11.8501 34.4601 8.75011 32.2601 5.64011 30.0601C5.63011 30.0701 5.61011 30.0801 5.61011 30.0801C5.25011 33.8401 4.92011 37.6001 4.61011 41.3801C4.72011 41.3401 4.80011 41.3001 4.89011 41.2601C5.96011 40.7901 7.04011 40.3401 8.11011 39.8701C8.16011 39.8501 8.18011 39.8601 8.23011 39.9001C8.48011 40.1801 8.73011 40.4601 8.99011 40.7301C10.8901 42.6701 13.1101 44.1401 15.6501 45.1201C16.2901 45.3601 16.9201 45.5601 17.5801 45.7301C18.6401 46.0001 19.7101 46.1701 20.8101 46.2401C22.6901 46.3801 24.5501 46.2301 26.3801 45.7801C28.2001 45.3301 29.9001 44.6301 31.5001 43.6801C33.4201 42.5401 35.0301 41.1001 36.3601 39.3701L33.4901 36.5401Z" fill="#FECE4D"/>
</g>
<defs>
<clipPath id="clip0_10027_1409">
<rect width="44.9" height="45.29" fill="white" transform="translate(1 1)"/>
</clipPath>
</defs>
</svg>
