<svg width="385" height="197" viewBox="0 0 385 197" fill="none" xmlns="http://www.w3.org/2000/svg">
<path d="M0.927002 8.32519C0.927002 3.90961 4.50654 0.330078 8.92211 0.330078H376.697C381.113 0.330078 384.692 3.90961 384.692 8.32519V196.534H0.927002V8.32519Z" fill="#091B36"/>
<g clip-path="url(#clip0_6001_30717)">
<g opacity="0.5" filter="url(#filter0_f_6001_30717)">
<ellipse cx="284.281" cy="215.639" rx="117.456" ry="106.375" fill="#0941AB"/>
</g>
<g opacity="0.7" filter="url(#filter1_f_6001_30717)">
<ellipse cx="53.8945" cy="-4.16625" rx="100.938" ry="83.449" fill="#0941AB"/>
</g>
</g>
<g clip-path="url(#clip1_6001_30717)">
<path d="M97.1381 83.9889C97.5167 84.7084 97.3274 85.3142 97.0623 85.958C96.6458 87.0182 96.7594 88.0406 97.5167 88.9115C98.2741 89.8203 99.3343 89.9339 100.432 89.7067C101.947 89.3659 102.818 87.927 102.591 86.3366C102.477 85.5793 102.023 84.822 102.439 83.9889C102.061 84.1782 102.061 84.1782 101.606 84.9356C101.19 84.4433 100.811 83.9132 100.357 83.383C99.9781 82.9665 99.5994 82.5878 99.8266 81.9062C99.3722 82.1334 99.145 82.4364 98.9935 82.815C98.8799 83.1937 98.8042 83.5724 98.7285 83.951C98.6527 84.3297 98.4634 84.6705 98.0847 84.8977C97.8575 84.4812 97.6303 84.1782 97.1381 83.9889Z" fill="white"/>
<path d="M64.9077 106.055V88.5901L62.8491 88.2509V86.6337L68.2172 85.9555L69.1293 85.8262V86.5293V92.465C69.3377 92.2563 69.5983 92.0216 69.911 91.839C70.1977 91.6303 70.5364 91.4477 70.8752 91.2912C71.24 91.1347 71.6049 91.0043 72.0218 90.8999C72.4387 90.7956 72.8817 90.7434 73.3508 90.7434C74.1847 90.7434 74.9665 90.8738 75.6961 91.1608C76.4258 91.4477 77.0772 91.8912 77.6245 92.4911C78.1717 93.1171 78.6147 93.8997 78.9535 94.8909C79.2662 95.8821 79.4486 97.056 79.4486 98.4906C79.4486 99.7166 79.2662 100.838 78.9014 101.908C78.5365 102.977 77.9893 103.864 77.2857 104.647C76.5821 105.429 75.7222 106.029 74.7319 106.473C73.7156 106.916 72.5951 107.151 71.3182 107.151C70.4322 107.151 69.6244 107.099 68.8687 107.02C68.139 106.942 67.4875 106.838 66.9403 106.707C66.3931 106.577 65.9501 106.473 65.6113 106.342C65.2725 106.212 65.012 106.134 64.9077 106.055ZM71.6049 93.2737C71.0316 93.2737 70.5364 93.378 70.1195 93.5867C69.7026 93.7954 69.3638 94.0301 69.1293 94.291V104.621C69.2596 104.829 69.4941 105.012 69.8589 105.116C70.2237 105.247 70.6667 105.299 71.1358 105.299C71.7612 105.299 72.3085 105.142 72.7515 104.803C73.2205 104.464 73.5853 104.021 73.898 103.447C74.2108 102.873 74.4192 102.195 74.5756 101.438C74.7319 100.682 74.8101 99.847 74.8101 98.9862C74.8101 98.0994 74.758 97.2907 74.6277 96.5604C74.4974 95.8561 74.315 95.2561 74.0283 94.7605C73.7678 94.2649 73.429 93.8997 73.012 93.6388C72.6472 93.4041 72.1521 93.2737 71.6049 93.2737Z" fill="white"/>
<path d="M81.7237 106.685V104.833L83.7042 104.573V93.9821L81.8279 93.4083V91.3215L86.5185 90.6433H86.5967L87.3264 91.2432V92.391L87.3003 94.5299H87.3524C87.4567 94.243 87.6651 93.8778 87.9518 93.4344C88.2384 92.9909 88.6032 92.5475 89.0202 92.1301C89.4371 91.7128 89.9323 91.3476 90.4795 91.0606C91.0267 90.7737 91.6261 90.6172 92.2776 90.6172C92.5642 90.6172 92.7727 90.6172 92.929 90.6433C93.0854 90.6694 93.2157 90.6954 93.3199 90.7215V95.4951C93.2157 95.4168 92.9551 95.3385 92.5381 95.2603C92.1212 95.182 91.6 95.1299 91.0267 95.1299C90.714 95.1299 90.3753 95.156 90.0625 95.182C89.7498 95.2081 89.4371 95.2603 89.1505 95.3385C88.8638 95.3907 88.6293 95.469 88.3948 95.5472C88.1602 95.6255 88.0039 95.7037 87.8736 95.782V104.547L91.2873 104.886V106.685H81.7237Z" fill="white"/>
<path d="M96.2426 106.837V104.985L98.2492 104.724V94.1339L96.399 93.534V91.4733L101.454 90.7951L102.523 90.6895V91.395V104.698L104.503 104.985V106.837H96.2426Z" fill="white"/>
<path d="M113.691 101.75C112.908 101.75 112.18 101.696 111.532 101.587C111.37 101.75 111.235 101.94 111.127 102.157C111.019 102.374 110.966 102.619 110.966 102.918C110.966 103.243 111.019 103.515 111.154 103.732C111.289 103.922 111.478 104.085 111.748 104.194C112.018 104.302 112.341 104.384 112.773 104.411C113.205 104.438 113.691 104.465 114.257 104.465H117.09C119.14 104.465 120.651 104.818 121.677 105.497C122.675 106.203 123.187 107.344 123.187 108.918C123.187 109.869 122.945 110.765 122.432 111.552C121.946 112.34 121.272 112.991 120.409 113.562C119.572 114.105 118.574 114.539 117.468 114.838C116.362 115.136 115.201 115.299 113.987 115.299H113.96C112.611 115.299 111.478 115.191 110.534 114.946C109.59 114.702 108.807 114.376 108.187 113.969C107.566 113.562 107.134 113.046 106.838 112.475C106.541 111.905 106.406 111.254 106.406 110.575C106.406 110.14 106.487 109.733 106.649 109.326C106.811 108.946 107.026 108.593 107.296 108.267C107.566 107.941 107.863 107.669 108.241 107.425C108.591 107.181 108.969 106.991 109.347 106.855C108.807 106.556 108.375 106.203 108.079 105.769C107.782 105.334 107.647 104.818 107.647 104.221C107.647 103.488 107.836 102.89 108.214 102.374C108.591 101.886 109.077 101.424 109.67 101.044C108.699 100.61 107.998 99.985 107.539 99.1704C107.08 98.3558 106.838 97.4055 106.838 96.3193C106.838 95.4504 107.026 94.6902 107.404 93.9842C107.782 93.2782 108.321 92.6808 108.969 92.1921C109.643 91.7033 110.399 91.3232 111.289 91.0516C112.18 90.7801 113.124 90.6443 114.122 90.6443H114.149C116.523 90.6443 118.277 91.1059 119.437 92.0292C119.572 91.8662 119.761 91.7033 119.977 91.5404C120.193 91.3775 120.463 91.2146 120.759 91.0788C121.056 90.943 121.38 90.8344 121.731 90.753C122.081 90.6715 122.459 90.6172 122.864 90.6172H123.538V93.8213H120.732C120.84 94.1199 120.921 94.4458 120.975 94.7716C121.029 95.0975 121.056 95.4776 121.056 95.8577C121.056 96.7266 120.867 97.5141 120.516 98.2201C120.166 98.926 119.653 99.5506 119.006 100.094C118.358 100.61 117.576 101.017 116.685 101.316C115.768 101.614 114.797 101.75 113.691 101.75ZM112.962 107.534C112.342 107.534 111.775 107.479 111.262 107.398C111.073 107.615 110.885 107.887 110.723 108.212C110.561 108.538 110.48 109.027 110.48 109.597C110.48 110.249 110.561 110.792 110.723 111.226C110.885 111.661 111.154 112.041 111.478 112.313C111.802 112.584 112.234 112.801 112.719 112.91C113.205 113.046 113.771 113.1 114.419 113.1H114.446C115.013 113.1 115.579 113.046 116.146 112.91C116.685 112.774 117.198 112.584 117.63 112.313C118.061 112.041 118.412 111.688 118.655 111.281C118.925 110.873 119.06 110.385 119.06 109.842C119.06 109.434 119.006 109.054 118.925 108.755C118.844 108.457 118.682 108.212 118.439 108.022C118.196 107.832 117.899 107.697 117.495 107.615C117.09 107.534 116.577 107.479 115.957 107.479H112.962V107.534ZM114.041 99.8493C114.527 99.8493 114.932 99.7406 115.255 99.5506C115.579 99.3605 115.822 99.089 116.011 98.7631C116.2 98.4373 116.308 98.03 116.389 97.5684C116.469 97.1068 116.496 96.618 116.496 96.1293C116.496 94.8802 116.308 93.957 115.903 93.3868C115.498 92.8166 114.851 92.5451 113.906 92.5451H113.879C112.989 92.5451 112.342 92.8437 111.937 93.414C111.532 93.9842 111.316 94.8259 111.316 95.9935C111.316 96.5637 111.37 97.0796 111.451 97.5412C111.532 98.0028 111.694 98.4101 111.883 98.7631C112.099 99.089 112.368 99.3605 112.719 99.5506C113.07 99.7406 113.502 99.8493 114.041 99.8493Z" fill="white"/>
<path d="M125.065 106.839V104.987L126.758 104.7V88.4407L124.7 88.1016V86.4843L130.042 85.8061L130.352 85.7539H130.933L130.98 90.8228L130.933 92.7964C131.168 92.5616 131.319 92.5444 131.71 92.2836C132.1 92.0227 132.491 91.788 132.96 91.5793C133.429 91.3706 133.951 91.188 134.498 91.0315C135.045 90.9011 135.644 90.8228 136.244 90.8228C137.13 90.8228 137.886 90.9532 138.459 91.188C139.032 91.4228 139.501 91.814 139.866 92.3357C140.231 92.8574 140.439 93.5096 140.596 94.2921C140.726 95.0747 140.804 96.0137 140.804 97.0832V104.7L142.732 104.987V106.839H135.045V105.039L136.583 104.726V97.0571C136.583 96.4311 136.557 95.8833 136.478 95.4138C136.426 94.9442 136.296 94.579 136.114 94.266C135.931 93.953 135.697 93.7443 135.384 93.6139C135.071 93.4835 134.654 93.4052 134.159 93.4052C133.872 93.4052 133.586 93.4313 133.273 93.5096C132.96 93.5878 132.674 93.6661 132.413 93.7443C132.127 93.8487 131.866 93.953 131.631 94.0834C131.397 94.2139 131.188 94.3443 131.006 94.4747V104.726L132.882 105.013V106.865H125.065V106.839Z" fill="white"/>
<path d="M145.793 103.645V93.5236H143.865V91.9585C143.943 91.9324 144.047 91.9063 144.204 91.8542C144.36 91.802 144.516 91.7237 144.699 91.6716C144.855 91.6194 145.011 91.5412 145.168 91.489C145.324 91.4368 145.402 91.3846 145.428 91.3586C145.741 91.1238 146.054 90.6804 146.392 90.0282C146.497 89.8456 146.575 89.637 146.705 89.3761C146.835 89.1153 146.914 88.8805 147.018 88.6197C147.122 88.3588 147.226 88.098 147.305 87.8371C147.409 87.5763 147.461 87.3415 147.539 87.1328H149.989L150.041 91.2021H154.08V93.5497H150.041V101.166C150.041 101.897 150.041 102.471 150.067 102.914C150.093 103.358 150.145 103.671 150.223 103.879C150.301 104.088 150.458 104.244 150.64 104.297C150.822 104.349 151.083 104.401 151.396 104.401H151.422C151.63 104.401 151.865 104.375 152.125 104.349C152.36 104.323 152.594 104.271 152.829 104.218C153.064 104.166 153.272 104.114 153.48 104.062C153.689 104.01 153.845 103.958 153.976 103.905H154.002L154.653 105.523C154.366 105.731 154.054 105.94 153.637 106.149C153.22 106.357 152.803 106.54 152.308 106.723C151.813 106.905 151.318 107.036 150.77 107.14C150.223 107.244 149.702 107.296 149.155 107.296H149.129C148.529 107.296 148.008 107.218 147.591 107.062C147.174 106.905 146.809 106.67 146.549 106.357C146.288 106.044 146.106 105.679 145.976 105.21C145.845 104.74 145.793 104.244 145.793 103.645Z" fill="white"/>
</g>
<path d="M206.739 101.359V95.8475H196.503V85.6113H190.991V95.8475H180.755V101.359H190.991V111.595H196.503V101.359H206.739Z" fill="#62788A"/>
<g filter="url(#filter2_d_6001_30717)">
<path d="M277.022 143.901C302.06 143.901 322.32 123.641 322.32 98.6029C322.32 73.5654 302.06 53.3047 277.022 53.3047C251.984 53.3047 231.724 73.5654 231.724 98.6029C231.724 123.641 251.984 143.901 277.022 143.901Z" fill="url(#paint0_linear_6001_30717)" shape-rendering="crispEdges"/>
<path d="M277.022 144.911C302.617 144.911 323.33 124.198 323.33 98.6029C323.33 73.0077 302.617 52.2949 277.022 52.2949C251.427 52.2949 230.714 73.0077 230.714 98.6029C230.714 124.198 251.427 144.911 277.022 144.911Z" stroke="url(#paint1_linear_6001_30717)" stroke-width="2.01962" style="mix-blend-mode:overlay" shape-rendering="crispEdges"/>
</g>
<path d="M286.931 108.678V107.643C285.714 108.341 284.335 108.705 282.932 108.701C281.529 108.696 280.152 108.322 278.94 107.617C277.726 106.917 276.716 105.914 276.01 104.704C275.295 103.494 274.918 102.114 274.918 100.709C274.918 99.3029 275.295 97.9231 276.01 96.7127C276.715 95.5013 277.725 94.4956 278.94 93.7958C280.161 93.0803 281.552 92.7062 282.967 92.7125C284.352 92.7133 285.714 93.0744 286.918 93.7603V93.0144H290.954V108.678H286.931ZM283.007 96.6595C282.317 96.6508 281.639 96.8354 281.049 97.1922C280.417 97.5815 279.892 98.1215 279.521 98.7639C279.162 99.3633 278.971 100.049 278.971 100.748C278.969 101.443 279.157 102.125 279.517 102.72C279.892 103.344 280.417 103.864 281.044 104.234C281.645 104.594 282.333 104.785 283.033 104.784C283.724 104.781 284.4 104.586 284.987 104.22C285.597 103.852 286.103 103.334 286.456 102.715C286.807 102.108 286.992 101.419 286.992 100.717C286.992 100.016 286.807 99.3269 286.456 98.7195C286.096 98.0963 285.585 97.574 284.969 97.2011C284.379 96.8403 283.699 96.6526 283.007 96.6595ZM303.723 108.687V99.7185C303.723 98.6529 303.496 97.8538 303.043 97.3432C302.813 97.1004 302.531 96.9128 302.218 96.7944C301.905 96.676 301.57 96.6299 301.236 96.6595C300.595 96.6505 299.961 96.8031 299.394 97.1034C298.866 97.3873 298.425 97.8074 298.115 98.3199C297.811 98.829 297.657 99.414 297.671 100.007V108.687H293.64V93.0144H297.671V93.5916C298.794 93.0191 300.038 92.7252 301.298 92.7347C302.179 92.7004 303.058 92.855 303.874 93.1881C304.69 93.5212 305.426 94.0251 306.031 94.666C307.181 95.9136 307.767 97.614 307.767 99.7185V108.687H303.723ZM257.904 99.5897C257.943 99.2478 258.001 98.9084 258.077 98.573C258.076 98.5523 258.076 98.5315 258.077 98.5108C257.67 98.0221 257.167 97.6218 256.599 97.3343C255.425 96.7771 254.181 96.3827 252.901 96.1622C252.426 96.0557 251.933 95.9491 251.458 95.8248C250.912 95.6783 249.78 95.3808 249.296 94.9102C249.138 94.7282 249.017 94.517 248.941 94.2884C248.865 94.0599 248.835 93.8186 248.852 93.5783C248.827 93.1004 248.953 92.6268 249.211 92.2242C249.851 91.3362 251.16 91.1941 251.875 91.1941H252.293C252.968 91.2125 253.625 91.4202 254.188 91.7935C254.393 91.9338 254.565 92.1153 254.695 92.3263C254.825 92.5373 254.91 92.7733 254.943 93.0189L255.041 94.0445H259.187L258.979 92.7125C258.761 91.1537 257.956 89.737 256.728 88.7523C255.511 87.7755 253.838 87.2827 251.817 87.2827C249.992 87.213 248.206 87.8237 246.805 88.9965C246.162 89.5408 245.649 90.222 245.303 90.9902C244.958 91.7583 244.788 92.5941 244.807 93.4362C244.807 95.1544 245.251 96.4686 246.206 97.4586C247.737 99.0658 249.793 99.5009 251.609 99.8872L252.239 100.02C253.092 100.207 254.06 100.411 254.619 100.864C254.836 101.022 255.011 101.232 255.125 101.475C255.24 101.717 255.292 101.985 255.276 102.254C255.256 102.628 255.151 102.993 254.969 103.321C254.787 103.649 254.532 103.931 254.224 104.145C253.564 104.573 252.79 104.791 252.004 104.771H251.871C251.094 104.775 250.329 104.577 249.651 104.198C249.417 104.058 249.22 103.864 249.077 103.633C248.934 103.401 248.849 103.138 248.829 102.866V101.796H244.896L244.829 102.804C244.801 103.679 244.995 104.547 245.393 105.327C245.79 106.107 246.378 106.774 247.102 107.266C248.428 108.149 249.98 108.632 251.573 108.656H252.217C255.076 108.656 257.469 107.324 258.615 105.104C258.664 105.006 258.708 104.909 258.752 104.806C257.996 103.178 257.702 101.373 257.904 99.5897ZM272.738 101.872L272.214 102.458C271.459 103.297 269.927 104.713 268.129 104.713C267.567 104.713 267.011 104.594 266.498 104.364C265.985 104.135 265.527 103.8 265.152 103.381C264.777 102.962 264.495 102.468 264.325 101.933C264.154 101.397 264.097 100.832 264.16 100.273C264.269 99.3719 264.672 98.5314 265.307 97.8821C265.942 97.2327 266.773 96.8108 267.672 96.6817C267.819 96.6638 267.967 96.6549 268.116 96.655C269.843 96.655 271.264 97.9514 272.156 99.0392L272.715 99.7229C272.852 98.3374 273.288 96.9983 273.994 95.7982C274.047 95.7094 274.105 95.6294 274.158 95.5451C271.77 93.0011 269.608 92.6992 268.182 92.6992C267.832 92.6992 267.516 92.7214 267.246 92.7392H267.228C265.651 92.924 264.163 93.5703 262.951 94.5971C261.74 95.6238 260.858 96.9853 260.417 98.5108C260.295 98.9271 260.21 99.3536 260.164 99.7851C259.961 101.475 260.303 103.186 261.141 104.669C261.429 105.173 261.77 105.645 262.158 106.076C262.913 106.904 263.833 107.564 264.86 108.015C265.886 108.465 266.995 108.696 268.116 108.691C269.264 108.675 270.396 108.419 271.44 107.942C272.484 107.464 273.417 106.774 274.18 105.916L273.981 105.606C273.311 104.461 272.888 103.189 272.738 101.872Z" fill="white"/>
<path d="M275.838 87.3145H291.422V90.298H275.838V87.3145Z" fill="url(#paint2_linear_6001_30717)"/>
<defs>
<filter id="filter0_f_6001_30717" x="32.4035" y="-25.1583" width="503.756" height="481.594" filterUnits="userSpaceOnUse" color-interpolation-filters="sRGB">
<feFlood flood-opacity="0" result="BackgroundImageFix"/>
<feBlend mode="normal" in="SourceGraphic" in2="BackgroundImageFix" result="shape"/>
<feGaussianBlur stdDeviation="67.211" result="effect1_foregroundBlur_6001_30717"/>
</filter>
<filter id="filter1_f_6001_30717" x="-266.711" y="-307.282" width="641.211" height="606.232" filterUnits="userSpaceOnUse" color-interpolation-filters="sRGB">
<feFlood flood-opacity="0" result="BackgroundImageFix"/>
<feBlend mode="normal" in="SourceGraphic" in2="BackgroundImageFix" result="shape"/>
<feGaussianBlur stdDeviation="109.834" result="effect1_foregroundBlur_6001_30717"/>
</filter>
<filter id="filter2_d_6001_30717" x="217.762" y="46.667" width="118.521" height="118.52" filterUnits="userSpaceOnUse" color-interpolation-filters="sRGB">
<feFlood flood-opacity="0" result="BackgroundImageFix"/>
<feColorMatrix in="SourceAlpha" type="matrix" values="0 0 0 0 0 0 0 0 0 0 0 0 0 0 0 0 0 0 127 0" result="hardAlpha"/>
<feOffset dy="7.32448"/>
<feGaussianBlur stdDeviation="5.97134"/>
<feComposite in2="hardAlpha" operator="out"/>
<feColorMatrix type="matrix" values="0 0 0 0 0 0 0 0 0 0 0 0 0 0 0 0 0 0 0.28 0"/>
<feBlend mode="normal" in2="BackgroundImageFix" result="effect1_dropShadow_6001_30717"/>
<feBlend mode="normal" in="SourceGraphic" in2="effect1_dropShadow_6001_30717" result="shape"/>
</filter>
<linearGradient id="paint0_linear_6001_30717" x1="292.876" y1="143.901" x2="201.979" y2="23.9968" gradientUnits="userSpaceOnUse">
<stop stop-color="#0F2D58"/>
<stop offset="1" stop-color="#0E346B"/>
</linearGradient>
<linearGradient id="paint1_linear_6001_30717" x1="236.602" y1="67.3665" x2="267.888" y2="135.424" gradientUnits="userSpaceOnUse">
<stop stop-color="#225FCC"/>
<stop offset="0.352567" stop-color="#194398"/>
<stop offset="0.646925" stop-color="#194398" stop-opacity="0.79"/>
<stop offset="1" stop-color="#225FCC" stop-opacity="0.54"/>
</linearGradient>
<linearGradient id="paint2_linear_6001_30717" x1="275.838" y1="88.8062" x2="291.422" y2="88.8062" gradientUnits="userSpaceOnUse">
<stop stop-color="#00B4FF"/>
<stop offset="1" stop-color="#4AFFBD"/>
</linearGradient>
<clipPath id="clip0_6001_30717">
<path d="M0.927002 8.32519C0.927002 3.90961 4.50654 0.330078 8.92211 0.330078H376.697C381.113 0.330078 384.692 3.90961 384.692 8.32519V196.534H0.927002V8.32519Z" fill="white"/>
</clipPath>
<clipPath id="clip1_6001_30717">
<rect width="92.9212" height="33.3936" fill="white" transform="translate(62.8491 81.9062)"/>
</clipPath>
</defs>
</svg>
