<svg width="35" height="35" viewBox="0 0 35 35" fill="none" xmlns="http://www.w3.org/2000/svg">
<path d="M4.82227 5.96805C4.82227 5.50272 5.19949 5.12549 5.66483 5.12549H10.7202C11.1855 5.12549 11.5628 5.50272 11.5628 5.96805V11.0234C11.5628 11.4888 11.1855 11.866 10.7202 11.866H5.66483C5.19949 11.866 4.82227 11.4888 4.82227 11.0234V5.96805Z" fill="#C0BAFC"/>
<path d="M23.3589 15.3201C23.3589 14.8548 23.7361 14.4775 24.2014 14.4775H29.2568C29.7222 14.4775 30.0994 14.8548 30.0994 15.3201V20.3755C30.0994 20.8408 29.7222 21.218 29.2568 21.218H24.2014C23.7361 21.218 23.3589 20.8408 23.3589 20.3755V15.3201Z" fill="#C0BAFC"/>
<path d="M4.82227 15.2361C4.82227 14.7708 5.19949 14.3936 5.66483 14.3936H10.7202C11.1855 14.3936 11.5628 14.7708 11.5628 15.2361V20.2915C11.5628 20.7568 11.1855 21.1341 10.7202 21.1341H5.66483C5.19949 21.1341 4.82227 20.7568 4.82227 20.2915V15.2361Z" fill="#9D97F4"/>
<path d="M14.0908 24.5044C14.0908 24.0391 14.468 23.6619 14.9334 23.6619H19.9888C20.4541 23.6619 20.8313 24.0391 20.8313 24.5044V29.5598C20.8313 30.0251 20.4541 30.4024 19.9888 30.4024H14.9334C14.468 30.4024 14.0908 30.0251 14.0908 29.5598V24.5044Z" fill="#9D97F4"/>
<path d="M23.3589 5.96805C23.3589 5.50272 23.7361 5.12549 24.2014 5.12549H29.2568C29.7222 5.12549 30.0994 5.50272 30.0994 5.96805V11.0234C30.0994 11.4888 29.7222 11.866 29.2568 11.866H24.2014C23.7361 11.866 23.3589 11.4888 23.3589 11.0234V5.96805Z" fill="#9D97F4"/>
<path d="M14.0908 5.96805C14.0908 5.50272 14.468 5.12549 14.9334 5.12549H19.9888C20.4541 5.12549 20.8313 5.50272 20.8313 5.96805V11.0234C20.8313 11.4888 20.4541 11.866 19.9888 11.866H14.9334C14.468 11.866 14.0908 11.4888 14.0908 11.0234V5.96805Z" fill="#D4D0FF"/>
<path d="M4.82227 24.5884C4.82227 24.1231 5.19949 23.7458 5.66483 23.7458H10.7202C11.1855 23.7458 11.5628 24.1231 11.5628 24.5884V29.6438C11.5628 30.1091 11.1855 30.4863 10.7202 30.4863H5.66483C5.19949 30.4863 4.82227 30.1091 4.82227 29.6438V24.5884Z" fill="#D4D0FF"/>
<path d="M14.0908 15.2361C14.0908 14.7708 14.468 14.3936 14.9334 14.3936H19.9888C20.4541 14.3936 20.8313 14.7708 20.8313 15.2361V20.2915C20.8313 20.7568 20.4541 21.1341 19.9888 21.1341H14.9334C14.468 21.1341 14.0908 20.7568 14.0908 20.2915V15.2361Z" fill="#C5C0F8"/>
<path d="M23.3589 24.5044C23.3589 24.0391 23.7361 23.6619 24.2014 23.6619H29.2568C29.7222 23.6619 30.0994 24.0391 30.0994 24.5044V29.5598C30.0994 30.0251 29.7222 30.4024 29.2568 30.4024H24.2014C23.7361 30.4024 23.3589 30.0251 23.3589 29.5598V24.5044Z" fill="#C5C0F8"/>
</svg>
