<svg width="47" height="47" viewBox="0 0 47 47" fill="none" xmlns="http://www.w3.org/2000/svg">
<g id="ethical" clip-path="url(#clip0_55_90163)">
<g id="Group 114226">
<path id="Vector" d="M37.2705 11.5769C35.5263 11.5769 33.5048 11.1304 31.5518 9.67376C27.3571 6.54363 23.8176 8.07216 23.668 8.13826C23.3038 8.30063 22.8793 8.14058 22.7135 7.77875C22.5488 7.41691 22.7077 6.99128 23.0672 6.82544C23.2481 6.7431 27.5044 4.85389 32.4147 8.51634C36.6245 11.6557 41.3563 9.21566 41.4026 9.19015C41.754 9.00459 42.1924 9.13796 42.3791 9.49168C42.5647 9.84424 42.4302 10.2815 42.0788 10.467C41.9419 10.5389 39.9286 11.5769 37.2705 11.5769Z" fill="#3D7FFC"/>
<path id="Vector_2" d="M9.46723 11.578C7.94101 11.578 3.62447 10.8915 4.35627 9.494C4.54298 9.14144 4.97904 9.00575 5.33044 9.19015C5.52644 9.2922 10.1352 11.6418 14.3219 8.51634C19.2299 4.85389 23.4873 6.7431 23.6694 6.82544C24.0312 6.99244 24.1889 7.42039 24.0231 7.78338C23.8572 8.14522 23.4281 8.30411 23.0675 8.13942C22.8993 8.06404 19.3702 6.55406 15.1847 9.67492C13.2317 11.1315 11.2103 11.578 9.46607 11.578H9.46723Z" fill="#3D7FFC"/>
<g id="Group">
<path id="Vector_3" d="M23.3933 37.7127C22.9759 37.7127 22.6387 37.3782 22.6387 36.9657V3.74704C22.6387 3.33455 22.9759 3 23.3933 3C23.8106 3 24.1479 3.33455 24.1479 3.74704V36.9657C24.1479 37.3782 23.8094 37.7127 23.3933 37.7127Z" fill="#3D7FFC"/>
<path id="Vector_4" d="M45.7621 24.3912C45.4884 24.3912 45.2263 24.2335 45.1045 23.9679L39.7918 12.2812L34.479 23.9679C34.3132 24.3309 33.8841 24.4898 33.5234 24.3262C33.1592 24.1616 33.0003 23.7336 33.1639 23.3706L39.1342 10.2378C39.3696 9.72283 40.2139 9.72283 40.4482 10.2378L46.4185 23.3706C46.5832 23.7336 46.4231 24.1616 46.059 24.3262C45.9627 24.3703 45.8607 24.3912 45.7609 24.3912H45.7621Z" fill="#3D7FFC"/>
<path id="Vector_5" d="M13.4133 24.6002C13.1396 24.6002 12.8775 24.4424 12.7557 24.1769L7.44411 12.4902L2.13135 24.1769C1.96551 24.5399 1.53525 24.6987 1.17573 24.5352C0.811574 24.3705 0.65269 23.9426 0.816213 23.5796L6.78654 10.4467C6.90367 10.1893 7.15997 10.0234 7.44411 10.0234C7.72708 10.0234 7.98339 10.1893 8.10168 10.4467L14.0708 23.5796C14.2355 23.9426 14.0755 24.3705 13.7113 24.5352C13.6151 24.5793 13.513 24.6002 13.4133 24.6002Z" fill="#3D7FFC"/>
<g id="Group_2">
<path id="Vector_6" d="M14.0893 23.875C13.9448 27.0631 11.0308 29.6111 7.44701 29.6111C3.86323 29.6111 0.949226 27.0643 0.804688 23.875H14.0893Z" fill="#9FC0FF"/>
<path id="Vector_7" d="M7.44683 30.3362C3.4346 30.3362 0.16441 27.5122 0.000513863 23.9078C-0.00722928 23.7118 0.0727832 23.5204 0.223774 23.3778C0.374766 23.2351 0.585121 23.1562 0.803219 23.1562H14.0892C14.3085 23.1562 14.5176 23.2363 14.6686 23.3778C14.8196 23.5192 14.8996 23.7106 14.8919 23.9078C14.728 27.5122 11.4578 30.3362 7.44683 30.3362ZM1.70013 24.6001C2.20344 27.0599 4.58445 28.8923 7.44683 28.8923C10.3092 28.8923 12.6889 27.0599 13.1922 24.6001H1.70013Z" fill="#9FC0FF"/>
</g>
<g id="Group_3">
<path id="Vector_8" d="M46.5366 23.875C46.3921 27.0631 43.4781 29.6111 39.8943 29.6111C36.3105 29.6111 33.3965 27.0643 33.252 23.875H46.5366Z" fill="#9FC0FF"/>
<path id="Vector_9" d="M39.8941 30.3362C35.8819 30.3362 32.6117 27.5122 32.4478 23.9078C32.44 23.7118 32.52 23.5204 32.671 23.3778C32.822 23.2351 33.0324 23.1562 33.2505 23.1562H46.5364C46.7558 23.1562 46.9649 23.2363 47.1159 23.3778C47.2669 23.5192 47.3469 23.7106 47.3391 23.9078C47.1752 27.5122 43.905 30.3362 39.8941 30.3362ZM34.1474 24.6001C34.6507 27.0599 37.0317 28.8923 39.8941 28.8923C42.7565 28.8923 45.1362 27.0599 45.6395 24.6001H34.1474Z" fill="#9FC0FF"/>
</g>
</g>
<path id="Rectangle 7839" d="M16.6016 36.9684C16.6016 34.8846 18.2908 33.1953 20.3747 33.1953H25.6571C27.7409 33.1953 29.4302 34.8846 29.4302 36.9684V38.4777H16.6016V36.9684Z" fill="#FECE4D"/>
<path id="Rectangle 7839_2" d="M9.05664 41.4841C9.05664 39.4002 10.7459 37.7109 12.8298 37.7109H33.9592C36.0431 37.7109 37.7324 39.4002 37.7324 41.4841V42.9933H9.05664V41.4841Z" fill="#3D7FFC"/>
</g>
</g>
<defs>
<clipPath id="clip0_55_90163">
<rect width="47" height="47" fill="white"/>
</clipPath>
</defs>
</svg>
