<svg width="45" height="46" viewBox="0 0 45 46" fill="none" xmlns="http://www.w3.org/2000/svg">
<path d="M13.8009 19.7188C11.5609 19.7188 9.74086 21.4987 9.65086 23.7188C9.65086 23.7787 9.63086 23.8288 9.63086 23.8888C9.63086 25.0388 10.1009 26.0788 10.8509 26.8288L13.7909 29.7688L16.1809 27.3787L16.7309 26.8288C17.4809 26.0788 17.9509 25.0388 17.9509 23.8888C17.9509 21.5888 16.0909 19.7288 13.7909 19.7288L13.8009 19.7188Z" fill="#FECE4D"/>
<path d="M33.2715 7.32906C32.2615 8.15906 31.4815 9.26906 31.0815 10.5491C30.8815 11.1891 30.7715 11.8791 30.7715 12.5891C30.7715 12.7591 30.7815 12.9291 30.8015 13.0991C30.8015 13.1591 30.8015 13.2191 30.8015 13.2791C30.8715 13.9891 31.0515 14.6591 31.3315 15.2891C31.6715 16.0791 32.1615 16.7891 32.7515 17.3891L34.5615 19.1991L37.5515 22.1891L41.1515 18.5891L42.3615 17.3791C43.5915 16.1491 44.3515 14.4491 44.3515 12.5791C44.3515 12.3491 44.3415 12.1191 44.3215 11.8891C43.9715 8.46906 41.0815 5.78906 37.5615 5.78906C35.9415 5.78906 34.4515 6.35906 33.2815 7.30906" fill="#FECE4D"/>
<path d="M36.291 23.4701L32.221 19.4001C31.541 19.3301 30.871 19.2201 30.271 19.2201C28.341 19.1901 26.511 19.6601 25.411 21.3001C24.411 22.7501 24.281 24.9801 25.641 26.2701C26.811 27.3401 28.441 27.1801 29.631 28.3101C31.531 30.1701 28.201 38.1201 32.191 36.9901C36.181 35.8301 39.581 29.8501 40.841 28.1501C41.141 27.7701 41.431 27.4701 41.731 27.2201C41.861 26.2701 41.951 25.3101 41.951 24.3201C41.951 23.0701 41.821 21.8601 41.611 20.6701L38.821 23.4601C38.121 24.1601 36.971 24.1601 36.271 23.4601L36.291 23.4701Z" fill="#3D7FFC"/>
<path d="M20.9809 7.29844L18.6309 9.56844C20.7109 9.89844 22.7709 7.09844 25.4709 6.60844C26.9009 6.33844 27.7809 5.50844 28.4109 4.72844C28.4709 4.74844 28.6709 4.80844 28.7409 4.83844C29.1309 4.98844 29.5109 5.14844 29.8809 5.31844C27.6609 4.27844 25.2409 3.60844 22.6809 3.39844C22.6509 4.92844 22.0009 6.30844 20.9809 7.28844V7.29844Z" fill="#092349"/>
<path d="M0.350781 20.6419C2.50078 21.5119 4.84078 22.6919 5.88078 24.5219C6.84078 26.1919 6.41078 28.1419 6.55078 29.9319C6.66078 31.5019 7.30078 32.9819 8.00078 34.3619C8.71078 35.6819 11.1608 40.3619 13.3608 39.4919C14.5708 39.0219 14.7408 38.1719 15.1008 37.0719C15.6308 35.3119 17.1208 33.8919 17.9008 32.2019C18.4708 31.1019 18.8208 29.3119 17.9008 28.2719C17.8808 28.2419 17.8508 28.2219 17.8208 28.1919L15.0108 31.0019C14.6908 31.3219 14.2508 31.5019 13.7908 31.5019C13.3308 31.5019 12.8908 31.3219 12.5708 31.0019L9.63078 28.0619C8.57078 27.0019 7.91078 25.5219 7.91078 23.9019C7.91078 22.9319 8.15078 22.0119 8.57078 21.2019C8.36078 19.6419 8.95078 18.0319 10.6608 16.7119C12.0108 15.6719 13.2508 14.3219 13.2908 12.5619C13.3208 10.6019 11.2008 8.36187 9.47078 6.85187C10.0908 6.43187 10.7308 6.03188 11.3908 5.67188C5.07078 8.90188 0.610781 15.2619 0.0507812 22.7219C0.0807812 22.3919 0.110781 22.0619 0.160781 21.7319C0.210781 21.3619 0.290781 21.0019 0.350781 20.6319V20.6419Z" fill="#3D7FFC"/>
<path d="M40.86 28.1522C39.6 29.8522 36.2 35.8222 32.21 36.9922C28.22 38.1222 31.54 30.1722 29.65 28.3122C28.45 27.1822 26.82 27.3422 25.66 26.2722C24.3 24.9822 24.43 22.7522 25.43 21.3022C26.53 19.6622 28.36 19.1922 30.29 19.2222C30.89 19.2222 31.56 19.3322 32.24 19.4022L31.51 18.6622C31.51 18.6622 31.48 18.6322 31.46 18.6122C29.93 17.0622 28.99 14.9322 28.99 12.5822C28.99 10.1022 30.05 7.87219 31.73 6.30219C31.55 6.19219 31.37 6.07219 31.18 5.97219C30.88 5.81219 30.58 5.66219 30.27 5.51219C30.15 5.45219 30.02 5.39219 29.89 5.33219C29.52 5.16219 29.14 5.00219 28.75 4.85219C28.68 4.82219 28.49 4.76219 28.42 4.74219C27.79 5.52219 26.91 6.35219 25.48 6.62219C22.79 7.11219 20.72 9.91219 18.64 9.58219L18.57 9.65219C17.68 10.5122 16.28 10.5122 15.39 9.65219L12.97 7.31219C12.45 6.80219 12.02 6.19219 11.72 5.51219C11.62 5.56219 11.51 5.61219 11.41 5.66219C10.75 6.02219 10.11 6.41219 9.49 6.84219C11.22 8.35219 13.34 10.5922 13.31 12.5522C13.27 14.3122 12.03 15.6622 10.68 16.7022C8.97 18.0322 8.37 19.6322 8.59 21.1922C9.57 19.3022 11.54 18.0022 13.82 18.0022C17.07 18.0022 19.71 20.6422 19.71 23.8922C19.71 25.5122 19.05 26.9922 17.99 28.0522L17.85 28.1922C17.85 28.1922 17.91 28.2422 17.93 28.2722C18.85 29.3122 18.5 31.1022 17.93 32.2022C17.15 33.9022 15.66 35.3122 15.13 37.0722C14.78 38.1722 14.6 39.0222 13.39 39.4922C11.19 40.3722 8.74 35.6922 8.03 34.3622C7.32 32.9822 6.68 31.5022 6.58 29.9322C6.44 28.1422 6.86 26.1922 5.91 24.5222C4.88 22.6922 2.53 21.5122 0.38 20.6422C0.32 21.0122 0.24 21.3622 0.19 21.7422C0.14 22.0622 0.11 22.3922 0.08 22.7322C0.04 23.2422 0 23.7522 0 24.2722C0 24.2922 0 24.3222 0 24.3422C0 35.9322 9.4 45.3322 21 45.3322C31.61 45.3322 40.36 37.4522 41.78 27.2322C41.48 27.4822 41.19 27.7822 40.89 28.1622L40.86 28.1522Z" fill="#C6DBFF"/>
<path d="M20.331 2.65C20.011 1.14 18.631 0 16.971 0C15.081 0 13.541 1.48 13.541 3.31C13.541 3.54 13.561 3.76 13.611 3.97C13.661 4.19 13.721 4.4 13.811 4.59C13.851 4.69 13.921 4.78 13.971 4.87C14.131 5.15 14.311 5.41 14.541 5.64L16.961 7.98L17.771 7.2L19.391 5.64C20.001 5.05 20.381 4.24 20.391 3.34C20.391 3.32 20.391 3.31 20.391 3.3C20.391 3.07 20.371 2.85 20.321 2.64L20.331 2.65Z" fill="#FECE4D"/>
</svg>
