<svg width="43" height="47" viewBox="0 0 43 47" fill="none" xmlns="http://www.w3.org/2000/svg">
<rect x="-0.000488281" y="28.1401" width="11.8465" height="19.0139" rx="1.14083" fill="#9FC0FF"/>
<rect x="15.2142" y="18.6333" width="11.8465" height="28.5208" rx="1.14083" fill="#3D7FFC"/>
<rect x="30.4288" y="34.605" width="11.8465" height="12.5492" rx="1.14083" fill="#C6DBFF"/>
<path d="M27.3581 4.29884H23.7728V4.2922C23.5739 4.28975 23.3807 4.23059 23.2195 4.12229C23.0584 4.01399 22.9372 3.86224 22.8726 3.68755C22.8615 3.6609 22.8521 3.63356 22.8444 3.60591L21.7922 0.470921L21.7652 0.392342C21.7202 0.273806 21.6354 0.172029 21.5233 0.101498C21.4112 0.0309678 21.2778 -0.00455623 21.1425 0.000468279C21.0073 0.00549278 20.8773 0.0509452 20.7717 0.129562C20.666 0.208179 20.5903 0.315743 20.5555 0.437245L19.491 3.59418C19.4911 3.59592 19.4911 3.59805 19.491 3.59979C19.4825 3.63283 19.4716 3.66506 19.4583 3.69674C19.3923 3.86994 19.2705 4.02014 19.1095 4.12688C18.9484 4.23362 18.7559 4.29153 18.5581 4.29322V4.29986H14.9695C14.8132 4.325 14.6718 4.40124 14.5707 4.51467C14.4696 4.62811 14.4155 4.77105 14.4181 4.91828C14.4173 5.01338 14.4397 5.10737 14.4836 5.19331C14.5274 5.27925 14.5916 5.35503 14.6712 5.41476L14.7005 5.4367L17.4868 7.40627C17.6503 7.51687 17.7753 7.6697 17.8463 7.8456C17.9173 8.0215 17.9312 8.21301 17.8863 8.39616C17.8741 8.44907 17.8568 8.50078 17.8345 8.55077L16.7778 11.7026V11.7138L16.77 11.7368C16.7528 11.795 16.7441 11.8555 16.7441 11.9159C16.7415 11.9963 16.7562 12.076 16.7872 12.1511C16.8182 12.2263 16.8649 12.2954 16.9246 12.3537C16.9844 12.412 17.0559 12.4585 17.1352 12.4909C17.2145 12.5234 17.3 12.5409 17.3866 12.5425C17.4992 12.543 17.6098 12.5152 17.7062 12.4613L17.8188 12.3838L20.5848 10.4351L20.6456 10.3913C20.7989 10.2926 20.9807 10.2388 21.1673 10.2372C21.3539 10.2355 21.5367 10.2856 21.6921 10.3816C21.7263 10.4017 21.7587 10.4243 21.7889 10.4494L24.5391 12.3909L24.6168 12.4466C24.7179 12.5055 24.835 12.5362 24.9544 12.5353C25.0409 12.5334 25.1262 12.5159 25.2053 12.4833C25.2844 12.4507 25.3557 12.4038 25.4153 12.3455C25.4749 12.2873 25.5216 12.2185 25.5525 12.1435C25.5835 12.0684 25.5982 11.9886 25.5958 11.9082C25.5962 11.8452 25.5863 11.7828 25.5666 11.7225C25.5666 11.7131 25.5598 11.7023 25.5564 11.6919L24.4953 8.52883C24.4777 8.48782 24.4637 8.44543 24.4536 8.40229C24.4343 8.32839 24.4245 8.25281 24.4244 8.17676C24.4233 8.03751 24.4553 7.89959 24.5181 7.77315C24.581 7.64671 24.6731 7.53466 24.7878 7.44505C24.8115 7.42624 24.8362 7.40973 24.861 7.39301L27.6169 5.44946L27.7002 5.38874C27.7719 5.32913 27.8292 5.25575 27.868 5.17392C27.9068 5.09209 27.9263 5.00361 27.9252 4.9142C27.9267 4.7653 27.87 4.62067 27.7658 4.50753C27.6615 4.39439 27.5167 4.32054 27.3581 4.29884Z" fill="#FECE4D"/>
</svg>
