<svg width="46" height="47" viewBox="0 0 46 47" fill="none" xmlns="http://www.w3.org/2000/svg">
<g clip-path="url(#clip0_10027_1456)">
<path d="M8.19001 12.4999C8.19001 12.6838 8.03387 12.8399 7.85001 12.8399C7.66615 12.8399 7.51001 12.6838 7.51001 12.4999C7.51001 12.3161 7.66615 12.1599 7.85001 12.1599C8.03387 12.1599 8.19001 12.3161 8.19001 12.4999Z" fill="#9FC0FF" stroke="#092349"/>
<path d="M27.02 19.37V15.98H30.47V19.37H27.02Z" stroke="#092349"/>
<path d="M17.3101 27.12V22.73H30.4701V27.12H17.3101Z" fill="#9FC0FF" stroke="#092349"/>
<path d="M24.5 19.36H17.3V15.98H24.5V19.36Z" fill="#9FC0FF" stroke="#092349"/>
<path d="M41.99 11.7699H33.5V11.2499C33.5 10.2838 32.7162 9.49993 31.75 9.49993H27.02V6.67993H41.99V11.7699Z" fill="#3D7FFC" stroke="#092349"/>
<path d="M10.92 12.4999C10.92 12.6838 10.7638 12.8399 10.58 12.8399C10.3961 12.8399 10.24 12.6838 10.24 12.4999C10.24 12.3122 10.39 12.1599 10.58 12.1599C10.77 12.1599 10.92 12.3122 10.92 12.4999Z" fill="white" stroke="#092349"/>
<path d="M19.5001 1.87988C18.9801 1.87988 18.5601 2.30988 18.5601 2.81988C18.5601 3.32988 18.9901 3.75988 19.5001 3.75988C20.0101 3.75988 20.4401 3.32988 20.4401 2.81988C20.4401 2.30988 20.0301 1.87988 19.5001 1.87988Z" fill="white"/>
<path d="M42.06 19.87C42.3 19.87 42.49 19.68 42.49 19.44V14.21C42.49 13.97 42.3 13.78 42.06 13.78H33V19.86H42.06V19.87Z" fill="#092349"/>
<path d="M43.47 34.03V28.38C43.47 26.42 42.7 24.56 41.31 23.16C39.93 21.77 38.07 21 36.09 21C34.11 21 32.26 21.77 30.86 23.16C29.47 24.54 28.7 26.4 28.7 28.38H30.98C30.98 27.04 31.53 25.72 32.48 24.77C33.43 23.82 34.75 23.27 36.09 23.27C37.43 23.27 38.75 23.82 39.7 24.77C40.65 25.71 41.2 27.03 41.2 28.38V34.03H27V47.66H45.17V34.03H43.47ZM36 43C34.9 43 34 42.1 34 41C34 39.9 34.9 39 36 39C37.1 39 38 39.9 38 41C38 42.1 37.1 43 36 43Z" fill="#FECE4D"/>
<path d="M22.75 24H1.02C0.45 24 0 24.46 0 25.02V38.97C0 39.54 0.46 39.99 1.02 39.99H22.74C23.31 39.99 23.76 39.53 23.76 38.97V25.02C23.76 24.45 23.3 24 22.74 24H22.75ZM7.64 25.38C8.02 25.38 8.33 25.69 8.33 26.07C8.33 26.45 8.02 26.76 7.64 26.76C7.26 26.76 6.95 26.45 6.95 26.07C6.95 25.69 7.26 25.38 7.64 25.38ZM5.4 25.38C5.79 25.38 6.09 25.69 6.09 26.07C6.09 26.45 5.78 26.76 5.4 26.76C5.02 26.76 4.71 26.45 4.71 26.07C4.71 25.69 5.02 25.38 5.4 25.38ZM3.16 25.38C3.54 25.38 3.85 25.69 3.85 26.07C3.85 26.45 3.54 26.76 3.16 26.76C2.78 26.76 2.47 26.45 2.47 26.07C2.47 25.69 2.78 25.38 3.16 25.38ZM9.4 38.14C9.4 38.31 9.26 38.45 9.09 38.45H1.97C1.8 38.45 1.66 38.31 1.66 38.14V28.81C1.66 28.64 1.8 28.5 1.97 28.5H9.09C9.26 28.5 9.4 28.64 9.4 28.81V38.14ZM22.11 38.14C22.11 38.31 21.97 38.45 21.8 38.45H10.81C10.64 38.45 10.5 38.31 10.5 38.14V34.34C10.5 34.17 10.64 34.03 10.81 34.03H21.8C21.97 34.03 22.11 34.17 22.11 34.34V38.14ZM22.11 32.62C22.11 32.79 21.97 32.93 21.8 32.93H10.81C10.64 32.93 10.5 32.79 10.5 32.62V28.82C10.5 28.65 10.64 28.51 10.81 28.51H21.8C21.97 28.51 22.11 28.65 22.11 28.82V32.62Z" fill="#C6DBFF"/>
<path d="M30.47 20.88H17.19C16.98 20.88 16.81 20.71 16.81 20.5V15.86C16.81 15.65 16.98 15.48 17.19 15.48H30.59C30.8 15.48 30.97 15.65 30.97 15.86V20.5C30.97 20.5 30.97 20.51 30.97 20.52C31.61 20.1 32.29 19.78 33 19.53V11.25C33 10.56 32.44 10 31.75 10H5.25C4.56 10 4 10.56 4 11.25V24H6.02V15.86C6.02 15.65 6.19 15.48 6.4 15.48H15.08C15.29 15.48 15.46 15.65 15.46 15.86V24H16.81V22.61C16.81 22.4 16.98 22.23 17.19 22.23H29C29.15 22.06 29.29 21.89 29.45 21.74C29.77 21.42 30.11 21.14 30.46 20.88H30.47ZM7.85 13.34C7.39 13.34 7.01 12.96 7.01 12.5C7.01 12.04 7.39 11.66 7.85 11.66C8.31 11.66 8.69 12.04 8.69 12.5C8.69 12.96 8.31 13.34 7.85 13.34ZM10.58 13.34C10.12 13.34 9.74 12.96 9.74 12.5C9.74 12.04 10.12 11.66 10.58 11.66C11.04 11.66 11.42 12.04 11.42 12.5C11.42 12.96 11.04 13.34 10.58 13.34ZM13.31 13.34C12.85 13.34 12.47 12.96 12.47 12.5C12.47 12.04 12.85 11.66 13.31 11.66C13.77 11.66 14.15 12.04 14.15 12.5C14.15 12.96 13.77 13.34 13.31 13.34Z" fill="#76A5FF"/>
<path d="M25 10H26.52V6.61C26.52 6.37 26.71 6.18 26.95 6.18H42.06C42.3 6.18 42.49 6.37 42.49 6.61V11.84C42.49 12.08 42.3 12.27 42.06 12.27H33V13.79H42.06C42.3 13.79 42.49 13.98 42.49 14.22V19.45C42.49 19.69 42.3 19.88 42.06 19.88H40.03C41.02 20.34 41.94 20.97 42.73 21.76C42.81 21.84 42.88 21.93 42.95 22.01H43.36C44.14 22.01 44.77 21.38 44.77 20.6V1.41C44.77 0.63 44.14 0 43.36 0H13.49C12.71 0 12.08 0.63 12.08 1.41V10H14.36V6.61C14.36 6.37 14.55 6.18 14.79 6.18H24.58C24.82 6.18 25.01 6.37 25.01 6.61V10H25ZM16.42 3.77C15.9 3.77 15.48 3.34 15.48 2.83C15.48 2.32 15.91 1.89 16.42 1.89C16.93 1.89 17.36 2.32 17.36 2.83C17.36 3.34 16.93 3.77 16.42 3.77ZM19.5 3.77C18.98 3.77 18.56 3.34 18.56 2.83C18.56 2.32 18.99 1.89 19.5 1.89C20.01 1.89 20.44 2.32 20.44 2.83C20.44 3.34 20.01 3.77 19.5 3.77ZM22.58 3.77C22.06 3.77 21.64 3.34 21.64 2.83C21.64 2.32 22.07 1.89 22.58 1.89C23.09 1.89 23.52 2.32 23.52 2.83C23.52 3.34 23.09 3.77 22.58 3.77Z" fill="#3D7FFC"/>
</g>
<defs>
<clipPath id="clip0_10027_1456">
<rect width="45.17" height="47.66" fill="white"/>
</clipPath>
</defs>
</svg>
