<svg width="47" height="47" viewBox="0 0 47 47" fill="none" xmlns="http://www.w3.org/2000/svg">
<g clip-path="url(#clip0_10027_1433)">
<g clip-path="url(#clip1_10027_1433)">
<path fill-rule="evenodd" clip-rule="evenodd" d="M19.7 0.550049C8.83 0.550049 0 9.26005 0 20.01C0 25.39 2.2 30.26 5.77 33.78L19.7 47.55L33.63 33.78C37.19 30.25 39.4 25.3801 39.4 20.01C39.4 9.26005 30.57 0.550049 19.7 0.550049ZM20.26 35.16C12.38 35.16 6 28.78 6 20.9C6 13.02 12.38 6.64005 20.26 6.64005C23.81 6.64005 27.06 7.94005 29.56 10.09L27.02 12C25.14 10.57 22.8 9.73005 20.26 9.73005C14.09 9.73005 9.08 14.73 9.08 20.91C9.08 27.09 14.08 32.09 20.26 32.09C26.44 32.09 31.44 27.09 31.44 20.91C31.44 19.4401 31.15 18.03 30.64 16.74L33.17 14.84C34.04 16.68 34.52 18.74 34.52 20.91C34.52 28.7901 28.14 35.17 20.26 35.17V35.16Z" fill="#3D7FFC"/>
<path fill-rule="evenodd" clip-rule="evenodd" d="M24.4599 21.4601C24.1899 23.5401 22.4099 25.1501 20.2599 25.1501C17.9199 25.1501 16.0199 23.2501 16.0199 20.9101C16.0199 18.5701 17.9199 16.6701 20.2599 16.6701C20.4699 16.6701 20.6699 16.6801 20.8699 16.7101L23.8099 14.5001C22.7599 13.9201 21.5499 13.5801 20.2599 13.5801C16.2199 13.5801 12.9399 16.8601 12.9399 20.9001C12.9399 24.9401 16.2199 28.2201 20.2599 28.2201C24.2999 28.2201 27.5799 24.9401 27.5799 20.9001C27.5799 20.3301 27.5199 19.7801 27.3899 19.2501L24.4599 21.4501V21.4601Z" fill="#C6DBFF"/>
<path fill-rule="evenodd" clip-rule="evenodd" d="M46.34 8.71L47.24 5.77L43.04 4.44V0.03L39.97 0V4.77L37.96 6.24V3.76L34.88 3.72L34.89 7.82L19.24 19.65L21.08 22.13L36.08 10.78L41.26 12.43L42.15 9.49L39.78 8.74L41.8 7.27L46.34 8.71Z" fill="#FECE4D"/>
</g>
</g>
<defs>
<clipPath id="clip0_10027_1433">
<rect width="47" height="47" fill="white"/>
</clipPath>
<clipPath id="clip1_10027_1433">
<rect width="47.24" height="47.55" fill="white"/>
</clipPath>
</defs>
</svg>
