<svg width="47" height="47" viewBox="0 0 47 47" fill="none" xmlns="http://www.w3.org/2000/svg">
<g clip-path="url(#clip0_10027_1442)">
<g clip-path="url(#clip1_10027_1442)">
<path d="M15.5 2.44995C8.29995 2.44995 2.44995 8.29995 2.44995 15.5C2.44995 22.7 8.28995 28.5499 15.5 28.5499C15.83 28.5499 16.16 28.52 16.48 28.5C16.48 28.41 16.47 28.32 16.47 28.2299C16.47 21.2199 21.7199 15.44 28.5 14.59C28.03 7.80995 22.39 2.44995 15.5 2.44995Z" fill="#9FC0FF"/>
<path d="M15.5 28.55C8.29 28.55 2.45 22.7 2.45 15.5C2.45 8.3 8.3 2.45 15.5 2.45C22.7 2.45 28.03 7.81 28.5 14.59C29.07 14.52 29.64 14.47 30.23 14.47C30.47 14.47 30.71 14.49 30.95 14.51C30.44 6.41 23.72 0 15.5 0C7.28 0 0 6.94 0 15.5C0 24.06 6.94 31 15.5 31C15.92 31 16.33 30.97 16.74 30.94C16.58 30.15 16.5 29.33 16.48 28.5C16.15 28.52 15.83 28.55 15.5 28.55Z" fill="#9FC0FF"/>
<path d="M17.57 7.82V16.45C17.57 16.73 17.47 17 17.29 17.22L13.49 21.84C13.38 21.97 13.23 22.07 13.08 22.13C12.92 22.19 12.75 22.22 12.58 22.2C12.41 22.18 12.24 22.13 12.1 22.04C11.95 21.95 11.83 21.83 11.74 21.68C11.58 21.41 11.51 21.1 11.54 20.79C11.57 20.48 11.71 20.19 11.92 19.97L15 16.33C15.1 16.22 15.15 16.08 15.15 15.94V7.82C15.13 7.65 15.15 7.48 15.21 7.32C15.26 7.16 15.35 7.01 15.46 6.89C15.57 6.76 15.71 6.66 15.87 6.6C16.02 6.53 16.19 6.5 16.36 6.5C16.53 6.5 16.7 6.54 16.85 6.6C17 6.67 17.14 6.77 17.26 6.89C17.37 7.02 17.46 7.16 17.51 7.32C17.56 7.48 17.58 7.65 17.57 7.82Z" fill="#3D7FFC"/>
<path fill-rule="evenodd" clip-rule="evenodd" d="M28.87 29.34L26.37 26.84L24.54 28.67L28.87 33L30.7 31.17L36.34 25.53L34.51 23.7L28.87 29.34Z" fill="#FECE4D"/>
<path d="M23.12 19.5399C21.4 20.9499 20.14 22.8299 19.49 24.9599C18.84 27.0799 18.84 29.3499 19.48 31.4799C20.12 33.6099 21.38 35.4999 23.09 36.9099C24.8 38.3199 26.9 39.1899 29.11 39.4199C31.32 39.6399 33.55 39.1999 35.51 38.1599C37.47 37.1199 39.08 35.5099 40.13 33.5599C41.18 31.5999 41.63 29.3799 41.41 27.1699C41.2 24.9599 40.33 22.8599 38.92 21.1399C37.99 19.9999 36.84 19.0499 35.54 18.3499C34.24 17.6499 32.82 17.2199 31.35 17.0699C29.88 16.9199 28.4 17.0699 26.99 17.4899C25.58 17.9199 24.26 18.6199 23.12 19.5499V19.5399ZM35.77 35.0099C34.43 36.1099 32.79 36.7799 31.07 36.9499C29.35 37.1199 27.61 36.7699 26.08 35.9499C24.55 35.1299 23.3 33.8799 22.49 32.3499C21.68 30.8199 21.33 29.0799 21.51 27.3599C21.68 25.6399 22.36 23.9999 23.46 22.6599C24.56 21.3199 26.04 20.3399 27.69 19.8399C29.35 19.3399 31.12 19.3399 32.78 19.8399C34.44 20.3499 35.91 21.3299 37 22.6699C38.47 24.4699 39.17 26.7799 38.93 29.0899C38.7 31.3999 37.56 33.5199 35.76 34.9999L35.77 35.0099Z" fill="#FECE4D"/>
<path d="M38.76 35.6699L36.01 37.9199L37.11 39.2699L39.86 37.0199L38.76 35.6699Z" fill="#3D7FFC"/>
<path d="M36.74 39.53L40.16 36.73L45.74 43.18C46.51 44.13 46.37 45.52 45.43 46.29C44.48 47.06 43.09 46.92 42.32 45.98L36.74 39.53Z" fill="#C6DBFF"/>
</g>
</g>
<defs>
<clipPath id="clip0_10027_1442">
<rect width="47" height="47" fill="white"/>
</clipPath>
<clipPath id="clip1_10027_1442">
<rect width="46.24" height="46.79" fill="white"/>
</clipPath>
</defs>
</svg>
