<svg width="47" height="47" viewBox="0 0 47 47" fill="none" xmlns="http://www.w3.org/2000/svg">
<g id="scrape_all_major" clip-path="url(#clip0_23_33584)">
<g id="Layer_1" clip-path="url(#clip1_23_33584)">
<path id="Vector" d="M26.9998 6.61V13H33.7398C34.2698 13 34.7098 13.33 34.8998 13.79H44.0498C44.2898 13.79 44.4798 13.98 44.4798 14.22V19.45C44.4798 19.69 44.2898 19.88 44.0498 19.88H34.9898V20.8C35.1598 20.8 35.3198 20.77 35.4898 20.77C37.5098 20.77 39.4298 21.22 41.1598 22.01H45.3498C46.1298 22.01 46.7598 21.38 46.7598 20.6V1.41C46.7698 0.63 46.1398 0 45.3598 0H15.4898C14.7198 0 14.0898 0.63 14.0898 1.41V13H16.3698V6.61C16.3698 6.37 16.5598 6.18 16.7998 6.18H26.5898C26.8298 6.18 27.0198 6.37 27.0198 6.61H26.9998ZM28.5198 6.61C28.5198 6.37 28.7098 6.18 28.9498 6.18H44.0598C44.2998 6.18 44.4898 6.37 44.4898 6.61V11.84C44.4898 12.08 44.2998 12.27 44.0598 12.27H28.9498C28.7098 12.27 28.5198 12.08 28.5198 11.84V6.61ZM18.4198 3.77C17.8998 3.77 17.4798 3.34 17.4798 2.83C17.4798 2.32 17.9098 1.89 18.4198 1.89C18.9298 1.89 19.3598 2.32 19.3598 2.83C19.3598 3.34 18.9298 3.77 18.4198 3.77ZM21.4998 3.77C20.9798 3.77 20.5598 3.34 20.5598 2.83C20.5598 2.32 20.9898 1.89 21.4998 1.89C22.0098 1.89 22.4398 2.32 22.4398 2.83C22.4398 3.34 22.0098 3.77 21.4998 3.77ZM24.5798 3.77C24.0598 3.77 23.6398 3.34 23.6398 2.83C23.6398 2.32 24.0698 1.89 24.5798 1.89C25.0898 1.89 25.5198 2.32 25.5198 2.83C25.5198 3.34 25.0898 3.77 24.5798 3.77Z" fill="#3D7FFC"/>
<path id="Vector_2" d="M9.6293 30.7372C9.7593 30.7372 9.8793 30.6872 9.9893 30.6172H9.2793C9.3893 30.6872 9.4993 30.7372 9.6393 30.7372H9.6293Z" fill="#76A5FF"/>
<path id="Vector_3" d="M11.1304 32.52C11.1304 32.52 11.1004 32.5 11.0804 32.5H7.15039C7.15039 32.5 7.21039 32.52 7.24039 32.52H11.1204H11.1304Z" fill="#76A5FF"/>
<path id="Vector_4" d="M26.79 23.8822H19.25C19.04 23.8822 18.87 23.7122 18.87 23.5022V18.8622C18.87 18.6522 19.04 18.4822 19.25 18.4822H32.65C32.86 18.4822 33.03 18.6522 33.03 18.8622V20.9922C33.67 20.8722 34.33 20.8122 35 20.7822V14.2422C35 13.5522 34.44 12.9922 33.75 12.9922H7.25C6.56 12.9922 6 13.5522 6 14.2422V27.9922H8.09V18.8622C8.09 18.6522 8.26 18.4822 8.47 18.4822H17.15C17.36 18.4822 17.53 18.6522 17.53 18.8622V27.9922H18.81V25.6022C18.81 25.3922 18.98 25.2222 19.19 25.2222H25.39C25.83 24.7422 26.29 24.2822 26.79 23.8722V23.8822ZM9.85 16.3422C9.39 16.3422 9.01 15.9622 9.01 15.5022C9.01 15.0422 9.39 14.6622 9.85 14.6622C10.31 14.6622 10.69 15.0422 10.69 15.5022C10.69 15.9622 10.31 16.3422 9.85 16.3422ZM12.58 16.3422C12.12 16.3422 11.74 15.9622 11.74 15.5022C11.74 15.0422 12.12 14.6622 12.58 14.6622C13.04 14.6622 13.42 15.0422 13.42 15.5022C13.42 15.9622 13.04 16.3422 12.58 16.3422ZM15.31 16.3422C14.85 16.3422 14.47 15.9622 14.47 15.5022C14.47 15.0422 14.85 14.6622 15.31 14.6622C15.77 14.6622 16.15 15.0422 16.15 15.5022C16.15 15.9622 15.77 16.3422 15.31 16.3422Z" fill="#76A5FF"/>
<path id="Vector_5" d="M24.1 42.1578C24.09 42.3178 23.96 42.4478 23.8 42.4478H12.81C12.64 42.4478 12.5 42.3078 12.5 42.1378V38.3378C12.5 38.1678 12.64 38.0278 12.81 38.0278H22.23C22.13 37.6678 22.05 37.2978 21.98 36.9278H12.8C12.63 36.9278 12.49 36.7878 12.49 36.6178V32.8178C12.49 32.6478 12.63 32.5078 12.8 32.5078H21.91C22.15 30.9078 22.65 29.3878 23.39 28.0078H3.02C2.45 28.0078 2 28.4678 2 29.0278V42.9778C2 43.5478 2.46 43.9978 3.02 43.9978H24.74C24.98 43.9978 25.2 43.8978 25.37 43.7578C24.91 43.2578 24.47 42.7278 24.09 42.1578H24.1ZM9.64 29.3678C10.02 29.3678 10.33 29.6778 10.33 30.0578C10.33 30.4378 10.02 30.7478 9.64 30.7478C9.26 30.7478 8.95 30.4378 8.95 30.0578C8.95 29.6778 9.26 29.3678 9.64 29.3678ZM7.4 29.3678C7.79 29.3678 8.09 29.6778 8.09 30.0578C8.09 30.4378 7.78 30.7478 7.4 30.7478C7.02 30.7478 6.71 30.4378 6.71 30.0578C6.71 29.6778 7.02 29.3678 7.4 29.3678ZM5.16 29.3678C5.54 29.3678 5.85 29.6778 5.85 30.0578C5.85 30.4378 5.54 30.7478 5.16 30.7478C4.78 30.7478 4.47 30.4378 4.47 30.0578C4.47 29.6778 4.78 29.3678 5.16 29.3678ZM11.4 42.1378C11.4 42.3078 11.26 42.4478 11.09 42.4478H3.97C3.8 42.4478 3.66 42.3078 3.66 42.1378V32.8078C3.66 32.6378 3.8 32.4978 3.97 32.4978H11.09C11.26 32.4978 11.4 32.6378 11.4 32.8078V42.1378Z" fill="#C6DBFF"/>
<path id="Vector_6" d="M35.5 23C29.16 23 24 28.16 24 34.5C24 40.84 29.16 46 35.5 46C41.84 46 47 40.84 47 34.5C47 28.16 41.84 23 35.5 23ZM36.12 37.89L34.04 39.97L29.11 35.04L31.19 32.96L34.04 35.81L40.46 29.39L42.54 31.47L36.12 37.89Z" fill="#FECE4D"/>
</g>
</g>
<defs>
<clipPath id="clip0_23_33584">
<rect width="47" height="47" fill="white"/>
</clipPath>
<clipPath id="clip1_23_33584">
<rect width="47" height="47" fill="white"/>
</clipPath>
</defs>
</svg>
