<svg width="310" height="144" viewBox="0 0 310 144" fill="none" xmlns="http://www.w3.org/2000/svg">
<g clip-path="url(#clip0_8104_56775)">
<g filter="url(#filter0_d_8104_56775)">
<path d="M41.1312 5.98207H268.546C271.169 5.98207 273.354 8.27812 273.354 11.1854V149.808C273.354 152.716 271.169 155.012 268.546 155.012H41.1312C38.5086 155.012 36.3239 152.716 36.3239 149.808V11.1854C36.3239 8.27811 38.5086 5.98207 41.1312 5.98207Z" fill="white" stroke="#D2DCE4" stroke-width="0.97"/>
</g>
<path d="M53.9698 38.1125H52.1608C50.8795 38.1125 49.8408 39.1512 49.8408 40.4325V40.4325C49.8408 41.7138 50.8795 42.7525 52.1608 42.7525H53.9698C55.2511 42.7525 56.2898 41.7138 56.2898 40.4325V40.4325C56.2898 39.1512 55.2511 38.1125 53.9698 38.1125Z" fill="#70879C"/>
<path d="M98.6008 38.1125H78.4899C77.2086 38.1125 76.1699 39.1512 76.1699 40.4325V40.4325C76.1699 41.7138 77.2086 42.7525 78.4899 42.7525H98.6008C99.8821 42.7525 100.921 41.7138 100.921 40.4325C100.921 39.1512 99.8821 38.1125 98.6008 38.1125Z" fill="#15C1E6"/>
<path d="M132.865 38.1125H105.773C104.492 38.1125 103.453 39.1512 103.453 40.4325V40.4325C103.453 41.7138 104.492 42.7525 105.773 42.7525H132.865C134.146 42.7525 135.185 41.7138 135.185 40.4325C135.185 39.1512 134.146 38.1125 132.865 38.1125Z" fill="#B8C4D0"/>
<path d="M143.026 38.1125H140.05C138.769 38.1125 137.73 39.1512 137.73 40.4325V40.4325C137.73 41.7138 138.769 42.7525 140.05 42.7525H143.026C144.307 42.7525 145.346 41.7138 145.346 40.4325V40.4325C145.346 39.1512 144.307 38.1125 143.026 38.1125Z" fill="#70879C"/>
<path d="M185.822 38.1125H151.768C150.487 38.1125 149.448 39.1512 149.448 40.4325V40.4325C149.448 41.7138 150.487 42.7525 151.768 42.7525H185.822C187.104 42.7525 188.142 41.7138 188.142 40.4325C188.142 39.1512 187.104 38.1125 185.822 38.1125Z" fill="#9BACBC"/>
<path d="M239.563 38.1125H194.76C193.479 38.1125 192.44 39.1512 192.44 40.4325V40.4325C192.44 41.7138 193.479 42.7525 194.76 42.7525H239.563C240.844 42.7525 241.883 41.7138 241.883 40.4325C241.883 39.1512 240.844 38.1125 239.563 38.1125Z" fill="#9D97F4"/>
<path d="M142.732 52.9606H139.757C138.475 52.9606 137.437 53.9993 137.437 55.2806V55.2806C137.437 56.5619 138.475 57.6006 139.757 57.6006H142.732C144.013 57.6006 145.052 56.5619 145.052 55.2806V55.2806C145.052 53.9993 144.013 52.9606 142.732 52.9606Z" fill="#70879C"/>
<path d="M171.785 52.9606H151.674C150.393 52.9606 149.354 53.9993 149.354 55.2806V55.2806C149.354 56.5619 150.393 57.6006 151.674 57.6006H171.785C173.067 57.6006 174.105 56.5619 174.105 55.2806C174.105 53.9993 173.067 52.9606 171.785 52.9606Z" fill="#B8C4D0"/>
<path d="M190.493 52.9606H180.285C179.004 52.9606 177.965 53.9993 177.965 55.2806V55.2806C177.965 56.5619 179.004 57.6006 180.285 57.6006H190.493C191.774 57.6006 192.813 56.5619 192.813 55.2806V55.2806C192.813 53.9993 191.774 52.9606 190.493 52.9606Z" fill="#70879C"/>
<path d="M53.9679 52.9606H52.1589C50.8776 52.9606 49.8389 53.9993 49.8389 55.2806V55.2806C49.8389 56.5619 50.8776 57.6006 52.1589 57.6006H53.9679C55.2492 57.6006 56.2879 56.5619 56.2879 55.2806V55.2806C56.2879 53.9993 55.2492 52.9606 53.9679 52.9606Z" fill="#70879C"/>
<path d="M91.6178 52.9606H78.488C77.2067 52.9606 76.168 53.9993 76.168 55.2806V55.2806C76.168 56.5619 77.2067 57.6006 78.488 57.6006H91.6178C92.8991 57.6006 93.9378 56.5619 93.9378 55.2806C93.9378 53.9993 92.8991 52.9606 91.6178 52.9606Z" fill="#70879C"/>
<path d="M130.817 52.9606H100.551C99.2701 52.9606 98.2314 53.9993 98.2314 55.2806V55.2806C98.2314 56.5619 99.2701 57.6006 100.551 57.6006H130.817C132.098 57.6006 133.137 56.5619 133.137 55.2806C133.137 53.9993 132.098 52.9606 130.817 52.9606Z" fill="#9BACBC"/>
<path d="M219.151 67.3801H216.328C215.005 67.3801 213.932 68.4531 213.932 69.7766V69.7766C213.932 71.1001 215.005 72.1731 216.328 72.1731H219.151C220.474 72.1731 221.547 71.1001 221.547 69.7766V69.7766C221.547 68.4531 220.474 67.3801 219.151 67.3801Z" fill="#70879C"/>
<path d="M248.464 67.3801H228.506C227.182 67.3801 226.109 68.4531 226.109 69.7766V69.7766C226.109 71.1001 227.182 72.1731 228.506 72.1731H248.464C249.787 72.1731 250.86 71.1001 250.86 69.7766C250.86 68.4531 249.787 67.3801 248.464 67.3801Z" fill="#15C1E6"/>
<path d="M207.104 67.8086H176.839C175.557 67.8086 174.519 68.8473 174.519 70.1286V70.1286C174.519 71.4099 175.557 72.4486 176.839 72.4486H207.104C208.385 72.4486 209.424 71.4099 209.424 70.1286C209.424 68.8473 208.385 67.8086 207.104 67.8086Z" fill="#B8C4D0"/>
<path d="M53.9679 67.8086H52.1589C50.8776 67.8086 49.8389 68.8473 49.8389 70.1286V70.1286C49.8389 71.4099 50.8776 72.4486 52.1589 72.4486H53.9679C55.2492 72.4486 56.2879 71.4099 56.2879 70.1286V70.1286C56.2879 68.8473 55.2492 67.8086 53.9679 67.8086Z" fill="#70879C"/>
<path d="M129.815 67.8086H105.896C104.615 67.8086 103.576 68.8473 103.576 70.1286V70.1286C103.576 71.4099 104.615 72.4486 105.896 72.4486H129.815C131.096 72.4486 132.135 71.4099 132.135 70.1286C132.135 68.8473 131.096 67.8086 129.815 67.8086Z" fill="#9BACBC"/>
<path d="M136.543 70.1286C136.543 68.8473 137.582 67.8086 138.863 67.8086H167.859C169.14 67.8086 170.179 68.8473 170.179 70.1286C170.179 71.4099 169.14 72.4485 167.859 72.4485H138.863C137.582 72.4485 136.543 71.4099 136.543 70.1286Z" fill="#70879C"/>
<path d="M53.6778 115.117H51.8688C50.5875 115.117 49.5488 116.156 49.5488 117.437V117.437C49.5488 118.718 50.5875 119.757 51.8688 119.757H53.6778C54.9591 119.757 55.9978 118.718 55.9978 117.437V117.437C55.9978 116.156 54.9591 115.117 53.6778 115.117Z" fill="#B8C4D0"/>
<path d="M98.3088 115.117H78.1979C76.9166 115.117 75.8779 116.156 75.8779 117.437V117.437C75.8779 118.718 76.9166 119.757 78.1979 119.757H98.3088C99.5901 119.757 100.629 118.718 100.629 117.437V117.437C100.629 116.156 99.5901 115.117 98.3088 115.117Z" fill="#15C1E6"/>
<path d="M134.342 115.117H107.25C105.968 115.117 104.93 116.156 104.93 117.437V117.437C104.93 118.718 105.968 119.757 107.25 119.757H134.342C135.623 119.757 136.662 118.718 136.662 117.437V117.437C136.662 116.156 135.623 115.117 134.342 115.117Z" fill="#B8C4D0"/>
<path d="M151.532 115.117H143.274C141.993 115.117 140.954 116.156 140.954 117.437V117.437C140.954 118.718 141.993 119.757 143.274 119.757H151.532C152.813 119.757 153.852 118.718 153.852 117.437V117.437C153.852 116.156 152.813 115.117 151.532 115.117Z" fill="#9BACBC"/>
<path d="M196.68 115.117H160.476C159.195 115.117 158.156 116.156 158.156 117.437V117.437C158.156 118.718 159.195 119.757 160.476 119.757H196.68C197.961 119.757 199 118.718 199 117.437C199 116.156 197.961 115.117 196.68 115.117Z" fill="#9D97F4"/>
<path d="M253.209 114.784H205.693C204.37 114.784 203.297 115.857 203.297 117.18V117.18C203.297 118.504 204.37 119.577 205.693 119.577H253.209C254.533 119.577 255.606 118.504 255.606 117.18C255.606 115.857 254.533 114.784 253.209 114.784Z" fill="#B8C4D0"/>
<path d="M167.1 129.965H140.008C138.727 129.965 137.688 131.004 137.688 132.285V132.285C137.688 133.566 138.727 134.605 140.008 134.605H167.1C168.382 134.605 169.42 133.566 169.42 132.285V132.285C169.42 131.004 168.382 129.965 167.1 129.965Z" fill="#B8C4D0"/>
<path d="M178.811 129.965H175.836C174.554 129.965 173.516 131.003 173.516 132.285V132.285C173.516 133.566 174.554 134.605 175.836 134.605H178.811C180.093 134.605 181.131 133.566 181.131 132.285V132.285C181.131 131.003 180.093 129.965 178.811 129.965Z" fill="#D2DCE4"/>
<path d="M208.126 129.965H188.015C186.734 129.965 185.695 131.003 185.695 132.285V132.285C185.695 133.566 186.734 134.605 188.015 134.605H208.126C209.407 134.605 210.446 133.566 210.446 132.285V132.285C210.446 131.003 209.407 129.965 208.126 129.965Z" fill="#9BACBC"/>
<path d="M53.6798 129.965H51.8708C50.5895 129.965 49.5508 131.004 49.5508 132.285V132.285C49.5508 133.566 50.5895 134.605 51.8708 134.605H53.6798C54.9611 134.605 55.9998 133.566 55.9998 132.285V132.285C55.9998 131.004 54.9611 129.965 53.6798 129.965Z" fill="#B8C4D0"/>
<path d="M91.3278 129.965H78.1979C76.9166 129.965 75.8779 131.004 75.8779 132.285V132.285C75.8779 133.566 76.9166 134.605 78.1979 134.605H91.3278C92.6091 134.605 93.6478 133.566 93.6478 132.285V132.285C93.6478 131.004 92.6091 129.965 91.3278 129.965Z" fill="#B8C4D0"/>
<path d="M130.864 129.965H100.599C99.318 129.965 98.2793 131.004 98.2793 132.285V132.285C98.2793 133.566 99.318 134.605 100.599 134.605H130.864C132.146 134.605 133.184 133.566 133.184 132.285C133.184 131.004 132.146 129.965 130.864 129.965Z" fill="#9BACBC"/>
<path d="M247.658 129.965H217.393C216.112 129.965 215.073 131.004 215.073 132.285V132.285C215.073 133.566 216.112 134.605 217.393 134.605H247.658C248.94 134.605 249.978 133.566 249.978 132.285C249.978 131.004 248.94 129.965 247.658 129.965Z" fill="#15C1E6"/>
<path d="M53.6778 85.4211H51.8688C50.5875 85.4211 49.5488 86.4598 49.5488 87.7411C49.5488 89.0224 50.5875 90.0611 51.8688 90.0611H53.6778C54.9591 90.0611 55.9978 89.0224 55.9978 87.7411C55.9978 86.4598 54.9591 85.4211 53.6778 85.4211Z" fill="#B8C4D0"/>
<path d="M142.852 85.4211H105.606C104.325 85.4211 103.286 86.4598 103.286 87.7411V87.7411C103.286 89.0224 104.325 90.0611 105.606 90.0611H142.852C144.134 90.0611 145.172 89.0224 145.172 87.7411C145.172 86.4598 144.134 85.4211 142.852 85.4211Z" fill="#9D97F4"/>
<path d="M162.702 85.4211H151.476C150.195 85.4211 149.156 86.4598 149.156 87.7411V87.7411C149.156 89.0224 150.195 90.0611 151.476 90.0611H162.702C163.984 90.0611 165.022 89.0224 165.022 87.7411V87.7411C165.022 86.4598 163.984 85.4211 162.702 85.4211Z" fill="#9BACBC"/>
<path d="M208.78 85.4211H171.534C170.253 85.4211 169.214 86.4598 169.214 87.7411V87.7411C169.214 89.0224 170.253 90.0611 171.534 90.0611H208.78C210.061 90.0611 211.1 89.0224 211.1 87.7411C211.1 86.4598 210.061 85.4211 208.78 85.4211Z" fill="#B8C4D0"/>
<path d="M228.543 85.4211H217.47C216.146 85.4211 215.073 86.494 215.073 87.8176V87.8176C215.073 89.1411 216.146 90.214 217.47 90.214H228.543C229.866 90.214 230.939 89.1411 230.939 87.8176V87.8176C230.939 86.494 229.866 85.4211 228.543 85.4211Z" fill="#B8C4D0"/>
<path d="M203.296 100.27H190.166C188.884 100.27 187.846 101.308 187.846 102.59V102.59C187.846 103.871 188.884 104.91 190.166 104.91H203.296C204.577 104.91 205.616 103.871 205.616 102.59C205.616 101.308 204.577 100.27 203.296 100.27Z" fill="#9BACBC"/>
<path d="M242.558 100.45H212.446C211.123 100.45 210.05 101.523 210.05 102.846V102.846C210.05 104.17 211.123 105.243 212.446 105.243H242.558C243.882 105.243 244.955 104.17 244.955 102.846C244.955 101.523 243.882 100.45 242.558 100.45Z" fill="#15C1E6"/>
<path d="M53.6778 100.269H51.8688C50.5875 100.269 49.5488 101.308 49.5488 102.589V102.589C49.5488 103.871 50.5875 104.909 51.8688 104.909H53.6778C54.9591 104.909 55.9978 103.871 55.9978 102.589V102.589C55.9978 101.308 54.9591 100.269 53.6778 100.269Z" fill="#B8C4D0"/>
<path d="M152.109 100.269H119.94C118.659 100.269 117.62 101.308 117.62 102.589V102.589C117.62 103.871 118.659 104.909 119.94 104.909H152.109C153.39 104.909 154.429 103.871 154.429 102.589C154.429 101.308 153.39 100.269 152.109 100.269Z" fill="#9BACBC"/>
<path d="M158.474 102.589C158.474 101.308 159.512 100.27 160.793 100.27H181.539C182.82 100.27 183.859 101.308 183.859 102.589C183.859 103.87 182.82 104.909 181.539 104.909H160.793C159.512 104.909 158.474 103.87 158.474 102.589Z" fill="#D2DCE4"/>
<path d="M36.7666 27.1724H272.707" stroke="#D2DCE4" stroke-width="0.927997"/>
<path fill-rule="evenodd" clip-rule="evenodd" d="M58.4806 15.937H59.2475C59.4068 15.937 59.5359 16.0662 59.5361 16.2255V17.6681C59.5361 17.8275 59.407 17.9566 59.2476 17.9566H58.4807C58.3919 18.2883 58.2606 18.6026 58.0927 18.8932L58.6351 19.4357C58.7478 19.5484 58.7478 19.731 58.6351 19.8437L57.6153 20.8638C57.5027 20.9764 57.3201 20.9764 57.2074 20.8638L56.665 20.3211C56.3745 20.4891 56.0603 20.6205 55.7287 20.7093V21.4765C55.7287 21.6358 55.5996 21.765 55.4402 21.765H53.9981C53.8388 21.765 53.7097 21.6358 53.7097 21.4765V20.7093C53.3781 20.6205 53.0638 20.4891 52.7734 20.3212L52.231 20.8638C52.1183 20.9764 51.9358 20.9764 51.823 20.8638L50.8033 19.8437C50.6907 19.731 50.6907 19.5484 50.8033 19.4357L51.3458 18.8932C51.1778 18.6026 51.0466 18.2883 50.9578 17.9566H50.1908C50.0315 17.9566 49.9023 17.8275 49.9023 17.6681V16.2255C49.9023 16.0662 50.0315 15.937 50.1908 15.937H50.9578C51.0465 15.6053 51.1778 15.291 51.3457 15.0005L50.8032 14.4579C50.6906 14.3452 50.6906 14.1625 50.8032 14.0498L51.823 13.0299C51.9357 12.9171 52.1182 12.9171 52.2309 13.0299L52.7734 13.5724C53.0638 13.4045 53.378 13.2732 53.7097 13.1844V12.4172C53.7097 12.2578 53.8388 12.1286 53.998 12.1286H55.4402C55.5996 12.1286 55.7287 12.2578 55.7287 12.4172V13.1843C56.0603 13.2732 56.3745 13.4045 56.665 13.5724L57.2074 13.0298C57.32 12.9171 57.5027 12.9171 57.6152 13.0298L58.635 14.0498C58.7477 14.1625 58.7477 14.3452 58.635 14.4578L58.0926 15.0004C58.2605 15.2909 58.3918 15.6053 58.4806 15.937ZM54.7178 18.8726C55.7819 18.8726 56.6445 18.0097 56.6445 16.9454C56.6445 15.881 55.7819 15.0182 54.7178 15.0182C53.6538 15.0182 52.7912 15.881 52.7912 16.9454C52.7912 18.0097 53.6538 18.8726 54.7178 18.8726Z" fill="#B8C4D0"/>
<path d="M136.795 14.6094H70.4352C69.1539 14.6094 68.1152 15.6481 68.1152 16.9294V16.9294C68.1152 18.2107 69.1539 19.2494 70.4352 19.2494H136.795C138.076 19.2494 139.115 18.2107 139.115 16.9294C139.115 15.6481 138.076 14.6094 136.795 14.6094Z" fill="#B8C4D0"/>
<g filter="url(#filter1_dd_8104_56775)">
<path d="M291.549 38.5104C291.549 36.8748 290.946 35.3062 289.874 34.1497C288.802 32.9932 287.348 32.3434 285.832 32.3434H24.2661C22.7498 32.3434 21.2956 32.9932 20.2234 34.1497C19.1512 35.3062 18.5488 36.8748 18.5488 38.5104V68.5742C18.5488 70.2098 19.1512 71.7784 20.2234 72.9349C21.2956 74.0914 22.7498 74.7412 24.2661 74.7412H285.832C287.348 74.7412 288.802 74.0914 289.874 72.9349C290.946 71.7784 291.549 70.2098 291.549 68.5742V38.5104Z" fill="white"/>
<path d="M289.565 34.436C290.563 35.5115 291.128 36.9766 291.128 38.5104V68.5742C291.128 70.108 290.563 71.5731 289.565 72.6486C288.569 73.7231 287.225 74.3201 285.832 74.3201H24.2661C22.8722 74.3201 21.5283 73.7231 20.5322 72.6486C19.5351 71.5731 18.9699 70.108 18.9699 68.5742V38.5104C18.9699 36.9766 19.5351 35.5115 20.5322 34.436C21.5283 33.3615 22.8722 32.7645 24.2661 32.7645H285.832C287.225 32.7645 288.569 33.3615 289.565 34.436Z" stroke="#D2DCE4" stroke-width="0.842174"/>
</g>
<path d="M44.9326 48.8889L48.5059 52.8195L44.9326 56.7501" stroke="#9BACBC" stroke-width="1.65323"/>
<path d="M33.4971 56.7502L29.9238 52.8195L33.4971 48.8889" stroke="#9BACBC" stroke-width="1.65323"/>
<path d="M261.07 40.6161H62.4716C59.9162 40.6161 57.8447 42.9672 57.8447 45.8674V61.2172C57.8447 64.1174 59.9162 66.4684 62.4716 66.4684H261.07C263.625 66.4684 265.697 64.1174 265.697 61.2172V45.8674C265.697 42.9672 263.625 40.6161 261.07 40.6161Z" fill="#EEF2F7"/>
<path d="M72.09 57.7525H70.7002V53.8581C70.7002 52.8737 70.5409 51.8892 69.2814 51.8892C68.0219 51.8892 67.4862 52.975 67.4862 54.3503V57.7525H66.1109V47.7632H67.4862V51.9616H67.5152C67.8771 51.2812 68.6299 50.7455 69.6289 50.7455C71.6123 50.7455 72.09 52.0195 72.09 53.6554V57.7525ZM77.7485 57.6801C77.3865 57.8394 76.9667 57.9118 76.4889 57.9118C74.7662 57.9118 74.6793 56.493 74.6793 55.1466V52.005H73.6659V50.8903H74.6793V48.8345H76.0691V50.8903H77.7195V52.005H76.0691V55.1176C76.0691 55.6967 76.0836 56.0876 76.2428 56.3772C76.3731 56.5943 76.5613 56.7246 76.9522 56.7246C77.3576 56.7246 77.6616 56.5654 77.6616 56.5654L77.7485 57.6801ZM82.5373 57.6801C82.1753 57.8394 81.7555 57.9118 81.2778 57.9118C79.555 57.9118 79.4681 56.493 79.4681 55.1466V52.005H78.4547V50.8903H79.4681V48.8345H80.8579V50.8903H82.5083V52.005H80.8579V55.1176C80.8579 55.6967 80.8724 56.0876 81.0316 56.3772C81.1619 56.5943 81.3501 56.7246 81.741 56.7246C82.1464 56.7246 82.4504 56.5654 82.4504 56.5654L82.5373 57.6801ZM91.3039 54.3069C91.3039 56.3482 90.001 57.9118 87.9597 57.9118C86.8739 57.9118 86.0777 57.4485 85.5854 56.6812L85.5709 56.6667V60.4453H84.1811V50.8758H85.513V51.9616H85.542C86.15 51.1509 86.9752 50.7455 87.9887 50.7455C90.0155 50.7455 91.3039 52.2656 91.3039 54.3069ZM89.8852 54.2924C89.8852 52.9171 89.0744 51.8747 87.6991 51.8747C86.3238 51.8747 85.513 52.9171 85.513 54.2924C85.513 55.6678 86.3238 56.7246 87.6991 56.7246C89.0744 56.7246 89.8852 55.6678 89.8852 54.2924ZM97.8144 55.7402C97.8144 57.2168 96.5259 57.9118 95.194 57.9118C94.0359 57.9118 93.0948 57.434 92.5157 56.6812L93.1817 55.8705C93.7608 56.4785 94.5715 56.8549 95.2085 56.8549C95.8455 56.8549 96.5259 56.6233 96.5259 55.8705C96.5259 55.1176 95.4401 54.886 94.9769 54.7268C93.9635 54.3793 92.9501 54.0174 92.9501 52.7144C92.9501 51.4404 94.0503 50.7455 95.2664 50.7455C96.4825 50.7455 97.1774 51.1798 97.6117 51.6431L97.0326 52.4973C96.6273 52.0774 95.9613 51.7589 95.2954 51.7589C94.6294 51.7589 94.1951 52.0485 94.1951 52.6131C94.1951 53.1777 94.8611 53.4238 95.5415 53.641C95.9179 53.7713 96.1785 53.8581 96.468 53.9739C97.2353 54.2924 97.8144 54.8426 97.8144 55.7402ZM101.797 51.672C101.797 52.2222 101.391 52.5841 100.841 52.5841C100.276 52.5841 99.8711 52.2222 99.8711 51.672C99.8711 51.1219 100.276 50.76 100.841 50.76C101.391 50.76 101.797 51.1219 101.797 51.672ZM101.797 56.9997C101.797 57.5498 101.391 57.8973 100.841 57.8973C100.276 57.8973 99.8711 57.5498 99.8711 56.9997C99.8711 56.4351 100.276 56.0876 100.841 56.0876C101.391 56.0876 101.797 56.4351 101.797 56.9997ZM110.697 46.7353L104.674 59.0989L103.748 58.679L109.77 46.3299L110.697 46.7353ZM118.653 46.7353L112.63 59.0989L111.704 58.679L117.726 46.3299L118.653 46.7353ZM126.319 50.8758L123.004 58.9541C122.526 60.1413 121.961 60.5466 121.194 60.5466C120.427 60.5466 119.891 60.3005 119.891 60.3005L120.166 59.1713C120.166 59.1713 120.542 59.3305 120.89 59.3305C121.454 59.3305 121.599 59.0265 121.787 58.5198L122.12 57.6077L119.326 50.8613L120.774 50.8758L122.859 56.2179L124.886 50.8613L126.319 50.8758ZM134.449 54.3359C134.449 56.4785 132.857 57.9118 130.815 57.9118C128.759 57.9118 127.167 56.4785 127.167 54.3359C127.167 52.2077 128.759 50.7455 130.815 50.7455C132.857 50.7455 134.449 52.2077 134.449 54.3359ZM133.045 54.2924C133.045 52.946 132.191 51.8747 130.815 51.8747C129.425 51.8747 128.571 52.946 128.571 54.2924C128.571 55.6533 129.425 56.7246 130.815 56.7246C132.191 56.7246 133.045 55.6533 133.045 54.2924ZM142.184 57.7525H140.838L140.823 56.768C140.447 57.434 139.665 57.9118 138.695 57.9118C136.784 57.9118 136.277 56.6957 136.277 54.9873V50.8613H137.653V54.9294C137.653 55.8705 137.855 56.7536 139.086 56.7536C140.302 56.7536 140.794 55.7112 140.794 54.553V50.8613H142.184V57.7525ZM148.368 50.8613L148.281 52.1498H148.223C148.093 52.0919 147.847 52.005 147.47 52.005C146.225 52.005 145.921 53.3225 145.921 54.3214V57.7525H144.531V50.8758H145.921L145.907 51.9326H145.95C146.283 51.1509 146.906 50.7455 147.644 50.7455C148.107 50.7455 148.368 50.8613 148.368 50.8613ZM153.159 57.6801C152.797 57.8394 152.377 57.9118 151.9 57.9118C150.177 57.9118 150.09 56.493 150.09 55.1466V52.005H149.077V50.8903H150.09V48.8345H151.48V50.8903H153.13V52.005H151.48V55.1176C151.48 55.6967 151.494 56.0876 151.654 56.3772C151.784 56.5943 151.972 56.7246 152.363 56.7246C152.768 56.7246 153.072 56.5654 153.072 56.5654L153.159 57.6801ZM160.087 57.7525H158.741L158.726 56.8839C158.451 57.1734 157.8 57.9118 156.54 57.9118C155.266 57.9118 154.166 57.1155 154.166 55.7836C154.166 54.4372 155.266 53.7568 156.859 53.6844L158.697 53.612V53.3369C158.697 52.2946 157.988 51.7734 156.989 51.7734C155.99 51.7734 155.151 52.2222 154.919 52.367L154.499 51.4404C155.006 51.1509 155.932 50.7455 157.076 50.7455C159.088 50.7455 160.087 51.7589 160.087 53.7568V57.7525ZM158.712 54.4517L157.105 54.553C155.99 54.6109 155.541 55.0887 155.541 55.7402C155.541 56.3916 156.048 56.9273 156.96 56.9273C157.858 56.9273 158.451 56.3193 158.712 55.9284V54.4517ZM166.141 50.8613L166.055 52.1498H165.997C165.866 52.0919 165.62 52.005 165.244 52.005C163.999 52.005 163.695 53.3225 163.695 54.3214V57.7525H162.305V50.8758H163.695L163.68 51.9326H163.724C164.057 51.1509 164.679 50.7455 165.418 50.7455C165.881 50.7455 166.141 50.8613 166.141 50.8613ZM174.177 56.3048C174.177 57.8249 173.931 58.6646 173.425 59.2726C172.918 59.8951 172.064 60.59 170.355 60.59C168.662 60.59 167.489 59.7069 167.286 59.5622L167.938 58.5922C168.3 58.9107 169.371 59.4608 170.399 59.4608C172.151 59.4608 172.802 58.404 172.802 56.7825V56.4351H172.773C172.31 57.13 171.528 57.6656 170.37 57.6656C168.604 57.6656 167.055 56.3916 167.055 54.2056C167.055 52.0195 168.604 50.7455 170.37 50.7455C171.572 50.7455 172.368 51.3246 172.773 51.9616H172.817L172.802 50.8758H174.177V56.3048ZM172.846 54.2056C172.846 52.9026 172.078 51.8603 170.66 51.8603C169.255 51.8603 168.473 52.9026 168.473 54.2056C168.473 55.5085 169.255 56.5364 170.66 56.5364C172.078 56.5364 172.846 55.5085 172.846 54.2056ZM182.817 54.0318C182.817 54.2924 182.774 54.6399 182.774 54.6399H177.475C177.547 56.0008 178.416 56.826 179.69 56.826C180.979 56.826 181.804 56.131 181.963 56.0297L182.542 56.826C182.455 56.8983 181.572 57.9118 179.516 57.9118C177.475 57.9118 176.071 56.493 176.071 54.3069C176.071 52.1353 177.649 50.7455 179.56 50.7455C181.471 50.7455 182.817 52.1064 182.817 54.0318ZM181.5 53.7133C181.485 52.946 180.906 51.7444 179.516 51.7444C178.141 51.7444 177.533 52.8881 177.49 53.7133H181.5ZM187.975 57.6801C187.613 57.8394 187.194 57.9118 186.716 57.9118C184.993 57.9118 184.906 56.493 184.906 55.1466V52.005H183.893V50.8903H184.906V48.8345H186.296V50.8903H187.946V52.005H186.296V55.1176C186.296 55.6967 186.31 56.0876 186.47 56.3772C186.6 56.5943 186.788 56.7246 187.179 56.7246C187.584 56.7246 187.888 56.5654 187.888 56.5654L187.975 57.6801ZM191.747 56.9997C191.747 57.5498 191.342 57.8973 190.792 57.8973C190.227 57.8973 189.822 57.5498 189.822 56.9997C189.822 56.4351 190.227 56.0876 190.792 56.0876C191.342 56.0876 191.747 56.4351 191.747 56.9997ZM200.112 56.8694C199.909 57.0721 199.2 57.9118 197.361 57.9118C195.508 57.9118 193.887 56.5219 193.887 54.3214C193.887 52.1064 195.581 50.7455 197.405 50.7455C199.243 50.7455 199.996 51.6431 200.069 51.73L199.576 52.7434C199.345 52.5117 198.737 51.9037 197.521 51.9037C196.305 51.9037 195.291 52.8302 195.291 54.278C195.291 55.7257 196.189 56.7246 197.521 56.7246C198.867 56.7246 199.62 55.856 199.62 55.856L200.112 56.8694ZM208.474 54.3359C208.474 56.4785 206.882 57.9118 204.84 57.9118C202.785 57.9118 201.192 56.4785 201.192 54.3359C201.192 52.2077 202.785 50.7455 204.84 50.7455C206.882 50.7455 208.474 52.2077 208.474 54.3359ZM207.07 54.2924C207.07 52.946 206.216 51.8747 204.84 51.8747C203.451 51.8747 202.597 52.946 202.597 54.2924C202.597 55.6533 203.451 56.7246 204.84 56.7246C206.216 56.7246 207.07 55.6533 207.07 54.2924ZM220.321 57.7525H218.946V53.7423C218.946 52.946 218.801 51.8892 217.686 51.8892C216.586 51.8892 216.036 52.946 216.036 54.1766V57.7525H214.646V53.7423C214.646 52.7289 214.4 51.8892 213.401 51.8892C212.3 51.8892 211.75 52.946 211.75 54.1766V57.7525H210.36V50.8758H211.75L211.736 51.9616H211.779C212.098 51.3246 212.851 50.7455 213.763 50.7455C214.776 50.7455 215.485 51.2088 215.804 52.1064C216.267 51.2377 217.02 50.7455 217.99 50.7455C219.829 50.7455 220.321 52.0919 220.321 53.583V57.7525Z" fill="#42505D"/>
<path d="M279.455 49.5208C279.188 49.5208 278.926 49.4415 278.704 49.2921C278.481 49.1428 278.309 48.932 278.207 48.6847C278.105 48.4373 278.079 48.1652 278.132 47.903C278.185 47.6407 278.315 47.4002 278.505 47.2118C278.695 47.0231 278.937 46.8959 279.2 46.8451C279.463 46.7944 279.734 46.823 279.981 46.9273C280.227 47.0317 280.437 47.206 280.584 47.4297C280.731 47.6534 280.807 47.9156 280.805 48.183C280.802 48.5389 280.658 48.8791 280.405 49.1299C280.152 49.3807 279.811 49.5208 279.455 49.5208Z" fill="#9BACBC"/>
<path d="M279.455 54.2456C279.188 54.2455 278.926 54.1659 278.704 54.0169C278.482 53.8683 278.309 53.6567 278.207 53.4095C278.105 53.162 278.079 52.8899 278.132 52.6276C278.186 52.3654 278.315 52.1252 278.505 51.9365C278.695 51.7479 278.937 51.6207 279.2 51.5699C279.463 51.5192 279.734 51.5478 279.981 51.6521C280.228 51.7565 280.437 51.9308 280.584 52.1545C280.731 52.3784 280.808 52.6408 280.805 52.9085C280.802 53.2637 280.659 53.6039 280.406 53.8547C280.153 54.1056 279.811 54.2456 279.455 54.2456Z" fill="#9BACBC"/>
<path d="M279.456 59.0453C279.188 59.0453 278.928 58.966 278.705 58.818C278.483 58.6693 278.31 58.4585 278.208 58.212C278.106 57.9655 278.079 57.6939 278.131 57.4323C278.183 57.1703 278.312 56.9295 278.501 56.7405C278.69 56.5519 278.93 56.4232 279.192 56.3718C279.453 56.3203 279.725 56.346 279.972 56.4482C280.219 56.5501 280.43 56.7233 280.578 56.9456C280.726 57.1672 280.805 57.4287 280.805 57.6953C280.805 58.0532 280.663 58.3963 280.41 58.6494C280.157 58.9025 279.814 59.0449 279.456 59.0453Z" fill="#9BACBC"/>
</g>
<defs>
<filter id="filter0_d_8104_56775" x="26.4655" y="-0.126922" width="256.747" height="168.747" filterUnits="userSpaceOnUse" color-interpolation-filters="sRGB">
<feFlood flood-opacity="0" result="BackgroundImageFix"/>
<feColorMatrix in="SourceAlpha" type="matrix" values="0 0 0 0 0 0 0 0 0 0 0 0 0 0 0 0 0 0 127 0" result="hardAlpha"/>
<feOffset dy="3.74933"/>
<feGaussianBlur stdDeviation="4.68666"/>
<feColorMatrix type="matrix" values="0 0 0 0 0.0941177 0 0 0 0 0.188235 0 0 0 0 0.247059 0 0 0 0.05 0"/>
<feBlend mode="normal" in2="BackgroundImageFix" result="effect1_dropShadow_8104_56775"/>
<feBlend mode="normal" in="SourceGraphic" in2="effect1_dropShadow_8104_56775" result="shape"/>
</filter>
<filter id="filter1_dd_8104_56775" x="13.3405" y="27.1351" width="289.369" height="58.7667" filterUnits="userSpaceOnUse" color-interpolation-filters="sRGB">
<feFlood flood-opacity="0" result="BackgroundImageFix"/>
<feColorMatrix in="SourceAlpha" type="matrix" values="0 0 0 0 0 0 0 0 0 0 0 0 0 0 0 0 0 0 127 0" result="hardAlpha"/>
<feOffset dx="3.72023" dy="3.72023"/>
<feGaussianBlur stdDeviation="3.72023"/>
<feColorMatrix type="matrix" values="0 0 0 0 0 0 0 0 0 0.296699 0 0 0 0 0.858629 0 0 0 0.08 0"/>
<feBlend mode="normal" in2="BackgroundImageFix" result="effect1_dropShadow_8104_56775"/>
<feColorMatrix in="SourceAlpha" type="matrix" values="0 0 0 0 0 0 0 0 0 0 0 0 0 0 0 0 0 0 127 0" result="hardAlpha"/>
<feOffset/>
<feGaussianBlur stdDeviation="2.60416"/>
<feComposite in2="hardAlpha" operator="out"/>
<feColorMatrix type="matrix" values="0 0 0 0 0.0354167 0 0 0 0 0.105426 0 0 0 0 0.2125 0 0 0 0.07 0"/>
<feBlend mode="normal" in2="effect1_dropShadow_8104_56775" result="effect2_dropShadow_8104_56775"/>
<feBlend mode="normal" in="SourceGraphic" in2="effect2_dropShadow_8104_56775" result="shape"/>
</filter>
<clipPath id="clip0_8104_56775">
<path d="M0.94043 0H309.94V136C309.94 140.418 306.359 144 301.94 144H8.94044C4.52216 144 0.94043 140.418 0.94043 136V0Z" fill="white"/>
</clipPath>
</defs>
</svg>
