<svg width="35" height="34" viewBox="0 0 35 34" fill="none" xmlns="http://www.w3.org/2000/svg">
<g id="search_engine_collector">
<path id="Subtract" fill-rule="evenodd" clip-rule="evenodd" d="M24.1392 21.905C25.1969 20.4969 25.8236 18.7466 25.8236 16.85C25.8236 14.9533 25.1969 13.2031 24.1392 11.795H32.4645C32.9845 11.795 33.4061 12.1722 33.4061 12.6375V21.0625C33.4061 21.5278 32.9845 21.905 32.4645 21.905H24.1392ZM10.658 21.905H2.33273C1.81269 21.905 1.39111 21.5278 1.39111 21.0625V12.6375C1.39111 12.1722 1.81269 11.795 2.33273 11.795H10.658C9.60034 13.2031 8.97361 14.9533 8.97361 16.85C8.97361 18.7466 9.60034 20.4969 10.658 21.905ZM12.9404 21.905C11.5411 20.67 10.6586 18.863 10.6586 16.85C10.6586 14.8369 11.5411 13.03 12.9404 11.795H21.8568C23.2561 13.03 24.1386 14.8369 24.1386 16.85C24.1386 18.863 23.2561 20.67 21.8568 21.905H12.9404Z" fill="#98DEF4"/>
<path id="Ellipse 2342" d="M24.1387 16.85C24.1387 20.5724 21.1211 23.59 17.3987 23.59C13.6763 23.59 10.6587 20.5724 10.6587 16.85C10.6587 13.1276 13.6763 10.11 17.3987 10.11C21.1211 10.11 24.1387 13.1276 24.1387 16.85Z" fill="#15C1E6"/>
<path id="Rectangle 6568" d="M19.8755 19.5305C19.5465 19.8595 19.5465 20.3929 19.8755 20.722L26.2657 27.1121C26.5947 27.4411 27.1282 27.4411 27.4572 27.1121L27.6625 26.9068C27.9915 26.5778 27.9915 26.0443 27.6625 25.7153L21.2723 19.3252C20.9433 18.9961 20.4099 18.9961 20.0808 19.3252L19.8755 19.5305Z" fill="#15C1E6"/>
</g>
</svg>
