<svg width="35" height="34" viewBox="0 0 35 34" fill="none" xmlns="http://www.w3.org/2000/svg">
<path d="M4.87354 6.72534C4.87354 5.62077 5.76897 4.72534 6.87354 4.72534H28.1985C29.3031 4.72534 30.1985 5.62077 30.1985 6.72534V9.72369H4.87354V6.72534Z" fill="#BFBAFC"/>
<path d="M30.1987 27.3835C30.1987 28.4881 29.3033 29.3835 28.1987 29.3835L6.87377 29.3835C5.7692 29.3835 4.87377 28.4881 4.87377 27.3835L4.87377 11.0563L30.1987 11.0563L30.1987 27.3835Z" fill="#9D97F4"/>
<path d="M7.53955 7.19829C7.53955 6.75237 7.90105 6.39087 8.34698 6.39087C8.79291 6.39087 9.1544 6.75237 9.1544 7.19829C9.1544 7.64422 8.79291 8.00572 8.34698 8.00572C7.90105 8.00572 7.53955 7.64422 7.53955 7.19829Z" fill="white"/>
<path d="M10.231 7.19829C10.231 6.75237 10.5925 6.39087 11.0384 6.39087C11.4843 6.39087 11.8458 6.75237 11.8458 7.19829C11.8458 7.64422 11.4843 8.00572 11.0384 8.00572C10.5925 8.00572 10.231 7.64422 10.231 7.19829Z" fill="white"/>
<path d="M12.9219 7.19829C12.9219 6.75237 13.2834 6.39087 13.7293 6.39087C14.1752 6.39087 14.5367 6.75237 14.5367 7.19829C14.5367 7.64422 14.1752 8.00572 13.7293 8.00572C13.2834 8.00572 12.9219 7.64422 12.9219 7.19829Z" fill="white"/>
<path d="M9.0332 18.1137V24.0112H10.7182V21.4837H13.2457V24.0112H14.9307V18.1137C14.9307 17.4433 14.6644 16.8005 14.1904 16.3265C13.7164 15.8525 13.0735 15.5862 12.4032 15.5862H11.5607C10.8904 15.5862 10.2475 15.8525 9.77353 16.3265C9.29953 16.8005 9.0332 17.4433 9.0332 18.1137ZM13.2457 19.7987H10.7182V18.1137C10.7182 17.8902 10.807 17.6759 10.965 17.5179C11.123 17.3599 11.3373 17.2712 11.5607 17.2712H12.4032C12.6266 17.2712 12.841 17.3599 12.999 17.5179C13.157 17.6759 13.2457 17.8902 13.2457 18.1137V19.7987Z" fill="white"/>
<path d="M16.6157 15.5862V24.0112H18.3007V21.4837H19.9857C20.6561 21.4837 21.299 21.2174 21.7729 20.7434C22.2469 20.2694 22.5132 19.6265 22.5132 18.9562V18.1137C22.5132 17.4433 22.2469 16.8005 21.7729 16.3265C21.299 15.8525 20.6561 15.5862 19.9857 15.5862H16.6157ZM19.9857 19.7987H18.3007V17.2712H19.9857C20.2092 17.2712 20.4235 17.3599 20.5815 17.5179C20.7395 17.6759 20.8282 17.8902 20.8282 18.1137V18.9562C20.8282 19.1796 20.7395 19.3939 20.5815 19.5519C20.4235 19.7099 20.2092 19.7987 19.9857 19.7987Z" fill="white"/>
<path d="M25.8832 15.5862H24.1982V24.0112H25.8832V15.5862Z" fill="white"/>
</svg>
