<svg width="385" height="197" viewBox="0 0 385 197" fill="none" xmlns="http://www.w3.org/2000/svg">
<path d="M0.927002 8.13769C0.927002 3.72211 4.50654 0.142578 8.92211 0.142578H376.697C381.113 0.142578 384.692 3.72211 384.692 8.13769V196.347H0.927002V8.13769Z" fill="#091B36"/>
<g clip-path="url(#clip0_6001_30729)">
<g opacity="0.5" filter="url(#filter0_f_6001_30729)">
<ellipse cx="284.281" cy="215.451" rx="117.456" ry="106.375" fill="#0941AB"/>
</g>
<g opacity="0.7" filter="url(#filter1_f_6001_30729)">
<ellipse cx="53.8946" cy="-4.35375" rx="100.938" ry="83.449" fill="#0941AB"/>
</g>
</g>
<g clip-path="url(#clip1_6001_30729)">
<path d="M97.1381 83.7995C97.5167 84.5189 97.3274 85.1248 97.0623 85.7685C96.6458 86.8288 96.7594 87.8512 97.5167 88.7221C98.2741 89.6309 99.3343 89.7445 100.432 89.5173C101.947 89.1765 102.818 87.7376 102.591 86.1472C102.477 85.3898 102.023 84.6325 102.439 83.7995C102.061 83.9888 102.061 83.9888 101.606 84.7461C101.19 84.2538 100.811 83.7237 100.357 83.1936C99.9781 82.7771 99.5994 82.3984 99.8266 81.7168C99.3722 81.944 99.145 82.2469 98.9935 82.6256C98.8799 83.0043 98.8042 83.3829 98.7285 83.7616C98.6527 84.1402 98.4634 84.481 98.0847 84.7082C97.8575 84.2917 97.6303 83.9888 97.1381 83.7995Z" fill="white"/>
<path d="M64.9077 105.866V88.4006L62.8491 88.0615V86.4442L68.2172 85.766L69.1293 85.6367V86.3399V92.2756C69.3377 92.0669 69.5983 91.8321 69.911 91.6495C70.1977 91.4409 70.5364 91.2583 70.8752 91.1018C71.24 90.9452 71.6049 90.8148 72.0218 90.7105C72.4387 90.6061 72.8817 90.554 73.3508 90.554C74.1847 90.554 74.9665 90.6844 75.6961 90.9713C76.4258 91.2583 77.0772 91.7017 77.6245 92.3017C78.1717 92.9277 78.6147 93.7102 78.9535 94.7015C79.2662 95.6927 79.4486 96.8665 79.4486 98.3012C79.4486 99.5272 79.2662 100.649 78.9014 101.718C78.5365 102.788 77.9893 103.675 77.2857 104.457C76.5821 105.24 75.7222 105.84 74.7319 106.283C73.7156 106.727 72.5951 106.961 71.3182 106.961C70.4322 106.961 69.6244 106.909 68.8687 106.831C68.139 106.753 67.4875 106.648 66.9403 106.518C66.3931 106.387 65.9501 106.283 65.6113 106.153C65.2725 106.022 65.012 105.944 64.9077 105.866ZM71.6049 93.0842C71.0316 93.0842 70.5364 93.1885 70.1195 93.3972C69.7026 93.6059 69.3638 93.8407 69.1293 94.1015V104.431C69.2596 104.64 69.4941 104.822 69.8589 104.927C70.2237 105.057 70.6667 105.109 71.1358 105.109C71.7612 105.109 72.3085 104.953 72.7515 104.614C73.2205 104.275 73.5853 103.831 73.898 103.257C74.2108 102.683 74.4192 102.005 74.5756 101.249C74.7319 100.492 74.8101 99.6576 74.8101 98.7968C74.8101 97.9099 74.758 97.1013 74.6277 96.3709C74.4974 95.6666 74.315 95.0667 74.0283 94.571C73.7678 94.0754 73.429 93.7102 73.012 93.4494C72.6472 93.2146 72.1521 93.0842 71.6049 93.0842Z" fill="white"/>
<path d="M81.7237 106.496V104.644L83.7042 104.383V93.7927L81.8279 93.2188V91.132L86.5185 90.4538H86.5967L87.3264 91.0538V92.2015L87.3003 94.3405H87.3524C87.4567 94.0535 87.6651 93.6883 87.9518 93.2449C88.2384 92.8015 88.6032 92.358 89.0202 91.9407C89.4371 91.5233 89.9323 91.1581 90.4795 90.8712C91.0267 90.5842 91.6261 90.4277 92.2776 90.4277C92.5642 90.4277 92.7727 90.4277 92.929 90.4538C93.0854 90.4799 93.2157 90.506 93.3199 90.5321V95.3056C93.2157 95.2274 92.9551 95.1491 92.5381 95.0708C92.1212 94.9926 91.6 94.9404 91.0267 94.9404C90.714 94.9404 90.3753 94.9665 90.0625 94.9926C89.7498 95.0187 89.4371 95.0708 89.1505 95.1491C88.8638 95.2013 88.6293 95.2795 88.3948 95.3578C88.1602 95.436 88.0039 95.5143 87.8736 95.5925V104.357L91.2873 104.696V106.496H81.7237Z" fill="white"/>
<path d="M96.2426 106.648V104.796L98.2492 104.535V93.9445L96.399 93.3445V91.2838L101.454 90.6056L102.523 90.5V91.2056V104.509L104.503 104.796V106.648H96.2426Z" fill="white"/>
<path d="M113.691 101.561C112.908 101.561 112.18 101.506 111.532 101.398C111.37 101.561 111.235 101.751 111.127 101.968C111.019 102.185 110.966 102.429 110.966 102.728C110.966 103.054 111.019 103.325 111.154 103.543C111.289 103.733 111.478 103.896 111.748 104.004C112.018 104.113 112.341 104.194 112.773 104.222C113.205 104.249 113.691 104.276 114.257 104.276H117.09C119.14 104.276 120.651 104.629 121.677 105.308C122.675 106.014 123.187 107.154 123.187 108.729C123.187 109.679 122.945 110.575 122.432 111.363C121.946 112.15 121.272 112.802 120.409 113.372C119.572 113.915 118.574 114.35 117.468 114.648C116.362 114.947 115.201 115.11 113.987 115.11H113.96C112.611 115.11 111.478 115.001 110.534 114.757C109.59 114.513 108.807 114.187 108.187 113.779C107.566 113.372 107.134 112.856 106.838 112.286C106.541 111.716 106.406 111.064 106.406 110.385C106.406 109.951 106.487 109.544 106.649 109.136C106.811 108.756 107.026 108.403 107.296 108.077C107.566 107.751 107.863 107.48 108.241 107.236C108.591 106.991 108.969 106.801 109.347 106.665C108.807 106.367 108.375 106.014 108.079 105.579C107.782 105.145 107.647 104.629 107.647 104.031C107.647 103.298 107.836 102.701 108.214 102.185C108.591 101.696 109.077 101.235 109.67 100.855C108.699 100.42 107.998 99.7956 107.539 98.981C107.08 98.1664 106.838 97.216 106.838 96.1299C106.838 95.261 107.026 94.5007 107.404 93.7947C107.782 93.0887 108.321 92.4914 108.969 92.0026C109.643 91.5139 110.399 91.1337 111.289 90.8622C112.18 90.5907 113.124 90.4549 114.122 90.4549H114.149C116.523 90.4549 118.277 90.9165 119.437 91.8397C119.572 91.6768 119.761 91.5139 119.977 91.3509C120.193 91.188 120.463 91.0251 120.759 90.8893C121.056 90.7536 121.38 90.645 121.731 90.5635C122.081 90.482 122.459 90.4277 122.864 90.4277H123.538V93.6318H120.732C120.84 93.9305 120.921 94.2563 120.975 94.5822C121.029 94.908 121.056 95.2881 121.056 95.6683C121.056 96.5372 120.867 97.3246 120.516 98.0306C120.166 98.7366 119.653 99.3611 119.006 99.9042C118.358 100.42 117.576 100.827 116.685 101.126C115.768 101.425 114.797 101.561 113.691 101.561ZM112.962 107.344C112.342 107.344 111.775 107.29 111.262 107.208C111.073 107.426 110.885 107.697 110.723 108.023C110.561 108.349 110.48 108.838 110.48 109.408C110.48 110.059 110.561 110.603 110.723 111.037C110.885 111.471 111.154 111.852 111.478 112.123C111.802 112.395 112.234 112.612 112.719 112.72C113.205 112.856 113.771 112.911 114.419 112.911H114.446C115.013 112.911 115.579 112.856 116.146 112.72C116.685 112.585 117.198 112.395 117.63 112.123C118.061 111.852 118.412 111.499 118.655 111.091C118.925 110.684 119.06 110.195 119.06 109.652C119.06 109.245 119.006 108.865 118.925 108.566C118.844 108.267 118.682 108.023 118.439 107.833C118.196 107.643 117.899 107.507 117.495 107.426C117.09 107.344 116.577 107.29 115.957 107.29H112.962V107.344ZM114.041 99.6598C114.527 99.6598 114.932 99.5512 115.255 99.3611C115.579 99.171 115.822 98.8995 116.011 98.5737C116.2 98.2478 116.308 97.8405 116.389 97.3789C116.469 96.9173 116.496 96.4286 116.496 95.9398C116.496 94.6908 116.308 93.7676 115.903 93.1974C115.498 92.6271 114.851 92.3556 113.906 92.3556H113.879C112.989 92.3556 112.342 92.6543 111.937 93.2245C111.532 93.7947 111.316 94.6365 111.316 95.8041C111.316 96.3743 111.37 96.8902 111.451 97.3518C111.532 97.8134 111.694 98.2207 111.883 98.5737C112.099 98.8995 112.368 99.171 112.719 99.3611C113.07 99.5512 113.502 99.6598 114.041 99.6598Z" fill="white"/>
<path d="M125.065 106.649V104.797L126.758 104.511V88.2512L124.7 87.9121V86.2948L130.042 85.6166L130.352 85.5645H130.933L130.98 90.6334L130.933 92.6069C131.168 92.3722 131.319 92.355 131.71 92.0941C132.1 91.8333 132.491 91.5985 132.96 91.3898C133.429 91.1811 133.951 90.9986 134.498 90.842C135.045 90.7116 135.644 90.6334 136.244 90.6334C137.13 90.6334 137.886 90.7638 138.459 90.9986C139.032 91.2333 139.501 91.6246 139.866 92.1463C140.231 92.668 140.439 93.3201 140.596 94.1027C140.726 94.8852 140.804 95.8243 140.804 96.8937V104.511L142.732 104.797V106.649H135.045V104.85L136.583 104.537V96.8677C136.583 96.2416 136.557 95.6938 136.478 95.2243C136.426 94.7548 136.296 94.3896 136.114 94.0766C135.931 93.7636 135.697 93.5549 135.384 93.4244C135.071 93.294 134.654 93.2158 134.159 93.2158C133.872 93.2158 133.586 93.2419 133.273 93.3201C132.96 93.3984 132.674 93.4766 132.413 93.5549C132.127 93.6592 131.866 93.7636 131.631 93.894C131.397 94.0244 131.188 94.1548 131.006 94.2853V104.537L132.882 104.824V106.676H125.065V106.649Z" fill="white"/>
<path d="M145.793 103.455V93.3342H143.865V91.7691C143.943 91.743 144.047 91.7169 144.204 91.6647C144.36 91.6126 144.516 91.5343 144.699 91.4821C144.855 91.43 145.011 91.3517 145.168 91.2995C145.324 91.2474 145.402 91.1952 145.428 91.1691C145.741 90.9343 146.054 90.4909 146.392 89.8388C146.497 89.6562 146.575 89.4475 146.705 89.1867C146.835 88.9258 146.914 88.691 147.018 88.4302C147.122 88.1693 147.226 87.9085 147.305 87.6477C147.409 87.3868 147.461 87.152 147.539 86.9434H149.989L150.041 91.0126H154.08V93.3602H150.041V100.977C150.041 101.707 150.041 102.281 150.067 102.725C150.093 103.168 150.145 103.481 150.223 103.69C150.301 103.899 150.458 104.055 150.64 104.107C150.822 104.159 151.083 104.212 151.396 104.212H151.422C151.63 104.212 151.865 104.185 152.125 104.159C152.36 104.133 152.594 104.081 152.829 104.029C153.064 103.977 153.272 103.925 153.48 103.872C153.689 103.82 153.845 103.768 153.976 103.716H154.002L154.653 105.333C154.366 105.542 154.054 105.751 153.637 105.959C153.22 106.168 152.803 106.351 152.308 106.533C151.813 106.716 151.318 106.846 150.77 106.95C150.223 107.055 149.702 107.107 149.155 107.107H149.129C148.529 107.107 148.008 107.029 147.591 106.872C147.174 106.716 146.809 106.481 146.549 106.168C146.288 105.855 146.106 105.49 145.976 105.02C145.845 104.551 145.793 104.055 145.793 103.455Z" fill="white"/>
</g>
<path d="M206.739 101.17V95.658H196.503V85.4219H190.991V95.658H180.755V101.17H190.991V111.406H196.503V101.17H206.739Z" fill="#62788A"/>
<g filter="url(#filter2_d_6001_30729)">
<path d="M277.022 143.712C302.06 143.712 322.32 123.451 322.32 98.4135C322.32 73.3759 302.06 53.1152 277.022 53.1152C251.984 53.1152 231.724 73.3759 231.724 98.4135C231.724 123.451 251.984 143.712 277.022 143.712Z" fill="url(#paint0_linear_6001_30729)" shape-rendering="crispEdges"/>
<path d="M277.022 144.722C302.617 144.722 323.33 124.009 323.33 98.4135C323.33 72.8182 302.617 52.1054 277.022 52.1054C251.427 52.1054 230.714 72.8182 230.714 98.4135C230.714 124.009 251.427 144.722 277.022 144.722Z" stroke="url(#paint1_linear_6001_30729)" stroke-width="2.01962" style="mix-blend-mode:overlay" shape-rendering="crispEdges"/>
</g>
<g clip-path="url(#clip2_6001_30729)">
<path d="M258.055 113.533L274.238 97.4922C274.247 97.4839 274.247 97.4761 274.238 97.4678L260.335 83.687C260.318 83.6704 260.322 83.6621 260.346 83.6621H266.604C266.636 83.6621 266.665 83.6736 266.688 83.6966L293.509 110.281C293.538 110.31 293.532 110.325 293.49 110.325H287.222C287.211 110.325 287.202 110.321 287.195 110.313L277.434 100.638C277.423 100.627 277.405 100.627 277.394 100.638L257.947 119.913C257.938 119.922 257.924 119.923 257.914 119.915C255.928 118.221 254.2 116.297 252.731 114.143C250.778 111.279 249.387 108.114 248.561 104.65C248.493 104.37 248.435 104.107 248.386 103.86C247.554 99.7227 247.614 95.6259 248.565 91.5696C249.434 87.8642 250.994 84.4576 253.247 81.3503C255.483 78.2642 258.277 75.6857 261.628 73.6157C261.799 73.5104 262.033 73.3738 262.328 73.2056C265.889 71.1885 269.698 69.9677 273.755 69.5452C277.015 69.2058 280.264 69.4114 283.502 70.1636C283.514 70.1668 283.527 70.1636 283.536 70.1558C284.537 69.3507 285.774 68.9801 287.052 69.1336C289.814 69.4656 291.647 72.1347 290.962 74.7955C290.727 75.7114 290.257 76.477 289.554 77.0922C288.899 77.6651 288.152 78.0246 287.313 78.1708C284.812 78.6076 282.436 77.0002 281.959 74.5238C281.957 74.5155 281.951 74.5091 281.943 74.5077C276.888 73.4313 271.64 73.9656 266.921 76.025C263.336 77.5897 260.208 80.0086 257.775 83.0092C255.463 85.8604 253.884 89.0914 253.035 92.7035C252.977 92.9513 252.921 93.2139 252.867 93.492C252.184 97.0402 252.283 100.563 253.167 104.06C254.046 107.539 255.728 110.774 258.033 113.531C258.04 113.539 258.047 113.539 258.055 113.532L258.055 113.533Z" fill="#1A7AC0"/>
<path d="M295.512 82.6941L282.072 96.0157C282.062 96.0253 282.052 96.0253 282.043 96.0157L278.902 92.9029C278.894 92.8951 278.894 92.8831 278.902 92.8753L295.624 76.3007C295.631 76.2934 295.643 76.2929 295.651 76.2998C296.839 77.3123 297.928 78.3992 298.92 79.5602C301.388 82.4514 303.209 85.7012 304.383 89.3092C305.704 93.3677 306.074 97.6636 305.522 101.856C305.026 105.629 303.804 109.192 301.857 112.544C301.725 112.77 301.586 113 301.438 113.234C299.353 116.533 296.736 119.295 293.587 121.521C290.398 123.775 286.869 125.325 283.002 126.17C282.718 126.232 282.453 126.286 282.207 126.332C278.197 127.075 274.199 126.995 270.214 126.092C270.202 126.089 270.189 126.092 270.179 126.099C269.038 126.99 267.513 127.277 266.123 126.898C263.668 126.228 262.235 123.729 262.897 121.289C263.334 119.679 264.642 118.424 266.278 118.043C268.889 117.436 271.455 119.119 271.9 121.746C271.903 121.763 271.917 121.777 271.934 121.781C273.735 122.137 275.542 122.294 277.355 122.25C281.067 122.16 284.561 121.289 287.838 119.636C290.796 118.145 293.356 116.116 295.52 113.552C295.715 113.32 295.886 113.112 296.031 112.926C298.296 110.033 299.824 106.786 300.613 103.186C300.675 102.902 300.728 102.638 300.771 102.396C301.391 98.8761 301.258 95.4226 300.373 92.0362C299.469 88.5827 297.86 85.4685 295.542 82.6946C295.533 82.6831 295.523 82.6831 295.512 82.6932V82.6941Z" fill="#73BB29"/>
</g>
<defs>
<filter id="filter0_f_6001_30729" x="32.4036" y="-25.3458" width="503.756" height="481.594" filterUnits="userSpaceOnUse" color-interpolation-filters="sRGB">
<feFlood flood-opacity="0" result="BackgroundImageFix"/>
<feBlend mode="normal" in="SourceGraphic" in2="BackgroundImageFix" result="shape"/>
<feGaussianBlur stdDeviation="67.211" result="effect1_foregroundBlur_6001_30729"/>
</filter>
<filter id="filter1_f_6001_30729" x="-266.711" y="-307.47" width="641.211" height="606.232" filterUnits="userSpaceOnUse" color-interpolation-filters="sRGB">
<feFlood flood-opacity="0" result="BackgroundImageFix"/>
<feBlend mode="normal" in="SourceGraphic" in2="BackgroundImageFix" result="shape"/>
<feGaussianBlur stdDeviation="109.834" result="effect1_foregroundBlur_6001_30729"/>
</filter>
<filter id="filter2_d_6001_30729" x="217.762" y="46.4775" width="118.521" height="118.52" filterUnits="userSpaceOnUse" color-interpolation-filters="sRGB">
<feFlood flood-opacity="0" result="BackgroundImageFix"/>
<feColorMatrix in="SourceAlpha" type="matrix" values="0 0 0 0 0 0 0 0 0 0 0 0 0 0 0 0 0 0 127 0" result="hardAlpha"/>
<feOffset dy="7.32448"/>
<feGaussianBlur stdDeviation="5.97134"/>
<feComposite in2="hardAlpha" operator="out"/>
<feColorMatrix type="matrix" values="0 0 0 0 0 0 0 0 0 0 0 0 0 0 0 0 0 0 0.28 0"/>
<feBlend mode="normal" in2="BackgroundImageFix" result="effect1_dropShadow_6001_30729"/>
<feBlend mode="normal" in="SourceGraphic" in2="effect1_dropShadow_6001_30729" result="shape"/>
</filter>
<linearGradient id="paint0_linear_6001_30729" x1="292.876" y1="143.712" x2="201.979" y2="23.8073" gradientUnits="userSpaceOnUse">
<stop stop-color="#0F2D58"/>
<stop offset="1" stop-color="#0E346B"/>
</linearGradient>
<linearGradient id="paint1_linear_6001_30729" x1="236.602" y1="67.177" x2="267.888" y2="135.235" gradientUnits="userSpaceOnUse">
<stop stop-color="#225FCC"/>
<stop offset="0.352567" stop-color="#194398"/>
<stop offset="0.646925" stop-color="#194398" stop-opacity="0.79"/>
<stop offset="1" stop-color="#225FCC" stop-opacity="0.54"/>
</linearGradient>
<clipPath id="clip0_6001_30729">
<path d="M0.927002 8.13769C0.927002 3.72211 4.50654 0.142578 8.92211 0.142578H376.697C381.113 0.142578 384.692 3.72211 384.692 8.13769V196.347H0.927002V8.13769Z" fill="white"/>
</clipPath>
<clipPath id="clip1_6001_30729">
<rect width="92.9212" height="33.3936" fill="white" transform="translate(62.8491 81.7168)"/>
</clipPath>
<clipPath id="clip2_6001_30729">
<rect width="57.9646" height="57.9646" fill="white" transform="translate(247.804 69.0996)"/>
</clipPath>
</defs>
</svg>
