<svg width="588" height="311" viewBox="0 0 588 311" fill="none" xmlns="http://www.w3.org/2000/svg">
<path d="M0 8C0 3.58172 3.58172 0 8 0H580C584.418 0 588 3.58172 588 8V303C588 307.418 584.418 311 580 311H7.99998C3.58171 311 0 307.418 0 303V8Z" fill="#22395B"/>
<g filter="url(#filter0_dd_6376_29405)">
<g clip-path="url(#clip0_6376_29405)">
<g filter="url(#filter1_d_6376_29405)">
<path d="M458.639 58.1738H102.854C101.278 58.1738 100 59.4926 100 61.1194V281.363C100 282.99 101.278 284.309 102.854 284.309H458.639C460.216 284.309 461.493 282.99 461.493 281.363V61.1194C461.493 59.4926 460.216 58.1738 458.639 58.1738Z" fill="url(#paint0_linear_6376_29405)"/>
</g>
<rect x="108.592" y="104.72" width="117.441" height="117.441" rx="4.35263" fill="#E7EEFF" fill-opacity="0.17"/>
<path d="M461.493 46.0001H100V58.241H461.493V46.0001Z" fill="#062E69"/>
<path d="M112.886 52.4384C112.887 52.8209 112.774 53.195 112.562 53.5135C112.35 53.8319 112.049 54.0803 111.696 54.2273C111.342 54.3743 110.954 54.4133 110.578 54.3392C110.203 54.2652 109.858 54.0815 109.587 53.8114C109.317 53.5412 109.132 53.1969 109.057 52.8219C108.982 52.4468 109.02 52.0579 109.166 51.7045C109.312 51.351 109.56 51.0489 109.878 50.8363C110.196 50.6237 110.57 50.5103 110.953 50.5103C111.463 50.5139 111.952 50.718 112.314 51.0787C112.676 51.4394 112.881 51.9277 112.886 52.4384Z" fill="#F66058"/>
<path d="M121.909 52.4383C121.91 52.8209 121.797 53.1952 121.585 53.5138C121.373 53.8323 121.071 54.0808 120.718 54.2277C120.365 54.3745 119.976 54.4132 119.6 54.3388C119.225 54.2643 118.88 54.0802 118.609 53.8096C118.339 53.539 118.154 53.1942 118.08 52.8188C118.005 52.4435 118.044 52.0545 118.191 51.7011C118.338 51.3478 118.586 51.0459 118.905 50.8339C119.224 50.6219 119.598 50.5092 119.981 50.5102C120.234 50.5089 120.486 50.5579 120.72 50.6544C120.955 50.7508 121.168 50.8928 121.347 51.0721C121.526 51.2514 121.668 51.4645 121.765 51.699C121.861 51.9335 121.91 52.1847 121.909 52.4383Z" fill="#F9BD2E"/>
<path d="M130.927 52.4383C130.928 52.8207 130.815 53.1949 130.603 53.5133C130.391 53.8318 130.09 54.0802 129.737 54.2272C129.384 54.3742 128.995 54.4132 128.619 54.3391C128.244 54.2651 127.899 54.0814 127.628 53.8112C127.358 53.5411 127.173 53.1968 127.098 52.8217C127.023 52.4467 127.061 52.0578 127.207 51.7044C127.353 51.3509 127.601 51.0488 127.919 50.8362C128.237 50.6236 128.611 50.5101 128.994 50.5101C129.504 50.5138 129.993 50.7179 130.355 51.0786C130.717 51.4393 130.922 51.9276 130.927 52.4383Z" fill="#3CC840"/>
<path d="M461.493 58.241H100V74.3474H461.493V58.241Z" fill="#0F3E82"/>
<rect x="107.877" y="63.1864" width="15.0381" height="5.72881" rx="2.8644" fill="#E7EEFF" fill-opacity="0.17"/>
<rect x="419.381" y="63.1864" width="15.0381" height="5.72881" rx="2.8644" fill="#E7EEFF" fill-opacity="0.17"/>
<rect x="126.494" y="63.1864" width="15.0381" height="5.72881" rx="2.8644" fill="#E7EEFF" fill-opacity="0.17"/>
<rect x="437.998" y="63.1864" width="15.0381" height="5.72881" rx="2.8644" fill="#E7EEFF" fill-opacity="0.17"/>
<rect x="145.113" y="63.1864" width="15.0381" height="5.72881" rx="2.8644" fill="#E7EEFF" fill-opacity="0.17"/>
<rect x="163.732" y="63.1864" width="19.3347" height="5.72881" rx="2.8644" fill="#E7EEFF" fill-opacity="0.17"/>
<rect x="186.648" y="63.1864" width="19.3347" height="5.72881" rx="2.8644" fill="#E7EEFF" fill-opacity="0.17"/>
<rect x="233.195" y="82.5212" width="21.483" height="7.16101" rx="3.58051" fill="#E7EEFF" fill-opacity="0.17"/>
<rect x="258.975" y="82.5212" width="21.483" height="7.16101" rx="3.58051" fill="#E7EEFF" fill-opacity="0.17"/>
<rect x="284.756" y="82.5212" width="21.483" height="7.16101" rx="3.58051" fill="#E7EEFF" fill-opacity="0.17"/>
<rect x="310.533" y="82.5212" width="21.483" height="7.16101" rx="3.58051" fill="#E7EEFF" fill-opacity="0.17"/>
<rect x="339.178" y="82.5212" width="30.0762" height="7.16101" rx="3.58051" fill="#E7EEFF" fill-opacity="0.17"/>
<rect x="396.465" y="63.1864" width="19.3347" height="5.72881" rx="2.8644" fill="#E7EEFF" fill-opacity="0.17"/>
<rect x="372.834" y="63.1864" width="19.3347" height="5.72881" rx="2.8644" fill="#E7EEFF" fill-opacity="0.17"/>
<path d="M269.889 68.6775L272.14 66.0308H270V65.1715H273.515V65.8074L271.289 68.4455H273.627V69.322H269.889V68.6775ZM275.067 64.5012C274.68 64.5012 274.405 64.252 274.405 63.8911C274.405 63.5388 274.68 63.281 275.067 63.281C275.454 63.281 275.728 63.5388 275.728 63.8911C275.728 64.252 275.454 64.5012 275.067 64.5012ZM274.517 65.1629H275.617V69.322H274.517V65.1629ZM276.879 63.3927H277.971V69.322H276.879V63.3927ZM279.241 63.3927H280.333V69.322H279.241V63.3927ZM283.563 69.4165C282.282 69.4165 281.303 68.5744 281.303 67.2597C281.303 65.9449 282.282 65.0856 283.563 65.0856C284.834 65.0856 285.814 65.9449 285.814 67.2597C285.814 68.5744 284.834 69.4165 283.563 69.4165ZM284.68 67.2339C284.68 66.5206 284.267 65.9707 283.563 65.9707C282.841 65.9707 282.446 66.5206 282.446 67.2339C282.446 67.9471 282.841 68.5057 283.563 68.5057C284.267 68.5057 284.68 67.9471 284.68 67.2339ZM289.486 66.5034L288.567 69.322H287.484L286.152 65.1629H287.244L288.112 68.1448L289.1 65.1629H289.959L290.982 68.0674L291.781 65.1629H292.872L291.497 69.322H290.509L289.486 66.5034ZM293.832 69.4165C293.419 69.4165 293.136 69.1759 293.136 68.7806C293.136 68.3768 293.419 68.1362 293.832 68.1362C294.227 68.1362 294.519 68.3768 294.519 68.7806C294.519 69.1759 294.227 69.4165 293.832 69.4165ZM299.061 68.0502L299.37 68.858C299.284 68.9353 298.854 69.4165 297.746 69.4165C296.612 69.4165 295.563 68.6346 295.563 67.2768C295.563 65.9105 296.646 65.0856 297.763 65.0856C298.811 65.0856 299.224 65.5066 299.336 65.6183L299.035 66.4433C298.906 66.323 298.536 66.005 297.892 66.005C297.239 66.005 296.715 66.4605 296.715 67.2253C296.715 67.9901 297.239 68.4885 297.952 68.4885C298.665 68.4885 299.061 68.0502 299.061 68.0502ZM302.133 69.4165C300.853 69.4165 299.873 68.5744 299.873 67.2597C299.873 65.9449 300.853 65.0856 302.133 65.0856C303.405 65.0856 304.385 65.9449 304.385 67.2597C304.385 68.5744 303.405 69.4165 302.133 69.4165ZM303.25 67.2339C303.25 66.5206 302.838 65.9707 302.133 65.9707C301.411 65.9707 301.016 66.5206 301.016 67.2339C301.016 67.9471 301.411 68.5057 302.133 68.5057C302.838 68.5057 303.25 67.9471 303.25 67.2339ZM310.486 66.9933C310.486 66.4863 310.374 65.9879 309.833 65.9879C309.283 65.9879 308.999 66.4605 308.999 67.1737V69.322H307.899V66.9847C307.899 66.4175 307.753 65.9879 307.229 65.9879C306.662 65.9879 306.413 66.5206 306.413 67.1737V69.322H305.313V65.1629H306.413L306.404 65.7902H306.43C306.619 65.4035 307.126 65.0856 307.667 65.0856C308.269 65.0856 308.63 65.3262 308.827 65.8761C309.119 65.3691 309.592 65.0856 310.194 65.0856C311.285 65.0856 311.586 65.859 311.586 66.8128V69.322H310.486V66.9933Z" fill="white"/>
<path d="M108.598 81.0889H226.038V91.8304H108.598V81.0889Z" fill="white" fill-opacity="0.16"/>
<path d="M113.283 85.6053C113.283 85.6053 113.295 86.1094 113.295 86.5792V88.5212H112.567V84.5684H113.358L115.323 87.45C115.323 87.45 115.311 86.9859 115.311 86.5162V84.5684H116.039V88.5212H115.288L113.283 85.6053ZM117.466 87.3697C117.535 87.8109 117.873 88.0228 118.291 88.0228C118.663 88.0228 118.996 87.8567 119.127 87.7421L119.414 88.1374C119.259 88.2978 118.841 88.5843 118.165 88.5843C117.328 88.5843 116.71 88.0744 116.71 87.1807C116.71 86.2927 117.357 85.6969 118.148 85.6969C119.001 85.6969 119.517 86.2584 119.517 86.9974C119.517 87.1406 119.505 87.3697 119.505 87.3697H117.466ZM118.142 86.2412C117.707 86.2412 117.477 86.5448 117.455 86.8943H118.784C118.772 86.5906 118.658 86.2412 118.142 86.2412ZM121.976 86.6422L121.363 88.5212H120.641L119.753 85.7485H120.48L121.059 87.7364L121.718 85.7485H122.291L122.973 87.6848L123.505 85.7485H124.233L123.316 88.5212H122.657L121.976 86.6422ZM126.961 86.8943L125.592 84.5684H126.417L127.339 86.2641L128.256 84.5684H129.081L127.706 86.8943V88.5212H126.961V86.8943ZM130.345 88.5843C129.492 88.5843 128.839 88.0228 128.839 87.1463C128.839 86.2698 129.492 85.6969 130.345 85.6969C131.193 85.6969 131.846 86.2698 131.846 87.1463C131.846 88.0228 131.193 88.5843 130.345 88.5843ZM131.09 87.1291C131.09 86.6536 130.815 86.287 130.345 86.287C129.864 86.287 129.6 86.6536 129.6 87.1291C129.6 87.6046 129.864 87.977 130.345 87.977C130.815 87.977 131.09 87.6046 131.09 87.1291ZM132.465 85.7485H133.192L133.181 86.1953H133.198C133.307 85.8974 133.582 85.6969 133.88 85.6969C134.069 85.6969 134.172 85.7485 134.172 85.7485L134.121 86.3844H134.086C134.006 86.3615 133.88 86.35 133.783 86.35C133.565 86.35 133.399 86.4417 133.296 86.6193C133.227 86.7568 133.192 86.9458 133.192 87.1578V88.5212H132.465V85.7485ZM135.698 87.2552L135.406 87.5645V88.5212H134.678V84.5684H135.406V86.8312L136.408 85.7485H137.216L136.191 86.7969L137.353 88.5212H136.506L135.698 87.2552Z" fill="white"/>
<rect x="242.506" y="104.72" width="101.407" height="5.72881" rx="2.8644" fill="#E7EEFF" fill-opacity="0.17"/>
<rect x="242.506" y="120.474" width="169.716" height="5.72881" rx="2.8644" fill="#E7EEFF" fill-opacity="0.17"/>
<rect x="242.506" y="136.229" width="64.5314" height="5.72881" rx="2.8644" fill="#E7EEFF" fill-opacity="0.17"/>
<rect x="242.506" y="183.491" width="64.5314" height="5.72881" rx="2.8644" fill="#E7EEFF" fill-opacity="0.17"/>
<rect x="242.506" y="199.246" width="64.5314" height="5.72881" rx="2.8644" fill="#E7EEFF" fill-opacity="0.17"/>
<rect x="314.105" y="139.809" width="27.6563" height="5.72881" rx="2.8644" fill="#C6DBFF"/>
<rect x="242.506" y="151.983" width="94.9534" height="5.72881" rx="2.8644" fill="#E7EEFF" fill-opacity="0.17"/>
<rect x="242.506" y="167.737" width="94.9534" height="5.72881" rx="2.8644" fill="#E7EEFF" fill-opacity="0.17"/>
<rect x="242.506" y="215" width="94.9534" height="5.72881" rx="2.8644" fill="#E7EEFF" fill-opacity="0.17"/>
<path d="M199.704 206.541L199.063 187.056H197.629L196.979 206.541H199.704Z" fill="#63523D"/>
<path d="M197.818 196.033L207.224 186.608L207.786 187.136L199.03 197.179L197.818 196.033Z" fill="#63523D"/>
<path d="M197.64 199.855L191.289 188.121L191.957 187.727L199.065 199.005L197.64 199.855Z" fill="#63523D"/>
<path d="M194.875 192.596C190.582 192.498 187.179 188.909 187.277 184.595C187.375 180.281 190.947 176.862 195.241 176.96C199.534 177.058 202.936 180.648 202.838 184.962C202.74 189.276 199.169 192.695 194.875 192.596Z" fill="#96C948"/>
<path d="M209.564 182.83C214.904 177.952 215.298 169.648 210.444 164.282C205.59 158.916 197.326 158.52 191.986 163.398C186.645 168.275 186.251 176.579 191.106 181.945C195.96 187.312 204.224 187.708 209.564 182.83Z" fill="#A2D94E"/>
<path d="M205.957 193.545C199.989 193.402 195.259 188.425 195.402 182.429C195.544 176.432 200.497 171.679 206.464 171.822C212.432 171.966 217.162 176.942 217.019 182.939C216.877 188.935 211.925 193.688 205.957 193.545Z" fill="#A9E352"/>
<path d="M135.026 166.416L121.701 174.481V175.501H135.026V166.416Z" fill="#484F52"/>
<path d="M123.832 175.528V207.033H145.664V166.613L123.832 175.528Z" fill="#73B5AB"/>
<path d="M125.729 174.749L123.832 175.528V207.033H125.729V174.749Z" fill="#BABABA"/>
<path d="M137.37 179.994H127.91V196.194H137.37V179.994Z" fill="#BABABA"/>
<path d="M135.855 181.462H129.441V194.735H135.855V181.462Z" fill="#47516B"/>
<path d="M193.014 159.471H132.338V205.852H193.014V159.471Z" fill="#EBEBEB"/>
<path d="M193.014 151.792H132.338V161.476H193.014V151.792Z" fill="#EBEBEB"/>
<path d="M194.437 151.854H130.91L140.414 131.116H184.933L194.437 151.854Z" fill="#5E686B"/>
<path d="M133.475 146.251L130.91 151.854H194.437L191.871 146.251H133.475Z" fill="#484F52"/>
<path d="M163.012 139.61L151.201 119.758L139.328 139.61H163.012Z" fill="#707C80"/>
<path d="M152.457 124.198H149.883L140.646 139.718V150.172H161.748V139.816L152.457 124.198Z" fill="#EBEBEB"/>
<path d="M152.184 125.236H150.171L141.727 140.022V149.187H160.681V140.111L152.184 125.236Z" fill="#7FC7BC"/>
<path d="M160.77 139.977H141.459V141.239H160.77V139.977Z" fill="#EBEBEB"/>
<path d="M191.328 154.065H134.01V158.943H191.328V154.065Z" fill="#63523D"/>
<path d="M191.222 161.207H134.127V204.115H191.222V161.207Z" fill="#7FC7BC"/>
<path d="M191.222 161.207H134.127V167.401H191.222V161.207Z" fill="#6FADA4"/>
<path d="M191.222 196.364H134.127V204.115H191.222V196.364Z" fill="#89989C"/>
<path d="M187.347 172.664H176.133V195.451H187.347V172.664Z" fill="#EBEBEB"/>
<path d="M187.347 169.907H176.133V170.829H187.347V169.907Z" fill="#EBEBEB"/>
<path d="M135.498 196.167V187.056H134.126V196.167H135.498Z" fill="#63523D"/>
<path d="M139.846 196.167V187.056H138.474V196.167H139.846Z" fill="#63523D"/>
<path d="M144.184 196.167V187.056H142.812V196.167H144.184Z" fill="#63523D"/>
<path d="M148.352 196.167V187.056H146.98V196.167H148.352Z" fill="#63523D"/>
<path d="M152.877 196.167V187.056H151.505V196.167H152.877Z" fill="#63523D"/>
<path d="M157.223 196.167V187.056H155.851V196.167H157.223Z" fill="#63523D"/>
<path d="M165.908 196.167V187.056H164.536V196.167H165.908Z" fill="#63523D"/>
<path d="M170.254 196.167V187.056H168.882V196.167H170.254Z" fill="#63523D"/>
<path d="M186.377 173.774H177.113V195.451H186.377V173.774Z" fill="#806A4E"/>
<path d="M177.113 185.194V195.451H186.377V175.877L177.113 185.194Z" fill="#63523D"/>
<path d="M191.222 195.013H134.127V196.364H191.222V195.013Z" fill="#63523D"/>
<path d="M171.181 186.689H134.127V188.04H171.181V186.689Z" fill="#63523D"/>
<path d="M172.358 164.698H163.486V183.359H172.358V164.698Z" fill="#EBEBEB"/>
<path d="M171.084 165.799H164.76V182.267H171.084V165.799Z" fill="#637196"/>
<path d="M171.084 168.063V165.79H164.76V174.445C166.871 172.324 168.973 170.185 171.084 168.054V168.063Z" fill="#47516B"/>
<path d="M158.836 164.698H149.965V183.359H158.836V164.698Z" fill="#EBEBEB"/>
<path d="M157.572 165.799H151.248V182.267H157.572V165.799Z" fill="#637196"/>
<path d="M157.562 168.063V165.79H151.238V174.445C153.349 172.324 155.451 170.184 157.562 168.054V168.063Z" fill="#47516B"/>
<path d="M145.323 164.698H136.451V183.359H145.323V164.698Z" fill="#EBEBEB"/>
<path d="M144.049 165.799H137.725V182.267H144.049V165.799Z" fill="#637196"/>
<path d="M144.049 168.063V165.79H137.725V174.445C139.836 172.324 141.938 170.185 144.049 168.054V168.063Z" fill="#47516B"/>
<path d="M189.771 196.418H170.148V204.115H189.771V196.418Z" fill="#EBEBEB"/>
<path d="M189.771 196.418H170.148V197.752H189.771V196.418Z" fill="#CFCFCF"/>
<path d="M189.771 199.085H170.148V200.419H189.771V199.085Z" fill="#CFCFCF"/>
<path d="M193.014 201.985H132.338V205.852H193.014V201.985Z" fill="#CFCFCF"/>
<path d="M155.61 135.78H146.988V147.487H155.61V135.78Z" fill="#EBEBEB"/>
<path d="M154.463 136.853H148.139V146.403H154.463V136.853Z" fill="#637196"/>
<path d="M179.321 125.719H174.074V134.338H179.321V125.719Z" fill="#C2C2C2"/>
<path d="M177.567 125.719H172.32V134.338H177.567V125.719Z" fill="#EBEBEB"/>
<path d="M180.125 125.003H171.77V126.99H180.125V125.003Z" fill="#DBDBDB"/>
<path d="M180.122 125.003H176.809V126.99H180.122V125.003Z" fill="#C2C2C2"/>
<path d="M153.51 136.853H148.139V142.25C149.929 140.451 151.719 138.652 153.51 136.853Z" fill="#47516B"/>
<path d="M165.641 155.64H163.957V157.332H165.641V155.64Z" fill="#EBEBEB"/>
<path d="M169.451 155.64H167.768V157.332H169.451V155.64Z" fill="#EBEBEB"/>
<path d="M173.256 155.64H171.572V157.332H173.256V155.64Z" fill="#EBEBEB"/>
<path d="M177.06 155.64H175.377V157.332H177.06V155.64Z" fill="#EBEBEB"/>
<path d="M180.875 155.64H179.191V157.332H180.875V155.64Z" fill="#EBEBEB"/>
<path d="M184.674 155.64H182.99V157.332H184.674V155.64Z" fill="#EBEBEB"/>
<path d="M188.476 155.64H186.793V157.332H188.476V155.64Z" fill="#EBEBEB"/>
<path d="M172.747 143.942H170.119V144.676H172.747V143.942Z" fill="#484F52"/>
<path d="M150.186 184.612H147.559V185.346H150.186V184.612Z" fill="#6FADA4"/>
<path d="M163.46 180.388H160.832V181.122H163.46V180.388Z" fill="#6FADA4"/>
<path d="M162.835 190.511H160.207V191.245H162.835V190.511Z" fill="#6FADA4"/>
<path d="M176.046 171.894H173.418V172.628H176.046V171.894Z" fill="#6FADA4"/>
<path d="M189.93 169.084H187.303V169.818H189.93V169.084Z" fill="#6FADA4"/>
<path d="M184.614 140.854H181.986V141.588H184.614V140.854Z" fill="#484F52"/>
<path d="M166.975 132.915H164.348V133.649H166.975V132.915Z" fill="#484F52"/>
<path d="M175.036 136.066H172.408V136.8H175.036V136.066Z" fill="#484F52"/>
<path d="M139.161 143.495H136.533V144.229H139.161V143.495Z" fill="#484F52"/>
<path d="M169.551 139.95H166.924V140.684H169.551V139.95Z" fill="#484F52"/>
<path d="M161.445 196.167V187.056H160.074V196.167H161.445Z" fill="#63523D"/>
<path d="M210.311 204.688H115.039V207.839H210.311V204.688Z" fill="#A2D94E"/>
</g>
</g>
<rect x="252.613" y="133.544" width="229.066" height="132.299" rx="2" fill="#2E5196"/>
<rect x="252.919" y="133.849" width="228.455" height="131.688" rx="1.6947" stroke="white" stroke-opacity="0.2" stroke-width="0.610603"/>
<path d="M296.924 154.847H465.208" stroke="#E7EEFF" stroke-opacity="0.3" stroke-width="1.1406"/>
<path d="M296.924 182.059H465.208" stroke="#E7EEFF" stroke-opacity="0.3" stroke-width="1.1406"/>
<path d="M296.924 208.555H465.208" stroke="#E7EEFF" stroke-opacity="0.3" stroke-width="1.1406"/>
<path d="M296.924 236.483H465.208" stroke="#E7EEFF" stroke-opacity="0.3" stroke-width="1.1406"/>
<path d="M296.928 209.589L314.887 235.051L331.37 216.379L340.735 195.161L351.599 211.711L374.075 166.305L389.06 200.253L402.92 184.977L412.286 200.253L421.276 216.379H430.267L438.883 230.383L465.211 169.83" stroke="#0BE597" stroke-width="2.50635" stroke-linecap="round" stroke-linejoin="round"/>
<path d="M270.795 211.003C270.222 210.989 269.642 210.702 269.284 210.222L269.728 209.65C269.957 210.022 270.444 210.287 270.81 210.294L270.824 208.819L270.566 208.704C270.316 208.597 270.115 208.497 269.965 208.375C269.786 208.232 269.456 207.924 269.456 207.372C269.456 206.62 270.058 206.098 270.802 206.019L270.817 205.582H271.275L271.268 206.026C271.712 206.062 272.242 206.284 272.521 206.613L272.134 207.158C271.905 206.885 271.562 206.742 271.268 206.706L271.261 208.081L271.712 208.289C272.306 208.561 272.636 208.919 272.636 209.578C272.636 210.051 272.407 210.437 272.12 210.659C271.877 210.86 271.533 210.967 271.254 210.996L271.246 211.454H270.788L270.795 211.003ZM270.853 206.699C270.509 206.735 270.273 206.907 270.273 207.294C270.273 207.63 270.538 207.788 270.767 207.895L270.845 207.931L270.853 206.699ZM271.225 210.301C271.504 210.28 271.826 210.043 271.826 209.685C271.826 209.334 271.655 209.163 271.383 209.034L271.239 208.962L271.225 210.301ZM276.126 208.411C276.527 208.504 277.057 208.84 277.057 209.549C277.057 210.495 276.234 211.053 275.224 211.053C274.286 211.053 273.649 210.401 273.527 210.23L274.021 209.642C274.272 209.958 274.694 210.28 275.26 210.28C275.826 210.28 276.133 210.036 276.133 209.514C276.133 208.998 275.661 208.762 275.152 208.762H274.823V208.081H275.224C275.682 208.081 275.997 207.838 275.997 207.387C275.997 206.993 275.689 206.728 275.188 206.728C274.744 206.728 274.393 206.914 274.157 207.208L273.692 206.685C273.921 206.406 274.486 205.962 275.267 205.962C276.184 205.962 276.9 206.441 276.9 207.265C276.9 207.859 276.449 208.275 276.126 208.389V208.411ZM279.552 210.28C279.982 210.28 280.505 210.029 280.505 209.356C280.505 208.69 280.032 208.396 279.474 208.396C279.144 208.396 278.815 208.504 278.586 208.654L278.163 208.404L278.629 206.033H281.257L281.25 206.799H279.216L278.98 207.902C279.216 207.802 279.509 207.738 279.81 207.738C280.713 207.738 281.45 208.332 281.45 209.37C281.45 210.452 280.541 211.053 279.517 211.053C278.579 211.053 277.941 210.401 277.819 210.23L278.314 209.642C278.564 209.958 278.987 210.28 279.552 210.28ZM281.99 208.511C281.99 207.215 282.606 205.962 283.988 205.962C285.37 205.962 285.979 207.215 285.979 208.511C285.979 209.807 285.37 211.06 283.988 211.06C282.599 211.06 281.99 209.807 281.99 208.511ZM285.034 208.497C285.034 207.487 284.704 206.764 283.988 206.764C283.272 206.764 282.936 207.487 282.936 208.497C282.936 209.499 283.272 210.23 283.988 210.23C284.704 210.23 285.034 209.499 285.034 208.497ZM288.03 208.676L287.579 209.155V210.974H286.655V206.033H287.579V207.988L289.348 206.033H290.458L288.618 208.017L290.587 210.974H289.47L288.03 208.676Z" fill="white"/>
<path d="M270.795 238.931C270.222 238.917 269.642 238.63 269.284 238.15L269.728 237.578C269.957 237.95 270.444 238.215 270.81 238.222L270.824 236.747L270.566 236.632C270.316 236.525 270.115 236.425 269.965 236.303C269.786 236.16 269.456 235.852 269.456 235.3C269.456 234.548 270.058 234.026 270.802 233.947L270.817 233.51H271.275L271.268 233.954C271.712 233.99 272.242 234.212 272.521 234.541L272.134 235.086C271.905 234.813 271.562 234.67 271.268 234.634L271.261 236.009L271.712 236.217C272.306 236.489 272.636 236.847 272.636 237.506C272.636 237.979 272.407 238.365 272.12 238.587C271.877 238.788 271.533 238.895 271.254 238.924L271.246 239.382H270.788L270.795 238.931ZM270.853 234.627C270.509 234.663 270.273 234.835 270.273 235.222C270.273 235.558 270.538 235.716 270.767 235.823L270.845 235.859L270.853 234.627ZM271.225 238.229C271.504 238.208 271.826 237.971 271.826 237.613C271.826 237.262 271.655 237.091 271.383 236.962L271.239 236.89L271.225 238.229ZM276.126 236.339C276.527 236.432 277.057 236.768 277.057 237.477C277.057 238.423 276.234 238.981 275.224 238.981C274.286 238.981 273.649 238.329 273.527 238.158L274.021 237.57C274.272 237.885 274.694 238.208 275.26 238.208C275.826 238.208 276.133 237.964 276.133 237.441C276.133 236.926 275.661 236.69 275.152 236.69H274.823V236.009H275.224C275.682 236.009 275.997 235.766 275.997 235.315C275.997 234.921 275.689 234.656 275.188 234.656C274.744 234.656 274.393 234.842 274.157 235.136L273.692 234.613C273.921 234.334 274.486 233.89 275.267 233.89C276.184 233.89 276.9 234.369 276.9 235.193C276.9 235.787 276.449 236.203 276.126 236.317V236.339ZM277.648 236.439C277.648 235.143 278.263 233.89 279.646 233.89C281.028 233.89 281.636 235.143 281.636 236.439C281.636 237.735 281.028 238.988 279.646 238.988C278.256 238.988 277.648 237.735 277.648 236.439ZM280.691 236.425C280.691 235.415 280.362 234.692 279.646 234.692C278.929 234.692 278.593 235.415 278.593 236.425C278.593 237.427 278.929 238.158 279.646 238.158C280.362 238.158 280.691 237.427 280.691 236.425ZM281.99 236.439C281.99 235.143 282.606 233.89 283.988 233.89C285.37 233.89 285.979 235.143 285.979 236.439C285.979 237.735 285.37 238.988 283.988 238.988C282.599 238.988 281.99 237.735 281.99 236.439ZM285.034 236.425C285.034 235.415 284.704 234.692 283.988 234.692C283.272 234.692 282.936 235.415 282.936 236.425C282.936 237.427 283.272 238.158 283.988 238.158C284.704 238.158 285.034 237.427 285.034 236.425ZM288.03 236.604L287.579 237.083V238.902H286.655V233.961H287.579V235.916L289.348 233.961H290.458L288.618 235.945L290.587 238.902H289.47L288.03 236.604Z" fill="white"/>
<path d="M303.107 251.699C303.2 251.735 303.329 251.756 303.494 251.756C303.837 251.756 303.902 251.449 303.902 251.04V246.135H304.825V251.019C304.825 251.527 304.732 251.878 304.561 252.1C304.396 252.315 304.109 252.487 303.716 252.487C303.4 252.487 303.121 252.415 303.078 252.387L303.107 251.699ZM306.598 249.465C306.598 249.981 306.684 250.389 307.214 250.389C307.766 250.389 307.973 249.952 307.973 249.372V247.61H308.89V251.076H308.002L307.995 250.589C307.794 250.933 307.422 251.141 306.921 251.141C305.925 251.141 305.682 250.496 305.682 249.665V247.61H306.598V249.465ZM309.768 246.135H310.678V251.076H309.768V246.135ZM312.984 250.482L314.696 248.899C315.09 248.534 315.448 248.126 315.448 247.639C315.448 247.145 315.133 246.83 314.574 246.83C313.951 246.83 313.6 247.224 313.364 247.489L312.934 246.923C313.092 246.694 313.6 246.063 314.646 246.063C315.698 246.063 316.379 246.644 316.379 247.517C316.379 248.362 315.713 248.985 315.405 249.279L314.302 250.31H316.586V251.076H313.106L312.984 250.482ZM317.327 250.482L319.039 248.899C319.432 248.534 319.79 248.126 319.79 247.639C319.79 247.145 319.475 246.83 318.917 246.83C318.294 246.83 317.943 247.224 317.707 247.489L317.277 246.923C317.435 246.694 317.943 246.063 318.988 246.063C320.041 246.063 320.721 246.644 320.721 247.517C320.721 248.362 320.055 248.985 319.748 249.279L318.645 250.31H320.929V251.076H317.449L317.327 250.482Z" fill="white"/>
<path d="M349.83 249.938H347.889L347.459 251.076H346.493L348.433 246.128H349.335L351.276 251.076H350.259L349.83 249.938ZM348.118 249.193H349.6L348.863 247.195L348.118 249.193ZM352.614 249.465C352.614 249.981 352.7 250.389 353.23 250.389C353.781 250.389 353.989 249.952 353.989 249.372V247.61H354.905V251.076H354.017L354.01 250.589C353.81 250.933 353.437 251.141 352.936 251.141C351.941 251.141 351.697 250.496 351.697 249.665V247.61H352.614V249.465ZM358.333 250.417C358.097 250.775 357.681 250.962 357.151 250.962C356.278 250.962 355.533 250.403 355.533 249.3C355.533 248.341 356.206 247.546 357.237 247.546C357.703 247.546 358.097 247.718 358.34 248.09H358.354L358.347 247.61H359.257V250.36C359.257 251.119 359.099 251.549 358.805 251.857C358.505 252.172 358.061 252.465 357.23 252.465C356.407 252.465 355.791 252.072 355.619 251.95L355.998 251.312C356.22 251.47 356.786 251.721 357.23 251.721C357.724 251.721 357.982 251.563 358.111 251.413C358.24 251.262 358.347 250.976 358.347 250.589V250.417H358.333ZM358.397 249.279C358.397 248.777 358.025 248.269 357.423 248.269C356.822 248.269 356.464 248.713 356.464 249.279C356.464 249.809 356.808 250.245 357.409 250.245C358.068 250.245 358.397 249.809 358.397 249.279ZM361.545 250.482L363.257 248.899C363.651 248.534 364.009 248.126 364.009 247.639C364.009 247.145 363.694 246.83 363.135 246.83C362.512 246.83 362.161 247.224 361.925 247.489L361.495 246.923C361.653 246.694 362.161 246.063 363.207 246.063C364.259 246.063 364.94 246.644 364.94 247.517C364.94 248.362 364.274 248.985 363.966 249.279L362.863 250.31H365.147V251.076H361.667L361.545 250.482ZM365.888 250.482L367.6 248.899C367.993 248.534 368.351 248.126 368.351 247.639C368.351 247.145 368.036 246.83 367.478 246.83C366.855 246.83 366.504 247.224 366.268 247.489L365.838 246.923C365.995 246.694 366.504 246.063 367.549 246.063C368.602 246.063 369.282 246.644 369.282 247.517C369.282 248.362 368.616 248.985 368.308 249.279L367.206 250.31H369.49V251.076H366.01L365.888 250.482Z" fill="white"/>
<path d="M395.56 248.348C396.254 248.634 396.526 249.021 396.526 249.637C396.526 250.553 395.853 251.162 394.808 251.162C393.963 251.162 393.383 250.768 393.061 250.396L393.505 249.723C393.891 250.145 394.357 250.374 394.822 250.374C395.28 250.374 395.596 250.152 395.596 249.723C395.596 249.336 395.338 249.207 394.915 249.035L394.142 248.727C393.605 248.513 393.247 248.133 393.247 247.531C393.247 246.672 393.92 246.078 394.958 246.078C395.66 246.078 396.168 246.371 396.462 246.672L396.018 247.338C395.703 247.052 395.323 246.844 394.901 246.844C394.493 246.844 394.171 247.045 394.171 247.41C394.171 247.768 394.478 247.904 394.736 248.011L395.56 248.348ZM397.88 249.637C397.966 250.188 398.388 250.453 398.911 250.453C399.376 250.453 399.792 250.245 399.956 250.102L400.314 250.596C400.121 250.797 399.598 251.155 398.753 251.155C397.708 251.155 396.934 250.518 396.934 249.4C396.934 248.291 397.744 247.546 398.732 247.546C399.799 247.546 400.443 248.248 400.443 249.171C400.443 249.35 400.429 249.637 400.429 249.637H397.88ZM398.725 248.226C398.18 248.226 397.894 248.606 397.865 249.042H399.527C399.512 248.663 399.369 248.226 398.725 248.226ZM401.99 248.097L402.004 248.104C402.283 247.689 402.699 247.531 403.157 247.531C404.174 247.531 404.797 248.319 404.797 249.35C404.797 250.331 404.145 251.141 403.093 251.141C402.563 251.141 402.269 250.954 401.983 250.611L401.968 250.618C401.976 250.783 401.983 250.94 401.983 251.184V252.387H401.073V247.61H402.004L401.99 248.097ZM402.899 248.276C402.348 248.276 401.961 248.699 401.961 249.35C401.961 249.93 402.341 250.439 402.928 250.439C403.522 250.439 403.866 249.93 403.866 249.35C403.866 248.749 403.494 248.276 402.899 248.276ZM406.863 250.482L408.575 248.899C408.969 248.534 409.327 248.126 409.327 247.639C409.327 247.145 409.012 246.83 408.453 246.83C407.83 246.83 407.479 247.224 407.243 247.489L406.813 246.923C406.971 246.694 407.479 246.063 408.525 246.063C409.577 246.063 410.258 246.644 410.258 247.517C410.258 248.362 409.592 248.985 409.284 249.279L408.181 250.31H410.465V251.076H406.985L406.863 250.482ZM411.206 250.482L412.918 248.899C413.311 248.534 413.669 248.126 413.669 247.639C413.669 247.145 413.354 246.83 412.796 246.83C412.173 246.83 411.822 247.224 411.586 247.489L411.156 246.923C411.313 246.694 411.822 246.063 412.867 246.063C413.92 246.063 414.6 246.644 414.6 247.517C414.6 248.362 413.934 248.985 413.626 249.279L412.524 250.31H414.808V251.076H411.328L411.206 250.482Z" fill="white"/>
<path d="M441.137 250.446C439.712 250.446 438.552 249.486 438.552 247.897C438.552 246.307 439.712 245.347 441.137 245.347C442.569 245.347 443.722 246.307 443.722 247.897C443.722 249.486 442.569 250.446 441.137 250.446ZM442.763 247.889C442.763 246.815 442.054 246.156 441.137 246.156C440.22 246.156 439.512 246.815 439.512 247.889C439.512 248.964 440.228 249.63 441.137 249.63C442.054 249.63 442.763 248.964 442.763 247.889ZM447.053 249.3L447.311 249.973C447.239 250.038 446.881 250.439 445.957 250.439C445.012 250.439 444.138 249.787 444.138 248.656C444.138 247.517 445.041 246.83 445.972 246.83C446.845 246.83 447.189 247.18 447.282 247.274L447.031 247.961C446.924 247.861 446.616 247.596 446.079 247.596C445.535 247.596 445.098 247.975 445.098 248.613C445.098 249.25 445.535 249.665 446.129 249.665C446.723 249.665 447.053 249.3 447.053 249.3ZM448.868 249.014C448.868 249.544 448.962 249.673 449.284 249.673C449.47 249.673 449.613 249.615 449.613 249.615L449.663 250.324C449.62 250.339 449.348 250.439 448.962 250.439C448.253 250.439 447.959 250.117 447.959 249.214V247.61H447.443V246.901H447.959V245.913H448.868V246.901H449.671V247.61H448.868V249.014ZM451.62 249.766L453.331 248.183C453.725 247.818 454.083 247.41 454.083 246.923C454.083 246.429 453.768 246.114 453.21 246.114C452.587 246.114 452.236 246.507 451.999 246.772L451.57 246.207C451.727 245.977 452.236 245.347 453.281 245.347C454.334 245.347 455.014 245.927 455.014 246.801C455.014 247.646 454.348 248.269 454.04 248.563L452.938 249.594H455.222V250.36H451.742L451.62 249.766ZM455.963 249.766L457.674 248.183C458.068 247.818 458.426 247.41 458.426 246.923C458.426 246.429 458.111 246.114 457.552 246.114C456.929 246.114 456.579 246.507 456.342 246.772L455.913 246.207C456.07 245.977 456.579 245.347 457.624 245.347C458.677 245.347 459.357 245.927 459.357 246.801C459.357 247.646 458.691 248.269 458.383 248.563L457.28 249.594H459.565V250.36H456.084L455.963 249.766Z" fill="white"/>
<path d="M275.747 183.419H273.298V182.724L275.683 179.516H276.642V182.667H277.33V183.419H276.642V184.479H275.747V183.419ZM275.769 182.681V180.54L274.179 182.681H275.769ZM277.648 182.015C277.648 180.719 278.264 179.466 279.646 179.466C281.028 179.466 281.637 180.719 281.637 182.015C281.637 183.312 281.028 184.565 279.646 184.565C278.257 184.565 277.648 183.312 277.648 182.015ZM280.691 182.001C280.691 180.991 280.362 180.268 279.646 180.268C278.93 180.268 278.593 180.991 278.593 182.001C278.593 183.004 278.93 183.734 279.646 183.734C280.362 183.734 280.691 183.004 280.691 182.001ZM281.991 182.015C281.991 180.719 282.607 179.466 283.989 179.466C285.371 179.466 285.979 180.719 285.979 182.015C285.979 183.312 285.371 184.565 283.989 184.565C282.599 184.565 281.991 183.312 281.991 182.015ZM285.034 182.001C285.034 180.991 284.705 180.268 283.989 180.268C283.273 180.268 282.936 180.991 282.936 182.001C282.936 183.004 283.273 183.734 283.989 183.734C284.705 183.734 285.034 183.004 285.034 182.001ZM288.031 182.18L287.58 182.66V184.479H286.656V179.538H287.58V181.493L289.348 179.538H290.458L288.618 181.521L290.587 184.479H289.47L288.031 182.18Z" fill="white"/>
<path d="M270.796 156.579C270.223 156.565 269.643 156.279 269.285 155.799L269.729 155.226C269.958 155.598 270.445 155.863 270.81 155.87L270.824 154.395L270.567 154.281C270.316 154.173 270.115 154.073 269.965 153.951C269.786 153.808 269.457 153.5 269.457 152.949C269.457 152.197 270.058 151.674 270.803 151.595L270.817 151.159H271.276L271.268 151.603C271.712 151.638 272.242 151.86 272.522 152.19L272.135 152.734C271.906 152.462 271.562 152.319 271.268 152.283L271.261 153.658L271.712 153.865C272.307 154.138 272.636 154.496 272.636 155.154C272.636 155.627 272.407 156.014 272.121 156.236C271.877 156.436 271.533 156.544 271.254 156.572L271.247 157.031H270.789L270.796 156.579ZM270.853 152.276C270.509 152.311 270.273 152.483 270.273 152.87C270.273 153.207 270.538 153.364 270.767 153.472L270.846 153.507L270.853 152.276ZM271.225 155.878C271.505 155.856 271.827 155.62 271.827 155.262C271.827 154.911 271.655 154.739 271.383 154.61L271.24 154.539L271.225 155.878ZM275.747 155.491H273.298V154.796L275.683 151.588H276.642V154.739H277.33V155.491H276.642V156.551H275.747V155.491ZM275.769 154.753V152.612L274.179 154.753H275.769ZM279.553 155.856C279.983 155.856 280.505 155.606 280.505 154.932C280.505 154.266 280.033 153.973 279.474 153.973C279.145 153.973 278.815 154.08 278.586 154.231L278.164 153.98L278.629 151.61H281.257L281.25 152.376H279.216L278.98 153.479C279.216 153.378 279.51 153.314 279.811 153.314C280.713 153.314 281.451 153.908 281.451 154.947C281.451 156.028 280.541 156.63 279.517 156.63C278.579 156.63 277.942 155.978 277.82 155.806L278.314 155.219C278.565 155.534 278.987 155.856 279.553 155.856ZM281.991 154.087C281.991 152.791 282.607 151.538 283.989 151.538C285.371 151.538 285.979 152.791 285.979 154.087C285.979 155.384 285.371 156.637 283.989 156.637C282.599 156.637 281.991 155.384 281.991 154.087ZM285.034 154.073C285.034 153.063 284.705 152.34 283.989 152.34C283.273 152.34 282.936 153.063 282.936 154.073C282.936 155.076 283.273 155.806 283.989 155.806C284.705 155.806 285.034 155.076 285.034 154.073ZM288.031 154.252L287.58 154.732V156.551H286.656V151.61H287.58V153.565L289.348 151.61H290.458L288.618 153.593L290.587 156.551H289.47L288.031 154.252Z" fill="white"/>
<g filter="url(#filter2_bd_6376_29405)">
<rect x="348.488" y="140.525" width="51.5593" height="20.0508" rx="3" fill="url(#paint1_linear_6376_29405)" shape-rendering="crispEdges"/>
<rect x="348.988" y="141.025" width="50.5593" height="19.0508" rx="2.5" stroke="url(#paint2_linear_6376_29405)" shape-rendering="crispEdges"/>
</g>
<path d="M361.243 152.179C361.243 153.095 360.753 153.765 360.25 154.165C359.799 154.525 359.065 154.77 358.575 154.809L358.549 155.518H357.621L357.647 154.835C356.68 154.796 355.623 154.332 354.979 153.52L355.932 152.231C356.306 152.824 357.234 153.275 357.789 153.288L357.827 151.135L357.389 150.955C356.899 150.749 356.512 150.555 356.229 150.323C355.945 150.104 355.327 149.537 355.327 148.48C355.327 147.629 355.7 147.024 356.177 146.611C356.616 146.224 357.286 146.005 357.982 145.941L358.008 145.245H358.936L358.923 145.967C359.696 146.031 360.573 146.392 361.088 147.011L360.289 148.287C359.851 147.797 359.258 147.488 358.781 147.423L358.729 149.486L359.542 149.834C360.586 150.298 361.243 151.045 361.243 152.179ZM357.969 147.41C357.479 147.449 357.131 147.771 357.131 148.274C357.131 148.751 357.466 148.983 357.789 149.137L357.93 149.202L357.969 147.41ZM359.464 152.424C359.464 151.935 359.232 151.69 358.845 151.496L358.639 151.393L358.601 153.314C359 153.275 359.464 152.927 359.464 152.424ZM369.956 153.043H368.77V154.822H366.76V153.043H362.429V151.522L366.463 145.902H368.77V151.432H369.956V153.043ZM366.811 151.471V148.029L364.323 151.471H366.811ZM378.025 153.043H376.839V154.822H374.828V153.043H370.497V151.522L374.532 145.902H376.839V151.432H378.025V153.043ZM374.88 151.471V148.029L372.392 151.471H374.88ZM386.003 150.388C386.003 152.734 384.908 154.977 382.317 154.977C379.713 154.977 378.63 152.734 378.63 150.388C378.63 148.042 379.726 145.799 382.317 145.799C384.908 145.799 386.003 148.042 386.003 150.388ZM383.954 150.349C383.954 148.751 383.464 147.539 382.317 147.539C381.17 147.539 380.68 148.751 380.68 150.349C380.68 151.947 381.17 153.185 382.317 153.185C383.464 153.185 383.954 151.947 383.954 150.349ZM394.678 154.822H392.177L389.947 151.11L389.238 151.896V154.822H387.163V145.928H389.238V149.176L391.984 145.928H394.459L391.327 149.473L394.678 154.822Z" fill="#0BE597"/>
<path d="M475.087 140.573C476.241 127.745 466.778 116.411 453.95 115.256C441.123 114.102 429.788 123.565 428.633 136.392C427.479 149.22 436.942 160.555 449.77 161.709C462.597 162.864 473.932 153.401 475.087 140.573Z" fill="#FECE4D"/>
<path d="M469.909 138.913C470.342 128.782 462.481 120.218 452.35 119.785C442.22 119.352 433.656 127.213 433.222 137.343C432.789 147.474 440.65 156.038 450.781 156.471C460.911 156.905 469.475 149.044 469.909 138.913Z" fill="#22395B"/>
<path d="M453.176 152.409C450.379 152.635 447.58 151.999 445.133 150.581C442.687 149.163 440.702 147.026 439.43 144.442C438.158 141.858 437.656 138.943 437.988 136.064C438.32 133.185 439.471 130.473 441.295 128.271C443.119 126.068 445.535 124.474 448.235 123.69C450.936 122.906 453.802 122.967 456.469 123.866C459.136 124.765 461.485 126.461 463.22 128.74C464.954 131.019 465.995 133.778 466.211 136.668C466.501 140.541 465.291 144.375 462.847 147.327C460.403 150.278 456.924 152.106 453.176 152.409Z" fill="#FECE4D"/>
<path d="M451.982 148.449C457.461 148.324 461.801 143.781 461.676 138.302C461.551 132.822 457.007 128.482 451.528 128.608C446.049 128.733 441.709 133.276 441.834 138.755C441.96 144.234 446.503 148.575 451.982 148.449Z" fill="#22395B"/>
<path d="M452.005 143.925C450.979 144.013 449.951 143.767 449.054 143.217C448.156 142.667 447.428 141.839 446.962 140.838C446.496 139.836 446.313 138.706 446.436 137.591C446.559 136.476 446.983 135.426 447.654 134.574C448.325 133.722 449.212 133.106 450.204 132.805C451.196 132.504 452.248 132.53 453.225 132.882C454.203 133.233 455.064 133.893 455.697 134.778C456.331 135.664 456.71 136.734 456.785 137.855C456.886 139.35 456.439 140.828 455.544 141.966C454.648 143.104 453.376 143.808 452.005 143.925Z" fill="#FECE4D"/>
<path d="M480.552 117.877L488 111.909L479.094 112.194L477.655 113.52L479.08 112.194L480.269 103.288L473.596 110.158L473.931 115.609L471.587 117.718L471.344 112.167L467.304 116.518L467.58 121.325L449.236 137.844C449.219 138.187 449.321 138.525 449.525 138.799C449.776 139.04 450.1 139.187 450.445 139.217L468.697 122.784L473.642 123.713L478.43 120.052L472.71 119.17L475.107 117.008L480.552 117.877Z" fill="white"/>
<defs>
<filter id="filter0_dd_6376_29405" x="86.6525" y="32.6525" width="393.887" height="233.481" filterUnits="userSpaceOnUse" color-interpolation-filters="sRGB">
<feFlood flood-opacity="0" result="BackgroundImageFix"/>
<feColorMatrix in="SourceAlpha" type="matrix" values="0 0 0 0 0 0 0 0 0 0 0 0 0 0 0 0 0 0 127 0" result="hardAlpha"/>
<feOffset dx="2.78072" dy="2.78072"/>
<feGaussianBlur stdDeviation="8.06409"/>
<feColorMatrix type="matrix" values="0 0 0 0 0 0 0 0 0 0.296699 0 0 0 0 0.858629 0 0 0 0.14 0"/>
<feBlend mode="normal" in2="BackgroundImageFix" result="effect1_dropShadow_6376_29405"/>
<feColorMatrix in="SourceAlpha" type="matrix" values="0 0 0 0 0 0 0 0 0 0 0 0 0 0 0 0 0 0 127 0" result="hardAlpha"/>
<feOffset/>
<feGaussianBlur stdDeviation="1.9465"/>
<feComposite in2="hardAlpha" operator="out"/>
<feColorMatrix type="matrix" values="0 0 0 0 0.0354167 0 0 0 0 0.105426 0 0 0 0 0.2125 0 0 0 0.09 0"/>
<feBlend mode="normal" in2="effect1_dropShadow_6376_29405" result="effect2_dropShadow_6376_29405"/>
<feBlend mode="normal" in="SourceGraphic" in2="effect2_dropShadow_6376_29405" result="shape"/>
</filter>
<filter id="filter1_d_6376_29405" x="95" y="53.1738" width="381.494" height="246.135" filterUnits="userSpaceOnUse" color-interpolation-filters="sRGB">
<feFlood flood-opacity="0" result="BackgroundImageFix"/>
<feColorMatrix in="SourceAlpha" type="matrix" values="0 0 0 0 0 0 0 0 0 0 0 0 0 0 0 0 0 0 127 0" result="hardAlpha"/>
<feOffset dx="5" dy="5"/>
<feGaussianBlur stdDeviation="5"/>
<feColorMatrix type="matrix" values="0 0 0 0 0.0941177 0 0 0 0 0.188235 0 0 0 0 0.247059 0 0 0 0.15 0"/>
<feBlend mode="normal" in2="BackgroundImageFix" result="effect1_dropShadow_6376_29405"/>
<feBlend mode="normal" in="SourceGraphic" in2="effect1_dropShadow_6376_29405" result="shape"/>
</filter>
<filter id="filter2_bd_6376_29405" x="334.43" y="128.912" width="79.6759" height="48.1681" filterUnits="userSpaceOnUse" color-interpolation-filters="sRGB">
<feFlood flood-opacity="0" result="BackgroundImageFix"/>
<feGaussianBlur in="BackgroundImageFix" stdDeviation="2.76366"/>
<feComposite in2="SourceAlpha" operator="in" result="effect1_backgroundBlur_6376_29405"/>
<feColorMatrix in="SourceAlpha" type="matrix" values="0 0 0 0 0 0 0 0 0 0 0 0 0 0 0 0 0 0 127 0" result="hardAlpha"/>
<feMorphology radius="0.611245" operator="erode" in="SourceAlpha" result="effect2_dropShadow_6376_29405"/>
<feOffset dy="2.44498"/>
<feGaussianBlur stdDeviation="7.33494"/>
<feComposite in2="hardAlpha" operator="out"/>
<feColorMatrix type="matrix" values="0 0 0 0 0 0 0 0 0 0 0 0 0 0 0 0 0 0 0.2 0"/>
<feBlend mode="normal" in2="effect1_backgroundBlur_6376_29405" result="effect2_dropShadow_6376_29405"/>
<feBlend mode="normal" in="SourceGraphic" in2="effect2_dropShadow_6376_29405" result="shape"/>
</filter>
<linearGradient id="paint0_linear_6376_29405" x1="130.475" y1="58.1738" x2="445.789" y2="306.796" gradientUnits="userSpaceOnUse">
<stop stop-color="#0C2966"/>
<stop offset="1" stop-color="#0045C9"/>
</linearGradient>
<linearGradient id="paint1_linear_6376_29405" x1="350.592" y1="140.525" x2="380.523" y2="170.445" gradientUnits="userSpaceOnUse">
<stop stop-color="white" stop-opacity="0.09"/>
<stop offset="1" stop-color="white" stop-opacity="0.3"/>
</linearGradient>
<linearGradient id="paint2_linear_6376_29405" x1="355.497" y1="140.926" x2="377.601" y2="171.331" gradientUnits="userSpaceOnUse">
<stop stop-color="white" stop-opacity="0.4"/>
<stop offset="1" stop-color="white"/>
</linearGradient>
<clipPath id="clip0_6376_29405">
<rect x="100" y="46" width="361.631" height="201.224" rx="5.56144" fill="white"/>
</clipPath>
</defs>
</svg>
