<svg width="84" height="84" viewBox="0 0 84 84" fill="none" xmlns="http://www.w3.org/2000/svg">
<path d="M76.9607 0H7.03934C3.15162 0 0 3.15162 0 7.03934V76.9607C0 80.8484 3.15162 84 7.03934 84H76.9607C80.8484 84 84 80.8484 84 76.9607V7.03934C84 3.15162 80.8484 0 76.9607 0Z" fill="#092349"/>
<path d="M63.7015 38.7302L63.66 31.1859C63.6513 29.6114 62.3753 28.3321 60.8233 28.3398L49.4072 28.406V24.2411C49.4072 23.1834 48.5541 22.3191 47.5127 22.3191H36.4103C35.3677 22.3191 34.5158 23.1846 34.5158 24.2411V28.49L22.9968 28.5562C21.4448 28.5638 20.1827 29.8596 20.1915 31.4329L20.2316 38.7315L38.8117 43.669V43.0351C38.8117 42.671 39.1066 42.3732 39.4641 42.3732H44.4589C44.8165 42.3732 45.1101 42.671 45.1101 43.0351V43.669L63.7015 38.7302ZM37.1104 25.5738C37.1104 25.1729 37.4341 24.8445 37.8281 24.8445H46.0937C46.4889 24.8445 46.8126 25.1741 46.8126 25.5738V28.42L37.1104 28.476V25.5738Z" fill="#9FC0FF"/>
<path d="M63.8056 58.3308C63.8143 59.9053 62.5522 61.1998 61.0014 61.2087L23.1737 61.4251C21.6217 61.4327 20.3458 60.1535 20.337 58.579L20.2354 40.0727L38.8129 45.0076V46.7272C38.8129 47.0913 39.1078 47.3891 39.4654 47.3891H44.4601C44.8177 47.3891 45.1113 47.0913 45.1113 46.7272V45.0076L63.7064 40.0688L63.8081 58.3308H63.8056Z" fill="#3D7FFC"/>
</svg>
