<svg width="84" height="84" viewBox="0 0 84 84" fill="none" xmlns="http://www.w3.org/2000/svg">
<path d="M76.9607 0H7.03934C3.15162 0 0 3.15162 0 7.03934V76.9607C0 80.8484 3.15162 84 7.03934 84H76.9607C80.8484 84 84 80.8484 84 76.9607V7.03934C84 3.15162 80.8484 0 76.9607 0Z" fill="#092349"/>
<g clip-path="url(#clip0_2075_4548)">
<rect x="25.9082" y="29.8994" width="32.2581" height="37.0968" rx="1.48387" fill="#9FC0FF"/>
<rect x="29.9404" y="33.9302" width="6.45162" height="6.45162" rx="0.741936" fill="#C6DBFF"/>
<rect x="29.9404" y="43.6157" width="6.45162" height="6.45162" rx="0.741936" fill="#C6DBFF"/>
<rect x="29.9404" y="53.2927" width="6.45162" height="6.45162" rx="0.741936" fill="#C6DBFF"/>
<rect x="38.8115" y="33.9302" width="6.45162" height="6.45162" rx="0.741936" fill="#C6DBFF"/>
<rect x="38.8115" y="43.6157" width="6.45162" height="6.45162" rx="0.741936" fill="#C6DBFF"/>
<rect x="38.8115" y="53.2927" width="6.45162" height="13.7097" rx="0.741936" fill="#3D7FFC"/>
<rect x="47.6836" y="33.9302" width="6.45162" height="6.45162" rx="0.741936" fill="#C6DBFF"/>
<rect x="47.6836" y="43.6157" width="6.45162" height="6.45162" rx="0.741936" fill="#C6DBFF"/>
<rect x="47.6836" y="53.2927" width="6.45162" height="6.45162" rx="0.741936" fill="#C6DBFF"/>
<path d="M28.724 19.8192H26.3789V19.8149C26.2488 19.8133 26.1224 19.7745 26.017 19.7034C25.9116 19.6324 25.8324 19.5329 25.7901 19.4183C25.7828 19.4009 25.7766 19.3829 25.7717 19.3648L25.0835 17.3088L25.0665 17.2573C25.037 17.1796 24.9816 17.1128 24.9083 17.0666C24.835 17.0203 24.7477 16.997 24.6592 17.0003C24.5707 17.0036 24.4857 17.0334 24.4166 17.085C24.3475 17.1365 24.298 17.2071 24.2753 17.2867L23.5789 19.3571C23.579 19.3582 23.579 19.3596 23.5789 19.3608C23.5734 19.3824 23.5663 19.4036 23.5576 19.4244C23.5143 19.5379 23.4347 19.6365 23.3293 19.7064C23.224 19.7764 23.0981 19.8143 22.9688 19.8155V19.8199H20.6215C20.5193 19.8364 20.4268 19.8864 20.3606 19.9608C20.2945 20.0352 20.2591 20.1289 20.2608 20.2255C20.2603 20.2878 20.275 20.3495 20.3037 20.4058C20.3323 20.4622 20.3743 20.5119 20.4264 20.551L20.4456 20.5654L22.268 21.8571C22.3546 21.9152 22.4251 21.9917 22.4735 22.0803C22.5219 22.1689 22.5468 22.267 22.5463 22.3664C22.546 22.4125 22.5403 22.4586 22.5293 22.5036C22.5213 22.5383 22.51 22.5722 22.4955 22.605L21.8043 24.672V24.6794L21.7992 24.6944C21.788 24.7326 21.7823 24.7719 21.7822 24.8115C21.7806 24.8643 21.7901 24.9168 21.8104 24.9661C21.8307 25.0154 21.8612 25.0607 21.9003 25.099C21.9394 25.1372 21.9862 25.1677 22.0381 25.189C22.09 25.2103 22.1458 25.2217 22.2025 25.2228C22.2762 25.2232 22.3485 25.2046 22.4116 25.1692L22.4852 25.1187L24.2944 23.8404L24.3341 23.8117C24.4345 23.7469 24.5534 23.7117 24.6754 23.7106C24.7974 23.7095 24.917 23.7427 25.0187 23.8056C25.0411 23.8189 25.0622 23.8337 25.082 23.8501L26.8809 25.1234L26.9317 25.1599C26.9978 25.1985 27.0745 25.2187 27.1525 25.2181C27.2091 25.2169 27.2649 25.205 27.3166 25.1836C27.3683 25.1623 27.415 25.1318 27.454 25.0936C27.493 25.0554 27.5235 25.0103 27.5438 24.9611C27.564 24.9119 27.5736 24.8595 27.5721 24.8068C27.5723 24.7655 27.5659 24.7242 27.5529 24.6847C27.5529 24.6785 27.5485 24.6718 27.547 24.665L26.8529 22.5906C26.8414 22.5637 26.8323 22.5359 26.8257 22.5076C26.7965 22.3943 26.8017 22.2757 26.8407 22.165C26.8797 22.0542 26.951 21.9558 27.0465 21.8805C27.062 21.8682 27.0782 21.8574 27.0944 21.8464L28.897 20.5715L28.9515 20.532C28.9984 20.4929 29.0358 20.4448 29.0612 20.3911C29.0866 20.3374 29.0994 20.2794 29.0987 20.2208C29.0989 20.123 29.0611 20.0282 28.9922 19.9544C28.9234 19.8806 28.8281 19.8326 28.724 19.8192Z" fill="#FECE4D"/>
<path d="M40.5011 19.8192H38.156V19.8149C38.0259 19.8133 37.8995 19.7745 37.7941 19.7034C37.6887 19.6324 37.6095 19.5329 37.5672 19.4183C37.56 19.4009 37.5538 19.3829 37.5488 19.3648L36.8606 17.3088L36.8429 17.2573C36.8134 17.1796 36.7579 17.1128 36.6846 17.0666C36.6113 17.0203 36.5241 16.997 36.4356 17.0003C36.3471 17.0036 36.2621 17.0334 36.193 17.085C36.1239 17.1365 36.0744 17.2071 36.0516 17.2867L35.3553 19.3571C35.3554 19.3582 35.3554 19.3596 35.3553 19.3608C35.3497 19.3824 35.3426 19.4036 35.334 19.4244C35.2908 19.5379 35.2111 19.6364 35.1058 19.7064C35.0005 19.7764 34.8745 19.8144 34.7451 19.8155V19.8199H32.3978C32.2956 19.8364 32.2031 19.8864 32.137 19.9608C32.0709 20.0352 32.0355 20.1289 32.0372 20.2255C32.0367 20.2878 32.0513 20.3495 32.08 20.4058C32.1087 20.4622 32.1507 20.5119 32.2028 20.551L32.2219 20.5654L34.0444 21.8571C34.1513 21.9296 34.2331 22.0299 34.2796 22.1452C34.326 22.2606 34.3351 22.3862 34.3057 22.5063C34.2977 22.541 34.2864 22.5749 34.2718 22.6077L33.5807 24.6747V24.682L33.5755 24.6971C33.5643 24.7353 33.5586 24.775 33.5586 24.8145C33.5569 24.8673 33.5665 24.9195 33.5868 24.9688C33.607 25.0181 33.6376 25.0634 33.6767 25.1017C33.7158 25.1399 33.7626 25.1704 33.8145 25.1917C33.8663 25.213 33.9222 25.2244 33.9789 25.2255C34.0525 25.2258 34.1248 25.2076 34.1879 25.1723L34.2615 25.1214L36.0708 23.8435L36.1105 23.8147C36.2108 23.7499 36.3297 23.7147 36.4518 23.7136C36.5738 23.7125 36.6934 23.7454 36.795 23.8083C36.8174 23.8215 36.8386 23.8364 36.8583 23.8528L38.6573 25.1261L38.7081 25.1626C38.7742 25.2012 38.8508 25.2214 38.9289 25.2208C38.9855 25.2195 39.0412 25.208 39.093 25.1866C39.1447 25.1653 39.1914 25.1345 39.2304 25.0963C39.2694 25.0581 39.2999 25.013 39.3201 24.9638C39.3404 24.9146 39.35 24.8622 39.3484 24.8095C39.3487 24.7682 39.3422 24.7273 39.3293 24.6877C39.3293 24.6816 39.3249 24.6745 39.3227 24.6676L38.6286 22.5933C38.6171 22.5664 38.608 22.5386 38.6013 22.5103C38.5887 22.4618 38.5823 22.4123 38.5822 22.3624C38.5815 22.2711 38.6024 22.1806 38.6435 22.0977C38.6846 22.0148 38.7449 21.9413 38.8199 21.8825C38.8354 21.8702 38.8516 21.8594 38.8678 21.8484L40.6704 20.5738L40.7249 20.534C40.7718 20.4949 40.8092 20.4468 40.8346 20.3931C40.86 20.3394 40.8728 20.2814 40.8721 20.2228C40.873 20.1251 40.836 20.0303 40.7678 19.9561C40.6996 19.8819 40.6049 19.8334 40.5011 19.8192Z" fill="#FECE4D"/>
<path d="M52.2794 19.8192H49.9343V19.8149C49.8042 19.8133 49.6778 19.7745 49.5724 19.7034C49.467 19.6324 49.3878 19.5329 49.3455 19.4183C49.3382 19.4009 49.3321 19.3829 49.3271 19.3648L48.6389 17.3088L48.6212 17.2573C48.5917 17.1796 48.5363 17.1128 48.463 17.0666C48.3897 17.0203 48.3024 16.997 48.2139 17.0003C48.1254 17.0036 48.0404 17.0334 47.9713 17.085C47.9022 17.1365 47.8527 17.2071 47.8299 17.2867L47.1336 19.3571C47.1336 19.3571 47.1336 19.3573 47.1336 19.3608C47.128 19.3824 47.1209 19.4036 47.1123 19.4244C47.069 19.5379 46.9893 19.6365 46.884 19.7064C46.7787 19.7764 46.6528 19.8143 46.5234 19.8155V19.8199H44.1761C44.074 19.8364 43.9815 19.8864 43.9153 19.9608C43.8492 20.0352 43.8138 20.1289 43.8155 20.2255C43.8148 20.2879 43.8293 20.3498 43.858 20.4062C43.8867 20.4626 43.9288 20.512 43.9811 20.551L44.0002 20.5654L45.8227 21.8571C45.9297 21.9296 46.0114 22.0299 46.0579 22.1452C46.1043 22.2606 46.1134 22.3862 46.084 22.5063C46.0761 22.541 46.0647 22.5749 46.0502 22.6077L45.359 24.6747V24.682L45.3538 24.6971C45.3426 24.7353 45.3369 24.775 45.3369 24.8145C45.3352 24.8673 45.3448 24.9195 45.3651 24.9688C45.3854 25.0181 45.4159 25.0634 45.455 25.1017C45.4941 25.1399 45.5409 25.1704 45.5928 25.1917C45.6446 25.213 45.7005 25.2244 45.7572 25.2255C45.8308 25.2258 45.9032 25.2076 45.9662 25.1723L46.0398 25.1214L47.8491 23.8435L47.8888 23.8147C47.9892 23.7499 48.108 23.7147 48.2301 23.7136C48.3521 23.7125 48.4717 23.7454 48.5734 23.8083C48.5957 23.8215 48.6169 23.8364 48.6367 23.8528L50.4356 25.1261L50.4864 25.1626C50.5525 25.2012 50.6291 25.2214 50.7072 25.2208C50.7638 25.2195 50.8195 25.208 50.8713 25.1866C50.923 25.1653 50.9697 25.1345 51.0087 25.0963C51.0477 25.0581 51.0782 25.013 51.0984 24.9638C51.1187 24.9146 51.1283 24.8622 51.1268 24.8095C51.127 24.7682 51.1205 24.7273 51.1076 24.6877C51.1076 24.6816 51.1032 24.6745 51.1017 24.6676L50.4076 22.5933C50.3961 22.5664 50.387 22.5386 50.3804 22.5103C50.3678 22.4618 50.3613 22.4123 50.3613 22.3624C50.3605 22.2711 50.3815 22.1806 50.4226 22.0977C50.4637 22.0148 50.5239 21.9413 50.599 21.8825C50.6145 21.8702 50.6306 21.8594 50.6468 21.8484L52.4495 20.5738L52.5047 20.534C52.5516 20.4949 52.589 20.4468 52.6144 20.3931C52.6398 20.3394 52.6526 20.2814 52.6519 20.2228C52.6528 20.1249 52.6155 20.03 52.547 19.9557C52.4785 19.8815 52.3835 19.8331 52.2794 19.8192Z" fill="#FECE4D"/>
<path d="M64.0519 19.8192H61.7068V19.8149C61.5767 19.8133 61.4503 19.7745 61.3449 19.7034C61.2395 19.6324 61.1603 19.5329 61.118 19.4183C61.1107 19.4009 61.1045 19.3829 61.0996 19.3648L60.4113 17.3088L60.3937 17.2573C60.3642 17.1796 60.3087 17.1128 60.2354 17.0666C60.1621 17.0203 60.0748 16.997 59.9864 17.0003C59.8979 17.0036 59.8129 17.0334 59.7438 17.085C59.6747 17.1365 59.6251 17.2071 59.6024 17.2867L58.9061 19.3571C58.9062 19.3582 58.9062 19.3596 58.9061 19.3608C58.9005 19.3824 58.8934 19.4036 58.8847 19.4244C58.8416 19.5379 58.7619 19.6364 58.6566 19.7064C58.5512 19.7764 58.4253 19.8144 58.2959 19.8155V19.8199H55.9486C55.8464 19.8364 55.7539 19.8864 55.6878 19.9608C55.6217 20.0352 55.5863 20.1289 55.5879 20.2255C55.5872 20.2879 55.6017 20.3498 55.6304 20.4062C55.6591 20.4626 55.7012 20.512 55.7536 20.551L55.7727 20.5654L57.5952 21.8571C57.7022 21.9296 57.784 22.0298 57.8305 22.1452C57.8769 22.2606 57.886 22.3862 57.8565 22.5063C57.8485 22.541 57.8372 22.5749 57.8226 22.6077L57.1315 24.6747V24.682L57.1256 24.6971C57.1144 24.7353 57.1087 24.775 57.1086 24.8145C57.107 24.8673 57.1166 24.9195 57.1368 24.9688C57.1571 25.0181 57.1877 25.0634 57.2267 25.1017C57.2658 25.1399 57.3126 25.1704 57.3645 25.1917C57.4164 25.213 57.4723 25.2244 57.5289 25.2255C57.6026 25.2258 57.6749 25.2076 57.738 25.1723L57.8116 25.1214L59.6208 23.8435L59.6606 23.8147C59.7609 23.7499 59.8798 23.7147 60.0018 23.7136C60.1239 23.7125 60.2434 23.7454 60.3451 23.8083C60.3677 23.8215 60.3892 23.8363 60.4091 23.8528L62.2081 25.1261L62.2589 25.1626C62.325 25.2012 62.4016 25.2214 62.4797 25.2208C62.5362 25.2195 62.592 25.208 62.6438 25.1866C62.6955 25.1653 62.7422 25.1345 62.7812 25.0963C62.8201 25.0581 62.8506 25.013 62.8709 24.9638C62.8912 24.9146 62.9008 24.8622 62.8992 24.8095C62.8995 24.7682 62.893 24.7273 62.8801 24.6877C62.8801 24.6816 62.8757 24.6745 62.8735 24.6676L62.1794 22.5933C62.1678 22.5664 62.1587 22.5386 62.1521 22.5103C62.1395 22.4618 62.1331 22.4123 62.133 22.3624C62.1323 22.2711 62.1532 22.1806 62.1943 22.0977C62.2354 22.0148 62.2956 21.9413 62.3707 21.8825C62.3862 21.8702 62.4024 21.8594 62.4186 21.8484L64.2212 20.5738L64.2756 20.534C64.3226 20.4949 64.36 20.4468 64.3854 20.3931C64.4108 20.3394 64.4236 20.2814 64.4229 20.2228C64.4238 20.1251 64.3868 20.0303 64.3186 19.9561C64.2504 19.8819 64.1556 19.8334 64.0519 19.8192Z" fill="#FECE4D"/>
</g>
<defs>
<clipPath id="clip0_2075_4548">
<rect width="50" height="50" fill="white" transform="translate(17 17)"/>
</clipPath>
</defs>
</svg>
