<svg width="84" height="84" viewBox="0 0 84 84" fill="none" xmlns="http://www.w3.org/2000/svg">
<path d="M76.9607 0H7.03934C3.15162 0 0 3.15162 0 7.03934V76.9607C0 80.8484 3.15162 84 7.03934 84H76.9607C80.8484 84 84 80.8484 84 76.9607V7.03934C84 3.15162 80.8484 0 76.9607 0Z" fill="#092349"/>
<path d="M25.7219 28.0408H51.6307L56.0978 63.7771H21.2549L25.7219 28.0408Z" fill="#9FC0FF"/>
<path d="M51.6289 28.0743L57.4361 25.8408L61.9031 61.5771L56.0959 63.8106L51.6289 28.0743Z" fill="#3D7FFC"/>
<path d="M31.5327 25.8408H57.4415L51.6344 28.0743H25.7256L31.5327 25.8408Z" fill="#C6DBFF"/>
<path d="M32.4218 34.7623C32.2729 29.5508 33.4939 19.1277 39.569 19.1277C45.6442 19.1277 46.27 29.5508 45.8235 34.7623" stroke="#FECE4D" stroke-width="2"/>
</svg>
