<svg width="84" height="84" viewBox="0 0 84 84" fill="none" xmlns="http://www.w3.org/2000/svg">
<path d="M76.9607 0H7.03934C3.15162 0 0 3.15162 0 7.03934V76.9607C0 80.8484 3.15162 84 7.03934 84H76.9607C80.8484 84 84 80.8484 84 76.9607V7.03934C84 3.15162 80.8484 0 76.9607 0Z" fill="#092349"/>
<path d="M22.8848 26.1507C22.8848 25.2008 23.1665 24.2722 23.6942 23.4824C24.222 22.6926 24.972 22.077 25.8496 21.7135C26.7272 21.35 27.6929 21.2549 28.6246 21.4402C29.5562 21.6255 30.4121 22.0829 31.0837 22.7546C31.7554 23.4263 32.2128 24.2821 32.3981 25.2137C32.5835 26.1454 32.4884 27.1111 32.1249 27.9887C31.7613 28.8663 31.1458 29.6164 30.3559 30.1442C29.5661 30.6719 28.6375 30.9536 27.6876 30.9536C27.0568 30.954 26.432 30.8301 25.8491 30.5889C25.2662 30.3477 24.7365 29.994 24.2905 29.5479C23.8444 29.1018 23.4906 28.5722 23.2494 27.9893C23.0082 27.4063 22.8843 26.7816 22.8848 26.1507Z" fill="#FECE4D"/>
<path d="M66.1147 61.3899V48.6533L57.3645 33.6617C57.0525 33.1275 56.6112 32.6854 56.0835 32.3784C55.5558 32.0715 54.9597 31.9102 54.3532 31.9102C53.7468 31.9102 53.1507 32.0715 52.623 32.3784C52.0953 32.6854 51.654 33.1275 51.342 33.6617L34.416 62.6483H64.8935C65.2178 62.6473 65.5284 62.5142 65.7573 62.2783C65.9862 62.0424 66.1147 61.7229 66.1147 61.3899Z" fill="#9FC0FF"/>
<path d="M29.0844 43.235L18.2146 61.2983C18.1328 61.434 18.0887 61.5891 18.087 61.7475C18.0852 61.9059 18.1258 62.0619 18.2047 62.1994C18.2835 62.3369 18.3977 62.451 18.5355 62.5299C18.6733 62.6088 18.8297 62.6497 18.9886 62.6483H46.9039L35.1984 43.235C34.8804 42.7104 34.4319 42.2765 33.8963 41.9753C33.3608 41.6741 32.7563 41.5159 32.1414 41.5159C31.5265 41.5159 30.922 41.6741 30.3864 41.9753C29.8509 42.2765 29.4024 42.7104 29.0844 43.235Z" fill="#C6DBFF"/>
</svg>
