<svg width="84" height="84" viewBox="0 0 84 84" fill="none" xmlns="http://www.w3.org/2000/svg">
<path d="M76.9607 0H7.03934C3.15162 0 0 3.15162 0 7.03934V76.9607C0 80.8484 3.15162 84 7.03934 84H76.9607C80.8484 84 84 80.8484 84 76.9607V7.03934C84 3.15162 80.8484 0 76.9607 0Z" fill="#092349"/>
<g clip-path="url(#clip0_2076_4617)">
<circle cx="41.3152" cy="41.8431" r="21.6482" fill="#E2EDFF"/>
<path fill-rule="evenodd" clip-rule="evenodd" d="M57.9189 29.812C57.9189 29.812 64.9011 29.812 65.135 29.812C65.3689 29.812 65.9367 29.812 65.9367 29.812C65.9367 29.812 65.9368 30.4049 65.9368 30.6138C65.9368 30.8227 65.9368 34.2218 65.9368 34.2218V37.8299H64.3332V32.5495L45.4912 51.3915L34.2662 40.1665L19.1983 55.2343L18.0645 54.1004L34.2662 37.8987L45.4912 49.1237L63.1993 31.4156H57.9189V29.812Z" fill="#3D7FFC"/>
<path fill-rule="evenodd" clip-rule="evenodd" d="M57.9186 28.6094H67.139L67.1391 39.0326H63.1302V35.453L45.4909 53.0923L34.2659 41.8673L19.198 56.9352L16.3633 54.1005L34.2659 36.1979L45.4909 47.4229L60.2955 32.6183H56.7159V28.6094H57.9186Z" fill="#3D7FFC"/>
</g>
<defs>
<clipPath id="clip0_2076_4617">
<rect width="50" height="50" fill="white" transform="translate(17 17)"/>
</clipPath>
</defs>
</svg>
