<svg width="84" height="84" viewBox="0 0 84 84" fill="none" xmlns="http://www.w3.org/2000/svg">
<path d="M76.9607 0H7.03934C3.15162 0 0 3.15162 0 7.03934V76.9607C0 80.8484 3.15162 84 7.03934 84H76.9607C80.8484 84 84 80.8484 84 76.9607V7.03934C84 3.15162 80.8484 0 76.9607 0Z" fill="#092349"/>
<g clip-path="url(#clip0_2076_4522)">
<path d="M23.0467 21.9823C20.6691 24.3599 19.05 27.3891 18.394 30.687C17.7381 33.9848 18.0748 37.4031 19.3615 40.5095C20.6483 43.616 22.8273 46.2711 25.6231 48.1392C28.4188 50.0072 31.7058 51.0043 35.0682 51.0043C38.4306 51.0043 41.7175 50.0072 44.5133 48.1392C47.309 46.2711 49.4881 43.616 50.7748 40.5095C52.0616 37.4031 52.3983 33.9848 51.7423 30.687C51.0864 27.3891 49.4673 24.3599 47.0897 21.9823C45.511 20.4035 43.6369 19.1512 41.5742 18.2968C39.5116 17.4424 37.3008 17.0027 35.0682 17.0027C32.8356 17.0027 30.6248 17.4424 28.5622 18.2968C26.4995 19.1512 24.6253 20.4035 23.0467 21.9823ZM44.775 43.7106C42.8549 45.6318 40.4082 46.9403 37.7444 47.4708C35.0806 48.0013 32.3192 47.7298 29.8097 46.6907C27.3001 45.6517 25.1551 43.8917 23.6459 41.6334C22.1368 39.3751 21.3312 36.7199 21.3312 34.0038C21.3312 31.2876 22.1368 28.6325 23.6459 26.3742C25.1551 24.1159 27.3001 22.3559 29.8097 21.3169C32.3192 20.2778 35.0806 20.0063 37.7444 20.5368C40.4082 21.0673 42.8549 22.3758 44.775 24.297C47.3484 26.8719 48.7941 30.3634 48.7941 34.0038C48.7941 37.6442 47.3484 41.1357 44.775 43.7106Z" fill="#3D7FFC"/>
<path d="M48.7389 43.9781L45.04 47.677L46.4271 49.0641L50.126 45.3652L48.7389 43.9781Z" fill="#FECE4D"/>
<path d="M50.5904 44.9201L45.9668 49.5437L57.9882 61.5651L62.6118 56.9415L50.5904 44.9201Z" fill="#C6DBFF"/>
<path d="M50.5914 44.9158L49.667 45.8408L61.6926 57.858L62.617 56.9329L50.5914 44.9158Z" fill="#C6DBFF"/>
<path d="M59.3828 62.9579L60.769 64.3441C61.3821 64.957 62.2136 65.3013 63.0805 65.3013C63.9474 65.3013 64.7788 64.957 65.3919 64.3441C66.0048 63.731 66.3492 62.8996 66.3492 62.0326C66.3492 61.1657 66.0048 60.3343 65.3919 59.7212L64.0057 58.335L59.3828 62.9579Z" fill="#C6DBFF"/>
<path d="M62.6148 56.9462L57.9912 61.5698L59.3783 62.9569L64.0019 58.3333L62.6148 56.9462Z" fill="#C6DBFF"/>
<path d="M24.9301 23.8326C22.918 25.8443 21.5477 28.4075 20.9924 31.1981C20.4372 33.9886 20.7219 36.8811 21.8106 39.5099C22.8993 42.1386 24.7431 44.3854 27.1088 45.9662C29.4745 47.547 32.2559 48.3907 35.1011 48.3907C37.9464 48.3907 40.7277 47.547 43.0934 45.9662C45.4591 44.3854 47.3029 42.1386 48.3916 39.5099C49.4804 36.8811 49.7651 33.9886 49.2098 31.1981C48.6546 28.4075 47.2843 25.8443 45.2722 23.8326C42.5745 21.1354 38.9159 19.6201 35.1011 19.6201C31.2863 19.6201 27.6278 21.1354 24.9301 23.8326ZM44.8079 43.7105C42.8879 45.6316 40.4412 46.9402 37.7773 47.4707C35.1135 48.0011 32.3522 47.7297 29.8426 46.6906C27.3331 45.6515 25.188 43.8915 23.6789 41.6332C22.1697 39.3749 21.3642 36.7198 21.3642 34.0037C21.3642 31.2875 22.1697 28.6324 23.6789 26.3741C25.188 24.1158 27.3331 22.3558 29.8426 21.3167C32.3522 20.2777 35.1135 20.0062 37.7773 20.5366C40.4412 21.0671 42.8879 22.3757 44.8079 24.2968C47.377 26.8761 48.8168 30.37 48.8107 34.0104C48.8045 37.6509 47.353 41.1399 44.7752 43.7105H44.8079Z" fill="#3D7FFC"/>
</g>
<defs>
<clipPath id="clip0_2076_4522">
<rect width="48.9362" height="48.9362" fill="white" transform="translate(18.0635 17)"/>
</clipPath>
</defs>
</svg>
