<svg width="84" height="84" viewBox="0 0 84 84" fill="none" xmlns="http://www.w3.org/2000/svg">
<path d="M76.9607 0H7.03934C3.15162 0 0 3.15162 0 7.03934V76.9607C0 80.8484 3.15162 84 7.03934 84H76.9607C80.8484 84 84 80.8484 84 76.9607V7.03934C84 3.15162 80.8484 0 76.9607 0Z" fill="#092349"/>
<g clip-path="url(#clip0_2076_4720)">
<rect x="17" y="22.3191" width="50.1367" height="32.5449" rx="3.30726" fill="#C6DBFF"/>
<path d="M27.5523 46.3499L45.0918 46.3499L45.0918 43.5319L27.5523 43.5319L27.5523 46.3499Z" fill="#3D7FFC"/>
<path d="M27.5523 33.0391L39.4619 33.0391L39.4619 30.0616L27.5523 30.0616L27.5523 33.0391Z" fill="#FECE4D"/>
<path d="M27.5545 39.5811L56.582 39.5811L56.582 36.7631L27.5545 36.7631L27.5545 39.5811Z" fill="#3D7FFC"/>
<path d="M17.0009 61.6809L17.0013 52.2253L32.998 52.2253L17.0009 61.6809Z" fill="#C6DBFF"/>
</g>
<defs>
<clipPath id="clip0_2076_4720">
<rect width="50" height="50" fill="white" transform="translate(17 17)"/>
</clipPath>
</defs>
</svg>
