<svg width="47" height="48" viewBox="0 0 47 48" fill="none" xmlns="http://www.w3.org/2000/svg">
<g clip-path="url(#clip0_2012_4913)">
<path fill-rule="evenodd" clip-rule="evenodd" d="M46.29 3.65914C46.39 3.37914 46.15 3.09914 45.86 3.14914L32.93 5.28914C32.63 5.33914 32.5 5.68914 32.7 5.91914L35.84 9.63914L24.13 20.9391L18.37 13.5591C18.06 13.1591 17.58 12.9091 17.07 12.8891C16.56 12.8691 16.07 13.0691 15.72 13.4491L2.04004 28.3391L4.60004 30.6891L16.89 17.3191L22.58 24.6091C22.88 24.9991 23.34 25.2391 23.83 25.2691C24.32 25.2991 24.81 25.1291 25.16 24.7891L38.09 12.3091L41.35 16.1691C41.54 16.3991 41.91 16.3291 42.01 16.0491L46.29 3.65914Z" fill="#FECE4D"/>
<path d="M38.9901 17.7792L37.4601 15.9592L34.5601 18.7592V41.9892C34.5601 42.8392 35.2501 43.5392 36.1101 43.5392H45.0201C45.8701 43.5392 46.5701 42.8492 46.5701 41.9892V15.0892C46.5701 14.2592 45.9101 13.5792 45.0901 13.5492L43.9401 16.8692C43.2101 18.9892 40.4501 19.4992 39.0101 17.7892L38.9901 17.7792Z" fill="#3D7FFC"/>
<path d="M26.4501 26.5892C25.5901 27.4192 24.4101 27.8492 23.2101 27.7692C22.0101 27.6892 20.9001 27.0992 20.1701 26.1492L18.3101 23.7692C17.8601 24.0392 17.5601 24.5292 17.5601 25.0892V41.9992C17.5601 42.8492 18.2501 43.5492 19.1101 43.5492H28.0201C28.8701 43.5492 29.5701 42.8592 29.5701 41.9992V25.0892C29.5701 24.6692 29.4001 24.2892 29.1301 24.0092L26.4601 26.5892H26.4501Z" fill="#76A5FF"/>
<path d="M4.27 33.1892C3.61 33.2192 2.96 32.9792 2.47 32.5292L1.68 31.8092C1.27 32.0892 1 32.5592 1 33.0892V41.9992C1 42.8492 1.69 43.5492 2.55 43.5492H11.46C12.31 43.5492 13.01 42.8592 13.01 41.9992V33.0892C13.01 32.2392 12.32 31.5392 11.46 31.5392H6.78L6.01 32.3792C5.56 32.8692 4.94 33.1592 4.27 33.1892Z" fill="#C6DBFF"/>
</g>
<defs>
<clipPath id="clip0_2012_4913">
<rect width="45.56" height="40.39" fill="white" transform="translate(1 3.14917)"/>
</clipPath>
</defs>
</svg>
