<svg width="589" height="577" viewBox="0 0 589 577" fill="none" xmlns="http://www.w3.org/2000/svg">
<g style="mix-blend-mode:screen" opacity="0.8" filter="url(#filter0_f_6376_26315)">
<ellipse cx="151" cy="298" rx="63" ry="87" fill="#9E98FC"/>
</g>
<g clip-path="url(#clip0_6376_26315)">
<g filter="url(#filter1_d_6376_26315)">
<g filter="url(#filter2_d_6376_26315)">
<path d="M71.6484 204.769H279.192V325.183C279.192 327.887 277.001 330.078 274.297 330.078H76.5433C73.8399 330.078 71.6484 327.887 71.6484 325.183V204.769Z" fill="url(#paint0_linear_6376_26315)"/>
</g>
<path d="M191.718 217.495H105.912V220.991H191.718V217.495Z" fill="#0B88CD"/>
<path d="M228.919 293.856H143.113V297.352H228.919V293.856Z" fill="#FFC0E0"/>
<path d="M94.0094 217.495H88.3828V220.991H94.0094V217.495Z" fill="white" fill-opacity="0.2"/>
<path d="M94.0094 293.856H88.3828V297.352H94.0094V293.856Z" fill="#FFC0E0"/>
<path d="M222.018 225.188H136.213V228.684H222.018V225.188Z" fill="#FFC0E0"/>
<path d="M257.26 301.548H171.455V305.044H257.26V301.548Z" fill="#FFC0E0"/>
<path d="M244.524 225.188H227.645V228.684H244.524V225.188Z" fill="#0B88CD"/>
<path d="M167.825 301.548H150.945V305.044H167.825V301.548Z" fill="#B431D2"/>
<path d="M167.159 232.879H136.213V236.375H167.159V232.879Z" fill="#B431D2"/>
<path d="M153.503 309.24H122.557V312.736H153.503V309.24Z" fill="#FFC0E0"/>
<path d="M196.696 232.879H174.189V236.375H196.696V232.879Z" fill="#0B88CD"/>
<path d="M183.038 309.24H160.531V312.736H183.038V309.24Z" fill="#0B88CD"/>
<path d="M236.081 232.879H203.729V236.375H236.081V232.879Z" fill="#FFC0E0"/>
<path d="M222.425 309.24H190.072V312.736H222.425V309.24Z" fill="#FFC0E0"/>
<path d="M227.635 240.571H165.742V244.067H227.635V240.571Z" fill="#FFC0E0"/>
<path d="M264.957 316.932H203.064V320.428H264.957V316.932Z" fill="#FFC0E0"/>
<path d="M158.714 240.571H148.867V244.067H158.714V240.571Z" fill="#0B88CD"/>
<path d="M196.036 316.932H186.189V320.428H196.036V316.932Z" fill="#0B88CD"/>
<path d="M196.814 248.264H148.988V251.76H196.814V248.264Z" fill="#FFC0E0"/>
<path d="M94.0094 225.188H88.3828V228.684H94.0094V225.188Z" fill="white" fill-opacity="0.2"/>
<path d="M94.0094 301.548H88.3828V305.044H94.0094V301.548Z" fill="#FFC0E0"/>
<path d="M94.0094 232.879H88.3828V236.375H94.0094V232.879Z" fill="white" fill-opacity="0.2"/>
<path d="M94.0094 309.24H88.3828V312.736H94.0094V309.24Z" fill="#FFC0E0"/>
<path d="M94.0094 240.572H88.3828V244.068H94.0094V240.572Z" fill="white" fill-opacity="0.2"/>
<path d="M94.0094 316.932H88.3828V320.428H94.0094V316.932Z" fill="#FFC0E0"/>
<path d="M94.0094 248.263H88.3828V251.759H94.0094V248.263Z" fill="#FFC0E0"/>
<path d="M218.151 255.676H132.346V259.172H218.151V255.676Z" fill="#0B88CD"/>
<path d="M94.0094 255.676H88.3828V259.172H94.0094V255.676Z" fill="#FFC0E0"/>
<path d="M222.018 263.368H136.213V266.864H222.018V263.368Z" fill="#FFC0E0"/>
<path d="M244.524 263.368H227.645V266.864H244.524V263.368Z" fill="#B431D2"/>
<path d="M167.159 271.06H136.213V274.556H167.159V271.06Z" fill="#B431D2"/>
<path d="M196.696 271.06H174.189V274.556H196.696V271.06Z" fill="#0B88CD"/>
<path d="M236.081 271.06H203.729V274.556H236.081V271.06Z" fill="#FFC0E0"/>
<path d="M227.635 278.751H165.742V282.247H227.635V278.751Z" fill="#FFC0E0"/>
<path d="M158.714 278.751H148.867V282.247H158.714V278.751Z" fill="#0B88CD"/>
<path d="M162.931 286.443H115.105V289.939H162.931V286.443Z" fill="#FFC0E0"/>
<path d="M94.0094 263.368H88.3828V266.864H94.0094V263.368Z" fill="#FFC0E0"/>
<path d="M94.0094 271.06H88.3828V274.556H94.0094V271.06Z" fill="#FFC0E0"/>
<path d="M94.0094 278.752H88.3828V282.248H94.0094V278.752Z" fill="#FFC0E0"/>
<path d="M94.0094 286.444H88.3828V289.94H94.0094V286.444Z" fill="#FFC0E0"/>
<g filter="url(#filter3_bd_6376_26315)">
<path d="M71.6484 198.895C71.6484 196.192 73.8399 194 76.5433 194H274.297C277.001 194 279.192 196.192 279.192 198.895V204.769H71.6484V198.895Z" fill="url(#paint1_linear_6376_26315)"/>
</g>
<path d="M81.6192 199.438C81.6202 199.842 81.5009 200.237 81.2765 200.574C81.0521 200.91 80.7326 201.172 80.3584 201.328C79.9843 201.483 79.5724 201.524 79.1748 201.446C78.7773 201.368 78.4119 201.174 78.125 200.888C77.8381 200.603 77.6426 200.239 77.5632 199.843C77.4837 199.447 77.524 199.036 77.6789 198.662C77.8337 198.289 78.0962 197.969 78.4331 197.745C78.7699 197.52 79.1661 197.4 79.5713 197.4C80.1124 197.404 80.6303 197.62 81.0134 198.001C81.3965 198.382 81.6141 198.898 81.6192 199.438Z" fill="white"/>
<path d="M90.2364 199.438C90.2374 199.842 90.118 200.238 89.8933 200.575C89.6687 200.911 89.3489 201.174 88.9745 201.329C88.6001 201.484 88.1879 201.525 87.7902 201.446C87.3925 201.368 87.0271 201.173 86.7404 200.887C86.4537 200.601 86.2586 200.237 86.1797 199.84C86.1009 199.444 86.1418 199.033 86.2975 198.659C86.4531 198.286 86.7163 197.967 87.0538 197.743C87.3914 197.519 87.788 197.4 88.1934 197.401C88.4621 197.4 88.7283 197.451 88.9768 197.553C89.2253 197.655 89.451 197.805 89.641 197.995C89.8309 198.184 89.9814 198.409 90.0836 198.657C90.1858 198.905 90.2377 199.17 90.2364 199.438Z" fill="white"/>
<path d="M99.0606 199.438C99.0616 199.842 98.9423 200.238 98.7179 200.574C98.4935 200.91 98.174 201.173 97.7999 201.328C97.4257 201.484 97.0138 201.525 96.6162 201.446C96.2187 201.368 95.8533 201.174 95.5664 200.889C95.2795 200.603 95.084 200.24 95.0046 199.843C94.9251 199.447 94.9654 199.036 95.1203 198.663C95.2751 198.289 95.5376 197.97 95.8745 197.745C96.2114 197.521 96.6075 197.401 97.0127 197.401C97.5538 197.405 98.0717 197.62 98.4548 198.002C98.8379 198.383 99.0555 198.899 99.0606 199.438Z" fill="white"/>
</g>
<path d="M22.9473 275.827C22.9473 271.901 26.13 268.718 30.0561 268.718H229.044V380.691H22.9473V275.827Z" fill="white" stroke="#D2DCE4" stroke-width="0.779869"/>
<path d="M226.06 291.874C226.06 291.045 225.389 290.374 224.56 290.374C223.732 290.374 223.061 291.045 223.061 291.874V303.872C223.061 304.7 223.732 305.371 224.56 305.371C225.389 305.371 226.06 304.7 226.06 303.872V291.874Z" fill="#D2DCE4"/>
<mask id="mask0_6376_26315" style="mask-type:alpha" maskUnits="userSpaceOnUse" x="21" y="267" width="200" height="115">
<path d="M220.609 267.348H21.5762V381.081H220.609V267.348Z" fill="#D9D9D9"/>
</mask>
<g mask="url(#mask0_6376_26315)">
<path d="M22.0919 282.875L22.0918 267.877H37.0893V282.875H22.0919Z" fill="white" stroke="#D2DCE4" stroke-width="0.774263"/>
<path d="M22.0919 297.863L22.0918 282.865H37.0893V297.863H22.0919Z" fill="white" stroke="#D2DCE4" stroke-width="0.774263"/>
<path d="M22.0919 357.856L22.0918 342.859H37.0893V357.856H22.0919Z" fill="white" stroke="#D2DCE4" stroke-width="0.774263"/>
<path d="M22.0919 327.866L22.0918 312.869H37.0893V327.866H22.0919Z" fill="white" stroke="#D2DCE4" stroke-width="0.774263"/>
<path d="M22.0919 387.846L22.0918 372.849H37.0893V387.846H22.0919Z" fill="white" stroke="#D2DCE4" stroke-width="0.774263"/>
<path d="M22.0919 312.865L22.0918 297.867H37.0893V312.865H22.0919Z" fill="white" stroke="#D2DCE4" stroke-width="0.774263"/>
<path d="M22.0919 372.858L22.0918 357.861H37.0893V372.858H22.0919Z" fill="white" stroke="#D2DCE4" stroke-width="0.774263"/>
<path d="M22.0919 342.854L22.0918 327.857H37.0893V342.854H22.0919Z" fill="white" stroke="#D2DCE4" stroke-width="0.774263"/>
<path d="M27.7037 293.671V289.445H25.9824V290.125H26.7481V293.671H27.7037ZM32.1495 293.671V292.906H30.1893L31.0653 292.115C31.4022 291.815 31.9535 291.374 31.9535 290.633C31.9535 289.892 31.3715 289.383 30.4159 289.383C29.4604 289.383 28.9397 289.953 28.8846 290.082L29.3011 290.731C29.5339 290.437 29.9014 290.161 30.3241 290.161C30.7406 290.161 31.004 290.394 31.004 290.756C31.004 291.117 30.7651 291.393 30.3669 291.754L28.9336 293.047L29.0499 293.671H32.1495Z" fill="#303B45"/>
<path d="M27.7037 353.665V349.438H25.9824V350.118H26.7481V353.665H27.7037ZM32.174 352.226C32.174 351.392 31.5308 350.933 30.8754 350.933C30.2199 350.933 29.9259 351.239 29.8095 351.368C29.8095 350.902 29.9688 350.553 30.1464 350.376C30.3118 350.216 30.4956 350.124 30.7712 350.124C31.1143 350.124 31.4757 350.278 31.6778 350.437L32.0392 349.788C31.7329 349.573 31.3042 349.377 30.7283 349.377C30.1709 349.377 29.7605 349.555 29.4359 349.898C29.0867 350.259 28.8723 350.847 28.8723 351.607C28.8723 352.287 29.0254 352.734 29.2337 353.028C29.4542 353.347 29.883 353.732 30.5936 353.732C31.5798 353.732 32.174 353.059 32.174 352.226ZM31.2368 352.293C31.2368 352.667 30.9917 352.991 30.563 352.991C30.128 352.991 29.8769 352.667 29.8769 352.293C29.8769 351.925 30.128 351.595 30.563 351.595C30.9917 351.595 31.2368 351.925 31.2368 352.293Z" fill="#303B45"/>
<path d="M27.7037 323.675V319.449H25.9824V320.129H26.7481V323.675H27.7037ZM32.2842 322.83V322.064H31.7207V319.436H30.6242L28.7069 322.107V322.83H30.7651V323.675H31.7207V322.83H32.2842ZM30.7896 322.083H29.6074L30.7896 320.447V322.083Z" fill="#303B45"/>
<path d="M27.7037 383.655V379.428H25.9824V380.108H26.7481V383.655H27.7037ZM32.1066 382.461C32.1066 381.946 31.8064 381.597 31.347 381.456V381.438C31.6533 381.333 31.9841 381.082 31.9841 380.531C31.9841 379.765 31.2919 379.367 30.4895 379.367C29.6809 379.367 28.9887 379.765 28.9887 380.531C28.9887 381.076 29.3256 381.327 29.6319 381.438V381.45C29.1663 381.597 28.8723 381.946 28.8723 382.461C28.8723 383.3 29.6074 383.722 30.4895 383.722C31.3715 383.722 32.1066 383.3 32.1066 382.461ZM31.0469 380.604C31.0469 380.929 30.8141 381.113 30.4895 381.113C30.1587 381.113 29.932 380.929 29.932 380.604C29.932 380.274 30.1587 380.09 30.4895 380.09C30.8141 380.09 31.0469 380.274 31.0469 380.604ZM31.1449 382.369C31.1449 382.748 30.8509 382.969 30.4895 382.969C30.128 382.969 29.834 382.748 29.834 382.369C29.834 381.989 30.1158 381.768 30.4895 381.768C30.857 381.768 31.1449 381.989 31.1449 382.369Z" fill="#303B45"/>
<path d="M27.7037 308.367V304.141H25.9824V304.82H26.7481V308.367H27.7037ZM32.0637 307.13C32.0637 306.579 31.6778 306.242 31.3225 306.15V306.131C31.6043 306.015 31.929 305.77 31.929 305.206C31.929 304.496 31.2245 304.079 30.4588 304.079C29.687 304.079 29.295 304.349 29.0009 304.606L29.3685 305.231C29.7115 304.955 30.0423 304.82 30.3792 304.82C30.7161 304.82 30.9917 304.986 30.9917 305.317C30.9917 305.647 30.759 305.813 30.4282 305.813H30.0545V306.505H30.4282C30.808 306.505 31.102 306.701 31.102 307.075C31.102 307.454 30.7774 307.669 30.3608 307.669C29.9504 307.669 29.4971 307.35 29.3256 307.142L28.8723 307.73C29.0193 307.945 29.54 308.435 30.4159 308.435C31.2858 308.435 32.0637 307.975 32.0637 307.13Z" fill="#303B45"/>
<path d="M27.7037 368.361V364.134H25.9824V364.814H26.7481V368.361H27.7037ZM32.223 364.722L31.9535 364.134H28.9397V364.894H31.1571L29.3011 368.361H30.3424L32.223 364.722Z" fill="#303B45"/>
<path d="M27.7037 338.357V334.13H25.9824V334.81H26.7481V338.357H27.7037ZM32.0944 336.942C32.0944 335.962 31.2613 335.558 30.6181 335.558C30.3424 335.558 30.1832 335.594 30.0545 335.649L30.177 334.89H31.9351V334.13H29.4604L29.1357 336.195L29.5645 336.452C29.7544 336.317 30.0607 336.231 30.3363 336.231C30.7161 336.231 31.1326 336.44 31.1326 336.942C31.1326 337.45 30.6977 337.659 30.3363 337.659C29.9749 337.659 29.5339 337.475 29.3011 337.15L28.8478 337.732C29.0438 338.038 29.5584 338.424 30.4037 338.424C31.2429 338.424 32.0944 337.928 32.0944 336.942Z" fill="#303B45"/>
<path d="M37.0879 267.877V282.875H77.5811V267.877H37.0879Z" fill="white" stroke="#D2DCE4" stroke-width="0.774263"/>
<path d="M77.5898 267.877V282.875H119.583V267.877H77.5898Z" fill="white" stroke="#D2DCE4" stroke-width="0.774263"/>
<path d="M119.58 267.877V282.875H161.573V267.877H119.58Z" fill="white" stroke="#D2DCE4" stroke-width="0.774263"/>
<path d="M161.566 267.877V282.875H203.559V267.877H161.566Z" fill="white" stroke="#D2DCE4" stroke-width="0.774263"/>
<path d="M203.561 267.877V282.875H244.054V267.877H203.561Z" fill="white" stroke="#D2DCE4" stroke-width="0.774263"/>
<path d="M37.0879 297.866V312.864H77.5811V297.866H37.0879Z" fill="#D2DCE4" fill-opacity="0.5" stroke="#D2DCE4" stroke-width="0.774263"/>
<path d="M37.0879 327.856V342.854H77.5811V327.856H37.0879Z" fill="#D2DCE4" fill-opacity="0.5" stroke="#D2DCE4" stroke-width="0.774263"/>
<path d="M37.0879 357.86V372.858H77.5811V357.86H37.0879Z" fill="#D2DCE4" fill-opacity="0.5" stroke="#D2DCE4" stroke-width="0.774263"/>
<path d="M77.5898 297.866V312.864H119.583V297.866H77.5898Z" fill="#D2DCE4" fill-opacity="0.5" stroke="#D2DCE4" stroke-width="0.774263"/>
<path d="M77.5898 327.856V342.854H119.583V327.856H77.5898Z" fill="#D2DCE4" fill-opacity="0.5" stroke="#D2DCE4" stroke-width="0.774263"/>
<path d="M77.5898 357.86V372.858H119.583V357.86H77.5898Z" fill="#D2DCE4" fill-opacity="0.5" stroke="#D2DCE4" stroke-width="0.774263"/>
<path d="M119.58 297.866V312.864H161.573V297.866H119.58Z" fill="#D2DCE4" fill-opacity="0.5" stroke="#D2DCE4" stroke-width="0.774263"/>
<path d="M119.58 327.856V342.854H161.573V327.856H119.58Z" fill="#D2DCE4" fill-opacity="0.5" stroke="#D2DCE4" stroke-width="0.774263"/>
<path d="M119.58 357.86V372.858H161.573V357.86H119.58Z" fill="#D2DCE4" fill-opacity="0.5" stroke="#D2DCE4" stroke-width="0.774263"/>
<path d="M161.566 297.867V312.865H203.559V297.867H161.566Z" fill="#D2DCE4" fill-opacity="0.5" stroke="#D2DCE4" stroke-width="0.774263"/>
<path d="M161.566 327.857V342.855H203.559V327.857H161.566Z" fill="#D2DCE4" fill-opacity="0.5" stroke="#D2DCE4" stroke-width="0.774263"/>
<path d="M161.566 357.861V372.859H203.559V357.861H161.566Z" fill="#D2DCE4" fill-opacity="0.5" stroke="#D2DCE4" stroke-width="0.774263"/>
<path d="M203.561 297.867V312.865H244.054V297.867H203.561Z" fill="#D2DCE4" fill-opacity="0.5" stroke="#D2DCE4" stroke-width="0.774263"/>
<path d="M203.561 327.857V342.855H244.054V327.857H203.561Z" fill="#D2DCE4" fill-opacity="0.5" stroke="#D2DCE4" stroke-width="0.774263"/>
<path d="M203.561 357.861V372.859H244.054V357.861H203.561Z" fill="#D2DCE4" fill-opacity="0.5" stroke="#D2DCE4" stroke-width="0.774263"/>
<path d="M37.0879 282.865V297.863H77.5811V282.865H37.0879Z" fill="white" stroke="#D2DCE4" stroke-width="0.774263"/>
<path d="M37.0879 312.868V327.866H77.5811V312.868H37.0879Z" fill="white" stroke="#D2DCE4" stroke-width="0.774263"/>
<path d="M37.0879 342.858V357.856H77.5811V342.858H37.0879Z" fill="white" stroke="#D2DCE4" stroke-width="0.774263"/>
<path d="M37.0879 372.848V387.846H77.5811V372.848H37.0879Z" fill="white" stroke="#D2DCE4" stroke-width="0.774263"/>
<path d="M77.5898 282.865V297.863H119.583V282.865H77.5898Z" fill="white" stroke="#D2DCE4" stroke-width="0.774263"/>
<path d="M77.5898 312.868V327.866H119.583V312.868H77.5898Z" fill="white" stroke="#D2DCE4" stroke-width="0.774263"/>
<path d="M77.5898 342.858V357.856H119.583V342.858H77.5898Z" fill="white" stroke="#D2DCE4" stroke-width="0.774263"/>
<path d="M77.5898 372.848V387.846H119.583V372.848H77.5898Z" fill="white" stroke="#D2DCE4" stroke-width="0.774263"/>
<path d="M119.58 282.865V297.863H161.573V282.865H119.58Z" fill="white" stroke="#D2DCE4" stroke-width="0.774263"/>
<path d="M119.58 312.868V327.866H161.573V312.868H119.58Z" fill="white" stroke="#D2DCE4" stroke-width="0.774263"/>
<path d="M119.58 342.858V357.856H161.573V342.858H119.58Z" fill="white" stroke="#D2DCE4" stroke-width="0.774263"/>
<path d="M119.58 372.848V387.846H161.573V372.848H119.58Z" fill="white" stroke="#D2DCE4" stroke-width="0.774263"/>
<path d="M161.566 282.865V297.863H203.559V282.865H161.566Z" fill="white" stroke="#D2DCE4" stroke-width="0.774263"/>
<path d="M161.566 312.869V327.867H203.559V312.869H161.566Z" fill="white" stroke="#D2DCE4" stroke-width="0.774263"/>
<path d="M161.566 342.859V357.857H203.559V342.859H161.566Z" fill="white" stroke="#D2DCE4" stroke-width="0.774263"/>
<path d="M161.566 372.849V387.847H203.559V372.849H161.566Z" fill="white" stroke="#D2DCE4" stroke-width="0.774263"/>
<path d="M203.561 282.865V297.863H244.054V282.865H203.561Z" fill="white" stroke="#D2DCE4" stroke-width="0.774263"/>
<path d="M203.561 312.869V327.867H244.054V312.869H203.561Z" fill="white" stroke="#D2DCE4" stroke-width="0.774263"/>
<path d="M203.561 342.859V357.857H244.054V342.859H203.561Z" fill="white" stroke="#D2DCE4" stroke-width="0.774263"/>
<path d="M203.561 372.849V387.847H244.054V372.849H203.561Z" fill="white" stroke="#D2DCE4" stroke-width="0.774263"/>
<path d="M44.5879 305.376H71.5834" stroke="#B8C4D0" stroke-width="2.99949" stroke-linecap="round"/>
<path d="M44.5879 335.366H71.5834" stroke="#B8C4D0" stroke-width="2.99949" stroke-linecap="round"/>
<path d="M44.5879 365.355H71.5834" stroke="#B8C4D0" stroke-width="2.99949" stroke-linecap="round"/>
<path d="M85.0801 305.376H113.575" stroke="#B8C4D0" stroke-width="2.99949" stroke-linecap="round"/>
<path d="M85.0801 335.365H113.575" stroke="#B8C4D0" stroke-width="2.99949" stroke-linecap="round"/>
<path d="M85.0801 365.355H113.575" stroke="#B8C4D0" stroke-width="2.99949" stroke-linecap="round"/>
<path d="M127.072 305.376H154.068" stroke="#B8C4D0" stroke-width="2.99949" stroke-linecap="round"/>
<path d="M127.072 335.365H154.068" stroke="#B8C4D0" stroke-width="2.99949" stroke-linecap="round"/>
<path d="M127.072 365.355H154.068" stroke="#B8C4D0" stroke-width="2.99949" stroke-linecap="round"/>
<path d="M167.57 305.376H196.065" stroke="#B8C4D0" stroke-width="2.99949" stroke-linecap="round"/>
<path d="M167.57 335.365H196.065" stroke="#B8C4D0" stroke-width="2.99949" stroke-linecap="round"/>
<path d="M167.57 365.355H196.065" stroke="#B8C4D0" stroke-width="2.99949" stroke-linecap="round"/>
<path d="M211.064 305.376H236.56" stroke="#B8C4D0" stroke-width="2.99949" stroke-linecap="round"/>
<path d="M211.064 335.366H236.56" stroke="#B8C4D0" stroke-width="2.99949" stroke-linecap="round"/>
<path d="M211.064 365.355H236.56" stroke="#B8C4D0" stroke-width="2.99949" stroke-linecap="round"/>
<path d="M44.5879 290.374H71.5834" stroke="#D2DCE4" stroke-width="2.99949" stroke-linecap="round"/>
<path d="M44.5879 320.364H71.5834" stroke="#D2DCE4" stroke-width="2.99949" stroke-linecap="round"/>
<path d="M44.5879 350.367H71.5834" stroke="#D2DCE4" stroke-width="2.99949" stroke-linecap="round"/>
<path d="M44.5879 380.358H71.5834" stroke="#D2DCE4" stroke-width="2.99949" stroke-linecap="round"/>
<path d="M85.0801 290.374H113.575" stroke="#D2DCE4" stroke-width="2.99949" stroke-linecap="round"/>
<path d="M85.0801 320.364H113.575" stroke="#D2DCE4" stroke-width="2.99949" stroke-linecap="round"/>
<path d="M85.0801 350.367H113.575" stroke="#D2DCE4" stroke-width="2.99949" stroke-linecap="round"/>
<path d="M85.0801 380.358H113.575" stroke="#D2DCE4" stroke-width="2.99949" stroke-linecap="round"/>
<path d="M127.072 290.374H154.068" stroke="#D2DCE4" stroke-width="2.99949" stroke-linecap="round"/>
<path d="M127.072 320.364H154.068" stroke="#D2DCE4" stroke-width="2.99949" stroke-linecap="round"/>
<path d="M127.072 350.367H154.068" stroke="#D2DCE4" stroke-width="2.99949" stroke-linecap="round"/>
<path d="M127.072 380.358H154.068" stroke="#D2DCE4" stroke-width="2.99949" stroke-linecap="round"/>
<path d="M167.57 290.374H196.065" stroke="#D2DCE4" stroke-width="2.99949" stroke-linecap="round"/>
<path d="M167.57 320.364H196.065" stroke="#D2DCE4" stroke-width="2.99949" stroke-linecap="round"/>
<path d="M167.57 350.367H196.065" stroke="#D2DCE4" stroke-width="2.99949" stroke-linecap="round"/>
<path d="M167.57 380.358H196.065" stroke="#D2DCE4" stroke-width="2.99949" stroke-linecap="round"/>
<path d="M211.064 290.374H236.56" stroke="#D2DCE4" stroke-width="2.99949" stroke-linecap="round"/>
<path d="M211.064 320.364H236.56" stroke="#D2DCE4" stroke-width="2.99949" stroke-linecap="round"/>
<path d="M211.064 350.367H236.56" stroke="#D2DCE4" stroke-width="2.99949" stroke-linecap="round"/>
<path d="M211.064 380.358H236.56" stroke="#D2DCE4" stroke-width="2.99949" stroke-linecap="round"/>
<path d="M33.2677 279.245V271.745L25.7676 279.245H33.2677Z" fill="#B8C4D0"/>
<path d="M59.7867 276.343C59.7867 275.41 59.4107 274.853 59.0068 274.519C58.61 274.178 57.9903 273.941 57.1547 273.941H55.5254V278.745H57.1547C57.9903 278.745 58.61 278.509 59.0068 278.174C59.4107 277.833 59.7867 277.276 59.7867 276.343ZM58.6448 276.343C58.6448 276.935 58.422 277.255 58.22 277.443C58.0181 277.638 57.6839 277.791 57.2174 277.791H56.6464V274.874H57.2174C57.6839 274.874 58.0181 275.027 58.22 275.215C58.422 275.41 58.6448 275.751 58.6448 276.343Z" fill="#303B45"/>
<path d="M100.697 278.745V277.833H98.6425V276.719H100.523V275.821H98.6425V274.839H100.634V273.941H97.5215V278.745H100.697Z" fill="#303B45"/>
<path d="M142.515 274.839V273.941H139.514V278.745H140.635V276.914H142.403V276.016H140.635V274.839H142.515Z" fill="#303B45"/>
<path d="M185.898 278.001V276.01H183.788V276.866H184.797V277.576C184.797 277.576 184.575 277.883 183.795 277.883C183.015 277.883 182.402 277.319 182.402 276.344C182.402 275.369 183.001 274.805 183.774 274.805C184.428 274.805 184.804 275.132 185.006 275.355L185.751 274.708C185.598 274.541 185.048 273.872 183.774 273.872C182.43 273.872 181.26 274.742 181.26 276.344C181.26 277.945 182.43 278.823 183.76 278.823C185.083 278.823 185.654 278.217 185.898 278.001Z" fill="#303B45"/>
</g>
<path d="M220.607 381.081V267.884" stroke="#D2DCE4" stroke-width="0.749873"/>
<path d="M229.433 255.582H21.5762V268.328H229.433V255.582Z" fill="#40BB68"/>
<path d="M21.5762 249.7C21.5762 246.992 23.7711 244.797 26.4785 244.797H224.531C227.238 244.797 229.433 246.992 229.433 249.7V255.582H21.5762V249.7Z" fill="#07722A"/>
<path d="M31.5609 250.243C31.5619 250.648 31.4425 251.044 31.2177 251.381C30.9929 251.718 30.6729 251.981 30.2983 252.136C29.9236 252.292 29.5111 252.333 29.1129 252.255C28.7147 252.176 28.3488 251.982 28.0615 251.696C27.7741 251.41 27.5783 251.046 27.4988 250.649C27.4192 250.252 27.4595 249.841 27.6146 249.467C27.7697 249.093 28.0326 248.773 28.37 248.548C28.7074 248.323 29.1041 248.203 29.51 248.203C30.0519 248.207 30.5706 248.423 30.9542 248.805C31.3379 249.186 31.5558 249.703 31.5609 250.243Z" fill="#F66058"/>
<path d="M40.1898 250.244C40.1908 250.649 40.0712 251.045 39.8462 251.382C39.6212 251.719 39.301 251.982 38.926 252.137C38.551 252.293 38.1383 252.334 37.7399 252.255C37.3416 252.176 36.9757 251.981 36.6886 251.695C36.4015 251.409 36.206 251.044 36.127 250.647C36.0481 250.249 36.0891 249.838 36.2449 249.464C36.4008 249.09 36.6644 248.771 37.0025 248.546C37.3405 248.322 37.7377 248.203 38.1438 248.204C38.4128 248.202 38.6795 248.254 38.9283 248.356C39.1772 248.458 39.4032 248.609 39.5935 248.798C39.7837 248.988 39.9344 249.213 40.0367 249.462C40.1391 249.71 40.1911 249.976 40.1898 250.244Z" fill="#F9BD2E"/>
<path d="M49.0297 250.244C49.0307 250.649 48.9112 251.045 48.6864 251.382C48.4617 251.719 48.1417 251.981 47.767 252.137C47.3923 252.292 46.9798 252.334 46.5816 252.255C46.1834 252.177 45.8175 251.983 45.5302 251.697C45.2429 251.411 45.047 251.047 44.9675 250.65C44.888 250.253 44.9283 249.841 45.0834 249.467C45.2385 249.093 45.5013 248.774 45.8387 248.549C46.1761 248.324 46.5729 248.204 46.9787 248.204C47.5206 248.207 48.0393 248.423 48.423 248.805C48.8066 249.187 49.0245 249.704 49.0297 250.244Z" fill="#3CC840"/>
<path d="M32.4089 258.524H28.1334C27.3241 258.524 26.668 259.18 26.668 259.989V263.922C26.668 264.731 27.3241 265.387 28.1334 265.387H32.4089C33.2182 265.387 33.8743 264.731 33.8743 263.922V259.989C33.8743 259.18 33.2182 258.524 32.4089 258.524Z" fill="#4B825D"/>
<path d="M30.4479 262.304L31.3086 263.671H32.1582L30.9029 261.901L32.076 260.24H31.2373L30.4424 261.478L29.6476 260.24H28.8089L29.982 261.896L28.7266 263.671H29.5708L30.4479 262.304Z" fill="white"/>
<path opacity="0.3" d="M229.433 259.504H204.922V264.406H229.433V259.504Z" fill="white"/>
<path opacity="0.3" d="M198.058 259.504H163.742V264.406H198.058V259.504Z" fill="white"/>
<path opacity="0.3" d="M116.681 259.504H82.3652V264.406H116.681V259.504Z" fill="white"/>
<path opacity="0.3" d="M157.859 259.504H122.562V264.406H157.859V259.504Z" fill="white"/>
<path opacity="0.3" d="M75.5015 259.504H41.1855V264.406H75.5015V259.504Z" fill="white"/>
<g filter="url(#filter4_bd_6376_26315)">
<path d="M383 231.45C383 228.992 384.943 227 387.339 227H562.161C564.557 227 566.5 228.992 566.5 231.45V237H383V231.45Z" fill="url(#paint2_linear_6376_26315)"/>
</g>
<path d="M391.491 231.832C391.491 232.191 391.385 232.542 391.186 232.841C390.987 233.14 390.703 233.373 390.37 233.511C390.038 233.649 389.672 233.685 389.319 233.616C388.966 233.546 388.641 233.374 388.386 233.12C388.131 232.867 387.957 232.544 387.887 232.192C387.816 231.839 387.852 231.474 387.99 231.143C388.127 230.811 388.36 230.527 388.66 230.328C388.959 230.128 389.311 230.021 389.671 230.021C390.152 230.025 390.612 230.217 390.952 230.555C391.293 230.894 391.486 231.352 391.491 231.832Z" fill="white"/>
<path d="M399.147 231.832C399.148 232.191 399.042 232.542 398.842 232.841C398.642 233.141 398.358 233.374 398.026 233.512C397.693 233.649 397.327 233.686 396.973 233.616C396.62 233.546 396.295 233.373 396.041 233.119C395.786 232.865 395.613 232.541 395.543 232.189C395.472 231.837 395.509 231.472 395.647 231.14C395.785 230.808 396.019 230.525 396.319 230.326C396.619 230.127 396.971 230.021 397.332 230.022C397.57 230.021 397.807 230.067 398.028 230.157C398.248 230.248 398.449 230.381 398.618 230.549C398.787 230.718 398.92 230.918 399.011 231.138C399.102 231.358 399.148 231.594 399.147 231.832Z" fill="white"/>
<path d="M406.987 231.832C406.988 232.191 406.882 232.542 406.682 232.841C406.483 233.14 406.199 233.373 405.867 233.511C405.534 233.649 405.168 233.686 404.815 233.616C404.462 233.547 404.137 233.374 403.882 233.121C403.627 232.867 403.453 232.544 403.383 232.192C403.312 231.84 403.348 231.475 403.486 231.143C403.623 230.811 403.857 230.527 404.156 230.328C404.455 230.128 404.807 230.022 405.167 230.022C405.648 230.025 406.108 230.217 406.448 230.555C406.789 230.894 406.982 231.352 406.987 231.832Z" fill="white"/>
<g filter="url(#filter5_dd_6376_26315)">
<path d="M383 254H566.5V344.939C566.5 347.734 564.224 350 561.417 350H388.082C385.276 350 383 347.734 383 344.939V254Z" fill="url(#paint3_linear_6376_26315)"/>
<path d="M496.989 302.309C496.076 300.97 494.847 299.878 493.411 299.128C493.456 299.701 493.366 300.277 493.147 300.809C492.928 301.341 492.586 301.814 492.149 302.189C493.272 302.843 494.176 303.814 494.747 304.98C495.318 306.147 495.53 307.456 495.356 308.743C495.539 308.66 495.732 308.6 495.93 308.566L496.318 308.548C496.469 308.33 496.617 308.107 496.756 307.88C496.845 307.682 496.95 307.493 497.071 307.313C497.109 307.234 497.147 307.159 497.181 307.083C497.478 306.453 498.055 306.926 498.594 306.671C498.339 304.438 497.724 303.379 496.989 302.309Z" fill="#76A5FF"/>
<path d="M487.617 316.449H487.702C487.661 316.247 487.617 316.049 487.56 315.847C487.538 315.762 487.51 315.677 487.488 315.592V315.57L487.261 314.852C487.198 314.648 487.174 314.435 487.191 314.222C485.946 313.896 484.826 313.21 483.969 312.251C483.401 312.846 482.759 313.365 482.058 313.797C481.819 313.953 481.56 314.078 481.289 314.169C482.484 315.611 484.581 316.764 486.261 317.318C486.744 316.842 486.904 316.449 487.617 316.449Z" fill="#15C1E6"/>
<path d="M484.303 312.603C483.98 312.293 483.689 311.95 483.436 311.58C482.554 310.292 482.159 308.733 482.323 307.181C482.488 305.629 483.2 304.187 484.333 303.112C485.465 302.038 486.944 301.402 488.504 301.318C490.064 301.234 491.603 301.708 492.844 302.654L494.298 299.659C490.83 297.411 487.116 297.455 483.285 299.748C481.129 301.224 479.648 303.495 479.168 306.062C478.688 308.628 479.248 311.28 480.725 313.435C480.977 313.803 481.254 314.153 481.554 314.484L484.303 312.603Z" fill="#9D97F4"/>
<path d="M486.67 317.061L487.34 314.579C488.368 314.806 489.437 314.795 490.463 314.546C491.604 314.269 492.656 313.707 493.52 312.912C494.384 312.118 495.031 311.116 495.401 310.003C495.725 309.025 495.826 307.989 495.699 306.971L498.297 307.012C498.568 310.239 497.428 312.913 494.925 315.027C493.997 315.81 492.936 316.421 491.792 316.832C490.153 317.417 488.733 317.502 486.67 317.061Z" fill="#76A5FF" stroke="#76A5FF" stroke-width="0.703277"/>
<circle cx="488.922" cy="308.031" r="5.57656" fill="#E7EEFF" fill-opacity="0.2"/>
<path d="M523.64 302.309C522.727 300.971 521.498 299.878 520.061 299.128C520.107 299.701 520.016 300.278 519.797 300.809C519.578 301.341 519.236 301.814 518.8 302.189C519.923 302.843 520.827 303.814 521.397 304.981C521.968 306.147 522.18 307.457 522.006 308.743C522.189 308.66 522.382 308.601 522.58 308.567L522.968 308.548C523.119 308.331 523.268 308.107 523.406 307.88C523.495 307.683 523.601 307.493 523.722 307.313C523.759 307.235 523.797 307.159 523.832 307.083C524.128 306.454 524.705 306.926 525.244 306.671C524.989 304.438 524.374 303.38 523.64 302.309Z" fill="#15C1E6"/>
<path d="M514.269 316.449H514.354C514.313 316.248 514.269 316.049 514.213 315.848C514.191 315.763 514.162 315.677 514.14 315.592V315.57L513.913 314.852C513.85 314.649 513.827 314.435 513.844 314.222C512.599 313.896 511.478 313.211 510.621 312.251C510.054 312.846 509.411 313.366 508.711 313.797C508.471 313.954 508.213 314.079 507.941 314.169C509.136 315.611 511.233 316.764 512.914 317.318C513.396 316.843 513.557 316.449 514.269 316.449Z" fill="#FECE4D"/>
<path d="M510.954 312.604C510.63 312.293 510.339 311.95 510.087 311.58C509.204 310.293 508.809 308.733 508.974 307.182C509.138 305.63 509.85 304.187 510.983 303.113C512.116 302.038 513.595 301.402 515.155 301.318C516.714 301.234 518.253 301.708 519.495 302.655L520.948 299.66C517.48 297.411 513.766 297.455 509.935 299.748C507.779 301.224 506.298 303.496 505.818 306.062C505.338 308.629 505.898 311.281 507.375 313.435C507.627 313.804 507.904 314.154 508.204 314.484L510.954 312.604Z" fill="#76A5FF"/>
<path d="M513.321 317.061L513.99 314.579C515.019 314.806 516.087 314.795 517.113 314.546C518.255 314.27 519.307 313.708 520.17 312.913C521.034 312.118 521.681 311.117 522.051 310.003C522.375 309.026 522.477 307.99 522.35 306.971L524.948 307.013C525.219 310.24 524.079 312.913 521.575 315.027C520.647 315.81 519.586 316.422 518.442 316.832C516.803 317.418 515.383 317.503 513.321 317.061Z" fill="#9D97F4" stroke="#9D97F4" stroke-width="0.703277"/>
<circle cx="515.625" cy="308.031" r="5.57656" fill="#E7EEFF" fill-opacity="0.2"/>
<path d="M550.3 302.309C549.387 300.97 548.158 299.878 546.721 299.128C546.767 299.701 546.676 300.277 546.457 300.809C546.238 301.341 545.896 301.814 545.46 302.189C546.583 302.843 547.487 303.814 548.058 304.98C548.628 306.147 548.84 307.456 548.666 308.743C548.849 308.66 549.042 308.6 549.24 308.566L549.628 308.548C549.779 308.33 549.928 308.107 550.066 307.88C550.155 307.682 550.261 307.493 550.382 307.313C550.42 307.234 550.457 307.159 550.492 307.083C550.788 306.453 551.365 306.926 551.905 306.671C551.649 304.438 551.034 303.379 550.3 302.309Z" fill="#9D97F4"/>
<path d="M540.928 316.449H541.013C540.972 316.247 540.928 316.049 540.871 315.847C540.849 315.762 540.82 315.677 540.798 315.592V315.57L540.571 314.852C540.508 314.648 540.485 314.435 540.502 314.222C539.257 313.896 538.136 313.21 537.28 312.251C536.712 312.846 536.07 313.365 535.369 313.797C535.13 313.953 534.871 314.078 534.6 314.169C535.795 315.611 537.891 316.764 539.572 317.318C540.054 316.842 540.215 316.449 540.928 316.449Z" fill="#15C1E6"/>
<path d="M537.614 312.603C537.29 312.293 537 311.95 536.747 311.58C535.864 310.292 535.469 308.733 535.634 307.181C535.798 305.629 536.51 304.187 537.643 303.112C538.776 302.038 540.255 301.402 541.815 301.318C543.375 301.234 544.913 301.708 546.155 302.654L547.609 299.659C544.14 297.411 540.426 297.455 536.595 299.748C534.439 301.224 532.958 303.495 532.478 306.062C531.998 308.628 532.558 311.28 534.035 313.435C534.287 313.803 534.564 314.153 534.864 314.484L537.614 312.603Z" fill="#FECE4D"/>
<path d="M539.981 317.061L540.65 314.579C541.679 314.806 542.747 314.795 543.774 314.546C544.915 314.269 545.967 313.707 546.83 312.912C547.694 312.118 548.341 311.116 548.711 310.003C549.036 309.025 549.137 307.989 549.01 306.971L551.608 307.012C551.879 310.239 550.739 312.913 548.236 315.027C547.307 315.81 546.246 316.421 545.102 316.832C543.464 317.417 542.044 317.502 539.981 317.061Z" fill="#76A5FF" stroke="#76A5FF" stroke-width="0.703277"/>
<circle cx="542.343" cy="308.031" r="5.57656" fill="#E7EEFF" fill-opacity="0.2"/>
<path d="M497.222 269.052H481.675C480.244 269.052 479.084 270.212 479.084 271.643C479.084 273.074 480.244 274.234 481.675 274.234H497.222C498.653 274.234 499.813 273.074 499.813 271.643C499.813 270.212 498.653 269.052 497.222 269.052Z" fill="#D2DCE4" fill-opacity="0.5"/>
<path d="M538.595 282H482.628C480.624 282 479 283.624 479 285.628C479 287.631 480.624 289.255 482.628 289.255H538.595C540.598 289.255 542.222 287.631 542.222 285.628C542.222 283.624 540.598 282 538.595 282Z" fill="#8599AC" fill-opacity="0.5"/>
<mask id="mask1_6376_26315" style="mask-type:alpha" maskUnits="userSpaceOnUse" x="403" y="265" width="33" height="68">
<path d="M435.999 265.051H403.352V332.419H435.999V265.051Z" fill="#D9D9D9"/>
</mask>
<g mask="url(#mask1_6376_26315)">
<path d="M460.381 265H410.915C406.543 265 403 268.543 403 272.915V324.359C403 328.731 406.543 332.274 410.915 332.274H460.381C464.752 332.274 468.295 328.731 468.295 324.359V272.915C468.295 268.543 464.752 265 460.381 265Z" fill="#E7EEFF" fill-opacity="0.16"/>
<path d="M413 321H458.869V318.103H455.972V293.623L439.942 289.23V318.054H437.769L437.769 276L415.897 280.346V318.103H413L413 321ZM449.405 297.39H452.303V301.156H449.405V297.39ZM449.405 304.101H452.303V307.867H449.405V304.101ZM449.405 310.812H452.303V314.578H449.405V310.812ZM443.563 297.39H446.46V301.156H443.563V297.39ZM443.563 304.101H446.46V307.867H443.563V304.101ZM443.563 310.812H446.46V314.578H443.563V310.812ZM431.203 284.015H434.1V287.781H431.203V284.015ZM431.203 290.727H434.1V294.493H431.203V290.727ZM431.203 297.39H434.1V301.156H431.203V297.39ZM431.203 304.101H434.1V307.867H431.203V304.101ZM425.36 284.015H428.258V287.781H425.36V284.015ZM425.36 290.727H428.258V294.493H425.36V290.727ZM425.36 297.39H428.258V301.156H425.36V297.39ZM425.36 304.101H428.258V307.867H425.36V304.101ZM419.518 284.015H422.416V287.781H419.518V284.015ZM419.518 290.727H422.416V294.493H419.518V290.727ZM419.518 297.39H422.416V301.156H419.518V297.39ZM419.518 304.101H422.416V307.867H419.518V304.101ZM424.057 310.813H429.609V318.103H424.057V310.813Z" fill="#9FC0FF"/>
</g>
<mask id="mask2_6376_26315" style="mask-type:alpha" maskUnits="userSpaceOnUse" x="434" y="265" width="35" height="68">
<path d="M434.446 332.419H468.648V265.051H434.446V332.419Z" fill="#75A3FA"/>
</mask>
<g mask="url(#mask2_6376_26315)">
<path opacity="0.88" d="M460.734 265.051H411.268C406.897 265.051 403.354 268.595 403.354 272.966V324.41C403.354 328.782 406.897 332.325 411.268 332.325H460.734C465.105 332.325 468.649 328.782 468.649 324.41V272.966C468.649 268.595 465.105 265.051 460.734 265.051Z" fill="#76A5FF"/>
<path d="M413 321H458.869V318.103H455.972V293.623L439.942 289.23V318.054H437.769L437.769 276L415.897 280.346V318.103H413L413 321ZM449.405 297.39H452.303V301.156H449.405V297.39ZM449.405 304.101H452.303V307.867H449.405V304.101ZM449.405 310.812H452.303V314.578H449.405V310.812ZM443.563 297.39H446.46V301.156H443.563V297.39ZM443.563 304.101H446.46V307.867H443.563V304.101ZM443.563 310.812H446.46V314.578H443.563V310.812ZM431.203 284.015H434.1V287.781H431.203V284.015ZM431.203 290.727H434.1V294.493H431.203V290.727ZM431.203 297.39H434.1V301.156H431.203V297.39ZM431.203 304.101H434.1V307.867H431.203V304.101ZM425.36 284.015H428.258V287.781H425.36V284.015ZM425.36 290.727H428.258V294.493H425.36V290.727ZM425.36 297.39H428.258V301.156H425.36V297.39ZM425.36 304.101H428.258V307.867H425.36V304.101ZM419.518 284.015H422.416V287.781H419.518V284.015ZM419.518 290.727H422.416V294.493H419.518V290.727ZM419.518 297.39H422.416V301.156H419.518V297.39ZM419.518 304.101H422.416V307.867H419.518V304.101ZM424.057 310.813H429.609V318.103H424.057V310.813Z" fill="#0058FF"/>
</g>
<path d="M383 237H566.5V254H383V237Z" fill="#024BCD"/>
<rect x="391" y="242" width="37" height="6" rx="3" fill="white" fill-opacity="0.7"/>
<path d="M438.15 245.5C438.15 244.583 438.59 243.745 439.236 243.134C439.883 242.522 440.722 242.15 441.5 242.15L531.021 242.15C532.562 242.15 533.85 243.627 533.85 245.5C533.85 247.373 532.562 248.85 531.021 248.85L441.5 248.85C440.722 248.85 439.883 248.478 439.236 247.866C438.59 247.255 438.15 246.417 438.15 245.5Z" fill="white" fill-opacity="0.4" stroke="#9BACBC" stroke-width="0.3"/>
<path d="M523 242H530.874C532.808 242 534.374 243.567 534.374 245.5C534.374 247.433 532.808 249 530.874 249H523V242Z" fill="white"/>
<path opacity="0.2" d="M537.184 245.029C537.184 243.858 538.133 242.909 539.304 242.909H541C542.17 242.909 543.12 243.858 543.12 245.029C543.12 246.2 542.17 247.149 541 247.149H539.304C538.133 247.149 537.184 246.2 537.184 245.029Z" fill="#D2DCE4"/>
<path opacity="0.2" d="M546.512 245.029C546.512 243.858 547.461 242.909 548.632 242.909H550.328C551.499 242.909 552.448 243.858 552.448 245.029C552.448 246.2 551.499 247.149 550.328 247.149H548.632C547.461 247.149 546.512 246.2 546.512 245.029Z" fill="#D2DCE4"/>
<path opacity="0.2" d="M555.84 245.029C555.84 243.858 556.789 242.909 557.96 242.909H559.656C560.827 242.909 561.776 243.858 561.776 245.029C561.776 246.2 560.827 247.149 559.656 247.149H557.96C556.789 247.149 555.84 246.2 555.84 245.029Z" fill="#D2DCE4"/>
</g>
<g style="mix-blend-mode:multiply">
<g style="mix-blend-mode:multiply" opacity="0.7">
<path fill-rule="evenodd" clip-rule="evenodd" d="M521.61 350.039H434.89V310.509C434.89 296.162 436.992 286.711 429.264 286.711V285.48C437.595 287.608 434.89 274.379 434.89 261.339C434.858 242.933 434.84 245.464 434.808 227.058H521.61V350.039Z" fill="url(#paint4_linear_6376_26315)"/>
</g>
</g>
<g style="mix-blend-mode:lighten">
<g style="mix-blend-mode:multiply">
<path fill-rule="evenodd" clip-rule="evenodd" d="M491.45 350.039H434.89V310.509C434.89 296.162 436.992 286.711 429.264 286.711V285.48C437.595 287.608 434.89 274.379 434.89 261.339C434.858 242.933 434.84 245.406 434.808 227H491.45V350.039Z" fill="url(#paint5_linear_6376_26315)"/>
</g>
</g>
<path d="M530.789 247.052L529.665 245.917C529.858 245.64 529.968 245.308 529.968 244.962C529.968 244.74 529.934 244.519 529.851 244.318C529.768 244.11 529.644 243.93 529.485 243.771C529.334 243.612 529.147 243.487 528.947 243.404C528.741 243.321 528.527 243.287 528.306 243.287C528.085 243.287 527.871 243.321 527.671 243.411C527.471 243.494 527.285 243.619 527.133 243.778C526.975 243.93 526.85 244.117 526.768 244.318C526.685 244.519 526.65 244.74 526.65 244.955C526.65 245.176 526.685 245.391 526.768 245.598C526.85 245.799 526.975 245.986 527.133 246.138C527.285 246.297 527.471 246.422 527.671 246.505C527.871 246.588 528.092 246.63 528.313 246.623C528.665 246.623 529.003 246.512 529.285 246.304L530.41 247.432L530.796 247.045L530.789 247.052ZM528.754 246.034C528.616 246.09 528.465 246.124 528.313 246.124C528.161 246.124 528.009 246.097 527.871 246.041C527.733 245.986 527.602 245.896 527.499 245.785C527.388 245.681 527.306 245.55 527.244 245.411C527.182 245.273 527.161 245.121 527.161 244.968C527.161 244.816 527.188 244.664 527.244 244.525C527.299 244.387 527.388 244.256 527.492 244.152C527.595 244.041 527.726 243.958 527.864 243.903C528.002 243.847 528.154 243.813 528.306 243.813C528.458 243.813 528.609 243.84 528.747 243.903C528.885 243.965 529.016 244.048 529.12 244.152C529.223 244.262 529.313 244.387 529.368 244.525C529.423 244.664 529.458 244.816 529.451 244.968C529.451 245.121 529.423 245.273 529.361 245.411C529.306 245.55 529.216 245.681 529.113 245.785C529.01 245.889 528.878 245.979 528.741 246.034H528.754Z" fill="#024BCD"/>
<path d="M434.058 228.057V227.021H436.131V228.057H434.058ZM436.131 228.057V281.918H434.058V228.057H436.131ZM430.714 287.334H407.959V285.262H430.714V287.334ZM436.131 281.918C436.131 284.909 433.706 287.334 430.714 287.334V285.262C432.561 285.262 434.058 283.764 434.058 281.918H436.131Z" fill="#3D7FFC"/>
<path d="M433.603 349.002V350.039H435.676V349.002H433.603ZM307.267 285.565C306.862 285.97 306.862 286.626 307.267 287.031L313.863 293.627C314.267 294.031 314.924 294.031 315.328 293.627C315.733 293.222 315.733 292.566 315.328 292.161L309.465 286.298L315.328 280.435C315.733 280.03 315.733 279.374 315.328 278.969C314.924 278.565 314.267 278.565 313.863 278.969L307.267 285.565ZM435.676 349.002V290.678H433.603V349.002H435.676ZM430.259 285.262H308V287.334H430.259V285.262ZM435.676 290.678C435.676 287.687 433.251 285.262 430.259 285.262V287.334C432.106 287.334 433.603 288.832 433.603 290.678H435.676Z" fill="#3D7FFC"/>
<g filter="url(#filter6_dd_6376_26315)">
<path d="M357.23 290.962C359.806 290.962 361.894 288.874 361.894 286.298C361.894 283.722 359.806 281.634 357.23 281.634C354.655 281.634 352.566 283.722 352.566 286.298C352.566 288.874 354.655 290.962 357.23 290.962Z" fill="#3D7FFC"/>
</g>
<path d="M443.238 246.023C443.378 246.238 443.701 246.523 444.047 246.523C444.434 246.523 444.715 246.317 444.715 245.953C444.715 245.616 444.444 245.453 444.145 245.322L443.668 245.116C443.308 244.962 443.126 244.724 443.126 244.331C443.126 243.789 443.621 243.504 444.117 243.504C444.654 243.504 444.944 243.85 445 243.92L444.794 244.154C444.654 243.99 444.439 243.808 444.098 243.808C443.752 243.808 443.481 243.99 443.481 244.308C443.481 244.644 443.715 244.771 443.93 244.859L444.369 245.046C444.761 245.214 445.074 245.439 445.074 245.901C445.074 246.471 444.631 246.826 444.004 246.826C443.514 246.826 443.163 246.499 443 246.252L443.238 246.023ZM447.51 246.457C447.309 246.696 446.992 246.817 446.562 246.817C445.917 246.817 445.482 246.373 445.482 245.668C445.482 245.046 445.908 244.537 446.562 244.537C447.165 244.537 447.58 244.971 447.58 245.574C447.58 245.654 447.566 245.756 447.566 245.756H445.838C445.842 246.21 446.155 246.527 446.623 246.527C447.052 246.527 447.361 246.252 447.361 246.252L447.51 246.457ZM447.23 245.495C447.23 245.186 447.029 244.831 446.548 244.827C446.109 244.822 445.87 245.154 445.842 245.495H447.23ZM449.423 246.77L449.418 246.481C449.334 246.574 449.114 246.817 448.699 246.817C448.283 246.817 447.946 246.551 447.946 246.149C447.946 245.775 448.222 245.513 448.82 245.485L449.413 245.457V245.359C449.413 244.99 449.166 244.827 448.834 244.827C448.507 244.827 448.245 244.957 448.185 245L448.068 244.752C448.213 244.668 448.502 244.537 448.848 244.537C449.488 244.537 449.764 244.869 449.764 245.485V246.77H449.423ZM449.418 245.71L448.848 245.738C448.442 245.756 448.306 245.92 448.306 246.144C448.306 246.364 448.488 246.541 448.769 246.541C449.068 246.541 449.315 246.369 449.418 246.228V245.71ZM450.421 246.77V244.579H450.767V244.953C450.869 244.686 451.08 244.537 451.323 244.537C451.467 244.537 451.556 244.574 451.556 244.574L451.533 244.901C451.533 244.901 451.523 244.901 451.519 244.901C451.444 244.869 451.346 244.859 451.281 244.859C451.08 244.859 450.949 245 450.911 245.051C450.823 245.177 450.767 245.303 450.767 245.635V246.77H450.421ZM453.75 246.471C453.647 246.588 453.413 246.822 452.862 246.822C452.273 246.822 451.773 246.401 451.773 245.677C451.773 244.986 452.301 244.537 452.881 244.537C453.367 244.537 453.577 244.696 453.727 244.831L453.572 245.102C453.427 244.967 453.236 244.85 452.895 244.85C452.47 244.85 452.129 245.168 452.129 245.672C452.129 246.172 452.465 246.509 452.928 246.509C453.381 246.509 453.6 246.219 453.6 246.219L453.75 246.471ZM455.244 244.537C455.87 244.537 456.019 244.92 456.019 245.443V246.77H455.673V245.467C455.673 245.06 455.543 244.836 455.136 244.836C454.744 244.836 454.547 245.158 454.547 245.537V246.77H454.202V243.546H454.547V244.934H454.561C454.66 244.7 454.931 244.537 455.244 244.537ZM457.773 246.77V244.873H457.455V244.584H457.773V244.327C457.773 243.873 457.927 243.5 458.437 243.5C458.619 243.5 458.74 243.532 458.759 243.542L458.726 243.813C458.726 243.813 458.6 243.775 458.483 243.775C458.161 243.775 458.119 244.023 458.119 244.303V244.584H458.661V244.873H458.119V246.77H457.773ZM459.922 246.817C459.282 246.817 458.782 246.355 458.782 245.682C458.782 245.014 459.282 244.537 459.922 244.537C460.562 244.537 461.067 245.014 461.067 245.682C461.067 246.355 460.562 246.817 459.922 246.817ZM459.922 246.513C460.408 246.513 460.712 246.14 460.712 245.672C460.712 245.2 460.408 244.836 459.922 244.836C459.436 244.836 459.137 245.2 459.137 245.672C459.137 246.14 459.436 246.513 459.922 246.513ZM461.616 246.77V244.579H461.961V244.953C462.064 244.686 462.274 244.537 462.517 244.537C462.662 244.537 462.751 244.574 462.751 244.574L462.728 244.901C462.728 244.901 462.718 244.901 462.714 244.901C462.639 244.869 462.541 244.859 462.475 244.859C462.274 244.859 462.144 245 462.106 245.051C462.017 245.177 461.961 245.303 461.961 245.635V246.77H461.616ZM465.394 246.77L465.389 246.481C465.305 246.574 465.085 246.817 464.67 246.817C464.254 246.817 463.917 246.551 463.917 246.149C463.917 245.775 464.193 245.513 464.791 245.485L465.384 245.457V245.359C465.384 244.99 465.137 244.827 464.805 244.827C464.478 244.827 464.216 244.957 464.156 245L464.039 244.752C464.184 244.668 464.473 244.537 464.819 244.537C465.459 244.537 465.735 244.869 465.735 245.485V246.77H465.394ZM465.389 245.71L464.819 245.738C464.413 245.756 464.277 245.92 464.277 246.144C464.277 246.364 464.459 246.541 464.74 246.541C465.039 246.541 465.286 246.369 465.389 246.228V245.71ZM467.434 244.537C468.06 244.537 468.209 244.92 468.209 245.443V246.77H467.864V245.467C467.864 245.06 467.733 244.836 467.326 244.836C466.934 244.836 466.737 245.158 466.737 245.537V246.77H466.392V244.579H466.737V244.934H466.752C466.85 244.7 467.121 244.537 467.434 244.537ZM469.422 246.77L468.53 244.574L468.89 244.579L469.6 246.383L470.296 244.574L470.656 244.579L469.586 247.168C469.418 247.569 469.268 247.677 469.035 247.677C468.838 247.677 468.694 247.602 468.694 247.602L468.764 247.308C468.764 247.308 468.885 247.359 468.983 247.359C469.095 247.359 469.175 247.354 469.301 247.055L469.422 246.77ZM472.006 246.747C471.904 246.794 471.778 246.817 471.628 246.817C471.105 246.817 471.105 246.326 471.105 245.929V244.873H470.778V244.584H471.105V243.906H471.455V244.584H471.992V244.873H471.45V245.999C471.45 246.177 471.45 246.331 471.521 246.434C471.558 246.49 471.642 246.518 471.745 246.518C471.88 246.518 471.988 246.467 471.988 246.467L472.006 246.747ZM473.515 244.537C474.141 244.537 474.291 244.92 474.291 245.443V246.77H473.945V245.467C473.945 245.06 473.814 244.836 473.408 244.836C473.015 244.836 472.819 245.158 472.819 245.537V246.77H472.473V243.546H472.819V244.934H472.833C472.931 244.7 473.202 244.537 473.515 244.537ZM475.432 243.827C475.427 243.962 475.329 244.065 475.189 244.065C475.044 244.065 474.941 243.962 474.941 243.827C474.941 243.691 475.044 243.588 475.189 243.588C475.329 243.588 475.432 243.691 475.432 243.827ZM475.016 246.77V244.579H475.362V246.77H475.016ZM477.126 244.537C477.752 244.537 477.902 244.92 477.902 245.443V246.77H477.556V245.467C477.556 245.06 477.425 244.836 477.019 244.836C476.626 244.836 476.43 245.158 476.43 245.537V246.77H476.084V244.579H476.43V244.934H476.444C476.542 244.7 476.813 244.537 477.126 244.537ZM480.301 246.341H480.291C480.132 246.602 479.866 246.756 479.492 246.756C478.913 246.756 478.436 246.378 478.436 245.649C478.436 244.962 478.913 244.537 479.483 244.537C479.885 244.537 480.16 244.729 480.296 244.957H480.305L480.301 244.579H480.646V246.303C480.646 246.794 480.576 247.055 480.436 247.247C480.296 247.443 480.03 247.696 479.474 247.696C478.922 247.696 478.558 247.387 478.525 247.364L478.698 247.116C478.843 247.228 479.151 247.401 479.492 247.401C480.095 247.401 480.301 247.009 480.301 246.462V246.341ZM479.553 246.467C480.053 246.467 480.315 246.102 480.315 245.644C480.315 245.144 480.016 244.831 479.544 244.831C479.048 244.831 478.791 245.191 478.791 245.644C478.791 246.102 479.058 246.467 479.553 246.467ZM481.974 246.565C481.974 246.714 481.861 246.817 481.707 246.817C481.553 246.817 481.441 246.714 481.441 246.565C481.441 246.406 481.553 246.303 481.707 246.303C481.861 246.303 481.974 246.406 481.974 246.565ZM483.389 246.565C483.389 246.714 483.277 246.817 483.123 246.817C482.969 246.817 482.856 246.714 482.856 246.565C482.856 246.406 482.969 246.303 483.123 246.303C483.277 246.303 483.389 246.406 483.389 246.565ZM484.805 246.565C484.805 246.714 484.693 246.817 484.538 246.817C484.384 246.817 484.272 246.714 484.272 246.565C484.272 246.406 484.384 246.303 484.538 246.303C484.693 246.303 484.805 246.406 484.805 246.565Z" fill="#010D37"/>
<g filter="url(#filter7_bd_6376_26315)">
<rect x="192.439" y="300" width="94.7305" height="37.7305" rx="7.66893" fill="url(#paint6_linear_6376_26315)" shape-rendering="crispEdges"/>
<rect x="192.919" y="300.479" width="93.7719" height="36.7719" rx="7.18962" stroke="url(#paint7_linear_6376_26315)" stroke-opacity="0.2" stroke-width="0.958617" shape-rendering="crispEdges"/>
<path d="M205.964 324.041C203.587 324.041 201.767 322.477 201.767 320.035C201.767 317.594 203.587 315.998 205.964 315.998C208.326 315.998 210.145 317.594 210.145 320.035C210.145 322.477 208.326 324.041 205.964 324.041ZM208.039 319.988C208.039 318.663 207.273 317.642 205.964 317.642C204.624 317.642 203.89 318.663 203.89 319.988C203.89 321.312 204.624 322.349 205.964 322.349C207.273 322.349 208.039 321.312 208.039 319.988ZM216.965 318.631L215.257 323.865H213.247L210.773 316.142H212.8L214.411 321.679L216.247 316.142H217.842L219.741 321.535L221.225 316.142H223.252L220.699 323.865H218.864L216.965 318.631ZM224.672 312.855H226.699V323.865H224.672V312.855ZM230.574 320.658C230.766 321.887 231.707 322.477 232.872 322.477C233.909 322.477 234.835 322.014 235.202 321.695L236 322.796C235.569 323.243 234.404 324.041 232.521 324.041C230.191 324.041 228.468 322.621 228.468 320.131C228.468 317.658 230.271 315.998 232.473 315.998C234.851 315.998 236.287 317.562 236.287 319.621C236.287 320.02 236.255 320.658 236.255 320.658H230.574ZM232.457 317.514C231.245 317.514 230.606 318.36 230.542 319.333H234.245C234.213 318.488 233.894 317.514 232.457 317.514ZM237.962 316.142H239.989L239.957 317.387H240.005C240.308 316.557 241.074 315.998 241.904 315.998C242.43 315.998 242.718 316.142 242.718 316.142L242.574 317.913H242.478C242.255 317.849 241.904 317.817 241.632 317.817C241.026 317.817 240.563 318.073 240.276 318.567C240.085 318.95 239.989 319.477 239.989 320.067V323.865H237.962V316.142ZM244.177 324.041C243.411 324.041 242.885 323.594 242.885 322.86C242.885 322.11 243.411 321.663 244.177 321.663C244.911 321.663 245.454 322.11 245.454 322.86C245.454 323.594 244.911 324.041 244.177 324.041ZM253.887 321.504L254.462 323.004C254.302 323.147 253.504 324.041 251.446 324.041C249.339 324.041 247.392 322.589 247.392 320.067C247.392 317.53 249.403 315.998 251.478 315.998C253.424 315.998 254.19 316.78 254.398 316.988L253.839 318.52C253.6 318.296 252.914 317.706 251.717 317.706C250.504 317.706 249.531 318.551 249.531 319.972C249.531 321.392 250.504 322.317 251.829 322.317C253.153 322.317 253.887 321.504 253.887 321.504ZM259.593 324.041C257.215 324.041 255.396 322.477 255.396 320.035C255.396 317.594 257.215 315.998 259.593 315.998C261.954 315.998 263.773 317.594 263.773 320.035C263.773 322.477 261.954 324.041 259.593 324.041ZM261.667 319.988C261.667 318.663 260.901 317.642 259.593 317.642C258.252 317.642 257.518 318.663 257.518 319.988C257.518 321.312 258.252 322.349 259.593 322.349C260.901 322.349 261.667 321.312 261.667 319.988ZM275.103 319.541C275.103 318.599 274.896 317.674 273.891 317.674C272.869 317.674 272.343 318.551 272.343 319.876V323.865H270.3V319.525C270.3 318.472 270.029 317.674 269.055 317.674C268.002 317.674 267.539 318.663 267.539 319.876V323.865H265.497V316.142H267.539L267.523 317.307H267.571C267.922 316.589 268.864 315.998 269.869 315.998C270.986 315.998 271.656 316.445 272.023 317.466C272.566 316.525 273.444 315.998 274.561 315.998C276.587 315.998 277.146 317.434 277.146 319.206V323.865H275.103V319.541Z" fill="white"/>
</g>
<g filter="url(#filter8_bd_6376_26315)">
<rect x="173.822" y="343.44" width="113.73" height="37.7305" rx="7.66893" fill="url(#paint8_linear_6376_26315)" shape-rendering="crispEdges"/>
<rect x="174.302" y="343.919" width="112.772" height="36.7719" rx="7.18962" stroke="url(#paint9_linear_6376_26315)" stroke-opacity="0.2" stroke-width="0.958617" shape-rendering="crispEdges"/>
<path d="M183.709 356.294H185.735V367.305H183.709V356.294ZM189.101 358.353C188.382 358.353 187.872 357.89 187.872 357.22C187.872 356.566 188.382 356.087 189.101 356.087C189.819 356.087 190.329 356.566 190.329 357.22C190.329 357.89 189.819 358.353 189.101 358.353ZM188.079 359.582H190.122V367.305H188.079V359.582ZM197.509 363.172C197.509 362.023 197.301 361.113 196.12 361.113C194.86 361.113 194.429 362.167 194.429 363.459V367.305H192.386V359.582H194.429L194.413 360.746H194.461C194.876 359.933 195.658 359.438 196.775 359.438C198.993 359.438 199.551 360.874 199.551 362.725V367.305H197.509V363.172ZM204.633 363.778L203.819 364.64V367.305H201.792V356.294H203.819V362.597L206.612 359.582H208.862L206.005 362.502L209.245 367.305H206.883L204.633 363.778ZM211.902 364.097C212.094 365.326 213.035 365.917 214.2 365.917C215.237 365.917 216.163 365.454 216.53 365.135L217.328 366.236C216.897 366.683 215.732 367.48 213.849 367.48C211.519 367.48 209.796 366.06 209.796 363.571C209.796 361.097 211.599 359.438 213.801 359.438C216.179 359.438 217.615 361.002 217.615 363.06C217.615 363.459 217.583 364.097 217.583 364.097H211.902ZM213.785 360.954C212.573 360.954 211.934 361.8 211.87 362.773H215.573C215.541 361.927 215.221 360.954 213.785 360.954ZM225.24 366.092H225.193C224.57 367.082 223.613 367.48 222.544 367.48C220.278 367.48 218.889 365.725 218.889 363.427C218.889 361.241 220.341 359.438 222.687 359.438C223.724 359.438 224.602 359.821 225.145 360.651H225.177C225.161 360.3 225.161 359.885 225.161 359.342V356.294H227.187V367.305H225.256L225.24 366.092ZM223.118 365.821C224.347 365.821 225.208 364.879 225.208 363.427C225.208 362.135 224.363 361.002 223.054 361.002C221.73 361.002 220.964 362.135 220.964 363.427C220.964 364.768 221.794 365.821 223.118 365.821ZM230.559 358.353C229.841 358.353 229.33 357.89 229.33 357.22C229.33 356.566 229.841 356.087 230.559 356.087C231.277 356.087 231.787 356.566 231.787 357.22C231.787 357.89 231.277 358.353 230.559 358.353ZM229.537 359.582H231.58V367.305H229.537V359.582ZM238.967 363.172C238.967 362.023 238.759 361.113 237.578 361.113C236.318 361.113 235.887 362.167 235.887 363.459V367.305H233.844V359.582H235.887L235.871 360.746H235.919C236.334 359.933 237.116 359.438 238.233 359.438C240.451 359.438 241.009 360.874 241.009 362.725V367.305H238.967V363.172ZM244.735 367.48C243.969 367.48 243.442 367.034 243.442 366.3C243.442 365.55 243.969 365.103 244.735 365.103C245.469 365.103 246.011 365.55 246.011 366.3C246.011 367.034 245.469 367.48 244.735 367.48ZM254.444 364.943L255.019 366.443C254.859 366.587 254.061 367.48 252.003 367.48C249.897 367.48 247.95 366.028 247.95 363.507C247.95 360.97 249.96 359.438 252.035 359.438C253.982 359.438 254.748 360.22 254.955 360.427L254.397 361.959C254.157 361.736 253.471 361.145 252.274 361.145C251.061 361.145 250.088 361.991 250.088 363.411C250.088 364.832 251.061 365.757 252.386 365.757C253.71 365.757 254.444 364.943 254.444 364.943ZM260.15 367.48C257.772 367.48 255.953 365.917 255.953 363.475C255.953 361.034 257.772 359.438 260.15 359.438C262.512 359.438 264.331 361.034 264.331 363.475C264.331 365.917 262.512 367.48 260.15 367.48ZM262.224 363.427C262.224 362.103 261.458 361.082 260.15 361.082C258.809 361.082 258.075 362.103 258.075 363.427C258.075 364.752 258.809 365.789 260.15 365.789C261.458 365.789 262.224 364.752 262.224 363.427ZM275.661 362.98C275.661 362.039 275.453 361.113 274.448 361.113C273.427 361.113 272.9 361.991 272.9 363.316V367.305H270.857V362.965C270.857 361.911 270.586 361.113 269.613 361.113C268.56 361.113 268.097 362.103 268.097 363.316V367.305H266.054V359.582H268.097L268.081 360.746H268.129C268.48 360.028 269.421 359.438 270.427 359.438C271.544 359.438 272.214 359.885 272.581 360.906C273.123 359.965 274.001 359.438 275.118 359.438C277.145 359.438 277.703 360.874 277.703 362.645V367.305H275.661V362.98Z" fill="white"/>
</g>
<g filter="url(#filter9_bd_6376_26315)">
<rect x="154" y="386.879" width="139.73" height="37.7305" rx="7.66893" fill="url(#paint10_linear_6376_26315)" shape-rendering="crispEdges"/>
<rect x="154.479" y="387.359" width="138.772" height="36.7719" rx="7.18962" stroke="url(#paint11_linear_6376_26315)" stroke-opacity="0.2" stroke-width="0.958617" shape-rendering="crispEdges"/>
<path d="M169.759 408.383L170.333 409.883C170.174 410.027 169.376 410.92 167.317 410.92C165.211 410.92 163.264 409.468 163.264 406.947C163.264 404.41 165.275 402.878 167.349 402.878C169.296 402.878 170.062 403.66 170.269 403.867L169.711 405.399C169.472 405.175 168.785 404.585 167.589 404.585C166.376 404.585 165.402 405.431 165.402 406.851C165.402 408.271 166.376 409.197 167.7 409.197C169.025 409.197 169.759 408.383 169.759 408.383ZM171.824 403.021H173.851L173.819 404.266H173.867C174.17 403.436 174.936 402.878 175.766 402.878C176.292 402.878 176.579 403.021 176.579 403.021L176.436 404.793H176.34C176.117 404.729 175.766 404.697 175.494 404.697C174.888 404.697 174.425 404.952 174.138 405.447C173.946 405.83 173.851 406.356 173.851 406.947V410.745H171.824V403.021ZM179.808 407.154C179.808 408.303 180 409.213 181.18 409.213C182.409 409.213 182.872 408.239 182.872 406.947V403.021H184.914V410.745H182.936L182.92 409.66C182.473 410.425 181.643 410.888 180.526 410.888C178.308 410.888 177.766 409.452 177.766 407.601V403.021H179.808V407.154ZM192.233 406.612C192.233 405.463 192.026 404.553 190.845 404.553C189.584 404.553 189.153 405.606 189.153 406.899V410.745H187.111V403.021H189.153L189.137 404.186H189.185C189.6 403.372 190.382 402.878 191.499 402.878C193.717 402.878 194.276 404.314 194.276 406.165V410.745H192.233V406.612ZM202.389 408.383L202.964 409.883C202.804 410.027 202.006 410.92 199.948 410.92C197.841 410.92 195.895 409.468 195.895 406.947C195.895 404.41 197.905 402.878 199.98 402.878C201.927 402.878 202.693 403.66 202.9 403.867L202.341 405.399C202.102 405.175 201.416 404.585 200.219 404.585C199.006 404.585 198.033 405.431 198.033 406.851C198.033 408.271 199.006 409.197 200.331 409.197C201.655 409.197 202.389 408.383 202.389 408.383ZM208.829 402.878C211.047 402.878 211.605 404.314 211.605 406.165V410.745H209.563V406.612C209.563 405.463 209.355 404.553 208.175 404.553C206.914 404.553 206.483 405.606 206.483 406.899V410.745H204.456V399.734H206.483V404.186H206.515C206.93 403.372 207.712 402.878 208.829 402.878ZM213.845 399.734H215.888V403.181C215.888 403.755 215.856 404.09 215.856 404.09H215.904C216.574 403.213 217.452 402.846 218.489 402.846C220.739 402.846 222.143 404.617 222.143 406.883C222.143 409.085 220.691 410.888 218.345 410.888C217.26 410.888 216.414 410.505 215.808 409.628H215.776L215.728 410.745H213.845V399.734ZM217.914 404.505C216.686 404.505 215.824 405.447 215.824 406.899C215.824 408.191 216.67 409.324 217.978 409.324C219.303 409.324 220.069 408.191 220.069 406.899C220.069 405.558 219.239 404.505 217.914 404.505ZM228.355 409.851C228.036 410.41 227.142 410.92 225.993 410.92C224.493 410.92 223.281 410.106 223.281 408.495C223.281 406.883 224.86 406.261 226.456 406.149L228.307 406.021V405.814C228.307 404.824 227.653 404.362 226.584 404.362C225.562 404.362 224.717 404.745 224.382 405L223.759 403.691C224.35 403.34 225.435 402.878 226.775 402.878C228.148 402.878 228.929 403.229 229.504 403.771C230.062 404.314 230.35 405.016 230.35 406.324V410.745H228.387L228.355 409.851ZM226.935 407.346C225.85 407.41 225.323 407.777 225.323 408.431C225.323 409.085 225.818 409.532 226.663 409.532C227.461 409.532 228.052 409.069 228.323 408.686V407.266L226.935 407.346ZM236.87 405.064C236.423 404.729 235.769 404.41 235.067 404.41C234.397 404.41 234.062 404.665 234.062 405.032C234.062 405.367 234.317 405.638 235.179 405.91L235.721 406.085C237.429 406.644 238.035 407.25 238.035 408.367C238.035 409.835 236.87 410.92 234.971 410.92C233.79 410.92 232.466 410.441 231.844 409.723L232.673 408.335C233.583 409.037 234.365 409.388 235.019 409.388C235.785 409.388 236.136 409.101 236.136 408.654C236.136 408.255 235.833 408.032 234.844 407.697L233.95 407.394C232.801 407.011 232.211 406.324 232.211 405.191C232.211 403.787 233.487 402.878 234.971 402.878C236.344 402.878 237.11 403.245 237.748 403.707L236.87 405.064ZM241.221 407.537C241.412 408.766 242.354 409.356 243.519 409.356C244.556 409.356 245.482 408.894 245.849 408.574L246.646 409.675C246.216 410.122 245.051 410.92 243.168 410.92C240.838 410.92 239.115 409.5 239.115 407.011C239.115 404.537 240.918 402.878 243.12 402.878C245.498 402.878 246.934 404.441 246.934 406.5C246.934 406.899 246.902 407.537 246.902 407.537H241.221ZM243.104 404.394C241.891 404.394 241.253 405.239 241.189 406.213H244.891C244.859 405.367 244.54 404.394 243.104 404.394ZM250.017 410.92C249.251 410.92 248.724 410.473 248.724 409.739C248.724 408.989 249.251 408.543 250.017 408.543C250.751 408.543 251.293 408.989 251.293 409.739C251.293 410.473 250.751 410.92 250.017 410.92ZM259.726 408.383L260.301 409.883C260.141 410.027 259.343 410.92 257.285 410.92C255.179 410.92 253.232 409.468 253.232 406.947C253.232 404.41 255.242 402.878 257.317 402.878C259.264 402.878 260.03 403.66 260.237 403.867L259.679 405.399C259.439 405.175 258.753 404.585 257.556 404.585C256.343 404.585 255.37 405.431 255.37 406.851C255.37 408.271 256.343 409.197 257.668 409.197C258.992 409.197 259.726 408.383 259.726 408.383ZM265.432 410.92C263.054 410.92 261.235 409.356 261.235 406.915C261.235 404.473 263.054 402.878 265.432 402.878C267.794 402.878 269.613 404.473 269.613 406.915C269.613 409.356 267.794 410.92 265.432 410.92ZM267.506 406.867C267.506 405.543 266.74 404.521 265.432 404.521C264.091 404.521 263.357 405.543 263.357 406.867C263.357 408.191 264.091 409.229 265.432 409.229C266.74 409.229 267.506 408.191 267.506 406.867ZM280.943 406.42C280.943 405.479 280.735 404.553 279.73 404.553C278.709 404.553 278.182 405.431 278.182 406.755V410.745H276.139V406.404C276.139 405.351 275.868 404.553 274.895 404.553C273.842 404.553 273.379 405.543 273.379 406.755V410.745H271.336V403.021H273.379L273.363 404.186H273.411C273.762 403.468 274.703 402.878 275.709 402.878C276.826 402.878 277.496 403.324 277.863 404.346C278.405 403.404 279.283 402.878 280.4 402.878C282.427 402.878 282.985 404.314 282.985 406.085V410.745H280.943V406.42Z" fill="white"/>
</g>
<g filter="url(#filter10_bd_6376_26315)">
<rect x="479" y="324" width="96" height="42" rx="8.65056" fill="url(#paint12_linear_6376_26315)"/>
<rect x="479.541" y="324.541" width="94.9187" height="40.9187" rx="8.1099" stroke="url(#paint13_linear_6376_26315)" stroke-opacity="0.2" stroke-width="1.08132"/>
</g>
<path opacity="0.5" d="M539.488 355H524.012C522.901 355 522 355.901 522 357.012C522 358.123 522.901 359.023 524.012 359.023H539.488C540.599 359.023 541.5 358.123 541.5 357.012C541.5 355.901 540.599 355 539.488 355Z" fill="#76A5FF"/>
<path opacity="0.5" d="M565.807 338.4H524.394C523.183 338.4 522.201 339.382 522.201 340.593C522.201 341.805 523.183 342.786 524.394 342.786H565.807C567.018 342.786 568 341.805 568 340.593C568 339.382 567.018 338.4 565.807 338.4Z" fill="#8599AC"/>
<path opacity="0.5" d="M539.579 331H529.151C528.209 331 527.445 331.764 527.445 332.706C527.445 333.648 528.209 334.411 529.151 334.411H539.579C540.521 334.411 541.284 333.648 541.284 332.706C541.284 331.764 540.521 331 539.579 331Z" fill="#D2DCE4"/>
<path opacity="0.5" d="M555.68 346.8H524.021C523.016 346.8 522.201 347.701 522.201 348.812C522.201 349.923 523.016 350.824 524.021 350.824H555.68C556.685 350.824 557.5 349.923 557.5 348.812C557.5 347.701 556.685 346.8 555.68 346.8Z" fill="#B8C4D0"/>
<circle cx="523.75" cy="332.75" r="1.75" fill="#76A5FF"/>
<rect x="485" y="330" width="32" height="29" fill="#E7EEFF" fill-opacity="0.2"/>
<path d="M502.115 347.92C502.455 347.92 502.73 347.644 502.73 347.305V344.844C502.73 344.504 502.455 344.229 502.115 344.229H500.885C500.545 344.229 500.27 344.504 500.27 344.844V347.305C500.27 347.644 500.545 347.92 500.885 347.92H502.115Z" fill="#9FC0FF"/>
<path d="M510.154 337.461H505.807C505.807 337.337 505.807 336.722 505.807 336.846C505.807 335.828 504.979 335 503.961 335C503.827 335 498.856 335 499.039 335C498.021 335 497.193 335.828 497.193 336.846C497.193 336.97 497.193 337.585 497.193 337.461H492.846C491.828 337.461 491 338.289 491 339.307C491 340.512 491.148 341.567 491.441 342.466C491.734 343.365 492.173 344.109 492.755 344.69C493.735 345.668 494.983 346.074 496.384 346.074H499.039C499.039 345.95 499.039 344.72 499.039 344.844C499.039 343.826 499.867 342.998 500.885 342.998C501.009 342.998 502.239 342.998 502.115 342.998C503.133 342.998 503.961 343.826 503.961 344.844C503.961 344.968 503.961 346.198 503.961 346.074H505.328C506.553 346.023 508.556 346.396 510.244 344.715C510.827 344.135 511.266 343.391 511.559 342.487C511.852 341.584 512 340.521 512 339.307C512 338.289 511.172 337.461 510.154 337.461ZM498.424 336.846C498.424 336.506 498.7 336.23 499.039 336.23H503.961C504.3 336.23 504.576 336.506 504.576 336.846C504.576 336.97 504.576 337.585 504.576 337.461H498.424C498.424 337.337 498.424 336.722 498.424 336.846Z" fill="#9FC0FF"/>
<path d="M505.345 347.305H503.961C503.961 348.323 503.133 349.15 502.115 349.15C501.991 349.15 500.761 349.15 500.885 349.15C499.867 349.15 499.039 348.323 499.039 347.305C498.899 347.305 496.237 347.305 496.389 347.305C494.634 347.305 493.093 346.766 491.886 345.561C491.544 345.22 491.253 344.837 491 344.427V352.842C491 353.182 491.275 353.457 491.615 353.457H511.385C511.725 353.457 512 353.182 512 352.842V344.452C511.743 344.868 511.451 345.251 511.113 345.588C509.171 347.519 507.104 347.222 505.345 347.305Z" fill="#9FC0FF"/>
</g>
<defs>
<filter id="filter0_f_6376_26315" x="18" y="141" width="266" height="314" filterUnits="userSpaceOnUse" color-interpolation-filters="sRGB">
<feFlood flood-opacity="0" result="BackgroundImageFix"/>
<feBlend mode="normal" in="SourceGraphic" in2="BackgroundImageFix" result="shape"/>
<feGaussianBlur stdDeviation="35" result="effect1_foregroundBlur_6376_26315"/>
</filter>
<filter id="filter1_d_6376_26315" x="65.964" y="188.316" width="230.282" height="158.816" filterUnits="userSpaceOnUse" color-interpolation-filters="sRGB">
<feFlood flood-opacity="0" result="BackgroundImageFix"/>
<feColorMatrix in="SourceAlpha" type="matrix" values="0 0 0 0 0 0 0 0 0 0 0 0 0 0 0 0 0 0 127 0" result="hardAlpha"/>
<feOffset dx="5.6844" dy="5.6844"/>
<feGaussianBlur stdDeviation="5.6844"/>
<feColorMatrix type="matrix" values="0 0 0 0 0.0941177 0 0 0 0 0.188235 0 0 0 0 0.247059 0 0 0 0.05 0"/>
<feBlend mode="normal" in2="BackgroundImageFix" result="effect1_dropShadow_6376_26315"/>
<feBlend mode="normal" in="SourceGraphic" in2="effect1_dropShadow_6376_26315" result="shape"/>
</filter>
<filter id="filter2_d_6376_26315" x="61.4932" y="194.614" width="227.854" height="145.619" filterUnits="userSpaceOnUse" color-interpolation-filters="sRGB">
<feFlood flood-opacity="0" result="BackgroundImageFix"/>
<feColorMatrix in="SourceAlpha" type="matrix" values="0 0 0 0 0 0 0 0 0 0 0 0 0 0 0 0 0 0 127 0" result="hardAlpha"/>
<feOffset/>
<feGaussianBlur stdDeviation="5.07762"/>
<feColorMatrix type="matrix" values="0 0 0 0 0 0 0 0 0 0.0486432 0 0 0 0 0.221106 0 0 0 0.06 0"/>
<feBlend mode="normal" in2="BackgroundImageFix" result="effect1_dropShadow_6376_26315"/>
<feBlend mode="normal" in="SourceGraphic" in2="effect1_dropShadow_6376_26315" result="shape"/>
</filter>
<filter id="filter3_bd_6376_26315" x="32.6195" y="154.971" width="285.602" height="88.8269" filterUnits="userSpaceOnUse" color-interpolation-filters="sRGB">
<feFlood flood-opacity="0" result="BackgroundImageFix"/>
<feGaussianBlur in="BackgroundImageFix" stdDeviation="19.5145"/>
<feComposite in2="SourceAlpha" operator="in" result="effect1_backgroundBlur_6376_26315"/>
<feColorMatrix in="SourceAlpha" type="matrix" values="0 0 0 0 0 0 0 0 0 0 0 0 0 0 0 0 0 0 127 0" result="hardAlpha"/>
<feMorphology radius="1.40122" operator="erode" in="SourceAlpha" result="effect2_dropShadow_6376_26315"/>
<feOffset dy="5.60487"/>
<feGaussianBlur stdDeviation="13.8878"/>
<feComposite in2="hardAlpha" operator="out"/>
<feColorMatrix type="matrix" values="0 0 0 0 0 0 0 0 0 0 0 0 0 0 0 0 0 0 0.2 0"/>
<feBlend mode="normal" in2="effect1_backgroundBlur_6376_26315" result="effect2_dropShadow_6376_26315"/>
<feBlend mode="normal" in="SourceGraphic" in2="effect2_dropShadow_6376_26315" result="shape"/>
</filter>
<filter id="filter4_bd_6376_26315" x="343.971" y="187.971" width="261.558" height="88.058" filterUnits="userSpaceOnUse" color-interpolation-filters="sRGB">
<feFlood flood-opacity="0" result="BackgroundImageFix"/>
<feGaussianBlur in="BackgroundImageFix" stdDeviation="19.5145"/>
<feComposite in2="SourceAlpha" operator="in" result="effect1_backgroundBlur_6376_26315"/>
<feColorMatrix in="SourceAlpha" type="matrix" values="0 0 0 0 0 0 0 0 0 0 0 0 0 0 0 0 0 0 127 0" result="hardAlpha"/>
<feMorphology radius="1.40122" operator="erode" in="SourceAlpha" result="effect2_dropShadow_6376_26315"/>
<feOffset dy="5.60487"/>
<feGaussianBlur stdDeviation="13.8878"/>
<feComposite in2="hardAlpha" operator="out"/>
<feColorMatrix type="matrix" values="0 0 0 0 0 0 0 0 0 0 0 0 0 0 0 0 0 0 0.2 0"/>
<feBlend mode="normal" in2="effect1_backgroundBlur_6376_26315" result="effect2_dropShadow_6376_26315"/>
<feBlend mode="normal" in="SourceGraphic" in2="effect2_dropShadow_6376_26315" result="shape"/>
</filter>
<filter id="filter5_dd_6376_26315" x="374.108" y="228.108" width="211.447" height="140.947" filterUnits="userSpaceOnUse" color-interpolation-filters="sRGB">
<feFlood flood-opacity="0" result="BackgroundImageFix"/>
<feColorMatrix in="SourceAlpha" type="matrix" values="0 0 0 0 0 0 0 0 0 0 0 0 0 0 0 0 0 0 127 0" result="hardAlpha"/>
<feOffset dx="6.35154" dy="6.35154"/>
<feGaussianBlur stdDeviation="6.35154"/>
<feColorMatrix type="matrix" values="0 0 0 0 0 0 0 0 0 0.296699 0 0 0 0 0.858629 0 0 0 0.08 0"/>
<feBlend mode="normal" in2="BackgroundImageFix" result="effect1_dropShadow_6376_26315"/>
<feColorMatrix in="SourceAlpha" type="matrix" values="0 0 0 0 0 0 0 0 0 0 0 0 0 0 0 0 0 0 127 0" result="hardAlpha"/>
<feOffset/>
<feGaussianBlur stdDeviation="4.44608"/>
<feComposite in2="hardAlpha" operator="out"/>
<feColorMatrix type="matrix" values="0 0 0 0 0.0354167 0 0 0 0 0.105426 0 0 0 0 0.2125 0 0 0 0.07 0"/>
<feBlend mode="normal" in2="effect1_dropShadow_6376_26315" result="effect2_dropShadow_6376_26315"/>
<feBlend mode="normal" in="SourceGraphic" in2="effect2_dropShadow_6376_26315" result="shape"/>
</filter>
<filter id="filter6_dd_6376_26315" x="338.734" y="267.802" width="36.9925" height="36.9923" filterUnits="userSpaceOnUse" color-interpolation-filters="sRGB">
<feFlood flood-opacity="0" result="BackgroundImageFix"/>
<feColorMatrix in="SourceAlpha" type="matrix" values="0 0 0 0 0 0 0 0 0 0 0 0 0 0 0 0 0 0 127 0" result="hardAlpha"/>
<feOffset/>
<feGaussianBlur stdDeviation="2.76644"/>
<feColorMatrix type="matrix" values="0 0 0 0 0.239216 0 0 0 0 0.498039 0 0 0 0 0.988235 0 0 0 1 0"/>
<feBlend mode="normal" in2="BackgroundImageFix" result="effect1_dropShadow_6376_26315"/>
<feColorMatrix in="SourceAlpha" type="matrix" values="0 0 0 0 0 0 0 0 0 0 0 0 0 0 0 0 0 0 127 0" result="hardAlpha"/>
<feOffset/>
<feGaussianBlur stdDeviation="6.9161"/>
<feColorMatrix type="matrix" values="0 0 0 0 0.239216 0 0 0 0 0.498039 0 0 0 0 0.988235 0 0 0 1 0"/>
<feBlend mode="normal" in2="effect1_dropShadow_6376_26315" result="effect2_dropShadow_6376_26315"/>
<feBlend mode="normal" in="SourceGraphic" in2="effect2_dropShadow_6376_26315" result="shape"/>
</filter>
<filter id="filter7_bd_6376_26315" x="142.742" y="250.303" width="194.125" height="137.125" filterUnits="userSpaceOnUse" color-interpolation-filters="sRGB">
<feFlood flood-opacity="0" result="BackgroundImageFix"/>
<feGaussianBlur in="BackgroundImageFix" stdDeviation="24.8487"/>
<feComposite in2="SourceAlpha" operator="in" result="effect1_backgroundBlur_6376_26315"/>
<feColorMatrix in="SourceAlpha" type="matrix" values="0 0 0 0 0 0 0 0 0 0 0 0 0 0 0 0 0 0 127 0" result="hardAlpha"/>
<feMorphology radius="1.78423" operator="erode" in="SourceAlpha" result="effect2_dropShadow_6376_26315"/>
<feOffset dy="7.13694"/>
<feGaussianBlur stdDeviation="17.684"/>
<feComposite in2="hardAlpha" operator="out"/>
<feColorMatrix type="matrix" values="0 0 0 0 0 0 0 0 0 0 0 0 0 0 0 0 0 0 0.2 0"/>
<feBlend mode="normal" in2="effect1_backgroundBlur_6376_26315" result="effect2_dropShadow_6376_26315"/>
<feBlend mode="normal" in="SourceGraphic" in2="effect2_dropShadow_6376_26315" result="shape"/>
</filter>
<filter id="filter8_bd_6376_26315" x="124.125" y="293.742" width="213.125" height="137.125" filterUnits="userSpaceOnUse" color-interpolation-filters="sRGB">
<feFlood flood-opacity="0" result="BackgroundImageFix"/>
<feGaussianBlur in="BackgroundImageFix" stdDeviation="24.8487"/>
<feComposite in2="SourceAlpha" operator="in" result="effect1_backgroundBlur_6376_26315"/>
<feColorMatrix in="SourceAlpha" type="matrix" values="0 0 0 0 0 0 0 0 0 0 0 0 0 0 0 0 0 0 127 0" result="hardAlpha"/>
<feMorphology radius="1.78423" operator="erode" in="SourceAlpha" result="effect2_dropShadow_6376_26315"/>
<feOffset dy="7.13694"/>
<feGaussianBlur stdDeviation="17.684"/>
<feComposite in2="hardAlpha" operator="out"/>
<feColorMatrix type="matrix" values="0 0 0 0 0 0 0 0 0 0 0 0 0 0 0 0 0 0 0.2 0"/>
<feBlend mode="normal" in2="effect1_backgroundBlur_6376_26315" result="effect2_dropShadow_6376_26315"/>
<feBlend mode="normal" in="SourceGraphic" in2="effect2_dropShadow_6376_26315" result="shape"/>
</filter>
<filter id="filter9_bd_6376_26315" x="104.303" y="337.182" width="239.125" height="137.125" filterUnits="userSpaceOnUse" color-interpolation-filters="sRGB">
<feFlood flood-opacity="0" result="BackgroundImageFix"/>
<feGaussianBlur in="BackgroundImageFix" stdDeviation="24.8487"/>
<feComposite in2="SourceAlpha" operator="in" result="effect1_backgroundBlur_6376_26315"/>
<feColorMatrix in="SourceAlpha" type="matrix" values="0 0 0 0 0 0 0 0 0 0 0 0 0 0 0 0 0 0 127 0" result="hardAlpha"/>
<feMorphology radius="1.78423" operator="erode" in="SourceAlpha" result="effect2_dropShadow_6376_26315"/>
<feOffset dy="7.13694"/>
<feGaussianBlur stdDeviation="17.684"/>
<feComposite in2="hardAlpha" operator="out"/>
<feColorMatrix type="matrix" values="0 0 0 0 0 0 0 0 0 0 0 0 0 0 0 0 0 0 0.2 0"/>
<feBlend mode="normal" in2="effect1_backgroundBlur_6376_26315" result="effect2_dropShadow_6376_26315"/>
<feBlend mode="normal" in="SourceGraphic" in2="effect2_dropShadow_6376_26315" result="shape"/>
</filter>
<filter id="filter10_bd_6376_26315" x="429.303" y="274.303" width="195.395" height="141.395" filterUnits="userSpaceOnUse" color-interpolation-filters="sRGB">
<feFlood flood-opacity="0" result="BackgroundImageFix"/>
<feGaussianBlur in="BackgroundImageFix" stdDeviation="24.8487"/>
<feComposite in2="SourceAlpha" operator="in" result="effect1_backgroundBlur_6376_26315"/>
<feColorMatrix in="SourceAlpha" type="matrix" values="0 0 0 0 0 0 0 0 0 0 0 0 0 0 0 0 0 0 127 0" result="hardAlpha"/>
<feMorphology radius="1.78423" operator="erode" in="SourceAlpha" result="effect2_dropShadow_6376_26315"/>
<feOffset dy="7.13694"/>
<feGaussianBlur stdDeviation="17.684"/>
<feComposite in2="hardAlpha" operator="out"/>
<feColorMatrix type="matrix" values="0 0 0 0 0 0 0 0 0 0 0 0 0 0 0 0 0 0 0.2 0"/>
<feBlend mode="normal" in2="effect1_backgroundBlur_6376_26315" result="effect2_dropShadow_6376_26315"/>
<feBlend mode="normal" in="SourceGraphic" in2="effect2_dropShadow_6376_26315" result="shape"/>
</filter>
<linearGradient id="paint0_linear_6376_26315" x1="89.1451" y1="204.769" x2="265.217" y2="348.609" gradientUnits="userSpaceOnUse">
<stop stop-color="#0C2966"/>
<stop offset="1" stop-color="#0045C9"/>
</linearGradient>
<linearGradient id="paint1_linear_6376_26315" x1="101.683" y1="193.537" x2="104.92" y2="223.17" gradientUnits="userSpaceOnUse">
<stop offset="0.28" stop-color="#092349"/>
<stop offset="1" stop-color="#003C97"/>
</linearGradient>
<linearGradient id="paint2_linear_6376_26315" x1="409.555" y1="226.57" x2="412.708" y2="254.054" gradientUnits="userSpaceOnUse">
<stop offset="0.28" stop-color="#092349"/>
<stop offset="1" stop-color="#003C97"/>
</linearGradient>
<linearGradient id="paint3_linear_6376_26315" x1="398.47" y1="254" x2="535.887" y2="383.56" gradientUnits="userSpaceOnUse">
<stop stop-color="#0C2966"/>
<stop offset="1" stop-color="#0045C9"/>
</linearGradient>
<linearGradient id="paint4_linear_6376_26315" x1="434.861" y1="293.897" x2="488.963" y2="293.897" gradientUnits="userSpaceOnUse">
<stop stop-color="#3D7FFC"/>
<stop offset="0.825907" stop-color="#3D8BFC" stop-opacity="0"/>
</linearGradient>
<linearGradient id="paint5_linear_6376_26315" x1="434.861" y1="293.897" x2="454.656" y2="294.071" gradientUnits="userSpaceOnUse">
<stop stop-color="#3D7FFC"/>
<stop offset="0.825907" stop-color="#3D8BFC" stop-opacity="0"/>
</linearGradient>
<linearGradient id="paint6_linear_6376_26315" x1="206.148" y1="298.378" x2="257.876" y2="360.062" gradientUnits="userSpaceOnUse">
<stop offset="0.28" stop-color="#092349"/>
<stop offset="1" stop-color="#003C97"/>
</linearGradient>
<linearGradient id="paint7_linear_6376_26315" x1="205.317" y1="300.755" x2="247.207" y2="357.016" gradientUnits="userSpaceOnUse">
<stop stop-color="white" stop-opacity="0"/>
<stop offset="1" stop-color="#BBB7FF"/>
</linearGradient>
<linearGradient id="paint8_linear_6376_26315" x1="190.281" y1="341.818" x2="239.602" y2="412.43" gradientUnits="userSpaceOnUse">
<stop offset="0.28" stop-color="#092349"/>
<stop offset="1" stop-color="#003C97"/>
</linearGradient>
<linearGradient id="paint9_linear_6376_26315" x1="189.283" y1="344.194" x2="228.452" y2="407.353" gradientUnits="userSpaceOnUse">
<stop stop-color="white" stop-opacity="0"/>
<stop offset="1" stop-color="#BBB7FF"/>
</linearGradient>
<linearGradient id="paint10_linear_6376_26315" x1="174.221" y1="385.258" x2="219.361" y2="464.657" gradientUnits="userSpaceOnUse">
<stop offset="0.28" stop-color="#092349"/>
<stop offset="1" stop-color="#003C97"/>
</linearGradient>
<linearGradient id="paint11_linear_6376_26315" x1="172.995" y1="387.634" x2="208.174" y2="457.327" gradientUnits="userSpaceOnUse">
<stop stop-color="white" stop-opacity="0"/>
<stop offset="1" stop-color="#BBB7FF"/>
</linearGradient>
<linearGradient id="paint12_linear_6376_26315" x1="492.892" y1="322.195" x2="551.171" y2="385.463" gradientUnits="userSpaceOnUse">
<stop offset="0.28" stop-color="#092349"/>
<stop offset="1" stop-color="#003C97"/>
</linearGradient>
<linearGradient id="paint13_linear_6376_26315" x1="492.05" y1="324.84" x2="539.756" y2="383.17" gradientUnits="userSpaceOnUse">
<stop stop-color="white" stop-opacity="0"/>
<stop offset="1" stop-color="#BBB7FF"/>
</linearGradient>
<clipPath id="clip0_6376_26315">
<rect width="589" height="577" fill="white"/>
</clipPath>
</defs>
</svg>
