<svg width="588" height="311" viewBox="0 0 588 311" fill="none" xmlns="http://www.w3.org/2000/svg">
<path d="M0 8C0 3.58172 3.58172 0 8 0H580C584.418 0 588 3.58172 588 8V303C588 307.418 584.418 311 580 311H7.99998C3.58171 311 0 307.418 0 303V8Z" fill="#22395B"/>
<mask id="mask0_6376_26919" style="mask-type:alpha" maskUnits="userSpaceOnUse" x="286" y="76" width="17" height="18">
<circle cx="294.267" cy="84.9769" r="8.26314" fill="#C4C4C4"/>
</mask>
<g mask="url(#mask0_6376_26919)">
<path d="M294.056 93.5358C298.72 93.5358 302.501 89.7556 302.501 85.0925C302.501 80.4295 298.72 76.6493 294.056 76.6493C289.392 76.6493 285.611 80.4295 285.611 85.0925C285.611 89.7556 289.392 93.5358 294.056 93.5358Z" fill="#5D5FEF"/>
<path d="M291.045 90.9651C291.811 90.9651 292.432 90.0668 292.432 88.9588C292.432 87.8508 291.811 86.9525 291.045 86.9525C290.28 86.9525 289.659 87.8508 289.659 88.9588C289.659 90.0668 290.28 90.9651 291.045 90.9651Z" fill="#FEB79C"/>
<path d="M290.072 92.2626L298.573 91.7881C298.573 91.7881 299.87 88.2454 299.579 88.0105C299.283 87.7755 294.382 85.1772 294.382 85.1772L289.598 85.2947L290.072 92.2626Z" fill="#2C2D00"/>
<path d="M294.439 100.527C297.634 100.527 300.224 98.1756 300.224 95.2744C300.224 92.3733 297.634 90.0215 294.439 90.0215C291.244 90.0215 288.654 92.3733 288.654 95.2744C288.654 98.1756 291.244 100.527 294.439 100.527Z" fill="#9FC0FF"/>
<path d="M294.149 91.7319C293.459 91.7319 292.891 91.298 292.873 90.758L292.792 88.2753C292.774 87.7257 293.335 87.2629 294.038 87.2532C294.748 87.2436 295.334 87.6775 295.346 88.227L295.426 90.7098C295.445 91.2594 294.883 91.7222 294.18 91.7319C294.174 91.7319 294.162 91.7319 294.149 91.7319Z" fill="#FEB79C"/>
<path d="M294.062 87.1599C293.606 87.1693 293.23 87.4982 293.136 87.9257L293.173 89.3964C293.187 89.9273 293.62 90.3455 294.146 90.3455C294.155 90.3455 294.16 90.3455 294.17 90.3455C294.625 90.3361 295.001 90.0072 295.095 89.5796L295.058 88.109C295.044 87.5687 294.602 87.1458 294.062 87.1599Z" fill="#FAA887"/>
<path d="M297.097 84.5897C297.097 86.7886 295.325 89.2835 293.864 89.2835C292.755 89.2835 290.631 86.7933 290.631 84.5897C290.631 82.3908 292.078 80.6053 293.864 80.6053C295.65 80.6053 297.097 82.3908 297.097 84.5897Z" fill="#FEB79C"/>
<path d="M292.356 81.3991C292.055 81.432 291.731 81.6575 291.411 81.9911C290.922 82.6865 290.631 83.5933 290.631 84.5894C290.631 85.7969 291.27 87.089 292.031 88.0146C291.684 87.2958 291.524 86.5722 291.961 85.6983C292.356 84.9042 292.934 83.1282 292.934 83.1282C292.934 83.1282 293.554 81.2676 292.356 81.3991Z" fill="#FAA887"/>
<path d="M293.864 80.6053C292.746 80.6053 291.763 81.3054 291.181 82.3673C291.477 82.9969 292.445 84.6179 294.705 85.0783C296.51 85.4448 295.434 87.1316 295.405 88.5036C296.341 87.5921 297.097 86.0275 297.097 84.5897C297.097 82.3908 295.65 80.6053 293.864 80.6053Z" fill="#FAA887"/>
<path d="M291.431 81.7563C291.431 81.7563 292.24 84.1478 295.064 84.7211C297.235 85.1627 295.242 87.512 295.905 88.9262C296.399 89.9787 297.498 89.725 296.657 90.7869C295.816 91.8487 296.478 95.4337 299.002 94.6397C301.525 93.8409 301.925 89.6357 300.952 87.9114C299.979 86.1823 298.692 85.6091 298.56 84.0163C298.429 82.4235 297.23 79.9004 294.754 79.7218C293.184 79.6091 291.032 79.454 291.431 81.7563Z" fill="#2E2F06"/>
<path d="M292.403 82.7284C292.403 82.7284 291.825 84.5044 291.43 85.2985C290.768 86.6282 291.473 87.6008 292.14 88.7519C292.629 89.5976 292.013 90.7253 291.651 91.275C290.989 92.2946 290.411 92.5154 291.163 93.3095C291.915 94.1082 287.619 97.073 287.178 94.3714C286.736 91.6697 288.019 90.7394 288.639 89.499C289.259 88.2586 287.976 88.3056 288.728 85.6039C289.118 84.2084 290.632 81.1309 291.83 80.9993C293.024 80.8678 292.403 82.7284 292.403 82.7284Z" fill="#2E2F06"/>
</g>
<mask id="mask1_6376_26919" style="mask-type:alpha" maskUnits="userSpaceOnUse" x="261" y="65" width="19" height="19">
<circle cx="270.536" cy="74.8071" r="9.11064" fill="#C4C4C4"/>
</mask>
<g mask="url(#mask1_6376_26919)">
<circle cx="270.564" cy="74.8329" r="8.87089" fill="#F178B6"/>
<path d="M276.803 81.3842C276.767 80.2063 275.831 79.6579 276.141 78.5491C276.422 77.535 276.728 77.2371 276.62 76.4558C276.527 75.7692 275.967 75.4378 275.744 74.2442C275.575 73.3347 276.154 72.7053 275.581 71.3637C274.189 68.0946 272.435 67.6467 270.068 67.7868C268.912 67.8559 268.728 68.3491 268.425 68.4675C268.104 68.5918 268.072 68.501 267.835 68.5602C267.301 68.6963 266.271 69.8268 266.217 72.3462C266.194 73.4885 265.433 73.088 264.978 73.9897C264.495 74.9446 265.445 76.0671 264.217 76.294C262.699 76.5742 262.311 77.8152 262.364 78.4425C262.526 80.3208 261.679 80.2478 261.186 80.8752C260.07 82.2917 261.123 84.3455 261.47 85.0005C263.758 89.3311 271.852 90.8443 275.951 83.7872C276.168 83.4143 276.838 82.6212 276.803 81.3842Z" fill="#352F60"/>
<path d="M275.359 91.0124C276.841 86.597 278.879 83.395 277.809 81.6154C276.784 79.9108 276.469 79.9009 275.676 79.824C272.616 79.5221 272.643 78.5435 271.019 78.5929C270.988 78.5929 270.791 78.5929 270.755 78.5929C269.143 78.5475 269.163 79.5221 266.11 79.824C265.318 79.9029 265.002 79.9108 263.977 81.6154C262.907 83.395 264.945 86.597 266.427 91.0124C267.217 93.3681 265.95 95.6133 265.536 96.436C265.077 97.3455 264.872 97.2488 264.943 97.8979C265.057 98.9218 267.787 99.7051 270.507 99.6794C270.635 99.6775 271.206 99.6794 271.364 99.6794C274.056 99.6893 276.731 98.912 276.843 97.8979C276.914 97.2508 276.709 97.3475 276.25 96.436C275.836 95.6133 274.569 93.37 275.359 91.0124Z" fill="#C6DBFF"/>
<path d="M272.687 79.1629C272.409 76.2568 272.363 74.0333 271.624 74.3608C271.366 74.4752 271.126 74.6153 270.897 74.8047C270.668 74.6153 270.428 74.4752 270.17 74.3608C269.431 74.0333 269.385 76.2587 269.107 79.1629C269.064 79.6048 269.728 81.5225 270.897 81.5225C271.944 81.5225 272.728 79.6048 272.687 79.1629Z" fill="#FFCDBA"/>
<path d="M269.271 77.2601C269.261 77.3825 270.154 78.5919 270.887 78.5919C271.732 78.5919 272.528 77.3825 272.519 77.2621C272.199 77.5738 271.574 78.0986 270.887 78.0986C270.276 78.0967 269.602 77.5719 269.271 77.2601Z" fill="#EBB7A2"/>
<path d="M273.985 70.5448C273.646 69.3413 272.334 68.6508 270.893 68.6784C269.454 68.6508 268.14 69.3413 267.801 70.5448C267.574 71.3497 267.554 71.9653 267.718 73.2299C267.86 74.3328 268.002 75.996 269.168 77.1916C269.442 77.4717 270.203 78.1287 270.885 78.1287C271.654 78.1287 272.343 77.4717 272.617 77.1916C273.782 75.996 273.926 74.3308 274.068 73.2299C274.231 71.9653 274.212 71.3517 273.985 70.5448Z" fill="#FFCDBA"/>
<path d="M274.818 71.6676C274.87 70.3675 274.064 68.6175 272.808 68.6491C272.583 68.655 272.461 68.7319 272.4 68.8365C272.128 68.6135 271.531 68.2347 270.863 68.2347C270.215 68.2347 269.649 68.6096 269.389 68.8325C269.326 68.7319 269.205 68.655 268.983 68.6491C267.727 68.6175 266.921 70.3675 266.972 71.6676C266.996 72.2851 266.872 72.9934 267.164 73.1335C267.784 73.4334 268.393 72.3029 268.823 71.1902C268.786 71.7505 268.799 72.2161 268.837 72.4647C268.861 72.6225 268.951 72.7133 269.16 72.731C269.16 72.731 269.676 72.8277 270.81 72.8119C270.837 72.8119 270.952 72.8119 270.979 72.8119C272.112 72.8277 272.629 72.731 272.629 72.731C272.838 72.7133 272.928 72.6225 272.952 72.4647C272.989 72.2181 273.005 71.7525 272.966 71.1902C273.395 72.3029 274.004 73.4334 274.625 73.1335C274.917 72.9934 274.793 72.2851 274.818 71.6676Z" fill="#352F60"/>
</g>
<path d="M262.54 98.8351L276.033 116.263H310.376L323.869 98.8351H262.54Z" fill="#3D7FFC"/>
<path d="M310.376 116.263H276.033L286.602 129.906V143.695H299.816V129.906L310.376 116.263Z" fill="#76A5FF"/>
<path d="M328.374 92.1486H258.031V99.5431H328.374V92.1486Z" fill="#76A5FF"/>
<path d="M328.374 92.1486H258.031V95.8424H328.374V92.1486Z" fill="#3D7FFC"/>
<path d="M310.375 104.82H314.212L309.258 110.631H305.244L310.375 104.82Z" fill="#F8F9F9"/>
<mask id="mask2_6376_26919" style="mask-type:alpha" maskUnits="userSpaceOnUse" x="283" y="50" width="21" height="20">
<circle cx="293.418" cy="59.9757" r="9.95815" fill="#C4C4C4"/>
</mask>
<g mask="url(#mask2_6376_26919)">
<circle cx="293.206" cy="59.7639" r="10.17" fill="#15C1E6"/>
<path d="M290.458 60.9488L290.161 60.832C289.992 60.765 289.852 60.6411 289.768 60.4798C289.654 60.2617 289.523 59.9298 289.535 59.5776C289.557 58.9668 290.017 58.2017 290.232 58.4316C290.446 58.6614 290.727 59.4249 290.727 59.4249V60.9488H290.458Z" fill="#E7C6A7"/>
<path d="M297.23 60.9488L297.762 60.7385C297.762 60.7385 298.174 60.1884 298.152 59.5776C298.13 58.9668 297.67 58.2017 297.455 58.4316C297.241 58.6614 296.96 59.4249 296.96 59.4249V60.9488H297.23Z" fill="#E7C6A7"/>
<path d="M297.229 60.9488L297.522 60.8327C297.696 60.7641 297.84 60.634 297.925 60.4673C298.037 60.2491 298.164 59.9227 298.152 59.5768C298.13 58.966 297.67 58.2009 297.455 58.4307C297.241 58.6605 296.96 59.4241 296.96 59.4241V60.948H297.229V60.9488Z" fill="#E7C6A7"/>
<path d="M291.647 61.9566C291.647 61.9566 291.813 64.4692 291.305 65.0317C290.695 65.7087 287.94 66.1964 288.075 66.4348C288.075 66.4348 289.862 69.5777 293.632 69.5777C297.402 69.5777 299.253 66.7878 299.536 66.3858C299.621 66.1996 296.952 65.7126 296.429 65.1891C295.916 64.6764 295.897 61.8584 295.897 61.8584L291.647 61.9566Z" fill="#E7C6A7"/>
<path d="M298.811 66.8508C298.967 66.6357 299.117 66.43 299.258 66.2337C299.189 66.2103 299.115 66.1838 299.036 66.155C298.256 65.9151 296.797 65.5606 296.426 65.1889C296.01 64.7729 295.919 62.8368 295.899 62.1232L291.806 62.5361C291.816 62.7379 291.825 62.9724 291.83 63.2162L296.834 68.7284C296.991 68.6458 298.668 66.9388 298.811 66.8508Z" fill="#DFB996"/>
<path d="M297.222 58.4936C297.222 59.6755 297.033 60.9586 296.782 61.8593C296.752 61.9676 296.704 62.0704 296.641 62.1639C295.786 63.4175 294.577 64.4171 293.747 64.4171C292.848 64.4171 291.754 63.5437 290.909 62.1826C290.85 62.0876 290.83 61.9746 290.783 61.8725C290.34 60.9298 290.235 59.6817 290.273 58.4936C290.375 55.2837 291.828 52.6783 293.747 52.6783C295.666 52.6783 297.222 55.2821 297.222 58.4936Z" fill="#E7C6A7"/>
<path d="M299.051 59.7345C299.051 55.5141 296.804 52.0923 293.676 52.0923C290.546 52.0923 288.894 55.532 288.504 59.7345C288.401 60.8393 287.468 62.6016 288.515 64.1575C288.594 64.2751 288.772 64.4107 288.901 64.4699C289.439 64.7184 290.222 65.1025 290.698 65.2365C290.772 65.2576 290.318 64.3998 290.392 64.3709C290.392 64.3709 291.165 64.1341 291.602 64.1177C291.602 64.1177 291.669 63.63 291.665 63.1976C291.665 63.1976 290.685 62.1326 290.483 60.9491C290.481 60.9483 290.48 60.9468 290.478 60.9452C289.81 60.4521 289.742 60.2838 289.678 60.0235C289.457 59.1198 290.019 57.9613 290.269 58.6656C290.692 57.8078 291.023 56.3096 291.023 56.3096C291.069 56.3259 291.01 57.1268 291.058 57.1455C291.337 57.2523 291.743 57.3699 292.226 57.4315C292.261 57.4361 292.297 56.657 292.332 56.6586C292.364 56.6602 292.394 57.4385 292.426 57.4424C293.77 57.5982 295.413 57.4993 296.498 57.2359C296.568 57.2188 296.558 56.5612 296.624 56.5425C296.688 57.306 296.927 58.1249 297.216 58.8214C297.455 58.3905 297.704 58.5542 297.827 58.9133C297.983 59.3714 297.777 60.0033 297.528 60.3835C297.443 60.5128 297.006 60.8198 296.985 60.9499C296.985 60.9499 296.935 61.468 296.61 62.1871C296.554 62.3133 296.489 62.3834 295.944 63.0441C295.945 63.6207 296.02 63.891 296.043 63.9853C296.043 63.9853 296.968 64.0811 297.384 64.2307C297.41 64.24 296.932 65.2482 296.959 65.2404C297.437 65.0854 298.771 64.6935 299.074 64.2385C300.028 62.9943 299.168 61.4641 299.051 59.7345Z" fill="#514B4E"/>
<path opacity="0.41" d="M291.665 63.1982C291.665 63.1982 290.698 62.1371 290.482 60.9497C290.004 61.693 289.84 63.4857 290.392 64.3723C290.392 64.3723 291.165 64.1355 291.601 64.1191C291.601 64.1183 291.669 63.6306 291.665 63.1982Z" fill="black"/>
<path opacity="0.41" d="M296.987 60.9589C296.987 60.9589 296.987 60.983 296.975 61.0414C296.945 61.2206 296.856 61.6468 296.613 62.1859C296.557 62.3122 296.492 62.3823 295.947 63.043C295.948 63.6195 296.023 63.8898 296.045 63.9841C296.045 63.9841 296.971 64.0799 297.387 64.2295C297.603 63.1045 297.415 61.7395 296.987 60.9589Z" fill="black"/>
<path d="M298.074 65.8742L298.096 65.8867C298.08 65.9171 297.688 66.63 296.962 67.3499C296.533 67.776 296.076 68.1157 295.601 68.3611C295.001 68.6712 294.375 68.8286 293.739 68.8286C293.11 68.8286 292.497 68.672 291.917 68.3635C291.459 68.1196 291.021 67.7799 290.617 67.3553C289.932 66.637 289.544 65.8501 289.544 65.8501C288.731 66.1002 283.873 67.3553 285.948 69.5773C285.948 69.5773 289.969 71.1785 293.739 71.1785C297.509 71.1785 303.688 67.5788 301.507 66.6143C304.016 67.0779 298.848 66.1025 298.074 65.8742Z" fill="#3D7FFC"/>
<path d="M289.553 65.8759C289.568 65.9063 289.931 66.6363 290.615 67.3554C291.02 67.7801 291.458 68.1197 291.916 68.3636C292.495 68.6721 293.109 68.8287 293.738 68.8287C294.374 68.8287 295 68.6713 295.6 68.3613C296.074 68.1166 296.532 67.7762 296.961 67.35C297.687 66.6301 298.079 65.9164 298.095 65.8868L298.072 65.8744C297.909 65.8261 297.743 65.7754 297.582 65.7232C297.46 65.9266 297.12 66.4525 296.591 66.9768C295.705 67.8572 294.745 68.3028 293.739 68.3028C292.747 68.3028 291.825 67.8619 290.996 66.9932C290.472 66.4431 290.156 65.8658 290.057 65.6812C289.89 65.7372 289.709 65.7996 289.541 65.851L289.553 65.8759Z" fill="#3D7FFC"/>
</g>
<mask id="mask3_6376_26919" style="mask-type:alpha" maskUnits="userSpaceOnUse" x="309" y="68" width="17" height="17">
<circle cx="317.574" cy="76.5019" r="7.83939" fill="#C4C4C4"/>
</mask>
<g mask="url(#mask3_6376_26919)">
<circle cx="317.574" cy="76.7467" r="7.83939" fill="#9D97F4"/>
<path d="M312.838 76.8504C312.876 76.8156 312.872 76.7495 312.834 76.7182C312.665 76.5825 312.573 76.4033 312.604 76.2328C312.625 76.1197 312.698 76.0275 312.805 75.9614C312.831 75.9457 312.846 75.9127 312.845 75.8814C312.688 75.8031 312.597 75.6343 312.637 75.4743C312.657 75.3942 312.707 75.3281 312.773 75.2864C312.773 75.2794 312.775 75.2725 312.775 75.2672C312.778 75.2446 312.775 75.2203 312.761 75.2046C312.403 74.8549 312.498 73.4979 313.769 73.2979C313.823 73.2892 313.854 73.2231 313.828 73.1709C313.669 72.8716 313.633 72.5463 313.755 72.2819C313.976 71.8034 314.635 71.706 315.229 72.0661C315.237 72.0714 315.244 72.0766 315.253 72.0818C315.305 72.1149 315.368 72.0696 315.366 72.0035C315.354 71.4625 315.511 71.0258 315.798 70.9144C316.071 70.8083 316.391 71.0206 316.638 71.4259C316.67 71.4781 316.741 71.4729 316.767 71.4172C316.92 71.0954 317.148 70.904 317.326 70.9771C317.444 71.0258 317.512 71.1789 317.526 71.3824C317.531 71.4538 317.606 71.4868 317.653 71.4346C318.133 70.9057 318.704 70.7109 318.986 71.0032C319.146 71.1684 319.183 71.459 319.111 71.7913C319.096 71.8626 319.165 71.9165 319.223 71.88C319.672 71.5895 320.185 71.5929 320.519 71.9391C320.758 72.1862 320.857 72.5567 320.824 72.9499C320.82 72.9899 320.841 73.0265 320.874 73.0386C321.061 73.1082 321.24 73.2231 321.396 73.3849C321.929 73.9363 322.028 74.8375 321.657 75.4934C321.63 75.5421 321.652 75.6047 321.701 75.6204C322.03 75.7196 322.26 76.0031 322.247 76.3337C322.235 76.6294 322.03 76.88 321.746 76.9878C321.684 77.0122 321.675 77.1079 321.734 77.1427C321.992 77.2923 322.145 77.5532 322.098 77.809C322.044 78.096 321.751 78.2822 321.41 78.2683C321.349 78.2648 321.309 78.3396 321.341 78.3988C321.483 78.6649 321.523 78.9172 321.424 79.0268C321.327 79.1329 321.123 79.0755 320.913 78.9033C320.864 78.8633 320.794 78.905 320.793 78.9729C320.787 79.246 320.686 79.4774 320.511 79.5678C320.35 79.6496 320.163 79.5939 320.004 79.4426C319.964 79.4043 319.9 79.4235 319.882 79.4809C319.794 79.7871 319.593 80.0063 319.359 80.0167C319.172 80.0254 319.005 79.8984 318.896 79.6966C318.878 79.6635 318.843 79.6514 318.81 79.6635C318.347 79.8288 317.846 79.9141 317.324 79.9019C316.666 79.8862 316.132 79.7314 315.599 79.4426C315.554 79.4182 315.499 79.4478 315.488 79.5035C315.399 79.9767 315.032 80.1228 314.625 80.0324C314.48 79.9993 314.303 79.8532 314.275 79.7331C314.27 79.714 314.226 79.6601 314.143 79.6966C313.798 79.8479 313.424 79.3887 313.513 78.9172C313.534 78.8076 313.57 78.7084 313.621 78.6197C313.647 78.5727 313.612 78.4475 313.478 78.4736C313.428 78.484 313.372 78.4701 313.313 78.4579C312.904 78.3709 312.472 77.8386 312.559 77.3654C312.603 77.1496 312.702 76.9739 312.838 76.8504Z" fill="#60514B"/>
<path d="M312.738 80.7428C312.776 80.7081 312.773 80.6419 312.735 80.6106C312.566 80.4749 312.473 80.2957 312.505 80.1252C312.526 80.0122 312.599 79.92 312.705 79.8538C312.731 79.8382 312.747 79.8051 312.745 79.7738C312.588 79.6955 312.498 79.5268 312.538 79.3667C312.557 79.2867 312.607 79.2206 312.674 79.1788C312.674 79.1719 312.675 79.1649 312.675 79.1597C312.679 79.1371 312.675 79.1127 312.661 79.0971C312.303 78.7474 312.399 77.3904 313.669 77.1903C313.723 77.1816 313.754 77.1155 313.728 77.0633C313.57 76.7641 313.533 76.4388 313.655 76.1743C313.876 75.6959 314.536 75.5985 315.129 75.9586C315.138 75.9638 315.145 75.969 315.154 75.9743C315.206 76.0073 315.268 75.9621 315.267 75.896C315.254 75.3549 315.411 74.9182 315.698 74.8069C315.971 74.7008 316.292 74.913 316.539 75.3184C316.57 75.3706 316.641 75.3654 316.668 75.3097C316.821 74.9878 317.049 74.7965 317.226 74.8695C317.345 74.9182 317.412 75.0713 317.426 75.2749C317.432 75.3462 317.506 75.3793 317.553 75.3271C318.034 74.7982 318.605 74.6033 318.886 74.8956C319.047 75.0609 319.083 75.3514 319.012 75.6837C318.996 75.755 319.066 75.809 319.123 75.7724C319.572 75.4819 320.086 75.4854 320.42 75.8316C320.658 76.0786 320.757 76.4492 320.724 76.8424C320.721 76.8824 320.742 76.9189 320.775 76.9311C320.961 77.0007 321.14 77.1155 321.297 77.2773C321.829 77.8288 321.929 78.73 321.558 79.3859C321.53 79.4346 321.553 79.4972 321.601 79.5129C321.93 79.612 322.16 79.8956 322.148 80.2262C322.136 80.5219 321.93 80.7724 321.647 80.8803C321.584 80.9046 321.575 81.0003 321.634 81.0351C321.892 81.1847 322.045 81.4457 321.998 81.7014C321.944 81.9885 321.652 82.1746 321.311 82.1607C321.25 82.1572 321.21 82.2321 321.241 82.2912C321.384 82.5574 321.424 82.8096 321.325 82.9192C321.227 83.0254 321.024 82.968 320.813 82.7957C320.764 82.7557 320.695 82.7975 320.693 82.8653C320.688 83.1385 320.587 83.3698 320.411 83.4603C320.251 83.5421 320.063 83.4864 319.905 83.335C319.865 83.2968 319.8 83.3159 319.783 83.3733C319.694 83.6795 319.494 83.8987 319.259 83.9092C319.073 83.9179 318.906 83.7909 318.796 83.589C318.779 83.556 318.744 83.5438 318.711 83.556C318.248 83.7213 317.747 83.8065 317.224 83.7943C316.567 83.7787 316.032 83.6238 315.5 83.335C315.455 83.3107 315.399 83.3403 315.388 83.3959C315.3 83.8691 314.933 84.0153 314.525 83.9248C314.381 83.8918 314.203 83.7456 314.175 83.6256C314.17 83.6064 314.127 83.5525 314.043 83.589C313.699 83.7404 313.324 83.2811 313.413 82.8096C313.434 82.7 313.471 82.6009 313.521 82.5122C313.547 82.4652 313.512 82.3399 313.378 82.366C313.328 82.3765 313.272 82.3625 313.213 82.3504C312.804 82.2634 312.373 81.731 312.46 81.2578C312.503 81.0421 312.602 80.8664 312.738 80.7428Z" fill="#60514B"/>
<path d="M321.1 92.155C322.395 88.2997 324.177 85.5057 323.242 83.9521C322.346 82.4629 322.071 82.456 321.378 82.3881C318.704 82.1237 318.728 81.2695 317.308 81.3147C317.28 81.3147 317.108 81.3147 317.076 81.3147C315.667 81.2747 315.684 82.1254 313.016 82.3881C312.324 82.456 312.049 82.4629 311.152 83.9521C310.218 85.5057 311.998 88.3015 313.295 92.155C313.986 94.2113 312.879 96.1703 312.515 96.8888C312.115 97.6838 311.934 97.5986 311.996 98.164C312.096 99.0582 314.482 99.7419 316.861 99.7193C316.974 99.7176 317.471 99.7193 317.609 99.7193C319.962 99.728 322.299 99.0495 322.398 98.164C322.461 97.5986 322.282 97.6821 321.88 96.8888C321.516 96.1703 320.409 94.2113 321.1 92.155Z" fill="#4685F1"/>
<path d="M318.761 81.8115C318.517 79.275 318.477 77.3352 317.831 77.6188C317.605 77.718 317.394 77.8415 317.196 78.0068C316.998 77.8415 316.785 77.718 316.561 77.6188C315.915 77.3335 315.875 79.275 315.632 81.8115C315.595 82.1978 316.174 83.8714 317.196 83.8714C318.111 83.8696 318.799 82.1978 318.761 81.8115Z" fill="#E7C6A7"/>
<path d="M315.778 80.1509C315.77 80.257 316.549 81.313 317.192 81.313C317.931 81.313 318.627 80.257 318.617 80.1526C318.338 80.424 317.792 80.8816 317.192 80.8816C316.657 80.8816 316.067 80.4223 315.778 80.1509Z" fill="#DFB996"/>
<path d="M319.899 74.2899C319.603 73.2391 318.454 72.6372 317.196 72.6598C315.938 72.6354 314.789 73.2391 314.493 74.2899C314.295 74.9927 314.279 75.5303 314.42 76.6333C314.544 77.5954 314.669 79.048 315.687 80.0919C315.925 80.3354 316.592 80.9096 317.187 80.9096C317.859 80.9096 318.463 80.3372 318.701 80.0919C319.719 79.048 319.845 77.5954 319.968 76.6333C320.113 75.5303 320.097 74.9927 319.899 74.2899Z" fill="#E7C6A7"/>
<path d="M313.937 74.2064C313.897 74.1089 313.865 74.0063 313.844 73.8949C313.73 73.2582 314.032 72.6719 314.52 72.5849C314.769 72.5397 315.019 72.6354 315.218 72.8233C315.374 72.7119 315.576 72.6267 315.806 72.5849C316.056 72.5397 316.295 72.5554 316.49 72.6162C316.525 72.1378 316.794 71.7499 317.184 71.6785C317.647 71.595 318.112 71.9934 318.254 72.5797C318.418 72.4562 318.63 72.3605 318.874 72.317C319.44 72.2144 319.955 72.4266 320.063 72.792C320.388 72.9277 320.661 73.2826 320.743 73.7349C320.792 74.0028 320.766 74.262 320.684 74.4778C320.893 74.4986 321.065 74.6413 321.102 74.8396C321.145 75.0849 320.962 75.3233 320.691 75.372C320.656 75.3789 320.621 75.3807 320.586 75.3807C320.578 75.4833 320.557 75.5877 320.519 75.6938C320.336 76.2018 319.869 76.4976 319.476 76.3567C319.161 76.2436 318.991 75.8835 319.027 75.4851C318.836 75.6034 318.618 75.6608 318.394 75.6382C318.026 75.6034 317.718 75.3633 317.537 75.0171C317.466 75.0867 317.377 75.1249 317.285 75.118C317.179 75.1093 317.088 75.0414 317.029 74.9423C316.89 75.0571 316.721 75.1389 316.533 75.1719C316.185 75.2345 315.848 75.1232 315.607 74.9022C315.611 74.9144 315.614 74.9266 315.616 74.9388C315.726 75.5494 315.343 76.1288 314.76 76.2349C314.177 76.3393 313.615 75.9304 313.505 75.3198C313.42 74.8744 313.604 74.4464 313.937 74.2064Z" fill="#60514B"/>
</g>
<mask id="mask4_6376_26919" style="mask-type:alpha" maskUnits="userSpaceOnUse" x="251" y="39" width="23" height="23">
<circle cx="262.484" cy="50.2294" r="11.2294" fill="#C4C4C4"/>
</mask>
<g mask="url(#mask4_6376_26919)">
<path d="M262.199 61.8606C268.537 61.8606 273.675 56.7234 273.675 50.3864C273.675 44.0494 268.537 38.9122 262.199 38.9122C255.861 38.9122 250.723 44.0494 250.723 50.3864C250.723 56.7234 255.861 61.8606 262.199 61.8606Z" fill="#FECE4D"/>
<path d="M258.107 58.3671C259.147 58.3671 259.991 57.1464 259.991 55.6407C259.991 54.1349 259.147 52.9142 258.107 52.9142C257.066 52.9142 256.223 54.1349 256.223 55.6407C256.223 57.1464 257.066 58.3671 258.107 58.3671Z" fill="#FEB79C"/>
<path d="M256.785 60.1306L268.337 59.4857C268.337 59.4857 270.1 54.6712 269.704 54.352C269.302 54.0327 262.641 50.5017 262.641 50.5017L256.14 50.6613L256.785 60.1306Z" fill="#274F7C"/>
<path d="M262.721 71.3611C267.063 71.3611 270.582 68.1651 270.582 64.2225C270.582 60.2799 267.063 57.0839 262.721 57.0839C258.379 57.0839 254.859 60.2799 254.859 64.2225C254.859 68.1651 258.379 71.3611 262.721 71.3611Z" fill="#9FC0FF"/>
<path d="M262.327 59.4089C261.388 59.4089 260.617 58.8192 260.592 58.0855L260.483 54.7114C260.458 53.9645 261.221 53.3356 262.176 53.3225C263.14 53.3094 263.936 53.899 263.953 54.6459L264.062 58.02C264.087 58.7668 263.325 59.3958 262.369 59.4089C262.361 59.4089 262.344 59.4089 262.327 59.4089Z" fill="#FEB79C"/>
<path d="M262.204 53.1953C261.585 53.2081 261.074 53.655 260.946 54.2361L260.997 56.2346C261.017 56.9562 261.604 57.5244 262.319 57.5244C262.332 57.5244 262.338 57.5244 262.351 57.5244C262.971 57.5117 263.482 57.0647 263.609 56.4837L263.558 54.4851C263.539 53.7508 262.939 53.1761 262.204 53.1953Z" fill="#FAA887"/>
<path d="M266.332 49.7032C266.332 52.6915 263.925 56.082 261.939 56.082C260.432 56.082 257.545 52.6979 257.545 49.7032C257.545 46.7149 259.512 44.2886 261.939 44.2886C264.365 44.2886 266.332 46.7149 266.332 49.7032Z" fill="#FEB79C"/>
<path d="M259.889 45.367C259.48 45.4117 259.039 45.7181 258.605 46.1715C257.941 47.1165 257.545 48.3488 257.545 49.7025C257.545 51.3435 258.413 53.0994 259.448 54.3573C258.975 53.3804 258.758 52.397 259.352 51.2094C259.889 50.1303 260.674 47.7167 260.674 47.7167C260.674 47.7167 261.517 45.1882 259.889 45.367Z" fill="#FAA887"/>
<path d="M261.937 44.2886C260.417 44.2886 259.082 45.24 258.29 46.683C258.692 47.5386 260.008 49.7415 263.08 50.3673C265.532 50.8653 264.07 53.1576 264.031 55.0221C265.302 53.7833 266.33 51.6571 266.33 49.7032C266.33 46.7149 264.363 44.2886 261.937 44.2886Z" fill="#FAA887"/>
<path d="M258.632 45.8523C258.632 45.8523 259.731 49.1024 263.569 49.8814C266.519 50.4816 263.812 53.6742 264.712 55.5961C265.383 57.0264 266.877 56.6816 265.734 58.1247C264.591 59.5677 265.491 64.4396 268.921 63.3605C272.35 62.275 272.893 56.5603 271.571 54.2169C270.249 51.8672 268.499 51.0882 268.32 48.9236C268.141 46.759 266.513 43.3302 263.147 43.0876C261.014 42.9343 258.09 42.7236 258.632 45.8523Z" fill="#274F7C"/>
<path d="M259.952 47.1737C259.952 47.1737 259.167 49.5873 258.63 50.6664C257.73 52.4734 258.688 53.7952 259.595 55.3595C260.259 56.5089 259.422 58.0413 258.931 58.7884C258.03 60.174 257.245 60.4741 258.266 61.5532C259.288 62.6387 253.451 66.6677 252.851 62.9962C252.25 59.3247 253.994 58.0605 254.837 56.3748C255.68 54.6891 253.936 54.753 254.958 51.0815C255.488 49.1851 257.545 45.0028 259.173 44.824C260.795 44.6452 259.952 47.1737 259.952 47.1737Z" fill="#274F7C"/>
</g>
<mask id="mask5_6376_26919" style="mask-type:alpha" maskUnits="userSpaceOnUse" x="310" y="40" width="20" height="21">
<ellipse cx="319.833" cy="50.2297" rx="9.73266" ry="9.7712" fill="#C4C4C4"/>
</mask>
<g mask="url(#mask5_6376_26919)">
<ellipse cx="320.221" cy="50.0192" rx="10.1313" ry="10.1714" fill="#3D7FFC"/>
<path d="M315.702 51.5626C315.727 51.5108 315.698 51.4456 315.644 51.4298C315.416 51.3623 315.247 51.216 315.208 51.0292C315.184 50.9054 315.22 50.7793 315.301 50.6713C315.321 50.6443 315.323 50.6038 315.31 50.5723C315.118 50.5565 314.956 50.4215 314.931 50.2437C314.918 50.1536 314.942 50.0658 314.992 49.9961C314.99 49.9893 314.987 49.9826 314.985 49.9758C314.978 49.9511 314.967 49.9263 314.945 49.9173C314.435 49.708 313.973 48.2832 315.188 47.5562C315.24 47.5247 315.245 47.4437 315.195 47.4032C314.911 47.1624 314.737 46.8473 314.753 46.5277C314.782 45.9492 315.416 45.5778 316.169 45.7016C316.18 45.7039 316.189 45.7061 316.201 45.7061C316.266 45.7174 316.313 45.6454 316.284 45.5801C316.047 45.0331 316.029 44.5222 316.277 44.2904C316.512 44.0698 316.927 44.1554 317.348 44.466C317.402 44.5065 317.472 44.4727 317.477 44.4029C317.499 44.0113 317.655 43.7232 317.867 43.7232C318.007 43.7232 318.142 43.8537 318.239 44.0541C318.273 44.1261 318.365 44.1261 318.39 44.0563C318.663 43.3203 319.166 42.8859 319.574 43.0682C319.806 43.1718 319.962 43.4509 320.027 43.82C320.041 43.8988 320.133 43.9258 320.176 43.865C320.516 43.3833 321.042 43.1763 321.524 43.3923C321.869 43.5454 322.124 43.883 322.253 44.2971C322.266 44.3399 322.302 44.3669 322.34 44.3669C322.559 44.3602 322.789 44.4052 323.017 44.5065C323.788 44.8486 324.262 45.7286 324.153 46.5502C324.144 46.6109 324.194 46.6672 324.25 46.6604C324.627 46.6267 324.981 46.8202 325.103 47.1624C325.213 47.4685 325.105 47.8083 324.859 48.0357C324.805 48.0852 324.837 48.1887 324.911 48.1977C325.236 48.245 325.502 48.4475 325.558 48.7289C325.621 49.044 325.4 49.3546 325.044 49.4806C324.981 49.5032 324.97 49.5954 325.026 49.6427C325.283 49.8565 325.427 50.0951 325.369 50.2482C325.312 50.3967 325.082 50.4215 324.794 50.3337C324.728 50.3134 324.674 50.3832 324.699 50.453C324.807 50.7343 324.798 51.0112 324.656 51.1755C324.525 51.324 324.311 51.3443 324.088 51.2565C324.032 51.234 323.973 51.2813 323.98 51.3465C324.016 51.6954 323.901 52.0015 323.664 52.1095C323.477 52.1951 323.254 52.1343 323.06 51.9745C323.028 51.9497 322.988 51.9497 322.958 51.9745C322.555 52.3346 322.077 52.6272 321.538 52.8298C320.859 53.0841 320.25 53.1449 319.587 53.0706C319.531 53.0639 319.488 53.1179 319.499 53.1786C319.603 53.6963 319.29 53.9979 318.834 54.0722C318.674 54.0992 318.431 54.0204 318.352 53.9101C318.34 53.8921 318.27 53.8561 318.203 53.9281C317.912 54.2252 317.344 53.9101 317.238 53.3925C317.213 53.2732 317.211 53.1561 317.224 53.0458C317.231 52.9873 317.145 52.8725 317.019 52.9558C316.972 52.9873 316.909 52.9963 316.845 53.0076C316.392 53.0886 315.732 52.7217 315.626 52.2041C315.585 51.9655 315.617 51.7449 315.702 51.5626Z" fill="#4F381D"/>
<path d="M325.413 70.8514C327.237 65.4315 329.747 61.5017 328.43 59.3162C327.17 57.223 326.773 57.2703 325.806 57.1172C322.302 56.5613 322.072 55.1726 320.074 55.2356C320.036 55.2378 319.792 55.2356 319.749 55.2356C317.765 55.1793 316.983 56.6648 314.031 57.1172C313.064 57.2658 312.669 57.223 311.406 59.3162C310.09 61.5017 312.599 65.4315 314.421 70.8514C315.395 73.7436 313.835 76.4963 313.323 77.5068C312.759 78.6232 312.504 78.5062 312.592 79.3007C312.732 80.5589 316.092 81.52 319.44 81.4862C319.598 81.4839 320.302 81.4862 320.496 81.4862C323.808 81.4974 327.1 80.5431 327.24 79.3007C327.328 78.5062 327.075 78.6232 326.509 77.5068C326 76.4963 324.442 73.7413 325.413 70.8514Z" fill="#15C1E6"/>
<path d="M322.317 56.5616C322.116 53.4871 322.1 50.9347 321.241 51.3129C320.941 51.4457 318.892 51.4457 318.594 51.3129C317.735 50.9347 317.703 53.145 317.518 56.5616C317.491 57.0748 318.19 58.3397 319.917 58.3397C321.568 58.3397 322.35 57.077 322.317 56.5616Z" fill="#E79473"/>
<path d="M322.642 48.0874C322.34 46.7604 321.17 46.0006 319.888 46.0294C318.607 46.0006 317.437 46.7604 317.135 48.0874C316.932 48.9757 316.873 53.7718 318.149 55.2627C318.403 55.5596 319.274 56.4457 319.881 56.4457C320.566 56.4457 321.384 55.5706 321.626 55.2627C322.663 53.9446 322.587 52.2632 322.715 51.047C322.86 49.6536 322.842 48.9757 322.642 48.0874Z" fill="#D78361"/>
<path d="M323.135 47.3787C322.779 46.0305 321.397 45.2585 319.884 45.2878C318.371 45.2585 316.989 46.0305 316.633 47.3787C316.394 48.2813 316.324 53.1542 317.83 54.6689C318.13 54.9705 319.158 55.8709 319.875 55.8709C320.685 55.8709 321.65 54.9818 321.936 54.6689C323.16 53.3297 323.07 51.6214 323.221 50.3858C323.393 48.97 323.372 48.2813 323.135 47.3787Z" fill="#E79473"/>
<path d="M316.116 46.7997C316.082 46.6827 316.057 46.5566 316.048 46.4283C315.994 45.6743 316.418 45.0306 316.997 44.9901C317.293 44.9698 317.572 45.1116 317.78 45.3547C317.976 45.2467 318.222 45.1724 318.494 45.1522C318.79 45.1319 319.067 45.1769 319.286 45.2737C319.385 44.7223 319.748 44.3036 320.21 44.2721C320.761 44.2316 321.25 44.7515 321.342 45.4515C321.547 45.3277 321.807 45.2444 322.095 45.2242C322.767 45.1769 323.34 45.4853 323.419 45.9242C323.782 46.1222 324.055 46.5679 324.093 47.1058C324.116 47.4232 324.055 47.7203 323.931 47.9611C324.17 48.0129 324.355 48.1974 324.371 48.4338C324.391 48.7241 324.147 48.9784 323.827 49.001C323.784 49.0032 323.744 49.0032 323.705 48.9987C323.683 49.1157 323.644 49.2373 323.588 49.3521C323.313 49.9193 322.734 50.2051 322.292 49.9935C321.94 49.8225 321.784 49.3836 321.877 48.9244C321.64 49.037 321.381 49.0775 321.121 49.0235C320.697 48.9357 320.37 48.6206 320.204 48.1974C320.113 48.2695 320.005 48.3032 319.897 48.283C319.775 48.2605 319.676 48.1704 319.62 48.0466C319.444 48.1614 319.239 48.2357 319.013 48.2515C318.6 48.2807 318.222 48.1097 317.969 47.8238C317.971 47.8373 317.974 47.8531 317.974 47.8666C318.025 48.5891 317.507 49.2148 316.815 49.2643C316.122 49.3138 315.52 48.7691 315.468 48.0466C315.43 47.5132 315.698 47.0383 316.116 46.7997Z" fill="#4F381D"/>
</g>
<path d="M379.811 141.17H208.245C207.298 141.169 206.36 141.354 205.485 141.714C204.61 142.075 203.815 142.603 203.145 143.269C202.475 143.936 201.944 144.727 201.581 145.597C201.218 146.468 201.031 147.402 201.03 148.345V263.462C201.031 264.405 201.218 265.338 201.581 266.208C201.944 267.079 202.475 267.87 203.145 268.536C203.815 269.202 204.611 269.73 205.485 270.089C206.36 270.449 207.298 270.634 208.245 270.633H379.811C380.758 270.634 381.695 270.449 382.57 270.089C383.445 269.73 384.241 269.202 384.911 268.536C385.58 267.87 386.112 267.079 386.475 266.208C386.838 265.338 387.025 264.405 387.026 263.462V148.345C387.025 147.402 386.838 146.468 386.475 145.597C386.112 144.727 385.581 143.936 384.911 143.269C384.241 142.603 383.446 142.075 382.571 141.714C381.696 141.354 380.758 141.169 379.811 141.17Z" fill="#024BCD"/>
<path d="M412.054 263.788C412.054 263.429 411.914 263.084 411.663 262.83C411.413 262.576 411.073 262.434 410.719 262.434H177.309C176.959 262.439 176.626 262.585 176.381 262.838C176.136 263.092 175.999 263.433 176 263.788V270.146C175.997 270.323 176.029 270.498 176.094 270.661C176.158 270.825 176.254 270.974 176.376 271.099C176.498 271.225 176.643 271.325 176.803 271.393C176.963 271.461 177.136 271.496 177.309 271.496H410.719C411.072 271.496 411.411 271.354 411.662 271.101C411.912 270.848 412.053 270.505 412.054 270.146V263.788Z" fill="#00389B"/>
<path d="M273.96 262.434H314.525V262.792C314.525 263.312 314.435 263.827 314.262 264.307C314.088 264.787 313.833 265.223 313.513 265.59C312.867 266.331 311.993 266.748 311.08 266.749H277.413C276.5 266.747 275.624 266.331 274.977 265.59C274.332 264.847 273.969 263.841 273.969 262.792V262.434H273.96Z" fill="white" fill-opacity="0.17"/>
<rect x="206.64" y="146.348" width="175.207" height="110.475" fill="#092349"/>
<g filter="url(#filter0_dd_6376_26919)">
<g clip-path="url(#clip0_6376_26919)">
<path d="M372.957 159.681H215.543C214.846 159.681 214.28 160.265 214.28 160.985V258.51C214.28 259.231 214.846 259.815 215.543 259.815H372.957C373.654 259.815 374.219 259.231 374.219 258.51V160.985C374.219 160.265 373.654 159.681 372.957 159.681Z" fill="url(#paint0_linear_6376_26919)"/>
<path d="M360.414 172.39H228.489C225.982 172.39 223.949 174.422 223.949 176.93V194.842C223.949 197.349 225.982 199.382 228.489 199.382H360.414C362.921 199.382 364.954 197.349 364.954 194.842V176.93C364.954 174.422 362.921 172.39 360.414 172.39Z" fill="#D2DCE4" fill-opacity="0.2"/>
<path d="M255.087 202.605H225.848C225.022 202.605 224.353 203.275 224.353 204.101V222.06C224.353 222.885 225.022 223.555 225.848 223.555H255.087C255.913 223.555 256.582 222.885 256.582 222.06V204.101C256.582 203.275 255.913 202.605 255.087 202.605Z" fill="#EDF1F6"/>
<path d="M290.299 202.605H263.149C261.747 202.605 260.609 203.743 260.609 205.145V221.015C260.609 222.417 261.747 223.555 263.149 223.555H290.299C291.702 223.555 292.839 222.417 292.839 221.015V205.145C292.839 203.743 291.702 202.605 290.299 202.605Z" fill="#D2DCE4" fill-opacity="0.2"/>
<path d="M290.299 231H263.149C261.747 231 260.609 232.137 260.609 233.54V249.409C260.609 250.812 261.747 251.949 263.149 251.949H290.299C291.702 251.949 292.839 250.812 292.839 249.409V233.54C292.839 232.137 291.702 231 290.299 231Z" fill="#D2DCE4" fill-opacity="0.2"/>
<path d="M326.559 202.605H299.409C298.006 202.605 296.869 203.743 296.869 205.145V221.015C296.869 222.417 298.006 223.555 299.409 223.555H326.559C327.962 223.555 329.099 222.417 329.099 221.015V205.145C329.099 203.743 327.962 202.605 326.559 202.605Z" fill="#D2DCE4" fill-opacity="0.2"/>
<path d="M326.559 231H299.409C298.006 231 296.869 232.137 296.869 233.54V249.409C296.869 250.812 298.006 251.949 299.409 251.949H326.559C327.962 251.949 329.099 250.812 329.099 249.409V233.54C329.099 232.137 327.962 231 326.559 231Z" fill="#D2DCE4" fill-opacity="0.2"/>
<path d="M362.69 231H335.54C334.137 231 333 232.137 333 233.54V249.409C333 250.812 334.137 251.949 335.54 251.949H362.69C364.092 251.949 365.23 250.812 365.23 249.409V233.54C365.23 232.137 364.092 231 362.69 231Z" fill="#D2DCE4" fill-opacity="0.2"/>
<path d="M363.861 202.605H334.622C333.796 202.605 333.127 203.275 333.127 204.101V222.06C333.127 222.885 333.796 223.555 334.622 223.555H363.861C364.687 223.555 365.357 222.885 365.357 222.06V204.101C365.357 203.275 364.687 202.605 363.861 202.605Z" fill="#EDF1F6"/>
<path d="M374.22 154.261H214.28V159.681H374.22V154.261Z" fill="#062E69"/>
<path d="M219.982 157.112C219.982 157.281 219.933 157.447 219.839 157.588C219.745 157.729 219.612 157.839 219.456 157.904C219.299 157.969 219.127 157.987 218.961 157.954C218.795 157.921 218.643 157.84 218.523 157.72C218.403 157.6 218.321 157.448 218.288 157.282C218.255 157.116 218.272 156.944 218.336 156.787C218.401 156.631 218.511 156.497 218.651 156.403C218.792 156.309 218.958 156.258 219.127 156.258C219.353 156.26 219.569 156.35 219.729 156.51C219.889 156.67 219.98 156.886 219.982 157.112Z" fill="white"/>
<path d="M223.973 157.112C223.974 157.282 223.924 157.447 223.83 157.588C223.736 157.729 223.603 157.839 223.446 157.904C223.29 157.969 223.118 157.987 222.952 157.954C222.786 157.921 222.633 157.839 222.513 157.719C222.393 157.6 222.312 157.447 222.279 157.281C222.246 157.114 222.263 156.942 222.328 156.786C222.393 156.629 222.503 156.496 222.644 156.402C222.785 156.308 222.951 156.258 223.12 156.258C223.232 156.258 223.343 156.279 223.447 156.322C223.551 156.365 223.645 156.428 223.725 156.507C223.804 156.587 223.867 156.681 223.909 156.785C223.952 156.889 223.974 157 223.973 157.112Z" fill="white"/>
<path d="M227.964 157.112C227.965 157.281 227.915 157.447 227.821 157.588C227.728 157.729 227.594 157.839 227.438 157.904C227.282 157.969 227.11 157.987 226.944 157.954C226.778 157.921 226.625 157.84 226.505 157.72C226.385 157.6 226.304 157.448 226.27 157.282C226.237 157.116 226.254 156.944 226.319 156.787C226.383 156.631 226.493 156.497 226.634 156.403C226.775 156.309 226.94 156.258 227.109 156.258C227.335 156.26 227.551 156.35 227.711 156.51C227.871 156.67 227.962 156.886 227.964 157.112Z" fill="white"/>
<path d="M374.219 159.681H214.28V166.813H374.219V159.681Z" fill="#0F3E82"/>
<path d="M364.812 161.393H232.242V165.387H364.812V161.393Z" fill="white" fill-opacity="0.16"/>
<rect x="225.402" y="161.393" width="3.99135" height="3.99394" fill="white" fill-opacity="0.16"/>
<path fill-rule="evenodd" clip-rule="evenodd" d="M226.889 162.59C226.97 162.515 227.102 162.515 227.184 162.59L227.907 163.256C227.988 163.33 227.988 163.451 227.906 163.526L227.184 164.189C227.102 164.264 226.97 164.264 226.888 164.189C226.807 164.115 226.807 163.993 226.888 163.918L227.464 163.391L226.888 162.86C226.807 162.785 226.807 162.664 226.889 162.59Z" fill="#B8C4D0"/>
<rect x="223.974" y="165.387" width="3.99135" height="3.99394" transform="rotate(-180 223.974 165.387)" fill="white" fill-opacity="0.16"/>
<path fill-rule="evenodd" clip-rule="evenodd" d="M222.487 164.19C222.406 164.265 222.274 164.265 222.192 164.19L221.469 163.524C221.388 163.449 221.388 163.328 221.47 163.254L222.192 162.59C222.274 162.516 222.406 162.516 222.488 162.59C222.569 162.665 222.569 162.787 222.488 162.861L221.912 163.389L222.488 163.919C222.569 163.994 222.569 164.116 222.487 164.19Z" fill="#B8C4D0"/>
<path d="M369.907 162.327C369.842 162.327 369.779 162.308 369.726 162.272C369.673 162.236 369.631 162.185 369.606 162.126C369.582 162.067 369.576 162.001 369.588 161.938C369.601 161.875 369.633 161.817 369.678 161.772C369.724 161.727 369.782 161.696 369.845 161.684C369.908 161.672 369.974 161.679 370.033 161.704C370.092 161.729 370.143 161.771 370.178 161.825C370.214 161.878 370.232 161.941 370.231 162.006C370.231 162.091 370.196 162.173 370.135 162.233C370.074 162.293 369.992 162.327 369.907 162.327Z" fill="#9BACBC"/>
<path d="M369.907 163.702C369.842 163.702 369.779 163.683 369.726 163.647C369.673 163.612 369.631 163.561 369.606 163.501C369.582 163.442 369.576 163.377 369.588 163.314C369.601 163.251 369.633 163.193 369.678 163.148C369.724 163.102 369.782 163.072 369.845 163.06C369.908 163.047 369.974 163.054 370.033 163.079C370.092 163.104 370.143 163.146 370.178 163.2C370.214 163.254 370.232 163.317 370.231 163.381C370.231 163.467 370.196 163.548 370.135 163.608C370.074 163.669 369.992 163.702 369.907 163.702Z" fill="#9BACBC"/>
<path d="M369.907 165.089C369.843 165.089 369.78 165.07 369.726 165.034C369.673 164.998 369.631 164.948 369.607 164.888C369.582 164.829 369.576 164.764 369.588 164.701C369.601 164.638 369.632 164.58 369.677 164.535C369.723 164.49 369.78 164.459 369.843 164.446C369.906 164.434 369.972 164.44 370.031 164.465C370.09 164.489 370.141 164.531 370.177 164.584C370.212 164.637 370.231 164.7 370.231 164.764C370.231 164.85 370.197 164.933 370.136 164.994C370.075 165.054 369.993 165.089 369.907 165.089Z" fill="#9BACBC"/>
</g>
</g>
<path d="M195.797 201.321H282.189C286.238 201.321 289.526 204.666 289.526 208.786V241.702C289.526 245.821 286.238 249.166 282.189 249.166H195.797C191.748 249.166 188.46 245.821 188.46 241.702V208.786C188.46 204.666 191.748 201.321 195.797 201.321Z" fill="#2E5196"/>
<path d="M195.797 201.821H282.189C285.954 201.821 289.026 204.934 289.026 208.786V241.702C289.026 245.553 285.954 248.666 282.189 248.666H195.797C192.032 248.666 188.96 245.553 188.96 241.702V208.786C188.96 204.934 192.032 201.821 195.797 201.821Z" stroke="white" stroke-opacity="0.2"/>
<path d="M251.093 222.431H235.846C234.826 222.431 234 221.65 234 220.686C234 219.723 234.826 218.942 235.846 218.942H251.093C252.113 218.942 252.939 219.723 252.939 220.686C252.939 221.65 252.113 222.431 251.093 222.431Z" fill="#8599AC"/>
<path d="M256.353 229.489H235.846C234.826 229.489 234 228.708 234 227.744C234 226.781 234.826 226 235.846 226H256.353C257.372 226 258.198 226.781 258.198 227.744C258.198 228.708 257.372 229.489 256.353 229.489Z" fill="#8599AC"/>
<path d="M256.353 236.489H235.846C234.826 236.489 234 235.708 234 234.744C234 233.781 234.826 233 235.846 233H256.353C257.372 233 258.198 233.781 258.198 234.744C258.198 235.708 257.372 236.489 256.353 236.489Z" fill="#8599AC"/>
<path d="M251.136 213.763H235.988C234.975 213.763 234.154 212.921 234.154 211.882C234.154 210.842 234.975 210 235.988 210H251.136C252.149 210 252.97 210.842 252.97 211.882C252.97 212.921 252.149 213.763 251.136 213.763Z" fill="#C6DBFF" stroke="#C6DBFF" stroke-width="2.44241" stroke-linecap="round"/>
<path d="M226.979 224.655C226.979 228.02 225.945 231.138 224.181 233.721C223.45 234.798 222.587 235.777 221.613 236.641C221.592 236.663 221.571 236.684 221.549 236.701C220.977 237.21 220.358 237.68 219.708 238.108C219.14 238.476 218.551 238.809 217.935 239.113C215.817 240.144 213.433 240.725 210.917 240.725C210.793 240.725 210.669 240.725 210.541 240.725C209.165 240.691 207.828 240.49 206.56 240.127C206.329 240.058 206.102 239.994 205.88 239.917C204.471 239.451 203.142 238.797 201.937 237.98C201.036 237.364 200.195 236.663 199.434 235.88C199.353 235.799 199.268 235.709 199.191 235.624C198.276 234.649 197.482 233.554 196.841 232.373C195.577 230.077 194.863 227.451 194.863 224.655C194.863 215.781 202.057 208.58 210.921 208.58C219.785 208.58 226.979 215.781 226.979 224.655Z" fill="#E7EEFF"/>
<path d="M221.61 236.646C221.61 236.646 221.568 236.689 221.546 236.706C220.974 237.215 220.354 237.686 219.705 238.113C219.137 238.481 218.547 238.815 217.932 239.118C215.813 240.149 213.43 240.73 210.914 240.73C210.79 240.73 210.666 240.73 210.538 240.73C209.162 240.696 207.825 240.495 206.556 240.132C206.326 240.063 206.099 239.999 205.877 239.922C204.467 239.456 203.139 238.802 201.934 237.985C201.033 237.369 200.191 236.668 199.431 235.885C199.35 235.804 199.264 235.714 199.188 235.629C200.875 234.765 203.613 234.192 206.685 233.995C209.611 233.807 212.84 233.961 215.737 234.53C217.996 234.974 220.051 235.663 221.615 236.646H221.61Z" fill="#3D7FFC"/>
<path d="M206.843 234.636C208.932 236.903 215.951 236.565 215.741 234.589C215.711 234.346 215.669 232.896 215.643 232.674C215.626 232.494 215.609 232.319 215.592 232.152C215.545 231.664 215.506 231.232 215.472 230.86C215.378 229.774 215.348 229.188 215.348 229.188H215.34C215.139 229.133 210.628 227.85 208.381 227.319C207.629 227.14 207.129 227.046 207.138 227.114C207.826 232.16 206.151 233.897 206.834 234.641L206.843 234.636Z" fill="#FFB27D"/>
<path d="M208.15 228.805C208.15 228.805 210.034 230.721 215.476 230.857C215.382 229.771 215.352 229.185 215.352 229.185H215.344C215.143 229.13 210.632 227.847 208.385 227.317C207.987 227.479 208.513 228.535 208.146 228.805H208.15Z" fill="#ED975D"/>
<path d="M216.732 228.915C216.732 228.915 215.357 229.411 213.597 229.646C211.029 229.992 207.65 229.787 206.591 226.678C204.805 221.444 202.52 218.301 207.778 216.162C210.593 215.016 212.396 214.956 213.618 215.393C214.682 215.769 215.305 216.522 215.784 217.27C216.805 218.874 218.859 227.999 216.732 228.915Z" fill="#FFB27D"/>
<path d="M215.387 213.22C217.267 214.456 216.652 217.351 214.439 217.741C213.11 217.976 212 218.023 211.355 218.309C210.048 218.891 208.924 219.507 209.232 221.538C209.338 222.231 209.672 223.069 207.899 222.654C207.608 222.586 207.399 222.607 207.254 222.693C206.519 223.129 207.459 225.25 207.741 225.712C207.741 225.712 208.151 227.23 207.241 227.97C207.13 228.06 205.349 228.838 201.055 222.261C200.38 221.23 199.735 218.904 200.778 216.663C201.82 214.422 204.721 211.591 210.193 211.591C211.615 211.591 213.756 212.156 215.383 213.225L215.387 213.22Z" fill="#091B36"/>
<path d="M267.394 222.516H264.046C263.675 222.516 263.32 222.663 263.058 222.925C262.796 223.187 262.648 223.543 262.648 223.913V232.793C262.65 233.162 262.798 233.516 263.06 233.777C263.322 234.037 263.676 234.184 264.046 234.184H267.394C267.765 234.184 268.12 234.036 268.382 233.774C268.644 233.512 268.792 233.157 268.792 232.786V223.913C268.792 223.543 268.644 223.187 268.382 222.925C268.12 222.663 267.765 222.516 267.394 222.516Z" fill="#3D7FFC"/>
<path d="M281.908 228.644V228.709H282.171C282.458 228.71 282.739 228.795 282.977 228.955C283.216 229.115 283.402 229.342 283.512 229.607C283.622 229.872 283.652 230.164 283.597 230.445C283.542 230.727 283.405 230.987 283.204 231.191C282.93 231.465 282.559 231.621 282.171 231.625H281.908V231.699C282.223 231.722 282.517 231.863 282.732 232.093C282.947 232.324 283.066 232.628 283.066 232.943C283.066 233.259 282.947 233.562 282.732 233.793C282.517 234.024 282.223 234.165 281.908 234.188C281.88 234.191 281.85 234.191 281.822 234.188H272.204C271.658 234.188 271.133 233.972 270.745 233.586C270.358 233.2 270.14 232.675 270.139 232.129V224.273C270.139 223.045 271.727 220.485 272.743 219.345C272.97 219.098 273.144 218.805 273.253 218.487C273.362 218.169 273.404 217.832 273.376 217.497C273.289 216.412 273.361 214.869 274.461 214.767C276.18 214.609 277.59 217.588 276.776 219.827C276.44 220.736 276.165 221.407 275.945 221.871H282.238C282.697 221.875 283.137 222.055 283.466 222.374C283.796 222.693 283.99 223.127 284.008 223.585C284.026 224.044 283.866 224.492 283.562 224.835C283.259 225.179 282.834 225.393 282.377 225.432C282.796 225.443 283.194 225.618 283.486 225.918C283.778 226.218 283.942 226.621 283.942 227.04C283.938 227.465 283.767 227.871 283.466 228.171C283.165 228.471 282.758 228.64 282.334 228.641L281.908 228.644Z" fill="#3D7FFC"/>
<path d="M246.174 146H333.087C337.16 146 340.468 149.31 340.468 153.387V185.96C340.468 190.037 337.16 193.347 333.087 193.347H246.178C242.104 193.347 238.797 190.037 238.797 185.96V153.387C238.797 149.31 242.104 146 246.178 146H246.174Z" fill="#2E5196"/>
<path d="M246.178 146.5H333.087C336.884 146.5 339.968 149.586 339.968 153.387V185.96C339.968 189.761 336.884 192.847 333.087 192.847H246.178C242.381 192.847 239.297 189.761 239.297 185.96V153.387C239.297 149.586 242.381 146.5 246.178 146.5Z" stroke="white" stroke-opacity="0.2"/>
<path d="M318.454 166.646H315.35C315.007 166.646 314.677 166.783 314.434 167.026C314.191 167.269 314.055 167.598 314.055 167.942V176.174C314.056 176.516 314.193 176.844 314.436 177.086C314.679 177.328 315.008 177.463 315.35 177.463H318.454C318.798 177.463 319.127 177.327 319.37 177.084C319.613 176.841 319.75 176.511 319.75 176.168V167.942C319.75 167.598 319.613 167.269 319.37 167.026C319.127 166.783 318.798 166.646 318.454 166.646Z" fill="#3D7FFC"/>
<path d="M331.91 172.327V172.387H332.154C332.42 172.388 332.68 172.468 332.901 172.616C333.123 172.764 333.295 172.974 333.397 173.22C333.5 173.466 333.527 173.736 333.476 173.997C333.425 174.259 333.298 174.499 333.111 174.689C332.857 174.943 332.513 175.087 332.154 175.091H331.91V175.159C332.202 175.181 332.475 175.311 332.674 175.525C332.873 175.739 332.984 176.021 332.984 176.313C332.984 176.606 332.873 176.887 332.674 177.101C332.475 177.315 332.202 177.446 331.91 177.467C331.884 177.47 331.857 177.47 331.83 177.467H322.914C322.407 177.467 321.921 177.267 321.561 176.909C321.202 176.551 321 176.065 320.999 175.558V168.275C320.999 167.137 322.472 164.763 323.413 163.707C323.624 163.477 323.785 163.206 323.886 162.911C323.987 162.616 324.026 162.304 324 161.993C323.92 160.987 323.986 159.557 325.006 159.462C326.6 159.315 327.907 162.077 327.153 164.153C326.841 164.996 326.586 165.618 326.382 166.048H332.216C332.642 166.052 333.049 166.218 333.355 166.514C333.66 166.81 333.84 167.213 333.857 167.638C333.873 168.063 333.725 168.478 333.444 168.797C333.162 169.115 332.769 169.314 332.345 169.35C332.733 169.36 333.102 169.522 333.373 169.8C333.644 170.079 333.796 170.452 333.795 170.84C333.792 171.234 333.634 171.611 333.355 171.889C333.076 172.167 332.699 172.323 332.305 172.325L331.91 172.327Z" fill="#3D7FFC"/>
<path d="M277.739 168.968C277.739 172.313 276.707 175.417 274.953 177.98C274.21 179.077 273.335 180.067 272.346 180.943C272.252 181.024 272.155 181.109 272.057 181.185C271.569 181.598 271.051 181.989 270.511 182.337C269.951 182.707 269.365 183.039 268.753 183.34C266.643 184.365 264.277 184.943 261.776 184.943C261.649 184.943 261.526 184.943 261.402 184.935C260.035 184.901 258.706 184.705 257.445 184.344C257.211 184.276 256.986 184.212 256.765 184.135C255.364 183.668 254.043 183.017 252.846 182.21C251.95 181.598 251.117 180.896 250.362 180.122C249.767 179.515 249.223 178.864 248.731 178.163C248.383 177.67 248.064 177.164 247.775 176.632C246.523 174.349 245.813 171.739 245.813 168.959C245.813 160.138 252.965 152.979 261.776 152.979C270.588 152.979 277.739 160.138 277.739 168.959V168.968Z" fill="#E7EEFF"/>
<path d="M263.024 155.737C263.024 155.737 259.919 155.41 257.168 157.208C254.416 159.006 254.442 167.389 252.688 169.341C249.898 172.448 256.412 174.71 260.489 174.914C263.801 175.08 272.455 174.31 271.011 171.857C267.928 166.633 272.421 156.269 263.019 155.737H263.024Z" fill="#091B36"/>
<path d="M271.401 176.717C270.739 175.093 269.579 174.34 268.917 174.03C268.607 173.881 268.403 173.83 268.403 173.83C268.403 173.83 266.832 173.431 264.547 173.15C262.806 172.933 260.649 172.776 258.458 172.925C257.179 173.014 255.884 173.197 254.657 173.533C254.542 173.567 254.428 173.601 254.309 173.63C253.523 173.83 252.432 174.217 251.366 174.961C250.36 175.662 249.379 176.687 248.725 178.166C249.217 178.864 249.761 179.518 250.355 180.126C251.111 180.9 251.943 181.601 252.839 182.209C254.037 183.021 255.358 183.671 256.759 184.135C256.98 184.216 257.209 184.279 257.438 184.347C258.7 184.709 260.029 184.904 261.396 184.938C261.519 184.947 261.643 184.947 261.77 184.947C264.271 184.947 266.636 184.369 268.747 183.344C269.358 183.042 269.944 182.706 270.505 182.341C271.04 181.988 271.562 181.601 272.051 181.189C271.864 179.012 271.652 177.333 271.397 176.717H271.401Z" fill="#3D7FFC"/>
<path d="M259.977 175.976C258.134 175.381 258.027 174.169 258.367 173.2C258.775 172.031 259.098 170.309 259.081 168.154L259.395 168.214L264.66 169.23C264.66 169.23 264.55 170.887 264.554 172.448V172.486C264.554 173.842 264.593 174.569 263.926 175.746C263.514 176.478 262.138 176.673 259.981 175.976H259.977Z" fill="#FFB27D"/>
<path d="M264.656 169.229C264.656 169.229 264.546 170.887 264.55 172.448C261.607 172.38 260.036 169.701 259.391 168.214L264.656 169.229Z" fill="#E8945B"/>
<path d="M265.653 170.7C265.653 170.7 258.689 170.853 258.663 166.508C258.638 162.168 257.721 159.26 262.162 158.984C266.604 158.703 267.479 160.353 267.84 161.802C268.201 163.248 267.462 170.551 265.653 170.7Z" fill="#FFB27D"/>
<path d="M265.332 158.861C265.332 158.861 263.451 163.963 260.53 164.732C257.608 165.501 256.334 164.723 256.334 164.723C256.334 164.723 258.568 162.93 259.018 159.809C259.018 159.809 263.88 156.442 265.328 158.861H265.332Z" fill="#091B36"/>
<path d="M264.862 159.278C264.862 159.278 266.281 159.801 266.867 160.83C267.44 161.837 267.933 163.172 267.831 164.813C267.831 164.813 269.249 161.344 267.627 159.393C265.903 157.327 264.867 159.282 264.867 159.282L264.862 159.278Z" fill="#091B36"/>
<path d="M301.741 167.431H286.493C285.474 167.431 284.647 166.65 284.647 165.686C284.647 164.723 285.474 163.942 286.493 163.942H301.741C302.76 163.942 303.586 164.723 303.586 165.686C303.586 166.65 302.76 167.431 301.741 167.431Z" fill="#8599AC"/>
<path d="M307 174.489H286.493C285.474 174.489 284.647 173.708 284.647 172.744C284.647 171.781 285.474 171 286.493 171H307C308.02 171 308.846 171.781 308.846 172.744C308.846 173.708 308.02 174.489 307 174.489Z" fill="#8599AC"/>
<path d="M307 181.489H286.493C285.474 181.489 284.647 180.708 284.647 179.744C284.647 178.781 285.474 178 286.493 178H307C308.02 178 308.846 178.781 308.846 179.744C308.846 180.708 308.02 181.489 307 181.489Z" fill="#8599AC"/>
<path d="M301.741 159.489H286.493C285.474 159.489 284.647 158.708 284.647 157.744C284.647 156.781 285.474 156 286.493 156H301.741C302.76 156 303.586 156.781 303.586 157.744C303.586 158.708 302.76 159.489 301.741 159.489Z" fill="#C6DBFF" stroke="#C6DBFF" stroke-width="2.44241" stroke-linecap="round"/>
<path d="M313.178 186.87C313.178 186.869 313.179 186.868 313.18 186.868H398.66C403.129 186.868 406.754 190.29 406.754 194.499V232.884C406.754 237.098 403.124 240.516 398.66 240.516H313.183C308.713 240.516 305.083 237.093 305.083 232.879V194.504C305.083 190.291 308.712 186.874 313.175 186.873C313.176 186.873 313.178 186.872 313.178 186.87Z" fill="#2E5196"/>
<path d="M313.175 187.373C313.199 187.373 313.222 187.371 313.245 187.368H398.66C402.881 187.368 406.254 190.594 406.254 194.499V232.884C406.254 236.794 402.876 240.016 398.66 240.016H313.183C308.961 240.016 305.583 236.79 305.583 232.879V194.504C305.583 190.595 308.96 187.374 313.175 187.373Z" stroke="white" stroke-opacity="0.2"/>
<path d="M347.544 212.854C347.544 216.663 346.372 220.192 344.367 223.115C343.525 224.364 342.523 225.491 341.394 226.489C340.741 227.069 340.038 227.597 339.302 228.086C338.833 228.391 338.348 228.676 337.85 228.942C337.666 229.039 337.482 229.136 337.298 229.223C334.891 230.39 332.194 231.048 329.342 231.048C329.197 231.048 329.061 231.048 328.916 231.048C327.463 231.014 326.039 230.806 324.684 230.443C324.587 230.419 324.495 230.394 324.403 230.365C324.141 230.288 323.885 230.22 323.628 230.128C322.03 229.601 320.529 228.855 319.163 227.936C318.834 227.708 318.514 227.476 318.2 227.234C317.991 227.069 317.783 226.905 317.585 226.731C317.149 226.363 316.728 225.971 316.326 225.559C315.168 224.383 314.181 223.047 313.377 221.586C311.948 218.991 311.14 216.015 311.14 212.849C311.14 202.806 319.294 194.656 329.342 194.656C339.39 194.656 347.544 202.806 347.544 212.849V212.854Z" fill="#E7EEFF"/>
<path d="M335.186 226.604C329.375 228.439 319.322 223.492 319.322 223.492C319.322 223.492 324.678 219.475 324.397 211.116L328.891 214.737L331.941 217.195C331.941 217.195 331.927 218.643 331.597 221.184C331.51 221.852 332.266 223.328 332.915 224.155C334.677 226.392 335.186 226.609 335.186 226.609V226.604Z" fill="#FFB27D"/>
<path d="M331.948 217.191C331.948 217.191 331.934 218.638 331.605 221.179C328.225 220.598 324.385 215.134 324.385 215.134C326.109 214.635 327.615 214.548 328.898 214.732L331.948 217.191Z" fill="#ED975D"/>
<path d="M333.724 217.055C333.724 217.055 324.127 218.647 323.226 212.66C322.326 206.668 320.481 202.845 326.568 201.572C332.659 200.299 334.194 202.409 334.983 204.335C335.773 206.262 336.199 216.489 333.724 217.06V217.055Z" fill="#FFB27D"/>
<path d="M337.845 228.942C337.661 229.039 337.477 229.135 337.293 229.222C334.886 230.389 332.189 231.047 329.337 231.047C329.192 231.047 329.056 231.047 328.911 231.047C327.458 231.013 326.035 230.805 324.679 230.442C324.582 230.418 324.49 230.394 324.398 230.365C324.137 230.287 323.88 230.219 323.623 230.128C322.025 229.6 320.524 228.855 319.159 227.935C318.829 227.708 318.51 227.475 318.195 227.233C317.987 227.069 317.779 226.904 317.58 226.73C318.103 225.5 318.684 224.416 319.333 223.487C319.343 223.477 319.352 223.463 319.362 223.453C319.362 223.453 319.362 223.443 319.377 223.439C319.982 222.572 320.645 221.851 321.372 221.294C321.405 221.27 321.439 221.241 321.468 221.217C321.88 220.927 324.383 222.146 326.679 223.284C328.771 224.315 330.867 224.44 332.843 224.053C332.872 224.053 332.906 224.044 332.935 224.039L334.94 225.815C335.908 226.715 336.91 227.737 337.84 228.937L337.845 228.942Z" fill="#3D7FFC"/>
<path d="M323.216 212.079C323.216 212.079 324.199 211.915 324.044 210.56C323.885 209.204 323.889 207.433 324.989 207.762C326.093 208.091 326.146 208.977 326.601 208.459C327.056 207.941 327.061 205.773 330.344 205.618C333.627 205.468 334.959 206.61 336.484 205.937C338.01 205.265 338.092 202.956 338.092 202.956C338.092 202.956 337.656 203.779 337.002 204.045C337.002 204.045 339.549 200.565 336.6 198.179C333.651 195.793 330.644 197.356 328.94 197.458C325.182 197.685 322.752 197.913 321.526 200.381C320.296 202.849 320.805 209.703 323.216 212.079Z" fill="#091B36"/>
<path d="M385.915 209.982H383.22C382.922 209.982 382.636 210.101 382.425 210.312C382.214 210.523 382.096 210.809 382.096 211.107V218.253C382.097 218.55 382.216 218.835 382.427 219.045C382.638 219.255 382.923 219.372 383.22 219.372H385.915C386.213 219.372 386.499 219.254 386.71 219.043C386.921 218.832 387.04 218.546 387.04 218.248V211.107C387.04 210.809 386.921 210.523 386.71 210.312C386.499 210.101 386.213 209.982 385.915 209.982Z" fill="#3D7FFC"/>
<path d="M397.596 214.914V214.966H397.807C398.039 214.967 398.264 215.036 398.456 215.165C398.648 215.293 398.798 215.475 398.887 215.689C398.976 215.902 398.999 216.137 398.955 216.364C398.911 216.591 398.801 216.799 398.639 216.964C398.418 217.185 398.12 217.31 397.807 217.313H397.596V217.373C397.849 217.391 398.086 217.504 398.259 217.69C398.432 217.876 398.528 218.12 398.528 218.374C398.528 218.628 398.432 218.872 398.259 219.058C398.086 219.244 397.849 219.357 397.596 219.376C397.573 219.378 397.549 219.378 397.526 219.376H389.787C389.346 219.376 388.924 219.202 388.612 218.891C388.301 218.58 388.125 218.159 388.124 217.718V211.397C388.124 210.408 389.402 208.348 390.22 207.431C390.403 207.231 390.542 206.996 390.63 206.74C390.718 206.484 390.752 206.213 390.73 205.943C390.66 205.07 390.717 203.828 391.603 203.746C392.986 203.618 394.121 206.016 393.466 207.818C393.195 208.55 392.974 209.09 392.797 209.463H397.862C398.231 209.466 398.585 209.611 398.85 209.868C399.115 210.125 399.271 210.474 399.286 210.843C399.3 211.212 399.172 211.572 398.927 211.849C398.683 212.126 398.341 212.298 397.973 212.329C398.31 212.338 398.631 212.479 398.866 212.72C399.101 212.962 399.233 213.286 399.232 213.623C399.23 213.965 399.092 214.292 398.85 214.533C398.608 214.775 398.28 214.911 397.938 214.912L397.596 214.914Z" fill="#3D7FFC"/>
<path d="M373.953 201H357.047C355.916 201 355 200.329 355 199.5C355 198.671 355.916 198 357.047 198H373.953C375.084 198 376 198.671 376 199.5C376 200.329 375.084 201 373.953 201Z" fill="#C6DBFF" stroke="#C6DBFF" stroke-width="2.44241" stroke-linecap="round"/>
<path d="M372.093 216.489H356.846C355.826 216.489 355 215.708 355 214.744C355 213.781 355.826 213 356.846 213H372.093C373.113 213 373.939 213.781 373.939 214.744C373.939 215.708 373.113 216.489 372.093 216.489Z" fill="#8599AC"/>
<path d="M372.093 209.489H356.846C355.826 209.489 355 208.708 355 207.744C355 206.781 355.826 206 356.846 206H372.093C373.113 206 373.939 206.781 373.939 207.744C373.939 208.708 373.113 209.489 372.093 209.489Z" fill="#8599AC"/>
<path d="M377.353 223.547H356.846C355.826 223.547 355 222.766 355 221.802C355 220.839 355.826 220.058 356.846 220.058H377.353C378.372 220.058 379.198 220.839 379.198 221.802C379.198 222.766 378.372 223.547 377.353 223.547Z" fill="#8599AC"/>
<path d="M377.353 230.547H356.846C355.826 230.547 355 229.766 355 228.802C355 227.839 355.826 227.058 356.846 227.058H377.353C378.372 227.058 379.198 227.839 379.198 228.802C379.198 229.766 378.372 230.547 377.353 230.547Z" fill="#8599AC"/>
<circle cx="378.099" cy="141.419" r="24.9194" fill="#0BE597" stroke="white" stroke-width="1.49516"/>
<path d="M392.579 134.709V141.65C392.579 142.511 391.883 143.206 391.022 143.206C390.161 143.206 389.466 142.511 389.466 141.65V138.335L379.248 148.554C378.662 149.14 377.629 149.14 377.043 148.554L370.777 142.288L363.789 148.554C363.483 148.86 363.084 149.01 362.69 149.01C362.29 149.01 361.891 148.86 361.59 148.554C360.978 147.947 360.978 146.961 361.59 146.355L369.679 138.984C370.26 138.403 371.297 138.403 371.878 138.984L378.144 145.255L387.133 136.266H384.083C383.227 136.266 382.526 135.571 382.526 134.709C382.526 133.848 383.227 133.153 384.083 133.153H391.023C391.884 133.153 392.579 133.848 392.579 134.709Z" fill="#091B36"/>
<defs>
<filter id="filter0_dd_6376_26919" x="210.79" y="150.772" width="170.904" height="103.946" filterUnits="userSpaceOnUse" color-interpolation-filters="sRGB">
<feFlood flood-opacity="0" result="BackgroundImageFix"/>
<feColorMatrix in="SourceAlpha" type="matrix" values="0 0 0 0 0 0 0 0 0 0 0 0 0 0 0 0 0 0 127 0" result="hardAlpha"/>
<feOffset dx="2.49194" dy="2.49194"/>
<feGaussianBlur stdDeviation="2.49194"/>
<feColorMatrix type="matrix" values="0 0 0 0 0 0 0 0 0 0.296699 0 0 0 0 0.858629 0 0 0 0.08 0"/>
<feBlend mode="normal" in2="BackgroundImageFix" result="effect1_dropShadow_6376_26919"/>
<feColorMatrix in="SourceAlpha" type="matrix" values="0 0 0 0 0 0 0 0 0 0 0 0 0 0 0 0 0 0 127 0" result="hardAlpha"/>
<feOffset/>
<feGaussianBlur stdDeviation="1.74436"/>
<feComposite in2="hardAlpha" operator="out"/>
<feColorMatrix type="matrix" values="0 0 0 0 0.0354167 0 0 0 0 0.105426 0 0 0 0 0.2125 0 0 0 0.07 0"/>
<feBlend mode="normal" in2="effect1_dropShadow_6376_26919" result="effect2_dropShadow_6376_26919"/>
<feBlend mode="normal" in="SourceGraphic" in2="effect2_dropShadow_6376_26919" result="shape"/>
</filter>
<linearGradient id="paint0_linear_6376_26919" x1="214" y1="143" x2="366.147" y2="270.527" gradientUnits="userSpaceOnUse">
<stop stop-color="#0C2966"/>
<stop offset="0.422738" stop-color="#0045C9"/>
<stop offset="1" stop-color="#0045C9"/>
</linearGradient>
<clipPath id="clip0_6376_26919">
<rect x="214.278" y="154.261" width="159.939" height="92.9811" rx="4.98388" fill="white"/>
</clipPath>
</defs>
</svg>
