<svg width="588" height="311" viewBox="0 0 588 311" fill="none" xmlns="http://www.w3.org/2000/svg">
<path d="M0 8C0 3.58172 3.58172 0 8 0H580C584.418 0 588 3.58172 588 8V303C588 307.418 584.418 311 580 311H7.99998C3.58171 311 0 307.418 0 303V8Z" fill="#22395B"/>
<path fill-rule="evenodd" clip-rule="evenodd" d="M294.07 44.9969H294.085C294.912 44.9969 295.737 45.0072 296.56 45.0278L296.522 46.5234C295.717 46.5033 294.91 46.4932 294.1 46.493C293.296 46.5256 292.497 46.5653 291.703 46.6119L291.615 45.1184C292.423 45.0709 293.237 45.0306 294.055 44.9975L294.07 44.9969ZM306.211 47.2523C304.611 47.0505 302.999 46.8881 301.376 46.7661L301.488 45.2742C303.136 45.398 304.773 45.563 306.398 45.7679L306.211 47.2523ZM286.969 46.9773C285.412 47.1268 283.875 47.3037 282.358 47.5074L282.158 46.0246C283.694 45.8184 285.25 45.6393 286.826 45.488L286.969 46.9773ZM315.775 48.9552C314.202 48.5919 312.615 48.2673 311.015 47.9823L311.277 46.5094C312.902 46.7988 314.515 47.1285 316.112 47.4975L315.775 48.9552ZM277.627 48.2401C276.071 48.5138 274.538 48.8163 273.028 49.1469L272.708 47.6854C274.239 47.3503 275.792 47.0438 277.368 46.7666L277.627 48.2401ZM325.118 51.62C323.589 51.0984 322.042 50.6143 320.48 50.1688L320.891 48.7301C322.477 49.1825 324.048 49.6742 325.601 50.2039L325.118 51.62ZM268.435 50.2565C266.899 50.6631 265.388 51.0995 263.902 51.565L263.455 50.1372C264.962 49.6651 266.495 49.2224 268.052 48.8102L268.435 50.2565ZM259.458 53.0693C257.962 53.6145 256.492 54.1901 255.05 54.7951L254.471 53.4154C255.936 52.8012 257.427 52.2169 258.946 51.6636L259.458 53.0693ZM334.143 55.2177C332.673 54.5437 331.184 53.9056 329.676 53.3046L330.23 51.9149C331.761 52.5252 333.274 53.1732 334.767 53.8577L334.143 55.2177ZM250.78 56.7075C249.343 57.3934 247.935 58.1095 246.556 58.8546L245.845 57.5382C247.246 56.7812 248.677 56.0539 250.136 55.3573L250.78 56.7075ZM342.761 59.7059C341.365 58.8873 339.947 58.1028 338.508 57.3536L339.199 56.0267C340.66 56.7874 342.1 57.584 343.518 58.4152L342.761 59.7059ZM242.497 61.1792C241.138 62.0035 239.81 62.8573 238.511 63.7391L237.671 62.5014C238.99 61.6052 240.34 60.7376 241.721 59.9L242.497 61.1792ZM350.889 65.0315C349.58 64.0777 348.247 63.156 346.891 62.2676L347.711 61.0162C349.088 61.9182 350.441 62.854 351.77 63.8222L350.889 65.0315ZM234.706 66.4676C233.442 67.4241 232.21 68.4086 231.009 69.4196L230.045 68.275C231.266 67.2474 232.519 66.2467 233.804 65.2745L234.706 66.4676ZM358.453 71.1342C357.243 70.0558 356.007 69.0072 354.746 67.9897L355.686 66.8254C356.966 67.8583 358.22 68.9227 359.448 70.0174L358.453 71.1342ZM227.5 72.531C226.344 73.6099 225.221 74.7147 224.131 75.844L223.054 74.8048C224.163 73.657 225.304 72.5341 226.479 71.4375L227.5 72.531ZM365.383 77.9485C364.283 76.7566 363.156 75.5923 362.001 74.4567L363.05 73.3899C364.222 74.5426 365.367 75.7243 366.483 76.9341L365.383 77.9485ZM220.956 79.3051C219.919 80.4941 218.916 81.7067 217.946 82.9413L216.77 82.017C217.755 80.7626 218.775 79.5305 219.828 78.3221L220.956 79.3051ZM371.618 85.4047C370.639 84.1112 369.629 82.8428 368.591 81.6008L369.739 80.6411C370.793 81.9017 371.817 83.1889 372.811 84.5017L371.618 85.4047ZM215.135 86.7114C214.225 87.9967 213.349 89.3027 212.507 90.6281L211.244 89.8256C212.1 88.4795 212.99 87.1529 213.913 85.8473L215.135 86.7114ZM377.102 93.4297C376.252 92.047 375.37 90.687 374.457 89.3508L375.692 88.5067C376.619 89.8628 377.514 91.243 378.377 92.6464L377.102 93.4297ZM210.08 94.6621C209.302 96.0289 208.558 97.4137 207.848 98.8148L206.513 98.1383C207.234 96.716 207.99 95.3101 208.779 93.9221L210.08 94.6621ZM381.785 101.947C381.072 100.488 380.326 99.0493 379.546 97.6318L380.857 96.911C381.648 98.3495 382.406 99.8097 383.129 101.291L381.785 101.947ZM205.818 103.067C205.174 104.501 204.564 105.949 203.989 107.412L202.597 106.863C203.181 105.38 203.8 103.909 204.453 102.454L205.818 103.067ZM385.624 110.877C385.055 109.355 384.451 107.851 383.812 106.366L385.187 105.775C385.835 107.282 386.448 108.808 387.026 110.353L385.624 110.877ZM202.363 111.836C201.855 113.323 201.381 114.822 200.94 116.331L199.504 115.912C199.951 114.381 200.432 112.861 200.947 111.352L202.363 111.836ZM388.585 120.135C388.165 118.564 387.708 117.009 387.216 115.47L388.641 115.014C389.14 116.576 389.604 118.154 390.03 119.748L388.585 120.135ZM199.721 120.886C199.349 122.413 199.01 123.948 198.706 125.491L197.238 125.201C197.547 123.637 197.89 122.08 198.268 120.532L199.721 120.886ZM390.642 129.634C390.375 128.029 390.069 126.437 389.728 124.86L391.19 124.543C391.537 126.144 391.846 127.759 392.118 129.388L390.642 129.634ZM197.893 130.137C197.657 131.691 197.454 133.25 197.284 134.813L195.797 134.653C195.968 133.068 196.174 131.487 196.414 129.911L197.893 130.137ZM391.785 139.287C391.67 137.663 391.518 136.049 391.328 134.447L392.814 134.271C393.006 135.897 393.161 137.534 393.277 139.182L391.785 139.287ZM196.879 139.513C196.777 141.082 196.709 142.653 196.676 144.225L195.18 144.193C195.214 142.599 195.283 141.007 195.386 139.416L196.879 139.513ZM392.041 146.582C392.041 145.767 392.031 144.954 392.012 144.143L393.508 144.108C393.521 144.682 393.53 145.258 393.534 145.834H393.539V146.582C393.539 147.409 393.53 148.234 393.51 149.056L392.015 149.021C392.028 148.446 392.037 147.869 392.041 147.292V146.582ZM196.675 148.942C196.709 150.514 196.777 152.085 196.878 153.654L195.385 153.75C195.282 152.16 195.214 150.567 195.18 148.974L196.675 148.942ZM391.331 158.718C391.52 157.116 391.673 155.502 391.787 153.878L393.279 153.983C393.163 155.631 393.009 157.268 392.816 158.893L391.331 158.718ZM197.284 158.353C197.453 159.917 197.656 161.476 197.892 163.03L196.413 163.255C196.173 161.68 195.968 160.099 195.796 158.514L197.284 158.353ZM389.73 168.305C390.072 166.727 390.377 165.135 390.645 163.531L392.12 163.777C391.849 165.405 391.539 167.021 391.192 168.622L389.73 168.305ZM198.704 167.676C199.009 169.218 199.347 170.754 199.72 172.281L198.266 172.635C197.889 171.087 197.545 169.53 197.237 167.966L198.704 167.676ZM387.218 177.695C387.71 176.156 388.167 174.601 388.587 173.03L390.032 173.417C389.606 175.011 389.143 176.589 388.643 178.151L387.218 177.695ZM200.939 176.836C201.379 178.345 201.853 179.844 202.361 181.331L200.945 181.814C200.43 180.306 199.949 178.785 199.502 177.255L200.939 176.836ZM383.815 186.8C384.453 185.314 385.057 183.81 385.626 182.288L387.028 182.812C386.45 184.357 385.837 185.883 385.189 187.391L383.815 186.8ZM203.987 185.755C204.563 187.218 205.172 188.666 205.816 190.1L204.451 190.713C203.798 189.258 203.179 187.787 202.595 186.304L203.987 185.755ZM379.548 195.534C380.328 194.116 381.074 192.677 381.787 191.218L383.131 191.875C382.408 193.356 381.65 194.816 380.859 196.254L379.548 195.534ZM207.846 194.352C208.556 195.753 209.3 197.138 210.078 198.505L208.778 199.245C207.988 197.857 207.232 196.451 206.511 195.029L207.846 194.352ZM374.459 203.815C375.372 202.479 376.254 201.119 377.104 199.736L378.378 200.519C377.516 201.923 376.621 203.303 375.694 204.659L374.459 203.815ZM212.505 202.539C213.348 203.864 214.224 205.17 215.133 206.455L213.912 207.32C212.988 206.014 212.098 204.687 211.243 203.341L212.505 202.539ZM368.593 211.565C369.631 210.323 370.641 209.055 371.62 207.761L372.813 208.664C371.819 209.977 370.794 211.264 369.74 212.525L368.593 211.565ZM217.945 210.225C218.915 211.46 219.918 212.673 220.954 213.862L219.826 214.845C218.773 213.636 217.754 212.404 216.768 211.15L217.945 210.225ZM362.003 218.709C363.157 217.574 364.285 216.409 365.385 215.217L366.484 216.232C365.368 217.442 364.224 218.623 363.051 219.776L362.003 218.709ZM224.13 217.322C225.22 218.452 226.343 219.556 227.499 220.635L226.478 221.729C225.303 220.632 224.162 219.509 223.053 218.362L224.13 217.322ZM354.747 225.176C356.008 224.159 357.244 223.11 358.454 222.032L359.45 223.149C358.222 224.243 356.967 225.308 355.687 226.341L354.747 225.176ZM231.008 223.746C232.209 224.757 233.442 225.742 234.706 226.698L233.803 227.891C232.518 226.919 231.265 225.919 230.044 224.891L231.008 223.746ZM346.893 230.899C348.248 230.01 349.582 229.089 350.891 228.135L351.772 229.344C350.443 230.312 349.089 231.248 347.713 232.15L346.893 230.899ZM238.511 229.426C239.809 230.308 241.138 231.162 242.497 231.986L241.721 233.265C240.34 232.428 238.99 231.56 237.67 230.664L238.511 229.426ZM338.509 235.813C339.948 235.064 341.366 234.279 342.762 233.461L343.519 234.751C342.101 235.582 340.661 236.379 339.2 237.14L338.509 235.813ZM246.555 234.31C247.935 235.055 249.344 235.771 250.781 236.457L250.136 237.808C248.677 237.111 247.246 236.384 245.845 235.627L246.555 234.31ZM329.677 239.862C331.184 239.261 332.674 238.623 334.144 237.949L334.768 239.309C333.275 239.993 331.762 240.641 330.231 241.252L329.677 239.862ZM255.05 238.37C256.493 238.974 257.962 239.55 259.458 240.095L258.946 241.501C257.428 240.948 255.936 240.363 254.471 239.749L255.05 238.37ZM320.481 242.998C322.043 242.552 323.589 242.068 325.119 241.547L325.602 242.963C324.048 243.492 322.478 243.984 320.891 244.437L320.481 242.998ZM263.902 241.6C265.388 242.065 266.899 242.502 268.435 242.908L268.052 244.354C266.495 243.942 264.963 243.499 263.455 243.027L263.902 241.6ZM273.028 244.018C274.538 244.349 276.071 244.651 277.627 244.925L277.368 246.398C275.792 246.121 274.239 245.814 272.708 245.479L273.028 244.018ZM311.015 245.184C312.616 244.899 314.203 244.575 315.776 244.212L316.113 245.669C314.515 246.038 312.903 246.368 311.277 246.657L311.015 245.184ZM282.358 245.658C283.875 245.862 285.412 246.039 286.969 246.189L286.826 247.678C285.25 247.526 283.694 247.347 282.158 247.141L282.358 245.658ZM301.376 246.401C302.999 246.279 304.611 246.116 306.211 245.914L306.398 247.399C304.773 247.604 303.136 247.769 301.488 247.893L301.376 246.401ZM294.101 246.674C293.296 246.641 292.497 246.601 291.703 246.554L291.615 248.048C292.423 248.096 293.236 248.136 294.055 248.169L294.07 248.17H294.085C294.912 248.17 295.737 248.16 296.56 248.139L296.522 246.643C295.718 246.663 294.91 246.674 294.101 246.674Z" fill="#C6DBFF"/>
<path fill-rule="evenodd" clip-rule="evenodd" d="M293.633 76.7791H293.65C294.553 76.7791 295.452 76.7973 296.347 76.8333L296.279 78.5245C295.412 78.4895 294.542 78.4718 293.667 78.4716C292.77 78.5083 291.883 78.5581 291.004 78.6207L290.884 76.9325C291.785 76.8682 292.696 76.8172 293.616 76.7798L293.633 76.7791ZM306.689 79.7977C304.986 79.4462 303.259 79.1623 301.511 78.9486L301.716 77.2686C303.51 77.4879 305.282 77.7793 307.03 78.1401L306.689 79.7977ZM285.814 79.1525C284.03 79.3925 282.288 79.6877 280.588 80.0355L280.249 78.3772C281.988 78.0216 283.767 77.7201 285.589 77.475L285.814 79.1525ZM316.754 82.753C315.126 82.1264 313.468 81.5641 311.783 81.0692L312.259 79.4451C313.989 79.9532 315.69 80.5302 317.361 81.1733L316.754 82.753ZM275.48 81.271C273.773 81.75 272.113 82.2847 270.5 82.8721L269.922 81.2815C271.576 80.6794 273.276 80.1317 275.023 79.6414L275.48 81.271ZM326.207 87.3054C324.698 86.4221 323.152 85.5984 321.572 84.8374L322.306 83.3123C323.927 84.0932 325.513 84.9383 327.061 85.8444L326.207 87.3054ZM265.641 84.8608C264.025 85.5988 262.462 86.3931 260.951 87.24L260.125 85.7632C261.676 84.8936 263.281 84.0783 264.939 83.321L265.641 84.8608ZM256.486 89.994C255.026 90.982 253.622 92.0229 252.275 93.1127L251.212 91.7962C252.597 90.6764 254.039 89.6069 255.539 88.5918L256.486 89.994ZM334.814 93.3136C333.462 92.2003 332.066 91.1406 330.63 90.1378L331.597 88.7496C333.07 89.7781 334.501 90.8648 335.888 92.0064L334.814 93.3136ZM248.345 96.579C247.077 97.7974 245.868 99.0632 244.719 100.372L243.449 99.2546C244.629 97.9103 245.871 96.6099 247.174 95.358L248.345 96.579ZM342.373 100.603C341.209 99.2903 339.996 98.0249 338.736 96.8098L339.909 95.591C341.201 96.8366 342.445 98.1338 343.638 99.4793L342.373 100.603ZM241.421 104.46C240.377 105.871 239.395 107.321 238.473 108.806L237.037 107.913C237.982 106.389 238.991 104.901 240.063 103.453L241.421 104.46ZM348.713 108.977C347.764 107.499 346.761 106.061 345.705 104.667L347.053 103.645C348.134 105.074 349.163 106.547 350.136 108.062L348.713 108.977ZM235.884 113.376C235.081 114.934 234.34 116.523 233.66 118.138L232.102 117.481C232.798 115.826 233.558 114.198 234.381 112.6L235.884 113.376ZM353.692 118.229C352.98 116.62 352.209 115.046 351.381 113.508L352.87 112.705C353.718 114.281 354.508 115.895 355.238 117.543L353.692 118.229ZM231.806 123.058C231.25 124.721 230.756 126.405 230.323 128.106L228.684 127.688C229.127 125.947 229.633 124.224 230.203 122.521L231.806 123.058ZM357.198 128.134C356.739 126.434 356.218 124.76 355.636 123.116L357.23 122.551C357.826 124.235 358.36 125.95 358.831 127.693L357.198 128.134ZM359.158 138.46C358.961 136.706 358.699 134.972 358.374 133.261L360.036 132.945C360.368 134.698 360.637 136.474 360.838 138.271L359.158 138.46ZM229.212 133.248C228.903 134.975 228.657 136.713 228.471 138.458L226.79 138.28C226.979 136.495 227.232 134.717 227.547 132.95L229.212 133.248ZM359.598 146.34C359.598 145.458 359.581 144.58 359.549 143.706L361.239 143.643C361.262 144.258 361.277 144.875 361.284 145.494H361.29V146.34C361.29 147.243 361.274 148.142 361.24 149.037L359.551 148.974C359.577 148.26 359.593 147.542 359.598 146.822V146.34ZM228.101 143.709C228.04 145.463 228.04 147.219 228.101 148.973L226.411 149.032C226.348 147.239 226.349 145.443 226.412 143.649L228.101 143.709ZM358.376 159.42C358.701 157.709 358.963 155.974 359.16 154.22L360.84 154.409C360.638 156.206 360.37 157.983 360.037 159.735L358.376 159.42ZM228.471 154.224C228.656 155.969 228.903 157.707 229.211 159.434L227.547 159.732C227.231 157.965 226.979 156.187 226.79 154.402L228.471 154.224ZM355.637 169.565C356.219 167.921 356.741 166.247 357.2 164.546L358.832 164.988C358.362 166.73 357.827 168.445 357.231 170.13L355.637 169.565ZM230.322 164.577C230.754 166.277 231.249 167.961 231.805 169.624L230.201 170.161C229.632 168.458 229.126 166.735 228.683 164.994L230.322 164.577ZM351.382 179.173C352.21 177.635 352.982 176.061 353.694 174.452L355.24 175.138C354.51 176.786 353.719 178.4 352.871 179.976L351.382 179.173ZM233.659 174.544C234.338 176.159 235.08 177.748 235.882 179.306L234.38 180.082C233.557 178.484 232.797 176.856 232.101 175.201L233.659 174.544ZM345.706 188.014C346.762 186.62 347.766 185.182 348.715 183.704L350.137 184.619C349.165 186.134 348.136 187.607 347.054 189.036L345.706 188.014ZM238.472 183.876C239.394 185.361 240.376 186.811 241.42 188.222L240.062 189.229C238.99 187.781 237.981 186.293 237.036 184.769L238.472 183.876ZM338.737 195.872C339.997 194.656 341.21 193.391 342.375 192.078L343.639 193.202C342.446 194.547 341.202 195.845 339.91 197.09L338.737 195.872ZM244.718 192.31C245.867 193.618 247.076 194.884 248.344 196.103L247.174 197.324C245.871 196.072 244.629 194.772 243.448 193.427L244.718 192.31ZM330.631 202.544C332.067 201.541 333.463 200.481 334.815 199.368L335.889 200.675C334.502 201.817 333.071 202.903 331.598 203.932L330.631 202.544ZM252.275 199.569C253.622 200.658 255.026 201.699 256.486 202.687L255.539 204.089C254.039 203.074 252.597 202.005 251.212 200.885L252.275 199.569ZM321.573 207.844C323.153 207.083 324.699 206.26 326.208 205.376L327.062 206.837C325.514 207.743 323.928 208.588 322.306 209.369L321.573 207.844ZM260.951 205.441C262.462 206.287 264.025 207.082 265.641 207.82L264.939 209.36C263.281 208.602 261.676 207.787 260.125 206.918L260.951 205.441ZM270.5 209.808C272.113 210.396 273.774 210.93 275.48 211.409L275.024 213.039C273.277 212.549 271.576 212.001 269.922 211.399L270.5 209.808ZM311.783 211.613C313.469 211.118 315.127 210.555 316.754 209.929L317.361 211.508C315.691 212.152 313.989 212.729 312.259 213.237L311.783 211.613ZM280.588 212.645C282.288 212.993 284.03 213.288 285.814 213.529L285.589 215.206C283.767 214.961 281.988 214.659 280.249 214.303L280.588 212.645ZM301.511 213.733C303.259 213.52 304.986 213.236 306.689 212.884L307.03 214.542C305.282 214.902 303.51 215.194 301.716 215.413L301.511 213.733ZM293.667 214.21C292.77 214.173 291.883 214.124 291.004 214.061L290.884 215.749C291.785 215.813 292.696 215.865 293.616 215.902L293.633 215.903H293.65C294.553 215.903 295.452 215.885 296.347 215.849L296.279 214.157C295.413 214.192 294.542 214.21 293.667 214.21Z" fill="#C6DBFF"/>
<mask id="mask0_6376_28093" style="mask-type:alpha" maskUnits="userSpaceOnUse" x="227" y="152" width="28" height="28">
<circle cx="241.04" cy="166.019" r="13.4185" fill="#C4C4C4"/>
</mask>
<g mask="url(#mask0_6376_28093)">
<path d="M240.695 179.918C248.268 179.918 254.408 173.779 254.408 166.207C254.408 158.634 248.268 152.496 240.695 152.496C233.121 152.496 226.981 158.634 226.981 166.207C226.981 173.779 233.121 179.918 240.695 179.918Z" fill="#5D5FEF"/>
<path d="M235.806 175.743C237.049 175.743 238.057 174.284 238.057 172.485C238.057 170.686 237.049 169.227 235.806 169.227C234.563 169.227 233.555 170.686 233.555 172.485C233.555 174.284 234.563 175.743 235.806 175.743Z" fill="#FEB79C"/>
<path d="M234.228 177.85L248.033 177.079C248.033 177.079 250.139 171.327 249.666 170.945C249.185 170.564 241.226 166.344 241.226 166.344L233.457 166.535L234.228 177.85Z" fill="#2C2D00"/>
<path d="M241.317 191.271C246.505 191.271 250.711 187.452 250.711 182.741C250.711 178.029 246.505 174.21 241.317 174.21C236.129 174.21 231.923 178.029 231.923 182.741C231.923 187.452 236.129 191.271 241.317 191.271Z" fill="#9FC0FF"/>
<path d="M240.849 176.988C239.727 176.988 238.806 176.283 238.775 175.406L238.645 171.374C238.615 170.482 239.527 169.73 240.669 169.715C241.82 169.699 242.772 170.404 242.792 171.296L242.922 175.328C242.952 176.22 242.041 176.972 240.899 176.988C240.889 176.988 240.869 176.988 240.849 176.988Z" fill="#FEB79C"/>
<path d="M240.702 169.563C239.961 169.578 239.351 170.112 239.198 170.807L239.259 173.195C239.282 174.057 239.984 174.736 240.839 174.736C240.854 174.736 240.862 174.736 240.877 174.736C241.617 174.721 242.228 174.187 242.38 173.492L242.319 171.104C242.297 170.227 241.579 169.54 240.702 169.563Z" fill="#FAA887"/>
<path d="M245.634 165.391C245.634 168.962 242.757 173.013 240.384 173.013C238.583 173.013 235.134 168.969 235.134 165.391C235.134 161.82 237.484 158.921 240.384 158.921C243.284 158.921 245.634 161.82 245.634 165.391Z" fill="#FEB79C"/>
<path d="M237.934 160.208C237.446 160.261 236.919 160.627 236.401 161.169C235.607 162.298 235.134 163.771 235.134 165.388C235.134 167.349 236.172 169.447 237.408 170.951C236.843 169.783 236.584 168.608 237.293 167.189C237.934 165.9 238.873 163.015 238.873 163.015C238.873 163.015 239.88 159.994 237.934 160.208Z" fill="#FAA887"/>
<path d="M240.384 158.921C238.568 158.921 236.973 160.058 236.026 161.782C236.507 162.804 238.079 165.437 241.75 166.184C244.68 166.78 242.933 169.519 242.887 171.747C244.405 170.266 245.634 167.726 245.634 165.391C245.634 161.82 243.284 158.921 240.384 158.921Z" fill="#FAA887"/>
<path d="M236.435 160.788C236.435 160.788 237.748 164.672 242.334 165.603C245.86 166.32 242.624 170.135 243.7 172.432C244.501 174.141 246.287 173.729 244.921 175.453C243.555 177.178 244.631 182.999 248.729 181.71C252.827 180.413 253.476 173.584 251.896 170.784C250.316 167.976 248.225 167.045 248.012 164.458C247.798 161.872 245.852 157.775 241.83 157.485C239.282 157.302 235.787 157.05 236.435 160.788Z" fill="#2E2F06"/>
<path d="M238.012 162.367C238.012 162.367 237.073 165.251 236.432 166.54C235.356 168.7 236.501 170.279 237.585 172.148C238.378 173.522 237.379 175.353 236.791 176.246C235.715 177.901 234.776 178.26 235.997 179.549C237.218 180.847 230.244 185.661 229.526 181.274C228.809 176.887 230.892 175.376 231.899 173.362C232.907 171.347 230.823 171.424 232.044 167.036C232.678 164.77 235.135 159.773 237.081 159.559C239.019 159.345 238.012 162.367 238.012 162.367Z" fill="#2E2F06"/>
</g>
<mask id="mask1_6376_28093" style="mask-type:alpha" maskUnits="userSpaceOnUse" x="217" y="49" width="33" height="32">
<circle cx="233.859" cy="65.086" r="15.8913" fill="#C4C4C4"/>
</mask>
<g mask="url(#mask1_6376_28093)">
<circle cx="233.52" cy="64.7473" r="16.2294" fill="#15C1E6"/>
<path d="M229.134 66.638L228.66 66.4515C228.39 66.3445 228.167 66.1469 228.032 65.8895C227.851 65.5414 227.641 65.0117 227.66 64.4498C227.695 63.475 228.43 62.2541 228.772 62.6209C229.114 62.9876 229.563 64.2061 229.563 64.2061V66.638H229.134Z" fill="#E7C6A7"/>
<path d="M239.94 66.638L240.789 66.3023C240.789 66.3023 241.446 65.4245 241.411 64.4498C241.376 63.475 240.641 62.2541 240.3 62.6209C239.958 62.9876 239.509 64.2061 239.509 64.2061V66.638H239.94Z" fill="#E7C6A7"/>
<path d="M239.944 66.6392L240.412 66.454C240.69 66.3445 240.918 66.1369 241.055 65.8708C241.234 65.5227 241.436 65.0018 241.417 64.4498C241.382 63.475 240.647 62.2541 240.305 62.6209C239.963 62.9876 239.515 64.2061 239.515 64.2061V66.638H239.944V66.6392Z" fill="#E7C6A7"/>
<path d="M231.031 68.2468C231.031 68.2468 231.295 72.2564 230.485 73.1541C229.51 74.2345 225.114 75.0128 225.33 75.3933C225.33 75.3933 228.181 80.4087 234.197 80.4087C240.214 80.4087 243.168 75.9565 243.619 75.3149C243.755 75.0178 239.495 74.2407 238.661 73.4052C237.843 72.5872 237.812 68.0901 237.812 68.0901L231.031 68.2468Z" fill="#E7C6A7"/>
<path d="M242.467 76.0577C242.717 75.7145 242.955 75.3863 243.181 75.073C243.071 75.0357 242.952 74.9934 242.826 74.9474C241.582 74.5645 239.254 73.9988 238.661 73.4057C237.997 72.7418 237.852 69.6522 237.821 68.5133L231.288 69.1723C231.304 69.4943 231.319 69.8685 231.327 70.2577L239.313 79.054C239.564 78.9222 242.239 76.1982 242.467 76.0577Z" fill="#DFB996"/>
<path d="M239.927 62.7196C239.927 64.6057 239.626 66.6534 239.225 68.0906C239.177 68.2634 239.101 68.4276 239 68.5767C237.635 70.5772 235.707 72.1724 234.383 72.1724C232.946 72.1724 231.201 70.7786 229.853 68.6066C229.759 68.4549 229.728 68.2746 229.652 68.1118C228.945 66.6074 228.778 64.6156 228.837 62.7196C229.001 57.5972 231.32 53.4396 234.383 53.4396C237.445 53.4396 239.927 57.5947 239.927 62.7196Z" fill="#E7C6A7"/>
<path d="M242.847 64.7007C242.847 57.9657 239.262 52.5052 234.269 52.5052C229.275 52.5052 226.639 57.9943 226.016 64.7007C225.852 66.4637 224.362 69.276 226.033 71.7589C226.16 71.9466 226.444 72.163 226.65 72.2574C227.508 72.6541 228.758 73.267 229.517 73.4809C229.635 73.5144 228.912 72.1456 229.03 72.0996C229.03 72.0996 230.263 71.7216 230.96 71.6955C230.96 71.6955 231.068 70.9172 231.062 70.2271C231.062 70.2271 229.497 68.5276 229.174 66.639C229.172 66.6377 229.169 66.6353 229.167 66.6328C228.1 65.8458 227.992 65.5772 227.89 65.162C227.538 63.7197 228.434 61.8709 228.833 62.9949C229.507 61.626 230.036 59.2352 230.036 59.2352C230.109 59.2613 230.016 60.5394 230.092 60.5692C230.537 60.7395 231.186 60.9273 231.957 61.0255C232.011 61.033 232.07 59.7897 232.125 59.7922C232.176 59.7946 232.224 61.0367 232.275 61.0429C234.42 61.2916 237.042 61.1337 238.774 60.7134C238.886 60.6861 238.87 59.6367 238.974 59.6069C239.077 60.8253 239.458 62.132 239.919 63.2435C240.301 62.556 240.699 62.8171 240.894 63.3903C241.142 64.1213 240.814 65.1296 240.416 65.7364C240.281 65.9427 239.585 66.4326 239.551 66.6402C239.551 66.6402 239.47 67.467 238.953 68.6146C238.862 68.816 238.759 68.9279 237.89 69.9822C237.891 70.9023 238.01 71.3337 238.047 71.4841C238.047 71.4841 239.524 71.637 240.188 71.8758C240.229 71.8907 239.466 73.4995 239.509 73.4871C240.272 73.2397 242.401 72.6143 242.884 71.8882C244.407 69.9026 243.035 67.4608 242.847 64.7007Z" fill="#514B4E"/>
<path opacity="0.41" d="M231.062 70.228C231.062 70.228 229.518 68.5346 229.174 66.6398C228.411 67.8259 228.149 70.6868 229.031 72.1016C229.031 72.1016 230.264 71.7237 230.96 71.6976C230.96 71.6963 231.068 70.918 231.062 70.228Z" fill="black"/>
<path opacity="0.41" d="M239.553 66.6543C239.553 66.6543 239.553 66.6928 239.534 66.7861C239.487 67.072 239.345 67.7521 238.958 68.6125C238.867 68.8139 238.764 68.9258 237.895 69.9801C237.896 70.9002 238.015 71.3316 238.051 71.482C238.051 71.482 239.528 71.6349 240.192 71.8737C240.537 70.0783 240.237 67.9001 239.553 66.6543Z" fill="black"/>
<path d="M241.29 74.4984L241.326 74.5182C241.3 74.5667 240.675 75.7044 239.517 76.8532C238.832 77.5332 238.102 78.0753 237.345 78.467C236.388 78.9618 235.388 79.2129 234.374 79.2129C233.369 79.2129 232.39 78.963 231.465 78.4707C230.734 78.0815 230.036 77.5395 229.39 76.8619C228.299 75.7155 227.678 74.4598 227.678 74.4598C226.381 74.8589 218.629 76.8619 221.94 80.4078C221.94 80.4078 228.357 82.9628 234.374 82.9628C240.39 82.9628 250.249 77.2185 246.77 75.6793C250.773 76.4191 242.526 74.8626 241.29 74.4984Z" fill="#3D7FFC"/>
<path d="M227.696 74.5021C227.719 74.5506 228.299 75.7156 229.39 76.8632C230.036 77.5408 230.734 78.0828 231.465 78.472C232.39 78.9643 233.369 79.2142 234.374 79.2142C235.388 79.2142 236.388 78.9631 237.345 78.4683C238.101 78.0779 238.832 77.5345 239.517 76.8545C240.675 75.7056 241.3 74.5668 241.326 74.5195L241.29 74.4997C241.029 74.4226 240.764 74.3418 240.508 74.2585C240.313 74.583 239.77 75.4222 238.927 76.2589C237.512 77.6638 235.98 78.375 234.375 78.375C232.792 78.375 231.32 77.6713 229.998 76.285C229.162 75.4073 228.657 74.486 228.499 74.1913C228.233 74.2808 227.943 74.3803 227.676 74.4624L227.696 74.5021Z" fill="#3D7FFC"/>
</g>
<mask id="mask2_6376_28093" style="mask-type:alpha" maskUnits="userSpaceOnUse" x="260" y="223" width="31" height="31">
<circle cx="275.684" cy="238.104" r="14.9787" fill="#C4C4C4"/>
</mask>
<g mask="url(#mask2_6376_28093)">
<path d="M275.303 253.618C283.757 253.618 290.611 246.766 290.611 238.313C290.611 229.86 283.757 223.008 275.303 223.008C266.849 223.008 259.995 229.86 259.995 238.313C259.995 246.766 266.849 253.618 275.303 253.618Z" fill="#FECE4D"/>
<path d="M269.845 248.957C271.233 248.957 272.358 247.329 272.358 245.321C272.358 243.312 271.233 241.684 269.845 241.684C268.457 241.684 267.332 243.312 267.332 245.321C267.332 247.329 268.457 248.957 269.845 248.957Z" fill="#FEB79C"/>
<path d="M268.083 251.309L283.493 250.449C283.493 250.449 285.844 244.027 285.316 243.601C284.779 243.176 275.895 238.466 275.895 238.466L267.223 238.679L268.083 251.309Z" fill="#274F7C"/>
<path d="M276 266.29C281.791 266.29 286.486 262.027 286.486 256.768C286.486 251.509 281.791 247.246 276 247.246C270.209 247.246 265.514 251.509 265.514 256.768C265.514 262.027 270.209 266.29 276 266.29Z" fill="#9FC0FF"/>
<path d="M275.471 250.347C274.219 250.347 273.19 249.561 273.157 248.582L273.012 244.082C272.978 243.085 273.995 242.246 275.27 242.229C276.556 242.211 277.618 242.998 277.64 243.994L277.786 248.495C277.819 249.491 276.802 250.33 275.527 250.347C275.516 250.347 275.494 250.347 275.471 250.347Z" fill="#FEB79C"/>
<path d="M275.309 242.059C274.483 242.076 273.801 242.672 273.631 243.447L273.699 246.113C273.725 247.075 274.508 247.833 275.462 247.833C275.479 247.833 275.488 247.833 275.505 247.833C276.331 247.816 277.013 247.22 277.183 246.445L277.115 243.779C277.089 242.8 276.289 242.033 275.309 242.059Z" fill="#FAA887"/>
<path d="M280.817 237.402C280.817 241.388 277.606 245.91 274.956 245.91C272.946 245.91 269.096 241.396 269.096 237.402C269.096 233.416 271.719 230.179 274.956 230.179C278.194 230.179 280.817 233.416 280.817 237.402Z" fill="#FEB79C"/>
<path d="M272.222 231.617C271.677 231.677 271.089 232.086 270.51 232.69C269.624 233.951 269.096 235.595 269.096 237.4C269.096 239.589 270.254 241.931 271.634 243.609C271.004 242.306 270.714 240.995 271.506 239.41C272.222 237.971 273.27 234.752 273.27 234.752C273.27 234.752 274.394 231.379 272.222 231.617Z" fill="#FAA887"/>
<path d="M274.957 230.179C272.929 230.179 271.149 231.448 270.093 233.373C270.629 234.514 272.384 237.453 276.482 238.287C279.753 238.952 277.802 242.009 277.751 244.496C279.446 242.844 280.818 240.008 280.818 237.402C280.818 233.416 278.194 230.179 274.957 230.179Z" fill="#FAA887"/>
<path d="M270.545 232.265C270.545 232.265 272.01 236.6 277.13 237.639C281.065 238.439 277.454 242.698 278.655 245.262C279.549 247.17 281.542 246.71 280.018 248.634C278.493 250.559 279.694 257.058 284.268 255.618C288.843 254.171 289.567 246.548 287.804 243.422C286.04 240.288 283.706 239.249 283.468 236.361C283.229 233.474 281.057 228.9 276.568 228.577C273.722 228.372 269.821 228.091 270.545 232.265Z" fill="#274F7C"/>
<path d="M272.307 234.027C272.307 234.027 271.259 237.247 270.544 238.686C269.342 241.097 270.62 242.86 271.83 244.946C272.716 246.479 271.6 248.524 270.944 249.52C269.743 251.368 268.695 251.769 270.058 253.208C271.421 254.656 263.635 260.03 262.834 255.133C262.034 250.236 264.359 248.549 265.484 246.301C266.608 244.052 264.282 244.137 265.645 239.24C266.352 236.71 269.095 231.132 271.268 230.893C273.431 230.655 272.307 234.027 272.307 234.027Z" fill="#274F7C"/>
</g>
<mask id="mask3_6376_28093" style="mask-type:alpha" maskUnits="userSpaceOnUse" x="326" y="39" width="39" height="38">
<circle cx="345.398" cy="57.8896" r="18.8896" fill="#C4C4C4"/>
</mask>
<g mask="url(#mask3_6376_28093)">
<path d="M344.926 77.4554C355.587 77.4554 364.23 68.8139 364.23 58.154C364.23 47.4941 355.587 38.8526 344.926 38.8526C334.264 38.8526 325.621 47.4941 325.621 58.154C325.621 68.8139 334.264 77.4554 344.926 77.4554Z" fill="#FECE4D"/>
<path d="M338.047 71.5772C339.797 71.5772 341.216 69.5239 341.216 66.9909C341.216 64.4579 339.797 62.4045 338.047 62.4045C336.297 62.4045 334.878 64.4579 334.878 66.9909C334.878 69.5239 336.297 71.5772 338.047 71.5772Z" fill="#FEB79C"/>
<path d="M335.819 74.5438L355.253 73.459C355.253 73.459 358.218 65.3604 357.552 64.8233C356.875 64.2863 345.67 58.3466 345.67 58.3466L334.734 58.6151L335.819 74.5438Z" fill="#274F7C"/>
<path d="M345.805 93.4354C353.109 93.4354 359.03 88.0591 359.03 81.4271C359.03 74.795 353.109 69.4187 345.805 69.4187C338.502 69.4187 332.581 74.795 332.581 81.4271C332.581 88.0591 338.502 93.4354 345.805 93.4354Z" fill="#9FC0FF"/>
<path d="M345.146 73.3308C343.567 73.3308 342.27 72.339 342.227 71.1046L342.044 65.4289C342.002 64.1726 343.285 63.1146 344.892 63.0925C346.514 63.0705 347.853 64.0624 347.881 65.3187L348.065 70.9944C348.107 72.2508 346.824 73.3088 345.216 73.3308C345.202 73.3308 345.174 73.3308 345.146 73.3308Z" fill="#FEB79C"/>
<path d="M344.939 62.8776C343.897 62.899 343.037 63.6509 342.822 64.6283L342.908 67.9902C342.94 69.2039 343.929 70.1599 345.132 70.1599C345.153 70.1599 345.164 70.1599 345.186 70.1599C346.228 70.1384 347.087 69.3865 347.302 68.4091L347.216 65.0472C347.184 63.812 346.174 62.8453 344.939 62.8776Z" fill="#FAA887"/>
<path d="M351.881 57.0042C351.881 62.031 347.831 67.7344 344.49 67.7344C341.954 67.7344 337.099 62.0417 337.099 57.0042C337.099 51.9775 340.407 47.896 344.49 47.896C348.572 47.896 351.881 51.9775 351.881 57.0042Z" fill="#FEB79C"/>
<path d="M341.041 49.7102C340.354 49.7854 339.612 50.3009 338.882 51.0635C337.765 52.6532 337.099 54.7262 337.099 57.0032C337.099 59.7637 338.56 62.7174 340.3 64.8334C339.505 63.19 339.14 61.5359 340.139 59.5381C341.041 57.7229 342.363 53.6628 342.363 53.6628C342.363 53.6628 343.781 49.4094 341.041 49.7102Z" fill="#FAA887"/>
<path d="M344.492 47.896C341.935 47.896 339.69 49.4964 338.357 51.9238C339.034 53.3631 341.247 57.0687 346.414 58.1213C350.54 58.9591 348.08 62.8151 348.015 65.9514C350.153 63.8677 351.883 60.291 351.883 57.0042C351.883 51.9775 348.574 47.896 344.492 47.896Z" fill="#FAA887"/>
<path d="M338.927 50.5265C338.927 50.5265 340.775 55.9936 347.231 57.304C352.195 58.3136 347.64 63.6841 349.154 66.9171C350.282 69.323 352.796 68.743 350.873 71.1705C348.95 73.5979 350.465 81.7932 356.234 79.978C362.003 78.1521 362.916 68.539 360.692 64.5971C358.468 60.6444 355.525 59.334 355.224 55.6928C354.923 52.0517 352.184 46.2838 346.522 45.8757C342.934 45.6179 338.014 45.2634 338.927 50.5265Z" fill="#274F7C"/>
<path d="M341.15 52.7492C341.15 52.7492 339.829 56.8093 338.927 58.6245C337.412 61.6642 339.023 63.8875 340.549 66.519C341.666 68.4524 340.259 71.0302 339.431 72.2869C337.917 74.6177 336.595 75.1225 338.314 76.9377C340.033 78.7637 330.214 85.5412 329.204 79.3652C328.195 73.1891 331.127 71.0624 332.545 68.2269C333.963 65.3913 331.031 65.4987 332.749 59.3226C333.641 56.1326 337.1 49.0973 339.84 48.7966C342.568 48.4958 341.15 52.7492 341.15 52.7492Z" fill="#274F7C"/>
</g>
<circle cx="293.229" cy="44.0972" r="5.09721" fill="#9D97F4"/>
<circle cx="217.637" cy="206.898" r="5.61703" fill="#3D7FFC"/>
<circle cx="341.836" cy="228.742" r="3.74469" fill="#5D5FEF"/>
<circle cx="280.036" cy="78.8779" r="6.29655" fill="#15C1E6"/>
<g filter="url(#filter0_d_6376_28093)">
<path d="M413.987 105H163.013C161.901 105 161 105.927 161 107.071V261.929C161 263.073 161.901 264 163.013 264H413.987C415.099 264 416 263.073 416 261.929V107.071C416 105.927 415.099 105 413.987 105Z" fill="url(#paint0_linear_6376_28093)"/>
</g>
<path d="M416 102C416 99.2386 413.761 97 411 97H166C163.239 97 161 99.2386 161 102V109C161 111.761 163.239 114 166 114H411C413.761 114 416 111.761 416 109V102Z" fill="#062E69"/>
<path d="M170.374 100.973C170.375 101.243 170.295 101.506 170.146 101.731C169.996 101.956 169.783 102.131 169.533 102.235C169.284 102.338 169.009 102.366 168.744 102.313C168.479 102.261 168.235 102.132 168.044 101.941C167.852 101.751 167.722 101.508 167.669 101.243C167.616 100.979 167.643 100.704 167.746 100.455C167.85 100.206 168.025 99.9928 168.249 99.8428C168.474 99.6929 168.738 99.6129 169.008 99.6129C169.369 99.6154 169.715 99.7594 169.97 100.014C170.226 100.268 170.371 100.613 170.374 100.973Z" fill="white"/>
<path d="M176.749 100.973C176.75 101.243 176.67 101.507 176.52 101.731C176.37 101.956 176.157 102.131 175.908 102.235C175.658 102.339 175.383 102.366 175.118 102.313C174.852 102.261 174.609 102.131 174.418 101.94C174.226 101.749 174.096 101.506 174.044 101.241C173.991 100.977 174.018 100.702 174.122 100.453C174.226 100.204 174.402 99.9909 174.627 99.8413C174.852 99.6918 175.116 99.6123 175.387 99.613C175.566 99.6121 175.743 99.6467 175.909 99.7147C176.075 99.7828 176.225 99.8829 176.352 100.009C176.479 100.136 176.579 100.286 176.647 100.451C176.715 100.617 176.75 100.794 176.749 100.973Z" fill="white"/>
<path d="M183.12 100.973C183.121 101.243 183.041 101.507 182.892 101.731C182.742 101.956 182.529 102.131 182.279 102.235C182.03 102.338 181.755 102.366 181.49 102.314C181.225 102.261 180.981 102.132 180.79 101.941C180.599 101.751 180.468 101.508 180.415 101.243C180.362 100.979 180.389 100.705 180.492 100.455C180.596 100.206 180.771 99.9929 180.995 99.8429C181.22 99.693 181.484 99.613 181.754 99.613C182.115 99.6155 182.461 99.7595 182.716 100.014C182.972 100.268 183.117 100.613 183.12 100.973Z" fill="white"/>
<path d="M416 105H161V116H416V105Z" fill="#062E69"/>
<path d="M401.467 107.962H189.783V113.959H401.467V107.962Z" fill="white" fill-opacity="0.2"/>
<rect x="179.021" y="107.791" width="6.37357" height="6.36156" fill="white" fill-opacity="0.2"/>
<path fill-rule="evenodd" clip-rule="evenodd" d="M181.393 109.697C181.523 109.578 181.734 109.578 181.864 109.698L183.019 110.758C183.149 110.877 183.148 111.07 183.018 111.189L181.864 112.245C181.734 112.364 181.523 112.364 181.393 112.245C181.262 112.126 181.262 111.933 181.393 111.814L182.312 110.973L181.392 110.128C181.262 110.009 181.263 109.816 181.393 109.697Z" fill="#B8C4D0"/>
<rect x="176.742" y="114.153" width="6.37357" height="6.36156" transform="rotate(-180 176.742 114.153)" fill="white" fill-opacity="0.2"/>
<path fill-rule="evenodd" clip-rule="evenodd" d="M174.371 112.247C174.24 112.366 174.029 112.366 173.899 112.246L172.745 111.186C172.615 111.067 172.615 110.874 172.745 110.755L173.9 109.699C174.03 109.58 174.241 109.58 174.371 109.699C174.501 109.818 174.501 110.011 174.371 110.13L173.452 110.971L174.372 111.816C174.501 111.935 174.501 112.128 174.371 112.247Z" fill="#B8C4D0"/>
<rect x="170.394" y="122.297" width="90.2671" height="66.1859" rx="4.35263" fill="#E7EEFF" fill-opacity="0.17"/>
<rect x="170.394" y="193.047" width="90.2671" height="64.6644" rx="1.83181" fill="#2E5196"/>
<rect x="273.514" y="122.153" width="154.343" height="46.4527" rx="1.83181" fill="#2E5196"/>
<line x1="282.726" y1="155.647" x2="305.683" y2="155.647" stroke="#E7EEFF" stroke-opacity="0.5" stroke-width="2.39869" stroke-linecap="round"/>
<line x1="323.454" y1="143.003" x2="391.661" y2="143.003" stroke="#C6DBFF" stroke-width="1.79901" stroke-linecap="round"/>
<line x1="323.454" y1="147.534" x2="376.714" y2="147.534" stroke="#E7EEFF" stroke-opacity="0.5" stroke-width="1.79901" stroke-linecap="round"/>
<line x1="323.454" y1="152.294" x2="370.163" y2="152.294" stroke="#F5F8FF" stroke-opacity="0.5" stroke-width="1.79901" stroke-linecap="round"/>
<line x1="282.726" y1="161.991" x2="293.556" y2="161.991" stroke="#E7EEFF" stroke-opacity="0.5" stroke-width="2.39869" stroke-linecap="round"/>
<rect opacity="0.4" x="281.954" y="128.753" width="26.7103" height="19.1618" rx="2.39869" fill="#9FC0FF"/>
<rect x="322.206" y="128.895" width="9.06239" height="9.06239" rx="0.599671" fill="#15C1E6"/>
<g clip-path="url(#clip0_6376_28093)">
<path d="M328.287 134.07C328.484 134.084 329.109 134.516 329.38 134.795C329.423 134.839 329.451 134.898 329.46 134.962C329.47 135.027 329.46 135.093 329.432 135.15C329.344 135.327 329.207 135.603 329.169 135.654C329.023 135.85 328.876 136.019 328.651 135.977C328.614 135.97 328.576 135.962 328.539 135.953C328.501 135.944 328.462 135.934 328.424 135.923C328.385 135.911 328.346 135.899 328.308 135.886C328.268 135.872 328.228 135.858 328.189 135.842C328.149 135.827 328.109 135.81 328.069 135.793C328.029 135.775 327.988 135.757 327.948 135.737C327.907 135.718 327.867 135.697 327.826 135.676C327.785 135.655 327.744 135.633 327.704 135.61C327.662 135.587 327.621 135.563 327.58 135.538C327.539 135.513 327.498 135.488 327.457 135.462C327.415 135.435 327.374 135.408 327.333 135.38C327.292 135.352 327.251 135.324 327.21 135.294C327.17 135.265 327.129 135.235 327.088 135.204C327.047 135.174 327.006 135.142 326.966 135.11C326.544 134.775 326.155 134.382 325.823 133.936C325.792 133.893 325.76 133.85 325.73 133.807C325.699 133.763 325.668 133.719 325.639 133.675C325.609 133.632 325.58 133.587 325.551 133.543C325.522 133.498 325.494 133.454 325.467 133.409C325.44 133.365 325.413 133.321 325.386 133.275C325.36 133.23 325.334 133.185 325.309 133.14C325.284 133.096 325.26 133.05 325.236 133.005C325.213 132.96 325.19 132.915 325.168 132.87C325.146 132.825 325.124 132.78 325.103 132.734C325.083 132.69 325.063 132.645 325.043 132.6C325.024 132.555 325.006 132.511 324.988 132.466C324.971 132.422 324.954 132.377 324.938 132.333C324.922 132.289 324.907 132.245 324.893 132.201C324.879 132.158 324.866 132.115 324.853 132.071C324.841 132.028 324.83 131.986 324.819 131.943C324.809 131.901 324.799 131.859 324.791 131.816C324.782 131.775 324.775 131.734 324.768 131.692C324.766 131.683 324.765 131.673 324.763 131.664C324.726 131.414 324.879 131.251 325.055 131.089C325.101 131.047 325.349 130.895 325.509 130.798C325.561 130.767 325.62 130.756 325.678 130.766C325.736 130.777 325.789 130.808 325.829 130.856C326.081 131.157 326.47 131.849 326.483 132.068C326.488 132.165 326.474 132.262 326.403 132.317L326.153 132.512L326.132 132.528C326.118 132.539 326.106 132.551 326.095 132.565C326.068 132.599 326.051 132.641 326.046 132.686C326.04 132.731 326.047 132.777 326.066 132.817C326.224 133.165 326.338 133.49 326.581 133.785C326.881 134.147 327.227 134.319 327.612 134.533C327.649 134.553 327.69 134.561 327.73 134.555C327.77 134.549 327.808 134.53 327.839 134.5C327.852 134.488 327.863 134.474 327.873 134.459L327.887 134.436L328.062 134.159C328.112 134.079 328.199 134.064 328.287 134.07Z" fill="#22395B"/>
</g>
<rect x="347.593" y="128.895" width="9.06239" height="9.06239" rx="0.599671" fill="#3D7FFC"/>
<path d="M351.315 130.708C351.27 130.708 351.227 130.725 351.195 130.756C351.163 130.786 351.145 130.828 351.144 130.871V131.444H349.577C349.571 131.444 349.566 131.444 349.561 131.444C349.519 131.448 349.48 131.467 349.451 131.497C349.423 131.527 349.407 131.566 349.407 131.606V132.427L351.532 132.976V132.97C351.532 132.88 351.607 132.806 351.701 132.806H352.551C352.644 132.806 352.72 132.88 352.72 132.97V132.976L354.845 132.429V131.606C354.845 131.563 354.826 131.522 354.794 131.491C354.762 131.461 354.719 131.444 354.674 131.444H353.107V130.871C353.107 130.828 353.089 130.786 353.057 130.756C353.025 130.725 352.982 130.708 352.937 130.708L351.315 130.708ZM351.484 131.035H352.768V131.444H351.484V131.035ZM349.407 132.766V135.077C349.407 135.12 349.425 135.161 349.457 135.192C349.489 135.222 349.532 135.239 349.577 135.24H354.674C354.719 135.24 354.762 135.223 354.794 135.192C354.826 135.162 354.844 135.12 354.845 135.077V132.767L352.72 133.313V133.603C352.72 133.693 352.644 133.767 352.551 133.767H351.701C351.607 133.767 351.532 133.693 351.532 133.603V133.313L349.407 132.766ZM351.872 133.132C351.887 133.17 351.887 133.212 351.872 133.25V133.44H352.38V133.25C352.365 133.212 352.365 133.17 352.38 133.132H351.872Z" fill="#22395B"/>
<rect x="334.901" y="128.896" width="9.06239" height="9.06239" rx="0.599671" fill="#9D97F4"/>
<g clip-path="url(#clip1_6376_28093)">
<path d="M339.81 134.248C339.707 134.343 339.575 134.395 339.439 134.395C339.303 134.395 339.171 134.343 339.067 134.248L338.6 133.823L337.013 135.527H341.865L340.277 133.823L339.81 134.248Z" fill="#22395B"/>
<path d="M342.136 135.233V132.13L340.571 133.554L342.136 135.233Z" fill="#22395B"/>
<path d="M336.74 132.13V135.233L338.305 133.554L336.74 132.13Z" fill="#22395B"/>
<path d="M341.938 131.328H336.94C336.887 131.328 336.836 131.351 336.799 131.391C336.761 131.431 336.74 131.486 336.74 131.543V131.587L336.846 131.683L339.317 133.931C339.351 133.963 339.394 133.98 339.439 133.98C339.484 133.98 339.527 133.963 339.561 133.931L342.032 131.683L342.137 131.587V131.543C342.137 131.486 342.116 131.431 342.079 131.391C342.041 131.351 341.99 131.328 341.938 131.328Z" fill="#22395B"/>
</g>
<rect x="273.514" y="173.85" width="154.343" height="46.4527" rx="1.83181" fill="#2E5196"/>
<line x1="282.726" y1="207.344" x2="305.683" y2="207.344" stroke="#E7EEFF" stroke-opacity="0.5" stroke-width="2.39869" stroke-linecap="round"/>
<line x1="323.454" y1="194.7" x2="391.661" y2="194.7" stroke="#C6DBFF" stroke-width="1.79901" stroke-linecap="round"/>
<line x1="323.454" y1="199.231" x2="376.714" y2="199.231" stroke="#E7EEFF" stroke-opacity="0.5" stroke-width="1.79901" stroke-linecap="round"/>
<line x1="323.454" y1="203.991" x2="370.163" y2="203.991" stroke="#F5F8FF" stroke-opacity="0.5" stroke-width="1.79901" stroke-linecap="round"/>
<line x1="282.726" y1="213.688" x2="293.556" y2="213.688" stroke="#E7EEFF" stroke-opacity="0.5" stroke-width="2.39869" stroke-linecap="round"/>
<rect opacity="0.4" x="281.954" y="180.45" width="26.7103" height="19.1618" rx="2.39869" fill="#9FC0FF"/>
<rect x="322.206" y="180.592" width="9.06239" height="9.06239" rx="0.599671" fill="#15C1E6"/>
<g clip-path="url(#clip2_6376_28093)">
<path d="M328.287 185.768C328.484 185.782 329.109 186.214 329.38 186.493C329.423 186.537 329.451 186.596 329.46 186.661C329.47 186.725 329.46 186.791 329.432 186.848C329.344 187.025 329.207 187.301 329.169 187.352C329.023 187.548 328.876 187.717 328.651 187.675C328.614 187.668 328.576 187.66 328.539 187.651C328.501 187.642 328.462 187.632 328.424 187.621C328.385 187.609 328.346 187.597 328.308 187.584C328.268 187.57 328.228 187.556 328.189 187.54C328.149 187.525 328.109 187.508 328.069 187.491C328.029 187.473 327.988 187.455 327.948 187.435C327.907 187.416 327.867 187.395 327.826 187.374C327.785 187.353 327.744 187.331 327.704 187.308C327.662 187.285 327.621 187.261 327.58 187.236C327.539 187.211 327.498 187.186 327.457 187.16C327.415 187.133 327.374 187.106 327.333 187.078C327.292 187.05 327.251 187.022 327.21 186.993C327.17 186.963 327.129 186.933 327.088 186.902C327.047 186.872 327.006 186.84 326.966 186.808C326.544 186.473 326.155 186.08 325.823 185.634C325.792 185.591 325.76 185.548 325.73 185.505C325.699 185.461 325.668 185.417 325.639 185.374C325.609 185.33 325.58 185.286 325.551 185.241C325.522 185.196 325.494 185.152 325.467 185.107C325.44 185.063 325.413 185.019 325.386 184.973C325.36 184.928 325.334 184.883 325.309 184.838C325.284 184.794 325.26 184.749 325.236 184.703C325.213 184.658 325.19 184.613 325.168 184.568C325.146 184.523 325.124 184.478 325.103 184.432C325.083 184.388 325.063 184.343 325.043 184.298C325.024 184.253 325.006 184.209 324.988 184.164C324.971 184.12 324.954 184.075 324.938 184.031C324.922 183.987 324.907 183.943 324.893 183.899C324.879 183.856 324.866 183.813 324.853 183.769C324.841 183.726 324.83 183.684 324.819 183.641C324.809 183.599 324.799 183.557 324.791 183.514C324.782 183.473 324.775 183.432 324.768 183.391C324.766 183.381 324.765 183.371 324.763 183.362C324.726 183.112 324.879 182.949 325.055 182.787C325.101 182.745 325.349 182.593 325.509 182.496C325.561 182.465 325.62 182.454 325.678 182.464C325.736 182.475 325.789 182.506 325.829 182.554C326.081 182.855 326.47 183.547 326.483 183.766C326.488 183.863 326.474 183.96 326.403 184.015L326.153 184.21L326.132 184.226C326.118 184.237 326.106 184.249 326.095 184.263C326.068 184.297 326.051 184.339 326.046 184.384C326.04 184.429 326.047 184.475 326.066 184.515C326.224 184.863 326.338 185.188 326.581 185.483C326.881 185.845 327.227 186.017 327.612 186.231C327.649 186.251 327.69 186.259 327.73 186.253C327.77 186.247 327.808 186.228 327.839 186.198C327.852 186.186 327.863 186.172 327.873 186.157L327.887 186.134L328.062 185.857C328.112 185.777 328.199 185.762 328.287 185.768Z" fill="#22395B"/>
</g>
<rect x="347.593" y="180.593" width="9.06239" height="9.06239" rx="0.599671" fill="#3D7FFC"/>
<path d="M351.315 182.406C351.27 182.405 351.227 182.422 351.195 182.453C351.163 182.483 351.145 182.525 351.144 182.568V183.141H349.577C349.571 183.141 349.566 183.141 349.561 183.141C349.519 183.145 349.48 183.164 349.451 183.194C349.423 183.224 349.407 183.263 349.407 183.304V184.124L351.532 184.673V184.667C351.532 184.577 351.607 184.504 351.701 184.503H352.551C352.644 184.504 352.72 184.577 352.72 184.667V184.673L354.845 184.127V183.304C354.845 183.26 354.826 183.219 354.794 183.189C354.762 183.158 354.719 183.141 354.674 183.141H353.107V182.568C353.107 182.525 353.089 182.483 353.057 182.453C353.025 182.422 352.982 182.405 352.937 182.406L351.315 182.406ZM351.484 182.732H352.768V183.141H351.484V182.732ZM349.407 184.463V186.774C349.407 186.817 349.425 186.859 349.457 186.889C349.489 186.919 349.532 186.937 349.577 186.937H354.674C354.719 186.937 354.762 186.92 354.794 186.889C354.826 186.859 354.844 186.817 354.845 186.774V184.465L352.72 185.01V185.3C352.72 185.39 352.644 185.464 352.551 185.464H351.701C351.607 185.464 351.532 185.39 351.532 185.3V185.01L349.407 184.463ZM351.872 184.829C351.887 184.867 351.887 184.909 351.872 184.947V185.138H352.38V184.947C352.365 184.909 352.365 184.867 352.38 184.829H351.872Z" fill="#22395B"/>
<rect x="334.901" y="180.593" width="9.06239" height="9.06239" rx="0.599671" fill="#9D97F4"/>
<g clip-path="url(#clip3_6376_28093)">
<path d="M339.799 186.154C339.695 186.249 339.563 186.301 339.427 186.301C339.291 186.301 339.159 186.249 339.056 186.154L338.588 185.729L337.001 187.433H341.853L340.266 185.729L339.799 186.154Z" fill="#22395B"/>
<path d="M342.124 187.139V184.036L340.56 185.46L342.124 187.139Z" fill="#22395B"/>
<path d="M336.729 184.036V187.139L338.293 185.46L336.729 184.036Z" fill="#22395B"/>
<path d="M341.926 183.234H336.928C336.875 183.234 336.825 183.257 336.787 183.297C336.75 183.337 336.729 183.392 336.729 183.449V183.493L336.834 183.589L339.305 185.837C339.339 185.869 339.382 185.886 339.427 185.886C339.472 185.886 339.515 185.869 339.549 185.837L342.02 183.589L342.126 183.493V183.449C342.125 183.392 342.104 183.337 342.067 183.297C342.03 183.257 341.979 183.234 341.926 183.234Z" fill="#22395B"/>
</g>
<rect x="273.514" y="225.547" width="154.343" height="46.4527" rx="1.83181" fill="#2E5196"/>
<line x1="282.726" y1="259.042" x2="305.683" y2="259.042" stroke="#E7EEFF" stroke-opacity="0.5" stroke-width="2.39869" stroke-linecap="round"/>
<line x1="323.454" y1="246.397" x2="391.661" y2="246.397" stroke="#C6DBFF" stroke-width="1.79901" stroke-linecap="round"/>
<line x1="323.454" y1="250.929" x2="376.714" y2="250.929" stroke="#E7EEFF" stroke-opacity="0.5" stroke-width="1.79901" stroke-linecap="round"/>
<line x1="323.454" y1="255.688" x2="370.163" y2="255.688" stroke="#F5F8FF" stroke-opacity="0.5" stroke-width="1.79901" stroke-linecap="round"/>
<line x1="282.726" y1="265.385" x2="293.556" y2="265.385" stroke="#E7EEFF" stroke-opacity="0.5" stroke-width="2.39869" stroke-linecap="round"/>
<rect opacity="0.4" x="281.954" y="232.148" width="26.7103" height="19.1618" rx="2.39869" fill="#9FC0FF"/>
<rect x="322.206" y="232.291" width="9.06239" height="9.06239" rx="0.599671" fill="#15C1E6"/>
<g clip-path="url(#clip4_6376_28093)">
<path d="M328.287 237.466C328.484 237.479 329.109 237.911 329.38 238.191C329.423 238.235 329.451 238.294 329.46 238.358C329.47 238.422 329.46 238.488 329.432 238.545C329.344 238.723 329.207 238.998 329.169 239.05C329.023 239.245 328.876 239.414 328.651 239.373C328.614 239.366 328.576 239.358 328.539 239.349C328.501 239.34 328.462 239.329 328.424 239.318C328.385 239.307 328.346 239.294 328.308 239.281C328.268 239.267 328.228 239.253 328.189 239.238C328.149 239.222 328.109 239.205 328.069 239.188C328.029 239.17 327.988 239.152 327.948 239.133C327.907 239.113 327.867 239.093 327.826 239.072C327.785 239.05 327.744 239.028 327.704 239.005C327.662 238.982 327.621 238.958 327.58 238.934C327.539 238.909 327.498 238.883 327.457 238.857C327.415 238.831 327.374 238.804 327.333 238.776C327.292 238.748 327.251 238.719 327.21 238.69C327.17 238.661 327.129 238.631 327.088 238.6C327.047 238.569 327.006 238.538 326.966 238.505C326.544 238.171 326.155 237.778 325.823 237.331C325.792 237.289 325.76 237.245 325.73 237.202C325.699 237.158 325.668 237.115 325.639 237.071C325.609 237.027 325.58 236.983 325.551 236.938C325.522 236.894 325.494 236.849 325.467 236.805C325.44 236.761 325.413 236.716 325.386 236.671C325.36 236.626 325.334 236.581 325.309 236.536C325.284 236.491 325.26 236.446 325.236 236.401C325.213 236.356 325.19 236.311 325.168 236.265C325.146 236.22 325.124 236.175 325.103 236.13C325.083 236.085 325.063 236.04 325.043 235.995C325.024 235.951 325.006 235.906 324.988 235.861C324.971 235.817 324.954 235.773 324.938 235.728C324.922 235.685 324.907 235.641 324.893 235.597C324.879 235.553 324.866 235.51 324.853 235.466C324.841 235.424 324.83 235.381 324.819 235.338C324.809 235.296 324.799 235.254 324.791 235.212C324.782 235.171 324.775 235.129 324.768 235.088C324.766 235.078 324.765 235.069 324.763 235.059C324.726 234.81 324.879 234.647 325.055 234.485C325.101 234.442 325.349 234.29 325.509 234.194C325.561 234.162 325.62 234.151 325.678 234.162C325.736 234.172 325.789 234.204 325.829 234.251C326.081 234.552 326.47 235.245 326.483 235.464C326.488 235.561 326.474 235.657 326.403 235.713L326.153 235.907L326.132 235.924C326.118 235.934 326.106 235.947 326.095 235.961C326.068 235.995 326.051 236.037 326.046 236.082C326.04 236.127 326.047 236.172 326.066 236.212C326.224 236.561 326.338 236.885 326.581 237.18C326.881 237.542 327.227 237.715 327.612 237.928C327.649 237.948 327.69 237.956 327.73 237.95C327.77 237.944 327.808 237.925 327.839 237.896C327.852 237.883 327.863 237.87 327.873 237.855L327.887 237.831L328.062 237.554C328.112 237.475 328.199 237.459 328.287 237.466Z" fill="#22395B"/>
</g>
<rect x="347.593" y="232.291" width="9.06239" height="9.06239" rx="0.599671" fill="#3D7FFC"/>
<path d="M351.315 234.103C351.27 234.103 351.227 234.12 351.195 234.15C351.163 234.181 351.145 234.222 351.144 234.266V234.839H349.577C349.571 234.838 349.566 234.838 349.561 234.839C349.519 234.843 349.48 234.861 349.451 234.892C349.423 234.922 349.407 234.961 349.407 235.001V235.822L351.532 236.371V236.364C351.532 236.274 351.607 236.201 351.701 236.201H352.551C352.644 236.201 352.72 236.274 352.72 236.364V236.371L354.845 235.824V235.001C354.845 234.958 354.826 234.916 354.794 234.886C354.762 234.856 354.719 234.839 354.674 234.839H353.107V234.266C353.107 234.222 353.089 234.181 353.057 234.15C353.025 234.12 352.982 234.103 352.937 234.103L351.315 234.103ZM351.484 234.429H352.768V234.839H351.484V234.429ZM349.407 236.161V238.472C349.407 238.515 349.425 238.556 349.457 238.587C349.489 238.617 349.532 238.634 349.577 238.634H354.674C354.719 238.634 354.762 238.617 354.794 238.587C354.826 238.556 354.844 238.515 354.845 238.472V236.162L352.72 236.708V236.998C352.72 237.088 352.644 237.161 352.551 237.162H351.701C351.607 237.161 351.532 237.088 351.532 236.998V236.708L349.407 236.161ZM351.872 236.527C351.887 236.565 351.887 236.607 351.872 236.645V236.835H352.38V236.645C352.365 236.607 352.365 236.565 352.38 236.527H351.872Z" fill="#22395B"/>
<rect x="334.901" y="232.291" width="9.06239" height="9.06239" rx="0.599671" fill="#9D97F4"/>
<g clip-path="url(#clip5_6376_28093)">
<path d="M339.799 237.726C339.695 237.821 339.563 237.873 339.427 237.873C339.291 237.873 339.159 237.821 339.056 237.726L338.588 237.301L337.001 239.005H341.853L340.266 237.301L339.799 237.726Z" fill="#22395B"/>
<path d="M342.124 238.712V235.608L340.56 237.032L342.124 238.712Z" fill="#22395B"/>
<path d="M336.729 235.608V238.712L338.293 237.032L336.729 235.608Z" fill="#22395B"/>
<path d="M341.926 234.807H336.928C336.875 234.807 336.825 234.829 336.787 234.87C336.75 234.91 336.729 234.964 336.729 235.021V235.065L336.834 235.161L339.305 237.41C339.339 237.441 339.382 237.458 339.427 237.458C339.472 237.458 339.515 237.441 339.549 237.41L342.02 235.161L342.126 235.065V235.021C342.125 234.964 342.104 234.91 342.067 234.87C342.03 234.829 341.979 234.807 341.926 234.807Z" fill="#22395B"/>
</g>
<path d="M187.131 180.876H242.188V177.398H238.71V148.015L219.469 142.741V177.34H216.861L216.862 126.862L190.608 132.078V177.398H187.131L187.131 180.876ZM230.828 152.536H234.306V157.056H230.828V152.536ZM230.828 160.592H234.306V165.112H230.828V160.592ZM230.828 168.647H234.306V173.168H230.828V168.647ZM223.816 152.536H227.294V157.056H223.816V152.536ZM223.816 160.592H227.294V165.112H223.816V160.592ZM223.816 168.647H227.294V173.168H223.816V168.647ZM208.98 136.482H212.457V141.003H208.98V136.482ZM208.98 144.538H212.457V149.059H208.98V144.538ZM208.98 152.536H212.457V157.056H208.98V152.536ZM208.98 160.592H212.457V165.112H208.98V160.592ZM201.967 136.483H205.445V141.003H201.967V136.483ZM201.967 144.538H205.445V149.059H201.967V144.538ZM201.967 152.536H205.445V157.057H201.967V152.536ZM201.967 160.592H205.445V165.112H201.967V160.592ZM194.955 136.483H198.432V141.003H194.955V136.483ZM194.955 144.538H198.432V149.059H194.955V144.538ZM194.955 152.536H198.432V157.057H194.955V152.536ZM194.955 160.592H198.432V165.112H194.955V160.592ZM200.402 168.647H207.067V177.398H200.402V168.647Z" fill="white"/>
<path d="M196.168 224.15C195.219 222.76 193.942 221.624 192.45 220.845C192.497 221.441 192.403 222.039 192.176 222.592C191.948 223.144 191.593 223.636 191.14 224.025C192.306 224.705 193.245 225.714 193.838 226.926C194.431 228.137 194.651 229.497 194.471 230.834C194.661 230.748 194.861 230.686 195.067 230.651L195.47 230.631C195.627 230.405 195.781 230.173 195.925 229.938C196.017 229.732 196.127 229.535 196.253 229.349C196.292 229.267 196.331 229.188 196.367 229.11C196.675 228.455 197.275 228.946 197.835 228.681C197.569 226.362 196.931 225.262 196.168 224.15Z" fill="#15C1E6"/>
<path d="M186.432 238.84H186.521C186.478 238.63 186.432 238.424 186.373 238.215C186.35 238.126 186.321 238.038 186.298 237.95V237.927L186.062 237.181C185.997 236.969 185.972 236.747 185.99 236.526C184.697 236.188 183.532 235.475 182.643 234.478C182.053 235.097 181.385 235.636 180.658 236.085C180.409 236.247 180.14 236.377 179.858 236.471C181.1 237.969 183.278 239.167 185.024 239.743C185.525 239.249 185.692 238.84 186.432 238.84Z" fill="#15C1E6"/>
<path d="M182.989 234.845C182.653 234.522 182.351 234.166 182.088 233.782C181.171 232.444 180.761 230.824 180.932 229.212C181.103 227.6 181.843 226.101 183.019 224.985C184.196 223.869 185.733 223.208 187.353 223.12C188.974 223.033 190.572 223.526 191.862 224.509L193.372 221.398C189.769 219.062 185.911 219.107 181.931 221.489C179.691 223.023 178.153 225.382 177.654 228.049C177.155 230.715 177.737 233.471 179.271 235.709C179.533 236.091 179.821 236.455 180.133 236.798L182.989 234.845Z" fill="#15C1E6"/>
<path d="M185.367 239.525L186.096 236.819C187.174 237.066 188.296 237.06 189.373 236.799C190.547 236.514 191.63 235.935 192.519 235.117C193.409 234.299 194.075 233.268 194.455 232.122C194.797 231.092 194.899 229.999 194.753 228.926L197.587 228.972C197.889 232.372 196.697 235.19 194.066 237.412C193.095 238.231 191.986 238.87 190.791 239.299C189.057 239.918 187.556 240.002 185.367 239.525Z" fill="#9FC0FF" stroke="#9FC0FF" stroke-width="0.599671"/>
<circle opacity="0.5" cx="187.787" cy="230.095" r="5.79333" fill="#E7EEFF"/>
<rect opacity="0.5" x="177.235" y="244.413" width="19.8193" height="2.13439" rx="1.06719" fill="#E7EEFF"/>
<rect opacity="0.5" x="177.235" y="249.596" width="12.5014" height="2.13439" rx="1.06719" fill="#E7EEFF"/>
<path d="M223.866 224.15C222.918 222.759 221.641 221.624 220.148 220.845C220.196 221.441 220.102 222.039 219.874 222.592C219.646 223.144 219.291 223.636 218.838 224.025C220.005 224.704 220.944 225.714 221.536 226.925C222.129 228.137 222.349 229.497 222.169 230.834C222.359 230.748 222.559 230.686 222.765 230.651L223.168 230.631C223.325 230.405 223.479 230.173 223.623 229.938C223.716 229.732 223.825 229.535 223.951 229.349C223.99 229.267 224.03 229.188 224.066 229.11C224.373 228.455 224.973 228.946 225.533 228.681C225.268 226.361 224.629 225.262 223.866 224.15Z" fill="#9D97F4"/>
<path d="M214.13 238.84H214.218C214.175 238.63 214.13 238.424 214.071 238.215C214.048 238.126 214.018 238.038 213.995 237.95V237.927L213.759 237.181C213.694 236.969 213.67 236.747 213.687 236.526C212.394 236.188 211.23 235.475 210.34 234.478C209.75 235.097 209.083 235.636 208.355 236.085C208.106 236.247 207.838 236.377 207.556 236.471C208.797 237.969 210.975 239.167 212.721 239.743C213.222 239.249 213.389 238.84 214.13 238.84Z" fill="#FECE4D"/>
<path d="M210.687 234.845C210.351 234.522 210.049 234.166 209.786 233.782C208.869 232.444 208.459 230.824 208.63 229.212C208.801 227.6 209.541 226.101 210.718 224.985C211.894 223.869 213.431 223.208 215.051 223.12C216.672 223.033 218.27 223.526 219.56 224.509L221.07 221.398C217.467 219.062 213.609 219.107 209.629 221.489C207.389 223.023 205.851 225.383 205.352 228.049C204.853 230.715 205.435 233.471 206.969 235.709C207.231 236.091 207.519 236.455 207.831 236.798L210.687 234.845Z" fill="#0BE597"/>
<path d="M213.067 239.524L213.797 236.819C214.874 237.066 215.996 237.06 217.073 236.799C218.248 236.514 219.331 235.935 220.22 235.117C221.109 234.299 221.775 233.268 222.156 232.122C222.498 231.092 222.599 229.999 222.453 228.926L225.287 228.972C225.589 232.372 224.398 235.19 221.766 237.412C220.796 238.231 219.687 238.87 218.491 239.299C216.757 239.918 215.256 240.002 213.067 239.524Z" fill="#9FC0FF" stroke="#9FC0FF" stroke-width="0.599671"/>
<circle opacity="0.5" cx="215.536" cy="230.095" r="5.79333" fill="#E7EEFF"/>
<rect opacity="0.5" x="204.071" y="244.413" width="19.8193" height="2.13439" rx="1.06719" fill="#E7EEFF"/>
<rect x="204.071" y="249.596" width="12.5014" height="2.13439" rx="1.06719" fill="#E7EEFF"/>
<path d="M251.544 224.15C250.596 222.76 249.319 221.625 247.827 220.845C247.874 221.441 247.78 222.04 247.553 222.592C247.325 223.145 246.97 223.636 246.517 224.026C247.683 224.705 248.622 225.714 249.215 226.926C249.808 228.137 250.028 229.498 249.848 230.834C250.038 230.748 250.238 230.686 250.444 230.651L250.847 230.631C251.004 230.406 251.158 230.173 251.302 229.938C251.394 229.733 251.504 229.536 251.63 229.349C251.669 229.267 251.708 229.189 251.744 229.11C252.052 228.456 252.652 228.946 253.212 228.681C252.946 226.362 252.308 225.262 251.544 224.15Z" fill="#76A5FF"/>
<path d="M241.807 238.84H241.896C241.853 238.63 241.807 238.424 241.748 238.215C241.725 238.127 241.696 238.038 241.673 237.95V237.927L241.437 237.181C241.372 236.969 241.347 236.747 241.365 236.527C240.072 236.188 238.907 235.475 238.018 234.479C237.428 235.097 236.76 235.637 236.033 236.085C235.784 236.248 235.515 236.377 235.233 236.471C236.475 237.97 238.653 239.167 240.399 239.743C240.9 239.249 241.067 238.84 241.807 238.84Z" fill="#3D7FFC"/>
<path d="M238.366 234.845C238.03 234.523 237.728 234.166 237.465 233.782C236.548 232.444 236.138 230.824 236.309 229.212C236.48 227.6 237.22 226.102 238.396 224.985C239.573 223.869 241.109 223.208 242.73 223.121C244.351 223.034 245.949 223.526 247.239 224.51L248.749 221.398C245.146 219.062 241.288 219.108 237.308 221.49C235.068 223.023 233.529 225.383 233.031 228.049C232.532 230.716 233.114 233.471 234.648 235.709C234.91 236.091 235.198 236.456 235.51 236.798L238.366 234.845Z" fill="#3D7FFC"/>
<path d="M240.746 239.525L241.475 236.819C242.553 237.067 243.675 237.06 244.752 236.799C245.926 236.514 247.009 235.936 247.898 235.117C248.788 234.299 249.454 233.269 249.834 232.122C250.176 231.092 250.277 229.999 250.132 228.926L252.966 228.972C253.268 232.372 252.076 235.19 249.445 237.412C248.474 238.231 247.365 238.87 246.17 239.299C244.436 239.919 242.935 240.002 240.746 239.525Z" fill="#9FC0FF" stroke="#9FC0FF" stroke-width="0.599671"/>
<circle opacity="0.5" cx="243.283" cy="230.095" r="5.79333" fill="#E7EEFF"/>
<rect opacity="0.5" x="230.904" y="244.413" width="19.8193" height="2.13439" rx="1.06719" fill="#E7EEFF"/>
<rect opacity="0.5" x="230.904" y="249.596" width="12.5014" height="2.13439" rx="1.06719" fill="#E7EEFF"/>
<rect opacity="0.5" x="177.188" y="199.712" width="55.7694" height="4.79737" rx="2.39869" fill="#C6DBFF"/>
<rect opacity="0.5" x="177.188" y="208.107" width="68.3625" height="2.99836" rx="1.49918" fill="#D2DCE4"/>
<defs>
<filter id="filter0_d_6376_28093" x="156" y="100" width="275" height="179" filterUnits="userSpaceOnUse" color-interpolation-filters="sRGB">
<feFlood flood-opacity="0" result="BackgroundImageFix"/>
<feColorMatrix in="SourceAlpha" type="matrix" values="0 0 0 0 0 0 0 0 0 0 0 0 0 0 0 0 0 0 127 0" result="hardAlpha"/>
<feOffset dx="5" dy="5"/>
<feGaussianBlur stdDeviation="5"/>
<feColorMatrix type="matrix" values="0 0 0 0 0.0941177 0 0 0 0 0.188235 0 0 0 0 0.247059 0 0 0 0.15 0"/>
<feBlend mode="normal" in2="BackgroundImageFix" result="effect1_dropShadow_6376_28093"/>
<feBlend mode="normal" in="SourceGraphic" in2="effect1_dropShadow_6376_28093" result="shape"/>
</filter>
<linearGradient id="paint0_linear_6376_28093" x1="182.497" y1="105" x2="404.368" y2="280.512" gradientUnits="userSpaceOnUse">
<stop stop-color="#0C2966"/>
<stop offset="1" stop-color="#0045C9"/>
</linearGradient>
<clipPath id="clip0_6376_28093">
<rect width="4.70607" height="5.22116" fill="white" transform="translate(324.758 130.763)"/>
</clipPath>
<clipPath id="clip1_6376_28093">
<rect width="5.39704" height="4.1977" fill="white" transform="translate(336.74 131.328)"/>
</clipPath>
<clipPath id="clip2_6376_28093">
<rect width="4.70607" height="5.22116" fill="white" transform="translate(324.758 182.46)"/>
</clipPath>
<clipPath id="clip3_6376_28093">
<rect width="5.39704" height="4.1977" fill="white" transform="translate(336.729 183.234)"/>
</clipPath>
<clipPath id="clip4_6376_28093">
<rect width="4.70607" height="5.22116" fill="white" transform="translate(324.758 234.158)"/>
</clipPath>
<clipPath id="clip5_6376_28093">
<rect width="5.39704" height="4.1977" fill="white" transform="translate(336.729 234.807)"/>
</clipPath>
</defs>
</svg>
