<svg width="588" height="311" viewBox="0 0 588 311" fill="none" xmlns="http://www.w3.org/2000/svg">
<path d="M0 8C0 3.58172 3.58172 0 8 0H580C584.418 0 588 3.58172 588 8V303C588 307.418 584.418 311 580 311H7.99998C3.58171 311 0 307.418 0 303V8Z" fill="#22395B"/>
<g filter="url(#filter0_dd_6376_27139)">
<g clip-path="url(#clip0_6376_27139)">
<g filter="url(#filter1_d_6376_27139)">
<path d="M446.331 54.4109H143.961C142.621 54.4109 141.535 55.5326 141.535 56.9163V244.249C141.535 245.633 142.621 246.754 143.961 246.754H446.331C447.671 246.754 448.757 245.633 448.757 244.249V56.9163C448.757 55.5326 447.671 54.4109 446.331 54.4109Z" fill="url(#paint0_linear_6376_27139)"/>
</g>
<path d="M448.757 43.9991H141.535V54.4108H448.757V43.9991Z" fill="#062E69"/>
<path d="M152.489 49.4747C152.49 49.8 152.394 50.1182 152.214 50.3891C152.034 50.66 151.778 50.8713 151.477 50.9963C151.177 51.1213 150.847 51.1545 150.528 51.0915C150.209 51.0285 149.916 50.8722 149.686 50.6425C149.456 50.4127 149.299 50.1198 149.235 49.8008C149.171 49.4818 149.204 49.1511 149.328 48.8504C149.452 48.5498 149.663 48.2928 149.933 48.112C150.203 47.9312 150.521 47.8347 150.846 47.8347C151.28 47.8378 151.696 48.0114 152.003 48.3182C152.31 48.625 152.485 49.0403 152.489 49.4747Z" fill="white"/>
<path d="M160.157 49.4748C160.158 49.8003 160.062 50.1187 159.882 50.3896C159.701 50.6606 159.445 50.8719 159.145 50.9968C158.844 51.1217 158.514 51.1546 158.194 51.0913C157.875 51.028 157.582 50.8714 157.352 50.6412C157.122 50.4111 156.966 50.1178 156.902 49.7985C156.839 49.4792 156.872 49.1484 156.997 48.8478C157.122 48.5473 157.333 48.2905 157.604 48.1102C157.874 47.9298 158.193 47.834 158.518 47.8348C158.733 47.8337 158.947 47.8754 159.146 47.9575C159.346 48.0395 159.527 48.1603 159.679 48.3128C159.832 48.4653 159.952 48.6465 160.034 48.846C160.116 49.0454 160.158 49.2591 160.157 49.4748Z" fill="white"/>
<path d="M167.823 49.4748C167.824 49.8001 167.728 50.1183 167.548 50.3892C167.368 50.6601 167.112 50.8714 166.811 50.9964C166.511 51.1215 166.181 51.1546 165.862 51.0916C165.543 51.0286 165.25 50.8724 165.02 50.6426C164.79 50.4128 164.633 50.12 164.569 49.801C164.505 49.4819 164.538 49.1512 164.662 48.8506C164.786 48.5499 164.997 48.2929 165.267 48.1121C165.537 47.9313 165.855 47.8348 166.18 47.8348C166.614 47.8379 167.03 48.0115 167.337 48.3183C167.644 48.6251 167.819 49.0404 167.823 49.4748Z" fill="white"/>
<path d="M448.757 54.4109H141.535V68.1106H448.757V54.4109Z" fill="#062E69"/>
<path d="M430.686 57.6976H176.037V65.3694H430.686V57.6976Z" fill="white" fill-opacity="0.2"/>
<rect x="162.893" y="57.6974" width="7.66686" height="7.67182" fill="white" fill-opacity="0.2"/>
<path fill-rule="evenodd" clip-rule="evenodd" d="M165.749 59.9963C165.906 59.8529 166.16 59.8533 166.316 59.9973L167.704 61.2757C167.861 61.4194 167.86 61.652 167.704 61.7954L166.315 63.0692C166.159 63.2129 165.905 63.2129 165.748 63.0692C165.592 62.9256 165.592 62.6927 165.748 62.549L166.854 61.5349L165.748 60.5165C165.591 60.3726 165.592 60.1397 165.749 59.9963Z" fill="#B8C4D0"/>
<rect x="160.155" y="65.3689" width="7.66686" height="7.67182" transform="rotate(-180 160.155 65.3689)" fill="white" fill-opacity="0.2"/>
<path fill-rule="evenodd" clip-rule="evenodd" d="M157.299 63.0698C157.142 63.2132 156.888 63.2128 156.732 63.0688L155.343 61.7904C155.187 61.6467 155.188 61.4141 155.344 61.2707L156.732 59.9969C156.889 59.8532 157.143 59.8532 157.3 59.9969C157.456 60.1405 157.456 60.3734 157.3 60.5171L156.194 61.5312L157.3 62.5496C157.456 62.6935 157.456 62.9264 157.299 63.0698Z" fill="#B8C4D0"/>
<path d="M440.474 59.4927C440.351 59.4927 440.23 59.456 440.127 59.3873C440.024 59.3186 439.945 59.2209 439.898 59.1067C439.85 58.9926 439.838 58.867 439.863 58.746C439.888 58.625 439.948 58.514 440.035 58.4271C440.123 58.3402 440.235 58.2814 440.356 58.258C440.478 58.2346 440.603 58.2477 440.717 58.2958C440.831 58.3438 440.928 58.4246 440.996 58.5278C441.064 58.631 441.099 58.752 441.098 58.8755C441.097 59.0397 441.03 59.1967 440.913 59.3123C440.797 59.4279 440.639 59.4927 440.474 59.4927Z" fill="#9BACBC"/>
<path d="M440.474 62.1348C440.351 62.1348 440.23 62.098 440.127 62.0293C440.024 61.9606 439.945 61.8629 439.898 61.7488C439.85 61.6346 439.838 61.5091 439.863 61.3881C439.888 61.2671 439.948 61.156 440.035 61.0691C440.123 60.9823 440.235 60.9234 440.356 60.9C440.478 60.8766 440.603 60.8898 440.717 60.9379C440.831 60.9859 440.928 61.0666 440.996 61.1699C441.064 61.2731 441.099 61.3941 441.098 61.5176C441.097 61.6818 441.03 61.8387 440.913 61.9543C440.797 62.0699 440.639 62.1348 440.474 62.1348Z" fill="#9BACBC"/>
<path d="M440.474 64.7972C440.351 64.7972 440.23 64.7607 440.128 64.6922C440.025 64.6237 439.945 64.5264 439.898 64.4126C439.851 64.2988 439.839 64.1735 439.863 64.0527C439.887 63.9318 439.946 63.8208 440.033 63.7336C440.121 63.6465 440.232 63.5872 440.353 63.5632C440.474 63.5392 440.599 63.5514 440.713 63.5986C440.827 63.6457 440.924 63.7256 440.993 63.8281C441.061 63.9305 441.098 64.051 441.098 64.1742C441.098 64.3394 441.032 64.4979 440.915 64.6147C440.798 64.7316 440.64 64.7972 440.474 64.7972Z" fill="#9BACBC"/>
<path d="M200.494 89.3291C198.38 86.2301 195.534 83.6998 192.207 81.9628C192.312 83.2906 192.103 84.6246 191.596 85.8564C191.088 87.0882 190.297 88.183 189.286 89.0519C191.887 90.5658 193.98 92.8153 195.302 95.5166C196.623 98.2179 197.114 101.25 196.712 104.229C197.135 104.037 197.582 103.899 198.041 103.821L198.939 103.777C199.289 103.274 199.632 102.756 199.954 102.231C200.159 101.774 200.404 101.334 200.684 100.918C200.771 100.736 200.859 100.561 200.939 100.386C201.626 98.9271 202.962 100.021 204.21 99.4304C203.619 94.2594 202.195 91.8088 200.494 89.3291Z" fill="#76A5FF"/>
<path d="M178.798 122.075H178.995C178.9 121.608 178.798 121.149 178.666 120.682C178.615 120.485 178.55 120.288 178.498 120.091V120.04L177.973 118.377C177.827 117.905 177.772 117.41 177.812 116.918C174.929 116.163 172.333 114.575 170.35 112.353C169.035 113.731 167.548 114.935 165.925 115.934C165.371 116.296 164.772 116.586 164.144 116.794C166.911 120.135 171.766 122.804 175.658 124.088C176.775 122.986 177.148 122.075 178.798 122.075Z" fill="#15C1E6"/>
<path d="M171.121 113.17C170.372 112.451 169.699 111.657 169.113 110.8C167.069 107.818 166.155 104.207 166.536 100.613C166.916 97.0199 168.566 93.6793 171.189 91.1908C173.812 88.7024 177.237 87.2288 180.849 87.0345C184.462 86.8401 188.025 87.9377 190.901 90.1304L194.267 83.1944C186.235 77.9869 177.634 78.089 168.763 83.3986C163.77 86.8175 160.34 92.077 159.228 98.0209C158.117 103.965 159.413 110.107 162.834 115.096C163.417 115.948 164.059 116.76 164.754 117.524L171.121 113.17Z" fill="#76A5FF"/>
<path d="M176.04 123.833L177.828 117.203C180.27 117.812 182.827 117.822 185.277 117.227C187.845 116.605 190.213 115.339 192.156 113.551C194.1 111.763 195.556 109.51 196.388 107.004C197.173 104.638 197.378 102.121 196.986 99.663L203.941 99.7749C204.714 107.579 202.023 114.05 196.01 119.128C193.819 120.977 191.315 122.42 188.615 123.388C184.603 124.822 181.137 124.984 176.04 123.833Z" fill="#9FC0FF" stroke="#9FC0FF" stroke-width="0.721456"/>
<rect opacity="0.5" x="159.5" y="139.832" width="46.8946" height="5.05019" rx="2.5251" fill="#E7EEFF"/>
<rect opacity="0.5" x="159.5" y="152.097" width="29.5797" height="5.05019" rx="2.5251" fill="#E7EEFF"/>
<path d="M262.384 89.1166C260.27 86.0175 257.423 83.4873 254.096 81.7502C254.202 83.0781 253.993 84.4121 253.485 85.6439C252.978 86.8757 252.187 87.9705 251.176 88.8394C253.776 90.3532 255.87 92.6028 257.191 95.3041C258.513 98.0054 259.004 101.037 258.601 104.017C259.025 103.824 259.472 103.687 259.93 103.608L260.828 103.565C261.179 103.061 261.522 102.544 261.843 102.019C262.049 101.561 262.293 101.122 262.574 100.706C262.661 100.523 262.749 100.348 262.829 100.173C263.515 98.7146 264.852 99.8086 266.1 99.2179C265.509 94.0469 264.085 91.5963 262.384 89.1166Z" fill="#9D97F4"/>
<path d="M240.687 121.862H240.885C240.79 121.395 240.687 120.936 240.556 120.469C240.505 120.272 240.439 120.075 240.388 119.878V119.827L239.862 118.165C239.717 117.693 239.662 117.198 239.702 116.706C236.819 115.951 234.223 114.362 232.24 112.14C230.924 113.518 229.437 114.722 227.815 115.721C227.261 116.084 226.662 116.373 226.033 116.582C228.8 119.922 233.656 122.592 237.548 123.875C238.665 122.774 239.037 121.862 240.687 121.862Z" fill="#FECE4D"/>
<path d="M233.011 112.958C232.261 112.239 231.588 111.444 231.003 110.587C228.959 107.606 228.045 103.994 228.425 100.401C228.806 96.8074 230.456 93.4668 233.079 90.9783C235.702 88.4899 239.127 87.0163 242.739 86.822C246.351 86.6276 249.915 87.7252 252.791 89.9178L256.157 82.9818C248.125 77.7744 239.524 77.8765 230.652 83.1861C225.659 86.6049 222.23 91.8645 221.118 97.8084C220.006 103.752 221.303 109.894 224.723 114.883C225.307 115.736 225.948 116.547 226.644 117.312L233.011 112.958Z" fill="#76A5FF"/>
<path d="M237.929 123.62L239.717 116.99C242.16 117.6 244.717 117.609 247.167 117.015C249.735 116.392 252.102 115.127 254.046 113.339C255.989 111.55 257.446 109.297 258.278 106.792C259.063 104.426 259.267 101.908 258.876 99.4505L265.831 99.5624C266.604 107.366 263.912 113.838 257.899 118.915C255.709 120.764 253.204 122.207 250.505 123.176C246.493 124.61 243.027 124.771 237.929 123.62Z" fill="#9FC0FF" stroke="#9FC0FF" stroke-width="0.721456"/>
<rect opacity="0.5" x="222.989" y="139.832" width="46.8946" height="5.05019" rx="2.5251" fill="#E7EEFF"/>
<rect opacity="0.5" x="222.989" y="152.097" width="29.5797" height="5.05019" rx="2.5251" fill="#E7EEFF"/>
<path d="M324.105 89.1166C321.992 86.0175 319.145 83.4873 315.818 81.7502C315.924 83.0781 315.714 84.4121 315.207 85.6439C314.699 86.8757 313.908 87.9705 312.897 88.8394C315.498 90.3532 317.591 92.6028 318.913 95.3041C320.235 98.0054 320.725 101.037 320.323 104.017C320.747 103.824 321.193 103.687 321.652 103.608L322.55 103.565C322.901 103.061 323.244 102.544 323.565 102.019C323.771 101.561 324.015 101.122 324.295 100.706C324.383 100.523 324.47 100.348 324.551 100.173C325.237 98.7146 326.573 99.8086 327.822 99.2179C327.23 94.0469 325.807 91.5963 324.105 89.1166Z" fill="#15C1E6"/>
<path d="M302.409 121.862H302.606C302.511 121.395 302.409 120.936 302.278 120.469C302.227 120.272 302.161 120.075 302.11 119.878V119.827L301.584 118.165C301.438 117.693 301.384 117.198 301.423 116.706C298.54 115.951 295.945 114.362 293.961 112.14C292.646 113.518 291.159 114.722 289.536 115.721C288.982 116.084 288.383 116.373 287.755 116.582C290.522 119.922 295.378 122.592 299.269 123.875C300.387 122.774 300.759 121.862 302.409 121.862Z" fill="#3D7FFC"/>
<path d="M294.732 112.958C293.983 112.239 293.31 111.444 292.724 110.587C290.68 107.606 289.767 103.994 290.147 100.401C290.528 96.8074 292.177 93.4668 294.8 90.9783C297.424 88.4899 300.848 87.0163 304.461 86.822C308.073 86.6276 311.637 87.7252 314.512 89.9178L317.878 82.9818C309.847 77.7744 301.245 77.8765 292.374 83.1861C287.381 86.6049 283.951 91.8645 282.84 97.8084C281.728 103.752 283.025 109.894 286.445 114.883C287.029 115.736 287.67 116.547 288.365 117.312L294.732 112.958Z" fill="#15C1E6"/>
<path d="M299.651 123.62L301.439 116.99C303.882 117.6 306.438 117.609 308.889 117.015C311.457 116.392 313.824 115.127 315.768 113.339C317.711 111.55 319.167 109.297 319.999 106.792C320.785 104.426 320.989 101.908 320.598 99.4505L327.553 99.5624C328.325 107.366 325.634 113.838 319.621 118.915C317.43 120.764 314.926 122.207 312.226 123.176C308.215 124.61 304.749 124.771 299.651 123.62Z" fill="#9FC0FF" stroke="#9FC0FF" stroke-width="0.721456"/>
<rect opacity="0.5" x="286.476" y="139.832" width="46.8946" height="5.05019" rx="2.5251" fill="#E7EEFF"/>
<rect opacity="0.5" x="286.476" y="152.097" width="29.5797" height="5.05019" rx="2.5251" fill="#E7EEFF"/>
<g filter="url(#filter2_dd_6376_27139)">
<circle cx="181.571" cy="102.077" r="13.3469" fill="#FECE4D"/>
<circle cx="181.571" cy="102.077" r="12.2648" stroke="#22395B" stroke-width="2.16437"/>
</g>
<g filter="url(#filter3_dd_6376_27139)">
<circle cx="243.615" cy="102.077" r="13.3469" fill="#FECE4D"/>
<circle cx="243.615" cy="102.077" r="12.2648" stroke="#22395B" stroke-width="2.16437"/>
</g>
<g filter="url(#filter4_dd_6376_27139)">
<circle cx="305.299" cy="101.716" r="13.7077" fill="#FECE4D"/>
<circle cx="305.299" cy="101.716" r="12.6255" stroke="#22395B" stroke-width="2.16437"/>
</g>
<path d="M181.553 108.051C180.705 108.07 179.962 107.975 179.324 107.769C178.684 107.561 178.15 107.263 177.714 106.877C177.279 106.492 176.936 106.014 176.71 105.478C176.476 104.934 176.34 104.333 176.308 103.677L178.455 103.63C178.502 104.05 178.611 104.414 178.789 104.72C178.954 105.017 179.179 105.275 179.451 105.478C179.721 105.678 180.028 105.824 180.354 105.907C180.706 105.998 181.068 106.039 181.431 106.03C181.762 106.026 182.092 105.981 182.413 105.896C182.708 105.818 182.961 105.711 183.169 105.572C183.365 105.446 183.529 105.275 183.646 105.073C183.756 104.874 183.811 104.649 183.802 104.421C183.797 104.175 183.737 103.968 183.621 103.797C183.505 103.627 183.32 103.478 183.069 103.347C182.818 103.217 182.485 103.101 182.077 102.998C181.67 102.895 181.165 102.791 180.568 102.684C179.887 102.546 179.3 102.383 178.807 102.194C178.314 102.004 177.906 101.776 177.583 101.507C177.275 101.257 177.029 100.938 176.864 100.577C176.704 100.223 176.62 99.813 176.61 99.3485C176.599 98.8493 176.693 98.387 176.892 97.9616C177.094 97.5332 177.39 97.1554 177.756 96.8557C178.131 96.5432 178.585 96.2956 179.111 96.1106C179.638 95.9257 180.229 95.827 180.879 95.8127C181.557 95.7979 182.178 95.8769 182.742 96.0497C183.306 96.2243 183.794 96.4779 184.207 96.8161C184.623 97.1574 184.96 97.5858 185.192 98.0712C185.435 98.5679 185.571 99.1364 185.6 99.7713L183.476 99.8179C183.291 98.4707 182.461 97.8131 180.987 97.8452C180.269 97.8609 179.722 97.996 179.346 98.2445C178.97 98.4929 178.788 98.8335 178.797 99.2552C178.797 99.4139 178.844 99.5691 178.932 99.7011C179.018 99.8273 179.154 99.9419 179.34 100.045C179.523 100.147 179.761 100.241 180.048 100.323C180.335 100.404 180.686 100.482 181.093 100.559C181.45 100.623 181.814 100.695 182.19 100.778C182.561 100.858 182.929 100.957 183.29 101.074C183.642 101.189 183.982 101.334 184.308 101.51C184.621 101.678 184.906 101.892 185.154 102.145C185.404 102.402 185.603 102.704 185.739 103.035C185.886 103.379 185.964 103.783 185.974 104.248C185.986 104.795 185.885 105.298 185.671 105.755C185.457 106.213 185.148 106.619 184.763 106.945C184.37 107.279 183.9 107.544 183.353 107.74C182.806 107.935 182.206 108.039 181.553 108.051Z" fill="#22395B"/>
<path fill-rule="evenodd" clip-rule="evenodd" d="M180.103 94.5479L181.766 94.5115C181.821 94.5105 181.874 94.5313 181.914 94.5695C181.954 94.6077 181.977 94.6601 181.978 94.7153L182.031 97.1062L179.951 97.1517L179.899 94.7608C179.898 94.7056 179.919 94.6523 179.957 94.6124C179.995 94.5725 180.048 94.5493 180.103 94.5479ZM182.246 106.908L182.294 109.108C182.295 109.164 182.274 109.217 182.236 109.257C182.198 109.297 182.146 109.32 182.091 109.321L180.427 109.358C180.372 109.359 180.318 109.338 180.278 109.3C180.239 109.262 180.215 109.209 180.214 109.154L180.166 106.954L182.246 106.908Z" fill="#22395B"/>
<path d="M243.597 108.051C242.75 108.07 242.007 107.975 241.369 107.769C240.729 107.561 240.194 107.263 239.759 106.877C239.324 106.492 238.981 106.014 238.755 105.478C238.521 104.934 238.385 104.333 238.352 103.677L240.5 103.63C240.547 104.05 240.656 104.414 240.833 104.72C240.998 105.017 241.224 105.275 241.496 105.478C241.766 105.678 242.073 105.824 242.399 105.907C242.75 105.998 243.113 106.039 243.476 106.03C243.807 106.026 244.137 105.981 244.458 105.896C244.753 105.818 245.006 105.711 245.214 105.572C245.41 105.446 245.574 105.275 245.691 105.073C245.801 104.874 245.855 104.649 245.847 104.421C245.842 104.175 245.782 103.968 245.666 103.797C245.55 103.627 245.365 103.478 245.114 103.347C244.863 103.217 244.53 103.101 244.122 102.998C243.715 102.895 243.21 102.791 242.613 102.684C241.932 102.546 241.345 102.383 240.852 102.194C240.359 102.004 239.951 101.776 239.628 101.507C239.32 101.257 239.074 100.938 238.909 100.577C238.749 100.223 238.665 99.813 238.655 99.3485C238.644 98.8493 238.738 98.387 238.937 97.9616C239.139 97.5332 239.434 97.1554 239.801 96.8557C240.176 96.5432 240.629 96.2956 241.156 96.1106C241.683 95.9257 242.273 95.827 242.924 95.8127C243.602 95.7979 244.222 95.8769 244.787 96.0497C245.351 96.2243 245.839 96.4779 246.252 96.8161C246.668 97.1574 247.004 97.5858 247.237 98.0712C247.48 98.5679 247.616 99.1364 247.645 99.7713L245.52 99.8179C245.336 98.4707 244.506 97.8131 243.031 97.8452C242.314 97.8609 241.767 97.996 241.391 98.2445C241.015 98.4929 240.833 98.8335 240.842 99.2552C240.842 99.4139 240.889 99.5691 240.977 99.7011C241.063 99.8273 241.198 99.9419 241.385 100.045C241.568 100.147 241.805 100.241 242.092 100.323C242.38 100.404 242.731 100.482 243.138 100.559C243.495 100.623 243.859 100.695 244.234 100.778C244.606 100.858 244.973 100.957 245.335 101.074C245.687 101.189 246.027 101.334 246.353 101.51C246.666 101.678 246.951 101.892 247.199 102.145C247.449 102.402 247.648 102.704 247.784 103.035C247.931 103.379 248.009 103.783 248.019 104.248C248.031 104.795 247.93 105.298 247.716 105.755C247.502 106.213 247.193 106.619 246.808 106.945C246.415 107.279 245.945 107.544 245.398 107.74C244.851 107.935 244.251 108.039 243.597 108.051Z" fill="#22395B"/>
<path fill-rule="evenodd" clip-rule="evenodd" d="M242.148 94.5479L243.81 94.5115C243.866 94.5105 243.919 94.5313 243.959 94.5695C243.999 94.6077 244.022 94.6601 244.023 94.7153L244.075 97.1062L241.996 97.1517L241.944 94.7608C241.943 94.7056 241.964 94.6523 242.002 94.6124C242.04 94.5725 242.092 94.5493 242.148 94.5479ZM244.291 106.908L244.339 109.108C244.34 109.164 244.319 109.217 244.281 109.257C244.243 109.297 244.191 109.32 244.135 109.321L242.472 109.358C242.417 109.359 242.363 109.338 242.323 109.3C242.284 109.262 242.26 109.209 242.259 109.154L242.211 106.954L244.291 106.908Z" fill="#22395B"/>
<path d="M305.282 107.853C304.411 107.872 303.648 107.775 302.993 107.563C302.336 107.35 301.787 107.043 301.34 106.647C300.893 106.251 300.54 105.761 300.308 105.211C300.068 104.652 299.929 104.034 299.895 103.36L302.101 103.312C302.149 103.744 302.261 104.117 302.443 104.432C302.613 104.736 302.844 105.001 303.123 105.21C303.401 105.416 303.716 105.565 304.051 105.65C304.412 105.744 304.784 105.787 305.157 105.777C305.498 105.773 305.836 105.727 306.165 105.64C306.469 105.559 306.728 105.449 306.942 105.307C307.143 105.178 307.311 105.002 307.432 104.795C307.545 104.59 307.601 104.358 307.593 104.125C307.587 103.872 307.525 103.66 307.406 103.484C307.287 103.309 307.097 103.156 306.84 103.022C306.582 102.887 306.239 102.769 305.821 102.663C305.402 102.557 304.884 102.45 304.271 102.34C303.572 102.199 302.969 102.031 302.462 101.837C301.956 101.643 301.537 101.408 301.205 101.132C300.889 100.875 300.636 100.548 300.467 100.176C300.302 99.8126 300.216 99.392 300.206 98.915C300.195 98.4022 300.291 97.9274 300.495 97.4906C300.703 97.0506 301.006 96.6625 301.383 96.3548C301.768 96.0339 302.234 95.7795 302.775 95.5896C303.316 95.3996 303.922 95.2982 304.59 95.2836C305.286 95.2684 305.924 95.3495 306.503 95.527C307.082 95.7063 307.584 95.9667 308.008 96.3141C308.435 96.6646 308.781 97.1046 309.02 97.6031C309.27 98.1132 309.409 98.6971 309.439 99.3492L307.257 99.397C307.067 98.0134 306.215 97.3381 304.701 97.3711C303.964 97.3872 303.402 97.5259 303.016 97.7811C302.63 98.0362 302.442 98.386 302.452 98.8191C302.452 98.9821 302.5 99.1415 302.591 99.2771C302.679 99.4067 302.818 99.5244 303.009 99.63C303.198 99.7354 303.441 99.832 303.736 99.9156C304.031 99.9991 304.392 100.08 304.81 100.158C305.176 100.224 305.551 100.298 305.936 100.383C306.318 100.465 306.695 100.566 307.066 100.687C307.427 100.805 307.777 100.955 308.112 101.134C308.433 101.307 308.726 101.527 308.981 101.787C309.238 102.051 309.442 102.361 309.582 102.702C309.732 103.055 309.812 103.47 309.823 103.947C309.835 104.509 309.732 105.025 309.512 105.495C309.292 105.965 308.974 106.381 308.579 106.717C308.176 107.06 307.693 107.332 307.131 107.533C306.569 107.734 305.953 107.84 305.282 107.853Z" fill="#22395B"/>
<path fill-rule="evenodd" clip-rule="evenodd" d="M303.793 93.9849L305.501 93.9475C305.557 93.9464 305.612 93.9678 305.653 94.007C305.694 94.0462 305.718 94.1001 305.719 94.1568L305.773 96.6123L303.638 96.659L303.584 94.2035C303.583 94.1468 303.604 94.092 303.643 94.0511C303.682 94.0101 303.736 93.9863 303.793 93.9849ZM305.994 106.679L306.044 108.939C306.045 108.996 306.023 109.05 305.984 109.091C305.945 109.132 305.891 109.156 305.834 109.158L304.126 109.195C304.069 109.196 304.014 109.175 303.973 109.135C303.932 109.096 303.909 109.042 303.907 108.986L303.858 106.726L305.994 106.679Z" fill="#22395B"/>
</g>
</g>
<rect x="265.261" y="180.193" width="23.9879" height="23.9879" rx="11.994" fill="#3D7FFC"/>
<path d="M277.186 198.094C274.56 196.055 269.891 193.579 271.788 189.501C273.535 186.005 277.186 188.481 277.186 189.792C277.186 188.481 280.979 186.005 282.73 189.501C284.627 193.578 279.812 196.053 277.186 198.094Z" fill="white"/>
<rect x="131.956" y="163.424" width="201.869" height="102.634" rx="1.83181" fill="#2E5196"/>
<rect opacity="0.5" x="141.532" y="253.946" width="32.7536" height="4.07816" rx="2.03908" fill="#EDF1F6"/>
<rect opacity="0.5" x="178.961" y="253.946" width="34.0904" height="4.07816" rx="2.03908" fill="#D2DCE4"/>
<rect x="141.469" y="168.862" width="74.0865" height="57.0942" rx="4.35263" fill="#E7EEFF" fill-opacity="0.17"/>
<path d="M156.424 217.642H200.604V214.852H197.813V191.274L182.374 187.042V214.805H180.281L180.281 174.299L159.214 178.485V214.852H156.424L156.424 217.642ZM191.489 194.901H194.279V198.529H191.489V194.901ZM191.489 201.366H194.279V204.993H191.489V201.366ZM191.489 207.83H194.279V211.457H191.489V207.83ZM185.862 194.901H188.652V198.529H185.862V194.901ZM185.862 201.366H188.652V204.993H185.862V201.366ZM185.862 207.83H188.652V211.457H185.862V207.83ZM173.956 182.019H176.747V185.647H173.956V182.019ZM173.956 188.484H176.747V192.111H173.956V188.484ZM173.956 194.901H176.747V198.529H173.956V194.901ZM173.956 201.366H176.747V204.993H173.956V201.366ZM168.329 182.019H171.12V185.647H168.329V182.019ZM168.329 188.484H171.12V192.111H168.329V188.484ZM168.329 194.901H171.12V198.529H168.329V194.901ZM168.329 201.366H171.12V204.993H168.329V201.366ZM162.702 182.019H165.493V185.647H162.702V182.019ZM162.702 188.484H165.493V192.111H162.702V188.484ZM162.702 194.902H165.493V198.529H162.702V194.902ZM162.702 201.366H165.493V204.993H162.702V201.366ZM167.073 207.83H172.421V214.852H167.073V207.83Z" fill="white"/>
<rect x="221.318" y="231.038" width="45.5703" height="10.2262" rx="2.27103" stroke="#9BACBC" stroke-width="0.648866"/>
<rect x="281.129" y="231.038" width="45.5703" height="10.2262" rx="2.27103" stroke="#9BACBC" stroke-width="0.648866"/>
<rect x="221.317" y="247.475" width="45.5703" height="10.2262" rx="2.27103" stroke="#9BACBC" stroke-width="0.648866"/>
<rect x="281.129" y="246.796" width="45.5703" height="10.2262" rx="2.27103" stroke="#9BACBC" stroke-width="0.648866"/>
<rect x="224.392" y="233.432" width="5.43754" height="4.75785" rx="1.44291" fill="#0BE597"/>
<rect x="284.205" y="233.432" width="5.43754" height="4.75785" rx="1.44291" fill="#9D97F4"/>
<rect x="224.392" y="249.87" width="5.43754" height="4.75785" rx="1.44291" fill="#15C1E6"/>
<rect x="284.205" y="249.19" width="5.43754" height="4.75785" rx="1.44291" fill="#3D7FFC"/>
<rect opacity="0.5" x="231.189" y="233.432" width="14.2736" height="1.35939" rx="0.679693" fill="#E7EEFF"/>
<rect opacity="0.5" x="291.001" y="233.432" width="14.2736" height="1.35939" rx="0.679693" fill="#E7EEFF"/>
<rect opacity="0.5" x="231.189" y="249.87" width="14.2736" height="1.35939" rx="0.679693" fill="#E7EEFF"/>
<rect opacity="0.5" x="291.002" y="249.19" width="14.2736" height="1.35939" rx="0.679693" fill="#E7EEFF"/>
<rect opacity="0.5" x="231.189" y="236.831" width="31.9456" height="1.35939" rx="0.679693" fill="#E7EEFF"/>
<rect opacity="0.5" x="291.001" y="236.831" width="31.9456" height="1.35939" rx="0.679693" fill="#E7EEFF"/>
<rect opacity="0.5" x="231.189" y="253.269" width="31.9456" height="1.35939" rx="0.679693" fill="#E7EEFF"/>
<rect opacity="0.5" x="291.002" y="252.589" width="31.9456" height="1.35939" rx="0.679693" fill="#E7EEFF"/>
<path d="M144.416 246.731H184.909" stroke="#9FC0FF" stroke-width="5.05019" stroke-linecap="round"/>
<path d="M134.838 183.756C135.089 183.835 135.293 184.02 135.397 184.262C135.5 184.505 135.493 184.78 135.376 185.016L130.025 195.823C129.882 196.112 129.595 196.303 129.273 196.323C128.951 196.343 128.642 196.189 128.465 195.92L124.667 190.168H117C116.668 190.168 116.363 189.985 116.206 189.693C116.049 189.401 116.064 189.046 116.247 188.769L123.392 177.944C123.536 177.726 123.768 177.581 124.027 177.547C124.286 177.513 124.548 177.593 124.743 177.766L129.671 182.133L134.838 183.756Z" fill="#0BE597" stroke="#22395B" stroke-width="1.80364" stroke-linejoin="round"/>
<path d="M137.034 183.84C136.629 184.081 136.477 184.594 136.686 185.016L142.036 195.823C142.179 196.112 142.466 196.303 142.789 196.323C143.111 196.343 143.419 196.189 143.597 195.92L147.395 190.168H155.062C155.393 190.168 155.699 189.985 155.856 189.693C156.013 189.401 155.997 189.046 155.814 188.769L148.669 177.944C148.404 177.543 147.871 177.42 147.457 177.665L137.034 183.84Z" fill="#0BE597" stroke="#22395B" stroke-width="1.80364" stroke-linejoin="round"/>
<path d="M121.07 175.481L121.683 174.819L121.07 175.481C121.716 176.079 122.095 176.91 122.125 177.79C122.205 180.197 123.958 182.22 126.329 182.642C127.196 182.796 127.965 183.29 128.465 184.015C129.834 185.996 132.402 186.751 134.625 185.823C135.438 185.485 136.352 185.485 137.164 185.823C139.387 186.751 141.956 185.996 143.325 184.015C143.825 183.29 144.594 182.796 145.46 182.642C147.832 182.22 149.585 180.197 149.665 177.79C149.694 176.91 150.074 176.079 150.719 175.481C152.486 173.844 152.867 171.194 151.633 169.125C151.182 168.369 151.052 167.465 151.272 166.613C151.873 164.28 150.761 161.845 148.605 160.772C147.817 160.38 147.218 159.689 146.942 158.854C146.187 156.566 143.935 155.119 141.541 155.382C140.666 155.478 139.789 155.221 139.105 154.667C137.233 153.151 134.556 153.151 132.684 154.667C132 155.221 131.123 155.478 130.249 155.382C127.854 155.119 125.602 156.566 124.847 158.854C124.571 159.689 123.973 160.38 123.185 160.772C121.028 161.845 119.916 164.28 120.518 166.613C120.737 167.465 120.607 168.369 120.156 169.125C118.922 171.194 119.303 173.844 121.07 175.481Z" fill="#0BE597" stroke="#22395B" stroke-width="1.80364"/>
<g filter="url(#filter5_dd_6376_27139)">
<circle cx="135.691" cy="169.88" r="10.5352" fill="#0BE597"/>
<circle cx="135.691" cy="169.88" r="9.45306" stroke="#22395B" stroke-width="2.16437"/>
</g>
<rect x="220.993" y="169.541" width="106.032" height="56.4145" rx="4.35263" fill="#E7EEFF" fill-opacity="0.17"/>
<mask id="mask0_6376_27139" style="mask-type:alpha" maskUnits="userSpaceOnUse" x="220" y="164" width="108" height="63">
<path d="M220.992 164.103H327.309V221.008C327.309 223.797 325.048 226.058 322.259 226.058H226.042C223.253 226.058 220.992 223.797 220.992 221.008V164.103Z" fill="#F5F8FF"/>
</mask>
<g mask="url(#mask0_6376_27139)">
<path opacity="0.8" d="M207.447 238.771C201.547 238.759 197.856 232.384 200.783 227.261C201.407 226.171 202.287 225.25 203.348 224.578L208.067 221.592C211.854 219.194 215.06 215.983 217.45 212.191L225.146 199.981C226.138 198.407 227.391 197.013 228.851 195.86L229.521 195.33C234.598 191.32 241.658 190.967 247.109 194.451C249.07 195.703 250.716 197.39 251.921 199.38L255.404 205.131C258.989 211.051 266.973 212.449 272.356 208.099C273.739 206.982 274.842 205.557 275.577 203.938L284.754 183.733C285.806 181.417 287.445 179.417 289.51 177.931C295.126 173.889 302.81 174.355 307.898 179.045L309.968 180.953L322.629 196.355L331.691 209.035C333.496 211.561 336.719 212.643 339.683 211.718C343.574 210.503 347.696 212.762 348.765 216.695L350.359 222.56C352.616 230.867 346.352 239.044 337.744 239.027L207.447 238.771Z" fill="#3D7FFC"/>
<path d="M218.652 235.815C214.861 235.809 212.684 231.498 214.93 228.444C215.37 227.845 215.949 227.361 216.616 227.033L220.756 224.996C223.806 223.495 226.494 221.351 228.635 218.71L234.165 211.892C235.226 210.584 236.501 209.466 237.935 208.585L238.364 208.322C242.468 205.801 247.582 205.571 251.896 207.715C253.772 208.647 255.415 209.989 256.703 211.642L258.861 214.411C262.083 218.547 267.913 219.572 272.352 216.784C273.746 215.908 274.908 214.708 275.739 213.287L282.31 202.041C283.487 200.027 285.181 198.365 287.217 197.226C291.643 194.749 297.101 195.054 301.223 198.008L303.22 199.439L313.469 209.131L320.567 216.85C322.225 218.653 324.731 219.414 327.112 218.836C330.477 218.019 333.913 219.888 335.056 223.157L335.586 224.672C337.521 230.205 333.408 235.991 327.546 235.982L218.652 235.815Z" fill="#C6DBFF"/>
</g>
<circle cx="246.433" cy="176.423" r="8.44761" fill="#76A5FF"/>
<circle cx="283.137" cy="152.84" r="8.44761" fill="#76A5FF"/>
<line x1="246.454" y1="185.231" x2="246.454" y2="206.136" stroke="#76A5FF" stroke-width="0.721456" stroke-linecap="round" stroke-dasharray="2.89 2.89"/>
<line x1="283.159" y1="161.648" x2="283.159" y2="182.552" stroke="#76A5FF" stroke-width="0.721456" stroke-linecap="round" stroke-dasharray="2.89 2.89"/>
<path d="M246.731 181.108C246.075 181.103 245.504 181.012 245.016 180.837C244.527 180.662 244.121 180.419 243.794 180.111C243.467 179.803 243.213 179.426 243.051 179.007C242.884 178.581 242.793 178.113 242.783 177.606L244.443 177.62C244.469 177.946 244.545 178.23 244.675 178.471C244.795 178.703 244.963 178.908 245.168 179.071C245.372 179.232 245.606 179.352 245.856 179.424C246.125 179.502 246.404 179.543 246.685 179.544C246.941 179.549 247.196 179.522 247.446 179.464C247.676 179.411 247.874 179.334 248.038 179.232C248.192 179.14 248.323 179.011 248.418 178.858C248.508 178.707 248.555 178.534 248.554 178.358C248.556 178.168 248.514 178.007 248.429 177.872C248.343 177.737 248.204 177.618 248.013 177.511C247.823 177.404 247.568 177.307 247.255 177.218C246.943 177.129 246.556 177.036 246.097 176.94C245.575 176.817 245.125 176.677 244.749 176.519C244.373 176.362 244.063 176.175 243.82 175.96C243.588 175.76 243.405 175.508 243.286 175.225C243.171 174.947 243.116 174.629 243.119 174.27C243.123 173.884 243.206 173.529 243.37 173.206C243.536 172.879 243.773 172.595 244.064 172.372C244.361 172.139 244.717 171.959 245.128 171.829C245.539 171.698 245.998 171.636 246.5 171.64C247.024 171.645 247.502 171.721 247.933 171.867C248.365 172.016 248.736 172.223 249.047 172.494C249.36 172.767 249.61 173.106 249.778 173.487C249.954 173.876 250.045 174.318 250.053 174.81L248.411 174.795C248.3 173.75 247.675 173.223 246.535 173.213C245.981 173.208 245.555 173.299 245.259 173.482C244.963 173.665 244.814 173.924 244.811 174.25C244.807 174.372 244.84 174.493 244.905 174.597C244.968 174.697 245.07 174.789 245.211 174.872C245.351 174.956 245.532 175.034 245.751 175.104C245.971 175.173 246.241 175.242 246.553 175.311C246.827 175.369 247.107 175.434 247.395 175.506C247.68 175.577 247.961 175.662 248.238 175.761C248.507 175.858 248.766 175.978 249.014 176.121C249.251 176.259 249.466 176.431 249.652 176.633C249.839 176.837 249.985 177.075 250.083 177.334C250.188 177.603 250.239 177.917 250.236 178.276C250.232 178.699 250.142 179.084 249.966 179.433C249.79 179.781 249.541 180.087 249.236 180.33C248.925 180.579 248.556 180.772 248.128 180.91C247.701 181.049 247.235 181.115 246.731 181.108Z" fill="#22395B"/>
<path fill-rule="evenodd" clip-rule="evenodd" d="M245.927 170.645L247.213 170.656C247.255 170.657 247.296 170.674 247.326 170.705C247.356 170.735 247.372 170.776 247.372 170.819L247.356 172.666L245.749 172.652L245.765 170.805C245.766 170.762 245.783 170.721 245.813 170.691C245.844 170.661 245.885 170.645 245.927 170.645ZM247.29 180.242L247.275 181.942C247.275 181.985 247.257 182.026 247.227 182.056C247.196 182.086 247.155 182.102 247.113 182.102L245.827 182.091C245.784 182.09 245.744 182.073 245.714 182.042C245.684 182.012 245.667 181.971 245.668 181.928L245.682 180.228L247.29 180.242Z" fill="#22395B"/>
<path d="M283.433 157.319C282.778 157.313 282.206 157.223 281.718 157.048C281.229 156.872 280.823 156.629 280.496 156.321C280.169 156.013 279.915 155.636 279.753 155.217C279.586 154.792 279.495 154.324 279.485 153.816L281.145 153.831C281.171 154.157 281.247 154.44 281.377 154.681C281.497 154.914 281.666 155.118 281.87 155.282C282.075 155.443 282.308 155.562 282.558 155.634C282.827 155.713 283.106 155.754 283.387 155.755C283.643 155.76 283.899 155.733 284.148 155.675C284.378 155.621 284.576 155.545 284.74 155.443C284.894 155.35 285.025 155.222 285.12 155.069C285.21 154.917 285.257 154.745 285.256 154.569C285.258 154.379 285.216 154.217 285.131 154.083C285.045 153.948 284.906 153.829 284.716 153.722C284.525 153.615 284.27 153.518 283.958 153.429C283.645 153.339 283.258 153.247 282.8 153.15C282.277 153.028 281.827 152.888 281.451 152.73C281.075 152.572 280.765 152.386 280.522 152.171C280.29 151.97 280.107 151.718 279.989 151.435C279.873 151.158 279.818 150.839 279.822 150.481C279.825 150.095 279.909 149.74 280.072 149.416C280.239 149.09 280.476 148.805 280.766 148.582C281.063 148.35 281.419 148.169 281.83 148.039C282.242 147.909 282.7 147.846 283.203 147.851C283.726 147.855 284.204 147.931 284.635 148.078C285.067 148.226 285.438 148.434 285.749 148.705C286.062 148.978 286.312 149.317 286.48 149.697C286.656 150.087 286.747 150.529 286.755 151.02L285.113 151.006C285.002 149.961 284.377 149.433 283.237 149.423C282.683 149.418 282.257 149.51 281.961 149.693C281.665 149.876 281.516 150.134 281.513 150.46C281.509 150.583 281.542 150.704 281.607 150.808C281.67 150.907 281.772 150.999 281.913 151.083C282.053 151.166 282.234 151.245 282.453 151.314C282.673 151.384 282.943 151.453 283.256 151.522C283.529 151.58 283.809 151.644 284.097 151.717C284.382 151.787 284.664 151.872 284.94 151.972C285.209 152.068 285.468 152.189 285.716 152.332C285.953 152.469 286.169 152.641 286.354 152.843C286.541 153.047 286.688 153.285 286.785 153.544C286.89 153.813 286.941 154.127 286.938 154.486C286.934 154.909 286.844 155.295 286.668 155.643C286.492 155.992 286.243 156.298 285.939 156.541C285.627 156.789 285.258 156.983 284.831 157.121C284.403 157.259 283.937 157.325 283.433 157.319Z" fill="#22395B"/>
<path fill-rule="evenodd" clip-rule="evenodd" d="M282.63 146.856L283.915 146.867C283.957 146.867 283.998 146.885 284.028 146.915C284.058 146.946 284.074 146.987 284.074 147.029L284.058 148.877L282.451 148.863L282.467 147.015C282.468 146.973 282.485 146.932 282.516 146.902C282.546 146.872 282.587 146.855 282.63 146.856ZM283.992 156.453L283.977 158.153C283.977 158.196 283.959 158.236 283.929 158.266C283.899 158.296 283.858 158.313 283.815 158.313L282.529 158.301C282.487 158.301 282.446 158.283 282.416 158.253C282.386 158.223 282.369 158.182 282.37 158.139L282.385 156.439L283.992 156.453Z" fill="#22395B"/>
<path d="M150.647 233.827H148.121V233.822C147.981 233.821 147.845 233.78 147.731 233.705C147.618 233.63 147.532 233.525 147.487 233.405C147.479 233.386 147.472 233.368 147.467 233.348L146.725 231.185L146.707 231.13C146.675 231.048 146.616 230.978 146.537 230.93C146.458 230.881 146.364 230.856 146.268 230.86C146.173 230.863 146.081 230.895 146.007 230.949C145.933 231.003 145.879 231.077 145.855 231.161L145.105 233.34C145.105 233.342 145.105 233.343 145.105 233.344C145.099 233.367 145.091 233.389 145.082 233.411C145.035 233.531 144.949 233.634 144.836 233.708C144.722 233.782 144.587 233.822 144.447 233.823V233.827H141.919C141.809 233.845 141.709 233.897 141.638 233.976C141.567 234.054 141.529 234.153 141.53 234.254C141.53 234.32 141.546 234.385 141.577 234.444C141.607 234.504 141.653 234.556 141.709 234.597L141.729 234.612L143.693 235.972C143.786 236.033 143.862 236.113 143.914 236.207C143.966 236.3 143.993 236.403 143.992 236.508C143.992 236.556 143.986 236.605 143.974 236.652C143.965 236.689 143.953 236.724 143.938 236.759L143.193 238.934V238.942L143.187 238.958C143.175 238.998 143.169 239.04 143.169 239.081C143.167 239.137 143.178 239.192 143.2 239.244C143.221 239.296 143.254 239.344 143.296 239.384C143.339 239.424 143.389 239.456 143.445 239.479C143.501 239.501 143.561 239.513 143.622 239.514C143.701 239.515 143.779 239.495 143.847 239.458L143.926 239.405L145.875 238.059L145.918 238.029C146.026 237.961 146.154 237.924 146.286 237.923C146.417 237.921 146.546 237.956 146.656 238.023C146.68 238.036 146.703 238.052 146.724 238.069L148.662 239.41L148.716 239.448C148.788 239.489 148.87 239.51 148.954 239.509C149.015 239.508 149.075 239.495 149.131 239.473C149.187 239.45 149.237 239.418 149.279 239.378C149.321 239.338 149.354 239.291 149.376 239.239C149.397 239.187 149.408 239.132 149.406 239.076C149.406 239.033 149.399 238.989 149.386 238.948C149.386 238.941 149.381 238.934 149.379 238.927L148.631 236.744C148.619 236.715 148.609 236.686 148.602 236.656C148.571 236.537 148.576 236.412 148.618 236.296C148.66 236.179 148.737 236.076 148.84 235.996C148.857 235.983 148.874 235.972 148.892 235.96L150.833 234.619L150.892 234.577C150.943 234.536 150.983 234.485 151.01 234.429C151.038 234.372 151.051 234.311 151.051 234.249C151.051 234.146 151.01 234.047 150.936 233.969C150.862 233.891 150.759 233.841 150.647 233.827Z" fill="#FECE4D"/>
<path d="M163.053 233.827H160.527V233.822C160.387 233.821 160.251 233.78 160.137 233.705C160.024 233.63 159.938 233.526 159.893 233.405C159.885 233.387 159.878 233.368 159.873 233.349L159.131 231.185L159.112 231.131C159.081 231.049 159.021 230.978 158.942 230.93C158.863 230.881 158.769 230.857 158.674 230.86C158.578 230.864 158.487 230.895 158.412 230.949C158.338 231.003 158.285 231.078 158.26 231.162L157.51 233.341C157.51 233.342 157.51 233.343 157.51 233.345C157.504 233.367 157.496 233.39 157.487 233.411C157.44 233.531 157.355 233.635 157.241 233.708C157.128 233.782 156.992 233.822 156.853 233.823V233.828H154.324C154.214 233.845 154.114 233.898 154.043 233.976C153.972 234.054 153.934 234.153 153.936 234.255C153.935 234.32 153.951 234.385 153.982 234.444C154.013 234.504 154.058 234.556 154.114 234.597L154.135 234.612L156.098 235.972C156.213 236.048 156.301 236.154 156.351 236.275C156.401 236.397 156.411 236.529 156.379 236.655C156.371 236.692 156.359 236.727 156.343 236.762L155.598 238.937V238.945L155.593 238.961C155.581 239.001 155.575 239.043 155.575 239.085C155.573 239.14 155.583 239.195 155.605 239.247C155.627 239.299 155.66 239.347 155.702 239.387C155.744 239.427 155.794 239.459 155.85 239.482C155.906 239.504 155.966 239.516 156.027 239.517C156.107 239.518 156.184 239.498 156.252 239.461L156.332 239.408L158.281 238.063L158.323 238.032C158.432 237.964 158.56 237.927 158.691 237.926C158.823 237.925 158.951 237.959 159.061 238.026C159.085 238.039 159.108 238.055 159.129 238.072L161.067 239.413L161.122 239.451C161.193 239.492 161.275 239.513 161.359 239.512C161.42 239.511 161.48 239.499 161.536 239.476C161.592 239.454 161.642 239.421 161.684 239.381C161.726 239.341 161.759 239.294 161.781 239.242C161.803 239.19 161.813 239.135 161.811 239.079C161.812 239.036 161.805 238.993 161.791 238.951C161.791 238.945 161.786 238.937 161.784 238.93L161.036 236.747C161.024 236.718 161.014 236.689 161.007 236.659C160.993 236.608 160.986 236.556 160.986 236.504C160.985 236.408 161.008 236.312 161.052 236.225C161.096 236.138 161.161 236.061 161.242 235.999C161.259 235.986 161.276 235.974 161.294 235.963L163.235 234.621L163.294 234.579C163.345 234.538 163.385 234.488 163.412 234.431C163.44 234.375 163.453 234.313 163.453 234.252C163.454 234.149 163.414 234.049 163.34 233.971C163.267 233.893 163.165 233.842 163.053 233.827Z" fill="#FECE4D"/>
<path d="M175.456 233.827H172.93V233.822C172.79 233.821 172.654 233.78 172.54 233.705C172.427 233.63 172.341 233.526 172.296 233.405C172.288 233.387 172.282 233.368 172.276 233.349L171.535 231.185L171.516 231.131C171.484 231.049 171.424 230.978 171.345 230.93C171.266 230.881 171.172 230.857 171.077 230.86C170.982 230.864 170.89 230.895 170.816 230.949C170.741 231.003 170.688 231.078 170.663 231.162L169.913 233.341C169.913 233.341 169.913 233.341 169.913 233.345C169.907 233.367 169.9 233.39 169.89 233.411C169.844 233.531 169.758 233.635 169.644 233.708C169.531 233.782 169.395 233.822 169.256 233.823V233.828H166.727C166.617 233.845 166.518 233.898 166.446 233.976C166.375 234.054 166.337 234.153 166.339 234.255C166.338 234.32 166.354 234.385 166.385 234.445C166.416 234.504 166.461 234.556 166.517 234.597L166.538 234.612L168.501 235.972C168.616 236.048 168.704 236.154 168.754 236.275C168.804 236.397 168.814 236.529 168.783 236.655C168.774 236.692 168.762 236.727 168.746 236.762L168.002 238.937V238.945L167.996 238.961C167.984 239.001 167.978 239.043 167.978 239.085C167.976 239.14 167.986 239.195 168.008 239.247C168.03 239.299 168.063 239.347 168.105 239.387C168.147 239.427 168.198 239.459 168.253 239.482C168.309 239.504 168.37 239.516 168.431 239.517C168.51 239.518 168.588 239.498 168.656 239.461L168.735 239.408L170.684 238.063L170.727 238.032C170.835 237.964 170.963 237.927 171.094 237.926C171.226 237.925 171.355 237.959 171.464 238.026C171.488 238.04 171.511 238.055 171.532 238.072L173.47 239.413L173.525 239.451C173.596 239.492 173.679 239.513 173.763 239.512C173.824 239.511 173.884 239.499 173.94 239.476C173.995 239.454 174.046 239.421 174.088 239.381C174.13 239.341 174.162 239.294 174.184 239.242C174.206 239.19 174.216 239.135 174.215 239.079C174.215 239.036 174.208 238.993 174.194 238.951C174.194 238.945 174.189 238.937 174.188 238.93L173.44 236.747C173.428 236.718 173.418 236.689 173.411 236.659C173.397 236.608 173.39 236.556 173.39 236.504C173.389 236.408 173.412 236.312 173.456 236.225C173.5 236.138 173.565 236.061 173.646 235.999C173.663 235.986 173.68 235.974 173.698 235.963L175.64 234.621L175.699 234.579C175.75 234.538 175.79 234.488 175.817 234.431C175.845 234.375 175.858 234.313 175.858 234.252C175.859 234.149 175.818 234.049 175.745 233.971C175.671 233.893 175.568 233.842 175.456 233.827Z" fill="#FECE4D"/>
<path d="M187.862 233.827H185.336V233.822C185.195 233.821 185.059 233.78 184.946 233.705C184.832 233.63 184.747 233.526 184.701 233.405C184.693 233.387 184.687 233.368 184.681 233.349L183.94 231.185L183.921 231.131C183.889 231.049 183.83 230.978 183.751 230.93C183.672 230.881 183.578 230.857 183.482 230.86C183.387 230.864 183.295 230.895 183.221 230.949C183.146 231.003 183.093 231.078 183.069 231.162L182.319 233.341C182.319 233.342 182.319 233.343 182.319 233.345C182.313 233.367 182.305 233.39 182.296 233.411C182.249 233.531 182.163 233.635 182.05 233.708C181.936 233.782 181.801 233.822 181.661 233.823V233.828H179.133C179.023 233.845 178.923 233.898 178.852 233.976C178.781 234.054 178.742 234.153 178.744 234.255C178.743 234.32 178.759 234.385 178.79 234.445C178.821 234.504 178.866 234.556 178.923 234.597L178.943 234.612L180.906 235.972C181.022 236.048 181.11 236.154 181.16 236.275C181.21 236.397 181.22 236.529 181.188 236.655C181.179 236.692 181.167 236.727 181.151 236.762L180.407 238.937V238.945L180.401 238.961C180.389 239.001 180.382 239.043 180.382 239.085C180.381 239.14 180.391 239.195 180.413 239.247C180.435 239.299 180.467 239.347 180.51 239.387C180.552 239.427 180.602 239.459 180.658 239.482C180.714 239.504 180.774 239.516 180.835 239.517C180.914 239.518 180.992 239.498 181.06 239.461L181.14 239.408L183.088 238.063L183.131 238.032C183.239 237.964 183.367 237.927 183.499 237.926C183.63 237.925 183.759 237.959 183.869 238.026C183.893 238.039 183.916 238.055 183.938 238.072L185.875 239.413L185.93 239.451C186.001 239.492 186.084 239.513 186.168 239.512C186.229 239.511 186.289 239.499 186.345 239.476C186.401 239.454 186.451 239.421 186.493 239.381C186.535 239.341 186.568 239.294 186.59 239.242C186.611 239.19 186.622 239.135 186.62 239.079C186.62 239.036 186.613 238.993 186.599 238.951C186.599 238.945 186.595 238.937 186.592 238.93L185.845 236.747C185.832 236.718 185.822 236.689 185.815 236.659C185.802 236.608 185.795 236.556 185.795 236.504C185.794 236.408 185.816 236.312 185.861 236.225C185.905 236.138 185.97 236.061 186.051 235.999C186.067 235.986 186.085 235.974 186.102 235.963L188.044 234.621L188.103 234.579C188.153 234.538 188.194 234.488 188.221 234.431C188.248 234.375 188.262 234.313 188.261 234.252C188.262 234.149 188.222 234.049 188.149 233.971C188.076 233.893 187.973 233.842 187.862 233.827Z" fill="#FECE4D"/>
<path d="M200.266 233.827H197.74V233.822C197.6 233.821 197.463 233.78 197.35 233.705C197.236 233.63 197.151 233.526 197.105 233.405C197.098 233.387 197.091 233.368 197.086 233.349L196.344 231.185L196.325 231.131C196.293 231.049 196.234 230.978 196.155 230.93C196.076 230.881 195.982 230.857 195.886 230.86C195.791 230.864 195.699 230.895 195.625 230.949C195.551 231.003 195.497 231.078 195.473 231.162L194.723 233.341C194.723 233.341 194.723 233.341 194.723 233.345C194.717 233.367 194.709 233.39 194.7 233.411C194.653 233.531 194.567 233.635 194.454 233.708C194.34 233.782 194.205 233.822 194.065 233.823V233.828H191.536C191.426 233.845 191.326 233.898 191.255 233.976C191.184 234.054 191.146 234.153 191.148 234.255C191.147 234.32 191.163 234.385 191.194 234.444C191.225 234.504 191.27 234.556 191.326 234.597L191.347 234.612L193.312 235.971C193.427 236.047 193.515 236.152 193.565 236.274C193.615 236.395 193.625 236.527 193.594 236.654C193.585 236.69 193.573 236.726 193.557 236.761L192.813 238.936V238.944L192.807 238.96C192.795 239 192.788 239.041 192.788 239.083C192.786 239.138 192.797 239.194 192.818 239.246C192.84 239.298 192.873 239.345 192.915 239.385C192.957 239.426 193.008 239.458 193.064 239.48C193.12 239.503 193.18 239.515 193.241 239.516C193.32 239.516 193.398 239.497 193.466 239.459L193.545 239.406L195.494 238.061L195.537 238.031C195.645 237.962 195.773 237.926 195.905 237.925C196.036 237.923 196.165 237.958 196.274 238.024C196.298 238.038 196.321 238.054 196.343 238.071L198.28 239.411L198.335 239.45C198.406 239.49 198.489 239.511 198.573 239.511C198.634 239.51 198.694 239.497 198.75 239.475C198.805 239.452 198.856 239.42 198.898 239.38C198.94 239.34 198.973 239.292 198.994 239.24C199.016 239.189 199.027 239.133 199.025 239.078C199.025 239.035 199.018 238.991 199.004 238.95C199.004 238.943 199 238.936 198.997 238.929L198.249 236.745C198.237 236.717 198.227 236.688 198.22 236.658C198.207 236.607 198.2 236.555 198.2 236.502C198.199 236.406 198.221 236.311 198.266 236.224C198.31 236.136 198.375 236.059 198.456 235.997C198.472 235.984 198.49 235.973 198.507 235.961L200.449 234.619L200.508 234.578C200.558 234.537 200.599 234.486 200.626 234.43C200.653 234.373 200.667 234.312 200.666 234.25C200.667 234.148 200.627 234.048 200.553 233.97C200.479 233.893 200.377 233.842 200.266 233.827Z" fill="#FECE4D"/>
<g filter="url(#filter6_d_6376_27139)">
<rect x="347" y="96.0574" width="123.697" height="167.271" rx="3.06799" fill="url(#paint1_linear_6376_27139)"/>
</g>
<rect opacity="0.8" x="375.099" y="188.081" width="39.3892" height="3.5058" rx="1.7529" fill="#E7EEFF"/>
<rect opacity="0.4" x="375.099" y="195.094" width="73.4759" height="3.5058" rx="1.7529" fill="#E7EEFF"/>
<rect opacity="0.8" x="375.296" y="214.124" width="39.3892" height="3.5058" rx="1.7529" fill="#E7EEFF"/>
<rect opacity="0.4" x="375.296" y="221.136" width="73.4759" height="3.5058" rx="1.7529" fill="#E7EEFF"/>
<rect opacity="0.8" x="375.296" y="240.83" width="39.3892" height="3.5058" rx="1.7529" fill="#E7EEFF"/>
<rect opacity="0.4" x="375.296" y="247.842" width="73.4759" height="3.5058" rx="1.7529" fill="#E7EEFF"/>
<path d="M347 101.887C347 98.6676 349.61 96.0574 352.83 96.0574H464.746C467.966 96.0574 470.576 98.6676 470.576 101.887V170.859C470.576 174.078 467.966 176.689 464.746 176.689H352.83C349.61 176.689 347 174.078 347 170.859V101.887Z" fill="#2E5196"/>
<path d="M347.305 101.887C347.305 98.8362 349.779 96.3627 352.83 96.3627H464.746C467.797 96.3627 470.271 98.8362 470.271 101.887V170.859C470.271 173.91 467.797 176.383 464.746 176.383H352.83C349.779 176.383 347.305 173.91 347.305 170.859V101.887Z" stroke="white" stroke-opacity="0.2" stroke-width="0.610603"/>
<mask id="mask1_6376_27139" style="mask-type:alpha" maskUnits="userSpaceOnUse" x="347" y="110" width="124" height="67">
<rect x="347" y="110.818" width="123.576" height="65.7318" fill="#F5F8FF"/>
</mask>
<g mask="url(#mask1_6376_27139)">
<path d="M464.885 131.965C462.197 125.874 458.909 119.207 452.341 116.655C446.828 114.516 439.862 116.234 436.243 120.619C434.55 122.673 433.587 125.147 432.461 127.508C431.309 129.929 429.961 132.277 428.438 134.517C426.83 136.884 424.61 139.455 421.583 139.485C418.114 139.521 412.802 135.37 411.389 134.608C402.516 129.814 399.275 136.403 398.682 137.677C397.4 140.428 395.89 143.161 393.566 145.251C391.242 147.341 387.954 148.71 384.752 148.236C381.347 147.731 378.652 145.299 376.686 142.68C374.72 140.061 373.366 136.998 370.899 134.776C364.676 129.172 360.672 133.905 359.592 135.298C351.976 145.107 351.559 158.693 343.227 167.985H481.042C481.042 167.985 468.902 141.058 464.885 131.965Z" fill="#FCDDEC"/>
<path d="M495.161 172.722C492.758 168.715 490.349 164.714 487.946 160.707C486.06 157.567 484.099 154.346 481.149 152.146C478.198 149.946 473.971 148.999 470.765 150.825C468.269 152.244 467.03 155.078 465.032 157.124C455.676 166.736 448.162 149.264 436.808 152.496C431.099 154.125 430.309 164.757 425.522 166.318C422.222 167.394 418.836 165.077 416.309 162.723C413.8 160.381 411.465 157.855 409.33 155.176C406.753 151.937 404.456 148.452 401.4 145.65C398.343 142.847 394.328 140.752 390.17 141.071C382.525 141.667 377.844 150.419 373.231 156.466C370.256 160.363 366.956 164.554 362.169 165.777C359.43 166.478 356.554 166.103 353.728 166.017C349.452 165.888 345.094 166.466 341.21 168.223C337.319 169.981 333.926 172.999 332.239 176.883H497.402L495.161 172.728V172.722Z" fill="#EF5DA8"/>
</g>
<path d="M364.094 199.475C362.621 199.475 361.181 199.038 359.955 198.219C358.73 197.401 357.775 196.237 357.212 194.876C356.648 193.515 356.5 192.017 356.788 190.572C357.075 189.127 357.785 187.799 358.827 186.757C359.868 185.715 361.196 185.006 362.641 184.718C364.086 184.431 365.584 184.579 366.945 185.142C368.306 185.706 369.47 186.661 370.289 187.886C371.107 189.111 371.544 190.552 371.544 192.025C371.542 194 370.756 195.894 369.36 197.29C367.963 198.687 366.069 199.473 364.094 199.475Z" fill="#0BE597"/>
<path d="M364.288 225.517C362.814 225.517 361.374 225.08 360.149 224.261C358.924 223.443 357.969 222.279 357.405 220.918C356.841 219.557 356.694 218.059 356.981 216.614C357.268 215.169 357.978 213.841 359.02 212.799C360.062 211.758 361.389 211.048 362.834 210.761C364.279 210.473 365.777 210.621 367.139 211.185C368.5 211.748 369.663 212.703 370.482 213.928C371.3 215.153 371.737 216.594 371.737 218.067C371.735 220.042 370.95 221.936 369.553 223.332C368.156 224.729 366.263 225.515 364.288 225.517Z" fill="#0BE597"/>
<path d="M364.288 252.225C362.814 252.225 361.374 251.788 360.149 250.969C358.924 250.151 357.969 248.987 357.405 247.626C356.841 246.265 356.694 244.767 356.981 243.322C357.268 241.877 357.978 240.549 359.02 239.507C360.062 238.466 361.389 237.756 362.834 237.469C364.279 237.181 365.777 237.329 367.139 237.893C368.5 238.456 369.663 239.411 370.482 240.636C371.3 241.861 371.737 243.302 371.737 244.775C371.735 246.75 370.95 248.644 369.553 250.04C368.156 251.437 366.263 252.223 364.288 252.225Z" fill="#F50F32"/>
<defs>
<filter id="filter0_dd_6376_27139" x="136.485" y="38.9498" width="323.094" height="194.476" filterUnits="userSpaceOnUse" color-interpolation-filters="sRGB">
<feFlood flood-opacity="0" result="BackgroundImageFix"/>
<feColorMatrix in="SourceAlpha" type="matrix" values="0 0 0 0 0 0 0 0 0 0 0 0 0 0 0 0 0 0 127 0" result="hardAlpha"/>
<feOffset dx="3.60728" dy="3.60728"/>
<feGaussianBlur stdDeviation="3.60728"/>
<feColorMatrix type="matrix" values="0 0 0 0 0 0 0 0 0 0.296699 0 0 0 0 0.858629 0 0 0 0.08 0"/>
<feBlend mode="normal" in2="BackgroundImageFix" result="effect1_dropShadow_6376_27139"/>
<feColorMatrix in="SourceAlpha" type="matrix" values="0 0 0 0 0 0 0 0 0 0 0 0 0 0 0 0 0 0 127 0" result="hardAlpha"/>
<feOffset/>
<feGaussianBlur stdDeviation="2.5251"/>
<feComposite in2="hardAlpha" operator="out"/>
<feColorMatrix type="matrix" values="0 0 0 0 0.0354167 0 0 0 0 0.105426 0 0 0 0 0.2125 0 0 0 0.07 0"/>
<feBlend mode="normal" in2="effect1_dropShadow_6376_27139" result="effect2_dropShadow_6376_27139"/>
<feBlend mode="normal" in="SourceGraphic" in2="effect2_dropShadow_6376_27139" result="shape"/>
</filter>
<filter id="filter1_d_6376_27139" x="136.535" y="49.4109" width="327.222" height="212.344" filterUnits="userSpaceOnUse" color-interpolation-filters="sRGB">
<feFlood flood-opacity="0" result="BackgroundImageFix"/>
<feColorMatrix in="SourceAlpha" type="matrix" values="0 0 0 0 0 0 0 0 0 0 0 0 0 0 0 0 0 0 127 0" result="hardAlpha"/>
<feOffset dx="5" dy="5"/>
<feGaussianBlur stdDeviation="5"/>
<feColorMatrix type="matrix" values="0 0 0 0 0.0941177 0 0 0 0 0.188235 0 0 0 0 0.247059 0 0 0 0.15 0"/>
<feBlend mode="normal" in2="BackgroundImageFix" result="effect1_dropShadow_6376_27139"/>
<feBlend mode="normal" in="SourceGraphic" in2="effect1_dropShadow_6376_27139" result="shape"/>
</filter>
<filter id="filter2_dd_6376_27139" x="161.574" y="82.0801" width="47.5935" height="47.593" filterUnits="userSpaceOnUse" color-interpolation-filters="sRGB">
<feFlood flood-opacity="0" result="BackgroundImageFix"/>
<feColorMatrix in="SourceAlpha" type="matrix" values="0 0 0 0 0 0 0 0 0 0 0 0 0 0 0 0 0 0 127 0" result="hardAlpha"/>
<feOffset dx="4.74981" dy="4.74981"/>
<feGaussianBlur stdDeviation="4.74981"/>
<feColorMatrix type="matrix" values="0 0 0 0 0 0 0 0 0 0.296699 0 0 0 0 0.858629 0 0 0 0.08 0"/>
<feBlend mode="normal" in2="BackgroundImageFix" result="effect1_dropShadow_6376_27139"/>
<feColorMatrix in="SourceAlpha" type="matrix" values="0 0 0 0 0 0 0 0 0 0 0 0 0 0 0 0 0 0 127 0" result="hardAlpha"/>
<feOffset/>
<feGaussianBlur stdDeviation="3.32487"/>
<feComposite in2="hardAlpha" operator="out"/>
<feColorMatrix type="matrix" values="0 0 0 0 0.0354167 0 0 0 0 0.105426 0 0 0 0 0.2125 0 0 0 0.07 0"/>
<feBlend mode="normal" in2="effect1_dropShadow_6376_27139" result="effect2_dropShadow_6376_27139"/>
<feBlend mode="normal" in="SourceGraphic" in2="effect2_dropShadow_6376_27139" result="shape"/>
</filter>
<filter id="filter3_dd_6376_27139" x="223.619" y="82.0801" width="47.5935" height="47.593" filterUnits="userSpaceOnUse" color-interpolation-filters="sRGB">
<feFlood flood-opacity="0" result="BackgroundImageFix"/>
<feColorMatrix in="SourceAlpha" type="matrix" values="0 0 0 0 0 0 0 0 0 0 0 0 0 0 0 0 0 0 127 0" result="hardAlpha"/>
<feOffset dx="4.74981" dy="4.74981"/>
<feGaussianBlur stdDeviation="4.74981"/>
<feColorMatrix type="matrix" values="0 0 0 0 0 0 0 0 0 0.296699 0 0 0 0 0.858629 0 0 0 0.08 0"/>
<feBlend mode="normal" in2="BackgroundImageFix" result="effect1_dropShadow_6376_27139"/>
<feColorMatrix in="SourceAlpha" type="matrix" values="0 0 0 0 0 0 0 0 0 0 0 0 0 0 0 0 0 0 127 0" result="hardAlpha"/>
<feOffset/>
<feGaussianBlur stdDeviation="3.32487"/>
<feComposite in2="hardAlpha" operator="out"/>
<feColorMatrix type="matrix" values="0 0 0 0 0.0354167 0 0 0 0 0.105426 0 0 0 0 0.2125 0 0 0 0.07 0"/>
<feBlend mode="normal" in2="effect1_dropShadow_6376_27139" result="effect2_dropShadow_6376_27139"/>
<feBlend mode="normal" in="SourceGraphic" in2="effect2_dropShadow_6376_27139" result="shape"/>
</filter>
<filter id="filter4_dd_6376_27139" x="284.942" y="81.3586" width="48.3142" height="48.3145" filterUnits="userSpaceOnUse" color-interpolation-filters="sRGB">
<feFlood flood-opacity="0" result="BackgroundImageFix"/>
<feColorMatrix in="SourceAlpha" type="matrix" values="0 0 0 0 0 0 0 0 0 0 0 0 0 0 0 0 0 0 127 0" result="hardAlpha"/>
<feOffset dx="4.74981" dy="4.74981"/>
<feGaussianBlur stdDeviation="4.74981"/>
<feColorMatrix type="matrix" values="0 0 0 0 0 0 0 0 0 0.296699 0 0 0 0 0.858629 0 0 0 0.08 0"/>
<feBlend mode="normal" in2="BackgroundImageFix" result="effect1_dropShadow_6376_27139"/>
<feColorMatrix in="SourceAlpha" type="matrix" values="0 0 0 0 0 0 0 0 0 0 0 0 0 0 0 0 0 0 127 0" result="hardAlpha"/>
<feOffset/>
<feGaussianBlur stdDeviation="3.32487"/>
<feComposite in2="hardAlpha" operator="out"/>
<feColorMatrix type="matrix" values="0 0 0 0 0.0354167 0 0 0 0 0.105426 0 0 0 0 0.2125 0 0 0 0.07 0"/>
<feBlend mode="normal" in2="effect1_dropShadow_6376_27139" result="effect2_dropShadow_6376_27139"/>
<feBlend mode="normal" in="SourceGraphic" in2="effect2_dropShadow_6376_27139" result="shape"/>
</filter>
<filter id="filter5_dd_6376_27139" x="118.507" y="152.695" width="41.9695" height="41.9696" filterUnits="userSpaceOnUse" color-interpolation-filters="sRGB">
<feFlood flood-opacity="0" result="BackgroundImageFix"/>
<feColorMatrix in="SourceAlpha" type="matrix" values="0 0 0 0 0 0 0 0 0 0 0 0 0 0 0 0 0 0 127 0" result="hardAlpha"/>
<feOffset dx="4.74981" dy="4.74981"/>
<feGaussianBlur stdDeviation="4.74981"/>
<feColorMatrix type="matrix" values="0 0 0 0 0 0 0 0 0 0.296699 0 0 0 0 0.858629 0 0 0 0.08 0"/>
<feBlend mode="normal" in2="BackgroundImageFix" result="effect1_dropShadow_6376_27139"/>
<feColorMatrix in="SourceAlpha" type="matrix" values="0 0 0 0 0 0 0 0 0 0 0 0 0 0 0 0 0 0 127 0" result="hardAlpha"/>
<feOffset/>
<feGaussianBlur stdDeviation="3.32487"/>
<feComposite in2="hardAlpha" operator="out"/>
<feColorMatrix type="matrix" values="0 0 0 0 0.0354167 0 0 0 0 0.105426 0 0 0 0 0.2125 0 0 0 0.07 0"/>
<feBlend mode="normal" in2="effect1_dropShadow_6376_27139" result="effect2_dropShadow_6376_27139"/>
<feBlend mode="normal" in="SourceGraphic" in2="effect2_dropShadow_6376_27139" result="shape"/>
</filter>
<filter id="filter6_d_6376_27139" x="342" y="91.0574" width="143.696" height="187.272" filterUnits="userSpaceOnUse" color-interpolation-filters="sRGB">
<feFlood flood-opacity="0" result="BackgroundImageFix"/>
<feColorMatrix in="SourceAlpha" type="matrix" values="0 0 0 0 0 0 0 0 0 0 0 0 0 0 0 0 0 0 127 0" result="hardAlpha"/>
<feOffset dx="5" dy="5"/>
<feGaussianBlur stdDeviation="5"/>
<feColorMatrix type="matrix" values="0 0 0 0 0.0941177 0 0 0 0 0.188235 0 0 0 0 0.247059 0 0 0 0.15 0"/>
<feBlend mode="normal" in2="BackgroundImageFix" result="effect1_dropShadow_6376_27139"/>
<feBlend mode="normal" in="SourceGraphic" in2="effect1_dropShadow_6376_27139" result="shape"/>
</filter>
<linearGradient id="paint0_linear_6376_27139" x1="167.435" y1="54.4109" x2="435.58" y2="265.667" gradientUnits="userSpaceOnUse">
<stop stop-color="#0C2966"/>
<stop offset="1" stop-color="#0045C9"/>
</linearGradient>
<linearGradient id="paint1_linear_6376_27139" x1="357.428" y1="96.0574" x2="511.857" y2="152.386" gradientUnits="userSpaceOnUse">
<stop stop-color="#0C2966"/>
<stop offset="1" stop-color="#0045C9"/>
</linearGradient>
<clipPath id="clip0_6376_27139">
<rect x="141.535" y="44" width="307.222" height="178.604" rx="7.21456" fill="white"/>
</clipPath>
</defs>
</svg>
