<svg width="588" height="311" viewBox="0 0 588 311" fill="none" xmlns="http://www.w3.org/2000/svg">
<path d="M0 8C0 3.58172 3.58172 0 8 0H580C584.418 0 588 3.58172 588 8V303C588 307.418 584.418 311 580 311H7.99998C3.58171 311 0 307.418 0 303V8Z" fill="#22395B"/>
<g opacity="0.1">
<g clip-path="url(#clip0_6291_17954)">
<path d="M393.959 42.4097H193.5C192.612 42.4097 191.892 43.115 191.892 43.9851V161.783C191.892 162.653 192.612 163.359 193.5 163.359H393.959C394.847 163.359 395.567 162.653 395.567 161.783V43.9851C395.567 43.115 394.847 42.4097 393.959 42.4097Z" fill="white"/>
<path d="M395.567 39H191.892V45.9985H395.567V39Z" fill="#07722A"/>
<path d="M395.567 45.9136H191.892V55.6038H395.567V45.9136Z" fill="#40BB6E"/>
<path d="M395.477 83.4946H191.892V84.3727H395.477V83.4946Z" fill="#F6F8FA"/>
<path d="M395.477 67.1842H191.892V68.0624H395.477V67.1842Z" fill="#F6F8FA"/>
<path d="M395.477 98.4236H191.892V99.3018H395.477V98.4236Z" fill="#F6F8FA"/>
<path d="M395.477 113.353H191.892V114.231H395.477V113.353Z" fill="#F6F8FA"/>
<path d="M395.477 128.282H191.892V129.16H395.477V128.282Z" fill="#F6F8FA"/>
<path d="M395.477 143.211H191.892V144.089H395.477V143.211Z" fill="#F6F8FA"/>
<rect x="197.51" y="47.7823" width="6.14728" height="5.85455" rx="1.28106" fill="#07722A"/>
<path d="M200.74 51.0065L201.474 52.1731H202.199L201.128 50.6628L202.129 49.2458H201.413L200.735 50.3022L200.057 49.2458H199.342L200.342 50.6586L199.271 52.1731H199.992L200.74 51.0065Z" fill="white"/>
<rect opacity="0.3" x="359.044" y="48.66" width="29.8582" height="4.39091" fill="white"/>
<rect opacity="0.3" x="323.924" y="48.66" width="29.8582" height="4.39091" fill="white"/>
<rect opacity="0.3" x="253.662" y="48.66" width="29.8582" height="4.39091" fill="white"/>
<rect opacity="0.3" x="288.789" y="48.66" width="29.8582" height="4.39091" fill="white"/>
<rect opacity="0.3" x="218.539" y="48.66" width="29.8582" height="4.39091" fill="white"/>
</g>
</g>
<g opacity="0.3">
<g clip-path="url(#clip1_6291_17954)">
<path d="M410.464 54.1172H177.044C176.01 54.1172 175.171 54.9385 175.171 55.9517V193.119C175.171 194.132 176.01 194.954 177.044 194.954H410.464C411.498 194.954 412.336 194.132 412.336 193.119V55.9517C412.336 54.9385 411.498 54.1172 410.464 54.1172Z" fill="white"/>
<path d="M412.336 50.1469H175.171V58.2962H412.336V50.1469Z" fill="#07722A"/>
<path d="M412.336 58.197H175.171V69.4806H412.336V58.197Z" fill="#40BB6E"/>
<path d="M412.231 101.958H175.171V102.98H412.231V101.958Z" fill="#F6F8FA"/>
<path d="M412.231 82.9656H175.171V83.9882H412.231V82.9656Z" fill="#F6F8FA"/>
<path d="M412.231 119.342H175.171V120.364H412.231V119.342Z" fill="#F6F8FA"/>
<path d="M412.231 136.725H175.171V137.748H412.231V136.725Z" fill="#F6F8FA"/>
<path d="M412.231 154.11H175.171V155.132H412.231V154.11Z" fill="#F6F8FA"/>
<path d="M412.231 171.493H175.171V172.516H412.231V171.493Z" fill="#F6F8FA"/>
<rect x="181.71" y="60.373" width="7.15807" height="6.81721" rx="1.28106" fill="#07722A"/>
<path d="M185.463 64.1274L186.318 65.4859H187.162L185.915 63.7273L187.08 62.0773H186.247L185.458 63.3074L184.668 62.0773H183.835L185 63.7224L183.753 65.4859H184.592L185.463 64.1274Z" fill="white"/>
<rect opacity="0.3" x="369.798" y="61.3948" width="34.7678" height="5.11291" fill="white"/>
<rect opacity="0.3" x="328.892" y="61.3948" width="34.7678" height="5.11291" fill="white"/>
<rect opacity="0.3" x="247.088" y="61.3948" width="34.7677" height="5.11291" fill="white"/>
<rect opacity="0.3" x="287.982" y="61.3948" width="34.7678" height="5.11291" fill="white"/>
<rect opacity="0.3" x="206.182" y="61.3948" width="34.7678" height="5.11291" fill="white"/>
</g>
</g>
<g opacity="0.7">
<g clip-path="url(#clip2_6291_17954)">
<path d="M425.197 68.2973H162.285C161.12 68.2973 160.176 69.2224 160.176 70.3636V224.861C160.176 226.003 161.12 226.928 162.285 226.928H425.197C426.361 226.928 427.306 226.003 427.306 224.861V70.3636C427.306 69.2224 426.361 68.2973 425.197 68.2973Z" fill="white"/>
<path d="M427.306 63.8257H160.176V73.0047H427.306V63.8257Z" fill="#07722A"/>
<path d="M427.306 72.8929H160.176V85.6021H427.306V72.8929Z" fill="#40BB6E"/>
<path d="M427.187 122.182H160.176V123.334H427.187V122.182Z" fill="#F6F8FA"/>
<path d="M427.187 100.791H160.176V101.943H427.187V100.791Z" fill="#F6F8FA"/>
<path d="M427.187 141.763H160.176V142.915H427.187V141.763Z" fill="#F6F8FA"/>
<path d="M427.187 161.343H160.176V162.495H427.187V161.343Z" fill="#F6F8FA"/>
<path d="M427.187 180.924H160.176V182.075H427.187V180.924Z" fill="#F6F8FA"/>
<path d="M427.187 200.504H160.176V201.655H427.187V200.504Z" fill="#F6F8FA"/>
<rect x="167.543" y="75.3439" width="8.06246" height="7.67853" rx="1.28106" fill="#07722A"/>
<path d="M171.776 79.5727L172.739 81.1029H173.69L172.285 79.122L173.598 77.2636H172.659L171.77 78.6491L170.881 77.2636H169.942L171.255 79.1165L169.85 81.1029H170.795L171.776 79.5727Z" fill="white"/>
<rect opacity="0.3" x="379.398" y="76.4952" width="39.1605" height="5.7589" fill="white"/>
<rect opacity="0.3" x="333.321" y="76.4952" width="39.1605" height="5.7589" fill="white"/>
<rect opacity="0.3" x="241.184" y="76.4952" width="39.1605" height="5.7589" fill="white"/>
<rect opacity="0.3" x="287.253" y="76.4952" width="39.1605" height="5.7589" fill="white"/>
<rect opacity="0.3" x="195.111" y="76.4952" width="39.1605" height="5.7589" fill="white"/>
</g>
</g>
<g clip-path="url(#clip3_6291_17954)">
<path d="M441.47 85.0653H145.977C144.667 85.0653 143.606 86.1051 143.606 87.3877V261.032C143.606 262.315 144.667 263.354 145.977 263.354H441.47C442.78 263.354 443.841 262.315 443.841 261.032V87.3877C443.841 86.1051 442.78 85.0653 441.47 85.0653Z" fill="white"/>
<path d="M443.841 80.0392H143.606V90.3557H443.841V80.0392Z" fill="#07722A"/>
<path d="M443.841 90.2302H143.606V104.514H443.841V90.2302Z" fill="#40BB6E"/>
<path d="M443.707 145.628H143.606V146.923H443.707V145.628Z" fill="#F6F8FA"/>
<path d="M443.707 121.585H143.606V122.88H443.707V121.585Z" fill="#F6F8FA"/>
<path d="M443.707 167.635H143.606V168.93H443.707V167.635Z" fill="#F6F8FA"/>
<path d="M443.707 189.642H143.606V190.936H443.707V189.642Z" fill="#F6F8FA"/>
<path d="M443.707 211.649H143.606V212.943H443.707V211.649Z" fill="#F6F8FA"/>
<path d="M443.707 233.655H143.606V234.95H443.707V233.655Z" fill="#F6F8FA"/>
<rect x="151.891" y="92.9847" width="9.06162" height="8.63012" rx="1.28106" fill="#07722A"/>
<path d="M156.653 97.7377L157.735 99.4575H158.803L157.225 97.2311L158.7 95.1424H157.645L156.646 96.6996L155.646 95.1424H154.592L156.067 97.2249L154.488 99.4575H155.55L156.653 97.7377Z" fill="white"/>
<rect opacity="0.3" x="389.997" y="94.2791" width="44.0136" height="6.47259" fill="white"/>
<rect opacity="0.3" x="338.224" y="94.2791" width="44.0136" height="6.47259" fill="white"/>
<rect opacity="0.3" x="234.662" y="94.2791" width="44.0136" height="6.47259" fill="white"/>
<rect opacity="0.3" x="286.439" y="94.2791" width="44.0136" height="6.47259" fill="white"/>
<rect opacity="0.3" x="182.873" y="94.2791" width="44.0136" height="6.47259" fill="white"/>
</g>
<rect width="68.1897" height="28.7371" rx="3.06799" transform="matrix(-1 0 0 1 366.297 128.172)" fill="url(#paint0_linear_6291_17954)"/>
<path d="M316.121 144.661C316.121 143.478 315.405 142.698 314.269 142.214L313.385 141.851L313.441 139.7C313.96 139.767 314.605 140.09 315.082 140.601L315.952 139.27C315.391 138.624 314.437 138.248 313.595 138.181L313.609 137.428H312.599L312.571 138.154C311.813 138.221 311.084 138.449 310.607 138.853C310.088 139.283 309.681 139.915 309.681 140.802C309.681 141.905 310.354 142.496 310.663 142.725C310.971 142.967 311.392 143.169 311.926 143.384L312.403 143.572L312.361 145.817C311.757 145.804 310.747 145.333 310.34 144.715L309.302 146.059C310.003 146.906 311.154 147.39 312.206 147.431L312.178 148.143H313.188L313.216 147.404C313.75 147.363 314.549 147.108 315.04 146.731C315.588 146.315 316.121 145.616 316.121 144.661ZM312.557 139.686L312.515 141.555L312.361 141.488C312.01 141.327 311.645 141.085 311.645 140.587C311.645 140.063 312.024 139.727 312.557 139.686ZM314.185 144.916C314.185 145.441 313.679 145.804 313.244 145.844L313.287 143.841L313.511 143.948C313.932 144.15 314.185 144.406 314.185 144.916Z" fill="#76A5FF"/>
<rect x="322.456" y="140.837" width="32.1466" height="3.89655" rx="1.94828" fill="#76A5FF"/>
<rect width="68.1897" height="28.7371" rx="3.06799" transform="matrix(-1 0 0 1 366.297 166.536)" fill="url(#paint1_linear_6291_17954)"/>
<path d="M316.121 183.024C316.121 181.841 315.405 181.061 314.269 180.577L313.385 180.214L313.441 178.063C313.96 178.13 314.605 178.453 315.082 178.964L315.952 177.633C315.391 176.987 314.437 176.611 313.595 176.544L313.609 175.791H312.599L312.571 176.517C311.813 176.584 311.084 176.812 310.607 177.216C310.088 177.646 309.681 178.278 309.681 179.165C309.681 180.268 310.354 180.859 310.663 181.088C310.971 181.33 311.392 181.532 311.926 181.747L312.403 181.935L312.361 184.18C311.757 184.167 310.747 183.696 310.34 183.078L309.302 184.422C310.003 185.269 311.154 185.753 312.206 185.794L312.178 186.506H313.188L313.216 185.767C313.75 185.726 314.549 185.471 315.04 185.094C315.588 184.678 316.121 183.979 316.121 183.024ZM312.557 178.049L312.515 179.918L312.361 179.851C312.01 179.69 311.645 179.448 311.645 178.95C311.645 178.426 312.024 178.09 312.557 178.049ZM314.185 183.279C314.185 183.804 313.679 184.167 313.244 184.207L313.287 182.204L313.511 182.311C313.932 182.513 314.185 182.768 314.185 183.279Z" fill="#76A5FF"/>
<rect x="322.456" y="179.2" width="20.944" height="3.89655" rx="1.94828" fill="#76A5FF"/>
<rect width="68.1897" height="28.7371" rx="3.06799" transform="matrix(-1 0 0 1 366.297 204.898)" fill="url(#paint2_linear_6291_17954)"/>
<path d="M316.121 221.386C316.121 220.203 315.405 219.423 314.269 218.939L313.385 218.576L313.441 216.425C313.96 216.492 314.605 216.815 315.082 217.326L315.952 215.995C315.391 215.349 314.437 214.973 313.595 214.906L313.609 214.153H312.599L312.571 214.879C311.813 214.946 311.084 215.175 310.607 215.578C310.088 216.008 309.681 216.64 309.681 217.527C309.681 218.63 310.354 219.222 310.663 219.45C310.971 219.692 311.392 219.894 311.926 220.109L312.403 220.297L312.361 222.542C311.757 222.529 310.747 222.058 310.34 221.44L309.302 222.784C310.003 223.631 311.154 224.115 312.206 224.156L312.178 224.868H313.188L313.216 224.129C313.75 224.089 314.549 223.833 315.04 223.457C315.588 223.04 316.121 222.341 316.121 221.386ZM312.557 216.412L312.515 218.28L312.361 218.213C312.01 218.052 311.645 217.81 311.645 217.312C311.645 216.788 312.024 216.452 312.557 216.412ZM314.185 221.642C314.185 222.166 313.679 222.529 313.244 222.569L313.287 220.566L313.511 220.674C313.932 220.875 314.185 221.131 314.185 221.642Z" fill="#76A5FF"/>
<rect x="322.456" y="217.562" width="30.1983" height="3.89655" rx="1.94828" fill="#76A5FF"/>
<rect width="68.1897" height="28.7371" rx="3.06799" transform="matrix(-1 0 0 1 366.167 243.09)" fill="url(#paint3_linear_6291_17954)"/>
<path d="M315.99 259.577C315.99 258.394 315.275 257.614 314.138 257.13L313.254 256.767L313.311 254.616C313.83 254.683 314.475 255.005 314.952 255.516L315.822 254.185C315.261 253.54 314.307 253.164 313.465 253.096L313.479 252.343H312.469L312.441 253.069C311.683 253.137 310.953 253.365 310.476 253.769C309.957 254.199 309.55 254.831 309.55 255.718C309.55 256.821 310.224 257.412 310.532 257.641C310.841 257.883 311.262 258.084 311.795 258.299L312.272 258.488L312.23 260.733C311.627 260.72 310.617 260.249 310.21 259.63L309.171 260.975C309.873 261.822 311.024 262.306 312.076 262.346L312.048 263.059H313.058L313.086 262.319C313.619 262.279 314.419 262.024 314.91 261.647C315.457 261.23 315.99 260.531 315.99 259.577ZM312.427 254.602L312.385 256.471L312.23 256.404C311.879 256.242 311.515 256 311.515 255.503C311.515 254.979 311.893 254.642 312.427 254.602ZM314.054 259.832C314.054 260.356 313.549 260.72 313.114 260.76L313.156 258.757L313.381 258.864C313.802 259.066 314.054 259.321 314.054 259.832Z" fill="#76A5FF"/>
<rect x="322.326" y="255.753" width="20.944" height="3.89655" rx="1.94828" fill="#76A5FF"/>
<rect width="59.9095" height="28.7371" rx="3.06799" transform="matrix(-1 0 0 1 292.91 128)" fill="url(#paint4_linear_6291_17954)"/>
<rect x="256.86" y="140.664" width="20.4569" height="3.89655" rx="1.94828" fill="#7879F1"/>
<path fill-rule="evenodd" clip-rule="evenodd" d="M246.98 147.362C249.858 147.362 252.191 145.208 252.191 142.552C252.191 139.895 249.858 137.741 246.98 137.741C244.101 137.741 241.768 139.895 241.768 142.552C241.768 144.06 242.52 145.405 243.696 146.287L243.893 147.768C243.931 148.051 244.246 148.205 244.493 148.061L245.875 147.254C246.231 147.325 246.601 147.362 246.98 147.362Z" fill="#7879F1"/>
<rect width="59.9095" height="28.7371" rx="3.06799" transform="matrix(-1 0 0 1 292.91 166.363)" fill="url(#paint5_linear_6291_17954)"/>
<rect x="256.86" y="179.026" width="19.4828" height="3.89655" rx="1.94828" fill="#7879F1"/>
<path fill-rule="evenodd" clip-rule="evenodd" d="M246.98 185.725C249.858 185.725 252.191 183.571 252.191 180.915C252.191 178.258 249.858 176.104 246.98 176.104C244.101 176.104 241.768 178.258 241.768 180.915C241.768 182.423 242.52 183.768 243.696 184.65L243.893 186.131C243.931 186.414 244.246 186.568 244.493 186.424L245.875 185.617C246.231 185.688 246.601 185.725 246.98 185.725Z" fill="#7879F1"/>
<rect width="59.9095" height="28.7371" rx="3.06799" transform="matrix(-1 0 0 1 292.91 204.727)" fill="url(#paint6_linear_6291_17954)"/>
<rect x="256.86" y="217.391" width="15.5862" height="3.89655" rx="1.94828" fill="#7879F1"/>
<path fill-rule="evenodd" clip-rule="evenodd" d="M246.98 224.089C249.858 224.089 252.191 221.936 252.191 219.279C252.191 216.622 249.858 214.468 246.98 214.468C244.101 214.468 241.768 216.622 241.768 219.279C241.768 220.787 242.52 222.133 243.696 223.015L243.893 224.495C243.931 224.779 244.246 224.932 244.493 224.788L245.875 223.981C246.231 224.052 246.601 224.089 246.98 224.089Z" fill="#7879F1"/>
<rect width="59.9095" height="28.7371" rx="3.06799" transform="matrix(-1 0 0 1 293.04 243.262)" fill="url(#paint7_linear_6291_17954)"/>
<rect x="256.991" y="255.926" width="24.8405" height="3.89655" rx="1.94828" fill="#7879F1"/>
<path fill-rule="evenodd" clip-rule="evenodd" d="M247.11 262.625C249.988 262.625 252.321 260.471 252.321 257.814C252.321 255.157 249.988 253.004 247.11 253.004C244.232 253.004 241.898 255.157 241.898 257.814C241.898 259.322 242.65 260.668 243.826 261.55L244.024 263.03C244.062 263.314 244.376 263.468 244.623 263.323L246.006 262.516C246.362 262.587 246.731 262.625 247.11 262.625Z" fill="#7879F1"/>
<rect width="84.75" height="28.7371" rx="3.06799" transform="matrix(-1 0 0 1 456.11 128.172)" fill="url(#paint8_linear_6291_17954)"/>
<path d="M390.505 141.237H387.741V141.232C387.587 141.23 387.438 141.185 387.314 141.101C387.19 141.017 387.096 140.9 387.046 140.765C387.038 140.744 387.031 140.723 387.025 140.702L386.213 138.278L386.193 138.217C386.159 138.125 386.093 138.047 386.007 137.992C385.92 137.938 385.818 137.91 385.713 137.914C385.609 137.918 385.509 137.953 385.427 138.014C385.346 138.075 385.287 138.158 385.261 138.252L384.44 140.692C384.44 140.694 384.44 140.695 384.44 140.697C384.433 140.722 384.425 140.747 384.415 140.772C384.364 140.906 384.27 141.022 384.146 141.104C384.021 141.187 383.873 141.232 383.72 141.233V141.238H380.953C380.833 141.257 380.724 141.316 380.646 141.404C380.568 141.492 380.526 141.602 380.528 141.716C380.528 141.79 380.545 141.862 380.579 141.929C380.613 141.995 380.662 142.054 380.723 142.1L380.746 142.117L382.894 143.64C382.997 143.708 383.08 143.798 383.137 143.903C383.194 144.007 383.223 144.123 383.222 144.24C383.222 144.294 383.215 144.349 383.202 144.402C383.193 144.443 383.18 144.483 383.163 144.521L382.348 146.958V146.967L382.342 146.984C382.329 147.029 382.322 147.076 382.322 147.122C382.32 147.185 382.331 147.247 382.355 147.305C382.379 147.363 382.415 147.416 382.461 147.461C382.507 147.506 382.562 147.542 382.623 147.567C382.685 147.593 382.75 147.606 382.817 147.607C382.904 147.608 382.989 147.586 383.064 147.544L383.15 147.485L385.283 145.978L385.33 145.944C385.448 145.867 385.588 145.826 385.732 145.825C385.876 145.823 386.017 145.863 386.137 145.937C386.163 145.952 386.188 145.97 386.212 145.989L388.332 147.49L388.392 147.533C388.47 147.579 388.56 147.602 388.653 147.602C388.719 147.6 388.785 147.586 388.846 147.561C388.907 147.536 388.962 147.5 389.008 147.455C389.054 147.41 389.09 147.357 389.114 147.299C389.138 147.241 389.149 147.179 389.147 147.117C389.147 147.068 389.14 147.02 389.125 146.973C389.125 146.966 389.119 146.958 389.118 146.95L388.299 144.504C388.286 144.473 388.275 144.44 388.267 144.407C388.233 144.273 388.239 144.133 388.285 144.003C388.331 143.872 388.415 143.756 388.528 143.667C388.546 143.653 388.565 143.64 388.584 143.627L390.709 142.124L390.773 142.078C390.829 142.031 390.873 141.975 390.903 141.911C390.933 141.848 390.948 141.78 390.947 141.711C390.947 141.595 390.902 141.484 390.821 141.397C390.74 141.31 390.628 141.253 390.505 141.237Z" fill="#F9C400"/>
<path d="M404.386 141.237H401.622V141.232C401.468 141.23 401.319 141.184 401.195 141.101C401.071 141.017 400.977 140.9 400.927 140.765C400.919 140.744 400.912 140.723 400.906 140.702L400.094 138.278L400.074 138.217C400.039 138.125 399.973 138.047 399.887 137.992C399.801 137.938 399.698 137.91 399.593 137.914C399.489 137.918 399.389 137.953 399.307 138.014C399.226 138.075 399.168 138.158 399.141 138.252L398.32 140.692C398.32 140.694 398.32 140.695 398.32 140.697C398.313 140.722 398.305 140.747 398.295 140.772C398.244 140.906 398.15 141.022 398.026 141.104C397.902 141.187 397.753 141.232 397.601 141.233V141.238H394.833C394.713 141.257 394.604 141.316 394.526 141.404C394.448 141.492 394.406 141.602 394.408 141.716C394.408 141.79 394.425 141.862 394.459 141.929C394.493 141.995 394.542 142.054 394.604 142.1L394.626 142.117L396.775 143.64C396.901 143.725 396.997 143.843 397.052 143.979C397.107 144.115 397.117 144.263 397.083 144.405C397.073 144.446 397.06 144.486 397.043 144.524L396.228 146.961V146.97L396.222 146.988C396.209 147.033 396.202 147.079 396.202 147.126C396.2 147.188 396.211 147.25 396.235 147.308C396.259 147.366 396.295 147.419 396.341 147.464C396.387 147.51 396.442 147.545 396.503 147.571C396.565 147.596 396.631 147.609 396.697 147.61C396.784 147.611 396.869 147.589 396.944 147.548L397.031 147.488L399.163 145.981L399.21 145.947C399.328 145.871 399.469 145.829 399.612 145.828C399.756 145.827 399.897 145.866 400.017 145.94C400.044 145.955 400.069 145.973 400.092 145.992L402.212 147.493L402.272 147.536C402.35 147.582 402.441 147.606 402.533 147.605C402.599 147.603 402.665 147.59 402.726 147.565C402.787 147.539 402.842 147.503 402.888 147.458C402.934 147.413 402.97 147.36 402.994 147.302C403.018 147.244 403.029 147.182 403.027 147.12C403.028 147.071 403.02 147.023 403.005 146.976C403.005 146.969 402.999 146.961 402.997 146.953L402.179 144.507C402.165 144.476 402.154 144.443 402.147 144.41C402.132 144.352 402.124 144.294 402.124 144.235C402.123 144.128 402.148 144.021 402.196 143.923C402.245 143.825 402.316 143.739 402.404 143.67C402.422 143.655 402.442 143.642 402.461 143.629L404.586 142.127L404.65 142.08C404.705 142.034 404.749 141.977 404.779 141.914C404.809 141.851 404.824 141.782 404.823 141.713C404.824 141.598 404.781 141.486 404.7 141.399C404.62 141.311 404.508 141.254 404.386 141.237Z" fill="#F9C400"/>
<path d="M418.266 141.237H415.501V141.232C415.348 141.23 415.199 141.184 415.075 141.101C414.951 141.017 414.857 140.9 414.807 140.765C414.799 140.744 414.791 140.723 414.786 140.702L413.974 138.278L413.953 138.217C413.919 138.125 413.853 138.047 413.767 137.992C413.68 137.938 413.578 137.91 413.473 137.914C413.369 137.918 413.269 137.953 413.187 138.014C413.106 138.075 413.047 138.158 413.021 138.252L412.2 140.692C412.2 140.692 412.2 140.693 412.2 140.697C412.193 140.722 412.185 140.747 412.175 140.772C412.124 140.906 412.03 141.022 411.906 141.104C411.781 141.187 411.633 141.231 411.48 141.233V141.238H408.713C408.593 141.257 408.484 141.316 408.406 141.404C408.328 141.492 408.286 141.602 408.288 141.716C408.287 141.79 408.304 141.863 408.338 141.929C408.372 141.996 408.422 142.054 408.483 142.1L408.506 142.117L410.654 143.64C410.78 143.725 410.877 143.843 410.932 143.979C410.986 144.115 410.997 144.263 410.962 144.405C410.953 144.446 410.94 144.486 410.923 144.524L410.108 146.961V146.97L410.102 146.988C410.088 147.033 410.082 147.079 410.082 147.126C410.08 147.188 410.091 147.25 410.115 147.308C410.139 147.366 410.175 147.419 410.221 147.464C410.267 147.51 410.322 147.545 410.383 147.571C410.444 147.596 410.51 147.609 410.577 147.61C410.664 147.611 410.749 147.589 410.824 147.548L410.91 147.488L413.043 145.981L413.09 145.947C413.208 145.871 413.348 145.829 413.492 145.828C413.636 145.827 413.777 145.866 413.897 145.94C413.923 145.955 413.948 145.973 413.972 145.992L416.092 147.493L416.152 147.536C416.23 147.582 416.32 147.606 416.413 147.605C416.479 147.603 416.545 147.59 416.606 147.565C416.667 147.539 416.722 147.503 416.768 147.458C416.814 147.413 416.85 147.36 416.874 147.302C416.898 147.244 416.909 147.182 416.907 147.12C416.907 147.071 416.9 147.023 416.885 146.976C416.885 146.969 416.879 146.961 416.878 146.953L416.059 144.507C416.046 144.476 416.035 144.443 416.027 144.41C416.012 144.352 416.005 144.294 416.005 144.235C416.004 144.128 416.029 144.021 416.077 143.923C416.125 143.825 416.196 143.739 416.285 143.67C416.303 143.655 416.322 143.642 416.341 143.629L418.466 142.127L418.531 142.08C418.587 142.034 418.631 141.977 418.661 141.914C418.691 141.851 418.706 141.782 418.705 141.713C418.706 141.598 418.662 141.486 418.581 141.398C418.501 141.311 418.389 141.254 418.266 141.237Z" fill="#F9C400"/>
<path d="M432.162 141.237H429.397V141.232C429.244 141.23 429.095 141.184 428.97 141.101C428.846 141.017 428.753 140.9 428.703 140.765C428.694 140.744 428.687 140.723 428.681 140.702L427.87 138.278L427.849 138.217C427.814 138.125 427.749 138.047 427.662 137.992C427.576 137.938 427.473 137.91 427.369 137.914C427.265 137.918 427.164 137.953 427.083 138.014C427.001 138.075 426.943 138.158 426.916 138.252L426.095 140.692C426.095 140.694 426.095 140.695 426.095 140.697C426.089 140.722 426.08 140.747 426.07 140.772C426.019 140.906 425.925 141.022 425.801 141.104C425.677 141.187 425.529 141.232 425.376 141.233V141.238H422.609C422.488 141.257 422.379 141.316 422.301 141.404C422.223 141.492 422.182 141.602 422.184 141.716C422.183 141.79 422.2 141.863 422.234 141.929C422.268 141.996 422.317 142.054 422.379 142.1L422.402 142.117L424.55 143.64C424.676 143.725 424.773 143.843 424.827 143.979C424.882 144.115 424.893 144.263 424.858 144.405C424.849 144.446 424.835 144.486 424.818 144.524L424.003 146.961V146.97L423.996 146.988C423.983 147.033 423.977 147.079 423.976 147.126C423.974 147.188 423.986 147.25 424.01 147.308C424.034 147.366 424.07 147.419 424.116 147.464C424.162 147.51 424.217 147.545 424.278 147.571C424.339 147.596 424.405 147.609 424.472 147.61C424.559 147.611 424.644 147.589 424.718 147.548L424.805 147.488L426.938 145.981L426.985 145.947C427.103 145.871 427.243 145.829 427.387 145.828C427.531 145.827 427.672 145.866 427.792 145.94C427.818 145.955 427.844 145.973 427.867 145.992L429.988 147.493L430.048 147.536C430.126 147.582 430.216 147.606 430.308 147.605C430.375 147.603 430.441 147.59 430.502 147.565C430.563 147.539 430.618 147.503 430.664 147.458C430.709 147.413 430.745 147.36 430.769 147.302C430.793 147.244 430.805 147.182 430.803 147.12C430.803 147.071 430.795 147.023 430.78 146.976C430.78 146.969 430.775 146.961 430.772 146.953L429.954 144.507C429.94 144.476 429.93 144.443 429.922 144.41C429.907 144.352 429.899 144.294 429.899 144.235C429.899 144.128 429.923 144.021 429.972 143.923C430.02 143.825 430.091 143.739 430.18 143.67C430.198 143.655 430.217 143.642 430.236 143.629L432.361 142.127L432.425 142.08C432.481 142.034 432.525 141.977 432.555 141.914C432.585 141.851 432.6 141.782 432.599 141.713C432.6 141.598 432.556 141.486 432.476 141.399C432.395 141.311 432.284 141.254 432.162 141.237Z" fill="#F9C400"/>
<path d="M446.038 141.237H443.274V141.232C443.12 141.23 442.971 141.184 442.847 141.101C442.723 141.017 442.63 140.9 442.58 140.765C442.571 140.744 442.564 140.723 442.558 140.702L441.747 138.278L441.726 138.217C441.691 138.125 441.626 138.047 441.539 137.992C441.453 137.938 441.35 137.91 441.246 137.914C441.141 137.918 441.041 137.953 440.96 138.014C440.878 138.075 440.82 138.158 440.793 138.252L439.972 140.692C439.972 140.692 439.972 140.693 439.972 140.697C439.966 140.722 439.957 140.747 439.947 140.772C439.896 140.906 439.802 141.022 439.678 141.104C439.554 141.187 439.405 141.232 439.253 141.233V141.238H436.485C436.364 141.257 436.255 141.316 436.177 141.404C436.099 141.492 436.058 141.602 436.06 141.716C436.059 141.79 436.076 141.862 436.11 141.929C436.144 141.995 436.193 142.054 436.255 142.1L436.278 142.117L438.429 143.638C438.555 143.724 438.651 143.842 438.706 143.978C438.761 144.114 438.771 144.262 438.737 144.403C438.727 144.444 438.714 144.484 438.697 144.523L437.882 146.96V146.968L437.876 146.986C437.862 147.031 437.855 147.077 437.855 147.124C437.853 147.186 437.864 147.248 437.888 147.306C437.912 147.364 437.948 147.418 437.994 147.463C438.04 147.508 438.095 147.544 438.157 147.569C438.218 147.594 438.284 147.608 438.35 147.609C438.437 147.609 438.522 147.587 438.597 147.546L438.684 147.486L440.816 145.979L440.863 145.945C440.982 145.869 441.122 145.828 441.266 145.827C441.41 145.825 441.55 145.864 441.67 145.938C441.697 145.954 441.722 145.971 441.745 145.991L443.866 147.492L443.925 147.535C444.003 147.58 444.094 147.604 444.186 147.603C444.252 147.602 444.318 147.588 444.379 147.563C444.44 147.538 444.495 147.502 444.541 147.457C444.587 147.412 444.623 147.358 444.647 147.3C444.671 147.242 444.682 147.181 444.68 147.119C444.681 147.07 444.673 147.022 444.658 146.975C444.658 146.968 444.653 146.959 444.65 146.951L443.832 144.506C443.818 144.474 443.807 144.441 443.8 144.408C443.785 144.351 443.777 144.292 443.777 144.234C443.776 144.126 443.801 144.019 443.849 143.922C443.898 143.824 443.969 143.737 444.057 143.668C444.076 143.653 444.095 143.641 444.114 143.628L446.239 142.125L446.303 142.078C446.358 142.032 446.402 141.975 446.432 141.912C446.462 141.849 446.477 141.781 446.477 141.711C446.477 141.596 446.433 141.485 446.353 141.398C446.272 141.311 446.161 141.254 446.038 141.237Z" fill="#F9C400"/>
<rect width="84.75" height="28.7371" rx="3.06799" transform="matrix(-1 0 0 1 456.11 166.536)" fill="url(#paint9_linear_6291_17954)"/>
<path d="M390.505 179.6H387.741V179.595C387.587 179.593 387.438 179.548 387.314 179.464C387.19 179.38 387.096 179.263 387.046 179.128C387.038 179.107 387.031 179.086 387.025 179.065L386.213 176.641L386.193 176.58C386.159 176.489 386.093 176.41 386.007 176.355C385.92 176.301 385.818 176.273 385.713 176.277C385.609 176.281 385.509 176.316 385.427 176.377C385.346 176.438 385.287 176.521 385.261 176.615L384.44 179.056C384.44 179.057 384.44 179.059 384.44 179.06C384.433 179.085 384.425 179.11 384.415 179.135C384.364 179.269 384.27 179.385 384.146 179.467C384.021 179.55 383.873 179.595 383.72 179.596V179.601H380.953C380.833 179.621 380.724 179.68 380.646 179.767C380.568 179.855 380.526 179.965 380.528 180.079C380.528 180.153 380.545 180.225 380.579 180.292C380.613 180.358 380.662 180.417 380.723 180.463L380.746 180.48L382.894 182.003C382.997 182.071 383.08 182.161 383.137 182.266C383.194 182.37 383.223 182.486 383.222 182.603C383.222 182.658 383.215 182.712 383.202 182.765C383.193 182.806 383.18 182.846 383.163 182.884L382.348 185.321V185.33L382.342 185.348C382.329 185.393 382.322 185.439 382.322 185.486C382.32 185.548 382.331 185.61 382.355 185.668C382.379 185.726 382.415 185.779 382.461 185.824C382.507 185.87 382.562 185.905 382.623 185.931C382.685 185.956 382.75 185.969 382.817 185.97C382.904 185.971 382.989 185.949 383.064 185.907L383.15 185.848L385.283 184.341L385.33 184.307C385.448 184.231 385.588 184.189 385.732 184.188C385.876 184.186 386.017 184.226 386.137 184.3C386.163 184.315 386.188 184.333 386.212 184.352L388.332 185.853L388.392 185.896C388.47 185.942 388.56 185.966 388.653 185.965C388.719 185.963 388.785 185.949 388.846 185.924C388.907 185.899 388.962 185.863 389.008 185.818C389.054 185.773 389.09 185.72 389.114 185.662C389.138 185.604 389.149 185.542 389.147 185.48C389.147 185.431 389.14 185.383 389.125 185.336C389.125 185.329 389.119 185.321 389.118 185.313L388.299 182.867C388.286 182.836 388.275 182.803 388.267 182.77C388.233 182.636 388.239 182.496 388.285 182.366C388.331 182.235 388.415 182.119 388.528 182.03C388.546 182.016 388.565 182.003 388.584 181.99L390.709 180.487L390.773 180.441C390.829 180.395 390.873 180.338 390.903 180.275C390.933 180.211 390.948 180.143 390.947 180.074C390.947 179.958 390.902 179.847 390.821 179.76C390.74 179.673 390.628 179.616 390.505 179.6Z" fill="#F9C400"/>
<path d="M404.386 179.6H401.622V179.595C401.468 179.593 401.319 179.548 401.195 179.464C401.071 179.38 400.977 179.263 400.927 179.128C400.919 179.107 400.912 179.086 400.906 179.065L400.094 176.641L400.074 176.58C400.039 176.489 399.973 176.41 399.887 176.355C399.801 176.301 399.698 176.273 399.593 176.277C399.489 176.281 399.389 176.316 399.307 176.377C399.226 176.438 399.168 176.521 399.141 176.615L398.32 179.056C398.32 179.057 398.32 179.059 398.32 179.06C398.313 179.086 398.305 179.11 398.295 179.135C398.244 179.269 398.15 179.385 398.026 179.467C397.902 179.55 397.753 179.595 397.601 179.596V179.601H394.833C394.713 179.621 394.604 179.68 394.526 179.767C394.448 179.855 394.406 179.965 394.408 180.079C394.408 180.153 394.425 180.226 394.459 180.292C394.493 180.358 394.542 180.417 394.604 180.463L394.626 180.48L396.775 182.003C396.901 182.088 396.997 182.206 397.052 182.342C397.107 182.478 397.117 182.626 397.083 182.768C397.073 182.809 397.06 182.849 397.043 182.888L396.228 185.324V185.333L396.222 185.351C396.209 185.396 396.202 185.443 396.202 185.489C396.2 185.551 396.211 185.613 396.235 185.671C396.259 185.729 396.295 185.783 396.341 185.828C396.387 185.873 396.442 185.909 396.503 185.934C396.565 185.959 396.631 185.972 396.697 185.974C396.784 185.974 396.869 185.953 396.944 185.911L397.031 185.851L399.163 184.344L399.21 184.31C399.328 184.234 399.469 184.193 399.612 184.191C399.756 184.19 399.897 184.229 400.017 184.303C400.044 184.319 400.069 184.336 400.092 184.355L402.212 185.856L402.272 185.899C402.35 185.945 402.441 185.969 402.533 185.968C402.599 185.967 402.665 185.953 402.726 185.928C402.787 185.903 402.842 185.866 402.888 185.821C402.934 185.776 402.97 185.723 402.994 185.665C403.018 185.607 403.029 185.545 403.027 185.483C403.028 185.435 403.02 185.386 403.005 185.34C403.005 185.332 402.999 185.324 402.997 185.316L402.179 182.871C402.165 182.839 402.154 182.806 402.147 182.773C402.132 182.716 402.124 182.657 402.124 182.598C402.123 182.491 402.148 182.384 402.196 182.286C402.245 182.189 402.316 182.102 402.404 182.033C402.422 182.018 402.442 182.005 402.461 181.993L404.586 180.49L404.65 180.443C404.705 180.397 404.749 180.34 404.779 180.277C404.809 180.214 404.824 180.145 404.823 180.076C404.824 179.961 404.781 179.849 404.7 179.762C404.62 179.674 404.508 179.617 404.386 179.6Z" fill="#F9C400"/>
<path d="M418.266 179.6H415.501V179.595C415.348 179.593 415.199 179.548 415.075 179.464C414.951 179.38 414.857 179.263 414.807 179.128C414.799 179.107 414.791 179.086 414.786 179.065L413.974 176.641L413.953 176.58C413.919 176.489 413.853 176.41 413.767 176.355C413.68 176.301 413.578 176.273 413.473 176.277C413.369 176.281 413.269 176.316 413.187 176.377C413.106 176.438 413.047 176.521 413.021 176.615L412.2 179.056C412.2 179.056 412.2 179.056 412.2 179.06C412.193 179.086 412.185 179.11 412.175 179.135C412.124 179.269 412.03 179.385 411.906 179.467C411.781 179.55 411.633 179.595 411.48 179.596V179.601H408.713C408.593 179.621 408.484 179.68 408.406 179.767C408.328 179.855 408.286 179.965 408.288 180.079C408.287 180.153 408.304 180.226 408.338 180.292C408.372 180.359 408.422 180.417 408.483 180.463L408.506 180.48L410.654 182.003C410.78 182.088 410.877 182.206 410.932 182.342C410.986 182.478 410.997 182.626 410.962 182.768C410.953 182.809 410.94 182.849 410.923 182.888L410.108 185.324V185.333L410.102 185.351C410.088 185.396 410.082 185.443 410.082 185.489C410.08 185.551 410.091 185.613 410.115 185.671C410.139 185.729 410.175 185.783 410.221 185.828C410.267 185.873 410.322 185.909 410.383 185.934C410.444 185.959 410.51 185.972 410.577 185.974C410.664 185.974 410.749 185.953 410.824 185.911L410.91 185.851L413.043 184.344L413.09 184.31C413.208 184.234 413.348 184.193 413.492 184.191C413.636 184.19 413.777 184.229 413.897 184.303C413.923 184.319 413.948 184.336 413.972 184.355L416.092 185.856L416.152 185.899C416.23 185.945 416.32 185.969 416.413 185.968C416.479 185.967 416.545 185.953 416.606 185.928C416.667 185.903 416.722 185.866 416.768 185.821C416.814 185.776 416.85 185.723 416.874 185.665C416.898 185.607 416.909 185.545 416.907 185.483C416.907 185.435 416.9 185.386 416.885 185.34C416.885 185.332 416.879 185.324 416.878 185.316L416.059 182.871C416.046 182.839 416.035 182.806 416.027 182.773C416.012 182.716 416.005 182.657 416.005 182.598C416.004 182.491 416.029 182.384 416.077 182.286C416.125 182.189 416.196 182.102 416.285 182.033C416.303 182.018 416.322 182.005 416.341 181.993L418.466 180.49L418.531 180.443C418.587 180.397 418.631 180.34 418.661 180.277C418.691 180.214 418.706 180.145 418.705 180.076C418.706 179.961 418.662 179.849 418.581 179.761C418.501 179.674 418.389 179.617 418.266 179.6Z" fill="#F9C400"/>
<path d="M432.162 179.6H429.397V179.595C429.244 179.593 429.095 179.548 428.97 179.464C428.846 179.38 428.753 179.263 428.703 179.128C428.694 179.107 428.687 179.086 428.681 179.065L427.87 176.641L427.849 176.58C427.814 176.489 427.749 176.41 427.662 176.355C427.576 176.301 427.473 176.273 427.369 176.277C427.265 176.281 427.164 176.316 427.083 176.377C427.001 176.438 426.943 176.521 426.916 176.615L426.095 179.056C426.095 179.057 426.095 179.059 426.095 179.06C426.089 179.086 426.08 179.11 426.07 179.135C426.019 179.269 425.925 179.385 425.801 179.467C425.677 179.55 425.529 179.595 425.376 179.596V179.601H422.609C422.488 179.621 422.379 179.68 422.301 179.767C422.223 179.855 422.182 179.965 422.184 180.079C422.183 180.153 422.2 180.226 422.234 180.292C422.268 180.359 422.317 180.417 422.379 180.463L422.402 180.48L424.55 182.003C424.676 182.088 424.773 182.206 424.827 182.342C424.882 182.478 424.893 182.626 424.858 182.768C424.849 182.809 424.835 182.849 424.818 182.888L424.003 185.324V185.333L423.996 185.351C423.983 185.396 423.977 185.443 423.976 185.489C423.974 185.551 423.986 185.613 424.01 185.671C424.034 185.729 424.07 185.783 424.116 185.828C424.162 185.873 424.217 185.909 424.278 185.934C424.339 185.959 424.405 185.972 424.472 185.974C424.559 185.974 424.644 185.953 424.718 185.911L424.805 185.851L426.938 184.344L426.985 184.31C427.103 184.234 427.243 184.193 427.387 184.191C427.531 184.19 427.672 184.229 427.792 184.303C427.818 184.319 427.844 184.336 427.867 184.355L429.988 185.856L430.048 185.899C430.126 185.945 430.216 185.969 430.308 185.968C430.375 185.967 430.441 185.953 430.502 185.928C430.563 185.903 430.618 185.866 430.664 185.821C430.709 185.776 430.745 185.723 430.769 185.665C430.793 185.607 430.805 185.545 430.803 185.483C430.803 185.435 430.795 185.386 430.78 185.34C430.78 185.332 430.775 185.324 430.772 185.316L429.954 182.871C429.94 182.839 429.93 182.806 429.922 182.773C429.907 182.716 429.899 182.657 429.899 182.598C429.899 182.491 429.923 182.384 429.972 182.286C430.02 182.189 430.091 182.102 430.18 182.033C430.198 182.018 430.217 182.005 430.236 181.993L432.361 180.49L432.425 180.443C432.481 180.397 432.525 180.34 432.555 180.277C432.585 180.214 432.6 180.145 432.599 180.076C432.6 179.961 432.556 179.849 432.476 179.762C432.395 179.674 432.284 179.617 432.162 179.6Z" fill="#F9C400"/>
<path opacity="0.5" d="M446.269 179.762H443.504V179.757C443.351 179.755 443.202 179.709 443.078 179.626C442.954 179.542 442.86 179.424 442.81 179.289C442.802 179.269 442.794 179.248 442.789 179.226L441.977 176.803L441.956 176.742C441.922 176.65 441.856 176.572 441.77 176.517C441.683 176.463 441.581 176.435 441.476 176.439C441.372 176.443 441.272 176.478 441.19 176.539C441.109 176.6 441.05 176.683 441.024 176.777L440.203 179.217C440.203 179.219 440.203 179.22 440.203 179.222C440.196 179.247 440.188 179.272 440.178 179.297C440.127 179.43 440.033 179.547 439.909 179.629C439.784 179.712 439.636 179.756 439.483 179.758V179.763H436.716C436.596 179.782 436.487 179.841 436.409 179.929C436.331 180.017 436.289 180.127 436.291 180.241C436.29 180.314 436.307 180.387 436.341 180.454C436.375 180.52 436.425 180.579 436.486 180.625L436.509 180.642L438.657 182.164C438.784 182.25 438.88 182.368 438.935 182.504C438.99 182.64 439 182.788 438.965 182.93C438.956 182.971 438.943 183.011 438.926 183.049L438.111 185.486V185.495L438.104 185.512C438.091 185.557 438.084 185.604 438.084 185.651C438.082 185.713 438.093 185.775 438.117 185.833C438.141 185.891 438.177 185.944 438.223 185.989C438.269 186.034 438.324 186.07 438.385 186.095C438.447 186.12 438.513 186.134 438.579 186.135C438.666 186.136 438.751 186.114 438.826 186.072L438.913 186.013L441.045 184.506L441.092 184.472C441.21 184.396 441.351 184.354 441.494 184.353C441.638 184.352 441.779 184.39 441.899 184.465C441.926 184.48 441.951 184.498 441.975 184.517L444.095 186.018L444.155 186.061C444.233 186.107 444.323 186.13 444.416 186.13C444.482 186.128 444.548 186.115 444.609 186.089C444.67 186.064 444.725 186.028 444.771 185.983C444.817 185.938 444.853 185.885 444.877 185.827C444.901 185.769 444.912 185.707 444.91 185.645C444.91 185.596 444.903 185.548 444.888 185.501C444.888 185.494 444.882 185.486 444.88 185.478L444.061 183.032C444.048 183.001 444.037 182.968 444.029 182.934C444.014 182.877 444.007 182.819 444.007 182.76C444.006 182.652 444.031 182.546 444.079 182.448C444.128 182.35 444.199 182.264 444.287 182.194C444.305 182.18 444.324 182.167 444.343 182.154L446.468 180.652L446.533 180.605C446.588 180.559 446.632 180.502 446.662 180.439C446.692 180.375 446.707 180.307 446.706 180.238C446.707 180.123 446.664 180.011 446.583 179.923C446.503 179.836 446.391 179.779 446.269 179.762Z" fill="#D2DCE4"/>
<rect width="84.75" height="28.7371" rx="3.06799" transform="matrix(-1 0 0 1 456.11 204.898)" fill="url(#paint10_linear_6291_17954)"/>
<path d="M390.505 217.963H387.741V217.958C387.587 217.956 387.438 217.91 387.314 217.826C387.19 217.743 387.096 217.625 387.046 217.49C387.038 217.47 387.031 217.448 387.025 217.427L386.213 215.003L386.193 214.943C386.159 214.851 386.093 214.772 386.007 214.718C385.92 214.663 385.818 214.636 385.713 214.64C385.609 214.644 385.509 214.679 385.427 214.739C385.346 214.8 385.287 214.883 385.261 214.977L384.44 217.418C384.44 217.419 384.44 217.421 384.44 217.422C384.433 217.448 384.425 217.473 384.415 217.497C384.364 217.631 384.27 217.747 384.146 217.83C384.021 217.912 383.873 217.957 383.72 217.958V217.964H380.953C380.833 217.983 380.724 218.042 380.646 218.13C380.568 218.217 380.526 218.328 380.528 218.442C380.528 218.515 380.545 218.588 380.579 218.654C380.613 218.721 380.662 218.779 380.723 218.825L380.746 218.842L382.894 220.365C382.997 220.434 383.08 220.524 383.137 220.628C383.194 220.733 383.223 220.848 383.222 220.965C383.222 221.02 383.215 221.074 383.202 221.127C383.193 221.168 383.18 221.208 383.163 221.247L382.348 223.683V223.692L382.342 223.71C382.329 223.755 382.322 223.801 382.322 223.848C382.32 223.91 382.331 223.972 382.355 224.03C382.379 224.088 382.415 224.142 382.461 224.187C382.507 224.232 382.562 224.268 382.623 224.293C382.685 224.318 382.75 224.332 382.817 224.333C382.904 224.333 382.989 224.311 383.064 224.27L383.15 224.21L385.283 222.703L385.33 222.669C385.448 222.593 385.588 222.551 385.732 222.55C385.876 222.549 386.017 222.588 386.137 222.662C386.163 222.678 386.188 222.695 386.212 222.715L388.332 224.216L388.392 224.259C388.47 224.304 388.56 224.328 388.653 224.327C388.719 224.326 388.785 224.312 388.846 224.287C388.907 224.261 388.962 224.226 389.008 224.18C389.054 224.135 389.09 224.082 389.114 224.024C389.138 223.966 389.149 223.905 389.147 223.842C389.147 223.794 389.14 223.745 389.125 223.698C389.125 223.691 389.119 223.683 389.118 223.675L388.299 221.23C388.286 221.198 388.275 221.165 388.267 221.132C388.233 220.998 388.239 220.859 388.285 220.728C388.331 220.597 388.415 220.481 388.528 220.393C388.546 220.378 388.565 220.365 388.584 220.352L390.709 218.85L390.773 218.803C390.829 218.757 390.873 218.7 390.903 218.637C390.933 218.574 390.948 218.505 390.947 218.436C390.947 218.321 390.902 218.209 390.821 218.122C390.74 218.035 390.628 217.979 390.505 217.963Z" fill="#F9C400"/>
<path d="M404.386 217.963H401.622V217.958C401.468 217.956 401.319 217.91 401.195 217.826C401.071 217.743 400.977 217.625 400.927 217.49C400.919 217.47 400.912 217.449 400.906 217.427L400.094 215.004L400.074 214.943C400.039 214.851 399.973 214.772 399.887 214.718C399.801 214.663 399.698 214.636 399.593 214.64C399.489 214.644 399.389 214.679 399.307 214.74C399.226 214.8 399.168 214.884 399.141 214.977L398.32 217.418C398.32 217.419 398.32 217.421 398.32 217.422C398.313 217.448 398.305 217.473 398.295 217.497C398.244 217.631 398.15 217.747 398.026 217.83C397.902 217.912 397.753 217.957 397.601 217.959V217.964H394.833C394.713 217.983 394.604 218.042 394.526 218.13C394.448 218.217 394.406 218.328 394.408 218.442C394.408 218.515 394.425 218.588 394.459 218.654C394.493 218.721 394.542 218.779 394.604 218.826L394.626 218.843L396.775 220.365C396.901 220.451 396.997 220.569 397.052 220.705C397.107 220.841 397.117 220.989 397.083 221.131C397.073 221.171 397.06 221.211 397.043 221.25L396.228 223.687V223.695L396.222 223.713C396.209 223.758 396.202 223.805 396.202 223.852C396.2 223.914 396.211 223.975 396.235 224.034C396.259 224.092 396.295 224.145 396.341 224.19C396.387 224.235 396.442 224.271 396.503 224.296C396.565 224.321 396.631 224.335 396.697 224.336C396.784 224.336 396.869 224.315 396.944 224.273L397.031 224.213L399.163 222.707L399.21 222.673C399.328 222.597 399.469 222.555 399.612 222.554C399.756 222.553 399.897 222.591 400.017 222.665C400.044 222.681 400.069 222.699 400.092 222.718L402.212 224.219L402.272 224.262C402.35 224.307 402.441 224.331 402.533 224.331C402.599 224.329 402.665 224.315 402.726 224.29C402.787 224.265 402.842 224.229 402.888 224.184C402.934 224.139 402.97 224.086 402.994 224.028C403.018 223.97 403.029 223.908 403.027 223.846C403.028 223.797 403.02 223.749 403.005 223.702C403.005 223.695 402.999 223.687 402.997 223.678L402.179 221.233C402.165 221.201 402.154 221.169 402.147 221.135C402.132 221.078 402.124 221.02 402.124 220.961C402.123 220.853 402.148 220.747 402.196 220.649C402.245 220.551 402.316 220.465 402.404 220.395C402.422 220.381 402.442 220.368 402.461 220.355L404.586 218.852L404.65 218.805C404.705 218.759 404.749 218.703 404.779 218.639C404.809 218.576 404.824 218.508 404.823 218.439C404.824 218.324 404.781 218.212 404.7 218.124C404.62 218.037 404.508 217.98 404.386 217.963Z" fill="#F9C400"/>
<path d="M418.266 217.963H415.501V217.958C415.348 217.956 415.199 217.91 415.075 217.826C414.951 217.743 414.857 217.625 414.807 217.49C414.799 217.47 414.791 217.449 414.786 217.427L413.974 215.004L413.953 214.943C413.919 214.851 413.853 214.772 413.767 214.718C413.68 214.663 413.578 214.636 413.473 214.64C413.369 214.644 413.269 214.679 413.187 214.74C413.106 214.8 413.047 214.884 413.021 214.977L412.2 217.418C412.2 217.418 412.2 217.418 412.2 217.422C412.193 217.448 412.185 217.473 412.175 217.497C412.124 217.631 412.03 217.747 411.906 217.83C411.781 217.912 411.633 217.957 411.48 217.959V217.964H408.713C408.593 217.983 408.484 218.042 408.406 218.13C408.328 218.217 408.286 218.328 408.288 218.442C408.287 218.515 408.304 218.588 408.338 218.655C408.372 218.721 408.422 218.78 408.483 218.826L408.506 218.843L410.654 220.365C410.78 220.451 410.877 220.569 410.932 220.705C410.986 220.841 410.997 220.989 410.962 221.131C410.953 221.171 410.94 221.211 410.923 221.25L410.108 223.687V223.695L410.102 223.713C410.088 223.758 410.082 223.805 410.082 223.852C410.08 223.914 410.091 223.975 410.115 224.034C410.139 224.092 410.175 224.145 410.221 224.19C410.267 224.235 410.322 224.271 410.383 224.296C410.444 224.321 410.51 224.335 410.577 224.336C410.664 224.337 410.749 224.315 410.824 224.273L410.91 224.213L413.043 222.707L413.09 222.673C413.208 222.597 413.348 222.555 413.492 222.554C413.636 222.553 413.777 222.591 413.897 222.665C413.923 222.681 413.948 222.699 413.972 222.718L416.092 224.219L416.152 224.262C416.23 224.307 416.32 224.331 416.413 224.331C416.479 224.329 416.545 224.315 416.606 224.29C416.667 224.265 416.722 224.229 416.768 224.184C416.814 224.139 416.85 224.086 416.874 224.028C416.898 223.97 416.909 223.908 416.907 223.846C416.907 223.797 416.9 223.749 416.885 223.702C416.885 223.695 416.879 223.687 416.878 223.678L416.059 221.233C416.046 221.201 416.035 221.169 416.027 221.135C416.012 221.078 416.005 221.02 416.005 220.961C416.004 220.853 416.029 220.747 416.077 220.649C416.125 220.551 416.196 220.465 416.285 220.395C416.303 220.381 416.322 220.368 416.341 220.355L418.466 218.852L418.531 218.805C418.587 218.759 418.631 218.703 418.661 218.639C418.691 218.576 418.706 218.508 418.705 218.439C418.706 218.323 418.662 218.211 418.581 218.124C418.501 218.036 418.389 217.979 418.266 217.963Z" fill="#F9C400"/>
<path d="M432.162 217.963H429.397V217.958C429.244 217.956 429.095 217.91 428.97 217.826C428.846 217.743 428.753 217.625 428.703 217.49C428.694 217.47 428.687 217.449 428.681 217.427L427.87 215.004L427.849 214.943C427.814 214.851 427.749 214.772 427.662 214.718C427.576 214.663 427.473 214.636 427.369 214.64C427.265 214.644 427.164 214.679 427.083 214.74C427.001 214.8 426.943 214.884 426.916 214.977L426.095 217.418C426.095 217.419 426.095 217.421 426.095 217.422C426.089 217.448 426.08 217.473 426.07 217.497C426.019 217.631 425.925 217.747 425.801 217.83C425.677 217.912 425.529 217.957 425.376 217.959V217.964H422.609C422.488 217.983 422.379 218.042 422.301 218.13C422.223 218.217 422.182 218.328 422.184 218.442C422.183 218.515 422.2 218.588 422.234 218.655C422.268 218.721 422.317 218.78 422.379 218.826L422.402 218.843L424.55 220.365C424.676 220.451 424.773 220.569 424.827 220.705C424.882 220.841 424.893 220.989 424.858 221.131C424.849 221.171 424.835 221.211 424.818 221.25L424.003 223.687V223.695L423.996 223.713C423.983 223.758 423.977 223.805 423.976 223.852C423.974 223.914 423.986 223.975 424.01 224.034C424.034 224.092 424.07 224.145 424.116 224.19C424.162 224.235 424.217 224.271 424.278 224.296C424.339 224.321 424.405 224.335 424.472 224.336C424.559 224.336 424.644 224.315 424.718 224.273L424.805 224.213L426.938 222.707L426.985 222.673C427.103 222.597 427.243 222.555 427.387 222.554C427.531 222.553 427.672 222.591 427.792 222.665C427.818 222.681 427.844 222.698 427.867 222.718L429.988 224.219L430.048 224.262C430.126 224.307 430.216 224.331 430.308 224.331C430.375 224.329 430.441 224.315 430.502 224.29C430.563 224.265 430.618 224.229 430.664 224.184C430.709 224.139 430.745 224.086 430.769 224.028C430.793 223.97 430.805 223.908 430.803 223.846C430.803 223.797 430.795 223.749 430.78 223.702C430.78 223.695 430.775 223.687 430.772 223.678L429.954 221.233C429.94 221.201 429.93 221.169 429.922 221.135C429.907 221.078 429.899 221.02 429.899 220.961C429.899 220.853 429.923 220.747 429.972 220.649C430.02 220.551 430.091 220.465 430.18 220.395C430.198 220.381 430.217 220.368 430.236 220.355L432.361 218.852L432.425 218.805C432.481 218.759 432.525 218.703 432.555 218.639C432.585 218.576 432.6 218.508 432.599 218.439C432.6 218.324 432.556 218.212 432.476 218.124C432.395 218.037 432.284 217.98 432.162 217.963Z" fill="#F9C400"/>
<path d="M446.038 217.963H443.274V217.958C443.12 217.956 442.971 217.91 442.847 217.826C442.723 217.743 442.63 217.625 442.58 217.49C442.571 217.47 442.564 217.449 442.558 217.427L441.747 215.004L441.726 214.943C441.691 214.851 441.626 214.772 441.539 214.718C441.453 214.663 441.35 214.636 441.246 214.64C441.141 214.644 441.041 214.679 440.96 214.74C440.878 214.8 440.82 214.884 440.793 214.977L439.972 217.418C439.972 217.418 439.972 217.418 439.972 217.422C439.966 217.448 439.957 217.473 439.947 217.497C439.896 217.631 439.802 217.747 439.678 217.83C439.554 217.912 439.405 217.957 439.253 217.959V217.964H436.485C436.364 217.983 436.255 218.042 436.177 218.13C436.099 218.217 436.058 218.328 436.06 218.442C436.059 218.515 436.076 218.588 436.11 218.654C436.144 218.721 436.193 218.779 436.255 218.826L436.278 218.843L438.429 220.364C438.555 220.449 438.651 220.567 438.706 220.703C438.761 220.839 438.771 220.987 438.737 221.129C438.727 221.17 438.714 221.21 438.697 221.248L437.882 223.685V223.694L437.876 223.712C437.862 223.757 437.855 223.803 437.855 223.85C437.853 223.912 437.864 223.974 437.888 224.032C437.912 224.09 437.948 224.143 437.994 224.189C438.04 224.234 438.095 224.27 438.157 224.295C438.218 224.32 438.284 224.333 438.35 224.334C438.437 224.335 438.522 224.313 438.597 224.271L438.684 224.212L440.816 222.705L440.863 222.671C440.982 222.595 441.122 222.554 441.266 222.552C441.41 222.551 441.55 222.59 441.67 222.664C441.697 222.679 441.722 222.697 441.745 222.716L443.866 224.217L443.925 224.26C444.003 224.306 444.094 224.33 444.186 224.329C444.252 224.328 444.318 224.314 444.379 224.289C444.44 224.264 444.495 224.227 444.541 224.182C444.587 224.137 444.623 224.084 444.647 224.026C444.671 223.968 444.682 223.906 444.68 223.844C444.681 223.795 444.673 223.747 444.658 223.701C444.658 223.693 444.653 223.685 444.65 223.677L443.832 221.232C443.818 221.2 443.807 221.167 443.8 221.134C443.785 221.077 443.777 221.018 443.777 220.959C443.776 220.852 443.801 220.745 443.849 220.647C443.898 220.55 443.969 220.463 444.057 220.394C444.076 220.379 444.095 220.366 444.114 220.353L446.239 218.85L446.303 218.804C446.358 218.758 446.402 218.701 446.432 218.638C446.462 218.575 446.477 218.506 446.477 218.437C446.477 218.322 446.433 218.211 446.353 218.123C446.272 218.036 446.161 217.979 446.038 217.963Z" fill="#F9C400"/>
<rect width="84.75" height="28.7371" rx="3.06799" transform="matrix(-1 0 0 1 456.11 243.263)" fill="url(#paint11_linear_6291_17954)"/>
<path d="M390.505 256.327H387.741V256.322C387.587 256.32 387.438 256.274 387.314 256.19C387.19 256.107 387.096 255.989 387.046 255.854C387.038 255.834 387.031 255.812 387.025 255.791L386.213 253.367L386.193 253.307C386.159 253.215 386.093 253.136 386.007 253.082C385.92 253.027 385.818 253 385.713 253.004C385.609 253.008 385.509 253.043 385.427 253.104C385.346 253.164 385.287 253.247 385.261 253.341L384.44 255.782C384.44 255.783 384.44 255.785 384.44 255.786C384.433 255.812 384.425 255.837 384.415 255.861C384.364 255.995 384.27 256.111 384.146 256.194C384.021 256.276 383.873 256.321 383.72 256.322V256.328H380.953C380.833 256.347 380.724 256.406 380.646 256.494C380.568 256.581 380.526 256.692 380.528 256.806C380.528 256.879 380.545 256.952 380.579 257.018C380.613 257.085 380.662 257.143 380.723 257.19L380.746 257.206L382.894 258.729C382.997 258.798 383.08 258.888 383.137 258.992C383.194 259.097 383.223 259.212 383.222 259.33C383.222 259.384 383.215 259.438 383.202 259.491C383.193 259.532 383.18 259.572 383.163 259.611L382.348 262.048V262.056L382.342 262.074C382.329 262.119 382.322 262.165 382.322 262.212C382.32 262.274 382.331 262.336 382.355 262.394C382.379 262.452 382.415 262.506 382.461 262.551C382.507 262.596 382.562 262.632 382.623 262.657C382.685 262.682 382.75 262.696 382.817 262.697C382.904 262.697 382.989 262.675 383.064 262.634L383.15 262.574L385.283 261.067L385.33 261.033C385.448 260.957 385.588 260.915 385.732 260.914C385.876 260.913 386.017 260.952 386.137 261.026C386.163 261.042 386.188 261.059 386.212 261.079L388.332 262.58L388.392 262.623C388.47 262.668 388.56 262.692 388.653 262.691C388.719 262.69 388.785 262.676 388.846 262.651C388.907 262.626 388.962 262.59 389.008 262.545C389.054 262.5 389.09 262.446 389.114 262.388C389.138 262.33 389.149 262.269 389.147 262.206C389.147 262.158 389.14 262.109 389.125 262.063C389.125 262.055 389.119 262.047 389.118 262.039L388.299 259.594C388.286 259.562 388.275 259.529 388.267 259.496C388.233 259.362 388.239 259.223 388.285 259.092C388.331 258.962 388.415 258.845 388.528 258.757C388.546 258.742 388.565 258.729 388.584 258.717L390.709 257.214L390.773 257.167C390.829 257.121 390.873 257.064 390.903 257.001C390.933 256.938 390.948 256.869 390.947 256.8C390.947 256.685 390.902 256.573 390.821 256.486C390.74 256.399 390.628 256.343 390.505 256.327Z" fill="#F9C400"/>
<path d="M404.386 256.327H401.622V256.322C401.468 256.32 401.319 256.274 401.195 256.19C401.071 256.107 400.977 255.989 400.927 255.854C400.919 255.834 400.912 255.812 400.906 255.791L400.094 253.367L400.074 253.307C400.039 253.215 399.973 253.136 399.887 253.082C399.801 253.027 399.698 253 399.593 253.004C399.489 253.008 399.389 253.043 399.307 253.104C399.226 253.164 399.168 253.247 399.141 253.341L398.32 255.782C398.32 255.783 398.32 255.785 398.32 255.786C398.313 255.812 398.305 255.837 398.295 255.861C398.244 255.995 398.15 256.111 398.026 256.194C397.902 256.276 397.753 256.321 397.601 256.322V256.328H394.833C394.713 256.347 394.604 256.406 394.526 256.494C394.448 256.581 394.406 256.692 394.408 256.806C394.408 256.879 394.425 256.952 394.459 257.018C394.493 257.085 394.542 257.143 394.604 257.19L394.626 257.206L396.775 258.729C396.901 258.815 396.997 258.933 397.052 259.069C397.107 259.205 397.117 259.353 397.083 259.494C397.073 259.535 397.06 259.575 397.043 259.614L396.228 262.051V262.059L396.222 262.077C396.209 262.122 396.202 262.169 396.202 262.216C396.2 262.278 396.211 262.339 396.235 262.397C396.259 262.456 396.295 262.509 396.341 262.554C396.387 262.599 396.442 262.635 396.503 262.66C396.565 262.685 396.631 262.699 396.697 262.7C396.784 262.7 396.869 262.679 396.944 262.637L397.031 262.577L399.163 261.071L399.21 261.037C399.328 260.961 399.469 260.919 399.612 260.918C399.756 260.916 399.897 260.955 400.017 261.029C400.044 261.045 400.069 261.062 400.092 261.082L402.212 262.583L402.272 262.626C402.35 262.671 402.441 262.695 402.533 262.694C402.599 262.693 402.665 262.679 402.726 262.654C402.787 262.629 402.842 262.593 402.888 262.548C402.934 262.503 402.97 262.45 402.994 262.392C403.018 262.334 403.029 262.272 403.027 262.21C403.028 262.161 403.02 262.113 403.005 262.066C403.005 262.059 402.999 262.05 402.997 262.042L402.179 259.597C402.165 259.565 402.154 259.533 402.147 259.499C402.132 259.442 402.124 259.384 402.124 259.325C402.123 259.217 402.148 259.111 402.196 259.013C402.245 258.915 402.316 258.828 402.404 258.759C402.422 258.745 402.442 258.732 402.461 258.719L404.586 257.216L404.65 257.169C404.705 257.123 404.749 257.067 404.779 257.003C404.809 256.94 404.824 256.872 404.823 256.803C404.824 256.687 404.781 256.576 404.7 256.488C404.62 256.401 404.508 256.344 404.386 256.327Z" fill="#F9C400"/>
<path d="M418.266 256.327H415.501V256.322C415.348 256.32 415.199 256.274 415.075 256.19C414.951 256.107 414.857 255.989 414.807 255.854C414.799 255.834 414.791 255.812 414.786 255.791L413.974 253.367L413.953 253.307C413.919 253.215 413.853 253.136 413.767 253.082C413.68 253.027 413.578 253 413.473 253.004C413.369 253.008 413.269 253.043 413.187 253.104C413.106 253.164 413.047 253.247 413.021 253.341L412.2 255.782C412.2 255.782 412.2 255.782 412.2 255.786C412.193 255.812 412.185 255.837 412.175 255.861C412.124 255.995 412.03 256.111 411.906 256.194C411.781 256.276 411.633 256.321 411.48 256.322V256.328H408.713C408.593 256.347 408.484 256.406 408.406 256.494C408.328 256.581 408.286 256.692 408.288 256.806C408.287 256.879 408.304 256.952 408.338 257.019C408.372 257.085 408.422 257.144 408.483 257.19L408.506 257.206L410.654 258.729C410.78 258.815 410.877 258.933 410.932 259.069C410.986 259.205 410.997 259.353 410.962 259.494C410.953 259.535 410.94 259.575 410.923 259.614L410.108 262.051V262.059L410.102 262.077C410.088 262.122 410.082 262.169 410.082 262.216C410.08 262.278 410.091 262.339 410.115 262.397C410.139 262.456 410.175 262.509 410.221 262.554C410.267 262.599 410.322 262.635 410.383 262.66C410.444 262.685 410.51 262.699 410.577 262.7C410.664 262.7 410.749 262.679 410.824 262.637L410.91 262.577L413.043 261.071L413.09 261.037C413.208 260.961 413.348 260.919 413.492 260.918C413.636 260.916 413.777 260.955 413.897 261.029C413.923 261.045 413.948 261.062 413.972 261.082L416.092 262.583L416.152 262.626C416.23 262.671 416.32 262.695 416.413 262.694C416.479 262.693 416.545 262.679 416.606 262.654C416.667 262.629 416.722 262.593 416.768 262.548C416.814 262.503 416.85 262.45 416.874 262.392C416.898 262.334 416.909 262.272 416.907 262.21C416.907 262.161 416.9 262.113 416.885 262.066C416.885 262.059 416.879 262.05 416.878 262.042L416.059 259.597C416.046 259.565 416.035 259.533 416.027 259.499C416.012 259.442 416.005 259.384 416.005 259.325C416.004 259.217 416.029 259.111 416.077 259.013C416.125 258.915 416.196 258.828 416.285 258.759C416.303 258.745 416.322 258.732 416.341 258.719L418.466 257.216L418.531 257.169C418.587 257.123 418.631 257.067 418.661 257.003C418.691 256.94 418.706 256.872 418.705 256.803C418.706 256.687 418.662 256.575 418.581 256.488C418.501 256.4 418.389 256.343 418.266 256.327Z" fill="#F9C400"/>
<path d="M187.043 130.814C187.043 129.355 188.272 128.172 189.788 128.172H222.998C224.514 128.172 225.743 129.355 225.743 130.814V154.268C225.743 155.727 224.514 156.909 222.998 156.909H189.788C188.272 156.909 187.043 155.727 187.043 154.268V130.814Z" fill="url(#paint12_linear_6291_17954)"/>
<path fill-rule="evenodd" clip-rule="evenodd" d="M220.652 152.526L211.681 138.401L205.067 148.815L200.425 143.719L192.402 152.526H202.709H208.447H220.652Z" fill="white" fill-opacity="0.5"/>
<path d="M199.225 135.735C199.225 137.197 197.993 138.382 196.475 138.382C194.956 138.382 193.724 137.197 193.724 135.735C193.724 134.273 194.956 133.088 196.475 133.088C197.993 133.088 199.225 134.273 199.225 135.735Z" fill="white" fill-opacity="0.5"/>
<g filter="url(#filter0_d_6291_17954)">
<path d="M187.043 169.177C187.043 167.718 188.272 166.536 189.788 166.536H222.998C224.514 166.536 225.743 167.718 225.743 169.177V192.631C225.743 194.09 224.514 195.273 222.998 195.273H189.788C188.272 195.273 187.043 194.09 187.043 192.631V169.177Z" fill="url(#paint13_linear_6291_17954)"/>
</g>
<path fill-rule="evenodd" clip-rule="evenodd" d="M220.652 190.889L211.681 176.764L205.067 187.178L200.425 182.082L192.402 190.889H202.709H208.447H220.652Z" fill="white" fill-opacity="0.5"/>
<path d="M199.225 174.098C199.225 175.56 197.993 176.745 196.475 176.745C194.956 176.745 193.724 175.56 193.724 174.098C193.724 172.636 194.956 171.451 196.475 171.451C197.993 171.451 199.225 172.636 199.225 174.098Z" fill="white" fill-opacity="0.5"/>
<path d="M187.043 207.54C187.043 206.081 188.272 204.898 189.788 204.898H222.998C224.514 204.898 225.743 206.081 225.743 207.54V230.994C225.743 232.453 224.514 233.635 222.998 233.635H189.788C188.272 233.635 187.043 232.453 187.043 230.994V207.54Z" fill="url(#paint14_linear_6291_17954)"/>
<path fill-rule="evenodd" clip-rule="evenodd" d="M220.652 229.252L211.681 215.127L205.067 225.54L200.425 220.445L192.402 229.252H202.709H208.447H220.652Z" fill="white" fill-opacity="0.5"/>
<path d="M199.225 212.461C199.225 213.923 197.993 215.108 196.475 215.108C194.956 215.108 193.724 213.923 193.724 212.461C193.724 210.999 194.956 209.814 196.475 209.814C197.993 209.814 199.225 210.999 199.225 212.461Z" fill="white" fill-opacity="0.5"/>
<path d="M187.043 245.904C187.043 244.445 188.272 243.263 189.788 243.263H222.998C224.514 243.263 225.743 244.445 225.743 245.904V269.358C225.743 270.817 224.514 272 222.998 272H189.788C188.272 272 187.043 270.817 187.043 269.358V245.904Z" fill="url(#paint15_linear_6291_17954)"/>
<path fill-rule="evenodd" clip-rule="evenodd" d="M220.652 267.617L211.681 253.492L205.067 263.905L200.425 258.809L192.402 267.617H202.709H208.447H220.652Z" fill="white" fill-opacity="0.5"/>
<path d="M199.225 250.826C199.225 252.287 197.993 253.472 196.475 253.472C194.956 253.472 193.724 252.287 193.724 250.826C193.724 249.364 194.956 248.179 196.475 248.179C197.993 248.179 199.225 249.364 199.225 250.826Z" fill="white" fill-opacity="0.5"/>
<rect width="47.7328" height="28.7371" rx="3.06799" transform="matrix(-1 0 0 1 179.733 128.172)" fill="url(#paint16_linear_6291_17954)"/>
<path d="M161.714 140.124V139.575C161.714 139.18 161.8 138.821 161.971 138.497C162.142 138.174 162.399 137.915 162.741 137.72C163.084 137.525 163.51 137.427 164.019 137.427C164.542 137.427 164.975 137.525 165.317 137.72C165.66 137.915 165.914 138.174 166.081 138.497C166.252 138.821 166.337 139.18 166.337 139.575V140.124C166.337 140.509 166.252 140.864 166.081 141.187C165.914 141.511 165.66 141.77 165.317 141.965C164.979 142.16 164.554 142.258 164.04 142.258C163.522 142.258 163.091 142.16 162.749 141.965C162.406 141.77 162.147 141.511 161.971 141.187C161.8 140.864 161.714 140.509 161.714 140.124ZM163.255 139.575V140.124C163.255 140.267 163.284 140.402 163.341 140.531C163.398 140.659 163.483 140.764 163.598 140.845C163.717 140.921 163.862 140.959 164.033 140.959C164.209 140.959 164.352 140.921 164.461 140.845C164.57 140.764 164.651 140.659 164.704 140.531C164.761 140.402 164.789 140.267 164.789 140.124V139.575C164.789 139.423 164.761 139.282 164.704 139.154C164.651 139.025 164.568 138.923 164.454 138.847C164.34 138.766 164.195 138.726 164.019 138.726C163.852 138.726 163.712 138.766 163.598 138.847C163.483 138.923 163.398 139.025 163.341 139.154C163.284 139.282 163.255 139.423 163.255 139.575ZM166.644 145.968V145.418C166.644 145.028 166.73 144.671 166.901 144.348C167.077 144.025 167.336 143.765 167.679 143.57C168.026 143.375 168.454 143.278 168.963 143.278C169.486 143.278 169.917 143.375 170.254 143.57C170.597 143.765 170.851 144.025 171.018 144.348C171.189 144.671 171.275 145.028 171.275 145.418V145.968C171.275 146.358 171.189 146.714 171.018 147.038C170.851 147.361 170.599 147.621 170.262 147.816C169.924 148.011 169.498 148.108 168.984 148.108C168.466 148.108 168.033 148.011 167.686 147.816C167.339 147.621 167.077 147.361 166.901 147.038C166.73 146.714 166.644 146.358 166.644 145.968ZM168.192 145.418V145.968C168.192 146.115 168.228 146.253 168.299 146.381C168.371 146.51 168.466 146.614 168.585 146.695C168.704 146.771 168.835 146.81 168.977 146.81C169.196 146.81 169.358 146.771 169.462 146.695C169.572 146.614 169.643 146.51 169.676 146.381C169.715 146.253 169.734 146.115 169.734 145.968V145.418C169.734 145.271 169.705 145.133 169.648 145.004C169.591 144.876 169.505 144.774 169.391 144.698C169.277 144.617 169.134 144.576 168.963 144.576C168.792 144.576 168.649 144.617 168.535 144.698C168.421 144.774 168.335 144.876 168.278 145.004C168.221 145.133 168.192 145.271 168.192 145.418ZM169.562 139.068L164.489 147.188L163.369 146.624L168.442 138.505L169.562 139.068Z" fill="#76A5FF"/>
<rect x="139.798" y="140.836" width="16.5604" height="3.89655" rx="1.94828" fill="#76A5FF"/>
<rect width="47.7328" height="28.7371" rx="3.06799" transform="matrix(-1 0 0 1 179.733 166.536)" fill="url(#paint17_linear_6291_17954)"/>
<path d="M156.838 178.488V177.938C156.838 177.543 156.923 177.184 157.094 176.861C157.266 176.537 157.523 176.278 157.865 176.083C158.208 175.888 158.633 175.791 159.142 175.791C159.665 175.791 160.098 175.888 160.441 176.083C160.783 176.278 161.038 176.537 161.204 176.861C161.375 177.184 161.461 177.543 161.461 177.938V178.488C161.461 178.873 161.375 179.227 161.204 179.551C161.038 179.874 160.783 180.133 160.441 180.328C160.103 180.523 159.677 180.621 159.164 180.621C158.645 180.621 158.215 180.523 157.872 180.328C157.53 180.133 157.27 179.874 157.094 179.551C156.923 179.227 156.838 178.873 156.838 178.488ZM158.379 177.938V178.488C158.379 178.63 158.407 178.766 158.464 178.894C158.521 179.023 158.607 179.127 158.721 179.208C158.84 179.284 158.985 179.322 159.156 179.322C159.332 179.322 159.475 179.284 159.585 179.208C159.694 179.127 159.775 179.023 159.827 178.894C159.884 178.766 159.913 178.63 159.913 178.488V177.938C159.913 177.786 159.884 177.646 159.827 177.517C159.775 177.389 159.692 177.287 159.577 177.21C159.463 177.13 159.318 177.089 159.142 177.089C158.976 177.089 158.835 177.13 158.721 177.21C158.607 177.287 158.521 177.389 158.464 177.517C158.407 177.646 158.379 177.786 158.379 177.938ZM161.768 184.331V183.782C161.768 183.392 161.853 183.035 162.025 182.711C162.201 182.388 162.46 182.129 162.802 181.934C163.15 181.739 163.578 181.641 164.087 181.641C164.61 181.641 165.04 181.739 165.378 181.934C165.72 182.129 165.975 182.388 166.141 182.711C166.313 183.035 166.398 183.392 166.398 183.782V184.331C166.398 184.721 166.313 185.078 166.141 185.401C165.975 185.725 165.723 185.984 165.385 186.179C165.047 186.374 164.622 186.471 164.108 186.471C163.59 186.471 163.157 186.374 162.809 186.179C162.462 185.984 162.201 185.725 162.025 185.401C161.853 185.078 161.768 184.721 161.768 184.331ZM163.316 183.782V184.331C163.316 184.478 163.352 184.616 163.423 184.745C163.494 184.873 163.59 184.978 163.708 185.059C163.827 185.135 163.958 185.173 164.101 185.173C164.32 185.173 164.481 185.135 164.586 185.059C164.695 184.978 164.767 184.873 164.8 184.745C164.838 184.616 164.857 184.478 164.857 184.331V183.782C164.857 183.634 164.829 183.496 164.772 183.368C164.714 183.239 164.629 183.137 164.515 183.061C164.401 182.98 164.258 182.94 164.087 182.94C163.915 182.94 163.773 182.98 163.659 183.061C163.544 183.137 163.459 183.239 163.402 183.368C163.345 183.496 163.316 183.634 163.316 183.782ZM164.686 177.432L159.613 185.551L158.493 184.987L163.566 176.868L164.686 177.432Z" fill="#76A5FF"/>
<rect x="139.798" y="179.199" width="11.2026" height="3.89655" rx="1.94828" fill="#76A5FF"/>
<rect width="47.7328" height="28.7371" rx="3.06799" transform="matrix(-1 0 0 1 179.733 204.899)" fill="url(#paint18_linear_6291_17954)"/>
<path d="M160.737 216.85V216.301C160.737 215.906 160.823 215.547 160.994 215.224C161.165 214.9 161.422 214.641 161.765 214.446C162.107 214.251 162.533 214.153 163.042 214.153C163.565 214.153 163.998 214.251 164.34 214.446C164.683 214.641 164.937 214.9 165.104 215.224C165.275 215.547 165.361 215.906 165.361 216.301V216.85C165.361 217.236 165.275 217.59 165.104 217.913C164.937 218.237 164.683 218.496 164.34 218.691C164.003 218.886 163.577 218.984 163.063 218.984C162.545 218.984 162.114 218.886 161.772 218.691C161.429 218.496 161.17 218.237 160.994 217.913C160.823 217.59 160.737 217.236 160.737 216.85ZM162.278 216.301V216.85C162.278 216.993 162.307 217.129 162.364 217.257C162.421 217.385 162.507 217.49 162.621 217.571C162.74 217.647 162.885 217.685 163.056 217.685C163.232 217.685 163.375 217.647 163.484 217.571C163.593 217.49 163.674 217.385 163.727 217.257C163.784 217.129 163.812 216.993 163.812 216.85V216.301C163.812 216.149 163.784 216.008 163.727 215.88C163.674 215.752 163.591 215.649 163.477 215.573C163.363 215.492 163.218 215.452 163.042 215.452C162.875 215.452 162.735 215.492 162.621 215.573C162.507 215.649 162.421 215.752 162.364 215.88C162.307 216.008 162.278 216.149 162.278 216.301ZM165.667 222.694V222.144C165.667 221.754 165.753 221.398 165.924 221.074C166.1 220.751 166.359 220.491 166.702 220.296C167.049 220.101 167.477 220.004 167.986 220.004C168.509 220.004 168.94 220.101 169.278 220.296C169.62 220.491 169.875 220.751 170.041 221.074C170.212 221.398 170.298 221.754 170.298 222.144V222.694C170.298 223.084 170.212 223.44 170.041 223.764C169.875 224.087 169.622 224.347 169.285 224.542C168.947 224.737 168.521 224.834 168.008 224.834C167.489 224.834 167.056 224.737 166.709 224.542C166.362 224.347 166.1 224.087 165.924 223.764C165.753 223.44 165.667 223.084 165.667 222.694ZM167.216 222.144V222.694C167.216 222.841 167.251 222.979 167.323 223.107C167.394 223.236 167.489 223.341 167.608 223.421C167.727 223.498 167.858 223.536 168 223.536C168.219 223.536 168.381 223.498 168.486 223.421C168.595 223.341 168.666 223.236 168.7 223.107C168.738 222.979 168.757 222.841 168.757 222.694V222.144C168.757 221.997 168.728 221.859 168.671 221.73C168.614 221.602 168.528 221.5 168.414 221.424C168.3 221.343 168.157 221.302 167.986 221.302C167.815 221.302 167.672 221.343 167.558 221.424C167.444 221.5 167.358 221.602 167.301 221.73C167.244 221.859 167.216 221.997 167.216 222.144ZM168.585 215.794L163.513 223.914L162.392 223.35L167.465 215.231L168.585 215.794Z" fill="#76A5FF"/>
<rect x="139.798" y="217.562" width="14.125" height="3.89655" rx="1.94828" fill="#76A5FF"/>
<rect width="47.7328" height="28.7371" rx="3.06799" transform="matrix(-1 0 0 1 179.733 243.263)" fill="url(#paint19_linear_6291_17954)"/>
<path d="M154.405 255.215V254.665C154.405 254.27 154.491 253.911 154.662 253.588C154.833 253.264 155.09 253.005 155.433 252.81C155.775 252.615 156.201 252.518 156.71 252.518C157.233 252.518 157.666 252.615 158.008 252.81C158.351 253.005 158.605 253.264 158.772 253.588C158.943 253.911 159.029 254.27 159.029 254.665V255.215C159.029 255.6 158.943 255.954 158.772 256.278C158.605 256.601 158.351 256.86 158.008 257.055C157.671 257.25 157.245 257.348 156.731 257.348C156.213 257.348 155.782 257.25 155.44 257.055C155.097 256.86 154.838 256.601 154.662 256.278C154.491 255.954 154.405 255.6 154.405 255.215ZM155.946 254.665V255.215C155.946 255.357 155.975 255.493 156.032 255.621C156.089 255.75 156.175 255.854 156.289 255.935C156.408 256.011 156.553 256.049 156.724 256.049C156.9 256.049 157.043 256.011 157.152 255.935C157.262 255.854 157.342 255.75 157.395 255.621C157.452 255.493 157.48 255.357 157.48 255.215V254.665C157.48 254.513 157.452 254.373 157.395 254.244C157.342 254.116 157.259 254.014 157.145 253.937C157.031 253.857 156.886 253.816 156.71 253.816C156.543 253.816 156.403 253.857 156.289 253.937C156.175 254.014 156.089 254.116 156.032 254.244C155.975 254.373 155.946 254.513 155.946 254.665ZM159.335 261.058V260.509C159.335 260.119 159.421 259.762 159.592 259.438C159.768 259.115 160.028 258.856 160.37 258.661C160.717 258.466 161.145 258.368 161.654 258.368C162.178 258.368 162.608 258.466 162.946 258.661C163.288 258.856 163.543 259.115 163.709 259.438C163.88 259.762 163.966 260.119 163.966 260.509V261.058C163.966 261.448 163.88 261.805 163.709 262.128C163.543 262.452 163.291 262.711 162.953 262.906C162.615 263.101 162.189 263.198 161.676 263.198C161.157 263.198 160.724 263.101 160.377 262.906C160.03 262.711 159.768 262.452 159.592 262.128C159.421 261.805 159.335 261.448 159.335 261.058ZM160.884 260.509V261.058C160.884 261.205 160.919 261.343 160.991 261.472C161.062 261.6 161.157 261.705 161.276 261.786C161.395 261.862 161.526 261.9 161.669 261.9C161.887 261.9 162.049 261.862 162.154 261.786C162.263 261.705 162.334 261.6 162.368 261.472C162.406 261.343 162.425 261.205 162.425 261.058V260.509C162.425 260.361 162.396 260.223 162.339 260.095C162.282 259.966 162.197 259.864 162.082 259.788C161.968 259.707 161.826 259.667 161.654 259.667C161.483 259.667 161.34 259.707 161.226 259.788C161.112 259.864 161.026 259.966 160.969 260.095C160.912 260.223 160.884 260.361 160.884 260.509ZM162.254 254.159L157.181 262.278L156.061 261.714L161.133 253.595L162.254 254.159Z" fill="#76A5FF"/>
<rect x="139.798" y="255.925" width="11.2026" height="3.89655" rx="1.94828" fill="#76A5FF"/>
<path opacity="0.5" d="M432.744 256.625H429.747V256.619C429.58 256.617 429.419 256.567 429.284 256.477C429.149 256.386 429.048 256.259 428.994 256.112C428.985 256.09 428.977 256.067 428.97 256.044L428.091 253.416L428.068 253.35C428.03 253.25 427.959 253.165 427.866 253.106C427.772 253.047 427.66 253.017 427.547 253.021C427.434 253.025 427.326 253.063 427.237 253.129C427.149 253.195 427.086 253.285 427.056 253.387L426.166 256.034C426.166 256.035 426.166 256.037 426.166 256.039C426.159 256.066 426.15 256.093 426.139 256.12C426.084 256.265 425.982 256.391 425.847 256.48C425.713 256.57 425.552 256.619 425.386 256.62V256.626H422.386C422.255 256.647 422.137 256.711 422.052 256.806C421.968 256.901 421.922 257.021 421.925 257.144C421.924 257.224 421.942 257.303 421.979 257.375C422.016 257.447 422.069 257.51 422.136 257.56L422.161 257.579L424.491 259.23C424.627 259.322 424.732 259.451 424.791 259.598C424.851 259.746 424.862 259.906 424.825 260.06C424.814 260.104 424.8 260.147 424.781 260.189L423.898 262.832V262.841L423.89 262.86C423.876 262.909 423.869 262.96 423.869 263.01C423.866 263.078 423.879 263.145 423.905 263.208C423.931 263.271 423.97 263.329 424.02 263.377C424.07 263.426 424.129 263.465 424.196 263.492C424.262 263.52 424.333 263.534 424.406 263.536C424.5 263.536 424.592 263.513 424.673 263.468L424.767 263.403L427.08 261.769L427.131 261.732C427.259 261.649 427.411 261.604 427.567 261.603C427.723 261.602 427.876 261.644 428.006 261.724C428.035 261.741 428.062 261.76 428.088 261.781L430.387 263.409L430.452 263.455C430.537 263.505 430.635 263.53 430.735 263.53C430.807 263.528 430.878 263.513 430.944 263.486C431.01 263.459 431.07 263.419 431.12 263.371C431.17 263.322 431.209 263.264 431.235 263.201C431.261 263.138 431.273 263.071 431.271 263.004C431.271 262.951 431.263 262.899 431.246 262.848C431.246 262.84 431.241 262.831 431.238 262.823L430.351 260.171C430.336 260.136 430.324 260.101 430.316 260.065C430.3 260.003 430.292 259.939 430.291 259.876C430.291 259.759 430.317 259.643 430.37 259.537C430.422 259.431 430.499 259.337 430.595 259.262C430.615 259.247 430.636 259.233 430.657 259.219L432.961 257.589L433.03 257.538C433.09 257.488 433.138 257.427 433.171 257.358C433.203 257.29 433.22 257.216 433.219 257.141C433.22 257.016 433.172 256.894 433.085 256.8C432.998 256.705 432.877 256.643 432.744 256.625Z" fill="#D2DCE4"/>
<path opacity="0.5" d="M446.412 256.625H443.415V256.619C443.248 256.617 443.087 256.567 442.952 256.477C442.817 256.386 442.716 256.259 442.662 256.112C442.653 256.09 442.645 256.067 442.638 256.044L441.759 253.416L441.736 253.35C441.698 253.25 441.627 253.165 441.534 253.106C441.44 253.047 441.328 253.017 441.215 253.021C441.102 253.025 440.994 253.063 440.905 253.129C440.817 253.195 440.754 253.285 440.725 253.387L439.834 256.034C439.835 256.035 439.835 256.037 439.834 256.039C439.827 256.066 439.818 256.093 439.807 256.12C439.752 256.265 439.65 256.391 439.515 256.48C439.381 256.57 439.22 256.619 439.054 256.62V256.626H436.054C435.923 256.647 435.805 256.711 435.72 256.806C435.636 256.901 435.591 257.021 435.593 257.144C435.592 257.224 435.61 257.303 435.647 257.375C435.684 257.447 435.738 257.51 435.804 257.56L435.829 257.579L438.159 259.23C438.295 259.322 438.4 259.451 438.459 259.598C438.519 259.746 438.53 259.906 438.493 260.06C438.482 260.104 438.468 260.147 438.449 260.189L437.566 262.832V262.841L437.558 262.86C437.544 262.909 437.537 262.96 437.537 263.01C437.535 263.078 437.547 263.145 437.573 263.208C437.599 263.271 437.638 263.329 437.688 263.377C437.738 263.426 437.797 263.465 437.864 263.492C437.93 263.52 438.001 263.534 438.074 263.536C438.168 263.536 438.26 263.513 438.341 263.468L438.435 263.403L440.748 261.769L440.799 261.732C440.927 261.649 441.079 261.604 441.235 261.603C441.391 261.602 441.544 261.644 441.674 261.724C441.703 261.741 441.73 261.76 441.756 261.781L444.055 263.409L444.12 263.455C444.205 263.505 444.303 263.53 444.403 263.53C444.475 263.528 444.546 263.513 444.612 263.486C444.679 263.459 444.738 263.419 444.788 263.371C444.838 263.322 444.877 263.264 444.903 263.201C444.929 263.138 444.941 263.071 444.939 263.004C444.939 262.951 444.931 262.899 444.914 262.848C444.914 262.84 444.909 262.831 444.906 262.823L444.019 260.171C444.004 260.136 443.992 260.101 443.984 260.065C443.968 260.003 443.96 259.939 443.959 259.876C443.959 259.759 443.985 259.643 444.038 259.537C444.09 259.431 444.167 259.337 444.263 259.262C444.283 259.247 444.304 259.233 444.325 259.219L446.629 257.589L446.698 257.538C446.759 257.488 446.806 257.427 446.839 257.358C446.871 257.29 446.888 257.216 446.887 257.141C446.888 257.016 446.841 256.894 446.753 256.8C446.666 256.705 446.545 256.643 446.412 256.625Z" fill="#D2DCE4"/>
<defs>
<filter id="filter0_d_6291_17954" x="182.043" y="161.536" width="58.6993" height="48.7371" filterUnits="userSpaceOnUse" color-interpolation-filters="sRGB">
<feFlood flood-opacity="0" result="BackgroundImageFix"/>
<feColorMatrix in="SourceAlpha" type="matrix" values="0 0 0 0 0 0 0 0 0 0 0 0 0 0 0 0 0 0 127 0" result="hardAlpha"/>
<feOffset dx="5" dy="5"/>
<feGaussianBlur stdDeviation="5"/>
<feColorMatrix type="matrix" values="0 0 0 0 0.0941177 0 0 0 0 0.188235 0 0 0 0 0.247059 0 0 0 0.15 0"/>
<feBlend mode="normal" in2="BackgroundImageFix" result="effect1_dropShadow_6291_17954"/>
<feBlend mode="normal" in="SourceGraphic" in2="effect1_dropShadow_6291_17954" result="shape"/>
</filter>
<linearGradient id="paint0_linear_6291_17954" x1="5.74863" y1="1.3377e-07" x2="46.4502" y2="47.6378" gradientUnits="userSpaceOnUse">
<stop stop-color="#0C2966"/>
<stop offset="1" stop-color="#0045C9"/>
</linearGradient>
<linearGradient id="paint1_linear_6291_17954" x1="5.74863" y1="1.3377e-07" x2="46.4502" y2="47.6378" gradientUnits="userSpaceOnUse">
<stop stop-color="#0C2966"/>
<stop offset="1" stop-color="#0045C9"/>
</linearGradient>
<linearGradient id="paint2_linear_6291_17954" x1="5.74863" y1="1.3377e-07" x2="46.4502" y2="47.6378" gradientUnits="userSpaceOnUse">
<stop stop-color="#0C2966"/>
<stop offset="1" stop-color="#0045C9"/>
</linearGradient>
<linearGradient id="paint3_linear_6291_17954" x1="5.74863" y1="1.3377e-07" x2="46.4502" y2="47.6378" gradientUnits="userSpaceOnUse">
<stop stop-color="#0C2966"/>
<stop offset="1" stop-color="#0045C9"/>
</linearGradient>
<linearGradient id="paint4_linear_6291_17954" x1="5.05058" y1="1.3377e-07" x2="46.2411" y2="42.356" gradientUnits="userSpaceOnUse">
<stop stop-color="#0C2966"/>
<stop offset="1" stop-color="#0045C9"/>
</linearGradient>
<linearGradient id="paint5_linear_6291_17954" x1="5.05058" y1="1.3377e-07" x2="46.2411" y2="42.356" gradientUnits="userSpaceOnUse">
<stop stop-color="#0C2966"/>
<stop offset="1" stop-color="#0045C9"/>
</linearGradient>
<linearGradient id="paint6_linear_6291_17954" x1="5.05058" y1="1.3377e-07" x2="46.2411" y2="42.356" gradientUnits="userSpaceOnUse">
<stop stop-color="#0C2966"/>
<stop offset="1" stop-color="#0045C9"/>
</linearGradient>
<linearGradient id="paint7_linear_6291_17954" x1="5.05058" y1="1.3377e-07" x2="46.2411" y2="42.356" gradientUnits="userSpaceOnUse">
<stop stop-color="#0C2966"/>
<stop offset="1" stop-color="#0045C9"/>
</linearGradient>
<linearGradient id="paint8_linear_6291_17954" x1="7.14472" y1="1.3377e-07" x2="45.6177" y2="55.9651" gradientUnits="userSpaceOnUse">
<stop stop-color="#0C2966"/>
<stop offset="1" stop-color="#0045C9"/>
</linearGradient>
<linearGradient id="paint9_linear_6291_17954" x1="7.14472" y1="1.3377e-07" x2="45.6177" y2="55.9651" gradientUnits="userSpaceOnUse">
<stop stop-color="#0C2966"/>
<stop offset="1" stop-color="#0045C9"/>
</linearGradient>
<linearGradient id="paint10_linear_6291_17954" x1="7.14472" y1="1.3377e-07" x2="45.6177" y2="55.9651" gradientUnits="userSpaceOnUse">
<stop stop-color="#0C2966"/>
<stop offset="1" stop-color="#0045C9"/>
</linearGradient>
<linearGradient id="paint11_linear_6291_17954" x1="7.14472" y1="1.3377e-07" x2="45.6177" y2="55.9651" gradientUnits="userSpaceOnUse">
<stop stop-color="#0C2966"/>
<stop offset="1" stop-color="#0045C9"/>
</linearGradient>
<linearGradient id="paint12_linear_6291_17954" x1="190.306" y1="128.172" x2="228.289" y2="153.402" gradientUnits="userSpaceOnUse">
<stop stop-color="#0C2966"/>
<stop offset="1" stop-color="#0045C9"/>
</linearGradient>
<linearGradient id="paint13_linear_6291_17954" x1="190.306" y1="166.536" x2="228.289" y2="191.766" gradientUnits="userSpaceOnUse">
<stop stop-color="#0C2966"/>
<stop offset="1" stop-color="#0045C9"/>
</linearGradient>
<linearGradient id="paint14_linear_6291_17954" x1="190.306" y1="204.898" x2="228.289" y2="230.128" gradientUnits="userSpaceOnUse">
<stop stop-color="#0C2966"/>
<stop offset="1" stop-color="#0045C9"/>
</linearGradient>
<linearGradient id="paint15_linear_6291_17954" x1="190.306" y1="243.263" x2="228.289" y2="268.493" gradientUnits="userSpaceOnUse">
<stop stop-color="#0C2966"/>
<stop offset="1" stop-color="#0045C9"/>
</linearGradient>
<linearGradient id="paint16_linear_6291_17954" x1="4.02404" y1="1.3377e-07" x2="44.4255" y2="33.1005" gradientUnits="userSpaceOnUse">
<stop stop-color="#0C2966"/>
<stop offset="1" stop-color="#0045C9"/>
</linearGradient>
<linearGradient id="paint17_linear_6291_17954" x1="4.02404" y1="1.3377e-07" x2="44.4255" y2="33.1005" gradientUnits="userSpaceOnUse">
<stop stop-color="#0C2966"/>
<stop offset="1" stop-color="#0045C9"/>
</linearGradient>
<linearGradient id="paint18_linear_6291_17954" x1="4.02404" y1="1.3377e-07" x2="44.4255" y2="33.1005" gradientUnits="userSpaceOnUse">
<stop stop-color="#0C2966"/>
<stop offset="1" stop-color="#0045C9"/>
</linearGradient>
<linearGradient id="paint19_linear_6291_17954" x1="4.02404" y1="1.3377e-07" x2="44.4255" y2="33.1005" gradientUnits="userSpaceOnUse">
<stop stop-color="#0C2966"/>
<stop offset="1" stop-color="#0045C9"/>
</linearGradient>
<clipPath id="clip0_6291_17954">
<path d="M191.901 43.4837C191.901 41.0074 193.909 39 196.385 39H391.156C393.633 39 395.64 41.0074 395.64 43.4837V156.091H191.901V43.4837Z" fill="white"/>
</clipPath>
<clipPath id="clip1_6291_17954">
<path d="M175.16 54.6303C175.16 52.154 177.168 50.1466 179.644 50.1466H407.915C410.392 50.1466 412.399 52.154 412.399 54.6303V186.491H175.16V54.6303Z" fill="white"/>
</clipPath>
<clipPath id="clip2_6291_17954">
<path d="M160.176 68.9502C160.176 66.1202 162.47 63.826 165.3 63.826H422.265C425.095 63.826 427.389 66.1202 427.389 68.9502V217.397H160.176V68.9502Z" fill="white"/>
</clipPath>
<clipPath id="clip3_6291_17954">
<path d="M143.612 86.4446C143.612 82.907 146.48 80.0393 150.017 80.0393H437.535C441.072 80.0393 443.94 82.907 443.94 86.4446V252.642H143.612V86.4446Z" fill="white"/>
</clipPath>
</defs>
</svg>
