<svg width="589" height="577" viewBox="0 0 589 577" fill="none" xmlns="http://www.w3.org/2000/svg">
<g style="mix-blend-mode:screen" opacity="0.8" filter="url(#filter0_f_6376_29708)">
<ellipse cx="151" cy="298" rx="63" ry="87" fill="#9E98FC"/>
</g>
<g clip-path="url(#clip0_6376_29708)">
<g filter="url(#filter1_d_6376_29708)">
<g filter="url(#filter2_d_6376_29708)">
<path d="M71.6484 204.769H279.192V325.183C279.192 327.887 277.001 330.078 274.297 330.078H76.5433C73.8399 330.078 71.6484 327.887 71.6484 325.183V204.769Z" fill="url(#paint0_linear_6376_29708)"/>
</g>
<path d="M191.718 217.495H105.912V220.991H191.718V217.495Z" fill="#0B88CD"/>
<path d="M228.919 293.856H143.113V297.352H228.919V293.856Z" fill="#FFC0E0"/>
<path d="M94.0094 217.495H88.3828V220.991H94.0094V217.495Z" fill="white" fill-opacity="0.2"/>
<path d="M94.0094 293.856H88.3828V297.352H94.0094V293.856Z" fill="#FFC0E0"/>
<path d="M222.018 225.188H136.213V228.684H222.018V225.188Z" fill="#FFC0E0"/>
<path d="M257.26 301.548H171.455V305.044H257.26V301.548Z" fill="#FFC0E0"/>
<path d="M244.524 225.188H227.645V228.684H244.524V225.188Z" fill="#0B88CD"/>
<path d="M167.825 301.548H150.945V305.044H167.825V301.548Z" fill="#B431D2"/>
<path d="M167.159 232.879H136.213V236.375H167.159V232.879Z" fill="#B431D2"/>
<path d="M153.503 309.24H122.557V312.736H153.503V309.24Z" fill="#FFC0E0"/>
<path d="M196.696 232.879H174.189V236.375H196.696V232.879Z" fill="#0B88CD"/>
<path d="M183.038 309.24H160.531V312.736H183.038V309.24Z" fill="#0B88CD"/>
<path d="M236.081 232.879H203.729V236.375H236.081V232.879Z" fill="#FFC0E0"/>
<path d="M222.425 309.24H190.072V312.736H222.425V309.24Z" fill="#FFC0E0"/>
<path d="M227.635 240.571H165.742V244.067H227.635V240.571Z" fill="#FFC0E0"/>
<path d="M264.957 316.932H203.064V320.428H264.957V316.932Z" fill="#FFC0E0"/>
<path d="M158.714 240.571H148.867V244.067H158.714V240.571Z" fill="#0B88CD"/>
<path d="M196.036 316.932H186.189V320.428H196.036V316.932Z" fill="#0B88CD"/>
<path d="M196.814 248.264H148.988V251.76H196.814V248.264Z" fill="#FFC0E0"/>
<path d="M94.0094 225.188H88.3828V228.684H94.0094V225.188Z" fill="white" fill-opacity="0.2"/>
<path d="M94.0094 301.548H88.3828V305.044H94.0094V301.548Z" fill="#FFC0E0"/>
<path d="M94.0094 232.879H88.3828V236.375H94.0094V232.879Z" fill="white" fill-opacity="0.2"/>
<path d="M94.0094 309.24H88.3828V312.736H94.0094V309.24Z" fill="#FFC0E0"/>
<path d="M94.0094 240.572H88.3828V244.068H94.0094V240.572Z" fill="white" fill-opacity="0.2"/>
<path d="M94.0094 316.932H88.3828V320.428H94.0094V316.932Z" fill="#FFC0E0"/>
<path d="M94.0094 248.263H88.3828V251.759H94.0094V248.263Z" fill="#FFC0E0"/>
<path d="M218.151 255.676H132.346V259.172H218.151V255.676Z" fill="#0B88CD"/>
<path d="M94.0094 255.676H88.3828V259.172H94.0094V255.676Z" fill="#FFC0E0"/>
<path d="M222.018 263.368H136.213V266.864H222.018V263.368Z" fill="#FFC0E0"/>
<path d="M244.524 263.368H227.645V266.864H244.524V263.368Z" fill="#B431D2"/>
<path d="M167.159 271.06H136.213V274.556H167.159V271.06Z" fill="#B431D2"/>
<path d="M196.696 271.06H174.189V274.556H196.696V271.06Z" fill="#0B88CD"/>
<path d="M236.081 271.06H203.729V274.556H236.081V271.06Z" fill="#FFC0E0"/>
<path d="M227.635 278.751H165.742V282.247H227.635V278.751Z" fill="#FFC0E0"/>
<path d="M158.714 278.751H148.867V282.247H158.714V278.751Z" fill="#0B88CD"/>
<path d="M162.931 286.443H115.105V289.939H162.931V286.443Z" fill="#FFC0E0"/>
<path d="M94.0094 263.368H88.3828V266.864H94.0094V263.368Z" fill="#FFC0E0"/>
<path d="M94.0094 271.06H88.3828V274.556H94.0094V271.06Z" fill="#FFC0E0"/>
<path d="M94.0094 278.752H88.3828V282.248H94.0094V278.752Z" fill="#FFC0E0"/>
<path d="M94.0094 286.444H88.3828V289.94H94.0094V286.444Z" fill="#FFC0E0"/>
<g filter="url(#filter3_bd_6376_29708)">
<path d="M71.6484 198.895C71.6484 196.192 73.8399 194 76.5433 194H274.297C277.001 194 279.192 196.192 279.192 198.895V204.769H71.6484V198.895Z" fill="url(#paint1_linear_6376_29708)"/>
</g>
<path d="M81.6192 199.438C81.6202 199.842 81.5009 200.237 81.2765 200.574C81.0521 200.91 80.7326 201.172 80.3584 201.328C79.9843 201.483 79.5724 201.524 79.1748 201.446C78.7773 201.368 78.4119 201.174 78.125 200.888C77.8381 200.603 77.6426 200.239 77.5632 199.843C77.4837 199.447 77.524 199.036 77.6789 198.662C77.8337 198.289 78.0962 197.969 78.4331 197.745C78.7699 197.52 79.1661 197.4 79.5713 197.4C80.1124 197.404 80.6303 197.62 81.0134 198.001C81.3965 198.382 81.6141 198.898 81.6192 199.438Z" fill="white"/>
<path d="M90.2364 199.438C90.2374 199.842 90.118 200.238 89.8933 200.575C89.6687 200.911 89.3489 201.174 88.9745 201.329C88.6001 201.484 88.1879 201.525 87.7902 201.446C87.3925 201.368 87.0271 201.173 86.7404 200.887C86.4537 200.601 86.2586 200.237 86.1797 199.84C86.1009 199.444 86.1418 199.033 86.2975 198.659C86.4531 198.286 86.7163 197.967 87.0538 197.743C87.3914 197.519 87.788 197.4 88.1934 197.401C88.4621 197.4 88.7283 197.451 88.9768 197.553C89.2253 197.655 89.451 197.805 89.641 197.995C89.8309 198.184 89.9814 198.409 90.0836 198.657C90.1858 198.905 90.2377 199.17 90.2364 199.438Z" fill="white"/>
<path d="M99.0606 199.438C99.0616 199.842 98.9423 200.238 98.7179 200.574C98.4935 200.91 98.174 201.173 97.7999 201.328C97.4257 201.484 97.0138 201.525 96.6162 201.446C96.2187 201.368 95.8533 201.174 95.5664 200.889C95.2795 200.603 95.084 200.24 95.0046 199.843C94.9251 199.447 94.9654 199.036 95.1203 198.663C95.2751 198.289 95.5376 197.97 95.8745 197.745C96.2114 197.521 96.6075 197.401 97.0127 197.401C97.5538 197.405 98.0717 197.62 98.4548 198.002C98.8379 198.383 99.0555 198.899 99.0606 199.438Z" fill="white"/>
</g>
<path d="M22.9473 275.827C22.9473 271.901 26.13 268.718 30.0561 268.718H229.044V380.691H22.9473V275.827Z" fill="white" stroke="#D2DCE4" stroke-width="0.779869"/>
<path d="M226.06 291.874C226.06 291.045 225.389 290.374 224.56 290.374C223.732 290.374 223.061 291.045 223.061 291.874V303.872C223.061 304.7 223.732 305.371 224.56 305.371C225.389 305.371 226.06 304.7 226.06 303.872V291.874Z" fill="#D2DCE4"/>
<mask id="mask0_6376_29708" style="mask-type:alpha" maskUnits="userSpaceOnUse" x="21" y="267" width="200" height="115">
<path d="M220.609 267.348H21.5762V381.081H220.609V267.348Z" fill="#D9D9D9"/>
</mask>
<g mask="url(#mask0_6376_29708)">
<path d="M22.0919 282.875L22.0918 267.877H37.0893V282.875H22.0919Z" fill="white" stroke="#D2DCE4" stroke-width="0.774263"/>
<path d="M22.0919 297.863L22.0918 282.865H37.0893V297.863H22.0919Z" fill="white" stroke="#D2DCE4" stroke-width="0.774263"/>
<path d="M22.0919 357.856L22.0918 342.859H37.0893V357.856H22.0919Z" fill="white" stroke="#D2DCE4" stroke-width="0.774263"/>
<path d="M22.0919 327.866L22.0918 312.869H37.0893V327.866H22.0919Z" fill="white" stroke="#D2DCE4" stroke-width="0.774263"/>
<path d="M22.0919 387.846L22.0918 372.849H37.0893V387.846H22.0919Z" fill="white" stroke="#D2DCE4" stroke-width="0.774263"/>
<path d="M22.0919 312.865L22.0918 297.867H37.0893V312.865H22.0919Z" fill="white" stroke="#D2DCE4" stroke-width="0.774263"/>
<path d="M22.0919 372.858L22.0918 357.861H37.0893V372.858H22.0919Z" fill="white" stroke="#D2DCE4" stroke-width="0.774263"/>
<path d="M22.0919 342.854L22.0918 327.857H37.0893V342.854H22.0919Z" fill="white" stroke="#D2DCE4" stroke-width="0.774263"/>
<path d="M27.7037 293.671V289.445H25.9824V290.125H26.7481V293.671H27.7037ZM32.1495 293.671V292.906H30.1893L31.0653 292.115C31.4022 291.815 31.9535 291.374 31.9535 290.633C31.9535 289.892 31.3715 289.383 30.4159 289.383C29.4604 289.383 28.9397 289.953 28.8846 290.082L29.3011 290.731C29.5339 290.437 29.9014 290.161 30.3241 290.161C30.7406 290.161 31.004 290.394 31.004 290.756C31.004 291.117 30.7651 291.393 30.3669 291.754L28.9336 293.047L29.0499 293.671H32.1495Z" fill="#303B45"/>
<path d="M27.7037 353.665V349.438H25.9824V350.118H26.7481V353.665H27.7037ZM32.174 352.226C32.174 351.392 31.5308 350.933 30.8754 350.933C30.2199 350.933 29.9259 351.239 29.8095 351.368C29.8095 350.902 29.9688 350.553 30.1464 350.376C30.3118 350.216 30.4956 350.124 30.7712 350.124C31.1143 350.124 31.4757 350.278 31.6778 350.437L32.0392 349.788C31.7329 349.573 31.3042 349.377 30.7283 349.377C30.1709 349.377 29.7605 349.555 29.4359 349.898C29.0867 350.259 28.8723 350.847 28.8723 351.607C28.8723 352.287 29.0254 352.734 29.2337 353.028C29.4542 353.347 29.883 353.732 30.5936 353.732C31.5798 353.732 32.174 353.059 32.174 352.226ZM31.2368 352.293C31.2368 352.667 30.9917 352.991 30.563 352.991C30.128 352.991 29.8769 352.667 29.8769 352.293C29.8769 351.925 30.128 351.595 30.563 351.595C30.9917 351.595 31.2368 351.925 31.2368 352.293Z" fill="#303B45"/>
<path d="M27.7037 323.675V319.449H25.9824V320.129H26.7481V323.675H27.7037ZM32.2842 322.83V322.064H31.7207V319.436H30.6242L28.7069 322.107V322.83H30.7651V323.675H31.7207V322.83H32.2842ZM30.7896 322.083H29.6074L30.7896 320.447V322.083Z" fill="#303B45"/>
<path d="M27.7037 383.655V379.428H25.9824V380.108H26.7481V383.655H27.7037ZM32.1066 382.461C32.1066 381.946 31.8064 381.597 31.347 381.456V381.438C31.6533 381.333 31.9841 381.082 31.9841 380.531C31.9841 379.765 31.2919 379.367 30.4895 379.367C29.6809 379.367 28.9887 379.765 28.9887 380.531C28.9887 381.076 29.3256 381.327 29.6319 381.438V381.45C29.1663 381.597 28.8723 381.946 28.8723 382.461C28.8723 383.3 29.6074 383.722 30.4895 383.722C31.3715 383.722 32.1066 383.3 32.1066 382.461ZM31.0469 380.604C31.0469 380.929 30.8141 381.113 30.4895 381.113C30.1587 381.113 29.932 380.929 29.932 380.604C29.932 380.274 30.1587 380.09 30.4895 380.09C30.8141 380.09 31.0469 380.274 31.0469 380.604ZM31.1449 382.369C31.1449 382.748 30.8509 382.969 30.4895 382.969C30.128 382.969 29.834 382.748 29.834 382.369C29.834 381.989 30.1158 381.768 30.4895 381.768C30.857 381.768 31.1449 381.989 31.1449 382.369Z" fill="#303B45"/>
<path d="M27.7037 308.367V304.141H25.9824V304.82H26.7481V308.367H27.7037ZM32.0637 307.13C32.0637 306.579 31.6778 306.242 31.3225 306.15V306.131C31.6043 306.015 31.929 305.77 31.929 305.206C31.929 304.496 31.2245 304.079 30.4588 304.079C29.687 304.079 29.295 304.349 29.0009 304.606L29.3685 305.231C29.7115 304.955 30.0423 304.82 30.3792 304.82C30.7161 304.82 30.9917 304.986 30.9917 305.317C30.9917 305.647 30.759 305.813 30.4282 305.813H30.0545V306.505H30.4282C30.808 306.505 31.102 306.701 31.102 307.075C31.102 307.454 30.7774 307.669 30.3608 307.669C29.9504 307.669 29.4971 307.35 29.3256 307.142L28.8723 307.73C29.0193 307.945 29.54 308.435 30.4159 308.435C31.2858 308.435 32.0637 307.975 32.0637 307.13Z" fill="#303B45"/>
<path d="M27.7037 368.361V364.134H25.9824V364.814H26.7481V368.361H27.7037ZM32.223 364.722L31.9535 364.134H28.9397V364.894H31.1571L29.3011 368.361H30.3424L32.223 364.722Z" fill="#303B45"/>
<path d="M27.7037 338.357V334.13H25.9824V334.81H26.7481V338.357H27.7037ZM32.0944 336.942C32.0944 335.962 31.2613 335.558 30.6181 335.558C30.3424 335.558 30.1832 335.594 30.0545 335.649L30.177 334.89H31.9351V334.13H29.4604L29.1357 336.195L29.5645 336.452C29.7544 336.317 30.0607 336.231 30.3363 336.231C30.7161 336.231 31.1326 336.44 31.1326 336.942C31.1326 337.45 30.6977 337.659 30.3363 337.659C29.9749 337.659 29.5339 337.475 29.3011 337.15L28.8478 337.732C29.0438 338.038 29.5584 338.424 30.4037 338.424C31.2429 338.424 32.0944 337.928 32.0944 336.942Z" fill="#303B45"/>
<path d="M37.0879 267.877V282.875H77.5811V267.877H37.0879Z" fill="white" stroke="#D2DCE4" stroke-width="0.774263"/>
<path d="M77.5898 267.877V282.875H119.583V267.877H77.5898Z" fill="white" stroke="#D2DCE4" stroke-width="0.774263"/>
<path d="M119.58 267.877V282.875H161.573V267.877H119.58Z" fill="white" stroke="#D2DCE4" stroke-width="0.774263"/>
<path d="M161.566 267.877V282.875H203.559V267.877H161.566Z" fill="white" stroke="#D2DCE4" stroke-width="0.774263"/>
<path d="M203.561 267.877V282.875H244.054V267.877H203.561Z" fill="white" stroke="#D2DCE4" stroke-width="0.774263"/>
<path d="M37.0879 297.866V312.864H77.5811V297.866H37.0879Z" fill="#D2DCE4" fill-opacity="0.5" stroke="#D2DCE4" stroke-width="0.774263"/>
<path d="M37.0879 327.856V342.854H77.5811V327.856H37.0879Z" fill="#D2DCE4" fill-opacity="0.5" stroke="#D2DCE4" stroke-width="0.774263"/>
<path d="M37.0879 357.86V372.858H77.5811V357.86H37.0879Z" fill="#D2DCE4" fill-opacity="0.5" stroke="#D2DCE4" stroke-width="0.774263"/>
<path d="M77.5898 297.866V312.864H119.583V297.866H77.5898Z" fill="#D2DCE4" fill-opacity="0.5" stroke="#D2DCE4" stroke-width="0.774263"/>
<path d="M77.5898 327.856V342.854H119.583V327.856H77.5898Z" fill="#D2DCE4" fill-opacity="0.5" stroke="#D2DCE4" stroke-width="0.774263"/>
<path d="M77.5898 357.86V372.858H119.583V357.86H77.5898Z" fill="#D2DCE4" fill-opacity="0.5" stroke="#D2DCE4" stroke-width="0.774263"/>
<path d="M119.58 297.866V312.864H161.573V297.866H119.58Z" fill="#D2DCE4" fill-opacity="0.5" stroke="#D2DCE4" stroke-width="0.774263"/>
<path d="M119.58 327.856V342.854H161.573V327.856H119.58Z" fill="#D2DCE4" fill-opacity="0.5" stroke="#D2DCE4" stroke-width="0.774263"/>
<path d="M119.58 357.86V372.858H161.573V357.86H119.58Z" fill="#D2DCE4" fill-opacity="0.5" stroke="#D2DCE4" stroke-width="0.774263"/>
<path d="M161.566 297.867V312.865H203.559V297.867H161.566Z" fill="#D2DCE4" fill-opacity="0.5" stroke="#D2DCE4" stroke-width="0.774263"/>
<path d="M161.566 327.857V342.855H203.559V327.857H161.566Z" fill="#D2DCE4" fill-opacity="0.5" stroke="#D2DCE4" stroke-width="0.774263"/>
<path d="M161.566 357.861V372.859H203.559V357.861H161.566Z" fill="#D2DCE4" fill-opacity="0.5" stroke="#D2DCE4" stroke-width="0.774263"/>
<path d="M203.561 297.867V312.865H244.054V297.867H203.561Z" fill="#D2DCE4" fill-opacity="0.5" stroke="#D2DCE4" stroke-width="0.774263"/>
<path d="M203.561 327.857V342.855H244.054V327.857H203.561Z" fill="#D2DCE4" fill-opacity="0.5" stroke="#D2DCE4" stroke-width="0.774263"/>
<path d="M203.561 357.861V372.859H244.054V357.861H203.561Z" fill="#D2DCE4" fill-opacity="0.5" stroke="#D2DCE4" stroke-width="0.774263"/>
<path d="M37.0879 282.865V297.863H77.5811V282.865H37.0879Z" fill="white" stroke="#D2DCE4" stroke-width="0.774263"/>
<path d="M37.0879 312.868V327.866H77.5811V312.868H37.0879Z" fill="white" stroke="#D2DCE4" stroke-width="0.774263"/>
<path d="M37.0879 342.858V357.856H77.5811V342.858H37.0879Z" fill="white" stroke="#D2DCE4" stroke-width="0.774263"/>
<path d="M37.0879 372.848V387.846H77.5811V372.848H37.0879Z" fill="white" stroke="#D2DCE4" stroke-width="0.774263"/>
<path d="M77.5898 282.865V297.863H119.583V282.865H77.5898Z" fill="white" stroke="#D2DCE4" stroke-width="0.774263"/>
<path d="M77.5898 312.868V327.866H119.583V312.868H77.5898Z" fill="white" stroke="#D2DCE4" stroke-width="0.774263"/>
<path d="M77.5898 342.858V357.856H119.583V342.858H77.5898Z" fill="white" stroke="#D2DCE4" stroke-width="0.774263"/>
<path d="M77.5898 372.848V387.846H119.583V372.848H77.5898Z" fill="white" stroke="#D2DCE4" stroke-width="0.774263"/>
<path d="M119.58 282.865V297.863H161.573V282.865H119.58Z" fill="white" stroke="#D2DCE4" stroke-width="0.774263"/>
<path d="M119.58 312.868V327.866H161.573V312.868H119.58Z" fill="white" stroke="#D2DCE4" stroke-width="0.774263"/>
<path d="M119.58 342.858V357.856H161.573V342.858H119.58Z" fill="white" stroke="#D2DCE4" stroke-width="0.774263"/>
<path d="M119.58 372.848V387.846H161.573V372.848H119.58Z" fill="white" stroke="#D2DCE4" stroke-width="0.774263"/>
<path d="M161.566 282.865V297.863H203.559V282.865H161.566Z" fill="white" stroke="#D2DCE4" stroke-width="0.774263"/>
<path d="M161.566 312.869V327.867H203.559V312.869H161.566Z" fill="white" stroke="#D2DCE4" stroke-width="0.774263"/>
<path d="M161.566 342.859V357.857H203.559V342.859H161.566Z" fill="white" stroke="#D2DCE4" stroke-width="0.774263"/>
<path d="M161.566 372.849V387.847H203.559V372.849H161.566Z" fill="white" stroke="#D2DCE4" stroke-width="0.774263"/>
<path d="M203.561 282.865V297.863H244.054V282.865H203.561Z" fill="white" stroke="#D2DCE4" stroke-width="0.774263"/>
<path d="M203.561 312.869V327.867H244.054V312.869H203.561Z" fill="white" stroke="#D2DCE4" stroke-width="0.774263"/>
<path d="M203.561 342.859V357.857H244.054V342.859H203.561Z" fill="white" stroke="#D2DCE4" stroke-width="0.774263"/>
<path d="M203.561 372.849V387.847H244.054V372.849H203.561Z" fill="white" stroke="#D2DCE4" stroke-width="0.774263"/>
<path d="M44.5879 305.376H71.5834" stroke="#B8C4D0" stroke-width="2.99949" stroke-linecap="round"/>
<path d="M44.5879 335.366H71.5834" stroke="#B8C4D0" stroke-width="2.99949" stroke-linecap="round"/>
<path d="M44.5879 365.355H71.5834" stroke="#B8C4D0" stroke-width="2.99949" stroke-linecap="round"/>
<path d="M85.0801 305.376H113.575" stroke="#B8C4D0" stroke-width="2.99949" stroke-linecap="round"/>
<path d="M85.0801 335.365H113.575" stroke="#B8C4D0" stroke-width="2.99949" stroke-linecap="round"/>
<path d="M85.0801 365.355H113.575" stroke="#B8C4D0" stroke-width="2.99949" stroke-linecap="round"/>
<path d="M127.072 305.376H154.068" stroke="#B8C4D0" stroke-width="2.99949" stroke-linecap="round"/>
<path d="M127.072 335.365H154.068" stroke="#B8C4D0" stroke-width="2.99949" stroke-linecap="round"/>
<path d="M127.072 365.355H154.068" stroke="#B8C4D0" stroke-width="2.99949" stroke-linecap="round"/>
<path d="M167.57 305.376H196.065" stroke="#B8C4D0" stroke-width="2.99949" stroke-linecap="round"/>
<path d="M167.57 335.365H196.065" stroke="#B8C4D0" stroke-width="2.99949" stroke-linecap="round"/>
<path d="M167.57 365.355H196.065" stroke="#B8C4D0" stroke-width="2.99949" stroke-linecap="round"/>
<path d="M211.064 305.376H236.56" stroke="#B8C4D0" stroke-width="2.99949" stroke-linecap="round"/>
<path d="M211.064 335.366H236.56" stroke="#B8C4D0" stroke-width="2.99949" stroke-linecap="round"/>
<path d="M211.064 365.355H236.56" stroke="#B8C4D0" stroke-width="2.99949" stroke-linecap="round"/>
<path d="M44.5879 290.374H71.5834" stroke="#D2DCE4" stroke-width="2.99949" stroke-linecap="round"/>
<path d="M44.5879 320.364H71.5834" stroke="#D2DCE4" stroke-width="2.99949" stroke-linecap="round"/>
<path d="M44.5879 350.367H71.5834" stroke="#D2DCE4" stroke-width="2.99949" stroke-linecap="round"/>
<path d="M44.5879 380.358H71.5834" stroke="#D2DCE4" stroke-width="2.99949" stroke-linecap="round"/>
<path d="M85.0801 290.374H113.575" stroke="#D2DCE4" stroke-width="2.99949" stroke-linecap="round"/>
<path d="M85.0801 320.364H113.575" stroke="#D2DCE4" stroke-width="2.99949" stroke-linecap="round"/>
<path d="M85.0801 350.367H113.575" stroke="#D2DCE4" stroke-width="2.99949" stroke-linecap="round"/>
<path d="M85.0801 380.358H113.575" stroke="#D2DCE4" stroke-width="2.99949" stroke-linecap="round"/>
<path d="M127.072 290.374H154.068" stroke="#D2DCE4" stroke-width="2.99949" stroke-linecap="round"/>
<path d="M127.072 320.364H154.068" stroke="#D2DCE4" stroke-width="2.99949" stroke-linecap="round"/>
<path d="M127.072 350.367H154.068" stroke="#D2DCE4" stroke-width="2.99949" stroke-linecap="round"/>
<path d="M127.072 380.358H154.068" stroke="#D2DCE4" stroke-width="2.99949" stroke-linecap="round"/>
<path d="M167.57 290.374H196.065" stroke="#D2DCE4" stroke-width="2.99949" stroke-linecap="round"/>
<path d="M167.57 320.364H196.065" stroke="#D2DCE4" stroke-width="2.99949" stroke-linecap="round"/>
<path d="M167.57 350.367H196.065" stroke="#D2DCE4" stroke-width="2.99949" stroke-linecap="round"/>
<path d="M167.57 380.358H196.065" stroke="#D2DCE4" stroke-width="2.99949" stroke-linecap="round"/>
<path d="M211.064 290.374H236.56" stroke="#D2DCE4" stroke-width="2.99949" stroke-linecap="round"/>
<path d="M211.064 320.364H236.56" stroke="#D2DCE4" stroke-width="2.99949" stroke-linecap="round"/>
<path d="M211.064 350.367H236.56" stroke="#D2DCE4" stroke-width="2.99949" stroke-linecap="round"/>
<path d="M211.064 380.358H236.56" stroke="#D2DCE4" stroke-width="2.99949" stroke-linecap="round"/>
<path d="M33.2677 279.245V271.745L25.7676 279.245H33.2677Z" fill="#B8C4D0"/>
<path d="M59.7867 276.343C59.7867 275.41 59.4107 274.853 59.0068 274.519C58.61 274.178 57.9903 273.941 57.1547 273.941H55.5254V278.745H57.1547C57.9903 278.745 58.61 278.509 59.0068 278.174C59.4107 277.833 59.7867 277.276 59.7867 276.343ZM58.6448 276.343C58.6448 276.935 58.422 277.255 58.22 277.443C58.0181 277.638 57.6839 277.791 57.2174 277.791H56.6464V274.874H57.2174C57.6839 274.874 58.0181 275.027 58.22 275.215C58.422 275.41 58.6448 275.751 58.6448 276.343Z" fill="#303B45"/>
<path d="M100.697 278.745V277.833H98.6425V276.719H100.523V275.821H98.6425V274.839H100.634V273.941H97.5215V278.745H100.697Z" fill="#303B45"/>
<path d="M142.515 274.839V273.941H139.514V278.745H140.635V276.914H142.403V276.016H140.635V274.839H142.515Z" fill="#303B45"/>
<path d="M185.898 278.001V276.01H183.788V276.866H184.797V277.576C184.797 277.576 184.575 277.883 183.795 277.883C183.015 277.883 182.402 277.319 182.402 276.344C182.402 275.369 183.001 274.805 183.774 274.805C184.428 274.805 184.804 275.132 185.006 275.355L185.751 274.708C185.598 274.541 185.048 273.872 183.774 273.872C182.43 273.872 181.26 274.742 181.26 276.344C181.26 277.945 182.43 278.823 183.76 278.823C185.083 278.823 185.654 278.217 185.898 278.001Z" fill="#303B45"/>
</g>
<path d="M220.607 381.081V267.884" stroke="#D2DCE4" stroke-width="0.749873"/>
<path d="M229.433 255.582H21.5762V268.328H229.433V255.582Z" fill="#40BB68"/>
<path d="M21.5762 249.7C21.5762 246.992 23.7711 244.797 26.4785 244.797H224.531C227.238 244.797 229.433 246.992 229.433 249.7V255.582H21.5762V249.7Z" fill="#07722A"/>
<path d="M31.5609 250.243C31.5619 250.648 31.4425 251.044 31.2177 251.381C30.9929 251.718 30.6729 251.981 30.2983 252.136C29.9236 252.292 29.5111 252.333 29.1129 252.255C28.7147 252.176 28.3488 251.982 28.0615 251.696C27.7741 251.41 27.5783 251.046 27.4988 250.649C27.4192 250.252 27.4595 249.841 27.6146 249.467C27.7697 249.093 28.0326 248.773 28.37 248.548C28.7074 248.323 29.1041 248.203 29.51 248.203C30.0519 248.207 30.5706 248.423 30.9542 248.805C31.3379 249.186 31.5558 249.703 31.5609 250.243Z" fill="#F66058"/>
<path d="M40.1898 250.244C40.1908 250.649 40.0712 251.045 39.8462 251.382C39.6212 251.719 39.301 251.982 38.926 252.137C38.551 252.293 38.1383 252.334 37.7399 252.255C37.3416 252.176 36.9757 251.981 36.6886 251.695C36.4015 251.409 36.206 251.044 36.127 250.647C36.0481 250.249 36.0891 249.838 36.2449 249.464C36.4008 249.09 36.6644 248.771 37.0025 248.546C37.3405 248.322 37.7377 248.203 38.1438 248.204C38.4128 248.202 38.6795 248.254 38.9283 248.356C39.1772 248.458 39.4032 248.609 39.5935 248.798C39.7837 248.988 39.9344 249.213 40.0367 249.462C40.1391 249.71 40.1911 249.976 40.1898 250.244Z" fill="#F9BD2E"/>
<path d="M49.0297 250.244C49.0307 250.649 48.9112 251.045 48.6864 251.382C48.4617 251.719 48.1417 251.981 47.767 252.137C47.3923 252.292 46.9798 252.334 46.5816 252.255C46.1834 252.177 45.8175 251.983 45.5302 251.697C45.2429 251.411 45.047 251.047 44.9675 250.65C44.888 250.253 44.9283 249.841 45.0834 249.467C45.2385 249.093 45.5013 248.774 45.8387 248.549C46.1761 248.324 46.5729 248.204 46.9787 248.204C47.5206 248.207 48.0393 248.423 48.423 248.805C48.8066 249.187 49.0245 249.704 49.0297 250.244Z" fill="#3CC840"/>
<path d="M32.4089 258.524H28.1334C27.3241 258.524 26.668 259.18 26.668 259.989V263.922C26.668 264.731 27.3241 265.387 28.1334 265.387H32.4089C33.2182 265.387 33.8743 264.731 33.8743 263.922V259.989C33.8743 259.18 33.2182 258.524 32.4089 258.524Z" fill="#4B825D"/>
<path d="M30.4479 262.304L31.3086 263.671H32.1582L30.9029 261.901L32.076 260.24H31.2373L30.4424 261.478L29.6476 260.24H28.8089L29.982 261.896L28.7266 263.671H29.5708L30.4479 262.304Z" fill="white"/>
<path opacity="0.3" d="M229.433 259.504H204.922V264.406H229.433V259.504Z" fill="white"/>
<path opacity="0.3" d="M198.058 259.504H163.742V264.406H198.058V259.504Z" fill="white"/>
<path opacity="0.3" d="M116.681 259.504H82.3652V264.406H116.681V259.504Z" fill="white"/>
<path opacity="0.3" d="M157.859 259.504H122.562V264.406H157.859V259.504Z" fill="white"/>
<path opacity="0.3" d="M75.5015 259.504H41.1855V264.406H75.5015V259.504Z" fill="white"/>
<g filter="url(#filter4_bd_6376_29708)">
<path d="M383 231.45C383 228.992 384.943 227 387.339 227H562.161C564.557 227 566.5 228.992 566.5 231.45V237H383V231.45Z" fill="url(#paint2_linear_6376_29708)"/>
</g>
<path d="M391.491 231.832C391.491 232.191 391.385 232.542 391.186 232.841C390.987 233.14 390.703 233.373 390.37 233.511C390.038 233.649 389.672 233.685 389.319 233.616C388.966 233.546 388.641 233.374 388.386 233.12C388.131 232.867 387.957 232.544 387.887 232.192C387.816 231.839 387.852 231.474 387.99 231.143C388.127 230.811 388.36 230.527 388.66 230.328C388.959 230.128 389.311 230.021 389.671 230.021C390.152 230.025 390.612 230.217 390.952 230.555C391.293 230.894 391.486 231.352 391.491 231.832Z" fill="white"/>
<path d="M399.147 231.832C399.148 232.191 399.042 232.542 398.842 232.841C398.642 233.141 398.358 233.374 398.026 233.512C397.693 233.649 397.327 233.686 396.973 233.616C396.62 233.546 396.295 233.373 396.041 233.119C395.786 232.865 395.613 232.541 395.543 232.189C395.472 231.837 395.509 231.472 395.647 231.14C395.785 230.808 396.019 230.525 396.319 230.326C396.619 230.127 396.971 230.021 397.332 230.022C397.57 230.021 397.807 230.067 398.028 230.157C398.248 230.248 398.449 230.381 398.618 230.549C398.787 230.718 398.92 230.918 399.011 231.138C399.102 231.358 399.148 231.594 399.147 231.832Z" fill="white"/>
<path d="M406.987 231.832C406.988 232.191 406.882 232.542 406.682 232.841C406.483 233.14 406.199 233.373 405.867 233.511C405.534 233.649 405.168 233.686 404.815 233.616C404.462 233.547 404.137 233.374 403.882 233.121C403.627 232.867 403.453 232.544 403.383 232.192C403.312 231.84 403.348 231.475 403.486 231.143C403.623 230.811 403.857 230.527 404.156 230.328C404.455 230.128 404.807 230.022 405.167 230.022C405.648 230.025 406.108 230.217 406.448 230.555C406.789 230.894 406.982 231.352 406.987 231.832Z" fill="white"/>
<g filter="url(#filter5_dd_6376_29708)">
<path d="M383 254H566.5V344.939C566.5 347.734 564.224 350 561.417 350H388.082C385.276 350 383 347.734 383 344.939V254Z" fill="url(#paint3_linear_6376_29708)"/>
<path d="M493.713 328.486C493.713 329.612 493.11 330.438 492.491 330.93C491.935 331.374 491.031 331.676 490.428 331.723L490.396 332.596H489.253L489.285 331.755C488.095 331.707 486.793 331.136 486 330.136L487.174 328.549C487.634 329.279 488.777 329.835 489.46 329.851L489.507 327.2L488.968 326.978C488.364 326.724 487.888 326.486 487.539 326.2C487.19 325.931 486.428 325.232 486.428 323.931C486.428 322.884 486.889 322.138 487.476 321.63C488.015 321.154 488.841 320.884 489.698 320.805L489.729 319.948H490.872L490.856 320.836C491.808 320.916 492.887 321.36 493.522 322.122L492.538 323.693C491.999 323.09 491.269 322.709 490.681 322.63L490.618 325.169L491.618 325.597C492.903 326.169 493.713 327.089 493.713 328.486ZM489.682 322.614C489.079 322.661 488.65 323.058 488.65 323.677C488.65 324.264 489.063 324.55 489.46 324.74L489.634 324.82L489.682 322.614ZM491.523 328.787C491.523 328.184 491.237 327.883 490.761 327.645L490.507 327.518L490.459 329.882C490.951 329.835 491.523 329.406 491.523 328.787Z" fill="#76A5FF"/>
<path d="M515.464 322.885H500.954C498.95 322.885 497.326 324.509 497.326 326.513C497.326 328.516 498.95 330.14 500.954 330.14H515.464C517.467 330.14 519.091 328.516 519.091 326.513C519.091 324.509 517.467 322.885 515.464 322.885Z" fill="#76A5FF"/>
<path d="M500.07 306.948H488.814C487.26 306.948 486 308.208 486 309.762C486 311.316 487.26 312.576 488.814 312.576H500.07C501.625 312.576 502.884 311.316 502.884 309.762C502.884 308.208 501.625 306.948 500.07 306.948Z" fill="#B8C4D0"/>
<path d="M520.24 306.948H508.984C507.43 306.948 506.17 308.208 506.17 309.762C506.17 311.316 507.43 312.576 508.984 312.576H520.24C521.794 312.576 523.054 311.316 523.054 309.762C523.054 308.208 521.794 306.948 520.24 306.948Z" fill="#B8C4D0"/>
<path d="M541.186 306.948H529.929C528.375 306.948 527.115 308.208 527.115 309.762C527.115 311.316 528.375 312.576 529.929 312.576H541.186C542.74 312.576 544 311.316 544 309.762C544 308.208 542.74 306.948 541.186 306.948Z" fill="#B8C4D0"/>
<path d="M504.222 268H488.675C487.244 268 486.084 269.16 486.084 270.591V270.591C486.084 272.022 487.244 273.182 488.675 273.182H504.222C505.653 273.182 506.813 272.022 506.813 270.591V270.591C506.813 269.16 505.653 268 504.222 268Z" fill="#D2DCE4"/>
<path d="M545.679 279.4H489.711C487.708 279.4 486.084 281.024 486.084 283.028C486.084 285.031 487.708 286.655 489.711 286.655H545.679C547.682 286.655 549.306 285.031 549.306 283.028C549.306 281.024 547.682 279.4 545.679 279.4Z" fill="#8599AC"/>
<path d="M527.023 291.837H489.711C487.708 291.837 486.084 293.461 486.084 295.465C486.084 297.468 487.708 299.092 489.711 299.092H527.023C529.026 299.092 530.651 297.468 530.651 295.465C530.651 293.461 529.026 291.837 527.023 291.837Z" fill="#8599AC"/>
<mask id="mask1_6376_29708" style="mask-type:alpha" maskUnits="userSpaceOnUse" x="403" y="265" width="33" height="68">
<path d="M435.999 265.051H403.352V332.419H435.999V265.051Z" fill="#D9D9D9"/>
</mask>
<g mask="url(#mask1_6376_29708)">
<path d="M460.732 265.051H411.266C406.895 265.051 403.352 268.595 403.352 272.966V324.41C403.352 328.782 406.895 332.325 411.266 332.325H460.732C465.103 332.325 468.647 328.782 468.647 324.41V272.966C468.647 268.595 465.103 265.051 460.732 265.051Z" fill="#E7EEFF" fill-opacity="0.16"/>
<path d="M458.789 293.476L439.804 277.564C437.313 275.479 433.687 275.479 431.196 277.564L412.211 293.476C409.802 295.495 411.229 299.421 414.372 299.421H416.093V316.952C416.093 318.801 417.592 320.302 419.443 320.302H429.04V308.979C429.04 305.411 431.933 302.52 435.5 302.52C437.284 302.52 438.899 303.243 440.067 304.411C441.236 305.581 441.96 307.196 441.96 308.979V320.302H451.557C453.408 320.302 454.907 318.801 454.907 316.952V299.421H456.628C459.771 299.421 461.198 295.495 458.789 293.476Z" fill="#9FC0FF"/>
</g>
<mask id="mask2_6376_29708" style="mask-type:alpha" maskUnits="userSpaceOnUse" x="434" y="265" width="35" height="68">
<path d="M434.446 332.419H468.648V265.051H434.446V332.419Z" fill="#75A3FA"/>
</mask>
<g mask="url(#mask2_6376_29708)">
<path opacity="0.88" d="M460.734 265.051H411.268C406.897 265.051 403.354 268.595 403.354 272.966V324.41C403.354 328.782 406.897 332.325 411.268 332.325H460.734C465.105 332.325 468.649 328.782 468.649 324.41V272.966C468.649 268.595 465.105 265.051 460.734 265.051Z" fill="#76A5FF"/>
<path d="M458.789 293.476L439.804 277.564C437.313 275.479 433.687 275.479 431.196 277.564L412.211 293.476C409.802 295.495 411.229 299.421 414.372 299.421H416.093V316.952C416.093 318.801 417.592 320.302 419.443 320.302H429.04V308.979C429.04 305.411 431.933 302.52 435.5 302.52C437.284 302.52 438.899 303.243 440.067 304.411C441.236 305.581 441.96 307.196 441.96 308.979V320.302H451.557C453.408 320.302 454.907 318.801 454.907 316.952V299.421H456.628C459.771 299.421 461.198 295.495 458.789 293.476Z" fill="#0058FF"/>
</g>
<path d="M383 237H566.5V254H383V237Z" fill="#024BCD"/>
<path d="M389 247.177L391.16 244.638H389.107V243.814H392.479V244.424L390.344 246.954H392.586V247.795H389V247.177Z" fill="white"/>
<path d="M393.967 243.171C393.596 243.171 393.333 242.932 393.333 242.585C393.333 242.247 393.596 242 393.967 242C394.338 242 394.602 242.247 394.602 242.585C394.602 242.932 394.338 243.171 393.967 243.171ZM393.44 243.805H394.495V247.795H393.44V243.805Z" fill="white"/>
<path d="M395.706 242.107H396.753V247.795H395.706V242.107Z" fill="white"/>
<path d="M397.972 242.107H399.019V247.795H397.972V242.107Z" fill="white"/>
<path d="M402.117 247.886C400.889 247.886 399.949 247.078 399.949 245.817C399.949 244.556 400.889 243.731 402.117 243.731C403.338 243.731 404.277 244.556 404.277 245.817C404.277 247.078 403.338 247.886 402.117 247.886ZM403.189 245.792C403.189 245.108 402.793 244.58 402.117 244.58C401.425 244.58 401.046 245.108 401.046 245.792C401.046 246.476 401.425 247.012 402.117 247.012C402.793 247.012 403.189 246.476 403.189 245.792Z" fill="white"/>
<path d="M407.8 245.091L406.918 247.795H405.879L404.602 243.805H405.649L406.481 246.666L407.429 243.805H408.254L409.235 246.592L410.001 243.805H411.048L409.729 247.795H408.781L407.8 245.091Z" fill="white"/>
<path d="M411.969 247.886C411.573 247.886 411.301 247.655 411.301 247.276C411.301 246.888 411.573 246.658 411.969 246.658C412.348 246.658 412.628 246.888 412.628 247.276C412.628 247.655 412.348 247.886 411.969 247.886Z" fill="white"/>
<path d="M416.985 246.575L417.282 247.35C417.199 247.424 416.787 247.886 415.723 247.886C414.635 247.886 413.63 247.136 413.63 245.833C413.63 244.523 414.668 243.731 415.74 243.731C416.746 243.731 417.141 244.135 417.249 244.242L416.96 245.034C416.836 244.918 416.482 244.613 415.864 244.613C415.237 244.613 414.734 245.05 414.734 245.784C414.734 246.517 415.237 246.996 415.921 246.996C416.606 246.996 416.985 246.575 416.985 246.575Z" fill="white"/>
<path d="M419.932 247.886C418.704 247.886 417.764 247.078 417.764 245.817C417.764 244.556 418.704 243.731 419.932 243.731C421.152 243.731 422.092 244.556 422.092 245.817C422.092 247.078 421.152 247.886 419.932 247.886ZM421.004 245.792C421.004 245.108 420.608 244.58 419.932 244.58C419.24 244.58 418.86 245.108 418.86 245.792C418.86 246.476 419.24 247.012 419.932 247.012C420.608 247.012 421.004 246.476 421.004 245.792Z" fill="white"/>
<path d="M427.945 245.561C427.945 245.075 427.838 244.597 427.318 244.597C426.791 244.597 426.519 245.05 426.519 245.734V247.795H425.464V245.553C425.464 245.009 425.323 244.597 424.821 244.597C424.276 244.597 424.037 245.108 424.037 245.734V247.795H422.982V243.805H424.037L424.029 244.407H424.054C424.235 244.036 424.722 243.731 425.241 243.731C425.818 243.731 426.164 243.962 426.354 244.49C426.634 244.003 427.088 243.731 427.665 243.731C428.711 243.731 429 244.473 429 245.388V247.795H427.945V245.561Z" fill="white"/>
<path d="M438.15 245.5C438.15 244.583 438.59 243.745 439.236 243.134C439.883 242.522 440.722 242.15 441.5 242.15L531.021 242.15C532.562 242.15 533.85 243.627 533.85 245.5C533.85 247.373 532.562 248.85 531.021 248.85L441.5 248.85C440.722 248.85 439.883 248.478 439.236 247.866C438.59 247.255 438.15 246.417 438.15 245.5Z" fill="white" fill-opacity="0.4" stroke="#9BACBC" stroke-width="0.3"/>
<path d="M523 242H530.874C532.808 242 534.374 243.567 534.374 245.5C534.374 247.433 532.808 249 530.874 249H523V242Z" fill="white"/>
<path opacity="0.2" d="M537.184 245.029C537.184 243.858 538.133 242.909 539.304 242.909H541C542.17 242.909 543.12 243.858 543.12 245.029C543.12 246.2 542.17 247.149 541 247.149H539.304C538.133 247.149 537.184 246.2 537.184 245.029Z" fill="#D2DCE4"/>
<path opacity="0.2" d="M546.512 245.029C546.512 243.858 547.461 242.909 548.632 242.909H550.328C551.499 242.909 552.448 243.858 552.448 245.029C552.448 246.2 551.499 247.149 550.328 247.149H548.632C547.461 247.149 546.512 246.2 546.512 245.029Z" fill="#D2DCE4"/>
<path opacity="0.2" d="M555.84 245.029C555.84 243.858 556.789 242.909 557.96 242.909H559.656C560.827 242.909 561.776 243.858 561.776 245.029C561.776 246.2 560.827 247.149 559.656 247.149H557.96C556.789 247.149 555.84 246.2 555.84 245.029Z" fill="#D2DCE4"/>
</g>
<g style="mix-blend-mode:multiply">
<g style="mix-blend-mode:multiply" opacity="0.7">
<path fill-rule="evenodd" clip-rule="evenodd" d="M521.61 350.039H434.89V310.509C434.89 296.162 436.992 286.711 429.264 286.711V285.48C437.595 287.608 434.89 274.379 434.89 261.339C434.858 242.933 434.84 245.464 434.808 227.058H521.61V350.039Z" fill="url(#paint4_linear_6376_29708)"/>
</g>
</g>
<g style="mix-blend-mode:lighten">
<g style="mix-blend-mode:multiply">
<path fill-rule="evenodd" clip-rule="evenodd" d="M491.45 350.039H434.89V310.509C434.89 296.162 436.992 286.711 429.264 286.711V285.48C437.595 287.608 434.89 274.379 434.89 261.339C434.858 242.933 434.84 245.406 434.808 227H491.45V350.039Z" fill="url(#paint5_linear_6376_29708)"/>
</g>
</g>
<path d="M530.789 247.052L529.665 245.917C529.858 245.64 529.968 245.308 529.968 244.962C529.968 244.74 529.934 244.519 529.851 244.318C529.768 244.11 529.644 243.93 529.485 243.771C529.334 243.612 529.147 243.487 528.947 243.404C528.741 243.321 528.527 243.287 528.306 243.287C528.085 243.287 527.871 243.321 527.671 243.411C527.471 243.494 527.285 243.619 527.133 243.778C526.975 243.93 526.85 244.117 526.768 244.318C526.685 244.519 526.65 244.74 526.65 244.955C526.65 245.176 526.685 245.391 526.768 245.598C526.85 245.799 526.975 245.986 527.133 246.138C527.285 246.297 527.471 246.422 527.671 246.505C527.871 246.588 528.092 246.63 528.313 246.623C528.665 246.623 529.003 246.512 529.285 246.304L530.41 247.432L530.796 247.045L530.789 247.052ZM528.754 246.034C528.616 246.09 528.465 246.124 528.313 246.124C528.161 246.124 528.009 246.097 527.871 246.041C527.733 245.986 527.602 245.896 527.499 245.785C527.388 245.681 527.306 245.55 527.244 245.411C527.182 245.273 527.161 245.121 527.161 244.968C527.161 244.816 527.188 244.664 527.244 244.525C527.299 244.387 527.388 244.256 527.492 244.152C527.595 244.041 527.726 243.958 527.864 243.903C528.002 243.847 528.154 243.813 528.306 243.813C528.458 243.813 528.609 243.84 528.747 243.903C528.885 243.965 529.016 244.048 529.12 244.152C529.223 244.262 529.313 244.387 529.368 244.525C529.423 244.664 529.458 244.816 529.451 244.968C529.451 245.121 529.423 245.273 529.361 245.411C529.306 245.55 529.216 245.681 529.113 245.785C529.01 245.889 528.878 245.979 528.741 246.034H528.754Z" fill="#024BCD"/>
<path d="M434.058 228.057V227.021H436.131V228.057H434.058ZM436.131 228.057V281.918H434.058V228.057H436.131ZM430.714 287.334H407.959V285.262H430.714V287.334ZM436.131 281.918C436.131 284.909 433.706 287.334 430.714 287.334V285.262C432.561 285.262 434.058 283.764 434.058 281.918H436.131Z" fill="#3D7FFC"/>
<path d="M433.603 349.002V350.039H435.676V349.002H433.603ZM307.267 285.565C306.862 285.97 306.862 286.626 307.267 287.031L313.863 293.627C314.267 294.031 314.924 294.031 315.328 293.627C315.733 293.222 315.733 292.566 315.328 292.161L309.465 286.298L315.328 280.435C315.733 280.03 315.733 279.374 315.328 278.969C314.924 278.565 314.267 278.565 313.863 278.969L307.267 285.565ZM435.676 349.002V290.678H433.603V349.002H435.676ZM430.259 285.262H308V287.334H430.259V285.262ZM435.676 290.678C435.676 287.687 433.251 285.262 430.259 285.262V287.334C432.106 287.334 433.603 288.832 433.603 290.678H435.676Z" fill="#3D7FFC"/>
<g filter="url(#filter6_dd_6376_29708)">
<path d="M357.23 290.962C359.806 290.962 361.894 288.874 361.894 286.298C361.894 283.722 359.806 281.634 357.23 281.634C354.655 281.634 352.566 283.722 352.566 286.298C352.566 288.874 354.655 290.962 357.23 290.962Z" fill="#3D7FFC"/>
</g>
<path d="M443.238 246.023C443.378 246.238 443.701 246.523 444.047 246.523C444.434 246.523 444.715 246.317 444.715 245.953C444.715 245.616 444.444 245.453 444.145 245.322L443.668 245.116C443.308 244.962 443.126 244.724 443.126 244.331C443.126 243.789 443.621 243.504 444.117 243.504C444.654 243.504 444.944 243.85 445 243.92L444.794 244.154C444.654 243.99 444.439 243.808 444.098 243.808C443.752 243.808 443.481 243.99 443.481 244.308C443.481 244.644 443.715 244.771 443.93 244.859L444.369 245.046C444.761 245.214 445.074 245.439 445.074 245.901C445.074 246.471 444.631 246.826 444.004 246.826C443.514 246.826 443.163 246.499 443 246.252L443.238 246.023ZM447.51 246.457C447.309 246.696 446.992 246.817 446.562 246.817C445.917 246.817 445.482 246.373 445.482 245.668C445.482 245.046 445.908 244.537 446.562 244.537C447.165 244.537 447.58 244.971 447.58 245.574C447.58 245.654 447.566 245.756 447.566 245.756H445.838C445.842 246.21 446.155 246.527 446.623 246.527C447.052 246.527 447.361 246.252 447.361 246.252L447.51 246.457ZM447.23 245.495C447.23 245.186 447.029 244.831 446.548 244.827C446.109 244.822 445.87 245.154 445.842 245.495H447.23ZM449.423 246.77L449.418 246.481C449.334 246.574 449.114 246.817 448.699 246.817C448.283 246.817 447.946 246.551 447.946 246.149C447.946 245.775 448.222 245.513 448.82 245.485L449.413 245.457V245.359C449.413 244.99 449.166 244.827 448.834 244.827C448.507 244.827 448.245 244.957 448.185 245L448.068 244.752C448.213 244.668 448.502 244.537 448.848 244.537C449.488 244.537 449.764 244.869 449.764 245.485V246.77H449.423ZM449.418 245.71L448.848 245.738C448.442 245.756 448.306 245.92 448.306 246.144C448.306 246.364 448.488 246.541 448.769 246.541C449.068 246.541 449.315 246.369 449.418 246.228V245.71ZM450.421 246.77V244.579H450.767V244.953C450.869 244.686 451.08 244.537 451.323 244.537C451.467 244.537 451.556 244.574 451.556 244.574L451.533 244.901C451.533 244.901 451.523 244.901 451.519 244.901C451.444 244.869 451.346 244.859 451.281 244.859C451.08 244.859 450.949 245 450.911 245.051C450.823 245.177 450.767 245.303 450.767 245.635V246.77H450.421ZM453.75 246.471C453.647 246.588 453.413 246.822 452.862 246.822C452.273 246.822 451.773 246.401 451.773 245.677C451.773 244.986 452.301 244.537 452.881 244.537C453.367 244.537 453.577 244.696 453.727 244.831L453.572 245.102C453.427 244.967 453.236 244.85 452.895 244.85C452.47 244.85 452.129 245.168 452.129 245.672C452.129 246.172 452.465 246.509 452.928 246.509C453.381 246.509 453.6 246.219 453.6 246.219L453.75 246.471ZM455.244 244.537C455.87 244.537 456.019 244.92 456.019 245.443V246.77H455.673V245.467C455.673 245.06 455.543 244.836 455.136 244.836C454.744 244.836 454.547 245.158 454.547 245.537V246.77H454.202V243.546H454.547V244.934H454.561C454.66 244.7 454.931 244.537 455.244 244.537ZM457.773 246.77V244.873H457.455V244.584H457.773V244.327C457.773 243.873 457.927 243.5 458.437 243.5C458.619 243.5 458.74 243.532 458.759 243.542L458.726 243.813C458.726 243.813 458.6 243.775 458.483 243.775C458.161 243.775 458.119 244.023 458.119 244.303V244.584H458.661V244.873H458.119V246.77H457.773ZM459.922 246.817C459.282 246.817 458.782 246.355 458.782 245.682C458.782 245.014 459.282 244.537 459.922 244.537C460.562 244.537 461.067 245.014 461.067 245.682C461.067 246.355 460.562 246.817 459.922 246.817ZM459.922 246.513C460.408 246.513 460.712 246.14 460.712 245.672C460.712 245.2 460.408 244.836 459.922 244.836C459.436 244.836 459.137 245.2 459.137 245.672C459.137 246.14 459.436 246.513 459.922 246.513ZM461.616 246.77V244.579H461.961V244.953C462.064 244.686 462.274 244.537 462.517 244.537C462.662 244.537 462.751 244.574 462.751 244.574L462.728 244.901C462.728 244.901 462.718 244.901 462.714 244.901C462.639 244.869 462.541 244.859 462.475 244.859C462.274 244.859 462.144 245 462.106 245.051C462.017 245.177 461.961 245.303 461.961 245.635V246.77H461.616ZM465.394 246.77L465.389 246.481C465.305 246.574 465.085 246.817 464.67 246.817C464.254 246.817 463.917 246.551 463.917 246.149C463.917 245.775 464.193 245.513 464.791 245.485L465.384 245.457V245.359C465.384 244.99 465.137 244.827 464.805 244.827C464.478 244.827 464.216 244.957 464.156 245L464.039 244.752C464.184 244.668 464.473 244.537 464.819 244.537C465.459 244.537 465.735 244.869 465.735 245.485V246.77H465.394ZM465.389 245.71L464.819 245.738C464.413 245.756 464.277 245.92 464.277 246.144C464.277 246.364 464.459 246.541 464.74 246.541C465.039 246.541 465.286 246.369 465.389 246.228V245.71ZM467.434 244.537C468.06 244.537 468.209 244.92 468.209 245.443V246.77H467.864V245.467C467.864 245.06 467.733 244.836 467.326 244.836C466.934 244.836 466.737 245.158 466.737 245.537V246.77H466.392V244.579H466.737V244.934H466.752C466.85 244.7 467.121 244.537 467.434 244.537ZM469.422 246.77L468.53 244.574L468.89 244.579L469.6 246.383L470.296 244.574L470.656 244.579L469.586 247.168C469.418 247.569 469.268 247.677 469.035 247.677C468.838 247.677 468.694 247.602 468.694 247.602L468.764 247.308C468.764 247.308 468.885 247.359 468.983 247.359C469.095 247.359 469.175 247.354 469.301 247.055L469.422 246.77ZM472.006 246.747C471.904 246.794 471.778 246.817 471.628 246.817C471.105 246.817 471.105 246.326 471.105 245.929V244.873H470.778V244.584H471.105V243.906H471.455V244.584H471.992V244.873H471.45V245.999C471.45 246.177 471.45 246.331 471.521 246.434C471.558 246.49 471.642 246.518 471.745 246.518C471.88 246.518 471.988 246.467 471.988 246.467L472.006 246.747ZM473.515 244.537C474.141 244.537 474.291 244.92 474.291 245.443V246.77H473.945V245.467C473.945 245.06 473.814 244.836 473.408 244.836C473.015 244.836 472.819 245.158 472.819 245.537V246.77H472.473V243.546H472.819V244.934H472.833C472.931 244.7 473.202 244.537 473.515 244.537ZM475.432 243.827C475.427 243.962 475.329 244.065 475.189 244.065C475.044 244.065 474.941 243.962 474.941 243.827C474.941 243.691 475.044 243.588 475.189 243.588C475.329 243.588 475.432 243.691 475.432 243.827ZM475.016 246.77V244.579H475.362V246.77H475.016ZM477.126 244.537C477.752 244.537 477.902 244.92 477.902 245.443V246.77H477.556V245.467C477.556 245.06 477.425 244.836 477.019 244.836C476.626 244.836 476.43 245.158 476.43 245.537V246.77H476.084V244.579H476.43V244.934H476.444C476.542 244.7 476.813 244.537 477.126 244.537ZM480.301 246.341H480.291C480.132 246.602 479.866 246.756 479.492 246.756C478.913 246.756 478.436 246.378 478.436 245.649C478.436 244.962 478.913 244.537 479.483 244.537C479.885 244.537 480.16 244.729 480.296 244.957H480.305L480.301 244.579H480.646V246.303C480.646 246.794 480.576 247.055 480.436 247.247C480.296 247.443 480.03 247.696 479.474 247.696C478.922 247.696 478.558 247.387 478.525 247.364L478.698 247.116C478.843 247.228 479.151 247.401 479.492 247.401C480.095 247.401 480.301 247.009 480.301 246.462V246.341ZM479.553 246.467C480.053 246.467 480.315 246.102 480.315 245.644C480.315 245.144 480.016 244.831 479.544 244.831C479.048 244.831 478.791 245.191 478.791 245.644C478.791 246.102 479.058 246.467 479.553 246.467ZM481.974 246.565C481.974 246.714 481.861 246.817 481.707 246.817C481.553 246.817 481.441 246.714 481.441 246.565C481.441 246.406 481.553 246.303 481.707 246.303C481.861 246.303 481.974 246.406 481.974 246.565ZM483.389 246.565C483.389 246.714 483.277 246.817 483.123 246.817C482.969 246.817 482.856 246.714 482.856 246.565C482.856 246.406 482.969 246.303 483.123 246.303C483.277 246.303 483.389 246.406 483.389 246.565ZM484.805 246.565C484.805 246.714 484.693 246.817 484.538 246.817C484.384 246.817 484.272 246.714 484.272 246.565C484.272 246.406 484.384 246.303 484.538 246.303C484.693 246.303 484.805 246.406 484.805 246.565Z" fill="#010D37"/>
<g filter="url(#filter7_bd_6376_29708)">
<rect x="192" y="311" width="109" height="43" rx="8.65056" fill="url(#paint6_linear_6376_29708)" shape-rendering="crispEdges"/>
<rect x="192.541" y="311.541" width="107.919" height="41.9187" rx="8.1099" stroke="url(#paint7_linear_6376_29708)" stroke-opacity="0.2" stroke-width="1.08132" shape-rendering="crispEdges"/>
<path d="M202.36 336.65L207.076 331.106H202.594V329.306H209.956V330.638L205.294 336.164H210.19V338H202.36V336.65ZM213.207 327.902C212.397 327.902 211.821 327.38 211.821 326.624C211.821 325.886 212.397 325.346 213.207 325.346C214.017 325.346 214.593 325.886 214.593 326.624C214.593 327.38 214.017 327.902 213.207 327.902ZM212.055 329.288H214.359V338H212.055V329.288ZM217.003 325.58H219.289V338H217.003V325.58ZM221.951 325.58H224.237V338H221.951V325.58ZM231.003 338.198C228.321 338.198 226.269 336.434 226.269 333.68C226.269 330.926 228.321 329.126 231.003 329.126C233.667 329.126 235.719 330.926 235.719 333.68C235.719 336.434 233.667 338.198 231.003 338.198ZM233.343 333.626C233.343 332.132 232.479 330.98 231.003 330.98C229.491 330.98 228.663 332.132 228.663 333.626C228.663 335.12 229.491 336.29 231.003 336.29C232.479 336.29 233.343 335.12 233.343 333.626ZM243.411 332.096L241.485 338H239.217L236.427 329.288H238.713L240.531 335.534L242.601 329.288H244.401L246.543 335.372L248.217 329.288H250.503L247.623 338H245.553L243.411 332.096ZM252.513 338.198C251.649 338.198 251.055 337.694 251.055 336.866C251.055 336.02 251.649 335.516 252.513 335.516C253.341 335.516 253.953 336.02 253.953 336.866C253.953 337.694 253.341 338.198 252.513 338.198ZM263.466 335.336L264.114 337.028C263.934 337.19 263.034 338.198 260.712 338.198C258.336 338.198 256.14 336.56 256.14 333.716C256.14 330.854 258.408 329.126 260.748 329.126C262.944 329.126 263.808 330.008 264.042 330.242L263.412 331.97C263.142 331.718 262.368 331.052 261.018 331.052C259.65 331.052 258.552 332.006 258.552 333.608C258.552 335.21 259.65 336.254 261.144 336.254C262.638 336.254 263.466 335.336 263.466 335.336ZM269.902 338.198C267.22 338.198 265.168 336.434 265.168 333.68C265.168 330.926 267.22 329.126 269.902 329.126C272.566 329.126 274.618 330.926 274.618 333.68C274.618 336.434 272.566 338.198 269.902 338.198ZM272.242 333.626C272.242 332.132 271.378 330.98 269.902 330.98C268.39 330.98 267.562 332.132 267.562 333.626C267.562 335.12 268.39 336.29 269.902 336.29C271.378 336.29 272.242 335.12 272.242 333.626ZM287.398 333.122C287.398 332.06 287.164 331.016 286.03 331.016C284.878 331.016 284.284 332.006 284.284 333.5V338H281.98V333.104C281.98 331.916 281.674 331.016 280.576 331.016C279.388 331.016 278.866 332.132 278.866 333.5V338H276.562V329.288H278.866L278.848 330.602H278.902C279.298 329.792 280.36 329.126 281.494 329.126C282.754 329.126 283.51 329.63 283.924 330.782C284.536 329.72 285.526 329.126 286.786 329.126C289.072 329.126 289.702 330.746 289.702 332.744V338H287.398V333.122Z" fill="white"/>
</g>
</g>
<defs>
<filter id="filter0_f_6376_29708" x="18" y="141" width="266" height="314" filterUnits="userSpaceOnUse" color-interpolation-filters="sRGB">
<feFlood flood-opacity="0" result="BackgroundImageFix"/>
<feBlend mode="normal" in="SourceGraphic" in2="BackgroundImageFix" result="shape"/>
<feGaussianBlur stdDeviation="35" result="effect1_foregroundBlur_6376_29708"/>
</filter>
<filter id="filter1_d_6376_29708" x="65.964" y="188.316" width="230.281" height="158.816" filterUnits="userSpaceOnUse" color-interpolation-filters="sRGB">
<feFlood flood-opacity="0" result="BackgroundImageFix"/>
<feColorMatrix in="SourceAlpha" type="matrix" values="0 0 0 0 0 0 0 0 0 0 0 0 0 0 0 0 0 0 127 0" result="hardAlpha"/>
<feOffset dx="5.6844" dy="5.6844"/>
<feGaussianBlur stdDeviation="5.6844"/>
<feColorMatrix type="matrix" values="0 0 0 0 0.0941177 0 0 0 0 0.188235 0 0 0 0 0.247059 0 0 0 0.05 0"/>
<feBlend mode="normal" in2="BackgroundImageFix" result="effect1_dropShadow_6376_29708"/>
<feBlend mode="normal" in="SourceGraphic" in2="effect1_dropShadow_6376_29708" result="shape"/>
</filter>
<filter id="filter2_d_6376_29708" x="61.4932" y="194.614" width="227.853" height="145.619" filterUnits="userSpaceOnUse" color-interpolation-filters="sRGB">
<feFlood flood-opacity="0" result="BackgroundImageFix"/>
<feColorMatrix in="SourceAlpha" type="matrix" values="0 0 0 0 0 0 0 0 0 0 0 0 0 0 0 0 0 0 127 0" result="hardAlpha"/>
<feOffset/>
<feGaussianBlur stdDeviation="5.07762"/>
<feColorMatrix type="matrix" values="0 0 0 0 0 0 0 0 0 0.0486432 0 0 0 0 0.221106 0 0 0 0.06 0"/>
<feBlend mode="normal" in2="BackgroundImageFix" result="effect1_dropShadow_6376_29708"/>
<feBlend mode="normal" in="SourceGraphic" in2="effect1_dropShadow_6376_29708" result="shape"/>
</filter>
<filter id="filter3_bd_6376_29708" x="32.6195" y="154.971" width="285.601" height="88.827" filterUnits="userSpaceOnUse" color-interpolation-filters="sRGB">
<feFlood flood-opacity="0" result="BackgroundImageFix"/>
<feGaussianBlur in="BackgroundImageFix" stdDeviation="19.5145"/>
<feComposite in2="SourceAlpha" operator="in" result="effect1_backgroundBlur_6376_29708"/>
<feColorMatrix in="SourceAlpha" type="matrix" values="0 0 0 0 0 0 0 0 0 0 0 0 0 0 0 0 0 0 127 0" result="hardAlpha"/>
<feMorphology radius="1.40122" operator="erode" in="SourceAlpha" result="effect2_dropShadow_6376_29708"/>
<feOffset dy="5.60487"/>
<feGaussianBlur stdDeviation="13.8878"/>
<feComposite in2="hardAlpha" operator="out"/>
<feColorMatrix type="matrix" values="0 0 0 0 0 0 0 0 0 0 0 0 0 0 0 0 0 0 0.2 0"/>
<feBlend mode="normal" in2="effect1_backgroundBlur_6376_29708" result="effect2_dropShadow_6376_29708"/>
<feBlend mode="normal" in="SourceGraphic" in2="effect2_dropShadow_6376_29708" result="shape"/>
</filter>
<filter id="filter4_bd_6376_29708" x="343.971" y="187.971" width="261.558" height="88.058" filterUnits="userSpaceOnUse" color-interpolation-filters="sRGB">
<feFlood flood-opacity="0" result="BackgroundImageFix"/>
<feGaussianBlur in="BackgroundImageFix" stdDeviation="19.5145"/>
<feComposite in2="SourceAlpha" operator="in" result="effect1_backgroundBlur_6376_29708"/>
<feColorMatrix in="SourceAlpha" type="matrix" values="0 0 0 0 0 0 0 0 0 0 0 0 0 0 0 0 0 0 127 0" result="hardAlpha"/>
<feMorphology radius="1.40122" operator="erode" in="SourceAlpha" result="effect2_dropShadow_6376_29708"/>
<feOffset dy="5.60487"/>
<feGaussianBlur stdDeviation="13.8878"/>
<feComposite in2="hardAlpha" operator="out"/>
<feColorMatrix type="matrix" values="0 0 0 0 0 0 0 0 0 0 0 0 0 0 0 0 0 0 0.2 0"/>
<feBlend mode="normal" in2="effect1_backgroundBlur_6376_29708" result="effect2_dropShadow_6376_29708"/>
<feBlend mode="normal" in="SourceGraphic" in2="effect2_dropShadow_6376_29708" result="shape"/>
</filter>
<filter id="filter5_dd_6376_29708" x="374.108" y="228.108" width="211.447" height="140.947" filterUnits="userSpaceOnUse" color-interpolation-filters="sRGB">
<feFlood flood-opacity="0" result="BackgroundImageFix"/>
<feColorMatrix in="SourceAlpha" type="matrix" values="0 0 0 0 0 0 0 0 0 0 0 0 0 0 0 0 0 0 127 0" result="hardAlpha"/>
<feOffset dx="6.35154" dy="6.35154"/>
<feGaussianBlur stdDeviation="6.35154"/>
<feColorMatrix type="matrix" values="0 0 0 0 0 0 0 0 0 0.296699 0 0 0 0 0.858629 0 0 0 0.08 0"/>
<feBlend mode="normal" in2="BackgroundImageFix" result="effect1_dropShadow_6376_29708"/>
<feColorMatrix in="SourceAlpha" type="matrix" values="0 0 0 0 0 0 0 0 0 0 0 0 0 0 0 0 0 0 127 0" result="hardAlpha"/>
<feOffset/>
<feGaussianBlur stdDeviation="4.44608"/>
<feComposite in2="hardAlpha" operator="out"/>
<feColorMatrix type="matrix" values="0 0 0 0 0.0354167 0 0 0 0 0.105426 0 0 0 0 0.2125 0 0 0 0.07 0"/>
<feBlend mode="normal" in2="effect1_dropShadow_6376_29708" result="effect2_dropShadow_6376_29708"/>
<feBlend mode="normal" in="SourceGraphic" in2="effect2_dropShadow_6376_29708" result="shape"/>
</filter>
<filter id="filter6_dd_6376_29708" x="338.734" y="267.802" width="36.9925" height="36.9923" filterUnits="userSpaceOnUse" color-interpolation-filters="sRGB">
<feFlood flood-opacity="0" result="BackgroundImageFix"/>
<feColorMatrix in="SourceAlpha" type="matrix" values="0 0 0 0 0 0 0 0 0 0 0 0 0 0 0 0 0 0 127 0" result="hardAlpha"/>
<feOffset/>
<feGaussianBlur stdDeviation="2.76644"/>
<feColorMatrix type="matrix" values="0 0 0 0 0.239216 0 0 0 0 0.498039 0 0 0 0 0.988235 0 0 0 1 0"/>
<feBlend mode="normal" in2="BackgroundImageFix" result="effect1_dropShadow_6376_29708"/>
<feColorMatrix in="SourceAlpha" type="matrix" values="0 0 0 0 0 0 0 0 0 0 0 0 0 0 0 0 0 0 127 0" result="hardAlpha"/>
<feOffset/>
<feGaussianBlur stdDeviation="6.9161"/>
<feColorMatrix type="matrix" values="0 0 0 0 0.239216 0 0 0 0 0.498039 0 0 0 0 0.988235 0 0 0 1 0"/>
<feBlend mode="normal" in2="effect1_dropShadow_6376_29708" result="effect2_dropShadow_6376_29708"/>
<feBlend mode="normal" in="SourceGraphic" in2="effect2_dropShadow_6376_29708" result="shape"/>
</filter>
<filter id="filter7_bd_6376_29708" x="142.303" y="261.303" width="208.395" height="142.395" filterUnits="userSpaceOnUse" color-interpolation-filters="sRGB">
<feFlood flood-opacity="0" result="BackgroundImageFix"/>
<feGaussianBlur in="BackgroundImageFix" stdDeviation="24.8487"/>
<feComposite in2="SourceAlpha" operator="in" result="effect1_backgroundBlur_6376_29708"/>
<feColorMatrix in="SourceAlpha" type="matrix" values="0 0 0 0 0 0 0 0 0 0 0 0 0 0 0 0 0 0 127 0" result="hardAlpha"/>
<feMorphology radius="1.78423" operator="erode" in="SourceAlpha" result="effect2_dropShadow_6376_29708"/>
<feOffset dy="7.13694"/>
<feGaussianBlur stdDeviation="17.684"/>
<feComposite in2="hardAlpha" operator="out"/>
<feColorMatrix type="matrix" values="0 0 0 0 0 0 0 0 0 0 0 0 0 0 0 0 0 0 0.2 0"/>
<feBlend mode="normal" in2="effect1_backgroundBlur_6376_29708" result="effect2_dropShadow_6376_29708"/>
<feBlend mode="normal" in="SourceGraphic" in2="effect2_dropShadow_6376_29708" result="shape"/>
</filter>
<linearGradient id="paint0_linear_6376_29708" x1="89.1451" y1="204.769" x2="265.217" y2="348.609" gradientUnits="userSpaceOnUse">
<stop stop-color="#0C2966"/>
<stop offset="1" stop-color="#0045C9"/>
</linearGradient>
<linearGradient id="paint1_linear_6376_29708" x1="101.683" y1="193.537" x2="104.92" y2="223.17" gradientUnits="userSpaceOnUse">
<stop offset="0.28" stop-color="#092349"/>
<stop offset="1" stop-color="#003C97"/>
</linearGradient>
<linearGradient id="paint2_linear_6376_29708" x1="409.555" y1="226.57" x2="412.708" y2="254.054" gradientUnits="userSpaceOnUse">
<stop offset="0.28" stop-color="#092349"/>
<stop offset="1" stop-color="#003C97"/>
</linearGradient>
<linearGradient id="paint3_linear_6376_29708" x1="398.47" y1="254" x2="535.887" y2="383.56" gradientUnits="userSpaceOnUse">
<stop stop-color="#0C2966"/>
<stop offset="1" stop-color="#0045C9"/>
</linearGradient>
<linearGradient id="paint4_linear_6376_29708" x1="434.861" y1="293.897" x2="488.963" y2="293.897" gradientUnits="userSpaceOnUse">
<stop stop-color="#3D7FFC"/>
<stop offset="0.825907" stop-color="#3D8BFC" stop-opacity="0"/>
</linearGradient>
<linearGradient id="paint5_linear_6376_29708" x1="434.861" y1="293.897" x2="454.656" y2="294.071" gradientUnits="userSpaceOnUse">
<stop stop-color="#3D7FFC"/>
<stop offset="0.825907" stop-color="#3D8BFC" stop-opacity="0"/>
</linearGradient>
<linearGradient id="paint6_linear_6376_29708" x1="207.774" y1="309.152" x2="266.625" y2="380.006" gradientUnits="userSpaceOnUse">
<stop offset="0.28" stop-color="#092349"/>
<stop offset="1" stop-color="#003C97"/>
</linearGradient>
<linearGradient id="paint7_linear_6376_29708" x1="206.817" y1="311.86" x2="254.425" y2="376.416" gradientUnits="userSpaceOnUse">
<stop stop-color="white" stop-opacity="0"/>
<stop offset="1" stop-color="#BBB7FF"/>
</linearGradient>
<clipPath id="clip0_6376_29708">
<rect width="589" height="577" fill="white"/>
</clipPath>
</defs>
</svg>
