<svg width="588" height="312" viewBox="0 0 588 312" fill="none" xmlns="http://www.w3.org/2000/svg">
<path d="M0 8C0 3.58172 3.58172 0 8 0H580C584.418 0 588 3.58172 588 8V303C588 307.418 584.418 311 580 311H7.99998C3.58171 311 0 307.418 0 303V8Z" fill="#22395B"/>
<rect x="239.205" y="39.8713" width="117.741" height="230.201" rx="15" fill="url(#paint0_linear_6424_4664)"/>
<path d="M338.871 37.2314H256.941C245.443 37.2314 236.037 46.6348 236.037 58.1295V250.968C236.037 262.461 245.443 271.866 256.941 271.866H338.871C350.367 271.866 359.775 262.463 359.775 250.968V58.1295C359.773 46.6348 350.367 37.2314 338.871 37.2314ZM325.239 41.4899H338.871C343.294 41.4899 347.468 43.2278 350.622 46.3807C353.777 49.5351 355.514 53.7074 355.514 58.128V250.967C355.514 255.389 353.775 259.561 350.622 262.714C347.466 265.868 343.293 267.605 338.871 267.605H256.941C252.518 267.605 248.344 265.867 245.19 262.714C242.035 259.559 240.298 255.387 240.298 250.967V58.1295C240.298 53.7074 242.037 49.5351 245.19 46.3822C248.346 43.2278 252.519 41.4914 256.941 41.4914H270.573" fill="#024BCD"/>
<rect x="374.369" y="233.642" width="31.9092" height="31.9092" rx="15.9546" fill="#3D7FFC"/>
<path d="M397.839 243.64C396.925 242.639 395.652 242.089 394.263 242.089C392.301 242.089 391.066 243.208 390.371 244.147C390.313 244.227 390.255 244.308 390.204 244.388C390.146 244.308 390.095 244.227 390.037 244.147C389.342 243.208 388.107 242.089 386.145 242.089C384.763 242.089 383.489 242.639 382.576 243.64C381.707 244.579 381.231 245.846 381.231 247.187C381.231 248.645 381.817 249.998 383.077 251.438C384.171 252.693 385.734 253.965 387.548 255.455C388.217 255.998 388.905 256.567 389.664 257.203C389.818 257.333 390.011 257.401 390.21 257.401C390.41 257.401 390.603 257.333 390.776 257.185C391.51 256.567 392.204 255.998 392.88 255.442C394.687 253.965 396.244 252.686 397.337 251.438C398.598 249.998 399.183 248.651 399.183 247.187C399.183 245.84 398.707 244.579 397.839 243.634V243.64ZM392.005 254.478L391.799 254.243C391.285 254.664 390.757 255.096 390.21 255.553C389.702 255.133 389.213 254.732 388.744 254.342L388.622 254.243C385.168 251.413 382.891 249.547 382.891 247.187C382.891 246.229 383.219 245.34 383.817 244.691C384.415 244.042 385.245 243.684 386.152 243.684C387.406 243.684 388.223 244.437 388.686 245.068C389.117 245.648 389.342 246.242 389.419 246.47C389.529 246.798 389.85 247.02 390.204 247.02C390.558 247.02 390.879 246.798 390.995 246.47C391.072 246.248 391.297 245.655 391.728 245.068C392.191 244.437 393.008 243.684 394.263 243.684C395.169 243.684 395.999 244.042 396.597 244.691C397.195 245.346 397.524 246.229 397.524 247.187C397.524 249.547 395.247 251.413 391.793 254.237L391.998 254.472L392.005 254.478Z" fill="white"/>
<rect x="162.468" y="221.908" width="22.3089" height="22.3089" rx="11.1545" fill="#76A5FF"/>
<g clip-path="url(#clip0_6424_4664)">
<path d="M179.36 230.971C179.127 230.742 178.721 230.742 178.488 230.971C178.372 231.087 178.307 231.241 178.307 231.405V234.82C178.307 235.182 178.164 235.524 177.904 235.78C177.641 236.037 177.296 236.18 176.927 236.18H174.44L174.966 235.661C175.082 235.548 175.147 235.387 175.147 235.226C175.147 235.066 175.082 234.909 174.966 234.792C174.734 234.563 174.327 234.563 174.095 234.792L172.506 236.358C172.448 236.416 172.404 236.481 172.373 236.556C172.342 236.631 172.325 236.71 172.325 236.792C172.325 236.874 172.342 236.953 172.373 237.028C172.404 237.103 172.448 237.168 172.506 237.226L174.047 238.747C174.105 238.806 174.173 238.85 174.249 238.881C174.324 238.912 174.402 238.929 174.484 238.929C174.566 238.929 174.645 238.912 174.72 238.881C174.795 238.85 174.864 238.806 174.922 238.747C174.98 238.689 175.024 238.624 175.055 238.549C175.086 238.474 175.103 238.395 175.103 238.313C175.103 238.231 175.086 238.153 175.055 238.077C175.024 238.002 174.98 237.937 174.922 237.879L174.44 237.404H176.927C177.624 237.404 178.283 237.134 178.779 236.649C179.274 236.16 179.547 235.514 179.547 234.82V231.405C179.547 231.241 179.482 231.087 179.366 230.971H179.36Z" fill="white"/>
<path d="M172.502 230.564C172.386 230.677 172.321 230.837 172.321 230.998C172.321 231.159 172.386 231.319 172.502 231.432C172.734 231.661 173.141 231.661 173.373 231.432L174.962 229.866C175.02 229.808 175.064 229.743 175.095 229.668C175.126 229.593 175.143 229.514 175.143 229.432C175.143 229.35 175.126 229.272 175.095 229.196C175.064 229.121 175.02 229.056 174.962 228.998L173.421 227.477C173.188 227.248 172.782 227.248 172.55 227.477C172.433 227.593 172.369 227.747 172.369 227.911C172.369 228.075 172.433 228.232 172.55 228.345L173.031 228.82H170.544C169.847 228.82 169.188 229.09 168.693 229.576C168.197 230.065 167.924 230.714 167.924 231.405V234.82C167.924 234.98 167.989 235.141 168.105 235.254C168.221 235.37 168.375 235.432 168.542 235.432C168.71 235.432 168.86 235.367 168.979 235.254C169.096 235.141 169.161 234.98 169.161 234.82V231.405C169.161 231.042 169.304 230.7 169.564 230.444C169.827 230.188 170.172 230.044 170.541 230.044H173.028L172.502 230.564Z" fill="white"/>
</g>
<g opacity="0.8">
<rect x="370.143" y="60.4629" width="18.073" height="18.073" rx="9.03649" fill="#76A5FF"/>
<g clip-path="url(#clip1_6424_4664)">
<path d="M383.722 67.685C383.532 67.4976 383.199 67.4976 383.009 67.685C382.914 67.7801 382.861 67.9059 382.861 68.0402V70.8342C382.861 71.1307 382.744 71.4104 382.531 71.6202C382.316 71.8299 382.034 71.9474 381.732 71.9474H379.697L380.127 71.5223C380.223 71.43 380.276 71.2985 380.276 71.1671C380.276 71.0356 380.223 70.907 380.127 70.8119C379.937 70.6245 379.605 70.6245 379.415 70.8119L378.115 72.0928C378.067 72.1404 378.031 72.1935 378.006 72.255C377.981 72.3166 377.967 72.3809 377.967 72.448C377.967 72.5152 377.981 72.5795 378.006 72.641C378.031 72.7025 378.067 72.7557 378.115 72.8032L379.376 74.0478C379.423 74.0954 379.479 74.1317 379.541 74.1569C379.602 74.1821 379.666 74.1961 379.733 74.1961C379.8 74.1961 379.865 74.1821 379.926 74.1569C379.988 74.1317 380.044 74.0954 380.091 74.0478C380.139 74.0003 380.175 73.9471 380.2 73.8856C380.225 73.8241 380.239 73.7598 380.239 73.6926C380.239 73.6255 380.225 73.5612 380.2 73.4996C380.175 73.4381 380.139 73.385 380.091 73.3374L379.697 72.9487H381.732C382.302 72.9487 382.842 72.7277 383.247 72.3306C383.652 71.9306 383.876 71.402 383.876 70.8342V68.0402C383.876 67.9059 383.823 67.7801 383.728 67.685H383.722Z" fill="white"/>
<path d="M378.112 67.3524C378.017 67.4447 377.964 67.5761 377.964 67.7076C377.964 67.839 378.017 67.9705 378.112 68.0628C378.302 68.2502 378.635 68.2502 378.825 68.0628L380.124 66.7818C380.172 66.7343 380.208 66.6811 380.233 66.6196C380.259 66.5581 380.272 66.4938 380.272 66.4266C380.272 66.3595 380.259 66.2952 380.233 66.2336C380.208 66.1721 380.172 66.119 380.124 66.0714L378.864 64.8268C378.674 64.6394 378.341 64.6394 378.151 64.8268C378.056 64.9219 378.003 65.0478 378.003 65.182C378.003 65.3163 378.056 65.4449 378.151 65.5372L378.545 65.926H376.51C375.94 65.926 375.4 66.1469 374.995 66.5441C374.59 66.944 374.366 67.4754 374.366 68.0404V70.8345C374.366 70.9659 374.419 71.0974 374.514 71.1897C374.609 71.2848 374.735 71.3351 374.872 71.3351C375.009 71.3351 375.132 71.282 375.23 71.1897C375.325 71.0974 375.378 70.9659 375.378 70.8345V68.0404C375.378 67.7439 375.495 67.4643 375.708 67.2545C375.923 67.0447 376.205 66.9273 376.507 66.9273H378.542L378.112 67.3524Z" fill="white"/>
</g>
</g>
<path d="M156.312 162.505C156.312 160.172 158.204 158.281 160.536 158.281H218.266C220.599 158.281 222.49 160.172 222.49 162.505V170.602C222.49 172.935 220.599 174.826 218.266 174.826H160.536C158.204 174.826 156.312 172.935 156.312 170.602V162.505Z" fill="#FECE4D"/>
<path d="M178.222 166.776H206.168" stroke="#22395B" stroke-width="3.6959" stroke-linecap="round"/>
<path d="M171.068 165.292V164.032H169.506L170.041 160.963H168.687L168.137 164.032H166.292L166.828 160.963H165.459L164.923 164.032H163.093V165.292H164.7L164.343 167.382H162.572V168.641H164.12L163.584 171.695H164.953L165.489 168.641H167.333L166.798 171.695H168.167L168.702 168.641H170.562V167.382H168.925L169.283 165.292H171.068ZM167.914 165.292L167.557 167.382H165.712L166.069 165.292H167.914Z" fill="#22395B"/>
<path d="M383.654 108.53C383.654 106.197 385.545 104.306 387.878 104.306H424.453C426.786 104.306 428.677 106.197 428.677 108.53V111.338C428.677 113.671 426.786 115.562 424.453 115.562H387.878C385.545 115.562 383.654 113.671 383.654 111.338V108.53Z" fill="#15C1E6"/>
<path d="M398.562 110.086H417.574" stroke="#22395B" stroke-width="2.11194" stroke-linecap="round"/>
<path d="M393.376 109.191V108.465H392.475L392.784 106.695H392.003L391.686 108.465H390.621L390.93 106.695H390.141L389.832 108.465H388.776V109.191H389.703L389.497 110.397H388.476V111.124H389.368L389.059 112.885H389.849L390.158 111.124H391.222L390.913 112.885H391.703L392.012 111.124H393.085V110.397H392.141L392.347 109.191H393.376ZM391.557 109.191L391.351 110.397H390.287L390.493 109.191H391.557Z" fill="#22395B"/>
<path d="M193.768 43.1785C193.768 41.0028 195.531 39.239 197.707 39.239H221.344C223.52 39.239 225.283 41.0028 225.283 43.1785C225.283 45.3542 223.52 47.1179 221.344 47.1179H197.707C195.531 47.1179 193.768 45.3542 193.768 43.1785Z" fill="#D2DCE4"/>
<path d="M204.203 43.2856H217.512" stroke="#22395B" stroke-width="1.05597" stroke-linecap="round"/>
<path d="M200.572 42.6584V42.1496H199.941L200.158 40.9106H199.611L199.389 42.1496H198.644L198.86 40.9106H198.307L198.091 42.1496H197.352V42.6584H198.001L197.857 43.5023H197.142V44.0111H197.766L197.55 45.2441H198.103L198.319 44.0111H199.064L198.848 45.2441H199.401L199.617 44.0111H200.368V43.5023H199.707L199.851 42.6584H200.572ZM199.299 42.6584L199.154 43.5023H198.409L198.554 42.6584H199.299Z" fill="#22395B"/>
<g filter="url(#filter0_bd_6424_4664)">
<path d="M330.329 71.0522H213.6C212.592 71.0527 211.625 71.4536 210.912 72.1669C210.2 72.8802 209.799 73.8475 209.799 74.8563V118.243C209.799 119.252 210.2 120.219 210.912 120.932C211.625 121.646 212.592 122.046 213.6 122.047H259.659L268.203 127.383L276.746 132.72L271.401 122.047H330.329C331.337 122.046 332.304 121.646 333.016 120.932C333.729 120.219 334.13 119.252 334.13 118.243V74.8563C334.13 73.8475 333.729 72.8802 333.016 72.1669C332.304 71.4536 331.337 71.0527 330.329 71.0522Z" fill="url(#paint1_linear_6424_4664)" shape-rendering="crispEdges"/>
<path d="M275.503 131.353L270.954 122.271L270.591 121.547H271.401H330.329C330.329 121.547 330.329 121.547 330.329 121.547C331.204 121.546 332.044 121.198 332.663 120.579C333.282 119.959 333.63 119.119 333.63 118.243L275.503 131.353ZM275.503 131.353L268.468 126.959L259.924 121.623L259.803 121.547H259.659H213.6C213.6 121.547 213.6 121.547 213.6 121.547C212.724 121.546 211.885 121.198 211.266 120.579C210.647 119.959 210.299 119.119 210.299 118.243C210.299 118.243 210.299 118.243 210.299 118.243V74.8565L210.299 74.8563L275.503 131.353ZM330.329 71.5522C331.204 71.5527 332.044 71.9008 332.663 72.5203L333.016 72.1669L332.663 72.5203C333.282 73.1398 333.63 73.98 333.63 74.8563C333.63 74.8564 333.63 74.8565 333.63 74.8565V118.243L330.329 71.5522Z" stroke="url(#paint2_linear_6424_4664)" shape-rendering="crispEdges"/>
</g>
<path d="M304.346 90.0298H259.265C258.393 90.0298 257.687 90.7364 257.687 91.6081C257.687 92.4797 258.393 93.1863 259.265 93.1863H304.346C305.217 93.1863 305.924 92.4797 305.924 91.6081C305.924 90.7364 305.217 90.0298 304.346 90.0298Z" fill="#8599AC"/>
<path d="M317.877 80.5261H259.799C258.924 80.5261 258.215 81.2353 258.215 82.1101C258.215 82.9849 258.924 83.694 259.799 83.694H317.877C318.752 83.694 319.461 82.9849 319.461 82.1101C319.461 81.2353 318.752 80.5261 317.877 80.5261Z" fill="#9FC0FF"/>
<path d="M286.201 99.4695H259.608C258.672 99.4695 257.913 100.229 257.913 101.165C257.913 102.101 258.672 102.86 259.608 102.86H286.201C287.138 102.86 287.897 102.101 287.897 101.165C287.897 100.229 287.138 99.4695 286.201 99.4695Z" fill="#EDF1F6"/>
<path d="M322.548 99.4695H291.474C290.537 99.4695 289.778 100.229 289.778 101.165C289.778 102.101 290.537 102.86 291.474 102.86H322.548C323.484 102.86 324.243 102.101 324.243 101.165C324.243 100.229 323.484 99.4695 322.548 99.4695Z" fill="#8599AC"/>
<path d="M322.548 109.117H306.11C305.174 109.117 304.415 109.876 304.415 110.812C304.415 111.748 305.174 112.507 306.11 112.507H322.548C323.484 112.507 324.243 111.748 324.243 110.812C324.243 109.876 323.484 109.117 322.548 109.117Z" fill="#8599AC"/>
<path d="M300.026 109.117H259.836C258.9 109.117 258.141 109.876 258.141 110.812C258.141 111.748 258.9 112.507 259.836 112.507H300.026C300.962 112.507 301.721 111.748 301.721 110.812C301.721 109.876 300.962 109.117 300.026 109.117Z" fill="#8599AC"/>
<mask id="mask0_6424_4664" style="mask-type:alpha" maskUnits="userSpaceOnUse" x="215" y="78" width="38" height="38">
<circle cx="233.837" cy="97.0785" r="18.7323" fill="#C4C4C4"/>
</mask>
<g mask="url(#mask0_6424_4664)">
<path d="M233.358 116.481C243.931 116.481 252.502 107.911 252.502 97.3403C252.502 86.7693 243.931 78.1997 233.358 78.1997C222.785 78.1997 214.214 86.7693 214.214 97.3403C214.214 107.911 222.785 116.481 233.358 116.481Z" fill="#5D5FEF"/>
<path d="M226.528 110.653C228.264 110.653 229.671 108.617 229.671 106.105C229.671 103.593 228.264 101.557 226.528 101.557C224.793 101.557 223.386 103.593 223.386 106.105C223.386 108.617 224.793 110.653 226.528 110.653Z" fill="#FEB79C"/>
<path d="M224.324 113.593L243.596 112.517C243.596 112.517 246.536 104.486 245.876 103.954C245.204 103.421 234.093 97.5308 234.093 97.5308L223.248 97.797L224.324 113.593Z" fill="#2C2D00"/>
<path d="M234.224 132.33C241.466 132.33 247.338 126.999 247.338 120.422C247.338 113.845 241.466 108.513 234.224 108.513C226.981 108.513 221.109 113.845 221.109 120.422C221.109 126.999 226.981 132.33 234.224 132.33Z" fill="#9FC0FF"/>
<path d="M233.565 112.391C231.999 112.391 230.713 111.407 230.671 110.183L230.489 104.555C230.447 103.309 231.72 102.26 233.314 102.238C234.922 102.216 236.25 103.199 236.278 104.445L236.46 110.074C236.502 111.32 235.229 112.369 233.635 112.391C233.621 112.391 233.593 112.391 233.565 112.391Z" fill="#FEB79C"/>
<path d="M233.365 102.026C232.332 102.047 231.48 102.793 231.267 103.762L231.352 107.096C231.384 108.299 232.364 109.247 233.557 109.247C233.578 109.247 233.589 109.247 233.61 109.247C234.644 109.226 235.496 108.48 235.709 107.511L235.624 104.177C235.592 102.952 234.59 101.994 233.365 102.026Z" fill="#FAA887"/>
<path d="M240.248 96.1994C240.248 101.184 236.231 106.84 232.918 106.84C230.404 106.84 225.589 101.195 225.589 96.1994C225.589 91.2145 228.87 87.167 232.918 87.167C236.967 87.167 240.248 91.2145 240.248 96.1994Z" fill="#FEB79C"/>
<path d="M229.499 88.9663C228.817 89.0408 228.082 89.5521 227.357 90.3084C226.249 91.8848 225.589 93.9405 225.589 96.1986C225.589 98.936 227.038 101.865 228.764 103.964C227.975 102.334 227.613 100.694 228.604 98.7123C229.499 96.9122 230.809 92.886 230.809 92.886C230.809 92.886 232.215 88.668 229.499 88.9663Z" fill="#FAA887"/>
<path d="M232.922 87.167C230.386 87.167 228.16 88.7541 226.839 91.1613C227.51 92.5886 229.705 96.2633 234.829 97.3072C238.92 98.138 236.48 101.962 236.416 105.072C238.536 103.006 240.251 99.4588 240.251 96.1994C240.251 91.2145 236.97 87.167 232.922 87.167Z" fill="#FAA887"/>
<path d="M227.405 89.7765C227.405 89.7765 229.237 95.1981 235.64 96.4975C240.562 97.4988 236.045 102.824 237.547 106.031C238.665 108.416 241.158 107.841 239.251 110.249C237.344 112.656 238.847 120.783 244.567 118.983C250.288 117.172 251.194 107.639 248.988 103.73C246.783 99.8101 243.864 98.5107 243.566 94.8998C243.268 91.289 240.551 85.5692 234.937 85.1644C231.379 84.9088 226.499 84.5573 227.405 89.7765Z" fill="#2E2F06"/>
<path d="M229.608 91.9805C229.608 91.9805 228.297 96.0067 227.402 97.8068C225.9 100.821 227.498 103.026 229.011 105.636C230.119 107.553 228.723 110.109 227.903 111.355C226.401 113.667 225.091 114.167 226.795 115.968C228.5 117.778 218.763 124.499 217.761 118.375C216.76 112.25 219.668 110.141 221.074 107.329C222.481 104.517 219.572 104.624 221.277 98.4992C222.161 95.3357 225.591 88.359 228.308 88.0608C231.014 87.7625 229.608 91.9805 229.608 91.9805Z" fill="#2E2F06"/>
</g>
<g filter="url(#filter1_bd_6424_4664)">
<path d="M288.622 133.811H405.352C406.36 133.812 407.326 134.213 408.039 134.926C408.751 135.639 409.152 136.607 409.152 137.615V181.002C409.152 182.011 408.751 182.978 408.039 183.691C407.326 184.405 406.36 184.805 405.352 184.806H339.71L322.623 195.479L327.968 184.806H288.622C287.614 184.805 286.648 184.405 285.935 183.691C285.222 182.978 284.822 182.011 284.821 181.002V137.615C284.822 136.607 285.222 135.639 285.935 134.926C286.648 134.213 287.614 133.812 288.622 133.811Z" fill="url(#paint3_linear_6424_4664)" shape-rendering="crispEdges"/>
<path d="M323.866 194.113L328.415 185.03L328.778 184.306H327.968H288.622C288.622 184.306 288.622 184.306 288.622 184.306C287.747 184.305 286.908 183.957 286.289 183.338C285.67 182.718 285.322 181.878 285.321 181.002L323.866 194.113ZM323.866 194.113L339.445 184.382L339.566 184.306H339.71H405.351C405.352 184.306 405.352 184.306 405.352 184.306C406.227 184.305 407.066 183.957 407.685 183.338C408.304 182.718 408.652 181.878 408.652 181.002C408.652 181.002 408.652 181.002 408.652 181.002V137.616L408.652 137.615L323.866 194.113ZM288.622 134.311C287.747 134.312 286.908 134.66 286.289 135.279L285.935 134.926L286.289 135.279C285.67 135.899 285.322 136.739 285.321 137.615C285.321 137.615 285.321 137.615 285.321 137.616V181.002L288.622 134.311Z" stroke="url(#paint4_linear_6424_4664)" shape-rendering="crispEdges"/>
</g>
<path d="M362.003 170.812H335.41C334.474 170.812 333.715 171.571 333.715 172.507C333.715 173.443 334.474 174.202 335.41 174.202H362.003C362.939 174.202 363.698 173.443 363.698 172.507C363.698 171.571 362.939 170.812 362.003 170.812Z" fill="#8599AC"/>
<path d="M398.879 170.812H367.805C366.868 170.812 366.109 171.571 366.109 172.507C366.109 173.443 366.868 174.202 367.805 174.202H398.879C399.815 174.202 400.574 173.443 400.574 172.507C400.574 171.571 399.815 170.812 398.879 170.812Z" fill="#8599AC"/>
<path d="M398.652 161.308H382.215C381.279 161.308 380.52 162.067 380.52 163.003C380.52 163.94 381.279 164.699 382.215 164.699H398.652C399.588 164.699 400.347 163.94 400.347 163.003C400.347 162.067 399.588 161.308 398.652 161.308Z" fill="#8599AC"/>
<path d="M375.6 161.308H335.41C334.474 161.308 333.715 162.067 333.715 163.003C333.715 163.94 334.474 164.699 335.41 164.699H375.6C376.536 164.699 377.295 163.94 377.295 163.003C377.295 162.067 376.536 161.308 375.6 161.308Z" fill="#8599AC"/>
<path d="M365.922 142.3H335.299C334.424 142.3 333.715 143.009 333.715 143.884C333.715 144.759 334.424 145.468 335.299 145.468H365.922C366.797 145.468 367.506 144.759 367.506 143.884C367.506 143.009 366.797 142.3 365.922 142.3Z" fill="#9FC0FF"/>
<mask id="mask1_6424_4664" style="mask-type:alpha" maskUnits="userSpaceOnUse" x="290" y="141" width="38" height="38">
<ellipse cx="309.151" cy="159.956" rx="18.6786" ry="18.6786" fill="#C4C4C4"/>
</mask>
<g mask="url(#mask1_6424_4664)">
<ellipse cx="309.902" cy="159.553" rx="19.4436" ry="19.4436" fill="#FECE4D"/>
<path d="M301.228 162.503C301.276 162.404 301.22 162.279 301.116 162.249C300.679 162.12 300.354 161.84 300.281 161.483C300.233 161.246 300.302 161.005 300.458 160.799C300.497 160.747 300.501 160.67 300.475 160.61C300.108 160.579 299.796 160.321 299.748 159.981C299.722 159.809 299.77 159.642 299.865 159.508C299.861 159.495 299.857 159.482 299.852 159.469C299.839 159.422 299.818 159.375 299.774 159.358C298.796 158.957 297.909 156.234 300.242 154.844C300.341 154.784 300.35 154.629 300.255 154.552C299.709 154.091 299.376 153.489 299.407 152.878C299.463 151.772 300.679 151.062 302.124 151.299C302.146 151.303 302.163 151.307 302.185 151.307C302.31 151.329 302.401 151.191 302.345 151.067C301.89 150.021 301.856 149.044 302.332 148.601C302.782 148.18 303.578 148.343 304.387 148.937C304.491 149.014 304.625 148.95 304.634 148.816C304.677 148.068 304.976 147.517 305.383 147.517C305.651 147.517 305.911 147.766 306.097 148.149C306.162 148.287 306.339 148.287 306.387 148.154C306.91 146.747 307.875 145.916 308.658 146.265C309.104 146.463 309.403 146.996 309.528 147.702C309.554 147.853 309.732 147.904 309.814 147.788C310.467 146.867 311.476 146.471 312.402 146.884C313.064 147.177 313.553 147.822 313.799 148.614C313.825 148.696 313.895 148.747 313.968 148.747C314.388 148.735 314.829 148.821 315.266 149.014C316.746 149.668 317.655 151.35 317.447 152.921C317.43 153.037 317.525 153.145 317.633 153.132C318.356 153.067 319.036 153.437 319.269 154.091C319.481 154.676 319.274 155.326 318.802 155.761C318.698 155.855 318.759 156.053 318.901 156.07C319.525 156.161 320.035 156.548 320.143 157.086C320.265 157.688 319.84 158.282 319.157 158.523C319.036 158.566 319.014 158.742 319.122 158.833C319.615 159.241 319.892 159.697 319.78 159.99C319.672 160.274 319.23 160.321 318.676 160.154C318.551 160.115 318.447 160.248 318.495 160.382C318.702 160.919 318.685 161.449 318.412 161.763C318.161 162.047 317.75 162.085 317.322 161.918C317.214 161.875 317.101 161.965 317.114 162.09C317.183 162.757 316.963 163.342 316.508 163.548C316.149 163.712 315.721 163.596 315.349 163.29C315.288 163.243 315.21 163.243 315.154 163.29C314.379 163.978 313.462 164.538 312.428 164.925C311.125 165.411 309.957 165.527 308.684 165.385C308.576 165.373 308.494 165.476 308.516 165.592C308.715 166.582 308.113 167.158 307.239 167.3C306.932 167.352 306.464 167.201 306.313 166.99C306.291 166.956 306.157 166.887 306.027 167.025C305.469 167.593 304.379 166.99 304.175 166.001C304.128 165.773 304.123 165.549 304.149 165.338C304.162 165.226 303.998 165.007 303.756 165.166C303.665 165.226 303.544 165.243 303.422 165.265C302.553 165.42 301.285 164.719 301.081 163.729C301.003 163.273 301.064 162.851 301.228 162.503Z" fill="#4F381D"/>
<path d="M319.866 199.375C323.367 189.015 328.183 181.502 325.656 177.325C323.237 173.323 322.475 173.413 320.619 173.121C313.894 172.058 313.453 169.404 309.619 169.524C309.545 169.528 309.078 169.524 308.996 169.524C305.187 169.416 303.686 172.256 298.021 173.121C296.165 173.405 295.408 173.323 292.984 177.325C290.457 181.502 295.273 189.015 298.77 199.375C300.639 204.904 297.645 210.166 296.663 212.098C295.581 214.232 295.092 214.008 295.26 215.527C295.529 217.932 301.977 219.769 308.403 219.705C308.706 219.7 310.056 219.705 310.428 219.705C316.785 219.726 323.103 217.902 323.371 215.527C323.54 214.008 323.055 214.232 321.969 212.098C320.991 210.166 318.001 204.9 319.866 199.375Z" fill="#3D7FFC"/>
<path d="M313.924 172.058C313.539 166.181 313.509 161.302 311.86 162.025C311.284 162.279 307.351 162.279 306.779 162.025C305.131 161.302 305.07 165.527 304.715 172.058C304.663 173.039 306.005 175.457 309.32 175.457C312.487 175.457 313.989 173.044 313.924 172.058Z" fill="#E79473"/>
<path d="M314.551 155.859C313.972 153.322 311.725 151.87 309.266 151.925C306.807 151.87 304.561 153.322 303.981 155.859C303.593 157.557 303.479 166.725 305.927 169.575C306.415 170.143 308.086 171.837 309.251 171.837C310.567 171.837 312.135 170.164 312.601 169.575C314.591 167.056 314.444 163.841 314.69 161.517C314.968 158.853 314.935 157.557 314.551 155.859Z" fill="#D78361"/>
<path d="M315.495 154.505C314.812 151.928 312.159 150.452 309.255 150.508C306.352 150.452 303.699 151.928 303.015 154.505C302.557 156.23 302.422 165.545 305.313 168.441C305.889 169.017 307.862 170.738 309.238 170.738C310.792 170.738 312.644 169.039 313.193 168.441C315.543 165.881 315.37 162.615 315.66 160.253C315.989 157.547 315.95 156.23 315.495 154.505Z" fill="#E79473"/>
<path d="M302.019 153.398C301.955 153.175 301.907 152.934 301.89 152.689C301.786 151.247 302.599 150.017 303.711 149.939C304.278 149.901 304.815 150.172 305.213 150.636C305.59 150.43 306.061 150.288 306.585 150.249C307.152 150.21 307.684 150.296 308.104 150.481C308.294 149.427 308.991 148.627 309.878 148.567C310.934 148.489 311.873 149.483 312.05 150.821C312.444 150.585 312.942 150.425 313.496 150.387C314.785 150.296 315.884 150.886 316.036 151.725C316.733 152.103 317.256 152.955 317.33 153.984C317.373 154.59 317.256 155.158 317.018 155.619C317.477 155.718 317.832 156.07 317.862 156.522C317.901 157.077 317.434 157.563 316.819 157.606C316.737 157.611 316.659 157.611 316.585 157.602C316.542 157.826 316.469 158.058 316.36 158.278C315.832 159.362 314.72 159.908 313.872 159.504C313.197 159.177 312.898 158.338 313.076 157.46C312.622 157.675 312.124 157.753 311.626 157.649C310.813 157.482 310.185 156.879 309.865 156.07C309.692 156.208 309.484 156.273 309.276 156.234C309.043 156.191 308.852 156.019 308.744 155.782C308.407 156.002 308.013 156.144 307.58 156.174C306.788 156.23 306.061 155.903 305.577 155.356C305.581 155.382 305.585 155.412 305.585 155.438C305.685 156.819 304.689 158.015 303.361 158.11C302.032 158.204 300.877 157.163 300.777 155.782C300.704 154.762 301.219 153.855 302.019 153.398Z" fill="#4F381D"/>
</g>
<path d="M352.722 151.804H335.299C334.424 151.804 333.715 152.513 333.715 153.388C333.715 154.263 334.424 154.972 335.299 154.972H352.722C353.597 154.972 354.306 154.263 354.306 153.388C354.306 152.513 353.597 151.804 352.722 151.804Z" fill="#8599AC"/>
<path d="M389.681 151.804H359.058C358.183 151.804 357.474 152.513 357.474 153.388C357.474 154.263 358.183 154.972 359.058 154.972H389.681C390.556 154.972 391.265 154.263 391.265 153.388C391.265 152.513 390.556 151.804 389.681 151.804Z" fill="#8599AC"/>
<g filter="url(#filter2_bd_6424_4664)">
<path d="M330.325 199.739H213.596C212.588 199.74 211.621 200.141 210.909 200.854C210.196 201.567 209.795 202.535 209.795 203.543V246.93C209.795 247.939 210.196 248.906 210.909 249.619C211.621 250.333 212.588 250.733 213.596 250.734H259.655L268.199 256.07L276.743 261.407L271.397 250.734H330.325C331.333 250.733 332.3 250.333 333.012 249.619C333.725 248.906 334.126 247.939 334.126 246.93V203.543C334.126 202.535 333.725 201.567 333.012 200.854C332.3 200.141 331.333 199.74 330.325 199.739Z" fill="url(#paint5_linear_6424_4664)" shape-rendering="crispEdges"/>
<path d="M275.499 260.041L270.95 250.958L270.587 250.234H271.397H330.325C330.325 250.234 330.325 250.234 330.325 250.234C331.2 250.233 332.04 249.885 332.659 249.266C333.278 248.646 333.626 247.806 333.626 246.93L275.499 260.041ZM275.499 260.041L268.464 255.646L259.92 250.31L259.799 250.234H259.655H213.596C213.596 250.234 213.596 250.234 213.596 250.234C212.72 250.233 211.881 249.885 211.262 249.266C210.643 248.646 210.295 247.806 210.295 246.93C210.295 246.93 210.295 246.93 210.295 246.93V203.544L210.295 203.543L275.499 260.041ZM330.325 200.239C331.2 200.24 332.04 200.588 332.659 201.207L333.012 200.854L332.659 201.207C333.278 201.827 333.626 202.667 333.626 203.543C333.626 203.543 333.626 203.543 333.626 203.544V246.93L330.325 200.239Z" stroke="url(#paint6_linear_6424_4664)" shape-rendering="crispEdges"/>
</g>
<path d="M304.568 208.014H259.487C258.616 208.014 257.909 208.72 257.909 209.592C257.909 210.464 258.616 211.17 259.487 211.17H304.568C305.44 211.17 306.147 210.464 306.147 209.592C306.147 208.72 305.44 208.014 304.568 208.014Z" fill="#9FC0FF"/>
<path d="M286.198 218.33H259.27C258.396 218.33 257.687 219.039 257.687 219.914C257.687 220.789 258.396 221.498 259.27 221.498H286.198C287.073 221.498 287.782 220.789 287.782 219.914C287.782 219.039 287.073 218.33 286.198 218.33Z" fill="#8599AC"/>
<path d="M310.485 218.33H293.061C292.187 218.33 291.478 219.039 291.478 219.914C291.478 220.789 292.187 221.498 293.061 221.498H310.485C311.36 221.498 312.069 220.789 312.069 219.914C312.069 219.039 311.36 218.33 310.485 218.33Z" fill="#8599AC"/>
<path d="M286.197 228.158H259.605C258.668 228.158 257.909 228.917 257.909 229.853C257.909 230.789 258.668 231.548 259.605 231.548H286.197C287.134 231.548 287.893 230.789 287.893 229.853C287.893 228.917 287.134 228.158 286.197 228.158Z" fill="#8599AC"/>
<path d="M322.544 228H291.47C290.533 228 289.774 228.759 289.774 229.695C289.774 230.632 290.533 231.391 291.47 231.391H322.544C323.48 231.391 324.239 230.632 324.239 229.695C324.239 228.759 323.48 228 322.544 228Z" fill="#8599AC"/>
<path d="M322.544 237.804H306.107C305.17 237.804 304.411 238.563 304.411 239.499C304.411 240.435 305.17 241.194 306.107 241.194H322.544C323.48 241.194 324.239 240.435 324.239 239.499C324.239 238.563 323.48 237.804 322.544 237.804Z" fill="#8599AC"/>
<path d="M300.022 237.804H259.832C258.896 237.804 258.137 238.563 258.137 239.499C258.137 240.435 258.896 241.194 259.832 241.194H300.022C300.958 241.194 301.717 240.435 301.717 239.499C301.717 238.563 300.958 237.804 300.022 237.804Z" fill="#8599AC"/>
<mask id="mask2_6424_4664" style="mask-type:alpha" maskUnits="userSpaceOnUse" x="214" y="206" width="39" height="39">
<circle cx="233.721" cy="225.396" r="18.7309" fill="#C4C4C4"/>
</mask>
<g mask="url(#mask2_6424_4664)">
<circle cx="233.777" cy="225.45" r="18.238" fill="#F178B6"/>
<path d="M246.595 238.919C246.522 236.497 244.597 235.369 245.234 233.09C245.813 231.005 246.441 230.392 246.218 228.786C246.028 227.375 244.877 226.693 244.419 224.239C244.071 222.369 245.262 221.075 244.083 218.317C241.222 211.596 237.616 210.675 232.75 210.963C230.371 211.105 229.994 212.119 229.37 212.363C228.71 212.618 228.645 212.432 228.159 212.553C227.061 212.833 224.942 215.157 224.832 220.337C224.784 222.686 223.219 221.862 222.283 223.716C221.291 225.679 223.244 227.987 220.719 228.454C217.599 229.03 216.801 231.581 216.911 232.871C217.243 236.732 215.501 236.582 214.488 237.872C212.194 240.784 214.358 245.007 215.071 246.354C219.775 255.257 236.417 258.368 244.845 243.859C245.29 243.092 246.668 241.462 246.595 238.919Z" fill="#352F60"/>
<path d="M243.629 258.713C246.676 249.635 250.866 243.052 248.666 239.393C246.559 235.889 245.91 235.868 244.281 235.71C237.989 235.09 238.046 233.078 234.707 233.179C234.642 233.179 234.237 233.179 234.164 233.179C230.849 233.086 230.89 235.09 224.613 235.71C222.985 235.873 222.336 235.889 220.229 239.393C218.029 243.052 222.219 249.635 225.266 258.713C226.891 263.556 224.285 268.172 223.434 269.864C222.49 271.733 222.069 271.535 222.215 272.869C222.45 274.974 228.062 276.585 233.653 276.532C233.917 276.528 235.092 276.532 235.416 276.532C240.951 276.552 246.449 274.954 246.68 272.869C246.826 271.539 246.405 271.737 245.461 269.864C244.61 268.172 242.004 263.56 243.629 258.713Z" fill="#C6DBFF"/>
<path d="M238.131 234.351C237.56 228.376 237.466 223.805 235.947 224.478C235.416 224.714 234.922 225.001 234.452 225.391C233.982 225.001 233.487 224.714 232.957 224.478C231.437 223.805 231.344 228.38 230.773 234.351C230.684 235.26 232.049 239.202 234.452 239.202C236.603 239.202 238.216 235.26 238.131 234.351Z" fill="#FFCDBA"/>
<path d="M231.111 230.441C231.091 230.692 232.927 233.179 234.434 233.179C236.172 233.179 237.809 230.692 237.789 230.445C237.133 231.086 235.848 232.165 234.434 232.165C233.178 232.161 231.792 231.082 231.111 230.441Z" fill="#EBB7A2"/>
<path d="M240.804 216.633C240.107 214.159 237.409 212.739 234.447 212.796C231.489 212.739 228.786 214.159 228.089 216.633C227.623 218.288 227.583 219.554 227.919 222.154C228.211 224.421 228.503 227.841 230.901 230.299C231.465 230.875 233.029 232.225 234.431 232.225C236.011 232.225 237.429 230.875 237.992 230.299C240.387 227.841 240.683 224.417 240.975 222.154C241.311 219.554 241.27 218.292 240.804 216.633Z" fill="#FFCDBA"/>
<path d="M242.516 218.942C242.622 216.269 240.965 212.671 238.384 212.736C237.922 212.748 237.67 212.906 237.545 213.121C236.986 212.663 235.758 211.884 234.384 211.884C233.051 211.884 231.888 212.655 231.353 213.113C231.224 212.906 230.977 212.748 230.519 212.736C227.938 212.671 226.28 216.269 226.386 218.942C226.434 220.211 226.179 221.668 226.779 221.956C228.055 222.572 229.307 220.248 230.191 217.96C230.114 219.112 230.142 220.069 230.219 220.581C230.268 220.905 230.454 221.092 230.883 221.128C230.883 221.128 231.945 221.327 234.275 221.294C234.332 221.294 234.567 221.294 234.623 221.294C236.953 221.327 238.015 221.128 238.015 221.128C238.444 221.092 238.631 220.905 238.679 220.581C238.756 220.074 238.789 219.116 238.708 217.96C239.591 220.248 240.843 222.572 242.119 221.956C242.719 221.668 242.464 220.211 242.516 218.942Z" fill="#352F60"/>
</g>
<rect x="167.922" y="98.4775" width="24.1017" height="24.1017" rx="12.0508" fill="#3D7FFC"/>
<path d="M185.759 106.333C185.029 105.52 184.012 105.073 182.902 105.073C181.334 105.073 180.347 105.981 179.792 106.744C179.746 106.809 179.699 106.874 179.658 106.94C179.612 106.874 179.571 106.809 179.525 106.744C178.97 105.981 177.983 105.073 176.415 105.073C175.31 105.073 174.292 105.52 173.563 106.333C172.869 107.095 172.488 108.124 172.488 109.212C172.488 110.396 172.956 111.495 173.963 112.664C174.837 113.683 176.086 114.716 177.536 115.925C178.07 116.367 178.62 116.828 179.227 117.345C179.35 117.451 179.504 117.506 179.663 117.506C179.823 117.506 179.977 117.451 180.116 117.33C180.702 116.828 181.257 116.367 181.797 115.915C183.241 114.716 184.485 113.678 185.358 112.664C186.366 111.495 186.834 110.401 186.834 109.212C186.834 108.119 186.453 107.095 185.759 106.328V106.333ZM181.097 115.133L180.933 114.942C180.522 115.283 180.1 115.634 179.663 116.006C179.257 115.664 178.867 115.338 178.492 115.022L178.394 114.942C175.634 112.644 173.814 111.129 173.814 109.212C173.814 108.435 174.076 107.712 174.554 107.185C175.032 106.659 175.696 106.368 176.42 106.368C177.423 106.368 178.075 106.98 178.445 107.492C178.79 107.963 178.97 108.445 179.031 108.63C179.119 108.896 179.376 109.077 179.658 109.077C179.941 109.077 180.198 108.896 180.291 108.63C180.352 108.45 180.532 107.968 180.876 107.492C181.247 106.98 181.899 106.368 182.902 106.368C183.626 106.368 184.289 106.659 184.767 107.185C185.245 107.717 185.507 108.435 185.507 109.212C185.507 111.129 183.688 112.644 180.928 114.937L181.092 115.128L181.097 115.133Z" fill="white"/>
<rect x="410.269" y="191.931" width="19.3519" height="19.3519" rx="9.67595" fill="#76A5FF"/>
<path d="M424.144 199.555C423.905 198.997 423.568 198.496 423.139 198.068C422.71 197.639 422.209 197.297 421.652 197.062C421.075 196.816 420.464 196.687 419.796 196.683C419.163 196.683 418.552 196.808 417.972 197.051C417.414 197.286 416.909 197.624 416.477 198.052C416.044 198.481 415.703 198.982 415.46 199.54C415.21 200.113 415.081 200.727 415.073 201.361C415.065 201.96 415.172 202.548 415.388 203.106L415.039 204.889C414.978 205.208 415.062 205.538 415.267 205.792C415.475 206.046 415.783 206.19 416.109 206.19C416.177 206.19 416.249 206.183 416.317 206.171L418.104 205.826C418.658 206.039 419.262 206.137 419.85 206.141C420.483 206.133 421.102 206.004 421.682 205.75C422.24 205.507 422.741 205.162 423.169 204.726C423.598 204.29 423.936 203.781 424.167 203.22C424.41 202.635 424.531 202.017 424.524 201.384C424.52 200.754 424.391 200.139 424.144 199.562V199.555ZM418.112 198.144C418.628 197.874 419.201 197.734 419.796 197.734V197.726C419.796 197.726 419.812 197.726 419.823 197.726V197.734C420.794 197.741 421.709 198.125 422.399 198.811C423.086 199.498 423.469 200.412 423.477 201.387C423.492 203.409 421.86 205.071 419.838 205.09C419.322 205.09 418.814 204.995 418.343 204.79C418.264 204.756 418.173 204.745 418.085 204.76L416.113 205.139L416.071 205.09L416.45 203.125C416.465 203.038 416.458 202.95 416.424 202.871C416.219 202.396 416.116 201.892 416.124 201.372C416.135 200.401 416.522 199.487 417.217 198.796C417.475 198.538 417.767 198.326 418.082 198.159C418.093 198.151 418.104 198.147 418.116 198.144H418.112Z" fill="white"/>
<defs>
<filter id="filter0_bd_6424_4664" x="195.74" y="59.4386" width="152.448" height="89.7847" filterUnits="userSpaceOnUse" color-interpolation-filters="sRGB">
<feFlood flood-opacity="0" result="BackgroundImageFix"/>
<feGaussianBlur in="BackgroundImageFix" stdDeviation="2.76366"/>
<feComposite in2="SourceAlpha" operator="in" result="effect1_backgroundBlur_6424_4664"/>
<feColorMatrix in="SourceAlpha" type="matrix" values="0 0 0 0 0 0 0 0 0 0 0 0 0 0 0 0 0 0 127 0" result="hardAlpha"/>
<feMorphology radius="0.611245" operator="erode" in="SourceAlpha" result="effect2_dropShadow_6424_4664"/>
<feOffset dy="2.44498"/>
<feGaussianBlur stdDeviation="7.33494"/>
<feComposite in2="hardAlpha" operator="out"/>
<feColorMatrix type="matrix" values="0 0 0 0 0 0 0 0 0 0 0 0 0 0 0 0 0 0 0.2 0"/>
<feBlend mode="normal" in2="effect1_backgroundBlur_6424_4664" result="effect2_dropShadow_6424_4664"/>
<feBlend mode="normal" in="SourceGraphic" in2="effect2_dropShadow_6424_4664" result="shape"/>
</filter>
<filter id="filter1_bd_6424_4664" x="270.763" y="122.198" width="152.448" height="89.7847" filterUnits="userSpaceOnUse" color-interpolation-filters="sRGB">
<feFlood flood-opacity="0" result="BackgroundImageFix"/>
<feGaussianBlur in="BackgroundImageFix" stdDeviation="2.76366"/>
<feComposite in2="SourceAlpha" operator="in" result="effect1_backgroundBlur_6424_4664"/>
<feColorMatrix in="SourceAlpha" type="matrix" values="0 0 0 0 0 0 0 0 0 0 0 0 0 0 0 0 0 0 127 0" result="hardAlpha"/>
<feMorphology radius="0.611245" operator="erode" in="SourceAlpha" result="effect2_dropShadow_6424_4664"/>
<feOffset dy="2.44498"/>
<feGaussianBlur stdDeviation="7.33494"/>
<feComposite in2="hardAlpha" operator="out"/>
<feColorMatrix type="matrix" values="0 0 0 0 0 0 0 0 0 0 0 0 0 0 0 0 0 0 0.2 0"/>
<feBlend mode="normal" in2="effect1_backgroundBlur_6424_4664" result="effect2_dropShadow_6424_4664"/>
<feBlend mode="normal" in="SourceGraphic" in2="effect2_dropShadow_6424_4664" result="shape"/>
</filter>
<filter id="filter2_bd_6424_4664" x="195.736" y="188.126" width="152.448" height="89.7847" filterUnits="userSpaceOnUse" color-interpolation-filters="sRGB">
<feFlood flood-opacity="0" result="BackgroundImageFix"/>
<feGaussianBlur in="BackgroundImageFix" stdDeviation="2.76366"/>
<feComposite in2="SourceAlpha" operator="in" result="effect1_backgroundBlur_6424_4664"/>
<feColorMatrix in="SourceAlpha" type="matrix" values="0 0 0 0 0 0 0 0 0 0 0 0 0 0 0 0 0 0 127 0" result="hardAlpha"/>
<feMorphology radius="0.611245" operator="erode" in="SourceAlpha" result="effect2_dropShadow_6424_4664"/>
<feOffset dy="2.44498"/>
<feGaussianBlur stdDeviation="7.33494"/>
<feComposite in2="hardAlpha" operator="out"/>
<feColorMatrix type="matrix" values="0 0 0 0 0 0 0 0 0 0 0 0 0 0 0 0 0 0 0.2 0"/>
<feBlend mode="normal" in2="effect1_backgroundBlur_6424_4664" result="effect2_dropShadow_6424_4664"/>
<feBlend mode="normal" in="SourceGraphic" in2="effect2_dropShadow_6424_4664" result="shape"/>
</filter>
<linearGradient id="paint0_linear_6424_4664" x1="249.131" y1="39.8713" x2="405.715" y2="79.3744" gradientUnits="userSpaceOnUse">
<stop stop-color="#0C2966"/>
<stop offset="1" stop-color="#0045C9"/>
</linearGradient>
<linearGradient id="paint1_linear_6424_4664" x1="214.873" y1="71.0522" x2="304.261" y2="141.111" gradientUnits="userSpaceOnUse">
<stop stop-color="white" stop-opacity="0.09"/>
<stop offset="1" stop-color="white" stop-opacity="0.3"/>
</linearGradient>
<linearGradient id="paint2_linear_6424_4664" x1="226.7" y1="72.2856" x2="297.962" y2="149.143" gradientUnits="userSpaceOnUse">
<stop stop-color="white" stop-opacity="0.4"/>
<stop offset="1" stop-color="white"/>
</linearGradient>
<linearGradient id="paint3_linear_6424_4664" x1="404.078" y1="133.811" x2="314.69" y2="203.87" gradientUnits="userSpaceOnUse">
<stop stop-color="white" stop-opacity="0.09"/>
<stop offset="1" stop-color="white" stop-opacity="0.3"/>
</linearGradient>
<linearGradient id="paint4_linear_6424_4664" x1="392.251" y1="135.045" x2="320.989" y2="211.902" gradientUnits="userSpaceOnUse">
<stop stop-color="white" stop-opacity="0.4"/>
<stop offset="1" stop-color="white"/>
</linearGradient>
<linearGradient id="paint5_linear_6424_4664" x1="214.869" y1="199.739" x2="304.257" y2="269.798" gradientUnits="userSpaceOnUse">
<stop stop-color="white" stop-opacity="0.09"/>
<stop offset="1" stop-color="white" stop-opacity="0.3"/>
</linearGradient>
<linearGradient id="paint6_linear_6424_4664" x1="226.696" y1="200.973" x2="297.958" y2="277.83" gradientUnits="userSpaceOnUse">
<stop stop-color="white" stop-opacity="0.4"/>
<stop offset="1" stop-color="white"/>
</linearGradient>
<clipPath id="clip0_6424_4664">
<rect width="11.6157" height="11.6157" fill="white" transform="translate(167.925 227.306)"/>
</clipPath>
<clipPath id="clip1_6424_4664">
<rect width="9.50373" height="9.50373" fill="white" transform="translate(374.366 64.6868)"/>
</clipPath>
</defs>
</svg>
