<svg width="47" height="48" viewBox="0 0 47 48" fill="none" xmlns="http://www.w3.org/2000/svg">
<path fill-rule="evenodd" clip-rule="evenodd" d="M21.9902 34.5392C21.9902 27.7092 27.5502 22.1492 34.3802 22.1492C41.2102 22.1492 46.7702 27.7092 46.7702 34.5392C46.7702 41.3692 41.2102 46.9292 34.3802 46.9292C27.5502 46.9292 21.9902 41.3692 21.9902 34.5392ZM33.6686 27.1844L35.2766 27.1492C35.33 27.1482 35.3816 27.1683 35.4201 27.2052C35.4587 27.2422 35.481 27.2929 35.4823 27.3463L35.507 28.4743C35.7549 28.5125 35.9932 28.5666 36.2219 28.6366C36.7674 28.8054 37.2396 29.0507 37.6389 29.3778C38.0414 29.7077 38.3667 30.122 38.5918 30.5915C38.8269 31.0717 38.9577 31.6215 38.9864 32.2355L36.9316 32.2805C36.7532 30.9777 35.9509 30.3419 34.5247 30.3729C33.831 30.3881 33.3022 30.5187 32.9385 30.759C32.5749 30.9993 32.3984 31.3286 32.4073 31.7363C32.4074 31.8899 32.4529 32.0399 32.5381 32.1676C32.6208 32.2897 32.7522 32.4004 32.9322 32.4999C33.1099 32.5991 33.3391 32.6901 33.6167 32.7688C33.8943 32.8474 34.2344 32.9232 34.6281 32.9973C34.9728 33.0594 35.3251 33.1292 35.688 33.2091C36.0475 33.286 36.4027 33.3816 36.7522 33.4955C37.0922 33.6062 37.4217 33.7471 37.7367 33.9165C38.0389 34.0789 38.3149 34.2862 38.5552 34.5313C38.7968 34.7795 38.9888 35.0716 39.1209 35.392C39.2622 35.7244 39.3379 36.1152 39.3479 36.5645C39.3595 37.0936 39.2617 37.5795 39.0546 38.0222C38.8481 38.4645 38.5487 38.8569 38.1769 39.1727C37.7967 39.4958 37.3421 39.7519 36.813 39.941C36.4834 40.0589 36.1338 40.1423 35.7643 40.1912L35.7878 41.2647C35.7889 41.3181 35.7687 41.3698 35.7318 41.4083C35.6949 41.4469 35.6443 41.4693 35.5909 41.4706L33.9821 41.5058C33.9287 41.5068 33.8772 41.4866 33.8386 41.4497C33.8001 41.4128 33.7777 41.3621 33.7764 41.3088L33.7513 40.1639C33.4552 40.1183 33.1771 40.0533 32.9171 39.969C32.2984 39.7684 31.7813 39.4799 31.3602 39.1068C30.9394 38.7344 30.6075 38.2722 30.3889 37.7544C30.1632 37.2283 30.0318 36.6464 30 36.0119L32.0768 35.9665C32.1218 36.3735 32.2276 36.7252 32.3992 37.0214C32.5588 37.3079 32.777 37.5575 33.0397 37.7536C33.3011 37.9474 33.5978 38.0883 33.913 38.1684C34.253 38.2566 34.6035 38.2967 34.9546 38.2876C35.2751 38.2838 35.5939 38.2404 35.9038 38.1585C36.1895 38.0825 36.4339 37.9789 36.635 37.8453C36.8248 37.7233 36.983 37.5579 37.0963 37.3626C37.2032 37.1701 37.2556 36.952 37.2477 36.7319C37.2425 36.4942 37.1841 36.2941 37.072 36.1288C36.9598 35.9636 36.7814 35.8202 36.5388 35.6936C36.2962 35.5671 35.9735 35.4555 35.5794 35.3557C35.1853 35.256 34.6977 35.1553 34.12 35.0518C33.4616 34.9187 32.894 34.7607 32.4171 34.5778C31.9402 34.3949 31.5458 34.1737 31.2337 33.9143C30.9354 33.6721 30.6973 33.3641 30.5381 33.0142C30.3834 32.6718 30.3024 32.2758 30.2926 31.8267C30.282 31.3438 30.3729 30.8968 30.5652 30.4855C30.7608 30.0712 31.0463 29.7058 31.401 29.4161C31.7633 29.1139 32.2019 28.8744 32.7115 28.6955C32.9587 28.6088 33.2202 28.5416 33.4959 28.4939L33.4718 27.3903C33.4708 27.3369 33.4909 27.2853 33.5278 27.2467C33.5647 27.2081 33.6153 27.1857 33.6686 27.1844Z" fill="#FECE4D"/>
<path fill-rule="evenodd" clip-rule="evenodd" d="M22.88 4.03917H18.55C18.55 2.43917 17.26 1.14917 15.66 1.14917C14.06 1.14917 12.77 2.43917 12.77 4.03917H8.44C7.64 4.03917 7 4.68917 7 5.47917V8.36917C7 9.16917 7.65 9.80917 8.44 9.80917H22.88C23.68 9.80917 24.32 9.15917 24.32 8.36917V5.47917C24.32 4.67917 23.67 4.03917 22.88 4.03917ZM15.66 5.48917C14.86 5.48917 14.22 4.83917 14.22 4.04917C14.22 3.25917 14.87 2.60917 15.66 2.60917C16.45 2.60917 17.1 3.25917 17.1 4.04917C17.1 4.83917 16.45 5.48917 15.66 5.48917Z" fill="#76A5FF"/>
<path d="M28.88 5.4873H26.32V8.3773C26.32 10.2773 24.78 11.8173 22.88 11.8173H8.44C6.54 11.8173 5 10.2773 5 8.3773V5.4873H2.89C1.29 5.4873 0 6.77729 0 8.3773V40.1573C0 41.7573 1.29 43.0473 2.89 43.0473H22.81C21.51 41.2773 20.6 39.2073 20.21 36.9573H13.72V34.7873H20.01C20.01 34.7073 20 34.6273 20 34.5473C20 32.2773 20.53 30.1373 21.48 28.2273H13.73V26.0573H22.8C24.93 23.1573 28.11 21.0873 31.78 20.4073V8.36729C31.78 6.76729 30.49 5.47729 28.89 5.47729L28.88 5.4873ZM8.2 37.3173L7.05 38.4673L4.33 35.7473L5.48 34.5973L7.05 36.1673L10.6 32.6173L11.75 33.7673L8.2 37.3173ZM8.2 28.5873L7.05 29.7373L4.33 27.0173L5.48 25.8673L7.05 27.4373L10.6 23.8873L11.75 25.0373L8.2 28.5873ZM8.2 19.8573L7.05 21.0073L4.33 18.2873L5.48 17.1373L7.05 18.7073L10.6 15.1573L11.75 16.3073L8.2 19.8573ZM27.44 19.4873H13.72V17.3173H27.44V19.4873Z" fill="#C6DBFF"/>
</svg>
