<svg width="47" height="48" viewBox="0 0 47 48" fill="none" xmlns="http://www.w3.org/2000/svg">
<g clip-path="url(#clip0_2012_4908)">
<g clip-path="url(#clip1_2012_4908)">
<path d="M15.5002 2.59918C8.3002 2.59918 2.4502 8.44918 2.4502 15.6492C2.4502 22.8492 8.2902 28.6992 15.5002 28.6992C15.8302 28.6992 16.1602 28.6692 16.4802 28.6492C16.4802 28.5592 16.4702 28.4692 16.4702 28.3792C16.4702 21.3692 21.7202 15.5892 28.5002 14.7392C28.0302 7.95918 22.3902 2.59918 15.5002 2.59918Z" fill="#E6EEFF"/>
<path d="M15.5 28.6992C8.29 28.6992 2.45 22.8492 2.45 15.6492C2.45 8.44917 8.3 2.59917 15.5 2.59917C22.7 2.59917 28.03 7.95917 28.5 14.7392C29.07 14.6692 29.64 14.6192 30.23 14.6192C30.47 14.6192 30.71 14.6392 30.95 14.6592C30.44 6.55917 23.72 0.14917 15.5 0.14917C7.28 0.14917 0 7.08917 0 15.6492C0 24.2092 6.94 31.1492 15.5 31.1492C15.92 31.1492 16.33 31.1192 16.74 31.0892C16.58 30.2992 16.5 29.4792 16.48 28.6492C16.15 28.6692 15.83 28.6992 15.5 28.6992Z" fill="#3D7FFC"/>
<path d="M17.57 7.96917V16.5992C17.57 16.8792 17.47 17.1492 17.29 17.3692L13.49 21.9892C13.38 22.1192 13.23 22.2192 13.08 22.2792C12.92 22.3392 12.75 22.3692 12.58 22.3492C12.41 22.3292 12.24 22.2792 12.1 22.1892C11.95 22.0992 11.83 21.9792 11.74 21.8292C11.58 21.5592 11.51 21.2492 11.54 20.9392C11.57 20.6292 11.71 20.3392 11.92 20.1192L15 16.4792C15.1 16.3692 15.15 16.2292 15.15 16.0892V7.96917C15.13 7.79917 15.15 7.62917 15.21 7.46917C15.26 7.30917 15.35 7.15917 15.46 7.03917C15.57 6.90917 15.71 6.80917 15.87 6.74917C16.02 6.67917 16.19 6.64917 16.36 6.64917C16.53 6.64917 16.7 6.68917 16.85 6.74917C17 6.81917 17.14 6.91917 17.26 7.03917C17.37 7.16917 17.46 7.30917 17.51 7.46917C17.56 7.62917 17.58 7.79917 17.57 7.96917Z" fill="#3D7FFC"/>
<path fill-rule="evenodd" clip-rule="evenodd" d="M28.87 29.4892L26.37 26.9892L24.54 28.8192L28.87 33.1492L30.7 31.3192L36.34 25.6792L34.51 23.8492L28.87 29.4892Z" fill="#FECE4D"/>
<path d="M23.1202 19.6891C21.4002 21.0991 20.1402 22.9791 19.4902 25.1091C18.8402 27.2291 18.8402 29.4991 19.4802 31.6291C20.1202 33.7591 21.3802 35.6491 23.0902 37.0591C24.8002 38.4691 26.9002 39.3391 29.1102 39.5691C31.3202 39.7891 33.5502 39.3491 35.5102 38.3091C37.4702 37.2691 39.0802 35.6591 40.1302 33.7091C41.1802 31.7491 41.6302 29.5291 41.4102 27.3191C41.2002 25.1091 40.3302 23.0091 38.9202 21.2891C37.9902 20.1491 36.8402 19.1991 35.5402 18.4991C34.2402 17.7991 32.8202 17.3691 31.3502 17.2191C29.8802 17.0691 28.4002 17.2191 26.9902 17.6391C25.5802 18.0691 24.2602 18.7691 23.1202 19.6991V19.6891ZM35.7702 35.1591C34.4302 36.2591 32.7902 36.9291 31.0702 37.0991C29.3502 37.2691 27.6102 36.9191 26.0802 36.0991C24.5502 35.2791 23.3002 34.0291 22.4902 32.4991C21.6802 30.9691 21.3302 29.2291 21.5102 27.5091C21.6802 25.7891 22.3602 24.1491 23.4602 22.8091C24.5602 21.4691 26.0402 20.4891 27.6902 19.9891C29.3502 19.4891 31.1202 19.4891 32.7802 19.9891C34.4402 20.4991 35.9102 21.4791 37.0002 22.8191C38.4702 24.6191 39.1702 26.9291 38.9302 29.2391C38.7002 31.5491 37.5602 33.6691 35.7602 35.1491L35.7702 35.1591Z" fill="#FECE4D"/>
<path d="M38.7598 35.8192L36.0098 38.0692L37.1098 39.4192L39.8598 37.1692L38.7598 35.8192Z" fill="#3D7FFC"/>
<path d="M36.7402 39.6791L40.1602 36.8792L45.7402 43.3292C46.5102 44.2792 46.3702 45.6692 45.4302 46.4392C44.4802 47.2092 43.0902 47.0691 42.3202 46.1292L36.7402 39.6791Z" fill="#C6DBFF"/>
</g>
</g>
<defs>
<clipPath id="clip0_2012_4908">
<rect width="47.0005" height="47" fill="white" transform="translate(0 0.14917)"/>
</clipPath>
<clipPath id="clip1_2012_4908">
<rect width="46.24" height="46.79" fill="white" transform="translate(0 0.14917)"/>
</clipPath>
</defs>
</svg>
