<svg width="47" height="48" viewBox="0 0 47 48" fill="none" xmlns="http://www.w3.org/2000/svg">
<g clip-path="url(#clip0_2012_4929)">
<g clip-path="url(#clip1_2012_4929)">
<path d="M16.41 0.14917C7.35 0.14917 0 7.49917 0 16.5592C0 25.6192 7.35 32.9692 16.41 32.9692C17.67 32.9692 18.88 32.8192 20.06 32.5492C20.33 30.5592 21 28.6992 22 27.0592C22.01 27.0392 22.03 27.0092 22.04 26.9892C23.24 25.0292 24.88 23.3792 26.84 22.1892C26.86 22.1792 26.89 22.1592 26.91 22.1492C28.56 21.1592 30.41 20.4792 32.4 20.2092C32.67 19.0392 32.82 17.8192 32.82 16.5592C32.82 7.49917 25.48 0.14917 16.41 0.14917ZM22.63 21.1892C22.35 21.7892 21.95 22.3192 21.45 22.7392C20.94 23.1792 20.32 23.5192 19.61 23.7792C19.16 23.9392 18.69 24.0492 18.19 24.1192L18.22 25.5692C18.22 25.6392 18.19 25.7092 18.14 25.7592C18.09 25.8092 18.02 25.8392 17.95 25.8392L15.78 25.8892C15.71 25.8892 15.64 25.8592 15.59 25.8092C15.54 25.7592 15.51 25.6892 15.51 25.6192L15.48 24.0692C15.08 24.0092 14.7 23.9192 14.35 23.8092C13.51 23.5392 12.82 23.1492 12.25 22.6492C11.68 22.1492 11.23 21.5192 10.94 20.8192C10.64 20.1092 10.46 19.3192 10.41 18.4692L13.21 18.4092C13.27 18.9592 13.41 19.4292 13.65 19.8292C13.87 20.2192 14.16 20.5492 14.51 20.8192C14.86 21.0792 15.26 21.2692 15.69 21.3792C16.15 21.4992 16.62 21.5492 17.1 21.5392C17.53 21.5392 17.96 21.4792 18.38 21.3692C18.77 21.2692 19.1 21.1292 19.37 20.9492C19.63 20.7892 19.84 20.5592 19.99 20.2992C20.13 20.0392 20.2 19.7492 20.19 19.4492C20.19 19.1292 20.1 18.8592 19.95 18.6392C19.8 18.4192 19.56 18.2192 19.23 18.0492C18.9 17.8792 18.47 17.7292 17.93 17.5892C17.39 17.4492 16.74 17.3192 15.96 17.1792C15.07 16.9992 14.3 16.7892 13.66 16.5392C13.02 16.2892 12.48 15.9892 12.06 15.6392C11.66 15.3092 11.34 14.8992 11.12 14.4192C10.91 13.9592 10.8 13.4192 10.79 12.8192C10.78 12.1692 10.9 11.5592 11.16 11.0092C11.42 10.4492 11.81 9.95917 12.29 9.56917C12.78 9.15917 13.37 8.83917 14.06 8.59917C14.39 8.47917 14.75 8.38917 15.12 8.32917L15.09 6.83917C15.09 6.76917 15.12 6.69917 15.17 6.64917C15.22 6.59917 15.29 6.56917 15.36 6.56917L17.53 6.51917C17.6 6.51917 17.67 6.54917 17.72 6.59917C17.77 6.64917 17.8 6.71917 17.8 6.78917L17.83 8.30917C18.16 8.35917 18.49 8.42917 18.8 8.52917C19.54 8.75917 20.17 9.08917 20.71 9.52917C21.25 9.97917 21.69 10.5292 22 11.1692C22.32 11.8192 22.49 12.5592 22.53 13.3892L19.76 13.4492C19.52 11.6892 18.44 10.8292 16.51 10.8692C15.57 10.8892 14.86 11.0692 14.37 11.3892C13.88 11.7092 13.64 12.1592 13.65 12.7092C13.65 12.9192 13.71 13.1192 13.83 13.2892C13.94 13.4492 14.12 13.5992 14.36 13.7392C14.6 13.8692 14.91 13.9992 15.28 14.0992C15.65 14.1992 16.11 14.3092 16.65 14.4092C17.12 14.4892 17.59 14.5892 18.08 14.6992C18.57 14.7992 19.04 14.9292 19.52 15.0892C19.98 15.2392 20.42 15.4292 20.85 15.6592C21.26 15.8792 21.63 16.1592 21.95 16.4892C22.28 16.8292 22.54 17.2192 22.71 17.6492C22.9 18.0992 23 18.6292 23.02 19.2292C23.04 19.9392 22.9 20.5992 22.62 21.1992L22.63 21.1892Z" fill="#FECE4D"/>
<path d="M31.6402 22.6692C27.1102 23.7092 23.5502 27.2592 22.5202 31.7892C22.3202 32.6692 22.2002 33.5692 22.2002 34.5092C22.2002 34.7392 22.2202 34.9592 22.2302 35.1792C28.3202 33.2792 33.1202 28.4692 35.0202 22.3892C34.8002 22.3792 34.5802 22.3592 34.3502 22.3592C33.4102 22.3592 32.5102 22.4792 31.6302 22.6792L31.6402 22.6692Z" fill="#3D7FFC"/>
<path d="M35.0302 22.3792C33.1302 28.4692 28.3202 33.2692 22.2402 35.1692C22.5902 41.5692 27.8802 46.6591 34.3602 46.6591C40.8402 46.6591 46.5202 41.2191 46.5202 34.4991C46.5202 27.7791 41.4302 22.7292 35.0302 22.3792ZM39.1702 36.7392L35.2002 40.7092C34.8202 41.0892 34.1902 41.0892 33.8102 40.7092L29.8402 36.7392C29.4602 36.3592 29.4602 35.7292 29.8402 35.3492C30.2202 34.9692 30.8502 34.9692 31.2302 35.3492L33.5202 37.6392V27.9492C33.5202 27.4092 33.9602 26.9692 34.5002 26.9692C35.0402 26.9692 35.4802 27.4092 35.4802 27.9492V37.6392L37.7702 35.3492C38.1502 34.9692 38.7802 34.9692 39.1602 35.3492C39.5402 35.7292 39.5402 36.3592 39.1602 36.7392H39.1702Z" fill="#3D7FFC"/>
</g>
</g>
<defs>
<clipPath id="clip0_2012_4929">
<rect width="47" height="47" fill="white" transform="translate(0 0.14917)"/>
</clipPath>
<clipPath id="clip1_2012_4929">
<rect width="46.51" height="46.51" fill="white" transform="translate(0 0.14917)"/>
</clipPath>
</defs>
</svg>
