<svg width="56" height="57" viewBox="0 0 56 57" fill="none" xmlns="http://www.w3.org/2000/svg">
<g clip-path="url(#clip0_16047_10000)">
<path d="M46.6667 0.193359H9.33333C4.17867 0.193359 0 4.37203 0 9.52669V46.86C0 52.0147 4.17867 56.1934 9.33333 56.1934H46.6667C51.8213 56.1934 56 52.0147 56 46.86V9.52669C56 4.37203 51.8213 0.193359 46.6667 0.193359Z" fill="#15C1E6" fill-opacity="0.05"/>
<mask id="mask0_16047_10000" style="mask-type:alpha" maskUnits="userSpaceOnUse" x="10" y="10" width="36" height="37">
<rect x="10" y="10.2002" width="36" height="36" fill="#F5EFEF"/>
</mask>
<g mask="url(#mask0_16047_10000)">
<path fill-rule="evenodd" clip-rule="evenodd" d="M19.0001 15.1504C18.503 15.1504 18.1001 15.5533 18.1001 16.0504V26.8502H25.3C27.7853 26.8502 29.8 28.8649 29.8 31.3502V34.9504H44.2001C44.6972 34.9504 45.1001 34.5474 45.1001 34.0504V16.0504C45.1001 15.5533 44.6972 15.1504 44.2001 15.1504H19.0001ZM28 34.9504V31.3502C28 29.859 26.7912 28.6502 25.3 28.6502H18.1001V34.0504C18.1001 34.5474 18.503 34.9504 19.0001 34.9504H28Z" fill="#98DEF4"/>
<path d="M21.7002 19.2001C21.7002 18.4545 22.3046 17.8501 23.0502 17.8501V17.8501C23.7958 17.8501 24.4002 18.4545 24.4002 19.2001V19.2001C24.4002 19.9457 23.7958 20.5501 23.0502 20.5501V20.5501C22.3046 20.5501 21.7002 19.9457 21.7002 19.2001V19.2001Z" fill="#15C1E6"/>
<path d="M26.2002 19.2001C26.2002 18.4545 26.8046 17.8501 27.5502 17.8501C28.2958 17.8501 28.9002 18.4545 28.9002 19.2001C28.9002 19.9457 28.2958 20.5501 27.5502 20.5501C26.8046 20.5501 26.2002 19.9457 26.2002 19.2001Z" fill="#15C1E6"/>
<path d="M30.7002 19.2001C30.7002 18.4545 31.3046 17.8501 32.0502 17.8501C32.7958 17.8501 33.4002 18.4545 33.4002 19.2001C33.4002 19.9457 32.7958 20.5501 32.0502 20.5501C31.3046 20.5501 30.7002 19.9457 30.7002 19.2001Z" fill="#15C1E6"/>
<path d="M13.6001 31.3504C13.6001 29.8592 14.8089 28.6504 16.3001 28.6504H25.3001C26.7913 28.6504 28.0001 29.8592 28.0001 31.3504V38.5504C28.0001 40.0416 26.7913 41.2504 25.3001 41.2504H16.3001C14.8089 41.2504 13.6001 40.0416 13.6001 38.5504V31.3504Z" fill="#15C1E6"/>
<path d="M19 33.1501C19 32.156 19.8059 31.3501 20.8 31.3501C21.7941 31.3501 22.6 32.156 22.6 33.1501C22.6 34.1442 21.7941 34.9501 20.8 34.9501C19.8059 34.9501 19 34.1442 19 33.1501Z" fill="#15C1E6"/>
<path d="M19.8999 33.15C19.8999 32.6529 20.3028 32.25 20.7999 32.25V32.25C21.297 32.25 21.6999 32.6529 21.6999 33.15V36.75C21.6999 37.2471 21.297 37.65 20.7999 37.65V37.65C20.3028 37.65 19.8999 37.2471 19.8999 36.75V33.15Z" fill="#15C1E6"/>
<path fill-rule="evenodd" clip-rule="evenodd" d="M19 24.6003C19 22.3635 17.1868 20.5503 14.95 20.5503C12.7132 20.5503 10.9 22.3635 10.9 24.6003V25.9503C10.9 26.4473 11.3029 26.8503 11.8 26.8503C12.2971 26.8503 12.7 26.4473 12.7 25.9503V24.6003C12.7 23.3577 13.7074 22.3503 14.95 22.3503C16.1926 22.3503 17.2 23.3577 17.2 24.6003V29.5503C17.2 30.0473 17.6029 30.4503 18.1 30.4503C18.5971 30.4503 19 30.0473 19 29.5503V24.6003Z" fill="#15C1E6"/>
</g>
</g>
<defs>
<clipPath id="clip0_16047_10000">
<rect width="56" height="57" fill="white"/>
</clipPath>
</defs>
</svg>
