<svg width="220" height="151" viewBox="0 0 220 151" fill="none" xmlns="http://www.w3.org/2000/svg">
<g id="Group 113818">
<g id="_&#195;&#131;&#194;&#171;&#195;&#131;&#194;&#174;&#195;&#131;&#194;&#169;_4">
<g id="_&#195;&#131;&#194;&#171;&#195;&#131;&#194;&#174;&#195;&#131;&#194;&#169;_3">
<path id="Vector" opacity="0.25" d="M206.891 20.7286C206.244 17.2147 204.3 14.2285 201.417 12.3197C198.473 10.3706 194.933 9.78492 191.45 10.6701L19.572 54.3455C16.1798 55.2077 13.2597 57.3715 11.35 60.4387C9.47172 63.456 8.78581 67.0106 9.41888 70.4478C9.87749 72.9365 11.007 75.1995 12.6859 76.9915C14.3509 78.768 16.4759 80.0045 18.8312 80.5662C20.8142 81.0392 22.842 81.0186 24.8594 80.5063L196.738 36.8309C200.13 35.9687 203.05 33.8049 204.96 30.7377C206.838 27.7203 207.524 24.1657 206.891 20.7286Z" fill="#EDF1F6"/>
<path id="Vector_2" opacity="0.25" d="M198.198 49.9879C197.551 46.474 195.607 43.4878 192.724 41.5789C189.781 39.6298 186.241 39.0442 182.757 39.9294L10.8791 83.6048C7.48693 84.4669 4.56682 86.6308 2.65713 89.698C0.77885 92.7153 0.0929377 96.2699 0.726011 99.7071C1.18461 102.196 2.31418 104.459 3.99307 106.251C5.658 108.027 7.78303 109.264 10.1384 109.825C12.1213 110.298 14.1492 110.278 16.1665 109.766L188.045 66.0901C191.437 65.228 194.357 63.0642 196.267 59.997C198.145 56.9796 198.831 53.425 198.198 49.9879Z" fill="#EDF1F6"/>
<path id="Vector_3" opacity="0.25" d="M219.275 71.6444C218.628 68.1305 216.684 65.1443 213.801 63.2354C210.857 61.2863 207.318 60.7007 203.834 61.5859L31.9557 105.261C28.5636 106.123 25.6435 108.287 23.7338 111.354C21.8555 114.372 21.1696 117.926 21.8021 121.364C22.2603 123.852 23.3903 126.115 25.0692 127.908C26.7341 129.684 28.8592 130.921 31.2145 131.482C33.197 131.955 35.2253 131.935 37.2426 131.423L209.121 87.7471C212.513 86.885 215.433 84.7211 217.343 81.6539C219.221 78.6366 219.907 75.082 219.275 71.6448L219.275 71.6444Z" fill="#EDF1F6"/>
<path id="Vector_4" d="M210.548 50.5148C207.635 50.5148 205.265 48.236 205.265 45.4353C205.265 42.6345 207.635 40.3557 210.548 40.3557C213.461 40.3557 215.832 42.6345 215.832 45.4353C215.832 48.236 213.461 50.5148 210.548 50.5148ZM210.548 41.2313C208.137 41.2313 206.176 43.1171 206.176 45.4348C206.176 47.7524 208.137 49.6388 210.548 49.6388C212.959 49.6388 214.921 47.7529 214.921 45.4348C214.921 43.1167 212.959 41.2313 210.548 41.2313Z" fill="#B8C4D0"/>
<path id="Vector_5" d="M41.1498 3.29878C41.0296 4.72503 39.7306 5.78704 38.2476 5.67202C36.7646 5.55652 35.6595 4.3076 35.7791 2.88135C35.8993 1.45559 37.1983 0.393093 38.6818 0.508592C40.1648 0.624091 41.2699 1.87302 41.1498 3.29878Z" fill="#D2DCE4"/>
<path id="Vector_6" d="M22.8287 18.2307C21.7405 17.9753 20.766 17.3997 20.0262 16.5634C19.0981 15.5144 18.6509 14.1801 18.7661 12.8071C19.0043 9.97328 21.5964 7.85404 24.544 8.08312C27.4915 8.3122 29.6958 10.8043 29.4575 13.6381C29.2192 16.4724 26.6271 18.5916 23.6796 18.3625C23.39 18.34 23.1054 18.2959 22.8287 18.2307ZM25.1496 9.14513C24.9278 9.0929 24.6985 9.05695 24.4637 9.03874C22.064 8.85231 19.9535 10.5776 19.7595 12.8847C19.6653 14.0023 20.0297 15.0883 20.7854 15.9428C21.5411 16.7968 22.5974 17.3173 23.7599 17.4074C26.1596 17.5938 28.2696 15.8685 28.4635 13.5614C28.6385 11.48 27.1954 9.62534 25.1496 9.14513Z" fill="#B8C4D0"/>
<path id="Vector_7" d="M198.837 122.954C198.837 124.529 197.48 125.806 195.806 125.806C194.132 125.806 192.774 124.529 192.774 122.954C192.774 121.38 194.131 120.103 195.806 120.103C197.48 120.103 198.837 121.38 198.837 122.954Z" fill="#D2DCE4"/>
<path id="Vector_8" d="M35.5719 150.5C33.894 150.5 32.5287 149.187 32.5287 147.574C32.5287 145.961 33.894 144.648 35.5719 144.648C37.2498 144.648 38.6152 145.961 38.6152 147.574C38.6152 149.187 37.2498 150.5 35.5719 150.5ZM35.5719 145.415C34.3337 145.415 33.3263 146.384 33.3263 147.574C33.3263 148.765 34.3337 149.733 35.5719 149.733C36.8102 149.733 37.8176 148.765 37.8176 147.574C37.8176 146.384 36.8102 145.415 35.5719 145.415Z" fill="#B8C4D0"/>
</g>
<path id="Vector_9" d="M108.305 138.486C108.301 138.486 108.297 138.486 108.293 138.486C107.127 138.459 105.947 138.404 104.788 138.322C104.513 138.302 104.307 138.073 104.327 137.808C104.347 137.544 104.586 137.347 104.861 137.366C106.004 137.447 107.167 137.501 108.317 137.528C108.592 137.534 108.81 137.754 108.803 138.018C108.797 138.279 108.575 138.486 108.305 138.486ZM111.791 138.485C111.521 138.485 111.299 138.278 111.293 138.017C111.286 137.753 111.504 137.533 111.779 137.526C112.928 137.499 114.091 137.443 115.235 137.362C115.511 137.343 115.749 137.541 115.769 137.804C115.79 138.068 115.584 138.298 115.309 138.317C114.149 138.4 112.969 138.456 111.803 138.484C111.799 138.484 111.795 138.484 111.791 138.484V138.485ZM101.357 137.994C101.337 137.994 101.316 137.993 101.295 137.991C100.139 137.853 98.9709 137.686 97.8239 137.493C97.5527 137.448 97.3712 137.199 97.4186 136.939C97.466 136.678 97.7247 136.503 97.9953 136.549C99.1259 136.739 100.277 136.904 101.418 137.039C101.691 137.072 101.886 137.311 101.852 137.574C101.82 137.816 101.605 137.994 101.358 137.994L101.357 137.994ZM118.74 137.988C118.492 137.988 118.277 137.81 118.246 137.568C118.212 137.305 118.406 137.066 118.679 137.033C119.819 136.897 120.97 136.731 122.101 136.54C122.372 136.495 122.63 136.669 122.678 136.93C122.726 137.19 122.545 137.438 122.273 137.484C121.127 137.678 119.959 137.846 118.803 137.984C118.782 137.987 118.761 137.988 118.74 137.988H118.74ZM94.493 136.841C94.4566 136.841 94.4192 136.838 94.3823 136.829C93.2458 136.582 92.1008 136.303 90.9797 136C90.7145 135.929 90.56 135.664 90.6343 135.409C90.7085 135.154 90.9837 135.006 91.2489 135.077C92.3545 135.375 93.4831 135.65 94.6032 135.894C94.8719 135.953 95.0398 136.21 94.979 136.468C94.9267 136.69 94.7208 136.841 94.4935 136.841L94.493 136.841ZM125.603 136.83C125.376 136.83 125.17 136.68 125.118 136.457C125.056 136.2 125.225 135.943 125.493 135.884C126.613 135.639 127.741 135.363 128.846 135.064C129.112 134.993 129.387 135.141 129.461 135.396C129.535 135.651 129.381 135.915 129.116 135.987C127.995 136.29 126.85 136.57 125.714 136.818C125.677 136.826 125.64 136.83 125.603 136.83H125.603ZM87.7829 135.033C87.7306 135.033 87.6768 135.025 87.6244 135.008C86.5173 134.651 85.4047 134.262 84.318 133.852C84.0618 133.755 83.9356 133.477 84.0358 133.231C84.136 132.985 84.4257 132.864 84.6819 132.96C85.7531 133.364 86.8498 133.747 87.9415 134.099C88.2027 134.183 88.3432 134.455 88.2555 134.706C88.1857 134.906 87.9913 135.033 87.7829 135.033V135.033ZM132.312 135.017C132.104 135.017 131.91 134.891 131.839 134.69C131.752 134.44 131.892 134.168 132.153 134.084C133.242 133.732 134.335 133.349 135.404 132.945C135.66 132.848 135.95 132.969 136.05 133.216C136.151 133.462 136.025 133.741 135.768 133.837C134.684 134.247 133.574 134.635 132.47 134.992C132.417 135.01 132.364 135.017 132.311 135.017H132.312ZM81.2817 132.581C81.2129 132.581 81.1436 132.567 81.0768 132.539C80.0136 132.077 78.9478 131.583 77.9095 131.071C77.6647 130.95 77.568 130.661 77.6936 130.426C77.8193 130.19 78.1198 130.097 78.3646 130.218C79.388 130.723 80.4383 131.21 81.4866 131.665C81.7373 131.774 81.849 132.058 81.7358 132.299C81.6526 132.476 81.4711 132.581 81.2812 132.581H81.2817ZM138.791 132.57C138.601 132.57 138.419 132.465 138.336 132.288C138.223 132.047 138.334 131.763 138.585 131.654C139.629 131.2 140.676 130.715 141.696 130.211C141.941 130.09 142.241 130.183 142.367 130.418C142.492 130.654 142.396 130.943 142.151 131.064C141.117 131.574 140.055 132.067 138.995 132.528C138.928 132.556 138.858 132.57 138.79 132.57L138.791 132.57ZM75.0731 129.517C74.9884 129.517 74.9026 129.496 74.8239 129.452C73.8149 128.891 72.8065 128.298 71.827 127.689C71.5957 127.545 71.5299 127.248 71.6795 127.026C71.829 126.803 72.1376 126.74 72.3689 126.884C73.3344 127.484 74.3289 128.07 75.3234 128.623C75.5616 128.755 75.6429 129.048 75.5053 129.277C75.4131 129.431 75.2456 129.517 75.0731 129.517ZM144.979 129.513C144.807 129.513 144.64 129.427 144.547 129.274C144.41 129.045 144.491 128.752 144.729 128.619C145.722 128.067 146.714 127.484 147.677 126.884C147.908 126.741 148.217 126.804 148.367 127.026C148.516 127.249 148.45 127.545 148.219 127.689C147.242 128.297 146.236 128.889 145.229 129.449C145.15 129.493 145.064 129.514 144.979 129.514V129.513ZM150.825 125.878C150.67 125.878 150.517 125.809 150.42 125.678C150.259 125.463 150.31 125.164 150.533 125.009C151.464 124.365 152.391 123.689 153.289 123C153.504 122.835 153.817 122.869 153.989 123.076C154.161 123.283 154.125 123.584 153.91 123.749C152.999 124.448 152.059 125.133 151.115 125.787C151.026 125.848 150.925 125.877 150.824 125.877L150.825 125.878ZM69.2164 125.874C69.1158 125.874 69.0136 125.845 68.9258 125.784C67.9802 125.129 67.0391 124.443 66.1274 123.743C65.912 123.578 65.8771 123.276 66.0486 123.07C66.2206 122.863 66.5341 122.829 66.749 122.994C67.6477 123.684 68.5759 124.361 69.5081 125.006C69.7314 125.161 69.7822 125.46 69.6212 125.675C69.524 125.805 69.371 125.874 69.2164 125.874ZM156.268 121.7C156.13 121.7 155.993 121.646 155.894 121.538C155.712 121.34 155.732 121.037 155.938 120.862C156.799 120.132 157.652 119.371 158.475 118.6C158.672 118.415 158.988 118.419 159.18 118.608C159.372 118.798 159.368 119.101 159.171 119.286C158.336 120.068 157.471 120.84 156.598 121.581C156.503 121.661 156.386 121.7 156.268 121.7H156.268ZM63.7675 121.692C63.6504 121.692 63.5327 121.652 63.4375 121.572C62.5642 120.831 61.6983 120.059 60.8644 119.276C60.6675 119.091 60.6635 118.788 60.8554 118.599C61.0478 118.409 61.3634 118.406 61.5603 118.59C62.3828 119.361 63.2361 120.123 64.0975 120.854C64.3039 121.029 64.3233 121.332 64.1414 121.531C64.0427 121.638 63.9056 121.693 63.7675 121.693V121.692ZM161.257 117.024C161.136 117.024 161.014 116.982 160.918 116.896C160.716 116.716 160.705 116.412 160.892 116.219C161.675 115.409 162.446 114.57 163.185 113.725C163.362 113.522 163.676 113.496 163.887 113.666C164.098 113.836 164.126 114.139 163.948 114.342C163.198 115.199 162.416 116.05 161.623 116.871C161.525 116.973 161.391 117.024 161.258 117.024H161.257ZM58.7787 117.014C58.6451 117.014 58.5115 116.963 58.4133 116.861C57.6207 116.04 56.8391 115.19 56.0899 114.332C55.9129 114.13 55.9404 113.827 56.1507 113.657C56.3616 113.487 56.6761 113.513 56.8531 113.716C57.5918 114.561 58.3625 115.4 59.1436 116.209C59.331 116.403 59.3191 116.706 59.1177 116.886C59.0215 116.972 58.8999 117.014 58.7787 117.014V117.014ZM165.742 111.893C165.637 111.893 165.531 111.861 165.441 111.795C165.222 111.635 165.179 111.335 165.345 111.124C166.041 110.243 166.722 109.334 167.37 108.423C167.526 108.204 167.836 108.148 168.063 108.298C168.29 108.447 168.349 108.745 168.193 108.964C167.536 109.889 166.845 110.81 166.139 111.704C166.041 111.828 165.893 111.893 165.742 111.893ZM54.2974 111.886C54.1468 111.886 53.9978 111.821 53.9001 111.697C53.1962 110.805 52.5063 109.884 51.8498 108.961C51.6943 108.742 51.7526 108.444 51.9799 108.294C52.2072 108.145 52.5173 108.201 52.6728 108.419C53.3203 109.33 54.0003 110.238 54.6942 111.117C54.8606 111.328 54.8178 111.629 54.5984 111.789C54.5082 111.854 54.4025 111.886 54.2974 111.886ZM50.3688 106.36C50.2013 106.36 50.0373 106.278 49.9431 106.131C49.335 105.176 48.7438 104.195 48.1865 103.214C48.0544 102.981 48.1436 102.691 48.3849 102.564C48.6266 102.437 48.9292 102.522 49.0613 102.754C49.6106 103.721 50.1934 104.689 50.793 105.63C50.9371 105.855 50.8633 106.151 50.6285 106.289C50.5473 106.337 50.4575 106.36 50.3683 106.36H50.3688ZM169.677 106.357C169.588 106.357 169.499 106.334 169.417 106.286C169.183 106.148 169.109 105.853 169.253 105.627C169.854 104.685 170.438 103.715 170.989 102.745C171.121 102.512 171.424 102.427 171.665 102.553C171.907 102.68 171.996 102.971 171.864 103.204C171.305 104.188 170.713 105.172 170.103 106.128C170.009 106.276 169.846 106.357 169.678 106.357L169.677 106.357ZM47.0335 100.488C46.848 100.488 46.6701 100.389 46.5843 100.218C46.0784 99.2107 45.5924 98.1784 45.1397 97.149C45.0326 96.905 45.1512 96.6242 45.4049 96.5212C45.6587 96.4181 45.9508 96.5322 46.0579 96.7761C46.5041 97.7907 46.9831 98.8086 47.4816 99.8011C47.6012 100.039 47.4976 100.326 47.2498 100.441C47.18 100.474 47.1062 100.489 47.0335 100.489V100.488ZM173.021 100.469C172.948 100.469 172.874 100.453 172.805 100.421C172.557 100.306 172.453 100.019 172.572 99.781C173.072 98.7851 173.553 97.7634 174 96.744C174.107 96.5001 174.399 96.386 174.653 96.489C174.907 96.5921 175.025 96.8729 174.918 97.1169C174.464 98.1506 173.977 99.1872 173.47 100.197C173.384 100.369 173.205 100.469 173.02 100.469H173.021ZM44.3257 94.331C44.1223 94.331 43.9309 94.2102 43.8571 94.0156C43.4579 92.9632 43.081 91.8873 42.737 90.8171C42.6558 90.5641 42.8033 90.2957 43.066 90.2176C43.3287 90.1395 43.6084 90.2813 43.6896 90.5339C44.0286 91.5887 44.4 92.6498 44.7938 93.6869C44.888 93.9356 44.7549 94.2107 44.4962 94.3013C44.4399 94.3209 44.382 94.3305 44.3252 94.3305L44.3257 94.331ZM175.736 94.285C175.679 94.285 175.622 94.2754 175.566 94.2557C175.307 94.1652 175.173 93.8901 175.268 93.6413C175.661 92.6014 176.033 91.5379 176.372 90.4802C176.453 90.2272 176.732 90.0848 176.995 90.1634C177.258 90.2411 177.406 90.5095 177.324 90.7625C176.98 91.8355 176.604 92.9148 176.204 93.9696C176.131 94.1642 175.94 94.285 175.736 94.285H175.736ZM42.2685 87.9301C42.0462 87.9301 41.8433 87.7859 41.7859 87.5693C41.4988 86.4842 41.2361 85.3772 41.0053 84.2792C40.951 84.0199 41.1255 83.7669 41.3951 83.7147C41.6648 83.6624 41.928 83.8302 41.9823 84.0894C42.2097 85.1721 42.4684 86.2633 42.752 87.3325C42.8198 87.5889 42.6588 87.8496 42.3921 87.9153C42.3507 87.9253 42.3093 87.9301 42.269 87.9301H42.2685ZM177.79 87.8745C177.75 87.8745 177.709 87.8698 177.667 87.8597C177.401 87.7945 177.239 87.5338 177.307 87.2774C177.59 86.2072 177.847 85.116 178.074 84.0334C178.128 83.7741 178.39 83.6059 178.66 83.6581C178.93 83.7104 179.105 83.9629 179.051 84.2222C178.821 85.3206 178.559 86.4277 178.273 87.5132C178.216 87.7303 178.013 87.8745 177.79 87.8745ZM40.8892 81.3635C40.6464 81.3635 40.4341 81.1928 40.3967 80.9556C40.2237 79.849 40.0771 78.7223 39.9615 77.6071C39.9341 77.3435 40.134 77.1087 40.4081 77.0828C40.6818 77.0565 40.9261 77.2486 40.9535 77.5122C41.0676 78.6116 41.2117 79.7225 41.3822 80.8133C41.423 81.075 41.2356 81.3189 40.9634 81.3587C40.9385 81.3625 40.9136 81.3639 40.8887 81.3639L40.8892 81.3635ZM179.164 81.3069C179.14 81.3069 179.115 81.305 179.09 81.3017C178.818 81.2624 178.63 81.0184 178.671 80.7567C178.84 79.666 178.984 78.5551 179.096 77.4552C179.123 77.1916 179.368 76.9994 179.641 77.0253C179.915 77.0512 180.115 77.286 180.088 77.5491C179.974 78.6648 179.828 79.7915 179.656 80.8981C179.619 81.1358 179.407 81.3064 179.164 81.3064L179.164 81.3069ZM40.1983 74.6981C39.9346 74.6981 39.7143 74.4987 39.7008 74.2428C39.643 73.1266 39.6131 71.9913 39.6121 70.8689C39.6121 70.6043 39.8349 70.3896 40.11 70.3891C40.3852 70.3891 40.6085 70.6034 40.6085 70.8679C40.6095 71.9745 40.6389 73.094 40.6963 74.1949C40.7102 74.4594 40.4984 74.6842 40.2232 74.6976C40.2147 74.6976 40.2063 74.6981 40.1978 74.6981H40.1983ZM179.85 74.6406C179.842 74.6406 179.834 74.6406 179.825 74.6401C179.55 74.6271 179.338 74.4024 179.352 74.1378C179.408 73.0365 179.436 71.9175 179.436 70.8118V70.6997C179.436 70.4351 179.659 70.22 179.934 70.22H179.935C180.21 70.22 180.433 70.4342 180.433 70.6987V70.8118C180.433 71.9328 180.404 73.0677 180.348 74.1848C180.335 74.4412 180.114 74.6406 179.85 74.6406ZM40.1933 67.9982C40.1853 67.9982 40.1768 67.9982 40.1689 67.9977C39.8937 67.9847 39.6818 67.7605 39.6948 67.4959C39.7511 66.3759 39.8369 65.2439 39.9505 64.1306C39.9774 63.867 40.2207 63.6744 40.4954 63.7003C40.7695 63.7261 40.9699 63.9605 40.943 64.2241C40.8313 65.3216 40.7466 66.4377 40.6908 67.5419C40.6778 67.7983 40.4575 67.9982 40.1933 67.9982ZM179.843 67.828C179.58 67.828 179.359 67.6291 179.346 67.3732C179.287 66.2695 179.2 65.1538 179.085 64.0559C179.058 63.7923 179.257 63.5574 179.531 63.5311C179.805 63.5047 180.05 63.6964 180.077 63.96C180.193 65.0733 180.282 66.2053 180.341 67.3248C180.355 67.5894 180.144 67.8141 179.869 67.8276C179.86 67.8276 179.852 67.828 179.843 67.828H179.843ZM40.8732 61.3308C40.8488 61.3308 40.8244 61.3289 40.7994 61.3256C40.5273 61.2868 40.3393 61.0428 40.3797 60.7812C40.5512 59.6726 40.7536 58.5541 40.9819 57.4566C41.0357 57.1968 41.2989 57.0286 41.5686 57.0809C41.8388 57.1326 42.0138 57.3852 41.9594 57.6449C41.7341 58.7266 41.5347 59.8294 41.3657 60.9221C41.3288 61.1598 41.116 61.3308 40.8732 61.3308ZM179.146 61.1626C178.904 61.1626 178.691 60.9925 178.653 60.7548C178.482 59.6631 178.279 58.5608 178.051 57.4791C177.996 57.2199 178.171 56.9668 178.44 56.9141C178.71 56.8614 178.973 57.0291 179.028 57.2884C179.259 58.3859 179.465 59.5035 179.639 60.6115C179.681 60.8732 179.493 61.1176 179.221 61.1569C179.196 61.1607 179.171 61.1622 179.146 61.1622V61.1626ZM42.2406 54.7618C42.2002 54.7618 42.1588 54.757 42.1179 54.7469C41.8512 54.6822 41.6892 54.4215 41.757 54.1646C42.0427 53.0787 42.3607 51.9855 42.7027 50.9144C42.7834 50.6613 43.0621 50.519 43.3253 50.5971C43.5885 50.6747 43.7365 50.9427 43.6553 51.1957C43.3183 52.2515 43.0047 53.3293 42.7231 54.3995C42.6658 54.6166 42.4629 54.7613 42.2401 54.7613L42.2406 54.7618ZM177.762 54.5969C177.539 54.5969 177.336 54.4527 177.279 54.236C176.994 53.1659 176.678 52.089 176.338 51.0347C176.257 50.7816 176.404 50.5132 176.667 50.4351C176.93 50.357 177.209 50.4984 177.29 50.7509C177.635 51.8206 177.956 52.9133 178.245 53.9988C178.313 54.2552 178.152 54.5164 177.885 54.5816C177.844 54.5917 177.802 54.5964 177.762 54.5964V54.5969ZM44.2883 48.3494C44.232 48.3494 44.1742 48.3403 44.1183 48.3207C43.8596 48.2301 43.726 47.9555 43.8198 47.7068C44.218 46.6519 44.6497 45.5923 45.1028 44.5581C45.2095 44.3142 45.5021 44.1996 45.7559 44.3027C46.0096 44.4052 46.1287 44.6865 46.0216 44.9305C45.5749 45.9503 45.1492 46.9946 44.7564 48.0346C44.6826 48.2291 44.4917 48.3504 44.2878 48.3504L44.2883 48.3494ZM175.699 48.1975C175.496 48.1975 175.305 48.0772 175.231 47.8826C174.838 46.8489 174.412 45.8099 173.965 44.7953C173.857 44.5519 173.976 44.2705 174.229 44.167C174.483 44.064 174.775 44.1776 174.883 44.4215C175.336 45.4509 175.769 46.5048 176.168 47.5534C176.263 47.8021 176.13 48.0772 175.871 48.1683C175.814 48.1879 175.757 48.1975 175.7 48.1975H175.699ZM46.9976 42.1633C46.9248 42.1633 46.8515 42.1479 46.7817 42.1158C46.5335 42.0008 46.4293 41.7147 46.5489 41.476C47.0549 40.4658 47.5948 39.4541 48.1531 38.4688C48.2847 38.2363 48.5877 38.1505 48.8295 38.2771C49.0713 38.4036 49.1605 38.695 49.0289 38.9274C48.4786 39.8988 47.9462 40.8962 47.4477 41.892C47.362 42.0636 47.1835 42.1633 46.9981 42.1633H46.9976ZM172.987 42.0425C172.802 42.0425 172.624 41.9428 172.537 41.7717C172.038 40.7797 171.506 39.7862 170.955 38.8191C170.823 38.5871 170.911 38.2957 171.153 38.1687C171.394 38.0417 171.697 38.1266 171.829 38.359C172.387 39.34 172.928 40.3474 173.434 41.3543C173.554 41.5925 173.451 41.8791 173.203 41.9946C173.133 42.0272 173.059 42.0425 172.986 42.0425H172.987ZM50.3359 36.2724C50.2472 36.2724 50.1575 36.2498 50.0762 36.2019C49.8414 36.0639 49.7671 35.7687 49.9112 35.5429C50.5194 34.5868 51.1609 33.6322 51.8184 32.7058C51.9734 32.4872 52.2835 32.4307 52.5113 32.5802C52.7386 32.7293 52.7974 33.0274 52.6419 33.2464C51.9939 34.1598 51.3613 35.1006 50.7616 36.0433C50.6674 36.1909 50.5039 36.2724 50.3359 36.2724ZM169.646 36.1736C169.479 36.1736 169.315 36.0926 169.221 35.945C168.621 35.0052 167.988 34.0669 167.339 33.1568C167.184 32.9382 167.242 32.6401 167.469 32.4906C167.696 32.3411 168.006 32.3967 168.162 32.6152C168.819 33.5387 169.461 34.49 170.07 35.4437C170.214 35.6695 170.141 35.9642 169.906 36.1027C169.825 36.1506 169.734 36.1736 169.646 36.1736H169.646ZM54.2665 30.7332C54.1618 30.7332 54.0556 30.7016 53.9659 30.6359C53.7465 30.4758 53.7032 30.1754 53.8697 29.9645C54.5735 29.0716 55.3103 28.1836 56.0595 27.3248C56.2365 27.1221 56.551 27.0957 56.7619 27.2658C56.9727 27.436 57.0001 27.7384 56.8232 27.9411C56.0844 28.7874 55.3581 29.663 54.6642 30.5434C54.566 30.668 54.4175 30.7332 54.2665 30.7332ZM165.713 30.6498C165.562 30.6498 165.414 30.5846 165.315 30.4605C164.621 29.582 163.894 28.7084 163.155 27.8639C162.977 27.6612 163.004 27.3593 163.215 27.1887C163.425 27.0181 163.74 27.0444 163.917 27.2467C164.667 28.1036 165.405 28.9897 166.109 29.8806C166.276 30.0915 166.233 30.392 166.014 30.552C165.924 30.6182 165.817 30.6498 165.713 30.6498ZM58.7478 25.5985C58.6267 25.5985 58.505 25.5563 58.4088 25.4706C58.207 25.2904 58.195 24.9875 58.3824 24.7934C59.1745 23.9719 59.999 23.1587 60.8325 22.3765C61.0294 22.1915 61.3449 22.1954 61.5373 22.3847C61.7297 22.574 61.7257 22.8773 61.5289 23.0623C60.7073 23.8339 59.8943 24.6357 59.1132 25.4452C59.015 25.5468 58.8814 25.5985 58.7478 25.5985ZM161.227 25.5257C161.093 25.5257 160.96 25.4744 160.862 25.3728C160.08 24.5643 159.266 23.764 158.443 22.9933C158.246 22.8088 158.242 22.5054 158.434 22.3157C158.626 22.1259 158.941 22.122 159.139 22.3066C159.974 23.0882 160.799 23.9001 161.592 24.7201C161.78 24.9137 161.768 25.217 161.567 25.3972C161.471 25.483 161.349 25.5257 161.227 25.5257H161.227ZM63.7336 20.9177C63.5956 20.9177 63.4585 20.8631 63.3598 20.7557C63.1773 20.5573 63.1968 20.2544 63.4031 20.079C64.276 19.3371 65.1792 18.6068 66.0885 17.908C66.3033 17.7427 66.6174 17.7762 66.7893 17.9833C66.9613 18.1898 66.9264 18.4917 66.7111 18.6571C65.8148 19.3462 64.924 20.0661 64.0636 20.7979C63.9689 20.8784 63.8508 20.9182 63.7336 20.9182V20.9177ZM156.234 20.8516C156.116 20.8516 155.999 20.8123 155.904 20.7317C155.042 20.0014 154.149 19.2815 153.251 18.5933C153.036 18.4285 153 18.127 153.172 17.92C153.343 17.713 153.657 17.6789 153.872 17.8438C154.783 18.5421 155.689 19.272 156.563 20.0129C156.769 20.1878 156.789 20.4907 156.607 20.6891C156.509 20.7964 156.371 20.8516 156.233 20.8516H156.234ZM69.1746 16.7362C69.02 16.7362 68.8675 16.6672 68.7698 16.5374C68.6088 16.3227 68.6591 16.0231 68.8825 15.8683C69.8266 15.2137 70.8006 14.5729 71.7772 13.9647C72.0079 13.821 72.317 13.8842 72.4666 14.1061C72.6161 14.328 72.5503 14.6252 72.3195 14.7689C71.3569 15.3689 70.3969 16.0001 69.4657 16.6457C69.3775 16.707 69.2758 16.7362 69.1746 16.7362ZM150.781 16.6739C150.68 16.6739 150.578 16.6447 150.49 16.5838C149.556 15.9388 148.594 15.3076 147.628 14.7085C147.397 14.5648 147.331 14.2681 147.48 14.0457C147.629 13.8234 147.938 13.7596 148.169 13.9029C149.148 14.5111 150.125 15.1509 151.072 15.8055C151.295 15.9599 151.346 16.2594 151.185 16.4746C151.088 16.6049 150.935 16.6739 150.78 16.6739H150.781ZM75.0163 13.0959C74.8443 13.0959 74.6768 13.0101 74.5846 12.8567C74.4465 12.6276 74.5278 12.3343 74.7661 12.2016C75.773 11.6404 76.8078 11.0964 77.8417 10.5851C78.0864 10.4638 78.387 10.5563 78.5131 10.7916C78.6393 11.027 78.5431 11.3159 78.2983 11.4372C77.2794 11.9414 76.259 12.4776 75.2665 13.0307C75.1878 13.0743 75.102 13.0954 75.0173 13.0954L75.0163 13.0959ZM144.921 13.036C144.836 13.036 144.751 13.0154 144.672 12.9717C143.676 12.4187 142.652 11.8829 141.629 11.3792C141.384 11.2584 141.287 10.9699 141.413 10.7341C141.538 10.4983 141.838 10.4054 142.084 10.5261C143.121 11.0375 144.16 11.581 145.171 12.1417C145.409 12.274 145.491 12.5673 145.353 12.7963C145.261 12.9502 145.093 13.036 144.921 13.036ZM81.202 10.0349C81.012 10.0349 80.8311 9.93043 80.7478 9.75311C80.6342 9.51204 80.7453 9.22785 80.9961 9.11858C82.0554 8.65754 83.1406 8.21568 84.2218 7.80592C84.478 7.70863 84.7671 7.82988 84.8683 8.07621C84.969 8.32255 84.8434 8.60099 84.5872 8.6978C83.5209 9.10181 82.4512 9.53696 81.4073 9.99177C81.3405 10.021 81.2708 10.0344 81.202 10.0344V10.0349ZM138.71 9.97692C138.642 9.97692 138.572 9.9635 138.506 9.93426C137.456 9.47993 136.381 9.04478 135.31 8.64173C135.054 8.5454 134.927 8.26743 135.027 8.02062C135.127 7.77429 135.416 7.65256 135.673 7.74889C136.76 8.15769 137.851 8.59907 138.915 9.06011C139.167 9.1689 139.278 9.45262 139.165 9.69416C139.082 9.87148 138.9 9.97644 138.71 9.97644L138.71 9.97692ZM87.6782 7.58163C87.4704 7.58163 87.276 7.45559 87.2057 7.25526C87.118 7.00461 87.258 6.7324 87.5187 6.64805C88.6229 6.29005 89.7509 5.95458 90.8725 5.65074C91.1377 5.57885 91.4129 5.72741 91.4877 5.9819C91.5624 6.23686 91.4079 6.5014 91.1432 6.57329C90.0381 6.87282 88.9259 7.2035 87.8373 7.55623C87.7844 7.57348 87.7306 7.58163 87.6782 7.58163ZM132.207 7.53035C132.155 7.53035 132.102 7.5222 132.049 7.50543C130.96 7.1551 129.847 6.82729 128.741 6.53016C128.476 6.45875 128.321 6.19468 128.395 5.93972C128.469 5.68476 128.744 5.53571 129.009 5.60712C130.131 5.90857 131.26 6.24117 132.365 6.59677C132.626 6.68064 132.767 6.95237 132.68 7.20302C132.61 7.40383 132.416 7.53035 132.207 7.53035ZM94.3843 5.76336C94.157 5.76336 93.9517 5.61287 93.8988 5.39098C93.8375 5.13314 94.0055 4.87579 94.2737 4.81684C95.4092 4.56763 96.5667 4.34238 97.7142 4.14781C97.9854 4.1018 98.2441 4.27577 98.2914 4.53648C98.3393 4.79719 98.1584 5.04592 97.8872 5.09145C96.7561 5.28315 95.6151 5.50504 94.496 5.7509C94.4586 5.75904 94.4212 5.76288 94.3843 5.76288V5.76336ZM125.496 5.72741C125.46 5.72741 125.423 5.72358 125.386 5.71543C124.266 5.47197 123.124 5.25296 121.993 5.06366C121.722 5.01813 121.54 4.77036 121.587 4.50964C121.634 4.24893 121.892 4.07401 122.164 4.11953C123.312 4.31123 124.47 4.5336 125.606 4.78042C125.874 4.83889 126.043 5.09529 125.982 5.3536C125.93 5.57645 125.724 5.72741 125.497 5.72741H125.496ZM101.246 4.59974C100.998 4.59974 100.783 4.42242 100.752 4.17992C100.718 3.91729 100.911 3.67767 101.185 3.6446C102.339 3.50561 103.514 3.39251 104.677 3.30864C104.951 3.28851 105.191 3.48693 105.211 3.75051C105.232 4.01458 105.026 4.24462 104.752 4.26427C103.605 4.34718 102.447 4.45836 101.309 4.59543C101.288 4.59782 101.267 4.59926 101.246 4.59926V4.59974ZM118.631 4.57961C118.611 4.57961 118.59 4.57865 118.57 4.57578C117.431 4.44159 116.273 4.3328 115.126 4.25228C114.851 4.23311 114.645 4.00356 114.665 3.73949C114.685 3.47542 114.924 3.27702 115.198 3.29618C116.361 3.37766 117.536 3.48788 118.691 3.62399C118.965 3.6561 119.159 3.89525 119.126 4.15787C119.095 4.40085 118.88 4.57865 118.632 4.57865L118.631 4.57961ZM108.195 4.09749C107.926 4.09749 107.704 3.89093 107.697 3.6307C107.69 3.36615 107.907 3.14618 108.182 3.13947C108.791 3.12461 109.41 3.11694 110.02 3.11694H110.022C110.577 3.11694 111.139 3.12317 111.693 3.13563C111.968 3.14187 112.186 3.36136 112.179 3.62591C112.173 3.89045 111.946 4.0994 111.669 4.09365C111.123 4.08167 110.569 4.07544 110.022 4.07544H110.02C109.418 4.07544 108.808 4.08311 108.208 4.09797C108.203 4.09797 108.199 4.09797 108.195 4.09797V4.09749Z" fill="#D2DCE4"/>
</g>
<g id="_&#195;&#131;&#194;&#171;&#195;&#131;&#194;&#174;&#195;&#131;&#194;&#169;_8">
<path id="Vector_10" d="M45.0145 20.9871H175.011C178.101 20.9871 180.583 23.3919 180.583 26.3313V115.271C180.583 118.211 178.101 120.616 175.011 120.616H45.0145C41.925 120.616 39.4427 118.211 39.4427 115.271V26.3313C39.4427 23.3919 41.925 20.9871 45.0145 20.9871Z" fill="white" stroke="#8599AC" stroke-width="0.656419"/>
<path id="Vector_11" d="M45.0145 20.9871H175.012C178.099 20.9871 180.584 23.3937 180.584 26.3313V32.3651H39.4427V26.3313C39.4427 23.3942 41.9269 20.9871 45.0145 20.9871Z" fill="#D2DCE4" stroke="#8599AC" stroke-width="0.656419"/>
<path id="Vector_12" d="M50.017 27.0647C50.017 28.2447 49.0206 29.2219 47.7656 29.2219C46.5105 29.2219 45.5141 28.2447 45.5141 27.0647C45.5141 25.8848 46.5105 24.9076 47.7656 24.9076C49.0206 24.9076 50.017 25.8848 50.017 27.0647Z" fill="white" stroke="#8599AC" stroke-width="0.656419"/>
<path id="Vector_13" d="M58.3837 27.0647C58.3837 28.2447 57.3873 29.2219 56.1323 29.2219C54.8772 29.2219 53.8808 28.2447 53.8808 27.0647C53.8808 25.8848 54.8772 24.9076 56.1323 24.9076C57.3873 24.9076 58.3837 25.8848 58.3837 27.0647Z" fill="white" stroke="#8599AC" stroke-width="0.656419"/>
<path id="Vector_14" d="M66.4709 27.0647C66.4709 28.2447 65.4745 29.2219 64.2194 29.2219C62.9644 29.2219 61.968 28.2447 61.968 27.0647C61.968 25.8848 62.9644 24.9076 64.2194 24.9076C65.4745 24.9076 66.4709 25.8848 66.4709 27.0647Z" fill="white" stroke="#8599AC" stroke-width="0.656419"/>
</g>
<g id="Group 113817">
<g id="Isolation_Mode" clip-path="url(#clip0_12934_52231)">
<g id="g1331">
<path id="path1333" d="M101.976 87.3679C103.568 84.5645 106.584 82.6726 110.042 82.6726C113.5 82.6726 116.538 84.5789 118.125 87.4005" stroke="#8599AC" stroke-width="3.23673" stroke-linecap="round" stroke-linejoin="round"/>
</g>
<g id="g1339">
<path id="path1341" d="M93.194 70.1533C93.194 67.5665 95.3742 65.4705 98.0638 65.4705C100.753 65.4705 102.934 67.5675 102.934 70.1533" stroke="#8599AC" stroke-width="3.23673" stroke-linecap="round" stroke-linejoin="round"/>
</g>
<g id="g1343">
<path id="path1345" d="M117.165 70.1533C117.165 67.5665 119.345 65.4705 122.035 65.4705C124.725 65.4705 126.905 67.5675 126.905 70.1533" stroke="#8599AC" stroke-width="3.23673" stroke-linecap="round" stroke-linejoin="round"/>
</g>
</g>
<g id="Vector_15">
<mask id="path-18-inside-1_12934_52231" fill="white">
<path d="M109.804 109.28C117.663 109.28 125.297 106.759 131.497 102.116L154.888 124.605C156.636 126.227 159.42 126.181 161.108 124.501C162.754 122.862 162.754 120.264 161.108 118.625L137.716 96.1366C149.7 81.3061 146.909 59.9441 131.483 48.4232C116.058 36.9023 93.8386 39.5851 81.8554 54.4156C69.8721 69.2461 72.6626 90.6082 88.0883 102.129C94.2985 106.767 101.94 109.284 109.804 109.28ZM91.0091 57.2107C101.389 47.231 118.219 47.2308 128.599 57.2104C138.979 67.1899 138.979 83.37 128.599 93.3498C118.219 103.33 101.39 103.33 91.0095 93.3501C91.0093 93.35 91.0093 93.35 91.0091 93.3498C80.629 83.4429 80.5679 67.3218 90.8723 57.3422C90.9178 57.2983 90.9634 57.2545 91.0091 57.2107Z"/>
</mask>
<path d="M109.804 109.28C117.663 109.28 125.297 106.759 131.497 102.116L154.888 124.605C156.636 126.227 159.42 126.181 161.108 124.501C162.754 122.862 162.754 120.264 161.108 118.625L137.716 96.1366C149.7 81.3061 146.909 59.9441 131.483 48.4232C116.058 36.9023 93.8386 39.5851 81.8554 54.4156C69.8721 69.2461 72.6626 90.6082 88.0883 102.129C94.2985 106.767 101.94 109.284 109.804 109.28ZM91.0091 57.2107C101.389 47.231 118.219 47.2308 128.599 57.2104C138.979 67.1899 138.979 83.37 128.599 93.3498C118.219 103.33 101.39 103.33 91.0095 93.3501C91.0093 93.35 91.0093 93.35 91.0091 93.3498C80.629 83.4429 80.5679 67.3218 90.8723 57.3422C90.9178 57.2983 90.9634 57.2545 91.0091 57.2107Z" fill="#D2DCE4"/>
<path d="M109.804 109.28L109.804 108.605H109.803L109.804 109.28ZM131.497 102.116L131.964 101.63L131.551 101.233L131.093 101.576L131.497 102.116ZM154.888 124.605L154.421 125.091L154.429 125.099L154.888 124.605ZM161.108 124.501L160.632 124.023L160.632 124.023L161.108 124.501ZM161.108 118.625L161.583 118.147L161.575 118.139L161.108 118.625ZM137.716 96.1366L137.192 95.7129L136.803 96.194L137.249 96.6227L137.716 96.1366ZM88.0883 102.129L88.4917 101.589L88.4917 101.589L88.0883 102.129ZM91.0091 57.2107L91.4754 57.6977L91.4764 57.6967L91.0091 57.2107ZM91.0095 93.3501L90.5422 93.8362L90.5422 93.8362L91.0095 93.3501ZM91.0091 93.3498L91.4764 92.8637L91.4746 92.862L91.0091 93.3498ZM90.8723 57.3422L90.404 56.8572L90.4033 56.8579L90.8723 57.3422ZM109.804 109.954C117.806 109.954 125.583 107.387 131.901 102.656L131.093 101.576C125.011 106.131 117.519 108.606 109.804 108.605L109.804 109.954ZM131.03 102.602L154.421 125.091L155.355 124.119L131.964 101.63L131.03 102.602ZM154.429 125.099C156.442 126.967 159.639 126.915 161.583 124.979L160.632 124.023C159.202 125.447 156.83 125.487 155.347 124.111L154.429 125.099ZM161.583 124.979C163.494 123.076 163.494 120.05 161.583 118.147L160.632 119.103C162.013 120.478 162.013 122.648 160.632 124.023L161.583 124.979ZM161.575 118.139L138.184 95.6506L137.249 96.6227L160.64 119.111L161.575 118.139ZM138.241 96.5604C150.469 81.4273 147.614 59.6288 131.887 47.883L131.08 48.9634C146.205 60.2594 148.931 81.1849 137.192 95.7129L138.241 96.5604ZM131.887 47.883C116.176 36.1488 93.5456 38.875 81.3309 53.9919L82.3798 54.8394C94.1317 40.2952 115.94 37.6558 131.08 48.9634L131.887 47.883ZM81.3309 53.9919C69.1032 69.1249 71.958 90.9234 87.6848 102.669L88.4917 101.589C73.3672 90.2929 70.641 69.3673 82.3798 54.8394L81.3309 53.9919ZM87.6848 102.669C94.0135 107.396 101.797 109.958 109.804 109.954L109.803 108.605C102.082 108.609 94.5836 106.139 88.4917 101.589L87.6848 102.669ZM91.4764 57.6967C101.595 47.9679 118.012 47.9677 128.132 57.6964L129.066 56.7243C118.425 46.4938 101.183 46.494 90.5418 56.7247L91.4764 57.6967ZM128.132 57.6964C138.236 67.4107 138.236 83.1493 128.132 92.8637L129.067 93.8358C139.723 83.5908 139.722 66.9692 129.066 56.7243L128.132 57.6964ZM128.132 92.8637C118.013 102.593 101.596 102.593 91.4767 92.8641L90.5422 93.8362C101.183 104.067 118.425 104.066 129.067 93.8358L128.132 92.8637ZM91.4767 92.8641L91.4764 92.8637L90.5418 93.8358L90.5422 93.8362L91.4767 92.8641ZM91.4746 92.862C81.3713 83.2193 81.312 67.5397 91.3414 57.8266L90.4033 56.8579C79.8237 67.1039 79.8868 83.6665 90.5436 93.8375L91.4746 92.862ZM91.3406 57.8273C91.3855 57.784 91.4303 57.7409 91.4754 57.6977L90.5428 56.7237C90.4964 56.7681 90.4502 56.8126 90.404 56.8572L91.3406 57.8273Z" fill="#8599AC" mask="url(#path-18-inside-1_12934_52231)"/>
</g>
</g>
</g>
<defs>
<clipPath id="clip0_12934_52231">
<rect width="37.6962" height="25.7643" fill="white" transform="translate(91.2002 63.5537)"/>
</clipPath>
</defs>
</svg>
