<svg width="78" height="77" viewBox="0 0 78 77" fill="none" xmlns="http://www.w3.org/2000/svg">
<path d="M26.4562 63H31.5865C32.0529 63 32.3638 62.697 32.3638 62.2424V61.9394L28.1663 50.8788C28.0109 50.5758 27.6999 50.4242 27.389 50.4242H22.2588C21.7924 50.5758 21.4814 50.8788 21.4814 51.1818V51.4849L25.6789 62.5455C25.8344 62.8485 26.1453 63 26.4562 63ZM47.5991 13.9091L51.7966 24.9697C51.952 25.2727 52.263 25.4242 52.5739 25.4242H57.7041C58.1705 25.4242 58.4814 25.1212 58.4814 24.6667V24.3636L54.284 13.303C54.1285 13.1515 53.8176 13 53.5067 13H48.3764C47.91 13 47.5991 13.303 47.5991 13.7576V13.9091ZM35.9394 63H41.0697C41.5361 63 41.847 62.697 41.847 62.2424V61.9394L32.9856 38.4545C32.8302 38.1515 32.5193 38 32.2083 38H27.0781C26.6117 38 26.3008 38.303 26.3008 38.7576V39.0606L35.1621 62.5455C35.3176 62.8485 35.6285 63 35.9394 63ZM46.0445 63H51.1747C51.6411 63 51.952 62.697 51.952 62.2424V62.0909L33.6075 13.4545C33.6075 13.1515 33.2966 13 32.9856 13H27.6999C27.389 13 27.0781 13.303 27.0781 13.7576V14.0606L45.4226 62.5455C45.5781 62.8485 45.7335 63 46.0445 63ZM46.9772 38H52.1075C52.5739 38 52.8848 37.697 52.8848 37.2424V36.9394L44.0235 13.4545C43.868 13.1515 43.5571 13 43.2462 13H38.1159C37.6495 13 37.3386 13.303 37.3386 13.7576V14.0606L46.3554 37.5455C46.5109 37.8485 46.6663 38 46.9772 38Z" fill="#244AE5"/>
</svg>
