<svg width="78" height="77" viewBox="0 0 78 77" fill="none" xmlns="http://www.w3.org/2000/svg">
<path d="M31.0564 19.3069C36.5913 13.0644 45.7407 11.2272 53.2712 14.8265C63.2678 19.6256 66.9201 31.8294 61.4793 41.2588L49.2236 62.4234C48.5458 63.6044 47.4163 64.4668 46.0984 64.823C44.7806 65.1791 43.3687 64.9917 42.1826 64.3168L57.0176 38.6906C60.971 31.8482 58.3166 22.9999 51.0685 19.4944C45.6278 16.8699 38.9822 18.1821 34.9534 22.6812C32.7319 25.1557 31.4894 28.3426 31.4518 31.6607C31.4141 34.9788 32.5813 38.2032 34.7275 40.7339C35.1228 41.1838 35.537 41.615 35.97 42.0087L27.31 57.0057C26.9712 57.5869 26.5193 58.1118 25.9922 58.5242C25.4462 58.9366 24.8438 59.2365 24.1849 59.4053C23.526 59.574 22.8483 59.6302 22.1705 59.5365C21.4928 59.4428 20.8527 59.2365 20.2691 58.8991L29.6633 42.6273C28.3078 40.6777 27.3477 38.5031 26.8017 36.1973L21.0409 46.1891C20.3632 47.3701 19.2336 48.2325 17.9158 48.5886C16.598 48.9448 15.186 48.7574 14 48.0825L28.8914 22.3063C29.5315 21.2378 30.2469 20.2442 31.0564 19.3069ZM48.2634 27.5178C51.8592 29.5799 53.0829 34.1915 51.012 37.772L36.7231 62.4234C36.0453 63.6044 34.9158 64.4668 33.5979 64.823C32.2801 65.1791 30.8682 64.9917 29.6821 64.3168L42.9545 41.3526C41.8814 41.1276 40.8836 40.6777 40.0176 40.0216C39.1516 39.3654 38.4174 38.5406 37.9091 37.5845C37.382 36.6285 37.0808 35.5787 37.0054 34.4914C36.9301 33.4041 37.0996 32.3168 37.4949 31.3045C37.8903 30.2922 38.4927 29.3737 39.2646 28.6238C40.0364 27.874 40.9778 27.2928 42.0132 26.9179C43.0298 26.5617 44.1217 26.4117 45.2136 26.5242C46.2679 26.6367 47.3221 26.9741 48.2634 27.5178ZM43.0674 32.1481C42.8227 32.3356 42.6156 32.5793 42.465 32.8417C42.2391 33.2542 42.1261 33.7041 42.145 34.1727C42.1826 34.6414 42.3521 35.0913 42.6344 35.4475C42.9168 35.8224 43.3122 36.0848 43.7452 36.2348C44.1782 36.3848 44.6677 36.4035 45.1195 36.2723C45.5713 36.1598 45.9667 35.8974 46.2867 35.5412C46.5879 35.185 46.795 34.7539 46.8515 34.3039C46.908 33.8353 46.8327 33.3666 46.6256 32.9542C46.4185 32.5418 46.0984 32.1856 45.6843 31.9607C45.4207 31.8107 45.1195 31.6982 44.8183 31.6607C44.517 31.6232 44.197 31.642 43.8958 31.717C43.5946 31.8294 43.3122 31.9607 43.0674 32.1481Z" fill="#615EFF"/>
</svg>
