<svg width="78" height="77" viewBox="0 0 78 77" fill="none" xmlns="http://www.w3.org/2000/svg">
<path d="M30.1417 14.9537H45.873L29.5424 63.3396C29.3746 63.8368 29.055 64.2689 28.6288 64.5749C28.2025 64.881 27.691 65.0457 27.1662 65.0458H14.9234C14.5258 65.0458 14.1339 64.9512 13.7801 64.7697C13.4264 64.5883 13.1209 64.3252 12.889 64.0022C12.657 63.6793 12.5054 63.3057 12.4465 62.9125C12.3876 62.5193 12.4231 62.1177 12.5502 61.741L27.7649 16.6599C27.9327 16.1625 28.2523 15.7302 28.6787 15.4241C29.1051 15.1179 29.6168 14.9538 30.1417 14.9537Z" fill="url(#paint0_linear_8177_4113)"/>
<path d="M53.0015 47.4077H28.0555C27.8236 47.4075 27.597 47.4771 27.4051 47.6074C27.2133 47.7378 27.0653 47.9229 26.9802 48.1387C26.8951 48.3544 26.8769 48.5908 26.9281 48.817C26.9793 49.0432 27.0974 49.2488 27.2671 49.4069L43.2968 64.3685C43.7635 64.8038 44.378 65.0459 45.0163 65.0458H59.1417L53.0015 47.4077Z" fill="#0078D4"/>
<path d="M30.1417 14.9536C29.611 14.9516 29.0936 15.1193 28.665 15.4322C28.2364 15.7452 27.9191 16.1869 27.7595 16.693L12.5689 61.6998C12.4333 62.0779 12.3907 62.4831 12.4448 62.8812C12.4988 63.2792 12.648 63.6584 12.8796 63.9866C13.1112 64.3148 13.4185 64.5824 13.7754 64.7668C14.1323 64.9511 14.5283 65.0468 14.93 65.0457H27.4888C27.9566 64.9621 28.3937 64.7559 28.7557 64.4481C29.1177 64.1402 29.3914 63.7419 29.549 63.2936L32.5783 54.3658L43.3989 64.4584C43.8524 64.8335 44.4212 65.0409 45.0097 65.0457H59.0825L52.9103 47.4077L34.9177 47.4119L45.9298 14.9536H30.1417Z" fill="url(#paint1_linear_8177_4113)"/>
<path d="M50.2345 16.6574C50.0669 16.1608 49.7478 15.7292 49.3221 15.4236C48.8963 15.1179 48.3854 14.9536 47.8613 14.9536H30.329C30.8531 14.9536 31.3639 15.1181 31.7897 15.4237C32.2154 15.7293 32.5345 16.1608 32.7021 16.6574L47.9175 61.7403C48.0447 62.1171 48.0803 62.5188 48.0215 62.9121C47.9626 63.3054 47.811 63.679 47.579 64.0021C47.3471 64.3252 47.0416 64.5884 46.6878 64.77C46.334 64.9515 45.942 65.0463 45.5443 65.0463H63.0772C63.4749 65.0462 63.8668 64.9514 64.2205 64.7698C64.5743 64.5881 64.8797 64.3249 65.1115 64.0019C65.3434 63.6788 65.495 63.3052 65.5538 62.9119C65.6126 62.5187 65.577 62.117 65.4498 61.7403L50.2345 16.6574Z" fill="url(#paint2_linear_8177_4113)"/>
<defs>
<linearGradient id="paint0_linear_8177_4113" x1="35.8753" y1="18.6657" x2="19.538" y2="66.9302" gradientUnits="userSpaceOnUse">
<stop stop-color="#114A8B"/>
<stop offset="1" stop-color="#0669BC"/>
</linearGradient>
<linearGradient id="paint1_linear_8177_4113" x1="40.9786" y1="41.1582" x2="37.1996" y2="42.436" gradientUnits="userSpaceOnUse">
<stop stop-opacity="0.3"/>
<stop offset="0.071" stop-opacity="0.2"/>
<stop offset="0.321" stop-opacity="0.1"/>
<stop offset="0.623" stop-opacity="0.05"/>
<stop offset="1" stop-opacity="0"/>
</linearGradient>
<linearGradient id="paint2_linear_8177_4113" x1="38.9003" y1="17.2579" x2="56.8338" y2="65.036" gradientUnits="userSpaceOnUse">
<stop stop-color="#3CCBF4"/>
<stop offset="1" stop-color="#2892DF"/>
</linearGradient>
</defs>
</svg>
