<svg width="78" height="77" viewBox="0 0 78 77" fill="none" xmlns="http://www.w3.org/2000/svg">
<path d="M57.7796 19C62.5546 19.2956 66.6223 21.015 69.9827 24.1582C70.9165 25.0324 71.7447 25.9751 72.4671 26.9864C76.3259 32.3824 77.0848 39.4386 74.4418 45.5119C71.7591 51.6795 66.0276 56.0208 59.3503 56.8528C58.5674 56.9509 57.3108 57 55.5802 57C44.0693 56.9987 32.6176 56.9975 21.225 56.9962C19.5449 56.995 18.2894 56.9377 17.4588 56.8245C5.96174 55.2491 -1.5387 43.7403 1.79714 32.5937C2.82287 29.1649 4.68807 26.2367 7.39274 23.8092C10.6776 20.8609 14.6213 19.2578 19.2239 19H57.7796ZM21.0306 49.2211C21.0293 49.362 21.1111 49.4563 21.276 49.5041C21.3427 49.523 21.378 49.5664 21.3817 49.6343C21.3893 49.7274 21.3742 49.8287 21.3364 49.9381C21.3226 49.9834 21.3377 50.0142 21.3817 50.0305L21.4516 50.0569C21.464 50.0618 21.4776 50.062 21.4899 50.0574C21.5021 50.0529 21.5121 50.0439 21.5177 50.0324C21.6133 49.8551 21.7291 49.7381 21.865 49.6815C21.9267 49.6563 21.9821 49.6658 22.0312 49.7098C22.3508 50.0041 22.6976 50.0544 23.0714 49.8607C23.5962 49.5903 23.9687 49.4117 24.189 49.3249C24.7314 49.1111 25.2833 49.1388 25.8446 49.4079C25.9264 49.4469 25.9233 49.4771 25.8352 49.4985C25.4463 49.5928 25.1537 49.6041 24.9857 49.8607C24.8887 50.0117 24.924 50.0551 25.0914 49.9909C25.4551 49.8526 25.771 49.8507 26.0391 49.9853C26.3411 50.1381 26.5507 50.2286 26.8697 50.0192C27.2876 49.7425 27.7149 49.5828 28.1516 49.54C28.4864 49.5073 28.5134 49.584 28.2328 49.7702C27.971 49.9437 27.7268 50.2871 27.5003 50.8003C27.4638 50.8846 27.4915 50.9229 27.5833 50.9154C28.3687 50.8475 28.9162 50.4928 29.6317 49.9947C30.1017 49.6683 30.5511 49.6362 31.1117 49.8853C31.2905 49.9645 31.512 50.0205 31.7763 50.0532C31.8417 50.0607 31.9046 50.0507 31.9651 50.023L32.6654 49.6928C32.6861 49.6832 32.7038 49.6685 32.717 49.6499C32.7301 49.6314 32.7382 49.6097 32.7405 49.5869C32.7428 49.5641 32.7392 49.5411 32.73 49.52C32.7208 49.4989 32.7064 49.4804 32.6881 49.4664C32.1765 49.0759 31.5931 49.191 30.77 49.1777C30.463 49.1727 30.215 49.0381 30.0262 48.774C29.9628 48.6847 29.9319 48.5763 29.9387 48.4668C29.9456 48.3573 29.9898 48.2533 30.064 48.1721C30.7077 47.4703 30.6926 46.6213 30.6285 45.7364C30.6277 45.724 30.6302 45.7115 30.6356 45.7003C30.641 45.689 30.6492 45.6794 30.6593 45.6724C30.6694 45.6653 30.6811 45.6611 30.6932 45.6601C30.7054 45.6591 30.7175 45.6613 30.7285 45.6666C31.4119 45.9861 32.2822 46.3609 33.3394 46.7911C33.5037 46.859 33.734 46.9911 33.8623 47.1778C34.34 47.8759 34.8403 48.5476 35.7124 48.7778C35.8182 48.8054 35.934 48.7652 36.0598 48.657C36.083 48.6369 36.1103 48.6219 36.1399 48.6131C36.1695 48.6043 36.2008 48.6019 36.2316 48.6061C36.5362 48.6488 36.7759 48.6224 36.9509 48.5268C37.0113 48.4954 37.0698 48.4979 37.1264 48.5344C37.5468 48.8098 38.0314 48.8985 38.5801 48.8004C38.8457 48.7526 38.8815 48.6042 38.6877 48.3551C38.674 48.3364 38.6573 48.3204 38.6386 48.308L37.9647 47.8118C37.9118 47.774 37.8747 47.7244 37.8533 47.6627C37.6771 47.1621 37.4002 46.7527 37.0226 46.4345C36.5997 46.0779 36.1183 45.5968 35.9956 45.2345C35.4293 43.5441 34.6886 41.8775 33.7736 40.2348C33.0298 38.9003 32.2438 37.7638 31.4157 36.8255C30.2792 35.5363 28.9426 34.1527 27.4059 32.6748C26.4217 31.7277 25.8119 31.0164 25.5766 30.5409C25.1864 29.7523 24.7969 28.9681 24.408 28.1882C23.6126 26.5921 22.3999 25.5972 20.7701 25.2035C19.952 25.0047 19.1534 25.0192 18.3744 25.2469C17.6476 25.4563 16.9717 25.9393 16.6451 26.5977C16.5935 26.7009 16.513 26.9021 16.4035 27.2015C16.328 27.4027 16.2103 27.5769 16.0504 27.7241C15.7201 28.026 15.3557 28.3429 15.1292 28.7052C14.481 29.7403 14.4313 30.8214 14.98 31.9484C15.1109 32.2151 15.2003 32.2019 15.2481 31.9088C15.2909 31.6371 15.362 31.3843 15.4614 31.1503C15.4746 31.1193 15.4947 31.0917 15.5202 31.0696C15.5457 31.0475 15.5759 31.0315 15.6086 31.0228C15.6414 31.014 15.6757 31.0128 15.7091 31.0193C15.7424 31.0257 15.7739 31.0395 15.8012 31.0598C16.5564 31.6208 17.3694 31.7302 18.2403 31.3881C18.3071 31.3617 18.3587 31.3793 18.3952 31.4409C18.9288 32.3113 19.2944 33.1634 19.492 33.9974C19.7034 34.8929 19.9753 36.1979 20.3076 37.9123C20.6461 39.6543 21.4724 41.2285 22.7863 42.6347C23.1846 43.0611 23.8454 43.5233 24.3136 44.0271C24.3889 44.1083 24.4307 44.2148 24.4306 44.3252C24.4231 45.6326 24.4023 46.442 25.0517 47.4948C25.0835 47.5474 25.0962 47.61 25.0876 47.6722C24.8894 48.9646 23.2488 48.657 22.354 48.3646C22.1369 48.2929 21.6026 48.3287 21.3817 48.4476C21.1716 48.5608 20.9349 48.6187 20.6719 48.6212C20.6052 48.6224 20.5486 48.6457 20.502 48.691C20.3308 48.8595 20.2081 49.0136 20.1339 49.1532C19.9514 49.4979 19.9998 49.5394 20.2792 49.2777C20.3686 49.1935 20.5819 49.1394 20.9192 49.1155C20.9947 49.1105 21.0319 49.1457 21.0306 49.2211ZM57.2887 42.4007C57.3041 42.3629 57.3274 42.3288 57.3571 42.3008C57.3867 42.2728 57.422 42.2515 57.4605 42.2385C58.4749 41.9064 59.3717 41.358 60.1507 40.5933C61.0783 39.6839 61.7919 38.9801 62.2915 38.4821C63.2481 37.5261 63.8761 36.7538 64.1756 36.1652C66.4184 31.7428 63.3469 26.5902 58.3724 26.5147C56.6053 26.4883 55.0416 27.1254 53.681 28.4259C52.7585 29.3089 51.7284 30.3365 50.5906 31.5088C50.0746 32.0409 49.6442 32.7245 49.2993 33.5597C49.2754 33.6175 49.2345 33.659 49.1766 33.6842C49.0835 33.7257 48.8834 33.81 48.5763 33.937C47.7784 34.2665 47.0547 34.752 46.4053 35.3935C45.523 36.2664 44.8257 36.9545 44.3135 37.4576C43.3922 38.3607 42.7743 39.1122 42.4596 39.7122C41.8429 40.8933 41.5799 42.0882 41.6705 43.2969C41.9461 46.9797 45.1272 49.7136 48.8179 49.4192C50.3911 49.2935 51.7831 48.6369 52.9939 47.4495C54.7106 45.7666 55.7319 44.7427 56.0578 44.378C56.5915 43.783 57.0018 43.124 57.2887 42.4007Z" fill="white"/>
<path d="M53.8905 37.3898C55.2781 38.8407 55.2876 41.167 53.8471 42.6461C53.0593 43.4574 52.1166 44.4008 51.0191 45.4762C49.5447 46.9214 47.3076 47.0516 45.7312 45.6743C44.4966 44.597 44.1417 42.8122 44.7911 41.316C45.0038 40.8267 45.6092 40.1035 46.6072 39.1463C47.2453 38.535 47.974 37.8275 48.7933 37.0238C48.803 37.0144 48.8149 37.0077 48.828 37.0045C48.8411 37.0013 48.8548 37.0016 48.8677 37.0055C48.8806 37.0093 48.8922 37.0165 48.9014 37.0264C48.9106 37.0362 48.9169 37.0484 48.9198 37.0615C49.4371 39.4878 50.8096 41.1607 53.0372 42.0801C53.1039 42.108 53.1778 42.1139 53.2481 42.0969C53.3184 42.0799 53.3814 42.041 53.428 41.9858C54.0133 41.2952 54.2687 40.5336 54.1945 39.701C54.1902 39.648 54.1713 39.5973 54.14 39.5543C54.1087 39.5114 54.0662 39.4779 54.017 39.4576C53.501 39.2425 53.0605 38.9438 52.6955 38.5614C51.308 37.1105 51.2985 34.7861 52.7371 33.3051C53.5262 32.4938 54.4695 31.5504 55.567 30.475C57.0414 29.0298 59.2785 28.8996 60.8548 30.2769C62.0895 31.3542 62.4444 33.139 61.795 34.6352C61.5823 35.1245 60.9769 35.8477 59.9789 36.8049C59.3408 37.4162 58.6121 38.1237 57.7927 38.9274C57.7831 38.9368 57.7711 38.9435 57.7581 38.9467C57.745 38.9499 57.7313 38.9496 57.7184 38.9457C57.7055 38.9419 57.6939 38.9347 57.6847 38.9248C57.6755 38.915 57.6692 38.9028 57.6663 38.8897C57.149 36.4634 55.7765 34.7905 53.5488 33.8711C53.4821 33.8432 53.4083 33.8373 53.338 33.8543C53.2677 33.8713 53.2047 33.9102 53.1581 33.9654C52.5728 34.656 52.3173 35.4176 52.3916 36.2502C52.3959 36.3032 52.4147 36.3539 52.446 36.3969C52.4774 36.4398 52.5199 36.4733 52.5691 36.4936C53.0851 36.7087 53.5256 37.0074 53.8905 37.3898Z" fill="white"/>
<path d="M27.3058 49.0651C27.0188 48.5557 26.9074 48.5443 26.3505 48.6745C26.1227 48.7286 25.9434 48.6739 25.8125 48.5104L25.7577 48.4425C25.5891 48.2312 25.6231 48.0884 25.8597 48.0142C26.353 47.8595 26.6897 47.5205 26.8697 46.9972C27.0346 46.518 27.1441 46.0508 27.1982 45.5954C27.2259 45.3615 27.2875 45.352 27.3832 45.5671C27.7834 46.469 28.0911 47.3501 28.9312 47.9991C28.9727 48.0311 29.007 48.0715 29.0319 48.1176C29.0569 48.1638 29.0719 48.2146 29.0759 48.2668C29.08 48.3191 29.0731 48.3716 29.0557 48.421C29.0382 48.4704 29.0106 48.5157 28.9746 48.5538C28.5178 49.0343 28.0062 49.2355 27.4398 49.1575C27.3794 49.1487 27.3347 49.1179 27.3058 49.0651Z" fill="white"/>
</svg>
