<svg width="78" height="77" viewBox="0 0 78 77" fill="none" xmlns="http://www.w3.org/2000/svg">
<g clip-path="url(#clip0_8177_4096)">
<path d="M24.3263 39.5933C24.3263 40.4065 24.4158 41.0659 24.5724 41.5494C24.7513 42.0329 24.975 42.5604 25.2881 43.1318C25.4 43.3076 25.4447 43.4835 25.4447 43.6373C25.4447 43.8571 25.3105 44.0769 25.0197 44.2966L23.6105 45.2197C23.4092 45.3516 23.2079 45.4175 23.0289 45.4175C22.8052 45.4175 22.5816 45.3076 22.3579 45.1098C22.0447 44.7802 21.7763 44.4285 21.5526 44.0769C21.3289 43.7032 21.1052 43.2857 20.8592 42.7802C19.1145 44.8021 16.9224 45.8131 14.2829 45.8131C12.4039 45.8131 10.9052 45.2857 9.80919 44.2307C8.71314 43.1758 8.15393 41.7692 8.15393 40.0109C8.15393 38.1428 8.82498 36.6263 10.1895 35.4835C11.5539 34.3406 13.3658 33.7692 15.6697 33.7692C16.4302 33.7692 17.2131 33.8351 18.0408 33.945C18.8684 34.0549 19.7184 34.2307 20.6131 34.4285V32.8241C20.6131 31.1538 20.2552 29.989 19.5618 29.3076C18.846 28.6263 17.6381 28.2966 15.9158 28.2966C15.1329 28.2966 14.3276 28.3846 13.5 28.5824C12.6724 28.7802 11.8671 29.0219 11.0842 29.3296C10.7263 29.4835 10.4579 29.5714 10.3013 29.6153C10.1447 29.6593 10.0329 29.6813 9.9434 29.6813C9.63025 29.6813 9.47367 29.4615 9.47367 28.9999V27.923C9.47367 27.5714 9.5184 27.3076 9.63025 27.1538C9.74209 26.9999 9.9434 26.8461 10.2566 26.6922C11.0395 26.2966 11.9789 25.967 13.075 25.7032C14.171 25.4175 15.3342 25.2857 16.5645 25.2857C19.2263 25.2857 21.1724 25.8791 22.425 27.0659C23.6552 28.2527 24.2816 30.0549 24.2816 32.4725V39.5933H24.3263ZM15.2447 42.934C15.9829 42.934 16.7434 42.8021 17.5487 42.5384C18.3539 42.2747 19.0697 41.7912 19.6737 41.1318C20.0316 40.7142 20.3 40.2527 20.4342 39.7252C20.5684 39.1977 20.6579 38.5604 20.6579 37.8131V36.8901C20.0092 36.7362 19.3158 36.6043 18.6 36.5164C17.8842 36.4285 17.1908 36.3846 16.4974 36.3846C14.9987 36.3846 13.9026 36.6703 13.1645 37.2637C12.4263 37.8571 12.0684 38.6923 12.0684 39.7912C12.0684 40.8241 12.3368 41.5933 12.896 42.1208C13.4329 42.6703 14.2158 42.934 15.2447 42.934ZM33.2066 45.3076C32.8039 45.3076 32.5355 45.2417 32.3566 45.0879C32.1776 44.956 32.021 44.6483 31.8868 44.2307L26.6302 27.2417C26.496 26.8021 26.4289 26.5164 26.4289 26.3626C26.4289 26.0109 26.6079 25.8131 26.9658 25.8131H29.1579C29.5829 25.8131 29.8737 25.8791 30.0302 26.0329C30.2092 26.1648 30.3434 26.4725 30.4776 26.8901L34.2355 41.4395L37.725 26.8901C37.8368 26.4505 37.971 26.1648 38.15 26.0329C38.3289 25.901 38.6421 25.8131 39.0447 25.8131H40.8342C41.2592 25.8131 41.55 25.8791 41.7289 26.0329C41.9079 26.1648 42.0645 26.4725 42.1539 26.8901L45.6881 41.6153L49.5579 26.8901C49.6921 26.4505 49.8487 26.1648 50.0052 26.0329C50.1842 25.901 50.475 25.8131 50.8776 25.8131H52.9579C53.3158 25.8131 53.5171 25.989 53.5171 26.3626C53.5171 26.4725 53.4947 26.5824 53.4723 26.7142C53.45 26.8461 53.4052 27.0219 53.3158 27.2637L47.925 44.2527C47.7908 44.6922 47.6342 44.978 47.4552 45.1098C47.2763 45.2417 46.9855 45.3296 46.6052 45.3296H44.6816C44.2566 45.3296 43.9658 45.2637 43.7868 45.1098C43.6079 44.956 43.4513 44.6703 43.3618 44.2307L39.8947 30.0549L36.45 44.2087C36.3381 44.6483 36.2039 44.934 36.025 45.0879C35.846 45.2417 35.5329 45.3076 35.1302 45.3076H33.2066ZM61.95 45.901C60.7868 45.901 59.6237 45.7692 58.5052 45.5054C57.3868 45.2417 56.5145 44.956 55.9329 44.6263C55.575 44.4285 55.3289 44.2087 55.2395 44.0109C55.15 43.8131 55.1052 43.5933 55.1052 43.3955V42.2747C55.1052 41.8131 55.2842 41.5933 55.6197 41.5933C55.7539 41.5933 55.8881 41.6153 56.0224 41.6593C56.1566 41.7032 56.3579 41.7912 56.5816 41.8791C57.3421 42.2087 58.1697 42.4725 59.0421 42.6483C59.9368 42.8241 60.8092 42.912 61.7039 42.912C63.1131 42.912 64.2092 42.6703 64.9697 42.1868C65.7302 41.7032 66.1329 40.9999 66.1329 40.0988C66.1329 39.4835 65.9316 38.978 65.5289 38.5604C65.1263 38.1428 64.3658 37.7692 63.2697 37.4175L60.0263 36.4285C58.3934 35.923 57.1855 35.1758 56.4473 34.1868C55.7092 33.2197 55.3289 32.1428 55.3289 30.9999C55.3289 30.0769 55.5302 29.2637 55.9329 28.5604C56.3355 27.8571 56.8723 27.2417 57.5434 26.7582C58.2145 26.2527 58.975 25.8791 59.8697 25.6153C60.7645 25.3516 61.7039 25.2417 62.6881 25.2417C63.1802 25.2417 63.6947 25.2637 64.1868 25.3296C64.7013 25.3955 65.171 25.4835 65.6408 25.5714C66.0881 25.6813 66.5131 25.7911 66.9158 25.923C67.3184 26.0549 67.6316 26.1868 67.8552 26.3186C68.1684 26.4944 68.3921 26.6703 68.5263 26.8681C68.6605 27.0439 68.7276 27.2857 68.7276 27.5933V28.6263C68.7276 29.0879 68.5487 29.3296 68.2131 29.3296C68.0342 29.3296 67.7434 29.2417 67.3631 29.0659C66.0881 28.4944 64.6566 28.2087 63.0684 28.2087C61.7934 28.2087 60.7868 28.4065 60.0934 28.8241C59.4 29.2417 59.0421 29.8791 59.0421 30.7802C59.0421 31.3955 59.2658 31.923 59.7131 32.3406C60.1605 32.7582 60.9881 33.1758 62.1737 33.5494L65.35 34.5384C66.9605 35.0439 68.1237 35.7472 68.8171 36.6483C69.5105 37.5494 69.846 38.5824 69.846 39.7252C69.846 40.6703 69.6447 41.5274 69.2645 42.2747C68.8618 43.0219 68.325 43.6813 67.6316 44.2087C66.9381 44.7582 66.1105 45.1538 65.1487 45.4395C64.1421 45.7472 63.0908 45.901 61.95 45.901Z" fill="white"/>
<path fill-rule="evenodd" clip-rule="evenodd" d="M66.1777 56.5827C58.8185 61.9234 48.1264 64.7585 38.933 64.7585C26.0487 64.7585 14.4395 60.0772 5.67112 52.297C4.9777 51.6816 5.60401 50.8464 6.43165 51.33C15.9159 56.7365 27.6145 60.0113 39.7159 60.0113C47.8803 60.0113 56.8501 58.3409 65.104 54.9124C66.3343 54.3629 67.3856 55.7036 66.1777 56.5827Z" fill="#FF9900"/>
<path fill-rule="evenodd" clip-rule="evenodd" d="M69.2422 53.1539C68.3027 51.9671 63.0238 52.5824 60.6304 52.8682C59.9146 52.9561 59.8027 52.3407 60.4514 51.8791C64.6567 48.978 71.5685 49.8132 72.3738 50.7802C73.1791 51.7693 72.1501 58.5605 68.2133 61.8132C67.6093 62.3187 67.0277 62.055 67.2962 61.3956C68.1909 59.2198 70.1817 54.3187 69.2422 53.1539Z" fill="#FF9900"/>
</g>
<defs>
<clipPath id="clip0_8177_4096">
<rect width="68" height="40" fill="white" transform="translate(5 25)"/>
</clipPath>
</defs>
</svg>
