<svg width="78" height="77" viewBox="0 0 78 77" fill="none" xmlns="http://www.w3.org/2000/svg">
<path d="M16.1326 28.0539V29.5526L38.143 42.5195L57.89 30.9427V35.656L38.143 47.3414L17.2539 34.9175L16.1326 35.5474V44.5613L38.143 57.5065L57.89 45.9514V50.556L38.143 62.2198L17.2539 49.7958L16.1326 50.4474V52.0547L38.143 65L60.1326 52.0547V43.0626L59.1151 42.4109L38.143 54.8349L18.479 43.0626V38.4579L38.143 50.013L60.1326 37.046V28.1625L59.1151 27.5326L38.143 39.9566L19.4964 28.9227L38.143 17.8888L53.5917 26.9896L54.9207 26.1425V24.9479L38.143 15L16.1326 28.0539Z" fill="#EF3E2B"/>
</svg>
