<svg width="78" height="77" viewBox="0 0 78 77" fill="none" xmlns="http://www.w3.org/2000/svg">
<mask id="mask0_8177_4134" style="mask-type:luminance" maskUnits="userSpaceOnUse" x="20" y="16" width="38" height="50">
<path d="M20.356 16H57.6441V66H20.356V16Z" fill="white"/>
</mask>
<g mask="url(#mask0_8177_4134)">
<path d="M20.4005 59.7474C28.6276 68.0212 41.9661 68.0212 50.1933 59.7474C58.4204 51.4737 58.4204 38.0589 50.1933 29.7852L46.4691 33.5305C52.6394 39.736 52.6394 49.7966 46.4691 56.0021C40.2988 62.2072 30.2949 62.2072 24.1246 56.0021L20.4005 59.7474Z" fill="#00E9A3"/>
<path d="M27.8488 52.2563C31.9623 56.3932 38.6314 56.3932 42.7449 52.2563C46.8585 48.1195 46.8585 41.4123 42.7449 37.2754L39.0212 41.0207C41.078 43.089 41.078 46.4428 39.0212 48.511C38.5336 49.0026 37.9534 49.3927 37.3142 49.659C36.675 49.9252 35.9895 50.0623 35.2971 50.0623C34.6046 50.0623 33.9191 49.9252 33.2799 49.659C32.6407 49.3927 32.0606 49.0026 31.5729 48.511L27.8488 52.2563Z" fill="#00E9A3"/>
<path d="M57.6416 22.2947C49.4144 14.0209 36.0759 14.0209 27.8487 22.2947C19.6216 30.5688 19.6216 43.9832 27.8487 52.2569L31.5725 48.5116C25.4026 42.3061 25.4026 32.2455 31.5725 26.04C37.7428 19.8349 47.7471 19.8349 53.9174 26.04L57.6416 22.2947Z" fill="#00E9A3"/>
<path d="M50.1933 29.7862C46.0797 25.6494 39.4102 25.6494 35.2967 29.7862C31.1831 33.9231 31.1831 40.6303 35.2967 44.7672L39.0212 41.0218C36.964 38.9536 36.964 35.6002 39.0212 33.5316C39.5089 33.0401 40.089 32.65 40.7281 32.3837C41.3673 32.1175 42.0528 31.9804 42.7452 31.9804C43.4375 31.9804 44.1231 32.1175 44.7622 32.3837C45.4014 32.65 45.9815 33.0401 46.4691 33.5316L50.1933 29.7862Z" fill="#00E9A3"/>
<path d="M57.6415 22.2947C49.4144 14.0209 36.0754 14.0209 27.8483 22.2947C19.6212 30.5688 19.6212 43.9832 27.8483 52.2569L31.5729 48.5116C25.4021 42.3061 25.4021 32.2455 31.5729 26.04C37.7428 19.8349 47.7466 19.8349 53.917 26.04L57.6415 22.2947Z" fill="white" fill-opacity="0.8"/>
<path d="M50.1933 29.7862C46.0797 25.6494 39.4102 25.6494 35.2967 29.7862C31.1831 33.9231 31.1831 40.6303 35.2967 44.7672L39.0212 41.0218C36.964 38.9536 36.964 35.6002 39.0212 33.5316C39.5089 33.0401 40.089 32.65 40.7281 32.3837C41.3673 32.1175 42.0528 31.9804 42.7452 31.9804C43.4375 31.9804 44.1231 32.1175 44.7622 32.3837C45.4014 32.65 45.9815 33.0401 46.4691 33.5316L50.1933 29.7862Z" fill="white" fill-opacity="0.8"/>
</g>
</svg>
