<svg width="78" height="77" viewBox="0 0 78 77" fill="none" xmlns="http://www.w3.org/2000/svg">
<path d="M46.8699 29.2666H48.7605L54.1494 23.8673L54.4137 21.5741C44.3838 12.7033 29.0766 13.6616 20.2228 23.7107C17.7628 26.4998 15.9801 29.8222 15.005 33.4167C15.6042 33.1706 16.2704 33.1296 16.8956 33.3049L27.6735 31.5225C27.6735 31.5225 28.2206 30.6127 28.5072 30.6686C33.3007 25.3924 41.3693 24.7771 46.9071 29.2666H46.8699Z" fill="#EA4335"/>
<path d="M61.8274 33.4165C60.588 28.845 58.0461 24.7358 54.5106 21.5962L46.9482 29.1731C50.1413 31.787 51.9612 35.7283 51.8831 39.8598V41.2059C55.601 41.2059 58.6156 44.2263 58.6156 47.9513C58.6156 51.6764 55.601 54.6967 51.8831 54.6967H38.4181L37.0746 56.0615V64.1529L38.4181 65.499H51.8831C61.552 65.5736 69.453 57.7804 69.5275 48.093C69.5721 42.209 66.6804 36.7053 61.8274 33.4165Z" fill="#4285F4"/>
<path d="M24.9341 65.4132H38.3991V54.6146H24.9341C23.974 54.6146 23.0287 54.4058 22.1541 54.0068L20.2635 54.596L14.8373 59.9953L14.3646 61.8895C17.4052 64.1939 21.1194 65.4319 24.9341 65.4132Z" fill="#34A853"/>
<path d="M24.9343 30.3849C15.2617 30.4408 7.47231 38.3422 7.52813 48.0333C7.56163 53.4438 10.0812 58.5373 14.3648 61.8336L22.1729 54.0106C18.7862 52.478 17.2789 48.4808 18.8085 45.0876C20.3381 41.6943 24.3277 40.1842 27.7144 41.7167C29.2068 42.3916 30.4015 43.5923 31.0788 45.0876L38.8868 37.2645C35.5671 32.9093 30.4015 30.3625 24.9343 30.3849Z" fill="#FBBC05"/>
</svg>
