<svg width="404" height="376" viewBox="0 0 404 376" fill="none" xmlns="http://www.w3.org/2000/svg">
<rect x="20" width="384" height="376" fill="#091B36"/>
<ellipse cx="211.288" cy="188.14" rx="137.288" ry="133.14" fill="#092349"/>
<g clip-path="url(#clip0_8197_17531)">
<g filter="url(#filter0_bd_8197_17531)">
<rect x="72.1976" y="99" width="280" height="178.832" rx="6.71114" fill="url(#paint0_linear_8197_17531)"/>
<rect x="72.6171" y="99.4194" width="279.161" height="177.993" rx="6.2917" stroke="url(#paint1_linear_8197_17531)" stroke-opacity="0.2" stroke-width="0.838893"/>
</g>
<g style="mix-blend-mode:overlay">
<rect x="72.1976" y="132.723" width="280" height="144.088" fill="#A2C6FF" fill-opacity="0.6"/>
</g>
<path d="M232.124 141.92H114.606C113.195 141.92 112.051 143.064 112.051 144.475C112.051 145.886 113.195 147.029 114.606 147.029H232.124C233.535 147.029 234.679 145.886 234.679 144.475C234.679 143.064 233.535 141.92 232.124 141.92Z" fill="#00E0FF"/>
<path d="M285.263 252.285H167.745C166.334 252.285 165.19 253.429 165.19 254.84C165.19 256.251 166.334 257.394 167.745 257.394H285.263C286.674 257.394 287.818 256.251 287.818 254.84C287.818 253.429 286.674 252.285 285.263 252.285Z" fill="#3D7FFC"/>
<path d="M92.1243 141.92H89.0586C87.6476 141.92 86.5038 143.064 86.5038 144.475C86.5038 145.886 87.6476 147.029 89.0586 147.029H92.1243C93.5352 147.029 94.679 145.886 94.679 144.475C94.679 143.064 93.5352 141.92 92.1243 141.92Z" fill="white" fill-opacity="0.2"/>
<path d="M92.1242 252.285H89.0585C87.6475 252.285 86.5037 253.429 86.5037 254.84C86.5037 256.251 87.6475 257.394 89.0585 257.394H92.1242C93.5351 257.394 94.6789 256.251 94.6789 254.84C94.6789 253.429 93.5351 252.285 92.1242 252.285Z" fill="white" fill-opacity="0.2"/>
<path d="M275.044 153.161H157.526C156.115 153.161 154.971 154.305 154.971 155.716C154.971 157.126 156.115 158.27 157.526 158.27H275.044C276.455 158.27 277.599 157.126 277.599 155.716C277.599 154.305 276.455 153.161 275.044 153.161Z" fill="#3D7FFC"/>
<path d="M315.92 262.504H207.599C206.188 262.504 205.044 263.648 205.044 265.059C205.044 266.47 206.188 267.613 207.599 267.613H315.92C317.331 267.613 318.475 266.47 318.475 265.059C318.475 263.648 317.331 262.504 315.92 262.504Z" fill="#FFC0E0"/>
<path d="M307.745 153.161H288.329C286.918 153.161 285.774 154.305 285.774 155.716C285.774 157.126 286.918 158.27 288.329 158.27H307.745C309.156 158.27 310.3 157.126 310.3 155.716C310.3 154.305 309.156 153.161 307.745 153.161Z" fill="#9D97F4"/>
<path d="M198.401 262.504H178.985C177.574 262.504 176.431 263.648 176.431 265.059C176.431 266.47 177.574 267.613 178.985 267.613H198.401C199.812 267.613 200.956 266.47 200.956 265.059C200.956 263.648 199.812 262.504 198.401 262.504Z" fill="#0B88CD"/>
<path d="M196.358 164.402H157.526C156.115 164.402 154.971 165.545 154.971 166.956C154.971 168.367 156.115 169.511 157.526 169.511H196.358C197.769 169.511 198.913 168.367 198.913 166.956C198.913 165.545 197.769 164.402 196.358 164.402Z" fill="#00E0FF"/>
<path d="M176.942 273.745H138.11C136.699 273.745 135.555 274.889 135.555 276.299C135.555 277.71 136.699 278.854 138.11 278.854H176.942C178.353 278.854 179.497 277.71 179.497 276.299C179.497 274.889 178.353 273.745 176.942 273.745Z" fill="#00E0FF"/>
<path d="M239.278 164.402H211.686C210.276 164.402 209.132 165.545 209.132 166.956C209.132 168.367 210.276 169.511 211.686 169.511H239.278C240.689 169.511 241.832 168.367 241.832 166.956C241.832 165.545 240.689 164.402 239.278 164.402Z" fill="#9D97F4"/>
<path d="M219.862 273.745H192.271C190.86 273.745 189.716 274.889 189.716 276.299C189.716 277.71 190.86 278.854 192.271 278.854H219.862C221.273 278.854 222.416 277.71 222.416 276.299C222.416 274.889 221.273 273.745 219.862 273.745Z" fill="#9D97F4"/>
<path d="M295.482 164.402H254.606C253.195 164.402 252.051 165.545 252.051 166.956C252.051 168.367 253.195 169.511 254.606 169.511H295.482C296.893 169.511 298.037 168.367 298.037 166.956C298.037 165.545 296.893 164.402 295.482 164.402Z" fill="#3D7FFC"/>
<path d="M275.044 273.745H234.168C232.757 273.745 231.613 274.889 231.613 276.299C231.613 277.71 232.757 278.854 234.168 278.854H275.044C276.455 278.854 277.599 277.71 277.599 276.299C277.599 274.889 276.455 273.745 275.044 273.745Z" fill="#FFC0E0"/>
<path d="M283.219 175.643H199.423C198.012 175.643 196.869 176.786 196.869 178.197C196.869 179.608 198.012 180.752 199.423 180.752H283.219C284.63 180.752 285.774 179.608 285.774 178.197C285.774 176.786 284.63 175.643 283.219 175.643Z" fill="#3D7FFC"/>
<path d="M185.117 175.643H175.92C174.509 175.643 173.365 176.786 173.365 178.197C173.365 179.608 174.509 180.752 175.92 180.752H185.117C186.528 180.752 187.672 179.608 187.672 178.197C187.672 176.786 186.528 175.643 185.117 175.643Z" fill="#9D97F4"/>
<path d="M239.278 185.862H175.92C174.509 185.862 173.365 187.005 173.365 188.416C173.365 189.827 174.509 190.971 175.92 190.971H239.278C240.689 190.971 241.833 189.827 241.833 188.416C241.833 187.005 240.689 185.862 239.278 185.862Z" fill="#00E0FF"/>
<path d="M92.1242 153.161H89.0585C87.6475 153.161 86.5037 154.305 86.5037 155.716C86.5037 157.126 87.6475 158.27 89.0585 158.27H92.1242C93.5351 158.27 94.6789 157.126 94.6789 155.716C94.6789 154.305 93.5351 153.161 92.1242 153.161Z" fill="white" fill-opacity="0.2"/>
<path d="M92.1242 262.504H89.0585C87.6475 262.504 86.5037 263.648 86.5037 265.059C86.5037 266.47 87.6475 267.613 89.0585 267.613H92.1242C93.5351 267.613 94.6789 266.47 94.6789 265.059C94.6789 263.648 93.5351 262.504 92.1242 262.504Z" fill="white" fill-opacity="0.2"/>
<path d="M92.1242 164.402H89.0585C87.6475 164.402 86.5037 165.545 86.5037 166.956C86.5037 168.367 87.6475 169.511 89.0585 169.511H92.1242C93.5351 169.511 94.6789 168.367 94.6789 166.956C94.6789 165.545 93.5351 164.402 92.1242 164.402Z" fill="white" fill-opacity="0.2"/>
<path d="M92.1242 273.745H89.0585C87.6475 273.745 86.5037 274.889 86.5037 276.299C86.5037 277.71 87.6475 278.854 89.0585 278.854H92.1242C93.5351 278.854 94.6789 277.71 94.6789 276.299C94.6789 274.889 93.5351 273.745 92.1242 273.745Z" fill="white" fill-opacity="0.2"/>
<path d="M92.1242 175.643H89.0585C87.6475 175.643 86.5037 176.786 86.5037 178.197C86.5037 179.608 87.6475 180.752 89.0585 180.752H92.1242C93.5351 180.752 94.6789 179.608 94.6789 178.197C94.6789 176.786 93.5351 175.643 92.1242 175.643Z" fill="white" fill-opacity="0.2"/>
<path d="M92.1242 185.862H89.0585C87.6475 185.862 86.5037 187.005 86.5037 188.416C86.5037 189.827 87.6475 190.971 89.0585 190.971H92.1242C93.5351 190.971 94.6789 189.827 94.6789 188.416C94.6789 187.005 93.5351 185.862 92.1242 185.862Z" fill="white" fill-opacity="0.2"/>
<path d="M269.934 197.102H152.416C151.005 197.102 149.861 198.246 149.861 199.657C149.861 201.068 151.005 202.212 152.416 202.212H269.934C271.345 202.212 272.489 201.068 272.489 199.657C272.489 198.246 271.345 197.102 269.934 197.102Z" fill="#9D97F4"/>
<path d="M92.1242 197.102H89.0585C87.6475 197.102 86.5037 198.246 86.5037 199.657C86.5037 201.068 87.6475 202.212 89.0585 202.212H92.1242C93.5351 202.212 94.6789 201.068 94.6789 199.657C94.6789 198.246 93.5351 197.102 92.1242 197.102Z" fill="white" fill-opacity="0.2"/>
<path d="M275.044 208.343H157.526C156.115 208.343 154.971 209.487 154.971 210.898C154.971 212.309 156.115 213.453 157.526 213.453H275.044C276.455 213.453 277.599 212.309 277.599 210.898C277.599 209.487 276.455 208.343 275.044 208.343Z" fill="#3D7FFC"/>
<path d="M307.745 208.343H288.329C286.918 208.343 285.774 209.487 285.774 210.898C285.774 212.309 286.918 213.453 288.329 213.453H307.745C309.156 213.453 310.3 212.309 310.3 210.898C310.3 209.487 309.156 208.343 307.745 208.343Z" fill="#0B88CD"/>
<path d="M196.358 218.562H157.526C156.115 218.562 154.971 219.706 154.971 221.117C154.971 222.528 156.115 223.672 157.526 223.672H196.358C197.769 223.672 198.913 222.528 198.913 221.117C198.913 219.706 197.769 218.562 196.358 218.562Z" fill="#00E0FF"/>
<path d="M239.278 218.562H211.686C210.276 218.562 209.132 219.706 209.132 221.117C209.132 222.528 210.276 223.672 211.686 223.672H239.278C240.689 223.672 241.832 222.528 241.832 221.117C241.832 219.706 240.689 218.562 239.278 218.562Z" fill="#9D97F4"/>
<path d="M295.482 218.562H254.606C253.195 218.562 252.051 219.706 252.051 221.117C252.051 222.528 253.195 223.672 254.606 223.672H295.482C296.893 223.672 298.037 222.528 298.037 221.117C298.037 219.706 296.893 218.562 295.482 218.562Z" fill="#FFC0E0"/>
<path d="M283.219 229.803H199.423C198.012 229.803 196.869 230.947 196.869 232.358C196.869 233.769 198.012 234.913 199.423 234.913H283.219C284.63 234.913 285.774 233.769 285.774 232.358C285.774 230.947 284.63 229.803 283.219 229.803Z" fill="#FFC0E0"/>
<path d="M185.117 229.803H175.92C174.509 229.803 173.365 230.947 173.365 232.358C173.365 233.769 174.509 234.913 175.92 234.913H185.117C186.528 234.913 187.672 233.769 187.672 232.358C187.672 230.947 186.528 229.803 185.117 229.803Z" fill="#9D97F4"/>
<path d="M190.226 241.044H126.869C125.458 241.044 124.314 242.188 124.314 243.599C124.314 245.01 125.458 246.153 126.869 246.153H190.226C191.637 246.153 192.781 245.01 192.781 243.599C192.781 242.188 191.637 241.044 190.226 241.044Z" fill="#3D7FFC"/>
<path d="M92.1242 208.343H89.0585C87.6475 208.343 86.5037 209.487 86.5037 210.898C86.5037 212.309 87.6475 213.453 89.0585 213.453H92.1242C93.5351 213.453 94.6789 212.309 94.6789 210.898C94.6789 209.487 93.5351 208.343 92.1242 208.343Z" fill="white" fill-opacity="0.2"/>
<path d="M92.1242 218.562H89.0585C87.6475 218.562 86.5037 219.706 86.5037 221.117C86.5037 222.528 87.6475 223.672 89.0585 223.672H92.1242C93.5351 223.672 94.6789 222.528 94.6789 221.117C94.6789 219.706 93.5351 218.562 92.1242 218.562Z" fill="white" fill-opacity="0.2"/>
<path d="M92.1242 229.803H89.0585C87.6475 229.803 86.5037 230.947 86.5037 232.358C86.5037 233.769 87.6475 234.913 89.0585 234.913H92.1242C93.5351 234.913 94.6789 233.769 94.6789 232.358C94.6789 230.947 93.5351 229.803 92.1242 229.803Z" fill="white" fill-opacity="0.2"/>
<path d="M92.1242 241.044H89.0585C87.6475 241.044 86.5037 242.188 86.5037 243.599C86.5037 245.01 87.6475 246.153 89.0585 246.153H92.1242C93.5351 246.153 94.6789 245.01 94.6789 243.599C94.6789 242.188 93.5351 241.044 92.1242 241.044Z" fill="white" fill-opacity="0.2"/>
<path d="M89.5699 114.329C89.5699 115.449 88.646 116.373 87.5261 116.373C86.4062 116.373 85.4823 115.449 85.4823 114.329C85.4823 113.209 86.4062 112.285 87.5261 112.285C88.646 112.285 89.5699 113.209 89.5699 114.329Z" fill="white"/>
<path d="M98.6907 114.329C98.6907 115.449 97.7668 116.373 96.6469 116.373C95.527 116.373 94.6031 115.449 94.6031 114.329C94.6031 113.209 95.527 112.285 96.6469 112.285C97.7948 112.285 98.6907 113.209 98.6907 114.329Z" fill="white"/>
<path d="M107.812 114.329C107.812 115.449 106.888 116.373 105.768 116.373C104.648 116.373 103.724 115.449 103.724 114.329C103.724 113.209 104.648 112.285 105.768 112.285C106.888 112.285 107.812 113.209 107.812 114.329Z" fill="white"/>
</g>
<g filter="url(#filter1_bd_8197_17531)">
<path d="M67.131 258.387H133.955L143.366 267.798H57.7192L67.131 258.387Z" fill="url(#paint2_linear_8197_17531)"/>
</g>
<g filter="url(#filter2_bd_8197_17531)">
<path d="M41.9118 335.093L54.1087 322.857H146.977L159.174 335.093H41.9118Z" stroke="url(#paint3_linear_8197_17531)" stroke-opacity="0.3" stroke-width="0.941176" shape-rendering="crispEdges"/>
</g>
<g filter="url(#filter3_bd_8197_17531)">
<path d="M23.1531 339.799L46.4653 318.151H152.762L180.584 339.799H23.1531Z" stroke="url(#paint4_linear_8197_17531)" stroke-opacity="0.3" stroke-width="0.941176" shape-rendering="crispEdges"/>
</g>
<path d="M67.1312 258.387L49.2488 271.563L40.7783 281.916L57.7194 267.798L67.1312 258.387Z" fill="url(#paint5_linear_8197_17531)"/>
<path d="M134.896 258.387L152.778 271.563L161.248 281.916L144.307 267.798L134.896 258.387Z" fill="url(#paint6_linear_8197_17531)"/>
<path d="M57.7192 330.857H143.366V267.799H57.7192V330.857Z" fill="url(#paint7_linear_8197_17531)"/>
<rect x="128.543" y="316.034" width="10.8235" height="10.8235" rx="1.15904" stroke="#3D7FFC" stroke-width="0.470588"/>
<path d="M133.168 318.355C133.278 318.563 133.223 318.739 133.146 318.926C133.026 319.233 133.059 319.53 133.278 319.782C133.498 320.046 133.805 320.079 134.124 320.013C134.563 319.914 134.816 319.497 134.75 319.036C134.717 318.816 134.585 318.596 134.706 318.355C134.596 318.41 134.596 318.41 134.464 318.629C134.343 318.486 134.234 318.333 134.102 318.179C133.992 318.058 133.882 317.948 133.948 317.751C133.816 317.817 133.75 317.904 133.706 318.014C133.674 318.124 133.652 318.234 133.63 318.344C133.608 318.453 133.553 318.552 133.443 318.618C133.377 318.497 133.311 318.41 133.168 318.355Z" fill="#3D7FFC"/>
<path d="M132.909 325.121V324.584L133.491 324.508V321.437L132.954 321.263V320.665L134.42 320.468L134.73 320.438V320.642V324.501L135.305 324.584V325.121H132.909Z" fill="#3D7FFC"/>
<path d="M53.0135 290.387H148.072L143.366 267.799H57.7194L53.0135 290.387Z" fill="url(#paint8_linear_8197_17531)"/>
<g clip-path="url(#clip1_8197_17531)">
<path d="M128.715 239.563H71.43C68.0163 239.563 65.249 242.331 65.249 245.744V267.265C65.249 270.678 68.0163 273.446 71.43 273.446H128.715C132.129 273.446 134.896 270.678 134.896 267.265V245.744C134.896 242.331 132.129 239.563 128.715 239.563Z" fill="#092349"/>
<path d="M71.43 240.034H128.715C131.869 240.034 134.425 242.59 134.425 245.744V267.265C134.425 270.418 131.869 272.975 128.715 272.975H71.43C68.2762 272.975 65.7196 270.418 65.7196 267.265V245.744C65.7196 242.59 68.2762 240.034 71.43 240.034Z" stroke="url(#paint9_linear_8197_17531)" stroke-opacity="0.5" stroke-width="0.941176"/>
<g filter="url(#filter4_i_8197_17531)">
<g filter="url(#filter5_bd_8197_17531)">
<path d="M138.366 256.504H62.7207C62.5576 256.504 62.4255 256.637 62.4255 256.8V273.15C62.4255 273.313 62.5576 273.446 62.7207 273.446H138.366C138.529 273.446 138.661 273.313 138.661 273.15V256.8C138.661 256.637 138.529 256.504 138.366 256.504Z" fill="url(#paint10_linear_8197_17531)"/>
<path d="M62.8961 272.975V256.975H138.19V272.975H62.8961Z" stroke="url(#paint11_linear_8197_17531)" stroke-opacity="0.6" stroke-width="0.941176"/>
</g>
<path d="M113.249 260.269H80.3079V270.622H113.249V260.269Z" fill="#15C1E6"/>
<path d="M68.5431 270.622C69.3227 270.622 69.9548 269.912 69.9548 269.037V261.854C69.9548 260.979 69.3227 260.269 68.5431 260.269C67.7634 260.269 67.1313 260.979 67.1313 261.854V269.037C67.1313 269.912 67.7634 270.622 68.5431 270.622Z" fill="#9D97F4"/>
<path d="M74.1905 270.622C74.9701 270.622 75.6022 269.912 75.6022 269.037V261.854C75.6022 260.979 74.9701 260.269 74.1905 260.269C73.4108 260.269 72.7787 260.979 72.7787 261.854V269.037C72.7787 269.912 73.4108 270.622 74.1905 270.622Z" fill="#15C1E6"/>
<path d="M120.905 262.152H132.888C133.478 262.152 133.955 261.731 133.955 261.21C133.955 260.69 133.478 260.269 132.888 260.269H120.905C120.315 260.269 119.838 260.69 119.838 261.21C119.838 261.731 120.315 262.152 120.905 262.152Z" fill="#3D7FFC"/>
<path d="M120.905 265.916H132.888C133.478 265.916 133.955 265.495 133.955 264.975C133.955 264.455 133.478 264.034 132.888 264.034H120.905C120.315 264.034 119.838 264.455 119.838 264.975C119.838 265.495 120.315 265.916 120.905 265.916Z" fill="#15C1E6"/>
<path d="M120.905 269.681H132.888C133.478 269.681 133.955 269.26 133.955 268.74C133.955 268.219 133.478 267.798 132.888 267.798H120.905C120.315 267.798 119.838 268.219 119.838 268.74C119.838 269.26 120.315 269.681 120.905 269.681Z" fill="#3D7FFC"/>
</g>
<g filter="url(#filter6_bd_8197_17531)">
<path d="M138.365 235.798H62.7205C62.5575 235.798 62.4254 235.931 62.4254 236.094V252.444C62.4254 252.607 62.5575 252.74 62.7205 252.74H138.365C138.528 252.74 138.661 252.607 138.661 252.444V236.094C138.661 235.931 138.528 235.798 138.365 235.798Z" fill="url(#paint12_linear_8197_17531)"/>
<path d="M62.8959 252.269V236.269H138.19V252.269H62.8959Z" stroke="url(#paint13_linear_8197_17531)" stroke-opacity="0.6" stroke-width="0.941176"/>
</g>
<path d="M113.249 239.563H80.3077V249.916H113.249V239.563Z" fill="#15C1E6"/>
<path d="M68.5429 249.916C69.3226 249.916 69.9547 249.206 69.9547 248.331V241.148C69.9547 240.273 69.3226 239.563 68.5429 239.563C67.7633 239.563 67.1312 240.273 67.1312 241.148V248.331C67.1312 249.206 67.7633 249.916 68.5429 249.916Z" fill="#9D97F4"/>
<path d="M74.1903 249.916C74.97 249.916 75.6021 249.206 75.6021 248.331V241.148C75.6021 240.273 74.97 239.563 74.1903 239.563C73.4107 239.563 72.7786 240.273 72.7786 241.148V248.331C72.7786 249.206 73.4107 249.916 74.1903 249.916Z" fill="#15C1E6"/>
<path d="M120.905 241.446H132.888C133.478 241.446 133.955 241.025 133.955 240.504C133.955 239.984 133.478 239.563 132.888 239.563H120.905C120.315 239.563 119.837 239.984 119.837 240.504C119.837 241.025 120.315 241.446 120.905 241.446Z" fill="#3D7FFC"/>
<path d="M120.905 245.21H132.888C133.478 245.21 133.955 244.789 133.955 244.269C133.955 243.749 133.478 243.328 132.888 243.328H120.905C120.315 243.328 119.837 243.749 119.837 244.269C119.837 244.789 120.315 245.21 120.905 245.21Z" fill="#15C1E6"/>
<path d="M120.905 248.975H132.888C133.478 248.975 133.955 248.554 133.955 248.034C133.955 247.514 133.478 247.093 132.888 247.093H120.905C120.315 247.093 119.837 247.514 119.837 248.034C119.837 248.554 120.315 248.975 120.905 248.975Z" fill="#3D7FFC"/>
</g>
<defs>
<filter id="filter0_bd_8197_17531" x="33.6422" y="60.4445" width="357.111" height="255.943" filterUnits="userSpaceOnUse" color-interpolation-filters="sRGB">
<feFlood flood-opacity="0" result="BackgroundImageFix"/>
<feGaussianBlur in="BackgroundImageFix" stdDeviation="19.2777"/>
<feComposite in2="SourceAlpha" operator="in" result="effect1_backgroundBlur_8197_17531"/>
<feColorMatrix in="SourceAlpha" type="matrix" values="0 0 0 0 0 0 0 0 0 0 0 0 0 0 0 0 0 0 127 0" result="hardAlpha"/>
<feMorphology radius="1.38422" operator="erode" in="SourceAlpha" result="effect2_dropShadow_8197_17531"/>
<feOffset dy="5.53687"/>
<feGaussianBlur stdDeviation="13.7193"/>
<feComposite in2="hardAlpha" operator="out"/>
<feColorMatrix type="matrix" values="0 0 0 0 0 0 0 0 0 0 0 0 0 0 0 0 0 0 0.2 0"/>
<feBlend mode="normal" in2="effect1_backgroundBlur_8197_17531" result="effect2_dropShadow_8197_17531"/>
<feBlend mode="normal" in="SourceGraphic" in2="effect2_dropShadow_8197_17531" result="shape"/>
</filter>
<filter id="filter1_bd_8197_17531" x="25.3414" y="226.009" width="150.403" height="74.1674" filterUnits="userSpaceOnUse" color-interpolation-filters="sRGB">
<feFlood flood-opacity="0" result="BackgroundImageFix"/>
<feGaussianBlur in="BackgroundImageFix" stdDeviation="16.1889"/>
<feComposite in2="SourceAlpha" operator="in" result="effect1_backgroundBlur_8197_17531"/>
<feColorMatrix in="SourceAlpha" type="matrix" values="0 0 0 0 0 0 0 0 0 0 0 0 0 0 0 0 0 0 127 0" result="hardAlpha"/>
<feMorphology radius="1.16243" operator="erode" in="SourceAlpha" result="effect2_dropShadow_8197_17531"/>
<feOffset dy="4.64972"/>
<feGaussianBlur stdDeviation="11.5211"/>
<feComposite in2="hardAlpha" operator="out"/>
<feColorMatrix type="matrix" values="0 0 0 0 0 0 0 0 0 0 0 0 0 0 0 0 0 0 0.2 0"/>
<feBlend mode="normal" in2="effect1_backgroundBlur_8197_17531" result="effect2_dropShadow_8197_17531"/>
<feBlend mode="normal" in="SourceGraphic" in2="effect2_dropShadow_8197_17531" result="shape"/>
</filter>
<filter id="filter2_bd_8197_17531" x="8.40041" y="290.009" width="184.285" height="77.9322" filterUnits="userSpaceOnUse" color-interpolation-filters="sRGB">
<feFlood flood-opacity="0" result="BackgroundImageFix"/>
<feGaussianBlur in="BackgroundImageFix" stdDeviation="16.1889"/>
<feComposite in2="SourceAlpha" operator="in" result="effect1_backgroundBlur_8197_17531"/>
<feColorMatrix in="SourceAlpha" type="matrix" values="0 0 0 0 0 0 0 0 0 0 0 0 0 0 0 0 0 0 127 0" result="hardAlpha"/>
<feMorphology radius="1.16243" operator="erode" in="SourceAlpha" result="effect2_dropShadow_8197_17531"/>
<feOffset dy="4.64972"/>
<feGaussianBlur stdDeviation="11.5211"/>
<feComposite in2="hardAlpha" operator="out"/>
<feColorMatrix type="matrix" values="0 0 0 0 0 0 0 0 0 0 0 0 0 0 0 0 0 0 0.2 0"/>
<feBlend mode="normal" in2="effect1_backgroundBlur_8197_17531" result="effect2_dropShadow_8197_17531"/>
<feBlend mode="normal" in="SourceGraphic" in2="effect2_dropShadow_8197_17531" result="shape"/>
</filter>
<filter id="filter3_bd_8197_17531" x="-10.4231" y="285.303" width="224.756" height="87.3439" filterUnits="userSpaceOnUse" color-interpolation-filters="sRGB">
<feFlood flood-opacity="0" result="BackgroundImageFix"/>
<feGaussianBlur in="BackgroundImageFix" stdDeviation="16.1889"/>
<feComposite in2="SourceAlpha" operator="in" result="effect1_backgroundBlur_8197_17531"/>
<feColorMatrix in="SourceAlpha" type="matrix" values="0 0 0 0 0 0 0 0 0 0 0 0 0 0 0 0 0 0 127 0" result="hardAlpha"/>
<feMorphology radius="1.16243" operator="erode" in="SourceAlpha" result="effect2_dropShadow_8197_17531"/>
<feOffset dy="4.64972"/>
<feGaussianBlur stdDeviation="11.5211"/>
<feComposite in2="hardAlpha" operator="out"/>
<feColorMatrix type="matrix" values="0 0 0 0 0 0 0 0 0 0 0 0 0 0 0 0 0 0 0.2 0"/>
<feBlend mode="normal" in2="effect1_backgroundBlur_8197_17531" result="effect2_dropShadow_8197_17531"/>
<feBlend mode="normal" in="SourceGraphic" in2="effect2_dropShadow_8197_17531" result="shape"/>
</filter>
<filter id="filter4_i_8197_17531" x="62.4255" y="252.74" width="76.2353" height="20.7059" filterUnits="userSpaceOnUse" color-interpolation-filters="sRGB">
<feFlood flood-opacity="0" result="BackgroundImageFix"/>
<feBlend mode="normal" in="SourceGraphic" in2="BackgroundImageFix" result="shape"/>
<feColorMatrix in="SourceAlpha" type="matrix" values="0 0 0 0 0 0 0 0 0 0 0 0 0 0 0 0 0 0 127 0" result="hardAlpha"/>
<feOffset dy="-8.47059"/>
<feGaussianBlur stdDeviation="1.88235"/>
<feComposite in2="hardAlpha" operator="arithmetic" k2="-1" k3="1"/>
<feColorMatrix type="matrix" values="0 0 0 0 0.0392157 0 0 0 0 0.137255 0 0 0 0 0.298039 0 0 0 0.4 0"/>
<feBlend mode="normal" in2="shape" result="effect1_innerShadow_8197_17531"/>
</filter>
<filter id="filter5_bd_8197_17531" x="26.9156" y="220.994" width="147.255" height="87.961" filterUnits="userSpaceOnUse" color-interpolation-filters="sRGB">
<feFlood flood-opacity="0" result="BackgroundImageFix"/>
<feGaussianBlur in="BackgroundImageFix" stdDeviation="17.755"/>
<feComposite in2="SourceAlpha" operator="in" result="effect1_backgroundBlur_8197_17531"/>
<feColorMatrix in="SourceAlpha" type="matrix" values="0 0 0 0 0 0 0 0 0 0 0 0 0 0 0 0 0 0 127 0" result="hardAlpha"/>
<feMorphology radius="1.27488" operator="erode" in="SourceAlpha" result="effect2_dropShadow_8197_17531"/>
<feOffset dy="5.0995"/>
<feGaussianBlur stdDeviation="12.6356"/>
<feComposite in2="hardAlpha" operator="out"/>
<feColorMatrix type="matrix" values="0 0 0 0 0 0 0 0 0 0 0 0 0 0 0 0 0 0 0.2 0"/>
<feBlend mode="normal" in2="effect1_backgroundBlur_8197_17531" result="effect2_dropShadow_8197_17531"/>
<feBlend mode="normal" in="SourceGraphic" in2="effect2_dropShadow_8197_17531" result="shape"/>
</filter>
<filter id="filter6_bd_8197_17531" x="26.9155" y="200.289" width="147.255" height="87.961" filterUnits="userSpaceOnUse" color-interpolation-filters="sRGB">
<feFlood flood-opacity="0" result="BackgroundImageFix"/>
<feGaussianBlur in="BackgroundImageFix" stdDeviation="17.755"/>
<feComposite in2="SourceAlpha" operator="in" result="effect1_backgroundBlur_8197_17531"/>
<feColorMatrix in="SourceAlpha" type="matrix" values="0 0 0 0 0 0 0 0 0 0 0 0 0 0 0 0 0 0 127 0" result="hardAlpha"/>
<feMorphology radius="1.27488" operator="erode" in="SourceAlpha" result="effect2_dropShadow_8197_17531"/>
<feOffset dy="5.0995"/>
<feGaussianBlur stdDeviation="12.6356"/>
<feComposite in2="hardAlpha" operator="out"/>
<feColorMatrix type="matrix" values="0 0 0 0 0 0 0 0 0 0 0 0 0 0 0 0 0 0 0.2 0"/>
<feBlend mode="normal" in2="effect1_backgroundBlur_8197_17531" result="effect2_dropShadow_8197_17531"/>
<feBlend mode="normal" in="SourceGraphic" in2="effect2_dropShadow_8197_17531" result="shape"/>
</filter>
<linearGradient id="paint0_linear_8197_17531" x1="112.717" y1="91.3129" x2="351.165" y2="268.634" gradientUnits="userSpaceOnUse">
<stop offset="0.28" stop-color="#092349"/>
<stop offset="1" stop-color="#003C97"/>
</linearGradient>
<linearGradient id="paint1_linear_8197_17531" x1="110.26" y1="102.577" x2="314.293" y2="273.465" gradientUnits="userSpaceOnUse">
<stop stop-color="white" stop-opacity="0"/>
<stop offset="1" stop-color="#BBB7FF"/>
</linearGradient>
<linearGradient id="paint2_linear_8197_17531" x1="108.995" y1="269.774" x2="108.944" y2="258.929" gradientUnits="userSpaceOnUse">
<stop offset="0.28" stop-color="#092349"/>
<stop offset="1" stop-color="#003C97"/>
</linearGradient>
<linearGradient id="paint3_linear_8197_17531" x1="57.0268" y1="322.65" x2="63.064" y2="351.946" gradientUnits="userSpaceOnUse">
<stop stop-color="white" stop-opacity="0"/>
<stop offset="1" stop-color="#BBB7FF"/>
</linearGradient>
<linearGradient id="paint4_linear_8197_17531" x1="26.1885" y1="318.133" x2="36.5692" y2="368.341" gradientUnits="userSpaceOnUse">
<stop stop-color="white" stop-opacity="0"/>
<stop offset="1" stop-color="#BBB7FF"/>
</linearGradient>
<linearGradient id="paint5_linear_8197_17531" x1="40.7783" y1="270.151" x2="67.1312" y2="270.151" gradientUnits="userSpaceOnUse">
<stop stop-color="#015DFF"/>
<stop offset="1" stop-color="#0B3A9F"/>
</linearGradient>
<linearGradient id="paint6_linear_8197_17531" x1="161.248" y1="270.151" x2="134.896" y2="270.151" gradientUnits="userSpaceOnUse">
<stop stop-color="#015DFF"/>
<stop offset="1" stop-color="#0B3A9F"/>
</linearGradient>
<linearGradient id="paint7_linear_8197_17531" x1="101.013" y1="234.857" x2="121.178" y2="351.367" gradientUnits="userSpaceOnUse">
<stop offset="0.28" stop-color="#092349"/>
<stop offset="1" stop-color="#0359F4"/>
</linearGradient>
<linearGradient id="paint8_linear_8197_17531" x1="53.0135" y1="279.093" x2="148.072" y2="279.093" gradientUnits="userSpaceOnUse">
<stop stop-color="#015DFF"/>
<stop offset="1" stop-color="#0B3A9F"/>
</linearGradient>
<linearGradient id="paint9_linear_8197_17531" x1="124.558" y1="228.74" x2="114.034" y2="270.813" gradientUnits="userSpaceOnUse">
<stop stop-color="white" stop-opacity="0"/>
<stop offset="1" stop-color="#BBB7FF"/>
</linearGradient>
<linearGradient id="paint10_linear_8197_17531" x1="73.4578" y1="255.776" x2="91.5653" y2="294.478" gradientUnits="userSpaceOnUse">
<stop offset="0.28" stop-color="#092349"/>
<stop offset="1" stop-color="#003C97"/>
</linearGradient>
<linearGradient id="paint11_linear_8197_17531" x1="72.7887" y1="256.843" x2="86.6999" y2="290.33" gradientUnits="userSpaceOnUse">
<stop stop-color="#BBB7FF"/>
<stop offset="1" stop-color="white" stop-opacity="0"/>
</linearGradient>
<linearGradient id="paint12_linear_8197_17531" x1="73.4576" y1="235.07" x2="91.5651" y2="273.772" gradientUnits="userSpaceOnUse">
<stop stop-color="#092349"/>
<stop offset="1" stop-color="#003C97"/>
</linearGradient>
<linearGradient id="paint13_linear_8197_17531" x1="72.7886" y1="236.137" x2="86.6997" y2="269.624" gradientUnits="userSpaceOnUse">
<stop stop-color="#BBB7FF"/>
<stop offset="1" stop-color="white" stop-opacity="0"/>
</linearGradient>
<clipPath id="clip0_8197_17531">
<rect x="72.1976" y="99" width="280" height="178.832" rx="8.17518" fill="white"/>
</clipPath>
<clipPath id="clip1_8197_17531">
<rect width="76.2353" height="32" fill="white" transform="translate(62.4254 235.798)"/>
</clipPath>
</defs>
</svg>
