<svg width="570" height="290" viewBox="0 0 570 290" fill="none" xmlns="http://www.w3.org/2000/svg">
<g clip-path="url(#clip0_6117_1117)">
<rect width="570" height="290" rx="10" fill="#091B36"/>
<g clip-path="url(#clip1_6117_1117)">
<g opacity="0.5" filter="url(#filter0_f_6117_1117)">
<ellipse cx="420.778" cy="319.598" rx="174.348" ry="157.9" fill="#0941AB"/>
</g>
<g opacity="0.7" filter="url(#filter1_f_6117_1117)">
<ellipse cx="78.7979" cy="-6.67534" rx="149.83" ry="123.87" fill="#0941AB"/>
</g>
</g>
<g clip-path="url(#clip2_6117_1117)">
<path d="M142.841 124.183C143.403 125.251 143.122 126.149 142.729 127.104C142.111 128.677 142.28 130.194 143.403 131.486C144.527 132.834 146.1 133.003 147.729 132.666C149.976 132.16 151.268 130.025 150.93 127.666C150.762 126.543 150.088 125.419 150.706 124.183C150.144 124.464 150.144 124.464 149.47 125.588C148.852 124.857 148.29 124.071 147.616 123.285C147.054 122.667 146.493 122.105 146.83 121.094C146.156 121.431 145.819 121.88 145.594 122.442C145.425 123.004 145.313 123.565 145.201 124.127C145.088 124.689 144.808 125.194 144.246 125.531C143.909 124.914 143.572 124.464 142.841 124.183Z" fill="white"/>
<path d="M95.0287 156.917V131.008L91.9748 130.505V128.106L99.9383 127.1L101.291 126.908V127.951V136.757C101.601 136.447 101.987 136.099 102.451 135.828C102.876 135.518 103.379 135.248 103.881 135.015C104.423 134.783 104.964 134.59 105.582 134.435C106.201 134.28 106.858 134.203 107.554 134.203C108.791 134.203 109.951 134.396 111.033 134.822C112.115 135.248 113.082 135.905 113.894 136.795C114.705 137.724 115.363 138.885 115.865 140.355C116.329 141.826 116.6 143.567 116.6 145.696C116.6 147.514 116.329 149.178 115.788 150.765C115.247 152.351 114.435 153.667 113.391 154.828C112.347 155.989 111.072 156.879 109.603 157.537C108.095 158.194 106.433 158.543 104.539 158.543C103.224 158.543 102.026 158.465 100.905 158.349C99.8223 158.233 98.8558 158.078 98.044 157.885C97.2322 157.691 96.575 157.537 96.0725 157.343C95.5699 157.15 95.1834 157.033 95.0287 156.917ZM104.964 137.956C104.113 137.956 103.379 138.111 102.76 138.421C102.142 138.73 101.639 139.078 101.291 139.465V154.789C101.485 155.099 101.832 155.37 102.374 155.524C102.915 155.718 103.572 155.795 104.268 155.795C105.196 155.795 106.007 155.563 106.665 155.06C107.361 154.557 107.902 153.899 108.366 153.048C108.83 152.196 109.139 151.19 109.371 150.068C109.603 148.946 109.719 147.708 109.719 146.431C109.719 145.115 109.641 143.916 109.448 142.832C109.255 141.787 108.984 140.897 108.559 140.162C108.172 139.427 107.67 138.885 107.051 138.498C106.51 138.15 105.776 137.956 104.964 137.956Z" fill="white"/>
<path d="M119.975 157.854V155.107L122.913 154.72V139.009L120.129 138.158V135.062L127.088 134.056H127.204L128.286 134.946V136.649L128.247 139.822H128.325C128.479 139.396 128.789 138.855 129.214 138.197C129.639 137.539 130.18 136.881 130.799 136.262C131.417 135.643 132.152 135.101 132.964 134.675C133.775 134.25 134.665 134.018 135.631 134.018C136.056 134.018 136.366 134.018 136.597 134.056C136.829 134.095 137.023 134.134 137.177 134.172V141.254C137.023 141.138 136.636 141.022 136.018 140.905C135.399 140.789 134.626 140.712 133.775 140.712C133.312 140.712 132.809 140.751 132.345 140.789C131.881 140.828 131.417 140.905 130.992 141.022C130.567 141.099 130.219 141.215 129.871 141.331C129.523 141.447 129.291 141.563 129.098 141.679V154.681L134.162 155.184V157.854H119.975Z" fill="white"/>
<path d="M141.513 158.08V155.332L144.49 154.945V139.235L141.745 138.345V135.288L149.245 134.282L150.83 134.125V135.172V154.907L153.768 155.332V158.08H141.513Z" fill="white"/>
<path d="M167.396 150.533C166.236 150.533 165.155 150.452 164.195 150.291C163.954 150.533 163.754 150.815 163.594 151.137C163.434 151.459 163.354 151.822 163.354 152.265C163.354 152.748 163.434 153.151 163.634 153.473C163.834 153.755 164.114 153.997 164.515 154.158C164.915 154.319 165.395 154.44 166.036 154.48C166.676 154.521 167.396 154.561 168.237 154.561H172.439C175.481 154.561 177.723 155.084 179.244 156.091C180.724 157.139 181.485 158.831 181.485 161.167C181.485 162.577 181.125 163.906 180.364 165.074C179.644 166.242 178.643 167.209 177.362 168.055C176.122 168.86 174.641 169.505 173 169.948C171.359 170.391 169.638 170.633 167.837 170.633H167.797C165.795 170.633 164.114 170.472 162.714 170.109C161.313 169.747 160.152 169.263 159.232 168.659C158.311 168.055 157.671 167.29 157.23 166.444C156.79 165.598 156.59 164.631 156.59 163.624C156.59 162.979 156.71 162.375 156.95 161.771C157.19 161.207 157.51 160.683 157.911 160.2C158.311 159.717 158.751 159.314 159.312 158.951C159.832 158.589 160.392 158.307 160.953 158.105C160.152 157.662 159.512 157.139 159.071 156.494C158.631 155.85 158.431 155.084 158.431 154.198C158.431 153.111 158.711 152.225 159.272 151.459C159.832 150.734 160.552 150.049 161.433 149.485C159.992 148.841 158.951 147.914 158.271 146.706C157.591 145.498 157.23 144.088 157.23 142.477C157.23 141.188 157.51 140.06 158.071 139.012C158.631 137.965 159.432 137.079 160.392 136.354C161.393 135.629 162.513 135.065 163.834 134.662C165.155 134.259 166.556 134.058 168.037 134.058H168.077C171.599 134.058 174.201 134.743 175.922 136.112C176.122 135.87 176.402 135.629 176.722 135.387C177.042 135.145 177.442 134.904 177.883 134.702C178.323 134.501 178.803 134.34 179.324 134.219C179.844 134.098 180.404 134.018 181.005 134.018H182.005V138.771H177.843C178.003 139.214 178.123 139.697 178.203 140.181C178.283 140.664 178.323 141.228 178.323 141.792C178.323 143.081 178.043 144.249 177.523 145.296C177.002 146.344 176.242 147.27 175.281 148.076C174.321 148.841 173.16 149.445 171.839 149.888C170.478 150.331 169.037 150.533 167.396 150.533ZM166.316 159.113C165.395 159.113 164.555 159.032 163.794 158.911C163.514 159.233 163.234 159.636 162.994 160.12C162.754 160.603 162.634 161.328 162.634 162.174C162.634 163.141 162.754 163.946 162.994 164.591C163.234 165.235 163.634 165.799 164.114 166.202C164.595 166.605 165.235 166.927 165.956 167.088C166.676 167.29 167.517 167.37 168.477 167.37H168.517C169.358 167.37 170.198 167.29 171.039 167.088C171.839 166.887 172.6 166.605 173.24 166.202C173.88 165.799 174.401 165.275 174.761 164.671C175.161 164.067 175.361 163.342 175.361 162.536C175.361 161.932 175.281 161.368 175.161 160.925C175.041 160.482 174.801 160.12 174.441 159.838C174.08 159.556 173.64 159.354 173.04 159.233C172.439 159.113 171.679 159.032 170.758 159.032H166.316V159.113ZM167.917 147.713C168.637 147.713 169.238 147.552 169.718 147.27C170.198 146.988 170.558 146.585 170.839 146.102C171.119 145.618 171.279 145.014 171.399 144.329C171.519 143.645 171.559 142.92 171.559 142.195C171.559 140.342 171.279 138.972 170.678 138.126C170.078 137.28 169.117 136.878 167.717 136.878H167.677C166.356 136.878 165.395 137.321 164.795 138.167C164.195 139.012 163.874 140.261 163.874 141.993C163.874 142.839 163.954 143.604 164.074 144.289C164.195 144.974 164.435 145.578 164.715 146.102C165.035 146.585 165.435 146.988 165.956 147.27C166.476 147.552 167.116 147.713 167.917 147.713Z" fill="white"/>
<path d="M184.27 158.08V155.332L186.782 154.907V130.786L183.728 130.283V127.884L191.653 126.878L192.114 126.801H192.975L193.045 134.32L192.975 137.248C193.323 136.9 193.547 136.874 194.127 136.487C194.707 136.1 195.287 135.752 195.983 135.443C196.679 135.133 197.452 134.862 198.264 134.63C199.075 134.436 199.964 134.32 200.854 134.32C202.168 134.32 203.289 134.514 204.14 134.862C204.99 135.21 205.686 135.791 206.227 136.565C206.768 137.339 207.077 138.306 207.309 139.467C207.503 140.628 207.619 142.021 207.619 143.607V154.907L210.479 155.332V158.08H199.075V155.41L201.356 154.945V143.569C201.356 142.64 201.318 141.827 201.202 141.131C201.124 140.434 200.931 139.893 200.66 139.428C200.39 138.964 200.042 138.654 199.578 138.461C199.114 138.267 198.496 138.151 197.761 138.151C197.336 138.151 196.911 138.19 196.447 138.306C195.983 138.422 195.558 138.538 195.171 138.654C194.746 138.809 194.359 138.964 194.011 139.157C193.663 139.351 193.354 139.544 193.083 139.738V154.945L195.867 155.371V158.118H184.27V158.08Z" fill="white"/>
<path d="M215.02 153.342V138.328H212.159V136.006C212.275 135.968 212.43 135.929 212.662 135.852C212.893 135.774 213.125 135.658 213.396 135.581C213.628 135.503 213.86 135.387 214.092 135.31C214.324 135.233 214.44 135.155 214.478 135.116C214.942 134.768 215.406 134.11 215.909 133.143C216.063 132.872 216.179 132.562 216.373 132.176C216.566 131.789 216.682 131.44 216.837 131.053C216.991 130.666 217.146 130.279 217.262 129.892C217.416 129.505 217.494 129.157 217.61 128.848H221.243L221.321 134.884H227.313V138.367H221.321V149.666C221.321 150.75 221.321 151.601 221.359 152.259C221.398 152.917 221.475 153.381 221.591 153.691C221.707 154 221.939 154.232 222.21 154.31C222.481 154.387 222.867 154.464 223.331 154.464H223.37C223.679 154.464 224.027 154.426 224.413 154.387C224.761 154.348 225.109 154.271 225.457 154.194C225.805 154.116 226.114 154.039 226.424 153.961C226.733 153.884 226.965 153.807 227.158 153.729H227.197L228.163 156.128C227.738 156.438 227.274 156.748 226.656 157.057C226.037 157.367 225.419 157.638 224.684 157.908C223.95 158.179 223.215 158.373 222.403 158.528C221.591 158.682 220.818 158.76 220.006 158.76H219.968C219.079 158.76 218.306 158.644 217.687 158.411C217.068 158.179 216.527 157.831 216.141 157.367C215.754 156.902 215.484 156.361 215.29 155.664C215.097 154.968 215.02 154.232 215.02 153.342Z" fill="white"/>
</g>
<path d="M305.477 149.954V141.772H290.283V126.578H282.101V141.772H266.907V149.954H282.101V165.148H290.283V149.954H305.477Z" fill="#62788A"/>
<g filter="url(#filter2_d_6117_1117)">
<path d="M409.804 213.102C446.969 213.102 477.043 183.028 477.043 145.863C477.043 108.697 446.969 78.623 409.804 78.623C372.638 78.623 342.564 108.697 342.564 145.863C342.564 183.028 372.638 213.102 409.804 213.102Z" fill="url(#paint0_linear_6117_1117)" shape-rendering="crispEdges"/>
<path d="M409.804 214.601C447.797 214.601 478.542 183.856 478.542 145.863C478.542 107.87 447.797 77.1241 409.804 77.1241C371.811 77.1241 341.065 107.87 341.065 145.863C341.065 183.856 371.811 214.601 409.804 214.601Z" stroke="url(#paint1_linear_6117_1117)" stroke-width="2.99787" style="mix-blend-mode:overlay" shape-rendering="crispEdges"/>
</g>
<g clip-path="url(#clip3_6117_1117)">
<path d="M447.159 125.861C443.759 120.769 439.186 117.176 433.44 115.082C430.428 113.98 427.872 113.421 425.772 113.416C421.105 113.4 416.422 113.395 411.713 113.405H396.45C396.371 113.4 396.314 113.332 396.324 113.259L397.607 104.141C397.623 104.047 397.581 104 397.487 104H384.266C384.088 104 383.989 104.089 383.962 104.272L382.711 113.149C382.684 113.317 382.59 113.4 382.422 113.4H373.083C372.879 113.4 372.764 113.499 372.737 113.698L370.915 126.586C370.888 126.764 370.967 126.853 371.145 126.853H380.442C380.636 126.853 380.788 127.025 380.762 127.218L380.291 130.576L379.547 135.955C379.526 136.112 379.641 136.248 379.798 136.248H392.736C392.972 136.248 393.108 136.128 393.145 135.893L394.381 127.119C394.407 126.947 394.506 126.858 394.685 126.858L414.295 126.832C418.03 126.827 421.728 126.848 425.384 126.889C425.945 126.895 426.61 126.983 427.38 127.145C428.16 127.318 428.841 127.385 429.418 127.359C432.953 127.584 436.274 128.811 439.38 131.051C444.571 134.592 447.955 139.386 449.531 145.434C449.709 146.113 449.908 147.225 450.134 148.771C450.296 149.862 450.485 150.98 450.705 152.113C453.072 143.345 451.983 133.61 447.153 125.861H447.159Z" fill="url(#paint2_linear_6117_1117)"/>
<path d="M439.385 131.052C444.576 134.592 447.96 139.386 449.537 145.434C449.715 146.113 449.914 147.225 450.139 148.771C450.301 149.862 450.49 150.98 450.71 152.113C450.118 154.682 449.138 157.273 447.771 159.889C442.455 170.046 432.843 177.295 421.681 179.368C419.512 179.77 416.029 179.974 411.226 179.99C406.145 180 398.283 180 387.634 179.995C384.591 179.99 382.543 179.817 381.49 179.467C378.143 178.365 375.587 175.31 374.964 171.754C374.796 170.788 374.827 169.493 375.053 167.869C376.315 158.792 377.169 152.745 377.614 149.721C377.64 149.528 377.755 149.434 377.949 149.434H390.966C391.123 149.434 391.243 149.575 391.222 149.732L388.876 166.391C388.865 166.469 388.928 166.537 389.001 166.537C397.838 166.542 406.648 166.547 415.437 166.542C422.99 166.537 429.967 162.344 434.037 156.39C438.872 149.319 439.679 140.629 435.562 133.041C434.383 130.864 432.335 128.968 429.423 127.359C432.958 127.584 436.279 128.811 439.385 131.052Z" fill="white"/>
</g>
</g>
<defs>
<filter id="filter0_f_6117_1117" x="46.8972" y="-37.8354" width="747.762" height="714.866" filterUnits="userSpaceOnUse" color-interpolation-filters="sRGB">
<feFlood flood-opacity="0" result="BackgroundImageFix"/>
<feBlend mode="normal" in="SourceGraphic" in2="BackgroundImageFix" result="shape"/>
<feGaussianBlur stdDeviation="99.7663" result="effect1_foregroundBlur_6117_1117"/>
</filter>
<filter id="filter1_f_6117_1117" x="-397.101" y="-456.613" width="951.797" height="899.875" filterUnits="userSpaceOnUse" color-interpolation-filters="sRGB">
<feFlood flood-opacity="0" result="BackgroundImageFix"/>
<feBlend mode="normal" in="SourceGraphic" in2="BackgroundImageFix" result="shape"/>
<feGaussianBlur stdDeviation="163.034" result="effect1_foregroundBlur_6117_1117"/>
</filter>
<filter id="filter2_d_6117_1117" x="321.839" y="68.7699" width="175.93" height="175.929" filterUnits="userSpaceOnUse" color-interpolation-filters="sRGB">
<feFlood flood-opacity="0" result="BackgroundImageFix"/>
<feColorMatrix in="SourceAlpha" type="matrix" values="0 0 0 0 0 0 0 0 0 0 0 0 0 0 0 0 0 0 127 0" result="hardAlpha"/>
<feOffset dy="10.8723"/>
<feGaussianBlur stdDeviation="8.86371"/>
<feComposite in2="hardAlpha" operator="out"/>
<feColorMatrix type="matrix" values="0 0 0 0 0 0 0 0 0 0 0 0 0 0 0 0 0 0 0.28 0"/>
<feBlend mode="normal" in2="BackgroundImageFix" result="effect1_dropShadow_6117_1117"/>
<feBlend mode="normal" in="SourceGraphic" in2="effect1_dropShadow_6117_1117" result="shape"/>
</filter>
<linearGradient id="paint0_linear_6117_1117" x1="433.337" y1="213.102" x2="298.412" y2="35.1191" gradientUnits="userSpaceOnUse">
<stop stop-color="#0F2D58"/>
<stop offset="1" stop-color="#0E346B"/>
</linearGradient>
<linearGradient id="paint1_linear_6117_1117" x1="349.805" y1="99.496" x2="396.245" y2="200.519" gradientUnits="userSpaceOnUse">
<stop stop-color="#225FCC"/>
<stop offset="0.352567" stop-color="#194398"/>
<stop offset="0.646925" stop-color="#194398" stop-opacity="0.79"/>
<stop offset="1" stop-color="#225FCC" stop-opacity="0.54"/>
</linearGradient>
<linearGradient id="paint2_linear_6117_1117" x1="370.915" y1="128.059" x2="451.915" y2="128.059" gradientUnits="userSpaceOnUse">
<stop stop-color="white"/>
<stop offset="0.23" stop-color="#FBFDFF"/>
<stop offset="0.42" stop-color="#F1F7FF"/>
<stop offset="0.61" stop-color="#DFEDFF"/>
<stop offset="0.78" stop-color="#C6DEFF"/>
<stop offset="0.95" stop-color="#A6CCFF"/>
<stop offset="1" stop-color="#9CC7FF"/>
</linearGradient>
<clipPath id="clip0_6117_1117">
<rect width="570" height="290" rx="10" fill="white"/>
</clipPath>
<clipPath id="clip1_6117_1117">
<path d="M0.174133 11.8677C0.174133 5.31335 5.4875 0 12.0419 0H557.958C564.513 0 569.826 5.31337 569.826 11.8677V291.241H0.174133V11.8677Z" fill="white"/>
</clipPath>
<clipPath id="clip2_6117_1117">
<rect width="137.846" height="49.5383" fill="white" transform="translate(91.9748 121.094)"/>
</clipPath>
<clipPath id="clip3_6117_1117">
<rect width="81" height="76" fill="white" transform="translate(370.915 104)"/>
</clipPath>
</defs>
</svg>
