<svg width="136" height="126" viewBox="0 0 136 126" fill="none" xmlns="http://www.w3.org/2000/svg">
<g clip-path="url(#clip0_8205_3154)">
<path d="M135.073 100.609C136.153 103.71 135.894 107.012 134.454 109.883C133.417 111.979 131.934 113.602 130.119 115.052C127.93 116.774 125.208 118.239 121.925 119.646C118.008 121.311 113.227 122.876 111.037 123.45C105.435 124.9 100.049 125.819 94.5913 125.862C86.7859 125.934 80.0605 124.096 75.2793 119.401C72.8024 119.703 70.2965 119.875 67.7764 119.875C65.3858 119.875 63.024 119.732 60.6767 119.445C55.881 124.111 49.1844 125.934 41.4076 125.862C35.9497 125.819 30.5635 124.9 24.9472 123.45C22.7726 122.876 17.9914 121.311 14.0743 119.646C10.7909 118.239 8.06904 116.774 5.89446 115.052C4.0655 113.602 2.58219 111.979 1.54531 109.883C0.119588 107.012 -0.154034 103.71 0.940454 100.609C-0.0676274 98.2403 -0.326849 95.5271 0.465215 92.5265C0.825245 91.1628 1.41569 89.8992 2.16455 88.7794C2.00614 88.191 1.87653 87.588 1.79012 86.9275C1.24288 82.994 2.61099 79.4048 5.18881 76.6197C6.45611 75.2272 7.82422 74.2652 9.24993 73.648C8.19865 69.1974 7.65141 64.6179 7.65141 59.9376C7.65141 26.832 34.5671 0 67.7764 0C79.1822 0 89.8533 3.15838 98.955 8.67122C100.596 9.67618 102.209 10.7529 103.751 11.9014C104.514 12.4757 105.277 13.0643 106.011 13.6816C106.76 14.2845 107.495 14.9162 108.201 15.5623C110.332 17.5004 112.334 19.582 114.162 21.8073C114.782 22.5394 115.372 23.3003 115.948 24.0756C117.115 25.6117 118.195 27.2053 119.188 28.8562C120.701 31.3256 122.025 33.9095 123.178 36.5942C123.941 38.3889 124.603 40.2264 125.194 42.1071C126.072 44.921 126.749 47.821 127.21 50.8071C127.354 51.7977 127.484 52.8024 127.584 53.8074C127.786 55.8175 127.901 57.856 127.901 59.9376C127.901 64.5604 127.354 69.097 126.331 73.4757C127.916 74.0929 129.413 75.0979 130.81 76.6197C133.388 79.4048 134.756 83.0082 134.209 86.9419C134.123 87.588 133.993 88.191 133.835 88.7794C134.583 89.8992 135.174 91.1628 135.534 92.5265C136.326 95.5271 136.067 98.2403 135.073 100.609Z" fill="white"/>
<path d="M118.004 60.3469C118.004 32.8848 95.6164 10.6224 68 10.6224C40.3836 10.6224 17.9959 32.8848 17.9959 60.3469C17.9959 87.8089 40.3836 110.071 68 110.071C95.6164 110.071 118.004 87.8089 118.004 60.3469ZM12.24 60.3469C12.24 29.7237 37.2047 4.89868 68 4.89868C98.7953 4.89868 123.76 29.7237 123.76 60.3469C123.76 90.97 98.7953 115.795 68 115.795C37.2047 115.795 12.24 90.97 12.24 60.3469Z" fill="#091B36"/>
<path d="M68 110.352C95.7911 110.352 118.32 87.9638 118.32 60.3467C118.32 32.7296 95.7911 10.3413 68 10.3413C40.209 10.3413 17.6801 32.7296 17.6801 60.3467C17.6801 87.9638 40.209 110.352 68 110.352Z" fill="white"/>
<path d="M54.9979 109.991C58.9667 104.261 58.6854 99.9609 53.24 94.6028C47.7945 89.246 44.6249 81.409 44.6249 81.409C44.6249 81.409 43.4409 76.8572 40.744 77.276C38.0474 77.6948 36.0672 84.4969 41.7161 88.6582C47.3648 92.8181 40.5912 95.6448 38.4179 91.7377C36.2446 87.8303 30.3104 77.7857 27.233 75.8647C24.1568 73.9437 21.9908 75.02 22.7162 78.9796C23.4416 82.9395 36.3066 92.537 35.0549 94.6139C33.8031 96.6898 29.3918 92.1734 29.3918 92.1734C29.3918 92.1734 15.5878 79.8061 12.5824 83.0287C9.57706 86.2517 14.8624 88.9521 22.3946 93.4413C29.9282 97.9291 30.5122 99.1146 29.4435 100.813C28.3735 102.511 11.746 88.7093 10.1842 94.56C8.62381 100.411 27.1536 102.109 26.01 106.148C24.8664 110.189 12.9574 98.5028 10.5216 103.056C8.08446 107.61 27.3265 112.961 27.4824 113.001C33.6979 114.589 49.4834 117.952 54.9979 109.991Z" fill="white"/>
<path d="M24.7503 69.3953C22.4331 69.3953 20.362 70.3415 18.9179 72.0579C18.0248 73.1208 17.0916 74.8342 17.0157 77.3999C16.0439 77.1224 15.1093 76.9672 14.2363 76.9672C12.0178 76.9672 10.0141 77.8125 8.5971 79.3482C6.77655 81.319 5.9679 83.741 6.31997 86.1644C6.48744 87.3186 6.87531 88.3532 7.45497 89.3109C6.23269 90.2941 5.33242 91.6632 4.8973 93.3097C4.55668 94.6004 4.20746 97.2886 6.03086 100.058C5.91494 100.239 5.80616 100.426 5.70455 100.618C4.60819 102.688 4.53807 105.026 5.5056 107.203C6.97264 110.503 10.618 113.103 17.697 115.894C22.101 117.63 26.13 118.74 26.1658 118.749C31.988 120.251 37.2537 121.014 41.8121 121.014C50.1908 121.014 56.1892 118.462 59.6415 113.43C65.1976 105.327 64.4031 97.9162 57.2141 90.7723C53.235 86.8192 50.5901 80.9903 50.039 79.7109C48.9285 75.9228 45.9914 71.712 41.1096 71.712H41.1082C40.6972 71.712 40.2821 71.7446 39.873 71.8089C37.7346 72.143 35.8654 73.3671 34.5302 75.2084C33.0888 73.4267 31.6891 72.0094 30.4224 71.2096C28.513 70.0057 26.6052 69.3953 24.7503 69.3953ZM24.7503 75.0876C25.4802 75.0876 26.3719 75.3962 27.3551 76.0167C30.408 77.942 36.299 88.0103 38.4559 91.9264C39.1786 93.2384 40.4141 93.7935 41.526 93.7935C43.733 93.7935 45.4561 91.6121 41.7278 88.8398C36.1216 84.6687 38.0882 77.8511 40.7647 77.4312C40.8819 77.4127 40.9978 77.4043 41.1096 77.4043C43.5426 77.4043 44.6162 81.5737 44.6162 81.5737C44.6162 81.5737 47.7619 89.429 53.1665 94.7983C58.5709 100.169 58.8499 104.479 54.9111 110.223C52.2246 114.139 47.0821 114.65 41.8121 114.65C36.3463 114.65 30.7333 113.692 27.5931 112.882C27.4386 112.842 8.35094 107.836 10.7698 103.271C11.1762 102.504 11.8461 102.197 12.6891 102.197C16.0955 102.197 22.2914 107.237 24.9549 107.237C25.5503 107.237 25.994 106.779 26.1658 106.164C27.351 101.922 8.8848 100.62 10.4348 94.7556C10.7082 93.7182 11.4496 93.2969 12.4916 93.2983C16.9929 93.2983 27.0918 101.169 29.2087 101.169C29.3703 101.169 29.4862 101.122 29.5493 101.023C30.6098 99.3207 30.1213 97.9349 22.6459 93.4368C15.1705 88.937 9.83087 86.4278 12.815 83.1976C13.1585 82.8245 13.6452 82.6596 14.2363 82.6596C18.7748 82.6609 29.4976 92.3632 29.4976 92.3632C29.4976 92.3632 32.3917 95.3559 34.1423 95.3559C34.5443 95.3559 34.8865 95.198 35.1182 94.8081C36.3591 92.7276 23.5924 83.1078 22.8725 79.1389C22.3844 76.4494 23.2145 75.0876 24.7503 75.0876Z" fill="#091B36"/>
<path d="M80.7568 109.991C76.7883 104.261 77.0693 99.9609 82.5147 94.6028C87.9601 89.246 91.13 81.409 91.13 81.409C91.13 81.409 92.314 76.8572 95.0106 77.276C97.7075 77.6948 99.6874 84.4969 94.0388 88.6582C88.3899 92.8181 95.1635 95.6448 97.3368 91.7377C99.5101 87.8303 105.444 77.7857 108.522 75.8647C111.598 73.9437 113.764 75.02 113.039 78.9796C112.313 82.9395 99.4481 92.537 100.7 94.6139C101.952 96.6898 106.363 92.1734 106.363 92.1734C106.363 92.1734 120.167 79.8061 123.172 83.0287C126.178 86.2517 120.892 88.9521 113.36 93.4413C105.826 97.9291 105.242 99.1146 106.311 100.813C107.381 102.511 124.009 88.7093 125.571 94.56C127.131 100.411 108.601 102.109 109.745 106.148C110.888 110.189 122.797 98.5028 125.233 103.056C127.67 107.61 108.428 112.961 108.272 113.001C102.057 114.589 86.2716 117.952 80.7568 109.991Z" fill="white"/>
<path d="M111.005 69.3953C113.322 69.3953 115.393 70.3415 116.837 72.0579C117.73 73.1208 118.663 74.8342 118.739 77.3999C119.711 77.1224 120.645 76.9672 121.518 76.9672C123.737 76.9672 125.741 77.8125 127.158 79.3482C128.978 81.319 129.787 83.741 129.435 86.1644C129.267 87.3186 128.88 88.3532 128.3 89.3109C129.522 90.2941 130.422 91.6632 130.858 93.3097C131.198 94.6004 131.547 97.2886 129.724 100.058C129.84 100.239 129.949 100.426 130.05 100.618C131.147 102.688 131.217 105.026 130.249 107.203C128.782 110.503 125.137 113.103 118.058 115.894C113.654 117.63 109.625 118.74 109.589 118.749C103.767 120.251 98.501 121.014 93.9426 121.014C85.5639 121.014 79.5655 118.462 76.1135 113.43C70.5574 105.327 71.3516 97.9162 78.5408 90.7723C82.5197 86.8192 85.1646 80.9903 85.7157 79.7109C86.8262 75.9228 89.7633 71.712 94.6454 71.712H94.6468C95.0575 71.712 95.4726 71.7446 95.8819 71.8089C98.0201 72.143 99.8893 73.3671 101.225 75.2084C102.666 73.4267 104.066 72.0094 105.333 71.2096C107.242 70.0057 109.15 69.3953 111.005 69.3953ZM111.005 75.0876C110.275 75.0876 109.383 75.3962 108.4 76.0167C105.347 77.942 99.4557 88.0103 97.2988 91.9264C96.5761 93.2384 95.3409 93.7935 94.2287 93.7935C92.0217 93.7935 90.2986 91.6121 94.0269 88.8398C99.6334 84.6687 97.6668 77.8511 94.9903 77.4312C94.8728 77.4127 94.7569 77.4043 94.6454 77.4043C92.2121 77.4043 91.1388 81.5737 91.1388 81.5737C91.1388 81.5737 87.9928 89.429 82.5885 94.7983C77.1838 100.169 76.9048 104.479 80.8436 110.223C83.5301 114.139 88.6726 114.65 93.9426 114.65C99.4084 114.65 105.021 113.692 108.162 112.882C108.316 112.842 127.404 107.836 124.985 103.271C124.578 102.504 123.909 102.197 123.066 102.197C119.659 102.197 113.463 107.237 110.8 107.237C110.204 107.237 109.761 106.779 109.589 106.164C108.404 101.922 126.87 100.62 125.32 94.7556C125.047 93.7182 124.305 93.2969 123.263 93.2983C118.762 93.2983 108.663 101.169 106.546 101.169C106.384 101.169 106.269 101.122 106.205 101.023C105.145 99.3207 105.633 97.9349 113.109 93.4368C120.584 88.937 125.924 86.4278 122.94 83.1976C122.596 82.8245 122.11 82.6596 121.518 82.6596C116.98 82.6609 106.257 92.3632 106.257 92.3632C106.257 92.3632 103.363 95.3559 101.613 95.3559C101.21 95.3559 100.869 95.198 100.636 94.8081C99.3956 92.7276 112.162 83.1078 112.882 79.1389C113.37 76.4494 112.54 75.0876 111.005 75.0876Z" fill="#091B36"/>
<path d="M86.8434 62.2927C86.8434 55.8525 78.4951 65.668 68.1733 65.7118C57.8523 65.6685 49.504 55.8531 49.504 62.2927C49.504 66.5625 51.5459 73.5069 57.03 77.7202C58.1213 73.9636 64.1175 70.9543 64.9746 71.3864C66.195 72.0017 66.1265 73.707 68.1733 75.2094C70.2204 73.707 70.1518 72.0023 71.3723 71.3864C72.2299 70.9543 78.2256 73.9636 79.3166 77.7202C84.8007 73.5069 86.8428 66.5625 86.8428 62.2932L86.8434 62.2927Z" fill="#091B36"/>
<path d="M71.3728 71.3861C70.1523 72.0014 70.2209 73.7066 68.1738 75.2091C66.127 73.7066 66.1955 72.002 64.9751 71.3861C64.1175 70.954 58.1218 73.9633 57.0308 77.7199C59.8035 79.8502 63.4568 81.2819 68.1705 81.3167C68.1716 81.3167 68.1727 81.3167 68.1743 81.3167C68.1757 81.3167 68.1768 81.3167 68.1784 81.3167C72.8922 81.2824 76.5454 79.8502 79.3182 77.7199C78.2272 73.9633 72.2309 70.954 71.3739 71.3861H71.3728Z" fill="#FF323D"/>
<path d="M101.456 53.3391C104.01 53.3391 106.08 51.2679 106.08 48.7128C106.08 46.1577 104.01 44.0864 101.456 44.0864C98.9022 44.0864 96.832 46.1577 96.832 48.7128C96.832 51.2679 98.9022 53.3391 101.456 53.3391Z" fill="#091B36"/>
<path d="M34.816 53.3391C37.3698 53.3391 39.44 51.2679 39.44 48.7128C39.44 46.1577 37.3698 44.0864 34.816 44.0864C32.2622 44.0864 30.192 46.1577 30.192 48.7128C30.192 51.2679 32.2622 53.3391 34.816 53.3391Z" fill="#091B36"/>
<path d="M85.1524 46.6979C86.9846 47.3434 87.7135 51.1019 89.5645 50.12C93.0695 48.2602 94.4004 43.9169 92.5366 40.4191C90.6729 36.9213 86.3203 35.5936 82.8151 37.4533C79.3098 39.3131 77.9792 43.6562 79.8429 47.154C80.7226 48.805 83.5147 46.1207 85.1524 46.6979Z" fill="#091B36"/>
<path d="M51.2866 46.6979C49.4544 47.3434 48.7255 51.1019 46.8748 50.12C43.3695 48.2602 42.0389 43.9169 43.9026 40.4191C45.7664 36.9213 50.1186 35.5936 53.6239 37.4533C57.1292 39.3131 58.4598 43.6562 56.5961 47.154C55.7164 48.805 52.9243 46.1207 51.2866 46.6979Z" fill="#091B36"/>
</g>
<defs>
<clipPath id="clip0_8205_3154">
<rect width="136" height="126" fill="white"/>
</clipPath>
</defs>
</svg>
