<svg width="56" height="56" viewBox="0 0 56 56" fill="none" xmlns="http://www.w3.org/2000/svg">
<g clip-path="url(#clip0_2444_20674)">
<path d="M51.0222 0.5H4.97778C2.50477 0.5 0.5 2.50477 0.5 4.97778V51.0222C0.5 53.4952 2.50477 55.5 4.97778 55.5H51.0222C53.4952 55.5 55.5 53.4952 55.5 51.0222V4.97778C55.5 2.50477 53.4952 0.5 51.0222 0.5Z" stroke="url(#paint0_linear_2444_20674)"/>
<g clip-path="url(#clip1_2444_20674)">
<path d="M46.3737 27.0135L29.2412 12.4131C28.5916 11.8622 27.5477 11.8507 26.8981 12.4131L9.6264 27.002C9.26682 27.3119 9.03483 27.7366 9.00003 28.2187C8.96523 28.6893 9.11603 29.1484 9.42921 29.5157C10.0556 30.2274 11.2387 30.3307 11.9695 29.7109L13.0947 28.7582V43.2208C13.0947 44.2079 13.9066 44.9999 14.8926 44.9999H24.7316C25.7292 44.9999 26.5295 44.1964 26.5295 43.2208V32.5804H29.7628V43.2208C29.7628 44.2079 30.5748 44.9999 31.5607 44.9999H41.0959C42.0934 44.9999 42.8938 44.1964 42.8938 43.2208V28.7582L44.019 29.7109C44.3438 29.9864 44.7613 30.147 45.1905 30.147C45.7125 30.147 46.2113 29.9175 46.5593 29.5272C46.8724 29.1714 47.0232 28.7008 46.9884 28.2302C46.9536 27.7596 46.7332 27.3234 46.3621 27.0135H46.3737ZM31.5723 29.0107H24.7316C23.734 29.0107 22.9337 29.8142 22.9337 30.7898V41.4302H16.6905V25.9231C16.6905 25.8542 16.6789 25.7968 16.6673 25.7279L28.0696 16.1091L39.3328 25.705C39.3328 25.7738 39.3096 25.8542 39.3096 25.9231V41.4302H33.3703V30.7898C33.3703 29.8027 32.5583 29.0107 31.5723 29.0107Z" fill="#9D97F4"/>
</g>
</g>
<defs>
<linearGradient id="paint0_linear_2444_20674" x1="38.566" y1="14.2642" x2="11.0943" y2="44.9057" gradientUnits="userSpaceOnUse">
<stop stop-color="#9D97F4" stop-opacity="0.16"/>
<stop offset="0.529" stop-color="#9D97F4" stop-opacity="0.5"/>
<stop offset="1" stop-color="#9D97F4" stop-opacity="0.02"/>
</linearGradient>
<clipPath id="clip0_2444_20674">
<rect width="56" height="56" fill="white"/>
</clipPath>
<clipPath id="clip1_2444_20674">
<rect width="38" height="33" fill="white" transform="translate(9 12)"/>
</clipPath>
</defs>
</svg>
