<svg width="56" height="56" viewBox="0 0 56 56" fill="none" xmlns="http://www.w3.org/2000/svg">
<rect x="0.5" y="0.5" width="55" height="55" rx="4.47778" stroke="url(#paint0_linear_2329_13473)"/>
<path d="M12.9999 43C12.5579 43 12.1339 42.8244 11.8213 42.5118C11.5088 42.1992 11.3333 41.7753 11.3333 41.3333C11.3333 33.7383 16.0225 32.455 19.125 31.6066C21.6742 30.9083 22.8225 30.5108 22.9808 28.5233C20.9993 25.9778 19.843 22.8876 19.6666 19.6666C19.669 17.4573 20.5477 15.339 22.11 13.7768C23.6723 12.2145 25.7905 11.3357 27.9999 11.3333C30.2093 11.3357 32.3275 12.2145 33.8898 13.7768C35.4521 15.339 36.3308 17.4573 36.3333 19.6666C36.1564 22.8868 35.0001 25.976 33.019 28.5208C33.1782 30.5108 34.3265 30.9083 36.8748 31.6042C39.9782 32.4525 44.6666 33.7358 44.6666 41.3308C44.6666 41.7729 44.4911 42.1967 44.1785 42.5093C43.8659 42.8219 43.4419 42.9975 42.9999 42.9975L12.9999 43ZM20.0066 34.82C17.2866 35.5658 15.2282 36.1291 14.7649 39.6675H41.235C40.7717 36.1291 38.7133 35.5658 35.9933 34.82C33.9225 34.2542 31.2583 33.5241 30.1675 30.8516C29.4885 31.1666 28.7492 31.3309 28.0007 31.3333C27.2522 31.3308 26.5131 31.1665 25.834 30.8516C24.7415 33.5233 22.0774 34.25 20.0066 34.82ZM22.9999 19.6666C22.9999 22.9566 25.6824 28 27.9999 28C30.3174 28 32.9999 22.9566 32.9999 19.6666C32.9984 18.341 32.471 17.0702 31.5337 16.1328C30.5963 15.1955 29.3255 14.6682 27.9999 14.6666C26.6743 14.6682 25.4035 15.1955 24.4662 16.1328C23.5288 17.0702 23.0015 18.341 22.9999 19.6666Z" fill="#9D97F4"/>
<defs>
<linearGradient id="paint0_linear_2329_13473" x1="38.566" y1="14.2642" x2="11.0943" y2="44.9057" gradientUnits="userSpaceOnUse">
<stop stop-color="#9D97F4" stop-opacity="0.16"/>
<stop offset="0.529" stop-color="#9D97F4" stop-opacity="0.5"/>
<stop offset="1" stop-color="#9D97F4" stop-opacity="0.02"/>
</linearGradient>
</defs>
</svg>
