<svg width="36" height="36" viewBox="0 0 36 36" fill="none" xmlns="http://www.w3.org/2000/svg">
<g clip-path="url(#clip0_8247_11250)">
<path fill-rule="evenodd" clip-rule="evenodd" d="M18.4143 26.4432C18.3935 26.6898 18.3829 26.9393 18.3829 27.1913C18.3829 32.0561 22.3266 35.9998 27.1914 35.9998C32.0562 35.9998 36 32.0561 36 27.1913C36 22.3265 32.0562 18.3828 27.1914 18.3828C26.9389 18.3828 26.6889 18.3934 26.4417 18.4143C26.2332 22.7531 22.7529 26.2339 18.4143 26.4432ZM18.5966 25.2543C22.1402 24.9669 24.9662 22.1406 25.2529 18.5968C21.944 19.3399 19.3392 21.9451 18.5966 25.2543ZM27.1018 27.2935C28.2636 27.2935 29.2054 26.3517 29.2054 25.19C29.2054 24.0282 28.2636 23.0864 27.1018 23.0864C25.9401 23.0864 24.9983 24.0282 24.9983 25.19C24.9983 26.3517 25.9401 27.2935 27.1018 27.2935ZM23.5472 30.9927C23.5472 29.273 24.9413 27.8789 26.6609 27.8789H27.7957C29.5154 27.8789 30.9095 29.273 30.9095 30.9927C30.9095 31.4513 30.5378 31.823 30.0792 31.823H24.3775C23.9189 31.823 23.5472 31.4513 23.5472 30.9927Z" fill="#3D7FFC"/>
<path fill-rule="evenodd" clip-rule="evenodd" d="M8.80851 0C3.94371 0 0 3.94371 0 8.80851C0 13.6733 3.94371 17.617 8.80851 17.617C9.06134 17.617 9.31168 17.6064 9.55911 17.5855C9.64763 15.7608 10.3149 14.0879 11.3812 12.7466H6.19204C5.73346 12.7466 5.3617 12.3749 5.3617 11.9163C5.3617 10.1966 6.75578 8.80253 8.47547 8.80253H9.61027C11.1645 8.80253 12.4528 9.94126 12.6863 11.4299C14.0377 10.3358 15.7333 9.65009 17.5854 9.56054C17.6063 9.31265 17.617 9.06183 17.617 8.80851C17.617 3.94371 13.6733 0 8.80851 0ZM17.4025 10.7494C13.8609 11.0374 11.0366 13.8614 10.748 17.4028C14.0552 16.6596 16.6588 14.0564 17.4025 10.7494ZM11.0199 5.93331C11.0199 7.09506 10.0781 8.03684 8.91636 8.03684C7.75461 8.03684 6.81283 7.09506 6.81283 5.93331C6.81283 4.77157 7.75461 3.82979 8.91636 3.82979C10.0781 3.82979 11.0199 4.77157 11.0199 5.93331Z" fill="#C6DBFF"/>
<path d="M25.2766 18.0002C25.2766 22.019 22.0187 25.2768 18 25.2768C13.9812 25.2768 10.7234 22.019 10.7234 18.0002C10.7234 13.9815 13.9812 10.7236 18 10.7236C22.0187 10.7236 25.2766 13.9815 25.2766 18.0002Z" fill="#FECE4D"/>
<mask id="mask0_8247_11250" style="mask-type:alpha" maskUnits="userSpaceOnUse" x="10" y="10" width="16" height="16">
<circle cx="18" cy="18.0002" r="7.27659" fill="#76A5FF"/>
</mask>
<g mask="url(#mask0_8247_11250)">
<path d="M24.9603 30.6166C24.8824 28.3091 24.2436 22.2753 23.8074 21.7452C23.2933 21.1216 20.8786 19.7808 19.4921 19.4533C18.2614 19.1727 17.903 19.2818 17.1085 19.2351C16.314 19.1883 11.9675 21.527 11.874 22.0727C11.6715 23.0705 11.1885 25.4403 11.0328 26.4382C10.8302 27.8258 10.7523 29.229 10.8146 30.6322L24.9603 30.6166Z" fill="#3D7FFC"/>
<path d="M16.4067 17.5364V19.3917C16.4067 19.4229 16.4223 19.4385 16.4379 19.4541C16.656 19.6724 18.1048 20.982 19.4758 19.5009C19.4914 19.4853 19.5069 19.4541 19.5069 19.4229L19.3667 17.5208C19.3667 17.474 19.32 17.4272 19.2733 17.4272H16.5002C16.4379 17.4428 16.4067 17.474 16.4067 17.5364Z" fill="#E7C6A7"/>
<path d="M20.3337 16.0394C20.2869 16.0082 20.2246 15.9926 20.1779 15.9926C20.4116 14.5426 20.3025 12.7341 17.9345 12.812C16.5636 12.8588 16.1118 14.0905 16.0183 15.4001C16.0183 15.4625 15.956 15.4937 15.9093 15.4781C15.8314 15.4625 15.7535 15.4781 15.6912 15.4937C15.2082 15.634 15.5198 16.8033 16.0028 17.0528C16.0339 17.0684 16.0495 17.084 16.0495 17.1152C16.252 18.3313 16.9063 19.1108 17.8255 19.1732C18.6823 19.2356 19.3522 18.5807 19.7728 17.5829C19.7884 17.5517 19.804 17.5361 19.8352 17.5361C20.3337 17.3802 20.8011 16.2421 20.3337 16.0394Z" fill="#E7C6A7"/>
<path d="M17.9347 19.2812C17.888 19.2812 17.8568 19.2812 17.8101 19.2812C17.3116 19.2501 16.8598 19.0006 16.5482 18.6108C16.517 18.5796 16.517 18.5173 16.5638 18.4861C16.5949 18.4549 16.6573 18.4549 16.6884 18.5017C16.9688 18.8603 17.3739 19.0786 17.8257 19.1097C18.3086 19.1409 18.776 18.9382 19.0876 18.564C19.1187 18.5329 19.181 18.5329 19.2122 18.564C19.2434 18.5952 19.2434 18.642 19.2122 18.6732C18.885 19.0474 18.4333 19.2656 17.9347 19.2812Z" fill="#DFB996"/>
<path d="M16.0028 15.508L16.2988 15.9913H16.6259V15.165C16.8596 14.9311 17.0154 14.6193 17.0777 14.2919L19.508 14.4634C19.508 14.4634 19.4301 15.0558 19.6171 15.2897V16.2563H19.9131L20.1935 15.9913C20.1935 15.9913 20.7855 13.8553 20.5362 13.3252C20.4272 13.029 20.1 12.8731 19.8196 12.9822C19.8196 12.9822 19.0251 12.0467 17.9034 12.3586C16.7817 12.686 15.8937 13.3564 15.7224 13.8241C15.5354 14.3075 16.0028 15.508 16.0028 15.508Z" fill="#42505D"/>
<path d="M19.4304 19.6393L18.0439 27.2634C18.0283 27.3725 17.8725 27.3725 17.857 27.2634L16.4081 19.6393C16.3926 19.5614 16.4704 19.499 16.5483 19.5302L17.9037 20.1694C17.9349 20.185 17.966 20.185 17.9816 20.1694L19.2902 19.5302C19.3681 19.499 19.446 19.5614 19.4304 19.6393Z" fill="#76A5FF"/>
<path d="M16.5468 19.5302L17.9022 20.1694C17.9333 20.185 17.9645 20.185 17.9801 20.1694L19.2887 19.5302C19.351 19.499 19.4445 19.5614 19.4289 19.6393L19.1173 21.3699C19.1017 21.4479 19.0239 21.4791 18.9615 21.4323L18.0424 20.6527C18.0112 20.6216 17.9489 20.6216 17.9178 20.6527L16.9363 21.6194C16.8895 21.6662 16.7961 21.6506 16.7805 21.5726L16.4222 19.6549C16.4066 19.5614 16.4845 19.499 16.5468 19.5302Z" fill="white"/>
</g>
</g>
<defs>
<clipPath id="clip0_8247_11250">
<rect width="36" height="36" fill="white"/>
</clipPath>
</defs>
</svg>
