<svg width="154" height="42" viewBox="0 0 154 42" fill="none" xmlns="http://www.w3.org/2000/svg">
<g clip-path="url(#clip0_8177_4457)">
<path d="M9.38214 34.517C11.6003 37.3358 14.1753 39.8471 17.0564 41.9996C19.9374 39.8471 22.5125 37.3358 24.7306 34.517L17.0564 27.0088L9.38214 34.517Z" fill="#9BACBC"/>
<path d="M5.81295 29.1617L17.0566 18.3222L28.3257 29.213C30.2379 25.8048 31.6401 22.1147 32.4815 18.2965C32.5325 18.1172 32.558 17.9378 32.5835 17.7328H1.52966C2.37102 21.7303 3.82428 25.5742 5.81295 29.1617Z" fill="#9BACBC"/>
<path d="M5.81281 29.1614C6.85813 31.0321 8.05643 32.8515 9.40771 34.5428L17.0564 27.0602L24.7306 34.5684C26.0564 32.8771 27.2547 31.0833 28.3001 29.2127L17.0309 18.3219L5.81281 29.1614Z" fill="#B8C4D0"/>
<path d="M17.0567 26.8301L9.40795 34.3127C8.13316 32.6983 7.01135 30.9814 5.99152 29.1876L17.0567 18.5018L28.1473 29.2132C27.153 31.007 26.0057 32.7239 24.7309 34.3383L17.0567 26.8301Z" fill="#70879C"/>
<path d="M17.0564 18.7068L27.9431 29.2388C26.9743 30.9301 25.9035 32.5701 24.7052 34.1076L17.2604 26.83L17.0564 26.625L16.8525 26.83L9.4332 34.082C8.2349 32.5445 7.13858 30.9044 6.19524 29.2132L17.0564 18.7068ZM17.0564 18.2968L5.81281 29.1363C6.85813 31.0069 8.05643 32.8263 9.40771 34.5176L17.0564 27.035L24.7306 34.5433C26.0564 32.852 27.2547 31.0582 28.3001 29.1875L17.0564 18.2968Z" fill="#70879C"/>
<path d="M33.298 6.15009C31.9468 6.5601 30.5445 6.7651 29.1167 6.7651C24.196 6.79073 19.6323 4.22819 17.0572 0C14.4822 4.22819 9.91843 6.79073 4.99775 6.7651C3.59548 6.7651 2.16772 6.5601 0.816446 6.15009C0.485001 10.0195 0.714463 13.9146 1.50483 17.7328H32.5587C33.4 13.9146 33.6295 10.0195 33.298 6.15009Z" fill="#70879C"/>
<path d="M24.7305 10.9162V9.58366H23.9146V8.63552L23.0733 8.40489H22.9968V7.6105C22.9968 7.6105 22.7163 7.96926 21.365 7.96926C20.0903 7.96926 19.3509 7.55925 18.3565 7.55925C17.8721 7.508 17.3877 7.71301 17.0818 8.12301V8.45614H17.0563V8.12301C16.7503 7.71301 16.2914 7.508 15.7815 7.55925C14.7616 7.55925 14.0223 7.96926 12.773 7.96926C11.4472 7.96926 11.1922 7.6105 11.1922 7.6105V8.45614H11.1412L10.2234 8.66114V9.60928H9.40753V10.9418H10.2234V13.0943H9.40753V14.4269H10.2234V16.0669C11.0903 16.195 11.9571 16.2719 12.8495 16.2719C14.3282 16.2719 15.1951 16.0669 16.1639 16.0413V16.4513C16.4444 16.5794 16.7503 16.6563 17.0818 16.6563C17.4132 16.6563 17.7191 16.5794 18.0251 16.4513V16.0413C18.9939 16.0669 19.8353 16.2719 21.3395 16.2719C22.2064 16.2463 23.0733 16.195 23.9401 16.0669V14.4269H24.756V13.0943H23.9401V10.9418L24.7305 10.9162Z" fill="#091B36"/>
<path d="M23.1245 8.3286V7.30359L22.8696 7.55984C22.8696 7.55984 22.5636 7.86735 21.3398 7.86735L19.6826 7.63672L18.3313 7.45734C17.8469 7.43172 17.388 7.61109 17.0565 7.94422C16.7251 7.58547 16.2407 7.40609 15.7817 7.45734L14.4305 7.66234L12.7732 7.89297C11.5749 7.89297 11.32 7.61109 11.32 7.61109L11.065 7.30359V7.68797V8.37986L10.0707 8.58486V16.2212L10.1982 16.2468C11.065 16.375 11.9574 16.4518 12.8242 16.4518C13.895 16.4262 14.9404 16.3493 15.9857 16.2212V16.58L16.0622 16.6312C16.3681 16.7594 16.6996 16.8362 17.031 16.8362C17.3625 16.8362 17.7194 16.7594 18.0254 16.6312L18.1018 16.58V16.2212C19.1472 16.3493 20.218 16.4262 21.2633 16.4518C22.1557 16.4262 23.0225 16.375 23.8894 16.2468L24.0169 16.2212V8.61048L23.1245 8.3286ZM17.2095 8.25173C17.4899 7.89297 17.9234 7.71359 18.3568 7.76485L19.6571 7.94422L21.3653 8.17485C21.8752 8.20048 22.3851 8.1236 22.8696 7.9186V15.145C22.3851 15.2987 21.8752 15.3756 21.3653 15.3756L19.7081 15.145L18.3568 14.9656C17.9489 14.94 17.5409 15.0681 17.2095 15.3243V8.25173ZM11.32 7.94422C11.7789 8.1236 12.2633 8.20048 12.7477 8.17485L14.4559 7.94422L15.7562 7.76485C16.1897 7.71359 16.6231 7.89297 16.9035 8.25173V15.3243C16.5721 15.0681 16.1642 14.94 15.7562 14.9656L14.405 15.1706L12.7477 15.4012C11.5494 15.4012 11.2945 15.1193 11.2945 15.1193C11.2945 15.0681 11.32 8.43111 11.32 7.94422ZM23.7619 15.965C22.946 16.0931 22.1302 16.1443 21.2888 16.17C20.1925 16.1443 19.0962 16.0675 17.9999 15.9393L17.8469 15.9137V16.4006C17.5919 16.5031 17.3115 16.5544 17.0565 16.5544C16.8016 16.5544 16.5466 16.5031 16.2916 16.4006V15.9137L16.1387 15.9393C15.0424 16.0675 13.946 16.1443 12.8497 16.17C12.0339 16.17 11.1925 16.0931 10.3766 15.965V8.81549C10.5041 8.78986 10.8865 8.71298 11.0905 8.66173V15.145C11.167 15.2987 11.4474 15.6318 12.7987 15.6318L14.5069 15.4012L15.8072 15.2218C16.2407 15.1706 16.6996 15.35 16.9545 15.7087L17.0055 15.6831H17.2095L17.2605 15.7087C17.5409 15.35 17.9744 15.1706 18.4078 15.2218L19.7081 15.4012L21.4163 15.6318C22.7931 15.6318 23.1245 15.2731 23.15 15.2218L23.1755 8.61048C23.354 8.66173 23.6854 8.76424 23.7874 8.78986L23.7619 15.965Z" fill="#70879C"/>
<path d="M13.3084 9.19957C13.2064 9.19957 13.13 9.25082 13.1045 9.35332L12.6455 10.3527L12.62 10.3783C12.5945 10.3783 12.5945 10.3527 12.5691 10.3271C12.5436 10.3015 12.4926 10.1477 12.3906 9.86583L12.2376 9.5327C12.1866 9.40457 12.1356 9.32769 12.1356 9.30207C12.0846 9.22519 12.0336 9.19957 11.9572 9.19957V9.17394V9.14832H12.0336C12.1101 9.14832 12.1866 9.14832 12.2631 9.14832C12.3396 9.14832 12.4671 9.14832 12.5436 9.14832H12.5945V9.17394V9.19957C12.5436 9.19957 12.4161 9.19957 12.4161 9.27644C12.4161 9.30207 12.4161 9.32769 12.4161 9.35332L12.722 10.0708L12.977 9.48145C13.0025 9.43019 13.0025 9.37894 13.0025 9.32769C13.0025 9.25082 12.9515 9.22519 12.824 9.22519V9.19957V9.17394H12.8495C12.9005 9.17394 12.9515 9.17394 13.079 9.17394C13.1045 9.17394 13.181 9.17394 13.2319 9.17394H13.3084V9.19957C13.3339 9.19957 13.3339 9.19957 13.3084 9.19957Z" fill="#70879C"/>
<path d="M14.5832 10.3522C14.2263 10.3522 14.0223 10.3522 13.9713 10.3522C13.9203 10.3522 13.8438 10.3522 13.7929 10.3522C13.7419 10.3522 13.6399 10.3522 13.5124 10.3522H13.4359V10.3266V10.301C13.4869 10.301 13.5634 10.2754 13.6144 10.2497C13.6399 10.1985 13.6654 10.1216 13.6654 10.0704C13.6654 10.0191 13.6654 9.94222 13.6654 9.89097C13.6654 9.78847 13.6654 9.68597 13.6654 9.55784V9.37846C13.6654 9.25034 13.5889 9.25034 13.4614 9.22471V9.19909V9.17346H13.5379C13.5889 9.17346 13.6909 9.17346 13.9203 9.17346C14.1243 9.17346 14.3283 9.17346 14.3793 9.17346C14.4048 9.17346 14.4812 9.17346 14.5067 9.17346C14.5322 9.17346 14.5577 9.17346 14.5577 9.19909L14.5832 9.48097C14.5577 9.48097 14.5577 9.48097 14.5577 9.48097H14.5322C14.4812 9.40409 14.4302 9.32721 14.3538 9.27596C14.3283 9.25034 14.2773 9.25034 14.2518 9.25034C14.2263 9.25034 14.2008 9.25034 14.0988 9.25034C14.0223 9.25034 13.9713 9.25034 13.9713 9.25034C13.9713 9.25034 13.9713 9.25034 13.9458 9.30159C13.9458 9.32721 13.9458 9.37847 13.9458 9.53222V9.68597H13.9968C14.0478 9.68597 14.0988 9.68597 14.1243 9.66034C14.1753 9.63472 14.2263 9.60909 14.2518 9.58347C14.2518 9.55784 14.2773 9.50659 14.2773 9.48097C14.2773 9.48097 14.3028 9.48097 14.3283 9.48097H14.3538C14.3538 9.53222 14.3538 9.63472 14.3538 9.73722C14.3538 9.78847 14.3538 9.9166 14.3538 9.96785H14.3283H14.3028C14.3028 9.86535 14.2773 9.78847 14.2008 9.76285C14.1498 9.73722 14.1243 9.73722 14.0733 9.73722C14.0478 9.73722 14.0223 9.73722 13.9968 9.73722V10.0447C13.9968 10.096 13.9968 10.1472 14.0223 10.1985C14.0478 10.2241 14.0733 10.2497 14.0988 10.2754C14.1243 10.2754 14.1753 10.2754 14.2008 10.2754H14.3793C14.4302 10.2754 14.4557 10.2754 14.5067 10.2497C14.5832 10.1729 14.6597 10.096 14.6852 9.99347H14.7107H14.7362V10.301C14.6342 10.3266 14.6342 10.3522 14.5832 10.3522Z" fill="#70879C"/>
<path d="M16.0111 9.53222C15.9601 9.48097 15.9346 9.40409 15.9091 9.35284C15.8582 9.27596 15.7817 9.25034 15.6797 9.22471C15.6542 9.22471 15.5777 9.22471 15.5522 9.22471V9.76285C15.5522 9.83972 15.5522 9.94222 15.5522 10.1216C15.5522 10.2497 15.6032 10.2497 15.7562 10.2754V10.301V10.3266H15.7052C15.6287 10.3266 15.4502 10.3266 15.3992 10.3266C15.3737 10.3266 15.1698 10.3266 15.0933 10.3266V10.301V10.2754C15.2717 10.2497 15.2972 10.2241 15.2972 10.1729C15.2972 10.1216 15.2972 9.96785 15.2972 9.8141V9.37846C15.2972 9.32721 15.2972 9.27596 15.2972 9.22471C15.2463 9.22471 15.1698 9.22471 15.1188 9.25034C15.0168 9.30159 14.9148 9.40409 14.8893 9.50659H14.8638H14.8383V9.19909C14.8383 9.17346 14.8383 9.17346 14.8638 9.17346C14.8893 9.17346 14.9403 9.17346 14.9913 9.17346C15.0423 9.17346 15.1953 9.17346 15.4247 9.17346C15.7052 9.17346 15.9346 9.17346 15.9856 9.17346C16.0111 9.17346 16.0366 9.17346 16.0366 9.17346C16.0366 9.19909 16.0366 9.19909 16.0366 9.22471V9.53222C16.0366 9.50659 16.0366 9.53222 16.0111 9.53222Z" fill="#70879C"/>
<path d="M13.2577 11.4035C13.2067 11.3523 13.1812 11.2754 13.1557 11.2242C13.1047 11.1473 13.0282 11.1217 12.9262 11.096C12.9007 11.096 12.8242 11.096 12.7987 11.096V11.6342C12.7987 11.7111 12.7987 11.8136 12.7987 11.9929C12.7987 12.1211 12.8752 12.1211 13.0027 12.1467V12.1723V12.1979H12.9517C12.8752 12.1979 12.6968 12.1979 12.6458 12.1979C12.6203 12.1979 12.4163 12.1979 12.3398 12.1979V12.1723V12.1467C12.5183 12.1211 12.5438 12.0954 12.5693 12.0442C12.5693 11.9929 12.5693 11.8392 12.5693 11.6854V11.2498C12.5693 11.1985 12.5693 11.1473 12.5693 11.096C12.5183 11.096 12.4418 11.096 12.3908 11.1217C12.2888 11.1729 12.1868 11.2754 12.1613 11.3779H12.1358H12.1104V11.0448C12.1104 11.0192 12.1104 11.0192 12.1358 11.0192C12.1613 11.0192 12.2123 11.0192 12.2633 11.0192C12.3143 11.0192 12.4928 11.0192 12.6968 11.0192C12.9772 11.0192 13.2067 11.0192 13.2577 11.0192C13.2832 11.0192 13.3087 11.0192 13.3087 11.0192C13.3087 11.0192 13.3087 11.0448 13.3087 11.0704L13.2577 11.4035C13.2832 11.4035 13.2832 11.3779 13.2577 11.4035Z" fill="#70879C"/>
<path d="M14.6342 12.2236C14.2772 12.2236 14.0733 12.2236 14.0223 12.2236C13.9713 12.2236 13.8948 12.2236 13.8438 12.2236C13.7928 12.2236 13.6908 12.2236 13.5634 12.2236H13.4869V12.1979C13.4869 12.1723 13.4869 12.1723 13.4869 12.1467C13.5379 12.1467 13.6144 12.1211 13.6653 12.0954C13.6908 12.0698 13.6908 12.0186 13.7163 11.9161C13.7163 11.8648 13.7163 11.7879 13.7163 11.7367C13.7163 11.6342 13.7163 11.5317 13.7163 11.4035C13.7163 11.301 13.7163 11.2498 13.7163 11.2242C13.7163 11.096 13.6653 11.096 13.5124 11.0704V11.0448C13.5124 11.0448 13.5124 11.0192 13.5379 11.0192H13.5889C13.6399 11.0192 13.7418 11.0192 13.9713 11.0192C14.1753 11.0192 14.3792 11.0192 14.4302 11.0192H14.5577C14.5832 11.0192 14.6087 11.0192 14.6087 11.0448L14.6342 11.3267H14.6087H14.5832C14.5322 11.2498 14.4812 11.1729 14.4047 11.1217C14.3792 11.096 14.3282 11.096 14.3027 11.096C14.2772 11.096 14.2518 11.096 14.1498 11.096C14.0733 11.096 14.0223 11.096 14.0223 11.096C14.0223 11.096 13.9968 11.096 13.9968 11.1473C13.9968 11.1729 13.9968 11.2242 13.9968 11.3779V11.5317H14.0478C14.0988 11.5317 14.1498 11.5317 14.1753 11.506C14.2263 11.4804 14.2772 11.4548 14.3027 11.4292C14.3027 11.4035 14.3282 11.3523 14.3282 11.3267C14.3282 11.3267 14.3537 11.3267 14.3792 11.3267H14.4047C14.4047 11.3779 14.3792 11.4804 14.3792 11.5829C14.3792 11.6342 14.3792 11.7623 14.3792 11.8136H14.3537H14.3282C14.3282 11.7111 14.3027 11.6342 14.2263 11.6085C14.1753 11.5829 14.1498 11.5829 14.0988 11.5829C14.0733 11.5829 14.0478 11.5829 14.0223 11.5829V11.8904C14.0223 11.9417 14.0223 11.9929 14.0478 12.0442C14.0478 12.0698 14.0988 12.0954 14.1243 12.1211C14.1498 12.1211 14.2008 12.1211 14.2263 12.1211H14.4047C14.4557 12.1211 14.4812 12.1211 14.5322 12.0954C14.6087 12.0186 14.6852 11.9417 14.7362 11.8392H14.7617H14.7872V12.1467C14.6852 12.2236 14.6597 12.2236 14.6342 12.2236Z" fill="#70879C"/>
<path d="M15.4502 12.2488C15.3483 12.2488 15.2718 12.2232 15.1698 12.1719C15.1443 12.1719 15.1443 12.1719 15.1188 12.1719C15.0933 12.1719 15.0678 12.1976 15.0423 12.2232C15.0168 12.2232 14.9913 12.2232 14.9658 12.1976C14.9658 12.1719 14.9913 12.0951 14.9913 12.0438C14.9913 12.0182 14.9913 11.8901 14.9913 11.8388C14.9913 11.8132 15.0168 11.8132 15.0423 11.8132H15.0678C15.0933 11.8901 15.1443 11.9669 15.1698 12.0438C15.2463 12.1207 15.3228 12.1719 15.4247 12.1719C15.5012 12.1719 15.5522 12.1463 15.6287 12.1207C15.6797 12.0951 15.7052 12.0438 15.7052 11.9669C15.7052 11.9157 15.7052 11.8901 15.6797 11.8644C15.6542 11.8132 15.6032 11.7876 15.5522 11.7876C15.5012 11.7619 15.3228 11.7107 15.2463 11.685C15.1953 11.6594 15.1188 11.6082 15.0933 11.5569C15.0423 11.5057 15.0168 11.4288 15.0168 11.3263C15.0168 11.1469 15.1698 10.9932 15.3738 10.9932H15.3992C15.5012 10.9932 15.6032 11.0188 15.6797 11.07C15.7052 11.0444 15.7307 11.0188 15.7562 10.9932C15.7817 10.9932 15.8072 10.9932 15.8072 11.0188C15.8072 11.07 15.7817 11.1213 15.7817 11.1725C15.7817 11.1982 15.8072 11.3263 15.8072 11.3519C15.7817 11.3519 15.7817 11.3775 15.7562 11.3775H15.7307C15.7052 11.3263 15.6797 11.2238 15.6287 11.1725C15.5777 11.0957 15.4757 11.07 15.3992 11.07C15.2973 11.07 15.1953 11.1469 15.1953 11.2494C15.1953 11.3519 15.2718 11.4032 15.3483 11.4288C15.3992 11.4544 15.4502 11.48 15.5267 11.48C15.6032 11.5057 15.6542 11.5313 15.7052 11.5569C15.8327 11.6082 15.9092 11.7363 15.9092 11.8644C15.8582 12.0951 15.6797 12.2488 15.4502 12.2488C15.4757 12.2488 15.4757 12.2488 15.4502 12.2488Z" fill="#70879C"/>
<path d="M13.7419 14.0939C13.3849 14.0939 13.1809 14.0939 13.13 14.0939C13.079 14.0939 13.0025 14.0939 12.9515 14.0939C12.9005 14.0939 12.7985 14.0939 12.671 14.0939H12.5945V14.0683V14.0427C12.6455 14.0427 12.722 14.0171 12.773 13.9914C12.7985 13.9402 12.824 13.8633 12.824 13.812C12.824 13.7608 12.824 13.6839 12.824 13.6327C12.824 13.5302 12.824 13.4277 12.824 13.2995V13.1202C12.824 12.992 12.7475 12.992 12.62 12.9664V12.9408V12.9152H12.6965C12.7475 12.9152 12.8495 12.9152 13.079 12.9152C13.2829 12.9152 13.4869 12.9152 13.5379 12.9152C13.5634 12.9152 13.6399 12.9152 13.6654 12.9152C13.6909 12.9152 13.7164 12.9152 13.7164 12.9408L13.7419 13.2227C13.7164 13.2227 13.7164 13.2227 13.7164 13.2227H13.6909C13.6399 13.1458 13.5889 13.0689 13.5124 13.0177C13.4869 12.992 13.4359 12.992 13.4104 12.992C13.3849 12.992 13.3594 12.992 13.2574 12.992C13.1809 12.992 13.13 12.992 13.13 12.992C13.13 12.992 13.13 12.992 13.1045 13.0433C13.1045 13.0689 13.1045 13.1202 13.1045 13.2739V13.4277H13.1555C13.2064 13.4277 13.2574 13.4277 13.2829 13.402C13.3339 13.3764 13.3849 13.3508 13.4104 13.3252C13.4104 13.2995 13.4359 13.2483 13.4359 13.2227C13.4359 13.2227 13.4614 13.2227 13.4869 13.2227H13.5124C13.5124 13.2739 13.5124 13.3764 13.5124 13.4789C13.5124 13.5302 13.5124 13.6583 13.5124 13.7095H13.4869H13.4614C13.4614 13.607 13.4359 13.5302 13.3594 13.5045C13.3084 13.4789 13.2829 13.4789 13.2319 13.4789C13.2064 13.4789 13.1809 13.4789 13.1555 13.4789V13.7864C13.1555 13.8377 13.1554 13.8889 13.1809 13.9402C13.2064 13.9658 13.2319 13.9914 13.2574 14.0171C13.2829 14.0171 13.3339 14.0171 13.3594 14.0171H13.5379C13.5889 14.0171 13.6144 14.0171 13.6654 13.9914C13.7419 13.9146 13.8183 13.8377 13.8438 13.7352C13.8693 13.7352 13.8948 13.7352 13.9203 13.7352V14.0427C13.7928 14.0939 13.7928 14.0939 13.7419 14.0939Z" fill="#70879C"/>
<path d="M15.4757 12.966C15.3482 12.966 15.2463 13.0429 15.2463 13.2223V13.8373C15.2463 13.8629 15.2463 14.0423 15.2463 14.0936C15.2208 14.0936 15.2208 14.1192 15.1953 14.1192C15.1953 14.1192 15.1698 14.1192 15.1698 14.0936L14.3284 13.1967V13.376V13.7092C14.3284 13.7348 14.3284 13.786 14.3284 13.8373C14.3284 13.8886 14.3539 13.9398 14.3794 13.9654C14.4304 13.9911 14.4814 14.0167 14.5324 14.0167V14.0423V14.0679H14.4304C14.3539 14.0679 14.3029 14.0679 14.2009 14.0679C14.1499 14.0679 14.0735 14.0679 14.0225 14.0679H13.9715V14.0423V14.0167C14.048 14.0167 14.099 13.9911 14.15 13.9398C14.1754 13.8886 14.1754 13.8373 14.1754 13.786V13.3504C14.1754 13.2735 14.1754 13.2479 14.1754 13.171C14.1754 13.1198 14.1499 13.0685 14.1245 13.0429C14.099 13.0173 14.099 12.9917 14.0735 12.9917C14.0225 12.966 13.997 12.9404 13.946 12.9404V12.9148V12.8892H13.9715C13.997 12.8892 14.1245 12.8892 14.2264 12.8892H14.2774C14.3029 12.8892 14.3029 12.9148 14.3029 12.9148L14.9148 13.6067C14.9658 13.6579 15.0168 13.7348 15.0678 13.7604V13.2735C15.0678 13.1967 15.0678 13.171 15.0678 13.1454C15.0678 13.0942 15.0423 13.0685 15.0423 13.0173C15.0168 12.9917 14.9148 12.966 14.8383 12.966V12.9404V12.9148H14.8638C14.9148 12.9148 15.0168 12.9148 15.0678 12.9148C15.2208 12.9148 15.2463 12.9148 15.3228 12.9148H15.3737V12.9404C15.4757 12.9404 15.4757 12.9404 15.4757 12.966Z" fill="#70879C"/>
<path d="M19.402 9.19907C19.2745 9.19907 19.1725 9.27595 19.1725 9.45532V10.0703C19.1725 10.096 19.1725 10.2753 19.1725 10.3266C19.147 10.3266 19.147 10.3522 19.1215 10.3522C19.1215 10.3522 19.096 10.3522 19.096 10.3266L18.2547 9.4297V9.60907V9.9422C18.2547 9.96783 18.2547 10.0191 18.2547 10.0703C18.2547 10.1216 18.2802 10.1728 18.3057 10.1985C18.3566 10.2241 18.4076 10.2497 18.4586 10.2497V10.2753V10.301H18.4076C18.3312 10.301 18.2802 10.301 18.1782 10.301C18.1272 10.301 18.0507 10.301 17.9997 10.301H17.9487V10.2753V10.2497C18.0252 10.2497 18.0762 10.2241 18.1272 10.1728C18.1527 10.1216 18.1527 10.0703 18.1527 10.0191V9.58345C18.1527 9.50657 18.1527 9.48095 18.1527 9.40407C18.1527 9.35282 18.1272 9.30157 18.1017 9.27595C18.0762 9.25032 18.0762 9.22469 18.0507 9.22469C17.9997 9.19907 17.9742 9.17344 17.9232 9.17344V9.14782V9.12219H17.9487C17.9742 9.12219 18.1017 9.12219 18.2037 9.12219H18.2547C18.2802 9.12219 18.2802 9.14782 18.3057 9.14782L18.9176 9.8397C18.9685 9.89095 19.0195 9.96783 19.0705 9.99346V9.50657C19.0705 9.45532 19.0705 9.40407 19.0705 9.37845C19.0705 9.3272 19.045 9.30157 19.045 9.25032C19.0195 9.22469 18.9176 9.19907 18.8411 9.19907V9.17344V9.14782H18.8666C18.9176 9.14782 19.0195 9.14782 19.0705 9.14782C19.2235 9.14782 19.249 9.14782 19.3255 9.14782H19.3765V9.17344C19.402 9.17344 19.402 9.19907 19.402 9.19907Z" fill="#70879C"/>
<path d="M20.6512 10.1985C20.4218 10.4291 20.0393 10.4291 19.8099 10.1985C19.5804 9.94221 19.5804 9.55782 19.8099 9.30157C19.9118 9.19907 20.0648 9.12219 20.2178 9.12219C20.3198 9.12219 20.4472 9.14782 20.5237 9.19907C20.7022 9.30157 20.8042 9.50657 20.8042 9.7372C20.8297 9.89095 20.7532 10.0703 20.6512 10.1985ZM20.4472 9.30157C20.3963 9.22469 20.2943 9.17344 20.2178 9.17344C20.1158 9.17344 20.0393 9.22469 19.9883 9.30157C19.9118 9.4297 19.8608 9.58345 19.8863 9.7372C19.8863 9.89095 19.9118 10.0191 19.9883 10.1472C20.0393 10.2241 20.1158 10.2753 20.2178 10.2753C20.3198 10.2753 20.4217 10.2241 20.4727 10.1216C20.5237 9.99346 20.5492 9.86533 20.5492 9.7372C20.5747 9.58345 20.5237 9.4297 20.4472 9.30157Z" fill="#70879C"/>
<path d="M22.334 9.19957C22.232 9.19957 22.1555 9.25082 22.13 9.35332L21.6711 10.3527L21.6456 10.3783C21.6201 10.3783 21.6201 10.3527 21.5946 10.3271C21.5691 10.3015 21.5181 10.1477 21.4162 9.86583L21.2632 9.5327C21.2122 9.40457 21.1612 9.32769 21.1612 9.30207C21.1102 9.22519 21.0592 9.19957 20.9827 9.19957V9.17394V9.14832H21.0592C21.1357 9.14832 21.2122 9.14832 21.2887 9.14832C21.3652 9.14832 21.4926 9.14832 21.5691 9.14832H21.6201L21.6456 9.17394V9.19957C21.5946 9.19957 21.4671 9.19957 21.4671 9.27644C21.4671 9.30207 21.4671 9.32769 21.4671 9.35332L21.7731 10.0708L22.0281 9.48145C22.0536 9.43019 22.0536 9.37894 22.0536 9.32769C22.0536 9.25082 22.0026 9.22519 21.8751 9.22519V9.19957V9.17394H21.9006C21.9516 9.17394 22.0026 9.17394 22.13 9.17394C22.1555 9.17394 22.232 9.17394 22.283 9.17394H22.3595C22.3595 9.17394 22.3595 9.19957 22.334 9.19957Z" fill="#70879C"/>
<path d="M19.0197 11.4035C18.9688 11.3523 18.9433 11.2754 18.9178 11.2242C18.8668 11.1473 18.7903 11.096 18.6883 11.096C18.6628 11.096 18.5863 11.096 18.5608 11.096V11.6342C18.5608 11.7111 18.5608 11.8136 18.5608 11.9929C18.5608 12.1211 18.6373 12.1211 18.7648 12.1467V12.1723V12.1979H18.7138C18.6373 12.1979 18.4588 12.1979 18.4078 12.1979C18.3824 12.1979 18.1784 12.1979 18.1019 12.1979V12.1723V12.1467C18.2804 12.1211 18.3059 12.0954 18.3314 12.0442C18.3314 11.9929 18.3314 11.8392 18.3314 11.6854V11.2498C18.3314 11.1985 18.3314 11.1473 18.3314 11.096C18.2804 11.096 18.2039 11.096 18.1529 11.1217C18.0509 11.1729 17.9489 11.2754 17.9234 11.3779H17.8979H17.8724V11.0448C17.8724 11.0192 17.8724 11.0192 17.8979 11.0192C17.9234 11.0192 17.9744 11.0192 18.0254 11.0192C18.0764 11.0192 18.2549 11.0192 18.4588 11.0192C18.7393 11.0192 18.9688 11.0192 19.0197 11.0192C19.0452 11.0192 19.0707 11.0192 19.0707 11.0192C19.0707 11.0192 19.0707 11.0448 19.0707 11.0704L19.0197 11.4035C19.0452 11.3779 19.0197 11.4035 19.0197 11.4035Z" fill="#70879C"/>
<path d="M20.4475 12.2232H20.3455C20.2945 12.2232 20.218 12.2232 20.1415 12.2232C20.0396 12.2232 19.8866 12.2232 19.8356 12.2232V12.1976V12.1719C19.9631 12.1719 19.9886 12.1463 19.9886 12.0951C19.9886 12.0438 19.9631 11.9926 19.9631 11.9413C19.9376 11.8644 19.9121 11.8132 19.9121 11.7876C19.9121 11.7876 19.9121 11.7619 19.8866 11.7619H19.5041C19.4531 11.8388 19.4277 11.9157 19.4277 11.9926C19.4277 12.0182 19.4277 12.0438 19.4277 12.0694C19.4277 12.1207 19.4531 12.1463 19.6061 12.1463V12.1719V12.1976H19.5806C19.5041 12.1976 19.4786 12.1976 19.3767 12.1976C19.3257 12.1976 19.1727 12.1976 19.1217 12.1976V12.1719V12.1463C19.1982 12.1463 19.2492 12.1207 19.3002 12.0694C19.3512 11.9669 19.4022 11.8644 19.4531 11.7619C19.5296 11.6082 19.6061 11.4032 19.6316 11.3263C19.6826 11.2238 19.7081 11.1982 19.7081 11.1469C19.7336 11.0957 19.7591 11.0444 19.7591 11.0188C19.7591 10.9932 19.7846 10.9932 19.8101 10.9932C19.8356 10.9932 19.8611 10.9932 19.8611 11.0188C19.8611 11.0444 19.8866 11.0444 19.8866 11.07C19.9631 11.2238 20.0141 11.3775 20.0905 11.5825C20.1415 11.685 20.167 11.7619 20.1925 11.8644C20.218 11.9413 20.2435 11.9926 20.269 12.0438C20.32 12.1463 20.3965 12.1463 20.4475 12.1463V12.1719C20.4475 12.1719 20.4475 12.1976 20.4475 12.2232ZM19.6826 11.275C19.6571 11.3263 19.6061 11.4288 19.6061 11.48C19.5551 11.6338 19.5296 11.685 19.5041 11.7107H19.8611C19.8356 11.6082 19.7336 11.4032 19.6826 11.275Z" fill="#70879C"/>
<path d="M22.283 12.2232H21.7986H21.6711V12.1976V12.172C21.7221 12.172 21.7476 12.172 21.7986 12.172C21.8496 12.1463 21.8751 12.0951 21.8751 12.0182V11.147L21.6202 11.7107C21.5947 11.762 21.5692 11.8388 21.5437 11.9157C21.4927 11.9926 21.4672 12.0951 21.4417 12.1976C21.4417 12.2232 21.4162 12.2232 21.3907 12.2232C21.3652 12.2232 21.3652 12.2232 21.3652 12.1976C21.3397 12.1207 21.3142 12.0695 21.2887 12.0438L20.8808 11.1726V11.4032V11.967C20.8808 12.1463 20.9573 12.2232 21.1102 12.2232V12.2488V12.2745C21.1102 12.2745 21.0847 12.2745 21.0592 12.2745C21.0338 12.2745 20.9573 12.2745 20.8298 12.2745C20.8043 12.2745 20.7278 12.2745 20.6513 12.2745H20.5748V12.2488V12.2232C20.6258 12.2232 20.7023 12.1976 20.7533 12.172C20.7788 12.1463 20.8043 12.0951 20.8043 11.967V11.352C20.8043 11.2495 20.7788 11.2238 20.7533 11.1726C20.7023 11.147 20.6513 11.147 20.6003 11.147V11.1213V11.0957C20.6513 11.0957 20.7278 11.0957 20.8043 11.0957H21.0847L21.1102 11.1213L21.4672 11.9413L21.5182 11.7876C21.5692 11.6595 21.6456 11.4545 21.7731 11.2495C21.7986 11.1982 21.8241 11.147 21.8496 11.1213H22.3085V11.147V11.1726C22.2575 11.1726 22.1811 11.1726 22.1301 11.2495C22.1046 11.2751 22.1046 11.3007 22.1046 11.4032V11.9926C22.1046 12.2232 22.1556 12.2488 22.1811 12.2488C22.232 12.2488 22.2575 12.2745 22.3085 12.2745V12.3001C22.283 12.1976 22.283 12.1976 22.283 12.2232Z" fill="#70879C"/>
<path d="M18.9942 13.2739C18.9432 13.2227 18.9177 13.1458 18.8923 13.0945C18.8413 13.0177 18.7648 12.992 18.6628 12.9664C18.6373 12.9664 18.5608 12.9664 18.5353 12.9664V13.5045C18.5353 13.5814 18.5353 13.6839 18.5353 13.8633C18.5353 13.9914 18.6118 13.9914 18.7393 14.0171V14.0427V14.0683H18.6883C18.6118 14.0683 18.4333 14.0683 18.3823 14.0683C18.3568 14.0683 18.1529 14.0683 18.0764 14.0683V14.0427V14.0171C18.2549 13.9914 18.2804 13.9658 18.3058 13.9146C18.3058 13.8633 18.3058 13.7095 18.3058 13.5558V13.1202C18.3058 13.0689 18.3058 13.0177 18.3058 12.9664C18.2549 12.9664 18.1784 12.9664 18.1274 12.992C18.0254 13.0433 17.9234 13.1458 17.8979 13.2483H17.8724H17.8469V12.9408C17.8469 12.9152 17.8469 12.9152 17.8724 12.9152C17.8979 12.9152 17.9489 12.9152 17.9999 12.9152C18.0509 12.9152 18.2294 12.9152 18.4333 12.9152C18.7138 12.9152 18.9432 12.9152 18.9942 12.9152C19.0197 12.9152 19.0452 12.9152 19.0452 12.9152C19.0452 12.9152 19.0452 12.9408 19.0452 12.9664L18.9942 13.2739C19.0197 13.2739 18.9942 13.2739 18.9942 13.2739Z" fill="#70879C"/>
<path d="M20.473 12.9664C20.371 12.9664 20.2945 13.0177 20.269 13.1202L19.8101 14.1196L19.7846 14.1452C19.7591 14.1452 19.7591 14.1196 19.7336 14.0939C19.7336 14.0683 19.6571 13.9146 19.5551 13.6327L19.4022 13.2995C19.3512 13.1714 19.3002 13.0945 19.3002 13.0689C19.2492 12.992 19.1982 12.9664 19.1217 12.9664V12.9408V12.9152H19.1727C19.2492 12.9152 19.3257 12.9152 19.4022 12.9152C19.4786 12.9152 19.6061 12.9152 19.6826 12.9152H19.7336L19.7591 12.9408V12.9664C19.7081 12.9664 19.5806 12.9664 19.5806 13.0433C19.5806 13.0689 19.5806 13.0945 19.5806 13.1202L19.8866 13.8377L20.1415 13.2483C20.167 13.197 20.167 13.1458 20.167 13.0945C20.167 13.0177 20.116 12.992 19.9886 12.992V12.9664V12.9408H20.0141C20.065 12.9408 20.116 12.9408 20.2435 12.9408C20.269 12.9408 20.3455 12.9408 20.3965 12.9408H20.473C20.473 12.9152 20.473 12.9408 20.473 12.9664Z" fill="#70879C"/>
<path d="M22.3084 14.0936H21.824H21.6965V14.068V14.0423C21.7475 14.0423 21.773 14.0423 21.824 14.0423C21.875 14.0167 21.9005 13.9655 21.9005 13.8886V13.1967C21.9005 13.1967 21.9005 13.0686 21.9005 13.043L21.6455 13.6067C21.6201 13.658 21.5946 13.7348 21.5436 13.8117C21.4926 13.9398 21.4671 14.0423 21.4416 14.0936C21.4416 14.1192 21.4161 14.1192 21.3906 14.1192C21.3651 14.1192 21.3651 14.1192 21.3651 14.0936C21.3396 14.0167 21.3141 13.9655 21.3141 13.9398L20.9062 13.0686V13.2992V13.863C20.9062 14.0423 20.9827 14.1192 21.1356 14.1192V14.1448V14.1705C21.1356 14.1705 21.1101 14.1705 21.0846 14.1705C21.0591 14.1705 20.9827 14.1705 20.8552 14.1705C20.8042 14.1705 20.7532 14.1705 20.6767 14.1705H20.6002V14.1448V14.1192C20.6512 14.1192 20.7277 14.0936 20.7787 14.068C20.8042 14.0167 20.8297 13.9398 20.8297 13.863V13.5811V13.248C20.8297 13.1455 20.8297 13.1198 20.7787 13.0686C20.7277 13.0429 20.6767 13.043 20.6257 13.043V13.0173V12.9917C20.6767 12.9917 20.7532 12.9917 20.8297 12.9917H21.1101L21.1356 13.0173L21.4926 13.8373L21.5691 13.6836C21.6455 13.5042 21.722 13.3248 21.824 13.1455C21.8495 13.0942 21.875 13.0429 21.9005 13.0173H22.3594L22.3849 13.043V13.0686C22.3339 13.0686 22.2574 13.0686 22.2065 13.1455C22.181 13.1711 22.181 13.1967 22.181 13.2992V13.8886C22.181 14.1192 22.2319 14.1448 22.2574 14.1448C22.2829 14.1448 22.3339 14.1705 22.3849 14.1705V14.1961C22.3084 14.068 22.3084 14.0936 22.3084 14.0936Z" fill="#70879C"/>
<path d="M153.408 6.8928C153.408 6.81593 153.382 6.73905 153.357 6.6878H153.025C152.26 6.6878 151.776 6.71343 150.374 6.71343C149.889 6.71343 149.201 6.6878 149.022 6.6878H148.614C148.563 6.71343 148.563 6.8928 148.563 6.94405C148.563 7.04656 148.589 7.12343 148.64 7.20031C149.175 7.27718 149.711 7.43094 150.221 7.63594C150.501 8.12282 150.68 8.66096 150.68 9.22471C150.705 9.45534 150.705 9.68597 150.705 10.3266V13.5554C150.705 13.786 150.705 13.991 150.68 14.2217C150.425 13.9398 150.042 13.376 149.43 12.6841L144.28 6.96968C144.204 6.8928 144.127 6.81593 144.051 6.76468C143.923 6.76468 143.719 6.73905 143.592 6.73905C142.597 6.73905 140.813 6.6878 140.558 6.6878C140.532 6.76468 140.507 6.81593 140.507 6.8928C140.507 6.99531 140.532 7.09781 140.558 7.20031C140.991 7.27718 141.399 7.48219 141.705 7.78969C142.011 8.07157 142.292 8.4047 142.521 8.76346C142.572 8.91721 142.597 9.09659 142.572 9.25034C142.572 10.0447 142.521 11.1722 142.521 12.2741V15.4261C142.521 15.8104 142.495 16.2204 142.419 16.6048C141.96 17.0148 141.399 17.2967 140.813 17.3992C140.787 17.4761 140.762 17.5786 140.762 17.6811C140.762 17.7323 140.787 17.8861 140.813 17.8861H141.093C141.399 17.8861 142.113 17.8348 142.572 17.8348C143.26 17.8348 143.719 17.8861 144.331 17.8861H145.249C145.3 17.8605 145.326 17.6811 145.326 17.6298C145.326 17.553 145.3 17.4505 145.275 17.3736C144.561 17.2967 143.898 16.938 143.439 16.4254C143.311 15.7848 143.235 15.1442 143.235 14.5035C143.235 14.0167 143.209 13.3248 143.209 12.4279C143.209 11.1979 143.235 10.1472 143.235 9.60909C143.337 9.7116 143.439 9.86535 143.515 9.94222L150.629 17.963C150.756 18.0398 150.909 18.0655 151.062 18.0655C151.113 18.0655 151.19 18.0655 151.241 18.0398C151.343 17.8092 151.368 17.5786 151.368 17.348C151.368 16.9123 151.343 16.4254 151.343 16.1948V9.73722C151.343 7.81532 152.26 7.25156 153.306 7.22593C153.408 7.09781 153.408 6.99531 153.408 6.8928ZM135.79 11.8129C135.79 14.1448 135.153 16.1948 134.26 16.938C133.801 17.3223 133.215 17.5017 132.629 17.5017C131.813 17.553 131.022 17.143 130.589 16.4767C129.952 15.2467 129.646 13.8629 129.671 12.4535C129.671 10.301 130.232 8.6097 131.201 7.78969C131.634 7.40531 132.221 7.20031 132.807 7.20031C133.623 7.20031 134.413 7.58469 134.898 8.27657C135.51 9.04534 135.79 10.2241 135.79 11.8129ZM138.569 12.1204C138.646 10.1216 137.6 8.25095 135.841 7.30281C134.949 6.7903 133.954 6.50842 132.909 6.50842C130.818 6.53405 128.855 7.61031 127.733 9.37847C127.147 10.3266 126.841 11.4029 126.841 12.5048C126.841 14.2729 127.657 15.9386 129.034 17.0405C130.054 17.7836 131.277 18.168 132.552 18.1423C133.343 18.1423 134.133 17.9886 134.898 17.7067C135.714 17.3992 136.453 16.8867 137.039 16.2461C138.059 15.1186 138.595 13.6323 138.569 12.1204ZM125.056 10.1729V7.02093C125.056 6.7903 124.954 6.73905 124.725 6.73905C124.266 6.73905 121.844 6.7903 119.371 6.7903C117.459 6.7903 115.878 6.76468 115.011 6.76468H113.864C113.66 6.76468 113.609 6.81593 113.609 7.02093V9.96785C113.685 10.0191 113.762 10.0447 113.864 10.0191C113.966 10.0191 114.093 10.0191 114.195 9.99348C114.884 8.58408 115.521 7.84094 116.337 7.40531C116.796 7.35406 117.714 7.35406 117.943 7.35406C117.969 7.53344 117.969 8.07157 117.994 8.71221C118.02 9.8141 118.02 10.301 118.02 12.9404C118.02 15.2211 117.994 16.2461 117.969 16.4767C117.918 16.9123 117.994 17.2455 116.133 17.3223C116.082 17.4248 116.082 17.553 116.082 17.6811C116.082 17.758 116.082 17.8348 116.107 17.9373H116.694C117.255 17.9373 118.606 17.8861 119.167 17.8861C119.6 17.8861 121.054 17.9373 121.971 17.9373H122.405C122.456 17.8348 122.456 17.7323 122.456 17.6042C122.456 17.5017 122.43 17.3992 122.405 17.3223C121.869 17.3736 121.309 17.2711 120.824 17.0405C120.722 16.6561 120.671 16.2717 120.697 15.8873C120.671 14.2217 120.671 13.581 120.671 12.4791C120.671 11.0441 120.697 10.0704 120.697 7.40531C120.901 7.40531 121.411 7.37969 121.869 7.40531C122.609 7.55906 123.246 7.96907 123.705 8.58408C124.037 9.12221 124.317 9.68597 124.521 10.2754C124.597 10.301 124.699 10.301 124.776 10.301C124.852 10.2241 124.954 10.1985 125.056 10.1729ZM111.799 15.1954C111.799 15.0417 111.799 14.8879 111.773 14.7598C111.697 14.7085 111.62 14.7085 111.544 14.7085C111.442 14.7085 111.314 14.7085 111.212 14.7342C110.855 15.6567 110.269 16.4511 109.529 17.0917C109.173 17.2455 108.765 17.2967 108.382 17.2711H107.133C106.801 17.2711 106.445 17.2455 106.113 17.1942C105.884 17.143 105.629 16.7842 105.527 16.5279C105.374 16.2204 105.323 15.8873 105.348 15.5542V12.1716H105.909C106.241 12.1716 106.546 12.2485 106.852 12.3766C107.158 12.5048 107.388 12.7354 107.541 13.0173C107.668 13.4273 107.77 13.8629 107.796 14.2985C107.923 14.3498 108.051 14.3754 108.204 14.3498C108.306 14.3498 108.408 14.3242 108.51 14.2729C108.51 13.8629 108.408 12.7354 108.408 12.1204C108.408 11.3516 108.51 10.2754 108.561 9.73722C108.459 9.68597 108.357 9.66035 108.255 9.68597C108.127 9.68597 107.974 9.68597 107.847 9.73722C107.796 9.94222 107.643 10.6085 107.592 10.6597C107.362 11.0441 106.98 11.326 106.546 11.4541C106.266 11.531 105.96 11.5566 105.654 11.5822H105.348V10.1472C105.348 8.66095 105.374 8.17407 105.399 7.89219C105.425 7.71282 105.45 7.50781 105.45 7.35406C105.756 7.32844 106.062 7.30281 106.368 7.32844C107.26 7.32844 107.668 7.35406 107.821 7.35406C108.178 7.35406 108.51 7.45656 108.816 7.66157C109.428 8.1997 109.912 8.84033 110.294 9.58347C110.396 9.6091 110.498 9.60909 110.626 9.60909C110.728 9.60909 110.728 9.58347 110.855 9.50659C110.855 8.55845 110.804 7.35406 110.753 6.94405C110.728 6.7903 110.702 6.73905 110.396 6.73905C110.269 6.73905 109.682 6.71343 109.071 6.71343C108.204 6.71343 107.847 6.73905 106.495 6.73905C105.782 6.73905 104.277 6.76468 103.64 6.76468C102.722 6.76468 101.932 6.73905 101.524 6.73905H101.014C100.963 6.81593 100.937 6.8928 100.937 6.99531C100.937 7.09781 100.963 7.20031 101.014 7.30281C101.396 7.32844 101.779 7.37969 102.136 7.48219C102.467 7.71282 102.671 8.07157 102.697 8.48158C102.722 8.81471 102.748 9.7116 102.748 10.4035V13.581C102.748 14.2217 102.722 15.1698 102.722 15.5542C102.697 16.0667 102.569 16.5536 102.391 17.0148C101.957 17.1686 101.473 17.2455 101.014 17.2455C100.963 17.348 100.937 17.4761 100.937 17.5786C100.937 17.6811 100.963 17.7836 101.014 17.8605H101.524C102.008 17.8605 103.844 17.8092 104.252 17.8092C104.634 17.8092 105.374 17.8348 106.266 17.8348C106.75 17.8348 108.204 17.9373 111.314 17.9373C111.442 17.9373 111.595 17.9373 111.722 17.9117C111.773 17.8348 111.799 17.758 111.773 17.6555C111.799 17.348 111.799 16.4511 111.799 15.1954ZM98.7703 15.7336C98.6938 15.5029 98.4898 15.3492 98.2349 15.3748C98.2094 15.3748 98.1584 15.4004 98.1329 15.4004C97.215 16.7073 96.1952 17.2198 95.0479 17.2198C93.6966 17.2198 92.4728 16.4254 91.9374 15.1698C91.6315 14.2729 91.453 13.3248 91.453 12.351C91.4275 11.4285 91.5805 10.506 91.9119 9.63472C92.6003 7.84094 93.5691 7.27718 94.7674 7.27718C95.7618 7.32844 96.6796 7.84094 97.2405 8.66096C97.5975 9.25034 97.8524 9.86535 98.0309 10.5316C98.1329 10.5572 98.2604 10.5829 98.3624 10.5829C98.4898 10.5829 98.6173 10.5316 98.7193 10.4547C98.6938 10.2754 98.5408 9.09659 98.5408 8.71221C98.5408 8.25095 98.6683 7.48219 98.6683 7.20031C98.4898 7.09781 98.2859 7.04656 98.0819 7.02093C97.8779 7.20031 97.6995 7.43094 97.5465 7.66157C96.5776 6.8928 95.3539 6.50842 94.1301 6.55967C92.6768 6.50842 91.3 7.07218 90.2802 8.0972C89.1584 9.25034 88.572 10.8391 88.623 12.4535C88.572 14.2473 89.3878 15.9642 90.7901 17.0661C91.8609 17.7836 93.1102 18.1423 94.385 18.0911C96.2717 18.0911 97.623 17.3736 98.3114 16.4254C98.5153 16.2204 98.6683 15.9898 98.7703 15.7336ZM86.8128 6.8928C86.8128 6.81593 86.7873 6.73905 86.7618 6.6878H86.4048C85.64 6.6878 85.1555 6.71343 83.7533 6.71343C83.2689 6.71343 82.5805 6.6878 82.402 6.6878H81.9941C81.9431 6.71343 81.9431 6.8928 81.9431 6.94405C81.9431 7.04656 81.9686 7.12343 82.0196 7.20031C82.555 7.27718 83.0904 7.43094 83.6003 7.63594C83.8808 8.12282 84.0337 8.66096 84.0337 9.22471C84.0592 9.45534 84.0592 9.68597 84.0592 10.3266V13.5554C84.0592 13.786 84.0592 13.991 84.0337 14.2217C83.7788 13.9398 83.3963 13.376 82.7844 12.6841L77.6598 6.96968C77.5833 6.8928 77.5068 6.81593 77.4303 6.76468C77.3029 6.76468 77.0989 6.73905 76.9714 6.73905C75.9771 6.73905 74.1924 6.6878 73.9374 6.6878C73.9119 6.76468 73.8864 6.81593 73.8864 6.8928C73.8864 6.99531 73.9119 7.09781 73.9374 7.20031C74.3708 7.27718 74.7788 7.48219 75.0847 7.78969C75.3907 8.07157 75.6711 8.4047 75.9006 8.76346C75.9516 8.91721 75.9771 9.09659 75.9516 9.25034C75.9516 10.0447 75.9006 11.1722 75.9006 12.2741V15.4261C75.9006 15.8104 75.8751 16.2204 75.7986 16.6048C75.3397 17.0148 74.7788 17.2967 74.1924 17.3992C74.1669 17.5017 74.1414 17.5786 74.1414 17.6811C74.1414 17.7323 74.1669 17.8861 74.1924 17.8861H74.4728C74.7788 17.8861 75.4927 17.8348 75.9516 17.8348C76.64 17.8348 77.0989 17.8861 77.7108 17.8861H78.6286C78.6796 17.8605 78.7051 17.6811 78.7051 17.6298C78.7051 17.553 78.6796 17.4505 78.6541 17.3736C77.9403 17.2967 77.3029 16.938 76.8184 16.4254C76.691 15.7848 76.6145 15.1442 76.6145 14.5035C76.6145 14.0167 76.589 13.3248 76.589 12.4279C76.589 11.1979 76.6145 10.1472 76.6145 9.60909C76.7165 9.7116 76.8184 9.86535 76.8949 9.94222L83.9827 17.963C84.1102 18.0398 84.2632 18.0655 84.4162 18.0655C84.4672 18.0655 84.5437 18.0655 84.5946 18.0398C84.6966 17.8092 84.7221 17.5786 84.7221 17.348C84.7221 16.9123 84.6966 16.4254 84.6966 16.1948V9.73722C84.6966 7.81532 85.6145 7.25156 86.6598 7.22593C86.7873 7.09781 86.8128 6.99531 86.8128 6.8928ZM71.5918 17.6042C71.5918 17.5017 71.5663 17.3992 71.5408 17.2967C71.1584 17.2711 70.7759 17.2198 70.3935 17.1686C70.1131 16.8355 69.9346 16.4254 69.8581 15.9898C69.8326 15.2467 69.8326 13.7092 69.8326 12.2741V8.48158C69.8071 8.17407 69.9091 7.89219 70.1131 7.63594C70.521 7.37969 71.0054 7.25156 71.4898 7.22593C71.5153 7.12343 71.5408 7.02093 71.5408 6.94405C71.5408 6.86718 71.5153 6.76468 71.4643 6.6878H71.0309C70.3935 6.6878 68.8893 6.76468 68.3539 6.76468C68.0224 6.76468 66.5182 6.71343 65.8553 6.71343H65.5238C65.4728 6.7903 65.4473 6.8928 65.4473 6.96968C65.4473 7.07218 65.4473 7.17468 65.4728 7.25156C65.8808 7.25156 66.2887 7.32844 66.6711 7.48219C67.0281 7.81532 67.2065 8.3022 67.181 8.78908C67.2065 9.07096 67.2065 9.7116 67.232 11.1466C67.2575 11.9154 67.2575 12.9916 67.2575 13.8885C67.2575 14.3242 67.232 15.3492 67.2065 15.8873C67.181 16.1948 67.1301 16.5279 67.0026 16.8098C66.8241 16.9636 66.6201 17.2455 65.4983 17.3223C65.4728 17.4248 65.4473 17.5273 65.4473 17.6555C65.4473 17.7836 65.4728 17.8348 65.4728 17.9117H65.7278C66.3397 17.9117 67.8694 17.8348 68.6853 17.8348C68.9148 17.8348 70.521 17.8861 71.0309 17.8861H71.5408C71.5663 17.7836 71.5918 17.7067 71.5918 17.6042ZM59.2519 9.55784C59.2519 10.506 58.6145 11.6079 57.8496 11.7873C57.4417 11.8898 57.0082 11.9154 56.5748 11.9154C56.3963 11.9154 56.1924 11.9154 56.0139 11.8898L55.9884 10.5829V7.71282C55.9884 7.58469 56.0139 7.48219 56.0904 7.37969C56.2944 7.30281 56.5238 7.27718 56.7278 7.27718C57.9261 7.27718 58.4615 7.37969 58.8694 8.12282C59.1499 8.55845 59.2774 9.04534 59.2519 9.55784ZM63.7136 17.6298C63.7136 17.5273 63.6881 17.3992 63.6371 17.2967C63.2802 17.2967 62.9488 17.2455 62.6173 17.0917C62.5153 16.9636 62.4388 16.8355 62.3624 16.7073C62.1839 16.0923 61.9544 15.5029 61.6995 14.9392C61.4445 14.2473 61.0621 13.6323 60.5522 13.0941C60.1952 12.8635 59.8128 12.7098 59.4048 12.5816C59.1499 12.4791 58.9714 12.4023 58.7674 12.3254C58.9714 12.2741 59.1754 12.2485 59.4048 12.2229C60.5522 12.0691 60.8071 11.8898 61.0876 11.6591C61.6995 11.1722 62.0564 10.4291 62.0309 9.66035C62.0564 8.4047 61.266 7.27718 60.1187 6.84155C59.5068 6.71343 58.8949 6.66218 58.283 6.66218C57.1357 6.66218 55.504 6.76468 54.7391 6.76468C54.5097 6.76468 53.1584 6.73905 52.623 6.73905C52.3935 6.73905 51.8071 6.71343 51.7051 6.71343C51.6541 6.81593 51.6286 6.8928 51.6286 6.99531C51.6286 7.09781 51.6286 7.17468 51.6541 7.27718C51.9091 7.30281 52.3935 7.37969 52.6485 7.40531C52.9289 7.61031 53.1584 7.91782 53.2859 8.25095C53.3878 9.55784 53.4133 10.8904 53.3878 12.1973C53.3878 13.786 53.4133 15.6054 53.3369 16.1948C53.3369 16.6305 53.0819 17.0148 52.6995 17.2198C52.419 17.2711 52.1131 17.2967 51.8326 17.3223C51.7816 17.4248 51.7561 17.5273 51.7561 17.6298C51.7561 17.7067 51.7816 17.8092 51.8071 17.8861C52.0366 17.8861 54.3822 17.8348 54.8666 17.8348C55.8609 17.8348 56.6768 17.8861 57.5691 17.8861C57.5946 17.8092 57.6201 17.7323 57.6201 17.6555C57.6201 17.553 57.5946 17.4248 57.5691 17.3223C57.2632 17.2967 56.8808 17.1942 56.7023 17.1686C56.2689 16.9636 56.0139 16.528 56.0394 16.0667L56.0139 12.5048C56.1414 12.4791 56.2689 12.4791 56.4218 12.4791C56.7023 12.4791 56.9827 12.5816 57.2377 12.7354C57.7476 12.9916 58.1556 13.376 58.4615 13.8629C58.9969 14.9135 59.3029 16.0154 59.4303 17.1942C59.4813 17.5273 59.6088 17.8092 59.8893 17.8348C60.0167 17.8605 60.8326 17.8861 61.419 17.8861H63.6116C63.6881 17.8092 63.7136 17.7323 63.7136 17.6298ZM47.0139 9.63472C47.0394 10.3522 46.759 11.0697 46.2235 11.5566C45.7646 11.8641 45.1782 12.0179 44.6173 11.9666C44.3878 11.9666 44.1839 11.9666 43.9544 11.941C43.8269 11.9154 43.7505 11.9154 43.7505 11.8385L43.7759 7.30281C44.0819 7.25156 44.3624 7.22593 44.6683 7.22593C45.7136 7.22593 46.351 7.48219 46.657 8.14845C46.9119 8.6097 47.0139 9.09659 47.0139 9.63472ZM49.7675 9.68597C49.7929 8.55845 49.1301 7.50781 48.1102 6.99531C47.2179 6.71343 46.3 6.5853 45.3567 6.63655C44.1839 6.63655 42.3227 6.73905 41.5068 6.73905C40.9459 6.73905 40.0791 6.6878 39.5946 6.6878C39.5437 6.76468 39.5182 6.84155 39.5182 6.94405C39.5182 7.04656 39.5182 7.14906 39.5692 7.25156C39.8496 7.35406 40.334 7.43094 40.64 7.50781C40.8949 7.73844 41.0224 8.04595 41.0479 8.37908C41.0989 8.91721 41.1244 9.60909 41.1244 10.7879C41.1244 14.0423 41.0989 15.7592 41.0734 16.1436C41.0224 16.6561 40.6655 17.0661 40.2065 17.2455C39.9006 17.3223 39.6201 17.3736 39.3142 17.3992C39.2887 17.5017 39.2887 17.6042 39.2887 17.7323C39.2887 17.8092 39.2887 17.8861 39.3397 17.963C39.8241 17.963 41.2774 17.9117 41.8383 17.9117C43.215 17.9117 44.6173 17.963 45.1782 17.963H45.5607C45.6116 17.8861 45.6116 17.8092 45.6116 17.7067C45.6116 17.6042 45.6116 17.5273 45.5861 17.4248C45.0762 17.4248 44.5663 17.2455 44.1329 16.938C43.9289 16.6817 43.8014 16.3486 43.8269 16.0154L43.7759 12.6073C44.6938 12.6585 45.6881 12.7098 46.2235 12.7098C46.8354 12.7098 47.4218 12.6073 48.0082 12.4279C49.0791 11.941 49.7929 10.8647 49.7675 9.68597Z" fill="#70879C"/>
<path d="M153.663 24.1391C153.663 24.0366 153.612 24.011 153.561 23.9597C152.923 23.9597 152.108 24.011 151.776 24.011C150.986 24.011 150.042 23.9597 149.635 23.9597C149.584 24.0622 149.584 24.0622 149.584 24.1391C149.584 24.1903 149.584 24.2672 149.609 24.3185C150.042 24.421 150.705 24.5235 150.833 24.7285C150.935 24.9079 150.986 25.1129 150.96 25.3179C150.96 25.5229 150.935 25.7022 150.858 25.8816C150.731 26.266 150.425 26.881 150.017 27.7266C149.303 29.1617 148.87 30.0586 148.615 30.4173C148.207 29.7511 147.314 27.9573 147.11 27.4704L146.244 25.5741C146.193 25.446 146.193 25.2922 146.193 25.1641C146.193 25.036 146.193 24.8822 146.244 24.7541C146.371 24.4722 146.855 24.4466 147.518 24.3697C147.544 24.2928 147.569 24.216 147.569 24.1391C147.569 24.0366 147.518 24.0622 147.467 23.9853H147.187C146.167 23.9853 146.473 24.0366 144.688 24.0366C143.949 24.0366 143.031 23.9853 142.904 23.9853C142.853 24.0878 142.802 24.1135 142.802 24.216C142.802 24.2928 142.827 24.3441 142.853 24.3953C143.872 24.6516 144.178 24.831 144.306 25.036L147.008 30.3404C147.212 30.6992 147.365 31.1092 147.493 31.4936C147.595 32.1086 147.646 32.7236 147.62 33.3386C147.671 33.7999 147.493 34.2611 147.136 34.543C146.728 34.6455 146.32 34.7224 145.912 34.748C145.861 34.7993 145.836 34.8761 145.836 34.953C145.836 35.0043 145.861 35.0811 145.887 35.1324C146.677 35.1324 147.493 35.1068 147.952 35.1068C148.283 35.1068 148.768 35.1324 149.686 35.1324C150.221 35.158 150.603 35.158 150.884 35.158C150.935 35.1068 150.96 35.0299 150.96 34.953C150.96 34.8761 150.935 34.7993 150.909 34.748C150.45 34.7224 149.991 34.6199 149.584 34.4405C149.303 34.1842 149.15 33.8255 149.176 33.4411L149.048 31.1092C149.048 30.9811 149.074 30.8529 149.099 30.7504C149.15 30.5967 149.201 30.4429 149.278 30.3148L151.649 25.5997C151.904 25.1897 152.235 24.831 152.643 24.5747C152.974 24.421 153.306 24.3185 153.637 24.2672C153.637 24.2928 153.663 24.216 153.663 24.1391ZM141.246 27.3423V24.3441C141.246 24.1135 141.144 24.0622 140.915 24.0622C140.456 24.0622 138.34 24.1135 135.867 24.1135C133.955 24.1135 132.68 24.0878 131.813 24.0878H130.666C130.462 24.0878 130.411 24.1391 130.411 24.3441V27.1373C130.462 27.1885 130.538 27.1885 130.589 27.1885C130.64 27.1885 130.717 27.1885 130.768 27.1629C131.354 25.8304 131.686 25.1129 132.705 24.5747C133.164 24.5235 134.77 24.5235 135.025 24.5235C135.051 24.7029 135.051 25.241 135.076 25.8816C135.102 26.9835 135.102 27.5985 135.102 30.2379C135.102 32.5186 135.076 33.6717 135.051 33.928C135 34.3636 135.076 34.6968 133.215 34.7736C133.164 34.8505 133.164 34.953 133.164 35.0299C133.164 35.0811 133.164 35.158 133.19 35.2093H133.776C134.337 35.2093 135.102 35.158 135.663 35.158C136.096 35.158 136.963 35.2093 137.881 35.2093H138.314C138.34 35.1324 138.365 35.0555 138.365 34.9786C138.365 34.9018 138.34 34.8249 138.314 34.748C137.779 34.7993 137.218 34.6968 136.734 34.4661C136.632 34.0817 136.581 33.6974 136.606 33.313C136.581 31.6473 136.581 30.8529 136.581 29.7511C136.581 28.316 136.606 27.2141 136.606 24.5491C136.81 24.5491 137.957 24.5235 138.416 24.5491C139.13 24.7029 139.742 25.1129 140.15 25.7279C140.482 26.2404 140.711 26.8041 140.838 27.4191C140.915 27.4448 140.991 27.4448 141.068 27.4448C141.119 27.3935 141.195 27.3679 141.246 27.3423ZM128.448 34.9786C128.448 34.9018 128.422 34.8249 128.397 34.7736C128.167 34.748 127.53 34.6968 127.249 34.6455C126.969 34.3124 126.79 33.9024 126.714 33.4667C126.688 32.7236 126.688 31.0323 126.688 29.5973V25.6766C126.688 25.3691 126.765 25.0872 126.969 24.831C127.377 24.5747 127.861 24.4466 128.346 24.421C128.371 24.3697 128.397 24.2928 128.397 24.216C128.397 24.1391 128.371 24.0878 128.32 24.0366H127.887C127.249 24.0366 126.306 24.1135 125.796 24.1135C125.465 24.1135 124.547 24.0622 123.884 24.0622H123.552C123.501 24.1135 123.476 24.1903 123.476 24.2672C123.476 24.3441 123.501 24.3953 123.501 24.4722C123.909 24.4722 124.317 24.5491 124.7 24.6772C125.057 25.0104 125.235 25.4972 125.21 25.9841C125.235 26.266 125.235 27.0604 125.261 28.4954C125.286 29.2642 125.286 30.3148 125.286 31.2117C125.286 31.673 125.261 32.8261 125.235 33.3642C125.21 33.6717 125.159 34.0049 125.031 34.2867C124.853 34.4405 124.649 34.7224 123.527 34.7993C123.501 34.8761 123.476 34.953 123.476 35.0299C123.476 35.158 123.501 35.158 123.501 35.2349H123.756C124.368 35.2349 125.337 35.158 126.127 35.158C126.357 35.158 127.377 35.2093 127.887 35.2093H128.397C128.422 35.1068 128.448 35.0555 128.448 34.9786ZM120.85 32.1342C120.875 30.9554 120.187 29.8792 119.116 29.4179C118.581 29.1617 117.994 28.931 117.408 28.8029C116.643 28.5979 115.878 28.316 115.19 27.9573C114.603 27.5985 114.246 26.9579 114.272 26.266C114.272 25.2666 115.266 24.4466 116.439 24.4466C117.28 24.4466 118.071 24.8566 118.555 25.5229C118.938 26.061 119.269 26.6504 119.499 27.291C119.55 27.3166 119.601 27.3166 119.652 27.3166C119.779 27.3166 119.906 27.2654 119.983 27.1629C119.906 26.7016 119.881 26.2404 119.855 25.7791C119.881 25.3691 119.906 24.9591 119.983 24.5747C119.881 24.421 119.702 24.3441 119.524 24.3697C119.295 24.5235 119.091 24.7285 118.912 24.9335C118.198 24.2928 117.255 23.9597 116.286 23.9853C114.399 23.9853 113.048 25.2666 113.048 26.9323C113.074 27.5473 113.252 28.1367 113.609 28.6235C113.991 29.136 114.501 29.5204 115.113 29.7511C115.547 29.9304 117.561 30.5454 117.841 30.6479C119.065 31.1348 119.524 31.5448 119.524 32.6467C119.499 33.2361 119.244 33.7999 118.836 34.2099C118.402 34.6968 117.79 34.9786 117.127 34.9274C116.133 34.9274 115.19 34.5174 114.552 33.7742C114.093 33.1336 113.736 32.4417 113.507 31.6986C113.431 31.673 113.354 31.673 113.303 31.673C113.201 31.673 113.099 31.6986 113.023 31.7755C113.023 31.9805 113.074 33.0055 113.074 33.313C113.074 33.7742 112.997 34.2355 112.895 34.6968C112.997 34.8761 113.176 35.0043 113.38 35.0043C113.609 34.7736 113.864 34.6199 114.144 34.5174C114.272 34.5174 114.399 34.5686 114.501 34.6455C115.266 35.158 116.159 35.4399 117.076 35.4143C119.295 35.3886 120.85 34.2867 120.85 32.1342ZM107.235 26.8041C107.21 27.8548 106.521 28.7773 105.552 29.1104C105.017 29.2129 104.482 29.2385 103.946 29.2385C103.64 29.2385 103.309 29.2385 103.003 29.2129L102.977 27.8548V24.9335C102.977 24.7285 103.028 24.626 103.079 24.5747C103.436 24.4979 103.793 24.4722 104.15 24.4722C105.603 24.4722 106.266 24.6004 106.776 25.3691C107.108 25.7791 107.261 26.2916 107.235 26.8041ZM110.473 34.9786C110.473 34.9018 110.448 34.8249 110.397 34.748C110.04 34.748 109.708 34.6968 109.377 34.543C109.275 34.4149 109.198 34.2867 109.122 34.1586C108.943 33.4924 108.714 32.8517 108.484 32.2367C108.229 31.5448 107.847 30.9298 107.337 30.3917C107.006 30.1611 106.623 30.0073 106.241 29.8792C105.986 29.7767 105.807 29.6998 105.603 29.6229C105.807 29.5717 106.011 29.5461 106.241 29.5204C106.827 29.4948 107.388 29.3154 107.872 28.9567C108.51 28.4954 108.892 27.7523 108.892 26.9579C108.918 25.7022 108.127 24.6004 106.98 24.1647C106.368 24.0366 105.756 23.9853 105.144 23.9853C103.997 23.9853 103.13 24.0878 102.365 24.0878C102.136 24.0878 101.371 24.0622 100.836 24.0622C100.606 24.0622 100.02 24.0366 99.9178 24.0366C99.8668 24.1391 99.8413 24.1903 99.8413 24.2416C99.8413 24.3185 99.8668 24.3953 99.8668 24.4466C100.122 24.4722 100.606 24.5491 100.861 24.5747C101.167 24.7797 101.371 25.0616 101.499 25.4204C101.575 25.9072 101.601 27.3166 101.601 29.4948C101.601 31.0836 101.626 33.0567 101.55 33.6461C101.55 34.0817 101.295 34.4918 100.912 34.6711C100.632 34.7224 100.326 34.748 100.045 34.7736C99.9943 34.8249 99.9688 34.9018 99.9688 34.9786C99.9688 35.0555 99.9943 35.1068 100.02 35.158C100.224 35.158 102.008 35.1068 102.493 35.1068C103.487 35.1068 103.717 35.158 104.609 35.158C104.635 35.1068 104.66 35.0555 104.66 34.9786C104.66 34.9018 104.635 34.8249 104.609 34.748C104.303 34.7224 103.921 34.6199 103.742 34.5943C103.334 34.3892 103.054 33.9536 103.079 33.4924L103.054 29.6229C103.181 29.5973 103.615 29.5973 103.742 29.5973C104.176 29.5717 104.584 29.6486 104.966 29.8279C105.578 30.0842 106.113 30.5198 106.47 31.0836C107.006 32.1342 107.312 33.2874 107.439 34.4405C107.49 34.7736 107.618 35.0555 107.898 35.0811C108.204 35.1324 108.484 35.1324 108.79 35.1324H110.397C110.448 35.1324 110.473 35.0555 110.473 34.9786ZM97.5722 32.6467C97.5722 32.493 97.5722 32.3392 97.5467 32.2111C97.4702 32.1598 97.3937 32.1598 97.3172 32.1598C97.2407 32.1598 97.1897 32.1598 97.1132 32.1855C96.8838 33.1336 96.3229 33.9792 95.5325 34.543C95.1246 34.6968 94.6657 34.748 94.2322 34.7224H92.4985C92.1671 34.7224 91.8101 34.6968 91.4787 34.6455C91.2492 34.5943 90.9943 34.2355 90.8923 33.9792C90.7393 33.6461 90.6883 33.2874 90.7138 32.903V29.3667H91.1982C91.6317 29.341 92.0906 29.4179 92.4985 29.5973C92.83 29.7254 93.1104 29.9561 93.3399 30.2636C93.4674 30.6736 93.5438 31.1092 93.5438 31.5448C93.6203 31.5961 93.6968 31.6217 93.7988 31.5961C93.8753 31.5961 93.9773 31.5705 94.0538 31.5192C94.0538 31.1092 93.9518 29.9817 93.9518 29.3667C93.9518 28.5979 94.0538 27.6498 94.1048 27.086C94.0283 27.0348 93.9518 27.0091 93.8498 27.0348C93.7733 27.0348 93.6713 27.0348 93.5948 27.086C93.5438 27.3166 93.4164 27.9573 93.3909 28.0085C93.0849 28.3929 92.677 28.7004 92.2181 28.8285C91.8101 28.931 91.3767 28.9567 90.9433 28.9567H90.6883V27.4448C90.6883 25.9585 90.7138 25.3691 90.7393 25.0872C90.7648 24.9079 90.7903 24.7029 90.7903 24.5491C90.9178 24.5235 91.3767 24.5235 92.0906 24.5235C92.9829 24.5235 93.6458 24.5491 93.7733 24.5491C94.1302 24.5491 94.4617 24.6516 94.7676 24.8566C95.405 25.3435 95.8895 26.0097 96.1444 26.7785C96.1954 26.8041 96.2719 26.8041 96.3229 26.8041C96.4249 26.8041 96.4249 26.7785 96.5523 26.7016C96.5523 25.7535 96.5014 24.7029 96.4504 24.2928C96.4249 24.1391 96.3994 24.0878 96.0934 24.0878C95.9659 24.0878 95.3795 24.0622 94.7676 24.0622C93.9008 24.0622 93.5438 24.0878 92.1926 24.0878C91.4787 24.0878 90.2039 24.1135 89.5665 24.1135C88.6487 24.1135 88.4447 24.0878 88.0368 24.0878H87.5014C87.4504 24.1391 87.4249 24.1903 87.4249 24.2672C87.4249 24.3441 87.4504 24.421 87.5014 24.4978C87.8838 24.5235 88.2662 24.5747 88.6232 24.6772C88.8271 24.8566 89.0311 24.9079 89.1841 25.651C89.2096 25.9841 89.2351 27.0348 89.2351 27.7266V30.9042C89.2351 31.5448 89.2096 32.6211 89.2096 33.0055C89.1841 33.518 89.0566 34.0305 88.8781 34.5174C88.4192 34.6711 87.9603 34.748 87.4759 34.748C87.4249 34.8249 87.3994 34.9018 87.3994 35.0043C87.3994 35.0811 87.4249 35.158 87.4759 35.2093H87.9858C88.4702 35.2093 89.7195 35.158 90.1274 35.158C90.5098 35.158 91.0453 35.1836 91.9376 35.1836C92.422 35.1836 93.8753 35.2861 96.9858 35.2861C97.1132 35.2861 97.2662 35.2861 97.3937 35.2605C97.4447 35.1836 97.4702 35.1068 97.4447 35.0043C97.5722 34.6455 97.5722 33.8767 97.5722 32.6467ZM86.1756 24.1903C86.1756 24.1391 86.1501 24.0366 86.0991 24.011H85.5637C85.2067 24.011 84.6203 24.0366 84.3399 24.0366C83.0906 24.0366 82.6572 23.9597 82.4532 23.9597H82.1727C82.1472 24.0366 82.0962 24.0878 82.0962 24.1647C82.0962 24.216 82.1217 24.2672 82.1217 24.3441C82.4787 24.3953 82.8356 24.4722 83.1926 24.5747C83.4475 24.831 83.575 25.1897 83.575 25.5485C83.4985 26.0354 83.3965 26.4966 83.1926 26.9579L80.7195 33.0824L77.6855 25.3435C77.711 24.9847 77.8895 24.6772 78.1954 24.4722C78.5268 24.3953 78.8583 24.3697 79.1897 24.3441C79.2152 24.2672 79.2407 24.216 79.2407 24.1391C79.2407 24.0878 79.2152 23.9853 79.1642 23.9597H78.7818C78.3229 23.9597 77.5835 24.011 76.7676 24.011C76.4107 24.011 75.7223 23.9853 75.0339 23.9853H74.4985C74.473 24.0366 74.4475 24.1135 74.4475 24.1647C74.4475 24.2416 74.4475 24.2928 74.4985 24.3441C74.9574 24.4722 75.3909 24.6516 75.7988 24.8822C76.2832 25.8047 76.6912 26.7273 77.0736 27.701L78.3484 30.8017C79.3937 33.3642 80.0311 35.0811 80.1076 35.3886C80.1841 35.4399 80.1076 35.4911 80.2351 35.4911C80.3625 35.4911 80.3625 35.4655 80.388 35.3886L84.3654 25.8047C84.4928 25.4716 84.6968 25.1897 84.9263 24.9335C85.2832 24.6516 85.7166 24.4979 86.1501 24.4466C86.1501 24.3441 86.1756 24.2672 86.1756 24.1903ZM72.7138 34.9786C72.7138 34.9018 72.6883 34.8249 72.6628 34.7736C72.4334 34.748 71.796 34.6968 71.5155 34.6455C71.2351 34.3124 71.0566 33.9024 70.9801 33.4667C70.9546 32.7236 70.9546 31.0323 70.9546 29.5973V25.6766C70.9291 25.3691 71.0311 25.0872 71.2351 24.831C71.643 24.5747 72.1274 24.421 72.6118 24.421C72.6373 24.3697 72.6628 24.2928 72.6628 24.216C72.6628 24.1391 72.6373 24.0878 72.5863 24.0366H72.1529C71.5155 24.0366 70.5722 24.1135 70.0623 24.1135C69.7308 24.1135 68.813 24.0622 68.1501 24.0622H67.8186C67.7676 24.1135 67.7421 24.1903 67.7421 24.2672C67.7421 24.3441 67.7676 24.3953 67.7676 24.4722C68.1756 24.4722 68.5835 24.5491 68.9659 24.6772C69.3229 25.0104 69.5013 25.4972 69.4758 25.9841C69.5013 26.266 69.5013 27.0604 69.5268 28.4954C69.5523 29.2642 69.5523 30.3148 69.5523 31.2117C69.5523 31.673 69.5268 32.8261 69.5013 33.3642C69.4758 33.6717 69.4249 34.0049 69.2974 34.2867C69.1189 34.4405 68.9404 34.7224 67.8186 34.7993C67.7931 34.8761 67.7676 34.953 67.7676 35.0299C67.7676 35.158 67.7931 35.158 67.7931 35.2349H68.0481C68.66 35.2349 69.6288 35.158 70.4192 35.158C70.6487 35.158 71.6685 35.2093 72.1784 35.2093H72.6883C72.6883 35.1068 72.7138 35.0555 72.7138 34.9786ZM65.7535 24.1647C65.7535 24.1135 65.728 24.0622 65.7025 24.011H65.3455C64.5807 24.011 64.2492 24.0366 62.8469 24.0366C62.3625 24.0366 61.6741 24.011 61.4957 24.011H61.0877C61.0367 24.0366 61.0367 24.1391 61.0367 24.216C61.0367 24.2928 61.0622 24.3441 61.1132 24.3953C61.6486 24.4722 62.1841 24.626 62.694 24.831C62.9744 25.3179 63.1274 25.856 63.1274 26.4198C63.1529 26.6504 63.1529 26.881 63.1529 27.5216V32.1086C63.1529 32.3392 63.1529 32.5442 63.1274 32.7748C62.8724 32.493 62.4135 31.9036 61.8271 31.1861L55.9631 24.2928C55.8866 24.216 55.8101 24.1391 55.7336 24.0878C55.6062 24.0878 55.4532 24.0622 55.3257 24.0622C54.3314 24.0622 53.49 24.011 53.2096 24.011C53.1841 24.0622 53.1586 24.1135 53.1586 24.1647C53.1586 24.2416 53.1841 24.2928 53.1841 24.3697C53.6175 24.421 54.0254 24.5747 54.3824 24.8054C54.6628 25.0872 54.9178 25.3691 55.1217 25.7279C55.1727 25.8816 55.1982 26.061 55.1727 26.2148C55.1727 27.0091 55.1217 28.4954 55.1217 29.5717V32.8774C55.1217 33.2617 55.0962 33.6717 55.0197 34.0561C54.5608 34.4661 53.9999 34.748 53.4135 34.8505C53.388 34.9018 53.3625 34.9786 53.3625 35.0299C53.3625 35.0811 53.388 35.158 53.4135 35.1836H53.694C53.9999 35.1836 54.7138 35.1324 55.1727 35.1324C55.8356 35.1324 56.1671 35.1836 56.779 35.1836H57.6968C57.7478 35.158 57.7733 35.0555 57.7733 34.9786C57.7733 34.9274 57.7478 34.8761 57.7223 34.8249C57.0084 34.748 56.3455 34.3892 55.8866 33.8767C55.7591 33.2361 55.6826 32.5955 55.6826 31.9292C55.6826 31.4423 55.6571 30.6223 55.6571 29.7254C55.6571 28.4954 55.6826 26.8298 55.6826 26.266C55.7846 26.3685 55.9121 26.5479 56.0141 26.676L63.3059 35.2605C63.3569 35.3118 63.4079 35.363 63.4843 35.363C63.5608 35.363 63.5098 35.363 63.5863 35.3374C63.6373 35.1068 63.6628 34.8761 63.6628 34.6455C63.6628 34.2099 63.6373 33.723 63.6373 33.4924V26.9323C63.6373 25.0104 64.5552 24.4466 65.6005 24.421C65.728 24.3185 65.7535 24.2416 65.7535 24.1647ZM51.5013 24.2416C51.5013 24.1647 51.4758 24.0878 51.4248 24.0366H50.9914C50.507 24.0366 49.8696 24.0622 49.3087 24.0622C48.6968 24.0622 48.0084 24.0366 47.5495 24.0366H46.9886C46.9376 24.0878 46.9376 24.1647 46.9376 24.2416C46.9376 24.3185 46.9631 24.3697 46.9886 24.4466C47.0396 24.4466 48.1614 24.4722 48.3654 24.7285C48.6203 25.0616 48.8243 25.4716 48.9518 25.8816C49.0282 26.4454 49.0792 27.0091 49.0792 27.5729C49.0792 28.8798 49.0792 29.7767 49.0537 30.2379C49.0537 30.9298 48.9518 31.6217 48.7733 32.288C48.3399 33.6205 47.3455 34.2867 45.7648 34.2867C45.1529 34.2867 44.5155 34.1586 43.9546 33.9024C43.1642 33.5436 42.6033 32.8261 42.4758 31.9548L42.3993 27.3166V25.4204C42.3993 25.0616 42.8328 24.7285 42.9857 24.5491C43.3682 24.4722 43.7761 24.421 44.1586 24.3953C44.2095 24.3441 44.235 24.2672 44.235 24.1903C44.235 24.1135 44.1841 24.0366 44.1331 23.9853L43.5467 24.011C42.9857 24.0366 42.2209 24.0366 41.7365 24.0366C40.9971 24.0366 40.4362 24.011 39.9772 24.011H39.3399C39.2889 24.0622 39.2634 24.1391 39.2634 24.216C39.2634 24.2928 39.2889 24.3441 39.3144 24.3953C39.7988 24.4466 40.1302 24.4979 40.3342 24.5491C40.5891 24.7029 40.7676 24.9591 40.8696 25.241C40.8951 25.446 40.9206 25.9329 40.9206 26.9066V30.6223C40.8951 31.3142 40.9461 32.0061 41.0736 32.698C41.252 33.4924 41.7365 34.1586 42.3993 34.5943C43.2407 35.1068 44.235 35.363 45.2039 35.3374C46.1217 35.363 47.0396 35.1324 47.8554 34.6968C48.6203 34.2611 49.1812 33.518 49.3852 32.6467C49.5382 32.0573 49.6401 31.4167 49.6401 30.8017V27.8291C49.6401 27.2654 49.6656 26.5735 49.6656 26.2916C49.6656 25.7022 49.8186 25.1129 50.1246 24.6004C50.5325 24.4722 50.9659 24.421 51.3994 24.3953C51.4758 24.3697 51.5013 24.3185 51.5013 24.2416Z" fill="#70879C"/>
</g>
<defs>
<clipPath id="clip0_8177_4457">
<rect width="153" height="42" fill="white" transform="translate(0.66272)"/>
</clipPath>
</defs>
</svg>
