<svg width="379" height="350" viewBox="0 0 379 350" fill="none" xmlns="http://www.w3.org/2000/svg">
<g id="Reliability_and_stability" clip-path="url(#clip0_10333_2618)">
<g id="Group 1144025">
<g id="Group 1144013" style="mix-blend-mode:screen">
<g id="Group 112763" opacity="0.6">
<path id="Ellipse 2582" opacity="0.4" d="M186.418 362.028C85.0309 360.092 4.43938 274.795 6.41197 171.513C8.38456 68.2307 92.1743 -13.9264 193.562 -11.99C294.949 -10.0536 375.54 75.243 373.568 178.525C371.595 281.808 287.805 363.965 186.418 362.028Z" fill="url(#paint0_linear_10333_2618)"/>
<ellipse id="Ellipse 2578" opacity="0.7" cx="188.486" cy="174.149" rx="158.135" ry="155.234" transform="rotate(93.4618 188.486 174.149)" fill="url(#paint1_linear_10333_2618)"/>
<circle id="Ellipse 2581" cx="189.164" cy="173.731" r="125.316" transform="rotate(93.4618 189.164 173.731)" fill="url(#paint2_linear_10333_2618)"/>
</g>
</g>
</g>
<g id="Group 1143997">
<g id="Frame 1142970" filter="url(#filter0_d_10333_2618)">
<g clip-path="url(#clip1_10333_2618)">
<g id="Rectangle 5" filter="url(#filter1_bd_10333_2618)">
<rect x="78" y="94" width="179.868" height="115.373" rx="4.70618" fill="url(#paint3_linear_10333_2618)"/>
<rect x="78.2941" y="94.2941" width="179.28" height="114.785" rx="4.41205" stroke="url(#paint4_linear_10333_2618)" stroke-opacity="0.2" stroke-width="0.588273"/>
</g>
<g id="Rectangle 8773" style="mix-blend-mode:overlay">
<rect x="78.0001" y="109.765" width="196.35" height="101.041" fill="#A2C6FF" fill-opacity="0.6"/>
</g>
<g id="Group 1143752">
<path id="Vector" d="M180.728 121.69H105.25C104.34 121.69 103.602 122.427 103.602 123.338C103.602 124.248 104.34 124.986 105.25 124.986H180.728C181.638 124.986 182.376 124.248 182.376 123.338C182.376 122.427 181.638 121.69 180.728 121.69Z" fill="#15C1E6"/>
<path id="Vector_2" d="M214.863 192.891H139.385C138.475 192.891 137.737 193.629 137.737 194.54C137.737 195.45 138.475 196.188 139.385 196.188H214.863C215.774 196.188 216.511 195.45 216.511 194.54C216.511 193.629 215.774 192.891 214.863 192.891Z" fill="#3D7FFC"/>
<path id="Vector_3" d="M90.7942 121.69H88.8389C87.9287 121.69 87.1907 122.427 87.1907 123.338C87.1907 124.248 87.9287 124.986 88.8389 124.986H90.7942C91.7044 124.986 92.4424 124.248 92.4424 123.338C92.4424 122.427 91.7044 121.69 90.7942 121.69Z" fill="white" fill-opacity="0.2"/>
<path id="Vector_4" d="M90.7941 192.891H88.8389C87.9286 192.891 87.1907 193.629 87.1907 194.54C87.1907 195.45 87.9286 196.188 88.8389 196.188H90.7941C91.7044 196.188 92.4423 195.45 92.4423 194.54C92.4423 193.629 91.7044 192.891 90.7941 192.891Z" fill="white" fill-opacity="0.2"/>
<path id="Vector_5" d="M198.39 129.114H132.462C131.67 129.114 131.029 129.755 131.029 130.547C131.029 131.338 131.67 131.98 132.462 131.98H198.39C199.181 131.98 199.823 131.338 199.823 130.547C199.823 129.755 199.181 129.114 198.39 129.114Z" fill="#3D7FFC"/>
<path id="Vector_6" d="M234.557 199.484H164.987C164.077 199.484 163.339 200.222 163.339 201.132C163.339 202.043 164.077 202.781 164.987 202.781H234.557C235.467 202.781 236.205 202.043 236.205 201.132C236.205 200.222 235.467 199.484 234.557 199.484Z" fill="#9D97F4"/>
<path id="Vector_7" d="M217.021 129.114H206.272C205.481 129.114 204.839 129.755 204.839 130.547C204.839 131.338 205.481 131.98 206.272 131.98H217.021C217.813 131.98 218.455 131.338 218.455 130.547C218.455 129.755 217.813 129.114 217.021 129.114Z" fill="#9D97F4"/>
<path id="Vector_8" d="M159.065 199.484H146.607C145.697 199.484 144.959 200.222 144.959 201.132C144.959 202.043 145.697 202.781 146.607 202.781H159.065C159.976 202.781 160.714 202.043 160.714 201.132C160.714 200.222 159.976 199.484 159.065 199.484Z" fill="#0B88CD"/>
<path id="Vector_9" d="M157.753 136.194H132.822C131.911 136.194 131.173 136.932 131.173 137.842C131.173 138.752 131.911 139.49 132.822 139.49H157.753C158.663 139.49 159.401 138.752 159.401 137.842C159.401 136.932 158.663 136.194 157.753 136.194Z" fill="#15C1E6"/>
<path id="Vector_10" d="M145.28 206.736H120.349C119.438 206.736 118.7 207.474 118.7 208.384C118.7 209.295 119.438 210.033 120.349 210.033H145.28C146.19 210.033 146.928 209.295 146.928 208.384C146.928 207.474 146.19 206.736 145.28 206.736Z" fill="#15C1E6"/>
<path id="Vector_11" d="M185.323 136.194H167.613C166.703 136.194 165.965 136.932 165.965 137.842C165.965 138.752 166.703 139.49 167.613 139.49H185.323C186.233 139.49 186.971 138.752 186.971 137.842C186.971 136.932 186.233 136.194 185.323 136.194Z" fill="#9D97F4"/>
<path id="Vector_12" d="M172.85 206.736H155.14C154.23 206.736 153.492 207.474 153.492 208.384C153.492 209.295 154.23 210.033 155.14 210.033H172.85C173.76 210.033 174.498 209.295 174.498 208.384C174.498 207.474 173.76 206.736 172.85 206.736Z" fill="#9D97F4"/>
<path id="Vector_13" d="M221.428 136.194H195.184C194.274 136.194 193.536 136.932 193.536 137.842C193.536 138.752 194.274 139.49 195.184 139.49H221.428C222.339 139.49 223.076 138.752 223.076 137.842C223.076 136.932 222.339 136.194 221.428 136.194Z" fill="#3D7FFC"/>
<path id="Vector_14" d="M208.299 206.736H182.055C181.144 206.736 180.406 207.474 180.406 208.384C180.406 209.295 181.144 210.033 182.055 210.033H208.299C209.209 210.033 209.947 209.295 209.947 208.384C209.947 207.474 209.209 206.736 208.299 206.736Z" fill="#9D97F4"/>
<path id="Vector_15" d="M213.55 143.446H159.735C158.825 143.446 158.087 144.184 158.087 145.094C158.087 146.004 158.825 146.742 159.735 146.742H213.55C214.461 146.742 215.199 146.004 215.199 145.094C215.199 144.184 214.461 143.446 213.55 143.446Z" fill="#3D7FFC"/>
<path id="Vector_16" d="M150.531 143.446H144.638C143.727 143.446 142.989 144.184 142.989 145.094C142.989 146.004 143.727 146.742 144.638 146.742H150.531C151.442 146.742 152.18 146.004 152.18 145.094C152.18 144.184 151.442 143.446 150.531 143.446Z" fill="#9D97F4"/>
<path id="Vector_17" d="M185.323 150.038H144.638C143.727 150.038 142.989 150.776 142.989 151.687C142.989 152.597 143.727 153.335 144.638 153.335H185.323C186.234 153.335 186.972 152.597 186.972 151.687C186.972 150.776 186.234 150.038 185.323 150.038Z" fill="#15C1E6"/>
<path id="Vector_18" d="M90.7941 128.942H88.8389C87.9286 128.942 87.1907 129.68 87.1907 130.59C87.1907 131.5 87.9286 132.238 88.8389 132.238H90.7941C91.7044 132.238 92.4423 131.5 92.4423 130.59C92.4423 129.68 91.7044 128.942 90.7941 128.942Z" fill="white" fill-opacity="0.2"/>
<path id="Vector_19" d="M90.7941 199.484H88.8389C87.9286 199.484 87.1907 200.222 87.1907 201.132C87.1907 202.043 87.9286 202.781 88.8389 202.781H90.7941C91.7044 202.781 92.4423 202.043 92.4423 201.132C92.4423 200.222 91.7044 199.484 90.7941 199.484Z" fill="white" fill-opacity="0.2"/>
<path id="Vector_20" d="M90.7941 136.194H88.8389C87.9286 136.194 87.1907 136.932 87.1907 137.842C87.1907 138.752 87.9286 139.49 88.8389 139.49H90.7941C91.7044 139.49 92.4423 138.752 92.4423 137.842C92.4423 136.932 91.7044 136.194 90.7941 136.194Z" fill="white" fill-opacity="0.2"/>
<path id="Vector_21" d="M90.7941 206.736H88.8389C87.9286 206.736 87.1907 207.474 87.1907 208.384C87.1907 209.295 87.9286 210.033 88.8389 210.033H90.7941C91.7044 210.033 92.4423 209.295 92.4423 208.384C92.4423 207.474 91.7044 206.736 90.7941 206.736Z" fill="white" fill-opacity="0.2"/>
<path id="Vector_22" d="M90.7941 143.446H88.8389C87.9286 143.446 87.1907 144.184 87.1907 145.094C87.1907 146.004 87.9286 146.742 88.8389 146.742H90.7941C91.7044 146.742 92.4423 146.004 92.4423 145.094C92.4423 144.184 91.7044 143.446 90.7941 143.446Z" fill="white" fill-opacity="0.2"/>
<path id="Vector_23" d="M90.7941 150.038H88.8389C87.9286 150.038 87.1907 150.776 87.1907 151.687C87.1907 152.597 87.9286 153.335 88.8389 153.335H90.7941C91.7044 153.335 92.4423 152.597 92.4423 151.687C92.4423 150.776 91.7044 150.038 90.7941 150.038Z" fill="white" fill-opacity="0.2"/>
<path id="Vector_24" d="M205.198 157.061H119.205C118.216 157.061 117.414 157.863 117.414 158.853C117.414 159.842 118.216 160.644 119.205 160.644H205.198C206.187 160.644 206.989 159.842 206.989 158.853C206.989 157.863 206.187 157.061 205.198 157.061Z" fill="#9D97F4"/>
<path id="Vector_25" d="M90.7941 157.291H88.8389C87.9286 157.291 87.1907 158.029 87.1907 158.939C87.1907 159.849 87.9286 160.587 88.8389 160.587H90.7941C91.7044 160.587 92.4423 159.849 92.4423 158.939C92.4423 158.029 91.7044 157.291 90.7941 157.291Z" fill="white" fill-opacity="0.2"/>
<path id="Vector_26" d="M208.064 164.227H126.371C125.381 164.227 124.579 165.029 124.579 166.019C124.579 167.008 125.381 167.81 126.371 167.81H208.064C209.053 167.81 209.855 167.008 209.855 166.019C209.855 165.029 209.053 164.227 208.064 164.227Z" fill="#3D7FFC"/>
<path id="Vector_27" d="M229.306 164.543H216.847C215.937 164.543 215.199 165.281 215.199 166.191C215.199 167.101 215.937 167.839 216.847 167.839H229.306C230.216 167.839 230.954 167.101 230.954 166.191C230.954 165.281 230.216 164.543 229.306 164.543Z" fill="#0B88CD"/>
<path id="Vector_28" d="M158.26 171.393H113.113C112.322 171.393 111.68 172.035 111.68 172.827C111.68 173.618 112.322 174.26 113.113 174.26H158.26C159.051 174.26 159.693 173.618 159.693 172.827C159.693 172.035 159.051 171.393 158.26 171.393Z" fill="#15C1E6"/>
<path id="Vector_29" d="M185.323 171.135H167.613C166.703 171.135 165.965 171.873 165.965 172.783C165.965 173.694 166.703 174.432 167.613 174.432H185.323C186.233 174.432 186.971 173.694 186.971 172.783C186.971 171.873 186.233 171.135 185.323 171.135Z" fill="#9D97F4"/>
<path id="Vector_30" d="M221.428 171.135H195.184C194.274 171.135 193.536 171.873 193.536 172.783C193.536 173.694 194.274 174.432 195.184 174.432H221.428C222.339 174.432 223.076 173.694 223.076 172.783C223.076 171.873 222.339 171.135 221.428 171.135Z" fill="#9D97F4"/>
<path id="Vector_31" d="M213.55 178.387H159.735C158.825 178.387 158.087 179.125 158.087 180.036C158.087 180.946 158.825 181.684 159.735 181.684H213.55C214.461 181.684 215.199 180.946 215.199 180.036C215.199 179.125 214.461 178.387 213.55 178.387Z" fill="#9D97F4"/>
<path id="Vector_32" d="M150.531 178.387H144.638C143.727 178.387 142.989 179.125 142.989 180.036C142.989 180.946 143.727 181.684 144.638 181.684H150.531C151.442 181.684 152.18 180.946 152.18 180.036C152.18 179.125 151.442 178.387 150.531 178.387Z" fill="#9D97F4"/>
<path id="Vector_33" d="M153.814 185.639H113.128C112.218 185.639 111.48 186.377 111.48 187.288C111.48 188.198 112.218 188.936 113.128 188.936H153.814C154.724 188.936 155.462 188.198 155.462 187.288C155.462 186.377 154.724 185.639 153.814 185.639Z" fill="#3D7FFC"/>
<path id="Vector_34" d="M90.7941 164.543H88.8389C87.9286 164.543 87.1907 165.281 87.1907 166.191C87.1907 167.101 87.9286 167.839 88.8389 167.839H90.7941C91.7044 167.839 92.4423 167.101 92.4423 166.191C92.4423 165.281 91.7044 164.543 90.7941 164.543Z" fill="white" fill-opacity="0.2"/>
<path id="Vector_35" d="M90.7941 171.135H88.8389C87.9286 171.135 87.1907 171.873 87.1907 172.783C87.1907 173.694 87.9286 174.432 88.8389 174.432H90.7941C91.7044 174.432 92.4423 173.694 92.4423 172.783C92.4423 171.873 91.7044 171.135 90.7941 171.135Z" fill="white" fill-opacity="0.2"/>
<path id="Vector_36" d="M90.7941 178.387H88.8389C87.9286 178.387 87.1907 179.125 87.1907 180.036C87.1907 180.946 87.9286 181.684 88.8389 181.684H90.7941C91.7044 181.684 92.4423 180.946 92.4423 180.036C92.4423 179.125 91.7044 178.387 90.7941 178.387Z" fill="white" fill-opacity="0.2"/>
<path id="Vector_37" d="M90.7941 185.639H88.8389C87.9286 185.639 87.1907 186.377 87.1907 187.288C87.1907 188.198 87.9286 188.936 88.8389 188.936H90.7941C91.7044 188.936 92.4423 188.198 92.4423 187.288C92.4423 186.377 91.7044 185.639 90.7941 185.639Z" fill="white" fill-opacity="0.2"/>
</g>
<g id="Frame 114424">
<g id="Group 1144024">
<path id="Vector_38" d="M90.9909 102.645C90.9909 103.849 89.9982 104.841 88.7949 104.841C87.5915 104.841 86.5988 103.849 86.5988 102.645C86.5988 101.442 87.5915 100.449 88.7949 100.449C89.9982 100.449 90.9909 101.442 90.9909 102.645Z" fill="white"/>
<path id="Vector_39" d="M100.791 102.645C100.791 103.849 99.7985 104.841 98.5952 104.841C97.3919 104.841 96.3992 103.849 96.3992 102.645C96.3992 101.442 97.3919 100.449 98.5952 100.449C99.8286 100.449 100.791 101.442 100.791 102.645Z" fill="white"/>
<path id="Vector_40" d="M110.592 102.645C110.592 103.849 109.599 104.841 108.396 104.841C107.192 104.841 106.2 103.849 106.2 102.645C106.2 101.442 107.192 100.449 108.396 100.449C109.599 100.449 110.592 101.442 110.592 102.645Z" fill="white"/>
</g>
</g>
</g>
</g>
<g id="Group 1143951">
<g id="s_table_excel_text" filter="url(#filter2_d_10333_2618)">
<g id="Group 10241_3_3">
<g id="Group 9204_3_3">
<g id="Group 9200_5_3">
<g id="Group 9303_3_3">
<g id="Group 9283_3_3">
<g id="Group 9200_6_3">
<g id="Group 9039_3_3">
<g id="Group 8804_3_3">
<g id="Rectangle 5981_3_3">
<g id="Vector_35_2">
<path d="M132.097 157.154C132.097 155.31 133.849 153.815 136.011 153.815H297.713C299.876 153.815 301.627 155.31 301.627 157.154V251.891C301.627 253.734 299.876 255.229 297.713 255.229H136.011C133.849 255.229 132.097 253.734 132.097 251.891V157.154Z" fill="url(#paint5_linear_10333_2618)"/>
<path d="M132.227 157.154C132.227 155.4 133.901 153.945 136.011 153.945H297.713C299.824 153.945 301.498 155.4 301.498 157.154V251.891C301.498 253.644 299.824 255.099 297.713 255.099H136.011C133.901 255.099 132.227 253.644 132.227 251.891V157.154Z" stroke="url(#paint6_linear_10333_2618)" stroke-opacity="0.2" stroke-width="0.259189"/>
</g>
</g>
<g id="Rectangle 5983_3_3">
<path d="M132 159.094H302V173.094H132V159.094Z" fill="url(#paint7_linear_10333_2618)"/>
<path d="M132.13 159.224H301.87V172.965H132.13V159.224Z" stroke="url(#paint8_linear_10333_2618)" stroke-opacity="0.2" stroke-width="0.259189"/>
</g>
<g id="Rectangle 5988_4_3">
<path d="M132 201.094H302V227.094H132V201.094Z" fill="url(#paint9_linear_10333_2618)"/>
<path d="M132.13 201.224H301.87V226.965H132.13V201.224Z" stroke="url(#paint10_linear_10333_2618)" stroke-opacity="0.2" stroke-width="0.259189"/>
</g>
</g>
</g>
</g>
</g>
<g id="Group 8195_3_3">
<path id="Rectangle 5733_3_3" d="M138 163.967C138 163.485 138.417 163.094 138.93 163.094H144.202C144.716 163.094 145.133 163.485 145.133 163.967V168.909C145.133 169.39 144.716 169.781 144.202 169.781H138.93C138.417 169.781 138 169.39 138 168.909V163.967Z" fill="white" fill-opacity="0.2"/>
<path id="X_3_3" d="M141.572 166.845L142.467 168.444H143.35L142.045 166.374L143.264 164.432H142.393L141.566 165.88L140.74 164.432H139.869L141.088 166.368L139.783 168.444H140.661L141.572 166.845Z" fill="white"/>
</g>
<g id="Group 8765_3_3">
<path id="star 12_7_3" d="M223.768 183.607H222.079V183.602C221.986 183.601 221.896 183.572 221.819 183.521C221.744 183.469 221.686 183.397 221.656 183.313C221.65 183.301 221.646 183.287 221.643 183.275L221.147 181.777L221.135 181.74C221.114 181.682 221.073 181.634 221.021 181.599C220.968 181.566 220.905 181.548 220.841 181.551C220.777 181.554 220.717 181.576 220.666 181.614C220.617 181.651 220.581 181.702 220.565 181.76L220.063 183.268V183.272C220.06 183.287 220.055 183.304 220.048 183.319C220.016 183.401 219.96 183.474 219.883 183.524C219.808 183.575 219.717 183.602 219.624 183.602V183.607H217.934C217.86 183.618 217.793 183.655 217.746 183.708C217.698 183.763 217.672 183.831 217.673 183.902C217.673 183.947 217.683 183.992 217.704 184.034C217.725 184.075 217.755 184.111 217.793 184.14L217.807 184.15L219.12 185.09C219.182 185.134 219.232 185.189 219.267 185.254C219.302 185.319 219.32 185.39 219.32 185.462C219.32 185.496 219.316 185.529 219.307 185.561C219.301 185.588 219.294 185.612 219.283 185.636L218.786 187.141V187.147L218.782 187.159C218.773 187.186 218.77 187.215 218.77 187.244C218.768 187.283 218.775 187.319 218.789 187.356C218.804 187.392 218.826 187.425 218.855 187.453C218.883 187.48 218.916 187.503 218.953 187.518C218.992 187.534 219.031 187.542 219.072 187.542C219.125 187.542 219.177 187.531 219.222 187.505L219.275 187.467L220.579 186.536L220.607 186.515C220.68 186.468 220.765 186.443 220.854 186.442C220.941 186.44 221.027 186.465 221.1 186.511C221.116 186.52 221.131 186.531 221.146 186.543L222.442 187.47L222.477 187.498C222.526 187.525 222.581 187.541 222.637 187.54C222.677 187.54 222.718 187.531 222.755 187.515C222.792 187.499 222.826 187.477 222.853 187.45C222.882 187.421 222.904 187.389 222.919 187.353C222.934 187.316 222.94 187.279 222.939 187.24C222.939 187.211 222.935 187.18 222.925 187.151C222.925 187.147 222.923 187.141 222.921 187.137L222.421 185.625C222.413 185.606 222.406 185.585 222.401 185.565C222.38 185.481 222.384 185.396 222.412 185.315C222.44 185.233 222.492 185.163 222.56 185.107C222.571 185.099 222.583 185.09 222.595 185.083L223.893 184.153L223.932 184.125C223.966 184.098 223.993 184.062 224.011 184.023C224.03 183.983 224.039 183.941 224.039 183.898C224.039 183.827 224.011 183.759 223.962 183.705C223.913 183.65 223.844 183.615 223.768 183.607Z" fill="#B8C4D0" fill-opacity="0.5"/>
<path id="star_12_19_3" d="M232.25 183.607H230.562V183.602C230.468 183.601 230.377 183.572 230.301 183.521C230.225 183.469 230.169 183.397 230.138 183.313C230.133 183.301 230.128 183.287 230.124 183.275L229.629 181.777L229.616 181.74C229.595 181.682 229.555 181.634 229.502 181.599C229.45 181.566 229.387 181.548 229.323 181.551C229.259 181.554 229.198 181.576 229.148 181.614C229.098 181.651 229.063 181.702 229.047 181.76L228.545 183.268V183.272C228.541 183.287 228.536 183.304 228.53 183.319C228.498 183.401 228.441 183.474 228.365 183.524C228.29 183.575 228.198 183.602 228.106 183.602V183.607H226.415C226.341 183.618 226.275 183.655 226.227 183.708C226.18 183.763 226.154 183.831 226.155 183.902C226.155 183.947 226.165 183.992 226.186 184.034C226.207 184.075 226.237 184.111 226.275 184.14L226.288 184.15L227.6 185.09C227.678 185.144 227.737 185.216 227.77 185.302C227.804 185.384 227.81 185.477 227.789 185.564C227.783 185.588 227.775 185.614 227.764 185.638L227.267 187.144V187.148L227.264 187.16C227.255 187.188 227.251 187.217 227.251 187.247C227.25 187.283 227.256 187.322 227.271 187.358C227.286 187.395 227.308 187.427 227.336 187.454C227.364 187.483 227.398 187.506 227.435 187.521C227.472 187.535 227.513 187.544 227.553 187.545C227.606 187.545 227.658 187.532 227.704 187.506L227.757 187.47L229.06 186.539L229.089 186.517C229.161 186.471 229.246 186.444 229.334 186.444C229.423 186.443 229.509 186.466 229.582 186.513C229.598 186.523 229.613 186.533 229.627 186.544L230.923 187.473L230.959 187.499C231.007 187.528 231.063 187.541 231.118 187.541C231.159 187.541 231.2 187.532 231.237 187.516C231.274 187.502 231.307 187.479 231.335 187.451C231.364 187.424 231.386 187.39 231.401 187.354C231.415 187.318 231.421 187.28 231.42 187.243C231.42 187.212 231.417 187.182 231.407 187.153C231.407 187.148 231.403 187.144 231.402 187.14L230.902 185.627C230.894 185.607 230.888 185.588 230.883 185.567C230.873 185.532 230.869 185.496 230.869 185.459C230.868 185.391 230.884 185.326 230.914 185.267C230.943 185.205 230.986 185.151 231.041 185.109C231.052 185.1 231.063 185.093 231.074 185.084L232.372 184.156L232.412 184.127C232.446 184.098 232.472 184.063 232.491 184.024C232.509 183.985 232.518 183.943 232.518 183.901C232.519 183.828 232.492 183.759 232.443 183.705C232.393 183.652 232.325 183.615 232.25 183.607Z" fill="#B8C4D0" fill-opacity="0.5"/>
<path id="star_12_20_3" d="M240.736 183.607H239.048V183.602C238.954 183.601 238.863 183.572 238.786 183.521C238.711 183.469 238.653 183.397 238.624 183.313C238.619 183.301 238.614 183.288 238.61 183.275L238.115 181.777L238.102 181.74C238.081 181.682 238.04 181.634 237.987 181.599C237.935 181.566 237.873 181.548 237.809 181.551C237.745 181.554 237.684 181.576 237.634 181.614C237.584 181.651 237.549 181.702 237.533 181.76L237.031 183.268C237.031 183.268 237.031 183.269 237.031 183.272C237.027 183.287 237.021 183.304 237.015 183.319C236.984 183.401 236.927 183.474 236.851 183.524C236.775 183.575 236.684 183.602 236.592 183.602V183.607H234.901C234.827 183.618 234.761 183.655 234.712 183.708C234.666 183.763 234.64 183.831 234.641 183.902C234.64 183.947 234.651 183.992 234.672 184.034C234.692 184.075 234.722 184.111 234.761 184.14L234.774 184.15L236.086 185.09C236.164 185.144 236.222 185.216 236.256 185.302C236.29 185.384 236.296 185.477 236.275 185.564C236.269 185.588 236.261 185.614 236.25 185.638L235.752 187.144V187.148L235.748 187.16C235.741 187.188 235.737 187.217 235.737 187.247C235.736 187.283 235.742 187.322 235.757 187.358C235.772 187.395 235.794 187.427 235.821 187.454C235.849 187.483 235.884 187.506 235.921 187.521C235.958 187.537 235.999 187.544 236.039 187.545C236.092 187.545 236.144 187.532 236.19 187.506L236.243 187.47L237.546 186.539L237.574 186.517C237.647 186.471 237.732 186.444 237.82 186.444C237.909 186.443 237.994 186.466 238.068 186.513C238.084 186.523 238.098 186.533 238.113 186.544L239.408 187.473L239.445 187.499C239.493 187.528 239.547 187.541 239.604 187.541C239.645 187.541 239.685 187.532 239.722 187.516C239.759 187.502 239.793 187.479 239.821 187.451C239.849 187.424 239.872 187.39 239.886 187.354C239.9 187.318 239.907 187.28 239.906 187.243C239.906 187.212 239.901 187.183 239.892 187.153C239.892 187.148 239.889 187.144 239.888 187.14L239.388 185.627C239.38 185.607 239.373 185.588 239.368 185.567C239.36 185.532 239.355 185.496 239.355 185.459C239.355 185.391 239.37 185.326 239.399 185.267C239.429 185.205 239.472 185.151 239.526 185.109C239.537 185.1 239.549 185.093 239.561 185.084L240.859 184.156L240.899 184.127C240.932 184.098 240.959 184.063 240.978 184.024C240.996 183.985 241.005 183.943 241.005 183.901C241.005 183.828 240.979 183.759 240.93 183.705C240.88 183.652 240.811 183.615 240.736 183.607Z" fill="#B8C4D0" fill-opacity="0.5"/>
<path id="star_12_21_3" d="M249.206 183.607H247.518V183.602C247.425 183.601 247.333 183.572 247.257 183.521C247.182 183.469 247.125 183.397 247.094 183.313C247.089 183.301 247.084 183.287 247.081 183.275L246.585 181.777L246.573 181.74C246.552 181.682 246.511 181.634 246.458 181.599C246.406 181.566 246.343 181.548 246.279 181.551C246.215 181.554 246.155 181.576 246.104 181.614C246.055 181.651 246.019 181.702 246.003 181.76L245.501 183.268V183.272C245.498 183.287 245.493 183.304 245.486 183.319C245.454 183.401 245.398 183.474 245.321 183.524C245.246 183.575 245.155 183.602 245.062 183.602V183.607H243.372C243.298 183.618 243.231 183.655 243.183 183.708C243.136 183.763 243.11 183.831 243.112 183.902C243.112 183.947 243.121 183.992 243.142 184.034C243.163 184.075 243.193 184.111 243.231 184.14L243.245 184.15L244.557 185.09C244.634 185.144 244.693 185.216 244.727 185.302C244.76 185.384 244.766 185.477 244.745 185.564C244.739 185.588 244.732 185.614 244.721 185.638L244.224 187.144V187.148L244.219 187.16C244.211 187.188 244.206 187.217 244.206 187.247C244.205 187.283 244.213 187.322 244.227 187.358C244.242 187.395 244.263 187.427 244.292 187.454C244.32 187.483 244.353 187.506 244.391 187.521C244.428 187.535 244.469 187.544 244.51 187.545C244.563 187.545 244.615 187.532 244.66 187.506L244.713 187.47L246.015 186.539L246.045 186.517C246.117 186.471 246.203 186.444 246.29 186.444C246.378 186.443 246.464 186.466 246.537 186.513C246.554 186.523 246.569 186.533 246.584 186.544L247.88 187.473L247.916 187.499C247.964 187.528 248.019 187.541 248.074 187.541C248.115 187.541 248.156 187.532 248.193 187.516C248.23 187.502 248.263 187.479 248.292 187.451C248.32 187.424 248.342 187.39 248.357 187.354C248.372 187.318 248.378 187.28 248.377 187.243C248.377 187.212 248.373 187.182 248.363 187.153C248.363 187.148 248.359 187.144 248.358 187.14L247.859 185.627C247.85 185.607 247.844 185.588 247.839 185.567C247.829 185.532 247.826 185.496 247.826 185.459C247.824 185.391 247.84 185.326 247.87 185.267C247.899 185.205 247.943 185.151 247.997 185.109C248.008 185.1 248.019 185.093 248.03 185.084L249.329 184.156L249.368 184.127C249.403 184.098 249.428 184.063 249.447 184.024C249.465 183.985 249.475 183.943 249.474 183.901C249.475 183.828 249.448 183.759 249.399 183.705C249.349 183.652 249.282 183.615 249.206 183.607Z" fill="#B8C4D0" fill-opacity="0.5"/>
</g>
<g id="Group 8766_3_3">
<path id="star_12_22_3" d="M249.186 212.589H247.498V212.586C247.404 212.586 247.313 212.557 247.236 212.505C247.161 212.453 247.103 212.38 247.073 212.298C247.069 212.285 247.064 212.272 247.06 212.258L246.564 210.759L246.552 210.722C246.53 210.667 246.49 210.617 246.437 210.584C246.384 210.551 246.323 210.533 246.259 210.535C246.194 210.538 246.133 210.559 246.083 210.596C246.034 210.635 245.998 210.685 245.982 210.743L245.48 212.253C245.48 212.253 245.48 212.253 245.48 212.256C245.477 212.272 245.471 212.286 245.464 212.3C245.434 212.385 245.377 212.455 245.3 212.506C245.225 212.558 245.134 212.586 245.041 212.586V212.59H243.35C243.276 212.602 243.209 212.639 243.162 212.692C243.114 212.747 243.088 212.815 243.09 212.886C243.09 212.931 243.101 212.976 243.12 213.016C243.141 213.058 243.172 213.094 243.209 213.122L243.223 213.133L244.537 214.073C244.615 214.126 244.673 214.2 244.706 214.284C244.741 214.368 244.747 214.459 244.726 214.547C244.72 214.572 244.711 214.596 244.701 214.62L244.203 216.127V216.132L244.199 216.143C244.192 216.171 244.187 216.198 244.187 216.227C244.186 216.267 244.193 216.306 244.207 216.342C244.221 216.377 244.244 216.41 244.272 216.437C244.3 216.466 244.334 216.487 244.371 216.503C244.409 216.519 244.448 216.527 244.489 216.529C244.542 216.529 244.595 216.514 244.64 216.488L244.693 216.452L245.996 215.521L246.024 215.5C246.097 215.452 246.182 215.426 246.271 215.426C246.358 215.425 246.445 215.45 246.517 215.494C246.533 215.505 246.549 215.515 246.563 215.528L247.859 216.456L247.896 216.482C247.943 216.51 247.998 216.524 248.054 216.524C248.096 216.523 248.135 216.514 248.172 216.5C248.21 216.484 248.244 216.461 248.272 216.433C248.299 216.406 248.321 216.372 248.336 216.338C248.351 216.301 248.357 216.262 248.357 216.225C248.357 216.194 248.352 216.164 248.342 216.136C248.342 216.132 248.34 216.127 248.337 216.122L247.838 214.611C247.829 214.591 247.823 214.57 247.818 214.549C247.81 214.514 247.805 214.478 247.805 214.441C247.805 214.375 247.819 214.308 247.849 214.249C247.879 214.188 247.922 214.134 247.976 214.092C247.987 214.084 247.998 214.075 248.011 214.066L249.309 213.138L249.347 213.109C249.382 213.081 249.409 213.045 249.427 213.006C249.445 212.968 249.455 212.925 249.453 212.881C249.455 212.81 249.427 212.742 249.378 212.689C249.329 212.635 249.261 212.599 249.186 212.589Z" fill="#B8C4D0" fill-opacity="0.5"/>
<path id="star_12_22_3_2" d="M257.096 212.589H255.408V212.586C255.315 212.586 255.223 212.557 255.147 212.505C255.072 212.453 255.014 212.38 254.984 212.298C254.979 212.285 254.974 212.272 254.971 212.258L254.475 210.759L254.462 210.722C254.44 210.667 254.401 210.617 254.348 210.584C254.295 210.551 254.233 210.533 254.169 210.535C254.105 210.538 254.043 210.559 253.994 210.596C253.945 210.635 253.909 210.685 253.893 210.743L253.391 212.253C253.391 212.253 253.391 212.253 253.391 212.256C253.387 212.272 253.381 212.286 253.375 212.3C253.344 212.385 253.287 212.455 253.211 212.506C253.136 212.558 253.044 212.586 252.952 212.586V212.59H251.26C251.186 212.602 251.12 212.639 251.073 212.692C251.025 212.747 250.999 212.815 251 212.886C251 212.931 251.011 212.976 251.031 213.016C251.052 213.058 251.083 213.094 251.12 213.122L251.133 213.133L252.448 214.073C252.525 214.126 252.583 214.2 252.617 214.284C252.651 214.368 252.657 214.459 252.636 214.547C252.63 214.572 252.622 214.596 252.612 214.62L252.114 216.127V216.132L252.11 216.143C252.102 216.171 252.097 216.198 252.097 216.227C252.096 216.267 252.104 216.306 252.117 216.342C252.132 216.377 252.154 216.41 252.183 216.437C252.211 216.466 252.244 216.487 252.281 216.503C252.319 216.519 252.359 216.527 252.4 216.529C252.453 216.529 252.506 216.514 252.55 216.488L252.603 216.452L253.906 215.521L253.935 215.5C254.008 215.452 254.093 215.426 254.181 215.426C254.269 215.425 254.355 215.45 254.428 215.494C254.444 215.505 254.46 215.515 254.474 215.528L255.77 216.456L255.807 216.482C255.853 216.51 255.909 216.524 255.964 216.524C256.006 216.523 256.046 216.514 256.083 216.5C256.121 216.484 256.154 216.461 256.183 216.433C256.21 216.406 256.232 216.372 256.247 216.338C256.261 216.301 256.268 216.262 256.268 216.225C256.268 216.194 256.263 216.164 256.253 216.136C256.253 216.132 256.25 216.127 256.248 216.122L255.748 214.611C255.74 214.591 255.734 214.57 255.729 214.549C255.72 214.514 255.715 214.478 255.715 214.441C255.715 214.375 255.73 214.308 255.76 214.249C255.789 214.188 255.832 214.134 255.887 214.092C255.898 214.084 255.909 214.075 255.921 214.066L257.22 213.138L257.258 213.109C257.292 213.081 257.319 213.045 257.338 213.006C257.355 212.968 257.365 212.925 257.364 212.881C257.365 212.81 257.338 212.742 257.289 212.689C257.239 212.635 257.171 212.599 257.096 212.589Z" fill="#B8C4D0" fill-opacity="0.5"/>
<g id="Group 8204_5_3">
<path id="star 12_8_3" d="M223.752 212.59H222.064V212.587C221.971 212.586 221.879 212.558 221.803 212.506C221.728 212.454 221.671 212.382 221.64 212.299C221.635 212.286 221.63 212.273 221.627 212.26L221.131 210.761L221.119 210.723C221.098 210.667 221.058 210.619 221.005 210.586C220.952 210.551 220.889 210.533 220.825 210.536C220.762 210.539 220.701 210.56 220.651 210.597C220.601 210.636 220.565 210.687 220.549 210.745L220.047 212.254V212.256C220.043 212.273 220.038 212.288 220.032 212.302C220.001 212.386 219.943 212.457 219.868 212.508C219.792 212.558 219.702 212.586 219.608 212.587V212.592H217.918C217.844 212.603 217.777 212.64 217.73 212.693C217.682 212.747 217.656 212.816 217.657 212.887C217.657 212.932 217.668 212.977 217.689 213.018C217.709 213.058 217.74 213.094 217.777 213.123L217.791 213.135L219.104 214.075C219.165 214.119 219.217 214.174 219.252 214.237C219.286 214.302 219.305 214.375 219.303 214.447C219.303 214.481 219.3 214.514 219.291 214.547C219.286 214.572 219.278 214.597 219.268 214.62L218.77 216.128V216.132L218.766 216.144C218.757 216.171 218.754 216.199 218.754 216.228C218.752 216.267 218.76 216.306 218.774 216.342C218.788 216.377 218.81 216.41 218.839 216.438C218.867 216.467 218.9 216.488 218.939 216.503C218.976 216.52 219.015 216.527 219.057 216.529C219.11 216.529 219.162 216.514 219.207 216.49L219.26 216.452L220.562 215.521L220.592 215.5C220.664 215.453 220.75 215.427 220.837 215.427C220.925 215.425 221.011 215.45 221.084 215.495C221.1 215.505 221.116 215.516 221.13 215.528L222.425 216.456L222.463 216.483C222.509 216.51 222.565 216.525 222.622 216.525C222.662 216.523 222.702 216.514 222.739 216.5C222.777 216.484 222.81 216.462 222.839 216.433C222.866 216.406 222.888 216.374 222.903 216.338C222.918 216.301 222.925 216.262 222.924 216.225C222.924 216.196 222.919 216.164 222.909 216.136C222.909 216.132 222.906 216.128 222.905 216.122L222.406 214.611C222.397 214.591 222.391 214.57 222.386 214.549C222.365 214.468 222.369 214.381 222.397 214.3C222.424 214.218 222.476 214.147 222.545 214.092C222.556 214.084 222.567 214.075 222.58 214.068L223.877 213.138L223.916 213.11C223.951 213.081 223.978 213.047 223.995 213.008C224.014 212.968 224.024 212.925 224.022 212.883C224.022 212.812 223.995 212.742 223.946 212.689C223.897 212.635 223.827 212.6 223.752 212.59Z" fill="#B8C4D0" fill-opacity="0.5"/>
<path id="star_12_23_3" d="M232.236 212.59H230.546V212.587C230.453 212.586 230.361 212.557 230.286 212.506C230.21 212.454 230.153 212.382 230.122 212.299C230.117 212.286 230.112 212.272 230.109 212.26L229.613 210.761L229.601 210.723C229.58 210.667 229.54 210.619 229.487 210.585C229.434 210.551 229.371 210.533 229.307 210.536C229.244 210.539 229.183 210.559 229.133 210.597C229.083 210.636 229.047 210.687 229.031 210.745L228.529 212.254V212.256C228.525 212.272 228.52 212.287 228.514 212.302C228.483 212.386 228.426 212.457 228.35 212.508C228.274 212.558 228.184 212.586 228.09 212.587V212.592H226.4C226.326 212.602 226.259 212.638 226.212 212.693C226.164 212.747 226.138 212.816 226.14 212.887C226.14 212.932 226.151 212.977 226.17 213.018C226.191 213.058 226.222 213.094 226.259 213.123L226.273 213.135L227.586 214.075C227.662 214.127 227.722 214.201 227.755 214.285C227.788 214.369 227.794 214.46 227.773 214.547C227.768 214.573 227.76 214.599 227.75 214.622L227.252 216.127V216.135L227.248 216.143C227.239 216.172 227.236 216.201 227.236 216.23C227.234 216.268 227.242 216.307 227.255 216.342C227.27 216.378 227.292 216.411 227.321 216.439C227.349 216.466 227.382 216.49 227.419 216.506C227.458 216.52 227.497 216.529 227.538 216.529C227.591 216.53 227.644 216.517 227.689 216.491L227.742 216.455L229.045 215.522L229.073 215.502C229.146 215.455 229.231 215.429 229.319 215.428C229.407 215.428 229.493 215.451 229.566 215.497C229.582 215.506 229.598 215.518 229.612 215.529L230.908 216.456L230.945 216.484C230.991 216.511 231.047 216.527 231.103 216.527C231.144 216.526 231.184 216.517 231.221 216.501C231.259 216.485 231.292 216.464 231.321 216.436C231.348 216.409 231.37 216.375 231.385 216.339C231.4 216.304 231.406 216.265 231.406 216.226C231.406 216.197 231.401 216.167 231.391 216.138C231.391 216.133 231.388 216.128 231.386 216.123L230.887 214.611C230.878 214.592 230.872 214.572 230.867 214.552C230.858 214.515 230.853 214.479 230.853 214.443C230.853 214.378 230.868 214.311 230.898 214.252C230.927 214.189 230.971 214.136 231.025 214.094C231.036 214.085 231.047 214.076 231.059 214.069L232.358 213.139L232.396 213.11C232.43 213.083 232.458 213.048 232.476 213.009C232.493 212.968 232.503 212.926 232.502 212.884C232.503 212.813 232.476 212.744 232.428 212.69C232.379 212.637 232.31 212.602 232.236 212.59Z" fill="#B8C4D0" fill-opacity="0.5"/>
<path id="star_12_24_3" d="M240.723 212.59H239.034V212.587C238.94 212.586 238.849 212.557 238.774 212.506C238.697 212.454 238.641 212.382 238.61 212.299C238.605 212.286 238.6 212.272 238.596 212.26L238.101 210.761L238.088 210.723C238.067 210.667 238.027 210.619 237.975 210.585C237.922 210.551 237.859 210.533 237.795 210.536C237.731 210.539 237.67 210.559 237.62 210.597C237.57 210.636 237.535 210.687 237.519 210.745L237.017 212.254V212.256C237.013 212.272 237.008 212.287 237.002 212.302C236.97 212.386 236.913 212.457 236.837 212.508C236.762 212.558 236.67 212.586 236.578 212.587V212.592H234.887C234.813 212.602 234.747 212.638 234.699 212.693C234.652 212.747 234.626 212.816 234.627 212.887C234.627 212.932 234.637 212.977 234.658 213.018C234.679 213.058 234.709 213.094 234.747 213.123L234.76 213.135L236.074 214.075C236.15 214.127 236.209 214.201 236.243 214.285C236.276 214.369 236.282 214.46 236.261 214.547C236.255 214.573 236.247 214.599 236.236 214.622L235.739 216.127V216.135L235.736 216.143C235.727 216.172 235.723 216.201 235.723 216.23C235.722 216.268 235.728 216.307 235.743 216.342C235.758 216.378 235.78 216.411 235.808 216.439C235.837 216.466 235.87 216.49 235.907 216.506C235.945 216.52 235.985 216.529 236.025 216.529C236.078 216.53 236.13 216.517 236.176 216.491L236.229 216.455L237.532 215.522L237.561 215.502C237.633 215.455 237.719 215.429 237.807 215.428C237.895 215.428 237.981 215.451 238.054 215.497C238.07 215.508 238.085 215.518 238.099 215.529L239.395 216.456L239.431 216.484C239.479 216.511 239.535 216.527 239.59 216.527C239.631 216.526 239.672 216.517 239.709 216.501C239.746 216.485 239.78 216.464 239.807 216.436C239.836 216.409 239.858 216.375 239.873 216.339C239.887 216.304 239.893 216.265 239.892 216.226C239.892 216.197 239.889 216.167 239.879 216.138C239.879 216.133 239.876 216.128 239.875 216.123L239.374 214.611C239.367 214.592 239.36 214.572 239.355 214.552C239.346 214.515 239.341 214.479 239.341 214.443C239.341 214.378 239.356 214.311 239.386 214.252C239.415 214.189 239.458 214.136 239.512 214.094C239.524 214.085 239.536 214.076 239.547 214.069L240.845 213.139L240.885 213.11C240.919 213.083 240.945 213.048 240.964 213.009C240.982 212.968 240.991 212.926 240.991 212.884C240.992 212.813 240.965 212.744 240.916 212.69C240.866 212.637 240.797 212.6 240.723 212.59Z" fill="#B8C4D0" fill-opacity="0.5"/>
</g>
</g>
<g id="Group 8767_3_3">
<path id="star_12_25_3" d="M249.186 240.27H247.498V240.269C247.404 240.267 247.313 240.238 247.236 240.186C247.161 240.135 247.103 240.063 247.073 239.979C247.069 239.967 247.064 239.953 247.06 239.94L246.564 238.441L246.552 238.404C246.53 238.348 246.49 238.299 246.437 238.265C246.384 238.232 246.323 238.215 246.259 238.217C246.194 238.219 246.133 238.241 246.083 238.278C246.034 238.316 245.998 238.368 245.982 238.425L245.48 239.934C245.48 239.934 245.48 239.934 245.48 239.937C245.477 239.953 245.471 239.967 245.464 239.983C245.434 240.066 245.377 240.137 245.3 240.189C245.225 240.24 245.134 240.267 245.041 240.269V240.271H243.35C243.276 240.283 243.209 240.319 243.162 240.374C243.114 240.428 243.088 240.496 243.09 240.567C243.09 240.612 243.101 240.657 243.12 240.699C243.141 240.739 243.172 240.776 243.209 240.805L243.223 240.815L244.537 241.755C244.615 241.807 244.673 241.881 244.706 241.965C244.741 242.049 244.747 242.14 244.726 242.228C244.72 242.253 244.711 242.278 244.701 242.302L244.203 243.809V243.813L244.199 243.825C244.192 243.852 244.187 243.881 244.187 243.91C244.186 243.948 244.193 243.987 244.207 244.022C244.221 244.058 244.244 244.091 244.272 244.119C244.3 244.148 244.334 244.169 244.371 244.185C244.409 244.2 244.448 244.209 244.489 244.21C244.542 244.21 244.595 244.196 244.64 244.169L244.693 244.133L245.996 243.202L246.024 243.18C246.097 243.134 246.182 243.108 246.271 243.108C246.358 243.108 246.445 243.131 246.517 243.177C246.533 243.187 246.549 243.196 246.563 243.209L247.859 244.136L247.896 244.164C247.943 244.191 247.998 244.206 248.054 244.206C248.096 244.204 248.135 244.196 248.172 244.181C248.21 244.165 248.244 244.142 248.272 244.116C248.299 244.088 248.321 244.054 248.336 244.019C248.351 243.983 248.357 243.945 248.357 243.906C248.357 243.875 248.352 243.846 248.342 243.817C248.342 243.813 248.34 243.807 248.337 243.803L247.838 242.291C247.829 242.272 247.823 242.25 247.818 242.231C247.81 242.197 247.805 242.16 247.805 242.123C247.805 242.056 247.819 241.991 247.849 241.93C247.879 241.869 247.922 241.816 247.976 241.774C247.987 241.765 247.998 241.756 248.011 241.749L249.309 240.819L249.347 240.79C249.382 240.761 249.409 240.726 249.427 240.689C249.445 240.65 249.455 240.608 249.453 240.564C249.455 240.493 249.427 240.424 249.378 240.37C249.329 240.316 249.261 240.28 249.186 240.27Z" fill="#B8C4D0" fill-opacity="0.5"/>
<g id="Group 8204_6_3">
<path id="star 12_9_3" d="M223.752 240.273H222.064V240.27C221.971 240.268 221.879 240.241 221.803 240.189C221.728 240.137 221.671 240.064 221.64 239.982C221.635 239.967 221.63 239.955 221.627 239.941L221.131 238.443L221.119 238.406C221.098 238.351 221.058 238.301 221.005 238.268C220.952 238.233 220.889 238.217 220.825 238.219C220.762 238.222 220.701 238.243 220.651 238.28C220.601 238.317 220.565 238.369 220.549 238.427L220.047 239.937V239.938C220.043 239.955 220.038 239.97 220.032 239.984C220.001 240.068 219.943 240.139 219.868 240.19C219.792 240.242 219.702 240.268 219.608 240.27V240.273H217.918C217.844 240.286 217.777 240.322 217.73 240.376C217.682 240.429 217.656 240.499 217.657 240.57C217.657 240.615 217.668 240.659 217.689 240.7C217.709 240.742 217.74 240.777 217.777 240.806L217.791 240.816L219.104 241.759C219.165 241.801 219.217 241.856 219.252 241.92C219.286 241.985 219.305 242.056 219.303 242.13C219.303 242.162 219.3 242.195 219.291 242.23C219.286 242.254 219.278 242.279 219.268 242.302L218.77 243.81V243.814L218.766 243.826C218.757 243.853 218.754 243.882 218.754 243.91C218.752 243.949 218.76 243.988 218.774 244.024C218.788 244.059 218.81 244.092 218.839 244.12C218.867 244.149 218.9 244.171 218.939 244.185C218.976 244.201 219.015 244.21 219.057 244.211C219.11 244.211 219.162 244.197 219.207 244.171L219.26 244.134L220.562 243.203L220.592 243.183C220.664 243.135 220.75 243.109 220.837 243.109C220.925 243.107 221.011 243.132 221.084 243.177C221.1 243.187 221.116 243.197 221.13 243.21L222.425 244.139L222.463 244.165C222.509 244.194 222.565 244.207 222.622 244.207C222.662 244.205 222.702 244.197 222.739 244.182C222.777 244.166 222.81 244.145 222.839 244.116C222.866 244.088 222.888 244.055 222.903 244.02C222.918 243.984 222.925 243.945 222.924 243.909C222.924 243.877 222.919 243.846 222.909 243.819C222.909 243.813 222.906 243.81 222.905 243.804L222.406 242.293C222.397 242.273 222.391 242.253 222.386 242.231C222.365 242.15 222.369 242.062 222.397 241.982C222.424 241.901 222.476 241.83 222.545 241.775C222.556 241.766 222.567 241.759 222.58 241.75L223.877 240.822L223.916 240.793C223.951 240.764 223.978 240.729 223.995 240.688C224.014 240.651 224.024 240.607 224.022 240.565C224.022 240.494 223.995 240.425 223.946 240.371C223.897 240.318 223.827 240.283 223.752 240.273Z" fill="#B8C4D0" fill-opacity="0.5"/>
<path id="star_12_26_3" d="M232.236 240.27H230.546V240.269C230.453 240.267 230.361 240.238 230.286 240.186C230.21 240.135 230.153 240.063 230.122 239.979C230.117 239.967 230.112 239.953 230.109 239.94L229.613 238.441L229.601 238.404C229.58 238.348 229.54 238.299 229.487 238.265C229.434 238.232 229.371 238.215 229.307 238.217C229.244 238.219 229.183 238.241 229.133 238.278C229.083 238.316 229.047 238.368 229.031 238.425L228.529 239.934V239.937C228.525 239.953 228.52 239.967 228.514 239.983C228.483 240.066 228.425 240.137 228.35 240.189C228.274 240.24 228.184 240.267 228.09 240.269V240.271H226.4C226.326 240.283 226.259 240.319 226.212 240.374C226.164 240.428 226.138 240.496 226.139 240.567C226.139 240.612 226.15 240.657 226.17 240.699C226.191 240.739 226.222 240.776 226.259 240.805L226.273 240.815L227.586 241.756C227.662 241.808 227.721 241.882 227.755 241.965C227.788 242.05 227.794 242.142 227.773 242.228C227.768 242.255 227.76 242.278 227.75 242.304L227.252 243.809V243.815L227.248 243.825C227.239 243.854 227.236 243.883 227.236 243.91C227.234 243.949 227.242 243.987 227.255 244.023C227.27 244.059 227.292 244.093 227.321 244.12C227.349 244.148 227.382 244.169 227.419 244.187C227.458 244.201 227.497 244.21 227.538 244.21C227.591 244.211 227.644 244.197 227.689 244.171L227.742 244.133L229.044 243.203L229.073 243.182C229.146 243.135 229.231 243.109 229.319 243.108C229.407 243.108 229.493 243.132 229.566 243.179C229.582 243.187 229.598 243.198 229.612 243.211L230.908 244.138L230.945 244.165C230.991 244.193 231.047 244.207 231.102 244.207C231.144 244.206 231.184 244.197 231.221 244.182C231.259 244.167 231.292 244.143 231.321 244.116C231.348 244.088 231.37 244.055 231.385 244.019C231.4 243.984 231.406 243.946 231.406 243.907C231.406 243.877 231.401 243.848 231.391 243.819C231.391 243.813 231.388 243.809 231.386 243.803L230.887 242.292C230.878 242.273 230.872 242.252 230.867 242.233C230.858 242.197 230.853 242.16 230.853 242.124C230.853 242.058 230.868 241.992 230.898 241.93C230.927 241.871 230.97 241.817 231.025 241.775C231.036 241.765 231.047 241.758 231.059 241.75L232.358 240.82L232.396 240.792C232.43 240.763 232.457 240.728 232.476 240.69C232.493 240.65 232.503 240.608 232.502 240.564C232.503 240.493 232.476 240.425 232.428 240.37C232.379 240.316 232.31 240.28 232.236 240.27Z" fill="#B8C4D0" fill-opacity="0.5"/>
<path id="star_12_27_3" d="M240.723 240.27H239.034V240.269C238.94 240.267 238.849 240.238 238.774 240.186C238.697 240.135 238.641 240.063 238.61 239.979C238.605 239.967 238.6 239.953 238.596 239.94L238.101 238.441L238.088 238.404C238.067 238.348 238.027 238.299 237.975 238.265C237.922 238.232 237.859 238.215 237.795 238.217C237.731 238.219 237.67 238.241 237.62 238.278C237.57 238.316 237.535 238.368 237.519 238.425L237.017 239.934C237.017 239.934 237.017 239.934 237.017 239.937C237.013 239.953 237.008 239.967 237.002 239.983C236.97 240.066 236.913 240.137 236.837 240.189C236.761 240.24 236.67 240.267 236.578 240.269V240.271H234.887C234.813 240.283 234.747 240.319 234.699 240.374C234.652 240.428 234.626 240.496 234.627 240.567C234.627 240.612 234.637 240.657 234.658 240.699C234.679 240.739 234.708 240.776 234.747 240.805L234.76 240.815L236.073 241.756C236.15 241.808 236.209 241.882 236.242 241.965C236.276 242.05 236.282 242.142 236.261 242.228C236.255 242.255 236.247 242.278 236.236 242.304L235.739 243.809V243.815L235.736 243.825C235.727 243.854 235.723 243.883 235.723 243.91C235.722 243.949 235.728 243.987 235.743 244.023C235.758 244.059 235.78 244.093 235.808 244.12C235.837 244.148 235.87 244.169 235.907 244.187C235.945 244.201 235.985 244.21 236.025 244.21C236.078 244.211 236.13 244.197 236.176 244.171L236.229 244.133L237.532 243.203L237.56 243.182C237.633 243.135 237.718 243.109 237.807 243.108C237.895 243.108 237.981 243.132 238.054 243.179C238.07 243.187 238.085 243.198 238.099 243.211L239.395 244.138L239.431 244.165C239.479 244.193 239.535 244.207 239.59 244.207C239.631 244.206 239.671 244.197 239.708 244.182C239.745 244.167 239.78 244.143 239.807 244.116C239.835 244.088 239.858 244.055 239.872 244.019C239.887 243.984 239.893 243.946 239.892 243.907C239.892 243.877 239.888 243.848 239.879 243.819C239.879 243.813 239.876 243.809 239.875 243.803L239.374 242.292C239.367 242.272 239.359 242.252 239.355 242.233C239.346 242.197 239.341 242.16 239.341 242.124C239.341 242.058 239.356 241.992 239.385 241.93C239.415 241.871 239.458 241.817 239.512 241.775C239.524 241.765 239.536 241.758 239.547 241.75L240.845 240.82L240.885 240.792C240.919 240.763 240.945 240.728 240.964 240.69C240.982 240.65 240.991 240.608 240.991 240.564C240.992 240.493 240.965 240.424 240.916 240.37C240.866 240.316 240.797 240.28 240.723 240.27Z" fill="#B8C4D0" fill-opacity="0.5"/>
</g>
</g>
<g id="Group 8768_3_3">
<path id="Line 133 (Stroke)_7_3" fill-rule="evenodd" clip-rule="evenodd" d="M275.554 184.948C275.554 183.876 276.414 183.007 277.473 183.007H283.229C284.289 183.007 285.148 183.876 285.148 184.948C285.148 186.02 284.289 186.889 283.229 186.889H277.473C276.414 186.889 275.554 186.02 275.554 184.948Z" fill="#B8C4D0" fill-opacity="0.5"/>
<path id="$_7_3" d="M270.754 186.32C270.754 185.302 270.151 184.63 269.192 184.214L268.446 183.901L268.493 182.05C268.931 182.109 269.476 182.386 269.879 182.825L270.613 181.68C270.14 181.124 269.334 180.8 268.625 180.743L268.635 180.094H267.783L267.759 180.719C267.12 180.778 266.503 180.975 266.101 181.321C265.664 181.691 265.32 182.235 265.32 182.999C265.32 183.947 265.887 184.456 266.148 184.653C266.409 184.861 266.764 185.035 267.214 185.221L267.617 185.383L267.581 187.314C267.071 187.302 266.22 186.898 265.876 186.365L265 187.522C265.592 188.251 266.562 188.667 267.451 188.701L267.428 189.316H268.281L268.304 188.68C268.754 188.645 269.429 188.425 269.843 188.1C270.304 187.742 270.754 187.141 270.754 186.32ZM267.748 182.038L267.712 183.646L267.581 183.59C267.285 183.449 266.978 183.242 266.978 182.813C266.978 182.363 267.297 182.073 267.748 182.038ZM269.121 186.539C269.121 186.989 268.695 187.302 268.327 187.337L268.362 185.613L268.553 185.706C268.907 185.88 269.121 186.098 269.121 186.539Z" fill="#B8C4D0" fill-opacity="0.5"/>
</g>
<g id="Group 8769_3_3">
<path id="Line 133 (Stroke)_8_3" fill-rule="evenodd" clip-rule="evenodd" d="M275.554 213.931C275.554 212.859 276.414 211.99 277.473 211.99H289.943C291.003 211.99 291.862 212.859 291.862 213.931C291.862 215.003 291.003 215.872 289.943 215.872H277.473C276.414 215.872 275.554 215.003 275.554 213.931Z" fill="#B8C4D0" fill-opacity="0.5"/>
<path id="$_8_3" d="M270.754 215.302C270.754 214.283 270.151 213.613 269.192 213.197L268.446 212.884L268.493 211.033C268.931 211.091 269.476 211.369 269.879 211.808L270.613 210.664C270.14 210.107 269.334 209.783 268.625 209.726L268.635 209.077H267.783L267.759 209.702C267.12 209.761 266.503 209.957 266.101 210.304C265.664 210.674 265.32 211.218 265.32 211.982C265.32 212.93 265.887 213.439 266.148 213.636C266.409 213.844 266.764 214.018 267.214 214.202L267.617 214.364L267.581 216.297C267.071 216.285 266.22 215.881 265.876 215.349L265 216.505C265.592 217.234 266.562 217.651 267.451 217.686L267.428 218.299H268.281L268.304 217.661C268.754 217.627 269.429 217.408 269.843 217.083C270.304 216.724 270.754 216.124 270.754 215.302ZM267.748 211.021L267.712 212.629L267.581 212.571C267.285 212.432 266.978 212.225 266.978 211.796C266.978 211.344 267.297 211.056 267.748 211.021ZM269.121 215.522C269.121 215.974 268.695 216.285 268.327 216.32L268.362 214.596L268.553 214.689C268.907 214.863 269.121 215.082 269.121 215.522Z" fill="#B8C4D0" fill-opacity="0.5"/>
</g>
<g id="Group 8770_3_3">
<path id="Line 133 (Stroke)_9_3" fill-rule="evenodd" clip-rule="evenodd" d="M275.554 241.614C275.554 240.542 276.414 239.673 277.473 239.673H287.745C288.805 239.673 289.663 240.542 289.663 241.614C289.663 242.686 288.805 243.555 287.745 243.555H277.473C276.414 243.555 275.554 242.686 275.554 241.614Z" fill="#B8C4D0" fill-opacity="0.5"/>
<path id="$_9_3" d="M270.754 242.985C270.754 241.966 270.151 241.296 269.192 240.88L268.446 240.567L268.493 238.716C268.931 238.774 269.476 239.052 269.879 239.491L270.613 238.346C270.14 237.79 269.334 237.466 268.625 237.409L268.635 236.76H267.783L267.759 237.385C267.12 237.443 266.503 237.64 266.101 237.987C265.664 238.358 265.32 238.901 265.32 239.665C265.32 240.613 265.887 241.123 266.148 241.319C266.409 241.527 266.764 241.701 267.214 241.885L267.617 242.047L267.581 243.98C267.071 243.968 266.22 243.563 265.876 243.031L265 244.188C265.592 244.917 266.562 245.334 267.451 245.369L267.428 245.982H268.281L268.304 245.344C268.754 245.309 269.429 245.091 269.843 244.766C270.304 244.407 270.754 243.806 270.754 242.985ZM267.748 238.704L267.712 240.312L267.581 240.254C267.285 240.115 266.978 239.908 266.978 239.479C266.978 239.027 267.297 238.739 267.748 238.704ZM269.121 243.205C269.121 243.657 268.695 243.968 268.327 244.003L268.362 242.279L268.553 242.372C268.907 242.544 269.121 242.764 269.121 243.205Z" fill="#B8C4D0" fill-opacity="0.5"/>
</g>
<g id="Group 8771_3_3">
<path id="Line 134 (Stroke)_7_3" fill-rule="evenodd" clip-rule="evenodd" d="M150.723 184.461C150.723 183.389 151.582 182.519 152.641 182.519H159.332C160.392 182.519 161.25 183.389 161.25 184.461C161.25 185.533 160.392 186.402 159.332 186.402H152.641C151.582 186.402 150.723 185.533 150.723 184.461Z" fill="#B8C4D0" fill-opacity="0.5"/>
<path id="#_7_3" d="M145.928 183.989V182.819H144.845L145.278 180.579H143.978L143.545 182.819H142.3L142.733 180.579H141.433L141 182.819H139.614V183.989H140.783L140.513 185.409H139.213V186.588H140.296L139.863 188.829H141.162L141.596 186.588H142.841L142.408 188.829H143.707L144.141 186.588H145.516V185.409H144.357L144.628 183.989H145.928ZM143.328 183.989L143.058 185.409H141.812L142.083 183.989H143.328Z" fill="#B8C4D0" fill-opacity="0.5"/>
</g>
<g id="Group 8772_3_3">
<path id="Line 134 (Stroke)_8_3" fill-rule="evenodd" clip-rule="evenodd" d="M150.723 213.446C150.723 212.373 151.582 211.504 152.641 211.504H164.296C165.356 211.504 166.214 212.373 166.214 213.446C166.214 214.518 165.356 215.386 164.296 215.386H152.641C151.582 215.386 150.723 214.518 150.723 213.446Z" fill="#B8C4D0" fill-opacity="0.5"/>
<path id="#_8_3" d="M145.928 212.973V211.804H144.845L145.278 209.563H143.978L143.545 211.804H142.3L142.733 209.563H141.433L141 211.804H139.614V212.973H140.783L140.513 214.394H139.213V215.573H140.296L139.863 217.814H141.162L141.596 215.573H142.841L142.408 217.814H143.707L144.141 215.573H145.516V214.394H144.357L144.628 212.973H145.928ZM143.328 212.973L143.058 214.394H141.812L142.083 212.973H143.328Z" fill="#B8C4D0" fill-opacity="0.5"/>
</g>
<g id="Group 8773_3_3">
<path id="Line 134 (Stroke)_9_3" fill-rule="evenodd" clip-rule="evenodd" d="M150.723 241.614C150.723 240.542 151.582 239.673 152.641 239.673H158.876C159.936 239.673 160.795 240.542 160.795 241.614C160.795 242.686 159.936 243.555 158.876 243.555H152.641C151.582 243.555 150.723 242.686 150.723 241.614Z" fill="#B8C4D0" fill-opacity="0.5"/>
<path id="#_9_3" d="M145.928 241.142V239.973H144.845L145.278 237.732H143.978L143.545 239.973H142.3L142.733 237.732H141.433L141 239.973H139.614V241.142H140.783L140.513 242.561H139.213V243.742H140.296L139.863 245.981H141.162L141.596 243.742H142.841L142.408 245.981H143.707L144.141 243.742H145.516V242.561H144.357L144.628 241.142H145.928ZM143.328 241.142L143.058 242.561H141.812L142.083 241.142H143.328Z" fill="#B8C4D0" fill-opacity="0.5"/>
</g>
<g id="Group 8774_3_3">
<path id="Line 136 (Stroke)_5_3" fill-rule="evenodd" clip-rule="evenodd" d="M177.064 213.446C177.064 212.373 177.923 211.503 178.982 211.503H186.656C187.715 211.503 188.575 212.373 188.575 213.446C188.575 214.518 187.715 215.385 186.656 215.385H178.982C177.923 215.385 177.064 214.518 177.064 213.446Z" fill="#B8C4D0" fill-opacity="0.5"/>
<g id="Group 8680_5_3">
<g id=".jpg_5_3">
<path id="Vector_36_2" d="M191.943 213.621C191.943 213.343 191.738 213.172 191.46 213.172C191.175 213.172 190.97 213.343 190.97 213.621C190.97 213.891 191.175 214.063 191.46 214.063C191.738 214.063 191.943 213.891 191.943 213.621Z" fill="#B8C4D0" fill-opacity="0.5"/>
<path id="Vector_37_2" d="M193.87 209.497C193.87 209.255 193.68 209.077 193.416 209.077C193.146 209.077 192.956 209.255 192.956 209.497C192.956 209.739 193.146 209.917 193.416 209.917C193.68 209.917 193.87 209.739 193.87 209.497ZM193.768 213.998V210.608H193.066V213.976C193.066 214.447 193.022 214.838 192.569 214.838C192.387 214.838 192.24 214.787 192.24 214.787L192.233 215.33C192.233 215.33 192.387 215.385 192.672 215.385C193.541 215.385 193.768 214.716 193.768 213.998Z" fill="#B8C4D0" fill-opacity="0.5"/>
<path id="Vector_38_2" d="M198.389 212.296C198.389 211.292 197.739 210.545 196.716 210.545C196.204 210.545 195.787 210.744 195.48 211.143H195.465V210.608H194.793V215.315H195.495V213.458L195.502 213.465C195.75 213.84 196.152 214.069 196.701 214.069C197.732 214.069 198.389 213.3 198.389 212.296ZM197.673 212.289C197.673 212.966 197.263 213.485 196.569 213.485C195.875 213.485 195.465 212.966 195.465 212.289C195.465 211.612 195.875 211.101 196.569 211.101C197.263 211.101 197.673 211.612 197.673 212.289Z" fill="#B8C4D0" fill-opacity="0.5"/>
<path id="Vector_39_2" d="M202.48 213.278V210.608H201.786L201.793 211.143H201.771C201.566 210.828 201.164 210.545 200.558 210.545C199.666 210.545 198.885 211.172 198.885 212.245C198.885 213.321 199.666 213.947 200.558 213.947C201.142 213.947 201.537 213.685 201.771 213.342H201.786V213.514C201.786 214.311 201.457 214.831 200.573 214.831C200.053 214.831 199.512 214.56 199.33 214.403L199 214.881C199.103 214.952 199.696 215.386 200.55 215.386C201.413 215.386 201.844 215.045 202.1 214.738C202.356 214.438 202.48 214.027 202.48 213.278ZM201.808 212.245C201.808 212.887 201.421 213.392 200.704 213.392C199.996 213.392 199.601 212.887 199.601 212.245C199.601 211.605 199.996 211.092 200.704 211.092C201.421 211.092 201.808 211.605 201.808 212.245Z" fill="#B8C4D0" fill-opacity="0.5"/>
</g>
</g>
</g>
<g id="Group 8775_3_3">
<path id="Line 136 (Stroke)_6_3" fill-rule="evenodd" clip-rule="evenodd" d="M177.064 241.615C177.064 240.545 177.923 239.676 178.982 239.676H193.85C194.91 239.676 195.768 240.545 195.768 241.615C195.768 242.689 194.91 243.558 193.85 243.558H178.982C177.923 243.558 177.064 242.689 177.064 241.615Z" fill="#B8C4D0" fill-opacity="0.5"/>
<g id="Group 8680_6_3">
<g id=".jpg_6_3">
<path id="Vector_40_2" d="M199.131 241.792C199.131 241.514 198.926 241.343 198.649 241.343C198.364 241.343 198.159 241.514 198.159 241.792C198.159 242.063 198.364 242.234 198.649 242.234C198.926 242.234 199.131 242.063 199.131 241.792Z" fill="#B8C4D0" fill-opacity="0.5"/>
<path id="Vector_41" d="M201.059 237.668C201.059 237.426 200.869 237.248 200.605 237.248C200.335 237.248 200.145 237.426 200.145 237.668C200.145 237.912 200.335 238.09 200.605 238.09C200.869 238.09 201.059 237.912 201.059 237.668ZM200.956 242.169V238.779H200.255V242.147C200.255 242.618 200.21 243.009 199.758 243.009C199.575 243.009 199.429 242.96 199.429 242.96L199.421 243.5C199.421 243.5 199.575 243.558 199.86 243.558C200.73 243.558 200.956 242.889 200.956 242.169Z" fill="#B8C4D0" fill-opacity="0.5"/>
<path id="Vector_42" d="M205.579 240.467C205.579 239.463 204.929 238.715 203.906 238.715C203.394 238.715 202.977 238.914 202.67 239.314H202.655V238.779H201.983V243.487H202.685V241.627L202.692 241.634C202.94 242.012 203.342 242.24 203.891 242.24C204.922 242.24 205.579 241.472 205.579 240.467ZM204.862 240.459C204.862 241.136 204.453 241.656 203.759 241.656C203.065 241.656 202.655 241.136 202.655 240.459C202.655 239.783 203.065 239.27 203.759 239.27C204.453 239.27 204.862 239.783 204.862 240.459Z" fill="#B8C4D0" fill-opacity="0.5"/>
<path id="Vector_43" d="M209.669 241.449V238.779H208.975L208.982 239.314H208.96C208.755 239.001 208.353 238.715 207.747 238.715C206.855 238.715 206.073 239.341 206.073 240.417C206.073 241.492 206.855 242.119 207.747 242.119C208.331 242.119 208.726 241.856 208.96 241.514H208.975V241.685C208.975 242.482 208.646 243.002 207.762 243.002C207.242 243.002 206.701 242.731 206.519 242.574L206.191 243.051C206.293 243.123 206.885 243.558 207.739 243.558C208.602 243.558 209.033 243.216 209.289 242.909C209.544 242.611 209.669 242.196 209.669 241.449ZM208.997 240.417C208.997 241.058 208.61 241.563 207.893 241.563C207.185 241.563 206.79 241.058 206.79 240.417C206.79 239.777 207.185 239.263 207.893 239.263C208.61 239.263 208.997 239.777 208.997 240.417Z" fill="#B8C4D0" fill-opacity="0.5"/>
</g>
</g>
</g>
<g id="Group 8776_3_3">
<path id="Line 135 (Stroke)_3_3" fill-rule="evenodd" clip-rule="evenodd" d="M177.064 184.461C177.064 183.389 177.923 182.519 178.982 182.519H186.656C187.715 182.519 188.575 183.389 188.575 184.461C188.575 185.533 187.715 186.402 186.656 186.402H178.982C177.923 186.402 177.064 185.533 177.064 184.461Z" fill="#B8C4D0" fill-opacity="0.5"/>
<g id="Group 8681_3_3">
<g id=".png_3_3">
<path id="Vector_44" d="M191.955 185.269C191.955 184.978 191.748 184.799 191.466 184.799C191.178 184.799 190.97 184.978 190.97 185.269C190.97 185.556 191.178 185.736 191.466 185.736C191.748 185.736 191.955 185.556 191.955 185.269Z" fill="#B8C4D0" fill-opacity="0.5"/>
<path id="Vector_45" d="M196.734 183.878C196.734 182.822 196.076 182.037 195.04 182.037C194.521 182.037 194.099 182.245 193.789 182.665H193.774V182.103H193.093V187.053H193.803V185.097L193.811 185.106C194.062 185.503 194.469 185.742 195.025 185.742C196.069 185.742 196.734 184.934 196.734 183.878ZM196.009 183.87C196.009 184.582 195.595 185.128 194.891 185.128C194.188 185.128 193.774 184.582 193.774 183.87C193.774 183.159 194.188 182.619 194.891 182.619C195.595 182.619 196.009 183.159 196.009 183.87Z" fill="#B8C4D0" fill-opacity="0.5"/>
<path id="Vector_46" d="M200.529 185.661V183.556C200.529 182.703 200.27 182.037 199.27 182.037C198.76 182.037 198.381 182.313 198.196 182.665H198.174L198.181 182.103H197.471V185.661H198.181V183.87C198.181 183.19 198.426 182.628 199.085 182.628C199.714 182.628 199.818 183.077 199.818 183.676V185.661H200.529Z" fill="#B8C4D0" fill-opacity="0.5"/>
<path id="Vector_47" d="M204.879 184.91V182.103H204.176L204.184 182.665H204.161C203.954 182.335 203.547 182.037 202.933 182.037C202.029 182.037 201.238 182.696 201.238 183.826C201.238 184.955 202.029 185.614 202.933 185.614C203.525 185.614 203.925 185.338 204.161 184.979H204.176V185.158C204.176 185.997 203.843 186.543 202.948 186.543C202.422 186.543 201.874 186.259 201.689 186.094L201.356 186.597C201.46 186.67 202.059 187.128 202.926 187.128C203.799 187.128 204.235 186.767 204.494 186.446C204.753 186.132 204.879 185.697 204.879 184.91ZM204.198 183.826C204.198 184.499 203.806 185.031 203.081 185.031C202.362 185.031 201.963 184.499 201.963 183.826C201.963 183.152 202.362 182.612 203.081 182.612C203.806 182.612 204.198 183.152 204.198 183.826Z" fill="#B8C4D0" fill-opacity="0.5"/>
</g>
</g>
</g>
</g>
</g>
</g>
<g id="Rectangle 5982_3_3">
<path d="M132.112 149.272C132.112 146.914 133.867 145 136.031 145H297.865C300.029 145 301.783 146.914 301.783 149.272V159.81H132.112V149.272Z" fill="url(#paint11_linear_10333_2618)"/>
<path d="M132.242 149.272C132.242 146.974 133.948 145.13 136.031 145.13H297.865C299.947 145.13 301.654 146.974 301.654 149.272V159.68H132.242V149.272Z" stroke="url(#paint12_linear_10333_2618)" stroke-opacity="0.2" stroke-width="0.259189"/>
</g>
<g id="Frame 114424_2">
<path id="Vector_48" d="M141.692 152.001C141.692 153.02 140.851 153.861 139.833 153.861C138.814 153.861 137.973 153.02 137.973 152.001C137.973 150.983 138.814 150.142 139.833 150.142C140.851 150.142 141.692 150.983 141.692 152.001Z" fill="white"/>
<path id="Vector_49" d="M149.989 152.002C149.989 153.02 149.149 153.861 148.13 153.861C147.111 153.861 146.271 153.02 146.271 152.002C146.271 150.983 147.111 150.142 148.13 150.142C149.174 150.142 149.989 150.983 149.989 152.002Z" fill="white"/>
<path id="Vector_50" d="M158.287 152.002C158.287 153.02 157.446 153.861 156.428 153.861C155.409 153.861 154.568 153.02 154.568 152.002C154.568 150.983 155.409 150.142 156.428 150.142C157.446 150.142 158.287 150.983 158.287 152.002Z" fill="white"/>
</g>
</g>
</g>
<g id="Rectangle 5988_4_3_2" style="mix-blend-mode:overlay">
<path d="M132 201.094H302V227.094H132V201.094Z" fill="#A2C6FF" fill-opacity="0.6"/>
</g>
</g>
</g>
<g id="Isolation_Mode" clip-path="url(#clip2_10333_2618)">
<g id="Vector_51">
<path d="M138.541 289.712L131 297.254L162.413 328.668L169.954 321.127L140.225 291.396L138.541 289.712Z" fill="url(#paint13_linear_10333_2618)"/>
<path d="M131.183 297.254L138.541 289.896L140.133 291.488L169.771 321.127L162.413 328.485L131.183 297.254Z" stroke="url(#paint14_linear_10333_2618)" stroke-opacity="0.2" stroke-width="0.259189"/>
</g>
<g id="Vector_52">
<path d="M240.928 284.474C240.562 284.427 240.191 284.402 239.829 284.402C236.947 284.402 234.129 285.872 229.942 288.584L213.624 300.723C213.622 300.78 213.617 300.837 213.612 300.895C213.261 304.694 209.413 307.669 204.849 307.669H178.963C178.021 307.669 177.255 306.903 177.255 305.96C177.255 305.018 178.021 304.251 178.963 304.251H204.849C207.664 304.251 210.018 302.638 210.207 300.579C210.25 300.127 210.178 299.669 209.992 299.218C208.588 295.787 205.493 294.047 200.797 294.047H181.41C180.905 294.047 180.429 293.825 180.102 293.439C176.257 288.877 168.957 284 160.006 284C153.683 284 147.498 286.9 143.468 289.806L170.556 316.896H207.34C214.18 316.896 215.753 315.89 216.874 314.769L242.068 289.579C242.652 288.996 242.973 288.228 242.973 287.419C242.973 286.121 242.257 284.646 240.928 284.474Z" fill="url(#paint15_linear_10333_2618)"/>
<path d="M240.928 284.474L240.912 284.603C240.551 284.556 240.186 284.532 239.829 284.532C236.991 284.532 234.204 285.978 230.016 288.691L213.75 300.79C213.748 300.83 213.744 300.869 213.741 300.907C213.741 300.907 213.741 300.907 213.741 300.908L213.612 300.895L240.928 284.474ZM240.928 284.474L240.912 284.603C241.528 284.682 242.009 285.064 242.339 285.593C242.67 286.123 242.843 286.792 242.843 287.419C242.843 288.193 242.536 288.928 241.976 289.488L216.782 314.677C216.235 315.224 215.58 315.743 214.216 316.128C212.845 316.515 210.756 316.767 207.34 316.767H170.61L143.668 289.822L240.928 284.474Z" stroke="url(#paint16_linear_10333_2618)" stroke-opacity="0.2" stroke-width="0.259189"/>
</g>
</g>
<g id="Group 1144022">
<g id="Frame 1143845" filter="url(#filter3_bd_10333_2618)">
<rect x="243" y="52" width="70" height="70" rx="7" fill="url(#paint17_linear_10333_2618)" shape-rendering="crispEdges"/>
<rect x="243.661" y="52.6613" width="68.6775" height="68.6775" rx="6.33874" stroke="url(#paint18_linear_10333_2618)" stroke-width="1.32253" shape-rendering="crispEdges"/>
<g id="24_7">
<g id="Layer_1" clip-path="url(#clip3_10333_2618)">
<path id="Vector_53" d="M264.216 74.3809C266.488 74.891 267.277 76.3445 267.546 77.3552C267.941 76.845 268.355 76.3541 268.807 75.8921C269.741 74.9488 270.781 74.1402 271.916 73.4568C274.977 71.6184 278.289 70.9061 281.831 71.2718C283.265 71.4162 284.661 71.7531 285.999 72.2921C286.326 72.4269 286.644 72.5617 286.98 72.706C286.124 73.6012 285.277 74.4771 284.41 75.3723C288.598 76.5081 292.765 77.6247 296.924 78.7509C296.933 78.7316 296.953 78.722 296.953 78.7124C295.855 74.5734 294.739 70.444 293.584 66.3051C293.497 66.3917 293.42 66.4687 293.343 66.5361C292.38 67.4505 291.418 68.3649 290.455 69.2793C290.398 69.3275 290.369 69.3275 290.311 69.2986C289.935 69.1061 289.56 68.904 289.175 68.7211C286.393 67.4024 283.457 66.7093 280.368 66.6612C279.598 66.6419 278.837 66.6901 278.077 66.7671C276.845 66.9018 275.632 67.1425 274.438 67.489C272.378 68.0858 270.463 68.9617 268.692 70.1553C266.95 71.32 265.429 72.7349 264.101 74.352C264.139 74.352 264.178 74.3713 264.216 74.3809Z" fill="white"/>
<path id="Vector_54" d="M297.183 98.4255C297.183 98.4255 297.174 98.4448 297.164 98.4544V98.4255H297.183Z" fill="#9FC0FF"/>
<path id="Vector_55" d="M292.871 97.4535C292.679 97.4053 292.525 97.4535 292.39 97.5979C291.851 98.1369 291.331 98.6952 290.773 99.2053C289.377 100.486 287.789 101.496 286.018 102.199C285.075 102.574 284.122 102.825 283.14 102.998C283.121 103.219 283.101 103.441 283.053 103.681C282.995 104.018 282.938 104.307 282.832 104.759C282.562 106.059 281.821 107.079 281.08 107.743C282.312 107.685 283.525 107.531 284.728 107.252C286.47 106.838 288.135 106.242 289.714 105.423C291.37 104.567 292.862 103.489 294.219 102.218C295.201 101.304 296.067 100.283 296.77 99.1379C296.904 98.9166 297.029 98.6952 297.164 98.4545C297.097 98.4353 297.049 98.416 297.02 98.4064C295.634 98.0888 294.248 97.7711 292.871 97.4535Z" fill="white"/>
<g id="Group_114098">
<path id="Vector_3_2" d="M278.173 90.4941C278.154 90.3401 278.144 90.1957 278.125 90.0514C278.086 89.6663 278.048 89.2813 278.009 88.8963C278.009 88.8097 278.019 88.7423 278.067 88.6749C279.492 86.7209 280.916 84.7669 282.341 82.8033C282.379 82.7456 282.428 82.7167 282.495 82.7263H284.564V88.5113H285.691C285.633 89.1754 285.575 89.8203 285.517 90.4845H284.574V92.631H282.322V90.4845H278.154H278.173V90.4941ZM282.331 86.0471H282.312C281.754 86.8653 281.195 87.6931 280.628 88.5305H282.331V86.0568V86.0471Z" fill="white"/>
<path id="Vector_4_2" d="M272.542 85.893C271.955 85.4791 271.368 85.0652 270.771 84.6417C271.493 83.5444 272.427 82.7647 273.765 82.553C274.458 82.4471 275.131 82.4856 275.776 82.7647C276.854 83.2268 277.422 84.0546 277.49 85.2289C277.528 86.0663 277.268 86.8171 276.845 87.5294C276.489 88.1262 276.055 88.6556 275.593 89.1753C275.237 89.5796 274.852 89.9646 274.486 90.3593C274.467 90.3785 274.448 90.3978 274.419 90.4363H277.519C277.451 91.1775 277.393 91.909 277.326 92.6405H271.127V90.9657C271.127 90.8983 271.146 90.8598 271.195 90.8117C272.099 89.8106 273.004 88.8192 273.899 87.8181C274.246 87.4331 274.544 87.0096 274.785 86.5572C274.929 86.2973 275.025 86.0182 275.054 85.7198C275.102 85.1037 274.669 84.6898 274.053 84.7668C273.62 84.815 273.274 85.046 272.985 85.3636C272.831 85.5369 272.696 85.7198 272.542 85.9123V85.893Z" fill="white"/>
<path id="Vector_5_2" d="M296.75 92.9485C295.923 92.7752 295.095 92.6116 294.267 92.4384C295.326 89.8876 296.375 87.3464 297.434 84.786H293.555C293.612 84.093 293.67 83.4096 293.728 82.7166H299.859V84.3818C299.859 84.3818 299.859 84.478 299.84 84.5165C298.82 87.2983 297.799 90.0897 296.779 92.8715C296.779 92.8908 296.76 92.9196 296.75 92.9485Z" fill="white"/>
<path id="Vector_6_2" d="M286.095 92.6117C286.181 92.4288 286.258 92.2652 286.345 92.1016C287.452 89.8299 288.549 87.5679 289.656 85.2963C290.215 84.1509 290.763 83.015 291.322 81.8696C291.35 81.8022 291.389 81.7926 291.456 81.7926C291.976 81.8407 292.496 81.8889 293.016 81.9274C293.131 81.937 293.247 81.9466 293.372 81.9562C293.304 82.1006 293.237 82.245 293.17 82.3894C292.092 84.6033 291.014 86.8268 289.935 89.0406C289.339 90.2631 288.742 91.4855 288.155 92.708C288.135 92.7465 288.116 92.7753 288.058 92.7753C287.414 92.7176 286.769 92.6598 286.095 92.6021V92.6117Z" fill="white"/>
</g>
<path id="Vector_56" d="M280.926 104.316C281.022 103.883 281.08 103.614 281.138 103.286C281.417 101.987 281.022 101.246 280.329 100.755C279.646 100.264 276.71 97.9539 276.094 97.5304C275.757 97.2994 275.276 97.1454 274.737 97.1454C274.294 97.1454 273.803 97.2513 273.341 97.5208C272.321 98.1079 271.734 98.3775 271.445 98.5411C271.349 98.5988 271.137 98.6566 270.858 98.6566C270.338 98.6566 269.549 98.4545 268.702 97.6267C267.691 96.6352 266.411 94.8738 265.852 94.0075C265.294 93.1412 264.226 91.2545 263.744 89.9166C263.128 88.2225 263.783 87.2311 264.052 87.0386C264.322 86.846 264.813 86.4225 265.775 85.7391C266.738 85.0557 267.036 83.9776 266.911 83.2365C266.786 82.4953 265.9 78.8761 265.737 78.0387C265.583 77.2109 265.073 76.5371 263.773 76.258C263.456 76.1809 263.186 76.1136 262.743 76.0269C262.483 75.9692 262.224 75.9403 261.983 75.9403H261.973C261.155 75.9403 260.452 76.2098 260.058 76.4601C257.709 77.9617 255.322 81.3402 256.804 87.2696C258.162 92.6984 260.895 96.5293 261.194 97.001C261.502 97.4726 263.86 101.544 268.23 105.029C270.79 107.079 273.158 107.801 275.151 107.801C276.874 107.801 278.327 107.262 279.415 106.559C279.925 106.232 280.695 105.443 280.926 104.316Z" fill="white"/>
</g>
</g>
</g>
</g>
<g id="Group 1144027">
<g id="Frame 1143845_2" filter="url(#filter4_bd_10333_2618)">
<rect x="61" y="182" width="50" height="50" rx="7" fill="url(#paint19_linear_10333_2618)" shape-rendering="crispEdges"/>
<rect x="61.4897" y="182.49" width="49.0206" height="49.0206" rx="6.51028" stroke="url(#paint20_linear_10333_2618)" stroke-width="0.979435" shape-rendering="crispEdges"/>
<g id="real_time" clip-path="url(#clip4_10333_2618)">
<g id="Layer_1_2" clip-path="url(#clip5_10333_2618)">
<path id="Vector_57" d="M87.1134 198.727V206.712C87.1134 206.971 87.0249 207.221 86.8553 207.42L83.3456 211.69C83.2423 211.807 83.1096 211.903 82.9621 211.962C82.8147 212.021 82.6598 212.043 82.4976 212.029C82.3428 212.014 82.1879 211.962 82.0552 211.881C81.9225 211.8 81.8045 211.682 81.7234 211.549C81.576 211.306 81.5096 211.019 81.5391 210.731C81.5686 210.443 81.6939 210.178 81.893 209.972L84.7465 206.609C84.835 206.506 84.8792 206.381 84.8792 206.248V198.742C84.8645 198.587 84.8792 198.432 84.9308 198.277C84.9825 198.13 85.0636 197.99 85.1668 197.879C85.27 197.761 85.4027 197.673 85.5428 197.606C85.6829 197.54 85.8378 197.51 86 197.51C86.1622 197.51 86.3097 197.54 86.4571 197.606C86.5972 197.673 86.7299 197.761 86.8332 197.879C86.9364 197.997 87.0175 198.13 87.0691 198.277C87.1207 198.425 87.1355 198.58 87.1207 198.742L87.1134 198.727Z" fill="white"/>
<path id="Vector_58" d="M86.5604 195.276V192.497C86.376 192.497 86.1917 192.482 86 192.482C85.8083 192.482 85.6239 192.482 85.4396 192.497V195.276H86.5604Z" fill="white"/>
<path id="Vector_59" d="M85.4396 218.753V221.533C85.6239 221.533 85.8083 221.548 86 221.548C86.1917 221.548 86.376 221.548 86.5604 221.533V218.753H85.4396Z" fill="white"/>
<path id="Vector_60" d="M100.518 206.454H97.7384V207.575H100.518C100.518 207.391 100.533 207.207 100.533 207.015C100.533 206.823 100.533 206.639 100.518 206.454Z" fill="white"/>
<path id="Vector_61" d="M74.2616 206.454H71.4818C71.4818 206.639 71.4671 206.823 71.4671 207.015C71.4671 207.207 71.4671 207.391 71.4818 207.575H74.2616V206.454Z" fill="white"/>
<path id="Vector_62" d="M83.1391 221.378C80.293 220.81 77.6828 219.417 75.633 217.367C73.5832 215.317 72.1896 212.707 71.6219 209.861C71.0541 207.015 71.3491 204.065 72.4551 201.389C73.5685 198.712 75.4413 196.419 77.8524 194.812C80.2635 193.204 83.0949 192.342 86 192.342C89.8858 192.342 93.6167 193.883 96.367 196.633C99.1172 199.383 100.658 203.114 100.658 207C100.658 207.995 100.548 208.983 100.349 209.949C101.233 210.348 102.03 210.886 102.715 211.527C102.819 211.151 102.907 210.768 102.988 210.384C103.659 207.022 103.313 203.542 102 200.371C100.688 197.208 98.4684 194.502 95.6149 192.592C92.7761 190.69 89.4286 189.673 86 189.673C81.4064 189.673 76.9971 191.501 73.7454 194.745C70.4938 197.99 68.6725 202.406 68.6725 207C68.6725 210.429 69.6901 213.776 71.5924 216.63C73.4947 219.476 76.2008 221.703 79.3713 223.015C82.5345 224.327 86.0221 224.667 89.3844 224.003C89.7309 223.937 90.0701 223.848 90.4093 223.76C89.7604 223.067 89.2295 222.263 88.8314 221.386C86.9659 221.754 85.0341 221.762 83.1465 221.386L83.1391 221.378Z" fill="white"/>
<path id="Vector_63" d="M86 220.611C83.3087 220.611 80.6764 219.815 78.4349 218.318C76.1934 216.821 74.4533 214.698 73.421 212.206C72.3887 209.713 72.1233 206.978 72.6468 204.338C73.1703 201.699 74.468 199.273 76.3704 197.37C78.2727 195.468 80.6985 194.17 83.3382 193.647C85.9779 193.123 88.7134 193.389 91.2056 194.421C93.6904 195.453 95.8213 197.193 97.3181 199.435C98.8149 201.676 99.6113 204.309 99.6113 207C99.6113 207.87 99.5228 208.725 99.3606 209.566C99.6555 209.662 99.9504 209.765 100.231 209.89C100.614 208.01 100.629 206.071 100.253 204.169C99.6924 201.352 98.3062 198.757 96.2785 196.729C94.2434 194.694 91.6554 193.315 88.8388 192.755C86.0221 192.194 83.0949 192.482 80.4405 193.581C77.7861 194.679 75.5151 196.545 73.915 198.934C72.315 201.323 71.4671 204.132 71.4671 207.007C71.4671 210.864 73.0007 214.558 75.7215 217.286C78.4497 220.014 82.1437 221.54 86 221.54C86.9364 221.54 87.8581 221.445 88.7724 221.268C88.647 220.98 88.5364 220.692 88.448 220.39C87.6443 220.538 86.8258 220.619 86 220.619V220.611Z" fill="white"/>
<path id="Vector_64" d="M86 221.533C82.1437 221.533 78.4497 219.999 75.7215 217.278C72.9934 214.55 71.4671 210.856 71.4671 207C71.4671 204.124 72.3224 201.315 73.915 198.926C75.515 196.537 77.7787 194.672 80.4405 193.573C83.0949 192.474 86.0147 192.187 88.8387 192.747C91.6628 193.308 94.2508 194.694 96.2785 196.722C98.3135 198.757 99.6924 201.345 100.253 204.161C100.629 206.056 100.614 208.003 100.231 209.883C100.275 209.898 100.312 209.92 100.349 209.942C100.548 208.976 100.658 207.988 100.658 206.993C100.658 203.107 99.1099 199.376 96.367 196.626C93.6167 193.875 89.8858 192.334 86 192.334C83.1023 192.334 80.2635 193.197 77.8524 194.804C75.4413 196.412 73.5611 198.705 72.4551 201.381C71.3417 204.058 71.0542 207.007 71.6219 209.854C72.1897 212.7 73.5832 215.31 75.633 217.36C77.6828 219.409 80.293 220.803 83.1391 221.371C85.0267 221.747 86.9585 221.739 88.824 221.371C88.8093 221.334 88.7871 221.29 88.7724 221.253C87.8655 221.43 86.9364 221.526 86 221.526V221.533Z" fill="white"/>
<path id="Vector_65" fill-rule="evenodd" clip-rule="evenodd" d="M98.2177 211.542C97.7458 211.432 97.2591 211.373 96.7578 211.373C96.6177 211.373 96.4776 211.373 96.3375 211.387C93.1964 211.586 90.6673 214.02 90.3208 217.116C90.2913 217.36 90.2766 217.603 90.2766 217.846C90.2766 218.311 90.3282 218.768 90.424 219.203C91.0508 222.13 93.6462 224.32 96.7578 224.32C100.334 224.32 103.239 221.422 103.239 217.839C103.239 214.764 101.093 212.191 98.2251 211.527L98.2177 211.542ZM97.0379 219.771L95.9614 220.847L93.4029 218.289L94.4794 217.212L95.9614 218.694L99.2942 215.362L100.371 216.438L97.0379 219.771Z" fill="white"/>
</g>
</g>
</g>
</g>
<g id="Group 1144028">
<g id="Frame 1143845_3" filter="url(#filter5_bd_10333_2618)">
<rect x="329" y="255" width="40" height="40" rx="7" fill="url(#paint21_linear_10333_2618)" shape-rendering="crispEdges"/>
<rect x="329.408" y="255.408" width="39.1831" height="39.1831" rx="6.59154" stroke="url(#paint22_linear_10333_2618)" stroke-width="0.816918" shape-rendering="crispEdges"/>
<g id="settings">
<g id="Group 2467">
<path id="Path 38757" d="M350.27 263.93L350.567 265.956L350.77 267.337L352.066 267.87C352.709 268.136 353.315 268.482 353.872 268.899L354.962 269.714L356.231 269.222L358.306 268.418L359.501 270.428L357.825 271.707L356.636 272.61L356.882 274.08C356.938 274.385 356.969 274.693 356.976 275.003C356.969 275.312 356.938 275.621 356.882 275.925L356.636 277.401L357.825 278.304L359.501 279.577L358.306 281.585L356.231 280.786L355.001 280.31L353.92 281.064C353.323 281.49 352.684 281.855 352.013 282.152L350.756 282.697L350.558 284.05L350.262 286.075H347.727L347.43 284.05L347.227 282.664L345.931 282.132C345.288 281.866 344.681 281.519 344.125 281.101L343.036 280.288L341.766 280.78L339.693 281.579L338.496 279.571L340.172 278.298L341.251 277.478L341.136 276.126C341.098 275.689 341.08 275.31 341.08 275C341.08 274.69 341.098 274.313 341.136 273.876L341.251 272.523L340.172 271.704L338.496 270.439L339.693 268.43L341.766 269.233L342.996 269.707L344.072 268.949C344.67 268.523 345.308 268.159 345.979 267.861L347.236 267.316L347.434 265.963L347.73 263.938H350.272L350.27 263.93ZM351.766 261.478H346.231C346.061 261.464 345.893 261.517 345.76 261.624C345.628 261.731 345.542 261.884 345.519 262.053L344.999 265.604C344.176 265.968 343.393 266.415 342.662 266.939L339.218 265.604C339.117 265.552 339.006 265.523 338.893 265.519C338.784 265.524 338.678 265.559 338.586 265.618C338.495 265.678 338.42 265.761 338.372 265.859L335.565 270.559C335.477 270.704 335.449 270.877 335.485 271.042C335.521 271.208 335.62 271.353 335.76 271.448L338.688 273.672C338.645 274.181 338.626 274.625 338.622 275.005C338.619 275.385 338.643 275.83 338.688 276.34L335.76 278.562C335.62 278.657 335.521 278.802 335.485 278.968C335.449 279.133 335.477 279.306 335.565 279.451L338.362 284.152C338.411 284.248 338.486 284.328 338.579 284.383C338.672 284.438 338.778 284.466 338.886 284.464C338.995 284.462 339.104 284.442 339.208 284.406L342.652 283.072C343.371 283.614 344.156 284.062 344.989 284.406L345.509 287.963C345.533 288.132 345.62 288.285 345.753 288.391C345.886 288.498 346.055 288.549 346.225 288.535H351.76C352.194 288.535 352.433 288.344 352.476 287.963L352.996 284.406C353.819 284.043 354.602 283.596 355.333 283.072L358.777 284.406C358.888 284.458 359.008 284.487 359.131 284.491C359.237 284.489 359.341 284.456 359.428 284.396C359.516 284.336 359.584 284.251 359.623 284.152L362.42 279.451C362.507 279.306 362.536 279.133 362.499 278.968C362.463 278.802 362.365 278.657 362.225 278.562L359.297 276.34C359.378 275.899 359.421 275.453 359.428 275.005C359.421 274.558 359.378 274.112 359.297 273.672L362.225 271.448C362.365 271.353 362.464 271.208 362.5 271.042C362.537 270.877 362.508 270.704 362.42 270.559L359.638 265.859C359.589 265.763 359.513 265.683 359.421 265.628C359.328 265.573 359.222 265.545 359.114 265.548C359.004 265.55 358.896 265.569 358.792 265.604L355.348 266.939C354.628 266.398 353.843 265.949 353.011 265.604L352.481 262.053C352.438 261.672 352.199 261.481 351.765 261.481L351.766 261.478Z" fill="white"/>
<path id="Path 38758" d="M349 273.154C349.243 273.148 349.485 273.194 349.709 273.288C349.934 273.383 350.135 273.524 350.3 273.703C350.644 274.041 350.84 274.501 350.844 274.983C350.849 275.464 350.662 275.928 350.325 276.272L350.3 276.297C350.133 276.468 349.934 276.604 349.715 276.698C349.495 276.792 349.26 276.842 349.021 276.844C348.782 276.847 348.545 276.803 348.324 276.714C348.102 276.625 347.9 276.493 347.729 276.327L347.7 276.297C347.529 276.13 347.394 275.931 347.3 275.712C347.207 275.492 347.157 275.257 347.155 275.018C347.153 274.779 347.197 274.543 347.287 274.322C347.376 274.1 347.508 273.899 347.675 273.729L347.7 273.703C347.865 273.524 348.066 273.383 348.291 273.288C348.515 273.193 348.757 273.148 349 273.154V273.154ZM349 270.694C347.86 270.701 346.769 271.156 345.963 271.962C345.157 272.768 344.701 273.86 344.695 274.999C344.701 276.139 345.156 277.231 345.962 278.037C346.768 278.844 347.86 279.299 349 279.304C350.14 279.299 351.232 278.844 352.038 278.037C352.844 277.231 353.299 276.139 353.305 274.999C353.299 273.86 352.843 272.768 352.037 271.962C351.231 271.157 350.14 270.701 349 270.694V270.694Z" fill="white"/>
</g>
</g>
</g>
</g>
</g>
<defs>
<filter id="filter0_d_10333_2618" x="68" y="88" width="199.868" height="135.373" filterUnits="userSpaceOnUse" color-interpolation-filters="sRGB">
<feFlood flood-opacity="0" result="BackgroundImageFix"/>
<feColorMatrix in="SourceAlpha" type="matrix" values="0 0 0 0 0 0 0 0 0 0 0 0 0 0 0 0 0 0 127 0" result="hardAlpha"/>
<feOffset dy="4"/>
<feGaussianBlur stdDeviation="5"/>
<feColorMatrix type="matrix" values="0 0 0 0 0 0 0 0 0 0 0 0 0 0 0 0 0 0 0.38 0"/>
<feBlend mode="normal" in2="BackgroundImageFix" result="effect1_dropShadow_10333_2618"/>
<feBlend mode="normal" in="SourceGraphic" in2="effect1_dropShadow_10333_2618" result="shape"/>
</filter>
<filter id="filter1_bd_10333_2618" x="50.963" y="66.963" width="233.942" height="169.447" filterUnits="userSpaceOnUse" color-interpolation-filters="sRGB">
<feFlood flood-opacity="0" result="BackgroundImageFix"/>
<feGaussianBlur in="BackgroundImageFix" stdDeviation="13.5185"/>
<feComposite in2="SourceAlpha" operator="in" result="effect1_backgroundBlur_10333_2618"/>
<feColorMatrix in="SourceAlpha" type="matrix" values="0 0 0 0 0 0 0 0 0 0 0 0 0 0 0 0 0 0 127 0" result="hardAlpha"/>
<feMorphology radius="0.970681" operator="erode" in="SourceAlpha" result="effect2_dropShadow_10333_2618"/>
<feOffset dy="3.88273"/>
<feGaussianBlur stdDeviation="9.62066"/>
<feComposite in2="hardAlpha" operator="out"/>
<feColorMatrix type="matrix" values="0 0 0 0 0 0 0 0 0 0 0 0 0 0 0 0 0 0 0.2 0"/>
<feBlend mode="normal" in2="effect1_backgroundBlur_10333_2618" result="effect2_dropShadow_10333_2618"/>
<feBlend mode="normal" in="SourceGraphic" in2="effect2_dropShadow_10333_2618" result="shape"/>
</filter>
<filter id="filter2_d_10333_2618" x="122" y="139" width="190" height="130.229" filterUnits="userSpaceOnUse" color-interpolation-filters="sRGB">
<feFlood flood-opacity="0" result="BackgroundImageFix"/>
<feColorMatrix in="SourceAlpha" type="matrix" values="0 0 0 0 0 0 0 0 0 0 0 0 0 0 0 0 0 0 127 0" result="hardAlpha"/>
<feOffset dy="4"/>
<feGaussianBlur stdDeviation="5"/>
<feColorMatrix type="matrix" values="0 0 0 0 0 0 0 0 0 0 0 0 0 0 0 0 0 0 0.38 0"/>
<feBlend mode="normal" in2="BackgroundImageFix" result="effect1_dropShadow_10333_2618"/>
<feBlend mode="normal" in="SourceGraphic" in2="effect1_dropShadow_10333_2618" result="shape"/>
</filter>
<filter id="filter3_bd_10333_2618" x="224.407" y="36.6406" width="107.186" height="107.186" filterUnits="userSpaceOnUse" color-interpolation-filters="sRGB">
<feFlood flood-opacity="0" result="BackgroundImageFix"/>
<feGaussianBlur in="BackgroundImageFix" stdDeviation="3.65501"/>
<feComposite in2="SourceAlpha" operator="in" result="effect1_backgroundBlur_10333_2618"/>
<feColorMatrix in="SourceAlpha" type="matrix" values="0 0 0 0 0 0 0 0 0 0 0 0 0 0 0 0 0 0 127 0" result="hardAlpha"/>
<feMorphology radius="0.808387" operator="erode" in="SourceAlpha" result="effect2_dropShadow_10333_2618"/>
<feOffset dy="3.23355"/>
<feGaussianBlur stdDeviation="9.70065"/>
<feComposite in2="hardAlpha" operator="out"/>
<feColorMatrix type="matrix" values="0 0 0 0 0 0 0 0 0 0 0 0 0 0 0 0 0 0 0.2 0"/>
<feBlend mode="normal" in2="effect1_backgroundBlur_10333_2618" result="effect2_dropShadow_10333_2618"/>
<feBlend mode="normal" in="SourceGraphic" in2="effect2_dropShadow_10333_2618" result="shape"/>
</filter>
<filter id="filter4_bd_10333_2618" x="47.2305" y="170.625" width="77.539" height="77.539" filterUnits="userSpaceOnUse" color-interpolation-filters="sRGB">
<feFlood flood-opacity="0" result="BackgroundImageFix"/>
<feGaussianBlur in="BackgroundImageFix" stdDeviation="2.70682"/>
<feComposite in2="SourceAlpha" operator="in" result="effect1_backgroundBlur_10333_2618"/>
<feColorMatrix in="SourceAlpha" type="matrix" values="0 0 0 0 0 0 0 0 0 0 0 0 0 0 0 0 0 0 127 0" result="hardAlpha"/>
<feMorphology radius="0.598675" operator="erode" in="SourceAlpha" result="effect2_dropShadow_10333_2618"/>
<feOffset dy="2.3947"/>
<feGaussianBlur stdDeviation="7.1841"/>
<feComposite in2="hardAlpha" operator="out"/>
<feColorMatrix type="matrix" values="0 0 0 0 0 0 0 0 0 0 0 0 0 0 0 0 0 0 0.2 0"/>
<feBlend mode="normal" in2="effect1_backgroundBlur_10333_2618" result="effect2_dropShadow_10333_2618"/>
<feBlend mode="normal" in="SourceGraphic" in2="effect2_dropShadow_10333_2618" result="shape"/>
</filter>
<filter id="filter5_bd_10333_2618" x="317.515" y="245.513" width="62.9695" height="62.9695" filterUnits="userSpaceOnUse" color-interpolation-filters="sRGB">
<feFlood flood-opacity="0" result="BackgroundImageFix"/>
<feGaussianBlur in="BackgroundImageFix" stdDeviation="2.25768"/>
<feComposite in2="SourceAlpha" operator="in" result="effect1_backgroundBlur_10333_2618"/>
<feColorMatrix in="SourceAlpha" type="matrix" values="0 0 0 0 0 0 0 0 0 0 0 0 0 0 0 0 0 0 127 0" result="hardAlpha"/>
<feMorphology radius="0.499337" operator="erode" in="SourceAlpha" result="effect2_dropShadow_10333_2618"/>
<feOffset dy="1.99735"/>
<feGaussianBlur stdDeviation="5.99204"/>
<feComposite in2="hardAlpha" operator="out"/>
<feColorMatrix type="matrix" values="0 0 0 0 0 0 0 0 0 0 0 0 0 0 0 0 0 0 0.2 0"/>
<feBlend mode="normal" in2="effect1_backgroundBlur_10333_2618" result="effect2_dropShadow_10333_2618"/>
<feBlend mode="normal" in="SourceGraphic" in2="effect2_dropShadow_10333_2618" result="shape"/>
</filter>
<linearGradient id="paint0_linear_10333_2618" x1="373.568" y1="178.525" x2="6.41197" y2="171.513" gradientUnits="userSpaceOnUse">
<stop stop-color="#15C1E6"/>
<stop offset="0.0923253" stop-color="#091B36" stop-opacity="0"/>
<stop offset="0.909898" stop-color="#091B36" stop-opacity="0"/>
<stop offset="1" stop-color="#15C1E6"/>
</linearGradient>
<linearGradient id="paint1_linear_10333_2618" x1="182.907" y1="20.102" x2="188.486" y2="329.383" gradientUnits="userSpaceOnUse">
<stop stop-color="#15C1E6"/>
<stop offset="0.143865" stop-color="#091B36" stop-opacity="0"/>
<stop offset="0.876247" stop-color="#091B36" stop-opacity="0"/>
<stop offset="1" stop-color="#15C1E6"/>
</linearGradient>
<linearGradient id="paint2_linear_10333_2618" x1="181.867" y1="44.8883" x2="189.164" y2="299.047" gradientUnits="userSpaceOnUse">
<stop stop-color="#15C1E6"/>
<stop offset="0.382702" stop-color="#091B36" stop-opacity="0"/>
<stop offset="0.641409" stop-color="#091B36" stop-opacity="0"/>
<stop offset="1" stop-color="#15C1E6"/>
</linearGradient>
<linearGradient id="paint3_linear_10333_2618" x1="104.029" y1="89.0407" x2="257.672" y2="202.807" gradientUnits="userSpaceOnUse">
<stop offset="0.28" stop-color="#092349"/>
<stop offset="1" stop-color="#003C97"/>
</linearGradient>
<linearGradient id="paint4_linear_10333_2618" x1="102.451" y1="96.3075" x2="233.982" y2="206" gradientUnits="userSpaceOnUse">
<stop stop-color="white" stop-opacity="0"/>
<stop offset="1" stop-color="#BBB7FF"/>
</linearGradient>
<linearGradient id="paint5_linear_10333_2618" x1="156.63" y1="149.456" x2="294.15" y2="258.642" gradientUnits="userSpaceOnUse">
<stop offset="0.28" stop-color="#092349"/>
<stop offset="1" stop-color="#003C97"/>
</linearGradient>
<linearGradient id="paint6_linear_10333_2618" x1="155.143" y1="155.843" x2="271.94" y2="260.287" gradientUnits="userSpaceOnUse">
<stop stop-color="white" stop-opacity="0"/>
<stop offset="1" stop-color="#BBB7FF"/>
</linearGradient>
<linearGradient id="paint7_linear_10333_2618" x1="158.518" y1="153.629" x2="162.964" y2="194.122" gradientUnits="userSpaceOnUse">
<stop offset="0.28" stop-color="#0A673D"/>
<stop offset="1" stop-color="#069C59"/>
</linearGradient>
<linearGradient id="paint8_linear_10333_2618" x1="155.109" y1="159.374" x2="159.989" y2="191.072" gradientUnits="userSpaceOnUse">
<stop stop-color="white" stop-opacity="0"/>
<stop offset="1" stop-color="#BBB7FF"/>
</linearGradient>
<linearGradient id="paint9_linear_10333_2618" x1="156.601" y1="199.977" x2="177.724" y2="265.573" gradientUnits="userSpaceOnUse">
<stop offset="0.28" stop-color="#092349"/>
<stop offset="1" stop-color="#003C97"/>
</linearGradient>
<linearGradient id="paint10_linear_10333_2618" x1="155.109" y1="201.614" x2="171.037" y2="257.323" gradientUnits="userSpaceOnUse">
<stop stop-color="white" stop-opacity="0"/>
<stop offset="1" stop-color="#BBB7FF"/>
</linearGradient>
<linearGradient id="paint11_linear_10333_2618" x1="156.666" y1="144.364" x2="163.997" y2="184.255" gradientUnits="userSpaceOnUse">
<stop offset="0.28" stop-color="#092349"/>
<stop offset="1" stop-color="#003C97"/>
</linearGradient>
<linearGradient id="paint12_linear_10333_2618" x1="155.177" y1="145.296" x2="160.633" y2="178.732" gradientUnits="userSpaceOnUse">
<stop stop-color="white" stop-opacity="0"/>
<stop offset="1" stop-color="#BBB7FF"/>
</linearGradient>
<linearGradient id="paint13_linear_10333_2618" x1="136.637" y1="288.038" x2="178.674" y2="308.003" gradientUnits="userSpaceOnUse">
<stop stop-color="#0B3168"/>
<stop offset="0.49" stop-color="#004FC6"/>
</linearGradient>
<linearGradient id="paint14_linear_10333_2618" x1="136.295" y1="290.491" x2="173.848" y2="310.579" gradientUnits="userSpaceOnUse">
<stop stop-color="white" stop-opacity="0"/>
<stop offset="1" stop-color="#BBB7FF"/>
</linearGradient>
<linearGradient id="paint15_linear_10333_2618" x1="157.868" y1="282.586" x2="200.818" y2="344.291" gradientUnits="userSpaceOnUse">
<stop stop-color="#0B3168"/>
<stop offset="0.49" stop-color="#004FC6"/>
</linearGradient>
<linearGradient id="paint16_linear_10333_2618" x1="156.995" y1="284.658" x2="191.093" y2="339.831" gradientUnits="userSpaceOnUse">
<stop stop-color="white" stop-opacity="0"/>
<stop offset="1" stop-color="#BBB7FF"/>
</linearGradient>
<linearGradient id="paint17_linear_10333_2618" x1="245.857" y1="52" x2="316.433" y2="79.4359" gradientUnits="userSpaceOnUse">
<stop stop-color="white" stop-opacity="0.14"/>
<stop offset="1" stop-color="white" stop-opacity="0.4"/>
</linearGradient>
<linearGradient id="paint18_linear_10333_2618" x1="252.516" y1="53.4" x2="319.996" y2="89.4976" gradientUnits="userSpaceOnUse">
<stop stop-color="white" stop-opacity="0.4"/>
<stop offset="1" stop-color="#00E0FF"/>
</linearGradient>
<linearGradient id="paint19_linear_10333_2618" x1="63.0405" y1="182" x2="113.452" y2="201.597" gradientUnits="userSpaceOnUse">
<stop stop-color="white" stop-opacity="0.14"/>
<stop offset="1" stop-color="white" stop-opacity="0.4"/>
</linearGradient>
<linearGradient id="paint20_linear_10333_2618" x1="67.7969" y1="183" x2="115.997" y2="208.784" gradientUnits="userSpaceOnUse">
<stop stop-color="white" stop-opacity="0.4"/>
<stop offset="1" stop-color="#00E0FF"/>
</linearGradient>
<linearGradient id="paint21_linear_10333_2618" x1="330.632" y1="255" x2="370.962" y2="270.678" gradientUnits="userSpaceOnUse">
<stop stop-color="white" stop-opacity="0.14"/>
<stop offset="1" stop-color="white" stop-opacity="0.4"/>
</linearGradient>
<linearGradient id="paint22_linear_10333_2618" x1="334.438" y1="255.8" x2="372.998" y2="276.427" gradientUnits="userSpaceOnUse">
<stop stop-color="white" stop-opacity="0.4"/>
<stop offset="1" stop-color="#00E0FF"/>
</linearGradient>
<clipPath id="clip0_10333_2618">
<rect width="379" height="350" fill="white"/>
</clipPath>
<clipPath id="clip1_10333_2618">
<rect x="78" y="94" width="179.868" height="115.373" rx="5.73284" fill="white"/>
</clipPath>
<clipPath id="clip2_10333_2618">
<rect width="111.973" height="44.6681" fill="white" transform="translate(131 284)"/>
</clipPath>
<clipPath id="clip3_10333_2618">
<rect width="43.5171" height="41.4957" fill="white" transform="translate(256.342 66.3051)"/>
</clipPath>
<clipPath id="clip4_10333_2618">
<rect width="34.6549" height="34.6549" fill="white" transform="translate(68.6725 189.673)"/>
</clipPath>
<clipPath id="clip5_10333_2618">
<rect width="34.6549" height="34.6549" fill="white" transform="translate(68.6725 189.673)"/>
</clipPath>
</defs>
</svg>
