<svg width="271" height="104" viewBox="0 0 271 104" fill="none" xmlns="http://www.w3.org/2000/svg">
<path d="M154.234 4.22469C155.002 5.68412 154.618 6.91312 154.08 8.21893C153.234 10.3697 153.465 12.4436 155.002 14.2103C156.54 16.0538 158.692 16.2842 160.922 15.8234C163.997 15.132 165.765 12.2132 165.304 8.98706C165.073 7.45081 164.151 5.91456 164.996 4.22469C164.228 4.60875 164.228 4.60875 163.305 6.145C162.459 5.14644 161.691 4.07106 160.768 2.99568C159.999 2.15074 159.231 1.38262 159.692 0C158.769 0.460875 158.308 1.07537 158.001 1.84349C157.77 2.61162 157.616 3.37974 157.462 4.14787C157.309 4.91599 156.924 5.60731 156.156 6.06818C155.694 5.22324 155.233 4.60875 154.234 4.22469Z" fill="white"/>
<path d="M88.7996 48.9877V13.5594L84.6201 12.8716V9.59093L95.5185 8.21519L97.3701 7.95288V9.37928V21.4199C97.7934 20.9965 98.3224 20.5203 98.9573 20.1499C99.5392 19.7266 100.227 19.3562 100.915 19.0388C101.655 18.7213 102.396 18.4567 103.243 18.2451C104.089 18.0334 104.988 17.9276 105.941 17.9276C107.634 17.9276 109.221 18.1921 110.702 18.7742C112.183 19.3562 113.506 20.2558 114.617 21.4728C115.728 22.7427 116.627 24.3301 117.315 26.3408C117.95 28.3515 118.32 30.7326 118.32 33.6429C118.32 36.1298 117.95 38.4051 117.209 40.5745C116.469 42.744 115.358 44.543 113.929 46.1304C112.501 47.7178 110.755 48.9348 108.745 49.8344C106.681 50.7339 104.406 51.2101 101.814 51.2101C100.015 51.2101 98.3753 51.1043 96.8411 50.9455C95.3597 50.7868 94.0371 50.5751 92.9261 50.3106C91.8151 50.046 90.9158 49.8344 90.228 49.5698C89.5402 49.3052 89.0112 49.1465 88.7996 48.9877ZM102.396 23.0602C101.232 23.0602 100.227 23.2718 99.3805 23.6951C98.534 24.1184 97.8463 24.5947 97.3701 25.1238V46.0775C97.6346 46.5008 98.1108 46.8712 98.8514 47.0829C99.5921 47.3474 100.491 47.4533 101.444 47.4533C102.713 47.4533 103.824 47.1358 104.724 46.4479C105.676 45.76 106.417 44.8605 107.052 43.6964C107.687 42.5323 108.11 41.1566 108.427 39.6221C108.745 38.0876 108.903 36.3944 108.903 34.6482C108.903 32.8492 108.798 31.2088 108.533 29.7273C108.268 28.2986 107.898 27.0816 107.316 26.0762C106.787 25.0709 106.099 24.3301 105.253 23.801C104.512 23.3247 103.507 23.0602 102.396 23.0602Z" fill="white"/>
<path d="M122.939 50.2651V46.5082L126.96 45.9791V24.4962L123.151 23.3321V19.0991L132.674 17.7233H132.832L134.314 18.9403V21.2685L134.261 25.6074H134.366C134.578 25.0254 135.001 24.2846 135.583 23.3851C136.165 22.4855 136.906 21.586 137.752 20.7394C138.599 19.8928 139.604 19.152 140.715 18.5699C141.826 17.9879 143.043 17.6704 144.365 17.6704C144.947 17.6704 145.371 17.6704 145.688 17.7233C146.005 17.7762 146.27 17.8292 146.482 17.8821V27.5652C146.27 27.4065 145.741 27.2477 144.894 27.089C144.048 26.9303 142.99 26.8244 141.826 26.8244C141.191 26.8244 140.503 26.8773 139.869 26.9303C139.234 26.9832 138.599 27.089 138.017 27.2477C137.435 27.3536 136.959 27.5123 136.483 27.671C136.007 27.8298 135.689 27.9885 135.425 28.1473V45.9262L142.355 46.614V50.2651H122.939Z" fill="white"/>
<path d="M152.416 50.5746V46.8178L156.489 46.2886V24.8058L152.733 23.5888V19.4086L162.996 18.0329L165.166 17.8186V19.2499V46.2357L169.186 46.8178V50.5746H152.416Z" fill="white"/>
<path d="M187.838 40.2534C186.25 40.2534 184.771 40.1432 183.456 39.9229C183.127 40.2534 182.853 40.6389 182.634 41.0796C182.415 41.5202 182.306 42.0159 182.306 42.6218C182.306 43.2828 182.415 43.8336 182.689 44.2742C182.963 44.6598 183.346 44.9903 183.894 45.2106C184.442 45.4309 185.099 45.5962 185.976 45.6512C186.852 45.7063 187.838 45.7614 188.988 45.7614H194.74C198.902 45.7614 201.97 46.4774 204.051 47.8545C206.078 49.2865 207.119 51.5999 207.119 54.7946C207.119 56.7224 206.626 58.54 205.585 60.1374C204.599 61.7347 203.23 63.0566 201.477 64.2133C199.779 65.3149 197.752 66.1962 195.506 66.8021C193.261 67.408 190.905 67.7385 188.441 67.7385H188.386C185.647 67.7385 183.346 67.5181 181.429 67.0224C179.512 66.5267 177.924 65.8657 176.664 65.0395C175.404 64.2133 174.528 63.1668 173.925 62.0101C173.323 60.8534 173.049 59.5315 173.049 58.1545C173.049 57.2732 173.213 56.447 173.542 55.6208C173.87 54.8497 174.309 54.1336 174.856 53.4726C175.404 52.8117 176.007 52.2609 176.774 51.7652C177.486 51.2694 178.252 50.8839 179.019 50.6085C177.924 50.0026 177.047 49.2865 176.445 48.4053C175.842 47.524 175.568 46.4774 175.568 45.2657C175.568 43.7785 175.952 42.5667 176.719 41.5202C177.486 40.5288 178.472 39.5924 179.677 38.8213C177.705 37.94 176.281 36.6731 175.349 35.0207C174.418 33.3683 173.925 31.4405 173.925 29.2373C173.925 27.4747 174.309 25.9325 175.075 24.5004C175.842 23.0683 176.938 21.8565 178.252 20.8651C179.622 19.8736 181.155 19.1025 182.963 18.5517C184.771 18.0009 186.688 17.7255 188.714 17.7255H188.769C193.589 17.7255 197.15 18.6619 199.505 20.5346C199.779 20.2041 200.162 19.8736 200.6 19.5431C201.039 19.2127 201.586 18.8822 202.189 18.6068C202.791 18.3314 203.449 18.1111 204.161 17.9458C204.873 17.7806 205.64 17.6704 206.461 17.6704H207.831V24.1699H202.134C202.353 24.7758 202.518 25.4367 202.627 26.0977C202.737 26.7587 202.791 27.5298 202.791 28.3009C202.791 30.0635 202.408 31.6608 201.696 33.0929C200.984 34.525 199.943 35.7918 198.629 36.8935C197.314 37.94 195.726 38.7662 193.918 39.3721C192.056 39.978 190.084 40.2534 187.838 40.2534ZM186.359 51.9855C185.099 51.9855 183.949 51.8753 182.908 51.7101C182.525 52.1507 182.141 52.7015 181.813 53.3625C181.484 54.0235 181.32 55.0149 181.32 56.1716C181.32 57.4935 181.484 58.5951 181.813 59.4764C182.141 60.3577 182.689 61.1288 183.346 61.6796C184.004 62.2304 184.88 62.6711 185.866 62.8914C186.852 63.1668 188.002 63.277 189.317 63.277H189.372C190.522 63.277 191.672 63.1668 192.822 62.8914C193.918 62.616 194.959 62.2304 195.835 61.6796C196.711 61.1288 197.424 60.4128 197.917 59.5866C198.464 58.7604 198.738 57.7689 198.738 56.6673C198.738 55.8411 198.629 55.07 198.464 54.4641C198.3 53.8582 197.971 53.3625 197.478 52.9769C196.985 52.5914 196.383 52.316 195.561 52.1507C194.74 51.9855 193.699 51.8753 192.439 51.8753H186.359V51.9855ZM188.55 36.3977C189.536 36.3977 190.358 36.1774 191.015 35.7919C191.672 35.4063 192.165 34.8555 192.549 34.1945C192.932 33.5336 193.151 32.7073 193.315 31.771C193.48 30.8346 193.535 29.8432 193.535 28.8517C193.535 26.318 193.151 24.4453 192.33 23.2886C191.508 22.1319 190.193 21.5811 188.276 21.5811H188.221C186.414 21.5811 185.099 22.187 184.278 23.3437C183.456 24.5004 183.018 26.2079 183.018 28.5763C183.018 29.733 183.127 30.7795 183.292 31.7159C183.456 32.6523 183.785 33.4785 184.168 34.1945C184.606 34.8555 185.154 35.4063 185.866 35.7919C186.578 36.1774 187.455 36.3977 188.55 36.3977Z" fill="white"/>
<path d="M210.93 50.5746V46.8178L214.368 46.2357V13.2536L210.189 12.5657V9.28506L221.034 7.90931L221.665 7.80347H222.844L222.939 18.0858L222.844 22.0892C223.32 21.613 223.627 21.5781 224.42 21.0489C225.214 20.5198 226.007 20.0436 226.96 19.6203C227.912 19.197 228.97 18.8266 230.081 18.5091C231.192 18.2445 232.409 18.0858 233.626 18.0858C235.424 18.0858 236.959 18.3504 238.123 18.8266C239.286 19.3028 240.239 20.0965 240.979 21.1548C241.72 22.213 242.143 23.5359 242.461 25.1233C242.725 26.7107 242.884 28.6156 242.884 30.785V46.2357L246.799 46.8178V50.5746H231.192V46.9236L234.313 46.2887V30.7321C234.313 29.4622 234.261 28.351 234.102 27.3986C233.996 26.4461 233.731 25.7053 233.361 25.0704C232.991 24.4354 232.515 24.0121 231.88 23.7475C231.245 23.483 230.399 23.3242 229.393 23.3242C228.811 23.3242 228.229 23.3771 227.595 23.5359C226.96 23.6946 226.378 23.8534 225.849 24.0121C225.267 24.2238 224.738 24.4354 224.262 24.7C223.785 24.9645 223.362 25.2291 222.992 25.4937V46.2887L226.801 46.8707V50.6276H210.93V50.5746Z" fill="white"/>
<path d="M253.012 44.0962V23.5658H249.098V20.391C249.256 20.3381 249.468 20.2852 249.785 20.1794C250.103 20.0735 250.42 19.9148 250.79 19.809C251.108 19.7032 251.425 19.5444 251.743 19.4386C252.06 19.3328 252.219 19.2269 252.272 19.174C252.907 18.6978 253.542 17.7983 254.229 16.4754C254.441 16.105 254.6 15.6817 254.864 15.1526C255.129 14.6235 255.287 14.1472 255.499 13.6181C255.711 13.089 255.922 12.5598 256.081 12.0307C256.293 11.5016 256.398 11.0254 256.557 10.6021H261.53L261.636 18.8565H269.836V23.6187H261.636V39.0695C261.636 40.551 261.636 41.7151 261.689 42.6147C261.742 43.5142 261.848 44.1491 262.006 44.5725C262.165 44.9958 262.482 45.3132 262.853 45.4191C263.223 45.5249 263.752 45.6307 264.387 45.6307H264.44C264.863 45.6307 265.339 45.5778 265.868 45.5249C266.344 45.472 266.821 45.3662 267.297 45.2603C267.773 45.1545 268.196 45.0487 268.619 44.9428C269.043 44.837 269.36 44.7312 269.624 44.6254H269.677L271 47.906C270.418 48.3293 269.783 48.7526 268.937 49.1759C268.09 49.5992 267.244 49.9696 266.239 50.34C265.233 50.7104 264.228 50.975 263.117 51.1866C262.006 51.3983 260.948 51.5041 259.837 51.5041H259.784C258.567 51.5041 257.509 51.3454 256.663 51.0279C255.816 50.7104 255.076 50.2342 254.547 49.5992C254.018 48.9643 253.647 48.2235 253.383 47.271C253.118 46.3186 253.012 45.3132 253.012 44.0962Z" fill="white"/>
<path d="M3.86871 44.3458V23.9735H0.0784198V21.5184C0.618645 21.3443 1.15016 21.1615 1.67296 20.9699C2.21318 20.7784 2.60528 20.6043 2.84925 20.4476C3.42433 20.0471 3.91228 19.3941 4.31309 18.4887C4.4525 18.1753 4.62677 17.7661 4.83589 17.2611C5.04501 16.7388 5.24541 16.2077 5.43711 15.6679C5.64623 15.1281 5.82921 14.6145 5.98604 14.1269C6.16031 13.6394 6.2823 13.2563 6.352 12.9777H9.69792V20.1864H18.4548V23.9735H9.69792V39.5923C9.69792 41.142 9.71534 42.3521 9.7502 43.2227C9.80247 44.0933 9.92446 44.7376 10.1162 45.1555C10.3253 45.5734 10.6302 45.8346 11.0311 45.939C11.4319 46.0261 11.9808 46.0696 12.6779 46.0696H12.704C13.2094 46.0696 13.7322 46.0348 14.2724 45.9651C14.8301 45.8955 15.3703 45.8171 15.8931 45.7301C16.4159 45.6256 16.8951 45.5211 17.3308 45.4167C17.7664 45.2948 18.115 45.1816 18.3764 45.0771H18.4025L19.2913 47.6367C18.873 47.9501 18.298 48.281 17.566 48.6292C16.8341 48.96 16.0325 49.2648 15.1612 49.5434C14.3073 49.8219 13.4185 50.0483 12.4949 50.2224C11.5713 50.414 10.6999 50.5097 9.88089 50.5097H9.82862C8.905 50.5097 8.07724 50.4053 7.34532 50.1963C6.6134 49.9874 5.98604 49.6478 5.46325 49.1777C4.95787 48.6902 4.56577 48.0546 4.28695 47.2711C4.00812 46.4701 3.86871 45.495 3.86871 44.3458Z" fill="#9FC0FF"/>
<path d="M21.3511 49.909V47.036L24.514 46.592V10.157L20.2271 9.68683V7.2056L28.9055 6.03027H29.0362L30.3171 6.94441L30.3432 18.9849L30.1341 23.7124C30.6221 23.2771 31.232 22.8156 31.9639 22.3281C32.6958 21.8405 33.5149 21.3878 34.4211 20.9699C35.3272 20.552 36.2944 20.2125 37.3226 19.9513C38.3682 19.6727 39.4399 19.5334 40.5378 19.5334C42.2282 19.5334 43.6223 19.7772 44.7202 20.2647C45.8181 20.7349 46.6894 21.4749 47.3342 22.4848C47.9964 23.4947 48.4582 24.7832 48.7196 26.3503C48.981 27.9174 49.1117 29.7805 49.1117 31.9396V46.592L52.9543 47.036V49.909H39.8059V47.0882L43.2825 46.6181V31.9135C43.2825 30.5205 43.2128 29.3017 43.0734 28.2569C42.9514 27.2122 42.6987 26.3416 42.3153 25.6451C41.9319 24.9486 41.383 24.4263 40.6685 24.078C39.9714 23.7298 39.0478 23.5556 37.8977 23.5556C36.6255 23.5556 35.3098 23.7733 33.9505 24.2086C32.6087 24.6439 31.4063 25.2533 30.3432 26.0369V46.592L34.1335 47.036V49.909H21.3511Z" fill="#9FC0FF"/>
<path d="M66.7593 50.5097C64.5461 50.5097 62.6031 50.1267 60.9301 49.3605C59.2746 48.5944 57.8891 47.5235 56.7738 46.148C55.6585 44.7724 54.8221 43.1357 54.2644 41.2377C53.7068 39.3224 53.4279 37.2242 53.4279 34.9432C53.4279 32.6274 53.7765 30.5205 54.4735 28.6226C55.1706 26.7073 56.1378 25.0705 57.3751 23.7124C58.6298 22.3368 60.111 21.2747 61.8189 20.5259C63.5267 19.7772 65.3913 19.4028 67.4128 19.4028C70.7064 19.4028 73.2594 20.2996 75.0718 22.093C76.8842 23.8691 77.8688 26.507 78.0256 30.0069C78.043 31.1387 78.0343 32.1312 77.9995 32.9844C77.9646 33.8201 77.8775 34.5602 77.7381 35.2044H59.6492V35.3611C59.7189 37.3461 60.0065 39.0438 60.5119 40.4542C61.0172 41.8646 61.6707 43.0225 62.4724 43.9279C63.2914 44.8159 64.2237 45.4689 65.2693 45.8868C66.3149 46.2873 67.4041 46.4875 68.5368 46.4875C69.2862 46.4875 70.0442 46.4179 70.811 46.2786C71.5778 46.1393 72.3097 45.9564 73.0067 45.7301C73.7212 45.5037 74.366 45.2425 74.9411 44.9465C75.5336 44.6505 76.0215 44.3545 76.4049 44.0585L77.5028 46.6181C76.9974 47.1231 76.3527 47.6106 75.5685 48.0807C74.8017 48.5509 73.9391 48.9688 72.9806 49.3344C72.0396 49.6827 71.0375 49.9612 69.9745 50.1702C68.9115 50.3965 67.8398 50.5097 66.7593 50.5097ZM66.1058 22.537C65.2345 22.537 64.4241 22.6937 63.6748 23.0072C62.9254 23.3032 62.2632 23.8168 61.6882 24.5481C61.1305 25.2795 60.6687 26.2545 60.3027 27.4734C59.9542 28.6922 59.7364 30.2245 59.6492 32.0702H71.7782C71.813 31.722 71.8304 31.3563 71.8304 30.9732C71.8479 30.5902 71.8566 30.2332 71.8566 29.9024C71.8566 28.9273 71.752 27.9958 71.5429 27.1077C71.3338 26.2197 71.0027 25.4362 70.5496 24.7571C70.0965 24.078 69.504 23.5382 68.7721 23.1378C68.0576 22.7373 67.1688 22.537 66.1058 22.537Z" fill="#9FC0FF"/>
<path d="M0 103.399V100.526L4.31309 100.082V78.3518L0.653498 77.2026V74.0684L8.62618 72.9976H8.75688L10.1423 74.0423V100.108L14.377 100.526V103.399H0ZM6.37814 68.0612C5.87277 68.0612 5.41097 67.9742 4.99273 67.8C4.57449 67.6085 4.21724 67.356 3.92099 67.0426C3.62474 66.7118 3.39819 66.3287 3.24135 65.8934C3.08451 65.4407 3.00609 64.9619 3.00609 64.4569C3.00609 63.8997 3.08451 63.3686 3.24135 62.8637C3.41562 62.3587 3.65959 61.9147 3.97327 61.5317C4.30438 61.1312 4.7139 60.8177 5.20185 60.5914C5.68979 60.3476 6.25616 60.2257 6.90094 60.2257H6.92708C7.50216 60.2257 8.00753 60.3302 8.4432 60.5392C8.87886 60.7481 9.24482 61.0267 9.54108 61.3749C9.83733 61.7058 10.0639 62.0888 10.2207 62.5241C10.3776 62.9594 10.456 63.4122 10.456 63.8823C10.456 64.4743 10.3688 65.0228 10.1946 65.5278C10.0377 66.0327 9.78505 66.4767 9.43652 66.8598C9.10541 67.2254 8.68717 67.5214 8.1818 67.7478C7.67643 67.9568 7.08392 68.0612 6.40428 68.0612H6.37814Z" fill="#9FC0FF"/>
<path d="M17.9592 103.399V100.526L21.4619 100.082V78.3518L17.8023 77.2026V74.0684L25.2522 72.9976H25.3829L26.6638 74.0423V76.0795L26.6115 77.2026C27.1866 76.6803 27.8924 76.1753 28.7288 75.6878C29.5827 75.1828 30.4889 74.7388 31.4474 74.3557C32.4058 73.9553 33.3905 73.6331 34.4012 73.3894C35.4119 73.1456 36.3791 73.0237 37.3027 73.0237C39.028 73.0237 40.4482 73.2588 41.5635 73.7289C42.6788 74.199 43.5502 74.939 44.1775 75.949C44.8223 76.9589 45.2667 78.2474 45.5107 79.8145C45.7546 81.3641 45.8766 83.236 45.8766 85.4299V100.082L49.7453 100.526V103.399H36.597V100.526L40.0474 100.082V85.4038C40.0474 84.0108 39.9864 82.7919 39.8644 81.7472C39.7425 80.7025 39.4898 79.8319 39.1064 79.1354C38.7404 78.4389 38.2089 77.9165 37.5118 77.5683C36.8148 77.22 35.8999 77.0459 34.7672 77.0459C33.4427 77.0459 32.1096 77.2897 30.7677 77.7772C29.4433 78.2474 28.2845 78.8481 27.2911 79.5794V100.082L30.9769 100.526V103.399H17.9592Z" fill="#9FC0FF"/>
<path d="M52.1251 103.399V100.526L56.4382 100.082V78.3518L52.7786 77.2026V74.0684L60.7513 72.9976H60.882L62.2674 74.0423V100.108L66.5021 100.526V103.399H52.1251ZM58.5033 68.0612C57.9979 68.0612 57.5361 67.9742 57.1178 67.8C56.6996 67.6085 56.3424 67.356 56.0461 67.0426C55.7499 66.7118 55.5233 66.3287 55.3665 65.8934C55.2096 65.4407 55.1312 64.9619 55.1312 64.4569C55.1312 63.8997 55.2096 63.3686 55.3665 62.8637C55.5407 62.3587 55.7847 61.9147 56.0984 61.5317C56.4295 61.1312 56.839 60.8177 57.327 60.5914C57.8149 60.3476 58.3813 60.2257 59.0261 60.2257H59.0522C59.6273 60.2257 60.1327 60.3302 60.5683 60.5392C61.004 60.7481 61.3699 61.0267 61.6662 61.3749C61.9624 61.7058 62.189 62.0888 62.3458 62.5241C62.5027 62.9594 62.5811 63.4122 62.5811 63.8823C62.5811 64.4743 62.494 65.0228 62.3197 65.5278C62.1629 66.0327 61.9102 66.4767 61.5616 66.8598C61.2305 67.2254 60.8123 67.5214 60.3069 67.7478C59.8015 67.9568 59.209 68.0612 58.5294 68.0612H58.5033Z" fill="#9FC0FF"/>
<path d="M72.9597 97.8361V77.4638H69.1694V75.0087C69.7096 74.8346 70.2411 74.6517 70.7639 74.4602C71.3042 74.2687 71.6963 74.0946 71.9402 73.9378C72.5153 73.5374 73.0033 72.8844 73.4041 71.979C73.5435 71.6656 73.7178 71.2564 73.9269 70.7514C74.136 70.229 74.3364 69.698 74.5281 69.1582C74.7372 68.6184 74.9202 68.1048 75.077 67.6172C75.2513 67.1297 75.3733 66.7466 75.443 66.468H78.7889V73.6767H87.5458V77.4638H78.7889V93.0826C78.7889 94.6322 78.8063 95.8424 78.8412 96.713C78.8935 97.5836 79.0154 98.2279 79.2071 98.6458C79.4163 99.0636 79.7212 99.3248 80.122 99.4293C80.5229 99.5164 81.0718 99.5599 81.7689 99.5599H81.795C82.3004 99.5599 82.8232 99.5251 83.3634 99.4554C83.921 99.3858 84.4613 99.3074 84.9841 99.2204C85.5069 99.1159 85.9861 99.0114 86.4218 98.9069C86.8574 98.785 87.206 98.6719 87.4674 98.5674H87.4935L88.3823 101.127C87.964 101.44 87.3889 101.771 86.657 102.119C85.9251 102.45 85.1235 102.755 84.2521 103.034C83.3982 103.312 82.5095 103.539 81.5859 103.713C80.6623 103.904 79.7909 104 78.9719 104H78.9196C77.996 104 77.1682 103.896 76.4363 103.687C75.7044 103.478 75.077 103.138 74.5542 102.668C74.0489 102.18 73.6568 101.545 73.3779 100.761C73.0991 99.9604 72.9597 98.9853 72.9597 97.8361Z" fill="#9FC0FF"/>
<path d="M90.0824 103.399V100.526L94.3955 100.082V78.3518L90.7359 77.2026V74.0684L98.7086 72.9976H98.8393L100.225 74.0423V100.108L104.459 100.526V103.399H90.0824ZM96.4605 68.0612C95.9552 68.0612 95.4934 67.9742 95.0751 67.8C94.6569 67.6085 94.2996 67.356 94.0034 67.0426C93.7071 66.7118 93.4806 66.3287 93.3237 65.8934C93.1669 65.4407 93.0885 64.9619 93.0885 64.4569C93.0885 63.8997 93.1669 63.3686 93.3237 62.8637C93.498 62.3587 93.742 61.9147 94.0557 61.5317C94.3868 61.1312 94.7963 60.8177 95.2842 60.5914C95.7722 60.3476 96.3386 60.2257 96.9833 60.2257H97.0095C97.5846 60.2257 98.0899 60.3302 98.5256 60.5392C98.9613 60.7481 99.3272 61.0267 99.6235 61.3749C99.9197 61.7058 100.146 62.0888 100.303 62.5241C100.46 62.9594 100.538 63.4122 100.538 63.8823C100.538 64.4743 100.451 65.0228 100.277 65.5278C100.12 66.0327 99.8674 66.4767 99.5189 66.8598C99.1878 67.2254 98.7696 67.5214 98.2642 67.7478C97.7588 67.9568 97.1663 68.0612 96.4867 68.0612H96.4605Z" fill="#9FC0FF"/>
<path d="M107.284 95.5638C107.284 94.3101 107.519 93.1957 107.989 92.2206C108.46 91.2281 109.105 90.3575 109.924 89.6088C110.743 88.8601 111.701 88.2245 112.799 87.7022C113.914 87.1798 115.108 86.7532 116.38 86.4224C117.67 86.0916 119.003 85.8478 120.38 85.6911C121.774 85.5344 123.15 85.4386 124.51 85.4038V84.0195C124.51 82.8007 124.423 81.7733 124.248 80.9375C124.074 80.0843 123.769 79.3966 123.333 78.8742C122.915 78.3344 122.349 77.9514 121.634 77.725C120.92 77.4812 120.014 77.3593 118.916 77.3593C117.975 77.3593 117.034 77.4464 116.093 77.6205C115.152 77.7946 114.245 78.0123 113.374 78.2735C112.52 78.5173 111.727 78.7871 110.995 79.0831C110.281 79.3617 109.68 79.6229 109.192 79.8667H109.166L107.989 77.3593C108.32 77.0459 108.904 76.6454 109.741 76.1579C110.577 75.6704 111.562 75.2002 112.694 74.7475C113.845 74.2948 115.073 73.903 116.38 73.5722C117.705 73.2414 119.02 73.0759 120.327 73.0759C122.157 73.0759 123.699 73.2675 124.954 73.6505C126.226 74.0162 127.254 74.6169 128.039 75.4527C128.823 76.2711 129.38 77.3419 129.712 78.6653C130.06 79.9712 130.234 81.5731 130.234 83.471V100.5H133.476V103.034C133.145 103.121 132.744 103.225 132.273 103.347C131.82 103.452 131.341 103.547 130.836 103.634C130.33 103.739 129.816 103.826 129.293 103.896C128.771 103.965 128.274 104 127.803 104C127.315 104 126.888 103.974 126.523 103.922C126.174 103.887 125.886 103.774 125.66 103.582C125.433 103.408 125.259 103.138 125.137 102.772C125.033 102.407 124.98 101.911 124.98 101.284V100.317C124.754 100.526 124.379 100.84 123.856 101.258C123.351 101.658 122.724 102.067 121.974 102.485C121.225 102.886 120.371 103.234 119.412 103.53C118.454 103.843 117.426 104 116.328 104C115.125 104 113.975 103.835 112.877 103.504C111.797 103.19 110.839 102.694 110.002 102.015C109.183 101.336 108.521 100.465 108.015 99.4032C107.527 98.3236 107.284 97.0438 107.284 95.5638ZM118.576 100.004C118.942 100.004 119.378 99.9604 119.883 99.8733C120.388 99.7688 120.911 99.6295 121.451 99.4554C121.992 99.2813 122.523 99.0636 123.046 98.8025C123.586 98.5413 124.074 98.254 124.51 97.9406V88.329C122.419 88.329 120.667 88.5118 119.256 88.8775C117.861 89.2432 116.746 89.7307 115.91 90.3401C115.073 90.9321 114.481 91.6112 114.132 92.3774C113.784 93.1435 113.609 93.9445 113.609 94.7802C113.609 95.7379 113.731 96.5476 113.975 97.2092C114.237 97.8709 114.585 98.4107 115.021 98.8286C115.474 99.2465 116.006 99.5512 116.615 99.7427C117.225 99.9168 117.879 100.004 118.576 100.004Z" fill="#9FC0FF"/>
<path d="M139.75 97.8361V77.4638H135.96V75.0087C136.5 74.8346 137.032 74.6517 137.555 74.4602C138.095 74.2687 138.487 74.0946 138.731 73.9378C139.306 73.5374 139.794 72.8844 140.195 71.979C140.334 71.6656 140.508 71.2564 140.718 70.7514C140.927 70.229 141.127 69.698 141.319 69.1582C141.528 68.6184 141.711 68.1048 141.868 67.6172C142.042 67.1297 142.164 66.7466 142.234 66.468H145.58V73.6767H154.336V77.4638H145.58V93.0826C145.58 94.6322 145.597 95.8424 145.632 96.713C145.684 97.5836 145.806 98.2279 145.998 98.6458C146.207 99.0636 146.512 99.3248 146.913 99.4293C147.314 99.5164 147.862 99.5599 148.56 99.5599H148.586C149.091 99.5599 149.614 99.5251 150.154 99.4554C150.712 99.3858 151.252 99.3074 151.775 99.2204C152.298 99.1159 152.777 99.0114 153.212 98.9069C153.648 98.785 153.997 98.6719 154.258 98.5674H154.284L155.173 101.127C154.755 101.44 154.18 101.771 153.448 102.119C152.716 102.45 151.914 102.755 151.043 103.034C150.189 103.312 149.3 103.539 148.377 103.713C147.453 103.904 146.582 104 145.763 104H145.71C144.787 104 143.959 103.896 143.227 103.687C142.495 103.478 141.868 103.138 141.345 102.668C140.84 102.18 140.447 101.545 140.169 100.761C139.89 99.9604 139.75 98.9853 139.75 97.8361Z" fill="#9FC0FF"/>
<path d="M156.873 103.399V100.526L161.186 100.082V78.3518L157.527 77.2026V74.0684L165.499 72.9976H165.63L167.015 74.0423V100.108L171.25 100.526V103.399H156.873ZM163.251 68.0612C162.746 68.0612 162.284 67.9742 161.866 67.8C161.448 67.6085 161.09 67.356 160.794 67.0426C160.498 66.7118 160.271 66.3287 160.114 65.8934C159.958 65.4407 159.879 64.9619 159.879 64.4569C159.879 63.8997 159.958 63.3686 160.114 62.8637C160.289 62.3587 160.533 61.9147 160.846 61.5317C161.177 61.1312 161.587 60.8177 162.075 60.5914C162.563 60.3476 163.129 60.2257 163.774 60.2257H163.8C164.375 60.2257 164.881 60.3302 165.316 60.5392C165.752 60.7481 166.118 61.0267 166.414 61.3749C166.71 61.7058 166.937 62.0888 167.094 62.5241C167.251 62.9594 167.329 63.4122 167.329 63.8823C167.329 64.4743 167.242 65.0228 167.068 65.5278C166.911 66.0327 166.658 66.4767 166.31 66.8598C165.978 67.2254 165.56 67.5214 165.055 67.7478C164.549 67.9568 163.957 68.0612 163.277 68.0612H163.251Z" fill="#9FC0FF"/>
<path d="M184.948 103.817L174.388 77.2287L171.852 76.4974V73.6767H185.079V76.4974L180.923 77.2287L185.863 91.6722L188.32 99.0114L190.333 91.9856L195.248 77.2287L191.588 76.4974V73.6767H202.593V76.4974L199.979 77.2287L189.784 103.817H184.948Z" fill="#9FC0FF"/>
<path d="M217.049 104C214.836 104 212.893 103.617 211.22 102.851C209.565 102.085 208.179 101.014 207.064 99.6382C205.949 98.2627 205.112 96.6259 204.554 94.728C203.997 92.8127 203.718 90.7145 203.718 88.4335C203.718 86.1177 204.066 84.0108 204.764 82.1129C205.461 80.1975 206.428 78.5608 207.665 77.2026C208.92 75.8271 210.401 74.7649 212.109 74.0162C213.817 73.2675 215.681 72.8931 217.703 72.8931C220.996 72.8931 223.549 73.7898 225.362 75.5833C227.174 77.3593 228.159 79.9973 228.316 83.4971C228.333 84.6289 228.324 85.6214 228.289 86.4746C228.255 87.3104 228.167 88.0504 228.028 88.6947H209.939V88.8514C210.009 90.8364 210.296 92.5341 210.802 93.9445C211.307 95.3548 211.961 96.5128 212.762 97.4182C213.581 98.3062 214.514 98.9592 215.559 99.3771C216.605 99.7775 217.694 99.9778 218.827 99.9778C219.576 99.9778 220.334 99.9081 221.101 99.7688C221.868 99.6295 222.6 99.4467 223.297 99.2204C224.011 98.994 224.656 98.7328 225.231 98.4368C225.824 98.1408 226.312 97.8448 226.695 97.5488L227.793 100.108C227.287 100.613 226.643 101.101 225.858 101.571C225.092 102.041 224.229 102.459 223.271 102.825C222.33 103.173 221.328 103.452 220.264 103.66C219.201 103.887 218.13 104 217.049 104ZM216.396 76.0273C215.524 76.0273 214.714 76.184 213.965 76.4974C213.215 76.7934 212.553 77.3071 211.978 78.0384C211.42 78.7697 210.959 79.7448 210.593 80.9637C210.244 82.1825 210.026 83.7148 209.939 85.5605H222.068C222.103 85.2122 222.12 84.8466 222.12 84.4635C222.138 84.0804 222.147 83.7235 222.147 83.3927C222.147 82.4176 222.042 81.486 221.833 80.598C221.624 79.71 221.293 78.9264 220.84 78.2474C220.386 77.5683 219.794 77.0285 219.062 76.628C218.348 76.2275 217.459 76.0273 216.396 76.0273Z" fill="#9FC0FF"/>
</svg>
