<svg width="108" height="38" viewBox="0 0 108 38" fill="none" xmlns="http://www.w3.org/2000/svg">
<g clip-path="url(#clip0_8177_4404)">
<path d="M25.1274 5.20017C24.8205 7.13778 23.8998 8.51884 21.7926 8.51884C20.3809 8.51884 19.3784 7.79739 19.3784 6.29265C19.3784 5.94223 19.4193 5.5712 19.4807 5.22079L20.1968 0.603516H21.2606L20.565 5.09711C20.5037 5.4063 20.4627 5.73611 20.4627 6.0453C20.4627 6.97287 21.0356 7.50881 21.9562 7.50881C23.4497 7.50881 23.8998 6.35449 24.084 5.09711L24.7796 0.603516H25.8434L25.1069 5.20017H25.1274Z" fill="#70879C"/>
<path d="M29.4457 3.67482L31.7371 8.37455H30.4482L28.5865 4.49934L27.7067 5.30324L27.2157 8.39516H26.1519L27.4203 0.603516H28.4637L27.9522 3.90157L31.4712 0.603516H32.7805L29.4662 3.67482H29.4457Z" fill="#70879C"/>
<path d="M39.0606 1.44819C37.0965 1.44819 35.8485 3.26212 35.8485 5.13788C35.8485 6.56017 36.7283 7.54958 38.1808 7.54958C38.856 7.54958 39.8789 7.36407 40.3699 6.84875L40.6359 5.13788H38.6514L38.7946 4.23092H41.8225L41.352 7.261C40.3699 8.12674 39.2856 8.51838 37.9967 8.51838C36.0736 8.51838 34.7847 7.19916 34.7847 5.26156C34.7847 2.7468 36.626 0.5 39.2447 0.5C40.4313 0.5 41.352 0.871031 42.0476 1.86045L41.2292 2.56128C40.7177 1.79861 40.0221 1.44819 39.122 1.44819H39.0606Z" fill="#70879C"/>
<path d="M44.9334 8.49808C43.5831 8.49808 42.6011 7.61173 42.6011 6.23067C42.6011 4.45797 43.9514 2.93262 45.7927 2.93262C47.143 2.93262 48.1045 3.83958 48.1045 5.22064C48.1045 6.99334 46.7542 8.51869 44.9129 8.51869L44.9334 8.49808ZM45.6699 3.81897C44.4833 3.81897 43.7059 4.95267 43.7059 6.06576C43.7059 6.9315 44.2173 7.5705 45.0971 7.5705C46.2837 7.5705 47.0611 6.4368 47.0611 5.30309C47.0611 4.43735 46.5496 3.81897 45.6699 3.81897Z" fill="#70879C"/>
<path d="M51.0128 8.37398H50.1126L48.8237 3.01465H49.9285L50.8082 7.01353L52.936 3.01465H54.0203L51.0333 8.37398H51.0128Z" fill="#70879C"/>
<path d="M56.2059 6.08648C55.8376 6.08648 55.408 6.04526 54.9374 5.98342C54.9374 5.98342 54.9374 6.06587 54.9374 6.18955C54.9374 7.0759 55.4694 7.63244 56.3491 7.63244C57.0243 7.63244 57.5971 7.36448 58.17 7.01406L58.4973 7.65306C57.8426 8.23022 56.9629 8.49818 56.1036 8.49818C54.7533 8.49818 53.894 7.63244 53.894 6.272C53.894 4.47868 55.3466 2.91211 57.2698 2.91211C58.3541 2.91211 59.0701 3.50988 59.0701 4.35501C59.0701 4.74665 58.6405 6.08648 56.2059 6.08648ZM57.1265 3.6954C56.1241 3.6954 55.3466 4.35501 55.0807 5.22074C55.3466 5.26197 55.6535 5.28258 55.9604 5.28258C56.9833 5.28258 58.0677 5.03523 58.0677 4.35501C58.0677 4.00459 57.7199 3.6954 57.1265 3.6954Z" fill="#70879C"/>
<path d="M63.0997 4.04571C62.9361 3.96326 62.7519 3.94264 62.5678 3.94264C61.6472 3.94264 61.2789 4.97329 61.1561 5.71535L60.7265 8.39501H59.6831L60.3992 3.81897C60.4196 3.67468 60.4196 3.53039 60.4196 3.40671C60.4196 3.15936 60.3787 3.03568 60.3787 3.03568H61.4221C61.4221 3.03568 61.463 3.15936 61.463 3.3861C61.463 3.53039 61.463 3.67468 61.4221 3.86019C61.729 3.32426 62.22 2.93262 62.8338 2.93262C62.9974 2.93262 63.2225 2.93262 63.3657 3.01507L63.1407 4.0251H63.0793L63.0997 4.04571Z" fill="#70879C"/>
<path d="M67.9104 8.00347C67.9104 8.25083 67.9513 8.3745 67.9513 8.3745H66.8875C66.8875 8.3745 66.8466 8.25083 66.8466 8.02409C66.8466 7.8798 66.8466 7.71489 66.8875 7.50877L67.2148 5.38565C67.2557 5.17952 67.2762 4.97339 67.2762 4.74665C67.2762 4.14888 67.0307 3.81907 66.3965 3.81907C65.3735 3.81907 64.9439 4.78788 64.8007 5.67423L64.371 8.3745H63.3276L64.0437 3.81907C64.0642 3.65417 64.0846 3.50988 64.0846 3.3862C64.0846 3.13885 64.0437 3.01517 64.0437 3.01517H65.0871C65.0871 3.01517 65.128 3.13885 65.128 3.36559C65.128 3.50988 65.128 3.67478 65.0871 3.8603C65.4758 3.28314 66.11 2.91211 66.8056 2.91211C67.8491 2.91211 68.3401 3.42743 68.3401 4.45807C68.3401 4.68481 68.3196 4.93216 68.2787 5.17952L67.9104 7.54999C67.89 7.69428 67.89 7.83857 67.89 7.96225L67.9104 8.00347Z" fill="#70879C"/>
<path d="M76.7062 8.00347C76.7062 8.25083 76.7471 8.3745 76.7471 8.3745H75.7037C75.7037 8.3745 75.6628 8.25083 75.6628 8.02409C75.6628 7.8798 75.6628 7.71489 75.7037 7.50877L76.0515 5.26197C76.0925 5.09707 76.1129 4.91155 76.1129 4.74665C76.1129 4.23133 75.9288 3.83969 75.3559 3.83969C74.4557 3.83969 73.9852 4.80849 73.8624 5.59178L73.4328 8.3745H72.3894L72.8804 5.26197C72.9009 5.09707 72.9213 4.91155 72.9213 4.72604C72.9213 4.21072 72.7372 3.83969 72.1848 3.83969C71.2641 3.83969 70.8141 4.80849 70.6913 5.59178L70.2617 8.3745H69.2183L69.9343 3.81907C69.9548 3.65417 69.9752 3.50988 69.9752 3.3862C69.9752 3.13885 69.9343 3.01517 69.9343 3.01517H70.9573C70.9573 3.01517 70.9982 3.13885 70.9982 3.36559C70.9982 3.50988 70.9982 3.67478 70.9573 3.8603H70.9777C71.3255 3.32437 71.9597 2.91211 72.594 2.91211C73.2896 2.91211 73.8215 3.2213 73.9443 3.94275C74.3534 3.34498 74.9877 2.91211 75.7242 2.91211C76.7267 2.91211 77.1768 3.48927 77.1768 4.45807C77.1768 4.68481 77.1563 4.91155 77.1154 5.11768L76.7267 7.57061C76.7062 7.7149 76.6858 7.85918 76.6858 7.98286L76.7062 8.00347Z" fill="#70879C"/>
<path d="M80.37 6.08648C80.0017 6.08648 79.5721 6.04526 79.1015 5.98342C79.1015 5.98342 79.1015 6.06587 79.1015 6.18955C79.1015 7.0759 79.6334 7.63244 80.5132 7.63244C81.1883 7.63244 81.7612 7.36448 82.334 7.01406L82.6614 7.65306C82.0067 8.23022 81.1269 8.49818 80.2677 8.49818C78.9174 8.49818 78.0581 7.63244 78.0581 6.272C78.0581 4.47868 79.5107 2.91211 81.4338 2.91211C82.5181 2.91211 83.2342 3.50988 83.2342 4.35501C83.2342 4.74665 82.8046 6.08648 80.37 6.08648ZM81.2906 3.6954C80.2881 3.6954 79.5107 4.35501 79.2447 5.22074C79.5107 5.26197 79.8176 5.28258 80.1244 5.28258C81.1474 5.28258 82.2317 5.03523 82.2317 4.35501C82.2317 4.00459 81.8839 3.6954 81.2906 3.6954Z" fill="#70879C"/>
<path d="M88.3675 8.00347C88.3675 8.25083 88.4084 8.3745 88.4084 8.3745H87.3445C87.3445 8.3745 87.3036 8.25083 87.3036 8.02409C87.3036 7.8798 87.3036 7.71489 87.3445 7.50877L87.6719 5.38565C87.7128 5.17952 87.7332 4.97339 87.7332 4.74665C87.7332 4.14888 87.4877 3.81907 86.8535 3.81907C85.8306 3.81907 85.4009 4.78788 85.2577 5.67423L84.8281 8.3745H83.7847L84.5007 3.81907C84.5212 3.65417 84.5416 3.50988 84.5416 3.3862C84.5416 3.13885 84.5007 3.01517 84.5007 3.01517H85.5441C85.5441 3.01517 85.5851 3.13885 85.5851 3.36559C85.5851 3.50988 85.5851 3.67478 85.5441 3.8603C85.9329 3.28314 86.5671 2.91211 87.2627 2.91211C88.3061 2.91211 88.7971 3.42743 88.7971 4.45807C88.7971 4.68481 88.7766 4.93216 88.7357 5.17952L88.3675 7.54999C88.347 7.69428 88.347 7.83857 88.347 7.96225L88.3675 8.00347Z" fill="#70879C"/>
<path d="M92.9303 3.03531L92.7871 3.92166H91.5596C91.4164 4.7874 91.1095 6.06539 91.1095 6.95174C91.1095 7.34338 91.1709 7.54951 91.58 7.54951C91.7642 7.54951 92.0301 7.50829 92.1938 7.42584L92.112 8.31219C91.8255 8.41525 91.4573 8.4977 91.1299 8.4977C90.332 8.4977 90.0047 8.06483 90.0047 7.34338C90.0047 6.23029 90.332 4.9523 90.4752 3.92166H89.7183L89.8615 3.03531H90.6185L90.7412 2.25202C90.7617 2.08712 90.7821 1.94283 90.7821 1.81915C90.7821 1.5718 90.7412 1.44812 90.7412 1.44812H91.7846C91.7846 1.44812 91.8255 1.5718 91.8255 1.79854C91.8255 1.94283 91.8255 2.10773 91.7846 2.31386L91.6823 3.01469H92.8894L92.9303 3.03531Z" fill="#70879C"/>
<path d="M5.67484 21.896H3.44482L4.67236 14.125H6.90238C8.84597 14.125 10.2781 15.2587 10.2781 17.2994C10.2781 19.9172 8.31404 21.896 5.67484 21.896ZM6.75916 15.0938H5.57255L4.6519 20.9272H5.83851C7.76165 20.9272 9.17331 19.3813 9.17331 17.4437C9.17331 15.9389 8.19129 15.0732 6.73871 15.0732L6.75916 15.0938Z" fill="#70879C"/>
<path d="M13.0575 19.608C12.6892 19.608 12.2596 19.5667 11.789 19.5049C11.789 19.5049 11.789 19.5874 11.789 19.711C11.789 20.5974 12.3209 21.1539 13.2007 21.1539C13.8758 21.1539 14.4487 20.886 15.0215 20.5355L15.3489 21.1745C14.6942 21.7517 13.8144 22.0197 12.9552 22.0197C11.6049 22.0197 10.7456 21.1539 10.7456 19.7935C10.7456 18.0002 12.2186 16.4336 14.1213 16.4336C15.2056 16.4336 15.9217 17.0314 15.9217 17.8765C15.9217 18.2681 15.4921 19.608 13.0575 19.608ZM13.9781 17.2169C12.9756 17.2169 12.1982 17.8765 11.9322 18.7422C12.1982 18.7835 12.5051 18.8041 12.812 18.8041C13.8349 18.8041 14.9192 18.5567 14.9192 17.8765C14.9192 17.5261 14.5714 17.2169 13.9781 17.2169Z" fill="#70879C"/>
<path d="M17.3984 23.607C17.3984 23.8337 17.4393 23.978 17.4393 23.978H16.3959C16.3959 23.978 16.355 23.8543 16.355 23.6276C16.355 23.4833 16.355 23.3184 16.3959 23.1123L17.2961 17.32C17.3165 17.1551 17.337 17.0109 17.337 16.8872C17.337 16.6398 17.2961 16.5162 17.2961 16.5162H18.2986C18.2986 16.5162 18.3395 16.6398 18.3395 16.8666C18.3395 17.0109 18.3395 17.1758 18.2986 17.3613C18.81 16.7635 19.4647 16.4131 20.2626 16.4131C21.572 16.4131 22.3494 17.3407 22.3494 18.6187C22.3494 20.3295 21.2242 21.9785 19.3624 21.9785C18.6668 21.9785 18.0531 21.69 17.7462 21.0304L17.3984 23.1535C17.3779 23.2978 17.3779 23.4421 17.3779 23.5657L17.3984 23.607ZM19.9148 17.32C18.6873 17.32 17.9712 18.4744 17.9712 19.6081C17.9712 20.4532 18.4418 21.0716 19.3215 21.0716C20.5286 21.0716 21.2651 19.9173 21.2651 18.7836C21.2651 17.9384 20.7741 17.32 19.9148 17.32Z" fill="#70879C"/>
<path d="M27.9933 21.525C27.9933 21.7723 28.0343 21.896 28.0343 21.896H27.0113C27.0113 21.896 26.9704 21.7723 26.9704 21.5456C26.9704 21.4219 26.9704 21.2158 27.0318 21.0303C26.5612 21.628 25.8452 22.0197 25.0677 22.0197C23.7379 22.0197 22.9604 21.0921 22.9604 19.7729C22.9604 18.0826 24.0652 16.4336 25.9065 16.4336C26.6021 16.4336 27.2159 16.7222 27.5432 17.3612L27.6865 16.5367H28.7299L28.0138 21.1127C28.0138 21.2364 27.9933 21.3807 27.9933 21.525ZM25.9884 17.3406C24.7813 17.3406 24.0448 18.4949 24.0448 19.608C24.0448 20.4531 24.5153 21.0921 25.3951 21.0921C26.6226 21.0921 27.3387 19.9378 27.3387 18.8041C27.3387 17.9589 26.8681 17.3406 25.9884 17.3406Z" fill="#70879C"/>
<path d="M32.7794 17.5467C32.6158 17.4642 32.4316 17.4436 32.2475 17.4436C31.3268 17.4436 30.9586 18.4743 30.8358 19.2163L30.4062 21.896H29.3628L30.0789 17.3199C30.0993 17.1757 30.0993 17.0314 30.0993 16.9077C30.0993 16.6603 30.0584 16.5367 30.0584 16.5367H31.1018C31.1018 16.5367 31.1427 16.6603 31.1427 16.8871C31.1427 17.0314 31.1427 17.1757 31.1018 17.3612C31.4087 16.8252 31.8997 16.4336 32.5135 16.4336C32.6771 16.4336 32.9022 16.4336 33.0454 16.516L32.8203 17.5261H32.759L32.7794 17.5467Z" fill="#70879C"/>
<path d="M36.3639 16.5364L36.2207 17.4228H34.9932C34.8499 18.2885 34.5431 19.5665 34.5431 20.4528C34.5431 20.8445 34.6044 21.0506 35.0136 21.0506C35.1977 21.0506 35.4637 21.0094 35.6274 20.9269L35.5455 21.8133C35.2591 21.9163 34.8909 21.9988 34.5635 21.9988C33.7656 21.9988 33.4383 21.5659 33.4383 20.8445C33.4383 19.7314 33.7656 18.4534 33.9088 17.4228H33.1519L33.2951 16.5364H34.052L34.1748 15.7531C34.1953 15.5882 34.2157 15.4439 34.2157 15.3202C34.2157 15.0729 34.1748 14.9492 34.1748 14.9492H35.2182C35.2182 14.9492 35.2591 15.0729 35.2591 15.2996C35.2591 15.4439 35.2591 15.6088 35.2182 15.815L35.1159 16.5158H36.323L36.3639 16.5364Z" fill="#70879C"/>
<path d="M44.0343 21.525C44.0343 21.7723 44.0753 21.896 44.0753 21.896H43.0319C43.0319 21.896 42.9909 21.7723 42.9909 21.5456C42.9909 21.4013 42.9909 21.2364 43.0319 21.0303L43.3797 18.7835C43.4206 18.6186 43.441 18.433 43.441 18.2681C43.441 17.7528 43.2569 17.3612 42.6841 17.3612C41.7839 17.3612 41.3133 18.33 41.1906 19.1133L40.7609 21.896H39.7175L40.2085 18.7835C40.229 18.6186 40.2494 18.433 40.2494 18.2475C40.2494 17.7322 40.0653 17.3612 39.5129 17.3612C38.5923 17.3612 38.1422 18.33 38.0194 19.1133L37.5898 21.896H36.5464L37.2624 17.3406C37.2829 17.1757 37.3034 17.0314 37.3034 16.9077C37.3034 16.6603 37.2624 16.5367 37.2624 16.5367H38.2854C38.2854 16.5367 38.3263 16.6603 38.3263 16.8871C38.3263 17.0314 38.3263 17.1963 38.2854 17.3818H38.3059C38.6537 16.8458 39.2879 16.4336 39.9221 16.4336C40.6177 16.4336 41.1496 16.7428 41.2724 17.4642C41.6816 16.8665 42.3158 16.4336 43.0523 16.4336C44.0548 16.4336 44.5049 17.0108 44.5049 17.9796C44.5049 18.2063 44.4844 18.433 44.4435 18.6392L44.0548 21.0921C44.0343 21.2364 44.0139 21.3807 44.0139 21.5043L44.0343 21.525Z" fill="#70879C"/>
<path d="M47.6746 19.608C47.3064 19.608 46.8768 19.5667 46.4062 19.5049C46.4062 19.5049 46.4062 19.5874 46.4062 19.711C46.4062 20.5974 46.9381 21.1539 47.8179 21.1539C48.493 21.1539 49.0659 20.886 49.6387 20.5355L49.966 21.1745C49.3114 21.7517 48.4316 22.0197 47.5724 22.0197C46.2221 22.0197 45.3628 21.1539 45.3628 19.7935C45.3628 18.0002 46.8358 16.4336 48.7385 16.4336C49.8228 16.4336 50.5389 17.0314 50.5389 17.8765C50.5389 18.2681 50.1093 19.608 47.6746 19.608ZM48.5953 17.2169C47.5928 17.2169 46.8154 17.8765 46.5494 18.7422C46.8154 18.7835 47.1223 18.8041 47.4291 18.8041C48.4521 18.8041 49.5364 18.5567 49.5364 17.8765C49.5364 17.5261 49.1886 17.2169 48.5953 17.2169Z" fill="#70879C"/>
<path d="M55.6721 21.525C55.6721 21.7723 55.7131 21.896 55.7131 21.896H54.6492C54.6492 21.896 54.6083 21.7723 54.6083 21.5456C54.6083 21.4013 54.6083 21.2364 54.6492 21.0303L54.9765 18.9071C55.0175 18.701 55.0379 18.4949 55.0379 18.2681C55.0379 17.6704 54.7924 17.3406 54.1582 17.3406C53.1352 17.3406 52.7056 18.3094 52.5624 19.1957L52.1328 21.896H51.0894L51.8054 17.3406C51.8259 17.1757 51.8463 17.0314 51.8463 16.9077C51.8463 16.6603 51.8054 16.5367 51.8054 16.5367H52.8488C52.8488 16.5367 52.8897 16.6603 52.8897 16.8871C52.8897 17.0314 52.8897 17.1963 52.8488 17.3818C53.2375 16.8046 53.8718 16.4336 54.5674 16.4336C55.6108 16.4336 56.1018 16.9489 56.1018 17.9796C56.1018 18.2063 56.0813 18.4536 56.0404 18.701L55.6721 21.0715C55.6517 21.2158 55.6517 21.3601 55.6517 21.4837L55.6721 21.525Z" fill="#70879C"/>
<path d="M60.2584 16.5364L60.1152 17.4228H58.8877C58.7445 18.2885 58.4376 19.5665 58.4376 20.4528C58.4376 20.8445 58.499 21.0506 58.9081 21.0506C59.0923 21.0506 59.3582 21.0094 59.5219 20.9269L59.4401 21.8133C59.1537 21.9163 58.7854 21.9988 58.458 21.9988C57.6602 21.9988 57.3328 21.5659 57.3328 20.8445C57.3328 19.7314 57.6602 18.4534 57.8034 17.4228H57.0464L57.1896 16.5364H57.9466L58.0693 15.7531C58.0898 15.5882 58.1102 15.4439 58.1102 15.3202C58.1102 15.0729 58.0693 14.9492 58.0693 14.9492H59.1127C59.1127 14.9492 59.1537 15.0729 59.1537 15.2996C59.1537 15.4439 59.1536 15.6088 59.1127 15.815L59.0104 16.5158H60.2175L60.2584 16.5364Z" fill="#70879C"/>
<path d="M64.9412 22.0196C63.5909 22.0196 62.6089 21.1332 62.6089 19.7522C62.6089 17.9795 63.9592 16.4541 65.8005 16.4541C67.1508 16.4541 68.1123 17.3611 68.1123 18.7421C68.1123 20.5148 66.762 22.0402 64.9207 22.0402L64.9412 22.0196ZM65.6777 17.3405C64.4911 17.3405 63.7137 18.4742 63.7137 19.5872C63.7137 20.453 64.2251 21.092 65.1049 21.092C66.2915 21.092 67.0689 19.9583 67.0689 18.8246C67.0689 17.9588 66.5575 17.3405 65.6777 17.3405Z" fill="#70879C"/>
<path d="M68.8315 17.4432L68.9747 16.5569H69.6908C69.8749 15.3613 70.1613 14.0215 71.6753 14.0215C71.9208 14.0215 72.33 14.0421 72.555 14.1452L72.3709 14.9697C72.1867 14.9078 71.9822 14.8666 71.798 14.8666C70.8774 14.8666 70.8569 15.8973 70.7546 16.5775H71.9822L71.8389 17.4638H70.6114L69.7112 23.1323C69.6294 23.6889 69.4453 24.0187 69.4453 24.0187H68.4019C68.4019 24.0187 68.586 23.6889 68.6474 23.1942L69.5476 17.4638H68.8315V17.4432Z" fill="#70879C"/>
<path d="M76.46 21.896H74.23L75.4575 14.125H77.6875C79.6311 14.125 81.0633 15.2587 81.0633 17.2994C81.0633 19.9172 79.0992 21.896 76.46 21.896ZM77.5443 15.0938H76.3577L75.4371 20.9272H76.6237C78.5468 20.9272 79.9585 19.3813 79.9585 17.4437C79.9585 15.9389 78.9764 15.0732 77.5239 15.0732L77.5443 15.0938Z" fill="#70879C"/>
<path d="M82.7428 21.525C82.7428 21.7724 82.7837 21.896 82.7837 21.896H81.7199C81.7199 21.896 81.679 21.7724 81.679 21.5456C81.679 21.4013 81.6789 21.2364 81.7199 21.0303L82.3132 17.3406C82.3336 17.1757 82.3541 17.0314 82.3541 16.9077C82.3541 16.6604 82.3132 16.5367 82.3132 16.5367H83.3566C83.3566 16.5367 83.3975 16.6604 83.3975 16.8871C83.3975 17.0314 83.3975 17.1963 83.3566 17.4025L82.7837 21.0921C82.7633 21.2364 82.7633 21.3807 82.7633 21.5044L82.7428 21.525ZM83.1315 15.4855C82.8042 15.4855 82.5587 15.2793 82.5587 14.9289C82.5587 14.496 82.9269 14.1456 83.3566 14.1456C83.6839 14.1456 83.9294 14.3518 83.9294 14.7022C83.9294 15.135 83.5816 15.4855 83.1315 15.4855Z" fill="#70879C"/>
<path d="M85.8283 24.1015C85.0304 24.1015 84.253 23.8129 83.6597 23.2976L84.253 22.5555C84.6622 22.9678 85.3987 23.2357 85.9715 23.2357C87.4855 23.2357 87.9356 22.2051 88.1197 20.8859C87.6492 21.4836 86.9536 21.834 86.1966 21.834C84.9281 21.834 84.1098 20.9477 84.1098 19.6903C84.1098 18.0207 85.2759 16.4541 87.0558 16.4541C87.7514 16.4541 88.4061 16.7427 88.6926 17.4023C88.7744 16.8664 88.979 16.5366 88.979 16.5366H90.0019C90.0019 16.5366 89.8178 16.8664 89.7564 17.3611L89.2245 20.7828C88.9176 22.6998 88.0583 24.1221 85.8692 24.1221L85.8283 24.1015ZM87.0968 17.3405C85.9101 17.3405 85.1736 18.3917 85.1736 19.5254C85.1736 20.3911 85.6646 20.9477 86.5239 20.9477C87.7105 20.9477 88.447 19.8964 88.447 18.7627C88.447 17.9176 87.9356 17.3405 87.0763 17.3405H87.0968Z" fill="#70879C"/>
<path d="M91.661 21.5249C91.661 21.7722 91.7019 21.8959 91.7019 21.8959H90.6381C90.6381 21.8959 90.5972 21.7722 90.5972 21.5455C90.5972 21.4012 90.5972 21.2363 90.6381 21.0302L91.2314 17.3405C91.2519 17.1756 91.2723 17.0313 91.2723 16.9076C91.2723 16.6603 91.2314 16.5366 91.2314 16.5366H92.2748C92.2748 16.5366 92.3157 16.6603 92.3157 16.887C92.3157 17.0313 92.3157 17.1962 92.2748 17.4023L91.7019 21.092C91.6815 21.2363 91.6815 21.3806 91.6815 21.5043L91.661 21.5249ZM92.0498 15.4853C91.7224 15.4853 91.4769 15.2792 91.4769 14.9288C91.4769 14.4959 91.8452 14.1455 92.2748 14.1455C92.6021 14.1455 92.8477 14.3516 92.8477 14.7021C92.8477 15.1349 92.4999 15.4853 92.0498 15.4853Z" fill="#70879C"/>
<path d="M96.3474 16.5364L96.2041 17.4228H94.9766C94.8334 18.2885 94.5265 19.5665 94.5265 20.4528C94.5265 20.8445 94.5879 21.0506 94.9971 21.0506C95.1812 21.0506 95.4472 21.0094 95.6108 20.9269L95.529 21.8133C95.2426 21.9163 94.8743 21.9988 94.547 21.9988C93.7491 21.9988 93.4217 21.5659 93.4217 20.8445C93.4217 19.7314 93.7491 18.4534 93.9127 17.4228H93.1558L93.299 16.5364H94.056L94.1787 15.7531C94.1992 15.5882 94.2196 15.4439 94.2196 15.3202C94.2196 15.0729 94.1787 14.9492 94.1787 14.9492H95.2221C95.2221 14.9492 95.263 15.0729 95.263 15.2996C95.263 15.4439 95.263 15.6088 95.2221 15.815L95.1198 16.5158H96.3269L96.3474 16.5364Z" fill="#70879C"/>
<path d="M101.482 21.525C101.482 21.7723 101.523 21.896 101.523 21.896H100.5C100.5 21.896 100.459 21.7723 100.459 21.5456C100.459 21.4219 100.459 21.2158 100.52 21.0303C100.049 21.628 99.3334 22.0197 98.556 22.0197C97.2262 22.0197 96.4487 21.0921 96.4487 19.7729C96.4487 18.0826 97.5535 16.4336 99.3948 16.4336C100.09 16.4336 100.704 16.7222 101.032 17.3612L101.175 16.5367H102.218L101.502 21.1127C101.502 21.2364 101.482 21.3807 101.482 21.525ZM99.4766 17.3406C98.2696 17.3406 97.5331 18.4949 97.5331 19.608C97.5331 20.4531 98.0036 21.0921 98.8833 21.0921C100.111 21.0921 100.827 19.9378 100.827 18.8041C100.827 17.9589 100.356 17.3406 99.4766 17.3406Z" fill="#70879C"/>
<path d="M104.04 21.5251C104.04 21.7725 104.081 21.8962 104.081 21.8962H103.017C103.017 21.8962 102.976 21.7725 102.976 21.5457C102.976 21.4014 102.976 21.2365 103.017 21.0304L103.979 14.929C103.999 14.7641 104.02 14.6198 104.02 14.4962C104.02 14.2488 103.979 14.1251 103.979 14.1251H105.022C105.022 14.1251 105.063 14.2488 105.063 14.4755C105.063 14.6198 105.063 14.7847 105.022 14.9909L104.061 21.0923C104.04 21.2365 104.04 21.3808 104.04 21.5045V21.5251Z" fill="#70879C"/>
<path d="M105.944 23.4623H105.105L106.292 20.7002H107.355L105.923 23.4623H105.944Z" fill="#70879C"/>
<path d="M4.75179 28.4923C2.80819 28.4923 1.49882 30.2238 1.49882 32.0996C1.49882 33.5219 2.37856 34.5113 3.83114 34.5113C4.71087 34.5113 5.54968 34.1815 6.18391 33.5631L6.51125 34.367C5.71335 35.1503 4.71087 35.5213 3.62655 35.5213C1.68295 35.5213 0.394043 34.2433 0.394043 32.2851C0.394043 29.7497 2.2558 27.5029 4.895 27.5029C5.81565 27.5029 6.77722 27.7915 7.37052 28.5336L6.77722 29.4199C6.3885 28.7809 5.46785 28.4717 4.77225 28.4717L4.75179 28.4923Z" fill="#70879C"/>
<path d="M8.66103 33.7072C8.66103 34.2843 8.927 34.5935 9.54076 34.5935C10.4819 34.5935 10.932 33.7278 11.0547 32.9033L11.5048 30.0381H12.5482L11.8322 34.5935C11.8117 34.7378 11.8117 34.8821 11.8117 35.0058C11.8117 35.2531 11.8526 35.3768 11.8526 35.3768H10.8297C10.8297 35.3768 10.7888 35.2531 10.7888 35.0264C10.7888 34.9233 10.7888 34.7996 10.8092 34.6554C10.4 35.1913 9.76581 35.5211 9.11113 35.5211C8.10864 35.5211 7.59717 35.0058 7.59717 33.9957C7.59717 33.7484 7.61763 33.4804 7.65854 33.2331L8.04726 30.842C8.06772 30.6771 8.08818 30.5328 8.08818 30.4091C8.08818 30.1618 8.04726 30.0381 8.04726 30.0381H9.09067C9.09067 30.0381 9.13159 30.1618 9.13159 30.3885C9.13159 30.5328 9.13159 30.6977 9.09067 30.9038L8.74287 33.1712C8.72241 33.3361 8.70195 33.501 8.70195 33.6866L8.66103 33.7072Z" fill="#70879C"/>
<path d="M14.3681 35.027C14.3681 35.2743 14.409 35.398 14.409 35.398H13.3451C13.3451 35.398 13.3042 35.2743 13.3042 35.0476C13.3042 34.9033 13.3042 34.7384 13.3451 34.5322L14.3067 28.4309C14.3271 28.266 14.3476 28.1217 14.3476 27.998C14.3476 27.7506 14.3067 27.627 14.3067 27.627H15.3501C15.3501 27.627 15.391 27.7506 15.391 27.9774C15.391 28.1217 15.391 28.2866 15.3501 28.4927L14.3885 34.5941C14.3681 34.7384 14.3681 34.8827 14.3681 35.0063V35.027Z" fill="#70879C"/>
<path d="M19.0553 30.0589L18.9121 30.9452H17.6846C17.5413 31.811 17.2345 33.0889 17.2345 33.9753C17.2345 34.3669 17.2958 34.5731 17.705 34.5731C17.8892 34.5731 18.1551 34.5318 18.3188 34.4494L18.237 35.3357C17.9505 35.4388 17.5823 35.5213 17.2549 35.5213C16.457 35.5213 16.1297 35.0884 16.1297 34.3669C16.1297 33.2539 16.457 31.9759 16.6002 30.9452H15.8433L15.9865 30.0589H16.7435L16.8662 29.2756C16.8867 29.1107 16.9071 28.9664 16.9071 28.8427C16.9071 28.5954 16.8662 28.4717 16.8662 28.4717H17.9096C17.9096 28.4717 17.9505 28.5954 17.9505 28.8221C17.9505 28.9664 17.9505 29.1313 17.9096 29.3374L17.8073 30.0383H19.0144L19.0553 30.0589Z" fill="#70879C"/>
<path d="M20.5282 33.7072C20.5282 34.2843 20.7942 34.5935 21.4079 34.5935C22.3491 34.5935 22.7992 33.7278 22.9219 32.9033L23.372 30.0381H24.4154L23.6993 34.5935C23.6789 34.7378 23.6789 34.8821 23.6789 35.0058C23.6789 35.2531 23.7198 35.3768 23.7198 35.3768H22.6969C22.6969 35.3768 22.6559 35.2531 22.6559 35.0264C22.6559 34.9233 22.6559 34.7996 22.6764 34.6554C22.2672 35.1913 21.633 35.5211 20.9783 35.5211C19.9758 35.5211 19.4644 35.0058 19.4644 33.9957C19.4644 33.7484 19.4848 33.4804 19.5257 33.2331L19.9145 30.842C19.9349 30.6771 19.9554 30.5328 19.9554 30.4091C19.9554 30.1618 19.9145 30.0381 19.9145 30.0381H20.9579C20.9579 30.0381 20.9988 30.1618 20.9988 30.3885C20.9988 30.5328 20.9988 30.6977 20.9579 30.9038L20.6101 33.1712C20.5896 33.3361 20.5691 33.501 20.5691 33.6866L20.5282 33.7072Z" fill="#70879C"/>
<path d="M28.4669 31.0486C28.3033 30.9662 28.1191 30.9456 27.935 30.9456C27.0143 30.9456 26.6461 31.9762 26.5233 32.7183L26.0937 35.3979H25.0503L25.7664 30.8219C25.7868 30.6776 25.7868 30.5333 25.7868 30.4096C25.7868 30.1829 25.7459 30.0386 25.7459 30.0386H26.7893C26.7893 30.0386 26.8302 30.1623 26.8302 30.389C26.8302 30.5333 26.8302 30.6776 26.7893 30.8631C27.0962 30.3272 27.5872 29.9355 28.201 29.9355C28.3646 29.9355 28.5897 29.9355 28.7329 30.018L28.5078 31.028H28.4465L28.4669 31.0486Z" fill="#70879C"/>
<path d="M31.0223 33.1099C30.654 33.1099 30.2244 33.0687 29.7539 33.0069C29.7539 33.0069 29.7539 33.0893 29.7539 33.213C29.7539 34.0993 30.2858 34.6559 31.1655 34.6559C31.8407 34.6559 32.4135 34.3879 32.9864 34.0375L33.3137 34.6765C32.659 35.2537 31.7793 35.5216 30.92 35.5216C29.5697 35.5216 28.7104 34.6559 28.7104 33.2954C28.7104 31.5021 30.163 29.9355 32.0862 29.9355C33.1705 29.9355 33.8865 30.5333 33.8865 31.3784C33.8865 31.7701 33.4569 33.1099 31.0223 33.1099ZM31.943 30.7188C30.9405 30.7188 30.163 31.3784 29.8971 32.2442C30.163 32.2854 30.4699 32.306 30.7768 32.306C31.7997 32.306 32.8841 32.0587 32.8841 31.3784C32.8841 31.028 32.5363 30.7188 31.943 30.7188Z" fill="#70879C"/>
<path d="M34.9282 36.9848H34.0894L35.276 34.2227H36.3398L34.9077 36.9848H34.9282Z" fill="#70879C"/>
<path d="M47.7993 35.398H46.7559L47.2265 29.276L43.994 35.4598H43.4007L42.1118 29.276L40.6796 35.398H39.6362L41.5389 27.627H42.8278L44.0144 33.6047L47.0833 27.627H48.3926L47.8402 35.398H47.7993Z" fill="#70879C"/>
<path d="M51.4168 33.1099C51.0486 33.1099 50.6189 33.0687 50.1484 33.0069C50.1484 33.0069 50.1484 33.0893 50.1484 33.213C50.1484 34.0993 50.6803 34.6559 51.56 34.6559C52.2352 34.6559 52.808 34.3879 53.3809 34.0375L53.7082 34.6765C53.0535 35.2537 52.1738 35.5216 51.3145 35.5216C49.9643 35.5216 49.105 34.6559 49.105 33.2954C49.105 31.5021 50.5576 29.9355 52.4807 29.9355C53.565 29.9355 54.2811 30.5333 54.2811 31.3784C54.2811 31.7701 53.8514 33.1099 51.4168 33.1099ZM52.3375 30.7188C51.335 30.7188 50.5576 31.3784 50.2916 32.2442C50.5576 32.2854 50.8644 32.306 51.1713 32.306C52.1943 32.306 53.2786 32.0587 53.2786 31.3784C53.2786 31.028 52.9308 30.7188 52.3375 30.7188Z" fill="#70879C"/>
<path d="M56.9427 35.5208C55.6129 35.5208 54.8354 34.5932 54.8354 33.274C54.8354 31.5837 55.9402 29.9347 57.7815 29.9347C58.4771 29.9347 59.0909 30.2233 59.4182 30.8623L59.807 28.4094C59.8274 28.2445 59.8479 28.1002 59.8479 27.9765C59.8479 27.7291 59.807 27.6055 59.807 27.6055H60.8504C60.8504 27.6055 60.8913 27.7291 60.8913 27.9559C60.8913 28.1002 60.8913 28.2651 60.8504 28.4712L59.8888 34.5726C59.8683 34.7169 59.8683 34.8612 59.8683 34.9849C59.8683 35.2322 59.9093 35.3559 59.9093 35.3559H58.8863C58.8863 35.3559 58.8454 35.2322 58.8454 35.0055C58.8454 34.9024 58.8454 34.7169 58.8863 34.5108C58.3953 35.1291 57.6997 35.4796 56.9427 35.4796V35.5208ZM57.8634 30.8417C56.6563 30.8417 55.9198 31.996 55.9198 33.1091C55.9198 33.9542 56.3903 34.5932 57.2701 34.5932C58.4976 34.5932 59.2137 33.4389 59.2137 32.3052C59.2137 31.4601 58.7431 30.8417 57.8634 30.8417Z" fill="#70879C"/>
<path d="M62.4657 35.0268C62.4657 35.2742 62.5066 35.3979 62.5066 35.3979H61.4428C61.4428 35.3979 61.4019 35.2742 61.4019 35.0475C61.4019 34.9032 61.4019 34.7383 61.4428 34.5321L62.0361 30.8424C62.0565 30.6775 62.077 30.5333 62.077 30.4096C62.077 30.1828 62.0361 30.0385 62.0361 30.0385H63.0795C63.0795 30.0385 63.1204 30.1622 63.1204 30.389C63.1204 30.5333 63.1204 30.6982 63.0795 30.9043L62.5066 34.594C62.4862 34.7383 62.4862 34.8826 62.4862 35.0062L62.4657 35.0268ZM62.8544 28.9873C62.5271 28.9873 62.2816 28.7812 62.2816 28.4307C62.2816 27.9979 62.6498 27.6475 63.0795 27.6475C63.4068 27.6475 63.6523 27.8536 63.6523 28.204C63.6523 28.6369 63.3045 28.9873 62.8544 28.9873Z" fill="#70879C"/>
<path d="M68.8488 35.0269C68.8488 35.2743 68.8897 35.3979 68.8897 35.3979H67.8668C67.8668 35.3979 67.8259 35.2743 67.8259 35.0475C67.8259 34.9238 67.8259 34.7177 67.8872 34.5322C67.4167 35.13 66.7006 35.5216 65.9232 35.5216C64.5934 35.5216 63.8159 34.594 63.8159 33.2748C63.8159 31.5846 64.9207 29.9355 66.762 29.9355C67.4576 29.9355 68.0714 30.2241 68.3987 30.8631L68.5419 30.0386H69.5853L68.8693 34.6147C68.8693 34.7383 68.8488 34.8826 68.8488 35.0269ZM66.8438 30.8425C65.6368 30.8425 64.9002 31.9968 64.9002 33.1099C64.9002 33.955 65.3708 34.594 66.2505 34.594C67.4781 34.594 68.1941 33.4397 68.1941 32.306C68.1941 31.4609 67.7236 30.8425 66.8438 30.8425Z" fill="#70879C"/>
<path d="M77.7492 33.5632L79.0177 35.3153V35.3977H77.7492L77.0127 34.2846C76.2148 35.0061 75.4169 35.5214 74.3122 35.5214C73.2074 35.5214 72.3276 34.9443 72.3276 33.7487C72.3276 32.244 73.4733 31.5019 74.6804 30.9248C74.3735 30.4507 74.1076 30.0384 74.1076 29.4613C74.1076 28.2245 75.1101 27.4824 76.2967 27.4824C77.1355 27.4824 77.9129 27.8947 77.9129 28.8429C77.9129 29.9147 76.9513 30.6362 76.0921 31.0897L77.2378 32.8418C77.6674 32.4089 78.097 31.8111 78.4039 31.2752L79.1609 31.6668C78.7517 32.3058 78.2607 32.986 77.7288 33.522L77.7492 33.5632ZM73.4324 33.5632C73.4324 34.264 73.9439 34.6763 74.5986 34.6763C75.3351 34.6763 76.0716 34.161 76.5422 33.6457L75.151 31.605C74.3531 32.0379 73.412 32.5119 73.412 33.5838L73.4324 33.5632ZM76.1739 28.3482C75.5806 28.3482 75.1305 28.8016 75.1305 29.42C75.1305 29.8529 75.3965 30.2033 75.642 30.5537C76.2148 30.2239 76.9514 29.7911 76.9514 29.0284C76.9514 28.5543 76.624 28.3482 76.1739 28.3482Z" fill="#70879C"/>
<path d="M85.4226 28.4509C84.6657 28.4509 83.9701 28.9044 83.9701 29.7289C83.9701 31.1718 87.0389 30.8214 87.0389 32.9239C87.0389 34.5111 85.6068 35.5417 84.0928 35.5417C83.0699 35.5417 82.3947 35.0264 81.8628 34.2225L82.5584 33.5217C82.9062 34.1607 83.5813 34.6141 84.3179 34.6141C85.1362 34.6141 85.9546 34.0576 85.9546 33.1506C85.9546 31.6871 82.8857 32.0788 82.8857 30.0381C82.8857 28.5127 84.1542 27.5439 85.6477 27.5439C86.4251 27.5439 87.1412 27.9356 87.6117 28.554L86.9775 29.2754C86.5683 28.8013 86.0978 28.4715 85.4431 28.4715L85.4226 28.4509Z" fill="#70879C"/>
<path d="M88.5937 37.1294C88.5937 37.3562 88.6346 37.5005 88.6346 37.5005H87.5912C87.5912 37.5005 87.5503 37.3768 87.5503 37.15C87.5503 37.0057 87.5503 36.8408 87.5912 36.6347L88.4914 30.8425C88.5119 30.6776 88.5323 30.5333 88.5323 30.4096C88.5323 30.1829 88.4914 30.0386 88.4914 30.0386H89.4939C89.4939 30.0386 89.5348 30.1623 89.5348 30.389C89.5348 30.5333 89.5348 30.6982 89.4939 30.8837C90.0054 30.286 90.66 29.9355 91.4579 29.9355C92.7673 29.9355 93.5447 30.8631 93.5447 32.1411C93.5447 33.852 92.4195 35.501 90.5578 35.501C89.8622 35.501 89.2484 35.2124 88.9415 34.5528L88.5937 36.6759C88.5732 36.8202 88.5732 36.9645 88.5732 37.0882L88.5937 37.1294ZM91.1101 30.8425C89.8826 30.8425 89.1665 31.9968 89.1665 33.1305C89.1665 33.9757 89.6371 34.594 90.5168 34.594C91.7239 34.594 92.4604 33.4397 92.4604 32.306C92.4604 31.4609 91.9694 30.8425 91.1101 30.8425Z" fill="#70879C"/>
<path d="M96.531 35.5215C95.1808 35.5215 94.1987 34.6352 94.1987 33.2541C94.1987 31.4814 95.549 29.9561 97.3903 29.9561C98.7406 29.9561 99.7022 30.863 99.7022 32.2441C99.7022 34.0168 98.3519 35.5421 96.5106 35.5421L96.531 35.5215ZM97.2676 30.8424C96.0809 30.8424 95.3035 31.9761 95.3035 33.0892C95.3035 33.9549 95.815 34.5939 96.6947 34.5939C97.8813 34.5939 98.6588 33.4602 98.6588 32.3265C98.6588 31.4608 98.1473 30.8424 97.2676 30.8424Z" fill="#70879C"/>
<path d="M103.795 31.0486C103.631 30.9662 103.447 30.9456 103.263 30.9456C102.342 30.9456 101.974 31.9762 101.851 32.7183L101.422 35.3979H100.378L101.094 30.8219C101.115 30.6776 101.115 30.5333 101.115 30.4096C101.115 30.1829 101.074 30.0386 101.074 30.0386H102.117C102.117 30.0386 102.158 30.1623 102.158 30.389C102.158 30.5333 102.158 30.6776 102.117 30.8631C102.424 30.3272 102.915 29.9355 103.529 29.9355C103.693 29.9355 103.918 29.9355 104.061 30.018L103.836 31.028H103.775L103.795 31.0486Z" fill="#70879C"/>
<path d="M107.376 30.0589L107.232 30.9452H106.005C105.862 31.811 105.555 33.0889 105.555 33.9753C105.555 34.3669 105.616 34.5731 106.025 34.5731C106.209 34.5731 106.475 34.5318 106.639 34.4494L106.557 35.3357C106.271 35.4388 105.903 35.5213 105.575 35.5213C104.777 35.5213 104.45 35.0884 104.45 34.3669C104.45 33.2539 104.777 31.9759 104.921 30.9452H104.164L104.307 30.0589H105.064L105.187 29.2756C105.207 29.1107 105.227 28.9664 105.227 28.8427C105.227 28.5954 105.187 28.4717 105.187 28.4717H106.23C106.23 28.4717 106.271 28.5954 106.271 28.8221C106.271 28.9664 106.271 29.1313 106.23 29.3374L106.128 30.0383H107.335L107.376 30.0589Z" fill="#70879C"/>
</g>
<defs>
<clipPath id="clip0_8177_4404">
<rect width="107" height="37" fill="white" transform="translate(0.374512 0.5)"/>
</clipPath>
</defs>
</svg>
