<svg xmlns="http://www.w3.org/2000/svg" width="40" height="40" viewBox="0 0 40 40" fill="none"><mask id="mask0_108_346" style="mask-type:alpha" maskUnits="userSpaceOnUse" x="0" y="0" width="40" height="40"><rect width="40" height="40" fill="#F5EFEF"></rect></mask><g mask="url(#mask0_108_346)"><path fill-rule="evenodd" clip-rule="evenodd" d="M23.8557 7.98017C24.5801 7.2963 25.0324 6.32608 25.0324 5.25C25.0324 3.17893 23.3571 1.5 21.2904 1.5C19.2238 1.5 17.5485 3.17893 17.5485 5.25C17.5485 6.32608 18.0008 7.2963 18.7252 7.98016C19.116 8.34909 19.4195 8.82966 19.4195 9.36771C19.4195 10.2002 18.7461 11.3747 17.9154 11.3747H11.9356C11.419 11.3747 11.0001 11.7944 11.0001 12.3122V15.87C11.8443 15.6289 12.7358 15.4997 13.6574 15.4997C18.9903 15.4997 23.3136 19.823 23.3136 25.156C23.3136 27.7923 22.2546 30.1849 20.5434 31.9255C20.5246 31.9459 20.5053 31.966 20.4855 31.9858L20.4716 31.9997H29.7098C30.2265 31.9997 30.6453 31.58 30.6453 31.0622V26.007C30.6453 25.1745 31.3187 24.4997 32.1493 24.4997C32.6862 24.4997 33.1658 24.8038 33.5339 25.1954C34.2163 25.9214 35.1844 26.3747 36.2582 26.3747C38.3248 26.3747 40.0001 24.6958 40.0001 22.6247C40.0001 20.5536 38.3248 18.8747 36.2582 18.8747C35.1844 18.8747 34.2163 19.3279 33.5339 20.0539C33.1658 20.4456 32.6862 20.7497 32.1493 20.7497C31.3187 20.7497 30.6453 20.0749 30.6453 19.2424V12.3122C30.6453 11.7944 30.2265 11.3747 29.7098 11.3747H24.6655C23.8348 11.3747 23.1614 10.2002 23.1614 9.36771C23.1614 8.82966 23.4649 8.34909 23.8557 7.98017ZM17.7403 31.9997L19.1199 30.6201L19.1189 30.6191L19.1205 30.6175C20.5179 29.2196 21.3822 27.2887 21.3822 25.156C21.3822 20.8897 17.9237 17.4311 13.6573 17.4311C12.7237 17.4311 11.8287 17.5968 11.0001 17.9003V31.0622C11.0001 31.58 11.419 31.9997 11.9356 31.9997H17.7403Z" fill="#75D1ED"></path><path fill-rule="evenodd" clip-rule="evenodd" d="M8.19555 30.6184C6.79703 29.2204 5.93198 27.2888 5.93198 25.1551C5.93198 20.8888 9.39053 17.4302 13.6569 17.4302C17.9232 17.4302 21.3817 20.8888 21.3817 25.1551C21.3817 27.2887 20.5168 29.2202 19.1184 30.6182L19.1194 30.6192L13.6571 36.0815L8.19474 30.6192L8.19555 30.6184Z" fill="#15C1E6"></path></g></svg>