<svg xmlns="http://www.w3.org/2000/svg" width="40" height="40" viewBox="0 0 40 40" fill="none"><mask id="mask0_108_327" style="mask-type:alpha" maskUnits="userSpaceOnUse" x="0" y="0" width="40" height="40"><rect width="40" height="40" fill="#F5EFEF"></rect></mask><g mask="url(#mask0_108_327)"><path fill-rule="evenodd" clip-rule="evenodd" d="M10 5.5C9.44772 5.5 9 5.94772 9 6.5V18.5H17C19.7614 18.5 22 20.7386 22 23.5V27.5H38C38.5523 27.5 39 27.0523 39 26.5V6.5C39 5.94772 38.5523 5.5 38 5.5H10ZM20 27.5V23.5C20 21.8431 18.6569 20.5 17 20.5H9V26.5C9 27.0523 9.44772 27.5 10 27.5H20Z" fill="#98DEF4"></path><path d="M13 10C13 9.17157 13.6716 8.5 14.5 8.5C15.3284 8.5 16 9.17157 16 10C16 10.8284 15.3284 11.5 14.5 11.5C13.6716 11.5 13 10.8284 13 10Z" fill="#15C1E6"></path><path d="M18 10C18 9.17157 18.6716 8.5 19.5 8.5C20.3284 8.5 21 9.17157 21 10C21 10.8284 20.3284 11.5 19.5 11.5C18.6716 11.5 18 10.8284 18 10Z" fill="#15C1E6"></path><path d="M23 10C23 9.17157 23.6716 8.5 24.5 8.5C25.3284 8.5 26 9.17157 26 10C26 10.8284 25.3284 11.5 24.5 11.5C23.6716 11.5 23 10.8284 23 10Z" fill="#15C1E6"></path><path d="M4 23.5C4 21.8431 5.34315 20.5 7 20.5H17C18.6569 20.5 20 21.8431 20 23.5V31.5C20 33.1569 18.6569 34.5 17 34.5H7C5.34315 34.5 4 33.1569 4 31.5V23.5Z" fill="#15C1E6"></path><path d="M10 25.5C10 24.3954 10.8954 23.5 12 23.5C13.1046 23.5 14 24.3954 14 25.5C14 26.6046 13.1046 27.5 12 27.5C10.8954 27.5 10 26.6046 10 25.5Z" fill="#15C1E6"></path><path d="M11 25.5C11 24.9477 11.4477 24.5 12 24.5C12.5523 24.5 13 24.9477 13 25.5V29.5C13 30.0523 12.5523 30.5 12 30.5C11.4477 30.5 11 30.0523 11 29.5V25.5Z" fill="#15C1E6"></path><path fill-rule="evenodd" clip-rule="evenodd" d="M10 16C10 13.5147 7.98528 11.5 5.5 11.5C3.01472 11.5 1 13.5147 1 16V17.5C1 18.0523 1.44772 18.5 2 18.5C2.55228 18.5 3 18.0523 3 17.5V16C3 14.6193 4.11929 13.5 5.5 13.5C6.88071 13.5 8 14.6193 8 16V21.5C8 22.0523 8.44772 22.5 9 22.5C9.55228 22.5 10 22.0523 10 21.5V16Z" fill="#15C1E6"></path></g></svg>