<svg width="157" height="39" viewBox="0 0 157 39" fill="none" xmlns="http://www.w3.org/2000/svg">
<g clip-path="url(#clip0_5018_50890)">
<path d="M6.54526 0.5H14.5322L20.8481 11.8957L16.9406 18.7983L6.54526 0.5Z" fill="#526373"/>
<path d="M37.9709 20.6298L33.9835 27.5508L20.9587 27.3418L16.9283 20.5068L37.9709 20.6298Z" fill="#526373"/>
<path d="M16.9406 18.7984L20.8296 11.8835L33.8545 12.0925L37.8849 18.9275L16.9406 18.7984Z" fill="#526373"/>
<path d="M4.81269 37.57L0.800781 30.6674L7.46682 19.4745L15.3985 19.3823L4.81269 37.57Z" fill="#526373"/>
<path d="M15.3985 19.3824L4.8864 1.66187L1.10181 8.31858L7.4668 19.4746L15.3985 19.3824Z" fill="#526373"/>
<path d="M16.9283 20.5068L20.9587 27.3418L14.3602 38.5593H6.54526L16.9283 20.5068Z" fill="#526373"/>
<path d="M98.5182 16.475C98.5182 17.4093 97.9775 18.0608 96.6873 18.0608H94.8319C94.7827 18.0608 94.752 18.0301 94.752 17.9809V12.3446C94.752 12.2954 94.7827 12.2646 94.8319 12.2646H96.6873C97.8055 12.2646 98.3462 12.91 98.3462 13.7583C98.3462 14.3237 98.039 14.797 97.5536 15.0429C98.1925 15.2765 98.5243 15.7866 98.5243 16.4873L98.5182 16.475ZM95.1268 12.6027V14.9015H96.6873C97.6089 14.9015 97.9468 14.3975 97.9468 13.746C97.9468 13.0944 97.6089 12.6027 96.6873 12.6027H95.1268ZM98.1188 16.475C98.1188 15.7313 97.7809 15.2334 96.6873 15.2334H95.1268V17.7105H96.6873C97.7809 17.7105 98.1188 17.2065 98.1188 16.475Z" fill="#526373"/>
<path d="M99.919 17.9746V12.3382C99.919 12.289 99.9497 12.2583 99.9988 12.2583H100.214C100.263 12.2583 100.3 12.289 100.3 12.3382V17.9746C100.3 18.0238 100.269 18.0545 100.214 18.0545H99.9988C99.9497 18.0545 99.919 18.0238 99.919 17.9746Z" fill="#526373"/>
<path d="M101.652 15.1657C101.652 13.3033 102.788 12.1724 104.478 12.1724C105.405 12.1724 106.112 12.4182 106.64 12.953C106.671 12.9837 106.671 13.039 106.64 13.0698L106.493 13.2173C106.462 13.248 106.413 13.248 106.376 13.2173C105.897 12.7378 105.276 12.535 104.478 12.535C102.991 12.535 102.051 13.4939 102.051 15.1657C102.051 16.8376 102.997 17.778 104.644 17.778C105.215 17.778 105.835 17.6182 106.376 17.3232V15.4669H104.662C104.613 15.4669 104.582 15.4362 104.582 15.387V15.1903C104.582 15.1411 104.613 15.1104 104.662 15.1104H106.677C106.726 15.1104 106.757 15.1411 106.757 15.1903V17.4461C106.757 17.4953 106.732 17.5444 106.689 17.5813C106.124 17.9563 105.35 18.153 104.644 18.153C102.788 18.153 101.652 17.0281 101.652 15.178V15.1657Z" fill="#526373"/>
<path d="M110.062 17.9746V12.3382C110.062 12.289 110.093 12.2583 110.142 12.2583H111.893C113.589 12.2583 114.67 13.3462 114.67 15.1656C114.67 16.985 113.595 18.0606 111.893 18.0606H110.142C110.093 18.0606 110.062 18.0299 110.062 17.9807V17.9746ZM111.893 17.6919C113.374 17.6919 114.271 16.8067 114.271 15.1656C114.271 13.5245 113.368 12.6209 111.893 12.6209H110.443V17.6919H111.893Z" fill="#526373"/>
<path d="M120.538 18.0607H120.292C120.243 18.0607 120.194 18.03 120.175 17.987L119.481 16.3889H116.329L115.635 17.987C115.616 18.03 115.567 18.0607 115.518 18.0607H115.266C115.217 18.0607 115.199 18.03 115.217 17.987L117.754 12.2522C117.773 12.2092 117.822 12.1785 117.871 12.1785H117.939C117.988 12.1785 118.037 12.2092 118.056 12.2522L120.593 17.987C120.611 18.03 120.593 18.0607 120.544 18.0607H120.538ZM119.333 16.0631L117.902 12.7747L116.47 16.0631H119.34H119.333Z" fill="#526373"/>
<path d="M124.138 12.3382V12.5349C124.138 12.5841 124.107 12.6148 124.058 12.6148H122.491V17.9684C122.491 18.0176 122.461 18.0484 122.411 18.0484H122.196C122.147 18.0484 122.117 18.0176 122.117 17.9684V12.6148H120.574C120.525 12.6148 120.488 12.5841 120.488 12.5349V12.3382C120.488 12.289 120.519 12.2583 120.574 12.2583H124.064C124.113 12.2583 124.144 12.289 124.144 12.3382H124.138Z" fill="#526373"/>
<path d="M129.36 18.0607H129.114C129.065 18.0607 129.016 18.03 128.998 17.987L128.303 16.3889H125.152L124.457 17.987C124.439 18.03 124.39 18.0607 124.341 18.0607H124.089C124.04 18.0607 124.021 18.03 124.04 17.987L126.577 12.2522C126.595 12.2092 126.645 12.1785 126.694 12.1785H126.761C126.81 12.1785 126.86 12.2092 126.878 12.2522L129.415 17.987C129.434 18.03 129.415 18.0607 129.366 18.0607H129.36ZM128.156 16.0631L126.724 12.7747L125.293 16.0631H128.162H128.156Z" fill="#526373"/>
<path d="M136.899 12.369L134.287 18.0668C134.269 18.1099 134.22 18.1406 134.171 18.1406H134.128C134.079 18.1406 134.029 18.1099 134.011 18.0668L131.4 12.369C131.369 12.2952 131.4 12.2522 131.474 12.2522H131.689C131.738 12.2522 131.787 12.2829 131.805 12.326L134.152 17.5136L136.487 12.326C136.505 12.2829 136.555 12.2522 136.604 12.2522H136.819C136.892 12.2522 136.929 12.2952 136.892 12.369H136.899Z" fill="#526373"/>
<path d="M141.906 18.0607H141.66C141.611 18.0607 141.562 18.03 141.543 17.987L140.849 16.3889H137.697L137.003 17.987C136.985 18.03 136.935 18.0607 136.886 18.0607H136.634C136.585 18.0607 136.567 18.03 136.585 17.987L139.123 12.2522C139.141 12.2092 139.19 12.1785 139.239 12.1785H139.307C139.356 12.1785 139.405 12.2092 139.424 12.2522L141.961 17.987C141.98 18.03 141.961 18.0607 141.912 18.0607H141.906ZM140.702 16.0631L139.27 12.7747L137.839 16.0631H140.708H140.702Z" fill="#526373"/>
<path d="M146.151 17.7779V17.9746C146.151 18.0238 146.12 18.0545 146.071 18.0545H142.999C142.95 18.0545 142.92 18.0238 142.92 17.9746V12.3382C142.92 12.289 142.95 12.2583 142.999 12.2583H143.214C143.264 12.2583 143.294 12.289 143.294 12.3382V17.6919H146.071C146.12 17.6919 146.151 17.7226 146.151 17.7718V17.7779Z" fill="#526373"/>
<path d="M146.839 16.0569V12.3321C146.839 12.2829 146.87 12.2522 146.919 12.2522H147.128C147.177 12.2522 147.208 12.2829 147.208 12.3321V16.0569C147.208 17.1449 147.927 17.7718 148.99 17.7718C150.052 17.7718 150.741 17.1449 150.741 16.0569V12.3321C150.741 12.2829 150.771 12.2522 150.82 12.2522H151.029C151.079 12.2522 151.109 12.2829 151.109 12.3321V16.0569C151.109 17.3415 150.249 18.1406 148.99 18.1406C147.73 18.1406 146.833 17.3477 146.833 16.0569H146.839Z" fill="#526373"/>
<path d="M153.198 12.621V14.9014H155.791C155.84 14.9014 155.871 14.9321 155.871 14.9874V15.1841C155.871 15.2333 155.84 15.264 155.791 15.264H153.198V17.6919H156.221C156.27 17.6919 156.301 17.7226 156.301 17.7718V17.9685C156.301 18.0177 156.27 18.0484 156.221 18.0484H152.897C152.848 18.0484 152.817 18.0177 152.817 17.9685V12.3321C152.817 12.2829 152.848 12.2522 152.897 12.2522H156.221C156.27 12.2522 156.301 12.2829 156.301 12.3321V12.5288C156.301 12.578 156.27 12.6087 156.221 12.6087H153.198V12.621Z" fill="#526373"/>
<path d="M99.2677 27.2804H99.022C98.9728 27.2804 98.9237 27.2497 98.9052 27.2067L98.211 25.6086H95.0592L94.3649 27.2067C94.3465 27.2497 94.2974 27.2804 94.2482 27.2804H93.9963C93.9472 27.2804 93.9287 27.2497 93.9472 27.2067L96.4846 21.472C96.503 21.4289 96.5521 21.3982 96.6013 21.3982H96.6689C96.718 21.3982 96.7672 21.4289 96.7856 21.472L99.323 27.2067C99.3414 27.2497 99.323 27.2804 99.2739 27.2804H99.2677ZM98.0635 25.2828L96.632 21.9944L95.2005 25.2828H98.0697H98.0635Z" fill="#526373"/>
<path d="M99.9374 26.8134C99.8944 26.7827 99.8883 26.7396 99.919 26.6966L100.023 26.5306C100.054 26.4876 100.097 26.4815 100.14 26.5122C100.49 26.7519 101 27.0101 101.676 27.0101C102.487 27.0101 103.095 26.5798 103.095 25.9221C103.095 25.0616 102.315 24.8711 101.43 24.4716C100.638 24.1151 99.9128 23.777 99.9128 22.855C99.9128 21.933 100.675 21.386 101.713 21.386C102.204 21.386 102.751 21.5458 103.2 21.8224C103.243 21.847 103.249 21.89 103.224 21.933L103.108 22.1051C103.083 22.1482 103.04 22.1543 102.997 22.1297C102.592 21.8716 102.125 21.7302 101.713 21.7302C100.884 21.7302 100.294 22.1789 100.294 22.8489C100.294 23.5188 100.785 23.777 101.578 24.1335C102.456 24.5207 103.476 24.7727 103.476 25.916C103.476 26.8503 102.696 27.3481 101.676 27.3481C100.914 27.3481 100.294 27.047 99.9374 26.8011V26.8134Z" fill="#526373"/>
<path d="M104.404 26.8134C104.361 26.7827 104.355 26.7396 104.386 26.6966L104.49 26.5306C104.521 26.4876 104.564 26.4815 104.607 26.5122C104.957 26.7519 105.467 27.0101 106.143 27.0101C106.954 27.0101 107.562 26.5798 107.562 25.9221C107.562 25.0616 106.782 24.8711 105.897 24.4716C105.104 24.1151 104.379 23.777 104.379 22.855C104.379 21.933 105.141 21.386 106.18 21.386C106.671 21.386 107.218 21.5458 107.666 21.8224C107.709 21.847 107.715 21.89 107.691 21.933L107.574 22.1051C107.55 22.1482 107.507 22.1543 107.464 22.1297C107.058 21.8716 106.591 21.7302 106.18 21.7302C105.35 21.7302 104.76 22.1789 104.76 22.8489C104.76 23.5188 105.252 23.777 106.044 24.1335C106.923 24.5207 107.943 24.7727 107.943 25.916C107.943 26.8503 107.163 27.3481 106.143 27.3481C105.381 27.3481 104.76 27.047 104.404 26.8011V26.8134Z" fill="#526373"/>
<path d="M108.766 24.3855C108.766 22.5353 109.884 21.3921 111.678 21.3921C113.472 21.3921 114.535 22.5108 114.535 24.3855C114.535 26.2602 113.472 27.3604 111.678 27.3604C109.884 27.3604 108.766 26.2171 108.766 24.3855ZM114.136 24.3855C114.136 22.7013 113.251 21.7547 111.672 21.7547C110.093 21.7547 109.159 22.732 109.159 24.3855C109.159 26.0389 110.093 26.9977 111.672 26.9977C113.251 26.9977 114.136 26.0696 114.136 24.3855Z" fill="#526373"/>
<path d="M115.444 24.3855C115.444 22.5231 116.581 21.3921 118.35 21.3921C119.198 21.3921 119.843 21.6318 120.353 22.0866C120.384 22.1174 120.384 22.1666 120.353 22.2034L120.206 22.351C120.175 22.3817 120.126 22.3817 120.089 22.351C119.628 21.9453 119.063 21.7547 118.35 21.7547C116.784 21.7547 115.838 22.7136 115.838 24.3855C115.838 26.0573 116.784 26.9977 118.264 26.9977C119.057 26.9977 119.708 26.7519 120.187 26.2847C120.218 26.254 120.267 26.254 120.304 26.2847L120.439 26.4446C120.47 26.4753 120.47 26.5245 120.439 26.5613C119.899 27.0654 119.18 27.3665 118.271 27.3665C116.581 27.3665 115.444 26.2417 115.444 24.3916V24.3855Z" fill="#526373"/>
<path d="M121.779 27.1946V21.5582C121.779 21.509 121.809 21.4783 121.859 21.4783H122.074C122.123 21.4783 122.153 21.509 122.153 21.5582V27.1946C122.153 27.2437 122.123 27.2745 122.074 27.2745H121.859C121.809 27.2745 121.779 27.2437 121.779 27.1946Z" fill="#526373"/>
<path d="M128.414 27.2804H128.168C128.119 27.2804 128.07 27.2497 128.052 27.2067L127.357 25.6086H124.205L123.511 27.2067C123.493 27.2497 123.444 27.2804 123.395 27.2804H123.143C123.093 27.2804 123.075 27.2497 123.093 27.2067L125.631 21.472C125.649 21.4289 125.698 21.3982 125.748 21.3982H125.815C125.864 21.3982 125.913 21.4289 125.932 21.472L128.469 27.2067C128.488 27.2497 128.469 27.2804 128.42 27.2804H128.414ZM127.21 25.2828L125.778 21.9944L124.347 25.2828H127.216H127.21Z" fill="#526373"/>
<path d="M131.996 21.5582V21.7549C131.996 21.804 131.965 21.8348 131.916 21.8348H130.349V27.1884C130.349 27.2376 130.319 27.2683 130.269 27.2683H130.054C130.005 27.2683 129.975 27.2376 129.975 27.1884V21.8348H128.432C128.383 21.8348 128.346 21.804 128.346 21.7549V21.5582C128.346 21.509 128.377 21.4783 128.432 21.4783H131.922C131.971 21.4783 132.002 21.509 132.002 21.5582H131.996Z" fill="#526373"/>
<path d="M132.924 27.1946V21.5582C132.924 21.509 132.954 21.4783 133.003 21.4783H133.218C133.268 21.4783 133.298 21.509 133.298 21.5582V27.1946C133.298 27.2437 133.268 27.2745 133.218 27.2745H133.003C132.954 27.2745 132.924 27.2437 132.924 27.1946Z" fill="#526373"/>
<path d="M134.625 24.3855C134.625 22.5353 135.744 21.3921 137.531 21.3921C139.319 21.3921 140.388 22.5108 140.388 24.3855C140.388 26.2602 139.325 27.3604 137.531 27.3604C135.737 27.3604 134.625 26.2171 134.625 24.3855ZM139.995 24.3855C139.995 22.7013 139.11 21.7547 137.531 21.7547C135.952 21.7547 135.019 22.732 135.019 24.3855C135.019 26.0389 135.952 26.9977 137.531 26.9977C139.11 26.9977 139.995 26.0696 139.995 24.3855Z" fill="#526373"/>
<path d="M146.354 21.558V27.2805C146.354 27.3297 146.323 27.3604 146.274 27.3604H146.194C146.145 27.3604 146.096 27.3358 146.059 27.2928L142.109 22.1604V27.1944C142.109 27.2436 142.078 27.2743 142.029 27.2743H141.814C141.765 27.2743 141.734 27.2436 141.734 27.1944V21.472C141.734 21.4228 141.765 21.3921 141.814 21.3921H141.881C141.93 21.3921 141.98 21.4167 142.016 21.4597L145.985 26.5921V21.558C145.985 21.5089 146.016 21.4781 146.065 21.4781H146.28C146.329 21.4781 146.36 21.5089 146.36 21.558H146.354Z" fill="#526373"/>
<path d="M53.4041 19.5112C54.5899 19.6526 55.5114 20.0459 56.1811 20.6913C56.8508 21.3367 57.1826 22.1481 57.1826 23.1192C57.1826 24.2194 56.7648 25.1291 55.9354 25.8544C55.106 26.5797 54.0062 26.9424 52.6423 26.9424H45.3557V12.1599H52.0095C53.3734 12.1599 54.4731 12.5349 55.3026 13.2786C56.132 14.0223 56.5497 14.9504 56.5497 16.0445C56.5497 16.9173 56.2733 17.6549 55.7265 18.2634C55.1797 18.8719 54.4056 19.2838 53.4041 19.5112ZM51.6531 15.2209H48.8454V18.0729H51.6531C52.1446 18.0729 52.5378 17.9377 52.8266 17.6734C53.1154 17.4029 53.2567 17.0587 53.2567 16.6407C53.2567 16.2228 53.1092 15.8786 52.8266 15.6143C52.5378 15.3561 52.1446 15.2209 51.6531 15.2209ZM48.8454 23.8875H51.991C52.4825 23.8875 52.8696 23.7523 53.1522 23.488C53.4348 23.2237 53.5761 22.8734 53.5761 22.4554C53.5761 22.0374 53.4348 21.6932 53.1522 21.4289C52.8696 21.1646 52.4825 21.0355 51.991 21.0355H48.8454V23.8875Z" fill="#526373"/>
<path d="M65.2555 26.9485H59.1117V12.1599H65.2555C67.4366 12.1599 69.249 12.8668 70.6867 14.2866C72.1243 15.7003 72.8432 17.4582 72.8432 19.5604C72.8432 21.6625 72.1243 23.4142 70.6867 24.8341C69.249 26.254 67.4427 26.9608 65.2555 26.9608V26.9485ZM62.6997 15.3254V23.7769H64.9361C66.1894 23.7769 67.197 23.3835 67.965 22.5968C68.7329 21.81 69.1139 20.7958 69.1139 19.5542C69.1139 18.3126 68.7329 17.2984 67.965 16.5117C67.197 15.7249 66.1894 15.3315 64.9361 15.3315H62.6997V15.3254Z" fill="#526373"/>
<path d="M80.1482 25.8729L83.9266 12.1599H87.5392L83.1648 26.9547H76.9104L72.536 12.1599H76.3574L80.1359 25.8729H80.1482Z" fill="#526373"/>
</g>
<defs>
<clipPath id="clip0_5018_50890">
<rect width="155.5" height="38.0594" fill="white" transform="translate(0.800781 0.5)"/>
</clipPath>
</defs>
</svg>
