<svg width="117" height="32" viewBox="0 0 117 32" fill="none" xmlns="http://www.w3.org/2000/svg">
<g clip-path="url(#clip0_5018_50834)">
<path d="M88.5942 26.3701C89.6007 28.2199 90.583 30.0259 91.6363 31.961C91.2708 31.961 90.987 31.9645 90.7045 31.961C89.7438 31.948 88.783 31.9124 87.8223 31.9278C87.4171 31.9349 87.2175 31.7785 87.0479 31.4348C86.4455 30.2107 85.7818 29.0139 85.2047 27.7791C84.9473 27.2269 84.6311 26.9235 83.9974 26.9899C83.7858 27.0124 83.567 26.9733 83.2616 26.9567V31.916H79.4788V17.4577C80.377 17.4577 81.2343 17.4387 82.0916 17.4612C83.5706 17.5003 85.0556 17.5027 86.5273 17.6354C88.4211 17.8061 89.9818 18.5633 90.6047 20.5031C91.266 22.5651 90.7321 24.3497 89.1798 25.8535C89.0103 26.0182 88.8263 26.1675 88.5954 26.3713L88.5942 26.3701ZM83.2062 24.1115C84.1994 23.9906 85.1 23.9527 85.9646 23.756C86.781 23.5699 87.1405 22.8518 87.0708 21.8931C87.0107 21.0767 86.6596 20.6868 85.7445 20.5695C85.0339 20.4782 84.3101 20.4628 83.5922 20.4557C83.4648 20.4545 83.2267 20.6536 83.2243 20.765C83.1954 21.8256 83.2075 22.8862 83.2075 24.1115H83.2062Z" fill="#526373"/>
<path d="M69.9882 17.5039C73.7734 17.498 76.3934 19.9154 76.7229 23.6671C76.8732 25.3771 76.6724 27.016 75.9136 28.566C74.8098 30.821 72.0888 32.2217 69.5565 31.9717C67.4006 31.7584 65.5982 30.9763 64.4186 29.1312C63.3918 27.5244 63.0695 25.7303 63.2294 23.8485C63.3653 22.2558 63.8511 20.7852 64.9369 19.5706C66.2703 18.0775 68.0186 17.5134 69.9882 17.5039ZM73.0339 24.7953L72.8836 24.7538C72.8836 23.6529 72.6635 22.7002 72.2355 21.9643C71.3216 20.393 69.12 20.2413 67.9994 21.674C66.8547 23.1374 66.7729 26.0229 67.8335 27.5563C69.025 29.2805 71.4058 29.1502 72.304 27.2577C72.6671 26.4922 72.797 25.6189 73.0339 24.7953Z" fill="#526373"/>
<path d="M0.35547 14.6242V0.11845C0.389137 0.0923794 0.419197 0.046164 0.449257 0.046164C2.72422 0.0556441 5.00999 -0.190838 7.2609 0.362562C9.72103 0.966916 11.218 2.47899 11.7411 4.92248C12.1331 6.75095 12.1174 8.57231 11.485 10.3486C10.701 12.5551 9.09698 13.9416 6.77393 14.2497C4.68294 14.527 2.55227 14.5092 0.354267 14.6253L0.35547 14.6242ZM4.1142 11.6794C4.77432 11.5254 5.34066 11.4234 5.89016 11.2587C6.8617 10.9684 7.54828 10.3332 7.7563 9.35323C7.95109 8.43722 8.13746 7.48328 8.08696 6.55898C7.94868 4.06927 6.5106 2.82264 4.1142 2.99565V11.6794Z" fill="#526373"/>
<path d="M115.716 20.6144C114.052 20.6144 112.492 20.6144 110.933 20.6144C110.39 20.6144 110.118 20.8791 110.117 21.4084C110.117 21.899 110.117 22.3884 110.117 22.9477H114.755V26.088H110.158V28.8206H115.812V31.9171H106.338C106.325 31.7156 106.301 31.5284 106.301 31.34C106.299 26.94 106.307 22.5389 106.289 18.139C106.287 17.6567 106.412 17.4931 106.92 17.4967C109.644 17.5192 112.366 17.5192 115.089 17.4967C115.596 17.4919 115.747 17.6507 115.724 18.1366C115.688 18.94 115.715 19.7458 115.715 20.6144H115.716Z" fill="#526373"/>
<path d="M36.4229 19.145C35.7243 19.997 35.1496 20.7246 34.5339 21.4178C34.4438 21.5197 34.1456 21.5091 33.9688 21.4605C33.1259 21.2247 32.3047 20.9071 31.4522 20.721C30.8413 20.5871 30.2534 20.7672 29.8806 21.336C29.6353 21.7105 29.6257 22.0328 30.1199 22.2295C30.8618 22.5234 31.6001 22.8268 32.3395 23.129C33.079 23.43 33.8269 23.7108 34.5532 24.039C37.1456 25.2098 37.1492 28.1107 35.9299 29.8183C35.0197 31.0946 33.673 31.6433 32.2097 31.8731C29.752 32.2595 27.5431 31.5579 25.5531 30.1276C25.4918 30.0838 25.4485 30.0151 25.3752 29.9333C25.9644 29.2211 26.5295 28.5065 27.1415 27.8311C27.2401 27.7221 27.578 27.7138 27.7415 27.7908C28.8874 28.3312 30.0393 28.8194 31.3536 28.7376C31.9295 28.7021 32.4021 28.5089 32.7003 27.9946C32.8854 27.6747 32.9047 27.4163 32.4935 27.2433C31.8321 26.9637 31.1828 26.6591 30.5251 26.3723C29.6846 26.0062 28.8009 25.717 28.0085 25.2703C25.2237 23.6978 25.2562 19.9934 28.0373 18.396C29.8073 17.3793 31.6866 17.2335 33.5961 17.8497C34.5351 18.1531 35.4021 18.671 36.4241 19.1485L36.4229 19.145Z" fill="#526373"/>
<path d="M116.007 1.70768C115.362 2.504 114.78 3.25174 114.156 3.96512C114.068 4.06466 113.768 4.04452 113.59 3.99593C112.727 3.76248 111.884 3.4449 111.01 3.26833C110.428 3.15102 109.847 3.3181 109.496 3.88335C109.262 4.259 109.236 4.56947 109.741 4.76382C110.505 5.0577 111.258 5.37291 112.015 5.68457C112.789 6.00334 113.59 6.27589 114.328 6.66102C116.064 7.56518 116.729 9.26448 116.149 11.1202C115.703 12.5458 114.736 13.495 113.346 14.0045C110.298 15.122 107.581 14.3351 104.961 12.5244C105.599 11.7459 106.185 11.0029 106.813 10.2966C106.891 10.2089 107.215 10.2587 107.384 10.3334C108.559 10.8512 109.728 11.3643 111.064 11.2683C111.595 11.2304 112.036 11.0693 112.309 10.581C112.507 10.2291 112.508 9.94349 112.093 9.75863C111.438 9.46593 110.785 9.1685 110.123 8.88765C109.407 8.5831 108.66 8.33899 107.967 7.98941C106.395 7.19546 105.453 5.95594 105.579 4.15235C105.699 2.45542 106.697 1.32255 108.228 0.631688C110.349 -0.3258 112.433 -0.0947233 114.477 0.880539C114.978 1.11873 115.454 1.4055 116.008 1.70768H116.007Z" fill="#526373"/>
<path d="M62.2567 1.70044C61.5929 2.51573 61.0182 3.24807 60.4026 3.94604C60.3112 4.05032 60.0154 4.04795 59.841 4.00055C58.9777 3.76828 58.1348 3.44478 57.2619 3.26821C56.5248 3.1189 55.9464 3.45307 55.6819 3.97329C55.5076 4.31576 55.5328 4.57409 55.9272 4.73407C56.704 5.0481 57.4807 5.36449 58.2551 5.68563C59.0474 6.01388 59.8663 6.29472 60.6214 6.69289C62.235 7.54491 62.906 9.14823 62.4479 10.9068C61.9681 12.7483 60.6611 13.7733 58.8851 14.2378C56.1316 14.9583 53.6607 14.2438 51.4025 12.6416C51.3569 12.6096 51.3316 12.5504 51.2583 12.4532C51.839 11.7434 52.4138 11.0134 53.0294 10.3202C53.1124 10.2266 53.4286 10.2491 53.5909 10.3202C54.7657 10.8333 55.9308 11.3583 57.2679 11.2706C57.8246 11.235 58.2779 11.062 58.5641 10.5584C58.7517 10.229 58.7577 9.95996 58.3681 9.78221C57.7152 9.48477 57.0635 9.18259 56.4034 8.90056C55.6687 8.58653 54.904 8.33531 54.1909 7.98218C52.6951 7.24273 51.7753 6.05535 51.8065 4.37027C51.839 2.59868 52.831 1.38049 54.4338 0.646969C56.4815 -0.290374 58.5184 -0.119732 60.5216 0.79391C61.0807 1.04869 61.6122 1.36153 62.2567 1.70044Z" fill="#526373"/>
<path d="M104.248 19.3049C103.597 20.0171 102.992 20.6925 102.362 21.3466C102.287 21.4237 102.065 21.4177 101.934 21.3786C101.61 21.2791 101.301 21.1333 100.984 21.0148C99.2957 20.3832 97.7999 20.9449 97.0351 22.5648C96.3185 24.0816 96.339 25.6304 97.0989 27.1307C97.7975 28.5112 99.1622 29.0385 100.629 28.5349C101.119 28.3666 101.58 28.119 102.071 27.9531C102.234 27.8974 102.521 27.9128 102.625 28.0182C103.226 28.6214 103.789 29.2601 104.411 29.9368C103.626 30.6798 102.744 31.1953 101.763 31.5448C97.4536 33.0782 92.3578 30.3255 92.6319 24.5106C92.7474 22.0612 93.6263 19.9519 95.8327 18.6045C98.2676 17.1185 100.737 17.0806 103.185 18.6128C103.521 18.8226 103.849 19.0442 104.248 19.3049Z" fill="#526373"/>
<path d="M35.057 0.0686035C35.057 1.0178 35.075 1.94092 35.0342 2.86167C35.0293 2.97662 34.7227 3.16977 34.552 3.17451C33.4963 3.20414 32.4381 3.18873 31.2947 3.18873V14.489H27.4878V3.18636H23.681V0.0686035H35.057Z" fill="#526373"/>
<path d="M4.16951 31.961V20.6738H0.360279V17.5513H11.6762V20.6501C10.7828 20.6501 9.89057 20.6441 8.99959 20.6513C7.82844 20.6619 7.97754 20.5008 7.97393 21.649C7.96672 24.8651 7.9583 28.0801 7.97874 31.2962C7.98235 31.801 7.86692 31.9954 7.31862 31.9728C6.28455 31.9302 5.24687 31.961 4.17071 31.961H4.16951Z" fill="#526373"/>
<path d="M76.3994 13.8042C74.906 11.3264 73.4174 8.84614 71.9096 6.37658C71.7148 6.05781 71.7136 5.84214 71.9421 5.53759C73.1806 3.88687 74.395 2.21956 75.6154 0.556996C75.7237 0.410055 75.8138 0.250078 75.9629 0.0190016C74.6595 0.0190016 73.4788 0.0355917 72.2992 0.00952148H71.8182L71.6259 0.265484C71.5741 0.319994 71.5249 0.381614 71.4768 0.455085C70.5088 1.90554 69.5156 3.34177 68.5297 4.78155C68.4166 4.94627 68.2904 5.10269 68.1701 5.26267C68.122 5.24252 68.0751 5.22238 68.027 5.20342V0.072327H64.2984C64.2731 0.162388 64.2539 0.201493 64.2539 0.239413C64.2491 4.76141 64.2479 9.28222 64.2383 13.8042V14.5354H68.0246V14.1976C68.0331 14.1408 68.0355 14.0768 68.0343 14.0057C68.0174 13.297 68.0222 12.5872 68.0331 11.8774V10.5834L69.3762 9.00967C69.5192 9.23126 69.6299 9.39006 69.7273 9.55714C70.5713 11.0029 71.407 12.4533 72.2607 13.8943L72.2667 13.9038C72.2896 13.9429 72.3124 13.982 72.3365 14.0211C72.3653 14.0697 72.4002 14.1242 72.4399 14.1763L72.6251 14.469L72.8162 14.4749H72.8247L72.91 14.4773C74.1545 14.5117 75.4038 14.4951 76.7938 14.4951C76.6122 14.1739 76.5136 13.9855 76.403 13.8042H76.3994Z" fill="#526373"/>
<path d="M50.8675 31.2381C49.3741 28.7602 47.8855 26.28 46.3777 23.8104C46.1829 23.4916 46.1817 23.276 46.4101 22.9714C47.6486 21.3207 48.8631 19.6534 50.0835 17.9908C50.1917 17.8439 50.2819 17.6839 50.431 17.4528C49.1276 17.4528 47.9468 17.4694 46.7672 17.4434H46.2863L46.0939 17.6993C46.0422 17.7538 45.9929 17.8155 45.9448 17.8889C44.9769 19.3394 43.9837 20.7756 42.9977 22.2154C42.8847 22.3801 42.7584 22.5365 42.6382 22.6965C42.5901 22.6764 42.5432 22.6562 42.4951 22.6373V17.5074H38.7664C38.7412 17.5974 38.7219 17.6365 38.7219 17.6744C38.7171 22.1964 38.7159 26.7172 38.7063 31.2392V31.9704H42.4927V31.6327C42.5011 31.5758 42.5035 31.5118 42.5023 31.4407C42.4855 30.7321 42.4903 30.0222 42.5011 29.3124V28.0184L43.8442 26.4447C43.9873 26.6663 44.0979 26.8251 44.1953 26.9922C45.0394 28.4379 45.8751 29.8883 46.7288 31.3293L46.7348 31.3388C46.7576 31.3779 46.7805 31.417 46.8045 31.4561C46.8334 31.5047 46.8683 31.5592 46.9079 31.6113L47.0931 31.904L47.2843 31.91H47.2927L47.3781 31.9123C48.6226 31.9467 49.8719 31.9301 51.2619 31.9301C51.0803 31.609 50.9817 31.4205 50.8711 31.2392L50.8675 31.2381Z" fill="#526373"/>
<path d="M47.413 14.2261C46.0398 9.68398 44.6667 5.14065 43.2719 0.604438L43.1131 0.0332631H42.0959V0.0356331C41.1352 0.024968 40.1708 0.0427432 39.2089 0.019043C39.1813 0.019043 39.156 0.019043 39.1296 0.019043H38.5235L38.3348 0.578368C38.3191 0.619843 38.3035 0.662503 38.2903 0.708719C36.9388 5.14895 35.5596 9.58088 34.1913 14.0152C34.148 14.1562 34.1323 14.3055 34.0903 14.5236C35.2939 14.5236 36.435 14.5354 37.5736 14.507H37.6217C37.6446 14.5058 37.6662 14.5058 37.6891 14.5046C37.6915 14.5046 37.6939 14.5034 37.6951 14.5034L38.0209 14.4916L38.176 13.6621C38.3203 13.0968 38.4454 12.5256 38.5704 11.9545C38.574 11.9367 38.5788 11.9201 38.5837 11.9035L38.6738 11.4994L41.8422 11.5373C42.0009 11.5373 42.1608 11.5373 42.3195 11.5373C42.364 11.5373 42.4061 11.5397 42.4446 11.5444L42.7921 11.5492L42.8715 12.0184C42.9496 12.4095 43.0338 12.7994 43.1252 13.1881L43.4318 14.4773L44.045 14.4892C45.1632 14.507 46.2839 14.4999 47.4178 14.4999C47.4178 14.379 47.4358 14.2984 47.4154 14.2297L47.413 14.2261ZM39.3748 8.50371C39.7933 6.62903 40.2009 4.79937 40.6097 2.96853C40.665 2.96379 40.7191 2.96024 40.7744 2.9555C41.1977 4.77686 41.6209 6.59822 42.0634 8.50371H39.3748Z" fill="#526373"/>
<path d="M16.6337 12.5207L16.6361 12.5125L16.6337 12.5207Z" fill="#526373"/>
<path d="M25.6397 14.4973C25.6265 14.3444 25.6313 14.284 25.6145 14.2295C24.2245 9.63637 22.8309 5.04327 21.4469 0.447808C21.4277 0.383817 21.4048 0.330492 21.3784 0.283092L21.2918 0.0212045L20.9143 0.0235746C20.8902 0.0235746 20.8674 0.0212045 20.8421 0.0212045C19.6806 0.0366097 18.5179 0.0401647 17.3563 0.0212045C17.3118 0.0212045 17.271 0.0212045 17.2313 0.0235746L16.7287 0.0200195L16.5784 0.459658C16.5543 0.512983 16.5327 0.571049 16.5134 0.636224C15.2617 4.75176 13.9776 8.85782 12.7054 12.9662C12.5551 13.4533 12.4096 13.9415 12.2353 14.5186C13.4581 14.5186 14.6112 14.5305 15.7607 14.502H15.798C15.8317 14.5008 15.8653 14.4996 15.899 14.4985C15.9014 14.4985 15.9026 14.4973 15.905 14.4973L16.2092 14.4866L16.4209 13.4651C16.4942 13.1499 16.5615 12.8323 16.6385 12.5183L16.6409 12.51C16.6866 12.3192 16.7359 12.1308 16.7912 11.9424C16.7924 11.9377 16.796 11.9329 16.7972 11.9282L16.9114 11.5051L18.3447 11.5158L19.4329 11.5241L19.9415 11.5276C20.0738 11.5276 20.206 11.5276 20.3383 11.5288H20.9479L21.0153 11.8239C21.0309 11.8654 21.0441 11.9104 21.0537 11.9625C21.1656 12.5254 21.2882 13.0859 21.4277 13.6429L21.4373 13.682L21.6405 14.4854L22.2417 14.4819C23.3612 14.5032 24.4854 14.4937 25.6469 14.4937L25.6397 14.4973ZM17.5728 8.48928C17.99 6.62052 18.3988 4.79087 18.8076 2.96121C18.8617 2.96121 18.9159 2.95884 18.97 2.95884C19.3932 4.78376 19.8153 6.60749 20.2517 8.48928H17.5728Z" fill="#526373"/>
<path d="M81.2343 0.019043H77.4058V14.5378H80.5129C80.5129 14.5378 80.5201 14.5378 80.5237 14.5378C80.5946 14.5413 80.6595 14.5413 80.7185 14.5378H81.2343V0.019043Z" fill="#526373"/>
<path d="M89.5165 11.3809L89.5201 11.3667C89.2363 11.3691 88.9514 11.375 88.6676 11.3809H89.5165Z" fill="#526373"/>
<path d="M92.5682 11.3727C91.5522 11.3727 90.5361 11.3584 89.5201 11.3667L89.5165 11.381H88.6676C88.6063 11.3821 88.5462 11.3821 88.4848 11.3845C88.4151 11.3869 88.3526 11.3845 88.2961 11.381H87.7862V10.8193C87.7838 10.7778 87.7826 10.7351 87.7826 10.6877C87.8079 7.3934 87.7971 4.09908 87.7983 0.804752C87.7983 0.571305 87.7983 0.337859 87.7983 0.019091C86.8195 0.019091 85.9201 0.0439762 85.0327 0.019091L84.9714 0.016721C84.862 0.013166 84.7513 0.00961096 84.6419 0.00487092C84.5614 0.00131589 84.4916 0.0025009 84.4291 0.00961096L83.9842 0.00368591L83.9866 0.704027C84.0023 4.848 84.0035 8.99317 83.9866 13.1371H83.9842V14.5366H84.5698C84.6023 14.5366 84.6347 14.5366 84.6696 14.5366C87.3317 14.5141 89.9939 14.5272 92.656 14.5248C92.8484 14.5248 93.0071 14.5295 93.2488 14.5295V11.3715C92.9963 11.3715 92.7822 11.3715 92.5682 11.3715V11.3727Z" fill="#526373"/>
<path d="M104.454 11.3655H98.9338V0.0213773C97.8793 0.0213773 96.8812 0.0118972 95.8917 0.0332274V0.0308574L95.1414 0.0178223V0.788078L95.1558 0.790448C95.1341 1.55952 95.1462 2.32859 95.1462 3.09885C95.1462 6.6918 95.145 10.2859 95.1462 13.8789C95.1462 14.1822 95.0584 14.5306 95.5838 14.5294C98.3578 14.52 101.132 14.5294 103.906 14.5093H104.444V13.8765C104.466 13.0802 104.454 12.272 104.454 11.3655Z" fill="#526373"/>
<path d="M24.6297 31.9586C24.6045 31.7785 24.6045 31.7002 24.5828 31.6291C23.1952 27.055 21.8016 22.4832 20.4237 17.9056C20.3191 17.5572 20.1135 17.505 19.8044 17.5074C18.6633 17.5157 17.5211 17.537 16.38 17.4991C15.8377 17.4813 15.6164 17.6887 15.4649 18.1828C14.105 22.6361 12.7198 27.0823 11.3443 31.532C11.307 31.654 11.3022 31.7844 11.2745 31.9586C12.4144 31.9586 13.5062 31.9704 14.5944 31.9444H15.2004L15.4024 30.9241C15.5154 30.4584 15.6176 29.9891 15.7439 29.5269H15.7427L15.8882 28.9747H16.2092C16.2213 28.9724 16.2333 28.9688 16.2453 28.9688C17.1856 28.9475 18.1283 28.9712 19.0698 28.9747H19.9415L20.0245 29.3812C20.0365 29.4238 20.0473 29.4701 20.0569 29.521C20.1339 29.9595 20.2313 30.3956 20.3395 30.8293H20.3383L20.6016 31.9609L21.602 31.9527C22.5916 31.9645 23.5884 31.9574 24.6321 31.9574L24.6297 31.9586ZM16.5519 25.9494C16.974 24.0747 17.3816 22.2664 17.7892 20.4569H17.9587C18.3784 22.264 18.798 24.0723 19.2345 25.9494H16.5519Z" fill="#526373"/>
<path d="M56.3757 20.6167H56.7797C56.8615 20.6049 56.9541 20.6013 57.0599 20.6049C58.3813 20.6404 59.7028 20.6428 61.0242 20.6369L61.0266 20.6499H61.9236V18.9601C61.9236 18.4897 61.9212 18.018 61.9212 17.5464H52.617V31.9526C53.7436 31.9526 54.845 31.962 55.944 31.9336H56.0282C56.0547 31.9312 56.0823 31.9312 56.1088 31.93C56.1112 31.93 56.1124 31.93 56.1148 31.9289L56.3625 31.9206V31.3778C56.3817 29.9606 56.3829 28.5445 56.3649 27.1272C56.3601 26.729 56.4659 26.5501 56.9036 26.5785C57.4026 26.6105 57.904 26.5856 58.4054 26.5856C59.3192 26.5856 60.233 26.5856 61.2058 26.5856C61.2058 25.6969 61.1721 24.8911 61.2178 24.0876C61.2238 23.981 61.2202 23.8909 61.207 23.8139L61.2022 23.4406H60.7513C60.6839 23.4347 60.6082 23.4323 60.5252 23.4347C59.3048 23.4655 58.0819 23.4347 56.8615 23.4489H56.3697V22.7746L56.3769 22.7853C56.3973 22.2758 56.4106 21.7638 56.3721 21.2567C56.3649 21.1536 56.3661 21.0659 56.3769 20.9912V20.6156L56.3757 20.6167Z" fill="#526373"/>
</g>
<defs>
<clipPath id="clip0_5018_50834">
<rect width="116" height="32" fill="white" transform="translate(0.355469)"/>
</clipPath>
</defs>
</svg>
