<svg width="81" height="63" viewBox="0 0 81 63" fill="none" xmlns="http://www.w3.org/2000/svg">
<circle cx="40.2997" cy="30.7689" r="24.5" fill="#E6EEFF"/>
<rect x="43.7999" y="18.2692" width="22" height="11" fill="#D9D9D9"/>
<g filter="url(#filter0_dd_5272_1071)">
<path d="M14.2677 13.2692H66.8706C69.3364 13.2692 71.3384 15.1704 71.3384 17.512V44.7187C71.3384 47.0603 69.3364 48.9615 66.8706 48.9615H14.2677C11.8019 48.9615 9.79993 47.0603 9.79993 44.7187V17.512C9.79993 15.1704 11.8019 13.2692 14.2677 13.2692Z" fill="white"/>
</g>
<path d="M26.0382 29.6057H19.4719V43.2341H26.0382V29.6057Z" fill="#9FC0FF"/>
<path d="M27.1327 38.3873H18.9572V39.6096H27.1327V38.3873Z" fill="#9FC0FF"/>
<path d="M26.8093 35.9559H19.9287V37.1782H26.8093V35.9559Z" fill="#9FC0FF"/>
<path d="M18.3777 45.3831H28.165L27.1329 40.17H18.9932L18.3777 40.9841V45.3831Z" fill="#9FC0FF"/>
<path d="M15.1185 30.624C15.1047 30.5458 15.097 30.4653 15.0967 30.3824C14.3069 29.7562 13.7999 28.7924 13.7999 27.7131C13.7999 26.8408 14.1436 25.9909 14.7475 25.3593C14.5492 24.9935 14.445 24.5829 14.445 24.1631C14.445 23.0051 15.2454 21.9937 16.3657 21.7112C16.5152 20.8329 16.9666 20.0312 17.6453 19.4429C18.3566 18.8262 19.2692 18.4866 20.2147 18.4866C20.4417 18.4866 20.6536 18.5028 20.8594 18.536C21.5998 17.7296 22.6433 17.2692 23.7386 17.2692C24.3824 17.2692 25.0247 17.4315 25.5955 17.7386C26.1254 18.0235 26.5845 18.4279 26.9301 18.9128C27.1275 18.8633 27.3288 18.8382 27.5307 18.8382C28.174 18.8382 28.7824 19.083 29.2443 19.5279C29.6292 19.8984 29.8814 20.3842 29.9627 20.907C31.4203 21.3456 32.4278 22.6851 32.4278 24.206C32.4278 26.1068 30.8704 27.6529 28.9559 27.6529H28.351C28.1924 28.8723 27.1404 29.8041 25.8846 29.8041H21.4939L20.3187 30.624H15.1185Z" fill="#9FC0FF"/>
<path d="M32.3406 40.2387L28.3319 38.5634C26.8524 37.9451 25.8891 36.5052 25.8889 34.9117V31.0586C25.8889 30.1906 26.0744 29.3323 26.4332 28.5407L26.9915 27.309C27.1922 26.8665 27.2959 26.3865 27.2959 25.9012V20.2737H31.5171L32.2987 31.2936L32.3406 40.2387Z" fill="#E7EEFF"/>
<path d="M18.0596 34.9372C18.0596 35.5726 18.5786 36.0879 19.2187 36.0879H21.5746C22.2147 36.0879 22.7338 35.5726 22.7338 34.9372C22.7338 34.3017 22.2147 33.7864 21.5746 33.7864H19.2187C18.5786 33.7864 18.0596 34.3017 18.0596 34.9372Z" fill="#3D7FFC"/>
<path d="M17.9821 32.3115C17.9821 32.947 18.5012 33.4623 19.1413 33.4623H21.4971C22.1372 33.4623 22.6563 32.947 22.6563 32.3115C22.6563 31.6761 22.1372 31.1608 21.4971 31.1608H19.1413C18.5012 31.1608 17.9821 31.6761 17.9821 32.3115Z" fill="#3D7FFC"/>
<path d="M18.2892 37.7178C18.2892 38.3533 18.8083 38.8686 19.4484 38.8686H21.8042C22.4443 38.8686 22.9634 38.3533 22.9634 37.7178C22.9634 37.0823 22.4443 36.567 21.8042 36.567H19.4484C18.8083 36.567 18.2892 37.0823 18.2892 37.7178Z" fill="#3D7FFC"/>
<path opacity="0.5" d="M30.342 37.4356L29.5923 33.687C29.5923 33.687 29.5918 33.6845 29.5908 33.6793C29.5317 33.3833 29.2708 33.1713 28.9671 33.1713H25.8889V32.6001H28.6007C28.7401 32.6001 28.8687 32.5258 28.9373 32.4054C29.0059 32.285 29.0044 32.1372 28.9328 32.0186C28.7852 31.7742 28.6076 31.5301 28.3945 31.3067C27.7009 30.5802 27.8614 29.7708 28.245 29.293C28.2948 29.2309 28.3043 29.146 28.2698 29.0745C28.2351 29.003 28.1621 28.9578 28.0823 28.9578H26.2645C26.3163 28.8171 26.3713 28.6772 26.4332 28.5401L26.5029 28.3863H28.4834C29.0616 28.3863 29.5442 27.9466 29.5921 27.3748C29.5921 27.3741 29.5921 27.3735 29.5921 27.3731V23.1311C29.5921 23.1311 29.5921 22.3041 28.9166 21.9933C28.9166 21.9933 28.643 21.8364 28.2247 21.6648C27.6629 21.4346 27.2959 20.8901 27.2959 20.2866V20.2731H31.5171L32.1035 28.538L32.299 31.293L32.3406 40.2381C31.2444 39.6423 30.5853 38.6519 30.342 37.4352V37.4356Z" fill="#9FC0FF"/>
<path d="M30.9949 23.1313V27.3733C30.9432 27.9946 30.7358 28.6673 30.1102 28.9265C29.4843 29.1857 28.8585 30.3234 29.7972 31.3067C30.7358 32.2899 30.9949 33.6868 30.9949 33.6868L32.3405 40.2383L34.0039 40.8781C34.3495 41.0111 34.7322 41.0123 35.0789 40.8821L35.4968 40.7251C36.0812 40.5056 36.4678 39.95 36.4678 39.3296V38.6013L37.0937 37.7209C37.6678 37.2559 37.3375 36.4204 37.3375 36.4204L37.3591 36.4011L37.7194 36.0648C37.8035 35.9278 37.8272 35.7928 37.8164 35.6727C37.7905 35.3321 37.5099 35.0835 37.5099 35.0835C37.3006 33.4274 38.7098 33.1167 38.7098 33.1167C39.5946 32.7547 39.0744 32.1848 39.0744 32.1848L35.8418 28.3564C36.4676 27.2186 35.8935 25.7704 35.8935 25.7704L35.7382 24.5277C34.8796 19.018 28.235 18.7094 28.235 18.7094V21.2696C29.329 21.4238 30.3197 21.9938 30.3197 21.9938C30.9952 22.3043 30.9952 23.1315 30.9952 23.1315L30.9949 23.1313Z" fill="#3D7FFC"/>
<g style="mix-blend-mode:multiply">
<path d="M35.542 36.4016H37.359L37.7193 36.0654C37.8034 35.9283 37.8271 35.7934 37.8164 35.6732L35.5418 36.4016H35.542Z" fill="#D2DCE4"/>
</g>
<path opacity="0.5" d="M37.0937 37.7213L36.4678 38.6018V39.4568L35.9634 39.0396C35.697 38.8192 35.5432 38.4928 35.5432 38.1486L37.2087 37.608C37.1748 37.6474 37.1377 37.6858 37.0939 37.7213H37.0937Z" fill="#D2DCE4"/>
<g style="mix-blend-mode:multiply">
<path d="M39.143 32.2837C39.2476 32.4621 39.3693 32.847 38.7089 33.1171C38.7089 33.1171 38.2269 33.2261 37.8688 33.6474H36.7155C37.1465 32.8922 38.3503 32.4803 39.143 32.2837Z" fill="#D2DCE4"/>
</g>
<path d="M30.3195 21.9938C30.3195 21.9938 29.329 21.4238 28.2348 21.2696V18.7094C28.2348 18.7094 28.6716 18.7303 29.3338 18.8528C29.3577 19.5742 29.5627 20.6342 30.5007 21.0754C31.9858 21.7738 32.0642 22.6275 32.0642 24.296V26.9734C32.0642 26.9734 32.2206 28.254 30.8135 29.3403C30.8135 29.3403 29.6019 30.1552 30.7354 31.0865C30.8916 31.2148 31.0269 31.3628 31.1473 31.5228L31.1503 31.4934L32.607 32.7254H33.794L32.4991 33.2075L31.6637 32.5058C31.9714 33.3465 32.0626 34.2535 32.1815 34.7729L33.0805 39.6232C33.0805 39.6232 33.1757 40.198 34.038 40.8877L32.3405 40.2389L30.995 33.6875C30.995 33.6875 30.7358 32.2906 29.7972 31.3073C28.8585 30.324 29.4843 29.1863 30.1102 28.9271C30.7361 28.668 30.9432 27.9952 30.995 27.3739V23.1319C30.995 23.1319 30.9949 22.305 30.3195 21.9942V21.9938Z" fill="#9FC0FF"/>
<path d="M35.1152 29.8262C35.0928 29.606 34.9213 29.337 34.855 29.1725C34.7528 28.9189 34.8048 28.6293 34.9886 28.4259C35.0865 28.3175 35.1847 28.1451 35.2535 27.8716C35.2535 27.8716 34.7064 28.376 33.9636 28.3372C33.9636 28.3372 32.9865 28.376 32.6346 28.9581C32.6346 28.9581 34.3347 30.0712 34.3554 30.0849C34.5657 30.2226 34.9599 30.2635 35.0889 30.0059C35.1154 29.953 35.1219 29.8917 35.1152 29.8262Z" fill="#F5F8FF"/>
<path d="M18.2633 37.9321H19.3167V37.5037H18.2633C17.8665 37.5037 17.4806 37.3893 17.1468 37.173C15.4563 36.0781 15.336 34.8367 15.5332 33.8069C15.781 32.8147 16.9002 32.4988 17.5955 32.4988L17.597 32.0705H17.5955C16.5238 31.9878 15.2891 32.8431 15.1204 33.7242C14.8984 34.8829 15.0205 36.3073 16.9112 37.532C17.3151 37.7937 17.7828 37.9321 18.2635 37.9321H18.2633Z" fill="#3D7FFC"/>
<path d="M18.3018 35.2426L18.3182 34.8145C18.3107 34.814 17.5644 34.7761 17.0652 34.1966C16.6765 33.7453 16.5291 33.0831 16.6271 32.2283L16.1935 32.4839C16.1935 33.1454 16.2687 33.9348 16.7418 34.4804C17.367 35.2013 18.2641 35.2411 18.3021 35.2426H18.3018Z" fill="#3D7FFC"/>
<path d="M20.6837 26.5054C22.0724 26.5054 23.1981 25.3878 23.1981 24.0092C23.1981 22.6305 22.0724 21.5129 20.6837 21.5129C19.295 21.5129 18.1692 22.6305 18.1692 24.0092C18.1692 25.3878 19.295 26.5054 20.6837 26.5054Z" fill="white"/>
<path d="M21.2955 20.5685H20.0723V22.3901H21.2955V20.5685Z" fill="white"/>
<path d="M18.6656 21.1469L17.8006 22.0056L19.0981 23.2937L19.963 22.435L18.6656 21.1469Z" fill="white"/>
<path d="M19.0529 23.4021H17.218V24.6165H19.0529V23.4021Z" fill="white"/>
<path d="M19.0981 24.7246L17.8006 26.0127L18.6656 26.8714L19.963 25.5833L19.0981 24.7246Z" fill="white"/>
<path d="M21.2955 25.6282H20.0723V27.4498H21.2955V25.6282Z" fill="white"/>
<path d="M22.2698 24.7248L21.4048 25.5835L22.7022 26.8715L23.5672 26.0128L22.2698 24.7248Z" fill="white"/>
<path d="M24.1494 23.4021H22.3145V24.6165H24.1494V23.4021Z" fill="white"/>
<path d="M22.7019 21.1468L21.4044 22.4348L22.2694 23.2935L23.5669 22.0055L22.7019 21.1468Z" fill="white"/>
<path d="M20.6839 22.4574C21.5458 22.4574 22.247 23.1535 22.247 24.0092C22.247 24.8648 21.5458 25.5609 20.6839 25.5609C19.8221 25.5609 19.1209 24.8648 19.1209 24.0092C19.1209 23.1535 19.8221 22.4574 20.6839 22.4574ZM20.6839 22.3225C19.7472 22.3225 18.985 23.0792 18.985 24.0092C18.985 24.9391 19.7472 25.6958 20.6839 25.6958C21.6207 25.6958 22.3829 24.9391 22.3829 24.0092C22.3829 23.0792 21.6207 22.3225 20.6839 22.3225Z" fill="#76A5FF"/>
<path d="M20.6839 25.0209C21.2468 25.0209 21.7032 24.5678 21.7032 24.0089C21.7032 23.45 21.2468 22.9969 20.6839 22.9969C20.1209 22.9969 19.6645 23.45 19.6645 24.0089C19.6645 24.5678 20.1209 25.0209 20.6839 25.0209Z" fill="#3D7FFC"/>
<path d="M16.7698 28.9227C17.3653 28.9227 17.8481 28.4434 17.8481 27.8522C17.8481 27.261 17.3653 26.7817 16.7698 26.7817C16.1743 26.7817 15.6916 27.261 15.6916 27.8522C15.6916 28.4434 16.1743 28.9227 16.7698 28.9227Z" fill="white"/>
<path d="M17.0326 26.3766H16.5079V27.1577H17.0326V26.3766Z" fill="white"/>
<path d="M15.9043 26.6246L15.5333 26.9929L16.0897 27.5452L16.4607 27.1769L15.9043 26.6246Z" fill="white"/>
<path d="M16.0705 27.5918H15.2837V28.1127H16.0705V27.5918Z" fill="white"/>
<path d="M16.0897 28.1591L15.5333 28.7114L15.9043 29.0797L16.4607 28.5274L16.0897 28.1591Z" fill="white"/>
<path d="M17.0326 28.5466H16.5079V29.3277H17.0326V28.5466Z" fill="white"/>
<path d="M17.4502 28.1589L17.0792 28.5272L17.6356 29.0795L18.0066 28.7112L17.4502 28.1589Z" fill="white"/>
<path d="M18.2564 27.5918H17.4696V28.1127H18.2564V27.5918Z" fill="white"/>
<path d="M17.6356 26.6248L17.0792 27.1771L17.4502 27.5454L18.0066 26.9931L17.6356 26.6248Z" fill="white"/>
<path d="M16.7701 27.1869C17.1396 27.1869 17.4404 27.4854 17.4404 27.8523C17.4404 28.2192 17.1396 28.5178 16.7701 28.5178C16.4005 28.5178 16.0998 28.2192 16.0998 27.8523C16.0998 27.4854 16.4005 27.1869 16.7701 27.1869ZM16.7701 27.129C16.3684 27.129 16.0415 27.4535 16.0415 27.8523C16.0415 28.2511 16.3684 28.5756 16.7701 28.5756C17.1718 28.5756 17.4986 28.2511 17.4986 27.8523C17.4986 27.4535 17.1718 27.129 16.7701 27.129Z" fill="#76A5FF"/>
<path d="M16.7699 28.2862C17.0113 28.2862 17.207 28.0919 17.207 27.8523C17.207 27.6126 17.0113 27.4183 16.7699 27.4183C16.5285 27.4183 16.3329 27.6126 16.3329 27.8523C16.3329 28.0919 16.5285 28.2862 16.7699 28.2862Z" fill="#3D7FFC"/>
<path d="M18.0372 31.988H17.8032C17.6245 31.988 17.48 32.1317 17.48 32.3088C17.48 32.486 17.6247 32.6297 17.8032 32.6297H18.0372C18.1166 32.6297 18.1807 32.487 18.1807 32.311C18.1807 32.1349 18.1164 31.9878 18.0372 31.9878V31.988Z" fill="#3D7FFC"/>
<path d="M46.4042 25.2692H66.1956C66.4885 25.2693 66.7693 25.3858 66.9764 25.593C67.1834 25.8003 67.2998 26.0813 67.2999 26.3745L67.2999 40.7692C67.2998 41.0623 67.1834 41.3433 66.9763 41.5506C66.7693 41.7579 66.4885 41.8743 66.1956 41.8745H53.0799H49.6683H46.4042C46.1114 41.8743 45.8306 41.7579 45.6235 41.5506C45.4164 41.3433 45.3 41.0623 45.2999 40.7692L45.2999 35.7692H42.4726C42.213 35.7692 42.076 35.4618 42.2494 35.2687L45.2999 31.8723L45.2999 26.3745C45.3001 26.0813 45.4164 25.8003 45.6235 25.593C45.8306 25.3858 46.1114 25.2693 46.4042 25.2692Z" fill="#9FC0FF"/>
<path d="M53.7999 34.8745H48.7999C48.5238 34.8745 48.2999 35.0984 48.2999 35.3745C48.2999 35.6507 48.5238 35.8745 48.7999 35.8745H53.7999C54.0761 35.8745 54.2999 35.6507 54.2999 35.3745C54.2999 35.0984 54.0761 34.8745 53.7999 34.8745Z" fill="white"/>
<path d="M53.7999 28.8745H48.7999C48.5238 28.8745 48.2999 29.0984 48.2999 29.3745C48.2999 29.6507 48.5238 29.8745 48.7999 29.8745H53.7999C54.0761 29.8745 54.2999 29.6507 54.2999 29.3745C54.2999 29.0984 54.0761 28.8745 53.7999 28.8745Z" fill="white"/>
<path d="M57.7999 31.8745H48.7999C48.5238 31.8745 48.2999 32.0984 48.2999 32.3745C48.2999 32.6507 48.5238 32.8745 48.7999 32.8745H57.7999C58.0761 32.8745 58.2999 32.6507 58.2999 32.3745C58.2999 32.0984 58.0761 31.8745 57.7999 31.8745Z" fill="white"/>
<path d="M64.7999 34.8745H55.7999C55.5238 34.8745 55.2999 35.0984 55.2999 35.3745C55.2999 35.6507 55.5238 35.8745 55.7999 35.8745H64.7999C65.0761 35.8745 65.2999 35.6507 65.2999 35.3745C65.2999 35.0984 65.0761 34.8745 64.7999 34.8745Z" fill="white"/>
<path d="M64.7999 28.8745H55.7999C55.5238 28.8745 55.2999 29.0984 55.2999 29.3745C55.2999 29.6507 55.5238 29.8745 55.7999 29.8745H64.7999C65.0761 29.8745 65.2999 29.6507 65.2999 29.3745C65.2999 29.0984 65.0761 28.8745 64.7999 28.8745Z" fill="white"/>
<path d="M64.7999 37.8745H59.7999C59.5238 37.8745 59.2999 38.0984 59.2999 38.3745C59.2999 38.6507 59.5238 38.8745 59.7999 38.8745H64.7999C65.0761 38.8745 65.2999 38.6507 65.2999 38.3745C65.2999 38.0984 65.0761 37.8745 64.7999 37.8745Z" fill="white"/>
<path d="M56.7999 37.8745H48.7999C48.5238 37.8745 48.2999 38.0984 48.2999 38.3745C48.2999 38.6507 48.5238 38.8745 48.7999 38.8745H56.7999C57.0761 38.8745 57.2999 38.6507 57.2999 38.3745C57.2999 38.0984 57.0761 37.8745 56.7999 37.8745Z" fill="white"/>
<path d="M49.5165 18.7752C52.2078 18.7752 54.3895 16.6093 54.3895 13.9374C54.3895 11.2656 52.2078 9.09961 49.5165 9.09961C46.8251 9.09961 44.6434 11.2656 44.6434 13.9374C44.6434 16.6093 46.8251 18.7752 49.5165 18.7752Z" fill="#3D7FFC"/>
<path d="M50.7022 7.26917H48.3315V10.7995H50.7022V7.26917Z" fill="#3D7FFC"/>
<path d="M45.6052 8.39025L43.9289 10.0544L46.4434 12.5507L48.1197 10.8865L45.6052 8.39025Z" fill="#3D7FFC"/>
<path d="M46.356 12.7609H42.7999V15.1144H46.356V12.7609Z" fill="#3D7FFC"/>
<path d="M46.4434 15.3239L43.9289 17.8202L45.6052 19.4844L48.1197 16.9881L46.4434 15.3239Z" fill="#3D7FFC"/>
<path d="M50.7022 17.0752H48.3315V20.6055H50.7022V17.0752Z" fill="#3D7FFC"/>
<path d="M52.5902 15.3242L50.9139 16.9884L53.4284 19.4847L55.1047 17.8205L52.5902 15.3242Z" fill="#3D7FFC"/>
<path d="M56.2331 12.7609H52.6771V15.1144H56.2331V12.7609Z" fill="#3D7FFC"/>
<path d="M53.428 8.39006L50.9135 10.8864L52.5898 12.5505L55.1043 10.0543L53.428 8.39006Z" fill="#3D7FFC"/>
<path d="M49.5168 10.9301C51.1872 10.9301 52.546 12.2791 52.546 13.9374C52.546 15.5956 51.1872 16.9446 49.5168 16.9446C47.8465 16.9446 46.4876 15.5956 46.4876 13.9374C46.4876 12.2791 47.8465 10.9301 49.5168 10.9301ZM49.5168 10.6686C47.7014 10.6686 46.2242 12.1351 46.2242 13.9374C46.2242 15.7397 47.7014 17.2061 49.5168 17.2061C51.3322 17.2061 52.8094 15.7397 52.8094 13.9374C52.8094 12.1351 51.3322 10.6686 49.5168 10.6686Z" fill="#E7EEFF"/>
<path d="M49.5168 15.8984C50.6079 15.8984 51.4924 15.0203 51.4924 13.9371C51.4924 12.8539 50.6079 11.9758 49.5168 11.9758C48.4257 11.9758 47.5412 12.8539 47.5412 13.9371C47.5412 15.0203 48.4257 15.8984 49.5168 15.8984Z" fill="white"/>
<path fill-rule="evenodd" clip-rule="evenodd" d="M62.4379 15.3578H61.2341V16.3602C60.9951 16.4194 60.7698 16.5132 60.5639 16.6359L59.8499 15.927L58.9987 16.7721L59.7127 17.4809C59.5891 17.6853 59.4946 17.9089 59.4349 18.1463H58.4253V19.3414H59.435C59.4948 19.5786 59.5892 19.8022 59.7128 20.0065L58.9987 20.7154L59.8499 21.5605L60.5641 20.8514C60.7699 20.974 60.9951 21.0678 61.2341 21.127V22.1296H62.4379V21.1269C62.6768 21.0676 62.9019 20.9738 63.1076 20.8512L63.8222 21.5607L64.6734 20.7157L63.9588 20.0062C64.0822 19.802 64.1767 19.5785 64.2364 19.3414H65.2464V18.1463H64.2365C64.1768 17.9091 64.0824 17.6855 63.9589 17.4813L64.6733 16.7721L63.822 15.927L63.1078 16.6361C62.902 16.5134 62.6769 16.4196 62.4379 16.3603V15.3578Z" fill="#FECE4D"/>
<path d="M61.8359 17.2166C62.6841 17.2166 63.3741 17.9017 63.3741 18.7437C63.3741 19.5857 62.6841 20.2707 61.8359 20.2707C60.9877 20.2707 60.2977 19.5857 60.2977 18.7437C60.2977 17.9017 60.9877 17.2166 61.8359 17.2166ZM61.8359 17.0839C60.9141 17.0839 60.164 17.8285 60.164 18.7437C60.164 19.6589 60.9141 20.4035 61.8359 20.4035C62.7578 20.4035 63.5078 19.6589 63.5078 18.7437C63.5078 17.8285 62.7578 17.0839 61.8359 17.0839Z" fill="#E7EEFF"/>
<path d="M61.836 19.7395C62.39 19.7395 62.8391 19.2936 62.8391 18.7436C62.8391 18.1936 62.39 17.7477 61.836 17.7477C61.282 17.7477 60.8328 18.1936 60.8328 18.7436C60.8328 19.2936 61.282 19.7395 61.836 19.7395Z" fill="white"/>
<defs>
<filter id="filter0_dd_5272_1071" x="1.69993" y="6.51917" width="77.7385" height="51.8923" filterUnits="userSpaceOnUse" color-interpolation-filters="sRGB">
<feFlood flood-opacity="0" result="BackgroundImageFix"/>
<feColorMatrix in="SourceAlpha" type="matrix" values="0 0 0 0 0 0 0 0 0 0 0 0 0 0 0 0 0 0 127 0" result="hardAlpha"/>
<feOffset dy="2.7"/>
<feGaussianBlur stdDeviation="3.375"/>
<feColorMatrix type="matrix" values="0 0 0 0 0.607843 0 0 0 0 0.67451 0 0 0 0 0.737255 0 0 0 0.35 0"/>
<feBlend mode="normal" in2="BackgroundImageFix" result="effect1_dropShadow_5272_1071"/>
<feColorMatrix in="SourceAlpha" type="matrix" values="0 0 0 0 0 0 0 0 0 0 0 0 0 0 0 0 0 0 127 0" result="hardAlpha"/>
<feOffset dy="1.35"/>
<feGaussianBlur stdDeviation="4.05"/>
<feColorMatrix type="matrix" values="0 0 0 0 0.89625 0 0 0 0 0.930414 0 0 0 0 0.995833 0 0 0 0.5 0"/>
<feBlend mode="normal" in2="effect1_dropShadow_5272_1071" result="effect2_dropShadow_5272_1071"/>
<feBlend mode="normal" in="SourceGraphic" in2="effect2_dropShadow_5272_1071" result="shape"/>
</filter>
</defs>
</svg>
