<svg width="350" height="303" viewBox="0 0 350 303" fill="none" xmlns="http://www.w3.org/2000/svg">
<rect x="4" width="76.0878" height="49.2565" rx="24.6282" fill="#092349"/>
<path fill-rule="evenodd" clip-rule="evenodd" d="M25.9939 25.7877C26.0027 25.6909 26.0725 25.6118 26.1682 25.6118H27.0399C27.1358 25.6118 27.2143 25.6909 27.2143 25.7877C27.2143 26.9645 26.3425 27.7988 25.1398 27.7988C23.937 27.7988 23.1872 26.9121 23.0653 25.858C22.9782 25.1201 22.9782 24.1363 23.0653 23.3986C23.1872 22.3447 23.937 21.4575 25.1398 21.4575C26.3425 21.4575 27.2143 22.2917 27.2143 23.4689C27.2143 23.5652 27.1358 23.6446 27.0399 23.6446H26.1682C26.0725 23.6446 26.0027 23.5652 25.9939 23.4689C25.9591 23.0121 25.6366 22.6961 25.1398 22.6961C24.6082 22.6961 24.3378 23.0121 24.2942 23.3986C24.2072 24.1363 24.2072 25.1201 24.2942 25.858C24.3378 26.2444 24.6082 26.5608 25.1398 26.5608C25.6366 26.5608 25.9591 26.2444 25.9939 25.7877ZM30.1237 23.9255C30.1237 23.9782 30.1586 24.0135 30.211 24.0135H31.536C31.5881 24.0135 31.623 23.9782 31.623 23.9255V21.7297C31.623 21.633 31.7015 21.554 31.7974 21.554H32.6691C32.7648 21.554 32.8433 21.633 32.8433 21.7297V27.5268C32.8433 27.6233 32.7648 27.7024 32.6691 27.7024H31.7974C31.7015 27.7024 31.623 27.6233 31.623 27.5268V25.3308C31.623 25.2783 31.5881 25.2434 31.536 25.2434H30.211C30.1586 25.2434 30.1237 25.2783 30.1237 25.3308V27.5268C30.1237 27.6233 30.0019 27.7024 29.9061 27.7024H29.0779C28.9819 27.7024 28.9037 27.6233 28.9037 27.5268V21.7297C28.9037 21.633 28.9819 21.554 29.0779 21.554H29.9495C30.0455 21.554 30.1237 21.633 30.1237 21.7297V23.9255ZM35.5873 27.5707C35.5698 27.6499 35.5001 27.7024 35.4217 27.7024H34.5065C34.3671 27.7024 34.3147 27.606 34.332 27.5268L35.8924 21.6859C35.9099 21.607 35.9796 21.554 36.058 21.554H37.226C37.3044 21.554 37.374 21.607 37.3916 21.6859L38.9431 27.5268C38.9607 27.606 38.9082 27.7024 38.7689 27.7024H37.8536C37.7751 27.7024 37.7142 27.6499 37.688 27.5707L37.4177 26.6659C37.4002 26.5957 37.3653 26.5345 37.287 26.5345H35.9621C35.8837 26.5345 35.8487 26.5869 35.8312 26.6659L35.5873 27.5707ZM36.1625 25.2081C36.1451 25.2783 36.1801 25.3045 36.2324 25.3045H37.0342C37.0865 25.3045 37.1214 25.2783 37.1038 25.2081L36.6855 23.0999C36.6768 23.0738 36.6681 23.0647 36.642 23.0647H36.6245C36.5985 23.0647 36.5897 23.0738 36.5808 23.0999L36.1625 25.2081ZM41.8265 25.2434C41.7742 25.2434 41.7394 25.2783 41.7394 25.3308V27.5268C41.7394 27.6233 41.661 27.7024 41.5652 27.7024H40.6934C40.5976 27.7024 40.519 27.6233 40.519 27.5268V21.7297C40.519 21.633 40.5976 21.554 40.6934 21.554H42.6109C43.6134 21.554 44.4416 22.3885 44.4416 23.3986C44.4416 24.075 44.1541 24.5317 43.5349 24.9532C43.4131 25.0408 43.4215 25.1112 43.4826 25.2434L44.4155 27.439C44.4765 27.5707 44.4238 27.7024 44.2495 27.7024H43.3522C43.2127 27.7024 43.1425 27.6324 43.0995 27.5268L42.2103 25.3574C42.1927 25.3133 42.1488 25.2434 42.0533 25.2434H41.8265ZM41.8265 22.7837C41.7742 22.7837 41.7394 22.8187 41.7394 22.8713V23.9255C41.7394 23.9782 41.7742 24.0135 41.8265 24.0135H42.6109C42.9421 24.0135 43.2212 23.7411 43.2212 23.3986C43.2212 23.0647 42.9421 22.7837 42.6109 22.7837H41.8265ZM46.0403 22.7837C45.9443 22.7837 45.8658 22.7047 45.8658 22.608V21.7297C45.8658 21.633 45.9443 21.554 46.0403 21.554H49.7884C49.8842 21.554 49.9625 21.633 49.9625 21.7297V22.608C49.9625 22.7047 49.8842 22.7837 49.7884 22.7837H48.6117C48.5592 22.7837 48.5243 22.8187 48.5243 22.8713V27.5268C48.5243 27.6233 48.4458 27.7024 48.3502 27.7024H47.4786C47.3824 27.7024 47.3041 27.6233 47.3041 27.5268V22.8713C47.3041 22.8187 47.2689 22.7837 47.2171 22.7837H46.0403ZM52.8249 22.8275C52.8249 22.775 52.7906 22.74 52.7382 22.74H51.8666C51.7705 22.74 51.6921 22.6608 51.6921 22.5642V21.7297C51.6921 21.633 51.7705 21.554 51.8666 21.554H55.0041C55.1004 21.554 55.1787 21.633 55.1787 21.7297V22.5642C55.1787 22.6608 55.1004 22.74 55.0041 22.74H54.133C54.0806 22.74 54.0455 22.775 54.0455 22.8275V26.4286C54.0455 26.4815 54.0806 26.5166 54.133 26.5166H55.0917C55.1873 26.5166 55.2658 26.5957 55.2658 26.6926V27.5268C55.2658 27.6233 55.1873 27.7024 55.0917 27.7024H51.7792C51.683 27.7024 51.6051 27.6233 51.6051 27.5268V26.6926C51.6051 26.5957 51.683 26.5166 51.7792 26.5166H52.7382C52.7906 26.5166 52.8249 26.4815 52.8249 26.4286V22.8275ZM61.0222 23.3986C61.1096 24.1363 61.1096 25.1201 61.0222 25.858C60.9004 26.9121 60.1511 27.7988 58.9477 27.7988C57.7452 27.7988 56.9953 26.9121 56.8736 25.858C56.7858 25.1201 56.7858 24.1363 56.8736 23.3986C56.9953 22.3447 57.7452 21.4575 58.9477 21.4575C60.1511 21.4575 60.9004 22.3447 61.0222 23.3986ZM58.1021 23.3986C58.0155 24.1363 58.0155 25.1201 58.1021 25.858C58.1459 26.2444 58.4162 26.5608 58.9477 26.5608C59.4796 26.5608 59.7495 26.2444 59.7933 25.858C59.8804 25.1201 59.8804 24.1363 59.7933 23.3986C59.7495 23.0121 59.4796 22.6961 58.9477 22.6961C58.4162 22.6961 58.1459 23.0121 58.1021 23.3986Z" fill="white"/>
<rect x="4.40795" y="0.407953" width="75.2719" height="48.4405" rx="24.2203" stroke="white" stroke-opacity="0.1" stroke-width="0.815906"/>
<rect x="86.0876" width="58.6623" height="49.2565" rx="24.6282" fill="#092349"/>
<path d="M123.038 23.686C120.969 21.4143 118.452 20.2784 115.461 20.2784C113.671 20.3061 112.078 20.6663 110.652 21.4143V15.929H105.088V30.501V30.5287C105.088 32.2187 105.479 33.7978 106.29 35.2937C107.157 36.9283 108.387 38.2303 110.009 39.2277C111.686 40.225 113.476 40.7513 115.461 40.7513C117.39 40.7513 119.179 40.2527 120.801 39.2554C122.339 38.3134 123.569 37.0391 124.464 35.4323C125.331 33.8809 125.75 32.3018 125.75 30.6673C125.722 27.9246 124.827 25.6252 123.038 23.686ZM118.928 33.7978C118.005 34.8505 116.859 35.3769 115.433 35.3769C114.175 35.3769 113.084 34.9336 112.189 34.0748C111.211 33.1329 110.708 31.9693 110.708 30.5287C110.708 29.2821 111.071 28.2293 111.826 27.3982C112.805 26.2347 114.035 25.6529 115.461 25.6529C116.607 25.6806 117.586 26.0685 118.48 26.7888C119.627 27.7584 120.214 29.0327 120.214 30.5564C120.158 31.7477 119.739 32.8281 118.928 33.7978Z" fill="#5497D7"/>
<path d="M110.652 12.2172H105.088V14.9044H110.652V12.2172Z" fill="#5497D7"/>
<path d="M110.652 8.505H105.088V11.1923H110.652V8.505Z" fill="#5497D7"/>
<rect x="86.4956" y="0.407953" width="57.8464" height="48.4405" rx="24.2203" stroke="white" stroke-opacity="0.1" stroke-width="0.815906"/>
<rect x="150.75" width="69.1779" height="49.2565" rx="24.6282" fill="#092349"/>
<path d="M173.197 27.7214V19.0088H171.149V27.7472C171.149 28.3916 171.009 28.7783 170.513 28.7783C170.233 28.7783 169.992 28.7267 169.826 28.6623L169.75 30.196C169.864 30.2604 170.45 30.3893 171.06 30.3893C171.773 30.3893 172.32 30.1187 172.65 29.732C173.007 29.3196 173.197 28.6623 173.197 27.7214Z" fill="white"/>
<path d="M181.111 25.1953C181.111 24.3962 180.793 23.8549 180.424 23.4811C180.03 23.0816 179.445 22.8496 179.203 22.7594C178.923 22.6434 178.274 22.4114 177.893 22.2567C177.498 22.1021 177.002 21.8958 177.002 21.3545C177.002 20.8132 177.486 20.5555 178.147 20.5555C178.809 20.5555 179.597 20.9421 180.106 21.4576L180.984 20.0012C180.386 19.3955 179.216 18.9057 178.198 18.9057C177.18 18.9057 176.379 19.1893 175.883 19.6146C175.374 20.0399 174.967 20.7101 174.967 21.5607C174.967 22.3985 175.272 22.914 175.654 23.2749C176.035 23.6487 176.481 23.8162 176.697 23.9193C176.989 24.0482 177.651 24.2802 178.033 24.422C178.414 24.5638 179.063 24.7957 179.063 25.4015C179.063 25.9944 178.554 26.3166 177.893 26.3166C177.218 26.3166 176.239 25.8655 175.603 25.1953L174.585 26.7161C175.298 27.3863 176.43 28.0565 177.702 28.0565C178.643 28.0565 179.457 27.8245 180.081 27.3219C180.717 26.8192 181.111 26.0459 181.111 25.1953Z" fill="white"/>
<path d="M191.45 23.4682C191.45 20.5941 189.402 18.8671 186.794 18.8671C184.186 18.8671 182.138 20.5941 182.138 23.4682C182.138 26.3424 184.186 28.0565 186.794 28.0565C189.402 28.0565 191.45 26.3424 191.45 23.4682ZM189.364 23.4167C189.364 25.118 188.257 26.2006 186.794 26.2006C185.331 26.2006 184.224 25.118 184.224 23.4167C184.224 21.7154 185.331 20.6457 186.794 20.6457C188.257 20.6457 189.364 21.7283 189.364 23.4167Z" fill="white"/>
<path d="M200.928 27.9019V19.0088H198.918V23.0429C198.918 23.9838 198.956 24.9891 198.956 24.9891L195.191 19.0088H192.99V27.9019H195V23.8807C195 22.9398 194.962 21.8701 194.962 21.8701L198.816 27.9019H200.928Z" fill="white"/>
<rect x="151.158" y="0.407953" width="68.362" height="48.4405" rx="24.2203" stroke="white" stroke-opacity="0.1" stroke-width="0.815906"/>
<rect x="225.928" width="58.1691" height="49.2565" rx="24.6282" fill="#092349"/>
<mask id="mask0_5040_55656" style="mask-type:alpha" maskUnits="userSpaceOnUse" x="244" y="10" width="22" height="29">
<path d="M256.133 11.7753C256.133 11.1299 256.635 10.6068 257.254 10.6068H263.977C264.595 10.6068 265.097 11.1299 265.097 11.7753V37.4812C265.097 38.1266 264.595 38.6497 263.977 38.6497H246.048C245.43 38.6497 244.928 38.1266 244.928 37.4812V25.7967C244.928 25.1514 245.43 24.6283 246.048 24.6283H250.531V18.786C250.531 18.1407 251.032 17.6175 251.651 17.6175H256.133V11.7753Z" fill="white"/>
</mask>
<g mask="url(#mask0_5040_55656)">
<path d="M265.098 10.6067V38.6496H256.134V10.6067H265.098Z" fill="url(#paint0_linear_5040_55656)"/>
<g filter="url(#filter0_f_5040_55656)">
<path d="M259.497 18.9055V38.7692H250.533V17.7371H258.376C258.995 17.7371 259.497 18.2602 259.497 18.9055Z" fill="black" fill-opacity="0.2"/>
</g>
<g filter="url(#filter1_f_5040_55656)">
<path d="M259.497 19.3693V39.233H250.533V18.2008H258.376C258.995 18.2008 259.497 18.724 259.497 19.3693Z" fill="black" fill-opacity="0.18"/>
</g>
<path d="M259.497 18.7876V38.6513H250.533V17.6191H258.376C258.995 17.6191 259.497 18.1423 259.497 18.7876Z" fill="url(#paint1_linear_5040_55656)"/>
<path d="M244.93 24.6268V38.6483H253.894V25.7953C253.894 25.15 253.392 24.6268 252.773 24.6268H244.93Z" fill="url(#paint2_linear_5040_55656)"/>
</g>
<rect x="226.336" y="0.407953" width="57.3532" height="48.4405" rx="24.2203" stroke="white" stroke-opacity="0.1" stroke-width="0.815906"/>
<rect x="290.097" width="55.5005" height="49.2565" rx="24.6282" fill="#092349"/>
<path d="M318.233 11.3941C317.329 11.3735 316.394 11.4802 315.436 11.7215C311.01 12.8372 306.054 18.5826 311.465 25.2074L314.695 29.1518L315.606 30.2743C316.218 31.0083 317.22 30.9952 317.955 30.3834C318.694 29.7686 318.905 28.7602 318.295 28.0137C318.294 28.0126 318.037 27.698 317.924 27.5615H317.94C317.706 27.2782 317.656 27.2307 317.414 26.9379C316.246 25.5196 314.911 23.8822 314.911 23.8822C312.562 21.0054 313.61 17.4514 316.796 15.4321C319.604 13.6529 324.756 14.2883 326.531 17.2094C325.413 13.8789 322.154 11.4836 318.233 11.3941ZM318.882 18.3475C318.465 18.3332 318.029 18.4937 317.662 18.7996C316.921 19.4152 316.713 20.4248 317.322 21.1694C317.323 21.1713 317.396 21.2636 317.523 21.4189C318.923 23.1166 320.783 25.3945 320.783 25.3945C323.133 28.2712 322.084 31.8097 318.898 33.829C316.091 35.6075 310.939 34.9708 309.163 32.0516C310.539 36.1488 315.153 38.8273 320.258 37.5395C324.686 36.422 329.64 30.6928 324.229 24.0693L320.443 19.4544L320.01 18.9088C319.704 18.5418 319.3 18.3619 318.882 18.3475Z" fill="#007CC2"/>
<rect x="290.505" y="0.407953" width="54.6846" height="48.4405" rx="24.2203" stroke="white" stroke-opacity="0.1" stroke-width="0.815906"/>
<rect y="63.2559" width="67.64" height="49.2565" rx="24.6282" fill="#092349"/>
<path d="M38.7089 87.0228H34.6375V82.5149H33.0346V87.0228H28.9583V88.6238H33.0346V93.1317H34.6375V88.6238H38.7089V87.0228Z" fill="white"/>
<path d="M30.5155 94.38H26.8669V90.3424H25.4852V94.38H21.8318V95.6058H25.4852V99.6434H26.8669V95.6058H30.5155V94.38Z" fill="white"/>
<path d="M45.8345 79.9405H42.186V75.8879H40.8043V79.9405H37.1509V81.1713H40.8043V85.1889H42.186V81.1713H45.8345V79.9405Z" fill="white"/>
<path d="M36.9256 98.8594H34.4523V96.0426H33.2722V98.8594H30.7939V99.9451H33.2722V102.757H34.4523V99.9451H36.9256V98.8594Z" fill="white"/>
<path d="M30.5155 79.9405H26.8227V75.8879H25.5295V79.9405H21.8318V81.1363H25.5295V85.1889H26.8227V81.1363H30.5155V79.9405Z" fill="white"/>
<path d="M48.64 87.2732H46.1618V84.4614H44.9817V87.2732H42.5034V88.3589H44.9817V91.1757H46.1618V88.3589H48.64V87.2732Z" fill="white"/>
<path fill-rule="evenodd" clip-rule="evenodd" d="M45.8345 94.38H42.186V90.3424H40.8043V94.38H37.1509V95.6058H40.8043V99.6434H42.186V95.6058H45.8345V94.38Z" fill="white"/>
<path d="M33.4182 73.0109V75.7726H30.9695V76.6082H33.4182V79.37H34.2984V76.6082H36.752V75.7726H34.2984V73.0109H33.4182Z" fill="white"/>
<path d="M24.7826 87.3848H22.324V84.6781H21.4586V87.3848H19V88.2554L21.4586 88.2404V90.9621H22.324V88.2354L24.7826 88.2204V87.3848Z" fill="white"/>
<rect x="0.407953" y="63.6638" width="66.8241" height="48.4405" rx="24.2203" stroke="white" stroke-opacity="0.1" stroke-width="0.815906"/>
<rect x="73.6401" y="63.2559" width="67.8634" height="49.2565" rx="24.6282" fill="#092349"/>
<path fill-rule="evenodd" clip-rule="evenodd" d="M102.333 93.9938C98.9578 93.9938 96.222 91.2548 96.222 87.8913C96.222 84.5126 98.9578 81.7888 102.332 81.7888H112.822C116.209 81.7888 118.941 84.5126 118.941 87.8913C118.941 91.2548 116.209 93.9938 112.822 93.9938H102.333ZM113.073 97.3116C118.296 97.3116 122.504 93.0983 122.504 87.8913C122.504 82.6782 118.296 78.4565 113.073 78.4565H102.091C96.8723 78.4565 92.6401 82.6782 92.6401 87.8913C92.6401 93.0983 96.8723 97.3116 102.092 97.3116H113.073Z" fill="#C74634"/>
<rect x="74.0481" y="63.6638" width="67.0475" height="48.4405" rx="24.2203" stroke="white" stroke-opacity="0.1" stroke-width="0.815906"/>
<rect x="147.503" y="63.2559" width="58.9205" height="49.2565" rx="24.6282" fill="#092349"/>
<path d="M176.701 70.8356C176.166 70.8358 175.641 70.983 175.183 71.2613C174.725 71.5397 174.35 71.9387 174.099 72.4158C173.847 72.8929 173.729 73.4301 173.756 73.9699C173.784 74.5097 173.956 75.0318 174.254 75.4804L175.514 74.2087C175.472 74.0819 175.451 73.949 175.452 73.8154C175.452 73.5667 175.525 73.3236 175.661 73.1168C175.798 72.9101 175.992 72.7489 176.219 72.6538C176.447 72.5586 176.697 72.5337 176.938 72.5822C177.179 72.6307 177.401 72.7505 177.575 72.9263C177.749 73.1022 177.867 73.3262 177.915 73.5701C177.963 73.814 177.939 74.0668 177.844 74.2965C177.75 74.5262 177.591 74.7226 177.386 74.8608C177.182 74.9989 176.941 75.0726 176.695 75.0726C176.564 75.0729 176.433 75.0517 176.308 75.0098L175.05 76.2814C175.432 76.5432 175.869 76.7107 176.327 76.7705C176.784 76.8303 177.249 76.7808 177.684 76.6258C178.119 76.4708 178.512 76.2148 178.832 75.8783C179.151 75.5418 179.388 75.1342 179.523 74.6883C179.658 74.2424 179.688 73.7707 179.61 73.3111C179.532 72.8515 179.348 72.4168 179.074 72.042C178.799 71.6673 178.441 71.3629 178.029 71.1533C177.617 70.9438 177.162 70.835 176.701 70.8356Z" fill="#34A853"/>
<path d="M175.385 79.521C175.387 78.5145 175.064 77.5347 174.466 76.7299L172.832 78.3805C173.08 78.8401 173.171 79.37 173.09 79.8874C173.009 80.4048 172.761 80.8804 172.384 81.2399L173.272 83.4348C173.92 83.0131 174.453 82.4338 174.822 81.7501C175.191 81.0663 175.385 80.3 175.385 79.521Z" fill="#FBBC04"/>
<path d="M171.151 81.8892H171.108C170.743 81.8893 170.382 81.8029 170.056 81.6372C169.729 81.4714 169.445 81.2307 169.227 80.9344C169.009 80.638 168.862 80.2942 168.798 79.9303C168.735 79.5665 168.756 79.1927 168.861 78.8387C168.966 78.4847 169.151 78.1604 169.402 77.8916C169.653 77.6228 169.962 77.417 170.305 77.2906C170.649 77.1641 171.017 77.1206 171.38 77.1634C171.743 77.2062 172.091 77.3342 172.396 77.5372L174.015 75.9009C173.442 75.4314 172.766 75.1078 172.044 74.9571C171.322 74.8064 170.574 74.8332 169.864 75.0351C169.154 75.237 168.503 75.6081 167.964 76.1173C167.426 76.6266 167.016 77.259 166.769 77.9616C166.522 78.6641 166.446 79.4163 166.546 80.1548C166.647 80.8934 166.921 81.5968 167.346 82.206C167.771 82.8151 168.335 83.3123 168.99 83.6557C169.644 83.999 170.371 84.1786 171.108 84.1793C171.421 84.1795 171.733 84.1482 172.039 84.0859L171.151 81.8892Z" fill="#EA4335"/>
<path d="M176.954 83.7863C175.931 83.7853 174.913 83.936 173.934 84.2336L175.229 87.4325C175.793 87.2912 176.372 87.2201 176.952 87.2205C178.585 87.221 180.166 87.7936 181.428 88.8407C182.69 89.8878 183.553 91.3447 183.871 92.9631C184.189 94.5815 183.942 96.2613 183.172 97.7164C182.403 99.1715 181.158 100.312 179.65 100.943C178.141 101.574 176.463 101.657 174.901 101.178C173.339 100.699 171.99 99.687 171.083 98.315C170.177 96.9429 169.769 95.2955 169.929 93.6534C170.089 92.0114 170.807 90.4762 171.961 89.3094C172.458 88.809 173.025 88.3853 173.644 88.0522L172.363 84.8622C170.056 86.0042 168.246 87.9641 167.277 90.3686C166.307 92.773 166.247 95.4539 167.108 97.9003C167.968 100.347 169.689 102.388 171.942 103.634C174.195 104.88 176.823 105.245 179.325 104.659C181.827 104.073 184.029 102.577 185.51 100.455C186.991 98.3342 187.648 95.7363 187.356 93.1567C187.064 90.5772 185.844 88.1964 183.927 86.468C182.01 84.7396 179.532 83.7844 176.963 83.7845L176.954 83.7863Z" fill="#4285F4"/>
<rect x="147.911" y="63.6638" width="58.1046" height="48.4405" rx="24.2203" stroke="white" stroke-opacity="0.1" stroke-width="0.815906"/>
<rect x="212.424" y="63.2559" width="64.3067" height="49.2565" rx="24.6282" fill="#092349"/>
<path d="M245.236 91.935C244.821 90.6425 244.608 89.2939 244.604 87.9366H248.682C248.664 88.9005 248.31 89.828 247.681 90.5582C247.051 91.2885 246.186 91.7756 245.236 91.935ZM257.704 101.037C255.414 101.025 253.165 100.418 251.181 99.2742C253.066 98.1784 254.649 96.631 255.788 94.7714C256.927 92.9117 257.585 90.798 257.704 88.6206V101.037Z" fill="#B6EAED"/>
<path d="M245.236 91.935C244.821 90.6425 244.608 89.2939 244.604 87.9366H248.682C248.664 88.9005 248.31 89.828 247.681 90.5582C247.051 91.2885 246.186 91.7756 245.236 91.935Z" fill="#B8E4F5"/>
<path d="M235.291 97.1953C234.069 95.9817 233.099 94.5393 232.436 92.9504C231.772 91.3616 231.428 89.6576 231.424 87.9358H240.447C240.465 89.0171 240.909 90.0476 241.683 90.8031L235.291 97.1953Z" fill="#A0D7EF"/>
<path d="M244.576 101.034C241.107 101.039 237.776 99.667 235.317 97.2195L241.709 90.8273C242.473 91.5818 243.503 92.0068 244.576 92.011H244.603V101.034H244.576Z" fill="#DCF2FA"/>
<path d="M235.316 97.2227H235.29L241.682 90.8042H241.708L235.316 97.2227Z" fill="#DCF2FA"/>
<path d="M241.631 85.0165L235.239 78.6243C236.46 77.3898 237.915 76.4101 239.518 75.7418C241.121 75.0735 242.84 74.73 244.577 74.7311H244.603V83.7538H244.577C244.028 83.7524 243.485 83.8611 242.979 84.0735C242.473 84.2858 242.014 84.5975 241.631 84.9901" fill="#F3F9FD"/>
<path d="M240.473 87.9346H231.424V87.882C231.419 84.4122 232.791 81.0821 235.238 78.6226L241.604 85.0411C240.875 85.807 240.47 86.8247 240.473 87.882V87.9346Z" fill="#B7DBF0"/>
<path d="M241.605 85.0414L235.239 78.6229L241.631 85.0151H241.605" fill="#F3F9FD"/>
<path d="M247.495 84.9901C246.749 84.2386 245.74 83.805 244.681 83.7801V74.7311C248.14 74.7539 251.449 76.144 253.888 78.598L247.495 84.9901Z" fill="#A0D7EF"/>
<path d="M244.681 83.7801H244.628V74.7311H244.681V83.7801Z" fill="#A0D7EF"/>
<path d="M257.704 88.6197V87.9358H257.731C257.731 88.1725 257.731 88.4093 257.704 88.6197ZM244.604 101.036V91.9868L245.236 91.9342C246.231 95.0372 248.352 97.6552 251.181 99.2734C249.182 100.43 246.913 101.038 244.604 101.036Z" fill="#B8E8F4"/>
<path d="M251.179 99.2734C248.35 97.6552 246.229 95.0372 245.234 91.9342C246.184 91.7747 247.049 91.2876 247.679 90.5574C248.308 89.8271 248.662 88.8997 248.68 87.9358H257.702V88.6197C257.583 90.7971 256.925 92.9108 255.786 94.7705C254.647 96.6302 253.064 98.1776 251.179 99.2734Z" fill="#FAFEFE"/>
<rect x="212.832" y="63.6638" width="63.4908" height="48.4405" rx="24.2203" stroke="white" stroke-opacity="0.1" stroke-width="0.815906"/>
<rect x="282.731" y="63.2559" width="67.1455" height="49.2565" rx="24.6282" fill="#092349"/>
<path d="M327.234 93.9565H316.651C314.089 93.9565 312.661 95.7244 312.661 97.5998C312.661 99.3347 313.875 101.243 316.651 101.243H327.234V93.9565Z" fill="#669DF6"/>
<path d="M327.233 101.243C329.245 101.243 330.876 99.6118 330.876 97.5997C330.876 95.5876 329.245 93.9564 327.233 93.9564C325.221 93.9564 323.59 95.5876 323.59 97.5997C323.59 99.6118 325.221 101.243 327.233 101.243Z" fill="#1A73E8"/>
<path d="M316.304 84.2397H305.721C303.159 84.2397 301.731 86.0076 301.731 87.883C301.731 89.6179 302.945 91.5263 305.721 91.5263H316.304V84.2397Z" fill="#669DF6"/>
<path d="M316.303 91.5262C318.315 91.5262 319.946 89.895 319.946 87.8829C319.946 85.8708 318.315 84.2396 316.303 84.2396C314.291 84.2396 312.659 85.8708 312.659 87.8829C312.659 89.895 314.291 91.5262 316.303 91.5262Z" fill="#1A73E8"/>
<path d="M327.234 74.525H316.651C314.089 74.525 312.661 76.2929 312.661 78.1683C312.661 79.9032 313.875 81.8116 316.651 81.8116H327.234V74.525Z" fill="#669DF6"/>
<path d="M327.233 81.8116C329.245 81.8116 330.876 80.1804 330.876 78.1683C330.876 76.1562 329.245 74.525 327.233 74.525C325.221 74.525 323.59 76.1562 323.59 78.1683C323.59 80.1804 325.221 81.8116 327.233 81.8116Z" fill="#1A73E8"/>
<rect x="283.139" y="63.6638" width="66.3296" height="48.4405" rx="24.2203" stroke="white" stroke-opacity="0.1" stroke-width="0.815906"/>
<rect x="29" y="126.513" width="65.789" height="49.2565" rx="24.6282" fill="#092349"/>
<g clip-path="url(#clip0_5040_55656)">
<path d="M52.3707 150.542V144.045V141.64H56.0653H67.5015H71.1961V144.045V150.542L74.2618 148.545L75.076 147.3V147.288L74.2618 146.042L72.2438 144.728V140.612H65.9227L61.7948 137.924H61.772L57.6441 140.612H51.3229V144.728L49.305 146.042L48.4907 147.288V147.3L49.305 148.545L52.3707 150.542Z" fill="white"/>
<path d="M75.5706 148.367L74.9938 149.251L66.0774 155.055L75.4107 163.576C75.5169 163.366 75.572 163.134 75.5716 162.899V148.415C75.5716 148.399 75.5711 148.382 75.5706 148.367Z" fill="white"/>
<path d="M48.5768 149.25L48 148.367C48 148.382 48 148.399 48 148.416V162.898C47.9999 163.133 48.055 163.364 48.161 163.573L57.4942 155.053L48.5768 149.25Z" fill="white"/>
<path d="M61.7835 157.851L58.3497 155.615L48.8669 164.274C49.0828 164.381 49.3209 164.436 49.5625 164.436H74.0046C74.2461 164.436 74.4843 164.381 74.7001 164.274L65.2174 155.615L61.7835 157.851Z" fill="white"/>
<path d="M60.3596 145.621C59.4743 146.114 58.9218 147.291 58.8071 148.253C58.6879 149.254 58.9561 150.465 59.976 150.931C60.7654 151.291 61.7814 151.094 62.3358 150.425C63.2191 151.869 65.4109 150.751 66.18 149.562C66.9699 148.344 67.1303 146.818 66.5039 145.493C65.6012 143.583 63.1486 142.954 61.1778 143.228C58.5945 143.588 56.8035 145.797 56.7563 148.312C56.7066 150.798 58.205 152.702 60.6899 153.202C62.7119 153.609 65.2003 153.153 66.5933 151.585C66.8631 151.281 66.5933 150.805 66.1889 150.882H66.1805C65.9132 150.937 65.7662 151.11 65.5535 151.268C64.9689 151.697 64.3001 152.003 63.5892 152.166C62.4749 152.43 61.1882 152.426 60.1082 152.027C57.8945 151.209 57.2929 148.656 58.1081 146.629C58.8414 144.801 60.916 143.886 62.8276 144.192C65.1596 144.567 66.5928 146.507 65.48 148.716C65.2753 149.123 64.9335 149.691 64.4238 149.765C63.8898 149.842 63.7283 149.475 63.7949 149.034C63.9439 148.023 64.3195 147.064 64.5093 146.054C64.523 145.979 64.5203 145.902 64.5014 145.828C64.4825 145.754 64.4478 145.685 64.3996 145.626C64.3515 145.566 64.2909 145.517 64.222 145.482C64.1532 145.447 64.0775 145.427 64.0001 145.423C63.4928 145.394 62.9707 145.413 63.0293 146.049C62.4506 145.214 61.2016 145.153 60.3596 145.621ZM62.1321 149.629C61.2632 150.538 60.1777 149.966 60.1946 148.8C60.1723 147.966 60.3933 146.756 61.2906 146.389C62.0929 146.061 62.7551 146.724 62.8122 147.472C62.8659 148.18 62.6339 149.103 62.1321 149.629Z" fill="white"/>
</g>
<rect x="29.408" y="126.921" width="64.9731" height="48.4405" rx="24.2203" stroke="white" stroke-opacity="0.1" stroke-width="0.815906"/>
<rect x="100.789" y="126.513" width="75.5366" height="49.2565" rx="24.6282" fill="#092349"/>
<path d="M143.818 158.627V160.031H144.027V159.421H144.262L144.641 160.031H144.876L144.471 159.421C144.673 159.396 144.837 159.277 144.837 159.024C144.837 158.747 144.67 158.627 144.34 158.627H143.818ZM144.027 158.812H144.314C144.455 158.812 144.615 158.835 144.615 159.011C144.615 159.23 144.453 159.249 144.275 159.249H144.027V158.812ZM144.288 158.11C143.625 158.11 143.06 158.628 143.06 159.329C143.06 160.034 143.625 160.561 144.288 160.561C144.942 160.561 145.49 160.035 145.49 159.329C145.49 158.628 144.942 158.11 144.288 158.11ZM144.288 158.309C144.829 158.309 145.255 158.752 145.255 159.329C145.255 159.915 144.829 160.349 144.288 160.349C143.738 160.349 143.295 159.915 143.295 159.329C143.295 158.752 143.738 158.309 144.288 158.309Z" fill="white"/>
<path fill-rule="evenodd" clip-rule="evenodd" d="M119.789 160.546V141.721H157.326L138.758 160.546H119.789ZM141.471 150.729H142.284C143.37 150.729 144.235 150.365 144.235 149.202C144.235 148.075 143.37 147.712 142.284 147.712H141.471V150.729ZM132.344 152.673C132.693 152.806 133.097 152.886 133.527 152.886H133.529C133.949 152.886 134.343 152.809 134.688 152.684L133.541 148.926H133.516L132.344 152.673ZM138.374 145.261H142.068L142.068 145.265C145.6 145.265 147.259 146.541 147.259 149.322C147.259 151.82 145.551 153.309 142.666 153.309H141.471V156.908H135.997L135.455 155.187C134.876 155.38 134.222 155.486 133.528 155.486C132.817 155.486 132.146 155.372 131.556 155.17L130.993 156.908H127.638L128.007 155.901L127.872 156.02C127.035 156.702 125.988 157.077 124.692 157.103H124.499C123.01 157.103 121.55 156.686 120.317 155.975L121.458 153.676C122.695 154.417 123.471 154.582 124.518 154.561C125.061 154.549 125.454 154.449 125.709 154.18C125.865 154.019 125.944 153.815 125.953 153.597C125.962 153 125.124 152.72 124.098 152.399C123.266 152.135 122.324 151.781 121.586 151.233C120.713 150.581 120.296 149.767 120.317 148.619C120.331 147.781 120.637 147.028 121.202 146.433C122.014 145.582 123.325 145.062 124.897 145.062H124.905C126.253 145.065 127.901 145.452 129.09 146.068L127.807 148.335C126.503 147.696 125.847 147.635 125.103 147.597C123.999 147.537 123.439 147.937 123.43 148.369C123.421 148.896 124.479 149.373 125.472 149.697C126.98 150.182 128.898 150.832 129.189 152.709L131.947 145.261H135.146L138.374 154.169V145.261Z" fill="white"/>
<rect x="101.197" y="126.921" width="74.7207" height="48.4405" rx="24.2203" stroke="white" stroke-opacity="0.1" stroke-width="0.815906"/>
<rect x="182.326" y="126.513" width="63.9519" height="49.2565" rx="24.6282" fill="#092349"/>
<path d="M215.885 167.248V160.525C217.494 160.424 218.83 159.795 219.808 158.45C220.459 157.59 220.811 156.522 220.807 155.422C220.821 154.04 220.319 152.707 219.411 151.71C218.458 150.656 217.254 150.273 215.896 150.115V143.41C219.934 143.522 223.134 145.23 225.288 148.744C227.893 152.992 227.952 157.452 225.396 161.739C223.253 165.338 220.019 167.099 215.885 167.248Z" fill="white"/>
<path d="M212.719 135.063V141.561C211.095 141.771 209.676 142.337 208.704 143.776C208.078 144.666 207.74 145.745 207.741 146.853C207.73 148.252 208.247 149.598 209.178 150.595C210.132 151.639 211.35 152.085 212.719 152.246V158.872C208.678 158.749 205.47 157.044 203.328 153.558C200.716 149.308 200.653 144.855 203.179 140.49C205.348 136.746 209.555 134.762 212.719 135.063Z" fill="#FCC805"/>
<rect x="182.734" y="126.921" width="63.136" height="48.4405" rx="24.2203" stroke="white" stroke-opacity="0.1" stroke-width="0.815906"/>
<rect x="252.278" y="126.513" width="67.7278" height="49.2565" rx="24.6282" fill="#092349"/>
<path d="M289.944 150.457L278.19 148.406V163.557C278.19 164.249 278.758 164.81 279.458 164.81H299.738C300.438 164.81 301.005 164.249 301.005 163.557V157.975L289.944 150.457Z" fill="#185C37"/>
<path d="M289.944 137.472H279.458C278.758 137.472 278.19 138.033 278.19 138.725V144.307L289.944 151.142L296.166 153.192L301.005 151.142V144.307L289.944 137.472Z" fill="#21A366"/>
<path d="M278.19 144.308H289.944V151.143H278.19V144.308Z" fill="#107C41"/>
<path opacity="0.1" d="M286.602 142.939H278.19V160.027H286.602C287.301 160.025 287.867 159.465 287.869 158.774V144.192C287.867 143.501 287.301 142.942 286.602 142.939Z" fill="black"/>
<path opacity="0.2" d="M285.911 143.621H278.19V160.709H285.911C286.61 160.707 287.176 160.147 287.178 159.456V144.874C287.176 144.183 286.61 143.624 285.911 143.621Z" fill="black"/>
<path opacity="0.2" d="M285.911 143.621H278.19V159.342H285.911C286.61 159.34 287.176 158.78 287.178 158.089V144.874C287.176 144.183 286.61 143.624 285.911 143.621Z" fill="black"/>
<path opacity="0.2" d="M285.219 143.621H278.19V159.342H285.219C285.918 159.34 286.484 158.78 286.487 158.089V144.874C286.484 144.183 285.918 143.624 285.219 143.621Z" fill="black"/>
<path d="M272.545 143.621H285.22C285.92 143.621 286.487 144.182 286.487 144.874V157.406C286.487 158.097 285.92 158.658 285.22 158.658H272.545C271.845 158.658 271.278 158.097 271.278 157.406V144.874C271.278 144.182 271.845 143.621 272.545 143.621Z" fill="url(#paint3_linear_5040_55656)"/>
<path d="M275.203 155.217L277.869 151.133L275.426 147.071H277.391L278.724 149.669C278.847 149.915 278.931 150.099 278.977 150.22H278.994C279.08 150.026 279.172 149.834 279.271 149.646L280.695 147.073H282.499L279.994 151.11L282.563 155.217H280.644L279.104 152.366C279.031 152.245 278.97 152.117 278.92 151.985H278.897C278.852 152.114 278.792 152.238 278.719 152.354L277.134 155.217H275.203Z" fill="white"/>
<path d="M299.738 137.472H289.943V144.307H301.005V138.725C301.005 138.033 300.437 137.472 299.738 137.472Z" fill="#33C481"/>
<path d="M289.943 151.139H301.005V157.974H289.943V151.139Z" fill="#107C41"/>
<rect x="252.686" y="126.921" width="66.9118" height="48.4405" rx="24.2203" stroke="white" stroke-opacity="0.1" stroke-width="0.815906"/>
<rect x="27" y="189.77" width="82.1924" height="49.2565" rx="24.6282" fill="#092349"/>
<path d="M75.1448 212.791C75.4117 211.559 76.804 210.434 77.9828 210.167C78.5166 210.113 79.1616 210.007 79.5887 210.22L75.1448 212.791Z" fill="#E12130"/>
<path d="M86.8211 210.111L88.2624 212.028H85.2642C85.0507 212.028 84.9439 212.188 84.8905 212.402C84.857 212.523 84.8717 212.652 84.9314 212.762C84.9911 212.872 85.0913 212.955 85.2108 212.993L87.7286 214.252H83.2802C82.9763 213.978 82.7551 213.625 82.6419 213.232C82.5287 212.839 82.5279 212.422 82.6397 212.028C82.7349 211.611 82.939 211.226 83.2313 210.914C83.5236 210.601 83.8935 210.372 84.3034 210.249C84.5448 210.164 84.7959 210.111 85.0507 210.089L86.8211 210.111Z" fill="#E12130"/>
<path d="M74.8185 210.222V213.007L73.1592 213.972L72.7322 213.808V210.222H74.8185Z" fill="#E12130"/>
<path d="M67.3777 210.222H69.3038L72.1419 214.026L72.0351 214.239L69.6775 214.186L69.3038 213.701V214.239H67.3777V210.222Z" fill="#E12130"/>
<path d="M74.82 214.237H73.3743L74.82 213.378V214.237Z" fill="#E12130"/>
<path d="M58.0134 214.559C58.0134 215.471 57.7999 217.024 56.3008 216.97H56.3542C54.8551 217.024 54.6416 215.471 54.6416 214.559H52.5508C52.5513 215.531 52.7912 216.487 53.2492 217.344H50.8249C50.5002 217.344 50.1265 217.29 49.7528 217.29C48.3605 217.13 48.3071 214.559 48.3071 214.559H46.0029C45.96 215.866 46.3984 217.144 47.2351 218.149C48.0936 219.15 49.2724 219.381 50.558 219.435H53.396V217.504C53.6186 217.764 53.8692 217.998 54.1434 218.202C54.6847 218.585 55.3202 218.811 55.9811 218.858C56.6421 218.905 57.3033 218.771 57.8933 218.469C59.339 217.775 59.984 216.272 60.0374 214.773C60.3043 217.29 61.323 218.896 64.9306 218.683C65.6917 218.308 66.4247 217.878 67.1236 217.397V214.559H65.1308V216.926H64.6415C64.1361 216.987 63.6233 216.932 63.1424 216.766C62.2527 216.387 62.1815 215.373 62.1281 214.568L58.0134 214.559Z" fill="#E12130"/>
<path d="M69.3038 216.165L67.3777 217.29V214.559H69.3038V216.165Z" fill="#E12130"/>
<path d="M70.6428 215.789L72.1953 214.877L72.4622 214.984V218.68L70.6428 215.789Z" fill="#E12130"/>
<path d="M72.8928 214.984L74.819 216.163V218.68H72.8928V214.984Z" fill="#E12130"/>
<path d="M79.161 218.787C78.3142 218.945 77.439 218.786 76.7011 218.342C75.9633 217.898 75.414 217.198 75.1575 216.376L79.161 218.787Z" fill="#E12130"/>
<path d="M69.3046 218.681H67.4319V217.663L69.3046 216.595V218.681Z" fill="#E12130"/>
<path d="M70.482 215.524L69.9482 214.559H72.0879L70.482 215.524Z" fill="#E12130"/>
<path d="M50.3937 209.361C49.6912 209.387 49.0007 209.55 48.3608 209.841C46.7016 210.695 46.1099 212.475 46.0032 214.254H48.3074C48.3482 213.805 48.4195 213.359 48.5209 212.92C48.6722 212.199 49.2727 211.398 49.9133 211.398H53.3963C52.8525 212.253 52.5554 213.241 52.5378 214.254H54.6285C54.6819 213.342 54.8954 211.897 56.3411 211.897H56.2877C57.7335 211.897 57.947 213.342 58.0004 214.254H62.1284C62.1165 213.764 62.1887 213.275 62.3419 212.808C62.4254 212.568 62.5756 212.357 62.7749 212.2C62.9743 212.042 63.2145 211.945 63.4674 211.919H66.6791L65.3935 210.219C63.7877 210.219 61.9105 210.113 60.8384 211.554C60.3352 212.299 60.0572 213.173 60.0377 214.072C60.0078 213.547 59.9259 213.027 59.793 212.519C59.5647 211.889 59.1699 211.333 58.6506 210.909C58.1313 210.485 57.5069 210.21 56.8438 210.113C56.2107 210.019 55.5643 210.088 54.9651 210.313C54.366 210.538 53.8338 210.911 53.4186 211.398C52.8803 210.753 52.3999 210.064 51.8661 209.361H50.3937Z" fill="#E12130"/>
<path d="M74.8192 215.685L73.2134 214.702V214.542H77.0167C77.0167 215.454 77.2302 217.006 78.6759 216.953C80.175 217.006 80.3396 215.454 80.3396 214.542H82.4793C82.4635 215.236 82.3374 215.924 82.1056 216.579V216.632H86.038C86.1337 216.602 86.2224 216.553 86.2988 216.489C86.3753 216.424 86.4378 216.344 86.4828 216.254C86.505 216.191 86.5142 216.124 86.5101 216.058C86.5059 215.991 86.4883 215.926 86.4584 215.866C86.4286 215.806 86.387 215.753 86.3361 215.71C86.2853 215.666 86.2262 215.634 86.1625 215.614C85.4152 215.293 84.5567 214.862 83.8049 214.542H88.0931C88.5805 215.126 88.8285 215.873 88.787 216.632C88.2621 218.79 86.4828 218.705 86.4828 218.705H82.0344V216.704L81.9811 216.864C81.5081 217.748 80.7058 218.409 79.748 218.705L74.9794 215.845C74.9171 215.631 74.9171 215.365 74.8726 215.147L74.8192 215.685Z" fill="#E12130"/>
<path d="M80.3401 214.255C80.3401 213.343 80.0687 211.897 78.6764 211.897C77.2841 211.897 77.0172 213.325 77.0172 214.255H75.0332C74.9898 213.914 75.0094 213.569 75.091 213.236L80.0687 210.38C82.373 211.288 82.4798 213.81 82.4798 214.255H80.3401Z" fill="#E12130"/>
<path d="M90.1922 211.232C90.1756 211.476 90.067 211.705 89.8882 211.872C89.7094 212.039 89.4739 212.132 89.2292 212.132C88.9845 212.132 88.749 212.039 88.5702 211.872C88.3914 211.705 88.2827 211.476 88.2661 211.232C88.2827 210.988 88.3914 210.759 88.5702 210.592C88.749 210.425 88.9845 210.332 89.2292 210.332C89.4739 210.332 89.7094 210.425 89.8882 210.592C90.067 210.759 90.1756 210.988 90.1922 211.232ZM88.4796 211.232C88.4717 211.335 88.4851 211.439 88.5192 211.537C88.5533 211.635 88.6072 211.725 88.6775 211.801C88.7479 211.877 88.8333 211.937 88.9282 211.979C89.0231 212.02 89.1256 212.042 89.2292 212.042C89.3328 212.042 89.4352 212.02 89.5302 211.979C89.6251 211.937 89.7104 211.877 89.7808 211.801C89.8512 211.725 89.9051 211.635 89.9392 211.537C89.9732 211.439 89.9867 211.335 89.9787 211.232C89.9867 211.129 89.9732 211.025 89.9392 210.927C89.9051 210.829 89.8512 210.74 89.7808 210.664C89.7104 210.588 89.6251 210.527 89.5302 210.485C89.4352 210.444 89.3328 210.423 89.2292 210.423C89.1256 210.423 89.0231 210.444 88.9282 210.485C88.8333 210.527 88.7479 210.588 88.6775 210.664C88.6072 210.74 88.5533 210.829 88.5192 210.927C88.4851 211.025 88.4717 211.129 88.4796 211.232ZM89.2314 211.139C89.3382 211.139 89.3915 211.085 89.3915 211.032C89.3915 210.979 89.3382 210.872 89.1736 210.872H89.0134V211.139H89.2314ZM89.4449 211.73L89.3382 211.57C89.2819 211.511 89.2447 211.437 89.2314 211.357C89.2094 211.337 89.1833 211.321 89.1549 211.312C89.1265 211.303 89.0965 211.3 89.0668 211.303H89.0134V211.748H88.7999V210.694H89.2848C89.4983 210.694 89.6051 210.801 89.6051 210.961C89.6022 211.037 89.5746 211.109 89.5264 211.168C89.4782 211.227 89.4121 211.268 89.3382 211.285C89.4449 211.285 89.4449 211.339 89.5517 211.499L89.6584 211.712L89.4449 211.73Z" fill="#E12130"/>
<rect x="27.408" y="190.177" width="81.3764" height="48.4405" rx="24.2203" stroke="white" stroke-opacity="0.1" stroke-width="0.815906"/>
<rect x="115.192" y="189.77" width="67.6363" height="49.2565" rx="24.6282" fill="#092349"/>
<path d="M156.223 227.361L142.05 221.112H151.215L156.223 227.361Z" fill="#2FB2AF"/>
<path d="M147.411 214.74L157.457 227.239L153.462 208.177L147.411 214.74Z" fill="#2FB2AF"/>
<path d="M134.192 201.434L146.69 214.008L152.741 207.445L134.192 201.434Z" fill="#2FB2AF"/>
<path d="M158.248 201.569L153.563 206.655L149.054 205.179L158.248 201.569Z" fill="#2FB2AF"/>
<path d="M159.247 202.001L156.588 204.746L163.829 204.865L159.247 202.001Z" fill="#2FB2AF"/>
<rect x="115.6" y="190.177" width="66.8204" height="48.4405" rx="24.2203" stroke="white" stroke-opacity="0.1" stroke-width="0.815906"/>
<rect x="188.829" y="189.77" width="67.0111" height="49.2565" rx="24.6282" fill="#092349"/>
<path d="M236.085 224.054L232.317 220.946C233.636 218.874 234.389 216.425 234.389 213.882C234.389 206.535 228.456 200.602 221.109 200.602C213.762 200.602 207.829 206.535 207.829 213.882C207.829 221.228 213.762 227.162 221.109 227.162C223.935 227.162 226.572 226.22 228.738 224.713L232.694 228.01C232.694 228.01 233.259 228.481 233.824 227.916L236.179 225.09C236.179 225.184 236.65 224.525 236.085 224.054ZM229.303 213.882C229.303 218.403 225.63 222.076 221.109 222.076C216.588 222.076 212.915 218.403 212.915 213.882C212.915 209.361 216.588 205.688 221.109 205.688C225.63 205.688 229.303 209.361 229.303 213.882Z" fill="#009845"/>
<path d="M215.835 213.884C215.835 210.965 218.189 208.61 221.109 208.61C224.029 208.61 226.384 210.965 226.384 213.884C226.384 216.804 224.029 219.159 221.109 219.159C218.189 219.065 215.835 216.71 215.835 213.884Z" fill="#009845"/>
<path d="M235.102 203.726H235.491C235.718 203.726 235.876 203.677 235.876 203.412C235.876 203.19 235.707 203.103 235.491 203.103H235.102V203.726ZM235.102 204.659H234.913V202.937H235.537C235.835 202.937 236.065 203.088 236.065 203.412C236.065 203.684 235.918 203.866 235.657 203.892L236.141 204.659H235.907L235.45 203.892H235.102V204.659ZM235.427 202.578C234.758 202.578 234.241 203.122 234.241 203.802C234.241 204.485 234.751 205.026 235.427 205.026C236.103 205.026 236.613 204.485 236.613 203.802C236.613 203.122 236.103 202.578 235.427 202.578ZM234.014 203.802C234.014 203.02 234.653 202.389 235.427 202.389C236.209 202.389 236.84 203.027 236.84 203.802C236.84 204.576 236.209 205.214 235.427 205.214C234.653 205.214 234.014 204.576 234.014 203.802Z" fill="#009845"/>
<rect x="189.237" y="190.177" width="66.1952" height="48.4405" rx="24.2203" stroke="white" stroke-opacity="0.1" stroke-width="0.815906"/>
<rect x="261.84" y="189.77" width="61.6865" height="49.2565" rx="24.6282" fill="#092349"/>
<path d="M280.84 224.675C280.84 217.791 280.84 211.004 280.84 204.12C284.828 206.399 288.768 208.677 292.707 210.956C296.647 208.677 300.538 206.447 304.526 204.12C304.526 211.004 304.526 217.791 304.526 224.627C302.532 223.512 300.587 222.397 298.641 221.233C298.641 218.955 298.641 216.725 298.641 214.398C296.598 215.561 294.653 216.676 292.707 217.84C290.762 216.725 288.865 215.61 286.92 214.543C286.871 214.592 286.822 214.592 286.822 214.592C286.822 214.592 286.774 214.592 286.774 214.64C286.774 214.689 286.725 214.737 286.725 214.737C286.725 216.919 286.725 219.052 286.725 221.282C284.828 222.397 282.883 223.512 280.84 224.675Z" fill="#03B384"/>
<rect x="262.248" y="190.177" width="60.8706" height="48.4405" rx="24.2203" stroke="white" stroke-opacity="0.1" stroke-width="0.815906"/>
<rect x="18" y="253.025" width="71.2112" height="49.2565" rx="24.6282" fill="#092349"/>
<path d="M44.6414 282.059V273.248H42.5817V276.658H39.0598V273.248H37V282.059H39.0598V278.369H42.5817V282.059H44.6414Z" fill="white"/>
<path d="M52.4553 274.883V273.248H45.8692V274.883H48.1324V282.059H50.1921V274.883H52.4553Z" fill="white"/>
<path d="M63.4722 282.059L62.8238 273.248H60.2173L58.4119 279.046H58.3864L56.5555 273.248H53.9618L53.3006 282.059H55.3222L55.6401 276.057H55.6782L57.5727 282.059H59.2002L61.0819 276.057H61.1073L61.4506 282.059H63.4722Z" fill="white"/>
<path d="M70.2112 282.059V280.348H67.1725V273.248H65.1254V282.059H70.2112Z" fill="white"/>
<rect x="18.408" y="253.433" width="70.3953" height="48.4405" rx="24.2203" stroke="white" stroke-opacity="0.1" stroke-width="0.815906"/>
<rect x="95.2112" y="253.025" width="63.272" height="49.2565" rx="24.6282" fill="#092349"/>
<path d="M120.295 277.633C120.295 280.814 120.295 283.995 120.295 287.176C120.295 287.419 120.234 287.481 119.989 287.481C118.162 287.471 116.334 287.471 114.506 287.481C114.289 287.481 114.211 287.44 114.211 287.202C114.217 280.832 114.217 274.464 114.211 268.098C114.211 267.878 114.275 267.824 114.488 267.826C116.333 267.834 118.179 267.834 120.025 267.826C120.254 267.826 120.289 267.905 120.289 268.107C120.29 271.278 120.292 274.453 120.295 277.633Z" fill="#D8232E"/>
<path d="M130.122 277.638C130.122 280.818 130.122 283.997 130.122 287.176C130.122 287.416 130.063 287.481 129.793 287.481C127.822 287.469 125.858 287.469 123.899 287.481C123.654 287.481 123.57 287.443 123.57 287.188C123.579 280.83 123.579 274.471 123.57 268.112C123.57 267.882 123.636 267.824 123.88 267.826C125.845 267.835 127.809 267.835 129.774 267.826C130.032 267.826 130.117 267.873 130.115 268.131C130.117 271.297 130.122 274.468 130.122 277.638Z" fill="#D8232E"/>
<path d="M133.5 267.826C133.921 268.268 134.334 268.718 134.765 269.148C136.289 270.669 137.818 272.186 139.352 273.697C139.394 273.736 139.428 273.783 139.451 273.836C139.473 273.888 139.484 273.945 139.483 274.003C139.483 278.417 139.483 282.832 139.483 287.248C139.483 287.42 139.442 287.481 139.256 287.481C137.379 287.474 135.499 287.474 133.618 287.481C133.45 287.481 133.382 287.433 133.403 287.266C133.403 287.22 133.403 287.174 133.403 287.128V267.888L133.5 267.826Z" fill="#D8232E"/>
<rect x="95.6191" y="253.433" width="62.4561" height="48.4405" rx="24.2203" stroke="white" stroke-opacity="0.1" stroke-width="0.815906"/>
<rect x="164.483" y="253.025" width="92.2224" height="49.2565" rx="24.6282" fill="#092349"/>
<path d="M193.686 282.909C194.524 281.886 195.121 280.623 195.38 279.226C196.048 282.833 198.971 285.549 202.476 285.549C205.982 285.549 208.905 282.832 209.573 279.225V285.549H211.973V276.106L216.814 281.385L221.634 276.106V285.548H224.075V279.225C224.743 282.832 227.666 285.548 231.172 285.548C234.052 285.548 236.539 283.715 237.706 281.059V274.248C236.539 271.592 234.052 269.759 231.172 269.759C227.666 269.759 224.743 272.475 224.075 276.082V269.759L216.814 277.653L209.573 269.759V276.082C208.905 272.475 205.982 269.759 202.476 269.759C198.971 269.759 196.048 272.474 195.38 276.081C195.121 274.684 194.524 273.421 193.686 272.398C192.36 270.779 190.431 269.759 188.283 269.759H183.483V285.548H188.283C190.431 285.548 192.36 284.529 193.686 282.909ZM231.172 272.385C233.84 272.385 236.003 274.744 236.003 277.654C236.003 280.563 233.84 282.922 231.172 282.922C228.503 282.922 226.34 280.563 226.34 277.654C226.34 274.744 228.503 272.385 231.172 272.385ZM202.476 272.385C205.145 272.385 207.308 274.744 207.308 277.654C207.308 280.563 205.145 282.922 202.476 282.922C199.808 282.922 197.645 280.563 197.645 277.654C197.645 274.744 199.808 272.385 202.476 272.385ZM185.883 272.398H188.6C191.12 272.576 193.115 274.86 193.115 277.654C193.115 280.448 191.119 282.733 188.598 282.909H185.883V272.398Z" fill="#99CCEE"/>
<rect x="164.891" y="253.433" width="91.4065" height="48.4405" rx="24.2203" stroke="white" stroke-opacity="0.1" stroke-width="0.815906"/>
<rect x="262.706" y="253.025" width="68.1927" height="49.2565" rx="24.6282" fill="#092349"/>
<path fill-rule="evenodd" clip-rule="evenodd" d="M281.706 281.266L296.763 289.999L311.895 281.266L296.838 272.458L281.706 281.266ZM285.621 281.266L296.838 274.792L308.056 281.266L296.838 287.666L285.621 281.266Z" fill="#0DA2A3"/>
<path fill-rule="evenodd" clip-rule="evenodd" d="M296.839 265.684L281.707 274.417L296.764 283.15L311.897 274.417L296.839 265.684ZM285.622 274.417L296.839 267.942L308.057 274.417L296.839 280.891L285.622 274.417Z" fill="white"/>
<rect x="263.114" y="253.433" width="67.3768" height="48.4405" rx="24.2203" stroke="white" stroke-opacity="0.1" stroke-width="0.815906"/>
<defs>
<filter id="filter0_f_5040_55656" x="249.99" y="17.1948" width="10.0486" height="22.1166" filterUnits="userSpaceOnUse" color-interpolation-filters="sRGB">
<feFlood flood-opacity="0" result="BackgroundImageFix"/>
<feBlend mode="normal" in="SourceGraphic" in2="BackgroundImageFix" result="shape"/>
<feGaussianBlur stdDeviation="0.271112" result="effect1_foregroundBlur_5040_55656"/>
</filter>
<filter id="filter1_f_5040_55656" x="245.11" y="12.7786" width="19.8086" height="31.8766" filterUnits="userSpaceOnUse" color-interpolation-filters="sRGB">
<feFlood flood-opacity="0" result="BackgroundImageFix"/>
<feBlend mode="normal" in="SourceGraphic" in2="BackgroundImageFix" result="shape"/>
<feGaussianBlur stdDeviation="2.71112" result="effect1_foregroundBlur_5040_55656"/>
</filter>
<linearGradient id="paint0_linear_5040_55656" x1="254.64" y1="10.6067" x2="267.293" y2="36.326" gradientUnits="userSpaceOnUse">
<stop stop-color="#E6AD10"/>
<stop offset="1" stop-color="#C87E0E"/>
</linearGradient>
<linearGradient id="paint1_linear_5040_55656" x1="250.532" y1="17.6191" x2="261.147" y2="37.3617" gradientUnits="userSpaceOnUse">
<stop stop-color="#F6D751"/>
<stop offset="1" stop-color="#E6AD10"/>
</linearGradient>
<linearGradient id="paint2_linear_5040_55656" x1="244.929" y1="24.6268" x2="250.825" y2="38.0265" gradientUnits="userSpaceOnUse">
<stop stop-color="#F9E589"/>
<stop offset="1" stop-color="#F6D751"/>
</linearGradient>
<linearGradient id="paint3_linear_5040_55656" x1="273.92" y1="142.642" x2="283.676" y2="159.734" gradientUnits="userSpaceOnUse">
<stop stop-color="#18884F"/>
<stop offset="0.5" stop-color="#117E43"/>
<stop offset="1" stop-color="#0B6631"/>
</linearGradient>
<clipPath id="clip0_5040_55656">
<rect width="27.789" height="26.4334" fill="white" transform="translate(48 137.924)"/>
</clipPath>
</defs>
</svg>
