<svg width="58" height="39" viewBox="0 0 58 39" fill="none" xmlns="http://www.w3.org/2000/svg">
<path d="M4.56998 0.591686C5.68579 0.591686 6.80418 0.591686 7.91999 0.591686C8.20088 0.591686 8.59515 0.553072 8.6338 0.921184C8.68018 1.34078 8.25757 1.27643 7.99472 1.32791C6.74749 1.56474 6.08779 2.20572 6.04398 3.49797C5.9744 5.63199 6.0079 7.76602 5.99502 9.90004C5.99502 10.3711 6.17283 10.4895 6.55421 10.1832C6.81191 9.98756 7.04126 9.78162 7.26803 9.56282C8.9018 7.97453 10.5485 6.39911 12.0379 4.66152C12.5035 4.13238 12.9072 3.55202 13.2414 2.93164C13.6743 2.1079 13.4295 1.59048 12.5327 1.37167C12.3678 1.33306 12.1977 1.30732 12.0354 1.25583C11.873 1.20435 11.7107 1.11425 11.7364 0.903165C11.7492 0.817404 11.7941 0.739683 11.862 0.685693C11.9299 0.631703 12.0158 0.605466 12.1024 0.612279C12.5143 0.586546 12.9274 0.586546 13.3393 0.612279C14.6932 0.744823 16.0569 0.744823 17.4108 0.612279C17.6047 0.598123 17.7994 0.598123 17.9932 0.612279C18.2355 0.612279 18.5318 0.59426 18.6014 0.88772C18.671 1.18118 18.3617 1.25068 18.153 1.33563C17.2071 1.72122 16.3272 2.25189 15.5451 2.90848C13.2259 4.7825 11.2545 6.9886 9.14146 9.06084C8.85026 9.34916 8.88376 9.57569 9.12599 9.86657C11.6334 12.7342 14.0222 15.6972 16.6635 18.4541C17.5474 19.3783 18.573 19.9987 19.8744 20.1557C20.1321 20.184 20.5676 20.1557 20.5135 20.5624C20.4594 20.9692 20.0573 20.8404 19.7868 20.843C18.305 20.843 16.8233 20.843 15.3416 20.843C15.1363 20.8503 14.9324 20.8072 14.7478 20.7174C14.5631 20.6277 14.4033 20.494 14.2824 20.3282C11.989 17.651 9.7728 14.894 7.30926 12.3352C7.0026 12.0186 6.71141 11.46 6.21406 11.6402C5.7734 11.7998 5.98987 12.379 5.95637 12.7651C5.76825 14.5336 5.90998 16.3047 6.04398 18.068C6.13675 19.2496 6.90468 19.9472 8.07718 20.0913C8.19572 20.0913 8.31942 20.0913 8.43795 20.1274C8.69565 20.1711 9.04353 20.1866 9.01261 20.5418C8.98169 20.8971 8.61834 20.8507 8.36065 20.8276C5.98214 20.6191 3.6062 20.7915 1.22769 20.8276C0.969999 20.8276 0.609228 20.8945 0.567997 20.5496C0.521612 20.166 0.913306 20.2226 1.15296 20.166C2.49297 19.8519 3.04443 19.2135 3.04701 17.8106C3.06247 12.9608 3.06247 8.1101 3.04701 3.25857C3.04701 2.30611 2.58574 1.71404 1.68639 1.42058C1.45704 1.3485 1.21481 1.30732 0.982883 1.24039C0.750959 1.17346 0.467497 1.22237 0.49842 0.91861C0.529344 0.614853 0.823113 0.591686 1.06019 0.589111C2.22754 0.589111 3.37943 0.589111 4.55967 0.589111L4.56998 0.591686Z" fill="#526373"/>
<path d="M28.888 38.4816C20.0698 38.4816 11.2515 38.4816 2.43324 38.4816C2.0132 38.4816 1.43854 38.6618 1.44627 37.8921C1.44627 37.5394 1.58028 37.3335 1.94362 37.318C2.18585 37.318 2.43066 37.3052 2.67289 37.3052H55.0026C55.2603 37.3052 55.5361 37.3052 55.8041 37.3232C56.2061 37.3438 56.3349 37.5806 56.3195 37.9591C56.3276 38.0312 56.319 38.1042 56.2941 38.1723C56.2692 38.2405 56.2288 38.302 56.1761 38.3519C56.1234 38.4018 56.0598 38.4388 55.9903 38.46C55.9208 38.4812 55.8474 38.4859 55.7757 38.4739C55.5335 38.4739 55.2887 38.4739 55.0465 38.4739L28.888 38.4816Z" fill="#526373"/>
<path d="M34.5574 7.50474V4.1149C34.5574 3.5821 34.5368 3.04673 34.5574 2.51393C34.5729 1.81383 34.274 1.36339 33.5859 1.16778C33.3978 1.11372 33.0706 1.1163 33.1273 0.817725C33.1762 0.560334 33.4751 0.598942 33.6864 0.598942C34.4887 0.598942 35.2901 0.598942 36.0907 0.598942C36.2556 0.598942 36.4566 0.61696 36.4747 0.856333C36.4901 1.03908 36.3252 1.11372 36.1886 1.13432C35.4156 1.30162 35.3254 1.87817 35.3254 2.5268C35.3254 4.80471 35.3254 7.08519 35.2996 9.3631C35.2996 9.74403 35.498 10.2717 34.9697 10.4416C34.4827 10.5986 34.2508 10.1173 33.9879 9.8264C32.0553 7.68491 30.1286 5.53999 28.2079 3.39163C27.9837 3.13424 27.7698 2.87685 27.525 2.59887C27.4116 2.74301 27.3343 2.79449 27.3343 2.84339C27.355 4.90252 27.2106 6.96164 27.44 9.02077C27.507 9.62049 27.6771 10.1121 28.36 10.2434C28.494 10.2691 28.664 10.3386 28.6176 10.5265C28.5713 10.7144 28.3935 10.6912 28.2543 10.6912C27.4795 10.6912 26.7064 10.6912 25.9351 10.6912C25.7959 10.6912 25.6155 10.7067 25.5872 10.5188C25.564 10.3824 25.7006 10.3154 25.8114 10.2614C26.3886 10.004 26.5484 9.51753 26.5432 8.95385C26.5252 6.72484 26.685 4.49841 26.5922 2.26169C26.569 1.74691 26.4968 1.29647 25.9119 1.12402C25.7702 1.08284 25.6258 0.985029 25.6851 0.810003C25.7444 0.634978 25.899 0.622108 26.0459 0.611812C27.2467 0.526873 28.3033 0.542317 29.2052 1.68256C30.8261 3.74168 32.6505 5.61549 34.3899 7.56651L34.5574 7.50474Z" fill="#526373"/>
<path d="M45.5694 5.99592C46.175 5.99592 46.7832 5.99592 47.3913 5.99592C47.5382 5.99592 47.7135 6.03969 47.7495 6.19159C47.8011 6.413 47.6001 6.49023 47.4377 6.51855C46.644 6.64728 46.5538 7.19565 46.5564 7.86503C46.5693 9.53589 46.3709 9.80622 44.7783 10.3803C43.9349 10.694 43.0373 10.8362 42.1381 10.7986C41.2389 10.761 40.3563 10.5444 39.542 10.1615C37.6222 9.29646 36.7821 7.26259 36.9934 5.33942C37.4212 1.44159 41.6499 -0.661792 45.2396 1.16869C45.7112 1.4107 46.157 1.89213 46.7213 1.28197C46.8708 1.11978 47.0409 1.31544 47.0692 1.49566C47.1597 2.09298 47.1597 2.7005 47.0692 3.29782C47.0203 3.62736 46.8115 3.69945 46.5538 3.43685C46.44 3.28566 46.3359 3.12744 46.242 2.96314C45.1958 1.45189 43.696 0.991052 41.9669 1.23306C40.3589 1.45704 39.4982 2.55894 39.0215 4.02126C38.5997 5.30371 38.6472 6.69409 39.1555 7.94484C40.0316 10.2259 42.3483 10.576 43.9692 9.94009C44.8737 9.58738 45.0257 9.11367 44.8917 7.605C44.8273 6.86096 44.3763 6.63441 43.7166 6.57519C43.5259 6.55974 43.2863 6.53142 43.3018 6.26882C43.3172 6.00622 43.5594 6.01137 43.7476 5.9985C44.3531 5.9985 44.9613 5.9985 45.5694 5.9985V5.99592Z" fill="#526373"/>
<path d="M28.8861 35.6743C37.658 35.6743 46.4299 35.6786 55.2017 35.6872C55.5573 35.6872 56.2093 35.4293 56.2119 36.0147C56.2119 36.4969 55.5831 36.2958 55.2352 36.2958C37.6657 36.3061 20.0979 36.3061 2.53189 36.2958C2.184 36.2958 1.55523 36.4969 1.55781 36.0095C1.55781 35.4345 2.21492 35.6872 2.57054 35.6872C11.3424 35.6717 20.1143 35.6674 28.8861 35.6743Z" fill="#526373"/>
<path d="M32.017 24.0183C32.7024 24.044 33.6971 23.9488 34.6893 24.1419C36.6606 24.528 37.7429 25.8358 37.8254 27.8463C37.895 29.5583 37.5316 31.0334 35.97 31.9884C35.1595 32.4906 34.2281 32.7646 33.2745 32.7813C32.0118 32.8071 30.7466 32.7942 29.4839 32.7813C29.2777 32.7813 28.9685 32.8663 28.8989 32.6192C28.7958 32.2974 29.1566 32.3257 29.3164 32.2484C29.464 32.1853 29.587 32.0756 29.6665 31.9362C29.7461 31.7968 29.7778 31.6353 29.757 31.4761C29.757 29.4167 29.757 27.3572 29.757 25.2977C29.7775 25.1259 29.7373 24.9523 29.6431 24.807C29.549 24.6617 29.407 24.5539 29.2416 24.5023C29.1051 24.4559 28.9272 24.4044 28.953 24.2294C28.9865 24.0131 29.1978 24.0209 29.3627 24.0183C30.1539 24.0157 30.9295 24.0183 32.017 24.0183ZM31.2439 28.2248C31.2439 29.1953 31.2439 30.1658 31.2439 31.1363C31.2439 31.6666 31.4294 32.0785 32.035 32.1661C34.228 32.5265 35.8463 31.3938 36.2277 29.2468C36.7431 26.2708 35.1144 24.3143 32.2489 24.492C31.4758 24.5383 31.2491 24.7649 31.2387 25.5217C31.2465 26.4304 31.2542 27.3263 31.2542 28.2248H31.2439Z" fill="#526373"/>
<path d="M20.3123 25.5639V27.5642C20.3123 28.7536 20.3123 29.943 20.3252 31.1299C20.3252 31.6705 20.4567 32.1442 21.0597 32.3296C21.1937 32.3707 21.3689 32.4325 21.3174 32.6127C21.2658 32.793 21.0957 32.7827 20.954 32.7827C20.3458 32.7827 19.7403 32.7827 19.1321 32.7827C18.9904 32.7827 18.8126 32.7827 18.7636 32.6127C18.7146 32.4428 18.8847 32.3682 19.0213 32.3218C19.4671 32.1545 19.5367 31.7889 19.5367 31.3796C19.5728 29.4642 19.614 27.5514 19.6501 25.636C19.6501 25.1391 19.6501 24.6474 19.0471 24.4517C19.0061 24.4319 18.9708 24.4023 18.9443 24.3654C18.9177 24.3286 18.9008 24.2857 18.895 24.2406C18.895 24.1067 19.0445 24.0552 19.1527 24.0501C20.1835 24.0192 21.1499 23.875 21.941 24.9331C23.2475 26.676 24.7421 28.2799 26.1594 29.9379C26.2737 30.0444 26.3942 30.1441 26.5202 30.2365C26.5202 29.5285 26.5202 28.9647 26.5202 28.3984C26.5202 27.5256 26.479 26.6503 26.5073 25.7776C26.5305 25.0567 26.3604 24.5315 25.541 24.4285C25.4688 24.4285 25.407 24.3178 25.175 24.117C26.1547 24.005 27.143 23.9895 28.1256 24.0707C28.221 24.0707 28.3215 24.1634 28.2725 24.2715C28.2508 24.3125 28.2209 24.3485 28.1845 24.3773C28.1481 24.4062 28.1061 24.4271 28.0612 24.4388C27.2469 24.5367 27.2572 25.1262 27.2495 25.7261C27.222 27.8337 27.1842 29.9422 27.1361 32.0515C27.1361 32.2832 27.2108 32.5793 26.9274 32.6951C26.6439 32.811 26.4506 32.5381 26.2831 32.345C24.438 30.1893 22.5938 28.0328 20.7504 25.8754C20.6757 25.7595 20.6164 25.5793 20.3123 25.5639Z" fill="#526373"/>
<path d="M55.6601 30.2588C55.6601 28.5933 55.7555 26.9716 55.7014 25.3551C55.7097 25.1462 55.64 24.9416 55.5056 24.7813C55.3713 24.6209 55.182 24.5162 54.9747 24.4876C54.8175 24.4516 54.5778 24.4645 54.5856 24.2457C54.5933 24.0269 54.8226 24.0346 54.985 24.0372C55.8199 24.0526 56.6626 23.9548 57.4897 24.1015C57.4982 24.1716 57.4982 24.2425 57.4897 24.3126C56.4925 24.534 56.4461 25.2599 56.459 26.0939C56.4899 28.0811 56.4976 30.0683 56.343 32.0504C56.325 32.282 56.4255 32.5858 56.142 32.6939C55.8586 32.802 55.6601 32.524 55.4952 32.3309C53.9491 30.5471 52.4467 28.7503 50.9109 26.9691C50.4934 26.4826 50.1378 25.9394 49.5245 25.4529C49.5245 26.9974 49.5245 28.444 49.5245 29.8855C49.5245 30.3205 49.5863 30.7556 49.5915 31.1906C49.5915 31.7054 49.692 32.1559 50.2692 32.3412C50.3955 32.3798 50.5681 32.439 50.5037 32.6347C50.4573 32.7685 50.313 32.7762 50.1945 32.7788C49.564 32.7788 48.9326 32.7788 48.3004 32.7788C48.1819 32.7788 48.0427 32.7788 47.9886 32.6424C47.9113 32.4468 48.084 32.385 48.2077 32.3361C48.723 32.1147 48.8158 31.6668 48.821 31.1932C48.821 29.2549 48.821 27.3166 48.8364 25.3783C48.8364 24.9922 48.7591 24.6498 48.3417 24.4953C48.2102 24.449 48.0402 24.4001 48.084 24.2096C48.12 24.0809 48.2618 24.0552 48.3829 24.0449C49.4858 23.9599 50.465 23.9625 51.2716 25.0333C52.6425 26.8455 54.1887 28.5238 55.6601 30.2588Z" fill="#526373"/>
<path d="M56.2912 2.67199C55.9021 2.60249 55.8377 2.30133 55.6753 2.10827C55.4406 1.79675 55.131 1.54943 54.7751 1.38925C54.4193 1.22906 54.0287 1.16118 53.6396 1.1919C52.9464 1.23308 52.4001 1.4699 52.1785 2.17005C52.0743 2.48474 52.0733 2.82443 52.1758 3.1397C52.2782 3.45497 52.4786 3.72938 52.748 3.92299C53.1798 4.24045 53.6663 4.47602 54.1833 4.618C54.6918 4.77968 55.1893 4.974 55.6728 5.19974C56.2169 5.45343 56.6669 5.87216 56.9589 6.39627C57.2509 6.92038 57.3698 7.52316 57.2988 8.11874C57.1545 9.40578 56.4227 10.2604 55.1058 10.6233C54.0495 10.929 52.9195 10.8571 51.9105 10.42C51.5755 10.2758 51.2198 10.1111 50.8616 10.2964C50.4055 10.5332 50.2999 10.3273 50.2999 9.92059C50.2999 9.38776 50.2999 8.85235 50.2999 8.31952C50.2999 8.11617 50.22 7.8047 50.4932 7.7558C50.7663 7.70689 50.7972 8.0132 50.8694 8.19596C51.3848 9.483 52.3022 10.1857 53.704 10.1754C54.7348 10.1754 55.4589 9.63487 55.6599 8.75969C55.8892 7.77124 55.5517 7.01189 54.5956 6.53826C53.9668 6.22679 53.2943 6.008 52.6475 5.72742C51.7558 5.33874 50.9853 4.8265 50.6916 3.81231C50.5017 3.22681 50.5502 2.59021 50.8265 2.04013C51.1028 1.49005 51.5848 1.07069 52.1682 0.872713C52.9656 0.556042 53.846 0.513478 54.6703 0.751731C54.9744 0.844398 55.2991 0.960232 55.5903 0.785194C56.0207 0.527787 56.1392 0.720842 56.2062 1.1121C56.3249 1.6232 56.3537 2.15104 56.2912 2.67199Z" fill="#526373"/>
<path d="M13.9224 32.8112C11.4073 32.8112 9.62404 30.9731 9.62146 28.3911C9.61566 27.8076 9.72786 27.2289 9.95132 26.6897C10.1748 26.1506 10.5049 25.662 10.9219 25.2533C11.3389 24.8447 11.8342 24.5244 12.3782 24.3115C12.9221 24.0987 13.5034 23.9978 14.0873 24.0148C14.6666 24.0052 15.2417 24.1138 15.7775 24.3341C16.3133 24.5543 16.7984 24.8814 17.2032 25.2954C17.608 25.7095 17.924 26.2017 18.1317 26.742C18.3395 27.2822 18.4347 27.8592 18.4114 28.4374C18.3728 31.089 16.6076 32.8189 13.9224 32.8112ZM16.9039 28.4477C16.8111 27.4927 16.7029 26.5865 16.1798 25.7833C15.0614 24.0663 12.7035 24.0688 11.7732 25.8683C11.3244 26.6786 11.1018 27.5944 11.1285 28.52C11.1553 29.4457 11.4304 30.3471 11.9253 31.1302C12.1601 31.546 12.5164 31.8804 12.9464 32.0887C13.3764 32.2971 13.8598 32.3695 14.3321 32.2963C15.3629 32.1934 16.0509 31.6167 16.4813 30.6848C16.8189 29.9563 16.757 29.1686 16.9039 28.4477Z" fill="#526373"/>
<path d="M43.1927 32.8104C40.6158 32.8104 38.9073 31.0087 38.9176 28.3268C38.9176 25.8173 40.7936 23.9951 43.3293 24.0131C43.9077 24.0081 44.4812 24.1193 45.0158 24.34C45.5503 24.5608 46.035 24.8866 46.441 25.2981C46.847 25.7096 47.1661 26.1985 47.3792 26.7355C47.5923 27.2726 47.6952 27.847 47.6817 28.4246C47.6354 31.0911 45.8676 32.8181 43.1927 32.8104ZM46.0892 28.4349C46.0892 27.1892 45.8753 26.4042 45.3161 25.6037C44.2673 24.1366 42.0202 24.1366 41.1363 25.6938C40.1313 27.462 40.1674 29.3203 41.1647 31.0988C41.6801 32.0408 42.582 32.4012 43.6385 32.2905C44.1284 32.256 44.5959 32.0728 44.9787 31.7656C45.3614 31.4583 45.641 31.0416 45.78 30.5712C46.0123 29.8794 46.117 29.1512 46.0892 28.422V28.4349Z" fill="#526373"/>
<path d="M47.095 23.7704C46.4327 23.8101 45.7735 23.6524 45.201 23.3173C44.0749 22.6455 44.0517 21.5411 45.1392 20.8306C45.2574 20.7446 45.3854 20.6729 45.5205 20.6169C46.0772 20.4033 46.5822 20.272 46.0359 19.4585C45.6906 18.9436 46.1699 18.4442 46.6698 18.1714C47.0177 17.986 47.1517 17.8444 47.0332 17.3991C46.6003 15.8004 48.3036 14.001 49.9322 14.3383C50.4914 14.4541 51.0068 14.5957 51.5454 14.3048C51.6831 14.2552 51.8313 14.2419 51.9757 14.2662C52.2154 14.2816 52.4086 14.3949 52.3906 14.6678C52.3926 14.7239 52.3802 14.7796 52.3546 14.8295C52.329 14.8795 52.291 14.9221 52.2443 14.9533C52.1975 14.9846 52.1436 15.0033 52.0876 15.0078C52.0316 15.0124 51.9753 15.0025 51.9242 14.9793C51.0996 14.7218 51.03 15.0977 51.03 15.8056C51.03 17.3218 49.8291 18.3799 48.2933 18.3979C47.863 18.3979 47.2393 18.1405 47.0718 18.712C46.8915 19.3195 47.5331 19.5435 47.9454 19.8086C48.4608 20.1484 49.0432 20.4316 49.4916 20.8795C50.4064 21.7882 50.2157 22.8565 49.0483 23.3894C48.4396 23.6783 47.7678 23.8093 47.095 23.7704ZM47.3862 23.2556C47.7304 23.2004 48.0705 23.1222 48.4041 23.0213C49.0561 22.7845 49.1772 22.2825 48.7004 21.7856C48.4015 21.4767 48.0124 21.2528 47.6826 20.9696C47.1208 20.4856 46.6157 20.6864 46.1081 21.0597C45.7447 21.3171 45.3737 21.6157 45.487 22.1152C45.6288 22.7253 46.1055 23.0162 46.6905 23.1449C46.9043 23.1938 47.1208 23.2195 47.3862 23.2633V23.2556ZM50.2414 15.4195C50.2414 14.8042 49.8704 14.5751 49.3524 14.8608C48.9638 15.0851 48.627 15.3888 48.3641 15.7521C48.1012 16.1155 47.9181 16.5302 47.8269 16.9692C47.7766 17.1066 47.7694 17.2561 47.8062 17.3977C47.8431 17.5393 47.9222 17.6664 48.033 17.762C48.2907 17.9809 48.5974 17.8573 48.8422 17.7003C49.6926 17.1571 50.0482 16.2999 50.2414 15.4272V15.4195Z" fill="#526373"/>
<path d="M24.5537 10.4673C24.5334 10.5347 24.4893 10.5925 24.4295 10.6299C24.3698 10.6672 24.2986 10.6817 24.229 10.6707C23.09 10.6707 21.9493 10.6707 20.8068 10.6707C20.647 10.6707 20.4228 10.699 20.3893 10.4827C20.361 10.3051 20.5517 10.2536 20.6883 10.2253C21.4382 10.1095 21.5825 9.58948 21.5799 8.9382C21.5799 6.78101 21.5644 4.62124 21.5799 2.46404C21.5799 1.74841 21.3222 1.31594 20.6161 1.13574C20.4254 1.08941 20.1007 1.08168 20.1548 0.783073C20.1909 0.56169 20.4589 0.577136 20.6496 0.577136C21.7886 0.577136 22.9293 0.577136 24.0718 0.577136C24.2651 0.577136 24.5305 0.564264 24.5717 0.777925C24.6284 1.07911 24.314 1.09198 24.1208 1.13832C23.5178 1.28762 23.3219 1.6789 23.3271 2.26325C23.3271 4.27629 23.3271 6.28933 23.3271 8.30237C23.3374 9.81087 23.3374 9.81086 24.5537 10.4673Z" fill="#526373"/>
<path d="M5.17032 32.7965C4.07769 32.7965 2.98507 32.7965 1.89244 32.7965C1.68886 32.7965 1.39251 32.8635 1.35128 32.5751C1.31005 32.2868 1.60898 32.3383 1.77906 32.2842C2.29445 32.1323 2.44649 31.7359 2.44906 31.2751C2.46109 29.3597 2.46109 27.4443 2.44906 25.529C2.44906 24.9909 2.21456 24.5945 1.62444 24.4992C1.46982 24.4735 1.24048 24.4683 1.29459 24.2238C1.33067 24.0616 1.51878 24.0513 1.66309 24.0513C2.6346 24.0513 3.60353 24.0513 4.57504 24.0513C4.71677 24.0513 4.90489 24.0513 4.94355 24.2212C5.00282 24.4786 4.77089 24.4786 4.61885 24.5095C4.10346 24.6408 3.94884 25.0244 3.94884 25.4955C3.94884 27.4109 3.94884 29.3262 3.94884 31.2416C3.94884 31.8389 4.20654 32.1658 4.80439 32.1787C5.4847 32.1941 6.1676 32.2147 6.84276 32.1632C7.889 32.0834 8.56673 31.4707 8.99708 30.5439C9.07181 30.3843 9.09501 30.0986 9.36301 30.1912C9.59236 30.271 9.51763 30.5259 9.4867 30.7061C9.39909 31.221 9.2857 31.7513 9.19035 32.2765C9.11562 32.6961 8.83989 32.8094 8.45335 32.8043C7.35557 32.7914 6.26294 32.7965 5.17032 32.7965Z" fill="#526373"/>
<path d="M21.7616 18.2418C21.7616 19.9946 22.6816 20.7205 24.1788 20.2829C25.292 19.9612 26.3202 19.4824 26.9953 18.4811C27.0984 18.3241 27.2221 18.1053 27.4514 18.2418C27.6318 18.3473 27.5365 18.5481 27.4824 18.7051C27.2504 19.3692 27.0185 20.0332 26.7789 20.6948C26.7222 20.8492 26.6603 21.0448 26.4516 21.0371C26.2429 21.0294 26.2532 20.8518 26.2248 20.7102C26.1501 20.3292 25.9156 20.3344 25.6244 20.4528C25.0655 20.6932 24.4798 20.8661 23.8798 20.9676C21.7667 21.2842 20.2541 19.8093 20.5298 17.6961C20.8932 14.8312 23.1609 12.4349 25.9027 12.0333C26.2989 11.9643 26.7048 11.9743 27.0971 12.0626C27.4894 12.151 27.8603 12.316 28.1884 12.5481C28.3456 12.6588 28.4951 12.8544 28.7038 12.8055C29.4614 12.5996 29.3274 13.0295 29.196 13.4619C29.0646 13.8943 28.8997 14.3859 28.7476 14.8441C28.709 14.9651 28.6317 15.0758 28.4899 15.0783C28.3096 15.0783 28.2529 14.9342 28.2194 14.7901C28.1918 14.6964 28.1779 14.5993 28.1781 14.5018C28.2889 12.5095 26.2738 12.144 24.9544 12.9805C24.0016 13.619 23.2217 14.4829 22.6841 15.4953C22.1778 16.3317 21.8628 17.2696 21.7616 18.2418Z" fill="#526373"/>
<path d="M28.8396 18.6929C28.9943 16.986 29.5509 15.4749 31.1177 14.5532C32.6844 13.6316 33.9523 14.3576 34.0038 16.1597C34.0425 17.8665 33.3081 19.2489 31.9938 20.3225C31.3341 20.8605 30.5585 21.0948 29.7519 20.6906C28.9453 20.2864 28.8087 19.527 28.8396 18.6929ZM29.6127 19.1691C29.6437 19.6557 29.5689 20.0238 29.94 20.2298C30.3111 20.4357 30.6409 20.2118 30.9527 20.0264C31.0787 19.9562 31.1948 19.8697 31.298 19.769C32.3757 18.7022 33.0844 17.3195 33.321 15.8224C33.3802 15.4569 33.3416 15.0501 32.9988 14.8416C32.6561 14.6331 32.2257 14.7489 31.9191 15.0089C30.6684 16.0677 29.8497 17.5478 29.6179 19.1691H29.6127Z" fill="#526373"/>
<path d="M56.0109 14.3933C56.4438 14.3933 56.8381 14.4526 57.0417 14.8928C57.2452 15.3331 57.1318 15.7914 56.8278 16.1801C56.5204 16.5609 56.1084 16.8437 55.6424 16.9937C55.0703 17.1868 54.4879 17.3645 53.9004 17.5086C52.934 17.7507 52.5887 18.1471 52.5707 19.1075C52.5578 19.7897 52.916 20.1373 53.6015 20.1116C54.2019 20.0858 54.6322 19.7563 55.06 19.3701C55.1631 19.2722 55.2893 19.1409 55.4337 19.262C55.578 19.383 55.462 19.5194 55.3692 19.6378C54.6812 20.4102 53.8592 20.9252 52.7717 20.8608C52.4515 20.8486 52.1461 20.723 51.9101 20.5065C51.6741 20.29 51.5228 19.9967 51.4832 19.679C51.1379 17.5885 53.872 14.3805 56.0109 14.3933ZM56.1449 15.5571C56.1964 15.0422 55.8872 14.7847 55.3718 14.9907C54.573 15.3099 54.0834 15.969 53.6144 16.6564C53.4082 16.9705 53.6144 17.0426 53.8927 16.9834C54.5384 16.8785 55.1538 16.6352 55.6965 16.2702C55.8201 16.1927 55.9245 16.0882 56.0021 15.9648C56.0798 15.8413 56.1286 15.702 56.1449 15.5571Z" fill="#526373"/>
<path d="M44.4897 19.2115C44.1521 20.4009 42.2401 21.271 41.2274 20.6995C40.98 20.5649 40.7778 20.3607 40.6458 20.1121C40.5138 19.8635 40.458 19.5817 40.4852 19.3016C40.5264 17.4248 42.5235 14.9251 44.366 14.4591C45.1674 14.2506 45.8606 14.4308 46.059 14.8942C46.3167 15.4992 46.0024 16.2483 45.286 16.6628C44.4987 17.0967 43.6428 17.3928 42.7555 17.5381C41.8896 17.7029 41.3536 18.7919 41.7041 19.6131C41.9231 20.128 42.606 20.2773 43.2863 19.9452C43.4975 19.826 43.7014 19.6945 43.897 19.5513C44.0645 19.438 44.165 19.2038 44.4897 19.2115ZM42.9436 16.9846C43.6883 16.7812 44.4897 16.6602 45.0206 15.9548C45.2164 15.6974 45.3221 15.3653 45.1004 15.0795C44.8788 14.7938 44.5644 14.8993 44.299 15.028C43.5801 15.3782 43.093 15.9883 42.6498 16.6242C42.4411 16.9022 42.6111 17.0155 42.9307 16.9846H42.9436Z" fill="#526373"/>
<path d="M38.2529 19.8042C38.7915 19.7321 38.8791 19.2327 39.2837 19.1941C39.2296 19.8479 38.0725 20.9729 37.4979 20.8905C36.9232 20.8081 36.9954 20.3757 37.1629 20.0075C37.7221 18.7204 38.2993 17.4333 38.8765 16.1642C39.3223 15.1706 39.7759 14.1821 40.2268 13.191C40.3557 12.9078 40.4716 12.6375 40.0439 12.5011C39.9279 12.4651 39.7991 12.393 39.8738 12.2437C39.9073 12.1716 40.0207 12.1407 40.1006 12.0944C40.1231 12.0865 40.1476 12.0865 40.1701 12.0944C40.6185 12.151 41.1777 11.77 41.4818 12.1459C41.7859 12.5217 41.3401 12.9567 41.1726 13.3377C40.2191 15.4666 39.245 17.5955 38.2529 19.8042Z" fill="#526373"/>
<path d="M36.7453 12.3227C37.1853 12.0463 37.7136 11.9461 38.2245 12.0422C38.7399 12.0885 38.5002 12.5157 38.3843 12.7808C37.7581 14.199 37.1112 15.612 36.4721 17.0173C36.0573 17.9361 35.6475 18.8575 35.2069 19.8485C35.7223 19.815 35.8228 19.2951 36.217 19.2385C36.1732 19.8819 34.9981 21.0092 34.4338 20.9063C33.8694 20.8033 33.9493 20.3915 34.1194 20.0055C34.7275 18.6328 35.3417 17.2601 35.9619 15.8874C36.3304 15.0715 36.7067 14.2582 37.0829 13.4449C37.289 12.997 37.5493 12.5492 36.7453 12.3227Z" fill="#526373"/>
<path d="M48.927 2.45631C48.7209 2.37399 48.6152 2.32768 48.507 2.28652C48.0379 2.11159 47.7931 1.78486 47.8988 1.28063C47.9345 1.08749 48.0383 0.913526 48.1915 0.790323C48.3447 0.667119 48.5371 0.602848 48.7337 0.609181C48.9536 0.585754 49.1744 0.642347 49.3558 0.76855C49.5371 0.894752 49.6667 1.08208 49.7207 1.29607C49.8113 1.64803 49.7789 2.02029 49.629 2.35142C49.4791 2.68255 49.2206 2.95276 48.8961 3.11748C48.6977 3.20494 48.4219 3.34644 48.2957 3.15092C48.1075 2.85764 48.5044 2.86793 48.6281 2.73158C48.6899 2.65955 48.7672 2.60295 48.927 2.45631Z" fill="#526373"/>
</svg>
