<svg width="92" height="50" viewBox="0 0 92 50" fill="none" xmlns="http://www.w3.org/2000/svg">
<path d="M18.2575 4.41621L17.6263 0.804688C16.4192 1.01731 15.2458 1.33471 14.1183 1.74763L15.3653 5.19275C16.2936 4.85379 17.2617 4.59186 18.2575 4.41621Z" fill="#526373"/>
<path d="M12.6575 6.47928L10.8061 3.36426C9.73883 3.96609 8.72759 4.65563 7.7879 5.4238L10.1651 8.17894C10.943 7.54384 11.7769 6.97527 12.6575 6.47928Z" fill="#526373"/>
<path d="M4.98788 15.6245L1.54705 14.3953C1.13464 15.5067 0.817645 16.6604 0.605286 17.8534L4.21231 18.4786C4.38774 17.497 4.64934 16.5426 4.98788 15.6245Z" fill="#526373"/>
<path d="M4.19642 18.5218L0.612677 17.8696C0.407804 19.0763 0.300781 20.3208 0.300781 21.5873H3.93957C3.93957 20.5445 4.02824 19.5174 4.19642 18.5218Z" fill="#526373"/>
<path d="M7.97051 10.3763L5.18222 7.99609C4.40481 8.93695 3.70697 9.94634 3.10095 11.018L6.25346 12.8717C6.75235 11.9869 7.32776 11.1551 7.97051 10.3763Z" fill="#526373"/>
<path d="M38.3894 18.4786L41.9964 17.8534C41.7841 16.6634 41.4671 15.5067 41.0547 14.3953L37.6138 15.6245C37.9524 16.5426 38.214 17.494 38.3894 18.4786Z" fill="#526373"/>
<path d="M36.3503 12.8717L39.5008 11.018C38.8921 9.94946 38.1947 8.93695 37.4178 7.99609L34.6312 10.3763C35.2736 11.1551 35.8486 11.9869 36.3503 12.8717Z" fill="#526373"/>
<path d="M24.3049 4.4005L24.9531 0.812285C23.748 0.607157 22.5051 0.5 21.2401 0.5V4.14333C22.2848 4.14027 23.3106 4.22905 24.3049 4.4005Z" fill="#526373"/>
<path d="M30.0092 6.53352L31.8922 3.33747C30.8162 2.72619 29.6801 2.20489 28.4933 1.77979L27.2053 5.2489C28.1832 5.59953 29.1199 6.02774 30.0092 6.53352Z" fill="#526373"/>
<path d="M32.4975 8.17894L34.8747 5.42207C33.9351 4.65342 32.9269 3.96345 31.8566 3.36426L30.0052 6.48124C30.892 6.97754 31.7228 7.54646 32.4975 8.17894Z" fill="#526373"/>
<path d="M27.2053 37.9088L28.4933 41.3334C29.6769 40.9168 30.813 40.3991 31.8922 39.7957L30.0092 36.6406C29.1199 37.1399 28.1832 37.5657 27.2053 37.9088Z" fill="#526373"/>
<path d="M21.2401 38.9131V42.6133C22.5082 42.6133 23.748 42.5045 24.9531 42.2961L24.3018 38.6519C23.3106 38.8229 22.2848 38.9131 21.2401 38.9131Z" fill="#526373"/>
<path d="M6.25148 30.2415L3.10095 32.0951C3.70965 33.1637 4.40705 34.1762 5.18397 35.1171L7.97051 32.7338C7.32817 31.9581 6.75312 31.1231 6.25148 30.2415Z" fill="#526373"/>
<path d="M4.21231 24.5732L0.605286 25.2145C0.817645 26.4408 1.13464 27.633 1.54705 28.7785L4.98788 27.5116C4.64934 26.5685 4.38774 25.5849 4.21231 24.5732Z" fill="#526373"/>
<path d="M8.03345 32.679L5.23145 35.0639C6.01576 36.0086 6.87697 36.8815 7.80892 37.6765L10.1619 34.8363C9.38986 34.1785 8.67936 33.4584 8.03345 32.679Z" fill="#526373"/>
<path d="M15.3644 37.8596L14.1183 41.3047C15.245 41.7177 16.4145 42.0351 17.6237 42.2477L18.2575 38.6362C17.2594 38.4636 16.292 38.2017 15.3644 37.8596Z" fill="#526373"/>
<path d="M12.6291 36.6406L10.7705 39.7957C11.8325 40.3992 12.9539 40.9138 14.1253 41.3334L15.3966 37.9088C14.4314 37.5626 13.5068 37.1369 12.6291 36.6406Z" fill="#526373"/>
<path d="M12.4749 11.0164L10.0965 8.1792C9.32736 8.82612 8.61663 9.53773 7.97052 10.3079L10.8042 12.6892C11.3119 12.0854 11.8718 11.5247 12.4749 11.0164Z" fill="#526373"/>
<path d="M7.704 21.5869H4.01404C4.01404 22.6048 4.10306 23.6044 4.27498 24.5732L7.90968 23.9324C7.77461 23.169 7.704 22.3872 7.704 21.5869Z" fill="#526373"/>
<path d="M9.61402 14.7075L6.30423 12.8718C5.78598 13.7301 5.34722 14.6342 4.98795 15.578L8.58071 16.8333C8.8605 16.0911 9.21023 15.3794 9.61402 14.7075Z" fill="#526373"/>
<path d="M14.4835 9.74202L12.6296 6.53345C11.7566 7.03893 10.9299 7.61838 10.1618 8.26564L12.5463 11.1044C13.1478 10.5927 13.7956 10.1396 14.4835 9.74202Z" fill="#526373"/>
<path d="M34.1188 16.8333L37.614 15.5779C37.2672 14.6342 36.8369 13.7301 36.3323 12.8718L33.1096 14.7075C33.509 15.3825 33.8464 16.0941 34.1188 16.8333Z" fill="#526373"/>
<path d="M31.7988 12.6892L34.6314 10.3093C33.9848 9.53866 33.2736 8.82656 32.5039 8.1792L30.127 11.0153C30.7305 11.5239 31.2908 12.0819 31.7988 12.6892Z" fill="#526373"/>
<path d="M21.24 7.91234V4.21777C20.2234 4.21777 19.2251 4.30691 18.2574 4.47904L18.8974 8.11828C19.6568 7.98303 20.4408 7.91234 21.24 7.91234Z" fill="#526373"/>
<path d="M25.9262 8.7276L27.2053 5.2399C26.2592 4.897 25.2789 4.63751 24.2644 4.46143L23.614 8.11903C24.4137 8.25186 25.1855 8.45884 25.9262 8.7276Z" fill="#526373"/>
<path d="M28.1718 9.82472L30.0052 6.5108C29.148 5.9919 28.245 5.5526 27.3024 5.19287L26.0486 8.78693C26.7899 9.07025 27.5007 9.41724 28.1718 9.82472Z" fill="#526373"/>
<path d="M26.0486 34.3601L27.3024 37.8596C28.245 37.5093 29.148 37.0816 30.0052 36.5763L28.1718 33.3496C27.5007 33.7495 26.7899 34.0873 26.0486 34.3601Z" fill="#526373"/>
<path d="M8.58071 26.2798L4.98795 27.5351C5.34404 28.4789 5.78598 29.383 6.30423 30.2412L9.61402 28.4056C9.20705 27.7306 8.8605 27.022 8.58071 26.2798Z" fill="#526373"/>
<path d="M14.4908 33.3496L12.6575 36.5763C13.5147 37.0816 14.4176 37.5093 15.3602 37.8596L16.614 34.3601C15.8727 34.0842 15.1619 33.7433 14.4908 33.3496Z" fill="#526373"/>
<path d="M12.5432 31.9475L10.1618 34.8639C10.9299 35.5257 11.7566 36.121 12.6296 36.6403L14.4835 33.3439C13.7956 32.9355 13.1478 32.4668 12.5432 31.9475Z" fill="#526373"/>
<path d="M23.614 34.9941L24.2649 38.6517C25.2772 38.4756 26.2615 38.213 27.2053 37.8732L25.9251 34.3855C25.1838 34.6512 24.4113 34.8581 23.614 34.9941Z" fill="#526373"/>
<path d="M18.8974 34.9341L18.2574 38.6331C19.2251 38.8049 20.2234 38.8955 21.24 38.8955V35.1403C20.4408 35.1434 19.6568 35.0715 18.8974 34.9341Z" fill="#526373"/>
<path d="M17.8922 12.2394L16.6423 8.72754C15.8886 9.00646 15.169 9.35194 14.4836 9.75763L16.3135 12.9937C16.8129 12.6958 17.3433 12.4454 17.8922 12.2394Z" fill="#526373"/>
<path d="M14.9097 13.8964L12.569 11.1045C11.9638 11.6146 11.4018 12.1773 10.8923 12.7833L13.6807 15.1269C14.0543 14.6817 14.465 14.2705 14.9097 13.8964Z" fill="#526373"/>
<path d="M27.7423 13.908L30.1269 11.1646C29.5103 10.6663 28.8497 10.2166 28.1482 9.82471L26.2921 12.9267C26.808 13.2123 27.2925 13.5435 27.7423 13.908Z" fill="#526373"/>
<path d="M22.9779 11.7137L23.614 8.13831C22.8444 8.00589 22.05 7.93506 21.2401 7.93506V11.5659C21.8328 11.5628 22.4131 11.6151 22.9779 11.7137Z" fill="#526373"/>
<path d="M26.2922 30.2475L28.1482 33.3495C28.8497 32.9575 29.5104 32.5079 30.1269 32.0096L27.7424 29.2661C27.2894 29.6307 26.8049 29.9588 26.2922 30.2475Z" fill="#526373"/>
<path d="M17.8573 30.9724L16.614 34.3333C17.3482 34.5972 18.1165 34.8004 18.9032 34.9339L19.5357 31.4122C18.9587 31.3121 18.3972 31.1635 17.8573 30.9724Z" fill="#526373"/>
<path d="M13.6807 27.9863L10.8923 30.2944C11.4018 30.8912 11.9638 31.4454 12.569 31.9478L14.9097 29.1982C14.465 28.8298 14.0543 28.4248 13.6807 27.9863Z" fill="#526373"/>
<path d="M23.0662 31.4122L23.7118 34.9339C24.5181 34.7974 25.2992 34.5972 26.0488 34.3333L24.7795 30.9724C24.2283 31.1635 23.6583 31.3121 23.0662 31.4122Z" fill="#526373"/>
<path d="M11.3658 25.3045H11.6308C12.1236 25.3045 12.2961 25.041 12.2961 24.5324V20.1475L13.5344 23.1121C13.6607 23.4129 13.7069 23.6424 14.3815 23.6424C15.0468 23.6424 15.1146 23.4005 15.2409 23.1121L16.4792 20.0886V24.5293C16.4792 25.0378 16.6856 25.3014 17.1445 25.3014H17.4094C17.89 25.3014 18.0748 25.0378 18.0748 24.5293V18.6001C18.0748 18.045 17.7637 17.7473 17.2154 17.7473H16.7687C16.2974 17.7473 16.1157 17.8869 15.9093 18.3458L14.3969 21.8872L12.8968 18.3458C12.7027 17.9086 12.5302 17.7473 12.0158 17.7473H11.5445C11.0178 17.7473 10.7097 18.0481 10.7097 18.6001V24.5293C10.7036 25.0378 10.8976 25.3045 11.3658 25.3045Z" fill="#526373"/>
<path fill-rule="evenodd" clip-rule="evenodd" d="M21.2462 21.334V19.0802H22.501C23.41 19.0802 23.866 19.4735 23.866 20.2071C23.866 20.9032 23.4344 21.334 22.5347 21.334H21.2462ZM23.6395 22.311C24.8912 22.1019 25.5523 21.2903 25.5523 20.0916C25.5523 18.5589 24.5607 17.7473 22.6479 17.7473H20.4719C19.9241 17.7473 19.5966 18.0969 19.5966 18.6994V24.365C19.5966 24.9674 19.8475 25.3045 20.3036 25.3045H20.5423C21.0197 25.3045 21.2707 25.0142 21.2707 24.5273V22.5888H21.9103L23.4804 24.6084C23.8323 25.0954 24.1078 25.3045 24.5852 25.3045C25.3013 25.3045 25.6227 24.7583 25.5523 24.6771L23.6395 22.311Z" fill="#526373"/>
<path d="M29.8349 20.8729C30.1125 20.9286 30.3933 21.009 30.671 21.108C30.9518 21.2008 31.2014 21.3307 31.4229 21.5009C31.6506 21.6648 31.8378 21.8752 31.9813 22.1381C32.1248 22.3949 32.1966 22.7135 32.1966 23.0971C32.1966 23.5148 32.1186 23.8736 31.9595 24.1706C31.8097 24.4614 31.6007 24.7027 31.3355 24.8945C31.0703 25.0801 30.7583 25.2131 30.4027 25.2998C30.0439 25.3833 29.6633 25.4266 29.2546 25.4266C28.6962 25.4266 28.2251 25.3647 27.8382 25.2472C27.4607 25.1327 27.1519 25.0059 26.9147 24.8636C26.7276 24.7491 26.6059 24.6377 26.5497 24.5233C26.4998 24.4088 26.4749 24.3036 26.4749 24.2046C26.4749 24.0407 26.5185 23.8891 26.6028 23.7468C26.6683 23.6416 26.7494 23.5519 26.8492 23.4807C26.9553 23.4096 27.0707 23.3694 27.1924 23.3632C27.3141 23.3632 27.4202 23.3879 27.5137 23.4374C27.6073 23.4869 27.7134 23.5519 27.8351 23.6292C27.9287 23.6911 28.0254 23.7561 28.1252 23.821C28.2251 23.8767 28.3374 23.9293 28.459 23.9819C28.587 24.0252 28.7305 24.0623 28.8896 24.0995C29.0456 24.1273 29.2296 24.1428 29.4356 24.1428C29.8442 24.1428 30.15 24.0747 30.359 23.9417C30.5743 23.7994 30.6804 23.5797 30.6804 23.2828C30.6804 22.9858 30.5774 22.763 30.3684 22.6115C30.1625 22.463 29.8442 22.3485 29.4137 22.2712L28.8459 22.166C28.5464 22.1103 28.2563 22.0299 27.9755 21.9309C27.6978 21.8226 27.4514 21.6865 27.2361 21.5163C27.0208 21.3462 26.8492 21.1358 26.7213 20.8883C26.5934 20.6316 26.5279 20.3253 26.5279 19.9634C26.5279 19.6386 26.5872 19.3354 26.7088 19.0601C26.8368 18.7755 27.0239 18.5342 27.2673 18.3362C27.5169 18.132 27.8226 17.9711 28.1783 17.8567C28.5433 17.7422 28.9613 17.6865 29.4324 17.6865C29.7475 17.6865 30.0595 17.7175 30.3653 17.7824C30.6804 17.8474 30.958 17.934 31.2014 18.0485C31.4509 18.1629 31.6569 18.296 31.8128 18.4537C31.9688 18.6084 32.05 18.7847 32.05 18.9734C32.05 19.0879 32.0219 19.1993 31.9657 19.3137C31.9158 19.4127 31.8409 19.5024 31.7411 19.5798C31.6475 19.6509 31.5383 19.6881 31.4104 19.6973C31.295 19.6973 31.1951 19.6819 31.1109 19.654C31.0329 19.62 30.9455 19.5612 30.8519 19.4839C30.6804 19.3478 30.4807 19.2271 30.2498 19.1219C30.0283 19.0167 29.7257 18.9611 29.3388 18.9611C29.1017 18.9611 28.9021 18.9858 28.7367 19.0353C28.5807 19.0848 28.4497 19.1529 28.3499 19.2364C28.2563 19.3137 28.1876 19.4096 28.1471 19.5241C28.1128 19.6293 28.094 19.7406 28.094 19.8551C28.094 19.9819 28.1221 20.0964 28.1783 20.1954C28.2438 20.2944 28.3249 20.381 28.4247 20.4522C28.5308 20.5233 28.6525 20.5821 28.7898 20.6316C28.927 20.6811 29.0737 20.7213 29.2296 20.7491L29.8349 20.8729Z" fill="#526373"/>
<path d="M34.5096 45.2766C34.5096 43.6759 35.5746 42.5522 37.1064 42.5522C38.3484 42.5522 39.038 43.2787 39.038 43.5866C39.038 43.8698 38.7329 43.9437 38.7176 43.9191C38.388 43.3465 37.7167 43.0294 37.0912 43.0294C35.9041 43.0294 35.0711 43.9498 35.0711 45.2612C35.0711 46.5634 35.9285 47.5023 37.1064 47.5023C37.8754 47.5023 38.5406 47.1052 38.7817 46.4741C38.7908 46.4403 39.1357 46.5141 39.1357 46.7974C39.1357 47.136 38.4216 47.9764 37.085 47.9764C35.5685 47.9764 34.5096 46.8712 34.5096 45.2766Z" fill="#526373"/>
<path d="M39.5618 45.927C39.5618 44.7514 40.4064 43.8931 41.5751 43.8931C42.7376 43.8931 43.5791 44.7576 43.5791 45.9425C43.5791 47.1181 42.7376 47.9764 41.5751 47.9764C40.4033 47.9764 39.5618 47.1119 39.5618 45.927ZM43.04 45.9425C43.04 45.0375 42.4166 44.3596 41.5751 44.3596C40.7336 44.3596 40.101 45.022 40.101 45.927C40.101 46.832 40.7305 47.513 41.5751 47.513C42.4104 47.513 43.04 46.8506 43.04 45.9425Z" fill="#526373"/>
<path d="M45.8224 43.8931C46.4403 43.8931 46.9107 44.1836 47.124 44.7394C47.3874 44.2657 47.8641 43.8931 48.5165 43.8931C49.5044 43.8931 50.0313 44.4647 50.0313 45.5605V47.7175C50.0313 47.9164 49.9309 47.9764 49.7929 47.9764H49.7365C49.5954 47.9764 49.4981 47.9196 49.4981 47.7175V45.5952C49.4981 44.8089 49.1594 44.4015 48.4851 44.4015C47.999 44.4015 47.5474 44.7236 47.3153 45.1973V47.7175C47.3153 47.9164 47.2149 47.9764 47.0769 47.9764H47.0205C46.8793 47.9764 46.7821 47.9196 46.7821 47.7175V45.6363C46.7821 44.8057 46.4434 44.4015 45.7691 44.4015C45.283 44.4015 44.8314 44.7236 44.5993 45.1973V47.7175C44.5993 47.9164 44.4989 47.9764 44.3609 47.9764H44.3045C44.1633 47.9764 44.0661 47.9196 44.0661 47.7175V44.0194C44.0661 44.0036 44.1476 43.9625 44.248 43.9625C44.4299 43.9625 44.593 44.0541 44.593 44.4836V44.5847C44.8596 44.1741 45.2955 43.8931 45.8224 43.8931Z" fill="#526373"/>
<path d="M51.2935 49.2476C51.2935 49.4439 51.1965 49.5 51.0557 49.5H50.9994C50.8587 49.5 50.7617 49.4439 50.7617 49.2476V44.0177C50.7617 44.0022 50.843 43.9616 50.9431 43.9616C51.1246 43.9616 51.2872 44.052 51.2872 44.4759V44.638C51.6407 44.1642 52.1004 43.8931 52.7479 43.8931C53.7832 43.8931 54.5965 44.6941 54.5965 45.9314C54.5965 47.1594 53.7989 47.9853 52.7135 47.9853C52.016 47.9853 51.5155 47.6175 51.2935 47.2311V49.2476ZM51.2841 46.2026C51.2841 46.9475 51.9315 47.5209 52.6728 47.5209C53.5017 47.5209 54.0522 46.882 54.0522 45.9408C54.0522 45.0244 53.4767 44.3606 52.6885 44.3606C52.0066 44.3606 51.5312 44.7221 51.2841 45.2862V46.2026Z" fill="#526373"/>
<path d="M57.6656 45.4255C57.6656 44.7558 57.2764 44.3852 56.5782 44.3852C55.9542 44.3852 55.5557 44.7029 55.3456 45.1047C55.3456 45.114 55.046 45.0798 55.046 44.7932C55.046 44.516 55.5989 43.8931 56.6215 43.8931C57.6038 43.8931 58.1877 44.4662 58.1877 45.4068V47.8612C58.1877 47.8767 58.1074 47.9172 58.0085 47.9172C57.8294 47.9172 57.6749 47.8269 57.6749 47.4033V47.2569C57.3752 47.7086 56.847 47.9764 56.2322 47.9764C55.3889 47.9764 54.9008 47.5435 54.9008 46.8894C54.9008 45.983 55.7997 45.6061 57.5853 45.5656H57.6656V45.4255ZM57.6656 46.3412V45.9799L57.437 45.9892C56.1148 46.0391 55.4321 46.2758 55.4321 46.8894C55.4321 47.2818 55.7472 47.5372 56.2755 47.5372C57.0725 47.5372 57.6656 47.0389 57.6656 46.3412Z" fill="#526373"/>
<path d="M60.6736 43.8931C61.655 43.8931 62.1443 44.591 62.1443 45.6363V47.7175C62.1443 47.9164 62.0494 47.9764 61.9189 47.9764H61.8656C61.7321 47.9764 61.6402 47.9196 61.6402 47.7175V45.6679C61.6402 44.8815 61.2725 44.3984 60.6439 44.3984C60.0687 44.3984 59.6387 44.7394 59.4223 45.2352V47.7143C59.4223 47.9133 59.3274 47.9733 59.1969 47.9733H59.1436C59.0101 47.9733 58.9182 47.9164 58.9182 47.7143V44.0162C58.9182 44.0004 58.9953 43.9594 59.0902 43.9594C59.2622 43.9594 59.4164 44.051 59.4164 44.4805V44.6036C59.6684 44.1931 60.0954 43.8931 60.6736 43.8931Z" fill="#526373"/>
<path d="M63.4898 49.3551L64.1468 47.6657C63.9654 47.6657 63.8934 47.6248 63.8183 47.4577L62.3885 44.0507C62.3791 44.016 62.4604 43.8931 62.6513 43.8931C62.839 43.8931 62.9391 43.975 63.0549 44.265L64.297 47.3537L65.3733 44.2839C65.4734 43.9939 65.5954 43.8962 65.7675 43.8962C65.9146 43.8962 66.046 44.0128 66.0397 44.038L64.15 49.1439C64.0436 49.4339 63.9122 49.5 63.7714 49.5C63.6212 49.4969 63.4804 49.3803 63.4898 49.3551Z" fill="#526373"/>
<path d="M68.4806 47.7194C68.4806 47.8605 68.4002 47.9765 68.2363 47.9765H68.162C68.0074 47.9765 67.9269 47.895 67.9269 47.7194V42.9267C67.9269 42.7543 68.0661 42.6133 68.2363 42.6133H69.5849C70.813 42.6133 71.5182 43.1963 71.5182 44.2276C71.5182 45.2902 70.8346 45.8669 69.52 45.8669H68.4806V47.7194ZM69.5695 45.3717C70.4882 45.3717 70.9491 44.9767 70.9491 44.2432C70.9491 43.5035 70.4851 43.1148 69.5911 43.1148H68.4775V45.3717H69.5695Z" fill="#526373"/>
<path d="M74.5168 45.4255C74.5168 44.7558 74.1204 44.3852 73.4093 44.3852C72.7737 44.3852 72.3678 44.7029 72.1538 45.1047C72.1538 45.114 71.8486 45.0798 71.8486 44.7932C71.8486 44.516 72.4118 43.8931 73.4533 43.8931C74.4539 43.8931 75.0486 44.4662 75.0486 45.4068V47.8612C75.0486 47.8767 74.9668 47.9172 74.8661 47.9172C74.6836 47.9172 74.5263 47.8269 74.5263 47.4033V47.2569C74.221 47.7086 73.683 47.9764 73.0569 47.9764C72.1979 47.9764 71.7007 47.5435 71.7007 46.8894C71.7007 45.983 72.6164 45.6061 74.435 45.5656H74.5168V45.4255ZM74.5168 46.3412V45.9799L74.284 45.9892C72.9373 46.0391 72.2419 46.2758 72.2419 46.8894C72.2419 47.2818 72.5629 47.5372 73.1009 47.5372C73.9127 47.5372 74.5168 47.0389 74.5168 46.3412Z" fill="#526373"/>
<path d="M77.2645 43.8931C77.6389 43.8931 77.8487 44.0415 77.8487 44.3005C77.8487 44.4994 77.7131 44.6005 77.697 44.5815C77.5776 44.4805 77.4356 44.4173 77.2064 44.4173C76.4868 44.4173 76.206 45.1563 76.206 46.1669V47.7175C76.206 47.9164 76.1027 47.9764 75.9607 47.9764H75.9026C75.7574 47.9764 75.6573 47.9196 75.6573 47.7175V44.0194C75.6573 44.0036 75.7413 43.9625 75.8445 43.9625C76.0317 43.9625 76.1995 44.0541 76.1995 44.4836V44.7236C76.377 44.1741 76.7223 43.8931 77.2645 43.8931Z" fill="#526373"/>
<path d="M78.2895 44.4917C78.0886 44.4917 78.0312 44.4207 78.0312 44.282V44.2326C78.0312 44.0938 78.0886 44.0229 78.2895 44.0229H78.656V43.3506C78.656 43.1563 78.7549 43.1008 78.8983 43.1008H78.9557C79.0991 43.1008 79.1916 43.1563 79.1916 43.3506V44.0229H80.2562C80.4571 44.0229 80.5145 44.0969 80.5145 44.2326V44.282C80.5145 44.4207 80.4571 44.4917 80.2562 44.4917H79.1916V46.6874C79.1916 47.2548 79.3414 47.5231 79.7845 47.5231C80.0618 47.5231 80.2626 47.409 80.4029 47.2394C80.4188 47.224 80.5878 47.2949 80.5878 47.4985C80.5878 47.7174 80.2945 47.9765 79.7685 47.9765C78.9907 47.9765 78.656 47.5478 78.656 46.746V44.4947H78.2895V44.4917Z" fill="#526373"/>
<path d="M82.8023 43.8931C83.8023 43.8931 84.3008 44.591 84.3008 45.6363V47.7175C84.3008 47.9164 84.2041 47.9764 84.0712 47.9764H84.0168C83.8809 47.9764 83.7872 47.9196 83.7872 47.7175V45.6679C83.7872 44.8815 83.4126 44.3984 82.7721 44.3984C82.186 44.3984 81.748 44.7394 81.5274 45.2352V47.7143C81.5274 47.9133 81.4308 47.9733 81.2978 47.9733H81.2435C81.1075 47.9733 81.0139 47.9164 81.0139 47.7143V44.0162C81.0139 44.0004 81.0924 43.9594 81.1891 43.9594C81.3643 43.9594 81.5214 44.051 81.5214 44.4805V44.6036C81.7782 44.1931 82.2162 43.8931 82.8023 43.8931Z" fill="#526373"/>
<path d="M86.83 47.5037C87.6014 47.5037 87.9523 47.1772 88.1831 46.8102C88.1989 46.7853 88.4992 46.8599 88.4992 47.1119C88.4992 47.3824 87.9017 47.9764 86.83 47.9764C85.6255 47.9764 84.7877 47.143 84.7877 45.9518C84.7877 44.767 85.635 43.8931 86.7794 43.8931C87.8922 43.8931 88.6225 44.6674 88.6225 45.8523V45.9021C88.6225 46.0483 88.5656 46.0825 88.398 46.0825H85.3252C85.3694 46.9066 85.9922 47.5037 86.83 47.5037ZM88.0503 45.6253C87.9997 44.8571 87.5192 44.3596 86.7794 44.3596C86.0333 44.3596 85.4674 44.882 85.3504 45.6253H88.0503Z" fill="#526373"/>
<path d="M90.7167 43.8931C91.091 43.8931 91.3008 44.0415 91.3008 44.3005C91.3008 44.4994 91.1652 44.6005 91.1491 44.5815C91.0297 44.4805 90.8877 44.4173 90.6586 44.4173C89.9389 44.4173 89.6581 45.1563 89.6581 46.1669V47.7175C89.6581 47.9164 89.5549 47.9764 89.4129 47.9764H89.3548C89.2095 47.9764 89.1095 47.9196 89.1095 47.7175V44.0194C89.1095 44.0036 89.1934 43.9625 89.2967 43.9625C89.4839 43.9625 89.6517 44.0541 89.6517 44.4836V44.7236C89.8292 44.1741 90.1745 43.8931 90.7167 43.8931Z" fill="#526373"/>
<path d="M35.3314 37.128H35.437C35.6481 37.128 35.7319 37.024 35.7319 36.8067V31.1647L37.5046 34.977C37.6288 35.2555 37.7654 35.4207 38.1224 35.4207C38.467 35.4207 38.6161 35.2555 38.7403 34.977L40.5223 31.1647V36.8067C40.5223 37.024 40.6154 37.128 40.8172 37.128H40.9011C41.1122 37.128 41.2053 37.024 41.2053 36.8067V30.8067C41.2053 30.5466 40.9942 30.363 40.693 30.363H40.5471C40.1808 30.363 40.0877 30.5283 39.9293 30.8893L38.138 34.7843L36.3559 30.8893C36.1976 30.5283 36.1044 30.363 35.7381 30.363H35.5705C35.2662 30.363 35.0582 30.5497 35.0582 30.8067V36.8098C35.0489 37.027 35.1327 37.128 35.3314 37.128Z" fill="#526373"/>
<path fill-rule="evenodd" clip-rule="evenodd" d="M44.2251 31.9475C42.9004 31.9475 42.1835 32.7474 42.1835 33.1022C42.1835 33.4695 42.5732 33.5131 42.5732 33.5006C42.8474 32.9871 43.3617 32.5762 44.1721 32.5762C45.0761 32.5762 45.5841 33.0493 45.5841 33.9114V34.0889H45.4781C43.4428 34.1355 42.2926 34.5153 42.0464 35.3992C42.0121 35.5206 41.9965 35.6513 41.9965 35.7913C41.9965 36.6317 42.6293 37.1888 43.7233 37.1888C44.5244 37.1888 45.207 36.8433 45.5966 36.2644V36.4543C45.5966 37.0021 45.7961 37.1172 46.0267 37.1172C46.1514 37.1172 46.2574 37.0643 46.2574 37.0425V35.3992V33.8897C46.2574 32.682 45.5 31.9475 44.2251 31.9475ZM45.5841 35.091C45.5841 35.2 45.5717 35.3027 45.5529 35.4023C45.3971 36.1306 44.6927 36.6255 43.7856 36.6255C43.0999 36.6255 42.6916 36.2987 42.6916 35.7945C42.6916 35.6482 42.7228 35.5174 42.7851 35.4023C43.0532 34.9012 43.8979 34.6895 45.2911 34.6397L45.5872 34.6273V35.091H45.5841Z" fill="#526373"/>
<path d="M47.5851 32.749V35.6202C47.5851 36.6415 47.9979 37.1888 48.9582 37.1888C49.6096 37.1888 49.9705 36.8586 49.9705 36.5803C49.9705 36.3235 49.7625 36.2287 49.7441 36.2501C49.5698 36.4672 49.3221 36.6109 48.9796 36.6109C48.4322 36.6109 48.2456 36.2715 48.2456 35.5468V32.749H49.5576C49.8053 32.749 49.8787 32.6572 49.8787 32.4799V32.4187C49.8787 32.2444 49.8053 32.1496 49.5576 32.1496H48.2456V31.2935C48.2456 31.0458 48.1325 30.9724 47.9551 30.9724H47.8817C47.7074 30.9724 47.582 31.0458 47.582 31.2935V32.1496H47.1263C46.8786 32.1496 46.8052 32.2414 46.8052 32.4187V32.4799C46.8052 32.6572 46.8786 32.749 47.1263 32.749H47.5851Z" fill="#526373"/>
<path d="M50.9455 32.749V35.6202C50.9455 36.6415 51.3667 37.1888 52.3464 37.1888C53.0109 37.1888 53.3791 36.8586 53.3791 36.5803C53.3791 36.3235 53.1669 36.2287 53.1482 36.2501C52.9704 36.4672 52.7177 36.6109 52.3682 36.6109C51.8097 36.6109 51.6194 36.2715 51.6194 35.5468V32.749H52.9579C53.2106 32.749 53.2855 32.6572 53.2855 32.4799V32.4187C53.2855 32.2444 53.2106 32.1496 52.9579 32.1496H51.6194V31.2935C51.6194 31.0458 51.504 30.9724 51.323 30.9724H51.2481C51.0703 30.9724 50.9424 31.0458 50.9424 31.2935V32.1496H50.4775C50.2248 32.1496 50.153 32.2414 50.153 32.4187V32.4799C50.153 32.6572 50.2279 32.749 50.4775 32.749H50.9455Z" fill="#526373"/>
<path fill-rule="evenodd" clip-rule="evenodd" d="M54.2707 34.1676C54.4156 33.2144 55.1245 32.5437 56.0616 32.5437C56.9894 32.5437 57.5905 33.1833 57.6552 34.1676H54.2707ZM54.2399 34.7545H58.0899C58.2995 34.7545 58.3704 34.7141 58.3704 34.5247V34.4626C58.3704 32.9411 57.4549 31.9475 56.0585 31.9475C54.6221 31.9475 53.5617 33.0684 53.5617 34.5899C53.5617 36.1207 54.6128 37.1888 56.1233 37.1888C57.4672 37.1888 58.2163 36.425 58.2163 36.0772C58.2163 35.7512 57.8402 35.658 57.8217 35.6891C57.5289 36.161 57.0942 36.5802 56.1263 36.5802C55.0721 36.5802 54.2923 35.8133 54.2399 34.7545Z" fill="#526373"/>
<path d="M59.792 33.0035V32.6982C59.792 32.15 59.5744 32.0347 59.3376 32.0347C59.2096 32.0347 59.1008 32.0877 59.1008 32.1095V36.8008C59.1008 37.0531 59.2288 37.1279 59.4144 37.1279H59.4912C59.6768 37.1279 59.8048 37.0531 59.8048 36.8008V34.8321C59.8048 33.5487 60.16 32.611 61.0784 32.611C61.3696 32.611 61.5552 32.6951 61.7056 32.8228C61.728 32.8446 61.9008 32.7169 61.9008 32.4646C61.9008 32.1375 61.632 31.9475 61.1552 31.9475C60.464 31.9506 60.0192 32.3089 59.792 33.0035Z" fill="#526373"/>
<path d="M64.0433 37.1888C65.2759 37.1888 66.04 36.593 66.04 35.6682C66.04 34.6411 64.9992 34.4208 64.1817 34.2439C63.2478 34.0453 62.7698 33.8994 62.7698 33.3626C62.7698 32.8692 63.2163 32.5247 64.0433 32.5247C64.7319 32.5247 65.2413 32.8288 65.5306 33.2571C65.5526 33.2881 65.9111 33.164 65.9111 32.9002C65.9111 32.5216 65.2759 31.9475 64.0433 31.9475C62.8736 31.9475 62.1095 32.565 62.1095 33.4557C62.1095 34.4611 63.0968 34.6814 63.8829 34.849C64.8388 35.0476 65.3702 35.1748 65.3702 35.7707C65.3702 36.2734 64.9017 36.6085 64.0653 36.6085C63.2258 36.6085 62.6724 36.2641 62.3328 35.8017C62.3108 35.78 61.9617 35.8855 61.9617 36.1679C61.9617 36.5527 62.6944 37.1888 64.0433 37.1888Z" fill="#526373"/>
<path d="M35.4521 28.0473H39.5425C39.7521 28.0473 39.8662 27.944 39.8662 27.7495V27.6887C39.8662 27.5034 39.7521 27.4122 39.5425 27.4122H35.7634V24.9507H38.7411C38.9507 24.9507 39.0647 24.8595 39.0647 24.662V24.6195C39.0647 24.4341 38.9507 24.3308 38.7411 24.3308H35.7634V22.0425H39.4809C39.6874 22.0425 39.8045 21.9513 39.8045 21.7538V21.693C39.8045 21.5076 39.6905 21.4043 39.4809 21.4043H35.4521C35.2332 21.4043 35.0575 21.5775 35.0575 21.7933V27.6523C35.0575 27.8711 35.2332 28.0473 35.4521 28.0473Z" fill="#526373"/>
<path d="M42.2174 27.4911L43.7167 23.6102C43.8763 23.2033 44.0015 23.1108 44.2144 23.1108C44.4585 23.1108 44.5618 23.2773 44.5524 23.3081L42.7026 27.898C42.6274 28.0768 42.5554 28.1693 42.2049 28.1693C41.8449 28.1693 41.8136 28.0953 41.7385 27.9196L39.8667 23.3081C39.8573 23.265 39.9606 23.1108 40.2047 23.1108C40.4489 23.1108 40.5647 23.2033 40.7212 23.6102L42.2174 27.4911Z" fill="#526373"/>
<path fill-rule="evenodd" clip-rule="evenodd" d="M45.4578 21.9326C45.7858 21.9326 45.9531 21.7877 45.9531 21.4856C45.9531 21.1835 45.7958 21.0386 45.4779 21.0386C45.1499 21.0386 44.9792 21.1835 44.9792 21.4856C44.9825 21.7785 45.1499 21.9326 45.4578 21.9326ZM45.421 28.1692H45.5013C45.6921 28.1692 45.8293 28.0952 45.8293 27.8455V23.4524C45.8293 23.2027 45.6954 23.1287 45.5013 23.1287H45.421C45.2302 23.1287 45.093 23.2027 45.093 23.4524V27.8455C45.0963 28.0952 45.2302 28.1692 45.421 28.1692Z" fill="#526373"/>
<path fill-rule="evenodd" clip-rule="evenodd" d="M50.7087 26.0192C50.7087 26.9707 49.8641 27.6929 48.9463 27.6929C47.9583 27.6929 47.2356 26.8437 47.2356 25.6721C47.2356 24.4696 47.9248 23.6513 48.9646 23.6513C49.8306 23.6513 50.3947 24.1007 50.7057 24.8229V26.0192H50.7087ZM50.6996 23.9365C50.4221 23.4747 49.794 23.0563 48.9188 23.0563C47.5589 23.0563 46.5618 24.1131 46.5618 25.6845C46.5618 27.2652 47.5802 28.2911 48.8792 28.2911C49.6933 28.2911 50.2697 27.947 50.7118 27.3396V27.8851C50.7118 28.1361 50.8246 28.2105 50.9984 28.2105H51.0716C51.2454 28.2105 51.3704 28.1361 51.3704 27.8851V21.6987C51.3704 21.1533 51.1539 21.0386 50.9283 21.0386C50.8063 21.0386 50.7026 21.0913 50.7026 21.113V23.9365H50.6996Z" fill="#526373"/>
<path fill-rule="evenodd" clip-rule="evenodd" d="M52.8125 25.2686C52.9573 24.3159 53.6658 23.6456 54.6023 23.6456C55.5264 23.6456 56.1302 24.2849 56.1949 25.2686H52.8125ZM52.7817 25.8582H56.6292C56.8356 25.8582 56.9096 25.8179 56.9096 25.6286V25.5665C56.9096 24.0459 55.9947 23.0498 54.5992 23.0498C53.1637 23.0498 52.1009 24.1701 52.1009 25.6906C52.1009 27.2205 53.1513 28.2911 54.6608 28.2911C56.0039 28.2911 56.7525 27.5246 56.7525 27.1802C56.7525 26.8543 56.3766 26.7612 56.3551 26.7923C56.0655 27.2639 55.6281 27.6829 54.6608 27.6829C53.6134 27.6798 52.8341 26.9164 52.7817 25.8582Z" fill="#526373"/>
<path fill-rule="evenodd" clip-rule="evenodd" d="M58.3058 23.9462V23.7891C58.3058 23.2469 58.0962 23.133 57.8681 23.133C57.7448 23.133 57.64 23.1853 57.64 23.2069V27.8458C57.64 28.0953 57.7633 28.1692 57.942 28.1692H58.016C58.1948 28.1692 58.3181 28.0953 58.3181 27.8458V24.7347C58.611 24.1094 59.1812 23.6843 59.9519 23.6843C60.7934 23.6843 61.2835 24.2881 61.2835 25.2768V27.8458C61.2835 28.0953 61.4099 28.1692 61.5856 28.1692H61.6596C61.8353 28.1692 61.9617 28.0953 61.9617 27.8458V25.2337C61.9617 23.9215 61.3051 23.0498 59.995 23.0498C59.2213 23.0529 58.6479 23.4256 58.3058 23.9462Z" fill="#526373"/>
<path d="M65.1567 28.2911C66.6217 28.2911 67.3182 27.3601 67.3182 26.9071C67.3182 26.603 66.8872 26.5409 66.8653 26.5812C66.603 27.1988 66.1157 27.6829 65.1567 27.6829C64.0697 27.6829 63.267 26.8233 63.267 25.6596C63.267 24.4959 64.0791 23.658 65.1567 23.658C66.1157 23.658 66.603 24.139 66.8653 24.7597C66.8872 24.8 67.3182 24.7379 67.3182 24.4338C67.3182 23.9839 66.6217 23.0498 65.1567 23.0498C63.6793 23.0498 62.5704 24.1514 62.5704 25.6596C62.5736 27.1802 63.6793 28.2911 65.1567 28.2911Z" fill="#526373"/>
<path fill-rule="evenodd" clip-rule="evenodd" d="M68.4532 25.2686C68.5981 24.3159 69.3071 23.6456 70.2442 23.6456C71.172 23.6456 71.7731 24.2849 71.8378 25.2686H68.4532ZM68.4224 25.8582H72.2724C72.479 25.8582 72.5529 25.8179 72.5529 25.6286V25.5665C72.5529 24.0459 71.6374 23.0498 70.2411 23.0498C68.8046 23.0498 67.7443 24.1701 67.7443 25.6906C67.7443 27.2205 68.7954 28.2911 70.3058 28.2911C71.6498 28.2911 72.3988 27.5246 72.3988 27.1802C72.3988 26.8543 72.0258 26.7612 72.0043 26.7923C71.7114 27.2639 71.2768 27.6829 70.3089 27.6829C69.2547 27.6798 68.4748 26.9164 68.4224 25.8582Z" fill="#526373"/>
<path d="M66.4632 31.2534H66.04V30.9724H67.1965V31.2534H66.7733V32.496H66.4632V31.2534Z" fill="#526373"/>
<path d="M67.4398 30.9724H67.9125L68.2694 32.0215H68.2725L68.6106 30.9724H69.0833V32.496H68.7703V31.4158H68.764L68.3915 32.496H68.1316L67.7591 31.4283H67.7529V32.496H67.4398V30.9724Z" fill="#526373"/>
</svg>
