<svg width="170" height="31" viewBox="0 0 170 31" fill="none" xmlns="http://www.w3.org/2000/svg">
<path d="M32.1682 8.19497C32.1682 5.78048 33.4131 5.78049 33.8114 5.78049C34.3342 5.78049 34.7326 5.92983 34.9566 6.25343C35.1807 6.57702 35.4297 7.07485 35.4297 8.17008C35.4297 10.5099 34.1848 10.5099 33.7865 10.5099C33.3882 10.5099 32.1433 10.485 32.1682 8.19497ZM36.6745 12.0034C37.6703 11.2815 38.3923 10.0618 38.3923 8.19497C38.3923 5.20798 36.6994 3.44067 33.8861 3.44067C33.0396 3.44067 31.496 3.59002 30.4255 4.68525C29.33 5.83027 29.2056 7.5229 29.2056 8.19497C29.2056 10.709 30.4504 12.0283 31.994 12.5759C32.467 12.5261 32.94 12.4763 33.438 12.4017C34.4587 12.2274 35.5542 12.103 36.6745 12.0034Z" fill="#526373"/>
<path d="M11.3051 6.80112L14.915 12.4764C15.8362 12.6009 16.7823 12.6755 17.7532 12.7502V0.802246H14.7906V6.8758L10.9316 0.802246H8.34241V10.9082C9.31337 11.2567 10.3092 11.5803 11.3051 11.8292V6.80112Z" fill="#526373"/>
<path d="M25.4462 12.8744C26.94 12.3516 28.0354 11.107 28.3591 9.11572H25.3466C25.1475 9.78779 24.7989 10.4101 23.8031 10.4101C23.3549 10.435 22.9317 10.2358 22.6329 9.88736C22.3591 9.53888 22.1848 9.11572 22.1848 6.90037C22.1848 4.68502 22.384 4.26186 22.6329 3.91338C22.9068 3.54 23.33 3.31598 23.8031 3.31598C24.774 3.31598 25.1475 4.01294 25.3466 4.70991H28.3591C27.9109 2.02161 26.0686 0.627686 23.7782 0.627686C22.3591 0.627686 21.3134 1.22508 20.4171 2.09629C19.1474 3.36576 19.1972 5.08328 19.1972 6.90037C19.1972 8.71745 19.1474 10.4101 20.4171 11.7044C20.9151 12.2272 21.5375 12.6254 22.2097 12.8744C23.33 12.8744 24.4006 12.8744 25.4462 12.8744Z" fill="#526373"/>
<path d="M45.4131 11.3064C46.0604 11.3561 46.7824 11.4308 47.5044 11.5304C48.3011 10.8832 48.5252 10.1614 48.7243 8.8421H45.7119C45.5127 9.51417 45.1393 9.91243 44.1434 9.91243C43.6953 9.93733 43.272 9.76309 42.9733 9.4146C42.6994 9.06612 42.5251 8.8421 42.5251 6.62674C42.5251 4.41139 42.7243 4.01312 42.9733 3.63975C43.272 3.29127 43.6953 3.11703 44.1434 3.14192C45.1144 3.14192 45.4629 4.01312 45.6372 4.6852H48.6496C48.2513 2.04669 46.7326 0.503408 44.1434 0.503408C42.8737 0.453625 41.6538 0.951457 40.7824 1.84756C39.5127 3.11703 39.5625 4.80966 39.5625 6.62674C39.5625 8.44383 39.5127 10.1365 40.7824 11.4059C40.882 11.5055 40.9318 11.6797 41.0562 11.6548C42.326 11.5304 43.1475 11.2317 45.4131 11.3064Z" fill="#526373"/>
<path d="M54.5252 21.9351C54.6247 21.5617 54.6745 21.1634 54.7243 20.7652H54.6994C54.8737 18.3258 52.8571 18.1765 50.492 17.1061C51.3384 14.7414 47.828 13.3724 45.0396 13.4968C35.6537 13.1732 15.1889 21.1883 0.699219 8.41895C15.7615 29.7262 44.2679 9.61374 48.0521 18.973C38.3425 20.7652 36.55 32.7878 8.86523 26.8636C35.6039 38.9112 44.6911 19.3961 52.9816 21.5119C53.8779 22.1591 53.853 23.3539 53.853 23.3539C54.1517 22.9805 54.3758 22.5574 54.4505 22.0844C54.5003 22.0346 54.5003 21.9849 54.5252 21.9351Z" fill="#526373"/>
<path d="M67.4962 5.97949L69.7617 11.5054V5.97949H71.2804V14.8658H69.5377L66.824 8.41887V14.8658H65.3053V5.97949H67.4962Z" fill="#526373"/>
<path d="M72.7244 10.2112C72.7742 9.48932 73.1975 8.86704 73.8199 8.51855C74.2929 8.26964 74.8406 8.14518 75.3884 8.17007C76.0855 8.12029 76.7826 8.3692 77.2805 8.86703C77.6788 9.2653 77.7037 10.012 77.7037 10.8086V13.4222C77.7037 14.5423 77.7535 14.6668 77.8033 14.8908H76.1353C76.0357 14.5672 76.0108 14.2187 76.0357 13.8702C75.7867 14.2934 75.3635 15.0153 74.2182 15.0153C73.3468 15.0153 72.5004 14.5174 72.5004 13.2231C72.5004 11.406 73.9195 10.9081 75.8863 10.8086V10.5597C75.8863 9.98716 75.8863 9.38976 75.239 9.38976C74.6166 9.38976 74.517 9.88759 74.4423 10.4103L72.7244 10.2112ZM75.8863 11.7296C74.8406 11.854 74.3925 12.1029 74.3925 12.9741C74.3925 13.4471 74.5668 13.7956 75.0149 13.7956C75.2639 13.7956 75.4879 13.6462 75.6124 13.4471C75.8614 13.0737 75.8863 12.6506 75.8863 12.0532V11.7296Z" fill="#526373"/>
<path d="M81.0646 6.22827V8.31916H82.2846V9.76288H81.0646V12.1774C81.0646 13.4219 81.0646 13.5713 82.3593 13.4966V14.8905C81.9858 14.9652 81.6124 15.015 81.2389 15.015C80.6414 15.015 79.9692 14.8657 79.5958 14.3429C79.2721 13.87 79.2721 13.2228 79.2721 12.3765V9.73799H78.5501V8.29427H79.3468L79.4962 6.35273L81.0646 6.22827Z" fill="#526373"/>
<path d="M83.2307 7.74702V5.92993H85.073V7.74702H83.2307ZM85.073 8.31953V14.8909H83.2556V8.31953H85.073Z" fill="#526373"/>
<path d="M91.4465 11.5801C91.4465 13.6958 90.6996 15.0151 88.7577 15.0151C86.8158 15.0151 86.0938 13.7207 86.0938 11.5801C86.0938 9.53895 86.8158 8.14502 88.7826 8.14502C90.7494 8.14502 91.4465 9.53895 91.4465 11.5801ZM88.7826 9.43938C88.1851 9.43938 88.0108 9.96211 88.0108 11.5801C88.0108 13.3225 88.2598 13.7207 88.8075 13.7207C89.3552 13.7207 89.5793 13.3474 89.5793 11.5801C89.5793 9.88743 89.3552 9.43938 88.7826 9.43938Z" fill="#526373"/>
<path d="M94.2847 8.31921V9.21531C94.5585 8.6677 94.9071 8.16986 95.9278 8.16986C96.5005 8.12008 97.0482 8.39389 97.3718 8.86683C97.6457 9.28999 97.6457 9.91228 97.6457 10.5595V14.8906H95.8034V10.5595C95.8034 9.96206 95.7536 9.58869 95.1809 9.58869C94.3594 9.58869 94.3594 10.2359 94.3594 11.0324V14.8906H92.5419V8.31921H94.2847Z" fill="#526373"/>
<path d="M98.8905 10.2112C98.9403 9.48932 99.3636 8.86704 99.986 8.51855C100.459 8.26964 101.007 8.14518 101.554 8.17007C102.252 8.12029 102.949 8.3692 103.447 8.86703C103.845 9.2653 103.87 10.012 103.87 10.8086V13.4222C103.87 14.5423 103.92 14.6668 103.969 14.8908H102.276C102.177 14.5672 102.152 14.2187 102.177 13.8702C101.928 14.2934 101.505 15.0153 100.359 15.0153C99.488 15.0153 98.6416 14.5174 98.6416 13.2231C98.6416 11.406 100.061 10.9081 102.027 10.8086V10.5597C102.027 9.98716 102.027 9.38976 101.38 9.38976C100.758 9.38976 100.658 9.88759 100.583 10.4103L98.8905 10.2112ZM102.027 11.7296C100.982 11.854 100.534 12.1029 100.534 12.9741C100.534 13.4471 100.708 13.7956 101.156 13.7956C101.405 13.7956 101.629 13.6462 101.779 13.4471C102.027 13.0737 102.052 12.6506 102.052 12.0532L102.027 11.7296Z" fill="#526373"/>
<path d="M107.007 5.97949V14.8658H105.189V5.97949H107.007Z" fill="#526373"/>
<path d="M118.185 11.7543C118.036 13.5465 117.015 15.0151 115.073 15.0151C112.359 15.0151 111.737 12.4761 111.737 10.435C111.737 8.81708 112.135 5.85498 115.098 5.85498C116.442 5.85498 117.115 6.47727 117.513 7.04978C118.036 7.82142 118.11 8.74241 118.135 9.29002L116.368 9.41448C116.318 8.71751 116.243 7.42315 115.123 7.42315C114.003 7.42315 113.778 8.7673 113.778 10.5595C113.778 12.053 113.953 13.3971 115.123 13.3971C116.169 13.3971 116.318 12.1028 116.393 11.6049L118.185 11.7543Z" fill="#526373"/>
<path d="M124.36 11.5801C124.36 13.6958 123.613 15.0151 121.671 15.0151C119.729 15.0151 119.007 13.7207 119.007 11.5801C119.007 9.53895 119.729 8.14502 121.696 8.14502C123.662 8.14502 124.36 9.53895 124.36 11.5801ZM121.671 9.43938C121.073 9.43938 120.899 9.96211 120.899 11.5801C120.899 13.3225 121.148 13.7207 121.696 13.7207C122.243 13.7207 122.467 13.3474 122.467 11.5801C122.467 9.88743 122.243 9.43938 121.671 9.43938Z" fill="#526373"/>
<path d="M127.173 8.31921V9.21531C127.447 8.6677 127.795 8.16986 128.816 8.16986C129.389 8.12008 129.936 8.39389 130.26 8.86683C130.534 9.28999 130.534 9.91228 130.534 10.5595V14.8906H128.716V10.5595C128.716 9.96206 128.667 9.58869 128.094 9.58869C127.272 9.58869 127.272 10.2359 127.272 11.0324V14.8906H125.43V8.31921H127.173Z" fill="#526373"/>
<path d="M135.015 8.3194V9.76311H133.845V14.8908H132.077V9.73822H131.331V8.2945H132.077C132.102 7.17438 132.152 6.55209 132.775 6.05426C133.123 5.78045 133.497 5.6311 134.194 5.6311C134.492 5.6311 134.766 5.65599 135.065 5.70578V7.1246C134.94 7.09971 134.791 7.09971 134.667 7.09971C133.87 7.09971 133.845 7.4233 133.845 8.2945L135.015 8.3194Z" fill="#526373"/>
<path d="M137.38 11.9037C137.38 12.7998 137.355 13.7457 138.252 13.7457C139.048 13.7457 139.123 13.0487 139.198 12.6255L140.841 12.7251C140.716 13.3474 140.343 15.0151 138.227 15.0151C136.21 15.0151 135.488 13.4221 135.488 11.6796C135.488 10.908 135.637 10.1115 135.986 9.41451C136.434 8.61798 137.306 8.14504 138.202 8.16993C139.073 8.14504 139.92 8.59309 140.343 9.36473C140.816 10.2608 140.816 11.1071 140.816 11.9037H137.38ZM139.098 10.8333C139.098 10.46 139.148 9.36473 138.252 9.36473C137.43 9.36473 137.405 10.3604 137.405 10.8333H139.098Z" fill="#526373"/>
<path d="M143.505 8.31954V9.9126C143.654 9.36499 143.978 8.21997 145.048 8.21997C145.148 8.21997 145.272 8.21997 145.372 8.26975V10.062C145.272 10.0371 145.173 10.0371 145.073 10.0371C143.729 10.0371 143.729 11.5554 143.729 12.0533V14.8909H141.911V8.31954H143.505Z" fill="#526373"/>
<path d="M147.588 11.9036C147.588 12.7997 147.563 13.7456 148.459 13.7456C149.256 13.7456 149.331 13.0486 149.405 12.6254L151.048 12.725C150.924 13.3473 150.55 15.015 148.434 15.015C146.418 15.015 145.696 13.422 145.696 11.6796C145.696 10.9079 145.845 10.1114 146.194 9.41442C146.642 8.61789 147.513 8.14495 148.409 8.16984C149.306 8.12006 150.127 8.593 150.575 9.36464C151.048 10.2607 151.048 11.1071 151.048 11.9036H147.588ZM149.306 10.8332C149.306 10.4599 149.355 9.36464 148.459 9.36464C147.638 9.36464 147.613 10.3603 147.613 10.8332H149.306Z" fill="#526373"/>
<path d="M153.837 8.31921V9.21531C154.111 8.6677 154.459 8.16986 155.48 8.16986C156.053 8.12008 156.6 8.39389 156.924 8.86683C157.198 9.28999 157.198 9.91228 157.198 10.5595V14.8906H155.38V10.5595C155.38 9.96206 155.331 9.58869 154.758 9.58869C153.936 9.58869 153.936 10.2359 153.936 11.0324V14.8906H152.119V8.31921H153.837Z" fill="#526373"/>
<path d="M161.704 10.7837C161.629 9.83781 161.405 9.564 160.982 9.564C160.434 9.564 160.061 10.0121 160.061 11.5055C160.061 12.5012 160.16 13.5218 160.932 13.5218C161.505 13.5218 161.654 12.999 161.679 12.3021L163.372 12.4016C163.297 13.0737 163.098 14.9904 160.808 14.9904C158.567 14.9904 158.194 12.9742 158.194 11.5802C158.194 9.81292 158.841 8.14518 160.907 8.14518C161.579 8.0954 162.227 8.34432 162.675 8.81726C163.297 9.48933 163.347 10.1365 163.372 10.6841L161.704 10.7837Z" fill="#526373"/>
<path d="M166.061 11.9037C166.061 12.7998 166.036 13.7457 166.932 13.7457C167.729 13.7457 167.804 13.0487 167.853 12.6255L169.497 12.7251C169.372 13.3474 168.999 15.0151 166.883 15.0151C164.866 15.0151 164.144 13.4221 164.144 11.6796C164.144 10.908 164.293 10.1115 164.642 9.41451C165.09 8.61798 165.961 8.14504 166.858 8.16993C167.729 8.14504 168.575 8.59309 168.999 9.36473C169.472 10.2608 169.472 11.1071 169.472 11.9037H166.061ZM167.779 10.8333C167.779 10.46 167.829 9.36473 166.932 9.36473C166.111 9.36473 166.086 10.3604 166.086 10.8333H167.779Z" fill="#526373"/>
<path d="M70.658 23.2046C70.658 25.2955 69.9111 26.6396 67.9692 26.6396C66.0273 26.6396 65.3053 25.3452 65.3053 23.2046C65.3053 21.1635 66.0273 19.7695 67.9941 19.7695C69.9609 19.7695 70.658 21.1635 70.658 23.2046ZM67.9692 21.0639C67.3717 21.0639 67.1974 21.5866 67.1974 23.2046C67.1974 24.947 67.4464 25.3452 67.9941 25.3452C68.5418 25.3452 68.7659 24.947 68.7659 23.2046C68.7659 21.5119 68.5667 21.0639 67.9692 21.0639Z" fill="#526373"/>
<path d="M73.4962 19.9188V20.8149C73.77 20.2673 74.1186 19.7695 75.1393 19.7695C75.712 19.7197 76.2597 19.9935 76.5833 20.4664C76.8572 20.8896 76.8572 21.5119 76.8572 22.1591V26.4653H75.0398V22.184C75.0398 21.5866 74.99 21.2132 74.4173 21.2132C73.5958 21.2132 73.5958 21.8604 73.5958 22.6569V26.5151H71.7783V19.9188H73.4962Z" fill="#526373"/>
<path d="M87.7867 23.3788C87.6373 25.171 86.6415 26.6396 84.6747 26.6396C81.961 26.6396 81.3386 24.1007 81.3386 22.0596C81.3386 20.4416 81.7369 17.4795 84.6996 17.4795C86.044 17.4795 86.7162 18.1018 87.1145 18.6743C87.6373 19.4459 87.712 20.3669 87.7369 20.9145L85.9693 21.039C85.9195 20.342 85.8448 19.0477 84.7245 19.0477C83.6041 19.0477 83.3801 20.3918 83.3801 22.184C83.3801 23.6775 83.5543 25.0217 84.7245 25.0217C85.7701 25.0217 85.9195 23.7273 85.9942 23.2295L87.7867 23.3788Z" fill="#526373"/>
<path d="M88.8324 19.3713V17.5542H90.6747V19.3713H88.8324ZM90.6747 19.9189V26.4903H88.8324V19.9189H90.6747Z" fill="#526373"/>
<path d="M94.0357 17.8528V19.9188H95.2556V21.3625H94.0357V23.777C94.0357 25.0216 94.0357 25.1709 95.3303 25.0962V26.4902C94.9568 26.5648 94.5834 26.6146 94.2099 26.6146C93.6124 26.6146 92.9402 26.4653 92.5668 25.9426C92.2431 25.4696 92.2431 24.7975 92.2431 23.9761V21.3625H91.5211V19.9188H92.3427L92.4921 17.9772L94.0357 17.8528Z" fill="#526373"/>
<path d="M96.1769 19.3713V17.5542H98.0441V19.3713H96.1769ZM98.0192 19.9189V26.4903H96.2018V19.9189H98.0192Z" fill="#526373"/>
<path d="M103.247 19.9189V21.0888L100.807 25.1711H103.297V26.4654H98.9153V25.1711L101.305 21.2133H99.1394V19.9189H103.247Z" fill="#526373"/>
<path d="M105.737 23.5033C105.737 24.3994 105.712 25.3452 106.608 25.3452C107.405 25.3452 107.48 24.6483 107.554 24.2002L109.198 24.2998C109.073 24.9221 108.7 26.5898 106.583 26.5898C104.567 26.5898 103.845 24.9968 103.845 23.2544C103.845 22.4827 103.994 21.6862 104.343 20.9892C104.791 20.1927 105.662 19.7197 106.559 19.7446C107.43 19.7197 108.276 20.1678 108.7 20.9394C109.173 21.8355 109.173 22.6818 109.173 23.4784L105.737 23.5033ZM107.455 22.4578C107.455 22.1093 107.505 20.9892 106.608 20.9892C105.787 20.9892 105.762 21.9849 105.762 22.4578H107.455Z" fill="#526373"/>
<path d="M111.986 19.9188V20.8149C112.26 20.2673 112.608 19.7695 113.629 19.7695C114.202 19.7197 114.749 19.9935 115.073 20.4664C115.347 20.8896 115.347 21.5119 115.347 22.1591V26.4653H113.53V22.184C113.53 21.5866 113.48 21.2132 112.907 21.2132C112.086 21.2132 112.086 21.8604 112.086 22.6569V26.5151H110.243V19.9188H111.986Z" fill="#526373"/>
<path d="M119.654 21.8853C119.555 21.5617 119.355 20.9892 118.683 20.9892C118.384 20.9643 118.135 21.1883 118.111 21.487C118.111 21.5119 118.111 21.5368 118.111 21.5617C118.111 22.0844 118.459 22.2089 119.206 22.4578C120.127 22.7814 121.148 23.1299 121.148 24.474C121.148 25.4448 120.476 26.6147 118.658 26.6147C116.492 26.6147 116.268 25.1461 116.194 24.6483L117.638 24.3993C117.687 24.6483 117.862 25.395 118.683 25.395C118.882 25.395 119.405 25.3452 119.405 24.7727C119.405 24.25 119.007 24.1255 118.36 23.9015C117.662 23.6775 116.393 23.2543 116.393 21.8355C116.393 20.4167 117.538 19.7446 118.733 19.7446C119.804 19.6948 120.75 20.4167 120.949 21.4621L119.654 21.8853Z" fill="#526373"/>
<path d="M123.936 17.604V20.6159C124.135 20.3172 124.484 19.7696 125.555 19.7696C127.198 19.7696 127.198 21.1386 127.198 22.2587V26.4903H125.38V22.2587C125.38 21.6364 125.38 21.1884 124.758 21.1884C123.961 21.1884 123.936 21.7609 123.936 22.3085V26.4903H122.119V17.604H123.936Z" fill="#526373"/>
<path d="M128.467 19.3713V17.5542H130.31V19.3713H128.467ZM130.31 19.9189V26.4903H128.492V19.9189H130.31Z" fill="#526373"/>
<path d="M133.322 19.9187V20.9143C133.546 20.4912 133.895 19.844 134.791 19.844C135.264 19.844 135.687 20.0182 136.036 20.3418C136.683 20.989 136.882 22.0096 136.882 23.1297C136.882 24.0756 136.758 26.5896 134.667 26.5896C134.194 26.5896 133.721 26.3905 133.422 26.0171V28.7303H131.629V19.9187H133.322ZM133.422 23.8018C133.422 24.7476 133.422 25.2953 134.194 25.2953C134.965 25.2953 135.015 24.4738 135.015 23.1048C135.015 21.9349 134.965 21.0388 134.268 21.0388C133.447 21.0388 133.447 21.9847 133.447 22.5572L133.422 23.8018Z" fill="#526373"/>
</svg>
