<svg width="40" height="56" viewBox="0 0 40 56" fill="none" xmlns="http://www.w3.org/2000/svg">
<path d="M0.71152 38.7588C0.559769 38.7414 0.30296 38.8865 0.372999 38.5325C0.454711 38.4396 0.419691 38.3294 0.419691 38.2249C0.419691 25.6438 0.419691 13.0628 0.419691 0.481662C0.419691 0.406222 0.425528 0.324979 0.419691 0.249538C0.413855 0.121871 0.47222 0.0580366 0.612298 0.0638397C0.688174 0.0696428 0.769886 0.0638397 0.845761 0.0638397C13.5345 0.0638397 26.229 0.0638397 38.9177 0.0638397C38.9936 0.0638397 39.0753 0.0638397 39.1512 0.0638397C39.2504 0.0638397 39.303 0.127674 39.2738 0.21472C39.2154 0.400419 39.2913 0.574511 39.2913 0.754407C39.2854 13.1672 39.2854 25.5742 39.2854 37.9812C39.2854 38.7066 39.2854 38.7066 38.5384 38.7066C26.0539 38.7066 13.5637 38.7066 1.07922 38.7066C0.956656 38.7066 0.822415 38.666 0.71152 38.7588ZM16.7563 18.8078C16.7738 18.8252 16.7971 18.8484 16.8146 18.8658C16.8321 18.8832 16.8555 18.9065 16.873 18.9239C16.8905 18.9413 16.9139 18.9645 16.9314 18.9819C16.9722 19.0225 17.0072 19.0573 17.0481 19.098C17.1356 19.2721 17.2057 19.4636 17.4567 19.4461C17.515 19.6086 17.6376 19.6725 17.801 19.6841C17.8594 19.8524 17.9703 19.951 18.1512 19.9742C18.1512 20.1309 18.303 20.1251 18.3905 20.1889C18.4722 20.2528 18.5656 20.2702 18.6181 20.1947C18.6707 20.1193 18.7524 20.0265 18.6765 19.9162C18.2854 19.3417 18.2563 18.6569 18.0928 18.0128C17.9528 17.4673 18.0345 16.9218 18.1104 16.3763C18.157 16.0281 18.2329 15.6741 18.3672 15.3492C18.5598 14.8849 18.7932 14.4323 19.0792 14.0087C19.1259 13.9332 19.1551 13.852 19.1493 13.7591C19.4761 13.5792 19.6687 13.2891 19.7913 12.9467C19.8672 12.9119 19.908 12.8538 19.908 12.7726C20.2115 12.8306 20.1823 12.6101 20.2057 12.4302C20.4216 12.407 20.5442 12.2735 20.6084 12.0762C20.6259 12.0588 20.6493 12.0356 20.6668 12.0182C20.8944 11.9195 21.0928 11.7977 21.1921 11.554C21.6006 11.4321 21.8458 11.1942 21.9216 10.7531C21.9742 10.4456 21.8633 10.167 21.8808 9.86525C21.8983 9.48225 21.7582 9.11085 21.6765 8.73945C21.5714 8.28681 21.4956 7.82257 21.3088 7.38153C21.1279 6.96371 20.9878 6.52848 20.7893 6.11646C20.7485 6.03522 20.6726 5.97718 20.5792 6.0004C20.4975 6.02361 20.3574 6.06423 20.3691 6.12806C20.4275 6.39501 20.2232 6.55169 20.1356 6.7548C19.943 7.17842 19.7096 7.57884 19.4469 7.96764C19.2543 8.25199 18.9275 8.47251 18.9158 8.86712C18.7874 8.87873 18.6473 8.90194 18.5948 9.02961C18.3847 9.53448 17.9528 9.88266 17.6084 10.2773C17.1823 10.7763 16.803 11.316 16.3769 11.8151C16.2251 11.995 16.05 12.2445 16.0617 12.5289C16.0442 12.5463 16.0267 12.5637 16.0033 12.5869C15.6707 12.9467 15.4489 13.3587 15.4139 13.8578C15.2563 13.9448 15.2096 14.0957 15.1804 14.2582C15.0461 15.0184 14.9819 15.7786 15.157 16.5446C15.2271 16.8406 15.2679 17.1713 15.443 17.3919C15.7524 17.7749 16.0384 18.1811 16.3594 18.5641C16.4644 18.6917 16.5461 18.7556 16.7037 18.744C16.7212 18.773 16.7388 18.7904 16.7563 18.8078ZM12.589 18.3784L12.5656 18.3842L12.589 18.3784C12.5598 18.4828 12.5714 18.5583 12.7115 18.5351L12.7174 18.5467C12.6998 18.5931 12.7174 18.6105 12.764 18.5989H12.7699C12.7407 18.773 12.7874 18.8832 12.9917 18.8368H12.9858C12.9858 18.8832 13.0092 18.9007 13.05 18.8891H13.0559C13.0209 18.9645 13.0033 19.0573 13.0792 19.098C13.231 19.185 13.336 19.3243 13.4761 19.4113C13.6337 19.51 13.7913 19.6841 14.0189 19.6086L14.0131 19.6028C14.0247 19.7131 14.0481 19.8059 14.1823 19.8408C14.6026 19.951 15.0228 20.0613 15.4489 20.1773C16.0675 20.3398 16.6921 20.4269 17.3341 20.334C17.3983 20.334 17.4625 20.3398 17.5267 20.3398C17.6376 20.3166 17.6259 20.2528 17.5909 20.1715C17.5209 20.0323 17.3925 20.0903 17.2816 20.0787C17.0714 19.7827 16.8263 19.5216 16.4353 19.4752L16.4294 19.4694C16.4878 19.3533 16.4528 19.2488 16.3477 19.1966C16.05 19.0573 15.8574 18.8194 15.6765 18.5641C15.6123 18.4712 15.5598 18.4886 15.5014 18.5583L15.4897 18.5409C15.5072 18.3262 15.4605 18.1579 15.2037 18.1463L15.1979 18.1346C15.2446 18.0418 15.2679 17.9373 15.1862 17.8677C14.9586 17.653 14.9002 17.3512 14.7718 17.0843C14.4975 16.5156 14.5384 15.8889 14.515 15.2795C14.5033 14.9778 14.5325 14.6644 14.6259 14.3801C14.8127 13.7997 15.017 13.2252 15.3321 12.6914C15.4489 12.4999 15.6415 12.2851 15.5831 12.0124C15.5773 11.995 15.5831 11.9776 15.6006 11.966C15.6532 11.9544 15.7057 11.937 15.6998 11.8789C15.6707 11.4669 15.5714 11.0607 15.443 10.6661C15.3788 10.4688 15.1921 10.3237 15.1746 10.1032C15.1687 10.0103 15.1104 9.99292 15.0286 10.0277V10.0161C15.0461 9.97551 15.0286 9.9523 14.9936 9.94069C14.8185 9.70277 14.7718 9.37779 14.515 9.17468C14.4625 9.30816 14.5033 9.43582 14.4216 9.52867C14.1415 9.72598 14.1882 10.08 14.0423 10.3469C13.9139 10.5848 13.7971 10.8692 13.7854 11.1651C13.7913 11.1826 13.7854 11.2 13.7738 11.2116C13.6629 11.2058 13.5228 11.2058 13.5228 11.3334C13.5228 11.6062 13.3185 11.8209 13.3185 12.0878L13.3244 12.082C13.0325 12.0994 13.0792 12.3606 12.98 12.5289C12.7232 12.9351 12.5072 13.3645 12.2621 13.7707C11.9703 14.2466 11.9294 14.7863 11.7602 15.2853C11.6609 15.5871 11.6784 15.9411 11.7368 16.2777C11.8244 16.7651 11.9177 17.2526 12.052 17.7342C12.0812 17.8387 12.1512 17.8967 12.2679 17.8793C12.2679 17.9431 12.2504 18.0186 12.338 18.0534L12.3321 18.0476C12.3205 18.1405 12.3205 18.2275 12.4489 18.2275C12.4664 18.2449 12.4839 18.2623 12.5014 18.2739C12.5072 18.3262 12.5131 18.3842 12.589 18.3784ZM26.5559 13.3181C26.5559 13.3297 26.5442 13.3355 26.5384 13.3413C26.3808 13.2659 26.3983 13.3819 26.3925 13.4748C26.2465 13.4632 26.124 13.5212 26.0306 13.6257C25.8905 13.7881 25.7154 13.8984 25.5403 14.0145C25.4177 14.0957 25.2485 14.2002 25.2193 14.3917L25.2135 14.4091H25.196C25.0909 14.4033 24.9975 14.4265 24.8925 14.4613C24.5072 14.5774 24.2329 14.9197 23.8244 14.972C23.5675 15.0068 23.4216 15.2273 23.194 15.3085C23.1181 15.3376 23.124 15.413 23.1707 15.4768C23.1648 15.4884 23.1532 15.4942 23.1356 15.4942C22.9372 15.4072 22.7037 15.5581 22.6629 15.8076C22.4119 15.8366 22.2018 15.9063 22.1901 16.2138L22.196 16.208C22.1726 16.2312 22.1551 16.2486 22.1318 16.2719L22.1376 16.2661C21.8107 16.3125 21.3321 16.8638 21.3205 17.1945V17.1887C20.9236 17.1771 20.9995 17.4847 20.9703 17.7168V17.711C20.6901 17.74 20.7251 17.9431 20.7368 18.1288C20.4391 18.8252 20.1648 19.5332 20.0948 20.2992C20.1473 20.4385 20.2232 20.4907 20.3808 20.4443C20.5267 20.3979 20.6784 20.3572 20.836 20.3688C21.4139 20.4211 21.9742 20.3166 22.5403 20.2122C23.2991 20.0729 23.9936 19.7943 24.6473 19.3939C24.7524 19.3301 24.7991 19.2604 24.8166 19.1502C24.8691 19.1502 24.9158 19.1386 24.9275 19.0748L24.9216 19.0806C25.015 19.1038 25.0851 19.0689 25.1609 19.0167C25.803 18.6105 26.2057 18.0012 26.5909 17.3744C26.8944 16.887 27.122 16.3589 27.3088 15.825C27.5247 15.2041 27.6823 14.5658 27.7874 13.91C27.8574 13.469 27.8866 13.0337 27.8166 12.5927C27.8224 12.5521 27.8282 12.5115 27.8282 12.4708C27.8633 12.4534 27.9041 12.4418 27.9275 12.4128C28.0033 12.3084 27.9975 11.5888 27.9158 11.5017C27.8224 11.4089 27.7057 11.3799 27.6356 11.5307C27.5714 11.6584 27.5423 11.8035 27.5656 11.9486C27.2154 12.1981 27.0228 12.5869 26.766 12.9119C26.696 12.9989 26.5209 13.0744 26.6084 13.2485L26.5967 13.2601C26.5442 13.2601 26.5267 13.2717 26.5559 13.3181ZM23.5617 14.4207C23.7193 14.4671 23.836 14.4555 23.871 14.2698L23.8652 14.2756C24.017 14.2988 24.1454 14.2524 24.2854 14.2002C24.5423 14.1073 24.7465 13.9042 24.9975 13.823C25.3827 13.7011 25.4469 13.3761 25.4936 13.086C25.5812 12.5753 25.5812 12.0588 25.5286 11.5249C25.4236 10.5152 25.1376 9.5751 24.7407 8.65241C24.659 8.46671 24.4605 8.39127 24.3496 8.53054C24.1746 8.74526 23.9703 8.98318 24.0345 9.31396L24.0286 9.33137C23.9644 9.29655 23.8594 9.26753 23.8477 9.33717C23.7952 9.59831 23.4858 9.75499 23.5384 10.0568C23.1006 10.2715 22.9547 10.7299 22.657 11.0665C22.6395 11.0839 22.6687 11.1361 22.6746 11.1768L22.657 11.1593L22.6746 11.1768C22.5286 11.1303 22.4236 11.1768 22.3185 11.2928C22.1668 11.4553 22.0092 11.6178 21.8282 11.7629C21.5714 11.9718 21.2621 12.1575 21.1395 12.4999V12.4941C21.0578 12.4941 21.017 12.5289 21.0228 12.6159L21.0286 12.6101C20.8769 12.6217 20.7952 12.6972 20.801 12.8538L20.8068 12.848C20.6901 12.8132 20.6376 12.8887 20.5675 12.9641C20.1998 13.3529 19.8146 13.7359 19.5753 14.2118C19.4177 14.5193 19.1376 14.7863 19.1843 15.1809H19.1901C18.9567 15.2853 19.0092 15.5059 18.9917 15.6916V15.6857C18.8749 15.6799 18.8341 15.767 18.8224 15.8482C18.7524 16.2719 18.6415 16.6897 18.6356 17.1191C18.624 18.007 18.8049 18.8716 19.0617 19.7189C19.0967 19.835 19.1318 19.8524 19.2893 19.893C19.3068 19.8872 19.3244 19.893 19.336 19.9104C19.3477 19.922 19.3594 19.9278 19.371 19.9394C19.3769 19.922 19.3769 19.9104 19.3827 19.893C19.3886 19.864 19.4002 19.835 19.4061 19.8059C19.6454 19.6899 19.552 19.4345 19.6279 19.2546C19.7563 18.9703 19.8672 18.6743 19.8555 18.3494V18.3552C19.9664 18.3262 20.0247 18.2507 20.0656 18.1405C20.2932 17.5137 20.6668 16.974 21.0928 16.475C21.1629 16.3879 21.2271 16.3125 21.1921 16.1964L21.2037 16.208L21.1921 16.1964C21.5072 16.237 21.5656 15.9121 21.7582 15.7786C22.0033 15.6103 22.1784 15.3085 22.4761 15.2389C22.7388 15.1751 22.8088 15.0068 22.8963 14.8095C23.0423 14.8327 23.1707 14.7689 23.3107 14.7282C23.4275 14.6934 23.5325 14.647 23.4567 14.4961H23.4683C23.515 14.5077 23.5617 14.5135 23.5617 14.4207ZM21.7757 22.7423C21.7757 22.2722 21.7757 21.7964 21.7816 21.3263C21.7816 21.1871 21.764 21.1174 21.5948 21.1232C19.838 21.129 18.0812 21.129 16.3244 21.1232C16.2076 21.1232 16.1493 21.1465 16.1493 21.2799C16.1609 21.7732 16.1668 22.2606 16.1726 22.7539C16.1726 22.7713 16.1726 22.7945 16.1784 22.8003C16.1901 22.8119 16.2135 22.8119 16.231 22.8119C18.0286 22.8119 19.8263 22.8119 21.6181 22.8119C21.6882 22.8119 21.7407 22.8003 21.7757 22.7423ZM17.4041 23.5083C17.2816 23.5663 17.3341 23.6766 17.3458 23.7636C17.3808 24.2047 17.4216 24.6399 17.4625 25.0809C17.4625 25.0926 17.4625 25.1042 17.4683 25.11C17.4742 25.1564 17.4858 25.2086 17.4917 25.255C17.3925 25.609 17.4975 25.963 17.5209 26.317C17.5617 26.8219 17.6201 27.3267 17.6726 27.8316C17.7543 28.5976 17.8419 29.3578 17.9236 30.1238C17.9878 30.7331 18.017 31.3541 18.1279 31.9518C18.2621 32.712 18.2212 33.4954 18.3847 34.2556C18.4372 34.4935 18.5656 34.6618 18.8399 34.6909C19.0442 34.7141 19.3477 34.5226 19.3769 34.3311C19.4528 33.803 19.5461 33.2691 19.5987 32.741C19.7037 31.7023 19.8497 30.6751 20.0072 29.648C20.1065 29.027 20.1181 28.3887 20.194 27.7562C20.264 27.1584 20.2991 26.5491 20.4158 25.9688C20.5617 25.2202 20.5442 24.46 20.7426 23.723C20.7952 23.5141 20.5967 23.3458 20.3866 23.3981C20.3224 23.4155 20.2582 23.4561 20.194 23.4503C19.3886 23.4213 18.5831 23.5199 17.7777 23.4039C17.6376 23.3748 17.5033 23.3864 17.4041 23.5083Z" fill="#526373"/>
<path d="M0.425553 42.7164C0.466409 42.7164 0.501428 42.7164 0.542284 42.7164C0.659016 42.9311 0.828276 42.757 0.968354 42.7628C1.66291 42.7802 2.3633 42.7686 3.05785 42.7628V42.757C3.04618 42.8905 3.0345 43.0181 3.23878 42.9891L3.23295 42.9833C3.25046 43.0065 3.26797 43.0298 3.28547 43.053C3.41972 43.2271 3.55979 43.3953 3.69404 43.5694C3.67069 43.7029 3.72322 43.8074 3.80493 43.906C3.88664 44.0105 3.99754 44.1091 4.03256 44.2252C4.08509 44.4051 4.19014 44.4399 4.34773 44.4341V44.4283C4.35357 44.6256 4.66874 45.1015 4.84968 45.1653C4.86135 45.1711 4.8847 45.1479 4.89637 45.1363C4.90804 45.1421 4.91388 45.1479 4.91388 45.1595C4.90221 45.5483 4.99559 45.6702 5.28158 45.6469C5.28158 45.6992 5.28158 45.7572 5.3633 45.734L5.36913 45.7514C5.34579 45.792 5.36913 45.8152 5.40999 45.821L5.40415 45.8152C5.42166 45.8384 5.44501 45.8617 5.46252 45.8849L5.45668 45.8791C5.43917 46.146 5.56758 46.3027 5.83022 46.3491C5.84773 46.3549 5.85941 46.3665 5.85941 46.3897C5.75435 46.413 5.76602 46.4884 5.81271 46.5406C5.97614 46.7437 6.13956 46.941 6.31466 47.1325C6.34384 47.1674 6.3847 47.1325 6.41972 47.1093C6.43139 47.1151 6.43723 47.1209 6.43723 47.1325C6.39053 47.1848 6.41388 47.2312 6.43723 47.2892C6.61232 47.7186 6.9917 47.9972 7.22516 48.3802C7.4061 48.682 7.73295 48.8909 7.86135 49.2216C7.93139 49.3957 7.99559 49.3319 8.08898 49.2971C8.07147 49.4306 8.10065 49.535 8.26991 49.5292L8.26407 49.5234C8.28158 49.5466 8.30493 49.5698 8.32244 49.593V49.5872C8.32244 49.6395 8.32828 49.6917 8.39832 49.6975L8.39248 49.6917C8.41582 49.7149 8.43333 49.7381 8.45668 49.7613L8.45084 49.7555C8.46835 49.7787 8.4917 49.8019 8.50921 49.8252V49.8194C8.50337 49.9122 8.50337 49.9993 8.63178 49.9935L8.62594 49.9877C8.62594 50.2488 8.80104 50.4287 8.94695 50.6086C9.15123 50.8581 9.21544 50.8349 9.34384 50.5331C9.43723 50.3068 9.31466 50.0979 9.31466 49.8774C9.32049 47.5968 9.32049 45.3162 9.32049 43.0356C9.32049 42.9195 9.30882 42.8034 9.37886 42.699C9.41388 42.699 9.45474 42.699 9.48975 42.699C9.50143 42.7454 9.5131 42.7976 9.58314 42.786C10.231 42.7048 10.8847 42.7628 11.5326 42.7512C11.9878 42.7396 12.0053 42.7686 12.0053 43.2271C12.0053 47.208 12.0053 51.1889 12.0053 55.1698C12.0053 55.6341 11.9586 55.6747 11.4917 55.6921C11.159 55.7037 10.8147 55.6224 10.4878 55.7443C10.4119 55.7443 10.3302 55.7443 10.2543 55.7443C10.2193 55.7269 10.1901 55.6921 10.1551 55.6979C9.83995 55.7211 9.624 55.5818 9.43723 55.3323C9.33217 55.1872 9.26796 54.9493 9.01699 54.9493L9.02283 54.9551C8.99948 54.9319 8.98197 54.9087 8.95863 54.8855L8.96446 54.8913C8.96446 54.6475 8.88275 54.4618 8.60843 54.427L8.61427 54.4328C8.59676 54.4096 8.57341 54.3864 8.5559 54.3632V54.369C8.5559 54.3168 8.55007 54.2645 8.48003 54.2587L8.48586 54.2645C8.51505 54.0846 8.44501 53.9744 8.2524 53.9686H8.25824C8.22905 53.69 8.02477 53.4347 7.79715 53.3825L7.80298 53.3883C7.78547 53.365 7.76797 53.3418 7.75629 53.3186C7.74462 53.3128 7.73878 53.3012 7.74462 53.2838C7.72127 53.2606 7.69793 53.2316 7.68042 53.2084L7.68625 53.2142C7.68625 53.1677 7.69793 53.1097 7.68042 53.0749C7.49365 52.7209 7.17263 52.4656 6.99754 52.1C6.96835 52.0419 6.89832 52.1116 6.85746 52.1464L6.83995 52.129C6.90415 52.0245 6.83411 51.9433 6.78158 51.8678C6.58314 51.6009 6.37302 51.334 6.17458 51.0728C6.08119 50.9452 6.0345 50.7653 5.82439 50.7827L5.83022 50.7885C5.81271 50.7653 5.78937 50.7421 5.77186 50.7188V50.7246C5.69598 50.5331 5.8594 50.2256 5.49754 50.1617C5.46835 50.1559 5.43333 50.0863 5.4275 50.0457C5.38664 49.7961 5.1882 49.7439 4.98976 49.6917L5.00143 49.6743L4.99559 49.6917C5.01894 49.5988 4.97808 49.5582 4.8847 49.564L4.89053 49.5698C4.90804 49.4364 4.87886 49.3319 4.7096 49.3377L4.71544 49.3435C4.7096 49.2274 4.69209 49.1114 4.5345 49.1056L4.54034 49.1114C4.55785 48.9779 4.5345 48.8677 4.3594 48.8793L4.36524 48.8851C4.34773 48.8619 4.32438 48.8386 4.30688 48.8154L4.31271 48.8212C4.26602 48.682 4.37691 48.4208 4.0559 48.5021L4.04423 48.4847C4.06174 48.2873 4.03256 48.1249 3.78158 48.1249H3.78742C3.80493 47.9856 3.78158 47.8811 3.61232 47.8927C3.61816 47.7244 3.60065 47.5794 3.37302 47.5968C3.35551 47.5794 3.34384 47.5562 3.32633 47.5387C3.19793 47.4227 3.18042 47.5097 3.15123 47.62C3.09287 47.8231 3.15707 48.0204 3.15707 48.2177C3.15123 50.5447 3.15123 52.8776 3.15123 55.2046C3.15123 55.2743 3.15707 55.3381 3.15123 55.4077C3.13372 55.605 3.04618 55.7211 2.81855 55.7153C2.38081 55.7037 1.94306 55.7095 1.50532 55.7153C1.41193 55.7153 1.30688 55.6863 1.231 55.7675C1.03839 55.7675 0.839949 55.7675 0.647342 55.7617C0.530611 55.6166 0.413879 55.518 0.413879 55.3323C0.425553 51.1251 0.425553 46.9236 0.425553 42.7164Z" fill="#526373"/>
<path d="M39.2855 51.0091C39.2855 51.0497 39.2797 51.0845 39.2797 51.1252C39.0579 51.3979 39.1046 51.7171 39.1163 52.0304V52.0479C38.9178 52.309 38.7544 52.5875 38.8303 52.9357H38.8361C38.6027 52.988 38.6552 53.1736 38.6494 53.3361L38.6552 53.3303C38.5968 53.3535 38.5852 53.4 38.591 53.4522L38.5968 53.4464C38.4626 53.4464 38.4684 53.5334 38.4801 53.6263H38.4859C38.2933 53.6379 38.305 53.783 38.305 53.9164L38.3108 53.9106C38.2875 53.9339 38.27 53.9629 38.2466 53.9861C37.7855 54.607 37.2544 55.1351 36.4782 55.3556C36.3964 55.3672 36.3381 55.402 36.3206 55.4833L36.3264 55.4775C36.0171 55.4252 35.7778 55.6574 35.4976 55.6806C34.7914 55.7386 34.1085 55.9475 33.3848 55.8837C32.7311 55.8199 32.089 55.7792 31.447 55.6051C31.2427 55.5529 31.1435 55.344 30.9276 55.3556C30.77 55.3614 30.6591 55.2686 30.5248 55.2221C30.2213 55.1177 30.0462 54.7927 29.7019 54.7869L29.7077 54.7927C29.696 54.7521 29.6727 54.7347 29.6377 54.7347V54.7405C29.6727 54.6302 29.6494 54.52 29.5326 54.4909C29.4567 54.4735 29.4217 54.2414 29.305 54.4329C29.2875 54.4155 29.27 54.3923 29.2466 54.3749C29.2291 54.3517 29.2116 54.3285 29.1883 54.3111C29.1649 54.0325 29.0015 53.8642 28.768 53.7365L28.7739 53.7424C28.7855 53.6495 28.7855 53.5683 28.6571 53.5567V53.5392C28.6571 53.4928 28.6338 53.4638 28.5929 53.4464L28.5988 53.4522C28.628 53.2607 28.5404 53.0982 28.4645 52.9299C28.2836 52.5179 28.161 52.0885 28.0735 51.6416C27.9976 51.2586 28.0793 50.8524 27.9159 50.481C27.9159 50.4404 27.9159 50.4056 27.9159 50.365C28.0034 50.2663 27.9626 50.1444 27.9626 50.0342C27.9626 47.742 27.9626 45.4498 27.9626 43.1575C27.9626 42.8152 28.0093 42.7687 28.3478 42.7629C28.949 42.7629 29.556 42.7629 30.1571 42.7629C30.6124 42.7629 30.6474 42.7978 30.6474 43.262C30.6474 45.5078 30.6532 47.7478 30.6416 49.9936C30.6416 50.4114 30.7233 50.8176 30.7116 51.2354C30.7058 51.4908 30.8575 51.7055 31.0501 51.8796C31.0618 51.8912 31.0618 51.9028 31.056 51.9202C31.0501 51.9782 31.056 52.0304 31.1202 52.0537L31.1143 52.0479C31.1552 52.367 31.3303 52.5933 31.5871 52.634C31.6046 52.6514 31.6221 52.6688 31.6338 52.6862C31.5579 52.8603 31.698 52.9125 31.8089 52.988C32.3459 53.3535 32.9704 53.4348 33.5949 53.4406C33.9918 53.4406 34.4178 53.4522 34.7855 53.2201C34.8906 53.162 35.0015 53.0982 35.1066 53.0402C35.4159 53.0924 35.7311 52.8487 35.7252 52.5585L35.7427 52.5353C35.9353 52.6049 35.8828 52.4831 35.8595 52.3844V52.3786C35.9412 52.3902 35.947 52.338 35.9412 52.28L35.9353 52.2858C36.2213 52.2103 36.2155 51.9782 36.2155 51.7519V51.7461C36.4198 51.7055 36.4665 51.5546 36.4723 51.3747C36.4782 51.1368 36.4665 50.8988 36.5248 50.6609C36.5482 50.5507 36.5832 50.4114 36.4723 50.3127C36.4723 50.2141 36.4782 50.1212 36.4782 50.0226C36.5774 49.9297 36.5365 49.8021 36.5365 49.6918C36.5424 48.2643 36.5365 46.8309 36.5365 45.4033C36.5365 44.6373 36.5365 43.8771 36.5365 43.1111C36.5365 42.908 36.5949 42.7687 36.8283 42.7687C37.5871 42.7687 38.3459 42.7687 39.1046 42.7687C39.1922 42.7687 39.2739 42.7629 39.2739 42.9022C39.268 43.2446 39.2855 43.587 39.2855 43.9294C39.2855 45.6122 39.2855 47.2893 39.2855 48.9722C39.2855 49.4771 39.2739 49.9762 39.2914 50.481C39.2972 50.6609 39.1338 50.835 39.2855 51.0091Z" fill="#526373"/>
<path d="M22.1783 44.5445C22.1725 44.5329 22.1725 44.5213 22.19 44.5155C22.4643 44.5155 22.4234 44.324 22.4118 44.1557L22.4059 44.1615C22.6861 43.9816 22.8378 43.7205 22.8787 43.3955C22.8729 43.3781 22.8787 43.3665 22.8904 43.3607C22.9079 43.3375 22.9196 43.3143 22.9371 43.2911C22.9604 43.2563 22.9779 43.2214 23.0013 43.1924C23.1472 43.204 23.2289 43.117 23.2989 43.0009C23.369 42.8849 23.4565 42.7804 23.6141 42.7804C24.402 42.7804 25.19 42.7746 25.9779 42.7862C26.2172 42.7862 26.2873 42.9487 26.153 43.146C26.0188 43.3491 25.8378 43.5232 25.7503 43.7437C25.6452 43.999 25.3476 44.1557 25.4001 44.4749H25.4059C25.2659 44.4633 25.2717 44.5561 25.2834 44.649L25.2892 44.6432C25.0266 44.6954 25.0149 44.9043 24.9915 45.1074L24.9974 45.1016C24.9624 45.1132 24.939 45.1365 24.939 45.1713L24.9448 45.1655C24.7114 45.2061 24.7114 45.3918 24.6997 45.5659L24.7056 45.5601C24.3729 45.7342 24.2386 46.0301 24.1803 46.3783L24.1861 46.3725C24.0519 46.3725 24.0577 46.4596 24.0694 46.5524L24.0752 46.5466C24.011 46.5582 23.9993 46.6104 24.0052 46.6627V46.6569C23.8242 46.6627 23.8184 46.7787 23.8301 46.9122C23.8359 46.9238 23.8359 46.9354 23.8184 46.9412C23.8009 46.9644 23.7834 46.9876 23.7717 47.0108L23.7775 47.005C23.7425 47.0166 23.7192 47.0399 23.7192 47.0747L23.725 47.0689C23.655 47.0805 23.6491 47.1269 23.655 47.1849L23.6608 47.1791C23.6375 47.2023 23.6141 47.2198 23.5908 47.243C23.5908 47.2604 23.5908 47.272 23.5791 47.2836C23.4157 47.3184 23.3398 47.4171 23.3573 47.5854L23.3631 47.5795C23.1413 47.8001 22.867 47.9626 22.7912 48.3107C22.7561 48.4616 22.6452 48.6067 22.5227 48.7344C22.3884 48.8736 22.2775 49.0477 22.3067 49.2682L22.3126 49.2624C22.2834 49.2624 22.2425 49.2566 22.2308 49.274C21.869 49.6919 21.5129 50.1213 21.3845 50.6726C21.3437 50.8583 21.4254 51.0672 21.4254 51.2703C21.4312 52.5644 21.4254 53.8527 21.4312 55.1468C21.4312 55.3615 21.4196 55.5646 21.3087 55.7561C21.2911 55.7561 21.2678 55.7561 21.2503 55.7561C21.1569 55.669 21.046 55.7097 20.9468 55.7097C20.3281 55.7039 19.7036 55.7097 19.0849 55.7097C18.7289 55.7097 18.688 55.6632 18.688 55.3035C18.688 54.0384 18.688 52.7791 18.688 51.514C18.688 51.2935 18.688 51.0788 18.7347 50.8525C18.7873 50.6088 18.7231 50.394 18.4371 50.3128C18.4195 50.2954 18.4079 50.278 18.3904 50.2606C18.3437 50.0226 18.3612 49.7441 18.0343 49.6745L18.0402 49.6803C18.0402 49.5468 18.0518 49.4075 17.8592 49.3901C17.8592 49.3901 17.8592 49.3901 17.8651 49.3901C17.8709 49.3321 17.8651 49.2857 17.795 49.274L17.8009 49.2799C17.8009 49.0651 17.8417 48.8156 17.4974 48.833L17.4915 48.8214C17.509 48.5719 17.2639 48.1947 17.048 48.1134L17.0538 48.1192C17.0596 48.0322 17.0713 47.9509 17.0188 47.8697C16.8262 47.5621 16.6511 47.243 16.4409 46.9586C16.3592 46.8484 16.3184 46.6569 16.1199 46.6685L16.1258 46.6743C16.1316 46.2971 15.9623 46.0243 15.653 45.9199L15.6588 45.9257C15.6647 45.8676 15.6588 45.8154 15.5771 45.8212C15.583 45.8154 15.5888 45.8096 15.5888 45.8096C15.583 45.8154 15.5771 45.8212 15.5771 45.8212C15.6063 45.6877 15.5771 45.5891 15.4195 45.5717L15.4254 45.5775C15.4195 45.4092 15.4079 45.2525 15.1919 45.2235V45.2293C15.1919 45.1771 15.1861 45.1248 15.1219 45.1132L15.1277 45.119C15.1102 45.0958 15.0985 45.0668 15.081 45.0436L15.0694 45.032L15.0752 45.0146C15.0518 44.9856 15.0343 44.9566 15.011 44.9275L15.0168 44.9333C14.9468 44.8405 15.2328 44.5329 14.8359 44.6432H14.8417C14.8592 44.2718 14.5382 44.0571 14.4273 43.7379C14.4098 43.6799 14.3048 43.7031 14.2406 43.7263V43.7205C14.3164 43.4478 14.1005 43.3085 13.9837 43.117C13.9312 43.0299 13.832 42.9371 13.8845 42.8326C13.9371 42.7224 14.0596 42.7746 14.1472 42.7746C14.9818 42.7804 15.8106 42.7862 16.6452 42.792C16.6919 42.792 16.7094 42.7572 16.7153 42.7224C16.7328 42.7166 16.7561 42.7166 16.7736 42.7224C17.118 43.146 17.3573 43.6276 17.6141 44.1035C17.6841 44.2312 17.7542 44.4285 17.9643 44.4343H17.9585C17.9585 44.4749 17.976 44.4981 18.011 44.5097L18.0052 44.5039C17.9818 44.6258 18.011 44.7302 18.0694 44.8347C18.1978 45.0552 18.3145 45.2931 18.4487 45.502C18.5538 45.6587 18.5946 45.9431 18.8806 45.9547L18.8748 45.9489C18.8923 45.9721 18.9098 45.9953 18.9273 46.0185C18.939 46.0243 18.9448 46.0359 18.939 46.0533C18.9332 46.1462 18.9157 46.2448 19.0557 46.2448L19.0499 46.239C19.0441 46.2913 19.0557 46.3435 19.1199 46.3551L19.1141 46.3493C19.0674 46.6046 19.2659 46.7729 19.3651 46.976C19.5168 47.2894 19.6861 47.6028 19.9896 47.8117L19.9838 47.8059C20.0013 47.8291 20.0188 47.8523 20.0363 47.8755C20.0421 47.9219 20.0538 47.98 20.118 47.9684C20.1939 47.9509 20.2114 47.8813 20.2055 47.8059L20.1997 47.8117C20.2581 47.7943 20.2697 47.7478 20.2697 47.6956C20.6783 47.5854 20.6783 47.5854 20.6141 47.1385L20.6199 47.1211C20.7425 47.1095 20.7483 47.0283 20.7308 46.9354L20.725 46.9412C20.8709 46.9412 20.8534 46.8426 20.8476 46.7497C20.8476 46.7091 20.8534 46.6743 20.9001 46.6569C21.1569 46.6801 21.081 46.4944 21.081 46.3609L21.0752 46.3667C21.0985 46.3377 21.1161 46.3087 21.1394 46.2739L21.1452 46.2564C21.1627 46.2332 21.1803 46.2042 21.1919 46.181L21.1861 46.1868C21.5246 46.0766 21.5538 45.7806 21.6063 45.4962L21.6005 45.502C21.6355 45.4904 21.653 45.4614 21.6413 45.4266V45.444V45.4266C21.7231 45.4324 21.7231 45.3802 21.7172 45.3221L21.7114 45.328C21.7522 45.3105 21.7756 45.2815 21.7756 45.2351V45.2177C22.0499 45.0726 22.1258 44.8115 22.1783 44.5445Z" fill="#526373"/>
<path d="M0.7115 38.7588C0.822395 38.666 0.956636 38.7124 1.0792 38.7124C13.5636 38.7124 26.0539 38.7124 38.5383 38.7124C39.2854 38.7124 39.2854 38.7124 39.2854 37.987C39.2854 25.58 39.2854 13.173 39.2913 0.766007C39.2913 0.586112 39.2154 0.406216 39.2738 0.22632C39.3029 0.139274 39.2504 0.0754401 39.1512 0.0754401C39.0753 0.0754401 38.9936 0.0754401 38.9177 0.0754401C26.229 0.0754401 13.5345 0.0754401 0.845741 0.0754401C0.769866 0.0754401 0.688154 0.0812432 0.612278 0.0754401C0.4722 0.0580309 0.413835 0.121865 0.419671 0.255336C0.425508 0.330776 0.419671 0.412019 0.419671 0.487459C0.419671 13.0685 0.419671 25.6496 0.419671 38.2307C0.419671 38.3352 0.454691 38.4454 0.372978 38.5383C0.367142 37.2732 0.361305 36.0081 0.361305 34.7373C0.361305 23.2762 0.361305 11.8209 0.355469 0.359791C0.355469 0.069637 0.419671 0 0.717336 0C13.4761 0.00580309 26.2348 0.00580309 38.9936 0C39.2913 0 39.3555 0.069637 39.3555 0.359791C39.3438 13.0627 39.3438 25.7715 39.3496 38.4745C39.3496 38.6776 39.3321 38.7704 39.0812 38.7704C26.3457 38.7646 13.6162 38.7646 0.886597 38.7646C0.828231 38.7646 0.769866 38.7588 0.7115 38.7588Z" fill="#526373"/>
<path d="M31.0558 51.8796C30.8632 51.7055 30.7114 51.4966 30.7173 51.2355C30.7231 50.8177 30.6472 50.4114 30.6472 49.9936C30.6531 47.7478 30.6531 45.5078 30.6531 43.262C30.6531 42.7978 30.6181 42.763 30.1628 42.763C29.5616 42.763 28.9546 42.763 28.3534 42.763C28.0149 42.763 27.9682 42.8152 27.9682 43.1576C27.9682 45.4498 27.9682 47.742 27.9682 50.0342C27.9682 50.1445 28.0091 50.2664 27.9215 50.365C27.9099 49.4191 27.8982 48.4732 27.8865 47.5273C27.8748 46.0475 27.8632 44.5735 27.8515 43.0937C27.8515 42.7107 27.8515 42.7107 28.2309 42.7049C28.9605 42.7049 29.69 42.7165 30.4196 42.6991C30.6589 42.6933 30.7231 42.7513 30.7231 42.9951C30.7289 45.2931 30.7581 47.5969 30.7581 49.895C30.7523 50.5797 30.8282 51.2413 31.0558 51.8796Z" fill="#526373"/>
<path d="M39.2855 51.0093C39.1337 50.8352 39.2971 50.6611 39.2913 50.4812C39.2738 49.9822 39.2855 49.4773 39.2855 48.9724C39.2855 47.2896 39.2855 45.6125 39.2855 43.9296C39.2855 43.5872 39.2679 43.2448 39.2738 42.9024C39.2738 42.7632 39.1979 42.769 39.1045 42.769C38.3458 42.769 37.587 42.769 36.8283 42.769C36.5948 42.769 36.5364 42.9082 36.5364 43.1113C36.5423 43.8773 36.5364 44.6375 36.5364 45.4036C36.5364 46.8311 36.5364 48.2645 36.5364 49.692C36.5364 49.8023 36.5831 49.9242 36.4781 50.0228C36.4722 48.9144 36.4722 47.8002 36.4722 46.6918C36.4722 45.4442 36.4781 44.2023 36.4781 42.9547C36.4781 42.7806 36.4956 42.6993 36.7057 42.7051C37.5111 42.7167 38.3166 42.7167 39.122 42.7051C39.3088 42.7051 39.3438 42.7573 39.3438 42.9314C39.338 45.479 39.338 48.0323 39.338 50.5799C39.3438 50.725 39.3322 50.8701 39.2855 51.0093Z" fill="#526373"/>
<path d="M10.4586 55.7615C10.7854 55.6397 11.1298 55.7209 11.4625 55.7093C11.9294 55.6919 11.9761 55.6571 11.9761 55.187C11.9761 51.2061 11.9761 47.2252 11.9761 43.2443C11.9761 42.7858 11.9586 42.7568 11.5033 42.7684C10.8555 42.78 10.2018 42.722 9.5539 42.8032C9.48969 42.809 9.47802 42.7626 9.46051 42.7162C10.2543 42.6698 11.0539 42.7046 11.8477 42.6988C12.0811 42.6988 12.0286 42.838 12.0286 42.9599C12.0286 46.3663 12.0344 49.7785 12.0344 53.185C12.0344 53.9684 12.0228 54.7518 12.0344 55.5294C12.0344 55.7267 11.9761 55.7731 11.7893 55.7673C11.3516 55.7615 10.9021 55.7673 10.4586 55.7615Z" fill="#526373"/>
<path d="M29.7017 54.7874C30.0519 54.7932 30.227 55.1181 30.5246 55.2226C30.6589 55.269 30.7698 55.3619 30.9273 55.3561C31.1375 55.3445 31.2425 55.5534 31.4468 55.6056C32.083 55.7739 32.7309 55.8203 33.3846 55.8841C34.1025 55.9538 34.7912 55.7391 35.4974 55.681C35.7717 55.6578 36.0169 55.4257 36.3262 55.4779C35.8067 55.7333 35.2523 55.8551 34.6861 55.9248C33.6472 56.0582 32.6083 56.0234 31.5986 55.7507C30.8923 55.5708 30.2328 55.298 29.7017 54.7874Z" fill="#526373"/>
<path d="M9.34966 42.7165C9.27962 42.8209 9.29129 42.937 9.29129 43.053C9.29129 45.3336 9.29713 47.6143 9.28545 49.8949C9.28545 50.1154 9.40802 50.3243 9.31464 50.5506C9.19207 50.8524 9.12203 50.8756 8.91775 50.6261C8.77184 50.4462 8.59674 50.2663 8.59674 50.0051C8.77767 50.2199 8.95861 50.4404 9.14538 50.6551C9.16872 50.6493 9.18623 50.6435 9.20958 50.6377C9.20958 50.2605 9.20958 49.8775 9.20958 49.5003C9.21541 47.3183 9.22125 45.1421 9.23876 42.9602C9.23876 42.8847 9.12787 42.7106 9.34966 42.7165Z" fill="#526373"/>
<path d="M0.425508 42.7168C0.425508 46.9182 0.425508 51.1255 0.413835 55.3269C0.413835 55.5184 0.530566 55.6171 0.594768 55.7563C0.437181 55.7912 0.355469 55.7679 0.355469 55.5648C0.367142 51.3402 0.361305 47.1097 0.367142 42.8851C0.367142 42.8271 0.320449 42.74 0.425508 42.7168Z" fill="#526373"/>
<path d="M1.17841 55.7621C1.26012 55.6808 1.35934 55.7098 1.45272 55.7098C1.89047 55.704 2.32821 55.6982 2.76595 55.7098C2.99358 55.7156 3.08113 55.5996 3.09864 55.4023C3.10448 55.3326 3.09864 55.2688 3.09864 55.1992C3.09864 52.8721 3.09864 50.5393 3.10448 48.2123C3.10448 48.015 3.04027 47.8176 3.09864 47.6145C3.13366 47.5043 3.14533 47.4172 3.27374 47.5333C3.12782 47.5739 3.19202 47.69 3.19202 47.7712C3.18035 50.342 3.16868 52.9069 3.16868 55.4777C3.16868 55.7214 3.10448 55.7853 2.86518 55.7737C2.30486 55.7562 1.74455 55.7621 1.17841 55.7621Z" fill="#526373"/>
<path d="M21.3088 55.7558C21.4197 55.5643 21.4313 55.3612 21.4313 55.1465C21.4255 53.8524 21.4313 52.5642 21.4255 51.2701C21.4255 51.0728 21.3438 50.8581 21.3847 50.6724C21.5072 50.1211 21.8691 49.6974 22.231 49.2738C22.2427 49.2564 22.2894 49.268 22.3127 49.2622C22.0909 49.622 21.8749 49.9876 21.6473 50.3416C21.5598 50.475 21.5189 50.6143 21.5189 50.771C21.5131 52.3552 21.5014 53.9395 21.4839 55.5179C21.4839 55.6514 21.5364 55.8139 21.3088 55.7558Z" fill="#526373"/>
<path d="M25.406 44.4632C25.3534 44.1441 25.6511 43.9816 25.7562 43.732C25.8437 43.5173 26.0246 43.3374 26.1589 43.1343C26.2931 42.9312 26.2231 42.7745 25.9838 42.7745C25.1958 42.7629 24.4079 42.7687 23.62 42.7687C23.4624 42.7687 23.3748 42.8732 23.3048 42.9892C23.2348 43.1053 23.1531 43.1865 23.0071 43.1807C23.118 42.8268 23.334 42.6875 23.7309 42.6933C24.6472 42.7049 25.5694 42.6875 26.5499 42.7165C26.153 43.32 25.7795 43.8945 25.406 44.4632Z" fill="#526373"/>
<path d="M18.4372 50.3127C18.7232 50.394 18.7874 50.6145 18.7349 50.8524C18.6882 51.0729 18.6882 51.2935 18.6882 51.514C18.6882 52.7791 18.6882 54.0383 18.6882 55.3034C18.6882 55.6632 18.7349 55.7096 19.0851 55.7096C19.7037 55.7096 20.3282 55.7096 20.9469 55.7096C21.052 55.7096 21.1629 55.6748 21.2504 55.756C20.4333 55.7618 19.622 55.756 18.8049 55.7676C18.6006 55.7734 18.624 55.6632 18.624 55.5355C18.6181 54.0035 18.6065 52.4657 18.6181 50.9337C18.6181 50.7016 18.5539 50.5042 18.4372 50.3127Z" fill="#526373"/>
<path d="M8.07732 49.3205C7.98394 49.3554 7.91973 49.4192 7.8497 49.2451C7.71545 48.9143 7.39444 48.7112 7.21351 48.4037C6.98005 48.0149 6.60067 47.7363 6.42557 47.3127C6.40222 47.2547 6.38471 47.2082 6.42557 47.156C6.99755 47.8582 7.54036 48.5836 8.07732 49.3205Z" fill="#526373"/>
<path d="M34.797 53.2087C34.4293 53.4408 34.0033 53.4292 33.6064 53.4292C32.9877 53.4292 32.3632 53.348 31.8204 52.9766C31.7095 52.9011 31.5752 52.8489 31.6453 52.6748C32.5033 53.3944 33.4896 53.435 34.5286 53.2435C34.6161 53.2261 34.6978 53.1565 34.797 53.2087Z" fill="#526373"/>
<path d="M16.7037 42.7168C16.6979 42.7574 16.6804 42.7864 16.6337 42.7864C15.7991 42.7806 14.9703 42.769 14.1356 42.769C14.0481 42.769 13.9197 42.7168 13.873 42.827C13.8205 42.9373 13.9138 43.0301 13.9722 43.1114C14.0948 43.2971 14.3049 43.4422 14.229 43.7149C14.0189 43.3957 13.8088 43.0765 13.5753 42.7168C14.6492 42.6935 15.6765 42.6761 16.7037 42.7168Z" fill="#526373"/>
<path d="M27.9157 50.4871C28.0792 50.8585 27.9975 51.2589 28.0733 51.6477C28.1609 52.0945 28.2893 52.5181 28.4644 52.936C28.5344 53.1043 28.6278 53.2667 28.5986 53.4582C28.2426 52.8663 28.0792 52.2164 27.9624 51.5432C27.8982 51.195 27.8924 50.841 27.9157 50.4871Z" fill="#526373"/>
<path d="M17.9527 44.4287C17.7426 44.4228 17.6726 44.2255 17.6026 44.0979C17.3399 43.622 17.1064 43.1404 16.7621 42.7167C16.8613 42.6993 16.943 42.6993 17.0072 42.8096C17.3166 43.3551 17.6376 43.889 17.9527 44.4287Z" fill="#526373"/>
<path d="M22.3126 49.28C22.2835 49.0653 22.3885 48.8854 22.5286 48.7461C22.6512 48.6185 22.7679 48.4734 22.7971 48.3225C22.8729 47.9743 23.1473 47.8118 23.3691 47.5913C23.3282 47.8583 23.1239 48.0381 22.9955 48.2587C22.7854 48.6069 22.5403 48.9376 22.3126 49.28Z" fill="#526373"/>
<path d="M18.8691 45.9544C18.5831 45.9428 18.5422 45.6585 18.4372 45.5018C18.3029 45.2929 18.1862 45.055 18.0578 44.8344C17.9994 44.73 17.9644 44.6197 17.9936 44.5037C18.3146 44.9679 18.6006 45.4554 18.8691 45.9544Z" fill="#526373"/>
<path d="M16.1084 46.6627C16.3068 46.6569 16.3477 46.8484 16.4294 46.9529C16.6454 47.243 16.8146 47.5622 17.0072 47.864C17.0598 47.9452 17.0481 48.0264 17.0423 48.1135C16.7096 47.6434 16.4002 47.1618 16.1084 46.6627Z" fill="#526373"/>
<path d="M5.77771 50.7831C5.99366 50.7657 6.03452 50.9514 6.12791 51.0733C6.33219 51.3402 6.53647 51.6013 6.73491 51.8683C6.78744 51.9437 6.85748 52.025 6.79328 52.1294C6.46059 51.6826 6.12207 51.2358 5.77771 50.7831Z" fill="#526373"/>
<path d="M4.95471 49.6919C5.15316 49.7441 5.3516 49.7964 5.39245 50.0459C5.39829 50.0865 5.43331 50.1561 5.46249 50.1619C5.81852 50.2258 5.66094 50.5333 5.73681 50.7248C5.45082 50.3941 5.18234 50.0575 4.95471 49.6919Z" fill="#526373"/>
<path d="M19.978 47.8115C19.6744 47.6026 19.5052 47.2892 19.3534 46.9759C19.2542 46.7785 19.0558 46.6103 19.1025 46.3491C19.4176 46.825 19.7153 47.3066 19.978 47.8115Z" fill="#526373"/>
<path d="M8.98779 54.9609C9.2446 54.9609 9.30297 55.1931 9.40803 55.3439C9.5948 55.5993 9.81075 55.7328 10.1259 55.7095C10.1551 55.7095 10.1901 55.7386 10.2251 55.756C9.72904 55.8778 9.40803 55.6515 9.16873 55.2453C9.11036 55.1524 9.04616 55.0596 8.98779 54.9609Z" fill="#526373"/>
<path d="M36.4781 50.3127C36.5948 50.4114 36.5598 50.5507 36.5306 50.6609C36.4722 50.8989 36.4897 51.1368 36.4781 51.3747C36.4722 51.5488 36.4255 51.6997 36.2213 51.7461C36.3905 51.2761 36.4255 50.7944 36.4781 50.3127Z" fill="#526373"/>
<path d="M6.81665 52.1525C6.85751 52.1176 6.93338 52.048 6.95673 52.106C7.13182 52.4716 7.45283 52.727 7.6396 53.081C7.65711 53.1216 7.64544 53.1738 7.64544 53.2202C7.34194 52.8895 7.08513 52.5181 6.81665 52.1525Z" fill="#526373"/>
<path d="M3.0578 42.7629C2.36325 42.7629 1.66286 42.7745 0.968306 42.7629C0.828229 42.7571 0.658968 42.9311 0.542236 42.7165C1.34185 42.6701 2.14146 42.6933 2.94107 42.7107C2.98192 42.7107 3.03445 42.7107 3.0578 42.7629Z" fill="#526373"/>
<path d="M14.2291 43.7201C14.2933 43.6969 14.3925 43.6737 14.4158 43.7317C14.5267 44.0451 14.8419 44.2656 14.8302 44.637C14.5968 44.3527 14.4158 44.0335 14.2291 43.7201Z" fill="#526373"/>
<path d="M4.3418 44.446C4.18421 44.4518 4.07916 44.4169 4.02663 44.237C3.99161 44.121 3.88071 44.0223 3.799 43.9179C3.71729 43.8192 3.6706 43.709 3.68811 43.5813C3.9099 43.8656 4.12585 44.1558 4.3418 44.446Z" fill="#526373"/>
<path d="M15.6415 45.9082C15.9508 46.0127 16.1201 46.2854 16.1142 46.6626C15.945 46.4189 15.7582 46.1867 15.6415 45.9082Z" fill="#526373"/>
<path d="M6.40224 47.1268C6.37306 47.15 6.32637 47.179 6.29718 47.15C6.12792 46.9527 5.95866 46.7612 5.79524 46.5581C5.75438 46.5059 5.73687 46.4304 5.84193 46.4072C6.03454 46.6452 6.22131 46.8889 6.40224 47.1268Z" fill="#526373"/>
<path d="M24.1804 46.3785C24.2446 46.0304 24.3789 45.7344 24.7057 45.5603C24.5656 45.8563 24.3789 46.1232 24.1804 46.3785Z" fill="#526373"/>
<path d="M20.6025 47.1387C20.6667 47.5855 20.6667 47.5855 20.2581 47.6958C20.3398 47.4927 20.4624 47.3128 20.6025 47.1387Z" fill="#526373"/>
<path d="M4.8905 45.1535C4.87299 45.1651 4.85548 45.1825 4.8438 45.1825C4.66871 45.1187 4.34769 44.6429 4.34186 44.4456C4.54614 44.6603 4.72123 44.904 4.8905 45.1535Z" fill="#526373"/>
<path d="M38.836 52.9416C38.7601 52.5876 38.9235 52.3148 39.122 52.0537C39.087 52.3671 38.9644 52.6514 38.836 52.9416Z" fill="#526373"/>
<path d="M35.731 52.5469C35.7368 52.837 35.4275 53.0808 35.1123 53.0285C35.3224 52.866 35.5267 52.7094 35.731 52.5469Z" fill="#526373"/>
<path d="M17.0423 48.1133C17.2641 48.1945 17.5034 48.5717 17.4859 48.8213C17.3225 48.5949 17.1649 48.3686 17.0423 48.1133Z" fill="#526373"/>
<path d="M21.6005 45.49C21.548 45.7743 21.5188 46.0703 21.1803 46.1806C21.297 45.9368 21.4371 45.7047 21.6005 45.49Z" fill="#526373"/>
<path d="M22.8788 43.384C22.8379 43.709 22.6862 43.9701 22.406 44.15C22.5461 43.8889 22.692 43.622 22.8788 43.384Z" fill="#526373"/>
<path d="M39.1162 52.0305C39.1045 51.7172 39.0578 51.398 39.2796 51.1252C39.268 51.4328 39.2388 51.7404 39.1162 52.0305Z" fill="#526373"/>
<path d="M5.27565 45.6645C4.98965 45.6935 4.89627 45.5716 4.90794 45.177C5.03051 45.3395 5.15308 45.502 5.27565 45.6645Z" fill="#526373"/>
<path d="M31.5928 52.6284C31.3418 52.5877 31.1609 52.3614 31.12 52.0422C31.2776 52.2395 31.4352 52.4368 31.5928 52.6284Z" fill="#526373"/>
<path d="M7.76788 53.3945C8.00135 53.4468 8.20563 53.7021 8.22897 53.9807C8.07722 53.7833 7.91963 53.586 7.76788 53.3945Z" fill="#526373"/>
<path d="M22.1785 44.5444C22.1201 44.8172 22.0442 45.0725 21.7699 45.2118C21.91 44.9855 21.9975 44.7359 22.1785 44.5444Z" fill="#526373"/>
<path d="M18.0345 49.6804C18.3672 49.7443 18.3497 50.0228 18.3906 50.2665C18.2738 50.0692 18.1513 49.8777 18.0345 49.6804Z" fill="#526373"/>
<path d="M28.7739 53.7424C29.0073 53.8701 29.1708 54.0384 29.1941 54.3169C29.0307 54.137 28.8556 53.9688 28.7739 53.7424Z" fill="#526373"/>
<path d="M17.4916 48.8329C17.8359 48.8213 17.7951 49.065 17.7951 49.2797C17.655 49.1579 17.5791 48.9954 17.4916 48.8329Z" fill="#526373"/>
<path d="M5.81845 46.3609C5.55581 46.3145 5.43324 46.152 5.44491 45.8909C5.57332 46.0476 5.69589 46.2042 5.81845 46.3609Z" fill="#526373"/>
<path d="M8.57928 54.439C8.8536 54.4738 8.93532 54.6595 8.93532 54.9032C8.79524 54.7697 8.67851 54.6131 8.57928 54.439Z" fill="#526373"/>
<path d="M29.3049 54.4389C29.4274 54.2474 29.4566 54.4737 29.5325 54.4969C29.6551 54.5259 29.6726 54.6362 29.6376 54.7465C29.4916 54.6826 29.4041 54.555 29.3049 54.4389Z" fill="#526373"/>
<path d="M36.227 51.7458C36.227 51.9722 36.2328 52.1985 35.9468 52.2797C36.0402 52.0998 36.1336 51.9199 36.227 51.7458Z" fill="#526373"/>
<path d="M24.9975 45.1014C25.015 44.8983 25.0267 44.6894 25.2952 44.6372C25.2135 44.7997 25.1201 44.9564 24.9975 45.1014Z" fill="#526373"/>
<path d="M3.73492 48.1133C3.9859 48.1133 4.01508 48.2816 3.99757 48.4731C3.91002 48.357 3.82247 48.2351 3.73492 48.1133Z" fill="#526373"/>
<path d="M4.00916 48.4965C4.33017 48.4153 4.21927 48.6765 4.26596 48.8157C4.15507 48.7287 4.09087 48.601 4.00916 48.4965Z" fill="#526373"/>
<path d="M22.4118 44.1499C22.4235 44.3182 22.4702 44.5155 22.19 44.5097C22.2659 44.3936 22.3359 44.2718 22.4118 44.1499Z" fill="#526373"/>
<path d="M14.8243 44.6375C15.2212 44.5214 14.9352 44.8348 15.0053 44.9276C14.9119 44.8464 14.871 44.7361 14.8243 44.6375Z" fill="#526373"/>
<path d="M24.7057 45.5662C24.7174 45.3921 24.7174 45.2064 24.9508 45.1658C24.8925 45.3108 24.8049 45.4443 24.7057 45.5662Z" fill="#526373"/>
<path d="M23.3632 47.5972C23.3457 47.4289 23.4216 47.3302 23.585 47.2954C23.55 47.4231 23.4917 47.5333 23.3632 47.5972Z" fill="#526373"/>
<path d="M38.6492 53.3362C38.6551 53.1795 38.6084 52.9938 38.836 52.9358C38.7893 53.0751 38.7426 53.2201 38.6492 53.3362Z" fill="#526373"/>
<path d="M15.1804 45.2119C15.3963 45.2409 15.408 45.3976 15.4138 45.5659C15.3146 45.4615 15.2387 45.3396 15.1804 45.2119Z" fill="#526373"/>
<path d="M21.0694 46.3552C21.0694 46.4887 21.1453 46.6744 20.8885 46.6512C20.941 46.5467 20.976 46.4365 21.0694 46.3552Z" fill="#526373"/>
<path d="M8.22906 53.9802C8.42167 53.986 8.49171 54.0905 8.46253 54.2762C8.36331 54.1891 8.26992 54.1021 8.22906 53.9802Z" fill="#526373"/>
<path d="M3.32635 47.5913C3.55398 47.5739 3.57149 47.7189 3.56565 47.8872C3.44892 47.8176 3.39639 47.6957 3.32635 47.5913Z" fill="#526373"/>
<path d="M38.299 53.9169C38.299 53.7834 38.2874 53.6441 38.48 53.6267C38.445 53.7428 38.3983 53.8472 38.299 53.9169Z" fill="#526373"/>
<path d="M17.8535 49.3958C18.0461 49.4132 18.0345 49.5524 18.0345 49.6859C17.9469 49.6047 17.906 49.4944 17.8535 49.3958Z" fill="#526373"/>
<path d="M15.408 45.5603C15.5656 45.5777 15.5948 45.6764 15.5656 45.8098C15.5131 45.7286 15.4605 45.6415 15.408 45.5603Z" fill="#526373"/>
<path d="M4.3186 48.8736C4.4937 48.862 4.51705 48.9723 4.49954 49.1058C4.40615 49.0477 4.35946 48.9607 4.3186 48.8736Z" fill="#526373"/>
<path d="M8.25237 49.5524C8.08894 49.5524 8.05976 49.4538 8.07143 49.3203C8.16482 49.3725 8.20567 49.4596 8.25237 49.5524Z" fill="#526373"/>
<path d="M4.6687 49.3323C4.83796 49.3265 4.86131 49.4309 4.84963 49.5644C4.75041 49.518 4.72123 49.4193 4.6687 49.3323Z" fill="#526373"/>
<path d="M3.55988 47.8813C3.72914 47.8755 3.75832 47.98 3.73497 48.1135C3.68244 48.038 3.61824 47.9626 3.55988 47.8813Z" fill="#526373"/>
<path d="M23.8301 46.9182C23.8184 46.7847 23.8243 46.6686 24.0052 46.6628C23.9643 46.7557 23.9176 46.8543 23.8301 46.9182Z" fill="#526373"/>
<path d="M3.23299 42.9951C3.02871 43.0241 3.04039 42.8964 3.05206 42.7629C3.11626 42.8384 3.17462 42.9138 3.23299 42.9951Z" fill="#526373"/>
<path d="M4.49365 49.1001C4.65124 49.1059 4.66291 49.2162 4.67459 49.338C4.5812 49.2858 4.53451 49.1929 4.49365 49.1001Z" fill="#526373"/>
<path d="M20.1941 47.8059C20.1999 47.8813 20.1882 47.9452 20.1065 47.9684C20.0423 47.9858 20.0365 47.922 20.0248 47.8755C20.1123 47.9104 20.1415 47.8233 20.1941 47.8059Z" fill="#526373"/>
<path d="M35.8653 52.3787C35.8886 52.4773 35.947 52.5992 35.7485 52.5295C35.7894 52.4773 35.8244 52.4251 35.8653 52.3787Z" fill="#526373"/>
<path d="M24.0636 46.5524C24.0519 46.4596 24.0403 46.3726 24.1804 46.3726C24.1453 46.4306 24.1045 46.4944 24.0636 46.5524Z" fill="#526373"/>
<path d="M36.3146 55.489C36.3321 55.4019 36.3905 55.3671 36.4722 55.3613C36.4371 55.4252 36.4138 55.5006 36.3146 55.489Z" fill="#526373"/>
<path d="M8.60255 50.0169C8.46831 50.0227 8.47415 49.9356 8.47998 49.8428C8.52084 49.9008 8.56169 49.9588 8.60255 50.0169Z" fill="#526373"/>
<path d="M20.836 46.7439C20.8418 46.8367 20.8593 46.9412 20.7134 46.9354C20.7309 46.8541 20.7717 46.7961 20.836 46.7439Z" fill="#526373"/>
<path d="M20.7193 46.9353C20.7309 47.0282 20.7309 47.1094 20.6083 47.121C20.62 47.0456 20.655 46.9817 20.7193 46.9353Z" fill="#526373"/>
<path d="M28.6629 53.5566C28.7855 53.5682 28.7855 53.6495 28.7796 53.7423C28.7096 53.6959 28.6746 53.6321 28.6629 53.5566Z" fill="#526373"/>
<path d="M38.48 53.6323C38.4625 53.5394 38.4567 53.4524 38.5968 53.4524C38.5734 53.522 38.5442 53.5859 38.48 53.6323Z" fill="#526373"/>
<path d="M19.0441 46.245C18.9041 46.245 18.9216 46.1463 18.9274 46.0535C18.9916 46.0999 19.0208 46.1753 19.0441 46.245Z" fill="#526373"/>
<path d="M25.2893 44.6377C25.2777 44.5449 25.2718 44.452 25.4119 44.4636C25.4002 44.5391 25.3652 44.6029 25.2893 44.6377Z" fill="#526373"/>
<path d="M4.84387 49.564C4.93726 49.5582 4.97228 49.5988 4.95477 49.6917C4.91975 49.651 4.88473 49.6104 4.84387 49.564Z" fill="#526373"/>
<path d="M20.2582 47.6953C20.2582 47.7475 20.2465 47.794 20.1881 47.8114C20.2115 47.7766 20.2348 47.7359 20.2582 47.6953Z" fill="#526373"/>
<path d="M38.5909 53.4522C38.585 53.4 38.5909 53.3535 38.6551 53.3303C38.6492 53.3826 38.6492 53.429 38.5909 53.4522Z" fill="#526373"/>
<path d="M35.9527 52.2744C35.9527 52.3324 35.9527 52.3847 35.871 52.3731C35.8944 52.3383 35.9236 52.3034 35.9527 52.2744Z" fill="#526373"/>
<path d="M15.5655 45.8095C15.6472 45.8037 15.6472 45.8559 15.6472 45.914C15.618 45.8792 15.5888 45.8443 15.5655 45.8095Z" fill="#526373"/>
<path d="M23.6552 47.1905C23.6493 47.1325 23.6552 47.0861 23.7252 47.0745C23.7194 47.1209 23.7135 47.1731 23.6552 47.1905Z" fill="#526373"/>
<path d="M31.1259 52.0483C31.0617 52.025 31.0558 51.9728 31.0617 51.9148C31.1317 51.938 31.1142 52.0018 31.1259 52.0483Z" fill="#526373"/>
<path d="M5.35734 45.746C5.27563 45.7692 5.27563 45.717 5.27563 45.6589C5.29898 45.6879 5.32816 45.717 5.35734 45.746Z" fill="#526373"/>
<path d="M8.4566 54.2649C8.52664 54.2765 8.53248 54.3229 8.53248 54.3752C8.47995 54.3577 8.46244 54.3171 8.4566 54.2649Z" fill="#526373"/>
<path d="M17.7893 49.2795C17.8594 49.2911 17.8652 49.3376 17.8594 49.3956C17.8068 49.3724 17.801 49.326 17.7893 49.2795Z" fill="#526373"/>
<path d="M15.1103 45.0957C15.1745 45.1073 15.1862 45.1595 15.1803 45.2118C15.1336 45.1885 15.122 45.1421 15.1103 45.0957Z" fill="#526373"/>
<path d="M21.7115 45.3105C21.7173 45.3686 21.7115 45.4208 21.6356 45.415C21.659 45.3802 21.6881 45.3454 21.7115 45.3105Z" fill="#526373"/>
<path d="M19.1142 46.3607C19.05 46.3433 19.0383 46.2969 19.0442 46.2446C19.0909 46.2678 19.1025 46.3085 19.1142 46.3607Z" fill="#526373"/>
<path d="M23.9994 46.6629C23.9994 46.6107 24.0052 46.5585 24.0694 46.5469C24.0636 46.5991 24.0519 46.6397 23.9994 46.6629Z" fill="#526373"/>
<path d="M8.37483 49.7209C8.31062 49.7092 8.29895 49.6628 8.29895 49.6106C8.35732 49.628 8.36315 49.6744 8.37483 49.7209Z" fill="#526373"/>
<path d="M8.30495 49.6165C8.28744 49.5933 8.26409 49.5701 8.24658 49.5469C8.26409 49.5701 8.28744 49.5933 8.30495 49.6165Z" fill="#526373"/>
<path d="M21.1337 46.2737C21.1104 46.3027 21.0929 46.3317 21.0695 46.3665C21.087 46.3317 21.1104 46.3027 21.1337 46.2737Z" fill="#526373"/>
<path d="M8.48 49.8487C8.46249 49.8255 8.43914 49.8023 8.42163 49.7791C8.44498 49.8023 8.46249 49.8255 8.48 49.8487Z" fill="#526373"/>
<path d="M21.7699 45.2234C21.7699 45.2698 21.7466 45.2988 21.7057 45.3162C21.729 45.2872 21.7524 45.2582 21.7699 45.2234Z" fill="#526373"/>
<path d="M24.9449 45.1653C24.9449 45.1247 24.9625 45.1015 25.0033 45.0957C24.98 45.1189 24.9625 45.1421 24.9449 45.1653Z" fill="#526373"/>
<path d="M21.6356 45.4153C21.6473 45.4559 21.6298 45.4791 21.5948 45.4907C21.6065 45.4675 21.624 45.4443 21.6356 45.4153Z" fill="#526373"/>
<path d="M15.0695 45.032C15.087 45.0552 15.0986 45.0842 15.1162 45.1074C15.1045 45.0784 15.087 45.0552 15.0695 45.032Z" fill="#526373"/>
<path d="M5.7251 50.7188C5.74261 50.742 5.76596 50.7652 5.78347 50.7884C5.76596 50.7652 5.74845 50.742 5.7251 50.7188Z" fill="#526373"/>
<path d="M14.9995 44.9221C15.0229 44.9511 15.0404 44.9802 15.0637 45.0092C15.0404 44.9802 15.0229 44.9511 14.9995 44.9221Z" fill="#526373"/>
<path d="M4.26599 48.804C4.2835 48.8272 4.30685 48.8504 4.32436 48.8736C4.30685 48.8504 4.2835 48.8272 4.26599 48.804Z" fill="#526373"/>
<path d="M5.39826 45.8328C5.35741 45.827 5.3399 45.8038 5.35741 45.7632C5.37492 45.7864 5.38659 45.8096 5.39826 45.8328Z" fill="#526373"/>
<path d="M5.45076 45.8963C5.43325 45.8731 5.4099 45.8499 5.3924 45.8267C5.41574 45.8499 5.43325 45.8731 5.45076 45.8963Z" fill="#526373"/>
<path d="M20.0305 47.8755C20.013 47.8523 19.9955 47.8291 19.978 47.8059C19.9955 47.8291 20.013 47.8523 20.0305 47.8755Z" fill="#526373"/>
<path d="M17.9995 44.5041C17.9644 44.4925 17.9411 44.4693 17.9469 44.4287C17.9644 44.4577 17.982 44.4809 17.9995 44.5041Z" fill="#526373"/>
<path d="M7.64539 53.2202C7.66873 53.2434 7.69208 53.2724 7.70958 53.2957C7.68624 53.2724 7.66873 53.2434 7.64539 53.2202Z" fill="#526373"/>
<path d="M7.72118 53.3303C7.73869 53.3535 7.7562 53.3767 7.76787 53.4C7.73869 53.3884 7.71534 53.3651 7.72118 53.3303Z" fill="#526373"/>
<path d="M18.9158 46.0189C18.8982 45.9956 18.8807 45.9724 18.8632 45.9492C18.9041 45.9608 18.9216 45.984 18.9158 46.0189Z" fill="#526373"/>
<path d="M28.5928 53.4465C28.6336 53.4639 28.657 53.493 28.657 53.5394C28.6336 53.5104 28.6161 53.4814 28.5928 53.4465Z" fill="#526373"/>
<path d="M23.5908 47.2492C23.6142 47.2259 23.6375 47.2085 23.6609 47.1853C23.6375 47.2085 23.6142 47.2317 23.5908 47.2492Z" fill="#526373"/>
<path d="M23.7192 47.0804C23.7192 47.0398 23.7367 47.0165 23.7776 47.0107C23.7542 47.034 23.7367 47.0572 23.7192 47.0804Z" fill="#526373"/>
<path d="M22.9431 43.2795C22.9256 43.3028 22.9139 43.326 22.8964 43.3492C22.908 43.326 22.9256 43.3028 22.9431 43.2795Z" fill="#526373"/>
<path d="M38.2406 53.9922C38.2639 53.969 38.2815 53.94 38.3048 53.9167C38.2815 53.94 38.2581 53.9632 38.2406 53.9922Z" fill="#526373"/>
<path d="M3.27958 43.0643C3.26207 43.0411 3.24456 43.0178 3.22705 42.9946C3.24456 43.012 3.26207 43.0352 3.27958 43.0643Z" fill="#526373"/>
<path d="M23.7719 47.0167C23.7894 46.9935 23.8069 46.9702 23.8185 46.947C23.801 46.9702 23.7835 46.9935 23.7719 47.0167Z" fill="#526373"/>
<path d="M29.1882 54.3169C29.2057 54.3401 29.2232 54.3633 29.2465 54.3807C29.229 54.3575 29.2115 54.3343 29.1882 54.3169Z" fill="#526373"/>
<path d="M8.52673 54.375C8.54424 54.3982 8.56759 54.4214 8.5851 54.4446C8.56759 54.4214 8.54424 54.3982 8.52673 54.375Z" fill="#526373"/>
<path d="M29.6377 54.7346C29.6786 54.7346 29.7019 54.752 29.7077 54.7926C29.6844 54.7752 29.661 54.7578 29.6377 54.7346Z" fill="#526373"/>
<path d="M8.92944 54.9031C8.95279 54.9263 8.9703 54.9495 8.99365 54.9727C8.9703 54.9437 8.95279 54.9205 8.92944 54.9031Z" fill="#526373"/>
<path d="M21.1861 46.175C21.1686 46.1983 21.1511 46.2273 21.1394 46.2505C21.1511 46.2273 21.1686 46.2041 21.1861 46.175Z" fill="#526373"/>
<path d="M8.42742 49.7845C8.40408 49.7613 8.38657 49.7381 8.36322 49.7148C8.38657 49.7381 8.40991 49.7613 8.42742 49.7845Z" fill="#526373"/>
<path d="M20.0948 20.2993C20.1648 19.5333 20.4391 18.8253 20.7368 18.1289C20.8477 18.0071 20.9119 17.8562 20.9703 17.7111V17.7169C21.087 17.5428 21.2037 17.3687 21.3205 17.1888V17.1946C21.5948 16.8871 21.8691 16.5737 22.1376 16.2662L22.1318 16.272C22.1551 16.2487 22.1726 16.2313 22.196 16.2081L22.1901 16.2139C22.3535 16.0863 22.5286 15.9702 22.6629 15.8077C22.8205 15.7033 22.9781 15.5988 23.1356 15.4943C23.1473 15.4943 23.159 15.4885 23.1707 15.4769C23.4742 15.3203 23.7718 15.1636 24.0753 15.0185C24.4547 14.8328 24.8516 14.6761 25.196 14.4092H25.2135L25.2193 14.3918C25.657 14.1422 26.0481 13.8405 26.3925 13.4749C26.4391 13.4284 26.4858 13.3878 26.5384 13.3414C26.55 13.3356 26.5559 13.3298 26.5559 13.3182C26.5675 13.3066 26.5792 13.2892 26.5909 13.2776L26.6026 13.266C26.9936 12.883 27.3263 12.4593 27.5598 11.9661C27.6707 11.8674 27.6648 11.6933 27.8224 11.5889C27.8749 11.908 27.8166 12.1924 27.8282 12.4825C27.8224 12.5232 27.8166 12.5638 27.8166 12.6044C27.7874 12.883 27.764 13.1615 27.729 13.4401C27.5773 14.6529 27.2796 15.8251 26.7193 16.9161C26.2816 17.775 25.6629 18.4771 24.9158 19.0865L24.9216 19.0807C24.8866 19.1039 24.8458 19.1271 24.8107 19.1561C23.3749 20.0962 21.7874 20.4096 20.0948 20.2993Z" fill="#FDFDFE"/>
<path d="M19.3301 19.8988C19.3185 19.8872 19.301 19.8814 19.2834 19.8814C19.0792 19.3417 18.8924 18.7962 18.8048 18.2217C18.6648 17.3571 18.764 16.5156 18.9858 15.6742V15.68C19.085 15.5233 19.1317 15.3434 19.1842 15.1693H19.1784C19.3301 14.8908 19.476 14.6122 19.6336 14.3395C19.9488 13.7824 20.3982 13.3297 20.8009 12.8423L20.7951 12.8481C20.8943 12.79 20.9819 12.7146 21.0227 12.6043L21.0169 12.6101C21.0869 12.6043 21.1278 12.5579 21.1336 12.4883V12.4941C21.6706 12.0879 22.2251 11.6875 22.6687 11.171L22.6511 11.1536L22.6687 11.171C23.0072 10.8344 23.3282 10.4862 23.5325 10.0568C23.7659 9.86528 23.8768 9.58674 24.0227 9.3314L24.0286 9.31399C24.1687 9.05865 24.3146 8.79752 24.4605 8.53638C24.5772 8.60601 24.6064 8.71047 24.6531 8.80332C24.8632 9.21534 25.0208 9.65057 25.1434 10.0916C25.3885 10.9563 25.5694 11.8325 25.4527 12.7436C25.3885 13.2311 25.1959 13.6025 24.7348 13.8172C24.4371 13.9565 24.1511 14.1189 23.8651 14.2756C23.8651 14.2756 23.871 14.2698 23.871 14.2756C23.7601 14.3046 23.655 14.3569 23.5675 14.4323H23.5616C23.5266 14.4497 23.4858 14.4729 23.4508 14.4903H23.4391C23.2406 14.5716 23.048 14.6702 22.8788 14.8095C22.2309 15.1751 21.6414 15.6103 21.1745 16.1906L21.1862 16.2023L21.1745 16.1906C20.5617 16.8116 20.1297 17.537 19.8379 18.3494V18.3436C19.6103 18.8078 19.4877 19.3011 19.3885 19.8002C19.3827 19.8292 19.371 19.8582 19.3652 19.8872C19.3593 19.8814 19.3418 19.8872 19.3301 19.8988Z" fill="#FDFDFE"/>
<path d="M12.5072 18.2739C12.4897 18.2565 12.4721 18.239 12.4546 18.2274C12.4488 18.1462 12.4138 18.0824 12.3379 18.0475L12.3437 18.0533C12.3379 17.9895 12.3379 17.9199 12.2737 17.8793C11.5558 16.237 11.7834 14.6876 12.7231 13.202C12.9507 12.8422 13.1667 12.4824 13.3301 12.0878L13.3243 12.0936C13.5169 11.8208 13.6511 11.5191 13.7737 11.2115C13.7854 11.1941 13.7854 11.1825 13.7854 11.1651C14.083 10.6544 14.3223 10.1205 14.4274 9.53441C14.5091 9.43576 14.4683 9.31389 14.5208 9.18042C14.7834 9.38353 14.8243 9.7085 14.9994 9.94643C15.0111 9.96964 15.0227 9.99866 15.0344 10.0219V10.0335C15.1395 10.2888 15.2562 10.5441 15.3379 10.8053C15.4605 11.1825 15.6472 11.5539 15.6006 11.9717C15.583 11.9833 15.5772 12.0007 15.583 12.0181C14.8651 13.0569 14.4216 14.1943 14.3865 15.4594C14.3632 16.4343 14.62 17.3454 15.1978 18.1462L15.2037 18.1578C15.297 18.2913 15.3963 18.4189 15.4897 18.5524L15.5013 18.5698C15.7698 18.918 16.0792 19.2198 16.4293 19.4809L16.4352 19.4867C16.692 19.7188 16.9721 19.9219 17.2815 20.0902C17.3399 20.2005 17.5441 20.1715 17.5266 20.3514C17.4624 20.3514 17.3982 20.3456 17.334 20.3456C16.2192 20.2759 15.122 20.1076 14.1006 19.6202C14.0772 19.6086 14.0422 19.6202 14.013 19.6202L14.0188 19.626C13.6978 19.3881 13.371 19.1443 13.05 18.9064H13.0441C13.0208 18.889 12.9974 18.8716 12.9799 18.8542H12.9858C12.9332 18.7555 12.8515 18.6859 12.764 18.6162H12.7581C12.7406 18.5988 12.729 18.5814 12.7114 18.564L12.7056 18.5524C12.6648 18.5002 12.6239 18.448 12.583 18.3899L12.5597 18.4015L12.583 18.3957C12.5597 18.3435 12.5305 18.3087 12.5072 18.2739Z" fill="#FDFDFE"/>
<path d="M17.4917 25.255C17.4859 25.2085 17.4742 25.1563 17.4683 25.1099L17.48 25.0925L17.4683 25.0751C17.4275 24.634 17.3866 24.1988 17.3516 23.7578C17.3458 23.6707 17.2874 23.5663 17.41 23.5024C18.4022 23.5082 19.3886 23.514 20.3808 23.514C20.5734 23.514 20.6376 23.5663 20.6143 23.7578C20.4216 25.2318 20.229 26.7115 20.0423 28.1855C19.7913 30.1586 19.5345 32.1258 19.2894 34.0989C19.2543 34.36 19.1726 34.5225 18.8866 34.5225C18.6065 34.5225 18.5014 34.3542 18.4722 34.0989C18.2971 32.4392 18.1162 30.7853 17.9294 29.1256C17.7835 27.8431 17.6376 26.5491 17.4917 25.255Z" fill="#FDFDFE"/>
<path d="M16.1783 22.754C16.1725 22.2607 16.1666 21.7732 16.155 21.28C16.1491 21.1465 16.2133 21.1233 16.3301 21.1233C18.0869 21.1233 19.8437 21.1291 21.6005 21.1233C21.7639 21.1233 21.7873 21.1871 21.7873 21.3264C21.7814 21.7964 21.7814 22.2723 21.7814 22.7424C19.9079 22.7482 18.046 22.7482 16.1783 22.754Z" fill="#FDFDFE"/>
<path d="M17.4916 25.2548C17.6375 26.5489 17.7835 27.843 17.9294 29.1371C18.1103 30.7909 18.2912 32.4506 18.4722 34.1103C18.5014 34.3656 18.6006 34.5339 18.8866 34.5339C19.1667 34.5339 19.2543 34.3714 19.2893 34.1103C19.5344 32.1372 19.7854 30.1642 20.0422 28.1969C20.229 26.723 20.4216 25.2432 20.6142 23.7692C20.6375 23.5777 20.5792 23.5197 20.3807 23.5255C19.3885 23.5313 18.4021 23.5197 17.4099 23.5139C17.5091 23.392 17.6434 23.3862 17.7835 23.4036C18.5889 23.5197 19.3944 23.4268 20.1998 23.45C20.264 23.45 20.3282 23.4094 20.3924 23.3978C20.6025 23.3456 20.8068 23.5197 20.7484 23.7228C20.55 24.4598 20.5675 25.22 20.4216 25.9686C20.3107 26.5489 20.2698 27.1582 20.1998 27.7559C20.1298 28.3885 20.1123 29.0268 20.013 29.6477C19.8554 30.6749 19.7095 31.702 19.6045 32.7408C19.5519 33.2689 19.4586 33.8027 19.3827 34.3308C19.3535 34.5223 19.05 34.7138 18.8457 34.6906C18.5714 34.6616 18.443 34.4933 18.3905 34.2554C18.227 33.4952 18.2737 32.7176 18.1336 31.9515C18.0228 31.348 17.9936 30.7329 17.9294 30.1236C17.8477 29.3576 17.7601 28.5974 17.6784 27.8314C17.6259 27.3265 17.5617 26.8216 17.5266 26.3167C17.4975 25.9628 17.3924 25.6088 17.4916 25.2548Z" fill="#526373"/>
<path d="M18.9158 8.87872C18.9274 8.48411 19.2543 8.26359 19.4469 7.97924C19.7095 7.59043 19.9488 7.19002 20.1356 6.7664C20.2232 6.56329 20.4333 6.4066 20.3691 6.13966C20.3574 6.07583 20.4975 6.03521 20.5792 6.01199C20.6726 5.98878 20.7543 6.04681 20.7893 6.12806C20.9819 6.54007 21.1278 6.97531 21.3088 7.39313C21.4955 7.82836 21.5714 8.29841 21.6765 8.75105C21.7582 9.11665 21.9041 9.49385 21.8808 9.87685C21.8633 10.1728 21.9741 10.4572 21.9216 10.7647C21.8457 11.2058 21.5948 11.4437 21.192 11.5656C21.1804 11.5539 21.1687 11.5423 21.157 11.5307C21.2329 11.4611 21.3029 11.3682 21.3963 11.3218C21.8282 11.0839 21.8866 10.7125 21.8341 10.2657C21.694 9.10504 21.4022 7.97924 20.9819 6.88826C20.8769 6.62132 20.7893 6.34277 20.5675 6.08743C20.3866 6.62712 20.159 7.10878 19.873 7.56722C19.587 8.03147 19.266 8.47831 18.9158 8.89613V8.87872Z" fill="#526373"/>
<path d="M23.8711 14.2759C24.1629 14.125 24.4431 13.9567 24.7407 13.8174C25.2018 13.6027 25.3944 13.2313 25.4586 12.7438C25.5754 11.8328 25.3886 10.9565 25.1493 10.0918C25.0267 9.6508 24.875 9.21557 24.659 8.80355C24.6123 8.7107 24.5832 8.60625 24.4664 8.53661C24.3205 8.79775 24.1804 9.05889 24.0345 9.31422C23.9703 8.98925 24.1746 8.75132 24.3497 8.53081C24.4606 8.39153 24.6649 8.46697 24.7407 8.65267C25.1376 9.57536 25.4236 10.5213 25.5287 11.5252C25.587 12.0533 25.5812 12.5756 25.4937 13.0862C25.447 13.3706 25.3769 13.7014 24.9975 13.8232C24.7466 13.9045 24.5423 14.1076 24.2855 14.2004C24.1512 14.2527 24.017 14.2991 23.8711 14.2759Z" fill="#526373"/>
<path d="M19.1551 13.759C19.1609 13.8518 19.1376 13.9331 19.0851 14.0085C18.7991 14.4322 18.5656 14.879 18.373 15.349C18.2388 15.674 18.1629 16.028 18.1162 16.3762C18.0462 16.9159 17.9644 17.4672 18.0987 18.0127C18.2621 18.6568 18.2913 19.3416 18.6823 19.9161C18.7582 20.0263 18.6765 20.1192 18.624 20.1946C18.5656 20.2701 18.4781 20.2585 18.3964 20.1888C18.3088 20.1192 18.1571 20.1308 18.1571 19.9741C18.1687 19.9625 18.1862 19.9451 18.1979 19.9335C18.3146 20.0031 18.4314 20.0786 18.5481 20.1482C17.5676 17.885 17.7193 15.7553 19.1142 13.73C19.1259 13.7358 19.1434 13.7474 19.1551 13.759Z" fill="#526373"/>
<path d="M24.9157 19.0863C25.657 18.477 26.2756 17.7748 26.7192 16.9159C27.2795 15.8192 27.5772 14.6527 27.7289 13.4399C27.7639 13.1613 27.7873 12.8828 27.8165 12.6042C27.8865 13.0453 27.8573 13.4805 27.7873 13.9215C27.6822 14.5715 27.5247 15.2156 27.3087 15.8366C27.1219 16.3704 26.8943 16.8985 26.5908 17.386C26.1998 18.0127 25.797 18.622 25.1608 19.0283C25.0791 19.0747 25.0091 19.1095 24.9157 19.0863Z" fill="#526373"/>
<path d="M15.2036 18.1347C14.6258 17.328 14.369 16.4227 14.3923 15.4478C14.4273 14.1828 14.8651 13.0453 15.5888 12.0066C15.6472 12.2851 15.4546 12.4941 15.3379 12.6856C15.0227 13.2194 14.8184 13.7939 14.6316 14.3743C14.5382 14.6586 14.5091 14.972 14.5207 15.2737C14.5441 15.8831 14.5091 16.5098 14.7775 17.0785C14.9059 17.3454 14.9585 17.6472 15.1919 17.8619C15.2737 17.9431 15.2561 18.0418 15.2036 18.1347Z" fill="#526373"/>
<path d="M13.3302 12.0818C13.1668 12.4764 12.9508 12.842 12.7232 13.196C11.7777 14.6816 11.5559 16.231 12.2738 17.8733C12.157 17.8907 12.087 17.8326 12.0578 17.7282C11.9236 17.2523 11.8243 16.7649 11.7426 16.2716C11.6843 15.935 11.6668 15.581 11.766 15.2793C11.9352 14.7744 11.9761 14.2405 12.2679 13.7647C12.5189 13.3585 12.7349 12.929 12.9858 12.5228C13.085 12.3661 13.0384 12.0992 13.3302 12.0818Z" fill="#526373"/>
<path d="M16.698 18.7497C16.5462 18.7613 16.4645 18.7033 16.3536 18.5698C16.0384 18.1868 15.7524 17.7806 15.4373 17.3976C15.2622 17.1771 15.2155 16.8463 15.1513 16.5504C14.9762 15.7843 15.0462 15.0241 15.1746 14.2639C15.2038 14.1073 15.2505 13.9564 15.4081 13.8635L15.4256 13.8751C15.3964 13.997 15.3731 14.1189 15.338 14.2407C15.017 15.2737 15.0812 16.2718 15.5773 17.2409C15.8692 17.8096 16.2836 18.2739 16.7096 18.7323L16.698 18.7497Z" fill="#526373"/>
<path d="M16.0616 12.5404C16.05 12.2503 16.2251 12.0007 16.3768 11.8266C16.8029 11.3276 17.1764 10.7879 17.6083 10.2888C17.9469 9.8942 18.3846 9.54602 18.5947 9.04115C18.6473 8.91348 18.7873 8.89027 18.9157 8.87866L18.9216 8.89027C18.8399 9.00633 18.764 9.12819 18.6706 9.23845C17.7659 10.312 16.8262 11.3624 16.0733 12.552L16.0616 12.5404Z" fill="#526373"/>
<path d="M20.0948 20.2992C21.7874 20.4036 23.3808 20.096 24.8166 19.1501C24.7991 19.2604 24.7524 19.33 24.6473 19.3939C23.9936 19.7943 23.2991 20.0728 22.5403 20.2121C21.9742 20.3166 21.4139 20.421 20.836 20.3688C20.6784 20.3572 20.5267 20.3978 20.3808 20.4442C20.2174 20.4965 20.1415 20.4384 20.0948 20.2992Z" fill="#526373"/>
<path d="M18.9858 15.68C18.764 16.5156 18.6648 17.3629 18.8049 18.2275C18.8983 18.802 19.0792 19.3475 19.2835 19.8872C19.1259 19.8466 19.0909 19.8292 19.0559 19.7131C18.7991 18.8659 18.6181 18.007 18.6298 17.1133C18.6356 16.6839 18.7465 16.2661 18.8166 15.8424C18.8282 15.7612 18.8691 15.6742 18.9858 15.68Z" fill="#526373"/>
<path d="M14.0248 19.6143C14.054 19.6143 14.089 19.6027 14.1123 19.6143C15.1337 20.1017 16.2252 20.2758 17.3458 20.3397C16.7038 20.4325 16.0793 20.3455 15.4606 20.183C15.0403 20.0727 14.6201 19.9567 14.194 19.8464C14.0598 19.8174 14.0306 19.7187 14.0248 19.6143Z" fill="#526373"/>
<path d="M20.801 12.8423C20.3924 13.3297 19.9488 13.7824 19.6337 14.3395C19.4761 14.6122 19.3302 14.8908 19.1784 15.1693C19.1375 14.7805 19.4177 14.5078 19.5695 14.2002C19.8146 13.7243 20.194 13.3413 20.5617 12.9525C20.6317 12.8829 20.6842 12.8074 20.801 12.8423Z" fill="#526373"/>
<path d="M16.1785 22.7536C18.0462 22.7536 19.9139 22.7478 21.7758 22.7478C21.7408 22.8058 21.6882 22.8116 21.624 22.8116C19.8264 22.8116 18.0287 22.8116 16.2369 22.8116C16.2194 22.8116 16.196 22.8116 16.1844 22.8C16.1727 22.7884 16.1785 22.7652 16.1785 22.7536Z" fill="#526373"/>
<path d="M25.196 14.4032C24.8575 14.6644 24.4606 14.8269 24.0754 15.0126C23.7719 15.1634 23.4684 15.3201 23.1708 15.471C23.1241 15.4072 23.1182 15.3259 23.1941 15.3027C23.4217 15.2215 23.5618 15.001 23.8244 14.9661C24.233 14.9139 24.5073 14.5715 24.8925 14.4555C24.9917 14.4206 25.091 14.3974 25.196 14.4032Z" fill="#526373"/>
<path d="M22.6744 11.1709C22.2308 11.6873 21.6764 12.082 21.1394 12.494C21.262 12.1516 21.5713 11.9601 21.8281 11.757C22.0091 11.6119 22.1666 11.4552 22.3184 11.2869C22.4293 11.1709 22.5285 11.1244 22.6744 11.1709Z" fill="#526373"/>
<path d="M19.8438 18.3379C20.1356 17.5255 20.5676 16.8001 21.1804 16.1792C21.2154 16.2953 21.1512 16.3707 21.0812 16.4577C20.6551 16.9626 20.2816 17.5023 20.0539 18.1232C20.0131 18.2393 19.9547 18.3089 19.8438 18.3379Z" fill="#526373"/>
<path d="M21.1803 16.1848C21.6472 15.6045 22.2367 15.1635 22.8846 14.8037C22.8029 14.9952 22.7328 15.1693 22.4643 15.2331C22.1667 15.3028 21.9916 15.5987 21.7464 15.7728C21.5538 15.9005 21.4955 16.2197 21.1803 16.1848Z" fill="#526373"/>
<path d="M15.6064 11.96C15.6531 11.5422 15.4664 11.1766 15.3438 10.7936C15.2562 10.5324 15.1395 10.2771 15.0403 10.0218C15.122 9.98694 15.1745 10.0044 15.1862 10.0972C15.2037 10.3177 15.3905 10.4628 15.4547 10.6601C15.5772 11.0547 15.6765 11.4551 15.7115 11.8729C15.7057 11.931 15.6531 11.9484 15.6064 11.96Z" fill="#526373"/>
<path d="M27.5598 11.9602C27.3263 12.4593 26.9937 12.8829 26.6026 13.2601C26.515 13.086 26.6901 13.0106 26.7602 12.9235C27.017 12.5985 27.2096 12.2155 27.5598 11.9602Z" fill="#526373"/>
<path d="M23.5384 10.0508C23.3341 10.486 23.0072 10.8342 22.6746 11.165C22.6687 11.1302 22.6454 11.0721 22.6629 11.0547C22.9547 10.7239 23.1065 10.2655 23.5384 10.0508Z" fill="#526373"/>
<path d="M27.8282 12.4823C27.8165 12.1922 27.8749 11.9078 27.8224 11.5887C27.6648 11.6873 27.6706 11.8672 27.5597 11.9659C27.5364 11.8208 27.5656 11.6757 27.6298 11.548C27.6998 11.3972 27.8165 11.4262 27.9099 11.519C27.9916 11.6061 27.9975 12.3199 27.9216 12.4301C27.9041 12.4533 27.8574 12.4649 27.8282 12.4823Z" fill="#526373"/>
<path d="M14.4274 9.52271C14.3224 10.1088 14.0889 10.6427 13.7854 11.1534C13.7971 10.8574 13.9138 10.5789 14.0422 10.3351C14.194 10.074 14.1531 9.72581 14.4274 9.52271Z" fill="#526373"/>
<path d="M26.3924 13.4689C26.0539 13.8403 25.657 14.142 25.2193 14.3858C25.2426 14.1943 25.4177 14.0898 25.5403 14.0086C25.7154 13.8925 25.8905 13.7823 26.0306 13.6198C26.1239 13.5211 26.2465 13.4573 26.3924 13.4689Z" fill="#526373"/>
<path d="M15.4138 13.8693C15.4488 13.3702 15.6706 12.9582 16.0033 12.5984L16.015 12.61C15.8224 13.0336 15.6239 13.4572 15.4313 13.8867L15.4138 13.8693Z" fill="#526373"/>
<path d="M16.4352 19.475C16.085 19.2081 15.7757 18.9121 15.5072 18.5639C15.5714 18.4943 15.6181 18.4827 15.6823 18.5697C15.8632 18.8251 16.0558 19.063 16.3535 19.2023C16.4644 19.2487 16.4936 19.359 16.4352 19.475Z" fill="#526373"/>
<path d="M13.0559 18.8953C13.3769 19.1332 13.7037 19.3769 14.0247 19.6148C13.7913 19.6903 13.6395 19.5162 13.4819 19.4175C13.3419 19.3305 13.231 19.1912 13.0851 19.1042C13.0092 19.0636 13.0267 18.9707 13.0559 18.8953Z" fill="#526373"/>
<path d="M19.4001 19.7945C19.4994 19.2954 19.6278 18.8021 19.8496 18.3379C19.8612 18.6629 19.7503 18.9588 19.6219 19.2432C19.5402 19.4231 19.6336 19.6784 19.4001 19.7945Z" fill="#526373"/>
<path d="M22.1376 16.2603C21.8633 16.5678 21.589 16.8812 21.3205 17.1887C21.3322 16.858 21.8108 16.3067 22.1376 16.2603Z" fill="#526373"/>
<path d="M19.7971 12.9467C19.6746 13.2891 19.482 13.5792 19.1551 13.7591C19.1434 13.7475 19.1259 13.7359 19.1143 13.7243C19.3127 13.4399 19.4995 13.1498 19.7563 12.9119C19.768 12.9235 19.7855 12.9351 19.7971 12.9467Z" fill="#526373"/>
<path d="M24.0286 9.33149C23.8768 9.58103 23.7718 9.85958 23.5383 10.0569C23.4916 9.75512 23.7951 9.60424 23.8477 9.3373C23.8593 9.27346 23.9644 9.29668 24.0286 9.33149Z" fill="#526373"/>
<path d="M13.7796 11.2058C13.657 11.5134 13.5228 11.8151 13.3302 12.0879C13.3302 11.8209 13.5345 11.6062 13.5345 11.3335C13.5286 11.2058 13.6687 11.2 13.7796 11.2058Z" fill="#526373"/>
<path d="M17.2873 20.0847C16.9838 19.9164 16.7037 19.7133 16.441 19.4812C16.8321 19.5276 17.0714 19.7888 17.2873 20.0847Z" fill="#526373"/>
<path d="M21.1978 11.5595C21.0986 11.8033 20.8943 11.9251 20.6725 12.0238C20.6608 12.018 20.655 12.0064 20.6433 12.0006C20.7951 11.8207 20.9701 11.664 21.1628 11.5305C21.1744 11.5363 21.1861 11.5479 21.1978 11.5595Z" fill="#526373"/>
<path d="M21.3205 17.1888C21.2037 17.3629 21.087 17.537 20.9703 17.7169C21.0053 17.4848 20.9236 17.1772 21.3205 17.1888Z" fill="#526373"/>
<path d="M22.8846 14.7982C23.0539 14.6647 23.2407 14.5661 23.445 14.479C23.5208 14.6357 23.4158 14.6763 23.299 14.7111C23.159 14.7576 23.0306 14.8272 22.8846 14.7982Z" fill="#526373"/>
<path d="M23.1357 15.4884C22.9781 15.5929 22.8205 15.6973 22.6629 15.8018C22.7096 15.558 22.9372 15.4014 23.1357 15.4884Z" fill="#526373"/>
<path d="M22.6687 15.8018C22.5345 15.9642 22.3594 16.0803 22.1959 16.208C22.2076 15.9004 22.4177 15.8308 22.6687 15.8018Z" fill="#526373"/>
<path d="M20.2116 12.4303C20.1882 12.6102 20.2174 12.8365 19.9139 12.7727C19.9081 12.7669 19.9022 12.7611 19.8906 12.7495C19.9723 12.616 20.0773 12.5115 20.1999 12.4187L20.2116 12.4303Z" fill="#526373"/>
<path d="M17.4625 19.4461C17.2115 19.4635 17.1414 19.272 17.0539 19.0979C17.0597 19.0921 17.0714 19.0805 17.0772 19.0747C17.2173 19.1908 17.3516 19.301 17.4916 19.4171C17.48 19.4287 17.4683 19.4345 17.4625 19.4461Z" fill="#526373"/>
<path d="M20.6142 12.0761C20.55 12.2734 20.4275 12.4069 20.2115 12.4301L20.1998 12.4185C20.3049 12.2734 20.4391 12.1515 20.5792 12.0413C20.5909 12.0529 20.6025 12.0645 20.6142 12.0761Z" fill="#526373"/>
<path d="M15.4955 18.5406C15.4021 18.4071 15.3029 18.2795 15.2095 18.146C15.4663 18.1634 15.513 18.3317 15.4955 18.5406Z" fill="#526373"/>
<path d="M20.9703 17.7109C20.9119 17.8618 20.8419 18.0069 20.7368 18.1288C20.7251 17.9431 20.696 17.74 20.9703 17.7109Z" fill="#526373"/>
<path d="M19.1784 15.1692C19.1259 15.3433 19.0792 15.5232 18.98 15.6799C19.0033 15.4942 18.9508 15.2794 19.1784 15.1692Z" fill="#526373"/>
<path d="M18.157 19.9685C17.9761 19.9452 17.8652 19.8466 17.8068 19.6783L17.8243 19.6609C17.9527 19.7479 18.0753 19.835 18.2037 19.922C18.1862 19.9394 18.1745 19.9568 18.157 19.9685Z" fill="#526373"/>
<path d="M17.5325 20.3456C17.55 20.1657 17.3457 20.1947 17.2874 20.0845C17.3924 20.0961 17.5266 20.0381 17.5967 20.1773C17.6317 20.2528 17.6434 20.3224 17.5325 20.3456Z" fill="#526373"/>
<path d="M17.8068 19.6844C17.6434 19.6728 17.5208 19.609 17.4625 19.4465C17.4683 19.4349 17.48 19.4291 17.4858 19.4175C17.5967 19.4987 17.7076 19.58 17.8243 19.6612L17.8068 19.6844Z" fill="#526373"/>
<path d="M12.7699 18.605C12.8575 18.6688 12.9392 18.7385 12.9917 18.8429C12.7816 18.8893 12.7407 18.7791 12.7699 18.605Z" fill="#526373"/>
<path d="M21.0287 12.6042C20.982 12.7145 20.9003 12.7899 20.8011 12.848C20.7952 12.6913 20.8769 12.6159 21.0287 12.6042Z" fill="#526373"/>
<path d="M23.5676 14.4265C23.661 14.351 23.7602 14.3046 23.8711 14.2698C23.8419 14.4555 23.7193 14.4729 23.5676 14.4265Z" fill="#526373"/>
<path d="M12.3321 18.0415C12.4138 18.0763 12.443 18.146 12.4488 18.2214C12.3204 18.2214 12.3204 18.1344 12.3321 18.0415Z" fill="#526373"/>
<path d="M26.5325 13.3417C26.4858 13.3881 26.4391 13.4287 26.3866 13.4751C26.3983 13.3823 26.3749 13.2662 26.5325 13.3417Z" fill="#526373"/>
<path d="M12.589 18.3787C12.6299 18.4309 12.6708 18.4831 12.7116 18.5411C12.5715 18.5586 12.5599 18.4831 12.589 18.3787Z" fill="#526373"/>
<path d="M19.9139 12.7727C19.9139 12.854 19.8731 12.912 19.7972 12.9468C19.7855 12.9352 19.768 12.9236 19.7563 12.9062C19.7855 12.8424 19.8264 12.7843 19.8906 12.7495C19.8964 12.7611 19.9081 12.7669 19.9139 12.7727Z" fill="#526373"/>
<path d="M21.1452 12.4883C21.1336 12.558 21.0985 12.5986 21.0285 12.6102C21.0227 12.5232 21.0635 12.4825 21.1452 12.4883Z" fill="#526373"/>
<path d="M17.0539 19.0976C17.013 19.057 16.978 19.0222 16.9371 18.9816L16.9488 18.97C16.9897 19.0048 17.0364 19.0396 17.0772 19.0744C17.0655 19.0802 17.0597 19.0918 17.0539 19.0976Z" fill="#526373"/>
<path d="M12.2679 17.8735C12.3321 17.9142 12.3321 17.9838 12.3379 18.0476C12.2504 18.0128 12.2679 17.9432 12.2679 17.8735Z" fill="#526373"/>
<path d="M12.5073 18.2734C12.5364 18.3083 12.5598 18.3431 12.589 18.3837C12.5131 18.3837 12.5073 18.3257 12.5073 18.2734Z" fill="#526373"/>
<path d="M24.8107 19.1563C24.8457 19.133 24.8866 19.1098 24.9216 19.0808C24.91 19.1446 24.8633 19.1505 24.8107 19.1563Z" fill="#526373"/>
<path d="M23.4508 14.4845C23.4858 14.4671 23.5267 14.4439 23.5617 14.4265C23.5617 14.5135 23.515 14.5077 23.4508 14.4845Z" fill="#526373"/>
<path d="M22.2018 16.2021C22.1785 16.2254 22.161 16.2428 22.1376 16.266C22.1551 16.2428 22.1785 16.2196 22.2018 16.2021Z" fill="#526373"/>
<path d="M16.9314 18.9815C16.9138 18.9641 16.8905 18.9409 16.873 18.9235L16.8847 18.9119C16.9022 18.9293 16.9255 18.9467 16.943 18.9641L16.9314 18.9815Z" fill="#526373"/>
<path d="M17.4625 25.0752L17.4742 25.0927L17.4625 25.1102C17.4625 25.0986 17.4625 25.0869 17.4625 25.0752Z" fill="#526373"/>
<path d="M16.873 18.9237C16.8555 18.9063 16.8321 18.8831 16.8146 18.8657L16.8263 18.8599C16.8438 18.8773 16.8672 18.9005 16.8847 18.9179L16.873 18.9237Z" fill="#526373"/>
<path d="M20.6726 12.0181C20.6551 12.0355 20.6318 12.0587 20.6142 12.0761C20.6026 12.0645 20.5909 12.0529 20.5792 12.0413C20.5967 12.0239 20.6201 12.0123 20.6376 11.9949C20.6493 12.0007 20.6609 12.0123 20.6726 12.0181Z" fill="#526373"/>
<path d="M26.5909 13.2772C26.5792 13.2888 26.5676 13.3062 26.5559 13.3178C26.5267 13.2714 26.5442 13.2598 26.5909 13.2772Z" fill="#526373"/>
<path d="M16.8146 18.8655C16.7971 18.8481 16.7737 18.8249 16.7562 18.8075L16.7679 18.7959C16.7854 18.8133 16.8029 18.8365 16.8263 18.8539L16.8146 18.8655Z" fill="#526373"/>
<path d="M12.9859 18.8425C13.0092 18.8599 13.0326 18.8773 13.0501 18.8948C13.0093 18.9064 12.9859 18.8832 12.9859 18.8425Z" fill="#526373"/>
<path d="M16.0033 12.5986C16.0208 12.5811 16.0383 12.5637 16.0617 12.5405L16.0733 12.5521C16.0558 12.5695 16.0325 12.5928 16.015 12.6102L16.0033 12.5986Z" fill="#526373"/>
<path d="M12.7115 18.5469C12.729 18.5643 12.7407 18.5817 12.7582 18.5991C12.7173 18.6107 12.6998 18.5933 12.7115 18.5469Z" fill="#526373"/>
<path d="M19.3301 19.8988C19.3418 19.8871 19.3593 19.8813 19.3768 19.8813C19.371 19.8988 19.371 19.9104 19.3652 19.9278C19.3535 19.9162 19.3418 19.9104 19.3301 19.8988Z" fill="#526373"/>
<path d="M15.0345 10.0105C15.0229 9.98729 15.0112 9.95827 14.9995 9.93506C15.0345 9.94666 15.052 9.96988 15.0345 10.0105Z" fill="#526373"/>
<path d="M16.7562 18.8077C16.7387 18.7903 16.7212 18.7671 16.6979 18.7496L16.7095 18.738C16.7271 18.7554 16.7504 18.7787 16.7679 18.7961L16.7562 18.8077Z" fill="#526373"/>
<path d="M16.7678 18.796C16.7503 18.7786 16.727 18.7554 16.7095 18.738C16.2834 18.2738 15.869 17.8095 15.5772 17.2466C15.0811 16.2775 15.0169 15.2794 15.3379 14.2464C15.3729 14.1246 15.3962 14.0027 15.4254 13.8808C15.618 13.4572 15.8165 13.0336 16.0091 12.6042C16.0266 12.5867 16.0499 12.5635 16.0674 12.5461C16.8204 11.3565 17.7601 10.3061 18.6647 9.23256C18.7581 9.1223 18.834 9.00044 18.9157 8.88438C19.2659 8.46075 19.5869 8.01972 19.8729 7.55547C20.153 7.09703 20.3865 6.61537 20.5674 6.07568C20.7892 6.33102 20.8768 6.60957 20.9818 6.87651C21.4021 7.96749 21.6939 9.08748 21.834 10.2539C21.8865 10.7007 21.8281 11.0721 21.3962 11.3101C21.3087 11.3623 21.2386 11.4493 21.1569 11.519C20.9643 11.6524 20.7892 11.8091 20.6375 11.989C20.62 12.0064 20.5966 12.018 20.5791 12.0354C20.4332 12.1457 20.3048 12.2676 20.1997 12.4127C20.0772 12.5055 19.9721 12.61 19.8904 12.7434C19.8204 12.7782 19.7853 12.8363 19.7562 12.9001C19.4993 13.138 19.3126 13.4282 19.1141 13.7125C17.725 15.7378 17.5674 17.8675 18.548 20.1308C18.4313 20.0611 18.3145 19.9857 18.1978 19.916C18.0694 19.829 17.9468 19.7419 17.8184 19.6549C17.7075 19.5737 17.5966 19.4924 17.4799 19.4112C17.3398 19.2951 17.2056 19.1848 17.0655 19.0688C17.0246 19.034 16.978 18.9991 16.9371 18.9643C16.9196 18.9469 16.8962 18.9295 16.8787 18.9121C16.8612 18.8947 16.8379 18.8715 16.8204 18.8541C16.8087 18.8367 16.7853 18.8193 16.7678 18.796Z" fill="#FDFDFE"/>
</svg>
