<svg width="384" height="196" viewBox="0 0 384 196" fill="none" xmlns="http://www.w3.org/2000/svg">
<g clip-path="url(#clip0_6001_30957)">
<path d="M0 7.99511C0 3.57953 3.57953 0 7.99511 0H376.005C380.42 0 384 3.57953 384 7.99511V196H0V7.99511Z" fill="#091B36"/>
<g clip-path="url(#clip1_6001_30957)">
<g opacity="0.5" filter="url(#filter0_f_6001_30957)">
<ellipse cx="283.472" cy="215.309" rx="117.456" ry="106.375" fill="#0941AB"/>
</g>
<g opacity="0.7" filter="url(#filter1_f_6001_30957)">
<ellipse cx="53.085" cy="-4.49712" rx="100.938" ry="83.449" fill="#0941AB"/>
</g>
</g>
<g clip-path="url(#clip2_6001_30957)">
<path d="M96.2228 83.6519C96.6015 84.3713 96.4121 84.9772 96.147 85.6209C95.7305 86.6812 95.8441 87.7036 96.6015 88.5745C97.3588 89.4833 98.419 89.5969 99.5172 89.3697C101.032 89.0289 101.903 87.59 101.676 85.9996C101.562 85.2423 101.108 84.4849 101.524 83.6519C101.145 83.8412 101.145 83.8412 100.691 84.5985C100.274 84.1063 99.8958 83.5761 99.4414 83.046C99.0628 82.6295 98.6841 82.2508 98.9113 81.5692C98.4569 81.7964 98.2297 82.0993 98.0782 82.478C97.9646 82.8567 97.8889 83.2353 97.8132 83.614C97.7374 83.9927 97.5481 84.3335 97.1694 84.5607C96.9422 84.1441 96.7151 83.8412 96.2228 83.6519Z" fill="white"/>
<path d="M63.9924 105.718V88.2532L61.9338 87.9141V86.2969L67.3019 85.6186L68.214 85.4893V86.1925V92.1282C68.4225 91.9195 68.683 91.6847 68.9957 91.5022C69.2824 91.2935 69.6212 91.1109 69.9599 90.9544C70.3248 90.7979 70.6896 90.6674 71.1065 90.5631C71.5235 90.4588 71.9665 90.4066 72.4355 90.4066C73.2694 90.4066 74.0512 90.537 74.7808 90.8239C75.5105 91.1109 76.162 91.5543 76.7092 92.1543C77.2564 92.7803 77.6994 93.5629 78.0382 94.5541C78.3509 95.5453 78.5333 96.7191 78.5333 98.1538C78.5333 99.3798 78.3509 100.501 77.9861 101.571C77.6213 102.64 77.074 103.527 76.3704 104.31C75.6668 105.092 74.8069 105.692 73.8166 106.136C72.8004 106.579 71.6798 106.814 70.4029 106.814C69.5169 106.814 68.7091 106.762 67.9534 106.684C67.2237 106.605 66.5723 106.501 66.025 106.371C65.4778 106.24 65.0348 106.136 64.696 106.005C64.3573 105.875 64.0967 105.797 63.9924 105.718ZM70.6896 92.9368C70.1163 92.9368 69.6212 93.0412 69.2042 93.2498C68.7873 93.4585 68.4485 93.6933 68.214 93.9541V104.284C68.3443 104.492 68.5788 104.675 68.9436 104.779C69.3085 104.91 69.7515 104.962 70.2205 104.962C70.8459 104.962 71.3932 104.805 71.8362 104.466C72.3052 104.127 72.6701 103.684 72.9828 103.11C73.2955 102.536 73.5039 101.858 73.6603 101.101C73.8166 100.345 73.8948 99.5102 73.8948 98.6494C73.8948 97.7625 73.8427 96.9539 73.7124 96.2235C73.5821 95.5192 73.3997 94.9193 73.1131 94.4237C72.8525 93.928 72.5137 93.5629 72.0968 93.302C71.7319 93.0672 71.2368 92.9368 70.6896 92.9368Z" fill="white"/>
<path d="M80.8084 106.349V104.497L82.7889 104.236V93.6455L80.9126 93.0717V90.9849L85.6033 90.3067H85.6814L86.4111 90.9066V92.0543L86.385 94.1933H86.4371C86.5414 93.9064 86.7498 93.5412 87.0365 93.0977C87.3231 92.6543 87.688 92.2109 88.1049 91.7935C88.5219 91.3761 89.017 91.011 89.5642 90.724C90.1114 90.4371 90.7108 90.2806 91.3623 90.2806C91.6489 90.2806 91.8574 90.2806 92.0137 90.3067C92.1701 90.3327 92.3004 90.3588 92.4046 90.3849V95.1584C92.3004 95.0802 92.0398 95.0019 91.6229 94.9237C91.2059 94.8454 90.6847 94.7933 90.1114 94.7933C89.7987 94.7933 89.46 94.8193 89.1473 94.8454C88.8346 94.8715 88.5219 94.9237 88.2352 95.0019C87.9486 95.0541 87.714 95.1324 87.4795 95.2106C87.245 95.2889 87.0886 95.3671 86.9583 95.4454V104.21L90.372 104.549V106.349H80.8084Z" fill="white"/>
<path d="M95.3273 106.501V104.649L97.3339 104.388V93.7977L95.4837 93.1977V91.137L100.539 90.4588L101.608 90.3532V91.0587V104.362L103.588 104.649V106.501H95.3273Z" fill="white"/>
<path d="M112.775 101.413C111.993 101.413 111.264 101.359 110.617 101.25C110.455 101.413 110.32 101.603 110.212 101.821C110.104 102.038 110.05 102.282 110.05 102.581C110.05 102.907 110.104 103.178 110.239 103.396C110.374 103.586 110.563 103.749 110.833 103.857C111.102 103.966 111.426 104.047 111.858 104.074C112.29 104.102 112.775 104.129 113.342 104.129H116.175C118.225 104.129 119.736 104.482 120.761 105.16C121.76 105.866 122.272 107.007 122.272 108.582C122.272 109.532 122.029 110.428 121.517 111.216C121.031 112.003 120.357 112.655 119.493 113.225C118.657 113.768 117.659 114.202 116.552 114.501C115.446 114.8 114.286 114.963 113.072 114.963H113.045C111.696 114.963 110.563 114.854 109.619 114.61C108.674 114.365 107.892 114.04 107.271 113.632C106.651 113.225 106.219 112.709 105.922 112.139C105.625 111.569 105.491 110.917 105.491 110.238C105.491 109.804 105.572 109.396 105.733 108.989C105.895 108.609 106.111 108.256 106.381 107.93C106.651 107.604 106.948 107.333 107.325 107.088C107.676 106.844 108.054 106.654 108.431 106.518C107.892 106.219 107.46 105.866 107.163 105.432C106.867 104.998 106.732 104.482 106.732 103.884C106.732 103.151 106.921 102.554 107.298 102.038C107.676 101.549 108.162 101.088 108.755 100.707C107.784 100.273 107.082 99.6484 106.624 98.8338C106.165 98.0192 105.922 97.0689 105.922 95.9827C105.922 95.1138 106.111 94.3535 106.489 93.6476C106.867 92.9416 107.406 92.3442 108.054 91.8555C108.728 91.3667 109.484 90.9866 110.374 90.715C111.264 90.4435 112.209 90.3077 113.207 90.3077H113.234C115.608 90.3077 117.362 90.7693 118.522 91.6925C118.657 91.5296 118.846 91.3667 119.062 91.2038C119.277 91.0409 119.547 90.8779 119.844 90.7422C120.141 90.6064 120.465 90.4978 120.815 90.4163C121.166 90.3349 121.544 90.2806 121.948 90.2806H122.623V93.4846H119.817C119.925 93.7833 120.006 94.1092 120.06 94.435C120.114 94.7608 120.141 95.141 120.141 95.5211C120.141 96.39 119.952 97.1775 119.601 97.8835C119.25 98.5894 118.738 99.214 118.09 99.757C117.443 100.273 116.66 100.68 115.77 100.979C114.853 101.278 113.881 101.413 112.775 101.413ZM112.047 107.197C111.426 107.197 110.86 107.143 110.347 107.061C110.158 107.278 109.969 107.55 109.807 107.876C109.646 108.202 109.565 108.69 109.565 109.261C109.565 109.912 109.646 110.455 109.807 110.89C109.969 111.324 110.239 111.704 110.563 111.976C110.887 112.247 111.318 112.465 111.804 112.573C112.29 112.709 112.856 112.763 113.504 112.763H113.531C114.097 112.763 114.664 112.709 115.23 112.573C115.77 112.438 116.283 112.247 116.714 111.976C117.146 111.704 117.497 111.351 117.74 110.944C118.009 110.537 118.144 110.048 118.144 109.505C118.144 109.098 118.09 108.718 118.009 108.419C117.928 108.12 117.767 107.876 117.524 107.686C117.281 107.496 116.984 107.36 116.579 107.278C116.175 107.197 115.662 107.143 115.042 107.143H112.047V107.197ZM113.126 99.5126C113.612 99.5126 114.016 99.404 114.34 99.214C114.664 99.0239 114.907 98.7524 115.096 98.4265C115.284 98.1007 115.392 97.6934 115.473 97.2318C115.554 96.7702 115.581 96.2814 115.581 95.7927C115.581 94.5436 115.392 93.6204 114.988 93.0502C114.583 92.48 113.935 92.2085 112.991 92.2085H112.964C112.074 92.2085 111.426 92.5071 111.022 93.0774C110.617 93.6476 110.401 94.4893 110.401 95.6569C110.401 96.2271 110.455 96.743 110.536 97.2046C110.617 97.6662 110.779 98.0735 110.968 98.4265C111.183 98.7524 111.453 99.0239 111.804 99.214C112.155 99.404 112.586 99.5126 113.126 99.5126Z" fill="white"/>
<path d="M124.149 106.501V104.649L125.843 104.362V88.1027L123.784 87.7636V86.1463L129.127 85.4681L129.437 85.416H130.018L130.065 90.4849L130.018 92.4584C130.252 92.2237 130.403 92.2065 130.794 91.9456C131.185 91.6848 131.576 91.45 132.045 91.2413C132.514 91.0326 133.035 90.8501 133.583 90.6935C134.13 90.5631 134.729 90.4849 135.329 90.4849C136.215 90.4849 136.97 90.6153 137.544 90.8501C138.117 91.0848 138.586 91.4761 138.951 91.9978C139.316 92.5195 139.524 93.1716 139.68 93.9542C139.811 94.7367 139.889 95.6758 139.889 96.7452V104.362L141.817 104.649V106.501H134.13V104.701L135.667 104.388V96.7192C135.667 96.0931 135.641 95.5453 135.563 95.0758C135.511 94.6063 135.381 94.2411 135.198 93.9281C135.016 93.6151 134.781 93.4064 134.469 93.2759C134.156 93.1455 133.739 93.0673 133.244 93.0673C132.957 93.0673 132.671 93.0934 132.358 93.1716C132.045 93.2499 131.758 93.3281 131.498 93.4064C131.211 93.5107 130.951 93.6151 130.716 93.7455C130.482 93.8759 130.273 94.0063 130.091 94.1368V104.388L131.967 104.675V106.527H124.149V106.501Z" fill="white"/>
<path d="M144.878 103.308V93.1868H142.949V91.6217C143.028 91.5957 143.132 91.5696 143.288 91.5174C143.445 91.4652 143.601 91.387 143.783 91.3348C143.94 91.2826 144.096 91.2044 144.252 91.1522C144.409 91.1 144.487 91.0479 144.513 91.0218C144.826 90.787 145.138 90.3436 145.477 89.6915C145.581 89.5089 145.66 89.3002 145.79 89.0393C145.92 88.7785 145.998 88.5437 146.103 88.2829C146.207 88.022 146.311 87.7612 146.389 87.5003C146.493 87.2395 146.546 87.0047 146.624 86.796H149.073L149.125 90.8653H153.165V93.2129H149.125V100.83C149.125 101.56 149.125 102.134 149.151 102.577C149.178 103.021 149.23 103.334 149.308 103.543C149.386 103.751 149.542 103.908 149.725 103.96C149.907 104.012 150.168 104.064 150.48 104.064H150.507C150.715 104.064 150.95 104.038 151.21 104.012C151.445 103.986 151.679 103.934 151.914 103.882C152.148 103.829 152.357 103.777 152.565 103.725C152.774 103.673 152.93 103.621 153.06 103.569H153.086L153.738 105.186C153.451 105.395 153.139 105.603 152.722 105.812C152.305 106.021 151.888 106.203 151.393 106.386C150.897 106.568 150.402 106.699 149.855 106.803C149.308 106.907 148.787 106.96 148.239 106.96H148.213C147.614 106.96 147.093 106.881 146.676 106.725C146.259 106.568 145.894 106.334 145.634 106.021C145.373 105.708 145.191 105.342 145.06 104.873C144.93 104.403 144.878 103.908 144.878 103.308Z" fill="white"/>
</g>
<path d="M205.824 101.022V95.5101H195.588V85.2739H190.076V95.5101H179.84V101.022H190.076V111.258H195.588V101.022H205.824Z" fill="#62788A"/>
<g filter="url(#filter2_d_6001_30957)">
<path d="M276.107 143.564C301.144 143.564 321.405 123.304 321.405 98.266C321.405 73.2284 301.144 52.9677 276.107 52.9677C251.069 52.9677 230.809 73.2284 230.809 98.266C230.809 123.304 251.069 143.564 276.107 143.564Z" fill="url(#paint0_linear_6001_30957)" shape-rendering="crispEdges"/>
<path d="M276.107 144.574C301.702 144.574 322.415 123.861 322.415 98.266C322.415 72.6707 301.702 51.9579 276.107 51.9579C250.511 51.9579 229.799 72.6707 229.799 98.266C229.799 123.861 250.511 144.574 276.107 144.574Z" stroke="url(#paint1_linear_6001_30957)" stroke-width="2.01962" style="mix-blend-mode:overlay" shape-rendering="crispEdges"/>
</g>
<path d="M292.854 100.694H259.156V98.7936C259.156 97.5166 260.191 96.4815 261.468 96.4815H290.542C291.819 96.4815 292.854 97.5166 292.854 98.7936V100.694Z" fill="#DFDEDF"/>
<path d="M290.507 122.733H261.503C260.207 122.733 259.156 121.682 259.156 120.386V100.694H292.854V120.386C292.854 121.682 291.803 122.733 290.507 122.733Z" fill="white"/>
<path d="M292.436 100.311V98.6071C292.436 97.601 291.62 96.7853 290.614 96.7853H261.448C260.442 96.7853 259.626 97.601 259.626 98.6071V100.311H292.436ZM292.436 120.628V101.076H259.626V120.628C259.626 121.635 260.442 122.45 261.448 122.45H290.614C291.62 122.45 292.436 121.635 292.436 120.628ZM261.619 96.0211L261.732 94.7823L261.25 96.0311C261.316 96.0261 261.381 96.0211 261.448 96.0211H261.619ZM290.243 93.9327L290.411 96.0211H290.614C290.722 96.0211 290.829 96.03 290.934 96.043L290.243 93.9327ZM292.556 96.9056C292.956 97.3609 293.2 97.9553 293.2 98.6071V120.628C293.2 122.054 292.04 123.214 290.614 123.214H261.448C260.022 123.214 258.862 122.054 258.862 120.628V98.6071C258.862 97.916 259.136 97.289 259.579 96.8245L262.157 90.1423L263.281 77.8618L264.549 77.9779L263.537 89.0428L263.893 89.1804L263.409 90.4357L262.898 96.0211H289.133L287.678 77.9473L288.947 77.8449L289.806 88.5044L289.806 88.5043L292.556 96.9056ZM261.699 98.031C262.018 98.031 262.277 98.2893 262.277 98.608C262.277 98.9267 262.018 99.1851 261.699 99.1851C261.381 99.1851 261.122 98.9267 261.122 98.608C261.122 98.2893 261.381 98.031 261.699 98.031ZM263.672 98.031C263.991 98.031 264.249 98.2893 264.249 98.608C264.249 98.9267 263.991 99.1851 263.672 99.1851C263.354 99.1851 263.095 98.9267 263.095 98.608C263.095 98.2893 263.354 98.031 263.672 98.031ZM265.583 98.031C265.902 98.031 266.16 98.2893 266.16 98.608C266.16 98.9267 265.902 99.1851 265.583 99.1851C265.264 99.1851 265.006 98.9267 265.006 98.608C265.006 98.2893 265.264 98.031 265.583 98.031Z" fill="black"/>
<path d="M263.693 110.553C263.792 110.438 263.845 110.287 263.845 110.1C263.845 109.913 263.792 109.768 263.693 109.653C263.589 109.539 263.443 109.484 263.255 109.484H262.337V110.722H263.255C263.443 110.722 263.589 110.667 263.693 110.553ZM263.255 108.742C263.651 108.742 263.965 108.863 264.199 109.11C264.434 109.358 264.549 109.69 264.549 110.1C264.549 110.516 264.434 110.842 264.205 111.09C263.97 111.337 263.657 111.464 263.255 111.464H262.337V113.129H261.627V108.742H263.255ZM267.084 111.433V110.153H267.848V113.042H267.084V112.782C266.852 113.013 266.551 113.129 266.175 113.129C265.827 113.129 265.549 113.013 265.335 112.787C265.121 112.562 265.017 112.272 265.017 111.913V110.153H265.781V111.751C265.781 111.954 265.833 112.122 265.943 112.243C266.047 112.365 266.186 112.429 266.366 112.429C266.846 112.429 267.084 112.098 267.084 111.433ZM270.83 112.226C270.98 112.069 271.055 111.861 271.055 111.601C271.055 111.34 270.98 111.126 270.83 110.969C270.673 110.813 270.482 110.732 270.245 110.732C270.031 110.732 269.84 110.813 269.672 110.975C269.504 111.137 269.423 111.346 269.423 111.601C269.423 111.855 269.504 112.064 269.672 112.22C269.84 112.382 270.031 112.463 270.245 112.463C270.482 112.463 270.673 112.382 270.83 112.226ZM270.378 110.066C270.754 110.066 271.09 110.211 271.374 110.5C271.658 110.796 271.796 111.16 271.796 111.601C271.796 112.04 271.658 112.405 271.374 112.695C271.09 112.984 270.76 113.129 270.378 113.129C270.002 113.129 269.683 113.025 269.423 112.816V114.421H268.658V110.153H269.423V110.385C269.677 110.17 269.996 110.066 270.378 110.066ZM274.546 112.226C274.697 112.069 274.772 111.861 274.772 111.601C274.772 111.34 274.697 111.126 274.546 110.969C274.39 110.813 274.199 110.732 273.962 110.732C273.747 110.732 273.556 110.813 273.388 110.975C273.221 111.137 273.139 111.346 273.139 111.601C273.139 111.855 273.221 112.064 273.388 112.22C273.556 112.382 273.747 112.463 273.962 112.463C274.199 112.463 274.39 112.382 274.546 112.226ZM274.095 110.066C274.471 110.066 274.807 110.211 275.091 110.5C275.374 110.796 275.513 111.16 275.513 111.601C275.513 112.04 275.374 112.405 275.091 112.695C274.807 112.984 274.477 113.129 274.095 113.129C273.718 113.129 273.4 113.025 273.139 112.816V114.421H272.375V110.153H273.139V110.385C273.394 110.17 273.713 110.066 274.095 110.066ZM276.642 111.265H278.037C277.991 111.085 277.904 110.952 277.783 110.865C277.661 110.778 277.517 110.732 277.354 110.732C277.198 110.732 277.047 110.778 276.914 110.871C276.775 110.964 276.683 111.097 276.642 111.265ZM277.354 110.066C277.748 110.066 278.09 110.205 278.373 110.477C278.657 110.755 278.802 111.108 278.819 111.543V111.803H276.619C276.66 112.006 276.746 112.168 276.88 112.29C277.013 112.411 277.163 112.475 277.343 112.475C277.673 112.475 277.91 112.347 278.061 112.093L278.744 112.237C278.622 112.533 278.437 112.753 278.194 112.903C277.951 113.054 277.667 113.129 277.343 113.129C276.926 113.129 276.573 112.984 276.289 112.701C276.005 112.417 275.86 112.046 275.86 111.601C275.86 111.155 276.005 110.784 276.295 110.495C276.578 110.211 276.932 110.066 277.354 110.066ZM280.927 112.417C281.071 112.417 281.233 112.371 281.407 112.278L281.627 112.915C281.361 113.06 281.112 113.129 280.874 113.129C280.521 113.129 280.243 113.031 280.041 112.839C279.838 112.649 279.74 112.365 279.74 111.977V110.778H279.12V110.153H279.74V109.279H280.504V110.153H281.448V110.778H280.504V111.919C280.504 112.249 280.643 112.417 280.927 112.417ZM282.53 111.265H283.925C283.879 111.085 283.792 110.952 283.671 110.865C283.549 110.778 283.404 110.732 283.242 110.732C283.086 110.732 282.935 110.778 282.802 110.871C282.663 110.964 282.571 111.097 282.53 111.265ZM283.242 110.066C283.636 110.066 283.978 110.205 284.261 110.477C284.545 110.755 284.69 111.108 284.707 111.543V111.803H282.507C282.547 112.006 282.634 112.168 282.768 112.29C282.901 112.411 283.051 112.475 283.231 112.475C283.561 112.475 283.798 112.347 283.949 112.093L284.632 112.237C284.51 112.533 284.325 112.753 284.082 112.903C283.839 113.054 283.555 113.129 283.231 113.129C282.814 113.129 282.461 112.984 282.177 112.701C281.893 112.417 281.748 112.046 281.748 111.601C281.748 111.155 281.893 110.784 282.183 110.495C282.466 110.211 282.82 110.066 283.242 110.066ZM285.963 111.265H287.359C287.312 111.085 287.225 110.952 287.104 110.865C286.982 110.778 286.838 110.732 286.675 110.732C286.519 110.732 286.369 110.778 286.235 110.871C286.096 110.964 286.004 111.097 285.963 111.265ZM286.675 110.066C287.069 110.066 287.411 110.205 287.694 110.477C287.978 110.755 288.123 111.108 288.14 111.543V111.803H285.94C285.981 112.006 286.067 112.168 286.201 112.29C286.334 112.411 286.484 112.475 286.664 112.475C286.994 112.475 287.231 112.347 287.382 112.093L288.065 112.237C287.943 112.533 287.758 112.753 287.515 112.903C287.272 113.054 286.988 113.129 286.664 113.129C286.247 113.129 285.894 112.984 285.61 112.701C285.326 112.417 285.181 112.046 285.181 111.601C285.181 111.155 285.326 110.784 285.616 110.495C285.899 110.211 286.253 110.066 286.675 110.066ZM290.52 110.112C290.607 110.112 290.676 110.118 290.723 110.136L290.682 110.871H290.514C289.825 110.871 289.483 111.282 289.483 112.11V113.042H288.719V110.153H289.483V110.68C289.744 110.303 290.091 110.112 290.52 110.112Z" fill="black"/>
<path d="M287.177 89.7477L291.301 87.757V85.7664L281.774 81.2164L291.301 76.3109V74.3915L287.319 72.543L276.039 78.1593L264.569 72.543L260.873 74.5337V76.2399L269.83 81.1453L260.873 85.6953V87.757L264.712 89.7477L276.087 83.9179L287.177 89.7477Z" fill="#00D8A2"/>
<path d="M287.693 88.9355V88.0781L290.797 86.4697V87.4328L287.693 88.9355ZM261.122 86.4471L264.121 88.1689V88.8543L261.122 87.337V86.4471ZM276.484 82.8263L286.802 87.9241V88.9491L276.484 83.6636V82.8263ZM265.012 88.0732L275.593 82.8274V83.6633L265.012 89.0163V88.0732ZM272.504 79.5014L261.797 74.3322L264.57 72.9228L276.039 78.8681L287.315 72.9254L290.186 74.3959L279.745 79.6505C279.327 79.8605 279.328 80.4567 279.746 80.6658L290.079 85.8376L287.401 87.2255L276.039 81.4037L264.475 87.3444L261.834 85.8282L272.51 80.5217C272.933 80.3115 272.929 79.7068 272.504 79.5014ZM261.255 76.0836V75.1428L271.241 80.1248L270.231 80.5281L261.255 76.0836ZM281.731 80.5835C281.717 80.5752 280.775 80.1304 280.775 80.1304L290.797 75.0863V76.0313L281.731 80.5835ZM282.734 81.0775L291.543 76.6543C291.633 76.6095 291.689 76.5182 291.689 76.4184V74.3255C291.689 74.2264 291.633 74.1357 291.545 74.0905L287.436 71.9859C287.361 71.9474 287.272 71.9473 287.197 71.9855L276.157 77.5875C276.083 77.6253 275.995 77.6257 275.92 77.5883L264.686 71.9839C264.611 71.9466 264.523 71.947 264.448 71.9848L260.374 74.0551C260.286 74.1001 260.23 74.1911 260.23 74.2905V76.4172C260.23 76.5176 260.287 76.6094 260.377 76.6539L269.223 81.0245L260.418 85.3966C260.33 85.4405 260.273 85.5297 260.272 85.6283L260.233 87.7195C260.231 87.8208 260.287 87.9142 260.378 87.9599L264.608 90.1001C264.683 90.1378 264.771 90.138 264.846 90.1004L275.919 84.5399C275.994 84.5022 276.083 84.5025 276.157 84.5404L287.093 90.1008C287.167 90.1381 287.254 90.139 287.328 90.1031L291.54 88.0639C291.631 88.0197 291.689 87.9274 291.689 87.8263V85.6413C291.689 85.5405 291.632 85.4487 291.541 85.4043L282.734 81.0775Z" fill="black"/>
</g>
<defs>
<filter id="filter0_f_6001_30957" x="31.5939" y="-25.4885" width="503.756" height="481.594" filterUnits="userSpaceOnUse" color-interpolation-filters="sRGB">
<feFlood flood-opacity="0" result="BackgroundImageFix"/>
<feBlend mode="normal" in="SourceGraphic" in2="BackgroundImageFix" result="shape"/>
<feGaussianBlur stdDeviation="67.211" result="effect1_foregroundBlur_6001_30957"/>
</filter>
<filter id="filter1_f_6001_30957" x="-267.52" y="-307.613" width="641.211" height="606.232" filterUnits="userSpaceOnUse" color-interpolation-filters="sRGB">
<feFlood flood-opacity="0" result="BackgroundImageFix"/>
<feBlend mode="normal" in="SourceGraphic" in2="BackgroundImageFix" result="shape"/>
<feGaussianBlur stdDeviation="109.834" result="effect1_foregroundBlur_6001_30957"/>
</filter>
<filter id="filter2_d_6001_30957" x="216.846" y="46.3299" width="118.521" height="118.521" filterUnits="userSpaceOnUse" color-interpolation-filters="sRGB">
<feFlood flood-opacity="0" result="BackgroundImageFix"/>
<feColorMatrix in="SourceAlpha" type="matrix" values="0 0 0 0 0 0 0 0 0 0 0 0 0 0 0 0 0 0 127 0" result="hardAlpha"/>
<feOffset dy="7.32448"/>
<feGaussianBlur stdDeviation="5.97134"/>
<feComposite in2="hardAlpha" operator="out"/>
<feColorMatrix type="matrix" values="0 0 0 0 0 0 0 0 0 0 0 0 0 0 0 0 0 0 0.28 0"/>
<feBlend mode="normal" in2="BackgroundImageFix" result="effect1_dropShadow_6001_30957"/>
<feBlend mode="normal" in="SourceGraphic" in2="effect1_dropShadow_6001_30957" result="shape"/>
</filter>
<linearGradient id="paint0_linear_6001_30957" x1="291.961" y1="143.564" x2="201.064" y2="23.6598" gradientUnits="userSpaceOnUse">
<stop stop-color="#0F2D58"/>
<stop offset="1" stop-color="#0E346B"/>
</linearGradient>
<linearGradient id="paint1_linear_6001_30957" x1="235.687" y1="67.0295" x2="266.972" y2="135.087" gradientUnits="userSpaceOnUse">
<stop stop-color="#225FCC"/>
<stop offset="0.352567" stop-color="#194398"/>
<stop offset="0.646925" stop-color="#194398" stop-opacity="0.79"/>
<stop offset="1" stop-color="#225FCC" stop-opacity="0.54"/>
</linearGradient>
<clipPath id="clip0_6001_30957">
<path d="M0 7.99511C0 3.57953 3.57953 0 7.99511 0H376.005C380.42 0 384 3.57953 384 7.99511V196H0V7.99511Z" fill="white"/>
</clipPath>
<clipPath id="clip1_6001_30957">
<rect width="383.765" height="196.204" fill="white" transform="translate(0.11731)"/>
</clipPath>
<clipPath id="clip2_6001_30957">
<rect width="92.9212" height="33.3936" fill="white" transform="translate(61.9338 81.5692)"/>
</clipPath>
</defs>
</svg>
