<svg width="385" height="198" viewBox="0 0 385 198" fill="none" xmlns="http://www.w3.org/2000/svg">
<g clip-path="url(#clip0_6001_31086)">
<path d="M0.927002 8.96581C0.927002 4.55024 4.50654 0.970703 8.92211 0.970703H376.697C381.113 0.970703 384.692 4.55024 384.692 8.96582V197.175H0.927002V8.96581Z" fill="#091B36"/>
<g clip-path="url(#clip1_6001_31086)">
<g opacity="0.5" filter="url(#filter0_f_6001_31086)">
<ellipse cx="284.281" cy="216.279" rx="117.456" ry="106.375" fill="#0941AB"/>
</g>
<g opacity="0.7" filter="url(#filter1_f_6001_31086)">
<ellipse cx="53.8947" cy="-3.5266" rx="100.938" ry="83.449" fill="#0941AB"/>
</g>
</g>
<g clip-path="url(#clip2_6001_31086)">
<path d="M97.1498 84.6223C97.5285 85.3418 97.3391 85.9477 97.0741 86.5914C96.6575 87.6516 96.7711 88.674 97.5285 89.545C98.2858 90.4538 99.346 90.5674 100.444 90.3402C101.959 89.9994 102.83 88.5604 102.603 86.97C102.489 86.2127 102.035 85.4554 102.451 84.6223C102.072 84.8117 102.072 84.8117 101.618 85.569C101.201 85.0767 100.823 84.5466 100.368 84.0165C99.9898 83.5999 99.6111 83.2213 99.8383 82.5397C99.3839 82.7669 99.1567 83.0698 99.0052 83.4485C98.8916 83.8271 98.8159 84.2058 98.7402 84.5845C98.6644 84.9631 98.4751 85.3039 98.0965 85.5311C97.8693 85.1146 97.6421 84.8117 97.1498 84.6223Z" fill="white"/>
<path d="M64.9194 106.689V89.2237L62.8608 88.8846V87.2674L68.2289 86.5891L69.141 86.4598V87.163V93.0987C69.3495 92.89 69.61 92.6552 69.9227 92.4727C70.2094 92.264 70.5482 92.0814 70.8869 91.9249C71.2518 91.7684 71.6166 91.6379 72.0335 91.5336C72.4505 91.4293 72.8935 91.3771 73.3625 91.3771C74.1964 91.3771 74.9782 91.5075 75.7078 91.7944C76.4375 92.0814 77.089 92.5248 77.6362 93.1248C78.1834 93.7508 78.6264 94.5334 78.9652 95.5246C79.2779 96.5158 79.4603 97.6896 79.4603 99.1243C79.4603 100.35 79.2779 101.472 78.9131 102.541C78.5483 103.611 78.001 104.498 77.2974 105.28C76.5938 106.063 75.7339 106.663 74.7437 107.106C73.7274 107.55 72.6068 107.784 71.3299 107.784C70.4439 107.784 69.6361 107.732 68.8804 107.654C68.1507 107.576 67.4993 107.471 66.952 107.341C66.4048 107.211 65.9618 107.106 65.623 106.976C65.2843 106.845 65.0237 106.767 64.9194 106.689ZM71.6166 93.9073C71.0433 93.9073 70.5482 94.0117 70.1312 94.2203C69.7143 94.429 69.3755 94.6638 69.141 94.9246V105.254C69.2713 105.463 69.5058 105.646 69.8706 105.75C70.2355 105.88 70.6785 105.932 71.1475 105.932C71.7729 105.932 72.3202 105.776 72.7632 105.437C73.2322 105.098 73.5971 104.654 73.9098 104.08C74.2225 103.507 74.4309 102.828 74.5873 102.072C74.7437 101.315 74.8218 100.481 74.8218 99.6199C74.8218 98.733 74.7697 97.9244 74.6394 97.194C74.5091 96.4897 74.3267 95.8898 74.0401 95.3942C73.7795 94.8985 73.4407 94.5334 73.0238 94.2725C72.6589 94.0377 72.1638 93.9073 71.6166 93.9073Z" fill="white"/>
<path d="M81.7354 107.319V105.467L83.7159 105.206V94.6159L81.8396 94.0421V91.9553L86.5303 91.2771H86.6084L87.3381 91.877V93.0247L87.312 95.1637H87.3641C87.4684 94.8768 87.6768 94.5116 87.9635 94.0681C88.2501 93.6247 88.615 93.1813 89.0319 92.7639C89.4489 92.3465 89.944 91.9814 90.4912 91.6944C91.0384 91.4075 91.6378 91.251 92.2893 91.251C92.5759 91.251 92.7844 91.251 92.9407 91.2771C93.0971 91.3031 93.2274 91.3292 93.3316 91.3553V96.1288C93.2274 96.0506 92.9668 95.9723 92.5499 95.8941C92.1329 95.8158 91.6117 95.7637 91.0384 95.7637C90.7257 95.7637 90.387 95.7897 90.0743 95.8158C89.7616 95.8419 89.4489 95.8941 89.1622 95.9723C88.8756 96.0245 88.641 96.1028 88.4065 96.181C88.172 96.2593 88.0156 96.3375 87.8853 96.4158V105.18L91.299 105.519V107.319H81.7354Z" fill="white"/>
<path d="M96.2543 107.471V105.619L98.2609 105.359V94.7681L96.4107 94.1682V92.1074L101.466 91.4292L102.535 91.3236V92.0292V105.332L104.515 105.619V107.471H96.2543Z" fill="white"/>
<path d="M113.702 102.384C112.92 102.384 112.191 102.329 111.544 102.221C111.382 102.384 111.247 102.574 111.139 102.791C111.031 103.008 110.977 103.253 110.977 103.551C110.977 103.877 111.031 104.149 111.166 104.366C111.301 104.556 111.49 104.719 111.76 104.828C112.029 104.936 112.353 105.018 112.785 105.045C113.217 105.072 113.702 105.099 114.269 105.099H117.102C119.152 105.099 120.663 105.452 121.688 106.131C122.687 106.837 123.199 107.977 123.199 109.552C123.199 110.503 122.956 111.399 122.444 112.186C121.958 112.973 121.284 113.625 120.42 114.195C119.584 114.738 118.586 115.173 117.479 115.472C116.373 115.77 115.213 115.933 113.999 115.933H113.972C112.623 115.933 111.49 115.825 110.546 115.58C109.601 115.336 108.819 115.01 108.198 114.603C107.578 114.195 107.146 113.679 106.849 113.109C106.553 112.539 106.418 111.887 106.418 111.209C106.418 110.774 106.499 110.367 106.66 109.959C106.822 109.579 107.038 109.226 107.308 108.901C107.578 108.575 107.875 108.303 108.252 108.059C108.603 107.814 108.981 107.624 109.358 107.489C108.819 107.19 108.387 106.837 108.09 106.402C107.794 105.968 107.659 105.452 107.659 104.855C107.659 104.122 107.848 103.524 108.225 103.008C108.603 102.52 109.089 102.058 109.682 101.678C108.711 101.243 108.009 100.619 107.551 99.8042C107.092 98.9896 106.849 98.0393 106.849 96.9531C106.849 96.0842 107.038 95.3239 107.416 94.618C107.794 93.912 108.333 93.3146 108.981 92.8259C109.655 92.3371 110.411 91.957 111.301 91.6854C112.191 91.4139 113.136 91.2781 114.134 91.2781H114.161C116.535 91.2781 118.289 91.7397 119.449 92.6629C119.584 92.5 119.773 92.3371 119.989 92.1742C120.204 92.0113 120.474 91.8483 120.771 91.7126C121.068 91.5768 121.392 91.4682 121.742 91.3867C122.093 91.3053 122.471 91.251 122.875 91.251H123.55V94.455H120.744C120.852 94.7537 120.933 95.0796 120.987 95.4054C121.041 95.7312 121.068 96.1114 121.068 96.4915C121.068 97.3604 120.879 98.1479 120.528 98.8539C120.177 99.5598 119.665 100.184 119.017 100.727C118.37 101.243 117.587 101.651 116.697 101.949C115.78 102.248 114.808 102.384 113.702 102.384ZM112.974 108.167C112.353 108.167 111.787 108.113 111.274 108.032C111.085 108.249 110.896 108.52 110.734 108.846C110.573 109.172 110.492 109.661 110.492 110.231C110.492 110.883 110.573 111.426 110.734 111.86C110.896 112.295 111.166 112.675 111.49 112.946C111.814 113.218 112.245 113.435 112.731 113.544C113.217 113.679 113.783 113.734 114.431 113.734H114.458C115.024 113.734 115.591 113.679 116.157 113.544C116.697 113.408 117.21 113.218 117.641 112.946C118.073 112.675 118.424 112.322 118.667 111.915C118.936 111.507 119.071 111.018 119.071 110.475C119.071 110.068 119.017 109.688 118.936 109.389C118.855 109.091 118.694 108.846 118.451 108.656C118.208 108.466 117.911 108.33 117.506 108.249C117.102 108.167 116.589 108.113 115.969 108.113H112.974V108.167ZM114.053 100.483C114.539 100.483 114.943 100.374 115.267 100.184C115.591 99.9943 115.834 99.7228 116.023 99.3969C116.211 99.0711 116.319 98.6638 116.4 98.2022C116.481 97.7406 116.508 97.2518 116.508 96.7631C116.508 95.514 116.319 94.5908 115.915 94.0206C115.51 93.4504 114.862 93.1788 113.918 93.1788H113.891C113.001 93.1788 112.353 93.4775 111.949 94.0477C111.544 94.618 111.328 95.4597 111.328 96.6273C111.328 97.1975 111.382 97.7134 111.463 98.175C111.544 98.6366 111.706 99.0439 111.895 99.3969C112.11 99.7228 112.38 99.9943 112.731 100.184C113.082 100.374 113.513 100.483 114.053 100.483Z" fill="white"/>
<path d="M125.076 107.471V105.619L126.77 105.332V89.0731L124.711 88.734V87.1167L130.054 86.4385L130.364 86.3864H130.945L130.992 91.4553L130.945 93.4288C131.179 93.1941 131.33 93.1769 131.721 92.916C132.112 92.6552 132.503 92.4204 132.972 92.2117C133.441 92.003 133.962 91.8205 134.51 91.6639C135.057 91.5335 135.656 91.4553 136.256 91.4553C137.142 91.4553 137.897 91.5857 138.471 91.8205C139.044 92.0552 139.513 92.4465 139.878 92.9682C140.243 93.4899 140.451 94.142 140.607 94.9246C140.738 95.7071 140.816 96.6462 140.816 97.7156V105.332L142.744 105.619V107.471H135.057V105.672L136.594 105.359V97.6896C136.594 97.0635 136.568 96.5157 136.49 96.0462C136.438 95.5767 136.308 95.2115 136.125 94.8985C135.943 94.5855 135.708 94.3768 135.396 94.2463C135.083 94.1159 134.666 94.0377 134.171 94.0377C133.884 94.0377 133.598 94.0638 133.285 94.142C132.972 94.2203 132.685 94.2985 132.425 94.3768C132.138 94.4811 131.878 94.5855 131.643 94.7159C131.409 94.8463 131.2 94.9767 131.018 95.1072V105.359L132.894 105.645V107.497H125.076V107.471Z" fill="white"/>
<path d="M145.805 104.278V94.1573H143.876V92.5922C143.955 92.5661 144.059 92.54 144.215 92.4878C144.372 92.4357 144.528 92.3574 144.71 92.3052C144.867 92.2531 145.023 92.1748 145.179 92.1227C145.336 92.0705 145.414 92.0183 145.44 91.9922C145.753 91.7575 146.065 91.314 146.404 90.6619C146.508 90.4793 146.587 90.2706 146.717 90.0098C146.847 89.7489 146.925 89.5142 147.03 89.2533C147.134 88.9925 147.238 88.7316 147.316 88.4708C147.42 88.2099 147.473 87.9752 147.551 87.7665H150L150.052 91.8357H154.092V94.1834H150.052V101.8C150.052 102.531 150.052 103.104 150.078 103.548C150.105 103.991 150.157 104.304 150.235 104.513C150.313 104.722 150.469 104.878 150.652 104.93C150.834 104.982 151.095 105.035 151.407 105.035H151.434C151.642 105.035 151.877 105.009 152.137 104.982C152.372 104.956 152.606 104.904 152.841 104.852C153.075 104.8 153.284 104.748 153.492 104.696C153.701 104.643 153.857 104.591 153.987 104.539H154.013L154.665 106.156C154.378 106.365 154.066 106.574 153.649 106.782C153.232 106.991 152.815 107.174 152.32 107.356C151.824 107.539 151.329 107.669 150.782 107.774C150.235 107.878 149.714 107.93 149.166 107.93H149.14C148.541 107.93 148.02 107.852 147.603 107.695C147.186 107.539 146.821 107.304 146.561 106.991C146.3 106.678 146.118 106.313 145.987 105.843C145.857 105.374 145.805 104.878 145.805 104.278Z" fill="white"/>
</g>
<path d="M206.751 101.992V96.4806H196.515V86.2444H191.003V96.4806H180.767V101.992H191.003V112.229H196.515V101.992H206.751Z" fill="#62788A"/>
<g filter="url(#filter2_d_6001_31086)">
<path d="M277.034 144.535C302.071 144.535 322.332 124.274 322.332 99.2365C322.332 74.1989 302.071 53.9382 277.034 53.9382C251.996 53.9382 231.736 74.1989 231.736 99.2365C231.736 124.274 251.996 144.535 277.034 144.535Z" fill="url(#paint0_linear_6001_31086)" shape-rendering="crispEdges"/>
<path d="M277.034 145.545C302.629 145.545 323.342 124.832 323.342 99.2365C323.342 73.6412 302.629 52.9284 277.034 52.9284C251.439 52.9284 230.726 73.6412 230.726 99.2365C230.726 124.832 251.439 145.545 277.034 145.545Z" stroke="url(#paint1_linear_6001_31086)" stroke-width="2.01962" style="mix-blend-mode:overlay" shape-rendering="crispEdges"/>
</g>
<path d="M283.001 104.873C282.237 104.85 281.493 105.114 280.916 105.615C280.339 106.115 279.971 106.813 279.886 107.572C279.882 107.587 279.882 107.602 279.885 107.617C279.888 107.632 279.895 107.646 279.904 107.658C279.914 107.67 279.926 107.679 279.939 107.686C279.953 107.692 279.968 107.695 279.984 107.694H286.03C286.044 107.695 286.058 107.692 286.07 107.686C286.083 107.68 286.094 107.672 286.104 107.662C286.113 107.651 286.12 107.639 286.124 107.626C286.128 107.612 286.129 107.598 286.128 107.585C286.068 106.812 285.706 106.094 285.121 105.586C284.536 105.079 283.774 104.822 283.001 104.873Z" fill="#5FBB49"/>
<path d="M295.96 84.5963L283.134 98.9976C283.098 99.0372 283.053 99.0687 283.004 99.0904C282.954 99.112 282.901 99.1231 282.847 99.1231C282.793 99.1231 282.74 99.112 282.69 99.0904C282.641 99.0687 282.597 99.0372 282.56 98.9976L276.013 92.2428C275.957 92.1735 275.927 92.0873 275.927 91.9985C275.927 91.9097 275.957 91.8235 276.013 91.7542L278.175 88.9814C278.211 88.931 278.259 88.8899 278.314 88.8616C278.369 88.8332 278.431 88.8184 278.493 88.8184C278.555 88.8184 278.616 88.8332 278.671 88.8616C278.726 88.8899 278.774 88.931 278.81 88.9814L282.475 93.0367C282.511 93.0804 282.557 93.1155 282.609 93.1396C282.66 93.1637 282.717 93.1762 282.774 93.1762C282.831 93.1762 282.887 93.1637 282.939 93.1396C282.991 93.1155 283.036 93.0804 283.073 93.0367L293.285 79.0386C293.313 78.9972 293.33 78.949 293.333 78.899C293.337 78.8489 293.327 78.7988 293.304 78.7539C293.282 78.709 293.248 78.671 293.206 78.6437C293.164 78.6165 293.115 78.601 293.065 78.5989H257.105C257.024 78.5989 256.946 78.631 256.889 78.6883C256.831 78.7456 256.799 78.8233 256.799 78.9042V119.824C256.799 119.905 256.831 119.982 256.889 120.04C256.946 120.097 257.024 120.129 257.105 120.129H296.192C296.273 120.129 296.35 120.097 296.408 120.04C296.465 119.982 296.497 119.905 296.497 119.824V84.7796C296.521 84.7083 296.516 84.6303 296.483 84.5627C296.45 84.4951 296.391 84.4435 296.32 84.4192C296.249 84.3949 296.171 84.3999 296.103 84.4331C296.036 84.4664 295.984 84.5251 295.96 84.5963ZM267.866 115.573C265.3 115.702 262.784 114.826 260.854 113.13C260.793 113.061 260.76 112.972 260.76 112.88C260.76 112.787 260.793 112.698 260.854 112.629L262.381 110.492C262.406 110.448 262.44 110.41 262.48 110.379C262.521 110.348 262.567 110.326 262.616 110.314C262.665 110.301 262.715 110.299 262.765 110.306C262.815 110.314 262.863 110.331 262.907 110.357C264.301 111.65 266.135 112.366 268.037 112.361C270.04 112.361 271.017 111.432 271.017 110.455C271.017 107.426 261.148 109.502 261.148 103.053C261.148 100.207 263.591 97.8371 267.646 97.8371C269.973 97.7544 272.251 98.5182 274.059 99.9869C274.127 100.058 274.164 100.152 274.164 100.25C274.164 100.348 274.127 100.442 274.059 100.512L272.556 102.601C272.525 102.642 272.486 102.677 272.441 102.703C272.396 102.729 272.346 102.745 272.295 102.751C272.243 102.756 272.191 102.751 272.141 102.736C272.092 102.721 272.046 102.696 272.007 102.662C270.674 101.603 269.018 101.034 267.316 101.05C265.753 101.05 264.873 101.746 264.873 102.772C264.873 105.496 274.718 103.676 274.718 110.101C274.718 113.203 272.483 115.573 267.854 115.573H267.866ZM289.388 109.624C289.39 109.67 289.382 109.715 289.366 109.757C289.349 109.8 289.324 109.838 289.292 109.87C289.26 109.902 289.221 109.927 289.179 109.944C289.137 109.96 289.092 109.968 289.046 109.966H280.007C279.993 109.968 279.979 109.972 279.966 109.979C279.953 109.986 279.942 109.996 279.933 110.007C279.924 110.018 279.917 110.031 279.913 110.045C279.909 110.059 279.908 110.074 279.909 110.089C280.056 110.933 280.513 111.692 281.192 112.217C281.87 112.741 282.72 112.993 283.574 112.922C284.695 112.899 285.784 112.541 286.701 111.896C286.737 111.866 286.778 111.844 286.823 111.832C286.868 111.819 286.916 111.816 286.962 111.823C287.008 111.83 287.052 111.847 287.091 111.872C287.131 111.897 287.164 111.93 287.189 111.97L288.289 113.57C288.335 113.641 288.352 113.726 288.339 113.81C288.325 113.893 288.281 113.969 288.216 114.022C286.764 115.081 285.004 115.631 283.207 115.585C282.31 115.635 281.412 115.497 280.572 115.18C279.731 114.863 278.966 114.373 278.325 113.743C277.685 113.113 277.183 112.356 276.852 111.52C276.521 110.685 276.368 109.789 276.404 108.892C276.379 108.015 276.532 107.143 276.854 106.327C277.175 105.512 277.659 104.77 278.276 104.146C278.892 103.523 279.629 103.031 280.441 102.7C281.253 102.37 282.123 102.207 283 102.222C286.799 102.222 289.376 105.068 289.376 109.234L289.388 109.624Z" fill="#5FBB49"/>
</g>
<defs>
<filter id="filter0_f_6001_31086" x="32.4036" y="-24.5179" width="503.756" height="481.594" filterUnits="userSpaceOnUse" color-interpolation-filters="sRGB">
<feFlood flood-opacity="0" result="BackgroundImageFix"/>
<feBlend mode="normal" in="SourceGraphic" in2="BackgroundImageFix" result="shape"/>
<feGaussianBlur stdDeviation="67.211" result="effect1_foregroundBlur_6001_31086"/>
</filter>
<filter id="filter1_f_6001_31086" x="-266.711" y="-306.643" width="641.211" height="606.232" filterUnits="userSpaceOnUse" color-interpolation-filters="sRGB">
<feFlood flood-opacity="0" result="BackgroundImageFix"/>
<feBlend mode="normal" in="SourceGraphic" in2="BackgroundImageFix" result="shape"/>
<feGaussianBlur stdDeviation="109.834" result="effect1_foregroundBlur_6001_31086"/>
</filter>
<filter id="filter2_d_6001_31086" x="217.773" y="47.3004" width="118.521" height="118.521" filterUnits="userSpaceOnUse" color-interpolation-filters="sRGB">
<feFlood flood-opacity="0" result="BackgroundImageFix"/>
<feColorMatrix in="SourceAlpha" type="matrix" values="0 0 0 0 0 0 0 0 0 0 0 0 0 0 0 0 0 0 127 0" result="hardAlpha"/>
<feOffset dy="7.32448"/>
<feGaussianBlur stdDeviation="5.97134"/>
<feComposite in2="hardAlpha" operator="out"/>
<feColorMatrix type="matrix" values="0 0 0 0 0 0 0 0 0 0 0 0 0 0 0 0 0 0 0.28 0"/>
<feBlend mode="normal" in2="BackgroundImageFix" result="effect1_dropShadow_6001_31086"/>
<feBlend mode="normal" in="SourceGraphic" in2="effect1_dropShadow_6001_31086" result="shape"/>
</filter>
<linearGradient id="paint0_linear_6001_31086" x1="292.888" y1="144.535" x2="201.991" y2="24.6303" gradientUnits="userSpaceOnUse">
<stop stop-color="#0F2D58"/>
<stop offset="1" stop-color="#0E346B"/>
</linearGradient>
<linearGradient id="paint1_linear_6001_31086" x1="236.614" y1="68" x2="267.899" y2="136.058" gradientUnits="userSpaceOnUse">
<stop stop-color="#225FCC"/>
<stop offset="0.352567" stop-color="#194398"/>
<stop offset="0.646925" stop-color="#194398" stop-opacity="0.79"/>
<stop offset="1" stop-color="#225FCC" stop-opacity="0.54"/>
</linearGradient>
<clipPath id="clip0_6001_31086">
<path d="M0.927002 8.96581C0.927002 4.55024 4.50654 0.970703 8.92211 0.970703H376.697C381.113 0.970703 384.692 4.55024 384.692 8.96582V197.175H0.927002V8.96581Z" fill="white"/>
</clipPath>
<clipPath id="clip1_6001_31086">
<rect width="383.765" height="196.204" fill="white" transform="translate(0.927002 0.970703)"/>
</clipPath>
<clipPath id="clip2_6001_31086">
<rect width="92.9212" height="33.3936" fill="white" transform="translate(62.8608 82.5397)"/>
</clipPath>
</defs>
</svg>
