<svg width="125" height="40" viewBox="0 0 125 40" fill="none" xmlns="http://www.w3.org/2000/svg">
<g clip-path="url(#clip0_14811_78939)">
<path fill-rule="evenodd" clip-rule="evenodd" d="M23.588 27.6821C23.3728 29.4584 22.2964 30.8811 20.6292 31.5934C19.7007 31.9903 18.4541 32.2045 17.4673 32.1372C15.9279 32.0784 14.4817 31.704 13.1487 31.0197C12.6724 30.7751 11.9625 30.2867 11.4174 29.8292C11.2793 29.7136 11.2629 29.6395 11.3543 29.5099C11.4036 29.4355 11.4945 29.3014 11.6956 29.0068C11.9872 28.5796 12.0235 28.526 12.0563 28.4759C12.1496 28.3327 12.3012 28.3202 12.4507 28.4379C12.4664 28.4501 12.4664 28.4501 12.4783 28.4594C12.5028 28.4784 12.5028 28.4784 12.5607 28.5234C12.6192 28.569 12.654 28.5959 12.668 28.6065C14.1057 29.7325 15.7801 30.3818 17.4705 30.4468C19.8223 30.4147 21.5135 29.3573 21.8165 27.7336C22.1497 25.9466 20.7469 24.4029 18.0024 23.5425C17.144 23.2734 14.9744 22.405 14.5743 22.1703C12.6957 21.0681 11.8174 19.6243 11.9422 17.8411C12.1335 15.3692 14.4283 13.5255 17.3278 13.5132C18.6245 13.5105 19.9185 13.78 21.1615 14.3038C21.6017 14.4893 22.3875 14.917 22.6589 15.1195C22.8151 15.2343 22.846 15.368 22.7564 15.5123C22.7064 15.596 22.6237 15.7287 22.4494 16.0052L22.4475 16.0082C22.218 16.3725 22.2109 16.3839 22.1582 16.469C22.0673 16.6075 21.9603 16.6204 21.7964 16.5164C20.4662 15.6228 18.9916 15.1732 17.3699 15.1407C15.3508 15.1807 13.8375 16.3823 13.738 18.0192C13.7116 19.4976 14.8204 20.577 17.2157 21.4C22.0776 22.9623 23.9382 24.7941 23.588 27.6821ZM17.5836 2.15971C20.749 2.15971 23.3291 5.16361 23.4498 8.92386H11.7175C11.8382 5.16361 14.4183 2.15971 17.5836 2.15971ZM33.9654 9.63081C33.9654 9.24036 33.6509 8.92386 33.2632 8.92386H25.6586C25.472 3.95895 21.9281 0 17.5836 0C13.2392 0 9.69529 3.95895 9.50871 8.92386L1.89326 8.924C1.51142 8.93094 1.20399 9.2448 1.20399 9.63081C1.20399 9.64927 1.20468 9.66759 1.20606 9.68562H1.20068L2.28626 33.6159C2.2864 33.6825 2.28888 33.7497 2.29384 33.8173C2.29495 33.8325 2.29619 33.8476 2.29743 33.8628L2.29977 33.9133L2.30239 33.9159C2.46733 35.5811 3.67583 36.9223 5.31908 36.9842L5.3228 36.9878H29.4796C29.4911 36.988 29.5025 36.9881 29.5139 36.9881C29.5254 36.9881 29.5368 36.988 29.5482 36.9878H29.5996L29.6007 36.9869C31.2727 36.9412 32.6269 35.5813 32.77 33.8955L32.7708 33.8947L32.7719 33.8721C32.7733 33.8543 32.7746 33.8367 32.7757 33.8189C32.7783 33.7765 32.7801 33.7342 32.7808 33.6921L33.9653 9.66732H33.9644C33.9651 9.65524 33.9654 9.64303 33.9654 9.63081ZM114.498 25.2273C114.963 23.7091 116.37 22.697 118.013 22.697C119.58 22.697 121.073 23.7615 121.588 25.2244L121.624 25.3249H114.468L114.498 25.2273ZM123.216 27.4267C123.226 27.4271 123.226 27.4271 123.24 27.4273C123.254 27.4271 123.254 27.4271 123.269 27.4267C123.611 27.411 123.883 27.1189 123.883 26.7635C123.883 26.7463 123.882 26.7314 123.881 26.7076C123.881 26.7032 123.881 26.6945 123.881 26.6665C123.881 23.3137 121.252 20.5965 118.011 20.5965C114.769 20.5965 112.14 23.3137 112.14 26.6665C112.14 26.9165 112.155 27.1658 112.184 27.4135L112.186 27.4267L112.195 27.4921C112.357 28.6985 112.871 29.8058 113.684 30.7018C113.684 30.7014 113.685 30.7022 113.689 30.7069C114.59 31.6988 115.814 32.3749 117.172 32.6277L117.189 32.6312V32.6294L117.277 32.6441C117.323 32.6518 117.371 32.6594 117.435 32.6693C119.221 32.8841 120.806 32.6266 122.148 31.9508C122.478 31.7843 122.775 31.6006 123.033 31.4066C123.116 31.344 123.19 31.2836 123.255 31.227C123.288 31.1978 123.314 31.1733 123.328 31.1591C123.631 30.8472 123.65 30.7366 123.467 30.4518C123.266 30.1317 123.089 29.859 122.937 29.6333C122.884 29.5543 122.837 29.4869 122.798 29.431C122.777 29.4003 122.777 29.4003 122.763 29.3809C122.758 29.3733 122.758 29.3733 122.754 29.3685L122.752 29.366C122.587 29.1602 122.474 29.1413 122.29 29.3034C122.27 29.3207 122.205 29.3713 122.193 29.3838C120.902 30.5302 119.139 30.899 117.379 30.5306C117.051 30.4426 116.745 30.3307 116.462 30.1958C115.359 29.6427 114.578 28.6573 114.352 27.5168L114.335 27.4267L123.216 27.4267ZM100.529 25.2273C100.994 23.7091 102.402 22.697 104.044 22.697C105.612 22.697 107.104 23.7615 107.62 25.2244L107.655 25.3249H100.499L100.529 25.2273ZM109.248 27.4267C109.257 27.4271 109.257 27.4271 109.271 27.4273C109.286 27.4271 109.286 27.4271 109.3 27.4267C109.643 27.411 109.914 27.1189 109.914 26.7635C109.914 26.7463 109.913 26.7314 109.912 26.7076C109.912 26.7032 109.912 26.6945 109.912 26.6665C109.912 23.3137 107.284 20.5965 104.042 20.5965C100.8 20.5965 98.1717 23.3137 98.1717 26.6665C98.1717 26.9165 98.1864 27.1658 98.2156 27.4135L98.2176 27.4267L98.2267 27.4921C98.3881 28.6985 98.9029 29.8058 99.7158 30.7018C99.7154 30.7014 99.7162 30.7022 99.7203 30.7069C100.622 31.6988 101.846 32.3749 103.203 32.6277L103.221 32.6312V32.6294L103.309 32.6441C103.354 32.6518 103.402 32.6594 103.466 32.6693C105.253 32.8841 106.837 32.6266 108.179 31.9508C108.51 31.7843 108.807 31.6006 109.064 31.4066C109.147 31.344 109.221 31.2836 109.286 31.227C109.319 31.1978 109.346 31.1733 109.36 31.1591C109.662 30.8472 109.681 30.7366 109.499 30.4518C109.298 30.1317 109.12 29.859 108.968 29.6333C108.915 29.5543 108.869 29.4869 108.83 29.431C108.808 29.4003 108.808 29.4003 108.794 29.3809C108.789 29.3733 108.789 29.3733 108.785 29.3685L108.784 29.366C108.619 29.1602 108.505 29.1413 108.322 29.3034C108.302 29.3207 108.237 29.3713 108.225 29.3838C106.934 30.5302 105.171 30.899 103.411 30.5306C103.083 30.4426 102.776 30.3307 102.494 30.1958C101.391 29.6427 100.61 28.6573 100.384 27.5168L100.366 27.4267L109.248 27.4267ZM89.8683 30.7698C87.685 30.7698 85.8994 29.0388 85.8446 26.8696V26.6654C85.8988 24.4996 87.685 22.7683 89.8683 22.7683C92.0911 22.7683 93.8931 24.5595 93.8931 26.7691C93.8931 28.9786 92.0911 30.7698 89.8683 30.7698ZM89.8696 20.6459C88.4376 20.6459 87.0693 21.1336 85.9697 22.0282L85.8447 22.1298V21.0102C85.8447 20.7117 85.7805 20.6459 85.4784 20.6459H84.073C83.7669 20.6459 83.7065 20.7068 83.7065 21.0102V38.8572C83.7065 39.1504 83.7748 39.2215 84.073 39.2215H85.4784C85.7776 39.2215 85.8447 39.1519 85.8447 38.8572V31.4145L85.9697 31.5161C87.0695 32.4108 88.4378 32.8985 89.8696 32.8985C93.2733 32.8985 96.0326 30.1556 96.0326 26.7721C96.0326 23.3888 93.2733 20.6459 89.8696 20.6459ZM75.396 30.6331C73.1688 30.6331 71.3632 28.8576 71.3632 26.6669C71.3632 24.4761 73.1689 22.7005 75.396 22.7005C77.6229 22.7005 79.4286 24.4761 79.4286 26.6669C79.4286 28.8575 77.6231 30.6331 75.396 30.6331ZM75.3973 20.5965C71.9869 20.5965 69.2226 23.3157 69.2226 26.6699C69.2226 30.0239 71.9869 32.7433 75.3973 32.7433C78.8077 32.7433 81.5717 30.0239 81.5717 26.6699C81.5717 23.3157 78.8078 20.5965 75.3973 20.5965ZM61.6327 20.7314C60.3877 20.7314 59.183 21.1317 58.1835 21.8715L58.062 21.9614V13.6729C58.062 13.3982 57.9719 13.3085 57.6972 13.3085H56.2261C55.9291 13.3085 55.8612 13.3795 55.8612 13.6729V32.581C55.8612 32.8673 55.9345 32.9457 56.2261 32.9457H57.6972C57.9701 32.9457 58.062 32.8516 58.062 32.581V26.4051C58.0773 24.4609 59.6718 22.8916 61.6327 22.8916C63.5985 22.8916 65.1949 24.4685 65.2032 26.4191V32.581C65.2032 32.8938 65.2552 32.9455 65.5681 32.9455H67.0356C67.3467 32.9455 67.4005 32.8923 67.4005 32.581V26.401C67.3889 23.2836 64.7893 20.7314 61.6327 20.7314ZM41.1345 29.5159L41.1311 29.5212C40.9213 29.8389 40.8335 29.9726 40.7844 30.0493C40.619 30.2955 40.6396 30.4052 40.8921 30.6187C41.4814 31.0938 42.2389 31.5927 42.75 31.8426C44.172 32.5379 45.708 32.9054 47.3356 32.9387C48.3871 32.9917 49.7076 32.7417 50.6909 32.3032C52.471 31.509 53.605 29.9613 53.8037 28.0548C54.1256 24.9658 52.1156 23.0347 46.9386 21.4785L46.9372 21.4781C44.5251 20.7001 43.392 19.666 43.3916 18.2221C43.4626 16.6262 44.9423 15.434 46.9386 15.3596C48.5466 15.3636 49.9684 15.7907 51.3653 16.6897C51.6599 16.8683 51.7957 16.8354 51.9938 16.5784C52.0165 16.5405 52.0798 16.4485 52.3446 16.0683L52.3454 16.067C52.5927 15.7119 52.6741 15.5933 52.6944 15.5583C52.8612 15.2443 52.8374 15.1232 52.5362 14.9096C52.2395 14.6971 51.4039 14.2623 50.926 14.0716C49.597 13.5413 48.223 13.2838 46.8554 13.3104C43.7433 13.378 41.3162 15.402 41.1562 18.0573C41.0547 19.9752 42.0281 21.5174 44.0619 22.6575C44.632 22.9585 46.7167 23.7466 47.6897 24.0315C50.4563 24.8417 51.8987 26.3321 51.6007 28.0906C51.33 29.6883 49.656 30.7508 47.307 30.8235C45.6035 30.7881 43.8871 30.1638 42.3969 29.0439C42.3894 29.0385 42.3516 29.0103 42.282 28.9584C42.1841 28.8854 42.1841 28.8854 42.1694 28.8745C41.8656 28.6648 41.6869 28.6822 41.5014 28.9585C41.4791 28.9928 41.2483 29.3436 41.1345 29.5159Z" fill="white"/>
</g>
<defs>
<clipPath id="clip0_14811_78939">
<rect width="122.682" height="39.2215" fill="white" transform="translate(1.20068)"/>
</clipPath>
</defs>
</svg>
