<svg width="96" height="44" viewBox="0 0 96 44" fill="none" xmlns="http://www.w3.org/2000/svg">
<path d="M25.8924 20.6726C22.5047 20.6726 22.2355 18.0483 22.2355 17.2756C22.2355 16.3579 22.4413 14.6514 24.6418 13.8303C26.8423 13.0092 27.3172 12.9126 28.8844 12.4136V12.0272C28.8844 11.2544 28.8844 11.1095 28.7103 10.6104C28.4412 9.72496 27.5863 9.12928 26.399 9.12928C25.275 9.12928 24.3094 9.77326 23.8661 10.7231L23.2329 10.3367C23.6128 8.91999 25.0534 7.50324 27.523 7.50324C29.2327 7.50324 30.42 8.00232 31.1166 9.09708C31.639 9.98255 31.7023 11.1739 31.7023 12.3814C31.7023 13.4761 31.639 14.6836 31.639 15.6656C31.639 16.3096 31.5757 16.9375 31.5757 17.2917C31.5757 18.1771 31.7498 18.8855 32.4463 18.8855C32.763 18.8855 32.8263 18.7728 33.0796 18.6118L33.4595 19.1109C32.8263 19.9964 32.0664 20.7048 30.8158 20.7048C29.8501 20.7048 29.1536 20.2057 28.8686 19.4007C28.4728 19.9642 27.4438 20.6726 25.8924 20.6726ZM28.8844 13.9913C27.2222 14.4904 26.6206 14.7641 26.1457 15.0217C25.3859 15.408 25.0692 16.1164 25.0692 17.0341C25.0692 17.7425 25.3384 18.8855 26.9531 18.8855C27.4755 18.8855 28.2354 18.7728 28.9319 18.2898V13.9752H28.8844V13.9913ZM0.911596 19.9964C0.911596 18.7245 0.911596 17.6459 0.800781 16.3418H1.56065C1.56065 17.1629 1.76645 17.7586 2.14639 18.1449C2.6688 18.7406 3.91943 19.127 5.04341 19.127C7.40218 19.127 8.52616 18.2093 8.52616 16.2291C8.52616 14.5387 7.513 13.8303 6.11989 12.8321L5.9141 12.6551L4.41018 11.6247C2.32053 10.2079 1.24404 9.11318 1.24404 6.87536C1.24404 5.7806 1.67147 2.17434 6.87977 2.17434C8.22538 2.17434 9.93509 2.35143 10.9641 2.49633C10.9641 2.67342 10.9008 3.47839 10.9008 4.18676C10.9008 5.00783 10.9008 5.21713 10.9641 6.19919H10.3309C10.3309 5.31372 10.0617 4.78244 9.69763 4.39606C9.20688 3.89697 8.09873 3.62328 6.91143 3.62328C4.12523 3.62328 3.80861 5.04003 3.80861 6.13479C3.80861 7.61594 4.56849 8.14722 6.21488 9.24198L8.09873 10.5138C9.69763 11.6086 11.2015 12.639 11.2015 15.3758C11.2015 19.9642 6.95892 20.4472 5.18588 20.4472C3.55532 20.6726 2.19388 20.4311 0.911596 19.9964ZM34.631 8.32431C35.2642 8.38871 36.2299 8.32431 37.1639 8.14722C37.9713 7.97012 38.2404 7.87353 38.8261 7.61594L39.0952 7.79303V8.77509C39.7285 8.27601 40.9791 7.56764 42.7521 7.56764C45.0159 7.56764 46.4723 8.6624 46.8839 10.5782C46.9948 11.0773 47.0581 12.2043 47.0581 12.8804V16.5994C47.0581 18.6762 47.1689 19.288 47.5488 19.6583C47.7546 19.8354 48.1821 20.0447 48.7995 20.0447V20.6404C47.9921 20.576 46.5357 20.5277 45.6966 20.5277C44.5727 20.5277 43.2904 20.5921 42.5938 20.6404V20.0447C43.227 19.9803 43.607 19.771 43.8444 19.61C44.2244 19.2236 44.2719 18.5152 44.3352 16.9214C44.3352 16.4223 44.3985 15.4402 44.3985 14.7319C44.3985 13.8142 44.3985 12.816 44.2877 11.834C44.1136 10.2079 43.2745 9.43517 41.644 9.43517C40.52 9.43517 39.8234 9.70886 39.2852 9.96645V16.6316C39.2852 18.7084 39.396 19.3202 39.776 19.6905C39.9818 19.8676 40.4725 20.0769 40.9633 20.0769V20.6726C39.9501 20.6082 38.6995 20.5599 37.9079 20.5599C36.2457 20.5599 35.7075 20.6243 34.7418 20.6726V20.0447C35.2642 20.0447 35.8183 19.8354 36.0874 19.5134C36.4673 19.0787 36.5148 17.984 36.5148 15.8588V12.0755C36.5148 10.4816 36.4515 9.83765 36.2457 9.49957C36.0716 9.22588 35.66 9.00049 34.7893 9.00049V8.29211H34.6785V8.32431H34.631ZM50.1609 19.9642C50.6833 19.9642 51.2374 19.7871 51.5065 19.4329C51.8864 18.9982 51.9339 17.9035 51.9339 15.7783V9.41907H50.335V8.7107C51.0316 8.43701 51.6173 8.11502 51.9339 7.82523C51.9339 6.68217 51.9972 5.24932 52.1397 4.42825C52.6305 1.80405 54.2927 0.5 57.1264 0.5C58.377 0.5 59.5327 0.934684 60.2925 1.53036L60.3559 1.80405L59.1052 3.54279H58.7886C58.3612 2.51243 57.7121 1.91675 56.5882 1.91675C56.2082 1.91675 55.6858 2.02944 55.3375 2.35143C54.8151 2.88271 54.7043 3.71988 54.7043 5.36202V7.80913H57.4905V9.40297H54.7043V16.4545C54.7043 18.1449 54.7676 18.966 54.9734 19.288C55.29 19.8193 56.4298 19.8837 56.9523 19.8837V20.5277C56.0499 20.4633 54.5935 20.415 53.5645 20.415C51.9972 20.415 50.9841 20.4794 50.1767 20.5277L50.1609 19.9642ZM64.551 20.7691C60.7516 20.7691 58.4878 18.3703 58.4878 14.3294C58.4878 11.1739 60.1501 7.50324 64.8201 7.50324C68.6195 7.50324 70.8833 9.90205 70.8833 13.943C70.8833 17.0985 69.2052 20.7691 64.551 20.7691ZM64.7093 8.96829C63.9494 8.96829 63.3637 9.17758 62.9363 9.56396C61.9231 10.4494 61.4323 11.9628 61.4323 14.2006C61.4323 15.0861 61.6065 19.3363 64.6618 19.3363C65.4217 19.3363 66.0074 19.127 66.4348 18.7406C67.448 17.8552 67.9388 16.3418 67.9388 14.104C67.9229 13.2346 67.7805 8.96829 64.7093 8.96829ZM72.1656 8.25991C73.0362 8.32431 73.9386 8.19552 74.9043 8.05062C75.6641 7.93792 76.1549 7.77693 76.4082 7.61594L76.614 7.72863V8.82339C77.1997 8.22771 78.1812 7.61594 79.511 7.61594C80.4767 7.61594 81.1099 7.88963 81.7115 8.38871V8.77509L80.635 10.7553H80.1126C79.796 10.1596 79.1469 9.61226 78.0229 9.61226C77.5005 9.61226 77.0572 9.72496 76.6773 9.99865V16.5028C76.6773 18.1932 76.7406 18.9499 76.9464 19.288C77.263 19.8193 78.3395 19.8837 78.9253 19.8193V20.5277C78.0546 20.4633 76.5665 20.415 75.5375 20.415C74.3502 20.415 73.1312 20.415 72.1497 20.5277V19.8837C72.8463 19.8193 73.2262 19.6744 73.4953 19.3524C73.8753 18.9177 73.9228 17.8713 73.9228 15.6978V12.156C73.9228 10.5621 73.9228 9.91815 73.6536 9.58006C73.4478 9.30637 73.0204 9.14538 72.1972 9.14538V8.32431L72.1656 8.25991ZM89.7376 1.27277C90.4975 1.27277 91.4473 1.09568 92.698 0.886386C93.3945 0.77369 93.8219 0.612696 94.0436 0.564398L94.2494 0.677093C94.1386 1.70746 94.1386 4.07407 94.1386 5.74841V16.1164C94.1386 17.6459 94.1386 18.6279 94.3444 18.9499C94.5502 19.2236 94.9776 19.449 95.8008 19.449V20.093C94.9934 20.093 94.0911 20.2057 93.1254 20.3667C92.4922 20.4794 92.0014 20.576 91.7323 20.6887L91.4157 20.576V19.4812C90.7825 19.9803 89.5952 20.6887 87.9329 20.6887C84.4977 20.6887 82.2972 18.2898 82.2972 14.5226C82.2972 13.2507 82.503 12.1238 82.9304 11.0773C84.0069 8.77509 86.1599 7.47104 88.8828 7.47104C89.8959 7.47104 90.7666 7.58374 91.289 7.68033V4.99173C91.289 3.39789 91.289 2.59292 91.0199 2.20654C90.8458 1.93285 90.5925 1.82015 89.6743 1.77185V1.25667L89.7376 1.27277ZM89.2944 18.9016C90.1651 18.9016 90.7508 18.7889 91.3365 18.4025V9.90205C91.1307 9.69276 90.3709 9.01658 88.8669 9.01658C86.4607 9.01658 85.2734 10.707 85.2734 14.2167C85.2259 15.6817 85.6533 18.9016 89.2944 18.9016ZM21.0007 19.288C20.6208 19.7871 19.6551 20.7691 17.613 20.7691C15.6658 20.7691 14.6051 20.0608 14.1302 18.4669C13.9244 17.8713 13.9244 16.6155 13.9244 15.891C13.9244 13.8786 13.9244 12.2365 13.9878 10.3206V9.43517H12.3097V8.93609C12.9429 8.6624 13.4337 8.40481 13.8769 8.05062C14.8426 7.27785 15.4758 6.36018 16.1882 4.99173H16.7106V7.82523H20.9533V9.41907H16.7106V16.0842C16.7106 18.0966 17.0906 19.1914 18.9111 19.1914C19.7818 19.1914 20.3675 18.9177 20.6841 18.6923L21.0007 19.288Z" fill="#526373"/>
<path d="M80.5085 31.1999C80.3027 31.1999 80.0177 31.2643 79.8752 31.4092C79.7011 31.5219 79.7011 31.6829 79.7011 31.7956C79.7011 32.0049 79.7644 32.1819 79.9069 32.6166L81.0942 35.7721C81.2683 36.2712 81.4108 36.6576 81.4741 36.9152L82.9306 32.6005C83.1047 32.1015 83.1364 32.0049 83.1364 31.7795C83.1364 31.6668 83.073 31.5702 82.9622 31.4575C82.7881 31.3448 82.5823 31.2482 82.329 31.2482V30.7491C82.5031 30.7491 82.8514 30.7491 83.0256 30.8135C83.1997 30.8135 83.5163 30.8779 83.7854 30.8779C84.3078 30.8779 85.0677 30.8135 85.3843 30.8135V31.3126C85.1785 31.377 84.6878 31.2482 84.2603 32.52L81.205 40.8112C80.7776 42.0187 80.1919 43.4998 78.1022 43.4998C77.2315 43.4998 76.6458 43.2905 76.155 42.8559V42.6466L76.9149 41.7289H77.1207C77.3265 42.228 77.7539 42.4373 78.3713 42.4373C79.337 42.4373 79.7644 41.5518 80.4135 39.8131L80.5876 39.314L78.0231 32.5039C78.0231 32.4395 77.9597 32.3268 77.9122 32.2302C77.8489 32.0532 77.7064 31.7312 77.7064 31.7312C77.5323 31.4092 77.279 31.2965 76.9466 31.2965V30.7974C77.4373 30.8618 78.2922 30.8618 78.7196 30.8618C78.9887 30.8618 79.4161 30.8618 79.8436 30.7974C80.0494 30.7974 80.4293 30.733 80.6035 30.733V31.1677H80.5401V31.1999H80.5085ZM52.0765 31.0872C52.599 31.1516 53.2005 31.0228 53.7863 30.9101C54.277 30.7974 54.5461 30.733 54.7519 30.6364L54.9261 30.7008V31.4092C55.306 31.0228 55.8917 30.6364 56.7466 30.6364C57.3798 30.6364 57.7598 30.8135 58.1397 31.1355V31.4092L57.5065 32.681H57.1899C56.9841 32.2946 56.6041 31.9727 55.8442 31.9727C55.5276 31.9727 55.2585 32.0854 54.9736 32.2463V36.3517C54.9736 37.4465 55.0369 37.9455 55.1477 38.1548C55.3535 38.4768 56.0184 38.5412 56.3983 38.5412V38.9759C55.8759 38.9115 54.8944 38.9115 54.2453 38.9115C53.4855 38.9115 52.6781 38.9115 52.0924 39.0242V38.5895C52.5198 38.5895 52.7889 38.4124 52.9631 38.2675C53.2322 37.9938 53.2322 37.3499 53.2322 35.917V33.6148C53.2322 32.6327 53.2322 32.1981 53.058 31.9888C52.9472 31.8117 52.6306 31.7151 52.1557 31.7151V31.1194H52.0765V31.0872ZM16.3308 39.0081C14.067 39.0081 12.7373 38.2997 12.2465 36.7703C11.9774 35.9975 11.9774 35.0315 11.9774 34.2588V29.8958C11.9774 28.5918 11.9141 28.3664 11.6608 28.1571C11.55 28.0444 11.2808 27.9478 10.9009 27.8834V27.4487C11.4233 27.5131 12.3573 27.5614 12.8797 27.5614C13.7821 27.5614 14.3362 27.5614 14.9219 27.4487V27.9478C14.542 27.9478 14.2887 28.0605 14.0512 28.2698C13.7821 28.5435 13.7821 29.0426 13.7821 30.4593V34.3232C13.7821 36.6254 13.9879 38.1065 16.5208 38.1065C19.1012 38.1065 19.2595 36.5771 19.2595 34.2427V29.9924C19.2595 28.6884 19.1962 28.463 18.9429 28.2537C18.7688 28.141 18.5155 28.0444 18.183 27.98V27.5453C18.6738 27.5453 19.307 27.6097 19.9561 27.6097C20.5418 27.6097 21.1434 27.6097 21.8399 27.497V27.9961C21.46 27.9961 21.2067 28.1088 20.9692 28.3181C20.7001 28.5918 20.7001 29.0909 20.7001 30.5076V33.7919C20.7001 34.8223 20.7001 35.9814 20.3835 36.8991C19.8769 38.2997 18.5788 39.0081 16.3308 39.0081ZM31.6391 38.509C32.0665 38.4446 32.3357 38.3963 32.5415 38.187C32.8106 37.9133 32.8106 37.2694 32.8106 35.8365V33.5343C32.8106 32.5522 32.8106 32.0532 32.6364 31.8439C32.5256 31.6668 32.3198 31.5702 31.7341 31.5219V31.0228C32.0507 31.0872 32.9214 30.9584 33.5546 30.8457C33.8712 30.7813 34.1879 30.6686 34.4253 30.572L34.5995 30.7491C34.5361 31.2804 34.5361 32.4395 34.5361 33.969V36.3195C34.5361 37.4143 34.5995 37.9133 34.7103 38.1226C34.8844 38.3319 35.201 38.509 35.6759 38.509V38.8954C35.2485 38.831 34.4253 38.831 33.7288 38.831C32.9214 38.831 32.0665 38.8954 31.6391 38.9437V38.509ZM33.618 29.1714C32.9847 29.1714 32.6048 28.785 32.6048 28.1893C32.6048 27.5936 33.0322 27.1589 33.6813 27.1589C34.3145 27.1589 34.6944 27.5453 34.6944 28.141C34.6786 28.785 34.2512 29.1714 33.618 29.1714ZM65.5801 38.509C66.0076 38.4446 66.2767 38.3963 66.4825 38.187C66.7516 37.9133 66.7516 37.2694 66.7516 35.8365V33.5343C66.7516 32.5522 66.7516 32.0532 66.5775 31.8439C66.4666 31.6668 66.2608 31.5702 65.6751 31.5219V31.0228C65.9917 31.0872 66.8624 30.9584 67.4956 30.8457C67.8123 30.7813 68.1922 30.6686 68.3663 30.572L68.5405 30.7491C68.4771 31.2804 68.4771 32.4395 68.4771 33.969V36.3195C68.4771 37.4143 68.5405 37.9133 68.6513 38.1226C68.8254 38.3319 69.142 38.509 69.617 38.509V38.8954C69.1262 38.831 68.3347 38.831 67.6381 38.831C66.8308 38.831 65.9759 38.8954 65.5485 38.9437V38.509H65.5801ZM67.559 29.1714C66.9257 29.1714 66.5458 28.785 66.5458 28.1893C66.5458 27.5936 66.9732 27.1589 67.6223 27.1589C68.2555 27.1589 68.6354 27.5453 68.6354 28.141C68.6354 28.785 68.1922 29.1714 67.559 29.1714ZM59.0737 38.6217C59.0737 37.8006 59.0104 36.9313 58.9629 36.4966H59.4853C59.4853 36.9313 59.5961 37.3177 59.8019 37.527C60.1185 37.9133 60.4985 38.0582 61.195 38.0582H61.3058C62.1765 38.0582 62.6514 37.6718 62.6514 36.9152C62.6514 36.3195 62.2715 36.0297 61.6383 35.6433L60.5143 34.9349C59.9286 34.5486 59.232 34.0173 59.232 32.8581C59.232 31.9405 59.612 31.2321 60.356 30.8457C60.8467 30.572 61.6066 30.572 61.9549 30.572C62.5881 30.572 63.5221 30.6847 64.0445 30.7813C63.9812 30.9906 63.9812 31.5541 63.9812 31.7634C63.9812 31.9405 63.9812 32.681 64.0445 32.8581H63.5221C63.5221 32.5361 63.4113 32.2141 63.2055 31.9405C62.9997 31.6668 62.509 31.5058 61.9232 31.5058C61.1159 31.5058 60.6726 31.8278 60.6726 32.5361C60.6726 33.0674 61.1 33.3572 61.48 33.6309H61.5433L62.6198 34.2749C63.3163 34.7096 64.2187 35.2569 64.2187 36.5127C64.2187 38.6378 62.2715 38.9598 61.1634 38.9598C60.5301 38.9437 59.8336 38.8954 59.0737 38.6217ZM75.9334 38.0904C75.6643 38.3641 75.0627 39.0081 73.7804 39.0081C72.5298 39.0081 71.8333 38.5734 71.58 37.527C71.4691 37.1406 71.4691 36.3195 71.4691 35.9009C71.4691 34.5969 71.4691 33.5504 71.4691 32.359V31.8278H70.3927V31.5058C70.8201 31.3287 71.0892 31.1838 71.4058 30.9745C71.9916 30.4754 72.419 29.8797 72.9097 28.9943H73.2897V30.7974H75.9651V31.7795H73.2897V36.0297C73.2897 37.3016 73.4955 38.0421 74.6828 38.0421C75.2052 38.0421 75.5851 37.865 75.8068 37.7201L75.9334 38.0904ZM39.6178 30.7652C39.4436 30.7652 39.0954 30.7652 38.8579 30.8296C38.4305 30.8296 37.9872 30.894 37.6706 30.894C37.0849 30.894 36.2142 30.8296 35.9609 30.8296V31.3287C36.0717 31.3287 36.4833 31.2643 36.7683 31.8278C36.8791 32.0371 36.9424 32.2141 36.9741 32.3268C37.0374 32.4395 37.0849 32.5361 37.0849 32.6005L39.6653 39.153L40.4726 38.9759L43.3222 32.5361C43.3222 32.4717 43.3855 32.4234 43.433 32.3268C43.4963 32.2624 43.4963 32.1498 43.7021 31.8278C43.8762 31.5058 44.2245 31.3287 44.5095 31.3287V30.8296C44.1929 30.8296 43.4963 30.894 42.9422 30.894C42.6731 30.894 42.4198 30.894 42.1349 30.8296C41.9291 30.8296 41.6124 30.7652 41.375 30.7652V31.1999C41.6441 31.1999 41.8974 31.3126 42.0082 31.4092C42.0715 31.4736 42.1824 31.6185 42.1824 31.7312C42.1824 31.9083 42.119 32.0532 41.9766 32.5522L40.4093 36.4161C40.346 36.2068 40.2352 35.8848 40.0927 35.434L39.0162 32.5361C38.8421 32.1015 38.8104 31.9405 38.8104 31.7151C38.8104 31.6024 38.8104 31.5058 38.9212 31.4414C39.0954 31.2643 39.3487 31.1677 39.6178 31.1677V30.733V30.7652ZM22.0774 31.0872C22.5048 31.1516 23.0905 31.0872 23.6763 30.9745C24.167 30.8618 24.3728 30.7974 24.7528 30.6525L24.9269 30.7652V31.4092C25.3068 31.0872 26.1775 30.6364 27.2382 30.6364C28.6946 30.6364 29.597 31.3448 29.8819 32.5522C29.9452 32.8742 29.9927 33.5826 29.9927 34.0334V36.3839C29.9927 37.6879 30.056 38.0743 30.3093 38.3641C30.4202 38.4768 30.7368 38.5734 31.0692 38.5734V38.9598C30.5468 38.9598 29.6128 38.8954 29.0904 38.8954C28.3305 38.8954 27.5231 38.9598 27.1115 39.0081V38.6217C27.4915 38.5573 27.7448 38.4446 27.9189 38.348C28.1247 38.1387 28.188 37.6396 28.2355 36.6576C28.2355 36.3356 28.2355 35.7399 28.2355 35.2408C28.2355 34.6452 28.2355 33.969 28.1722 33.3894C28.0614 32.359 27.539 31.86 26.51 31.86C25.8134 31.86 25.3227 32.0371 25.0061 32.182V36.4644C25.0061 37.7684 25.0694 38.1548 25.3227 38.4446C25.4335 38.5573 25.7501 38.6539 26.0825 38.6539V39.0403C25.386 38.8632 24.5786 38.8632 24.0404 38.8632C22.9639 38.8632 22.6473 38.8632 22.0615 38.9759V38.5895C22.3782 38.5895 22.7581 38.4768 22.9322 38.2675C23.138 37.9938 23.2014 37.2855 23.2014 35.917V33.6148C23.2014 32.6327 23.2014 32.1981 23.0272 31.9888C22.9164 31.8117 22.6473 31.6668 22.1249 31.7151V31.1033L22.0774 31.0872ZM48.1664 39.0081C45.7601 39.0081 44.4461 37.5913 44.4461 35.0154C44.4461 34.5808 44.557 30.5881 48.198 30.5881C49.2745 30.5881 50.2402 31.0228 50.6676 31.7956C51.1584 32.5683 51.19 33.325 51.19 33.9851V34.4842H46.2034C46.2034 34.9188 46.2667 35.2569 46.3142 35.5145C46.5833 37.1084 47.4381 37.865 48.9579 37.865C49.8286 37.865 50.351 37.6879 50.8417 37.366L51.0475 37.7523C50.541 38.4768 49.4645 39.0081 48.1664 39.0081ZM46.235 33.5504H49.3378C49.3378 32.5683 49.1637 31.4736 47.7706 31.4736C46.5516 31.538 46.2983 32.7132 46.235 33.5504Z" fill="#526373"/>
</svg>
