<svg width="148" height="28" viewBox="0 0 148 28" fill="none" xmlns="http://www.w3.org/2000/svg">
<path d="M3.47378 9.77561C3.47378 7.5445 3.47378 5.74342 3.47378 3.94226C3.47378 3.70985 3.47378 3.47745 3.46216 3.24504C3.39249 1.65299 2.83532 1.08363 1.24485 0.967431C1.16356 0.955786 1.09397 0.955786 1.01268 0.967431C0.73401 1.00228 0.699219 0.85123 0.699219 0.618827C0.699219 0.363133 0.838553 0.351572 1.0243 0.351572C3.60149 0.351572 6.16714 0.351572 8.74432 0.351572C8.95332 0.351572 9.05778 0.386424 9.05778 0.630388C9.05778 0.874436 8.99974 0.979077 8.7327 0.979077C7.09581 0.990638 6.28322 1.37409 6.28322 3.68656C6.28322 7.18433 6.28322 10.6937 6.28322 14.1913C6.2716 15.1443 6.37605 16.0855 6.58505 17.0035C7.18872 19.3973 8.74432 20.5826 11.2054 20.5245C11.693 20.5245 12.169 20.478 12.6449 20.4083C14.9552 20.0131 16.1393 18.6071 16.3715 16.0622C16.4992 14.6678 16.4643 13.2849 16.4643 11.8905C16.476 9.26431 16.4643 6.62653 16.4643 4.00031C16.4643 3.7912 16.4643 3.57036 16.4527 3.36125C16.3947 1.66464 15.8375 1.08363 14.1426 0.967431C13.9336 0.955786 13.6781 1.04878 13.6781 0.653679C13.6781 0.258577 13.9568 0.351572 14.1657 0.351572C16.2902 0.351572 18.4263 0.351572 20.5508 0.351572C20.7481 0.351572 21.0267 0.223725 21.0384 0.630388C21.0499 1.00228 20.8294 0.955786 20.5972 0.967431C18.8094 1.08363 18.287 1.64143 18.2754 3.6285C18.2522 6.68459 18.2754 9.74076 18.2638 12.7969C18.2638 14.1449 18.287 15.5045 18.1129 16.8524C17.7762 19.4438 16.3831 20.9893 13.8291 21.5006C11.9484 21.8608 10.0097 21.8608 8.12902 21.4774C5.40088 20.9312 3.88008 19.1881 3.58986 16.3528C3.3577 14.0287 3.55507 11.6813 3.47378 9.77561Z" fill="#526373"/>
<path d="M41.2382 18.8744C41.2033 18.2817 41.1569 17.6775 41.1336 17.0849C41.1221 16.9222 41.0524 16.6898 41.3426 16.713C41.5632 16.7246 41.8766 16.5387 41.9579 16.9338C42.6428 20.2456 46.9847 20.9079 49.2716 19.897C51.5934 18.8744 52.8007 15.6323 50.1307 13.5407C49.1439 12.7738 48.0527 12.2043 46.9498 11.6465C45.8121 11.0655 44.6744 10.4961 43.6296 9.77564C41.6677 8.42772 41.0872 6.53356 41.4819 4.29088C41.8418 2.21082 43.2581 1.06045 45.1852 0.479358C47.449 -0.206205 49.736 -0.0551516 52.0229 0.305098C53.4625 0.525855 53.4509 0.560706 53.5205 2.02491C53.5554 2.86153 53.6018 3.68659 53.6367 4.51164C53.6482 4.68599 53.7179 4.9416 53.3929 4.8951C53.1839 4.86025 52.9401 5.03459 52.8007 4.63949C51.8256 1.75766 48.8653 0.444507 46.0907 1.61817C43.5483 2.69892 43.1653 5.59231 45.3361 7.27727C46.2417 7.98612 47.2749 8.46257 48.3081 8.96223C49.5851 9.56653 50.8156 10.2521 51.9882 11.0307C54.0894 12.4367 54.9485 14.4006 54.5422 16.8757C54.1474 19.2695 52.5222 20.5593 50.328 21.2565C48.25 21.9189 46.1372 21.8143 44.0127 21.5587C43.2697 21.4657 42.5267 21.3379 41.7722 21.2333C41.4587 21.1868 41.3194 21.0823 41.3194 20.722C41.3194 20.1062 41.2613 19.4903 41.2265 18.8628L41.2382 18.8744Z" fill="#526373"/>
<path d="M122.42 27.0435H1.47659C1.30247 27.0435 1.12834 27.0435 0.954213 27.0435C0.687253 27.0435 0.710419 26.8576 0.710419 26.6833C0.710419 26.509 0.664002 26.3115 0.942587 26.3115C1.13996 26.3115 1.32572 26.3115 1.52309 26.3115C41.377 26.3115 81.2196 26.3115 121.073 26.2998C121.677 26.2766 122.107 26.4277 122.42 27.0435Z" fill="#526373"/>
<path d="M35.7008 3.73316C35.7239 4.10497 35.7588 4.74412 35.7704 5.38318C35.7704 5.58074 35.9329 5.87128 35.5266 5.89449C35.2132 5.90613 34.9578 5.89449 34.9114 5.47618C34.8533 5.20892 34.772 4.95323 34.6559 4.70927C33.6691 2.30381 31.7653 1.15344 29.0024 1.28129C26.7733 1.38584 25.2294 2.6757 24.4864 5.11593C23.8015 7.3354 23.8363 9.61301 23.9872 11.9023C24.0684 13.2502 24.3471 14.5866 24.8462 15.8531C25.984 18.7117 28.12 20.1527 31.15 20.327C32.5895 20.4083 34.0058 20.2573 35.3641 19.7227C35.7936 19.5484 35.8517 19.6879 35.8401 20.0713C35.7936 21.0707 36.0374 20.8732 34.9926 21.1753C32.7521 21.8144 30.4535 21.9887 28.1549 21.582C24.8347 21.0009 22.7218 18.9209 21.6538 15.8067C20.4697 12.3671 20.4233 8.8461 21.3983 5.35998C22.2574 2.24575 24.4399 0.572431 27.6093 0.154039C30.1981 -0.194565 32.7288 0.188891 35.248 0.82804C35.5267 0.897744 35.5614 1.03724 35.5731 1.26964C35.5847 2.0017 35.6311 2.73376 35.7008 3.73316Z" fill="#526373"/>
<path d="M72.5369 8.19556V11.7629L72.6178 11.7862C72.7921 11.4608 72.9429 11.1239 73.1173 10.7985C74.22 8.82306 75.7288 8.00965 77.8769 8.24205C79.2121 8.38146 79.9779 9.10196 80.1986 10.4267C80.2685 10.8798 80.3148 11.3446 80.3148 11.8094C80.3266 14.0289 80.3266 16.26 80.3266 18.4795C80.3266 18.7119 80.3266 18.9443 80.3376 19.1768C80.4193 20.304 80.9071 20.8153 82.0216 20.9198C82.2187 20.943 82.4857 20.8617 82.4622 21.2103C82.4394 21.524 82.1951 21.4311 82.0216 21.4311C80.1641 21.4311 78.3065 21.4311 76.449 21.4311C76.2629 21.4311 75.9849 21.5473 75.9849 21.1754C75.9849 20.8617 76.2283 20.943 76.4145 20.9198C77.5753 20.8036 78.0976 20.2923 78.1094 19.1303C78.1322 16.6203 78.1094 14.0987 78.1094 11.5887C78.1094 11.4957 78.0976 11.3911 78.0858 11.2981C77.9932 10.6358 77.8997 9.96187 77.1684 9.67132C76.3564 9.35757 75.6134 9.50863 74.9512 10.0664C73.8249 11.0309 73.1864 12.2859 72.7803 13.692C72.6177 14.273 72.5369 14.8656 72.5487 15.4698C72.5596 16.6668 72.5369 17.8636 72.5596 19.0722C72.5832 20.2807 73.0819 20.792 74.2545 20.9198C74.4289 20.943 74.6724 20.8617 74.6842 21.1754C74.6842 21.5357 74.4053 21.4311 74.22 21.4311C72.3625 21.4427 70.505 21.4427 68.6475 21.4311C68.4731 21.4311 68.2296 21.5125 68.2178 21.1987C68.206 20.885 68.4386 20.943 68.6247 20.9198C69.8437 20.7803 70.3424 20.2691 70.3424 19.0373C70.366 16.3879 70.366 13.7385 70.3424 11.089C70.3424 10.1013 69.8319 9.55512 68.8564 9.40407C68.7401 9.39242 68.6247 9.38078 68.5085 9.35757C68.3459 9.33437 68.2061 9.29951 68.2061 9.07867C68.2061 8.85791 68.2996 8.82306 68.4849 8.79977C69.8201 8.62551 71.1553 8.41631 72.5369 8.19556Z" fill="#526373"/>
<path d="M63.3651 19.6528C62.3086 21.1518 60.9388 21.756 59.2555 21.7212C57.7695 21.6863 56.5041 20.8032 56.1094 19.5017C55.6682 18.0956 56.1791 16.5617 57.3748 15.6902C58.5821 14.8303 59.9985 14.5979 61.4147 14.412C61.821 14.3655 62.2274 14.3306 62.6221 14.2958C63.3999 14.2377 63.3999 14.2493 63.3999 13.4359C63.3999 12.6224 63.4348 11.809 63.2722 11.0072C62.9472 9.34551 61.1826 8.52046 59.6734 9.35716C59.3251 9.54306 59.0929 9.89167 59.0697 10.2868C59.0581 10.5772 59.0233 10.8678 58.9768 11.1467C58.8376 11.8671 58.2106 12.2855 57.4676 12.1808C56.7595 12.0879 56.3183 11.5301 56.3648 10.7981C56.4112 10.1009 56.7943 9.58956 57.3515 9.24096C59.3948 7.9743 61.5772 7.8116 63.783 8.71801C65.1877 9.28737 65.536 10.6121 65.5592 11.9833C65.6057 14.319 65.5824 16.6663 65.5824 19.002C65.5824 19.2344 65.5824 19.4668 65.5824 19.6992C65.6171 20.7102 66.0585 21.082 67.0686 20.9658C67.2194 20.9426 67.4864 20.6986 67.5563 21.1053C67.6027 21.4191 67.4283 21.5004 67.173 21.5469C66.5345 21.6747 65.8724 21.7328 65.2225 21.7095C64.1429 21.6398 63.6205 21.175 63.4231 20.1059C63.4115 20.0014 63.3999 19.8852 63.3651 19.6528Z" fill="#526373"/>
<path d="M109.465 13.8896C109.465 15.5164 109.477 17.1316 109.465 18.7585C109.441 20.1762 110.01 20.9779 111.31 20.9431C111.485 20.9431 111.612 20.9896 111.612 21.1987C111.612 21.4079 111.496 21.4544 111.31 21.4544C109.36 21.4544 107.41 21.4544 105.459 21.4544C105.297 21.4544 105.146 21.4544 105.134 21.2336C105.123 20.9779 105.274 20.9547 105.471 20.9547C106.655 20.9663 107.27 20.2924 107.27 18.9095C107.258 16.353 107.27 13.8082 107.27 11.2517C107.27 10.078 106.806 9.59003 105.633 9.41568C105.448 9.39247 105.169 9.47382 105.146 9.14843C105.111 8.75333 105.436 8.85788 105.622 8.82303C106.724 8.63712 107.839 8.47443 108.931 8.28852C109.337 8.21882 109.488 8.27687 109.477 8.75333C109.441 10.4499 109.465 12.1697 109.465 13.8896Z" fill="#526373"/>
<path d="M135.527 27.0438C135.992 26.4396 136.514 26.2653 137.187 26.2769C140.426 26.3118 143.677 26.2886 146.916 26.3001C147.148 26.3001 147.415 26.1956 147.438 26.6255C147.461 27.0903 147.194 27.0555 146.892 27.0438C143.828 27.0438 140.751 27.0438 137.687 27.0438H135.527Z" fill="#526373"/>
<path d="M108.269 5.59223C107.387 5.59223 106.666 4.88338 106.666 3.98862C106.666 3.10551 107.375 2.38501 108.269 2.38501C109.151 2.38501 109.871 3.09386 109.871 3.98862C109.871 4.87182 109.151 5.59223 108.269 5.59223Z" fill="#526373"/>
<path d="M103.394 6.39401C102.581 3.41919 100.642 1.53668 97.6348 0.804618C96.4512 0.514072 95.2441 0.363019 94.0251 0.363019C91.4128 0.351458 88.8005 0.351458 86.189 0.351458C85.991 0.351458 85.7012 0.211965 85.6894 0.618712C85.6659 1.04867 85.9447 0.955671 86.189 0.967316C87.8603 1.08352 88.4526 1.66452 88.4526 3.3262C88.4643 8.38108 88.4643 13.4243 88.4526 18.4791C88.4526 20.1292 87.814 20.7335 86.1654 20.8032C85.9565 20.8148 85.6894 20.7102 85.6894 21.1053C85.6894 21.5353 85.9683 21.4423 86.2 21.4423C87.675 21.4423 89.1374 21.4423 90.8669 21.4423C92.6545 21.4191 94.71 21.5236 96.741 21.1518C100.224 20.5127 102.557 18.5953 103.463 15.1093C104.206 12.2507 104.183 9.24099 103.394 6.39401ZM100.468 14.6793C99.713 18.2932 97.6003 19.9898 93.8389 20.1989C93.4674 20.2222 93.1077 20.2222 92.7362 20.1989C91.7843 20.1524 91.4355 19.7923 91.3547 18.8394C91.2266 17.4915 91.2965 16.1318 91.2847 14.7839C91.2738 13.4708 91.2847 12.1577 91.2847 10.3449C91.3429 8.20674 91.1921 5.5806 91.3547 2.95438C91.4128 1.92013 91.7144 1.62967 92.748 1.58318C93.8507 1.52503 94.9534 1.64132 96.0216 1.92013C98.4477 2.58249 99.8293 4.25589 100.386 6.62642C101.002 9.27584 101.025 12.0183 100.468 14.6793Z" fill="#526373"/>
<path d="M63.3997 16.5856C63.4344 17.2596 63.33 17.9452 63.0629 18.5727C62.8773 19.0259 62.6102 19.4326 62.262 19.7696C61.2752 20.7225 59.9517 20.8155 59.1623 19.9788C58.2336 19.0026 58.2336 17.2945 59.1856 16.4229C60.0562 15.6212 61.1591 15.412 62.2736 15.2726C63.388 15.1331 63.3997 15.1447 63.3997 16.2487V16.5856Z" fill="white"/>
<path d="M147.532 13.3779C147.102 10.2637 145.07 8.38116 141.959 8.20681C139.347 8.06741 137.258 9.46182 136.352 11.9138C136.003 12.8666 135.888 13.866 135.864 15.0861C135.876 15.3185 135.888 15.7601 135.934 16.2017C136.213 19.2694 138.035 21.2913 140.973 21.6632C143.55 21.9886 146.092 20.9544 147.16 18.0028C147.706 16.5038 147.752 14.9467 147.532 13.3779ZM144.501 18.7814C143.828 20.385 142.505 21.0938 141.007 20.6988C140.09 20.4547 139.521 19.8272 139.15 19.0138C138.395 17.3869 138.314 15.6555 138.43 13.9124C138.499 12.8666 138.685 11.844 139.161 10.8912C139.707 9.79887 140.531 9.13651 141.796 9.13651C143.039 9.14807 143.863 9.81043 144.385 10.8795C145.024 12.1694 145.152 13.5755 145.152 15.2023C145.14 16.283 145.012 17.5729 144.501 18.7814Z" fill="#526373"/>
<path d="M118.845 8.36991C117.904 8.12586 116.964 8.14907 116.024 8.28856C113.783 8.61395 112.402 9.91538 111.903 12.1116C111.531 13.7385 111.531 15.4351 111.914 17.0619C112.448 19.3511 113.83 20.8618 116.128 21.4428C117.765 21.8495 119.484 21.8379 121.121 21.4311C121.886 21.2452 121.886 21.222 121.759 20.3737L121.329 20.4899C118.914 21.1522 116.57 20.2459 115.246 18.131C114.48 16.9108 114.155 15.5513 113.992 14.1336C113.934 13.5991 114.108 13.4712 114.631 13.4829C116.988 13.5061 119.356 13.4945 121.712 13.4945C121.91 13.4945 122.2 13.6223 122.211 13.2156C122.235 11.031 121.422 9.04391 118.845 8.36991ZM118.357 12.5648H116.79C115.978 12.5648 115.165 12.5648 114.352 12.5648C114.178 12.5648 113.98 12.6346 113.98 12.2975C113.98 10.9496 115.293 9.35758 116.57 9.17167C117.986 8.96256 119.019 9.61327 119.448 10.9961C119.924 12.5067 119.878 12.5648 118.357 12.5648Z" fill="#526373"/>
<path d="M136.153 6.6149C135.91 6.06875 135.434 5.89449 134.877 5.90605C134.088 5.9177 133.53 6.336 133.089 6.9403C132.741 7.4516 132.45 7.99776 132.241 8.57877C132.16 8.78796 132.102 8.91573 131.835 8.77632C130.558 8.10232 129.188 8.12561 127.807 8.28822C126.146 8.49742 124.672 9.11328 124.15 10.8564C123.593 12.6924 123.651 14.5051 125.079 16.0042C125.404 16.3411 125.427 16.4922 125.137 16.8524C124.103 18.1307 123.814 19.6878 125.45 20.8614C124.985 21.1288 124.545 21.3727 124.185 21.733C123.14 22.7439 123.012 24.3708 123.871 25.5329C124.336 26.1371 124.963 26.5903 125.682 26.8227C128.248 27.7058 130.767 27.6013 133.217 26.416C134.006 26.0442 134.679 25.4515 135.155 24.7195C136.815 22.1629 135.643 19.6065 132.636 19.2579C131.196 19.0952 129.734 19.2114 128.294 19.1766C127.807 19.1649 127.331 19.2114 126.855 19.1068C125.728 18.8744 125.392 18.0493 126.019 17.0848C126.158 16.8757 126.274 16.8059 126.53 16.8873C127.807 17.294 129.13 17.294 130.431 17.05C132.078 16.7362 133.333 15.8763 133.773 14.1565C134.18 12.5297 133.96 11.0074 132.938 9.64787C132.845 9.52002 132.694 9.43867 132.741 9.20627C132.903 8.29987 133.472 7.98612 134.297 8.34636C134.377 8.39286 134.47 8.42771 134.564 8.45092C135.097 8.55556 135.62 8.52062 136.002 8.07911C136.386 7.63751 136.374 7.11465 136.153 6.6149ZM126.262 21.3612C126.379 21.2565 126.53 21.1985 126.68 21.1868C128.491 21.2333 130.314 21.0823 132.126 21.2682C133.832 21.4541 134.54 22.9066 133.634 24.3941C132.869 25.6607 131.614 26.1139 130.245 26.3695C129.873 26.4393 129.479 26.4508 129.188 26.4857C127.969 26.4393 126.901 26.2184 126.042 25.4282C124.73 24.2081 124.835 22.3488 126.262 21.3612ZM131.405 14.54C131.138 15.5742 130.431 16.1204 129.385 16.2598C128.166 16.4108 127.261 15.9925 126.738 15.0281C126.286 14.203 126.204 13.3083 126.17 12.2624C126.193 12.0416 126.216 11.7046 126.274 11.356C126.495 9.94998 127.18 9.26433 128.515 9.13657C129.873 9.00872 130.849 9.60137 131.289 10.8912C131.696 12.0765 131.742 13.3431 131.405 14.54Z" fill="#526373"/>
</svg>
