<svg width="121" height="36" viewBox="0 0 121 36" fill="none" xmlns="http://www.w3.org/2000/svg">
<g clip-path="url(#clip0_5018_50840)">
<path fill-rule="evenodd" clip-rule="evenodd" d="M104.218 4.95094H100.956H100.942V10.98H101.682V8.13389H104.053V7.54267H101.682V5.55591H104.218V4.95094ZM98.9393 7.93452C98.9393 6.11963 97.8029 4.84095 96.1965 4.84095C94.541 4.84095 93.3765 6.19869 93.3765 7.99983C93.3765 9.80098 94.541 11.0934 96.1334 11.0934C97.8029 11.0934 98.9393 9.80098 98.9393 7.93452ZM86.9614 7.76953L85.4532 4.95094V4.97157H84.6149L86.5756 8.6048V10.98H87.3016V8.6048L89.2342 4.95094H88.4275L86.9614 7.76953ZM83.7521 4.95094H79.3678V5.55591H81.1881V10.98H81.9282V5.55591H83.7521V4.95094ZM72.7492 8.06514C73.1654 8.21675 73.553 8.43514 73.8961 8.71135C74.0923 8.88313 74.2109 9.12421 74.2258 9.38163C74.2258 9.97284 73.8681 10.4713 72.9526 10.4713C72.4298 10.4296 71.9275 10.2529 71.497 9.9591L71.1463 10.4438C71.6637 10.8618 72.3136 11.0903 72.9842 11.09C74.2679 11.09 74.9694 10.3372 74.9694 9.33007C74.9695 9.12718 74.9282 8.92631 74.8481 8.73922C74.768 8.55212 74.6507 8.38256 74.5029 8.24044C74.1042 7.89012 73.6428 7.61509 73.142 7.42924C72.8379 7.31372 72.5521 7.15631 72.2932 6.96177C72.2006 6.88974 72.1264 6.79757 72.0765 6.69257C72.0266 6.58756 72.0023 6.4726 72.0056 6.3568C72.0056 5.82058 72.444 5.41498 73.2262 5.41498C73.6992 5.42436 74.1561 5.58489 74.5275 5.87214L74.8782 5.44248C74.6535 5.22512 74.3848 5.05649 74.0893 4.94753C73.7938 4.83857 73.4782 4.79172 73.1631 4.81002C72.0547 4.81002 71.3006 5.46998 71.3006 6.39805C71.2899 6.57597 71.3154 6.75421 71.3756 6.92239C71.4358 7.09058 71.5295 7.24534 71.6514 7.37768C71.9703 7.67201 72.3427 7.90519 72.7492 8.06514ZM63.6298 4.95094H60.2732V10.98H63.6859V10.3647H60.9992V8.13389H63.4544V7.54267H60.9992V5.55591H63.6298V4.95094ZM56.0502 10.2685L54.2544 4.95094H53.4758L55.6013 10.9662H56.4501L58.6036 4.95094H57.9022L56.0502 10.2685ZM51.8378 4.95094H51.0977V10.9662H51.8378V4.95094ZM44.9035 4.95094H44.1494L44.1565 10.9662H44.8264V6.03713L47.7832 10.9662H48.5478V4.95094H47.8779V9.90753L44.9035 4.95094ZM37.4081 4.95094V8.4948L37.408 8.58202C37.4071 9.28885 37.4062 9.95617 37.9588 10.4713C38.1833 10.678 38.4473 10.8391 38.7357 10.9453C39.024 11.0515 39.331 11.1007 39.6389 11.09C39.9395 11.1047 40.2401 11.06 40.5228 10.9584C40.8054 10.8568 41.0642 10.7005 41.2839 10.4988C41.8384 9.94232 41.8369 9.1819 41.8348 8.14299L41.8345 7.94484V4.95094H41.1085V8.14764L41.1086 8.31644C41.1098 9.28117 41.1103 9.69966 40.7086 10.0966C40.5689 10.2265 40.4033 10.3268 40.2223 10.3912C40.0413 10.4557 39.8486 10.4829 39.6564 10.4713C39.2384 10.4887 38.8302 10.3442 38.52 10.0691C38.1482 9.70473 38.1482 9.23382 38.1482 8.7526V4.95094H37.4081ZM17.2859 29.6514C19.8191 29.3582 22.1673 28.2039 23.922 26.3894L23.936 26.4031C26.4066 24.5639 28.2186 22.0044 29.1116 19.0926C30.0047 16.1807 29.9328 13.0664 28.9063 10.197C27.8799 7.32772 25.9517 4.85115 23.3988 3.12321C20.8459 1.39527 17.7998 0.504913 14.6982 0.58008C11.5965 0.655247 8.59904 1.69207 6.13643 3.54156C3.67383 5.39105 1.8729 7.95799 0.992411 10.8735C0.111927 13.7891 0.197226 16.9031 1.23605 19.7681C2.27488 22.6332 4.21375 25.1017 6.77405 26.8191C6.96999 27.5377 7.40313 28.1725 8.00589 28.6246C8.60864 29.0766 9.34713 29.3204 10.1061 29.318C10.532 29.3159 10.9539 29.2379 11.3513 29.0877C11.89 29.2641 12.4394 29.4076 12.9963 29.5173C12.8349 29.9385 12.6329 30.3437 12.393 30.7273L12.6946 31.0229C12.7753 30.9793 12.8656 30.9557 12.9577 30.9541C13.0957 30.965 13.2245 31.0263 13.3184 31.126C13.4123 31.2257 13.4644 31.3564 13.4644 31.4921C13.4644 31.6277 13.4123 31.7584 13.3184 31.8581C13.2245 31.9578 13.0957 32.0192 12.9577 32.03C12.8347 32.0234 12.7149 31.989 12.6078 31.9293C12.5007 31.8697 12.4091 31.7865 12.3404 31.6863C12.2932 31.8718 12.2696 32.0623 12.2702 32.2534C12.2702 33.2881 13.4242 34.4671 15.0131 34.9655C16.6019 34.4808 17.7524 33.2984 17.7524 32.2672C17.7576 32.076 17.7351 31.8851 17.6857 31.7C17.6164 31.7997 17.5247 31.8824 17.4177 31.942C17.3107 32.0016 17.1912 32.0364 17.0684 32.0438C16.9304 32.0329 16.8016 31.9716 16.7077 31.8719C16.6138 31.7722 16.5617 31.6415 16.5617 31.5058C16.5617 31.3701 16.6138 31.2394 16.7077 31.1398C16.8016 31.0401 16.9304 30.9787 17.0684 30.9679C17.1707 30.9656 17.2712 30.9944 17.356 31.0504L17.6577 30.7548C17.5033 30.3975 17.3789 30.0285 17.2859 29.6514ZM36.2016 22.9108C36.2016 26.5888 39.1583 29.4108 43.0165 29.4108C43.9129 29.4303 44.8041 29.2724 45.6368 28.9464C46.4694 28.6205 47.2264 28.1332 47.8624 27.5138C48.4983 26.8944 49.0002 26.1557 49.338 25.3417C49.6757 24.5277 49.8424 23.6554 49.828 22.7768C49.828 19.0954 46.8747 16.2734 43.0165 16.2734C42.1195 16.2534 41.2277 16.4111 40.3944 16.737C39.5611 17.063 38.8035 17.5505 38.1671 18.1703C37.5308 18.7901 37.0286 19.5295 36.6909 20.3441C36.3531 21.1587 36.1867 22.0317 36.2016 22.9108ZM58.7194 29.1977H64.3944V28.7543L63.3106 28.469C62.9201 28.3806 62.5752 28.1573 62.3391 27.8399L58.1582 22.4399L61.9007 17.8065C62.1657 17.5133 62.522 17.3139 62.9143 17.2393L64.0647 16.9574V16.5037H59.5051V16.9574L60.6555 17.2393C61.0554 17.3493 60.9852 17.4558 60.7642 17.7377L57.7794 21.835H57.7092L54.791 17.7377C54.5701 17.4421 54.4613 17.2668 54.8998 17.2015L56.1204 16.9574V16.5037H50.4313V16.9609L51.5151 17.2427C51.9069 17.3302 52.2525 17.5552 52.4867 17.8752L56.4466 23.0312L52.4867 27.9052C52.2242 28.2009 51.8666 28.3998 51.473 28.469L50.3226 28.7543V29.208H54.9068V28.7543L53.7564 28.469C53.3565 28.3624 53.4266 28.2559 53.6441 27.974L56.8534 23.6224H56.9341L60.0908 28.0015C60.2907 28.2833 60.3784 28.4312 59.94 28.4965L58.7194 28.7405V29.1977ZM66.9759 4.95094H65.6571V10.9628H66.3832V8.34356H66.8076C67.6985 8.34356 67.8914 8.45356 68.3298 9.40569L69.0313 10.9628H69.7994L68.9752 9.17883C68.8671 8.88578 68.7094 8.61269 68.5087 8.37106C68.3787 8.22954 68.1975 8.14323 68.0036 8.13045C68.3777 8.08938 68.7258 7.92304 68.9892 7.65954C69.2508 7.37866 69.3893 7.00835 69.375 6.62835C69.3824 6.40533 69.3436 6.18316 69.261 5.97523C69.1785 5.76729 69.0538 5.57788 68.8945 5.41842C68.414 4.95095 67.7967 4.95094 66.9759 4.95094ZM75.4464 19.6729H75.9796V16.49H66.1797V16.9162L67.5091 17.2393C67.8949 17.3493 68.0457 17.5005 68.0457 17.8443V27.8124C68.0457 28.1734 67.9054 28.3109 67.5091 28.4174L66.1797 28.7405V29.1942H71.9741V28.7405L70.4939 28.4174C70.1116 28.3349 69.9608 28.1562 69.9608 27.8124V23.1515H73.0999C73.2938 23.1319 73.4877 23.1869 73.6409 23.3049C73.7941 23.423 73.8944 23.5947 73.9207 23.7839L74.2504 25.0592H74.7835V20.8278H74.2504L73.9207 21.914C73.8919 22.1021 73.791 22.2724 73.6384 22.3899C73.4859 22.5075 73.2932 22.5635 73.0999 22.5465H69.9643V17.0777H74.0329C74.4784 17.0777 74.6783 17.2668 74.8291 17.7652L75.4464 19.6729ZM76.9932 10.98H77.7333V4.95094H76.9932V10.98ZM77.7859 22.9108C77.7859 26.5888 80.7392 29.4108 84.5974 29.4108H84.5868C85.4844 29.4322 86.3771 29.2757 87.2114 28.9506C88.0457 28.6254 88.8043 28.1385 89.4418 27.5189C90.0793 26.8993 90.5824 26.1599 90.9211 25.345C91.2597 24.5301 91.4268 23.6565 91.4123 22.7768C91.4123 19.0954 88.4556 16.2734 84.5974 16.2734C83.7007 16.2539 82.8092 16.4119 81.9763 16.7381C81.1434 17.0642 80.3863 17.5518 79.7503 18.1716C79.1143 18.7913 78.6124 19.5305 78.2749 20.3449C77.9374 21.1592 77.771 22.032 77.7859 22.9108ZM106.323 29.1977V28.7543L105.021 28.4724C104.824 28.4379 104.635 28.364 104.468 28.2552C104.301 28.1464 104.159 28.005 104.05 27.8399L102.296 25.5438C100.896 23.7427 100.676 23.4883 100.279 23.313V23.2443C102.243 22.7905 103.436 21.4844 103.436 19.9273C103.429 19.2556 103.217 18.6014 102.826 18.0497C102.435 17.498 101.884 17.0743 101.244 16.8337C100.37 16.5673 99.4567 16.451 98.543 16.49H92.882V16.9437L94.2113 17.2668C94.5936 17.3768 94.7444 17.528 94.7444 17.8718V27.8124C94.7444 28.1768 94.6076 28.3109 94.2113 28.4174L92.882 28.7405V29.1977H98.6903V28.7405L97.2101 28.4174C96.8103 28.3349 96.6595 28.1562 96.6595 27.8124V23.5021H97.6766C98.6096 23.5021 98.9078 23.8905 99.6619 24.9526L102.363 28.658C102.692 29.0877 102.875 29.1977 103.225 29.1977H106.323ZM113.534 29.1977C115.372 29.1977 116.768 28.9536 117.785 28.4174H117.774C119.966 27.29 120.829 25.1795 120.822 22.9108C120.822 20.5872 119.714 18.2224 117.259 17.119C116.284 16.7031 115.091 16.49 113.436 16.49H107.357V16.9437L108.687 17.2668C109.083 17.3768 109.22 17.528 109.22 17.8718V27.8124C109.22 28.1768 109.083 28.3109 108.687 28.4174L107.357 28.7405V29.1977H113.534ZM10.9967 12.6867C11.0677 12.679 11.1395 12.6857 11.2077 12.7064C11.2759 12.7271 11.339 12.7613 11.3931 12.807C11.4299 12.8413 11.4587 12.8831 11.4775 12.9294C11.4963 12.9756 11.5046 13.0254 11.5018 13.0751C11.5018 13.3982 11.2422 13.546 10.9406 13.546H10.5899V13.491C10.6881 13.491 10.7021 13.491 10.7021 13.3295V12.8998C10.7021 12.752 10.7021 12.752 10.6039 12.7383V12.6867H10.9967ZM10.9266 13.3295C10.9266 13.4498 10.9546 13.4635 11.0248 13.4635C11.0949 13.4635 11.2563 13.3432 11.2563 13.1198C11.2563 12.8964 11.1054 12.7555 10.9967 12.7555H10.9406V12.8242L10.9266 13.3295ZM12.5058 13.2839C12.5269 13.2264 12.5352 13.1651 12.5301 13.1043C12.5305 13.0467 12.5193 12.9895 12.4972 12.9362C12.475 12.8828 12.4423 12.8343 12.4008 12.7934C12.3594 12.7525 12.3102 12.72 12.2559 12.6978C12.2016 12.6757 12.1434 12.6643 12.0846 12.6643C12.023 12.6624 11.9616 12.6729 11.9043 12.6952C11.847 12.7176 11.795 12.7512 11.7516 12.7941C11.7081 12.837 11.6742 12.8882 11.6518 12.9445C11.6295 13.0008 11.6192 13.0611 11.6216 13.1215C11.6187 13.1802 11.6282 13.2388 11.6497 13.2937C11.6711 13.3486 11.704 13.3985 11.7463 13.4402C11.7885 13.482 11.8392 13.5146 11.895 13.5361C11.9509 13.5575 12.0107 13.5673 12.0706 13.5649C12.1328 13.5685 12.1951 13.559 12.2533 13.537C12.3114 13.515 12.364 13.481 12.4076 13.4374C12.4512 13.3937 12.4847 13.3413 12.5058 13.2839ZM12.0916 13.5202C11.9689 13.5202 11.8742 13.3449 11.8742 13.1043V13.0905C11.8742 12.8499 11.9303 12.7605 12.053 12.7605C12.1758 12.7605 12.2705 12.9393 12.2705 13.1764C12.2705 13.4136 12.2144 13.5202 12.0916 13.5202ZM13.7127 12.6909V12.7391C13.6617 12.7391 13.6339 12.7391 13.6187 12.7529C13.6005 12.7696 13.6005 12.8062 13.6005 12.8869V13.3303C13.6005 13.4118 13.6005 13.4484 13.6188 13.4671C13.6336 13.4823 13.6605 13.4857 13.7092 13.4918V13.564H13.2988V13.509C13.397 13.509 13.4111 13.509 13.4111 13.3475V12.8766L13.148 13.5365H13.0814L12.8323 12.9178V13.2134V13.43C12.8323 13.4815 12.8744 13.4953 12.9586 13.4953V13.5503H12.6289V13.4953C12.6956 13.4953 12.7236 13.4953 12.7236 13.43C12.738 13.3539 12.7474 13.2769 12.7517 13.1997V12.9316C12.7517 12.77 12.7517 12.7562 12.6429 12.7425V12.6909H12.9586L13.1901 13.2134L13.397 12.6909H13.7127ZM14.2591 13.4918C14.1504 13.4781 14.1504 13.4781 14.1504 13.3303L14.1539 12.9006C14.1539 12.7391 14.1644 12.7391 14.2627 12.7391V12.6875H13.8242V12.7391C13.933 12.7528 13.933 12.7528 13.933 12.9006V13.3475C13.933 13.509 13.9189 13.509 13.8242 13.509V13.564H14.2591V13.4918ZM11.9832 15.1465H11.8745L11.3694 14.5278V14.7684C11.3592 14.8541 11.3592 14.9406 11.3694 15.0262C11.3694 15.064 11.4115 15.0915 11.5062 15.0915V15.1465H11.1765V15.0915C11.2326 15.0915 11.2747 15.064 11.2747 15.0262V14.7684V14.5141C11.2747 14.4212 11.2747 14.3937 11.2467 14.3662C11.2353 14.3517 11.2203 14.3402 11.2031 14.333C11.1859 14.3258 11.1671 14.323 11.1484 14.325V14.2734H11.4501L11.9025 14.8234V14.6481C11.9128 14.5636 11.9128 14.4782 11.9025 14.3937C11.9025 14.3525 11.864 14.325 11.7658 14.325V14.2734H12.1165V14.325C12.0929 14.3216 12.0689 14.3267 12.0489 14.3393C12.0289 14.352 12.0143 14.3713 12.0078 14.3937V14.6481V15.1465H11.9832ZM12.4969 15.0569L12.5315 15.146H12.6297C12.7244 14.8745 12.9033 14.4586 12.9033 14.4586C12.9594 14.3211 12.9699 14.3211 13.0541 14.3211V14.2695H12.7244V14.3211H12.7665C12.8086 14.3348 12.8366 14.3658 12.8086 14.4311C12.789 14.4766 12.7422 14.6138 12.7026 14.7301L12.7026 14.7301L12.7026 14.7302L12.7025 14.7303L12.7025 14.7304L12.7025 14.7305L12.7025 14.7305C12.6853 14.781 12.6694 14.8275 12.6577 14.8607C12.6387 14.8032 12.6032 14.7155 12.5687 14.6303L12.5687 14.6303C12.5269 14.527 12.4865 14.4275 12.4789 14.3898C12.4648 14.3211 12.4648 14.3211 12.521 14.3211H12.5595V14.2695H12.1211V14.3211L12.1248 14.3218C12.1916 14.3349 12.2028 14.3371 12.2579 14.4586C12.3074 14.5677 12.4087 14.8293 12.4969 15.0569ZM13.1237 14.8619C13.1518 14.941 13.236 15.0888 13.3728 15.0888C13.3903 15.0895 13.4078 15.0863 13.424 15.0796C13.4401 15.073 13.4546 15.0628 13.4663 15.05C13.4781 15.0372 13.4868 15.022 13.4918 15.0056C13.4968 14.9891 13.4981 14.9717 13.4955 14.9547C13.4955 14.8756 13.4394 14.8344 13.3587 14.7931C13.25 14.7416 13.1237 14.6728 13.1237 14.5388C13.1244 14.5002 13.1334 14.4621 13.15 14.4271C13.1667 14.3921 13.1907 14.361 13.2205 14.3357C13.2503 14.3104 13.2852 14.2915 13.3229 14.2803C13.3606 14.2691 13.4003 14.2658 13.4394 14.2707C13.4812 14.2639 13.5239 14.2639 13.5657 14.2707C13.5875 14.2762 13.6105 14.2762 13.6323 14.2707C13.6366 14.3377 13.646 14.4044 13.6604 14.47H13.6042C13.5762 14.391 13.5236 14.2947 13.4254 14.2947C13.3925 14.2956 13.3613 14.3091 13.3383 14.3322C13.3154 14.3553 13.3026 14.3862 13.3026 14.4185C13.3026 14.4838 13.3587 14.525 13.4394 14.5663H13.4675C13.5902 14.6178 13.7025 14.6866 13.7025 14.8481C13.7 14.8898 13.6887 14.9306 13.6693 14.9678C13.65 15.005 13.623 15.0378 13.59 15.0643C13.5571 15.0908 13.5189 15.1103 13.4779 15.1216C13.4369 15.1329 13.3939 15.1358 13.3517 15.13C13.3003 15.1288 13.2493 15.1195 13.2009 15.1025C13.1736 15.0911 13.1455 15.0819 13.1167 15.075C13.1167 15.0313 13.1068 14.989 13.096 14.9428C13.0898 14.9163 13.0832 14.8885 13.0781 14.8585L13.1237 14.8619ZM11.4775 16.6598C11.3688 16.6495 11.3688 16.6495 11.3688 16.5017V16.0686C11.3688 15.9105 11.3828 15.9105 11.4775 15.9105V15.8555H11.0391V15.9105H11.0391C11.09 15.9151 11.1178 15.9177 11.133 15.9329C11.1513 15.9512 11.1513 15.9878 11.1513 16.0686V16.4982C11.1513 16.6564 11.1373 16.6564 11.0391 16.6564V16.7148H11.4775V16.6598ZM11.9164 16.5257C11.9164 16.5945 11.9164 16.6357 11.9409 16.6357C11.9732 16.6435 12.0069 16.6435 12.0391 16.6357C12.0615 16.6394 12.0844 16.6375 12.1058 16.6303C12.1272 16.6231 12.1465 16.6108 12.1619 16.5945C12.1931 16.5547 12.2158 16.5091 12.2285 16.4604H12.2846C12.2846 16.512 12.2426 16.6461 12.2285 16.6873H11.5586V16.6564C11.6533 16.6564 11.6673 16.6564 11.6673 16.4982V16.0686V16.0686C11.6673 15.9835 11.6673 15.9474 11.6493 15.9301C11.636 15.9174 11.6128 15.9148 11.5726 15.9105V15.8555H12.0111V15.9105C11.9164 15.9105 11.9023 15.9105 11.9023 16.0686V16.5257H11.9164ZM12.6703 16.5258V16.5257H12.6633V16.0686C12.6633 15.9105 12.6773 15.9105 12.772 15.9105V15.8555H12.3265V15.9105C12.3667 15.9148 12.3899 15.9174 12.4032 15.9301C12.4212 15.9474 12.4212 15.9835 12.4212 16.0686V16.0686V16.4982C12.4212 16.6564 12.4072 16.6564 12.3125 16.6564V16.6873H12.9824C12.9965 16.6461 13.0386 16.512 13.0386 16.4604H12.9824C12.9697 16.5091 12.947 16.5547 12.9158 16.5945C12.9004 16.6108 12.8811 16.6231 12.8597 16.6303C12.8383 16.6375 12.8154 16.6394 12.793 16.6357C12.7608 16.6435 12.7271 16.6435 12.6948 16.6357C12.6703 16.6357 12.6703 16.5945 12.6703 16.5258ZM13.3127 16.7281C13.2872 16.6631 13.2596 16.5922 13.2318 16.5208L13.2318 16.5207C13.1566 16.3275 13.0801 16.131 13.0391 16.0406C12.9841 15.9192 12.9695 15.9169 12.906 15.9071L12.9024 15.9066V15.8516H13.3408V15.9066H13.2987C13.2461 15.9066 13.2461 15.9066 13.2601 15.9719C13.2671 16.0045 13.3012 16.0901 13.3384 16.1836L13.3384 16.1837L13.3384 16.1837L13.3385 16.1838L13.3385 16.1839C13.3758 16.2776 13.4162 16.3791 13.4355 16.4428C13.4613 16.3774 13.5029 16.2552 13.5369 16.1554C13.5584 16.0924 13.5768 16.0384 13.5863 16.0131C13.6109 15.9478 13.5863 15.9169 13.5477 15.9066H13.5056V15.8516H13.8248V15.9066C13.7406 15.9066 13.7266 15.9066 13.674 16.0406C13.674 16.0406 13.4951 16.4565 13.4004 16.7281H13.3127ZM16.9338 12.7391V12.6875L16.9197 12.6909H16.6041L16.3971 13.2134L16.1656 12.6909H15.85V12.7425C15.9587 12.7562 15.9587 12.77 15.9587 12.9316V13.1997C15.9568 13.2769 15.9486 13.354 15.9342 13.43C15.9342 13.4953 15.9061 13.4953 15.8359 13.4953V13.5503H16.1656V13.4953C16.085 13.4953 16.0429 13.4815 16.0429 13.43V13.2134V12.9178L16.2884 13.5365H16.3586L16.6181 12.8766V13.3475C16.6181 13.509 16.6041 13.509 16.5094 13.509V13.564H16.9338V13.4918C16.885 13.4857 16.8582 13.4823 16.8433 13.4671C16.825 13.4484 16.825 13.4118 16.825 13.3303V12.8869C16.825 12.7391 16.8391 12.7391 16.9338 12.7391ZM17.3727 13.3303C17.3727 13.4118 17.3727 13.4484 17.3909 13.4671C17.4058 13.4823 17.4327 13.4857 17.4814 13.4918V13.564H17.043V13.509C17.1377 13.509 17.1517 13.509 17.1517 13.3475V12.9006C17.1517 12.7528 17.1517 12.7528 17.043 12.7391V12.6875H17.4814V12.7391C17.3867 12.7391 17.3727 12.7391 17.3727 12.9006V13.3303ZM18.2756 13.5625H18.3844H18.3984V13.0778V12.8234C18.3984 12.7822 18.4405 12.7547 18.5071 12.7547V12.7031H18.1564V12.7547C18.2511 12.7547 18.2932 12.7822 18.2932 12.8234C18.3036 12.9079 18.3036 12.9933 18.2932 13.0778V13.2531L17.8407 12.7031H17.5391V12.7547C17.5571 12.753 17.5754 12.7559 17.592 12.7631C17.6086 12.7703 17.623 12.7816 17.6338 12.7959C17.6618 12.8234 17.6618 12.8509 17.6618 12.9437V13.1844V13.4421C17.6618 13.48 17.6197 13.5075 17.5671 13.5075V13.5625H17.9179V13.5075C17.8232 13.5075 17.7811 13.48 17.7811 13.4421C17.7709 13.3565 17.7709 13.27 17.7811 13.1844V12.9437L18.2756 13.5625ZM18.9309 13.4898H18.973C19.0291 13.4898 19.0292 13.4898 19.0151 13.4245L18.959 13.2904H18.7345L18.6924 13.4107C18.6924 13.4623 18.6924 13.4761 18.7345 13.4898H18.7731V13.562H18.4609V13.507C18.5276 13.507 18.5556 13.507 18.5977 13.3867L18.8713 12.6992H18.966L19.0642 12.9536C19.1168 13.1151 19.173 13.2629 19.2256 13.397C19.272 13.5152 19.2911 13.5185 19.3406 13.527C19.3473 13.5282 19.3545 13.5294 19.3624 13.531V13.562H18.945V13.4932L18.9309 13.4898ZM18.7696 13.2183H18.945L18.8643 12.9639L18.7696 13.2183ZM17.0415 15.074C16.9187 15.0603 16.9187 15.0603 16.9187 14.9125H16.8907V14.3487H16.9187C16.9854 14.3487 17.0275 14.3487 17.0555 14.3762C17.0838 14.4161 17.1018 14.4621 17.1081 14.5103H17.1643V14.2422H17.1222C17.0976 14.2697 17.0976 14.2697 17.0555 14.2697H16.5224C16.5093 14.2714 16.4959 14.2697 16.4837 14.2649C16.4714 14.2601 16.4606 14.2523 16.4522 14.2422H16.4102V14.5103H16.4663C16.4785 14.4632 16.4973 14.4181 16.5224 14.3762C16.547 14.335 16.575 14.335 16.6732 14.335H16.6978V14.9125C16.6978 15.074 16.6872 15.074 16.575 15.074V15.129H17.0415V15.074ZM17.6305 14.9162C17.6305 14.9978 17.6305 15.0343 17.6488 15.053C17.6636 15.0682 17.6905 15.0716 17.7392 15.0778V15.1328H17.3008V15.0778C17.399 15.0778 17.413 15.0778 17.413 14.9162V14.4866C17.413 14.4058 17.413 14.3692 17.3947 14.3503C17.3795 14.3346 17.3517 14.3312 17.3008 14.325V14.2734H17.7392V14.325C17.6445 14.325 17.6305 14.325 17.6305 14.4866V14.9162ZM18.624 15.0003C18.7088 14.9171 18.7565 14.8044 18.7565 14.6868C18.7565 14.5722 18.7105 14.4622 18.6285 14.3805C18.5465 14.2988 18.435 14.252 18.3181 14.2502C18.2581 14.2484 18.1983 14.2583 18.1422 14.2793C18.0862 14.3003 18.0349 14.3321 17.9915 14.3727C17.9481 14.4134 17.9134 14.462 17.8893 14.516C17.8653 14.5699 17.8525 14.6279 17.8516 14.6868C17.8516 14.8044 17.8992 14.9171 17.9841 15.0003C18.0689 15.0834 18.184 15.1302 18.304 15.1302C18.424 15.1302 18.5391 15.0834 18.624 15.0003ZM18.3181 15.1027C18.1918 15.1027 18.0971 14.9274 18.0971 14.6868V14.673C18.0971 14.4324 18.1532 14.3396 18.276 14.3396C18.3987 14.3396 18.4934 14.5218 18.4934 14.7589C18.4934 14.9961 18.4443 15.1027 18.3181 15.1027ZM17.3326 15.855V15.91C17.2379 15.91 17.2239 15.91 17.2239 16.0578V16.5012C17.2239 16.5828 17.2239 16.6193 17.2422 16.6374C17.257 16.6522 17.2839 16.6547 17.3326 16.6593V16.7143H16.9082V16.6559C17.0029 16.6559 17.0169 16.6559 17.0169 16.4978V16.0303L16.7574 16.6868H16.6908L16.4417 16.0681V16.3637V16.5803C16.4417 16.6353 16.4838 16.649 16.5645 16.649V16.7006H16.2383V16.6559C16.3049 16.6559 16.333 16.6559 16.333 16.5906C16.3476 16.5145 16.357 16.4376 16.3611 16.3603V16.0922C16.3611 15.9306 16.3611 15.9169 16.2488 15.9066V15.8516H16.5645L16.7995 16.374L17.0029 15.8516L17.3326 15.855ZM17.5187 15.9307C17.5368 15.9482 17.5368 15.9845 17.5368 16.0686H17.5228V16.4982V16.4983C17.5228 16.5871 17.5228 16.626 17.5035 16.6431C17.4884 16.6564 17.4617 16.6564 17.4141 16.6564V16.6873H18.1156C18.1156 16.669 18.1238 16.6326 18.133 16.592L18.133 16.5919L18.133 16.5919C18.1446 16.5408 18.1576 16.4831 18.1576 16.4467H18.1015C18.0858 16.4942 18.0634 16.5393 18.0349 16.5807C17.9947 16.6105 17.9449 16.6252 17.8946 16.622C17.8635 16.6294 17.831 16.6294 17.7999 16.622C17.7718 16.622 17.7718 16.5807 17.7718 16.512V16.2989H17.842C17.9133 16.2989 17.9474 16.2989 17.9638 16.3159C17.9788 16.3316 17.9788 16.3616 17.9788 16.4192H18.0349V16.1098H17.9682C17.9542 16.2164 17.9402 16.2164 17.8315 16.2164H17.7613V15.962C17.7613 15.9208 17.7613 15.9208 17.8174 15.9208H17.8455C17.9121 15.9208 17.9542 15.9345 17.9823 15.9483C18.0103 15.962 18.0349 16.0033 18.0349 16.0686H18.084V15.8555H17.4386V15.9105C17.4809 15.9149 17.505 15.9174 17.5187 15.9307ZM18.6574 16.6554C18.684 16.6554 18.698 16.6554 18.7038 16.6485C18.7104 16.6408 18.7069 16.6245 18.6995 16.5901L18.6995 16.5901L18.6434 16.4561H18.4259L18.3838 16.5764C18.3838 16.6314 18.3838 16.6451 18.4259 16.6554H18.468V16.7104H18.1523V16.6554C18.219 16.6554 18.2471 16.6554 18.2891 16.5351L18.5627 15.8477H18.6574L18.7556 16.102C18.8082 16.2636 18.8644 16.4114 18.9205 16.5454C18.9704 16.6646 18.9842 16.667 19.036 16.6757C19.0425 16.6768 19.0495 16.678 19.0573 16.6795V16.7345H18.6294V16.6554H18.6574ZM18.454 16.3736H18.6294L18.5487 16.1192L18.454 16.3736ZM7.93314 24.4422C7.82404 24.3793 7.71409 24.3158 7.60898 24.2512L7.60547 24.2375C7.88496 23.8392 8.26017 23.5145 8.69799 23.2919C9.13581 23.0693 9.62279 22.9557 10.116 22.9611C10.6092 22.9666 11.0934 23.0908 11.526 23.323C11.9586 23.5552 12.3263 23.8881 12.5966 24.2925C12.1091 24.1754 11.6327 24.0179 11.1726 23.8216C10.8426 23.6724 10.4837 23.595 10.1203 23.5947C9.73771 23.5942 9.36045 23.6828 9.01959 23.8531C8.67873 24.0234 8.384 24.2706 8.15965 24.5743C8.08588 24.5304 8.00972 24.4864 7.93314 24.4422ZM11.5154 24.4957L10.9822 24.1863C10.5714 23.995 10.1055 23.9493 9.66413 24.0572C9.22275 24.165 8.83324 24.4196 8.5621 24.7775C9.11446 25.0615 9.64583 25.2873 10.0314 25.4511L10.0315 25.4511C10.1919 25.5192 10.3271 25.5767 10.4281 25.6231C10.5281 25.6671 10.6098 25.7433 10.6596 25.839C10.7094 25.9348 10.7242 26.0444 10.7017 26.1495C10.6792 26.2547 10.6206 26.3492 10.5357 26.4172C10.4509 26.4853 10.3448 26.5229 10.2352 26.5237C10.1419 26.5237 10.0511 26.4948 9.9756 26.4412C9.37788 26.092 8.81118 25.6942 8.28151 25.2519C8.18776 25.4825 8.14128 25.7289 8.14471 25.9772C8.1483 26.3465 8.25473 26.7078 8.45253 27.0222C8.65033 27.3366 8.93199 27.5921 9.2671 27.7611C11.1383 28.7842 13.2382 29.3391 15.3806 29.3767C18.4671 29.3767 20.9609 28.4898 22.9742 26.7059C17.6505 28.1475 13.2432 25.5241 11.5228 24.5001L11.5154 24.4957ZM13.462 27.6924C13.369 27.6924 13.2798 27.6562 13.214 27.5917C13.1482 27.5272 13.1113 27.4398 13.1113 27.3486C13.1113 27.2575 13.1482 27.17 13.214 27.1056C13.2798 27.0411 13.369 27.0049 13.462 27.0049C13.555 27.0049 13.6442 27.0411 13.71 27.1056C13.7758 27.17 13.8128 27.2575 13.8128 27.3486C13.8128 27.438 13.7773 27.5239 13.7138 27.5881C13.6503 27.6523 13.5637 27.6897 13.4725 27.6924H13.462ZM17.0396 28.2698C16.9702 28.2698 16.9024 28.2497 16.8447 28.2119C16.7871 28.1741 16.7421 28.1205 16.7156 28.0577C16.689 27.9948 16.6821 27.9257 16.6956 27.8591C16.7091 27.7924 16.7425 27.7311 16.7916 27.6831C16.8406 27.635 16.9031 27.6022 16.9712 27.589C17.0392 27.5757 17.1097 27.5825 17.1738 27.6085C17.2379 27.6346 17.2927 27.6786 17.3312 27.7351C17.3698 27.7917 17.3904 27.8581 17.3904 27.9261C17.3904 28.0173 17.3534 28.1047 17.2876 28.1692C17.2218 28.2336 17.1326 28.2698 17.0396 28.2698ZM13.4363 29.5977C14.0794 29.7064 14.7303 29.765 15.3829 29.773C15.8775 29.773 16.372 29.7455 16.8631 29.7042C16.9332 29.9723 17.0279 30.2542 17.1366 30.5498H17.084C16.9539 30.5446 16.8241 30.5656 16.7026 30.6116C16.5811 30.6576 16.4705 30.7276 16.3778 30.8172C16.2851 30.9068 16.2121 31.0141 16.1634 31.1325C16.1148 31.2509 16.0914 31.3778 16.0949 31.5054C16.0934 31.6323 16.1182 31.7581 16.1676 31.8754C16.217 31.9927 16.2901 32.099 16.3824 32.188C16.4748 32.2769 16.5846 32.3466 16.7052 32.3929C16.8257 32.4392 16.9546 32.4612 17.084 32.4575C17.1619 32.4551 17.2393 32.4459 17.3155 32.43C17.1927 33.2378 16.2457 34.1246 15.0287 34.5267C13.7905 34.1246 12.861 33.224 12.7383 32.43C12.8144 32.4465 12.8919 32.4557 12.9698 32.4575C13.1 32.4642 13.2302 32.4444 13.3522 32.3992C13.4741 32.3539 13.5851 32.2843 13.6782 32.1948C13.7712 32.1052 13.8442 31.9977 13.8925 31.879C13.9408 31.7603 13.9634 31.6331 13.9589 31.5054C13.9603 31.3807 13.9365 31.2569 13.8888 31.1413C13.8412 31.0256 13.7707 30.9203 13.6814 30.8315C13.592 30.7427 13.4856 30.6721 13.3683 30.6237C13.251 30.5754 13.1251 30.5502 12.9978 30.5498C13.1685 30.2438 13.3151 29.9255 13.4363 29.5977ZM24.567 9.04613C24.6267 9.1434 24.711 9.22393 24.8118 9.27993C24.9125 9.33592 25.0263 9.3655 25.1422 9.3658C25.3762 9.35267 25.6024 9.27915 25.7981 9.15269C25.9407 9.08114 26.0623 8.97506 26.1513 8.84451C26.2403 8.71397 26.2938 8.56329 26.3067 8.4068C26.3036 8.27486 26.2662 8.14588 26.1979 8.03213C26.1379 7.93585 26.0533 7.85663 25.9524 7.80236C25.8514 7.74808 25.7378 7.72065 25.6227 7.72277C25.3974 7.73048 25.1788 7.79951 24.9914 7.92213C24.8441 7.99833 24.7189 8.10985 24.6275 8.2463C24.5361 8.38275 24.4815 8.53967 24.4688 8.7024C24.4716 8.82323 24.5054 8.94142 24.567 9.04613ZM6.67046 3.64933C9.10422 1.91805 12.0349 0.986503 15.0422 0.988286C18.8244 0.994659 22.4494 2.47129 25.1218 5.0941C27.7942 7.71691 29.2956 11.2716 29.2965 14.9781C29.3042 17.135 28.7976 19.2639 27.8172 21.195C26.8368 23.1262 25.4096 24.8062 23.6495 26.1012C21.5558 26.82 19.2965 26.9392 17.1362 26.4449C17.1923 25.5959 17.5501 24.7263 18.0832 24.5647C20.2804 23.9051 22.1884 22.5424 23.5019 20.6946C24.8154 18.8467 25.4586 16.6205 25.3285 14.3721C25.1985 12.1237 24.3027 9.98304 22.7845 8.2925C21.2663 6.60196 19.2135 5.45926 16.9543 5.0472C14.6951 4.63514 12.3602 4.97753 10.323 6.0196C8.2859 7.06167 6.66424 8.7432 5.71748 10.7952C4.77072 12.8472 4.55358 15.1511 5.10078 17.3383C5.64799 19.5255 6.92793 21.4697 8.73584 22.8598C8.14956 23.1082 7.64638 23.5132 7.28376 24.0285C7.09675 23.9102 6.91751 23.7805 6.74712 23.6401L6.65242 23.7329C6.76115 23.8532 6.94003 24.0285 7.14697 24.2279C6.83195 24.748 6.66594 25.3417 6.66644 25.9465C6.65945 26.0404 6.65945 26.1346 6.66644 26.2284C4.2333 24.4963 2.42236 22.0536 1.49329 19.2505C0.564222 16.4475 0.564758 13.4281 1.49482 10.6254C2.42489 7.82271 4.23671 5.38062 6.67046 3.64933ZM2.60131 10.7537L2.25057 10.6609L1.8402 12.0323L4.32347 12.7198L4.70578 11.3449L4.35504 11.2521L4.07093 12.2454L3.3028 12.0426L3.57638 11.1283L3.24668 11.0355L2.98713 11.9498L2.28564 11.7608L2.60131 10.7537ZM3.61496 14.4625L1.51049 15.04L1.53855 15.4696L4.14459 14.7031V14.2872L1.58766 13.2801V13.696L3.61496 14.4625ZM4.18317 16.3461L1.65079 16.6899L1.7034 17.1092L4.23929 16.7483L4.18317 16.3461ZM6.31219 21.619C6.31195 21.4023 6.24063 21.1914 6.10876 21.0174C6.02496 20.8914 5.91403 20.7849 5.78376 20.7053C5.65349 20.6257 5.50703 20.5751 5.35466 20.5568C5.05529 20.6 4.77444 20.7251 4.54444 20.9178L3.40803 21.6705L3.63952 21.9936L4.83205 21.1996L4.8634 21.1793C5.09278 21.0303 5.22372 20.9453 5.35466 20.9453C5.44229 20.947 5.52814 20.9698 5.60462 21.0118C5.68109 21.0537 5.74582 21.1135 5.79309 21.1859C5.8648 21.2875 5.9072 21.4063 5.91585 21.5296C5.91585 21.7049 5.82115 21.8252 5.60018 21.973C5.57212 21.9868 4.27086 22.9011 4.27086 22.9011L4.50235 23.2448L5.79309 22.358C6.23152 22.0624 6.31219 21.863 6.31219 21.619ZM5.09511 19.4397L4.95481 19.096L3.20459 19.7697L4.60757 18.1164L4.47078 17.7726L2.04363 18.6045L2.18042 18.9482L3.9622 18.3295L2.55922 19.9966L2.69601 20.3403L5.09511 19.4397ZM5.03197 9.18281L5.75802 9.24812L5.93339 8.85283L5.09511 8.78408C4.95901 8.765 4.82084 8.765 4.68474 8.78408C4.64096 8.8017 4.59969 8.82481 4.56197 8.85283C4.57799 8.80974 4.58744 8.76457 4.59003 8.71878C4.59451 8.65002 4.58497 8.58108 4.56197 8.51597C4.53563 8.44083 4.49409 8.37167 4.43986 8.31261C4.38562 8.25355 4.31979 8.20581 4.24631 8.17224C4.13964 8.11148 4.01892 8.07835 3.89556 8.076C3.5378 8.076 3.37295 8.29255 3.14146 8.69472L2.83982 9.21718L5.09862 10.4134L5.29152 10.0696L4.35854 9.57123L4.41466 9.47842C4.57951 9.18281 4.63563 9.15531 5.03197 9.18281ZM6.19645 8.19974C6.49277 8.15834 6.76473 8.01595 6.96458 7.79758H6.95406C7.10764 7.6414 7.20705 7.44173 7.23816 7.22699C7.23571 7.12476 7.21133 7.02419 7.16661 6.93181C7.12189 6.83943 7.05784 6.7573 6.97861 6.69077C6.8518 6.57588 6.6848 6.51312 6.51212 6.51547C6.31759 6.53171 6.12756 6.58176 5.95093 6.66327L5.91692 6.67974C5.72403 6.77344 5.44618 6.90842 5.27749 6.75608C5.2475 6.72893 5.2236 6.69596 5.2073 6.65927C5.19099 6.62259 5.18265 6.58298 5.18279 6.54296C5.18852 6.42698 5.23714 6.31701 5.31959 6.23361C5.45258 6.0919 5.63304 6.00165 5.82816 5.97925L5.75802 5.63552C5.61501 5.63901 5.47461 5.67386 5.34715 5.7375C5.21968 5.80115 5.10839 5.89198 5.02145 6.00331C4.87581 6.15698 4.79227 6.35737 4.78645 6.56703C4.78729 6.65886 4.80842 6.74943 4.84838 6.8325C4.88834 6.91557 4.94619 6.98918 5.01794 7.04825C5.30556 7.30261 5.63526 7.19605 5.95093 7.07575C6.11302 6.99263 6.2887 6.93795 6.47003 6.91419C6.55603 6.91252 6.63967 6.94188 6.70503 6.99669C6.74264 7.0282 6.77302 7.06716 6.79418 7.111C6.81534 7.15483 6.8268 7.20256 6.82779 7.25105C6.82384 7.37148 6.77521 7.48636 6.691 7.57415C6.5305 7.71979 6.33096 7.81756 6.11578 7.85601L6.19645 8.19974ZM6.70503 4.53558L8.26584 6.52234L8.56398 6.29204L7.0207 4.28466L6.70503 4.53558ZM8.91472 3.52501L9.95293 5.44647L10.3177 5.26085L9.28301 3.34627L9.92838 3.02317L9.76352 2.71381L8.1045 3.55939L8.26935 3.86874L8.91472 3.52501ZM12.2152 4.55964L12.6116 4.45309L12.331 3.50095L12.6817 1.82011L12.2398 1.94042L12.0223 3.15035L11.1455 2.24978L10.7211 2.37008L11.9381 3.62126L12.2152 4.55964ZM14.7907 3.19748C14.8565 3.26194 14.9457 3.29815 15.0387 3.29815C15.1318 3.29815 15.221 3.26194 15.2867 3.19748C15.3525 3.13301 15.3895 3.04559 15.3895 2.95442C15.3895 2.86326 15.3525 2.77583 15.2867 2.71137C15.221 2.64691 15.1318 2.61069 15.0387 2.61069C14.9457 2.61069 14.8565 2.64691 14.7907 2.71137C14.7249 2.77583 14.688 2.86326 14.688 2.95442C14.688 3.04559 14.7249 3.13301 14.7907 3.19748ZM18.455 4.76244C18.6417 4.7649 18.8257 4.71864 18.9881 4.62839C19.2046 4.48847 19.3836 4.29957 19.51 4.07762C19.6363 3.85567 19.7064 3.60719 19.7142 3.35315C19.7176 3.13779 19.6657 2.92504 19.5633 2.73444C19.4632 2.56161 19.3177 2.41819 19.1419 2.31907C18.9661 2.21994 18.7665 2.16872 18.5637 2.17072C18.2817 2.17944 18.0108 2.28076 17.7946 2.4584C17.5783 2.63604 17.4292 2.87973 17.3712 3.15035C17.3285 3.2852 17.3049 3.42514 17.301 3.56626C17.2926 3.78652 17.3447 4.00495 17.4519 4.19873C17.5528 4.37158 17.699 4.51493 17.8753 4.61401C18.0517 4.7131 18.2517 4.76433 18.455 4.76244ZM21.5415 3.70032L22.4009 4.22622L22.5657 3.94093L21.3767 3.21909L20.0754 5.38116L20.4262 5.58052L21.0154 4.60089L21.8362 5.0718L22.0151 4.77619L21.1908 4.30528L21.5415 3.70032ZM23.2117 6.46841C23.2665 6.50854 23.3322 6.53207 23.4005 6.53609V6.52234C23.4931 6.52197 23.5823 6.48808 23.6509 6.42716C23.7195 6.36625 23.7628 6.28262 23.7723 6.19236C23.7722 6.12528 23.752 6.0597 23.7143 6.00371C23.6766 5.94772 23.623 5.90375 23.5602 5.87724C23.4973 5.85073 23.4279 5.84282 23.3605 5.8545C23.2931 5.86617 23.2306 5.89692 23.1808 5.94295C23.1311 5.98898 23.0961 6.04828 23.0803 6.11355C23.0645 6.17881 23.0685 6.24718 23.0918 6.31024C23.1152 6.37329 23.1568 6.42827 23.2117 6.46841ZM24.7719 23.5817C25.1297 23.5817 25.4173 23.4889 25.8557 22.9389L26.245 22.4405L24.2458 20.8696L23.895 21.313C23.6257 21.5805 23.4606 21.932 23.4286 22.3064C23.4343 22.4978 23.4844 22.6855 23.5749 22.8552C23.6654 23.0248 23.7941 23.1722 23.9512 23.2861C24.1833 23.4718 24.4723 23.5758 24.7719 23.5817ZM26.7361 20.8181C27.1535 20.8181 27.3113 20.574 27.5042 20.1306C27.57 19.9485 27.6473 19.7706 27.7357 19.5978L25.4068 18.5666L25.2419 18.931L26.217 19.3607L26.1609 19.4672C26.0241 19.7559 25.9679 19.8109 25.5716 19.8109H24.8315L24.6527 20.1994H25.5015C25.6408 20.2097 25.7809 20.1957 25.9153 20.1581C25.9548 20.142 25.9915 20.1199 26.0241 20.0928V20.1581C26.021 20.2517 26.0402 20.3447 26.0802 20.4297C26.1429 20.5469 26.2372 20.6451 26.3528 20.7135C26.4685 20.782 26.601 20.8182 26.7361 20.8181ZM27.2447 17.9926C27.5186 17.9977 27.7873 17.9183 28.0128 17.7658H27.9953C28.1426 17.6653 28.2618 17.5302 28.3421 17.3728C28.4224 17.2155 28.4611 17.041 28.4547 16.8652C28.4547 16.1124 27.7532 15.6827 27.0518 15.6827C26.7735 15.6818 26.5012 15.762 26.2696 15.913C26.1265 16.0163 26.0108 16.1516 25.932 16.3077C25.8533 16.4638 25.8139 16.6361 25.8171 16.8102C25.8171 17.6489 26.6273 17.9926 27.2447 17.9926ZM28.2513 14.6481L28.602 14.6206L28.4898 13.2251L25.9434 13.4279L25.9679 13.83L27.1219 13.7338L27.2026 14.6619L27.5533 14.6344L27.4691 13.7097L28.1706 13.6547L28.2513 14.6481ZM27.0342 11.0905L27.7357 10.3102L27.5884 9.85308L26.6589 10.9393L25.1367 10.5955L25.2735 11.0115L26.4099 11.2658L25.6558 12.1251L25.7926 12.5548L26.7957 11.3758L28.1987 11.7195L28.0619 11.3174L27.0342 11.0905ZM26.708 8.43004C26.7094 8.22046 26.6484 8.01503 26.5326 7.83883H26.5151C26.4171 7.67713 26.2764 7.54426 26.108 7.45415C25.9395 7.36404 25.7494 7.32001 25.5576 7.32667C25.2744 7.33502 24.999 7.41944 24.7614 7.57072C24.5684 7.67831 24.406 7.83157 24.2889 8.0165C24.1719 8.20143 24.104 8.41215 24.0915 8.62941C24.0909 8.83936 24.1531 9.04488 24.2703 9.22062C24.3709 9.38107 24.5117 9.51362 24.6793 9.60568C24.8469 9.69773 25.0357 9.74622 25.2279 9.74653C25.5166 9.73567 25.7967 9.64772 26.0381 9.49217C26.2303 9.38283 26.3921 9.22869 26.5089 9.0434C26.6258 8.85812 26.6942 8.64744 26.708 8.43004ZM96.1718 10.4686C97.4591 10.4686 98.1711 9.39274 98.1711 7.90096C98.1711 6.40917 97.3223 5.45703 96.1298 5.45703C94.9372 5.45703 94.1445 6.45042 94.1445 7.95595C94.1445 9.46149 95.0179 10.4686 96.1718 10.4686ZM3.85856 8.46878C3.92985 8.46789 4.00008 8.48569 4.06199 8.52034C4.15604 8.57268 4.23647 8.64561 4.29699 8.73346C4.30408 8.76863 4.30408 8.80483 4.29699 8.84001C4.27097 9.00307 4.21 9.15887 4.11811 9.29717L4.06199 9.38998L3.33594 9.01531L3.44468 8.81251C3.5955 8.57534 3.69371 8.46878 3.85856 8.46878ZM18.5904 2.49219C18.0292 2.49219 17.7275 3.12122 17.7275 3.56463C17.72 3.72393 17.7576 3.88218 17.8363 4.02179C17.8948 4.12953 17.9815 4.22007 18.0875 4.28411C18.1935 4.34814 18.315 4.38336 18.4395 4.38614C19.0428 4.38614 19.3024 3.66087 19.3024 3.29652C19.312 3.19741 19.301 3.09742 19.27 3.00261C19.239 2.9078 19.1887 2.82014 19.1221 2.74494C19.0555 2.66973 18.9741 2.60856 18.8827 2.56511C18.7913 2.52167 18.6918 2.49686 18.5904 2.49219ZM14.1256 24.9531C14.0039 25.0385 13.9013 25.1473 13.8239 25.2728C13.4346 25.1009 12.9681 24.8706 12.6875 24.6953C13.1612 24.809 13.6414 24.8951 14.1256 24.9531ZM7.70947 25.9602C7.70751 25.6116 7.78668 25.2672 7.94097 24.9531C7.911 24.9283 7.88124 24.904 7.85179 24.8799L7.85141 24.8796C7.70516 24.7598 7.56662 24.6464 7.44992 24.5234C7.20536 24.9569 7.07742 25.4443 7.07813 25.9396C7.07813 26.3294 7.15654 26.7155 7.30888 27.0756C7.46122 27.4357 7.68449 27.7629 7.96594 28.0384C8.24739 28.3139 8.58149 28.5323 8.94914 28.6812C9.31679 28.8301 9.71077 28.9064 10.1086 28.906C10.3063 28.9098 10.5039 28.8925 10.6978 28.8544C10.1227 28.6422 9.56755 28.3811 9.0388 28.0742C8.64204 27.8736 8.30861 27.5707 8.07438 27.1982C7.84015 26.8258 7.71399 26.3977 7.70947 25.9602ZM23.7852 22.2364C23.7956 22.3773 23.8378 22.5142 23.9088 22.6373C23.9798 22.7603 24.0777 22.8664 24.1955 22.9479C24.3573 23.0915 24.5665 23.1733 24.7848 23.1782C25.1355 23.1782 25.3319 22.9754 25.609 22.6385L25.7178 22.5045L24.2517 21.3633L24.0868 21.5661C23.9184 21.7538 23.8131 21.9879 23.7852 22.2364ZM27.1707 20.0048C27.0339 20.3142 26.9392 20.4104 26.7463 20.4104C26.6653 20.4105 26.586 20.3875 26.5181 20.3441C26.4502 20.3008 26.3967 20.239 26.364 20.1664C26.3476 20.1186 26.3382 20.0689 26.3359 20.0186C26.351 19.8677 26.3976 19.7214 26.4727 19.5889L26.5148 19.4961L27.2549 19.8192L27.1707 20.0048ZM27.0191 16.0833C26.815 16.0778 26.6141 16.1343 26.4439 16.2448C26.3537 16.3128 26.2808 16.4003 26.2309 16.5005C26.181 16.6006 26.1555 16.7108 26.1563 16.8223C26.1563 17.3207 26.7455 17.5888 27.2401 17.5888C27.4398 17.5943 27.6363 17.5378 27.8013 17.4272C27.8904 17.3614 27.9627 17.2763 28.0126 17.1785C28.0625 17.0807 28.0886 16.9729 28.0889 16.8635C28.0897 16.729 28.0467 16.5978 27.9661 16.4889C27.8506 16.3546 27.7051 16.2482 27.5409 16.1778C27.3767 16.1075 27.1981 16.0751 27.0191 16.0833ZM112.993 17.0898C114.512 17.0898 115.487 17.2273 116.241 17.657C118.062 18.6779 118.654 20.7574 118.654 22.947C118.654 25.1366 118.037 26.869 116.708 27.8245C115.911 28.3883 114.789 28.6048 113.281 28.6048H111.689C111.222 28.6048 111.113 28.4948 111.113 28.0377V17.0898H112.993ZM24.8791 14.9562C24.8782 13.3102 24.4475 11.6919 23.628 10.2552C22.8084 8.81848 21.6274 7.61121 20.1972 6.74827C18.767 5.88533 17.1352 5.39543 15.4572 5.3252C13.7792 5.25496 12.1108 5.60672 10.6107 6.34701C9.11061 7.0873 7.82881 8.19148 6.88726 9.55447C5.94572 10.9175 5.37576 12.4939 5.23163 14.1338C5.0875 15.7737 5.37399 17.4224 6.06384 18.9231C6.7537 20.4238 7.82396 21.7265 9.17277 22.7073C9.47215 22.6267 9.78127 22.5863 10.0917 22.587C10.7296 22.5888 11.3547 22.7626 11.8985 23.0894C12.4423 23.4162 12.8838 23.8834 13.1748 24.4397C13.7855 24.5521 14.4053 24.6108 15.0267 24.615C17.6372 24.605 20.1378 23.5841 21.9834 21.7748C23.829 19.9654 24.8699 17.5145 24.8791 14.9562ZM15.7598 7.98531L16.812 8.67277V8.74152L16.5665 8.83433C16.5104 8.86182 16.5104 8.90307 16.5384 8.91339L17.1417 9.45304H17.1978L17.6818 8.80339C17.7099 8.76558 17.6818 8.72433 17.6398 8.71058L17.3381 8.65559V8.60403L18.1343 7.50065H18.2571L19.0533 8.60403V8.68309L18.7516 8.73808C18.6955 8.73808 18.6815 8.78964 18.7095 8.83089L19.162 9.49085H19.2181L19.86 8.9512C19.888 8.9237 19.888 8.88589 19.8319 8.87214L19.5864 8.76558V8.69683L20.6141 8.00937L20.6947 8.03687L20.0669 9.90333C19.4494 9.71763 18.8043 9.63512 18.1589 9.65928C17.5146 9.63762 16.8712 9.72008 16.2543 9.90333L15.6265 8.03687L15.7598 7.98531ZM19.9687 10.3914C19.9687 10.5805 19.176 10.7352 18.215 10.7352C17.2539 10.7352 16.4613 10.5873 16.4613 10.3914C16.4613 10.1955 17.2574 10.0477 18.215 10.0477C19.1725 10.0477 19.9722 10.2161 19.9722 10.4017L19.9687 10.3914ZM15.2407 13.1069C15.2174 12.8752 15.2585 12.6416 15.3598 12.431C15.4611 12.2204 15.6187 12.0406 15.8159 11.9107C16.1273 11.7618 16.4735 11.6965 16.819 11.7217H19.86V17.7232H16.5419C15.7913 17.7232 15.3389 17.8847 15.2968 18.555H15.2266L15.2407 13.1069ZM14.8163 13.1069V18.5447H14.7496C14.7075 17.8572 14.2691 17.7129 13.501 17.7129H10.211V11.732H13.2414C13.5858 11.7068 13.9309 11.7721 14.241 11.921C14.4367 12.0526 14.5933 12.2325 14.695 12.4426C14.7966 12.6528 14.8397 12.8855 14.8198 13.1172L14.8163 13.1069ZM10.0882 10.3914C10.0882 10.2058 10.8809 10.0477 11.8419 10.0477C12.803 10.0477 13.5957 10.1955 13.5957 10.3914C13.5957 10.5873 12.7995 10.7352 11.8419 10.7352C10.8844 10.7352 10.0917 10.5908 10.0917 10.4017L10.0882 10.3914ZM9.41478 7.98531L10.467 8.67277V8.74152L10.2215 8.84808C10.1654 8.87557 10.1654 8.91339 10.1934 8.92713L10.7967 9.46679H10.8493L11.3018 8.80683C11.3299 8.76558 11.3018 8.72777 11.2632 8.71402L10.9616 8.65903V8.59372L11.7543 7.49034H11.8805L12.6732 8.59372V8.67277L12.4207 8.75183C12.3681 8.75183 12.354 8.80339 12.3821 8.84464L12.831 9.5046H12.8872L13.5325 8.96494C13.5606 8.93745 13.5606 8.89964 13.5045 8.88589L13.259 8.77933V8.71058L14.2866 8.02312L14.3673 8.05062L13.736 9.91708C13.1196 9.73157 12.4757 9.64907 11.8314 9.67303C11.1872 9.65137 10.5437 9.73383 9.92687 9.91708L9.29553 8.05062L9.41478 7.98531ZM15.0267 23.2847C14.0516 23.2847 13.273 23.1369 13.273 22.941C13.273 22.7451 14.0692 22.5973 15.0267 22.5973C15.9842 22.5973 16.7804 22.7451 16.7804 22.941C16.7804 23.1369 16.0123 23.2847 15.0407 23.2847H15.0267ZM16.9172 22.4392C16.3008 22.2537 15.657 22.1712 15.0127 22.1951C14.3673 22.1733 13.7227 22.2557 13.1046 22.4392L12.4768 20.5727L12.5575 20.5452L13.6097 21.2327V21.3014L13.3642 21.408C13.3081 21.4355 13.3081 21.4733 13.3361 21.487L13.9394 22.0267H13.992L14.4445 21.3667C14.4725 21.3255 14.4445 21.2877 14.4059 21.2739L14.1042 21.2189V21.1399L14.8969 20.0365H15.0197L15.8159 21.1399V21.2189L15.5142 21.2739C15.4581 21.2739 15.4476 21.3255 15.4722 21.3667L15.9246 22.0267H15.9807L16.6261 21.487C16.6507 21.4595 16.6507 21.4217 16.598 21.408L16.349 21.3014V21.2327L17.3767 20.5452L17.4609 20.5727L16.9172 22.4392ZM20.9333 18.9331H16.093C15.9856 19.1077 15.8294 19.2483 15.6429 19.3385C15.4564 19.4287 15.2474 19.4645 15.0407 19.4418C14.8343 19.4624 14.6261 19.4256 14.44 19.3357C14.2539 19.2457 14.0974 19.1062 13.9885 18.9331H9.14471V18.476L8.74837 18.6375C8.73179 18.7255 8.68392 18.8048 8.61328 18.8615C8.54265 18.9181 8.45381 18.9484 8.36255 18.9469C8.2614 18.9442 8.16519 18.9034 8.09397 18.833C8.02275 18.7626 7.98201 18.6679 7.98023 18.5688C7.98023 18.4694 8.02052 18.3741 8.09221 18.3038C8.16391 18.2336 8.26115 18.1941 8.36255 18.1941C8.43685 18.1938 8.50931 18.2167 8.56949 18.2594L9.13068 18.0188V17.5238L8.74837 17.6441C8.72629 17.7233 8.67756 17.7929 8.61007 17.8416C8.54259 17.8902 8.46031 17.9151 8.37658 17.9122C8.27543 17.9096 8.17922 17.8688 8.108 17.7984C8.03678 17.7279 7.99604 17.6333 7.99427 17.5341C7.99427 17.4849 8.00416 17.4362 8.02337 17.3908C8.04258 17.3453 8.07074 17.304 8.10624 17.2692C8.14174 17.2344 8.18389 17.2068 8.23027 17.188C8.27666 17.1692 8.32637 17.1595 8.37658 17.1595C8.46781 17.1624 8.55544 17.1951 8.62561 17.2523L9.13068 17.1045V16.5958L8.73434 16.6576C8.70541 16.7255 8.65672 16.7836 8.59435 16.8245C8.53197 16.8655 8.45867 16.8875 8.38359 16.8879C8.28806 16.879 8.19937 16.8354 8.13483 16.7658C8.07028 16.6963 8.03452 16.6056 8.03452 16.5115C8.03452 16.4175 8.07028 16.3268 8.13483 16.2572C8.19937 16.1876 8.28806 16.1441 8.38359 16.1352C8.43543 16.1341 8.48686 16.1444 8.53416 16.1652C8.58147 16.186 8.62348 16.2168 8.65717 16.2555L9.12366 16.1764V15.6539H8.71329C8.6788 15.7099 8.63056 15.7565 8.57297 15.7895C8.51538 15.8226 8.45028 15.8409 8.38359 15.843C8.28304 15.8404 8.18733 15.8001 8.1162 15.7304C8.04507 15.6607 8.00394 15.5669 8.00128 15.4683C8.00082 15.4188 8.01036 15.3697 8.02937 15.3239C8.04837 15.278 8.07646 15.2363 8.11201 15.2012C8.14756 15.166 8.18986 15.1381 8.23647 15.1191C8.28309 15.1 8.33309 15.0902 8.38359 15.0902C8.44526 15.0919 8.50573 15.1074 8.56042 15.1353C8.61511 15.1633 8.66259 15.2031 8.69926 15.2518H9.12366V14.6881H8.68523C8.64973 14.7379 8.60251 14.7785 8.54756 14.8067C8.49261 14.8348 8.43155 14.8495 8.36956 14.8496C8.27403 14.8406 8.18534 14.7971 8.1208 14.7275C8.05625 14.6579 8.02049 14.5673 8.02049 14.4732C8.02049 14.3792 8.05625 14.2885 8.1208 14.2189C8.18534 14.1493 8.27403 14.1058 8.36956 14.0968C8.43625 14.0989 8.50135 14.1173 8.55894 14.1503C8.61653 14.1833 8.66477 14.2299 8.69926 14.2859H9.10963V13.76L8.63262 13.6809C8.56038 13.7537 8.46254 13.7967 8.35904 13.8012C8.25787 13.7995 8.16129 13.7596 8.08941 13.6898C8.01754 13.62 7.97592 13.5257 7.97322 13.4266C7.97368 13.3397 8.00463 13.2557 8.06086 13.1886C8.11709 13.1215 8.19517 13.0754 8.28199 13.058C8.36881 13.0407 8.45908 13.0532 8.53762 13.0934C8.61616 13.1336 8.67819 13.199 8.71329 13.2788L9.10963 13.3441V12.8353L8.56247 12.6738C8.50498 12.7169 8.43645 12.7436 8.36445 12.7509C8.29245 12.7582 8.21979 12.7459 8.15448 12.7154C8.08917 12.6848 8.03374 12.6371 7.99433 12.5776C7.95492 12.5181 7.93305 12.4491 7.93113 12.3782C7.93113 12.2779 7.97178 12.1817 8.04414 12.1108C8.11649 12.0399 8.21463 12.0001 8.31695 12.0001C8.39943 12.0026 8.4791 12.03 8.54503 12.0786C8.61097 12.1272 8.65994 12.1947 8.68523 12.2716L9.0956 12.3919V12.1891H9.52351V18.531H14.1954L14.2516 18.665C14.3322 18.8644 14.4831 19.0397 14.9916 19.0397C15.5002 19.0397 15.6475 18.8506 15.7317 18.665L15.7878 18.531H20.4878V12.1891H20.9122V18.9194L20.9333 18.9331ZM38.3711 22.8542C38.3711 19.8465 39.8618 16.918 43.0185 16.918C45.9367 16.918 47.6623 19.3481 47.6623 22.8542C47.6623 25.8481 46.1752 28.7767 43.0185 28.7767C40.0968 28.7767 38.3711 26.3465 38.3711 22.8542ZM14.1758 25.4457C14.9835 25.8131 15.8227 26.1099 16.6836 26.3326C16.7262 25.7753 16.9054 25.2364 17.2062 24.7617C16.4856 24.9123 15.7509 24.9884 15.0141 24.9886C14.8474 24.9942 14.6844 25.0386 14.5387 25.1181C14.3929 25.1976 14.2685 25.3099 14.1758 25.4457ZM68.6516 6.61213C68.6546 6.90268 68.5413 7.18281 68.336 7.39239C67.9107 7.80578 67.2463 7.78113 66.6011 7.75719L66.5893 7.75675H66.3438V5.51563H67.0452C67.5538 5.51563 68.0098 5.51563 68.3605 5.85936C68.5524 6.06448 68.6566 6.33392 68.6516 6.61213ZM84.5892 16.918C81.4325 16.918 79.9453 19.8465 79.9453 22.8542C79.9453 26.3465 81.671 28.7767 84.5892 28.7767C87.7459 28.7767 89.2366 25.8481 89.2366 22.8542C89.2366 19.3481 87.5109 16.918 84.5892 16.918ZM100.857 18.3951C101.152 18.8613 101.296 19.405 101.268 19.9534C101.268 21.3902 100.735 22.9095 98.2689 22.9438H96.6484V17.1004H97.6235C98.2964 17.0496 98.9729 17.1327 99.6122 17.3445C100.127 17.5623 100.561 17.9288 100.857 18.3951Z" fill="#1D2C4F"/>
</g>
<defs>
<clipPath id="clip0_5018_50840">
<rect width="120.306" height="35.0216" fill="white" transform="translate(0.496094 0.5)"/>
</clipPath>
</defs>
</svg>
