<svg xmlns="http://www.w3.org/2000/svg" width="130" height="100" viewBox="0 0 130 100" fill="none"><circle cx="65" cy="50" r="40" fill="#E6EEFF"></circle><g filter="url(#filter0_dd_32577_110787)"><path d="M92.4113 50.2032C92.4118 55.5843 90.8165 60.8446 87.8272 65.319C84.8379 69.7934 80.5888 73.2808 75.6174 75.3402C70.646 77.3995 65.1755 77.9383 59.8978 76.8885C54.6201 75.8386 49.7723 73.2472 45.9675 69.4421C42.1627 65.6369 39.5717 60.7888 38.5223 55.5111C37.473 50.2333 38.0123 44.7629 40.0721 39.7916C42.1319 34.8204 45.6197 30.5716 50.0944 27.5827C54.569 24.5938 59.8295 22.999 65.2106 23C72.4249 23.0007 79.3435 25.867 84.4446 30.9685C89.5456 36.07 92.4113 42.9889 92.4113 50.2032Z" fill="white"></path></g><g clip-path="url(#clip0_32577_110787)"><path d="M65.4605 74.9997C51.422 74.9997 40 63.5779 40 49.5389C40 35.4999 51.422 24.0781 65.4605 24.0781C79.4989 24.0781 90.9216 35.4999 90.9216 49.5389C90.9216 63.5779 79.4996 74.9997 65.4605 74.9997Z" fill="white"></path><path d="M57.3332 62.8564L58.5715 63.5709L56.6175 66.9569L55.3785 66.2412L57.3332 62.8564Z" fill="#9BACBC"></path><path d="M74.0469 33.9077L75.2853 34.6228L73.3306 38.0081L72.0917 37.2931L74.0469 33.9077Z" fill="#9BACBC"></path><path d="M52.1925 57.1924L52.9082 58.4313L49.5222 60.3859L48.8071 59.147L52.1925 57.1924Z" fill="#9BACBC"></path><path d="M81.141 40.4785L81.8573 41.7174L78.4713 43.6721L77.7562 42.4331L81.141 40.4785Z" fill="#9BACBC"></path><path d="M50.5725 49.7173V51.148H46.6638V49.7173H50.5725Z" fill="#9BACBC"></path><path d="M84 49.7173V51.148L80.0914 51.1474V49.7173H84Z" fill="#9BACBC"></path><path d="M52.9082 42.4331L52.1925 43.6721L48.8071 41.7174L49.5222 40.4785L52.9082 42.4331Z" fill="#9BACBC"></path><path d="M81.8573 59.147L81.141 60.3859L77.7562 58.4313L78.4713 57.1924L81.8573 59.147Z" fill="#9BACBC"></path><path d="M58.5715 37.2931L57.3332 38.0081L55.3785 34.6228L56.6175 33.9077L58.5715 37.2931Z" fill="#9BACBC"></path><path d="M75.2852 66.2413L74.0469 66.957L72.0922 63.571L73.3305 62.856L75.2852 66.2413Z" fill="#9BACBC"></path><path d="M66.0473 35.6734H64.6166V31.7642H66.0473V35.6734Z" fill="#9BACBC"></path><path d="M66.0473 69.1001H64.6166V65.1909H66.0473V69.1001Z" fill="#9BACBC"></path><path d="M70.8624 47.3045C70.606 46.9098 70.0764 46.7968 69.6817 47.0539L65.9838 49.4573C65.6996 49.3417 65.3825 49.3055 65.0673 49.3649L61.3675 39.4625C61.2415 39.1247 60.8656 38.9535 60.5278 39.0795C60.1899 39.2054 60.0181 39.582 60.1447 39.9192L63.9621 50.1368C63.7179 50.5482 63.6559 51.0611 63.8361 51.5436C64.152 52.3897 65.0944 52.8199 65.9412 52.5034C66.644 52.2412 67.058 51.5462 66.9979 50.8337L70.6118 48.4845C71.0071 48.2281 71.1189 47.6991 70.8618 47.3038L70.8624 47.3045Z" fill="#42505D"></path><path d="M54.6259 61.1744C54.5659 61.1744 54.5064 61.1499 54.4625 61.1027C54.3805 61.0129 54.387 60.8734 54.4767 60.7914L65.4967 50.7294C65.5865 50.6474 65.726 50.6539 65.8081 50.7436C65.8895 50.8334 65.8836 50.9729 65.7939 51.055L54.7739 61.1163C54.7319 61.155 54.6783 61.1744 54.6253 61.1744H54.6259Z" fill="#0BE597"></path><path d="M65.4095 51.8244C65.0614 51.8244 64.7778 51.5409 64.7778 51.1927C64.7778 50.8446 65.0614 50.561 65.4095 50.561C65.7577 50.561 66.0419 50.8446 66.0419 51.1927C66.0419 51.5409 65.7583 51.8244 65.4095 51.8244Z" fill="white"></path><path opacity="0.2" d="M85.829 32.792C85.8141 32.7739 85.7987 32.7572 85.7836 32.7397L46.986 65.7188C47.0005 65.736 47.0153 65.7547 47.0304 65.7721C56.1231 76.4689 72.2229 77.773 82.9203 68.6806C93.6171 59.5881 94.9218 43.4887 85.829 32.792Z" fill="#CFDAE8"></path></g><path d="M77.7093 27.2637C73.9654 25.1843 69.6557 24 65.0695 24C50.6717 24 39 35.6717 39 50.0695C39 64.4673 50.6717 76.139 65.0695 76.139C79.4673 76.139 91.139 64.4673 91.139 50.0695C91.139 45.6437 90.0361 41.4755 88.0902 37.8247" stroke="#9FC0FF" stroke-width="4"></path><path d="M84.4264 43.8781L88.3763 37.0366L95.2178 40.9865" stroke="#9FC0FF" stroke-width="4" stroke-linecap="round"></path><defs><filter id="filter0_dd_32577_110787" x="26" y="13" width="78.4113" height="78.4111" filterUnits="userSpaceOnUse" color-interpolation-filters="sRGB"><feFlood flood-opacity="0" result="BackgroundImageFix"></feFlood><feColorMatrix in="SourceAlpha" type="matrix" values="0 0 0 0 0 0 0 0 0 0 0 0 0 0 0 0 0 0 127 0" result="hardAlpha"></feColorMatrix><feOffset dy="4"></feOffset><feGaussianBlur stdDeviation="5"></feGaussianBlur><feColorMatrix type="matrix" values="0 0 0 0 0.607843 0 0 0 0 0.67451 0 0 0 0 0.737255 0 0 0 0.35 0"></feColorMatrix><feBlend mode="normal" in2="BackgroundImageFix" result="effect1_dropShadow_32577_110787"></feBlend><feColorMatrix in="SourceAlpha" type="matrix" values="0 0 0 0 0 0 0 0 0 0 0 0 0 0 0 0 0 0 127 0" result="hardAlpha"></feColorMatrix><feOffset dy="2"></feOffset><feGaussianBlur stdDeviation="6"></feGaussianBlur><feColorMatrix type="matrix" values="0 0 0 0 0.89625 0 0 0 0 0.930414 0 0 0 0 0.995833 0 0 0 0.5 0"></feColorMatrix><feBlend mode="normal" in2="effect1_dropShadow_32577_110787" result="effect2_dropShadow_32577_110787"></feBlend><feBlend mode="normal" in="SourceGraphic" in2="effect2_dropShadow_32577_110787" result="shape"></feBlend></filter><clipPath id="clip0_32577_110787"><rect width="49" height="49" fill="white" transform="translate(41 26)"></rect></clipPath></defs></svg>