<svg xmlns="http://www.w3.org/2000/svg" width="118" height="85" viewBox="0 0 118 85" fill="none"><circle cx="55" cy="42.3076" r="33.8462" fill="#E6EEFF"></circle><g filter="url(#filter0_d_32577_110464)"><path d="M17.3889 21.1538H92.6111C96.1372 21.1538 99 24.0663 99 27.6535V56.3137C99 59.9009 96.1372 62.8134 92.6111 62.8134H17.3889C13.8628 62.8134 11 59.9009 11 56.3137V27.6535C11 24.0663 13.8628 21.1538 17.3889 21.1538Z" fill="white"></path></g><path d="M44.5362 41.4718C44.5362 44.4022 43.6361 47.1167 42.0999 49.3657C41.4639 50.304 40.7125 51.1567 39.8645 51.9089C39.8459 51.9275 39.8273 51.9461 39.8087 51.961C39.3103 52.4041 38.7709 52.8137 38.2056 53.186C37.7109 53.5063 37.1976 53.7967 36.662 54.0611C34.8171 54.9584 32.7416 55.4648 30.5507 55.4648C30.4429 55.4648 30.335 55.4648 30.2234 55.4648C29.0257 55.435 27.8615 55.26 26.7568 54.9435C26.556 54.884 26.3588 54.8281 26.1654 54.7611C24.938 54.3552 23.7812 53.7855 22.7323 53.0743C21.9475 52.5381 21.2147 51.9275 20.5526 51.2461C20.482 51.1753 20.4076 51.0971 20.3406 51.0227C19.5446 50.1737 18.8528 49.2205 18.2949 48.1928C17.1939 46.1933 16.5727 43.907 16.5727 41.4718C16.5727 33.7455 22.8364 27.4751 30.5545 27.4751C38.2725 27.4751 44.5362 33.7455 44.5362 41.4718Z" fill="#E7EEFF"></path><path d="M39.8629 51.913C39.8629 51.913 39.8257 51.9502 39.8071 51.9651C39.3087 52.4082 38.7694 52.8178 38.204 53.1902C37.7093 53.5104 37.196 53.8008 36.6604 54.0652C34.8155 54.9626 32.74 55.469 30.5492 55.469C30.4414 55.469 30.3335 55.469 30.2219 55.469C29.0242 55.4392 27.86 55.2642 26.7553 54.9477C26.5544 54.8881 26.3573 54.8322 26.1639 54.7652C24.9364 54.3594 23.7797 53.7897 22.7308 53.0785C21.9459 52.5423 21.2132 51.9316 20.5511 51.2502C20.4804 51.1795 20.406 51.1013 20.3391 51.0268C21.8083 50.2746 24.1925 49.7757 26.8669 49.6044C29.4148 49.4406 32.2267 49.5746 34.7486 50.0698C36.7162 50.4571 38.5053 51.0566 39.8667 51.913H39.8629Z" fill="#3D7FFC"></path><path d="M27.0054 50.1624C28.8243 52.1359 34.9355 51.8418 34.7532 50.1215C34.7272 49.9092 34.69 48.647 34.6677 48.4533C34.6528 48.297 34.6379 48.1443 34.623 47.9991C34.5821 47.5746 34.5486 47.1985 34.5189 46.8746C34.4371 45.9288 34.411 45.4187 34.411 45.4187H34.4036C34.2288 45.3703 30.3009 44.2532 28.3445 43.7915C27.6898 43.6351 27.2546 43.5532 27.2621 43.6128C27.8609 48.0065 26.4029 49.5183 26.998 50.1662L27.0054 50.1624Z" fill="#FFB27D"></path><path d="M28.1425 45.0844C28.1425 45.0844 29.7828 46.7525 34.5215 46.8717C34.4396 45.9259 34.4136 45.4158 34.4136 45.4158H34.4062C34.2313 45.3674 30.3035 44.2503 28.347 43.7886C28.0011 43.9301 28.4586 44.8498 28.1387 45.0844H28.1425Z" fill="#ED975D"></path><path d="M35.6156 45.1806C35.6156 45.1806 34.4179 45.6125 32.8855 45.8173C30.65 46.1189 27.7079 45.9402 26.7854 43.2331C25.2307 38.6755 23.2407 35.9388 27.8195 34.077C30.2706 33.0791 31.8403 33.027 32.9041 33.4068C33.8302 33.7344 34.3733 34.3898 34.7899 35.0414C35.6788 36.4377 37.4679 44.3837 35.6156 45.1806Z" fill="#FFB27D"></path><path d="M34.4437 31.5149C36.0803 32.591 35.5447 35.1118 33.618 35.4506C32.4612 35.6554 31.4941 35.6964 30.9325 35.9459C29.7943 36.4523 28.8161 36.9884 29.0839 38.7571C29.1769 39.3603 29.467 40.0901 27.9234 39.729C27.6704 39.6694 27.4882 39.688 27.3617 39.7625C26.722 40.1423 27.5403 41.9891 27.7857 42.3913C27.7857 42.3913 28.1428 43.7131 27.3506 44.3573C27.2539 44.4355 25.7028 45.1132 21.9647 39.3864C21.377 38.489 20.8153 36.4634 21.7229 34.5123C22.6305 32.5612 25.156 30.0962 29.9208 30.0962C31.1594 30.0962 33.0229 30.5877 34.44 31.5186L34.4437 31.5149Z" fill="#091B36"></path><rect x="50.7692" y="30.4614" width="19.4615" height="3.38462" rx="1.69231" fill="#E6EEFF"></rect><rect x="50.7692" y="37.2305" width="16.9231" height="3.38462" rx="1.69231" fill="#EDF1F6"></rect><rect x="50.7692" y="44" width="19.4615" height="3.38462" rx="1.69231" fill="#EDF1F6"></rect><rect x="50.7692" y="50.769" width="19.4615" height="3.38462" rx="1.69231" fill="#EDF1F6"></rect><path d="M86.1458 52.2771C84.7787 52.2771 83.5847 52.0991 82.5639 51.7431C81.54 51.3861 80.6886 50.8864 80.0004 50.2492C79.3126 49.6132 78.7762 48.8307 78.4308 47.9595C78.0738 47.0745 77.876 46.0998 77.8461 45.0411H81.3094C81.3695 45.7211 81.533 46.3111 81.8083 46.8112C82.0638 47.2946 82.4185 47.7185 82.8491 48.055C83.2777 48.3875 83.7671 48.6332 84.2897 48.7782C84.853 48.9376 85.4359 49.0173 86.0213 49.0149C86.5556 49.0202 87.0886 48.9595 87.6081 48.8342C88.0871 48.7181 88.4983 48.5544 88.8383 48.339C89.1592 48.1426 89.4289 47.8726 89.6249 47.5513C89.8101 47.2343 89.9053 46.8727 89.9002 46.5055C89.9002 46.1091 89.8103 45.7735 89.6294 45.494C89.4485 45.2144 89.1563 44.9688 88.7565 44.749C88.3568 44.5293 87.8229 44.3316 87.1697 44.1509C86.5165 43.9702 85.7074 43.7847 84.7484 43.5911C83.6558 43.3453 82.7155 43.0612 81.9273 42.7389C81.1391 42.4166 80.4896 42.0336 79.979 41.5898C79.4906 41.1753 79.105 40.6531 78.8523 40.0642C78.6069 39.4878 78.4865 38.8248 78.4865 38.0758C78.4865 37.2707 78.6542 36.5288 78.9897 35.8503C79.3309 35.1669 79.8201 34.5683 80.4218 34.0983C81.0368 33.6078 81.7766 33.2247 82.6324 32.9452C83.4883 32.6656 84.4429 32.5273 85.4922 32.5273C86.5848 32.5273 87.5826 32.6766 88.4857 32.975C89.3888 33.2763 90.1669 33.7022 90.8205 34.262C91.4793 34.8267 92.0064 35.5291 92.3646 36.3198C92.7389 37.1288 92.9368 38.05 92.9622 39.0744H89.5358C89.286 36.8965 87.9719 35.8074 85.5935 35.8072C84.4367 35.8072 83.5506 36.0056 82.9357 36.3928C82.3208 36.78 82.0146 37.3224 82.0146 38.0024C82.0091 38.2583 82.0795 38.5101 82.2169 38.726C82.3502 38.9325 82.5651 39.1219 82.8616 39.2942C83.1541 39.4661 83.5329 39.6261 83.9927 39.7674C84.4525 39.9086 85.0166 40.0473 85.6702 40.1852C86.2424 40.3013 86.8271 40.4304 87.4291 40.5768C88.0254 40.7182 88.614 40.8905 89.1924 41.0931C89.7551 41.29 90.2991 41.5368 90.8179 41.8306C91.3158 42.1124 91.7682 42.468 92.1598 42.8853C92.5535 43.3078 92.8629 43.8017 93.0713 44.3404C93.2948 44.8997 93.4067 45.5539 93.4069 46.303C93.4069 47.1854 93.2262 47.9917 92.8649 48.7221C92.5046 49.4517 91.9912 50.0948 91.3599 50.6077C90.7144 51.1323 89.9473 51.5426 89.0587 51.8386C88.17 52.1346 87.1991 52.2808 86.1458 52.2771Z" fill="#0BE597"></path><path fill-rule="evenodd" clip-rule="evenodd" d="M84.2833 30.4614H86.9647C87.0537 30.4616 87.139 30.4971 87.2019 30.56C87.2648 30.623 87.3002 30.7083 87.3004 30.7974V34.6528H83.9476V30.7974C83.9479 30.7084 83.9834 30.6231 84.0463 30.5601C84.1091 30.4972 84.1943 30.4617 84.2833 30.4614ZM87.3019 50.4597V54.0076C87.3017 54.0966 87.2662 54.182 87.2033 54.2449C87.1404 54.3079 87.0552 54.3434 86.9662 54.3436H84.2833C84.1943 54.3433 84.1091 54.3078 84.0463 54.2448C83.9834 54.1819 83.9479 54.0966 83.9476 54.0076V50.4597H87.3019Z" fill="#0BE597"></path><defs><filter id="filter0_d_32577_110464" x="2" y="12.1538" width="116" height="69.6597" filterUnits="userSpaceOnUse" color-interpolation-filters="sRGB"><feFlood flood-opacity="0" result="BackgroundImageFix"></feFlood><feColorMatrix in="SourceAlpha" type="matrix" values="0 0 0 0 0 0 0 0 0 0 0 0 0 0 0 0 0 0 127 0" result="hardAlpha"></feColorMatrix><feOffset dx="5" dy="5"></feOffset><feGaussianBlur stdDeviation="7"></feGaussianBlur><feColorMatrix type="matrix" values="0 0 0 0 0 0 0 0 0 0.0898333 0 0 0 0 0.320833 0 0 0 0.07 0"></feColorMatrix><feBlend mode="normal" in2="BackgroundImageFix" result="effect1_dropShadow_32577_110464"></feBlend><feBlend mode="normal" in="SourceGraphic" in2="effect1_dropShadow_32577_110464" result="shape"></feBlend></filter></defs></svg>