<svg xmlns="http://www.w3.org/2000/svg" width="114" height="85" viewBox="0 0 114 85" fill="none"><circle cx="54.8462" cy="42.3076" r="33.8462" fill="#E6EEFF"></circle><g filter="url(#filter0_d_32577_110651)"><path d="M20.3889 21.1538H88.6111C92.1372 21.1538 95 24.0663 95 27.6535V56.3137C95 59.9009 92.1372 62.8134 88.6111 62.8134H20.3889C16.8628 62.8134 14 59.9009 14 56.3137V27.6535C14 24.0663 16.8628 21.1538 20.3889 21.1538Z" fill="white"></path></g><path d="M77.2762 50.8316C75.9708 50.8316 74.8307 50.6616 73.8559 50.3217C72.8782 49.9809 72.0652 49.5037 71.408 48.8952C70.7512 48.2879 70.239 47.5407 69.9092 46.7088C69.5683 45.8637 69.3794 44.933 69.3509 43.922H72.658C72.7153 44.5714 72.8715 45.1348 73.1343 45.6123C73.3783 46.0739 73.717 46.4786 74.1282 46.8C74.5375 47.1175 75.0048 47.3521 75.5038 47.4906C76.0417 47.6427 76.5983 47.7188 77.1573 47.7166C77.6676 47.7217 78.1765 47.6637 78.6726 47.5441C79.13 47.4332 79.5226 47.2768 79.8473 47.0712C80.1538 46.8836 80.4112 46.6258 80.5984 46.319C80.7753 46.0163 80.8661 45.671 80.8612 45.3203C80.8612 44.9418 80.7754 44.6214 80.6027 44.3544C80.4299 44.0875 80.1509 43.853 79.7692 43.6431C79.3875 43.4333 78.8777 43.2445 78.2539 43.072C77.6302 42.8994 76.8576 42.7223 75.9418 42.5374C74.8986 42.3027 74.0006 42.0314 73.248 41.7236C72.4953 41.4159 71.8752 41.0501 71.3876 40.6264C70.9212 40.2306 70.553 39.7319 70.3117 39.1696C70.0774 38.6192 69.9623 37.9861 69.9623 37.2709C69.9623 36.5021 70.1225 35.7937 70.4429 35.1457C70.7686 34.4931 71.2359 33.9216 71.8104 33.4728C72.3976 33.0044 73.1041 32.6385 73.9213 32.3716C74.7386 32.1047 75.6502 31.9727 76.6521 31.9727C77.6954 31.9727 78.6482 32.1152 79.5106 32.4001C80.3729 32.6878 81.116 33.0946 81.7401 33.6291C82.3692 34.1683 82.8725 34.839 83.2145 35.594C83.572 36.3666 83.7609 37.2462 83.7852 38.2245H80.5133C80.2748 36.1448 79.02 35.1048 76.7489 35.1045C75.6442 35.1045 74.7981 35.294 74.2109 35.6637C73.6237 36.0335 73.3313 36.5515 73.3313 37.2008C73.3261 37.4451 73.3933 37.6855 73.5245 37.8917C73.6518 38.0889 73.8571 38.2698 74.1402 38.4343C74.4195 38.5984 74.7812 38.7513 75.2202 38.8861C75.6593 39.021 76.1979 39.1534 76.8221 39.2851C77.3684 39.396 77.9268 39.5193 78.5016 39.6591C79.071 39.7941 79.6331 39.9586 80.1854 40.1521C80.7227 40.34 81.2422 40.5757 81.7376 40.8563C82.213 41.1254 82.645 41.465 83.0189 41.8634C83.3949 42.2669 83.6903 42.7385 83.8893 43.253C84.1028 43.787 84.2096 44.4117 84.2098 45.127C84.2098 45.9696 84.0373 46.7396 83.6923 47.437C83.3482 48.1337 82.858 48.7478 82.2551 49.2375C81.6388 49.7385 80.9063 50.1303 80.0577 50.4129C79.2091 50.6956 78.282 50.8351 77.2762 50.8316Z" fill="#0BE597"></path><path fill-rule="evenodd" clip-rule="evenodd" d="M75.4977 30H78.0582C78.1432 30.0002 78.2246 30.034 78.2846 30.0942C78.3447 30.1543 78.3785 30.2358 78.3787 30.3208V34.0024H75.1772V30.3208C75.1775 30.2358 75.2113 30.1544 75.2714 30.0943C75.3314 30.0342 75.4128 30.0003 75.4977 30ZM78.3801 49.0963V52.4842C78.3799 52.5692 78.3461 52.6507 78.2861 52.7108C78.226 52.7709 78.1446 52.8048 78.0596 52.805H75.4977C75.4128 52.8047 75.3314 52.7708 75.2714 52.7107C75.2113 52.6506 75.1775 52.5692 75.1772 52.4842V49.0963H78.3801Z" fill="#0BE597"></path><rect x="22" y="28" width="42" height="28" rx="3" fill="#F5F8FF"></rect><path d="M37.5431 43.304C37.5431 40.744 35.3671 39.688 33.6871 39.688C32.9671 39.688 32.5511 39.784 32.2151 39.928L32.5351 37.944H37.1271V35.96H30.6631L29.8151 41.352L30.9351 42.024C31.4311 41.672 32.2311 41.448 32.9511 41.448C33.9431 41.448 35.0311 41.992 35.0311 43.304C35.0311 44.632 33.8951 45.176 32.9511 45.176C32.0071 45.176 30.8551 44.696 30.2471 43.848L29.0631 45.368C29.5751 46.168 30.9191 47.176 33.1271 47.176C35.3191 47.176 37.5431 45.88 37.5431 43.304ZM48.2627 41.496C48.2627 38.584 46.9027 35.8 43.6867 35.8C40.4707 35.8 39.1107 38.584 39.1107 41.496C39.1107 44.408 40.4547 47.192 43.6867 47.192C46.9027 47.192 48.2627 44.408 48.2627 41.496ZM45.7187 41.448C45.7187 43.432 45.1107 44.968 43.6867 44.968C42.2627 44.968 41.6547 43.432 41.6547 41.448C41.6547 39.464 42.2627 37.96 43.6867 37.96C45.1107 37.96 45.7187 39.464 45.7187 41.448ZM57.2443 45.34C57.2443 44.26 56.5043 43.55 55.4543 43.55C54.4043 43.55 53.6643 44.26 53.6643 45.34C53.6643 46.42 54.4043 47.13 55.4543 47.13C56.5043 47.13 57.2443 46.42 57.2443 45.34ZM55.8243 40.33L55.1443 39.92L50.8443 46.83L51.5343 47.24L55.8243 40.33ZM53.0043 41.82C53.0043 40.74 52.2643 40.03 51.2143 40.03C50.1743 40.03 49.4243 40.74 49.4243 41.82C49.4243 42.9 50.1743 43.62 51.2143 43.62C52.2643 43.62 53.0043 42.9 53.0043 41.82ZM56.2043 45.32C56.2043 45.83 55.9443 46.19 55.4543 46.19C54.9743 46.19 54.7143 45.83 54.7143 45.32C54.7143 44.82 54.9743 44.46 55.4543 44.46C55.9443 44.46 56.2043 44.82 56.2043 45.32ZM51.9743 41.81C51.9743 42.31 51.7043 42.68 51.2143 42.68C50.7343 42.68 50.4843 42.31 50.4843 41.81C50.4843 41.3 50.7343 40.94 51.2143 40.94C51.7043 40.94 51.9743 41.3 51.9743 41.81Z" fill="#8CB4FF"></path><defs><filter id="filter0_d_32577_110651" x="5" y="12.1538" width="109" height="69.6597" filterUnits="userSpaceOnUse" color-interpolation-filters="sRGB"><feFlood flood-opacity="0" result="BackgroundImageFix"></feFlood><feColorMatrix in="SourceAlpha" type="matrix" values="0 0 0 0 0 0 0 0 0 0 0 0 0 0 0 0 0 0 127 0" result="hardAlpha"></feColorMatrix><feOffset dx="5" dy="5"></feOffset><feGaussianBlur stdDeviation="7"></feGaussianBlur><feColorMatrix type="matrix" values="0 0 0 0 0 0 0 0 0 0.0898333 0 0 0 0 0.320833 0 0 0 0.07 0"></feColorMatrix><feBlend mode="normal" in2="BackgroundImageFix" result="effect1_dropShadow_32577_110651"></feBlend><feBlend mode="normal" in="SourceGraphic" in2="effect1_dropShadow_32577_110651" result="shape"></feBlend></filter></defs></svg>