<svg xmlns="http://www.w3.org/2000/svg" width="458" height="450" viewBox="0 0 458 450" fill="none"><circle cx="227.495" cy="225.495" r="189.495" fill="#F5F8FF"></circle><path d="M423 107C423 102.582 419.418 99 415 99H41C36.5817 99 33 102.582 33 107V116H423V107Z" fill="#091B36"></path><path d="M54.7243 107.654C54.7256 108.18 54.5708 108.695 54.2794 109.133C53.9881 109.572 53.5734 109.914 53.0877 110.116C52.6021 110.318 52.0674 110.372 51.5513 110.27C51.0352 110.168 50.5609 109.915 50.1885 109.543C49.8161 109.172 49.5622 108.698 49.4591 108.181C49.356 107.665 49.4083 107.13 49.6093 106.644C49.8104 106.157 50.1511 105.741 50.5884 105.449C51.0257 105.156 51.5399 105 52.066 105C52.7683 105.005 53.4406 105.286 53.9379 105.782C54.4352 106.279 54.7176 106.951 54.7243 107.654Z" fill="#F66058"></path><path d="M67.1319 107.654C67.1331 108.18 66.9781 108.696 66.6865 109.134C66.3949 109.572 65.9798 109.914 65.4938 110.116C65.0078 110.319 64.4727 110.372 63.9565 110.269C63.4402 110.167 62.9659 109.913 62.5938 109.541C62.2216 109.169 61.9683 108.694 61.8659 108.177C61.7636 107.661 61.8167 107.126 62.0187 106.639C62.2207 106.153 62.5625 105.737 63.0006 105.446C63.4388 105.154 63.9536 104.999 64.4799 105C64.8287 104.998 65.1743 105.066 65.4968 105.199C65.8193 105.331 66.1123 105.527 66.3589 105.773C66.6055 106.02 66.8008 106.313 66.9335 106.636C67.0661 106.959 67.1336 107.305 67.1319 107.654Z" fill="#F9BD2E"></path><path d="M79.5364 107.654C79.5376 108.18 79.3828 108.695 79.0915 109.133C78.8001 109.572 78.3854 109.914 77.8997 110.116C77.4141 110.318 76.8794 110.372 76.3633 110.27C75.8472 110.168 75.3729 109.915 75.0005 109.543C74.6281 109.172 74.3743 108.698 74.2712 108.181C74.1681 107.665 74.2203 107.13 74.4213 106.644C74.6224 106.157 74.9631 105.741 75.4004 105.449C75.8377 105.156 76.3519 105 76.878 105C77.5804 105.005 78.2527 105.286 78.75 105.782C79.2472 106.279 79.5297 106.951 79.5364 107.654Z" fill="#3CC840"></path><g filter="url(#filter0_dd_32419_93654)"><g filter="url(#filter1_d_32419_93654)"><path d="M33 117H423V324.056C423 331.369 417.072 337.297 409.759 337.297H46.2407C38.9281 337.297 33 331.369 33 324.056V117Z" fill="white"></path></g></g><g filter="url(#filter2_dd_32419_93654)"><rect x="12" y="260.835" width="200.51" height="90.3196" rx="7.53731" fill="white"></rect></g><rect x="92.8447" y="301.508" width="40.6655" height="10.6155" rx="3.29757" stroke="#E7EEFF" stroke-width="0.942164"></rect><rect x="96.2292" y="304.558" width="5.27864" height="4.79876" rx="2.39938" fill="#5D5FEF"></rect><rect x="102.917" y="304.356" width="11.6026" height="1.58217" rx="0.791083" fill="#E7EEFF"></rect><rect x="102.917" y="307.521" width="25.8421" height="1.58217" rx="0.791083" fill="#E7EEFF"></rect><rect x="92.8447" y="315.06" width="40.6655" height="10.6155" rx="3.29757" stroke="#E7EEFF" stroke-width="0.942164"></rect><rect x="96.2292" y="317.91" width="5.27864" height="4.79876" rx="2.39938" fill="#FECE4D"></rect><rect x="102.917" y="317.708" width="11.6026" height="1.58217" rx="0.791083" fill="#E7EEFF"></rect><rect x="102.917" y="320.874" width="25.8421" height="1.58217" rx="0.791083" fill="#E7EEFF"></rect><rect x="26.7674" y="275.292" width="57.2733" height="3.47111" rx="1.73555" fill="#E7EEFF"></rect><rect x="145.713" y="301.936" width="11.6026" height="2.50425" rx="1.25212" fill="#E7EEFF"></rect><rect x="145.713" y="307.129" width="33.5172" height="2.31153" rx="1.15577" fill="#E7EEFF"></rect><rect x="145.713" y="311.758" width="50.579" height="2.31153" rx="1.15577" fill="#E7EEFF"></rect><rect x="145.713" y="316.952" width="50.579" height="2.31153" rx="1.15577" fill="#E7EEFF"></rect><rect x="145.713" y="321.813" width="50.579" height="2.31153" rx="1.15577" fill="#E7EEFF"></rect><path d="M53.9716 314.122V291.094C49.4163 291.094 44.9632 292.445 41.1756 294.975C37.388 297.506 34.4361 301.104 32.693 305.312C30.9499 309.521 30.494 314.152 31.3829 318.62C32.2719 323.088 34.4658 327.191 37.6872 330.412C40.9085 333.633 45.0127 335.826 49.4806 336.715C53.9485 337.603 58.5796 337.146 62.7879 335.403C66.9963 333.659 70.5931 330.706 73.1234 326.918C75.6537 323.13 77.0039 318.677 77.0031 314.122C77.0031 313.969 77.0031 313.82 76.9813 313.667L53.9716 314.122Z" fill="#5D5FEF"></path><path d="M80.6557 311.408C80.5362 305.264 78.0098 299.412 73.6191 295.108C69.2283 290.805 63.3235 288.393 57.1726 288.392V311.875L80.6557 311.408Z" fill="#FECE4D"></path><g filter="url(#filter3_dd_32419_93654)"><g filter="url(#filter4_d_32419_93654)"><rect x="233" y="137" width="210" height="135" rx="7.53731" fill="white"></rect></g><g clip-path="url(#clip0_32419_93654)"><path d="M334.219 184.863C330.006 178.686 324.332 173.643 317.701 170.181C317.912 172.828 317.494 175.487 316.483 177.942C315.471 180.397 313.894 182.579 311.88 184.311C317.063 187.328 321.235 191.812 323.869 197.196C326.504 202.58 327.482 208.623 326.68 214.561C327.524 214.177 328.414 213.904 329.329 213.747L331.119 213.66C331.817 212.657 332.501 211.625 333.142 210.578C333.552 209.667 334.039 208.791 334.597 207.962C334.772 207.598 334.946 207.249 335.106 206.901C336.474 203.993 339.137 206.174 341.626 204.996C340.447 194.69 337.609 189.806 334.219 184.863Z" fill="#5D5FEF"></path><path d="M290.967 250.132H291.36C291.171 249.202 290.967 248.286 290.705 247.356C290.603 246.963 290.472 246.571 290.37 246.178V246.076L289.323 242.762C289.032 241.822 288.923 240.835 289.002 239.855C283.256 238.35 278.083 235.184 274.129 230.755C271.508 233.502 268.544 235.901 265.31 237.892C264.206 238.615 263.012 239.191 261.759 239.608C267.275 246.265 276.953 251.586 284.709 254.144C286.936 251.949 287.678 250.132 290.967 250.132Z" fill="#FECE4D"></path><path d="M275.671 232.382C274.177 230.95 272.836 229.366 271.669 227.658C267.595 221.715 265.773 214.518 266.532 207.355C267.29 200.193 270.578 193.535 275.806 188.575C281.035 183.615 287.861 180.678 295.061 180.291C302.261 179.903 309.363 182.091 315.094 186.461L321.803 172.637C305.795 162.258 288.652 162.461 270.97 173.044C261.018 179.858 254.183 190.341 251.967 202.188C249.751 214.035 252.336 226.276 259.153 236.22C260.316 237.919 261.595 239.537 262.98 241.061L275.671 232.382Z" fill="#9FC0FF"></path><path d="M285.176 253.824L288.871 240.125C293.772 241.389 298.913 241.428 303.837 240.234C308.914 239.002 313.594 236.501 317.437 232.965C321.28 229.429 324.16 224.974 325.804 220.02C327.388 215.249 327.777 210.165 326.94 205.214L341.319 205.445C342.94 221.18 337.548 234.232 325.446 244.451C321.056 248.156 316.039 251.048 310.63 252.988C302.516 255.888 295.511 256.189 285.176 253.824Z" fill="#3D7FFC" stroke="#3D7FFC" stroke-width="0.942164"></path><circle cx="295.629" cy="211.298" r="24.9674" fill="#E7EEFF"></circle></g><rect x="362.321" y="168.163" width="63.8455" height="17.0544" rx="3.29757" stroke="#E7EEFF" stroke-width="0.942164"></rect><rect x="362.321" y="190.662" width="63.8455" height="17.0544" rx="3.29757" stroke="#E7EEFF" stroke-width="0.942164"></rect><rect x="362.321" y="212.26" width="63.8455" height="17.0544" rx="3.29757" stroke="#E7EEFF" stroke-width="0.942164"></rect><rect x="362.321" y="234.76" width="63.8455" height="17.0544" rx="3.29757" stroke="#E7EEFF" stroke-width="0.942164"></rect><rect x="367.856" y="172.914" width="8.21944" height="7.47221" rx="2.82649" fill="#5D5FEF"></rect><rect x="378.292" y="172.617" width="18.0665" height="2.46361" rx="1.2318" fill="#E7EEFF"></rect><rect x="378.292" y="177.544" width="40.239" height="2.46361" rx="1.2318" fill="#E7EEFF"></rect><rect x="367.856" y="195.096" width="8.21944" height="7.47221" rx="2.82649" fill="#3D7FFC"></rect><rect x="378.292" y="194.8" width="18.0665" height="2.46361" rx="1.2318" fill="#E7EEFF"></rect><rect x="378.292" y="199.727" width="40.239" height="2.46361" rx="1.2318" fill="#E7EEFF"></rect><rect x="367.856" y="217.257" width="8.21944" height="7.47221" rx="2.82649" fill="#76A5FF"></rect><rect x="378.292" y="216.961" width="18.0665" height="2.46361" rx="1.2318" fill="#E7EEFF"></rect><rect x="378.292" y="221.888" width="40.239" height="2.46361" rx="1.2318" fill="#E7EEFF"></rect><rect x="367.856" y="239.439" width="8.21944" height="7.47221" rx="2.82649" fill="#FECE4D"></rect><rect x="378.292" y="239.143" width="18.0665" height="2.46361" rx="1.2318" fill="#E7EEFF"></rect><rect x="378.292" y="244.07" width="40.239" height="2.46361" rx="1.2318" fill="#E7EEFF"></rect></g><rect x="253.061" y="150.542" width="92.126" height="5.41918" rx="2.70959" fill="#E7EEFF"></rect><g filter="url(#filter5_dd_32419_93654)"><path d="M12 141.769C12 139.687 13.6873 138 15.7687 138H209.644C211.726 138 213.413 139.687 213.413 141.769V237.875C213.413 239.257 212.802 240.582 211.715 241.559C210.628 242.536 209.154 243.085 207.617 243.085H17.7956C16.2585 243.085 14.7844 242.536 13.6975 241.559C12.6106 240.582 12 239.257 12 237.875V141.769Z" fill="white"></path><path d="M45.9974 165.581V165.197C45.9974 165.094 45.9139 165.01 45.8108 165.01C45.7077 165.01 45.6241 165.094 45.6241 165.197V165.581C45.6241 165.684 45.7077 165.768 45.8108 165.768C45.9139 165.768 45.9974 165.684 45.9974 165.581Z" fill="#3D7FFC"></path><path d="M46.0018 225.414C46.0018 225.515 45.9199 225.597 45.8189 225.597C45.7179 225.597 45.636 225.515 45.636 225.414V224.288C45.636 224.187 45.7179 224.105 45.8189 224.105C45.9199 224.105 46.0018 224.187 46.0018 224.288V225.414ZM46.0018 222.423C46.0018 222.524 45.9199 222.606 45.8189 222.606C45.7179 222.606 45.636 222.524 45.636 222.423V221.291C45.636 221.19 45.7179 221.108 45.8189 221.108C45.9199 221.108 46.0018 221.19 46.0018 221.291V222.423ZM46.0018 219.43C46.0018 219.531 45.9199 219.613 45.8189 219.613C45.7179 219.613 45.636 219.531 45.636 219.43V218.3C45.636 218.199 45.7179 218.117 45.8189 218.117C45.9199 218.117 46.0018 218.199 46.0018 218.3V219.43ZM46.0018 216.439C46.0018 216.54 45.9199 216.622 45.8189 216.622C45.7179 216.622 45.636 216.54 45.636 216.439V215.309C45.636 215.208 45.7179 215.126 45.8189 215.126C45.9199 215.126 46.0018 215.208 46.0018 215.309V216.439ZM46.0018 213.448C46.0018 213.549 45.9199 213.631 45.8189 213.631C45.7179 213.631 45.636 213.549 45.636 213.448V212.316C45.636 212.215 45.7179 212.133 45.8189 212.133C45.9199 212.133 46.0018 212.215 46.0018 212.316V213.448ZM46.0018 210.455C46.0018 210.556 45.9199 210.638 45.8189 210.638C45.7179 210.638 45.636 210.556 45.636 210.455V209.325C45.636 209.224 45.7179 209.143 45.8189 209.143C45.9199 209.143 46.0018 209.224 46.0018 209.325V210.455ZM46.0018 207.464C46.0018 207.565 45.9199 207.647 45.8189 207.647C45.7179 207.647 45.636 207.565 45.636 207.464V206.334C45.636 206.233 45.7179 206.152 45.8189 206.152C45.9199 206.152 46.0018 206.233 46.0018 206.334V207.464ZM46.0018 204.473C46.0018 204.574 45.9199 204.656 45.8189 204.656C45.7179 204.656 45.636 204.574 45.636 204.473V203.344C45.636 203.243 45.7179 203.161 45.8189 203.161C45.9199 203.161 46.0018 203.243 46.0018 203.344V204.473ZM46.0018 201.48C46.0018 201.581 45.9199 201.663 45.8189 201.663C45.7179 201.663 45.636 201.581 45.636 201.48V200.351C45.636 200.25 45.7179 200.168 45.8189 200.168C45.9199 200.168 46.0018 200.25 46.0018 200.351V201.48ZM46.0018 198.489C46.0018 198.59 45.9199 198.672 45.8189 198.672C45.7179 198.672 45.636 198.59 45.636 198.489V197.36C45.636 197.259 45.7179 197.177 45.8189 197.177C45.9199 197.177 46.0018 197.259 46.0018 197.36V198.489ZM46.0018 195.498C46.0018 195.599 45.9199 195.681 45.8189 195.681C45.7179 195.681 45.636 195.599 45.636 195.498V194.369C45.636 194.268 45.7179 194.186 45.8189 194.186C45.9199 194.186 46.0018 194.268 46.0018 194.369V195.498ZM46.0018 192.506C46.0018 192.607 45.9199 192.689 45.8189 192.689C45.7179 192.689 45.636 192.607 45.636 192.506V191.376C45.636 191.275 45.7179 191.193 45.8189 191.193C45.9199 191.193 46.0018 191.275 46.0018 191.376V192.506ZM46.0018 189.515C46.0018 189.616 45.9199 189.698 45.8189 189.698C45.7179 189.698 45.636 189.616 45.636 189.515V188.381C45.636 188.28 45.7179 188.198 45.8189 188.198C45.9199 188.198 46.0018 188.28 46.0018 188.381V189.515ZM46.0018 186.524C46.0018 186.625 45.9199 186.707 45.8189 186.707C45.7179 186.707 45.636 186.625 45.636 186.524V185.392C45.636 185.291 45.7179 185.209 45.8189 185.209C45.9199 185.209 46.0018 185.291 46.0018 185.392V186.524ZM46.0018 183.533C46.0018 183.634 45.9199 183.716 45.8189 183.716C45.7179 183.716 45.636 183.634 45.636 183.533V182.401C45.636 182.3 45.7179 182.218 45.8189 182.218C45.9199 182.218 46.0018 182.3 46.0018 182.401V183.533ZM46.0018 180.54C46.0018 180.641 45.9199 180.723 45.8189 180.723C45.7179 180.723 45.636 180.641 45.636 180.54V179.41C45.636 179.309 45.7179 179.227 45.8189 179.227C45.9199 179.227 46.0018 179.309 46.0018 179.41V180.54ZM46.0018 177.549C46.0018 177.65 45.9199 177.732 45.8189 177.732C45.7179 177.732 45.636 177.65 45.636 177.549V176.419C45.636 176.318 45.7179 176.236 45.8189 176.236C45.9199 176.236 46.0018 176.318 46.0018 176.419V177.549ZM46.0018 174.558C46.0018 174.659 45.9199 174.741 45.8189 174.741C45.7179 174.741 45.636 174.659 45.636 174.558V173.427C45.636 173.326 45.7179 173.244 45.8189 173.244C45.9199 173.244 46.0018 173.326 46.0018 173.427V174.558ZM46.0018 171.565C46.0018 171.666 45.9199 171.748 45.8189 171.748C45.7179 171.748 45.636 171.666 45.636 171.565V170.428C45.636 170.327 45.7179 170.245 45.8189 170.245C45.9199 170.245 46.0018 170.327 46.0018 170.428V171.565ZM46.0018 168.574C46.0018 168.675 45.9199 168.757 45.8189 168.757C45.7179 168.757 45.636 168.675 45.636 168.574V167.445C45.636 167.344 45.7179 167.262 45.8189 167.262C45.9199 167.262 46.0018 167.344 46.0018 167.445V168.574Z" fill="#3D7FFC"></path><path d="M45.9974 227.656V227.272C45.9974 227.169 45.9139 227.085 45.8108 227.085C45.7077 227.085 45.6241 227.169 45.6241 227.272V227.656C45.6241 227.759 45.7077 227.843 45.8108 227.843C45.9139 227.843 45.9974 227.759 45.9974 227.656Z" fill="#3D7FFC"></path><path d="M60.4231 165.581V165.197C60.4231 165.094 60.3395 165.01 60.2364 165.01C60.1333 165.01 60.0497 165.094 60.0497 165.197V165.581C60.0497 165.684 60.1333 165.768 60.2364 165.768C60.3395 165.768 60.4231 165.684 60.4231 165.581Z" fill="#3D7FFC"></path><path d="M60.4276 225.414C60.4276 225.515 60.3457 225.597 60.2446 225.597C60.1436 225.597 60.0617 225.515 60.0617 225.414V224.288C60.0617 224.187 60.1436 224.105 60.2446 224.105C60.3457 224.105 60.4276 224.187 60.4276 224.288V225.414ZM60.4276 222.423C60.4276 222.524 60.3457 222.606 60.2446 222.606C60.1436 222.606 60.0617 222.524 60.0617 222.423V221.291C60.0617 221.19 60.1436 221.108 60.2446 221.108C60.3457 221.108 60.4276 221.19 60.4276 221.291V222.423ZM60.4276 219.43C60.4276 219.531 60.3457 219.613 60.2446 219.613C60.1436 219.613 60.0617 219.531 60.0617 219.43V218.3C60.0617 218.199 60.1436 218.117 60.2446 218.117C60.3457 218.117 60.4276 218.199 60.4276 218.3V219.43ZM60.4276 216.439C60.4276 216.54 60.3457 216.622 60.2446 216.622C60.1436 216.622 60.0617 216.54 60.0617 216.439V215.309C60.0617 215.208 60.1436 215.126 60.2446 215.126C60.3457 215.126 60.4276 215.208 60.4276 215.309V216.439ZM60.4276 213.448C60.4276 213.549 60.3457 213.631 60.2446 213.631C60.1436 213.631 60.0617 213.549 60.0617 213.448V212.316C60.0617 212.215 60.1436 212.133 60.2446 212.133C60.3457 212.133 60.4276 212.215 60.4276 212.316V213.448ZM60.4276 210.455C60.4276 210.556 60.3457 210.638 60.2446 210.638C60.1436 210.638 60.0617 210.556 60.0617 210.455V209.325C60.0617 209.224 60.1436 209.143 60.2446 209.143C60.3457 209.143 60.4276 209.224 60.4276 209.325V210.455ZM60.4276 207.464C60.4276 207.565 60.3457 207.647 60.2446 207.647C60.1436 207.647 60.0617 207.565 60.0617 207.464V206.334C60.0617 206.233 60.1436 206.152 60.2446 206.152C60.3457 206.152 60.4276 206.233 60.4276 206.334V207.464ZM60.4276 204.473C60.4276 204.574 60.3457 204.656 60.2446 204.656C60.1436 204.656 60.0617 204.574 60.0617 204.473V203.344C60.0617 203.243 60.1436 203.161 60.2446 203.161C60.3457 203.161 60.4276 203.243 60.4276 203.344V204.473ZM60.4276 201.48C60.4276 201.581 60.3457 201.663 60.2446 201.663C60.1436 201.663 60.0617 201.581 60.0617 201.48V200.351C60.0617 200.25 60.1436 200.168 60.2446 200.168C60.3457 200.168 60.4276 200.25 60.4276 200.351V201.48ZM60.4276 198.489C60.4276 198.59 60.3457 198.672 60.2446 198.672C60.1436 198.672 60.0617 198.59 60.0617 198.489V197.36C60.0617 197.259 60.1436 197.177 60.2446 197.177C60.3457 197.177 60.4276 197.259 60.4276 197.36V198.489ZM60.4276 195.498C60.4276 195.599 60.3457 195.681 60.2446 195.681C60.1436 195.681 60.0617 195.599 60.0617 195.498V194.369C60.0617 194.268 60.1436 194.186 60.2446 194.186C60.3457 194.186 60.4276 194.268 60.4276 194.369V195.498ZM60.4276 192.506C60.4276 192.607 60.3457 192.689 60.2446 192.689C60.1436 192.689 60.0617 192.607 60.0617 192.506V191.376C60.0617 191.275 60.1436 191.193 60.2446 191.193C60.3457 191.193 60.4276 191.275 60.4276 191.376V192.506ZM60.4276 189.515C60.4276 189.616 60.3457 189.698 60.2446 189.698C60.1436 189.698 60.0617 189.616 60.0617 189.515V188.381C60.0617 188.28 60.1436 188.198 60.2446 188.198C60.3457 188.198 60.4276 188.28 60.4276 188.381V189.515ZM60.4276 186.524C60.4276 186.625 60.3457 186.707 60.2446 186.707C60.1436 186.707 60.0617 186.625 60.0617 186.524V185.392C60.0617 185.291 60.1436 185.209 60.2446 185.209C60.3457 185.209 60.4276 185.291 60.4276 185.392V186.524ZM60.4276 183.533C60.4276 183.634 60.3457 183.716 60.2446 183.716C60.1436 183.716 60.0617 183.634 60.0617 183.533V182.401C60.0617 182.3 60.1436 182.218 60.2446 182.218C60.3457 182.218 60.4276 182.3 60.4276 182.401V183.533ZM60.4276 180.54C60.4276 180.641 60.3457 180.723 60.2446 180.723C60.1436 180.723 60.0617 180.641 60.0617 180.54V179.41C60.0617 179.309 60.1436 179.227 60.2446 179.227C60.3457 179.227 60.4276 179.309 60.4276 179.41V180.54ZM60.4276 177.549C60.4276 177.65 60.3457 177.732 60.2446 177.732C60.1436 177.732 60.0617 177.65 60.0617 177.549V176.419C60.0617 176.318 60.1436 176.236 60.2446 176.236C60.3457 176.236 60.4276 176.318 60.4276 176.419V177.549ZM60.4276 174.558C60.4276 174.659 60.3457 174.741 60.2446 174.741C60.1436 174.741 60.0617 174.659 60.0617 174.558V173.427C60.0617 173.326 60.1436 173.244 60.2446 173.244C60.3457 173.244 60.4276 173.326 60.4276 173.427V174.558ZM60.4276 171.565C60.4276 171.666 60.3457 171.748 60.2446 171.748C60.1436 171.748 60.0617 171.666 60.0617 171.565V170.428C60.0617 170.327 60.1436 170.245 60.2446 170.245C60.3457 170.245 60.4276 170.327 60.4276 170.428V171.565ZM60.4276 168.574C60.4276 168.675 60.3457 168.757 60.2446 168.757C60.1436 168.757 60.0617 168.675 60.0617 168.574V167.445C60.0617 167.344 60.1436 167.262 60.2446 167.262C60.3457 167.262 60.4276 167.344 60.4276 167.445V168.574Z" fill="#3D7FFC"></path><path d="M60.4231 227.656V227.272C60.4231 227.169 60.3395 227.085 60.2364 227.085C60.1333 227.085 60.0497 227.169 60.0497 227.272V227.656C60.0497 227.759 60.1333 227.843 60.2364 227.843C60.3395 227.843 60.4231 227.759 60.4231 227.656Z" fill="#3D7FFC"></path><path d="M74.8527 165.581V165.197C74.8527 165.094 74.7692 165.01 74.6661 165.01C74.563 165.01 74.4794 165.094 74.4794 165.197V165.581C74.4794 165.684 74.563 165.768 74.6661 165.768C74.7692 165.768 74.8527 165.684 74.8527 165.581Z" fill="#3D7FFC"></path><path d="M74.8532 225.414C74.8532 225.515 74.7713 225.597 74.6703 225.597C74.5692 225.597 74.4873 225.515 74.4873 225.414V224.288C74.4873 224.187 74.5692 224.105 74.6703 224.105C74.7713 224.105 74.8532 224.187 74.8532 224.288V225.414ZM74.8532 222.423C74.8532 222.524 74.7713 222.606 74.6703 222.606C74.5692 222.606 74.4873 222.524 74.4873 222.423V221.291C74.4873 221.19 74.5692 221.108 74.6703 221.108C74.7713 221.108 74.8532 221.19 74.8532 221.291V222.423ZM74.8532 219.43C74.8532 219.531 74.7713 219.613 74.6703 219.613C74.5692 219.613 74.4873 219.531 74.4873 219.43V218.3C74.4873 218.199 74.5692 218.117 74.6703 218.117C74.7713 218.117 74.8532 218.199 74.8532 218.3V219.43ZM74.8532 216.439C74.8532 216.54 74.7713 216.622 74.6703 216.622C74.5692 216.622 74.4873 216.54 74.4873 216.439V215.309C74.4873 215.208 74.5692 215.126 74.6703 215.126C74.7713 215.126 74.8532 215.208 74.8532 215.309V216.439ZM74.8532 213.448C74.8532 213.549 74.7713 213.631 74.6703 213.631C74.5692 213.631 74.4873 213.549 74.4873 213.448V212.316C74.4873 212.215 74.5692 212.133 74.6703 212.133C74.7713 212.133 74.8532 212.215 74.8532 212.316V213.448ZM74.8532 210.455C74.8532 210.556 74.7713 210.638 74.6703 210.638C74.5692 210.638 74.4873 210.556 74.4873 210.455V209.325C74.4873 209.224 74.5692 209.143 74.6703 209.143C74.7713 209.143 74.8532 209.224 74.8532 209.325V210.455ZM74.8532 207.464C74.8532 207.565 74.7713 207.647 74.6703 207.647C74.5692 207.647 74.4873 207.565 74.4873 207.464V206.334C74.4873 206.233 74.5692 206.152 74.6703 206.152C74.7713 206.152 74.8532 206.233 74.8532 206.334V207.464ZM74.8532 204.473C74.8532 204.574 74.7713 204.656 74.6703 204.656C74.5692 204.656 74.4873 204.574 74.4873 204.473V203.344C74.4873 203.243 74.5692 203.161 74.6703 203.161C74.7713 203.161 74.8532 203.243 74.8532 203.344V204.473ZM74.8532 201.48C74.8532 201.581 74.7713 201.663 74.6703 201.663C74.5692 201.663 74.4873 201.581 74.4873 201.48V200.351C74.4873 200.25 74.5692 200.168 74.6703 200.168C74.7713 200.168 74.8532 200.25 74.8532 200.351V201.48ZM74.8532 198.489C74.8532 198.59 74.7713 198.672 74.6703 198.672C74.5692 198.672 74.4873 198.59 74.4873 198.489V197.36C74.4873 197.259 74.5692 197.177 74.6703 197.177C74.7713 197.177 74.8532 197.259 74.8532 197.36V198.489ZM74.8532 195.498C74.8532 195.599 74.7713 195.681 74.6703 195.681C74.5692 195.681 74.4873 195.599 74.4873 195.498V194.369C74.4873 194.268 74.5692 194.186 74.6703 194.186C74.7713 194.186 74.8532 194.268 74.8532 194.369V195.498ZM74.8532 192.506C74.8532 192.607 74.7713 192.689 74.6703 192.689C74.5692 192.689 74.4873 192.607 74.4873 192.506V191.376C74.4873 191.275 74.5692 191.193 74.6703 191.193C74.7713 191.193 74.8532 191.275 74.8532 191.376V192.506ZM74.8532 189.515C74.8532 189.616 74.7713 189.698 74.6703 189.698C74.5692 189.698 74.4873 189.616 74.4873 189.515V188.381C74.4873 188.28 74.5692 188.198 74.6703 188.198C74.7713 188.198 74.8532 188.28 74.8532 188.381V189.515ZM74.8532 186.524C74.8532 186.625 74.7713 186.707 74.6703 186.707C74.5692 186.707 74.4873 186.625 74.4873 186.524V185.392C74.4873 185.291 74.5692 185.209 74.6703 185.209C74.7713 185.209 74.8532 185.291 74.8532 185.392V186.524ZM74.8532 183.533C74.8532 183.634 74.7713 183.716 74.6703 183.716C74.5692 183.716 74.4873 183.634 74.4873 183.533V182.401C74.4873 182.3 74.5692 182.218 74.6703 182.218C74.7713 182.218 74.8532 182.3 74.8532 182.401V183.533ZM74.8532 180.54C74.8532 180.641 74.7713 180.723 74.6703 180.723C74.5692 180.723 74.4873 180.641 74.4873 180.54V179.41C74.4873 179.309 74.5692 179.227 74.6703 179.227C74.7713 179.227 74.8532 179.309 74.8532 179.41V180.54ZM74.8532 177.549C74.8532 177.65 74.7713 177.732 74.6703 177.732C74.5692 177.732 74.4873 177.65 74.4873 177.549V176.419C74.4873 176.318 74.5692 176.236 74.6703 176.236C74.7713 176.236 74.8532 176.318 74.8532 176.419V177.549ZM74.8532 174.558C74.8532 174.659 74.7713 174.741 74.6703 174.741C74.5692 174.741 74.4873 174.659 74.4873 174.558V173.427C74.4873 173.326 74.5692 173.244 74.6703 173.244C74.7713 173.244 74.8532 173.326 74.8532 173.427V174.558ZM74.8532 171.565C74.8532 171.666 74.7713 171.748 74.6703 171.748C74.5692 171.748 74.4873 171.666 74.4873 171.565V170.428C74.4873 170.327 74.5692 170.245 74.6703 170.245C74.7713 170.245 74.8532 170.327 74.8532 170.428V171.565ZM74.8532 168.574C74.8532 168.675 74.7713 168.757 74.6703 168.757C74.5692 168.757 74.4873 168.675 74.4873 168.574V167.445C74.4873 167.344 74.5692 167.262 74.6703 167.262C74.7713 167.262 74.8532 167.344 74.8532 167.445V168.574Z" fill="#3D7FFC"></path><path d="M74.8527 227.656V227.272C74.8527 227.169 74.7692 227.085 74.6661 227.085C74.563 227.085 74.4794 227.169 74.4794 227.272V227.656C74.4794 227.759 74.563 227.843 74.6661 227.843C74.7692 227.843 74.8527 227.759 74.8527 227.656Z" fill="#3D7FFC"></path><path d="M89.2864 165.581V165.197C89.2864 165.094 89.2029 165.01 89.0998 165.01C88.9967 165.01 88.9131 165.094 88.9131 165.197V165.581C88.9131 165.684 88.9967 165.768 89.0998 165.768C89.2029 165.768 89.2864 165.684 89.2864 165.581Z" fill="#3D7FFC"></path><path d="M89.2948 225.414C89.2948 225.515 89.2129 225.597 89.1119 225.597C89.0109 225.597 88.929 225.515 88.929 225.414V224.288C88.929 224.187 89.0109 224.105 89.1119 224.105C89.2129 224.105 89.2948 224.187 89.2948 224.288V225.414ZM89.2948 222.423C89.2948 222.524 89.2129 222.606 89.1119 222.606C89.0109 222.606 88.929 222.524 88.929 222.423V221.291C88.929 221.19 89.0109 221.108 89.1119 221.108C89.2129 221.108 89.2948 221.19 89.2948 221.291V222.423ZM89.2948 219.43C89.2948 219.531 89.2129 219.613 89.1119 219.613C89.0109 219.613 88.929 219.531 88.929 219.43V218.3C88.929 218.199 89.0109 218.117 89.1119 218.117C89.2129 218.117 89.2948 218.199 89.2948 218.3V219.43ZM89.2948 216.439C89.2948 216.54 89.2129 216.622 89.1119 216.622C89.0109 216.622 88.929 216.54 88.929 216.439V215.309C88.929 215.208 89.0109 215.126 89.1119 215.126C89.2129 215.126 89.2948 215.208 89.2948 215.309V216.439ZM89.2948 213.448C89.2948 213.549 89.2129 213.631 89.1119 213.631C89.0109 213.631 88.929 213.549 88.929 213.448V212.316C88.929 212.215 89.0109 212.133 89.1119 212.133C89.2129 212.133 89.2948 212.215 89.2948 212.316V213.448ZM89.2948 210.455C89.2948 210.556 89.2129 210.638 89.1119 210.638C89.0109 210.638 88.929 210.556 88.929 210.455V209.325C88.929 209.224 89.0109 209.143 89.1119 209.143C89.2129 209.143 89.2948 209.224 89.2948 209.325V210.455ZM89.2948 207.464C89.2948 207.565 89.2129 207.647 89.1119 207.647C89.0109 207.647 88.929 207.565 88.929 207.464V206.335C88.929 206.233 89.0109 206.152 89.1119 206.152C89.2129 206.152 89.2948 206.233 89.2948 206.335V207.464ZM89.2948 204.473C89.2948 204.574 89.2129 204.656 89.1119 204.656C89.0109 204.656 88.929 204.574 88.929 204.473V203.344C88.929 203.243 89.0109 203.161 89.1119 203.161C89.2129 203.161 89.2948 203.243 89.2948 203.344V204.473ZM89.2948 201.48C89.2948 201.581 89.2129 201.663 89.1119 201.663C89.0109 201.663 88.929 201.581 88.929 201.48V200.351C88.929 200.25 89.0109 200.168 89.1119 200.168C89.2129 200.168 89.2948 200.25 89.2948 200.351V201.48ZM89.2948 198.489C89.2948 198.59 89.2129 198.672 89.1119 198.672C89.0109 198.672 88.929 198.59 88.929 198.489V197.36C88.929 197.259 89.0109 197.177 89.1119 197.177C89.2129 197.177 89.2948 197.259 89.2948 197.36V198.489ZM89.2948 195.498C89.2948 195.599 89.2129 195.681 89.1119 195.681C89.0109 195.681 88.929 195.599 88.929 195.498V194.369C88.929 194.268 89.0109 194.186 89.1119 194.186C89.2129 194.186 89.2948 194.268 89.2948 194.369V195.498ZM89.2948 192.506C89.2948 192.607 89.2129 192.689 89.1119 192.689C89.0109 192.689 88.929 192.607 88.929 192.506V191.376C88.929 191.275 89.0109 191.193 89.1119 191.193C89.2129 191.193 89.2948 191.275 89.2948 191.376V192.506ZM89.2948 189.515C89.2948 189.616 89.2129 189.698 89.1119 189.698C89.0109 189.698 88.929 189.616 88.929 189.515V188.381C88.929 188.28 89.0109 188.198 89.1119 188.198C89.2129 188.198 89.2948 188.28 89.2948 188.381V189.515ZM89.2948 186.524C89.2948 186.625 89.2129 186.707 89.1119 186.707C89.0109 186.707 88.929 186.625 88.929 186.524V185.392C88.929 185.291 89.0109 185.209 89.1119 185.209C89.2129 185.209 89.2948 185.291 89.2948 185.392V186.524ZM89.2948 183.533C89.2948 183.634 89.2129 183.716 89.1119 183.716C89.0109 183.716 88.929 183.634 88.929 183.533V182.401C88.929 182.3 89.0109 182.218 89.1119 182.218C89.2129 182.218 89.2948 182.3 89.2948 182.401V183.533ZM89.2948 180.54C89.2948 180.641 89.2129 180.723 89.1119 180.723C89.0109 180.723 88.929 180.641 88.929 180.54V179.41C88.929 179.309 89.0109 179.227 89.1119 179.227C89.2129 179.227 89.2948 179.309 89.2948 179.41V180.54ZM89.2948 177.549C89.2948 177.65 89.2129 177.732 89.1119 177.732C89.0109 177.732 88.929 177.65 88.929 177.549V176.419C88.929 176.318 89.0109 176.236 89.1119 176.236C89.2129 176.236 89.2948 176.318 89.2948 176.419V177.549ZM89.2948 174.558C89.2948 174.659 89.2129 174.741 89.1119 174.741C89.0109 174.741 88.929 174.659 88.929 174.558V173.427C88.929 173.326 89.0109 173.244 89.1119 173.244C89.2129 173.244 89.2948 173.326 89.2948 173.427V174.558ZM89.2948 171.565C89.2948 171.666 89.2129 171.748 89.1119 171.748C89.0109 171.748 88.929 171.666 88.929 171.565V170.428C88.929 170.327 89.0109 170.245 89.1119 170.245C89.2129 170.245 89.2948 170.327 89.2948 170.428V171.565ZM89.2948 168.574C89.2948 168.675 89.2129 168.757 89.1119 168.757C89.0109 168.757 88.929 168.675 88.929 168.574V167.445C88.929 167.344 89.0109 167.262 89.1119 167.262C89.2129 167.262 89.2948 167.344 89.2948 167.445V168.574Z" fill="#3D7FFC"></path><path d="M89.2864 227.656V227.272C89.2864 227.169 89.2029 227.085 89.0998 227.085C88.9967 227.085 88.9131 227.169 88.9131 227.272V227.656C88.9131 227.759 88.9967 227.843 89.0998 227.843C89.2029 227.843 89.2864 227.759 89.2864 227.656Z" fill="#3D7FFC"></path><path d="M103.716 165.581V165.197C103.716 165.094 103.632 165.01 103.529 165.01C103.426 165.01 103.343 165.094 103.343 165.197V165.581C103.343 165.684 103.426 165.768 103.529 165.768C103.632 165.768 103.716 165.684 103.716 165.581Z" fill="#3D7FFC"></path><path d="M103.718 225.409C103.718 225.513 103.634 225.597 103.53 225.597C103.427 225.597 103.343 225.513 103.343 225.409V224.292C103.343 224.189 103.427 224.105 103.53 224.105C103.634 224.105 103.718 224.189 103.718 224.292V225.409ZM103.718 222.418C103.718 222.522 103.634 222.606 103.53 222.606C103.427 222.606 103.343 222.522 103.343 222.418V221.296C103.343 221.192 103.427 221.108 103.53 221.108C103.634 221.108 103.718 221.192 103.718 221.296V222.418ZM103.718 219.425C103.718 219.529 103.634 219.613 103.53 219.613C103.427 219.613 103.343 219.529 103.343 219.425V218.305C103.343 218.201 103.427 218.117 103.53 218.117C103.634 218.117 103.718 218.201 103.718 218.305V219.425ZM103.718 216.434C103.718 216.538 103.634 216.622 103.53 216.622C103.427 216.622 103.343 216.538 103.343 216.434V215.314C103.343 215.21 103.427 215.126 103.53 215.126C103.634 215.126 103.718 215.21 103.718 215.314V216.434ZM103.718 213.443C103.718 213.547 103.634 213.631 103.53 213.631C103.427 213.631 103.343 213.547 103.343 213.443V212.321C103.343 212.217 103.427 212.133 103.53 212.133C103.634 212.133 103.718 212.217 103.718 212.321V213.443ZM103.718 210.451C103.718 210.554 103.634 210.638 103.53 210.638C103.427 210.638 103.343 210.554 103.343 210.451V209.33C103.343 209.226 103.427 209.143 103.53 209.143C103.634 209.143 103.718 209.226 103.718 209.33V210.451ZM103.718 207.46C103.718 207.563 103.634 207.647 103.53 207.647C103.427 207.647 103.343 207.563 103.343 207.46V206.339C103.343 206.236 103.427 206.152 103.53 206.152C103.634 206.152 103.718 206.236 103.718 206.339V207.46ZM103.718 204.469C103.718 204.572 103.634 204.656 103.53 204.656C103.427 204.656 103.343 204.572 103.343 204.469V203.348C103.343 203.245 103.427 203.161 103.53 203.161C103.634 203.161 103.718 203.245 103.718 203.348V204.469ZM103.718 201.476C103.718 201.579 103.634 201.663 103.53 201.663C103.427 201.663 103.343 201.579 103.343 201.476V200.355C103.343 200.252 103.427 200.168 103.53 200.168C103.634 200.168 103.718 200.252 103.718 200.355V201.476ZM103.718 198.485C103.718 198.588 103.634 198.672 103.53 198.672C103.427 198.672 103.343 198.588 103.343 198.485V197.364C103.343 197.261 103.427 197.177 103.53 197.177C103.634 197.177 103.718 197.261 103.718 197.364V198.485ZM103.718 195.494C103.718 195.597 103.634 195.681 103.53 195.681C103.427 195.681 103.343 195.597 103.343 195.494V194.373C103.343 194.27 103.427 194.186 103.53 194.186C103.634 194.186 103.718 194.27 103.718 194.373V195.494ZM103.718 192.501C103.718 192.605 103.634 192.689 103.53 192.689C103.427 192.689 103.343 192.605 103.343 192.501V191.381C103.343 191.277 103.427 191.193 103.53 191.193C103.634 191.193 103.718 191.277 103.718 191.381V192.501ZM103.718 189.51C103.718 189.614 103.634 189.698 103.53 189.698C103.427 189.698 103.343 189.614 103.343 189.51V188.386C103.343 188.282 103.427 188.198 103.53 188.198C103.634 188.198 103.718 188.282 103.718 188.386V189.51ZM103.718 186.519C103.718 186.623 103.634 186.707 103.53 186.707C103.427 186.707 103.343 186.623 103.343 186.519V185.397C103.343 185.293 103.427 185.209 103.53 185.209C103.634 185.209 103.718 185.293 103.718 185.397V186.519ZM103.718 183.528C103.718 183.632 103.634 183.716 103.53 183.716C103.427 183.716 103.343 183.632 103.343 183.528V182.406C103.343 182.302 103.427 182.218 103.53 182.218C103.634 182.218 103.718 182.302 103.718 182.406V183.528ZM103.718 180.535C103.718 180.639 103.634 180.723 103.53 180.723C103.427 180.723 103.343 180.639 103.343 180.535V179.415C103.343 179.311 103.427 179.227 103.53 179.227C103.634 179.227 103.718 179.311 103.718 179.415V180.535ZM103.718 177.544C103.718 177.648 103.634 177.732 103.53 177.732C103.427 177.732 103.343 177.648 103.343 177.544V176.424C103.343 176.32 103.427 176.236 103.53 176.236C103.634 176.236 103.718 176.32 103.718 176.424V177.544ZM103.718 174.553C103.718 174.657 103.634 174.741 103.53 174.741C103.427 174.741 103.343 174.657 103.343 174.553V173.431C103.343 173.328 103.427 173.244 103.53 173.244C103.634 173.244 103.718 173.328 103.718 173.431V174.553ZM103.718 171.561C103.718 171.664 103.634 171.748 103.53 171.748C103.427 171.748 103.343 171.664 103.343 171.561V170.433C103.343 170.329 103.427 170.245 103.53 170.245C103.634 170.245 103.718 170.329 103.718 170.433V171.561ZM103.718 168.57C103.718 168.673 103.634 168.757 103.53 168.757C103.427 168.757 103.343 168.673 103.343 168.57V167.449C103.343 167.346 103.427 167.262 103.53 167.262C103.634 167.262 103.718 167.346 103.718 167.449V168.57Z" fill="#3D7FFC"></path><path d="M103.716 227.656V227.272C103.716 227.169 103.632 227.085 103.529 227.085C103.426 227.085 103.343 227.169 103.343 227.272V227.656C103.343 227.759 103.426 227.843 103.529 227.843C103.632 227.843 103.716 227.759 103.716 227.656Z" fill="#3D7FFC"></path><path d="M118.146 165.581V165.197C118.146 165.094 118.062 165.01 117.959 165.01C117.856 165.01 117.772 165.094 117.772 165.197V165.581C117.772 165.684 117.856 165.768 117.959 165.768C118.062 165.768 118.146 165.684 118.146 165.581Z" fill="#3D7FFC"></path><path d="M118.15 225.414C118.15 225.515 118.068 225.597 117.967 225.597C117.866 225.597 117.784 225.515 117.784 225.414V224.288C117.784 224.187 117.866 224.105 117.967 224.105C118.068 224.105 118.15 224.187 118.15 224.288V225.414ZM118.15 222.423C118.15 222.524 118.068 222.606 117.967 222.606C117.866 222.606 117.784 222.524 117.784 222.423V221.291C117.784 221.19 117.866 221.108 117.967 221.108C118.068 221.108 118.15 221.19 118.15 221.291V222.423ZM118.15 219.43C118.15 219.531 118.068 219.613 117.967 219.613C117.866 219.613 117.784 219.531 117.784 219.43V218.3C117.784 218.199 117.866 218.117 117.967 218.117C118.068 218.117 118.15 218.199 118.15 218.3V219.43ZM118.15 216.439C118.15 216.54 118.068 216.622 117.967 216.622C117.866 216.622 117.784 216.54 117.784 216.439V215.309C117.784 215.208 117.866 215.126 117.967 215.126C118.068 215.126 118.15 215.208 118.15 215.309V216.439ZM118.15 213.448C118.15 213.549 118.068 213.631 117.967 213.631C117.866 213.631 117.784 213.549 117.784 213.448V212.316C117.784 212.215 117.866 212.133 117.967 212.133C118.068 212.133 118.15 212.215 118.15 212.316V213.448ZM118.15 210.455C118.15 210.556 118.068 210.638 117.967 210.638C117.866 210.638 117.784 210.556 117.784 210.455V209.325C117.784 209.224 117.866 209.143 117.967 209.143C118.068 209.143 118.15 209.224 118.15 209.325V210.455ZM118.15 207.464C118.15 207.565 118.068 207.647 117.967 207.647C117.866 207.647 117.784 207.565 117.784 207.464V206.334C117.784 206.233 117.866 206.152 117.967 206.152C118.068 206.152 118.15 206.233 118.15 206.334V207.464ZM118.15 204.473C118.15 204.574 118.068 204.656 117.967 204.656C117.866 204.656 117.784 204.574 117.784 204.473V203.344C117.784 203.243 117.866 203.161 117.967 203.161C118.068 203.161 118.15 203.243 118.15 203.344V204.473ZM118.15 201.48C118.15 201.581 118.068 201.663 117.967 201.663C117.866 201.663 117.784 201.581 117.784 201.48V200.351C117.784 200.25 117.866 200.168 117.967 200.168C118.068 200.168 118.15 200.25 118.15 200.351V201.48ZM118.15 198.489C118.15 198.59 118.068 198.672 117.967 198.672C117.866 198.672 117.784 198.59 117.784 198.489V197.36C117.784 197.259 117.866 197.177 117.967 197.177C118.068 197.177 118.15 197.259 118.15 197.36V198.489ZM118.15 195.498C118.15 195.599 118.068 195.681 117.967 195.681C117.866 195.681 117.784 195.599 117.784 195.498V194.369C117.784 194.268 117.866 194.186 117.967 194.186C118.068 194.186 118.15 194.268 118.15 194.369V195.498ZM118.15 192.506C118.15 192.607 118.068 192.689 117.967 192.689C117.866 192.689 117.784 192.607 117.784 192.506V191.376C117.784 191.275 117.866 191.193 117.967 191.193C118.068 191.193 118.15 191.275 118.15 191.376V192.506ZM118.15 189.515C118.15 189.616 118.068 189.698 117.967 189.698C117.866 189.698 117.784 189.616 117.784 189.515V188.381C117.784 188.28 117.866 188.198 117.967 188.198C118.068 188.198 118.15 188.28 118.15 188.381V189.515ZM118.15 186.524C118.15 186.625 118.068 186.707 117.967 186.707C117.866 186.707 117.784 186.625 117.784 186.524V185.392C117.784 185.291 117.866 185.209 117.967 185.209C118.068 185.209 118.15 185.291 118.15 185.392V186.524ZM118.15 183.533C118.15 183.634 118.068 183.716 117.967 183.716C117.866 183.716 117.784 183.634 117.784 183.533V182.401C117.784 182.3 117.866 182.218 117.967 182.218C118.068 182.218 118.15 182.3 118.15 182.401V183.533ZM118.15 180.54C118.15 180.641 118.068 180.723 117.967 180.723C117.866 180.723 117.784 180.641 117.784 180.54V179.41C117.784 179.309 117.866 179.227 117.967 179.227C118.068 179.227 118.15 179.309 118.15 179.41V180.54ZM118.15 177.549C118.15 177.65 118.068 177.732 117.967 177.732C117.866 177.732 117.784 177.65 117.784 177.549V176.419C117.784 176.318 117.866 176.236 117.967 176.236C118.068 176.236 118.15 176.318 118.15 176.419V177.549ZM118.15 174.558C118.15 174.659 118.068 174.741 117.967 174.741C117.866 174.741 117.784 174.659 117.784 174.558V173.427C117.784 173.326 117.866 173.244 117.967 173.244C118.068 173.244 118.15 173.326 118.15 173.427V174.558ZM118.15 171.565C118.15 171.666 118.068 171.748 117.967 171.748C117.866 171.748 117.784 171.666 117.784 171.565V170.428C117.784 170.327 117.866 170.245 117.967 170.245C118.068 170.245 118.15 170.327 118.15 170.428V171.565ZM118.15 168.574C118.15 168.675 118.068 168.757 117.967 168.757C117.866 168.757 117.784 168.675 117.784 168.574V167.445C117.784 167.344 117.866 167.262 117.967 167.262C118.068 167.262 118.15 167.344 118.15 167.445V168.574Z" fill="#3D7FFC"></path><path d="M118.146 227.656V227.272C118.146 227.169 118.062 227.085 117.959 227.085C117.856 227.085 117.772 227.169 117.772 227.272V227.656C117.772 227.759 117.856 227.843 117.959 227.843C118.062 227.843 118.146 227.759 118.146 227.656Z" fill="#3D7FFC"></path><path d="M132.583 165.581V165.197C132.583 165.094 132.5 165.01 132.397 165.01C132.294 165.01 132.21 165.094 132.21 165.197V165.581C132.21 165.684 132.294 165.768 132.397 165.768C132.5 165.768 132.583 165.684 132.583 165.581Z" fill="#3D7FFC"></path><path d="M132.58 225.414C132.58 225.515 132.498 225.597 132.397 225.597C132.296 225.597 132.214 225.515 132.214 225.414V224.288C132.214 224.187 132.296 224.105 132.397 224.105C132.498 224.105 132.58 224.187 132.58 224.288V225.414ZM132.58 222.423C132.58 222.524 132.498 222.606 132.397 222.606C132.296 222.606 132.214 222.524 132.214 222.423V221.291C132.214 221.19 132.296 221.108 132.397 221.108C132.498 221.108 132.58 221.19 132.58 221.291V222.423ZM132.58 219.43C132.58 219.531 132.498 219.613 132.397 219.613C132.296 219.613 132.214 219.531 132.214 219.43V218.3C132.214 218.199 132.296 218.117 132.397 218.117C132.498 218.117 132.58 218.199 132.58 218.3V219.43ZM132.58 216.439C132.58 216.54 132.498 216.622 132.397 216.622C132.296 216.622 132.214 216.54 132.214 216.439V215.309C132.214 215.208 132.296 215.126 132.397 215.126C132.498 215.126 132.58 215.208 132.58 215.309V216.439ZM132.58 213.448C132.58 213.549 132.498 213.631 132.397 213.631C132.296 213.631 132.214 213.549 132.214 213.448V212.316C132.214 212.215 132.296 212.133 132.397 212.133C132.498 212.133 132.58 212.215 132.58 212.316V213.448ZM132.58 210.455C132.58 210.556 132.498 210.638 132.397 210.638C132.296 210.638 132.214 210.556 132.214 210.455V209.325C132.214 209.224 132.296 209.143 132.397 209.143C132.498 209.143 132.58 209.224 132.58 209.325V210.455ZM132.58 207.464C132.58 207.565 132.498 207.647 132.397 207.647C132.296 207.647 132.214 207.565 132.214 207.464V206.334C132.214 206.233 132.296 206.152 132.397 206.152C132.498 206.152 132.58 206.233 132.58 206.334V207.464ZM132.58 204.473C132.58 204.574 132.498 204.656 132.397 204.656C132.296 204.656 132.214 204.574 132.214 204.473V203.344C132.214 203.243 132.296 203.161 132.397 203.161C132.498 203.161 132.58 203.243 132.58 203.344V204.473ZM132.58 201.48C132.58 201.581 132.498 201.663 132.397 201.663C132.296 201.663 132.214 201.581 132.214 201.48V200.351C132.214 200.25 132.296 200.168 132.397 200.168C132.498 200.168 132.58 200.25 132.58 200.351V201.48ZM132.58 198.489C132.58 198.59 132.498 198.672 132.397 198.672C132.296 198.672 132.214 198.59 132.214 198.489V197.36C132.214 197.259 132.296 197.177 132.397 197.177C132.498 197.177 132.58 197.259 132.58 197.36V198.489ZM132.58 195.498C132.58 195.599 132.498 195.681 132.397 195.681C132.296 195.681 132.214 195.599 132.214 195.498V194.369C132.214 194.268 132.296 194.186 132.397 194.186C132.498 194.186 132.58 194.268 132.58 194.369V195.498ZM132.58 192.506C132.58 192.607 132.498 192.689 132.397 192.689C132.296 192.689 132.214 192.607 132.214 192.506V191.376C132.214 191.275 132.296 191.193 132.397 191.193C132.498 191.193 132.58 191.275 132.58 191.376V192.506ZM132.58 189.515C132.58 189.616 132.498 189.698 132.397 189.698C132.296 189.698 132.214 189.616 132.214 189.515V188.381C132.214 188.28 132.296 188.198 132.397 188.198C132.498 188.198 132.58 188.28 132.58 188.381V189.515ZM132.58 186.524C132.58 186.625 132.498 186.707 132.397 186.707C132.296 186.707 132.214 186.625 132.214 186.524V185.392C132.214 185.291 132.296 185.209 132.397 185.209C132.498 185.209 132.58 185.291 132.58 185.392V186.524ZM132.58 183.533C132.58 183.634 132.498 183.716 132.397 183.716C132.296 183.716 132.214 183.634 132.214 183.533V182.401C132.214 182.3 132.296 182.218 132.397 182.218C132.498 182.218 132.58 182.3 132.58 182.401V183.533ZM132.58 180.54C132.58 180.641 132.498 180.723 132.397 180.723C132.296 180.723 132.214 180.641 132.214 180.54V179.41C132.214 179.309 132.296 179.227 132.397 179.227C132.498 179.227 132.58 179.309 132.58 179.41V180.54ZM132.58 177.549C132.58 177.65 132.498 177.732 132.397 177.732C132.296 177.732 132.214 177.65 132.214 177.549V176.419C132.214 176.318 132.296 176.236 132.397 176.236C132.498 176.236 132.58 176.318 132.58 176.419V177.549ZM132.58 174.558C132.58 174.659 132.498 174.741 132.397 174.741C132.296 174.741 132.214 174.659 132.214 174.558V173.427C132.214 173.326 132.296 173.244 132.397 173.244C132.498 173.244 132.58 173.326 132.58 173.427V174.558ZM132.58 171.565C132.58 171.666 132.498 171.748 132.397 171.748C132.296 171.748 132.214 171.666 132.214 171.565V170.428C132.214 170.327 132.296 170.245 132.397 170.245C132.498 170.245 132.58 170.327 132.58 170.428V171.565ZM132.58 168.574C132.58 168.675 132.498 168.757 132.397 168.757C132.296 168.757 132.214 168.675 132.214 168.574V167.445C132.214 167.344 132.296 167.262 132.397 167.262C132.498 167.262 132.58 167.344 132.58 167.445V168.574Z" fill="#3D7FFC"></path><path d="M132.583 227.656V227.272C132.583 227.169 132.5 227.085 132.397 227.085C132.294 227.085 132.21 227.169 132.21 227.272V227.656C132.21 227.759 132.294 227.843 132.397 227.843C132.5 227.843 132.583 227.759 132.583 227.656Z" fill="#3D7FFC"></path><path d="M147.005 165.581V165.197C147.005 165.094 146.921 165.01 146.818 165.01C146.715 165.01 146.632 165.094 146.632 165.197V165.581C146.632 165.684 146.715 165.768 146.818 165.768C146.921 165.768 147.005 165.684 147.005 165.581Z" fill="#3D7FFC"></path><path d="M147.013 225.414C147.013 225.515 146.931 225.597 146.83 225.597C146.729 225.597 146.648 225.515 146.648 225.414V224.288C146.648 224.187 146.729 224.105 146.83 224.105C146.931 224.105 147.013 224.187 147.013 224.288V225.414ZM147.013 222.423C147.013 222.524 146.931 222.606 146.83 222.606C146.729 222.606 146.648 222.524 146.648 222.423V221.291C146.648 221.19 146.729 221.108 146.83 221.108C146.931 221.108 147.013 221.19 147.013 221.291V222.423ZM147.013 219.43C147.013 219.531 146.931 219.613 146.83 219.613C146.729 219.613 146.648 219.531 146.648 219.43V218.3C146.648 218.199 146.729 218.117 146.83 218.117C146.931 218.117 147.013 218.199 147.013 218.3V219.43ZM147.013 216.439C147.013 216.54 146.931 216.622 146.83 216.622C146.729 216.622 146.648 216.54 146.648 216.439V215.309C146.648 215.208 146.729 215.126 146.83 215.126C146.931 215.126 147.013 215.208 147.013 215.309V216.439ZM147.013 213.448C147.013 213.549 146.931 213.631 146.83 213.631C146.729 213.631 146.648 213.549 146.648 213.448V212.316C146.648 212.215 146.729 212.133 146.83 212.133C146.931 212.133 147.013 212.215 147.013 212.316V213.448ZM147.013 210.455C147.013 210.556 146.931 210.638 146.83 210.638C146.729 210.638 146.648 210.556 146.648 210.455V209.325C146.648 209.224 146.729 209.143 146.83 209.143C146.931 209.143 147.013 209.224 147.013 209.325V210.455ZM147.013 207.464C147.013 207.565 146.931 207.647 146.83 207.647C146.729 207.647 146.648 207.565 146.648 207.464V206.334C146.648 206.233 146.729 206.152 146.83 206.152C146.931 206.152 147.013 206.233 147.013 206.334V207.464ZM147.013 204.473C147.013 204.574 146.931 204.656 146.83 204.656C146.729 204.656 146.648 204.574 146.648 204.473V203.344C146.648 203.243 146.729 203.161 146.83 203.161C146.931 203.161 147.013 203.243 147.013 203.344V204.473ZM147.013 201.48C147.013 201.581 146.931 201.663 146.83 201.663C146.729 201.663 146.648 201.581 146.648 201.48V200.351C146.648 200.25 146.729 200.168 146.83 200.168C146.931 200.168 147.013 200.25 147.013 200.351V201.48ZM147.013 198.489C147.013 198.59 146.931 198.672 146.83 198.672C146.729 198.672 146.648 198.59 146.648 198.489V197.36C146.648 197.259 146.729 197.177 146.83 197.177C146.931 197.177 147.013 197.259 147.013 197.36V198.489ZM147.013 195.498C147.013 195.599 146.931 195.681 146.83 195.681C146.729 195.681 146.648 195.599 146.648 195.498V194.369C146.648 194.268 146.729 194.186 146.83 194.186C146.931 194.186 147.013 194.268 147.013 194.369V195.498ZM147.013 192.506C147.013 192.607 146.931 192.689 146.83 192.689C146.729 192.689 146.648 192.607 146.648 192.506V191.376C146.648 191.275 146.729 191.193 146.83 191.193C146.931 191.193 147.013 191.275 147.013 191.376V192.506ZM147.013 189.515C147.013 189.616 146.931 189.698 146.83 189.698C146.729 189.698 146.648 189.616 146.648 189.515V188.381C146.648 188.28 146.729 188.198 146.83 188.198C146.931 188.198 147.013 188.28 147.013 188.381V189.515ZM147.013 186.524C147.013 186.625 146.931 186.707 146.83 186.707C146.729 186.707 146.648 186.625 146.648 186.524V185.392C146.648 185.291 146.729 185.209 146.83 185.209C146.931 185.209 147.013 185.291 147.013 185.392V186.524ZM147.013 183.533C147.013 183.634 146.931 183.716 146.83 183.716C146.729 183.716 146.648 183.634 146.648 183.533V182.401C146.648 182.3 146.729 182.218 146.83 182.218C146.931 182.218 147.013 182.3 147.013 182.401V183.533ZM147.013 180.54C147.013 180.641 146.931 180.723 146.83 180.723C146.729 180.723 146.648 180.641 146.648 180.54V179.41C146.648 179.309 146.729 179.227 146.83 179.227C146.931 179.227 147.013 179.309 147.013 179.41V180.54ZM147.013 177.549C147.013 177.65 146.931 177.732 146.83 177.732C146.729 177.732 146.648 177.65 146.648 177.549V176.419C146.648 176.318 146.729 176.236 146.83 176.236C146.931 176.236 147.013 176.318 147.013 176.419V177.549ZM147.013 174.558C147.013 174.659 146.931 174.741 146.83 174.741C146.729 174.741 146.648 174.659 146.648 174.558V173.427C146.648 173.326 146.729 173.244 146.83 173.244C146.931 173.244 147.013 173.326 147.013 173.427V174.558ZM147.013 171.565C147.013 171.666 146.931 171.748 146.83 171.748C146.729 171.748 146.648 171.666 146.648 171.565V170.428C146.648 170.327 146.729 170.245 146.83 170.245C146.931 170.245 147.013 170.327 147.013 170.428V171.565ZM147.013 168.574C147.013 168.675 146.931 168.757 146.83 168.757C146.729 168.757 146.648 168.675 146.648 168.574V167.445C146.648 167.344 146.729 167.262 146.83 167.262C146.931 167.262 147.013 167.344 147.013 167.445V168.574Z" fill="#3D7FFC"></path><path d="M160.33 227.504C160.33 227.605 160.248 227.687 160.147 227.687C160.046 227.687 159.964 227.605 159.964 227.504V226.257C159.964 226.156 160.046 226.074 160.147 226.074C160.248 226.074 160.33 226.156 160.33 226.257V227.504ZM160.33 224.271C160.33 224.372 160.248 224.454 160.147 224.454C160.046 224.454 159.964 224.372 159.964 224.271V223.019C159.964 222.918 160.046 222.836 160.147 222.836C160.248 222.836 160.33 222.918 160.33 223.019V224.271ZM160.33 221.036C160.33 221.137 160.248 221.219 160.147 221.219C160.046 221.219 159.964 221.137 159.964 221.036V219.786C159.964 219.685 160.046 219.603 160.147 219.603C160.248 219.603 160.33 219.685 160.33 219.786V221.036ZM160.33 217.803C160.33 217.905 160.248 217.986 160.147 217.986C160.046 217.986 159.964 217.905 159.964 217.804V216.553C159.964 216.452 160.046 216.37 160.147 216.37C160.248 216.37 160.33 216.452 160.33 216.553V217.803ZM160.33 214.571C160.33 214.672 160.248 214.754 160.147 214.754C160.046 214.754 159.964 214.672 159.964 214.571V213.318C159.964 213.217 160.046 213.135 160.147 213.135C160.248 213.135 160.33 213.217 160.33 213.318V214.571ZM160.33 211.336C160.33 211.437 160.248 211.519 160.147 211.519C160.046 211.519 159.964 211.437 159.964 211.336V210.085C159.964 209.984 160.046 209.903 160.147 209.903C160.248 209.903 160.33 209.984 160.33 210.085V211.336ZM160.33 208.103C160.33 208.204 160.248 208.286 160.147 208.286C160.046 208.286 159.964 208.204 159.964 208.103V206.853C159.964 206.752 160.046 206.67 160.147 206.67C160.248 206.67 160.33 206.752 160.33 206.853V208.103ZM160.33 204.87C160.33 204.971 160.248 205.053 160.147 205.053C160.046 205.053 159.964 204.971 159.964 204.87V203.62C159.964 203.519 160.046 203.437 160.147 203.437C160.248 203.437 160.33 203.519 160.33 203.62V204.87ZM160.33 201.636C160.33 201.737 160.248 201.819 160.147 201.819C160.046 201.819 159.964 201.737 159.964 201.636V200.385C159.964 200.284 160.046 200.202 160.147 200.202C160.248 200.202 160.33 200.284 160.33 200.385V201.636ZM160.33 198.403C160.33 198.504 160.248 198.586 160.147 198.586C160.046 198.586 159.964 198.504 159.964 198.403V197.152C159.964 197.051 160.046 196.969 160.147 196.969C160.248 196.969 160.33 197.051 160.33 197.152V198.403ZM160.33 195.17C160.33 195.271 160.248 195.353 160.147 195.353C160.046 195.353 159.964 195.271 159.964 195.17V193.92C159.964 193.819 160.046 193.737 160.147 193.737C160.248 193.737 160.33 193.819 160.33 193.92V195.17ZM160.33 191.935C160.33 192.036 160.248 192.118 160.147 192.118C160.046 192.118 159.964 192.036 159.964 191.935V190.685C159.964 190.584 160.046 190.502 160.147 190.502C160.248 190.502 160.33 190.584 160.33 190.685V191.935ZM160.33 188.703C160.33 188.804 160.248 188.886 160.147 188.886C160.046 188.886 159.964 188.804 159.964 188.703V187.448C159.964 187.347 160.046 187.265 160.147 187.265C160.248 187.265 160.33 187.347 160.33 187.448V188.703ZM160.33 185.47C160.33 185.571 160.248 185.653 160.147 185.653C160.046 185.653 159.964 185.571 159.964 185.47V184.217C159.964 184.116 160.046 184.034 160.147 184.034C160.248 184.034 160.33 184.116 160.33 184.217V185.47ZM160.33 182.237C160.33 182.338 160.248 182.42 160.147 182.42C160.046 182.42 159.964 182.338 159.964 182.237V180.985C159.964 180.883 160.046 180.802 160.147 180.802C160.248 180.802 160.33 180.883 160.33 180.985V182.237ZM160.33 179.002C160.33 179.103 160.248 179.185 160.147 179.185C160.046 179.185 159.964 179.103 159.964 179.002V177.752C159.964 177.651 160.046 177.569 160.147 177.569C160.248 177.569 160.33 177.651 160.33 177.752V179.002ZM160.33 175.77C160.33 175.871 160.248 175.952 160.147 175.952C160.046 175.952 159.964 175.871 159.964 175.77V174.519C159.964 174.418 160.046 174.336 160.147 174.336C160.248 174.336 160.33 174.418 160.33 174.519V175.77ZM160.33 172.537C160.33 172.638 160.248 172.72 160.147 172.72C160.046 172.72 159.964 172.638 159.964 172.537V171.284C159.964 171.183 160.046 171.101 160.147 171.101C160.248 171.101 160.33 171.183 160.33 171.284V172.537ZM160.33 169.302C160.33 169.403 160.248 169.485 160.147 169.485C160.046 169.485 159.964 169.403 159.964 169.302V168.043C159.964 167.942 160.046 167.861 160.147 167.861C160.248 167.861 160.33 167.942 160.33 168.043V169.302ZM160.33 166.069C160.33 166.17 160.248 166.252 160.147 166.252C160.046 166.252 159.964 166.17 159.964 166.069V164.819C159.964 164.718 160.046 164.636 160.147 164.636C160.248 164.636 160.33 164.718 160.33 164.819V166.069Z" fill="#3D7FFC"></path><path d="M174.402 227.504C174.402 227.605 174.32 227.687 174.219 227.687C174.118 227.687 174.036 227.605 174.036 227.504V226.257C174.036 226.156 174.118 226.074 174.219 226.074C174.32 226.074 174.402 226.156 174.402 226.257V227.504ZM174.402 224.271C174.402 224.372 174.32 224.454 174.219 224.454C174.118 224.454 174.036 224.372 174.036 224.271V223.019C174.036 222.918 174.118 222.836 174.219 222.836C174.32 222.836 174.402 222.918 174.402 223.019V224.271ZM174.402 221.036C174.402 221.137 174.32 221.219 174.219 221.219C174.118 221.219 174.036 221.137 174.036 221.036V219.786C174.036 219.685 174.118 219.603 174.219 219.603C174.32 219.603 174.402 219.685 174.402 219.786V221.036ZM174.402 217.803C174.402 217.905 174.32 217.986 174.219 217.986C174.118 217.986 174.036 217.905 174.036 217.804V216.553C174.036 216.452 174.118 216.37 174.219 216.37C174.32 216.37 174.402 216.452 174.402 216.553V217.803ZM174.402 214.571C174.402 214.672 174.32 214.754 174.219 214.754C174.118 214.754 174.036 214.672 174.036 214.571V213.318C174.036 213.217 174.118 213.135 174.219 213.135C174.32 213.135 174.402 213.217 174.402 213.318V214.571ZM174.402 211.336C174.402 211.437 174.32 211.519 174.219 211.519C174.118 211.519 174.036 211.437 174.036 211.336V210.085C174.036 209.984 174.118 209.903 174.219 209.903C174.32 209.903 174.402 209.984 174.402 210.085V211.336ZM174.402 208.103C174.402 208.204 174.32 208.286 174.219 208.286C174.118 208.286 174.036 208.204 174.036 208.103V206.853C174.036 206.752 174.118 206.67 174.219 206.67C174.32 206.67 174.402 206.752 174.402 206.853V208.103ZM174.402 204.87C174.402 204.971 174.32 205.053 174.219 205.053C174.118 205.053 174.036 204.971 174.036 204.87V203.62C174.036 203.519 174.118 203.437 174.219 203.437C174.32 203.437 174.402 203.519 174.402 203.62V204.87ZM174.402 201.636C174.402 201.737 174.32 201.819 174.219 201.819C174.118 201.819 174.036 201.737 174.036 201.636V200.385C174.036 200.284 174.118 200.202 174.219 200.202C174.32 200.202 174.402 200.284 174.402 200.385V201.636ZM174.402 198.403C174.402 198.504 174.32 198.586 174.219 198.586C174.118 198.586 174.036 198.504 174.036 198.403V197.152C174.036 197.051 174.118 196.969 174.219 196.969C174.32 196.969 174.402 197.051 174.402 197.152V198.403ZM174.402 195.17C174.402 195.271 174.32 195.353 174.219 195.353C174.118 195.353 174.036 195.271 174.036 195.17V193.92C174.036 193.819 174.118 193.737 174.219 193.737C174.32 193.737 174.402 193.819 174.402 193.92V195.17ZM174.402 191.935C174.402 192.036 174.32 192.118 174.219 192.118C174.118 192.118 174.036 192.036 174.036 191.935V190.685C174.036 190.584 174.118 190.502 174.219 190.502C174.32 190.502 174.402 190.584 174.402 190.685V191.935ZM174.402 188.703C174.402 188.804 174.32 188.886 174.219 188.886C174.118 188.886 174.036 188.804 174.036 188.703V187.448C174.036 187.347 174.118 187.265 174.219 187.265C174.32 187.265 174.402 187.347 174.402 187.448V188.703ZM174.402 185.47C174.402 185.571 174.32 185.653 174.219 185.653C174.118 185.653 174.036 185.571 174.036 185.47V184.217C174.036 184.116 174.118 184.034 174.219 184.034C174.32 184.034 174.402 184.116 174.402 184.217V185.47ZM174.402 182.237C174.402 182.338 174.32 182.42 174.219 182.42C174.118 182.42 174.036 182.338 174.036 182.237V180.985C174.036 180.883 174.118 180.802 174.219 180.802C174.32 180.802 174.402 180.883 174.402 180.985V182.237ZM174.402 179.002C174.402 179.103 174.32 179.185 174.219 179.185C174.118 179.185 174.036 179.103 174.036 179.002V177.752C174.036 177.651 174.118 177.569 174.219 177.569C174.32 177.569 174.402 177.651 174.402 177.752V179.002ZM174.402 175.77C174.402 175.871 174.32 175.952 174.219 175.952C174.118 175.952 174.036 175.871 174.036 175.77V174.519C174.036 174.418 174.118 174.336 174.219 174.336C174.32 174.336 174.402 174.418 174.402 174.519V175.77ZM174.402 172.537C174.402 172.638 174.32 172.72 174.219 172.72C174.118 172.72 174.036 172.638 174.036 172.537V171.284C174.036 171.183 174.118 171.101 174.219 171.101C174.32 171.101 174.402 171.183 174.402 171.284V172.537ZM174.402 169.302C174.402 169.403 174.32 169.485 174.219 169.485C174.118 169.485 174.036 169.403 174.036 169.302V168.043C174.036 167.942 174.118 167.861 174.219 167.861C174.32 167.861 174.402 167.942 174.402 168.043V169.302ZM174.402 166.069C174.402 166.17 174.32 166.252 174.219 166.252C174.118 166.252 174.036 166.17 174.036 166.069V164.819C174.036 164.718 174.118 164.636 174.219 164.636C174.32 164.636 174.402 164.718 174.402 164.819V166.069Z" fill="#3D7FFC"></path><path d="M188.395 227.504C188.395 227.605 188.313 227.687 188.212 227.687C188.111 227.687 188.029 227.605 188.029 227.504V226.257C188.029 226.156 188.111 226.074 188.212 226.074C188.313 226.074 188.395 226.156 188.395 226.257V227.504ZM188.395 224.271C188.395 224.372 188.313 224.454 188.212 224.454C188.111 224.454 188.029 224.372 188.029 224.271V223.019C188.029 222.918 188.111 222.836 188.212 222.836C188.313 222.836 188.395 222.918 188.395 223.019V224.271ZM188.395 221.036C188.395 221.137 188.313 221.219 188.212 221.219C188.111 221.219 188.029 221.137 188.029 221.036V219.786C188.029 219.685 188.111 219.603 188.212 219.603C188.313 219.603 188.395 219.685 188.395 219.786V221.036ZM188.395 217.803C188.395 217.905 188.313 217.986 188.212 217.986C188.111 217.986 188.029 217.905 188.029 217.804V216.553C188.029 216.452 188.111 216.37 188.212 216.37C188.313 216.37 188.395 216.452 188.395 216.553V217.803ZM188.395 214.571C188.395 214.672 188.313 214.754 188.212 214.754C188.111 214.754 188.029 214.672 188.029 214.571V213.318C188.029 213.217 188.111 213.135 188.212 213.135C188.313 213.135 188.395 213.217 188.395 213.318V214.571ZM188.395 211.336C188.395 211.437 188.313 211.519 188.212 211.519C188.111 211.519 188.029 211.437 188.029 211.336V210.085C188.029 209.984 188.111 209.903 188.212 209.903C188.313 209.903 188.395 209.984 188.395 210.085V211.336ZM188.395 208.103C188.395 208.204 188.313 208.286 188.212 208.286C188.111 208.286 188.029 208.204 188.029 208.103V206.853C188.029 206.752 188.111 206.67 188.212 206.67C188.313 206.67 188.395 206.752 188.395 206.853V208.103ZM188.395 204.87C188.395 204.971 188.313 205.053 188.212 205.053C188.111 205.053 188.029 204.971 188.029 204.87V203.62C188.029 203.519 188.111 203.437 188.212 203.437C188.313 203.437 188.395 203.519 188.395 203.62V204.87ZM188.395 201.636C188.395 201.737 188.313 201.819 188.212 201.819C188.111 201.819 188.029 201.737 188.029 201.636V200.385C188.029 200.284 188.111 200.202 188.212 200.202C188.313 200.202 188.395 200.284 188.395 200.385V201.636ZM188.395 198.403C188.395 198.504 188.313 198.586 188.212 198.586C188.111 198.586 188.029 198.504 188.029 198.403V197.152C188.029 197.051 188.111 196.969 188.212 196.969C188.313 196.969 188.395 197.051 188.395 197.152V198.403ZM188.395 195.17C188.395 195.271 188.313 195.353 188.212 195.353C188.111 195.353 188.029 195.271 188.029 195.17V193.92C188.029 193.819 188.111 193.737 188.212 193.737C188.313 193.737 188.395 193.819 188.395 193.92V195.17ZM188.395 191.935C188.395 192.036 188.313 192.118 188.212 192.118C188.111 192.118 188.029 192.036 188.029 191.935V190.685C188.029 190.584 188.111 190.502 188.212 190.502C188.313 190.502 188.395 190.584 188.395 190.685V191.935ZM188.395 188.703C188.395 188.804 188.313 188.886 188.212 188.886C188.111 188.886 188.029 188.804 188.029 188.703V187.448C188.029 187.347 188.111 187.265 188.212 187.265C188.313 187.265 188.395 187.347 188.395 187.448V188.703ZM188.395 185.47C188.395 185.571 188.313 185.653 188.212 185.653C188.111 185.653 188.029 185.571 188.029 185.47V184.217C188.029 184.116 188.111 184.034 188.212 184.034C188.313 184.034 188.395 184.116 188.395 184.217V185.47ZM188.395 182.237C188.395 182.338 188.313 182.42 188.212 182.42C188.111 182.42 188.029 182.338 188.029 182.237V180.985C188.029 180.883 188.111 180.802 188.212 180.802C188.313 180.802 188.395 180.883 188.395 180.985V182.237ZM188.395 179.002C188.395 179.103 188.313 179.185 188.212 179.185C188.111 179.185 188.029 179.103 188.029 179.002V177.752C188.029 177.651 188.111 177.569 188.212 177.569C188.313 177.569 188.395 177.651 188.395 177.752V179.002ZM188.395 175.77C188.395 175.871 188.313 175.952 188.212 175.952C188.111 175.952 188.029 175.871 188.029 175.77V174.519C188.029 174.418 188.111 174.336 188.212 174.336C188.313 174.336 188.395 174.418 188.395 174.519V175.77ZM188.395 172.537C188.395 172.638 188.313 172.72 188.212 172.72C188.111 172.72 188.029 172.638 188.029 172.537V171.284C188.029 171.183 188.111 171.101 188.212 171.101C188.313 171.101 188.395 171.183 188.395 171.284V172.537ZM188.395 169.302C188.395 169.403 188.313 169.485 188.212 169.485C188.111 169.485 188.029 169.403 188.029 169.302V168.043C188.029 167.942 188.111 167.861 188.212 167.861C188.313 167.861 188.395 167.942 188.395 168.043V169.302ZM188.395 166.069C188.395 166.17 188.313 166.252 188.212 166.252C188.111 166.252 188.029 166.17 188.029 166.069V164.819C188.029 164.718 188.111 164.636 188.212 164.636C188.313 164.636 188.395 164.718 188.395 164.819V166.069Z" fill="#3D7FFC"></path><path d="M147.005 227.656V227.272C147.005 227.169 146.921 227.085 146.818 227.085C146.715 227.085 146.632 227.169 146.632 227.272V227.656C146.632 227.759 146.715 227.843 146.818 227.843C146.921 227.843 147.005 227.759 147.005 227.656Z" fill="#3D7FFC"></path><g style="mix-blend-mode:multiply"><path d="M188.673 227.654H45.4363C45.3315 227.654 45.2466 227.739 45.2466 227.844C45.2466 227.948 45.3315 228.033 45.4363 228.033H188.673C188.778 228.033 188.863 227.948 188.863 227.844C188.863 227.739 188.778 227.654 188.673 227.654Z" fill="#3D7FFC"></path></g><path d="M81.2974 172.674H48.5299C46.7166 172.674 45.2466 174.144 45.2466 175.958C45.2466 177.771 46.7166 179.241 48.5299 179.241H81.2974C83.1108 179.241 84.5808 177.771 84.5808 175.958C84.5808 174.144 83.1108 172.674 81.2974 172.674Z" fill="#3D7FFC"></path><path d="M128.439 186.167H48.7494C46.8149 186.167 45.2466 187.735 45.2466 189.67C45.2466 191.604 46.8149 193.173 48.7494 193.173H128.439C130.373 193.173 131.942 191.604 131.942 189.67C131.942 187.735 130.373 186.167 128.439 186.167Z" fill="#76A5FF"></path><path d="M114.865 200.171H48.3115C46.6188 200.171 45.2466 201.544 45.2466 203.236C45.2466 204.929 46.6188 206.301 48.3115 206.301H114.865C116.558 206.301 117.93 204.929 117.93 203.236C117.93 201.544 116.558 200.171 114.865 200.171Z" fill="#FECE4D"></path><path d="M170.473 213.312H48.7494C46.8148 213.312 45.2466 214.881 45.2466 216.815C45.2466 218.75 46.8148 220.318 48.7494 220.318H170.473C172.407 220.318 173.976 218.75 173.976 216.815C173.976 214.881 172.407 213.312 170.473 213.312Z" fill="#7879F1"></path></g><rect x="30.3008" y="174.764" width="13.1356" height="2.62712" rx="1.31356" fill="#E7EEFF"></rect><rect x="31.195" y="152.873" width="56.0453" height="3.50283" rx="1.75142" fill="#C6DBFF"></rect><rect x="30.3008" y="187.902" width="10.5085" height="2.62712" rx="1.31356" fill="#E7EEFF"></rect><rect x="30.3008" y="201.92" width="13.1356" height="2.62712" rx="1.31356" fill="#E7EEFF"></rect><rect x="32.0494" y="215.917" width="8.75708" height="2.62712" rx="1.31356" fill="#E7EEFF"></rect><g filter="url(#filter6_dd_32419_93654)"><rect x="233" y="286" width="210" height="65.0302" rx="7.53731" fill="white"></rect></g><rect x="355.581" y="297.745" width="75.0679" height="44.2566" rx="7.53731" fill="#F5F8FF"></rect><path d="M389.723 306.061L389.723 334.063C389.723 336.165 391.427 337.869 393.529 337.869C395.631 337.869 397.335 336.165 397.335 334.063L397.335 306.061C397.335 303.959 395.631 302.255 393.529 302.255C391.427 302.255 389.723 303.959 389.723 306.061Z" fill="#76A5FF"></path><path d="M379.308 315.352L379.308 334.063C379.308 336.165 381.012 337.869 383.114 337.869C385.216 337.869 386.92 336.165 386.92 334.063L386.92 315.352C386.92 313.25 385.216 311.545 383.114 311.545C381.012 311.545 379.308 313.25 379.308 315.352Z" fill="#9FC0FF"></path><path d="M368.885 327.734L368.885 333.681C368.885 335.78 370.587 337.481 372.686 337.481C374.785 337.481 376.487 335.78 376.487 333.681L376.487 327.734C376.487 325.635 374.785 323.933 372.686 323.933C370.587 323.933 368.885 325.635 368.885 327.734Z" fill="#3D7FFC"></path><path d="M400.071 322.32L400.071 334.063C400.071 336.165 401.775 337.869 403.877 337.869C405.979 337.869 407.683 336.165 407.683 334.063L407.683 322.32C407.683 320.218 405.979 318.513 403.877 318.513C401.775 318.513 400.071 320.218 400.071 322.32Z" fill="#FECE4D"></path><path d="M410.707 316.896L410.707 333.681C410.707 335.78 412.409 337.481 414.508 337.481C416.607 337.481 418.309 335.78 418.309 333.681L418.309 316.896C418.309 314.797 416.607 313.095 414.508 313.095C412.409 313.095 410.707 314.797 410.707 316.896Z" fill="#7879F1"></path><rect x="244.417" y="297.732" width="40.2426" height="2.37317" rx="1.18659" fill="#E7EEFF"></rect><rect x="244.417" y="302.821" width="75.0679" height="2.37317" rx="1.18659" fill="#E7EEFF"></rect><rect x="244.417" y="307.893" width="75.0679" height="2.37317" rx="1.18659" fill="#E7EEFF"></rect><path d="M244.409 323.251C244.409 320.129 246.94 317.598 250.062 317.598H335.679C338.801 317.598 341.332 320.129 341.332 323.251V336.331C341.332 339.453 338.801 341.984 335.679 341.984H250.062C246.94 341.984 244.409 339.453 244.409 336.331V323.251Z" fill="#E7EEFF"></path><mask id="mask0_32419_93654" style="mask-type:alpha" maskUnits="userSpaceOnUse" x="244" y="316" width="98" height="24"><rect x="244.407" y="316.693" width="96.923" height="22.5147" rx="1.88433" fill="#C6DBFF"></rect></mask><g mask="url(#mask0_32419_93654)"><mask id="mask1_32419_93654" style="mask-type:alpha" maskUnits="userSpaceOnUse" x="238" y="316" width="147" height="23"><rect x="238.602" y="316.584" width="145.323" height="21.5329" rx="1.41325" fill="#F5F8FF" stroke="black" stroke-width="0.942164"></rect></mask><g mask="url(#mask1_32419_93654)"><path opacity="0.8" d="M234.637 340.2C233.24 340.2 232.846 338.284 234.13 337.732C234.229 337.69 234.334 337.66 234.44 337.643L242.988 336.314C245.791 335.878 248.538 335.138 251.181 334.108L257.728 331.556C259.862 330.724 262.067 330.086 264.316 329.649L266.391 329.246C270.741 328.402 275.203 328.322 279.58 329.009L281.979 329.386C284.493 329.781 286.954 330.463 289.313 331.42L290.403 331.863C295.868 334.08 301.863 334.65 307.649 333.501C310.617 332.912 313.48 331.88 316.142 330.44L319.475 328.637C323.038 326.709 326.889 325.367 330.879 324.661C335.83 323.785 340.907 323.907 345.811 325.017L349.84 325.93L363.362 329.972L372.3 333.045C374.99 333.97 377.841 334.334 380.678 334.117L387.773 333.573C388.691 333.502 389.597 333.812 390.28 334.429C392.56 336.49 391.101 340.276 388.028 340.274L234.637 340.2Z" stroke="#3D7FFC" stroke-width="0.942164"></path><path d="M236.887 339.357C236.205 339.356 236.054 338.398 236.703 338.188C236.741 338.176 236.779 338.168 236.818 338.163L243.993 337.323C246.18 337.067 248.342 336.626 250.456 336.006L258.456 333.658L263.262 332.955C266.575 332.471 269.937 332.425 273.262 332.818L275.615 333.096C277.652 333.337 279.663 333.76 281.625 334.359L282.405 334.598C286.924 335.978 291.693 336.332 296.365 335.633C298.861 335.26 301.304 334.59 303.642 333.638L305.964 332.692C308.965 331.47 312.109 330.635 315.321 330.207L315.757 330.149C319.564 329.642 323.425 329.712 327.21 330.358L330.832 330.976L341.839 333.453L349.136 335.342C351.319 335.908 353.576 336.129 355.827 335.999L362.233 335.629C362.649 335.605 363.061 335.719 363.405 335.953C364.942 336.999 364.201 339.403 362.342 339.403L236.887 339.357Z" stroke="#5D5FEF" stroke-width="0.942164"></path></g></g><defs><filter id="filter0_dd_32419_93654" x="18.5556" y="104.963" width="418.889" height="249.186" filterUnits="userSpaceOnUse" color-interpolation-filters="sRGB"><feFlood flood-opacity="0" result="BackgroundImageFix"></feFlood><feColorMatrix in="SourceAlpha" type="matrix" values="0 0 0 0 0 0 0 0 0 0 0 0 0 0 0 0 0 0 127 0" result="hardAlpha"></feColorMatrix><feOffset dy="4.81482"></feOffset><feGaussianBlur stdDeviation="6.01852"></feGaussianBlur><feColorMatrix type="matrix" values="0 0 0 0 0.607843 0 0 0 0 0.67451 0 0 0 0 0.737255 0 0 0 0.35 0"></feColorMatrix><feBlend mode="normal" in2="BackgroundImageFix" result="effect1_dropShadow_32419_93654"></feBlend><feColorMatrix in="SourceAlpha" type="matrix" values="0 0 0 0 0 0 0 0 0 0 0 0 0 0 0 0 0 0 127 0" result="hardAlpha"></feColorMatrix><feOffset dy="2.40741"></feOffset><feGaussianBlur stdDeviation="7.22222"></feGaussianBlur><feColorMatrix type="matrix" values="0 0 0 0 0.89625 0 0 0 0 0.930414 0 0 0 0 0.995833 0 0 0 0.5 0"></feColorMatrix><feBlend mode="normal" in2="effect1_dropShadow_32419_93654" result="effect2_dropShadow_32419_93654"></feBlend><feBlend mode="normal" in="SourceGraphic" in2="effect2_dropShadow_32419_93654" result="shape"></feBlend></filter><filter id="filter1_d_32419_93654" x="26.9815" y="110.981" width="414.074" height="244.371" filterUnits="userSpaceOnUse" color-interpolation-filters="sRGB"><feFlood flood-opacity="0" result="BackgroundImageFix"></feFlood><feColorMatrix in="SourceAlpha" type="matrix" values="0 0 0 0 0 0 0 0 0 0 0 0 0 0 0 0 0 0 127 0" result="hardAlpha"></feColorMatrix><feOffset dx="6.01852" dy="6.01852"></feOffset><feGaussianBlur stdDeviation="6.01852"></feGaussianBlur><feColorMatrix type="matrix" values="0 0 0 0 0.0941177 0 0 0 0 0.188235 0 0 0 0 0.247059 0 0 0 0.05 0"></feColorMatrix><feBlend mode="normal" in2="BackgroundImageFix" result="effect1_dropShadow_32419_93654"></feBlend><feBlend mode="normal" in="SourceGraphic" in2="effect1_dropShadow_32419_93654" result="shape"></feBlend></filter><filter id="filter2_dd_32419_93654" x="0.69403" y="251.414" width="223.122" height="112.932" filterUnits="userSpaceOnUse" color-interpolation-filters="sRGB"><feFlood flood-opacity="0" result="BackgroundImageFix"></feFlood><feColorMatrix in="SourceAlpha" type="matrix" values="0 0 0 0 0 0 0 0 0 0 0 0 0 0 0 0 0 0 127 0" result="hardAlpha"></feColorMatrix><feOffset dy="3.76866"></feOffset><feGaussianBlur stdDeviation="4.71082"></feGaussianBlur><feColorMatrix type="matrix" values="0 0 0 0 0.607843 0 0 0 0 0.67451 0 0 0 0 0.737255 0 0 0 0.35 0"></feColorMatrix><feBlend mode="normal" in2="BackgroundImageFix" result="effect1_dropShadow_32419_93654"></feBlend><feColorMatrix in="SourceAlpha" type="matrix" values="0 0 0 0 0 0 0 0 0 0 0 0 0 0 0 0 0 0 127 0" result="hardAlpha"></feColorMatrix><feOffset dy="1.88433"></feOffset><feGaussianBlur stdDeviation="5.65299"></feGaussianBlur><feColorMatrix type="matrix" values="0 0 0 0 0.89625 0 0 0 0 0.930414 0 0 0 0 0.995833 0 0 0 0.5 0"></feColorMatrix><feBlend mode="normal" in2="effect1_dropShadow_32419_93654" result="effect2_dropShadow_32419_93654"></feBlend><feBlend mode="normal" in="SourceGraphic" in2="effect2_dropShadow_32419_93654" result="shape"></feBlend></filter><filter id="filter3_dd_32419_93654" x="221.694" y="127.578" width="232.612" height="157.612" filterUnits="userSpaceOnUse" color-interpolation-filters="sRGB"><feFlood flood-opacity="0" result="BackgroundImageFix"></feFlood><feColorMatrix in="SourceAlpha" type="matrix" values="0 0 0 0 0 0 0 0 0 0 0 0 0 0 0 0 0 0 127 0" result="hardAlpha"></feColorMatrix><feOffset dy="3.76866"></feOffset><feGaussianBlur stdDeviation="4.71082"></feGaussianBlur><feColorMatrix type="matrix" values="0 0 0 0 0.607843 0 0 0 0 0.67451 0 0 0 0 0.737255 0 0 0 0.35 0"></feColorMatrix><feBlend mode="normal" in2="BackgroundImageFix" result="effect1_dropShadow_32419_93654"></feBlend><feColorMatrix in="SourceAlpha" type="matrix" values="0 0 0 0 0 0 0 0 0 0 0 0 0 0 0 0 0 0 127 0" result="hardAlpha"></feColorMatrix><feOffset dy="1.88433"></feOffset><feGaussianBlur stdDeviation="5.65299"></feGaussianBlur><feColorMatrix type="matrix" values="0 0 0 0 0.89625 0 0 0 0 0.930414 0 0 0 0 0.995833 0 0 0 0.5 0"></feColorMatrix><feBlend mode="normal" in2="effect1_dropShadow_32419_93654" result="effect2_dropShadow_32419_93654"></feBlend><feBlend mode="normal" in="SourceGraphic" in2="effect2_dropShadow_32419_93654" result="shape"></feBlend></filter><filter id="filter4_d_32419_93654" x="228.289" y="132.289" width="228.843" height="153.843" filterUnits="userSpaceOnUse" color-interpolation-filters="sRGB"><feFlood flood-opacity="0" result="BackgroundImageFix"></feFlood><feColorMatrix in="SourceAlpha" type="matrix" values="0 0 0 0 0 0 0 0 0 0 0 0 0 0 0 0 0 0 127 0" result="hardAlpha"></feColorMatrix><feOffset dx="4.71082" dy="4.71082"></feOffset><feGaussianBlur stdDeviation="4.71082"></feGaussianBlur><feColorMatrix type="matrix" values="0 0 0 0 0.0941177 0 0 0 0 0.188235 0 0 0 0 0.247059 0 0 0 0.05 0"></feColorMatrix><feBlend mode="normal" in2="BackgroundImageFix" result="effect1_dropShadow_32419_93654"></feBlend><feBlend mode="normal" in="SourceGraphic" in2="effect1_dropShadow_32419_93654" result="shape"></feBlend></filter><filter id="filter5_dd_32419_93654" x="0.69403" y="128.578" width="224.025" height="127.697" filterUnits="userSpaceOnUse" color-interpolation-filters="sRGB"><feFlood flood-opacity="0" result="BackgroundImageFix"></feFlood><feColorMatrix in="SourceAlpha" type="matrix" values="0 0 0 0 0 0 0 0 0 0 0 0 0 0 0 0 0 0 127 0" result="hardAlpha"></feColorMatrix><feOffset dy="3.76866"></feOffset><feGaussianBlur stdDeviation="4.71082"></feGaussianBlur><feColorMatrix type="matrix" values="0 0 0 0 0.607843 0 0 0 0 0.67451 0 0 0 0 0.737255 0 0 0 0.35 0"></feColorMatrix><feBlend mode="normal" in2="BackgroundImageFix" result="effect1_dropShadow_32419_93654"></feBlend><feColorMatrix in="SourceAlpha" type="matrix" values="0 0 0 0 0 0 0 0 0 0 0 0 0 0 0 0 0 0 127 0" result="hardAlpha"></feColorMatrix><feOffset dy="1.88433"></feOffset><feGaussianBlur stdDeviation="5.65299"></feGaussianBlur><feColorMatrix type="matrix" values="0 0 0 0 0.89625 0 0 0 0 0.930414 0 0 0 0 0.995833 0 0 0 0.5 0"></feColorMatrix><feBlend mode="normal" in2="effect1_dropShadow_32419_93654" result="effect2_dropShadow_32419_93654"></feBlend><feBlend mode="normal" in="SourceGraphic" in2="effect2_dropShadow_32419_93654" result="shape"></feBlend></filter><filter id="filter6_dd_32419_93654" x="221.694" y="276.578" width="232.612" height="87.6422" filterUnits="userSpaceOnUse" color-interpolation-filters="sRGB"><feFlood flood-opacity="0" result="BackgroundImageFix"></feFlood><feColorMatrix in="SourceAlpha" type="matrix" values="0 0 0 0 0 0 0 0 0 0 0 0 0 0 0 0 0 0 127 0" result="hardAlpha"></feColorMatrix><feOffset dy="3.76866"></feOffset><feGaussianBlur stdDeviation="4.71082"></feGaussianBlur><feColorMatrix type="matrix" values="0 0 0 0 0.607843 0 0 0 0 0.67451 0 0 0 0 0.737255 0 0 0 0.35 0"></feColorMatrix><feBlend mode="normal" in2="BackgroundImageFix" result="effect1_dropShadow_32419_93654"></feBlend><feColorMatrix in="SourceAlpha" type="matrix" values="0 0 0 0 0 0 0 0 0 0 0 0 0 0 0 0 0 0 127 0" result="hardAlpha"></feColorMatrix><feOffset dy="1.88433"></feOffset><feGaussianBlur stdDeviation="5.65299"></feGaussianBlur><feColorMatrix type="matrix" values="0 0 0 0 0.89625 0 0 0 0 0.930414 0 0 0 0 0.995833 0 0 0 0.5 0"></feColorMatrix><feBlend mode="normal" in2="effect1_dropShadow_32419_93654" result="effect2_dropShadow_32419_93654"></feBlend><feBlend mode="normal" in="SourceGraphic" in2="effect2_dropShadow_32419_93654" result="shape"></feBlend></filter><clipPath id="clip0_32419_93654"><rect width="90.8828" height="90.8828" fill="white" transform="translate(251.193 164.991)"></rect></clipPath></defs></svg>