<svg xmlns="http://www.w3.org/2000/svg" width="450" height="450" viewBox="0 0 450 450" fill="none"><circle cx="225.495" cy="225.495" r="189.495" fill="#F5F8FF"></circle><path d="M420 114C420 109.582 416.418 106 412 106H38C33.5817 106 30 109.582 30 114V123H420V114Z" fill="#091B36"></path><path d="M51.7243 114.654C51.7256 115.18 51.5708 115.695 51.2794 116.133C50.9881 116.572 50.5734 116.914 50.0877 117.116C49.6021 117.318 49.0674 117.372 48.5513 117.27C48.0352 117.168 47.5609 116.915 47.1885 116.543C46.8161 116.172 46.5622 115.698 46.4591 115.181C46.356 114.665 46.4083 114.13 46.6093 113.644C46.8104 113.157 47.1511 112.741 47.5884 112.449C48.0257 112.156 48.5399 112 49.066 112C49.7683 112.005 50.4406 112.286 50.9379 112.782C51.4352 113.279 51.7176 113.951 51.7243 114.654Z" fill="#F66058"></path><path d="M64.1319 114.654C64.1331 115.18 63.9781 115.696 63.6865 116.134C63.3949 116.572 62.9798 116.914 62.4938 117.116C62.0078 117.319 61.4727 117.372 60.9565 117.269C60.4402 117.167 59.9659 116.913 59.5938 116.541C59.2216 116.169 58.9683 115.694 58.8659 115.177C58.7636 114.661 58.8167 114.126 59.0187 113.639C59.2207 113.153 59.5625 112.737 60.0006 112.446C60.4388 112.154 60.9536 111.999 61.4799 112C61.8287 111.998 62.1743 112.066 62.4968 112.199C62.8193 112.331 63.1123 112.527 63.3589 112.773C63.6055 113.02 63.8008 113.313 63.9335 113.636C64.0661 113.959 64.1336 114.305 64.1319 114.654Z" fill="#F9BD2E"></path><path d="M76.5364 114.654C76.5376 115.18 76.3828 115.695 76.0915 116.133C75.8001 116.572 75.3854 116.914 74.8997 117.116C74.4141 117.318 73.8794 117.372 73.3633 117.27C72.8472 117.168 72.3729 116.915 72.0005 116.543C71.6281 116.172 71.3743 115.698 71.2712 115.181C71.1681 114.665 71.2203 114.13 71.4213 113.644C71.6224 113.157 71.9631 112.741 72.4004 112.449C72.8377 112.156 73.3519 112 73.878 112C74.5804 112.005 75.2527 112.286 75.75 112.782C76.2472 113.279 76.5297 113.951 76.5364 114.654Z" fill="#3CC840"></path><g filter="url(#filter0_dd_32419_93662)"><g filter="url(#filter1_d_32419_93662)"><path d="M30 124H420V331.056C420 338.369 414.072 344.297 406.759 344.297H43.2407C35.9281 344.297 30 338.369 30 331.056V124Z" fill="white"></path></g></g><path d="M63.544 297.228H56.4816V302.166H63.544V297.228Z" fill="#B8C4D0"></path><path d="M63.544 267.964H56.4816V272.902H63.544V267.964Z" fill="#B8C4D0"></path><path d="M63.544 238.699H56.4816V243.637H63.544V238.699Z" fill="#B8C4D0"></path><path d="M63.544 209.436H56.4816V214.374H63.544V209.436Z" fill="#B8C4D0"></path><path d="M63.5438 180.167H56.4814V185.105H63.5438V180.167Z" fill="#B8C4D0"></path><path d="M97.6287 318.862H86.6082V323.689H97.6287V318.862Z" fill="#B8C4D0"></path><path d="M143.525 318.862H132.505V323.689H143.525V318.862Z" fill="#B8C4D0"></path><path d="M189.418 318.862H178.397V323.689H189.418V318.862Z" fill="#B8C4D0"></path><path d="M235.31 318.862H224.289V323.689H235.31V318.862Z" fill="#B8C4D0"></path><path d="M281.202 318.862H270.182V323.689H281.202V318.862Z" fill="#B8C4D0"></path><path d="M327.099 318.862H316.078V323.689H327.099V318.862Z" fill="#B8C4D0"></path><path d="M372.991 318.862H361.971V323.689H372.991V318.862Z" fill="#B8C4D0"></path><path d="M383.012 182.009H75.9436V183.268H383.012V182.009Z" fill="#B8C4D0"></path><path d="M383.012 211.274H75.9437V212.533H383.012V211.274Z" fill="#B8C4D0"></path><path d="M383.012 240.538H75.9437V241.797H383.012V240.538Z" fill="#B8C4D0"></path><path d="M383.012 269.802H75.9437V271.061H383.012V269.802Z" fill="#B8C4D0"></path><path d="M383.012 299.066H75.9437V300.325H383.012V299.066Z" fill="#B8C4D0"></path><path d="M57.1847 144.153V156H64.6365V154.146H59.4168V150.78H64.2073V148.943H59.4168V146.007H64.4992V144.153H57.1847ZM72.011 155.038L72.0454 156H74.1573V151.244C74.1573 149.836 73.8482 149.08 73.2473 148.497C72.6291 147.913 71.7878 147.535 70.3112 147.535C68.8689 147.535 67.7014 148.033 67.0661 148.411L67.7357 149.819C68.0963 149.544 69.0063 149.132 70.1052 149.132C71.2555 149.132 71.9595 149.63 71.9595 150.694V150.918L69.9678 151.055C68.2508 151.175 66.551 151.845 66.551 153.579C66.551 155.313 67.8559 156.189 69.4699 156.189C70.7061 156.189 71.6676 155.639 72.011 155.038ZM70.4829 152.343L71.9767 152.257V153.785C71.6848 154.197 71.0495 154.695 70.191 154.695C69.281 154.695 68.7487 154.214 68.7487 153.51C68.7487 152.806 69.3153 152.411 70.4829 152.343ZM76.5546 147.69V156H78.7352V151.914C78.7352 151.278 78.8382 150.712 79.0443 150.3C79.3533 149.767 79.8513 149.493 80.5037 149.493C80.7956 149.493 81.1734 149.527 81.4137 149.596H81.5168L81.6713 147.69C81.6713 147.69 81.3622 147.535 80.7956 147.535C79.9028 147.535 79.0786 148.136 78.7524 149.029H78.7009L78.7352 147.69H76.5546ZM88.7853 151.553V156H90.9831V151.072C90.9831 149.08 90.3821 147.535 87.9955 147.535C86.7936 147.535 85.9523 148.067 85.5058 148.943H85.4543L85.4715 147.69H83.2737V156H85.4715V151.862C85.4715 150.471 85.9351 149.338 87.2915 149.338C88.5621 149.338 88.7853 150.317 88.7853 151.553ZM94.6481 146.368C95.4207 146.368 95.9701 145.87 95.9701 145.149C95.9701 144.445 95.4207 143.929 94.6481 143.929C93.8754 143.929 93.326 144.445 93.326 145.149C93.326 145.87 93.8754 146.368 94.6481 146.368ZM93.5492 147.69V156H95.7469V147.69H93.5492ZM103.867 151.553V156H106.065V151.072C106.065 149.08 105.464 147.535 103.077 147.535C101.875 147.535 101.034 148.067 100.587 148.943H100.536L100.553 147.69H98.3552V156H100.553V151.862C100.553 150.471 101.017 149.338 102.373 149.338C103.644 149.338 103.867 150.317 103.867 151.553ZM114.76 154.42H114.795V154.832C114.795 155.76 114.537 156.446 114.228 156.807C113.919 157.168 113.301 157.545 112.116 157.545C111.052 157.545 109.695 156.944 109.163 156.567L108.253 158.095C108.665 158.387 110.142 159.331 112.116 159.331C114.108 159.331 115.172 158.627 115.894 157.872C116.597 157.133 116.975 156.103 116.975 154.283V147.69H114.795L114.812 148.84H114.777C114.194 147.947 113.249 147.535 112.133 147.535C109.661 147.535 108.047 149.441 108.047 151.742C108.047 154.386 109.833 155.725 111.927 155.725C113.198 155.725 114.194 155.279 114.76 154.42ZM114.915 151.69C114.915 152.961 114.125 154.008 112.545 154.008C111.103 154.008 110.279 152.961 110.279 151.69C110.279 150.334 111.137 149.269 112.58 149.269C114.022 149.269 114.915 150.488 114.915 151.69ZM124.347 149.887L125.292 148.428C124.605 147.93 123.781 147.535 122.304 147.535C120.707 147.535 119.334 148.514 119.334 150.025C119.334 151.244 119.969 151.982 121.205 152.394L122.167 152.721C123.231 153.081 123.557 153.321 123.557 153.751C123.557 154.231 123.18 154.541 122.355 154.541C121.652 154.541 120.81 154.163 119.831 153.407L118.939 154.901C119.608 155.674 121.033 156.189 122.304 156.189C124.347 156.189 125.601 155.021 125.601 153.442C125.601 152.24 124.948 151.587 123.111 150.986L122.527 150.797C121.6 150.506 121.325 150.214 121.325 149.853C121.325 149.458 121.686 149.184 122.407 149.184C123.162 149.184 123.866 149.527 124.347 149.887Z" fill="#B8C4D0"></path><path d="M363.507 57.8499C365.055 55.2238 368.853 55.2238 370.4 57.8499L385.052 82.7196C386.623 85.3861 384.7 88.75 381.605 88.75H352.302C349.207 88.75 347.285 85.3861 348.856 82.7196L363.507 57.8499Z" fill="#3D7FFC"></path><path d="M96.6979 269.419H87.4474C84.9912 269.419 83 271.411 83 273.868V300.591C83 303.048 84.9912 305.04 87.4474 305.04H96.6979C99.1541 305.04 101.145 303.048 101.145 300.591V273.868C101.145 271.411 99.1541 269.419 96.6979 269.419Z" fill="#3D7FFC"></path><path d="M142.595 256.165H133.344C130.888 256.165 128.897 258.156 128.897 260.613V300.591C128.897 303.048 130.888 305.04 133.344 305.04H142.595C145.051 305.04 147.042 303.048 147.042 300.591V260.613C147.042 258.156 145.051 256.165 142.595 256.165Z" fill="#3D7FFC"></path><path d="M188.487 246.76H179.236C176.78 246.76 174.789 248.752 174.789 251.209V300.592C174.789 303.049 176.78 305.041 179.236 305.041H188.487C190.943 305.041 192.934 303.049 192.934 300.592V251.209C192.934 248.752 190.943 246.76 188.487 246.76Z" fill="#3D7FFC"></path><path d="M234.379 219.847H225.129C222.672 219.847 220.681 221.838 220.681 224.295V300.592C220.681 303.049 222.672 305.041 225.129 305.041H234.379C236.835 305.041 238.827 303.049 238.827 300.592V224.295C238.827 221.838 236.835 219.847 234.379 219.847Z" fill="#3D7FFC"></path><path d="M280.271 193.546H271.021C268.565 193.546 266.574 195.538 266.574 197.995V300.591C266.574 303.048 268.565 305.04 271.021 305.04H280.271C282.728 305.04 284.719 303.048 284.719 300.591V197.995C284.719 195.538 282.728 193.546 280.271 193.546Z" fill="#3D7FFC"></path><path d="M326.168 140.882H316.918C314.462 140.882 312.47 142.874 312.47 145.331V300.593C312.47 303.05 314.462 305.041 316.918 305.041H326.168C328.625 305.041 330.616 303.05 330.616 300.593V145.331C330.616 142.874 328.625 140.882 326.168 140.882Z" fill="#3D7FFC"></path><path d="M371.542 77H362.366C359.929 77 357.954 79.3165 357.954 82.174V299.826C357.954 302.684 359.929 305 362.366 305H371.542C373.979 305 375.954 302.684 375.954 299.826V82.174C375.954 79.3165 373.979 77 371.542 77Z" fill="#3D7FFC"></path><defs><filter id="filter0_dd_32419_93662" x="15.5556" y="111.963" width="418.889" height="249.186" filterUnits="userSpaceOnUse" color-interpolation-filters="sRGB"><feFlood flood-opacity="0" result="BackgroundImageFix"></feFlood><feColorMatrix in="SourceAlpha" type="matrix" values="0 0 0 0 0 0 0 0 0 0 0 0 0 0 0 0 0 0 127 0" result="hardAlpha"></feColorMatrix><feOffset dy="4.81482"></feOffset><feGaussianBlur stdDeviation="6.01852"></feGaussianBlur><feColorMatrix type="matrix" values="0 0 0 0 0.607843 0 0 0 0 0.67451 0 0 0 0 0.737255 0 0 0 0.35 0"></feColorMatrix><feBlend mode="normal" in2="BackgroundImageFix" result="effect1_dropShadow_32419_93662"></feBlend><feColorMatrix in="SourceAlpha" type="matrix" values="0 0 0 0 0 0 0 0 0 0 0 0 0 0 0 0 0 0 127 0" result="hardAlpha"></feColorMatrix><feOffset dy="2.40741"></feOffset><feGaussianBlur stdDeviation="7.22222"></feGaussianBlur><feColorMatrix type="matrix" values="0 0 0 0 0.89625 0 0 0 0 0.930414 0 0 0 0 0.995833 0 0 0 0.5 0"></feColorMatrix><feBlend mode="normal" in2="effect1_dropShadow_32419_93662" result="effect2_dropShadow_32419_93662"></feBlend><feBlend mode="normal" in="SourceGraphic" in2="effect2_dropShadow_32419_93662" result="shape"></feBlend></filter><filter id="filter1_d_32419_93662" x="23.9815" y="117.981" width="414.074" height="244.371" filterUnits="userSpaceOnUse" color-interpolation-filters="sRGB"><feFlood flood-opacity="0" result="BackgroundImageFix"></feFlood><feColorMatrix in="SourceAlpha" type="matrix" values="0 0 0 0 0 0 0 0 0 0 0 0 0 0 0 0 0 0 127 0" result="hardAlpha"></feColorMatrix><feOffset dx="6.01852" dy="6.01852"></feOffset><feGaussianBlur stdDeviation="6.01852"></feGaussianBlur><feColorMatrix type="matrix" values="0 0 0 0 0.0941177 0 0 0 0 0.188235 0 0 0 0 0.247059 0 0 0 0.05 0"></feColorMatrix><feBlend mode="normal" in2="BackgroundImageFix" result="effect1_dropShadow_32419_93662"></feBlend><feBlend mode="normal" in="SourceGraphic" in2="effect1_dropShadow_32419_93662" result="shape"></feBlend></filter></defs></svg>