<svg xmlns="http://www.w3.org/2000/svg" width="450" height="450" viewBox="0 0 450 450" fill="none"><circle cx="225.495" cy="228.495" r="189.495" fill="#F5F8FF"></circle><g filter="url(#filter0_dd_32419_93656)"><path d="M382.772 99H67.2282C59.3702 99 53 105.121 53 112.672V353.328C53 360.879 59.3702 367 67.2282 367H382.772C390.63 367 397 360.879 397 353.328V112.672C397 105.121 390.63 99 382.772 99Z" fill="white"></path><path d="M89.5713 141.007C89.6337 141.156 89.6945 141.305 89.7554 141.458C89.8162 141.298 89.8786 141.144 89.9425 140.994C90.0079 140.845 90.0763 140.702 90.1493 140.563L92.9131 135.37C92.9481 135.304 92.9846 135.253 93.0226 135.214C93.0622 135.175 93.1033 135.147 93.1489 135.131C93.1945 135.114 93.2447 135.103 93.301 135.099C93.3573 135.094 93.4242 135.093 93.5018 135.093H94.816V144.468H93.2812V138.412C93.2812 138.299 93.2843 138.176 93.2904 138.042C93.2964 137.908 93.3071 137.772 93.3193 137.634L90.49 142.951C90.3562 143.205 90.1508 143.333 89.8755 143.333H89.6291C89.3523 143.333 89.1485 143.205 89.0146 142.951L86.1534 137.614C86.1671 137.757 86.1778 137.896 86.1854 138.033C86.1945 138.168 86.1991 138.295 86.1991 138.412V144.468H84.6643V135.093H85.9785C86.0561 135.093 86.123 135.094 86.1793 135.099C86.2356 135.103 86.2858 135.114 86.3314 135.131C86.377 135.147 86.4181 135.176 86.4546 135.214C86.4911 135.254 86.5261 135.306 86.5611 135.37L89.3644 140.577C89.4375 140.716 89.5059 140.859 89.5683 141.008L89.5713 141.007Z" fill="#62788A"></path><path d="M137.295 135.089V136.523H134.472V144.466H132.73V136.523H129.907V135.089H137.294H137.295Z" fill="#62788A"></path><path d="M228.56 135.089V136.523H225.737V144.466H223.995V136.523H221.172V135.089H228.559H228.56Z" fill="#62788A"></path><path d="M274.471 135.089V136.477H270.315V139.253H273.824V140.647H270.315V144.466H268.568V135.091H274.471V135.089Z" fill="#62788A"></path><path d="M317.206 136.796C317.154 136.887 317.099 136.953 317.04 136.994C316.982 137.035 316.909 137.055 316.822 137.055C316.731 137.055 316.634 137.021 316.527 136.954C316.421 136.887 316.294 136.812 316.148 136.73C316.001 136.648 315.831 136.573 315.634 136.506C315.438 136.439 315.205 136.406 314.938 136.406C314.696 136.406 314.484 136.435 314.303 136.492C314.122 136.55 313.97 136.633 313.847 136.736C313.724 136.84 313.633 136.965 313.572 137.109C313.511 137.254 313.48 137.413 313.48 137.586C313.48 137.807 313.541 137.99 313.665 138.138C313.788 138.284 313.95 138.411 314.153 138.514C314.355 138.618 314.586 138.711 314.845 138.793C315.103 138.875 315.37 138.962 315.64 139.055C315.913 139.148 316.177 139.256 316.437 139.379C316.696 139.503 316.927 139.658 317.13 139.846C317.332 140.033 317.495 140.265 317.618 140.536C317.741 140.807 317.802 141.139 317.802 141.528C317.802 141.951 317.73 142.347 317.584 142.717C317.44 143.088 317.228 143.409 316.95 143.683C316.672 143.957 316.332 144.174 315.931 144.332C315.529 144.491 315.07 144.568 314.553 144.568C314.255 144.568 313.961 144.539 313.672 144.482C313.383 144.424 313.106 144.34 312.84 144.232C312.574 144.124 312.326 143.994 312.092 143.843C311.859 143.692 311.652 143.523 311.47 143.337L311.981 142.501C312.023 142.44 312.08 142.39 312.15 142.349C312.218 142.308 312.293 142.288 312.37 142.288C312.478 142.288 312.594 142.332 312.72 142.42C312.845 142.509 312.994 142.608 313.167 142.716C313.339 142.824 313.541 142.923 313.773 143.011C314.004 143.1 314.281 143.144 314.605 143.144C315.1 143.144 315.485 143.027 315.758 142.791C316.03 142.554 316.165 142.216 316.165 141.776C316.165 141.529 316.104 141.328 315.981 141.173C315.858 141.017 315.695 140.886 315.493 140.781C315.291 140.676 315.059 140.586 314.801 140.511C314.542 140.438 314.279 140.358 314.011 140.272C313.744 140.185 313.48 140.082 313.222 139.961C312.963 139.841 312.732 139.683 312.53 139.488C312.327 139.293 312.163 139.05 312.042 138.758C311.918 138.465 311.857 138.106 311.857 137.678C311.857 137.336 311.926 137.003 312.061 136.68C312.197 136.355 312.394 136.069 312.653 135.818C312.912 135.566 313.231 135.367 313.611 135.214C313.992 135.063 314.427 134.987 314.919 134.987C315.472 134.987 315.981 135.074 316.447 135.246C316.912 135.42 317.309 135.661 317.638 135.973L317.204 136.796H317.206Z" fill="#62788A"></path><path d="M361.317 136.796C361.265 136.887 361.21 136.953 361.151 136.994C361.093 137.035 361.02 137.055 360.934 137.055C360.842 137.055 360.745 137.021 360.639 136.954C360.532 136.887 360.406 136.812 360.26 136.73C360.112 136.648 359.942 136.573 359.746 136.506C359.549 136.439 359.317 136.406 359.049 136.406C358.807 136.406 358.596 136.435 358.415 136.492C358.234 136.55 358.082 136.633 357.958 136.736C357.835 136.84 357.744 136.965 357.683 137.109C357.622 137.254 357.592 137.413 357.592 137.586C357.592 137.807 357.653 137.99 357.776 138.138C357.899 138.284 358.062 138.411 358.264 138.514C358.466 138.618 358.698 138.711 358.956 138.793C359.215 138.875 359.481 138.962 359.752 139.055C360.024 139.148 360.289 139.256 360.549 139.379C360.807 139.503 361.039 139.658 361.241 139.846C361.443 140.033 361.606 140.265 361.729 140.536C361.852 140.807 361.913 141.139 361.913 141.528C361.913 141.951 361.842 142.347 361.696 142.717C361.551 143.088 361.34 143.409 361.061 143.683C360.783 143.957 360.444 144.174 360.042 144.332C359.641 144.491 359.181 144.568 358.664 144.568C358.366 144.568 358.072 144.539 357.783 144.482C357.494 144.424 357.218 144.34 356.951 144.232C356.685 144.124 356.437 143.994 356.203 143.843C355.97 143.692 355.763 143.523 355.581 143.337L356.092 142.501C356.135 142.44 356.191 142.39 356.261 142.349C356.329 142.308 356.404 142.288 356.481 142.288C356.589 142.288 356.705 142.332 356.831 142.42C356.956 142.509 357.105 142.608 357.278 142.716C357.45 142.824 357.653 142.923 357.884 143.011C358.115 143.1 358.392 143.144 358.716 143.144C359.212 143.144 359.597 143.027 359.869 142.791C360.141 142.554 360.277 142.216 360.277 141.776C360.277 141.529 360.216 141.328 360.092 141.173C359.969 141.017 359.806 140.886 359.604 140.781C359.402 140.676 359.171 140.586 358.912 140.511C358.654 140.438 358.39 140.358 358.123 140.272C357.855 140.185 357.592 140.082 357.333 139.961C357.075 139.841 356.843 139.683 356.641 139.488C356.439 139.293 356.275 139.05 356.153 138.758C356.03 138.465 355.969 138.106 355.969 137.678C355.969 137.336 356.037 137.003 356.173 136.68C356.308 136.355 356.506 136.069 356.764 135.818C357.023 135.566 357.342 135.367 357.723 135.214C358.103 135.063 358.538 134.987 359.031 134.987C359.583 134.987 360.092 135.074 360.558 135.246C361.023 135.42 361.42 135.661 361.749 135.973L361.315 136.796H361.317Z" fill="#62788A"></path><path d="M173.024 135.089H174.481C174.632 135.089 174.758 135.125 174.86 135.196C174.962 135.268 175.029 135.364 175.064 135.484L176.656 141.092C176.691 141.231 176.725 141.38 176.757 141.543C176.789 141.704 176.822 141.877 176.857 142.058C176.892 141.877 176.929 141.704 176.971 141.543C177.012 141.381 177.056 141.231 177.103 141.092L178.942 135.484C178.977 135.385 179.044 135.294 179.146 135.211C179.248 135.129 179.371 135.088 179.519 135.088H180.03C180.181 135.088 180.304 135.125 180.4 135.198C180.494 135.271 180.565 135.367 180.613 135.483L182.444 141.09C182.535 141.359 182.616 141.668 182.69 142.018C182.747 141.677 182.809 141.368 182.877 141.09L184.47 135.483C184.496 135.374 184.561 135.281 184.668 135.204C184.774 135.126 184.901 135.086 185.047 135.086H186.412L183.506 144.462H181.933L179.887 138.056C179.857 137.973 179.829 137.885 179.803 137.789C179.778 137.695 179.752 137.594 179.726 137.49C179.705 137.594 179.679 137.693 179.651 137.789C179.624 137.884 179.597 137.973 179.571 138.056L177.505 144.462H175.926L173.025 135.086L173.024 135.089Z" fill="#62788A"></path><path d="M385 162H69V350H385V162Z" fill="#F5F8FF"></path><path d="M86.1465 193.686H88.0433V188.22C88.0433 188.008 88.0494 187.785 88.0631 187.552L86.7169 188.681C86.6393 188.742 86.5633 188.78 86.4872 188.794C86.4112 188.809 86.3412 188.811 86.2727 188.797C86.2058 188.785 86.1465 188.762 86.0948 188.728C86.0431 188.696 86.0035 188.66 85.9777 188.622L85.4727 187.929L88.3277 185.497H89.6419V193.686H91.3258V194.885H86.1465V193.686Z" fill="#62788A"></path><path d="M138.025 185.406C138.457 185.406 138.85 185.47 139.209 185.598C139.567 185.726 139.874 185.905 140.128 186.139C140.382 186.372 140.581 186.653 140.724 186.981C140.867 187.31 140.937 187.674 140.937 188.076C140.937 188.422 140.887 188.742 140.785 189.036C140.683 189.33 140.548 189.611 140.378 189.879C140.207 190.147 140.008 190.406 139.778 190.657C139.55 190.909 139.31 191.163 139.06 191.422L136.943 193.581C137.15 193.52 137.354 193.474 137.555 193.442C137.755 193.41 137.945 193.393 138.128 193.393H140.53C140.702 193.393 140.84 193.442 140.94 193.54C141.042 193.637 141.093 193.765 141.093 193.925V194.885H134.671V194.353C134.671 194.245 134.693 194.132 134.739 194.013C134.785 193.895 134.856 193.788 134.956 193.692L137.798 190.838C138.035 190.596 138.248 190.365 138.435 190.145C138.622 189.924 138.779 189.707 138.904 189.49C139.028 189.274 139.124 189.054 139.191 188.832C139.258 188.61 139.292 188.375 139.292 188.128C139.292 187.904 139.26 187.706 139.194 187.536C139.129 187.365 139.038 187.222 138.919 187.104C138.8 186.987 138.657 186.9 138.491 186.842C138.326 186.784 138.139 186.756 137.932 186.756C137.742 186.756 137.567 186.783 137.404 186.836C137.243 186.891 137.098 186.966 136.973 187.063C136.849 187.161 136.742 187.274 136.657 187.403C136.57 187.533 136.506 187.676 136.462 187.831C136.389 188.031 136.294 188.162 136.178 188.227C136.061 188.293 135.893 188.308 135.673 188.273L134.832 188.124C134.897 187.674 135.022 187.28 135.207 186.94C135.393 186.6 135.626 186.317 135.904 186.09C136.182 185.863 136.502 185.692 136.862 185.578C137.223 185.464 137.611 185.406 138.025 185.406Z" fill="#62788A"></path><path d="M181.663 185.406C182.095 185.406 182.484 185.467 182.831 185.59C183.178 185.713 183.474 185.884 183.721 186.102C183.967 186.32 184.156 186.576 184.287 186.87C184.419 187.164 184.484 187.482 184.484 187.823C184.484 188.122 184.451 188.384 184.384 188.611C184.317 188.838 184.22 189.036 184.093 189.204C183.966 189.373 183.811 189.514 183.628 189.632C183.444 189.749 183.237 189.845 183.003 189.923C183.564 190.099 183.982 190.371 184.259 190.733C184.536 191.096 184.673 191.553 184.673 192.101C184.673 192.568 184.586 192.98 184.414 193.34C184.241 193.699 184.008 194 183.715 194.245C183.421 194.489 183.082 194.674 182.696 194.799C182.309 194.924 181.9 194.987 181.468 194.987C180.998 194.987 180.587 194.932 180.238 194.825C179.888 194.717 179.583 194.557 179.325 194.345C179.066 194.134 178.846 193.875 178.665 193.567C178.484 193.261 178.329 192.906 178.199 192.504L178.905 192.211C179.091 192.133 179.264 192.112 179.427 192.15C179.588 192.187 179.707 192.275 179.78 192.412C179.857 192.563 179.942 192.712 180.035 192.86C180.128 193.006 180.239 193.137 180.368 193.253C180.498 193.367 180.65 193.46 180.825 193.532C181 193.603 181.208 193.639 181.45 193.639C181.722 193.639 181.959 193.594 182.162 193.506C182.364 193.418 182.534 193.302 182.67 193.159C182.805 193.015 182.907 192.857 182.974 192.682C183.041 192.507 183.074 192.331 183.074 192.153C183.074 191.929 183.05 191.724 183.003 191.541C182.956 191.356 182.857 191.201 182.705 191.07C182.554 190.94 182.337 190.838 182.054 190.765C181.771 190.692 181.392 190.656 180.917 190.656V189.514C181.31 189.51 181.635 189.473 181.896 189.405C182.154 189.336 182.361 189.24 182.513 189.117C182.667 188.993 182.773 188.846 182.834 188.672C182.895 188.5 182.925 188.309 182.925 188.101C182.925 187.66 182.802 187.325 182.556 187.095C182.309 186.867 181.982 186.751 181.572 186.751C181.381 186.751 181.206 186.778 181.047 186.832C180.887 186.887 180.744 186.961 180.616 187.059C180.488 187.156 180.382 187.269 180.295 187.398C180.209 187.528 180.145 187.671 180.101 187.826C180.028 188.026 179.932 188.157 179.813 188.223C179.694 188.288 179.527 188.303 179.311 188.268L178.47 188.119C178.535 187.67 178.66 187.275 178.846 186.935C179.031 186.596 179.264 186.312 179.542 186.085C179.821 185.858 180.14 185.688 180.501 185.573C180.861 185.459 181.248 185.401 181.663 185.401V185.406Z" fill="#62788A"></path><path d="M229.647 191.352H230.826V192.279C230.826 192.366 230.798 192.441 230.742 192.503C230.686 192.566 230.607 192.598 230.503 192.598H229.648V194.886H228.256V192.598H224.308C224.2 192.598 224.105 192.564 224.023 192.497C223.941 192.43 223.889 192.347 223.868 192.248L223.699 191.437L228.133 185.505H229.648V191.353L229.647 191.352ZM228.255 188.285C228.255 187.996 228.275 187.677 228.313 187.331L225.406 191.352H228.255V188.285Z" fill="#62788A"></path><path d="M274.992 186.19C274.992 186.419 274.92 186.605 274.779 186.748C274.636 186.891 274.394 186.961 274.053 186.961H271.483L271.146 188.919C271.569 188.832 271.954 188.789 272.299 188.789C272.791 188.789 273.226 188.862 273.6 189.01C273.976 189.158 274.29 189.36 274.544 189.619C274.799 189.878 274.992 190.183 275.121 190.53C275.25 190.878 275.316 191.254 275.316 191.655C275.316 192.151 275.229 192.605 275.054 193.017C274.879 193.428 274.636 193.779 274.325 194.071C274.015 194.364 273.647 194.589 273.221 194.749C272.795 194.909 272.333 194.988 271.832 194.988C271.539 194.988 271.26 194.958 270.997 194.897C270.734 194.836 270.486 194.755 270.257 194.653C270.025 194.551 269.812 194.435 269.616 194.303C269.42 194.17 269.244 194.031 269.088 193.884L269.58 193.203C269.683 193.056 269.818 192.982 269.987 192.982C270.095 192.982 270.205 193.017 270.317 193.085C270.43 193.154 270.558 193.23 270.702 193.312C270.847 193.395 271.017 193.471 271.213 193.539C271.41 193.608 271.645 193.643 271.922 193.643C272.216 193.643 272.474 193.596 272.699 193.5C272.923 193.405 273.11 193.271 273.259 193.101C273.408 192.93 273.521 192.727 273.595 192.491C273.671 192.255 273.709 191.999 273.709 191.723C273.709 191.213 273.562 190.814 273.265 190.527C272.97 190.24 272.532 190.096 271.954 190.096C271.51 190.096 271.054 190.179 270.588 190.343L269.592 190.058L270.369 185.506H274.992V186.187V186.19Z" fill="#62788A"></path><path d="M315.559 188.914C315.498 188.987 315.442 189.057 315.387 189.121C315.332 189.187 315.281 189.254 315.229 189.322C315.41 189.231 315.605 189.161 315.814 189.109C316.024 189.057 316.251 189.031 316.497 189.031C316.852 189.031 317.196 189.089 317.53 189.207C317.865 189.324 318.158 189.499 318.414 189.735C318.668 189.971 318.873 190.264 319.029 190.614C319.184 190.965 319.261 191.373 319.261 191.839C319.261 192.276 319.181 192.685 319.022 193.069C318.863 193.451 318.638 193.785 318.349 194.071C318.06 194.356 317.711 194.581 317.304 194.746C316.896 194.91 316.446 194.993 315.954 194.993C315.463 194.993 315.005 194.912 314.608 194.754C314.211 194.594 313.872 194.37 313.592 194.082C313.312 193.794 313.096 193.448 312.947 193.044C312.798 192.641 312.724 192.191 312.724 191.699C312.724 191.259 312.813 190.805 312.993 190.34C313.172 189.875 313.449 189.392 313.825 188.891L316.058 185.888C316.135 185.785 316.249 185.697 316.397 185.622C316.546 185.549 316.718 185.512 316.911 185.512H318.335L315.557 188.916L315.559 188.914ZM314.258 191.943C314.258 192.202 314.293 192.439 314.365 192.653C314.436 192.866 314.541 193.049 314.681 193.201C314.821 193.352 314.995 193.471 315.203 193.555C315.41 193.638 315.65 193.681 315.921 193.681C316.175 193.681 316.409 193.638 316.624 193.552C316.837 193.465 317.021 193.344 317.174 193.189C317.328 193.034 317.447 192.851 317.533 192.641C317.62 192.43 317.663 192.203 317.663 191.956C317.663 191.688 317.621 191.448 317.539 191.233C317.457 191.02 317.342 190.837 317.19 190.687C317.037 190.538 316.856 190.425 316.645 190.348C316.434 190.27 316.201 190.23 315.945 190.23C315.69 190.23 315.46 190.273 315.253 190.36C315.046 190.447 314.868 190.567 314.722 190.719C314.575 190.873 314.461 191.055 314.379 191.265C314.296 191.475 314.255 191.701 314.255 191.943H314.258Z" fill="#62788A"></path><path d="M365.038 185.509V186.202C365.038 186.41 365.017 186.577 364.973 186.705C364.93 186.833 364.886 186.94 364.843 187.027L361.296 194.341C361.223 194.492 361.12 194.621 360.986 194.726C360.852 194.833 360.673 194.885 360.449 194.885H359.29L362.909 187.72C362.986 187.574 363.065 187.438 363.144 187.315C363.225 187.191 363.313 187.074 363.414 186.961H358.94C358.841 186.961 358.755 186.925 358.682 186.851C358.609 186.778 358.572 186.691 358.572 186.592V185.509H365.04H365.038Z" fill="#62788A"></path><path d="M88.381 228.601C87.8973 228.601 87.4562 228.535 87.0576 228.406C86.6591 228.276 86.3169 228.092 86.0309 227.854C85.7465 227.616 85.5244 227.328 85.3677 226.992C85.2095 226.655 85.132 226.279 85.132 225.863C85.132 225.31 85.2673 224.842 85.5396 224.46C85.8119 224.077 86.2347 223.792 86.8082 223.607C86.3503 223.416 86.0081 223.147 85.7815 222.796C85.5548 222.446 85.4423 222.024 85.4423 221.532C85.4423 221.177 85.5137 220.846 85.6598 220.54C85.8043 220.234 86.0066 219.966 86.2652 219.739C86.5237 219.512 86.834 219.335 87.1945 219.207C87.555 219.079 87.9505 219.015 88.3825 219.015C88.8145 219.015 89.21 219.079 89.5705 219.207C89.931 219.335 90.2413 219.512 90.4999 219.739C90.7584 219.966 90.9607 220.232 91.1052 220.54C91.2497 220.848 91.3228 221.178 91.3228 221.532C91.3228 222.024 91.2087 222.446 90.979 222.796C90.7493 223.147 90.4086 223.416 89.9568 223.607C90.5303 223.792 90.9531 224.077 91.2254 224.46C91.4977 224.842 91.6331 225.31 91.6331 225.863C91.6331 226.277 91.554 226.654 91.3973 226.992C91.2391 227.328 91.0185 227.616 90.7341 227.854C90.4497 228.092 90.1074 228.276 89.7074 228.406C89.3088 228.535 88.8662 228.601 88.384 228.601H88.381ZM88.381 227.35C88.6441 227.35 88.8753 227.312 89.0731 227.237C89.2723 227.161 89.4397 227.057 89.575 226.923C89.7104 226.789 89.8138 226.629 89.8823 226.443C89.9507 226.257 89.9857 226.056 89.9857 225.84C89.9857 225.325 89.8427 224.937 89.5583 224.673C89.2739 224.409 88.8799 224.277 88.3795 224.277C87.879 224.277 87.4866 224.409 87.2006 224.673C86.9162 224.937 86.7732 225.325 86.7732 225.84C86.7732 226.056 86.8082 226.257 86.8766 226.443C86.9451 226.629 87.0485 226.789 87.1839 226.923C87.3193 227.057 87.4866 227.162 87.6859 227.237C87.8836 227.313 88.1148 227.35 88.3779 227.35H88.381ZM88.381 223.019C88.6396 223.019 88.8571 222.977 89.0351 222.895C89.2115 222.813 89.3545 222.703 89.4625 222.568C89.5705 222.432 89.6465 222.275 89.6922 222.101C89.7378 221.926 89.7606 221.746 89.7606 221.561C89.7606 221.375 89.7332 221.215 89.6769 221.055C89.6207 220.895 89.537 220.753 89.4244 220.63C89.3119 220.506 89.1704 220.409 88.997 220.334C88.8251 220.261 88.6198 220.225 88.3825 220.225C88.1452 220.225 87.9399 220.261 87.768 220.334C87.5961 220.407 87.4516 220.506 87.3375 220.63C87.2234 220.753 87.1383 220.895 87.085 221.055C87.0318 221.215 87.0044 221.384 87.0044 221.561C87.0044 221.746 87.0272 221.926 87.0729 222.101C87.1185 222.277 87.1945 222.432 87.3025 222.568C87.4105 222.703 87.5535 222.813 87.73 222.895C87.9064 222.977 88.1254 223.019 88.384 223.019H88.381Z" fill="#62788A"></path><path d="M138.438 224.859C138.511 224.767 138.581 224.679 138.645 224.592C138.71 224.505 138.773 224.42 138.832 224.333C138.616 224.472 138.379 224.577 138.12 224.647C137.862 224.719 137.589 224.754 137.305 224.754C136.981 224.754 136.665 224.697 136.353 224.585C136.042 224.472 135.766 224.303 135.524 224.076C135.282 223.849 135.087 223.568 134.938 223.233C134.789 222.898 134.715 222.507 134.715 222.057C134.715 221.638 134.792 221.245 134.947 220.877C135.102 220.509 135.32 220.186 135.601 219.911C135.881 219.633 136.219 219.416 136.611 219.256C137.004 219.096 137.437 219.016 137.912 219.016C138.386 219.016 138.822 219.093 139.203 219.243C139.585 219.394 139.911 219.606 140.181 219.879C140.451 220.151 140.657 220.477 140.803 220.858C140.948 221.239 141.021 221.655 141.021 222.109C141.021 222.398 140.997 222.673 140.946 222.932C140.896 223.191 140.826 223.441 140.737 223.681C140.647 223.922 140.536 224.155 140.406 224.385C140.277 224.614 140.133 224.841 139.973 225.066L137.83 228.127C137.757 228.23 137.646 228.319 137.5 228.389C137.354 228.46 137.186 228.495 137.001 228.495H135.531L138.438 224.857V224.859ZM139.494 221.948C139.494 221.693 139.456 221.465 139.377 221.263C139.299 221.062 139.19 220.893 139.047 220.755C138.904 220.616 138.735 220.511 138.539 220.438C138.342 220.365 138.128 220.328 137.895 220.328C137.662 220.328 137.436 220.368 137.241 220.448C137.046 220.529 136.881 220.64 136.742 220.782C136.604 220.925 136.499 221.094 136.424 221.291C136.351 221.487 136.315 221.702 136.315 221.935C136.315 222.458 136.45 222.857 136.719 223.131C136.989 223.405 137.372 223.543 137.868 223.543C138.126 223.543 138.358 223.501 138.56 223.419C138.762 223.337 138.933 223.224 139.071 223.083C139.209 222.939 139.314 222.772 139.384 222.577C139.456 222.382 139.491 222.173 139.491 221.948H139.494Z" fill="#62788A"></path><path d="M174.73 227.296H176.626V221.83C176.626 221.618 176.633 221.396 176.646 221.163L175.3 222.292C175.223 222.353 175.146 222.391 175.07 222.404C174.994 222.42 174.924 222.421 174.856 222.407C174.789 222.394 174.73 222.372 174.678 222.339C174.626 222.307 174.587 222.27 174.561 222.232L174.056 221.539L176.911 219.108H178.225V227.296H179.909V228.495H174.73V227.296Z" fill="#62788A"></path><path d="M187.904 223.808C187.904 224.624 187.817 225.334 187.642 225.937C187.467 226.541 187.225 227.039 186.917 227.432C186.608 227.825 186.243 228.118 185.823 228.311C185.402 228.503 184.948 228.599 184.46 228.599C183.972 228.599 183.52 228.503 183.103 228.311C182.686 228.119 182.324 227.827 182.019 227.432C181.713 227.039 181.473 226.541 181.301 225.937C181.129 225.334 181.042 224.624 181.042 223.808C181.042 222.991 181.129 222.275 181.301 221.675C181.473 221.075 181.713 220.576 182.019 220.183C182.324 219.79 182.686 219.498 183.103 219.304C183.52 219.112 183.972 219.016 184.46 219.016C184.948 219.016 185.402 219.112 185.823 219.304C186.244 219.496 186.608 219.79 186.917 220.183C187.225 220.576 187.467 221.075 187.642 221.675C187.817 222.275 187.904 222.987 187.904 223.808ZM186.253 223.808C186.253 223.13 186.203 222.568 186.104 222.121C186.005 221.676 185.872 221.321 185.706 221.058C185.54 220.794 185.348 220.61 185.132 220.503C184.916 220.398 184.693 220.345 184.459 220.345C184.224 220.345 184.008 220.398 183.795 220.503C183.582 220.61 183.392 220.794 183.229 221.058C183.065 221.321 182.934 221.676 182.837 222.121C182.74 222.566 182.691 223.128 182.691 223.808C182.691 224.487 182.74 225.048 182.837 225.494C182.934 225.939 183.065 226.294 183.229 226.558C183.394 226.821 183.582 227.005 183.795 227.112C184.008 227.219 184.23 227.271 184.459 227.271C184.687 227.271 184.916 227.217 185.132 227.112C185.348 227.007 185.538 226.821 185.706 226.558C185.872 226.294 186.004 225.939 186.104 225.494C186.203 225.049 186.253 224.487 186.253 223.808Z" fill="#62788A"></path><path d="M220.604 227.297H222.501V221.83C222.501 221.619 222.507 221.396 222.521 221.163L221.174 222.292C221.097 222.353 221.021 222.391 220.945 222.405C220.869 222.42 220.799 222.421 220.73 222.408C220.663 222.394 220.604 222.373 220.552 222.339C220.501 222.306 220.461 222.271 220.435 222.233L219.93 221.539L222.785 219.108H224.099V227.297H225.783V228.496H220.604V227.297Z" fill="#62788A"></path><path d="M228.114 227.297H230.01V221.83C230.01 221.619 230.016 221.396 230.03 221.163L228.684 222.292C228.606 222.353 228.53 222.391 228.454 222.405C228.378 222.42 228.308 222.421 228.24 222.408C228.173 222.394 228.114 222.373 228.062 222.339C228.01 222.306 227.971 222.271 227.945 222.233L227.44 221.539L230.295 219.108H231.609V227.297H233.293V228.496H228.114V227.297Z" fill="#62788A"></path><path d="M265.482 227.297H267.379V221.83C267.379 221.619 267.385 221.396 267.398 221.163L266.052 222.292C265.975 222.353 265.899 222.391 265.823 222.405C265.747 222.42 265.677 222.421 265.608 222.408C265.541 222.394 265.482 222.373 265.43 222.339C265.379 222.307 265.339 222.271 265.313 222.233L264.808 221.539L267.663 219.108H268.977V227.297H270.661V228.496H265.482V227.297Z" fill="#62788A"></path><path d="M275.316 219.016C275.748 219.016 276.142 219.08 276.501 219.208C276.858 219.336 277.165 219.516 277.419 219.749C277.673 219.982 277.873 220.264 278.016 220.592C278.159 220.921 278.229 221.285 278.229 221.687C278.229 222.033 278.178 222.353 278.076 222.647C277.975 222.941 277.839 223.221 277.669 223.489C277.498 223.757 277.299 224.016 277.07 224.268C276.841 224.519 276.601 224.774 276.352 225.033L274.234 227.191C274.441 227.13 274.645 227.085 274.846 227.051C275.046 227.019 275.237 227.002 275.419 227.002H277.821C277.993 227.002 278.131 227.051 278.232 227.149C278.334 227.246 278.384 227.374 278.384 227.534V228.494H271.962V227.962C271.962 227.854 271.985 227.741 272.03 227.622C272.076 227.504 272.147 227.397 272.248 227.301L275.089 224.448C275.326 224.205 275.539 223.974 275.726 223.754C275.914 223.533 276.07 223.316 276.195 223.099C276.32 222.883 276.415 222.664 276.482 222.441C276.549 222.219 276.583 221.984 276.583 221.737C276.583 221.513 276.551 221.315 276.485 221.145C276.42 220.974 276.329 220.831 276.21 220.714C276.091 220.596 275.949 220.509 275.783 220.452C275.617 220.394 275.43 220.365 275.223 220.365C275.033 220.365 274.858 220.392 274.695 220.445C274.534 220.5 274.389 220.575 274.265 220.672C274.14 220.77 274.033 220.883 273.947 221.012C273.86 221.142 273.796 221.285 273.752 221.44C273.679 221.64 273.583 221.771 273.468 221.836C273.35 221.902 273.183 221.917 272.963 221.882L272.121 221.733C272.187 221.283 272.312 220.889 272.497 220.549C272.683 220.209 272.915 219.926 273.194 219.699C273.472 219.472 273.792 219.301 274.152 219.187C274.513 219.073 274.899 219.015 275.314 219.015L275.316 219.016Z" fill="#62788A"></path><path d="M309.137 227.297H311.034V221.83C311.034 221.619 311.04 221.396 311.054 221.163L309.707 222.292C309.63 222.353 309.554 222.391 309.478 222.405C309.402 222.42 309.332 222.421 309.263 222.408C309.196 222.394 309.137 222.373 309.085 222.339C309.034 222.307 308.994 222.271 308.968 222.233L308.463 221.539L311.318 219.108H312.632V227.297H314.316V228.496H309.137V227.297Z" fill="#62788A"></path><path d="M319.016 219.016C319.448 219.016 319.838 219.077 320.185 219.201C320.531 219.324 320.828 219.495 321.074 219.713C321.321 219.93 321.509 220.186 321.64 220.48C321.773 220.774 321.838 221.093 321.838 221.434C321.838 221.733 321.805 221.995 321.738 222.222C321.671 222.449 321.573 222.647 321.446 222.814C321.318 222.984 321.163 223.125 320.98 223.243C320.796 223.36 320.589 223.456 320.355 223.535C320.916 223.712 321.335 223.983 321.611 224.346C321.888 224.708 322.025 225.165 322.025 225.714C322.025 226.18 321.938 226.593 321.767 226.952C321.593 227.312 321.36 227.612 321.067 227.857C320.773 228.101 320.434 228.287 320.048 228.412C319.661 228.537 319.252 228.599 318.82 228.599C318.35 228.599 317.939 228.544 317.59 228.438C317.24 228.329 316.936 228.169 316.677 227.958C316.418 227.746 316.198 227.487 316.017 227.179C315.836 226.873 315.681 226.518 315.551 226.116L316.257 225.825C316.443 225.747 316.616 225.726 316.779 225.764C316.94 225.8 317.059 225.889 317.132 226.026C317.209 226.177 317.295 226.326 317.387 226.474C317.48 226.62 317.591 226.751 317.72 226.867C317.85 226.981 318.002 227.074 318.177 227.146C318.352 227.217 318.56 227.252 318.802 227.252C319.074 227.252 319.311 227.208 319.514 227.12C319.716 227.031 319.886 226.916 320.022 226.772C320.157 226.629 320.259 226.471 320.326 226.296C320.393 226.12 320.426 225.945 320.426 225.767C320.426 225.543 320.402 225.337 320.355 225.154C320.308 224.97 320.209 224.815 320.057 224.684C319.906 224.554 319.689 224.452 319.406 224.379C319.123 224.306 318.744 224.269 318.27 224.269V223.128C318.662 223.124 318.987 223.087 319.248 223.019C319.506 222.95 319.713 222.854 319.865 222.731C320.019 222.607 320.125 222.459 320.186 222.286C320.247 222.114 320.277 221.923 320.277 221.714C320.277 221.274 320.154 220.939 319.908 220.709C319.661 220.48 319.334 220.365 318.924 220.365C318.733 220.365 318.559 220.392 318.399 220.445C318.239 220.5 318.096 220.575 317.968 220.672C317.841 220.77 317.734 220.883 317.647 221.012C317.561 221.142 317.497 221.285 317.453 221.44C317.38 221.64 317.284 221.771 317.165 221.836C317.047 221.902 316.879 221.917 316.663 221.882L315.822 221.733C315.888 221.283 316.012 220.889 316.198 220.549C316.383 220.209 316.616 219.926 316.894 219.699C317.173 219.472 317.492 219.301 317.853 219.187C318.213 219.073 318.601 219.015 319.015 219.015L319.016 219.016Z" fill="#62788A"></path><path d="M354.926 227.297H356.823V221.83C356.823 221.619 356.829 221.396 356.843 221.163L355.496 222.292C355.419 222.353 355.343 222.391 355.267 222.405C355.191 222.42 355.121 222.421 355.052 222.408C354.985 222.394 354.926 222.373 354.874 222.339C354.823 222.306 354.783 222.271 354.757 222.233L354.252 221.539L357.107 219.108H358.421V227.297H360.105V228.496H354.926V227.297Z" fill="#62788A"></path><path d="M366.915 224.963H368.094V225.89C368.094 225.977 368.067 226.052 368.01 226.114C367.954 226.177 367.875 226.209 367.772 226.209H366.917V228.497H365.525V226.209H361.576C361.468 226.209 361.374 226.175 361.292 226.108C361.21 226.041 361.158 225.957 361.137 225.858L360.968 225.048L365.402 219.115H366.917V224.964L366.915 224.963ZM365.523 221.896C365.523 221.606 365.543 221.288 365.581 220.942L362.674 224.963H365.523V221.896Z" fill="#62788A"></path><path d="M83.1044 259.023H85.0012V253.556C85.0012 253.345 85.0073 253.122 85.0209 252.889L83.6748 254.018C83.5972 254.079 83.5212 254.117 83.4451 254.131C83.369 254.146 83.2991 254.148 83.2306 254.134C83.1637 254.122 83.1044 254.099 83.0527 254.065C83.0009 254.033 82.9614 253.997 82.9355 253.959L82.4305 253.265L85.2856 250.834H86.5998V259.023H88.2837V260.222H83.1044V259.023Z" fill="#62788A"></path><path d="M95.5605 251.527C95.5605 251.756 95.489 251.941 95.3476 252.085C95.2046 252.228 94.9627 252.298 94.622 252.298H92.0514L91.7152 254.256C92.1381 254.169 92.5229 254.126 92.8682 254.126C93.3595 254.126 93.7945 254.199 94.1687 254.347C94.5444 254.495 94.8593 254.697 95.1133 254.956C95.3673 255.215 95.5605 255.52 95.6898 255.867C95.8191 256.215 95.8845 256.591 95.8845 256.992C95.8845 257.488 95.7978 257.942 95.6229 258.354C95.448 258.765 95.2046 259.115 94.8943 259.408C94.584 259.699 94.2159 259.926 93.79 260.086C93.3656 260.246 92.9017 260.325 92.4012 260.325C92.1077 260.325 91.8293 260.295 91.5662 260.234C91.303 260.173 91.0551 260.092 90.8254 259.99C90.5942 259.888 90.3812 259.772 90.185 259.64C89.9888 259.507 89.8123 259.368 89.6572 259.221L90.1485 258.54C90.2519 258.393 90.3873 258.319 90.5562 258.319C90.6642 258.319 90.7737 258.354 90.8862 258.422C90.9988 258.491 91.1266 258.567 91.2711 258.649C91.4156 258.732 91.5859 258.808 91.7821 258.876C91.9784 258.945 92.2141 258.98 92.491 258.98C92.7845 258.98 93.0431 258.933 93.2682 258.837C93.4918 258.742 93.6789 258.608 93.828 258.438C93.9771 258.267 94.0896 258.064 94.1642 257.828C94.2402 257.592 94.2782 257.336 94.2782 257.06C94.2782 256.55 94.1307 256.151 93.8341 255.864C93.539 255.576 93.1009 255.433 92.5229 255.433C92.0788 255.433 91.6224 255.515 91.157 255.68L90.1607 255.395L90.9379 250.843H95.5605V251.524V251.527Z" fill="#62788A"></path><path d="M131.289 259.023H133.186V253.556C133.186 253.345 133.192 253.122 133.206 252.889L131.86 254.018C131.782 254.079 131.706 254.117 131.63 254.131C131.554 254.146 131.484 254.148 131.415 254.134C131.348 254.122 131.289 254.099 131.237 254.065C131.186 254.032 131.146 253.997 131.12 253.959L130.615 253.265L133.47 250.834H134.785V259.023H136.468V260.222H131.289V259.023Z" fill="#62788A"></path><path d="M140.656 254.249C140.595 254.323 140.539 254.393 140.484 254.457C140.429 254.522 140.378 254.589 140.326 254.658C140.507 254.566 140.702 254.496 140.911 254.445C141.121 254.393 141.348 254.367 141.594 254.367C141.949 254.367 142.293 254.425 142.627 254.542C142.962 254.659 143.255 254.835 143.511 255.071C143.765 255.307 143.97 255.599 144.126 255.95C144.281 256.3 144.358 256.708 144.358 257.175C144.358 257.612 144.278 258.02 144.119 258.404C143.96 258.786 143.735 259.12 143.446 259.406C143.157 259.691 142.808 259.917 142.401 260.081C141.993 260.246 141.543 260.328 141.051 260.328C140.56 260.328 140.102 260.247 139.705 260.089C139.308 259.929 138.969 259.705 138.689 259.417C138.409 259.129 138.193 258.783 138.044 258.38C137.895 257.976 137.821 257.526 137.821 257.034C137.821 256.594 137.91 256.14 138.09 255.675C138.269 255.211 138.546 254.728 138.922 254.227L141.155 251.225C141.232 251.122 141.347 251.033 141.494 250.959C141.643 250.886 141.815 250.849 142.008 250.849H143.432L140.654 254.253L140.656 254.249ZM139.355 257.278C139.355 257.537 139.39 257.775 139.462 257.988C139.533 258.201 139.638 258.384 139.778 258.537C139.918 258.687 140.092 258.806 140.3 258.89C140.507 258.974 140.747 259.016 141.018 259.016C141.272 259.016 141.506 258.974 141.721 258.887C141.934 258.8 142.118 258.68 142.271 258.524C142.425 258.369 142.544 258.186 142.63 257.976C142.717 257.766 142.76 257.539 142.76 257.292C142.76 257.024 142.719 256.783 142.636 256.568C142.554 256.355 142.439 256.172 142.287 256.023C142.134 255.874 141.953 255.761 141.742 255.683C141.531 255.605 141.298 255.566 141.042 255.566C140.787 255.566 140.557 255.608 140.35 255.695C140.143 255.782 139.965 255.902 139.819 256.055C139.672 256.209 139.558 256.39 139.476 256.6C139.393 256.81 139.352 257.036 139.352 257.278H139.355Z" fill="#62788A"></path><path d="M174.73 259.023H176.626V253.556C176.626 253.345 176.633 253.122 176.646 252.889L175.3 254.018C175.223 254.079 175.146 254.117 175.07 254.131C174.994 254.146 174.924 254.148 174.856 254.134C174.789 254.122 174.73 254.099 174.678 254.065C174.626 254.033 174.587 253.997 174.561 253.959L174.056 253.265L176.911 250.834H178.225V259.023H179.909V260.222H174.73V259.023Z" fill="#62788A"></path><path d="M187.788 250.846V251.539C187.788 251.747 187.767 251.914 187.723 252.042C187.68 252.17 187.636 252.277 187.593 252.364L184.046 259.678C183.973 259.829 183.87 259.958 183.736 260.063C183.602 260.17 183.423 260.222 183.199 260.222H182.04L185.659 253.057C185.736 252.91 185.815 252.775 185.894 252.651C185.974 252.528 186.063 252.411 186.164 252.298H181.69C181.591 252.298 181.505 252.262 181.432 252.188C181.359 252.115 181.322 252.028 181.322 251.929V250.846H187.79H187.788Z" fill="#62788A"></path><path d="M220.604 259.023H222.501V253.557C222.501 253.345 222.507 253.122 222.521 252.889L221.174 254.018C221.097 254.079 221.021 254.117 220.945 254.131C220.869 254.146 220.799 254.148 220.73 254.134C220.663 254.122 220.604 254.099 220.552 254.065C220.501 254.032 220.461 253.997 220.435 253.959L219.93 253.266L222.785 250.834H224.099V259.023H225.783V260.222H220.604V259.023Z" fill="#62788A"></path><path d="M230.346 260.325C229.863 260.325 229.422 260.26 229.023 260.13C228.625 260.001 228.282 259.817 227.996 259.579C227.712 259.341 227.49 259.053 227.333 258.717C227.175 258.38 227.097 258.004 227.097 257.588C227.097 257.035 227.233 256.567 227.505 256.185C227.777 255.802 228.2 255.517 228.774 255.331C228.316 255.141 227.974 254.871 227.747 254.521C227.52 254.171 227.408 253.75 227.408 253.257C227.408 252.902 227.479 252.571 227.625 252.265C227.77 251.959 227.972 251.69 228.231 251.463C228.489 251.236 228.8 251.06 229.16 250.932C229.521 250.804 229.916 250.74 230.348 250.74C230.78 250.74 231.175 250.804 231.536 250.932C231.896 251.06 232.207 251.236 232.465 251.463C232.724 251.69 232.926 251.957 233.071 252.265C233.215 252.572 233.288 252.903 233.288 253.257C233.288 253.749 233.174 254.171 232.944 254.521C232.716 254.871 232.374 255.141 231.922 255.331C232.496 255.517 232.919 255.802 233.191 256.185C233.463 256.567 233.599 257.035 233.599 257.588C233.599 258.002 233.519 258.378 233.363 258.717C233.205 259.053 232.984 259.341 232.7 259.579C232.415 259.817 232.073 260.001 231.673 260.13C231.274 260.26 230.832 260.325 230.35 260.325H230.346ZM230.346 259.075C230.61 259.075 230.841 259.037 231.039 258.962C231.238 258.886 231.405 258.782 231.541 258.648C231.676 258.514 231.779 258.354 231.848 258.168C231.916 257.982 231.951 257.781 231.951 257.565C231.951 257.05 231.808 256.661 231.524 256.398C231.239 256.134 230.845 256.002 230.345 256.002C229.845 256.002 229.452 256.134 229.166 256.398C228.882 256.661 228.739 257.05 228.739 257.565C228.739 257.781 228.774 257.982 228.842 258.168C228.911 258.354 229.014 258.514 229.149 258.648C229.285 258.782 229.452 258.887 229.651 258.962C229.849 259.038 230.08 259.075 230.343 259.075H230.346ZM230.346 254.743C230.605 254.743 230.823 254.702 231.001 254.62C231.177 254.538 231.32 254.428 231.428 254.292C231.536 254.157 231.612 254 231.658 253.826C231.703 253.651 231.726 253.471 231.726 253.285C231.726 253.1 231.699 252.94 231.642 252.78C231.586 252.62 231.502 252.478 231.39 252.355C231.277 252.231 231.136 252.134 230.963 252.059C230.791 251.986 230.585 251.949 230.348 251.949C230.111 251.949 229.905 251.986 229.733 252.059C229.562 252.132 229.417 252.231 229.303 252.355C229.189 252.478 229.104 252.62 229.051 252.78C228.997 252.94 228.97 253.109 228.97 253.285C228.97 253.471 228.993 253.651 229.038 253.826C229.084 254.001 229.16 254.157 229.268 254.292C229.376 254.428 229.519 254.538 229.695 254.62C229.872 254.702 230.091 254.743 230.35 254.743H230.346Z" fill="#62788A"></path><path d="M265.482 259.023H267.379V253.556C267.379 253.345 267.385 253.122 267.398 252.889L266.052 254.018C265.975 254.079 265.899 254.117 265.823 254.131C265.747 254.146 265.677 254.148 265.608 254.134C265.541 254.122 265.482 254.099 265.43 254.065C265.379 254.033 265.339 253.997 265.313 253.959L264.808 253.265L267.663 250.834H268.977V259.023H270.661V260.222H265.482V259.023Z" fill="#62788A"></path><path d="M275.729 256.585C275.802 256.494 275.872 256.405 275.936 256.319C276.002 256.232 276.064 256.146 276.123 256.06C275.907 256.198 275.67 256.303 275.412 256.373C275.153 256.445 274.881 256.48 274.596 256.48C274.272 256.48 273.956 256.424 273.644 256.311C273.334 256.198 273.057 256.029 272.815 255.802C272.573 255.575 272.379 255.295 272.229 254.96C272.08 254.624 272.006 254.233 272.006 253.784C272.006 253.365 272.083 252.972 272.239 252.603C272.394 252.234 272.611 251.913 272.893 251.637C273.173 251.36 273.51 251.142 273.903 250.982C274.295 250.822 274.729 250.743 275.203 250.743C275.678 250.743 276.113 250.819 276.495 250.97C276.876 251.121 277.202 251.332 277.473 251.605C277.742 251.878 277.949 252.204 278.095 252.585C278.239 252.965 278.312 253.381 278.312 253.835C278.312 254.125 278.288 254.399 278.238 254.658C278.188 254.917 278.118 255.167 278.028 255.408C277.937 255.647 277.827 255.881 277.698 256.111C277.568 256.34 277.424 256.567 277.264 256.792L275.121 259.853C275.048 259.957 274.937 260.045 274.791 260.115C274.645 260.187 274.478 260.222 274.292 260.222H272.823L275.729 256.584V256.585ZM276.785 253.674C276.785 253.419 276.747 253.191 276.668 252.99C276.59 252.789 276.481 252.62 276.338 252.481C276.195 252.342 276.026 252.237 275.83 252.164C275.634 252.091 275.419 252.054 275.186 252.054C274.954 252.054 274.727 252.094 274.532 252.175C274.338 252.255 274.172 252.367 274.033 252.508C273.895 252.652 273.79 252.821 273.717 253.017C273.644 253.214 273.608 253.429 273.608 253.662C273.608 254.184 273.743 254.583 274.012 254.858C274.281 255.132 274.665 255.269 275.161 255.269C275.419 255.269 275.65 255.228 275.853 255.146C276.055 255.063 276.225 254.951 276.364 254.809C276.502 254.666 276.607 254.498 276.677 254.303C276.749 254.108 276.784 253.899 276.784 253.674H276.785Z" fill="#62788A"></path><path d="M311.461 250.743C311.893 250.743 312.287 250.807 312.646 250.935C313.004 251.063 313.311 251.242 313.565 251.475C313.819 251.709 314.018 251.99 314.161 252.318C314.304 252.647 314.374 253.011 314.374 253.413C314.374 253.759 314.324 254.079 314.222 254.373C314.12 254.667 313.985 254.947 313.814 255.216C313.644 255.484 313.445 255.743 313.215 255.994C312.987 256.245 312.746 256.5 312.497 256.759L310.38 258.918C310.587 258.857 310.79 258.811 310.991 258.779C311.192 258.747 311.382 258.73 311.565 258.73H313.966C314.138 258.73 314.277 258.779 314.377 258.876C314.479 258.974 314.529 259.102 314.529 259.262V260.222H308.107V259.69C308.107 259.582 308.13 259.469 308.176 259.35C308.221 259.231 308.293 259.125 308.393 259.029L311.235 256.175C311.472 255.933 311.685 255.702 311.872 255.482C312.059 255.261 312.216 255.043 312.342 254.827C312.467 254.611 312.562 254.391 312.629 254.169C312.696 253.947 312.73 253.712 312.73 253.465C312.73 253.241 312.698 253.043 312.632 252.873C312.567 252.702 312.476 252.559 312.357 252.441C312.238 252.324 312.095 252.237 311.93 252.179C311.764 252.121 311.577 252.092 311.37 252.092C311.18 252.092 311.005 252.12 310.842 252.173C310.681 252.228 310.536 252.303 310.412 252.4C310.287 252.498 310.18 252.61 310.095 252.74C310.009 252.869 309.945 253.013 309.901 253.168C309.828 253.368 309.732 253.499 309.616 253.564C309.499 253.63 309.332 253.645 309.111 253.61L308.27 253.461C308.335 253.011 308.46 252.617 308.646 252.277C308.831 251.937 309.064 251.654 309.342 251.427C309.621 251.2 309.94 251.029 310.301 250.915C310.661 250.801 311.049 250.743 311.463 250.743H311.461Z" fill="#62788A"></path><path d="M322.311 255.534C322.311 256.351 322.224 257.061 322.049 257.664C321.874 258.267 321.633 258.765 321.324 259.158C321.015 259.551 320.65 259.844 320.23 260.037C319.81 260.231 319.356 260.325 318.867 260.325C318.379 260.325 317.927 260.229 317.511 260.037C317.094 259.845 316.732 259.553 316.426 259.158C316.12 258.765 315.88 258.267 315.708 257.664C315.536 257.061 315.449 256.351 315.449 255.534C315.449 254.717 315.536 254.001 315.708 253.401C315.88 252.801 316.12 252.303 316.426 251.91C316.732 251.517 317.094 251.224 317.511 251.031C317.927 250.839 318.379 250.743 318.867 250.743C319.356 250.743 319.809 250.839 320.23 251.031C320.652 251.223 321.015 251.517 321.324 251.91C321.633 252.303 321.874 252.801 322.049 253.401C322.224 254.001 322.311 254.713 322.311 255.534ZM320.661 255.534C320.661 254.856 320.61 254.294 320.512 253.848C320.413 253.403 320.279 253.048 320.113 252.784C319.947 252.521 319.756 252.336 319.54 252.23C319.324 252.124 319.1 252.071 318.866 252.071C318.632 252.071 318.416 252.124 318.203 252.23C317.99 252.336 317.8 252.521 317.637 252.784C317.472 253.048 317.342 253.403 317.244 253.848C317.147 254.292 317.098 254.855 317.098 255.534C317.098 256.213 317.147 256.774 317.244 257.22C317.342 257.665 317.472 258.02 317.637 258.284C317.801 258.547 317.99 258.732 318.203 258.838C318.416 258.945 318.638 258.997 318.866 258.997C319.094 258.997 319.324 258.944 319.54 258.838C319.756 258.733 319.946 258.547 320.113 258.284C320.279 258.02 320.411 257.665 320.512 257.22C320.61 256.776 320.661 256.213 320.661 255.534Z" fill="#62788A"></path><path d="M357.25 250.743C357.682 250.743 358.076 250.807 358.435 250.935C358.793 251.063 359.1 251.242 359.354 251.475C359.608 251.709 359.807 251.99 359.95 252.318C360.093 252.647 360.163 253.011 360.163 253.413C360.163 253.759 360.113 254.079 360.011 254.373C359.909 254.667 359.774 254.947 359.603 255.216C359.433 255.484 359.234 255.743 359.004 255.994C358.776 256.245 358.536 256.5 358.286 256.759L356.169 258.918C356.376 258.857 356.579 258.811 356.78 258.779C356.981 258.747 357.171 258.73 357.354 258.73H359.755C359.927 258.73 360.066 258.779 360.166 258.876C360.268 258.974 360.318 259.102 360.318 259.262V260.222H353.896V259.69C353.896 259.582 353.919 259.469 353.965 259.35C354.01 259.231 354.082 259.125 354.182 259.029L357.024 256.175C357.261 255.933 357.474 255.702 357.661 255.482C357.848 255.261 358.005 255.043 358.129 254.827C358.254 254.611 358.35 254.391 358.417 254.169C358.484 253.947 358.517 253.712 358.517 253.465C358.517 253.241 358.485 253.043 358.42 252.873C358.355 252.702 358.263 252.559 358.145 252.441C358.026 252.324 357.883 252.237 357.717 252.179C357.551 252.121 357.364 252.092 357.157 252.092C356.967 252.092 356.792 252.12 356.63 252.173C356.468 252.228 356.324 252.303 356.199 252.4C356.074 252.498 355.968 252.61 355.883 252.74C355.796 252.869 355.732 253.013 355.688 253.168C355.615 253.368 355.519 253.499 355.404 253.564C355.287 253.63 355.119 253.645 354.899 253.61L354.057 253.461C354.123 253.011 354.248 252.617 354.433 252.277C354.619 251.937 354.851 251.654 355.13 251.427C355.408 251.2 355.728 251.029 356.088 250.915C356.449 250.801 356.836 250.743 357.25 250.743Z" fill="#62788A"></path><path d="M362.436 259.023H364.332V253.556C364.332 253.345 364.338 253.122 364.352 252.889L363.006 254.018C362.928 254.079 362.852 254.117 362.776 254.131C362.7 254.146 362.63 254.148 362.562 254.134C362.495 254.122 362.436 254.099 362.384 254.065C362.332 254.032 362.293 253.997 362.267 253.959L361.762 253.265L364.617 250.834H365.931V259.023H367.615V260.222H362.436V259.023Z" fill="#62788A"></path><path d="M85.4286 282.726C85.8606 282.726 86.2545 282.79 86.6135 282.918C86.9709 283.046 87.2782 283.226 87.5322 283.459C87.7862 283.692 87.9855 283.974 88.1285 284.302C88.2715 284.631 88.3414 284.995 88.3414 285.397C88.3414 285.743 88.2912 286.063 88.1893 286.357C88.0874 286.651 87.952 286.931 87.7817 287.199C87.6113 287.467 87.4121 287.726 87.1824 287.978C86.9542 288.229 86.7139 288.484 86.4644 288.742L84.3471 290.901C84.5539 290.84 84.7578 290.795 84.9586 290.763C85.1593 290.731 85.3495 290.714 85.532 290.714H87.9338C88.1057 290.714 88.2441 290.763 88.3445 290.86C88.4464 290.958 88.4966 291.086 88.4966 291.246V292.205H82.0746V291.674C82.0746 291.565 82.0974 291.453 82.143 291.334C82.1887 291.215 82.2602 291.108 82.3605 291.012L85.2019 288.159C85.4392 287.917 85.6522 287.685 85.8393 287.466C86.0264 287.245 86.183 287.027 86.3093 286.811C86.434 286.594 86.5298 286.375 86.5968 286.153C86.6637 285.93 86.6971 285.696 86.6971 285.449C86.6971 285.225 86.6652 285.027 86.5998 284.856C86.5344 284.685 86.4431 284.542 86.3245 284.425C86.2058 284.308 86.0629 284.221 85.8971 284.163C85.7313 284.105 85.5442 284.076 85.3373 284.076C85.1472 284.076 84.9722 284.104 84.8095 284.157C84.6483 284.212 84.5037 284.286 84.379 284.384C84.2543 284.481 84.1478 284.594 84.0626 284.724C83.9759 284.853 83.912 284.996 83.8679 285.152C83.7949 285.35 83.6991 285.482 83.5835 285.548C83.4664 285.613 83.2991 285.629 83.0785 285.593L82.2373 285.444C82.3027 284.995 82.4275 284.6 82.613 284.26C82.7986 283.921 83.0313 283.637 83.3097 283.41C83.5881 283.183 83.9075 283.013 84.268 282.898C84.6285 282.784 85.0164 282.726 85.4301 282.726H85.4286Z" fill="#62788A"></path><path d="M92.9381 282.726C93.3701 282.726 93.7641 282.79 94.1231 282.918C94.4805 283.046 94.7878 283.226 95.0418 283.459C95.2958 283.692 95.4951 283.974 95.6381 284.302C95.781 284.631 95.851 284.995 95.851 285.397C95.851 285.743 95.8008 286.063 95.6989 286.357C95.597 286.651 95.4616 286.931 95.2912 287.199C95.1209 287.467 94.9216 287.726 94.6919 287.978C94.4638 288.229 94.2234 288.484 93.974 288.742L91.8566 290.901C92.0635 290.84 92.2673 290.795 92.4681 290.763C92.6689 290.731 92.859 290.714 93.0416 290.714H95.4434C95.6152 290.714 95.7537 290.763 95.854 290.86C95.956 290.958 96.0062 291.086 96.0062 291.246V292.205H89.5842V291.674C89.5842 291.565 89.607 291.453 89.6526 291.334C89.6982 291.215 89.7697 291.108 89.8701 291.012L92.7115 288.159C92.9488 287.917 93.1617 287.685 93.3488 287.466C93.5359 287.245 93.6926 287.027 93.8173 286.811C93.942 286.594 94.0379 286.375 94.1048 286.153C94.1717 285.93 94.2052 285.696 94.2052 285.449C94.2052 285.225 94.1733 285.027 94.1078 284.856C94.0424 284.685 93.9512 284.542 93.8325 284.425C93.7139 284.308 93.5709 284.221 93.4051 284.163C93.2393 284.105 93.0522 284.076 92.8453 284.076C92.6552 284.076 92.4803 284.104 92.3175 284.157C92.1563 284.212 92.0118 284.286 91.8871 284.384C91.7623 284.481 91.6559 284.594 91.5692 284.724C91.4825 284.853 91.4186 284.996 91.3745 285.152C91.3015 285.35 91.2056 285.482 91.09 285.548C90.9729 285.613 90.8056 285.629 90.585 285.593L89.7439 285.444C89.8093 284.995 89.934 284.6 90.1196 284.26C90.3051 283.921 90.5379 283.637 90.8162 283.41C91.0946 283.183 91.414 283.013 91.7745 282.898C92.135 282.784 92.5229 282.726 92.9366 282.726H92.9381Z" fill="#62788A"></path><path d="M133.613 282.727C134.045 282.727 134.439 282.791 134.798 282.919C135.156 283.046 135.463 283.226 135.717 283.459C135.971 283.692 136.17 283.974 136.313 284.302C136.456 284.631 136.526 284.995 136.526 285.397C136.526 285.743 136.476 286.063 136.374 286.357C136.272 286.651 136.137 286.931 135.966 287.199C135.796 287.468 135.597 287.727 135.367 287.978C135.139 288.229 134.899 288.484 134.649 288.743L132.532 290.902C132.739 290.841 132.943 290.795 133.143 290.763C133.344 290.731 133.534 290.714 133.717 290.714H136.119C136.29 290.714 136.429 290.763 136.529 290.86C136.631 290.958 136.681 291.086 136.681 291.246V292.206H130.259V291.674C130.259 291.566 130.282 291.453 130.328 291.334C130.373 291.215 130.445 291.109 130.545 291.013L133.387 288.159C133.624 287.917 133.837 287.685 134.024 287.466C134.211 287.245 134.368 287.027 134.493 286.811C134.617 286.595 134.713 286.375 134.78 286.153C134.847 285.93 134.88 285.696 134.88 285.449C134.88 285.225 134.849 285.027 134.783 284.856C134.718 284.686 134.626 284.543 134.508 284.425C134.389 284.308 134.246 284.221 134.08 284.163C133.915 284.105 133.727 284.076 133.521 284.076C133.33 284.076 133.156 284.104 132.993 284.157C132.832 284.212 132.687 284.287 132.562 284.384C132.438 284.482 132.331 284.594 132.246 284.724C132.159 284.853 132.095 284.997 132.051 285.152C131.978 285.35 131.882 285.483 131.767 285.548C131.65 285.614 131.482 285.629 131.262 285.594L130.421 285.444C130.486 284.995 130.611 284.6 130.796 284.261C130.982 283.921 131.215 283.638 131.493 283.411C131.771 283.184 132.091 283.013 132.451 282.899C132.812 282.784 133.2 282.727 133.613 282.727Z" fill="#62788A"></path><path d="M141.167 282.726C141.599 282.726 141.988 282.787 142.335 282.911C142.682 283.034 142.979 283.205 143.225 283.423C143.472 283.641 143.66 283.896 143.791 284.19C143.923 284.485 143.989 284.801 143.989 285.144C143.989 285.443 143.955 285.705 143.888 285.932C143.821 286.159 143.724 286.357 143.598 286.524C143.47 286.694 143.315 286.835 143.132 286.953C142.948 287.07 142.741 287.166 142.507 287.245C143.068 287.422 143.487 287.693 143.764 288.056C144.04 288.418 144.177 288.875 144.177 289.424C144.177 289.89 144.091 290.303 143.919 290.662C143.745 291.022 143.513 291.322 143.219 291.567C142.925 291.811 142.586 291.997 142.2 292.122C141.814 292.247 141.404 292.309 140.972 292.309C140.502 292.309 140.092 292.254 139.742 292.148C139.392 292.039 139.088 291.879 138.829 291.668C138.571 291.456 138.35 291.197 138.169 290.889C137.988 290.583 137.833 290.228 137.704 289.826L138.409 289.533C138.595 289.456 138.768 289.434 138.931 289.472C139.092 289.509 139.211 289.597 139.284 289.734C139.362 289.885 139.447 290.035 139.54 290.182C139.632 290.329 139.743 290.46 139.873 290.575C140.002 290.69 140.154 290.783 140.329 290.854C140.504 290.926 140.712 290.961 140.954 290.961C141.226 290.961 141.464 290.917 141.666 290.828C141.868 290.74 142.039 290.624 142.174 290.481C142.309 290.338 142.411 290.179 142.478 290.004C142.545 289.829 142.579 289.654 142.579 289.475C142.579 289.251 142.554 289.046 142.507 288.863C142.46 288.679 142.361 288.523 142.209 288.392C142.058 288.263 141.841 288.161 141.558 288.088C141.275 288.014 140.896 287.978 140.422 287.978V286.837C140.814 286.832 141.14 286.796 141.4 286.727C141.658 286.659 141.865 286.561 142.017 286.439C142.171 286.316 142.277 286.168 142.338 285.994C142.399 285.822 142.43 285.632 142.43 285.423C142.43 284.983 142.306 284.648 142.06 284.417C141.814 284.189 141.487 284.073 141.076 284.073C140.886 284.073 140.711 284.101 140.551 284.154C140.391 284.209 140.248 284.283 140.121 284.381C139.993 284.478 139.886 284.591 139.8 284.721C139.713 284.85 139.649 284.993 139.605 285.149C139.532 285.347 139.436 285.479 139.317 285.545C139.199 285.61 139.031 285.626 138.815 285.591L137.974 285.441C138.04 284.992 138.164 284.597 138.35 284.258C138.536 283.918 138.768 283.634 139.047 283.407C139.325 283.18 139.644 283.01 140.005 282.896C140.365 282.781 140.752 282.723 141.167 282.723V282.726Z" fill="#62788A"></path><path d="M177.054 282.726C177.486 282.726 177.88 282.79 178.239 282.918C178.596 283.046 178.904 283.226 179.158 283.459C179.412 283.692 179.611 283.974 179.754 284.302C179.897 284.631 179.967 284.995 179.967 285.397C179.967 285.743 179.917 286.063 179.815 286.357C179.713 286.651 179.577 286.931 179.407 287.199C179.237 287.467 179.037 287.726 178.808 287.978C178.58 288.229 178.339 288.484 178.09 288.742L175.972 290.901C176.179 290.84 176.383 290.795 176.584 290.763C176.785 290.731 176.975 290.714 177.157 290.714H179.559C179.731 290.714 179.869 290.763 179.97 290.86C180.072 290.958 180.122 291.086 180.122 291.246V292.205H173.7V291.674C173.7 291.565 173.723 291.453 173.768 291.334C173.814 291.215 173.886 291.108 173.986 291.012L176.827 288.159C177.065 287.917 177.278 287.685 177.465 287.466C177.652 287.245 177.808 287.027 177.935 286.811C178.059 286.594 178.155 286.375 178.222 286.153C178.289 285.93 178.323 285.696 178.323 285.449C178.323 285.225 178.291 285.027 178.225 284.856C178.16 284.685 178.068 284.542 177.95 284.425C177.831 284.308 177.688 284.221 177.522 284.163C177.357 284.105 177.17 284.076 176.963 284.076C176.773 284.076 176.598 284.104 176.435 284.157C176.274 284.212 176.129 284.286 176.004 284.384C175.88 284.481 175.773 284.594 175.688 284.724C175.601 284.853 175.537 284.996 175.493 285.152C175.42 285.35 175.324 285.482 175.209 285.548C175.092 285.613 174.924 285.629 174.704 285.593L173.863 285.444C173.928 284.995 174.053 284.6 174.238 284.26C174.424 283.921 174.657 283.637 174.935 283.41C175.213 283.183 175.533 283.013 175.893 282.898C176.254 282.784 176.64 282.726 177.055 282.726H177.054Z" fill="#62788A"></path><path d="M186.719 288.671H187.898V289.599C187.898 289.685 187.87 289.76 187.814 289.823C187.758 289.885 187.679 289.917 187.575 289.917H186.72V292.205H185.329V289.917H181.38C181.272 289.917 181.178 289.883 181.095 289.816C181.013 289.749 180.962 289.666 180.94 289.567L180.771 288.756L185.205 282.824H186.72V288.672L186.719 288.671ZM185.327 285.604C185.327 285.315 185.347 284.996 185.385 284.65L182.478 288.671H185.327V285.604Z" fill="#62788A"></path><path d="M222.928 282.726C223.36 282.726 223.754 282.79 224.113 282.918C224.471 283.046 224.778 283.226 225.032 283.459C225.286 283.692 225.485 283.974 225.628 284.302C225.771 284.631 225.841 284.995 225.841 285.397C225.841 285.743 225.791 286.063 225.689 286.357C225.587 286.651 225.452 286.931 225.281 287.199C225.111 287.467 224.912 287.726 224.682 287.978C224.454 288.229 224.214 288.484 223.964 288.742L221.847 290.901C222.054 290.84 222.257 290.795 222.458 290.763C222.659 290.731 222.849 290.714 223.032 290.714H225.433C225.605 290.714 225.744 290.763 225.844 290.86C225.946 290.958 225.996 291.086 225.996 291.246V292.205H219.574V291.674C219.574 291.565 219.597 291.453 219.643 291.334C219.688 291.215 219.76 291.108 219.86 291.012L222.702 288.159C222.939 287.917 223.152 287.685 223.339 287.466C223.526 287.245 223.683 287.027 223.807 286.811C223.932 286.594 224.028 286.375 224.095 286.153C224.162 285.93 224.195 285.696 224.195 285.449C224.195 285.225 224.163 285.027 224.098 284.856C224.033 284.685 223.941 284.542 223.823 284.425C223.704 284.308 223.561 284.221 223.395 284.163C223.229 284.105 223.042 284.076 222.835 284.076C222.645 284.076 222.47 284.104 222.308 284.157C222.146 284.212 222.002 284.286 221.877 284.384C221.752 284.481 221.646 284.594 221.561 284.724C221.474 284.853 221.41 284.996 221.366 285.152C221.293 285.35 221.197 285.482 221.082 285.548C220.964 285.613 220.797 285.629 220.577 285.593L219.735 285.444C219.801 284.995 219.926 284.6 220.111 284.26C220.297 283.921 220.529 283.637 220.808 283.41C221.086 283.183 221.406 283.013 221.766 282.898C222.127 282.784 222.514 282.726 222.928 282.726Z" fill="#62788A"></path><path d="M233.06 283.511C233.06 283.739 232.989 283.925 232.847 284.068C232.704 284.212 232.462 284.282 232.122 284.282H229.551L229.215 286.239C229.638 286.153 230.023 286.11 230.368 286.11C230.859 286.11 231.294 286.183 231.668 286.331C232.044 286.479 232.359 286.681 232.613 286.94C232.867 287.199 233.06 287.504 233.189 287.851C233.319 288.199 233.384 288.575 233.384 288.976C233.384 289.472 233.297 289.926 233.122 290.338C232.948 290.749 232.704 291.099 232.394 291.392C232.084 291.683 231.715 291.91 231.29 292.07C230.864 292.23 230.401 292.31 229.901 292.31C229.607 292.31 229.329 292.28 229.066 292.219C228.803 292.158 228.555 292.077 228.325 291.975C228.094 291.873 227.881 291.757 227.685 291.625C227.488 291.492 227.312 291.354 227.157 291.206L227.648 290.525C227.752 290.379 227.887 290.304 228.056 290.304C228.164 290.304 228.273 290.339 228.386 290.408C228.498 290.476 228.626 290.552 228.771 290.635C228.915 290.717 229.086 290.793 229.282 290.862C229.478 290.93 229.714 290.965 229.991 290.965C230.284 290.965 230.543 290.918 230.768 290.822C230.991 290.728 231.179 290.593 231.328 290.423C231.477 290.252 231.589 290.05 231.664 289.813C231.74 289.577 231.778 289.321 231.778 289.046C231.778 288.535 231.63 288.138 231.334 287.85C231.039 287.562 230.601 287.419 230.023 287.419C229.578 287.419 229.122 287.501 228.657 287.665L227.66 287.38L228.438 282.828H233.06V283.509V283.511Z" fill="#62788A"></path><path d="M267.806 282.726C268.238 282.726 268.632 282.79 268.991 282.918C269.349 283.046 269.656 283.226 269.91 283.459C270.164 283.692 270.363 283.974 270.506 284.302C270.649 284.631 270.719 284.995 270.719 285.397C270.719 285.743 270.669 286.063 270.567 286.357C270.465 286.651 270.33 286.931 270.159 287.199C269.989 287.467 269.79 287.726 269.56 287.978C269.332 288.229 269.091 288.484 268.842 288.742L266.725 290.901C266.932 290.84 267.135 290.795 267.336 290.763C267.537 290.731 267.727 290.714 267.91 290.714H270.311C270.483 290.714 270.622 290.763 270.722 290.86C270.824 290.958 270.874 291.086 270.874 291.246V292.205H264.452V291.674C264.452 291.565 264.475 291.453 264.521 291.334C264.566 291.215 264.638 291.108 264.738 291.012L267.579 288.159C267.817 287.917 268.03 287.685 268.217 287.466C268.404 287.245 268.561 287.027 268.687 286.811C268.812 286.594 268.907 286.375 268.974 286.153C269.041 285.93 269.075 285.696 269.075 285.449C269.075 285.225 269.043 285.027 268.977 284.856C268.912 284.685 268.821 284.542 268.702 284.425C268.583 284.308 268.44 284.221 268.275 284.163C268.109 284.105 267.922 284.076 267.715 284.076C267.525 284.076 267.35 284.104 267.187 284.157C267.026 284.212 266.881 284.286 266.757 284.384C266.632 284.481 266.525 284.594 266.44 284.724C266.354 284.853 266.29 284.996 266.246 285.152C266.172 285.35 266.077 285.482 265.961 285.548C265.844 285.613 265.677 285.629 265.456 285.593L264.615 285.444C264.68 284.995 264.805 284.6 264.991 284.26C265.176 283.921 265.409 283.637 265.687 283.41C265.966 283.183 266.285 283.013 266.646 282.898C267.006 282.784 267.394 282.726 267.808 282.726H267.806Z" fill="#62788A"></path><path d="M274.85 286.233C274.789 286.307 274.733 286.377 274.678 286.441C274.624 286.506 274.572 286.573 274.52 286.642C274.701 286.55 274.896 286.48 275.106 286.428C275.316 286.377 275.542 286.351 275.789 286.351C276.143 286.351 276.487 286.409 276.822 286.526C277.156 286.643 277.45 286.818 277.705 287.055C277.959 287.291 278.165 287.583 278.32 287.934C278.475 288.284 278.553 288.692 278.553 289.159C278.553 289.596 278.472 290.004 278.314 290.388C278.154 290.77 277.929 291.104 277.64 291.39C277.351 291.675 277.003 291.901 276.595 292.065C276.187 292.23 275.737 292.312 275.246 292.312C274.754 292.312 274.297 292.231 273.9 292.071C273.503 291.911 273.163 291.687 272.884 291.4C272.604 291.112 272.388 290.766 272.239 290.362C272.09 289.958 272.015 289.509 272.015 289.017C272.015 288.577 272.105 288.123 272.284 287.658C272.464 287.193 272.741 286.71 273.116 286.209L275.349 283.208C275.427 283.104 275.541 283.016 275.688 282.941C275.837 282.868 276.009 282.832 276.202 282.832H277.626L274.849 286.235L274.85 286.233ZM273.55 289.262C273.55 289.521 273.585 289.759 273.656 289.972C273.728 290.187 273.833 290.368 273.974 290.521C274.114 290.671 274.287 290.79 274.496 290.874C274.703 290.958 274.943 291 275.214 291C275.468 291 275.702 290.958 275.917 290.871C276.129 290.784 276.314 290.664 276.467 290.508C276.621 290.353 276.739 290.17 276.826 289.96C276.913 289.75 276.955 289.523 276.955 289.276C276.955 289.008 276.914 288.767 276.832 288.552C276.75 288.339 276.634 288.156 276.482 288.007C276.332 287.857 276.149 287.745 275.938 287.667C275.726 287.589 275.494 287.55 275.238 287.55C274.983 287.55 274.753 287.592 274.546 287.679C274.339 287.766 274.161 287.886 274.015 288.039C273.868 288.193 273.754 288.374 273.671 288.584C273.589 288.794 273.548 289.02 273.548 289.262H273.55Z" fill="#62788A"></path><path d="M311.461 282.726C311.893 282.726 312.287 282.79 312.646 282.918C313.004 283.046 313.311 283.226 313.565 283.459C313.819 283.692 314.018 283.974 314.161 284.302C314.304 284.631 314.374 284.995 314.374 285.397C314.374 285.743 314.324 286.063 314.222 286.357C314.12 286.651 313.985 286.931 313.814 287.199C313.644 287.467 313.445 287.726 313.215 287.978C312.987 288.229 312.746 288.484 312.497 288.742L310.38 290.901C310.587 290.84 310.79 290.795 310.991 290.763C311.192 290.731 311.382 290.714 311.565 290.714H313.966C314.138 290.714 314.277 290.763 314.377 290.86C314.479 290.958 314.529 291.086 314.529 291.246V292.205H308.107V291.674C308.107 291.565 308.13 291.453 308.176 291.334C308.221 291.215 308.293 291.108 308.393 291.012L311.235 288.159C311.472 287.917 311.685 287.685 311.872 287.466C312.059 287.245 312.216 287.027 312.342 286.811C312.467 286.594 312.562 286.375 312.629 286.153C312.696 285.93 312.73 285.696 312.73 285.449C312.73 285.225 312.698 285.027 312.632 284.856C312.567 284.685 312.476 284.542 312.357 284.425C312.238 284.308 312.095 284.221 311.93 284.163C311.764 284.105 311.577 284.076 311.37 284.076C311.18 284.076 311.005 284.104 310.842 284.157C310.681 284.212 310.536 284.286 310.412 284.384C310.287 284.481 310.18 284.594 310.095 284.724C310.009 284.853 309.945 284.996 309.901 285.152C309.828 285.35 309.732 285.482 309.616 285.548C309.499 285.613 309.332 285.629 309.111 285.593L308.27 285.444C308.335 284.995 308.46 284.6 308.646 284.26C308.831 283.921 309.064 283.637 309.342 283.41C309.621 283.183 309.94 283.013 310.301 282.898C310.661 282.784 311.049 282.726 311.463 282.726H311.461Z" fill="#62788A"></path><path d="M322.195 282.83V283.523C322.195 283.73 322.174 283.898 322.13 284.026C322.087 284.154 322.043 284.26 322.001 284.347L318.454 291.661C318.381 291.812 318.277 291.942 318.143 292.047C318.009 292.153 317.83 292.205 317.606 292.205H316.447L320.066 285.04C320.143 284.894 320.223 284.759 320.302 284.635C320.381 284.512 320.471 284.394 320.571 284.282H316.097C315.999 284.282 315.912 284.245 315.839 284.172C315.766 284.099 315.729 284.012 315.729 283.913V282.83H322.197H322.195Z" fill="#62788A"></path><path d="M357.25 282.727C357.682 282.727 358.076 282.791 358.435 282.919C358.793 283.046 359.1 283.226 359.354 283.459C359.608 283.692 359.807 283.974 359.95 284.302C360.093 284.631 360.163 284.995 360.163 285.397C360.163 285.743 360.113 286.063 360.011 286.357C359.909 286.651 359.774 286.931 359.603 287.199C359.433 287.468 359.234 287.727 359.004 287.978C358.776 288.229 358.536 288.484 358.286 288.743L356.169 290.902C356.376 290.841 356.579 290.795 356.78 290.763C356.981 290.731 357.171 290.714 357.354 290.714H359.755C359.927 290.714 360.066 290.763 360.166 290.86C360.268 290.958 360.318 291.086 360.318 291.246V292.206H353.896V291.674C353.896 291.566 353.919 291.453 353.965 291.334C354.01 291.215 354.082 291.109 354.182 291.013L357.024 288.159C357.261 287.917 357.474 287.685 357.661 287.466C357.848 287.245 358.005 287.027 358.129 286.811C358.254 286.595 358.35 286.375 358.417 286.153C358.484 285.93 358.517 285.696 358.517 285.449C358.517 285.225 358.485 285.027 358.42 284.856C358.355 284.686 358.263 284.543 358.145 284.425C358.026 284.308 357.883 284.221 357.717 284.163C357.551 284.105 357.364 284.076 357.157 284.076C356.967 284.076 356.792 284.104 356.63 284.157C356.468 284.212 356.324 284.287 356.199 284.384C356.074 284.482 355.968 284.594 355.883 284.724C355.796 284.853 355.732 284.997 355.688 285.152C355.615 285.35 355.519 285.483 355.404 285.548C355.286 285.614 355.119 285.629 354.899 285.594L354.057 285.444C354.123 284.995 354.248 284.6 354.433 284.261C354.619 283.921 354.851 283.638 355.13 283.411C355.408 283.184 355.728 283.013 356.088 282.899C356.449 282.784 356.836 282.727 357.25 282.727Z" fill="#62788A"></path><path d="M364.669 292.309C364.185 292.309 363.744 292.244 363.345 292.114C362.947 291.985 362.604 291.8 362.318 291.563C362.034 291.325 361.812 291.037 361.655 290.7C361.497 290.364 361.42 289.987 361.42 289.571C361.42 289.018 361.555 288.551 361.827 288.168C362.099 287.786 362.522 287.501 363.096 287.315C362.638 287.125 362.296 286.855 362.069 286.505C361.842 286.154 361.73 285.734 361.73 285.24C361.73 284.885 361.801 284.555 361.947 284.248C362.092 283.942 362.294 283.674 362.553 283.447C362.811 283.22 363.122 283.043 363.482 282.915C363.843 282.787 364.238 282.723 364.67 282.723C365.102 282.723 365.498 282.787 365.858 282.915C366.219 283.043 366.529 283.22 366.787 283.447C367.046 283.674 367.248 283.941 367.393 284.248C367.537 284.555 367.61 284.887 367.61 285.24C367.61 285.732 367.496 286.154 367.267 286.505C367.038 286.855 366.696 287.125 366.244 287.315C366.818 287.501 367.241 287.784 367.513 288.168C367.785 288.551 367.921 289.018 367.921 289.571C367.921 289.986 367.841 290.362 367.685 290.7C367.527 291.037 367.306 291.325 367.022 291.563C366.737 291.8 366.395 291.985 365.995 292.114C365.596 292.244 365.154 292.309 364.672 292.309H364.669ZM364.669 291.058C364.932 291.058 365.163 291.02 365.361 290.946C365.56 290.869 365.727 290.766 365.863 290.632C365.998 290.498 366.101 290.338 366.17 290.152C366.238 289.966 366.273 289.765 366.273 289.549C366.273 289.034 366.13 288.645 365.846 288.382C365.561 288.118 365.167 287.985 364.667 287.985C364.167 287.985 363.774 288.118 363.488 288.382C363.204 288.645 363.061 289.035 363.061 289.549C363.061 289.765 363.096 289.966 363.164 290.152C363.233 290.338 363.336 290.498 363.471 290.632C363.607 290.766 363.774 290.871 363.973 290.946C364.171 291.022 364.402 291.058 364.665 291.058H364.669ZM364.669 286.727C364.927 286.727 365.145 286.686 365.323 286.604C365.499 286.521 365.642 286.412 365.75 286.276C365.858 286.141 365.934 285.985 365.98 285.81C366.025 285.635 366.048 285.455 366.048 285.269C366.048 285.083 366.021 284.923 365.964 284.763C365.908 284.603 365.825 284.462 365.712 284.338C365.599 284.215 365.458 284.117 365.285 284.043C365.113 283.97 364.907 283.933 364.67 283.933C364.433 283.933 364.227 283.97 364.056 284.043C363.884 284.116 363.739 284.215 363.625 284.338C363.511 284.462 363.426 284.603 363.373 284.763C363.319 284.923 363.292 285.092 363.292 285.269C363.292 285.455 363.315 285.635 363.36 285.81C363.406 285.985 363.482 286.141 363.59 286.276C363.698 286.412 363.841 286.521 364.018 286.604C364.194 286.686 364.413 286.727 364.672 286.727H364.669Z" fill="#62788A"></path><path d="M85.4286 317.908C85.8606 317.908 86.2545 317.972 86.6135 318.1C86.9709 318.228 87.2782 318.408 87.5322 318.641C87.7862 318.874 87.9855 319.156 88.1285 319.483C88.2715 319.812 88.3414 320.176 88.3414 320.579C88.3414 320.924 88.2912 321.244 88.1893 321.538C88.0874 321.832 87.952 322.113 87.7817 322.381C87.6113 322.649 87.4121 322.908 87.1824 323.159C86.9542 323.411 86.7139 323.665 86.4644 323.924L84.3471 326.083C84.5539 326.022 84.7578 325.976 84.9586 325.944C85.1593 325.912 85.3495 325.896 85.532 325.896H87.9338C88.1057 325.896 88.2441 325.944 88.3445 326.042C88.4464 326.139 88.4966 326.267 88.4966 326.427V327.387H82.0746V326.855C82.0746 326.747 82.0974 326.634 82.143 326.516C82.1887 326.397 82.2602 326.29 82.3605 326.194L85.2019 323.341C85.4392 323.098 85.6522 322.867 85.8393 322.647C86.0264 322.427 86.183 322.209 86.3093 321.992C86.434 321.776 86.5298 321.557 86.5968 321.334C86.6637 321.112 86.6971 320.877 86.6971 320.63C86.6971 320.406 86.6652 320.208 86.5998 320.038C86.5344 319.867 86.4431 319.724 86.3245 319.607C86.2058 319.489 86.0629 319.402 85.8971 319.345C85.7313 319.287 85.5442 319.258 85.3373 319.258C85.1472 319.258 84.9722 319.285 84.8095 319.338C84.6483 319.393 84.5037 319.468 84.379 319.565C84.2543 319.663 84.1478 319.776 84.0626 319.905C83.9759 320.035 83.912 320.178 83.8679 320.333C83.7949 320.533 83.6991 320.664 83.5835 320.729C83.4664 320.795 83.2991 320.81 83.0785 320.775L82.2373 320.626C82.3027 320.176 82.4275 319.782 82.613 319.442C82.7986 319.102 83.0313 318.819 83.3097 318.592C83.5881 318.365 83.9075 318.194 84.268 318.08C84.6285 317.966 85.0164 317.908 85.4301 317.908H85.4286Z" fill="#62788A"></path><path d="M93.3519 323.749C93.4249 323.657 93.4949 323.569 93.5587 323.482C93.6241 323.395 93.6865 323.31 93.7458 323.223C93.5298 323.362 93.2925 323.467 93.034 323.537C92.7754 323.609 92.5031 323.644 92.2187 323.644C91.8947 323.644 91.5783 323.587 91.2665 323.475C90.9562 323.362 90.6793 323.193 90.4375 322.966C90.1956 322.739 90.0009 322.458 89.8519 322.123C89.7028 321.788 89.6283 321.397 89.6283 320.947C89.6283 320.528 89.7058 320.135 89.861 319.766C90.0161 319.398 90.2337 319.076 90.5151 318.801C90.7949 318.523 91.1326 318.305 91.5251 318.145C91.9175 317.985 92.351 317.906 92.8256 317.906C93.3002 317.906 93.7352 317.982 94.117 318.133C94.4988 318.284 94.8243 318.496 95.095 318.769C95.3643 319.041 95.5711 319.367 95.7172 319.748C95.8617 320.129 95.9347 320.545 95.9347 320.999C95.9347 321.288 95.9103 321.563 95.8601 321.822C95.8099 322.081 95.74 322.33 95.6502 322.571C95.559 322.81 95.4494 323.045 95.3201 323.275C95.1909 323.503 95.0464 323.73 94.8866 323.956L92.7434 327.017C92.6704 327.12 92.5594 327.209 92.4134 327.279C92.2673 327.35 92.1 327.385 91.9144 327.385H90.4451L93.3519 323.747V323.749ZM94.4075 320.837C94.4075 320.583 94.3695 320.354 94.2904 320.153C94.2128 319.952 94.1033 319.783 93.9603 319.645C93.8173 319.506 93.6485 319.401 93.4523 319.328C93.256 319.255 93.0416 319.218 92.8088 319.218C92.5761 319.218 92.3495 319.258 92.1548 319.338C91.9601 319.419 91.7943 319.53 91.6559 319.672C91.5174 319.815 91.4125 319.984 91.3395 320.181C91.2665 320.377 91.23 320.592 91.23 320.825C91.23 321.348 91.3653 321.747 91.6346 322.021C91.9038 322.295 92.2871 322.432 92.783 322.432C93.0416 322.432 93.2728 322.391 93.4751 322.309C93.6774 322.227 93.8477 322.114 93.9862 321.972C94.1246 321.829 94.2295 321.662 94.2995 321.467C94.371 321.272 94.406 321.063 94.406 320.837H94.4075Z" fill="#62788A"></path><path d="M133.657 317.908C134.089 317.908 134.479 317.969 134.826 318.092C135.172 318.216 135.469 318.386 135.715 318.604C135.962 318.822 136.151 319.078 136.281 319.372C136.414 319.666 136.479 319.984 136.479 320.326C136.479 320.624 136.446 320.886 136.379 321.113C136.312 321.34 136.214 321.538 136.087 321.706C135.959 321.875 135.804 322.017 135.621 322.134C135.437 322.251 135.23 322.347 134.996 322.426C135.557 322.603 135.976 322.874 136.252 323.237C136.529 323.6 136.666 324.057 136.666 324.605C136.666 325.071 136.579 325.484 136.408 325.844C136.234 326.203 136.001 326.503 135.708 326.749C135.414 326.992 135.075 327.178 134.689 327.303C134.302 327.428 133.893 327.49 133.461 327.49C132.991 327.49 132.581 327.436 132.231 327.329C131.881 327.221 131.577 327.061 131.318 326.849C131.059 326.637 130.839 326.378 130.658 326.071C130.477 325.764 130.322 325.409 130.192 325.007L130.898 324.715C131.084 324.637 131.257 324.616 131.42 324.654C131.581 324.69 131.7 324.779 131.773 324.916C131.85 325.067 131.936 325.216 132.028 325.364C132.121 325.51 132.232 325.641 132.362 325.757C132.491 325.871 132.643 325.964 132.818 326.036C132.993 326.107 133.201 326.142 133.443 326.142C133.715 326.142 133.953 326.098 134.155 326.01C134.357 325.921 134.528 325.805 134.663 325.662C134.798 325.519 134.9 325.361 134.967 325.185C135.034 325.01 135.068 324.835 135.068 324.657C135.068 324.433 135.043 324.227 134.996 324.044C134.949 323.86 134.85 323.705 134.698 323.574C134.547 323.444 134.33 323.342 134.047 323.269C133.764 323.196 133.385 323.159 132.911 323.159V322.018C133.303 322.014 133.629 321.977 133.889 321.908C134.147 321.84 134.354 321.744 134.506 321.621C134.66 321.497 134.766 321.349 134.827 321.176C134.888 321.004 134.918 320.813 134.918 320.604C134.918 320.164 134.795 319.829 134.549 319.599C134.302 319.37 133.975 319.255 133.565 319.255C133.375 319.255 133.2 319.282 133.04 319.335C132.88 319.39 132.737 319.465 132.609 319.562C132.482 319.66 132.375 319.773 132.288 319.902C132.202 320.032 132.138 320.175 132.094 320.33C132.021 320.53 131.925 320.661 131.806 320.726C131.688 320.792 131.52 320.807 131.304 320.772L130.463 320.623C130.529 320.173 130.653 319.779 130.839 319.439C131.024 319.099 131.257 318.816 131.536 318.589C131.814 318.362 132.133 318.191 132.494 318.077C132.854 317.963 133.242 317.905 133.656 317.905L133.657 317.908Z" fill="#62788A"></path><path d="M144.462 322.699C144.462 323.516 144.375 324.226 144.2 324.829C144.025 325.432 143.783 325.93 143.475 326.323C143.166 326.716 142.801 327.009 142.381 327.202C141.961 327.396 141.506 327.49 141.018 327.49C140.53 327.49 140.078 327.394 139.661 327.202C139.244 327.01 138.882 326.718 138.577 326.323C138.271 325.93 138.031 325.432 137.859 324.829C137.687 324.226 137.6 323.516 137.6 322.699C137.6 321.882 137.687 321.166 137.859 320.566C138.031 319.966 138.271 319.468 138.577 319.075C138.882 318.682 139.244 318.389 139.661 318.196C140.078 318.004 140.53 317.908 141.018 317.908C141.506 317.908 141.96 318.004 142.381 318.196C142.802 318.388 143.166 318.682 143.475 319.075C143.783 319.468 144.025 319.966 144.2 320.566C144.375 321.166 144.462 321.878 144.462 322.699ZM142.811 322.699C142.811 322.021 142.761 321.459 142.662 321.013C142.563 320.568 142.43 320.213 142.264 319.949C142.098 319.686 141.906 319.501 141.69 319.395C141.474 319.29 141.251 319.236 141.016 319.236C140.782 319.236 140.566 319.29 140.353 319.395C140.14 319.501 139.95 319.686 139.787 319.949C139.623 320.213 139.492 320.568 139.395 321.013C139.298 321.457 139.249 322.02 139.249 322.699C139.249 323.379 139.298 323.939 139.395 324.386C139.492 324.83 139.623 325.185 139.787 325.449C139.952 325.712 140.14 325.897 140.353 326.003C140.566 326.11 140.788 326.162 141.016 326.162C141.245 326.162 141.474 326.109 141.69 326.003C141.906 325.898 142.096 325.712 142.264 325.449C142.43 325.185 142.562 324.83 142.662 324.386C142.761 323.941 142.811 323.379 142.811 322.699Z" fill="#62788A"></path><path d="M177.772 326.186H179.669V320.72C179.669 320.508 179.675 320.286 179.688 320.053L178.342 321.182C178.265 321.243 178.189 321.281 178.113 321.295C178.037 321.31 177.967 321.311 177.898 321.298C177.831 321.285 177.772 321.263 177.72 321.229C177.668 321.197 177.629 321.161 177.603 321.122L177.098 320.429L179.953 317.998H181.267V326.186H182.951V327.385H177.772V326.186Z" fill="#B8C4D0"></path><path d="M225.97 317.908C226.402 317.908 226.796 317.972 227.155 318.1C227.513 318.228 227.82 318.407 228.074 318.641C228.328 318.874 228.527 319.155 228.67 319.483C228.813 319.812 228.883 320.176 228.883 320.578C228.883 320.924 228.833 321.244 228.731 321.538C228.629 321.832 228.494 322.113 228.323 322.381C228.153 322.649 227.954 322.908 227.724 323.159C227.496 323.41 227.256 323.665 227.006 323.924L224.889 326.083C225.096 326.022 225.3 325.976 225.5 325.944C225.701 325.912 225.891 325.895 226.074 325.895H228.476C228.647 325.895 228.786 325.944 228.886 326.042C228.988 326.139 229.038 326.267 229.038 326.427V327.387H222.616V326.855C222.616 326.747 222.639 326.634 222.685 326.515C222.73 326.396 222.802 326.29 222.902 326.194L225.744 323.34C225.981 323.098 226.194 322.867 226.381 322.647C226.568 322.426 226.725 322.208 226.849 321.992C226.974 321.776 227.07 321.556 227.137 321.334C227.204 321.112 227.237 320.877 227.237 320.63C227.237 320.406 227.205 320.208 227.14 320.038C227.075 319.867 226.983 319.724 226.865 319.606C226.746 319.489 226.603 319.402 226.437 319.344C226.271 319.286 226.084 319.258 225.878 319.258C225.687 319.258 225.512 319.285 225.35 319.338C225.188 319.393 225.044 319.468 224.919 319.565C224.795 319.663 224.688 319.776 224.603 319.905C224.516 320.034 224.452 320.178 224.408 320.333C224.335 320.533 224.239 320.664 224.124 320.729C224.007 320.795 223.839 320.81 223.619 320.775L222.778 320.626C222.843 320.176 222.968 319.782 223.153 319.442C223.339 319.102 223.572 318.819 223.85 318.592C224.128 318.365 224.448 318.194 224.808 318.08C225.169 317.966 225.557 317.908 225.97 317.908Z" fill="#B8C4D0"></path><path d="M270.894 317.908C271.326 317.908 271.715 317.969 272.062 318.092C272.409 318.216 272.706 318.386 272.952 318.604C273.198 318.822 273.387 319.078 273.518 319.372C273.65 319.666 273.716 319.984 273.716 320.326C273.716 320.624 273.682 320.886 273.615 321.113C273.548 321.34 273.451 321.538 273.325 321.706C273.197 321.875 273.042 322.017 272.859 322.134C272.675 322.251 272.468 322.347 272.234 322.426C272.795 322.603 273.214 322.874 273.49 323.237C273.767 323.6 273.904 324.057 273.904 324.605C273.904 325.071 273.817 325.484 273.646 325.844C273.472 326.203 273.239 326.503 272.946 326.749C272.652 326.992 272.313 327.178 271.927 327.303C271.54 327.428 271.131 327.49 270.699 327.49C270.229 327.49 269.819 327.436 269.469 327.329C269.119 327.221 268.815 327.061 268.556 326.849C268.297 326.637 268.077 326.378 267.896 326.071C267.715 325.764 267.56 325.409 267.43 325.007L268.136 324.715C268.322 324.637 268.495 324.616 268.658 324.654C268.819 324.69 268.938 324.779 269.011 324.916C269.088 325.067 269.174 325.216 269.266 325.364C269.359 325.51 269.47 325.641 269.599 325.757C269.729 325.871 269.881 325.964 270.056 326.036C270.231 326.107 270.439 326.142 270.681 326.142C270.953 326.142 271.191 326.098 271.393 326.01C271.595 325.921 271.766 325.805 271.901 325.662C272.036 325.519 272.138 325.361 272.205 325.185C272.272 325.01 272.305 324.835 272.305 324.657C272.305 324.433 272.281 324.227 272.234 324.044C272.187 323.86 272.088 323.705 271.936 323.574C271.785 323.444 271.568 323.342 271.285 323.269C271.002 323.196 270.623 323.159 270.149 323.159V322.018C270.541 322.014 270.867 321.977 271.127 321.908C271.385 321.84 271.592 321.744 271.744 321.621C271.898 321.497 272.004 321.349 272.065 321.176C272.126 321.004 272.156 320.813 272.156 320.604C272.156 320.164 272.033 319.829 271.787 319.599C271.54 319.37 271.213 319.255 270.803 319.255C270.613 319.255 270.438 319.282 270.278 319.335C270.118 319.39 269.975 319.465 269.847 319.562C269.72 319.66 269.613 319.773 269.526 319.902C269.44 320.032 269.376 320.175 269.332 320.33C269.259 320.53 269.163 320.661 269.044 320.726C268.926 320.792 268.758 320.807 268.542 320.772L267.701 320.623C267.767 320.173 267.891 319.779 268.077 319.439C268.262 319.099 268.495 318.816 268.774 318.589C269.052 318.362 269.371 318.191 269.732 318.077C270.092 317.963 270.479 317.905 270.894 317.905V317.908Z" fill="#B8C4D0"></path><path d="M316.659 323.852H317.838V324.78C317.838 324.867 317.81 324.942 317.754 325.004C317.698 325.067 317.618 325.099 317.515 325.099H316.66V327.387H315.268V325.099H311.32C311.212 325.099 311.117 325.065 311.035 324.998C310.953 324.931 310.901 324.847 310.88 324.748L310.711 323.938L315.145 318.005H316.66V323.854L316.659 323.852ZM315.267 320.786C315.267 320.496 315.287 320.178 315.325 319.832L312.418 323.852H315.267V320.786Z" fill="#B8C4D0"></path><path d="M362.915 318.692C362.915 318.921 362.843 319.107 362.702 319.25C362.559 319.393 362.317 319.463 361.976 319.463H359.406L359.069 321.421C359.492 321.334 359.877 321.291 360.222 321.291C360.714 321.291 361.149 321.365 361.523 321.512C361.899 321.66 362.214 321.863 362.468 322.122C362.722 322.381 362.915 322.685 363.044 323.033C363.173 323.38 363.239 323.756 363.239 324.157C363.239 324.654 363.152 325.108 362.977 325.519C362.802 325.93 362.559 326.281 362.249 326.573C361.938 326.864 361.57 327.091 361.144 327.251C360.72 327.411 360.256 327.49 359.755 327.49C359.462 327.49 359.184 327.46 358.92 327.399C358.657 327.338 358.409 327.257 358.18 327.155C357.948 327.053 357.735 326.937 357.539 326.805C357.343 326.672 357.167 326.534 357.011 326.386L357.503 325.705C357.606 325.559 357.742 325.484 357.91 325.484C358.018 325.484 358.128 325.519 358.24 325.588C358.353 325.656 358.481 325.732 358.625 325.815C358.77 325.897 358.94 325.973 359.136 326.042C359.333 326.11 359.568 326.145 359.845 326.145C360.139 326.145 360.397 326.098 360.622 326.002C360.846 325.907 361.033 325.773 361.182 325.603C361.331 325.432 361.444 325.23 361.518 324.993C361.594 324.757 361.632 324.501 361.632 324.226C361.632 323.715 361.485 323.316 361.188 323.03C360.893 322.742 360.455 322.599 359.877 322.599C359.433 322.599 358.977 322.681 358.511 322.845L357.515 322.56L358.292 318.008H362.915V318.689V318.692Z" fill="#B8C4D0"></path></g><path d="M397 103C397 98.5817 393.418 95 389 95H61C56.5817 95 53 98.5817 53 103V112H397V103Z" fill="#091B36"></path><path d="M73.7243 103.654C73.7256 104.18 73.5708 104.695 73.2794 105.133C72.9881 105.572 72.5734 105.914 72.0877 106.116C71.6021 106.318 71.0674 106.372 70.5513 106.27C70.0352 106.168 69.5609 105.915 69.1885 105.543C68.8161 105.172 68.5622 104.698 68.4591 104.181C68.356 103.665 68.4083 103.13 68.6093 102.644C68.8104 102.157 69.1511 101.741 69.5884 101.449C70.0257 101.156 70.5399 101 71.066 101C71.7683 101.005 72.4406 101.286 72.9379 101.782C73.4352 102.279 73.7176 102.951 73.7243 103.654Z" fill="#F66058"></path><path d="M86.1319 103.654C86.1332 104.18 85.9782 104.696 85.6865 105.134C85.3949 105.572 84.9798 105.914 84.4938 106.116C84.0078 106.319 83.4728 106.372 82.9565 106.269C82.4402 106.167 81.966 105.913 81.5938 105.541C81.2216 105.169 80.9683 104.694 80.8659 104.177C80.7636 103.661 80.8168 103.126 81.0188 102.639C81.2208 102.153 81.5625 101.737 82.0006 101.446C82.4388 101.154 82.9536 100.999 83.4799 101C83.8287 100.998 84.1743 101.066 84.4968 101.199C84.8193 101.331 85.1123 101.527 85.3589 101.773C85.6055 102.02 85.8008 102.313 85.9335 102.636C86.0662 102.959 86.1336 103.305 86.1319 103.654Z" fill="#F9BD2E"></path><path d="M98.5363 103.654C98.5376 104.18 98.3828 104.695 98.0914 105.133C97.8001 105.572 97.3854 105.914 96.8997 106.116C96.4141 106.318 95.8794 106.372 95.3633 106.27C94.8472 106.168 94.3729 105.915 94.0005 105.543C93.6281 105.172 93.3742 104.698 93.2711 104.181C93.168 103.665 93.2203 103.13 93.4213 102.644C93.6224 102.157 93.9631 101.741 94.4004 101.449C94.8377 101.156 95.3519 101 95.878 101C96.5804 101.005 97.2527 101.286 97.7499 101.782C98.2472 102.279 98.5296 102.951 98.5363 103.654Z" fill="#3CC840"></path><g opacity="0.6"><path d="M312.826 248.102C312.839 234.621 309.915 221.298 304.258 209.06C298.602 196.823 290.347 185.965 280.069 177.24L260.869 205.111C269.328 211.839 276.158 220.391 280.849 230.128C285.54 239.865 287.971 250.536 287.962 261.344C287.97 272.72 285.275 283.936 280.099 294.067C274.923 304.198 267.414 312.953 258.19 319.613L256.468 307.56L223.316 338.225L271.386 339.883L263.394 330.292C278.322 322.375 290.812 310.541 299.521 296.06C308.23 281.58 312.83 265 312.826 248.102Z" fill="url(#paint0_linear_32419_93656)"></path><path d="M130.264 238.606C134.167 224.026 141.968 210.785 152.83 200.305C163.691 189.826 177.203 182.503 191.914 179.125L187.234 169L228.325 181.546L192.634 200.339L193.934 189.54C184.436 193.154 175.933 198.973 169.124 206.517C162.316 214.061 157.397 223.115 154.773 232.933C152.266 242.256 151.898 252.025 153.695 261.511C155.492 270.997 159.408 279.955 165.151 287.716L142.14 307.325C135.288 297.421 130.677 286.143 128.626 274.275C126.574 262.407 127.133 250.235 130.264 238.606Z" fill="url(#paint1_linear_32419_93656)"></path></g><g opacity="0.4"><circle cx="223.849" cy="46.849" r="20.349" fill="#FECE4D" stroke="white" stroke-width="3"></circle><path d="M223.574 53.3927C222.297 53.3927 221.183 53.2266 220.23 52.8942C219.274 52.561 218.479 52.0945 217.837 51.4996C217.194 50.9059 216.694 50.1754 216.371 49.3621C216.038 48.5359 215.853 47.626 215.825 46.6377H219.059C219.115 47.2725 219.267 47.8233 219.524 48.2901C219.763 48.7414 220.094 49.1371 220.496 49.4513C220.896 49.7617 221.353 49.991 221.841 50.1264C222.367 50.2752 222.911 50.3496 223.457 50.3474C223.956 50.3523 224.454 50.2957 224.939 50.1787C225.386 50.0703 225.77 49.9174 226.087 49.7164C226.387 49.533 226.638 49.281 226.821 48.981C226.994 48.6851 227.083 48.3475 227.078 48.0047C227.078 47.6346 226.994 47.3214 226.826 47.0604C226.657 46.7995 226.384 46.5702 226.011 46.365C225.638 46.1598 225.139 45.9753 224.529 45.8066C223.92 45.6379 223.164 45.4648 222.269 45.284C221.249 45.0545 220.371 44.7893 219.635 44.4885C218.9 44.1876 218.293 43.83 217.817 43.4157C217.361 43.0288 217.001 42.5413 216.765 41.9915C216.536 41.4535 216.423 40.8345 216.423 40.1353C216.423 39.3837 216.58 38.6911 216.893 38.0577C217.212 37.4197 217.668 36.8609 218.23 36.4221C218.804 35.9642 219.495 35.6066 220.294 35.3456C221.093 35.0847 221.984 34.9556 222.963 34.9556C223.983 34.9556 224.915 35.0949 225.758 35.3735C226.601 35.6548 227.327 36.0524 227.938 36.575C228.553 37.1021 229.045 37.7578 229.379 38.4959C229.729 39.2512 229.913 40.1112 229.937 41.0675H226.738C226.505 39.0344 225.278 38.0176 223.058 38.0174C221.978 38.0174 221.151 38.2026 220.577 38.5641C220.003 38.9256 219.717 39.432 219.717 40.0668C219.712 40.3057 219.778 40.5407 219.906 40.7422C220.03 40.935 220.231 41.1118 220.508 41.2727C220.781 41.4332 221.134 41.5826 221.564 41.7144C221.993 41.8463 222.519 41.9757 223.13 42.1045C223.664 42.2129 224.21 42.3334 224.772 42.4701C225.328 42.6021 225.878 42.7629 226.418 42.952C226.943 43.1358 227.451 43.3662 227.935 43.6405C228.4 43.9036 228.822 44.2356 229.188 44.6251C229.555 45.0195 229.844 45.4806 230.039 45.9836C230.247 46.5057 230.352 47.1164 230.352 47.8157C230.352 48.6394 230.183 49.3922 229.846 50.0741C229.51 50.7551 229.031 51.3555 228.441 51.8343C227.839 52.324 227.122 52.7071 226.293 52.9834C225.463 53.2597 224.557 53.3962 223.574 53.3927Z" fill="white"></path><path fill-rule="evenodd" clip-rule="evenodd" d="M221.835 33.0269H224.338C224.421 33.027 224.501 33.0601 224.559 33.1189C224.618 33.1777 224.651 33.2574 224.651 33.3405V36.9397H221.521V33.3405C221.522 33.2574 221.555 33.1778 221.613 33.119C221.672 33.0603 221.752 33.0271 221.835 33.0269ZM224.653 51.696V55.0082C224.652 55.0913 224.619 55.171 224.561 55.2297C224.502 55.2885 224.422 55.3216 224.339 55.3218H221.835C221.752 55.3215 221.672 55.2884 221.613 55.2296C221.555 55.1709 221.522 55.0913 221.521 55.0082V51.696H224.653Z" fill="white"></path></g><g opacity="0.2"><circle cx="223.849" cy="37.849" r="20.349" fill="#FECE4D" stroke="white" stroke-width="3"></circle><path d="M223.574 44.3927C222.297 44.3927 221.183 44.2266 220.23 43.8942C219.274 43.561 218.479 43.0945 217.837 42.4996C217.194 41.9059 216.694 41.1754 216.371 40.3621C216.038 39.5359 215.853 38.626 215.825 37.6377H219.059C219.115 38.2725 219.267 38.8233 219.524 39.2901C219.763 39.7414 220.094 40.1371 220.496 40.4513C220.896 40.7617 221.353 40.991 221.841 41.1264C222.367 41.2752 222.911 41.3496 223.457 41.3474C223.956 41.3523 224.454 41.2957 224.939 41.1787C225.386 41.0703 225.77 40.9174 226.087 40.7164C226.387 40.533 226.638 40.281 226.821 39.981C226.994 39.6851 227.083 39.3475 227.078 39.0047C227.078 38.6346 226.994 38.3214 226.826 38.0604C226.657 37.7995 226.384 37.5702 226.011 37.365C225.638 37.1598 225.139 36.9753 224.529 36.8066C223.92 36.6379 223.164 36.4648 222.269 36.284C221.249 36.0545 220.371 35.7893 219.635 35.4885C218.9 35.1876 218.293 34.83 217.817 34.4157C217.361 34.0288 217.001 33.5413 216.765 32.9915C216.536 32.4535 216.423 31.8345 216.423 31.1353C216.423 30.3837 216.58 29.6911 216.893 29.0577C217.212 28.4197 217.668 27.8609 218.23 27.4221C218.804 26.9642 219.495 26.6066 220.294 26.3456C221.093 26.0847 221.984 25.9556 222.963 25.9556C223.983 25.9556 224.915 26.0949 225.758 26.3735C226.601 26.6548 227.327 27.0524 227.938 27.575C228.553 28.1021 229.045 28.7578 229.379 29.4959C229.729 30.2512 229.913 31.1112 229.937 32.0675H226.738C226.505 30.0344 225.278 29.0176 223.058 29.0174C221.978 29.0174 221.151 29.2026 220.577 29.5641C220.003 29.9256 219.717 30.432 219.717 31.0668C219.712 31.3057 219.778 31.5407 219.906 31.7422C220.03 31.935 220.231 32.1118 220.508 32.2727C220.781 32.4332 221.134 32.5826 221.564 32.7144C221.993 32.8463 222.519 32.9757 223.13 33.1045C223.664 33.2129 224.21 33.3334 224.772 33.4701C225.328 33.6021 225.878 33.7629 226.418 33.952C226.943 34.1358 227.451 34.3662 227.935 34.6405C228.4 34.9036 228.822 35.2356 229.188 35.6251C229.555 36.0195 229.844 36.4806 230.039 36.9836C230.247 37.5057 230.352 38.1164 230.352 38.8157C230.352 39.6394 230.183 40.3922 229.846 41.0741C229.51 41.7551 229.031 42.3555 228.441 42.8343C227.839 43.324 227.122 43.7071 226.293 43.9834C225.463 44.2597 224.557 44.3962 223.574 44.3927Z" fill="white"></path><path fill-rule="evenodd" clip-rule="evenodd" d="M221.835 24.0269H224.338C224.421 24.027 224.501 24.0601 224.559 24.1189C224.618 24.1777 224.651 24.2574 224.651 24.3405V27.9397H221.521V24.3405C221.522 24.2574 221.555 24.1778 221.613 24.119C221.672 24.0603 221.752 24.0271 221.835 24.0269ZM224.653 42.696V46.0082C224.652 46.0913 224.619 46.171 224.561 46.2297C224.502 46.2885 224.422 46.3216 224.339 46.3218H221.835C221.752 46.3215 221.672 46.2884 221.613 46.2296C221.555 46.1709 221.522 46.0913 221.521 46.0082V42.696H224.653Z" fill="white"></path></g><g opacity="0.4"><circle cx="223.849" cy="47.849" r="20.349" fill="#FECE4D" stroke="white" stroke-width="3"></circle><path d="M223.574 54.3927C222.297 54.3927 221.183 54.2266 220.23 53.8942C219.274 53.561 218.479 53.0945 217.837 52.4996C217.194 51.9059 216.694 51.1754 216.371 50.3621C216.038 49.5359 215.853 48.626 215.825 47.6377H219.059C219.115 48.2725 219.267 48.8233 219.524 49.2901C219.763 49.7414 220.094 50.1371 220.496 50.4513C220.896 50.7617 221.353 50.991 221.841 51.1264C222.367 51.2752 222.911 51.3496 223.457 51.3474C223.956 51.3523 224.454 51.2957 224.939 51.1787C225.386 51.0703 225.77 50.9174 226.087 50.7164C226.387 50.533 226.638 50.281 226.821 49.981C226.994 49.6851 227.083 49.3475 227.078 49.0047C227.078 48.6346 226.994 48.3214 226.826 48.0604C226.657 47.7995 226.384 47.5702 226.011 47.365C225.638 47.1598 225.139 46.9753 224.529 46.8066C223.92 46.6379 223.164 46.4648 222.269 46.284C221.249 46.0545 220.371 45.7893 219.635 45.4885C218.9 45.1876 218.293 44.83 217.817 44.4157C217.361 44.0288 217.001 43.5413 216.765 42.9915C216.536 42.4535 216.423 41.8345 216.423 41.1353C216.423 40.3837 216.58 39.6911 216.893 39.0577C217.212 38.4197 217.668 37.8609 218.23 37.4221C218.804 36.9642 219.495 36.6066 220.294 36.3456C221.093 36.0847 221.984 35.9556 222.963 35.9556C223.983 35.9556 224.915 36.0949 225.758 36.3735C226.601 36.6548 227.327 37.0524 227.938 37.575C228.553 38.1021 229.045 38.7578 229.379 39.4959C229.729 40.2512 229.913 41.1112 229.937 42.0675H226.738C226.505 40.0344 225.278 39.0176 223.058 39.0174C221.978 39.0174 221.151 39.2026 220.577 39.5641C220.003 39.9256 219.717 40.432 219.717 41.0668C219.712 41.3057 219.778 41.5407 219.906 41.7422C220.03 41.935 220.231 42.1118 220.508 42.2727C220.781 42.4332 221.134 42.5826 221.564 42.7144C221.993 42.8463 222.519 42.9757 223.13 43.1045C223.664 43.2129 224.21 43.3334 224.772 43.4701C225.328 43.6021 225.878 43.7629 226.418 43.952C226.943 44.1358 227.451 44.3662 227.935 44.6405C228.4 44.9036 228.822 45.2356 229.188 45.6251C229.555 46.0195 229.844 46.4806 230.039 46.9836C230.247 47.5057 230.352 48.1164 230.352 48.8157C230.352 49.6394 230.183 50.3922 229.846 51.0741C229.51 51.7551 229.031 52.3555 228.441 52.8343C227.839 53.324 227.122 53.7071 226.293 53.9834C225.463 54.2597 224.557 54.3962 223.574 54.3927Z" fill="white"></path><path fill-rule="evenodd" clip-rule="evenodd" d="M221.835 34.0269H224.338C224.421 34.027 224.501 34.0601 224.559 34.1189C224.618 34.1777 224.651 34.2574 224.651 34.3405V37.9397H221.521V34.3405C221.522 34.2574 221.555 34.1778 221.613 34.119C221.672 34.0603 221.752 34.0271 221.835 34.0269ZM224.653 52.696V56.0082C224.652 56.0913 224.619 56.171 224.561 56.2297C224.502 56.2885 224.422 56.3216 224.339 56.3218H221.835C221.752 56.3215 221.672 56.2884 221.613 56.2296C221.555 56.1709 221.522 56.0913 221.521 56.0082V52.696H224.653Z" fill="white"></path></g><g opacity="0.7"><circle cx="223.849" cy="57.849" r="20.349" fill="#FECE4D" stroke="white" stroke-width="3"></circle><path d="M224.462 66.6203C223.186 66.6203 222.071 66.4541 221.118 66.1218C220.162 65.7885 219.367 65.3221 218.725 64.7272C218.083 64.1334 217.582 63.403 217.26 62.5897C216.926 61.7635 216.742 60.8536 216.714 59.8652H219.947C220.003 60.5 220.156 61.0508 220.413 61.5177C220.651 61.9689 220.982 62.3646 221.384 62.6788C221.784 62.9892 222.241 63.2185 222.729 63.3539C223.255 63.5027 223.799 63.5771 224.346 63.5749C224.844 63.5799 225.342 63.5232 225.827 63.4063C226.274 63.2978 226.658 63.145 226.975 62.9439C227.275 62.7606 227.527 62.5085 227.71 62.2086C227.883 61.9126 227.971 61.575 227.967 61.2323C227.967 60.8622 227.883 60.5489 227.714 60.288C227.545 60.027 227.272 59.7977 226.899 59.5926C226.526 59.3874 226.027 59.2029 225.418 59.0342C224.808 58.8655 224.053 58.6923 223.157 58.5116C222.137 58.2821 221.259 58.0169 220.524 57.716C219.788 57.4151 219.182 57.0575 218.705 56.6433C218.249 56.2563 217.889 55.7688 217.653 55.2191C217.424 54.681 217.311 54.062 217.311 53.3628C217.311 52.6112 217.468 51.9187 217.781 51.2852C218.1 50.6472 218.557 50.0884 219.118 49.6497C219.692 49.1918 220.383 48.8341 221.182 48.5732C221.981 48.3122 222.872 48.1831 223.852 48.1831C224.872 48.1831 225.803 48.3224 226.646 48.601C227.489 48.8823 228.216 49.2799 228.826 49.8025C229.441 50.3296 229.933 50.9854 230.267 51.7235C230.617 52.4788 230.801 53.3387 230.825 54.2951H227.626C227.393 52.2619 226.167 51.2452 223.946 51.2449C222.866 51.2449 222.039 51.4302 221.465 51.7916C220.891 52.1531 220.605 52.6595 220.605 53.2943C220.6 53.5332 220.666 53.7682 220.794 53.9698C220.918 54.1625 221.119 54.3394 221.396 54.5003C221.669 54.6607 222.023 54.8101 222.452 54.942C222.881 55.0738 223.408 55.2032 224.018 55.332C224.552 55.4404 225.098 55.5609 225.66 55.6976C226.216 55.8296 226.766 55.9905 227.306 56.1796C227.831 56.3634 228.339 56.5938 228.823 56.8681C229.288 57.1312 229.711 57.4631 230.076 57.8527C230.444 58.2471 230.732 58.7082 230.927 59.2111C231.136 59.7332 231.24 60.344 231.24 61.0433C231.24 61.867 231.072 62.6197 230.734 63.3016C230.398 63.9827 229.919 64.5831 229.329 65.0618C228.727 65.5516 228.011 65.9346 227.181 66.2109C226.351 66.4873 225.445 66.6237 224.462 66.6203Z" fill="white"></path><path fill-rule="evenodd" clip-rule="evenodd" d="M222.723 46.2544H225.226C225.309 46.2546 225.389 46.2877 225.448 46.3465C225.506 46.4052 225.539 46.4849 225.54 46.568V50.1672H222.41V46.568C222.41 46.4849 222.443 46.4053 222.502 46.3466C222.56 46.2878 222.64 46.2547 222.723 46.2544ZM225.541 64.9236V68.2357C225.541 68.3188 225.508 68.3985 225.449 68.4573C225.39 68.516 225.311 68.5491 225.228 68.5493H222.723C222.64 68.5491 222.56 68.5159 222.502 68.4572C222.443 68.3984 222.41 68.3188 222.41 68.2357V64.9236H225.541Z" fill="white"></path></g><circle cx="223.79" cy="67.7896" r="20.2896" fill="#FECE4D" stroke="white" stroke-width="3"></circle><path d="M224.122 78.0544C222.846 78.0544 221.731 77.8882 220.778 77.5559C219.822 77.2226 219.028 76.7561 218.385 76.1613C217.743 75.5675 217.242 74.837 216.92 74.0238C216.587 73.1975 216.402 72.2877 216.374 71.2993H219.607C219.663 71.9341 219.816 72.4849 220.073 72.9517C220.311 73.403 220.643 73.7987 221.045 74.1129C221.445 74.4233 221.902 74.6526 222.389 74.788C222.915 74.9368 223.459 75.0112 224.006 75.009C224.505 75.014 225.002 74.9573 225.487 74.8403C225.934 74.7319 226.318 74.5791 226.636 74.378C226.935 74.1947 227.187 73.9426 227.37 73.6427C227.543 73.3467 227.632 73.0091 227.627 72.6663C227.627 72.2963 227.543 71.983 227.374 71.722C227.205 71.4611 226.933 71.2318 226.559 71.0266C226.186 70.8215 225.688 70.6369 225.078 70.4682C224.468 70.2996 223.713 70.1264 222.818 69.9457C221.798 69.7162 220.92 69.451 220.184 69.1501C219.448 68.8492 218.842 68.4916 218.365 68.0774C217.909 67.6904 217.549 67.2029 217.313 66.6532C217.084 66.1151 216.972 65.4961 216.972 64.7969C216.972 64.0453 217.128 63.3527 217.442 62.7193C217.76 62.0813 218.217 61.5225 218.779 61.0837C219.353 60.6259 220.043 60.2682 220.842 60.0072C221.641 59.7463 222.532 59.6172 223.512 59.6172C224.532 59.6172 225.463 59.7565 226.307 60.0351C227.15 60.3164 227.876 60.714 228.486 61.2366C229.101 61.7637 229.593 62.4194 229.928 63.1576C230.277 63.9129 230.462 64.7728 230.486 65.7292H227.287C227.054 63.696 225.827 62.6793 223.607 62.679C222.527 62.679 221.699 62.8642 221.125 63.2257C220.551 63.5872 220.265 64.0936 220.265 64.7284C220.26 64.9673 220.326 65.2023 220.454 65.4038C220.579 65.5966 220.779 65.7735 221.056 65.9343C221.329 66.0948 221.683 66.2442 222.112 66.376C222.541 66.5079 223.068 66.6373 223.678 66.7661C224.212 66.8745 224.758 66.995 225.32 67.1317C225.877 67.2637 226.426 67.4246 226.966 67.6136C227.492 67.7974 227.999 68.0279 228.484 68.3022C228.949 68.5652 229.371 68.8972 229.736 69.2867C230.104 69.6812 230.393 70.1422 230.587 70.6452C230.796 71.1673 230.9 71.778 230.901 72.4773C230.901 73.301 230.732 74.0538 230.395 74.7357C230.058 75.4168 229.579 76.0172 228.99 76.4959C228.387 76.9857 227.671 77.3687 226.841 77.645C226.012 77.9214 225.105 78.0578 224.122 78.0544Z" fill="white"></path><path fill-rule="evenodd" clip-rule="evenodd" d="M222.383 57.6885H224.886C224.97 57.6887 225.049 57.7218 225.108 57.7805C225.167 57.8393 225.2 57.919 225.2 58.0021V61.6013H222.07V58.0021C222.07 57.919 222.103 57.8394 222.162 57.7806C222.221 57.7219 222.3 57.6887 222.383 57.6885ZM225.201 76.3577V79.6698C225.201 79.7529 225.168 79.8326 225.109 79.8913C225.051 79.9501 224.971 79.9832 224.888 79.9834H222.383C222.3 79.9831 222.221 79.95 222.162 79.8912C222.103 79.8325 222.07 79.7529 222.07 79.6698V76.3577H225.201Z" fill="white"></path><defs><filter id="filter0_dd_32419_93656" x="41" y="89" width="368" height="292" filterUnits="userSpaceOnUse" color-interpolation-filters="sRGB"><feFlood flood-opacity="0" result="BackgroundImageFix"></feFlood><feColorMatrix in="SourceAlpha" type="matrix" values="0 0 0 0 0 0 0 0 0 0 0 0 0 0 0 0 0 0 127 0" result="hardAlpha"></feColorMatrix><feOffset dy="4"></feOffset><feGaussianBlur stdDeviation="5"></feGaussianBlur><feColorMatrix type="matrix" values="0 0 0 0 0.607843 0 0 0 0 0.67451 0 0 0 0 0.737255 0 0 0 0.35 0"></feColorMatrix><feBlend mode="normal" in2="BackgroundImageFix" result="effect1_dropShadow_32419_93656"></feBlend><feColorMatrix in="SourceAlpha" type="matrix" values="0 0 0 0 0 0 0 0 0 0 0 0 0 0 0 0 0 0 127 0" result="hardAlpha"></feColorMatrix><feOffset dy="2"></feOffset><feGaussianBlur stdDeviation="6"></feGaussianBlur><feColorMatrix type="matrix" values="0 0 0 0 0.89625 0 0 0 0 0.930414 0 0 0 0 0.995833 0 0 0 0.5 0"></feColorMatrix><feBlend mode="normal" in2="effect1_dropShadow_32419_93656" result="effect2_dropShadow_32419_93656"></feBlend><feBlend mode="normal" in="SourceGraphic" in2="effect2_dropShadow_32419_93656" result="shape"></feBlend></filter><linearGradient id="paint0_linear_32419_93656" x1="278.454" y1="225.87" x2="233.54" y2="306.545" gradientUnits="userSpaceOnUse"><stop stop-color="#76A5FF" stop-opacity="0"></stop><stop offset="1" stop-color="#76A5FF" stop-opacity="0.502"></stop></linearGradient><linearGradient id="paint1_linear_32419_93656" x1="149.716" y1="269.148" x2="223.297" y2="208.171" gradientUnits="userSpaceOnUse"><stop stop-color="#76A5FF" stop-opacity="0"></stop><stop offset="1" stop-color="#76A5FF" stop-opacity="0.3"></stop></linearGradient></defs></svg>