<svg width="593" height="573" viewBox="0 0 593 573" fill="none" xmlns="http://www.w3.org/2000/svg">
<rect x="2" width="589" height="536" fill="#091B36"/>
<g style="mix-blend-mode:screen" opacity="0.7" filter="url(#filter0_f_14271_3378)">
<ellipse cx="296.5" cy="197" rx="232.5" ry="25" fill="#9E98FC"/>
</g>
<path d="M74.3811 164.389H127.831C130.591 164.389 132.823 166.606 132.823 169.334V222.319C132.823 225.048 130.591 227.265 127.831 227.265H74.3811C71.6207 227.265 69.3888 225.048 69.3888 222.319V169.334C69.3888 166.606 71.6207 164.389 74.3811 164.389Z" fill="url(#paint0_linear_14271_3378)" stroke="url(#paint1_linear_14271_3378)" stroke-width="0.777502"/>
<path d="M76.4461 168.787C76.4461 169.553 75.8089 170.185 75.0365 170.185C74.2642 170.185 73.627 169.553 73.627 168.787C73.627 168.022 74.2642 167.39 75.0365 167.39C75.8089 167.39 76.4461 168.022 76.4461 168.787Z" fill="white"/>
<path d="M81.0506 168.787C81.0506 169.553 80.4134 170.185 79.641 170.185C78.8686 170.185 78.2314 169.553 78.2314 168.787C78.2314 168.022 78.8686 167.39 79.641 167.39C80.4327 167.39 81.0506 168.022 81.0506 168.787Z" fill="white"/>
<path d="M85.657 168.787C85.657 169.553 85.0198 170.185 84.2475 170.185C83.4751 170.185 82.8379 169.553 82.8379 168.787C82.8379 168.022 83.4751 167.39 84.2475 167.39C85.0198 167.39 85.657 168.022 85.657 168.787Z" fill="white"/>
<path d="M85.7 213C85.2491 213 84.8167 212.811 84.4978 212.476C84.179 212.14 84 211.685 84 211.211C84 203.056 88.783 201.678 91.9476 200.767C94.5477 200.017 95.719 199.591 95.8805 197.457C93.8594 194.724 92.6799 191.406 92.5 187.947C92.5025 185.575 93.3988 183.301 94.9923 181.623C96.5858 179.946 98.7464 179.003 101 179C103.254 179.003 105.414 179.946 107.008 181.623C108.601 183.301 109.498 185.575 109.5 187.947C109.32 191.405 108.14 194.722 106.12 197.454C106.282 199.591 107.453 200.017 110.052 200.764C113.218 201.675 118 203.053 118 211.208C118 211.682 117.821 212.138 117.502 212.473C117.183 212.809 116.751 212.997 116.3 212.997L85.7 213ZM92.8468 204.217C90.0724 205.018 87.9728 205.623 87.5002 209.422H114.5C114.027 205.623 111.928 205.018 109.153 204.217C107.041 203.61 104.324 202.826 103.211 199.957C102.518 200.295 101.764 200.471 101.001 200.474C100.237 200.471 99.4834 200.295 98.7907 199.957C97.6764 202.825 94.959 203.605 92.8468 204.217ZM95.9 187.947C95.9 191.48 98.6362 196.895 101 196.895C103.364 196.895 106.1 191.48 106.1 187.947C106.098 186.524 105.561 185.16 104.604 184.153C103.648 183.147 102.352 182.581 101 182.579C99.6479 182.581 98.3517 183.147 97.3956 184.153C96.4395 185.16 95.9016 186.524 95.9 187.947Z" fill="#BFBAFC"/>
<path d="M150.593 164.389H204.043C206.803 164.389 209.035 166.606 209.035 169.334V222.319C209.035 225.048 206.803 227.265 204.043 227.265H150.593C147.833 227.265 145.601 225.048 145.601 222.319V169.334C145.601 166.606 147.833 164.389 150.593 164.389Z" fill="url(#paint2_linear_14271_3378)" stroke="url(#paint3_linear_14271_3378)" stroke-width="0.777502"/>
<path d="M152.658 168.788C152.658 169.553 152.02 170.185 151.248 170.185C150.476 170.185 149.838 169.553 149.838 168.788C149.838 168.022 150.476 167.39 151.248 167.39C152.02 167.39 152.658 168.022 152.658 168.788Z" fill="white"/>
<path d="M157.262 168.787C157.262 169.553 156.625 170.185 155.853 170.185C155.081 170.185 154.443 169.553 154.443 168.787C154.443 168.022 155.081 167.39 155.853 167.39C156.645 167.39 157.262 168.022 157.262 168.787Z" fill="white"/>
<path d="M161.868 168.787C161.868 169.553 161.231 170.185 160.459 170.185C159.687 170.185 159.049 169.553 159.049 168.787C159.049 168.022 159.687 167.39 160.459 167.39C161.231 167.39 161.868 168.022 161.868 168.787Z" fill="white"/>
<path d="M189.5 182.25H163.5C162.641 182.254 161.818 182.599 161.212 183.208C160.606 183.817 160.266 184.641 160.266 185.5L160.25 214.75L166.75 208.25H189.5C190.361 208.247 191.186 207.904 191.795 207.295C192.404 206.686 192.747 205.861 192.75 205V185.5C192.747 184.639 192.404 183.814 191.795 183.205C191.186 182.596 190.361 182.253 189.5 182.25ZM189.5 205H165.401L164.443 205.959L163.5 206.901V185.5H189.5V205Z" fill="#BFBAFC"/>
<path d="M182.188 194.526V192.409H180.474L181.216 188.75H178.832L178.107 192.409H176.147L176.889 188.75H174.522L173.78 192.409H171.484V194.526H173.391L172.932 196.75H170.812V198.903H172.543L171.802 202.562H174.168L174.91 198.903H176.853L176.111 202.562H178.478L179.22 198.903H181.481V196.75H179.626L180.068 194.526H182.188ZM177.701 194.526L177.26 196.75H175.299L175.758 194.526H177.701Z" fill="#BFBAFC"/>
<path d="M226.805 164.389H280.255C283.016 164.389 285.248 166.606 285.248 169.334V222.319C285.248 225.048 283.016 227.265 280.255 227.265H226.805C224.045 227.265 221.813 225.048 221.813 222.319V169.334C221.813 166.606 224.045 164.389 226.805 164.389Z" fill="url(#paint4_linear_14271_3378)" stroke="url(#paint5_linear_14271_3378)" stroke-width="0.777502"/>
<path d="M228.87 168.787C228.87 169.553 228.233 170.185 227.461 170.185C226.688 170.185 226.051 169.553 226.051 168.787C226.051 168.022 226.688 167.39 227.461 167.39C228.233 167.39 228.87 168.022 228.87 168.787Z" fill="white"/>
<path d="M233.475 168.787C233.475 169.553 232.838 170.185 232.065 170.185C231.293 170.185 230.656 169.553 230.656 168.787C230.656 168.022 231.293 167.39 232.065 167.39C232.857 167.39 233.475 168.022 233.475 168.787Z" fill="white"/>
<path d="M238.081 168.787C238.081 169.553 237.444 170.185 236.672 170.185C235.899 170.185 235.262 169.553 235.262 168.787C235.262 168.022 235.899 167.39 236.672 167.39C237.444 167.39 238.081 168.022 238.081 168.787Z" fill="white"/>
<path d="M269.875 192.383C269.708 191.83 269.424 191.318 269.042 190.883C268.657 190.448 268.184 190.099 267.653 189.86C267.123 189.622 266.548 189.499 265.967 189.5H258.208V187.525C258.2 185.796 257.515 184.139 256.3 182.908C255.689 182.31 254.971 181.833 254.183 181.5C253.392 181.167 252.542 180.997 251.683 181C251.388 181.008 251.101 181.094 250.85 181.25C250.584 181.411 250.369 181.645 250.233 181.925L244.625 193.142H238.367C237.99 193.142 237.616 193.215 237.267 193.358C236.919 193.505 236.602 193.717 236.333 193.983C236.067 194.251 235.857 194.568 235.714 194.917C235.571 195.266 235.498 195.64 235.5 196.017V209.35C235.497 209.729 235.569 210.104 235.712 210.454C235.855 210.805 236.066 211.124 236.333 211.392C236.601 211.658 236.918 211.869 237.267 212.012C237.616 212.155 237.99 212.227 238.367 212.225H264.158C265.144 212.225 266.096 211.869 266.84 211.223C267.584 210.577 268.07 209.684 268.208 208.708L270.033 194.142C270.108 193.551 270.054 192.951 269.875 192.383ZM238.8 208.917V196.467H243.967V208.917H238.8ZM255.033 191.783C255.203 192.191 255.526 192.514 255.933 192.683C256.134 192.769 256.349 192.814 256.567 192.817H265.942C266.057 192.81 266.171 192.833 266.275 192.883C266.371 192.929 266.459 192.991 266.533 193.067C266.601 193.151 266.652 193.247 266.683 193.35C266.708 193.46 266.708 193.574 266.683 193.683L264.875 208.25C264.852 208.434 264.764 208.602 264.625 208.725C264.488 208.848 264.31 208.917 264.125 208.917H247.308V195.2L252.675 184.483L252.942 184.583C253.327 184.736 253.678 184.962 253.975 185.25C254.272 185.546 254.508 185.898 254.668 186.286C254.828 186.673 254.91 187.089 254.908 187.508V191.15C254.907 191.368 254.952 191.584 255.042 191.783H255.033Z" fill="#BFBAFC"/>
<path d="M310.381 164.389H363.831C366.591 164.389 368.823 166.606 368.823 169.334V222.319C368.823 225.048 366.591 227.265 363.831 227.265H310.381C307.621 227.265 305.389 225.048 305.389 222.319V169.334C305.389 166.606 307.621 164.389 310.381 164.389Z" fill="url(#paint6_linear_14271_3378)" stroke="url(#paint7_linear_14271_3378)" stroke-width="0.777502"/>
<path d="M312.446 168.788C312.446 169.553 311.809 170.185 311.037 170.185C310.264 170.185 309.627 169.553 309.627 168.788C309.627 168.022 310.264 167.39 311.037 167.39C311.809 167.39 312.446 168.022 312.446 168.788Z" fill="white"/>
<path d="M317.051 168.787C317.051 169.553 316.413 170.185 315.641 170.185C314.869 170.185 314.231 169.553 314.231 168.787C314.231 168.022 314.869 167.39 315.641 167.39C316.433 167.39 317.051 168.022 317.051 168.787Z" fill="white"/>
<path d="M321.657 168.787C321.657 169.553 321.02 170.185 320.247 170.185C319.475 170.185 318.838 169.553 318.838 168.787C318.838 168.022 319.475 167.39 320.247 167.39C321.02 167.39 321.657 168.022 321.657 168.787Z" fill="white"/>
<path d="M351.887 181.375C352.35 181.372 352.809 181.464 353.235 181.645C353.662 181.826 354.047 182.092 354.367 182.427C354.707 182.76 354.976 183.159 355.157 183.6C355.337 184.041 355.426 184.514 355.416 184.991V210.094C355.403 211.026 355.027 211.916 354.368 212.575C353.709 213.235 352.819 213.611 351.887 213.625H323.197C322.72 213.635 322.247 213.546 321.806 213.365C321.365 213.184 320.966 212.915 320.633 212.573C320.298 212.254 320.032 211.869 319.851 211.442C319.671 211.016 319.579 210.557 319.583 210.094V184.993C319.579 184.523 319.667 184.056 319.844 183.62C320.02 183.183 320.28 182.786 320.61 182.45C320.94 182.114 321.332 181.847 321.765 181.663C322.199 181.479 322.664 181.382 323.134 181.378H351.891L351.887 181.375ZM351.833 210.042V184.958H323.166V210.042H351.833Z" fill="#BFBAFC"/>
<path d="M321.375 207.354L328.691 199.636L333.917 205.149L345.413 193.021L352.729 200.739" stroke="#BFBAFC" stroke-width="3.39474"/>
<circle cx="331.677" cy="191.677" r="3.13542" fill="#BFBAFC"/>
<path d="M386.593 164.389H440.043C442.803 164.389 445.035 166.606 445.035 169.334V222.319C445.035 225.048 442.803 227.265 440.043 227.265H386.593C383.833 227.265 381.601 225.048 381.601 222.319V169.334C381.601 166.606 383.833 164.389 386.593 164.389Z" fill="url(#paint8_linear_14271_3378)" stroke="url(#paint9_linear_14271_3378)" stroke-width="0.777502"/>
<path d="M419 181.25H399.5C398.641 181.254 397.818 181.599 397.212 182.208C396.606 182.817 396.266 183.641 396.266 184.5L396.25 208.875L402.75 202.375H419C419.861 202.372 420.686 202.029 421.295 201.42C421.904 200.811 422.247 199.986 422.25 199.125V184.5C422.247 183.639 421.904 182.814 421.295 182.205C420.686 181.596 419.861 181.253 419 181.25ZM419 199.125H401.401L400.442 200.084L399.5 201.026V184.5H419V199.125ZM402.75 187.75H415.75V191H402.75V187.75ZM402.75 192.625H412.5V195.875H402.75V192.625Z" fill="#BFBAFC"/>
<path d="M428.734 192.625C428.734 191.766 428.394 190.942 427.788 190.333C427.182 189.724 426.359 189.379 425.5 189.375H422.25V192.625H425.5V207.525L424.557 206.583L423.599 205.624H406V202.374H402.75V205.624C402.753 206.485 403.096 207.31 403.705 207.919C404.314 208.528 405.139 208.872 406 208.874H422.25L428.75 215.374L428.734 192.625Z" fill="#BFBAFC"/>
<path d="M389.081 168.787C389.081 169.553 388.444 170.185 387.672 170.185C386.899 170.185 386.262 169.553 386.262 168.787C386.262 168.022 386.899 167.39 387.672 167.39C388.444 167.39 389.081 168.022 389.081 168.787Z" fill="white"/>
<path d="M393.686 168.787C393.686 169.553 393.049 170.185 392.276 170.185C391.504 170.185 390.867 169.553 390.867 168.787C390.867 168.022 391.504 167.39 392.276 167.39C393.068 167.39 393.686 168.022 393.686 168.787Z" fill="white"/>
<path d="M398.292 168.787C398.292 169.553 397.655 170.185 396.883 170.185C396.11 170.185 395.473 169.553 395.473 168.787C395.473 168.022 396.11 167.39 396.883 167.39C397.655 167.39 398.292 168.022 398.292 168.787Z" fill="white"/>
<path d="M462.805 164.389H516.255C519.016 164.389 521.248 166.606 521.248 169.334V222.319C521.248 225.048 519.016 227.265 516.255 227.265H462.805C460.045 227.265 457.813 225.048 457.813 222.319V169.334C457.813 166.606 460.045 164.389 462.805 164.389Z" fill="url(#paint10_linear_14271_3378)" stroke="url(#paint11_linear_14271_3378)" stroke-width="0.777502"/>
<path d="M464.87 168.788C464.87 169.553 464.233 170.185 463.46 170.185C462.688 170.185 462.051 169.553 462.051 168.788C462.051 168.022 462.688 167.39 463.46 167.39C464.233 167.39 464.87 168.022 464.87 168.788Z" fill="white"/>
<path d="M469.475 168.787C469.475 169.553 468.838 170.185 468.065 170.185C467.293 170.185 466.656 169.553 466.656 168.787C466.656 168.022 467.293 167.39 468.065 167.39C468.857 167.39 469.475 168.022 469.475 168.787Z" fill="white"/>
<path d="M474.081 168.787C474.081 169.553 473.444 170.185 472.671 170.185C471.899 170.185 471.262 169.553 471.262 168.787C471.262 168.022 471.899 167.39 472.671 167.39C473.444 167.39 474.081 168.022 474.081 168.787Z" fill="white"/>
<path d="M505.455 185.545V206.818H473.545V185.545H505.455ZM509 182H470V210.364H509V182Z" fill="#BFBAFC"/>
<path d="M485.955 199.727H480.636C480.166 199.727 479.715 199.541 479.383 199.208C479.051 198.876 478.864 198.425 478.864 197.955C478.864 197.484 479.051 197.034 479.383 196.701C479.715 196.369 480.166 196.182 480.636 196.182H485.955C486.425 196.182 486.876 196.369 487.208 196.701C487.541 197.034 487.727 197.484 487.727 197.955C487.727 198.425 487.541 198.876 487.208 199.208C486.876 199.541 486.425 199.727 485.955 199.727Z" fill="#BFBAFC"/>
<path d="M480.636 203.273H477.091L478.665 192.135C478.789 191.291 479.211 190.52 479.854 189.962C480.498 189.403 481.321 189.094 482.173 189.091H487.727V203.273H484.182V192.636H482.173L480.636 203.273Z" fill="#BFBAFC"/>
<path d="M496.591 203.273H491.273V189.091H496.591C498.001 189.092 499.353 189.653 500.35 190.65C501.347 191.647 501.908 192.999 501.909 194.409V197.954C501.908 199.364 501.347 200.716 500.35 201.713C499.353 202.71 498.001 203.271 496.591 203.273ZM494.818 199.727H496.591C497.061 199.727 497.512 199.54 497.845 199.208C498.177 198.876 498.364 198.425 498.364 197.954V194.409C498.364 193.939 498.177 193.488 497.845 193.155C497.512 192.823 497.061 192.636 496.591 192.636H494.818V199.727Z" fill="#BFBAFC"/>
<g style="mix-blend-mode:screen" opacity="0.8" filter="url(#filter1_f_14271_3378)">
<ellipse cx="293" cy="397.5" rx="139" ry="75.5" fill="#9E98FC"/>
</g>
<g opacity="0.2">
<g filter="url(#filter2_bd_14271_3378)">
<rect x="216.237" y="358.675" width="234.763" height="150.742" rx="7.05108" fill="url(#paint12_linear_14271_3378)"/>
<rect x="217.044" y="359.482" width="233.149" height="149.129" rx="6.24432" stroke="url(#paint13_linear_14271_3378)" stroke-width="1.61351"/>
</g>
</g>
<g opacity="0.4">
<g filter="url(#filter3_bd_14271_3378)">
<rect x="197.492" y="342.296" width="234.763" height="150.742" rx="7.05108" fill="url(#paint14_linear_14271_3378)"/>
<rect x="198.298" y="343.103" width="233.149" height="149.129" rx="6.24432" stroke="url(#paint15_linear_14271_3378)" stroke-width="1.61351"/>
</g>
</g>
<g opacity="0.8">
<g filter="url(#filter4_bd_14271_3378)">
<rect x="178.746" y="321.823" width="234.763" height="150.742" rx="7.05108" fill="url(#paint16_linear_14271_3378)"/>
<rect x="179.552" y="322.63" width="233.149" height="149.129" rx="6.24432" stroke="url(#paint17_linear_14271_3378)" stroke-width="1.61351"/>
</g>
</g>
<g filter="url(#filter5_bd_14271_3378)">
<rect x="160" y="306.826" width="234.947" height="151.216" rx="5.39291" fill="url(#paint18_linear_14271_3378)"/>
<rect x="160.617" y="307.443" width="233.713" height="149.982" rx="4.77587" stroke="url(#paint19_linear_14271_3378)" stroke-width="1.23407"/>
</g>
<path d="M175.847 317.397C175.847 318.647 174.816 319.679 173.565 319.679C172.315 319.679 171.283 318.647 171.283 317.397C171.283 316.146 172.315 315.114 173.565 315.114C174.816 315.114 175.847 316.146 175.847 317.397Z" fill="white"/>
<path d="M184.417 317.397C184.417 318.647 183.385 319.679 182.135 319.679C180.885 319.679 179.853 318.647 179.853 317.397C179.853 316.146 180.885 315.114 182.135 315.114C183.417 315.114 184.417 316.146 184.417 317.397Z" fill="white"/>
<path d="M192.987 317.397C192.987 318.647 191.955 319.679 190.705 319.679C189.454 319.679 188.423 318.647 188.423 317.397C188.423 316.146 189.454 315.114 190.705 315.114C191.955 315.114 192.987 316.146 192.987 317.397Z" fill="white"/>
<path d="M295.868 333.968H192.708V338.171H295.868V333.968Z" fill="#FFA57E"/>
<path d="M340.586 425.772H237.427V429.976H340.586V425.772Z" fill="#8ED7FF"/>
<path d="M178.396 333.968H171.632V338.171H178.396V333.968Z" fill="white" fill-opacity="0.2"/>
<path d="M178.396 425.772H171.632V429.976H178.396V425.772Z" fill="white" fill-opacity="0.2"/>
<path d="M332.293 343.217H229.133V347.42H332.293V343.217Z" fill="#8ED7FF"/>
<path d="M366.828 435.02H271.503V439.224H366.828V435.02Z" fill="#8ED7FF"/>
<path d="M359.348 343.217H339.054V347.42H359.348V343.217Z" fill="#9D97F4"/>
<path d="M267.141 435.02H246.848V439.224H267.141V435.02Z" fill="#FFA57E"/>
<path d="M266.338 352.463H229.133V356.666H266.338V352.463Z" fill="#FFA57E"/>
<path d="M249.92 444.268H212.715V448.472H249.92V444.268Z" fill="#FFA57E"/>
<path d="M301.849 352.463H274.791V356.666H301.849V352.463Z" fill="#9D97F4"/>
<path d="M285.43 444.268H258.372V448.472H285.43V444.268Z" fill="#9D97F4"/>
<path d="M349.2 352.463H310.304V356.666H349.2V352.463Z" fill="#8ED7FF"/>
<path d="M332.782 444.268H293.886V448.472H332.782V444.268Z" fill="#8ED7FF"/>
<path d="M339.047 361.711H264.637V365.914H339.047V361.711Z" fill="#8ED7FF"/>
<path d="M372.452 453.515H309.505V457.719H372.452V453.515Z" fill="#8ED7FF"/>
<path d="M256.187 361.711H244.349V365.914H256.187V361.711Z" fill="#9D97F4"/>
<path d="M301.055 453.515H289.217V457.719H301.055V453.515Z" fill="#9D97F4"/>
<path d="M301.989 370.959H244.49V375.162H301.989V370.959Z" fill="#FFA57E"/>
<path d="M178.396 343.217H171.632V347.42H178.396V343.217Z" fill="white" fill-opacity="0.2"/>
<path d="M178.396 435.02H171.632V439.224H178.396V435.02Z" fill="white" fill-opacity="0.2"/>
<path d="M178.396 352.463H171.632V356.666H178.396V352.463Z" fill="white" fill-opacity="0.2"/>
<path d="M178.396 444.268H171.632V448.472H178.396V444.268Z" fill="white" fill-opacity="0.2"/>
<path d="M178.396 361.712H171.632V365.916H178.396V361.712Z" fill="white" fill-opacity="0.2"/>
<path d="M178.396 453.515H171.632V457.719H178.396V453.515Z" fill="white" fill-opacity="0.2"/>
<path d="M178.396 370.958H171.632V375.161H178.396V370.958Z" fill="white" fill-opacity="0.2"/>
<path d="M327.643 379.87H224.484V384.074H327.643V379.87Z" fill="#9D97F4"/>
<path d="M178.396 379.87H171.632V384.074H178.396V379.87Z" fill="white" fill-opacity="0.2"/>
<path d="M332.293 389.119H229.133V393.322H332.293V389.119Z" fill="#8ED7FF"/>
<path d="M359.348 389.119H339.054V393.322H359.348V389.119Z" fill="#FFA57E"/>
<path d="M266.338 398.366H229.133V402.569H266.338V398.366Z" fill="#FFA57E"/>
<path d="M301.849 398.366H274.791V402.569H301.849V398.366Z" fill="#9D97F4"/>
<path d="M349.2 398.366H310.304V402.569H349.2V398.366Z" fill="#8ED7FF"/>
<path d="M339.047 407.613H264.637V411.816H339.047V407.613Z" fill="#8ED7FF"/>
<path d="M256.187 407.613H244.349V411.816H256.187V407.613Z" fill="#9D97F4"/>
<path d="M261.262 416.86H203.764V421.064H261.262V416.86Z" fill="#8ED7FF"/>
<path d="M178.396 389.119H171.632V393.322H178.396V389.119Z" fill="white" fill-opacity="0.2"/>
<path d="M178.396 398.366H171.632V402.569H178.396V398.366Z" fill="white" fill-opacity="0.2"/>
<path d="M178.396 407.614H171.632V411.817H178.396V407.614Z" fill="white" fill-opacity="0.2"/>
<path d="M178.396 416.862H171.632V421.065H178.396V416.862Z" fill="white" fill-opacity="0.2"/>
<path d="M295 289.326L295 278.448C295 269.059 302.611 261.448 312 261.448L479 261.448C484.523 261.448 489 256.971 489 251.448L489 236.826" stroke="url(#paint20_linear_14271_3378)" stroke-width="2" stroke-dasharray="4 4"/>
<path d="M295 288.826L295 278.214C295 268.825 302.611 261.214 312 261.214L393 261.214C401.837 261.214 409 254.05 409 245.214L409 236.826" stroke="url(#paint21_linear_14271_3378)" stroke-width="2" stroke-dasharray="4 4"/>
<path d="M295 300L295 278.214C295 268.825 302.611 261.214 312 261.214L327 261.214C332.523 261.214 337 256.737 337 251.214L337 236.826" stroke="url(#paint22_linear_14271_3378)" stroke-width="2" stroke-dasharray="4 4"/>
<path d="M294 101.674L294 112.552C294 121.941 286.389 129.552 277 129.552L110 129.552C104.477 129.552 100 134.029 100 139.552L100 154.174" stroke="url(#paint23_linear_14271_3378)" stroke-width="2" stroke-dasharray="4 4"/>
<path d="M294 102.174L294 112.786C294 122.175 286.389 129.786 277 129.786L196 129.786C187.163 129.786 180 136.95 180 145.786L180 154.174" stroke="url(#paint24_linear_14271_3378)" stroke-width="2" stroke-dasharray="4 4"/>
<path d="M294 91L294 112.786C294 122.175 286.389 129.786 277 129.786L262 129.786C256.477 129.786 252 134.263 252 139.786L252 154.174" stroke="url(#paint25_linear_14271_3378)" stroke-width="2" stroke-dasharray="4 4"/>
<path d="M294 289.326L294 278.448C294 269.059 286.389 261.448 277 261.448L110 261.448C104.477 261.448 100 256.971 100 251.448L100 236.826" stroke="url(#paint26_linear_14271_3378)" stroke-width="2" stroke-dasharray="4 4"/>
<path d="M294 288.826L294 278.214C294 268.825 286.389 261.214 277 261.214L196 261.214C187.163 261.214 180 254.05 180 245.214L180 236.826" stroke="url(#paint27_linear_14271_3378)" stroke-width="2" stroke-dasharray="4 4"/>
<path d="M294 300L294 278.214C294 268.825 286.389 261.214 277 261.214L262 261.214C256.477 261.214 252 256.737 252 251.214L252 236.826" stroke="url(#paint28_linear_14271_3378)" stroke-width="2" stroke-dasharray="4 4"/>
<path d="M295 101.674L295 112.552C295 121.941 302.611 129.552 312 129.552L479 129.552C484.523 129.552 489 134.029 489 139.552L489 154.174" stroke="url(#paint29_linear_14271_3378)" stroke-width="2" stroke-dasharray="4 4"/>
<path d="M295 102.174L295 112.786C295 122.175 302.611 129.786 312 129.786L393 129.786C401.837 129.786 409 136.95 409 145.786L409 154.174" stroke="url(#paint30_linear_14271_3378)" stroke-width="2" stroke-dasharray="4 4"/>
<path d="M295 91L295 112.786C295 122.175 302.611 129.786 312 129.786L327 129.786C332.523 129.786 337 134.263 337 139.786L337 154.174" stroke="url(#paint31_linear_14271_3378)" stroke-width="2" stroke-dasharray="4 4"/>
<g filter="url(#filter6_dd_14271_3378)">
<ellipse cx="5" cy="5" rx="5" ry="5" transform="matrix(1 8.74228e-08 8.74228e-08 -1 363 266.826)" fill="#D1CCFF"/>
</g>
<g filter="url(#filter7_dd_14271_3378)">
<ellipse cx="3.5" cy="3.5" rx="3.5" ry="3.5" transform="matrix(1 8.74228e-08 8.74228e-08 -1 178 248.826)" fill="#D1CCFF"/>
</g>
<g filter="url(#filter8_dd_14271_3378)">
<ellipse cx="5" cy="5" rx="5" ry="5" transform="matrix(1 8.74228e-08 8.74228e-08 -1 111 266.826)" fill="#D1CCFF"/>
</g>
<g filter="url(#filter9_dd_14271_3378)">
<ellipse cx="3.5" cy="3.5" rx="3.5" ry="3.5" transform="matrix(1 8.74228e-08 8.74228e-08 -1 483 262)" fill="#D1CCFF"/>
</g>
<g filter="url(#filter10_bd_14271_3378)">
<mask id="path-109-outside-1_14271_3378" maskUnits="userSpaceOnUse" x="109" y="424" width="86" height="57" fill="black">
<rect fill="white" x="109" y="424" width="86" height="57"/>
<path fill-rule="evenodd" clip-rule="evenodd" d="M192.888 460.604C192.888 451.232 186.237 443.492 177.623 442.309C176.4 433.094 168.868 426 159.758 426C153.49 426 147.968 429.359 144.735 434.457C142.815 431.362 139.491 429.316 135.712 429.316C129.767 429.316 124.948 434.378 124.948 440.623C124.948 441.277 125.001 441.917 125.102 442.54C117.061 444.218 111 451.676 111 460.621C111 470.803 118.851 479.056 128.535 479.056C128.686 479.056 128.835 479.054 128.985 479.05V479.056H158.64C158.683 479.056 158.725 479.056 158.768 479.056C158.811 479.056 158.854 479.056 158.896 479.056H175.746V479.049C185.251 478.814 192.888 470.646 192.888 460.604Z"/>
</mask>
<path fill-rule="evenodd" clip-rule="evenodd" d="M192.888 460.604C192.888 451.232 186.237 443.492 177.623 442.309C176.4 433.094 168.868 426 159.758 426C153.49 426 147.968 429.359 144.735 434.457C142.815 431.362 139.491 429.316 135.712 429.316C129.767 429.316 124.948 434.378 124.948 440.623C124.948 441.277 125.001 441.917 125.102 442.54C117.061 444.218 111 451.676 111 460.621C111 470.803 118.851 479.056 128.535 479.056C128.686 479.056 128.835 479.054 128.985 479.05V479.056H158.64C158.683 479.056 158.725 479.056 158.768 479.056C158.811 479.056 158.854 479.056 158.896 479.056H175.746V479.049C185.251 478.814 192.888 470.646 192.888 460.604Z" fill="url(#paint32_linear_14271_3378)" shape-rendering="crispEdges"/>
<path d="M177.623 442.309L176.072 442.515L176.229 443.696L177.41 443.859L177.623 442.309ZM144.735 434.457L143.407 435.281L144.721 437.4L146.056 435.294L144.735 434.457ZM125.102 442.54L125.421 444.071L126.886 443.765L126.646 442.289L125.102 442.54ZM128.985 479.05H130.549V477.444L128.943 477.487L128.985 479.05ZM128.985 479.056H127.421V480.62H128.985V479.056ZM158.64 479.056L158.65 477.492H158.64V479.056ZM158.896 479.056V477.492L158.886 477.492L158.896 479.056ZM175.746 479.056V480.62H177.31V479.056H175.746ZM175.746 479.049L175.707 477.486L174.182 477.523V479.049H175.746ZM177.41 443.859C185.202 444.928 191.324 451.964 191.324 460.604H194.452C194.452 450.499 187.271 442.055 177.835 440.76L177.41 443.859ZM159.758 427.564C168.015 427.564 174.943 434.007 176.072 442.515L179.173 442.104C177.856 432.181 169.72 424.436 159.758 424.436V427.564ZM146.056 435.294C149.027 430.61 154.07 427.564 159.758 427.564V424.436C152.91 424.436 146.91 428.108 143.415 433.619L146.056 435.294ZM135.712 430.88C138.904 430.88 141.747 432.606 143.407 435.281L146.064 433.632C143.883 430.118 140.077 427.752 135.712 427.752V430.88ZM126.512 440.623C126.512 435.168 130.702 430.88 135.712 430.88V427.752C128.832 427.752 123.384 433.588 123.384 440.623H126.512ZM126.646 442.289C126.558 441.749 126.512 441.192 126.512 440.623H123.384C123.384 441.361 123.444 442.085 123.558 442.791L126.646 442.289ZM112.564 460.621C112.564 452.378 118.143 445.59 125.421 444.071L124.783 441.009C115.98 442.846 109.436 450.974 109.436 460.621H112.564ZM128.535 477.492C119.787 477.492 112.564 470.014 112.564 460.621H109.436C109.436 471.592 117.914 480.62 128.535 480.62V477.492ZM128.943 477.487C128.808 477.49 128.672 477.492 128.535 477.492V480.62C128.699 480.62 128.863 480.618 129.026 480.613L128.943 477.487ZM130.549 479.056V479.05H127.421V479.056H130.549ZM158.64 477.492H128.985V480.62H158.64V477.492ZM158.768 477.492C158.729 477.492 158.69 477.492 158.65 477.492L158.63 480.62C158.676 480.62 158.722 480.62 158.768 480.62V477.492ZM158.886 477.492C158.847 477.492 158.808 477.492 158.768 477.492V480.62C158.814 480.62 158.861 480.62 158.907 480.62L158.886 477.492ZM175.746 477.492H158.896V480.62H175.746V477.492ZM174.182 479.049V479.056H177.31V479.049H174.182ZM191.324 460.604C191.324 469.866 184.297 477.273 175.707 477.486L175.784 480.612C186.205 480.355 194.452 471.426 194.452 460.604H191.324Z" fill="url(#paint33_linear_14271_3378)" mask="url(#path-109-outside-1_14271_3378)"/>
</g>
<path d="M142.287 462.463H133.756L131.867 467.468H127.618L136.148 445.717H140.115L148.645 467.468H144.175L142.287 462.463ZM134.763 459.189H141.279L138.037 450.407L134.763 459.189ZM151.385 445.748H158.373C160.545 445.748 162.434 446.189 163.819 447.353C165.235 448.518 166.085 450.061 166.085 452.264C166.085 454.468 165.235 456.041 163.819 457.206C162.434 458.371 160.545 458.906 158.373 458.906H155.509V467.468H151.385V445.748ZM157.869 455.695C159.129 455.695 159.978 455.38 160.671 454.877C161.364 454.373 161.867 453.492 161.867 452.264C161.867 451.068 161.269 450.187 160.577 449.683C159.884 449.179 159.034 448.959 157.775 448.959H155.477V455.695H157.869ZM169.476 445.748H173.568V467.468H169.476V445.748Z" fill="white"/>
<g filter="url(#filter11_bd_14271_3378)">
<rect x="188" y="42" width="214" height="42" rx="7.63636" fill="url(#paint34_linear_14271_3378)" shape-rendering="crispEdges"/>
<rect x="187.375" y="41.3747" width="215.251" height="43.2505" rx="8.26164" stroke="url(#paint35_linear_14271_3378)" stroke-width="1.25055" shape-rendering="crispEdges"/>
</g>
<path fill-rule="evenodd" clip-rule="evenodd" d="M207.194 52.375C206.67 52.375 206.25 52.7954 206.25 53.3187V76.7245C206.25 77.2478 206.67 77.6682 207.194 77.6682H220.568C221.092 77.6682 221.512 77.2478 221.512 76.7245V66.7286H223.637V76.7245C223.637 78.4214 222.265 79.7932 220.568 79.7932H207.194C205.497 79.7932 204.125 78.4214 204.125 76.7245V53.3187C204.125 51.6218 205.497 50.25 207.194 50.25H212.614V52.375H207.194Z" fill="white"/>
<path fill-rule="evenodd" clip-rule="evenodd" d="M204.019 53.3188C204.019 51.5632 205.438 50.1438 207.194 50.1438H212.72V52.4813H207.194C206.729 52.4813 206.357 52.8541 206.357 53.3188V76.7246C206.357 77.1892 206.729 77.562 207.194 77.562H220.569C221.033 77.562 221.406 77.1892 221.406 76.7246V66.6224H223.744V76.7246C223.744 78.4801 222.324 79.8995 220.569 79.8995H207.194C205.438 79.8995 204.019 78.4801 204.019 76.7246V53.3188ZM207.194 50.3563C205.556 50.3563 204.232 51.6805 204.232 53.3188V76.7246C204.232 78.3628 205.556 79.687 207.194 79.687H220.569C222.207 79.687 223.531 78.3628 223.531 76.7246V66.8349H221.619V76.7246C221.619 77.3065 221.151 77.7745 220.569 77.7745H207.194C206.612 77.7745 206.144 77.3065 206.144 76.7246V53.3188C206.144 52.7368 206.612 52.2688 207.194 52.2688H212.508V50.3563H207.194Z" fill="white"/>
<path fill-rule="evenodd" clip-rule="evenodd" d="M218.371 64.1965H232.414C233.524 64.1965 234.42 63.3003 234.42 62.1902V49.4842C234.42 48.3741 233.524 47.478 232.414 47.478H217.033C215.923 47.478 215.027 48.3741 215.027 49.4842V67.5401L218.371 64.1965ZM225.255 50.5987C225.878 50.8842 226.422 51.5827 226.422 52.786C226.422 53.211 226.352 53.6068 226.286 53.9097C226.273 53.9672 226.261 54.0226 226.248 54.0744H227.871C228.849 54.0744 229.551 55.0193 229.397 55.9404L229.397 55.9411L228.863 59.2057C228.851 59.508 228.684 59.7813 228.495 59.9686C228.299 60.1629 228.012 60.3321 227.699 60.3321H223.593C223.293 60.3321 223.061 60.2934 222.868 60.225C222.672 60.1558 222.537 60.0627 222.432 59.9843C222.41 59.9682 222.391 59.9537 222.374 59.9407L222.374 59.9406C222.301 59.886 222.261 59.8553 222.206 59.8287C222.151 59.8024 222.072 59.7771 221.928 59.7771H219.909V54.0744H221.767C221.767 54.0744 221.766 54.0744 221.768 54.074C221.775 54.0727 221.81 54.0661 221.88 54.0357C221.958 54.0015 222.056 53.9475 222.169 53.8733C222.394 53.7251 222.655 53.5108 222.904 53.2573C223.153 53.0036 223.38 52.7194 223.543 52.434C223.708 52.1453 223.793 51.8789 223.793 51.6539V51.099C223.793 50.7056 224.135 50.5266 224.375 50.4765C224.64 50.4216 224.957 50.4621 225.255 50.5987Z" fill="white"/>
<path fill-rule="evenodd" clip-rule="evenodd" d="M222.383 72.8681H204.996V70.9414H222.383V72.8681Z" fill="white"/>
<path fill-rule="evenodd" clip-rule="evenodd" d="M204.89 70.8352H222.49V72.9744H204.89V70.8352ZM205.103 71.0477V72.7619H222.277V71.0477H205.103Z" fill="white"/>
<path fill-rule="evenodd" clip-rule="evenodd" d="M215.027 75.7279H212.352V74.5576H215.027V75.7279Z" fill="white"/>
<path fill-rule="evenodd" clip-rule="evenodd" d="M212.423 55.9673H205.137V53.8423H212.423V55.9673Z" fill="white"/>
<path fill-rule="evenodd" clip-rule="evenodd" d="M205.031 53.7361H212.529V56.0736H205.031V53.7361ZM205.243 53.9486V55.8611H212.316V53.9486H205.243Z" fill="white"/>
<path d="M253.738 61.7228C256.1 62.6968 257.026 64.0117 257.026 66.1057C257.026 69.2225 254.737 71.2922 251.182 71.2922C248.308 71.2922 246.336 69.953 245.24 68.6868L246.75 66.3979C248.065 67.8346 249.648 68.6137 251.23 68.6137C252.789 68.6137 253.86 67.8589 253.86 66.3979C253.86 65.0831 252.984 64.6448 251.547 64.0604L248.917 63.0134C247.091 62.2829 245.874 60.9923 245.874 58.947C245.874 56.025 248.162 54.004 251.693 54.004C254.079 54.004 255.808 55.0024 256.806 56.025L255.297 58.2895C254.225 57.3156 252.935 56.6094 251.498 56.6094C250.11 56.6094 249.015 57.2912 249.015 58.533C249.015 59.7505 250.062 60.2132 250.938 60.5784L253.738 61.7228ZM265.352 71.2678C261.724 71.2678 258.948 68.8816 258.948 65.1561C258.948 61.4306 261.724 58.9957 265.352 58.9957C268.956 58.9957 271.732 61.4306 271.732 65.1561C271.732 68.8816 268.956 71.2678 265.352 71.2678ZM268.518 65.0831C268.518 63.0621 267.349 61.5037 265.352 61.5037C263.307 61.5037 262.187 63.0621 262.187 65.0831C262.187 67.1041 263.307 68.6868 265.352 68.6868C267.349 68.6868 268.518 67.1041 268.518 65.0831ZM283.444 67.3963L284.321 69.6851C284.077 69.9043 282.86 71.2678 279.719 71.2678C276.505 71.2678 273.534 69.052 273.534 65.2048C273.534 61.3332 276.602 58.9957 279.768 58.9957C282.738 58.9957 283.907 60.1888 284.223 60.5054L283.371 62.8429C283.006 62.502 281.959 61.6011 280.133 61.6011C278.282 61.6011 276.797 62.8916 276.797 65.0587C276.797 67.2258 278.282 68.6381 280.303 68.6381C282.324 68.6381 283.444 67.3963 283.444 67.3963ZM288.133 57.3399C287.037 57.3399 286.258 56.6338 286.258 55.6111C286.258 54.6128 287.037 53.8823 288.133 53.8823C289.228 53.8823 290.007 54.6128 290.007 55.6111C290.007 56.6338 289.228 57.3399 288.133 57.3399ZM286.574 59.2148H289.691V71H286.574V59.2148ZM299.988 69.6364C299.501 70.4887 298.138 71.2678 296.385 71.2678C294.096 71.2678 292.245 70.026 292.245 67.5667C292.245 65.1074 294.656 64.1578 297.091 63.9873L299.915 63.7925V63.476C299.915 61.9663 298.917 61.2602 297.286 61.2602C295.727 61.2602 294.437 61.8446 293.925 62.2342L292.976 60.2375C293.877 59.7018 295.533 58.9957 297.578 58.9957C299.672 58.9957 300.865 59.5314 301.742 60.3593C302.594 61.1871 303.032 62.2585 303.032 64.2552V71H300.037L299.988 69.6364ZM297.821 65.8135C296.166 65.9109 295.362 66.471 295.362 67.4693C295.362 68.4676 296.117 69.1494 297.407 69.1494C298.625 69.1494 299.526 68.4433 299.94 67.8589V65.6918L297.821 65.8135ZM306.31 54.1988H309.403V71H306.31V54.1988ZM332.952 58.3139H332.903L328.423 71.073H326.207L321.824 58.3139H321.751L320.85 71H317.806L319.194 54.1988H323.358L327.424 66.2518H327.473L331.588 54.1988H335.606L337.042 71H333.926L332.952 58.3139ZM342.4 66.1057C342.692 67.9807 344.129 68.8816 345.906 68.8816C347.489 68.8816 348.901 68.1755 349.461 67.6885L350.679 69.3686C350.021 70.0504 348.244 71.2678 345.37 71.2678C341.815 71.2678 339.186 69.1007 339.186 65.3022C339.186 61.528 341.937 58.9957 345.297 58.9957C348.926 58.9957 351.117 61.3819 351.117 64.523C351.117 65.1318 351.068 66.1057 351.068 66.1057H342.4ZM345.273 61.3089C343.423 61.3089 342.449 62.5994 342.351 64.0847H348C347.952 62.7942 347.465 61.3089 345.273 61.3089ZM362.752 69.1494H362.679C361.73 70.6591 360.269 71.2678 358.637 71.2678C355.18 71.2678 353.061 68.5894 353.061 65.0831C353.061 61.7472 355.277 58.9957 358.857 58.9957C360.439 58.9957 361.778 59.5801 362.606 60.8462H362.655C362.631 60.3106 362.631 59.6775 362.631 58.8496V54.1988H365.723V71H362.777L362.752 69.1494ZM359.514 68.7355C361.389 68.7355 362.704 67.2989 362.704 65.0831C362.704 63.1108 361.413 61.3819 359.417 61.3819C357.396 61.3819 356.227 63.1108 356.227 65.0831C356.227 67.1284 357.493 68.7355 359.514 68.7355ZM370.868 57.3399C369.772 57.3399 368.993 56.6338 368.993 55.6111C368.993 54.6128 369.772 53.8823 370.868 53.8823C371.963 53.8823 372.743 54.6128 372.743 55.6111C372.743 56.6338 371.963 57.3399 370.868 57.3399ZM369.309 59.2148H372.426V71H369.309V59.2148ZM382.724 69.6364C382.237 70.4887 380.873 71.2678 379.12 71.2678C376.831 71.2678 374.98 70.026 374.98 67.5667C374.98 65.1074 377.391 64.1578 379.826 63.9873L382.651 63.7925V63.476C382.651 61.9663 381.652 61.2602 380.021 61.2602C378.462 61.2602 377.172 61.8446 376.661 62.2342L375.711 60.2375C376.612 59.7018 378.268 58.9957 380.313 58.9957C382.407 58.9957 383.6 59.5314 384.477 60.3593C385.329 61.1871 385.767 62.2585 385.767 64.2552V71H382.772L382.724 69.6364ZM380.557 65.8135C378.901 65.9109 378.097 66.471 378.097 67.4693C378.097 68.4676 378.852 69.1494 380.143 69.1494C381.36 69.1494 382.261 68.4433 382.675 67.8589V65.6918L380.557 65.8135Z" fill="white"/>
<g filter="url(#filter12_dd_14271_3378)">
<ellipse cx="5.19355" cy="5.19355" rx="5.19355" ry="5.19355" transform="matrix(1 8.74228e-08 8.74228e-08 -1 307 135.387)" fill="#D1CCFF"/>
</g>
<g filter="url(#filter13_dd_14271_3378)">
<ellipse cx="3.63548" cy="3.63548" rx="3.63548" ry="3.63548" transform="matrix(1 8.74228e-08 8.74228e-08 -1 209 134.271)" fill="#D1CCFF"/>
</g>
<g filter="url(#filter14_dd_14271_3378)">
<ellipse cx="5.19355" cy="5.19355" rx="5.19355" ry="5.19355" transform="matrix(1 8.74228e-08 8.74228e-08 -1 130 135.387)" fill="#D1CCFF"/>
</g>
<g filter="url(#filter15_dd_14271_3378)">
<ellipse cx="3.63548" cy="3.63548" rx="3.63548" ry="3.63548" transform="matrix(1 8.74228e-08 8.74228e-08 -1 443 133.271)" fill="#D1CCFF"/>
</g>
<defs>
<filter id="filter0_f_14271_3378" x="0" y="108" width="593" height="178" filterUnits="userSpaceOnUse" color-interpolation-filters="sRGB">
<feFlood flood-opacity="0" result="BackgroundImageFix"/>
<feBlend mode="normal" in="SourceGraphic" in2="BackgroundImageFix" result="shape"/>
<feGaussianBlur stdDeviation="32" result="effect1_foregroundBlur_14271_3378"/>
</filter>
<filter id="filter1_f_14271_3378" x="54" y="222" width="478" height="351" filterUnits="userSpaceOnUse" color-interpolation-filters="sRGB">
<feFlood flood-opacity="0" result="BackgroundImageFix"/>
<feBlend mode="normal" in="SourceGraphic" in2="BackgroundImageFix" result="shape"/>
<feGaussianBlur stdDeviation="50" result="effect1_foregroundBlur_14271_3378"/>
</filter>
<filter id="filter2_bd_14271_3378" x="173.931" y="316.369" width="319.376" height="235.355" filterUnits="userSpaceOnUse" color-interpolation-filters="sRGB">
<feFlood flood-opacity="0" result="BackgroundImageFix"/>
<feGaussianBlur in="BackgroundImageFix" stdDeviation="21.1532"/>
<feComposite in2="SourceAlpha" operator="in" result="effect1_backgroundBlur_14271_3378"/>
<feColorMatrix in="SourceAlpha" type="matrix" values="0 0 0 0 0 0 0 0 0 0 0 0 0 0 0 0 0 0 127 0" result="hardAlpha"/>
<feMorphology radius="1.51889" operator="erode" in="SourceAlpha" result="effect2_dropShadow_14271_3378"/>
<feOffset dy="6.07555"/>
<feGaussianBlur stdDeviation="15.0541"/>
<feComposite in2="hardAlpha" operator="out"/>
<feColorMatrix type="matrix" values="0 0 0 0 0 0 0 0 0 0 0 0 0 0 0 0 0 0 0.2 0"/>
<feBlend mode="normal" in2="effect1_backgroundBlur_14271_3378" result="effect2_dropShadow_14271_3378"/>
<feBlend mode="normal" in="SourceGraphic" in2="effect2_dropShadow_14271_3378" result="shape"/>
</filter>
<filter id="filter3_bd_14271_3378" x="155.185" y="299.99" width="319.376" height="235.355" filterUnits="userSpaceOnUse" color-interpolation-filters="sRGB">
<feFlood flood-opacity="0" result="BackgroundImageFix"/>
<feGaussianBlur in="BackgroundImageFix" stdDeviation="21.1532"/>
<feComposite in2="SourceAlpha" operator="in" result="effect1_backgroundBlur_14271_3378"/>
<feColorMatrix in="SourceAlpha" type="matrix" values="0 0 0 0 0 0 0 0 0 0 0 0 0 0 0 0 0 0 127 0" result="hardAlpha"/>
<feMorphology radius="1.51889" operator="erode" in="SourceAlpha" result="effect2_dropShadow_14271_3378"/>
<feOffset dy="6.07555"/>
<feGaussianBlur stdDeviation="15.0541"/>
<feComposite in2="hardAlpha" operator="out"/>
<feColorMatrix type="matrix" values="0 0 0 0 0 0 0 0 0 0 0 0 0 0 0 0 0 0 0.2 0"/>
<feBlend mode="normal" in2="effect1_backgroundBlur_14271_3378" result="effect2_dropShadow_14271_3378"/>
<feBlend mode="normal" in="SourceGraphic" in2="effect2_dropShadow_14271_3378" result="shape"/>
</filter>
<filter id="filter4_bd_14271_3378" x="136.439" y="279.516" width="319.376" height="235.355" filterUnits="userSpaceOnUse" color-interpolation-filters="sRGB">
<feFlood flood-opacity="0" result="BackgroundImageFix"/>
<feGaussianBlur in="BackgroundImageFix" stdDeviation="21.1532"/>
<feComposite in2="SourceAlpha" operator="in" result="effect1_backgroundBlur_14271_3378"/>
<feColorMatrix in="SourceAlpha" type="matrix" values="0 0 0 0 0 0 0 0 0 0 0 0 0 0 0 0 0 0 127 0" result="hardAlpha"/>
<feMorphology radius="1.51889" operator="erode" in="SourceAlpha" result="effect2_dropShadow_14271_3378"/>
<feOffset dy="6.07555"/>
<feGaussianBlur stdDeviation="15.0541"/>
<feComposite in2="hardAlpha" operator="out"/>
<feColorMatrix type="matrix" values="0 0 0 0 0 0 0 0 0 0 0 0 0 0 0 0 0 0 0.2 0"/>
<feBlend mode="normal" in2="effect1_backgroundBlur_14271_3378" result="effect2_dropShadow_14271_3378"/>
<feBlend mode="normal" in="SourceGraphic" in2="effect2_dropShadow_14271_3378" result="shape"/>
</filter>
<filter id="filter5_bd_14271_3378" x="127.643" y="274.469" width="299.662" height="215.931" filterUnits="userSpaceOnUse" color-interpolation-filters="sRGB">
<feFlood flood-opacity="0" result="BackgroundImageFix"/>
<feGaussianBlur in="BackgroundImageFix" stdDeviation="16.1787"/>
<feComposite in2="SourceAlpha" operator="in" result="effect1_backgroundBlur_14271_3378"/>
<feColorMatrix in="SourceAlpha" type="matrix" values="0 0 0 0 0 0 0 0 0 0 0 0 0 0 0 0 0 0 127 0" result="hardAlpha"/>
<feMorphology radius="1.1617" operator="erode" in="SourceAlpha" result="effect2_dropShadow_14271_3378"/>
<feOffset dy="4.64679"/>
<feGaussianBlur stdDeviation="11.5139"/>
<feComposite in2="hardAlpha" operator="out"/>
<feColorMatrix type="matrix" values="0 0 0 0 0 0 0 0 0 0 0 0 0 0 0 0 0 0 0.2 0"/>
<feBlend mode="normal" in2="effect1_backgroundBlur_14271_3378" result="effect2_dropShadow_14271_3378"/>
<feBlend mode="normal" in="SourceGraphic" in2="effect2_dropShadow_14271_3378" result="shape"/>
</filter>
<filter id="filter6_dd_14271_3378" x="347.479" y="241.305" width="41.0418" height="41.0418" filterUnits="userSpaceOnUse" color-interpolation-filters="sRGB">
<feFlood flood-opacity="0" result="BackgroundImageFix"/>
<feColorMatrix in="SourceAlpha" type="matrix" values="0 0 0 0 0 0 0 0 0 0 0 0 0 0 0 0 0 0 127 0" result="hardAlpha"/>
<feOffset/>
<feGaussianBlur stdDeviation="3.10418"/>
<feColorMatrix type="matrix" values="0 0 0 0 0.854902 0 0 0 0 0.847059 0 0 0 0 1 0 0 0 1 0"/>
<feBlend mode="normal" in2="BackgroundImageFix" result="effect1_dropShadow_14271_3378"/>
<feColorMatrix in="SourceAlpha" type="matrix" values="0 0 0 0 0 0 0 0 0 0 0 0 0 0 0 0 0 0 127 0" result="hardAlpha"/>
<feOffset/>
<feGaussianBlur stdDeviation="7.76044"/>
<feColorMatrix type="matrix" values="0 0 0 0 0.854902 0 0 0 0 0.847059 0 0 0 0 1 0 0 0 1 0"/>
<feBlend mode="normal" in2="effect1_dropShadow_14271_3378" result="effect2_dropShadow_14271_3378"/>
<feBlend mode="normal" in="SourceGraphic" in2="effect2_dropShadow_14271_3378" result="shape"/>
</filter>
<filter id="filter7_dd_14271_3378" x="162.479" y="226.305" width="38.0418" height="38.0418" filterUnits="userSpaceOnUse" color-interpolation-filters="sRGB">
<feFlood flood-opacity="0" result="BackgroundImageFix"/>
<feColorMatrix in="SourceAlpha" type="matrix" values="0 0 0 0 0 0 0 0 0 0 0 0 0 0 0 0 0 0 127 0" result="hardAlpha"/>
<feOffset/>
<feGaussianBlur stdDeviation="3.10418"/>
<feColorMatrix type="matrix" values="0 0 0 0 0.854902 0 0 0 0 0.847059 0 0 0 0 1 0 0 0 1 0"/>
<feBlend mode="normal" in2="BackgroundImageFix" result="effect1_dropShadow_14271_3378"/>
<feColorMatrix in="SourceAlpha" type="matrix" values="0 0 0 0 0 0 0 0 0 0 0 0 0 0 0 0 0 0 127 0" result="hardAlpha"/>
<feOffset/>
<feGaussianBlur stdDeviation="7.76044"/>
<feColorMatrix type="matrix" values="0 0 0 0 0.854902 0 0 0 0 0.847059 0 0 0 0 1 0 0 0 1 0"/>
<feBlend mode="normal" in2="effect1_dropShadow_14271_3378" result="effect2_dropShadow_14271_3378"/>
<feBlend mode="normal" in="SourceGraphic" in2="effect2_dropShadow_14271_3378" result="shape"/>
</filter>
<filter id="filter8_dd_14271_3378" x="95.4791" y="241.305" width="41.0418" height="41.0418" filterUnits="userSpaceOnUse" color-interpolation-filters="sRGB">
<feFlood flood-opacity="0" result="BackgroundImageFix"/>
<feColorMatrix in="SourceAlpha" type="matrix" values="0 0 0 0 0 0 0 0 0 0 0 0 0 0 0 0 0 0 127 0" result="hardAlpha"/>
<feOffset/>
<feGaussianBlur stdDeviation="3.10418"/>
<feColorMatrix type="matrix" values="0 0 0 0 0.854902 0 0 0 0 0.847059 0 0 0 0 1 0 0 0 1 0"/>
<feBlend mode="normal" in2="BackgroundImageFix" result="effect1_dropShadow_14271_3378"/>
<feColorMatrix in="SourceAlpha" type="matrix" values="0 0 0 0 0 0 0 0 0 0 0 0 0 0 0 0 0 0 127 0" result="hardAlpha"/>
<feOffset/>
<feGaussianBlur stdDeviation="7.76044"/>
<feColorMatrix type="matrix" values="0 0 0 0 0.854902 0 0 0 0 0.847059 0 0 0 0 1 0 0 0 1 0"/>
<feBlend mode="normal" in2="effect1_dropShadow_14271_3378" result="effect2_dropShadow_14271_3378"/>
<feBlend mode="normal" in="SourceGraphic" in2="effect2_dropShadow_14271_3378" result="shape"/>
</filter>
<filter id="filter9_dd_14271_3378" x="467.479" y="239.479" width="38.0418" height="38.0418" filterUnits="userSpaceOnUse" color-interpolation-filters="sRGB">
<feFlood flood-opacity="0" result="BackgroundImageFix"/>
<feColorMatrix in="SourceAlpha" type="matrix" values="0 0 0 0 0 0 0 0 0 0 0 0 0 0 0 0 0 0 127 0" result="hardAlpha"/>
<feOffset/>
<feGaussianBlur stdDeviation="3.10418"/>
<feColorMatrix type="matrix" values="0 0 0 0 0.854902 0 0 0 0 0.847059 0 0 0 0 1 0 0 0 1 0"/>
<feBlend mode="normal" in2="BackgroundImageFix" result="effect1_dropShadow_14271_3378"/>
<feColorMatrix in="SourceAlpha" type="matrix" values="0 0 0 0 0 0 0 0 0 0 0 0 0 0 0 0 0 0 127 0" result="hardAlpha"/>
<feOffset/>
<feGaussianBlur stdDeviation="7.76044"/>
<feColorMatrix type="matrix" values="0 0 0 0 0.854902 0 0 0 0 0.847059 0 0 0 0 1 0 0 0 1 0"/>
<feBlend mode="normal" in2="effect1_dropShadow_14271_3378" result="effect2_dropShadow_14271_3378"/>
<feBlend mode="normal" in="SourceGraphic" in2="effect2_dropShadow_14271_3378" result="shape"/>
</filter>
<filter id="filter10_bd_14271_3378" x="105.266" y="420.266" width="93.356" height="68.6944" filterUnits="userSpaceOnUse" color-interpolation-filters="sRGB">
<feFlood flood-opacity="0" result="BackgroundImageFix"/>
<feGaussianBlur in="BackgroundImageFix" stdDeviation="2.08509"/>
<feComposite in2="SourceAlpha" operator="in" result="effect1_backgroundBlur_14271_3378"/>
<feColorMatrix in="SourceAlpha" type="matrix" values="0 0 0 0 0 0 0 0 0 0 0 0 0 0 0 0 0 0 127 0" result="hardAlpha"/>
<feOffset dy="4.17018"/>
<feGaussianBlur stdDeviation="2.08509"/>
<feComposite in2="hardAlpha" operator="out"/>
<feColorMatrix type="matrix" values="0 0 0 0 0 0 0 0 0 0 0 0 0 0 0 0 0 0 0.25 0"/>
<feBlend mode="normal" in2="effect1_backgroundBlur_14271_3378" result="effect2_dropShadow_14271_3378"/>
<feBlend mode="normal" in="SourceGraphic" in2="effect2_dropShadow_14271_3378" result="shape"/>
</filter>
<filter id="filter11_bd_14271_3378" x="183.415" y="37.4147" width="223.171" height="54.5054" filterUnits="userSpaceOnUse" color-interpolation-filters="sRGB">
<feFlood flood-opacity="0" result="BackgroundImageFix"/>
<feGaussianBlur in="BackgroundImageFix" stdDeviation="1.6674"/>
<feComposite in2="SourceAlpha" operator="in" result="effect1_backgroundBlur_14271_3378"/>
<feColorMatrix in="SourceAlpha" type="matrix" values="0 0 0 0 0 0 0 0 0 0 0 0 0 0 0 0 0 0 127 0" result="hardAlpha"/>
<feOffset dy="3.3348"/>
<feGaussianBlur stdDeviation="1.6674"/>
<feComposite in2="hardAlpha" operator="out"/>
<feColorMatrix type="matrix" values="0 0 0 0 0 0 0 0 0 0 0 0 0 0 0 0 0 0 0.25 0"/>
<feBlend mode="normal" in2="effect1_backgroundBlur_14271_3378" result="effect2_dropShadow_14271_3378"/>
<feBlend mode="normal" in="SourceGraphic" in2="effect2_dropShadow_14271_3378" result="shape"/>
</filter>
<filter id="filter12_dd_14271_3378" x="290.878" y="108.878" width="42.6306" height="42.6306" filterUnits="userSpaceOnUse" color-interpolation-filters="sRGB">
<feFlood flood-opacity="0" result="BackgroundImageFix"/>
<feColorMatrix in="SourceAlpha" type="matrix" values="0 0 0 0 0 0 0 0 0 0 0 0 0 0 0 0 0 0 127 0" result="hardAlpha"/>
<feOffset/>
<feGaussianBlur stdDeviation="3.22434"/>
<feColorMatrix type="matrix" values="0 0 0 0 0.854902 0 0 0 0 0.847059 0 0 0 0 1 0 0 0 1 0"/>
<feBlend mode="normal" in2="BackgroundImageFix" result="effect1_dropShadow_14271_3378"/>
<feColorMatrix in="SourceAlpha" type="matrix" values="0 0 0 0 0 0 0 0 0 0 0 0 0 0 0 0 0 0 127 0" result="hardAlpha"/>
<feOffset/>
<feGaussianBlur stdDeviation="8.06084"/>
<feColorMatrix type="matrix" values="0 0 0 0 0.854902 0 0 0 0 0.847059 0 0 0 0 1 0 0 0 1 0"/>
<feBlend mode="normal" in2="effect1_dropShadow_14271_3378" result="effect2_dropShadow_14271_3378"/>
<feBlend mode="normal" in="SourceGraphic" in2="effect2_dropShadow_14271_3378" result="shape"/>
</filter>
<filter id="filter13_dd_14271_3378" x="192.878" y="110.878" width="39.5144" height="39.5144" filterUnits="userSpaceOnUse" color-interpolation-filters="sRGB">
<feFlood flood-opacity="0" result="BackgroundImageFix"/>
<feColorMatrix in="SourceAlpha" type="matrix" values="0 0 0 0 0 0 0 0 0 0 0 0 0 0 0 0 0 0 127 0" result="hardAlpha"/>
<feOffset/>
<feGaussianBlur stdDeviation="3.22434"/>
<feColorMatrix type="matrix" values="0 0 0 0 0.854902 0 0 0 0 0.847059 0 0 0 0 1 0 0 0 1 0"/>
<feBlend mode="normal" in2="BackgroundImageFix" result="effect1_dropShadow_14271_3378"/>
<feColorMatrix in="SourceAlpha" type="matrix" values="0 0 0 0 0 0 0 0 0 0 0 0 0 0 0 0 0 0 127 0" result="hardAlpha"/>
<feOffset/>
<feGaussianBlur stdDeviation="8.06084"/>
<feColorMatrix type="matrix" values="0 0 0 0 0.854902 0 0 0 0 0.847059 0 0 0 0 1 0 0 0 1 0"/>
<feBlend mode="normal" in2="effect1_dropShadow_14271_3378" result="effect2_dropShadow_14271_3378"/>
<feBlend mode="normal" in="SourceGraphic" in2="effect2_dropShadow_14271_3378" result="shape"/>
</filter>
<filter id="filter14_dd_14271_3378" x="113.878" y="108.878" width="42.6306" height="42.6306" filterUnits="userSpaceOnUse" color-interpolation-filters="sRGB">
<feFlood flood-opacity="0" result="BackgroundImageFix"/>
<feColorMatrix in="SourceAlpha" type="matrix" values="0 0 0 0 0 0 0 0 0 0 0 0 0 0 0 0 0 0 127 0" result="hardAlpha"/>
<feOffset/>
<feGaussianBlur stdDeviation="3.22434"/>
<feColorMatrix type="matrix" values="0 0 0 0 0.854902 0 0 0 0 0.847059 0 0 0 0 1 0 0 0 1 0"/>
<feBlend mode="normal" in2="BackgroundImageFix" result="effect1_dropShadow_14271_3378"/>
<feColorMatrix in="SourceAlpha" type="matrix" values="0 0 0 0 0 0 0 0 0 0 0 0 0 0 0 0 0 0 127 0" result="hardAlpha"/>
<feOffset/>
<feGaussianBlur stdDeviation="8.06084"/>
<feColorMatrix type="matrix" values="0 0 0 0 0.854902 0 0 0 0 0.847059 0 0 0 0 1 0 0 0 1 0"/>
<feBlend mode="normal" in2="effect1_dropShadow_14271_3378" result="effect2_dropShadow_14271_3378"/>
<feBlend mode="normal" in="SourceGraphic" in2="effect2_dropShadow_14271_3378" result="shape"/>
</filter>
<filter id="filter15_dd_14271_3378" x="426.878" y="109.878" width="39.5144" height="39.5144" filterUnits="userSpaceOnUse" color-interpolation-filters="sRGB">
<feFlood flood-opacity="0" result="BackgroundImageFix"/>
<feColorMatrix in="SourceAlpha" type="matrix" values="0 0 0 0 0 0 0 0 0 0 0 0 0 0 0 0 0 0 127 0" result="hardAlpha"/>
<feOffset/>
<feGaussianBlur stdDeviation="3.22434"/>
<feColorMatrix type="matrix" values="0 0 0 0 0.854902 0 0 0 0 0.847059 0 0 0 0 1 0 0 0 1 0"/>
<feBlend mode="normal" in2="BackgroundImageFix" result="effect1_dropShadow_14271_3378"/>
<feColorMatrix in="SourceAlpha" type="matrix" values="0 0 0 0 0 0 0 0 0 0 0 0 0 0 0 0 0 0 127 0" result="hardAlpha"/>
<feOffset/>
<feGaussianBlur stdDeviation="8.06084"/>
<feColorMatrix type="matrix" values="0 0 0 0 0.854902 0 0 0 0 0.847059 0 0 0 0 1 0 0 0 1 0"/>
<feBlend mode="normal" in2="effect1_dropShadow_14271_3378" result="effect2_dropShadow_14271_3378"/>
<feBlend mode="normal" in="SourceGraphic" in2="effect2_dropShadow_14271_3378" result="shape"/>
</filter>
<linearGradient id="paint0_linear_14271_3378" x1="75.7688" y1="168.835" x2="132.82" y2="227.82" gradientUnits="userSpaceOnUse">
<stop offset="0.173212" stop-color="#0E2446"/>
<stop offset="1" stop-color="#003C97"/>
</linearGradient>
<linearGradient id="paint1_linear_14271_3378" x1="101.106" y1="164" x2="101.106" y2="227.654" gradientUnits="userSpaceOnUse">
<stop stop-color="white" stop-opacity="0.09"/>
<stop offset="1" stop-color="#9D97F4"/>
</linearGradient>
<linearGradient id="paint2_linear_14271_3378" x1="150.138" y1="168.835" x2="205.256" y2="227.82" gradientUnits="userSpaceOnUse">
<stop stop-color="#0E2446"/>
<stop offset="1" stop-color="#003C97"/>
</linearGradient>
<linearGradient id="paint3_linear_14271_3378" x1="177.318" y1="164" x2="177.318" y2="227.654" gradientUnits="userSpaceOnUse">
<stop stop-color="white" stop-opacity="0.09"/>
<stop offset="1" stop-color="#9D97F4"/>
</linearGradient>
<linearGradient id="paint4_linear_14271_3378" x1="229.344" y1="168.835" x2="285.428" y2="227.82" gradientUnits="userSpaceOnUse">
<stop stop-color="#0E2446"/>
<stop offset="1" stop-color="#003C97"/>
</linearGradient>
<linearGradient id="paint5_linear_14271_3378" x1="253.53" y1="164" x2="253.53" y2="227.654" gradientUnits="userSpaceOnUse">
<stop stop-color="white" stop-opacity="0.09"/>
<stop offset="1" stop-color="#9D97F4"/>
</linearGradient>
<linearGradient id="paint6_linear_14271_3378" x1="310.802" y1="168.756" x2="368.82" y2="227.258" gradientUnits="userSpaceOnUse">
<stop stop-color="#0E2446"/>
<stop offset="1" stop-color="#003C97"/>
</linearGradient>
<linearGradient id="paint7_linear_14271_3378" x1="337.106" y1="164" x2="337.106" y2="227.654" gradientUnits="userSpaceOnUse">
<stop stop-color="white" stop-opacity="0.09"/>
<stop offset="1" stop-color="#9D97F4"/>
</linearGradient>
<linearGradient id="paint8_linear_14271_3378" x1="387.105" y1="170.207" x2="438.839" y2="227.258" gradientUnits="userSpaceOnUse">
<stop stop-color="#0E2446"/>
<stop offset="1" stop-color="#003C97"/>
</linearGradient>
<linearGradient id="paint9_linear_14271_3378" x1="413.318" y1="164" x2="413.318" y2="227.654" gradientUnits="userSpaceOnUse">
<stop stop-color="white" stop-opacity="0.09"/>
<stop offset="1" stop-color="#9D97F4"/>
</linearGradient>
<linearGradient id="paint10_linear_14271_3378" x1="463.893" y1="170.207" x2="512.726" y2="227.258" gradientUnits="userSpaceOnUse">
<stop stop-color="#0E2446"/>
<stop offset="1" stop-color="#003C97"/>
</linearGradient>
<linearGradient id="paint11_linear_14271_3378" x1="489.53" y1="164" x2="489.53" y2="227.654" gradientUnits="userSpaceOnUse">
<stop stop-color="white" stop-opacity="0.09"/>
<stop offset="1" stop-color="#9D97F4"/>
</linearGradient>
<linearGradient id="paint12_linear_14271_3378" x1="216.237" y1="365.053" x2="456.885" y2="511.953" gradientUnits="userSpaceOnUse">
<stop offset="0.27" stop-color="#0E2446"/>
<stop offset="1" stop-color="#003C97"/>
</linearGradient>
<linearGradient id="paint13_linear_14271_3378" x1="248.15" y1="361.69" x2="419.971" y2="504.833" gradientUnits="userSpaceOnUse">
<stop stop-color="white" stop-opacity="0"/>
<stop offset="1" stop-color="#BBB7FF"/>
</linearGradient>
<linearGradient id="paint14_linear_14271_3378" x1="197.492" y1="348.674" x2="438.139" y2="495.574" gradientUnits="userSpaceOnUse">
<stop offset="0.27" stop-color="#0E2446"/>
<stop offset="1" stop-color="#003C97"/>
</linearGradient>
<linearGradient id="paint15_linear_14271_3378" x1="229.405" y1="345.311" x2="401.226" y2="488.455" gradientUnits="userSpaceOnUse">
<stop stop-color="white" stop-opacity="0"/>
<stop offset="1" stop-color="#BBB7FF"/>
</linearGradient>
<linearGradient id="paint16_linear_14271_3378" x1="178.746" y1="328.2" x2="419.393" y2="475.1" gradientUnits="userSpaceOnUse">
<stop offset="0.27" stop-color="#0E2446"/>
<stop offset="1" stop-color="#003C97"/>
</linearGradient>
<linearGradient id="paint17_linear_14271_3378" x1="210.659" y1="324.838" x2="382.48" y2="467.981" gradientUnits="userSpaceOnUse">
<stop stop-color="white" stop-opacity="0"/>
<stop offset="1" stop-color="#BBB7FF"/>
</linearGradient>
<linearGradient id="paint18_linear_14271_3378" x1="194" y1="300.326" x2="395.174" y2="448.783" gradientUnits="userSpaceOnUse">
<stop offset="0.28" stop-color="#092349"/>
<stop offset="1" stop-color="#003C97"/>
</linearGradient>
<linearGradient id="paint19_linear_14271_3378" x1="191.938" y1="309.85" x2="364.225" y2="453.045" gradientUnits="userSpaceOnUse">
<stop stop-color="white" stop-opacity="0"/>
<stop offset="1" stop-color="#BBB7FF"/>
</linearGradient>
<linearGradient id="paint20_linear_14271_3378" x1="279.584" y1="316.553" x2="323.416" y2="159.336" gradientUnits="userSpaceOnUse">
<stop stop-color="#C3BFFF"/>
<stop offset="0.7" stop-color="#C3BFFF"/>
<stop offset="1" stop-color="#091B36" stop-opacity="0"/>
</linearGradient>
<linearGradient id="paint21_linear_14271_3378" x1="285.941" y1="315.793" x2="351.719" y2="179.523" gradientUnits="userSpaceOnUse">
<stop stop-color="#C3BFFF"/>
<stop offset="0.7" stop-color="#C3BFFF"/>
<stop offset="1" stop-color="#091B36" stop-opacity="0"/>
</linearGradient>
<linearGradient id="paint22_linear_14271_3378" x1="291.663" y1="315.793" x2="361.004" y2="233.801" gradientUnits="userSpaceOnUse">
<stop stop-color="#C3BFFF"/>
<stop offset="0.7" stop-color="#C3BFFF"/>
<stop offset="1" stop-color="#091B36" stop-opacity="0"/>
</linearGradient>
<linearGradient id="paint23_linear_14271_3378" x1="309.416" y1="74.4473" x2="265.584" y2="231.664" gradientUnits="userSpaceOnUse">
<stop stop-color="#C3BFFF"/>
<stop offset="0.7" stop-color="#C3BFFF"/>
<stop offset="1" stop-color="#091B36" stop-opacity="0"/>
</linearGradient>
<linearGradient id="paint24_linear_14271_3378" x1="303.059" y1="75.2066" x2="237.281" y2="211.477" gradientUnits="userSpaceOnUse">
<stop stop-color="#C3BFFF"/>
<stop offset="0.7" stop-color="#C3BFFF"/>
<stop offset="1" stop-color="#091B36" stop-opacity="0"/>
</linearGradient>
<linearGradient id="paint25_linear_14271_3378" x1="297.337" y1="75.2066" x2="227.996" y2="157.199" gradientUnits="userSpaceOnUse">
<stop stop-color="#C3BFFF"/>
<stop offset="0.7" stop-color="#C3BFFF"/>
<stop offset="1" stop-color="#091B36" stop-opacity="0"/>
</linearGradient>
<linearGradient id="paint26_linear_14271_3378" x1="309.416" y1="316.553" x2="265.584" y2="159.336" gradientUnits="userSpaceOnUse">
<stop stop-color="#C3BFFF"/>
<stop offset="0.7" stop-color="#C3BFFF"/>
<stop offset="1" stop-color="#091B36" stop-opacity="0"/>
</linearGradient>
<linearGradient id="paint27_linear_14271_3378" x1="303.059" y1="315.793" x2="237.281" y2="179.523" gradientUnits="userSpaceOnUse">
<stop stop-color="#C3BFFF"/>
<stop offset="0.7" stop-color="#C3BFFF"/>
<stop offset="1" stop-color="#091B36" stop-opacity="0"/>
</linearGradient>
<linearGradient id="paint28_linear_14271_3378" x1="297.337" y1="315.793" x2="227.996" y2="233.801" gradientUnits="userSpaceOnUse">
<stop stop-color="#C3BFFF"/>
<stop offset="0.7" stop-color="#C3BFFF"/>
<stop offset="1" stop-color="#091B36" stop-opacity="0"/>
</linearGradient>
<linearGradient id="paint29_linear_14271_3378" x1="279.584" y1="74.4473" x2="323.416" y2="231.665" gradientUnits="userSpaceOnUse">
<stop stop-color="#C3BFFF"/>
<stop offset="0.7" stop-color="#C3BFFF"/>
<stop offset="1" stop-color="#091B36" stop-opacity="0"/>
</linearGradient>
<linearGradient id="paint30_linear_14271_3378" x1="285.941" y1="75.2067" x2="351.719" y2="211.477" gradientUnits="userSpaceOnUse">
<stop stop-color="#C3BFFF"/>
<stop offset="0.7" stop-color="#C3BFFF"/>
<stop offset="1" stop-color="#091B36" stop-opacity="0"/>
</linearGradient>
<linearGradient id="paint31_linear_14271_3378" x1="291.663" y1="75.2066" x2="361.004" y2="157.199" gradientUnits="userSpaceOnUse">
<stop stop-color="#C3BFFF"/>
<stop offset="0.7" stop-color="#C3BFFF"/>
<stop offset="1" stop-color="#091B36" stop-opacity="0"/>
</linearGradient>
<linearGradient id="paint32_linear_14271_3378" x1="200.138" y1="479.17" x2="115.691" y2="437.989" gradientUnits="userSpaceOnUse">
<stop stop-color="white" stop-opacity="0"/>
<stop offset="1.0001" stop-color="white" stop-opacity="0.33"/>
</linearGradient>
<linearGradient id="paint33_linear_14271_3378" x1="151.944" y1="426" x2="151.944" y2="479.056" gradientUnits="userSpaceOnUse">
<stop stop-color="#D7D4FF"/>
<stop offset="1" stop-color="#5B588E" stop-opacity="0.7"/>
</linearGradient>
<linearGradient id="paint34_linear_14271_3378" x1="420.946" y1="84.0908" x2="344.891" y2="-38.3484" gradientUnits="userSpaceOnUse">
<stop stop-color="white" stop-opacity="0"/>
<stop offset="1.0001" stop-color="white" stop-opacity="0.33"/>
</linearGradient>
<linearGradient id="paint35_linear_14271_3378" x1="295" y1="42.0006" x2="295" y2="84.0009" gradientUnits="userSpaceOnUse">
<stop stop-color="#D7D4FF"/>
<stop offset="1" stop-color="#5B588E" stop-opacity="0.7"/>
</linearGradient>
</defs>
</svg>
