<svg xmlns="http://www.w3.org/2000/svg" width="1120" height="366" viewBox="0 0 1120 366" fill="none"><rect width="1120" height="366" rx="10" fill="#3D7FFC"></rect><g clip-path="url(#clip0_32343_91975)"><path d="M456.39 142.239C457.366 144.049 456.878 145.573 456.195 147.192C455.121 149.859 455.414 152.431 457.366 154.622C459.319 156.908 462.052 157.193 464.882 156.622C468.787 155.765 471.032 152.145 470.446 148.144C470.154 146.239 468.982 144.334 470.056 142.239C469.08 142.715 469.08 142.715 467.908 144.62C466.835 143.382 465.859 142.048 464.687 140.715C463.711 139.667 462.735 138.715 463.321 137C462.149 137.572 461.564 138.334 461.173 139.286C460.88 140.239 460.685 141.191 460.49 142.144C460.295 143.096 459.807 143.953 458.831 144.525C458.245 143.477 457.659 142.715 456.39 142.239Z" fill="white"></path><path d="M373.307 197.746V153.813L368 152.96V148.892L381.838 147.186L384.189 146.861V148.63V163.561C384.726 163.036 385.398 162.445 386.204 161.986C386.943 161.461 387.817 161.002 388.69 160.608C389.63 160.214 390.571 159.886 391.645 159.624C392.72 159.361 393.862 159.23 395.071 159.23C397.221 159.23 399.236 159.558 401.117 160.28C402.998 161.002 404.677 162.117 406.088 163.626C407.499 165.201 408.641 167.169 409.514 169.663C410.32 172.156 410.79 175.109 410.79 178.718C410.79 181.802 410.32 184.623 409.38 187.313C408.439 190.004 407.028 192.234 405.215 194.203C403.401 196.171 401.184 197.681 398.632 198.796C396.012 199.911 393.123 200.502 389.832 200.502C387.548 200.502 385.465 200.371 383.517 200.174C381.636 199.977 379.957 199.715 378.546 199.387C377.136 199.058 375.994 198.796 375.121 198.468C374.247 198.14 373.575 197.943 373.307 197.746ZM390.571 165.595C389.093 165.595 387.817 165.857 386.742 166.382C385.667 166.907 384.794 167.497 384.189 168.154V194.137C384.525 194.662 385.13 195.122 386.07 195.384C387.01 195.712 388.152 195.843 389.362 195.843C390.974 195.843 392.384 195.45 393.526 194.597C394.736 193.744 395.676 192.628 396.482 191.185C397.288 189.741 397.826 188.035 398.229 186.132C398.632 184.229 398.833 182.13 398.833 179.964C398.833 177.733 398.699 175.699 398.363 173.862C398.027 172.091 397.557 170.581 396.818 169.335C396.146 168.088 395.273 167.169 394.198 166.513C393.258 165.923 391.981 165.595 390.571 165.595Z" fill="white"></path><path d="M416.655 199.332V194.673L421.76 194.017V167.377L416.924 165.934V160.685L429.015 158.979H429.217L431.098 160.488V163.375L431.03 168.755H431.165C431.433 168.034 431.971 167.115 432.71 166C433.449 164.884 434.389 163.769 435.464 162.719C436.539 161.669 437.815 160.75 439.226 160.029C440.636 159.307 442.181 158.913 443.861 158.913C444.6 158.913 445.137 158.913 445.54 158.979C445.943 159.044 446.279 159.11 446.548 159.176V171.183C446.279 170.986 445.607 170.789 444.532 170.593C443.458 170.396 442.114 170.265 440.636 170.265C439.83 170.265 438.957 170.33 438.151 170.396C437.345 170.461 436.539 170.593 435.8 170.789C435.061 170.921 434.456 171.118 433.852 171.314C433.247 171.511 432.844 171.708 432.508 171.905V193.952L441.308 194.805V199.332H416.655Z" fill="white"></path><path d="M454.082 199.715V195.056L459.254 194.4V167.76L454.485 166.251V161.067L467.517 159.361L470.271 159.096V160.871V194.334L475.376 195.056V199.715H454.082Z" fill="white"></path><path d="M499.059 186.917C497.042 186.917 495.164 186.781 493.495 186.507C493.078 186.917 492.73 187.395 492.452 187.942C492.174 188.488 492.035 189.103 492.035 189.854C492.035 190.674 492.174 191.357 492.521 191.903C492.869 192.381 493.356 192.791 494.051 193.064C494.747 193.338 495.582 193.542 496.694 193.611C497.807 193.679 499.059 193.747 500.52 193.747H507.822C513.108 193.747 517.003 194.635 519.646 196.343C522.219 198.119 523.54 200.987 523.54 204.949C523.54 207.34 522.914 209.594 521.593 211.574C520.341 213.555 518.602 215.194 516.377 216.629C514.221 217.995 511.647 219.088 508.796 219.839C505.944 220.59 502.954 221 499.824 221H499.754C496.277 221 493.356 220.727 490.922 220.112C488.488 219.497 486.471 218.678 484.871 217.653C483.271 216.629 482.159 215.331 481.393 213.897C480.628 212.462 480.281 210.823 480.281 209.115C480.281 208.023 480.489 206.998 480.907 205.973C481.324 205.017 481.88 204.129 482.576 203.31C483.271 202.49 484.036 201.807 485.01 201.192C485.914 200.578 486.888 200.099 487.862 199.758C486.471 199.007 485.358 198.119 484.593 197.026C483.828 195.933 483.48 194.635 483.48 193.133C483.48 191.288 483.967 189.786 484.94 188.488C485.914 187.259 487.166 186.097 488.696 185.141C486.192 184.048 484.384 182.477 483.202 180.428C482.019 178.379 481.393 175.989 481.393 173.257C481.393 171.071 481.88 169.158 482.854 167.383C483.828 165.607 485.219 164.104 486.888 162.875C488.627 161.645 490.574 160.689 492.869 160.006C495.164 159.323 497.598 158.981 500.172 158.981H500.241C506.362 158.981 510.882 160.143 513.873 162.465C514.221 162.055 514.708 161.645 515.264 161.235C515.82 160.826 516.516 160.416 517.281 160.074C518.046 159.733 518.881 159.46 519.785 159.255C520.689 159.05 521.662 158.913 522.706 158.913H524.444V166.973H517.211C517.49 167.724 517.698 168.544 517.837 169.363C517.976 170.183 518.046 171.139 518.046 172.095C518.046 174.281 517.559 176.262 516.655 178.038C515.751 179.814 514.429 181.385 512.76 182.751C511.091 184.048 509.074 185.073 506.779 185.824C504.414 186.576 501.911 186.917 499.059 186.917ZM497.181 201.466C495.582 201.466 494.121 201.329 492.8 201.124C492.313 201.67 491.826 202.353 491.409 203.173C490.991 203.993 490.783 205.222 490.783 206.657C490.783 208.296 490.991 209.662 491.409 210.755C491.826 211.848 492.521 212.804 493.356 213.487C494.191 214.17 495.303 214.716 496.555 214.989C497.807 215.331 499.268 215.468 500.937 215.468H501.006C502.467 215.468 503.927 215.331 505.388 214.989C506.779 214.648 508.1 214.17 509.213 213.487C510.326 212.804 511.23 211.916 511.856 210.891C512.552 209.867 512.899 208.637 512.899 207.271C512.899 206.247 512.76 205.29 512.552 204.539C512.343 203.788 511.926 203.173 511.3 202.695C510.674 202.217 509.909 201.875 508.865 201.67C507.822 201.466 506.501 201.329 504.901 201.329H497.181V201.466ZM499.963 182.136C501.215 182.136 502.258 181.863 503.093 181.385C503.927 180.906 504.553 180.223 505.04 179.404C505.527 178.584 505.805 177.56 506.014 176.399C506.223 175.237 506.292 174.008 506.292 172.778C506.292 169.637 505.805 167.314 504.762 165.88C503.719 164.446 502.05 163.763 499.615 163.763H499.546C497.251 163.763 495.582 164.514 494.538 165.948C493.495 167.383 492.939 169.5 492.939 172.437C492.939 173.871 493.078 175.169 493.286 176.33C493.495 177.491 493.912 178.516 494.399 179.404C494.956 180.223 495.651 180.906 496.555 181.385C497.459 181.863 498.572 182.136 499.963 182.136Z" fill="white"></path><path d="M528.379 199.715V195.056L532.745 194.334V153.435L527.439 152.582V148.514L541.209 146.808L542.01 146.676H543.507L543.628 159.427L543.507 164.391C544.112 163.801 544.501 163.757 545.509 163.101C546.516 162.445 547.524 161.855 548.733 161.33C549.942 160.805 551.286 160.346 552.696 159.952C554.107 159.624 555.652 159.427 557.197 159.427C559.481 159.427 561.429 159.755 562.907 160.346C564.385 160.936 565.594 161.92 566.534 163.233C567.475 164.545 568.012 166.185 568.415 168.154C568.751 170.122 568.953 172.484 568.953 175.175V194.334L573.923 195.056V199.715H554.107V195.187L558.07 194.4V175.109C558.07 173.534 558.003 172.156 557.802 170.975C557.667 169.794 557.331 168.876 556.861 168.088C556.391 167.301 555.786 166.776 554.98 166.448C554.174 166.12 553.099 165.923 551.823 165.923C551.084 165.923 550.345 165.988 549.539 166.185C548.733 166.382 547.994 166.579 547.322 166.776C546.583 167.038 545.912 167.301 545.307 167.629C544.702 167.957 544.165 168.285 543.695 168.613V194.4L548.531 195.122V199.78H528.379V199.715Z" fill="white"></path><path d="M581.813 191.682V166.223H576.842V162.287C577.044 162.221 577.312 162.155 577.715 162.024C578.118 161.893 578.521 161.696 578.992 161.565C579.395 161.434 579.798 161.237 580.201 161.105C580.604 160.974 580.805 160.843 580.873 160.777C581.679 160.187 582.485 159.071 583.358 157.431C583.627 156.972 583.828 156.447 584.164 155.791C584.5 155.134 584.702 154.544 584.97 153.888C585.239 153.232 585.508 152.575 585.709 151.919C585.978 151.263 586.112 150.673 586.314 150.148H592.628L592.763 160.384H603.175V166.289H592.763V185.449C592.763 187.286 592.762 188.73 592.83 189.845C592.897 190.96 593.031 191.748 593.233 192.273C593.434 192.798 593.837 193.191 594.308 193.323C594.778 193.454 595.449 193.585 596.256 193.585H596.323C596.86 193.585 597.465 193.519 598.136 193.454C598.741 193.388 599.346 193.257 599.95 193.126C600.555 192.995 601.092 192.863 601.63 192.732C602.167 192.601 602.57 192.47 602.906 192.338H602.973L604.652 196.407C603.913 196.931 603.107 197.456 602.033 197.981C600.958 198.506 599.883 198.966 598.607 199.425C597.33 199.884 596.054 200.212 594.643 200.475C593.233 200.737 591.889 200.868 590.479 200.868H590.411C588.866 200.868 587.523 200.672 586.448 200.278C585.373 199.884 584.433 199.294 583.761 198.506C583.089 197.719 582.619 196.8 582.283 195.619C581.947 194.438 581.813 193.191 581.813 191.682Z" fill="white"></path><path d="M635.362 200.707C633.28 200.707 631.264 200.314 629.316 199.526C627.368 198.739 625.689 197.492 624.278 195.918C622.8 194.277 621.658 192.243 620.785 189.815C619.912 187.388 619.509 184.5 619.509 181.154C619.509 178.07 619.979 175.249 620.919 172.624C621.86 169.999 623.271 167.703 625.017 165.734C626.831 163.766 628.98 162.257 631.533 161.141C634.086 160.026 636.974 159.501 640.199 159.501C641.341 159.501 642.415 159.567 643.557 159.698C644.632 159.829 645.707 159.96 646.715 160.157V152.878L639.728 152.221V148.941L652.76 147.432H652.962L654.708 147.226V195.786H658.94V199.461C657.933 199.723 656.791 199.986 655.447 200.314C654.104 200.642 652.693 200.773 651.215 200.773C650.611 200.773 650.006 200.707 649.536 200.642C649.066 200.576 648.663 200.379 648.327 200.117C647.991 199.854 647.722 199.461 647.588 199.001C647.453 198.542 647.319 197.886 647.319 197.099V195.589C646.715 196.246 645.976 196.836 645.17 197.492C644.363 198.148 643.49 198.673 642.483 199.133C641.475 199.592 640.4 199.986 639.191 200.314C638.049 200.511 636.773 200.707 635.362 200.707ZM638.654 195.393C639.594 195.393 640.467 195.261 641.341 195.065C642.147 194.802 642.953 194.54 643.624 194.212C644.296 193.883 644.901 193.49 645.438 193.096C645.976 192.702 646.446 192.309 646.782 191.915V165.538C646.647 165.275 646.311 165.013 645.908 164.75C645.438 164.488 644.968 164.225 644.296 164.028C643.692 163.832 642.953 163.635 642.214 163.569C641.475 163.438 640.669 163.372 639.796 163.372C638.183 163.372 636.706 163.635 635.362 164.225C633.951 164.816 632.742 165.734 631.667 167.047C630.593 168.359 629.787 170.065 629.182 172.165C628.577 174.264 628.241 176.823 628.174 179.842C628.107 182.532 628.376 184.894 628.913 186.863C629.451 188.831 630.19 190.406 631.13 191.718C632.07 192.965 633.212 193.949 634.489 194.54C635.765 195.065 637.176 195.393 638.654 195.393Z" fill="#C6DBFF"></path><path d="M659.93 189.695C659.93 188.055 660.266 186.546 660.87 185.234C661.475 183.921 662.348 182.806 663.49 181.756C664.632 180.772 665.908 179.919 667.386 179.197C668.864 178.475 670.476 177.95 672.223 177.491C673.969 177.032 675.783 176.704 677.664 176.507C679.545 176.31 681.426 176.179 683.239 176.113V174.276C683.239 172.635 683.105 171.257 682.904 170.142C682.635 169.027 682.232 168.108 681.694 167.386C681.09 166.664 680.351 166.139 679.343 165.877C678.403 165.549 677.127 165.418 675.649 165.418C674.372 165.418 673.096 165.549 671.82 165.746C670.543 166.008 669.334 166.271 668.125 166.599C666.983 166.927 665.908 167.321 664.901 167.649C663.893 168.042 663.087 168.37 662.415 168.698H662.348L660.736 165.352C661.206 164.958 661.945 164.433 663.087 163.777C664.229 163.121 665.572 162.531 667.118 161.874C668.663 161.284 670.342 160.759 672.088 160.3C673.902 159.84 675.649 159.644 677.395 159.644C679.881 159.644 681.963 159.906 683.71 160.365C685.389 160.89 686.8 161.678 687.874 162.727C688.949 163.843 689.688 165.221 690.158 166.992C690.629 168.764 690.83 170.864 690.83 173.423V196.257H695.197V199.603C694.726 199.735 694.189 199.866 693.584 199.997C692.98 200.128 692.308 200.259 691.636 200.391C690.965 200.522 690.226 200.653 689.554 200.719C688.882 200.784 688.143 200.85 687.539 200.85C686.867 200.85 686.329 200.85 685.792 200.784C685.322 200.719 684.919 200.588 684.583 200.325C684.247 200.063 684.046 199.735 683.911 199.21C683.777 198.75 683.71 198.094 683.71 197.241V195.929C683.374 196.191 682.904 196.585 682.232 197.176C681.56 197.7 680.687 198.291 679.679 198.816C678.672 199.341 677.53 199.866 676.186 200.259C674.91 200.653 673.499 200.85 672.021 200.85C670.409 200.85 668.864 200.653 667.386 200.194C665.908 199.735 664.632 199.078 663.49 198.225C662.348 197.307 661.475 196.191 660.803 194.748C660.131 193.304 659.93 191.664 659.93 189.695ZM675.178 195.601C675.649 195.601 676.253 195.535 676.925 195.404C677.597 195.273 678.336 195.076 679.075 194.879C679.814 194.617 680.552 194.354 681.224 194.026C681.963 193.698 682.568 193.304 683.172 192.911V180.05C680.351 180.05 678 180.312 676.052 180.772C674.171 181.231 672.626 181.887 671.484 182.675C670.342 183.462 669.536 184.381 669.066 185.43C668.595 186.48 668.327 187.53 668.327 188.646C668.327 189.892 668.528 191.008 668.864 191.861C669.2 192.714 669.67 193.435 670.275 194.026C670.879 194.551 671.618 195.01 672.424 195.207C673.365 195.47 674.238 195.601 675.178 195.601Z" fill="#C6DBFF"></path><path d="M697.222 191.879V164.78H692.117V161.499C692.856 161.237 693.595 161.04 694.267 160.777C695.005 160.515 695.543 160.318 695.812 160.056C696.618 159.531 697.222 158.678 697.827 157.431C698.028 157.037 698.23 156.447 698.566 155.791C698.834 155.134 699.103 154.413 699.372 153.691C699.641 152.969 699.909 152.313 700.111 151.657C700.312 151.001 700.514 150.476 700.581 150.148H705.149V159.728H717.039V164.78H705.149V185.58C705.149 187.614 705.149 189.254 705.216 190.436C705.283 191.617 705.418 192.47 705.686 192.995C705.955 193.519 706.358 193.913 706.895 194.044C707.433 194.176 708.172 194.241 709.112 194.241H709.179C709.851 194.241 710.59 194.176 711.329 194.11C712.068 194.044 712.807 193.913 713.479 193.782C714.217 193.651 714.822 193.519 715.427 193.388C716.031 193.257 716.501 193.126 716.837 192.929H716.904L718.114 196.341C717.576 196.735 716.77 197.194 715.762 197.653C714.755 198.113 713.68 198.506 712.538 198.9C711.396 199.294 710.187 199.556 708.911 199.819C707.634 200.081 706.492 200.212 705.35 200.212H705.283C704.007 200.212 702.932 200.081 701.924 199.819C700.917 199.556 700.111 199.097 699.372 198.441C698.7 197.784 698.163 196.931 697.76 195.882C697.424 194.701 697.222 193.388 697.222 191.879Z" fill="#C6DBFF"></path><path d="M718.316 188.965C718.316 187.325 718.652 185.815 719.256 184.503C719.861 183.191 720.734 182.075 721.876 181.025C723.018 180.041 724.294 179.188 725.772 178.466C727.25 177.745 728.862 177.22 730.609 176.76C732.355 176.301 734.169 175.973 736.05 175.776C737.931 175.579 739.812 175.448 741.625 175.383V173.545C741.625 171.905 741.491 170.527 741.29 169.412C741.021 168.296 740.618 167.377 740.08 166.656C739.476 165.934 738.737 165.409 737.729 165.147C736.789 164.818 735.513 164.687 734.035 164.687C732.758 164.687 731.482 164.818 730.206 165.015C728.929 165.278 727.72 165.54 726.511 165.868C725.369 166.196 724.294 166.59 723.287 166.918C722.279 167.312 721.473 167.64 720.801 167.968H720.734L719.122 164.622C719.592 164.228 720.331 163.703 721.473 163.047C722.615 162.391 723.958 161.8 725.503 161.144C727.049 160.553 728.728 160.029 730.474 159.569C732.288 159.11 734.035 158.913 735.781 158.913C738.267 158.913 740.349 159.176 742.096 159.635C743.775 160.16 745.186 160.947 746.26 161.997C747.335 163.112 748.074 164.49 748.544 166.262C749.015 168.034 749.216 170.133 749.216 172.692V195.526H753.582V198.873C753.112 199.004 752.575 199.135 751.97 199.267C751.366 199.398 750.694 199.529 750.022 199.66C749.35 199.791 748.612 199.923 747.94 199.988C747.268 200.054 746.529 200.12 745.925 200.12C745.253 200.12 744.715 200.12 744.178 200.054C743.708 199.988 743.305 199.857 742.969 199.595C742.633 199.332 742.432 199.004 742.297 198.479C742.163 198.02 742.096 197.364 742.096 196.511V195.198C741.76 195.461 741.29 195.855 740.618 196.445C739.946 196.97 739.073 197.561 738.065 198.085C737.058 198.61 735.916 199.135 734.572 199.529C733.296 199.923 731.885 200.12 730.407 200.12C728.795 200.12 727.25 199.923 725.772 199.463C724.294 199.004 723.018 198.348 721.876 197.495C720.734 196.576 719.861 195.461 719.189 194.017C718.517 192.574 718.316 190.933 718.316 188.965ZM733.632 194.87C734.102 194.87 734.706 194.805 735.378 194.673C736.05 194.542 736.789 194.345 737.528 194.149C738.267 193.886 739.006 193.624 739.677 193.296C740.416 192.967 741.021 192.574 741.625 192.18V179.319C738.804 179.319 736.453 179.582 734.505 180.041C732.624 180.501 731.079 181.157 729.937 181.944C728.795 182.731 727.989 183.65 727.519 184.7C727.049 185.75 726.78 186.8 726.78 187.915C726.78 189.162 726.981 190.277 727.317 191.13C727.653 191.983 728.123 192.705 728.728 193.296C729.332 193.82 730.071 194.28 730.877 194.477C731.818 194.739 732.691 194.87 733.632 194.87Z" fill="#C6DBFF"></path></g><path d="M415.3 94.836C415.3 87.796 409.316 84.892 404.696 84.892C402.716 84.892 401.572 85.156 400.648 85.552L401.528 80.096H414.156V74.64H396.38L394.048 89.468L397.128 91.316C398.492 90.348 400.692 89.732 402.672 89.732C405.4 89.732 408.392 91.228 408.392 94.836C408.392 98.488 405.268 99.984 402.672 99.984C400.076 99.984 396.908 98.664 395.236 96.332L391.98 100.512C393.388 102.712 397.084 105.484 403.156 105.484C409.184 105.484 415.3 101.92 415.3 94.836ZM443.207 83.308C443.207 83.308 442.459 82.912 441.007 82.912C438.675 82.912 436.871 84.012 435.639 86.388H435.551L435.595 83.308H428.555V105H435.595V95.364C435.595 92.944 436.167 91.536 436.695 90.832C437.223 90.128 438.367 89.248 439.951 89.248C441.183 89.248 442.107 89.556 442.503 89.776H442.811L443.207 83.308ZM466.651 93.516C466.651 87.18 462.207 82.912 455.783 82.912C449.359 82.912 444.079 87.004 444.079 94.176C444.079 101.348 448.963 105.484 455.651 105.484C462.383 105.484 465.243 102.492 465.947 101.964L463.175 98.312C461.943 99.148 459.479 100.38 456.663 100.38C453.803 100.38 451.427 98.972 451.119 95.848H466.563C466.563 95.848 466.651 94.572 466.651 93.516ZM460.095 91.844H451.163C451.251 89.776 452.747 87.488 455.651 87.488C458.599 87.488 460.051 89.864 460.095 91.844ZM489.768 105V92.768C489.768 89.116 488.844 87.004 487.172 85.42C485.456 83.836 483.124 82.912 479.076 82.912C475.028 82.912 471.64 84.188 469.792 85.112L471.64 89.688C472.74 88.984 475.512 87.752 478.284 87.752C481.1 87.752 482.728 88.94 482.728 91.228V91.712L477.272 91.932C473.268 92.108 468.824 93.736 468.824 98.576C468.824 103.416 472.872 105.484 476.7 105.484C480.22 105.484 481.98 103.636 482.904 102.712L483.036 105H489.768ZM482.772 95.452V99.016C482.332 99.764 481.056 100.996 479.164 100.996C477.228 100.996 475.864 99.984 475.864 98.312C475.864 96.684 477.14 95.76 479.296 95.672L482.772 95.452ZM510.669 98.312C510.669 96.024 509.613 94.616 508.909 93.912C508.161 93.208 507.061 92.636 506.093 92.284C505.169 91.932 504.509 91.712 503.013 91.272C501.517 90.832 499.845 90.304 499.845 89.16C499.845 88.016 500.769 87.576 502.441 87.576C504.201 87.576 506.665 88.72 507.897 89.688L510.185 85.552C508.953 84.54 506.401 82.868 501.869 82.868C497.337 82.868 493.641 85.464 493.641 89.688C493.641 93.56 496.325 94.924 497.337 95.364C498.349 95.804 499.581 96.156 500.417 96.376C501.209 96.64 504.377 97.344 504.377 98.752C504.377 100.16 503.145 100.6 501.385 100.6C499.625 100.6 496.721 99.456 494.961 97.96L492.321 102.14C494.785 104.472 498.217 105.484 501.473 105.484C504.377 105.484 506.533 104.824 508.117 103.592C509.701 102.316 510.669 100.556 510.669 98.312ZM536.769 94.22C536.769 87.224 531.621 82.912 524.757 82.912C517.893 82.912 512.701 87.224 512.701 94.22C512.701 101.216 517.893 105.484 524.757 105.484C531.621 105.484 536.769 101.216 536.769 94.22ZM529.685 94.088C529.685 97.3 527.837 99.72 524.757 99.72C521.633 99.72 519.829 97.3 519.829 94.088C519.829 90.876 521.633 88.456 524.757 88.456C527.837 88.456 529.685 90.876 529.685 94.088ZM561.483 105V92.196C561.483 86.96 559.855 82.912 553.563 82.912C550.439 82.912 548.459 84.496 547.271 86.432H547.183L547.227 83.308H540.187V105H547.227V94.264C547.227 91.14 548.063 88.676 551.099 88.676C554.003 88.676 554.443 90.832 554.443 93.692V105H561.483ZM582.556 98.312C582.556 96.024 581.5 94.616 580.796 93.912C580.048 93.208 578.948 92.636 577.98 92.284C577.056 91.932 576.396 91.712 574.9 91.272C573.404 90.832 571.732 90.304 571.732 89.16C571.732 88.016 572.656 87.576 574.328 87.576C576.088 87.576 578.552 88.72 579.784 89.688L582.072 85.552C580.84 84.54 578.288 82.868 573.756 82.868C569.224 82.868 565.528 85.464 565.528 89.688C565.528 93.56 568.212 94.924 569.224 95.364C570.236 95.804 571.468 96.156 572.304 96.376C573.096 96.64 576.264 97.344 576.264 98.752C576.264 100.16 575.032 100.6 573.272 100.6C571.512 100.6 568.608 99.456 566.848 97.96L564.208 102.14C566.672 104.472 570.104 105.484 573.36 105.484C576.264 105.484 578.42 104.824 580.004 103.592C581.588 102.316 582.556 100.556 582.556 98.312Z" fill="white"></path><path d="M604.531 104.78L604.355 102.14C604.355 102.14 603.343 102.624 602.067 102.624C601.099 102.624 600.307 102.36 599.955 101.832C599.295 100.864 599.295 99.412 599.295 97.74V87.136H604.399V84.408H599.339V78.028H596.039V84.408H592.959V87.136H596.039V97.08C596.039 100.82 596.039 105.44 600.967 105.44C602.375 105.44 603.563 105.22 604.531 104.78ZM617.552 105.44C623.58 105.44 628.332 101.084 628.332 94.748C628.332 88.456 623.58 83.968 617.552 83.968C611.524 83.968 606.816 88.456 606.816 94.748C606.816 101.084 611.524 105.44 617.552 105.44ZM617.552 102.58C612.976 102.58 610.16 99.06 610.16 94.66C610.16 90.216 612.976 86.784 617.552 86.784C622.128 86.784 624.988 90.216 624.988 94.66C624.988 99.06 622.128 102.58 617.552 102.58ZM645.962 77.28C645.962 76.004 644.994 75.036 643.674 75.036C642.31 75.036 641.342 76.004 641.342 77.28C641.342 78.556 642.31 79.524 643.674 79.524C644.994 79.524 645.962 78.556 645.962 77.28ZM637.206 110.676V113.492C637.206 113.492 637.954 113.712 639.142 113.712C644.026 113.712 645.302 109.972 645.302 105.22V84.364H642.046V105.176C642.046 108.388 641.782 110.94 638.526 110.94C638.218 110.94 637.778 110.852 637.206 110.676ZM660.95 105.44C666.978 105.44 671.73 101.084 671.73 94.748C671.73 88.456 666.978 83.968 660.95 83.968C654.922 83.968 650.214 88.456 650.214 94.748C650.214 101.084 654.922 105.44 660.95 105.44ZM660.95 102.58C656.374 102.58 653.558 99.06 653.558 94.66C653.558 90.216 656.374 86.784 660.95 86.784C665.526 86.784 668.386 90.216 668.386 94.66C668.386 99.06 665.526 102.58 660.95 102.58ZM680.595 77.28C680.595 76.004 679.627 75.036 678.307 75.036C676.943 75.036 675.975 76.004 675.975 77.28C675.975 78.556 676.943 79.524 678.307 79.524C679.627 79.524 680.551 78.556 680.595 77.28ZM676.679 105H679.935V84.364H676.679V105ZM696.111 83.968C693.163 83.968 690.611 85.508 689.687 87.708H689.555V84.364H686.299V105H689.555V93.384C689.555 89.82 691.403 86.784 695.099 86.784C698.927 86.784 700.159 88.896 700.159 92.724V105H703.415V92.504C703.415 87.576 702.007 83.968 696.111 83.968Z" fill="#C6DBFF"></path><path d="M414.244 287H417.984L405.312 256.552H402.804L390.176 287H393.608L396.996 278.508H410.856L414.244 287ZM409.712 275.604H398.14L403.948 261.04L409.712 275.604ZM427.757 258.796C428.857 258.796 430.045 259.148 430.045 259.148L430.353 256.596C430.177 256.508 429.033 256.2 427.317 256.2C422.521 256.2 421.069 259.72 421.069 263.988V266.408H418.077V269.136H421.069V287H424.325V269.136H432.377V287H435.633V269.136H440.737V266.408H435.633V263.768C435.633 261.128 436.029 258.796 439.065 258.796C440.165 258.796 441.353 259.148 441.353 259.148L441.661 256.596C441.485 256.508 440.341 256.2 438.625 256.2C433.873 256.2 432.377 259.72 432.377 263.988V266.408H424.325V263.768C424.325 261.128 424.721 258.796 427.757 258.796ZM446.457 287V266.364H443.201V287H446.457ZM444.829 257.036C443.465 257.036 442.497 258.004 442.497 259.28C442.497 260.556 443.465 261.524 444.829 261.524C446.149 261.524 447.073 260.556 447.117 259.28C447.117 258.004 446.149 257.036 444.829 257.036ZM453.07 287H456.326V256.64H453.07V287ZM466.825 259.28C466.825 258.004 465.857 257.036 464.537 257.036C463.173 257.036 462.205 258.004 462.205 259.28C462.205 260.556 463.173 261.524 464.537 261.524C465.857 261.524 466.781 260.556 466.825 259.28ZM462.909 287H466.165V266.364H462.909V287ZM484.497 287H487.709V274.9C487.709 269.092 485.113 265.968 479.085 265.968C475.829 265.968 473.101 267.2 471.737 267.992L472.837 270.324C473.409 269.928 475.873 268.696 478.953 268.696C482.077 268.696 484.409 270.236 484.409 273.712V274.636L478.821 274.9C473.189 275.164 470.593 277.628 470.593 281.148C470.593 284.932 473.761 287.44 477.677 287.44C481.593 287.44 483.661 285.152 484.453 284.272L484.497 287ZM484.453 277.012V281.896C483.485 283.216 481.153 284.844 478.337 284.844C475.697 284.844 473.981 283.172 473.981 281.104C473.981 278.992 475.257 277.452 479.085 277.276L484.453 277.012ZM502.695 286.78L502.519 284.14C502.519 284.14 501.507 284.624 500.231 284.624C499.263 284.624 498.471 284.36 498.119 283.832C497.459 282.864 497.459 281.412 497.459 279.74V269.136H502.563V266.408H497.503V260.028H494.203V266.408H491.123V269.136H494.203V279.08C494.203 282.82 494.203 287.44 499.131 287.44C500.539 287.44 501.727 287.22 502.695 286.78ZM524.076 284.052L522.668 282.116C522.668 282.116 519.764 284.712 515.716 284.712C511.316 284.712 508.368 281.72 508.324 277.452H524.604C524.604 277.452 524.736 276.484 524.736 275.736C524.736 270.06 520.82 265.968 515.144 265.968C508.984 265.968 504.98 270.764 504.98 276.616C504.98 283.26 509.072 287.44 515.144 287.44C519.192 287.44 522.184 286.296 524.076 284.052ZM521.436 274.988H508.368C508.632 271.776 510.876 268.652 515.012 268.696C519.544 268.74 521.436 272.084 521.436 274.988ZM538.234 295.272H541.49V283.436L541.534 283.48C543.118 286.252 546.11 287.44 549.146 287.44C554.91 287.44 559.09 282.776 559.09 276.66C559.09 270.544 555.394 265.968 549.058 265.968C545.406 265.968 542.678 268.036 541.534 269.972H541.49V266.32H538.234V295.272ZM548.442 284.58C543.822 284.58 541.358 281.104 541.358 276.66C541.358 272.172 544.394 268.696 548.53 268.696C553.106 268.696 555.702 272.172 555.702 276.66C555.702 281.104 553.018 284.58 548.442 284.58ZM563.752 287H567.008V276.308C567.008 273.184 567.536 271.996 568.372 270.808C568.724 270.324 569.956 269.004 571.848 269.004C572.464 269.004 573.388 269.092 574.092 269.4C574.136 269.4 574.224 269.4 574.224 269.4L574.444 266.32C574.444 266.32 573.608 265.968 572.244 265.968C569.956 265.968 567.976 267.376 567.008 269.884V266.364H563.752V287ZM586.786 287.44C592.814 287.44 597.566 283.084 597.566 276.748C597.566 270.456 592.814 265.968 586.786 265.968C580.758 265.968 576.05 270.456 576.05 276.748C576.05 283.084 580.758 287.44 586.786 287.44ZM586.786 284.58C582.21 284.58 579.394 281.06 579.394 276.66C579.394 272.216 582.21 268.784 586.786 268.784C591.362 268.784 594.222 272.216 594.222 276.66C594.222 281.06 591.362 284.58 586.786 284.58ZM618.399 282.952V284.096C618.399 289.244 616.463 292.94 610.787 292.94C607.575 292.94 604.671 291.312 603.307 290.256L601.679 292.588C601.987 292.808 605.419 295.712 610.611 295.712C615.847 295.712 618.355 293.336 619.675 291.488C620.995 289.684 621.655 287.22 621.655 282.6V266.364H618.399L618.443 269.928H618.355C617.079 267.772 614.483 265.968 610.699 265.968C605.331 265.968 600.843 269.972 600.843 276.44C600.843 283.304 605.331 286.868 610.787 286.868C614.307 286.868 616.815 285.416 618.311 282.952H618.399ZM611.359 284.14C606.695 284.14 604.187 280.708 604.187 276.396C604.187 272.128 606.607 268.74 611.271 268.74C615.715 268.74 618.531 271.688 618.531 276.396C618.531 280.708 616.067 284.14 611.359 284.14ZM627.861 287H631.117V276.308C631.117 273.184 631.645 271.996 632.481 270.808C632.833 270.324 634.065 269.004 635.957 269.004C636.573 269.004 637.497 269.092 638.201 269.4C638.245 269.4 638.333 269.4 638.333 269.4L638.553 266.32C638.553 266.32 637.717 265.968 636.353 265.968C634.065 265.968 632.085 267.376 631.117 269.884V266.364H627.861V287ZM652.935 287H656.147V274.9C656.147 269.092 653.551 265.968 647.523 265.968C644.267 265.968 641.539 267.2 640.175 267.992L641.275 270.324C641.847 269.928 644.311 268.696 647.391 268.696C650.515 268.696 652.847 270.236 652.847 273.712V274.636L647.259 274.9C641.627 275.164 639.031 277.628 639.031 281.148C639.031 284.932 642.199 287.44 646.115 287.44C650.031 287.44 652.099 285.152 652.891 284.272L652.935 287ZM652.891 277.012V281.896C651.923 283.216 649.591 284.844 646.775 284.844C644.135 284.844 642.419 283.172 642.419 281.104C642.419 278.992 643.695 277.452 647.523 277.276L652.891 277.012ZM677.557 270.412C676.809 267.86 674.961 265.968 670.913 265.968C668.405 265.968 666.249 267.552 665.237 269.664H665.105L665.149 266.364H661.893V287H665.149V276.132C665.149 272.084 667.085 268.784 670.473 268.784C674.169 268.784 674.829 272.216 674.829 274.724V287H678.085V276.132C678.085 272.084 679.977 268.784 683.365 268.784C687.061 268.784 687.721 272.216 687.721 274.724V287H690.977V274.548C690.977 270.236 689.833 265.968 683.805 265.968C680.901 265.968 678.437 267.86 677.557 270.412Z" fill="white"></path><defs><clipPath id="clip0_32343_91975"><rect width="384" height="84" fill="white" transform="translate(368 137)"></rect></clipPath></defs></svg>