<svg width="132" height="44" viewBox="0 0 132 44" fill="none" xmlns="http://www.w3.org/2000/svg">
<g id="xChange_logo_color">
<g id="Group">
<g id="Group_2">
<g id="Group_3">
<g id="Clip path group">
<mask id="mask0_1021_1257" style="mask-type:luminance" maskUnits="userSpaceOnUse" x="0" y="6" width="132" height="32">
<g id="SVGID_00000165945680821907984830000010533498794179961744_">
<path id="Vector" d="M131.5 6.5H0.399994V38H131.5V6.5Z" fill="white"/>
</g>
</mask>
<g mask="url(#mask0_1021_1257)">
<g id="Group_4">
<path id="Vector_2" d="M18.3 17.3C16.4 16.4 15.4 15.9 13.5 15C8.9 12.7 4.4 10.1 0.5 6.59999C2.2 11.3 4.7 15.7 7.6 19.8C8.7 21.4 9.3 22.2 10.5 23.8C17 27 22.9 30.2 28.5 34.7C25.8 28.2 22.3 22.8 18.3 17.3Z" fill="#5BAD82"/>
<path id="Vector_3" d="M15.5 14.9C13.6 15.9 12.6 16.3 10.7 17.2C6.6 22.8 3.2 28.2 0.5 34.5C6.1 30 12.1 26.8 18.5 23.6C19.4 22.4 19.9 21.7 20.8 20.5C23.9 16.1 26.5 11.4 28.6 6.39999C24.6 9.99999 20.1 12.6 15.5 14.9Z" fill="#5BAD82"/>
<path id="Vector_4" d="M7.6 19.7C8.7 21.3 9.3 22.1 10.5 23.7C17 26.9 22.9 30.1 28.5 34.6C24.4 29.1 19.7 24.8 14.4 20.5C9.2 16.2 4.6 11.9 0.5 6.5C2.1 11.3 4.7 15.6 7.6 19.7Z" fill="#55A479"/>
<path id="Vector_5" d="M13.4 14.9C8.79999 12.6 4.29999 10 0.399994 6.5C4.49999 11.9 9.09999 16.2 14.3 20.5C19.6 24.9 24.3 29.1 28.4 34.6C25.7 28.2 22.3 22.8 18.2 17.3C16.3 16.3 15.3 15.9 13.4 14.9Z" fill="#BBDBBB"/>
<path id="Vector_6" d="M15.5 14.9C13.6 15.9 12.6 16.3 10.7 17.2C6.6 22.8 3.2 28.2 0.5 34.5C4.6 29 9.4 24.7 14.6 20.4C19.9 16.1 24.4 11.8 28.5 6.39999C24.6 9.99999 20.1 12.6 15.5 14.9Z" fill="#55A479"/>
<path id="Vector_7" d="M14.6 20.5C9.3 24.8 4.6 29.1 0.5 34.6C6.1 30.1 12.1 26.9 18.5 23.7C19.4 22.5 19.9 21.8 20.8 20.6C23.9 16.2 26.5 11.5 28.6 6.5C24.4 11.9 19.8 16.2 14.6 20.5Z" fill="#BBDBBB"/>
<path id="Vector_8" d="M14.6 20.5L20.7 20.6C23.8 16.2 26.4 11.5 28.5 6.5C24.4 11.9 19.8 16.2 14.6 20.5Z" fill="#5BAD82"/>
<path id="Vector_9" d="M14.6 20.5C14.5 18.5 14.5 17.5 14.5 15.5C19.5 13 24.2 9.99999 28.6 6.59999C24.4 11.9 19.8 16.2 14.6 20.5Z" fill="#227352"/>
<path id="Vector_10" fill-rule="evenodd" clip-rule="evenodd" d="M41.1 32.3C39.6 32.3 38.1 32 36.7 31.4C35.5 30.8 34.5 30 33.6 29C31.2 26.2 31.1 22.8 31.1 21.4C31.1 20 31.3 18.5 31.8 17.2C32.2 15.9 32.8 14.7 33.6 13.7C34.5 12.7 35.6 12 36.8 11.4C38.2 10.8 39.7 10.4 41.3 10.5C43.4 10.5 45.4 11.1 47.1 12.3C47.6 12.7 48 13.1 48.4 13.6L46.1 15.5C45.5 14.8 44.8 14.2 44.1 13.8C43.2 13.3 42.2 13.1 41.1 13.2C39.8 13.2 38.6 13.5 37.5 14.2C34.5 16 34.5 20.2 34.5 21.1C34.5 21.7 34.6 27.1 38.3 29C39.3 29.5 40.3 29.7 41.4 29.6C43 29.6 44.6 29 45.9 28C46.1 27.8 46.4 27.5 46.6 27.3L48.8 29.1C47 31.2 44.3 32.3 41.1 32.3Z" fill="#227352"/>
<path id="Vector_11" fill-rule="evenodd" clip-rule="evenodd" d="M61.4 31.5V21.4C61.5 20.5 61.2 19.7 60.8 18.9C60.7 18.7 60.5 18.5 60.3 18.4C59.9 18.1 59.3 18 58.8 18C57.1 18 55.8 19.2 55.2 19.7C54.9 20 54.6 20.3 54.3 20.7V31.4H51.5V9.7H54.2V18.3H54.3C54.9 17.6 55.7 17 56.6 16.5C57.2 16.2 59.5 15.1 61.7 16.3C62.6 16.8 63.3 17.6 63.7 18.6C64 19.3 64.1 20 64.1 20.7V31.6H61.4V31.5Z" fill="#227352"/>
<path id="Vector_12" fill-rule="evenodd" clip-rule="evenodd" d="M79.6 32C79.4 31.9 79.1 31.7 78.9 31.6C78.4 31.2 78.1 30.6 77.9 30H77.8C77.1 30.7 76.3 31.3 75.4 31.7C74.5 32.1 73.6 32.4 72.6 32.3C71.5 32.3 70.5 31.9 69.6 31.2C68.8 30.4 68.4 29.4 68.3 28.3C68.3 27.6 68.4 26.9 68.8 26.2C69.2 25.5 69.7 24.9 70.3 24.5C71.2 23.9 72.1 23.4 73.1 23C74.6 22.4 76.1 22 77.6 21.6V21C77.7 20.3 77.4 19.6 77 19C76.2 18.1 75 18.1 74.5 18.1C73.9 18.1 73.3 18.3 72.7 18.6C72.2 18.9 71.7 19.3 71.3 19.8C71.2 20 71.1 20.1 71 20.3L68.7 19.6C69 18.5 69.7 17.6 70.6 16.9C72 15.8 73.6 15.8 74.6 15.8C76.5 15.8 77.9 16.2 78.8 17C79.8 17.8 80.2 19.2 80.2 21.2V27.1C80.1 27.8 80.2 28.6 80.5 29.3C80.6 29.5 80.7 29.7 80.8 29.8C81 29.9 81.2 30 81.4 30C81.6 30 81.9 29.9 82.1 29.8L82.5 31.8C82 32 81.5 32.2 81 32.2C80.5 32.2 80.2 32.1 79.6 32ZM77.7 23.6C76.6 23.9 75.6 24.2 74.6 24.7C73.9 25 73.3 25.3 72.6 25.7C72.2 26 71.8 26.4 71.6 26.8C71.4 27.1 71.3 27.5 71.3 27.9C71.3 28.2 71.3 28.5 71.4 28.8C71.5 29.1 71.6 29.3 71.9 29.5C72.1 29.7 72.4 29.9 72.6 30C72.9 30.1 73.2 30.1 73.5 30.1C74.3 30.1 75.1 29.9 75.8 29.5C76.5 29.1 77.1 28.6 77.7 28V23.6Z" fill="#227352"/>
<path id="Vector_13" fill-rule="evenodd" clip-rule="evenodd" d="M96.4 31.5V21.5C96.4 21.3 96.5 19.4 95.1 18.5C94.6 18.2 94 18.1 93.5 18.1C91.7 18.2 90.3 19.3 89.7 19.8C89.3 20.1 89 20.4 88.7 20.8V31.5H85.9V16.3H88.1C88.3 17 88.4 17.7 88.6 18.4H88.7C89.4 17.6 90.3 17 91.2 16.5C91.9 16.2 94 15.2 96.3 16.1C97.4 16.5 98.4 17.4 98.9 18.5C99.2 19.2 99.3 19.9 99.3 20.6V31.5H96.4Z" fill="#227352"/>
<path id="Vector_14" fill-rule="evenodd" clip-rule="evenodd" d="M125.1 32.3C123.3 32.3 121.5 31.7 120.2 30.5C117.8 28.4 117.7 25.3 117.7 24C117.7 22.9 117.8 21.9 118.2 20.9C118.4 20.2 119.3 17.7 121.8 16.5C122.8 16 123.9 15.8 125 15.9C125.9 15.8 126.9 16 127.8 16.4C129.1 17 130.2 18 130.8 19.3C131.4 20.6 131.7 22.1 131.5 23.6C131.5 23.9 131.5 24.2 131.4 24.5L120.5 24.3C120.5 24.9 120.6 25.5 120.7 26.1C120.8 26.6 121 27 121.2 27.4C121.6 28.2 122.2 28.8 122.9 29.3C123.6 29.7 124.5 30 125.4 29.9C126.7 29.9 127.9 29.4 128.8 28.5C129.1 28.2 129.3 27.9 129.4 27.6L131.3 28.9C131 29.4 130.7 29.9 130.3 30.3C128.3 32.3 125.6 32.3 125.1 32.3ZM128.6 22.2C128.6 22 128.7 20 127.1 18.7C126.4 18.2 125.6 17.9 124.7 17.9C124.2 17.9 123.6 18 123.1 18.2C122.6 18.4 122.1 18.7 121.8 19.1C121.1 20 120.6 21.1 120.6 22.2H128.6Z" fill="#227352"/>
<path id="Vector_15" fill-rule="evenodd" clip-rule="evenodd" d="M116.3 18.3L116.9 16.2C116.6 16.1 116.4 16 116.1 15.9C115.8 15.8 115.5 15.8 115.2 15.8C114.5 15.8 113.8 15.9 113.2 16.3C112.9 16.5 112.7 16.7 112.5 16.9C111.7 16.4 110.8 16 109.9 15.8C109.3 15.7 106.6 15.3 104.6 17.1C103.7 17.8 103.1 18.9 102.8 20C102.7 20.7 102.7 21.5 102.9 22.2C103.1 22.9 103.4 23.6 103.8 24.2C104.1 24.6 104.6 25 105 25.3C104.8 25.5 104.6 25.7 104.4 26C103.9 26.6 103.6 27.4 103.5 28.3C103.5 28.8 103.6 29.2 103.8 29.6C104 29.9 104.2 30.1 104.5 30.3C105.4 30.7 106.3 30.9 107.3 30.9C108.3 30.9 109.3 30.9 110.4 31C111.7 31.1 112.1 31.2 112.5 31.5C112.8 31.7 113 32 113.2 32.3C113.4 32.6 113.5 32.9 113.5 33.3C113.5 33.8 113.4 34.2 113.2 34.6C112.5 35.8 110.7 35.9 109.4 36C107.4 36.1 106.5 35.5 106.2 35.4C105.8 35.2 105.5 34.9 105.3 34.4C105.2 34.1 105.1 33.7 105.2 33.3C105.2 32.9 105.3 32.6 105.5 32.3L103 31.8C102.6 32.4 102.4 33.1 102.4 33.8C102.4 34.5 102.6 35.2 103 35.7C103.4 36.3 103.9 36.8 104.6 37C108 38.9 112 37.7 112.1 37.6L112.4 37.5C112.9 37.3 115 36.7 115.8 34.9C116.1 34.3 116.2 33.6 116.2 32.9C116.2 32.2 116.1 31.6 115.8 31C115.1 29.4 113.3 29 112.9 28.9C112.2 28.7 111.6 28.6 110.9 28.6C109.7 28.5 109.2 28.7 107.7 28.5C106.5 28.4 106.1 28.2 106 28C105.9 27.8 105.8 27.6 105.9 27.3C105.9 27.1 106 26.8 106.1 26.6C106.3 26.4 106.4 26.2 106.7 26C107.3 26.1 108 26.2 108.6 26.2C109.5 26.2 110.4 26.1 111.2 25.8C111.9 25.6 112.6 25.1 113.2 24.6C114.1 23.6 114.5 22.3 114.5 21C114.5 20.1 114.3 19.2 113.9 18.4C114.2 18.2 114.5 18.1 114.8 18C115.2 17.9 115.8 18 116.3 18.3ZM108.5 24.3C107.8 24.3 107.2 24.1 106.6 23.8C106 23.5 105.6 22.9 105.3 22.3C105 21.7 104.9 21 105.1 20.4C105.2 19.7 105.5 19.1 106 18.7C106.5 18.2 107 17.9 107.7 17.7C108.3 17.6 109 17.6 109.6 17.8C110.2 18 110.8 18.4 111.1 19C111.5 19.5 111.7 20.2 111.7 20.8V20.9C111.7 21.3 111.6 21.8 111.5 22.2C111.4 22.6 111.1 23 110.8 23.3C110.5 23.6 110.1 23.9 109.7 24C109.4 24.2 109 24.3 108.5 24.3Z" fill="#227352"/>
</g>
</g>
</g>
</g>
</g>
</g>
</g>
</svg>
