<svg xmlns="http://www.w3.org/2000/svg" width="48" height="48" viewBox="0 0 48 48" fill="none"><circle cx="24" cy="24" r="24" fill="#E7EEFF"></circle><path d="M24 38.6636C23.8012 38.6635 23.6042 38.6251 23.42 38.5503C21.516 37.801 12 33.6996 12 26.6636V15.0636L23.4387 10.7689C23.801 10.633 24.2003 10.633 24.5627 10.7689L36 15.0636V26.6636C36 33.6996 26.484 37.801 24.576 38.5516C24.3931 38.6259 24.1974 38.664 24 38.6636ZM23.6666 13.4036L14.6667 16.9076V26.6609C14.6667 31.5943 22.1453 35.1036 24 35.8983C25.8667 35.0983 33.3333 31.5903 33.3333 26.6609V16.9076L24 13.4036H23.6666Z" fill="#3D7FFC"></path><path d="M22.6562 28C22.3027 27.9999 21.9636 27.8594 21.7136 27.6093L18.6562 24.552L20.5416 22.6667L22.6562 24.7813L27.4376 20L29.3229 21.8853L23.5989 27.6093C23.3489 27.8594 23.0098 27.9999 22.6562 28Z" fill="#3D7FFC"></path></svg>