<svg width="136" height="112" viewBox="0 0 136 112" fill="none" xmlns="http://www.w3.org/2000/svg">
<g clip-path="url(#clip0_8216_231)">
<rect width="135" height="112" transform="translate(0.685547)" fill="#091E42"/>
<rect width="135" height="112" transform="translate(0.685547)" fill="url(#paint0_radial_8216_231)"/>
<rect width="135" height="112" transform="translate(0.685547)" fill="url(#paint1_radial_8216_231)"/>
<rect width="135" height="112" transform="translate(0.685547)" fill="url(#paint2_radial_8216_231)"/>
<g style="mix-blend-mode:color-dodge" opacity="0.7">
<path d="M48.863 24.0205H21.3163C20.8869 24.0205 20.5388 24.3686 20.5388 24.798C20.5388 25.2275 20.8869 25.5756 21.3163 25.5756H48.863C49.2924 25.5756 49.6405 25.2275 49.6405 24.798C49.6405 24.3686 49.2924 24.0205 48.863 24.0205Z" fill="#E7EEFF"/>
<path d="M97.6218 103.331H70.0751C69.6457 103.331 69.2976 103.679 69.2976 104.109C69.2976 104.538 69.6457 104.886 70.0751 104.886H97.6218C98.0512 104.886 98.3993 104.538 98.3993 104.109C98.3993 103.679 98.0512 103.331 97.6218 103.331Z" fill="#E7EEFF"/>
<path d="M100.164 72.9365H52.8456C52.4162 72.9365 52.0681 73.2846 52.0681 73.714C52.0681 74.1435 52.4162 74.4916 52.8456 74.4916H100.164C100.593 74.4916 100.941 74.1435 100.941 73.714C100.941 73.2846 100.593 72.9365 100.164 72.9365Z" fill="#9FC0FF"/>
<path d="M69.9512 16.2881H53.2899C52.8605 16.2881 52.5124 16.6362 52.5124 17.0656C52.5124 17.495 52.8605 17.8431 53.2899 17.8431H69.9512C70.3806 17.8431 70.7287 17.495 70.7287 17.0656C70.7287 16.6362 70.3806 16.2881 69.9512 16.2881Z" fill="#9FC0FF"/>
<path d="M103.401 27.7236H86.7396C86.3101 27.7236 85.962 28.0717 85.962 28.5012C85.962 28.9306 86.3101 29.2787 86.7396 29.2787H103.401C103.83 29.2787 104.178 28.9306 104.178 28.5012C104.178 28.0717 103.83 27.7236 103.401 27.7236Z" fill="#9FC0FF"/>
<path d="M41.9401 90.6782H25.9453C25.5158 90.6782 25.1677 91.0263 25.1677 91.4557C25.1677 91.8852 25.5158 92.2333 25.9453 92.2333H41.9401C42.3695 92.2333 42.7176 91.8852 42.7176 91.4557C42.7176 91.0263 42.3695 90.6782 41.9401 90.6782Z" fill="#9FC0FF"/>
<path d="M40.6273 41.6133H30.1862C29.7568 41.6133 29.4087 41.9614 29.4087 42.3908C29.4087 42.8202 29.7568 43.1683 30.1862 43.1683H40.6273C41.0567 43.1683 41.4048 42.8202 41.4048 42.3908C41.4048 41.9614 41.0567 41.6133 40.6273 41.6133Z" fill="#3D7FFC"/>
<path d="M117.341 78.4902H59.7056C59.2909 78.4902 58.9547 78.8264 58.9547 79.2411C58.9547 79.6558 59.2909 79.9919 59.7056 79.9919H117.341C117.756 79.9919 118.092 79.6558 118.092 79.2411C118.092 78.8264 117.756 78.4902 117.341 78.4902Z" fill="#9FC0FF"/>
<path d="M114.067 38.0336L83.7173 38.0079C83.3028 38.0076 82.9665 38.3432 82.9659 38.7577C82.9653 39.1725 83.3012 39.5093 83.7161 39.5096L114.066 39.5353C114.48 39.5357 114.817 39.2001 114.817 38.7856C114.818 38.3707 114.482 38.034 114.067 38.0336Z" fill="#3D7FFC"/>
<path d="M71.8441 24.0359L61.9453 24.0216C61.5306 24.021 61.194 24.3567 61.1934 24.7714C61.1928 25.186 61.5285 25.5227 61.9431 25.5233L71.8419 25.5376C72.2566 25.5382 72.5932 25.2025 72.5938 24.7878C72.5944 24.3731 72.2588 24.0365 71.8441 24.0359Z" fill="#3D7FFC"/>
<path d="M57.0664 84.7104H35.9621C35.5327 84.7104 35.1846 85.0586 35.1846 85.488C35.1846 85.9174 35.5327 86.2655 35.9621 86.2655H57.0664C57.4958 86.2655 57.8439 85.9174 57.8439 85.488C57.8439 85.0586 57.4958 84.7104 57.0664 84.7104Z" fill="#E7EEFF"/>
<path d="M55.2325 33.8364H33.6617C33.2471 33.8364 32.9109 34.1726 32.9109 34.5873C32.9109 35.002 33.2471 35.3381 33.6617 35.3381H55.2325C55.6472 35.3381 55.9834 35.002 55.9834 34.5873C55.9834 34.1726 55.6472 33.8364 55.2325 33.8364Z" fill="#E7EEFF"/>
<path d="M77.1849 33.8364H61.8862C61.4715 33.8364 61.1354 34.1726 61.1354 34.5873C61.1354 35.002 61.4715 35.3381 61.8862 35.3381H77.1849C77.5996 35.3381 77.9357 35.002 77.9357 34.5873C77.9357 34.1726 77.5996 33.8364 77.1849 33.8364Z" fill="#3D7FFC"/>
<path d="M83.2801 42.502H55.7335C55.304 42.502 54.9559 42.8501 54.9559 43.2795C54.9559 43.7089 55.304 44.057 55.7335 44.057H83.2801C83.7095 44.057 84.0576 43.7089 84.0576 43.2795C84.0576 42.8501 83.7095 42.502 83.2801 42.502Z" fill="#9FC0FF"/>
<path d="M57.9093 55.8062H13.266C12.8513 55.8062 12.5151 56.1423 12.5151 56.557C12.5151 56.9717 12.8513 57.3078 13.266 57.3078H57.9093C58.3239 57.3078 58.6601 56.9717 58.6601 56.557C58.6601 56.1423 58.3239 55.8062 57.9093 55.8062Z" fill="#9FC0FF"/>
<path d="M93.4199 51.7944H30.8562C30.4415 51.7944 30.1053 52.1306 30.1053 52.5453C30.1053 52.96 30.4415 53.2961 30.8562 53.2961H93.4199C93.8345 53.2961 94.1707 52.96 94.1707 52.5453C94.1707 52.1306 93.8345 51.7944 93.4199 51.7944Z" fill="#3D7FFC"/>
<path d="M96.2254 56.4927H33.6617C33.2471 56.4927 32.9109 56.8288 32.9109 57.2435C32.9109 57.6582 33.2471 57.9944 33.6617 57.9944H96.2254C96.6401 57.9944 96.9762 57.6582 96.9762 57.2435C96.9762 56.8288 96.6401 56.4927 96.2254 56.4927Z" fill="#9FC0FF"/>
<path d="M114.379 56.499H101.717C101.287 56.499 100.939 56.8471 100.939 57.2765C100.939 57.706 101.287 58.0541 101.717 58.0541H114.379C114.809 58.0541 115.157 57.706 115.157 57.2765C115.157 56.8471 114.809 56.499 114.379 56.499Z" fill="#E7EEFF"/>
<path d="M18.8575 61.9785H6.19488C5.76547 61.9785 5.41736 62.3266 5.41736 62.756C5.41736 63.1855 5.76547 63.5336 6.19488 63.5336H18.8575C19.2869 63.5336 19.635 63.1855 19.635 62.756C19.635 62.3266 19.2869 61.9785 18.8575 61.9785Z" fill="#E7EEFF"/>
<path d="M55.3597 61.9785H48.4731C48.0437 61.9785 47.6956 62.3266 47.6956 62.756C47.6956 63.1855 48.0437 63.5336 48.4731 63.5336H55.3597C55.7892 63.5336 56.1373 63.1855 56.1373 62.756C56.1373 62.3266 55.7892 61.9785 55.3597 61.9785Z" fill="#E7EEFF"/>
<path d="M77.1849 62.0459H61.8862C61.4715 62.0459 61.1354 62.3821 61.1354 62.7967C61.1354 63.2114 61.4715 63.5476 61.8862 63.5476H77.1849C77.5996 63.5476 77.9357 63.2114 77.9357 62.7967C77.9357 62.3821 77.5996 62.0459 77.1849 62.0459Z" fill="#3D7FFC"/>
<path d="M109.325 61.9785H84.888C84.4586 61.9785 84.1105 62.3266 84.1105 62.756C84.1105 63.1855 84.4586 63.5336 84.888 63.5336H109.325C109.754 63.5336 110.102 63.1855 110.102 62.756C110.102 62.3266 109.754 61.9785 109.325 61.9785Z" fill="#9FC0FF"/>
<path d="M101.719 90.7085H83.9466C83.5172 90.7085 83.1691 91.0566 83.1691 91.486C83.1691 91.9154 83.5172 92.2635 83.9466 92.2635H101.719C102.148 92.2635 102.496 91.9154 102.496 91.486C102.496 91.0566 102.148 90.7085 101.719 90.7085Z" fill="#3D7FFC"/>
<path d="M68.4164 95.3071H43.5356C43.1062 95.3071 42.7581 95.6552 42.7581 96.0847C42.7581 96.5141 43.1062 96.8622 43.5356 96.8622H68.4164C68.8458 96.8622 69.1939 96.5141 69.1939 96.0847C69.1939 95.6552 68.8458 95.3071 68.4164 95.3071Z" fill="#3D7FFC"/>
<path d="M99.6948 70.002H18.8414C18.4154 70.002 18.0699 70.3474 18.0699 70.7735C18.0699 71.1995 18.4154 71.545 18.8414 71.545H99.6947C100.121 71.545 100.466 71.1995 100.466 70.7735C100.466 70.3474 100.121 70.002 99.6948 70.002Z" fill="#9FC0FF"/>
</g>
<g filter="url(#filter0_bd_8216_231)">
<path d="M100.925 30.9883H29.0168C27.347 30.9883 25.9934 32.3403 25.9934 34.008V82.4604C25.9934 84.1281 27.347 85.4801 29.0168 85.4801H100.925C102.594 85.4801 103.948 84.1281 103.948 82.4604V34.008C103.948 32.3403 102.594 30.9883 100.925 30.9883Z" fill="url(#paint3_linear_8216_231)"/>
<path d="M29.0168 31.122H100.925C102.521 31.122 103.814 32.4143 103.814 34.008V82.4604C103.814 84.0541 102.521 85.3464 100.925 85.3464H29.0168C27.4207 85.3464 26.1271 84.0541 26.1271 82.4604V34.008C26.1271 32.4143 27.4207 31.122 29.0168 31.122Z" stroke="url(#paint4_linear_8216_231)" stroke-opacity="0.2" stroke-width="0.267465"/>
</g>
<g style="mix-blend-mode:overlay">
<path d="M100.902 30.9883H28.8499C27.1768 30.9883 25.8204 32.3371 25.8204 34.001V82.341C25.8204 84.0049 27.1768 85.3538 28.8499 85.3538H100.902C102.575 85.3538 103.932 84.0049 103.932 82.341V34.001C103.932 32.3371 102.575 30.9883 100.902 30.9883Z" fill="#A2C6FF" fill-opacity="0.6"/>
</g>
<path d="M99.8394 35.0498H30.2163V79.5795H99.8394V35.0498Z" fill="#24303E"/>
<g filter="url(#filter1_bd_8216_231)">
<path d="M111.588 82.6514C111.588 82.317 111.352 82.0459 111.061 82.0459H64.9547H18.8486C18.5577 82.0459 18.3218 82.317 18.3218 82.6514V85.5017C18.3218 85.8361 18.5577 86.1072 18.8486 86.1072H111.061C111.352 86.1072 111.588 85.8361 111.588 85.5017V82.6514Z" fill="url(#paint5_linear_8216_231)"/>
<path d="M111.061 82.1796C111.261 82.1796 111.454 82.3728 111.454 82.6514V85.5017C111.454 85.7804 111.261 85.9735 111.061 85.9735H18.8486C18.6484 85.9735 18.4555 85.7804 18.4555 85.5017V82.6514C18.4555 82.3728 18.6484 82.1796 18.8486 82.1796H64.9547H111.061Z" stroke="url(#paint6_linear_8216_231)" stroke-opacity="0.2" stroke-width="0.267465"/>
</g>
<g filter="url(#filter2_bd_8216_231)">
<path d="M56.6158 82.0459H73.427C73.4981 82.0459 73.5558 82.1036 73.5558 82.1747C73.5558 82.5558 73.4042 82.9213 73.1344 83.1908C72.8646 83.4602 72.4987 83.6116 72.1172 83.6116H58.0579C57.6763 83.6116 57.3104 83.4602 57.0406 83.1908C56.7709 82.9213 56.6193 82.5558 56.6193 82.1747V82.0493C56.6193 82.0474 56.6177 82.0459 56.6158 82.0459Z" fill="url(#paint7_linear_8216_231)"/>
<path d="M57.1351 83.0961C56.8916 82.8529 56.7543 82.5234 56.753 82.1796H73.4221C73.4208 82.5234 73.2835 82.8529 73.0399 83.0961C72.7952 83.3405 72.4633 83.4779 72.1172 83.4779H58.0579C57.7118 83.4779 57.3798 83.3405 57.1351 83.0961Z" stroke="url(#paint8_linear_8216_231)" stroke-opacity="0.2" stroke-width="0.267465"/>
</g>
<g style="mix-blend-mode:overlay">
<path d="M56.5652 82.0732H73.6873V82.2021C73.6873 82.5832 73.5341 82.9486 73.2614 83.2181C72.9887 83.4876 72.6188 83.639 72.2332 83.639H58.0228C57.6371 83.639 57.2673 83.4876 56.9946 83.2181C56.7219 82.9486 56.5687 82.5832 56.5687 82.2021V82.0732H56.5652Z" fill="#A2C6FF" fill-opacity="0.6"/>
</g>
<path d="M30.6469 44.8369C30.6469 43.7238 31.5493 42.8215 32.6623 42.8215H97.9691V79.4613H30.6469V44.8369Z" fill="white" stroke="#D2DCE4" stroke-width="0.2211"/>
<rect x="96.0005" y="49.9175" width="0.979313" height="4.90296" rx="0.489656" fill="#D2DCE4"/>
<mask id="mask0_8216_231" style="mask-type:alpha" maskUnits="userSpaceOnUse" x="30" y="42" width="66" height="38">
<rect x="30.1605" y="42.3896" width="64.9824" height="37.1815" fill="#D9D9D9"/>
</mask>
<g mask="url(#mask0_8216_231)">
<path d="M30.3363 47.4648L30.3363 42.5619L35.2328 42.5619L35.2328 47.4648L30.3363 47.4648Z" fill="white" stroke="#D2DCE4" stroke-width="0.219511"/>
<path d="M30.3363 52.3638L30.3363 47.4608L35.2328 47.4608L35.2328 52.3638L30.3363 52.3638Z" fill="white" stroke="#D2DCE4" stroke-width="0.219511"/>
<path d="M30.3363 71.978L30.3363 67.0751L35.2328 67.0751L35.2328 71.978L30.3363 71.978Z" fill="white" stroke="#D2DCE4" stroke-width="0.219511"/>
<path d="M30.3363 62.1738L30.3363 57.2709L35.2328 57.2709L35.2328 62.1738L30.3363 62.1738Z" fill="white" stroke="#D2DCE4" stroke-width="0.219511"/>
<path d="M30.3363 81.7822L30.3363 76.8793L35.2328 76.8793L35.2328 81.7822L30.3363 81.7822Z" fill="white" stroke="#D2DCE4" stroke-width="0.219511"/>
<path d="M30.3363 57.2695L30.3363 52.3666L35.2328 52.3666L35.2328 57.2695L30.3363 57.2695Z" fill="white" stroke="#D2DCE4" stroke-width="0.219511"/>
<path d="M30.3363 76.8833L30.3363 71.9803L35.2328 71.9803L35.2328 76.8833L30.3363 76.8833Z" fill="white" stroke="#D2DCE4" stroke-width="0.219511"/>
<path d="M30.3363 67.0713L30.3363 62.1683L35.2328 62.1683L35.2328 67.0713L30.3363 67.0713Z" fill="white" stroke="#D2DCE4" stroke-width="0.219511"/>
<path d="M32.223 51.0522H31.952V50.0467H31.735V49.854H32.223V51.0522ZM33.4834 51.0522H32.6046L32.5716 50.8751L32.978 50.5087C33.0909 50.4062 33.1586 50.3281 33.1586 50.2256C33.1586 50.1231 33.084 50.0571 32.9659 50.0571C32.846 50.0571 32.7418 50.1353 32.6758 50.2187L32.5577 50.0346C32.5734 49.9981 32.721 49.8366 32.9919 49.8366C33.2628 49.8366 33.4278 49.9807 33.4278 50.1909C33.4278 50.401 33.2715 50.526 33.176 50.6111L32.9277 50.8352H33.4834V51.0522Z" fill="#303B45"/>
<path d="M32.223 70.6665H31.952V69.661H31.735V69.4682H32.223V70.6665ZM33.4903 70.2584C33.4903 70.4946 33.3219 70.6856 33.0423 70.6856C32.8408 70.6856 32.7193 70.5762 32.6567 70.4859C32.5977 70.4025 32.5543 70.2758 32.5543 70.083C32.5543 69.8676 32.6151 69.7009 32.714 69.5985C32.8061 69.5012 32.9224 69.4508 33.0805 69.4508C33.2437 69.4508 33.3653 69.5064 33.4521 69.5672L33.3497 69.7513C33.2924 69.7061 33.1899 69.6627 33.0926 69.6627C33.0145 69.6627 32.9624 69.6888 32.9155 69.7339C32.8651 69.7843 32.82 69.8833 32.82 70.0153C32.853 69.9788 32.9363 69.892 33.1222 69.892C33.308 69.892 33.4903 70.0222 33.4903 70.2584ZM33.2246 70.2775C33.2246 70.1733 33.1552 70.0795 33.0336 70.0795C32.9103 70.0795 32.8391 70.1733 32.8391 70.2775C32.8391 70.3834 32.9103 70.4755 33.0336 70.4755C33.1552 70.4755 33.2246 70.3834 33.2246 70.2775Z" fill="#303B45"/>
<path d="M32.223 60.8613H31.952V59.8558H31.735V59.663H32.223V60.8613ZM33.5216 60.6217H33.3618V60.8613H33.0909V60.6217H32.5074V60.4167L33.051 59.6596H33.3618V60.4046H33.5216V60.6217ZM33.0978 60.4098V59.9461L32.7627 60.4098H33.0978Z" fill="#303B45"/>
<path d="M32.223 80.4697H31.952V79.4642H31.735V79.2714H32.223V80.4697ZM33.4712 80.1311C33.4712 80.369 33.2628 80.4888 33.0127 80.4888C32.7627 80.4888 32.5543 80.369 32.5543 80.1311C32.5543 79.9852 32.6376 79.8862 32.7696 79.8445V79.8411C32.6828 79.8098 32.5873 79.7386 32.5873 79.584C32.5873 79.367 32.7835 79.2541 33.0127 79.2541C33.2403 79.2541 33.4365 79.367 33.4365 79.584C33.4365 79.7403 33.3427 79.8115 33.2559 79.8411V79.8463C33.3861 79.8862 33.4712 79.9852 33.4712 80.1311ZM33.1708 79.6049C33.1708 79.5111 33.1048 79.459 33.0127 79.459C32.919 79.459 32.8547 79.5111 32.8547 79.6049C32.8547 79.6969 32.919 79.749 33.0127 79.749C33.1048 79.749 33.1708 79.6969 33.1708 79.6049ZM33.1986 80.105C33.1986 79.9974 33.1169 79.9348 33.0127 79.9348C32.9068 79.9348 32.8269 79.9974 32.8269 80.105C32.8269 80.2127 32.9103 80.2752 33.0127 80.2752C33.1152 80.2752 33.1986 80.2127 33.1986 80.105Z" fill="#303B45"/>
<path d="M32.223 55.8564H31.952V54.8509H31.735V54.6582H32.223V55.8564ZM33.4591 55.5056C33.4591 55.7453 33.2385 55.8755 32.9919 55.8755C32.7436 55.8755 32.596 55.7366 32.5543 55.6758L32.6828 55.5091C32.7314 55.5682 32.8599 55.6585 32.9763 55.6585C33.0944 55.6585 33.1864 55.5977 33.1864 55.49C33.1864 55.3841 33.1031 55.3285 32.9954 55.3285H32.8894V55.1323H32.9954C33.0892 55.1323 33.1552 55.0854 33.1552 54.9916C33.1552 54.8978 33.077 54.8509 32.9815 54.8509C32.886 54.8509 32.7922 54.8891 32.6949 54.9673L32.5907 54.7901C32.6741 54.7172 32.7852 54.6408 33.0041 54.6408C33.2211 54.6408 33.4209 54.7589 33.4209 54.9603C33.4209 55.1201 33.3288 55.1896 33.2489 55.2226V55.2278C33.3497 55.2538 33.4591 55.3493 33.4591 55.5056Z" fill="#303B45"/>
<path d="M32.223 75.4697H31.952V74.4642H31.735V74.2714H32.223V75.4697ZM33.5042 74.4382L32.9711 75.4697H32.6758L33.202 74.4868H32.5734V74.2714H33.4278L33.5042 74.4382Z" fill="#303B45"/>
<path d="M32.223 65.6611H31.952V64.6556H31.735V64.4628H32.223V65.6611ZM33.4678 65.26C33.4678 65.5396 33.2264 65.6802 32.9884 65.6802C32.7488 65.6802 32.6029 65.5708 32.5473 65.484L32.6758 65.319C32.7418 65.4111 32.8669 65.4632 32.9693 65.4632C33.0718 65.4632 33.1951 65.4041 33.1951 65.26C33.1951 65.1176 33.077 65.0585 32.9693 65.0585C32.8912 65.0585 32.8044 65.0828 32.7505 65.121L32.6289 65.0481L32.721 64.4628H33.4226V64.6782H32.9242L32.8894 64.8935C32.9259 64.8779 32.9711 64.8675 33.0492 64.8675C33.2316 64.8675 33.4678 64.9821 33.4678 65.26Z" fill="#303B45"/>
<rect x="35.2357" y="47.4648" width="4.90296" height="13.2207" transform="rotate(-90 35.2357 47.4648)" fill="white" stroke="#D2DCE4" stroke-width="0.219511"/>
<rect x="48.4542" y="47.4648" width="4.90296" height="13.7103" transform="rotate(-90 48.4542 47.4648)" fill="white" stroke="#D2DCE4" stroke-width="0.219511"/>
<rect x="62.1627" y="47.4648" width="4.90296" height="13.7103" transform="rotate(-90 62.1627 47.4648)" fill="white" stroke="#D2DCE4" stroke-width="0.219511"/>
<rect x="75.8719" y="47.4648" width="4.90296" height="13.7103" transform="rotate(-90 75.8719 47.4648)" fill="white" stroke="#D2DCE4" stroke-width="0.219511"/>
<rect x="89.5872" y="47.4648" width="4.90296" height="13.2207" transform="rotate(-90 89.5872 47.4648)" fill="white" stroke="#D2DCE4" stroke-width="0.219511"/>
<rect x="35.2357" y="57.2695" width="4.90296" height="13.2207" transform="rotate(-90 35.2357 57.2695)" fill="url(#paint9_linear_8216_231)" fill-opacity="0.5"/>
<rect x="35.2357" y="67.0713" width="4.90296" height="13.2207" transform="rotate(-90 35.2357 67.0713)" fill="url(#paint10_linear_8216_231)" fill-opacity="0.5" stroke="#D2DCE4" stroke-width="0.219511"/>
<rect x="35.2357" y="76.8833" width="4.90295" height="13.2207" transform="rotate(-90 35.2357 76.8833)" fill="url(#paint11_linear_8216_231)" fill-opacity="0.5" stroke="#D2DCE4" stroke-width="0.219511"/>
<rect x="48.4542" y="57.2695" width="4.90296" height="13.7103" transform="rotate(-90 48.4542 57.2695)" fill="url(#paint12_linear_8216_231)" fill-opacity="0.5" stroke="#D2DCE4" stroke-width="0.219511"/>
<rect x="48.4542" y="67.0713" width="4.90296" height="13.7103" transform="rotate(-90 48.4542 67.0713)" fill="url(#paint13_linear_8216_231)" fill-opacity="0.5" stroke="#D2DCE4" stroke-width="0.219511"/>
<rect x="48.4542" y="76.8833" width="4.90295" height="13.7103" transform="rotate(-90 48.4542 76.8833)" fill="url(#paint14_linear_8216_231)" fill-opacity="0.5" stroke="#D2DCE4" stroke-width="0.219511"/>
<rect x="62.1627" y="57.2695" width="4.90296" height="13.7103" transform="rotate(-90 62.1627 57.2695)" fill="url(#paint15_linear_8216_231)" fill-opacity="0.5" stroke="#D2DCE4" stroke-width="0.219511"/>
<path d="M62.1627 67.0713L62.1627 62.1683L75.873 62.1683L75.873 67.0713L62.1627 67.0713Z" fill="url(#paint16_linear_8216_231)" fill-opacity="0.5" stroke="#D2DCE4" stroke-width="0.219511"/>
<rect x="62.1627" y="76.8833" width="4.90295" height="13.7103" transform="rotate(-90 62.1627 76.8833)" fill="url(#paint17_linear_8216_231)" fill-opacity="0.5" stroke="#D2DCE4" stroke-width="0.219511"/>
<rect x="75.8719" y="57.2695" width="4.90296" height="13.7103" transform="rotate(-90 75.8719 57.2695)" fill="#D2DCE4" fill-opacity="0.5" stroke="#D2DCE4" stroke-width="0.219511"/>
<rect x="75.8719" y="67.0747" width="4.90296" height="13.7103" transform="rotate(-90 75.8719 67.0747)" fill="#D2DCE4" fill-opacity="0.5" stroke="#D2DCE4" stroke-width="0.219511"/>
<rect x="75.8719" y="76.8833" width="4.90295" height="13.7103" transform="rotate(-90 75.8719 76.8833)" fill="#D2DCE4" fill-opacity="0.5" stroke="#D2DCE4" stroke-width="0.219511"/>
<rect x="89.5872" y="57.2695" width="4.90296" height="13.2207" transform="rotate(-90 89.5872 57.2695)" fill="#D2DCE4" fill-opacity="0.5" stroke="#D2DCE4" stroke-width="0.219511"/>
<rect x="89.5872" y="67.0747" width="4.90296" height="13.2207" transform="rotate(-90 89.5872 67.0747)" fill="#D2DCE4" fill-opacity="0.5" stroke="#D2DCE4" stroke-width="0.219511"/>
<rect x="89.5872" y="76.8833" width="4.90295" height="13.2207" transform="rotate(-90 89.5872 76.8833)" fill="#D2DCE4" fill-opacity="0.5" stroke="#D2DCE4" stroke-width="0.219511"/>
<rect x="35.2357" y="52.3638" width="4.90296" height="13.2207" transform="rotate(-90 35.2357 52.3638)" fill="white" stroke="#D2DCE4" stroke-width="0.219511"/>
<rect x="35.2357" y="62.1738" width="4.90296" height="13.2207" transform="rotate(-90 35.2357 62.1738)" fill="white" stroke="#D2DCE4" stroke-width="0.219511"/>
<rect x="35.2357" y="71.978" width="4.90296" height="13.2207" transform="rotate(-90 35.2357 71.978)" fill="white" stroke="#D2DCE4" stroke-width="0.219511"/>
<rect x="35.2357" y="81.7822" width="4.90296" height="13.2207" transform="rotate(-90 35.2357 81.7822)" fill="white" stroke="#D2DCE4" stroke-width="0.219511"/>
<rect x="48.4542" y="52.3638" width="4.90296" height="13.7103" transform="rotate(-90 48.4542 52.3638)" fill="white" stroke="#D2DCE4" stroke-width="0.219511"/>
<rect x="48.4542" y="62.1738" width="4.90296" height="13.7103" transform="rotate(-90 48.4542 62.1738)" fill="white" stroke="#D2DCE4" stroke-width="0.219511"/>
<rect x="48.4542" y="71.978" width="4.90296" height="13.7103" transform="rotate(-90 48.4542 71.978)" fill="white" stroke="#D2DCE4" stroke-width="0.219511"/>
<rect x="48.4542" y="81.7822" width="4.90296" height="13.7103" transform="rotate(-90 48.4542 81.7822)" fill="white" stroke="#D2DCE4" stroke-width="0.219511"/>
<rect x="62.1627" y="52.3638" width="4.90296" height="13.7103" transform="rotate(-90 62.1627 52.3638)" fill="white" stroke="#D2DCE4" stroke-width="0.219511"/>
<rect x="62.1627" y="62.1738" width="4.90296" height="13.7103" transform="rotate(-90 62.1627 62.1738)" fill="white" stroke="#D2DCE4" stroke-width="0.219511"/>
<rect x="62.1627" y="71.978" width="4.90296" height="13.7103" transform="rotate(-90 62.1627 71.978)" fill="white" stroke="#D2DCE4" stroke-width="0.219511"/>
<rect x="62.1627" y="81.7822" width="4.90296" height="13.7103" transform="rotate(-90 62.1627 81.7822)" fill="white" stroke="#D2DCE4" stroke-width="0.219511"/>
<rect x="75.8719" y="52.3657" width="4.90296" height="13.7103" transform="rotate(-90 75.8719 52.3657)" fill="white" stroke="#D2DCE4" stroke-width="0.219511"/>
<rect x="75.8719" y="62.1738" width="4.90296" height="13.7103" transform="rotate(-90 75.8719 62.1738)" fill="white" stroke="#D2DCE4" stroke-width="0.219511"/>
<rect x="75.8719" y="71.978" width="4.90296" height="13.7103" transform="rotate(-90 75.8719 71.978)" fill="white" stroke="#D2DCE4" stroke-width="0.219511"/>
<rect x="75.8719" y="81.7822" width="4.90296" height="13.7103" transform="rotate(-90 75.8719 81.7822)" fill="white" stroke="#D2DCE4" stroke-width="0.219511"/>
<rect x="89.5872" y="52.3657" width="4.90296" height="13.2207" transform="rotate(-90 89.5872 52.3657)" fill="white" stroke="#D2DCE4" stroke-width="0.219511"/>
<rect x="89.5872" y="62.1738" width="4.90296" height="13.2207" transform="rotate(-90 89.5872 62.1738)" fill="white" stroke="#D2DCE4" stroke-width="0.219511"/>
<rect x="89.5872" y="71.978" width="4.90296" height="13.2207" transform="rotate(-90 89.5872 71.978)" fill="white" stroke="#D2DCE4" stroke-width="0.219511"/>
<rect x="89.5872" y="81.7822" width="4.90296" height="13.2207" transform="rotate(-90 89.5872 81.7822)" fill="white" stroke="#D2DCE4" stroke-width="0.219511"/>
<path d="M37.6869 54.8174H46.5007" stroke="#B8C4D0" stroke-width="0.850385" stroke-linecap="round"/>
<path d="M37.6869 64.6221H46.5007" stroke="#B8C4D0" stroke-width="0.850385" stroke-linecap="round"/>
<path d="M37.6869 74.4282H46.5007" stroke="#B8C4D0" stroke-width="0.850385" stroke-linecap="round"/>
<path d="M50.9054 54.8174H60.2088" stroke="#B8C4D0" stroke-width="0.850385" stroke-linecap="round"/>
<path d="M50.9054 64.6221H60.2088" stroke="#B8C4D0" stroke-width="0.850385" stroke-linecap="round"/>
<path d="M50.9054 74.4282H60.2088" stroke="#B8C4D0" stroke-width="0.850385" stroke-linecap="round"/>
<path d="M64.621 54.8174H73.4347" stroke="#B8C4D0" stroke-width="0.850385" stroke-linecap="round"/>
<path d="M64.621 64.6221H73.4347" stroke="#B8C4D0" stroke-width="0.84918" stroke-linecap="round"/>
<path d="M64.621 74.4282H73.4347" stroke="#B8C4D0" stroke-width="0.850385" stroke-linecap="round"/>
<path d="M77.8368 54.8174H87.1402" stroke="#B8C4D0" stroke-width="0.850385" stroke-linecap="round"/>
<path d="M77.8368 64.6221H87.1402" stroke="#B8C4D0" stroke-width="0.850385" stroke-linecap="round"/>
<path d="M77.8368 74.4282H87.1402" stroke="#B8C4D0" stroke-width="0.850385" stroke-linecap="round"/>
<path d="M92.0392 54.8174H100.363" stroke="#B8C4D0" stroke-width="0.850385" stroke-linecap="round"/>
<path d="M92.0392 64.6221H100.363" stroke="#B8C4D0" stroke-width="0.850385" stroke-linecap="round"/>
<path d="M92.0392 74.4282H100.363" stroke="#B8C4D0" stroke-width="0.850385" stroke-linecap="round"/>
<path d="M37.6869 49.9146H46.5007" stroke="#D2DCE4" stroke-width="0.850385" stroke-linecap="round"/>
<path d="M37.6869 59.7183H46.5007" stroke="#D2DCE4" stroke-width="0.850385" stroke-linecap="round"/>
<path d="M37.6869 69.5278H46.5007" stroke="#D2DCE4" stroke-width="0.850385" stroke-linecap="round"/>
<path d="M37.6869 79.3325H46.5007" stroke="#D2DCE4" stroke-width="0.850385" stroke-linecap="round"/>
<path d="M50.9054 49.9146H60.2088" stroke="#D2DCE4" stroke-width="0.850385" stroke-linecap="round"/>
<path d="M50.9054 59.7183H60.2088" stroke="#D2DCE4" stroke-width="0.850385" stroke-linecap="round"/>
<path d="M50.9054 69.5278H60.2088" stroke="#D2DCE4" stroke-width="0.850385" stroke-linecap="round"/>
<path d="M50.9054 79.3325H60.2088" stroke="#D2DCE4" stroke-width="0.850385" stroke-linecap="round"/>
<path d="M64.621 49.9146H73.4347" stroke="#D2DCE4" stroke-width="0.850385" stroke-linecap="round"/>
<path d="M64.621 59.7183H73.4347" stroke="#D2DCE4" stroke-width="0.850385" stroke-linecap="round"/>
<path d="M64.621 69.5278H73.4347" stroke="#D2DCE4" stroke-width="0.850385" stroke-linecap="round"/>
<path d="M64.621 79.3325H73.4347" stroke="#D2DCE4" stroke-width="0.850385" stroke-linecap="round"/>
<path d="M77.8368 49.9146H87.1402" stroke="#D2DCE4" stroke-width="0.850385" stroke-linecap="round"/>
<path d="M77.8368 59.7183H87.1402" stroke="#D2DCE4" stroke-width="0.850385" stroke-linecap="round"/>
<path d="M77.8368 69.5278H87.1402" stroke="#D2DCE4" stroke-width="0.850385" stroke-linecap="round"/>
<path d="M77.8368 79.3325H87.1402" stroke="#D2DCE4" stroke-width="0.850385" stroke-linecap="round"/>
<path d="M92.0392 49.9146H100.363" stroke="#D2DCE4" stroke-width="0.850385" stroke-linecap="round"/>
<path d="M92.0392 59.7183H100.363" stroke="#D2DCE4" stroke-width="0.850385" stroke-linecap="round"/>
<path d="M92.0392 69.5278H100.363" stroke="#D2DCE4" stroke-width="0.850385" stroke-linecap="round"/>
<path d="M92.0392 79.3325H100.363" stroke="#D2DCE4" stroke-width="0.850385" stroke-linecap="round"/>
<path d="M33.9826 46.2776V43.8257L31.5339 46.2776H33.9826Z" fill="#B8C4D0"/>
<path d="M42.4403 45.1446C42.4403 45.4092 42.3337 45.5671 42.2192 45.6638C42.1066 45.7586 41.931 45.8257 41.6941 45.8257H41.2322V44.4636H41.6941C41.931 44.4636 42.1066 44.5307 42.2192 44.6274C42.3337 44.7222 42.4403 44.8801 42.4403 45.1446ZM42.1165 45.1446C42.1165 44.9768 42.0533 44.8801 41.9961 44.8248C41.9389 44.7716 41.8441 44.7281 41.7118 44.7281H41.55V45.5552H41.7118C41.8441 45.5552 41.9389 45.5118 41.9961 45.4565C42.0533 45.4032 42.1165 45.3124 42.1165 45.1446Z" fill="#303B45"/>
<path d="M55.8374 45.8257H54.9373V44.4636H55.8197V44.7183H55.2551V44.9966H55.7881V45.2512H55.2551V45.5671H55.8374V45.8257Z" fill="#303B45"/>
<path d="M69.5037 44.7183H68.9707V45.0519H69.4721V45.3065H68.9707V45.8257H68.6529V44.4636H69.5037V44.7183Z" fill="#303B45"/>
<path d="M83.6073 45.6154C83.5383 45.6766 83.3764 45.8484 83.0013 45.8484C82.6243 45.8484 82.2926 45.5996 82.2926 45.1456C82.2926 44.6916 82.6243 44.4448 83.0053 44.4448C83.3665 44.4448 83.5225 44.6343 83.5659 44.6817L83.3547 44.8653C83.2974 44.8021 83.1908 44.7094 83.0053 44.7094C82.7861 44.7094 82.6164 44.8693 82.6164 45.1456C82.6164 45.422 82.7901 45.5819 83.0112 45.5819C83.2323 45.5819 83.2954 45.495 83.2954 45.495V45.2937H83.0092V45.0509H83.6073V45.6154Z" fill="#303B45"/>
</g>
<path d="M95.1998 79.5707V42.5645" stroke="#D2DCE4" stroke-width="0.212596"/>
<rect x="30.2212" y="38.5513" width="67.7319" height="4.15881" fill="url(#paint18_linear_8216_231)"/>
<path d="M30.2164 35.0327H97.9483V38.5517H30.2164V35.0327Z" fill="url(#paint19_linear_8216_231)"/>
<path d="M33.4702 36.8093C33.4705 36.9413 33.4316 37.0705 33.3584 37.1805C33.2851 37.2904 33.1808 37.3762 33.0587 37.4269C32.9367 37.4777 32.8022 37.4911 32.6725 37.4656C32.5427 37.44 32.4235 37.3766 32.3299 37.2833C32.2362 37.1901 32.1724 37.0712 32.1465 36.9417C32.1206 36.8122 32.1337 36.6779 32.1843 36.5559C32.2348 36.4339 32.3205 36.3295 32.4304 36.2561C32.5403 36.1827 32.6696 36.1436 32.8019 36.1436C32.9785 36.1448 33.1475 36.2153 33.2725 36.3398C33.3975 36.4644 33.4685 36.633 33.4702 36.8093Z" fill="#F66058"/>
<path d="M36.2784 36.8093C36.2788 36.9414 36.2398 37.0706 36.1665 37.1806C36.0932 37.2906 35.9888 37.3764 35.8666 37.4271C35.7444 37.4778 35.6099 37.4912 35.4801 37.4655C35.3503 37.4398 35.2311 37.3762 35.1375 37.2828C35.044 37.1893 34.9803 37.0703 34.9545 36.9407C34.9288 36.8111 34.9422 36.6768 34.993 36.5548C35.0437 36.4328 35.1297 36.3286 35.2398 36.2554C35.35 36.1821 35.4794 36.1432 35.6117 36.1436C35.6994 36.1431 35.7863 36.1601 35.8674 36.1934C35.9484 36.2267 36.0221 36.2757 36.0841 36.3376C36.1461 36.3995 36.1952 36.4731 36.2286 36.554C36.2619 36.635 36.2789 36.7217 36.2784 36.8093Z" fill="#F9BD2E"/>
<path d="M39.1649 36.8093C39.1652 36.9413 39.1263 37.0705 39.0531 37.1805C38.9798 37.2904 38.8755 37.3762 38.7535 37.4269C38.6314 37.4777 38.4969 37.4911 38.3672 37.4656C38.2374 37.44 38.1182 37.3766 38.0246 37.2833C37.9309 37.1901 37.8671 37.0712 37.8412 36.9417C37.8153 36.8122 37.8284 36.6779 37.879 36.5559C37.9295 36.4339 38.0152 36.3295 38.1251 36.2561C38.235 36.1827 38.3643 36.1436 38.4966 36.1436C38.6732 36.1448 38.8422 36.2153 38.9672 36.3398C39.0922 36.4644 39.1632 36.633 39.1649 36.8093Z" fill="#3CC840"/>
<rect x="31.8773" y="39.5112" width="2.34825" height="2.23936" rx="0.415468" fill="#4B825D"/>
<path d="M33.107 40.7452L33.3875 41.1915H33.6643L33.2553 40.6138L33.6376 40.0718H33.3643L33.1052 40.4758L32.8462 40.0718H32.5729L32.9552 40.6121L32.5461 41.1915H32.8212L33.107 40.7452Z" fill="white"/>
<rect opacity="0.3" x="89.9667" y="39.8325" width="7.98724" height="1.59954" fill="white"/>
<rect opacity="0.3" x="76.5502" y="39.8325" width="11.1821" height="1.59954" fill="white"/>
<rect opacity="0.15" x="50.0311" y="39.8325" width="11.1821" height="1.59954" fill="white"/>
<rect opacity="0.3" x="63.7744" y="39.665" width="10.7936" height="1.79893" fill="white"/>
<rect opacity="0.15" x="36.6082" y="39.8325" width="11.1821" height="1.59954" fill="white"/>
<g filter="url(#filter3_bd_8216_231)">
<path d="M64.3937 35.1748L100.591 35.1953V79.8804H64.3937V35.1748Z" fill="url(#paint20_linear_8216_231)"/>
</g>
<line x1="64.3937" y1="38.7234" x2="100.501" y2="38.7234" stroke="white" stroke-opacity="0.2" stroke-width="0.129296"/>
<g filter="url(#filter4_d_8216_231)">
<path d="M64.3937 35.1768L64.3937 79.8836" stroke="url(#paint21_linear_8216_231)" stroke-width="0.42749"/>
</g>
<rect x="67.3721" y="41.4644" width="3.60844" height="1.28693" rx="0.643465" fill="#00E0FF"/>
<rect x="72.0911" y="41.4644" width="6.96129" height="1.28693" rx="0.643465" fill="#9D97F4"/>
<rect x="67.3721" y="45.7339" width="8.85712" height="1.28693" rx="0.643465" fill="#00E0FF"/>
<rect x="77.9464" y="45.7539" width="11.8095" height="1.28693" rx="0.643465" fill="#3D7FFC"/>
<rect x="80.2415" y="41.4644" width="14.1563" height="1.28693" rx="0.643465" fill="#3D7FFC"/>
<rect x="73.2771" y="66.7563" width="8.92472" height="1.28693" rx="0.643465" fill="#9D97F4"/>
<rect x="67.3721" y="71.0264" width="6.88887" height="1.28693" rx="0.643465" fill="#00E0FF"/>
<rect x="67.3721" y="74.9683" width="13.1217" height="1.28692" rx="0.643462" fill="#00E0FF"/>
<rect x="81.4779" y="74.9683" width="4.59258" height="1.28692" rx="0.643462" fill="#9D97F4"/>
<rect x="87.0549" y="74.9683" width="8.20102" height="1.28692" rx="0.643462" fill="#3D7FFC"/>
<rect x="67.3721" y="50.0044" width="6.96127" height="1.28693" rx="0.643467" fill="#00E0FF"/>
<rect x="73.5496" y="58.1943" width="9.81718" height="1.28693" rx="0.643465" fill="#3D7FFC"/>
<path d="M76.0507 50.6869C76.0507 50.3315 76.3387 50.0435 76.6941 50.0435H83.9363C84.2916 50.0435 84.5797 50.3315 84.5797 50.6869C84.5797 51.0423 84.2916 51.3304 83.9363 51.3304H76.6941C76.3387 51.3304 76.0507 51.0423 76.0507 50.6869Z" fill="#3D7FFC"/>
<rect x="67.3721" y="58.2163" width="4.46235" height="1.28693" rx="0.643467" fill="#00E0FF"/>
<rect x="67.3721" y="66.7563" width="4.46235" height="1.28693" rx="0.643465" fill="#00E0FF"/>
<rect x="75.9014" y="71.0264" width="9.35539" height="1.28693" rx="0.643465" fill="#3D7FFC"/>
<rect x="87.1055" y="71.0635" width="4.71876" height="1.28693" rx="0.643465" fill="#9D97F4"/>
<rect x="67.3721" y="54.2744" width="7.87298" height="1.28693" rx="0.643467" fill="#00E0FF"/>
<rect x="76.9596" y="54.3335" width="11.4814" height="1.28693" rx="0.643465" fill="#9D97F4"/>
<rect x="86.2612" y="50.0088" width="8.54496" height="1.3492" rx="0.674602" fill="#9D97F4"/>
<rect x="84.912" y="58.104" width="5.3968" height="1.3492" rx="0.674602" fill="#9D97F4"/>
<rect x="87.1055" y="62.4839" width="7.29261" height="1.28693" rx="0.643465" fill="#9D97F4"/>
<rect x="83.7745" y="66.7563" width="2.63751" height="1.28693" rx="0.643465" fill="#3D7FFC"/>
<rect x="67.3721" y="62.4863" width="7.54494" height="1.28693" rx="0.643465" fill="#00E0FF"/>
<rect x="76.2294" y="62.4863" width="9.5132" height="1.28693" rx="0.643465" fill="#3D7FFC"/>
<g opacity="0.6" clip-path="url(#clip1_8216_231)">
<path opacity="0.4" d="M34.5561 118.53C17.0279 118.197 3.09495 103.498 3.43605 85.7002C3.77714 67.9021 18.2631 53.7444 35.7913 54.078C53.3195 54.4117 67.2524 69.1103 66.9113 86.9083C66.5702 104.706 52.0843 118.864 34.5561 118.53Z" fill="url(#paint22_linear_8216_231)"/>
<ellipse opacity="0.7" cx="27.2214" cy="26.8596" rx="27.2214" ry="26.8596" transform="matrix(-0.0606102 0.998161 -0.998189 -0.0601584 63.188 60.6411)" fill="url(#paint23_linear_8216_231)"/>
<ellipse cx="21.6688" cy="21.7048" rx="21.6688" ry="21.7048" transform="matrix(-0.0605908 0.998163 -0.998188 -0.0601776 57.7618 65.7876)" fill="url(#paint24_linear_8216_231)"/>
</g>
<g clip-path="url(#clip2_8216_231)">
<circle cx="35.0287" cy="87.0645" r="13.1432" fill="#0A3066" stroke="url(#paint25_linear_8216_231)" stroke-width="0.701977"/>
<g clip-path="url(#clip3_8216_231)">
<path fill-rule="evenodd" clip-rule="evenodd" d="M35.4351 78.6052C35.1842 78.4604 34.8749 78.4604 34.6241 78.6052L27.9075 82.4812C27.6563 82.626 27.5017 82.8937 27.5017 83.1838V90.9417C27.5017 91.2315 27.6563 91.4991 27.9072 91.6443L34.6238 95.5233C34.8749 95.6682 35.1842 95.6682 35.4353 95.5233L42.1503 91.6443C42.4011 91.4991 42.5558 91.2314 42.5558 90.9416V83.1835C42.5558 82.8937 42.4011 82.626 42.15 82.4811L35.4351 78.6052Z" fill="url(#paint26_linear_8216_231)"/>
<path d="M42.1634 82.4813L35.4281 78.6054C35.3616 78.567 35.2904 78.5395 35.2172 78.5215L27.6686 91.4346C27.7333 91.5305 27.7964 91.5953 27.8813 91.6445L34.6281 95.5235C34.8192 95.6338 35.0463 95.6596 35.2547 95.602L42.344 82.6203C42.2902 82.5668 42.2297 82.5196 42.1634 82.4813Z" fill="url(#paint27_linear_8216_231)"/>
<path d="M42.1668 91.6441C42.3626 91.5309 42.5011 91.3325 42.5399 91.0998L35.2169 78.5212C35.0241 78.4828 34.7832 78.5049 34.6097 78.6051L27.9196 82.4577L35.1468 95.624C35.2499 95.6099 35.3509 95.5766 35.4434 95.5232L42.1668 91.6441Z" fill="url(#paint28_linear_8216_231)"/>
</g>
</g>
<path opacity="0.4" d="M100.905 62.0563C83.3769 61.7227 69.444 47.0241 69.7851 29.226C70.1262 11.428 84.6121 -2.7297 102.14 -2.39607C119.669 -2.06245 133.601 12.6362 133.26 30.4342C132.919 48.2322 118.433 62.3899 100.905 62.0563Z" fill="url(#paint29_linear_8216_231)"/>
<ellipse opacity="0.7" cx="27.2214" cy="26.8596" rx="27.2214" ry="26.8596" transform="matrix(-0.0606102 0.998161 -0.998189 -0.0601584 129.537 4.16699)" fill="url(#paint30_linear_8216_231)"/>
<ellipse cx="21.6688" cy="21.7048" rx="21.6688" ry="21.7048" transform="matrix(-0.0605908 0.998163 -0.998188 -0.0601776 124.111 9.31348)" fill="url(#paint31_linear_8216_231)"/>
<g clip-path="url(#clip4_8216_231)">
<circle cx="101.378" cy="30.5904" r="13.1432" fill="#0A3066" stroke="url(#paint32_linear_8216_231)" stroke-width="0.701977"/>
<rect x="94.0312" y="23.4033" width="14.8764" height="14.4513" rx="1.90149" fill="#FFD600"/>
<path d="M104.137 34.4972C104.384 34.8856 104.705 35.1711 105.273 35.1711C105.75 35.1711 106.055 34.9413 106.055 34.6238C106.055 34.2432 105.742 34.1085 105.217 33.8871L104.929 33.7681C104.098 33.427 103.546 32.9996 103.546 32.0961C103.546 31.2639 104.204 30.6304 105.232 30.6304C105.964 30.6304 106.491 30.8759 106.87 31.5188L105.973 32.0736C105.776 31.7325 105.563 31.5981 105.232 31.5981C104.895 31.5981 104.681 31.8043 104.681 32.0736C104.681 32.4065 104.895 32.5413 105.389 32.7475L105.677 32.8663C106.655 33.2706 107.208 33.6828 107.208 34.6095C107.208 35.6086 106.393 36.1559 105.3 36.1559C104.23 36.1559 103.539 35.6648 103.201 35.0211L104.137 34.4972ZM100.069 34.5934C100.25 34.9027 100.415 35.1641 100.81 35.1641C101.189 35.1641 101.427 35.0215 101.427 34.4669V30.6937H102.579V34.4819C102.579 35.6309 101.88 36.1538 100.859 36.1538C99.9375 36.1538 99.4036 35.694 99.1321 35.1402L100.069 34.5934Z" fill="black"/>
</g>
<g opacity="0.7">
<rect x="105.164" y="93.4331" width="16.0922" height="16.0922" rx="3.44902" fill="#0A3066" stroke="url(#paint33_linear_8216_231)" stroke-width="0.572221"/>
<path d="M117.506 104.74C117.519 104.761 117.504 104.789 117.479 104.789H113.172H110.956H107.463C107.454 104.789 107.449 104.787 107.446 104.784C107.441 104.782 107.437 104.777 107.434 104.771C107.431 104.764 107.431 104.758 107.431 104.753C107.432 104.749 107.433 104.743 107.439 104.737L109.877 101.915C109.889 101.901 109.91 101.9 109.923 101.913L111.537 103.491C111.725 103.675 112.034 103.639 112.175 103.417L114.393 99.9241C114.406 99.9045 114.434 99.9045 114.447 99.9241L117.506 104.74Z" fill="#9D97F4" stroke="url(#paint34_linear_8216_231)" stroke-width="0.381261"/>
<path d="M109.502 98.578C109.502 99.0818 109.093 99.4902 108.589 99.4902C108.085 99.4902 107.677 99.0818 107.677 98.578C107.677 98.0742 108.085 97.6657 108.589 97.6657C109.093 97.6657 109.502 98.0742 109.502 98.578Z" fill="#9D97F4" stroke="url(#paint35_linear_8216_231)" stroke-width="0.381261"/>
</g>
<g opacity="0.5">
<path d="M31.3587 15.3795C31.3587 13.8057 32.6345 12.5298 34.2083 12.5298H43.4663C45.0401 12.5298 46.3159 13.8057 46.3159 15.3795V24.6375C46.3159 26.2113 45.0401 27.4871 43.4663 27.4871H34.2083C32.6345 27.4871 31.3587 26.2113 31.3587 24.6375V15.3795Z" fill="#0A3066" stroke="url(#paint36_linear_8216_231)" stroke-width="0.472775"/>
<path d="M42.5306 18.6644H40.0828V18.66C39.947 18.6584 39.8151 18.6194 39.705 18.5481C39.595 18.4769 39.5123 18.377 39.4681 18.262C39.4605 18.2444 39.4541 18.2264 39.4489 18.2082L38.7306 16.1445L38.7129 16.0927C38.6821 16.0147 38.6242 15.9477 38.5477 15.9013C38.4712 15.8549 38.3801 15.8315 38.2878 15.8348C38.1954 15.8381 38.1067 15.868 38.0345 15.9198C37.9624 15.9715 37.9107 16.0423 37.887 16.1223L37.1602 18.2005C37.1602 18.2016 37.1602 18.203 37.1602 18.2042C37.1544 18.2259 37.1469 18.2472 37.1379 18.268C37.0927 18.382 37.0096 18.4809 36.8996 18.5512C36.7897 18.6214 36.6583 18.6595 36.5233 18.6607V18.665H34.0732C33.9665 18.6816 33.87 18.7318 33.8009 18.8065C33.7319 18.8811 33.6949 18.9752 33.6967 19.0721C33.6962 19.1347 33.7115 19.1966 33.7415 19.2532C33.7714 19.3098 33.8152 19.3597 33.8696 19.399L33.8896 19.4134L35.7919 20.71C35.8822 20.7683 35.9558 20.8451 36.0063 20.934C36.0568 21.0229 36.0828 21.1215 36.0823 21.2212C36.082 21.2675 36.0761 21.3138 36.0646 21.3589C36.0562 21.3937 36.0444 21.4278 36.0293 21.4607L35.3078 23.5355V23.5429L35.3024 23.558C35.2908 23.5964 35.2849 23.6359 35.2848 23.6756C35.283 23.7286 35.293 23.7813 35.3142 23.8308C35.3354 23.8803 35.3673 23.9258 35.408 23.9641C35.4488 24.0025 35.4977 24.0331 35.5518 24.0545C35.606 24.0759 35.6643 24.0873 35.7235 24.0884C35.8003 24.0888 35.8758 24.0701 35.9417 24.0347L36.0185 23.984L37.907 22.7008L37.9485 22.6719C38.0532 22.607 38.1773 22.5716 38.3047 22.5705C38.432 22.5694 38.5569 22.6027 38.663 22.6659C38.6863 22.6792 38.7084 22.6941 38.729 22.7106L40.6068 23.9887L40.6598 24.0253C40.7288 24.064 40.8088 24.0843 40.8903 24.0837C40.9493 24.0825 41.0075 24.0706 41.0615 24.0491C41.1155 24.0277 41.1643 23.9971 41.205 23.9588C41.2457 23.9204 41.2775 23.8751 41.2986 23.8257C41.3198 23.7764 41.3298 23.7238 41.3282 23.6709C41.3284 23.6294 41.3217 23.588 41.3082 23.5483C41.3082 23.5421 41.3036 23.5354 41.3021 23.5285L40.5776 21.4463C40.5655 21.4193 40.556 21.3914 40.5491 21.363C40.5187 21.2492 40.5241 21.1301 40.5648 21.019C40.6055 20.9079 40.6799 20.809 40.7796 20.7335C40.7958 20.7211 40.8127 20.7102 40.8296 20.6992L42.7111 19.4195L42.768 19.3798C42.817 19.3406 42.856 19.2923 42.8825 19.2384C42.909 19.1845 42.9224 19.1263 42.9216 19.0674C42.9219 18.9693 42.8825 18.8742 42.8106 18.8001C42.7386 18.7259 42.6392 18.6778 42.5306 18.6644Z" fill="#FECE4D"/>
</g>
</g>
<defs>
<filter id="filter0_bd_8216_231" x="13.7007" y="18.6956" width="102.54" height="79.0771" filterUnits="userSpaceOnUse" color-interpolation-filters="sRGB">
<feFlood flood-opacity="0" result="BackgroundImageFix"/>
<feGaussianBlur in="BackgroundImageFix" stdDeviation="6.14635"/>
<feComposite in2="SourceAlpha" operator="in" result="effect1_backgroundBlur_8216_231"/>
<feColorMatrix in="SourceAlpha" type="matrix" values="0 0 0 0 0 0 0 0 0 0 0 0 0 0 0 0 0 0 127 0" result="hardAlpha"/>
<feMorphology radius="0.441332" operator="erode" in="SourceAlpha" result="effect2_dropShadow_8216_231"/>
<feOffset dy="1.76533"/>
<feGaussianBlur stdDeviation="4.37415"/>
<feComposite in2="hardAlpha" operator="out"/>
<feColorMatrix type="matrix" values="0 0 0 0 0 0 0 0 0 0 0 0 0 0 0 0 0 0 0.2 0"/>
<feBlend mode="normal" in2="effect1_backgroundBlur_8216_231" result="effect2_dropShadow_8216_231"/>
<feBlend mode="normal" in="SourceGraphic" in2="effect2_dropShadow_8216_231" result="shape"/>
</filter>
<filter id="filter1_bd_8216_231" x="6.02908" y="69.7532" width="117.851" height="28.6469" filterUnits="userSpaceOnUse" color-interpolation-filters="sRGB">
<feFlood flood-opacity="0" result="BackgroundImageFix"/>
<feGaussianBlur in="BackgroundImageFix" stdDeviation="6.14635"/>
<feComposite in2="SourceAlpha" operator="in" result="effect1_backgroundBlur_8216_231"/>
<feColorMatrix in="SourceAlpha" type="matrix" values="0 0 0 0 0 0 0 0 0 0 0 0 0 0 0 0 0 0 127 0" result="hardAlpha"/>
<feMorphology radius="0.441332" operator="erode" in="SourceAlpha" result="effect2_dropShadow_8216_231"/>
<feOffset dy="1.76533"/>
<feGaussianBlur stdDeviation="4.37415"/>
<feComposite in2="hardAlpha" operator="out"/>
<feColorMatrix type="matrix" values="0 0 0 0 0 0 0 0 0 0 0 0 0 0 0 0 0 0 0.2 0"/>
<feBlend mode="normal" in2="effect1_backgroundBlur_8216_231" result="effect2_dropShadow_8216_231"/>
<feBlend mode="normal" in="SourceGraphic" in2="effect2_dropShadow_8216_231" result="shape"/>
</filter>
<filter id="filter2_bd_8216_231" x="44.3232" y="69.7532" width="41.5253" height="26.1513" filterUnits="userSpaceOnUse" color-interpolation-filters="sRGB">
<feFlood flood-opacity="0" result="BackgroundImageFix"/>
<feGaussianBlur in="BackgroundImageFix" stdDeviation="6.14635"/>
<feComposite in2="SourceAlpha" operator="in" result="effect1_backgroundBlur_8216_231"/>
<feColorMatrix in="SourceAlpha" type="matrix" values="0 0 0 0 0 0 0 0 0 0 0 0 0 0 0 0 0 0 127 0" result="hardAlpha"/>
<feMorphology radius="0.441332" operator="erode" in="SourceAlpha" result="effect2_dropShadow_8216_231"/>
<feOffset dy="1.76533"/>
<feGaussianBlur stdDeviation="4.37415"/>
<feComposite in2="hardAlpha" operator="out"/>
<feColorMatrix type="matrix" values="0 0 0 0 0 0 0 0 0 0 0 0 0 0 0 0 0 0 0.2 0"/>
<feBlend mode="normal" in2="effect1_backgroundBlur_8216_231" result="effect2_dropShadow_8216_231"/>
<feBlend mode="normal" in="SourceGraphic" in2="effect2_dropShadow_8216_231" result="shape"/>
</filter>
<filter id="filter3_bd_8216_231" x="52.101" y="22.8821" width="60.7831" height="69.291" filterUnits="userSpaceOnUse" color-interpolation-filters="sRGB">
<feFlood flood-opacity="0" result="BackgroundImageFix"/>
<feGaussianBlur in="BackgroundImageFix" stdDeviation="6.14635"/>
<feComposite in2="SourceAlpha" operator="in" result="effect1_backgroundBlur_8216_231"/>
<feColorMatrix in="SourceAlpha" type="matrix" values="0 0 0 0 0 0 0 0 0 0 0 0 0 0 0 0 0 0 127 0" result="hardAlpha"/>
<feMorphology radius="0.441332" operator="erode" in="SourceAlpha" result="effect2_dropShadow_8216_231"/>
<feOffset dy="1.76533"/>
<feGaussianBlur stdDeviation="4.37415"/>
<feComposite in2="hardAlpha" operator="out"/>
<feColorMatrix type="matrix" values="0 0 0 0 0 0 0 0 0 0 0 0 0 0 0 0 0 0 0.2 0"/>
<feBlend mode="normal" in2="effect1_backgroundBlur_8216_231" result="effect2_dropShadow_8216_231"/>
<feBlend mode="normal" in="SourceGraphic" in2="effect2_dropShadow_8216_231" result="shape"/>
</filter>
<filter id="filter4_d_8216_231" x="60.6049" y="33.2481" width="5.4059" height="49.6854" filterUnits="userSpaceOnUse" color-interpolation-filters="sRGB">
<feFlood flood-opacity="0" result="BackgroundImageFix"/>
<feColorMatrix in="SourceAlpha" type="matrix" values="0 0 0 0 0 0 0 0 0 0 0 0 0 0 0 0 0 0 127 0" result="hardAlpha"/>
<feOffset dx="-1.08578" dy="0.560531"/>
<feGaussianBlur stdDeviation="1.2446"/>
<feColorMatrix type="matrix" values="0 0 0 0 0 0 0 0 0 0 0 0 0 0 0 0 0 0 0.2 0"/>
<feBlend mode="normal" in2="BackgroundImageFix" result="effect1_dropShadow_8216_231"/>
<feBlend mode="normal" in="SourceGraphic" in2="effect1_dropShadow_8216_231" result="shape"/>
</filter>
<radialGradient id="paint0_radial_8216_231" cx="0" cy="0" r="1" gradientUnits="userSpaceOnUse" gradientTransform="translate(2.45273e-06 117.232) rotate(-68.3513) scale(134.801 112.492)">
<stop stop-color="#0941AB"/>
<stop offset="1" stop-color="#091B36" stop-opacity="0"/>
</radialGradient>
<radialGradient id="paint1_radial_8216_231" cx="0" cy="0" r="1" gradientUnits="userSpaceOnUse" gradientTransform="translate(137.904 -2.72219) rotate(126.372) scale(109.637 96.4013)">
<stop stop-color="#0941AB"/>
<stop offset="1" stop-color="#091B36" stop-opacity="0"/>
</radialGradient>
<radialGradient id="paint2_radial_8216_231" cx="0" cy="0" r="1" gradientUnits="userSpaceOnUse" gradientTransform="translate(70.5256 112) rotate(-90.0872) scale(112 91.5324)">
<stop stop-color="#0941AB"/>
<stop offset="1" stop-color="#091B36" stop-opacity="0"/>
</radialGradient>
<linearGradient id="paint3_linear_8216_231" x1="37.2745" y1="28.646" x2="107.809" y2="76.5717" gradientUnits="userSpaceOnUse">
<stop offset="0.28" stop-color="#092349"/>
<stop offset="1" stop-color="#003C97"/>
</linearGradient>
<linearGradient id="paint4_linear_8216_231" x1="36.5904" y1="32.0781" x2="97.546" y2="78.7252" gradientUnits="userSpaceOnUse">
<stop stop-color="white" stop-opacity="0"/>
<stop offset="1" stop-color="#BBB7FF"/>
</linearGradient>
<linearGradient id="paint5_linear_8216_231" x1="16.7596" y1="76.1364" x2="17.2809" y2="89.6426" gradientUnits="userSpaceOnUse">
<stop offset="0.28" stop-color="#092349"/>
<stop offset="1" stop-color="#003C97"/>
</linearGradient>
<linearGradient id="paint6_linear_8216_231" x1="31.0001" y1="82.1271" x2="31.7614" y2="91.4785" gradientUnits="userSpaceOnUse">
<stop stop-color="white" stop-opacity="0"/>
<stop offset="1" stop-color="#BBB7FF"/>
</linearGradient>
<linearGradient id="paint7_linear_8216_231" x1="59.0673" y1="81.9786" x2="59.8847" y2="86.1793" gradientUnits="userSpaceOnUse">
<stop offset="0.28" stop-color="#092349"/>
<stop offset="1" stop-color="#003C97"/>
</linearGradient>
<linearGradient id="paint8_linear_8216_231" x1="58.9186" y1="82.0772" x2="59.5275" y2="85.601" gradientUnits="userSpaceOnUse">
<stop stop-color="white" stop-opacity="0"/>
<stop offset="1" stop-color="#BBB7FF"/>
</linearGradient>
<linearGradient id="paint9_linear_8216_231" x1="41.837" y1="54.4549" x2="34.8519" y2="66.9806" gradientUnits="userSpaceOnUse">
<stop stop-color="#D2DCE4" stop-opacity="0.2"/>
<stop offset="1" stop-color="#D2DCE4"/>
</linearGradient>
<linearGradient id="paint10_linear_8216_231" x1="41.837" y1="64.2567" x2="34.8519" y2="76.7824" gradientUnits="userSpaceOnUse">
<stop stop-color="#D2DCE4" stop-opacity="0.2"/>
<stop offset="1" stop-color="#D2DCE4"/>
</linearGradient>
<linearGradient id="paint11_linear_8216_231" x1="41.837" y1="74.0687" x2="34.8519" y2="86.5944" gradientUnits="userSpaceOnUse">
<stop stop-color="#D2DCE4" stop-opacity="0.2"/>
<stop offset="1" stop-color="#D2DCE4"/>
</linearGradient>
<linearGradient id="paint12_linear_8216_231" x1="55.0555" y1="54.3507" x2="47.6755" y2="67.1119" gradientUnits="userSpaceOnUse">
<stop stop-color="#D2DCE4" stop-opacity="0.2"/>
<stop offset="1" stop-color="#D2DCE4"/>
</linearGradient>
<linearGradient id="paint13_linear_8216_231" x1="55.0555" y1="64.1524" x2="47.6755" y2="76.9137" gradientUnits="userSpaceOnUse">
<stop stop-color="#D2DCE4" stop-opacity="0.2"/>
<stop offset="1" stop-color="#D2DCE4"/>
</linearGradient>
<linearGradient id="paint14_linear_8216_231" x1="55.0555" y1="73.9645" x2="47.6755" y2="86.7257" gradientUnits="userSpaceOnUse">
<stop stop-color="#D2DCE4" stop-opacity="0.2"/>
<stop offset="1" stop-color="#D2DCE4"/>
</linearGradient>
<linearGradient id="paint15_linear_8216_231" x1="68.764" y1="54.3507" x2="61.384" y2="67.1119" gradientUnits="userSpaceOnUse">
<stop stop-color="#D2DCE4" stop-opacity="0.2"/>
<stop offset="1" stop-color="#D2DCE4"/>
</linearGradient>
<linearGradient id="paint16_linear_8216_231" x1="59.2439" y1="60.47" x2="72.0051" y2="67.85" gradientUnits="userSpaceOnUse">
<stop stop-color="#D2DCE4" stop-opacity="0.2"/>
<stop offset="1" stop-color="#D2DCE4"/>
</linearGradient>
<linearGradient id="paint17_linear_8216_231" x1="68.764" y1="73.9645" x2="61.384" y2="86.7257" gradientUnits="userSpaceOnUse">
<stop stop-color="#D2DCE4" stop-opacity="0.2"/>
<stop offset="1" stop-color="#D2DCE4"/>
</linearGradient>
<linearGradient id="paint18_linear_8216_231" x1="30.2212" y1="40.6307" x2="97.9531" y2="40.6307" gradientUnits="userSpaceOnUse">
<stop stop-color="#63B97F"/>
<stop offset="1" stop-color="#84ECA6"/>
</linearGradient>
<linearGradient id="paint19_linear_8216_231" x1="30.2164" y1="36.7922" x2="97.9483" y2="36.7922" gradientUnits="userSpaceOnUse">
<stop stop-color="#4B825D"/>
<stop offset="1" stop-color="#5BC77F"/>
</linearGradient>
<linearGradient id="paint20_linear_8216_231" x1="69.632" y1="33.2531" x2="111.337" y2="49.2917" gradientUnits="userSpaceOnUse">
<stop offset="0.28" stop-color="#092349"/>
<stop offset="1" stop-color="#003C97"/>
</linearGradient>
<linearGradient id="paint21_linear_8216_231" x1="66.7537" y1="80.034" x2="66.3926" y2="23.5788" gradientUnits="userSpaceOnUse">
<stop stop-color="#3D7FFC"/>
<stop offset="0.899746" stop-color="#89B1FD"/>
<stop offset="1" stop-color="#E7EEFF"/>
</linearGradient>
<linearGradient id="paint22_linear_8216_231" x1="66.9113" y1="86.9083" x2="3.43621" y2="85.6918" gradientUnits="userSpaceOnUse">
<stop stop-color="#15C1E6"/>
<stop offset="0.0923253" stop-color="#091B36" stop-opacity="0"/>
<stop offset="0.909898" stop-color="#091B36" stop-opacity="0"/>
<stop offset="1" stop-color="#15C1E6"/>
</linearGradient>
<linearGradient id="paint23_linear_8216_231" x1="26.2611" y1="0.205278" x2="27.2313" y2="53.7191" gradientUnits="userSpaceOnUse">
<stop stop-color="#15C1E6"/>
<stop offset="0.143865" stop-color="#091B36" stop-opacity="0"/>
<stop offset="0.876247" stop-color="#091B36" stop-opacity="0"/>
<stop offset="1" stop-color="#15C1E6"/>
</linearGradient>
<linearGradient id="paint24_linear_8216_231" x1="20.4071" y1="-0.610802" x2="21.673" y2="43.4094" gradientUnits="userSpaceOnUse">
<stop stop-color="#15C1E6"/>
<stop offset="0.382702" stop-color="#091B36" stop-opacity="0"/>
<stop offset="0.641409" stop-color="#091B36" stop-opacity="0"/>
<stop offset="1" stop-color="#15C1E6"/>
</linearGradient>
<linearGradient id="paint25_linear_8216_231" x1="21.5345" y1="87.1779" x2="48.5229" y2="87.1779" gradientUnits="userSpaceOnUse">
<stop stop-color="#3D7FFC"/>
<stop offset="1" stop-color="#15C1E6"/>
</linearGradient>
<linearGradient id="paint26_linear_8216_231" x1="37.7596" y1="81.4917" x2="31.6917" y2="93.8703" gradientUnits="userSpaceOnUse">
<stop stop-color="#3F873F"/>
<stop offset="0.3296" stop-color="#3F8B3D"/>
<stop offset="0.6367" stop-color="#3E9638"/>
<stop offset="0.9341" stop-color="#3DA92E"/>
<stop offset="1" stop-color="#3DAE2B"/>
</linearGradient>
<linearGradient id="paint27_linear_8216_231" x1="34.0176" y1="87.9619" x2="51.0199" y2="75.3997" gradientUnits="userSpaceOnUse">
<stop offset="0.1376" stop-color="#3F873F"/>
<stop offset="0.4016" stop-color="#52A044"/>
<stop offset="0.7129" stop-color="#64B749"/>
<stop offset="0.9081" stop-color="#6ABF4B"/>
</linearGradient>
<linearGradient id="paint28_linear_8216_231" x1="27.2649" y1="87.0637" x2="42.7687" y2="87.0637" gradientUnits="userSpaceOnUse">
<stop offset="0.0919" stop-color="#6ABF4B"/>
<stop offset="0.2871" stop-color="#64B749"/>
<stop offset="0.5984" stop-color="#52A044"/>
<stop offset="0.8624" stop-color="#3F873F"/>
</linearGradient>
<linearGradient id="paint29_linear_8216_231" x1="133.26" y1="30.4342" x2="69.7853" y2="29.2177" gradientUnits="userSpaceOnUse">
<stop stop-color="#15C1E6"/>
<stop offset="0.0923253" stop-color="#091B36" stop-opacity="0"/>
<stop offset="0.909898" stop-color="#091B36" stop-opacity="0"/>
<stop offset="1" stop-color="#15C1E6"/>
</linearGradient>
<linearGradient id="paint30_linear_8216_231" x1="26.2611" y1="0.205278" x2="27.2313" y2="53.7191" gradientUnits="userSpaceOnUse">
<stop stop-color="#15C1E6"/>
<stop offset="0.143865" stop-color="#091B36" stop-opacity="0"/>
<stop offset="0.876247" stop-color="#091B36" stop-opacity="0"/>
<stop offset="1" stop-color="#15C1E6"/>
</linearGradient>
<linearGradient id="paint31_linear_8216_231" x1="20.4071" y1="-0.610802" x2="21.673" y2="43.4094" gradientUnits="userSpaceOnUse">
<stop stop-color="#15C1E6"/>
<stop offset="0.382702" stop-color="#091B36" stop-opacity="0"/>
<stop offset="0.641409" stop-color="#091B36" stop-opacity="0"/>
<stop offset="1" stop-color="#15C1E6"/>
</linearGradient>
<linearGradient id="paint32_linear_8216_231" x1="87.8836" y1="30.7037" x2="114.872" y2="30.7037" gradientUnits="userSpaceOnUse">
<stop stop-color="#3D7FFC"/>
<stop offset="1" stop-color="#15C1E6"/>
</linearGradient>
<linearGradient id="paint33_linear_8216_231" x1="104.878" y1="101.549" x2="121.542" y2="101.549" gradientUnits="userSpaceOnUse">
<stop stop-color="#3D7FFC"/>
<stop offset="1" stop-color="#15C1E6"/>
</linearGradient>
<linearGradient id="paint34_linear_8216_231" x1="106.977" y1="102.276" x2="117.884" y2="102.276" gradientUnits="userSpaceOnUse">
<stop stop-color="#3D7FFC"/>
<stop offset="1" stop-color="#15C1E6"/>
</linearGradient>
<linearGradient id="paint35_linear_8216_231" x1="107.486" y1="98.5872" x2="109.692" y2="98.5872" gradientUnits="userSpaceOnUse">
<stop stop-color="#3D7FFC"/>
<stop offset="1" stop-color="#15C1E6"/>
</linearGradient>
<linearGradient id="paint36_linear_8216_231" x1="31.1223" y1="20.0733" x2="46.5523" y2="20.0733" gradientUnits="userSpaceOnUse">
<stop stop-color="#3D7FFC"/>
<stop offset="1" stop-color="#15C1E6"/>
</linearGradient>
<clipPath id="clip0_8216_231">
<rect width="135" height="112" fill="white" transform="translate(0.685547)"/>
</clipPath>
<clipPath id="clip1_8216_231">
<rect width="65.1147" height="51.1921" fill="white" transform="translate(2.68555 60.6411)"/>
</clipPath>
<clipPath id="clip2_8216_231">
<rect width="27.4167" height="27.4167" fill="white" transform="translate(21.3203 73.356)"/>
</clipPath>
<clipPath id="clip3_8216_231">
<rect width="17.1354" height="17.1354" fill="white" transform="translate(26.4609 78.4966)"/>
</clipPath>
<clipPath id="clip4_8216_231">
<rect width="27.4167" height="27.4167" fill="white" transform="translate(87.6694 16.8818)"/>
</clipPath>
</defs>
</svg>
