<svg width="205" height="183" viewBox="0 0 205 183" fill="none" xmlns="http://www.w3.org/2000/svg">
<path d="M103.592 0L187.391 14.7387L187.53 91.2392C187.67 141.673 150.938 167.738 103.872 182.722C56.8077 167.982 20.072 141.914 19.9325 91.4832L19.793 14.9828L103.592 0Z" fill="url(#paint0_linear_11382_71589)"/>
<path d="M182.547 18.2277L182.686 91.2355C182.686 132.431 156.972 160.952 104.008 178.137C50.9016 161.074 25.1872 132.675 25.0477 91.4839L24.9082 18.4761L103.729 4.46002L182.547 18.2277Z" fill="url(#paint1_linear_11382_71589)"/>
<path d="M104.193 0L103.916 182.725C150.532 167.985 187.394 141.952 187.532 91.5212L187.389 14.7335L104.193 0Z" fill="#003395" fill-opacity="0.15"/>
<g filter="url(#filter0_d_11382_71589)">
<path d="M9 34.7501C9 32.2674 11.0126 30.2549 13.4952 30.2549L191.505 30.2549C193.987 30.2549 196 32.2674 196 34.7501V82.2076C196 88.2717 191.084 93.1876 185.02 93.1876L19.98 93.1876C13.9159 93.1876 9 88.2717 9 82.2076L9 34.7501Z" fill="#3D7FFC"/>
</g>
<path d="M68.6483 61.5734C68.6483 57.0521 67.5497 53.7563 66.113 51.728C64.4228 49.3195 61.3805 46.8687 56.7324 46.8687C49.9294 46.8687 45.8307 51.5167 45.8307 57.2634C45.8307 63.0523 50.3097 66.2214 54.831 66.2214C59.3522 66.2214 61.465 64.1932 62.1411 62.9678C62.1411 66.2214 61.2537 68.5454 59.9016 69.9398C58.7607 71.123 57.4508 71.7145 55.5916 71.7145C52.507 71.7145 49.8027 70.1934 49.2111 69.6018L46.7603 74.0386C47.9857 75.0104 51.1126 76.9119 55.8451 76.9119C59.6903 76.9119 62.6481 75.5597 64.7186 73.3625C67.1694 70.7849 68.6483 66.7285 68.6483 61.5734ZM61.6763 56.6718C61.6763 59.2071 59.9438 61.4889 56.986 61.4889C54.0281 61.4889 52.3379 59.2071 52.3379 56.6718C52.3379 54.0943 54.0281 51.8548 56.986 51.8548C59.9438 51.8548 61.6763 54.0943 61.6763 56.6718ZM94.0425 61.5734C94.0425 57.0521 92.9438 53.7563 91.5072 51.728C89.817 49.3195 86.7746 46.8687 82.1266 46.8687C75.3236 46.8687 71.2249 51.5167 71.2249 57.2634C71.2249 63.0523 75.7039 66.2214 80.2251 66.2214C84.7464 66.2214 86.8591 64.1932 87.5352 62.9678C87.5352 66.2214 86.6479 68.5454 85.2957 69.9398C84.1548 71.123 82.8449 71.7145 80.9857 71.7145C77.9011 71.7145 75.1968 70.1934 74.6052 69.6018L72.1545 74.0386C73.3799 75.0104 76.5067 76.9119 81.2392 76.9119C85.0844 76.9119 88.0423 75.5597 90.1128 73.3625C92.5635 70.7849 94.0425 66.7285 94.0425 61.5734ZM87.0704 56.6718C87.0704 59.2071 85.338 61.4889 82.3801 61.4889C79.4223 61.4889 77.7321 59.2071 77.7321 56.6718C77.7321 54.0943 79.4223 51.8548 82.3801 51.8548C85.338 51.8548 87.0704 54.0943 87.0704 56.6718ZM105.09 73.278C105.09 70.9962 103.442 69.6441 101.118 69.6441C98.7516 69.6441 97.1036 70.9962 97.1036 73.278C97.1036 75.5597 98.7516 76.9119 101.118 76.9119C103.442 76.9119 105.09 75.5597 105.09 73.278ZM131.337 61.5734C131.337 57.0521 130.239 53.7563 128.802 51.728C127.112 49.3195 124.069 46.8687 119.421 46.8687C112.618 46.8687 108.52 51.5167 108.52 57.2634C108.52 63.0523 112.999 66.2214 117.52 66.2214C122.041 66.2214 124.154 64.1932 124.83 62.9678C124.83 66.2214 123.943 68.5454 122.591 69.9398C121.45 71.123 120.14 71.7145 118.281 71.7145C115.196 71.7145 112.492 70.1934 111.9 69.6018L109.449 74.0386C110.675 75.0104 113.802 76.9119 118.534 76.9119C122.379 76.9119 125.337 75.5597 127.408 73.3625C129.858 70.7849 131.337 66.7285 131.337 61.5734ZM124.365 56.6718C124.365 59.2071 122.633 61.4889 119.675 61.4889C116.717 61.4889 115.027 59.2071 115.027 56.6718C115.027 54.0943 116.717 51.8548 119.675 51.8548C122.633 51.8548 124.365 54.0943 124.365 56.6718ZM167.126 69.4328C167.126 64.8693 163.999 61.8692 159.562 61.8692C155.126 61.8692 151.999 64.8693 151.999 69.4328C151.999 73.9963 155.126 76.9964 159.562 76.9964C163.999 76.9964 167.126 73.9963 167.126 69.4328ZM161.126 48.2631L158.253 46.5307L140.083 75.7288L142.999 77.4612L161.126 48.2631ZM149.21 54.5591C149.21 49.9956 146.083 46.9955 141.646 46.9955C137.252 46.9955 134.083 49.9956 134.083 54.5591C134.083 59.1226 137.252 62.165 141.646 62.165C146.083 62.165 149.21 59.1226 149.21 54.5591ZM162.732 69.3483C162.732 71.5033 161.633 73.0244 159.562 73.0244C157.534 73.0244 156.436 71.5033 156.436 69.3483C156.436 67.2355 157.534 65.7144 159.562 65.7144C161.633 65.7144 162.732 67.2355 162.732 69.3483ZM144.858 54.5168C144.858 56.6296 143.717 58.193 141.646 58.193C139.618 58.193 138.562 56.6296 138.562 54.5168C138.562 52.3618 139.618 50.8407 141.646 50.8407C143.717 50.8407 144.858 52.3618 144.858 54.5168Z" fill="white"/>
<path d="M58.6273 118.874L56.9046 118.17C56.3653 117.946 55.7212 117.661 55.7212 116.912C55.7212 116.148 56.3953 115.728 57.2491 115.728C58.133 115.728 58.9269 116.163 59.586 116.762L60.5148 115.369C59.9006 114.74 58.837 114.126 57.369 114.126C55.1969 114.126 53.7888 115.369 53.7888 117.167C53.7888 118.425 54.5378 119.219 55.6613 119.668L57.2791 120.312C58.1629 120.672 58.7022 120.942 58.7022 121.75C58.7022 122.649 58.0431 123.114 57.0844 123.114C56.1107 123.114 55.137 122.634 54.328 121.75L53.3993 123.159C54.0734 123.938 55.2868 124.761 57.0544 124.761C59.2415 124.761 60.6496 123.488 60.6496 121.571C60.6496 120.282 60.0804 119.473 58.6273 118.874ZM70.7756 114.245H68.8282V120.252C68.8282 121.046 68.7833 121.75 68.3788 122.275C68.0043 122.754 67.4351 123.054 66.6411 123.054C65.8622 123.054 65.278 122.754 64.9035 122.275C64.499 121.75 64.469 121.046 64.469 120.252V114.245H62.5067V120.312C62.5067 121.691 62.7014 122.694 63.4204 123.518C64.1245 124.312 65.2031 124.761 66.6411 124.761C68.0792 124.761 69.1578 124.312 69.8618 123.518C70.5809 122.694 70.7756 121.691 70.7756 120.312V114.245ZM81.7663 123.293L81.0772 121.825C80.463 122.484 79.5043 123.084 78.1261 123.084C76.0589 123.084 74.6657 121.631 74.6657 119.399C74.6657 116.957 76.2087 115.773 78.0063 115.773C79.4743 115.773 80.6428 116.567 80.9424 116.957L81.6314 115.369C81.212 114.95 80.0436 114.096 78.0213 114.096C75.0253 114.096 72.6584 116.148 72.6584 119.429C72.6584 122.709 74.9953 124.761 78.0213 124.761C80.0585 124.761 81.182 123.923 81.7663 123.293ZM91.6074 123.293L90.9183 121.825C90.3042 122.484 89.3454 123.084 87.9673 123.084C85.9 123.084 84.5069 121.631 84.5069 119.399C84.5069 116.957 86.0498 115.773 87.8474 115.773C89.3155 115.773 90.4839 116.567 90.7835 116.957L91.4726 115.369C91.0532 114.95 89.8847 114.096 87.8624 114.096C84.8664 114.096 82.4996 116.148 82.4996 119.429C82.4996 122.709 84.8365 124.761 87.8624 124.761C89.8997 124.761 91.0232 123.923 91.6074 123.293ZM93.3485 114.245V124.582H99.8498V122.964H95.2959V120.028H99.4753V118.425H95.2959V115.863H99.73V114.245H93.3485ZM106.56 118.874L104.838 118.17C104.298 117.946 103.654 117.661 103.654 116.912C103.654 116.148 104.328 115.728 105.182 115.728C106.066 115.728 106.86 116.163 107.519 116.762L108.448 115.369C107.834 114.74 106.77 114.126 105.302 114.126C103.13 114.126 101.722 115.369 101.722 117.167C101.722 118.425 102.471 119.219 103.594 119.668L105.212 120.312C106.096 120.672 106.635 120.942 106.635 121.75C106.635 122.649 105.976 123.114 105.017 123.114C104.044 123.114 103.07 122.634 102.261 121.75L101.332 123.159C102.006 123.938 103.22 124.761 104.987 124.761C107.175 124.761 108.583 123.488 108.583 121.571C108.583 120.282 108.013 119.473 106.56 118.874ZM114.997 118.874L113.274 118.17C112.735 117.946 112.091 117.661 112.091 116.912C112.091 116.148 112.765 115.728 113.619 115.728C114.503 115.728 115.297 116.163 115.956 116.762L116.885 115.369C116.27 114.74 115.207 114.126 113.739 114.126C111.567 114.126 110.159 115.369 110.159 117.167C110.159 118.425 110.908 119.219 112.031 119.668L113.649 120.312C114.533 120.672 115.072 120.942 115.072 121.75C115.072 122.649 114.413 123.114 113.454 123.114C112.481 123.114 111.507 122.634 110.698 121.75L109.769 123.159C110.443 123.938 111.657 124.761 113.424 124.761C115.611 124.761 117.019 123.488 117.019 121.571C117.019 120.282 116.45 119.473 114.997 118.874ZM125.247 120.387L127.688 124.582H129.965L127.179 120.148C128.437 119.758 129.411 119.039 129.411 117.256C129.411 116.268 128.947 115.474 128.303 114.979C127.658 114.485 126.79 114.245 125.696 114.245H122.37V124.582H124.318V120.387H125.247ZM125.322 118.859H124.303V115.773H125.322C125.951 115.773 126.43 115.818 126.805 116.103C127.194 116.373 127.404 116.747 127.404 117.316C127.404 117.901 127.194 118.245 126.805 118.53C126.43 118.814 125.951 118.859 125.322 118.859ZM137.353 122.2L138.252 124.582H140.379L136.32 114.23H134.432L130.373 124.582H132.395L133.294 122.2H137.353ZM133.773 120.642L135.331 116.463L136.874 120.642H133.773ZM142.551 115.818V124.582H144.483V115.818H147.315V114.245H139.705V115.818H142.551ZM148.88 114.245V124.582H155.382V122.964H150.828V120.028H155.007V118.425H150.828V115.863H155.262V114.245H148.88Z" fill="white"/>
<defs>
<filter id="filter0_d_11382_71589" x="0.0096159" y="25.7597" width="204.981" height="80.9134" filterUnits="userSpaceOnUse" color-interpolation-filters="sRGB">
<feFlood flood-opacity="0" result="BackgroundImageFix"/>
<feColorMatrix in="SourceAlpha" type="matrix" values="0 0 0 0 0 0 0 0 0 0 0 0 0 0 0 0 0 0 127 0" result="hardAlpha"/>
<feOffset dy="4.49519"/>
<feGaussianBlur stdDeviation="4.49519"/>
<feColorMatrix type="matrix" values="0 0 0 0 0.0941177 0 0 0 0 0.188235 0 0 0 0 0.247059 0 0 0 0.19 0"/>
<feBlend mode="normal" in2="BackgroundImageFix" result="effect1_dropShadow_11382_71589"/>
<feBlend mode="normal" in="SourceGraphic" in2="effect1_dropShadow_11382_71589" result="shape"/>
</filter>
<linearGradient id="paint0_linear_11382_71589" x1="62.0478" y1="0.00148129" x2="115.208" y2="183.023" gradientUnits="userSpaceOnUse">
<stop stop-color="#3D7FFC"/>
<stop offset="1" stop-color="#0057FB"/>
</linearGradient>
<linearGradient id="paint1_linear_11382_71589" x1="37.7731" y1="4.70192" x2="119.334" y2="197.649" gradientUnits="userSpaceOnUse">
<stop stop-color="#72A2FF"/>
<stop offset="0.177083" stop-color="#87B0FF"/>
<stop offset="0.859375" stop-color="#3D7FFC"/>
</linearGradient>
</defs>
</svg>
