<svg width="141" height="141" viewBox="0 0 141 141" fill="none" xmlns="http://www.w3.org/2000/svg">
<circle cx="70.4348" cy="70.4348" r="70.4348" fill="white"/>
<path d="M54.793 37.9286H56.5219C57.0165 37.9008 57.5037 38.0615 57.8905 38.38C58.0588 38.5331 58.1915 38.7232 58.279 38.9362C58.3664 39.1491 58.4064 39.3796 58.3959 39.6106C58.4075 39.8429 58.3688 40.0749 58.2826 40.2899C58.1965 40.505 58.0649 40.6976 57.8976 40.8539C57.5072 41.175 57.0152 41.3358 56.5164 41.3054H56.0057V42.8637H54.793V37.9286ZM56.004 40.3183H56.3382C56.8973 40.3183 57.1768 40.0824 57.1768 39.6106C57.184 39.5128 57.169 39.4146 57.1329 39.3239C57.0968 39.2332 57.0405 39.1524 56.9687 39.0879C56.7832 38.9593 56.5612 38.8988 56.3382 38.916H56.004V40.3183Z" fill="#1C0E12"/>
<path d="M59.0898 37.9293H60.8188C61.3156 37.8985 61.8062 38.0568 62.197 38.3741C62.3628 38.5273 62.4933 38.7167 62.579 38.9284C62.6646 39.1402 62.7032 39.369 62.692 39.5981C62.694 39.8629 62.6288 40.1237 62.5029 40.3546C62.3766 40.5864 62.1912 40.7784 61.9668 40.9098L63.1585 42.8644H61.7711L60.9323 41.2671H60.8348C60.7949 41.2671 60.7568 41.2671 60.7212 41.2704C60.6855 41.2737 60.6613 41.2737 60.6485 41.2737H60.3028V42.8647H59.0919L59.0898 37.9293ZM60.3006 40.2864H60.6465C61.2015 40.2864 61.4789 40.0548 61.4787 39.5916C61.4861 39.4963 61.4717 39.4006 61.4367 39.3121C61.4017 39.2235 61.3471 39.1447 61.2772 39.0818C61.0946 38.9579 60.8772 38.9001 60.6592 38.9175H60.2996L60.3006 40.2864Z" fill="#1C0E12"/>
<path d="M65.9511 42.9684C65.4951 42.9751 65.0445 42.8658 64.6393 42.6501C64.2531 42.4426 63.9301 42.1291 63.7061 41.7444C63.4827 41.3457 63.3633 40.8943 63.3595 40.434C63.3556 39.9737 63.4674 39.5202 63.684 39.1176C63.9032 38.7251 64.2213 38.4009 64.6046 38.1793C65.0148 37.9399 65.4797 37.8177 65.9511 37.8254C66.4072 37.8188 66.8578 37.9281 67.2631 38.1437C67.6493 38.3512 67.9723 38.6647 68.1962 39.0494C68.4197 39.448 68.539 39.8995 68.5429 40.3597C68.5468 40.82 68.435 41.2734 68.2183 41.676C67.999 42.0683 67.6809 42.3925 67.2976 42.6143C66.8874 42.8537 66.4226 42.976 65.9511 42.9684ZM65.9511 41.8181C66.1811 41.8219 66.4079 41.7613 66.6072 41.6428C66.8021 41.5241 66.9614 41.3522 67.0676 41.1462C67.1845 40.9172 67.2431 40.6614 67.2379 40.4027C67.2415 40.1508 67.1874 39.9016 67.08 39.6753C66.9791 39.464 66.8224 39.2862 66.6279 39.1623C66.424 39.0344 66.1888 38.9691 65.9501 38.9741C65.7201 38.9704 65.4934 39.0309 65.2942 39.1494C65.0991 39.2681 64.9398 39.44 64.8338 39.6462C64.7168 39.8752 64.6582 40.1311 64.6635 40.3898C64.6598 40.6417 64.714 40.8909 64.8213 41.1172C64.9221 41.3286 65.0788 41.5065 65.2734 41.6302C65.4772 41.7584 65.7123 41.8239 65.9511 41.8192V41.8181Z" fill="#1C0E12"/>
<path d="M70.3342 40.2933L68.7765 37.9297H70.2587L71.1226 39.4298L71.9614 37.9297H73.4056L71.8363 40.3454L73.5012 42.8651H72.0066L71.0354 41.2158L70.1083 42.8651H68.6641L70.3342 40.2933Z" fill="#1C0E12"/>
<path d="M75.4165 40.8584L73.6875 37.9297H75.0877L76.0589 39.8452L77.0364 37.9297H78.3985L76.6642 40.8584V42.8648H75.4157L75.4165 40.8584Z" fill="#1C0E12"/>
<path d="M78.6719 37.9286H80.0019L80.72 41.1752L81.6093 37.9935H82.6687L83.5707 41.1157L84.2769 37.9275H85.6069L84.1878 42.8625H83.0403L82.1258 39.6871L81.2304 42.8625H80.0826L78.6719 37.9286Z" fill="#1C0E12"/>
<path d="M87.1717 37.9297H88.4836L90.3629 42.8648H89.0329L88.6605 41.7285H86.9136L86.5479 42.8648H85.293L87.1717 37.9297ZM88.3319 40.7348L87.7834 39.0529L87.235 40.7348H88.3319Z" fill="#1C0E12"/>
<path d="M91.5923 40.8584L89.8633 37.9297H91.2631L92.2344 39.8452L93.2121 37.9297H94.5743L92.84 40.8584V42.8648H91.5911L91.5923 40.8584Z" fill="#1C0E12"/>
<path d="M46.2031 45.704C44.8884 45.7022 43.6212 45.1978 42.6473 44.2885C41.6734 43.3793 41.0622 42.13 40.9322 40.7829C40.8023 39.4359 41.1629 38.0873 41.9441 36.9985C42.7253 35.9098 43.8713 35.1586 45.16 34.8906C46.4486 34.6227 47.7881 34.8571 48.9184 35.5485C50.0486 36.2398 50.8892 37.3388 51.2771 38.6321C51.665 39.9255 51.5724 41.3211 51.0175 42.5483C50.4626 43.7754 49.4848 44.7466 48.2738 45.2734C47.6187 45.5589 46.9144 45.7054 46.2031 45.704ZM42.2131 38.3091L48.065 44.3345V42.8999L43.6063 38.3091H42.2131ZM42.3056 41.5609V42.8044L43.699 44.2389H44.9068L42.3056 41.5609ZM43.3741 40.4607V41.7052L44.7677 43.1398H45.9754L43.3741 40.4607ZM45.7429 38.3091H44.5358L48.0658 41.9435V40.7001L45.7429 38.3091ZM46.6714 38.3091L48.065 39.744V38.3091H46.6714Z" fill="#F70340"/>
<path d="M63.4262 105.217V104.006H60.3256L61.7112 102.756C62.2441 102.282 63.1161 101.584 63.1161 100.411C63.1161 99.239 62.1956 98.4348 60.6841 98.4348C59.1725 98.4348 58.3489 99.3359 58.2617 99.5394L58.9206 100.566C59.2888 100.101 59.8702 99.6654 60.5387 99.6654C61.1976 99.6654 61.6143 100.034 61.6143 100.605C61.6143 101.177 61.2364 101.613 60.6066 102.185L58.3392 104.229L58.5233 105.217H63.4262Z" fill="#1C0E12"/>
<path d="M69.8307 101.884C69.8307 100.121 69.0071 98.4348 67.0595 98.4348C65.1119 98.4348 64.2883 100.121 64.2883 101.884C64.2883 103.648 65.1022 105.334 67.0595 105.334C69.0071 105.334 69.8307 103.648 69.8307 101.884ZM68.2901 101.855C68.2901 103.057 67.9219 103.987 67.0595 103.987C66.1971 103.987 65.8289 103.057 65.8289 101.855C65.8289 100.654 66.1971 99.7429 67.0595 99.7429C67.9219 99.7429 68.2901 100.654 68.2901 101.855Z" fill="#1C0E12"/>
<path d="M75.9445 105.217V104.006H72.8439L74.2295 102.756C74.7624 102.282 75.6344 101.584 75.6344 100.411C75.6344 99.239 74.7139 98.4348 73.2024 98.4348C71.6908 98.4348 70.8672 99.3359 70.78 99.5394L71.4389 100.566C71.8071 100.101 72.3885 99.6654 73.057 99.6654C73.7159 99.6654 74.1326 100.034 74.1326 100.605C74.1326 101.177 73.7547 101.613 73.1249 102.185L70.8575 104.229L71.0416 105.217H75.9445Z" fill="#1C0E12"/>
<path d="M82.2036 105.217V104.006H79.103L80.4886 102.756C81.0215 102.282 81.8936 101.584 81.8936 100.411C81.8936 99.239 80.9731 98.4348 79.4615 98.4348C77.95 98.4348 77.1264 99.3359 77.0392 99.5394L77.6981 100.566C78.0663 100.101 78.6476 99.6654 79.3162 99.6654C79.9751 99.6654 80.3917 100.034 80.3917 100.605C80.3917 101.177 80.0138 101.613 79.384 102.185L77.1167 104.229L77.3008 105.217H82.2036Z" fill="#1C0E12"/>
<path d="M30.2795 64.5934C30.2795 63.5789 29.5991 62.8866 28.5727 62.636V62.6121C29.1933 62.3973 29.7782 61.7051 29.7782 60.798C29.7782 59.8909 29.2769 59.3538 28.7279 59.0674C28.1789 58.7809 27.4508 58.7213 26.6989 58.7213H23.8941V66.9565H27.2598C28.1072 66.9565 28.8472 66.8014 29.3724 66.4195C29.8975 66.0375 30.2795 65.5005 30.2795 64.5934ZM27.8805 61.0844C27.8805 61.4902 27.7134 61.7051 27.4747 61.8721C27.2479 62.0273 26.9973 62.0512 26.5676 62.0512H25.8157V60.1535H26.6153C27.0331 60.1535 27.2479 60.1773 27.4747 60.3206C27.7134 60.4638 27.8805 60.6906 27.8805 61.0844ZM28.3221 64.4382C28.3221 64.7963 28.1908 65.0708 27.9043 65.2617C27.6179 65.4646 27.2956 65.4885 26.8779 65.4885H25.8157V63.3879H26.8779C27.2956 63.3879 27.6179 63.4118 27.9043 63.6147C28.1908 63.8176 28.3221 64.0682 28.3221 64.4382Z" fill="#1C0E12"/>
<path d="M36.9532 66.9565V65.393H33.4323V63.4834H36.6548V61.9438H33.4323V60.2609H36.8458V58.7213H31.5107V66.9565H36.9532Z" fill="#1C0E12"/>
<path d="M43.9432 64.4502C43.9432 63.7102 43.6448 63.2089 43.2987 62.8628C42.9287 62.4928 42.3797 62.2779 42.1529 62.1944C41.8904 62.087 41.2817 61.8721 40.9236 61.7289C40.5536 61.5857 40.0881 61.3947 40.0881 60.8935C40.0881 60.3922 40.5417 60.1535 41.1623 60.1535C41.7829 60.1535 42.5229 60.5115 43.0003 60.9889L43.8239 59.6403C43.2629 59.0793 42.1649 58.6258 41.21 58.6258C40.2552 58.6258 39.5033 58.8883 39.0378 59.2822C38.5604 59.6761 38.1785 60.2967 38.1785 61.0844C38.1785 61.8602 38.4649 62.3376 38.823 62.6718C39.1811 63.0179 39.5988 63.1731 39.8017 63.2686C40.0762 63.3879 40.6968 63.6028 41.0549 63.734C41.4129 63.8653 42.0216 64.0802 42.0216 64.6411C42.0216 65.1901 41.5442 65.4885 40.9236 65.4885C40.291 65.4885 39.372 65.0708 38.7753 64.4502L37.8204 65.8585C38.4888 66.4791 39.5511 67.0998 40.7446 67.0998C41.6278 67.0998 42.3916 66.8849 42.9765 66.4195C43.5732 65.954 43.9432 65.2379 43.9432 64.4502Z" fill="#1C0E12"/>
<path d="M50.5672 60.249V58.7213H44.3847V60.249H46.5092V66.9565H48.4427V60.249H50.5672Z" fill="#1C0E12"/>
<path d="M59.6813 60.249V58.7213H53.4988V60.249H55.6233V66.9565H57.5568V60.249H59.6813Z" fill="#1C0E12"/>
<path d="M68.5067 62.8508C68.5067 60.1893 66.5851 58.59 64.1384 58.59C61.6917 58.59 59.7701 60.1893 59.7701 62.8508C59.7701 65.5124 61.6917 67.0998 64.1384 67.0998C66.5851 67.0998 68.5067 65.5124 68.5067 62.8508ZM66.5493 62.8031C66.5493 64.3785 65.511 65.3811 64.1384 65.3811C62.7659 65.3811 61.7275 64.3785 61.7275 62.8031C61.7275 61.2276 62.7659 60.237 64.1384 60.237C65.511 60.237 66.5493 61.2396 66.5493 62.8031Z" fill="#1C0E12"/>
<path d="M78.1514 62.8508C78.1514 60.1893 76.2298 58.59 73.7831 58.59C71.3364 58.59 69.4148 60.1893 69.4148 62.8508C69.4148 65.5124 71.3364 67.0998 73.7831 67.0998C76.2298 67.0998 78.1514 65.5124 78.1514 62.8508ZM76.194 62.8031C76.194 64.3785 75.1556 65.3811 73.7831 65.3811C72.4106 65.3811 71.3722 64.3785 71.3722 62.8031C71.3722 61.2276 72.4106 60.237 73.7831 60.237C75.1556 60.237 76.194 61.2396 76.194 62.8031Z" fill="#1C0E12"/>
<path d="M84.2513 66.9565V65.3572H81.3988V58.7213H79.4772V66.9565H84.2513Z" fill="#1C0E12"/>
<path d="M90.8024 64.4502C90.8024 63.7102 90.504 63.2089 90.1579 62.8628C89.7879 62.4928 89.2389 62.2779 89.0121 62.1944C88.7496 62.087 88.1409 61.8721 87.7828 61.7289C87.4128 61.5857 86.9474 61.3947 86.9474 60.8935C86.9474 60.3922 87.4009 60.1535 88.0215 60.1535C88.6422 60.1535 89.3821 60.5115 89.8595 60.9889L90.6831 59.6403C90.1221 59.0793 89.0241 58.6258 88.0693 58.6258C87.1144 58.6258 86.3625 58.8883 85.8971 59.2822C85.4196 59.6761 85.0377 60.2967 85.0377 61.0844C85.0377 61.8602 85.3242 62.3376 85.6822 62.6718C86.0403 63.0179 86.458 63.1731 86.6609 63.2686C86.9354 63.3879 87.5561 63.6028 87.9141 63.734C88.2722 63.8653 88.8809 64.0802 88.8809 64.6411C88.8809 65.1901 88.4035 65.4885 87.7828 65.4885C87.1503 65.4885 86.2312 65.0708 85.6345 64.4502L84.6797 65.8585C85.348 66.4791 86.4103 67.0998 87.6038 67.0998C88.487 67.0998 89.2508 66.8849 89.8357 66.4195C90.4324 65.954 90.8024 65.2379 90.8024 64.4502Z" fill="#1C0E12"/>
<path d="M99.8018 60.2609V58.7213H94.6578V66.9565H96.5793V63.8176H99.6109V62.2779H96.5793V60.2609H99.8018Z" fill="#1C0E12"/>
<path d="M109.334 62.8508C109.334 60.1893 107.413 58.59 104.966 58.59C102.519 58.59 100.598 60.1893 100.598 62.8508C100.598 65.5124 102.519 67.0998 104.966 67.0998C107.413 67.0998 109.334 65.5124 109.334 62.8508ZM107.377 62.8031C107.377 64.3785 106.339 65.3811 104.966 65.3811C103.594 65.3811 102.555 64.3785 102.555 62.8031C102.555 61.2276 103.594 60.237 104.966 60.237C106.339 60.237 107.377 61.2396 107.377 62.8031Z" fill="#1C0E12"/>
<path d="M117.177 66.9565L115.088 63.555C115.697 63.364 116.699 62.7554 116.699 61.1918C116.699 60.3683 116.341 59.7119 115.792 59.3061C115.255 58.9122 114.539 58.7213 113.62 58.7213H110.66V66.9565H112.594V63.8057H113.202L114.933 66.9565H117.177ZM114.754 61.2635C114.754 61.6931 114.587 61.9199 114.336 62.0989C114.098 62.2779 113.787 62.3257 113.346 62.3257H112.582V60.2132H113.346C113.787 60.2132 114.098 60.249 114.336 60.428C114.587 60.607 114.754 60.8457 114.754 61.2635Z" fill="#1C0E12"/>
<path d="M25.5661 77.6215C25.5661 76.0222 24.9216 75.0674 24.2293 74.4945C23.549 73.9097 22.4868 73.5039 21.0546 73.5039H18.2617V81.7392H21.0546C22.4868 81.7392 23.549 81.3334 24.2293 80.7605C24.9216 80.1756 25.5661 79.2208 25.5661 77.6215ZM23.6087 77.6215C23.6087 78.636 23.2268 79.185 22.8806 79.5073C22.5345 79.8415 21.9616 80.104 21.162 80.104H20.1833V75.1032H21.162C21.9616 75.1032 22.5345 75.3658 22.8806 75.688C23.2268 76.0222 23.6087 76.607 23.6087 77.6215Z" fill="#1C0E12"/>
<path d="M34.071 81.7392L30.9679 73.4919H28.9628L25.8596 81.7392H27.8647L28.4495 80.0802H31.3856L31.9704 81.7392H34.071ZM30.944 78.5763H28.8911L29.9176 75.6164L30.944 78.5763Z" fill="#1C0E12"/>
<path d="M39.5327 75.0316V73.5039H33.3502V75.0316H35.4747V81.7392H37.4082V75.0316H39.5327Z" fill="#1C0E12"/>
<path d="M47.148 81.7392L44.0448 73.4919H42.0397L38.9366 81.7392H40.9417L41.5265 80.0802H44.4626L45.0474 81.7392H47.148ZM44.021 78.5763H41.9681L42.9945 75.6164L44.021 78.5763Z" fill="#1C0E12"/>
<path d="M57.5549 80.7605L56.9104 79.2566C56.4569 79.7221 55.7169 80.1279 54.6905 80.1279C53.3418 80.1279 52.2199 79.2089 52.2199 77.5976C52.2199 75.9864 53.2941 75.0554 54.6905 75.0554C55.7766 75.0554 56.6598 75.7119 56.815 75.9148L57.4117 74.3155C57.1969 74.0887 56.2779 73.3845 54.5831 73.3845C52.1841 73.3845 50.2625 74.9719 50.2625 77.6334C50.2625 80.2831 52.1602 81.8824 54.5831 81.8824C56.2659 81.8824 57.1372 81.1901 57.5549 80.7605Z" fill="#1C0E12"/>
<path d="M66.639 77.6334C66.639 74.9719 64.7175 73.3726 62.2707 73.3726C59.824 73.3726 57.9025 74.9719 57.9025 77.6334C57.9025 80.295 59.824 81.8824 62.2707 81.8824C64.7175 81.8824 66.639 80.295 66.639 77.6334ZM64.6817 77.5857C64.6817 79.1611 63.6433 80.1637 62.2707 80.1637C60.8982 80.1637 59.8598 79.1611 59.8598 77.5857C59.8598 76.0103 60.8982 75.0196 62.2707 75.0196C63.6433 75.0196 64.6817 76.0222 64.6817 77.5857Z" fill="#1C0E12"/>
<path d="M72.739 81.7392V80.1398H69.8864V73.5039H67.9649V81.7392H72.739Z" fill="#1C0E12"/>
<path d="M78.6189 81.7392V80.1398H75.7664V73.5039H73.8448V81.7392H78.6189Z" fill="#1C0E12"/>
<path d="M85.1672 81.7392V80.1756H81.6463V78.266H84.8689V76.7264H81.6463V75.0435H85.0598V73.5039H79.7248V81.7392H85.1672Z" fill="#1C0E12"/>
<path d="M93.4701 80.7605L92.8256 79.2566C92.3721 79.7221 91.6321 80.1279 90.6057 80.1279C89.257 80.1279 88.1351 79.2089 88.1351 77.5976C88.1351 75.9864 89.2093 75.0554 90.6057 75.0554C91.6918 75.0554 92.575 75.7119 92.7301 75.9148L93.3269 74.3155C93.1121 74.0887 92.1931 73.3845 90.4983 73.3845C88.0993 73.3845 86.1777 74.9719 86.1777 77.6334C86.1777 80.2831 88.0754 81.8824 90.4983 81.8824C92.1811 81.8824 93.0524 81.1901 93.4701 80.7605Z" fill="#1C0E12"/>
<path d="M100.133 75.0316V73.5039H93.9508V75.0316H96.0753V81.7392H98.0088V75.0316H100.133Z" fill="#1C0E12"/>
<path d="M103.109 81.7392V73.5039H101.176V81.7392H103.109Z" fill="#1C0E12"/>
<path d="M113.172 77.6334C113.172 74.9719 111.25 73.3726 108.804 73.3726C106.357 73.3726 104.435 74.9719 104.435 77.6334C104.435 80.295 106.357 81.8824 108.804 81.8824C111.25 81.8824 113.172 80.295 113.172 77.6334ZM111.215 77.5857C111.215 79.1611 110.176 80.1637 108.804 80.1637C107.431 80.1637 106.393 79.1611 106.393 77.5857C106.393 76.0103 107.431 75.0196 108.804 75.0196C110.176 75.0196 111.215 76.0222 111.215 77.5857Z" fill="#1C0E12"/>
<path d="M121.945 81.7392V73.5039H120.06V77.2396C120.06 78.1109 120.095 79.0418 120.095 79.0418L116.563 73.5039H114.498V81.7392H116.383V78.0154C116.383 77.1441 116.348 76.1535 116.348 76.1535L119.964 81.7392H121.945Z" fill="#1C0E12"/>
<circle cx="70.4353" cy="70.4348" r="62.3913" stroke="#1C0E12" stroke-width="2.17391" stroke-dasharray="6.96 1.74"/>
</svg>
