<svg width="118" height="26" viewBox="0 0 118 26" fill="none" xmlns="http://www.w3.org/2000/svg">
<g clip-path="url(#clip0_41284_162679)">
<path d="M27.1616 1.62154C27.4616 2.18171 27.3116 2.65343 27.1016 3.15463C26.7717 3.98015 26.8617 4.77618 27.4616 5.45428C28.0615 6.16186 28.9014 6.2503 29.7712 6.07341C30.9711 5.80806 31.6609 4.68773 31.481 3.44946C31.391 2.85981 31.031 2.27016 31.361 1.62154C31.061 1.76895 31.061 1.76895 30.7011 2.35861C30.3711 1.97533 30.0712 1.56257 29.7113 1.14982C29.4113 0.82551 29.1113 0.530686 29.2913 0C28.9314 0.176895 28.7514 0.412754 28.6314 0.70758C28.5414 1.00241 28.4814 1.29723 28.4214 1.59206C28.3615 1.88688 28.2115 2.15223 27.9115 2.32912C27.7316 2.00481 27.5516 1.76895 27.1616 1.62154Z" fill="white"/>
<path d="M1.63074 18.8025V5.20419L0 4.94016V3.68097L4.2523 3.15293L4.97477 3.05225V3.59973V8.22121C5.13991 8.05874 5.34633 7.87595 5.59404 7.73379C5.82111 7.57131 6.08945 7.42914 6.3578 7.30729C6.64679 7.18543 6.93579 7.08388 7.26606 7.00264C7.59634 6.9214 7.94725 6.88079 8.31881 6.88079C8.97937 6.88079 9.59863 6.98233 10.1766 7.20574C10.7546 7.42914 11.2707 7.7744 11.7041 8.24152C12.1376 8.72895 12.4885 9.33824 12.7569 10.11C13.0046 10.8818 13.1491 11.7957 13.1491 12.9127C13.1491 13.8673 13.0046 14.7406 12.7156 15.5733C12.4266 16.4059 11.9931 17.0965 11.4358 17.7058C10.8784 18.315 10.1973 18.7822 9.41285 19.1274C8.60781 19.4727 7.72019 19.6555 6.70872 19.6555C6.00689 19.6555 5.36698 19.6148 4.76835 19.5539C4.19037 19.493 3.67431 19.4118 3.24083 19.3102C2.80734 19.2087 2.45642 19.1274 2.18808 19.0259C1.91973 18.9243 1.7133 18.8634 1.63074 18.8025ZM6.93579 8.85081C6.48166 8.85081 6.08945 8.93205 5.75918 9.09452C5.4289 9.257 5.16055 9.43978 4.97477 9.64288V17.6854C5.07799 17.8479 5.26377 17.9901 5.55276 18.0713C5.84175 18.1729 6.19267 18.2135 6.56423 18.2135C7.05964 18.2135 7.49313 18.0916 7.84404 17.8276C8.2156 17.5636 8.50459 17.2183 8.7523 16.7715C9.00001 16.3247 9.16514 15.7967 9.289 15.2077C9.41285 14.6187 9.47478 13.9688 9.47478 13.2986C9.47478 12.6081 9.43349 11.9785 9.33028 11.4098C9.22707 10.8614 9.08258 10.3943 8.85551 10.0084C8.64909 9.62257 8.38074 9.33824 8.05047 9.13514C7.76147 8.95235 7.36927 8.85081 6.93579 8.85081Z" fill="white"/>
<path d="M14.9512 19.2934V17.8514L16.52 17.6483V9.40264L15.0337 8.95583V7.33107L18.7493 6.80302H18.8113L19.3892 7.27014V8.16376L19.3686 9.82914H19.4099C19.4925 9.60574 19.6576 9.3214 19.8847 8.97614C20.1117 8.63088 20.4007 8.28562 20.731 7.96067C21.0613 7.63571 21.4535 7.35138 21.887 7.12798C22.3204 6.90457 22.7952 6.78271 23.3113 6.78271C23.5383 6.78271 23.7035 6.78271 23.8273 6.80302C23.9512 6.82333 24.0544 6.84364 24.137 6.86395V10.5806C24.0544 10.5197 23.848 10.4587 23.5177 10.3978C23.1874 10.3369 22.7746 10.2963 22.3204 10.2963C22.0727 10.2963 21.8044 10.3166 21.5567 10.3369C21.309 10.3572 21.0613 10.3978 20.8342 10.4587C20.6071 10.4994 20.4214 10.5603 20.2356 10.6212C20.0498 10.6821 19.9259 10.7431 19.8227 10.804V17.628L22.5269 17.892V19.2934H14.9512Z" fill="white"/>
<path d="M26.4521 19.4119V17.97L28.0416 17.7669V9.52122L26.576 9.0541V7.44965L30.5806 6.9216L31.4269 6.83936V7.38872V17.7466L32.9957 17.97V19.4119H26.4521Z" fill="white"/>
<path d="M40.2733 15.4506C39.6536 15.4506 39.0765 15.4083 38.5636 15.3238C38.4354 15.4506 38.3285 15.5986 38.243 15.7677C38.1575 15.9369 38.1148 16.1271 38.1148 16.3597C38.1148 16.6134 38.1575 16.8248 38.2644 16.9939C38.3712 17.1419 38.5208 17.2688 38.7346 17.3533C38.9483 17.4379 39.2047 17.5013 39.5467 17.5225C39.8886 17.5436 40.2733 17.5648 40.7221 17.5648H42.9662C44.5905 17.5648 45.7873 17.8396 46.5994 18.3681C47.3902 18.9178 47.7962 19.8057 47.7962 21.0319C47.7962 21.7719 47.6039 22.4695 47.1978 23.0826C46.8131 23.6957 46.2788 24.2031 45.5949 24.6471C44.9324 25.0699 44.1417 25.4082 43.2654 25.6407C42.3892 25.8733 41.4702 26.0001 40.5084 26.0001H40.4871C39.4185 26.0001 38.5208 25.9155 37.7728 25.7253C37.0248 25.535 36.405 25.2813 35.9135 24.9642C35.4219 24.6471 35.08 24.2454 34.8449 23.8014C34.6098 23.3575 34.5029 22.8501 34.5029 22.3215C34.5029 21.9833 34.567 21.6662 34.6953 21.349C34.8235 21.0531 34.9945 20.7782 35.2082 20.5245C35.4219 20.2708 35.657 20.0594 35.9562 19.8691C36.2341 19.6789 36.5333 19.5309 36.8325 19.4252C36.405 19.1926 36.0631 18.9178 35.828 18.5795C35.5929 18.2413 35.486 17.8396 35.486 17.3745C35.486 16.8037 35.6356 16.3386 35.9348 15.9369C36.2341 15.5563 36.6187 15.1969 37.0889 14.901C36.3195 14.5627 35.7639 14.0764 35.4005 13.4422C35.0372 12.808 34.8449 12.068 34.8449 11.2224C34.8449 10.5459 34.9945 9.9539 35.2937 9.40423C35.5929 8.85456 36.0203 8.38945 36.5333 8.00891C37.0676 7.62836 37.666 7.33239 38.3712 7.12097C39.0765 6.90956 39.8245 6.80386 40.6153 6.80386H40.6367C42.5174 6.80386 43.9066 7.16326 44.8256 7.88206C44.9324 7.75521 45.082 7.62836 45.253 7.50152C45.424 7.37467 45.6377 7.24782 45.8728 7.14212C46.1079 7.03641 46.3643 6.95184 46.6422 6.88842C46.92 6.825 47.2192 6.78271 47.5398 6.78271H48.0741V9.27738H45.8514C45.9369 9.50994 46.001 9.76363 46.0437 10.0173C46.0865 10.271 46.1079 10.567 46.1079 10.863C46.1079 11.5395 45.9583 12.1526 45.6804 12.7023C45.4026 13.2519 44.9965 13.7382 44.4836 14.161C43.9707 14.5627 43.3509 14.8798 42.6456 15.1124C41.919 15.3449 41.1496 15.4506 40.2733 15.4506ZM39.6963 19.9537C39.2047 19.9537 38.7559 19.9114 38.3499 19.848C38.2003 20.0171 38.0507 20.2285 37.9224 20.4822C37.7942 20.7359 37.7301 21.1165 37.7301 21.5604C37.7301 22.0678 37.7942 22.4907 37.9224 22.8289C38.0507 23.1672 38.2644 23.4632 38.5208 23.6746C38.7773 23.886 39.1193 24.0551 39.5039 24.1397C39.8886 24.2454 40.3375 24.2877 40.8504 24.2877H40.8718C41.3206 24.2877 41.7694 24.2454 42.2182 24.1397C42.6456 24.034 43.0517 23.886 43.3936 23.6746C43.7356 23.4632 44.0134 23.1883 44.2058 22.8712C44.4195 22.5541 44.5263 22.1735 44.5263 21.7507C44.5263 21.4336 44.4836 21.1376 44.4195 20.9051C44.3554 20.6725 44.2271 20.4822 44.0348 20.3343C43.8424 20.1863 43.6074 20.0806 43.2868 20.0171C42.9662 19.9537 42.5601 19.9114 42.0686 19.9114H39.6963V19.9537ZM40.5512 13.9707C40.9359 13.9707 41.2564 13.8862 41.5129 13.7382C41.7694 13.5902 41.9617 13.3788 42.1113 13.1251C42.2609 12.8714 42.3464 12.5543 42.4105 12.1949C42.4746 11.8355 42.496 11.4549 42.496 11.0744C42.496 10.1019 42.3464 9.38309 42.0258 8.93912C41.7053 8.49516 41.1923 8.28374 40.4443 8.28374H40.4229C39.7177 8.28374 39.2047 8.5163 38.8842 8.96026C38.5636 9.40423 38.3926 10.0596 38.3926 10.9687C38.3926 11.4126 38.4354 11.8143 38.4995 12.1737C38.5636 12.5331 38.6918 12.8503 38.8414 13.1251C39.0124 13.3788 39.2261 13.5902 39.5039 13.7382C39.7818 13.8862 40.1237 13.9707 40.5512 13.9707Z" fill="white"/>
<path d="M49.2831 19.4118V17.9698L50.6249 17.7464V5.087L48.9941 4.82298V3.56379L53.2258 3.03574L53.4718 2.99512H53.9318L53.9689 6.94174L53.9318 8.47836C54.1176 8.29557 54.2373 8.28216 54.5469 8.07907C54.8565 7.87597 55.1662 7.69319 55.5377 7.53071C55.9093 7.36824 56.3221 7.22607 56.7556 7.10421C57.1891 7.00267 57.6639 6.94174 58.1386 6.94174C58.8405 6.94174 59.4391 7.04328 59.8932 7.22607C60.3474 7.40886 60.7189 7.7135 61.0079 8.11969C61.2969 8.52588 61.462 9.03362 61.5859 9.6429C61.6891 10.2522 61.751 10.9833 61.751 11.816V17.7464L63.2786 17.9698V19.4118H57.1891V18.0104L58.407 17.7667V11.7957C58.407 11.3083 58.3864 10.8818 58.3244 10.5162C58.2831 10.1506 58.1799 9.86631 58.0354 9.6226C57.8909 9.37888 57.7052 9.2164 57.4575 9.11486C57.2097 9.01331 56.8795 8.95238 56.4873 8.95238C56.2602 8.95238 56.0331 8.97269 55.7854 9.03362C55.5377 9.09455 55.3107 9.15547 55.1042 9.2164C54.8772 9.29764 54.6708 9.37888 54.485 9.48043C54.2992 9.58198 54.1341 9.68353 53.9896 9.78507V17.7667L55.4758 17.9901V19.4321H49.2831V19.4118Z" fill="white"/>
<path d="M65.7031 16.9253V9.04517H64.1755V7.82659C64.2375 7.80629 64.32 7.78598 64.4439 7.74536C64.5677 7.70474 64.6916 7.64381 64.8361 7.60319C64.9599 7.56257 65.0838 7.50164 65.2076 7.46102C65.3315 7.4204 65.3934 7.37979 65.4141 7.35948C65.6618 7.17669 65.9095 6.83143 66.1778 6.32369C66.2604 6.18152 66.3223 6.01905 66.4255 5.81595C66.5287 5.61286 66.5907 5.43007 66.6732 5.22698C66.7558 5.02388 66.8384 4.82079 66.9003 4.61769C66.9829 4.4146 67.0242 4.23181 67.0861 4.06934H69.0265L69.0677 7.23762H72.2673V9.06547H69.0677V14.9958C69.0677 15.5645 69.0677 16.0113 69.0884 16.3566C69.109 16.7018 69.1503 16.9456 69.2122 17.108C69.2742 17.2705 69.398 17.3924 69.5425 17.433C69.687 17.4736 69.8934 17.5142 70.1411 17.5142H70.1618C70.3269 17.5142 70.5127 17.4939 70.7191 17.4736C70.9049 17.4533 71.0907 17.4127 71.2765 17.3721C71.4622 17.3314 71.6274 17.2908 71.7925 17.2502C71.9577 17.2096 72.0815 17.169 72.1847 17.1283H72.2054L72.7214 18.3875C72.4943 18.55 72.2466 18.7125 71.9164 18.875C71.5861 19.0374 71.2558 19.1796 70.8636 19.3218C70.4714 19.4639 70.0792 19.5655 69.6457 19.6467C69.2122 19.728 68.7994 19.7686 68.3659 19.7686H68.3453C67.8705 19.7686 67.4576 19.7077 67.1274 19.5858C66.7971 19.4639 66.5081 19.2812 66.3017 19.0374C66.0953 18.7937 65.9508 18.5094 65.8476 18.1438C65.7443 17.7783 65.7031 17.3924 65.7031 16.9253Z" fill="white"/>
<path d="M82.1582 19.7188C81.5183 19.7188 80.899 19.5969 80.3004 19.3532C79.7018 19.1095 79.1857 18.7236 78.7522 18.2362C78.2981 17.7285 77.9472 17.0989 77.6788 16.3474C77.4105 15.596 77.2866 14.7023 77.2866 13.6666C77.2866 12.712 77.4311 11.8387 77.7201 11.0263C78.0091 10.2139 78.4426 9.50311 78.9793 8.89383C79.5366 8.28454 80.1972 7.81742 80.9816 7.47216C81.766 7.1269 82.6536 6.96443 83.6444 6.96443C83.9953 6.96443 84.3256 6.98474 84.6765 7.02535C85.0068 7.06597 85.3371 7.10659 85.6467 7.16752V4.91432L83.4999 4.71122V3.69574L87.5045 3.22863H87.5664L88.1031 3.16504V18.1956H89.4036V19.3329C89.094 19.4142 88.743 19.4954 88.3302 19.5969C87.9174 19.6985 87.4839 19.7391 87.0297 19.7391C86.844 19.7391 86.6582 19.7188 86.5137 19.6985C86.3692 19.6782 86.2453 19.6172 86.1421 19.536C86.0389 19.4548 85.9564 19.3329 85.9151 19.1907C85.8738 19.0486 85.8325 18.8455 85.8325 18.6018V18.1347C85.6467 18.3378 85.4197 18.5205 85.1719 18.7236C84.9242 18.9267 84.6559 19.0892 84.3463 19.2314C84.0366 19.3735 83.7064 19.4954 83.3348 19.5969C82.9839 19.6579 82.5917 19.7188 82.1582 19.7188ZM83.1697 18.0737C83.4586 18.0737 83.727 18.0331 83.9953 17.9722C84.243 17.8909 84.4908 17.8097 84.6972 17.7082C84.9036 17.6066 85.0894 17.4847 85.2545 17.3629C85.4197 17.241 85.5641 17.1192 85.6674 16.9973V8.8329C85.6261 8.75166 85.5229 8.67042 85.399 8.58919C85.2545 8.50795 85.11 8.42671 84.9036 8.36578C84.7178 8.30485 84.4908 8.24392 84.2637 8.22362C84.0366 8.183 83.7889 8.16269 83.5206 8.16269C83.0252 8.16269 82.571 8.24392 82.1582 8.42671C81.7247 8.6095 81.3531 8.89383 81.0229 9.30002C80.6926 9.70621 80.4449 10.2343 80.2591 10.8842C80.0733 11.5341 79.9701 12.3261 79.9495 13.2604C79.9288 14.0931 80.0114 14.8242 80.1765 15.4335C80.3417 16.0428 80.5687 16.5302 80.8577 16.9364C81.1467 17.3223 81.4976 17.6269 81.8898 17.8097C82.282 17.9722 82.7155 18.0737 83.1697 18.0737Z" fill="#E7EEFF"/>
<path d="M89.7075 16.3105C89.7075 15.8028 89.8107 15.3357 89.9965 14.9295C90.1823 14.5233 90.4506 14.178 90.8016 13.8531C91.1525 13.5485 91.5447 13.2844 91.9988 13.061C92.4529 12.8376 92.9483 12.6751 93.485 12.533C94.0217 12.3908 94.5791 12.2893 95.1571 12.2283C95.735 12.1674 96.313 12.1268 96.8704 12.1065V11.5378C96.8704 11.0301 96.8291 10.6036 96.7672 10.2583C96.6846 9.91305 96.5607 9.62872 96.3956 9.40531C96.2098 9.18191 95.9828 9.01943 95.6731 8.93819C95.3841 8.83664 94.9919 8.79603 94.5378 8.79603C94.1456 8.79603 93.7534 8.83664 93.3612 8.89757C92.969 8.97881 92.5974 9.06005 92.2259 9.1616C91.875 9.26314 91.5447 9.385 91.235 9.48655C90.9254 9.60841 90.6777 9.70995 90.4713 9.8115H90.4506L89.9552 8.77572C90.0997 8.65386 90.3268 8.49138 90.6777 8.28829C91.0286 8.08519 91.4415 7.90241 91.9162 7.69931C92.391 7.51653 92.9071 7.35405 93.4438 7.21188C94.0011 7.06972 94.5378 7.00879 95.0745 7.00879C95.8383 7.00879 96.4782 7.09003 97.0149 7.23219C97.5309 7.39467 97.9644 7.63838 98.2947 7.96334C98.625 8.3086 98.852 8.7351 98.9965 9.28345C99.141 9.83181 99.2029 10.4817 99.2029 11.2738V18.3415H100.545V19.3773C100.4 19.4179 100.235 19.4585 100.049 19.4991C99.8635 19.5398 99.6571 19.5804 99.4507 19.621C99.2442 19.6616 99.0172 19.7022 98.8107 19.7225C98.6043 19.7429 98.3773 19.7632 98.1915 19.7632C97.9851 19.7632 97.8199 19.7632 97.6548 19.7429C97.5103 19.7225 97.3864 19.6819 97.2832 19.6007C97.18 19.5194 97.1181 19.4179 97.0768 19.2554C97.0355 19.1133 97.0149 18.9102 97.0149 18.6461V18.2399C96.9117 18.3212 96.7672 18.443 96.5607 18.6258C96.3543 18.7883 96.086 18.9711 95.7763 19.1336C95.4667 19.296 95.1158 19.4585 94.7029 19.5804C94.3107 19.7022 93.8772 19.7632 93.4231 19.7632C92.9277 19.7632 92.4529 19.7022 91.9988 19.5601C91.5447 19.4179 91.1525 19.2148 90.8016 18.9508C90.4506 18.6664 90.1823 18.3212 89.9759 17.8744C89.7694 17.4276 89.7075 16.9198 89.7075 16.3105ZM94.3933 18.1384C94.5378 18.1384 94.7236 18.1181 94.93 18.0775C95.1364 18.0369 95.3635 17.9759 95.5906 17.915C95.8176 17.8338 96.0447 17.7525 96.2511 17.651C96.4782 17.5494 96.6639 17.4276 96.8497 17.3057V13.325C95.9828 13.325 95.2603 13.4063 94.6617 13.5485C94.0837 13.6906 93.6089 13.8937 93.258 14.1374C92.9071 14.3811 92.6594 14.6655 92.5149 14.9904C92.3704 15.3154 92.2878 15.6403 92.2878 15.9856C92.2878 16.3715 92.3497 16.7167 92.4529 16.9808C92.5561 17.2448 92.7006 17.4682 92.8864 17.651C93.0722 17.8134 93.2993 17.9556 93.547 18.0165C93.836 18.0978 94.1043 18.1384 94.3933 18.1384Z" fill="#E7EEFF"/>
<path d="M101.167 16.9862V8.59836H99.5984V7.58288C99.8255 7.50164 100.053 7.44071 100.259 7.35948C100.486 7.27824 100.651 7.21731 100.734 7.13607C100.981 6.9736 101.167 6.70957 101.353 6.32369C101.415 6.20183 101.477 6.01905 101.58 5.81595C101.663 5.61286 101.745 5.38945 101.828 5.16605C101.91 4.94264 101.993 4.73955 102.055 4.53645C102.117 4.33336 102.179 4.17088 102.199 4.06934H103.603V7.03452H107.257V8.59836H103.603V15.0365C103.603 15.6661 103.603 16.1738 103.624 16.5394C103.644 16.9049 103.686 17.169 103.768 17.3314C103.851 17.4939 103.975 17.6158 104.14 17.6564C104.305 17.697 104.532 17.7173 104.821 17.7173H104.842C105.048 17.7173 105.275 17.697 105.502 17.6767C105.729 17.6564 105.956 17.6158 106.163 17.5752C106.39 17.5345 106.575 17.4939 106.761 17.4533C106.947 17.4127 107.092 17.3721 107.195 17.3111H107.215L107.587 18.3672C107.422 18.4891 107.174 18.6313 106.864 18.7734C106.555 18.9156 106.225 19.0374 105.874 19.1593C105.523 19.2812 105.151 19.3624 104.759 19.4436C104.367 19.5249 104.016 19.5655 103.665 19.5655H103.644C103.252 19.5655 102.922 19.5249 102.612 19.4436C102.303 19.3624 102.055 19.2202 101.828 19.0171C101.621 18.814 101.456 18.55 101.332 18.2251C101.229 17.8595 101.167 17.4533 101.167 16.9862Z" fill="#E7EEFF"/>
<path d="M107.649 16.0845C107.649 15.5767 107.752 15.1096 107.938 14.7034C108.124 14.2972 108.392 13.952 108.743 13.627C109.094 13.3224 109.486 13.0584 109.94 12.8349C110.395 12.6115 110.89 12.4491 111.427 12.3069C111.963 12.1647 112.521 12.0632 113.099 12.0023C113.677 11.9413 114.255 11.9007 114.812 11.8804V11.3117C114.812 10.804 114.771 10.3775 114.709 10.0322C114.626 9.68697 114.502 9.40264 114.337 9.17924C114.151 8.95583 113.924 8.79336 113.615 8.71212C113.326 8.61057 112.934 8.56995 112.479 8.56995C112.087 8.56995 111.695 8.61057 111.303 8.6715C110.911 8.75274 110.539 8.83398 110.168 8.93552C109.817 9.03707 109.486 9.15893 109.177 9.26048C108.867 9.38233 108.619 9.48388 108.413 9.58543H108.392L107.897 8.54964C108.041 8.42779 108.268 8.26531 108.619 8.06221C108.97 7.85912 109.383 7.67633 109.858 7.47324C110.333 7.29045 110.849 7.12798 111.385 6.98581C111.943 6.84364 112.479 6.78271 113.016 6.78271C113.78 6.78271 114.42 6.86395 114.957 7.00612C115.473 7.1686 115.906 7.41231 116.236 7.73726C116.567 8.08252 116.794 8.50902 116.938 9.05738C117.083 9.60574 117.145 10.2556 117.145 11.0477V18.1154H118.486V19.1512C118.342 19.1918 118.177 19.2324 117.991 19.2731C117.805 19.3137 117.599 19.3543 117.392 19.3949C117.186 19.4355 116.959 19.4762 116.752 19.4965C116.546 19.5168 116.319 19.5371 116.133 19.5371C115.927 19.5371 115.762 19.5371 115.596 19.5168C115.452 19.4965 115.328 19.4558 115.225 19.3746C115.122 19.2934 115.06 19.1918 115.018 19.0293C114.977 18.8872 114.957 18.6841 114.957 18.4201V18.0139C114.853 18.0951 114.709 18.217 114.502 18.3998C114.296 18.5622 114.028 18.745 113.718 18.9075C113.408 19.07 113.057 19.2324 112.645 19.3543C112.252 19.4762 111.819 19.5371 111.365 19.5371C110.869 19.5371 110.395 19.4762 109.94 19.334C109.486 19.1918 109.094 18.9887 108.743 18.7247C108.392 18.4404 108.124 18.0951 107.918 17.6483C107.711 17.2015 107.649 16.6938 107.649 16.0845ZM112.356 17.9123C112.5 17.9123 112.686 17.892 112.892 17.8514C113.099 17.8108 113.326 17.7499 113.553 17.6889C113.78 17.6077 114.007 17.5264 114.213 17.4249C114.44 17.3233 114.626 17.2015 114.812 17.0796V13.099C113.945 13.099 113.223 13.1802 112.624 13.3224C112.046 13.4645 111.571 13.6676 111.22 13.9114C110.869 14.1551 110.622 14.4394 110.477 14.7644C110.333 15.0893 110.25 15.4143 110.25 15.7595C110.25 16.1454 110.312 16.4907 110.415 16.7547C110.518 17.0187 110.663 17.2421 110.849 17.4249C111.034 17.5874 111.262 17.7295 111.509 17.7905C111.798 17.8717 112.067 17.9123 112.356 17.9123Z" fill="#E7EEFF"/>
</g>
<defs>
<clipPath id="clip0_41284_162679">
<rect width="118" height="26" fill="white"/>
</clipPath>
</defs>
</svg>
