<svg width="580" height="348" viewBox="0 0 580 348" fill="none" xmlns="http://www.w3.org/2000/svg">
<rect y="22" width="580" height="326" rx="5.79564" fill="url(#paint0_linear_10305_55916)"/>
<path d="M57.3265 87.5757C57.5774 87.5757 57.8207 87.5356 58.0566 87.4553C58.2975 87.375 58.5107 87.2646 58.6964 87.1241C58.882 86.9786 59.0301 86.8105 59.1405 86.6198C59.2559 86.4241 59.3161 86.2133 59.3211 85.9875H60.6383C60.6333 86.3488 60.538 86.695 60.3523 87.0262C60.1717 87.3524 59.9283 87.6409 59.6222 87.8918C59.3161 88.1377 58.9648 88.3359 58.5684 88.4865C58.172 88.632 57.758 88.7047 57.3265 88.7047C56.7093 88.7047 56.1698 88.5943 55.7082 88.3736C55.2465 88.1528 54.8602 87.8567 54.549 87.4854C54.2429 87.109 54.0121 86.6775 53.8566 86.1907C53.701 85.699 53.6232 85.1821 53.6232 84.6402V84.3241C53.6232 83.7871 53.701 83.2728 53.8566 82.781C54.0121 82.2893 54.2429 81.8577 54.549 81.4864C54.8602 81.1101 55.2465 80.8115 55.7082 80.5907C56.1698 80.3699 56.7093 80.2595 57.3265 80.2595C57.8082 80.2595 58.2498 80.3373 58.6512 80.4929C59.0577 80.6434 59.4064 80.8516 59.6975 81.1176C59.9935 81.3785 60.2243 81.6896 60.3899 82.0509C60.5555 82.4122 60.6383 82.7986 60.6383 83.2101H59.3211C59.3161 82.9642 59.2609 82.7334 59.1555 82.5176C59.0552 82.2968 58.9172 82.1036 58.7415 81.938C58.5659 81.7724 58.3552 81.642 58.1093 81.5466C57.8684 81.4513 57.6075 81.4036 57.3265 81.4036C56.8949 81.4036 56.5311 81.4914 56.2351 81.6671C55.944 81.8377 55.7082 82.0635 55.5275 82.3445C55.3469 82.6205 55.2164 82.9316 55.1361 83.2778C55.0609 83.6241 55.0232 83.9728 55.0232 84.3241V84.6402C55.0232 84.9965 55.0609 85.3502 55.1361 85.7015C55.2164 86.0477 55.3444 86.3614 55.52 86.6424C55.7007 86.9183 55.9365 87.1442 56.2275 87.3198C56.5236 87.4904 56.8899 87.5757 57.3265 87.5757ZM69.863 87.4327C69.5921 87.8341 69.2534 88.1477 68.8469 88.3736C68.4405 88.5943 67.9713 88.7047 67.4394 88.7047C67.0128 88.7047 66.6265 88.6395 66.2802 88.509C65.934 88.3736 65.6379 88.1653 65.392 87.8843C65.1462 87.6033 64.9555 87.247 64.82 86.8155C64.6895 86.3789 64.6243 85.857 64.6243 85.2499V80.4101H66.0168V85.2649C66.0168 85.7065 66.0519 86.0728 66.1222 86.3639C66.1924 86.6549 66.2978 86.8882 66.4383 87.0639C66.5788 87.2345 66.7494 87.3549 66.9501 87.4252C67.1559 87.4954 67.3917 87.5305 67.6576 87.5305C68.2247 87.5305 68.6813 87.4151 69.0276 87.1843C69.3788 86.9535 69.6397 86.6424 69.8104 86.251V80.4101H71.2104V88.5542H69.9458L69.863 87.4327ZM80.6383 80.2595C80.7688 80.2595 80.9043 80.2645 81.0448 80.2746C81.1853 80.2796 81.3182 80.2921 81.4437 80.3122C81.5742 80.3273 81.6921 80.3473 81.7974 80.3724C81.9078 80.3975 81.9982 80.4251 82.0684 80.4552L81.8802 81.8176C81.6093 81.7574 81.3509 81.7147 81.105 81.6896C80.8641 81.6595 80.6107 81.6445 80.3448 81.6445C79.6924 81.6445 79.163 81.7925 78.7566 82.0886C78.3551 82.3846 78.0591 82.7986 77.8684 83.3305V88.5542H76.4684V80.4101H77.7931L77.8609 81.7047C78.192 81.2581 78.5885 80.9068 79.0501 80.6509C79.5168 80.39 80.0462 80.2595 80.6383 80.2595ZM86.2426 76.9928H90.405V87.3499H93.062V88.5542H86.2426V87.3499H89.0125V78.2047H86.2426V76.9928Z" fill="#15C1E6"/>
<path d="M113.559 84.3316H107.801V83.1875H113.559V84.3316ZM119.765 87.3725H125.124V88.5542H118.373V77.595H119.765V87.3725ZM141.03 81.6219C141.321 81.1954 141.679 80.8642 142.106 80.6283C142.532 80.3875 143.012 80.2645 143.544 80.2595C143.97 80.2595 144.357 80.3222 144.703 80.4477C145.054 80.5681 145.353 80.7588 145.598 81.0197C145.844 81.2807 146.033 81.6119 146.163 82.0133C146.298 82.4097 146.366 82.8814 146.366 83.4284V88.5542H144.974V83.4133C144.974 82.7459 144.813 82.2491 144.492 81.923C144.176 81.5968 143.722 81.4362 143.13 81.4412C142.683 81.4412 142.277 81.5516 141.91 81.7724C141.549 81.9882 141.255 82.2767 141.03 82.638V88.5542H139.637V76.9928H141.03V81.6219ZM153.657 78.438V80.4101H156.758V81.4864H153.657V85.9122C153.657 86.2284 153.697 86.4893 153.777 86.695C153.857 86.9008 153.968 87.0664 154.108 87.1918C154.249 87.3123 154.409 87.3976 154.59 87.4477C154.776 87.4979 154.971 87.523 155.177 87.523C155.327 87.523 155.483 87.5155 155.644 87.5004C155.804 87.4804 155.96 87.4578 156.11 87.4327C156.266 87.4076 156.409 87.3825 156.539 87.3574C156.675 87.3273 156.785 87.3022 156.871 87.2821L157.066 88.2682C156.951 88.3384 156.81 88.4012 156.645 88.4563C156.479 88.5065 156.298 88.5492 156.103 88.5843C155.907 88.6245 155.699 88.6546 155.478 88.6746C155.262 88.6947 155.046 88.7047 154.831 88.7047C154.469 88.7047 154.131 88.6546 153.815 88.5542C153.503 88.4488 153.232 88.2857 153.002 88.0649C152.771 87.8391 152.588 87.5506 152.452 87.1994C152.322 86.8431 152.256 86.414 152.256 85.9122V81.4864H150.119V80.4101H152.256V78.438H153.657ZM164.379 78.438V80.4101H167.48V81.4864H164.379V85.9122C164.379 86.2284 164.419 86.4893 164.5 86.695C164.58 86.9008 164.69 87.0664 164.831 87.1918C164.971 87.3123 165.132 87.3976 165.312 87.4477C165.498 87.4979 165.694 87.523 165.9 87.523C166.05 87.523 166.206 87.5155 166.366 87.5004C166.527 87.4804 166.682 87.4578 166.833 87.4327C166.988 87.4076 167.131 87.3825 167.262 87.3574C167.397 87.3273 167.508 87.3022 167.593 87.2821L167.789 88.2682C167.673 88.3384 167.533 88.4012 167.367 88.4563C167.202 88.5065 167.021 88.5492 166.825 88.5843C166.63 88.6245 166.421 88.6546 166.201 88.6746C165.985 88.6947 165.769 88.7047 165.553 88.7047C165.192 88.7047 164.853 88.6546 164.537 88.5542C164.226 88.4488 163.955 88.2857 163.724 88.0649C163.493 87.8391 163.31 87.5506 163.175 87.1994C163.044 86.8431 162.979 86.414 162.979 85.9122V81.4864H160.841V80.4101H162.979V78.438H164.379ZM178.677 84.5725C178.677 85.1545 178.607 85.699 178.466 86.2058C178.326 86.7076 178.12 87.1442 177.849 87.5155C177.578 87.8868 177.242 88.1779 176.84 88.3886C176.444 88.5994 175.99 88.7047 175.478 88.7047C174.981 88.7047 174.542 88.6245 174.161 88.4639C173.784 88.3033 173.461 88.0725 173.19 87.7714V91.6854H171.797V80.4101H173.069L173.137 81.2982C173.408 80.962 173.734 80.7061 174.116 80.5305C174.502 80.3498 174.949 80.2595 175.455 80.2595C175.977 80.2595 176.439 80.3624 176.84 80.5681C177.242 80.7739 177.578 81.0599 177.849 81.4262C178.12 81.7925 178.326 82.2316 178.466 82.7434C178.607 83.2502 178.677 83.8072 178.677 84.4144V84.5725ZM177.284 84.4144C177.284 84.018 177.239 83.6416 177.149 83.2853C177.064 82.9241 176.928 82.6079 176.743 82.337C176.562 82.061 176.331 81.8427 176.05 81.6821C175.769 81.5215 175.433 81.4412 175.041 81.4412C174.595 81.4412 174.218 81.5466 173.912 81.7574C173.611 81.9631 173.37 82.2291 173.19 82.5552V86.4768C173.37 86.7979 173.611 87.0614 173.912 87.2671C174.213 87.4678 174.595 87.5682 175.056 87.5682C175.443 87.5682 175.777 87.4879 176.058 87.3273C176.339 87.1617 176.569 86.9409 176.75 86.6649C176.931 86.389 177.064 86.0703 177.149 85.709C177.239 85.3477 177.284 84.9689 177.284 84.5725V84.4144ZM187.939 86.394C187.939 86.2284 187.907 86.0803 187.841 85.9499C187.776 85.8144 187.666 85.6915 187.51 85.5811C187.355 85.4707 187.149 85.3703 186.893 85.28C186.637 85.1846 186.318 85.0993 185.937 85.0241C185.47 84.9287 185.044 84.8133 184.658 84.6778C184.276 84.5423 183.947 84.3818 183.672 84.1961C183.401 84.0054 183.19 83.7846 183.039 83.5337C182.889 83.2778 182.813 82.9818 182.813 82.6456C182.813 82.3144 182.891 82.0058 183.047 81.7197C183.202 81.4287 183.421 81.1753 183.702 80.9595C183.983 80.7437 184.316 80.5731 184.703 80.4477C185.094 80.3222 185.523 80.2595 185.99 80.2595C186.492 80.2595 186.943 80.3247 187.345 80.4552C187.746 80.5857 188.087 80.7663 188.368 80.9972C188.649 81.228 188.865 81.499 189.016 81.8101C189.171 82.1162 189.249 82.4473 189.249 82.8036H187.856C187.856 82.628 187.811 82.4574 187.721 82.2918C187.631 82.1212 187.505 81.9706 187.345 81.8402C187.184 81.7097 186.988 81.6043 186.758 81.524C186.532 81.4438 186.276 81.4036 185.99 81.4036C185.694 81.4036 185.433 81.4362 185.207 81.5015C184.986 81.5667 184.801 81.6545 184.65 81.7649C184.504 81.8753 184.394 82.0033 184.319 82.1488C184.244 82.2943 184.206 82.4448 184.206 82.6004C184.206 82.761 184.236 82.904 184.296 83.0294C184.356 83.1549 184.459 83.2678 184.605 83.3681C184.755 83.4685 184.954 83.5588 185.199 83.6391C185.45 83.7194 185.767 83.7972 186.148 83.8724C186.65 83.9778 187.099 84.1008 187.495 84.2413C187.892 84.3767 188.225 84.5423 188.496 84.738C188.767 84.9287 188.973 85.152 189.113 85.4079C189.259 85.6639 189.332 85.9599 189.332 86.2961C189.332 86.6574 189.249 86.9861 189.083 87.2821C188.923 87.5782 188.697 87.8316 188.406 88.0424C188.115 88.2531 187.766 88.4162 187.36 88.5316C186.953 88.647 186.509 88.7047 186.027 88.7047C185.475 88.7047 184.984 88.632 184.552 88.4865C184.121 88.3359 183.754 88.1402 183.453 87.8994C183.157 87.6535 182.929 87.37 182.768 87.0488C182.613 86.7277 182.535 86.394 182.535 86.0477H183.927C183.947 86.3338 184.023 86.5746 184.153 86.7703C184.289 86.966 184.454 87.1241 184.65 87.2445C184.851 87.3649 185.072 87.4502 185.312 87.5004C185.553 87.5506 185.792 87.5757 186.027 87.5757C186.615 87.5757 187.079 87.4678 187.42 87.252C187.761 87.0363 187.934 86.7502 187.939 86.394ZM196.05 87.651C196.05 87.5004 196.073 87.3599 196.118 87.2295C196.168 87.099 196.238 86.9861 196.329 86.8907C196.419 86.7904 196.532 86.7126 196.667 86.6574C196.803 86.6022 196.961 86.5746 197.141 86.5746C197.322 86.5746 197.48 86.6022 197.616 86.6574C197.756 86.7126 197.872 86.7904 197.962 86.8907C198.057 86.9861 198.127 87.099 198.173 87.2295C198.223 87.3599 198.248 87.5004 198.248 87.651C198.248 87.7965 198.223 87.9345 198.173 88.0649C198.127 88.1904 198.057 88.3008 197.962 88.3961C197.872 88.4915 197.756 88.5642 197.616 88.6144C197.48 88.6696 197.322 88.6972 197.141 88.6972C196.961 88.6972 196.803 88.6696 196.667 88.6144C196.532 88.5642 196.419 88.4915 196.329 88.3961C196.238 88.3008 196.168 88.1904 196.118 88.0649C196.073 87.9345 196.05 87.7965 196.05 87.651ZM196.05 81.0574C196.05 80.9068 196.073 80.7663 196.118 80.6359C196.168 80.5054 196.238 80.3925 196.329 80.2972C196.419 80.1968 196.532 80.119 196.667 80.0638C196.803 80.0086 196.961 79.981 197.141 79.981C197.322 79.981 197.48 80.0086 197.616 80.0638C197.756 80.119 197.872 80.1968 197.962 80.2972C198.057 80.3925 198.127 80.5054 198.173 80.6359C198.223 80.7663 198.248 80.9068 198.248 81.0574C198.248 81.2029 198.223 81.3409 198.173 81.4714C198.127 81.5968 198.057 81.7072 197.962 81.8025C197.872 81.8979 197.756 81.9731 197.616 82.0283C197.48 82.0785 197.322 82.1036 197.141 82.1036C196.961 82.1036 196.803 82.0785 196.667 82.0283C196.532 81.9731 196.419 81.8979 196.329 81.8025C196.238 81.7072 196.168 81.5968 196.118 81.4714C196.073 81.3409 196.05 81.2029 196.05 81.0574ZM205.809 89.4951H204.56L209.136 77.595H210.378L205.809 89.4951ZM216.532 89.4951H215.282L219.859 77.595H221.101L216.532 89.4951ZM232.32 84.5725C232.32 85.1545 232.25 85.699 232.109 86.2058C231.969 86.7076 231.763 87.1442 231.492 87.5155C231.221 87.8868 230.885 88.1779 230.483 88.3886C230.087 88.5994 229.63 88.7047 229.113 88.7047C228.592 88.7047 228.137 88.6119 227.751 88.4262C227.37 88.2406 227.044 87.9746 226.773 87.6284L226.705 88.5542H225.425V76.9928H226.818V81.2832C227.084 80.952 227.405 80.6986 227.781 80.523C228.158 80.3473 228.597 80.2595 229.098 80.2595C229.62 80.2595 230.082 80.3624 230.483 80.5681C230.885 80.7739 231.221 81.0599 231.492 81.4262C231.763 81.7925 231.969 82.2316 232.109 82.7434C232.25 83.2502 232.32 83.8072 232.32 84.4144V84.5725ZM230.927 84.4144C230.927 84.018 230.887 83.6416 230.807 83.2853C230.732 82.9241 230.609 82.6079 230.438 82.337C230.268 82.061 230.044 81.8427 229.768 81.6821C229.492 81.5215 229.154 81.4412 228.752 81.4412C228.511 81.4412 228.29 81.4739 228.09 81.5391C227.889 81.5993 227.708 81.6871 227.548 81.8025C227.392 81.9129 227.252 82.0459 227.126 82.2015C227.006 82.352 226.903 82.5176 226.818 82.6982V86.2585C226.908 86.4391 227.013 86.6072 227.134 86.7628C227.259 86.9133 227.402 87.0463 227.563 87.1617C227.723 87.2771 227.904 87.3675 228.105 87.4327C228.306 87.4929 228.526 87.523 228.767 87.523C229.149 87.523 229.475 87.4452 229.746 87.2897C230.022 87.1291 230.245 86.9133 230.416 86.6424C230.591 86.3714 230.719 86.0578 230.799 85.7015C230.885 85.3452 230.927 84.9689 230.927 84.5725V84.4144ZM241.477 80.2595C241.607 80.2595 241.743 80.2645 241.883 80.2746C242.024 80.2796 242.157 80.2921 242.282 80.3122C242.413 80.3273 242.531 80.3473 242.636 80.3724C242.746 80.3975 242.837 80.4251 242.907 80.4552L242.719 81.8176C242.448 81.7574 242.189 81.7147 241.944 81.6896C241.703 81.6595 241.449 81.6445 241.183 81.6445C240.531 81.6445 240.002 81.7925 239.595 82.0886C239.194 82.3846 238.898 82.7986 238.707 83.3305V88.5542H237.307V80.4101H238.632L238.699 81.7047C239.031 81.2581 239.427 80.9068 239.889 80.6509C240.355 80.39 240.885 80.2595 241.477 80.2595ZM247.081 80.4101H251.244V87.3499H253.901V88.5542H247.081V87.3499H249.851V81.6219H247.081V80.4101ZM249.67 78.2724C249.67 78.0416 249.738 77.8484 249.874 77.6928C250.014 77.5323 250.225 77.452 250.506 77.452C250.782 77.452 250.99 77.5323 251.131 77.6928C251.271 77.8484 251.341 78.0416 251.341 78.2724C251.341 78.4982 251.271 78.6864 251.131 78.8369C250.99 78.9875 250.782 79.0627 250.506 79.0627C250.225 79.0627 250.014 78.9875 249.874 78.8369C249.738 78.6864 249.67 78.4982 249.67 78.2724ZM257.33 84.4144C257.33 83.8072 257.402 83.2502 257.548 82.7434C257.698 82.2316 257.914 81.7925 258.195 81.4262C258.476 81.0599 258.817 80.7739 259.219 80.5681C259.62 80.3624 260.074 80.2595 260.581 80.2595C261.083 80.2595 261.522 80.3498 261.898 80.5305C262.28 80.7061 262.603 80.962 262.869 81.2982L262.937 80.4101H264.202V88.3811C264.202 88.918 264.116 89.3947 263.946 89.8112C263.78 90.2277 263.544 90.5815 263.238 90.8725C262.937 91.1635 262.576 91.3843 262.154 91.5349C261.733 91.6854 261.266 91.7607 260.754 91.7607C260.544 91.7607 260.303 91.7356 260.032 91.6854C259.761 91.6402 259.485 91.5625 259.204 91.4521C258.928 91.3467 258.659 91.2037 258.398 91.023C258.142 90.8424 257.922 90.6191 257.736 90.3531L258.459 89.5176C258.629 89.7234 258.805 89.8965 258.985 90.037C259.166 90.1825 259.349 90.2979 259.535 90.3832C259.721 90.4685 259.906 90.5288 260.092 90.5639C260.278 90.604 260.463 90.6241 260.649 90.6241C260.98 90.6241 261.279 90.5764 261.545 90.4811C261.811 90.3858 262.036 90.2453 262.222 90.0596C262.413 89.8789 262.558 89.6531 262.659 89.3822C262.759 89.1112 262.809 88.8001 262.809 88.4488V87.7488C262.538 88.0599 262.217 88.2983 261.846 88.4639C261.479 88.6245 261.053 88.7047 260.566 88.7047C260.069 88.7047 259.62 88.5994 259.219 88.3886C258.817 88.1779 258.476 87.8868 258.195 87.5155C257.919 87.1442 257.706 86.7076 257.555 86.2058C257.405 85.699 257.33 85.1545 257.33 84.5725V84.4144ZM258.722 84.5725C258.722 84.9689 258.762 85.3452 258.842 85.7015C258.928 86.0578 259.058 86.3714 259.234 86.6424C259.414 86.9133 259.643 87.1291 259.919 87.2897C260.195 87.4452 260.526 87.523 260.912 87.523C261.153 87.523 261.369 87.4954 261.56 87.4402C261.755 87.38 261.928 87.2972 262.079 87.1918C262.235 87.0864 262.373 86.961 262.493 86.8155C262.613 86.67 262.719 86.5094 262.809 86.3338V82.6004C262.719 82.4298 262.613 82.2742 262.493 82.1337C262.373 81.9932 262.235 81.8728 262.079 81.7724C261.923 81.6671 261.75 81.5868 261.56 81.5316C261.369 81.4714 261.158 81.4412 260.927 81.4412C260.536 81.4412 260.2 81.5215 259.919 81.6821C259.643 81.8427 259.414 82.061 259.234 82.337C259.058 82.6079 258.928 82.9241 258.842 83.2853C258.762 83.6416 258.722 84.018 258.722 84.4144V84.5725ZM269.7 81.6219C269.992 81.1954 270.35 80.8642 270.777 80.6283C271.203 80.3875 271.683 80.2645 272.214 80.2595C272.641 80.2595 273.027 80.3222 273.374 80.4477C273.725 80.5681 274.023 80.7588 274.269 81.0197C274.515 81.2807 274.703 81.6119 274.834 82.0133C274.969 82.4097 275.037 82.8814 275.037 83.4284V88.5542H273.645V83.4133C273.645 82.7459 273.484 82.2491 273.163 81.923C272.847 81.5968 272.393 81.4362 271.8 81.4412C271.354 81.4412 270.947 81.5516 270.581 81.7724C270.22 81.9882 269.926 82.2767 269.7 82.638V88.5542H268.308V76.9928H269.7V81.6219ZM282.327 78.438V80.4101H285.428V81.4864H282.327V85.9122C282.327 86.2284 282.368 86.4893 282.448 86.695C282.528 86.9008 282.638 87.0664 282.779 87.1918C282.919 87.3123 283.08 87.3976 283.261 87.4477C283.446 87.4979 283.642 87.523 283.848 87.523C283.998 87.523 284.154 87.5155 284.314 87.5004C284.475 87.4804 284.631 87.4578 284.781 87.4327C284.937 87.4076 285.08 87.3825 285.21 87.3574C285.346 87.3273 285.456 87.3022 285.541 87.2821L285.737 88.2682C285.622 88.3384 285.481 88.4012 285.316 88.4563C285.15 88.5065 284.969 88.5492 284.774 88.5843C284.578 88.6245 284.37 88.6546 284.149 88.6746C283.933 88.6947 283.717 88.7047 283.502 88.7047C283.14 88.7047 282.802 88.6546 282.485 88.5542C282.174 88.4488 281.903 88.2857 281.673 88.0649C281.442 87.8391 281.259 87.5506 281.123 87.1994C280.993 86.8431 280.927 86.414 280.927 85.9122V81.4864H278.79V80.4101H280.927V78.438H282.327ZM289.49 84.4144C289.49 83.8072 289.565 83.2502 289.716 82.7434C289.871 82.2316 290.089 81.7925 290.37 81.4262C290.656 81.0599 291 80.7739 291.402 80.5681C291.803 80.3624 292.252 80.2595 292.749 80.2595C293.236 80.2595 293.66 80.3423 294.021 80.5079C294.387 80.6685 294.703 80.9043 294.969 81.2154V76.9928H296.362V88.5542H295.082L295.022 87.6961C294.751 88.0273 294.427 88.2782 294.051 88.4488C293.675 88.6194 293.236 88.7047 292.734 88.7047C292.242 88.7047 291.795 88.5994 291.394 88.3886C290.998 88.1779 290.659 87.8868 290.378 87.5155C290.097 87.1442 289.879 86.7076 289.723 86.2058C289.567 85.699 289.49 85.1545 289.49 84.5725V84.4144ZM290.882 84.5725C290.882 84.9689 290.925 85.3452 291.01 85.7015C291.095 86.0578 291.226 86.3714 291.402 86.6424C291.582 86.9133 291.811 87.1291 292.086 87.2897C292.362 87.4452 292.694 87.523 293.08 87.523C293.316 87.523 293.529 87.4954 293.72 87.4402C293.911 87.385 294.084 87.3072 294.239 87.2069C294.395 87.1015 294.533 86.9786 294.653 86.8381C294.774 86.6925 294.879 86.532 294.969 86.3563V82.5778C294.789 82.2466 294.545 81.9757 294.239 81.7649C293.933 81.5491 293.552 81.4412 293.095 81.4412C292.704 81.4412 292.367 81.5215 292.086 81.6821C291.811 81.8427 291.582 82.061 291.402 82.337C291.226 82.6079 291.095 82.9241 291.01 83.2853C290.925 83.6416 290.882 84.018 290.882 84.4144V84.5725ZM305.827 88.5542C305.772 88.4488 305.727 88.3184 305.692 88.1628C305.662 88.0022 305.639 87.8366 305.624 87.666C305.484 87.8065 305.326 87.9395 305.15 88.0649C304.979 88.1904 304.789 88.3008 304.578 88.3961C304.372 88.4915 304.151 88.5667 303.916 88.6219C303.68 88.6771 303.429 88.7047 303.163 88.7047C302.731 88.7047 302.34 88.642 301.989 88.5166C301.642 88.3911 301.346 88.223 301.1 88.0123C300.86 87.7965 300.671 87.5431 300.536 87.252C300.405 86.956 300.34 86.6373 300.34 86.2961C300.34 85.8495 300.428 85.4581 300.604 85.1219C300.784 84.7857 301.038 84.5072 301.364 84.2864C301.69 84.0606 302.081 83.8925 302.538 83.7821C303 83.6717 303.514 83.6165 304.081 83.6165H305.602V82.9767C305.602 82.7309 305.556 82.5101 305.466 82.3144C305.376 82.1187 305.248 81.9531 305.082 81.8176C304.917 81.6771 304.713 81.5692 304.473 81.4939C304.237 81.4187 303.971 81.381 303.675 81.381C303.399 81.381 303.15 81.4162 302.929 81.4864C302.714 81.5567 302.531 81.6495 302.38 81.7649C302.229 81.8803 302.112 82.0183 302.026 82.1789C301.946 82.3344 301.906 82.4975 301.906 82.6681H300.506C300.511 82.3721 300.586 82.081 300.732 81.795C300.882 81.509 301.095 81.2531 301.371 81.0273C301.652 80.7964 301.991 80.6108 302.388 80.4703C302.789 80.3298 303.243 80.2595 303.75 80.2595C304.212 80.2595 304.641 80.3172 305.037 80.4326C305.433 80.543 305.775 80.7136 306.061 80.9445C306.352 81.1703 306.58 81.4538 306.746 81.795C306.911 82.1362 306.994 82.5352 306.994 82.9918V86.7778C306.994 87.0488 307.019 87.3373 307.069 87.6434C307.119 87.9445 307.19 88.208 307.28 88.4338V88.5542H305.827ZM303.366 87.4929C303.637 87.4929 303.89 87.4578 304.126 87.3875C304.362 87.3173 304.575 87.2244 304.766 87.109C304.962 86.9936 305.13 86.8631 305.27 86.7176C305.411 86.5671 305.521 86.4115 305.602 86.251V84.6026H304.307C303.494 84.6026 302.862 84.723 302.41 84.9639C301.959 85.2047 301.733 85.5836 301.733 86.1004C301.733 86.3011 301.765 86.4868 301.831 86.6574C301.901 86.828 302.004 86.9761 302.139 87.1015C302.275 87.2219 302.445 87.3173 302.651 87.3875C302.857 87.4578 303.095 87.4929 303.366 87.4929ZM314.495 78.438V80.4101H317.596V81.4864H314.495V85.9122C314.495 86.2284 314.535 86.4893 314.615 86.695C314.696 86.9008 314.806 87.0664 314.947 87.1918C315.087 87.3123 315.248 87.3976 315.428 87.4477C315.614 87.4979 315.81 87.523 316.016 87.523C316.166 87.523 316.322 87.5155 316.482 87.5004C316.643 87.4804 316.798 87.4578 316.949 87.4327C317.104 87.4076 317.247 87.3825 317.378 87.3574C317.513 87.3273 317.624 87.3022 317.709 87.2821L317.905 88.2682C317.789 88.3384 317.649 88.4012 317.483 88.4563C317.318 88.5065 317.137 88.5492 316.941 88.5843C316.746 88.6245 316.537 88.6546 316.317 88.6746C316.101 88.6947 315.885 88.7047 315.669 88.7047C315.308 88.7047 314.969 88.6546 314.653 88.5542C314.342 88.4488 314.071 88.2857 313.84 88.0649C313.609 87.8391 313.426 87.5506 313.291 87.1994C313.16 86.8431 313.095 86.414 313.095 85.9122V81.4864H310.957V80.4101H313.095V78.438H314.495ZM327.273 88.5542C327.217 88.4488 327.172 88.3184 327.137 88.1628C327.107 88.0022 327.084 87.8366 327.069 87.666C326.929 87.8065 326.771 87.9395 326.595 88.0649C326.424 88.1904 326.234 88.3008 326.023 88.3961C325.817 88.4915 325.597 88.5667 325.361 88.6219C325.125 88.6771 324.874 88.7047 324.608 88.7047C324.176 88.7047 323.785 88.642 323.434 88.5166C323.088 88.3911 322.791 88.223 322.546 88.0123C322.305 87.7965 322.117 87.5431 321.981 87.252C321.851 86.956 321.785 86.6373 321.785 86.2961C321.785 85.8495 321.873 85.4581 322.049 85.1219C322.229 84.7857 322.483 84.5072 322.809 84.2864C323.135 84.0606 323.527 83.8925 323.983 83.7821C324.445 83.6717 324.959 83.6165 325.526 83.6165H327.047V82.9767C327.047 82.7309 327.002 82.5101 326.911 82.3144C326.821 82.1187 326.693 81.9531 326.527 81.8176C326.362 81.6771 326.159 81.5692 325.918 81.4939C325.682 81.4187 325.416 81.381 325.12 81.381C324.844 81.381 324.595 81.4162 324.375 81.4864C324.159 81.5567 323.976 81.6495 323.825 81.7649C323.675 81.8803 323.557 82.0183 323.471 82.1789C323.391 82.3344 323.351 82.4975 323.351 82.6681H321.951C321.956 82.3721 322.031 82.081 322.177 81.795C322.327 81.509 322.541 81.2531 322.817 81.0273C323.098 80.7964 323.436 80.6108 323.833 80.4703C324.234 80.3298 324.688 80.2595 325.195 80.2595C325.657 80.2595 326.086 80.3172 326.482 80.4326C326.879 80.543 327.22 80.7136 327.506 80.9445C327.797 81.1703 328.025 81.4538 328.191 81.795C328.356 82.1362 328.439 82.5352 328.439 82.9918V86.7778C328.439 87.0488 328.464 87.3373 328.514 87.6434C328.565 87.9445 328.635 88.208 328.725 88.4338V88.5542H327.273ZM324.811 87.4929C325.082 87.4929 325.336 87.4578 325.571 87.3875C325.807 87.3173 326.021 87.2244 326.211 87.109C326.407 86.9936 326.575 86.8631 326.716 86.7176C326.856 86.5671 326.966 86.4115 327.047 86.251V84.6026H325.752C324.939 84.6026 324.307 84.723 323.855 84.9639C323.404 85.2047 323.178 85.5836 323.178 86.1004C323.178 86.3011 323.21 86.4868 323.276 86.6574C323.346 86.828 323.449 86.9761 323.584 87.1015C323.72 87.2219 323.89 87.3173 324.096 87.3875C324.302 87.4578 324.54 87.4929 324.811 87.4929ZM335.067 87.651C335.067 87.5004 335.09 87.3599 335.135 87.2295C335.185 87.099 335.255 86.9861 335.346 86.8907C335.436 86.7904 335.549 86.7126 335.684 86.6574C335.82 86.6022 335.978 86.5746 336.159 86.5746C336.339 86.5746 336.497 86.6022 336.633 86.6574C336.773 86.7126 336.889 86.7904 336.979 86.8907C337.074 86.9861 337.145 87.099 337.19 87.2295C337.24 87.3599 337.265 87.5004 337.265 87.651C337.265 87.7965 337.24 87.9345 337.19 88.0649C337.145 88.1904 337.074 88.3008 336.979 88.3961C336.889 88.4915 336.773 88.5642 336.633 88.6144C336.497 88.6696 336.339 88.6972 336.159 88.6972C335.978 88.6972 335.82 88.6696 335.684 88.6144C335.549 88.5642 335.436 88.4915 335.346 88.3961C335.255 88.3008 335.185 88.1904 335.135 88.0649C335.09 87.9345 335.067 87.7965 335.067 87.651ZM346.836 87.5757C347.087 87.5757 347.33 87.5356 347.566 87.4553C347.807 87.375 348.02 87.2646 348.206 87.1241C348.391 86.9786 348.54 86.8105 348.65 86.6198C348.765 86.4241 348.826 86.2133 348.831 85.9875H350.148C350.143 86.3488 350.047 86.695 349.862 87.0262C349.681 87.3524 349.438 87.6409 349.132 87.8918C348.826 88.1377 348.474 88.3359 348.078 88.4865C347.681 88.632 347.267 88.7047 346.836 88.7047C346.219 88.7047 345.679 88.5943 345.218 88.3736C344.756 88.1528 344.37 87.8567 344.058 87.4854C343.752 87.109 343.522 86.6775 343.366 86.1907C343.21 85.699 343.133 85.1821 343.133 84.6402V84.3241C343.133 83.7871 343.21 83.2728 343.366 82.781C343.522 82.2893 343.752 81.8577 344.058 81.4864C344.37 81.1101 344.756 80.8115 345.218 80.5907C345.679 80.3699 346.219 80.2595 346.836 80.2595C347.318 80.2595 347.759 80.3373 348.161 80.4929C348.567 80.6434 348.916 80.8516 349.207 81.1176C349.503 81.3785 349.734 81.6896 349.899 82.0509C350.065 82.4122 350.148 82.7986 350.148 83.2101H348.831C348.826 82.9642 348.77 82.7334 348.665 82.5176C348.565 82.2968 348.427 82.1036 348.251 81.938C348.075 81.7724 347.865 81.642 347.619 81.5466C347.378 81.4513 347.117 81.4036 346.836 81.4036C346.404 81.4036 346.041 81.4914 345.745 81.6671C345.453 81.8377 345.218 82.0635 345.037 82.3445C344.856 82.6205 344.726 82.9316 344.646 83.2778C344.57 83.6241 344.533 83.9728 344.533 84.3241V84.6402C344.533 84.9965 344.57 85.3502 344.646 85.7015C344.726 86.0477 344.854 86.3614 345.029 86.6424C345.21 86.9183 345.446 87.1442 345.737 87.3198C346.033 87.4904 346.399 87.5757 346.836 87.5757ZM353.697 84.4069C353.697 83.8198 353.782 83.2753 353.953 82.7735C354.124 82.2667 354.367 81.8276 354.683 81.4563C355.004 81.085 355.393 80.7939 355.85 80.5832C356.306 80.3674 356.821 80.2595 357.393 80.2595C357.97 80.2595 358.487 80.3674 358.943 80.5832C359.405 80.7939 359.794 81.085 360.11 81.4563C360.431 81.8276 360.677 82.2667 360.848 82.7735C361.018 83.2753 361.104 83.8198 361.104 84.4069V84.5725C361.104 85.1596 361.018 85.704 360.848 86.2058C360.677 86.7076 360.431 87.1442 360.11 87.5155C359.794 87.8868 359.408 88.1779 358.951 88.3886C358.494 88.5994 357.98 88.7047 357.408 88.7047C356.831 88.7047 356.312 88.5994 355.85 88.3886C355.393 88.1779 355.004 87.8868 354.683 87.5155C354.367 87.1442 354.124 86.7076 353.953 86.2058C353.782 85.704 353.697 85.1596 353.697 84.5725V84.4069ZM355.09 84.5725C355.09 84.9739 355.137 85.3578 355.233 85.7241C355.328 86.0854 355.471 86.404 355.662 86.68C355.857 86.956 356.101 87.1743 356.392 87.3348C356.683 87.4954 357.022 87.5757 357.408 87.5757C357.789 87.5757 358.123 87.4954 358.409 87.3348C358.7 87.1743 358.941 86.956 359.132 86.68C359.327 86.404 359.473 86.0854 359.568 85.7241C359.664 85.3578 359.711 84.9739 359.711 84.5725V84.4069C359.711 84.0104 359.661 83.6316 359.561 83.2703C359.465 82.904 359.32 82.5828 359.124 82.3068C358.933 82.0309 358.693 81.8126 358.401 81.652C358.115 81.4864 357.779 81.4036 357.393 81.4036C357.006 81.4036 356.67 81.4864 356.384 81.652C356.098 81.8126 355.857 82.0309 355.662 82.3068C355.471 82.5828 355.328 82.904 355.233 83.2703C355.137 83.6316 355.09 84.0104 355.09 84.4069V84.5725ZM365.451 80.4101L365.489 81.1778C365.654 80.8918 365.87 80.6685 366.136 80.5079C366.407 80.3473 366.733 80.2645 367.114 80.2595C367.862 80.2595 368.361 80.5506 368.612 81.1326C368.773 80.8717 368.984 80.6635 369.245 80.5079C369.51 80.3473 369.832 80.2645 370.208 80.2595C370.805 80.2595 371.264 80.4427 371.585 80.809C371.907 81.1753 372.067 81.7298 372.067 82.4724V88.5542H370.742V82.4574C370.742 81.7749 370.429 81.4362 369.802 81.4412C369.636 81.4412 369.493 81.4638 369.372 81.509C369.252 81.5541 369.152 81.6169 369.071 81.6972C368.991 81.7724 368.928 81.8628 368.883 81.9681C368.838 82.0685 368.808 82.1739 368.793 82.2843V88.5542H367.468V82.4499C367.468 82.1237 367.395 81.8728 367.25 81.6972C367.104 81.5215 366.874 81.4362 366.557 81.4412C366.266 81.4412 366.041 81.499 365.88 81.6144C365.719 81.7298 365.601 81.8828 365.526 82.0735V88.5542H364.201V80.4101H365.451ZM377.37 89.4951H376.121L380.697 77.595H381.939L377.37 89.4951ZM391.668 86.394C391.668 86.2284 391.636 86.0803 391.57 85.9499C391.505 85.8144 391.395 85.6915 391.239 85.5811C391.084 85.4707 390.878 85.3703 390.622 85.28C390.366 85.1846 390.047 85.0993 389.666 85.0241C389.199 84.9287 388.773 84.8133 388.386 84.6778C388.005 84.5423 387.676 84.3818 387.4 84.1961C387.129 84.0054 386.919 83.7846 386.768 83.5337C386.618 83.2778 386.542 82.9818 386.542 82.6456C386.542 82.3144 386.62 82.0058 386.776 81.7197C386.931 81.4287 387.149 81.1753 387.43 80.9595C387.711 80.7437 388.045 80.5731 388.432 80.4477C388.823 80.3222 389.252 80.2595 389.719 80.2595C390.22 80.2595 390.672 80.3247 391.074 80.4552C391.475 80.5857 391.816 80.7663 392.097 80.9972C392.378 81.228 392.594 81.499 392.744 81.8101C392.9 82.1162 392.978 82.4473 392.978 82.8036H391.585C391.585 82.628 391.54 82.4574 391.45 82.2918C391.36 82.1212 391.234 81.9706 391.074 81.8402C390.913 81.7097 390.717 81.6043 390.486 81.524C390.261 81.4438 390.005 81.4036 389.719 81.4036C389.423 81.4036 389.162 81.4362 388.936 81.5015C388.715 81.5667 388.529 81.6545 388.379 81.7649C388.233 81.8753 388.123 82.0033 388.048 82.1488C387.972 82.2943 387.935 82.4448 387.935 82.6004C387.935 82.761 387.965 82.904 388.025 83.0294C388.085 83.1549 388.188 83.2678 388.334 83.3681C388.484 83.4685 388.682 83.5588 388.928 83.6391C389.179 83.7194 389.495 83.7972 389.877 83.8724C390.379 83.9778 390.828 84.1008 391.224 84.2413C391.62 84.3767 391.954 84.5423 392.225 84.738C392.496 84.9287 392.702 85.152 392.842 85.4079C392.988 85.6639 393.061 85.9599 393.061 86.2961C393.061 86.6574 392.978 86.9861 392.812 87.2821C392.652 87.5782 392.426 87.8316 392.135 88.0424C391.844 88.2531 391.495 88.4162 391.089 88.5316C390.682 88.647 390.238 88.7047 389.756 88.7047C389.204 88.7047 388.713 88.632 388.281 88.4865C387.849 88.3359 387.483 88.1402 387.182 87.8994C386.886 87.6535 386.658 87.37 386.497 87.0488C386.342 86.7277 386.264 86.394 386.264 86.0477H387.656C387.676 86.3338 387.752 86.5746 387.882 86.7703C388.018 86.966 388.183 87.1241 388.379 87.2445C388.58 87.3649 388.8 87.4502 389.041 87.5004C389.282 87.5506 389.52 87.5757 389.756 87.5757C390.343 87.5757 390.808 87.4678 391.149 87.252C391.49 87.0363 391.663 86.7502 391.668 86.394ZM400.276 78.438V80.4101H403.377V81.4864H400.276V85.9122C400.276 86.2284 400.316 86.4893 400.396 86.695C400.476 86.9008 400.587 87.0664 400.727 87.1918C400.868 87.3123 401.028 87.3976 401.209 87.4477C401.395 87.4979 401.59 87.523 401.796 87.523C401.947 87.523 402.102 87.5155 402.263 87.5004C402.423 87.4804 402.579 87.4578 402.729 87.4327C402.885 87.4076 403.028 87.3825 403.158 87.3574C403.294 87.3273 403.404 87.3022 403.49 87.2821L403.685 88.2682C403.57 88.3384 403.429 88.4012 403.264 88.4563C403.098 88.5065 402.918 88.5492 402.722 88.5843C402.526 88.6245 402.318 88.6546 402.097 88.6746C401.881 88.6947 401.666 88.7047 401.45 88.7047C401.089 88.7047 400.75 88.6546 400.434 88.5542C400.123 88.4488 399.852 88.2857 399.621 88.0649C399.39 87.8391 399.207 87.5506 399.071 87.1994C398.941 86.8431 398.876 86.414 398.876 85.9122V81.4864H396.738V80.4101H398.876V78.438H400.276ZM413.053 88.5542C412.998 88.4488 412.953 88.3184 412.918 88.1628C412.887 88.0022 412.865 87.8366 412.85 87.666C412.709 87.8065 412.551 87.9395 412.376 88.0649C412.205 88.1904 412.014 88.3008 411.804 88.3961C411.598 88.4915 411.377 88.5667 411.141 88.6219C410.905 88.6771 410.654 88.7047 410.389 88.7047C409.957 88.7047 409.566 88.642 409.214 88.5166C408.868 88.3911 408.572 88.223 408.326 88.0123C408.085 87.7965 407.897 87.5431 407.762 87.252C407.631 86.956 407.566 86.6373 407.566 86.2961C407.566 85.8495 407.654 85.4581 407.829 85.1219C408.01 84.7857 408.263 84.5072 408.59 84.2864C408.916 84.0606 409.307 83.8925 409.764 83.7821C410.225 83.6717 410.74 83.6165 411.307 83.6165H412.827V82.9767C412.827 82.7309 412.782 82.5101 412.692 82.3144C412.601 82.1187 412.473 81.9531 412.308 81.8176C412.142 81.6771 411.939 81.5692 411.698 81.4939C411.462 81.4187 411.196 81.381 410.9 81.381C410.624 81.381 410.376 81.4162 410.155 81.4864C409.939 81.5567 409.756 81.6495 409.606 81.7649C409.455 81.8803 409.337 82.0183 409.252 82.1789C409.172 82.3344 409.132 82.4975 409.132 82.6681H407.732C407.737 82.3721 407.812 82.081 407.957 81.795C408.108 81.509 408.321 81.2531 408.597 81.0273C408.878 80.7964 409.217 80.6108 409.613 80.4703C410.015 80.3298 410.469 80.2595 410.976 80.2595C411.437 80.2595 411.866 80.3172 412.263 80.4326C412.659 80.543 413 80.7136 413.286 80.9445C413.577 81.1703 413.806 81.4538 413.971 81.795C414.137 82.1362 414.22 82.5352 414.22 82.9918V86.7778C414.22 87.0488 414.245 87.3373 414.295 87.6434C414.345 87.9445 414.415 88.208 414.506 88.4338V88.5542H413.053ZM410.592 87.4929C410.863 87.4929 411.116 87.4578 411.352 87.3875C411.588 87.3173 411.801 87.2244 411.992 87.109C412.187 86.9936 412.356 86.8631 412.496 86.7176C412.637 86.5671 412.747 86.4115 412.827 86.251V84.6026H411.533C410.72 84.6026 410.087 84.723 409.636 84.9639C409.184 85.2047 408.958 85.5836 408.958 86.1004C408.958 86.3011 408.991 86.4868 409.056 86.6574C409.127 86.828 409.229 86.9761 409.365 87.1015C409.5 87.2219 409.671 87.3173 409.877 87.3875C410.082 87.4578 410.321 87.4929 410.592 87.4929ZM421.721 78.438V80.4101H424.822V81.4864H421.721V85.9122C421.721 86.2284 421.761 86.4893 421.841 86.695C421.922 86.9008 422.032 87.0664 422.172 87.1918C422.313 87.3123 422.473 87.3976 422.654 87.4477C422.84 87.4979 423.036 87.523 423.241 87.523C423.392 87.523 423.547 87.5155 423.708 87.5004C423.868 87.4804 424.024 87.4578 424.175 87.4327C424.33 87.4076 424.473 87.3825 424.604 87.3574C424.739 87.3273 424.849 87.3022 424.935 87.2821L425.131 88.2682C425.015 88.3384 424.875 88.4012 424.709 88.4563C424.543 88.5065 424.363 88.5492 424.167 88.5843C423.971 88.6245 423.763 88.6546 423.542 88.6746C423.327 88.6947 423.111 88.7047 422.895 88.7047C422.534 88.7047 422.195 88.6546 421.879 88.5542C421.568 88.4488 421.297 88.2857 421.066 88.0649C420.835 87.8391 420.652 87.5506 420.516 87.1994C420.386 86.8431 420.321 86.414 420.321 85.9122V81.4864H418.183V80.4101H420.321V78.438H421.721ZM429.365 80.4101H433.527V87.3499H436.184V88.5542H429.365V87.3499H432.135V81.6219H429.365V80.4101ZM431.954 78.2724C431.954 78.0416 432.022 77.8484 432.157 77.6928C432.298 77.5323 432.509 77.452 432.79 77.452C433.066 77.452 433.274 77.5323 433.414 77.6928C433.555 77.8484 433.625 78.0416 433.625 78.2724C433.625 78.4982 433.555 78.6864 433.414 78.8369C433.274 78.9875 433.066 79.0627 432.79 79.0627C432.509 79.0627 432.298 78.9875 432.157 78.8369C432.022 78.6864 431.954 78.4982 431.954 78.2724ZM443.339 87.5757C443.59 87.5757 443.833 87.5356 444.069 87.4553C444.31 87.375 444.523 87.2646 444.709 87.1241C444.895 86.9786 445.043 86.8105 445.153 86.6198C445.268 86.4241 445.329 86.2133 445.334 85.9875H446.651C446.646 86.3488 446.551 86.695 446.365 87.0262C446.184 87.3524 445.941 87.6409 445.635 87.8918C445.329 88.1377 444.977 88.3359 444.581 88.4865C444.185 88.632 443.771 88.7047 443.339 88.7047C442.722 88.7047 442.182 88.5943 441.721 88.3736C441.259 88.1528 440.873 87.8567 440.562 87.4854C440.256 87.109 440.025 86.6775 439.869 86.1907C439.714 85.699 439.636 85.1821 439.636 84.6402V84.3241C439.636 83.7871 439.714 83.2728 439.869 82.781C440.025 82.2893 440.256 81.8577 440.562 81.4864C440.873 81.1101 441.259 80.8115 441.721 80.5907C442.182 80.3699 442.722 80.2595 443.339 80.2595C443.821 80.2595 444.262 80.3373 444.664 80.4929C445.07 80.6434 445.419 80.8516 445.71 81.1176C446.006 81.3785 446.237 81.6896 446.403 82.0509C446.568 82.4122 446.651 82.7986 446.651 83.2101H445.334C445.329 82.9642 445.273 82.7334 445.168 82.5176C445.068 82.2968 444.93 82.1036 444.754 81.938C444.578 81.7724 444.368 81.642 444.122 81.5466C443.881 81.4513 443.62 81.4036 443.339 81.4036C442.908 81.4036 442.544 81.4914 442.248 81.6671C441.957 81.8377 441.721 82.0635 441.54 82.3445C441.359 82.6205 441.229 82.9316 441.149 83.2778C441.073 83.6241 441.036 83.9728 441.036 84.3241V84.6402C441.036 84.9965 441.073 85.3502 441.149 85.7015C441.229 86.0477 441.357 86.3614 441.533 86.6424C441.713 86.9183 441.949 87.1442 442.24 87.3198C442.536 87.4904 442.902 87.5757 443.339 87.5757ZM452.428 89.4951H451.179L455.755 77.595H456.997L452.428 89.4951ZM461.533 76.9928H465.695V87.3499H468.352V88.5542H461.533V87.3499H464.302V78.2047H461.533V76.9928ZM478.909 84.5725C478.909 85.1545 478.839 85.699 478.698 86.2058C478.558 86.7076 478.352 87.1442 478.081 87.5155C477.81 87.8868 477.474 88.1779 477.072 88.3886C476.676 88.5994 476.222 88.7047 475.71 88.7047C475.213 88.7047 474.774 88.6245 474.393 88.4639C474.016 88.3033 473.693 88.0725 473.422 87.7714V91.6854H472.029V80.4101H473.301L473.369 81.2982C473.64 80.962 473.966 80.7061 474.348 80.5305C474.734 80.3498 475.181 80.2595 475.687 80.2595C476.209 80.2595 476.671 80.3624 477.072 80.5681C477.474 80.7739 477.81 81.0599 478.081 81.4262C478.352 81.7925 478.558 82.2316 478.698 82.7434C478.839 83.2502 478.909 83.8072 478.909 84.4144V84.5725ZM477.516 84.4144C477.516 84.018 477.471 83.6416 477.381 83.2853C477.296 82.9241 477.16 82.6079 476.975 82.337C476.794 82.061 476.563 81.8427 476.282 81.6821C476.001 81.5215 475.665 81.4412 475.273 81.4412C474.827 81.4412 474.45 81.5466 474.144 81.7574C473.843 81.9631 473.602 82.2291 473.422 82.5552V86.4768C473.602 86.7979 473.843 87.0614 474.144 87.2671C474.445 87.4678 474.827 87.5682 475.288 87.5682C475.675 87.5682 476.009 87.4879 476.29 87.3273C476.571 87.1617 476.801 86.9409 476.982 86.6649C477.163 86.389 477.296 86.0703 477.381 85.709C477.471 85.3477 477.516 84.9689 477.516 84.5725V84.4144ZM483.399 80.4101L483.437 81.1778C483.602 80.8918 483.818 80.6685 484.084 80.5079C484.355 80.3473 484.681 80.2645 485.063 80.2595C485.81 80.2595 486.31 80.5506 486.561 81.1326C486.721 80.8717 486.932 80.6635 487.193 80.5079C487.459 80.3473 487.78 80.2645 488.156 80.2595C488.753 80.2595 489.213 80.4427 489.534 80.809C489.855 81.1753 490.015 81.7298 490.015 82.4724V88.5542H488.691V82.4574C488.691 81.7749 488.377 81.4362 487.75 81.4412C487.584 81.4412 487.441 81.4638 487.321 81.509C487.2 81.5541 487.1 81.6169 487.02 81.6972C486.939 81.7724 486.877 81.8628 486.831 81.9681C486.786 82.0685 486.756 82.1739 486.741 82.2843V88.5542H485.416V82.4499C485.416 82.1237 485.344 81.8728 485.198 81.6972C485.053 81.5215 484.822 81.4362 484.506 81.4412C484.215 81.4412 483.989 81.499 483.828 81.6144C483.668 81.7298 483.55 81.8828 483.474 82.0735V88.5542H482.15V80.4101H483.399ZM495.319 89.4951H494.069L498.645 77.595H499.887L495.319 89.4951ZM54.0748 104.993H58.2372V115.35H60.8942V116.554H54.0748V115.35H56.8448V106.205H54.0748V104.993ZM69.863 115.433C69.5921 115.834 69.2534 116.148 68.8469 116.374C68.4405 116.594 67.9713 116.705 67.4394 116.705C67.0128 116.705 66.6265 116.64 66.2802 116.509C65.934 116.374 65.6379 116.165 65.392 115.884C65.1462 115.603 64.9555 115.247 64.82 114.815C64.6895 114.379 64.6243 113.857 64.6243 113.25V108.41H66.0168V113.265C66.0168 113.707 66.0519 114.073 66.1222 114.364C66.1924 114.655 66.2978 114.888 66.4383 115.064C66.5788 115.234 66.7494 115.355 66.9501 115.425C67.1559 115.495 67.3917 115.531 67.6576 115.531C68.2247 115.531 68.6813 115.415 69.0276 115.184C69.3788 114.953 69.6397 114.642 69.8104 114.251V108.41H71.2104V116.554H69.9458L69.863 115.433ZM75.9415 108.41L75.9791 109.178C76.1447 108.892 76.3605 108.668 76.6264 108.508C76.8974 108.347 77.2236 108.265 77.6049 108.26C78.3526 108.26 78.8519 108.551 79.1028 109.133C79.2634 108.872 79.4741 108.663 79.7351 108.508C80.001 108.347 80.3222 108.265 80.6985 108.26C81.2957 108.26 81.7548 108.443 82.0759 108.809C82.3971 109.175 82.5577 109.73 82.5577 110.472V116.554H81.2329V110.457C81.2329 109.775 80.9193 109.436 80.2921 109.441C80.1265 109.441 79.9835 109.464 79.863 109.509C79.7426 109.554 79.6422 109.617 79.562 109.697C79.4817 109.772 79.4189 109.863 79.3738 109.968C79.3286 110.068 79.2985 110.174 79.2835 110.284V116.554H77.9587V110.45C77.9587 110.124 77.886 109.873 77.7404 109.697C77.5949 109.522 77.3641 109.436 77.048 109.441C76.7569 109.441 76.5311 109.499 76.3705 109.614C76.21 109.73 76.092 109.883 76.0168 110.074V116.554H74.692V108.41H75.9415ZM86.2426 108.41H90.405V115.35H93.062V116.554H86.2426V115.35H89.0125V109.622H86.2426V108.41ZM88.8318 106.272C88.8318 106.042 88.8996 105.848 89.035 105.693C89.1756 105.532 89.3863 105.452 89.6673 105.452C89.9433 105.452 90.1515 105.532 90.292 105.693C90.4326 105.848 90.5028 106.042 90.5028 106.272C90.5028 106.498 90.4326 106.686 90.292 106.837C90.1515 106.987 89.9433 107.063 89.6673 107.063C89.3863 107.063 89.1756 106.987 89.035 106.837C88.8996 106.686 88.8318 106.498 88.8318 106.272ZM97.9963 108.41L98.0942 109.614C98.3902 109.193 98.754 108.864 99.1856 108.628C99.6171 108.387 100.099 108.265 100.631 108.26C101.057 108.26 101.444 108.32 101.79 108.44C102.141 108.561 102.44 108.749 102.686 109.005C102.931 109.261 103.12 109.587 103.25 109.983C103.386 110.375 103.453 110.841 103.453 111.383V116.554H102.061V111.413C102.061 111.052 102.021 110.746 101.94 110.495C101.86 110.244 101.74 110.041 101.579 109.885C101.424 109.73 101.23 109.617 101 109.547C100.774 109.476 100.513 109.441 100.217 109.441C99.7501 109.441 99.3386 109.559 98.9823 109.795C98.6311 110.026 98.3501 110.332 98.1393 110.713V116.554H96.7468V108.41H97.9963ZM112.821 116.554C112.766 116.449 112.721 116.318 112.686 116.163C112.655 116.002 112.633 115.837 112.618 115.666C112.477 115.807 112.319 115.939 112.144 116.065C111.973 116.19 111.782 116.301 111.572 116.396C111.366 116.491 111.145 116.567 110.909 116.622C110.673 116.677 110.422 116.705 110.157 116.705C109.725 116.705 109.334 116.642 108.982 116.517C108.636 116.391 108.34 116.223 108.094 116.012C107.853 115.796 107.665 115.543 107.53 115.252C107.399 114.956 107.334 114.637 107.334 114.296C107.334 113.85 107.422 113.458 107.597 113.122C107.778 112.786 108.031 112.507 108.358 112.286C108.684 112.061 109.075 111.893 109.532 111.782C109.993 111.672 110.508 111.617 111.075 111.617H112.595V110.977C112.595 110.731 112.55 110.51 112.46 110.314C112.369 110.119 112.241 109.953 112.076 109.818C111.91 109.677 111.707 109.569 111.466 109.494C111.23 109.419 110.964 109.381 110.668 109.381C110.392 109.381 110.144 109.416 109.923 109.486C109.707 109.557 109.524 109.649 109.374 109.765C109.223 109.88 109.105 110.018 109.02 110.179C108.94 110.334 108.9 110.498 108.9 110.668H107.5C107.505 110.372 107.58 110.081 107.725 109.795C107.876 109.509 108.089 109.253 108.365 109.027C108.646 108.796 108.985 108.611 109.381 108.47C109.783 108.33 110.237 108.26 110.744 108.26C111.205 108.26 111.634 108.317 112.031 108.433C112.427 108.543 112.768 108.714 113.054 108.944C113.345 109.17 113.574 109.454 113.739 109.795C113.905 110.136 113.988 110.535 113.988 110.992V114.778C113.988 115.049 114.013 115.337 114.063 115.643C114.113 115.945 114.183 116.208 114.274 116.434V116.554H112.821ZM110.36 115.493C110.631 115.493 110.884 115.458 111.12 115.388C111.356 115.317 111.569 115.224 111.76 115.109C111.955 114.994 112.124 114.863 112.264 114.718C112.405 114.567 112.515 114.412 112.595 114.251V112.603H111.301C110.488 112.603 109.855 112.723 109.404 112.964C108.952 113.205 108.726 113.584 108.726 114.1C108.726 114.301 108.759 114.487 108.824 114.657C108.895 114.828 108.997 114.976 109.133 115.102C109.268 115.222 109.439 115.317 109.645 115.388C109.85 115.458 110.089 115.493 110.36 115.493ZM121.489 106.438V108.41H124.59V109.486H121.489V113.912C121.489 114.228 121.529 114.489 121.609 114.695C121.69 114.901 121.8 115.066 121.94 115.192C122.081 115.312 122.241 115.398 122.422 115.448C122.608 115.498 122.803 115.523 123.009 115.523C123.16 115.523 123.315 115.515 123.476 115.5C123.636 115.48 123.792 115.458 123.943 115.433C124.098 115.408 124.241 115.383 124.372 115.357C124.507 115.327 124.617 115.302 124.703 115.282L124.898 116.268C124.783 116.338 124.643 116.401 124.477 116.456C124.311 116.507 124.131 116.549 123.935 116.584C123.739 116.624 123.531 116.655 123.31 116.675C123.095 116.695 122.879 116.705 122.663 116.705C122.302 116.705 121.963 116.655 121.647 116.554C121.336 116.449 121.065 116.286 120.834 116.065C120.603 115.839 120.42 115.551 120.284 115.199C120.154 114.843 120.089 114.414 120.089 113.912V109.486H117.951V108.41H120.089V106.438H121.489ZM129.133 108.41H133.295V115.35H135.952V116.554H129.133V115.35H131.903V109.622H129.133V108.41ZM131.722 106.272C131.722 106.042 131.79 105.848 131.925 105.693C132.066 105.532 132.277 105.452 132.558 105.452C132.834 105.452 133.042 105.532 133.182 105.693C133.323 105.848 133.393 106.042 133.393 106.272C133.393 106.498 133.323 106.686 133.182 106.837C133.042 106.987 132.834 107.063 132.558 107.063C132.277 107.063 132.066 106.987 131.925 106.837C131.79 106.686 131.722 106.498 131.722 106.272ZM145.726 112.332H139.968V111.187H145.726V112.332ZM157.232 112.572C157.232 113.155 157.162 113.699 157.021 114.206C156.881 114.708 156.675 115.144 156.404 115.515C156.133 115.887 155.797 116.178 155.395 116.389C154.999 116.599 154.545 116.705 154.033 116.705C153.536 116.705 153.097 116.624 152.716 116.464C152.339 116.303 152.016 116.072 151.745 115.771V119.685H150.352V108.41H151.624L151.692 109.298C151.963 108.962 152.289 108.706 152.67 108.53C153.057 108.35 153.503 108.26 154.01 108.26C154.532 108.26 154.994 108.362 155.395 108.568C155.797 108.774 156.133 109.06 156.404 109.426C156.675 109.793 156.881 110.232 157.021 110.743C157.162 111.25 157.232 111.807 157.232 112.414V112.572ZM155.839 112.414C155.839 112.018 155.794 111.642 155.704 111.285C155.619 110.924 155.483 110.608 155.297 110.337C155.117 110.061 154.886 109.843 154.605 109.682C154.324 109.522 153.988 109.441 153.596 109.441C153.15 109.441 152.773 109.547 152.467 109.757C152.166 109.963 151.925 110.229 151.745 110.555V114.477C151.925 114.798 152.166 115.061 152.467 115.267C152.768 115.468 153.15 115.568 153.611 115.568C153.998 115.568 154.331 115.488 154.612 115.327C154.893 115.162 155.124 114.941 155.305 114.665C155.486 114.389 155.619 114.07 155.704 113.709C155.794 113.348 155.839 112.969 155.839 112.572V112.414ZM166.419 108.26C166.549 108.26 166.685 108.265 166.825 108.275C166.966 108.28 167.099 108.292 167.224 108.312C167.355 108.327 167.473 108.347 167.578 108.372C167.688 108.398 167.779 108.425 167.849 108.455L167.661 109.818C167.39 109.757 167.131 109.715 166.886 109.69C166.645 109.66 166.391 109.644 166.125 109.644C165.473 109.644 164.944 109.793 164.537 110.089C164.136 110.385 163.84 110.799 163.649 111.331V116.554H162.249V108.41H163.574L163.641 109.705C163.973 109.258 164.369 108.907 164.831 108.651C165.297 108.39 165.827 108.26 166.419 108.26ZM171.413 112.407C171.413 111.82 171.499 111.275 171.669 110.774C171.84 110.267 172.083 109.828 172.399 109.456C172.721 109.085 173.11 108.794 173.566 108.583C174.023 108.367 174.537 108.26 175.109 108.26C175.686 108.26 176.203 108.367 176.66 108.583C177.121 108.794 177.51 109.085 177.826 109.456C178.148 109.828 178.393 110.267 178.564 110.774C178.735 111.275 178.82 111.82 178.82 112.407V112.572C178.82 113.16 178.735 113.704 178.564 114.206C178.393 114.708 178.148 115.144 177.826 115.515C177.51 115.887 177.124 116.178 176.667 116.389C176.211 116.599 175.696 116.705 175.124 116.705C174.547 116.705 174.028 116.599 173.566 116.389C173.11 116.178 172.721 115.887 172.399 115.515C172.083 115.144 171.84 114.708 171.669 114.206C171.499 113.704 171.413 113.16 171.413 112.572V112.407ZM172.806 112.572C172.806 112.974 172.854 113.358 172.949 113.724C173.044 114.085 173.187 114.404 173.378 114.68C173.574 114.956 173.817 115.174 174.108 115.335C174.399 115.495 174.738 115.576 175.124 115.576C175.506 115.576 175.839 115.495 176.125 115.335C176.416 115.174 176.657 114.956 176.848 114.68C177.044 114.404 177.189 114.085 177.284 113.724C177.38 113.358 177.427 112.974 177.427 112.572V112.407C177.427 112.01 177.377 111.632 177.277 111.27C177.182 110.904 177.036 110.583 176.84 110.307C176.65 110.031 176.409 109.813 176.118 109.652C175.832 109.486 175.496 109.404 175.109 109.404C174.723 109.404 174.387 109.486 174.101 109.652C173.815 109.813 173.574 110.031 173.378 110.307C173.187 110.583 173.044 110.904 172.949 111.27C172.854 111.632 172.806 112.01 172.806 112.407V112.572ZM185.892 111.428L188.067 108.41H189.701L186.667 112.437L189.783 116.554H188.173L185.922 113.453L183.672 116.554H182.046L185.162 112.437L182.128 108.41H183.739L185.892 111.428ZM196.246 113.664L196.607 114.65L199.091 108.41H200.649L196.517 117.811C196.421 118.022 196.298 118.245 196.148 118.481C196.002 118.717 195.824 118.935 195.613 119.136C195.403 119.337 195.157 119.505 194.876 119.64C194.595 119.776 194.271 119.843 193.905 119.843C193.84 119.843 193.767 119.838 193.687 119.828C193.606 119.823 193.526 119.813 193.446 119.798C193.365 119.788 193.29 119.776 193.22 119.761C193.15 119.746 193.092 119.733 193.047 119.723L193.273 118.586C193.308 118.586 193.355 118.589 193.416 118.594C193.476 118.599 193.539 118.604 193.604 118.609C193.669 118.614 193.732 118.617 193.792 118.617C193.852 118.622 193.9 118.624 193.935 118.624C194.126 118.624 194.299 118.571 194.454 118.466C194.615 118.361 194.755 118.235 194.876 118.09C195.001 117.944 195.107 117.794 195.192 117.638C195.282 117.483 195.353 117.355 195.403 117.254L195.96 116.17L192.452 108.41H194.01L196.246 113.664ZM210.062 112.332H204.304V111.187H210.062V112.332ZM214.913 104.993H219.076V115.35H221.733V116.554H214.913V115.35H217.683V106.205H214.913V104.993ZM230.769 116.554C230.714 116.449 230.669 116.318 230.634 116.163C230.604 116.002 230.581 115.837 230.566 115.666C230.426 115.807 230.268 115.939 230.092 116.065C229.921 116.19 229.731 116.301 229.52 116.396C229.314 116.491 229.093 116.567 228.858 116.622C228.622 116.677 228.371 116.705 228.105 116.705C227.673 116.705 227.282 116.642 226.931 116.517C226.584 116.391 226.288 116.223 226.042 116.012C225.802 115.796 225.613 115.543 225.478 115.252C225.347 114.956 225.282 114.637 225.282 114.296C225.282 113.85 225.37 113.458 225.546 113.122C225.726 112.786 225.98 112.507 226.306 112.286C226.632 112.061 227.023 111.893 227.48 111.782C227.942 111.672 228.456 111.617 229.023 111.617H230.544V110.977C230.544 110.731 230.498 110.51 230.408 110.314C230.318 110.119 230.19 109.953 230.024 109.818C229.859 109.677 229.655 109.569 229.415 109.494C229.179 109.419 228.913 109.381 228.617 109.381C228.341 109.381 228.092 109.416 227.871 109.486C227.656 109.557 227.473 109.649 227.322 109.765C227.171 109.88 227.054 110.018 226.968 110.179C226.888 110.334 226.848 110.498 226.848 110.668H225.448C225.453 110.372 225.528 110.081 225.674 109.795C225.824 109.509 226.037 109.253 226.313 109.027C226.594 108.796 226.933 108.611 227.33 108.47C227.731 108.33 228.185 108.26 228.692 108.26C229.154 108.26 229.583 108.317 229.979 108.433C230.375 108.543 230.717 108.714 231.003 108.944C231.294 109.17 231.522 109.454 231.688 109.795C231.853 110.136 231.936 110.535 231.936 110.992V114.778C231.936 115.049 231.961 115.337 232.011 115.643C232.061 115.945 232.132 116.208 232.222 116.434V116.554H230.769ZM228.308 115.493C228.579 115.493 228.832 115.458 229.068 115.388C229.304 115.317 229.517 115.224 229.708 115.109C229.904 114.994 230.072 114.863 230.212 114.718C230.353 114.567 230.463 114.412 230.544 114.251V112.603H229.249C228.436 112.603 227.804 112.723 227.352 112.964C226.901 113.205 226.675 113.584 226.675 114.1C226.675 114.301 226.707 114.487 226.773 114.657C226.843 114.828 226.946 114.976 227.081 115.102C227.217 115.222 227.387 115.317 227.593 115.388C227.799 115.458 228.037 115.493 228.308 115.493ZM239.437 106.438V108.41H242.538V109.486H239.437V113.912C239.437 114.228 239.477 114.489 239.558 114.695C239.638 114.901 239.748 115.066 239.889 115.192C240.029 115.312 240.19 115.398 240.37 115.448C240.556 115.498 240.752 115.523 240.958 115.523C241.108 115.523 241.264 115.515 241.424 115.5C241.585 115.48 241.74 115.458 241.891 115.433C242.046 115.408 242.189 115.383 242.32 115.357C242.455 115.327 242.566 115.302 242.651 115.282L242.847 116.268C242.731 116.338 242.591 116.401 242.425 116.456C242.26 116.507 242.079 116.549 241.883 116.584C241.688 116.624 241.479 116.655 241.259 116.675C241.043 116.695 240.827 116.705 240.611 116.705C240.25 116.705 239.911 116.655 239.595 116.554C239.284 116.449 239.013 116.286 238.782 116.065C238.551 115.839 238.368 115.551 238.233 115.199C238.102 114.843 238.037 114.414 238.037 113.912V109.486H235.899V108.41H238.037V106.438H239.437ZM250.461 116.705C249.889 116.705 249.362 116.607 248.88 116.411C248.403 116.215 247.994 115.942 247.653 115.591C247.312 115.239 247.046 114.823 246.855 114.341C246.665 113.86 246.569 113.335 246.569 112.768V112.452C246.569 111.795 246.675 111.208 246.885 110.691C247.096 110.169 247.375 109.73 247.721 109.374C248.072 109.012 248.469 108.736 248.91 108.546C249.357 108.355 249.813 108.26 250.28 108.26C250.867 108.26 251.379 108.362 251.816 108.568C252.257 108.769 252.623 109.05 252.915 109.411C253.206 109.767 253.421 110.189 253.562 110.676C253.707 111.162 253.78 111.689 253.78 112.256V112.881H247.962C247.977 113.252 248.047 113.601 248.173 113.927C248.303 114.253 248.479 114.539 248.699 114.785C248.925 115.026 249.194 115.217 249.505 115.357C249.816 115.498 250.16 115.568 250.536 115.568C251.033 115.568 251.474 115.468 251.861 115.267C252.247 115.066 252.568 114.8 252.824 114.469L253.675 115.132C253.539 115.337 253.369 115.536 253.163 115.726C252.962 115.912 252.729 116.077 252.463 116.223C252.197 116.369 251.896 116.484 251.56 116.569C251.223 116.66 250.857 116.705 250.461 116.705ZM250.28 109.404C249.999 109.404 249.733 109.456 249.482 109.562C249.231 109.662 249.006 109.813 248.805 110.013C248.604 110.209 248.433 110.452 248.293 110.743C248.157 111.029 248.062 111.361 248.007 111.737H252.388V111.632C252.373 111.361 252.32 111.092 252.23 110.826C252.144 110.56 252.016 110.322 251.846 110.111C251.675 109.9 251.459 109.73 251.198 109.599C250.942 109.469 250.636 109.404 250.28 109.404ZM262.997 114.394C262.997 114.228 262.965 114.08 262.899 113.95C262.834 113.814 262.724 113.691 262.568 113.581C262.413 113.471 262.207 113.37 261.951 113.28C261.695 113.185 261.376 113.099 260.995 113.024C260.528 112.929 260.102 112.813 259.716 112.678C259.334 112.542 259.006 112.382 258.73 112.196C258.459 112.005 258.248 111.785 258.097 111.534C257.947 111.278 257.871 110.982 257.871 110.646C257.871 110.314 257.949 110.006 258.105 109.72C258.26 109.429 258.479 109.175 258.76 108.96C259.041 108.744 259.374 108.573 259.761 108.448C260.152 108.322 260.581 108.26 261.048 108.26C261.55 108.26 262.001 108.325 262.403 108.455C262.804 108.586 263.145 108.766 263.426 108.997C263.707 109.228 263.923 109.499 264.074 109.81C264.229 110.116 264.307 110.447 264.307 110.804H262.914C262.914 110.628 262.869 110.457 262.779 110.292C262.689 110.121 262.563 109.971 262.403 109.84C262.242 109.71 262.046 109.604 261.816 109.524C261.59 109.444 261.334 109.404 261.048 109.404C260.752 109.404 260.491 109.436 260.265 109.501C260.044 109.567 259.859 109.655 259.708 109.765C259.563 109.875 259.452 110.003 259.377 110.149C259.302 110.294 259.264 110.445 259.264 110.6C259.264 110.761 259.294 110.904 259.354 111.029C259.414 111.155 259.517 111.268 259.663 111.368C259.813 111.468 260.012 111.559 260.257 111.639C260.508 111.719 260.825 111.797 261.206 111.872C261.708 111.978 262.157 112.101 262.553 112.241C262.95 112.377 263.283 112.542 263.554 112.738C263.825 112.929 264.031 113.152 264.171 113.408C264.317 113.664 264.39 113.96 264.39 114.296C264.39 114.657 264.307 114.986 264.141 115.282C263.981 115.578 263.755 115.832 263.464 116.042C263.173 116.253 262.824 116.416 262.418 116.532C262.011 116.647 261.567 116.705 261.085 116.705C260.533 116.705 260.042 116.632 259.61 116.486C259.179 116.336 258.812 116.14 258.511 115.899C258.215 115.653 257.987 115.37 257.826 115.049C257.671 114.728 257.593 114.394 257.593 114.048H258.985C259.006 114.334 259.081 114.575 259.211 114.77C259.347 114.966 259.512 115.124 259.708 115.245C259.909 115.365 260.13 115.45 260.37 115.5C260.611 115.551 260.85 115.576 261.085 115.576C261.673 115.576 262.137 115.468 262.478 115.252C262.819 115.036 262.992 114.75 262.997 114.394ZM271.605 106.438V108.41H274.706V109.486H271.605V113.912C271.605 114.228 271.645 114.489 271.725 114.695C271.806 114.901 271.916 115.066 272.056 115.192C272.197 115.312 272.357 115.398 272.538 115.448C272.724 115.498 272.919 115.523 273.125 115.523C273.276 115.523 273.431 115.515 273.592 115.5C273.752 115.48 273.908 115.458 274.059 115.433C274.214 115.408 274.357 115.383 274.488 115.357C274.623 115.327 274.733 115.302 274.819 115.282L275.014 116.268C274.899 116.338 274.759 116.401 274.593 116.456C274.427 116.507 274.247 116.549 274.051 116.584C273.855 116.624 273.647 116.655 273.426 116.675C273.211 116.695 272.995 116.705 272.779 116.705C272.418 116.705 272.079 116.655 271.763 116.554C271.452 116.449 271.181 116.286 270.95 116.065C270.719 115.839 270.536 115.551 270.4 115.199C270.27 114.843 270.205 114.414 270.205 113.912V109.486H268.067V108.41H270.205V106.438H271.605ZM285.12 112.332H279.362V111.187H285.12V112.332ZM295.165 114.394C295.165 114.228 295.132 114.08 295.067 113.95C295.002 113.814 294.892 113.691 294.736 113.581C294.58 113.471 294.375 113.37 294.119 113.28C293.863 113.185 293.544 113.099 293.163 113.024C292.696 112.929 292.27 112.813 291.883 112.678C291.502 112.542 291.173 112.382 290.897 112.196C290.626 112.005 290.416 111.785 290.265 111.534C290.114 111.278 290.039 110.982 290.039 110.646C290.039 110.314 290.117 110.006 290.272 109.72C290.428 109.429 290.646 109.175 290.927 108.96C291.208 108.744 291.542 108.573 291.928 108.448C292.32 108.322 292.749 108.26 293.216 108.26C293.717 108.26 294.169 108.325 294.57 108.455C294.972 108.586 295.313 108.766 295.594 108.997C295.875 109.228 296.091 109.499 296.241 109.81C296.397 110.116 296.475 110.447 296.475 110.804H295.082C295.082 110.628 295.037 110.457 294.947 110.292C294.856 110.121 294.731 109.971 294.57 109.84C294.41 109.71 294.214 109.604 293.983 109.524C293.757 109.444 293.502 109.404 293.216 109.404C292.919 109.404 292.659 109.436 292.433 109.501C292.212 109.567 292.026 109.655 291.876 109.765C291.73 109.875 291.62 110.003 291.545 110.149C291.469 110.294 291.432 110.445 291.432 110.6C291.432 110.761 291.462 110.904 291.522 111.029C291.582 111.155 291.685 111.268 291.831 111.368C291.981 111.468 292.179 111.559 292.425 111.639C292.676 111.719 292.992 111.797 293.374 111.872C293.875 111.978 294.324 112.101 294.721 112.241C295.117 112.377 295.451 112.542 295.722 112.738C295.993 112.929 296.199 113.152 296.339 113.408C296.485 113.664 296.557 113.96 296.557 114.296C296.557 114.657 296.475 114.986 296.309 115.282C296.149 115.578 295.923 115.832 295.632 116.042C295.341 116.253 294.992 116.416 294.585 116.532C294.179 116.647 293.735 116.705 293.253 116.705C292.701 116.705 292.209 116.632 291.778 116.486C291.346 116.336 290.98 116.14 290.679 115.899C290.383 115.653 290.155 115.37 289.994 115.049C289.838 114.728 289.761 114.394 289.761 114.048H291.153C291.173 114.334 291.248 114.575 291.379 114.77C291.514 114.966 291.68 115.124 291.876 115.245C292.076 115.365 292.297 115.45 292.538 115.5C292.779 115.551 293.017 115.576 293.253 115.576C293.84 115.576 294.304 115.468 294.646 115.252C294.987 115.036 295.16 114.75 295.165 114.394ZM304.074 116.705C303.502 116.705 302.975 116.607 302.493 116.411C302.016 116.215 301.607 115.942 301.266 115.591C300.925 115.239 300.659 114.823 300.468 114.341C300.277 113.86 300.182 113.335 300.182 112.768V112.452C300.182 111.795 300.288 111.208 300.498 110.691C300.709 110.169 300.988 109.73 301.334 109.374C301.685 109.012 302.081 108.736 302.523 108.546C302.97 108.355 303.426 108.26 303.893 108.26C304.48 108.26 304.992 108.362 305.428 108.568C305.87 108.769 306.236 109.05 306.527 109.411C306.818 109.767 307.034 110.189 307.175 110.676C307.32 111.162 307.393 111.689 307.393 112.256V112.881H301.575C301.59 113.252 301.66 113.601 301.785 113.927C301.916 114.253 302.091 114.539 302.312 114.785C302.538 115.026 302.807 115.217 303.118 115.357C303.429 115.498 303.773 115.568 304.149 115.568C304.646 115.568 305.087 115.468 305.474 115.267C305.86 115.066 306.181 114.8 306.437 114.469L307.288 115.132C307.152 115.337 306.981 115.536 306.776 115.726C306.575 115.912 306.342 116.077 306.076 116.223C305.81 116.369 305.509 116.484 305.173 116.569C304.836 116.66 304.47 116.705 304.074 116.705ZM303.893 109.404C303.612 109.404 303.346 109.456 303.095 109.562C302.844 109.662 302.618 109.813 302.418 110.013C302.217 110.209 302.046 110.452 301.906 110.743C301.77 111.029 301.675 111.361 301.62 111.737H306V111.632C305.985 111.361 305.933 111.092 305.842 110.826C305.757 110.56 305.629 110.322 305.459 110.111C305.288 109.9 305.072 109.73 304.811 109.599C304.555 109.469 304.249 109.404 303.893 109.404ZM314.495 106.438V108.41H317.596V109.486H314.495V113.912C314.495 114.228 314.535 114.489 314.615 114.695C314.696 114.901 314.806 115.066 314.947 115.192C315.087 115.312 315.248 115.398 315.428 115.448C315.614 115.498 315.81 115.523 316.016 115.523C316.166 115.523 316.322 115.515 316.482 115.5C316.643 115.48 316.798 115.458 316.949 115.433C317.104 115.408 317.247 115.383 317.378 115.357C317.513 115.327 317.624 115.302 317.709 115.282L317.905 116.268C317.789 116.338 317.649 116.401 317.483 116.456C317.318 116.507 317.137 116.549 316.941 116.584C316.746 116.624 316.537 116.655 316.317 116.675C316.101 116.695 315.885 116.705 315.669 116.705C315.308 116.705 314.969 116.655 314.653 116.554C314.342 116.449 314.071 116.286 313.84 116.065C313.609 115.839 313.426 115.551 313.291 115.199C313.16 114.843 313.095 114.414 313.095 113.912V109.486H310.957V108.41H313.095V106.438H314.495ZM327.205 115.433C326.934 115.834 326.595 116.148 326.189 116.374C325.782 116.594 325.313 116.705 324.781 116.705C324.355 116.705 323.968 116.64 323.622 116.509C323.276 116.374 322.98 116.165 322.734 115.884C322.488 115.603 322.297 115.247 322.162 114.815C322.031 114.379 321.966 113.857 321.966 113.25V108.41H323.359V113.265C323.359 113.707 323.394 114.073 323.464 114.364C323.534 114.655 323.64 114.888 323.78 115.064C323.921 115.234 324.091 115.355 324.292 115.425C324.498 115.495 324.733 115.531 324.999 115.531C325.566 115.531 326.023 115.415 326.369 115.184C326.721 114.953 326.981 114.642 327.152 114.251V108.41H328.552V116.554H327.288L327.205 115.433ZM339.516 112.572C339.516 113.155 339.445 113.699 339.305 114.206C339.164 114.708 338.959 115.144 338.688 115.515C338.417 115.887 338.08 116.178 337.679 116.389C337.283 116.599 336.828 116.705 336.317 116.705C335.82 116.705 335.381 116.624 334.999 116.464C334.623 116.303 334.299 116.072 334.028 115.771V119.685H332.636V108.41H333.908L333.976 109.298C334.247 108.962 334.573 108.706 334.954 108.53C335.341 108.35 335.787 108.26 336.294 108.26C336.816 108.26 337.278 108.362 337.679 108.568C338.08 108.774 338.417 109.06 338.688 109.426C338.959 109.793 339.164 110.232 339.305 110.743C339.445 111.25 339.516 111.807 339.516 112.414V112.572ZM338.123 112.414C338.123 112.018 338.078 111.642 337.988 111.285C337.902 110.924 337.767 110.608 337.581 110.337C337.4 110.061 337.17 109.843 336.889 109.682C336.608 109.522 336.271 109.441 335.88 109.441C335.433 109.441 335.057 109.547 334.751 109.757C334.45 109.963 334.209 110.229 334.028 110.555V114.477C334.209 114.798 334.45 115.061 334.751 115.267C335.052 115.468 335.433 115.568 335.895 115.568C336.281 115.568 336.615 115.488 336.896 115.327C337.177 115.162 337.408 114.941 337.589 114.665C337.769 114.389 337.902 114.07 337.988 113.709C338.078 113.348 338.123 112.969 338.123 112.572V112.414ZM345.79 115.651C345.79 115.5 345.812 115.36 345.857 115.229C345.908 115.099 345.978 114.986 346.068 114.891C346.158 114.79 346.271 114.713 346.407 114.657C346.542 114.602 346.7 114.575 346.881 114.575C347.062 114.575 347.22 114.602 347.355 114.657C347.496 114.713 347.611 114.79 347.702 114.891C347.797 114.986 347.867 115.099 347.912 115.229C347.962 115.36 347.988 115.5 347.988 115.651C347.988 115.796 347.962 115.934 347.912 116.065C347.867 116.19 347.797 116.301 347.702 116.396C347.611 116.491 347.496 116.564 347.355 116.614C347.22 116.67 347.062 116.697 346.881 116.697C346.7 116.697 346.542 116.67 346.407 116.614C346.271 116.564 346.158 116.491 346.068 116.396C345.978 116.301 345.908 116.19 345.857 116.065C345.812 115.934 345.79 115.796 345.79 115.651ZM359.5 114.394C359.5 114.228 359.468 114.08 359.403 113.95C359.337 113.814 359.227 113.691 359.071 113.581C358.916 113.471 358.71 113.37 358.454 113.28C358.198 113.185 357.88 113.099 357.498 113.024C357.032 112.929 356.605 112.813 356.219 112.678C355.837 112.542 355.509 112.382 355.233 112.196C354.962 112.005 354.751 111.785 354.6 111.534C354.45 111.278 354.375 110.982 354.375 110.646C354.375 110.314 354.452 110.006 354.608 109.72C354.763 109.429 354.982 109.175 355.263 108.96C355.544 108.744 355.877 108.573 356.264 108.448C356.655 108.322 357.084 108.26 357.551 108.26C358.053 108.26 358.504 108.325 358.906 108.455C359.307 108.586 359.648 108.766 359.929 108.997C360.21 109.228 360.426 109.499 360.577 109.81C360.732 110.116 360.81 110.447 360.81 110.804H359.418C359.418 110.628 359.372 110.457 359.282 110.292C359.192 110.121 359.066 109.971 358.906 109.84C358.745 109.71 358.55 109.604 358.319 109.524C358.093 109.444 357.837 109.404 357.551 109.404C357.255 109.404 356.994 109.436 356.768 109.501C356.547 109.567 356.362 109.655 356.211 109.765C356.066 109.875 355.955 110.003 355.88 110.149C355.805 110.294 355.767 110.445 355.767 110.6C355.767 110.761 355.797 110.904 355.857 111.029C355.918 111.155 356.02 111.268 356.166 111.368C356.317 111.468 356.515 111.559 356.761 111.639C357.012 111.719 357.328 111.797 357.709 111.872C358.211 111.978 358.66 112.101 359.056 112.241C359.453 112.377 359.786 112.542 360.057 112.738C360.328 112.929 360.534 113.152 360.675 113.408C360.82 113.664 360.893 113.96 360.893 114.296C360.893 114.657 360.81 114.986 360.645 115.282C360.484 115.578 360.258 115.832 359.967 116.042C359.676 116.253 359.327 116.416 358.921 116.532C358.514 116.647 358.07 116.705 357.589 116.705C357.037 116.705 356.545 116.632 356.113 116.486C355.682 116.336 355.315 116.14 355.014 115.899C354.718 115.653 354.49 115.37 354.329 115.049C354.174 114.728 354.096 114.394 354.096 114.048H355.489C355.509 114.334 355.584 114.575 355.714 114.77C355.85 114.966 356.015 115.124 356.211 115.245C356.412 115.365 356.633 115.45 356.874 115.5C357.114 115.551 357.353 115.576 357.589 115.576C358.176 115.576 358.64 115.468 358.981 115.252C359.322 115.036 359.495 114.75 359.5 114.394ZM366.204 109.622C366.495 109.195 366.853 108.864 367.28 108.628C367.707 108.387 368.186 108.265 368.718 108.26C369.144 108.26 369.531 108.322 369.877 108.448C370.228 108.568 370.527 108.759 370.772 109.02C371.018 109.281 371.207 109.612 371.337 110.013C371.472 110.41 371.54 110.881 371.54 111.428V116.554H370.148V111.413C370.148 110.746 369.987 110.249 369.666 109.923C369.35 109.597 368.896 109.436 368.304 109.441C367.857 109.441 367.451 109.552 367.084 109.772C366.723 109.988 366.429 110.277 366.204 110.638V116.554H364.811V104.993H366.204V109.622ZM390.133 119.55H389.011V105.595H390.133V119.55ZM414.604 112.572C414.604 113.155 414.533 113.699 414.393 114.206C414.252 114.708 414.047 115.144 413.776 115.515C413.505 115.887 413.168 116.178 412.767 116.389C412.371 116.599 411.914 116.705 411.397 116.705C410.875 116.705 410.421 116.612 410.035 116.426C409.653 116.241 409.327 115.975 409.056 115.628L408.989 116.554H407.709V104.993H409.101V109.283C409.367 108.952 409.689 108.699 410.065 108.523C410.441 108.347 410.88 108.26 411.382 108.26C411.904 108.26 412.366 108.362 412.767 108.568C413.168 108.774 413.505 109.06 413.776 109.426C414.047 109.793 414.252 110.232 414.393 110.743C414.533 111.25 414.604 111.807 414.604 112.414V112.572ZM413.211 112.414C413.211 112.018 413.171 111.642 413.091 111.285C413.015 110.924 412.892 110.608 412.722 110.337C412.551 110.061 412.328 109.843 412.052 109.682C411.776 109.522 411.437 109.441 411.036 109.441C410.795 109.441 410.574 109.474 410.373 109.539C410.173 109.599 409.992 109.687 409.832 109.803C409.676 109.913 409.535 110.046 409.41 110.201C409.29 110.352 409.187 110.518 409.101 110.698V114.258C409.192 114.439 409.297 114.607 409.418 114.763C409.543 114.913 409.686 115.046 409.847 115.162C410.007 115.277 410.188 115.367 410.389 115.433C410.589 115.493 410.81 115.523 411.051 115.523C411.432 115.523 411.758 115.445 412.029 115.29C412.305 115.129 412.529 114.913 412.699 114.642C412.875 114.371 413.003 114.058 413.083 113.701C413.168 113.345 413.211 112.969 413.211 112.572V112.414ZM423.776 116.554C423.72 116.449 423.675 116.318 423.64 116.163C423.61 116.002 423.587 115.837 423.572 115.666C423.432 115.807 423.274 115.939 423.098 116.065C422.928 116.19 422.737 116.301 422.526 116.396C422.32 116.491 422.1 116.567 421.864 116.622C421.628 116.677 421.377 116.705 421.111 116.705C420.68 116.705 420.288 116.642 419.937 116.517C419.591 116.391 419.295 116.223 419.049 116.012C418.808 115.796 418.62 115.543 418.484 115.252C418.354 114.956 418.289 114.637 418.289 114.296C418.289 113.85 418.376 113.458 418.552 113.122C418.733 112.786 418.986 112.507 419.312 112.286C419.638 112.061 420.03 111.893 420.486 111.782C420.948 111.672 421.462 111.617 422.029 111.617H423.55V110.977C423.55 110.731 423.505 110.51 423.414 110.314C423.324 110.119 423.196 109.953 423.03 109.818C422.865 109.677 422.662 109.569 422.421 109.494C422.185 109.419 421.919 109.381 421.623 109.381C421.347 109.381 421.099 109.416 420.878 109.486C420.662 109.557 420.479 109.649 420.328 109.765C420.178 109.88 420.06 110.018 419.975 110.179C419.894 110.334 419.854 110.498 419.854 110.668H418.454C418.459 110.372 418.534 110.081 418.68 109.795C418.83 109.509 419.044 109.253 419.32 109.027C419.601 108.796 419.939 108.611 420.336 108.47C420.737 108.33 421.191 108.26 421.698 108.26C422.16 108.26 422.589 108.317 422.985 108.433C423.382 108.543 423.723 108.714 424.009 108.944C424.3 109.17 424.528 109.454 424.694 109.795C424.86 110.136 424.942 110.535 424.942 110.992V114.778C424.942 115.049 424.967 115.337 425.018 115.643C425.068 115.945 425.138 116.208 425.228 116.434V116.554H423.776ZM421.314 115.493C421.585 115.493 421.839 115.458 422.075 115.388C422.31 115.317 422.524 115.224 422.714 115.109C422.91 114.994 423.078 114.863 423.219 114.718C423.359 114.567 423.47 114.412 423.55 114.251V112.603H422.255C421.442 112.603 420.81 112.723 420.358 112.964C419.907 113.205 419.681 113.584 419.681 114.1C419.681 114.301 419.714 114.487 419.779 114.657C419.849 114.828 419.952 114.976 420.087 115.102C420.223 115.222 420.394 115.317 420.599 115.388C420.805 115.458 421.043 115.493 421.314 115.493ZM434.558 114.394C434.558 114.228 434.526 114.08 434.461 113.95C434.395 113.814 434.285 113.691 434.129 113.581C433.974 113.471 433.768 113.37 433.512 113.28C433.256 113.185 432.938 113.099 432.556 113.024C432.09 112.929 431.663 112.813 431.277 112.678C430.895 112.542 430.567 112.382 430.291 112.196C430.02 112.005 429.809 111.785 429.658 111.534C429.508 111.278 429.433 110.982 429.433 110.646C429.433 110.314 429.51 110.006 429.666 109.72C429.821 109.429 430.04 109.175 430.321 108.96C430.602 108.744 430.935 108.573 431.322 108.448C431.713 108.322 432.142 108.26 432.609 108.26C433.111 108.26 433.562 108.325 433.964 108.455C434.365 108.586 434.706 108.766 434.987 108.997C435.268 109.228 435.484 109.499 435.635 109.81C435.79 110.116 435.868 110.447 435.868 110.804H434.476C434.476 110.628 434.43 110.457 434.34 110.292C434.25 110.121 434.124 109.971 433.964 109.84C433.803 109.71 433.608 109.604 433.377 109.524C433.151 109.444 432.895 109.404 432.609 109.404C432.313 109.404 432.052 109.436 431.826 109.501C431.605 109.567 431.42 109.655 431.269 109.765C431.124 109.875 431.013 110.003 430.938 110.149C430.863 110.294 430.825 110.445 430.825 110.6C430.825 110.761 430.855 110.904 430.915 111.029C430.976 111.155 431.078 111.268 431.224 111.368C431.375 111.468 431.573 111.559 431.819 111.639C432.07 111.719 432.386 111.797 432.767 111.872C433.269 111.978 433.718 112.101 434.114 112.241C434.511 112.377 434.844 112.542 435.115 112.738C435.386 112.929 435.592 113.152 435.733 113.408C435.878 113.664 435.951 113.96 435.951 114.296C435.951 114.657 435.868 114.986 435.703 115.282C435.542 115.578 435.316 115.832 435.025 116.042C434.734 116.253 434.385 116.416 433.979 116.532C433.572 116.647 433.128 116.705 432.647 116.705C432.095 116.705 431.603 116.632 431.171 116.486C430.74 116.336 430.373 116.14 430.072 115.899C429.776 115.653 429.548 115.37 429.387 115.049C429.232 114.728 429.154 114.394 429.154 114.048H430.547C430.567 114.334 430.642 114.575 430.772 114.77C430.908 114.966 431.073 115.124 431.269 115.245C431.47 115.365 431.691 115.45 431.932 115.5C432.172 115.551 432.411 115.576 432.647 115.576C433.234 115.576 433.698 115.468 434.039 115.252C434.38 115.036 434.553 114.75 434.558 114.394ZM441.262 109.622C441.553 109.195 441.911 108.864 442.338 108.628C442.764 108.387 443.244 108.265 443.776 108.26C444.202 108.26 444.589 108.322 444.935 108.448C445.286 108.568 445.585 108.759 445.83 109.02C446.076 109.281 446.265 109.612 446.395 110.013C446.53 110.41 446.598 110.881 446.598 111.428V116.554H445.206V111.413C445.206 110.746 445.045 110.249 444.724 109.923C444.408 109.597 443.954 109.436 443.362 109.441C442.915 109.441 442.509 109.552 442.142 109.772C441.781 109.988 441.487 110.277 441.262 110.638V116.554H439.869V104.993H441.262V109.622Z" fill="white"/>
<path d="M0 9.52142C0 4.26289 4.26288 0 9.52141 0H570.428C575.687 0 579.95 4.26288 579.95 9.52141V27.6121H0V9.52142Z" fill="#000C36"/>
<path d="M20.5688 13.9088C20.5688 16.1453 18.7177 17.9905 16.4739 17.9905C14.23 17.9905 12.3789 16.1453 12.3789 13.9088C12.3789 11.6722 14.23 9.82709 16.4739 9.82709C18.7177 9.82709 20.5688 11.6722 20.5688 13.9088Z" fill="#F66058"/>
<path d="M37.8227 13.9088C37.8227 16.1453 35.9716 17.9905 33.7278 17.9905C31.484 17.9905 29.6328 16.1453 29.6328 13.9088C29.6328 11.6722 31.484 9.82709 33.7278 9.82709C36.0277 9.82709 37.8227 11.6722 37.8227 13.9088Z" fill="#F9BD2E"/>
<path d="M55.4868 13.9088C55.4868 16.1453 53.6357 17.9905 51.3918 17.9905C49.148 17.9905 47.2969 16.1453 47.2969 13.9088C47.2969 11.6722 49.148 9.82709 51.3918 9.82709C53.6357 9.82709 55.4868 11.6722 55.4868 13.9088Z" fill="#3CC840"/>
<defs>
<linearGradient id="paint0_linear_10305_55916" x1="408.432" y1="-322.315" x2="-157.274" y2="59.8659" gradientUnits="userSpaceOnUse">
<stop stop-color="#27467F"/>
<stop offset="1" stop-color="#10254F"/>
</linearGradient>
</defs>
</svg>
