<svg width="205" height="183" viewBox="0 0 205 183" fill="none" xmlns="http://www.w3.org/2000/svg">
<path d="M103.799 0L187.598 14.7387L187.737 91.2392C187.877 141.673 151.145 167.738 104.079 182.722C57.0147 167.982 20.279 141.914 20.1395 91.4832L20 14.9828L103.799 0Z" fill="url(#paint0_linear_11382_71626)"/>
<path d="M182.754 18.2277L182.893 91.2355C182.893 132.431 157.179 160.952 104.215 178.137C51.1086 161.074 25.3943 132.675 25.2548 91.4839L25.1152 18.4761L103.936 4.46002L182.754 18.2277Z" fill="url(#paint1_linear_11382_71626)"/>
<path d="M104.193 0L103.916 182.725C150.532 167.985 187.394 141.952 187.532 91.5212L187.389 14.7335L104.193 0Z" fill="#003395" fill-opacity="0.15"/>
<path d="M81.1262 151V150.922L79.2412 148.868C79.7092 148.335 80.4372 147.126 80.6322 146.736L79.6572 146.294C79.4362 146.788 78.8252 147.789 78.5392 148.114L76.7972 146.06C77.7462 145.527 78.5782 144.773 78.5782 143.772C78.5782 142.628 77.6552 141.887 76.3422 141.887C75.0292 141.887 74.0542 142.628 74.0542 143.798C74.0542 144.734 74.6262 145.319 75.0682 145.852C73.8202 146.489 72.7152 147.23 72.7152 148.647C72.7152 150.259 73.9372 151.156 75.4972 151.156C76.8622 151.156 77.6942 150.558 78.5262 149.713L79.6312 151H81.1262ZM77.4472 143.798C77.4472 144.617 76.5372 145.124 76.1082 145.371L75.7442 144.955C75.5102 144.682 75.2502 144.305 75.2502 143.85C75.2502 143.187 75.7312 142.797 76.3552 142.797C76.9922 142.797 77.4472 143.135 77.4472 143.798ZM75.7572 146.567L77.8242 148.959C77.4342 149.479 76.6022 150.168 75.6532 150.168C74.7042 150.168 73.9762 149.518 73.9762 148.582C73.9762 147.633 74.7432 147.139 75.3802 146.775L75.7572 146.567ZM90.7544 150.207L90.3124 149.297C90.3124 149.297 89.6364 150.077 88.4274 150.077C87.2314 150.077 86.4254 149.18 86.4254 147.88C86.4254 146.58 87.3354 145.748 88.4274 145.748C89.5194 145.748 90.0654 146.294 90.2734 146.502L90.7154 145.592C90.6504 145.514 89.9744 144.708 88.3234 144.708C86.6854 144.708 85.1644 145.93 85.1644 147.919C85.1644 149.895 86.6204 151.143 88.2844 151.143C89.9354 151.143 90.5724 150.389 90.7544 150.207ZM98.3283 147.932C98.3283 146.021 96.8983 144.708 95.0653 144.708C93.2193 144.708 91.7893 146.021 91.7893 147.932C91.7893 149.856 93.2193 151.143 95.0653 151.143C96.8983 151.143 98.3283 149.856 98.3283 147.932ZM97.0673 147.893C97.0673 149.115 96.3003 150.077 95.0653 150.077C93.8173 150.077 93.0503 149.115 93.0503 147.893C93.0503 146.684 93.8173 145.722 95.0653 145.722C96.3003 145.722 97.0673 146.684 97.0673 147.893ZM105.339 151V144.812H104.091V148.127C104.091 149.167 103.649 150.103 102.557 150.103C101.452 150.103 101.27 149.31 101.27 148.465V144.812H100.035V148.517C100.035 150.051 100.49 151.143 102.206 151.143C103.077 151.143 103.779 150.714 104.117 150.116L104.13 151H105.339ZM112.881 151V147.347C112.881 145.865 112.426 144.708 110.671 144.708C109.774 144.708 109.111 145.189 108.786 145.8H108.747L108.76 144.825H107.512V151H108.76V147.893C108.76 146.71 109.189 145.735 110.346 145.735C111.451 145.735 111.633 146.515 111.633 147.555V151H112.881ZM118.003 150.935L117.925 149.934C117.925 149.934 117.652 150.077 117.288 150.077C116.937 150.077 116.768 149.96 116.651 149.765C116.508 149.505 116.495 149.154 116.495 148.634V145.839H117.977V144.838H116.495V142.992H115.247V144.838H114.337V145.839H115.247V148.66C115.247 149.869 115.325 151.143 116.872 151.143C117.301 151.143 117.678 151.078 118.003 150.935ZM120.974 142.797C120.974 142.355 120.636 142.03 120.168 142.03C119.687 142.03 119.349 142.355 119.349 142.797C119.349 143.239 119.687 143.564 120.168 143.564C120.636 143.564 120.974 143.239 120.974 142.797ZM120.792 151V144.825H119.544V151H120.792ZM128.388 151V147.347C128.388 145.865 127.933 144.708 126.178 144.708C125.281 144.708 124.618 145.189 124.293 145.8H124.254L124.267 144.825H123.019V151H124.267V147.893C124.267 146.71 124.696 145.735 125.853 145.735C126.958 145.735 127.14 146.515 127.14 147.555V151H128.388ZM136.488 149.7V144.825H135.253L135.266 145.8H135.227C134.863 145.228 134.148 144.708 133.069 144.708C131.483 144.708 130.092 145.852 130.092 147.815C130.092 149.778 131.483 150.922 133.069 150.922C134.109 150.922 134.811 150.441 135.227 149.817H135.253V150.129C135.253 151.585 134.668 152.534 133.095 152.534C132.172 152.534 131.21 152.04 130.885 151.754L130.3 152.625C130.482 152.755 131.535 153.548 133.056 153.548C134.59 153.548 135.357 152.924 135.812 152.365C136.267 151.819 136.488 151.065 136.488 149.7ZM135.292 147.815C135.292 148.985 134.603 149.908 133.329 149.908C132.068 149.908 131.366 148.985 131.366 147.815C131.366 146.645 132.068 145.709 133.329 145.709C134.603 145.709 135.292 146.645 135.292 147.815Z" fill="white"/>
<g filter="url(#filter0_d_11382_71626)">
<path d="M9 34.7501C9 32.2674 11.0126 30.2549 13.4952 30.2549L191.505 30.2549C193.987 30.2549 196 32.2674 196 34.7501V82.2076C196 88.2717 191.084 93.1876 185.02 93.1876L19.98 93.1876C13.9159 93.1876 9 88.2717 9 82.2076L9 34.7501Z" fill="#3D7FFC"/>
</g>
<path d="M64.5514 67.9116C64.5514 64.1087 61.8893 61.7847 59.4385 61.1508V61.0241C61.3823 60.2212 63.6218 58.531 63.6218 54.6436C63.6218 49.742 58.7625 46.8687 53.4806 46.8687C48.1565 46.8687 45.4522 48.7279 43.424 50.5026L45.9593 54.8126C48.3255 52.9112 50.6073 51.9815 52.9313 51.9815C55.2553 51.9815 57.1568 53.1224 57.1568 55.4042C57.1568 57.6859 55.5511 58.8268 53.2693 58.8268H50.6918V63.6016H53.2693C55.8891 63.6016 57.9174 64.9538 57.9174 67.5313C57.9174 70.1511 55.6779 71.63 52.8045 71.63C49.9735 71.63 46.8466 69.4328 45.6635 67.9961L42.5366 72.0526C43.5507 73.5315 47.1424 76.9119 53.1848 76.9119C59.185 76.9119 64.5514 73.7428 64.5514 67.9116ZM89.9455 67.9116C89.9455 64.1087 87.2835 61.7847 84.8327 61.1508V61.0241C86.7764 60.2212 89.0159 58.531 89.0159 54.6436C89.0159 49.742 84.1566 46.8687 78.8748 46.8687C73.5506 46.8687 70.8463 48.7279 68.8181 50.5026L71.3534 54.8126C73.7197 52.9112 76.0014 51.9815 78.3254 51.9815C80.6495 51.9815 82.5509 53.1224 82.5509 55.4042C82.5509 57.6859 80.9452 58.8268 78.6635 58.8268H76.0859V63.6016H78.6635C81.2833 63.6016 83.3115 64.9538 83.3115 67.5313C83.3115 70.1511 81.072 71.63 78.1987 71.63C75.3676 71.63 72.2407 69.4328 71.0576 67.9961L67.9308 72.0526C68.9449 73.5315 72.5365 76.9119 78.579 76.9119C84.5792 76.9119 89.9455 73.7428 89.9455 67.9116ZM116.565 61.9114C116.565 54.2211 112.973 46.8687 104.48 46.8687C95.987 46.8687 92.3953 54.2211 92.3953 61.9114C92.3953 69.6018 95.9447 76.9541 104.48 76.9541C112.973 76.9541 116.565 69.6018 116.565 61.9114ZM109.847 61.7847C109.847 67.0243 108.241 71.0807 104.48 71.0807C100.719 71.0807 99.1138 67.0243 99.1138 61.7847C99.1138 56.5451 100.719 52.5731 104.48 52.5731C108.241 52.5731 109.847 56.5451 109.847 61.7847ZM141.959 61.9114C141.959 54.2211 138.368 46.8687 129.874 46.8687C121.381 46.8687 117.789 54.2211 117.789 61.9114C117.789 69.6018 121.339 76.9541 129.874 76.9541C138.368 76.9541 141.959 69.6018 141.959 61.9114ZM135.241 61.7847C135.241 67.0243 133.635 71.0807 129.874 71.0807C126.114 71.0807 124.508 67.0243 124.508 61.7847C124.508 56.5451 126.114 52.5731 129.874 52.5731C133.635 52.5731 135.241 56.5451 135.241 61.7847ZM168.452 64.32V59.4184H159.325V50.3336H154.381V59.4184H145.254V64.32H154.381V73.4047H159.325V64.32H168.452Z" fill="white"/>
<path d="M45.5203 110.402H48.0069V112.305C48.0069 112.305 47.3778 113.084 45.4753 113.084C43.5579 113.084 42.0749 111.735 42.0749 109.414C42.0749 107.092 43.5129 105.743 45.4004 105.743C46.9134 105.743 47.7972 106.448 48.3215 107.047L49.6248 105.893C49.2653 105.519 48.0669 104.096 45.4004 104.096C42.4943 104.096 40.0675 106.103 40.0675 109.429C40.0675 112.904 42.4943 114.761 45.4304 114.761C48.2017 114.761 49.5349 113.383 49.8944 113.039V108.889H45.5203V110.402ZM54.9629 110.387L57.4047 114.582H59.6816L56.8953 110.148C58.1537 109.758 59.1274 109.039 59.1274 107.256C59.1274 106.268 58.663 105.474 58.0188 104.979C57.3747 104.485 56.5059 104.245 55.4123 104.245H52.0868V114.582H54.0342V110.387H54.9629ZM55.0378 108.859H54.0192V105.773H55.0378C55.667 105.773 56.1463 105.818 56.5208 106.103C56.9103 106.373 57.12 106.747 57.12 107.316C57.12 107.901 56.9103 108.245 56.5208 108.53C56.1463 108.814 55.667 108.859 55.0378 108.859ZM67.0697 112.2L67.9685 114.582H70.0957L66.0361 104.23H64.1486L60.089 114.582H62.1113L63.0101 112.2H67.0697ZM63.4895 110.642L65.0474 106.463L66.5903 110.642H63.4895ZM73.4368 106.957L78.6798 114.582H80.6422V104.245H78.7397V109.339C78.7397 110.567 78.7697 111.78 78.7697 111.78L73.6315 104.245H71.5643V114.582H73.4667V109.503C73.4667 108.275 73.4368 106.957 73.4368 106.957ZM85.078 105.818V114.582H87.0104V105.818H89.8416V104.245H82.2318V105.818H85.078ZM91.4075 104.245V114.582H97.9088V112.964H93.3549V110.028H97.5343V108.425H93.3549V105.863H97.789V104.245H91.4075ZM99.9906 104.245V114.582H103.301C105.099 114.582 106.432 113.997 107.226 113.293C108.035 112.589 108.874 111.376 108.874 109.399C108.874 107.436 108.035 106.253 107.226 105.549C106.432 104.83 105.099 104.245 103.301 104.245H99.9906ZM103.376 112.934H101.938V105.878H103.376C104.5 105.878 105.323 106.253 105.833 106.717C106.327 107.197 106.866 108.035 106.866 109.414C106.866 110.807 106.327 111.601 105.833 112.08C105.323 112.559 104.5 112.934 103.376 112.934ZM114.245 104.245V114.582H116.208V110.507H117.571C118.604 110.507 119.503 110.252 120.162 109.698C120.836 109.144 121.241 108.395 121.241 107.346C121.241 106.298 120.836 105.564 120.162 105.009C119.503 104.455 118.604 104.245 117.571 104.245H114.245ZM117.331 108.979H116.193V105.773H117.286C117.885 105.773 118.29 105.878 118.619 106.118C118.949 106.358 119.234 106.777 119.234 107.346C119.234 107.931 118.994 108.35 118.664 108.59C118.335 108.829 117.93 108.979 117.331 108.979ZM128.468 112.2L129.367 114.582H131.494L127.434 104.23H125.547L121.487 114.582H123.509L124.408 112.2H128.468ZM124.888 110.642L126.445 106.463L127.988 110.642H124.888ZM133.665 105.818V114.582H135.598V105.818H138.429V104.245H130.819V105.818H133.665ZM139.995 104.245V114.582H146.496V112.964H141.942V110.028H146.122V108.425H141.942V105.863H146.376V104.245H139.995ZM150.45 106.957L155.693 114.582H157.656V104.245H155.753V109.339C155.753 110.567 155.783 111.78 155.783 111.78L150.645 104.245H148.578V114.582H150.48V109.503C150.48 108.275 150.45 106.957 150.45 106.957ZM162.092 105.818V114.582H164.024V105.818H166.855V104.245H159.245V105.818H162.092ZM87.5871 132.293L86.898 130.825C86.2838 131.484 85.3251 132.084 83.9469 132.084C81.8797 132.084 80.4866 130.631 80.4866 128.399C80.4866 125.957 82.0295 124.773 83.8271 124.773C85.2951 124.773 86.4636 125.567 86.7632 125.957L87.4523 124.369C87.0328 123.95 85.8644 123.096 83.8421 123.096C80.8461 123.096 78.4792 125.148 78.4792 128.429C78.4792 131.709 80.8161 133.761 83.8421 133.761C85.8794 133.761 87.0029 132.923 87.5871 132.293ZM89.3282 123.245V133.582H94.8708V131.964H91.2606V123.245H89.3282ZM102.57 131.2L103.469 133.582H105.596L101.537 123.23H99.6491L95.5896 133.582H97.6119L98.5107 131.2H102.57ZM98.99 129.642L100.548 125.463L102.091 129.642H98.99ZM107.065 123.245V133.582H109.012V123.245H107.065ZM120.451 125.777L121.05 133.582H122.967L122.083 123.245H119.612L117.08 130.661H117.05L114.549 123.245H111.987L111.133 133.582H113.006L113.56 125.777H113.605L116.301 133.627H117.664L120.421 125.777H120.451ZM129.474 127.874L127.751 127.17C127.212 126.946 126.568 126.661 126.568 125.912C126.568 125.148 127.242 124.728 128.096 124.728C128.98 124.728 129.774 125.163 130.433 125.762L131.362 124.369C130.748 123.74 129.684 123.126 128.216 123.126C126.044 123.126 124.636 124.369 124.636 126.167C124.636 127.425 125.385 128.219 126.508 128.668L128.126 129.312C129.01 129.672 129.549 129.942 129.549 130.75C129.549 131.649 128.89 132.114 127.931 132.114C126.958 132.114 125.984 131.634 125.175 130.75L124.246 132.159C124.92 132.938 126.134 133.761 127.901 133.761C130.088 133.761 131.496 132.488 131.496 130.571C131.496 129.282 130.927 128.473 129.474 127.874Z" fill="white"/>
<defs>
<filter id="filter0_d_11382_71626" x="0.0096159" y="25.7597" width="204.981" height="80.9134" filterUnits="userSpaceOnUse" color-interpolation-filters="sRGB">
<feFlood flood-opacity="0" result="BackgroundImageFix"/>
<feColorMatrix in="SourceAlpha" type="matrix" values="0 0 0 0 0 0 0 0 0 0 0 0 0 0 0 0 0 0 127 0" result="hardAlpha"/>
<feOffset dy="4.49519"/>
<feGaussianBlur stdDeviation="4.49519"/>
<feColorMatrix type="matrix" values="0 0 0 0 0.0941177 0 0 0 0 0.188235 0 0 0 0 0.247059 0 0 0 0.19 0"/>
<feBlend mode="normal" in2="BackgroundImageFix" result="effect1_dropShadow_11382_71626"/>
<feBlend mode="normal" in="SourceGraphic" in2="effect1_dropShadow_11382_71626" result="shape"/>
</filter>
<linearGradient id="paint0_linear_11382_71626" x1="62.2548" y1="0.00148129" x2="115.415" y2="183.023" gradientUnits="userSpaceOnUse">
<stop stop-color="#3D7FFC"/>
<stop offset="1" stop-color="#0057FB"/>
</linearGradient>
<linearGradient id="paint1_linear_11382_71626" x1="37.9801" y1="4.70192" x2="119.541" y2="197.649" gradientUnits="userSpaceOnUse">
<stop stop-color="#72A2FF"/>
<stop offset="0.177083" stop-color="#87B0FF"/>
<stop offset="0.859375" stop-color="#3D7FFC"/>
</linearGradient>
</defs>
</svg>
