<svg width="50" height="50" viewBox="0 0 50 50" fill="none" xmlns="http://www.w3.org/2000/svg">
<g clip-path="url(#clip0_6036_268)">
<path d="M32.6495 28.8255L42.2132 19.2618C45.3825 16.0925 45.3825 10.9547 42.2132 7.7854C39.0438 4.61606 33.9061 4.61606 30.7368 7.7854L21.1731 17.3491L17.3477 13.5236L26.9125 3.9611C32.1939 -1.32037 40.7572 -1.32037 46.0387 3.9611C51.3201 9.24256 51.3201 17.8058 46.0387 23.0873L36.475 32.6509L32.6495 28.8266V28.8255Z" fill="#3D7FFC"/>
<path d="M17.1416 21.3817L7.7854 30.7379C4.61606 33.9072 4.61606 39.045 7.7854 42.2143C10.9547 45.3836 16.0925 45.3836 19.2618 42.2143L28.618 32.8581L32.4434 36.6836L23.0873 46.0409C17.8058 51.3224 9.24256 51.3224 3.9611 46.0409C-1.32037 40.7595 -1.32037 32.1962 3.9611 26.9148L13.3184 17.5586L17.1427 21.3829L17.1416 21.3817Z" fill="#3D7FFC"/>
<path d="M30.7361 15.4368L15.4355 30.7373L19.2611 34.5628L34.5616 19.2623L30.7361 15.4368Z" fill="#9FC0FF"/>
</g>
<defs>
<clipPath id="clip0_6036_268">
<rect width="50" height="50" fill="white"/>
</clipPath>
</defs>
</svg>
