<svg width="49" height="46" viewBox="0 0 49 46" fill="none" xmlns="http://www.w3.org/2000/svg">
<path d="M34.6553 7.1613H28.789V7.15045C28.4636 7.14644 28.1474 7.04964 27.8838 6.87243C27.6201 6.69523 27.4218 6.44693 27.316 6.16111C27.298 6.1175 27.2826 6.07276 27.27 6.02753L25.5484 0.897974L25.5042 0.769402C25.4304 0.575449 25.2917 0.408919 25.1083 0.293515C24.925 0.178112 24.7066 0.119986 24.4853 0.128208C24.264 0.136429 24.0513 0.210799 23.8785 0.339434C23.7056 0.468069 23.5817 0.644067 23.5248 0.842872L21.783 6.00832C21.7832 6.01117 21.7832 6.01466 21.783 6.01751C21.7691 6.07157 21.7512 6.1243 21.7296 6.17614C21.6216 6.45954 21.4223 6.70529 21.1588 6.87995C20.8953 7.0546 20.5803 7.14935 20.2566 7.15212V7.16297H14.3848C14.1291 7.20412 13.8977 7.32886 13.7323 7.51446C13.5669 7.70006 13.4783 7.93396 13.4826 8.17486C13.4814 8.33045 13.518 8.48424 13.5898 8.62486C13.6615 8.76548 13.7665 8.88948 13.8968 8.9872L13.9447 9.0231L18.5037 12.2458C18.7712 12.4267 18.9758 12.6768 19.092 12.9646C19.2081 13.2524 19.2309 13.5658 19.1574 13.8655C19.1374 13.952 19.1091 14.0366 19.0727 14.1184L17.3437 19.2755V19.2939L17.3308 19.3315C17.3028 19.4268 17.2886 19.5257 17.2885 19.6245C17.2843 19.7561 17.3083 19.8864 17.359 20.0094C17.4097 20.1324 17.4861 20.2455 17.5838 20.3408C17.6816 20.4362 17.7987 20.5123 17.9285 20.5654C18.0582 20.6185 18.1981 20.6471 18.3398 20.6498C18.524 20.6506 18.7049 20.6051 18.8628 20.517L19.0469 20.3901L23.5727 17.2017L23.6722 17.1299C23.9231 16.9684 24.2205 16.8805 24.5258 16.8777C24.8311 16.875 25.1302 16.957 25.3845 17.114C25.4405 17.1469 25.4935 17.184 25.5429 17.225L30.0429 20.4018L30.17 20.4928C30.3354 20.5892 30.5271 20.6395 30.7224 20.6381C30.8639 20.635 31.0034 20.6062 31.1328 20.5529C31.2623 20.4996 31.3791 20.4228 31.4766 20.3275C31.5741 20.2322 31.6504 20.1196 31.7011 19.9969C31.7517 19.8741 31.7758 19.7434 31.7719 19.612C31.7725 19.5089 31.7564 19.4067 31.724 19.3081C31.724 19.2927 31.713 19.2751 31.7075 19.258L29.9711 14.0825C29.9423 14.0154 29.9196 13.9461 29.903 13.8755C29.8713 13.7546 29.8553 13.6309 29.8551 13.5065C29.8534 13.2786 29.9058 13.0529 30.0086 12.8461C30.1114 12.6392 30.262 12.4558 30.4499 12.3092C30.4885 12.2784 30.529 12.2514 30.5696 12.2241L35.0788 9.04398L35.2151 8.94462C35.3325 8.8471 35.4261 8.72702 35.4896 8.59314C35.5532 8.45925 35.5851 8.31447 35.5833 8.16818C35.5857 7.92455 35.493 7.68789 35.3224 7.50277C35.1518 7.31765 34.9149 7.19681 34.6553 7.1613Z" fill="#FECE4D"/>
<path d="M48.0713 31.6261H42.205V31.6153C41.8796 31.6113 41.5634 31.5145 41.2998 31.3373C41.0361 31.1601 40.8379 30.9118 40.732 30.626C40.714 30.5823 40.6986 30.5376 40.686 30.4924L38.9644 25.3628L38.9202 25.2342C38.8464 25.0403 38.7077 24.8738 38.5244 24.7584C38.341 24.643 38.1227 24.5848 37.9013 24.5931C37.68 24.6013 37.4673 24.6756 37.2945 24.8043C37.1217 24.9329 36.9977 25.1089 36.9409 25.3077L35.199 30.4732C35.1992 30.476 35.1992 30.4795 35.199 30.4824C35.1851 30.5364 35.1672 30.5891 35.1456 30.641C35.0376 30.9244 34.8383 31.1701 34.5748 31.3448C34.3113 31.5194 33.9963 31.6142 33.6726 31.617V31.6278H27.8008C27.5451 31.669 27.3138 31.7937 27.1483 31.9793C26.9829 32.1649 26.8943 32.3988 26.8986 32.6397C26.8974 32.7953 26.934 32.9491 27.0058 33.0897C27.0775 33.2303 27.1825 33.3543 27.3129 33.452L27.3607 33.4879L31.9197 36.7106C32.1873 36.8916 32.3918 37.1416 32.508 37.4295C32.6242 37.7173 32.6469 38.0306 32.5734 38.3303C32.5534 38.4169 32.5251 38.5015 32.4887 38.5833L30.7597 43.7404V43.7587L30.7468 43.7963C30.7188 43.8916 30.7046 43.9906 30.7045 44.0894C30.7003 44.221 30.7243 44.3513 30.775 44.4742C30.8257 44.5972 30.9021 44.7103 30.9999 44.8057C31.0976 44.9011 31.2148 44.9772 31.3445 45.0303C31.4743 45.0834 31.6141 45.1119 31.7559 45.1146C31.94 45.1155 32.1209 45.0699 32.2788 44.9818L32.4629 44.8549L36.9887 41.6665L37.0882 41.5947C37.3391 41.4332 37.6365 41.3453 37.9418 41.3426C38.2471 41.3398 38.5463 41.4219 38.8005 41.5788C38.8566 41.6117 38.9095 41.6488 38.9589 41.6899L43.4589 44.8666L43.586 44.9576C43.7514 45.054 43.9431 45.1044 44.1384 45.1029C44.2799 45.0998 44.4194 45.071 44.5489 45.0177C44.6783 44.9645 44.7951 44.8876 44.8926 44.7923C44.9901 44.697 45.0664 44.5845 45.1171 44.4617C45.1678 44.3389 45.1918 44.2083 45.1879 44.0768C45.1885 43.9737 45.1724 43.8716 45.14 43.7729C45.14 43.7575 45.129 43.7399 45.1235 43.7228L43.3871 38.5474C43.3583 38.4803 43.3356 38.4109 43.319 38.3403C43.2874 38.2194 43.2713 38.0957 43.2712 37.9713C43.2694 37.7435 43.3218 37.5178 43.4246 37.3109C43.5274 37.104 43.6781 36.9207 43.8659 36.7741C43.9045 36.7433 43.9451 36.7163 43.9856 36.6889L48.4948 33.5088L48.6311 33.4095C48.7485 33.3119 48.8421 33.1919 48.9057 33.058C48.9692 32.9241 49.0011 32.7793 48.9993 32.633C49.0017 32.3894 48.909 32.1527 48.7384 31.9676C48.5679 31.7825 48.3309 31.6617 48.0713 31.6261Z" fill="#3D7FFC"/>
<path d="M21.2374 31.6261H15.3711V31.6153C15.0456 31.6113 14.7294 31.5145 14.4658 31.3373C14.2021 31.1601 14.0039 30.9118 13.8981 30.626C13.88 30.5823 13.8646 30.5376 13.852 30.4924L12.1304 25.3628L12.0862 25.2342C12.0125 25.0403 11.8737 24.8738 11.6904 24.7584C11.507 24.643 11.2887 24.5848 11.0674 24.5931C10.846 24.6013 10.6334 24.6756 10.4605 24.8043C10.2877 24.9329 10.1637 25.1089 10.1069 25.3077L8.36504 30.4732C8.36524 30.476 8.36524 30.4795 8.36504 30.4824C8.3511 30.5364 8.33325 30.5891 8.31163 30.641C8.2036 30.9244 8.00434 31.1701 7.74084 31.3448C7.47733 31.5194 7.16236 31.6142 6.83863 31.617V31.6278H0.966804C0.711165 31.669 0.479771 31.7937 0.314341 31.9793C0.14891 32.1649 0.0603495 32.3988 0.0645993 32.6397C0.0634312 32.7953 0.100055 32.9491 0.171784 33.0897C0.243513 33.2303 0.348483 33.3543 0.478868 33.452L0.526743 33.4879L5.08572 36.7106C5.35327 36.8916 5.55781 37.1416 5.67399 37.4295C5.79017 37.7173 5.81292 38.0306 5.7394 38.3303C5.71946 38.4169 5.6911 38.5015 5.65469 38.5833L3.92574 43.7404V43.7587L3.91285 43.7963C3.88482 43.8916 3.87059 43.9906 3.87051 44.0894C3.86634 44.221 3.8903 44.3513 3.941 44.4742C3.9917 44.5972 4.06812 44.7103 4.16588 44.8057C4.26363 44.9011 4.38077 44.9772 4.51052 45.0303C4.64028 45.0834 4.7801 45.1119 4.92187 45.1146C5.10604 45.1155 5.28692 45.0699 5.44479 44.9818L5.6289 44.8549L10.1548 41.6665L10.2542 41.5947C10.5051 41.4332 10.8025 41.3453 11.1078 41.3426C11.4131 41.3398 11.7123 41.4219 11.9665 41.5788C12.0226 41.6117 12.0755 41.6488 12.1249 41.6899L16.625 44.8666L16.752 44.9576C16.9174 45.054 17.1091 45.1044 17.3044 45.1029C17.4459 45.0998 17.5854 45.071 17.7149 45.0177C17.8443 44.9645 17.9611 44.8876 18.0586 44.7923C18.1561 44.697 18.2324 44.5845 18.2831 44.4617C18.3338 44.3389 18.3579 44.2083 18.3539 44.0768C18.3545 43.9737 18.3384 43.8716 18.3061 43.7729C18.3061 43.7575 18.295 43.7399 18.2895 43.7228L16.5531 38.5474C16.5244 38.4803 16.5016 38.4109 16.485 38.3403C16.4534 38.2194 16.4373 38.0957 16.4372 37.9713C16.4354 37.7435 16.4878 37.5178 16.5906 37.3109C16.6934 37.104 16.8441 36.9207 17.0319 36.7741C17.0706 36.7433 17.1111 36.7163 17.1516 36.6889L21.6608 33.5088L21.7971 33.4095C21.9145 33.3119 22.0082 33.1919 22.0717 33.058C22.1352 32.9241 22.1671 32.7793 22.1653 32.633C22.1677 32.3894 22.075 32.1527 21.9045 31.9676C21.7339 31.7825 21.4969 31.6617 21.2374 31.6261Z" fill="#3D7FFC"/>
</svg>
