<svg width="50" height="50" viewBox="0 0 50 50" fill="none" xmlns="http://www.w3.org/2000/svg">
<path d="M46.7015 21.7305L46.66 14.1862C46.6513 12.6116 45.3753 11.3324 43.8233 11.34L32.4072 11.4062V7.24137C32.4072 6.18362 31.5541 5.31934 30.5127 5.31934H19.4103C18.3677 5.31934 17.5158 6.18489 17.5158 7.24137V11.4902L5.99685 11.5564C4.44485 11.564 3.18267 12.8598 3.19145 14.4331L3.2316 21.7317L21.8117 26.6692V26.0353C21.8117 25.6713 22.1066 25.3734 22.4641 25.3734H27.4589C27.8165 25.3734 28.1101 25.6713 28.1101 26.0353V26.6692L46.7015 21.7305ZM20.1104 8.57407C20.1104 8.17311 20.4341 7.84471 20.8281 7.84471H29.0937C29.4889 7.84471 29.8126 8.17439 29.8126 8.57407V11.4202L20.1104 11.4762V8.57407Z" fill="#9FC0FF"/>
<path d="M46.8046 41.3308C46.8134 42.9053 45.5512 44.1998 44.0004 44.2087L6.17276 44.4251C4.62076 44.4327 3.34478 43.1535 3.336 41.579L3.23438 23.0727L21.812 28.0076V29.7272C21.812 30.0913 22.1068 30.3891 22.4644 30.3891H27.4591C27.8167 30.3891 28.1103 30.0913 28.1103 29.7272V28.0076L46.7055 23.0688L46.8071 41.3308H46.8046Z" fill="#3D7FFC"/>
</svg>
