<svg width="593" height="573" viewBox="0 0 593 573" fill="none" xmlns="http://www.w3.org/2000/svg">
<rect x="2" width="589" height="536" fill="#091B36"/>
<g style="mix-blend-mode:screen" opacity="0.7" filter="url(#filter0_f_14032_7663)">
<ellipse cx="296.5" cy="197" rx="232.5" ry="25" fill="#9E98FC"/>
</g>
<path d="M74.3811 164.389H127.831C130.591 164.389 132.823 166.606 132.823 169.334V222.319C132.823 225.048 130.591 227.265 127.831 227.265H74.3811C71.6207 227.265 69.3888 225.048 69.3888 222.319V169.334C69.3888 166.606 71.6207 164.389 74.3811 164.389Z" fill="url(#paint0_linear_14032_7663)" stroke="url(#paint1_linear_14032_7663)" stroke-width="0.777502"/>
<path d="M76.4461 168.787C76.4461 169.553 75.8089 170.185 75.0365 170.185C74.2642 170.185 73.627 169.553 73.627 168.787C73.627 168.022 74.2642 167.39 75.0365 167.39C75.8089 167.39 76.4461 168.022 76.4461 168.787Z" fill="white"/>
<path d="M81.0507 168.787C81.0507 169.553 80.4135 170.185 79.6411 170.185C78.8687 170.185 78.2315 169.553 78.2315 168.787C78.2315 168.022 78.8687 167.39 79.6411 167.39C80.4328 167.39 81.0507 168.022 81.0507 168.787Z" fill="white"/>
<path d="M85.657 168.787C85.657 169.553 85.0198 170.185 84.2474 170.185C83.475 170.185 82.8378 169.553 82.8378 168.787C82.8378 168.022 83.475 167.39 84.2474 167.39C85.0198 167.39 85.657 168.022 85.657 168.787Z" fill="white"/>
<path d="M86.75 210.25C86.3301 210.25 85.9273 210.083 85.6303 209.786C85.3334 209.489 85.1667 209.087 85.1667 208.667C85.1667 201.451 89.6214 200.232 92.5688 199.426C94.9905 198.763 96.0814 198.385 96.2318 196.497C94.3494 194.079 93.2509 191.143 93.0833 188.083C93.0856 185.984 93.9204 183.972 95.4046 182.488C96.8888 181.004 98.9011 180.169 101 180.167C103.099 180.169 105.111 181.004 106.595 182.488C108.08 183.972 108.914 185.984 108.917 188.083C108.749 191.142 107.65 194.077 105.768 196.495C105.919 198.385 107.01 198.763 109.431 199.424C112.379 200.23 116.833 201.449 116.833 208.664C116.833 209.084 116.667 209.487 116.37 209.784C116.073 210.081 115.67 210.248 115.25 210.248L86.75 210.25ZM93.4063 202.479C90.8223 203.188 88.8668 203.723 88.4267 207.084H113.573C113.133 203.723 111.178 203.188 108.594 202.479C106.626 201.941 104.095 201.248 103.059 198.709C102.414 199.008 101.712 199.164 101.001 199.167C100.29 199.164 99.5875 199.008 98.9424 198.709C97.9045 201.247 95.3736 201.938 93.4063 202.479ZM96.25 188.083C96.25 191.209 98.7984 196 101 196C103.202 196 105.75 191.209 105.75 188.083C105.749 186.824 105.248 185.617 104.357 184.726C103.467 183.836 102.259 183.335 101 183.333C99.7407 183.335 98.5334 183.836 97.6429 184.726C96.7525 185.617 96.2515 186.824 96.25 188.083Z" fill="#BFBAFC"/>
<path d="M150.593 164.389H204.043C206.804 164.389 209.036 166.606 209.036 169.334V222.319C209.036 225.048 206.804 227.265 204.043 227.265H150.593C147.833 227.265 145.601 225.048 145.601 222.319V169.334C145.601 166.606 147.833 164.389 150.593 164.389Z" fill="url(#paint2_linear_14032_7663)" stroke="url(#paint3_linear_14032_7663)" stroke-width="0.777502"/>
<path d="M152.658 168.788C152.658 169.553 152.02 170.185 151.248 170.185C150.476 170.185 149.838 169.553 149.838 168.788C149.838 168.022 150.476 167.39 151.248 167.39C152.02 167.39 152.658 168.022 152.658 168.788Z" fill="white"/>
<path d="M157.262 168.787C157.262 169.553 156.625 170.185 155.853 170.185C155.08 170.185 154.443 169.553 154.443 168.787C154.443 168.022 155.08 167.39 155.853 167.39C156.644 167.39 157.262 168.022 157.262 168.787Z" fill="white"/>
<path d="M161.869 168.787C161.869 169.553 161.231 170.185 160.459 170.185C159.687 170.185 159.049 169.553 159.049 168.787C159.049 168.022 159.687 167.39 160.459 167.39C161.231 167.39 161.869 168.022 161.869 168.787Z" fill="white"/>
<path d="M194.417 203.928V192.415L196 191.437L177 181.75L158 191.437L165.917 195.582V202.523C165.917 206.133 170.681 208.856 177 208.856C183.319 208.856 188.083 206.133 188.083 202.523V195.584L191.25 194.001V203.93C190.781 204.35 190.497 204.939 190.462 205.568C190.427 206.197 190.643 206.814 191.063 207.284C191.483 207.753 192.072 208.037 192.701 208.072C193.33 208.107 193.947 207.89 194.417 207.47C194.886 207.051 195.17 206.461 195.205 205.832C195.24 205.203 195.023 204.586 194.604 204.117C194.545 204.051 194.482 203.988 194.417 203.928ZM177 205.687C172.171 205.687 169.083 203.811 169.083 202.52C169.083 201.23 172.171 199.353 177 199.353C181.829 199.353 184.917 201.23 184.917 202.52C184.917 203.811 181.836 205.689 177 205.689V205.687ZM184.917 198.003C182.475 196.736 179.75 196.111 177 196.187C174.25 196.111 171.526 196.736 169.083 198.003V195.888L169.345 195.519C170.223 194.277 173.135 193.02 177 193.02C180.865 193.02 183.777 194.276 184.655 195.519L184.917 195.888V198.003ZM186.479 192.843C183.783 190.737 180.417 189.676 177 189.853C173.583 189.676 170.217 190.737 167.521 192.843L164.707 191.437L177 185.29L189.293 191.437L186.479 192.843Z" fill="#BFBAFC"/>
<path d="M226.805 164.389H280.255C283.016 164.389 285.248 166.606 285.248 169.334V222.319C285.248 225.048 283.016 227.265 280.255 227.265H226.805C224.045 227.265 221.813 225.048 221.813 222.319V169.334C221.813 166.606 224.045 164.389 226.805 164.389Z" fill="url(#paint4_linear_14032_7663)" stroke="url(#paint5_linear_14032_7663)" stroke-width="0.777502"/>
<path d="M228.87 168.787C228.87 169.553 228.233 170.185 227.461 170.185C226.689 170.185 226.051 169.553 226.051 168.787C226.051 168.022 226.689 167.39 227.461 167.39C228.233 167.39 228.87 168.022 228.87 168.787Z" fill="white"/>
<path d="M233.475 168.787C233.475 169.553 232.838 170.185 232.066 170.185C231.293 170.185 230.656 169.553 230.656 168.787C230.656 168.022 231.293 167.39 232.066 167.39C232.857 167.39 233.475 168.022 233.475 168.787Z" fill="white"/>
<path d="M238.081 168.787C238.081 169.553 237.444 170.185 236.672 170.185C235.899 170.185 235.262 169.553 235.262 168.787C235.262 168.022 235.899 167.39 236.672 167.39C237.444 167.39 238.081 168.022 238.081 168.787Z" fill="white"/>
<path d="M254 181.75C256.516 181.75 258.929 182.748 260.71 184.525C262.491 186.302 263.494 188.713 263.5 191.229C263.5 198.386 256.85 206.925 254.009 210.25C251.15 206.925 244.5 198.386 244.5 191.229C244.505 188.713 245.509 186.302 247.29 184.525C249.071 182.748 251.484 181.75 254 181.75ZM254 178.583C250.643 178.581 247.423 179.912 245.048 182.283C242.672 184.655 241.336 187.873 241.333 191.229C241.333 199.219 247.934 208.033 251.606 212.308C251.902 212.654 252.269 212.932 252.682 213.122C253.095 213.312 253.545 213.411 254 213.411C254.455 213.411 254.904 213.312 255.318 213.122C255.731 212.932 256.098 212.654 256.394 212.308C260.066 208.033 266.667 199.219 266.667 191.229C266.664 187.873 265.328 184.655 262.952 182.283C260.577 179.912 257.357 178.581 254 178.583Z" fill="#BFBAFC"/>
<path d="M254 189.667C254.313 189.667 254.619 189.76 254.88 189.933C255.14 190.107 255.343 190.355 255.463 190.644C255.583 190.933 255.614 191.252 255.553 191.559C255.492 191.866 255.341 192.148 255.12 192.37C254.898 192.591 254.616 192.742 254.309 192.803C254.002 192.864 253.683 192.833 253.394 192.713C253.105 192.593 252.857 192.39 252.683 192.13C252.509 191.869 252.417 191.563 252.417 191.25C252.417 190.83 252.583 190.427 252.88 190.13C253.177 189.833 253.58 189.667 254 189.667ZM254 186.5C253.061 186.5 252.142 186.779 251.361 187.301C250.58 187.822 249.971 188.564 249.612 189.432C249.252 190.3 249.158 191.255 249.341 192.177C249.525 193.098 249.977 193.944 250.641 194.609C251.306 195.273 252.152 195.725 253.073 195.909C253.995 196.092 254.95 195.998 255.818 195.638C256.686 195.279 257.428 194.67 257.949 193.889C258.471 193.108 258.75 192.189 258.75 191.25C258.75 189.99 258.25 188.782 257.359 187.891C256.468 187 255.26 186.5 254 186.5Z" fill="#BFBAFC"/>
<path d="M310.381 164.389H363.831C366.591 164.389 368.823 166.606 368.823 169.334V222.319C368.823 225.048 366.591 227.265 363.831 227.265H310.381C307.621 227.265 305.389 225.048 305.389 222.319V169.334C305.389 166.606 307.621 164.389 310.381 164.389Z" fill="url(#paint6_linear_14032_7663)" stroke="url(#paint7_linear_14032_7663)" stroke-width="0.777502"/>
<path d="M312.446 168.787C312.446 169.553 311.809 170.185 311.037 170.185C310.264 170.185 309.627 169.553 309.627 168.787C309.627 168.022 310.264 167.39 311.037 167.39C311.809 167.39 312.446 168.022 312.446 168.787Z" fill="white"/>
<path d="M317.051 168.787C317.051 169.553 316.413 170.185 315.641 170.185C314.869 170.185 314.232 169.553 314.232 168.787C314.232 168.022 314.869 167.39 315.641 167.39C316.433 167.39 317.051 168.022 317.051 168.787Z" fill="white"/>
<path d="M321.657 168.787C321.657 169.553 321.02 170.185 320.247 170.185C319.475 170.185 318.838 169.553 318.838 168.787C318.838 168.022 319.475 167.39 320.247 167.39C321.02 167.39 321.657 168.022 321.657 168.787Z" fill="white"/>
<path d="M337.396 213.417C333.873 213.417 330.429 212.372 327.5 210.415C324.57 208.457 322.287 205.676 320.939 202.421C319.591 199.166 319.238 195.584 319.926 192.129C320.613 188.674 322.309 185.5 324.8 183.009C327.292 180.518 330.465 178.821 333.921 178.134C337.376 177.447 340.958 177.799 344.212 179.148C347.467 180.496 350.249 182.779 352.206 185.708C354.164 188.637 355.208 192.081 355.208 195.604C355.203 200.327 353.324 204.854 349.985 208.194C346.646 211.533 342.118 213.411 337.396 213.417ZM337.396 181.354C334.577 181.354 331.822 182.19 329.479 183.756C327.136 185.322 325.309 187.547 324.231 190.151C323.152 192.755 322.87 195.62 323.42 198.384C323.969 201.148 325.327 203.688 327.32 205.68C329.312 207.673 331.852 209.031 334.616 209.58C337.38 210.13 340.245 209.848 342.849 208.769C345.453 207.691 347.678 205.864 349.244 203.521C350.81 201.178 351.646 198.423 351.646 195.604C351.641 191.826 350.139 188.204 347.467 185.533C344.796 182.861 341.174 181.359 337.396 181.354Z" fill="#BFBAFC"/>
<path fill-rule="evenodd" clip-rule="evenodd" d="M339.177 184.917H335.615V187.004C334.87 187.267 334.186 187.694 333.617 188.263C332.615 189.265 332.052 190.624 332.052 192.042C332.052 194.922 334.679 196.237 336.597 197.197L336.6 197.198C338.108 197.952 339.177 198.536 339.177 199.167C339.177 199.639 338.989 200.092 338.655 200.426C338.321 200.76 337.868 200.948 337.396 200.948C336.923 200.948 336.47 200.76 336.136 200.426C335.802 200.092 335.615 199.639 335.615 199.167H332.052C332.054 200.583 332.617 201.942 333.619 202.943C334.188 203.512 334.871 203.939 335.615 204.203V206.292H339.177V204.203C339.921 203.939 340.604 203.512 341.173 202.943C342.174 201.942 342.738 200.583 342.74 199.167C342.74 196.286 340.113 194.971 338.194 194.011L338.192 194.01C336.683 193.256 335.615 192.672 335.615 192.042C335.615 191.569 335.802 191.116 336.136 190.782C336.47 190.448 336.923 190.26 337.396 190.26C337.868 190.26 338.321 190.448 338.655 190.782C338.989 191.116 339.177 191.569 339.177 192.042H342.74C342.74 190.624 342.177 189.265 341.174 188.263C340.605 187.694 339.921 187.267 339.177 187.004V184.917Z" fill="#BFBAFC"/>
<path d="M386.593 164.389H440.043C442.804 164.389 445.035 166.606 445.035 169.334V222.319C445.035 225.048 442.804 227.265 440.043 227.265H386.593C383.833 227.265 381.601 225.048 381.601 222.319V169.334C381.601 166.606 383.833 164.389 386.593 164.389Z" fill="url(#paint8_linear_14032_7663)" stroke="url(#paint9_linear_14032_7663)" stroke-width="0.777502"/>
<path d="M388.658 168.788C388.658 169.553 388.02 170.185 387.248 170.185C386.476 170.185 385.838 169.553 385.838 168.788C385.838 168.022 386.476 167.39 387.248 167.39C388.02 167.39 388.658 168.022 388.658 168.788Z" fill="white"/>
<path d="M393.262 168.787C393.262 169.553 392.625 170.185 391.853 170.185C391.08 170.185 390.443 169.553 390.443 168.787C390.443 168.022 391.08 167.39 391.853 167.39C392.644 167.39 393.262 168.022 393.262 168.787Z" fill="white"/>
<path d="M397.869 168.787C397.869 169.553 397.231 170.185 396.459 170.185C395.687 170.185 395.049 169.553 395.049 168.787C395.049 168.022 395.687 167.39 396.459 167.39C397.231 167.39 397.869 168.022 397.869 168.787Z" fill="white"/>
<path fill-rule="evenodd" clip-rule="evenodd" d="M427.25 190.667H398.75V209.667H427.25V190.667ZM395.583 187.5V212.833H430.417V187.5H395.583Z" fill="#BFBAFC"/>
<path fill-rule="evenodd" clip-rule="evenodd" d="M407.458 194.625H404.292V202.542H407.458V194.625Z" fill="#BFBAFC"/>
<path fill-rule="evenodd" clip-rule="evenodd" d="M421.708 194.625H418.542V202.542H421.708V194.625Z" fill="#BFBAFC"/>
<path fill-rule="evenodd" clip-rule="evenodd" d="M418.542 184.333H407.458V187.5H418.542V184.333ZM407.458 181.167C405.709 181.167 404.292 182.584 404.292 184.333V190.667H421.708V184.333C421.708 182.584 420.291 181.167 418.542 181.167H407.458Z" fill="#BFBAFC"/>
<path fill-rule="evenodd" clip-rule="evenodd" d="M429.625 200.167H397.958V197H429.625V200.167Z" fill="#BFBAFC"/>
<path d="M462.805 164.389H516.255C519.016 164.389 521.248 166.606 521.248 169.334V222.319C521.248 225.048 519.016 227.265 516.255 227.265H462.805C460.045 227.265 457.813 225.048 457.813 222.319V169.334C457.813 166.606 460.045 164.389 462.805 164.389Z" fill="url(#paint10_linear_14032_7663)" stroke="url(#paint11_linear_14032_7663)" stroke-width="0.777502"/>
<path d="M464.87 168.788C464.87 169.553 464.233 170.185 463.46 170.185C462.688 170.185 462.051 169.553 462.051 168.788C462.051 168.022 462.688 167.39 463.46 167.39C464.233 167.39 464.87 168.022 464.87 168.788Z" fill="white"/>
<path d="M469.474 168.787C469.474 169.553 468.837 170.185 468.065 170.185C467.293 170.185 466.655 169.553 466.655 168.787C466.655 168.022 467.293 167.39 468.065 167.39C468.857 167.39 469.474 168.022 469.474 168.787Z" fill="white"/>
<path d="M474.081 168.787C474.081 169.553 473.444 170.185 472.671 170.185C471.899 170.185 471.262 169.553 471.262 168.787C471.262 168.022 471.899 167.39 472.671 167.39C473.444 167.39 474.081 168.022 474.081 168.787Z" fill="white"/>
<path d="M506.468 192.754C506.308 192.226 506.037 191.738 505.673 191.323C505.305 190.907 504.853 190.574 504.347 190.346C503.841 190.118 503.292 190.001 502.737 190.002H495.332V188.117C495.324 186.467 494.67 184.885 493.51 183.71C492.927 183.14 492.242 182.684 491.49 182.366C490.735 182.049 489.923 181.886 489.104 181.889C488.822 181.897 488.548 181.979 488.308 182.127C488.054 182.281 487.849 182.505 487.72 182.772L482.366 193.478H476.393C476.033 193.478 475.676 193.549 475.343 193.685C475.01 193.825 474.708 194.028 474.452 194.282C474.198 194.537 473.997 194.84 473.86 195.173C473.724 195.506 473.654 195.863 473.656 196.223V208.949C473.653 209.311 473.722 209.669 473.859 210.004C473.995 210.338 474.197 210.642 474.452 210.898C474.707 211.152 475.01 211.353 475.343 211.49C475.676 211.626 476.033 211.696 476.393 211.694H501.011C501.952 211.693 502.861 211.354 503.571 210.737C504.281 210.12 504.745 209.268 504.877 208.337L506.619 194.433C506.691 193.869 506.639 193.296 506.468 192.754ZM476.806 208.536V196.652H481.738V208.536H476.806ZM492.301 192.182C492.463 192.57 492.772 192.879 493.16 193.041C493.352 193.122 493.557 193.166 493.765 193.168H502.714C502.823 193.162 502.933 193.184 503.032 193.232C503.123 193.275 503.207 193.335 503.278 193.407C503.343 193.487 503.392 193.579 503.422 193.677C503.445 193.782 503.445 193.891 503.422 193.995L501.695 207.899C501.674 208.075 501.589 208.236 501.457 208.353C501.326 208.471 501.156 208.536 500.98 208.536H484.928V195.443L490.05 185.214L490.305 185.309C490.672 185.454 491.007 185.671 491.291 185.946C491.575 186.228 491.799 186.564 491.952 186.934C492.105 187.304 492.183 187.701 492.182 188.101V191.577C492.18 191.786 492.224 191.992 492.309 192.182H492.301Z" fill="#BFBAFC"/>
<g style="mix-blend-mode:screen" opacity="0.8" filter="url(#filter1_f_14032_7663)">
<ellipse cx="293" cy="397.5" rx="139" ry="75.5" fill="#9E98FC"/>
</g>
<g opacity="0.2">
<g filter="url(#filter2_bd_14032_7663)">
<rect x="216.237" y="358.675" width="234.763" height="150.742" rx="7.05108" fill="url(#paint12_linear_14032_7663)"/>
<rect x="217.044" y="359.482" width="233.149" height="149.129" rx="6.24432" stroke="url(#paint13_linear_14032_7663)" stroke-width="1.61351"/>
</g>
</g>
<g opacity="0.4">
<g filter="url(#filter3_bd_14032_7663)">
<rect x="197.492" y="342.296" width="234.763" height="150.742" rx="7.05108" fill="url(#paint14_linear_14032_7663)"/>
<rect x="198.298" y="343.103" width="233.149" height="149.129" rx="6.24432" stroke="url(#paint15_linear_14032_7663)" stroke-width="1.61351"/>
</g>
</g>
<g opacity="0.8">
<g filter="url(#filter4_bd_14032_7663)">
<rect x="178.746" y="321.823" width="234.763" height="150.742" rx="7.05108" fill="url(#paint16_linear_14032_7663)"/>
<rect x="179.553" y="322.63" width="233.149" height="149.129" rx="6.24432" stroke="url(#paint17_linear_14032_7663)" stroke-width="1.61351"/>
</g>
</g>
<g filter="url(#filter5_bd_14032_7663)">
<rect x="160" y="306.826" width="234.947" height="151.216" rx="5.39291" fill="url(#paint18_linear_14032_7663)"/>
<rect x="160.617" y="307.443" width="233.713" height="149.982" rx="4.77587" stroke="url(#paint19_linear_14032_7663)" stroke-width="1.23407"/>
</g>
<path d="M175.847 317.397C175.847 318.647 174.816 319.679 173.565 319.679C172.315 319.679 171.283 318.647 171.283 317.397C171.283 316.146 172.315 315.114 173.565 315.114C174.816 315.114 175.847 316.146 175.847 317.397Z" fill="white"/>
<path d="M184.417 317.397C184.417 318.647 183.385 319.679 182.135 319.679C180.885 319.679 179.853 318.647 179.853 317.397C179.853 316.146 180.885 315.114 182.135 315.114C183.417 315.114 184.417 316.146 184.417 317.397Z" fill="white"/>
<path d="M192.987 317.397C192.987 318.647 191.955 319.679 190.705 319.679C189.454 319.679 188.423 318.647 188.423 317.397C188.423 316.146 189.454 315.114 190.705 315.114C191.955 315.114 192.987 316.146 192.987 317.397Z" fill="white"/>
<path d="M295.868 333.968H192.709V338.171H295.868V333.968Z" fill="#FFA57E"/>
<path d="M340.586 425.772H237.427V429.976H340.586V425.772Z" fill="#8ED7FF"/>
<path d="M178.397 333.968H171.632V338.171H178.397V333.968Z" fill="white" fill-opacity="0.2"/>
<path d="M178.397 425.772H171.632V429.976H178.397V425.772Z" fill="white" fill-opacity="0.2"/>
<path d="M332.293 343.216H229.134V347.42H332.293V343.216Z" fill="#8ED7FF"/>
<path d="M366.828 435.02H271.503V439.224H366.828V435.02Z" fill="#8ED7FF"/>
<path d="M359.348 343.216H339.054V347.42H359.348V343.216Z" fill="#9D97F4"/>
<path d="M267.141 435.02H246.848V439.224H267.141V435.02Z" fill="#FFA57E"/>
<path d="M266.339 352.463H229.134V356.666H266.339V352.463Z" fill="#FFA57E"/>
<path d="M249.92 444.268H212.715V448.472H249.92V444.268Z" fill="#FFA57E"/>
<path d="M301.849 352.463H274.791V356.666H301.849V352.463Z" fill="#9D97F4"/>
<path d="M285.431 444.268H258.373V448.472H285.431V444.268Z" fill="#9D97F4"/>
<path d="M349.2 352.463H310.304V356.666H349.2V352.463Z" fill="#8ED7FF"/>
<path d="M332.782 444.268H293.886V448.472H332.782V444.268Z" fill="#8ED7FF"/>
<path d="M339.048 361.711H264.638V365.914H339.048V361.711Z" fill="#8ED7FF"/>
<path d="M372.452 453.515H309.506V457.719H372.452V453.515Z" fill="#8ED7FF"/>
<path d="M256.187 361.711H244.349V365.914H256.187V361.711Z" fill="#9D97F4"/>
<path d="M301.056 453.515H289.218V457.719H301.056V453.515Z" fill="#9D97F4"/>
<path d="M301.989 370.959H244.49V375.162H301.989V370.959Z" fill="#FFA57E"/>
<path d="M178.397 343.216H171.632V347.42H178.397V343.216Z" fill="white" fill-opacity="0.2"/>
<path d="M178.397 435.02H171.632V439.224H178.397V435.02Z" fill="white" fill-opacity="0.2"/>
<path d="M178.397 352.463H171.632V356.666H178.397V352.463Z" fill="white" fill-opacity="0.2"/>
<path d="M178.397 444.268H171.632V448.472H178.397V444.268Z" fill="white" fill-opacity="0.2"/>
<path d="M178.397 361.712H171.632V365.916H178.397V361.712Z" fill="white" fill-opacity="0.2"/>
<path d="M178.397 453.515H171.632V457.719H178.397V453.515Z" fill="white" fill-opacity="0.2"/>
<path d="M178.397 370.958H171.632V375.161H178.397V370.958Z" fill="white" fill-opacity="0.2"/>
<path d="M327.643 379.87H224.484V384.074H327.643V379.87Z" fill="#9D97F4"/>
<path d="M178.397 379.87H171.632V384.074H178.397V379.87Z" fill="white" fill-opacity="0.2"/>
<path d="M332.293 389.119H229.134V393.322H332.293V389.119Z" fill="#8ED7FF"/>
<path d="M359.348 389.119H339.054V393.322H359.348V389.119Z" fill="#FFA57E"/>
<path d="M266.339 398.366H229.134V402.57H266.339V398.366Z" fill="#FFA57E"/>
<path d="M301.849 398.366H274.791V402.57H301.849V398.366Z" fill="#9D97F4"/>
<path d="M349.2 398.366H310.304V402.57H349.2V398.366Z" fill="#8ED7FF"/>
<path d="M339.048 407.612H264.638V411.816H339.048V407.612Z" fill="#8ED7FF"/>
<path d="M256.187 407.612H244.349V411.816H256.187V407.612Z" fill="#9D97F4"/>
<path d="M261.263 416.86H203.764V421.064H261.263V416.86Z" fill="#8ED7FF"/>
<path d="M178.397 389.119H171.632V393.322H178.397V389.119Z" fill="white" fill-opacity="0.2"/>
<path d="M178.397 398.366H171.632V402.57H178.397V398.366Z" fill="white" fill-opacity="0.2"/>
<path d="M178.397 407.614H171.632V411.817H178.397V407.614Z" fill="white" fill-opacity="0.2"/>
<path d="M178.397 416.862H171.632V421.065H178.397V416.862Z" fill="white" fill-opacity="0.2"/>
<path d="M295 289.326L295 278.448C295 269.059 302.611 261.448 312 261.448L479 261.448C484.523 261.448 489 256.971 489 251.448L489 236.826" stroke="url(#paint20_linear_14032_7663)" stroke-width="2" stroke-dasharray="4 4"/>
<path d="M295 288.826L295 278.214C295 268.825 302.611 261.214 312 261.214L393 261.214C401.837 261.214 409 254.05 409 245.214L409 236.826" stroke="url(#paint21_linear_14032_7663)" stroke-width="2" stroke-dasharray="4 4"/>
<path d="M295 300L295 278.214C295 268.825 302.611 261.214 312 261.214L327 261.214C332.523 261.214 337 256.737 337 251.214L337 236.826" stroke="url(#paint22_linear_14032_7663)" stroke-width="2" stroke-dasharray="4 4"/>
<path d="M294 101.674L294 112.552C294 121.941 286.389 129.552 277 129.552L110 129.552C104.477 129.552 100 134.029 100 139.552L100 154.174" stroke="url(#paint23_linear_14032_7663)" stroke-width="2" stroke-dasharray="4 4"/>
<path d="M294 102.174L294 112.786C294 122.175 286.389 129.786 277 129.786L196 129.786C187.163 129.786 180 136.95 180 145.786L180 154.174" stroke="url(#paint24_linear_14032_7663)" stroke-width="2" stroke-dasharray="4 4"/>
<path d="M294 91L294 112.786C294 122.175 286.389 129.786 277 129.786L262 129.786C256.477 129.786 252 134.263 252 139.786L252 154.174" stroke="url(#paint25_linear_14032_7663)" stroke-width="2" stroke-dasharray="4 4"/>
<path d="M294 289.326L294 278.448C294 269.059 286.389 261.448 277 261.448L110 261.448C104.477 261.448 100 256.971 100 251.448L100 236.826" stroke="url(#paint26_linear_14032_7663)" stroke-width="2" stroke-dasharray="4 4"/>
<path d="M294 288.826L294 278.214C294 268.825 286.389 261.214 277 261.214L196 261.214C187.163 261.214 180 254.05 180 245.214L180 236.826" stroke="url(#paint27_linear_14032_7663)" stroke-width="2" stroke-dasharray="4 4"/>
<path d="M294 300L294 278.214C294 268.825 286.389 261.214 277 261.214L262 261.214C256.477 261.214 252 256.737 252 251.214L252 236.826" stroke="url(#paint28_linear_14032_7663)" stroke-width="2" stroke-dasharray="4 4"/>
<path d="M295 101.674L295 112.552C295 121.941 302.611 129.552 312 129.552L479 129.552C484.523 129.552 489 134.029 489 139.552L489 154.174" stroke="url(#paint29_linear_14032_7663)" stroke-width="2" stroke-dasharray="4 4"/>
<path d="M295 102.174L295 112.786C295 122.175 302.611 129.786 312 129.786L393 129.786C401.837 129.786 409 136.95 409 145.786L409 154.174" stroke="url(#paint30_linear_14032_7663)" stroke-width="2" stroke-dasharray="4 4"/>
<path d="M295 91L295 112.786C295 122.175 302.611 129.786 312 129.786L327 129.786C332.523 129.786 337 134.263 337 139.786L337 154.174" stroke="url(#paint31_linear_14032_7663)" stroke-width="2" stroke-dasharray="4 4"/>
<g filter="url(#filter6_dd_14032_7663)">
<ellipse cx="5" cy="5" rx="5" ry="5" transform="matrix(1 8.74228e-08 8.74228e-08 -1 363 266.826)" fill="#D1CCFF"/>
</g>
<g filter="url(#filter7_dd_14032_7663)">
<ellipse cx="3.5" cy="3.5" rx="3.5" ry="3.5" transform="matrix(1 8.74228e-08 8.74228e-08 -1 178 248.826)" fill="#D1CCFF"/>
</g>
<g filter="url(#filter8_dd_14032_7663)">
<ellipse cx="5" cy="5" rx="5" ry="5" transform="matrix(1 8.74228e-08 8.74228e-08 -1 111 266.826)" fill="#D1CCFF"/>
</g>
<g filter="url(#filter9_dd_14032_7663)">
<ellipse cx="3.5" cy="3.5" rx="3.5" ry="3.5" transform="matrix(1 8.74228e-08 8.74228e-08 -1 483 262)" fill="#D1CCFF"/>
</g>
<g filter="url(#filter10_bd_14032_7663)">
<mask id="path-108-outside-1_14032_7663" maskUnits="userSpaceOnUse" x="109" y="424" width="86" height="57" fill="black">
<rect fill="white" x="109" y="424" width="86" height="57"/>
<path fill-rule="evenodd" clip-rule="evenodd" d="M192.888 460.604C192.888 451.232 186.237 443.492 177.623 442.309C176.4 433.094 168.868 426 159.758 426C153.49 426 147.968 429.359 144.735 434.457C142.815 431.362 139.491 429.316 135.712 429.316C129.767 429.316 124.948 434.378 124.948 440.623C124.948 441.277 125.001 441.917 125.102 442.54C117.061 444.218 111 451.676 111 460.621C111 470.803 118.851 479.056 128.535 479.056C128.686 479.056 128.835 479.054 128.985 479.05V479.056H158.64C158.683 479.056 158.725 479.056 158.768 479.056C158.811 479.056 158.854 479.056 158.896 479.056H175.746V479.049C185.251 478.814 192.888 470.646 192.888 460.604Z"/>
</mask>
<path fill-rule="evenodd" clip-rule="evenodd" d="M192.888 460.604C192.888 451.232 186.237 443.492 177.623 442.309C176.4 433.094 168.868 426 159.758 426C153.49 426 147.968 429.359 144.735 434.457C142.815 431.362 139.491 429.316 135.712 429.316C129.767 429.316 124.948 434.378 124.948 440.623C124.948 441.277 125.001 441.917 125.102 442.54C117.061 444.218 111 451.676 111 460.621C111 470.803 118.851 479.056 128.535 479.056C128.686 479.056 128.835 479.054 128.985 479.05V479.056H158.64C158.683 479.056 158.725 479.056 158.768 479.056C158.811 479.056 158.854 479.056 158.896 479.056H175.746V479.049C185.251 478.814 192.888 470.646 192.888 460.604Z" fill="url(#paint32_linear_14032_7663)" shape-rendering="crispEdges"/>
<path d="M177.623 442.309L176.072 442.515L176.229 443.696L177.41 443.859L177.623 442.309ZM144.735 434.457L143.407 435.281L144.721 437.4L146.056 435.294L144.735 434.457ZM125.102 442.54L125.421 444.071L126.886 443.765L126.646 442.289L125.102 442.54ZM128.985 479.05H130.549V477.444L128.943 477.487L128.985 479.05ZM128.985 479.056H127.421V480.62H128.985V479.056ZM158.64 479.056L158.65 477.492H158.64V479.056ZM158.896 479.056V477.492L158.886 477.492L158.896 479.056ZM175.746 479.056V480.62H177.31V479.056H175.746ZM175.746 479.049L175.707 477.486L174.182 477.523V479.049H175.746ZM177.41 443.859C185.202 444.928 191.324 451.964 191.324 460.604H194.452C194.452 450.499 187.271 442.055 177.835 440.76L177.41 443.859ZM159.758 427.564C168.015 427.564 174.943 434.007 176.072 442.515L179.173 442.104C177.856 432.181 169.72 424.436 159.758 424.436V427.564ZM146.056 435.294C149.027 430.61 154.07 427.564 159.758 427.564V424.436C152.91 424.436 146.91 428.108 143.415 433.619L146.056 435.294ZM135.712 430.88C138.904 430.88 141.747 432.606 143.407 435.281L146.064 433.632C143.883 430.118 140.077 427.752 135.712 427.752V430.88ZM126.512 440.623C126.512 435.168 130.702 430.88 135.712 430.88V427.752C128.832 427.752 123.384 433.588 123.384 440.623H126.512ZM126.646 442.289C126.558 441.749 126.512 441.192 126.512 440.623H123.384C123.384 441.361 123.444 442.085 123.558 442.791L126.646 442.289ZM112.564 460.621C112.564 452.378 118.143 445.59 125.421 444.071L124.783 441.009C115.98 442.846 109.436 450.974 109.436 460.621H112.564ZM128.535 477.492C119.787 477.492 112.564 470.014 112.564 460.621H109.436C109.436 471.592 117.914 480.62 128.535 480.62V477.492ZM128.943 477.487C128.808 477.49 128.672 477.492 128.535 477.492V480.62C128.699 480.62 128.863 480.618 129.026 480.613L128.943 477.487ZM130.549 479.056V479.05H127.421V479.056H130.549ZM158.64 477.492H128.985V480.62H158.64V477.492ZM158.768 477.492C158.729 477.492 158.69 477.492 158.65 477.492L158.63 480.62C158.676 480.62 158.722 480.62 158.768 480.62V477.492ZM158.886 477.492C158.847 477.492 158.808 477.492 158.768 477.492V480.62C158.814 480.62 158.861 480.62 158.907 480.62L158.886 477.492ZM175.746 477.492H158.896V480.62H175.746V477.492ZM174.182 479.049V479.056H177.31V479.049H174.182ZM191.324 460.604C191.324 469.866 184.297 477.273 175.707 477.486L175.784 480.612C186.205 480.355 194.452 471.426 194.452 460.604H191.324Z" fill="url(#paint33_linear_14032_7663)" mask="url(#path-108-outside-1_14032_7663)"/>
</g>
<path d="M142.287 462.463H133.756L131.867 467.468H127.618L136.148 445.717H140.115L148.645 467.468H144.175L142.287 462.463ZM134.763 459.189H141.279L138.037 450.407L134.763 459.189ZM151.385 445.748H158.373C160.545 445.748 162.434 446.189 163.819 447.354C165.235 448.518 166.085 450.061 166.085 452.264C166.085 454.468 165.235 456.041 163.819 457.206C162.434 458.371 160.545 458.906 158.373 458.906H155.509V467.468H151.385V445.748ZM157.87 455.695C159.129 455.695 159.979 455.38 160.671 454.877C161.364 454.373 161.867 453.492 161.867 452.264C161.867 451.068 161.269 450.187 160.577 449.683C159.884 449.179 159.034 448.959 157.775 448.959H155.477V455.695H157.87ZM169.476 445.748H173.568V467.468H169.476V445.748Z" fill="white"/>
<g filter="url(#filter11_bd_14032_7663)">
<rect x="204" y="41" width="182" height="42" rx="7.63636" fill="url(#paint34_linear_14032_7663)" shape-rendering="crispEdges"/>
<rect x="203.375" y="40.3747" width="183.251" height="43.2505" rx="8.26164" stroke="url(#paint35_linear_14032_7663)" stroke-width="1.25055" shape-rendering="crispEdges"/>
</g>
<path d="M222.558 53.1175H225.651V69.9187H222.558V53.1175ZM230.786 56.2586C229.69 56.2586 228.911 55.5525 228.911 54.5298C228.911 53.5315 229.69 52.801 230.786 52.801C231.881 52.801 232.661 53.5315 232.661 54.5298C232.661 55.5525 231.881 56.2586 230.786 56.2586ZM229.227 58.1335H232.344V69.9187H229.227V58.1335ZM243.616 63.6122C243.616 61.859 243.299 60.4711 241.497 60.4711C239.574 60.4711 238.916 62.0782 238.916 64.0505V69.9187H235.799V58.1335H238.916L238.892 59.911H238.965C239.598 58.6692 240.791 57.9144 242.495 57.9144C245.88 57.9144 246.732 60.1058 246.732 62.9304V69.9187H243.616V63.6122ZM254.487 64.5375L253.245 65.8523V69.9187H250.152V53.1175H253.245V62.7356L257.506 58.1335H260.939L256.581 62.5895L261.524 69.9187H257.92L254.487 64.5375ZM265.579 65.0244C265.871 66.8994 267.308 67.8003 269.085 67.8003C270.668 67.8003 272.08 67.0942 272.64 66.6072L273.858 68.2873C273.2 68.9691 271.423 70.1865 268.55 70.1865C264.995 70.1865 262.365 68.0194 262.365 64.2209C262.365 60.4467 265.116 57.9144 268.477 57.9144C272.105 57.9144 274.296 60.3006 274.296 63.4417C274.296 64.0505 274.247 65.0244 274.247 65.0244H265.579ZM268.452 60.2276C266.602 60.2276 265.628 61.5181 265.53 63.0034H271.179C271.131 61.7129 270.644 60.2276 268.452 60.2276ZM285.932 68.0681H285.859C284.909 69.5778 283.448 70.1865 281.817 70.1865C278.359 70.1865 276.241 67.5081 276.241 64.0018C276.241 60.6659 278.456 57.9144 282.036 57.9144C283.618 57.9144 284.958 58.4988 285.786 59.7649H285.834C285.81 59.2293 285.81 58.5962 285.81 57.7683V53.1175H288.902V69.9187H285.956L285.932 68.0681ZM282.693 67.6542C284.568 67.6542 285.883 66.2176 285.883 64.0018C285.883 62.0295 284.592 60.3006 282.596 60.3006C280.575 60.3006 279.406 62.0295 279.406 64.0018C279.406 66.0471 280.672 67.6542 282.693 67.6542ZM294.047 56.2586C292.951 56.2586 292.172 55.5525 292.172 54.5298C292.172 53.5315 292.951 52.801 294.047 52.801C295.143 52.801 295.922 53.5315 295.922 54.5298C295.922 55.5525 295.143 56.2586 294.047 56.2586ZM292.489 58.1335H295.605V69.9187H292.489V58.1335ZM306.877 63.6122C306.877 61.859 306.56 60.4711 304.758 60.4711C302.835 60.4711 302.177 62.0782 302.177 64.0505V69.9187H299.061V58.1335H302.177L302.153 59.911H302.226C302.859 58.6692 304.052 57.9144 305.757 57.9144C309.141 57.9144 309.994 60.1058 309.994 62.9304V69.9187H306.877V63.6122ZM315.678 70.1865C314.509 70.1865 313.706 69.5048 313.706 68.3847C313.706 67.2403 314.509 66.5585 315.678 66.5585C316.798 66.5585 317.626 67.2403 317.626 68.3847C317.626 69.5048 316.798 70.1865 315.678 70.1865ZM330.494 66.315L331.371 68.6038C331.127 68.823 329.91 70.1865 326.769 70.1865C323.555 70.1865 320.584 67.9707 320.584 64.1235C320.584 60.2519 323.652 57.9144 326.817 57.9144C329.788 57.9144 330.957 59.1075 331.273 59.4241L330.421 61.7616C330.056 61.4207 329.009 60.5198 327.183 60.5198C325.332 60.5198 323.847 61.8103 323.847 63.9774C323.847 66.1445 325.332 67.5568 327.353 67.5568C329.374 67.5568 330.494 66.315 330.494 66.315ZM339.2 70.1865C335.572 70.1865 332.796 67.8003 332.796 64.0748C332.796 60.3493 335.572 57.9144 339.2 57.9144C342.804 57.9144 345.58 60.3493 345.58 64.0748C345.58 67.8003 342.804 70.1865 339.2 70.1865ZM342.365 64.0018C342.365 61.9808 341.197 60.4224 339.2 60.4224C337.155 60.4224 336.035 61.9808 336.035 64.0018C336.035 66.0228 337.155 67.6055 339.2 67.6055C341.197 67.6055 342.365 66.0228 342.365 64.0018ZM362.868 63.32C362.868 61.8834 362.551 60.4711 361.017 60.4711C359.459 60.4711 358.656 61.8103 358.656 63.8313V69.9187H355.539V63.2956C355.539 61.6886 355.125 60.4711 353.64 60.4711C352.032 60.4711 351.326 61.9808 351.326 63.8313V69.9187H348.21V58.1335H351.326L351.302 59.911H351.375C351.911 58.8153 353.347 57.9144 354.881 57.9144C356.586 57.9144 357.608 58.5962 358.169 60.1545C358.996 58.7179 360.336 57.9144 362.04 57.9144C365.132 57.9144 365.985 60.1058 365.985 62.8086V69.9187H362.868V63.32Z" fill="white"/>
<g filter="url(#filter12_dd_14032_7663)">
<ellipse cx="5.19355" cy="5.19355" rx="5.19355" ry="5.19355" transform="matrix(1 8.74228e-08 8.74228e-08 -1 307 134.387)" fill="#D1CCFF"/>
</g>
<g filter="url(#filter13_dd_14032_7663)">
<ellipse cx="3.63548" cy="3.63548" rx="3.63548" ry="3.63548" transform="matrix(1 8.74228e-08 8.74228e-08 -1 209 133.271)" fill="#D1CCFF"/>
</g>
<g filter="url(#filter14_dd_14032_7663)">
<ellipse cx="5.19355" cy="5.19355" rx="5.19355" ry="5.19355" transform="matrix(1 8.74228e-08 8.74228e-08 -1 130 134.387)" fill="#D1CCFF"/>
</g>
<g filter="url(#filter15_dd_14032_7663)">
<ellipse cx="3.63548" cy="3.63548" rx="3.63548" ry="3.63548" transform="matrix(1 8.74228e-08 8.74228e-08 -1 443 132.271)" fill="#D1CCFF"/>
</g>
<defs>
<filter id="filter0_f_14032_7663" x="0" y="108" width="593" height="178" filterUnits="userSpaceOnUse" color-interpolation-filters="sRGB">
<feFlood flood-opacity="0" result="BackgroundImageFix"/>
<feBlend mode="normal" in="SourceGraphic" in2="BackgroundImageFix" result="shape"/>
<feGaussianBlur stdDeviation="32" result="effect1_foregroundBlur_14032_7663"/>
</filter>
<filter id="filter1_f_14032_7663" x="54" y="222" width="478" height="351" filterUnits="userSpaceOnUse" color-interpolation-filters="sRGB">
<feFlood flood-opacity="0" result="BackgroundImageFix"/>
<feBlend mode="normal" in="SourceGraphic" in2="BackgroundImageFix" result="shape"/>
<feGaussianBlur stdDeviation="50" result="effect1_foregroundBlur_14032_7663"/>
</filter>
<filter id="filter2_bd_14032_7663" x="173.931" y="316.369" width="319.376" height="235.355" filterUnits="userSpaceOnUse" color-interpolation-filters="sRGB">
<feFlood flood-opacity="0" result="BackgroundImageFix"/>
<feGaussianBlur in="BackgroundImageFix" stdDeviation="21.1532"/>
<feComposite in2="SourceAlpha" operator="in" result="effect1_backgroundBlur_14032_7663"/>
<feColorMatrix in="SourceAlpha" type="matrix" values="0 0 0 0 0 0 0 0 0 0 0 0 0 0 0 0 0 0 127 0" result="hardAlpha"/>
<feMorphology radius="1.51889" operator="erode" in="SourceAlpha" result="effect2_dropShadow_14032_7663"/>
<feOffset dy="6.07555"/>
<feGaussianBlur stdDeviation="15.0541"/>
<feComposite in2="hardAlpha" operator="out"/>
<feColorMatrix type="matrix" values="0 0 0 0 0 0 0 0 0 0 0 0 0 0 0 0 0 0 0.2 0"/>
<feBlend mode="normal" in2="effect1_backgroundBlur_14032_7663" result="effect2_dropShadow_14032_7663"/>
<feBlend mode="normal" in="SourceGraphic" in2="effect2_dropShadow_14032_7663" result="shape"/>
</filter>
<filter id="filter3_bd_14032_7663" x="155.185" y="299.99" width="319.376" height="235.355" filterUnits="userSpaceOnUse" color-interpolation-filters="sRGB">
<feFlood flood-opacity="0" result="BackgroundImageFix"/>
<feGaussianBlur in="BackgroundImageFix" stdDeviation="21.1532"/>
<feComposite in2="SourceAlpha" operator="in" result="effect1_backgroundBlur_14032_7663"/>
<feColorMatrix in="SourceAlpha" type="matrix" values="0 0 0 0 0 0 0 0 0 0 0 0 0 0 0 0 0 0 127 0" result="hardAlpha"/>
<feMorphology radius="1.51889" operator="erode" in="SourceAlpha" result="effect2_dropShadow_14032_7663"/>
<feOffset dy="6.07555"/>
<feGaussianBlur stdDeviation="15.0541"/>
<feComposite in2="hardAlpha" operator="out"/>
<feColorMatrix type="matrix" values="0 0 0 0 0 0 0 0 0 0 0 0 0 0 0 0 0 0 0.2 0"/>
<feBlend mode="normal" in2="effect1_backgroundBlur_14032_7663" result="effect2_dropShadow_14032_7663"/>
<feBlend mode="normal" in="SourceGraphic" in2="effect2_dropShadow_14032_7663" result="shape"/>
</filter>
<filter id="filter4_bd_14032_7663" x="136.439" y="279.516" width="319.376" height="235.355" filterUnits="userSpaceOnUse" color-interpolation-filters="sRGB">
<feFlood flood-opacity="0" result="BackgroundImageFix"/>
<feGaussianBlur in="BackgroundImageFix" stdDeviation="21.1532"/>
<feComposite in2="SourceAlpha" operator="in" result="effect1_backgroundBlur_14032_7663"/>
<feColorMatrix in="SourceAlpha" type="matrix" values="0 0 0 0 0 0 0 0 0 0 0 0 0 0 0 0 0 0 127 0" result="hardAlpha"/>
<feMorphology radius="1.51889" operator="erode" in="SourceAlpha" result="effect2_dropShadow_14032_7663"/>
<feOffset dy="6.07555"/>
<feGaussianBlur stdDeviation="15.0541"/>
<feComposite in2="hardAlpha" operator="out"/>
<feColorMatrix type="matrix" values="0 0 0 0 0 0 0 0 0 0 0 0 0 0 0 0 0 0 0.2 0"/>
<feBlend mode="normal" in2="effect1_backgroundBlur_14032_7663" result="effect2_dropShadow_14032_7663"/>
<feBlend mode="normal" in="SourceGraphic" in2="effect2_dropShadow_14032_7663" result="shape"/>
</filter>
<filter id="filter5_bd_14032_7663" x="127.643" y="274.469" width="299.662" height="215.931" filterUnits="userSpaceOnUse" color-interpolation-filters="sRGB">
<feFlood flood-opacity="0" result="BackgroundImageFix"/>
<feGaussianBlur in="BackgroundImageFix" stdDeviation="16.1787"/>
<feComposite in2="SourceAlpha" operator="in" result="effect1_backgroundBlur_14032_7663"/>
<feColorMatrix in="SourceAlpha" type="matrix" values="0 0 0 0 0 0 0 0 0 0 0 0 0 0 0 0 0 0 127 0" result="hardAlpha"/>
<feMorphology radius="1.1617" operator="erode" in="SourceAlpha" result="effect2_dropShadow_14032_7663"/>
<feOffset dy="4.64679"/>
<feGaussianBlur stdDeviation="11.5139"/>
<feComposite in2="hardAlpha" operator="out"/>
<feColorMatrix type="matrix" values="0 0 0 0 0 0 0 0 0 0 0 0 0 0 0 0 0 0 0.2 0"/>
<feBlend mode="normal" in2="effect1_backgroundBlur_14032_7663" result="effect2_dropShadow_14032_7663"/>
<feBlend mode="normal" in="SourceGraphic" in2="effect2_dropShadow_14032_7663" result="shape"/>
</filter>
<filter id="filter6_dd_14032_7663" x="347.479" y="241.305" width="41.0418" height="41.0418" filterUnits="userSpaceOnUse" color-interpolation-filters="sRGB">
<feFlood flood-opacity="0" result="BackgroundImageFix"/>
<feColorMatrix in="SourceAlpha" type="matrix" values="0 0 0 0 0 0 0 0 0 0 0 0 0 0 0 0 0 0 127 0" result="hardAlpha"/>
<feOffset/>
<feGaussianBlur stdDeviation="3.10418"/>
<feColorMatrix type="matrix" values="0 0 0 0 0.854902 0 0 0 0 0.847059 0 0 0 0 1 0 0 0 1 0"/>
<feBlend mode="normal" in2="BackgroundImageFix" result="effect1_dropShadow_14032_7663"/>
<feColorMatrix in="SourceAlpha" type="matrix" values="0 0 0 0 0 0 0 0 0 0 0 0 0 0 0 0 0 0 127 0" result="hardAlpha"/>
<feOffset/>
<feGaussianBlur stdDeviation="7.76044"/>
<feColorMatrix type="matrix" values="0 0 0 0 0.854902 0 0 0 0 0.847059 0 0 0 0 1 0 0 0 1 0"/>
<feBlend mode="normal" in2="effect1_dropShadow_14032_7663" result="effect2_dropShadow_14032_7663"/>
<feBlend mode="normal" in="SourceGraphic" in2="effect2_dropShadow_14032_7663" result="shape"/>
</filter>
<filter id="filter7_dd_14032_7663" x="162.479" y="226.305" width="38.0418" height="38.0418" filterUnits="userSpaceOnUse" color-interpolation-filters="sRGB">
<feFlood flood-opacity="0" result="BackgroundImageFix"/>
<feColorMatrix in="SourceAlpha" type="matrix" values="0 0 0 0 0 0 0 0 0 0 0 0 0 0 0 0 0 0 127 0" result="hardAlpha"/>
<feOffset/>
<feGaussianBlur stdDeviation="3.10418"/>
<feColorMatrix type="matrix" values="0 0 0 0 0.854902 0 0 0 0 0.847059 0 0 0 0 1 0 0 0 1 0"/>
<feBlend mode="normal" in2="BackgroundImageFix" result="effect1_dropShadow_14032_7663"/>
<feColorMatrix in="SourceAlpha" type="matrix" values="0 0 0 0 0 0 0 0 0 0 0 0 0 0 0 0 0 0 127 0" result="hardAlpha"/>
<feOffset/>
<feGaussianBlur stdDeviation="7.76044"/>
<feColorMatrix type="matrix" values="0 0 0 0 0.854902 0 0 0 0 0.847059 0 0 0 0 1 0 0 0 1 0"/>
<feBlend mode="normal" in2="effect1_dropShadow_14032_7663" result="effect2_dropShadow_14032_7663"/>
<feBlend mode="normal" in="SourceGraphic" in2="effect2_dropShadow_14032_7663" result="shape"/>
</filter>
<filter id="filter8_dd_14032_7663" x="95.4791" y="241.305" width="41.0418" height="41.0418" filterUnits="userSpaceOnUse" color-interpolation-filters="sRGB">
<feFlood flood-opacity="0" result="BackgroundImageFix"/>
<feColorMatrix in="SourceAlpha" type="matrix" values="0 0 0 0 0 0 0 0 0 0 0 0 0 0 0 0 0 0 127 0" result="hardAlpha"/>
<feOffset/>
<feGaussianBlur stdDeviation="3.10418"/>
<feColorMatrix type="matrix" values="0 0 0 0 0.854902 0 0 0 0 0.847059 0 0 0 0 1 0 0 0 1 0"/>
<feBlend mode="normal" in2="BackgroundImageFix" result="effect1_dropShadow_14032_7663"/>
<feColorMatrix in="SourceAlpha" type="matrix" values="0 0 0 0 0 0 0 0 0 0 0 0 0 0 0 0 0 0 127 0" result="hardAlpha"/>
<feOffset/>
<feGaussianBlur stdDeviation="7.76044"/>
<feColorMatrix type="matrix" values="0 0 0 0 0.854902 0 0 0 0 0.847059 0 0 0 0 1 0 0 0 1 0"/>
<feBlend mode="normal" in2="effect1_dropShadow_14032_7663" result="effect2_dropShadow_14032_7663"/>
<feBlend mode="normal" in="SourceGraphic" in2="effect2_dropShadow_14032_7663" result="shape"/>
</filter>
<filter id="filter9_dd_14032_7663" x="467.479" y="239.479" width="38.0418" height="38.0418" filterUnits="userSpaceOnUse" color-interpolation-filters="sRGB">
<feFlood flood-opacity="0" result="BackgroundImageFix"/>
<feColorMatrix in="SourceAlpha" type="matrix" values="0 0 0 0 0 0 0 0 0 0 0 0 0 0 0 0 0 0 127 0" result="hardAlpha"/>
<feOffset/>
<feGaussianBlur stdDeviation="3.10418"/>
<feColorMatrix type="matrix" values="0 0 0 0 0.854902 0 0 0 0 0.847059 0 0 0 0 1 0 0 0 1 0"/>
<feBlend mode="normal" in2="BackgroundImageFix" result="effect1_dropShadow_14032_7663"/>
<feColorMatrix in="SourceAlpha" type="matrix" values="0 0 0 0 0 0 0 0 0 0 0 0 0 0 0 0 0 0 127 0" result="hardAlpha"/>
<feOffset/>
<feGaussianBlur stdDeviation="7.76044"/>
<feColorMatrix type="matrix" values="0 0 0 0 0.854902 0 0 0 0 0.847059 0 0 0 0 1 0 0 0 1 0"/>
<feBlend mode="normal" in2="effect1_dropShadow_14032_7663" result="effect2_dropShadow_14032_7663"/>
<feBlend mode="normal" in="SourceGraphic" in2="effect2_dropShadow_14032_7663" result="shape"/>
</filter>
<filter id="filter10_bd_14032_7663" x="105.266" y="420.266" width="93.3558" height="68.6945" filterUnits="userSpaceOnUse" color-interpolation-filters="sRGB">
<feFlood flood-opacity="0" result="BackgroundImageFix"/>
<feGaussianBlur in="BackgroundImageFix" stdDeviation="2.08509"/>
<feComposite in2="SourceAlpha" operator="in" result="effect1_backgroundBlur_14032_7663"/>
<feColorMatrix in="SourceAlpha" type="matrix" values="0 0 0 0 0 0 0 0 0 0 0 0 0 0 0 0 0 0 127 0" result="hardAlpha"/>
<feOffset dy="4.17018"/>
<feGaussianBlur stdDeviation="2.08509"/>
<feComposite in2="hardAlpha" operator="out"/>
<feColorMatrix type="matrix" values="0 0 0 0 0 0 0 0 0 0 0 0 0 0 0 0 0 0 0.25 0"/>
<feBlend mode="normal" in2="effect1_backgroundBlur_14032_7663" result="effect2_dropShadow_14032_7663"/>
<feBlend mode="normal" in="SourceGraphic" in2="effect2_dropShadow_14032_7663" result="shape"/>
</filter>
<filter id="filter11_bd_14032_7663" x="199.415" y="36.4147" width="191.171" height="54.5055" filterUnits="userSpaceOnUse" color-interpolation-filters="sRGB">
<feFlood flood-opacity="0" result="BackgroundImageFix"/>
<feGaussianBlur in="BackgroundImageFix" stdDeviation="1.6674"/>
<feComposite in2="SourceAlpha" operator="in" result="effect1_backgroundBlur_14032_7663"/>
<feColorMatrix in="SourceAlpha" type="matrix" values="0 0 0 0 0 0 0 0 0 0 0 0 0 0 0 0 0 0 127 0" result="hardAlpha"/>
<feOffset dy="3.3348"/>
<feGaussianBlur stdDeviation="1.6674"/>
<feComposite in2="hardAlpha" operator="out"/>
<feColorMatrix type="matrix" values="0 0 0 0 0 0 0 0 0 0 0 0 0 0 0 0 0 0 0.25 0"/>
<feBlend mode="normal" in2="effect1_backgroundBlur_14032_7663" result="effect2_dropShadow_14032_7663"/>
<feBlend mode="normal" in="SourceGraphic" in2="effect2_dropShadow_14032_7663" result="shape"/>
</filter>
<filter id="filter12_dd_14032_7663" x="290.878" y="107.878" width="42.6305" height="42.6305" filterUnits="userSpaceOnUse" color-interpolation-filters="sRGB">
<feFlood flood-opacity="0" result="BackgroundImageFix"/>
<feColorMatrix in="SourceAlpha" type="matrix" values="0 0 0 0 0 0 0 0 0 0 0 0 0 0 0 0 0 0 127 0" result="hardAlpha"/>
<feOffset/>
<feGaussianBlur stdDeviation="3.22434"/>
<feColorMatrix type="matrix" values="0 0 0 0 0.854902 0 0 0 0 0.847059 0 0 0 0 1 0 0 0 1 0"/>
<feBlend mode="normal" in2="BackgroundImageFix" result="effect1_dropShadow_14032_7663"/>
<feColorMatrix in="SourceAlpha" type="matrix" values="0 0 0 0 0 0 0 0 0 0 0 0 0 0 0 0 0 0 127 0" result="hardAlpha"/>
<feOffset/>
<feGaussianBlur stdDeviation="8.06084"/>
<feColorMatrix type="matrix" values="0 0 0 0 0.854902 0 0 0 0 0.847059 0 0 0 0 1 0 0 0 1 0"/>
<feBlend mode="normal" in2="effect1_dropShadow_14032_7663" result="effect2_dropShadow_14032_7663"/>
<feBlend mode="normal" in="SourceGraphic" in2="effect2_dropShadow_14032_7663" result="shape"/>
</filter>
<filter id="filter13_dd_14032_7663" x="192.878" y="109.878" width="39.5143" height="39.5143" filterUnits="userSpaceOnUse" color-interpolation-filters="sRGB">
<feFlood flood-opacity="0" result="BackgroundImageFix"/>
<feColorMatrix in="SourceAlpha" type="matrix" values="0 0 0 0 0 0 0 0 0 0 0 0 0 0 0 0 0 0 127 0" result="hardAlpha"/>
<feOffset/>
<feGaussianBlur stdDeviation="3.22434"/>
<feColorMatrix type="matrix" values="0 0 0 0 0.854902 0 0 0 0 0.847059 0 0 0 0 1 0 0 0 1 0"/>
<feBlend mode="normal" in2="BackgroundImageFix" result="effect1_dropShadow_14032_7663"/>
<feColorMatrix in="SourceAlpha" type="matrix" values="0 0 0 0 0 0 0 0 0 0 0 0 0 0 0 0 0 0 127 0" result="hardAlpha"/>
<feOffset/>
<feGaussianBlur stdDeviation="8.06084"/>
<feColorMatrix type="matrix" values="0 0 0 0 0.854902 0 0 0 0 0.847059 0 0 0 0 1 0 0 0 1 0"/>
<feBlend mode="normal" in2="effect1_dropShadow_14032_7663" result="effect2_dropShadow_14032_7663"/>
<feBlend mode="normal" in="SourceGraphic" in2="effect2_dropShadow_14032_7663" result="shape"/>
</filter>
<filter id="filter14_dd_14032_7663" x="113.878" y="107.878" width="42.6305" height="42.6305" filterUnits="userSpaceOnUse" color-interpolation-filters="sRGB">
<feFlood flood-opacity="0" result="BackgroundImageFix"/>
<feColorMatrix in="SourceAlpha" type="matrix" values="0 0 0 0 0 0 0 0 0 0 0 0 0 0 0 0 0 0 127 0" result="hardAlpha"/>
<feOffset/>
<feGaussianBlur stdDeviation="3.22434"/>
<feColorMatrix type="matrix" values="0 0 0 0 0.854902 0 0 0 0 0.847059 0 0 0 0 1 0 0 0 1 0"/>
<feBlend mode="normal" in2="BackgroundImageFix" result="effect1_dropShadow_14032_7663"/>
<feColorMatrix in="SourceAlpha" type="matrix" values="0 0 0 0 0 0 0 0 0 0 0 0 0 0 0 0 0 0 127 0" result="hardAlpha"/>
<feOffset/>
<feGaussianBlur stdDeviation="8.06084"/>
<feColorMatrix type="matrix" values="0 0 0 0 0.854902 0 0 0 0 0.847059 0 0 0 0 1 0 0 0 1 0"/>
<feBlend mode="normal" in2="effect1_dropShadow_14032_7663" result="effect2_dropShadow_14032_7663"/>
<feBlend mode="normal" in="SourceGraphic" in2="effect2_dropShadow_14032_7663" result="shape"/>
</filter>
<filter id="filter15_dd_14032_7663" x="426.878" y="108.878" width="39.5144" height="39.5143" filterUnits="userSpaceOnUse" color-interpolation-filters="sRGB">
<feFlood flood-opacity="0" result="BackgroundImageFix"/>
<feColorMatrix in="SourceAlpha" type="matrix" values="0 0 0 0 0 0 0 0 0 0 0 0 0 0 0 0 0 0 127 0" result="hardAlpha"/>
<feOffset/>
<feGaussianBlur stdDeviation="3.22434"/>
<feColorMatrix type="matrix" values="0 0 0 0 0.854902 0 0 0 0 0.847059 0 0 0 0 1 0 0 0 1 0"/>
<feBlend mode="normal" in2="BackgroundImageFix" result="effect1_dropShadow_14032_7663"/>
<feColorMatrix in="SourceAlpha" type="matrix" values="0 0 0 0 0 0 0 0 0 0 0 0 0 0 0 0 0 0 127 0" result="hardAlpha"/>
<feOffset/>
<feGaussianBlur stdDeviation="8.06084"/>
<feColorMatrix type="matrix" values="0 0 0 0 0.854902 0 0 0 0 0.847059 0 0 0 0 1 0 0 0 1 0"/>
<feBlend mode="normal" in2="effect1_dropShadow_14032_7663" result="effect2_dropShadow_14032_7663"/>
<feBlend mode="normal" in="SourceGraphic" in2="effect2_dropShadow_14032_7663" result="shape"/>
</filter>
<linearGradient id="paint0_linear_14032_7663" x1="75.7688" y1="168.835" x2="132.82" y2="227.82" gradientUnits="userSpaceOnUse">
<stop offset="0.173212" stop-color="#0E2446"/>
<stop offset="1" stop-color="#003C97"/>
</linearGradient>
<linearGradient id="paint1_linear_14032_7663" x1="101.106" y1="164" x2="101.106" y2="227.654" gradientUnits="userSpaceOnUse">
<stop stop-color="white" stop-opacity="0.09"/>
<stop offset="1" stop-color="#9D97F4"/>
</linearGradient>
<linearGradient id="paint2_linear_14032_7663" x1="150.139" y1="168.835" x2="205.256" y2="227.82" gradientUnits="userSpaceOnUse">
<stop stop-color="#0E2446"/>
<stop offset="1" stop-color="#003C97"/>
</linearGradient>
<linearGradient id="paint3_linear_14032_7663" x1="177.318" y1="164" x2="177.318" y2="227.654" gradientUnits="userSpaceOnUse">
<stop stop-color="white" stop-opacity="0.09"/>
<stop offset="1" stop-color="#9D97F4"/>
</linearGradient>
<linearGradient id="paint4_linear_14032_7663" x1="229.344" y1="168.835" x2="285.428" y2="227.82" gradientUnits="userSpaceOnUse">
<stop stop-color="#0E2446"/>
<stop offset="1" stop-color="#003C97"/>
</linearGradient>
<linearGradient id="paint5_linear_14032_7663" x1="253.53" y1="164" x2="253.53" y2="227.654" gradientUnits="userSpaceOnUse">
<stop stop-color="white" stop-opacity="0.09"/>
<stop offset="1" stop-color="#9D97F4"/>
</linearGradient>
<linearGradient id="paint6_linear_14032_7663" x1="310.802" y1="168.756" x2="368.82" y2="227.258" gradientUnits="userSpaceOnUse">
<stop stop-color="#0E2446"/>
<stop offset="1" stop-color="#003C97"/>
</linearGradient>
<linearGradient id="paint7_linear_14032_7663" x1="337.106" y1="164" x2="337.106" y2="227.654" gradientUnits="userSpaceOnUse">
<stop stop-color="white" stop-opacity="0.09"/>
<stop offset="1" stop-color="#9D97F4"/>
</linearGradient>
<linearGradient id="paint8_linear_14032_7663" x1="387.106" y1="170.207" x2="438.839" y2="227.258" gradientUnits="userSpaceOnUse">
<stop stop-color="#0E2446"/>
<stop offset="1" stop-color="#003C97"/>
</linearGradient>
<linearGradient id="paint9_linear_14032_7663" x1="413.318" y1="164" x2="413.318" y2="227.654" gradientUnits="userSpaceOnUse">
<stop stop-color="white" stop-opacity="0.09"/>
<stop offset="1" stop-color="#9D97F4"/>
</linearGradient>
<linearGradient id="paint10_linear_14032_7663" x1="463.893" y1="170.207" x2="512.726" y2="227.258" gradientUnits="userSpaceOnUse">
<stop stop-color="#0E2446"/>
<stop offset="1" stop-color="#003C97"/>
</linearGradient>
<linearGradient id="paint11_linear_14032_7663" x1="489.53" y1="164" x2="489.53" y2="227.654" gradientUnits="userSpaceOnUse">
<stop stop-color="white" stop-opacity="0.09"/>
<stop offset="1" stop-color="#9D97F4"/>
</linearGradient>
<linearGradient id="paint12_linear_14032_7663" x1="216.237" y1="365.053" x2="456.885" y2="511.953" gradientUnits="userSpaceOnUse">
<stop offset="0.27" stop-color="#0E2446"/>
<stop offset="1" stop-color="#003C97"/>
</linearGradient>
<linearGradient id="paint13_linear_14032_7663" x1="248.15" y1="361.69" x2="419.971" y2="504.833" gradientUnits="userSpaceOnUse">
<stop stop-color="white" stop-opacity="0"/>
<stop offset="1" stop-color="#BBB7FF"/>
</linearGradient>
<linearGradient id="paint14_linear_14032_7663" x1="197.492" y1="348.674" x2="438.139" y2="495.574" gradientUnits="userSpaceOnUse">
<stop offset="0.27" stop-color="#0E2446"/>
<stop offset="1" stop-color="#003C97"/>
</linearGradient>
<linearGradient id="paint15_linear_14032_7663" x1="229.405" y1="345.311" x2="401.226" y2="488.455" gradientUnits="userSpaceOnUse">
<stop stop-color="white" stop-opacity="0"/>
<stop offset="1" stop-color="#BBB7FF"/>
</linearGradient>
<linearGradient id="paint16_linear_14032_7663" x1="178.746" y1="328.2" x2="419.393" y2="475.1" gradientUnits="userSpaceOnUse">
<stop offset="0.27" stop-color="#0E2446"/>
<stop offset="1" stop-color="#003C97"/>
</linearGradient>
<linearGradient id="paint17_linear_14032_7663" x1="210.659" y1="324.838" x2="382.48" y2="467.981" gradientUnits="userSpaceOnUse">
<stop stop-color="white" stop-opacity="0"/>
<stop offset="1" stop-color="#BBB7FF"/>
</linearGradient>
<linearGradient id="paint18_linear_14032_7663" x1="194" y1="300.326" x2="395.174" y2="448.783" gradientUnits="userSpaceOnUse">
<stop offset="0.28" stop-color="#092349"/>
<stop offset="1" stop-color="#003C97"/>
</linearGradient>
<linearGradient id="paint19_linear_14032_7663" x1="191.938" y1="309.85" x2="364.225" y2="453.045" gradientUnits="userSpaceOnUse">
<stop stop-color="white" stop-opacity="0"/>
<stop offset="1" stop-color="#BBB7FF"/>
</linearGradient>
<linearGradient id="paint20_linear_14032_7663" x1="279.584" y1="316.553" x2="323.416" y2="159.335" gradientUnits="userSpaceOnUse">
<stop stop-color="#C3BFFF"/>
<stop offset="0.7" stop-color="#C3BFFF"/>
<stop offset="1" stop-color="#091B36" stop-opacity="0"/>
</linearGradient>
<linearGradient id="paint21_linear_14032_7663" x1="285.941" y1="315.793" x2="351.719" y2="179.523" gradientUnits="userSpaceOnUse">
<stop stop-color="#C3BFFF"/>
<stop offset="0.7" stop-color="#C3BFFF"/>
<stop offset="1" stop-color="#091B36" stop-opacity="0"/>
</linearGradient>
<linearGradient id="paint22_linear_14032_7663" x1="291.663" y1="315.793" x2="361.004" y2="233.801" gradientUnits="userSpaceOnUse">
<stop stop-color="#C3BFFF"/>
<stop offset="0.7" stop-color="#C3BFFF"/>
<stop offset="1" stop-color="#091B36" stop-opacity="0"/>
</linearGradient>
<linearGradient id="paint23_linear_14032_7663" x1="309.416" y1="74.4473" x2="265.584" y2="231.665" gradientUnits="userSpaceOnUse">
<stop stop-color="#C3BFFF"/>
<stop offset="0.7" stop-color="#C3BFFF"/>
<stop offset="1" stop-color="#091B36" stop-opacity="0"/>
</linearGradient>
<linearGradient id="paint24_linear_14032_7663" x1="303.059" y1="75.2067" x2="237.281" y2="211.477" gradientUnits="userSpaceOnUse">
<stop stop-color="#C3BFFF"/>
<stop offset="0.7" stop-color="#C3BFFF"/>
<stop offset="1" stop-color="#091B36" stop-opacity="0"/>
</linearGradient>
<linearGradient id="paint25_linear_14032_7663" x1="297.337" y1="75.2066" x2="227.996" y2="157.199" gradientUnits="userSpaceOnUse">
<stop stop-color="#C3BFFF"/>
<stop offset="0.7" stop-color="#C3BFFF"/>
<stop offset="1" stop-color="#091B36" stop-opacity="0"/>
</linearGradient>
<linearGradient id="paint26_linear_14032_7663" x1="309.416" y1="316.553" x2="265.584" y2="159.335" gradientUnits="userSpaceOnUse">
<stop stop-color="#C3BFFF"/>
<stop offset="0.7" stop-color="#C3BFFF"/>
<stop offset="1" stop-color="#091B36" stop-opacity="0"/>
</linearGradient>
<linearGradient id="paint27_linear_14032_7663" x1="303.059" y1="315.793" x2="237.281" y2="179.523" gradientUnits="userSpaceOnUse">
<stop stop-color="#C3BFFF"/>
<stop offset="0.7" stop-color="#C3BFFF"/>
<stop offset="1" stop-color="#091B36" stop-opacity="0"/>
</linearGradient>
<linearGradient id="paint28_linear_14032_7663" x1="297.337" y1="315.793" x2="227.996" y2="233.801" gradientUnits="userSpaceOnUse">
<stop stop-color="#C3BFFF"/>
<stop offset="0.7" stop-color="#C3BFFF"/>
<stop offset="1" stop-color="#091B36" stop-opacity="0"/>
</linearGradient>
<linearGradient id="paint29_linear_14032_7663" x1="279.584" y1="74.4473" x2="323.416" y2="231.665" gradientUnits="userSpaceOnUse">
<stop stop-color="#C3BFFF"/>
<stop offset="0.7" stop-color="#C3BFFF"/>
<stop offset="1" stop-color="#091B36" stop-opacity="0"/>
</linearGradient>
<linearGradient id="paint30_linear_14032_7663" x1="285.941" y1="75.2067" x2="351.719" y2="211.477" gradientUnits="userSpaceOnUse">
<stop stop-color="#C3BFFF"/>
<stop offset="0.7" stop-color="#C3BFFF"/>
<stop offset="1" stop-color="#091B36" stop-opacity="0"/>
</linearGradient>
<linearGradient id="paint31_linear_14032_7663" x1="291.663" y1="75.2067" x2="361.004" y2="157.199" gradientUnits="userSpaceOnUse">
<stop stop-color="#C3BFFF"/>
<stop offset="0.7" stop-color="#C3BFFF"/>
<stop offset="1" stop-color="#091B36" stop-opacity="0"/>
</linearGradient>
<linearGradient id="paint32_linear_14032_7663" x1="200.138" y1="479.17" x2="115.691" y2="437.989" gradientUnits="userSpaceOnUse">
<stop stop-color="white" stop-opacity="0"/>
<stop offset="1.0001" stop-color="white" stop-opacity="0.33"/>
</linearGradient>
<linearGradient id="paint33_linear_14032_7663" x1="151.944" y1="426" x2="151.944" y2="479.056" gradientUnits="userSpaceOnUse">
<stop stop-color="#D7D4FF"/>
<stop offset="1" stop-color="#5B588E" stop-opacity="0.7"/>
</linearGradient>
<linearGradient id="paint34_linear_14032_7663" x1="402.113" y1="83.0908" x2="321.294" y2="-27.5623" gradientUnits="userSpaceOnUse">
<stop stop-color="white" stop-opacity="0"/>
<stop offset="1.0001" stop-color="white" stop-opacity="0.33"/>
</linearGradient>
<linearGradient id="paint35_linear_14032_7663" x1="295" y1="41.0006" x2="295" y2="83.0009" gradientUnits="userSpaceOnUse">
<stop stop-color="#D7D4FF"/>
<stop offset="1" stop-color="#5B588E" stop-opacity="0.7"/>
</linearGradient>
</defs>
</svg>
