<svg width="50" height="50" viewBox="0 0 50 50" fill="none" xmlns="http://www.w3.org/2000/svg">
<path d="M48.0475 36.2479L31.3967 44.6904C29.1594 46.1139 26.3134 46.0892 24.1119 44.6712C23.0787 44.0047 22.7539 43.9407 17.3194 41.2538C14.905 40.0722 12.7048 39.6959 9.11914 39.254V28.8242H21.0107C21.7494 28.8242 22.4567 29.1181 22.9789 29.6406C23.1424 29.804 21.8941 28.5558 28.3276 34.9882C28.8166 35.4768 29.0585 36.1293 29.0405 36.7748L29.155 36.6964L46.6082 32.3024C48.9209 32.01 49.9567 35.0361 48.0475 36.2479Z" fill="#C6DBFF"/>
<path fill-rule="evenodd" clip-rule="evenodd" d="M9.71353 41.4313V28.5367C9.71353 26.9176 8.38868 25.5928 6.76925 25.5928H6.76894H4.00836H4.00804C3.83166 25.5928 3.65934 25.6082 3.49069 25.6392C3.49069 25.6392 3.49068 25.6392 3.49068 25.6392C2.11555 25.8857 1.06445 27.0941 1.06445 28.5367V41.4313C1.06445 43.0507 2.3893 44.3752 4.00836 44.3752H6.76925C8.20567 44.3752 9.40901 43.3335 9.66308 41.9693H9.6635H9.66382C9.69585 41.7947 9.71353 41.6143 9.71353 41.4313Z" fill="#3D7FFC"/>
<path d="M7.13067 39.734C7.13067 40.6958 6.35116 41.4753 5.38937 41.4753C4.42795 41.4753 3.64844 40.6958 3.64844 39.734C3.64844 38.7722 4.42795 37.9927 5.38937 37.9927C6.35116 37.9927 7.13067 38.7722 7.13067 39.734Z" fill="#FECE4D"/>
<path d="M47.4767 15.5075L45.3873 15.2028C45.1254 14.5696 45.0543 14.4008 44.7924 13.7667L46.0552 12.076C46.3918 11.6235 46.3462 10.994 45.9475 10.5962L44.2331 8.8809C43.8354 8.4831 43.2049 8.43839 42.7542 8.77415L41.0626 10.0369C40.4295 9.7732 40.2597 9.70386 39.6266 9.44201L39.3227 7.35267C39.2415 6.79521 38.7644 6.38281 38.2014 6.38281H35.7763C35.2134 6.38281 34.7353 6.79521 34.6541 7.35267L34.3512 9.44201C33.718 9.70386 33.5483 9.7732 32.9151 10.0369L31.2226 8.77415C30.7719 8.43748 30.1415 8.4831 29.7437 8.8809L28.0293 10.5962C27.6315 10.994 27.5859 11.6244 27.9226 12.0751L29.1853 13.7676C28.9235 14.4017 28.8523 14.5705 28.5905 15.2037L26.5011 15.5084C25.9436 15.5887 25.5312 16.0668 25.5312 16.6297V19.0548C25.5312 19.6187 25.9445 20.0958 26.5011 20.177L28.5905 20.4799C28.8523 21.114 28.9226 21.2828 29.1853 21.9169L27.9226 23.6076C27.5859 24.0592 27.6315 24.6896 28.0293 25.0874L29.7437 26.8009C30.1415 27.1996 30.7719 27.2452 31.2226 26.9086L32.9151 25.6458C33.5483 25.9077 33.718 25.9788 34.3512 26.2407L34.6541 28.33C34.7353 28.8866 35.2134 29.3008 35.7763 29.3008H38.2005C38.7634 29.3008 39.2415 28.8875 39.3227 28.33L39.6266 26.2407C40.2597 25.9788 40.4295 25.9086 41.0626 25.6458L42.7542 26.9086C43.2058 27.2452 43.8363 27.1996 44.2331 26.8009L45.9475 25.0874C46.3453 24.6896 46.3918 24.0583 46.0552 23.6076L44.7888 21.9115C45.0506 21.281 45.12 21.1113 45.3818 20.4799L47.4767 20.1761C48.0341 20.0949 48.4474 19.6178 48.4474 19.0539V16.6288C48.4474 16.0668 48.0341 15.5878 47.4767 15.5075ZM36.9898 23.2134C34.0227 23.2134 31.6168 20.8093 31.6168 17.8414C31.6168 14.8734 34.0227 12.4684 36.9898 12.4684C39.9568 12.4684 42.3619 14.8743 42.3619 17.8414C42.3619 20.8084 39.9578 23.2134 36.9898 23.2134Z" fill="#FECE4D"/>
<path d="M20.075 8.74933L19.0239 9.16767C18.7327 8.94401 18.6545 8.88475 18.3631 8.66066L18.4961 7.53787C18.5311 7.23769 18.3413 6.95779 18.0497 6.88001L16.7947 6.54337C16.5035 6.46536 16.199 6.61351 16.0798 6.89006L15.6332 7.92917C15.2687 7.97645 15.1714 7.98974 14.8074 8.03787L14.1067 7.14976C13.9197 6.91284 13.5878 6.84932 13.3265 7.00013L12.2012 7.64982C11.94 7.80063 11.8287 8.12008 11.9403 8.40051L12.3595 9.45117C12.1359 9.74231 12.0757 9.81995 11.8525 10.1119L10.7289 9.97942C10.4295 9.94394 10.1492 10.134 10.0712 10.4252L9.73522 11.6804C9.6572 11.9715 9.80494 12.2763 10.0819 12.3953L11.1213 12.8423C11.1696 13.2067 11.1818 13.3041 11.23 13.6681L10.3421 14.3692C10.1049 14.5558 10.0417 14.8881 10.1925 15.1494L10.8422 16.2747C10.9932 16.5363 11.3128 16.647 11.5928 16.5356L12.6435 16.1164C12.9349 16.3405 13.0127 16.4 13.3045 16.6238L13.1715 17.7466C13.1363 18.0464 13.3263 18.3267 13.6175 18.4047L14.8721 18.7405C15.1635 18.8189 15.4682 18.6712 15.5872 18.3942L16.0342 17.3549C16.3982 17.3068 16.496 17.2943 16.86 17.2462L17.5603 18.1345C17.7471 18.371 18.0799 18.4352 18.3411 18.2844L19.466 17.6349C19.7272 17.4841 19.8383 17.1642 19.7266 16.8838L19.3079 15.8329C19.5315 15.5417 19.5915 15.4637 19.8149 15.1721L20.9381 15.3049C21.2379 15.3401 21.5182 15.15 21.5955 14.8587L21.932 13.6043C22.01 13.3132 21.8625 13.0077 21.5855 12.8888L20.5435 12.441C20.4961 12.0783 20.4828 11.981 20.4351 11.6179L21.3258 10.9157C21.5627 10.7287 21.6267 10.3965 21.4756 10.1349L20.8259 9.00957C20.6753 8.74878 20.3552 8.63723 20.075 8.74933ZM17.2733 15.1346C15.8965 15.9294 14.136 15.4584 13.3409 14.0812C12.5458 12.704 13.0179 10.9435 14.3947 10.1486C15.7715 9.35369 17.532 9.82579 18.3269 11.2026C19.1218 12.5794 18.6505 14.3394 17.2733 15.1346Z" fill="#FECE4D"/>
</svg>
