<svg width="50" height="50" viewBox="0 0 50 50" fill="none" xmlns="http://www.w3.org/2000/svg">
<g clip-path="url(#clip0_6036_274)">
<path d="M17.41 1C8.35 1 1 8.35 1 17.41C1 26.47 8.35 33.82 17.41 33.82C18.67 33.82 19.88 33.67 21.06 33.4C21.33 31.41 22 29.55 23 27.91C23.01 27.89 23.03 27.86 23.04 27.84C24.24 25.88 25.88 24.23 27.84 23.04C27.86 23.03 27.89 23.01 27.91 23C29.56 22.01 31.41 21.33 33.4 21.06C33.67 19.89 33.82 18.67 33.82 17.41C33.82 8.35 26.48 1 17.41 1ZM23.63 22.04C23.35 22.64 22.95 23.17 22.45 23.59C21.94 24.03 21.32 24.37 20.61 24.63C20.16 24.79 19.69 24.9 19.19 24.97L19.22 26.42C19.22 26.49 19.19 26.56 19.14 26.61C19.09 26.66 19.02 26.69 18.95 26.69L16.78 26.74C16.71 26.74 16.64 26.71 16.59 26.66C16.54 26.61 16.51 26.54 16.51 26.47L16.48 24.92C16.08 24.86 15.7 24.77 15.35 24.66C14.51 24.39 13.82 24 13.25 23.5C12.68 23 12.23 22.37 11.94 21.67C11.64 20.96 11.46 20.17 11.41 19.32L14.21 19.26C14.27 19.81 14.41 20.28 14.65 20.68C14.87 21.07 15.16 21.4 15.51 21.67C15.86 21.93 16.26 22.12 16.69 22.23C17.15 22.35 17.62 22.4 18.1 22.39C18.53 22.39 18.96 22.33 19.38 22.22C19.77 22.12 20.1 21.98 20.37 21.8C20.63 21.64 20.84 21.41 20.99 21.15C21.13 20.89 21.2 20.6 21.19 20.3C21.19 19.98 21.1 19.71 20.95 19.49C20.8 19.27 20.56 19.07 20.23 18.9C19.9 18.73 19.47 18.58 18.93 18.44C18.39 18.3 17.74 18.17 16.96 18.03C16.07 17.85 15.3 17.64 14.66 17.39C14.02 17.14 13.48 16.84 13.06 16.49C12.66 16.16 12.34 15.75 12.12 15.27C11.91 14.81 11.8 14.27 11.79 13.67C11.78 13.02 11.9 12.41 12.16 11.86C12.42 11.3 12.81 10.81 13.29 10.42C13.78 10.01 14.37 9.69 15.06 9.45C15.39 9.33 15.75 9.24 16.12 9.18L16.09 7.69C16.09 7.62 16.12 7.55 16.17 7.5C16.22 7.45 16.29 7.42 16.36 7.42L18.53 7.37C18.6 7.37 18.67 7.4 18.72 7.45C18.77 7.5 18.8 7.57 18.8 7.64L18.83 9.16C19.16 9.21 19.49 9.28 19.8 9.38C20.54 9.61 21.17 9.94 21.71 10.38C22.25 10.83 22.69 11.38 23 12.02C23.32 12.67 23.49 13.41 23.53 14.24L20.76 14.3C20.52 12.54 19.44 11.68 17.51 11.72C16.57 11.74 15.86 11.92 15.37 12.24C14.88 12.56 14.64 13.01 14.65 13.56C14.65 13.77 14.71 13.97 14.83 14.14C14.94 14.3 15.12 14.45 15.36 14.59C15.6 14.72 15.91 14.85 16.28 14.95C16.65 15.05 17.11 15.16 17.65 15.26C18.12 15.34 18.59 15.44 19.08 15.55C19.57 15.65 20.04 15.78 20.52 15.94C20.98 16.09 21.42 16.28 21.85 16.51C22.26 16.73 22.63 17.01 22.95 17.34C23.28 17.68 23.54 18.07 23.71 18.5C23.9 18.95 24 19.48 24.02 20.08C24.04 20.79 23.9 21.45 23.62 22.05L23.63 22.04Z" fill="#3D7FFC"/>
<path d="M32.6392 23.52C28.1092 24.56 24.5492 28.11 23.5192 32.64C23.3192 33.52 23.1992 34.42 23.1992 35.36C23.1992 35.59 23.2192 35.81 23.2292 36.03C29.3192 34.13 34.1192 29.32 36.0192 23.24C35.7992 23.23 35.5792 23.21 35.3492 23.21C34.4092 23.21 33.5092 23.33 32.6292 23.53L32.6392 23.52Z" fill="#FECE4D"/>
<path d="M36.0302 23.23C34.1302 29.32 29.3202 34.12 23.2402 36.02C23.5902 42.42 28.8802 47.51 35.3602 47.51C41.8402 47.51 47.5202 42.07 47.5202 35.35C47.5202 28.63 42.4302 23.58 36.0302 23.23ZM40.1702 37.59L36.2002 41.56C35.8202 41.94 35.1902 41.94 34.8102 41.56L30.8402 37.59C30.4602 37.21 30.4602 36.58 30.8402 36.2C31.2202 35.82 31.8502 35.82 32.2302 36.2L34.5202 38.49V28.8C34.5202 28.26 34.9602 27.82 35.5002 27.82C36.0402 27.82 36.4802 28.26 36.4802 28.8V38.49L38.7702 36.2C39.1502 35.82 39.7802 35.82 40.1602 36.2C40.5402 36.58 40.5402 37.21 40.1602 37.59H40.1702Z" fill="#FECE4D"/>
</g>
<defs>
<clipPath id="clip0_6036_274">
<rect width="46.51" height="46.51" fill="white" transform="translate(1 1)"/>
</clipPath>
</defs>
</svg>
