<svg width="50" height="50" viewBox="0 0 50 50" fill="none" xmlns="http://www.w3.org/2000/svg">
<path d="M45.5847 2.17383H4.45861C3.08766 2.17383 2.17383 3.08766 2.17383 4.45861V45.5847C2.17383 46.7271 3.08766 47.8695 4.45861 47.8695H45.5847C46.7271 47.8695 47.8695 46.7271 47.8695 45.5847V4.45861C47.8695 3.08766 46.7271 2.17383 45.5847 2.17383ZM18.1673 6.74339C19.5383 6.74339 20.4521 7.65723 20.4521 9.02818C20.4521 10.1706 19.5383 11.313 18.1673 11.313C16.7964 11.313 15.8825 10.1706 15.8825 9.02818C15.8825 7.65723 16.7964 6.74339 18.1673 6.74339ZM9.02818 6.74339C10.1706 6.74339 11.313 7.65723 11.313 9.02818C11.313 10.1706 10.3991 11.313 9.02818 11.313C7.65723 11.313 6.74339 10.1706 6.74339 9.02818C6.74339 7.65723 7.65723 6.74339 9.02818 6.74339ZM43.2999 43.2999H6.74339V15.8825H43.2999V43.2999Z" fill="#C6DBFF"/>
<path d="M33.2548 28.4689L29.1424 32.5814C28.2286 33.4952 28.2286 34.8662 29.1424 35.78C29.5995 36.2371 30.7419 37.1509 32.341 35.78L38.053 30.068C38.5101 29.6109 38.7383 29.1542 38.7383 28.4685C38.7383 27.7832 38.5097 27.3261 38.053 26.869L32.341 21.1571C31.4272 20.2432 30.0562 20.2432 29.1424 21.1571C28.2286 22.0709 28.2286 23.4418 29.1424 24.3557L33.2548 28.4689Z" fill="#FECE4D"/>
<path d="M16.8018 28.4686L20.9142 32.581C21.8281 33.4949 21.8281 34.8658 20.9142 35.7797C20.4572 36.2367 19.3147 37.1506 17.7156 35.7797L12.0037 30.0677C11.5469 29.6109 11.3184 29.1539 11.3184 28.4685C11.3184 27.7832 11.5469 27.3261 12.0037 26.869L17.7156 21.1571C18.6295 20.2432 20.0004 20.2432 20.9142 21.1571C21.8281 22.0709 21.8281 23.4418 20.9142 24.3557L16.8018 28.4686Z" fill="#FECE4D"/>
<ellipse cx="8.91861" cy="8.90103" rx="2.59634" ry="2.59634" fill="#3D7FFC"/>
<ellipse cx="18.2741" cy="8.90103" rx="2.59634" ry="2.59634" fill="#3D7FFC"/>
<ellipse cx="27.6178" cy="8.90103" rx="2.59634" ry="2.59634" fill="#3D7FFC"/>
</svg>
