<svg width="50" height="50" viewBox="0 0 50 50" fill="none" xmlns="http://www.w3.org/2000/svg">
<path d="M42.2344 14.2228L45.3869 9.28271L47.8569 10.8602L44.7044 15.8003L42.2344 14.2228Z" fill="#9FC0FF"/>
<path d="M33.2734 10.2476L35.151 4.70508L37.926 5.64509L36.046 11.1876L33.2734 10.2476Z" fill="#9FC0FF"/>
<path d="M23.5332 3.19141H26.4632V9.05146H23.5332V3.19141Z" fill="#9FC0FF"/>
<path d="M12.0781 5.63288L14.8532 4.69287L16.7332 10.2354L13.9581 11.1754L12.0781 5.63288Z" fill="#9FC0FF"/>
<path d="M2.13867 10.8602L4.60867 9.28271L7.76122 14.2228L5.2912 15.7978L2.13867 10.8577V10.8602Z" fill="#9FC0FF"/>
<path d="M38.1835 23.7019C38.1835 25.4869 37.831 27.217 37.161 28.812C37.251 28.8095 37.341 28.807 37.4285 28.807C39.386 28.807 41.2261 29.5695 42.6086 30.952L44.0761 32.4195C46.2961 30.662 48.3011 28.6845 50.0011 26.5995C46.1511 22.1769 41.0911 18.1769 35.541 15.7769C37.256 18.0469 38.1835 20.7994 38.1835 23.7019Z" fill="#3D7FFC"/>
<path d="M30.1128 35.8523C28.5152 36.5248 26.7827 36.8773 24.9977 36.8773C21.4827 36.8773 18.1752 35.5123 15.6876 33.0348C13.1901 30.5473 11.8151 27.2323 11.8151 23.6972C11.8151 20.7922 12.7451 18.0347 14.4626 15.7646C13.7751 16.0647 13.0876 16.3897 12.3976 16.7472C8.09007 18.9722 3.85754 22.1972 0 26.6298C6.20006 33.7723 15.5126 39.8149 24.9977 39.8149C26.9152 39.8149 28.8403 39.5699 30.7428 39.1149C30.2878 38.0899 30.0728 36.9748 30.1128 35.8548V35.8523Z" fill="#3D7FFC"/>
<path d="M37.4313 31.7305C36.7638 31.7305 36.1188 31.878 35.5338 32.158L33.2138 29.838C34.4938 28.1304 35.2538 26.0054 35.2538 23.6954C35.2538 18.0004 30.6437 13.4453 24.9987 13.4453C19.3536 13.4453 14.7461 18.0054 14.7461 23.6954C14.7461 29.3855 19.3561 33.9455 24.9987 33.9455C27.2987 33.9455 29.4262 33.1905 31.1413 31.908L33.4663 34.233C32.6863 35.8655 32.9713 37.883 34.3238 39.2331L41.5739 46.4831L47.7889 40.2681L40.5388 33.018C39.7088 32.188 38.6038 31.7305 37.4313 31.7305ZM24.9987 28.0905C22.5762 28.0905 20.6062 26.1179 20.6062 23.6954C20.6062 21.2729 22.5762 19.3004 24.9987 19.3004C27.4212 19.3004 29.3937 21.2729 29.3937 23.6954C29.3937 26.1179 27.4237 28.0905 24.9987 28.0905Z" fill="#FECE4D"/>
<path d="M24.9982 25.1644C25.8082 25.1644 26.4632 24.5094 26.4632 23.6994C26.4632 22.8894 25.8082 22.2344 24.9982 22.2344C24.1882 22.2344 23.5332 22.8894 23.5332 23.6994C23.5332 24.5094 24.1907 25.1644 24.9982 25.1644Z" fill="#9FC0FF"/>
</svg>
