<svg width="50" height="50" viewBox="0 0 50 50" fill="none" xmlns="http://www.w3.org/2000/svg">
<g clip-path="url(#clip0_6036_206)">
<path d="M22.8478 39.9703C22.108 39.9703 20.8205 38.2184 19.7733 34.8906C19.6964 34.6403 19.6195 34.3715 19.5427 34.1027C19.4946 33.9359 19.4466 33.7597 19.3985 33.5836C19.3601 33.426 19.3121 33.2592 19.2736 33.0923C19.2736 33.0552 19.2544 33.0274 19.2448 32.9904H19.2544C19.0527 32.1839 18.8701 31.2848 18.7068 30.33C18.6972 30.2651 18.6875 30.2095 18.6779 30.1446H25.1249C26.7487 27.7716 29.093 25.9177 31.8601 24.8517C31.8985 23.934 31.9274 23.007 31.9274 22.0708C31.9274 20.7731 31.8889 19.4939 31.8121 18.1961H40.9108C41.2087 19.4475 41.3624 20.7545 41.3624 22.0801C41.3624 22.7475 41.324 23.4056 41.2471 24.0452C41.2375 24.1565 41.2087 24.2677 41.1895 24.3789C42.6499 24.7775 44.0238 25.3801 45.2633 26.1772C45.2825 26.1031 45.3017 26.0197 45.3209 25.9455C45.3305 25.8806 45.3497 25.8157 45.3593 25.7416C45.4554 25.1947 45.5323 24.6292 45.5803 24.073C45.5803 23.9896 45.5899 23.8969 45.5995 23.8135C45.6188 23.6096 45.638 23.4056 45.6476 23.2017C45.6668 22.8217 45.6764 22.4509 45.6764 22.0708C45.6764 9.88135 35.4439 0 22.8478 0C22.8478 0 22.8478 0 22.8382 0C22.8286 0 22.8382 0 22.8286 0C11.6065 0 2.25788 7.86059 0.355496 18.1961C0.345888 18.261 0.326672 18.3259 0.317064 18.4001C0.220984 18.947 0.14412 19.5124 0.0960799 20.0686C0.0960799 20.152 0.0864719 20.2447 0.076864 20.3281C0.028824 20.9029 0 21.4776 0 22.0616C0 22.6641 0.028824 23.2666 0.086472 23.8598C0.086472 23.9155 0.0864719 23.9618 0.0960799 24.0174C0.153728 24.6107 0.230592 25.1854 0.326672 25.7601C0.326672 25.8065 0.345888 25.8435 0.345888 25.8806C2.22905 36.2347 11.6065 44.1138 22.8478 44.1138C23.3186 44.1138 23.7894 44.0768 24.2602 44.0489C23.5972 42.7697 23.1457 41.3886 22.9151 39.924C22.8958 39.924 22.867 39.9425 22.8478 39.9425V39.9703ZM39.364 13.997H31.3893C30.8993 10.6878 30.0922 7.61958 28.9777 5.19095C33.5031 6.72043 37.2118 9.90916 39.3736 13.997H39.364ZM18.8797 12.8198C19.0911 11.7075 19.3409 10.6971 19.6003 9.79792C19.6099 9.76085 19.6195 9.72377 19.6387 9.67742C19.8405 8.9822 20.0615 8.36114 20.2825 7.7957C21.2145 5.42269 22.2137 4.18057 22.8382 4.1713C23.4627 4.18057 24.4716 5.42269 25.3939 7.7957C25.759 8.73192 26.1145 9.85354 26.422 11.142H26.4124C26.6238 12.0041 26.8255 12.9681 26.9985 13.997H18.6683C18.7356 13.5892 18.8028 13.1999 18.8701 12.8198H18.8797ZM4.31399 22.0616C4.31399 21.3941 4.35242 20.736 4.42929 20.0779C4.50615 19.4383 4.62145 18.7987 4.76556 18.1776H13.8643C13.7875 19.4661 13.749 20.7545 13.749 22.0616C13.749 23.3686 13.7875 24.6385 13.8643 25.9362H4.76556C4.46772 24.6848 4.31399 23.3778 4.31399 22.0523V22.0616ZM6.33167 30.1353H14.2967C14.7867 33.4353 15.5842 36.485 16.6987 38.9043C12.2022 37.3749 8.49347 34.2047 6.34128 30.1353H6.33167ZM14.2967 13.997H6.33167C8.48386 9.91843 12.2022 6.75751 16.6987 5.21876C15.5842 7.63812 14.7867 10.6878 14.2967 13.997ZM18.063 22.1079C18.063 22.1079 18.063 22.0801 18.063 22.0616C18.063 22.043 18.063 22.0337 18.063 22.0152C18.063 20.6618 18.1015 19.4012 18.1975 18.1869H27.4789C27.5269 18.7616 27.5557 19.3548 27.5749 19.9666C27.5942 20.6433 27.6134 21.3385 27.6134 22.0708C27.6134 22.6641 27.6038 23.2295 27.5845 23.795C27.5653 24.5273 27.5269 25.2503 27.4789 25.9455H18.1975C18.1015 24.7312 18.063 23.452 18.063 22.1079Z" fill="#3D7FFC"/>
<path d="M37.7601 26.3809C30.9961 26.3809 25.5195 31.6645 25.5195 38.1903C25.5195 44.716 30.9961 49.9997 37.7601 49.9997C44.5241 49.9997 50.0007 44.716 50.0007 38.1903C50.0007 31.6645 44.5241 26.3809 37.7601 26.3809ZM44.2071 42.343L42.0645 44.4102C41.9876 44.4843 41.8819 44.5214 41.7763 44.5214C41.6706 44.5214 41.5649 44.4843 41.488 44.4009L37.2989 40.3594L35.7809 44.2248C35.7232 44.3823 35.5599 44.4843 35.3869 44.4843C35.214 44.4843 35.0603 44.3638 35.0122 44.2062L31.2267 32.369C31.1786 32.2299 31.2267 32.0724 31.3324 31.9704C31.4381 31.8684 31.6014 31.8314 31.7455 31.8684L44.0149 35.5206C44.1783 35.567 44.2936 35.7153 44.3032 35.8822C44.3032 36.049 44.2071 36.2066 44.0341 36.2622L40.0276 37.7268L44.2167 41.7683C44.2936 41.8425 44.3416 41.9445 44.3416 42.0464C44.3416 42.1484 44.3032 42.2503 44.2263 42.3245L44.2071 42.343Z" fill="#FECE4D"/>
</g>
<defs>
<clipPath id="clip0_6036_206">
<rect width="50" height="50" fill="white"/>
</clipPath>
</defs>
</svg>
