<svg xmlns="http://www.w3.org/2000/svg" width="164" height="36" viewBox="0 0 164 36">
    <defs>
        <style>
            .cls-1{fill:#5b92b6}.cls-2{fill:#2b383f}
        </style>
    </defs>
    <g id="CT" transform="translate(.186 .266)">
        <g id="Group_2747" transform="translate(11.335 3.996)">
            <path id="Path_39332" d="M3.574-219A4.573 4.573 0 0 0-1-214.438v12.88A4.573 4.573 0 0 0 3.574-197a4.573 4.573 0 0 0 4.574-4.562v-2.952H4.92v2.952a1.345 1.345 0 0 1-1.345 1.342 1.345 1.345 0 0 1-1.345-1.342v-12.88a1.345 1.345 0 0 1 1.345-1.342 1.345 1.345 0 0 1 1.345 1.342v2.952h3.229v-2.952A4.573 4.573 0 0 0 3.574-219z" class="cls-1" transform="translate(1 220.073)"/>
            <path id="Path_39333" d="M63.709-203A4.708 4.708 0 0 0 59-198.3v8.318a4.708 4.708 0 0 0 4.709 4.7 4.708 4.708 0 0 0 4.709-4.7v-8.318a4.708 4.708 0 0 0-4.709-4.7zm1.48 13.014a1.479 1.479 0 0 1-1.48 1.476 1.479 1.479 0 0 1-1.48-1.476v-8.314a1.479 1.479 0 0 1 1.48-1.476 1.479 1.479 0 0 1 1.48 1.476z" class="cls-1" transform="translate(-42.855 208.367)"/>
            <path id="Path_39334" d="M264.574-202a4.573 4.573 0 0 0-4.574 4.562v8.05a4.573 4.573 0 0 0 4.574 4.562 4.573 4.573 0 0 0 4.574-4.562v-1.073h-2.691v1.073a1.883 1.883 0 0 1-1.884 1.878 1.883 1.883 0 0 1-1.884-1.878v-1.441l6.458-3.08v-3.529a4.573 4.573 0 0 0-4.573-4.562zm1.884 6.4l-3.767 1.8v-3.634a1.883 1.883 0 0 1 1.884-1.878 1.883 1.883 0 0 1 1.884 1.878z" class="cls-2" transform="translate(-189.769 207.635)"/>
            <path id="Path_39335" d="M302.44-202a4.439 4.439 0 0 0-4.44 4.428v8.318a4.321 4.321 0 0 0 4.305 4.428 3.879 3.879 0 0 0 1.884-.542v.274h2.691v-4.562h-.014c0-.089.014-.178.014-.268v-7.648a4.439 4.439 0 0 0-4.44-4.428zm-.135 14.49a1.646 1.646 0 0 1-1.615-1.744v-8.318a1.749 1.749 0 0 1 1.749-1.744 1.749 1.749 0 0 1 1.749 1.744v7.648c.001 1.083-1.037 2.414-1.883 2.414z" class="cls-2" transform="translate(-217.543 207.635)"/>
            <path id="Path_39336" d="M340.92-210.4a1.749 1.749 0 0 1-1.749 1.744h-1.48V-221H335v22h2.691v-6.7h1.48a1.749 1.749 0 0 1 1.749 1.744V-199h2.691v-4.964a4.405 4.405 0 0 0-1.4-3.22 4.4 4.4 0 0 0 1.4-3.22v-4.964h-2.691z" class="cls-2" transform="translate(-244.587 221.537)"/>
            <path id="Path_39337" d="M104.92-188.388a1.345 1.345 0 0 1-1.345 1.342 1.345 1.345 0 0 1-1.345-1.342V-201H99v12.612a4.573 4.573 0 0 0 4.574 4.562 4.573 4.573 0 0 0 4.574-4.562V-201h-3.228z" class="cls-1" transform="translate(-72.091 206.903)"/>
            <path id="Path_39338" d="M214.84-188.388a1.614 1.614 0 0 1-1.615 1.61 1.614 1.614 0 0 1-1.615-1.61V-201h-2.69v12.612a1.614 1.614 0 0 1-1.615 1.61 1.614 1.614 0 0 1-1.615-1.61V-201H203v12.612a4.3 4.3 0 0 0 4.305 4.293 4.292 4.292 0 0 0 2.96-1.184 4.292 4.292 0 0 0 2.96 1.184 4.3 4.3 0 0 0 4.305-4.293V-201h-2.69z" class="cls-2" transform="translate(-148.107 206.903)"/>
            <path id="Path_39339" d="M144.189-217.392a4.69 4.69 0 0 0-1.48-.241 4.708 4.708 0 0 0-4.709 4.7v8.318a4.708 4.708 0 0 0 4.709 4.7 4.708 4.708 0 0 0 4.709-4.7V-223h-3.229zm0 12.773a1.48 1.48 0 0 1-1.48 1.476 1.479 1.479 0 0 1-1.48-1.476v-8.318a1.479 1.479 0 0 1 1.48-1.476 1.479 1.479 0 0 1 1.48 1.476v8.318z" class="cls-1" transform="translate(-100.597 223)"/>
            <path id="Path_39340" d="M41.229-204.217V-223H38v18.783a4.3 4.3 0 0 0 4.305 4.293h1.076v-3.22h-1.076a1.076 1.076 0 0 1-1.076-1.073z" class="cls-1" transform="translate(-27.506 223)"/>
            <path id="Path_39341" d="M185.611-215.317V-218H177v2.683h2.96v18.517h2.691v-18.515z" class="cls-2" transform="translate(-129.103 219.342)"/>
            <path id="Path_39342" d="M377.265-201a4.573 4.573 0 0 0-4.574 4.562v7.513a1.883 1.883 0 0 1-1.884 1.878H370v2.683h.807a4.573 4.573 0 0 0 4.574-4.562v-7.513a1.883 1.883 0 0 1 1.884-1.878h1.076V-201z" class="cls-2" transform="translate(-270.169 206.903)"/>
        </g>
        <path id="Rectangle_3085" fill="none" d="M0 0H164V36H0z" transform="translate(-.186 -.266)"/>
    </g>
</svg>
