<svg xmlns="http://www.w3.org/2000/svg" width="164" height="36" viewBox="0 0 164 36">
    <defs>
        <style>
            .cls-2{fill:#555656}
        </style>
    </defs>
    <g id="Forbs" transform="translate(-.352 .252)">
        <g id="forbes" transform="translate(4.668 8.459)">
            <g id="Group_3576">
                <path id="Union_47" fill="#1d3e73" stroke="rgba(0,0,0,0)" stroke-miterlimit="10" d="M65.155 18.073c-.3-.09-.28-.3-.283-.515v-1.49h-.06c0-.444.012-.885 0-1.326-.011-.3 0-.533.361-.625.4-.1.388.241.467.43a7 7 0 0 0 1.16 1.988 3.1 3.1 0 0 0 2.814 1.085 1.958 1.958 0 0 0 1.7-1.481 1.734 1.734 0 0 0-.915-2.1 15.737 15.737 0 0 0-1.639-.777c-.478-.211-.977-.372-1.448-.6A3.488 3.488 0 0 1 65.1 9.2a3.68 3.68 0 0 1 2.379-3.4 8.647 8.647 0 0 1 6.3-.037.5.5 0 0 1 .4.529q.047 1.241.117 2.483c.014.271-.007.464-.351.526s-.377-.168-.441-.361a5.914 5.914 0 0 0-.773-1.547 2.835 2.835 0 0 0-2.223-1.255 1.807 1.807 0 0 0-1.838 1.126 1.84 1.84 0 0 0 .524 2.1 7.366 7.366 0 0 0 1.872 1.036c.6.267 1.221.508 1.814.8a3.321 3.321 0 0 1 2.08 3.276 3.764 3.764 0 0 1-2.143 3.561 7.925 7.925 0 0 1-3.488.773 14.331 14.331 0 0 1-4.174-.737zM13.335 12.2a6.465 6.465 0 0 1 6.633-7c3.908-.1 6.471 2.448 6.559 6.506.087 4.168-2.549 6.988-6.626 7.083h-.2c-3.817.006-6.261-2.518-6.366-6.589zM18.3 6.968a3.783 3.783 0 0 0-.388.9 15.437 15.437 0 0 0-.4 5.745 8.153 8.153 0 0 0 .725 2.951 1.974 1.974 0 0 0 1.878 1.37c1.016-.039 1.474-.74 1.8-1.579a5.557 5.557 0 0 0 .166-.554 11.449 11.449 0 0 0 .315-3.526c0-.634.051-1.274-.012-1.9A6.9 6.9 0 0 0 21.31 6.86a1.844 1.844 0 0 0-1.482-.83 1.82 1.82 0 0 0-1.528.938zm33.78 6.623c-.643-3.729 1.062-6.963 4.232-8.025 4.115-1.377 7.552 1.014 7.666 5.317.012.4-.1.529-.5.522-1.188-.021-2.374-.009-3.563-.007-1.105 0-2.212.037-3.312-.016-.625-.03-.711.2-.676.752.255 4.018 3.6 5.91 7.154 4.027.2-.11.363-.241.551.016s-.011.409-.154.561a6.411 6.411 0 0 1-4.631 2.053h-.255a6.342 6.342 0 0 1-6.512-5.2zM57 6.8a5.59 5.59 0 0 0-.91 2.28c-.276 1.37-.261 1.372 1.145 1.354h.662V10.4c.552 0 1.1-.007 1.655 0 .3 0 .464-.076.439-.418a9.126 9.126 0 0 0-.491-2.906 1.425 1.425 0 0 0-1.254-1.022A1.61 1.61 0 0 0 57 6.8zM43.586 18.791a23.689 23.689 0 0 1-4.276-.453c-.524-.1-.673-.308-.651-.864q.279-6.831.013-13.666c-.041-1.078-.13-2.1-1.556-2.175a.235.235 0 0 1-.238-.274c.013-.3.25-.326.467-.368Q39.578.563 41.811.14c.243-.046.487-.09.765-.14v6.092a7.024 7.024 0 0 1 3.662-.7 5.3 5.3 0 0 1 4.481 4.474 8.483 8.483 0 0 1-.366 4.724c-.995 2.671-3.446 4.2-6.716 4.2zm-.5-11.947c-.4.092-.589.244-.58.706q.09 4.841.118 9.685c0 .485.209.588.634.632a2.458 2.458 0 0 0 2.5-1.421 9 9 0 0 0 1.053-4.616A7.121 7.121 0 0 0 46.1 8.3a2.563 2.563 0 0 0-2.319-1.542 3.12 3.12 0 0 0-.697.086zM26.671 18.149c0-.3.085-.432.411-.46.915-.071 1.255-.664 1.322-1.508a49.257 49.257 0 0 0-.004-7.857c-.065-.8-.377-1.377-1.274-1.455-.209-.019-.46-.023-.446-.356.013-.3.248-.248.418-.28 1.595-.32 3.193-.625 4.786-.949.414-.085.526.041.505.457-.036.7-.009 1.4-.009 2.285a6.778 6.778 0 0 1 1.413-1.887 3.575 3.575 0 0 1 3.307-.852c.464.117.729.278.453.851a23.514 23.514 0 0 0-.986 2.448c-.15.421-.285.48-.692.262a3.4 3.4 0 0 0-2.8-.255 1 1 0 0 0-.754 1.03c-.081 2.044-.042 4.085.043 6.129.062 1.5.327 1.784 1.816 1.982.267.035.474.055.478.412s-.2.386-.471.384h-7.043c-.276.001-.48-.011-.473-.381zM0 18.158c-.032-.476.264-.43.565-.48A1.934 1.934 0 0 0 2.492 15.6a79.049 79.049 0 0 0 0-12.328c-.1-1.345-.607-1.841-1.917-2.09C.287 1.129-.043 1.2.007.706.046.294.29.331.51.368a1.389 1.389 0 0 0 .184.021c2.29-.017 4.582-.01 6.874-.01S12.153.4 14.443.363c.594-.009.741.179.736.743-.016 1.269.023 2.54.076 3.809.018.446-.126.623-.563.724-.494.113-.476-.251-.568-.5-.6-1.648-1.435-3.083-3.338-3.425a10.857 10.857 0 0 0-2.237-.094c-.411.009-.825.021-1.234.007-.325-.011-.332.175-.352.414C6.8 4.191 6.821 6.345 6.8 8.5c0 .368.113.485.471.451.384-.035.772-.019 1.161-.028 1.4-.032 1.966-.469 2.435-1.9.112-.342.149-.726.664-.611.478.106.239.492.244.736.023 1.572.021 3.147 0 4.722 0 .239.216.632-.31.681-.43.041-.463-.234-.561-.543a3.031 3.031 0 0 0-3.857-2.06c-.29.078-.234.262-.234.434a34.522 34.522 0 0 0 .287 5.45c.216 1.329.687 1.713 2.023 1.871.273.034.643-.092.641.414 0 .425-.253.409-.5.391-.051 0-.1-.007-.144 0q-4.266.007-8.533 0c-.086 0-.181.016-.269.016-.158-.007-.297-.061-.318-.366z" transform="translate(0 .384)"/>
                <path id="Path_52470" d="M-1192.874 3107.209c-.578 0-.518.313-.517.68q.006 4.515 0 9.028c0 2.981 0 5.963.005 8.945 0 .315-.171.729.455.749s.567-.333.567-.737q-.006-8.987 0-17.973c.001-.361.077-.69-.51-.692z" class="cls-2" transform="translate(1277.584 -3107.209)"/>
                <path id="Path_52471" d="M-894.9 3130.271c-.048-.274-.307-.161-.476-.164a18.421 18.421 0 0 0-2.221-.005 1.433 1.433 0 0 0-1.233 1.926c.174.541.882 1 .208 1.652-.046.044-.017.25.045.311.336.326.116.428-.161.628a1.09 1.09 0 0 0 .129 1.942 3.278 3.278 0 0 0 3.019-.123 1.247 1.247 0 0 0 .6-1.493 1.135 1.135 0 0 0-1.154-.88c-.385-.024-.773-.014-1.153-.066-.263-.036-.684.085-.663-.4.018-.417.317-.492.693-.525 1.62-.14 2.084-.828 1.624-2.393a2.576 2.576 0 0 1 .309-.068c.222-.02.486-.018.434-.342zm-2.711 4.388c.19-.018.384 0 .576 0v-.011a1.85 1.85 0 0 1 .329 0c.431.082 1.042-.053 1.057.632.016.657-.51.856-1.048.949a4.5 4.5 0 0 1-.9.027c-.511-.017-.965-.178-.964-.777-.006-.579.439-.771.946-.82zm.389-2.092a.9.9 0 0 1-.956-1 .906.906 0 0 1 1.035-1 .925.925 0 0 1 1.007 1.012.936.936 0 0 1-1.09.988z" class="cls-2" transform="translate(1027.71 -3126.271)"/>
                <path id="Path_52472" d="M-1033.423 3122.153c.026.8.011 1.6 0 2.4 0 .27 0 .477.377.47.336-.007.337-.183.334-.421-.011-.939.027-1.881-.032-2.816-.063-1-.53-1.4-1.534-1.481a2.079 2.079 0 0 0-1.607.591v-1.955c0-.268.066-.568-.383-.559-.391.009-.351.267-.351.512v5.636c0 .256-.022.489.364.492s.375-.209.376-.477c0-.8-.015-1.6.035-2.4a1.233 1.233 0 0 1 1.344-1.261c.716.003 1.048.369 1.077 1.269z" class="cls-2" transform="translate(1143.329 -3116.528)"/>
                <path id="Path_52473" d="M-1088.884 3134.459c.269-.078.67-.12.552-.554-.133-.49-.456-.086-.655-.058-.786.115-1.541.22-2.063-.577a.913.913 0 0 1-.167-.853c.112-.239.446-.088.68-.107s.5 0 .743 0h1.238c.225 0 .422.007.46-.319a2.255 2.255 0 0 0-1.168-2.111 2.019 2.019 0 0 0-2.4.76 3.054 3.054 0 0 0 .071 3.129 2.5 2.5 0 0 0 2.709.69zm-1.537-4.034a1.054 1.054 0 0 1 1.147.22.891.891 0 0 1 .336.879c-.106.35-.47.109-.713.161a2.017 2.017 0 0 1-.41.005.79.79 0 0 1-.245 0c-.3-.1-.815.278-.893-.226a1 1 0 0 1 .779-1.039z" class="cls-2" transform="translate(1189.92 -3126.001)"/>
                <path id="Path_52474" d="M-927.107 3129.753a2.1 2.1 0 0 0-2.126 2.41 2.137 2.137 0 0 0 2.142 2.407 2.134 2.134 0 0 0 2.141-2.41 2.161 2.161 0 0 0-2.157-2.407zm1.21 3.433a1.243 1.243 0 0 1-1.24.779 1.206 1.206 0 0 1-1.22-.921 3.061 3.061 0 0 1-.067-1.463 1.308 1.308 0 0 1 1.314-1.215 1.355 1.355 0 0 1 1.354 1.283c.022.163.022.328.033.493a3.133 3.133 0 0 1-.177 1.045z" class="cls-2" transform="translate(1052.693 -3126.01)"/>
                <path id="Path_52475" d="M-972.071 3129.747a2.111 2.111 0 0 0-2.1 2.436 2.136 2.136 0 0 0 2.167 2.382 2.141 2.141 0 0 0 2.116-2.436 2.158 2.158 0 0 0-2.183-2.382zm.142 4.213c-.917.083-1.52-.649-1.507-1.829.013-1.151.589-1.834 1.485-1.763.864.069 1.307.712 1.286 1.869-.017 1.054-.455 1.65-1.264 1.723z" class="cls-2" transform="translate(1090.17 -3126.004)"/>
                <path id="Path_52476" d="M-1082.877 3185.675a2.1 2.1 0 0 0-2.139 2.4 2.141 2.141 0 0 0 2.128 2.421 2.129 2.129 0 0 0 2.155-2.4 2.163 2.163 0 0 0-2.144-2.421zm1.184 3.46a1.237 1.237 0 0 1-1.257.749 1.166 1.166 0 0 1-1.139-.8 2.9 2.9 0 0 1 0-2 1.16 1.16 0 0 1 1.146-.785 1.247 1.247 0 0 1 1.224.678 2.451 2.451 0 0 1 .213 1.15 2.729 2.729 0 0 1-.187 1.008z" class="cls-2" transform="translate(1183.992 -3172.646)"/>
                <path id="Path_52477" d="M-867.7 3130.762c-.347 1.083-.759 2.146-1.172 3.3-.43-1.14-.847-2.187-1.217-3.251-.173-.5-.4-.763-.975-.513.533 1.326 1.069 2.652 1.6 3.98a1.4 1.4 0 0 1-1.2 2.068c-.2.027-.4-.016-.38.285.018.282.238.263.419.294a1.514 1.514 0 0 0 1.732-1.093c.75-1.828 1.44-3.681 2.155-5.525-.562-.222-.803-.051-.962.455z" class="cls-2" transform="translate(1004.186 -3126.382)"/>
                <path id="Path_52478" d="M-1113.512 3176.443a3.282 3.282 0 0 0-3.567.81 3.978 3.978 0 0 0-.131 4.285 3.244 3.244 0 0 0 3.528.954c.277-.092.428-.219.359-.527-.077-.345-.3-.11-.454-.111a3.021 3.021 0 0 0-.41.05c-1.822.231-2.781-.607-2.787-2.437-.007-1.988 1.2-2.912 3.139-2.392.29.078.5.149.648-.208s-.154-.357-.325-.424z" class="cls-2" transform="translate(1211.511 -3164.769)"/>
                <path id="Path_52479" d="M-1001.468 3131.46c.026.772 0 1.546.008 2.32 0 .255-.1.563.37.554.5-.01.324-.354.328-.583.015-.828.034-1.659-.005-2.486a1.678 1.678 0 0 0-2.653-1.431c-.262.145-.526.576-.721-.106-.042-.146-.525-.153-.521.3.006.635 0 1.271 0 1.906v1.906c0 .255-.023.489.364.493s.375-.208.376-.476c0-.8-.015-1.6.035-2.4a1.231 1.231 0 0 1 1.342-1.262c.716.005 1.045.365 1.077 1.265z" class="cls-2" transform="translate(1115.599 -3125.838)"/>
                <path id="Path_52480" d="M-1015.767 3187.215a1.67 1.67 0 0 0-2.495-1.542c-.3.13-.586.679-.943-.03-.1-.208-.479-.014-.465.38.021.607.005 1.215.005 1.823v1.906c0 .242-.055.5.342.512.449.018.391-.264.394-.54.008-.8-.016-1.6.043-2.4a1.233 1.233 0 0 1 1.4-1.2c.8.039 1 .583 1.015 1.247.018.8.005 1.6.006 2.4 0 .246-.049.489.353.491s.356-.233.355-.482c-.001-.853.026-1.71-.01-2.565z" class="cls-2" transform="translate(1129.085 -3172.484)"/>
                <path id="Path_52481" d="M-1048.065 3188.483v-1.822c0-.242.06-.5-.339-.516-.438-.017-.4.25-.406.537-.011.827.007 1.659-.062 2.482a1.206 1.206 0 0 1-1.374 1.124c-.742-.035-.99-.5-1-1.164-.008-.828-.007-1.657-.008-2.485 0-.255.023-.489-.362-.5-.37-.006-.387.189-.384.466.011.883-.037 1.771.023 2.65a1.669 1.669 0 0 0 2.483 1.486c.309-.127.6-.69.954.029.083.171.495.025.479-.386-.022-.629-.004-1.265-.004-1.901z" class="cls-2" transform="translate(1156.26 -3173.037)"/>
                <path id="Path_52482" d="M-1118.781 3121.579c.466-.051.63.114.605.593-.038.714-.01 1.432-.01 2.148v2.231c0 .285-.1.626.411.6.465-.02.347-.335.349-.583.008-1.047 0-2.094.006-3.14 0-.576-.157-1.258.1-1.694.24-.413.962-.1 1.469-.148.218-.022.377-.057.382-.317s-.123-.333-.359-.332q-1.942.006-3.885 0c-.237 0-.348.078-.345.333s.151.315.37.312c.302-.002.607.03.907-.003z" class="cls-2" transform="translate(1213.435 -3118.661)"/>
                <path id="Path_52483" d="M-1060.289 3134.487c.258-.048.481-.178.408-.5-.087-.387-.348-.12-.527-.117a5.979 5.979 0 0 1-.814.069c-.967-.122-1.39-1.008-1.146-2.34a1.324 1.324 0 0 1 1.5-1.193c.328.019.875.449.934-.174s-.626-.279-.945-.447a.327.327 0 0 0-.081-.014 1.984 1.984 0 0 0-2.155 1.645 2.556 2.556 0 0 0 1.042 2.963 2.781 2.781 0 0 0 1.784.108z" class="cls-2" transform="translate(1165.694 -3126.02)"/>
                <path id="Path_52484" d="M-986.4 3189.792c-.661.148-1.319.163-1.7-.471a2.343 2.343 0 0 1-.038-2.368c.372-.7 1.046-.722 1.731-.528.3.085.493 0 .544-.3.056-.332-.229-.313-.432-.358a2.153 2.153 0 0 0-2.858 2.327c-.008 1.8 1.177 2.772 2.84 2.329.284-.077.559-.179.453-.544-.102-.352-.372-.127-.54-.087z" class="cls-2" transform="translate(1102.666 -3172.65)"/>
                <path id="Path_52485" d="M-949.39 3174.3c-.383 0-.366.243-.366.5v2.812c0 .965.009 1.929 0 2.894 0 .313.09.443.422.436s.32-.219.32-.444v-5.707c-.004-.264.001-.491-.376-.491z" class="cls-2" transform="translate(1069.813 -3163.16)"/>
                <path id="Path_52486" d="M-940.018 3121.732v-2.812c0-.283.034-.56-.4-.537-.4.021-.33.295-.33.528v5.624c0 .259-.016.486.367.488s.373-.213.372-.479c-.012-.938-.009-1.875-.009-2.812z" class="cls-2" transform="translate(1062.303 -3116.526)"/>
                <path id="Path_52487" d="M-962 3188.492v-1.9c0-.228.018-.433-.323-.439s-.421.129-.418.438q.017 1.9 0 3.793c0 .308.081.445.416.439s.326-.208.325-.437v-1.894z" class="cls-2" transform="translate(1080.637 -3173.047)"/>
                <path id="Path_52488" d="M-962.46 3176.052a.377.377 0 0 0-.424.4.393.393 0 0 0 .362.464c.275.021.4-.156.422-.4a.385.385 0 0 0-.36-.464z" class="cls-2" transform="translate(1080.758 -3164.621)"/>
            </g>
        </g>
        <path id="Rectangle_3082" fill="none" d="M0 0H164V36H0z" transform="translate(.352 -.252)"/>
    </g>
</svg>
