<svg xmlns="http://www.w3.org/2000/svg" width="169.047" height="57.725" viewBox="0 0 169.047 57.725">
    <g>
        <path d="M232.218 118.612a11.846 11.846 0 0 0-.418 2.276c-.764 3.049-2.359 5.538-5.279 6.79s-6.835.964-8.668-2.244a6.833 6.833 0 0 1 .109-7.124 7.871 7.871 0 0 1 3.212-3.253c1.029-.531 2.236-1 3.4-.124a.517.517 0 0 0 .812-.091c.621-.754 1.279-1.479 1.864-2.26a2.86 2.86 0 0 0 .471-2.052c-.051-.529.163-.977.712-.981a.929.929 0 0 1 .947.923 2.358 2.358 0 0 1-.792 1.919 68.075 68.075 0 0 1-4.9 4.792 36.912 36.912 0 0 0-4.289 4.551c-.741.955-.568 2.143.429 3.213a4.91 4.91 0 0 0 4.12 1.54 8.161 8.161 0 0 0 7.435-7.209c.059-.739.42-1.471-.478-1.967a2.409 2.409 0 0 0-2.741-.091 1.237 1.237 0 0 0 .247 2.183c.545.207.936.481.718 1.142a1.255 1.255 0 0 1-1.552.722 1.982 1.982 0 0 1-1.164-2.4 4.794 4.794 0 0 1 4.966-3.283 3.788 3.788 0 0 1 2.089 1.423c.415.463.829.93 1.279 1.359a.936.936 0 0 0 1.441-.058.858.858 0 0 0 .008-1.351 1.48 1.48 0 0 1-.321-.5.758.758 0 0 1 .455-1.058.791.791 0 0 1 1.1.544 2.185 2.185 0 0 1-.2 1.833 3.635 3.635 0 0 1-2.909 1.885c-.885.063-1.408-.561-2.103-1.049zm-14 1.891c.1.433-.125.913.2 1.061.366.165.549-.333.766-.559 1.05-1.092 2.041-2.241 3.1-3.326.35-.36.813-.661.531-1.2-.262-.5-.82-.448-1.3-.38a2.076 2.076 0 0 0-.733.211 5.118 5.118 0 0 0-2.562 4.19z" transform="translate(-38.073 -62.187) translate(-105.267 -27.879)"/>
        <path d="M238.388 75.381c-2.524-.084-4.659-.893-5.987-3.091a6.053 6.053 0 0 1 2.157-8.409c2.571-1.5 6.615-1.4 8.733.649a6.263 6.263 0 0 1 .169 8.6 7.319 7.319 0 0 1-5.072 2.251zm-4.257-6.531a6.508 6.508 0 0 0 1.02 3.759 4.01 4.01 0 0 0 6.34.813c1.944-2 2.025-7.659-1.538-9.39a3.764 3.764 0 0 0-5.024 1.431 6.418 6.418 0 0 0-.798 3.387z" transform="translate(-38.073 -62.187) translate(-113.865 -.396)"/>
        <path d="M175.022 63.589a35.325 35.325 0 0 1 3.884.025 2.738 2.738 0 0 1 .538 5.394c-.41.131-.495.365-.3.714a16.3 16.3 0 0 0 3.047 4.344 6.3 6.3 0 0 0 1.306.8c.159.087.422.155.315.429a.43.43 0 0 1-.425.246c-.835-.022-1.673-.017-2.5-.111-.525-.06-.794-.563-1.041-.961-.8-1.29-1.548-2.609-2.3-3.924a1.7 1.7 0 0 0-2.021-.838c-.3.088-.318.3-.319.529q-.01 1.855-.006 3.711c0 .788.675.821 1.186 1.026.186.075.529-.087.5.289-.018.242-.272.288-.468.289-1.525 0-3.05 0-4.574-.022-.177 0-.452-.044-.475-.289-.03-.322.26-.219.437-.253 1.057-.2 1.329-.471 1.339-1.538.025-2.589.034-5.179 0-7.768-.015-1.232-.172-1.362-1.391-1.655-.165-.039-.392-.025-.386-.25.007-.283.265-.257.458-.258 1.066-.006 2.133 0 3.2 0zm.171 2.946c0 2.688.058 2.746 2.393 2.261a2.439 2.439 0 0 0 1.789-2.89c-.35-1.36-1.477-2.018-3.12-1.864-.763.072-1.223.321-1.074 1.206a7.863 7.863 0 0 1 .011 1.287z" transform="translate(-38.073 -62.187) translate(-78.46 -.783)"/>
        <path d="M425.924 172.778a16.946 16.946 0 0 1 4.061.218c-1.288.206-1.341 1.111-1.339 2.071q.014 4.532 0 9.064c0 .258.162.632-.216.746-.293.088-.441-.219-.606-.408q-3.081-3.531-6.155-7.069c-.414-.476-.829-.95-1.231-1.436-.121-.146-.246-.253-.434-.2-.228.06-.18.267-.18.429 0 2.158-.016 4.317.019 6.475.015.908.5 1.339 1.464 1.5.2.033.541-.119.541.236 0 .312-.307.267-.535.27-1.348.021-2.7.047-4.046.063-.261 0-.58-.029-.587-.355-.006-.273.3-.183.481-.221 1.158-.235 1.525-.627 1.544-1.8q.064-3.837.065-7.674a1.267 1.267 0 0 0-1.186-1.349c-.225-.039-.6-.074-.532-.415.057-.274.394-.126.607-.166 1.817-.338 3.04.425 4.138 1.868 1.639 2.153 3.483 4.151 5.237 6.218.132.155.273.37.473.316.294-.08.188-.383.189-.595.008-1.9.024-3.8 0-5.7-.012-.824-.255-1.538-1.262-1.644-.161-.02-.362-.013-.51-.442z" transform="translate(-38.073 -62.187) translate(-222.866 -65.034)"/>
        <path d="M364.1 179.7c-1.944-.03-1.945-.03-2.7 1.7-.081.183-.153.371-.222.559-.351.967-.151 1.352.859 1.643.176.051.469-.051.452.254s-.291.316-.524.318c-1.086.009-2.173.017-3.259.014-.232 0-.5-.043-.535-.323-.036-.313.268-.213.437-.274a2.476 2.476 0 0 0 1.607-1.632c1.11-3.146 2.283-6.271 3.468-9.391.242-.637.979-.642 1.515-.811.4-.128.458.413.561.7 1.082 3.071 2.133 6.153 3.227 9.22.322.9.773 1.749 1.871 1.926.2.032.344.095.295.317a.358.358 0 0 1-.4.262c-.661 0-1.323-.03-1.982 0a11.188 11.188 0 0 0-2.4-.006c-.238.06-.573-.011-.586-.345-.011-.29.293-.186.471-.232 1.014-.26 1.193-.618.8-1.609-.031-.08-.063-.16-.092-.24-.719-2.014-.719-2.014-2.863-2.05zm.163-5.479l-.23-.012c-.509 1.4-1.023 2.8-1.525 4.2-.156.436.224.4.442.411.859.033 1.719.028 2.579.041.253 0 .418-.108.327-.358-.522-1.425-1.062-2.85-1.595-4.278z" transform="translate(-38.073 -62.187) translate(-188.42 -64.49)"/>
        <path d="M92.579 172.968c-1.5.848-1.5.848-1.5 2.568 0 1.843.016 3.686 0 5.529a2.654 2.654 0 0 0 2.827 2.856 5.168 5.168 0 0 0 1.886-.093 2.875 2.875 0 0 0 1.993-2.722 40.735 40.735 0 0 0 .036-6.372c-.06-.932-.471-1.441-1.432-1.46a.908.908 0 0 1-.313-.116c-.018-.008-.021-.052-.09-.245 1.272-.107 2.467.233 3.841.233a2.4 2.4 0 0 0-.935 2.193c.024 1.612.007 3.225.006 4.837 0 3.937-2.554 5.07-5.807 4.82a4.521 4.521 0 0 1-3.217-1.235 2.724 2.724 0 0 1-.771-1.854c-.031-2.216-.036-4.433-.051-6.649-.01-1.509-.041-1.547-1.485-1.969a.452.452 0 0 1-.262-.178c-.07-.134.057-.226.168-.227a44.626 44.626 0 0 1 5.106.084z" transform="translate(-38.073 -62.187) translate(-28.965 -65.142)"/>
        <path d="M118.315 69.56c0-1.381-.009-2.763 0-4.144.007-.769-.237-1.281-1.108-1.321-.228-.011-.619-.02-.569-.37.047-.333.42-.231.659-.232 2.768-.007 5.536.008 8.3-.008.587 0 .852.2.812.8-.031.459 0 .921-.006 1.381 0 .165 0 .366-.243.379-.191.01-.224-.141-.252-.285a1.853 1.853 0 0 0-1.991-1.539c-1.006-.049-2.015-.037-3.022-.057-.351-.007-.435.2-.434.5 0 1.237.006 2.475 0 3.712 0 .362.156.526.517.522.778-.009 1.557.011 2.334-.02a.983.983 0 0 0 1.055-1.013c.014-.291.049-.514.423-.488s.375.276.371.551c-.011.921-.015 1.842-.024 2.762 0 .256.038.539-.352.565s-.4-.211-.422-.495a1.072 1.072 0 0 0-1.271-1.079c-.831.043-1.889-.336-2.433.139-.562.491-.143 1.571-.2 2.392-.028.43-.007.863 0 1.295.012 1.028.359 1.387 1.376 1.469.23.019.617-.151.645.209.026.328-.37.325-.6.327-1.584.02-3.168.017-4.752.01-.224 0-.517-.021-.512-.329 0-.292.295-.188.473-.233 1.1-.276 1.221-.431 1.225-1.6v-3.8z" transform="translate(-38.073 -62.187) translate(-46.236 -.761)"/>
        <path d="M303.011 172.724c.72 0 1.44-.007 2.16.007.164 0 .366.046.339.287-.021.187-.2.165-.331.2-.931.236-1.146.61-.765 1.532.7 1.691 1.444 3.362 2.169 5.042.238.552.479 1.1.706 1.659.081.2.177.394.4.385s.313-.221.386-.411c.858-2.235 1.732-4.465 2.566-6.709.4-1.072.215-1.324-.9-1.491-.206-.031-.55.088-.563-.232s.332-.254.536-.255c1.066-.008 2.132 0 3.2.015.165 0 .371 0 .4.23.025.183-.136.25-.274.269-.833.111-1.09.8-1.352 1.416-1.123 2.631-2.207 5.279-3.3 7.924-.272.659-.535 1.322-.775 1.993-.125.351-.385.364-.683.39a.663.663 0 0 1-.727-.471c-.493-1.157-.992-2.311-1.479-3.47q-1.46-3.477-2.91-6.958a1.1 1.1 0 0 0-.906-.814c-.19-.02-.458-.033-.4-.322.053-.255.312-.21.505-.212.673-.009 1.336-.005 1.998-.004z" transform="translate(-38.073 -62.187) translate(-154.483 -65.066)"/>
        <path d="M354.193 68.538v3.8c.006 1.392.2 1.615 1.581 1.872.158.029.4-.047.418.188.027.306-.255.267-.434.271q-2.372.057-4.745.087c-.219 0-.53.006-.545-.289-.019-.367.323-.22.521-.261.746-.155 1.218-.46 1.2-1.367-.045-2.846-.037-5.694 0-8.54.01-.734-.237-.981-.942-.906-.427.046-.868-.024-1.294.03-.82.1-1.528.408-1.625 1.361-.043.415-.285.606-.61.549-.353-.062-.2-.421-.17-.653.088-.652.216-1.3.31-1.949.06-.416.253-.6.632-.349a3.113 3.113 0 0 0 1.833.351c2.19 0 4.379 0 6.569.007a2.743 2.743 0 0 0 1.648-.392c.4-.274.669-.207.638.33-.043.745-.121 1.487-.179 2.23a.367.367 0 0 1-.384.377c-.248.018-.326-.114-.388-.348-.391-1.478-.476-1.536-1.971-1.537-2.075 0-2.074 0-2.06 2.122v3.019z" transform="translate(-38.073 -62.187) translate(-182.141)"/>
        <path d="M149.483 172.984c.082-.213.272-.181.438-.183 1.5-.014 3-.027 4.493-.028.212 0 .532-.088.574.22s-.29.363-.49.37c-1.018.035-1.209.683-1.207 1.517.005 2.5 0 5 0 7.5 0 1.124.35 1.462 1.5 1.488.432.009.867-.016 1.3.025a2.953 2.953 0 0 0 3.07-1.891c.09-.174.142-.5.473-.361.27.116.093.357.077.533-.053.6-.128 1.193-.211 1.787s-.35.859-1.03.846c-2.756-.056-5.514-.041-8.271-.057a2.245 2.245 0 0 1-.509-.082c-.108-.026-.228-.068-.235-.211-.011-.2.138-.207.281-.244 1.564-.405 1.581-.429 1.582-2v-6.814c0-1.673-.012-1.689-1.612-2.183a.3.3 0 0 1-.223-.232z" transform="translate(-38.073 -62.187) translate(-65.563 -65.089)"/>
        <path d="M42.052 171.955c.514.06 1.027.13 1.542.179a1.547 1.547 0 0 1 1.39 2.067c-.034.119-.07.238-.2.245-.263.016-.3-.218-.386-.393a2.292 2.292 0 0 0-2.841-1.479 2.045 2.045 0 0 0-1.6 1.5 1.663 1.663 0 0 0 .55 1.927 19.605 19.605 0 0 0 3.694 2.18 3.2 3.2 0 0 1 .173 5.548 5.442 5.442 0 0 1-3.725.716c-.2-.023-.394-.087-.593-.111-1.842-.22-1.778-.254-1.931-2.023-.023-.263-.179-.656.167-.766.378-.121.434.314.532.546a2.81 2.81 0 0 0 2.474 1.858 2.384 2.384 0 0 0 2.367-.9 1.783 1.783 0 0 0-.184-2.416 18.729 18.729 0 0 0-3.264-2.2 3.789 3.789 0 0 1-1.9-2.812 3.448 3.448 0 0 1 3.735-3.666z" transform="translate(-38.073 -62.187) translate(0 -64.613)"/>
        <path d="M302.135 62.758c.43.034.865.039 1.29.106 1.528.241 1.684.467 1.45 1.994-.026.168 0 .365-.226.408-.262.05-.321-.125-.4-.335a2.141 2.141 0 0 0-2.262-1.6 2.057 2.057 0 0 0-1.4 3.61 10.783 10.783 0 0 0 2.92 1.749 3.32 3.32 0 0 1 1.423 5.21c-1.094 1.3-2.65 1.478-4.25 1.359-.17-.013-.335-.088-.506-.113-1.886-.278-2.009-.392-2.271-2.239-.033-.235-.141-.55.22-.652s.494.116.589.439a2.685 2.685 0 0 0 1.69 1.923c1.161.416 2.961-.1 3.27-.97a2.761 2.761 0 0 0-1.429-3.241c-.609-.366-1.227-.721-1.858-1.048a3.619 3.619 0 0 1-1.947-4.177 3.292 3.292 0 0 1 3.697-2.423z" transform="translate(-38.073 -62.187) translate(-152.924 -.326)"/>
        <path d="M210.514 184.744h-5.255a2.78 2.78 0 0 1-.6-.069c-.183-.041-.476-.005-.467-.274.01-.287.3-.181.482-.218a1.431 1.431 0 0 0 1.363-1.646c0-2.5.007-5.008 0-7.512 0-1.2-.176-1.4-1.329-1.74-.2-.06-.531-.04-.48-.364.04-.252.325-.191.512-.192q2.292-.017 4.584-.009c.188 0 .474-.053.51.2.048.34-.287.281-.489.334-1.114.292-1.32.536-1.323 1.651q-.009 3.756 0 7.511c0 1.1.34 1.419 1.459 1.43.548.006 1.1-.036 1.643.009a2.516 2.516 0 0 0 2.581-1.621 2.336 2.336 0 0 1 .178-.3c.113-.158.194-.4.448-.326.312.088.136.346.1.5-.158.726-.358 1.443-.527 2.167-.118.507-.5.469-.883.467-.836.001-1.671.003-2.507.002z" transform="translate(-38.073 -62.187) translate(-97.787 -65.06)"/>
        <path d="M260.47 172.731h2.419c.168 0 .392-.007.409.215s-.2.232-.365.29c-1.454.511-1.453.514-1.453 2.043v7.246c0 1.192.192 1.419 1.385 1.657.179.036.473-.063.452.244-.019.29-.292.315-.528.308-1.51-.044-3.021-.083-4.531.01-.262.016-.609.018-.63-.29-.028-.407.369-.232.588-.271.956-.168 1.211-.453 1.215-1.442.01-2.674.009-5.348.018-8.023 0-.819-.22-1.411-1.2-1.415-.23 0-.627-.023-.594-.353s.418-.219.653-.225c.719-.02 1.44-.007 2.16-.007z" transform="translate(-38.073 -62.187) translate(-129.239 -65.06)"/>
    </g>
</svg>
