<svg xmlns="http://www.w3.org/2000/svg" width="98" height="113" viewBox="0 0 98 113" fill="none"><path d="M92.8401 88.7652L48.9805 111.262L5.12085 88.7652V0H92.8401V88.7652Z" fill="#F8F8F8"></path><path d="M5.22379 0V88.7652L92.9431 0H5.22379Z" fill="white"></path><path d="M5.87704 31.0902V89.2464L7.38774 89.9989L50.0108 111.606L51.3057 112.251L52.6006 111.606L93.713 89.9989L95.2237 89.2464V0.130859H5.87704V31.0902ZM8.68262 87.6339V2.9258H92.4181V87.6339L51.3057 109.241L8.68262 87.6339Z" fill="#DCDEDC"></path><path d="M92.0057 0.834468V88.2561L48.9805 110.325L5.95532 88.2561V0.834468H92.0057ZM92.8401 0H5.12085V88.7652L48.9805 111.262L92.8401 88.7652V0Z" fill="#DCDFDD"></path><path d="M59.0956 15.8702L48.8929 21.7991L38.8654 15.8702V0H59.0956V15.8702Z" fill="#FF3100"></path><path d="M53.8524 7.85054H51.9526C52.0041 7.55152 52.1876 7.38602 52.5618 7.19548L52.9122 7.01746C53.5381 6.69619 53.8705 6.33459 53.8705 5.74351C53.8705 5.37078 53.7272 5.07732 53.4393 4.86454C53.1584 4.65175 52.8135 4.54883 52.4171 4.54883C52.1014 4.54883 51.8149 4.62949 51.5507 4.795C51.292 4.95633 51.0973 5.16216 50.9763 5.42085L51.527 5.9716C51.7398 5.54045 52.05 5.32906 52.4575 5.32906C52.8024 5.32906 53.0138 5.50708 53.0138 5.75324C53.0138 5.96047 52.9109 6.13154 52.5145 6.3332L52.2906 6.44168C51.8024 6.68785 51.4631 6.97018 51.2683 7.29145C51.0736 7.60715 50.9749 8.01465 50.9749 8.50282V8.63494H53.851V7.84776L53.8524 7.85054Z" fill="white"></path><path d="M53.5979 9.54492H50.4506L48.8776 12.2695H52.0249L53.5979 14.9954L55.1723 12.2695L53.5979 9.54492Z" fill="white"></path><path d="M49.1488 14.0879C47.1447 14.0879 45.5147 12.4579 45.5147 10.4538C45.5147 8.44967 47.1447 6.81968 49.1488 6.81968L50.3935 4.21614C49.9916 4.13686 49.5757 4.09375 49.1488 4.09375C45.6371 4.09375 42.7901 6.94068 42.7901 10.4524C42.7901 13.9641 45.6371 16.811 49.1488 16.811C50.5493 16.811 51.8427 16.3576 52.8941 15.5913L51.5159 13.2047C50.8789 13.7527 50.0528 14.0851 49.1488 14.0851V14.0879Z" fill="white"></path><path d="M94.8456 69.7701H3.11535L0 61.9817L3.11535 54.1934H94.8456L97.961 61.9817L94.8456 69.7701Z" fill="#FF3100"></path><path d="M19.3583 78.9143C19.3583 78.9254 19.3653 78.9338 19.3792 78.9407C19.6963 79.1076 19.8548 79.39 19.8548 79.7849C19.8548 80.141 19.7324 80.4066 19.4863 80.5805C19.2401 80.7543 18.9188 80.8419 18.5197 80.8419H17.1317C17.1025 80.8419 17.0802 80.8336 17.0621 80.8155C17.0441 80.7974 17.0357 80.7752 17.0357 80.746V77.1995C17.0357 77.1717 17.0441 77.148 17.0621 77.1299C17.0802 77.1119 17.1025 77.1035 17.1317 77.1035H18.4779C18.9119 77.1035 19.2401 77.1856 19.4626 77.3497C19.6851 77.5138 19.7964 77.7794 19.7964 78.1452C19.7964 78.511 19.6573 78.7419 19.3792 78.8879C19.3653 78.8948 19.3583 78.9046 19.3583 78.9143ZM17.9216 77.899V78.5499C17.9216 78.575 17.9342 78.5875 17.9592 78.5875H18.4766C18.6226 78.5875 18.7352 78.5569 18.8131 78.4943C18.891 78.4317 18.9299 78.3441 18.9299 78.2301C18.9299 78.116 18.891 78.0214 18.8131 77.9575C18.7352 77.8935 18.6226 77.8615 18.4766 77.8615H17.9592C17.9342 77.8615 17.9216 77.874 17.9216 77.899ZM18.8507 79.9797C18.9286 79.9143 18.9675 79.8183 18.9675 79.6945C18.9675 79.5708 18.9286 79.4804 18.8521 79.4136C18.7756 79.3469 18.6643 79.3149 18.5183 79.3149H17.9578C17.9328 79.3149 17.9202 79.3274 17.9202 79.3524V80.0409C17.9202 80.0659 17.9328 80.0784 17.9578 80.0784H18.5183C18.6601 80.0784 18.7714 80.045 18.8493 79.9797H18.8507Z" fill="#252530"></path><path d="M23.0912 77.8351C23.0731 77.8531 23.0508 77.8615 23.0216 77.8615H21.3875C21.3624 77.8615 21.3499 77.874 21.3499 77.899V78.5346C21.3499 78.5597 21.3624 78.5722 21.3875 78.5722H22.418C22.4472 78.5722 22.4695 78.5805 22.4876 78.5986C22.5057 78.6167 22.514 78.6389 22.514 78.6681V79.2286C22.514 79.2578 22.5057 79.2801 22.4876 79.2982C22.4695 79.3163 22.4472 79.3246 22.418 79.3246H21.3875C21.3624 79.3246 21.3499 79.3371 21.3499 79.3621V80.0464C21.3499 80.0714 21.3624 80.084 21.3875 80.084H23.0216C23.0494 80.084 23.0731 80.0923 23.0912 80.1104C23.1093 80.1285 23.1176 80.1507 23.1176 80.1799V80.746C23.1176 80.7752 23.1093 80.7974 23.0912 80.8155C23.0731 80.8336 23.0508 80.8419 23.0216 80.8419H20.56C20.5307 80.8419 20.5085 80.8336 20.4904 80.8155C20.4723 80.7974 20.464 80.7752 20.464 80.746V77.1995C20.464 77.1717 20.4723 77.148 20.4904 77.1299C20.5085 77.1119 20.5307 77.1035 20.56 77.1035H23.0216C23.0494 77.1035 23.0731 77.1119 23.0912 77.1299C23.1093 77.148 23.1176 77.1703 23.1176 77.1995V77.7655C23.1176 77.7947 23.1093 77.817 23.0912 77.8351Z" fill="#252530"></path><path d="M24.2636 80.7428C24.048 80.6482 23.8811 80.5133 23.7643 80.3367C23.6475 80.16 23.5877 79.957 23.5877 79.7247V79.6552C23.5877 79.6274 23.596 79.6037 23.6141 79.5856C23.6322 79.5676 23.6544 79.5592 23.6836 79.5592H24.3623C24.3915 79.5592 24.4138 79.5662 24.4319 79.5773C24.45 79.5898 24.4583 79.6051 24.4583 79.6232V79.6872C24.4583 79.8012 24.5167 79.9027 24.6322 79.9917C24.7476 80.0808 24.8964 80.1253 25.0786 80.1253C25.2358 80.1253 25.3512 80.0919 25.4263 80.0237C25.5014 79.9556 25.5389 79.8777 25.5389 79.7887C25.5389 79.6886 25.4958 79.6121 25.4082 79.5592C25.3206 79.5064 25.1648 79.4438 24.9409 79.3728L24.8241 79.3353C24.596 79.2602 24.3971 79.1795 24.226 79.0919C24.055 79.0043 23.9089 78.8833 23.7879 78.7289C23.6669 78.5745 23.6058 78.3826 23.6058 78.1545C23.6058 77.9264 23.6642 77.7401 23.7796 77.5746C23.895 77.4091 24.055 77.2811 24.2608 77.1921C24.4653 77.1031 24.6975 77.0586 24.9576 77.0586C25.2316 77.0586 25.4777 77.1087 25.6975 77.2088C25.9158 77.3089 26.0883 77.4494 26.2135 77.6302C26.3386 77.8124 26.3998 78.0196 26.3998 78.2547V78.2978C26.3998 78.327 26.3915 78.3492 26.3734 78.3673C26.3553 78.3854 26.3331 78.3937 26.3039 78.3937H25.6252C25.596 78.3937 25.5737 78.3896 25.5556 78.3798C25.5375 78.3715 25.5292 78.3576 25.5292 78.3395V78.2908C25.5292 78.1657 25.4736 78.0558 25.3637 77.9598C25.2538 77.8639 25.105 77.8152 24.92 77.8152C24.781 77.8152 24.6725 77.8444 24.5946 77.9C24.5167 77.957 24.4778 78.0377 24.4778 78.1406C24.4778 78.2185 24.5028 78.2839 24.5529 78.3353C24.6029 78.3868 24.6808 78.4355 24.7851 78.48C24.8894 78.5245 25.0508 78.5829 25.2691 78.6538C25.5181 78.7387 25.7128 78.8138 25.8519 78.8777C25.9909 78.9417 26.1217 79.046 26.2441 79.1907C26.3665 79.3353 26.429 79.5244 26.429 79.7595C26.429 79.9945 26.3706 80.1809 26.2524 80.3492C26.1342 80.5175 25.9687 80.6496 25.7559 80.7414C25.5417 80.8346 25.2969 80.8805 25.0188 80.8805C24.7406 80.8805 24.4833 80.8332 24.2678 80.7386L24.2636 80.7428Z" fill="#252530"></path><path d="M29.7085 77.1299C29.7266 77.148 29.7349 77.1703 29.7349 77.1995V77.7711C29.7349 77.8003 29.7266 77.8226 29.7085 77.8406C29.6904 77.8587 29.6682 77.8671 29.6389 77.8671H28.7475C28.7224 77.8671 28.7099 77.8796 28.7099 77.9046V80.746C28.7099 80.7752 28.7016 80.7974 28.6835 80.8155C28.6654 80.8336 28.6432 80.8419 28.6139 80.8419H27.9199C27.8907 80.8419 27.8685 80.8336 27.8504 80.8155C27.8323 80.7974 27.824 80.7752 27.824 80.746V77.9046C27.824 77.8796 27.8115 77.8671 27.7864 77.8671H26.9269C26.8977 77.8671 26.8755 77.8587 26.8574 77.8406C26.8393 77.8226 26.831 77.8003 26.831 77.7711V77.1995C26.831 77.1717 26.8393 77.148 26.8574 77.1299C26.8755 77.1119 26.8977 77.1035 26.9269 77.1035H29.6403C29.6695 77.1035 29.6918 77.1119 29.7099 77.1299H29.7085Z" fill="#252530"></path><path d="M32.0394 80.7428C31.8239 80.6482 31.657 80.5133 31.5402 80.3367C31.4233 80.16 31.3635 79.957 31.3635 79.7247V79.6552C31.3635 79.6274 31.3719 79.6037 31.39 79.5856C31.408 79.5676 31.4303 79.5592 31.4595 79.5592H32.1382C32.1674 79.5592 32.1896 79.5662 32.2077 79.5773C32.2258 79.5898 32.2342 79.6051 32.2342 79.6232V79.6872C32.2342 79.8012 32.2926 79.9027 32.408 79.9917C32.5234 80.0808 32.6722 80.1253 32.8544 80.1253C33.0116 80.1253 33.127 80.0919 33.2021 80.0237C33.2772 79.9556 33.3148 79.8777 33.3148 79.7887C33.3148 79.6886 33.2717 79.6121 33.1841 79.5592C33.0964 79.5064 32.9407 79.4438 32.7168 79.3728L32.5999 79.3353C32.3718 79.2602 32.173 79.1795 32.0019 79.0919C31.8308 79.0043 31.6848 78.8833 31.5638 78.7289C31.4428 78.5745 31.3816 78.3826 31.3816 78.1545C31.3816 77.9264 31.44 77.7401 31.5555 77.5746C31.6709 77.4091 31.8308 77.2811 32.0367 77.1921C32.2411 77.1031 32.4734 77.0586 32.7334 77.0586C33.0074 77.0586 33.2536 77.1087 33.4733 77.2088C33.6917 77.3089 33.8641 77.4494 33.9893 77.6302C34.1145 77.8124 34.1757 78.0196 34.1757 78.2547V78.2978C34.1757 78.327 34.1673 78.3492 34.1493 78.3673C34.1312 78.3854 34.1089 78.3937 34.0797 78.3937H33.401C33.3718 78.3937 33.3496 78.3896 33.3315 78.3798C33.3134 78.3715 33.3051 78.3576 33.3051 78.3395V78.2908C33.3051 78.1657 33.2494 78.0558 33.1396 77.9598C33.0297 77.8639 32.8809 77.8152 32.6959 77.8152C32.5568 77.8152 32.4483 77.8444 32.3705 77.9C32.2926 77.957 32.2536 78.0377 32.2536 78.1406C32.2536 78.2185 32.2787 78.2839 32.3287 78.3353C32.3788 78.3868 32.4567 78.4355 32.561 78.48C32.6653 78.5245 32.8266 78.5829 33.045 78.6538C33.2939 78.7387 33.4886 78.8138 33.6277 78.8777C33.7668 78.9417 33.8975 79.046 34.0199 79.1907C34.1423 79.3353 34.2049 79.5244 34.2049 79.7595C34.2049 79.9945 34.1465 80.1809 34.0283 80.3492C33.91 80.5175 33.7445 80.6496 33.5318 80.7414C33.3176 80.8346 33.0728 80.8805 32.7946 80.8805C32.5165 80.8805 32.2592 80.8332 32.0436 80.7386L32.0394 80.7428Z" fill="#252530"></path><path d="M35.3982 80.7266C35.1784 80.6112 35.0088 80.4485 34.8878 80.2385C34.7668 80.0285 34.7056 79.7851 34.7056 79.5069V78.4388C34.7056 78.1676 34.7668 77.9284 34.8878 77.7198C35.0088 77.5112 35.1784 77.3498 35.3982 77.2344C35.6165 77.119 35.871 77.0605 36.1589 77.0605C36.4468 77.0605 36.7013 77.119 36.9225 77.2344C37.1436 77.3498 37.3147 77.5126 37.4357 77.7198C37.5567 77.927 37.6179 78.1676 37.6179 78.4388V79.5069C37.6179 79.7851 37.5567 80.0285 37.4357 80.2385C37.3147 80.4485 37.1436 80.6112 36.9225 80.7266C36.7013 80.8421 36.4468 80.9005 36.1589 80.9005C35.871 80.9005 35.6165 80.8421 35.3982 80.7266ZM36.5734 79.9756C36.6777 79.8658 36.7305 79.7169 36.7305 79.532V78.4263C36.7305 78.2441 36.6777 78.0981 36.5734 77.9854C36.4677 77.8728 36.33 77.8171 36.1589 77.8171C35.9879 77.8171 35.8557 77.8728 35.75 77.9854C35.6443 78.0981 35.5929 78.2441 35.5929 78.4263V79.532C35.5929 79.7169 35.6457 79.8644 35.75 79.9756C35.8543 80.0855 35.9906 80.1411 36.1589 80.1411C36.3272 80.1411 36.4677 80.0855 36.5734 79.9756Z" fill="#252530"></path><path d="M40.8375 77.8351C40.8195 77.8531 40.7972 77.8615 40.768 77.8615H39.1394C39.1144 77.8615 39.1018 77.874 39.1018 77.899V78.5346C39.1018 78.5597 39.1144 78.5722 39.1394 78.5722H40.17C40.1992 78.5722 40.2214 78.5805 40.2395 78.5986C40.2576 78.6167 40.2659 78.6389 40.2659 78.6681V79.2286C40.2659 79.2578 40.2576 79.2801 40.2395 79.2982C40.2214 79.3163 40.1992 79.3246 40.17 79.3246H39.1394C39.1144 79.3246 39.1018 79.3371 39.1018 79.3621V80.746C39.1018 80.7752 39.0935 80.7974 39.0754 80.8155C39.0573 80.8336 39.0351 80.8419 39.0059 80.8419H38.3119C38.2827 80.8419 38.2604 80.8336 38.2423 80.8155C38.2243 80.7974 38.2159 80.7752 38.2159 80.746V77.1995C38.2159 77.1717 38.2243 77.148 38.2423 77.1299C38.2604 77.1119 38.2827 77.1035 38.3119 77.1035H40.768C40.7972 77.1035 40.8195 77.1119 40.8375 77.1299C40.8556 77.148 40.864 77.1703 40.864 77.1995V77.7655C40.864 77.7947 40.8556 77.817 40.8375 77.8351Z" fill="#252530"></path><path d="M44.0641 77.1299C44.0822 77.148 44.0906 77.1703 44.0906 77.1995V77.7711C44.0906 77.8003 44.0822 77.8226 44.0641 77.8406C44.0461 77.8587 44.0238 77.8671 43.9946 77.8671H43.1031C43.0781 77.8671 43.0656 77.8796 43.0656 77.9046V80.746C43.0656 80.7752 43.0572 80.7974 43.0391 80.8155C43.0211 80.8336 42.9988 80.8419 42.9696 80.8419H42.2756C42.2464 80.8419 42.2241 80.8336 42.2061 80.8155C42.188 80.7974 42.1796 80.7752 42.1796 80.746V77.9046C42.1796 77.8796 42.1671 77.8671 42.1421 77.8671H41.2826C41.2534 77.8671 41.2311 77.8587 41.213 77.8406C41.195 77.8226 41.1866 77.8003 41.1866 77.7711V77.1995C41.1866 77.1717 41.195 77.148 41.213 77.1299C41.2311 77.1119 41.2534 77.1035 41.2826 77.1035H43.996C44.0252 77.1035 44.0474 77.1119 44.0655 77.1299H44.0641Z" fill="#252530"></path><path d="M45.345 80.7607L44.3673 77.2086C44.3631 77.2017 44.3618 77.1906 44.3618 77.1767C44.3618 77.1266 44.3896 77.1016 44.4466 77.1016H45.1948C45.224 77.1016 45.2477 77.1099 45.2672 77.1252C45.2866 77.1405 45.2978 77.1614 45.3019 77.1864L45.7511 79.0723C45.7581 79.0862 45.7664 79.0932 45.7748 79.0932C45.7831 79.0932 45.7901 79.0862 45.7929 79.0723L46.2254 77.1864C46.2365 77.1294 46.2713 77.1016 46.3325 77.1016H46.9681C47.0251 77.1016 47.0613 77.1308 47.0752 77.1864L47.5452 79.0723C47.5522 79.0862 47.5605 79.0932 47.5689 79.0932C47.5772 79.0932 47.5842 79.0862 47.587 79.0723L48.0042 77.1864C48.0084 77.1614 48.0195 77.1405 48.039 77.1252C48.0584 77.1085 48.0821 77.1016 48.1113 77.1016H48.8373C48.8693 77.1016 48.8929 77.1099 48.9096 77.128C48.9263 77.1461 48.9305 77.1725 48.9235 77.2086L48.0362 80.7551C48.0223 80.8122 47.9861 80.84 47.9291 80.84H47.2184C47.1892 80.84 47.1656 80.8316 47.1461 80.8163C47.1266 80.801 47.1155 80.7802 47.1113 80.7551L46.6621 78.7524C46.6579 78.7343 46.651 78.726 46.6412 78.726C46.6315 78.726 46.6232 78.7343 46.6204 78.7524L46.2143 80.7551C46.2031 80.8122 46.1698 80.84 46.1127 80.84H45.4507C45.3937 80.84 45.3576 80.8136 45.3436 80.7593L45.345 80.7607Z" fill="#252530"></path><path d="M51.1516 80.7607L51.0292 80.3226C51.025 80.3017 51.0111 80.2906 50.9861 80.2906H49.7789C49.758 80.2906 49.7427 80.3017 49.7357 80.3226L49.6134 80.7607C49.5994 80.8136 49.5633 80.8414 49.5063 80.8414H48.7538C48.7177 80.8414 48.6927 80.8316 48.6788 80.8122C48.6648 80.7927 48.6621 80.7663 48.6732 80.7343L49.7942 77.1822C49.8122 77.1294 49.8498 77.1016 49.9068 77.1016H50.8525C50.9137 77.1016 50.9499 77.128 50.9652 77.1822L52.0917 80.7343C52.0959 80.7412 52.0973 80.7537 52.0973 80.7718C52.0973 80.8177 52.0681 80.8414 52.0125 80.8414H51.2586C51.2016 80.8414 51.1655 80.8149 51.1516 80.7607ZM49.9555 79.5744C49.9555 79.5952 49.9666 79.6064 49.9875 79.6064H50.7774C50.7913 79.6064 50.8011 79.6022 50.8066 79.5924C50.8122 79.5841 50.8122 79.5744 50.8094 79.5632L50.4033 78.1433C50.3991 78.1252 50.3936 78.1168 50.3852 78.1168C50.3769 78.1168 50.3685 78.1252 50.3616 78.1433L49.9555 79.5632V79.5744Z" fill="#252530"></path><path d="M54.5478 80.7668L53.9275 79.3788C53.9206 79.3608 53.9067 79.3524 53.8844 79.3524H53.5534C53.5284 79.3524 53.5159 79.3649 53.5159 79.39V80.746C53.5159 80.7752 53.5075 80.7974 53.4894 80.8155C53.4714 80.8336 53.4491 80.8419 53.4199 80.8419H52.7259C52.6967 80.8419 52.6744 80.8336 52.6564 80.8155C52.6383 80.7974 52.6299 80.7752 52.6299 80.746V77.1995C52.6299 77.1717 52.6383 77.148 52.6564 77.1299C52.6744 77.1119 52.6967 77.1035 52.7259 77.1035H54.2794C54.5144 77.1035 54.7203 77.1522 54.8983 77.2482C55.0763 77.3441 55.214 77.4804 55.3128 77.6571C55.4101 77.8337 55.4602 78.0353 55.4602 78.2634C55.4602 78.4915 55.4018 78.7029 55.2863 78.8782C55.1709 79.052 55.0096 79.1786 54.8023 79.2578C54.7773 79.269 54.7704 79.287 54.7815 79.3107L55.4657 80.7307L55.4769 80.7738C55.4769 80.8197 55.4477 80.8433 55.392 80.8433H54.6605C54.6076 80.8433 54.5701 80.8183 54.5478 80.7682V80.7668ZM53.5173 77.899V78.6362C53.5173 78.6612 53.5298 78.6737 53.5548 78.6737H54.1375C54.2697 78.6737 54.3754 78.6375 54.4574 78.5638C54.5395 78.4915 54.5798 78.3942 54.5798 78.2732C54.5798 78.1522 54.5395 78.0492 54.4574 77.9741C54.3754 77.899 54.2683 77.8615 54.1375 77.8615H53.5548C53.5298 77.8615 53.5173 77.874 53.5173 77.899Z" fill="#252530"></path><path d="M58.6701 77.8351C58.652 77.8531 58.6298 77.8615 58.6006 77.8615H56.9664C56.9414 77.8615 56.9288 77.874 56.9288 77.899V78.5346C56.9288 78.5597 56.9414 78.5722 56.9664 78.5722H57.997C58.0262 78.5722 58.0484 78.5805 58.0665 78.5986C58.0846 78.6167 58.0929 78.6389 58.0929 78.6681V79.2286C58.0929 79.2578 58.0846 79.2801 58.0665 79.2982C58.0484 79.3163 58.0262 79.3246 57.997 79.3246H56.9664C56.9414 79.3246 56.9288 79.3371 56.9288 79.3621V80.0464C56.9288 80.0714 56.9414 80.084 56.9664 80.084H58.6006C58.6284 80.084 58.652 80.0923 58.6701 80.1104C58.6882 80.1285 58.6965 80.1507 58.6965 80.1799V80.746C58.6965 80.7752 58.6882 80.7974 58.6701 80.8155C58.652 80.8336 58.6298 80.8419 58.6006 80.8419H56.1389C56.1097 80.8419 56.0874 80.8336 56.0693 80.8155C56.0513 80.7974 56.0429 80.7752 56.0429 80.746V77.1995C56.0429 77.1717 56.0513 77.148 56.0693 77.1299C56.0874 77.1119 56.1097 77.1035 56.1389 77.1035H58.6006C58.6284 77.1035 58.652 77.1119 58.6701 77.1299C58.6882 77.148 58.6965 77.1703 58.6965 77.1995V77.7655C58.6965 77.7947 58.6882 77.817 58.6701 77.8351Z" fill="#252530"></path><path d="M62.8202 80.7607L62.6978 80.3226C62.6936 80.3017 62.6797 80.2906 62.6547 80.2906H61.4475C61.4266 80.2906 61.4113 80.3017 61.4044 80.3226L61.282 80.7607C61.2681 80.8136 61.2319 80.8414 61.1749 80.8414H60.4225C60.3863 80.8414 60.3613 80.8316 60.3474 80.8122C60.3335 80.7927 60.3307 80.7663 60.3418 80.7343L61.4628 77.1822C61.4809 77.1294 61.5184 77.1016 61.5754 77.1016H62.5212C62.5824 77.1016 62.6185 77.128 62.6338 77.1822L63.7604 80.7343C63.7645 80.7412 63.7659 80.7537 63.7659 80.7718C63.7659 80.8177 63.7367 80.8414 63.6811 80.8414H62.9273C62.8703 80.8414 62.8341 80.8149 62.8202 80.7607ZM61.6241 79.5744C61.6241 79.5952 61.6353 79.6064 61.6561 79.6064H62.4461C62.46 79.6064 62.4697 79.6022 62.4753 79.5924C62.4808 79.5841 62.4808 79.5744 62.4781 79.5632L62.072 78.1433C62.0678 78.1252 62.0622 78.1168 62.0539 78.1168C62.0455 78.1168 62.0372 78.1252 62.0302 78.1433L61.6241 79.5632V79.5744Z" fill="#252530"></path><path d="M64.3472 80.7607L63.3695 77.2086C63.3653 77.2017 63.364 77.1906 63.364 77.1767C63.364 77.1266 63.3918 77.1016 63.4488 77.1016H64.197C64.2262 77.1016 64.2499 77.1099 64.2693 77.1252C64.2888 77.1405 64.2999 77.1614 64.3041 77.1864L64.7533 79.0723C64.7603 79.0862 64.7686 79.0932 64.777 79.0932C64.7853 79.0932 64.7923 79.0862 64.7951 79.0723L65.2276 77.1864C65.2387 77.1294 65.2735 77.1016 65.3347 77.1016H65.9703C66.0273 77.1016 66.0635 77.1308 66.0774 77.1864L66.5474 79.0723C66.5544 79.0862 66.5627 79.0932 66.5711 79.0932C66.5794 79.0932 66.5864 79.0862 66.5892 79.0723L67.0064 77.1864C67.0106 77.1614 67.0217 77.1405 67.0412 77.1252C67.0606 77.1085 67.0843 77.1016 67.1135 77.1016H67.8395C67.8715 77.1016 67.8951 77.1099 67.9118 77.128C67.9285 77.1461 67.9327 77.1725 67.9257 77.2086L67.0384 80.7551C67.0245 80.8122 66.9883 80.84 66.9313 80.84H66.2206C66.1914 80.84 66.1678 80.8316 66.1483 80.8163C66.1288 80.801 66.1177 80.7802 66.1135 80.7551L65.6643 78.7524C65.6601 78.7343 65.6532 78.726 65.6434 78.726C65.6337 78.726 65.6254 78.7343 65.6226 78.7524L65.2165 80.7551C65.2053 80.8122 65.172 80.84 65.1149 80.84H64.4529C64.3959 80.84 64.3598 80.8136 64.3458 80.7593L64.3472 80.7607Z" fill="#252530"></path><path d="M70.1538 80.7607L70.0314 80.3226C70.0272 80.3017 70.0133 80.2906 69.9883 80.2906H68.7811C68.7602 80.2906 68.7449 80.3017 68.738 80.3226L68.6156 80.7607C68.6017 80.8136 68.5655 80.8414 68.5085 80.8414H67.7561C67.7199 80.8414 67.6949 80.8316 67.681 80.8122C67.6671 80.7927 67.6643 80.7663 67.6754 80.7343L68.7964 77.1822C68.8145 77.1294 68.852 77.1016 68.909 77.1016H69.8548C69.916 77.1016 69.9521 77.128 69.9674 77.1822L71.0939 80.7343C71.0981 80.7412 71.0995 80.7537 71.0995 80.7718C71.0995 80.8177 71.0703 80.8414 71.0147 80.8414H70.2609C70.2039 80.8414 70.1677 80.8149 70.1538 80.7607ZM68.9577 79.5744C68.9577 79.5952 68.9688 79.6064 68.9897 79.6064H69.7797C69.7936 79.6064 69.8033 79.6022 69.8089 79.5924C69.8144 79.5841 69.8144 79.5744 69.8116 79.5632L69.4055 78.1433C69.4014 78.1252 69.3958 78.1168 69.3875 78.1168C69.3791 78.1168 69.3708 78.1252 69.3638 78.1433L68.9577 79.5632V79.5744Z" fill="#252530"></path><path d="M73.5501 80.7668L72.9298 79.3788C72.9228 79.3608 72.9089 79.3524 72.8867 79.3524H72.5557C72.5306 79.3524 72.5181 79.3649 72.5181 79.39V80.746C72.5181 80.7752 72.5098 80.7974 72.4917 80.8155C72.4736 80.8336 72.4513 80.8419 72.4221 80.8419H71.7281C71.6989 80.8419 71.6767 80.8336 71.6586 80.8155C71.6405 80.7974 71.6322 80.7752 71.6322 80.746V77.1995C71.6322 77.1717 71.6405 77.148 71.6586 77.1299C71.6767 77.1119 71.6989 77.1035 71.7281 77.1035H73.2816C73.5167 77.1035 73.7225 77.1522 73.9005 77.2482C74.0786 77.3441 74.2162 77.4804 74.315 77.6571C74.4123 77.8337 74.4624 78.0353 74.4624 78.2634C74.4624 78.4915 74.404 78.7029 74.2886 78.8782C74.1731 79.052 74.0118 79.1786 73.8046 79.2578C73.7795 79.269 73.7726 79.287 73.7837 79.3107L74.468 80.7307L74.4791 80.7738C74.4791 80.8197 74.4499 80.8433 74.3943 80.8433H73.6627C73.6099 80.8433 73.5723 80.8183 73.5501 80.7682V80.7668ZM72.5195 77.899V78.6362C72.5195 78.6612 72.532 78.6737 72.557 78.6737H73.1398C73.2719 78.6737 73.3776 78.6375 73.4597 78.5638C73.5417 78.4915 73.582 78.3942 73.582 78.2732C73.582 78.1522 73.5417 78.0492 73.4597 77.9741C73.3776 77.899 73.2705 77.8615 73.1398 77.8615H72.557C72.532 77.8615 72.5195 77.874 72.5195 77.899Z" fill="#252530"></path><path d="M75.0716 80.8155C75.0535 80.7974 75.0452 80.7752 75.0452 80.746V77.1995C75.0452 77.1717 75.0535 77.148 75.0716 77.1299C75.0897 77.1119 75.1119 77.1035 75.1411 77.1035H76.4707C76.7489 77.1035 76.9936 77.1522 77.2078 77.2482C77.422 77.3441 77.5875 77.4818 77.7043 77.6598C77.8212 77.8378 77.881 78.0423 77.881 78.2746V79.6737C77.881 79.9046 77.8226 80.1104 77.7043 80.2884C77.5875 80.4664 77.4206 80.6041 77.2078 80.7001C76.995 80.796 76.7489 80.8447 76.4707 80.8447H75.1411C75.1119 80.8447 75.0897 80.8364 75.0716 80.8183V80.8155ZM75.9686 80.084H76.5083C76.6501 80.084 76.7669 80.0339 76.856 79.9324C76.945 79.8308 76.9909 79.6945 76.995 79.5235V78.4234C76.995 78.2523 76.9491 78.116 76.8587 78.0145C76.7683 77.913 76.6501 77.8629 76.5041 77.8629H75.97C75.945 77.8629 75.9325 77.8754 75.9325 77.9004V80.0478C75.9325 80.0728 75.945 80.0853 75.97 80.0853L75.9686 80.084Z" fill="#252530"></path><path d="M79.0645 80.7428C78.8489 80.6482 78.682 80.5133 78.5652 80.3367C78.4484 80.16 78.3886 79.957 78.3886 79.7247V79.6552C78.3886 79.6274 78.3969 79.6037 78.415 79.5856C78.4331 79.5676 78.4553 79.5592 78.4845 79.5592H79.1632C79.1925 79.5592 79.2147 79.5662 79.2328 79.5773C79.2509 79.5898 79.2592 79.6051 79.2592 79.6232V79.6872C79.2592 79.8012 79.3176 79.9027 79.4331 79.9917C79.5485 80.0808 79.6973 80.1253 79.8795 80.1253C80.0367 80.1253 80.1521 80.0919 80.2272 80.0237C80.3023 79.9556 80.3398 79.8777 80.3398 79.7887C80.3398 79.6886 80.2967 79.6121 80.2091 79.5592C80.1215 79.5064 79.9657 79.4438 79.7418 79.3728L79.625 79.3353C79.3969 79.2602 79.198 79.1795 79.0269 79.0919C78.8559 79.0043 78.7099 78.8833 78.5889 78.7289C78.4679 78.5745 78.4067 78.3826 78.4067 78.1545C78.4067 77.9264 78.4651 77.7401 78.5805 77.5746C78.6959 77.4091 78.8559 77.2811 79.0617 77.1921C79.2662 77.1031 79.4984 77.0586 79.7585 77.0586C80.0325 77.0586 80.2786 77.1087 80.4984 77.2088C80.7167 77.3089 80.8892 77.4494 81.0144 77.6302C81.1395 77.8124 81.2007 78.0196 81.2007 78.2547V78.2978C81.2007 78.327 81.1924 78.3492 81.1743 78.3673C81.1562 78.3854 81.134 78.3937 81.1048 78.3937H80.4261C80.3969 78.3937 80.3746 78.3896 80.3565 78.3798C80.3385 78.3715 80.3301 78.3576 80.3301 78.3395V78.2908C80.3301 78.1657 80.2745 78.0558 80.1646 77.9598C80.0547 77.8639 79.9059 77.8152 79.721 77.8152C79.5819 77.8152 79.4734 77.8444 79.3955 77.9C79.3176 77.957 79.2787 78.0377 79.2787 78.1406C79.2787 78.2185 79.3037 78.2839 79.3538 78.3353C79.4039 78.3868 79.4817 78.4355 79.586 78.48C79.6903 78.5245 79.8517 78.5829 80.07 78.6538C80.319 78.7387 80.5137 78.8138 80.6528 78.8777C80.7918 78.9417 80.9226 79.046 81.045 79.1907C81.1674 79.3353 81.2299 79.5244 81.2299 79.7595C81.2299 79.9945 81.1715 80.1809 81.0533 80.3492C80.9351 80.5175 80.7696 80.6496 80.5568 80.7414C80.3426 80.8346 80.0978 80.8805 79.8197 80.8805C79.5415 80.8805 79.2842 80.8332 79.0687 80.7386L79.0645 80.7428Z" fill="#252530"></path><path d="M32.1382 33.5971C32.2007 33.6597 32.2313 33.7403 32.2313 33.8405V35.8404C32.2313 35.9406 32.2007 36.0212 32.1382 36.0838C32.0756 36.1464 31.9949 36.177 31.8948 36.177H28.7725C28.6848 36.177 28.6417 36.2201 28.6417 36.3077V46.2518C28.6417 46.3519 28.6111 46.4326 28.5485 46.4952C28.486 46.5578 28.4053 46.5884 28.3052 46.5884H25.8755C25.7753 46.5884 25.6947 46.5578 25.6321 46.4952C25.5695 46.4326 25.5389 46.3519 25.5389 46.2518V36.3077C25.5389 36.2201 25.4944 36.177 25.4082 36.177H22.3985C22.2984 36.177 22.2177 36.1464 22.1551 36.0838C22.0925 36.0212 22.062 35.9406 22.062 35.8404V33.8405C22.062 33.7403 22.0925 33.6597 22.1551 33.5971C22.2177 33.5345 22.2984 33.5039 22.3985 33.5039H31.8948C31.9949 33.5039 32.0756 33.5345 32.1382 33.5971Z" fill="#252530"></path><path d="M33.3634 45.8419C32.5846 45.2439 32.0575 44.4344 31.7835 43.4122C31.6333 42.9018 31.5596 42.3399 31.5596 41.7293C31.5596 41.1188 31.6403 40.5027 31.803 39.9158C32.0895 38.9311 32.6222 38.162 33.401 37.6071C34.1798 37.0522 35.1242 36.7754 36.2326 36.7754C37.3411 36.7754 38.2576 37.0535 39.0184 37.6071C39.7777 38.162 40.3076 38.9255 40.6066 39.8963C40.7805 40.4568 40.8681 41.0548 40.8681 41.6904C40.8681 42.2634 40.7999 42.8114 40.6623 43.3357C40.4008 44.383 39.8765 45.2119 39.0921 45.8224C38.3063 46.433 37.3466 46.7389 36.2132 46.7389C35.0797 46.7389 34.1409 46.4399 33.3621 45.8419H33.3634ZM37.1213 43.739C37.3647 43.5082 37.5358 43.1938 37.6359 42.7947C37.711 42.4706 37.7486 42.116 37.7486 41.7293C37.7486 41.3427 37.7041 40.9936 37.6178 40.6445C37.5177 40.2579 37.3494 39.9589 37.113 39.7475C36.8766 39.5361 36.5775 39.4304 36.2159 39.4304C35.8543 39.4304 35.54 39.5361 35.3091 39.7475C35.0783 39.9589 34.9128 40.2593 34.814 40.6445C34.7264 40.9185 34.6833 41.2801 34.6833 41.7293C34.6833 42.116 34.7208 42.4706 34.7959 42.7947C34.9086 43.1938 35.0824 43.5082 35.3189 43.739C35.5553 43.9699 35.8543 44.0853 36.2159 44.0853C36.5775 44.0853 36.8793 43.9699 37.1227 43.739H37.1213Z" fill="#252530"></path><path d="M51.598 41.8047C51.598 42.6893 51.4672 43.4751 51.2058 44.1607C50.9193 44.934 50.4547 45.5599 49.8136 46.0397C49.1711 46.5195 48.452 46.7587 47.6551 46.7587C46.708 46.7587 45.9973 46.4722 45.5244 45.8992C45.4869 45.8491 45.4521 45.8311 45.4215 45.8436C45.3909 45.8561 45.3742 45.8936 45.3742 45.9562V49.6766C45.3742 49.7767 45.3436 49.8574 45.281 49.92C45.2185 49.9825 45.1378 50.0131 45.0377 50.0131H42.608C42.5078 50.0131 42.4272 49.9825 42.3646 49.92C42.302 49.8574 42.2714 49.7767 42.2714 49.6766V37.2652C42.2714 37.1651 42.302 37.0844 42.3646 37.0219C42.4272 36.9593 42.5078 36.9287 42.608 36.9287H45.0377C45.1378 36.9287 45.2185 36.9593 45.281 37.0219C45.3436 37.0844 45.3742 37.1651 45.3742 37.2652V37.7145C45.3742 37.777 45.3895 37.8146 45.4215 37.8271C45.4521 37.8396 45.4869 37.8216 45.5244 37.7715C45.9973 37.1109 46.708 36.7812 47.6551 36.7812C48.4645 36.7812 49.2128 37.0497 49.8984 37.5851C50.5841 38.1206 51.0514 38.8132 51.3003 39.6602C51.4992 40.2707 51.5994 40.987 51.5994 41.8103L51.598 41.8047ZM48.2712 41.7491C48.2712 41.1135 48.1655 40.5962 47.9527 40.197C47.6913 39.7367 47.3102 39.5058 46.8123 39.5058C46.3144 39.5058 45.9709 39.7422 45.7094 40.2165C45.498 40.6156 45.3923 41.126 45.3923 41.7491C45.3923 42.4348 45.505 42.9827 45.7289 43.3944C45.9903 43.8186 46.3519 44.03 46.8137 44.03C47.2991 44.03 47.6732 43.8116 47.9346 43.3763C48.1586 42.9647 48.2712 42.4236 48.2712 41.7505V41.7491Z" fill="#252530"></path><path d="M65.4306 42.3459C65.4306 42.969 65.318 43.567 65.0941 44.14C64.77 44.9133 64.2304 45.5322 63.4766 45.9995C62.7228 46.4668 61.8536 46.7005 60.8689 46.7005C59.8842 46.7005 59.0178 46.4738 58.2709 46.0176C57.5227 45.5628 56.9817 44.9425 56.6451 44.1581C56.5074 43.8215 56.4142 43.485 56.3642 43.1484V43.0733C56.3642 42.8869 56.4698 42.7924 56.6812 42.7924H59.2055C59.3794 42.7924 59.5045 42.873 59.5796 43.0358C59.5922 43.0983 59.6297 43.179 59.6923 43.2791C59.7924 43.5281 59.944 43.7186 60.1499 43.8494C60.3557 43.9801 60.5949 44.0455 60.8689 44.0455C61.1429 44.0455 61.364 43.9773 61.5698 43.8396C61.7757 43.7019 61.9273 43.5225 62.0274 43.2972C62.1776 43.0357 62.2513 42.7367 62.2513 42.4002C62.2764 42.0761 62.2138 41.759 62.065 41.4475C61.9773 41.2236 61.8313 41.0455 61.6255 40.9148C61.4196 40.7841 61.1679 40.7187 60.8689 40.7187C60.3571 40.7187 59.9718 40.8939 59.7104 41.2416C59.6478 41.3167 59.5894 41.3724 59.5323 41.4099C59.4753 41.4475 59.4044 41.4656 59.3168 41.4656H56.6993C56.5992 41.4656 56.5185 41.435 56.4559 41.3724C56.3934 41.3098 56.3628 41.2291 56.3628 41.129V33.8385C56.3628 33.7384 56.3934 33.6577 56.4559 33.5951C56.5185 33.5326 56.5992 33.502 56.6993 33.502H64.6629C64.7631 33.502 64.8437 33.5326 64.9063 33.5951C64.9689 33.6577 64.9995 33.7384 64.9995 33.8385V35.8204C64.9995 35.9205 64.9689 36.0012 64.9063 36.0638C64.8437 36.1264 64.7631 36.157 64.6629 36.157H59.5977C59.5101 36.157 59.467 36.2015 59.467 36.2877V38.3808C59.467 38.4309 59.4795 38.4643 59.5045 38.4837C59.5296 38.5018 59.5671 38.499 59.6172 38.474C60.1401 38.1875 60.7076 38.0442 61.3181 38.0442C62.2026 38.0442 62.9815 38.2682 63.6546 38.7174C64.3278 39.1666 64.8131 39.7772 65.1122 40.549C65.3236 41.1471 65.4293 41.7451 65.4293 42.3431L65.4306 42.3459Z" fill="#252530"></path><path d="M67.8603 45.6082C67.0384 44.8044 66.6267 43.7112 66.6267 42.3274V37.767C66.6267 36.3957 67.0384 35.3179 67.8603 34.5335C68.6823 33.7477 69.8102 33.3555 71.2441 33.3555C72.678 33.3555 73.8115 33.7518 74.6459 34.5418C75.4804 35.3332 75.899 36.4082 75.899 37.767V42.3274C75.899 43.7112 75.4818 44.8044 74.6459 45.6082C73.8115 46.4121 72.6766 46.814 71.2441 46.814C69.8116 46.814 68.6837 46.4121 67.8603 45.6082ZM72.3748 43.7015C72.6557 43.4094 72.7948 43.0075 72.7948 42.4957V37.6544C72.7948 37.144 72.6544 36.742 72.3748 36.4486C72.0939 36.1565 71.717 36.0091 71.2441 36.0091C70.7712 36.0091 70.4152 36.1551 70.1412 36.4486C69.8672 36.742 69.7295 37.144 69.7295 37.6544V42.4957C69.7295 43.0061 69.8631 43.408 70.1315 43.7015C70.3999 43.9949 70.7698 44.141 71.2441 44.141C71.7184 44.141 72.0953 43.9949 72.3748 43.7015Z" fill="#252530"></path><path d="M39.8709 92.1343C39.8779 92.1482 39.8918 92.1552 39.914 92.1552H42.6233C42.658 92.1552 42.6886 92.1677 42.7137 92.1927C42.7387 92.2178 42.7512 92.2484 42.7512 92.2831V93.5362C42.7512 93.5724 42.7387 93.6016 42.7137 93.6266C42.6886 93.6517 42.6594 93.6642 42.6233 93.6642H37.6401C37.6039 93.6642 37.5747 93.6517 37.5497 93.6266C37.5247 93.6016 37.5121 93.5724 37.5121 93.5362V92.3569C37.5121 92.2929 37.533 92.24 37.5761 92.1969C38.0017 91.8005 38.5636 91.2303 39.2659 90.4863L39.9029 89.8173C40.5468 89.1511 40.8695 88.6657 40.8695 88.3611C40.8695 88.1553 40.793 87.9856 40.6414 87.8507C40.4884 87.7158 40.2923 87.6491 40.0517 87.6491C39.8111 87.6491 39.6164 87.7158 39.4676 87.8507C39.3188 87.9856 39.2451 88.1623 39.2451 88.382V88.6365C39.2451 88.6727 39.2325 88.7019 39.2075 88.7269C39.1825 88.7519 39.1533 88.7645 39.1171 88.7645H37.5872C37.5511 88.7645 37.5219 88.7519 37.4968 88.7269C37.4718 88.7019 37.4593 88.6727 37.4593 88.6365V88.1052C37.4871 87.7089 37.6192 87.3612 37.8529 87.0635C38.0865 86.7659 38.3953 86.5378 38.7778 86.3779C39.1602 86.218 39.5858 86.1387 40.0531 86.1387C40.5774 86.1387 41.0364 86.236 41.4286 86.4307C41.8222 86.6255 42.1226 86.8897 42.3312 87.2221C42.5398 87.5545 42.6441 87.923 42.6441 88.3264C42.6441 88.617 42.5732 88.9105 42.4313 89.2081C42.2895 89.5058 42.0767 89.8215 41.7944 90.1539C41.5955 90.3945 41.3729 90.6392 41.1254 90.8868C40.8778 91.1344 40.5343 91.4681 40.0948 91.8854L39.882 92.087C39.8681 92.1009 39.8639 92.1149 39.8709 92.1302V92.1343Z" fill="#252530"></path><path d="M44.2269 93.1076C43.7596 92.6514 43.5259 92.0297 43.5259 91.2426V88.6502C43.5259 87.8713 43.7596 87.258 44.2269 86.8115C44.6942 86.3651 45.3353 86.1426 46.1503 86.1426C46.9653 86.1426 47.6092 86.3679 48.0835 86.8171C48.5578 87.2663 48.7956 87.8783 48.7956 88.6502V91.2426C48.7956 92.0284 48.5578 92.65 48.0835 93.1076C47.6092 93.5638 46.9639 93.7933 46.1503 93.7933C45.3367 93.7933 44.6956 93.5652 44.2269 93.1076ZM46.7929 92.0242C46.9528 91.8573 47.0321 91.6292 47.0321 91.3385V88.5876C47.0321 88.2969 46.9528 88.0688 46.7929 87.9019C46.6329 87.735 46.4187 87.6516 46.1503 87.6516C45.8819 87.6516 45.6788 87.735 45.5231 87.9019C45.3673 88.0688 45.2894 88.2969 45.2894 88.5876V91.3385C45.2894 91.6292 45.3659 91.8573 45.5175 92.0242C45.6691 92.1911 45.8805 92.2745 46.1489 92.2745C46.4173 92.2745 46.6329 92.1911 46.7915 92.0242H46.7929Z" fill="#252530"></path><path d="M51.9708 92.1343C51.9777 92.1482 51.9916 92.1552 52.0139 92.1552H54.7231C54.7579 92.1552 54.7885 92.1677 54.8135 92.1927C54.8385 92.2178 54.8511 92.2484 54.8511 92.2831V93.5362C54.8511 93.5724 54.8385 93.6016 54.8135 93.6266C54.7885 93.6517 54.7593 93.6642 54.7231 93.6642H49.7399C49.7038 93.6642 49.6746 93.6517 49.6495 93.6266C49.6245 93.6016 49.612 93.5724 49.612 93.5362V92.3569C49.612 92.2929 49.6329 92.24 49.676 92.1969C50.1015 91.8005 50.6634 91.2303 51.3658 90.4863L52.0027 89.8173C52.6467 89.1511 52.9693 88.6657 52.9693 88.3611C52.9693 88.1553 52.8928 87.9856 52.7412 87.8507C52.5883 87.7158 52.3922 87.6491 52.1516 87.6491C51.911 87.6491 51.7162 87.7158 51.5674 87.8507C51.4186 87.9856 51.3449 88.1623 51.3449 88.382V88.6365C51.3449 88.6727 51.3324 88.7019 51.3074 88.7269C51.2823 88.7519 51.2531 88.7645 51.217 88.7645H49.6871C49.6509 88.7645 49.6217 88.7519 49.5967 88.7269C49.5717 88.7019 49.5591 88.6727 49.5591 88.6365V88.1052C49.587 87.7089 49.7191 87.3612 49.9527 87.0635C50.1864 86.7659 50.4951 86.5378 50.8776 86.3779C51.2601 86.218 51.6856 86.1387 52.1529 86.1387C52.6773 86.1387 53.1362 86.236 53.5284 86.4307C53.922 86.6255 54.2224 86.8897 54.431 87.2221C54.6397 87.5545 54.744 87.923 54.744 88.3264C54.744 88.617 54.673 88.9105 54.5312 89.2081C54.3893 89.5058 54.1765 89.8215 53.8942 90.1539C53.6953 90.3945 53.4728 90.6392 53.2252 90.8868C52.9777 91.1344 52.6342 91.4681 52.1947 91.8854L51.9819 92.087C51.968 92.1009 51.9638 92.1149 51.9708 92.1302V92.1343Z" fill="#252530"></path><path d="M60.5018 91.1889C60.5018 91.5713 60.4309 91.9288 60.289 92.2626C60.1054 92.7229 59.8036 93.0859 59.3864 93.3515C58.9678 93.6172 58.4768 93.7493 57.9094 93.7493C57.3419 93.7493 56.8677 93.613 56.4435 93.3404C56.0179 93.0678 55.7105 92.6979 55.5186 92.2306C55.4046 91.9468 55.3378 91.6353 55.317 91.296C55.317 91.2111 55.3601 91.168 55.4449 91.168H56.9748C57.0596 91.168 57.1055 91.2111 57.1125 91.296C57.1264 91.4726 57.1695 91.6437 57.2404 91.8064C57.2974 91.9482 57.3823 92.0567 57.4949 92.1304C57.6076 92.2041 57.7425 92.2417 57.8982 92.2417C58.1959 92.2417 58.4184 92.1068 58.5672 91.8384C58.666 91.6617 58.716 91.4281 58.716 91.1374C58.716 90.8467 58.666 90.6061 58.5672 90.3933C58.4184 90.1319 58.1917 89.9997 57.8871 89.9997C57.8092 89.9997 57.723 90.0262 57.627 90.079C57.5311 90.1319 57.4087 90.2111 57.2599 90.3182C57.2237 90.3391 57.1959 90.3502 57.175 90.3502C57.1333 90.3502 57.1013 90.3294 57.0791 90.2863L56.3253 89.2237C56.3044 89.1889 56.2933 89.1597 56.2933 89.1389C56.2933 89.0957 56.3114 89.0651 56.3461 89.0429L57.9817 87.7995C57.9956 87.7856 58.0012 87.7717 57.997 87.7564C57.9928 87.7425 57.9817 87.7356 57.9594 87.7356H55.6327C55.5965 87.7356 55.5673 87.723 55.5423 87.698C55.5172 87.673 55.5047 87.6438 55.5047 87.6076V86.3545C55.5047 86.3197 55.5172 86.2892 55.5423 86.2641C55.5673 86.2391 55.5965 86.2266 55.6327 86.2266H60.2654C60.3001 86.2266 60.3307 86.2391 60.3558 86.2641C60.3808 86.2892 60.3933 86.3197 60.3933 86.3545V87.7675C60.3933 87.8315 60.3683 87.8844 60.3182 87.9275L59.0331 88.9372C59.0192 88.9511 59.0137 88.965 59.0178 88.9803C59.0206 88.9942 59.0331 89.0053 59.0554 89.0123C59.6214 89.1611 60.0331 89.5227 60.2876 90.0957C60.4295 90.4351 60.5004 90.8008 60.5004 91.1903L60.5018 91.1889Z" fill="#252530"></path><path d="M16.8298 59.7772C16.8076 59.7994 16.7798 59.8119 16.7478 59.8119H13.5546C13.5226 59.8119 13.5059 59.8286 13.5059 59.8606V61.3696C13.5059 61.4016 13.5226 61.4183 13.5546 61.4183H15.6477C15.6797 61.4183 15.7075 61.4294 15.7297 61.453C15.752 61.4753 15.7645 61.5031 15.7645 61.5351V62.4794C15.7645 62.5114 15.7534 62.5392 15.7297 62.5629C15.7061 62.5865 15.6797 62.5977 15.6477 62.5977H13.5546C13.5226 62.5977 13.5059 62.6144 13.5059 62.6463V64.2235C13.5059 64.2555 13.5226 64.2722 13.5546 64.2722H16.7478C16.7798 64.2722 16.8076 64.2833 16.8298 64.3069C16.8521 64.3292 16.8646 64.357 16.8646 64.3904V65.3347C16.8646 65.3667 16.8535 65.3945 16.8298 65.4168C16.8062 65.439 16.7798 65.4515 16.7478 65.4515H12.25C12.218 65.4515 12.1902 65.4404 12.1679 65.4168C12.1457 65.3945 12.1332 65.3667 12.1332 65.3347V58.7535C12.1332 58.7216 12.1443 58.6937 12.1679 58.6715C12.1902 58.6492 12.218 58.6367 12.25 58.6367H16.7478C16.7798 58.6367 16.8076 58.6478 16.8298 58.6715C16.8521 58.6937 16.8646 58.7216 16.8646 58.7535V59.6979C16.8646 59.7299 16.8535 59.7577 16.8298 59.7813V59.7772Z" fill="white"></path><path d="M22.3346 58.6303H23.4736C23.5056 58.6303 23.5334 58.6414 23.5571 58.6651C23.5793 58.6873 23.5904 58.7151 23.5904 58.7471V65.3283C23.5904 65.3603 23.5793 65.3881 23.5571 65.4103C23.5348 65.4326 23.507 65.4451 23.4736 65.4451H22.3346C22.3026 65.4451 22.2748 65.434 22.2511 65.4103C22.2289 65.3881 22.2177 65.3603 22.2177 65.3283V61.035C22.2177 61.0085 22.2108 60.996 22.1983 60.996C22.1857 60.996 22.1718 61.0057 22.1593 61.0252L21.1274 62.6413C21.0954 62.6928 21.0495 62.7192 20.9911 62.7192H20.4167C20.3583 62.7192 20.3124 62.6928 20.2804 62.6413L19.2484 61.0252C19.2359 61.0057 19.222 60.9974 19.2095 61.0002C19.197 61.003 19.19 61.0183 19.19 61.0433V65.3269C19.19 65.3589 19.1789 65.3867 19.1552 65.409C19.1316 65.4312 19.1052 65.4437 19.0718 65.4437H17.9327C17.9008 65.4437 17.8729 65.4326 17.8507 65.409C17.8284 65.3867 17.8159 65.3589 17.8159 65.3269V58.7457C17.8159 58.7137 17.827 58.6859 17.8507 58.6637C17.8729 58.6414 17.9008 58.6289 17.9327 58.6289H19.0718C19.1302 58.6289 19.1761 58.6553 19.2081 58.7068L20.6684 60.9752C20.6879 61.0141 20.7073 61.0141 20.7268 60.9752L22.1969 58.7068C22.2289 58.6553 22.2748 58.6289 22.3332 58.6289L22.3346 58.6303Z" fill="white"></path><path d="M29.4762 59.7772C29.454 59.7994 29.4261 59.8119 29.3942 59.8119H26.2009C26.1689 59.8119 26.1522 59.8286 26.1522 59.8606V61.3696C26.1522 61.4016 26.1689 61.4183 26.2009 61.4183H28.294C28.326 61.4183 28.3538 61.4294 28.3761 61.453C28.3984 61.4753 28.4109 61.5031 28.4109 61.5351V62.4794C28.4109 62.5114 28.3997 62.5392 28.3761 62.5629C28.3525 62.5865 28.326 62.5977 28.294 62.5977H26.2009C26.1689 62.5977 26.1522 62.6144 26.1522 62.6463V64.2235C26.1522 64.2555 26.1689 64.2722 26.2009 64.2722H29.3942C29.4261 64.2722 29.454 64.2833 29.4762 64.3069C29.4985 64.3292 29.511 64.357 29.511 64.3904V65.3347C29.511 65.3667 29.4998 65.3945 29.4762 65.4168C29.4526 65.439 29.4261 65.4515 29.3942 65.4515H24.8964C24.8644 65.4515 24.8366 65.4404 24.8143 65.4168C24.7921 65.3945 24.7795 65.3667 24.7795 65.3347V58.7535C24.7795 58.7216 24.7907 58.6937 24.8143 58.6715C24.8366 58.6492 24.8644 58.6367 24.8964 58.6367H29.3942C29.4261 58.6367 29.454 58.6478 29.4762 58.6715C29.4985 58.6937 29.511 58.7216 29.511 58.7535V59.6979C29.511 59.7299 29.4998 59.7577 29.4762 59.7813V59.7772Z" fill="white"></path><path d="M34.6694 65.3483L34.3773 64.3943C34.3648 64.3678 34.3481 64.3553 34.3286 64.3553H31.9337C31.9142 64.3553 31.8975 64.3678 31.885 64.3943L31.6027 65.3483C31.5832 65.4137 31.5415 65.4457 31.4761 65.4457H30.2397C30.2008 65.4457 30.1716 65.4346 30.1521 65.4109C30.1326 65.3887 30.1299 65.3539 30.1424 65.3094L32.2452 58.7282C32.2647 58.6628 32.3064 58.6309 32.3718 58.6309H33.9003C33.9656 58.6309 34.0074 58.6628 34.0268 58.7282L36.1297 65.3094C36.1366 65.3219 36.1394 65.3386 36.1394 65.3581C36.1394 65.4165 36.1033 65.4457 36.0323 65.4457H34.7959C34.7306 65.4457 34.6888 65.4137 34.6694 65.3483ZM32.2745 63.2941H33.9879C34.0268 63.2941 34.0394 63.2747 34.0268 63.2357L33.1506 60.3443C33.1437 60.3179 33.134 60.3068 33.1214 60.3109C33.1089 60.3137 33.0992 60.3248 33.0922 60.3443L32.2355 63.2357C32.2286 63.2747 32.2425 63.2941 32.2745 63.2941Z" fill="white"></path><path d="M40.0044 65.2277C39.622 65.0302 39.3257 64.752 39.1185 64.396C38.9113 64.0385 38.807 63.6269 38.807 63.1596V60.9107C38.807 60.4434 38.9113 60.0317 39.1185 59.6743C39.3257 59.3168 39.622 59.0415 40.0044 58.8468C40.3869 58.652 40.832 58.5547 41.3382 58.5547C41.8444 58.5547 42.277 58.6479 42.6567 58.8328C43.0363 59.0178 43.3312 59.2807 43.5426 59.6214C43.754 59.9622 43.8583 60.3571 43.8583 60.8036C43.8583 60.862 43.8193 60.8982 43.7415 60.9107L42.6024 60.9788H42.5829C42.5176 60.9788 42.4856 60.9427 42.4856 60.8717C42.4856 60.5282 42.3799 60.2514 42.1699 60.0442C41.9585 59.837 41.6817 59.7327 41.3382 59.7327C40.9947 59.7327 40.7068 59.837 40.4954 60.0442C40.284 60.2514 40.1797 60.5282 40.1797 60.8717V63.218C40.1797 63.5559 40.2854 63.8285 40.4954 64.0358C40.7068 64.243 40.9877 64.3473 41.3382 64.3473C41.6887 64.3473 41.9599 64.243 42.1699 64.0358C42.3813 63.8285 42.4856 63.5559 42.4856 63.218C42.4856 63.147 42.5245 63.1109 42.6024 63.1109L43.7415 63.1596C43.7735 63.1596 43.8013 63.1693 43.8249 63.1888C43.8472 63.2082 43.8597 63.2305 43.8597 63.2569C43.8597 63.7047 43.754 64.1011 43.544 64.4446C43.3326 64.7882 43.0377 65.0552 42.658 65.2429C42.2784 65.4307 41.8389 65.5253 41.3396 65.5253C40.8403 65.5253 40.3883 65.4265 40.0058 65.2277H40.0044Z" fill="white"></path><path d="M45.5731 65.0947C45.1837 64.8096 44.918 64.4202 44.7748 63.9265C44.6844 63.6219 44.6385 63.2909 44.6385 62.9334C44.6385 62.551 44.6844 62.2061 44.7748 61.9015C44.9236 61.4217 45.1934 61.0448 45.5828 60.7722C45.9722 60.4996 46.4395 60.3633 46.9847 60.3633C47.5299 60.3633 47.9708 60.4982 48.3477 60.768C48.7246 61.0378 48.9902 61.4119 49.146 61.8917C49.2503 62.2158 49.3018 62.5565 49.3018 62.914C49.3018 63.2714 49.2559 63.5927 49.1655 63.8973C49.0222 64.4035 48.758 64.8013 48.3727 65.0891C47.9861 65.3784 47.5216 65.5231 46.975 65.5231C46.4284 65.5231 45.9625 65.3798 45.5731 65.0947ZM47.5202 64.1504C47.669 64.021 47.7761 63.8416 47.8415 63.6149C47.8929 63.4077 47.9193 63.1796 47.9193 62.9334C47.9193 62.6608 47.8929 62.43 47.8415 62.2422C47.7705 62.0211 47.6593 61.85 47.5104 61.7262C47.3616 61.6025 47.1794 61.5413 46.9653 61.5413C46.7511 61.5413 46.5619 61.6025 46.4145 61.7262C46.2685 61.85 46.1628 62.0211 46.0988 62.2422C46.0473 62.398 46.0209 62.6289 46.0209 62.9334C46.0209 63.238 46.0432 63.4522 46.0891 63.6149C46.1544 63.8416 46.2629 64.021 46.4145 64.1504C46.5675 64.2797 46.7539 64.3451 46.9736 64.3451C47.1934 64.3451 47.37 64.2797 47.5188 64.1504H47.5202Z" fill="white"></path><path d="M56.9247 60.8208C57.2098 61.1254 57.353 61.5538 57.353 62.1059V65.3284C57.353 65.3604 57.3419 65.3882 57.3183 65.4104C57.2946 65.4327 57.2682 65.4452 57.2348 65.4452H56.0958C56.0638 65.4452 56.036 65.4341 56.0137 65.4104C55.9914 65.3882 55.9789 65.3604 55.9789 65.3284V62.4077C55.9789 62.1421 55.9108 61.9307 55.7745 61.7749C55.6382 61.6192 55.456 61.5413 55.2293 61.5413C55.0026 61.5413 54.8176 61.6192 54.6744 61.7749C54.5311 61.9307 54.4602 62.1379 54.4602 62.398V65.3284C54.4602 65.3604 54.4491 65.3882 54.4254 65.4104C54.4018 65.4327 54.3754 65.4452 54.342 65.4452H53.2127C53.1807 65.4452 53.1529 65.4341 53.1292 65.4104C53.107 65.3882 53.0945 65.3604 53.0945 65.3284V62.4077C53.0945 62.1476 53.0235 61.939 52.8803 61.7791C52.737 61.6205 52.552 61.5413 52.3254 61.5413C52.1181 61.5413 51.9443 61.6025 51.8038 61.7262C51.6647 61.85 51.5813 62.0211 51.5549 62.2422V65.3284C51.5549 65.3604 51.5437 65.3882 51.5215 65.4104C51.4992 65.4327 51.4714 65.4452 51.438 65.4452H50.299C50.267 65.4452 50.2392 65.4341 50.2155 65.4104C50.1933 65.3882 50.1822 65.3604 50.1822 65.3284V60.558C50.1822 60.526 50.1933 60.4982 50.2155 60.4759C50.2378 60.4537 50.2656 60.4412 50.299 60.4412H51.438C51.47 60.4412 51.4978 60.4523 51.5215 60.4759C51.5437 60.4982 51.5549 60.526 51.5549 60.558V60.9377C51.5549 60.9571 51.5618 60.9697 51.5743 60.9766C51.5868 60.9836 51.6008 60.9766 51.6133 60.9571C51.8789 60.5608 52.292 60.3633 52.8497 60.3633C53.1737 60.3633 53.4588 60.4314 53.7008 60.5677C53.9428 60.704 54.1306 60.8987 54.2613 61.1519C54.2808 61.1908 54.303 61.1908 54.3295 61.1519C54.4727 60.8862 54.666 60.6873 54.9094 60.558C55.1528 60.4286 55.4268 60.3633 55.7328 60.3633C56.239 60.3633 56.6354 60.5163 56.9205 60.8208H56.9247Z" fill="white"></path><path d="M62.9606 62.9529C62.9606 63.4007 62.8994 63.8069 62.7756 64.1698C62.6268 64.5857 62.3904 64.9139 62.0691 65.1573C61.7478 65.4007 61.3501 65.5217 60.8758 65.5217C60.4016 65.5217 60.0455 65.359 59.7855 65.0349C59.7729 65.0154 59.759 65.0085 59.7465 65.0154C59.734 65.0224 59.727 65.0349 59.727 65.0544V67.1378C59.727 67.1698 59.7159 67.1976 59.6923 67.2198C59.67 67.2421 59.6422 67.2546 59.6102 67.2546H58.4712C58.4392 67.2546 58.4114 67.2435 58.3891 67.2198C58.3669 67.1962 58.3543 67.1698 58.3543 67.1378V60.5566C58.3543 60.5246 58.3655 60.4968 58.3891 60.4745C58.4128 60.4523 58.4392 60.4398 58.4712 60.4398H59.6102C59.6422 60.4398 59.67 60.4509 59.6923 60.4745C59.7145 60.4968 59.727 60.5246 59.727 60.5566V60.8779C59.727 60.8973 59.734 60.9085 59.7465 60.9126C59.759 60.9154 59.7729 60.9112 59.7855 60.8987C60.058 60.5413 60.4349 60.3633 60.9148 60.3633C61.3626 60.3633 61.7506 60.4885 62.0775 60.7374C62.4057 60.9877 62.6407 61.3368 62.784 61.7847C62.9008 62.1157 62.9592 62.5051 62.9592 62.9529H62.9606ZM61.5392 62.9334C61.5392 62.5246 61.4711 62.2005 61.3348 61.9599C61.186 61.6803 60.9454 61.5413 60.6144 61.5413C60.3153 61.5413 60.0914 61.6803 59.9426 61.9599C59.8063 62.1935 59.7382 62.5218 59.7382 62.9432C59.7382 63.3646 59.8091 63.7151 59.9523 63.9557C60.1012 64.2157 60.3223 64.3451 60.6144 64.3451C60.9064 64.3451 61.1331 64.2185 61.2958 63.9654C61.4586 63.7123 61.5392 63.3688 61.5392 62.9334Z" fill="white"></path><path d="M66.9716 60.5836C67.3026 60.7296 67.5613 60.9285 67.7449 61.1816C67.9299 61.4347 68.0231 61.7171 68.0231 62.0286V65.3289C68.0231 65.3609 68.0119 65.3887 67.9883 65.411C67.9647 65.4332 67.9382 65.4458 67.9062 65.4458H66.7672C66.7352 65.4458 66.7074 65.4346 66.6837 65.411C66.6615 65.3887 66.649 65.3609 66.649 65.3289V65.0077C66.649 64.9882 66.642 64.9757 66.6295 64.9687C66.617 64.9618 66.6031 64.9687 66.5906 64.9882C66.318 65.3456 65.8799 65.5236 65.2763 65.5236C64.77 65.5236 64.3611 65.3999 64.0496 65.1537C63.7381 64.9075 63.5823 64.5431 63.5823 64.0633C63.5823 63.5835 63.7575 63.176 64.108 62.8992C64.4585 62.6239 64.9578 62.4862 65.6073 62.4862H66.6003C66.6323 62.4862 66.649 62.4695 66.649 62.4375V62.2233C66.649 62.0091 66.5836 61.8422 66.4543 61.7226C66.3249 61.603 66.1302 61.5432 65.8701 61.5432C65.6685 61.5432 65.5016 61.5794 65.3695 61.6503C65.2359 61.7212 65.1497 61.8228 65.1122 61.9521C65.0927 62.023 65.051 62.0564 64.9856 62.0495L63.8076 61.8937C63.7297 61.8812 63.6936 61.852 63.7005 61.8061C63.7269 61.5335 63.8354 61.2873 64.0274 61.0662C64.2193 60.8451 64.4724 60.674 64.7867 60.5502C65.101 60.4264 65.4529 60.3652 65.8437 60.3652C66.2651 60.3652 66.642 60.4376 66.973 60.585L66.9716 60.5836ZM66.3583 64.2775C66.553 64.1287 66.6504 63.9368 66.6504 63.7031V63.3526C66.6504 63.3206 66.6337 63.304 66.6017 63.304H65.9007C65.6087 63.304 65.3792 63.3596 65.2137 63.4695C65.0482 63.5793 64.9647 63.7351 64.9647 63.9368C64.9647 64.112 65.0259 64.2497 65.1497 64.3512C65.2735 64.4513 65.439 64.5014 65.6462 64.5014C65.9258 64.5014 66.1622 64.4263 66.3569 64.2775H66.3583Z" fill="white"></path><path d="M72.8519 60.8403C73.1704 61.1588 73.3289 61.5899 73.3289 62.1351V65.3284C73.3289 65.3604 73.3178 65.3882 73.2955 65.4104C73.2733 65.4327 73.2455 65.4452 73.2121 65.4452H72.073C72.0411 65.4452 72.0132 65.4341 71.9896 65.4104C71.9674 65.3882 71.9562 65.3604 71.9562 65.3284V62.4175C71.9562 62.1574 71.8825 61.9474 71.7365 61.7847C71.5904 61.6219 71.3971 61.5413 71.1565 61.5413C70.9159 61.5413 70.7226 61.6219 70.5766 61.7847C70.4305 61.9474 70.3568 62.1574 70.3568 62.4175V65.3284C70.3568 65.3604 70.3457 65.3882 70.3235 65.4104C70.3012 65.4327 70.2734 65.4452 70.24 65.4452H69.101C69.069 65.4452 69.0412 65.4341 69.0175 65.4104C68.9953 65.3882 68.9841 65.3604 68.9841 65.3284V60.558C68.9841 60.526 68.9953 60.4982 69.0175 60.4759C69.0398 60.4537 69.0676 60.4412 69.101 60.4412H70.24C70.272 60.4412 70.2998 60.4523 70.3235 60.4759C70.3457 60.4982 70.3568 60.526 70.3568 60.558V60.8987C70.3568 60.9182 70.3638 60.9307 70.3763 60.9377C70.3888 60.9446 70.3986 60.9405 70.4055 60.9279C70.6711 60.551 71.0675 60.3633 71.5932 60.3633C72.119 60.3633 72.5306 60.5218 72.8491 60.8403H72.8519Z" fill="white"></path><path d="M74.5013 59.6583C74.3553 59.5123 74.283 59.3287 74.283 59.1089C74.283 58.8892 74.3539 58.6973 74.4972 58.554C74.6404 58.4108 74.8254 58.3398 75.0521 58.3398C75.2788 58.3398 75.4638 58.4108 75.607 58.554C75.7503 58.6973 75.8212 58.8822 75.8212 59.1089C75.8212 59.3356 75.7475 59.5123 75.6015 59.6583C75.4554 59.8043 75.2718 59.878 75.0507 59.878C74.8296 59.878 74.6474 59.8057 74.5 59.6583H74.5013ZM74.3845 65.412C74.3623 65.3897 74.3498 65.3619 74.3498 65.3299V60.5498C74.3498 60.5178 74.3609 60.49 74.3845 60.4663C74.4068 60.4441 74.4346 60.433 74.4666 60.433H75.6056C75.6376 60.433 75.6654 60.4441 75.6877 60.4663C75.7099 60.4886 75.7225 60.5164 75.7225 60.5498V65.3299C75.7225 65.3619 75.7113 65.3897 75.6877 65.412C75.664 65.4342 75.6376 65.4467 75.6056 65.4467H74.4666C74.4346 65.4467 74.4068 65.4356 74.3845 65.412Z" fill="white"></path><path d="M81.2633 63.2547C81.2564 63.3326 81.2146 63.3715 81.1368 63.3715H78.1285C78.0896 63.3715 78.077 63.3882 78.0896 63.4202C78.109 63.5495 78.1452 63.6803 78.1966 63.8096C78.3649 64.1726 78.7098 64.3548 79.2286 64.3548C79.6444 64.3478 79.9713 64.1796 80.2119 63.8485C80.2383 63.8096 80.2675 63.7901 80.2995 63.7901C80.319 63.7901 80.3412 63.8026 80.3677 63.8291L81.0686 64.5203C81.1006 64.5523 81.1173 64.5815 81.1173 64.6079C81.1173 64.6204 81.1048 64.6469 81.0783 64.6858C80.8642 64.9514 80.5888 65.1587 80.2508 65.3033C79.9129 65.4493 79.5429 65.523 79.141 65.523C78.5833 65.523 78.1104 65.3965 77.7252 65.1434C77.3385 64.8902 77.0618 64.537 76.8921 64.0822C76.7558 63.7581 76.6877 63.3326 76.6877 62.8068C76.6877 62.4494 76.7363 62.1351 76.8337 61.8625C76.9825 61.4022 77.244 61.035 77.6181 60.7624C77.9908 60.4898 78.4345 60.3535 78.9463 60.3535C79.5958 60.3535 80.1159 60.5413 80.5095 60.9182C80.9017 61.2951 81.1409 61.7971 81.2258 62.4272C81.2647 62.6733 81.2772 62.9501 81.2647 63.2547H81.2633ZM78.148 62.1156C78.1215 62.2005 78.0993 62.3034 78.0798 62.4272C78.0798 62.4592 78.0965 62.4758 78.1285 62.4758H79.8127C79.8517 62.4758 79.8642 62.4592 79.8517 62.4272C79.8197 62.2394 79.803 62.1476 79.803 62.1546C79.7446 61.9599 79.6431 61.8097 79.4956 61.7026C79.3496 61.5955 79.1702 61.5426 78.956 61.5426C78.5471 61.5426 78.2773 61.7346 78.148 62.117V62.1156Z" fill="white"></path><path d="M82.8988 65.3278C82.5748 65.2041 82.323 65.033 82.145 64.8119C81.967 64.5907 81.878 64.3418 81.878 64.0622V63.9649C81.878 63.9329 81.8891 63.9051 81.9114 63.8828C81.9336 63.8606 81.9614 63.848 81.9948 63.848H83.0755C83.1074 63.848 83.1353 63.8592 83.1575 63.8828C83.1798 63.9051 83.1923 63.9329 83.1923 63.9649V63.9746C83.1923 64.1179 83.2716 64.2389 83.4315 64.339C83.59 64.4391 83.7903 64.4892 84.0295 64.4892C84.2507 64.4892 84.4287 64.4461 84.565 64.3571C84.7013 64.2695 84.7694 64.161 84.7694 64.0316C84.7694 63.9148 84.711 63.8272 84.5942 63.7688C84.4774 63.7104 84.2854 63.6492 84.0198 63.5838C83.7152 63.5059 83.4746 63.4308 83.2994 63.3599C82.8835 63.2166 82.5525 63.0414 82.3064 62.8342C82.0602 62.6269 81.9364 62.3279 81.9364 61.9385C81.9364 61.4587 82.1228 61.0776 82.4955 60.7953C82.8682 60.513 83.3634 60.3711 83.9795 60.3711C84.3953 60.3711 84.7583 60.4379 85.0698 60.5714C85.3814 60.7049 85.6234 60.8912 85.7944 61.1319C85.9669 61.3725 86.0517 61.645 86.0517 61.9496C86.0517 61.9816 86.0406 62.0094 86.017 62.0317C85.9947 62.0539 85.9669 62.0665 85.9349 62.0665H84.8932C84.8612 62.0665 84.8334 62.0553 84.8111 62.0317C84.7889 62.0094 84.7764 61.9816 84.7764 61.9496C84.7764 61.8064 84.7041 61.6868 84.5566 61.5894C84.4106 61.4921 84.2173 61.4434 83.9767 61.4434C83.7625 61.4434 83.5873 61.4823 83.451 61.5602C83.3147 61.6381 83.2465 61.7452 83.2465 61.8815C83.2465 62.0178 83.3133 62.1082 83.4468 62.1735C83.5803 62.2389 83.8028 62.3071 84.113 62.378C84.1839 62.3975 84.266 62.4183 84.3564 62.4406C84.4468 62.4628 84.5441 62.4906 84.6484 62.524C85.1088 62.6603 85.4732 62.8356 85.7388 63.0497C86.0044 63.2639 86.138 63.5754 86.138 63.9843C86.138 64.4642 85.9488 64.8397 85.5691 65.1081C85.1894 65.3779 84.6776 65.5128 84.0365 65.5128C83.6012 65.5128 83.2215 65.4516 82.8974 65.3278H82.8988Z" fill="white"></path></svg>