<svg width="80" height="63" viewBox="0 0 80 63" fill="none" xmlns="http://www.w3.org/2000/svg">
<g id="use case">
<g id="use case img">
<circle id="Ellipse 2389" opacity="0.15" cx="39.5" cy="31.6162" r="24.5" fill="#E6EEFF"/>
<g id="Group 11245">
<path id="Vector" d="M13.6982 11.5371H66.3012C68.7669 11.5371 70.7689 13.4383 70.7689 15.7799V42.9866C70.7689 45.3282 68.7669 47.2294 66.3012 47.2294H13.6982C11.2325 47.2294 9.23047 45.3282 9.23047 42.9866V15.7799C9.23047 13.4383 11.2325 11.5371 13.6982 11.5371Z" fill="white"/>
<rect id="Rectangle 6254" x="46.1523" y="16.46" width="22.1538" height="37.5385" rx="1.69646" fill="#3D7FFC"/>
<rect id="Rectangle 6796" x="13.5391" y="36.7676" width="21.5385" height="14.7692" rx="1.69646" fill="#9FC0FF"/>
<rect id="Rectangle 6797" x="25.2305" y="22.6143" width="16.1538" height="11.0769" rx="1.27235" fill="#E6EEFF"/>
<path id="AD" d="M24.6847 47.6143H23.0832L22.6374 46.3495H20.399L19.9532 47.6143H18.4245L20.7903 41.3268H22.3189L24.6847 47.6143ZM22.3007 45.203L21.5182 42.9465L20.7357 45.203H22.3007ZM30.9692 44.4751C30.9692 45.6944 30.4779 46.4223 29.9501 46.8681C29.4315 47.3049 28.6217 47.6143 27.5298 47.6143H25.4006V41.3359H27.5298C28.6217 41.3359 29.4315 41.6453 29.9501 42.0912C30.4779 42.5279 30.9692 43.2558 30.9692 44.4751ZM29.477 44.4751C29.477 43.7017 29.1858 43.2558 28.9219 43.0011C28.6581 42.7554 28.2213 42.5552 27.6117 42.5552H26.8656V46.3677H27.6117C28.2213 46.3677 28.6581 46.1675 28.9219 45.9127C29.1858 45.6671 29.477 45.2485 29.477 44.4751Z" fill="white"/>
<path id="AD_2" d="M33.5897 30.999H32.3886L32.0542 30.0505H30.3754L30.0411 30.999H28.8946L30.6689 26.2835H31.8154L33.5897 30.999ZM31.8017 29.1906L31.2148 27.4982L30.6279 29.1906H31.8017ZM38.3031 28.6447C38.3031 29.5591 37.9346 30.105 37.5388 30.4394C37.1498 30.767 36.5424 30.999 35.7235 30.999H34.1266V26.2903H35.7235C36.5424 26.2903 37.1498 26.5223 37.5388 26.8567C37.9346 27.1843 38.3031 27.7302 38.3031 28.6447ZM37.1839 28.6447C37.1839 28.0646 36.9655 27.7302 36.7676 27.5391C36.5697 27.3549 36.2422 27.2047 35.7849 27.2047H35.2253V30.0641H35.7849C36.2422 30.0641 36.5697 29.914 36.7676 29.7229C36.9655 29.5386 37.1839 29.2247 37.1839 28.6447Z" fill="#9FC0FF"/>
<path id="YOUR &#226;&#128;&#168;AD" d="M52.6311 28.7599L51.25 31.125V32.7305H50.3178V31.125L48.9367 28.7599H49.9725L50.7839 30.3424L51.5953 28.7599H52.6311ZM56.8097 30.7509C56.8097 32.0342 55.8832 32.7995 54.7036 32.7995C53.5239 32.7995 52.5974 32.0342 52.5974 30.7509C52.5974 29.4677 53.5239 28.6966 54.7036 28.6966C55.8832 28.6966 56.8097 29.4677 56.8097 30.7509ZM55.866 30.7279C55.866 29.9741 55.3653 29.4907 54.7036 29.4907C54.0418 29.4907 53.5412 29.9683 53.5412 30.7279C53.5412 31.4875 54.0418 31.9709 54.7036 31.9709C55.3653 31.9709 55.866 31.4875 55.866 30.7279ZM60.7463 31.0732C60.7463 31.6314 60.6485 32.0169 60.3665 32.3219C60.0903 32.6211 59.6587 32.7938 59.0832 32.7938C58.502 32.7938 58.0762 32.6211 57.7942 32.3219C57.518 32.0169 57.4202 31.6314 57.4202 31.0732V28.7599H58.3582V31.0732C58.3582 31.3551 58.3812 31.5738 58.5135 31.7349C58.6401 31.8846 58.8243 31.9824 59.0832 31.9824C59.3422 31.9824 59.5263 31.8846 59.6529 31.7349C59.7853 31.5738 59.8083 31.3551 59.8083 31.0732V28.7599H60.7463V31.0732ZM64.7016 32.7305H63.6197L62.7853 31.2113H62.4918V32.7305H61.5596V28.7599H62.9867C63.4298 28.7599 63.7751 28.8519 64.034 29.0418C64.2987 29.2375 64.4714 29.554 64.4714 29.951C64.4714 30.7049 63.988 30.9984 63.6945 31.0904L64.7016 32.7305ZM63.5334 29.9856C63.5334 29.7842 63.4528 29.6691 63.332 29.5828C63.2169 29.4964 63.0673 29.4792 62.8544 29.4792H62.4861V30.4977H62.8544C63.0673 30.4977 63.2169 30.4747 63.332 30.3884C63.4528 30.3021 63.5334 30.1927 63.5334 29.9856ZM56.732 42.7305H54.7425L54.1886 41.1592H51.4078L50.8539 42.7305H48.9548L51.8938 34.9193H53.7929L56.732 42.7305ZM53.7703 39.7349L52.7982 36.9315L51.826 39.7349H53.7703ZM64.5396 38.8306C64.5396 40.3453 63.9292 41.2496 63.2735 41.8035C62.6292 42.3461 61.6231 42.7305 60.2667 42.7305H57.6215V34.9306H60.2667C61.6231 34.9306 62.6292 35.315 63.2735 35.8689C63.9292 36.4115 64.5396 37.3158 64.5396 38.8306ZM62.6857 38.8306C62.6857 37.8697 62.324 37.3158 61.9962 36.9993C61.6684 36.6941 61.1258 36.4454 60.3684 36.4454H59.4415V41.1818H60.3684C61.1258 41.1818 61.6684 40.9331 61.9962 40.6166C62.324 40.3114 62.6857 39.7914 62.6857 38.8306Z" fill="white"/>
</g>
<g id="Group 110858">
<path id="Vector_2" d="M18.0075 16.8485C18.0075 17.7356 17.2756 18.4674 16.3885 18.4674C15.5014 18.4674 14.7695 17.7356 14.7695 16.8485C14.7695 15.9614 15.5014 15.2295 16.3885 15.2295C17.2756 15.2295 18.0075 15.9614 18.0075 16.8485Z" fill="#F66058"/>
<path id="Vector_3" d="M24.484 16.8485C24.484 17.7356 23.7522 18.4674 22.8651 18.4674C21.978 18.4674 21.2461 17.7356 21.2461 16.8485C21.2461 15.9614 21.978 15.2295 22.8651 15.2295C23.7743 15.2295 24.484 15.9614 24.484 16.8485Z" fill="#F9BD2E"/>
<path id="Vector_4" d="M30.9606 16.8485C30.9606 17.7356 30.2287 18.4674 29.3416 18.4674C28.4545 18.4674 27.7227 17.7356 27.7227 16.8485C27.7227 15.9614 28.4545 15.2295 29.3416 15.2295C30.2287 15.2295 30.9606 15.9614 30.9606 16.8485Z" fill="#3CC840"/>
</g>
</g>
</g>
</svg>
