<svg width="589" height="577" viewBox="0 0 589 577" fill="none" xmlns="http://www.w3.org/2000/svg">
<g clip-path="url(#clip0_7403_105146)">
<path d="M286.579 377.631C281.438 371.461 276.543 365.899 265.897 363.63C264.147 361.766 264.396 365.594 264.102 361.691C264.543 361.215 264.565 356.843 262.147 359.364C259.239 355.397 255.053 350.593 248.556 358.054C248.738 356.22 255.816 353.209 252.26 351.529C250.335 350.297 248.682 349.489 248.695 347.651C251.031 338.258 246.874 324.826 232.338 322.735C230.202 322.912 230.756 316.498 227.367 319.003C231.142 314.661 222.985 310.676 222.749 308.356C225.429 305.391 219.261 304.639 218.679 301.22C225.521 302.029 218.981 298.512 210.949 300.362C209.584 297.015 205.079 298.183 203.054 295.516C204.549 295.133 203.096 292.338 200.154 291.613C201.156 290.425 199.298 285.982 198.7 291.85C197.713 291.216 195.549 293.346 195.279 291.355C194.938 291.621 195.362 291.731 194.02 293.091C192.427 289.921 198.893 290.475 196.269 286.865C194.479 286.258 191.152 291.33 188.044 288.822C187.359 288.865 187.726 289.094 186.642 290.34C186.288 289.712 185.845 289.463 185.361 289.511C183.872 289.581 182.049 292.414 181.718 295.021C180.151 294.873 177.944 296.276 177.198 299.767C177.621 298.09 175.407 291.996 171.886 291.483C160.935 298.078 163.526 278.36 169.492 270.879C169.255 270.62 171.316 267.747 168.159 267.123C169.979 262.683 163.406 265.251 159.153 262.186C163.172 257.545 167.416 251.066 172.743 243.899C167.866 240.475 162.169 246.837 157.41 251.419C156.992 249.61 154.365 250.77 150.978 250.741C147.655 241.343 159.385 217.739 172.822 214.876C172.637 214.812 172.462 214.767 172.302 214.701C173.339 214.357 172.938 214.985 174.509 213.298C174.421 213.614 174.397 213.466 174.336 214.128C176.456 212.364 177.779 216.305 180.121 214.796C180.162 215.381 179.027 218.81 181.642 217.049C181.743 217.272 181.676 218.483 182.487 217.607L182.386 217.62C182.731 217.253 182.559 217.728 182.853 216.576C182.922 218.177 184.423 220.944 184.222 216.443C183.931 216.289 185.89 216.46 185.355 215.368C186.889 213.963 187.664 216.243 190.116 214.188C190.021 214.383 189.934 214.935 188.912 215.575C190.149 216.33 191.669 214.827 193.672 217.19C190.49 223.236 201.045 212.374 195.267 226.257C194.567 226.587 192.301 229.525 193.911 229.841C193.83 229.985 192.101 231.071 193.505 230.869C189.713 242.678 200.751 232.271 201.74 223.025L201.721 223.005L202.097 223.142C205.637 211.511 220.82 212.526 227.396 208.448C228.439 208.876 230.134 208.151 230.009 206.253C230.369 206.803 234.238 204.265 231.828 203.875C233.708 202.301 234.982 199.191 239.057 197.612C237.149 198.754 235.551 199.276 235.122 201.857C234.705 202.103 233.946 201.764 233.629 203.351C233.603 203.447 233.588 203.561 233.576 203.692C235.079 202.161 238.406 202.907 240.269 198.163C240.789 198.574 239.529 200.105 240.314 199.852C240.281 199.883 240.275 199.905 240.265 199.941C241.862 198.892 245.059 198.258 247.104 195.443C247.019 197.161 256.64 195.818 249.74 195.278C251.281 194.788 253.063 196.125 255.193 194.678C255.67 195.598 254.582 195.685 256.934 195.461C256.485 195.762 255.924 195.853 255.424 196.045C255.48 196.139 258.589 196.702 259.622 194.168C258.838 194.184 259.402 195.024 257.702 194.976C258.747 191.429 262.846 191.438 268.507 189.586C268.695 189.935 267.002 189.77 267.204 190.831C268.047 190.514 271.84 190.248 274.641 189.637C275.428 189.463 276.131 189.268 276.683 189.034C275.463 190.48 278.03 189.187 281.107 188.836C280.798 189.134 281.107 189.073 278.958 189.443C279.672 190.18 279.113 190.058 281.181 189.981C279.712 190.946 277.094 189.691 274.088 191.107C270.705 193.063 274.631 195.783 279.248 191.715C279.336 191.778 279.195 191.701 279.558 192.15C277.926 192.734 284.225 193.307 288.378 191.709C288.321 192.269 293.816 191.752 291.465 190C294.82 188.06 290.83 187.717 287.097 190.967C286.93 190.073 287.109 189.805 285.18 190.351C285.004 190.164 285.121 190.036 284.364 189.745C283.303 189.588 283.737 188.606 282.232 187.704C282.615 186.85 283.055 186.138 283.731 185.542C284.366 184.951 285.182 184.494 286.388 184.13C286.12 183.982 284.308 183.81 283.262 183.775C283.749 183.421 283.211 183.281 281.993 182.752C295.668 184.785 287.153 176.629 270.323 182.634C278.457 179.503 288.266 177.335 297.582 180.448C298.683 180.813 299.786 181.257 300.89 181.788C304.391 180.201 307.21 180.579 311.584 180.267C313.537 180.459 315.851 177.612 315.064 175.73C314.67 174.715 313.373 174 310.693 174.177C312.166 173.489 316.43 175.81 314.71 172.19C314.506 174.396 311.954 169.907 311.262 171.294C310.611 171.125 312.787 169.391 311.236 169.54C311.371 168.961 311.556 169.205 310.969 168.36C311.416 168.358 313.922 167.049 312.75 166.941C313.928 165.94 312.777 165.578 313.903 163.65C315.787 156.834 312.488 162.275 305.23 162.445C305.078 162.405 305.627 161.595 304.708 161.6C303.626 159.375 307.023 158.777 308.531 156.996L308.541 156.959C306.977 157.064 308.075 156.94 305.947 155.852C306.341 155.955 307.994 155.234 306.592 155.224C307.375 153.861 299.098 149.751 298.309 153.427C297.041 153.491 295.681 153.768 294.125 155.844C289.501 155.06 289.427 160.647 283.476 162.226C274.305 162.379 274.327 165.471 267.166 169.374C268.416 166.172 264.728 171.993 265.219 166.515C265.235 166.164 265.82 165.663 266.648 165.106C266.969 164.914 267.289 164.698 267.639 164.49C270.725 162.638 275.067 160.444 270.228 160.234C270.178 160.181 270.135 160.131 270.065 160.089C270.162 159.973 270.246 159.876 270.329 159.78C270.06 159.726 270.101 159.665 269.083 159.558C269.451 158.607 269.565 158.637 267.589 157.352C269.388 156.016 267.309 153.342 263.959 153.795C264.711 153.455 266.685 152.661 268.511 151.08C267.762 150.822 267.648 150.793 266.966 150.821C269.67 148.413 276.822 147.838 282.671 146.539C284.046 147.116 288.507 147.283 284.762 144.586C285.518 144.641 285.761 145.995 287.253 146.209C287.732 146.475 287.977 146.177 289.501 145.628C290.035 146.956 294.475 146.322 296.158 145.255C297.222 145.256 297.478 145.063 299.26 145.053C297.148 145.67 294.12 146.489 291.106 147.431C291.803 147.494 292.496 147.516 293.049 147.778C293.039 147.815 292.524 147.972 291.865 148.447C292.459 149.176 295.248 148.255 297.392 147.961C295.215 149.931 303.592 150.123 299.355 148.408C299.487 148.285 299.729 148.466 300.531 148.005C300.431 147.719 300.58 146.593 299.64 146.293C300.015 145.58 299.979 146.004 300.518 145.112C299.989 145.117 299.712 145.974 298.666 146.056C299.152 145.765 299.31 145.869 299.904 145.189C299.848 145.159 299.9 145.204 299.627 145.015C299.982 144.847 299.989 144.353 300.965 144.669C300.891 144.792 300.715 145.195 301.417 145.18C300.097 145.373 301.989 147.841 301.857 145.295C302.216 145.404 302.148 145.945 303.102 145.138C303.832 145.965 307.644 145.924 309.329 143.882C309.796 144.042 312.902 143.503 311.939 142.725C311.909 142.158 312.548 142.372 313.502 142.155C313.78 142.763 314.898 143.391 315.993 143.337C316.035 143.332 316.064 143.316 316.102 143.326C316.645 143.27 317.161 143.05 317.576 142.575C317.879 142.89 317.62 142.768 318.239 143.204C318.02 143.321 316.888 143.743 317.957 143.784C317.926 143.895 317.951 143.862 318.264 144.14C318.231 144.171 318.222 144.145 317.956 144.375C318.12 144.457 317.941 144.371 318.567 144.455C317.962 144.557 314.759 145.009 317.871 145.179C317.059 145.386 317.23 146.383 318.595 145.588C318.484 145.756 318.432 145.648 318.077 146.288C316.191 145.499 317.432 148.71 318.867 146.013C318.877 146.212 318.636 146.409 319.319 146.524C318.226 149.507 315.306 146.41 313.176 149.384C310.713 149.658 308.046 147.115 304.995 149.22C305.408 150.752 305.006 149.474 307.166 150.295C308.413 149.84 308.862 151.389 310.404 150.247C310.489 150.529 309.462 151.364 310.786 150.921C310.677 151.404 310.55 151.041 310.842 151.982C309.617 153.034 310.387 154.833 313.75 156.241C317.682 159.381 315.235 154.864 316.023 153.864C317.578 154.527 318.107 160.223 320.459 155.095C320.385 156.477 322.197 156.121 321.545 153.897C322.871 155.682 321.61 151.575 320.939 151.125C323.338 150.496 323.57 150.714 324.311 153.702C326.467 152.837 335.261 153.696 327.154 148.441C326.834 148.043 327.184 148.394 325.973 147.544C326.77 147.097 327.552 147.442 329.149 147.219C329.351 147.075 327.876 146.888 328.197 146.373C329.261 147.461 329.948 145.269 328.282 145.624C328.535 145.532 328.876 145.385 329.132 145.136C329.151 144.921 328.033 144.969 327.277 143.883C328.114 143.825 326.316 142.129 325.113 143.281C325.246 142.859 326.653 141.997 324.624 141.052C328.995 139.432 317.198 138.8 323.88 140.717C323.157 140.75 320.05 140.675 320.016 140.446C325.969 138.567 316.021 137.448 313.895 140.202C313.446 138.361 317.235 138.755 319.323 138.164C317.288 137.477 313.831 137.115 309.039 138.878C309.222 139.539 309.655 138.502 310.803 139.753C307.442 138.014 306.65 141.028 312.524 141.665C312.904 142.377 312.192 142.192 309.762 141.168C309.651 141.336 308.3 141.142 308.512 142.37C307.446 142.526 306.772 141.879 305.032 142.474C304.887 142.177 302.795 142.428 303.21 143.072C302.908 143.135 302.009 143.216 301.176 143.26C301.456 142.6 301.358 142.457 302.731 141.924C302.748 142.07 303.025 141.977 303.073 142.391C303.656 142.046 305.017 141.706 304.844 140.567C304.038 140.752 303.252 140.571 301.02 141.534C301.279 141.271 302.986 139.888 303.015 140.809C303.67 140.585 304.043 140.997 303.83 139.713C303.391 139.536 303.596 139.826 302.463 139.634C302.717 139.361 303.084 139.677 303.849 139.262C304.518 139.868 306.131 138.469 306.479 137.355C309.027 136.922 311.166 137.619 315.198 136.927C314.068 136.492 312.983 135.186 310.674 135.988C308.144 136.063 304.851 137.105 301.387 137.796C301.421 137.82 301.482 137.836 301.52 137.846C300.859 137.737 297.976 138.531 300.427 139.066C300.461 139.09 300.103 139.123 300.351 139.4C299.309 139.468 299.274 139.301 297.648 139.572C297.71 139.73 297.881 139.845 298.004 139.901C296.215 140.523 294.842 139.733 292.527 140.793C292.53 140.691 292.546 140.782 292.48 140.521C292.297 140.654 292.095 140.798 291.877 140.939C292.079 140.739 292.212 140.609 293.617 139.729C293.287 139.982 292.907 140.238 292.555 140.485C292.747 140.377 293.812 140.079 295.159 139.791C295.037 139.705 294.959 139.779 294.415 139.456C295.256 139.675 302.349 138.549 297.978 138.524C297.816 137.553 296.851 137.578 295.312 138.501C295.493 138.375 295.696 138.23 295.894 138.101C295.107 138.274 292.011 137.809 294.306 138.822C292.537 138.874 288.876 140.277 287.233 137.733C287.172 137.717 286.558 137.88 286.328 137.537C286.34 137.438 288.064 137.752 287.39 136.781C287.447 136.812 287.542 136.821 287.615 136.643C286.894 136.873 284.142 135.253 282.857 136.934C282.144 136.576 280.729 137.846 279.774 137.598C280.151 137.554 281.465 136.652 280.662 136.443C283.662 135.931 279.164 136.542 276.393 135.255C276.912 134.319 278.843 136.207 279.66 134.159C277.686 133.985 278.039 131.739 275.375 131.857C275.618 131.802 275.875 131.751 276.776 131.607C275.97 130.91 273.368 131.95 273.208 131.499C274.054 131.026 273.373 131.873 276.018 130.442C275.224 130.495 274.929 130.915 272.501 130.678C272.635 130.634 272.761 130.706 273.8 130.504C272.739 130.11 271.107 130.198 268.511 129.98C268.549 129.99 268.696 129.989 268.794 129.841C268.344 129.763 268.76 129.816 267.692 129.83C267.96 129.506 266.796 129.897 266.663 129.705C266.178 129.461 265.489 130.25 264.025 129.728C264.188 129.196 264.476 129.271 265.604 128.894C265.036 128.802 263.395 127.187 263.415 127.294L263.268 127.295C263.338 127.101 263.399 127.408 263.795 126.858C263.045 126.545 263.84 126.987 262.321 126.49C262.91 126.565 264.466 125.898 262.724 126.06C262.897 125.963 264.095 125.684 262.665 125.745C264.861 125.324 261.98 125.725 261.196 125.301C259.135 125.206 256.612 125.637 252.139 125.483C251.007 125.583 248.201 126.067 245.54 127.115C245.555 127.119 245.641 127.102 245.813 127.068C245.105 127.278 243.831 127.805 242.721 127.47C244.19 127.182 242.935 127.431 244.486 127.078C244.163 127.072 243.949 126.875 242.254 127.309C242.274 127.235 242.239 127.305 242.478 127.146C240.713 127.42 238.714 127.775 235.996 128.793C236.418 128.737 236.025 128.777 237.08 128.72C236.959 128.807 236.703 128.764 236.185 129.079C236.525 129.025 236.39 129.014 238.015 128.806C238.053 128.816 238.082 128.8 238.124 128.795C238.082 128.8 238.038 128.812 237.994 128.824C236.069 129.292 234.848 129.629 231.976 130.056C232.031 130.007 232.259 129.972 232.819 129.739C232.495 129.797 232.084 129.903 231.749 129.997L231.759 129.96C229.289 130.641 228.125 130.914 223.386 132.753C223.571 132.699 223.787 132.621 223.969 132.582C223.72 132.659 223.49 132.756 223.243 132.826C221.612 133.41 219.91 134.102 217.396 135.149C217.325 135.17 217.255 135.215 217.141 135.248C217.003 135.307 216.83 135.404 216.622 135.507C217.095 135.355 216.967 135.377 218.227 134.932C218.323 134.878 218.438 134.845 218.543 134.818C218.38 134.878 218.403 134.883 218.227 134.932C218.116 134.982 217.878 135.078 217.422 135.259C217.632 135.234 217.426 135.244 218.068 135.127C217.208 135.416 214.308 136.387 211.804 137.602L212.12 137.487C212.12 137.487 212.135 137.491 211.999 137.574C212.605 137.377 213.177 137.014 215.802 136.302L215.794 136.418C215.654 136.484 215.472 136.555 214.607 136.866C214.648 136.774 214.591 136.862 214.848 136.668C214.043 136.995 213.395 137.047 211.579 138.095C211.684 138.067 211.932 137.99 212.588 137.703C212.584 137.718 212.603 137.707 212.461 137.812L212.455 137.834L212.476 137.816C212.581 137.788 213.05 137.65 213.635 137.385C213.624 137.421 213.657 137.391 213.589 137.491C214.228 137.381 214.636 137.228 216.279 136.544L216.225 136.593C216.453 136.589 217.381 136.319 218.392 135.833C217.678 135.978 217.643 135.812 215.73 136.591C217.199 135.862 219.28 135.355 221.487 134.598L221.502 134.602C221.588 134.585 221.815 134.644 222.61 134.354C222.579 134.409 222.621 134.373 222.498 134.467C222.8 134.49 223.764 134.087 225.158 133.772C225.078 133.83 224.981 133.829 224.694 133.983C225.099 133.93 224.999 133.762 226.913 133.417C225.466 133.836 223.057 134.352 220.392 135.266C220.892 135.75 222.709 134.703 223.849 135.015C224.091 134.96 224.393 134.896 224.617 134.821C224.268 134.966 224.554 134.844 223.786 135.242C224.684 135.255 225.964 134.383 228.905 133.88C228.045 134.467 227.919 134.041 225.475 135.067C226.248 134.914 225.713 135.027 227.698 134.574C227.291 134.783 227.566 134.524 226.439 135.074C226.557 135.088 226.477 135.083 226.786 135.085C226.275 135.464 226.413 135.169 224.923 135.829C224.815 136.014 228.831 134.766 226.337 136.708L227.156 136.567C225.968 137.014 225.158 137.654 223.68 138.711L223.603 138.754C223.573 138.864 218.512 140.541 219.141 140.705C218.581 140.937 218.559 140.813 216.343 141.954C216.478 142.052 216.344 142.096 216.756 141.959C215.337 142.598 214.049 143.114 211.842 144.43C212.483 144.4 211.974 144.48 213.363 143.951C213.31 144.055 213.268 143.911 212.981 144.364C214.062 144.007 215.132 143.513 217.721 142.288C216.833 142.766 214.379 144.034 212.498 144.994L212.814 144.879C210.092 146.235 206.83 148.135 203.221 150.465C202.969 150.557 202.827 150.481 201.857 151.26L202.334 151.384C192.005 157.873 170.748 168.051 159.381 182.144C158.128 183.267 159.097 182.054 155.037 187.133C154.87 187.444 154.341 187.448 153.437 189.016C153.421 189.075 153.441 189.001 153.335 189.383C155.091 193.902 145.094 199.541 144.971 205.689C144.863 205.637 144.737 205.565 144.627 205.521C145.405 205.88 144.053 208.245 142.206 207.844C141.507 207.702 139.528 212.274 140.485 213.633C141.828 215.501 137.275 218.956 136.722 222.017C136.722 222.017 136.77 221.99 136.905 221.883L136.915 222.051L137.04 221.981C138.125 221.964 134.263 229.353 136.773 226.943C138.509 221.252 143.104 213.557 145.531 205.834L145.957 206C146.929 203.127 148.041 201.692 151.001 198.445C151.329 198.491 150.288 199.409 151.678 199.259C151.648 199.306 150.348 200.748 151.5 200.197C151.066 200.737 148.715 203.984 147.374 206.25C146.883 206.556 146.84 206.623 145.771 208.054C146.037 208.06 146.007 208.17 146.521 207.926C143.475 219.094 140.097 229.404 135.776 242.658C135.934 242.321 136.105 241.996 136.255 241.657C136.073 245.782 140.4 260.511 145.82 258.179C146.719 257.366 148.479 257.784 148.983 259.812C149.538 263.798 150.115 267.908 153.612 270.714C154.972 270.729 155.304 274.2 157.774 272.433C156.996 273.837 157.488 278.492 159.337 281.176C158.397 282.814 157.179 285.663 158.8 288.438C159.162 287.862 159.182 287.112 159.836 286.746C161.235 288.559 160.279 292.9 162.947 295.971C162.686 293.801 166.95 295.885 164.881 297.465C163.956 295.698 163.676 301.089 165.417 298.022C165.494 297.979 165.394 298.252 165.986 298.169C165.805 299.941 170.1 301.97 168.509 296.211C169.654 295.973 169.547 296.654 171.048 294.635C172.838 292.446 175.593 303.255 173.292 307.437C172.925 308.703 173.702 313.267 171.705 312.591C170.753 313.154 171.714 314.908 172.536 315.578C171.89 317.473 168.842 317.571 168.07 320.952C167.121 320.682 166.733 321.353 167.397 322.856C164.806 322.86 163.51 324.287 163.043 328.559C161.797 329.306 160.399 333.691 162.794 336.69C155.969 346.601 169.409 368.468 175.955 381.514C178.309 386.219 180.875 388.689 183.3 390.846C187.777 394.835 191.798 397.77 193.164 411.839C193.311 413.98 193.681 416.107 194.182 418.261C196.442 427.894 201.575 437.47 202.983 446.568C204.509 448.861 205.776 449.686 207.448 452.656L207.41 452.646C207.564 453.796 208.454 455.216 209.974 456.682C209.923 456.629 209.788 456.531 209.615 456.51C210.309 457.029 210.346 459.038 212.492 459.855C212.193 458.731 212.191 459.62 210.691 456.616C211.731 456.847 212.132 459.069 213.495 460.132C213.477 460.284 214.205 461.324 214.668 462.381C214.148 461.97 214.739 462.36 213.048 460.929C213.822 462.122 214.864 464.054 216.499 466.1C216.499 466.1 216.376 465.871 216.335 465.664C216.484 465.86 216.994 466.544 217.533 465.975L217.464 465.635C217.813 466.079 218.296 466.386 219.03 467.521C218.969 467.506 218.964 467.41 218.098 467.043C218.145 467.11 218.06 467.033 218.464 467.571C218.449 467.567 218.408 467.541 218.329 467.473C219.11 469.818 223.017 472.021 225.136 474.256C225.137 474.194 225.146 474.22 225.155 474.041C225.155 474.041 225.195 474.13 225.606 474.552C225.601 474.511 225.633 474.543 225.478 474.282C225.634 474.362 225.527 474.311 225.896 474.533L225.919 474.539L225.923 474.524C226 474.686 226.244 474.623 226.644 475.089C226.492 475.05 226.584 475.011 226.05 474.856C226.115 474.857 226.247 475.261 226.592 475.335C226.688 475.282 227.287 475.847 227.333 475.622C227.355 475.628 227.404 475.806 227.665 475.89L227.669 475.875C227.783 475.904 227.68 475.98 228.358 476.408C228.347 476.39 228.357 476.353 228.373 476.294C228.473 476.375 228.414 476.383 228.783 476.574L228.766 476.491C228.725 476.401 229.008 476.79 229.562 477.075L229.82 477.26L229.796 477.199L230.103 477.413C230.103 477.413 230.08 477.407 230.094 477.355C230.188 477.458 230.08 477.407 230.465 477.57C230.569 477.636 230.516 477.622 230.821 477.78C230.821 477.78 230.777 477.706 230.726 477.598C231.147 477.865 230.912 477.804 231.762 478.285C231.756 478.22 231.787 478.252 231.685 478.123C232.293 478.596 233.195 478.948 234.15 479.401L233.832 479.082C234.002 479.142 234.415 479.706 234.852 479.741C234.745 479.54 234.842 479.777 234.239 479.227C234.292 479.241 234.495 479.475 234.502 479.154C234.568 479.21 234.75 479.375 234.797 479.057C229.26 475.761 223.262 468.4 223.503 462.503C223.127 462.161 222.574 462.017 222.274 461.546C225.493 462.004 222.791 462.318 220.192 457.911C220.695 458.238 221.887 458.95 222.759 459.113C223.929 459.378 224.524 458.721 222.083 454.977C230.431 459.067 230.212 451.719 224.959 446.718C227.44 447.937 235.363 453.711 235.358 443.679C235.958 443.064 236.021 441.222 238.099 441.226C235.979 449.249 242.144 432.79 244.875 429.051C245.378 429.024 247.79 426.997 250.467 428.535C250.638 427.036 250.441 427.599 253.929 426.647C257.855 427.809 260.71 428.645 262.898 423.316C268.741 419.748 264.628 406.862 273.504 402.515C290.679 394.088 297.866 382.074 286.512 377.637L286.579 377.631ZM309.242 174.226C309.755 173.926 309.493 174.433 310.108 174.411C309.495 174.575 308.136 174.907 307.54 174.477C308.129 174.433 308.67 174.298 309.242 174.226ZM293.48 143.544C293.764 143.633 294.199 143.675 294.559 143.84C294.995 143.969 295.317 144.273 295.241 144.93C294.685 144.943 293.815 144.623 294.695 143.938C294.644 143.886 294.62 143.856 294.559 143.84C294.37 143.791 294.011 143.973 293.192 143.469L293.48 143.544ZM184.284 214.515C184.675 213.979 184.923 214.405 185.088 215.22C184.801 215.082 184.862 215.303 184.242 214.52L184.284 214.515ZM161.338 282.106C161.115 282.528 160.808 281.141 159.449 281.182C159.596 280.74 160.412 275.055 161.365 282.097L161.345 282.107L161.338 282.106ZM193.784 293.943C193.388 295.525 196.017 297.971 192.69 299.516C191.06 298.92 191.749 295.989 193.784 293.943ZM308.562 157.027C308.502 157.248 308.634 157.062 308.562 157.027V157.027Z" fill="url(#paint0_radial_7403_105146)"/>
<path d="M420.814 167.007C420.873 167.037 420.887 167.041 420.873 167.037L420.802 166.997C420.802 166.997 420.809 166.998 420.816 167L420.814 167.007Z" fill="url(#paint1_linear_7403_105146)"/>
<path d="M450.734 199.178C443.252 188.768 434.421 178.706 424.165 169.028C423.792 168.696 423.373 168.328 422.812 167.868C423.151 168.232 422.947 167.958 423.751 168.701C423.794 168.775 423.892 168.856 424.048 169.014L423.913 168.924C424.179 169.206 423.962 168.976 424.594 169.588L424.459 169.498C424.573 169.606 424.428 169.664 425.226 170.429C424.708 170.241 424.407 169.682 423.21 168.681C423.519 169.155 423.5 169.079 424.344 169.966C424.302 169.916 424.214 169.854 424.112 169.788C424.524 170.47 424.173 169.946 425.196 171.195L425.061 171.16C425.364 171.656 426.24 172.339 427.296 173.643C427.274 173.637 427.124 173.599 426.786 173.37C426.253 172.752 425.948 172.895 424.996 171.68C425.007 171.699 425.06 171.736 425.158 171.761C424.78 171.246 423.433 170.064 421.972 169.374C422.787 170.277 423.475 170.572 425.159 172.33C425.148 172.311 425.103 172.299 425.066 172.29C426.586 173.714 426.596 173.392 428.112 175.115C427.057 174.268 428.048 175.059 426.449 173.915C427.028 175.232 428.925 176.973 430.152 178.495C430.095 178.757 426.661 175.737 428.121 177.461L428.084 177.452C428.274 177.919 429.08 178.283 430.745 179.76C428.058 178.834 425.848 175.489 422.54 172.937C426.694 175.706 428.771 175.544 422.098 170.416C422.092 170.438 422.129 170.448 422.167 170.6C420.706 169.767 419.646 168.564 417.058 167.427C417.123 167.538 417.006 167.469 417.46 167.94C416.928 167.607 416.259 166.898 415.015 166.066C415.075 166.279 415.019 166.107 415.286 166.531C414.949 166.302 414.383 166.859 414.102 165.769L414.237 165.804C413.67 165.019 413.107 164.938 411.602 163.976C411.641 164.065 411.677 164.137 411.723 164.204C411.506 164.03 411.146 163.796 410.597 163.521C410.583 163.573 410.926 163.724 411.531 164.715C411.136 164.377 411.444 164.512 410.415 163.656C410.999 164.495 411.351 165.016 411.47 165.221C410.904 164.633 411.562 165.181 409.775 163.334C409.787 163.432 409.76 163.33 409.869 163.658C409.767 163.592 409.707 163.577 409.351 163.328C409.686 163.792 409.513 163.551 410.263 164.398C410.08 164.249 410.278 164.402 409.768 164.074C409.768 164.074 409.743 164.107 409.768 164.216C409.67 163.994 409.331 163.686 408.699 163.847C408.748 164.018 409.126 164.13 409.982 164.831C409.863 164.738 409.65 164.58 409.443 164.89C409.281 164.809 409.378 164.834 408.991 164.553C409.204 164.884 409.147 164.657 409.825 165.762C408.85 164.399 407.597 164.259 409.759 166.573C409.128 166.017 407.927 165.172 409.698 167.134C409.633 167.078 409.5 166.98 409.101 166.657L409.329 167.134C409.183 167.136 409.021 166.226 408.327 166.238C407.862 166.237 406.249 166.462 406.839 167.308C407.31 168.005 408.923 170.818 409.732 168.074C410.615 168.876 410.951 170.628 412.056 172.474C411.964 172.371 412.029 172.427 411.742 172.219C411.814 172.593 412.811 173.448 413.046 174.558C412.986 174.543 412.979 174.423 412.742 174.267L413.011 174.77L412.539 174.705C413.097 174.95 413.79 176.375 413.236 176.69C413.33 177.014 413.269 176.857 413.537 177.565C413.065 177.444 413.516 177.638 412.644 176.854C412.593 177.181 412.731 176.916 412.922 177.723C412.794 177.666 412.762 177.579 412.187 177.053C412.317 177.82 412.651 177.488 413.392 179.027C413.166 178.89 413.343 178.975 412.514 178.407C412.668 178.802 412.501 178.538 413.004 179.322C412.918 179.403 412.846 179.029 412.458 179.182C412.473 179.186 412.414 179.337 412.505 179.731C412.409 179.643 412.446 179.653 412.165 179.423C412.149 179.537 412.238 179.363 411.968 180.043C411.834 179.89 411.963 180.002 411.526 179.614C411.77 180.032 412.035 180.518 412.341 181.03C413.416 182.955 414.774 185.387 416.348 187.48C416.364 187.421 416.344 187.494 416.449 187.206C416.524 187.28 416.519 187.239 416.946 187.665C416.228 187.622 420.351 194.314 421.473 189.102C421.402 188.783 421.312 188.389 421.192 188.098C423.401 190.732 424.907 192.208 427.749 196.709L427.556 196.596C427.521 196.863 427.501 197.221 427.552 197.471C425.924 195.799 427.874 200.647 429.483 201.383C430.245 200.324 429.021 200.507 428.957 198.589C429.85 199.213 431.581 201.03 430.285 197.659C431.018 197.65 430.399 197.625 431.603 197.997C431.597 197.877 431.694 197.902 431.448 197.405C431.498 197.457 431.627 197.569 431.837 197.82C431.77 197.629 431.52 196.287 430.587 194.801C430.586 195.037 430.626 195.324 430.664 195.531C429.744 194 429.794 193.879 428.325 191.182C428.587 191.052 428.336 191.201 428.714 190.367C428.853 190.386 428.811 190.249 429.032 190.464C428.741 188.779 427.126 187.552 425.517 185.987C424.811 185.325 424.132 184.598 423.561 183.742L423.679 183.748C422.364 181.249 421.05 177.913 419.967 174.644C420.763 175.125 420.958 174.859 422.475 176.582C422.171 176.377 422.475 176.582 421.684 175.937C422.406 177.258 422.815 177.458 423.569 179.956C423.494 179.937 423.521 179.983 423.397 179.912C424.566 182.074 426.583 184.817 429.276 187.472C429.319 187.547 429.355 187.619 429.399 187.662C429.677 188.048 430.069 188.165 430.544 188.192C431.765 188.245 433.491 187.559 435.055 189.167C434.834 189.529 434.78 189.949 434.619 190.152C434.451 190.409 434.12 190.356 433.134 189.551C433.134 189.693 433.111 189.86 433.089 189.997C432.912 189.912 432.725 190.006 432.517 190.521C432.592 190.824 432.809 191.196 432.961 191.456C432.847 191.347 432.705 191.224 432.574 191.12C432.853 192.217 432.259 192.388 433.788 194.067C433.782 194.002 433.585 193.415 433.923 193.21C433.827 192.924 433.633 192.583 433.489 192.325C434.175 192.682 433.605 192.339 434.873 193.374C434.873 193.374 434.85 193.313 434.812 193.161C435.097 194.15 436.079 194.315 436.621 196.506C431.333 192.111 437.018 198.47 436.896 201.572C437.225 204.497 437.382 200.41 432.703 203.417C432.21 202.738 432.38 203.05 430.984 201.326C430.877 201.362 431.141 201.627 430.692 201.851C430.823 202.043 429.709 201.978 429.678 202.72C427.021 201.17 425.905 196.299 423.238 192.119C423.046 191.715 423.504 193.979 422.613 193.174C422.104 194.133 423.445 198.344 425.771 200.218C425.646 201.236 426.881 201.213 426.581 203.03C426.215 202.818 424.983 201.453 425.145 203.254C424.347 203.065 422.956 202.212 423.105 204.262L423.023 204.123C422.968 204.464 423.781 208.184 420.791 208.712C421.232 209.456 419.51 210.388 419.629 212.802C418.356 213.248 417.859 212.071 416.266 210.905C415.234 210.838 419.743 215.348 415.794 214.399C415.288 213.827 415.693 213.813 412.739 213.552C411.304 214.636 414.212 216.234 416.586 218.05C416.586 218.05 416.65 218.051 416.88 217.944C416.887 218.065 424.316 230.411 418.324 230.105C415.389 230.205 410.443 226.08 406.945 227.905C406.827 230.708 406.098 239.873 406.951 245.545C406.977 247.343 404.812 249.74 410.515 248.843C415.058 254.466 410.425 253.12 421.368 252.975C422.176 252.527 421.447 250.888 424.013 250.812C423.054 249.28 425.413 248.338 425.481 246.864C422.845 244.523 425.223 240.129 429.723 237.85C428.042 233.473 429.768 232.645 435.45 234.718C436.952 226.745 440.135 238.026 440.708 236.982C441.459 237.971 442.009 239.477 443.409 240.468C443.584 241.649 444.929 242.61 446.594 243.944C447.711 246.377 451.335 248.632 451.457 252.381C451.881 255.11 448.759 253.733 447.358 253.831C447.26 253.664 447.347 253.813 447.07 253.339C446.35 255.396 453.524 264.898 451.386 254.959C451.386 255.014 451.658 255.565 452.122 255.858C452.302 255.644 452.082 255.138 452.431 254.524C452.472 254.519 452.393 254.515 452.629 254.678C452.842 254.259 452.305 253.798 452.626 252.594C454.419 251.467 450.603 250.015 451.62 246.898C451.94 246.901 451.643 247.733 452.843 247.922C457.964 251.997 441.918 235.674 440.913 229.229C442.347 228.208 441.898 229.324 443.707 231.95L443.781 231.456C443.703 231.736 445.236 233.313 444.645 231.899C447.955 238.54 453.563 240.42 455.869 249.7C455.813 249.67 455.94 249.734 455.607 249.491C455.849 251.005 457.645 252.531 458.868 255.449C458.857 255.43 458.842 255.34 458.915 255.138C459.006 255.042 459.414 255.447 459.905 255.731C460.302 255.975 460.76 256.147 461.115 255.939C461.557 256.51 460.853 256.787 462.556 257.358C462.497 257.224 462.583 257.404 462.109 256.288C462.326 256.517 462.234 256.557 463.039 257.355C462.582 254.799 459.701 252.53 458.609 248.146C461.28 251.451 458.313 245.963 461.828 247.401C461.864 248.562 462.889 247.712 463.062 249.903C462.718 249.555 462.756 253.234 464.189 254.02C464.252 253.365 464.044 253.249 464.009 252.285C464.11 252.784 464.716 253.342 464.539 254.922C464.516 254.917 464.547 254.806 464.441 254.755C464.446 254.796 464.362 254.751 464.374 255.196C464.374 255.196 464.238 255.106 463.902 254.933C463.958 256.02 463.65 254.971 464.527 256.798C464.548 256.724 464.589 256.577 464.494 256.055C464.776 256.427 464.522 256.615 465.237 257.532C465.237 257.532 465.225 257.49 465.287 257.269C465.598 257.388 465.531 257.773 466.167 257.936C466.093 257.917 466.013 257.913 465.901 257.884L465.997 258.343C465.997 258.343 465.728 258.1 465.441 257.663C465.556 257.914 464.975 258.096 465.92 259.136C465.953 259.16 465.855 259.024 466.025 258.989C466.212 259.037 465.83 259.831 466.743 260.467C466.661 260.904 466.467 261.509 466.645 263.141C466.88 262.531 466.72 263.16 466.986 261.264C467.023 261.273 467.025 261.353 467.447 261.279L467.444 261.634L467.346 261.553C467.374 261.655 466.767 261.957 467.319 262.856C468.13 262.709 467.526 261.599 468.004 265.313C468.317 265.196 468.048 263.635 468.211 262.193C468.326 262.499 468.207 262.208 468.635 263.06L468.834 262.692C468.849 263.927 470.971 267.905 470.446 262.553C471.371 262.491 471.792 265.976 473.25 265.301C473.305 265.331 473.273 265.362 473.449 265.391C473.487 264.825 473.461 263.887 473.515 263.064C473.726 263.458 474.458 264.655 474.35 263.176C474.951 267.741 478.617 278.302 475.778 282.877C475.284 284.928 474.232 278.535 473.004 282.402C472.951 282.365 472.995 282.377 472.86 282.287C472.636 282.284 473.002 282.583 472.08 283.696C468.855 282.254 459.316 265.973 460.944 282.151C460.744 286.764 452.379 273.602 445.934 268.634C443.922 268.537 446.166 261.528 445.033 256.573C443.522 256.407 441.418 255.347 438.377 255.743C437.689 256.537 437.582 253.392 436.924 255.37C436.805 256.137 435.301 254.599 435.165 256.545C432.516 250.783 423.129 259.732 419.684 257.042C416.6 259.826 413.81 249.979 412.326 256.796C411.831 259.368 408.888 260.5 405.471 262.954C401.994 265.795 406.265 273.164 397.422 277.36C393.012 277.973 389.048 282.694 385.399 289.303C384.183 290.317 375.013 300.214 378.208 301.333C381.773 311.394 368.447 323.145 369.877 333.747C369.585 336.08 372.608 334.803 372.467 337.198C372.625 341.105 376.284 343.235 375.442 348.078C374.74 353.193 378.874 358.01 381.857 363.297C383.39 364.447 381.875 369.654 386.995 368.031C395.796 363.438 396.976 373.329 407.744 367.559C408.367 368.43 410.932 366.412 412.512 366.762C422.544 366.257 411.094 378.102 423.692 375.919C423.585 376.388 422.965 379.52 424.527 378.271C423.336 384.098 416.487 389.089 414.747 395.588C409.92 413.685 404.576 424.539 388.439 439.847C377.333 450.376 365.067 468.862 346.738 477.002C346.985 477.065 346.738 477.002 347.486 476.854C347.193 476.897 347.31 477.251 346.499 477.769C346.91 477.819 346.906 477.834 347.029 477.826C347.158 477.796 347.44 477.734 348.396 477.561C348.381 477.612 348.411 477.565 348.238 477.694C348.687 477.754 348.718 477.699 349.007 477.615C349.291 477.546 349.825 477.446 351.327 477.413C351.406 477.765 351.139 477.799 352.195 477.556C352.224 477.682 352.045 477.518 352.072 477.935C352.388 477.898 352.132 477.951 353.487 477.643L353.56 477.899C360.411 476.799 378.536 469.617 384.532 465.638C384.528 465.652 384.575 465.57 384.442 465.615C391.548 462.457 396.867 459.804 404.965 452.679L404.954 452.716C424.7 443.274 438.004 424.178 452.121 405.906L452.122 405.961C454.169 403.408 460.658 393.226 460.475 393.219C468.128 383.352 488.003 339.187 483.803 288.936C481.138 257.056 470.662 226.867 450.705 199.139L450.734 199.178ZM466.424 257.994C466.462 258.004 466.522 258.019 466.578 258.018C466.53 258.045 466.514 258.017 466.424 257.994Z" fill="url(#paint2_radial_7403_105146)"/>
<path d="M421.957 168.079C422.328 168.428 422.683 168.781 423.054 169.13C423.422 169.463 423.759 169.763 424.103 170.066C423.599 169.524 423.242 169.297 423.2 169.215C422.321 168.339 422.133 168.203 421.957 168.079Z" fill="url(#paint3_linear_7403_105146)"/>
<path d="M420.822 167.013C420.766 166.983 420.669 166.926 420.516 166.807C420.67 166.95 420.51 166.83 420.98 167.26C420.557 166.921 420.368 166.642 419.096 165.776C419.441 166.079 420.039 166.63 421.491 167.749L421.499 167.719C421.724 167.928 421.827 167.994 421.935 168.069C421.556 167.718 421.204 167.357 420.817 167.004L420.822 167.013Z" fill="url(#paint4_linear_7403_105146)"/>
<g opacity="0.32">
<path d="M200.751 283.907C200.751 283.316 201.23 282.837 201.821 282.837H225.717C226.308 282.837 226.787 283.316 226.787 283.907V288.686C226.787 289.276 226.308 289.755 225.717 289.755H201.821C201.23 289.755 200.751 289.276 200.751 288.686V283.907Z" fill="#15C1E6"/>
<path fill-rule="evenodd" clip-rule="evenodd" d="M213.056 285.855L223.293 285.855C223.589 285.855 223.828 286.095 223.828 286.39C223.828 286.686 223.589 286.925 223.293 286.925L213.056 286.925C212.761 286.925 212.521 286.686 212.521 286.39C212.521 286.095 212.761 285.855 213.056 285.855Z" fill="#091B36"/>
<path fill-rule="evenodd" clip-rule="evenodd" d="M208.241 286.446C208.241 286.742 208.001 286.981 207.706 286.981L207.349 286.981C207.053 286.981 206.814 286.742 206.814 286.446C206.814 286.151 207.053 285.911 207.349 285.911L207.706 285.911C208.001 285.911 208.241 286.151 208.241 286.446Z" fill="#091B36"/>
<path fill-rule="evenodd" clip-rule="evenodd" d="M210.738 286.446C210.738 286.742 210.498 286.981 210.203 286.981L209.846 286.981C209.551 286.981 209.311 286.742 209.311 286.446C209.311 286.151 209.551 285.911 209.846 285.911L210.203 285.911C210.498 285.911 210.738 286.151 210.738 286.446Z" fill="#091B36"/>
<path fill-rule="evenodd" clip-rule="evenodd" d="M205.745 286.446C205.745 286.742 205.505 286.981 205.21 286.981L204.853 286.981C204.557 286.981 204.318 286.742 204.318 286.446C204.318 286.151 204.557 285.911 204.853 285.911L205.21 285.911C205.505 285.911 205.745 286.151 205.745 286.446Z" fill="#091B36"/>
<path d="M200.751 292.11C200.751 291.519 201.23 291.04 201.821 291.04H225.717C226.308 291.04 226.787 291.519 226.787 292.11V296.888C226.787 297.479 226.308 297.958 225.717 297.958H201.821C201.23 297.958 200.751 297.479 200.751 296.888V292.11Z" fill="#15C1E6"/>
<path fill-rule="evenodd" clip-rule="evenodd" d="M213.056 294.059L223.293 294.059C223.589 294.059 223.828 294.298 223.828 294.593C223.828 294.889 223.589 295.128 223.293 295.128L213.056 295.128C212.761 295.128 212.521 294.889 212.521 294.593C212.521 294.298 212.761 294.059 213.056 294.059Z" fill="#091B36"/>
<path fill-rule="evenodd" clip-rule="evenodd" d="M208.24 294.649C208.24 294.945 208.001 295.184 207.705 295.184L207.349 295.184C207.053 295.184 206.814 294.945 206.814 294.649C206.814 294.354 207.053 294.114 207.349 294.114L207.705 294.114C208.001 294.114 208.24 294.354 208.24 294.649Z" fill="#091B36"/>
<path fill-rule="evenodd" clip-rule="evenodd" d="M210.738 294.649C210.738 294.945 210.498 295.184 210.203 295.184L209.846 295.184C209.551 295.184 209.311 294.945 209.311 294.649C209.311 294.354 209.551 294.114 209.846 294.114L210.203 294.114C210.498 294.114 210.738 294.354 210.738 294.649Z" fill="#091B36"/>
<path fill-rule="evenodd" clip-rule="evenodd" d="M205.744 294.649C205.744 294.945 205.505 295.184 205.209 295.184L204.853 295.184C204.557 295.184 204.318 294.945 204.318 294.649C204.318 294.354 204.557 294.114 204.853 294.114L205.209 294.114C205.505 294.114 205.744 294.354 205.744 294.649Z" fill="#091B36"/>
<path d="M200.751 300.313C200.751 299.722 201.23 299.243 201.821 299.243H225.717C226.308 299.243 226.787 299.722 226.787 300.313V305.092C226.787 305.683 226.308 306.162 225.717 306.162H201.821C201.23 306.162 200.751 305.683 200.751 305.092V300.313Z" fill="#15C1E6"/>
<path fill-rule="evenodd" clip-rule="evenodd" d="M213.056 302.262L223.293 302.262C223.589 302.262 223.828 302.501 223.828 302.797C223.828 303.092 223.589 303.332 223.293 303.332L213.056 303.332C212.761 303.332 212.521 303.092 212.521 302.797C212.521 302.501 212.761 302.262 213.056 302.262Z" fill="#091B36"/>
<path fill-rule="evenodd" clip-rule="evenodd" d="M208.24 302.853C208.24 303.148 208.001 303.388 207.705 303.388L207.349 303.388C207.053 303.388 206.814 303.148 206.814 302.853C206.814 302.557 207.053 302.318 207.349 302.318L207.705 302.318C208.001 302.318 208.24 302.557 208.24 302.853Z" fill="#091B36"/>
<path fill-rule="evenodd" clip-rule="evenodd" d="M210.738 302.853C210.738 303.148 210.498 303.388 210.203 303.388L209.846 303.388C209.551 303.388 209.311 303.148 209.311 302.853C209.311 302.557 209.551 302.318 209.846 302.318L210.203 302.318C210.498 302.318 210.738 302.557 210.738 302.853Z" fill="#091B36"/>
<path fill-rule="evenodd" clip-rule="evenodd" d="M205.744 302.853C205.744 303.148 205.505 303.388 205.209 303.388L204.853 303.388C204.557 303.388 204.318 303.148 204.318 302.853C204.318 302.557 204.557 302.318 204.853 302.318L205.209 302.318C205.505 302.318 205.744 302.557 205.744 302.853Z" fill="#091B36"/>
</g>
<g opacity="0.5">
<g filter="url(#filter0_dd_7403_105146)">
<rect x="132.972" y="353.446" width="129.501" height="40.8425" rx="7.96927" fill="url(#paint5_linear_7403_105146)"/>
<rect x="132.334" y="352.807" width="130.778" height="42.1194" rx="8.60772" stroke="url(#paint6_linear_7403_105146)" stroke-width="1.27689"/>
</g>
<path fill-rule="evenodd" clip-rule="evenodd" d="M148.646 378.543C146.929 376.827 145.867 374.456 145.867 371.837C145.867 366.6 150.113 362.354 155.35 362.354C160.587 362.354 164.832 366.6 164.832 371.837C164.832 374.456 163.77 376.827 162.054 378.543L162.055 378.544L155.35 385.249L148.645 378.544L148.646 378.543Z" fill="#15C1E6"/>
<path d="M175.928 371.252H174.798V370.4H177.023V376.396H175.928V371.252ZM179.387 375.162C179.683 375.38 180.143 375.614 180.734 375.614C181.178 375.614 181.525 375.519 181.777 375.215C182.064 374.876 182.212 374.276 182.212 373.485C182.038 373.815 181.577 374.259 180.647 374.259C179.709 374.259 178.796 373.642 178.796 372.416C178.796 371.252 179.613 370.313 180.943 370.313C181.96 370.313 182.49 370.809 182.768 371.235C183.02 371.608 183.281 372.347 183.281 373.32C183.281 374.389 183.046 375.249 182.585 375.771C182.186 376.24 181.543 376.501 180.769 376.501C179.761 376.501 179.17 376.101 178.962 375.936L179.387 375.162ZM182.09 372.303C182.09 371.704 181.699 371.156 180.978 371.156C180.256 371.156 179.874 371.704 179.874 372.303C179.874 372.903 180.256 373.459 180.978 373.459C181.699 373.459 182.09 372.973 182.09 372.303ZM186.621 376.492C185.405 376.492 184.397 375.884 184.397 374.719C184.397 373.998 184.857 373.459 185.544 373.259V373.233C185.109 373.068 184.579 372.625 184.579 371.886C184.579 370.861 185.544 370.313 186.621 370.313C187.699 370.313 188.664 370.861 188.664 371.886C188.664 372.625 188.133 373.068 187.699 373.233V373.259C188.385 373.459 188.846 373.998 188.846 374.719C188.846 375.884 187.838 376.492 186.621 376.492ZM186.621 372.851C187.16 372.851 187.551 372.547 187.551 372.025C187.551 371.513 187.16 371.182 186.621 371.182C186.083 371.182 185.692 371.513 185.692 372.025C185.692 372.547 186.083 372.851 186.621 372.851ZM186.621 375.606C187.212 375.606 187.708 375.258 187.708 374.632C187.708 374.007 187.238 373.642 186.621 373.642C186.004 373.642 185.535 374.007 185.535 374.632C185.535 375.258 186.03 375.606 186.621 375.606ZM190.883 376.492C190.466 376.492 190.179 376.249 190.179 375.849C190.179 375.44 190.466 375.197 190.883 375.197C191.283 375.197 191.579 375.44 191.579 375.849C191.579 376.249 191.283 376.492 190.883 376.492ZM195.024 375.553C195.545 375.553 196.18 375.249 196.18 374.432C196.18 373.624 195.606 373.268 194.928 373.268C194.529 373.268 194.129 373.398 193.851 373.581L193.338 373.277L193.903 370.4H197.092L197.083 371.33H194.615L194.329 372.668C194.615 372.547 194.972 372.468 195.337 372.468C196.432 372.468 197.327 373.19 197.327 374.45C197.327 375.762 196.223 376.492 194.98 376.492C193.842 376.492 193.069 375.701 192.921 375.493L193.521 374.78C193.825 375.162 194.337 375.553 195.024 375.553ZM199.712 371.252H198.582V370.4H200.807V376.396H199.712V371.252ZM203.606 376.492C203.189 376.492 202.902 376.249 202.902 375.849C202.902 375.44 203.189 375.197 203.606 375.197C204.005 375.197 204.301 375.44 204.301 375.849C204.301 376.249 204.005 376.492 203.606 376.492ZM206.471 371.252H205.341V370.4H207.565V376.396H206.471V371.252ZM209.209 373.407C209.209 371.834 209.956 370.313 211.633 370.313C213.31 370.313 214.049 371.834 214.049 373.407C214.049 374.98 213.31 376.501 211.633 376.501C209.947 376.501 209.209 374.98 209.209 373.407ZM212.902 373.39C212.902 372.164 212.502 371.287 211.633 371.287C210.764 371.287 210.356 372.164 210.356 373.39C210.356 374.606 210.764 375.493 211.633 375.493C212.502 375.493 212.902 374.606 212.902 373.39ZM214.739 373.407C214.739 371.834 215.487 370.313 217.164 370.313C218.841 370.313 219.58 371.834 219.58 373.407C219.58 374.98 218.841 376.501 217.164 376.501C215.478 376.501 214.739 374.98 214.739 373.407ZM218.433 373.39C218.433 372.164 218.033 371.287 217.164 371.287C216.295 371.287 215.887 372.164 215.887 373.39C215.887 374.606 216.295 375.493 217.164 375.493C218.033 375.493 218.433 374.606 218.433 373.39ZM221.256 376.492C220.839 376.492 220.552 376.249 220.552 375.849C220.552 375.44 220.839 375.197 221.256 375.197C221.656 375.197 221.951 375.44 221.951 375.849C221.951 376.249 221.656 376.492 221.256 376.492ZM226.049 375.11H223.077V374.267L225.97 370.374H227.135V374.198H227.969V375.11H227.135V376.396H226.049V375.11ZM226.075 374.215V371.617L224.145 374.215H226.075ZM230.928 375.553C231.449 375.553 232.083 375.249 232.083 374.432C232.083 373.624 231.51 373.268 230.832 373.268C230.432 373.268 230.032 373.398 229.754 373.581L229.242 373.277L229.807 370.4H232.996L232.987 371.33H230.519L230.232 372.668C230.519 372.547 230.875 372.468 231.24 372.468C232.335 372.468 233.23 373.19 233.23 374.45C233.23 375.762 232.127 376.492 230.884 376.492C229.746 376.492 228.972 375.701 228.825 375.493L229.424 374.78C229.728 375.162 230.241 375.553 230.928 375.553Z" fill="white"/>
<path d="M175.438 407.037C175.438 406.027 176.257 405.209 177.266 405.209H218.089C219.099 405.209 219.917 406.027 219.917 407.037V415.2C219.917 416.209 219.099 417.028 218.089 417.028H177.266C176.257 417.028 175.438 416.209 175.438 415.2V407.037Z" fill="#15C1E6"/>
<path fill-rule="evenodd" clip-rule="evenodd" d="M196.459 410.365L213.948 410.365C214.453 410.365 214.862 410.774 214.862 411.279C214.862 411.784 214.453 412.193 213.948 412.193L196.459 412.193C195.955 412.193 195.545 411.784 195.545 411.279C195.545 410.774 195.955 410.365 196.459 410.365Z" fill="#091B36"/>
<path fill-rule="evenodd" clip-rule="evenodd" d="M188.233 411.374C188.233 411.879 187.823 412.288 187.319 412.288L186.709 412.288C186.205 412.288 185.795 411.879 185.795 411.374C185.795 410.87 186.205 410.46 186.709 410.46L187.319 410.46C187.823 410.46 188.233 410.87 188.233 411.374Z" fill="#091B36"/>
<path fill-rule="evenodd" clip-rule="evenodd" d="M192.499 411.374C192.499 411.879 192.09 412.288 191.585 412.288L190.976 412.288C190.471 412.288 190.062 411.879 190.062 411.374C190.062 410.87 190.471 410.46 190.976 410.46L191.585 410.46C192.09 410.46 192.499 410.87 192.499 411.374Z" fill="#091B36"/>
<path fill-rule="evenodd" clip-rule="evenodd" d="M183.969 411.374C183.969 411.879 183.559 412.288 183.055 412.288L182.445 412.288C181.94 412.288 181.531 411.879 181.531 411.374C181.531 410.87 181.94 410.46 182.445 410.46L183.055 410.46C183.559 410.46 183.969 410.87 183.969 411.374Z" fill="#091B36"/>
<path d="M175.438 421.05C175.438 420.04 176.256 419.222 177.266 419.222H218.089C219.099 419.222 219.917 420.04 219.917 421.05V429.213C219.917 430.222 219.099 431.041 218.089 431.041H177.266C176.256 431.041 175.438 430.222 175.438 429.213V421.05Z" fill="#15C1E6"/>
<path fill-rule="evenodd" clip-rule="evenodd" d="M196.459 424.379L213.948 424.379C214.453 424.379 214.862 424.788 214.862 425.293C214.862 425.798 214.453 426.207 213.948 426.207L196.459 426.207C195.955 426.207 195.545 425.798 195.545 425.293C195.545 424.788 195.955 424.379 196.459 424.379Z" fill="#091B36"/>
<path fill-rule="evenodd" clip-rule="evenodd" d="M188.232 425.388C188.232 425.893 187.823 426.302 187.318 426.302L186.709 426.302C186.204 426.302 185.795 425.893 185.795 425.388C185.795 424.884 186.204 424.474 186.709 424.474L187.318 424.474C187.823 424.474 188.232 424.884 188.232 425.388Z" fill="#091B36"/>
<path fill-rule="evenodd" clip-rule="evenodd" d="M192.499 425.388C192.499 425.893 192.09 426.302 191.585 426.302L190.976 426.302C190.471 426.302 190.062 425.893 190.062 425.388C190.062 424.884 190.471 424.474 190.976 424.474L191.585 424.474C192.09 424.474 192.499 424.884 192.499 425.388Z" fill="#091B36"/>
<path fill-rule="evenodd" clip-rule="evenodd" d="M183.968 425.388C183.968 425.893 183.559 426.302 183.054 426.302L182.445 426.302C181.94 426.302 181.531 425.893 181.531 425.388C181.531 424.884 181.94 424.474 182.445 424.474L183.054 424.474C183.559 424.474 183.968 424.884 183.968 425.388Z" fill="#091B36"/>
<path d="M175.438 435.064C175.438 434.055 176.256 433.236 177.266 433.236H218.089C219.099 433.236 219.917 434.055 219.917 435.064V443.227C219.917 444.237 219.099 445.055 218.089 445.055H177.266C176.256 445.055 175.438 444.237 175.438 443.227V435.064Z" fill="#15C1E6"/>
<path fill-rule="evenodd" clip-rule="evenodd" d="M196.459 438.393L213.948 438.393C214.453 438.393 214.862 438.802 214.862 439.307C214.862 439.812 214.453 440.221 213.948 440.221L196.459 440.221C195.955 440.221 195.545 439.812 195.545 439.307C195.545 438.802 195.955 438.393 196.459 438.393Z" fill="#091B36"/>
<path fill-rule="evenodd" clip-rule="evenodd" d="M188.232 439.403C188.232 439.907 187.823 440.317 187.318 440.317L186.709 440.317C186.204 440.317 185.795 439.907 185.795 439.403C185.795 438.898 186.204 438.489 186.709 438.489L187.318 438.489C187.823 438.489 188.232 438.898 188.232 439.403Z" fill="#091B36"/>
<path fill-rule="evenodd" clip-rule="evenodd" d="M192.499 439.403C192.499 439.907 192.09 440.317 191.585 440.317L190.976 440.317C190.471 440.317 190.062 439.907 190.062 439.403C190.062 438.898 190.471 438.489 190.976 438.489L191.585 438.489C192.09 438.489 192.499 438.898 192.499 439.403Z" fill="#091B36"/>
<path fill-rule="evenodd" clip-rule="evenodd" d="M183.968 439.403C183.968 439.907 183.559 440.317 183.054 440.317L182.445 440.317C181.94 440.317 181.531 439.907 181.531 439.403C181.531 438.898 181.94 438.489 182.445 438.489L183.054 438.489C183.559 438.489 183.968 438.898 183.968 439.403Z" fill="#091B36"/>
</g>
<g opacity="0.3">
<g filter="url(#filter1_dd_7403_105146)">
<rect x="411.681" y="309.519" width="75.2707" height="23.7392" rx="4.63204" fill="url(#paint7_linear_7403_105146)"/>
<rect x="411.186" y="309.024" width="76.2602" height="24.7288" rx="5.12683" stroke="url(#paint8_linear_7403_105146)" stroke-width="0.98957"/>
</g>
<path fill-rule="evenodd" clip-rule="evenodd" d="M420.791 324.106C419.794 323.109 419.176 321.73 419.176 320.208C419.176 317.164 421.644 314.697 424.688 314.697C427.732 314.697 430.199 317.164 430.199 320.208C430.199 321.73 429.582 323.108 428.585 324.106L428.585 324.107L424.688 328.004L420.791 324.107L420.791 324.106Z" fill="#15C1E6"/>
<path d="M434.581 322.504L436.142 321.061C436.501 320.728 436.827 320.355 436.827 319.911C436.827 319.461 436.54 319.173 436.031 319.173C435.463 319.173 435.143 319.533 434.927 319.774L434.535 319.258C434.679 319.049 435.143 318.475 436.096 318.475C437.056 318.475 437.676 319.004 437.676 319.8C437.676 320.571 437.069 321.139 436.788 321.407L435.783 322.347H437.866V323.046H434.692L434.581 322.504ZM438.502 320.799C438.502 319.617 439.064 318.475 440.324 318.475C441.584 318.475 442.139 319.617 442.139 320.799C442.139 321.981 441.584 323.124 440.324 323.124C439.057 323.124 438.502 321.981 438.502 320.799ZM441.277 320.786C441.277 319.866 440.977 319.206 440.324 319.206C439.671 319.206 439.364 319.866 439.364 320.786C439.364 321.7 439.671 322.367 440.324 322.367C440.977 322.367 441.277 321.7 441.277 320.786ZM445.231 320.708C445.597 320.793 446.08 321.1 446.08 321.746C446.08 322.608 445.329 323.117 444.408 323.117C443.553 323.117 442.971 322.523 442.86 322.367L443.311 321.831C443.54 322.118 443.925 322.412 444.441 322.412C444.957 322.412 445.237 322.19 445.237 321.714C445.237 321.243 444.806 321.028 444.343 321.028H444.042V320.408H444.408C444.826 320.408 445.113 320.186 445.113 319.774C445.113 319.415 444.833 319.173 444.375 319.173C443.971 319.173 443.651 319.343 443.435 319.611L443.011 319.134C443.22 318.88 443.735 318.475 444.447 318.475C445.283 318.475 445.936 318.912 445.936 319.663C445.936 320.205 445.525 320.584 445.231 320.688V320.708ZM447.683 323.117C447.369 323.117 447.154 322.935 447.154 322.634C447.154 322.327 447.369 322.145 447.683 322.145C447.983 322.145 448.205 322.327 448.205 322.634C448.205 322.935 447.983 323.117 447.683 323.117ZM448.929 320.799C448.929 319.617 449.491 318.475 450.751 318.475C452.012 318.475 452.567 319.617 452.567 320.799C452.567 321.981 452.012 323.124 450.751 323.124C449.484 323.124 448.929 321.981 448.929 320.799ZM451.705 320.786C451.705 319.866 451.404 319.206 450.751 319.206C450.098 319.206 449.791 319.866 449.791 320.786C449.791 321.7 450.098 322.367 450.751 322.367C451.404 322.367 451.705 321.7 451.705 320.786ZM453.826 323.117C453.513 323.117 453.297 322.935 453.297 322.634C453.297 322.327 453.513 322.145 453.826 322.145C454.127 322.145 454.349 322.327 454.349 322.634C454.349 322.935 454.127 323.117 453.826 323.117ZM455.979 319.18H455.13V318.54H456.802V323.046H455.979V319.18ZM459.14 319.18H458.291V318.54H459.963V323.046H459.14V319.18ZM463.771 320.708C464.136 320.793 464.62 321.1 464.62 321.746C464.62 322.608 463.869 323.117 462.948 323.117C462.092 323.117 461.511 322.523 461.4 322.367L461.851 321.831C462.079 322.118 462.465 322.412 462.981 322.412C463.496 322.412 463.777 322.19 463.777 321.714C463.777 321.243 463.346 321.028 462.883 321.028H462.582V320.408H462.948C463.366 320.408 463.653 320.186 463.653 319.774C463.653 319.415 463.372 319.173 462.915 319.173C462.51 319.173 462.19 319.343 461.975 319.611L461.55 319.134C461.759 318.88 462.275 318.475 462.987 318.475C463.823 318.475 464.476 318.912 464.476 319.663C464.476 320.205 464.065 320.584 463.771 320.688V320.708ZM466.222 323.117C465.909 323.117 465.693 322.935 465.693 322.634C465.693 322.327 465.909 322.145 466.222 322.145C466.523 322.145 466.745 322.327 466.745 322.634C466.745 322.935 466.523 323.117 466.222 323.117ZM470.121 319.245H467.666V318.54H470.807L471.036 319.036L468.946 323.046H468.097L470.121 319.245ZM473.158 322.412C473.55 322.412 474.027 322.184 474.027 321.57C474.027 320.963 473.596 320.695 473.086 320.695C472.786 320.695 472.486 320.793 472.277 320.93L471.891 320.701L472.316 318.54H474.712L474.706 319.239H472.851L472.636 320.244C472.851 320.153 473.119 320.094 473.393 320.094C474.216 320.094 474.889 320.636 474.889 321.583C474.889 322.569 474.059 323.117 473.125 323.117C472.27 323.117 471.689 322.523 471.578 322.367L472.028 321.831C472.257 322.118 472.642 322.412 473.158 322.412Z" fill="white"/>
<path d="M436.364 341.657C436.364 341.071 436.84 340.595 437.426 340.595H461.154C461.741 340.595 462.217 341.071 462.217 341.657V346.402C462.217 346.989 461.741 347.464 461.154 347.464H437.426C436.84 347.464 436.364 346.989 436.364 346.402V341.657Z" fill="#15C1E6"/>
<path fill-rule="evenodd" clip-rule="evenodd" d="M448.582 343.592L458.747 343.592C459.041 343.592 459.279 343.83 459.279 344.123C459.279 344.416 459.041 344.654 458.747 344.654L448.582 344.654C448.289 344.654 448.051 344.416 448.051 344.123C448.051 343.83 448.289 343.592 448.582 343.592Z" fill="#091B36"/>
<path fill-rule="evenodd" clip-rule="evenodd" d="M443.801 344.178C443.801 344.472 443.563 344.71 443.269 344.71L442.915 344.71C442.622 344.71 442.384 344.472 442.384 344.178C442.384 343.885 442.622 343.647 442.915 343.647L443.269 343.647C443.563 343.647 443.801 343.885 443.801 344.178Z" fill="#091B36"/>
<path fill-rule="evenodd" clip-rule="evenodd" d="M446.28 344.178C446.28 344.472 446.042 344.71 445.749 344.71L445.395 344.71C445.102 344.71 444.864 344.472 444.864 344.178C444.864 343.885 445.102 343.647 445.395 343.647L445.749 343.647C446.042 343.647 446.28 343.885 446.28 344.178Z" fill="#091B36"/>
<path fill-rule="evenodd" clip-rule="evenodd" d="M441.322 344.178C441.322 344.472 441.084 344.71 440.791 344.71L440.437 344.71C440.143 344.71 439.906 344.472 439.906 344.178C439.906 343.885 440.143 343.647 440.437 343.647L440.791 343.647C441.084 343.647 441.322 343.885 441.322 344.178Z" fill="#091B36"/>
<path d="M436.364 349.802C436.364 349.216 436.84 348.74 437.426 348.74H461.154C461.741 348.74 462.217 349.216 462.217 349.802V354.547C462.217 355.134 461.741 355.609 461.154 355.609H437.426C436.84 355.609 436.364 355.134 436.364 354.547V349.802Z" fill="#15C1E6"/>
<path fill-rule="evenodd" clip-rule="evenodd" d="M448.582 351.737L458.747 351.737C459.041 351.737 459.279 351.975 459.279 352.268C459.279 352.562 459.041 352.8 458.747 352.8L448.582 352.8C448.289 352.8 448.051 352.562 448.051 352.268C448.051 351.975 448.289 351.737 448.582 351.737Z" fill="#091B36"/>
<path fill-rule="evenodd" clip-rule="evenodd" d="M443.8 352.324C443.8 352.617 443.563 352.855 443.269 352.855L442.915 352.855C442.622 352.855 442.384 352.617 442.384 352.324C442.384 352.03 442.622 351.793 442.915 351.793L443.269 351.793C443.563 351.793 443.8 352.03 443.8 352.324Z" fill="#091B36"/>
<path fill-rule="evenodd" clip-rule="evenodd" d="M446.28 352.324C446.28 352.617 446.042 352.855 445.749 352.855L445.395 352.855C445.101 352.855 444.864 352.617 444.864 352.324C444.864 352.03 445.101 351.793 445.395 351.793L445.749 351.793C446.042 351.793 446.28 352.03 446.28 352.324Z" fill="#091B36"/>
<path fill-rule="evenodd" clip-rule="evenodd" d="M441.322 352.324C441.322 352.617 441.084 352.855 440.791 352.855L440.437 352.855C440.143 352.855 439.905 352.617 439.905 352.324C439.905 352.03 440.143 351.793 440.437 351.793L440.791 351.793C441.084 351.793 441.322 352.03 441.322 352.324Z" fill="#091B36"/>
<path d="M436.364 357.948C436.364 357.361 436.84 356.886 437.426 356.886H461.154C461.741 356.886 462.217 357.361 462.217 357.948V362.693C462.217 363.279 461.741 363.755 461.154 363.755H437.426C436.84 363.755 436.364 363.279 436.364 362.693V357.948Z" fill="#15C1E6"/>
<path fill-rule="evenodd" clip-rule="evenodd" d="M448.582 359.883L458.747 359.883C459.041 359.883 459.279 360.121 459.279 360.414C459.279 360.707 459.041 360.945 458.747 360.945L448.582 360.945C448.289 360.945 448.051 360.707 448.051 360.414C448.051 360.121 448.289 359.883 448.582 359.883Z" fill="#091B36"/>
<path fill-rule="evenodd" clip-rule="evenodd" d="M443.8 360.47C443.8 360.763 443.563 361.001 443.269 361.001L442.915 361.001C442.622 361.001 442.384 360.763 442.384 360.47C442.384 360.176 442.622 359.938 442.915 359.938L443.269 359.938C443.563 359.938 443.8 360.176 443.8 360.47Z" fill="#091B36"/>
<path fill-rule="evenodd" clip-rule="evenodd" d="M446.28 360.47C446.28 360.763 446.042 361.001 445.749 361.001L445.395 361.001C445.101 361.001 444.864 360.763 444.864 360.47C444.864 360.176 445.101 359.938 445.395 359.938L445.749 359.938C446.042 359.938 446.28 360.176 446.28 360.47Z" fill="#091B36"/>
<path fill-rule="evenodd" clip-rule="evenodd" d="M441.322 360.47C441.322 360.763 441.084 361.001 440.791 361.001L440.437 361.001C440.143 361.001 439.905 360.763 439.905 360.47C439.905 360.176 440.143 359.938 440.437 359.938L440.791 359.938C441.084 359.938 441.322 360.176 441.322 360.47Z" fill="#091B36"/>
</g>
<g opacity="0.3">
<g filter="url(#filter2_dd_7403_105146)">
<rect x="384.262" y="139.376" width="76.5046" height="24.1284" rx="4.70798" fill="url(#paint9_linear_7403_105146)"/>
<rect x="383.767" y="138.881" width="77.4942" height="25.1179" rx="5.20276" stroke="url(#paint10_linear_7403_105146)" stroke-width="0.98957"/>
</g>
<path fill-rule="evenodd" clip-rule="evenodd" d="M393.519 154.203C392.505 153.189 391.878 151.788 391.878 150.241C391.878 147.147 394.386 144.639 397.48 144.639C400.574 144.639 403.082 147.147 403.082 150.241C403.082 151.788 402.454 153.189 401.44 154.203L401.441 154.203L397.48 158.164L393.519 154.203L393.519 154.203Z" fill="#15C1E6"/>
<path d="M412.403 149.57H411.424V148.832H413.351V154.026H412.403V149.57ZM415.4 152.957C415.656 153.146 416.055 153.349 416.566 153.349C416.95 153.349 417.251 153.266 417.47 153.003C417.718 152.709 417.846 152.19 417.846 151.505C417.696 151.791 417.297 152.175 416.491 152.175C415.678 152.175 414.888 151.64 414.888 150.579C414.888 149.57 415.595 148.757 416.747 148.757C417.628 148.757 418.087 149.186 418.328 149.555C418.546 149.879 418.772 150.519 418.772 151.362C418.772 152.288 418.569 153.033 418.17 153.484C417.824 153.891 417.267 154.117 416.597 154.117C415.723 154.117 415.211 153.77 415.031 153.627L415.4 152.957ZM417.741 150.481C417.741 149.961 417.402 149.487 416.777 149.487C416.152 149.487 415.821 149.961 415.821 150.481C415.821 151 416.152 151.482 416.777 151.482C417.402 151.482 417.741 151.06 417.741 150.481ZM419.763 153.402L421.562 151.738C421.976 151.354 422.353 150.925 422.353 150.413C422.353 149.894 422.022 149.562 421.434 149.562C420.78 149.562 420.411 149.977 420.162 150.255L419.711 149.66C419.876 149.419 420.411 148.757 421.51 148.757C422.616 148.757 423.331 149.367 423.331 150.285C423.331 151.173 422.631 151.828 422.308 152.137L421.148 153.221H423.55V154.026H419.891L419.763 153.402ZM425.285 154.109C424.923 154.109 424.675 153.898 424.675 153.552C424.675 153.198 424.923 152.988 425.285 152.988C425.631 152.988 425.887 153.198 425.887 153.552C425.887 153.898 425.631 154.109 425.285 154.109ZM426.722 151.437C426.722 150.074 427.369 148.757 428.822 148.757C430.275 148.757 430.915 150.074 430.915 151.437C430.915 152.799 430.275 154.117 428.822 154.117C427.362 154.117 426.722 152.799 426.722 151.437ZM429.921 151.422C429.921 150.36 429.575 149.6 428.822 149.6C428.069 149.6 427.716 150.36 427.716 151.422C427.716 152.476 428.069 153.244 428.822 153.244C429.575 153.244 429.921 152.476 429.921 151.422ZM432.367 154.109C432.006 154.109 431.757 153.898 431.757 153.552C431.757 153.198 432.006 152.988 432.367 152.988C432.713 152.988 432.969 153.198 432.969 153.552C432.969 153.898 432.713 154.109 432.367 154.109ZM434.222 153.402L436.022 151.738C436.436 151.354 436.812 150.925 436.812 150.413C436.812 149.894 436.481 149.562 435.894 149.562C435.239 149.562 434.87 149.977 434.621 150.255L434.17 149.66C434.335 149.419 434.87 148.757 435.969 148.757C437.075 148.757 437.791 149.367 437.791 150.285C437.791 151.173 437.091 151.828 436.767 152.137L435.608 153.221H438.009V154.026H434.35L434.222 153.402ZM439.744 154.109C439.382 154.109 439.134 153.898 439.134 153.552C439.134 153.198 439.382 152.988 439.744 152.988C440.09 152.988 440.346 153.198 440.346 153.552C440.346 153.898 440.09 154.109 439.744 154.109ZM441.599 153.402L443.398 151.738C443.812 151.354 444.189 150.925 444.189 150.413C444.189 149.894 443.857 149.562 443.27 149.562C442.615 149.562 442.246 149.977 441.998 150.255L441.546 149.66C441.712 149.419 442.246 148.757 443.345 148.757C444.452 148.757 445.167 149.367 445.167 150.285C445.167 151.173 444.467 151.828 444.143 152.137L442.984 153.221H445.386V154.026H441.727L441.599 153.402ZM448.121 153.296C448.573 153.296 449.123 153.033 449.123 152.325C449.123 151.625 448.626 151.316 448.039 151.316C447.692 151.316 447.346 151.429 447.105 151.587L446.661 151.324L447.15 148.832H449.913L449.906 149.638H447.768L447.519 150.797C447.768 150.692 448.076 150.624 448.392 150.624C449.341 150.624 450.116 151.249 450.116 152.34C450.116 153.477 449.16 154.109 448.084 154.109C447.098 154.109 446.428 153.424 446.3 153.244L446.819 152.626C447.083 152.957 447.527 153.296 448.121 153.296Z" fill="white"/>
<path d="M409.349 172.013C409.349 171.417 409.832 170.933 410.429 170.933H434.546C435.142 170.933 435.626 171.417 435.626 172.013V176.836C435.626 177.432 435.142 177.915 434.546 177.915H410.429C409.832 177.915 409.349 177.432 409.349 176.836V172.013Z" fill="#15C1E6"/>
<path fill-rule="evenodd" clip-rule="evenodd" d="M421.768 173.979L432.099 173.979C432.398 173.979 432.639 174.221 432.639 174.519C432.639 174.817 432.398 175.059 432.099 175.059L421.768 175.059C421.469 175.059 421.228 174.817 421.228 174.519C421.228 174.221 421.469 173.979 421.768 173.979Z" fill="#091B36"/>
<path fill-rule="evenodd" clip-rule="evenodd" d="M416.907 174.576C416.907 174.874 416.666 175.116 416.368 175.116L416.008 175.116C415.709 175.116 415.468 174.874 415.468 174.576C415.468 174.277 415.709 174.036 416.008 174.036L416.368 174.036C416.666 174.036 416.907 174.277 416.907 174.576Z" fill="#091B36"/>
<path fill-rule="evenodd" clip-rule="evenodd" d="M419.428 174.576C419.428 174.874 419.186 175.116 418.888 175.116L418.528 175.116C418.23 175.116 417.988 174.874 417.988 174.576C417.988 174.277 418.23 174.036 418.528 174.036L418.888 174.036C419.186 174.036 419.428 174.277 419.428 174.576Z" fill="#091B36"/>
<path fill-rule="evenodd" clip-rule="evenodd" d="M414.388 174.576C414.388 174.874 414.147 175.116 413.848 175.116L413.488 175.116C413.19 175.116 412.948 174.874 412.948 174.576C412.948 174.277 413.19 174.036 413.488 174.036L413.848 174.036C414.147 174.036 414.388 174.277 414.388 174.576Z" fill="#091B36"/>
<path d="M409.349 180.292C409.349 179.695 409.832 179.212 410.429 179.212H434.546C435.142 179.212 435.626 179.695 435.626 180.292V185.114C435.626 185.71 435.142 186.194 434.546 186.194H410.429C409.832 186.194 409.349 185.71 409.349 185.114V180.292Z" fill="#15C1E6"/>
<path fill-rule="evenodd" clip-rule="evenodd" d="M421.767 182.258L432.099 182.258C432.397 182.258 432.639 182.5 432.639 182.798C432.639 183.096 432.397 183.338 432.099 183.338L421.767 183.338C421.469 183.338 421.227 183.096 421.227 182.798C421.227 182.5 421.469 182.258 421.767 182.258Z" fill="#091B36"/>
<path fill-rule="evenodd" clip-rule="evenodd" d="M416.907 182.855C416.907 183.153 416.666 183.395 416.367 183.395L416.007 183.395C415.709 183.395 415.468 183.153 415.468 182.855C415.468 182.556 415.709 182.315 416.007 182.315L416.367 182.315C416.666 182.315 416.907 182.556 416.907 182.855Z" fill="#091B36"/>
<path fill-rule="evenodd" clip-rule="evenodd" d="M419.428 182.855C419.428 183.153 419.186 183.395 418.888 183.395L418.528 183.395C418.23 183.395 417.988 183.153 417.988 182.855C417.988 182.556 418.23 182.315 418.528 182.315L418.888 182.315C419.186 182.315 419.428 182.556 419.428 182.855Z" fill="#091B36"/>
<path fill-rule="evenodd" clip-rule="evenodd" d="M414.388 182.855C414.388 183.153 414.146 183.395 413.848 183.395L413.488 183.395C413.19 183.395 412.948 183.153 412.948 182.855C412.948 182.556 413.19 182.315 413.488 182.315L413.848 182.315C414.146 182.315 414.388 182.556 414.388 182.855Z" fill="#091B36"/>
<path d="M409.349 188.571C409.349 187.975 409.832 187.491 410.429 187.491H434.546C435.142 187.491 435.626 187.975 435.626 188.571V193.393C435.626 193.99 435.142 194.473 434.546 194.473H410.429C409.832 194.473 409.349 193.99 409.349 193.393V188.571Z" fill="#15C1E6"/>
<path fill-rule="evenodd" clip-rule="evenodd" d="M421.767 190.538L432.099 190.537C432.397 190.537 432.639 190.779 432.639 191.077C432.639 191.376 432.397 191.617 432.099 191.617L421.767 191.617C421.469 191.617 421.227 191.376 421.227 191.077C421.227 190.779 421.469 190.538 421.767 190.538Z" fill="#091B36"/>
<path fill-rule="evenodd" clip-rule="evenodd" d="M416.907 191.134C416.907 191.432 416.666 191.674 416.367 191.674L416.007 191.674C415.709 191.674 415.468 191.432 415.468 191.134C415.468 190.836 415.709 190.594 416.007 190.594L416.367 190.594C416.666 190.594 416.907 190.836 416.907 191.134Z" fill="#091B36"/>
<path fill-rule="evenodd" clip-rule="evenodd" d="M419.428 191.134C419.428 191.432 419.186 191.674 418.888 191.674L418.528 191.674C418.23 191.674 417.988 191.432 417.988 191.134C417.988 190.836 418.23 190.594 418.528 190.594L418.888 190.594C419.186 190.594 419.428 190.836 419.428 191.134Z" fill="#091B36"/>
<path fill-rule="evenodd" clip-rule="evenodd" d="M414.388 191.134C414.388 191.432 414.146 191.674 413.848 191.674L413.488 191.674C413.19 191.674 412.948 191.432 412.948 191.134C412.948 190.836 413.19 190.594 413.488 190.594L413.848 190.594C414.146 190.594 414.388 190.836 414.388 191.134Z" fill="#091B36"/>
</g>
<g opacity="0.7">
<g filter="url(#filter3_dd_7403_105146)">
<rect x="98.1118" y="159.062" width="109.142" height="34.4216" rx="6.71641" fill="url(#paint11_linear_7403_105146)"/>
<rect x="97.3763" y="158.326" width="110.613" height="35.8927" rx="7.45193" stroke="url(#paint12_linear_7403_105146)" stroke-width="1.47104"/>
</g>
<path fill-rule="evenodd" clip-rule="evenodd" d="M111.321 180.213C109.874 178.767 108.979 176.768 108.979 174.561C108.979 170.147 112.557 166.569 116.97 166.569C121.384 166.569 124.962 170.147 124.962 174.561C124.962 176.768 124.067 178.767 122.621 180.213L122.622 180.214L116.971 185.865L111.32 180.214L111.321 180.213Z" fill="#15C1E6"/>
<path d="M136.485 178.149L138.865 175.948C139.413 175.44 139.911 174.872 139.911 174.195C139.911 173.507 139.473 173.069 138.696 173.069C137.829 173.069 137.341 173.617 137.013 173.986L136.415 173.199C136.634 172.88 137.341 172.003 138.795 172.003C140.26 172.003 141.206 172.81 141.206 174.025C141.206 175.201 140.279 176.067 139.851 176.476L138.317 177.91H141.495V178.975H136.654L136.485 178.149ZM142.465 175.549C142.465 173.746 143.322 172.003 145.244 172.003C147.166 172.003 148.013 173.746 148.013 175.549C148.013 177.352 147.166 179.095 145.244 179.095C143.312 179.095 142.465 177.352 142.465 175.549ZM146.698 175.529C146.698 174.125 146.24 173.119 145.244 173.119C144.248 173.119 143.78 174.125 143.78 175.529C143.78 176.924 144.248 177.94 145.244 177.94C146.24 177.94 146.698 176.924 146.698 175.529ZM152.728 175.41C153.286 175.539 154.023 176.007 154.023 176.993C154.023 178.308 152.878 179.085 151.473 179.085C150.169 179.085 149.282 178.179 149.113 177.94L149.8 177.123C150.149 177.561 150.736 178.009 151.523 178.009C152.31 178.009 152.738 177.671 152.738 176.944C152.738 176.227 152.081 175.898 151.374 175.898H150.916V174.952H151.473C152.111 174.952 152.549 174.613 152.549 173.986C152.549 173.438 152.121 173.069 151.424 173.069C150.806 173.069 150.318 173.328 149.989 173.737L149.342 173.009C149.661 172.621 150.448 172.003 151.533 172.003C152.808 172.003 153.804 172.671 153.804 173.816C153.804 174.643 153.177 175.221 152.728 175.38V175.41ZM156.468 179.085C155.99 179.085 155.661 178.806 155.661 178.348C155.661 177.88 155.99 177.601 156.468 177.601C156.926 177.601 157.265 177.88 157.265 178.348C157.265 178.806 156.926 179.085 156.468 179.085ZM158.37 175.549C158.37 173.746 159.226 172.003 161.148 172.003C163.071 172.003 163.917 173.746 163.917 175.549C163.917 177.352 163.071 179.095 161.148 179.095C159.216 179.095 158.37 177.352 158.37 175.549ZM162.603 175.529C162.603 174.125 162.144 173.119 161.148 173.119C160.152 173.119 159.684 174.125 159.684 175.529C159.684 176.924 160.152 177.94 161.148 177.94C162.144 177.94 162.603 176.924 162.603 175.529ZM165.839 179.085C165.361 179.085 165.032 178.806 165.032 178.348C165.032 177.88 165.361 177.601 165.839 177.601C166.297 177.601 166.636 177.88 166.636 178.348C166.636 178.806 166.297 179.085 165.839 179.085ZM169.122 173.079H167.828V172.103H170.377V178.975H169.122V173.079ZM173.944 173.079H172.649V172.103H175.199V178.975H173.944V173.079ZM181.007 175.41C181.564 175.539 182.301 176.007 182.301 176.993C182.301 178.308 181.156 179.085 179.752 179.085C178.447 179.085 177.56 178.179 177.391 177.94L178.078 177.123C178.427 177.561 179.015 178.009 179.801 178.009C180.588 178.009 181.017 177.671 181.017 176.944C181.017 176.227 180.359 175.898 179.652 175.898H179.194V174.952H179.752C180.389 174.952 180.827 174.613 180.827 173.986C180.827 173.438 180.399 173.069 179.702 173.069C179.084 173.069 178.596 173.328 178.268 173.737L177.62 173.009C177.939 172.621 178.726 172.003 179.811 172.003C181.086 172.003 182.082 172.671 182.082 173.816C182.082 174.643 181.455 175.221 181.007 175.38V175.41ZM184.746 179.085C184.268 179.085 183.939 178.806 183.939 178.348C183.939 177.88 184.268 177.601 184.746 177.601C185.204 177.601 185.543 177.88 185.543 178.348C185.543 178.806 185.204 179.085 184.746 179.085ZM188.03 173.079H186.735V172.103H189.285V178.975H188.03V173.079ZM191.168 175.549C191.168 173.746 192.025 172.003 193.947 172.003C195.869 172.003 196.716 173.746 196.716 175.549C196.716 177.352 195.869 179.095 193.947 179.095C192.015 179.095 191.168 177.352 191.168 175.549ZM195.401 175.529C195.401 174.125 194.943 173.119 193.947 173.119C192.951 173.119 192.483 174.125 192.483 175.529C192.483 176.924 192.951 177.94 193.947 177.94C194.943 177.94 195.401 176.924 195.401 175.529Z" fill="white"/>
<path d="M133.901 204.269C133.901 203.418 134.591 202.728 135.442 202.728H169.847C170.698 202.728 171.388 203.418 171.388 204.269V211.148C171.388 211.999 170.698 212.689 169.847 212.689H135.442C134.591 212.689 133.901 211.999 133.901 211.148V204.269Z" fill="#15C1E6"/>
<path fill-rule="evenodd" clip-rule="evenodd" d="M151.618 207.074L166.357 207.074C166.783 207.074 167.128 207.418 167.128 207.844C167.128 208.269 166.783 208.614 166.357 208.614L151.618 208.614C151.193 208.614 150.848 208.269 150.848 207.844C150.848 207.418 151.193 207.074 151.618 207.074Z" fill="#091B36"/>
<path fill-rule="evenodd" clip-rule="evenodd" d="M144.684 207.924C144.684 208.35 144.34 208.695 143.914 208.695L143.401 208.695C142.975 208.695 142.63 208.35 142.63 207.924C142.63 207.499 142.975 207.154 143.401 207.154L143.914 207.154C144.34 207.154 144.684 207.499 144.684 207.924Z" fill="#091B36"/>
<path fill-rule="evenodd" clip-rule="evenodd" d="M148.28 207.924C148.28 208.35 147.935 208.695 147.51 208.695L146.996 208.695C146.571 208.695 146.226 208.35 146.226 207.924C146.226 207.499 146.571 207.154 146.996 207.154L147.51 207.154C147.935 207.154 148.28 207.499 148.28 207.924Z" fill="#091B36"/>
<path fill-rule="evenodd" clip-rule="evenodd" d="M141.091 207.924C141.091 208.35 140.746 208.695 140.32 208.695L139.807 208.695C139.382 208.695 139.037 208.35 139.037 207.924C139.037 207.499 139.382 207.154 139.807 207.154L140.32 207.154C140.746 207.154 141.091 207.499 141.091 207.924Z" fill="#091B36"/>
<path d="M133.901 216.079C133.901 215.228 134.591 214.538 135.442 214.538H169.847C170.698 214.538 171.388 215.228 171.388 216.079V222.959C171.388 223.809 170.698 224.499 169.847 224.499H135.442C134.591 224.499 133.901 223.809 133.901 222.959V216.079Z" fill="#15C1E6"/>
<path fill-rule="evenodd" clip-rule="evenodd" d="M151.618 218.884L166.357 218.884C166.783 218.884 167.127 219.229 167.127 219.655C167.127 220.08 166.783 220.425 166.357 220.425L151.618 220.425C151.192 220.425 150.848 220.08 150.848 219.655C150.848 219.229 151.192 218.884 151.618 218.884Z" fill="#091B36"/>
<path fill-rule="evenodd" clip-rule="evenodd" d="M144.684 219.735C144.684 220.161 144.339 220.505 143.914 220.505L143.401 220.505C142.975 220.505 142.63 220.161 142.63 219.735C142.63 219.31 142.975 218.965 143.401 218.965L143.914 218.965C144.339 218.965 144.684 219.31 144.684 219.735Z" fill="#091B36"/>
<path fill-rule="evenodd" clip-rule="evenodd" d="M148.28 219.735C148.28 220.161 147.935 220.505 147.51 220.505L146.996 220.505C146.571 220.505 146.226 220.161 146.226 219.735C146.226 219.31 146.571 218.965 146.996 218.965L147.51 218.965C147.935 218.965 148.28 219.31 148.28 219.735Z" fill="#091B36"/>
<path fill-rule="evenodd" clip-rule="evenodd" d="M141.091 219.735C141.091 220.161 140.746 220.505 140.32 220.505L139.807 220.505C139.381 220.505 139.037 220.161 139.037 219.735C139.037 219.31 139.381 218.965 139.807 218.965L140.32 218.965C140.746 218.965 141.091 219.31 141.091 219.735Z" fill="#091B36"/>
<path d="M133.901 227.89C133.901 227.039 134.591 226.349 135.442 226.349H169.847C170.698 226.349 171.388 227.039 171.388 227.89V234.77C171.388 235.621 170.698 236.31 169.847 236.31H135.442C134.591 236.31 133.901 235.621 133.901 234.77V227.89Z" fill="#15C1E6"/>
<path fill-rule="evenodd" clip-rule="evenodd" d="M151.618 230.695L166.357 230.695C166.783 230.695 167.127 231.04 167.127 231.466C167.127 231.891 166.783 232.236 166.357 232.236L151.618 232.236C151.192 232.236 150.848 231.891 150.848 231.466C150.848 231.04 151.192 230.695 151.618 230.695Z" fill="#091B36"/>
<path fill-rule="evenodd" clip-rule="evenodd" d="M144.684 231.546C144.684 231.972 144.339 232.316 143.914 232.316L143.401 232.316C142.975 232.316 142.63 231.972 142.63 231.546C142.63 231.121 142.975 230.776 143.401 230.776L143.914 230.776C144.339 230.776 144.684 231.121 144.684 231.546Z" fill="#091B36"/>
<path fill-rule="evenodd" clip-rule="evenodd" d="M148.28 231.546C148.28 231.972 147.935 232.316 147.51 232.316L146.996 232.316C146.571 232.316 146.226 231.972 146.226 231.546C146.226 231.121 146.571 230.776 146.996 230.776L147.51 230.776C147.935 230.776 148.28 231.121 148.28 231.546Z" fill="#091B36"/>
<path fill-rule="evenodd" clip-rule="evenodd" d="M141.091 231.546C141.091 231.972 140.746 232.316 140.32 232.316L139.807 232.316C139.381 232.316 139.037 231.972 139.037 231.546C139.037 231.121 139.381 230.776 139.807 230.776L140.32 230.776C140.746 230.776 141.091 231.121 141.091 231.546Z" fill="#091B36"/>
</g>
<g filter="url(#filter4_dd_7403_105146)">
<rect x="187.623" y="191.412" width="248.65" height="78.4205" rx="15.3016" fill="url(#paint13_linear_7403_105146)"/>
<rect x="186.148" y="189.936" width="251.601" height="81.3713" rx="16.777" stroke="url(#paint14_linear_7403_105146)" stroke-width="2.95088"/>
</g>
<path fill-rule="evenodd" clip-rule="evenodd" d="M217.716 239.6C214.42 236.305 212.381 231.752 212.381 226.723C212.381 216.668 220.533 208.516 230.588 208.516C240.643 208.516 248.795 216.668 248.795 226.723C248.795 231.752 246.756 236.304 243.46 239.599L243.463 239.602L230.588 252.476L217.714 239.602L217.716 239.6Z" fill="#15C1E6"/>
<path d="M271.772 223.738H268.798V221.497H274.653V237.277H271.772V223.738ZM280.876 234.03C281.654 234.602 282.866 235.219 284.421 235.219C285.587 235.219 286.502 234.968 287.165 234.167C287.92 233.275 288.309 231.697 288.309 229.616C287.852 230.485 286.639 231.651 284.192 231.651C281.722 231.651 279.321 230.028 279.321 226.803C279.321 223.738 281.471 221.268 284.97 221.268C287.646 221.268 289.041 222.572 289.773 223.693C290.436 224.676 291.122 226.62 291.122 229.181C291.122 231.994 290.504 234.259 289.292 235.631C288.24 236.866 286.548 237.552 284.512 237.552C281.86 237.552 280.304 236.5 279.756 236.065L280.876 234.03ZM287.989 226.506C287.989 224.928 286.96 223.487 285.061 223.487C283.163 223.487 282.157 224.928 282.157 226.506C282.157 228.084 283.163 229.547 285.061 229.547C286.96 229.547 287.989 228.267 287.989 226.506ZM299.914 237.529C296.712 237.529 294.059 235.928 294.059 232.864C294.059 230.965 295.272 229.547 297.078 229.021V228.953C295.935 228.518 294.54 227.352 294.54 225.408C294.54 222.709 297.078 221.268 299.914 221.268C302.75 221.268 305.289 222.709 305.289 225.408C305.289 227.352 303.894 228.518 302.75 228.953V229.021C304.557 229.547 305.769 230.965 305.769 232.864C305.769 235.928 303.116 237.529 299.914 237.529ZM299.914 227.947C301.332 227.947 302.361 227.146 302.361 225.774C302.361 224.425 301.332 223.555 299.914 223.555C298.496 223.555 297.467 224.425 297.467 225.774C297.467 227.146 298.496 227.947 299.914 227.947ZM299.914 235.196C301.469 235.196 302.773 234.281 302.773 232.635C302.773 230.988 301.538 230.028 299.914 230.028C298.29 230.028 297.055 230.988 297.055 232.635C297.055 234.281 298.359 235.196 299.914 235.196ZM311.131 237.529C310.033 237.529 309.278 236.889 309.278 235.837C309.278 234.762 310.033 234.121 311.131 234.121C312.183 234.121 312.96 234.762 312.96 235.837C312.96 236.889 312.183 237.529 311.131 237.529ZM322.028 235.059C323.4 235.059 325.069 234.259 325.069 232.109C325.069 229.982 323.56 229.044 321.776 229.044C320.724 229.044 319.672 229.387 318.94 229.868L317.591 229.067L319.077 221.497H327.471L327.448 223.944H320.953L320.198 227.466C320.953 227.146 321.89 226.94 322.851 226.94C325.733 226.94 328.088 228.838 328.088 232.155C328.088 235.608 325.184 237.529 321.913 237.529C318.917 237.529 316.882 235.448 316.493 234.899L318.071 233.024C318.872 234.03 320.221 235.059 322.028 235.059ZM334.365 223.738H331.392V221.497H337.246V237.277H334.365V223.738ZM344.613 237.529C343.515 237.529 342.76 236.889 342.76 235.837C342.76 234.762 343.515 234.121 344.613 234.121C345.665 234.121 346.442 234.762 346.442 235.837C346.442 236.889 345.665 237.529 344.613 237.529ZM352.152 223.738H349.179V221.497H355.034V237.277H352.152V223.738ZM359.359 229.41C359.359 225.271 361.326 221.268 365.74 221.268C370.153 221.268 372.097 225.271 372.097 229.41C372.097 233.55 370.153 237.552 365.74 237.552C361.303 237.552 359.359 233.55 359.359 229.41ZM369.079 229.364C369.079 226.14 368.027 223.83 365.74 223.83C363.453 223.83 362.378 226.14 362.378 229.364C362.378 232.566 363.453 234.899 365.74 234.899C368.027 234.899 369.079 232.566 369.079 229.364ZM373.914 229.41C373.914 225.271 375.881 221.268 380.295 221.268C384.709 221.268 386.653 225.271 386.653 229.41C386.653 233.55 384.709 237.552 380.295 237.552C375.858 237.552 373.914 233.55 373.914 229.41ZM383.634 229.364C383.634 226.14 382.582 223.83 380.295 223.83C378.008 223.83 376.933 226.14 376.933 229.364C376.933 232.566 378.008 234.899 380.295 234.899C382.582 234.899 383.634 232.566 383.634 229.364ZM391.065 237.529C389.967 237.529 389.212 236.889 389.212 235.837C389.212 234.762 389.967 234.121 391.065 234.121C392.117 234.121 392.894 234.762 392.894 235.837C392.894 236.889 392.117 237.529 391.065 237.529ZM401.962 235.059C403.334 235.059 405.004 234.259 405.004 232.109C405.004 229.982 403.494 229.044 401.71 229.044C400.658 229.044 399.606 229.387 398.874 229.868L397.525 229.067L399.012 221.497H407.405L407.382 223.944H400.887L400.132 227.466C400.887 227.146 401.825 226.94 402.785 226.94C405.667 226.94 408.022 228.838 408.022 232.155C408.022 235.608 405.118 237.529 401.848 237.529C398.852 237.529 396.816 235.448 396.427 234.899L398.005 233.024C398.806 234.03 400.155 235.059 401.962 235.059Z" fill="white"/>
<path d="M239.19 293.952C239.19 290.656 241.862 287.984 245.158 287.984H378.445C381.741 287.984 384.413 290.656 384.413 293.952V320.605C384.413 323.901 381.741 326.573 378.445 326.573H245.158C241.862 326.573 239.19 323.901 239.19 320.605V293.952Z" fill="#15C1E6"/>
<path fill-rule="evenodd" clip-rule="evenodd" d="M307.824 304.819L364.925 304.819C366.573 304.819 367.909 306.155 367.909 307.803C367.909 309.451 366.573 310.787 364.925 310.787L307.824 310.787C306.176 310.787 304.84 309.451 304.84 307.803C304.84 306.155 306.176 304.819 307.824 304.819Z" fill="#091B36"/>
<path fill-rule="evenodd" clip-rule="evenodd" d="M280.963 308.115C280.963 309.763 279.627 311.099 277.979 311.099L275.99 311.099C274.342 311.099 273.006 309.763 273.006 308.115C273.006 306.467 274.342 305.131 275.99 305.131L277.979 305.131C279.627 305.131 280.963 306.467 280.963 308.115Z" fill="#091B36"/>
<path fill-rule="evenodd" clip-rule="evenodd" d="M294.893 308.115C294.893 309.763 293.557 311.099 291.909 311.099L289.919 311.099C288.271 311.099 286.935 309.763 286.935 308.115C286.935 306.467 288.271 305.131 289.919 305.131L291.909 305.131C293.557 305.131 294.893 306.467 294.893 308.115Z" fill="#091B36"/>
<path fill-rule="evenodd" clip-rule="evenodd" d="M267.041 308.115C267.041 309.763 265.705 311.099 264.057 311.099L262.067 311.099C260.419 311.099 259.083 309.763 259.083 308.115C259.083 306.467 260.419 305.131 262.067 305.131L264.057 305.131C265.705 305.131 267.041 306.467 267.041 308.115Z" fill="#091B36"/>
<path d="M239.189 339.705C239.189 336.409 241.861 333.737 245.157 333.737H378.444C381.741 333.737 384.413 336.409 384.413 339.705V366.358C384.413 369.654 381.741 372.326 378.444 372.326H245.157C241.861 372.326 239.189 369.654 239.189 366.358V339.705Z" fill="#15C1E6"/>
<path fill-rule="evenodd" clip-rule="evenodd" d="M307.823 350.574L364.924 350.574C366.572 350.574 367.908 351.91 367.908 353.558C367.908 355.206 366.572 356.542 364.924 356.542L307.823 356.542C306.175 356.542 304.839 355.206 304.839 353.558C304.839 351.91 306.175 350.574 307.823 350.574Z" fill="#091B36"/>
<path fill-rule="evenodd" clip-rule="evenodd" d="M280.963 353.87C280.963 355.518 279.627 356.854 277.978 356.854L275.989 356.854C274.341 356.854 273.005 355.518 273.005 353.87C273.005 352.222 274.341 350.886 275.989 350.886L277.978 350.886C279.627 350.886 280.963 352.222 280.963 353.87Z" fill="#091B36"/>
<path fill-rule="evenodd" clip-rule="evenodd" d="M294.892 353.87C294.892 355.518 293.556 356.854 291.908 356.854L289.919 356.854C288.271 356.854 286.935 355.518 286.935 353.87C286.935 352.222 288.271 350.886 289.919 350.886L291.908 350.886C293.556 350.886 294.892 352.222 294.892 353.87Z" fill="#091B36"/>
<path fill-rule="evenodd" clip-rule="evenodd" d="M267.04 353.87C267.04 355.518 265.704 356.854 264.056 356.854L262.067 356.854C260.419 356.854 259.083 355.518 259.083 353.87C259.083 352.222 260.419 350.886 262.067 350.886L264.056 350.886C265.704 350.886 267.04 352.222 267.04 353.87Z" fill="#091B36"/>
<path d="M239.189 385.462C239.189 382.166 241.861 379.494 245.157 379.494H378.444C381.741 379.494 384.413 382.166 384.413 385.462V412.115C384.413 415.411 381.741 418.083 378.444 418.083H245.157C241.861 418.083 239.189 415.411 239.189 412.115V385.462Z" fill="#15C1E6"/>
<path fill-rule="evenodd" clip-rule="evenodd" d="M307.823 396.331L364.924 396.331C366.572 396.331 367.908 397.667 367.908 399.315C367.908 400.963 366.572 402.299 364.924 402.299L307.823 402.299C306.175 402.299 304.839 400.963 304.839 399.315C304.839 397.667 306.175 396.331 307.823 396.331Z" fill="#091B36"/>
<path fill-rule="evenodd" clip-rule="evenodd" d="M280.963 399.627C280.963 401.275 279.627 402.611 277.978 402.611L275.989 402.611C274.341 402.611 273.005 401.275 273.005 399.627C273.005 397.979 274.341 396.643 275.989 396.643L277.978 396.643C279.627 396.643 280.963 397.979 280.963 399.627Z" fill="#091B36"/>
<path fill-rule="evenodd" clip-rule="evenodd" d="M294.892 399.627C294.892 401.275 293.556 402.611 291.908 402.611L289.919 402.611C288.271 402.611 286.935 401.275 286.935 399.627C286.935 397.979 288.271 396.643 289.919 396.643L291.908 396.643C293.556 396.643 294.892 397.979 294.892 399.627Z" fill="#091B36"/>
<path fill-rule="evenodd" clip-rule="evenodd" d="M267.04 399.627C267.04 401.275 265.704 402.611 264.056 402.611L262.067 402.611C260.419 402.611 259.083 401.275 259.083 399.627C259.083 397.979 260.419 396.643 262.067 396.643L264.056 396.643C265.704 396.643 267.04 397.979 267.04 399.627Z" fill="#091B36"/>
</g>
<defs>
<filter id="filter0_dd_7403_105146" x="126.317" y="346.79" width="148.96" height="60.3018" filterUnits="userSpaceOnUse" color-interpolation-filters="sRGB">
<feFlood flood-opacity="0" result="BackgroundImageFix"/>
<feColorMatrix in="SourceAlpha" type="matrix" values="0 0 0 0 0 0 0 0 0 0 0 0 0 0 0 0 0 0 127 0" result="hardAlpha"/>
<feOffset dx="3.84216" dy="3.84216"/>
<feGaussianBlur stdDeviation="3.84216"/>
<feColorMatrix type="matrix" values="0 0 0 0 0 0 0 0 0 0.296699 0 0 0 0 0.858629 0 0 0 0.08 0"/>
<feBlend mode="normal" in2="BackgroundImageFix" result="effect1_dropShadow_7403_105146"/>
<feColorMatrix in="SourceAlpha" type="matrix" values="0 0 0 0 0 0 0 0 0 0 0 0 0 0 0 0 0 0 127 0" result="hardAlpha"/>
<feOffset/>
<feGaussianBlur stdDeviation="2.68951"/>
<feComposite in2="hardAlpha" operator="out"/>
<feColorMatrix type="matrix" values="0 0 0 0 0.0354167 0 0 0 0 0.105426 0 0 0 0 0.2125 0 0 0 0.07 0"/>
<feBlend mode="normal" in2="effect1_dropShadow_7403_105146" result="effect2_dropShadow_7403_105146"/>
<feBlend mode="normal" in="SourceGraphic" in2="effect2_dropShadow_7403_105146" result="shape"/>
</filter>
<filter id="filter1_dd_7403_105146" x="407.565" y="305.403" width="87.076" height="35.5444" filterUnits="userSpaceOnUse" color-interpolation-filters="sRGB">
<feFlood flood-opacity="0" result="BackgroundImageFix"/>
<feColorMatrix in="SourceAlpha" type="matrix" values="0 0 0 0 0 0 0 0 0 0 0 0 0 0 0 0 0 0 127 0" result="hardAlpha"/>
<feOffset dx="2.23321" dy="2.23321"/>
<feGaussianBlur stdDeviation="2.23321"/>
<feColorMatrix type="matrix" values="0 0 0 0 0 0 0 0 0 0.296699 0 0 0 0 0.858629 0 0 0 0.08 0"/>
<feBlend mode="normal" in2="BackgroundImageFix" result="effect1_dropShadow_7403_105146"/>
<feColorMatrix in="SourceAlpha" type="matrix" values="0 0 0 0 0 0 0 0 0 0 0 0 0 0 0 0 0 0 127 0" result="hardAlpha"/>
<feOffset/>
<feGaussianBlur stdDeviation="1.56324"/>
<feComposite in2="hardAlpha" operator="out"/>
<feColorMatrix type="matrix" values="0 0 0 0 0.0354167 0 0 0 0 0.105426 0 0 0 0 0.2125 0 0 0 0.07 0"/>
<feBlend mode="normal" in2="effect1_dropShadow_7403_105146" result="effect2_dropShadow_7403_105146"/>
<feBlend mode="normal" in="SourceGraphic" in2="effect2_dropShadow_7403_105146" result="shape"/>
</filter>
<filter id="filter2_dd_7403_105146" x="380.094" y="135.208" width="88.4709" height="36.0947" filterUnits="userSpaceOnUse" color-interpolation-filters="sRGB">
<feFlood flood-opacity="0" result="BackgroundImageFix"/>
<feColorMatrix in="SourceAlpha" type="matrix" values="0 0 0 0 0 0 0 0 0 0 0 0 0 0 0 0 0 0 127 0" result="hardAlpha"/>
<feOffset dx="2.26981" dy="2.26981"/>
<feGaussianBlur stdDeviation="2.26981"/>
<feColorMatrix type="matrix" values="0 0 0 0 0 0 0 0 0 0.296699 0 0 0 0 0.858629 0 0 0 0.08 0"/>
<feBlend mode="normal" in2="BackgroundImageFix" result="effect1_dropShadow_7403_105146"/>
<feColorMatrix in="SourceAlpha" type="matrix" values="0 0 0 0 0 0 0 0 0 0 0 0 0 0 0 0 0 0 127 0" result="hardAlpha"/>
<feOffset/>
<feGaussianBlur stdDeviation="1.58887"/>
<feComposite in2="hardAlpha" operator="out"/>
<feColorMatrix type="matrix" values="0 0 0 0 0.0354167 0 0 0 0 0.105426 0 0 0 0 0.2125 0 0 0 0.07 0"/>
<feBlend mode="normal" in2="effect1_dropShadow_7403_105146" result="effect2_dropShadow_7403_105146"/>
<feBlend mode="normal" in="SourceGraphic" in2="effect2_dropShadow_7403_105146" result="shape"/>
</filter>
<filter id="filter3_dd_7403_105146" x="92.1074" y="153.057" width="126.331" height="51.6115" filterUnits="userSpaceOnUse" color-interpolation-filters="sRGB">
<feFlood flood-opacity="0" result="BackgroundImageFix"/>
<feColorMatrix in="SourceAlpha" type="matrix" values="0 0 0 0 0 0 0 0 0 0 0 0 0 0 0 0 0 0 127 0" result="hardAlpha"/>
<feOffset dx="3.23812" dy="3.23812"/>
<feGaussianBlur stdDeviation="3.23812"/>
<feColorMatrix type="matrix" values="0 0 0 0 0 0 0 0 0 0.296699 0 0 0 0 0.858629 0 0 0 0.08 0"/>
<feBlend mode="normal" in2="BackgroundImageFix" result="effect1_dropShadow_7403_105146"/>
<feColorMatrix in="SourceAlpha" type="matrix" values="0 0 0 0 0 0 0 0 0 0 0 0 0 0 0 0 0 0 127 0" result="hardAlpha"/>
<feOffset/>
<feGaussianBlur stdDeviation="2.26669"/>
<feComposite in2="hardAlpha" operator="out"/>
<feColorMatrix type="matrix" values="0 0 0 0 0.0354167 0 0 0 0 0.105426 0 0 0 0 0.2125 0 0 0 0.07 0"/>
<feBlend mode="normal" in2="effect1_dropShadow_7403_105146" result="effect2_dropShadow_7403_105146"/>
<feBlend mode="normal" in="SourceGraphic" in2="effect2_dropShadow_7403_105146" result="shape"/>
</filter>
<filter id="filter4_dd_7403_105146" x="174.344" y="178.133" width="287.012" height="116.782" filterUnits="userSpaceOnUse" color-interpolation-filters="sRGB">
<feFlood flood-opacity="0" result="BackgroundImageFix"/>
<feColorMatrix in="SourceAlpha" type="matrix" values="0 0 0 0 0 0 0 0 0 0 0 0 0 0 0 0 0 0 127 0" result="hardAlpha"/>
<feOffset dx="7.3772" dy="7.3772"/>
<feGaussianBlur stdDeviation="7.3772"/>
<feColorMatrix type="matrix" values="0 0 0 0 0 0 0 0 0 0.296699 0 0 0 0 0.858629 0 0 0 0.08 0"/>
<feBlend mode="normal" in2="BackgroundImageFix" result="effect1_dropShadow_7403_105146"/>
<feColorMatrix in="SourceAlpha" type="matrix" values="0 0 0 0 0 0 0 0 0 0 0 0 0 0 0 0 0 0 127 0" result="hardAlpha"/>
<feOffset/>
<feGaussianBlur stdDeviation="5.16404"/>
<feComposite in2="hardAlpha" operator="out"/>
<feColorMatrix type="matrix" values="0 0 0 0 0.0354167 0 0 0 0 0.105426 0 0 0 0 0.2125 0 0 0 0.07 0"/>
<feBlend mode="normal" in2="effect1_dropShadow_7403_105146" result="effect2_dropShadow_7403_105146"/>
<feBlend mode="normal" in="SourceGraphic" in2="effect2_dropShadow_7403_105146" result="shape"/>
</filter>
<radialGradient id="paint0_radial_7403_105146" cx="0" cy="0" r="1" gradientUnits="userSpaceOnUse" gradientTransform="translate(77.084 198.44) rotate(8.17489) scale(320.838 362.981)">
<stop stop-color="#15C1E6"/>
<stop offset="0.869792" stop-color="#15C1E6" stop-opacity="0"/>
</radialGradient>
<linearGradient id="paint1_linear_7403_105146" x1="420.865" y1="167.016" x2="420.858" y2="167.035" gradientUnits="userSpaceOnUse">
<stop stop-color="#15C1E6"/>
<stop offset="1" stop-color="#15C1E6" stop-opacity="0"/>
</linearGradient>
<radialGradient id="paint2_radial_7403_105146" cx="0" cy="0" r="1" gradientUnits="userSpaceOnUse" gradientTransform="translate(570.83 246.381) rotate(148.448) scale(248.956 186.905)">
<stop stop-color="#15C1E6"/>
<stop offset="1" stop-color="#15C1E6" stop-opacity="0"/>
</radialGradient>
<linearGradient id="paint3_linear_7403_105146" x1="423.87" y1="168.774" x2="423.33" y2="169.964" gradientUnits="userSpaceOnUse">
<stop stop-color="#15C1E6"/>
<stop offset="1" stop-color="#15C1E6" stop-opacity="0"/>
</linearGradient>
<linearGradient id="paint4_linear_7403_105146" x1="421.571" y1="166.633" x2="421.015" y2="167.951" gradientUnits="userSpaceOnUse">
<stop stop-color="#15C1E6"/>
<stop offset="1" stop-color="#15C1E6" stop-opacity="0"/>
</linearGradient>
<linearGradient id="paint5_linear_7403_105146" x1="270.131" y1="336.117" x2="246.054" y2="425.988" gradientUnits="userSpaceOnUse">
<stop stop-color="#0A479C"/>
<stop offset="1" stop-color="#091B36"/>
</linearGradient>
<linearGradient id="paint6_linear_7403_105146" x1="147.432" y1="392.066" x2="178.356" y2="318.527" gradientUnits="userSpaceOnUse">
<stop stop-color="#1B4582"/>
<stop offset="1" stop-color="#3160A6"/>
</linearGradient>
<linearGradient id="paint7_linear_7403_105146" x1="491.403" y1="299.447" x2="477.408" y2="351.683" gradientUnits="userSpaceOnUse">
<stop stop-color="#0A479C"/>
<stop offset="1" stop-color="#091B36"/>
</linearGradient>
<linearGradient id="paint8_linear_7403_105146" x1="420.086" y1="331.966" x2="438.06" y2="289.222" gradientUnits="userSpaceOnUse">
<stop stop-color="#1B4582"/>
<stop offset="1" stop-color="#3160A6"/>
</linearGradient>
<linearGradient id="paint9_linear_7403_105146" x1="465.29" y1="129.139" x2="451.066" y2="182.231" gradientUnits="userSpaceOnUse">
<stop stop-color="#0A479C"/>
<stop offset="1" stop-color="#091B36"/>
</linearGradient>
<linearGradient id="paint10_linear_7403_105146" x1="392.804" y1="162.191" x2="411.073" y2="118.747" gradientUnits="userSpaceOnUse">
<stop stop-color="#1B4582"/>
<stop offset="1" stop-color="#3160A6"/>
</linearGradient>
<linearGradient id="paint11_linear_7403_105146" x1="213.708" y1="144.457" x2="193.415" y2="220.199" gradientUnits="userSpaceOnUse">
<stop stop-color="#0A479C"/>
<stop offset="1" stop-color="#091B36"/>
</linearGradient>
<linearGradient id="paint12_linear_7403_105146" x1="110.298" y1="191.61" x2="136.36" y2="129.632" gradientUnits="userSpaceOnUse">
<stop stop-color="#1B4582"/>
<stop offset="1" stop-color="#3160A6"/>
</linearGradient>
<linearGradient id="paint13_linear_7403_105146" x1="450.978" y1="158.14" x2="404.747" y2="330.697" gradientUnits="userSpaceOnUse">
<stop stop-color="#0A479C"/>
<stop offset="1" stop-color="#091B36"/>
</linearGradient>
<linearGradient id="paint14_linear_7403_105146" x1="215.386" y1="265.564" x2="274.763" y2="124.365" gradientUnits="userSpaceOnUse">
<stop stop-color="#1B4582"/>
<stop offset="1" stop-color="#3160A6"/>
</linearGradient>
<clipPath id="clip0_7403_105146">
<rect width="508.759" height="380.423" fill="white" transform="translate(40 98.5977)"/>
</clipPath>
</defs>
</svg>
