<svg width="80" height="63" viewBox="0 0 80 63" fill="none" xmlns="http://www.w3.org/2000/svg">
<g id="use case">
<g id="Data Security">
<g id="use case img">
<path id="Vector" opacity="0.15" d="M39.5 56.4258C53.031 56.4258 64 45.4568 64 31.9258C64 18.3948 53.031 7.42578 39.5 7.42578C25.969 7.42578 15 18.3948 15 31.9258C15 45.4568 25.969 56.4258 39.5 56.4258Z" fill="#E6EEFF"/>
<g id="Group 113074">
<path id="Vector_2" d="M13.6982 12.3506H66.3012C68.7669 12.3506 70.7689 14.436 70.7689 17.0044V46.8468C70.7689 49.4152 68.7669 51.5006 66.3012 51.5006H13.6982C11.2325 51.5006 9.23047 49.4152 9.23047 46.8468V17.0044C9.23047 14.436 11.2325 12.3506 13.6982 12.3506Z" fill="white"/>
<rect id="Rectangle 6797" x="14.7695" y="23.8252" width="51.0769" height="22.275" rx="1.27235" fill="#E6EEFF"/>
<g id="Group 110858">
<path id="Vector_3" d="M18.0075 18.1762C18.0075 19.1492 17.2756 19.952 16.3885 19.952C15.5014 19.952 14.7695 19.1492 14.7695 18.1762C14.7695 17.2031 15.5014 16.4004 16.3885 16.4004C17.2756 16.4004 18.0075 17.2031 18.0075 18.1762Z" fill="#F66058"/>
<path id="Vector_4" d="M24.484 18.1762C24.484 19.1492 23.7522 19.952 22.8651 19.952C21.978 19.952 21.2461 19.1492 21.2461 18.1762C21.2461 17.2031 21.978 16.4004 22.8651 16.4004C23.7743 16.4004 24.484 17.2031 24.484 18.1762Z" fill="#F9BD2E"/>
<path id="Vector_5" d="M30.9606 18.1762C30.9606 19.1492 30.2287 19.952 29.3416 19.952C28.4545 19.952 27.7227 19.1492 27.7227 18.1762C27.7227 17.2031 28.4545 16.4004 29.3416 16.4004C30.2287 16.4004 30.9606 17.2031 30.9606 18.1762Z" fill="#3CC840"/>
</g>
</g>
<g id="Group" opacity="0.85" filter="url(#filter0_d_8288_32914)">
<g id="Group_2">
<path id="Vector_6" d="M70.1027 28.2192H49.5933C48.717 28.2192 48 27.4328 48 26.4716V10.7232C48 9.76203 48.717 8.97559 49.5933 8.97559H70.1027C70.979 8.97559 71.696 9.76203 71.696 10.7232V26.4716C71.696 27.4425 70.9878 28.2192 70.1027 28.2192Z" fill="white"/>
<path id="Vector_7" d="M71.696 16.5779H48V10.733C48 9.7718 48.717 8.98535 49.5933 8.98535H70.1027C70.979 8.98535 71.696 9.7718 71.696 10.733V16.5779Z" fill="#9FC0FF"/>
</g>
<path id="Vector_8" d="M52.3037 11.1797L50.5156 14.3643H54.0917L52.3037 11.1797Z" fill="white"/>
<path id="Vector_9" opacity="0.4" d="M68.1188 12.1602H56.1602V13.3835H68.1188V12.1602Z" fill="white"/>
<path id="Vector_10" d="M65.8805 20.9863H53.9219V22.2097H65.8805V20.9863Z" fill="#EDEDEE"/>
</g>
<g id="Group 112075">
<g id="Group_3">
<g id="Group_4">
<g id="Group_5">
<g id="Group_6">
<g id="Group_7">
<path id="Vector_11" d="M40.0392 19.7754L52.387 22.4977L52.4076 36.6279C52.4281 45.9432 47.0157 50.7577 40.0805 53.5254C33.1455 50.8027 27.7325 45.9878 27.712 36.6729L27.6914 22.5428L40.0392 19.7754Z" fill="white"/>
<path id="Vector_12" d="M51.6735 23.1426L51.694 36.6276C51.694 44.2366 47.905 49.5047 40.1006 52.6788C32.2755 49.5273 28.4864 44.2817 28.4659 36.6735L28.4453 23.1885L40.0595 20.5996L51.6735 23.1426Z" fill="#3D7FFC"/>
</g>
</g>
</g>
</g>
</g>
<path id="Vector_13" d="M45.9208 32.5368H45.3521V30.2777C45.3521 27.2275 43.0894 24.7549 40.2981 24.7549H39.8437C37.0524 24.7549 34.7897 27.2275 34.7897 30.2777V32.5368H34.221C33.756 32.5368 33.3789 32.9489 33.3789 33.457V43.1074C33.3789 43.6155 33.756 44.0301 34.221 44.0301H45.9216C46.3866 44.0301 46.766 43.6163 46.766 43.1074V33.457C46.766 32.9489 46.3873 32.5368 45.9216 32.5368H45.9208ZM40.5359 38.2168V41.2256C40.5359 41.3936 40.4094 41.5318 40.2534 41.5318H39.8854C39.7317 41.5318 39.6052 41.3936 39.6052 41.2256V38.2168C39.1523 38.0165 38.8305 37.5316 38.8305 36.9606C38.8305 36.2225 39.3735 35.6217 40.0474 35.6102C40.0558 35.6077 40.0618 35.6077 40.0709 35.6077C40.7532 35.6077 41.3091 36.2126 41.3091 36.9606C41.3091 37.5308 40.9887 38.0165 40.5366 38.2168H40.5359ZM43.7482 32.5368H36.3005V30.0799C36.3005 27.9292 37.8938 26.1856 39.8642 26.1856H40.1822C42.1527 26.1856 43.7482 27.9292 43.7482 30.0799V32.5368Z" fill="white"/>
</g>
<g id="Group 112063">
<g id="Group 10110" filter="url(#filter1_dd_8288_32914)">
<g id="Man">
<g id="Body">
<path id="Vector_14" d="M21.4328 51.4896C21.1317 51.5383 21.1317 51.246 20.7871 51.0998C20.4605 50.9602 20.2701 50.534 20.185 50.6158C20.1 50.6976 20.3453 51.1716 20.4303 51.2584C20.2279 51.227 19.1954 50.9676 19.1231 51.2286C19.0637 51.4425 18.8853 51.5094 18.9523 51.7588C19.0193 52.0083 19.3564 52.4361 19.8396 52.5311C20.3227 52.626 20.6381 52.6896 20.8932 52.6062C21.0862 52.5523 21.286 52.5333 21.4847 52.5501C21.4802 52.3783 21.4328 51.4896 21.4328 51.4896Z" fill="#E7EEFF"/>
</g>
<g id="Frame">
<path id="Vector_15" d="M23.597 42.7256H13.3411C12.7709 42.7256 12.3086 43.2329 12.3086 43.8587V55.1141C12.3086 55.7399 12.7709 56.2472 13.3411 56.2472H23.597C24.1673 56.2472 24.6295 55.7399 24.6295 55.1141V43.8587C24.6295 43.2329 24.1673 42.7256 23.597 42.7256Z" fill="#9FC0FF"/>
</g>
</g>
</g>
<g id="Frame_2" clip-path="url(#clip0_8288_32914)">
<path id="Vector_16" d="M18.6759 46.8115C18.6377 46.8115 18.5996 46.796 18.5708 46.7644C18.5128 46.7017 18.5128 46.6 18.5708 46.5373L19.3395 45.706L19.7697 44.488C19.7989 44.405 19.8847 44.3638 19.9615 44.3954C20.0383 44.427 20.0765 44.5197 20.0472 44.6027L19.6056 45.8528C19.5982 45.8737 19.5868 45.893 19.5719 45.909L18.7805 46.7644C18.7512 46.796 18.7136 46.8115 18.6754 46.8115H18.6759Z" fill="white"/>
<path id="Vector_17" d="M18.6746 46.8115C18.6365 46.8115 18.5983 46.7959 18.5695 46.7643L17.7781 45.909C17.7632 45.8929 17.7518 45.8736 17.7444 45.8527L17.3028 44.6026C17.2736 44.5196 17.3117 44.4269 17.3885 44.3953C17.4654 44.3637 17.5511 44.4055 17.5803 44.488L18.0105 45.706L18.7797 46.5372C18.8377 46.5999 18.8377 46.7017 18.7797 46.7643C18.7504 46.7959 18.7128 46.8115 18.6746 46.8115Z" fill="white"/>
<path id="Vector_18" d="M20.036 47.1439C20.1113 46.3322 19.5633 45.6082 18.8122 45.5268C18.0611 45.4455 17.3912 46.0377 17.3159 46.8495C17.2407 47.6613 17.7886 48.3853 18.5397 48.4666C19.2909 48.5479 19.9608 47.9557 20.036 47.1439Z" fill="#F5F8FF"/>
<g id="Group_8">
<path id="Vector_19" d="M18.6758 50.5097C18.6401 50.5097 18.6045 50.4957 18.5762 50.4684C18.5153 50.409 18.5108 50.3072 18.5658 50.2413L21.4328 46.8156C21.4829 46.7556 21.5666 46.7454 21.6276 46.7914L22.2942 47.2906C22.3616 47.341 22.3784 47.4411 22.3319 47.514C22.2853 47.5868 22.1926 47.605 22.1252 47.5547L21.5662 47.1358L18.7868 50.4572C18.7576 50.492 18.717 50.5102 18.6763 50.5102L18.6758 50.5097Z" fill="white"/>
<path id="Vector_20" d="M22.7492 50.6659C22.7011 50.6659 22.654 50.6408 22.6258 50.5947L22.1589 49.8427L18.7021 50.5069C18.6218 50.5224 18.544 50.464 18.5297 50.3767C18.5153 50.2894 18.5693 50.2059 18.6501 50.1903L22.202 49.5074C22.26 49.4962 22.3185 49.523 22.3517 49.576L22.8731 50.4147C22.9187 50.4887 22.9008 50.5883 22.8324 50.6376C22.8072 50.6558 22.7784 50.6649 22.7497 50.6649L22.7492 50.6659Z" fill="white"/>
<path id="Vector_21" d="M21.3653 54.3423C21.3425 54.3423 21.3192 54.3365 21.2974 54.3247C21.2246 54.284 21.1958 54.187 21.2335 54.1083L21.6751 53.1806L18.5825 50.4742C18.5186 50.4185 18.5087 50.3172 18.5607 50.2481C18.6123 50.179 18.706 50.1683 18.7699 50.2246L21.9566 53.0135C22.0111 53.0612 22.0274 53.1442 21.9952 53.2117L21.4981 54.2556C21.4719 54.3107 21.4198 54.3429 21.3658 54.3429L21.3653 54.3423Z" fill="white"/>
</g>
<g id="Group_9">
<path id="Vector_22" d="M18.6897 50.5102C18.649 50.5102 18.6089 50.4925 18.5792 50.4572L15.7998 47.1358L15.2408 47.5547C15.1734 47.605 15.0807 47.5868 15.0341 47.514C14.9876 47.4411 15.0044 47.341 15.0718 47.2906L15.7384 46.7914C15.7998 46.7454 15.8831 46.7556 15.9332 46.8156L18.8002 50.2413C18.8552 50.3072 18.8507 50.409 18.7898 50.4684C18.7615 50.4963 18.7259 50.5097 18.6902 50.5097L18.6897 50.5102Z" fill="white"/>
<path id="Vector_23" d="M14.6174 50.6658C14.5886 50.6658 14.5599 50.6567 14.5346 50.6385C14.4662 50.5893 14.4484 50.4891 14.494 50.4157L15.0153 49.577C15.048 49.5239 15.107 49.4971 15.165 49.5084L18.7169 50.1913C18.7977 50.2068 18.8518 50.2904 18.8374 50.3777C18.823 50.465 18.7457 50.5234 18.6649 50.5078L15.2081 49.8432L14.7413 50.5951C14.7125 50.6412 14.6654 50.6664 14.6179 50.6664L14.6174 50.6658Z" fill="white"/>
<path id="Vector_24" d="M16.0014 54.3435C15.9474 54.3435 15.8954 54.3119 15.8691 54.2562L15.372 53.2123C15.3398 53.1448 15.3557 53.0617 15.4107 53.0141L18.5974 50.2252C18.6613 50.1694 18.755 50.1802 18.8065 50.2487C18.858 50.3178 18.8481 50.419 18.7847 50.4747L15.6917 53.1812L16.1337 54.1089C16.1714 54.1876 16.1427 54.2845 16.0698 54.3253C16.048 54.3376 16.0247 54.3429 16.0019 54.3429L16.0014 54.3435Z" fill="white"/>
</g>
<path id="Vector_25" d="M21.1419 50.3498C21.1419 52.392 20.0377 54.0481 18.6758 54.0481V46.6514C20.0377 46.6514 21.1419 48.3069 21.1419 50.3498Z" fill="#7539D3"/>
<path id="Vector_26" d="M18.677 54.0481C20.039 54.0481 21.1431 52.3923 21.1431 50.3498C21.1431 48.3072 20.039 46.6514 18.677 46.6514C17.315 46.6514 16.2109 48.3072 16.2109 50.3498C16.2109 52.3923 17.315 54.0481 18.677 54.0481Z" fill="white"/>
<path id="Vector_27" d="M21.1419 50.3498C21.1419 52.392 20.0377 54.0481 18.6758 54.0481V46.6514C20.0377 46.6514 21.1419 48.3069 21.1419 50.3498Z" fill="#F5F8FF"/>
</g>
</g>
</g>
</g>
</g>
<defs>
<filter id="filter0_d_8288_32914" x="47.5145" y="8.49013" width="25.6372" height="21.185" filterUnits="userSpaceOnUse" color-interpolation-filters="sRGB">
<feFlood flood-opacity="0" result="BackgroundImageFix"/>
<feColorMatrix in="SourceAlpha" type="matrix" values="0 0 0 0 0 0 0 0 0 0 0 0 0 0 0 0 0 0 127 0" result="hardAlpha"/>
<feOffset dx="0.48546" dy="0.48546"/>
<feGaussianBlur stdDeviation="0.48546"/>
<feColorMatrix type="matrix" values="0 0 0 0 0.0941177 0 0 0 0 0.188235 0 0 0 0 0.247059 0 0 0 0.05 0"/>
<feBlend mode="normal" in2="BackgroundImageFix" result="effect1_dropShadow_8288_32914"/>
<feBlend mode="normal" in="SourceGraphic" in2="effect1_dropShadow_8288_32914" result="shape"/>
</filter>
<filter id="filter1_dd_8288_32914" x="6.98338" y="38.2879" width="22.9707" height="24.1719" filterUnits="userSpaceOnUse" color-interpolation-filters="sRGB">
<feFlood flood-opacity="0" result="BackgroundImageFix"/>
<feColorMatrix in="SourceAlpha" type="matrix" values="0 0 0 0 0 0 0 0 0 0 0 0 0 0 0 0 0 0 127 0" result="hardAlpha"/>
<feOffset dy="1.77507"/>
<feGaussianBlur stdDeviation="2.21884"/>
<feColorMatrix type="matrix" values="0 0 0 0 0.607843 0 0 0 0 0.67451 0 0 0 0 0.737255 0 0 0 0.35 0"/>
<feBlend mode="normal" in2="BackgroundImageFix" result="effect1_dropShadow_8288_32914"/>
<feColorMatrix in="SourceAlpha" type="matrix" values="0 0 0 0 0 0 0 0 0 0 0 0 0 0 0 0 0 0 127 0" result="hardAlpha"/>
<feOffset dy="0.887536"/>
<feGaussianBlur stdDeviation="2.66261"/>
<feColorMatrix type="matrix" values="0 0 0 0 0.89625 0 0 0 0 0.930414 0 0 0 0 0.995833 0 0 0 0.5 0"/>
<feBlend mode="normal" in2="effect1_dropShadow_8288_32914" result="effect2_dropShadow_8288_32914"/>
<feBlend mode="normal" in="SourceGraphic" in2="effect2_dropShadow_8288_32914" result="shape"/>
</filter>
<clipPath id="clip0_8288_32914">
<rect width="8.43012" height="9.95807" fill="white" transform="translate(14.4688 44.3848)"/>
</clipPath>
</defs>
</svg>
