<svg width="588" height="446" viewBox="0 0 588 446" fill="none" xmlns="http://www.w3.org/2000/svg">
<mask id="mask0_13409_3146" style="mask-type:alpha" maskUnits="userSpaceOnUse" x="64" y="0" width="461" height="446">
<rect x="64" width="460.431" height="446" fill="url(#paint0_radial_13409_3146)"/>
</mask>
<g mask="url(#mask0_13409_3146)">
<g opacity="0.61">
<path d="M91.7734 37.1706L101.994 47.7812L124.989 23.9075" stroke="#15C1E6" stroke-width="10.5459" stroke-linecap="square"/>
<path d="M153.79 37.1706L164.01 47.7812L187.005 23.9075" stroke="#15C1E6" stroke-width="10.5459" stroke-linecap="square"/>
<path d="M215.806 37.1706L226.026 47.7812L249.022 23.9075" stroke="#15C1E6" stroke-width="10.5459" stroke-linecap="square"/>
<path d="M277.822 37.1706L288.042 47.7812L311.038 23.9075" stroke="#15C1E6" stroke-width="10.5459" stroke-linecap="square"/>
<path d="M339.839 37.1706L350.059 47.7812L373.054 23.9075" stroke="#15C1E6" stroke-width="10.5459" stroke-linecap="square"/>
<path d="M401.855 37.1706L412.075 47.7812L435.071 23.9075" stroke="#15C1E6" stroke-width="10.5459" stroke-linecap="square"/>
<path d="M463.872 37.1706L474.092 47.7812L497.087 23.9075" stroke="#15C1E6" stroke-width="10.5459" stroke-linecap="square"/>
<path d="M91.7734 90.595L101.994 101.206L124.989 77.3318" stroke="#15C1E6" stroke-width="10.5459" stroke-linecap="square"/>
<path d="M153.79 90.5949L164.01 101.205L187.005 77.3317" stroke="#15C1E6" stroke-width="10.5459" stroke-linecap="square"/>
<path d="M215.806 90.595L226.026 101.206L249.022 77.3318" stroke="#15C1E6" stroke-width="10.5459" stroke-linecap="square"/>
<path d="M277.822 90.5949L288.042 101.205L311.038 77.3317" stroke="#15C1E6" stroke-width="10.5459" stroke-linecap="square"/>
<path d="M339.839 90.595L350.059 101.206L373.054 77.3318" stroke="#15C1E6" stroke-width="10.5459" stroke-linecap="square"/>
<path d="M401.855 90.5949L412.075 101.205L435.071 77.3317" stroke="#15C1E6" stroke-width="10.5459" stroke-linecap="square"/>
<path d="M463.872 90.5949L474.092 101.205L497.087 77.3317" stroke="#15C1E6" stroke-width="10.5459" stroke-linecap="square"/>
<path d="M91.7734 144.019L101.994 154.63L124.989 130.756" stroke="#15C1E6" stroke-width="10.5459" stroke-linecap="square"/>
<path d="M153.79 144.019L164.01 154.63L187.005 130.756" stroke="#15C1E6" stroke-width="10.5459" stroke-linecap="square"/>
<path d="M215.806 144.019L226.026 154.63L249.022 130.756" stroke="#15C1E6" stroke-width="10.5459" stroke-linecap="square"/>
<path d="M277.822 144.019L288.042 154.63L311.038 130.756" stroke="#15C1E6" stroke-width="10.5459" stroke-linecap="square"/>
<path d="M339.839 144.019L350.059 154.63L373.054 130.756" stroke="#15C1E6" stroke-width="10.5459" stroke-linecap="square"/>
<path d="M401.855 144.019L412.075 154.63L435.071 130.756" stroke="#15C1E6" stroke-width="10.5459" stroke-linecap="square"/>
<path d="M463.872 144.019L474.092 154.63L497.087 130.756" stroke="#15C1E6" stroke-width="10.5459" stroke-linecap="square"/>
<path d="M91.7734 197.443L101.994 208.054L124.989 184.18" stroke="#15C1E6" stroke-width="10.5459" stroke-linecap="square"/>
<path d="M153.79 197.443L164.01 208.054L187.005 184.18" stroke="#15C1E6" stroke-width="10.5459" stroke-linecap="square"/>
<path d="M215.806 197.443L226.026 208.054L249.022 184.18" stroke="#15C1E6" stroke-width="10.5459" stroke-linecap="square"/>
<path d="M277.822 197.443L288.042 208.054L311.038 184.18" stroke="#15C1E6" stroke-width="10.5459" stroke-linecap="square"/>
<path d="M339.839 197.443L350.059 208.054L373.054 184.18" stroke="#15C1E6" stroke-width="10.5459" stroke-linecap="square"/>
<path d="M401.855 197.443L412.075 208.054L435.071 184.18" stroke="#15C1E6" stroke-width="10.5459" stroke-linecap="square"/>
<path d="M463.872 197.443L474.092 208.054L497.087 184.18" stroke="#15C1E6" stroke-width="10.5459" stroke-linecap="square"/>
<path d="M91.7734 250.868L101.994 261.478L124.989 237.605" stroke="#15C1E6" stroke-width="10.5459" stroke-linecap="square"/>
<path d="M153.79 250.868L164.01 261.478L187.005 237.604" stroke="#15C1E6" stroke-width="10.5459" stroke-linecap="square"/>
<path d="M215.806 250.868L226.026 261.478L249.022 237.605" stroke="#15C1E6" stroke-width="10.5459" stroke-linecap="square"/>
<path d="M277.822 250.868L288.042 261.478L311.038 237.604" stroke="#15C1E6" stroke-width="10.5459" stroke-linecap="square"/>
<path d="M339.839 250.868L350.059 261.478L373.054 237.605" stroke="#15C1E6" stroke-width="10.5459" stroke-linecap="square"/>
<path d="M401.855 250.868L412.075 261.478L435.071 237.604" stroke="#15C1E6" stroke-width="10.5459" stroke-linecap="square"/>
<path d="M463.872 250.868L474.092 261.478L497.087 237.604" stroke="#15C1E6" stroke-width="10.5459" stroke-linecap="square"/>
<path d="M91.7734 304.292L101.994 314.903L124.989 291.029" stroke="#15C1E6" stroke-width="10.5459" stroke-linecap="square"/>
<path d="M153.79 304.292L164.01 314.903L187.005 291.029" stroke="#15C1E6" stroke-width="10.5459" stroke-linecap="square"/>
<path d="M215.806 304.292L226.026 314.903L249.022 291.029" stroke="#15C1E6" stroke-width="10.5459" stroke-linecap="square"/>
<path d="M277.822 304.292L288.042 314.903L311.038 291.029" stroke="#15C1E6" stroke-width="10.5459" stroke-linecap="square"/>
<path d="M339.839 304.292L350.059 314.903L373.054 291.029" stroke="#15C1E6" stroke-width="10.5459" stroke-linecap="square"/>
<path d="M401.855 304.292L412.075 314.903L435.071 291.029" stroke="#15C1E6" stroke-width="10.5459" stroke-linecap="square"/>
<path d="M463.872 304.292L474.092 314.903L497.087 291.029" stroke="#15C1E6" stroke-width="10.5459" stroke-linecap="square"/>
<path d="M91.7734 357.716L101.994 368.327L124.989 344.453" stroke="#15C1E6" stroke-width="10.5459" stroke-linecap="square"/>
<path d="M153.79 357.716L164.01 368.327L187.005 344.453" stroke="#15C1E6" stroke-width="10.5459" stroke-linecap="square"/>
<path d="M215.806 357.716L226.026 368.327L249.022 344.453" stroke="#15C1E6" stroke-width="10.5459" stroke-linecap="square"/>
<path d="M277.822 357.716L288.042 368.327L311.038 344.453" stroke="#15C1E6" stroke-width="10.5459" stroke-linecap="square"/>
<path d="M339.839 357.716L350.059 368.327L373.054 344.453" stroke="#15C1E6" stroke-width="10.5459" stroke-linecap="square"/>
<path d="M401.855 357.716L412.075 368.327L435.071 344.453" stroke="#15C1E6" stroke-width="10.5459" stroke-linecap="square"/>
<path d="M463.872 357.716L474.092 368.327L497.087 344.453" stroke="#15C1E6" stroke-width="10.5459" stroke-linecap="square"/>
<path d="M91.7734 411.141L101.994 421.751L124.989 397.877" stroke="#15C1E6" stroke-width="10.5459" stroke-linecap="square"/>
<path d="M153.79 411.141L164.01 421.751L187.005 397.878" stroke="#15C1E6" stroke-width="10.5459" stroke-linecap="square"/>
<path d="M215.806 411.141L226.026 421.751L249.022 397.877" stroke="#15C1E6" stroke-width="10.5459" stroke-linecap="square"/>
<path d="M277.822 411.141L288.042 421.751L311.038 397.878" stroke="#15C1E6" stroke-width="10.5459" stroke-linecap="square"/>
<path d="M339.839 411.141L350.059 421.751L373.054 397.877" stroke="#15C1E6" stroke-width="10.5459" stroke-linecap="square"/>
<path d="M401.855 411.141L412.075 421.751L435.071 397.878" stroke="#15C1E6" stroke-width="10.5459" stroke-linecap="square"/>
<path d="M463.872 411.141L474.092 421.751L497.087 397.878" stroke="#15C1E6" stroke-width="10.5459" stroke-linecap="square"/>
</g>
</g>
<g filter="url(#filter0_d_13409_3146)">
<path d="M441.219 128.182L523.004 144.689L523.14 230.372C523.277 286.859 487.428 316.052 441.492 332.835C395.559 316.326 359.706 287.129 359.57 230.645L359.434 144.963L441.219 128.182Z" fill="#EDF1F6"/>
<path d="M521.003 148.593L520.999 146.378L518.827 145.942L441.902 130.522L441.365 130.414L440.828 130.524L363.902 146.222L361.732 146.665L361.735 148.881L361.871 230.651L361.871 230.655C361.941 254.245 368.406 274.343 381.604 290.99C394.772 307.601 414.481 320.572 440.705 330.242L441.647 330.589L442.588 330.239C468.743 320.5 488.416 307.458 501.548 290.796C514.709 274.096 521.139 253.963 521.139 230.369L521.139 230.364L521.003 148.593Z" fill="url(#paint1_linear_13409_3146)" stroke="url(#paint2_linear_13409_3146)" stroke-width="5.41722"/>
<path d="M405.074 242.791V202.221H395.549V242.791H405.074Z" fill="white"/>
<path d="M441.063 230.443C441.063 226.798 439.593 224.329 437.888 222.623C436.065 220.801 433.361 219.742 432.244 219.331C430.95 218.802 427.951 217.743 426.188 217.038C424.365 216.332 422.072 215.391 422.072 212.922C422.072 210.452 424.306 209.277 427.363 209.277C430.421 209.277 434.066 211.04 436.418 213.392L440.475 206.748C437.712 203.985 432.302 201.751 427.599 201.751C422.895 201.751 419.191 203.044 416.898 204.984C414.546 206.925 412.664 209.982 412.664 213.863C412.664 217.684 414.075 220.036 415.839 221.683C417.603 223.388 419.661 224.152 420.661 224.623C422.013 225.21 425.07 226.269 426.834 226.916C428.598 227.562 431.597 228.621 431.597 231.384C431.597 234.089 429.245 235.559 426.188 235.559C423.071 235.559 418.544 233.501 415.604 230.443L410.9 237.381C414.193 240.439 419.426 243.496 425.306 243.496C429.657 243.496 433.42 242.438 436.301 240.145C439.24 237.852 441.063 234.324 441.063 230.443Z" fill="white"/>
<path d="M488.263 222.565C488.263 209.453 478.796 201.574 466.743 201.574C454.69 201.574 445.223 209.453 445.223 222.565C445.223 235.676 454.69 243.496 466.743 243.496C478.796 243.496 488.263 235.676 488.263 222.565ZM478.62 222.329C478.62 230.091 473.505 235.03 466.743 235.03C459.981 235.03 454.866 230.091 454.866 222.329C454.866 214.568 459.981 209.688 466.743 209.688C473.505 209.688 478.62 214.627 478.62 222.329Z" fill="white"/>
<path d="M417.265 275.918L416.61 274.812C415.909 275.575 414.818 276.121 413.4 276.121C411.093 276.121 409.395 274.453 409.395 271.929C409.395 269.404 411.078 267.737 413.4 267.737C414.896 267.737 416.096 268.516 416.517 269.046L417.156 267.83C416.563 267.254 415.348 266.412 413.337 266.412C410.252 266.412 407.836 268.609 407.836 271.96C407.836 275.31 410.19 277.508 413.322 277.508C415.363 277.508 416.594 276.666 417.265 275.918Z" fill="#3D7FFC"/>
<path d="M426.274 273.316C426.274 271.243 424.825 269.778 422.768 269.778C420.711 269.778 419.012 271.274 419.012 273.612C419.012 275.965 420.524 277.492 422.721 277.492C424.934 277.492 425.885 276.401 425.978 276.323L425.355 275.466C425.184 275.575 424.295 276.323 422.908 276.323C421.537 276.323 420.602 275.435 420.524 273.97H426.228C426.228 273.97 426.274 273.596 426.274 273.316ZM424.856 272.973H420.54C420.586 272.084 421.241 270.853 422.721 270.853C424.217 270.853 424.841 272.147 424.856 272.973Z" fill="#3D7FFC"/>
<path d="M432.824 269.903C432.824 269.903 432.544 269.778 432.045 269.778C431.25 269.778 430.58 270.214 430.222 271.056H430.175L430.191 269.918H428.695V277.321H430.191V273.627C430.191 272.552 430.518 271.134 431.858 271.134C432.263 271.134 432.528 271.227 432.668 271.29H432.731L432.824 269.903Z" fill="#3D7FFC"/>
<path d="M438.449 277.243L438.356 276.043C438.356 276.043 438.029 276.214 437.592 276.214C437.171 276.214 436.969 276.074 436.829 275.84C436.657 275.528 436.642 275.108 436.642 274.484V271.134H438.418V269.934H436.642V267.721H435.146V269.934H434.055V271.134H435.146V274.516C435.146 275.965 435.239 277.492 437.094 277.492C437.608 277.492 438.06 277.414 438.449 277.243Z" fill="#3D7FFC"/>
<path d="M442.401 267.487C442.401 266.957 441.995 266.568 441.434 266.568C440.858 266.568 440.453 266.957 440.453 267.487C440.453 268.017 440.858 268.407 441.434 268.407C441.995 268.407 442.401 268.017 442.401 267.487ZM442.182 277.321V269.918H440.686V277.321H442.182Z" fill="#3D7FFC"/>
<path d="M451.444 267.487C451.444 266.957 451.039 266.568 450.462 266.568C449.901 266.568 449.496 266.957 449.496 267.487C449.496 268.017 449.901 268.407 450.462 268.407C451.039 268.407 451.444 268.017 451.444 267.487ZM451.21 277.321V269.918H449.73V277.321H451.21ZM448.92 267.674L449.029 266.568C449.029 266.568 448.483 266.396 447.86 266.396C446.878 266.396 446.38 266.802 446.021 267.207C445.663 267.612 445.522 268.22 445.522 269.186V269.934H444.463V271.134H445.522V277.321H447.003V271.134H448.764V269.934H447.003V269.482C447.003 268.609 446.972 267.534 448.14 267.534C448.421 267.534 448.686 267.581 448.92 267.674Z" fill="#3D7FFC"/>
<path d="M461.037 273.316C461.037 271.243 459.587 269.778 457.53 269.778C455.473 269.778 453.774 271.274 453.774 273.612C453.774 275.965 455.286 277.492 457.483 277.492C459.696 277.492 460.647 276.401 460.74 276.323L460.117 275.466C459.946 275.575 459.057 276.323 457.67 276.323C456.299 276.323 455.364 275.435 455.286 273.97H460.99C460.99 273.97 461.037 273.596 461.037 273.316ZM459.618 272.973H455.302C455.348 272.084 456.003 270.853 457.483 270.853C458.979 270.853 459.603 272.147 459.618 272.973Z" fill="#3D7FFC"/>
<path d="M470.701 277.321V266.568H469.221V271.072H469.19C468.675 270.308 467.803 269.778 466.603 269.778C464.437 269.778 463.034 271.43 463.034 273.612C463.034 275.809 464.437 277.492 466.634 277.492C467.709 277.492 468.629 277.04 469.236 276.136H469.268V277.321H470.701ZM469.268 273.596C469.268 275.077 468.395 276.214 466.914 276.214C465.434 276.214 464.561 275.077 464.561 273.596C464.561 272.116 465.434 270.994 466.914 270.994C468.395 270.994 469.268 272.116 469.268 273.596Z" fill="#3D7FFC"/>
<path d="M406.436 192.419V191.302H401.525L403.995 188.944C404.595 188.386 406.032 187.186 406.032 185.484C406.032 183.782 404.734 182.652 402.809 182.652C400.897 182.652 399.92 183.921 399.655 184.507L400.367 185.303C400.758 184.661 401.511 183.754 402.725 183.754C403.953 183.754 404.706 184.535 404.706 185.624C404.706 186.698 403.883 187.577 403.143 188.289L399.739 191.512L399.934 192.419H406.436Z" fill="white"/>
<path d="M415.29 183.573L414.927 182.791H408.369V183.88H413.783L409.235 192.419H410.658L415.29 183.573Z" fill="white"/>
<path d="M424.044 187.619C424.044 185.107 422.956 182.652 420.361 182.652C417.779 182.652 416.677 185.107 416.677 187.619C416.677 190.116 417.765 192.572 420.361 192.572C422.956 192.572 424.044 190.116 424.044 187.619ZM422.677 187.591C422.677 189.782 421.909 191.386 420.361 191.386C418.812 191.386 418.044 189.782 418.044 187.591C418.044 185.386 418.812 183.796 420.361 183.796C421.909 183.796 422.677 185.386 422.677 187.591Z" fill="white"/>
<path d="M433.057 187.619C433.057 185.107 431.968 182.652 429.373 182.652C426.792 182.652 425.69 185.107 425.69 187.619C425.69 190.116 426.778 192.572 429.373 192.572C431.968 192.572 433.057 190.116 433.057 187.619ZM431.689 187.591C431.689 189.782 430.922 191.386 429.373 191.386C427.824 191.386 427.057 189.782 427.057 187.591C427.057 185.386 427.824 183.796 429.373 183.796C430.922 183.796 431.689 185.386 431.689 187.591Z" fill="white"/>
<path d="M438.358 192.419V182.791H435.163V183.782H437.046V192.419H438.358Z" fill="white"/>
<path d="M444.24 186.558C444.24 186.028 443.849 185.679 443.319 185.679C442.775 185.679 442.384 186.028 442.384 186.558C442.384 187.089 442.775 187.437 443.319 187.437C443.849 187.437 444.24 187.089 444.24 186.558ZM444.24 191.693C444.24 191.149 443.849 190.814 443.319 190.814C442.775 190.814 442.384 191.149 442.384 191.693C442.384 192.223 442.775 192.558 443.319 192.558C443.849 192.558 444.24 192.223 444.24 191.693Z" fill="white"/>
<path d="M453.808 192.419V191.302H448.897L451.366 188.944C451.966 188.386 453.404 187.186 453.404 185.484C453.404 183.782 452.106 182.652 450.18 182.652C448.269 182.652 447.292 183.921 447.027 184.507L447.739 185.303C448.129 184.661 448.883 183.754 450.097 183.754C451.325 183.754 452.078 184.535 452.078 185.624C452.078 186.698 451.255 187.577 450.515 188.289L447.111 191.512L447.306 192.419H453.808Z" fill="white"/>
<path d="M463.03 187.619C463.03 185.107 461.942 182.652 459.347 182.652C456.765 182.652 455.663 185.107 455.663 187.619C455.663 190.116 456.751 192.572 459.347 192.572C461.942 192.572 463.03 190.116 463.03 187.619ZM461.663 187.591C461.663 189.782 460.895 191.386 459.347 191.386C457.798 191.386 457.03 189.782 457.03 187.591C457.03 185.386 457.798 183.796 459.347 183.796C460.895 183.796 461.663 185.386 461.663 187.591Z" fill="white"/>
<path d="M468.331 192.419V182.791H465.136V183.782H467.02V192.419H468.331Z" fill="white"/>
<path d="M478.511 189.726C478.511 188.233 477.408 187.507 476.655 187.368V187.326C477.255 187.131 478.218 186.572 478.218 185.149C478.218 183.573 476.78 182.652 475.204 182.652C473.627 182.652 472.79 183.321 472.162 184.019L472.79 184.828C473.432 184.2 474.115 183.726 475.092 183.726C476.069 183.726 476.906 184.27 476.906 185.289C476.906 186.293 476.194 186.851 475.176 186.851H474.464V187.926H475.176C476.278 187.926 477.171 188.512 477.171 189.67C477.171 190.828 476.264 191.456 475.008 191.456C473.753 191.456 472.818 190.298 472.664 190.102L471.911 190.926C472.05 191.107 473.097 192.558 475.036 192.558C476.99 192.558 478.511 191.484 478.511 189.726Z" fill="white"/>
<path d="M425.797 252.485L423.185 252.087L422.017 249.608C421.985 249.54 421.933 249.485 421.868 249.452C421.706 249.368 421.508 249.438 421.427 249.608L420.259 252.087L417.647 252.485C417.575 252.495 417.509 252.531 417.459 252.585C417.398 252.65 417.364 252.739 417.365 252.83C417.367 252.922 417.402 253.009 417.465 253.072L419.355 255.002L418.909 257.727C418.898 257.79 418.904 257.855 418.928 257.915C418.951 257.974 418.989 258.026 419.039 258.064C419.089 258.101 419.148 258.124 419.209 258.128C419.27 258.133 419.332 258.12 419.386 258.09L421.722 256.803L424.058 258.09C424.122 258.125 424.196 258.137 424.267 258.124C424.446 258.092 424.566 257.914 424.535 257.727L424.089 255.002L425.979 253.072C426.03 253.02 426.064 252.951 426.074 252.876C426.102 252.687 425.977 252.513 425.797 252.485Z" fill="#FECE4D"/>
<path d="M444.988 252.553L442.377 252.155L441.209 249.676C441.177 249.608 441.124 249.553 441.06 249.52C440.897 249.436 440.7 249.506 440.619 249.676L439.451 252.155L436.839 252.553C436.767 252.563 436.701 252.599 436.651 252.653C436.59 252.718 436.556 252.807 436.557 252.898C436.559 252.99 436.594 253.077 436.657 253.141L438.547 255.07L438.1 257.795C438.09 257.858 438.096 257.923 438.12 257.983C438.143 258.043 438.181 258.094 438.231 258.132C438.281 258.17 438.34 258.192 438.401 258.196C438.462 258.201 438.523 258.188 438.578 258.158L440.914 256.872L443.25 258.158C443.314 258.193 443.388 258.205 443.459 258.192C443.638 258.16 443.758 257.982 443.727 257.795L443.281 255.07L445.171 253.141C445.222 253.088 445.256 253.019 445.266 252.944C445.294 252.755 445.169 252.581 444.988 252.553Z" fill="#FECE4D"/>
<path d="M461.662 252.485L459.051 252.087L457.883 249.608C457.851 249.54 457.798 249.485 457.734 249.452C457.571 249.368 457.374 249.438 457.293 249.608L456.125 252.087L453.513 252.485C453.441 252.495 453.375 252.531 453.324 252.585C453.263 252.65 453.23 252.739 453.231 252.83C453.233 252.922 453.268 253.009 453.331 253.072L455.221 255.002L454.774 257.727C454.764 257.79 454.77 257.855 454.794 257.915C454.816 257.974 454.855 258.026 454.905 258.064C454.955 258.101 455.013 258.124 455.074 258.128C455.136 258.133 455.197 258.12 455.252 258.09L457.588 256.803L459.924 258.09C459.988 258.125 460.062 258.137 460.133 258.124C460.311 258.092 460.432 257.914 460.401 257.727L459.955 255.002L461.845 253.072C461.896 253.02 461.93 252.951 461.94 252.876C461.968 252.687 461.843 252.513 461.662 252.485Z" fill="#FECE4D"/>
</g>
<g filter="url(#filter1_d_13409_3146)">
<path d="M145.781 128.181L227.562 144.688L227.698 230.366C227.834 286.85 191.987 316.042 146.054 332.824C100.123 316.316 64.2723 287.12 64.1362 230.64L64 144.962L145.781 128.181Z" fill="#EDF1F6"/>
<path d="M225.562 148.592L225.558 146.376L223.385 145.941L146.465 130.521L145.928 130.414L145.391 130.523L68.4692 146.221L66.2984 146.664L66.3021 148.879L66.4383 230.645L66.4383 230.649C66.5079 254.238 72.9724 274.335 86.1694 290.981C99.3373 307.591 119.046 320.562 145.268 330.231L146.21 330.578L147.15 330.228C173.304 320.489 192.977 307.448 206.108 290.787C219.268 274.088 225.698 253.956 225.698 230.363L225.698 230.358L225.562 148.592Z" fill="url(#paint3_linear_13409_3146)" stroke="url(#paint4_linear_13409_3146)" stroke-width="5.41722"/>
<path d="M123.927 263.687L122.141 259.521C120.885 260.811 118.835 261.935 115.991 261.935C112.255 261.935 109.146 259.389 109.146 254.925C109.146 250.461 112.122 247.882 115.991 247.882C119 247.882 121.447 249.701 121.877 250.263L123.53 245.832C122.935 245.204 120.389 243.253 115.693 243.253C109.047 243.253 103.724 247.651 103.724 255.024C103.724 262.365 108.981 266.795 115.693 266.795C120.356 266.795 122.769 264.878 123.927 263.687Z" fill="white"/>
<path d="M145.753 263.687L143.968 259.521C142.711 260.811 140.661 261.935 137.818 261.935C134.081 261.935 130.973 259.389 130.973 254.925C130.973 250.461 133.949 247.882 137.818 247.882C140.827 247.882 143.274 249.701 143.703 250.263L145.357 245.832C144.761 245.204 142.215 243.253 137.52 243.253C130.874 243.253 125.551 247.651 125.551 255.024C125.551 262.365 130.808 266.795 137.52 266.795C142.182 266.795 144.596 264.878 145.753 263.687Z" fill="white"/>
<path d="M166.035 250.759C166.035 248.312 165.176 246.56 163.655 245.303C162.134 244.047 160.05 243.584 157.703 243.584H149.536V266.399H154.892V257.967H157.703C160.05 257.967 162.134 257.504 163.655 256.248C165.176 254.958 166.035 253.206 166.035 250.759ZM160.613 250.759C160.613 251.916 160.15 252.743 159.521 253.206C158.86 253.669 158.1 253.834 156.942 253.834H154.859V247.717H156.942C158.1 247.717 158.86 247.882 159.521 248.345C160.15 248.808 160.613 249.602 160.613 250.759Z" fill="white"/>
<path d="M189.507 266.399L180.91 243.551H175.355L166.758 266.399H172.313L173.933 261.803H182.067L183.687 266.399H189.507ZM180.844 257.636H175.156L178 249.436L180.844 257.636Z" fill="white"/>
<path d="M110.928 284.029L110.206 282.808C109.432 283.651 108.228 284.253 106.664 284.253C104.119 284.253 102.245 282.413 102.245 279.627C102.245 276.842 104.102 275.002 106.664 275.002C108.314 275.002 109.638 275.862 110.102 276.447L110.807 275.105C110.154 274.469 108.813 273.541 106.595 273.541C103.19 273.541 100.525 275.965 100.525 279.662C100.525 283.358 103.122 285.783 106.578 285.783C108.83 285.783 110.188 284.854 110.928 284.029Z" fill="white"/>
<path d="M123.682 279.662C123.682 275.862 120.896 273.541 117.56 273.541C114.225 273.541 111.439 275.862 111.439 279.662C111.439 283.462 114.225 285.783 117.56 285.783C120.896 285.783 123.682 283.462 123.682 279.662ZM121.979 279.627C121.979 282.516 119.985 284.27 117.56 284.27C115.153 284.27 113.142 282.516 113.142 279.627C113.142 276.722 115.136 274.985 117.56 274.985C119.985 274.985 121.979 276.722 121.979 279.627Z" fill="white"/>
<path d="M138.23 285.576L137.147 273.713H135.101L131.679 282.877H131.645L128.223 273.713H126.16L125.094 285.576H126.744L127.501 276.206H127.552L131.18 285.68H132.126L135.754 276.206H135.805L136.579 285.576H138.23Z" fill="white"/>
<path d="M147.661 277.1C147.661 275.965 147.248 275.191 146.509 274.555C145.787 273.936 144.79 273.713 143.638 273.713H140.302V285.576H141.97V280.487H143.638C145.804 280.487 147.661 279.49 147.661 277.1ZM145.942 277.1C145.942 278.596 144.824 279.129 143.5 279.129H141.97V275.071H143.5C144.824 275.071 145.942 275.621 145.942 277.1Z" fill="white"/>
<path d="M155.282 285.576V284.167H151.104V273.713H149.436V285.576H155.282Z" fill="white"/>
<path d="M158.425 285.576V273.713H156.757V285.576H158.425Z" fill="white"/>
<path d="M170.891 285.576L166.042 273.678H164.581L159.749 285.576H161.503L162.724 282.482H167.813L169.034 285.576H170.891ZM167.349 281.089H163.188L165.268 275.759L167.349 281.089Z" fill="white"/>
<path d="M182.331 285.576V273.713H180.698V280.006C180.698 281.57 180.715 283.032 180.715 283.032L173.992 273.713H172.238V285.576H173.889V279.266C173.889 277.719 173.854 276.12 173.854 276.12L180.698 285.576H182.331Z" fill="white"/>
<path d="M192.136 275.105V273.713H183.779V275.105H187.132V285.576H188.8V275.105H192.136Z" fill="white"/>
<path d="M125.042 164.572C128.615 164.895 132.576 165.266 136.544 165.588C137.762 165.683 138.984 165.7 140.203 165.639C141.387 165.583 141.945 165.921 141.837 167.237C141.382 172.751 141.501 178.302 140.812 183.801C140.704 184.616 141.207 185.004 141.687 185.465C148.777 192.275 155.866 199.088 162.954 205.902C164.435 207.324 165.918 208.746 167.432 210.133C168.661 211.259 168.949 212.933 169.89 214.219C170.127 214.653 170.4 215.066 170.707 215.454C171.479 216.185 171.33 216.731 170.587 217.374C170.239 217.61 169.973 217.947 169.825 218.341C169.678 218.734 169.656 219.163 169.762 219.57C169.819 219.929 169.792 220.297 169.682 220.643C169.573 220.99 169.384 221.306 169.132 221.568C168.756 222.054 168.571 222.661 168.611 223.275C168.652 223.889 168.916 224.466 169.353 224.898C170.169 225.961 169.946 226.476 168.556 226.668C166.82 226.996 165.066 227.215 163.303 227.325C161.424 227.414 159.554 227.637 157.707 227.991C156.034 228.251 155.124 227.561 155.029 225.895C154.843 222.652 152.362 221.445 150.053 220.062C149.824 219.925 149.336 219.94 149.3 219.801C148.845 217.957 147.412 218.094 146.001 218.022C145.502 217.937 145.054 217.662 144.752 217.256C143.311 215.36 141.21 215.175 139.122 215.054C137.734 214.975 137.095 214.549 137.292 213.025C137.564 210.895 136.363 209.249 135.055 207.796C133.521 206.093 132.719 203.925 131.232 202.206C130.657 201.541 131.058 200.773 131.492 200.214C132.232 199.261 131.885 198.642 130.967 198.276C129.164 197.564 128.822 196.096 128.707 194.412C128.647 193.55 128.892 193.478 129.497 193.959C129.768 194.174 130.035 194.451 130.342 194.129C130.648 193.807 130.298 193.5 130.166 193.234C129.971 192.844 129.717 192.238 129.413 192.189C127.289 191.852 126.496 190.385 125.933 188.556C125.752 187.969 125.119 187.526 124.719 186.999C123.755 186.025 123.144 184.757 122.984 183.395C122.769 180.658 123.227 177.443 120.616 175.27C120.06 174.806 120.329 174.093 120.714 173.596C121.171 173.072 121.514 172.458 121.722 171.794C121.931 171.13 121.999 170.43 121.923 169.739C121.881 169.464 121.94 169.183 122.09 168.949C122.298 168.744 122.461 168.499 122.57 168.228C122.679 167.957 122.731 167.666 122.723 167.374C122.714 167.083 122.646 166.795 122.522 166.531C122.398 166.267 122.221 166.031 122.001 165.838C121.356 165.101 121.725 164.617 122.647 164.575C123.313 164.542 123.981 164.572 125.042 164.572Z" fill="#FECE4D"/>
<path d="M168.422 199.946H167.564H147.735H146.878V199.089V185.209V184.351H147.735H148.861V181.739C148.861 176.893 152.804 172.95 157.651 172.95C162.497 172.95 166.439 176.893 166.439 181.739V184.351H167.564H168.422V185.209V199.089V199.946ZM153.055 184.351H162.245V181.739C162.245 179.205 160.184 177.143 157.651 177.143C155.117 177.143 153.055 179.205 153.055 181.739V184.351Z" fill="#3D7FFC"/>
<path d="M167.568 199.089V185.209H165.585V181.739C165.585 177.365 162.027 173.807 157.654 173.807C153.28 173.807 149.722 177.365 149.722 181.739V185.209H147.739V199.089H167.568ZM157.654 176.286C160.66 176.286 163.106 178.732 163.106 181.739V185.209H152.201V181.739C152.201 178.732 154.647 176.286 157.654 176.286ZM169.283 200.804H146.024V183.494H148.007V181.739C148.007 176.42 152.335 172.092 157.654 172.092C162.973 172.092 167.3 176.42 167.3 181.739V183.494H169.283V200.804ZM153.916 183.494H161.391V181.739C161.391 179.678 159.715 178.001 157.654 178.001C155.593 178.001 153.916 179.678 153.916 181.739V183.494Z" fill="#093A81"/>
</g>
<g filter="url(#filter2_d_13409_3146)">
<path d="M293.092 96L394.352 116.439L394.521 222.525C394.69 292.463 350.304 328.609 293.43 349.389C236.559 328.947 192.168 292.798 192 222.863L191.831 116.777L293.092 96Z" fill="#EDF1F6"/>
<path d="M391.771 121.273L391.767 118.614L389.16 118.092L293.918 98.9993L293.273 98.8701L292.629 99.0015L197.384 118.438L194.78 118.97L194.784 121.628L194.953 222.871L194.953 222.875C195.039 252.062 203.037 276.923 219.361 297.514C235.65 318.061 260.035 334.113 292.492 346.08L293.622 346.497L294.75 346.076C327.122 334.022 351.462 317.885 367.706 297.273C383.984 276.618 391.94 251.714 391.94 222.521V222.516L391.771 121.273Z" fill="url(#paint5_linear_13409_3146)" stroke="url(#paint6_linear_13409_3146)" stroke-width="6.5"/>
<path d="M265.65 262.748V251.039H253.245V256.075H259.181V260.251C259.181 260.251 257.871 262.052 253.286 262.052C248.7 262.052 245.097 258.736 245.097 253.004C245.097 247.272 248.618 243.956 253.163 243.956C257.011 243.956 259.222 245.88 260.409 247.19L264.79 243.383C263.889 242.4 260.655 238.47 253.163 238.47C245.261 238.47 238.383 243.588 238.383 253.004C238.383 262.42 245.261 267.579 253.081 267.579C260.86 267.579 264.217 264.017 265.65 262.748Z" fill="white"/>
<path d="M296.576 253.004C296.576 247.518 294.365 244.243 291.99 242.277C289.657 240.271 286.013 238.879 281.1 238.879H271.52V267.129H281.1C286.013 267.129 289.657 265.737 291.99 263.772C294.365 261.765 296.576 258.49 296.576 253.004ZM289.861 253.004C289.861 256.484 288.551 258.367 287.364 259.473C286.177 260.619 284.212 261.52 281.469 261.52H278.111V244.365H281.469C284.212 244.365 286.177 245.266 287.364 246.372C288.551 247.518 289.861 249.524 289.861 253.004Z" fill="white"/>
<path d="M322.374 247.764C322.374 244.734 321.309 242.564 319.426 241.008C317.543 239.452 314.964 238.879 312.057 238.879H301.944V267.129H308.577V256.689H312.057C314.964 256.689 317.543 256.116 319.426 254.56C321.309 252.963 322.374 250.793 322.374 247.764ZM315.66 247.764C315.66 249.196 315.086 250.22 314.308 250.793C313.49 251.366 312.548 251.571 311.115 251.571H308.536V243.997H311.115C312.548 243.997 313.49 244.202 314.308 244.775C315.086 245.348 315.66 246.331 315.66 247.764Z" fill="white"/>
<path d="M349.605 267.129L342.44 255.46C344.528 254.805 347.967 252.717 347.967 247.354C347.967 244.529 346.739 242.277 344.856 240.885C343.013 239.534 340.557 238.879 337.404 238.879H327.251V267.129H333.883V256.32H335.971L341.908 267.129H349.605ZM341.294 247.6C341.294 249.074 340.721 249.852 339.861 250.466C339.042 251.08 337.978 251.244 336.463 251.244H333.843V243.997H336.463C337.978 243.997 339.042 244.12 339.861 244.734C340.721 245.348 341.294 246.167 341.294 247.6Z" fill="white"/>
<path d="M249.702 288.959L248.808 287.447C247.85 288.49 246.359 289.235 244.422 289.235C241.271 289.235 238.951 286.957 238.951 283.508C238.951 280.06 241.25 277.782 244.422 277.782C246.466 277.782 248.105 278.846 248.68 279.57L249.553 277.909C248.744 277.122 247.083 275.972 244.337 275.972C240.122 275.972 236.822 278.974 236.822 283.551C236.822 288.128 240.036 291.13 244.316 291.13C247.105 291.13 248.786 289.98 249.702 288.959Z" fill="white"/>
<path d="M265.494 283.551C265.494 278.846 262.045 275.972 257.915 275.972C253.784 275.972 250.336 278.846 250.336 283.551C250.336 288.256 253.784 291.13 257.915 291.13C262.045 291.13 265.494 288.256 265.494 283.551ZM263.386 283.508C263.386 287.085 260.916 289.257 257.915 289.257C254.934 289.257 252.443 287.085 252.443 283.508C252.443 279.911 254.913 277.76 257.915 277.76C260.916 277.76 263.386 279.911 263.386 283.508Z" fill="white"/>
<path d="M283.507 290.875L282.166 276.185H279.633L275.396 287.532H275.353L271.117 276.185H268.562L267.242 290.875H269.286L270.223 279.272H270.287L274.779 291.002H275.95L280.442 279.272H280.505L281.464 290.875H283.507Z" fill="white"/>
<path d="M295.185 280.379C295.185 278.974 294.674 278.016 293.758 277.228C292.864 276.462 291.63 276.185 290.203 276.185H286.073V290.875H288.138V284.573H290.203C292.886 284.573 295.185 283.338 295.185 280.379ZM293.056 280.379C293.056 282.231 291.672 282.891 290.033 282.891H288.138V277.867H290.033C291.672 277.867 293.056 278.548 293.056 280.379Z" fill="white"/>
<path d="M304.621 290.875V289.129H299.448V276.185H297.383V290.875H304.621Z" fill="white"/>
<path d="M308.513 290.875V276.185H306.448V290.875H308.513Z" fill="white"/>
<path d="M323.948 290.875L317.944 276.142H316.135L310.152 290.875H312.324L313.836 287.042H320.137L321.649 290.875H323.948ZM319.562 285.318H314.41L316.986 278.718L319.562 285.318Z" fill="white"/>
<path d="M338.113 290.875V276.185H336.091V283.977C336.091 285.914 336.112 287.724 336.112 287.724L327.788 276.185H325.616V290.875H327.66V283.061C327.66 281.145 327.618 279.165 327.618 279.165L336.091 290.875H338.113Z" fill="white"/>
<path d="M350.253 277.909V276.185H339.907V277.909H344.058V290.875H346.123V277.909H350.253Z" fill="white"/>
<path d="M293.154 134.492L294.586 139.128H299.222L295.471 141.994L296.903 146.63L293.152 143.764L289.402 146.63L290.835 141.994L287.084 139.128H291.721L293.154 134.492Z" fill="#FECE4D"/>
<path d="M293.154 210.787L294.586 215.425H299.222L295.471 218.291L296.903 222.926L293.152 220.06L289.402 222.926L290.835 218.291L287.084 215.425H291.721L293.154 210.787Z" fill="#FECE4D"/>
<path d="M312.211 141.427L313.643 146.064H318.28L314.529 148.93L315.962 153.565L312.212 150.699L308.461 153.565L309.892 148.93L306.142 146.064H310.779L312.211 141.427Z" fill="#FECE4D"/>
<path d="M327.633 191.338L329.064 195.976H333.7L329.949 198.842L331.383 203.477L327.632 200.611L323.881 203.477L325.314 198.842L321.563 195.976H326.2L327.633 191.338Z" fill="#FECE4D"/>
<path d="M331.269 172.642L332.701 177.278H337.338L333.587 180.144L335.02 184.781L331.27 181.915L327.519 184.781L328.952 180.143L325.2 177.278H329.836L331.269 172.642Z" fill="#FECE4D"/>
<path d="M254.985 172.642L256.417 177.278H261.053L257.302 180.144L258.736 184.781L254.986 181.915L251.234 184.781L252.667 180.144L248.915 177.278H253.552L254.985 172.642Z" fill="#FECE4D"/>
<path d="M258.12 191.338L259.552 195.976H264.188L260.438 198.842L261.869 203.477L258.12 200.611L254.369 203.477L255.802 198.842L252.05 195.976H256.687L258.12 191.338Z" fill="#FECE4D"/>
<path d="M327.633 153.441L329.064 158.079H333.7L329.949 160.944L331.383 165.579L327.632 162.713L323.881 165.579L325.314 160.944L321.563 158.079H326.2L327.633 153.441Z" fill="#FECE4D"/>
<path d="M259.748 153.441L261.18 158.079H265.816L262.066 160.944L263.498 165.579L259.748 162.713L255.997 165.579L257.43 160.944L253.678 158.079H258.315L259.748 153.441Z" fill="#FECE4D"/>
<path d="M315.662 207.318L317.094 211.953H321.731L317.979 214.819L319.413 219.455L315.663 216.589L311.911 219.455L313.344 214.82L309.593 211.953H314.23L315.662 207.318Z" fill="#FECE4D"/>
<path d="M274.042 141.427L275.473 146.064H280.11L276.359 148.93L277.793 153.565L274.042 150.699L270.292 153.565L271.725 148.93L267.973 146.064H272.609L274.042 141.427Z" fill="#FECE4D"/>
<path d="M270.591 207.318L272.024 211.956H276.661L272.91 214.822L274.343 219.458L270.592 216.592L266.842 219.458L268.275 214.822L264.523 211.956H269.158L270.591 207.318Z" fill="#FECE4D"/>
<path d="M305.453 177.477H280.888V194.672H305.453V177.477Z" fill="#3D7FFC"/>
<path d="M286.404 181.773H283.333V173.175C283.333 171.232 283.909 169.332 284.989 167.717C286.069 166.101 287.603 164.842 289.399 164.098C291.194 163.354 293.17 163.16 295.076 163.539C296.982 163.918 298.732 164.854 300.107 166.228C301.022 167.138 301.748 168.221 302.242 169.413C302.736 170.606 302.988 171.885 302.985 173.175V181.773H299.914V173.175C299.914 171.384 299.202 169.666 297.936 168.399C296.669 167.132 294.95 166.42 293.159 166.42C291.367 166.42 289.649 167.132 288.382 168.399C287.115 169.666 286.404 171.384 286.404 173.175V181.773Z" fill="#3D7FFC"/>
</g>
<defs>
<filter id="filter0_d_13409_3146" x="344.2" y="122.496" width="194.466" height="235.464" filterUnits="userSpaceOnUse" color-interpolation-filters="sRGB">
<feFlood flood-opacity="0" result="BackgroundImageFix"/>
<feColorMatrix in="SourceAlpha" type="matrix" values="0 0 0 0 0 0 0 0 0 0 0 0 0 0 0 0 0 0 127 0" result="hardAlpha"/>
<feOffset dy="9.66432"/>
<feGaussianBlur stdDeviation="7.40931"/>
<feColorMatrix type="matrix" values="0 0 0 0 0 0 0 0 0 0 0 0 0 0 0 0 0 0 0.38 0"/>
<feBlend mode="normal" in2="BackgroundImageFix" result="effect1_dropShadow_13409_3146"/>
<feBlend mode="normal" in="SourceGraphic" in2="effect1_dropShadow_13409_3146" result="shape"/>
</filter>
<filter id="filter1_d_13409_3146" x="48.7673" y="122.496" width="194.458" height="235.454" filterUnits="userSpaceOnUse" color-interpolation-filters="sRGB">
<feFlood flood-opacity="0" result="BackgroundImageFix"/>
<feColorMatrix in="SourceAlpha" type="matrix" values="0 0 0 0 0 0 0 0 0 0 0 0 0 0 0 0 0 0 127 0" result="hardAlpha"/>
<feOffset dy="9.66432"/>
<feGaussianBlur stdDeviation="7.40931"/>
<feColorMatrix type="matrix" values="0 0 0 0 0 0 0 0 0 0 0 0 0 0 0 0 0 0 0.38 0"/>
<feBlend mode="normal" in2="BackgroundImageFix" result="effect1_dropShadow_13409_3146"/>
<feBlend mode="normal" in="SourceGraphic" in2="effect1_dropShadow_13409_3146" result="shape"/>
</filter>
<filter id="filter2_d_13409_3146" x="176.707" y="90.4" width="233.302" height="284.045" filterUnits="userSpaceOnUse" color-interpolation-filters="sRGB">
<feFlood flood-opacity="0" result="BackgroundImageFix"/>
<feColorMatrix in="SourceAlpha" type="matrix" values="0 0 0 0 0 0 0 0 0 0 0 0 0 0 0 0 0 0 127 0" result="hardAlpha"/>
<feOffset dy="9.66432"/>
<feGaussianBlur stdDeviation="7.40931"/>
<feColorMatrix type="matrix" values="0 0 0 0 0 0 0 0 0 0 0 0 0 0 0 0 0 0 0.38 0"/>
<feBlend mode="normal" in2="BackgroundImageFix" result="effect1_dropShadow_13409_3146"/>
<feBlend mode="normal" in="SourceGraphic" in2="effect1_dropShadow_13409_3146" result="shape"/>
</filter>
<radialGradient id="paint0_radial_13409_3146" cx="0" cy="0" r="1" gradientUnits="userSpaceOnUse" gradientTransform="translate(294.215 223) rotate(88.525) scale(282.282 291.452)">
<stop/>
<stop offset="0.442708"/>
<stop offset="0.848958" stop-opacity="0.03"/>
<stop offset="0.911458" stop-opacity="0.03"/>
</radialGradient>
<linearGradient id="paint1_linear_13409_3146" x1="546.317" y1="65.2331" x2="361.434" y2="350.907" gradientUnits="userSpaceOnUse">
<stop stop-color="#0A479C"/>
<stop offset="1" stop-color="#092A5F"/>
</linearGradient>
<linearGradient id="paint2_linear_13409_3146" x1="381.637" y1="317.114" x2="562.574" y2="209.69" gradientUnits="userSpaceOnUse">
<stop stop-color="#1B4582"/>
<stop offset="1" stop-color="#3160A6"/>
</linearGradient>
<linearGradient id="paint3_linear_13409_3146" x1="250.874" y1="65.2361" x2="66.0014" y2="350.895" gradientUnits="userSpaceOnUse">
<stop stop-color="#0A479C"/>
<stop offset="1" stop-color="#092A5F"/>
</linearGradient>
<linearGradient id="paint4_linear_13409_3146" x1="86.2032" y1="317.104" x2="267.131" y2="209.685" gradientUnits="userSpaceOnUse">
<stop stop-color="#1B4582"/>
<stop offset="1" stop-color="#3160A6"/>
</linearGradient>
<linearGradient id="paint5_linear_13409_3146" x1="423.217" y1="18.0616" x2="194.308" y2="371.763" gradientUnits="userSpaceOnUse">
<stop stop-color="#0A479C"/>
<stop offset="1" stop-color="#092A5F"/>
</linearGradient>
<linearGradient id="paint6_linear_13409_3146" x1="219.322" y1="329.923" x2="443.346" y2="196.918" gradientUnits="userSpaceOnUse">
<stop stop-color="#1B4582"/>
<stop offset="1" stop-color="#3160A6"/>
</linearGradient>
</defs>
</svg>
