<svg width="80" height="63" viewBox="0 0 80 63" fill="none" xmlns="http://www.w3.org/2000/svg">
<g id="use case">
<g id="use case img">
<ellipse id="Ellipse 2389" opacity="0.15" cx="39.5" cy="31.3877" rx="24.5" ry="24.5" fill="#E6EEFF"/>
<g id="Group 112793">
<g id="Group">
<path id="Vector" d="M48.7871 26.5771H12.9225C11.563 26.5771 10.4609 27.6792 10.4609 29.0387V47.5002C10.4609 48.8597 11.563 49.9618 12.9225 49.9618H48.7871C50.1466 49.9618 51.2486 48.8597 51.2486 47.5002V29.0387C51.2486 27.6792 50.1466 26.5771 48.7871 26.5771Z" fill="white"/>
<path id="Vector_2" d="M36.7996 29.3711H36.0919C35.7521 29.3711 35.4766 29.6466 35.4766 29.9865V30.5219C35.4766 30.8617 35.7521 31.1372 36.0919 31.1372H36.7996C37.1395 31.1372 37.415 30.8617 37.415 30.5219V29.9865C37.415 29.6466 37.1395 29.3711 36.7996 29.3711Z" fill="#E7EEFF"/>
<path id="Vector_3" d="M38.2345 29.2969H41.9145C42.0745 29.2969 42.2038 29.4261 42.2038 29.5861C42.2038 29.7461 42.0745 29.8753 41.9145 29.8753H38.2345C38.0745 29.8753 37.9453 29.7461 37.9453 29.5861C37.9453 29.4261 38.0745 29.2969 38.2345 29.2969Z" fill="#E7EEFF"/>
<path id="Vector_4" d="M38.2345 30.46H47.1515C47.3115 30.46 47.4407 30.5892 47.4407 30.7492C47.4407 30.9092 47.3115 31.0384 47.1515 31.0384H38.2345C38.0745 31.0384 37.9453 30.9092 37.9453 30.7492C37.9453 30.5892 38.0745 30.46 38.2345 30.46Z" fill="#E7EEFF"/>
<path id="Vector_5" d="M36.7996 34.6016H36.0919C35.7521 34.6016 35.4766 34.8771 35.4766 35.2169V35.7523C35.4766 36.0922 35.7521 36.3677 36.0919 36.3677H36.7996C37.1395 36.3677 37.415 36.0922 37.415 35.7523V35.2169C37.415 34.8771 37.1395 34.6016 36.7996 34.6016Z" fill="#9D97F4"/>
<path id="Vector_6" d="M38.2345 34.5273H41.9145C42.0745 34.5273 42.2038 34.6566 42.2038 34.8166C42.2038 34.9766 42.0745 35.1058 41.9145 35.1058H38.2345C38.0745 35.1058 37.9453 34.9766 37.9453 34.8166C37.9453 34.6566 38.0745 34.5273 38.2345 34.5273Z" fill="#E7EEFF"/>
<path id="Vector_7" d="M38.2345 35.6904H47.1515C47.3115 35.6904 47.4407 35.8197 47.4407 35.9797C47.4407 36.1397 47.3115 36.2689 47.1515 36.2689H38.2345C38.0745 36.2689 37.9453 36.1397 37.9453 35.9797C37.9453 35.8197 38.0745 35.6904 38.2345 35.6904Z" fill="#E7EEFF"/>
<path id="Vector_8" d="M36.7996 39.8379H36.0919C35.7521 39.8379 35.4766 40.1134 35.4766 40.4533V40.9887C35.4766 41.3285 35.7521 41.604 36.0919 41.604H36.7996C37.1395 41.604 37.415 41.3285 37.415 40.9887V40.4533C37.415 40.1134 37.1395 39.8379 36.7996 39.8379Z" fill="#76A5FF"/>
<path id="Vector_9" d="M38.2345 39.7646H41.9145C42.0745 39.7646 42.2038 39.8939 42.2038 40.0539C42.2038 40.2139 42.0745 40.3431 41.9145 40.3431H38.2345C38.0745 40.3431 37.9453 40.2139 37.9453 40.0539C37.9453 39.8939 38.0745 39.7646 38.2345 39.7646Z" fill="#E7EEFF"/>
<path id="Vector_10" d="M47.1515 40.9277H38.2345C38.0748 40.9277 37.9453 41.0572 37.9453 41.217C37.9453 41.3767 38.0748 41.5062 38.2345 41.5062H47.1515C47.3112 41.5062 47.4407 41.3767 47.4407 41.217C47.4407 41.0572 47.3112 40.9277 47.1515 40.9277Z" fill="#E7EEFF"/>
<path id="Vector_11" d="M36.7996 45.0693H36.0919C35.7521 45.0693 35.4766 45.3449 35.4766 45.6847V46.2201C35.4766 46.56 35.7521 46.8355 36.0919 46.8355H36.7996C37.1395 46.8355 37.415 46.56 37.415 46.2201V45.6847C37.415 45.3449 37.1395 45.0693 36.7996 45.0693Z" fill="#FECE4D"/>
<path id="Vector_12" d="M41.9207 44.9951H38.2345C38.0748 44.9951 37.9453 45.1246 37.9453 45.2843C37.9453 45.4441 38.0748 45.5736 38.2345 45.5736H41.9207C42.0804 45.5736 42.2099 45.4441 42.2099 45.2843C42.2099 45.1246 42.0804 44.9951 41.9207 44.9951Z" fill="#E7EEFF"/>
<path id="Vector_13" d="M47.1515 46.1582H38.2345C38.0748 46.1582 37.9453 46.2877 37.9453 46.4474C37.9453 46.6072 38.0748 46.7367 38.2345 46.7367H47.1515C47.3112 46.7367 47.4407 46.6072 47.4407 46.4474C47.4407 46.2877 47.3112 46.1582 47.1515 46.1582Z" fill="#E7EEFF"/>
</g>
<path id="Vector_14" d="M30.3641 29.2979H16.1118C15.0922 29.2979 14.2656 30.1244 14.2656 31.144V45.3963C14.2656 46.4159 15.0922 47.2425 16.1118 47.2425H30.3641C31.3837 47.2425 32.2102 46.4159 32.2102 45.3963V31.144C32.2102 30.1244 31.3837 29.2979 30.3641 29.2979Z" fill="#F5F8FF"/>
<path id="Vector_15" d="M23.3225 35.4561C23.2795 35.4684 23.2302 35.4684 23.181 35.4561C23.0087 35.4192 22.9041 35.2531 22.941 35.0807L23.6795 31.5423C23.7164 31.37 23.8825 31.2592 24.0487 31.3023C24.221 31.3392 24.3256 31.5054 24.2887 31.6777L23.5502 35.2161C23.5256 35.3392 23.4333 35.4315 23.3164 35.4561H23.3225Z" fill="#091B36"/>
<path id="Vector_16" d="M24.9235 31.6422C25.0527 32.1714 24.7327 32.7007 24.2158 32.836C23.6989 32.9653 23.1696 32.6453 23.0404 32.116C22.9112 31.5868 23.2312 31.0576 23.7481 30.9222C24.265 30.793 24.7942 31.113 24.9235 31.6422Z" fill="#3D7FFC"/>
<path id="Vector_17" d="M25.6108 45.7335C25.4631 45.7704 25.3092 45.6966 25.2477 45.5489L23.9431 42.4228C23.8754 42.2628 23.9492 42.072 24.1092 42.0104C24.2692 41.9428 24.4538 42.0166 24.5154 42.1766L25.82 45.3028C25.8877 45.4628 25.8138 45.6535 25.6538 45.7151C25.6354 45.7212 25.6231 45.7274 25.6046 45.7335H25.6108Z" fill="#091B36"/>
<path id="Vector_18" d="M24.799 45.8982C24.4236 45.5597 24.3805 44.9751 24.7128 44.5936C25.0451 44.212 25.6174 44.169 25.999 44.5074C26.3743 44.8459 26.4113 45.4305 26.0851 45.812C25.7528 46.1936 25.1805 46.2366 24.799 45.8982Z" fill="#3D7FFC"/>
<path id="Vector_19" d="M25.36 37.3711C25.237 37.4019 25.1077 37.3588 25.0339 37.248C24.9354 37.1065 24.9662 36.9096 25.1077 36.8111L28.5662 34.3188C28.7077 34.2142 28.9047 34.2511 29.0031 34.3926C29.1016 34.5342 29.0708 34.7311 28.9293 34.8296L25.4708 37.3219C25.4339 37.3465 25.4031 37.3588 25.3662 37.3711H25.36Z" fill="#091B36"/>
<path id="Vector_20" d="M29.5314 35.3649C29.2237 35.9311 28.5222 36.1403 27.9622 35.8265C27.4022 35.5126 27.1991 34.7988 27.5068 34.2326C27.8145 33.6665 28.516 33.4572 29.076 33.7711C29.636 34.0849 29.8391 34.7988 29.5314 35.3649Z" fill="#3D7FFC"/>
<path id="Vector_21" d="M18.1851 44.3071C18.099 44.3256 18.0005 44.3133 17.9267 44.2517C17.7851 44.1471 17.7605 43.9502 17.8651 43.8087L20.4005 40.3564C20.5051 40.2148 20.6959 40.1902 20.8374 40.2948C20.979 40.3994 21.0036 40.5964 20.899 40.7379L18.3636 44.1902C18.3205 44.2517 18.259 44.2948 18.1851 44.3071Z" fill="#091B36"/>
<path id="Vector_22" d="M17.1135 43.4888C17.2366 42.855 17.8396 42.4365 18.4612 42.5596C19.0889 42.6826 19.495 43.298 19.3781 43.9319C19.255 44.5657 18.6519 44.9842 18.0304 44.8611C17.4027 44.738 16.9966 44.1226 17.1196 43.4888H17.1135Z" fill="#3D7FFC"/>
<path id="Vector_23" d="M19.0524 36.7164C18.9663 36.7348 18.8739 36.7225 18.8001 36.6671L17.0401 35.4179C16.8986 35.3195 16.8616 35.1164 16.9663 34.981C17.0647 34.8395 17.2616 34.8025 17.397 34.901L19.157 36.1502C19.2986 36.2487 19.3355 36.4518 19.2309 36.5871C19.1878 36.6548 19.1201 36.6979 19.0524 36.7164Z" fill="#091B36"/>
<path id="Vector_24" d="M17.459 34.6457C17.779 34.7011 17.9944 35.0026 17.9452 35.3226C17.8959 35.6487 17.5944 35.8641 17.2744 35.8149C16.9544 35.7657 16.739 35.458 16.7883 35.138C16.8375 34.8118 17.139 34.5964 17.459 34.6457Z" fill="#3D7FFC"/>
<path id="Vector_25" d="M29.5315 39.0261C29.5315 39.0261 29.4822 39.0384 29.4576 39.0384H27.3099C27.1376 39.0323 26.9961 38.8846 26.9961 38.7123C26.9961 38.54 27.1376 38.3984 27.3099 38.3984H29.4576C29.6299 38.4046 29.7715 38.5523 29.7715 38.7246C29.7715 38.8723 29.673 38.9954 29.5376 39.0323L29.5315 39.0261Z" fill="#091B36"/>
<path id="Vector_26" d="M29.5513 39.2766C29.2621 39.4182 28.9113 39.2951 28.7698 38.9997C28.6282 38.7043 28.7513 38.3474 29.0405 38.212C29.3298 38.0705 29.6805 38.1935 29.8221 38.4889C29.9574 38.7843 29.8405 39.1412 29.5513 39.2766Z" fill="#3D7FFC"/>
<path id="Vector_27" d="M24.6529 42.9867C27.0406 41.959 28.1544 39.159 27.139 36.7344C26.1236 34.3098 23.3667 33.1837 20.979 34.2114C18.5913 35.239 17.4775 38.039 18.4929 40.4637C19.5083 42.8883 22.2652 44.0144 24.6529 42.9867Z" fill="#3D7FFC"/>
<g id="Group_2" opacity="0.49">
<g id="Group_3" opacity="0.72">
<path id="Vector_28" d="M20.1057 37.7889C20.198 38.1828 19.958 38.5766 19.5641 38.6751C19.1703 38.7735 18.7764 38.5335 18.678 38.1397C18.5795 37.7458 18.8257 37.352 19.2195 37.2535C19.6133 37.1551 20.0072 37.3951 20.1057 37.7889Z" fill="#091B36"/>
</g>
<g id="Group_4" opacity="0.72">
<path id="Vector_29" d="M20.1243 36.0786C20.3151 36.1955 20.3828 36.4601 20.2597 36.6571C20.1428 36.854 19.8843 36.9155 19.6935 36.7986C19.5028 36.6817 19.4351 36.4171 19.5581 36.2201C19.6751 36.0232 19.9335 35.9617 20.1243 36.0786Z" fill="#091B36"/>
</g>
<g id="Group_5" opacity="0.72">
<path id="Vector_30" d="M20.4123 38.4532C20.2831 37.924 20.5907 37.3886 21.1015 37.2594C21.6123 37.1301 22.1292 37.4624 22.2584 37.9917C22.3877 38.5209 22.08 39.0563 21.5692 39.1855C21.0584 39.3147 20.5415 38.9824 20.4123 38.4532Z" fill="#091B36"/>
</g>
<g id="Group_6" opacity="0.72">
<path id="Vector_31" d="M25.1505 35.469C25.3105 36.1213 24.7874 36.8167 23.9813 37.0136C23.1751 37.2167 22.3936 36.8474 22.2397 36.1951C22.0797 35.5428 22.6028 34.8474 23.409 34.6505C24.209 34.4474 24.9966 34.8167 25.1505 35.469Z" fill="#091B36"/>
</g>
<g id="Group_7" opacity="0.72">
<path id="Vector_32" d="M20.567 40.3619C20.647 40.6881 20.4132 41.0204 20.0501 41.1127C19.687 41.205 19.3239 41.0142 19.2501 40.6881C19.1701 40.3619 19.4039 40.0296 19.767 39.9373C20.1301 39.845 20.4932 40.0358 20.567 40.3619Z" fill="#091B36"/>
</g>
<g id="Group_8" opacity="0.72">
<path id="Vector_33" d="M26.4377 40.183C26.4808 40.3614 26.3392 40.5522 26.1239 40.6076C25.9085 40.663 25.6992 40.5584 25.6562 40.3799C25.6131 40.2014 25.7546 40.0107 25.97 39.9553C26.1854 39.8999 26.3946 40.0045 26.4377 40.183Z" fill="#091B36"/>
</g>
<g id="Group_9" opacity="0.72">
<path id="Vector_34" d="M21.9807 41.057C22.0237 41.2355 21.8822 41.4262 21.6668 41.4816C21.4514 41.537 21.2422 41.4324 21.1991 41.2539C21.1561 41.0755 21.2976 40.8847 21.513 40.8293C21.7284 40.7739 21.9376 40.8785 21.9807 41.057Z" fill="#091B36"/>
</g>
</g>
<path id="Vector_35" d="M64.8846 12.4229H28.5769C26.8776 12.4229 25.5 13.8004 25.5 15.4998V28.4229C25.5 30.1222 26.8776 31.4998 28.5769 31.4998H64.8846C66.584 31.4998 67.9615 30.1222 67.9615 28.4229V15.4998C67.9615 13.8004 66.584 12.4229 64.8846 12.4229Z" fill="white"/>
<path id="Vector_36" d="M32.7522 15.3332C32.7338 15.2901 32.7153 15.247 32.6968 15.2039C32.5676 14.9516 32.383 14.7301 32.143 14.5701C31.8968 14.4101 31.6384 14.3301 31.3738 14.3239C30.9122 14.3116 30.4568 14.5332 30.1491 14.9393C29.8599 14.5209 29.4107 14.2809 28.9491 14.2686C28.6845 14.2686 28.4138 14.3301 28.1676 14.4839C27.5276 14.8778 27.2322 15.6901 27.4107 16.4409C27.4415 16.5701 27.4845 16.6993 27.5522 16.8286C27.7861 17.2901 28.5368 17.9978 29.1584 18.527C29.1953 18.5578 29.2322 18.5886 29.263 18.6193C29.4107 18.7424 29.5461 18.8593 29.663 18.9516C29.743 19.0193 29.8107 19.0747 29.8722 19.1239C29.9276 19.167 29.9953 19.1916 30.063 19.1916C30.1307 19.1916 30.1984 19.1732 30.2599 19.1301C30.3276 19.0809 30.4076 19.0193 30.4999 18.9516C30.8507 18.687 31.3553 18.2932 31.7984 17.8993C32.1676 17.567 32.4876 17.2286 32.6476 16.9701C32.6538 16.9578 32.6599 16.9516 32.6661 16.9393C32.7522 16.7855 32.8138 16.6132 32.8507 16.447C32.9307 16.0716 32.8999 15.6839 32.7584 15.3393L32.7522 15.3332Z" fill="#76A5FF"/>
<path id="Vector_37" d="M56.203 28.9879C56.1107 28.9879 56.0307 28.9202 56.0123 28.8279L54.843 22.0156L54.4246 23.7694C54.4061 23.8556 54.3323 23.9171 54.2461 23.9171L52.3138 23.9725C52.2277 23.9725 52.1538 23.9171 52.1292 23.8309L51.8153 22.6802L50.9969 26.0156C50.9723 26.1017 50.8984 26.1632 50.8061 26.1632C50.7138 26.1632 50.6461 26.0894 50.6277 25.9971L49.5384 18.8771L48.88 29.0248C48.8738 29.1232 48.7938 29.1971 48.7015 29.2032C48.6092 29.2094 48.523 29.1417 48.5046 29.0432L47.3353 22.2309L46.9169 23.9848C46.8984 24.0709 46.8246 24.1263 46.7384 24.1325L44.7877 24.1879C44.7015 24.1879 44.6277 24.1325 44.603 24.0463L44.2892 22.8956L43.4707 26.2309C43.4461 26.3171 43.3723 26.3786 43.28 26.3786C43.1877 26.3786 43.12 26.3048 43.1015 26.2125L42.0123 19.0925L41.3538 29.2402C41.3477 29.3386 41.2677 29.4125 41.1753 29.4186C41.083 29.4186 41.003 29.3509 40.9846 29.2586L39.8153 22.4463L39.3969 24.2002C39.3784 24.2863 39.3046 24.3479 39.2184 24.3479L37.2677 24.4032C37.1815 24.4032 37.1077 24.3479 37.083 24.2617L36.7692 23.1109L35.9507 26.4463C35.9261 26.5325 35.8523 26.594 35.76 26.594C35.6677 26.594 35.6 26.5202 35.5815 26.4279L34.4923 19.3079L33.8338 29.4556C33.8277 29.554 33.7538 29.6279 33.6553 29.634C33.563 29.634 33.483 29.5663 33.4646 29.474L32.2953 22.6617L31.8769 24.4156C31.8584 24.5017 31.7846 24.5571 31.6984 24.5632L27.5384 24.6863C27.4338 24.6863 27.3477 24.6063 27.3477 24.5017C27.3477 24.3971 27.4277 24.3048 27.5323 24.3048L31.5507 24.1879L32.1477 21.6771C32.1661 21.5909 32.2461 21.5294 32.3384 21.5294C32.4307 21.5294 32.5046 21.5971 32.5169 21.6894L33.5692 27.8309L34.24 17.554C34.2461 17.4556 34.3261 17.3817 34.4184 17.3756C34.5107 17.3756 34.5969 17.4432 34.6153 17.5417L35.8277 25.4371L36.5907 22.3171C36.6092 22.2309 36.683 22.1756 36.7692 22.1694C36.8553 22.1694 36.9292 22.2248 36.9538 22.3109L37.4215 24.0156L39.083 23.9663L39.68 21.4556C39.6984 21.3694 39.7784 21.3079 39.8707 21.3079C39.963 21.3079 40.0369 21.3756 40.0492 21.4679L41.1015 27.6094L41.7723 17.3325C41.7784 17.234 41.8523 17.1602 41.9507 17.154C42.0492 17.154 42.1292 17.2217 42.1477 17.3202L43.36 25.2156L44.123 22.0956C44.1415 22.0094 44.2215 21.954 44.3015 21.9479C44.3877 21.9479 44.4615 22.0032 44.4861 22.0894L44.9538 23.794L46.6092 23.7448L47.2061 21.234C47.2246 21.1479 47.3046 21.0863 47.3969 21.0863C47.4892 21.0863 47.563 21.154 47.5753 21.2463L48.6277 27.3879L49.2923 17.1109C49.2984 17.0125 49.3784 16.9386 49.4707 16.9325C49.5692 16.9325 49.6492 17.0002 49.6677 17.0986L50.88 24.994L51.643 21.874C51.6615 21.7879 51.7415 21.7325 51.8215 21.7263C51.9077 21.7263 51.9815 21.7817 52.0061 21.8679L52.4738 23.5725L54.1107 23.5232L54.7077 21.0125C54.7261 20.9263 54.8061 20.8648 54.8984 20.8648C54.9907 20.8648 55.0646 20.9325 55.0769 21.0248L56.1292 27.1663L56.8 16.8894C56.8061 16.7909 56.8861 16.7171 56.9784 16.7109C57.0769 16.7109 57.1569 16.7786 57.1753 16.8771L58.3877 24.7725L59.1507 21.6525C59.1692 21.5663 59.243 21.5109 59.3292 21.5048C59.4153 21.5048 59.4892 21.5602 59.5138 21.6463L59.9815 23.3509L64.0984 23.2279C64.203 23.2279 64.2892 23.3079 64.2892 23.4125C64.2892 23.5171 64.2092 23.6094 64.1046 23.6094L59.84 23.7325C59.7538 23.7325 59.68 23.6771 59.6553 23.5909L59.3415 22.4402L58.523 25.7756C58.4984 25.8617 58.4246 25.9232 58.3323 25.9232C58.24 25.9232 58.1723 25.8494 58.1538 25.7571L57.0646 18.6371L56.4061 28.7848C56.4 28.8832 56.32 28.9571 56.2277 28.9632H56.2215L56.203 28.9879Z" fill="#9FC0FF"/>
<g id="Group_10">
<g id="Group_11">
<path id="Vector_38" fill-rule="evenodd" clip-rule="evenodd" d="M69.1425 16.988C67.684 19.4433 65.0071 21.1049 63.9609 21.6526V8.72949L68.9271 10.3418C69.0871 10.391 69.1917 10.5326 69.1917 10.6926V16.8095C69.1917 16.8772 69.1732 16.9326 69.1425 16.9941V16.988Z" fill="white"/>
<path id="Vector_39" fill-rule="evenodd" clip-rule="evenodd" d="M58.7875 16.988C60.2521 19.4433 62.9229 21.1049 63.9691 21.6526V8.72949L59.0029 10.3418C58.8429 10.391 58.7383 10.5326 58.7383 10.6926V16.8095C58.7383 16.8772 58.7567 16.9326 58.7875 16.9941V16.988Z" fill="white"/>
<path id="Vector_40" fill-rule="evenodd" clip-rule="evenodd" d="M63.9629 9.63379L59.9013 10.9507C59.7413 10.9999 59.6367 11.1415 59.6367 11.3015V16.5753C59.6367 16.6492 59.6552 16.7046 59.6921 16.7661C60.6644 18.2861 62.3321 19.7261 63.9567 20.6615V9.63379H63.9629Z" fill="#3D7FFC"/>
<path id="Vector_41" fill-rule="evenodd" clip-rule="evenodd" d="M68.2871 16.5753V11.3015C68.2871 11.1415 68.1825 10.9999 68.0225 10.9507L63.9609 9.63379V20.6615C65.5856 19.7261 67.2594 18.2861 68.2256 16.7661C68.2625 16.7046 68.2809 16.643 68.2809 16.5753H68.2871Z" fill="#3D7FFC"/>
<path id="Vector_42" fill-rule="evenodd" clip-rule="evenodd" d="M63.2357 11.96H64.6941C64.768 11.96 64.8295 12.0153 64.8295 12.0892V13.6523C64.8295 13.72 64.891 13.7815 64.9649 13.7815H66.6264C66.7003 13.7815 66.7618 13.8369 66.7618 13.9107V15.2892C66.7618 15.3569 66.7003 15.4184 66.6264 15.4184H64.9649C64.891 15.4184 64.8295 15.4738 64.8295 15.5477V17.1107C64.8295 17.1784 64.7741 17.2338 64.6941 17.2338H63.2357C63.1618 17.2338 63.1003 17.1784 63.1003 17.1107V15.5477C63.1003 15.48 63.0387 15.4184 62.9649 15.4184H61.3034C61.2295 15.4184 61.168 15.363 61.168 15.2892V13.9107C61.168 13.8369 61.2295 13.7815 61.3034 13.7815H62.9649C63.0387 13.7815 63.1003 13.7261 63.1003 13.6523V12.0892C63.1003 12.0215 63.1618 11.96 63.2357 11.96Z" fill="white"/>
</g>
</g>
<g id="Group_12">
<g id="Group_13">
<path id="Vector_43" d="M58.332 50.6777V49.41C60.0674 49.41 61.6613 48.5362 62.5843 47.0716L65.532 42.45C66.5659 40.8131 66.0736 38.6408 64.4305 37.6008L59.729 34.6469L60.412 33.5762L65.1136 36.53C67.3536 37.9392 68.0243 40.8931 66.6151 43.1208L63.6674 47.7423C62.5043 49.5762 60.5105 50.6716 58.332 50.6716V50.6777Z" fill="#62788A"/>
<path id="Vector_44" d="M50.7305 48.3635L53.8135 49.5265L53.9243 49.2373L50.8412 48.0742L50.7305 48.3635Z" fill="#62788A"/>
<path id="Vector_45" d="M51.9971 48.8807L52.0094 48.8438L54.5078 49.8037C54.6986 49.8776 54.9078 49.7361 54.9078 49.533C54.9078 49.373 55.0371 49.2438 55.2032 49.2438H58.3417V52.253H54.914V52.0622C54.914 51.6991 54.6925 51.3791 54.354 51.2499L52.7971 50.653C52.0894 50.3822 51.7386 49.5884 52.0094 48.8868L51.9971 48.8807Z" fill="#76A5FF"/>
<path id="Vector_46" d="M61.8949 32.1602L63.1688 30.031L60.7934 28.6279L59.5195 30.7572L61.8949 32.1602Z" fill="#62788A"/>
<path id="Vector_47" d="M53.9535 45.2804L55.2274 43.1511L52.852 41.748L51.5781 43.8773L53.9535 45.2804Z" fill="#62788A"/>
<path id="Vector_48" d="M62.6646 29.9451L63.1262 29.1697C63.3846 28.7389 63.2431 28.1912 62.8062 27.9328C62.3754 27.6804 61.8216 27.822 61.5631 28.2466L61.1016 29.022L62.6585 29.9389L62.6646 29.9451Z" fill="#62788A"/>
<path id="Vector_49" d="M62.8736 32L55.366 44.5723C55.2121 44.8307 54.8736 44.9169 54.6152 44.763L51.7906 43.0953C51.5321 42.9415 51.446 42.6092 51.5998 42.3507L59.1075 29.7784C59.3044 29.4523 59.7229 29.3476 60.0552 29.5384L62.6398 31.0646C62.966 31.2553 63.0767 31.68 62.8798 32.0061L62.8736 32Z" fill="#76A5FF"/>
<path id="Vector_50" d="M55.9102 50.7445C55.9102 51.1322 56.224 51.446 56.6178 51.446C57.0117 51.446 57.3255 51.1322 57.3255 50.7445C57.3255 50.3568 57.0117 50.043 56.6178 50.043C56.224 50.043 55.9102 50.3568 55.9102 50.7445Z" fill="white"/>
<path id="Vector_51" d="M62.3362 53.6553H50.9023V53.1753C50.9023 52.6646 51.3208 52.2461 51.8316 52.2461H61.4008C61.9177 52.2461 62.33 52.6584 62.33 53.1753V53.6553H62.3362Z" fill="#62788A"/>
</g>
</g>
</g>
</g>
</g>
</svg>
