<svg width="40" height="41" viewBox="0 0 40 41" fill="none" xmlns="http://www.w3.org/2000/svg">
<g clip-path="url(#clip0_8497_5870)">
<path d="M37.6489 4.49988H31.2525C30.6997 4.4806 30.3975 5.21346 30.8025 5.59274L32.3132 7.10346L23.9239 17.2927H13.9918C13.8054 17.2927 13.6254 17.3763 13.5032 17.5177L1.86109 31.4677C1.2118 32.2263 1.2568 33.3706 1.96394 34.0713L3.33323 35.4406C4.0918 36.2313 5.48037 36.167 6.1618 35.312L16.2032 23.0463L26.4568 23.0849C26.6497 23.0849 26.8297 23.0013 26.9518 22.847L36.4147 11.2113L37.8289 12.6256C38.2082 13.0306 38.9411 12.7285 38.9218 12.1756V5.77917C38.9282 5.07203 38.3561 4.49988 37.6489 4.49988Z" fill="#9D97F4"/>
<path fill-rule="evenodd" clip-rule="evenodd" d="M23.9175 17.2863H13.9854C13.7989 17.2863 13.6189 17.3699 13.4968 17.5113L1.86109 31.4677C1.2118 32.2263 1.2568 33.3706 1.96394 34.0713L3.33323 35.4406C4.0918 36.2313 5.48037 36.167 6.1618 35.312L16.2032 23.0463L26.4568 23.0849C26.6497 23.0849 26.8297 23.0013 26.9518 22.847L36.4147 11.2113L37.8289 12.6256C38.2082 13.0306 38.9411 12.7285 38.9218 12.1756V5.77917C38.9282 5.07203 38.3561 4.49988 37.6489 4.49988H31.2525C30.6997 4.4806 30.3975 5.21346 30.8025 5.59274L32.3132 7.10346L23.9239 17.2927L23.9175 17.2863Z" fill="#9D97F4"/>
<path d="M12.0309 16.2643V16.2514C12.5259 15.6857 13.2395 15.3579 13.9917 15.3579H18.5945V10.2986C18.5945 9.57857 18.0159 9 17.2959 9H12.3845C11.6645 9 11.0859 9.57857 11.0859 10.2986V17.4021L12.0374 16.2643H12.0309Z" fill="#BFBAFC"/>
<path d="M17.1165 24.9751L11.0801 32.3422V34.6951C11.0801 35.4151 11.6586 35.9937 12.3786 35.9937H17.2901C18.0101 35.9937 18.5886 35.4151 18.5886 34.6951V24.9751H17.1101H17.1165Z" fill="#BFBAFC"/>
<path d="M28.4496 24.0621C27.961 24.6599 27.2346 25.0071 26.4567 25.0071H26.4503L21.166 24.9878V34.6949C21.166 35.4149 21.7446 35.9935 22.4646 35.9935H27.376C28.096 35.9935 28.6746 35.4149 28.6746 34.6949V23.7856L28.4496 24.0685V24.0621Z" fill="#D4D0FF"/>
<path d="M36.5684 14.085L31.252 20.6229V34.7015C31.252 35.4215 31.8305 36 32.5505 36H37.462C38.182 36 38.7605 35.4215 38.7605 34.7015V14.6829C38.0598 14.8179 37.2305 14.6893 36.5684 14.0786V14.085Z" fill="#BFBAFC"/>
<path d="M8.45209 18.445C8.2978 17.8986 7.80786 17.5 7.21 17.5H2.29857C1.57857 17.5 1 18.0786 1 18.7986L1.00001 29.4943L8.4521 20.5643L8.45209 18.445Z" fill="#D4D0FF"/>
</g>
<defs>
<clipPath id="clip0_8497_5870">
<rect width="37.9286" height="31.5" fill="white" transform="translate(1 4.5)"/>
</clipPath>
</defs>
</svg>
