<svg width="589" height="577" viewBox="0 0 589 577" fill="none" xmlns="http://www.w3.org/2000/svg">
<g clip-path="url(#clip0_7403_105350)">
<path d="M286.304 377.32C281.169 371.157 276.28 365.601 265.646 363.334C263.897 361.473 264.147 365.296 263.853 361.398C264.293 360.922 264.315 356.556 261.9 359.074C258.995 355.111 254.813 350.313 248.324 357.765C248.506 355.933 255.576 352.925 252.024 351.247C250.101 350.017 248.45 349.21 248.463 347.373C250.796 337.992 246.644 324.574 232.124 322.485C229.99 322.662 230.544 316.255 227.159 318.758C230.929 314.421 222.781 310.44 222.546 308.122C225.222 305.16 219.062 304.409 218.48 300.995C225.315 301.803 218.782 298.289 210.759 300.137C209.395 296.794 204.895 297.961 202.873 295.297C204.366 294.914 202.915 292.123 199.976 291.399C200.977 290.212 199.121 285.774 198.523 291.635C197.538 291.001 195.376 293.129 195.106 291.14C194.765 291.406 195.189 291.516 193.848 292.874C192.257 289.708 198.716 290.261 196.095 286.655C194.307 286.049 190.984 291.116 187.88 288.611C187.195 288.653 187.562 288.882 186.479 290.126C186.125 289.5 185.683 289.251 185.199 289.298C183.712 289.368 181.891 292.198 181.561 294.802C179.995 294.655 177.791 296.056 177.046 299.543C177.468 297.868 175.257 291.78 171.74 291.268C160.801 297.856 163.389 278.159 169.348 270.687C169.112 270.429 171.17 267.558 168.016 266.936C169.835 262.501 163.268 265.065 159.02 262.004C163.035 257.368 167.274 250.896 172.595 243.738C167.724 240.317 162.033 246.672 157.279 251.249C156.862 249.442 154.238 250.601 150.855 250.571C147.536 241.184 159.253 217.607 172.674 214.746C172.489 214.683 172.315 214.637 172.155 214.572C173.191 214.228 172.79 214.855 174.359 213.171C174.272 213.486 174.248 213.338 174.187 213.999C176.305 212.237 177.626 216.174 179.965 214.666C180.006 215.251 178.873 218.677 181.485 216.917C181.585 217.14 181.519 218.349 182.329 217.474L182.228 217.487C182.572 217.121 182.401 217.595 182.694 216.445C182.763 218.043 184.263 220.808 184.061 216.312C183.771 216.158 185.728 216.328 185.194 215.238C186.725 213.835 187.499 216.112 189.949 214.059C189.854 214.254 189.767 214.806 188.747 215.445C189.982 216.199 191.5 214.698 193.501 217.058C190.323 223.098 200.866 212.247 195.094 226.115C194.395 226.444 192.131 229.379 193.74 229.695C193.659 229.839 191.932 230.924 193.334 230.722C189.546 242.518 200.573 232.123 201.56 222.887L201.541 222.866L201.917 223.003C205.453 211.386 220.618 212.399 227.188 208.326C228.23 208.753 229.923 208.029 229.798 206.133C230.157 206.682 234.022 204.147 231.614 203.758C233.493 202.185 234.765 199.079 238.836 197.502C236.93 198.643 235.334 199.164 234.905 201.742C234.489 201.988 233.73 201.649 233.414 203.234C233.388 203.33 233.372 203.444 233.36 203.574C234.862 202.046 238.185 202.791 240.046 198.052C240.566 198.463 239.307 199.992 240.091 199.739C240.058 199.77 240.052 199.792 240.042 199.829C241.638 198.78 244.831 198.147 246.874 195.335C246.789 197.051 256.399 195.71 249.507 195.17C251.046 194.681 252.826 196.016 254.954 194.571C255.43 195.489 254.343 195.577 256.693 195.353C256.245 195.654 255.684 195.744 255.185 195.937C255.24 196.03 258.346 196.593 259.378 194.061C258.595 194.078 259.158 194.916 257.459 194.868C258.504 191.325 262.598 191.335 268.252 189.485C268.44 189.833 266.75 189.669 266.952 190.728C267.793 190.412 271.583 190.146 274.38 189.535C275.166 189.362 275.869 189.167 276.42 188.933C275.201 190.378 277.765 189.086 280.839 188.736C280.53 189.033 280.839 188.972 278.692 189.342C279.405 190.078 278.847 189.956 280.912 189.88C279.445 190.843 276.831 189.59 273.828 191.004C270.448 192.957 274.37 195.675 278.982 191.611C279.07 191.674 278.929 191.598 279.291 192.046C277.662 192.629 283.953 193.202 288.102 191.605C288.044 192.165 293.533 191.648 291.186 189.898C294.536 187.961 290.551 187.617 286.822 190.864C286.655 189.971 286.834 189.703 284.907 190.249C284.732 190.062 284.848 189.935 284.093 189.644C283.033 189.487 283.466 188.506 281.963 187.604C282.345 186.752 282.785 186.04 283.46 185.445C284.094 184.855 284.91 184.398 286.114 184.035C285.846 183.887 284.036 183.715 282.991 183.68C283.478 183.326 282.941 183.187 281.724 182.658C295.384 184.689 286.878 176.542 270.067 182.54C278.191 179.413 287.99 177.247 297.295 180.357C298.395 180.721 299.497 181.165 300.6 181.695C304.097 180.11 306.913 180.488 311.282 180.176C313.233 180.368 315.544 177.524 314.758 175.644C314.365 174.63 313.069 173.916 310.392 174.093C311.864 173.406 316.123 175.724 314.405 172.108C314.201 174.312 311.652 169.828 310.961 171.213C310.31 171.044 312.484 169.313 310.934 169.46C311.07 168.882 311.253 169.127 310.667 168.282C311.114 168.28 313.617 166.972 312.447 166.865C313.623 165.865 312.474 165.504 313.598 163.578C315.481 156.769 312.185 162.204 304.935 162.373C304.783 162.334 305.331 161.525 304.413 161.53C303.332 159.307 306.726 158.71 308.232 156.931L308.242 156.894C306.68 156.999 307.777 156.875 305.651 155.788C306.045 155.891 307.696 155.171 306.295 155.161C307.077 153.799 298.81 149.694 298.022 153.366C296.755 153.43 295.397 153.707 293.842 155.78C289.223 154.997 289.149 160.577 283.205 162.155C274.044 162.308 274.067 165.397 266.913 169.295C268.162 166.097 264.478 171.911 264.969 166.439C264.984 166.089 265.569 165.588 266.396 165.032C266.717 164.84 267.036 164.624 267.385 164.416C270.468 162.567 274.806 160.375 269.972 160.165C269.922 160.113 269.879 160.062 269.809 160.021C269.906 159.904 269.99 159.808 270.073 159.712C269.804 159.657 269.845 159.597 268.828 159.49C269.196 158.54 269.31 158.57 267.336 157.286C269.133 155.952 267.056 153.281 263.71 153.733C264.461 153.394 266.433 152.6 268.256 151.021C267.508 150.764 267.395 150.735 266.714 150.762C269.415 148.357 276.558 147.783 282.401 146.485C283.775 147.062 288.231 147.229 284.49 144.535C285.245 144.589 285.488 145.942 286.978 146.156C287.456 146.422 287.701 146.124 289.223 145.576C289.757 146.902 294.191 146.268 295.873 145.203C296.936 145.204 297.192 145.011 298.971 145.001C296.862 145.617 293.837 146.436 290.827 147.376C291.523 147.439 292.215 147.462 292.767 147.723C292.757 147.76 292.243 147.917 291.585 148.391C292.179 149.119 294.964 148.199 297.105 147.906C294.931 149.874 303.299 150.065 299.067 148.353C299.198 148.23 299.44 148.41 300.241 147.95C300.141 147.665 300.29 146.539 299.351 146.24C299.726 145.528 299.69 145.951 300.228 145.06C299.7 145.065 299.423 145.921 298.378 146.003C298.864 145.713 299.022 145.816 299.615 145.137C299.559 145.107 299.611 145.152 299.339 144.963C299.693 144.796 299.7 144.302 300.675 144.618C300.601 144.74 300.425 145.143 301.126 145.128C299.808 145.321 301.698 147.786 301.565 145.243C301.925 145.352 301.856 145.892 302.809 145.086C303.538 145.912 307.346 145.871 309.029 143.831C309.496 143.992 312.598 143.453 311.636 142.676C311.606 142.11 312.245 142.323 313.197 142.106C313.476 142.713 314.592 143.341 315.686 143.287C315.728 143.283 315.757 143.266 315.794 143.276C316.337 143.221 316.852 143.001 317.267 142.526C317.57 142.841 317.311 142.719 317.929 143.154C317.711 143.271 316.58 143.693 317.647 143.734C317.617 143.844 317.642 143.811 317.955 144.089C317.922 144.12 317.913 144.094 317.647 144.324C317.811 144.406 317.632 144.32 318.257 144.404C317.653 144.506 314.454 144.957 317.562 145.127C316.751 145.334 316.922 146.33 318.285 145.535C318.174 145.703 318.123 145.595 317.767 146.235C315.884 145.447 317.123 148.655 318.557 145.96C318.567 146.159 318.326 146.356 319.008 146.47C317.917 149.451 315 146.357 312.872 149.328C310.412 149.601 307.747 147.061 304.7 149.163C305.113 150.694 304.711 149.418 306.869 150.238C308.115 149.783 308.563 151.331 310.103 150.189C310.188 150.471 309.162 151.305 310.485 150.863C310.376 151.345 310.249 150.982 310.541 151.923C309.317 152.974 310.087 154.77 313.446 156.177C317.373 159.313 314.929 154.801 315.716 153.802C317.269 154.465 317.798 160.155 320.147 155.032C320.073 156.412 321.883 156.057 321.232 153.835C322.556 155.618 321.297 151.516 320.626 151.067C323.022 150.439 323.254 150.656 323.995 153.64C326.149 152.776 334.932 153.635 326.835 148.385C326.515 147.988 326.864 148.338 325.655 147.489C326.451 147.043 327.232 147.388 328.827 147.165C329.029 147.021 327.556 146.835 327.876 146.32C328.939 147.406 329.625 145.217 327.961 145.572C328.214 145.48 328.555 145.333 328.81 145.084C328.829 144.869 327.712 144.917 326.958 143.832C327.793 143.774 325.998 142.081 324.795 143.231C324.928 142.81 326.335 141.948 324.308 141.005C328.673 139.386 316.89 138.756 323.564 140.67C322.842 140.703 319.739 140.628 319.705 140.399C325.651 138.523 315.714 137.404 313.59 140.156C313.141 138.317 316.927 138.71 319.013 138.12C316.979 137.434 313.526 137.072 308.74 138.833C308.922 139.494 309.355 138.458 310.502 139.707C307.145 137.97 306.353 140.981 312.221 141.617C312.6 142.329 311.889 142.144 309.462 141.12C309.351 141.288 308.001 141.095 308.214 142.322C307.148 142.477 306.475 141.831 304.737 142.425C304.592 142.128 302.503 142.38 302.917 143.022C302.616 143.085 301.717 143.166 300.886 143.21C301.165 142.551 301.067 142.408 302.439 141.876C302.456 142.021 302.733 141.928 302.781 142.342C303.363 141.997 304.722 141.658 304.55 140.521C303.744 140.705 302.959 140.524 300.73 141.486C300.989 141.223 302.693 139.842 302.723 140.762C303.377 140.538 303.75 140.95 303.536 139.667C303.098 139.491 303.302 139.78 302.171 139.588C302.425 139.316 302.792 139.631 303.555 139.216C304.224 139.822 305.835 138.424 306.183 137.311C308.728 136.879 310.864 137.576 314.892 136.884C313.763 136.449 312.68 135.145 310.373 135.946C307.846 136.021 304.557 137.062 301.097 137.752C301.13 137.776 301.191 137.792 301.229 137.802C300.569 137.693 297.689 138.487 300.137 139.021C300.171 139.045 299.813 139.078 300.061 139.355C299.02 139.422 298.985 139.256 297.361 139.526C297.423 139.684 297.594 139.799 297.717 139.854C295.93 140.476 294.558 139.687 292.246 140.746C292.25 140.644 292.265 140.735 292.199 140.474C292.016 140.607 291.814 140.751 291.597 140.892C291.798 140.692 291.932 140.562 293.334 139.684C293.005 139.936 292.626 140.192 292.274 140.438C292.466 140.331 293.53 140.033 294.875 139.745C294.753 139.659 294.676 139.733 294.132 139.411C294.972 139.629 302.057 138.505 297.691 138.479C297.529 137.509 296.565 137.534 295.028 138.456C295.209 138.33 295.411 138.186 295.609 138.057C294.823 138.23 291.731 137.765 294.023 138.777C292.256 138.829 288.6 140.231 286.958 137.689C286.897 137.673 286.284 137.836 286.054 137.494C286.066 137.394 287.788 137.708 287.115 136.739C287.171 136.769 287.266 136.778 287.34 136.601C286.619 136.83 283.87 135.212 282.586 136.892C281.874 136.534 280.461 137.802 279.507 137.555C279.884 137.511 281.196 136.609 280.394 136.401C283.391 135.889 278.898 136.5 276.13 135.215C276.648 134.28 278.577 136.165 279.394 134.12C277.422 133.946 277.774 131.702 275.113 131.82C275.356 131.765 275.613 131.714 276.513 131.57C275.707 130.874 273.108 131.913 272.949 131.463C273.793 130.99 273.113 131.836 275.755 130.406C274.962 130.46 274.668 130.879 272.243 130.642C272.376 130.598 272.502 130.67 273.54 130.468C272.48 130.075 270.85 130.162 268.257 129.945C268.295 129.955 268.441 129.954 268.539 129.806C268.09 129.729 268.505 129.782 267.439 129.795C267.707 129.472 266.544 129.862 266.411 129.67C265.926 129.426 265.238 130.215 263.776 129.693C263.939 129.162 264.227 129.236 265.353 128.86C264.786 128.768 263.147 127.155 263.166 127.262L263.02 127.263C263.09 127.069 263.151 127.376 263.546 126.826C262.797 126.514 263.591 126.956 262.074 126.459C262.662 126.533 264.217 125.868 262.477 126.029C262.649 125.933 263.846 125.654 262.417 125.715C264.611 125.294 261.733 125.695 260.95 125.271C258.891 125.177 256.371 125.607 251.903 125.453C250.772 125.553 247.97 126.036 245.311 127.083C245.326 127.087 245.412 127.07 245.584 127.036C244.877 127.246 243.604 127.772 242.496 127.437C243.962 127.15 242.709 127.398 244.259 127.046C243.936 127.041 243.723 126.844 242.029 127.277C242.049 127.203 242.014 127.273 242.252 127.115C240.489 127.388 238.493 127.742 235.778 128.76C236.199 128.704 235.807 128.743 236.861 128.687C236.74 128.773 236.484 128.73 235.967 129.045C236.307 128.991 236.172 128.98 237.795 128.772C237.833 128.782 237.861 128.766 237.903 128.761C237.861 128.766 237.818 128.778 237.774 128.79C235.851 129.258 234.631 129.594 231.763 130.021C231.817 129.972 232.046 129.937 232.605 129.705C232.281 129.762 231.87 129.868 231.536 129.962L231.546 129.925C229.078 130.605 227.916 130.878 223.182 132.715C223.367 132.661 223.583 132.583 223.764 132.544C223.516 132.621 223.286 132.718 223.04 132.788C221.41 133.371 219.71 134.062 217.198 135.109C217.128 135.129 217.058 135.174 216.944 135.208C216.806 135.266 216.633 135.363 216.426 135.466C216.898 135.314 216.77 135.336 218.029 134.892C218.125 134.838 218.239 134.805 218.344 134.777C218.182 134.837 218.205 134.843 218.029 134.892C217.918 134.942 217.68 135.037 217.225 135.218C217.434 135.193 217.229 135.203 217.87 135.086C217.011 135.374 214.115 136.344 211.613 137.558L211.929 137.444C211.929 137.444 211.944 137.448 211.807 137.53C212.413 137.334 212.984 136.971 215.606 136.26L215.599 136.376C215.459 136.442 215.277 136.513 214.412 136.823C214.454 136.731 214.397 136.819 214.653 136.626C213.849 136.952 213.202 137.004 211.388 138.05C211.493 138.023 211.741 137.946 212.396 137.66C212.392 137.674 212.411 137.664 212.269 137.768L212.263 137.79L212.284 137.772C212.389 137.744 212.857 137.606 213.442 137.341C213.431 137.378 213.464 137.347 213.396 137.447C214.035 137.338 214.442 137.184 216.083 136.502L216.029 136.551C216.257 136.547 217.184 136.277 218.194 135.792C217.48 135.937 217.445 135.77 215.535 136.548C217.002 135.82 219.08 135.314 221.285 134.558L221.3 134.562C221.386 134.545 221.613 134.604 222.407 134.314C222.375 134.369 222.418 134.333 222.295 134.427C222.596 134.45 223.56 134.048 224.953 133.733C224.872 133.791 224.775 133.789 224.489 133.943C224.893 133.891 224.793 133.723 226.706 133.379C225.259 133.797 222.854 134.313 220.192 135.226C220.691 135.709 222.505 134.663 223.644 134.974C223.887 134.919 224.188 134.856 224.412 134.78C224.063 134.926 224.349 134.803 223.581 135.202C224.478 135.214 225.757 134.343 228.695 133.84C227.835 134.427 227.71 134.001 225.268 135.026C226.041 134.873 225.507 134.986 227.49 134.534C227.083 134.743 227.357 134.484 226.232 135.033C226.35 135.048 226.27 135.043 226.578 135.044C226.068 135.423 226.206 135.128 224.717 135.788C224.61 135.972 228.621 134.725 226.13 136.666L226.947 136.524C225.761 136.971 224.952 137.61 223.476 138.666L223.399 138.709C223.368 138.819 218.314 140.494 218.942 140.658C218.383 140.89 218.36 140.766 216.147 141.906C216.282 142.004 216.148 142.047 216.559 141.91C215.142 142.549 213.855 143.064 211.651 144.379C212.292 144.349 211.783 144.429 213.17 143.9C213.117 144.005 213.076 143.86 212.788 144.313C213.869 143.956 214.938 143.463 217.523 142.239C216.637 142.717 214.185 143.983 212.306 144.942L212.622 144.828C209.903 146.182 206.644 148.08 203.04 150.408C202.787 150.499 202.646 150.423 201.677 151.202L202.153 151.325C191.836 157.807 170.602 167.974 159.248 182.051C157.997 183.173 158.965 181.961 154.91 187.034C154.743 187.345 154.214 187.349 153.311 188.915C153.294 188.974 153.315 188.901 153.209 189.282C154.963 193.796 144.978 199.428 144.854 205.57C144.747 205.518 144.62 205.446 144.511 205.402C145.288 205.761 143.937 208.123 142.093 207.723C141.394 207.581 139.418 212.148 140.373 213.505C141.715 215.371 137.167 218.822 136.614 221.879C136.614 221.879 136.662 221.852 136.797 221.746L136.808 221.914L136.932 221.844C138.016 221.826 134.159 229.208 136.666 226.8C138.399 221.116 142.99 213.429 145.414 205.715L145.839 205.88C146.811 203.011 147.921 201.577 150.878 198.334C151.206 198.38 150.165 199.297 151.554 199.147C151.524 199.194 150.226 200.634 151.376 200.083C150.943 200.624 148.594 203.867 147.254 206.13C146.764 206.435 146.721 206.503 145.653 207.932C145.919 207.938 145.889 208.048 146.402 207.804C143.36 218.96 139.986 229.259 135.669 242.498C135.827 242.161 135.998 241.836 136.148 241.498C135.967 245.619 140.288 260.331 145.702 258.002C146.6 257.189 148.359 257.606 148.862 259.632C149.416 263.614 149.993 267.72 153.486 270.522C154.844 270.537 155.176 274.005 157.643 272.239C156.866 273.642 157.358 278.291 159.204 280.973C158.265 282.609 157.049 285.454 158.668 288.226C159.029 287.652 159.05 286.902 159.703 286.537C161.101 288.347 160.145 292.684 162.81 295.751C162.549 293.583 166.809 295.665 164.742 297.244C163.818 295.478 163.539 300.863 165.278 297.8C165.355 297.757 165.255 298.03 165.846 297.947C165.665 299.717 169.956 301.744 168.366 295.991C169.51 295.753 169.403 296.433 170.902 294.416C172.691 292.231 175.442 303.027 173.144 307.204C172.778 308.469 173.554 313.028 171.558 312.352C170.608 312.915 171.568 314.667 172.389 315.336C171.744 317.229 168.699 317.327 167.927 320.705C166.98 320.435 166.592 321.105 167.256 322.607C164.667 322.61 163.372 324.036 162.907 328.303C161.662 329.049 160.265 333.429 162.657 336.425C155.84 346.325 169.265 368.168 175.804 381.199C178.155 385.899 180.718 388.366 183.141 390.521C187.612 394.506 191.629 397.437 192.993 411.491C193.141 413.629 193.51 415.754 194.011 417.905C196.268 427.527 201.395 437.093 202.802 446.18C204.326 448.472 205.591 449.296 207.262 452.262L207.224 452.252C207.377 453.401 208.267 454.819 209.785 456.283C209.735 456.231 209.599 456.133 209.427 456.111C210.119 456.63 210.157 458.637 212.3 459.453C212.002 458.33 212 459.218 210.501 456.217C211.54 456.448 211.941 458.668 213.302 459.729C213.285 459.882 214.012 460.92 214.474 461.976C213.955 461.566 214.545 461.955 212.855 460.525C213.629 461.717 214.67 463.647 216.303 465.691C216.303 465.691 216.18 465.462 216.139 465.255C216.288 465.451 216.797 466.134 217.335 465.566L217.267 465.226C217.615 465.67 218.098 465.977 218.831 467.111C218.77 467.095 218.765 466.999 217.9 466.633C217.947 466.7 217.862 466.623 218.266 467.16C218.251 467.157 218.209 467.13 218.13 467.062C218.911 469.404 222.813 471.605 224.93 473.838C224.931 473.776 224.94 473.802 224.949 473.623C224.949 473.623 224.989 473.712 225.4 474.133C225.395 474.093 225.427 474.125 225.272 473.864C225.428 473.944 225.32 473.892 225.689 474.114L225.712 474.12L225.716 474.105C225.793 474.267 226.037 474.205 226.436 474.67C226.285 474.631 226.377 474.592 225.843 474.437C225.908 474.438 226.04 474.842 226.384 474.916C226.48 474.862 227.079 475.427 227.124 475.203C227.147 475.208 227.195 475.386 227.456 475.47L227.46 475.455C227.574 475.484 227.472 475.56 228.149 475.988C228.138 475.969 228.148 475.932 228.164 475.874C228.263 475.955 228.204 475.963 228.573 476.153L228.556 476.07C228.516 475.981 228.798 476.369 229.352 476.654L229.609 476.839L229.585 476.778L229.891 476.991C229.891 476.991 229.869 476.985 229.883 476.934C229.976 477.036 229.869 476.985 230.254 477.148C230.357 477.214 230.304 477.2 230.609 477.358C230.609 477.358 230.565 477.284 230.513 477.176C230.935 477.443 230.7 477.382 231.549 477.862C231.542 477.797 231.574 477.829 231.472 477.7C232.08 478.173 232.98 478.525 233.934 478.977L233.616 478.658C233.786 478.718 234.199 479.281 234.635 479.316C234.528 479.115 234.625 479.353 234.023 478.803C234.076 478.817 234.279 479.051 234.286 478.73C234.352 478.787 234.533 478.952 234.581 478.634C229.049 475.341 223.058 467.989 223.299 462.098C222.923 461.756 222.371 461.613 222.071 461.142C225.287 461.6 222.588 461.913 219.992 457.511C220.494 457.838 221.684 458.548 222.556 458.712C223.724 458.976 224.319 458.32 221.881 454.581C230.219 458.665 230 451.326 224.753 446.33C227.232 447.548 235.145 453.315 235.141 443.295C235.74 442.68 235.803 440.84 237.878 440.845C235.761 448.859 241.919 432.418 244.647 428.683C245.149 428.656 247.559 426.632 250.233 428.168C250.403 426.671 250.207 427.233 253.691 426.282C257.613 427.442 260.465 428.278 262.65 422.955C268.486 419.39 264.378 406.519 273.244 402.176C290.4 393.759 297.579 381.759 286.238 377.326L286.304 377.32ZM308.943 174.142C309.455 173.842 309.194 174.348 309.808 174.327C309.195 174.49 307.838 174.822 307.243 174.392C307.831 174.348 308.371 174.213 308.943 174.142ZM293.198 143.494C293.482 143.583 293.916 143.625 294.276 143.79C294.711 143.918 295.033 144.222 294.957 144.879C294.402 144.892 293.533 144.572 294.411 143.888C294.361 143.835 294.337 143.805 294.276 143.79C294.087 143.74 293.728 143.923 292.91 143.419L293.198 143.494ZM184.123 214.386C184.515 213.85 184.762 214.276 184.926 215.09C184.64 214.953 184.701 215.173 184.081 214.391L184.123 214.386ZM161.203 281.901C160.981 282.323 160.674 280.938 159.316 280.979C159.463 280.537 160.278 274.858 161.23 281.892L161.21 281.903L161.203 281.901ZM193.613 293.725C193.217 295.305 195.843 297.749 192.521 299.293C190.892 298.697 191.58 295.769 193.613 293.725ZM308.264 156.962C308.203 157.182 308.335 156.997 308.264 156.962V156.962Z" fill="url(#paint0_radial_7403_105350)"/>
<path d="M420.39 166.931C420.449 166.961 420.463 166.964 420.449 166.961L420.378 166.92C420.378 166.92 420.385 166.922 420.392 166.924L420.39 166.931Z" fill="url(#paint1_linear_7403_105350)"/>
<path d="M450.277 199.066C442.804 188.667 433.982 178.616 423.737 168.95C423.365 168.618 422.947 168.25 422.386 167.791C422.725 168.154 422.521 167.881 423.324 168.623C423.367 168.697 423.465 168.777 423.621 168.936L423.486 168.846C423.752 169.127 423.535 168.898 424.166 169.509L424.031 169.419C424.145 169.527 424.001 169.585 424.797 170.349C424.28 170.161 423.98 169.603 422.784 168.603C423.093 169.076 423.074 169 423.916 169.886C423.874 169.836 423.787 169.774 423.685 169.709C424.096 170.39 423.745 169.866 424.767 171.114L424.633 171.079C424.935 171.575 425.811 172.256 426.865 173.559C426.843 173.554 426.693 173.515 426.356 173.287C425.823 172.669 425.519 172.812 424.567 171.598C424.578 171.617 424.632 171.654 424.729 171.679C424.352 171.165 423.007 169.984 421.548 169.295C422.362 170.197 423.049 170.492 424.731 172.247C424.72 172.229 424.675 172.217 424.637 172.208C426.156 173.63 426.166 173.309 427.681 175.03C426.626 174.184 427.616 174.974 426.019 173.831C426.597 175.146 428.492 176.885 429.718 178.406C429.661 178.667 426.231 175.651 427.69 177.373L427.652 177.364C427.843 177.83 428.647 178.194 430.311 179.669C427.627 178.745 425.419 175.404 422.115 172.854C426.264 175.62 428.338 175.459 421.673 170.336C421.667 170.358 421.704 170.368 421.742 170.519C420.283 169.688 419.224 168.486 416.639 167.35C416.704 167.461 416.587 167.392 417.041 167.863C416.508 167.53 415.84 166.822 414.598 165.991C414.658 166.204 414.602 166.032 414.869 166.455C414.532 166.227 413.967 166.783 413.686 165.694L413.821 165.729C413.255 164.945 412.692 164.864 411.189 163.903C411.228 163.992 411.264 164.064 411.309 164.131C411.093 163.957 410.734 163.723 410.185 163.449C410.171 163.5 410.513 163.651 411.118 164.642C410.723 164.304 411.031 164.438 410.003 163.583C410.586 164.421 410.938 164.942 411.057 165.146C410.491 164.56 411.148 165.107 409.363 163.261C409.376 163.359 409.348 163.258 409.457 163.585C409.355 163.52 409.295 163.504 408.94 163.255C409.275 163.72 409.102 163.478 409.852 164.325C409.669 164.175 409.866 164.329 409.357 164.001C409.357 164.001 409.332 164.034 409.357 164.143C409.259 163.921 408.92 163.613 408.289 163.774C408.338 163.945 408.716 164.057 409.57 164.757C409.452 164.664 409.239 164.507 409.032 164.816C408.87 164.735 408.968 164.76 408.581 164.48C408.793 164.81 408.737 164.583 409.414 165.687C408.44 164.325 407.188 164.186 409.347 166.497C408.717 165.942 407.518 165.098 409.287 167.057C409.222 167.001 409.089 166.904 408.69 166.581L408.918 167.057C408.773 167.059 408.61 166.151 407.917 166.162C407.453 166.161 405.842 166.387 406.431 167.232C406.902 167.928 408.513 170.737 409.321 167.996C410.203 168.798 410.539 170.547 411.642 172.391C411.551 172.289 411.615 172.345 411.329 172.137C411.4 172.51 412.396 173.365 412.631 174.474C412.571 174.458 412.565 174.338 412.328 174.183L412.596 174.685L412.125 174.62C412.682 174.865 413.374 176.288 412.821 176.603C412.914 176.927 412.854 176.77 413.121 177.477C412.65 177.356 413.101 177.55 412.229 176.767C412.178 177.093 412.316 176.829 412.508 177.635C412.379 177.578 412.347 177.491 411.773 176.965C411.903 177.732 412.237 177.4 412.977 178.937C412.751 178.8 412.927 178.885 412.1 178.318C412.254 178.713 412.087 178.449 412.59 179.232C412.503 179.312 412.431 178.939 412.043 179.092C412.058 179.096 412 179.247 412.09 179.64C411.995 179.553 412.032 179.562 411.751 179.333C411.735 179.447 411.824 179.272 411.554 179.952C411.42 179.799 411.549 179.911 411.113 179.523C411.357 179.941 411.621 180.427 411.927 180.939C413.001 182.861 414.357 185.29 415.929 187.38C415.946 187.322 415.925 187.395 416.03 187.107C416.105 187.181 416.101 187.141 416.527 187.565C415.809 187.523 419.928 194.208 421.049 189.001C420.978 188.683 420.888 188.289 420.768 187.999C422.975 190.63 424.479 192.103 427.318 196.599L427.125 196.487C427.09 196.754 427.07 197.111 427.12 197.361C425.495 195.691 427.443 200.534 429.049 201.269C429.811 200.211 428.589 200.394 428.524 198.477C429.416 199.1 431.145 200.915 429.851 197.548C430.583 197.539 429.964 197.515 431.168 197.886C431.161 197.766 431.258 197.791 431.013 197.295C431.062 197.347 431.191 197.459 431.402 197.71C431.335 197.519 431.085 196.178 430.153 194.694C430.151 194.93 430.191 195.216 430.23 195.423C429.31 193.894 429.36 193.773 427.893 191.079C428.154 190.949 427.904 191.098 428.282 190.264C428.421 190.284 428.379 190.147 428.6 190.361C428.309 188.679 426.695 187.453 425.088 185.89C424.383 185.228 423.704 184.502 423.134 183.647L423.252 183.653C421.939 181.157 420.626 177.825 419.544 174.559C420.34 175.039 420.534 174.774 422.049 176.495C421.746 176.291 422.049 176.495 421.259 175.851C421.98 177.171 422.39 177.37 423.143 179.865C423.068 179.846 423.095 179.892 422.97 179.821C424.138 181.981 426.153 184.721 428.843 187.373C428.886 187.447 428.922 187.52 428.966 187.562C429.243 187.949 429.636 188.065 430.109 188.092C431.329 188.145 433.053 187.46 434.616 189.066C434.395 189.427 434.341 189.847 434.18 190.05C434.012 190.307 433.682 190.254 432.696 189.449C432.697 189.591 432.674 189.759 432.652 189.895C432.475 189.81 432.288 189.904 432.08 190.418C432.156 190.722 432.373 191.093 432.524 191.352C432.41 191.244 432.268 191.121 432.137 191.016C432.416 192.113 431.822 192.284 433.35 193.96C433.344 193.896 433.147 193.309 433.485 193.104C433.389 192.819 433.195 192.478 433.051 192.22C433.737 192.578 433.167 192.234 434.434 193.269C434.434 193.269 434.411 193.208 434.373 193.056C434.658 194.043 435.638 194.208 436.18 196.397C430.897 192.007 436.577 198.359 436.455 201.457C436.783 204.379 436.94 200.297 432.266 203.3C431.774 202.622 431.944 202.933 430.549 201.212C430.443 201.248 430.705 201.512 430.258 201.736C430.389 201.928 429.276 201.863 429.245 202.604C426.591 201.056 425.476 196.19 422.811 192.015C422.62 191.611 423.077 193.872 422.187 193.069C421.679 194.026 423.019 198.232 425.341 200.105C425.217 201.122 426.451 201.099 426.151 202.914C425.785 202.702 424.555 201.338 424.717 203.138C423.92 202.949 422.53 202.096 422.679 204.144L422.597 204.005C422.542 204.346 423.354 208.062 420.367 208.589C420.808 209.333 419.088 210.263 419.207 212.674C417.935 213.121 417.438 211.945 415.848 210.78C414.816 210.713 419.321 215.218 415.376 214.27C414.87 213.698 415.275 213.684 412.325 213.424C410.891 214.507 413.796 216.103 416.167 217.917C416.167 217.917 416.231 217.918 416.461 217.811C416.468 217.931 423.888 230.264 417.903 229.959C414.972 230.058 410.031 225.938 406.537 227.761C406.419 230.561 405.691 239.716 406.543 245.381C406.569 247.178 404.407 249.571 410.103 248.675C414.641 254.293 410.013 252.948 420.944 252.803C421.751 252.356 421.023 250.719 423.586 250.643C422.628 249.112 424.984 248.171 425.052 246.699C422.419 244.36 424.795 239.971 429.29 237.695C427.611 233.323 429.334 232.496 435.01 234.566C436.51 226.603 439.69 237.871 440.263 236.827C441.012 237.816 441.561 239.32 442.961 240.31C443.135 241.49 444.479 242.449 446.142 243.782C447.258 246.213 450.878 248.465 451 252.209C451.423 254.935 448.304 253.56 446.905 253.658C446.807 253.491 446.894 253.64 446.618 253.167C445.898 255.221 453.064 264.713 450.928 254.785C450.929 254.84 451.2 255.39 451.663 255.683C451.843 255.469 451.624 254.963 451.972 254.351C452.014 254.346 451.935 254.341 452.17 254.504C452.383 254.086 451.846 253.625 452.167 252.422C453.958 251.297 450.146 249.846 451.162 246.733C451.482 246.736 451.185 247.567 452.383 247.756C457.499 251.826 441.471 235.521 440.467 229.083C441.899 228.063 441.451 229.178 443.258 231.802L443.332 231.308C443.254 231.588 444.786 233.163 444.195 231.75C447.502 238.384 453.103 240.262 455.407 249.532C455.351 249.502 455.477 249.566 455.144 249.323C455.386 250.835 457.181 252.36 458.402 255.274C458.391 255.256 458.376 255.165 458.449 254.963C458.54 254.868 458.948 255.272 459.438 255.556C459.835 255.799 460.291 255.972 460.647 255.763C461.088 256.334 460.385 256.611 462.086 257.181C462.027 257.047 462.113 257.227 461.639 256.112C461.856 256.341 461.765 256.381 462.568 257.178C462.112 254.625 459.234 252.358 458.143 247.979C460.811 251.281 457.848 245.799 461.359 247.235C461.395 248.395 462.419 247.546 462.592 249.735C462.248 249.387 462.285 253.062 463.718 253.847C463.78 253.193 463.572 253.076 463.537 252.114C463.638 252.612 464.244 253.17 464.067 254.748C464.044 254.742 464.075 254.632 463.969 254.581C463.974 254.622 463.89 254.577 463.902 255.021C463.902 255.021 463.767 254.931 463.43 254.758C463.487 255.845 463.179 254.797 464.055 256.622C464.076 256.548 464.117 256.401 464.022 255.88C464.303 256.252 464.05 256.439 464.764 257.355C464.764 257.355 464.752 257.313 464.814 257.092C465.125 257.211 465.057 257.596 465.693 257.759C465.619 257.74 465.54 257.735 465.427 257.707L465.524 258.165C465.524 258.165 465.255 257.922 464.968 257.486C465.082 257.736 464.502 257.919 465.446 258.957C465.479 258.981 465.381 258.846 465.551 258.81C465.738 258.858 465.356 259.651 466.269 260.287C466.186 260.723 465.993 261.328 466.17 262.958C466.405 262.348 466.245 262.977 466.511 261.082C466.548 261.092 466.55 261.171 466.972 261.098L466.969 261.452L466.871 261.372C466.899 261.474 466.293 261.775 466.843 262.673C467.654 262.527 467.051 261.418 467.527 265.127C467.841 265.01 467.572 263.451 467.734 262.011C467.849 262.316 467.73 262.026 468.158 262.876L468.357 262.51C468.372 263.743 470.491 267.716 469.967 262.371C470.891 262.308 471.312 265.79 472.768 265.115C472.823 265.145 472.791 265.176 472.967 265.205C473.005 264.64 472.979 263.703 473.032 262.881C473.243 263.274 473.975 264.47 473.867 262.992C474.467 267.553 478.129 278.101 475.293 282.672C474.799 284.721 473.749 278.334 472.523 282.198C472.469 282.16 472.514 282.172 472.379 282.082C472.155 282.08 472.52 282.378 471.599 283.49C468.378 282.049 458.85 265.787 460.475 281.946C460.276 286.554 451.92 273.407 445.483 268.445C443.473 268.347 445.714 261.346 444.582 256.397C443.073 256.231 440.972 255.172 437.934 255.567C437.246 256.361 437.14 253.22 436.482 255.195C436.364 255.961 434.861 254.425 434.726 256.369C432.079 250.613 422.703 259.553 419.261 256.865C416.181 259.646 413.394 249.811 411.912 256.62C411.417 259.189 408.478 260.32 405.065 262.771C401.591 265.609 405.857 272.97 397.025 277.161C392.619 277.774 388.66 282.489 385.015 289.091C383.801 290.104 374.64 299.989 377.832 301.107C381.393 311.157 368.081 322.895 369.51 333.486C369.219 335.815 372.238 334.54 372.098 336.932C372.256 340.835 375.91 342.962 375.069 347.8C374.367 352.909 378.497 357.721 381.477 363.002C383.008 364.151 381.495 369.353 386.609 367.731C395.4 363.143 396.579 373.023 407.335 367.26C407.958 368.129 410.519 366.114 412.097 366.463C422.119 365.959 410.681 377.791 423.265 375.61C423.158 376.079 422.539 379.207 424.099 377.96C422.91 383.78 416.068 388.766 414.331 395.257C409.509 413.334 404.171 424.176 388.051 439.467C376.958 449.984 364.705 468.449 346.397 476.58C346.644 476.644 346.397 476.58 347.144 476.433C346.851 476.476 346.969 476.829 346.158 477.347C346.569 477.397 346.565 477.412 346.688 477.404C346.816 477.374 347.098 477.312 348.053 477.139C348.038 477.19 348.068 477.143 347.895 477.272C348.344 477.332 348.375 477.277 348.663 477.193C348.947 477.124 349.48 477.024 350.981 476.991C351.059 477.342 350.793 477.377 351.847 477.134C351.876 477.26 351.698 477.096 351.725 477.513C352.041 477.476 351.785 477.528 353.138 477.221L353.211 477.476C360.055 476.378 378.16 469.203 384.149 465.229C384.144 465.244 384.192 465.161 384.059 465.206C391.157 462.052 396.471 459.402 404.559 452.284L404.549 452.321C424.272 442.89 437.561 423.815 451.663 405.563L451.663 405.619C453.709 403.069 460.19 392.898 460.007 392.891C467.652 383.035 487.505 338.919 483.31 288.724C480.648 256.88 470.183 226.724 450.248 199.027L450.277 199.066ZM465.95 257.817C465.987 257.826 466.047 257.842 466.104 257.841C466.056 257.868 466.04 257.84 465.95 257.817Z" fill="url(#paint2_radial_7403_105350)"/>
<path d="M421.532 168.001C421.903 168.35 422.257 168.703 422.628 169.052C422.996 169.384 423.332 169.684 423.676 169.986C423.173 169.445 422.816 169.219 422.774 169.137C421.896 168.261 421.708 168.126 421.532 168.001Z" fill="url(#paint3_linear_7403_105350)"/>
<path d="M420.399 166.937C420.343 166.907 420.245 166.85 420.092 166.731C420.247 166.874 420.086 166.754 420.556 167.184C420.133 166.845 419.945 166.567 418.675 165.701C419.019 166.004 419.617 166.554 421.066 167.672L421.075 167.642C421.299 167.851 421.402 167.917 421.51 167.992C421.132 167.641 420.78 167.281 420.393 166.928L420.399 166.937Z" fill="url(#paint4_linear_7403_105350)"/>
<g opacity="0.32">
<g clip-path="url(#clip1_7403_105350)">
<mask id="mask0_7403_105350" style="mask-type:luminance" maskUnits="userSpaceOnUse" x="201" y="283" width="26" height="24">
<path d="M226.575 283.312H201.252V306.227H226.575V283.312Z" fill="white"/>
</mask>
<g mask="url(#mask0_7403_105350)">
<path d="M210.926 306.227H204.586C204.438 306.227 204.317 306.105 204.317 305.957V295.003C204.317 294.913 204.357 294.832 204.429 294.783L213.757 288.183C213.851 288.115 213.977 288.115 214.071 288.183L223.399 294.783C223.47 294.832 223.515 294.918 223.515 295.003V305.957C223.515 306.105 223.394 306.227 223.246 306.227H216.902" fill="#15C1E6"/>
<path d="M226.027 291.584L221.997 288.731V284.975C221.997 284.768 221.83 284.602 221.624 284.602H219.368C219.162 284.602 218.995 284.768 218.995 284.975V286.61L214.664 283.55C214.215 283.231 213.613 283.231 213.159 283.55L201.801 291.584C201.212 291.997 201.073 292.81 201.491 293.399C201.908 293.988 202.717 294.122 203.306 293.709L213.914 286.21L224.522 293.714C224.751 293.875 225.012 293.952 225.272 293.952C225.681 293.952 226.081 293.758 226.337 293.404C226.75 292.815 226.611 292.006 226.027 291.588V291.584Z" fill="#15C1E6"/>
</g>
</g>
<path d="M209.43 302.288H207.939V295.738H209.43V302.288Z" fill="#091B36"/>
<path d="M215.061 300.294C215.061 300.921 214.776 301.49 214.316 301.86C213.865 302.231 213.276 302.402 212.595 302.402C211.675 302.402 210.856 301.908 210.341 301.414L211.077 300.294C211.537 300.788 212.246 301.12 212.733 301.12C213.212 301.12 213.58 300.883 213.58 300.446C213.58 300 213.111 299.829 212.835 299.725C212.559 299.62 212.08 299.449 211.869 299.355C211.712 299.279 211.39 299.155 211.114 298.88C210.838 298.614 210.617 298.234 210.617 297.617C210.617 296.991 210.912 296.497 211.28 296.184C211.639 295.871 212.218 295.662 212.954 295.662C213.69 295.662 214.537 296.023 214.969 296.469L214.334 297.541C213.966 297.162 213.396 296.877 212.917 296.877C212.439 296.877 212.089 297.067 212.089 297.466C212.089 297.864 212.448 298.016 212.733 298.13C213.009 298.244 213.479 298.415 213.681 298.5C213.856 298.567 214.279 298.738 214.564 299.032C214.831 299.307 215.061 299.706 215.061 300.294Z" fill="#091B36"/>
<path d="M220.625 297.798C220.625 298.5 220.386 299.003 219.963 299.373C219.54 299.734 218.96 299.867 218.307 299.867H217.525V302.288H216.034V295.738H218.307C218.96 295.738 219.54 295.871 219.963 296.232C220.386 296.592 220.625 297.095 220.625 297.798ZM219.116 297.798C219.116 297.466 218.988 297.238 218.813 297.105C218.629 296.972 218.417 296.924 218.095 296.924H217.516V298.681H218.095C218.417 298.681 218.629 298.633 218.813 298.5C218.988 298.367 219.116 298.13 219.116 297.798Z" fill="#091B36"/>
</g>
<g opacity="0.5">
<g filter="url(#filter0_dd_7403_105350)">
<rect x="132.869" y="353.162" width="129.357" height="40.7971" rx="7.9604" fill="url(#paint5_linear_7403_105350)"/>
<rect x="132.231" y="352.524" width="130.632" height="42.0725" rx="8.59814" stroke="url(#paint6_linear_7403_105350)" stroke-width="1.27547"/>
</g>
<path fill-rule="evenodd" clip-rule="evenodd" d="M148.525 378.231C146.81 376.517 145.75 374.149 145.75 371.532C145.75 366.301 149.99 362.061 155.221 362.061C160.453 362.061 164.693 366.301 164.693 371.532C164.693 374.148 163.633 376.517 161.918 378.231L161.919 378.232L155.222 384.93L148.524 378.232L148.525 378.231Z" fill="#15C1E6"/>
<path d="M182.756 375.869C183.517 375.869 184.442 375.425 184.442 374.234C184.442 373.056 183.605 372.536 182.617 372.536C182.034 372.536 181.451 372.726 181.045 372.992L180.298 372.549L181.121 368.354H185.772L185.76 369.71H182.161L181.742 371.662C182.161 371.484 182.68 371.37 183.212 371.37C184.809 371.37 186.115 372.422 186.115 374.26C186.115 376.173 184.505 377.238 182.693 377.238C181.033 377.238 179.905 376.084 179.689 375.78L180.564 374.741C181.007 375.299 181.755 375.869 182.756 375.869ZM191.772 375.223H187.438V373.993L191.658 368.316H193.356V373.892H194.573V375.223H193.356V377.098H191.772V375.223ZM191.81 373.917V370.128L188.997 373.917H191.81ZM200.509 372.561C201.219 372.726 202.157 373.322 202.157 374.576C202.157 376.249 200.7 377.238 198.913 377.238C197.253 377.238 196.125 376.084 195.909 375.78L196.784 374.741C197.227 375.299 197.975 375.869 198.976 375.869C199.977 375.869 200.522 375.438 200.522 374.513C200.522 373.601 199.686 373.182 198.786 373.182H198.203V371.978H198.913C199.724 371.978 200.281 371.548 200.281 370.749C200.281 370.052 199.736 369.583 198.849 369.583C198.064 369.583 197.443 369.913 197.024 370.432L196.201 369.507C196.606 369.013 197.607 368.227 198.989 368.227C200.611 368.227 201.878 369.076 201.878 370.534C201.878 371.586 201.08 372.321 200.509 372.523V372.561ZM205.267 377.238C204.659 377.238 204.241 376.883 204.241 376.3C204.241 375.704 204.659 375.349 205.267 375.349C205.85 375.349 206.281 375.704 206.281 376.3C206.281 376.883 205.85 377.238 205.267 377.238ZM211.47 377.238C209.696 377.238 208.226 376.351 208.226 374.652C208.226 373.601 208.898 372.815 209.899 372.523V372.485C209.265 372.245 208.492 371.598 208.492 370.521C208.492 369.026 209.899 368.227 211.47 368.227C213.042 368.227 214.449 369.026 214.449 370.521C214.449 371.598 213.675 372.245 213.042 372.485V372.523C214.043 372.815 214.715 373.601 214.715 374.652C214.715 376.351 213.245 377.238 211.47 377.238ZM211.47 371.928C212.256 371.928 212.826 371.484 212.826 370.724C212.826 369.976 212.256 369.495 211.47 369.495C210.685 369.495 210.114 369.976 210.114 370.724C210.114 371.484 210.685 371.928 211.47 371.928ZM211.47 375.945C212.332 375.945 213.055 375.438 213.055 374.526C213.055 373.613 212.37 373.081 211.47 373.081C210.571 373.081 209.886 373.613 209.886 374.526C209.886 375.438 210.609 375.945 211.47 375.945ZM220.9 369.723H216.135V368.354H222.23L222.674 369.317L218.619 377.098H216.971L220.9 369.723ZM226.793 375.869C227.554 375.869 228.479 375.425 228.479 374.234C228.479 373.056 227.642 372.536 226.654 372.536C226.071 372.536 225.488 372.726 225.082 372.992L224.335 372.549L225.158 368.354H229.809L229.797 369.71H226.198L225.779 371.662C226.198 371.484 226.717 371.37 227.249 371.37C228.846 371.37 230.151 372.422 230.151 374.26C230.151 376.173 228.542 377.238 226.73 377.238C225.07 377.238 223.942 376.084 223.726 375.78L224.601 374.741C225.044 375.299 225.792 375.869 226.793 375.869ZM233.173 377.238C232.565 377.238 232.147 376.883 232.147 376.3C232.147 375.704 232.565 375.349 233.173 375.349C233.756 375.349 234.187 375.704 234.187 376.3C234.187 376.883 233.756 377.238 233.173 377.238ZM237.351 369.596H235.704V368.354H238.948V377.098H237.351V369.596ZM244.88 377.238C243.106 377.238 241.636 376.351 241.636 374.652C241.636 373.601 242.307 372.815 243.309 372.523V372.485C242.675 372.245 241.902 371.598 241.902 370.521C241.902 369.026 243.309 368.227 244.88 368.227C246.451 368.227 247.858 369.026 247.858 370.521C247.858 371.598 247.085 372.245 246.451 372.485V372.523C247.453 372.815 248.124 373.601 248.124 374.652C248.124 376.351 246.654 377.238 244.88 377.238ZM244.88 371.928C245.666 371.928 246.236 371.484 246.236 370.724C246.236 369.976 245.666 369.495 244.88 369.495C244.094 369.495 243.524 369.976 243.524 370.724C243.524 371.484 244.094 371.928 244.88 371.928ZM244.88 375.945C245.742 375.945 246.464 375.438 246.464 374.526C246.464 373.613 245.78 373.081 244.88 373.081C243.98 373.081 243.296 373.613 243.296 374.526C243.296 375.438 244.018 375.945 244.88 375.945Z" fill="white"/>
<g clip-path="url(#clip2_7403_105350)">
<mask id="mask1_7403_105350" style="mask-type:luminance" maskUnits="userSpaceOnUse" x="176" y="405" width="44" height="41">
<path d="M219.542 405.862H176.282V445.008H219.542V405.862Z" fill="white"/>
</mask>
<g mask="url(#mask1_7403_105350)">
<path d="M192.808 445.008H181.977C181.724 445.008 181.517 444.801 181.517 444.548V425.834C181.517 425.681 181.586 425.543 181.709 425.458L197.643 414.182C197.805 414.067 198.02 414.067 198.181 414.182L214.116 425.458C214.238 425.543 214.315 425.688 214.315 425.834V444.548C214.315 444.801 214.108 445.008 213.855 445.008H203.017" fill="#15C1E6"/>
<path d="M218.606 419.993L211.721 415.119V408.702C211.721 408.349 211.437 408.065 211.084 408.065H207.231C206.877 408.065 206.593 408.349 206.593 408.702V411.496L199.194 406.269C198.426 405.724 197.398 405.724 196.623 406.269L177.218 419.993C176.213 420.699 175.975 422.088 176.689 423.094C177.403 424.1 178.784 424.33 179.79 423.624L197.912 410.813L216.035 423.631C216.426 423.908 216.871 424.038 217.316 424.038C218.015 424.038 218.698 423.708 219.136 423.102C219.842 422.096 219.604 420.714 218.606 420.001V419.993Z" fill="#15C1E6"/>
</g>
</g>
<path d="M190.252 438.446H187.705V427.257H190.252V438.446Z" fill="#091B36"/>
<path d="M199.872 435.041C199.872 436.111 199.385 437.084 198.599 437.717C197.829 438.349 196.823 438.641 195.66 438.641C194.088 438.641 192.689 437.798 191.809 436.954L193.066 435.041C193.852 435.884 195.063 436.452 195.896 436.452C196.713 436.452 197.342 436.046 197.342 435.3C197.342 434.538 196.54 434.246 196.069 434.068C195.597 433.89 194.78 433.598 194.418 433.435C194.151 433.306 193.601 433.095 193.129 432.625C192.658 432.171 192.281 431.522 192.281 430.468C192.281 429.398 192.783 428.554 193.412 428.019C194.025 427.484 195.015 427.127 196.273 427.127C197.53 427.127 198.976 427.744 199.715 428.506L198.631 430.338C198.002 429.69 197.027 429.203 196.21 429.203C195.393 429.203 194.795 429.527 194.795 430.208C194.795 430.89 195.408 431.149 195.896 431.344C196.367 431.538 197.169 431.83 197.515 431.976C197.813 432.09 198.536 432.381 199.024 432.884C199.479 433.354 199.872 434.036 199.872 435.041Z" fill="#091B36"/>
<path d="M209.378 430.776C209.378 431.976 208.969 432.835 208.246 433.468C207.523 434.084 206.533 434.311 205.417 434.311H204.081V438.446H201.535V427.257H205.417C206.533 427.257 207.523 427.484 208.246 428.1C208.969 428.717 209.378 429.576 209.378 430.776ZM206.8 430.776C206.8 430.208 206.58 429.819 206.281 429.592C205.967 429.365 205.606 429.284 205.055 429.284H204.065V432.284H205.055C205.606 432.284 205.967 432.203 206.281 431.976C206.58 431.749 206.8 431.344 206.8 430.776Z" fill="#091B36"/>
</g>
<g opacity="0.3">
<g filter="url(#filter1_dd_7403_105350)">
<rect x="411.268" y="309.284" width="75.1869" height="23.7128" rx="4.62688" fill="url(#paint7_linear_7403_105350)"/>
<rect x="410.773" y="308.79" width="76.1754" height="24.7013" rx="5.12112" stroke="url(#paint8_linear_7403_105350)" stroke-width="0.988469"/>
</g>
<path fill-rule="evenodd" clip-rule="evenodd" d="M420.368 323.855C419.371 322.859 418.754 321.482 418.754 319.961C418.754 316.921 421.219 314.456 424.26 314.456C427.3 314.456 429.765 316.921 429.765 319.961C429.765 321.482 429.149 322.859 428.152 323.855L428.153 323.856L424.26 327.748L420.367 323.856L420.368 323.855Z" fill="#15C1E6"/>
<path d="M436.077 322.735C436.333 322.923 436.731 323.126 437.243 323.126C437.626 323.126 437.927 323.043 438.145 322.78C438.393 322.487 438.521 321.968 438.521 321.284C438.37 321.569 437.972 321.953 437.167 321.953C436.355 321.953 435.566 321.419 435.566 320.359C435.566 319.351 436.273 318.539 437.423 318.539C438.303 318.539 438.761 318.968 439.002 319.336C439.22 319.659 439.446 320.298 439.446 321.141C439.446 322.066 439.243 322.81 438.844 323.261C438.498 323.667 437.942 323.893 437.273 323.893C436.4 323.893 435.889 323.547 435.709 323.404L436.077 322.735ZM438.416 320.261C438.416 319.742 438.077 319.268 437.453 319.268C436.829 319.268 436.498 319.742 436.498 320.261C436.498 320.78 436.829 321.261 437.453 321.261C438.077 321.261 438.416 320.84 438.416 320.261ZM442.336 323.885C441.284 323.885 440.412 323.359 440.412 322.351C440.412 321.727 440.81 321.261 441.404 321.088V321.065C441.028 320.923 440.569 320.539 440.569 319.9C440.569 319.013 441.404 318.539 442.336 318.539C443.269 318.539 444.104 319.013 444.104 319.9C444.104 320.539 443.645 320.923 443.269 321.065V321.088C443.863 321.261 444.261 321.727 444.261 322.351C444.261 323.359 443.389 323.885 442.336 323.885ZM442.336 320.735C442.803 320.735 443.141 320.471 443.141 320.02C443.141 319.577 442.803 319.291 442.336 319.291C441.87 319.291 441.532 319.577 441.532 320.02C441.532 320.471 441.87 320.735 442.336 320.735ZM442.336 323.118C442.848 323.118 443.276 322.817 443.276 322.276C443.276 321.735 442.87 321.419 442.336 321.419C441.803 321.419 441.397 321.735 441.397 322.276C441.397 322.817 441.825 323.118 442.336 323.118ZM447.024 323.073C447.476 323.073 448.024 322.81 448.024 322.103C448.024 321.404 447.528 321.096 446.942 321.096C446.596 321.096 446.25 321.208 446.009 321.366L445.566 321.103L446.054 318.614H448.814L448.806 319.419H446.671L446.423 320.577C446.671 320.471 446.979 320.404 447.295 320.404C448.243 320.404 449.017 321.028 449.017 322.118C449.017 323.254 448.062 323.885 446.987 323.885C446.002 323.885 445.333 323.201 445.205 323.02L445.724 322.404C445.987 322.735 446.43 323.073 447.024 323.073ZM450.81 323.885C450.449 323.885 450.201 323.675 450.201 323.329C450.201 322.975 450.449 322.765 450.81 322.765C451.156 322.765 451.412 322.975 451.412 323.329C451.412 323.675 451.156 323.885 450.81 323.885ZM454.957 322.69H452.385V321.96L454.889 318.592H455.897V321.9H456.619V322.69H455.897V323.802H454.957V322.69ZM454.979 321.915V319.667L453.31 321.915H454.979ZM459.276 323.885C458.223 323.885 457.351 323.359 457.351 322.351C457.351 321.727 457.75 321.261 458.344 321.088V321.065C457.968 320.923 457.509 320.539 457.509 319.9C457.509 319.013 458.344 318.539 459.276 318.539C460.209 318.539 461.043 319.013 461.043 319.9C461.043 320.539 460.585 320.923 460.209 321.065V321.088C460.803 321.261 461.201 321.727 461.201 322.351C461.201 323.359 460.329 323.885 459.276 323.885ZM459.276 320.735C459.742 320.735 460.081 320.471 460.081 320.02C460.081 319.577 459.742 319.291 459.276 319.291C458.81 319.291 458.472 319.577 458.472 320.02C458.472 320.471 458.81 320.735 459.276 320.735ZM459.276 323.118C459.788 323.118 460.216 322.817 460.216 322.276C460.216 321.735 459.81 321.419 459.276 321.419C458.742 321.419 458.336 321.735 458.336 322.276C458.336 322.817 458.765 323.118 459.276 323.118ZM464.927 321.111C465.348 321.208 465.904 321.562 465.904 322.306C465.904 323.299 465.039 323.885 463.979 323.885C462.994 323.885 462.325 323.201 462.197 323.02L462.716 322.404C462.979 322.735 463.423 323.073 464.017 323.073C464.611 323.073 464.934 322.817 464.934 322.269C464.934 321.727 464.438 321.479 463.904 321.479H463.558V320.765H463.979C464.46 320.765 464.791 320.509 464.791 320.035C464.791 319.622 464.468 319.344 463.942 319.344C463.475 319.344 463.107 319.539 462.859 319.847L462.37 319.298C462.611 319.005 463.205 318.539 464.024 318.539C464.987 318.539 465.739 319.043 465.739 319.907C465.739 320.532 465.265 320.968 464.927 321.088V321.111ZM467.75 323.885C467.389 323.885 467.141 323.675 467.141 323.329C467.141 322.975 467.389 322.765 467.75 322.765C468.096 322.765 468.351 322.975 468.351 323.329C468.351 323.675 468.096 323.885 467.75 323.885ZM472.295 321.111C472.716 321.208 473.272 321.562 473.272 322.306C473.272 323.299 472.408 323.885 471.348 323.885C470.362 323.885 469.693 323.201 469.565 323.02L470.084 322.404C470.347 322.735 470.791 323.073 471.385 323.073C471.979 323.073 472.302 322.817 472.302 322.269C472.302 321.727 471.806 321.479 471.272 321.479H470.926V320.765H471.348C471.829 320.765 472.16 320.509 472.16 320.035C472.16 319.622 471.836 319.344 471.31 319.344C470.844 319.344 470.475 319.539 470.227 319.847L469.738 319.298C469.979 319.005 470.573 318.539 471.393 318.539C472.355 318.539 473.107 319.043 473.107 319.907C473.107 320.532 472.633 320.968 472.295 321.088V321.111ZM476.682 322.69H474.11V321.96L476.614 318.592H477.622V321.9H478.344V322.69H477.622V323.802H476.682V322.69ZM476.705 321.915V319.667L475.035 321.915H476.705Z" fill="white"/>
<g clip-path="url(#clip3_7403_105350)">
<mask id="mask2_7403_105350" style="mask-type:luminance" maskUnits="userSpaceOnUse" x="436" y="341" width="26" height="23">
<path d="M461.883 341.141H436.739V363.895H461.883V341.141Z" fill="white"/>
</mask>
<g mask="url(#mask2_7403_105350)">
<path d="M446.344 363.895H440.049C439.902 363.895 439.781 363.774 439.781 363.627V352.75C439.781 352.661 439.822 352.58 439.893 352.531L449.155 345.978C449.249 345.911 449.373 345.911 449.467 345.978L458.729 352.531C458.8 352.58 458.845 352.665 458.845 352.75V363.627C458.845 363.774 458.725 363.895 458.577 363.895H452.278" fill="#15C1E6"/>
<path d="M461.339 349.355L457.337 346.522V342.792C457.337 342.587 457.172 342.422 456.967 342.422H454.727C454.522 342.422 454.357 342.587 454.357 342.792V344.416L450.056 341.378C449.61 341.061 449.012 341.061 448.562 341.378L437.283 349.355C436.699 349.765 436.56 350.573 436.975 351.157C437.39 351.742 438.193 351.876 438.778 351.465L449.311 344.019L459.844 351.47C460.072 351.63 460.331 351.706 460.59 351.706C460.996 351.706 461.393 351.514 461.647 351.162C462.057 350.577 461.919 349.774 461.339 349.359V349.355Z" fill="#15C1E6"/>
</g>
</g>
<path d="M444.858 359.843H443.378V353.339H444.858V359.843Z" fill="#091B36"/>
<path d="M450.45 357.863C450.45 358.485 450.167 359.051 449.71 359.419C449.263 359.786 448.678 359.956 448.002 359.956C447.088 359.956 446.275 359.466 445.764 358.976L446.494 357.863C446.951 358.353 447.655 358.683 448.139 358.683C448.614 358.683 448.979 358.448 448.979 358.014C448.979 357.571 448.514 357.401 448.239 357.298C447.965 357.194 447.49 357.024 447.28 356.93C447.125 356.855 446.805 356.732 446.531 356.459C446.257 356.195 446.038 355.818 446.038 355.205C446.038 354.583 446.33 354.093 446.695 353.782C447.052 353.471 447.627 353.264 448.358 353.264C449.089 353.264 449.93 353.622 450.359 354.065L449.729 355.13C449.363 354.753 448.797 354.47 448.322 354.47C447.847 354.47 447.499 354.659 447.499 355.055C447.499 355.45 447.856 355.601 448.139 355.714C448.413 355.827 448.879 355.997 449.08 356.082C449.254 356.148 449.674 356.318 449.957 356.61C450.222 356.883 450.45 357.279 450.45 357.863Z" fill="#091B36"/>
<path d="M455.975 355.384C455.975 356.082 455.738 356.581 455.318 356.949C454.897 357.307 454.322 357.439 453.673 357.439H452.897V359.843H451.417V353.339H453.673C454.322 353.339 454.897 353.471 455.318 353.829C455.738 354.187 455.975 354.687 455.975 355.384ZM454.477 355.384C454.477 355.055 454.349 354.828 454.176 354.696C453.993 354.564 453.783 354.517 453.463 354.517H452.887V356.261H453.463C453.783 356.261 453.993 356.214 454.176 356.082C454.349 355.95 454.477 355.714 454.477 355.384Z" fill="#091B36"/>
</g>
<g opacity="0.3">
<g filter="url(#filter2_dd_7403_105350)">
<rect x="383.878" y="139.33" width="76.4194" height="24.1015" rx="4.70274" fill="url(#paint9_linear_7403_105350)"/>
<rect x="383.384" y="138.836" width="77.4079" height="25.09" rx="5.19697" stroke="url(#paint10_linear_7403_105350)" stroke-width="0.988469"/>
</g>
<path fill-rule="evenodd" clip-rule="evenodd" d="M393.126 154.141C392.113 153.128 391.486 151.729 391.486 150.183C391.486 147.093 393.992 144.588 397.082 144.588C400.172 144.588 402.678 147.093 402.678 150.183C402.678 151.729 402.051 153.128 401.038 154.141L401.039 154.141L397.082 158.098L393.125 154.141L393.126 154.141Z" fill="#15C1E6"/>
<path d="M411.534 152.86H408.962V152.13L411.466 148.761H412.474V152.07H413.196V152.86H412.474V153.972H411.534V152.86ZM411.557 152.085V149.837L409.887 152.085H411.557ZM415.756 153.243C416.207 153.243 416.756 152.98 416.756 152.273C416.756 151.574 416.259 151.265 415.673 151.265C415.327 151.265 414.981 151.378 414.741 151.536L414.297 151.273L414.786 148.784H417.545L417.538 149.589H415.402L415.154 150.747C415.402 150.641 415.711 150.574 416.026 150.574C416.974 150.574 417.748 151.198 417.748 152.288C417.748 153.423 416.793 154.055 415.718 154.055C414.733 154.055 414.064 153.371 413.936 153.19L414.455 152.574C414.718 152.905 415.162 153.243 415.756 153.243ZM420.639 154.055C419.586 154.055 418.714 153.529 418.714 152.521C418.714 151.897 419.113 151.431 419.707 151.258V151.235C419.331 151.092 418.872 150.709 418.872 150.07C418.872 149.183 419.707 148.709 420.639 148.709C421.571 148.709 422.406 149.183 422.406 150.07C422.406 150.709 421.947 151.092 421.571 151.235V151.258C422.166 151.431 422.564 151.897 422.564 152.521C422.564 153.529 421.692 154.055 420.639 154.055ZM420.639 150.905C421.105 150.905 421.444 150.641 421.444 150.19C421.444 149.747 421.105 149.461 420.639 149.461C420.173 149.461 419.835 149.747 419.835 150.19C419.835 150.641 420.173 150.905 420.639 150.905ZM420.639 153.288C421.15 153.288 421.579 152.987 421.579 152.446C421.579 151.905 421.173 151.589 420.639 151.589C420.105 151.589 419.699 151.905 419.699 152.446C419.699 152.987 420.128 153.288 420.639 153.288ZM424.327 154.055C423.966 154.055 423.718 153.845 423.718 153.499C423.718 153.145 423.966 152.935 424.327 152.935C424.673 152.935 424.928 153.145 424.928 153.499C424.928 153.845 424.673 154.055 424.327 154.055ZM429.429 149.867C429.15 149.641 428.774 149.476 428.338 149.476C427.947 149.476 427.677 149.604 427.451 149.859C427.225 150.122 427.03 150.604 427.03 151.288C427.331 150.897 427.729 150.634 428.414 150.634C429.226 150.634 429.985 151.16 429.985 152.243C429.985 153.251 429.278 154.063 428.128 154.063C427.21 154.063 426.729 153.514 426.511 153.183C426.293 152.86 426.105 152.348 426.105 151.476C426.105 150.544 426.398 149.822 426.789 149.378C427.158 148.957 427.624 148.709 428.308 148.709C429.038 148.709 429.511 148.965 429.797 149.168L429.429 149.867ZM429.053 152.318C429.053 151.799 428.707 151.348 428.09 151.348C427.511 151.348 427.135 151.799 427.135 152.318C427.135 152.845 427.511 153.303 428.143 153.303C428.759 153.303 429.053 152.845 429.053 152.318ZM433.584 151.28C434.006 151.378 434.562 151.732 434.562 152.476C434.562 153.469 433.697 154.055 432.637 154.055C431.652 154.055 430.983 153.371 430.855 153.19L431.374 152.574C431.637 152.905 432.081 153.243 432.675 153.243C433.269 153.243 433.592 152.987 433.592 152.438C433.592 151.897 433.096 151.649 432.562 151.649H432.216V150.935H432.637C433.118 150.935 433.449 150.679 433.449 150.205C433.449 149.792 433.126 149.513 432.599 149.513C432.133 149.513 431.765 149.709 431.517 150.017L431.028 149.468C431.268 149.175 431.862 148.709 432.682 148.709C433.645 148.709 434.397 149.213 434.397 150.077C434.397 150.701 433.923 151.138 433.584 151.258V151.28ZM435.678 153.348L437.475 151.687C437.889 151.303 438.265 150.874 438.265 150.363C438.265 149.844 437.934 149.513 437.347 149.513C436.693 149.513 436.325 149.927 436.077 150.205L435.626 149.611C435.791 149.371 436.325 148.709 437.423 148.709C438.528 148.709 439.242 149.318 439.242 150.235C439.242 151.123 438.543 151.777 438.22 152.085L437.062 153.168H439.46V153.972H435.806L435.678 153.348ZM441.193 154.055C440.832 154.055 440.584 153.845 440.584 153.499C440.584 153.145 440.832 152.935 441.193 152.935C441.539 152.935 441.795 153.145 441.795 153.499C441.795 153.845 441.539 154.055 441.193 154.055ZM442.629 151.386C442.629 150.025 443.276 148.709 444.727 148.709C446.178 148.709 446.817 150.025 446.817 151.386C446.817 152.747 446.178 154.063 444.727 154.063C443.268 154.063 442.629 152.747 442.629 151.386ZM445.825 151.371C445.825 150.31 445.479 149.551 444.727 149.551C443.975 149.551 443.622 150.31 443.622 151.371C443.622 152.423 443.975 153.19 444.727 153.19C445.479 153.19 445.825 152.423 445.825 151.371ZM450.377 151.28C450.798 151.378 451.355 151.732 451.355 152.476C451.355 153.469 450.49 154.055 449.43 154.055C448.445 154.055 447.776 153.371 447.648 153.19L448.167 152.574C448.43 152.905 448.873 153.243 449.467 153.243C450.061 153.243 450.385 152.987 450.385 152.438C450.385 151.897 449.889 151.649 449.355 151.649H449.009V150.935H449.43C449.911 150.935 450.242 150.679 450.242 150.205C450.242 149.792 449.919 149.513 449.392 149.513C448.926 149.513 448.558 149.709 448.309 150.017L447.821 149.468C448.061 149.175 448.655 148.709 449.475 148.709C450.437 148.709 451.189 149.213 451.189 150.077C451.189 150.701 450.716 151.138 450.377 151.258V151.28Z" fill="white"/>
<g clip-path="url(#clip4_7403_105350)">
<mask id="mask3_7403_105350" style="mask-type:luminance" maskUnits="userSpaceOnUse" x="409" y="171" width="26" height="24">
<path d="M434.996 171.354H409.439V194.48H434.996V171.354Z" fill="white"/>
</mask>
<g mask="url(#mask3_7403_105350)">
<path d="M419.202 194.48H412.804C412.654 194.48 412.532 194.358 412.532 194.208V183.153C412.532 183.062 412.573 182.981 412.645 182.931L422.059 176.27C422.154 176.202 422.281 176.202 422.376 176.27L431.79 182.931C431.863 182.981 431.908 183.067 431.908 183.153V194.208C431.908 194.358 431.786 194.48 431.636 194.48H425.233" fill="#15C1E6"/>
<path d="M434.443 179.702L430.375 176.823V173.032C430.375 172.823 430.208 172.655 429.999 172.655H427.723C427.514 172.655 427.346 172.823 427.346 173.032V174.682L422.975 171.594C422.521 171.272 421.914 171.272 421.456 171.594L409.992 179.702C409.398 180.119 409.258 180.94 409.68 181.534C410.101 182.128 410.917 182.264 411.511 181.847L422.218 174.279L432.924 181.852C433.155 182.015 433.418 182.092 433.681 182.092C434.094 182.092 434.497 181.897 434.756 181.539C435.173 180.945 435.032 180.128 434.443 179.707V179.702Z" fill="#15C1E6"/>
</g>
</g>
<path d="M417.692 190.69H416.188V184.08H417.692V190.69Z" fill="#091B36"/>
<path d="M423.376 188.678C423.376 189.31 423.088 189.885 422.623 190.259C422.168 190.632 421.574 190.805 420.887 190.805C419.958 190.805 419.132 190.307 418.612 189.808L419.355 188.678C419.819 189.176 420.534 189.511 421.026 189.511C421.509 189.511 421.881 189.272 421.881 188.831C421.881 188.381 421.407 188.209 421.128 188.103C420.85 187.998 420.367 187.825 420.153 187.73C419.996 187.653 419.671 187.528 419.392 187.251C419.113 186.982 418.891 186.599 418.891 185.976C418.891 185.344 419.188 184.846 419.559 184.53C419.921 184.214 420.506 184.003 421.249 184.003C421.992 184.003 422.846 184.367 423.283 184.817L422.642 185.9C422.271 185.517 421.695 185.229 421.212 185.229C420.729 185.229 420.376 185.421 420.376 185.823C420.376 186.226 420.738 186.379 421.026 186.494C421.305 186.609 421.778 186.781 421.983 186.867C422.159 186.934 422.586 187.107 422.874 187.404C423.143 187.682 423.376 188.084 423.376 188.678Z" fill="#091B36"/>
<path d="M428.991 186.158C428.991 186.867 428.75 187.375 428.323 187.749C427.895 188.113 427.31 188.247 426.651 188.247H425.862V190.69H424.358V184.08H426.651C427.31 184.08 427.895 184.214 428.323 184.578C428.75 184.942 428.991 185.45 428.991 186.158ZM427.468 186.158C427.468 185.823 427.338 185.593 427.162 185.459C426.976 185.325 426.763 185.277 426.438 185.277H425.853V187.049H426.438C426.763 187.049 426.976 187.001 427.162 186.867C427.338 186.733 427.468 186.494 427.468 186.158Z" fill="#091B36"/>
</g>
<g opacity="0.7">
<g filter="url(#filter3_dd_7403_105350)">
<rect x="98.0471" y="158.994" width="109.02" height="34.3833" rx="6.70894" fill="url(#paint11_linear_7403_105350)"/>
<rect x="97.3124" y="158.26" width="110.49" height="35.8527" rx="7.44364" stroke="url(#paint12_linear_7403_105350)" stroke-width="1.4694"/>
</g>
<path fill-rule="evenodd" clip-rule="evenodd" d="M111.241 180.122C109.796 178.678 108.902 176.681 108.902 174.477C108.902 170.068 112.476 166.494 116.885 166.494C121.294 166.494 124.868 170.068 124.868 174.477C124.868 176.681 123.974 178.677 122.529 180.122L122.53 180.123L116.885 185.768L111.24 180.123L111.241 180.122Z" fill="#15C1E6"/>
<path d="M141.776 173.523H137.659V172.341H142.926L143.309 173.173L139.805 179.896H138.381L141.776 173.523ZM146.868 178.834C147.525 178.834 148.324 178.451 148.324 177.421C148.324 176.403 147.602 175.954 146.748 175.954C146.244 175.954 145.74 176.118 145.39 176.348L144.744 175.965L145.456 172.341H149.474L149.463 173.512H146.353L145.992 175.199C146.353 175.045 146.802 174.947 147.262 174.947C148.642 174.947 149.77 175.856 149.77 177.443C149.77 179.097 148.379 180.016 146.813 180.016C145.379 180.016 144.404 179.02 144.218 178.757L144.974 177.859C145.357 178.341 146.003 178.834 146.868 178.834ZM154.658 178.275H150.913V177.213L154.56 172.308H156.027V177.126H157.078V178.275H156.027V179.896H154.658V178.275ZM154.691 177.148V173.874L152.26 177.148H154.691ZM159.35 180.016C158.824 180.016 158.463 179.71 158.463 179.206C158.463 178.692 158.824 178.385 159.35 178.385C159.853 178.385 160.226 178.692 160.226 179.206C160.226 179.71 159.853 180.016 159.35 180.016ZM162.959 173.414H161.536V172.341H164.339V179.896H162.959V173.414ZM170.724 175.976C171.337 176.118 172.147 176.633 172.147 177.717C172.147 179.162 170.888 180.016 169.344 180.016C167.91 180.016 166.935 179.02 166.749 178.757L167.505 177.859C167.888 178.341 168.534 178.834 169.399 178.834C170.264 178.834 170.735 178.462 170.735 177.662C170.735 176.874 170.012 176.513 169.235 176.513H168.731V175.472H169.344C170.045 175.472 170.527 175.1 170.527 174.41C170.527 173.808 170.056 173.403 169.289 173.403C168.611 173.403 168.074 173.687 167.713 174.136L167.001 173.337C167.351 172.91 168.216 172.231 169.41 172.231C170.811 172.231 171.906 172.965 171.906 174.224C171.906 175.133 171.217 175.768 170.724 175.943V175.976ZM173.773 178.987L176.39 176.567C176.992 176.009 177.539 175.385 177.539 174.64C177.539 173.885 177.058 173.403 176.204 173.403C175.251 173.403 174.714 174.005 174.353 174.41L173.696 173.545C173.937 173.195 174.714 172.231 176.313 172.231C177.923 172.231 178.963 173.118 178.963 174.454C178.963 175.746 177.945 176.699 177.474 177.148L175.787 178.724H179.28V179.896H173.959L173.773 178.987ZM181.804 180.016C181.278 180.016 180.917 179.71 180.917 179.206C180.917 178.692 181.278 178.385 181.804 178.385C182.307 178.385 182.68 178.692 182.68 179.206C182.68 179.71 182.307 180.016 181.804 180.016ZM183.895 176.129C183.895 174.147 184.836 172.231 186.95 172.231C189.063 172.231 189.994 174.147 189.994 176.129C189.994 178.111 189.063 180.027 186.95 180.027C184.825 180.027 183.895 178.111 183.895 176.129ZM188.548 176.107C188.548 174.563 188.045 173.458 186.95 173.458C185.855 173.458 185.34 174.563 185.34 176.107C185.34 177.64 185.855 178.757 186.95 178.757C188.045 178.757 188.548 177.64 188.548 176.107ZM192.714 173.414H191.291V172.341H194.094V179.896H192.714V173.414Z" fill="white"/>
<g clip-path="url(#clip5_7403_105350)">
<mask id="mask4_7403_105350" style="mask-type:luminance" maskUnits="userSpaceOnUse" x="133" y="202" width="38" height="34">
<path d="M170.44 202.795H133.98V235.787H170.44V202.795Z" fill="white"/>
</mask>
<g mask="url(#mask4_7403_105350)">
<path d="M147.908 235.787H138.78C138.567 235.787 138.392 235.613 138.392 235.399V219.628C138.392 219.498 138.45 219.382 138.554 219.311L151.983 209.808C152.119 209.711 152.3 209.711 152.436 209.808L165.866 219.311C165.97 219.382 166.034 219.505 166.034 219.628V235.399C166.034 235.613 165.86 235.787 165.646 235.787H156.512" fill="#15C1E6"/>
<path d="M169.65 214.705L163.848 210.597V205.189C163.848 204.891 163.608 204.652 163.311 204.652H160.063C159.766 204.652 159.526 204.891 159.526 205.189V207.544L153.29 203.138C152.643 202.679 151.776 202.679 151.123 203.138L134.769 214.705C133.922 215.3 133.721 216.471 134.323 217.318C134.925 218.166 136.089 218.36 136.936 217.765L152.21 206.968L167.483 217.771C167.813 218.004 168.188 218.114 168.564 218.114C169.152 218.114 169.728 217.836 170.097 217.325C170.692 216.477 170.491 215.313 169.65 214.711V214.705Z" fill="#15C1E6"/>
</g>
</g>
<path d="M145.754 230.912H143.608V221.482H145.754V230.912Z" fill="#091B36"/>
<path d="M153.862 228.042C153.862 228.944 153.451 229.764 152.789 230.297C152.14 230.83 151.292 231.076 150.312 231.076C148.987 231.076 147.808 230.365 147.066 229.655L148.126 228.042C148.788 228.753 149.808 229.231 150.51 229.231C151.199 229.231 151.729 228.889 151.729 228.261C151.729 227.618 151.053 227.372 150.656 227.222C150.259 227.072 149.57 226.826 149.265 226.689C149.04 226.58 148.576 226.402 148.179 226.006C147.781 225.623 147.464 225.076 147.464 224.188C147.464 223.286 147.887 222.575 148.417 222.124C148.934 221.673 149.769 221.372 150.828 221.372C151.888 221.372 153.107 221.892 153.729 222.534L152.815 224.079C152.285 223.532 151.464 223.122 150.775 223.122C150.086 223.122 149.583 223.395 149.583 223.969C149.583 224.543 150.1 224.762 150.51 224.926C150.908 225.09 151.583 225.336 151.875 225.459C152.126 225.555 152.736 225.801 153.147 226.224C153.531 226.621 153.862 227.195 153.862 228.042Z" fill="#091B36"/>
<path d="M161.873 224.448C161.873 225.459 161.529 226.183 160.919 226.716C160.31 227.236 159.475 227.427 158.535 227.427H157.409V230.912H155.263V221.482H158.535C159.475 221.482 160.31 221.673 160.919 222.192C161.529 222.712 161.873 223.436 161.873 224.448ZM159.701 224.448C159.701 223.969 159.515 223.641 159.263 223.45C158.998 223.258 158.694 223.19 158.23 223.19H157.396V225.719H158.23C158.694 225.719 158.998 225.65 159.263 225.459C159.515 225.268 159.701 224.926 159.701 224.448Z" fill="#091B36"/>
</g>
<g filter="url(#filter4_dd_7403_105350)">
<rect x="187.459" y="191.308" width="248.373" height="78.3332" rx="15.2845" fill="url(#paint13_linear_7403_105350)"/>
<rect x="185.985" y="189.835" width="251.321" height="81.2808" rx="16.7583" stroke="url(#paint14_linear_7403_105350)" stroke-width="2.9476"/>
</g>
<path fill-rule="evenodd" clip-rule="evenodd" d="M217.518 239.443C214.226 236.151 212.189 231.604 212.189 226.581C212.189 216.536 220.332 208.394 230.376 208.394C240.42 208.394 248.562 216.536 248.562 226.581C248.562 231.604 246.526 236.151 243.234 239.442L243.236 239.445L230.376 252.305L217.516 239.445L217.518 239.443Z" fill="#15C1E6"/>
<path d="M276.688 234.62C277.532 235.241 278.849 235.911 280.537 235.911C281.804 235.911 282.798 235.638 283.518 234.769C284.338 233.8 284.76 232.086 284.76 229.826C284.263 230.77 282.947 232.036 280.289 232.036C277.607 232.036 274.999 230.273 274.999 226.771C274.999 223.443 277.333 220.76 281.134 220.76C284.04 220.76 285.555 222.176 286.349 223.393C287.07 224.461 287.815 226.572 287.815 229.354C287.815 232.409 287.144 234.868 285.828 236.358C284.685 237.699 282.847 238.445 280.637 238.445C277.756 238.445 276.067 237.302 275.471 236.83L276.688 234.62ZM284.412 226.448C284.412 224.734 283.294 223.17 281.233 223.17C279.171 223.17 278.079 224.734 278.079 226.448C278.079 228.162 279.171 229.751 281.233 229.751C283.294 229.751 284.412 228.361 284.412 226.448ZM297.363 238.42C293.886 238.42 291.005 236.681 291.005 233.353C291.005 231.291 292.321 229.751 294.284 229.18V229.106C293.042 228.634 291.527 227.367 291.527 225.256C291.527 222.325 294.284 220.76 297.363 220.76C300.443 220.76 303.2 222.325 303.2 225.256C303.2 227.367 301.685 228.634 300.443 229.106V229.18C302.405 229.751 303.722 231.291 303.722 233.353C303.722 236.681 300.841 238.42 297.363 238.42ZM297.363 228.013C298.903 228.013 300.021 227.144 300.021 225.653C300.021 224.188 298.903 223.244 297.363 223.244C295.824 223.244 294.706 224.188 294.706 225.653C294.706 227.144 295.824 228.013 297.363 228.013ZM297.363 235.886C299.052 235.886 300.468 234.893 300.468 233.105C300.468 231.316 299.127 230.273 297.363 230.273C295.6 230.273 294.259 231.316 294.259 233.105C294.259 234.893 295.675 235.886 297.363 235.886ZM317.865 224.585C316.946 223.84 315.704 223.294 314.264 223.294C312.972 223.294 312.078 223.716 311.333 224.56C310.588 225.43 309.942 227.019 309.942 229.28C310.936 227.988 312.252 227.119 314.512 227.119C317.195 227.119 319.703 228.857 319.703 232.434C319.703 235.762 317.369 238.445 313.568 238.445C310.538 238.445 308.949 236.631 308.228 235.539C307.508 234.471 306.887 232.782 306.887 229.9C306.887 226.821 307.856 224.436 309.147 222.971C310.364 221.58 311.904 220.76 314.165 220.76C316.574 220.76 318.139 221.605 319.082 222.275L317.865 224.585ZM316.623 232.682C316.623 230.968 315.481 229.478 313.444 229.478C311.532 229.478 310.29 230.968 310.29 232.682C310.29 234.421 311.532 235.936 313.618 235.936C315.655 235.936 316.623 234.421 316.623 232.682ZM325.352 238.42C324.16 238.42 323.341 237.724 323.341 236.582C323.341 235.414 324.16 234.719 325.352 234.719C326.495 234.719 327.339 235.414 327.339 236.582C327.339 237.724 326.495 238.42 325.352 238.42ZM339.05 234.471H330.555V232.061L338.826 220.934H342.154V231.863H344.539V234.471H342.154V238.146H339.05V234.471ZM339.124 231.912V224.486L333.61 231.912H339.124ZM353.317 238.42C349.84 238.42 346.959 236.681 346.959 233.353C346.959 231.291 348.275 229.751 350.238 229.18V229.106C348.996 228.634 347.481 227.367 347.481 225.256C347.481 222.325 350.238 220.76 353.317 220.76C356.397 220.76 359.154 222.325 359.154 225.256C359.154 227.367 357.639 228.634 356.397 229.106V229.18C358.359 229.751 359.676 231.291 359.676 233.353C359.676 236.681 356.795 238.42 353.317 238.42ZM353.317 228.013C354.857 228.013 355.975 227.144 355.975 225.653C355.975 224.188 354.857 223.244 353.317 223.244C351.777 223.244 350.66 224.188 350.66 225.653C350.66 227.144 351.777 228.013 353.317 228.013ZM353.317 235.886C355.006 235.886 356.422 234.893 356.422 233.105C356.422 231.316 355.081 230.273 353.317 230.273C351.554 230.273 350.213 231.316 350.213 233.105C350.213 234.893 351.628 235.886 353.317 235.886ZM373.819 224.585C372.9 223.84 371.658 223.294 370.218 223.294C368.926 223.294 368.032 223.716 367.287 224.56C366.542 225.43 365.896 227.019 365.896 229.28C366.89 227.988 368.206 227.119 370.466 227.119C373.149 227.119 375.657 228.857 375.657 232.434C375.657 235.762 373.322 238.445 369.522 238.445C366.492 238.445 364.903 236.631 364.182 235.539C363.462 234.471 362.841 232.782 362.841 229.9C362.841 226.821 363.81 224.436 365.101 222.971C366.318 221.58 367.858 220.76 370.118 220.76C372.528 220.76 374.092 221.605 375.036 222.275L373.819 224.585ZM372.577 232.682C372.577 230.968 371.435 229.478 369.398 229.478C367.486 229.478 366.244 230.968 366.244 232.682C366.244 234.421 367.486 235.936 369.572 235.936C371.609 235.936 372.577 234.421 372.577 232.682ZM381.306 238.42C380.114 238.42 379.294 237.724 379.294 236.582C379.294 235.414 380.114 234.719 381.306 234.719C382.449 234.719 383.293 235.414 383.293 236.582C383.293 237.724 382.449 238.42 381.306 238.42ZM387.428 236.085L393.364 230.596C394.73 229.329 395.972 227.913 395.972 226.225C395.972 224.511 394.879 223.418 392.942 223.418C390.781 223.418 389.564 224.784 388.745 225.703L387.254 223.741C387.801 222.946 389.564 220.76 393.19 220.76C396.842 220.76 399.201 222.772 399.201 225.802C399.201 228.733 396.891 230.894 395.823 231.912L391.998 235.489H399.921V238.146H387.85L387.428 236.085ZM406.539 223.443H403.31V221.009H409.669V238.146H406.539V223.443Z" fill="white"/>
<g clip-path="url(#clip6_7403_105350)">
<mask id="mask5_7403_105350" style="mask-type:luminance" maskUnits="userSpaceOnUse" x="241" y="290" width="142" height="128">
<path d="M382.45 290.01H241.204V417.822H382.45V290.01Z" fill="white"/>
</mask>
<g mask="url(#mask5_7403_105350)">
<path d="M295.161 417.823H259.8C258.973 417.823 258.296 417.146 258.296 416.319V355.219C258.296 354.718 258.522 354.267 258.922 353.991L310.95 317.176C311.476 316.8 312.178 316.8 312.704 317.176L364.731 353.991C365.132 354.267 365.383 354.743 365.383 355.219V416.319C365.383 417.146 364.706 417.823 363.879 417.823H328.493" fill="#15C1E6"/>
<path d="M379.392 336.148L356.912 320.234V299.282C356.912 298.13 355.985 297.202 354.832 297.202H342.251C341.099 297.202 340.171 298.13 340.171 299.282V308.405L316.012 291.338C313.506 289.559 310.148 289.559 307.617 291.338L244.262 336.148C240.979 338.453 240.202 342.989 242.532 346.272C244.863 349.556 249.374 350.307 252.657 348.002L311.827 306.174L370.997 348.027C372.275 348.929 373.728 349.355 375.182 349.355C377.463 349.355 379.693 348.277 381.122 346.298C383.427 343.015 382.65 338.503 379.392 336.173V336.148Z" fill="#15C1E6"/>
</g>
</g>
<path d="M286.815 397.408H278.501V360.875H286.815V397.408Z" fill="#091B36"/>
<path d="M318.227 386.289C318.227 389.784 316.636 392.96 314.07 395.025C311.555 397.09 308.271 398.043 304.473 398.043C299.341 398.043 294.774 395.29 291.9 392.537L296.006 386.289C298.572 389.042 302.523 390.895 305.243 390.895C307.912 390.895 309.964 389.572 309.964 387.136C309.964 384.648 307.347 383.695 305.808 383.112C304.268 382.53 301.599 381.577 300.419 381.047C299.547 380.624 297.75 379.935 296.211 378.4C294.671 376.918 293.44 374.8 293.44 371.358C293.44 367.864 295.082 365.11 297.135 363.363C299.136 361.616 302.369 360.451 306.475 360.451C310.58 360.451 315.302 362.463 317.714 364.952L314.173 370.935C312.12 368.817 308.938 367.228 306.269 367.228C303.601 367.228 301.651 368.287 301.651 370.511C301.651 372.735 303.652 373.582 305.243 374.217C306.783 374.853 309.4 375.806 310.529 376.282C311.504 376.653 313.865 377.606 315.456 379.247C316.944 380.783 318.227 383.006 318.227 386.289Z" fill="#091B36"/>
<path d="M349.263 372.364C349.263 376.282 347.928 379.088 345.568 381.153C343.207 383.165 339.974 383.906 336.33 383.906H331.968V397.408H323.654V360.875H336.33C339.974 360.875 343.207 361.616 345.568 363.628C347.928 365.64 349.263 368.446 349.263 372.364ZM340.846 372.364C340.846 370.511 340.128 369.24 339.153 368.499C338.126 367.758 336.946 367.493 335.15 367.493H331.917V377.288H335.15C336.946 377.288 338.126 377.023 339.153 376.282C340.128 375.541 340.846 374.217 340.846 372.364Z" fill="#091B36"/>
</g>
<defs>
<filter id="filter0_dd_7403_105350" x="126.221" y="346.514" width="148.794" height="60.2347" filterUnits="userSpaceOnUse" color-interpolation-filters="sRGB">
<feFlood flood-opacity="0" result="BackgroundImageFix"/>
<feColorMatrix in="SourceAlpha" type="matrix" values="0 0 0 0 0 0 0 0 0 0 0 0 0 0 0 0 0 0 127 0" result="hardAlpha"/>
<feOffset dx="3.83788" dy="3.83788"/>
<feGaussianBlur stdDeviation="3.83788"/>
<feColorMatrix type="matrix" values="0 0 0 0 0 0 0 0 0 0.296699 0 0 0 0 0.858629 0 0 0 0.08 0"/>
<feBlend mode="normal" in2="BackgroundImageFix" result="effect1_dropShadow_7403_105350"/>
<feColorMatrix in="SourceAlpha" type="matrix" values="0 0 0 0 0 0 0 0 0 0 0 0 0 0 0 0 0 0 127 0" result="hardAlpha"/>
<feOffset/>
<feGaussianBlur stdDeviation="2.68652"/>
<feComposite in2="hardAlpha" operator="out"/>
<feColorMatrix type="matrix" values="0 0 0 0 0.0354167 0 0 0 0 0.105426 0 0 0 0 0.2125 0 0 0 0.07 0"/>
<feBlend mode="normal" in2="effect1_dropShadow_7403_105350" result="effect2_dropShadow_7403_105350"/>
<feBlend mode="normal" in="SourceGraphic" in2="effect2_dropShadow_7403_105350" result="shape"/>
</filter>
<filter id="filter1_dd_7403_105350" x="407.156" y="305.172" width="86.979" height="35.505" filterUnits="userSpaceOnUse" color-interpolation-filters="sRGB">
<feFlood flood-opacity="0" result="BackgroundImageFix"/>
<feColorMatrix in="SourceAlpha" type="matrix" values="0 0 0 0 0 0 0 0 0 0 0 0 0 0 0 0 0 0 127 0" result="hardAlpha"/>
<feOffset dx="2.23072" dy="2.23072"/>
<feGaussianBlur stdDeviation="2.23072"/>
<feColorMatrix type="matrix" values="0 0 0 0 0 0 0 0 0 0.296699 0 0 0 0 0.858629 0 0 0 0.08 0"/>
<feBlend mode="normal" in2="BackgroundImageFix" result="effect1_dropShadow_7403_105350"/>
<feColorMatrix in="SourceAlpha" type="matrix" values="0 0 0 0 0 0 0 0 0 0 0 0 0 0 0 0 0 0 127 0" result="hardAlpha"/>
<feOffset/>
<feGaussianBlur stdDeviation="1.5615"/>
<feComposite in2="hardAlpha" operator="out"/>
<feColorMatrix type="matrix" values="0 0 0 0 0.0354167 0 0 0 0 0.105426 0 0 0 0 0.2125 0 0 0 0.07 0"/>
<feBlend mode="normal" in2="effect1_dropShadow_7403_105350" result="effect2_dropShadow_7403_105350"/>
<feBlend mode="normal" in="SourceGraphic" in2="effect2_dropShadow_7403_105350" result="shape"/>
</filter>
<filter id="filter2_dd_7403_105350" x="379.716" y="135.168" width="88.3724" height="36.0546" filterUnits="userSpaceOnUse" color-interpolation-filters="sRGB">
<feFlood flood-opacity="0" result="BackgroundImageFix"/>
<feColorMatrix in="SourceAlpha" type="matrix" values="0 0 0 0 0 0 0 0 0 0 0 0 0 0 0 0 0 0 127 0" result="hardAlpha"/>
<feOffset dx="2.26729" dy="2.26729"/>
<feGaussianBlur stdDeviation="2.26729"/>
<feColorMatrix type="matrix" values="0 0 0 0 0 0 0 0 0 0.296699 0 0 0 0 0.858629 0 0 0 0.08 0"/>
<feBlend mode="normal" in2="BackgroundImageFix" result="effect1_dropShadow_7403_105350"/>
<feColorMatrix in="SourceAlpha" type="matrix" values="0 0 0 0 0 0 0 0 0 0 0 0 0 0 0 0 0 0 127 0" result="hardAlpha"/>
<feOffset/>
<feGaussianBlur stdDeviation="1.5871"/>
<feComposite in2="hardAlpha" operator="out"/>
<feColorMatrix type="matrix" values="0 0 0 0 0.0354167 0 0 0 0 0.105426 0 0 0 0 0.2125 0 0 0 0.07 0"/>
<feBlend mode="normal" in2="effect1_dropShadow_7403_105350" result="effect2_dropShadow_7403_105350"/>
<feBlend mode="normal" in="SourceGraphic" in2="effect2_dropShadow_7403_105350" result="shape"/>
</filter>
<filter id="filter3_dd_7403_105350" x="92.0494" y="152.997" width="126.191" height="51.5539" filterUnits="userSpaceOnUse" color-interpolation-filters="sRGB">
<feFlood flood-opacity="0" result="BackgroundImageFix"/>
<feColorMatrix in="SourceAlpha" type="matrix" values="0 0 0 0 0 0 0 0 0 0 0 0 0 0 0 0 0 0 127 0" result="hardAlpha"/>
<feOffset dx="3.23452" dy="3.23452"/>
<feGaussianBlur stdDeviation="3.23452"/>
<feColorMatrix type="matrix" values="0 0 0 0 0 0 0 0 0 0.296699 0 0 0 0 0.858629 0 0 0 0.08 0"/>
<feBlend mode="normal" in2="BackgroundImageFix" result="effect1_dropShadow_7403_105350"/>
<feColorMatrix in="SourceAlpha" type="matrix" values="0 0 0 0 0 0 0 0 0 0 0 0 0 0 0 0 0 0 127 0" result="hardAlpha"/>
<feOffset/>
<feGaussianBlur stdDeviation="2.26416"/>
<feComposite in2="hardAlpha" operator="out"/>
<feColorMatrix type="matrix" values="0 0 0 0 0.0354167 0 0 0 0 0.105426 0 0 0 0 0.2125 0 0 0 0.07 0"/>
<feBlend mode="normal" in2="effect1_dropShadow_7403_105350" result="effect2_dropShadow_7403_105350"/>
<feBlend mode="normal" in="SourceGraphic" in2="effect2_dropShadow_7403_105350" result="shape"/>
</filter>
<filter id="filter4_dd_7403_105350" x="174.195" y="178.044" width="286.692" height="116.652" filterUnits="userSpaceOnUse" color-interpolation-filters="sRGB">
<feFlood flood-opacity="0" result="BackgroundImageFix"/>
<feColorMatrix in="SourceAlpha" type="matrix" values="0 0 0 0 0 0 0 0 0 0 0 0 0 0 0 0 0 0 127 0" result="hardAlpha"/>
<feOffset dx="7.36899" dy="7.36899"/>
<feGaussianBlur stdDeviation="7.36899"/>
<feColorMatrix type="matrix" values="0 0 0 0 0 0 0 0 0 0.296699 0 0 0 0 0.858629 0 0 0 0.08 0"/>
<feBlend mode="normal" in2="BackgroundImageFix" result="effect1_dropShadow_7403_105350"/>
<feColorMatrix in="SourceAlpha" type="matrix" values="0 0 0 0 0 0 0 0 0 0 0 0 0 0 0 0 0 0 127 0" result="hardAlpha"/>
<feOffset/>
<feGaussianBlur stdDeviation="5.15829"/>
<feComposite in2="hardAlpha" operator="out"/>
<feColorMatrix type="matrix" values="0 0 0 0 0.0354167 0 0 0 0 0.105426 0 0 0 0 0.2125 0 0 0 0.07 0"/>
<feBlend mode="normal" in2="effect1_dropShadow_7403_105350" result="effect2_dropShadow_7403_105350"/>
<feBlend mode="normal" in="SourceGraphic" in2="effect2_dropShadow_7403_105350" result="shape"/>
</filter>
<radialGradient id="paint0_radial_7403_105350" cx="0" cy="0" r="1" gradientUnits="userSpaceOnUse" gradientTransform="translate(77.0429 198.329) rotate(8.17489) scale(320.481 362.577)">
<stop stop-color="#15C1E6"/>
<stop offset="0.869792" stop-color="#15C1E6" stop-opacity="0"/>
</radialGradient>
<linearGradient id="paint1_linear_7403_105350" x1="420.441" y1="166.94" x2="420.434" y2="166.959" gradientUnits="userSpaceOnUse">
<stop stop-color="#15C1E6"/>
<stop offset="1" stop-color="#15C1E6" stop-opacity="0"/>
</linearGradient>
<radialGradient id="paint2_radial_7403_105350" cx="0" cy="0" r="1" gradientUnits="userSpaceOnUse" gradientTransform="translate(570.24 246.216) rotate(148.448) scale(248.679 186.697)">
<stop stop-color="#15C1E6"/>
<stop offset="1" stop-color="#15C1E6" stop-opacity="0"/>
</radialGradient>
<linearGradient id="paint3_linear_7403_105350" x1="423.443" y1="168.696" x2="422.903" y2="169.885" gradientUnits="userSpaceOnUse">
<stop stop-color="#15C1E6"/>
<stop offset="1" stop-color="#15C1E6" stop-opacity="0"/>
</linearGradient>
<linearGradient id="paint4_linear_7403_105350" x1="421.147" y1="166.558" x2="420.591" y2="167.873" gradientUnits="userSpaceOnUse">
<stop stop-color="#15C1E6"/>
<stop offset="1" stop-color="#15C1E6" stop-opacity="0"/>
</linearGradient>
<linearGradient id="paint5_linear_7403_105350" x1="269.875" y1="335.853" x2="245.824" y2="425.623" gradientUnits="userSpaceOnUse">
<stop stop-color="#0A479C"/>
<stop offset="1" stop-color="#091B36"/>
</linearGradient>
<linearGradient id="paint6_linear_7403_105350" x1="147.312" y1="391.739" x2="178.202" y2="318.282" gradientUnits="userSpaceOnUse">
<stop stop-color="#1B4582"/>
<stop offset="1" stop-color="#3160A6"/>
</linearGradient>
<linearGradient id="paint7_linear_7403_105350" x1="490.901" y1="299.223" x2="476.921" y2="351.401" gradientUnits="userSpaceOnUse">
<stop stop-color="#0A479C"/>
<stop offset="1" stop-color="#091B36"/>
</linearGradient>
<linearGradient id="paint8_linear_7403_105350" x1="419.663" y1="331.706" x2="437.617" y2="289.01" gradientUnits="userSpaceOnUse">
<stop stop-color="#1B4582"/>
<stop offset="1" stop-color="#3160A6"/>
</linearGradient>
<linearGradient id="paint9_linear_7403_105350" x1="464.817" y1="129.105" x2="450.609" y2="182.138" gradientUnits="userSpaceOnUse">
<stop stop-color="#0A479C"/>
<stop offset="1" stop-color="#091B36"/>
</linearGradient>
<linearGradient id="paint10_linear_7403_105350" x1="392.411" y1="162.12" x2="410.66" y2="118.724" gradientUnits="userSpaceOnUse">
<stop stop-color="#1B4582"/>
<stop offset="1" stop-color="#3160A6"/>
</linearGradient>
<linearGradient id="paint11_linear_7403_105350" x1="213.514" y1="144.406" x2="193.244" y2="220.064" gradientUnits="userSpaceOnUse">
<stop stop-color="#0A479C"/>
<stop offset="1" stop-color="#091B36"/>
</linearGradient>
<linearGradient id="paint12_linear_7403_105350" x1="110.22" y1="191.506" x2="136.253" y2="129.598" gradientUnits="userSpaceOnUse">
<stop stop-color="#1B4582"/>
<stop offset="1" stop-color="#3160A6"/>
</linearGradient>
<linearGradient id="paint13_linear_7403_105350" x1="450.52" y1="158.073" x2="404.341" y2="330.439" gradientUnits="userSpaceOnUse">
<stop stop-color="#0A479C"/>
<stop offset="1" stop-color="#091B36"/>
</linearGradient>
<linearGradient id="paint14_linear_7403_105350" x1="215.191" y1="265.379" x2="274.501" y2="124.336" gradientUnits="userSpaceOnUse">
<stop stop-color="#1B4582"/>
<stop offset="1" stop-color="#3160A6"/>
</linearGradient>
<clipPath id="clip0_7403_105350">
<rect width="508.193" height="380" fill="white" transform="translate(40 98.5977)"/>
</clipPath>
<clipPath id="clip1_7403_105350">
<rect width="25.3228" height="22.9145" fill="white" transform="translate(201.252 283.312)"/>
</clipPath>
<clipPath id="clip2_7403_105350">
<rect width="43.2606" height="39.1464" fill="white" transform="translate(176.282 405.862)"/>
</clipPath>
<clipPath id="clip3_7403_105350">
<rect width="25.1447" height="22.7533" fill="white" transform="translate(436.739 341.141)"/>
</clipPath>
<clipPath id="clip4_7403_105350">
<rect width="25.5569" height="23.1264" fill="white" transform="translate(409.439 171.354)"/>
</clipPath>
<clipPath id="clip5_7403_105350">
<rect width="36.4595" height="32.9921" fill="white" transform="translate(133.98 202.795)"/>
</clipPath>
<clipPath id="clip6_7403_105350">
<rect width="141.246" height="127.813" fill="white" transform="translate(241.204 290.01)"/>
</clipPath>
</defs>
</svg>
