<svg width="589" height="576" viewBox="0 0 589 576" fill="none" xmlns="http://www.w3.org/2000/svg">
<g clip-path="url(#clip0_14221_7377)">
<g opacity="0.75">
<ellipse cx="295.698" cy="277.529" rx="331.573" ry="121.603" fill="url(#paint0_radial_14221_7377)"/>
<mask id="mask0_14221_7377" style="mask-type:alpha" maskUnits="userSpaceOnUse" x="7" y="159" width="578" height="246">
<rect x="7" y="159.018" width="577.098" height="245.782" rx="5.15266" fill="#D9D9D9"/>
</mask>
<g mask="url(#mask0_14221_7377)">
<mask id="mask1_14221_7377" style="mask-type:alpha" maskUnits="userSpaceOnUse" x="-37" y="173" width="663" height="240">
<path d="M625.844 173.595H-36.7324V412.969H625.844V173.595Z" fill="url(#paint1_linear_14221_7377)"/>
</mask>
<g mask="url(#mask1_14221_7377)">
<g filter="url(#filter0_d_14221_7377)">
<path d="M294.547 580.009C450.867 580.009 577.59 453.471 577.59 297.379C577.59 141.287 450.867 14.75 294.547 14.75C138.227 14.75 11.5049 141.287 11.5049 297.379C11.5049 453.471 138.227 580.009 294.547 580.009Z" stroke="url(#paint2_linear_14221_7377)"/>
</g>
<g filter="url(#filter1_d_14221_7377)">
<path d="M294.547 520.74C418.085 520.74 518.233 420.738 518.233 297.38C518.233 174.021 418.085 74.0195 294.547 74.0195C171.008 74.0195 70.8604 174.021 70.8604 297.38C70.8604 420.738 171.008 520.74 294.547 520.74Z" stroke="url(#paint3_linear_14221_7377)" stroke-width="2"/>
</g>
</g>
</g>
</g>
<path d="M288.94 368.667C284.445 363.102 280.165 358.086 270.858 356.039C269.327 354.358 269.545 357.811 269.288 354.291C269.673 353.861 269.693 349.918 267.578 352.192C265.036 348.614 261.375 344.281 255.695 351.011C255.855 349.356 262.043 346.64 258.934 345.125C257.25 344.014 255.805 343.286 255.816 341.627C257.859 333.156 254.224 321.041 241.515 319.155C239.647 319.315 240.132 313.53 237.169 315.789C240.469 311.873 233.337 308.279 233.131 306.186C235.474 303.512 230.081 302.834 229.573 299.751C235.555 300.48 229.837 297.308 222.814 298.976C221.62 295.958 217.681 297.012 215.911 294.606C217.218 294.26 215.948 291.74 213.375 291.086C214.251 290.014 212.627 286.007 212.104 291.299C211.241 290.727 209.349 292.649 209.113 290.853C208.814 291.092 209.185 291.192 208.012 292.418C206.619 289.56 212.272 290.059 209.978 286.803C208.413 286.256 205.504 290.831 202.787 288.569C202.188 288.607 202.509 288.814 201.561 289.937C201.251 289.371 200.864 289.147 200.441 289.19C199.139 289.253 197.545 291.808 197.256 294.159C195.886 294.026 193.956 295.292 193.304 298.44C193.674 296.927 191.738 291.431 188.66 290.968C179.084 296.916 181.35 279.132 186.566 272.385C186.359 272.152 188.161 269.56 185.401 268.998C186.992 264.993 181.244 267.309 177.526 264.544C181.04 260.359 184.751 254.515 189.408 248.052C185.144 244.963 180.163 250.701 176.002 254.834C175.637 253.202 173.34 254.248 170.379 254.222C167.473 245.746 177.729 224.457 189.478 221.875C189.315 221.817 189.163 221.776 189.023 221.717C189.93 221.406 189.579 221.973 190.952 220.452C190.876 220.737 190.855 220.603 190.802 221.2C192.655 219.609 193.812 223.164 195.859 221.802C195.895 222.33 194.903 225.423 197.19 223.835C197.278 224.036 197.219 225.128 197.928 224.338L197.84 224.35C198.141 224.019 197.991 224.447 198.248 223.408C198.309 224.852 199.621 227.348 199.445 223.289C199.191 223.15 200.904 223.303 200.436 222.319C201.777 221.052 202.454 223.108 204.599 221.254C204.516 221.431 204.439 221.928 203.546 222.506C204.628 223.186 205.956 221.831 207.708 223.962C204.925 229.415 214.155 219.618 209.102 232.139C208.49 232.437 206.509 235.087 207.917 235.372C207.846 235.502 206.334 236.482 207.562 236.299C204.246 246.95 213.898 237.564 214.762 229.225L214.745 229.206L215.074 229.33C218.169 218.84 231.444 219.756 237.194 216.077C238.106 216.464 239.588 215.81 239.479 214.097C239.793 214.593 243.176 212.304 241.069 211.953C242.713 210.533 243.827 207.728 247.39 206.304C245.722 207.334 244.325 207.805 243.95 210.133C243.585 210.355 242.921 210.049 242.644 211.48C242.621 211.566 242.608 211.669 242.597 211.787C243.912 210.407 246.82 211.08 248.45 206.801C248.904 207.172 247.803 208.552 248.489 208.324C248.46 208.352 248.455 208.372 248.446 208.405C249.843 207.459 252.638 206.887 254.426 204.348C254.351 205.897 262.764 204.686 256.731 204.199C258.078 203.757 259.636 204.963 261.498 203.658C261.915 204.487 260.964 204.566 263.02 204.364C262.628 204.636 262.138 204.717 261.701 204.891C261.749 204.975 264.467 205.483 265.371 203.198C264.685 203.213 265.178 203.97 263.692 203.926C264.606 200.727 268.189 200.736 273.139 199.066C273.303 199.379 271.823 199.231 272 200.188C272.737 199.902 276.054 199.662 278.502 199.111C279.19 198.954 279.806 198.778 280.288 198.567C279.221 199.872 281.466 198.705 284.156 198.389C283.886 198.657 284.156 198.602 282.277 198.936C282.901 199.601 282.412 199.491 284.22 199.422C282.936 200.292 280.648 199.16 278.019 200.437C275.061 202.201 278.494 204.654 282.53 200.986C282.608 201.042 282.484 200.973 282.802 201.378C281.375 201.904 286.882 202.421 290.513 200.98C290.463 201.485 295.268 201.018 293.213 199.438C296.146 197.689 292.657 197.379 289.393 200.311C289.247 199.505 289.404 199.263 287.717 199.755C287.564 199.586 287.665 199.471 287.004 199.209C286.077 199.067 286.456 198.182 285.14 197.367C285.474 196.598 285.859 195.955 286.451 195.418C287.005 194.885 287.719 194.473 288.773 194.144C288.539 194.011 286.954 193.856 286.04 193.824C286.466 193.505 285.996 193.379 284.931 192.902C296.887 194.735 289.443 187.379 274.727 192.795C281.839 189.971 290.415 188.016 298.561 190.823C299.523 191.152 300.488 191.553 301.453 192.032C304.514 190.601 306.979 190.942 310.804 190.66C312.511 190.833 314.534 188.265 313.846 186.568C313.502 185.652 312.368 185.008 310.024 185.168C311.313 184.547 315.041 186.64 313.537 183.375C313.359 185.365 311.127 181.316 310.522 182.567C309.952 182.415 311.856 180.851 310.499 180.985C310.618 180.463 310.779 180.683 310.266 179.921C310.657 179.919 312.848 178.738 311.823 178.641C312.853 177.738 311.847 177.412 312.831 175.673C314.479 169.525 311.594 174.433 305.248 174.586C305.115 174.55 305.595 173.82 304.791 173.824C303.845 171.817 306.816 171.278 308.134 169.671L308.143 169.638C306.775 169.733 307.735 169.621 305.875 168.64C306.22 168.732 307.665 168.083 306.439 168.074C307.123 166.844 299.886 163.137 299.197 166.453C298.088 166.511 296.899 166.76 295.538 168.632C291.495 167.925 291.43 172.964 286.227 174.389C278.209 174.527 278.228 177.316 271.966 180.836C273.06 177.947 269.835 183.197 270.265 178.256C270.278 177.941 270.79 177.488 271.514 176.986C271.795 176.813 272.074 176.618 272.38 176.43C275.078 174.76 278.875 172.781 274.644 172.592C274.6 172.544 274.562 172.499 274.502 172.461C274.586 172.356 274.66 172.269 274.733 172.182C274.497 172.133 274.533 172.079 273.643 171.983C273.965 171.125 274.064 171.151 272.337 169.992C273.909 168.788 272.092 166.376 269.163 166.784C269.82 166.478 271.546 165.761 273.142 164.336C272.488 164.103 272.388 164.077 271.792 164.102C274.156 161.93 280.409 161.412 285.523 160.24C286.726 160.761 290.627 160.911 287.352 158.479C288.013 158.528 288.225 159.749 289.53 159.943C289.948 160.183 290.163 159.913 291.495 159.418C291.963 160.616 295.844 160.044 297.316 159.082C298.246 159.083 298.47 158.909 300.028 158.9C298.181 159.456 295.534 160.195 292.899 161.044C293.508 161.101 294.114 161.121 294.597 161.357C294.588 161.391 294.138 161.533 293.562 161.961C294.082 162.618 296.52 161.787 298.395 161.523C296.491 163.299 303.816 163.472 300.111 161.926C300.226 161.815 300.438 161.978 301.139 161.562C301.052 161.305 301.182 160.289 300.36 160.018C300.688 159.375 300.657 159.757 301.128 158.953C300.666 158.957 300.423 159.73 299.508 159.805C299.934 159.542 300.072 159.636 300.591 159.022C300.542 158.995 300.588 159.036 300.349 158.865C300.66 158.714 300.665 158.268 301.519 158.554C301.454 158.664 301.3 159.028 301.914 159.015C300.76 159.188 302.414 161.414 302.298 159.118C302.613 159.216 302.553 159.704 303.387 158.976C304.025 159.722 307.358 159.685 308.832 157.843C309.24 157.988 311.956 157.502 311.114 156.8C311.087 156.289 311.647 156.481 312.48 156.286C312.724 156.834 313.701 157.401 314.658 157.352C314.695 157.348 314.72 157.333 314.753 157.342C315.228 157.292 315.679 157.093 316.043 156.665C316.307 156.949 316.081 156.839 316.622 157.232C316.431 157.337 315.441 157.718 316.375 157.756C316.349 157.855 316.371 157.825 316.644 158.076C316.616 158.104 316.608 158.081 316.375 158.288C316.518 158.362 316.361 158.284 316.909 158.36C316.38 158.453 313.58 158.86 316.301 159.014C315.591 159.2 315.74 160.099 316.934 159.382C316.836 159.534 316.791 159.436 316.48 160.013C314.832 159.302 315.916 162.199 317.172 159.766C317.18 159.945 316.969 160.123 317.567 160.226C316.611 162.917 314.058 160.124 312.196 162.806C310.042 163.053 307.71 160.759 305.042 162.658C305.403 164.04 305.052 162.888 306.941 163.628C308.031 163.217 308.423 164.615 309.772 163.584C309.846 163.838 308.948 164.592 310.106 164.192C310.01 164.628 309.9 164.3 310.155 165.15C309.084 166.098 309.757 167.72 312.697 168.991C316.135 171.822 313.996 167.748 314.685 166.846C316.044 167.445 316.507 172.582 318.563 167.957C318.499 169.203 320.083 168.882 319.513 166.876C320.672 168.486 319.57 164.782 318.983 164.376C321.08 163.809 321.283 164.006 321.932 166.7C323.816 165.92 331.505 166.695 324.417 161.956C324.137 161.596 324.443 161.913 323.384 161.146C324.082 160.744 324.765 161.055 326.161 160.853C326.338 160.723 325.048 160.555 325.329 160.091C326.259 161.071 326.86 159.095 325.403 159.415C325.624 159.332 325.923 159.199 326.146 158.975C326.163 158.78 325.185 158.824 324.525 157.844C325.256 157.792 323.684 156.263 322.632 157.302C322.748 156.921 323.979 156.143 322.205 155.291C326.026 153.83 315.712 153.261 321.555 154.989C320.922 155.019 318.206 154.951 318.176 154.745C323.381 153.05 314.683 152.04 312.824 154.525C312.431 152.864 315.744 153.22 317.57 152.686C315.79 152.067 312.768 151.74 308.578 153.33C308.738 153.927 309.116 152.992 310.121 154.12C307.182 152.551 306.489 155.27 311.626 155.844C311.958 156.487 311.335 156.32 309.211 155.396C309.113 155.547 307.932 155.372 308.118 156.48C307.185 156.621 306.596 156.037 305.075 156.574C304.948 156.306 303.119 156.533 303.482 157.113C303.218 157.17 302.431 157.243 301.704 157.283C301.948 156.688 301.862 156.558 303.063 156.078C303.078 156.209 303.32 156.125 303.362 156.498C303.872 156.188 305.061 155.882 304.911 154.854C304.206 155.02 303.518 154.857 301.567 155.726C301.794 155.489 303.285 154.241 303.311 155.072C303.884 154.87 304.21 155.242 304.024 154.084C303.64 153.924 303.819 154.185 302.828 154.012C303.051 153.766 303.372 154.051 304.04 153.676C304.625 154.224 306.036 152.961 306.34 151.957C308.568 151.566 310.438 152.195 313.964 151.571C312.975 151.178 312.027 150.001 310.008 150.724C307.796 150.791 304.917 151.731 301.888 152.354C301.918 152.376 301.971 152.39 302.004 152.399C301.426 152.301 298.905 153.018 301.048 153.5C301.078 153.522 300.765 153.551 300.982 153.801C300.071 153.863 300.04 153.712 298.618 153.956C298.673 154.099 298.822 154.203 298.929 154.253C297.366 154.814 296.165 154.101 294.141 155.057C294.144 154.966 294.158 155.048 294.1 154.812C293.94 154.932 293.763 155.063 293.573 155.189C293.749 155.009 293.866 154.891 295.094 154.098C294.805 154.326 294.474 154.557 294.165 154.78C294.334 154.683 295.265 154.414 296.442 154.154C296.335 154.076 296.268 154.143 295.792 153.852C296.527 154.049 302.728 153.034 298.907 153.011C298.765 152.135 297.922 152.158 296.576 152.99C296.735 152.876 296.912 152.746 297.085 152.629C296.397 152.786 293.69 152.366 295.696 153.28C294.15 153.327 290.949 154.593 289.512 152.297C289.459 152.283 288.922 152.431 288.721 152.121C288.731 152.031 290.239 152.315 289.65 151.44C289.699 151.467 289.782 151.475 289.846 151.315C289.216 151.522 286.809 150.061 285.686 151.577C285.062 151.254 283.825 152.4 282.99 152.176C283.32 152.137 284.469 151.322 283.767 151.134C286.39 150.673 282.457 151.224 280.034 150.063C280.488 149.219 282.176 150.921 282.891 149.075C281.165 148.918 281.474 146.891 279.144 146.998C279.356 146.949 279.582 146.903 280.369 146.773C279.664 146.144 277.389 147.082 277.25 146.675C277.989 146.249 277.394 147.012 279.706 145.722C279.012 145.77 278.754 146.148 276.632 145.935C276.749 145.895 276.859 145.96 277.767 145.777C276.84 145.422 275.413 145.502 273.143 145.305C273.176 145.314 273.304 145.313 273.39 145.18C272.997 145.11 273.36 145.158 272.427 145.17C272.661 144.878 271.644 145.23 271.527 145.057C271.103 144.837 270.5 145.549 269.22 145.078C269.363 144.598 269.615 144.665 270.601 144.326C270.105 144.243 268.67 142.786 268.687 142.883L268.559 142.884C268.62 142.709 268.673 142.986 269.019 142.489C268.364 142.207 269.059 142.606 267.731 142.158C268.245 142.225 269.606 141.624 268.083 141.769C268.234 141.682 269.282 141.43 268.031 141.486C269.951 141.105 267.433 141.467 266.747 141.085C264.945 141 262.739 141.388 258.828 141.249C257.838 141.339 255.385 141.775 253.058 142.721C253.071 142.725 253.146 142.709 253.297 142.679C252.678 142.868 251.564 143.343 250.594 143.041C251.877 142.781 250.781 143.006 252.137 142.687C251.854 142.683 251.667 142.505 250.185 142.896C250.203 142.83 250.172 142.892 250.381 142.749C248.837 142.996 247.09 143.316 244.714 144.235C245.082 144.184 244.739 144.22 245.662 144.169C245.555 144.247 245.331 144.209 244.879 144.492C245.176 144.444 245.058 144.434 246.479 144.246C246.512 144.255 246.537 144.24 246.574 144.236C246.537 144.24 246.499 144.251 246.46 144.262C244.778 144.685 243.709 144.988 241.199 145.374C241.246 145.329 241.446 145.298 241.936 145.088C241.652 145.14 241.293 145.235 241 145.32L241.009 145.287C238.849 145.901 237.832 146.147 233.688 147.806C233.85 147.757 234.039 147.687 234.198 147.652C233.98 147.721 233.779 147.809 233.563 147.872C232.137 148.399 230.649 149.023 228.45 149.967C228.388 149.986 228.328 150.027 228.227 150.057C228.107 150.11 227.956 150.197 227.774 150.29C228.188 150.153 228.076 150.172 229.177 149.772C229.261 149.723 229.362 149.693 229.454 149.668C229.311 149.722 229.331 149.728 229.177 149.772C229.08 149.817 228.872 149.903 228.474 150.066C228.657 150.044 228.477 150.053 229.038 149.947C228.286 150.208 225.751 151.083 223.561 152.18L223.838 152.076C223.838 152.076 223.851 152.08 223.732 152.154C224.262 151.977 224.762 151.649 227.057 151.007L227.05 151.112C226.928 151.171 226.768 151.235 226.012 151.515C226.048 151.433 225.998 151.512 226.223 151.338C225.519 151.632 224.952 151.679 223.364 152.624C223.456 152.599 223.674 152.529 224.247 152.271C224.243 152.284 224.26 152.275 224.136 152.369L224.13 152.389L224.149 152.372C224.241 152.347 224.65 152.223 225.162 151.984C225.153 152.017 225.182 151.989 225.122 152.079C225.681 151.981 226.038 151.842 227.474 151.225L227.427 151.27C227.626 151.266 228.437 151.022 229.322 150.584C228.697 150.715 228.666 150.565 226.994 151.267C228.278 150.61 230.098 150.153 232.027 149.47L232.041 149.474C232.116 149.458 232.315 149.512 233.009 149.25C232.982 149.3 233.019 149.267 232.911 149.352C233.175 149.373 234.018 149.01 235.238 148.726C235.167 148.778 235.082 148.776 234.832 148.915C235.185 148.868 235.098 148.717 236.772 148.405C235.506 148.783 233.4 149.249 231.071 150.073C231.507 150.51 233.096 149.565 234.093 149.846C234.305 149.796 234.568 149.739 234.764 149.671C234.459 149.802 234.709 149.692 234.037 150.051C234.823 150.063 235.942 149.277 238.514 148.822C237.761 149.352 237.651 148.968 235.514 149.893C236.19 149.755 235.723 149.857 237.458 149.448C237.102 149.637 237.343 149.403 236.358 149.899C236.461 149.913 236.391 149.908 236.66 149.909C236.214 150.251 236.335 149.985 235.032 150.581C234.938 150.747 238.449 149.622 236.268 151.373L236.984 151.246C235.946 151.649 235.237 152.226 233.945 153.179L233.878 153.218C233.851 153.318 229.427 154.83 229.976 154.978C229.487 155.188 229.467 155.076 227.53 156.105C227.648 156.193 227.531 156.233 227.891 156.109C226.65 156.685 225.524 157.151 223.594 158.338C224.155 158.311 223.71 158.383 224.924 157.906C224.878 158 224.842 157.87 224.59 158.278C225.536 157.956 226.472 157.511 228.735 156.406C227.959 156.837 225.813 157.981 224.168 158.847L224.444 158.743C222.064 159.966 219.212 161.68 216.057 163.781C215.836 163.864 215.713 163.796 214.864 164.498L215.281 164.61C206.25 170.463 187.664 179.642 177.725 192.353C176.63 193.366 177.477 192.272 173.928 196.853C173.782 197.133 173.319 197.137 172.528 198.551C172.514 198.604 172.532 198.538 172.439 198.882C173.975 202.958 165.234 208.043 165.126 213.589C165.032 213.542 164.922 213.477 164.826 213.437C165.506 213.761 164.323 215.894 162.709 215.533C162.097 215.404 160.367 219.528 161.204 220.753C162.378 222.439 158.398 225.555 157.914 228.315C157.914 228.315 157.956 228.291 158.074 228.195L158.083 228.346L158.192 228.283C159.141 228.267 155.764 234.932 157.959 232.758C159.476 227.626 163.494 220.686 165.616 213.72L165.988 213.869C166.839 211.278 167.81 209.983 170.399 207.055C170.686 207.097 169.775 207.925 170.99 207.789C170.965 207.832 169.828 209.132 170.835 208.635C170.455 209.123 168.4 212.051 167.227 214.095C166.798 214.37 166.761 214.431 165.825 215.722C166.058 215.727 166.032 215.827 166.481 215.606C163.818 225.679 160.865 234.978 157.086 246.932C157.225 246.628 157.374 246.335 157.506 246.029C157.347 249.75 161.13 263.034 165.869 260.931C166.655 260.197 168.194 260.574 168.634 262.403C169.119 265.999 169.624 269.706 172.681 272.236C173.871 272.25 174.161 275.381 176.321 273.787C175.64 275.053 176.071 279.251 177.687 281.673C176.865 283.15 175.8 285.719 177.217 288.222C177.534 287.703 177.552 287.026 178.123 286.696C179.347 288.331 178.511 292.247 180.843 295.016C180.615 293.059 184.344 294.939 182.534 296.364C181.726 294.77 181.481 299.632 183.003 296.866C183.071 296.827 182.983 297.074 183.5 296.999C183.342 298.597 187.098 300.427 185.706 295.233C186.708 295.018 186.615 295.632 187.926 293.811C189.492 291.837 191.9 301.586 189.888 305.357C189.568 306.5 190.247 310.616 188.501 310.006C187.669 310.514 188.509 312.096 189.227 312.7C188.663 314.409 185.998 314.498 185.323 317.548C184.493 317.304 184.153 317.909 184.735 319.265C182.468 319.268 181.335 320.555 180.928 324.408C179.838 325.082 178.615 329.036 180.71 331.742C174.743 340.681 186.493 360.403 192.217 372.169C194.275 376.413 196.519 378.641 198.639 380.586C202.553 384.184 206.069 386.831 207.263 399.521C207.392 401.451 207.716 403.37 208.154 405.312C210.129 414 214.618 422.638 215.849 430.843C217.183 432.912 218.291 433.656 219.753 436.334L219.72 436.325C219.854 437.362 220.632 438.643 221.961 439.965C221.917 439.918 221.799 439.829 221.648 439.81C222.254 440.278 222.287 442.09 224.163 442.827C223.902 441.813 223.9 442.615 222.588 439.906C223.498 440.114 223.848 442.118 225.04 443.076C225.025 443.214 225.661 444.152 226.066 445.105C225.611 444.735 226.128 445.086 224.649 443.795C225.326 444.872 226.237 446.614 227.667 448.46C227.667 448.46 227.559 448.253 227.523 448.066C227.654 448.243 228.099 448.86 228.57 448.347L228.511 448.04C228.815 448.441 229.238 448.717 229.879 449.742C229.826 449.727 229.821 449.641 229.065 449.31C229.105 449.371 229.032 449.301 229.385 449.786C229.371 449.783 229.335 449.759 229.266 449.698C229.949 451.812 233.365 453.8 235.218 455.816C235.219 455.759 235.227 455.783 235.234 455.622C235.234 455.622 235.27 455.702 235.629 456.082C235.625 456.046 235.653 456.075 235.517 455.839C235.654 455.911 235.56 455.865 235.883 456.065L235.902 456.07L235.906 456.057C235.973 456.203 236.187 456.147 236.536 456.567C236.404 456.531 236.484 456.496 236.017 456.357C236.074 456.358 236.189 456.722 236.491 456.789C236.575 456.741 237.099 457.25 237.139 457.048C237.159 457.053 237.201 457.214 237.429 457.289L237.433 457.276C237.532 457.302 237.443 457.371 238.035 457.757C238.026 457.74 238.034 457.707 238.049 457.654C238.136 457.727 238.084 457.734 238.407 457.906L238.392 457.831C238.356 457.751 238.604 458.101 239.088 458.358L239.313 458.525L239.293 458.47L239.561 458.663C239.561 458.663 239.541 458.657 239.553 458.611C239.635 458.704 239.541 458.657 239.878 458.804C239.968 458.864 239.922 458.852 240.189 458.994C240.189 458.994 240.15 458.927 240.105 458.83C240.474 459.071 240.269 459.016 241.012 459.449C241.006 459.391 241.034 459.419 240.944 459.303C241.476 459.73 242.264 460.047 243.099 460.456L242.821 460.168C242.97 460.222 243.331 460.731 243.713 460.762C243.62 460.581 243.704 460.795 243.177 460.299C243.223 460.311 243.401 460.522 243.408 460.233C243.465 460.284 243.624 460.433 243.665 460.146C238.824 457.173 233.58 450.534 233.791 445.215C233.461 444.907 232.978 444.777 232.715 444.352C235.53 444.765 233.168 445.048 230.895 441.074C231.335 441.369 232.377 442.01 233.14 442.158C234.162 442.396 234.683 441.804 232.549 438.428C239.847 442.116 239.656 435.489 235.063 430.978C237.233 432.078 244.16 437.285 244.155 428.238C244.681 427.682 244.735 426.021 246.552 426.025C244.698 433.261 250.089 418.416 252.477 415.044C252.916 415.02 255.025 413.192 257.366 414.579C257.515 413.227 257.344 413.735 260.393 412.876C263.826 413.924 266.322 414.678 268.235 409.872C273.344 406.653 269.747 395.031 277.508 391.11C292.526 383.51 298.809 372.675 288.882 368.673L288.94 368.667ZM308.756 185.211C309.205 184.941 308.976 185.398 309.513 185.379C308.977 185.526 307.789 185.826 307.268 185.438C307.783 185.398 308.256 185.276 308.756 185.211ZM294.974 157.539C295.222 157.619 295.603 157.657 295.918 157.806C296.299 157.922 296.58 158.196 296.514 158.789C296.028 158.801 295.267 158.512 296.036 157.894C295.992 157.847 295.971 157.82 295.918 157.806C295.752 157.761 295.439 157.926 294.723 157.471L294.974 157.539ZM199.499 221.549C199.842 221.066 200.058 221.45 200.202 222.185C199.951 222.061 200.005 222.26 199.462 221.553L199.499 221.549ZM179.436 282.511C179.242 282.892 178.974 281.641 177.785 281.678C177.913 281.279 178.627 276.151 179.46 282.503L179.443 282.512L179.436 282.511ZM207.806 293.187C207.459 294.614 209.758 296.82 206.849 298.214C205.424 297.676 206.026 295.032 207.806 293.187ZM308.162 169.7C308.108 169.899 308.224 169.731 308.162 169.7V169.7Z" fill="url(#paint4_radial_14221_7377)"/>
<path d="M406.307 178.7C406.359 178.726 406.371 178.73 406.359 178.726L406.297 178.69C406.297 178.69 406.303 178.692 406.309 178.694L406.307 178.7Z" fill="url(#paint5_linear_14221_7377)"/>
<path d="M431.897 207.948C425.227 198.52 417.368 189.398 408.253 180.615C407.922 180.313 407.55 179.979 407.051 179.561C407.354 179.891 407.171 179.643 407.885 180.318C407.924 180.385 408.011 180.458 408.15 180.601L408.03 180.52C408.267 180.775 408.074 180.567 408.636 181.122L408.515 181.04C408.617 181.138 408.49 181.19 409.198 181.884C408.74 181.711 408.471 181.206 407.408 180.296C407.684 180.725 407.667 180.657 408.417 181.461C408.379 181.416 408.302 181.359 408.212 181.3C408.579 181.916 408.266 181.442 409.177 182.574L409.058 182.542C409.328 182.991 410.106 183.611 411.046 184.793C411.026 184.788 410.894 184.752 410.594 184.544C410.12 183.984 409.851 184.111 409.003 183.01C409.013 183.027 409.06 183.061 409.147 183.084C408.81 182.617 407.614 181.544 406.32 180.913C407.045 181.733 407.654 182.002 409.151 183.596C409.142 183.58 409.102 183.569 409.069 183.56C410.42 184.852 410.426 184.563 411.776 186.125C410.839 185.355 411.718 186.074 410.3 185.033C410.819 186.223 412.505 187.804 413.598 189.183C413.549 189.419 410.499 186.677 411.798 188.24L411.765 188.231C411.936 188.653 412.649 188.986 414.129 190.327C411.751 189.477 409.779 186.449 406.843 184.128C410.527 186.649 412.36 186.516 406.437 181.854C406.432 181.874 406.465 181.883 406.499 182.02C405.204 181.261 404.261 180.17 401.969 179.13C402.027 179.231 401.923 179.167 402.327 179.595C401.855 179.291 401.26 178.649 400.156 177.891C400.211 178.084 400.161 177.928 400.399 178.311C400.1 178.103 399.604 178.603 399.349 177.618L399.468 177.65C398.963 176.94 398.465 176.863 397.13 175.987C397.166 176.068 397.198 176.133 397.238 176.194C397.046 176.036 396.727 175.822 396.241 175.571C396.228 175.618 396.532 175.756 397.073 176.653C396.722 176.346 396.994 176.469 396.08 175.692C396.601 176.451 396.915 176.924 397.022 177.108C396.518 176.576 397.102 177.073 395.513 175.398C395.525 175.486 395.5 175.394 395.598 175.69C395.507 175.63 395.454 175.616 395.139 175.39C395.438 175.811 395.283 175.592 395.951 176.36C395.789 176.224 395.964 176.363 395.512 176.065C395.512 176.065 395.49 176.094 395.513 176.193C395.425 175.992 395.123 175.712 394.567 175.854C394.611 176.008 394.945 176.112 395.705 176.748C395.6 176.663 395.411 176.521 395.23 176.799C395.086 176.725 395.173 176.748 394.829 176.492C395.019 176.792 394.967 176.586 395.573 177.586C394.703 176.352 393.596 176.219 395.519 178.318C394.958 177.812 393.893 177.044 395.469 178.823C395.411 178.772 395.293 178.683 394.939 178.389L395.143 178.82C395.015 178.822 394.865 178 394.253 178.007C393.842 178.003 392.42 178.197 392.946 178.963C393.366 179.594 394.807 182.139 395.504 179.67C396.289 180.399 396.597 181.979 397.584 183.65C397.502 183.557 397.559 183.608 397.305 183.419C397.371 183.756 398.256 184.533 398.47 185.535C398.417 185.521 398.411 185.412 398.2 185.271L398.441 185.726L398.024 185.664C398.518 185.888 399.138 187.177 398.651 187.458C398.736 187.75 398.682 187.608 398.922 188.248C398.505 188.136 398.905 188.314 398.13 187.602C398.086 187.896 398.207 187.658 398.381 188.387C398.267 188.335 398.238 188.256 397.727 187.778C397.847 188.471 398.14 188.173 398.804 189.565C398.603 189.44 398.759 189.518 398.024 189.001C398.163 189.358 398.014 189.119 398.463 189.829C398.387 189.901 398.321 189.564 397.979 189.699C397.993 189.703 397.942 189.838 398.024 190.194C397.939 190.115 397.972 190.124 397.723 189.915C397.71 190.018 397.787 189.861 397.552 190.472C397.433 190.334 397.548 190.436 397.159 190.083C397.378 190.461 397.615 190.901 397.888 191.365C398.849 193.106 400.063 195.306 401.465 197.202C401.479 197.149 401.462 197.215 401.553 196.955C401.62 197.023 401.615 196.986 401.995 197.372C401.36 197.33 405.042 203.386 406.001 198.694C405.936 198.407 405.853 198.051 405.746 197.788C407.713 200.175 409.051 201.514 411.588 205.588L411.417 205.485C411.388 205.726 411.372 206.048 411.419 206.274C409.972 204.757 411.723 209.139 413.148 209.812C413.814 208.861 412.735 209.02 412.666 207.29C413.458 207.857 414.998 209.505 413.833 206.459C414.48 206.455 413.933 206.429 414.999 206.772C414.992 206.663 415.079 206.686 414.858 206.237C414.902 206.284 415.017 206.386 415.205 206.614C415.144 206.441 414.915 205.23 414.083 203.885C414.082 204.097 414.12 204.356 414.155 204.543C413.333 203.158 413.376 203.049 412.063 200.609C412.293 200.494 412.073 200.626 412.401 199.876C412.524 199.895 412.486 199.771 412.683 199.966C412.415 198.446 410.982 197.33 409.551 195.91C408.924 195.309 408.32 194.65 407.81 193.874L407.915 193.881C406.739 191.62 405.558 188.606 404.581 185.653C405.288 186.09 405.458 185.852 406.808 187.414C406.538 187.228 406.808 187.414 406.105 186.828C406.751 188.023 407.114 188.206 407.795 190.462C407.728 190.444 407.753 190.486 407.642 190.421C408.687 192.377 410.486 194.861 412.879 197.271C412.918 197.338 412.95 197.403 412.99 197.442C413.237 197.792 413.584 197.9 414.003 197.927C415.082 197.982 416.601 197.373 417.993 198.832C417.799 199.157 417.754 199.536 417.613 199.718C417.466 199.948 417.174 199.899 416.298 199.167C416.299 199.295 416.28 199.446 416.261 199.569C416.105 199.491 415.94 199.575 415.759 200.038C415.828 200.312 416.022 200.648 416.158 200.883C416.056 200.785 415.93 200.673 415.814 200.578C416.066 201.569 415.543 201.72 416.903 203.242C416.898 203.183 416.72 202.653 417.018 202.47C416.931 202.212 416.758 201.903 416.629 201.67C417.237 201.996 416.732 201.683 417.857 202.624C417.857 202.624 417.837 202.568 417.802 202.431C418.06 203.324 418.928 203.479 419.42 205.457C414.724 201.465 419.783 207.23 419.694 210.025C420.003 212.664 420.116 208.981 416.003 211.663C415.564 211.049 415.716 211.331 414.473 209.769C414.379 209.801 414.613 210.041 414.219 210.241C414.335 210.414 413.352 210.349 413.329 211.018C410.973 209.606 409.957 205.208 407.577 201.424C407.405 201.059 407.823 203.102 407.032 202.372C406.588 203.233 407.799 207.037 409.863 208.74C409.759 209.657 410.849 209.643 410.596 211.28C410.271 211.086 409.176 209.848 409.33 211.473C408.624 211.298 407.391 210.52 407.534 212.369L407.461 212.243C407.415 212.551 408.155 215.909 405.519 216.367C405.913 217.041 404.399 217.87 404.518 220.047C403.397 220.442 402.951 219.378 401.538 218.318C400.625 218.251 404.634 222.343 401.142 221.464C400.692 220.946 401.049 220.935 398.44 220.684C397.179 221.652 399.757 223.11 401.864 224.761C401.864 224.761 401.92 224.762 402.123 224.667C402.129 224.775 408.765 235.948 403.472 235.637C400.882 235.71 396.49 231.963 393.413 233.588C393.325 236.114 392.739 244.372 393.526 249.489C393.561 251.11 391.664 253.258 396.694 252.482C400.739 257.578 396.64 256.338 406.302 256.271C407.012 255.872 406.358 254.39 408.623 254.337C407.767 252.95 409.844 252.115 409.894 250.786C407.553 248.66 409.626 244.714 413.585 242.686C412.074 238.73 413.592 237.994 418.621 239.895C419.898 232.718 422.778 242.905 423.278 241.967C423.947 242.863 424.441 244.224 425.684 245.125C425.846 246.191 427.039 247.065 428.518 248.278C429.519 250.477 432.732 252.531 432.863 255.911C433.255 258.373 430.489 257.114 429.253 257.195C429.166 257.043 429.243 257.178 428.996 256.749C428.372 258.599 434.765 267.207 432.816 258.235C432.817 258.284 433.06 258.783 433.471 259.049C433.629 258.857 433.432 258.4 433.736 257.849C433.773 257.845 433.703 257.84 433.912 257.988C434.098 257.612 433.62 257.193 433.897 256.11C435.472 255.105 432.094 253.773 432.973 250.97C433.256 250.975 432.999 251.722 434.059 251.9C438.605 255.603 424.338 240.795 423.411 234.98C424.671 234.067 424.281 235.071 425.895 237.449L425.957 237.004C425.89 237.256 427.253 238.686 426.722 237.408C429.686 243.414 434.648 245.141 436.742 253.521C436.692 253.493 436.805 253.552 436.509 253.33C436.732 254.697 438.328 256.083 439.425 258.72C439.415 258.703 439.401 258.622 439.464 258.44C439.544 258.354 439.907 258.722 440.342 258.98C440.694 259.202 441.099 259.361 441.412 259.174C441.806 259.692 441.186 259.938 442.693 260.462C442.64 260.341 442.717 260.504 442.292 259.495C442.484 259.703 442.404 259.739 443.119 260.463C442.7 258.156 440.143 256.093 439.151 252.135C441.53 255.13 438.876 250.166 441.989 251.482C442.028 252.53 442.927 251.769 443.094 253.746C442.788 253.429 442.844 256.746 444.114 257.463C444.166 256.873 443.981 256.767 443.944 255.898C444.037 256.349 444.576 256.855 444.428 258.279C444.409 258.273 444.435 258.174 444.341 258.127C444.346 258.164 444.271 258.123 444.285 258.524C444.285 258.524 444.164 258.442 443.866 258.284C443.923 259.265 443.644 258.317 444.43 259.969C444.448 259.903 444.483 259.77 444.396 259.3C444.647 259.636 444.424 259.804 445.061 260.635C445.061 260.635 445.05 260.597 445.103 260.398C445.379 260.507 445.322 260.854 445.885 261.005C445.819 260.987 445.749 260.983 445.65 260.956L445.737 261.37C445.737 261.37 445.498 261.15 445.242 260.755C445.345 260.981 444.833 261.142 445.674 262.085C445.703 262.107 445.616 261.984 445.766 261.953C445.932 261.997 445.598 262.711 446.409 263.29C446.339 263.683 446.172 264.228 446.338 265.7C446.542 265.151 446.405 265.717 446.628 264.009C446.661 264.018 446.663 264.089 447.035 264.026L447.035 264.345L446.948 264.272C446.973 264.364 446.44 264.633 446.932 265.447C447.648 265.319 447.107 264.315 447.552 267.665C447.828 267.561 447.58 266.153 447.715 264.854C447.819 265.13 447.712 264.867 448.095 265.638L448.268 265.308C448.29 266.421 450.187 270.019 449.691 265.192C450.507 265.141 450.9 268.285 452.183 267.685C452.233 267.712 452.204 267.74 452.36 267.767C452.39 267.257 452.361 266.411 452.403 265.67C452.592 266.026 453.246 267.11 453.142 265.776C453.7 269.895 457.002 279.435 454.524 283.543C454.1 285.39 453.132 279.62 452.072 283.099C452.024 283.065 452.064 283.076 451.944 282.994C451.746 282.991 452.071 283.262 451.264 284.26C448.408 282.941 439.886 268.21 441.422 282.802C441.274 286.959 433.808 275.046 428.087 270.53C426.31 270.43 428.248 264.126 427.217 259.653C425.882 259.494 424.018 258.526 421.335 258.865C420.733 259.577 420.619 256.742 420.05 258.521C419.95 259.211 418.613 257.816 418.505 259.569C416.13 254.36 407.898 262.373 404.839 259.927C402.133 262.419 399.609 253.526 398.341 259.663C397.92 261.978 395.329 262.981 392.327 265.174C389.275 267.714 393.091 274.382 385.31 278.113C381.419 278.64 377.949 282.872 374.768 288.808C373.701 289.716 365.665 298.583 368.493 299.611C371.703 308.701 360.009 319.216 361.337 328.781C361.094 330.882 363.755 329.749 363.646 331.907C363.809 335.43 367.053 337.371 366.339 341.732C365.751 346.339 369.431 350.705 372.097 355.488C373.457 356.534 372.152 361.219 376.662 359.786C384.404 355.697 385.507 364.62 394.979 359.482C395.534 360.27 397.786 358.466 399.183 358.791C408.038 358.394 398.001 369.005 409.111 367.11C409.019 367.533 408.49 370.352 409.862 369.236C408.847 374.481 402.83 378.941 401.334 384.789C397.184 401.074 392.533 410.827 378.379 424.531C368.639 433.958 357.923 450.55 341.791 457.781C342.009 457.839 341.791 457.781 342.45 457.652C342.192 457.689 342.298 458.009 341.584 458.471C341.948 458.519 341.944 458.532 342.053 458.525C342.166 458.499 342.415 458.445 343.258 458.294C343.245 458.341 343.271 458.298 343.119 458.414C343.516 458.47 343.544 458.421 343.798 458.347C344.048 458.286 344.519 458.199 345.845 458.178C345.917 458.496 345.681 458.525 346.612 458.313C346.638 458.426 346.479 458.277 346.506 458.654C346.785 458.622 346.559 458.668 347.753 458.398L347.819 458.629C353.862 457.677 369.82 451.309 375.089 447.757C375.085 447.771 375.126 447.696 375.009 447.736C381.264 444.931 385.944 442.571 393.049 436.195L393.04 436.228C410.415 427.832 422.044 410.696 434.395 394.308L434.396 394.357C436.188 392.068 441.854 382.928 441.693 382.92C448.389 374.07 465.664 334.375 461.647 289.052C459.097 260.299 449.662 233.024 431.871 207.912L431.897 207.948ZM446.112 261.059C446.145 261.068 446.198 261.082 446.248 261.081C446.206 261.105 446.192 261.08 446.112 261.059Z" fill="url(#paint6_radial_14221_7377)"/>
<path d="M407.3 179.667C407.627 179.982 407.94 180.3 408.267 180.615C408.592 180.915 408.888 181.186 409.191 181.459C408.747 180.971 408.433 180.766 408.396 180.692C407.62 179.902 407.454 179.779 407.3 179.667Z" fill="url(#paint7_linear_14221_7377)"/>
<path d="M406.316 178.707C406.267 178.679 406.181 178.628 406.047 178.521C406.183 178.65 406.041 178.541 406.456 178.929C406.083 178.623 405.916 178.372 404.798 177.59C405.101 177.863 405.628 178.359 406.906 179.369L406.913 179.342C407.111 179.53 407.202 179.59 407.297 179.658C406.963 179.342 406.652 179.017 406.312 178.698L406.316 178.707Z" fill="url(#paint8_linear_14221_7377)"/>
<path opacity="0.6" d="M153.317 233.86L198.539 198.47" stroke="#15C1E6" stroke-width="0.983069" stroke-linecap="round" stroke-dasharray="4.92 4.92"/>
<path opacity="0.6" d="M239.827 417.694L339.118 429.491" stroke="#15C1E6" stroke-width="0.983069" stroke-linecap="round" stroke-dasharray="4.92 4.92"/>
<path opacity="0.6" d="M285.54 360.184L378.44 338.065" stroke="#15C1E6" stroke-width="0.983069" stroke-linecap="round" stroke-dasharray="4.92 4.92"/>
<path opacity="0.6" d="M160.199 305.624L184.284 331.184" stroke="#15C1E6" stroke-width="0.983069" stroke-linecap="round" stroke-dasharray="4.92 4.92"/>
<path opacity="0.6" d="M392.695 212.609L416.78 238.169" stroke="#15C1E6" stroke-width="0.983069" stroke-linecap="round" stroke-dasharray="4.92 4.92"/>
<path opacity="0.6" d="M379.584 205.322L240.319 275.148" stroke="#15C1E6" stroke-width="0.983069" stroke-linecap="round" stroke-dasharray="4.92 4.92"/>
<path opacity="0.2" d="M225.082 308.082L225.082 329.218" stroke="#15C1E6" stroke-width="0.983069" stroke-linecap="round" stroke-dasharray="4.92 4.92"/>
<path opacity="0.6" d="M261.455 193.063L376.582 198.892" stroke="#15C1E6" stroke-width="0.983069" stroke-linecap="round" stroke-dasharray="4.92 4.92"/>
<g filter="url(#filter2_dd_14221_7377)">
<rect x="338.853" y="252.485" width="144.511" height="45.5766" rx="8.89299" fill="url(#paint9_linear_14221_7377)"/>
<rect x="337.995" y="251.628" width="146.226" height="47.2916" rx="9.75049" stroke="url(#paint10_linear_14221_7377)" stroke-width="1.715"/>
</g>
<path fill-rule="evenodd" clip-rule="evenodd" d="M356.342 280.492C354.427 278.577 353.242 275.931 353.242 273.008C353.242 267.164 357.979 262.427 363.823 262.427C369.667 262.427 374.405 267.164 374.405 273.008C374.405 275.931 373.22 278.577 371.304 280.492L371.306 280.493L363.824 287.975L356.341 280.493L356.342 280.492Z" fill="#15C1E6"/>
<path d="M387.509 271.304H385.819V270.03H389.147V279H387.509V271.304ZM392.684 277.154C393.126 277.479 393.815 277.83 394.699 277.83C395.362 277.83 395.882 277.687 396.259 277.232C396.688 276.725 396.909 275.828 396.909 274.645C396.649 275.139 395.96 275.802 394.569 275.802C393.165 275.802 391.8 274.879 391.8 273.046C391.8 271.304 393.022 269.9 395.011 269.9C396.532 269.9 397.325 270.641 397.741 271.278C398.118 271.837 398.508 272.942 398.508 274.398C398.508 275.997 398.157 277.284 397.468 278.064C396.87 278.766 395.908 279.156 394.751 279.156C393.243 279.156 392.359 278.558 392.047 278.311L392.684 277.154ZM396.727 272.877C396.727 271.98 396.142 271.161 395.063 271.161C393.984 271.161 393.412 271.98 393.412 272.877C393.412 273.774 393.984 274.606 395.063 274.606C396.142 274.606 396.727 273.878 396.727 272.877ZM403.506 279.143C401.686 279.143 400.178 278.233 400.178 276.491C400.178 275.412 400.867 274.606 401.894 274.307V274.268C401.244 274.021 400.451 273.358 400.451 272.253C400.451 270.719 401.894 269.9 403.506 269.9C405.118 269.9 406.561 270.719 406.561 272.253C406.561 273.358 405.768 274.021 405.118 274.268V274.307C406.145 274.606 406.834 275.412 406.834 276.491C406.834 278.233 405.326 279.143 403.506 279.143ZM403.506 273.696C404.312 273.696 404.897 273.241 404.897 272.461C404.897 271.694 404.312 271.2 403.506 271.2C402.7 271.2 402.115 271.694 402.115 272.461C402.115 273.241 402.7 273.696 403.506 273.696ZM403.506 277.817C404.39 277.817 405.131 277.297 405.131 276.361C405.131 275.425 404.429 274.879 403.506 274.879C402.583 274.879 401.881 275.425 401.881 276.361C401.881 277.297 402.622 277.817 403.506 277.817ZM409.882 279.143C409.258 279.143 408.829 278.779 408.829 278.181C408.829 277.57 409.258 277.206 409.882 277.206C410.48 277.206 410.922 277.57 410.922 278.181C410.922 278.779 410.48 279.143 409.882 279.143ZM416.076 277.739C416.856 277.739 417.805 277.284 417.805 276.062C417.805 274.853 416.947 274.32 415.933 274.32C415.335 274.32 414.737 274.515 414.321 274.788L413.554 274.333L414.399 270.03H419.17L419.157 271.421H415.465L415.036 273.423C415.465 273.241 415.998 273.124 416.544 273.124C418.182 273.124 419.521 274.203 419.521 276.088C419.521 278.051 417.87 279.143 416.011 279.143C414.308 279.143 413.151 277.96 412.93 277.648L413.827 276.582C414.282 277.154 415.049 277.739 416.076 277.739ZM423.089 271.304H421.399V270.03H424.727V279H423.089V271.304ZM428.914 279.143C428.29 279.143 427.861 278.779 427.861 278.181C427.861 277.57 428.29 277.206 428.914 277.206C429.512 277.206 429.954 277.57 429.954 278.181C429.954 278.779 429.512 279.143 428.914 279.143ZM433.2 271.304H431.51V270.03H434.838V279H433.2V271.304ZM437.296 274.528C437.296 272.175 438.414 269.9 440.923 269.9C443.432 269.9 444.537 272.175 444.537 274.528C444.537 276.881 443.432 279.156 440.923 279.156C438.401 279.156 437.296 276.881 437.296 274.528ZM442.821 274.502C442.821 272.669 442.223 271.356 440.923 271.356C439.623 271.356 439.012 272.669 439.012 274.502C439.012 276.322 439.623 277.648 440.923 277.648C442.223 277.648 442.821 276.322 442.821 274.502ZM445.57 274.528C445.57 272.175 446.688 269.9 449.197 269.9C451.706 269.9 452.811 272.175 452.811 274.528C452.811 276.881 451.706 279.156 449.197 279.156C446.675 279.156 445.57 276.881 445.57 274.528ZM451.095 274.502C451.095 272.669 450.497 271.356 449.197 271.356C447.897 271.356 447.286 272.669 447.286 274.502C447.286 276.322 447.897 277.648 449.197 277.648C450.497 277.648 451.095 276.322 451.095 274.502ZM455.319 279.143C454.695 279.143 454.266 278.779 454.266 278.181C454.266 277.57 454.695 277.206 455.319 277.206C455.917 277.206 456.359 277.57 456.359 278.181C456.359 278.779 455.917 279.143 455.319 279.143ZM462.488 277.076H458.042V275.815L462.371 269.991H464.113V275.711H465.361V277.076H464.113V279H462.488V277.076ZM462.527 275.737V271.85L459.641 275.737H462.527ZM469.787 277.739C470.567 277.739 471.516 277.284 471.516 276.062C471.516 274.853 470.658 274.32 469.644 274.32C469.046 274.32 468.448 274.515 468.032 274.788L467.265 274.333L468.11 270.03H472.881L472.868 271.421H469.176L468.747 273.423C469.176 273.241 469.709 273.124 470.255 273.124C471.893 273.124 473.232 274.203 473.232 276.088C473.232 278.051 471.581 279.143 469.722 279.143C468.019 279.143 466.862 277.96 466.641 277.648L467.538 276.582C467.993 277.154 468.76 277.739 469.787 277.739Z" fill="white"/>
<rect x="400.206" y="310.067" width="26.5825" height="44.59" rx="5" fill="#15C1E6"/>
<path fill-rule="evenodd" clip-rule="evenodd" d="M409.854 312.639C409.854 312.284 410.141 311.996 410.497 311.996H417.357C417.712 311.996 418 312.284 418 312.639C418 312.994 417.712 313.282 417.357 313.282H410.497C410.141 313.282 409.854 312.994 409.854 312.639Z" fill="#091B36"/>
<rect x="402.778" y="315.212" width="21.4375" height="32.585" rx="2" fill="#091B36"/>
<ellipse cx="413.926" cy="351.227" rx="1.715" ry="1.715" fill="#091B36"/>
<g filter="url(#filter3_dd_14221_7377)">
<rect x="142.485" y="340.808" width="130.45" height="41.1419" rx="8.02768" fill="url(#paint11_linear_14221_7377)"/>
<rect x="141.842" y="340.165" width="131.736" height="42.4281" rx="8.6708" stroke="url(#paint12_linear_14221_7377)" stroke-width="1.28625"/>
</g>
<path fill-rule="evenodd" clip-rule="evenodd" d="M158.272 366.089C156.543 364.361 155.474 361.972 155.474 359.334C155.474 354.059 159.75 349.782 165.025 349.782C170.301 349.782 174.577 354.059 174.577 359.334C174.577 361.972 173.508 364.361 171.779 366.089L171.78 366.09L165.026 372.845L158.271 366.09L158.272 366.089Z" fill="#15C1E6"/>
<path d="M193.095 357.287H191.434V356.035H194.705V364.853H193.095V357.287ZM198.183 363.038C198.617 363.358 199.295 363.703 200.164 363.703C200.816 363.703 201.327 363.562 201.697 363.115C202.119 362.617 202.336 361.735 202.336 360.572C202.081 361.057 201.403 361.709 200.036 361.709C198.656 361.709 197.314 360.802 197.314 359C197.314 357.287 198.515 355.907 200.47 355.907C201.966 355.907 202.745 356.636 203.154 357.262C203.525 357.811 203.908 358.898 203.908 360.329C203.908 361.901 203.563 363.166 202.886 363.933C202.298 364.623 201.352 365.006 200.215 365.006C198.732 365.006 197.863 364.419 197.557 364.176L198.183 363.038ZM202.157 358.834C202.157 357.952 201.582 357.147 200.522 357.147C199.461 357.147 198.899 357.952 198.899 358.834C198.899 359.716 199.461 360.533 200.522 360.533C201.582 360.533 202.157 359.818 202.157 358.834ZM205.591 363.792L208.645 360.968C209.348 360.316 209.987 359.588 209.987 358.719C209.987 357.837 209.425 357.275 208.428 357.275C207.316 357.275 206.69 357.977 206.268 358.45L205.502 357.441C205.783 357.032 206.69 355.907 208.556 355.907C210.435 355.907 211.649 356.942 211.649 358.501C211.649 360.009 210.46 361.121 209.911 361.645L207.943 363.486H212.019V364.853H205.808L205.591 363.792ZM214.964 364.994C214.351 364.994 213.929 364.636 213.929 364.048C213.929 363.447 214.351 363.089 214.964 363.089C215.552 363.089 215.987 363.447 215.987 364.048C215.987 364.636 215.552 364.994 214.964 364.994ZM217.405 360.457C217.405 358.144 218.504 355.907 220.97 355.907C223.437 355.907 224.523 358.144 224.523 360.457C224.523 362.77 223.437 365.006 220.97 365.006C218.491 365.006 217.405 362.77 217.405 360.457ZM222.836 360.431C222.836 358.629 222.248 357.338 220.97 357.338C219.692 357.338 219.092 358.629 219.092 360.431C219.092 362.22 219.692 363.524 220.97 363.524C222.248 363.524 222.836 362.22 222.836 360.431ZM226.989 364.994C226.375 364.994 225.953 364.636 225.953 364.048C225.953 363.447 226.375 363.089 226.989 363.089C227.576 363.089 228.011 363.447 228.011 364.048C228.011 364.636 227.576 364.994 226.989 364.994ZM230.138 363.792L233.193 360.968C233.896 360.316 234.535 359.588 234.535 358.719C234.535 357.837 233.972 357.275 232.976 357.275C231.864 357.275 231.238 357.977 230.816 358.45L230.049 357.441C230.33 357.032 231.238 355.907 233.103 355.907C234.982 355.907 236.196 356.942 236.196 358.501C236.196 360.009 235.008 361.121 234.458 361.645L232.49 363.486H236.567V364.853H230.356L230.138 363.792ZM239.512 364.994C238.898 364.994 238.477 364.636 238.477 364.048C238.477 363.447 238.898 363.089 239.512 363.089C240.1 363.089 240.534 363.447 240.534 364.048C240.534 364.636 240.1 364.994 239.512 364.994ZM242.662 363.792L245.716 360.968C246.419 360.316 247.058 359.588 247.058 358.719C247.058 357.837 246.496 357.275 245.499 357.275C244.387 357.275 243.761 357.977 243.339 358.45L242.572 357.441C242.853 357.032 243.761 355.907 245.627 355.907C247.505 355.907 248.719 356.942 248.719 358.501C248.719 360.009 247.531 361.121 246.981 361.645L245.013 363.486H249.09V364.853H242.879L242.662 363.792ZM253.735 363.613C254.502 363.613 255.435 363.166 255.435 361.965C255.435 360.776 254.591 360.252 253.594 360.252C253.006 360.252 252.419 360.444 252.01 360.712L251.256 360.265L252.086 356.035H256.776L256.764 357.402H253.134L252.712 359.37C253.134 359.192 253.658 359.077 254.195 359.077C255.805 359.077 257.122 360.137 257.122 361.99C257.122 363.92 255.498 364.994 253.671 364.994C251.997 364.994 250.859 363.831 250.642 363.524L251.524 362.476C251.971 363.038 252.725 363.613 253.735 363.613Z" fill="white"/>
<rect x="195.325" y="392.95" width="23.9959" height="40.2513" rx="5" fill="#15C1E6"/>
<path fill-rule="evenodd" clip-rule="evenodd" d="M204.033 395.272C204.033 394.952 204.293 394.692 204.614 394.692H210.806C211.127 394.692 211.387 394.952 211.387 395.272C211.387 395.593 211.127 395.853 210.806 395.853H204.614C204.293 395.853 204.033 395.593 204.033 395.272Z" fill="#091B36"/>
<rect x="197.647" y="397.595" width="19.3516" height="29.4144" rx="2" fill="#091B36"/>
<ellipse cx="207.71" cy="430.105" rx="1.54813" ry="1.54812" fill="#091B36"/>
<g filter="url(#filter4_dd_14221_7377)">
<rect x="164.78" y="117.857" width="127.242" height="40.1302" rx="7.83028" fill="url(#paint13_linear_14221_7377)"/>
<rect x="163.923" y="117" width="128.957" height="41.8452" rx="8.68778" stroke="url(#paint14_linear_14221_7377)" stroke-width="1.715"/>
</g>
<path fill-rule="evenodd" clip-rule="evenodd" d="M180.179 142.517C178.492 140.831 177.449 138.502 177.449 135.928C177.449 130.783 181.62 126.611 186.766 126.611C191.911 126.611 196.083 130.783 196.083 135.928C196.083 138.501 195.039 140.831 193.353 142.517L193.354 142.518L186.766 149.107L180.178 142.518L180.179 142.517Z" fill="#15C1E6"/>
<path d="M205.767 140.939L208.821 138.115C209.524 137.463 210.163 136.735 210.163 135.866C210.163 134.984 209.601 134.422 208.604 134.422C207.492 134.422 206.866 135.124 206.444 135.597L205.677 134.588C205.958 134.179 206.866 133.054 208.732 133.054C210.61 133.054 211.824 134.089 211.824 135.648C211.824 137.156 210.636 138.268 210.086 138.792L208.118 140.633H212.195V142H205.984L205.767 140.939ZM213.44 137.604C213.44 135.291 214.539 133.054 217.006 133.054C219.473 133.054 220.559 135.291 220.559 137.604C220.559 139.917 219.473 142.153 217.006 142.153C214.527 142.153 213.44 139.917 213.44 137.604ZM218.872 137.578C218.872 135.776 218.284 134.485 217.006 134.485C215.728 134.485 215.127 135.776 215.127 137.578C215.127 139.367 215.728 140.671 217.006 140.671C218.284 140.671 218.872 139.367 218.872 137.578ZM226.609 137.425C227.325 137.591 228.271 138.192 228.271 139.457C228.271 141.144 226.801 142.141 224.999 142.141C223.325 142.141 222.188 140.978 221.97 140.671L222.852 139.623C223.299 140.185 224.053 140.76 225.063 140.76C226.073 140.76 226.622 140.326 226.622 139.393C226.622 138.473 225.779 138.051 224.871 138.051H224.283V136.837H224.999C225.817 136.837 226.379 136.402 226.379 135.597C226.379 134.894 225.83 134.422 224.935 134.422C224.143 134.422 223.517 134.754 223.095 135.278L222.264 134.345C222.673 133.846 223.683 133.054 225.076 133.054C226.712 133.054 227.99 133.91 227.99 135.38C227.99 136.441 227.185 137.182 226.609 137.386V137.425ZM231.408 142.141C230.794 142.141 230.372 141.783 230.372 141.195C230.372 140.594 230.794 140.236 231.408 140.236C231.995 140.236 232.43 140.594 232.43 141.195C232.43 141.783 231.995 142.141 231.408 142.141ZM233.848 137.604C233.848 135.291 234.947 133.054 237.413 133.054C239.88 133.054 240.966 135.291 240.966 137.604C240.966 139.917 239.88 142.153 237.413 142.153C234.934 142.153 233.848 139.917 233.848 137.604ZM239.279 137.578C239.279 135.776 238.691 134.485 237.413 134.485C236.135 134.485 235.535 135.776 235.535 137.578C235.535 139.367 236.135 140.671 237.413 140.671C238.691 140.671 239.279 139.367 239.279 137.578ZM243.432 142.141C242.818 142.141 242.396 141.783 242.396 141.195C242.396 140.594 242.818 140.236 243.432 140.236C244.02 140.236 244.454 140.594 244.454 141.195C244.454 141.783 244.02 142.141 243.432 142.141ZM247.645 134.434H245.983V133.182H249.255V142H247.645V134.434ZM253.832 134.434H252.17V133.182H255.442V142H253.832V134.434ZM262.894 137.425C263.61 137.591 264.555 138.192 264.555 139.457C264.555 141.144 263.086 142.141 261.284 142.141C259.609 142.141 258.472 140.978 258.255 140.671L259.137 139.623C259.584 140.185 260.338 140.76 261.347 140.76C262.357 140.76 262.907 140.326 262.907 139.393C262.907 138.473 262.063 138.051 261.156 138.051H260.568V136.837H261.284C262.101 136.837 262.664 136.402 262.664 135.597C262.664 134.894 262.114 134.422 261.22 134.422C260.427 134.422 259.801 134.754 259.379 135.278L258.549 134.345C258.958 133.846 259.967 133.054 261.36 133.054C262.996 133.054 264.274 133.91 264.274 135.38C264.274 136.441 263.469 137.182 262.894 137.386V137.425ZM267.692 142.141C267.079 142.141 266.657 141.783 266.657 141.195C266.657 140.594 267.079 140.236 267.692 140.236C268.28 140.236 268.714 140.594 268.714 141.195C268.714 141.783 268.28 142.141 267.692 142.141ZM271.905 134.434H270.244V133.182H273.515V142H271.905V134.434ZM275.932 137.604C275.932 135.291 277.031 133.054 279.498 133.054C281.964 133.054 283.051 135.291 283.051 137.604C283.051 139.917 281.964 142.153 279.498 142.153C277.018 142.153 275.932 139.917 275.932 137.604ZM281.364 137.578C281.364 135.776 280.776 134.485 279.498 134.485C278.22 134.485 277.619 135.776 277.619 137.578C277.619 139.367 278.22 140.671 279.498 140.671C280.776 140.671 281.364 139.367 281.364 137.578Z" fill="white"/>
<rect x="216.32" y="168.766" width="23.4059" height="39.2615" rx="5" fill="#15C1E6"/>
<path fill-rule="evenodd" clip-rule="evenodd" d="M224.814 171.03C224.814 170.717 225.068 170.464 225.381 170.464H231.421C231.734 170.464 231.987 170.717 231.987 171.03C231.987 171.343 231.734 171.596 231.421 171.596H225.381C225.068 171.596 224.814 171.343 224.814 171.03Z" fill="#091B36"/>
<rect x="218.586" y="173.296" width="18.8757" height="28.6911" rx="2" fill="#091B36"/>
<ellipse cx="228.401" cy="205.007" rx="1.51006" ry="1.51006" fill="#091B36"/>
<g opacity="0.8">
<g filter="url(#filter5_dd_14221_7377)">
<rect x="109.9" y="241.338" width="83.4023" height="26.3038" rx="5.13245" fill="url(#paint15_linear_14221_7377)"/>
<rect x="109.257" y="240.695" width="84.6886" height="27.5901" rx="5.77558" stroke="url(#paint16_linear_14221_7377)" stroke-width="1.28625"/>
</g>
<path fill-rule="evenodd" clip-rule="evenodd" d="M119.994 257.501C118.888 256.396 118.205 254.869 118.205 253.182C118.205 249.81 120.939 247.075 124.312 247.075C127.684 247.075 130.418 249.81 130.418 253.182C130.418 254.869 129.735 256.396 128.629 257.501L128.63 257.502L124.312 261.82L119.993 257.502L119.994 257.501Z" fill="#15C1E6"/>
<path d="M138.378 252.029H137.357V251.259H139.368V256.679H138.378V252.029ZM141.505 255.563C141.772 255.76 142.188 255.972 142.723 255.972C143.123 255.972 143.437 255.885 143.665 255.611C143.924 255.304 144.058 254.762 144.058 254.048C143.901 254.346 143.484 254.747 142.644 254.747C141.796 254.747 140.971 254.189 140.971 253.081C140.971 252.029 141.709 251.181 142.911 251.181C143.83 251.181 144.309 251.628 144.56 252.013C144.788 252.351 145.024 253.019 145.024 253.898C145.024 254.864 144.812 255.642 144.395 256.113C144.034 256.537 143.453 256.773 142.754 256.773C141.843 256.773 141.309 256.412 141.12 256.262L141.505 255.563ZM143.948 252.979C143.948 252.437 143.594 251.943 142.942 251.943C142.291 251.943 141.945 252.437 141.945 252.979C141.945 253.521 142.291 254.024 142.942 254.024C143.594 254.024 143.948 253.584 143.948 252.979ZM148.043 256.765C146.944 256.765 146.033 256.215 146.033 255.163C146.033 254.511 146.449 254.024 147.069 253.843V253.82C146.677 253.671 146.198 253.27 146.198 252.602C146.198 251.676 147.069 251.181 148.043 251.181C149.017 251.181 149.889 251.676 149.889 252.602C149.889 253.27 149.41 253.671 149.017 253.82V253.843C149.638 254.024 150.054 254.511 150.054 255.163C150.054 256.215 149.143 256.765 148.043 256.765ZM148.043 253.474C148.53 253.474 148.884 253.199 148.884 252.728C148.884 252.265 148.53 251.966 148.043 251.966C147.556 251.966 147.203 252.265 147.203 252.728C147.203 253.199 147.556 253.474 148.043 253.474ZM148.043 255.964C148.577 255.964 149.025 255.65 149.025 255.084C149.025 254.519 148.601 254.189 148.043 254.189C147.486 254.189 147.062 254.519 147.062 255.084C147.062 255.65 147.509 255.964 148.043 255.964ZM151.895 256.765C151.518 256.765 151.259 256.545 151.259 256.184C151.259 255.815 151.518 255.595 151.895 255.595C152.257 255.595 152.524 255.815 152.524 256.184C152.524 256.545 152.257 256.765 151.895 256.765ZM155.638 255.917C156.109 255.917 156.683 255.642 156.683 254.904C156.683 254.173 156.164 253.851 155.551 253.851C155.19 253.851 154.829 253.969 154.578 254.134L154.114 253.859L154.625 251.259H157.507L157.499 252.1H155.269L155.01 253.309C155.269 253.199 155.591 253.129 155.921 253.129C156.91 253.129 157.719 253.78 157.719 254.919C157.719 256.105 156.722 256.765 155.599 256.765C154.57 256.765 153.871 256.05 153.737 255.862L154.279 255.218C154.554 255.563 155.017 255.917 155.638 255.917ZM159.875 252.029H158.854V251.259H160.864V256.679H159.875V252.029ZM163.394 256.765C163.017 256.765 162.758 256.545 162.758 256.184C162.758 255.815 163.017 255.595 163.394 255.595C163.756 255.595 164.023 255.815 164.023 256.184C164.023 256.545 163.756 256.765 163.394 256.765ZM165.984 252.029H164.963V251.259H166.973V256.679H165.984V252.029ZM168.459 253.977C168.459 252.555 169.134 251.181 170.65 251.181C172.166 251.181 172.833 252.555 172.833 253.977C172.833 255.398 172.166 256.773 170.65 256.773C169.126 256.773 168.459 255.398 168.459 253.977ZM171.797 253.961C171.797 252.854 171.435 252.06 170.65 252.06C169.865 252.06 169.495 252.854 169.495 253.961C169.495 255.061 169.865 255.862 170.65 255.862C171.435 255.862 171.797 255.061 171.797 253.961ZM173.457 253.977C173.457 252.555 174.133 251.181 175.649 251.181C177.165 251.181 177.832 252.555 177.832 253.977C177.832 255.398 177.165 256.773 175.649 256.773C174.125 256.773 173.457 255.398 173.457 253.977ZM176.796 253.961C176.796 252.854 176.434 252.06 175.649 252.06C174.863 252.06 174.494 252.854 174.494 253.961C174.494 255.061 174.863 255.862 175.649 255.862C176.434 255.862 176.796 255.061 176.796 253.961ZM179.348 256.765C178.971 256.765 178.711 256.545 178.711 256.184C178.711 255.815 178.971 255.595 179.348 255.595C179.709 255.595 179.976 255.815 179.976 256.184C179.976 256.545 179.709 256.765 179.348 256.765ZM183.09 255.917C183.561 255.917 184.135 255.642 184.135 254.904C184.135 254.173 183.616 253.851 183.004 253.851C182.642 253.851 182.281 253.969 182.03 254.134L181.566 253.859L182.077 251.259H184.959L184.951 252.1H182.721L182.462 253.309C182.721 253.199 183.043 253.129 183.373 253.129C184.362 253.129 185.171 253.78 185.171 254.919C185.171 256.105 184.174 256.765 183.051 256.765C182.022 256.765 181.323 256.05 181.189 255.862L181.731 255.218C182.006 255.563 182.469 255.917 183.09 255.917Z" fill="white"/>
<rect x="143.684" y="275.298" width="15.3417" height="25.7344" rx="5" fill="#15C1E6"/>
<path fill-rule="evenodd" clip-rule="evenodd" d="M149.251 276.782C149.251 276.577 149.417 276.411 149.622 276.411H153.581C153.786 276.411 153.952 276.577 153.952 276.782C153.952 276.987 153.786 277.153 153.581 277.153H149.622C149.417 277.153 149.251 276.987 149.251 276.782Z" fill="#091B36"/>
<rect x="145.168" y="278.267" width="12.3723" height="18.8059" rx="2" fill="#091B36"/>
<ellipse cx="151.601" cy="299.053" rx="0.989786" ry="0.989785" fill="#091B36"/>
</g>
<g opacity="0.32">
<rect x="217.711" y="276.65" width="12.083" height="20.2682" rx="5" fill="#15C1E6"/>
<path fill-rule="evenodd" clip-rule="evenodd" d="M222.096 277.82C222.096 277.658 222.227 277.527 222.388 277.527H225.506C225.668 277.527 225.799 277.658 225.799 277.82C225.799 277.981 225.668 278.112 225.506 278.112H222.388C222.227 278.112 222.096 277.981 222.096 277.82Z" fill="#091B36"/>
<rect x="218.88" y="278.989" width="9.74432" height="14.8114" rx="2" fill="#091B36"/>
<ellipse cx="223.947" cy="295.36" rx="0.779545" ry="0.779546" fill="#091B36"/>
</g>
<g opacity="0.3">
<g filter="url(#filter6_dd_14221_7377)">
<rect x="362.005" y="156.445" width="66.2941" height="20.9082" rx="4.07964" fill="url(#paint17_linear_14221_7377)"/>
<rect x="361.576" y="156.017" width="67.1516" height="21.7657" rx="4.50839" stroke="url(#paint18_linear_14221_7377)" stroke-width="0.8575"/>
</g>
<path fill-rule="evenodd" clip-rule="evenodd" d="M370.028 169.293C369.149 168.415 368.606 167.201 368.606 165.86C368.606 163.179 370.779 161.006 373.46 161.006C376.141 161.006 378.314 163.179 378.314 165.86C378.314 167.201 377.771 168.415 376.892 169.293L376.893 169.294L373.46 172.726L370.028 169.294L370.028 169.293Z" fill="#15C1E6"/>
<path d="M382.231 168.577L383.665 167.251C383.995 166.945 384.295 166.603 384.295 166.195C384.295 165.781 384.031 165.517 383.563 165.517C383.041 165.517 382.747 165.847 382.549 166.069L382.189 165.595C382.321 165.403 382.747 164.875 383.623 164.875C384.505 164.875 385.075 165.361 385.075 166.093C385.075 166.801 384.517 167.323 384.259 167.569L383.335 168.433H385.249V169.075H382.333L382.231 168.577ZM385.834 167.011C385.834 165.925 386.35 164.875 387.508 164.875C388.666 164.875 389.176 165.925 389.176 167.011C389.176 168.097 388.666 169.147 387.508 169.147C386.344 169.147 385.834 168.097 385.834 167.011ZM388.384 166.999C388.384 166.153 388.108 165.547 387.508 165.547C386.908 165.547 386.626 166.153 386.626 166.999C386.626 167.839 386.908 168.451 387.508 168.451C388.108 168.451 388.384 167.839 388.384 166.999ZM392.016 166.927C392.352 167.005 392.796 167.287 392.796 167.881C392.796 168.673 392.106 169.141 391.26 169.141C390.474 169.141 389.94 168.595 389.838 168.451L390.252 167.959C390.462 168.223 390.816 168.493 391.29 168.493C391.764 168.493 392.022 168.289 392.022 167.851C392.022 167.419 391.626 167.221 391.2 167.221H390.924V166.651H391.26C391.644 166.651 391.908 166.447 391.908 166.069C391.908 165.739 391.65 165.517 391.23 165.517C390.858 165.517 390.564 165.673 390.366 165.919L389.976 165.481C390.168 165.247 390.642 164.875 391.296 164.875C392.064 164.875 392.664 165.277 392.664 165.967C392.664 166.465 392.286 166.813 392.016 166.909V166.927ZM394.269 169.141C393.981 169.141 393.783 168.973 393.783 168.697C393.783 168.415 393.981 168.247 394.269 168.247C394.545 168.247 394.749 168.415 394.749 168.697C394.749 168.973 394.545 169.141 394.269 169.141ZM395.415 167.011C395.415 165.925 395.931 164.875 397.089 164.875C398.247 164.875 398.757 165.925 398.757 167.011C398.757 168.097 398.247 169.147 397.089 169.147C395.925 169.147 395.415 168.097 395.415 167.011ZM397.965 166.999C397.965 166.153 397.689 165.547 397.089 165.547C396.489 165.547 396.207 166.153 396.207 166.999C396.207 167.839 396.489 168.451 397.089 168.451C397.689 168.451 397.965 167.839 397.965 166.999ZM399.914 169.141C399.626 169.141 399.428 168.973 399.428 168.697C399.428 168.415 399.626 168.247 399.914 168.247C400.19 168.247 400.394 168.415 400.394 168.697C400.394 168.973 400.19 169.141 399.914 169.141ZM401.892 165.523H401.112V164.935H402.648V169.075H401.892V165.523ZM404.797 165.523H404.017V164.935H405.553V169.075H404.797V165.523ZM409.052 166.927C409.388 167.005 409.832 167.287 409.832 167.881C409.832 168.673 409.142 169.141 408.296 169.141C407.51 169.141 406.976 168.595 406.874 168.451L407.288 167.959C407.498 168.223 407.852 168.493 408.326 168.493C408.8 168.493 409.058 168.289 409.058 167.851C409.058 167.419 408.662 167.221 408.236 167.221H407.96V166.651H408.296C408.68 166.651 408.944 166.447 408.944 166.069C408.944 165.739 408.686 165.517 408.266 165.517C407.894 165.517 407.6 165.673 407.402 165.919L407.012 165.481C407.204 165.247 407.678 164.875 408.332 164.875C409.1 164.875 409.7 165.277 409.7 165.967C409.7 166.465 409.322 166.813 409.052 166.909V166.927ZM411.304 169.141C411.016 169.141 410.818 168.973 410.818 168.697C410.818 168.415 411.016 168.247 411.304 168.247C411.58 168.247 411.784 168.415 411.784 168.697C411.784 168.973 411.58 169.141 411.304 169.141ZM414.887 165.583H412.631V164.935H415.517L415.727 165.391L413.807 169.075H413.027L414.887 165.583ZM417.677 168.493C418.037 168.493 418.475 168.283 418.475 167.719C418.475 167.161 418.079 166.915 417.611 166.915C417.335 166.915 417.059 167.005 416.867 167.131L416.513 166.921L416.903 164.935H419.105L419.099 165.577H417.395L417.197 166.501C417.395 166.417 417.641 166.363 417.893 166.363C418.649 166.363 419.267 166.861 419.267 167.731C419.267 168.637 418.505 169.141 417.647 169.141C416.861 169.141 416.327 168.595 416.225 168.451L416.639 167.959C416.849 168.223 417.203 168.493 417.677 168.493Z" fill="white"/>
<rect x="388.858" y="183.791" width="12.1947" height="20.4556" rx="5" fill="#15C1E6"/>
<path fill-rule="evenodd" clip-rule="evenodd" d="M393.284 184.971C393.284 184.808 393.416 184.676 393.579 184.676H396.726C396.889 184.676 397.021 184.808 397.021 184.971C397.021 185.134 396.889 185.266 396.726 185.266H393.579C393.416 185.266 393.284 185.134 393.284 184.971Z" fill="#091B36"/>
<rect x="390.038" y="186.151" width="9.83441" height="14.9483" rx="2" fill="#091B36"/>
<circle cx="395.152" cy="202.673" r="0.786753" fill="#091B36"/>
</g>
<g opacity="0.3">
<g filter="url(#filter7_dd_14221_7377)">
<rect x="321.702" y="390.543" width="65.2249" height="20.5709" rx="4.01384" fill="url(#paint19_linear_14221_7377)"/>
<rect x="321.273" y="390.114" width="66.0824" height="21.4284" rx="4.44259" stroke="url(#paint20_linear_14221_7377)" stroke-width="0.8575"/>
</g>
<path fill-rule="evenodd" clip-rule="evenodd" d="M329.596 403.184C328.732 402.319 328.197 401.125 328.197 399.806C328.197 397.168 330.335 395.03 332.973 395.03C335.61 395.03 337.749 397.168 337.749 399.806C337.749 401.125 337.214 402.319 336.349 403.184L336.35 403.184L332.973 406.561L329.596 403.184L329.596 403.184Z" fill="#15C1E6"/>
<path d="M342.364 399.513H341.584V398.925H343.12V403.065H342.364V399.513ZM344.753 402.213C344.957 402.363 345.275 402.525 345.683 402.525C345.989 402.525 346.229 402.459 346.403 402.249C346.601 402.015 346.703 401.601 346.703 401.055C346.583 401.283 346.265 401.589 345.623 401.589C344.975 401.589 344.345 401.163 344.345 400.317C344.345 399.513 344.909 398.865 345.827 398.865C346.529 398.865 346.895 399.207 347.087 399.501C347.261 399.759 347.441 400.269 347.441 400.941C347.441 401.679 347.279 402.273 346.961 402.633C346.685 402.957 346.241 403.137 345.707 403.137C345.011 403.137 344.603 402.861 344.459 402.747L344.753 402.213ZM346.619 400.239C346.619 399.825 346.349 399.447 345.851 399.447C345.353 399.447 345.089 399.825 345.089 400.239C345.089 400.653 345.353 401.037 345.851 401.037C346.349 401.037 346.619 400.701 346.619 400.239ZM348.231 402.567L349.665 401.241C349.995 400.935 350.295 400.593 350.295 400.185C350.295 399.771 350.031 399.507 349.563 399.507C349.041 399.507 348.747 399.837 348.549 400.059L348.189 399.585C348.321 399.393 348.747 398.865 349.623 398.865C350.505 398.865 351.075 399.351 351.075 400.083C351.075 400.791 350.517 401.313 350.259 401.559L349.335 402.423H351.249V403.065H348.333L348.231 402.567ZM352.631 403.131C352.343 403.131 352.145 402.963 352.145 402.687C352.145 402.405 352.343 402.237 352.631 402.237C352.907 402.237 353.111 402.405 353.111 402.687C353.111 402.963 352.907 403.131 352.631 403.131ZM354.609 399.513H353.829V398.925H355.365V403.065H354.609V399.513ZM359.308 399.789C359.086 399.609 358.786 399.477 358.438 399.477C358.126 399.477 357.91 399.579 357.73 399.783C357.55 399.993 357.394 400.377 357.394 400.923C357.634 400.611 357.952 400.401 358.498 400.401C359.146 400.401 359.752 400.821 359.752 401.685C359.752 402.489 359.188 403.137 358.27 403.137C357.538 403.137 357.154 402.699 356.98 402.435C356.806 402.177 356.656 401.769 356.656 401.073C356.656 400.329 356.89 399.753 357.202 399.399C357.496 399.063 357.868 398.865 358.414 398.865C358.996 398.865 359.374 399.069 359.602 399.231L359.308 399.789ZM359.008 401.745C359.008 401.331 358.732 400.971 358.24 400.971C357.778 400.971 357.478 401.331 357.478 401.745C357.478 402.165 357.778 402.531 358.282 402.531C358.774 402.531 359.008 402.165 359.008 401.745ZM361.993 403.131C361.153 403.131 360.457 402.711 360.457 401.907C360.457 401.409 360.775 401.037 361.249 400.899V400.881C360.949 400.767 360.583 400.461 360.583 399.951C360.583 399.243 361.249 398.865 361.993 398.865C362.737 398.865 363.403 399.243 363.403 399.951C363.403 400.461 363.037 400.767 362.737 400.881V400.899C363.211 401.037 363.529 401.409 363.529 401.907C363.529 402.711 362.833 403.131 361.993 403.131ZM361.993 400.617C362.365 400.617 362.635 400.407 362.635 400.047C362.635 399.693 362.365 399.465 361.993 399.465C361.621 399.465 361.351 399.693 361.351 400.047C361.351 400.407 361.621 400.617 361.993 400.617ZM361.993 402.519C362.401 402.519 362.743 402.279 362.743 401.847C362.743 401.415 362.419 401.163 361.993 401.163C361.567 401.163 361.243 401.415 361.243 401.847C361.243 402.279 361.585 402.519 361.993 402.519ZM364.935 403.131C364.647 403.131 364.449 402.963 364.449 402.687C364.449 402.405 364.647 402.237 364.935 402.237C365.211 402.237 365.415 402.405 365.415 402.687C365.415 402.963 365.211 403.131 364.935 403.131ZM366.081 401.001C366.081 399.915 366.597 398.865 367.755 398.865C368.913 398.865 369.423 399.915 369.423 401.001C369.423 402.087 368.913 403.137 367.755 403.137C366.591 403.137 366.081 402.087 366.081 401.001ZM368.631 400.989C368.631 400.143 368.355 399.537 367.755 399.537C367.155 399.537 366.873 400.143 366.873 400.989C366.873 401.829 367.155 402.441 367.755 402.441C368.355 402.441 368.631 401.829 368.631 400.989ZM370.581 403.131C370.293 403.131 370.095 402.963 370.095 402.687C370.095 402.405 370.293 402.237 370.581 402.237C370.857 402.237 371.061 402.405 371.061 402.687C371.061 402.963 370.857 403.131 370.581 403.131ZM373.439 402.483C373.799 402.483 374.237 402.273 374.237 401.709C374.237 401.151 373.841 400.905 373.373 400.905C373.097 400.905 372.821 400.995 372.629 401.121L372.275 400.911L372.665 398.925H374.867L374.861 399.567H373.157L372.959 400.491C373.157 400.407 373.403 400.353 373.655 400.353C374.411 400.353 375.029 400.851 375.029 401.721C375.029 402.627 374.267 403.131 373.409 403.131C372.623 403.131 372.089 402.585 371.987 402.441L372.401 401.949C372.611 402.213 372.965 402.483 373.439 402.483ZM375.662 401.001C375.662 399.915 376.178 398.865 377.336 398.865C378.494 398.865 379.004 399.915 379.004 401.001C379.004 402.087 378.494 403.137 377.336 403.137C376.172 403.137 375.662 402.087 375.662 401.001ZM378.212 400.989C378.212 400.143 377.936 399.537 377.336 399.537C376.736 399.537 376.454 400.143 376.454 400.989C376.454 401.829 376.736 402.441 377.336 402.441C377.936 402.441 378.212 401.829 378.212 400.989Z" fill="white"/>
<rect x="348.122" y="417.472" width="11.998" height="20.1256" rx="5" fill="#15C1E6"/>
<path fill-rule="evenodd" clip-rule="evenodd" d="M352.477 418.633C352.477 418.472 352.607 418.342 352.767 418.342H355.863C356.023 418.342 356.153 418.472 356.153 418.633C356.153 418.793 356.023 418.923 355.863 418.923H352.767C352.607 418.923 352.477 418.793 352.477 418.633Z" fill="#091B36"/>
<rect x="349.283" y="419.793" width="9.67579" height="14.7072" rx="2" fill="#091B36"/>
<circle cx="354.314" cy="436.049" r="0.774063" fill="#091B36"/>
</g>
<g filter="url(#filter8_dd_14221_7377)">
<circle cx="331.564" cy="349.812" r="3.00125" fill="#15C1E6"/>
</g>
<g filter="url(#filter9_dd_14221_7377)">
<circle cx="172.926" cy="318.942" r="3.00125" fill="#15C1E6"/>
</g>
<g filter="url(#filter10_dd_14221_7377)">
<circle cx="309.269" cy="196.32" r="3.00125" fill="#15C1E6"/>
</g>
<g filter="url(#filter11_dd_14221_7377)">
<circle cx="290.404" cy="249.485" r="3.00125" fill="#15C1E6"/>
</g>
<g filter="url(#filter12_dd_14221_7377)">
<circle cx="291.261" cy="423.557" r="3.00125" fill="#15C1E6"/>
</g>
</g>
<defs>
<filter id="filter0_d_14221_7377" x="3.17918" y="11.9483" width="581.816" height="580.99" filterUnits="userSpaceOnUse" color-interpolation-filters="sRGB">
<feFlood flood-opacity="0" result="BackgroundImageFix"/>
<feColorMatrix in="SourceAlpha" type="matrix" values="0 0 0 0 0 0 0 0 0 0 0 0 0 0 0 0 0 0 127 0" result="hardAlpha"/>
<feOffset dx="-0.460336" dy="5.06369"/>
<feGaussianBlur stdDeviation="3.68268"/>
<feColorMatrix type="matrix" values="0 0 0 0 0.075 0 0 0 0 0.18 0 0 0 0 0.45 0 0 0 0.08 0"/>
<feBlend mode="normal" in2="BackgroundImageFix" result="effect1_dropShadow_14221_7377"/>
<feBlend mode="normal" in="SourceGraphic" in2="effect1_dropShadow_14221_7377" result="shape"/>
</filter>
<filter id="filter1_d_14221_7377" x="62.0346" y="70.7179" width="464.104" height="463.45" filterUnits="userSpaceOnUse" color-interpolation-filters="sRGB">
<feFlood flood-opacity="0" result="BackgroundImageFix"/>
<feColorMatrix in="SourceAlpha" type="matrix" values="0 0 0 0 0 0 0 0 0 0 0 0 0 0 0 0 0 0 127 0" result="hardAlpha"/>
<feOffset dx="-0.460336" dy="5.06369"/>
<feGaussianBlur stdDeviation="3.68268"/>
<feColorMatrix type="matrix" values="0 0 0 0 0.075 0 0 0 0 0.18 0 0 0 0 0.45 0 0 0 0.08 0"/>
<feBlend mode="normal" in2="BackgroundImageFix" result="effect1_dropShadow_14221_7377"/>
<feBlend mode="normal" in="SourceGraphic" in2="effect1_dropShadow_14221_7377" result="shape"/>
</filter>
<filter id="filter2_dd_14221_7377" x="331.135" y="244.768" width="166.806" height="67.8713" filterUnits="userSpaceOnUse" color-interpolation-filters="sRGB">
<feFlood flood-opacity="0" result="BackgroundImageFix"/>
<feColorMatrix in="SourceAlpha" type="matrix" values="0 0 0 0 0 0 0 0 0 0 0 0 0 0 0 0 0 0 127 0" result="hardAlpha"/>
<feOffset dx="4.2875" dy="4.2875"/>
<feGaussianBlur stdDeviation="4.2875"/>
<feColorMatrix type="matrix" values="0 0 0 0 0 0 0 0 0 0.296699 0 0 0 0 0.858629 0 0 0 0.08 0"/>
<feBlend mode="normal" in2="BackgroundImageFix" result="effect1_dropShadow_14221_7377"/>
<feColorMatrix in="SourceAlpha" type="matrix" values="0 0 0 0 0 0 0 0 0 0 0 0 0 0 0 0 0 0 127 0" result="hardAlpha"/>
<feOffset/>
<feGaussianBlur stdDeviation="3.00125"/>
<feComposite in2="hardAlpha" operator="out"/>
<feColorMatrix type="matrix" values="0 0 0 0 0.0354167 0 0 0 0 0.105426 0 0 0 0 0.2125 0 0 0 0.07 0"/>
<feBlend mode="normal" in2="effect1_dropShadow_14221_7377" result="effect2_dropShadow_14221_7377"/>
<feBlend mode="normal" in="SourceGraphic" in2="effect2_dropShadow_14221_7377" result="shape"/>
</filter>
<filter id="filter3_dd_14221_7377" x="135.781" y="334.104" width="150.052" height="60.7437" filterUnits="userSpaceOnUse" color-interpolation-filters="sRGB">
<feFlood flood-opacity="0" result="BackgroundImageFix"/>
<feColorMatrix in="SourceAlpha" type="matrix" values="0 0 0 0 0 0 0 0 0 0 0 0 0 0 0 0 0 0 127 0" result="hardAlpha"/>
<feOffset dx="3.87031" dy="3.87031"/>
<feGaussianBlur stdDeviation="3.87031"/>
<feColorMatrix type="matrix" values="0 0 0 0 0 0 0 0 0 0.296699 0 0 0 0 0.858629 0 0 0 0.08 0"/>
<feBlend mode="normal" in2="BackgroundImageFix" result="effect1_dropShadow_14221_7377"/>
<feColorMatrix in="SourceAlpha" type="matrix" values="0 0 0 0 0 0 0 0 0 0 0 0 0 0 0 0 0 0 127 0" result="hardAlpha"/>
<feOffset/>
<feGaussianBlur stdDeviation="2.70922"/>
<feComposite in2="hardAlpha" operator="out"/>
<feColorMatrix type="matrix" values="0 0 0 0 0.0354167 0 0 0 0 0.105426 0 0 0 0 0.2125 0 0 0 0.07 0"/>
<feBlend mode="normal" in2="effect1_dropShadow_14221_7377" result="effect2_dropShadow_14221_7377"/>
<feBlend mode="normal" in="SourceGraphic" in2="effect2_dropShadow_14221_7377" result="shape"/>
</filter>
<filter id="filter4_dd_14221_7377" x="157.78" y="110.857" width="147.283" height="60.1702" filterUnits="userSpaceOnUse" color-interpolation-filters="sRGB">
<feFlood flood-opacity="0" result="BackgroundImageFix"/>
<feColorMatrix in="SourceAlpha" type="matrix" values="0 0 0 0 0 0 0 0 0 0 0 0 0 0 0 0 0 0 127 0" result="hardAlpha"/>
<feOffset dx="3.77514" dy="3.77514"/>
<feGaussianBlur stdDeviation="3.77514"/>
<feColorMatrix type="matrix" values="0 0 0 0 0 0 0 0 0 0.296699 0 0 0 0 0.858629 0 0 0 0.08 0"/>
<feBlend mode="normal" in2="BackgroundImageFix" result="effect1_dropShadow_14221_7377"/>
<feColorMatrix in="SourceAlpha" type="matrix" values="0 0 0 0 0 0 0 0 0 0 0 0 0 0 0 0 0 0 127 0" result="hardAlpha"/>
<feOffset/>
<feGaussianBlur stdDeviation="2.6426"/>
<feComposite in2="hardAlpha" operator="out"/>
<feColorMatrix type="matrix" values="0 0 0 0 0.0354167 0 0 0 0 0.105426 0 0 0 0 0.2125 0 0 0 0.07 0"/>
<feBlend mode="normal" in2="effect1_dropShadow_14221_7377" result="effect2_dropShadow_14221_7377"/>
<feBlend mode="normal" in="SourceGraphic" in2="effect2_dropShadow_14221_7377" result="shape"/>
</filter>
<filter id="filter5_dd_14221_7377" x="105.15" y="236.588" width="96.8622" height="39.7636" filterUnits="userSpaceOnUse" color-interpolation-filters="sRGB">
<feFlood flood-opacity="0" result="BackgroundImageFix"/>
<feColorMatrix in="SourceAlpha" type="matrix" values="0 0 0 0 0 0 0 0 0 0 0 0 0 0 0 0 0 0 127 0" result="hardAlpha"/>
<feOffset dx="2.47446" dy="2.47446"/>
<feGaussianBlur stdDeviation="2.47446"/>
<feColorMatrix type="matrix" values="0 0 0 0 0 0 0 0 0 0.296699 0 0 0 0 0.858629 0 0 0 0.08 0"/>
<feBlend mode="normal" in2="BackgroundImageFix" result="effect1_dropShadow_14221_7377"/>
<feColorMatrix in="SourceAlpha" type="matrix" values="0 0 0 0 0 0 0 0 0 0 0 0 0 0 0 0 0 0 127 0" result="hardAlpha"/>
<feOffset/>
<feGaussianBlur stdDeviation="1.73212"/>
<feComposite in2="hardAlpha" operator="out"/>
<feColorMatrix type="matrix" values="0 0 0 0 0.0354167 0 0 0 0 0.105426 0 0 0 0 0.2125 0 0 0 0.07 0"/>
<feBlend mode="normal" in2="effect1_dropShadow_14221_7377" result="effect2_dropShadow_14221_7377"/>
<feBlend mode="normal" in="SourceGraphic" in2="effect2_dropShadow_14221_7377" result="shape"/>
</filter>
<filter id="filter6_dd_14221_7377" x="358.394" y="152.834" width="76.6631" height="31.2773" filterUnits="userSpaceOnUse" color-interpolation-filters="sRGB">
<feFlood flood-opacity="0" result="BackgroundImageFix"/>
<feColorMatrix in="SourceAlpha" type="matrix" values="0 0 0 0 0 0 0 0 0 0 0 0 0 0 0 0 0 0 127 0" result="hardAlpha"/>
<feOffset dx="1.96688" dy="1.96688"/>
<feGaussianBlur stdDeviation="1.96688"/>
<feColorMatrix type="matrix" values="0 0 0 0 0 0 0 0 0 0.296699 0 0 0 0 0.858629 0 0 0 0.08 0"/>
<feBlend mode="normal" in2="BackgroundImageFix" result="effect1_dropShadow_14221_7377"/>
<feColorMatrix in="SourceAlpha" type="matrix" values="0 0 0 0 0 0 0 0 0 0 0 0 0 0 0 0 0 0 127 0" result="hardAlpha"/>
<feOffset/>
<feGaussianBlur stdDeviation="1.37682"/>
<feComposite in2="hardAlpha" operator="out"/>
<feColorMatrix type="matrix" values="0 0 0 0 0.0354167 0 0 0 0 0.105426 0 0 0 0 0.2125 0 0 0 0.07 0"/>
<feBlend mode="normal" in2="effect1_dropShadow_14221_7377" result="effect2_dropShadow_14221_7377"/>
<feBlend mode="normal" in="SourceGraphic" in2="effect2_dropShadow_14221_7377" result="shape"/>
</filter>
<filter id="filter7_dd_14221_7377" x="318.136" y="386.976" width="75.4541" height="30.8003" filterUnits="userSpaceOnUse" color-interpolation-filters="sRGB">
<feFlood flood-opacity="0" result="BackgroundImageFix"/>
<feColorMatrix in="SourceAlpha" type="matrix" values="0 0 0 0 0 0 0 0 0 0 0 0 0 0 0 0 0 0 127 0" result="hardAlpha"/>
<feOffset dx="1.93516" dy="1.93516"/>
<feGaussianBlur stdDeviation="1.93516"/>
<feColorMatrix type="matrix" values="0 0 0 0 0 0 0 0 0 0.296699 0 0 0 0 0.858629 0 0 0 0.08 0"/>
<feBlend mode="normal" in2="BackgroundImageFix" result="effect1_dropShadow_14221_7377"/>
<feColorMatrix in="SourceAlpha" type="matrix" values="0 0 0 0 0 0 0 0 0 0 0 0 0 0 0 0 0 0 127 0" result="hardAlpha"/>
<feOffset/>
<feGaussianBlur stdDeviation="1.35461"/>
<feComposite in2="hardAlpha" operator="out"/>
<feColorMatrix type="matrix" values="0 0 0 0 0.0354167 0 0 0 0 0.105426 0 0 0 0 0.2125 0 0 0 0.07 0"/>
<feBlend mode="normal" in2="effect1_dropShadow_14221_7377" result="effect2_dropShadow_14221_7377"/>
<feBlend mode="normal" in="SourceGraphic" in2="effect2_dropShadow_14221_7377" result="shape"/>
</filter>
<filter id="filter8_dd_14221_7377" x="315.7" y="333.948" width="31.7279" height="31.7274" filterUnits="userSpaceOnUse" color-interpolation-filters="sRGB">
<feFlood flood-opacity="0" result="BackgroundImageFix"/>
<feColorMatrix in="SourceAlpha" type="matrix" values="0 0 0 0 0 0 0 0 0 0 0 0 0 0 0 0 0 0 127 0" result="hardAlpha"/>
<feOffset/>
<feGaussianBlur stdDeviation="2.5725"/>
<feColorMatrix type="matrix" values="0 0 0 0 0.0823529 0 0 0 0 0.756863 0 0 0 0 0.901961 0 0 0 1 0"/>
<feBlend mode="normal" in2="BackgroundImageFix" result="effect1_dropShadow_14221_7377"/>
<feColorMatrix in="SourceAlpha" type="matrix" values="0 0 0 0 0 0 0 0 0 0 0 0 0 0 0 0 0 0 127 0" result="hardAlpha"/>
<feOffset/>
<feGaussianBlur stdDeviation="6.43125"/>
<feColorMatrix type="matrix" values="0 0 0 0 0.0823529 0 0 0 0 0.756863 0 0 0 0 0.901961 0 0 0 1 0"/>
<feBlend mode="normal" in2="effect1_dropShadow_14221_7377" result="effect2_dropShadow_14221_7377"/>
<feBlend mode="normal" in="SourceGraphic" in2="effect2_dropShadow_14221_7377" result="shape"/>
</filter>
<filter id="filter9_dd_14221_7377" x="157.062" y="303.078" width="31.7279" height="31.7274" filterUnits="userSpaceOnUse" color-interpolation-filters="sRGB">
<feFlood flood-opacity="0" result="BackgroundImageFix"/>
<feColorMatrix in="SourceAlpha" type="matrix" values="0 0 0 0 0 0 0 0 0 0 0 0 0 0 0 0 0 0 127 0" result="hardAlpha"/>
<feOffset/>
<feGaussianBlur stdDeviation="2.5725"/>
<feColorMatrix type="matrix" values="0 0 0 0 0.0823529 0 0 0 0 0.756863 0 0 0 0 0.901961 0 0 0 1 0"/>
<feBlend mode="normal" in2="BackgroundImageFix" result="effect1_dropShadow_14221_7377"/>
<feColorMatrix in="SourceAlpha" type="matrix" values="0 0 0 0 0 0 0 0 0 0 0 0 0 0 0 0 0 0 127 0" result="hardAlpha"/>
<feOffset/>
<feGaussianBlur stdDeviation="6.43125"/>
<feColorMatrix type="matrix" values="0 0 0 0 0.0823529 0 0 0 0 0.756863 0 0 0 0 0.901961 0 0 0 1 0"/>
<feBlend mode="normal" in2="effect1_dropShadow_14221_7377" result="effect2_dropShadow_14221_7377"/>
<feBlend mode="normal" in="SourceGraphic" in2="effect2_dropShadow_14221_7377" result="shape"/>
</filter>
<filter id="filter10_dd_14221_7377" x="293.405" y="180.456" width="31.7279" height="31.7279" filterUnits="userSpaceOnUse" color-interpolation-filters="sRGB">
<feFlood flood-opacity="0" result="BackgroundImageFix"/>
<feColorMatrix in="SourceAlpha" type="matrix" values="0 0 0 0 0 0 0 0 0 0 0 0 0 0 0 0 0 0 127 0" result="hardAlpha"/>
<feOffset/>
<feGaussianBlur stdDeviation="2.5725"/>
<feColorMatrix type="matrix" values="0 0 0 0 0.0823529 0 0 0 0 0.756863 0 0 0 0 0.901961 0 0 0 1 0"/>
<feBlend mode="normal" in2="BackgroundImageFix" result="effect1_dropShadow_14221_7377"/>
<feColorMatrix in="SourceAlpha" type="matrix" values="0 0 0 0 0 0 0 0 0 0 0 0 0 0 0 0 0 0 127 0" result="hardAlpha"/>
<feOffset/>
<feGaussianBlur stdDeviation="6.43125"/>
<feColorMatrix type="matrix" values="0 0 0 0 0.0823529 0 0 0 0 0.756863 0 0 0 0 0.901961 0 0 0 1 0"/>
<feBlend mode="normal" in2="effect1_dropShadow_14221_7377" result="effect2_dropShadow_14221_7377"/>
<feBlend mode="normal" in="SourceGraphic" in2="effect2_dropShadow_14221_7377" result="shape"/>
</filter>
<filter id="filter11_dd_14221_7377" x="274.54" y="233.621" width="31.7279" height="31.7279" filterUnits="userSpaceOnUse" color-interpolation-filters="sRGB">
<feFlood flood-opacity="0" result="BackgroundImageFix"/>
<feColorMatrix in="SourceAlpha" type="matrix" values="0 0 0 0 0 0 0 0 0 0 0 0 0 0 0 0 0 0 127 0" result="hardAlpha"/>
<feOffset/>
<feGaussianBlur stdDeviation="2.5725"/>
<feColorMatrix type="matrix" values="0 0 0 0 0.0823529 0 0 0 0 0.756863 0 0 0 0 0.901961 0 0 0 1 0"/>
<feBlend mode="normal" in2="BackgroundImageFix" result="effect1_dropShadow_14221_7377"/>
<feColorMatrix in="SourceAlpha" type="matrix" values="0 0 0 0 0 0 0 0 0 0 0 0 0 0 0 0 0 0 127 0" result="hardAlpha"/>
<feOffset/>
<feGaussianBlur stdDeviation="6.43125"/>
<feColorMatrix type="matrix" values="0 0 0 0 0.0823529 0 0 0 0 0.756863 0 0 0 0 0.901961 0 0 0 1 0"/>
<feBlend mode="normal" in2="effect1_dropShadow_14221_7377" result="effect2_dropShadow_14221_7377"/>
<feBlend mode="normal" in="SourceGraphic" in2="effect2_dropShadow_14221_7377" result="shape"/>
</filter>
<filter id="filter12_dd_14221_7377" x="275.397" y="407.693" width="31.7279" height="31.7274" filterUnits="userSpaceOnUse" color-interpolation-filters="sRGB">
<feFlood flood-opacity="0" result="BackgroundImageFix"/>
<feColorMatrix in="SourceAlpha" type="matrix" values="0 0 0 0 0 0 0 0 0 0 0 0 0 0 0 0 0 0 127 0" result="hardAlpha"/>
<feOffset/>
<feGaussianBlur stdDeviation="2.5725"/>
<feColorMatrix type="matrix" values="0 0 0 0 0.0823529 0 0 0 0 0.756863 0 0 0 0 0.901961 0 0 0 1 0"/>
<feBlend mode="normal" in2="BackgroundImageFix" result="effect1_dropShadow_14221_7377"/>
<feColorMatrix in="SourceAlpha" type="matrix" values="0 0 0 0 0 0 0 0 0 0 0 0 0 0 0 0 0 0 127 0" result="hardAlpha"/>
<feOffset/>
<feGaussianBlur stdDeviation="6.43125"/>
<feColorMatrix type="matrix" values="0 0 0 0 0.0823529 0 0 0 0 0.756863 0 0 0 0 0.901961 0 0 0 1 0"/>
<feBlend mode="normal" in2="effect1_dropShadow_14221_7377" result="effect2_dropShadow_14221_7377"/>
<feBlend mode="normal" in="SourceGraphic" in2="effect2_dropShadow_14221_7377" result="shape"/>
</filter>
<radialGradient id="paint0_radial_14221_7377" cx="0" cy="0" r="1" gradientUnits="userSpaceOnUse" gradientTransform="translate(295.698 277.529) rotate(90) scale(121.603 331.573)">
<stop stop-color="#092349"/>
<stop offset="0.515625" stop-color="#092349" stop-opacity="0.8"/>
<stop offset="0.739583" stop-color="#092349" stop-opacity="0"/>
<stop offset="1" stop-color="#092349" stop-opacity="0"/>
</radialGradient>
<linearGradient id="paint1_linear_14221_7377" x1="294.557" y1="173.595" x2="294.557" y2="412.969" gradientUnits="userSpaceOnUse">
<stop stop-color="#303B45" stop-opacity="0"/>
<stop offset="0.171669" stop-color="#0C1014" stop-opacity="0.744681"/>
<stop offset="0.489583" stop-color="#000203"/>
<stop offset="0.807945" stop-color="#0D1115" stop-opacity="0.72449"/>
<stop offset="1" stop-color="#303B45" stop-opacity="0"/>
</linearGradient>
<linearGradient id="paint2_linear_14221_7377" x1="11.5478" y1="278.915" x2="578.874" y2="286.096" gradientUnits="userSpaceOnUse">
<stop stop-color="#15C1E6"/>
<stop offset="1" stop-color="#1089A3"/>
</linearGradient>
<linearGradient id="paint3_linear_14221_7377" x1="70.8943" y1="282.787" x2="519.248" y2="288.463" gradientUnits="userSpaceOnUse">
<stop stop-color="#15C1E6"/>
<stop offset="1" stop-color="#1089A3"/>
</linearGradient>
<radialGradient id="paint4_radial_14221_7377" cx="0" cy="0" r="1" gradientUnits="userSpaceOnUse" gradientTransform="translate(105.77 207.051) rotate(8.42909) scale(280.705 327.169)">
<stop stop-color="#15C1E6"/>
<stop offset="0.869792" stop-color="#15C1E6" stop-opacity="0"/>
</radialGradient>
<linearGradient id="paint5_linear_14221_7377" x1="406.351" y1="178.708" x2="406.345" y2="178.725" gradientUnits="userSpaceOnUse">
<stop stop-color="#15C1E6"/>
<stop offset="1" stop-color="#15C1E6" stop-opacity="0"/>
</linearGradient>
<radialGradient id="paint6_radial_14221_7377" cx="0" cy="0" r="1" gradientUnits="userSpaceOnUse" gradientTransform="translate(538.22 251.199) rotate(148.078) scale(219.738 168.524)">
<stop stop-color="#15C1E6"/>
<stop offset="1" stop-color="#15C1E6" stop-opacity="0"/>
</radialGradient>
<linearGradient id="paint7_linear_14221_7377" x1="408.98" y1="180.301" x2="408.487" y2="181.351" gradientUnits="userSpaceOnUse">
<stop stop-color="#15C1E6"/>
<stop offset="1" stop-color="#15C1E6" stop-opacity="0"/>
</linearGradient>
<linearGradient id="paint8_linear_14221_7377" x1="406.97" y1="178.371" x2="406.462" y2="179.534" gradientUnits="userSpaceOnUse">
<stop stop-color="#15C1E6"/>
<stop offset="1" stop-color="#15C1E6" stop-opacity="0"/>
</linearGradient>
<linearGradient id="paint9_linear_14221_7377" x1="491.909" y1="233.148" x2="465.041" y2="333.436" gradientUnits="userSpaceOnUse">
<stop stop-color="#0A479C"/>
<stop offset="1" stop-color="#091B36"/>
</linearGradient>
<linearGradient id="paint10_linear_14221_7377" x1="354.988" y1="295.582" x2="389.496" y2="213.519" gradientUnits="userSpaceOnUse">
<stop stop-color="#1B4582"/>
<stop offset="1" stop-color="#3160A6"/>
</linearGradient>
<linearGradient id="paint11_linear_14221_7377" x1="280.649" y1="323.352" x2="256.395" y2="413.882" gradientUnits="userSpaceOnUse">
<stop stop-color="#0A479C"/>
<stop offset="1" stop-color="#091B36"/>
</linearGradient>
<linearGradient id="paint12_linear_14221_7377" x1="157.051" y1="379.711" x2="188.201" y2="305.633" gradientUnits="userSpaceOnUse">
<stop stop-color="#1B4582"/>
<stop offset="1" stop-color="#3160A6"/>
</linearGradient>
<linearGradient id="paint13_linear_14221_7377" x1="299.547" y1="100.831" x2="275.889" y2="189.134" gradientUnits="userSpaceOnUse">
<stop stop-color="#0A479C"/>
<stop offset="1" stop-color="#091B36"/>
</linearGradient>
<linearGradient id="paint14_linear_14221_7377" x1="178.987" y1="155.804" x2="209.372" y2="83.5474" gradientUnits="userSpaceOnUse">
<stop stop-color="#1B4582"/>
<stop offset="1" stop-color="#3160A6"/>
</linearGradient>
<linearGradient id="paint15_linear_14221_7377" x1="198.235" y1="230.178" x2="182.728" y2="288.057" gradientUnits="userSpaceOnUse">
<stop stop-color="#0A479C"/>
<stop offset="1" stop-color="#091B36"/>
</linearGradient>
<linearGradient id="paint16_linear_14221_7377" x1="119.213" y1="266.21" x2="139.129" y2="218.849" gradientUnits="userSpaceOnUse">
<stop stop-color="#1B4582"/>
<stop offset="1" stop-color="#3160A6"/>
</linearGradient>
<linearGradient id="paint17_linear_14221_7377" x1="432.219" y1="147.574" x2="419.893" y2="193.581" gradientUnits="userSpaceOnUse">
<stop stop-color="#0A479C"/>
<stop offset="1" stop-color="#091B36"/>
</linearGradient>
<linearGradient id="paint18_linear_14221_7377" x1="369.407" y1="176.216" x2="385.238" y2="138.57" gradientUnits="userSpaceOnUse">
<stop stop-color="#1B4582"/>
<stop offset="1" stop-color="#3160A6"/>
</linearGradient>
<linearGradient id="paint19_linear_14221_7377" x1="390.784" y1="381.815" x2="378.657" y2="427.08" gradientUnits="userSpaceOnUse">
<stop stop-color="#0A479C"/>
<stop offset="1" stop-color="#091B36"/>
</linearGradient>
<linearGradient id="paint20_linear_14221_7377" x1="328.985" y1="409.994" x2="344.56" y2="372.955" gradientUnits="userSpaceOnUse">
<stop stop-color="#1B4582"/>
<stop offset="1" stop-color="#3160A6"/>
</linearGradient>
<clipPath id="clip0_14221_7377">
<rect width="575.382" height="343" fill="white" transform="translate(7 117)"/>
</clipPath>
</defs>
</svg>
