<svg width="60" height="61" viewBox="0 0 60 61" fill="none" xmlns="http://www.w3.org/2000/svg">
<mask id="mask0_7908_8671" style="mask-type:alpha" maskUnits="userSpaceOnUse" x="0" y="0" width="60" height="61">
<rect y="0.597656" width="60" height="60" fill="#F5EFEF"/>
</mask>
<g mask="url(#mask0_7908_8671)">
<path fill-rule="evenodd" clip-rule="evenodd" d="M25.4954 8.09766C24.6696 8.09766 24.0002 8.76704 24.0002 9.59278V24.2765C30.3016 25.8469 34.9704 31.5441 34.9704 38.3316C34.9704 42.2761 33.3901 45.8567 30.8346 48.466H47.9222C48.7479 48.466 49.4173 47.7966 49.4173 46.9708V9.59278C49.4173 8.76705 48.7479 8.09766 47.9222 8.09766H25.4954ZM26.7417 48.466L28.6798 46.5278L28.6783 46.5263L28.6808 46.5239C30.777 44.4271 32.0734 41.5308 32.0734 38.3316C32.0734 33.1572 28.6817 28.775 24.0002 27.2868V46.9708C24.0002 47.7966 24.6696 48.466 25.4954 48.466H26.7417Z" fill="#98DEF4"/>
<path fill-rule="evenodd" clip-rule="evenodd" d="M12.2934 46.5253C10.1956 44.4283 8.89804 41.5308 8.89803 38.3303C8.89803 31.9308 14.0859 26.743 20.4854 26.743C26.8849 26.743 32.0727 31.9308 32.0727 38.3303C32.0727 41.5307 30.7752 44.428 28.6776 46.525L28.6791 46.5265L20.4856 54.72L12.2922 46.5265L12.2934 46.5253Z" fill="#15C1E6"/>
<path d="M31.4736 8.09766H43.4346L41.4913 10.5268C41.2076 10.8814 40.778 11.0879 40.3238 11.0879H34.5844C34.1302 11.0879 33.7007 10.8814 33.4169 10.5268L31.4736 8.09766Z" fill="#15C1E6"/>
</g>
</svg>
