<svg width="40" height="41" viewBox="0 0 40 41" fill="none" xmlns="http://www.w3.org/2000/svg">
<g id="Product icons">
<g id="Group 11007">
<g id="Group 11005">
<path id="Union" fill-rule="evenodd" clip-rule="evenodd" d="M8.46411 31.1184C7.06559 29.7204 6.20054 27.7888 6.20054 25.6551C6.20054 21.3888 9.65908 17.9302 13.9254 17.9302C18.1917 17.9302 21.6503 21.3888 21.6503 25.6551C21.6503 27.7887 20.7853 29.7202 19.3869 31.1182L19.3879 31.1192L13.9256 36.5815L8.4633 31.1192L8.46411 31.1184Z" fill="#15C1E6"/>
<path id="Subtract" fill-rule="evenodd" clip-rule="evenodd" d="M39.0355 13.6356L32.6585 6.91794C32.514 6.7645 32.3397 6.64209 32.1464 6.55819C31.953 6.47429 31.7446 6.43066 31.5338 6.42993H16.97C16.7625 6.43322 16.5577 6.47809 16.3678 6.56191C16.1779 6.64573 16.0067 6.7668 15.8644 6.91794L9.46706 13.6279C9.17218 13.9433 9.00591 14.3576 9.00097 14.7894C8.99603 15.2211 9.15278 15.6391 9.44038 15.9612L10.1137 16.7056C11.2842 16.2064 12.5725 15.9301 13.9254 15.9301C19.2963 15.9301 23.6503 20.2841 23.6503 25.655C23.6503 27.3538 23.2137 28.9522 22.4477 30.3423L23.1094 31.0739C23.2418 31.2242 23.4026 31.347 23.5824 31.4352C23.7623 31.5234 23.9577 31.5753 24.1577 31.5879C24.3576 31.6005 24.558 31.5736 24.7475 31.5088C24.9371 31.4439 25.112 31.3424 25.2623 31.2099C25.3097 31.1672 25.3547 31.1218 25.397 31.0739L39.0622 15.9612C39.3458 15.6387 39.5 15.2226 39.495 14.7932C39.4901 14.3638 39.3264 13.9515 39.0355 13.6356Z" fill="#98DEF4"/>
<path id="Subtract_2" fill-rule="evenodd" clip-rule="evenodd" d="M22.4239 30.3854L23.1079 31.1423C23.2391 31.2923 23.3988 31.4146 23.5778 31.5022C23.7575 31.5907 23.9528 31.6433 24.1527 31.6571C24.3528 31.6695 24.5534 31.6423 24.743 31.5772C24.9325 31.512 25.1074 31.4101 25.2575 31.2773C25.305 31.2348 25.35 31.1898 25.3925 31.1423L39.055 16.0251C39.342 15.7055 39.4989 15.2901 39.4949 14.8607C39.4898 14.4308 39.326 14.0179 39.035 13.7013L32.6562 6.99974C32.5162 6.84652 32.346 6.72399 32.1563 6.63993C31.9605 6.54886 31.7473 6.50112 31.5314 6.5H16.969C16.761 6.50503 16.5558 6.5491 16.3641 6.62993C16.1744 6.714 16.0042 6.83652 15.8642 6.98975L9.46539 13.6963C9.17073 14.0111 9.00473 14.4248 9.0001 14.8558C8.99547 15.2869 9.15256 15.7041 9.44039 16.0251L10.0713 16.7238C11.1249 16.2686 12.275 15.9943 13.4824 15.9401L12.5298 14.8857L17.6089 9.54843H30.8765L32.2635 11H20.75C18.6789 11 17 12.6789 17 14.75C17 15.4244 17.178 16.0573 17.4897 16.6041C18.611 17.0461 19.6305 17.6903 20.503 18.492C20.5847 18.4973 20.667 18.5 20.75 18.5H24.3958C24.9481 18.5 25.3958 18.9477 25.3958 19.5C25.3958 20.0523 24.9481 20.5 24.3958 20.5H22.1731C22.743 21.4099 23.1666 22.4209 23.4107 23.5H24.3958C26.605 23.5 28.3958 21.7091 28.3958 19.5C28.3958 17.2909 26.605 15.5 24.3958 15.5H20.75C20.3358 15.5 20 15.1642 20 14.75C20 14.3358 20.3358 14 20.75 14H35V13.8638L35.9956 14.9057L24.4077 27.7591L23.5644 26.9522C23.3999 28.1843 23.0046 29.344 22.4239 30.3854Z" fill="#15C1E6"/>
</g>
</g>
</g>
</svg>
