<svg width="147" height="45" viewBox="0 0 147 45" fill="none" xmlns="http://www.w3.org/2000/svg">
<g id="Property 1=Variant4" clip-path="url(#clip0_927_1240)">
<path id="Vector" d="M77.7309 9.52259C80.3981 12.0668 81.3345 15.171 80.5949 18.7159C79.8439 22.3157 77.4756 24.5478 74.1122 25.8568C74.1633 25.9022 74.2182 25.9571 74.2787 26.0006C75.7371 27.0296 77.1842 28.0719 78.6578 29.0802C79.3729 29.5701 80.0974 30.0411 80.6894 30.6824C82.426 32.5645 83.211 34.7834 82.9688 37.3315C82.6019 41.2112 79.6453 44.3229 75.7939 44.8961C75.1829 44.9869 74.5549 44.9812 73.9344 44.985C71.5566 44.9944 69.1789 45.0228 66.803 44.9774C64.4347 44.9301 62.4333 43.9805 60.8406 42.2459C59.0984 40.3467 58.3285 38.073 58.6576 35.523C59.0605 32.417 60.7308 30.1546 63.574 28.7964C64.6806 28.2686 65.859 28.019 67.0924 28.0379C68.1139 28.053 69.1372 28.0549 70.1587 28.0606C70.1776 28.0606 70.1985 28.0417 70.2968 27.9452C70.2212 27.9073 70.1379 27.8809 70.0698 27.8336C69.1448 27.181 68.2255 26.5208 67.2967 25.872C67.0848 25.7244 66.854 25.6033 66.6195 25.4936C64.149 24.3492 62.3463 22.5635 61.3626 20.0079C60.8292 18.6213 60.7157 17.1723 60.8216 15.6988C61.1527 11.1399 64.9322 7.64042 69.0673 7.04645C70.2117 6.88187 71.358 6.84972 72.4968 7.05401C73.3461 7.20723 74.1293 7.00483 74.867 6.63029C76.7851 5.65799 77.8917 4.10874 78.0979 1.95418C78.1414 1.50775 78.1263 1.50586 78.5765 1.50586C79.615 1.50586 80.6554 1.50586 81.6939 1.50586C82.0609 1.50586 82.0684 1.50586 82.0495 1.86716C81.9644 3.57719 81.4877 5.16616 80.5703 6.62083C79.8382 7.7804 78.881 8.72243 77.7253 9.52637L77.7309 9.52259ZM71.1216 31.9403C71.1216 31.9271 71.1216 31.9157 71.1216 31.9025C70.0282 31.9025 68.933 31.893 67.8396 31.9063C67.361 31.9119 66.8786 31.9346 66.4038 31.9989C64.4555 32.26 62.8305 33.9057 62.5582 35.8673C62.282 37.8573 63.3621 39.8227 65.1724 40.655C66.1258 41.0939 67.1378 41.1109 68.1536 41.1128C69.8617 41.1166 71.568 41.1071 73.2761 41.0958C73.8493 41.092 74.4244 41.0882 74.9956 41.0409C77.6004 40.8177 79.5223 38.2584 79.021 35.699C78.5954 33.5312 76.8305 32.0103 74.6154 31.946C73.4521 31.9119 72.2868 31.9403 71.1235 31.9403H71.1216ZM70.7603 10.9092C69.8353 10.8732 68.9197 11.0567 68.0912 11.5315C65.7399 12.8746 64.7978 15.1161 65.2291 17.6755C65.9044 21.6915 69.8674 23.252 73.1456 21.8749C75.5801 20.8516 76.8891 18.2752 76.3727 15.4112C75.9509 13.0751 73.679 10.7711 70.7622 10.911L70.7603 10.9092Z" fill="#5500F7"/>
<path id="Vector_2" d="M19.5689 15.3075H12.5188C12.5112 15.1467 12.4998 15.0011 12.498 14.8573C12.4923 13.7186 12.4923 12.5798 12.4809 11.441C12.4809 11.2708 12.5225 11.2046 12.7041 11.2065C16.3644 11.2103 20.0248 11.2103 23.6851 11.2027C23.8818 11.2027 23.9158 11.2727 23.9158 11.4505C23.9064 14.6247 23.9007 17.7969 23.9064 20.9711C23.9064 21.3078 23.8118 21.5575 23.581 21.811C21.6156 23.9674 19.1962 25.3218 16.3493 25.9271C14.7887 26.2582 13.2168 26.2979 11.6316 26.1106C9.59241 25.8685 7.68943 25.2367 5.96994 24.1169C2.93765 22.1382 0.941984 19.418 0.278022 15.8353C-0.3273 12.5703 0.00751835 9.39997 1.74782 6.50956C3.80024 3.10084 6.8155 0.982213 10.7558 0.265285C13.5384 -0.241672 16.2718 -0.0430509 18.9011 1.06734C20.3596 1.68401 21.6307 2.58253 22.779 3.66644C22.9473 3.82533 22.8622 3.91424 22.7392 4.02395C21.8956 4.79006 21.0519 5.55807 20.2101 6.32607C20.1137 6.41497 20.0172 6.50388 19.9207 6.59279C19.6218 6.35066 19.3438 6.11042 19.0506 5.8891C17.6602 4.84492 16.0883 4.30392 14.3593 4.1715C12.8441 4.05422 11.3611 4.19042 9.96695 4.80141C6.91575 6.14069 5.09411 8.45037 4.64012 11.774C4.40178 13.5162 4.54176 15.2338 5.26247 16.8511C6.46744 19.5523 8.52364 21.2832 11.4386 21.8866C13.6878 22.352 15.8896 22.142 17.9477 21.043C18.4717 20.763 18.9446 20.3885 19.427 20.0385C19.5178 19.9723 19.5972 19.8191 19.5972 19.7056C19.6067 18.2604 19.601 16.8152 19.5972 15.37C19.5972 15.3567 19.5859 15.3416 19.5708 15.3094L19.5689 15.3075Z" fill="#5500F7"/>
<path id="Vector_3" d="M97.96 9.87271V7.43819C98.0849 7.43819 98.1908 7.43819 98.2986 7.43819C99.5509 7.43819 100.801 7.44008 102.054 7.43062C102.265 7.43062 102.332 7.4798 102.33 7.70301C102.322 13.5236 102.322 19.3422 102.324 25.1628C102.324 25.804 102.332 25.804 101.685 25.8059C100.544 25.8059 99.4014 25.8059 98.2608 25.8059C97.9335 25.8059 97.9373 25.8059 97.9411 25.49C97.9487 24.8223 97.9543 24.1545 97.9581 23.4887C97.9581 23.4452 97.9392 23.4017 97.9146 23.2995C97.8333 23.4508 97.7803 23.5568 97.7198 23.657C97.1769 24.5858 96.3521 25.1779 95.3742 25.577C93.8552 26.1956 92.2757 26.3053 90.6678 26.084C88.6645 25.8097 86.9545 24.9244 85.5585 23.4754C83.9847 21.843 83.1315 19.8775 82.9518 17.617C82.8308 16.1037 82.9197 14.6056 83.4607 13.185C84.7186 9.88028 87.0567 7.78435 90.5902 7.17336C92.183 6.89907 93.7814 7.01257 95.3023 7.61978C96.3578 8.03972 97.2412 8.68855 97.7917 9.7176C97.8181 9.76489 97.8522 9.8084 97.8844 9.85191C97.8919 9.86136 97.9127 9.86136 97.9581 9.87271H97.96ZM92.6862 11.038C90.6035 11.055 89.0145 11.9497 87.9571 13.7411C87.4066 14.6718 87.2477 15.7027 87.2553 16.7734C87.2761 20.0837 89.8752 22.1853 92.5008 22.2043C94.2297 22.2175 95.7014 21.6651 96.8553 20.3807C98.3194 18.7482 98.5899 16.8339 97.9865 14.7928C97.4058 12.8237 95.3515 10.9963 92.6862 11.038Z" fill="#5500F7"/>
<path id="Vector_4" d="M44.1734 17.7534C44.1734 18.7579 44.476 19.6337 45.0416 20.4187C45.821 21.5026 46.9068 22.1212 48.1988 22.3501C50.0507 22.6774 51.8231 22.4693 53.4102 21.3683C53.7583 21.1281 54.0704 20.8349 54.392 20.5606C54.4487 20.5114 54.4771 20.4282 54.5319 20.3393C54.8478 20.6325 55.1108 20.8652 55.3643 21.1092C55.9488 21.6691 56.5257 22.2385 57.114 22.7946C57.2275 22.9025 57.237 22.9649 57.1254 23.0765C55.3624 24.8546 53.2513 25.9064 50.743 26.1542C48.9781 26.3282 47.2435 26.1958 45.5883 25.5564C42.4841 24.359 40.5547 22.1269 39.9834 18.8355C39.6429 16.8757 39.6713 14.8971 40.3655 13.0017C41.5497 9.76319 43.8821 7.81481 47.2624 7.15274C49.1049 6.79144 50.9511 6.85008 52.7311 7.49891C55.0578 8.34825 56.6638 9.98451 57.6853 12.2072C58.3341 13.6183 58.5327 15.1203 58.4703 16.662C58.459 16.9211 58.4476 17.1803 58.4382 17.4394C58.4268 17.7534 58.4268 17.7534 58.1223 17.7534C53.5805 17.7534 49.0368 17.7534 44.4949 17.7534C44.4023 17.7534 44.3077 17.7534 44.1772 17.7534H44.1734ZM53.9134 13.7848C53.8982 13.7243 53.8926 13.694 53.8831 13.6675C53.361 12.2204 52.2941 11.3314 50.8679 10.883C49.6269 10.4915 48.3747 10.6087 47.1735 11.093C45.9969 11.5678 45.0719 12.3377 44.5328 13.5162C44.4949 13.5975 44.4741 13.6845 44.4382 13.7867H53.9115L53.9134 13.7848Z" fill="#5500F7"/>
<path id="Vector_5" d="M126.69 16.6062C126.613 12.2044 129.573 8.90161 132.743 7.67773C136.012 6.41601 139.235 6.58815 142.243 8.47032C144.534 9.90418 146.053 11.9566 146.552 14.6446C147.095 17.5728 146.577 20.293 144.645 22.6386C142.973 24.6684 140.828 25.9055 138.197 26.229C135.846 26.5165 133.593 26.2006 131.535 24.9653C129.022 23.4558 127.384 21.3031 126.864 18.3825C126.76 17.798 126.747 17.1983 126.69 16.6062ZM131.065 16.6006C131.099 17.0073 131.099 17.4177 131.169 17.8169C131.595 20.2268 133.665 22.3 136.502 22.3417C137.682 22.3587 138.795 22.1525 139.784 21.498C141.645 20.2627 142.497 18.4997 142.389 16.2865C142.287 14.1793 141.263 12.6187 139.459 11.5594C138.52 11.007 137.486 10.8727 136.411 10.9067C135.316 10.9408 134.311 11.2416 133.438 11.8904C131.862 13.0575 131.045 14.6181 131.065 16.6024V16.6006Z" fill="#5500F7"/>
<path id="Vector_6" d="M106.09 7.44947H110.445V9.94075C110.462 9.94643 110.479 9.9521 110.496 9.95588C110.56 9.84617 110.623 9.73646 110.691 9.62863C111.548 8.29314 112.804 7.56108 114.332 7.24329C115.204 7.06169 116.084 7.08628 116.965 7.14871C117.139 7.16195 117.205 7.24518 117.205 7.42299C117.2 8.67903 117.2 9.93697 117.202 11.193C117.202 11.3689 117.177 11.4389 116.961 11.3992C115.876 11.193 114.78 11.1552 113.712 11.4635C111.892 11.9875 110.846 13.2265 110.509 15.069C110.449 15.4057 110.441 15.7556 110.441 16.0999C110.441 19.2343 110.445 22.3688 110.454 25.5013C110.454 25.7321 110.401 25.8096 110.153 25.8077C108.871 25.7926 107.586 25.7964 106.304 25.8059C106.113 25.8059 106.064 25.7491 106.064 25.5656C106.069 19.6202 106.069 13.6729 106.073 7.72754C106.073 7.63485 106.086 7.54406 106.094 7.44569L106.09 7.44947Z" fill="#5500F7"/>
<path id="Vector_7" d="M38.7349 11.4347C37.8553 11.2701 37.0211 11.202 36.1774 11.2928C33.9869 11.5274 32.3866 12.8761 32.0461 15.1706C31.9856 15.5792 31.9837 15.9992 31.9837 16.4153C31.978 19.1563 31.9818 21.8973 31.9837 24.6401C31.9837 24.9466 31.9837 25.253 31.9931 25.5595C31.9969 25.7316 31.9515 25.8111 31.7529 25.8092C30.4458 25.7997 29.1387 25.8016 27.8334 25.8092C27.6518 25.8092 27.6102 25.7449 27.6102 25.5746C27.6102 19.6122 27.6102 13.6517 27.6027 7.68925C27.6027 7.49252 27.6575 7.43388 27.8542 7.43388C29.1538 7.44145 30.4515 7.44145 31.751 7.43388C31.9534 7.43388 32.0045 7.50009 32.0007 7.69114C31.9856 8.38915 31.9856 9.08906 31.9799 9.78707C31.9799 9.85327 31.9875 9.91759 31.9969 10.0557C32.0877 9.90435 32.1426 9.81544 32.1974 9.72464C33.043 8.3324 34.3198 7.57764 35.8804 7.2485C36.7279 7.06879 37.5848 7.08014 38.4417 7.15392C38.7406 7.1804 38.733 7.19743 38.733 7.50576C38.7292 8.71451 38.7368 9.92516 38.7406 11.1339C38.7406 11.2266 38.7406 11.3193 38.7406 11.4404L38.7349 11.4347Z" fill="#5500F7"/>
<path id="Vector_8" d="M120.238 7.44727H124.604C124.609 7.52671 124.621 7.59292 124.621 7.66102C124.621 13.544 124.621 19.427 124.621 25.3118C124.621 25.641 124.46 25.8062 124.14 25.8074C122.92 25.8074 121.7 25.8036 120.48 25.8112C120.298 25.8112 120.232 25.7734 120.232 25.5785C120.238 19.7977 120.24 14.0169 120.242 8.23418C120.242 7.97692 120.242 7.71966 120.242 7.44916L120.238 7.44727Z" fill="#5500F7"/>
<path id="Vector_9" d="M122.477 0.157369C123.851 0.189527 125.054 1.24695 125.02 2.79241C124.986 4.37003 123.767 5.36881 122.341 5.33665C120.837 5.3026 119.75 4.09574 119.816 2.59379C119.876 1.20344 121.083 0.10062 122.477 0.157369Z" fill="#5500F7"/>
</g>
<defs>
<clipPath id="clip0_927_1240">
<rect width="146.755" height="45" fill="white"/>
</clipPath>
</defs>
</svg>
