<svg width="589" height="576" viewBox="0 0 589 576" fill="none" xmlns="http://www.w3.org/2000/svg">
<g id="proxy_servers">
<g id="Group 113728">
<g id="Fast Residential Proxies">
<g id="Frame 113524" clip-path="url(#clip0_7841_5423)">
<g id="Group 113722">
<g id="Group 113585" opacity="0.75">
<ellipse id="Ellipse 2398" cx="294.573" cy="277.25" rx="331.573" ry="121.603" fill="url(#paint0_radial_7841_5423)"/>
<mask id="mask0_7841_5423" style="mask-type:alpha" maskUnits="userSpaceOnUse" x="5" y="158" width="578" height="247">
<rect id="Rectangle 8256" x="5.875" y="158.738" width="577.098" height="245.782" rx="5.15266" fill="#D9D9D9"/>
</mask>
<g mask="url(#mask0_7841_5423)">
<g id="Mask group">
<mask id="mask1_7841_5423" style="mask-type:alpha" maskUnits="userSpaceOnUse" x="-38" y="173" width="663" height="240">
<g id="Group">
<path id="Vector" d="M624.718 173.315H-37.8577V412.69H624.718V173.315Z" fill="url(#paint1_linear_7841_5423)"/>
</g>
</mask>
<g mask="url(#mask1_7841_5423)">
<g id="Group_2">
<g id="Vector_2" filter="url(#filter0_d_7841_5423)">
<path d="M293.422 579.729C449.742 579.729 576.464 453.191 576.464 297.099C576.464 141.007 449.742 14.47 293.422 14.47C137.102 14.47 10.3794 141.007 10.3794 297.099C10.3794 453.191 137.102 579.729 293.422 579.729Z" stroke="url(#paint2_linear_7841_5423)"/>
</g>
<g id="Vector_3" filter="url(#filter1_d_7841_5423)">
<path d="M293.421 520.459C416.96 520.459 517.108 420.458 517.108 297.099C517.108 173.741 416.96 73.7393 293.421 73.7393C169.883 73.7393 69.7349 173.741 69.7349 297.099C69.7349 420.458 169.883 520.459 293.421 520.459Z" stroke="url(#paint3_linear_7841_5423)" stroke-width="2"/>
</g>
</g>
</g>
</g>
</g>
</g>
<g id="Group 113703">
<path id="Vector_4" d="M287.815 368.387C283.32 362.822 279.041 357.805 269.733 355.759C268.202 354.078 268.42 357.53 268.163 354.01C268.548 353.581 268.568 349.638 266.453 351.912C263.911 348.334 260.251 344.001 254.57 350.73C254.73 349.076 260.918 346.36 257.809 344.845C256.126 343.734 254.68 343.006 254.692 341.347C256.734 332.876 253.1 320.761 240.39 318.875C238.522 319.035 239.007 313.25 236.044 315.509C239.345 311.593 232.213 307.999 232.007 305.906C234.349 303.232 228.957 302.554 228.448 299.47C234.43 300.2 228.712 297.027 221.689 298.696C220.495 295.678 216.556 296.731 214.786 294.326C216.093 293.98 214.823 291.46 212.25 290.806C213.127 289.734 211.502 285.727 210.979 291.019C210.117 290.447 208.224 292.369 207.988 290.573C207.69 290.812 208.061 290.912 206.887 292.138C205.494 289.28 211.148 289.779 208.853 286.523C207.288 285.976 204.38 290.55 201.663 288.288C201.063 288.327 201.384 288.533 200.437 289.657C200.127 289.091 199.739 288.867 199.316 288.909C198.014 288.972 196.42 291.528 196.131 293.879C194.761 293.746 192.831 295.011 192.179 298.16C192.549 296.647 190.613 291.151 187.535 290.688C177.96 296.636 180.225 278.852 185.442 272.105C185.234 271.872 187.037 269.28 184.276 268.718C185.867 264.713 180.12 267.029 176.401 264.264C179.916 260.079 183.626 254.235 188.283 247.771C184.02 244.683 179.038 250.421 174.877 254.554C174.512 252.922 172.215 253.968 169.254 253.942C166.349 245.466 176.605 224.177 188.353 221.594C188.191 221.537 188.038 221.496 187.898 221.437C188.805 221.126 188.454 221.693 189.828 220.172C189.751 220.457 189.73 220.323 189.677 220.92C191.53 219.329 192.687 222.884 194.735 221.522C194.771 222.05 193.779 225.143 196.065 223.554C196.153 223.755 196.095 224.848 196.803 224.058L196.715 224.069C197.017 223.738 196.866 224.167 197.123 223.128C197.184 224.571 198.496 227.068 198.32 223.008C198.066 222.869 199.779 223.023 199.311 222.038C200.652 220.771 201.33 222.828 203.474 220.974C203.391 221.15 203.314 221.648 202.421 222.225C203.503 222.906 204.832 221.551 206.583 223.681C203.801 229.135 213.03 219.337 207.978 231.859C207.365 232.157 205.384 234.807 206.792 235.092C206.721 235.222 205.209 236.202 206.437 236.019C203.121 246.67 212.773 237.284 213.637 228.944L213.621 228.926L213.95 229.05C217.044 218.56 230.319 219.475 236.07 215.797C236.982 216.183 238.463 215.529 238.354 213.817C238.668 214.313 242.051 212.024 239.944 211.673C241.589 210.253 242.702 207.448 246.265 206.024C244.597 207.054 243.2 207.525 242.825 209.853C242.46 210.074 241.796 209.769 241.519 211.2C241.496 211.286 241.483 211.389 241.473 211.507C242.787 210.127 245.696 210.799 247.325 206.521C247.779 206.891 246.678 208.272 247.364 208.044C247.335 208.072 247.33 208.092 247.321 208.125C248.718 207.178 251.513 206.606 253.301 204.068C253.227 205.617 261.639 204.406 255.606 203.918C256.953 203.477 258.511 204.683 260.374 203.378C260.791 204.207 259.839 204.286 261.896 204.084C261.503 204.355 261.013 204.437 260.576 204.611C260.624 204.695 263.343 205.203 264.246 202.917C263.561 202.932 264.054 203.689 262.567 203.646C263.481 200.447 267.065 200.456 272.014 198.785C272.179 199.099 270.699 198.951 270.876 199.908C271.612 199.622 274.929 199.382 277.377 198.831C278.066 198.674 278.681 198.498 279.164 198.287C278.097 199.591 280.341 198.425 283.031 198.109C282.761 198.377 283.031 198.322 281.152 198.656C281.777 199.321 281.288 199.211 283.096 199.141C281.812 200.012 279.523 198.88 276.894 200.157C273.936 201.921 277.369 204.374 281.406 200.705C281.483 200.761 281.359 200.693 281.677 201.097C280.25 201.624 285.757 202.141 289.389 200.7C289.338 201.205 294.143 200.738 292.088 199.158C295.021 197.409 291.532 197.099 288.268 200.03C288.122 199.224 288.279 198.982 286.592 199.475C286.439 199.306 286.541 199.191 285.879 198.929C284.952 198.787 285.331 197.901 284.015 197.087C284.349 196.317 284.735 195.675 285.326 195.138C285.881 194.605 286.595 194.192 287.648 193.864C287.414 193.73 285.83 193.575 284.915 193.543C285.341 193.225 284.871 193.098 283.806 192.621C295.763 194.455 288.318 187.099 273.602 192.515C280.714 189.691 289.29 187.736 297.436 190.543C298.399 190.872 299.363 191.273 300.329 191.751C303.389 190.32 305.854 190.661 309.679 190.38C311.386 190.553 313.41 187.985 312.721 186.288C312.377 185.372 311.243 184.727 308.9 184.888C310.188 184.267 313.916 186.36 312.412 183.095C312.234 185.085 310.003 181.036 309.398 182.287C308.828 182.134 310.731 180.571 309.374 180.704C309.493 180.182 309.654 180.403 309.141 179.641C309.532 179.639 311.723 178.458 310.698 178.361C311.728 177.458 310.722 177.132 311.706 175.393C313.354 169.245 310.469 174.153 304.123 174.305C303.99 174.27 304.47 173.539 303.666 173.544C302.72 171.537 305.691 170.998 307.009 169.391L307.018 169.358C305.65 169.453 306.61 169.341 304.75 168.36C305.095 168.452 306.54 167.802 305.314 167.793C305.998 166.564 298.762 162.857 298.072 166.172C296.963 166.23 295.774 166.48 294.413 168.352C290.37 167.645 290.306 172.684 285.102 174.109C277.084 174.247 277.104 177.035 270.842 180.555C271.935 177.667 268.711 182.917 269.14 177.976C269.153 177.66 269.665 177.208 270.389 176.706C270.67 176.533 270.949 176.338 271.255 176.15C273.954 174.48 277.751 172.501 273.519 172.311C273.475 172.264 273.438 172.219 273.377 172.181C273.462 172.076 273.535 171.989 273.608 171.902C273.372 171.853 273.408 171.799 272.518 171.702C272.84 170.844 272.94 170.871 271.212 169.712C272.785 168.507 270.967 166.096 268.038 166.504C268.696 166.197 270.421 165.481 272.018 164.055C271.363 163.823 271.263 163.797 270.667 163.821C273.032 161.65 279.284 161.131 284.399 159.959C285.601 160.481 289.502 160.631 286.227 158.198C286.888 158.248 287.101 159.469 288.405 159.663C288.824 159.902 289.038 159.633 290.371 159.138C290.838 160.336 294.719 159.764 296.191 158.802C297.121 158.803 297.345 158.628 298.903 158.62C297.057 159.176 294.409 159.915 291.774 160.764C292.384 160.821 292.989 160.841 293.472 161.077C293.464 161.11 293.014 161.252 292.437 161.68C292.957 162.338 295.395 161.507 297.27 161.243C295.366 163.019 302.691 163.192 298.987 161.646C299.102 161.535 299.314 161.698 300.014 161.282C299.927 161.024 300.057 160.008 299.235 159.738C299.564 159.095 299.532 159.477 300.003 158.673C299.541 158.677 299.298 159.45 298.383 159.524C298.809 159.262 298.947 159.356 299.466 158.742C299.417 158.715 299.463 158.755 299.225 158.585C299.535 158.434 299.541 157.988 300.394 158.274C300.329 158.384 300.175 158.747 300.789 158.734C299.635 158.908 301.29 161.134 301.174 158.837C301.488 158.936 301.428 159.424 302.262 158.696C302.9 159.442 306.234 159.405 307.707 157.563C308.116 157.708 310.831 157.221 309.989 156.52C309.963 156.009 310.522 156.201 311.355 156.006C311.599 156.554 312.576 157.121 313.534 157.072C313.57 157.068 313.595 157.053 313.629 157.062C314.104 157.012 314.555 156.813 314.918 156.385C315.183 156.669 314.956 156.559 315.497 156.952C315.306 157.057 314.316 157.438 315.251 157.475C315.224 157.575 315.246 157.545 315.52 157.796C315.491 157.824 315.483 157.8 315.25 158.008C315.393 158.082 315.237 158.004 315.784 158.08C315.255 158.173 312.455 158.58 315.176 158.734C314.466 158.92 314.615 159.819 315.809 159.102C315.711 159.253 315.666 159.156 315.356 159.733C313.707 159.022 314.791 161.918 316.047 159.485C316.056 159.665 315.845 159.843 316.442 159.946C315.486 162.637 312.933 159.844 311.071 162.526C308.917 162.773 306.585 160.479 303.918 162.378C304.279 163.76 303.927 162.607 305.816 163.348C306.906 162.937 307.299 164.334 308.647 163.304C308.721 163.558 307.823 164.312 308.981 163.912C308.886 164.348 308.775 164.02 309.03 164.869C307.959 165.818 308.632 167.44 311.573 168.711C315.011 171.542 312.871 167.468 313.56 166.566C314.919 167.165 315.382 172.302 317.438 167.676C317.374 168.923 318.958 168.602 318.388 166.596C319.547 168.206 318.445 164.502 317.858 164.096C319.955 163.529 320.158 163.726 320.807 166.42C322.692 165.64 330.38 166.415 323.292 161.675C323.012 161.316 323.318 161.632 322.26 160.866C322.957 160.463 323.64 160.774 325.036 160.573C325.213 160.443 323.923 160.275 324.204 159.811C325.134 160.791 325.735 158.815 324.279 159.135C324.5 159.052 324.798 158.919 325.021 158.695C325.038 158.5 324.061 158.544 323.4 157.564C324.131 157.512 322.56 155.983 321.507 157.022C321.624 156.641 322.855 155.863 321.08 155.011C324.902 153.55 314.587 152.98 320.43 154.709C319.797 154.738 317.081 154.671 317.051 154.464C322.256 152.77 313.558 151.76 311.699 154.244C311.306 152.584 314.62 152.939 316.446 152.406C314.666 151.787 311.643 151.46 307.454 153.05C307.613 153.647 307.992 152.711 308.996 153.84C306.057 152.271 305.364 154.99 310.501 155.564C310.833 156.206 310.21 156.04 308.086 155.115C307.989 155.267 306.807 155.092 306.993 156.2C306.061 156.341 305.471 155.757 303.95 156.294C303.823 156.025 301.994 156.252 302.357 156.833C302.093 156.89 301.307 156.963 300.579 157.002C300.823 156.407 300.737 156.278 301.938 155.797C301.953 155.929 302.196 155.845 302.238 156.218C302.747 155.907 303.937 155.601 303.786 154.574C303.081 154.74 302.393 154.577 300.442 155.446C300.669 155.209 302.161 153.961 302.187 154.792C302.759 154.59 303.086 154.961 302.899 153.804C302.515 153.644 302.694 153.905 301.704 153.732C301.926 153.486 302.247 153.771 302.916 153.396C303.5 153.943 304.911 152.681 305.216 151.676C307.443 151.286 309.313 151.915 312.839 151.29C311.851 150.898 310.902 149.72 308.883 150.444C306.671 150.511 303.792 151.451 300.763 152.074C300.793 152.096 300.846 152.11 300.879 152.119C300.302 152.021 297.781 152.737 299.924 153.219C299.953 153.242 299.64 153.271 299.857 153.521C298.946 153.582 298.915 153.432 297.494 153.676C297.548 153.818 297.697 153.922 297.805 153.972C296.241 154.533 295.04 153.821 293.016 154.777C293.019 154.686 293.033 154.767 292.975 154.532C292.815 154.652 292.638 154.782 292.448 154.909C292.624 154.729 292.741 154.611 293.969 153.818C293.681 154.046 293.349 154.277 293.041 154.5C293.209 154.403 294.14 154.134 295.317 153.874C295.211 153.796 295.143 153.863 294.667 153.572C295.402 153.769 301.604 152.754 297.782 152.731C297.641 151.855 296.797 151.877 295.452 152.71C295.61 152.596 295.787 152.466 295.96 152.349C295.272 152.506 292.566 152.086 294.572 153C293.025 153.047 289.824 154.312 288.387 152.017C288.334 152.003 287.798 152.15 287.597 151.841C287.606 151.751 289.114 152.034 288.525 151.159C288.574 151.187 288.657 151.195 288.722 151.034C288.091 151.242 285.685 149.78 284.561 151.297C283.938 150.974 282.7 152.119 281.866 151.896C282.196 151.856 283.344 151.042 282.642 150.854C285.265 150.392 281.333 150.943 278.91 149.783C279.363 148.939 281.051 150.641 281.766 148.794C280.04 148.637 280.349 146.611 278.02 146.718C278.232 146.669 278.457 146.622 279.245 146.493C278.54 145.863 276.264 146.802 276.125 146.395C276.864 145.968 276.269 146.732 278.582 145.442C277.887 145.49 277.629 145.868 275.507 145.654C275.624 145.615 275.734 145.68 276.642 145.497C275.715 145.142 274.288 145.221 272.018 145.025C272.052 145.034 272.18 145.033 272.265 144.899C271.872 144.83 272.236 144.877 271.302 144.89C271.536 144.598 270.519 144.95 270.402 144.777C269.978 144.556 269.376 145.268 268.096 144.798C268.239 144.318 268.49 144.385 269.476 144.046C268.98 143.962 267.545 142.506 267.562 142.602L267.434 142.604C267.495 142.428 267.549 142.705 267.895 142.209C267.239 141.927 267.934 142.326 266.606 141.878C267.12 141.944 268.482 141.343 266.958 141.489C267.11 141.402 268.157 141.15 266.907 141.205C268.826 140.825 266.308 141.187 265.622 140.805C263.82 140.719 261.614 141.108 257.703 140.969C256.713 141.059 254.26 141.495 251.933 142.441C251.947 142.445 252.022 142.429 252.172 142.398C251.553 142.588 250.439 143.063 249.469 142.761C250.753 142.501 249.656 142.725 251.012 142.407C250.729 142.402 250.543 142.225 249.06 142.616C249.078 142.549 249.047 142.612 249.256 142.469C247.713 142.716 245.965 143.036 243.589 143.954C243.957 143.904 243.614 143.94 244.537 143.889C244.431 143.967 244.207 143.928 243.754 144.212C244.051 144.164 243.933 144.153 245.354 143.966C245.387 143.975 245.412 143.96 245.449 143.956C245.412 143.96 245.374 143.971 245.335 143.982C243.653 144.405 242.585 144.708 240.074 145.093C240.122 145.049 240.322 145.018 240.811 144.808C240.527 144.86 240.168 144.955 239.875 145.04L239.884 145.007C237.724 145.621 236.707 145.867 232.563 147.526C232.725 147.477 232.914 147.407 233.073 147.371C232.855 147.441 232.654 147.529 232.439 147.592C231.012 148.119 229.524 148.743 227.325 149.687C227.264 149.706 227.203 149.747 227.103 149.777C226.982 149.829 226.831 149.917 226.65 150.01C227.063 149.872 226.951 149.892 228.053 149.491C228.137 149.443 228.237 149.413 228.329 149.388C228.186 149.442 228.206 149.447 228.053 149.491C227.955 149.536 227.747 149.623 227.349 149.786C227.532 149.764 227.352 149.772 227.913 149.667C227.162 149.927 224.626 150.803 222.437 151.899L222.713 151.796C222.713 151.796 222.726 151.799 222.607 151.874C223.137 151.696 223.637 151.369 225.932 150.727L225.925 150.832C225.803 150.891 225.644 150.955 224.887 151.235C224.923 151.152 224.874 151.231 225.098 151.057C224.394 151.352 223.828 151.399 222.24 152.344C222.331 152.318 222.549 152.249 223.122 151.991C223.119 152.004 223.136 151.994 223.011 152.089L223.005 152.109L223.024 152.092C223.116 152.067 223.526 151.943 224.037 151.703C224.028 151.736 224.057 151.709 223.997 151.799C224.556 151.7 224.913 151.562 226.349 150.945L226.302 150.989C226.502 150.986 227.313 150.742 228.197 150.304C227.572 150.435 227.542 150.285 225.869 150.987C227.153 150.33 228.973 149.873 230.903 149.19L230.916 149.194C230.991 149.178 231.19 149.231 231.885 148.97C231.857 149.02 231.894 148.987 231.786 149.072C232.051 149.093 232.894 148.729 234.113 148.445C234.042 148.497 233.957 148.496 233.707 148.635C234.061 148.588 233.973 148.436 235.647 148.125C234.382 148.503 232.276 148.968 229.946 149.793C230.383 150.229 231.971 149.284 232.968 149.566C233.18 149.516 233.444 149.459 233.64 149.391C233.335 149.522 233.584 149.411 232.913 149.771C233.698 149.783 234.817 148.996 237.389 148.542C236.636 149.072 236.526 148.687 234.39 149.613C235.066 149.475 234.598 149.577 236.334 149.168C235.978 149.357 236.218 149.123 235.233 149.619C235.336 149.632 235.266 149.628 235.536 149.629C235.089 149.971 235.21 149.705 233.907 150.3C233.813 150.467 237.324 149.341 235.143 151.093L235.859 150.965C234.821 151.369 234.112 151.946 232.82 152.899L232.753 152.938C232.726 153.037 228.302 154.55 228.852 154.698C228.362 154.907 228.343 154.795 226.405 155.824C226.524 155.913 226.406 155.953 226.766 155.829C225.525 156.405 224.399 156.87 222.469 158.058C223.031 158.03 222.585 158.103 223.799 157.626C223.753 157.72 223.717 157.589 223.465 157.998C224.411 157.676 225.347 157.231 227.61 156.126C226.834 156.557 224.688 157.701 223.043 158.566L223.32 158.463C220.94 159.686 218.087 161.4 214.932 163.501C214.711 163.584 214.588 163.515 213.739 164.218L214.156 164.33C205.125 170.183 186.539 179.362 176.601 192.072C175.505 193.086 176.352 191.992 172.803 196.572C172.657 196.853 172.194 196.857 171.403 198.271C171.389 198.324 171.407 198.258 171.315 198.602C172.85 202.678 164.109 207.763 164.001 213.308C163.907 213.262 163.797 213.197 163.701 213.157C164.381 213.481 163.199 215.614 161.584 215.253C160.973 215.124 159.243 219.248 160.079 220.473C161.253 222.158 157.273 225.274 156.789 228.035C156.789 228.035 156.831 228.01 156.949 227.914L156.958 228.066L157.067 228.003C158.016 227.987 154.639 234.652 156.834 232.478C158.351 227.346 162.369 220.405 164.491 213.44L164.863 213.589C165.714 210.998 166.686 209.703 169.274 206.775C169.561 206.817 168.65 207.645 169.865 207.509C169.84 207.552 168.703 208.852 169.71 208.355C169.331 208.843 167.275 211.771 166.102 213.815C165.673 214.09 165.636 214.151 164.701 215.441C164.934 215.447 164.907 215.546 165.357 215.326C162.693 225.399 159.74 234.698 155.962 246.652C156.1 246.348 156.249 246.054 156.381 245.749C156.222 249.47 160.005 262.754 164.744 260.651C165.53 259.917 167.069 260.294 167.509 262.123C167.994 265.718 168.499 269.425 171.557 271.956C172.746 271.969 173.036 275.1 175.196 273.506C174.516 274.773 174.946 278.971 176.562 281.392C175.74 282.869 174.676 285.439 176.093 287.941C176.409 287.423 176.427 286.746 176.998 286.416C178.222 288.05 177.386 291.966 179.719 294.736C179.49 292.779 183.219 294.658 181.41 296.084C180.601 294.489 180.356 299.352 181.879 296.586C181.946 296.547 181.858 296.793 182.376 296.719C182.217 298.317 185.973 300.147 184.581 294.952C185.583 294.738 185.49 295.352 186.802 293.531C188.367 291.557 190.775 301.306 188.764 305.077C188.443 306.22 189.123 310.336 187.376 309.726C186.544 310.234 187.384 311.815 188.103 312.42C187.538 314.129 184.873 314.217 184.198 317.267C183.368 317.024 183.029 317.629 183.61 318.984C181.344 318.988 180.211 320.275 179.803 324.128C178.714 324.802 177.491 328.756 179.585 331.462C173.618 340.401 185.369 360.123 191.092 371.889C193.15 376.133 195.394 378.36 197.514 380.306C201.428 383.904 204.944 386.55 206.138 399.24C206.267 401.171 206.591 403.09 207.029 405.032C209.004 413.72 213.493 422.358 214.724 430.562C216.059 432.631 217.166 433.375 218.628 436.054L218.595 436.045C218.729 437.082 219.508 438.363 220.836 439.685C220.792 439.637 220.674 439.549 220.523 439.53C221.129 439.997 221.162 441.81 223.038 442.547C222.777 441.533 222.775 442.334 221.463 439.625C222.373 439.834 222.724 441.838 223.915 442.796C223.9 442.934 224.536 443.871 224.941 444.825C224.486 444.455 225.003 444.806 223.524 443.515C224.201 444.591 225.112 446.334 226.542 448.179C226.542 448.179 226.434 447.973 226.399 447.786C226.529 447.963 226.974 448.579 227.445 448.067L227.386 447.759C227.69 448.161 228.113 448.437 228.755 449.461C228.702 449.447 228.697 449.36 227.94 449.03C227.981 449.09 227.907 449.021 228.26 449.506C228.247 449.503 228.21 449.479 228.142 449.418C228.825 451.532 232.24 453.52 234.093 455.536C234.094 455.479 234.102 455.503 234.11 455.341C234.11 455.341 234.145 455.422 234.505 455.802C234.5 455.765 234.528 455.794 234.392 455.559C234.529 455.631 234.435 455.585 234.758 455.785L234.778 455.79L234.781 455.777C234.849 455.923 235.063 455.866 235.412 456.287C235.279 456.251 235.359 456.216 234.893 456.077C234.949 456.078 235.064 456.442 235.366 456.509C235.45 456.46 235.974 456.97 236.014 456.768C236.034 456.773 236.076 456.933 236.304 457.009L236.308 456.995C236.407 457.022 236.318 457.09 236.911 457.476C236.901 457.46 236.91 457.427 236.924 457.374C237.011 457.447 236.959 457.454 237.282 457.626L237.267 457.551C237.232 457.47 237.479 457.82 237.964 458.078L238.189 458.245L238.168 458.19L238.436 458.382C238.436 458.382 238.416 458.377 238.429 458.331C238.51 458.423 238.416 458.377 238.753 458.524C238.844 458.584 238.797 458.571 239.064 458.714C239.064 458.714 239.025 458.647 238.981 458.55C239.349 458.79 239.144 458.735 239.887 459.169C239.881 459.11 239.909 459.139 239.819 459.023C240.351 459.449 241.14 459.767 241.975 460.175L241.697 459.888C241.845 459.942 242.206 460.451 242.588 460.482C242.495 460.301 242.58 460.515 242.052 460.019C242.099 460.031 242.276 460.242 242.283 459.953C242.34 460.004 242.499 460.153 242.541 459.866C237.699 456.892 232.455 450.254 232.666 444.935C232.337 444.627 231.853 444.497 231.591 444.072C234.405 444.485 232.043 444.768 229.771 440.793C230.21 441.089 231.252 441.73 232.015 441.878C233.038 442.116 233.558 441.524 231.424 438.147C238.723 441.836 238.531 435.209 233.939 430.698C236.108 431.797 243.035 437.005 243.031 427.957C243.556 427.402 243.61 425.741 245.427 425.745C243.573 432.981 248.964 418.136 251.352 414.764C251.792 414.739 253.9 412.911 256.241 414.299C256.391 412.947 256.219 413.455 259.268 412.596C262.701 413.644 265.198 414.398 267.11 409.592C272.219 406.373 268.623 394.751 276.384 390.83C291.401 383.23 297.684 372.394 287.757 368.392L287.815 368.387ZM307.631 184.931C308.08 184.661 307.851 185.118 308.389 185.099C307.852 185.246 306.664 185.545 306.143 185.157C306.658 185.118 307.131 184.996 307.631 184.931ZM293.85 157.258C294.098 157.339 294.478 157.377 294.793 157.526C295.174 157.642 295.456 157.916 295.389 158.509C294.903 158.521 294.143 158.232 294.912 157.614C294.868 157.567 294.846 157.54 294.793 157.526C294.628 157.481 294.314 157.646 293.598 157.191L293.85 157.258ZM198.374 221.269C198.717 220.785 198.933 221.17 199.077 221.905C198.827 221.781 198.88 221.979 198.338 221.273L198.374 221.269ZM178.312 282.23C178.117 282.611 177.849 281.361 176.66 281.397C176.788 280.998 177.502 275.871 178.335 282.222L178.318 282.232L178.312 282.23ZM206.681 292.907C206.334 294.333 208.633 296.54 205.725 297.933C204.3 297.395 204.901 294.752 206.681 292.907ZM307.037 169.42C307.099 169.451 306.984 169.618 307.037 169.42Z" fill="url(#paint4_radial_7841_5423)"/>
<g id="Group_3">
<path id="Vector_5" d="M405.183 178.419C405.234 178.446 405.246 178.449 405.234 178.446L405.173 178.41C405.173 178.41 405.179 178.412 405.185 178.413L405.183 178.419Z" fill="url(#paint5_linear_7841_5423)"/>
<path id="Vector_6" d="M430.772 207.668C424.102 198.24 416.243 189.118 407.129 180.335C406.798 180.033 406.425 179.699 405.927 179.281C406.229 179.611 406.047 179.363 406.761 180.037C406.8 180.105 406.887 180.178 407.026 180.321L406.906 180.239C407.143 180.495 406.95 180.287 407.511 180.842L407.391 180.76C407.492 180.858 407.365 180.909 408.074 181.603C407.616 181.431 407.347 180.926 406.284 180.016C406.559 180.445 406.542 180.376 407.292 181.181C407.255 181.135 407.178 181.079 407.087 181.019C407.454 181.636 407.141 181.162 408.052 182.294L407.933 182.262C408.203 182.71 408.982 183.331 409.922 184.513C409.902 184.508 409.769 184.472 409.47 184.264C408.995 183.704 408.727 183.831 407.879 182.73C407.888 182.747 407.936 182.781 408.022 182.804C407.686 182.337 406.489 181.264 405.195 180.633C405.92 181.452 406.53 181.722 408.027 183.316C408.017 183.3 407.977 183.289 407.944 183.28C409.295 184.572 409.302 184.283 410.651 185.845C409.714 185.075 410.594 185.794 409.176 184.753C409.695 185.943 411.38 187.524 412.473 188.903C412.424 189.139 409.374 186.397 410.674 187.96L410.641 187.951C410.812 188.373 411.525 188.706 413.005 190.047C410.627 189.197 408.654 186.169 405.718 183.848C409.403 186.369 411.235 186.235 405.313 181.574C405.307 181.594 405.34 181.602 405.375 181.739C404.08 180.981 403.136 179.89 400.844 178.85C400.903 178.951 400.799 178.887 401.203 179.315C400.73 179.011 400.135 178.369 399.032 177.611C399.087 177.804 399.036 177.648 399.274 178.031C398.975 177.823 398.479 178.322 398.224 177.338L398.344 177.37C397.838 176.66 397.34 176.583 396.006 175.707C396.041 175.787 396.073 175.853 396.114 175.913C395.922 175.755 395.603 175.542 395.116 175.291C395.104 175.337 395.407 175.476 395.948 176.373C395.597 176.066 395.87 176.189 394.956 175.411C395.477 176.171 395.79 176.643 395.897 176.828C395.394 176.296 395.978 176.793 394.389 175.117C394.4 175.206 394.375 175.114 394.473 175.41C394.383 175.35 394.33 175.336 394.014 175.109C394.313 175.53 394.159 175.312 394.827 176.08C394.664 175.944 394.84 176.083 394.387 175.785C394.387 175.785 394.365 175.814 394.388 175.913C394.3 175.712 393.999 175.432 393.442 175.574C393.486 175.728 393.821 175.832 394.58 176.468C394.475 176.383 394.286 176.24 394.105 176.519C393.962 176.445 394.048 176.468 393.705 176.212C393.894 176.512 393.843 176.306 394.448 177.306C393.579 176.072 392.471 175.939 394.394 178.037C393.834 177.532 392.769 176.764 394.344 178.542C394.287 178.491 394.169 178.403 393.814 178.109L394.018 178.54C393.89 178.541 393.741 177.72 393.128 177.727C392.717 177.723 391.295 177.917 391.821 178.683C392.242 179.314 393.683 181.859 394.38 179.39C395.165 180.118 395.472 181.699 396.459 183.37C396.378 183.277 396.435 183.328 396.18 183.139C396.246 183.476 397.131 184.253 397.346 185.255C397.293 185.24 397.286 185.132 397.076 184.991L397.316 185.446L396.9 185.384C397.393 185.608 398.014 186.896 397.527 187.178C397.611 187.47 397.557 187.328 397.798 187.968C397.38 187.856 397.78 188.034 397.005 187.322C396.962 187.616 397.082 187.378 397.256 188.107C397.142 188.055 397.114 187.976 396.603 187.498C396.723 188.191 397.015 187.893 397.679 189.285C397.478 189.16 397.635 189.238 396.9 188.721C397.039 189.078 396.89 188.839 397.339 189.549C397.262 189.621 397.197 189.284 396.855 189.419C396.868 189.423 396.818 189.558 396.9 189.914C396.815 189.834 396.848 189.843 396.598 189.635C396.585 189.737 396.663 189.581 396.428 190.192C396.308 190.054 396.423 190.156 396.035 189.803C396.253 190.181 396.49 190.621 396.764 191.085C397.724 192.826 398.938 195.026 400.341 196.922C400.355 196.869 400.337 196.935 400.428 196.675C400.495 196.743 400.491 196.706 400.87 197.092C400.235 197.05 403.917 203.106 404.876 198.414C404.811 198.127 404.729 197.771 404.622 197.508C406.588 199.895 407.927 201.234 410.464 205.308L410.292 205.205C410.263 205.446 410.248 205.768 410.294 205.994C408.847 204.477 410.599 208.859 412.023 209.532C412.69 208.581 411.61 208.739 411.541 207.01C412.334 207.577 413.873 209.225 412.708 206.179C413.356 206.175 412.809 206.149 413.874 206.491C413.868 206.383 413.954 206.406 413.734 205.957C413.778 206.004 413.893 206.106 414.08 206.334C414.02 206.161 413.791 204.949 412.958 203.604C412.958 203.817 412.995 204.076 413.03 204.263C412.208 202.878 412.252 202.769 410.938 200.329C411.168 200.213 410.948 200.346 411.277 199.596C411.4 199.615 411.362 199.491 411.558 199.686C411.291 198.166 409.857 197.05 408.427 195.63C407.8 195.029 407.195 194.37 406.686 193.594L406.791 193.601C405.614 191.34 404.434 188.325 403.457 185.372C404.163 185.81 404.333 185.572 405.683 187.134C405.413 186.948 405.683 187.134 404.981 186.548C405.626 187.743 405.989 187.926 406.67 190.182C406.604 190.164 406.628 190.206 406.518 190.141C407.563 192.097 409.361 194.581 411.755 196.991C411.794 197.058 411.826 197.123 411.865 197.162C412.112 197.512 412.46 197.62 412.879 197.647C413.957 197.701 415.477 197.093 416.868 198.552C416.675 198.877 416.63 199.255 416.489 199.438C416.342 199.668 416.05 199.618 415.174 198.887C415.175 199.015 415.156 199.166 415.137 199.289C414.98 199.211 414.816 199.295 414.635 199.758C414.704 200.032 414.898 200.368 415.033 200.603C414.932 200.505 414.806 200.393 414.689 200.298C414.942 201.288 414.419 201.439 415.779 202.961C415.773 202.903 415.596 202.373 415.893 202.19C415.806 201.932 415.633 201.623 415.504 201.389C416.113 201.716 415.607 201.403 416.733 202.343C416.733 202.343 416.712 202.288 416.678 202.151C416.936 203.044 417.803 203.198 418.296 205.177C413.599 201.184 418.658 206.95 418.57 209.745C418.878 212.384 418.992 208.701 414.879 211.383C414.44 210.769 414.591 211.051 413.348 209.489C413.254 209.521 413.488 209.761 413.094 209.961C413.211 210.134 412.227 210.069 412.204 210.738C409.849 209.325 408.833 204.928 406.452 201.144C406.281 200.778 406.699 202.822 405.907 202.092C405.464 202.953 406.674 206.756 408.739 208.46C408.635 209.377 409.725 209.363 409.471 210.999C409.147 210.806 408.051 209.568 408.205 211.193C407.499 211.018 406.266 210.24 406.41 212.089L406.337 211.963C406.29 212.27 407.031 215.629 404.394 216.087C404.789 216.761 403.274 217.59 403.394 219.767C402.272 220.162 401.826 219.098 400.413 218.038C399.501 217.971 403.51 222.063 400.017 221.184C399.567 220.666 399.925 220.655 397.315 220.403C396.055 221.372 398.632 222.83 400.739 224.481C400.739 224.481 400.796 224.482 400.998 224.387C401.005 224.495 407.64 235.668 402.348 235.357C399.758 235.43 395.365 231.683 392.288 233.308C392.201 235.834 391.614 244.091 392.402 249.209C392.436 250.83 390.54 252.978 395.569 252.202C399.615 257.298 395.516 256.058 405.177 255.991C405.888 255.592 405.234 254.11 407.499 254.057C406.642 252.67 408.719 251.835 408.77 250.506C406.428 248.38 408.501 244.434 412.46 242.406C410.949 238.45 412.467 237.714 417.497 239.615C418.774 232.438 421.654 242.625 422.154 241.687C422.822 242.583 423.317 243.944 424.56 244.845C424.721 245.911 425.915 246.785 427.393 247.998C428.395 250.197 431.608 252.251 431.739 255.631C432.13 258.093 429.364 256.834 428.128 256.914C428.041 256.763 428.119 256.898 427.871 256.469C427.248 258.319 433.64 266.927 431.691 257.954C431.692 258.004 431.935 258.503 432.347 258.769C432.505 258.577 432.308 258.119 432.611 257.569C432.648 257.565 432.578 257.56 432.787 257.708C432.973 257.332 432.496 256.913 432.772 255.83C434.348 254.825 430.97 253.493 431.849 250.69C432.131 250.694 431.874 251.442 432.934 251.62C437.481 255.323 423.213 240.515 422.286 234.699C423.546 233.787 423.157 234.791 424.77 237.169L424.833 236.724C424.765 236.976 426.129 238.406 425.598 237.128C428.562 243.134 433.524 244.861 435.617 253.24C435.568 253.213 435.68 253.271 435.384 253.05C435.608 254.417 437.203 255.803 438.3 258.44C438.29 258.423 438.277 258.341 438.34 258.159C438.419 258.074 438.783 258.441 439.218 258.7C439.57 258.922 439.975 259.08 440.287 258.894C440.681 259.412 440.062 259.657 441.568 260.182C441.516 260.061 441.593 260.224 441.167 259.215C441.36 259.423 441.279 259.458 441.994 260.183C441.576 257.876 439.018 255.813 438.027 251.855C440.405 254.85 437.752 249.885 440.864 251.202C440.903 252.25 441.803 251.489 441.969 253.465C441.663 253.149 441.719 256.466 442.99 257.183C443.041 256.593 442.857 256.487 442.82 255.618C442.912 256.068 443.451 256.575 443.304 257.998C443.284 257.993 443.311 257.894 443.217 257.847C443.221 257.884 443.147 257.843 443.16 258.244C443.16 258.244 443.04 258.162 442.741 258.004C442.798 258.985 442.52 258.037 443.305 259.689C443.323 259.623 443.359 259.49 443.272 259.019C443.522 259.356 443.3 259.524 443.936 260.355C443.936 260.355 443.925 260.316 443.979 260.118C444.255 260.227 444.197 260.574 444.76 260.725C444.694 260.707 444.624 260.703 444.525 260.676L444.613 261.09C444.613 261.09 444.374 260.87 444.117 260.474C444.22 260.701 443.708 260.862 444.549 261.804C444.579 261.827 444.491 261.704 444.641 261.673C444.807 261.717 444.474 262.43 445.284 263.01C445.215 263.403 445.047 263.947 445.214 265.419C445.418 264.87 445.28 265.437 445.504 263.729C445.537 263.738 445.539 263.809 445.911 263.746L445.911 264.065L445.824 263.992C445.849 264.084 445.315 264.353 445.807 265.166C446.523 265.039 445.983 264.035 446.427 267.385C446.703 267.281 446.456 265.873 446.591 264.574C446.694 264.85 446.587 264.587 446.97 265.357L447.144 265.028C447.165 266.141 449.063 269.738 448.567 264.912C449.383 264.861 449.776 268.005 451.059 267.404C451.108 267.432 451.079 267.46 451.235 267.487C451.266 266.977 451.236 266.131 451.279 265.39C451.468 265.746 452.122 266.83 452.018 265.496C452.575 269.614 455.877 279.155 453.399 283.263C452.975 285.109 452.008 279.34 450.947 282.819C450.9 282.785 450.94 282.796 450.819 282.714C450.622 282.711 450.946 282.982 450.139 283.98C447.283 282.661 438.761 267.93 440.298 282.522C440.149 286.679 432.683 274.765 426.962 270.25C425.185 270.15 427.123 263.846 426.092 259.373C424.757 259.214 422.893 258.246 420.211 258.585C419.608 259.297 419.494 256.461 418.925 258.24C418.826 258.931 417.488 257.536 417.38 259.289C415.006 254.08 406.773 262.092 403.715 259.647C401.009 262.138 398.485 253.246 397.217 259.383C396.795 261.698 394.205 262.701 391.203 264.893C388.15 267.434 391.966 274.102 384.185 277.833C380.295 278.36 376.824 282.592 373.643 288.528C372.576 289.435 364.541 298.303 367.369 299.331C370.578 308.421 358.885 318.935 360.213 328.501C359.97 330.602 362.631 329.469 362.521 331.626C362.685 335.15 365.928 337.091 365.214 341.451C364.626 346.059 368.306 350.425 370.973 355.208C372.333 356.254 371.028 360.939 375.537 359.506C383.279 355.417 384.382 364.34 393.854 359.202C394.41 359.99 396.661 358.186 398.058 358.51C406.913 358.114 396.877 368.724 407.986 366.83C407.894 367.253 407.366 370.072 408.737 368.956C407.722 374.201 401.706 378.66 400.21 384.508C396.059 400.794 391.408 410.547 377.255 424.251C367.515 433.677 356.798 450.27 340.666 457.5C340.885 457.559 340.666 457.5 341.326 457.372C341.067 457.409 341.173 457.729 340.46 458.191C340.823 458.238 340.82 458.252 340.928 458.245C341.042 458.219 341.291 458.165 342.133 458.014C342.121 458.061 342.147 458.018 341.995 458.133C342.392 458.19 342.419 458.141 342.673 458.067C342.924 458.006 343.394 457.919 344.721 457.898C344.792 458.215 344.557 458.245 345.487 458.032C345.514 458.146 345.355 457.997 345.382 458.373C345.66 458.341 345.435 458.388 346.629 458.118L346.695 458.349C352.737 457.397 368.695 451.029 373.964 447.477C373.961 447.49 374.002 447.416 373.885 447.456C380.139 444.651 384.819 442.291 391.925 435.915L391.916 435.948C409.291 427.552 420.919 410.416 433.271 394.027L433.271 394.077C435.064 391.788 440.73 382.648 440.568 382.64C447.264 373.79 464.54 334.095 460.522 288.772C457.973 260.019 448.537 232.744 430.746 207.632L430.772 207.668ZM444.987 260.779C445.021 260.787 445.074 260.802 445.124 260.801C445.082 260.825 445.067 260.8 444.987 260.779Z" fill="url(#paint6_radial_7841_5423)"/>
<path id="Vector_7" d="M406.176 179.386C406.503 179.701 406.816 180.019 407.143 180.334C407.468 180.634 407.764 180.905 408.067 181.178C407.623 180.69 407.309 180.485 407.272 180.411C406.496 179.621 406.33 179.499 406.176 179.386V179.386Z" fill="url(#paint7_linear_7841_5423)"/>
<path id="Vector_8" d="M405.192 178.426C405.143 178.399 405.057 178.348 404.922 178.241C405.058 178.369 404.917 178.26 405.331 178.648C404.959 178.343 404.792 178.092 403.674 177.309C403.977 177.582 404.504 178.079 405.782 179.089L405.789 179.062C405.987 179.25 406.077 179.31 406.173 179.378C405.839 179.061 405.528 178.737 405.187 178.418L405.192 178.426Z" fill="url(#paint8_linear_7841_5423)"/>
</g>
</g>
</g>
</g>
</g>
<g id="Group 114404">
<g id="Group 113674">
<g id="Rectangle 7206" filter="url(#filter2_dd_7841_5423)">
<rect x="235.361" y="226.371" width="132.68" height="123.835" rx="24.2213" fill="url(#paint9_linear_7841_5423)"/>
<rect x="233.421" y="224.431" width="136.561" height="127.716" rx="26.1617" stroke="url(#paint10_linear_7841_5423)" stroke-width="3.8809"/>
</g>
<g id="Layer_1" clip-path="url(#clip1_7841_5423)">
<path id="Vector_9" d="M348.125 249.446H279.016C277.646 249.446 276.55 250.672 276.55 252.186V276.227H284.77V274.122C284.77 272.607 285.996 271.382 287.51 271.382H339.616C341.131 271.382 342.356 272.607 342.356 274.122V298.797C342.356 300.312 341.131 301.538 339.616 301.538H314.868C314.508 302.922 313.859 304.234 312.878 305.33L308.869 309.758H348.096C349.466 309.758 350.562 308.532 350.562 307.018V252.186C350.562 250.672 349.452 249.446 348.096 249.446H348.125ZM288.145 264.401C286.285 264.401 284.785 262.902 284.785 261.041C284.785 259.181 286.285 257.681 288.145 257.681C290.005 257.681 291.505 259.181 291.505 261.041C291.505 262.902 290.005 264.401 288.145 264.401ZM297.115 264.401C295.255 264.401 293.755 262.902 293.755 261.041C293.755 259.181 295.255 257.681 297.115 257.681C298.976 257.681 300.476 259.181 300.476 261.041C300.476 262.902 298.976 264.401 297.115 264.401ZM306.086 264.401C304.225 264.401 302.725 262.902 302.725 261.041C302.725 259.181 304.225 257.681 306.086 257.681C307.946 257.681 309.446 259.181 309.446 261.041C309.446 262.902 307.946 264.401 306.086 264.401Z" fill="#98DEF4"/>
<path id="Path_51993" d="M308.523 296.764L295.442 282.991C295.139 282.674 294.793 282.429 294.389 282.256C294 282.083 293.567 281.996 293.135 281.996H263.253C262.82 281.996 262.402 282.097 262.012 282.27C261.623 282.443 261.277 282.688 260.974 283.006L247.85 296.75C247.245 297.399 246.898 298.249 246.898 299.129C246.898 300.009 247.216 300.874 247.793 301.538L257.686 312.484H268.012C269.757 312.412 271.444 311.763 272.771 310.623C274.112 309.484 275.021 307.941 275.367 306.225C275.54 305.46 275.54 304.667 275.367 303.903C275.194 303.138 274.833 302.432 274.343 301.826C273.838 301.22 273.218 300.744 272.497 300.413C271.776 300.095 271.012 299.937 270.218 299.966H266.31C266.108 299.966 265.921 299.937 265.748 299.85C265.575 299.764 265.416 299.648 265.286 299.504C265.156 299.36 265.07 299.172 265.027 298.985C264.983 298.797 264.983 298.596 265.027 298.408C265.113 297.975 265.344 297.586 265.676 297.312C266.007 297.024 266.426 296.865 266.873 296.851H279.463L274.92 322.19L270.363 317.171H261.94L275.843 332.516C276.131 332.847 276.492 333.121 276.896 333.294C277.3 333.482 277.732 333.568 278.179 333.568C278.626 333.568 279.059 333.467 279.463 333.294C279.867 333.107 280.227 332.847 280.516 332.516L308.552 301.538C309.128 300.874 309.446 300.023 309.446 299.144C309.446 298.264 309.1 297.413 308.508 296.764H308.523ZM279.16 324.728L282.102 308.561H286.4C288.693 308.474 290.899 307.609 292.644 306.124C294.389 304.638 295.586 302.605 296.048 300.355C296.279 299.36 296.279 298.307 296.048 297.312C295.817 296.317 295.356 295.38 294.692 294.586C294.043 293.793 293.207 293.159 292.269 292.74C291.332 292.322 290.308 292.12 289.284 292.149H267.695C265.95 292.221 264.262 292.87 262.935 294.009C261.594 295.149 260.686 296.692 260.34 298.408C260.166 299.172 260.166 299.966 260.34 300.73C260.513 301.494 260.873 302.201 261.363 302.807C261.868 303.412 262.488 303.888 263.209 304.22C263.916 304.537 264.695 304.696 265.488 304.667H269.396C269.598 304.667 269.786 304.696 269.959 304.783C270.132 304.869 270.291 304.984 270.42 305.129C270.55 305.273 270.637 305.46 270.68 305.648C270.723 305.835 270.723 306.037 270.68 306.225C270.593 306.657 270.363 307.032 270.031 307.321C269.699 307.609 269.281 307.768 268.848 307.782H261.868L254.124 299.187L264.551 288.241H291.779L302.235 299.23L279.16 324.728ZM282.881 303.888L284.121 296.851H288.419C288.866 296.836 289.298 296.923 289.702 297.096C290.106 297.283 290.452 297.543 290.741 297.889C291.015 298.235 291.217 298.624 291.318 299.057C291.418 299.49 291.418 299.937 291.318 300.355C291.13 301.321 290.611 302.187 289.861 302.836C289.111 303.47 288.159 303.845 287.178 303.874H282.881V303.888Z" fill="#15C1E6"/>
</g>
</g>
<g id="Group 114397" opacity="0.8">
<g id="Rectangle 7206_2" filter="url(#filter3_dd_7841_5423)">
<rect x="133" y="173.782" width="58.2238" height="54.3422" rx="10.629" fill="url(#paint11_linear_7841_5423)"/>
<rect x="132.148" y="172.93" width="59.9268" height="56.0452" rx="11.4805" stroke="url(#paint12_linear_7841_5423)" stroke-width="1.70305"/>
</g>
<g id="Layer_1_2" clip-path="url(#clip2_7841_5423)">
<path id="Vector_10" d="M182.484 183.908H152.157C151.555 183.908 151.074 184.446 151.074 185.11V195.66H154.682V194.736C154.682 194.072 155.22 193.534 155.884 193.534H178.75C179.414 193.534 179.952 194.072 179.952 194.736V205.565C179.952 206.229 179.414 206.767 178.75 206.767H167.89C167.732 207.375 167.447 207.95 167.016 208.431L165.257 210.374H182.471C183.072 210.374 183.553 209.836 183.553 209.172V185.11C183.553 184.446 183.066 183.908 182.471 183.908H182.484ZM156.163 190.471C155.346 190.471 154.688 189.812 154.688 188.996C154.688 188.18 155.346 187.522 156.163 187.522C156.979 187.522 157.637 188.18 157.637 188.996C157.637 189.812 156.979 190.471 156.163 190.471ZM160.099 190.471C159.283 190.471 158.625 189.812 158.625 188.996C158.625 188.18 159.283 187.522 160.099 187.522C160.916 187.522 161.574 188.18 161.574 188.996C161.574 189.812 160.916 190.471 160.099 190.471ZM164.036 190.471C163.219 190.471 162.561 189.812 162.561 188.996C162.561 188.18 163.219 187.522 164.036 187.522C164.852 187.522 165.51 188.18 165.51 188.996C165.51 189.812 164.852 190.471 164.036 190.471Z" fill="#98DEF4"/>
<path id="Path_51993_2" d="M165.105 204.672L159.365 198.628C159.232 198.489 159.08 198.382 158.903 198.306C158.732 198.23 158.542 198.192 158.352 198.192H145.239C145.05 198.192 144.866 198.236 144.695 198.312C144.524 198.388 144.372 198.495 144.24 198.635L138.48 204.666C138.215 204.951 138.063 205.324 138.063 205.71C138.063 206.096 138.202 206.476 138.455 206.767L142.797 211.57H147.328C148.094 211.539 148.834 211.254 149.416 210.754C150.005 210.254 150.404 209.577 150.556 208.824C150.631 208.488 150.631 208.14 150.556 207.805C150.48 207.469 150.321 207.159 150.106 206.894C149.885 206.628 149.613 206.419 149.296 206.273C148.98 206.134 148.644 206.065 148.296 206.077H146.581C146.493 206.077 146.41 206.065 146.334 206.027C146.258 205.989 146.189 205.938 146.132 205.875C146.075 205.811 146.037 205.729 146.018 205.647C145.999 205.565 145.999 205.476 146.018 205.394C146.056 205.204 146.157 205.033 146.303 204.913C146.448 204.786 146.632 204.717 146.828 204.71H152.353L150.359 215.83L148.359 213.627H144.664L150.764 220.361C150.891 220.507 151.049 220.627 151.226 220.703C151.404 220.785 151.593 220.823 151.79 220.823C151.986 220.823 152.176 220.779 152.353 220.703C152.53 220.62 152.688 220.507 152.815 220.361L165.118 206.767C165.371 206.476 165.51 206.102 165.51 205.716C165.51 205.33 165.358 204.957 165.099 204.672H165.105ZM152.22 216.944L153.511 209.849H155.397C156.403 209.811 157.372 209.431 158.137 208.78C158.903 208.128 159.428 207.235 159.631 206.248C159.732 205.811 159.732 205.349 159.631 204.913C159.53 204.476 159.327 204.065 159.036 203.717C158.751 203.369 158.384 203.09 157.973 202.907C157.561 202.723 157.112 202.634 156.663 202.647H147.189C146.423 202.679 145.682 202.963 145.1 203.463C144.512 203.963 144.113 204.641 143.961 205.394C143.885 205.729 143.885 206.077 143.961 206.413C144.037 206.748 144.195 207.058 144.41 207.324C144.632 207.59 144.904 207.799 145.22 207.944C145.531 208.083 145.872 208.153 146.22 208.14H147.935C148.024 208.14 148.106 208.153 148.182 208.191C148.258 208.229 148.328 208.28 148.385 208.343C148.442 208.406 148.48 208.488 148.499 208.571C148.518 208.653 148.518 208.742 148.499 208.824C148.461 209.014 148.359 209.178 148.214 209.305C148.068 209.431 147.885 209.501 147.695 209.507H144.632L141.233 205.735L145.809 200.932H157.758L162.346 205.754L152.22 216.944ZM153.853 207.799L154.397 204.71H156.283C156.479 204.704 156.669 204.742 156.846 204.818C157.023 204.9 157.175 205.014 157.302 205.166C157.422 205.318 157.511 205.489 157.555 205.678C157.599 205.868 157.599 206.065 157.555 206.248C157.473 206.672 157.245 207.052 156.916 207.337C156.587 207.615 156.169 207.78 155.739 207.792H153.853V207.799Z" fill="#15C1E6"/>
</g>
</g>
<g id="Group 114398" opacity="0.2">
<g id="Rectangle 7206_3" filter="url(#filter4_dd_7841_5423)">
<rect x="378.103" y="350.331" width="48.8328" height="45.5773" rx="8.91461" fill="url(#paint13_linear_7841_5423)"/>
<rect x="377.389" y="349.617" width="50.2612" height="47.0057" rx="9.62879" stroke="url(#paint14_linear_7841_5423)" stroke-width="1.42836"/>
</g>
<g id="Layer_1_3" clip-path="url(#clip3_7841_5423)">
<path id="Vector_11" d="M419.606 358.824H394.17C393.666 358.824 393.263 359.275 393.263 359.833V368.681H396.288V367.906C396.288 367.349 396.739 366.897 397.297 366.897H416.474C417.032 366.897 417.483 367.349 417.483 367.906V376.988C417.483 377.545 417.032 377.996 416.474 377.996H407.366C407.233 378.506 406.994 378.989 406.633 379.392L405.158 381.022H419.595C420.1 381.022 420.503 380.571 420.503 380.013V359.833C420.503 359.275 420.094 358.824 419.595 358.824H419.606ZM397.53 364.328C396.846 364.328 396.294 363.776 396.294 363.092C396.294 362.407 396.846 361.855 397.53 361.855C398.215 361.855 398.767 362.407 398.767 363.092C398.767 363.776 398.215 364.328 397.53 364.328ZM400.832 364.328C400.147 364.328 399.595 363.776 399.595 363.092C399.595 362.407 400.147 361.855 400.832 361.855C401.517 361.855 402.069 362.407 402.069 363.092C402.069 363.776 401.517 364.328 400.832 364.328ZM404.133 364.328C403.449 364.328 402.897 363.776 402.897 363.092C402.897 362.407 403.449 361.855 404.133 361.855C404.818 361.855 405.37 362.407 405.37 363.092C405.37 363.776 404.818 364.328 404.133 364.328Z" fill="#98DEF4"/>
<path id="Path_51993_3" d="M405.03 376.239L400.216 371.17C400.104 371.053 399.977 370.963 399.828 370.899C399.685 370.836 399.526 370.804 399.367 370.804H388.369C388.209 370.804 388.055 370.841 387.912 370.905C387.769 370.969 387.641 371.059 387.53 371.176L382.7 376.234C382.477 376.473 382.349 376.786 382.349 377.11C382.349 377.434 382.466 377.752 382.678 377.996L386.32 382.025H390.12C390.762 381.998 391.383 381.759 391.872 381.34C392.365 380.921 392.7 380.353 392.827 379.721C392.891 379.44 392.891 379.148 392.827 378.867C392.764 378.585 392.631 378.325 392.45 378.102C392.265 377.879 392.036 377.704 391.771 377.582C391.506 377.465 391.224 377.407 390.932 377.418H389.494C389.42 377.418 389.351 377.407 389.287 377.375C389.223 377.343 389.165 377.301 389.117 377.248C389.069 377.195 389.037 377.126 389.021 377.057C389.005 376.988 389.005 376.913 389.021 376.844C389.053 376.685 389.138 376.542 389.26 376.441C389.382 376.335 389.536 376.276 389.701 376.271H394.335L392.663 385.597L390.985 383.75H387.886L393.002 389.398C393.109 389.52 393.241 389.621 393.39 389.684C393.538 389.753 393.698 389.785 393.862 389.785C394.027 389.785 394.186 389.748 394.335 389.684C394.483 389.615 394.616 389.52 394.722 389.398L405.041 377.996C405.253 377.752 405.37 377.439 405.37 377.115C405.37 376.791 405.242 376.478 405.025 376.239H405.03ZM394.223 386.531L395.306 380.581H396.888C397.732 380.549 398.544 380.231 399.186 379.684C399.828 379.137 400.269 378.389 400.439 377.561C400.524 377.195 400.524 376.807 400.439 376.441C400.354 376.075 400.184 375.73 399.94 375.438C399.701 375.146 399.393 374.912 399.048 374.758C398.703 374.604 398.326 374.53 397.949 374.541H390.003C389.361 374.567 388.74 374.806 388.252 375.225C387.758 375.645 387.424 376.213 387.296 376.844C387.233 377.126 387.233 377.418 387.296 377.699C387.36 377.98 387.493 378.24 387.673 378.463C387.859 378.686 388.087 378.861 388.353 378.983C388.613 379.1 388.899 379.159 389.191 379.148H390.63C390.704 379.148 390.773 379.159 390.837 379.19C390.9 379.222 390.959 379.265 391.007 379.318C391.054 379.371 391.086 379.44 391.102 379.509C391.118 379.578 391.118 379.652 391.102 379.721C391.07 379.88 390.985 380.019 390.863 380.125C390.741 380.231 390.587 380.289 390.428 380.295H387.859L385.009 377.131L388.846 373.102H398.868L402.716 377.147L394.223 386.531ZM395.593 378.861L396.049 376.271H397.631C397.795 376.266 397.955 376.298 398.103 376.361C398.252 376.43 398.379 376.526 398.485 376.653C398.586 376.781 398.661 376.924 398.698 377.083C398.735 377.242 398.735 377.407 398.698 377.561C398.629 377.917 398.438 378.235 398.162 378.474C397.886 378.707 397.535 378.845 397.174 378.856H395.593V378.861Z" fill="#15C1E6"/>
</g>
</g>
<g id="Group 114399" opacity="0.5">
<g id="Rectangle 7206_4" filter="url(#filter5_dd_7841_5423)">
<rect x="424.119" y="257.361" width="48.8328" height="45.5773" rx="8.91461" fill="url(#paint15_linear_7841_5423)"/>
<rect x="423.405" y="256.647" width="50.2612" height="47.0057" rx="9.62879" stroke="url(#paint16_linear_7841_5423)" stroke-width="1.42836"/>
</g>
<g id="Layer_1_4" clip-path="url(#clip4_7841_5423)">
<path id="Vector_12" d="M465.622 265.854H440.186C439.682 265.854 439.278 266.305 439.278 266.862V275.711H442.304V274.936C442.304 274.378 442.755 273.927 443.312 273.927H462.49C463.047 273.927 463.498 274.378 463.498 274.936V284.018C463.498 284.575 463.047 285.026 462.49 285.026H453.381C453.249 285.536 453.01 286.019 452.649 286.422L451.173 288.052H465.611C466.115 288.052 466.519 287.6 466.519 287.043V266.862C466.519 266.305 466.11 265.854 465.611 265.854H465.622ZM443.546 271.358C442.861 271.358 442.309 270.806 442.309 270.121C442.309 269.437 442.861 268.885 443.546 268.885C444.231 268.885 444.783 269.437 444.783 270.121C444.783 270.806 444.231 271.358 443.546 271.358ZM446.847 271.358C446.163 271.358 445.611 270.806 445.611 270.121C445.611 269.437 446.163 268.885 446.847 268.885C447.532 268.885 448.084 269.437 448.084 270.121C448.084 270.806 447.532 271.358 446.847 271.358ZM450.149 271.358C449.464 271.358 448.912 270.806 448.912 270.121C448.912 269.437 449.464 268.885 450.149 268.885C450.834 268.885 451.386 269.437 451.386 270.121C451.386 270.806 450.834 271.358 450.149 271.358Z" fill="#98DEF4"/>
<path id="Path_51993_4" d="M451.046 283.269L446.231 278.2C446.12 278.083 445.993 277.993 445.844 277.929C445.701 277.866 445.541 277.834 445.382 277.834H434.384C434.225 277.834 434.071 277.871 433.928 277.935C433.784 277.998 433.657 278.089 433.546 278.205L428.715 283.264C428.492 283.503 428.365 283.816 428.365 284.14C428.365 284.463 428.482 284.782 428.694 285.026L432.335 289.055H436.136C436.778 289.028 437.399 288.789 437.887 288.37C438.381 287.951 438.715 287.383 438.843 286.751C438.907 286.47 438.907 286.178 438.843 285.896C438.779 285.615 438.646 285.355 438.466 285.132C438.28 284.909 438.052 284.734 437.787 284.612C437.521 284.495 437.24 284.437 436.948 284.447H435.509C435.435 284.447 435.366 284.437 435.302 284.405C435.239 284.373 435.18 284.331 435.133 284.278C435.085 284.224 435.053 284.155 435.037 284.086C435.021 284.017 435.021 283.943 435.037 283.874C435.069 283.715 435.154 283.572 435.276 283.471C435.398 283.365 435.552 283.306 435.716 283.301H440.35L438.678 292.627L437.001 290.78H433.901L439.018 296.427C439.124 296.549 439.257 296.65 439.405 296.714C439.554 296.783 439.713 296.815 439.878 296.815C440.042 296.815 440.202 296.778 440.35 296.714C440.499 296.645 440.632 296.549 440.738 296.427L451.056 285.026C451.269 284.782 451.385 284.469 451.385 284.145C451.385 283.821 451.258 283.508 451.04 283.269H451.046ZM440.239 293.561L441.322 287.611H442.903C443.747 287.579 444.559 287.261 445.202 286.714C445.844 286.167 446.285 285.419 446.454 284.591C446.539 284.224 446.539 283.837 446.454 283.471C446.369 283.105 446.2 282.759 445.955 282.468C445.717 282.176 445.409 281.942 445.064 281.788C444.719 281.634 444.342 281.56 443.965 281.571H436.019C435.377 281.597 434.756 281.836 434.267 282.255C433.774 282.675 433.439 283.243 433.312 283.874C433.248 284.155 433.248 284.447 433.312 284.729C433.376 285.01 433.508 285.27 433.689 285.493C433.875 285.716 434.103 285.891 434.368 286.013C434.628 286.13 434.915 286.188 435.207 286.178H436.645C436.72 286.178 436.789 286.188 436.852 286.22C436.916 286.252 436.974 286.295 437.022 286.348C437.07 286.401 437.102 286.47 437.118 286.539C437.134 286.608 437.134 286.682 437.118 286.751C437.086 286.91 437.001 287.048 436.879 287.154C436.757 287.261 436.603 287.319 436.444 287.324H433.875L431.024 284.161L434.862 280.132H444.883L448.731 284.177L440.239 293.561ZM441.608 285.891L442.065 283.301H443.646C443.811 283.296 443.97 283.327 444.119 283.391C444.268 283.46 444.395 283.556 444.501 283.683C444.602 283.81 444.676 283.954 444.713 284.113C444.751 284.272 444.751 284.437 444.713 284.591C444.644 284.946 444.453 285.265 444.177 285.504C443.901 285.737 443.551 285.875 443.19 285.886H441.608V285.891Z" fill="#15C1E6"/>
</g>
</g>
<g id="Group 114400" opacity="0.8">
<g id="Rectangle 7206_5" filter="url(#filter6_dd_7841_5423)">
<rect x="364.956" y="155" width="37.765" height="35.2473" rx="6.89413" fill="url(#paint17_linear_7841_5423)"/>
<rect x="364.404" y="154.448" width="38.8696" height="36.3519" rx="7.44644" stroke="url(#paint18_linear_7841_5423)" stroke-width="1.10463"/>
</g>
<g id="Layer_1_5" clip-path="url(#clip5_7841_5423)">
<path id="Vector_13" d="M397.052 161.568H377.381C376.991 161.568 376.679 161.917 376.679 162.348V169.191H379.019V168.591C379.019 168.16 379.368 167.811 379.799 167.811H394.63C395.061 167.811 395.41 168.16 395.41 168.591V175.615C395.41 176.046 395.061 176.395 394.63 176.395H387.586C387.484 176.789 387.299 177.162 387.02 177.474L385.878 178.735H397.044C397.434 178.735 397.746 178.386 397.746 177.955V162.348C397.746 161.917 397.43 161.568 397.044 161.568H397.052ZM379.98 165.825C379.45 165.825 379.023 165.398 379.023 164.868C379.023 164.339 379.45 163.912 379.98 163.912C380.509 163.912 380.936 164.339 380.936 164.868C380.936 165.398 380.509 165.825 379.98 165.825ZM382.533 165.825C382.003 165.825 381.577 165.398 381.577 164.868C381.577 164.339 382.003 163.912 382.533 163.912C383.063 163.912 383.489 164.339 383.489 164.868C383.489 165.398 383.063 165.825 382.533 165.825ZM385.086 165.825C384.557 165.825 384.13 165.398 384.13 164.868C384.13 164.339 384.557 163.912 385.086 163.912C385.616 163.912 386.043 164.339 386.043 164.868C386.043 165.398 385.616 165.825 385.086 165.825Z" fill="#98DEF4"/>
<path id="Path_51993_5" d="M385.78 175.036L382.057 171.116C381.971 171.026 381.872 170.956 381.757 170.907C381.646 170.857 381.523 170.833 381.4 170.833H372.895C372.772 170.833 372.653 170.861 372.542 170.911C372.431 170.96 372.332 171.03 372.246 171.12L368.511 175.032C368.338 175.217 368.24 175.459 368.24 175.709C368.24 175.96 368.33 176.206 368.494 176.395L371.31 179.51H374.249C374.746 179.49 375.226 179.305 375.604 178.981C375.986 178.657 376.244 178.217 376.343 177.729C376.392 177.511 376.392 177.286 376.343 177.068C376.294 176.851 376.191 176.649 376.051 176.477C375.908 176.305 375.731 176.169 375.526 176.075C375.321 175.984 375.103 175.939 374.877 175.947H373.765C373.707 175.947 373.654 175.939 373.605 175.915C373.556 175.89 373.51 175.857 373.473 175.816C373.437 175.775 373.412 175.722 373.4 175.668C373.387 175.615 373.387 175.557 373.4 175.504C373.424 175.381 373.49 175.27 373.584 175.192C373.679 175.11 373.798 175.065 373.925 175.061H377.509L376.216 182.273L374.918 180.845H372.521L376.478 185.212C376.56 185.307 376.663 185.385 376.778 185.434C376.893 185.487 377.016 185.512 377.143 185.512C377.27 185.512 377.394 185.483 377.509 185.434C377.624 185.38 377.726 185.307 377.808 185.212L385.788 176.395C385.952 176.206 386.043 175.964 386.043 175.713C386.043 175.463 385.944 175.221 385.776 175.036H385.78ZM377.422 182.996L378.26 178.394H379.483C380.136 178.369 380.764 178.123 381.26 177.7C381.757 177.277 382.098 176.699 382.229 176.058C382.295 175.775 382.295 175.475 382.229 175.192C382.164 174.909 382.032 174.642 381.843 174.416C381.659 174.191 381.421 174.01 381.154 173.891C380.887 173.772 380.595 173.714 380.304 173.723H374.159C373.662 173.743 373.182 173.928 372.804 174.252C372.423 174.576 372.164 175.016 372.066 175.504C372.016 175.722 372.016 175.947 372.066 176.165C372.115 176.383 372.217 176.584 372.357 176.756C372.501 176.929 372.677 177.064 372.882 177.158C373.084 177.249 373.305 177.294 373.531 177.286H374.643C374.701 177.286 374.754 177.294 374.803 177.318C374.853 177.343 374.898 177.376 374.935 177.417C374.972 177.458 374.996 177.511 375.009 177.565C375.021 177.618 375.021 177.676 375.009 177.729C374.984 177.852 374.918 177.959 374.824 178.041C374.73 178.123 374.611 178.168 374.487 178.172H372.501L370.296 175.726L373.264 172.61H381.014L383.99 175.738L377.422 182.996ZM378.481 177.064L378.834 175.061H380.058C380.185 175.057 380.308 175.081 380.423 175.131C380.538 175.184 380.637 175.258 380.719 175.356C380.797 175.455 380.854 175.566 380.883 175.689C380.912 175.812 380.912 175.939 380.883 176.058C380.829 176.333 380.682 176.58 380.468 176.764C380.255 176.945 379.984 177.052 379.705 177.06H378.481V177.064Z" fill="#15C1E6"/>
</g>
</g>
<g id="Group 114401" opacity="0.5">
<g id="Rectangle 7206_6" filter="url(#filter7_dd_7841_5423)">
<rect x="142.391" y="324.037" width="49.839" height="46.5164" rx="9.09829" fill="url(#paint19_linear_7841_5423)"/>
<rect x="141.662" y="323.308" width="51.2968" height="47.9742" rx="9.82719" stroke="url(#paint20_linear_7841_5423)" stroke-width="1.45779"/>
</g>
<g id="Layer_1_6" clip-path="url(#clip6_7841_5423)">
<path id="Vector_14" d="M184.749 332.704H158.789C158.274 332.704 157.863 333.165 157.863 333.734V342.764H160.95V341.973C160.95 341.404 161.411 340.944 161.98 340.944H181.552C182.121 340.944 182.582 341.404 182.582 341.973V351.242C182.582 351.811 182.121 352.271 181.552 352.271H172.256C172.121 352.792 171.877 353.284 171.509 353.696L170.003 355.359H184.738C185.252 355.359 185.664 354.899 185.664 354.33V333.734C185.664 333.165 185.247 332.704 184.738 332.704H184.749ZM162.218 338.322C161.519 338.322 160.956 337.759 160.956 337.06C160.956 336.361 161.519 335.797 162.218 335.797C162.917 335.797 163.48 336.361 163.48 337.06C163.48 337.759 162.917 338.322 162.218 338.322ZM165.588 338.322C164.889 338.322 164.325 337.759 164.325 337.06C164.325 336.361 164.889 335.797 165.588 335.797C166.286 335.797 166.85 336.361 166.85 337.06C166.85 337.759 166.286 338.322 165.588 338.322ZM168.957 338.322C168.258 338.322 167.695 337.759 167.695 337.06C167.695 336.361 168.258 335.797 168.957 335.797C169.656 335.797 170.219 336.361 170.219 337.06C170.219 337.759 169.656 338.322 168.957 338.322Z" fill="#98DEF4"/>
<path id="Path_51993_6" d="M169.873 350.478L164.959 345.305C164.845 345.186 164.715 345.094 164.564 345.029C164.417 344.964 164.255 344.931 164.092 344.931H152.868C152.705 344.931 152.548 344.969 152.402 345.034C152.256 345.099 152.126 345.191 152.012 345.31L147.082 350.473C146.855 350.717 146.725 351.036 146.725 351.367C146.725 351.697 146.844 352.022 147.06 352.271L150.777 356.383H154.656C155.311 356.356 155.945 356.112 156.443 355.684C156.947 355.256 157.288 354.677 157.418 354.032C157.483 353.745 157.483 353.447 157.418 353.16C157.353 352.873 157.218 352.607 157.034 352.38C156.844 352.152 156.611 351.974 156.34 351.849C156.069 351.73 155.782 351.67 155.484 351.681H154.016C153.94 351.681 153.87 351.67 153.805 351.638C153.74 351.605 153.68 351.562 153.632 351.508C153.583 351.453 153.55 351.383 153.534 351.313C153.518 351.242 153.518 351.166 153.534 351.096C153.567 350.933 153.653 350.787 153.778 350.684C153.903 350.576 154.06 350.516 154.228 350.511H158.957L157.25 360.029L155.539 358.144H152.375L157.597 363.908C157.705 364.032 157.841 364.135 157.993 364.2C158.144 364.271 158.307 364.303 158.475 364.303C158.643 364.303 158.805 364.265 158.957 364.2C159.109 364.13 159.244 364.032 159.352 363.908L169.884 352.271C170.1 352.022 170.219 351.703 170.219 351.372C170.219 351.042 170.089 350.722 169.867 350.478H169.873ZM158.843 360.982L159.948 354.91H161.563C162.424 354.877 163.253 354.552 163.908 353.994C164.564 353.436 165.013 352.672 165.187 351.827C165.273 351.453 165.273 351.058 165.187 350.684C165.1 350.31 164.927 349.958 164.677 349.66C164.434 349.362 164.12 349.124 163.767 348.967C163.415 348.81 163.031 348.734 162.646 348.745H154.536C153.881 348.772 153.247 349.016 152.749 349.444C152.245 349.872 151.904 350.451 151.774 351.096C151.709 351.383 151.709 351.681 151.774 351.968C151.839 352.255 151.974 352.521 152.158 352.748C152.348 352.976 152.581 353.154 152.852 353.279C153.117 353.398 153.41 353.458 153.707 353.447H155.176C155.251 353.447 155.322 353.458 155.387 353.49C155.452 353.523 155.511 353.566 155.56 353.62C155.609 353.675 155.641 353.745 155.658 353.815C155.674 353.886 155.674 353.962 155.658 354.032C155.625 354.195 155.539 354.335 155.414 354.444C155.289 354.552 155.132 354.612 154.97 354.617H152.348L149.439 351.388L153.355 347.277H163.583L167.511 351.405L158.843 360.982ZM160.241 353.154L160.707 350.511H162.321C162.489 350.505 162.651 350.538 162.803 350.603C162.955 350.673 163.085 350.771 163.193 350.901C163.296 351.031 163.372 351.177 163.41 351.34C163.448 351.502 163.448 351.67 163.41 351.827C163.339 352.19 163.144 352.515 162.863 352.759C162.581 352.997 162.223 353.138 161.855 353.149H160.241V353.154Z" fill="#15C1E6"/>
</g>
</g>
<g id="Group 114402">
<g id="Rectangle 7206_7" filter="url(#filter8_dd_7841_5423)">
<rect x="255.552" y="399.164" width="35.7526" height="33.3691" rx="6.52677" fill="url(#paint21_linear_7841_5423)"/>
<rect x="255.029" y="398.641" width="36.7984" height="34.4149" rx="7.04965" stroke="url(#paint22_linear_7841_5423)" stroke-width="1.04576"/>
</g>
<g id="Layer_1_7" clip-path="url(#clip7_7841_5423)">
<path id="Vector_15" d="M285.937 405.382H267.315C266.946 405.382 266.65 405.712 266.65 406.12V412.599H268.865V412.031C268.865 411.623 269.196 411.293 269.604 411.293H283.645C284.053 411.293 284.383 411.623 284.383 412.031V418.68C284.383 419.088 284.053 419.419 283.645 419.419H276.976C276.879 419.792 276.704 420.145 276.44 420.441L275.359 421.634H285.93C286.299 421.634 286.594 421.304 286.594 420.895V406.12C286.594 405.712 286.295 405.382 285.93 405.382H285.937ZM269.775 409.412C269.274 409.412 268.869 409.008 268.869 408.506C268.869 408.005 269.274 407.601 269.775 407.601C270.276 407.601 270.68 408.005 270.68 408.506C270.68 409.008 270.276 409.412 269.775 409.412ZM272.192 409.412C271.691 409.412 271.287 409.008 271.287 408.506C271.287 408.005 271.691 407.601 272.192 407.601C272.693 407.601 273.098 408.005 273.098 408.506C273.098 409.008 272.693 409.412 272.192 409.412ZM274.609 409.412C274.108 409.412 273.704 409.008 273.704 408.506C273.704 408.005 274.108 407.601 274.609 407.601C275.111 407.601 275.515 408.005 275.515 408.506C275.515 409.008 275.111 409.412 274.609 409.412Z" fill="#98DEF4"/>
<path id="Path_51993_7" d="M275.266 418.132L271.741 414.421C271.66 414.336 271.567 414.27 271.458 414.223C271.353 414.176 271.236 414.153 271.12 414.153H263.068C262.951 414.153 262.838 414.18 262.733 414.227C262.628 414.273 262.535 414.339 262.454 414.425L258.917 418.128C258.754 418.303 258.661 418.533 258.661 418.77C258.661 419.007 258.746 419.24 258.902 419.419L261.567 422.368H264.35C264.82 422.349 265.275 422.174 265.632 421.867C265.994 421.56 266.239 421.144 266.332 420.682C266.379 420.476 266.379 420.262 266.332 420.056C266.285 419.85 266.188 419.66 266.056 419.496C265.92 419.333 265.753 419.205 265.559 419.116C265.364 419.03 265.158 418.987 264.945 418.995H263.891C263.837 418.995 263.786 418.987 263.74 418.964C263.693 418.941 263.65 418.91 263.615 418.871C263.581 418.832 263.557 418.781 263.546 418.731C263.534 418.68 263.534 418.626 263.546 418.575C263.569 418.459 263.631 418.354 263.72 418.28C263.81 418.202 263.922 418.16 264.043 418.156H267.436L266.211 424.984L264.983 423.631H262.714L266.46 427.766C266.538 427.856 266.635 427.929 266.744 427.976C266.853 428.027 266.969 428.05 267.09 428.05C267.21 428.05 267.327 428.023 267.436 427.976C267.544 427.925 267.642 427.856 267.719 427.766L275.274 419.419C275.429 419.24 275.515 419.011 275.515 418.774C275.515 418.537 275.422 418.307 275.262 418.132H275.266ZM267.354 425.668L268.147 421.311H269.305C269.923 421.288 270.517 421.055 270.988 420.654C271.458 420.254 271.78 419.706 271.905 419.1C271.967 418.832 271.967 418.548 271.905 418.28C271.842 418.012 271.718 417.759 271.539 417.546C271.364 417.332 271.139 417.161 270.886 417.048C270.634 416.935 270.358 416.881 270.082 416.889H264.264C263.794 416.908 263.34 417.083 262.982 417.39C262.621 417.697 262.376 418.113 262.283 418.575C262.236 418.781 262.236 418.995 262.283 419.201C262.329 419.407 262.426 419.597 262.558 419.761C262.694 419.924 262.862 420.052 263.056 420.142C263.246 420.227 263.456 420.27 263.67 420.262H264.723C264.777 420.262 264.828 420.27 264.875 420.293C264.921 420.316 264.964 420.347 264.999 420.386C265.034 420.425 265.057 420.476 265.069 420.526C265.081 420.577 265.081 420.631 265.069 420.682C265.046 420.798 264.983 420.899 264.894 420.977C264.805 421.055 264.692 421.098 264.575 421.101H262.694L260.608 418.785L263.417 415.836H270.754L273.572 418.797L267.354 425.668ZM268.357 420.052L268.691 418.156H269.849C269.969 418.152 270.086 418.175 270.195 418.222C270.304 418.272 270.397 418.342 270.475 418.435C270.548 418.529 270.603 418.634 270.63 418.75C270.657 418.867 270.657 418.987 270.63 419.1C270.579 419.36 270.44 419.594 270.238 419.768C270.035 419.939 269.779 420.04 269.515 420.048H268.357V420.052Z" fill="#15C1E6"/>
</g>
</g>
<g id="Group 114403" opacity="0.2">
<g id="Rectangle 7206_8" filter="url(#filter9_dd_7841_5423)">
<rect x="259.778" y="173.782" width="27.7033" height="25.8564" rx="5.05733" fill="url(#paint23_linear_7841_5423)"/>
<rect x="259.372" y="173.377" width="28.5136" height="26.6667" rx="5.46249" stroke="url(#paint24_linear_7841_5423)" stroke-width="0.81032"/>
</g>
<g id="Layer_1_8" clip-path="url(#clip8_7841_5423)">
<path id="Vector_16" d="M283.322 178.599H268.892C268.606 178.599 268.377 178.855 268.377 179.172V184.191H270.094V183.752C270.094 183.436 270.35 183.18 270.666 183.18H281.546C281.862 183.18 282.118 183.436 282.118 183.752V188.904C282.118 189.22 281.862 189.476 281.546 189.476H276.378C276.303 189.765 276.167 190.039 275.963 190.268L275.126 191.192H283.316C283.602 191.192 283.831 190.936 283.831 190.62V179.172C283.831 178.855 283.599 178.599 283.316 178.599H283.322ZM270.798 181.722C270.41 181.722 270.097 181.409 270.097 181.021C270.097 180.632 270.41 180.319 270.798 180.319C271.187 180.319 271.5 180.632 271.5 181.021C271.5 181.409 271.187 181.722 270.798 181.722ZM272.671 181.722C272.283 181.722 271.97 181.409 271.97 181.021C271.97 180.632 272.283 180.319 272.671 180.319C273.06 180.319 273.373 180.632 273.373 181.021C273.373 181.409 273.06 181.722 272.671 181.722ZM274.544 181.722C274.156 181.722 273.843 181.409 273.843 181.021C273.843 180.632 274.156 180.319 274.544 180.319C274.933 180.319 275.246 180.632 275.246 181.021C275.246 181.409 274.933 181.722 274.544 181.722Z" fill="#98DEF4"/>
<path id="Path_51993_8" d="M275.053 188.479L272.322 185.604C272.259 185.537 272.187 185.486 272.102 185.45C272.021 185.414 271.931 185.396 271.841 185.396H265.601C265.511 185.396 265.424 185.417 265.342 185.453C265.261 185.489 265.189 185.54 265.125 185.607L262.385 188.476C262.259 188.612 262.187 188.789 262.187 188.973C262.187 189.157 262.253 189.337 262.373 189.476L264.439 191.761H266.595C266.959 191.746 267.312 191.611 267.589 191.373C267.869 191.135 268.058 190.813 268.131 190.455C268.167 190.295 268.167 190.129 268.131 189.97C268.095 189.81 268.019 189.663 267.917 189.536C267.811 189.41 267.682 189.31 267.531 189.241C267.381 189.175 267.221 189.142 267.056 189.148H266.24C266.197 189.148 266.158 189.142 266.122 189.124C266.086 189.106 266.053 189.081 266.026 189.051C265.999 189.021 265.981 188.982 265.972 188.943C265.963 188.904 265.963 188.862 265.972 188.823C265.99 188.732 266.038 188.651 266.107 188.594C266.176 188.533 266.264 188.5 266.357 188.497H268.986L268.037 193.788L267.086 192.74H265.327L268.23 195.944C268.29 196.013 268.366 196.071 268.45 196.107C268.534 196.146 268.625 196.164 268.718 196.164C268.811 196.164 268.902 196.143 268.986 196.107C269.07 196.068 269.145 196.013 269.206 195.944L275.06 189.476C275.18 189.337 275.246 189.16 275.246 188.976C275.246 188.792 275.174 188.615 275.05 188.479H275.053ZM268.923 194.318L269.537 190.942H270.434C270.913 190.924 271.374 190.744 271.738 190.434C272.102 190.123 272.352 189.699 272.449 189.229C272.497 189.021 272.497 188.801 272.449 188.594C272.401 188.386 272.304 188.19 272.166 188.025C272.03 187.859 271.856 187.726 271.66 187.639C271.464 187.552 271.25 187.51 271.037 187.516H266.529C266.164 187.531 265.812 187.666 265.535 187.904C265.255 188.142 265.065 188.464 264.993 188.823C264.957 188.982 264.957 189.148 264.993 189.307C265.029 189.467 265.104 189.614 265.207 189.741C265.312 189.867 265.442 189.967 265.592 190.036C265.74 190.102 265.902 190.135 266.068 190.129H266.884C266.926 190.129 266.965 190.135 267.001 190.153C267.038 190.172 267.071 190.196 267.098 190.226C267.125 190.256 267.143 190.295 267.152 190.334C267.161 190.373 267.161 190.415 267.152 190.455C267.134 190.545 267.086 190.623 267.017 190.683C266.947 190.744 266.86 190.777 266.77 190.78H265.312L263.695 188.985L265.872 186.7H271.557L273.741 188.994L268.923 194.318ZM269.7 189.967L269.958 188.497H270.856C270.949 188.494 271.04 188.512 271.124 188.549C271.208 188.588 271.28 188.642 271.341 188.714C271.398 188.786 271.44 188.868 271.461 188.958C271.482 189.048 271.482 189.142 271.461 189.229C271.422 189.431 271.314 189.611 271.157 189.747C271 189.879 270.802 189.958 270.597 189.964H269.7V189.967Z" fill="#15C1E6"/>
</g>
</g>
</g>
</g>
</g>
<defs>
<filter id="filter0_d_7841_5423" x="2.05369" y="11.6683" width="581.816" height="580.99" filterUnits="userSpaceOnUse" color-interpolation-filters="sRGB">
<feFlood flood-opacity="0" result="BackgroundImageFix"/>
<feColorMatrix in="SourceAlpha" type="matrix" values="0 0 0 0 0 0 0 0 0 0 0 0 0 0 0 0 0 0 127 0" result="hardAlpha"/>
<feOffset dx="-0.460336" dy="5.06369"/>
<feGaussianBlur stdDeviation="3.68268"/>
<feColorMatrix type="matrix" values="0 0 0 0 0.075 0 0 0 0 0.18 0 0 0 0 0.45 0 0 0 0.08 0"/>
<feBlend mode="normal" in2="BackgroundImageFix" result="effect1_dropShadow_7841_5423"/>
<feBlend mode="normal" in="SourceGraphic" in2="effect1_dropShadow_7841_5423" result="shape"/>
</filter>
<filter id="filter1_d_7841_5423" x="60.9092" y="70.4376" width="464.104" height="463.451" filterUnits="userSpaceOnUse" color-interpolation-filters="sRGB">
<feFlood flood-opacity="0" result="BackgroundImageFix"/>
<feColorMatrix in="SourceAlpha" type="matrix" values="0 0 0 0 0 0 0 0 0 0 0 0 0 0 0 0 0 0 127 0" result="hardAlpha"/>
<feOffset dx="-0.460336" dy="5.06369"/>
<feGaussianBlur stdDeviation="3.68268"/>
<feColorMatrix type="matrix" values="0 0 0 0 0.075 0 0 0 0 0.18 0 0 0 0 0.45 0 0 0 0.08 0"/>
<feBlend mode="normal" in2="BackgroundImageFix" result="effect1_dropShadow_7841_5423"/>
<feBlend mode="normal" in="SourceGraphic" in2="effect1_dropShadow_7841_5423" result="shape"/>
</filter>
<filter id="filter2_dd_7841_5423" x="215.132" y="206.142" width="191.824" height="182.978" filterUnits="userSpaceOnUse" color-interpolation-filters="sRGB">
<feFlood flood-opacity="0" result="BackgroundImageFix"/>
<feColorMatrix in="SourceAlpha" type="matrix" values="0 0 0 0 0 0 0 0 0 0 0 0 0 0 0 0 0 0 127 0" result="hardAlpha"/>
<feOffset dx="11.6776" dy="11.6776"/>
<feGaussianBlur stdDeviation="11.6776"/>
<feColorMatrix type="matrix" values="0 0 0 0 0 0 0 0 0 0.296699 0 0 0 0 0.858629 0 0 0 0.08 0"/>
<feBlend mode="normal" in2="BackgroundImageFix" result="effect1_dropShadow_7841_5423"/>
<feColorMatrix in="SourceAlpha" type="matrix" values="0 0 0 0 0 0 0 0 0 0 0 0 0 0 0 0 0 0 127 0" result="hardAlpha"/>
<feOffset/>
<feGaussianBlur stdDeviation="8.17432"/>
<feComposite in2="hardAlpha" operator="out"/>
<feColorMatrix type="matrix" values="0 0 0 0 0.0354167 0 0 0 0 0.105426 0 0 0 0 0.2125 0 0 0 0.07 0"/>
<feBlend mode="normal" in2="effect1_dropShadow_7841_5423" result="effect2_dropShadow_7841_5423"/>
<feBlend mode="normal" in="SourceGraphic" in2="effect2_dropShadow_7841_5423" result="shape"/>
</filter>
<filter id="filter3_dd_7841_5423" x="124.123" y="164.905" width="84.1775" height="80.2959" filterUnits="userSpaceOnUse" color-interpolation-filters="sRGB">
<feFlood flood-opacity="0" result="BackgroundImageFix"/>
<feColorMatrix in="SourceAlpha" type="matrix" values="0 0 0 0 0 0 0 0 0 0 0 0 0 0 0 0 0 0 127 0" result="hardAlpha"/>
<feOffset dx="5.12445" dy="5.12445"/>
<feGaussianBlur stdDeviation="5.12445"/>
<feColorMatrix type="matrix" values="0 0 0 0 0 0 0 0 0 0.296699 0 0 0 0 0.858629 0 0 0 0.08 0"/>
<feBlend mode="normal" in2="BackgroundImageFix" result="effect1_dropShadow_7841_5423"/>
<feColorMatrix in="SourceAlpha" type="matrix" values="0 0 0 0 0 0 0 0 0 0 0 0 0 0 0 0 0 0 127 0" result="hardAlpha"/>
<feOffset/>
<feGaussianBlur stdDeviation="3.58711"/>
<feComposite in2="hardAlpha" operator="out"/>
<feColorMatrix type="matrix" values="0 0 0 0 0.0354167 0 0 0 0 0.105426 0 0 0 0 0.2125 0 0 0 0.07 0"/>
<feBlend mode="normal" in2="effect1_dropShadow_7841_5423" result="effect2_dropShadow_7841_5423"/>
<feBlend mode="normal" in="SourceGraphic" in2="effect2_dropShadow_7841_5423" result="shape"/>
</filter>
<filter id="filter4_dd_7841_5423" x="370.658" y="342.886" width="70.6006" height="67.3449" filterUnits="userSpaceOnUse" color-interpolation-filters="sRGB">
<feFlood flood-opacity="0" result="BackgroundImageFix"/>
<feColorMatrix in="SourceAlpha" type="matrix" values="0 0 0 0 0 0 0 0 0 0 0 0 0 0 0 0 0 0 127 0" result="hardAlpha"/>
<feOffset dx="4.29792" dy="4.29792"/>
<feGaussianBlur stdDeviation="4.29792"/>
<feColorMatrix type="matrix" values="0 0 0 0 0 0 0 0 0 0.296699 0 0 0 0 0.858629 0 0 0 0.08 0"/>
<feBlend mode="normal" in2="BackgroundImageFix" result="effect1_dropShadow_7841_5423"/>
<feColorMatrix in="SourceAlpha" type="matrix" values="0 0 0 0 0 0 0 0 0 0 0 0 0 0 0 0 0 0 127 0" result="hardAlpha"/>
<feOffset/>
<feGaussianBlur stdDeviation="3.00855"/>
<feComposite in2="hardAlpha" operator="out"/>
<feColorMatrix type="matrix" values="0 0 0 0 0.0354167 0 0 0 0 0.105426 0 0 0 0 0.2125 0 0 0 0.07 0"/>
<feBlend mode="normal" in2="effect1_dropShadow_7841_5423" result="effect2_dropShadow_7841_5423"/>
<feBlend mode="normal" in="SourceGraphic" in2="effect2_dropShadow_7841_5423" result="shape"/>
</filter>
<filter id="filter5_dd_7841_5423" x="416.673" y="249.916" width="70.6006" height="67.3449" filterUnits="userSpaceOnUse" color-interpolation-filters="sRGB">
<feFlood flood-opacity="0" result="BackgroundImageFix"/>
<feColorMatrix in="SourceAlpha" type="matrix" values="0 0 0 0 0 0 0 0 0 0 0 0 0 0 0 0 0 0 127 0" result="hardAlpha"/>
<feOffset dx="4.29792" dy="4.29792"/>
<feGaussianBlur stdDeviation="4.29792"/>
<feColorMatrix type="matrix" values="0 0 0 0 0 0 0 0 0 0.296699 0 0 0 0 0.858629 0 0 0 0.08 0"/>
<feBlend mode="normal" in2="BackgroundImageFix" result="effect1_dropShadow_7841_5423"/>
<feColorMatrix in="SourceAlpha" type="matrix" values="0 0 0 0 0 0 0 0 0 0 0 0 0 0 0 0 0 0 127 0" result="hardAlpha"/>
<feOffset/>
<feGaussianBlur stdDeviation="3.00855"/>
<feComposite in2="hardAlpha" operator="out"/>
<feColorMatrix type="matrix" values="0 0 0 0 0.0354167 0 0 0 0 0.105426 0 0 0 0 0.2125 0 0 0 0.07 0"/>
<feBlend mode="normal" in2="effect1_dropShadow_7841_5423" result="effect2_dropShadow_7841_5423"/>
<feBlend mode="normal" in="SourceGraphic" in2="effect2_dropShadow_7841_5423" result="shape"/>
</filter>
<filter id="filter6_dd_7841_5423" x="359.198" y="149.242" width="54.5991" height="52.0814" filterUnits="userSpaceOnUse" color-interpolation-filters="sRGB">
<feFlood flood-opacity="0" result="BackgroundImageFix"/>
<feColorMatrix in="SourceAlpha" type="matrix" values="0 0 0 0 0 0 0 0 0 0 0 0 0 0 0 0 0 0 127 0" result="hardAlpha"/>
<feOffset dx="3.32381" dy="3.32381"/>
<feGaussianBlur stdDeviation="3.32381"/>
<feColorMatrix type="matrix" values="0 0 0 0 0 0 0 0 0 0.296699 0 0 0 0 0.858629 0 0 0 0.08 0"/>
<feBlend mode="normal" in2="BackgroundImageFix" result="effect1_dropShadow_7841_5423"/>
<feColorMatrix in="SourceAlpha" type="matrix" values="0 0 0 0 0 0 0 0 0 0 0 0 0 0 0 0 0 0 127 0" result="hardAlpha"/>
<feOffset/>
<feGaussianBlur stdDeviation="2.32666"/>
<feComposite in2="hardAlpha" operator="out"/>
<feColorMatrix type="matrix" values="0 0 0 0 0.0354167 0 0 0 0 0.105426 0 0 0 0 0.2125 0 0 0 0.07 0"/>
<feBlend mode="normal" in2="effect1_dropShadow_7841_5423" result="effect2_dropShadow_7841_5423"/>
<feBlend mode="normal" in="SourceGraphic" in2="effect2_dropShadow_7841_5423" result="shape"/>
</filter>
<filter id="filter7_dd_7841_5423" x="134.792" y="316.438" width="72.0552" height="68.7325" filterUnits="userSpaceOnUse" color-interpolation-filters="sRGB">
<feFlood flood-opacity="0" result="BackgroundImageFix"/>
<feColorMatrix in="SourceAlpha" type="matrix" values="0 0 0 0 0 0 0 0 0 0 0 0 0 0 0 0 0 0 127 0" result="hardAlpha"/>
<feOffset dx="4.38648" dy="4.38648"/>
<feGaussianBlur stdDeviation="4.38648"/>
<feColorMatrix type="matrix" values="0 0 0 0 0 0 0 0 0 0.296699 0 0 0 0 0.858629 0 0 0 0.08 0"/>
<feBlend mode="normal" in2="BackgroundImageFix" result="effect1_dropShadow_7841_5423"/>
<feColorMatrix in="SourceAlpha" type="matrix" values="0 0 0 0 0 0 0 0 0 0 0 0 0 0 0 0 0 0 127 0" result="hardAlpha"/>
<feOffset/>
<feGaussianBlur stdDeviation="3.07054"/>
<feComposite in2="hardAlpha" operator="out"/>
<feColorMatrix type="matrix" values="0 0 0 0 0.0354167 0 0 0 0 0.105426 0 0 0 0 0.2125 0 0 0 0.07 0"/>
<feBlend mode="normal" in2="effect1_dropShadow_7841_5423" result="effect2_dropShadow_7841_5423"/>
<feBlend mode="normal" in="SourceGraphic" in2="effect2_dropShadow_7841_5423" result="shape"/>
</filter>
<filter id="filter8_dd_7841_5423" x="250.1" y="393.713" width="51.6894" height="49.3061" filterUnits="userSpaceOnUse" color-interpolation-filters="sRGB">
<feFlood flood-opacity="0" result="BackgroundImageFix"/>
<feColorMatrix in="SourceAlpha" type="matrix" values="0 0 0 0 0 0 0 0 0 0 0 0 0 0 0 0 0 0 127 0" result="hardAlpha"/>
<feOffset dx="3.14669" dy="3.14669"/>
<feGaussianBlur stdDeviation="3.14669"/>
<feColorMatrix type="matrix" values="0 0 0 0 0 0 0 0 0 0.296699 0 0 0 0 0.858629 0 0 0 0.08 0"/>
<feBlend mode="normal" in2="BackgroundImageFix" result="effect1_dropShadow_7841_5423"/>
<feColorMatrix in="SourceAlpha" type="matrix" values="0 0 0 0 0 0 0 0 0 0 0 0 0 0 0 0 0 0 127 0" result="hardAlpha"/>
<feOffset/>
<feGaussianBlur stdDeviation="2.20269"/>
<feComposite in2="hardAlpha" operator="out"/>
<feColorMatrix type="matrix" values="0 0 0 0 0.0354167 0 0 0 0 0.105426 0 0 0 0 0.2125 0 0 0 0.07 0"/>
<feBlend mode="normal" in2="effect1_dropShadow_7841_5423" result="effect2_dropShadow_7841_5423"/>
<feBlend mode="normal" in="SourceGraphic" in2="effect2_dropShadow_7841_5423" result="shape"/>
</filter>
<filter id="filter9_dd_7841_5423" x="255.554" y="169.558" width="40.0523" height="38.2053" filterUnits="userSpaceOnUse" color-interpolation-filters="sRGB">
<feFlood flood-opacity="0" result="BackgroundImageFix"/>
<feColorMatrix in="SourceAlpha" type="matrix" values="0 0 0 0 0 0 0 0 0 0 0 0 0 0 0 0 0 0 127 0" result="hardAlpha"/>
<feOffset dx="2.43825" dy="2.43825"/>
<feGaussianBlur stdDeviation="2.43825"/>
<feColorMatrix type="matrix" values="0 0 0 0 0 0 0 0 0 0.296699 0 0 0 0 0.858629 0 0 0 0.08 0"/>
<feBlend mode="normal" in2="BackgroundImageFix" result="effect1_dropShadow_7841_5423"/>
<feColorMatrix in="SourceAlpha" type="matrix" values="0 0 0 0 0 0 0 0 0 0 0 0 0 0 0 0 0 0 127 0" result="hardAlpha"/>
<feOffset/>
<feGaussianBlur stdDeviation="1.70677"/>
<feComposite in2="hardAlpha" operator="out"/>
<feColorMatrix type="matrix" values="0 0 0 0 0.0354167 0 0 0 0 0.105426 0 0 0 0 0.2125 0 0 0 0.07 0"/>
<feBlend mode="normal" in2="effect1_dropShadow_7841_5423" result="effect2_dropShadow_7841_5423"/>
<feBlend mode="normal" in="SourceGraphic" in2="effect2_dropShadow_7841_5423" result="shape"/>
</filter>
<radialGradient id="paint0_radial_7841_5423" cx="0" cy="0" r="1" gradientUnits="userSpaceOnUse" gradientTransform="translate(294.573 277.25) rotate(90) scale(121.603 331.573)">
<stop stop-color="#092349"/>
<stop offset="0.515625" stop-color="#092349" stop-opacity="0.8"/>
<stop offset="0.739583" stop-color="#092349" stop-opacity="0"/>
<stop offset="1" stop-color="#092349" stop-opacity="0"/>
</radialGradient>
<linearGradient id="paint1_linear_7841_5423" x1="293.431" y1="173.315" x2="293.431" y2="412.69" gradientUnits="userSpaceOnUse">
<stop stop-color="#303B45" stop-opacity="0"/>
<stop offset="0.171669" stop-color="#0C1014" stop-opacity="0.744681"/>
<stop offset="0.489583" stop-color="#000203"/>
<stop offset="0.807945" stop-color="#0D1115" stop-opacity="0.72449"/>
<stop offset="1" stop-color="#303B45" stop-opacity="0"/>
</linearGradient>
<linearGradient id="paint2_linear_7841_5423" x1="10.4224" y1="278.635" x2="577.748" y2="285.816" gradientUnits="userSpaceOnUse">
<stop stop-color="#15C1E6"/>
<stop offset="1" stop-color="#1089A3"/>
</linearGradient>
<linearGradient id="paint3_linear_7841_5423" x1="69.7688" y1="282.507" x2="518.123" y2="288.182" gradientUnits="userSpaceOnUse">
<stop stop-color="#15C1E6"/>
<stop offset="1" stop-color="#1089A3"/>
</linearGradient>
<radialGradient id="paint4_radial_7841_5423" cx="0" cy="0" r="1" gradientUnits="userSpaceOnUse" gradientTransform="translate(104.645 206.771) rotate(8.42909) scale(280.705 327.169)">
<stop stop-color="#15C1E6"/>
<stop offset="0.869792" stop-color="#15C1E6" stop-opacity="0"/>
</radialGradient>
<linearGradient id="paint5_linear_7841_5423" x1="405.227" y1="178.427" x2="405.221" y2="178.444" gradientUnits="userSpaceOnUse">
<stop stop-color="#15C1E6"/>
<stop offset="1" stop-color="#15C1E6" stop-opacity="0"/>
</linearGradient>
<radialGradient id="paint6_radial_7841_5423" cx="0" cy="0" r="1" gradientUnits="userSpaceOnUse" gradientTransform="translate(537.096 250.919) rotate(148.078) scale(219.738 168.524)">
<stop stop-color="#15C1E6"/>
<stop offset="1" stop-color="#15C1E6" stop-opacity="0"/>
</radialGradient>
<linearGradient id="paint7_linear_7841_5423" x1="407.856" y1="180.02" x2="407.363" y2="181.07" gradientUnits="userSpaceOnUse">
<stop stop-color="#15C1E6"/>
<stop offset="1" stop-color="#15C1E6" stop-opacity="0"/>
</linearGradient>
<linearGradient id="paint8_linear_7841_5423" x1="405.845" y1="178.091" x2="405.337" y2="179.254" gradientUnits="userSpaceOnUse">
<stop stop-color="#15C1E6"/>
<stop offset="1" stop-color="#15C1E6" stop-opacity="0"/>
</linearGradient>
<linearGradient id="paint9_linear_7841_5423" x1="375.888" y1="173.83" x2="233.711" y2="353.153" gradientUnits="userSpaceOnUse">
<stop stop-color="#0A479C"/>
<stop offset="1" stop-color="#091B36"/>
</linearGradient>
<linearGradient id="paint10_linear_7841_5423" x1="250.176" y1="343.467" x2="378.299" y2="240.511" gradientUnits="userSpaceOnUse">
<stop stop-color="#1B4582"/>
<stop offset="1" stop-color="#3160A6"/>
</linearGradient>
<linearGradient id="paint11_linear_7841_5423" x1="194.667" y1="150.726" x2="132.276" y2="229.417" gradientUnits="userSpaceOnUse">
<stop stop-color="#0A479C"/>
<stop offset="1" stop-color="#091B36"/>
</linearGradient>
<linearGradient id="paint12_linear_7841_5423" x1="139.501" y1="225.167" x2="195.725" y2="179.987" gradientUnits="userSpaceOnUse">
<stop stop-color="#1B4582"/>
<stop offset="1" stop-color="#3160A6"/>
</linearGradient>
<linearGradient id="paint13_linear_7841_5423" x1="429.824" y1="330.994" x2="377.496" y2="396.993" gradientUnits="userSpaceOnUse">
<stop stop-color="#0A479C"/>
<stop offset="1" stop-color="#091B36"/>
</linearGradient>
<linearGradient id="paint14_linear_7841_5423" x1="383.556" y1="393.428" x2="430.711" y2="355.535" gradientUnits="userSpaceOnUse">
<stop stop-color="#1B4582"/>
<stop offset="1" stop-color="#3160A6"/>
</linearGradient>
<linearGradient id="paint15_linear_7841_5423" x1="475.839" y1="238.024" x2="423.512" y2="304.023" gradientUnits="userSpaceOnUse">
<stop stop-color="#0A479C"/>
<stop offset="1" stop-color="#091B36"/>
</linearGradient>
<linearGradient id="paint16_linear_7841_5423" x1="429.571" y1="300.458" x2="476.727" y2="262.565" gradientUnits="userSpaceOnUse">
<stop stop-color="#1B4582"/>
<stop offset="1" stop-color="#3160A6"/>
</linearGradient>
<linearGradient id="paint17_linear_7841_5423" x1="404.954" y1="140.045" x2="364.486" y2="191.086" gradientUnits="userSpaceOnUse">
<stop stop-color="#0A479C"/>
<stop offset="1" stop-color="#091B36"/>
</linearGradient>
<linearGradient id="paint18_linear_7841_5423" x1="369.173" y1="188.329" x2="405.641" y2="159.025" gradientUnits="userSpaceOnUse">
<stop stop-color="#1B4582"/>
<stop offset="1" stop-color="#3160A6"/>
</linearGradient>
<linearGradient id="paint19_linear_7841_5423" x1="195.177" y1="304.301" x2="141.771" y2="371.66" gradientUnits="userSpaceOnUse">
<stop stop-color="#0A479C"/>
<stop offset="1" stop-color="#091B36"/>
</linearGradient>
<linearGradient id="paint20_linear_7841_5423" x1="147.956" y1="368.022" x2="196.083" y2="329.348" gradientUnits="userSpaceOnUse">
<stop stop-color="#1B4582"/>
<stop offset="1" stop-color="#3160A6"/>
</linearGradient>
<linearGradient id="paint21_linear_7841_5423" x1="293.418" y1="385.006" x2="255.107" y2="433.327" gradientUnits="userSpaceOnUse">
<stop stop-color="#0A479C"/>
<stop offset="1" stop-color="#091B36"/>
</linearGradient>
<linearGradient id="paint22_linear_7841_5423" x1="259.543" y1="430.717" x2="294.068" y2="402.974" gradientUnits="userSpaceOnUse">
<stop stop-color="#1B4582"/>
<stop offset="1" stop-color="#3160A6"/>
</linearGradient>
<linearGradient id="paint23_linear_7841_5423" x1="289.119" y1="162.812" x2="259.433" y2="200.253" gradientUnits="userSpaceOnUse">
<stop stop-color="#0A479C"/>
<stop offset="1" stop-color="#091B36"/>
</linearGradient>
<linearGradient id="paint24_linear_7841_5423" x1="262.871" y1="198.231" x2="289.623" y2="176.734" gradientUnits="userSpaceOnUse">
<stop stop-color="#1B4582"/>
<stop offset="1" stop-color="#3160A6"/>
</linearGradient>
<clipPath id="clip0_7841_5423">
<rect width="575.382" height="343" fill="white" transform="translate(7 117)"/>
</clipPath>
<clipPath id="clip1_7841_5423">
<rect width="103.693" height="84.1367" fill="white" transform="translate(246.898 249.446)"/>
</clipPath>
<clipPath id="clip2_7841_5423">
<rect width="45.5032" height="36.9215" fill="white" transform="translate(138.063 183.908)"/>
</clipPath>
<clipPath id="clip3_7841_5423">
<rect width="38.1639" height="30.9664" fill="white" transform="translate(382.349 358.824)"/>
</clipPath>
<clipPath id="clip4_7841_5423">
<rect width="38.1639" height="30.9664" fill="white" transform="translate(428.365 265.854)"/>
</clipPath>
<clipPath id="clip5_7841_5423">
<rect width="29.5141" height="23.9479" fill="white" transform="translate(368.24 161.568)"/>
</clipPath>
<clipPath id="clip6_7841_5423">
<rect width="38.9503" height="31.6044" fill="white" transform="translate(146.725 332.704)"/>
</clipPath>
<clipPath id="clip7_7841_5423">
<rect width="27.9415" height="22.6718" fill="white" transform="translate(258.661 405.382)"/>
</clipPath>
<clipPath id="clip8_7841_5423">
<rect width="21.6507" height="17.5675" fill="white" transform="translate(262.187 178.6)"/>
</clipPath>
</defs>
</svg>
