<svg width="80" height="63" viewBox="0 0 80 63" fill="none" xmlns="http://www.w3.org/2000/svg">
<g id="use case">
<g id="real_estate-1 1">
<path id="Vector" opacity="0.15" d="M39.9982 55.7698C53.5929 55.7698 64.6136 44.7491 64.6136 31.1544C64.6136 17.5597 53.5929 6.53906 39.9982 6.53906C26.4035 6.53906 15.3828 17.5597 15.3828 31.1544C15.3828 44.7491 26.4035 55.7698 39.9982 55.7698Z" fill="#E6EEFF"/>
<g id="Group">
<path id="Vector_2" d="M65.8458 13.3076H14.1535C11.4346 13.3076 9.23047 15.5118 9.23047 18.2307V44.0768C9.23047 46.7958 11.4346 48.9999 14.1535 48.9999H65.8458C68.5648 48.9999 70.7689 46.7958 70.7689 44.0768V18.2307C70.7689 15.5118 68.5648 13.3076 65.8458 13.3076Z" fill="white"/>
</g>
<path id="Vector_3" d="M39.6129 17H14.5385C13.6457 17 12.9219 17.7238 12.9219 18.6166V43.691C12.9219 44.5838 13.6457 45.3076 14.5385 45.3076H39.6129C40.5057 45.3076 41.2295 44.5838 41.2295 43.691V18.6166C41.2295 17.7238 40.5057 17 39.6129 17Z" fill="#F5F8FF"/>
<path id="Vector_4" d="M29.4407 27.6328V40.2571L20.5664 40.3075V27.6328H29.4407Z" fill="#76A5FF"/>
<path id="Vector_5" d="M36.3352 27.6445H29.4414V40.2688H36.3352V27.6445Z" fill="white"/>
<path id="Vector_6" d="M31.6982 22.4639L28.7906 28.4488H28.0316L21.0757 27.4842L20.5423 28.4488H19.957L24.5624 22.4856L31.6982 22.4639Z" fill="#3D7FFC"/>
<path id="Vector_7" d="M32.0459 22.4639L29.1382 28.4488H20.3047L24.9101 22.4856L32.0459 22.4639Z" fill="#76A5FF"/>
<path id="Vector_8" d="M37.2967 28.7811H29.2783L24.5391 22.4639L27.2071 22.4644L32.4192 22.4653L37.2967 28.7811Z" fill="#3D7FFC"/>
<path id="Vector_9" d="M37.2966 28.7805H35.8275L27.207 22.4639L32.4191 22.4648L37.2966 28.7805Z" fill="#3D7FFC"/>
<path id="Vector_10" d="M24.7336 30.9697L22.8359 34.876H17.0703L20.0762 30.9839L24.7336 30.9697Z" fill="#3D7FFC"/>
<path id="Vector_11" d="M24.9095 30.9697L23.0117 34.876H17.2461L20.252 30.9839L24.9095 30.9697Z" fill="#76A5FF"/>
<path id="Vector_12" d="M22.9991 34.876V40.3223L17.2461 40.2619V34.876H22.9991Z" fill="#76A5FF"/>
<path id="Vector_13" d="M27.8678 34.876V40.2619L22.9961 40.3223V34.876H27.8678Z" fill="white"/>
<path id="Vector_14" d="M28.4049 35.1076H23.1717L20.0781 30.9844L21.637 30.9847L25.2216 30.9855L28.4049 35.1076Z" fill="#5D5FEF"/>
<path id="Vector_15" d="M28.4047 35.1071H27.4114L21.6367 30.9844L25.2213 30.9851L28.4047 35.1071Z" fill="#5D5FEF"/>
<path id="Vector_16" d="M28.4053 35.1074H23.1719V35.2498H28.4053V35.1074Z" fill="#3D7FFC"/>
<path id="Vector_17" d="M23.1706 35.25L19.9922 31.0945L20.0771 30.9844L23.1706 35.1076V35.25Z" fill="#3D7FFC"/>
<path id="Vector_18" d="M37.2413 28.7803H29.2773V29.0253H37.2413V28.7803Z" fill="#3D7FFC"/>
<path id="Vector_19" d="M24.4492 22.6297C24.4404 22.641 29.2759 29.0261 29.2759 29.0261V28.7811L24.5367 22.4639L24.4492 22.6297Z" fill="#3D7FFC"/>
<path id="Vector_20" d="M43.6914 35.4612C43.6914 34.7815 44.2424 34.2305 44.9222 34.2305H65.8453C66.5253 34.2305 67.076 34.7815 67.076 35.4612V44.0766C67.076 44.7564 66.5253 45.3074 65.8453 45.3074H44.9222C44.2424 45.3074 43.6914 44.7564 43.6914 44.0766V35.4612Z" fill="#E7EEFF"/>
<g id="Mask group">
<mask id="mask0_8288_32758" style="mask-type:alpha" maskUnits="userSpaceOnUse" x="43" y="34" width="25" height="11">
<g id="Group_2">
<path id="Vector_21" d="M43.6914 34.2305H67.076V44.692H43.6914V34.2305Z" fill="#C6DBFF"/>
</g>
</mask>
<g mask="url(#mask0_8288_32758)">
<g id="Group_3">
<g id="Mask group_2">
<mask id="mask1_8288_32758" style="mask-type:alpha" maskUnits="userSpaceOnUse" x="43" y="33" width="25" height="12">
<g id="Group_4">
<path id="Vector_22" d="M66.9995 33.2617H43.7695V44.0917H66.9995V33.2617Z" fill="#F5F8FF" stroke="black" stroke-width="0.251331"/>
</g>
</mask>
<g mask="url(#mask1_8288_32758)">
<g id="Group_5">
<path id="Vector_23" opacity="0.8" d="M41.9822 45.8849C41.2244 45.8839 40.8102 45.0009 41.2937 44.4175C41.3832 44.3097 41.4967 44.2243 41.6251 44.1682L42.9244 43.6012C43.888 43.1807 44.7526 42.5625 45.462 41.7865L47.0342 40.0668C47.3695 39.7 47.7634 39.3915 48.1998 39.1538L48.3156 39.0908C49.4641 38.4653 50.8377 38.4078 52.0344 38.935L52.0702 38.9507C52.6088 39.188 53.0891 39.5401 53.4776 39.9823L54.0597 40.6451C55.1795 41.9199 57.037 42.2404 58.5192 41.4147C59.0251 41.1328 59.4556 40.7332 59.7741 40.2496L61.627 37.4375C62.0036 36.865 62.526 36.4028 63.1402 36.0981C64.355 35.4954 65.7962 35.5716 66.9408 36.2989L67.5747 36.7016L70.6534 39.2842L72.7673 41.3231C73.3716 41.9063 74.227 42.1502 75.0485 41.9734C75.9427 41.7809 76.8448 42.2641 77.1802 43.1151L77.2177 43.2105C77.7328 44.5173 76.7685 45.9321 75.3642 45.9302L41.9822 45.8849Z" stroke="#3D7FFC" stroke-width="1.06001"/>
<path id="Vector_24" d="M41.8976 45.3795C41.5102 45.3791 41.3222 44.9056 41.6038 44.6396C41.6484 44.5975 41.7015 44.5654 41.7595 44.5456L42.8832 44.1615C43.6684 43.8931 44.3955 43.4779 45.0257 42.9381L46.1416 41.9822C46.4695 41.7014 46.8383 41.4723 47.2353 41.3029L47.3118 41.2703C48.2292 40.8789 49.2593 40.8423 50.2022 41.1677L50.2992 41.2012C50.7385 41.3528 51.1433 41.5901 51.4901 41.8994L51.8658 42.2344C52.85 43.112 54.2551 43.3364 55.4637 42.809C55.9404 42.601 56.3625 42.2857 56.6973 41.8877L57.963 40.383C58.3512 39.9216 58.8492 39.5652 59.4113 39.3467C60.3546 38.98 61.4088 39.0281 62.3151 39.4791L62.8997 39.7702L65.3963 41.4106L67.0776 42.6805C67.6074 43.0812 68.28 43.2457 68.9354 43.1352L69.3588 43.0637C69.8702 42.9776 70.3772 43.2344 70.6105 43.6973C71.0055 44.4831 70.4339 45.41 69.5539 45.4091L41.8976 45.3795Z" stroke="#5D5FEF" stroke-width="1.06001"/>
</g>
</g>
</g>
</g>
</g>
</g>
<path id="Vector_25" d="M47.0761 23.7693C46.4067 23.7693 45.7523 23.5708 45.1956 23.1989C44.639 22.8269 44.2052 22.2984 43.9491 21.6799C43.6929 21.0614 43.6259 20.3809 43.7564 19.7244C43.887 19.0677 44.2094 18.4647 44.6827 17.9913C45.1561 17.518 45.7591 17.1956 46.4158 17.065C47.0723 16.9344 47.7528 17.0015 48.3713 17.2576C48.9898 17.5138 49.5183 17.9476 49.8903 18.5042C50.2622 19.0608 50.4607 19.7152 50.4607 20.3847C50.4597 21.282 50.1027 22.1423 49.4682 22.7768C48.8337 23.4113 47.9734 23.7683 47.0761 23.7693Z" fill="#FECE4D"/>
<path id="Vector_26" d="M47.0538 22.0798C46.7755 22.0795 46.5086 21.9688 46.3118 21.7719C46.1149 21.5751 46.0042 21.3082 46.0039 21.0299H46.7038C46.7038 21.1227 46.7407 21.2117 46.8064 21.2773C46.872 21.343 46.961 21.3798 47.0538 21.3798C47.1466 21.3798 47.2357 21.343 47.3013 21.2773C47.3669 21.2117 47.4038 21.1227 47.4038 21.0299C47.4038 20.906 47.1938 20.7912 46.8974 20.6432C46.5205 20.4545 46.0039 20.1963 46.0039 19.63C46.0039 19.3515 46.1145 19.0845 46.3114 18.8876C46.5083 18.6907 46.7753 18.5801 47.0538 18.5801C47.3323 18.5801 47.5993 18.6907 47.7962 18.8876C47.9931 19.0845 48.1037 19.3515 48.1037 19.63H47.4038C47.4038 19.5372 47.3669 19.4481 47.3013 19.3825C47.2357 19.3169 47.1466 19.28 47.0538 19.28C46.961 19.28 46.872 19.3169 46.8064 19.3825C46.7407 19.4481 46.7038 19.5372 46.7038 19.63C46.7038 19.7539 46.9138 19.8687 47.2102 20.0167C47.5872 20.2054 48.1037 20.4636 48.1037 21.0299C48.1034 21.3082 47.9927 21.5751 47.7958 21.7719C47.599 21.9688 47.3321 22.0795 47.0538 22.0798Z" fill="white"/>
<path id="Vector_27" d="M47.4031 18.2305H46.7031V18.9304H47.4031V18.2305Z" fill="white"/>
<path id="Vector_28" d="M47.4031 21.7305H46.7031V22.4304H47.4031V21.7305Z" fill="white"/>
<path id="Vector_29" d="M47.0761 31.8562C48.9454 31.8562 50.4607 30.3409 50.4607 28.4716C50.4607 26.6023 48.9454 25.0869 47.0761 25.0869C45.2068 25.0869 43.6914 26.6023 43.6914 28.4716C43.6914 30.3409 45.2068 31.8562 47.0761 31.8562Z" fill="#5D5FEF"/>
<path id="Vector_30" fill-rule="evenodd" clip-rule="evenodd" d="M47.1012 30.5413C46.368 29.6602 45.7734 28.8786 45.7734 28.1558C45.7734 27.433 46.368 26.8467 47.1012 26.8467C47.8344 26.8467 48.4289 27.4327 48.4289 28.1558C48.4289 28.8789 47.8344 29.6602 47.1012 30.5413Z" fill="white"/>
<path id="Vector_31" d="M52.3086 19.5901C52.3086 19.227 52.6029 18.9326 52.9661 18.9326H58.728C59.0912 18.9326 59.3855 19.227 59.3855 19.5901C59.3855 19.9532 59.0912 20.2476 58.728 20.2476H52.9661C52.6029 20.2476 52.3086 19.9532 52.3086 19.5901Z" fill="#E7EEFF"/>
<path id="Vector_32" d="M52.3086 27.5901C52.3086 27.227 52.6029 26.9326 52.9661 26.9326H58.728C59.0912 26.9326 59.3855 27.227 59.3855 27.5901C59.3855 27.9532 59.0912 28.2476 58.728 28.2476H52.9661C52.6029 28.2476 52.3086 27.9532 52.3086 27.5901Z" fill="#E7EEFF"/>
<path id="Vector_33" d="M52.3086 22.2199C52.3086 21.8568 52.6029 21.5625 52.9661 21.5625H65.4975C65.8606 21.5625 66.1547 21.8568 66.1547 22.2199C66.1547 22.5831 65.8606 22.8774 65.4975 22.8774H52.9661C52.6029 22.8774 52.3086 22.5831 52.3086 22.2199Z" fill="#E7EEFF"/>
<path id="Vector_34" d="M52.3086 30.2199C52.3086 29.8568 52.6029 29.5625 52.9661 29.5625H65.4975C65.8606 29.5625 66.1547 29.8568 66.1547 30.2199C66.1547 30.5831 65.8606 30.8774 65.4975 30.8774H52.9661C52.6029 30.8774 52.3086 30.5831 52.3086 30.2199Z" fill="#E7EEFF"/>
</g>
</g>
</svg>
