<svg width="589" height="577" viewBox="0 0 589 577" fill="none" xmlns="http://www.w3.org/2000/svg">
<g clip-path="url(#clip0_7403_104986)">
<path d="M286.579 377.631C281.438 371.461 276.543 365.899 265.897 363.63C264.147 361.766 264.396 365.594 264.102 361.691C264.543 361.215 264.565 356.843 262.147 359.364C259.239 355.397 255.053 350.593 248.556 358.054C248.738 356.22 255.816 353.209 252.26 351.529C250.335 350.297 248.682 349.489 248.695 347.651C251.031 338.258 246.874 324.826 232.338 322.735C230.202 322.912 230.756 316.498 227.367 319.003C231.142 314.661 222.985 310.676 222.749 308.356C225.429 305.391 219.261 304.639 218.679 301.22C225.521 302.029 218.981 298.512 210.949 300.362C209.584 297.015 205.079 298.183 203.054 295.516C204.549 295.133 203.096 292.338 200.154 291.613C201.156 290.425 199.298 285.982 198.7 291.85C197.713 291.216 195.549 293.346 195.279 291.355C194.938 291.621 195.362 291.731 194.02 293.091C192.427 289.921 198.893 290.475 196.269 286.865C194.479 286.258 191.152 291.33 188.044 288.822C187.359 288.865 187.726 289.094 186.642 290.34C186.288 289.712 185.845 289.463 185.361 289.511C183.872 289.581 182.049 292.414 181.718 295.021C180.151 294.873 177.944 296.276 177.198 299.767C177.621 298.09 175.407 291.996 171.886 291.483C160.935 298.078 163.526 278.36 169.492 270.879C169.255 270.62 171.316 267.747 168.159 267.123C169.979 262.683 163.406 265.251 159.153 262.186C163.172 257.545 167.416 251.066 172.743 243.899C167.866 240.475 162.169 246.837 157.41 251.419C156.992 249.61 154.365 250.77 150.978 250.741C147.655 241.343 159.385 217.739 172.822 214.876C172.637 214.812 172.462 214.767 172.302 214.701C173.339 214.357 172.938 214.985 174.509 213.298C174.421 213.614 174.397 213.466 174.336 214.128C176.456 212.364 177.779 216.305 180.121 214.796C180.162 215.381 179.027 218.81 181.642 217.049C181.743 217.272 181.676 218.483 182.487 217.607L182.386 217.62C182.731 217.253 182.559 217.728 182.853 216.576C182.922 218.177 184.423 220.944 184.222 216.443C183.931 216.289 185.89 216.46 185.355 215.368C186.889 213.963 187.664 216.243 190.116 214.188C190.021 214.383 189.934 214.935 188.912 215.575C190.149 216.33 191.669 214.827 193.672 217.19C190.49 223.236 201.045 212.374 195.267 226.257C194.567 226.587 192.301 229.525 193.911 229.841C193.83 229.985 192.101 231.071 193.505 230.869C189.713 242.678 200.751 232.271 201.74 223.025L201.721 223.005L202.097 223.142C205.637 211.511 220.82 212.526 227.396 208.448C228.439 208.876 230.134 208.151 230.009 206.253C230.369 206.803 234.238 204.265 231.828 203.875C233.708 202.301 234.982 199.191 239.057 197.612C237.149 198.754 235.551 199.276 235.122 201.857C234.705 202.103 233.946 201.764 233.629 203.351C233.603 203.447 233.588 203.561 233.576 203.692C235.079 202.161 238.406 202.907 240.269 198.163C240.789 198.574 239.529 200.105 240.314 199.852C240.281 199.883 240.275 199.905 240.265 199.941C241.862 198.892 245.059 198.258 247.104 195.443C247.019 197.161 256.64 195.818 249.74 195.278C251.281 194.788 253.063 196.125 255.193 194.678C255.67 195.598 254.582 195.685 256.934 195.461C256.485 195.762 255.924 195.853 255.424 196.045C255.48 196.139 258.589 196.702 259.622 194.168C258.838 194.184 259.402 195.024 257.702 194.976C258.747 191.429 262.846 191.438 268.507 189.586C268.695 189.935 267.002 189.77 267.204 190.831C268.047 190.514 271.84 190.248 274.641 189.637C275.428 189.463 276.131 189.268 276.683 189.034C275.463 190.48 278.03 189.187 281.107 188.836C280.798 189.134 281.107 189.073 278.958 189.443C279.672 190.18 279.113 190.058 281.181 189.981C279.712 190.946 277.094 189.691 274.088 191.107C270.705 193.063 274.631 195.783 279.248 191.715C279.336 191.778 279.195 191.701 279.558 192.15C277.926 192.734 284.225 193.307 288.378 191.709C288.321 192.269 293.816 191.752 291.465 190C294.82 188.06 290.83 187.717 287.097 190.967C286.93 190.073 287.109 189.805 285.18 190.351C285.004 190.164 285.121 190.036 284.364 189.745C283.303 189.588 283.737 188.606 282.232 187.704C282.615 186.85 283.055 186.138 283.731 185.542C284.366 184.951 285.182 184.494 286.388 184.13C286.12 183.982 284.308 183.81 283.262 183.775C283.749 183.421 283.211 183.281 281.993 182.752C295.668 184.785 287.153 176.629 270.323 182.634C278.457 179.503 288.266 177.335 297.582 180.448C298.683 180.813 299.786 181.257 300.89 181.788C304.391 180.201 307.21 180.579 311.584 180.267C313.537 180.459 315.851 177.612 315.064 175.73C314.67 174.715 313.373 174 310.693 174.177C312.166 173.489 316.43 175.81 314.71 172.19C314.506 174.396 311.954 169.907 311.262 171.294C310.611 171.125 312.787 169.391 311.236 169.54C311.371 168.961 311.556 169.205 310.969 168.36C311.416 168.358 313.922 167.049 312.75 166.941C313.928 165.94 312.777 165.578 313.903 163.65C315.787 156.834 312.488 162.275 305.23 162.445C305.078 162.405 305.627 161.595 304.708 161.6C303.626 159.375 307.023 158.777 308.531 156.996L308.541 156.959C306.977 157.064 308.075 156.94 305.947 155.852C306.341 155.955 307.994 155.234 306.592 155.224C307.375 153.861 299.098 149.751 298.309 153.427C297.041 153.491 295.681 153.768 294.125 155.844C289.501 155.06 289.427 160.647 283.476 162.226C274.305 162.379 274.327 165.471 267.166 169.374C268.416 166.172 264.728 171.993 265.219 166.515C265.235 166.164 265.82 165.663 266.648 165.106C266.969 164.914 267.289 164.698 267.639 164.49C270.725 162.638 275.067 160.444 270.228 160.234C270.178 160.181 270.135 160.131 270.065 160.089C270.162 159.973 270.246 159.876 270.329 159.78C270.06 159.726 270.101 159.665 269.083 159.558C269.451 158.607 269.565 158.637 267.589 157.352C269.388 156.016 267.309 153.342 263.959 153.795C264.711 153.455 266.685 152.661 268.511 151.08C267.762 150.822 267.648 150.793 266.966 150.821C269.67 148.413 276.822 147.838 282.671 146.539C284.046 147.116 288.507 147.283 284.762 144.586C285.518 144.641 285.761 145.995 287.253 146.209C287.732 146.475 287.977 146.177 289.501 145.628C290.035 146.956 294.475 146.322 296.158 145.255C297.222 145.256 297.478 145.063 299.26 145.053C297.148 145.67 294.12 146.489 291.106 147.431C291.803 147.494 292.496 147.516 293.049 147.778C293.039 147.815 292.524 147.972 291.865 148.447C292.459 149.176 295.248 148.255 297.392 147.961C295.215 149.931 303.592 150.123 299.355 148.408C299.487 148.285 299.729 148.466 300.531 148.005C300.431 147.719 300.58 146.593 299.64 146.293C300.015 145.58 299.979 146.004 300.518 145.112C299.989 145.117 299.712 145.974 298.666 146.056C299.152 145.765 299.31 145.869 299.904 145.189C299.848 145.159 299.9 145.204 299.627 145.015C299.982 144.847 299.989 144.353 300.965 144.669C300.891 144.792 300.715 145.195 301.417 145.18C300.097 145.373 301.989 147.841 301.857 145.295C302.216 145.404 302.148 145.945 303.102 145.138C303.832 145.965 307.644 145.924 309.329 143.882C309.796 144.042 312.902 143.503 311.939 142.725C311.909 142.158 312.548 142.372 313.502 142.155C313.78 142.763 314.898 143.391 315.993 143.337C316.035 143.332 316.064 143.316 316.102 143.326C316.645 143.27 317.161 143.05 317.576 142.575C317.879 142.89 317.62 142.768 318.239 143.204C318.02 143.321 316.888 143.743 317.957 143.784C317.926 143.895 317.951 143.862 318.264 144.14C318.231 144.171 318.222 144.145 317.956 144.375C318.12 144.457 317.941 144.371 318.567 144.455C317.962 144.557 314.759 145.009 317.871 145.179C317.059 145.386 317.23 146.383 318.595 145.588C318.484 145.756 318.432 145.648 318.077 146.288C316.191 145.499 317.432 148.71 318.867 146.013C318.877 146.212 318.636 146.409 319.319 146.524C318.226 149.507 315.306 146.41 313.176 149.384C310.713 149.658 308.046 147.115 304.995 149.22C305.408 150.752 305.006 149.474 307.166 150.295C308.413 149.84 308.862 151.389 310.404 150.247C310.489 150.529 309.462 151.364 310.786 150.921C310.677 151.404 310.55 151.041 310.842 151.982C309.617 153.034 310.387 154.833 313.75 156.241C317.682 159.381 315.235 154.864 316.023 153.864C317.578 154.527 318.107 160.223 320.459 155.095C320.385 156.477 322.197 156.121 321.545 153.897C322.871 155.682 321.61 151.575 320.939 151.125C323.338 150.496 323.57 150.714 324.311 153.702C326.467 152.837 335.261 153.696 327.154 148.441C326.834 148.043 327.184 148.394 325.973 147.544C326.77 147.097 327.552 147.442 329.149 147.219C329.351 147.075 327.876 146.888 328.197 146.373C329.261 147.461 329.948 145.269 328.282 145.624C328.535 145.532 328.876 145.385 329.132 145.136C329.151 144.921 328.033 144.969 327.277 143.883C328.114 143.825 326.316 142.129 325.113 143.281C325.246 142.859 326.653 141.997 324.624 141.052C328.995 139.432 317.198 138.8 323.88 140.717C323.157 140.75 320.05 140.675 320.016 140.446C325.969 138.567 316.021 137.448 313.895 140.202C313.446 138.361 317.235 138.755 319.323 138.164C317.288 137.477 313.831 137.115 309.039 138.878C309.222 139.539 309.655 138.502 310.803 139.753C307.442 138.014 306.65 141.028 312.524 141.665C312.904 142.377 312.192 142.192 309.762 141.168C309.651 141.336 308.3 141.142 308.512 142.37C307.446 142.526 306.772 141.879 305.032 142.474C304.887 142.177 302.795 142.428 303.21 143.072C302.908 143.135 302.009 143.216 301.176 143.26C301.456 142.6 301.358 142.457 302.731 141.924C302.748 142.07 303.025 141.977 303.073 142.391C303.656 142.046 305.017 141.706 304.844 140.567C304.038 140.752 303.252 140.571 301.02 141.534C301.279 141.271 302.986 139.888 303.015 140.809C303.67 140.585 304.043 140.997 303.83 139.713C303.391 139.536 303.596 139.826 302.463 139.634C302.717 139.361 303.084 139.677 303.849 139.262C304.518 139.868 306.131 138.469 306.479 137.355C309.027 136.922 311.166 137.619 315.198 136.927C314.068 136.492 312.983 135.186 310.674 135.988C308.144 136.063 304.851 137.105 301.387 137.796C301.421 137.82 301.482 137.836 301.52 137.846C300.859 137.737 297.976 138.531 300.427 139.066C300.461 139.09 300.103 139.123 300.351 139.4C299.309 139.468 299.274 139.301 297.648 139.572C297.71 139.73 297.881 139.845 298.004 139.901C296.215 140.523 294.842 139.733 292.527 140.793C292.53 140.691 292.546 140.782 292.48 140.521C292.297 140.654 292.095 140.798 291.877 140.939C292.079 140.739 292.212 140.609 293.617 139.729C293.287 139.982 292.907 140.238 292.555 140.485C292.747 140.377 293.812 140.079 295.159 139.791C295.037 139.705 294.959 139.779 294.415 139.456C295.256 139.675 302.349 138.549 297.978 138.524C297.816 137.553 296.851 137.578 295.312 138.501C295.493 138.375 295.696 138.23 295.894 138.101C295.107 138.274 292.011 137.809 294.306 138.822C292.537 138.874 288.876 140.277 287.233 137.733C287.172 137.717 286.558 137.88 286.328 137.537C286.34 137.438 288.064 137.752 287.39 136.781C287.447 136.812 287.542 136.821 287.615 136.643C286.894 136.873 284.142 135.253 282.857 136.934C282.144 136.576 280.729 137.846 279.774 137.598C280.151 137.554 281.465 136.652 280.662 136.443C283.662 135.931 279.164 136.542 276.393 135.255C276.912 134.319 278.843 136.207 279.66 134.159C277.686 133.985 278.039 131.739 275.375 131.857C275.618 131.802 275.875 131.751 276.776 131.607C275.97 130.91 273.368 131.95 273.208 131.499C274.054 131.026 273.373 131.873 276.018 130.442C275.224 130.495 274.929 130.915 272.501 130.678C272.635 130.634 272.761 130.706 273.8 130.504C272.739 130.11 271.107 130.198 268.511 129.98C268.549 129.99 268.696 129.989 268.794 129.841C268.344 129.763 268.76 129.816 267.692 129.83C267.96 129.506 266.796 129.897 266.663 129.705C266.178 129.461 265.489 130.25 264.025 129.728C264.188 129.196 264.476 129.271 265.604 128.894C265.036 128.802 263.395 127.187 263.415 127.294L263.268 127.295C263.338 127.101 263.399 127.408 263.795 126.858C263.045 126.545 263.84 126.987 262.321 126.49C262.91 126.565 264.466 125.898 262.724 126.06C262.897 125.963 264.095 125.684 262.665 125.745C264.861 125.324 261.98 125.725 261.196 125.301C259.135 125.206 256.612 125.637 252.139 125.483C251.007 125.583 248.201 126.067 245.54 127.115C245.555 127.119 245.641 127.102 245.813 127.068C245.105 127.278 243.831 127.805 242.721 127.47C244.19 127.182 242.935 127.431 244.486 127.078C244.163 127.072 243.949 126.875 242.254 127.309C242.274 127.235 242.239 127.305 242.478 127.146C240.713 127.42 238.714 127.775 235.996 128.793C236.418 128.737 236.025 128.777 237.08 128.72C236.959 128.807 236.703 128.764 236.185 129.079C236.525 129.025 236.39 129.014 238.015 128.806C238.053 128.816 238.082 128.8 238.124 128.795C238.082 128.8 238.038 128.812 237.994 128.824C236.069 129.292 234.848 129.629 231.976 130.056C232.031 130.007 232.259 129.972 232.819 129.739C232.495 129.797 232.084 129.903 231.749 129.997L231.759 129.96C229.289 130.641 228.125 130.914 223.386 132.753C223.571 132.699 223.787 132.621 223.969 132.582C223.72 132.659 223.49 132.756 223.243 132.826C221.612 133.41 219.91 134.102 217.396 135.149C217.325 135.17 217.255 135.215 217.141 135.248C217.003 135.307 216.83 135.404 216.622 135.507C217.095 135.355 216.967 135.377 218.227 134.932C218.323 134.878 218.438 134.845 218.543 134.818C218.38 134.878 218.403 134.883 218.227 134.932C218.116 134.982 217.878 135.078 217.422 135.259C217.632 135.234 217.426 135.244 218.068 135.127C217.208 135.416 214.308 136.387 211.804 137.602L212.12 137.487C212.12 137.487 212.135 137.491 211.999 137.574C212.605 137.377 213.177 137.014 215.802 136.302L215.794 136.418C215.654 136.484 215.472 136.555 214.607 136.866C214.648 136.774 214.591 136.862 214.848 136.668C214.043 136.995 213.395 137.047 211.579 138.095C211.684 138.067 211.932 137.99 212.588 137.703C212.584 137.718 212.603 137.707 212.461 137.812L212.455 137.834L212.476 137.816C212.581 137.788 213.05 137.65 213.635 137.385C213.624 137.421 213.657 137.391 213.589 137.491C214.228 137.381 214.636 137.228 216.279 136.544L216.225 136.593C216.453 136.589 217.381 136.319 218.392 135.833C217.678 135.978 217.643 135.812 215.73 136.591C217.199 135.862 219.28 135.355 221.487 134.598L221.502 134.602C221.588 134.585 221.815 134.644 222.61 134.354C222.579 134.409 222.621 134.373 222.498 134.467C222.8 134.49 223.764 134.087 225.158 133.772C225.078 133.83 224.981 133.829 224.694 133.983C225.099 133.93 224.999 133.762 226.913 133.417C225.466 133.836 223.057 134.352 220.392 135.266C220.892 135.75 222.709 134.703 223.849 135.015C224.091 134.96 224.393 134.896 224.617 134.821C224.268 134.966 224.554 134.844 223.786 135.242C224.684 135.255 225.964 134.383 228.905 133.88C228.045 134.467 227.919 134.041 225.475 135.067C226.248 134.914 225.713 135.027 227.698 134.574C227.291 134.783 227.566 134.524 226.439 135.074C226.557 135.088 226.477 135.083 226.786 135.085C226.275 135.464 226.413 135.169 224.923 135.829C224.815 136.014 228.831 134.766 226.337 136.708L227.156 136.567C225.968 137.014 225.158 137.654 223.68 138.711L223.603 138.754C223.573 138.864 218.512 140.541 219.141 140.705C218.581 140.937 218.559 140.813 216.343 141.954C216.478 142.052 216.344 142.096 216.756 141.959C215.337 142.598 214.049 143.114 211.842 144.43C212.483 144.4 211.974 144.48 213.363 143.951C213.31 144.055 213.268 143.911 212.981 144.364C214.062 144.007 215.132 143.513 217.721 142.288C216.833 142.766 214.379 144.034 212.498 144.994L212.814 144.879C210.092 146.235 206.83 148.135 203.221 150.465C202.969 150.557 202.827 150.481 201.857 151.26L202.334 151.384C192.005 157.873 170.748 168.051 159.381 182.144C158.128 183.267 159.097 182.054 155.037 187.133C154.87 187.444 154.341 187.448 153.437 189.016C153.421 189.075 153.441 189.001 153.335 189.383C155.091 193.902 145.094 199.541 144.971 205.689C144.863 205.637 144.737 205.565 144.627 205.521C145.405 205.88 144.053 208.245 142.206 207.844C141.507 207.702 139.528 212.274 140.485 213.633C141.828 215.501 137.275 218.956 136.722 222.017C136.722 222.017 136.77 221.99 136.905 221.883L136.915 222.051L137.04 221.981C138.125 221.964 134.263 229.353 136.773 226.943C138.509 221.252 143.104 213.557 145.531 205.834L145.957 206C146.929 203.127 148.041 201.692 151.001 198.445C151.329 198.491 150.288 199.409 151.678 199.259C151.648 199.306 150.348 200.748 151.5 200.197C151.066 200.737 148.715 203.984 147.374 206.25C146.883 206.556 146.84 206.623 145.771 208.054C146.037 208.06 146.007 208.17 146.521 207.926C143.475 219.094 140.097 229.404 135.776 242.658C135.934 242.321 136.105 241.996 136.255 241.657C136.073 245.782 140.4 260.511 145.82 258.179C146.719 257.366 148.479 257.784 148.983 259.812C149.538 263.798 150.115 267.908 153.612 270.714C154.972 270.729 155.304 274.2 157.774 272.433C156.996 273.837 157.488 278.492 159.337 281.176C158.397 282.814 157.179 285.663 158.8 288.438C159.162 287.862 159.182 287.112 159.836 286.746C161.235 288.559 160.279 292.9 162.947 295.971C162.686 293.801 166.95 295.885 164.881 297.465C163.956 295.698 163.676 301.089 165.417 298.022C165.494 297.979 165.394 298.252 165.986 298.169C165.805 299.941 170.1 301.97 168.509 296.211C169.654 295.973 169.547 296.654 171.048 294.635C172.838 292.446 175.593 303.255 173.292 307.437C172.925 308.703 173.702 313.267 171.705 312.591C170.753 313.154 171.714 314.908 172.536 315.578C171.89 317.473 168.842 317.571 168.07 320.952C167.121 320.682 166.733 321.353 167.397 322.856C164.806 322.86 163.51 324.287 163.043 328.559C161.797 329.306 160.399 333.691 162.794 336.69C155.969 346.601 169.409 368.468 175.955 381.514C178.309 386.219 180.875 388.689 183.3 390.846C187.777 394.835 191.798 397.77 193.164 411.839C193.311 413.98 193.681 416.107 194.182 418.261C196.442 427.894 201.575 437.47 202.983 446.568C204.509 448.861 205.776 449.686 207.448 452.656L207.41 452.646C207.564 453.796 208.454 455.216 209.974 456.682C209.923 456.629 209.788 456.531 209.615 456.51C210.309 457.029 210.346 459.038 212.492 459.855C212.193 458.731 212.191 459.62 210.691 456.616C211.731 456.847 212.132 459.069 213.495 460.132C213.477 460.284 214.205 461.324 214.668 462.381C214.148 461.97 214.739 462.36 213.048 460.929C213.822 462.122 214.864 464.054 216.499 466.1C216.499 466.1 216.376 465.871 216.335 465.664C216.484 465.86 216.994 466.544 217.533 465.975L217.464 465.635C217.813 466.079 218.296 466.386 219.03 467.521C218.969 467.506 218.964 467.41 218.098 467.043C218.145 467.11 218.06 467.033 218.464 467.571C218.449 467.567 218.408 467.541 218.329 467.473C219.11 469.818 223.017 472.021 225.136 474.256C225.137 474.194 225.146 474.22 225.155 474.041C225.155 474.041 225.195 474.13 225.606 474.552C225.601 474.511 225.633 474.543 225.478 474.282C225.634 474.362 225.527 474.311 225.896 474.533L225.919 474.539L225.923 474.524C226 474.686 226.244 474.623 226.644 475.089C226.492 475.05 226.584 475.011 226.05 474.856C226.115 474.857 226.247 475.261 226.592 475.335C226.688 475.282 227.287 475.847 227.333 475.622C227.355 475.628 227.404 475.806 227.665 475.89L227.669 475.875C227.783 475.904 227.68 475.98 228.358 476.408C228.347 476.39 228.357 476.353 228.373 476.294C228.473 476.375 228.414 476.383 228.783 476.574L228.766 476.491C228.725 476.401 229.008 476.79 229.562 477.075L229.82 477.26L229.796 477.199L230.103 477.413C230.103 477.413 230.08 477.407 230.094 477.355C230.188 477.458 230.08 477.407 230.465 477.57C230.569 477.636 230.516 477.622 230.821 477.78C230.821 477.78 230.777 477.706 230.726 477.598C231.147 477.865 230.912 477.804 231.762 478.285C231.756 478.22 231.787 478.252 231.685 478.123C232.293 478.596 233.195 478.948 234.15 479.401L233.832 479.082C234.002 479.142 234.415 479.706 234.852 479.741C234.745 479.54 234.842 479.777 234.239 479.227C234.292 479.241 234.495 479.475 234.502 479.154C234.568 479.21 234.75 479.375 234.797 479.057C229.26 475.761 223.262 468.4 223.503 462.503C223.127 462.161 222.574 462.017 222.274 461.546C225.493 462.004 222.791 462.318 220.192 457.911C220.695 458.238 221.887 458.95 222.759 459.113C223.929 459.378 224.524 458.721 222.083 454.977C230.431 459.067 230.212 451.719 224.959 446.718C227.44 447.937 235.363 453.711 235.358 443.679C235.958 443.064 236.021 441.222 238.099 441.226C235.979 449.249 242.144 432.79 244.875 429.051C245.378 429.024 247.79 426.997 250.467 428.535C250.638 427.036 250.441 427.599 253.929 426.647C257.855 427.809 260.71 428.645 262.898 423.316C268.741 419.748 264.628 406.862 273.504 402.515C290.679 394.088 297.866 382.074 286.512 377.637L286.579 377.631ZM309.242 174.226C309.755 173.926 309.493 174.433 310.108 174.411C309.495 174.575 308.136 174.907 307.54 174.477C308.129 174.433 308.67 174.298 309.242 174.226ZM293.48 143.544C293.764 143.633 294.199 143.675 294.559 143.84C294.995 143.969 295.317 144.273 295.241 144.93C294.685 144.943 293.815 144.623 294.695 143.938C294.644 143.886 294.62 143.856 294.559 143.84C294.37 143.791 294.011 143.973 293.192 143.469L293.48 143.544ZM184.284 214.515C184.675 213.979 184.923 214.405 185.088 215.22C184.801 215.082 184.862 215.303 184.242 214.52L184.284 214.515ZM161.338 282.106C161.115 282.528 160.808 281.141 159.449 281.182C159.596 280.74 160.412 275.055 161.365 282.097L161.345 282.107L161.338 282.106ZM193.784 293.943C193.388 295.525 196.017 297.971 192.69 299.516C191.06 298.92 191.749 295.989 193.784 293.943ZM308.562 157.027C308.502 157.248 308.634 157.062 308.562 157.027V157.027Z" fill="url(#paint0_radial_7403_104986)"/>
<path d="M420.814 167.007C420.873 167.037 420.887 167.041 420.873 167.037L420.802 166.997C420.802 166.997 420.809 166.998 420.816 167L420.814 167.007Z" fill="url(#paint1_linear_7403_104986)"/>
<path d="M450.734 199.178C443.252 188.768 434.421 178.706 424.165 169.028C423.792 168.696 423.373 168.328 422.812 167.868C423.151 168.232 422.947 167.958 423.751 168.701C423.794 168.775 423.892 168.856 424.048 169.014L423.913 168.924C424.179 169.206 423.962 168.976 424.594 169.588L424.459 169.498C424.573 169.606 424.428 169.664 425.226 170.429C424.708 170.241 424.407 169.682 423.21 168.681C423.519 169.155 423.5 169.079 424.344 169.966C424.302 169.916 424.214 169.854 424.112 169.788C424.524 170.47 424.173 169.946 425.196 171.195L425.061 171.16C425.364 171.656 426.24 172.339 427.296 173.643C427.274 173.637 427.124 173.599 426.786 173.37C426.253 172.752 425.948 172.895 424.996 171.68C425.007 171.699 425.06 171.736 425.158 171.761C424.78 171.246 423.433 170.064 421.972 169.374C422.787 170.277 423.475 170.572 425.159 172.33C425.148 172.311 425.103 172.299 425.066 172.29C426.586 173.714 426.596 173.392 428.112 175.115C427.057 174.268 428.048 175.059 426.449 173.915C427.028 175.232 428.925 176.973 430.152 178.495C430.095 178.757 426.661 175.737 428.121 177.461L428.084 177.452C428.274 177.919 429.08 178.283 430.745 179.76C428.058 178.834 425.848 175.489 422.54 172.937C426.694 175.706 428.771 175.544 422.098 170.416C422.092 170.438 422.129 170.448 422.167 170.6C420.706 169.767 419.646 168.564 417.058 167.427C417.123 167.538 417.006 167.469 417.46 167.94C416.928 167.607 416.259 166.898 415.015 166.066C415.075 166.279 415.019 166.107 415.286 166.531C414.949 166.302 414.383 166.859 414.102 165.769L414.237 165.804C413.67 165.019 413.107 164.938 411.602 163.976C411.641 164.065 411.677 164.137 411.723 164.204C411.506 164.03 411.146 163.796 410.597 163.521C410.583 163.573 410.926 163.724 411.531 164.715C411.136 164.377 411.444 164.512 410.415 163.656C410.999 164.495 411.351 165.016 411.47 165.221C410.904 164.633 411.562 165.181 409.775 163.334C409.787 163.432 409.76 163.33 409.869 163.658C409.767 163.592 409.707 163.577 409.351 163.328C409.686 163.792 409.513 163.551 410.263 164.398C410.08 164.249 410.278 164.402 409.768 164.074C409.768 164.074 409.743 164.107 409.768 164.216C409.67 163.994 409.331 163.686 408.699 163.847C408.748 164.018 409.126 164.13 409.982 164.831C409.863 164.738 409.65 164.58 409.443 164.89C409.281 164.809 409.378 164.834 408.991 164.553C409.204 164.884 409.147 164.657 409.825 165.762C408.85 164.399 407.597 164.259 409.759 166.573C409.128 166.017 407.927 165.172 409.698 167.134C409.633 167.078 409.5 166.98 409.101 166.657L409.329 167.134C409.183 167.136 409.021 166.226 408.327 166.238C407.862 166.237 406.249 166.462 406.839 167.308C407.31 168.005 408.923 170.818 409.732 168.074C410.615 168.876 410.951 170.628 412.056 172.474C411.964 172.371 412.029 172.427 411.742 172.219C411.814 172.593 412.811 173.448 413.046 174.558C412.986 174.543 412.979 174.423 412.742 174.267L413.011 174.77L412.539 174.705C413.097 174.95 413.79 176.375 413.236 176.69C413.33 177.014 413.269 176.857 413.537 177.565C413.065 177.444 413.516 177.638 412.644 176.854C412.593 177.181 412.731 176.916 412.922 177.723C412.794 177.666 412.762 177.579 412.187 177.053C412.317 177.82 412.651 177.488 413.392 179.027C413.166 178.89 413.343 178.975 412.514 178.407C412.668 178.802 412.501 178.538 413.004 179.322C412.918 179.403 412.846 179.029 412.458 179.182C412.473 179.186 412.414 179.337 412.505 179.731C412.409 179.643 412.446 179.653 412.165 179.423C412.149 179.537 412.238 179.363 411.968 180.043C411.834 179.89 411.963 180.002 411.526 179.614C411.77 180.032 412.035 180.518 412.341 181.03C413.416 182.955 414.774 185.387 416.348 187.48C416.364 187.421 416.344 187.494 416.449 187.206C416.524 187.28 416.519 187.239 416.946 187.665C416.228 187.622 420.351 194.314 421.473 189.102C421.402 188.783 421.312 188.389 421.192 188.098C423.401 190.732 424.907 192.208 427.749 196.709L427.556 196.596C427.521 196.863 427.501 197.221 427.552 197.471C425.924 195.799 427.874 200.647 429.483 201.383C430.245 200.324 429.021 200.507 428.957 198.589C429.85 199.213 431.581 201.03 430.285 197.659C431.018 197.65 430.399 197.625 431.603 197.997C431.597 197.877 431.694 197.902 431.448 197.405C431.498 197.457 431.627 197.569 431.837 197.82C431.77 197.629 431.52 196.287 430.587 194.801C430.586 195.037 430.626 195.324 430.664 195.531C429.744 194 429.794 193.879 428.325 191.182C428.587 191.052 428.336 191.201 428.714 190.367C428.853 190.386 428.811 190.249 429.032 190.464C428.741 188.779 427.126 187.552 425.517 185.987C424.811 185.325 424.132 184.598 423.561 183.742L423.679 183.748C422.364 181.249 421.05 177.913 419.967 174.644C420.763 175.125 420.958 174.859 422.475 176.582C422.171 176.377 422.475 176.582 421.684 175.937C422.406 177.258 422.815 177.458 423.569 179.956C423.494 179.937 423.521 179.983 423.397 179.912C424.566 182.074 426.583 184.817 429.276 187.472C429.319 187.547 429.355 187.619 429.399 187.662C429.677 188.048 430.069 188.165 430.544 188.192C431.765 188.245 433.491 187.559 435.055 189.167C434.834 189.529 434.78 189.949 434.619 190.152C434.451 190.409 434.12 190.356 433.134 189.551C433.134 189.693 433.111 189.86 433.089 189.997C432.912 189.912 432.725 190.006 432.517 190.521C432.592 190.824 432.809 191.196 432.961 191.456C432.847 191.347 432.705 191.224 432.574 191.12C432.853 192.217 432.259 192.388 433.788 194.067C433.782 194.002 433.585 193.415 433.923 193.21C433.827 192.924 433.633 192.583 433.489 192.325C434.175 192.682 433.605 192.339 434.873 193.374C434.873 193.374 434.85 193.313 434.812 193.161C435.097 194.15 436.079 194.315 436.621 196.506C431.333 192.111 437.018 198.47 436.896 201.572C437.225 204.497 437.382 200.41 432.703 203.417C432.21 202.738 432.38 203.05 430.984 201.326C430.877 201.362 431.141 201.627 430.692 201.851C430.823 202.043 429.709 201.978 429.678 202.72C427.021 201.17 425.905 196.299 423.238 192.119C423.046 191.715 423.504 193.979 422.613 193.174C422.104 194.133 423.445 198.344 425.771 200.218C425.646 201.236 426.881 201.213 426.581 203.03C426.215 202.818 424.983 201.453 425.145 203.254C424.347 203.065 422.956 202.212 423.105 204.262L423.023 204.123C422.968 204.464 423.781 208.184 420.791 208.712C421.232 209.456 419.51 210.388 419.629 212.802C418.356 213.248 417.859 212.071 416.266 210.905C415.234 210.838 419.743 215.348 415.794 214.399C415.288 213.827 415.693 213.813 412.739 213.552C411.304 214.636 414.212 216.234 416.586 218.05C416.586 218.05 416.65 218.051 416.88 217.944C416.887 218.065 424.316 230.411 418.324 230.105C415.389 230.205 410.443 226.08 406.945 227.905C406.827 230.708 406.098 239.873 406.951 245.545C406.977 247.343 404.812 249.74 410.515 248.843C415.058 254.466 410.425 253.12 421.368 252.975C422.176 252.527 421.447 250.888 424.013 250.812C423.054 249.28 425.413 248.338 425.481 246.864C422.845 244.523 425.223 240.129 429.723 237.85C428.042 233.473 429.768 232.645 435.45 234.718C436.952 226.745 440.135 238.026 440.708 236.982C441.459 237.971 442.009 239.477 443.409 240.468C443.584 241.649 444.929 242.61 446.594 243.944C447.711 246.377 451.335 248.632 451.457 252.381C451.881 255.11 448.759 253.733 447.358 253.831C447.26 253.664 447.347 253.813 447.07 253.339C446.35 255.396 453.524 264.898 451.386 254.959C451.386 255.014 451.658 255.565 452.122 255.858C452.302 255.644 452.082 255.138 452.431 254.524C452.472 254.519 452.393 254.515 452.629 254.678C452.842 254.259 452.305 253.798 452.626 252.594C454.419 251.467 450.603 250.015 451.62 246.898C451.94 246.901 451.643 247.733 452.843 247.922C457.964 251.997 441.918 235.674 440.913 229.229C442.347 228.208 441.898 229.324 443.707 231.95L443.781 231.456C443.703 231.736 445.236 233.313 444.645 231.899C447.955 238.54 453.563 240.42 455.869 249.7C455.813 249.67 455.94 249.734 455.607 249.491C455.849 251.005 457.645 252.531 458.868 255.449C458.857 255.43 458.842 255.34 458.915 255.138C459.006 255.042 459.414 255.447 459.905 255.731C460.302 255.975 460.76 256.147 461.115 255.939C461.557 256.51 460.853 256.787 462.556 257.358C462.497 257.224 462.583 257.404 462.109 256.288C462.326 256.517 462.234 256.557 463.039 257.355C462.582 254.799 459.701 252.53 458.609 248.146C461.28 251.451 458.313 245.963 461.828 247.401C461.864 248.562 462.889 247.712 463.062 249.903C462.718 249.555 462.756 253.234 464.189 254.02C464.252 253.365 464.044 253.249 464.009 252.285C464.11 252.784 464.716 253.342 464.539 254.922C464.516 254.917 464.547 254.806 464.441 254.755C464.446 254.796 464.362 254.751 464.374 255.196C464.374 255.196 464.238 255.106 463.902 254.933C463.958 256.02 463.65 254.971 464.527 256.798C464.548 256.724 464.589 256.577 464.494 256.055C464.776 256.427 464.522 256.615 465.237 257.532C465.237 257.532 465.225 257.49 465.287 257.269C465.598 257.388 465.531 257.773 466.167 257.936C466.093 257.917 466.013 257.913 465.901 257.884L465.997 258.343C465.997 258.343 465.728 258.1 465.441 257.663C465.556 257.914 464.975 258.096 465.92 259.136C465.953 259.16 465.855 259.024 466.025 258.989C466.212 259.037 465.83 259.831 466.743 260.467C466.661 260.904 466.467 261.509 466.645 263.141C466.88 262.531 466.72 263.16 466.986 261.264C467.023 261.273 467.025 261.353 467.447 261.279L467.444 261.634L467.346 261.553C467.374 261.655 466.767 261.957 467.319 262.856C468.13 262.709 467.526 261.599 468.004 265.313C468.317 265.196 468.048 263.635 468.211 262.193C468.326 262.499 468.207 262.208 468.635 263.06L468.834 262.692C468.849 263.927 470.971 267.905 470.446 262.553C471.371 262.491 471.792 265.976 473.25 265.301C473.305 265.331 473.273 265.362 473.449 265.391C473.487 264.825 473.461 263.887 473.515 263.064C473.726 263.458 474.458 264.655 474.35 263.176C474.951 267.741 478.617 278.302 475.778 282.877C475.284 284.928 474.232 278.535 473.004 282.402C472.951 282.365 472.995 282.377 472.86 282.287C472.636 282.284 473.002 282.583 472.08 283.696C468.855 282.254 459.316 265.973 460.944 282.151C460.744 286.764 452.379 273.602 445.934 268.634C443.922 268.537 446.166 261.528 445.033 256.573C443.522 256.407 441.418 255.347 438.377 255.743C437.689 256.537 437.582 253.392 436.924 255.37C436.805 256.137 435.301 254.599 435.165 256.545C432.516 250.783 423.129 259.732 419.684 257.042C416.6 259.826 413.81 249.979 412.326 256.796C411.831 259.368 408.888 260.5 405.471 262.954C401.994 265.795 406.265 273.164 397.422 277.36C393.012 277.973 389.048 282.694 385.399 289.303C384.183 290.317 375.013 300.214 378.208 301.333C381.773 311.394 368.447 323.145 369.877 333.747C369.585 336.08 372.608 334.803 372.467 337.198C372.625 341.105 376.284 343.235 375.442 348.078C374.74 353.193 378.874 358.01 381.857 363.297C383.39 364.447 381.875 369.654 386.995 368.031C395.796 363.438 396.976 373.329 407.744 367.559C408.367 368.43 410.932 366.412 412.512 366.762C422.544 366.257 411.094 378.102 423.692 375.919C423.585 376.388 422.965 379.52 424.527 378.271C423.336 384.098 416.487 389.089 414.747 395.588C409.92 413.685 404.576 424.539 388.439 439.847C377.333 450.376 365.067 468.862 346.738 477.002C346.985 477.065 346.738 477.002 347.486 476.854C347.193 476.897 347.31 477.251 346.499 477.769C346.91 477.819 346.906 477.834 347.029 477.826C347.158 477.796 347.44 477.734 348.396 477.561C348.381 477.612 348.411 477.565 348.238 477.694C348.687 477.754 348.718 477.699 349.007 477.615C349.291 477.546 349.825 477.446 351.327 477.413C351.406 477.765 351.139 477.799 352.195 477.556C352.224 477.682 352.045 477.518 352.072 477.935C352.388 477.898 352.132 477.951 353.487 477.643L353.56 477.899C360.411 476.799 378.536 469.617 384.532 465.638C384.528 465.652 384.575 465.57 384.442 465.615C391.548 462.457 396.867 459.804 404.965 452.679L404.954 452.716C424.7 443.274 438.004 424.178 452.121 405.906L452.122 405.961C454.169 403.408 460.658 393.226 460.475 393.219C468.128 383.352 488.003 339.187 483.803 288.936C481.138 257.056 470.662 226.867 450.705 199.139L450.734 199.178ZM466.424 257.994C466.462 258.004 466.522 258.019 466.578 258.018C466.53 258.045 466.514 258.017 466.424 257.994Z" fill="url(#paint2_radial_7403_104986)"/>
<path d="M421.957 168.079C422.328 168.428 422.683 168.781 423.054 169.13C423.422 169.463 423.759 169.763 424.103 170.066C423.599 169.524 423.242 169.297 423.2 169.215C422.321 168.339 422.133 168.203 421.957 168.079Z" fill="url(#paint3_linear_7403_104986)"/>
<path d="M420.822 167.013C420.766 166.983 420.669 166.926 420.516 166.807C420.67 166.95 420.51 166.83 420.98 167.26C420.557 166.921 420.368 166.642 419.096 165.776C419.441 166.079 420.039 166.63 421.491 167.749L421.499 167.719C421.724 167.928 421.827 167.994 421.935 168.069C421.556 167.718 421.204 167.357 420.817 167.004L420.822 167.013Z" fill="url(#paint4_linear_7403_104986)"/>
<g opacity="0.32">
<g clip-path="url(#clip1_7403_104986)">
<path d="M214.033 288.162L223.372 294.767C223.444 294.818 223.487 294.901 223.487 294.989V305.956C223.487 306.106 223.365 306.227 223.216 306.227H216.866C216.716 306.227 216.595 306.106 216.595 305.956V300.072H211.158V305.956C211.158 306.106 211.037 306.227 210.887 306.227H204.537C204.387 306.227 204.266 306.106 204.266 305.956V294.989C204.266 294.901 204.309 294.818 204.38 294.767L213.72 288.162C213.814 288.095 213.939 288.095 214.033 288.162Z" fill="#15C1E6"/>
<path d="M226.001 291.57L221.965 288.715V284.952C221.965 284.746 221.797 284.578 221.59 284.578H219.333C219.126 284.578 218.959 284.746 218.959 284.952V286.589L214.629 283.526C214.178 283.208 213.575 283.208 213.124 283.526L201.752 291.57C201.164 291.986 201.025 292.799 201.44 293.386C201.856 293.974 202.669 294.113 203.257 293.698L213.877 286.186L224.496 293.698C224.725 293.859 224.987 293.937 225.248 293.937C225.656 293.937 226.059 293.745 226.313 293.386C226.728 292.799 226.589 291.985 226.001 291.57V291.57Z" fill="#15C1E6"/>
</g>
</g>
<g opacity="0.5">
<g filter="url(#filter0_dd_7403_104986)">
<rect x="132.972" y="353.446" width="129.501" height="40.8425" rx="7.96927" fill="url(#paint5_linear_7403_104986)"/>
<rect x="132.334" y="352.807" width="130.778" height="42.1194" rx="8.60772" stroke="url(#paint6_linear_7403_104986)" stroke-width="1.27689"/>
</g>
<path fill-rule="evenodd" clip-rule="evenodd" d="M148.646 378.543C146.929 376.827 145.867 374.456 145.867 371.837C145.867 366.6 150.113 362.354 155.35 362.354C160.587 362.354 164.832 366.6 164.832 371.837C164.832 374.456 163.77 376.827 162.054 378.543L162.055 378.544L155.35 385.249L148.645 378.544L148.646 378.543Z" fill="#15C1E6"/>
<path d="M176.314 371.068H174.924V370.02H177.661V377.396H176.314V371.068ZM180.57 375.878C180.933 376.146 181.5 376.434 182.227 376.434C182.772 376.434 183.199 376.317 183.509 375.943C183.862 375.526 184.044 374.788 184.044 373.815C183.83 374.221 183.263 374.767 182.12 374.767C180.965 374.767 179.843 374.008 179.843 372.5C179.843 371.068 180.848 369.913 182.483 369.913C183.734 369.913 184.386 370.523 184.728 371.047C185.038 371.506 185.359 372.415 185.359 373.612C185.359 374.927 185.07 375.985 184.504 376.627C184.012 377.204 183.221 377.525 182.269 377.525C181.029 377.525 180.302 377.033 180.046 376.83L180.57 375.878ZM183.894 372.361C183.894 371.624 183.413 370.95 182.526 370.95C181.639 370.95 181.168 371.624 181.168 372.361C181.168 373.099 181.639 373.783 182.526 373.783C183.413 373.783 183.894 373.185 183.894 372.361ZM189.468 377.514C187.972 377.514 186.732 376.766 186.732 375.333C186.732 374.446 187.298 373.783 188.143 373.537V373.505C187.608 373.302 186.956 372.757 186.956 371.848C186.956 370.587 188.143 369.913 189.468 369.913C190.794 369.913 191.981 370.587 191.981 371.848C191.981 372.757 191.329 373.302 190.794 373.505V373.537C191.639 373.783 192.205 374.446 192.205 375.333C192.205 376.766 190.965 377.514 189.468 377.514ZM189.468 373.035C190.131 373.035 190.612 372.661 190.612 372.019C190.612 371.389 190.131 370.982 189.468 370.982C188.806 370.982 188.325 371.389 188.325 372.019C188.325 372.661 188.806 373.035 189.468 373.035ZM189.468 376.424C190.195 376.424 190.805 375.996 190.805 375.226C190.805 374.457 190.227 374.008 189.468 374.008C188.709 374.008 188.132 374.457 188.132 375.226C188.132 375.996 188.742 376.424 189.468 376.424ZM194.711 377.514C194.198 377.514 193.845 377.215 193.845 376.723C193.845 376.22 194.198 375.921 194.711 375.921C195.203 375.921 195.567 376.22 195.567 376.723C195.567 377.215 195.203 377.514 194.711 377.514ZM199.805 376.359C200.446 376.359 201.227 375.985 201.227 374.98C201.227 373.986 200.521 373.548 199.687 373.548C199.196 373.548 198.704 373.708 198.362 373.933L197.731 373.559L198.426 370.02H202.349L202.338 371.164H199.302L198.95 372.81C199.302 372.661 199.741 372.564 200.19 372.564C201.537 372.564 202.638 373.452 202.638 375.002C202.638 376.616 201.28 377.514 199.751 377.514C198.351 377.514 197.4 376.541 197.218 376.285L197.955 375.408C198.33 375.878 198.96 376.359 199.805 376.359ZM205.572 371.068H204.182V370.02H206.918V377.396H205.572V371.068ZM210.362 377.514C209.849 377.514 209.496 377.215 209.496 376.723C209.496 376.22 209.849 375.921 210.362 375.921C210.853 375.921 211.217 376.22 211.217 376.723C211.217 377.215 210.853 377.514 210.362 377.514ZM213.886 371.068H212.496V370.02H215.233V377.396H213.886V371.068ZM217.254 373.719C217.254 371.784 218.174 369.913 220.237 369.913C222.3 369.913 223.209 371.784 223.209 373.719C223.209 375.654 222.3 377.525 220.237 377.525C218.163 377.525 217.254 375.654 217.254 373.719ZM221.798 373.698C221.798 372.19 221.306 371.111 220.237 371.111C219.168 371.111 218.665 372.19 218.665 373.698C218.665 375.194 219.168 376.285 220.237 376.285C221.306 376.285 221.798 375.194 221.798 373.698ZM224.058 373.719C224.058 371.784 224.977 369.913 227.04 369.913C229.104 369.913 230.012 371.784 230.012 373.719C230.012 375.654 229.104 377.525 227.04 377.525C224.967 377.525 224.058 375.654 224.058 373.719ZM228.601 373.698C228.601 372.19 228.109 371.111 227.04 371.111C225.971 371.111 225.469 372.19 225.469 373.698C225.469 375.194 225.971 376.285 227.04 376.285C228.109 376.285 228.601 375.194 228.601 373.698ZM232.075 377.514C231.561 377.514 231.209 377.215 231.209 376.723C231.209 376.22 231.561 375.921 232.075 375.921C232.566 375.921 232.93 376.22 232.93 376.723C232.93 377.215 232.566 377.514 232.075 377.514ZM237.97 375.814H234.314V374.777L237.874 369.988H239.306V374.692H240.332V375.814H239.306V377.396H237.97V375.814ZM238.002 374.713V371.517L235.629 374.713H238.002ZM243.972 376.359C244.613 376.359 245.393 375.985 245.393 374.98C245.393 373.986 244.688 373.548 243.854 373.548C243.362 373.548 242.871 373.708 242.529 373.933L241.898 373.559L242.593 370.02H246.516L246.505 371.164H243.469L243.116 372.81C243.469 372.661 243.908 372.564 244.356 372.564C245.703 372.564 246.805 373.452 246.805 375.002C246.805 376.616 245.447 377.514 243.918 377.514C242.518 377.514 241.566 376.541 241.385 376.285L242.122 375.408C242.496 375.878 243.127 376.359 243.972 376.359Z" fill="white"/>
<g clip-path="url(#clip2_7403_104986)">
<path d="M198.128 414.305L214.083 425.59C214.205 425.676 214.279 425.818 214.279 425.968V444.704C214.279 444.96 214.071 445.167 213.815 445.167H202.968C202.712 445.167 202.504 444.96 202.504 444.704V434.653H193.217V444.704C193.217 444.96 193.01 445.167 192.754 445.167H181.906C181.65 445.167 181.442 444.96 181.442 444.704V425.968C181.442 425.818 181.515 425.677 181.638 425.59L197.593 414.305C197.753 414.191 197.967 414.191 198.128 414.305Z" fill="#15C1E6"/>
<path d="M218.574 420.128L211.678 415.25V408.822C211.678 408.469 211.392 408.183 211.039 408.183H207.182C206.829 408.183 206.543 408.469 206.543 408.822V411.618L199.146 406.386C198.376 405.842 197.345 405.842 196.575 406.386L177.147 420.128C176.143 420.838 175.905 422.227 176.615 423.231C177.326 424.235 178.715 424.472 179.718 423.763L197.861 410.93L216.003 423.763C216.394 424.039 216.842 424.171 217.287 424.171C217.985 424.171 218.672 423.844 219.106 423.231C219.816 422.227 219.578 420.837 218.574 420.128V420.128Z" fill="#15C1E6"/>
</g>
</g>
<g opacity="0.3">
<g filter="url(#filter1_dd_7403_104986)">
<rect x="411.681" y="309.519" width="75.2707" height="23.7392" rx="4.63204" fill="url(#paint7_linear_7403_104986)"/>
<rect x="411.186" y="309.024" width="76.2602" height="24.7288" rx="5.12683" stroke="url(#paint8_linear_7403_104986)" stroke-width="0.98957"/>
</g>
<path fill-rule="evenodd" clip-rule="evenodd" d="M420.791 324.106C419.794 323.109 419.176 321.73 419.176 320.208C419.176 317.164 421.644 314.697 424.688 314.697C427.732 314.697 430.199 317.164 430.199 320.208C430.199 321.73 429.582 323.108 428.585 324.106L428.585 324.107L424.688 328.004L420.791 324.107L420.791 324.106Z" fill="#15C1E6"/>
<path d="M434.581 322.504L436.142 321.061C436.501 320.728 436.827 320.355 436.827 319.911C436.827 319.461 436.54 319.173 436.031 319.173C435.463 319.173 435.143 319.533 434.927 319.774L434.535 319.258C434.679 319.049 435.143 318.475 436.096 318.475C437.056 318.475 437.676 319.004 437.676 319.8C437.676 320.571 437.069 321.139 436.788 321.407L435.783 322.347H437.866V323.046H434.692L434.581 322.504ZM438.502 320.799C438.502 319.617 439.064 318.475 440.324 318.475C441.584 318.475 442.139 319.617 442.139 320.799C442.139 321.981 441.584 323.124 440.324 323.124C439.057 323.124 438.502 321.981 438.502 320.799ZM441.277 320.786C441.277 319.866 440.977 319.206 440.324 319.206C439.671 319.206 439.364 319.866 439.364 320.786C439.364 321.701 439.671 322.367 440.324 322.367C440.977 322.367 441.277 321.701 441.277 320.786ZM445.231 320.708C445.597 320.793 446.08 321.1 446.08 321.746C446.08 322.608 445.329 323.118 444.408 323.118C443.553 323.118 442.971 322.523 442.86 322.367L443.311 321.831C443.54 322.118 443.925 322.412 444.441 322.412C444.957 322.412 445.237 322.19 445.237 321.714C445.237 321.243 444.806 321.028 444.343 321.028H444.042V320.408H444.408C444.826 320.408 445.113 320.186 445.113 319.774C445.113 319.415 444.833 319.173 444.375 319.173C443.971 319.173 443.651 319.343 443.435 319.611L443.011 319.134C443.22 318.88 443.735 318.475 444.447 318.475C445.283 318.475 445.936 318.912 445.936 319.663C445.936 320.205 445.525 320.584 445.231 320.688V320.708ZM447.683 323.118C447.369 323.118 447.154 322.935 447.154 322.634C447.154 322.327 447.369 322.145 447.683 322.145C447.983 322.145 448.205 322.327 448.205 322.634C448.205 322.935 447.983 323.118 447.683 323.118ZM448.929 320.799C448.929 319.617 449.491 318.475 450.751 318.475C452.012 318.475 452.567 319.617 452.567 320.799C452.567 321.981 452.012 323.124 450.751 323.124C449.484 323.124 448.929 321.981 448.929 320.799ZM451.705 320.786C451.705 319.866 451.404 319.206 450.751 319.206C450.098 319.206 449.791 319.866 449.791 320.786C449.791 321.701 450.098 322.367 450.751 322.367C451.404 322.367 451.705 321.701 451.705 320.786ZM453.826 323.118C453.513 323.118 453.297 322.935 453.297 322.634C453.297 322.327 453.513 322.145 453.826 322.145C454.127 322.145 454.349 322.327 454.349 322.634C454.349 322.935 454.127 323.118 453.826 323.118ZM455.979 319.18H455.13V318.54H456.802V323.046H455.979V319.18ZM459.14 319.18H458.291V318.54H459.963V323.046H459.14V319.18ZM463.771 320.708C464.136 320.793 464.62 321.1 464.62 321.746C464.62 322.608 463.869 323.118 462.948 323.118C462.092 323.118 461.511 322.523 461.4 322.367L461.851 321.831C462.079 322.118 462.465 322.412 462.981 322.412C463.496 322.412 463.777 322.19 463.777 321.714C463.777 321.243 463.346 321.028 462.883 321.028H462.582V320.408H462.948C463.366 320.408 463.653 320.186 463.653 319.774C463.653 319.415 463.372 319.173 462.915 319.173C462.51 319.173 462.19 319.343 461.975 319.611L461.55 319.134C461.759 318.88 462.275 318.475 462.987 318.475C463.823 318.475 464.476 318.912 464.476 319.663C464.476 320.205 464.065 320.584 463.771 320.688V320.708ZM466.222 323.118C465.909 323.118 465.693 322.935 465.693 322.634C465.693 322.327 465.909 322.145 466.222 322.145C466.523 322.145 466.745 322.327 466.745 322.634C466.745 322.935 466.523 323.118 466.222 323.118ZM470.121 319.245H467.666V318.54H470.807L471.036 319.036L468.946 323.046H468.097L470.121 319.245ZM473.158 322.412C473.55 322.412 474.027 322.184 474.027 321.57C474.027 320.963 473.596 320.695 473.086 320.695C472.786 320.695 472.486 320.793 472.277 320.93L471.891 320.701L472.316 318.54H474.712L474.706 319.239H472.851L472.636 320.244C472.851 320.153 473.119 320.094 473.393 320.094C474.216 320.094 474.889 320.636 474.889 321.583C474.889 322.569 474.059 323.118 473.125 323.118C472.27 323.118 471.689 322.523 471.578 322.367L472.028 321.831C472.257 322.118 472.642 322.412 473.158 322.412Z" fill="white"/>
<g clip-path="url(#clip3_7403_104986)">
<path d="M449.552 345.882L458.826 352.441C458.897 352.491 458.94 352.573 458.94 352.661V363.551C458.94 363.699 458.819 363.82 458.67 363.82H452.365C452.216 363.82 452.096 363.699 452.096 363.551V357.709H446.698V363.551C446.698 363.699 446.577 363.82 446.428 363.82H440.123C439.974 363.82 439.854 363.699 439.854 363.551V352.661C439.854 352.573 439.896 352.491 439.968 352.441L449.241 345.882C449.334 345.816 449.459 345.816 449.552 345.882Z" fill="#15C1E6"/>
<path d="M461.436 349.266L457.428 346.431V342.695C457.428 342.49 457.262 342.323 457.057 342.323H454.815C454.61 342.323 454.443 342.49 454.443 342.695V344.32L450.144 341.279C449.696 340.962 449.097 340.962 448.65 341.279L437.357 349.266C436.774 349.679 436.635 350.486 437.048 351.07C437.461 351.654 438.269 351.791 438.852 351.379L449.397 343.92L459.942 351.379C460.169 351.54 460.43 351.616 460.688 351.616C461.094 351.616 461.493 351.426 461.746 351.07C462.158 350.486 462.02 349.679 461.436 349.266V349.266Z" fill="#15C1E6"/>
</g>
</g>
<g opacity="0.3">
<g filter="url(#filter2_dd_7403_104986)">
<rect x="384.262" y="139.376" width="76.5046" height="24.1284" rx="4.70798" fill="url(#paint9_linear_7403_104986)"/>
<rect x="383.767" y="138.881" width="77.4942" height="25.1179" rx="5.20276" stroke="url(#paint10_linear_7403_104986)" stroke-width="0.98957"/>
</g>
<path fill-rule="evenodd" clip-rule="evenodd" d="M393.519 154.203C392.505 153.189 391.878 151.788 391.878 150.241C391.878 147.147 394.386 144.639 397.48 144.639C400.574 144.639 403.082 147.147 403.082 150.241C403.082 151.788 402.454 153.189 401.44 154.203L401.441 154.203L397.48 158.164L393.519 154.203L393.519 154.203Z" fill="#15C1E6"/>
<path d="M408.836 149.57H407.857V148.832H409.784V154.026H408.836V149.57ZM411.833 152.957C412.089 153.146 412.488 153.349 412.999 153.349C413.383 153.349 413.684 153.266 413.903 153.003C414.151 152.709 414.279 152.19 414.279 151.505C414.129 151.791 413.73 152.175 412.924 152.175C412.111 152.175 411.321 151.64 411.321 150.579C411.321 149.57 412.028 148.757 413.18 148.757C414.061 148.757 414.52 149.186 414.761 149.555C414.979 149.879 415.205 150.519 415.205 151.362C415.205 152.288 415.002 153.033 414.603 153.484C414.257 153.891 413.7 154.117 413.03 154.117C412.156 154.117 411.644 153.77 411.464 153.627L411.833 152.957ZM414.174 150.481C414.174 149.961 413.835 149.487 413.21 149.487C412.585 149.487 412.254 149.961 412.254 150.481C412.254 151 412.585 151.482 413.21 151.482C413.835 151.482 414.174 151.06 414.174 150.481ZM418.099 154.109C417.045 154.109 416.172 153.582 416.172 152.574C416.172 151.949 416.571 151.482 417.166 151.309V151.286C416.789 151.143 416.33 150.759 416.33 150.12C416.33 149.231 417.166 148.757 418.099 148.757C419.033 148.757 419.868 149.231 419.868 150.12C419.868 150.759 419.409 151.143 419.033 151.286V151.309C419.627 151.482 420.026 151.949 420.026 152.574C420.026 153.582 419.153 154.109 418.099 154.109ZM418.099 150.955C418.566 150.955 418.905 150.692 418.905 150.24C418.905 149.796 418.566 149.51 418.099 149.51C417.632 149.51 417.294 149.796 417.294 150.24C417.294 150.692 417.632 150.955 418.099 150.955ZM418.099 153.341C418.611 153.341 419.04 153.04 419.04 152.498C419.04 151.956 418.634 151.64 418.099 151.64C417.565 151.64 417.158 151.956 417.158 152.498C417.158 153.04 417.587 153.341 418.099 153.341ZM421.791 154.109C421.43 154.109 421.181 153.898 421.181 153.552C421.181 153.198 421.43 152.988 421.791 152.988C422.137 152.988 422.393 153.198 422.393 153.552C422.393 153.898 422.137 154.109 421.791 154.109ZM425.378 153.296C425.829 153.296 426.379 153.033 426.379 152.325C426.379 151.625 425.882 151.316 425.295 151.316C424.949 151.316 424.602 151.429 424.362 151.587L423.917 151.324L424.407 148.832H427.169L427.162 149.638H425.024L424.776 150.797C425.024 150.692 425.333 150.624 425.649 150.624C426.597 150.624 427.373 151.249 427.373 152.34C427.373 153.477 426.417 154.109 425.34 154.109C424.354 154.109 423.684 153.424 423.556 153.244L424.076 152.626C424.339 152.957 424.783 153.296 425.378 153.296ZM429.439 149.57H428.46V148.832H430.387V154.026H429.439V149.57ZM432.812 154.109C432.45 154.109 432.202 153.898 432.202 153.552C432.202 153.198 432.45 152.988 432.812 152.988C433.158 152.988 433.414 153.198 433.414 153.552C433.414 153.898 433.158 154.109 432.812 154.109ZM435.293 149.57H434.315V148.832H436.242V154.026H435.293V149.57ZM437.665 151.437C437.665 150.074 438.313 148.757 439.766 148.757C441.219 148.757 441.858 150.074 441.858 151.437C441.858 152.799 441.219 154.117 439.766 154.117C438.305 154.117 437.665 152.799 437.665 151.437ZM440.865 151.422C440.865 150.36 440.519 149.6 439.766 149.6C439.013 149.6 438.659 150.36 438.659 151.422C438.659 152.476 439.013 153.244 439.766 153.244C440.519 153.244 440.865 152.476 440.865 151.422ZM442.456 151.437C442.456 150.074 443.104 148.757 444.557 148.757C446.01 148.757 446.649 150.074 446.649 151.437C446.649 152.799 446.01 154.117 444.557 154.117C443.096 154.117 442.456 152.799 442.456 151.437ZM445.656 151.422C445.656 150.36 445.309 149.6 444.557 149.6C443.804 149.6 443.45 150.36 443.45 151.422C443.45 152.476 443.804 153.244 444.557 153.244C445.309 153.244 445.656 152.476 445.656 151.422ZM448.102 154.109C447.74 154.109 447.492 153.898 447.492 153.552C447.492 153.198 447.74 152.988 448.102 152.988C448.448 152.988 448.704 153.198 448.704 153.552C448.704 153.898 448.448 154.109 448.102 154.109ZM451.688 153.296C452.14 153.296 452.69 153.033 452.69 152.325C452.69 151.625 452.193 151.316 451.606 151.316C451.259 151.316 450.913 151.429 450.672 151.587L450.228 151.324L450.717 148.832H453.48L453.473 149.638H451.335L451.086 150.797C451.335 150.692 451.643 150.624 451.959 150.624C452.908 150.624 453.683 151.249 453.683 152.34C453.683 153.477 452.727 154.109 451.651 154.109C450.665 154.109 449.995 153.424 449.867 153.244L450.386 152.626C450.65 152.957 451.094 153.296 451.688 153.296Z" fill="white"/>
<g clip-path="url(#clip4_7403_104986)">
<path d="M422.753 176.307L432.179 182.974C432.251 183.025 432.295 183.108 432.295 183.197V194.265C432.295 194.417 432.172 194.539 432.021 194.539H425.613C425.461 194.539 425.339 194.417 425.339 194.265V188.328H419.852V194.265C419.852 194.417 419.73 194.539 419.578 194.539H413.17C413.019 194.539 412.896 194.417 412.896 194.265V183.197C412.896 183.108 412.939 183.025 413.012 182.974L422.437 176.307C422.532 176.24 422.659 176.24 422.753 176.307Z" fill="#15C1E6"/>
<path d="M434.832 179.747L430.759 176.865V173.068C430.759 172.859 430.589 172.69 430.381 172.69H428.102C427.894 172.69 427.725 172.859 427.725 173.068V174.72L423.355 171.629C422.9 171.307 422.291 171.307 421.836 171.629L410.359 179.747C409.765 180.166 409.625 180.987 410.044 181.58C410.464 182.174 411.285 182.313 411.877 181.894L422.596 174.313L433.314 181.894C433.544 182.057 433.809 182.136 434.072 182.136C434.484 182.136 434.89 181.942 435.147 181.58C435.566 180.987 435.426 180.166 434.832 179.747V179.747Z" fill="#15C1E6"/>
</g>
</g>
<g opacity="0.7">
<g filter="url(#filter3_dd_7403_104986)">
<rect x="98.1118" y="159.062" width="109.142" height="34.4216" rx="6.71641" fill="url(#paint11_linear_7403_104986)"/>
<rect x="97.3763" y="158.326" width="110.613" height="35.8927" rx="7.45193" stroke="url(#paint12_linear_7403_104986)" stroke-width="1.47104"/>
</g>
<path fill-rule="evenodd" clip-rule="evenodd" d="M111.321 180.213C109.874 178.767 108.979 176.768 108.979 174.561C108.979 170.147 112.557 166.569 116.97 166.569C121.384 166.569 124.962 170.147 124.962 174.561C124.962 176.768 124.067 178.767 122.621 180.213L122.622 180.214L116.971 185.865L111.32 180.214L111.321 180.213Z" fill="#15C1E6"/>
<path d="M139.745 173.486H138.32V172.412H141.126V179.975H139.745V173.486ZM144.109 178.419C144.481 178.693 145.062 178.989 145.808 178.989C146.367 178.989 146.805 178.868 147.123 178.485C147.485 178.057 147.671 177.301 147.671 176.303C147.452 176.72 146.871 177.279 145.698 177.279C144.514 177.279 143.363 176.501 143.363 174.955C143.363 173.486 144.394 172.302 146.071 172.302C147.353 172.302 148.022 172.927 148.373 173.464C148.691 173.935 149.02 174.867 149.02 176.095C149.02 177.443 148.724 178.528 148.143 179.186C147.638 179.778 146.827 180.107 145.852 180.107C144.58 180.107 143.835 179.603 143.572 179.394L144.109 178.419ZM147.518 174.812C147.518 174.056 147.025 173.365 146.115 173.365C145.205 173.365 144.723 174.056 144.723 174.812C144.723 175.569 145.205 176.27 146.115 176.27C147.025 176.27 147.518 175.656 147.518 174.812ZM150.463 179.066L153.083 176.643C153.686 176.084 154.234 175.459 154.234 174.714C154.234 173.957 153.752 173.475 152.897 173.475C151.943 173.475 151.406 174.078 151.044 174.484L150.386 173.618C150.628 173.267 151.406 172.302 153.006 172.302C154.618 172.302 155.659 173.19 155.659 174.527C155.659 175.821 154.64 176.775 154.168 177.224L152.48 178.803H155.977V179.975H150.649L150.463 179.066ZM158.503 180.096C157.977 180.096 157.615 179.789 157.615 179.285C157.615 178.77 157.977 178.463 158.503 178.463C159.007 178.463 159.38 178.77 159.38 179.285C159.38 179.789 159.007 180.096 158.503 180.096ZM160.596 176.205C160.596 174.22 161.539 172.302 163.655 172.302C165.77 172.302 166.702 174.22 166.702 176.205C166.702 178.189 165.77 180.107 163.655 180.107C161.528 180.107 160.596 178.189 160.596 176.205ZM165.255 176.183C165.255 174.637 164.751 173.53 163.655 173.53C162.558 173.53 162.043 174.637 162.043 176.183C162.043 177.717 162.558 178.835 163.655 178.835C164.751 178.835 165.255 177.717 165.255 176.183ZM168.817 180.096C168.291 180.096 167.929 179.789 167.929 179.285C167.929 178.77 168.291 178.463 168.817 178.463C169.321 178.463 169.694 178.77 169.694 179.285C169.694 179.789 169.321 180.096 168.817 180.096ZM171.519 179.066L174.138 176.643C174.741 176.084 175.289 175.459 175.289 174.714C175.289 173.957 174.807 173.475 173.952 173.475C172.998 173.475 172.461 174.078 172.1 174.484L171.442 173.618C171.683 173.267 172.461 172.302 174.062 172.302C175.673 172.302 176.715 173.19 176.715 174.527C176.715 175.821 175.695 176.775 175.224 177.224L173.536 178.803H177.032V179.975H171.705L171.519 179.066ZM179.559 180.096C179.032 180.096 178.671 179.789 178.671 179.285C178.671 178.77 179.032 178.463 179.559 178.463C180.063 178.463 180.436 178.77 180.436 179.285C180.436 179.789 180.063 180.096 179.559 180.096ZM182.26 179.066L184.88 176.643C185.483 176.084 186.031 175.459 186.031 174.714C186.031 173.957 185.549 173.475 184.694 173.475C183.74 173.475 183.203 174.078 182.841 174.484L182.184 173.618C182.425 173.267 183.203 172.302 184.804 172.302C186.415 172.302 187.456 173.19 187.456 174.527C187.456 175.821 186.437 176.775 185.966 177.224L184.277 178.803H187.774V179.975H182.447L182.26 179.066ZM191.758 178.912C192.416 178.912 193.216 178.528 193.216 177.498C193.216 176.479 192.493 176.029 191.638 176.029C191.134 176.029 190.629 176.194 190.278 176.424L189.632 176.04L190.344 172.412H194.367L194.356 173.585H191.243L190.881 175.273C191.243 175.119 191.693 175.021 192.153 175.021C193.534 175.021 194.663 175.931 194.663 177.52C194.663 179.175 193.271 180.096 191.704 180.096C190.268 180.096 189.292 179.099 189.106 178.835L189.862 177.937C190.246 178.419 190.892 178.912 191.758 178.912Z" fill="white"/>
<g clip-path="url(#clip5_7403_104986)">
<path d="M153.024 210.394L166.471 219.905C166.574 219.978 166.636 220.097 166.636 220.224V236.014C166.636 236.23 166.461 236.404 166.245 236.404H157.103C156.887 236.404 156.713 236.23 156.713 236.014V227.543H148.885V236.014C148.885 236.23 148.711 236.404 148.495 236.404H139.352C139.137 236.404 138.962 236.23 138.962 236.014V220.224C138.962 220.097 139.023 219.978 139.127 219.905L152.573 210.394C152.708 210.298 152.889 210.298 153.024 210.394Z" fill="#15C1E6"/>
<path d="M170.256 215.302L164.444 211.191V205.774C164.444 205.476 164.203 205.235 163.905 205.235H160.655C160.358 205.235 160.116 205.476 160.116 205.774V208.13L153.882 203.72C153.233 203.261 152.364 203.261 151.716 203.72L135.342 215.302C134.496 215.9 134.295 217.071 134.893 217.917C135.492 218.764 136.663 218.963 137.508 218.365L152.799 207.55L168.089 218.365C168.418 218.598 168.796 218.709 169.171 218.709C169.76 218.709 170.339 218.434 170.704 217.917C171.303 217.071 171.102 215.9 170.256 215.301V215.302Z" fill="#15C1E6"/>
</g>
</g>
<g filter="url(#filter4_dd_7403_104986)">
<rect x="187.623" y="191.412" width="248.65" height="78.4205" rx="15.3016" fill="url(#paint13_linear_7403_104986)"/>
<rect x="186.148" y="189.936" width="251.601" height="81.3713" rx="16.777" stroke="url(#paint14_linear_7403_104986)" stroke-width="2.95088"/>
</g>
<path fill-rule="evenodd" clip-rule="evenodd" d="M217.716 239.6C214.42 236.305 212.381 231.752 212.381 226.723C212.381 216.668 220.533 208.516 230.588 208.516C240.643 208.516 248.795 216.668 248.795 226.723C248.795 231.752 246.756 236.304 243.46 239.599L243.463 239.602L230.588 252.476L217.714 239.602L217.716 239.6Z" fill="#15C1E6"/>
<path d="M268.85 236.214L274.792 230.718C276.16 229.45 277.403 228.033 277.403 226.342C277.403 224.627 276.309 223.533 274.37 223.533C272.206 223.533 270.988 224.9 270.167 225.82L268.676 223.856C269.223 223.06 270.988 220.872 274.618 220.872C278.273 220.872 280.636 222.886 280.636 225.92C280.636 228.854 278.323 231.017 277.254 232.036L273.425 235.617H281.357V238.277H269.272L268.85 236.214ZM283.78 229.724C283.78 225.223 285.918 220.872 290.717 220.872C295.516 220.872 297.629 225.223 297.629 229.724C297.629 234.224 295.516 238.576 290.717 238.576C285.893 238.576 283.78 234.224 283.78 229.724ZM294.347 229.674C294.347 226.168 293.204 223.657 290.717 223.657C288.23 223.657 287.062 226.168 287.062 229.674C287.062 233.155 288.23 235.692 290.717 235.692C293.204 235.692 294.347 233.155 294.347 229.674ZM309.402 229.376C310.794 229.699 312.634 230.868 312.634 233.329C312.634 236.612 309.775 238.551 306.269 238.551C303.011 238.551 300.798 236.288 300.376 235.692L302.091 233.653C302.962 234.747 304.429 235.866 306.393 235.866C308.357 235.866 309.427 235.02 309.427 233.205C309.427 231.415 307.785 230.594 306.02 230.594H304.876V228.232H306.269C307.86 228.232 308.954 227.387 308.954 225.82C308.954 224.453 307.885 223.533 306.144 223.533C304.603 223.533 303.384 224.179 302.564 225.198L300.948 223.383C301.743 222.414 303.708 220.872 306.418 220.872C309.601 220.872 312.087 222.538 312.087 225.397C312.087 227.461 310.521 228.903 309.402 229.301V229.376ZM318.737 238.551C317.544 238.551 316.723 237.855 316.723 236.711C316.723 235.542 317.544 234.846 318.737 234.846C319.881 234.846 320.726 235.542 320.726 236.711C320.726 237.855 319.881 238.551 318.737 238.551ZM323.485 229.724C323.485 225.223 325.623 220.872 330.422 220.872C335.221 220.872 337.335 225.223 337.335 229.724C337.335 234.224 335.221 238.576 330.422 238.576C325.599 238.576 323.485 234.224 323.485 229.724ZM334.053 229.674C334.053 226.168 332.909 223.657 330.422 223.657C327.936 223.657 326.767 226.168 326.767 229.674C326.767 233.155 327.936 235.692 330.422 235.692C332.909 235.692 334.053 233.155 334.053 229.674ZM342.132 238.551C340.938 238.551 340.118 237.855 340.118 236.711C340.118 235.542 340.938 234.846 342.132 234.846C343.275 234.846 344.121 235.542 344.121 236.711C344.121 237.855 343.275 238.551 342.132 238.551ZM350.329 223.557H347.096V221.121H353.462V238.277H350.329V223.557ZM362.366 223.557H359.134V221.121H365.499V238.277H362.366V223.557ZM379.998 229.376C381.39 229.699 383.23 230.868 383.23 233.329C383.23 236.612 380.371 238.551 376.865 238.551C373.608 238.551 371.395 236.288 370.972 235.692L372.688 233.653C373.558 234.747 375.025 235.866 376.989 235.866C378.954 235.866 380.023 235.02 380.023 233.205C380.023 231.415 378.382 230.594 376.616 230.594H375.473V228.232H376.865C378.456 228.232 379.55 227.387 379.55 225.82C379.55 224.453 378.481 223.533 376.741 223.533C375.199 223.533 373.981 224.179 373.16 225.198L371.544 223.383C372.34 222.414 374.304 220.872 377.014 220.872C380.197 220.872 382.683 222.538 382.683 225.397C382.683 227.461 381.117 228.903 379.998 229.301V229.376ZM389.333 238.551C388.14 238.551 387.319 237.855 387.319 236.711C387.319 235.542 388.14 234.846 389.333 234.846C390.477 234.846 391.323 235.542 391.323 236.711C391.323 237.855 390.477 238.551 389.333 238.551ZM397.531 223.557H394.298V221.121H400.664V238.277H397.531V223.557ZM405.366 229.724C405.366 225.223 407.504 220.872 412.303 220.872C417.102 220.872 419.216 225.223 419.216 229.724C419.216 234.224 417.102 238.576 412.303 238.576C407.479 238.576 405.366 234.224 405.366 229.724ZM415.933 229.674C415.933 226.168 414.79 223.657 412.303 223.657C409.817 223.657 408.648 226.168 408.648 229.674C408.648 233.155 409.817 235.692 412.303 235.692C414.79 235.692 415.933 233.155 415.933 229.674Z" fill="white"/>
<g clip-path="url(#clip6_7403_104986)">
<path d="M313.271 317.682L365.363 354.527C365.764 354.811 366.004 355.271 366.004 355.762V416.934C366.004 417.77 365.326 418.447 364.491 418.447H329.073C328.238 418.447 327.56 417.77 327.56 416.934V384.119H297.238V416.934C297.238 417.77 296.561 418.447 295.725 418.447H260.306C259.47 418.447 258.793 417.77 258.793 416.934V355.763C258.793 355.272 259.031 354.811 259.432 354.528L311.524 317.682C312.048 317.312 312.748 317.312 313.271 317.682Z" fill="#15C1E6"/>
<path d="M380.029 336.694L357.514 320.769V299.782C357.514 298.629 356.579 297.695 355.426 297.695H342.834C341.682 297.695 340.748 298.629 340.748 299.782V308.91L316.596 291.828C314.083 290.049 310.716 290.049 308.203 291.828L244.769 336.694C241.491 339.012 240.715 343.548 243.032 346.825C245.353 350.106 249.888 350.877 253.163 348.562L312.4 306.664L371.635 348.562C372.91 349.464 374.373 349.896 375.827 349.896C378.106 349.896 380.349 348.827 381.766 346.825C384.084 343.548 383.307 339.011 380.029 336.693V336.694Z" fill="#15C1E6"/>
</g>
</g>
<defs>
<filter id="filter0_dd_7403_104986" x="126.317" y="346.79" width="148.96" height="60.3018" filterUnits="userSpaceOnUse" color-interpolation-filters="sRGB">
<feFlood flood-opacity="0" result="BackgroundImageFix"/>
<feColorMatrix in="SourceAlpha" type="matrix" values="0 0 0 0 0 0 0 0 0 0 0 0 0 0 0 0 0 0 127 0" result="hardAlpha"/>
<feOffset dx="3.84216" dy="3.84216"/>
<feGaussianBlur stdDeviation="3.84216"/>
<feColorMatrix type="matrix" values="0 0 0 0 0 0 0 0 0 0.296699 0 0 0 0 0.858629 0 0 0 0.08 0"/>
<feBlend mode="normal" in2="BackgroundImageFix" result="effect1_dropShadow_7403_104986"/>
<feColorMatrix in="SourceAlpha" type="matrix" values="0 0 0 0 0 0 0 0 0 0 0 0 0 0 0 0 0 0 127 0" result="hardAlpha"/>
<feOffset/>
<feGaussianBlur stdDeviation="2.68951"/>
<feComposite in2="hardAlpha" operator="out"/>
<feColorMatrix type="matrix" values="0 0 0 0 0.0354167 0 0 0 0 0.105426 0 0 0 0 0.2125 0 0 0 0.07 0"/>
<feBlend mode="normal" in2="effect1_dropShadow_7403_104986" result="effect2_dropShadow_7403_104986"/>
<feBlend mode="normal" in="SourceGraphic" in2="effect2_dropShadow_7403_104986" result="shape"/>
</filter>
<filter id="filter1_dd_7403_104986" x="407.565" y="305.403" width="87.076" height="35.5445" filterUnits="userSpaceOnUse" color-interpolation-filters="sRGB">
<feFlood flood-opacity="0" result="BackgroundImageFix"/>
<feColorMatrix in="SourceAlpha" type="matrix" values="0 0 0 0 0 0 0 0 0 0 0 0 0 0 0 0 0 0 127 0" result="hardAlpha"/>
<feOffset dx="2.23321" dy="2.23321"/>
<feGaussianBlur stdDeviation="2.23321"/>
<feColorMatrix type="matrix" values="0 0 0 0 0 0 0 0 0 0.296699 0 0 0 0 0.858629 0 0 0 0.08 0"/>
<feBlend mode="normal" in2="BackgroundImageFix" result="effect1_dropShadow_7403_104986"/>
<feColorMatrix in="SourceAlpha" type="matrix" values="0 0 0 0 0 0 0 0 0 0 0 0 0 0 0 0 0 0 127 0" result="hardAlpha"/>
<feOffset/>
<feGaussianBlur stdDeviation="1.56324"/>
<feComposite in2="hardAlpha" operator="out"/>
<feColorMatrix type="matrix" values="0 0 0 0 0.0354167 0 0 0 0 0.105426 0 0 0 0 0.2125 0 0 0 0.07 0"/>
<feBlend mode="normal" in2="effect1_dropShadow_7403_104986" result="effect2_dropShadow_7403_104986"/>
<feBlend mode="normal" in="SourceGraphic" in2="effect2_dropShadow_7403_104986" result="shape"/>
</filter>
<filter id="filter2_dd_7403_104986" x="380.094" y="135.208" width="88.4709" height="36.0947" filterUnits="userSpaceOnUse" color-interpolation-filters="sRGB">
<feFlood flood-opacity="0" result="BackgroundImageFix"/>
<feColorMatrix in="SourceAlpha" type="matrix" values="0 0 0 0 0 0 0 0 0 0 0 0 0 0 0 0 0 0 127 0" result="hardAlpha"/>
<feOffset dx="2.26981" dy="2.26981"/>
<feGaussianBlur stdDeviation="2.26981"/>
<feColorMatrix type="matrix" values="0 0 0 0 0 0 0 0 0 0.296699 0 0 0 0 0.858629 0 0 0 0.08 0"/>
<feBlend mode="normal" in2="BackgroundImageFix" result="effect1_dropShadow_7403_104986"/>
<feColorMatrix in="SourceAlpha" type="matrix" values="0 0 0 0 0 0 0 0 0 0 0 0 0 0 0 0 0 0 127 0" result="hardAlpha"/>
<feOffset/>
<feGaussianBlur stdDeviation="1.58887"/>
<feComposite in2="hardAlpha" operator="out"/>
<feColorMatrix type="matrix" values="0 0 0 0 0.0354167 0 0 0 0 0.105426 0 0 0 0 0.2125 0 0 0 0.07 0"/>
<feBlend mode="normal" in2="effect1_dropShadow_7403_104986" result="effect2_dropShadow_7403_104986"/>
<feBlend mode="normal" in="SourceGraphic" in2="effect2_dropShadow_7403_104986" result="shape"/>
</filter>
<filter id="filter3_dd_7403_104986" x="92.1074" y="153.057" width="126.331" height="51.6115" filterUnits="userSpaceOnUse" color-interpolation-filters="sRGB">
<feFlood flood-opacity="0" result="BackgroundImageFix"/>
<feColorMatrix in="SourceAlpha" type="matrix" values="0 0 0 0 0 0 0 0 0 0 0 0 0 0 0 0 0 0 127 0" result="hardAlpha"/>
<feOffset dx="3.23812" dy="3.23812"/>
<feGaussianBlur stdDeviation="3.23812"/>
<feColorMatrix type="matrix" values="0 0 0 0 0 0 0 0 0 0.296699 0 0 0 0 0.858629 0 0 0 0.08 0"/>
<feBlend mode="normal" in2="BackgroundImageFix" result="effect1_dropShadow_7403_104986"/>
<feColorMatrix in="SourceAlpha" type="matrix" values="0 0 0 0 0 0 0 0 0 0 0 0 0 0 0 0 0 0 127 0" result="hardAlpha"/>
<feOffset/>
<feGaussianBlur stdDeviation="2.26669"/>
<feComposite in2="hardAlpha" operator="out"/>
<feColorMatrix type="matrix" values="0 0 0 0 0.0354167 0 0 0 0 0.105426 0 0 0 0 0.2125 0 0 0 0.07 0"/>
<feBlend mode="normal" in2="effect1_dropShadow_7403_104986" result="effect2_dropShadow_7403_104986"/>
<feBlend mode="normal" in="SourceGraphic" in2="effect2_dropShadow_7403_104986" result="shape"/>
</filter>
<filter id="filter4_dd_7403_104986" x="174.344" y="178.133" width="287.012" height="116.782" filterUnits="userSpaceOnUse" color-interpolation-filters="sRGB">
<feFlood flood-opacity="0" result="BackgroundImageFix"/>
<feColorMatrix in="SourceAlpha" type="matrix" values="0 0 0 0 0 0 0 0 0 0 0 0 0 0 0 0 0 0 127 0" result="hardAlpha"/>
<feOffset dx="7.3772" dy="7.3772"/>
<feGaussianBlur stdDeviation="7.3772"/>
<feColorMatrix type="matrix" values="0 0 0 0 0 0 0 0 0 0.296699 0 0 0 0 0.858629 0 0 0 0.08 0"/>
<feBlend mode="normal" in2="BackgroundImageFix" result="effect1_dropShadow_7403_104986"/>
<feColorMatrix in="SourceAlpha" type="matrix" values="0 0 0 0 0 0 0 0 0 0 0 0 0 0 0 0 0 0 127 0" result="hardAlpha"/>
<feOffset/>
<feGaussianBlur stdDeviation="5.16404"/>
<feComposite in2="hardAlpha" operator="out"/>
<feColorMatrix type="matrix" values="0 0 0 0 0.0354167 0 0 0 0 0.105426 0 0 0 0 0.2125 0 0 0 0.07 0"/>
<feBlend mode="normal" in2="effect1_dropShadow_7403_104986" result="effect2_dropShadow_7403_104986"/>
<feBlend mode="normal" in="SourceGraphic" in2="effect2_dropShadow_7403_104986" result="shape"/>
</filter>
<radialGradient id="paint0_radial_7403_104986" cx="0" cy="0" r="1" gradientUnits="userSpaceOnUse" gradientTransform="translate(77.084 198.44) rotate(8.17489) scale(320.838 362.981)">
<stop stop-color="#15C1E6"/>
<stop offset="0.869792" stop-color="#15C1E6" stop-opacity="0"/>
</radialGradient>
<linearGradient id="paint1_linear_7403_104986" x1="420.865" y1="167.016" x2="420.858" y2="167.035" gradientUnits="userSpaceOnUse">
<stop stop-color="#15C1E6"/>
<stop offset="1" stop-color="#15C1E6" stop-opacity="0"/>
</linearGradient>
<radialGradient id="paint2_radial_7403_104986" cx="0" cy="0" r="1" gradientUnits="userSpaceOnUse" gradientTransform="translate(570.83 246.381) rotate(148.448) scale(248.956 186.905)">
<stop stop-color="#15C1E6"/>
<stop offset="1" stop-color="#15C1E6" stop-opacity="0"/>
</radialGradient>
<linearGradient id="paint3_linear_7403_104986" x1="423.87" y1="168.774" x2="423.33" y2="169.964" gradientUnits="userSpaceOnUse">
<stop stop-color="#15C1E6"/>
<stop offset="1" stop-color="#15C1E6" stop-opacity="0"/>
</linearGradient>
<linearGradient id="paint4_linear_7403_104986" x1="421.571" y1="166.633" x2="421.015" y2="167.951" gradientUnits="userSpaceOnUse">
<stop stop-color="#15C1E6"/>
<stop offset="1" stop-color="#15C1E6" stop-opacity="0"/>
</linearGradient>
<linearGradient id="paint5_linear_7403_104986" x1="270.131" y1="336.117" x2="246.054" y2="425.988" gradientUnits="userSpaceOnUse">
<stop stop-color="#0A479C"/>
<stop offset="1" stop-color="#091B36"/>
</linearGradient>
<linearGradient id="paint6_linear_7403_104986" x1="147.432" y1="392.066" x2="178.356" y2="318.527" gradientUnits="userSpaceOnUse">
<stop stop-color="#1B4582"/>
<stop offset="1" stop-color="#3160A6"/>
</linearGradient>
<linearGradient id="paint7_linear_7403_104986" x1="491.403" y1="299.447" x2="477.408" y2="351.683" gradientUnits="userSpaceOnUse">
<stop stop-color="#0A479C"/>
<stop offset="1" stop-color="#091B36"/>
</linearGradient>
<linearGradient id="paint8_linear_7403_104986" x1="420.086" y1="331.966" x2="438.06" y2="289.222" gradientUnits="userSpaceOnUse">
<stop stop-color="#1B4582"/>
<stop offset="1" stop-color="#3160A6"/>
</linearGradient>
<linearGradient id="paint9_linear_7403_104986" x1="465.29" y1="129.139" x2="451.066" y2="182.231" gradientUnits="userSpaceOnUse">
<stop stop-color="#0A479C"/>
<stop offset="1" stop-color="#091B36"/>
</linearGradient>
<linearGradient id="paint10_linear_7403_104986" x1="392.804" y1="162.191" x2="411.073" y2="118.747" gradientUnits="userSpaceOnUse">
<stop stop-color="#1B4582"/>
<stop offset="1" stop-color="#3160A6"/>
</linearGradient>
<linearGradient id="paint11_linear_7403_104986" x1="213.708" y1="144.457" x2="193.415" y2="220.199" gradientUnits="userSpaceOnUse">
<stop stop-color="#0A479C"/>
<stop offset="1" stop-color="#091B36"/>
</linearGradient>
<linearGradient id="paint12_linear_7403_104986" x1="110.298" y1="191.61" x2="136.36" y2="129.632" gradientUnits="userSpaceOnUse">
<stop stop-color="#1B4582"/>
<stop offset="1" stop-color="#3160A6"/>
</linearGradient>
<linearGradient id="paint13_linear_7403_104986" x1="450.978" y1="158.14" x2="404.747" y2="330.697" gradientUnits="userSpaceOnUse">
<stop stop-color="#0A479C"/>
<stop offset="1" stop-color="#091B36"/>
</linearGradient>
<linearGradient id="paint14_linear_7403_104986" x1="215.386" y1="265.564" x2="274.763" y2="124.365" gradientUnits="userSpaceOnUse">
<stop stop-color="#1B4582"/>
<stop offset="1" stop-color="#3160A6"/>
</linearGradient>
<clipPath id="clip0_7403_104986">
<rect width="508.759" height="380.423" fill="white" transform="translate(40 98.5977)"/>
</clipPath>
<clipPath id="clip1_7403_104986">
<rect width="25.3511" height="22.94" fill="white" transform="translate(201.201 283.287)"/>
</clipPath>
<clipPath id="clip2_7403_104986">
<rect width="43.309" height="39.19" fill="white" transform="translate(176.207 405.977)"/>
</clipPath>
<clipPath id="clip3_7403_104986">
<rect width="25.1728" height="22.7787" fill="white" transform="translate(436.811 341.041)"/>
</clipPath>
<clipPath id="clip4_7403_104986">
<rect width="25.5855" height="23.1521" fill="white" transform="translate(409.803 171.387)"/>
</clipPath>
<clipPath id="clip5_7403_104986">
<rect width="36.5003" height="33.0289" fill="white" transform="translate(134.549 203.376)"/>
</clipPath>
<clipPath id="clip6_7403_104986">
<rect width="141.404" height="127.955" fill="white" transform="translate(241.699 290.493)"/>
</clipPath>
</defs>
</svg>
