<svg width="589" height="576" viewBox="0 0 589 576" fill="none" xmlns="http://www.w3.org/2000/svg">
<g clip-path="url(#clip0_14221_4253)">
<g opacity="0.75">
<ellipse cx="295.698" cy="277.529" rx="331.573" ry="121.603" fill="url(#paint0_radial_14221_4253)"/>
<mask id="mask0_14221_4253" style="mask-type:alpha" maskUnits="userSpaceOnUse" x="7" y="159" width="578" height="246">
<rect x="7" y="159.018" width="577.098" height="245.782" rx="5.15266" fill="#D9D9D9"/>
</mask>
<g mask="url(#mask0_14221_4253)">
<mask id="mask1_14221_4253" style="mask-type:alpha" maskUnits="userSpaceOnUse" x="-37" y="173" width="663" height="240">
<path d="M625.842 173.595H-36.7344V412.969H625.842V173.595Z" fill="url(#paint1_linear_14221_4253)"/>
</mask>
<g mask="url(#mask1_14221_4253)">
<g filter="url(#filter0_d_14221_4253)">
<path d="M294.546 580.009C450.866 580.009 577.589 453.471 577.589 297.379C577.589 141.287 450.866 14.75 294.546 14.75C138.226 14.75 11.5039 141.287 11.5039 297.379C11.5039 453.471 138.226 580.009 294.546 580.009Z" stroke="url(#paint2_linear_14221_4253)"/>
</g>
<g filter="url(#filter1_d_14221_4253)">
<path d="M294.546 520.74C418.084 520.74 518.232 420.738 518.232 297.38C518.232 174.021 418.084 74.0195 294.546 74.0195C171.007 74.0195 70.8594 174.021 70.8594 297.38C70.8594 420.738 171.007 520.74 294.546 520.74Z" stroke="url(#paint3_linear_14221_4253)" stroke-width="2"/>
</g>
</g>
</g>
</g>
<path d="M288.942 368.667C284.447 363.102 280.167 358.086 270.86 356.039C269.329 354.358 269.547 357.811 269.29 354.291C269.675 353.861 269.695 349.918 267.58 352.192C265.038 348.614 261.377 344.281 255.697 351.011C255.856 349.356 262.045 346.64 258.936 345.125C257.252 344.014 255.807 343.286 255.818 341.627C257.861 333.156 254.226 321.041 241.517 319.155C239.649 319.315 240.134 313.53 237.171 315.789C240.471 311.873 233.339 308.279 233.133 306.186C235.476 303.512 230.083 302.834 229.575 299.751C235.557 300.48 229.839 297.308 222.816 298.976C221.622 295.958 217.683 297.012 215.913 294.606C217.22 294.26 215.95 291.74 213.377 291.086C214.253 290.014 212.629 286.007 212.105 291.299C211.243 290.727 209.351 292.649 209.115 290.853C208.816 291.092 209.187 291.192 208.014 292.418C206.621 289.56 212.274 290.059 209.98 286.803C208.415 286.256 205.506 290.831 202.789 288.569C202.19 288.607 202.511 288.814 201.563 289.937C201.253 289.371 200.866 289.147 200.443 289.19C199.141 289.253 197.547 291.808 197.258 294.159C195.888 294.026 193.958 295.292 193.306 298.44C193.676 296.927 191.74 291.431 188.662 290.968C179.086 296.916 181.352 279.132 186.568 272.385C186.361 272.152 188.163 269.56 185.402 268.998C186.994 264.993 181.246 267.309 177.528 264.544C181.042 260.359 184.753 254.515 189.41 248.052C185.146 244.963 180.165 250.701 176.004 254.834C175.639 253.202 173.342 254.248 170.381 254.222C167.475 245.746 177.731 224.457 189.48 221.875C189.317 221.817 189.165 221.776 189.025 221.717C189.932 221.406 189.581 221.973 190.954 220.452C190.878 220.737 190.857 220.603 190.804 221.2C192.657 219.609 193.814 223.164 195.861 221.802C195.897 222.33 194.905 225.423 197.191 223.835C197.28 224.036 197.221 225.128 197.93 224.338L197.842 224.35C198.143 224.019 197.993 224.447 198.25 223.408C198.311 224.852 199.623 227.348 199.447 223.289C199.193 223.15 200.906 223.303 200.438 222.319C201.779 221.052 202.456 223.108 204.6 221.254C204.518 221.431 204.441 221.928 203.548 222.506C204.63 223.186 205.958 221.831 207.709 223.962C204.927 229.415 214.157 219.618 209.104 232.139C208.492 232.437 206.511 235.087 207.919 235.372C207.848 235.502 206.336 236.482 207.563 236.299C204.248 246.95 213.9 237.564 214.764 229.225L214.747 229.206L215.076 229.33C218.171 218.84 231.446 219.756 237.196 216.077C238.108 216.464 239.59 215.81 239.481 214.097C239.795 214.593 243.178 212.304 241.071 211.953C242.715 210.533 243.829 207.728 247.392 206.304C245.724 207.334 244.327 207.805 243.952 210.133C243.587 210.355 242.923 210.049 242.646 211.48C242.623 211.566 242.61 211.669 242.599 211.787C243.914 210.407 246.822 211.08 248.452 206.801C248.906 207.172 247.805 208.552 248.491 208.324C248.462 208.352 248.457 208.372 248.448 208.405C249.845 207.459 252.64 206.887 254.428 204.348C254.353 205.897 262.766 204.686 256.733 204.199C258.08 203.757 259.638 204.963 261.5 203.658C261.917 204.487 260.966 204.566 263.022 204.364C262.63 204.636 262.14 204.717 261.702 204.891C261.751 204.975 264.469 205.483 265.373 203.198C264.687 203.213 265.18 203.97 263.694 203.926C264.608 200.727 268.191 200.736 273.141 199.066C273.305 199.379 271.825 199.231 272.002 200.188C272.739 199.902 276.056 199.662 278.504 199.111C279.192 198.954 279.808 198.778 280.29 198.567C279.223 199.872 281.468 198.705 284.158 198.389C283.887 198.657 284.158 198.602 282.279 198.936C282.903 199.601 282.414 199.491 284.222 199.422C282.938 200.292 280.65 199.16 278.021 200.437C275.063 202.201 278.496 204.654 282.532 200.986C282.61 201.042 282.486 200.973 282.804 201.378C281.377 201.904 286.884 202.421 290.515 200.98C290.465 201.485 295.27 201.018 293.215 199.438C296.148 197.689 292.659 197.379 289.395 200.311C289.249 199.505 289.406 199.263 287.719 199.755C287.565 199.586 287.667 199.471 287.006 199.209C286.078 199.067 286.458 198.182 285.142 197.367C285.476 196.598 285.861 195.955 286.453 195.418C287.007 194.885 287.721 194.473 288.775 194.144C288.541 194.011 286.956 193.856 286.042 193.824C286.468 193.505 285.998 193.379 284.933 192.902C296.889 194.735 289.445 187.379 274.729 192.795C281.841 189.971 290.417 188.016 298.562 190.823C299.525 191.152 300.49 191.553 301.455 192.032C304.516 190.601 306.981 190.942 310.806 190.66C312.513 190.833 314.536 188.265 313.848 186.568C313.504 185.652 312.37 185.008 310.026 185.168C311.314 184.547 315.043 186.64 313.539 183.375C313.361 185.365 311.129 181.316 310.524 182.567C309.954 182.415 311.858 180.851 310.501 180.985C310.62 180.463 310.781 180.683 310.268 179.921C310.659 179.919 312.85 178.738 311.825 178.641C312.855 177.738 311.849 177.412 312.833 175.673C314.481 169.525 311.596 174.433 305.25 174.586C305.117 174.55 305.597 173.82 304.793 173.824C303.847 171.817 306.818 171.278 308.136 169.671L308.145 169.638C306.777 169.733 307.737 169.621 305.877 168.64C306.221 168.732 307.667 168.083 306.441 168.074C307.125 166.844 299.888 163.137 299.199 166.453C298.09 166.511 296.901 166.76 295.54 168.632C291.497 167.925 291.432 172.964 286.229 174.389C278.211 174.527 278.23 177.316 271.968 180.836C273.062 177.947 269.837 183.197 270.266 178.256C270.28 177.941 270.792 177.488 271.516 176.986C271.797 176.813 272.076 176.618 272.382 176.43C275.08 174.76 278.877 172.781 274.646 172.592C274.602 172.544 274.564 172.499 274.503 172.461C274.588 172.356 274.661 172.269 274.734 172.182C274.499 172.133 274.535 172.079 273.645 171.983C273.967 171.125 274.066 171.151 272.339 169.992C273.911 168.788 272.094 166.376 269.165 166.784C269.822 166.478 271.548 165.761 273.144 164.336C272.489 164.103 272.39 164.077 271.794 164.102C274.158 161.93 280.411 161.412 285.525 160.24C286.728 160.761 290.629 160.911 287.354 158.479C288.015 158.528 288.227 159.749 289.532 159.943C289.95 160.183 290.165 159.913 291.497 159.418C291.965 160.616 295.846 160.044 297.318 159.082C298.248 159.083 298.472 158.909 300.03 158.9C298.183 159.456 295.535 160.195 292.901 161.044C293.51 161.101 294.116 161.121 294.599 161.357C294.59 161.391 294.14 161.533 293.564 161.961C294.084 162.618 296.522 161.787 298.397 161.523C296.493 163.299 303.818 163.472 300.113 161.926C300.228 161.815 300.44 161.978 301.141 161.562C301.054 161.305 301.184 160.289 300.362 160.018C300.69 159.375 300.659 159.757 301.13 158.953C300.667 158.957 300.425 159.73 299.51 159.805C299.936 159.542 300.074 159.636 300.593 159.022C300.544 158.995 300.59 159.036 300.351 158.865C300.662 158.714 300.667 158.268 301.521 158.554C301.456 158.664 301.302 159.028 301.916 159.015C300.762 159.188 302.416 161.414 302.3 159.118C302.615 159.216 302.555 159.704 303.389 158.976C304.027 159.722 307.36 159.685 308.834 157.843C309.242 157.988 311.957 157.502 311.116 156.8C311.089 156.289 311.649 156.481 312.482 156.286C312.726 156.834 313.703 157.401 314.66 157.352C314.697 157.348 314.722 157.333 314.755 157.342C315.23 157.292 315.681 157.093 316.044 156.665C316.309 156.949 316.083 156.839 316.624 157.232C316.433 157.337 315.443 157.718 316.377 157.756C316.351 157.855 316.373 157.825 316.646 158.076C316.618 158.104 316.61 158.081 316.377 158.288C316.52 158.362 316.363 158.284 316.911 158.36C316.382 158.453 313.582 158.86 316.303 159.014C315.593 159.2 315.742 160.099 316.936 159.382C316.838 159.534 316.793 159.436 316.482 160.013C314.834 159.302 315.918 162.199 317.174 159.766C317.182 159.945 316.971 160.123 317.569 160.226C316.613 162.917 314.06 160.124 312.198 162.806C310.044 163.053 307.712 160.759 305.044 162.658C305.405 164.04 305.054 162.888 306.943 163.628C308.033 163.217 308.425 164.615 309.774 163.584C309.848 163.838 308.95 164.592 310.108 164.192C310.012 164.628 309.901 164.3 310.157 165.15C309.086 166.098 309.759 167.72 312.699 168.991C316.137 171.822 313.998 167.748 314.687 166.846C316.046 167.445 316.509 172.582 318.565 167.957C318.501 169.203 320.085 168.882 319.515 166.876C320.674 168.486 319.572 164.782 318.984 164.376C321.082 163.809 321.285 164.006 321.934 166.7C323.818 165.92 331.507 166.695 324.419 161.956C324.139 161.596 324.445 161.913 323.386 161.146C324.084 160.744 324.767 161.055 326.163 160.853C326.34 160.723 325.05 160.555 325.331 160.091C326.261 161.071 326.862 159.095 325.405 159.415C325.626 159.332 325.925 159.199 326.148 158.975C326.165 158.78 325.187 158.824 324.527 157.844C325.258 157.792 323.686 156.263 322.634 157.302C322.75 156.921 323.981 156.143 322.207 155.291C326.028 153.83 315.714 153.261 321.557 154.989C320.924 155.019 318.208 154.951 318.178 154.745C323.383 153.05 314.685 152.04 312.826 154.525C312.433 152.864 315.746 153.22 317.572 152.686C315.792 152.067 312.77 151.74 308.58 153.33C308.74 153.927 309.118 152.992 310.123 154.12C307.184 152.551 306.491 155.27 311.628 155.844C311.96 156.487 311.337 156.32 309.213 155.396C309.115 155.547 307.934 155.372 308.12 156.48C307.187 156.621 306.598 156.037 305.077 156.574C304.95 156.306 303.121 156.533 303.484 157.113C303.22 157.17 302.433 157.243 301.706 157.283C301.95 156.688 301.864 156.558 303.065 156.078C303.08 156.209 303.322 156.125 303.364 156.498C303.874 156.188 305.063 155.882 304.913 154.854C304.208 155.02 303.52 154.857 301.569 155.726C301.796 155.489 303.287 154.241 303.313 155.072C303.886 154.87 304.212 155.242 304.025 154.084C303.642 153.924 303.821 154.185 302.83 154.012C303.052 153.766 303.374 154.051 304.042 153.676C304.627 154.224 306.038 152.961 306.342 151.957C308.57 151.566 310.44 152.195 313.966 151.571C312.977 151.178 312.029 150.001 310.01 150.724C307.798 150.791 304.919 151.731 301.89 152.354C301.92 152.376 301.973 152.39 302.006 152.399C301.428 152.301 298.907 153.018 301.05 153.5C301.08 153.522 300.767 153.551 300.984 153.801C300.073 153.863 300.042 153.712 298.62 153.956C298.674 154.099 298.824 154.203 298.931 154.253C297.368 154.814 296.167 154.101 294.143 155.057C294.146 154.966 294.16 155.048 294.102 154.812C293.942 154.932 293.765 155.063 293.575 155.189C293.751 155.009 293.868 154.891 295.096 154.098C294.807 154.326 294.476 154.557 294.167 154.78C294.335 154.683 295.267 154.414 296.444 154.154C296.337 154.076 296.27 154.143 295.794 153.852C296.529 154.049 302.73 153.034 298.909 153.011C298.767 152.135 297.923 152.158 296.578 152.99C296.737 152.876 296.914 152.746 297.087 152.629C296.399 152.786 293.692 152.366 295.698 153.28C294.152 153.327 290.951 154.593 289.514 152.297C289.461 152.283 288.924 152.431 288.723 152.121C288.733 152.031 290.241 152.315 289.652 151.44C289.701 151.467 289.784 151.475 289.848 151.315C289.218 151.522 286.811 150.061 285.688 151.577C285.064 151.254 283.827 152.4 282.992 152.176C283.322 152.137 284.471 151.322 283.769 151.134C286.392 150.673 282.459 151.224 280.036 150.063C280.49 149.219 282.178 150.921 282.893 149.075C281.167 148.918 281.476 146.891 279.146 146.998C279.358 146.949 279.584 146.903 280.371 146.773C279.666 146.144 277.391 147.082 277.252 146.675C277.991 146.249 277.396 147.012 279.708 145.722C279.014 145.77 278.756 146.148 276.633 145.935C276.751 145.895 276.861 145.96 277.769 145.777C276.842 145.422 275.415 145.502 273.145 145.305C273.178 145.314 273.306 145.313 273.392 145.18C272.999 145.11 273.362 145.158 272.429 145.17C272.663 144.878 271.646 145.23 271.529 145.057C271.105 144.837 270.502 145.549 269.222 145.078C269.365 144.598 269.617 144.665 270.603 144.326C270.107 144.243 268.672 142.786 268.689 142.883L268.561 142.884C268.622 142.709 268.675 142.986 269.021 142.489C268.366 142.207 269.061 142.606 267.733 142.158C268.247 142.225 269.608 141.624 268.085 141.769C268.236 141.682 269.284 141.43 268.033 141.486C269.953 141.105 267.435 141.467 266.749 141.085C264.947 141 262.741 141.388 258.83 141.249C257.84 141.339 255.387 141.775 253.06 142.721C253.073 142.725 253.148 142.709 253.299 142.679C252.68 142.868 251.565 143.343 250.596 143.041C251.879 142.781 250.783 143.006 252.139 142.687C251.856 142.683 251.669 142.505 250.187 142.896C250.205 142.83 250.174 142.892 250.383 142.749C248.839 142.996 247.092 143.316 244.716 144.235C245.084 144.184 244.741 144.22 245.663 144.169C245.557 144.247 245.333 144.209 244.881 144.492C245.178 144.444 245.06 144.434 246.481 144.246C246.514 144.255 246.539 144.24 246.576 144.236C246.539 144.24 246.501 144.251 246.462 144.262C244.78 144.685 243.711 144.988 241.201 145.374C241.248 145.329 241.448 145.298 241.938 145.088C241.654 145.14 241.295 145.235 241.002 145.32L241.011 145.287C238.851 145.901 237.834 146.147 233.69 147.806C233.852 147.757 234.041 147.687 234.2 147.652C233.982 147.721 233.781 147.809 233.565 147.872C232.139 148.399 230.651 149.023 228.452 149.967C228.39 149.986 228.33 150.027 228.229 150.057C228.109 150.11 227.958 150.197 227.776 150.29C228.19 150.153 228.078 150.172 229.179 149.772C229.263 149.723 229.364 149.693 229.455 149.668C229.313 149.722 229.333 149.728 229.179 149.772C229.082 149.817 228.874 149.903 228.475 150.066C228.659 150.044 228.479 150.053 229.04 149.947C228.288 150.208 225.753 151.083 223.563 152.18L223.84 152.076C223.84 152.076 223.853 152.08 223.733 152.154C224.264 151.977 224.764 151.649 227.059 151.007L227.052 151.112C226.93 151.171 226.77 151.235 226.014 151.515C226.05 151.433 226 151.512 226.225 151.338C225.521 151.632 224.954 151.679 223.366 152.624C223.458 152.599 223.676 152.529 224.249 152.271C224.245 152.284 224.262 152.275 224.138 152.369L224.132 152.389L224.151 152.372C224.243 152.347 224.652 152.223 225.164 151.984C225.155 152.017 225.184 151.989 225.124 152.079C225.683 151.981 226.04 151.842 227.476 151.225L227.429 151.27C227.628 151.266 228.439 151.022 229.324 150.584C228.699 150.715 228.668 150.565 226.996 151.267C228.28 150.61 230.1 150.153 232.029 149.47L232.043 149.474C232.118 149.458 232.317 149.512 233.011 149.25C232.984 149.3 233.021 149.267 232.913 149.352C233.177 149.373 234.02 149.01 235.24 148.726C235.169 148.778 235.084 148.776 234.834 148.915C235.187 148.868 235.1 148.717 236.774 148.405C235.508 148.783 233.402 149.249 231.073 150.073C231.509 150.51 233.098 149.565 234.094 149.846C234.307 149.796 234.57 149.739 234.766 149.671C234.461 149.802 234.711 149.692 234.039 150.051C234.825 150.063 235.944 149.277 238.516 148.822C237.763 149.352 237.653 148.968 235.516 149.893C236.192 149.755 235.725 149.857 237.46 149.448C237.104 149.637 237.345 149.403 236.36 149.899C236.463 149.913 236.393 149.908 236.662 149.909C236.216 150.251 236.337 149.985 235.034 150.581C234.939 150.747 238.451 149.622 236.27 151.373L236.986 151.246C235.948 151.649 235.239 152.226 233.947 153.179L233.88 153.218C233.853 153.318 229.429 154.83 229.978 154.978C229.489 155.188 229.469 155.076 227.532 156.105C227.65 156.193 227.533 156.233 227.893 156.109C226.652 156.685 225.526 157.151 223.596 158.338C224.157 158.311 223.712 158.383 224.926 157.906C224.88 158 224.844 157.87 224.592 158.278C225.538 157.956 226.473 157.511 228.737 156.406C227.961 156.837 225.815 157.981 224.17 158.847L224.446 158.743C222.066 159.966 219.214 161.68 216.059 163.781C215.838 163.864 215.715 163.796 214.866 164.498L215.283 164.61C206.252 170.463 187.666 179.642 177.727 192.353C176.632 193.366 177.479 192.272 173.93 196.853C173.784 197.133 173.321 197.137 172.53 198.551C172.516 198.604 172.534 198.538 172.441 198.882C173.977 202.958 165.236 208.043 165.128 213.589C165.034 213.542 164.923 213.477 164.828 213.437C165.508 213.761 164.325 215.894 162.711 215.533C162.099 215.404 160.369 219.528 161.206 220.753C162.38 222.439 158.4 225.555 157.916 228.315C157.916 228.315 157.958 228.291 158.076 228.195L158.085 228.346L158.194 228.283C159.143 228.267 155.766 234.932 157.961 232.758C159.478 227.626 163.496 220.686 165.618 213.72L165.99 213.869C166.841 211.278 167.812 209.983 170.401 207.055C170.688 207.097 169.777 207.925 170.992 207.789C170.966 207.832 169.83 209.132 170.837 208.635C170.457 209.123 168.401 212.051 167.229 214.095C166.8 214.37 166.763 214.431 165.827 215.722C166.06 215.727 166.034 215.827 166.483 215.606C163.82 225.679 160.867 234.978 157.088 246.932C157.226 246.628 157.376 246.335 157.508 246.029C157.349 249.75 161.132 263.034 165.871 260.931C166.657 260.197 168.196 260.574 168.636 262.403C169.121 265.999 169.626 269.706 172.683 272.236C173.873 272.25 174.163 275.381 176.322 273.787C175.642 275.053 176.072 279.251 177.689 281.673C176.867 283.15 175.802 285.719 177.219 288.222C177.536 287.703 177.554 287.026 178.125 286.696C179.349 288.331 178.513 292.247 180.845 295.016C180.617 293.059 184.345 294.939 182.536 296.364C181.728 294.77 181.483 299.632 183.005 296.866C183.073 296.827 182.985 297.074 183.502 296.999C183.344 298.597 187.1 300.427 185.708 295.233C186.71 295.018 186.617 295.632 187.928 293.811C189.494 291.837 191.902 301.586 189.89 305.357C189.57 306.5 190.249 310.616 188.503 310.006C187.671 310.514 188.511 312.096 189.229 312.7C188.665 314.409 186 314.498 185.324 317.548C184.495 317.304 184.155 317.909 184.737 319.265C182.47 319.268 181.337 320.555 180.93 324.408C179.84 325.082 178.617 329.036 180.712 331.742C174.745 340.681 186.495 360.403 192.219 372.169C194.277 376.413 196.521 378.641 198.641 380.586C202.555 384.184 206.071 386.831 207.265 399.521C207.394 401.451 207.718 403.37 208.156 405.312C210.131 414 214.62 422.638 215.851 430.843C217.185 432.912 218.293 433.656 219.755 436.334L219.722 436.325C219.856 437.362 220.634 438.643 221.963 439.965C221.919 439.918 221.801 439.829 221.65 439.81C222.256 440.278 222.288 442.09 224.164 442.827C223.904 441.813 223.902 442.615 222.59 439.906C223.5 440.114 223.85 442.118 225.042 443.076C225.026 443.214 225.663 444.152 226.068 445.105C225.613 444.735 226.13 445.086 224.651 443.795C225.328 444.872 226.239 446.614 227.669 448.46C227.669 448.46 227.561 448.253 227.525 448.066C227.656 448.243 228.101 448.86 228.572 448.347L228.512 448.04C228.817 448.441 229.24 448.717 229.881 449.742C229.828 449.727 229.823 449.641 229.067 449.31C229.107 449.371 229.034 449.301 229.387 449.786C229.373 449.783 229.337 449.759 229.268 449.698C229.951 451.812 233.367 453.8 235.22 455.816C235.221 455.759 235.229 455.783 235.236 455.622C235.236 455.622 235.272 455.702 235.631 456.082C235.627 456.046 235.655 456.075 235.519 455.839C235.656 455.911 235.562 455.865 235.884 456.065L235.904 456.07L235.908 456.057C235.975 456.203 236.189 456.147 236.538 456.567C236.406 456.531 236.486 456.496 236.019 456.357C236.076 456.358 236.191 456.722 236.493 456.789C236.577 456.741 237.101 457.25 237.141 457.048C237.161 457.053 237.203 457.214 237.431 457.289L237.435 457.276C237.534 457.302 237.445 457.371 238.037 457.757C238.028 457.74 238.036 457.707 238.051 457.654C238.138 457.727 238.086 457.734 238.409 457.906L238.394 457.831C238.358 457.751 238.605 458.101 239.09 458.358L239.315 458.525L239.295 458.47L239.563 458.663C239.563 458.663 239.543 458.657 239.555 458.611C239.637 458.704 239.543 458.657 239.88 458.804C239.97 458.864 239.924 458.852 240.191 458.994C240.191 458.994 240.152 458.927 240.107 458.83C240.476 459.071 240.271 459.016 241.014 459.449C241.008 459.391 241.036 459.419 240.946 459.303C241.478 459.73 242.266 460.047 243.101 460.456L242.823 460.168C242.972 460.222 243.333 460.731 243.715 460.762C243.622 460.581 243.706 460.795 243.179 460.299C243.225 460.311 243.403 460.522 243.41 460.233C243.467 460.284 243.626 460.433 243.667 460.146C238.826 457.173 233.582 450.534 233.793 445.215C233.463 444.907 232.98 444.777 232.717 444.352C235.532 444.765 233.17 445.048 230.897 441.074C231.337 441.369 232.379 442.01 233.142 442.158C234.164 442.396 234.685 441.804 232.551 438.428C239.849 442.116 239.658 435.489 235.065 430.978C237.235 432.078 244.162 437.285 244.157 428.238C244.683 427.682 244.737 426.021 246.554 426.025C244.7 433.261 250.091 418.416 252.479 415.044C252.918 415.02 255.027 413.192 257.368 414.579C257.517 413.227 257.346 413.735 260.395 412.876C263.828 413.924 266.324 414.678 268.237 409.872C273.346 406.653 269.749 395.031 277.51 391.11C292.528 383.51 298.811 372.675 288.884 368.673L288.942 368.667ZM308.758 185.211C309.207 184.941 308.978 185.398 309.515 185.379C308.979 185.526 307.791 185.826 307.27 185.438C307.785 185.398 308.258 185.276 308.758 185.211ZM294.976 157.539C295.224 157.619 295.605 157.657 295.92 157.806C296.301 157.922 296.582 158.196 296.516 158.789C296.03 158.801 295.269 158.512 296.038 157.894C295.994 157.847 295.973 157.82 295.92 157.806C295.754 157.761 295.441 157.926 294.724 157.471L294.976 157.539ZM199.501 221.549C199.844 221.066 200.06 221.45 200.204 222.185C199.953 222.061 200.006 222.26 199.464 221.553L199.501 221.549ZM179.438 282.511C179.244 282.892 178.976 281.641 177.787 281.678C177.915 281.279 178.629 276.151 179.462 282.503L179.445 282.512L179.438 282.511ZM207.808 293.187C207.461 294.614 209.76 296.82 206.851 298.214C205.426 297.676 206.028 295.032 207.808 293.187ZM308.163 169.7C308.11 169.899 308.226 169.731 308.163 169.7V169.7Z" fill="url(#paint4_radial_14221_4253)"/>
<path d="M406.307 178.7C406.359 178.726 406.371 178.73 406.359 178.726L406.297 178.69C406.297 178.69 406.303 178.692 406.309 178.694L406.307 178.7Z" fill="url(#paint5_linear_14221_4253)"/>
<path d="M431.896 207.948C425.226 198.52 417.367 189.398 408.252 180.615C407.921 180.313 407.549 179.979 407.05 179.561C407.353 179.891 407.17 179.643 407.884 180.318C407.923 180.385 408.01 180.458 408.149 180.601L408.029 180.52C408.266 180.775 408.073 180.567 408.635 181.122L408.514 181.04C408.616 181.138 408.489 181.19 409.197 181.884C408.739 181.711 408.47 181.206 407.407 180.296C407.683 180.725 407.666 180.657 408.416 181.461C408.378 181.416 408.301 181.359 408.211 181.3C408.578 181.916 408.265 181.442 409.176 182.574L409.057 182.542C409.327 182.991 410.105 183.611 411.045 184.793C411.025 184.788 410.893 184.752 410.594 184.544C410.119 183.984 409.85 184.111 409.002 183.01C409.012 183.027 409.059 183.061 409.146 183.084C408.809 182.617 407.613 181.544 406.319 180.913C407.044 181.733 407.653 182.002 409.15 183.596C409.141 183.58 409.101 183.569 409.068 183.56C410.419 184.852 410.425 184.563 411.775 186.125C410.838 185.355 411.717 186.074 410.299 185.033C410.818 186.223 412.504 187.804 413.597 189.183C413.548 189.419 410.498 186.677 411.797 188.24L411.764 188.231C411.935 188.653 412.648 188.986 414.128 190.327C411.75 189.477 409.778 186.449 406.842 184.128C410.526 186.649 412.359 186.516 406.436 181.854C406.431 181.874 406.464 181.883 406.498 182.02C405.203 181.261 404.26 180.17 401.968 179.13C402.026 179.231 401.922 179.167 402.326 179.595C401.854 179.291 401.259 178.649 400.155 177.891C400.21 178.084 400.16 177.928 400.398 178.311C400.099 178.103 399.603 178.603 399.348 177.618L399.467 177.65C398.962 176.94 398.464 176.863 397.129 175.987C397.165 176.068 397.197 176.133 397.237 176.194C397.045 176.036 396.726 175.822 396.24 175.571C396.227 175.618 396.531 175.756 397.072 176.653C396.721 176.346 396.993 176.469 396.079 175.692C396.6 176.451 396.914 176.924 397.021 177.108C396.517 176.576 397.101 177.073 395.512 175.398C395.524 175.486 395.499 175.394 395.597 175.69C395.506 175.63 395.453 175.616 395.138 175.39C395.437 175.811 395.283 175.592 395.95 176.36C395.788 176.224 395.963 176.363 395.511 176.065C395.511 176.065 395.489 176.094 395.512 176.193C395.424 175.992 395.122 175.712 394.566 175.854C394.61 176.008 394.944 176.112 395.704 176.748C395.599 176.663 395.41 176.521 395.229 176.799C395.085 176.725 395.172 176.748 394.828 176.492C395.018 176.792 394.966 176.586 395.572 177.586C394.702 176.352 393.595 176.219 395.518 178.318C394.957 177.812 393.892 177.044 395.468 178.823C395.41 178.772 395.292 178.683 394.938 178.389L395.142 178.82C395.014 178.822 394.864 178 394.252 178.007C393.841 178.003 392.419 178.197 392.945 178.963C393.365 179.594 394.806 182.139 395.503 179.67C396.288 180.399 396.596 181.979 397.583 183.65C397.501 183.557 397.558 183.608 397.304 183.419C397.37 183.756 398.255 184.533 398.469 185.535C398.416 185.521 398.41 185.412 398.199 185.271L398.44 185.726L398.023 185.664C398.517 185.888 399.137 187.177 398.65 187.458C398.735 187.75 398.681 187.608 398.921 188.248C398.504 188.136 398.904 188.314 398.129 187.602C398.085 187.896 398.206 187.658 398.38 188.387C398.266 188.335 398.237 188.256 397.726 187.778C397.846 188.471 398.139 188.173 398.803 189.565C398.602 189.44 398.759 189.518 398.023 189.001C398.162 189.358 398.013 189.119 398.462 189.829C398.386 189.901 398.32 189.564 397.978 189.699C397.992 189.703 397.941 189.838 398.023 190.194C397.938 190.115 397.971 190.124 397.722 189.915C397.709 190.018 397.786 189.861 397.551 190.472C397.432 190.334 397.547 190.436 397.158 190.083C397.377 190.461 397.614 190.901 397.887 191.365C398.848 193.106 400.062 195.306 401.464 197.202C401.479 197.149 401.461 197.215 401.552 196.955C401.619 197.023 401.614 196.986 401.994 197.372C401.359 197.33 405.041 203.386 406 198.694C405.935 198.407 405.852 198.051 405.745 197.788C407.712 200.175 409.05 201.514 411.587 205.588L411.416 205.485C411.387 205.726 411.371 206.048 411.418 206.274C409.971 204.757 411.722 209.139 413.147 209.812C413.813 208.861 412.734 209.02 412.665 207.29C413.457 207.857 414.997 209.505 413.832 206.459C414.479 206.455 413.932 206.429 414.998 206.772C414.991 206.663 415.078 206.686 414.857 206.237C414.901 206.284 415.016 206.386 415.204 206.614C415.143 206.441 414.914 205.23 414.082 203.885C414.081 204.097 414.119 204.356 414.154 204.543C413.332 203.158 413.375 203.049 412.062 200.609C412.292 200.494 412.072 200.626 412.4 199.876C412.523 199.895 412.485 199.771 412.682 199.966C412.414 198.446 410.981 197.33 409.55 195.91C408.923 195.309 408.319 194.65 407.809 193.874L407.914 193.881C406.738 191.62 405.557 188.606 404.58 185.653C405.287 186.09 405.457 185.852 406.807 187.414C406.537 187.228 406.807 187.414 406.104 186.828C406.75 188.023 407.113 188.206 407.794 190.462C407.727 190.444 407.752 190.486 407.641 190.421C408.686 192.377 410.485 194.861 412.878 197.271C412.917 197.338 412.949 197.403 412.989 197.442C413.236 197.792 413.583 197.9 414.002 197.927C415.081 197.982 416.6 197.373 417.992 198.832C417.798 199.157 417.753 199.536 417.612 199.718C417.465 199.948 417.173 199.899 416.297 199.167C416.298 199.295 416.279 199.446 416.261 199.569C416.104 199.491 415.939 199.575 415.758 200.038C415.827 200.312 416.021 200.648 416.157 200.883C416.055 200.785 415.929 200.673 415.813 200.578C416.065 201.569 415.542 201.72 416.903 203.242C416.897 203.183 416.719 202.653 417.017 202.47C416.93 202.212 416.757 201.903 416.628 201.67C417.236 201.996 416.731 201.683 417.856 202.624C417.856 202.624 417.836 202.568 417.801 202.431C418.059 203.324 418.927 203.479 419.419 205.457C414.723 201.465 419.782 207.23 419.693 210.025C420.002 212.664 420.115 208.981 416.002 211.663C415.563 211.049 415.715 211.331 414.472 209.769C414.378 209.801 414.612 210.041 414.218 210.241C414.334 210.414 413.351 210.349 413.328 211.018C410.972 209.606 409.956 205.208 407.576 201.424C407.404 201.059 407.822 203.102 407.031 202.372C406.587 203.233 407.798 207.037 409.862 208.74C409.758 209.657 410.848 209.643 410.595 211.28C410.27 211.086 409.175 209.848 409.329 211.473C408.623 211.298 407.39 210.52 407.533 212.369L407.46 212.243C407.414 212.551 408.154 215.909 405.518 216.367C405.912 217.041 404.398 217.87 404.517 220.047C403.396 220.442 402.95 219.378 401.537 218.318C400.624 218.251 404.634 222.343 401.141 221.464C400.691 220.946 401.048 220.935 398.439 220.684C397.178 221.652 399.756 223.11 401.863 224.761C401.863 224.761 401.919 224.762 402.122 224.667C402.129 224.775 408.764 235.948 403.471 235.637C400.881 235.71 396.489 231.963 393.412 233.588C393.324 236.114 392.738 244.372 393.525 249.489C393.56 251.11 391.663 253.258 396.693 252.482C400.738 257.578 396.639 256.338 406.301 256.271C407.011 255.872 406.357 254.39 408.622 254.337C407.766 252.95 409.843 252.115 409.893 250.786C407.552 248.66 409.625 244.714 413.584 242.686C412.073 238.73 413.591 237.994 418.62 239.895C419.897 232.718 422.777 242.905 423.277 241.967C423.946 242.863 424.441 244.224 425.683 245.125C425.845 246.191 427.038 247.065 428.517 248.278C429.518 250.477 432.731 252.531 432.862 255.911C433.254 258.373 430.488 257.114 429.252 257.195C429.165 257.043 429.242 257.178 428.995 256.749C428.372 258.599 434.764 267.207 432.815 258.235C432.816 258.284 433.059 258.783 433.47 259.049C433.628 258.857 433.431 258.4 433.735 257.849C433.772 257.845 433.702 257.84 433.911 257.988C434.097 257.612 433.619 257.193 433.896 256.11C435.471 255.105 432.093 253.773 432.972 250.97C433.255 250.975 432.998 251.722 434.058 251.9C438.604 255.603 424.337 240.795 423.41 234.98C424.67 234.067 424.28 235.071 425.894 237.449L425.956 237.004C425.889 237.256 427.252 238.686 426.721 237.408C429.685 243.414 434.647 245.141 436.741 253.521C436.691 253.493 436.804 253.552 436.508 253.33C436.731 254.697 438.327 256.083 439.424 258.72C439.414 258.703 439.4 258.622 439.463 258.44C439.543 258.354 439.906 258.722 440.341 258.98C440.693 259.202 441.098 259.361 441.411 259.174C441.805 259.692 441.185 259.938 442.692 260.462C442.639 260.341 442.716 260.504 442.291 259.495C442.483 259.703 442.403 259.739 443.118 260.463C442.699 258.156 440.142 256.093 439.15 252.135C441.529 255.13 438.875 250.166 441.988 251.482C442.027 252.53 442.926 251.769 443.093 253.746C442.787 253.429 442.843 256.746 444.113 257.463C444.165 256.873 443.98 256.767 443.943 255.898C444.036 256.349 444.575 256.855 444.427 258.279C444.408 258.273 444.434 258.174 444.34 258.127C444.345 258.164 444.27 258.123 444.284 258.524C444.284 258.524 444.163 258.442 443.865 258.284C443.922 259.265 443.643 258.317 444.429 259.969C444.447 259.903 444.482 259.77 444.395 259.3C444.646 259.636 444.423 259.804 445.06 260.635C445.06 260.635 445.049 260.597 445.102 260.398C445.378 260.507 445.321 260.854 445.884 261.005C445.818 260.987 445.748 260.983 445.649 260.956L445.736 261.37C445.736 261.37 445.497 261.15 445.241 260.755C445.344 260.981 444.832 261.142 445.673 262.085C445.702 262.107 445.615 261.984 445.765 261.953C445.931 261.997 445.597 262.711 446.408 263.29C446.338 263.683 446.171 264.228 446.337 265.7C446.541 265.151 446.404 265.717 446.627 264.009C446.66 264.018 446.662 264.089 447.034 264.026L447.034 264.345L446.947 264.272C446.972 264.364 446.439 264.633 446.931 265.447C447.647 265.319 447.106 264.315 447.551 267.665C447.827 267.561 447.579 266.153 447.714 264.854C447.818 265.13 447.711 264.867 448.094 265.638L448.267 265.308C448.289 266.421 450.186 270.019 449.69 265.192C450.506 265.141 450.899 268.285 452.182 267.685C452.232 267.712 452.203 267.74 452.359 267.767C452.389 267.257 452.36 266.411 452.402 265.67C452.591 266.026 453.245 267.11 453.141 265.776C453.699 269.895 457.001 279.435 454.523 283.543C454.099 285.39 453.131 279.62 452.071 283.099C452.023 283.065 452.063 283.076 451.943 282.994C451.745 282.991 452.07 283.262 451.263 284.26C448.407 282.941 439.885 268.21 441.421 282.802C441.273 286.959 433.807 275.046 428.086 270.53C426.309 270.43 428.247 264.126 427.216 259.653C425.881 259.494 424.017 258.526 421.334 258.865C420.732 259.577 420.618 256.742 420.049 258.521C419.949 259.211 418.612 257.816 418.504 259.569C416.129 254.36 407.897 262.373 404.838 259.927C402.133 262.419 399.608 253.526 398.341 259.663C397.919 261.978 395.328 262.981 392.326 265.174C389.274 267.714 393.09 274.382 385.309 278.113C381.418 278.64 377.948 282.872 374.767 288.808C373.7 289.716 365.664 298.583 368.492 299.611C371.702 308.701 360.008 319.216 361.336 328.781C361.093 330.882 363.754 329.749 363.645 331.907C363.808 335.43 367.052 337.371 366.338 341.732C365.75 346.339 369.43 350.705 372.096 355.488C373.456 356.534 372.151 361.219 376.661 359.786C384.403 355.697 385.506 364.62 394.978 359.482C395.533 360.27 397.785 358.466 399.182 358.791C408.037 358.394 398 369.005 409.11 367.11C409.018 367.533 408.489 370.352 409.861 369.236C408.846 374.481 402.829 378.941 401.333 384.789C397.183 401.074 392.532 410.827 378.378 424.531C368.638 433.958 357.922 450.55 341.79 457.781C342.008 457.839 341.79 457.781 342.449 457.652C342.191 457.689 342.297 458.009 341.583 458.471C341.947 458.519 341.943 458.532 342.052 458.525C342.165 458.499 342.414 458.445 343.257 458.294C343.244 458.341 343.27 458.298 343.118 458.414C343.515 458.47 343.543 458.421 343.797 458.347C344.047 458.286 344.518 458.199 345.844 458.178C345.916 458.496 345.68 458.525 346.611 458.313C346.637 458.426 346.478 458.277 346.505 458.654C346.784 458.622 346.558 458.668 347.752 458.398L347.818 458.629C353.861 457.677 369.819 451.309 375.088 447.757C375.084 447.771 375.125 447.696 375.008 447.736C381.263 444.931 385.943 442.571 393.048 436.195L393.039 436.228C410.414 427.832 422.043 410.696 434.394 394.308L434.395 394.357C436.187 392.068 441.853 382.928 441.692 382.92C448.388 374.07 465.663 334.375 461.646 289.052C459.096 260.299 449.661 233.024 431.87 207.912L431.896 207.948ZM446.111 261.059C446.144 261.068 446.197 261.082 446.247 261.081C446.205 261.105 446.191 261.08 446.111 261.059Z" fill="url(#paint6_radial_14221_4253)"/>
<path d="M407.301 179.667C407.628 179.982 407.941 180.3 408.268 180.615C408.593 180.915 408.889 181.186 409.192 181.459C408.748 180.971 408.434 180.766 408.397 180.692C407.621 179.902 407.455 179.779 407.301 179.667Z" fill="url(#paint7_linear_14221_4253)"/>
<path d="M406.315 178.707C406.266 178.679 406.18 178.628 406.046 178.521C406.182 178.65 406.04 178.541 406.455 178.929C406.082 178.623 405.915 178.372 404.797 177.59C405.1 177.863 405.627 178.359 406.905 179.369L406.912 179.342C407.11 179.53 407.201 179.59 407.296 179.658C406.962 179.342 406.651 179.017 406.311 178.698L406.315 178.707Z" fill="url(#paint8_linear_14221_4253)"/>
<path opacity="0.6" d="M153.316 233.86L198.538 198.47" stroke="#15C1E6" stroke-width="0.983069" stroke-linecap="round" stroke-dasharray="4.92 4.92"/>
<path opacity="0.6" d="M239.829 417.694L339.12 429.491" stroke="#15C1E6" stroke-width="0.983069" stroke-linecap="round" stroke-dasharray="4.92 4.92"/>
<path opacity="0.6" d="M285.541 360.185L378.441 338.066" stroke="#15C1E6" stroke-width="0.983069" stroke-linecap="round" stroke-dasharray="4.92 4.92"/>
<path opacity="0.6" d="M160.2 305.624L184.285 331.184" stroke="#15C1E6" stroke-width="0.983069" stroke-linecap="round" stroke-dasharray="4.92 4.92"/>
<path opacity="0.6" d="M392.696 212.609L416.781 238.169" stroke="#15C1E6" stroke-width="0.983069" stroke-linecap="round" stroke-dasharray="4.92 4.92"/>
<path opacity="0.6" d="M379.585 205.322L240.32 275.148" stroke="#15C1E6" stroke-width="0.983069" stroke-linecap="round" stroke-dasharray="4.92 4.92"/>
<path opacity="0.2" d="M225.082 308.082L225.082 329.218" stroke="#15C1E6" stroke-width="0.983069" stroke-linecap="round" stroke-dasharray="4.92 4.92"/>
<path opacity="0.6" d="M261.456 193.063L376.583 198.892" stroke="#15C1E6" stroke-width="0.983069" stroke-linecap="round" stroke-dasharray="4.92 4.92"/>
<g filter="url(#filter2_dd_14221_4253)">
<rect x="338.852" y="252.485" width="144.511" height="45.5766" rx="8.89299" fill="url(#paint9_linear_14221_4253)"/>
<rect x="337.994" y="251.628" width="146.226" height="47.2916" rx="9.75049" stroke="url(#paint10_linear_14221_4253)" stroke-width="1.715"/>
</g>
<path fill-rule="evenodd" clip-rule="evenodd" d="M356.339 280.492C354.424 278.577 353.239 275.931 353.239 273.008C353.239 267.164 357.976 262.427 363.82 262.427C369.664 262.427 374.402 267.164 374.402 273.008C374.402 275.931 373.217 278.577 371.301 280.492L371.303 280.493L363.821 287.975L356.338 280.493L356.339 280.492Z" fill="#15C1E6"/>
<path d="M387.509 271.304H385.819V270.03H389.147V279H387.509V271.304ZM392.684 277.154C393.126 277.479 393.815 277.83 394.699 277.83C395.362 277.83 395.882 277.687 396.259 277.232C396.688 276.725 396.909 275.828 396.909 274.645C396.649 275.139 395.96 275.802 394.569 275.802C393.165 275.802 391.8 274.879 391.8 273.046C391.8 271.304 393.022 269.9 395.011 269.9C396.532 269.9 397.325 270.641 397.741 271.278C398.118 271.837 398.508 272.942 398.508 274.398C398.508 275.997 398.157 277.284 397.468 278.064C396.87 278.766 395.908 279.156 394.751 279.156C393.243 279.156 392.359 278.558 392.047 278.311L392.684 277.154ZM396.727 272.877C396.727 271.98 396.142 271.161 395.063 271.161C393.984 271.161 393.412 271.98 393.412 272.877C393.412 273.774 393.984 274.606 395.063 274.606C396.142 274.606 396.727 273.878 396.727 272.877ZM403.506 279.143C401.686 279.143 400.178 278.233 400.178 276.491C400.178 275.412 400.867 274.606 401.894 274.307V274.268C401.244 274.021 400.451 273.358 400.451 272.253C400.451 270.719 401.894 269.9 403.506 269.9C405.118 269.9 406.561 270.719 406.561 272.253C406.561 273.358 405.768 274.021 405.118 274.268V274.307C406.145 274.606 406.834 275.412 406.834 276.491C406.834 278.233 405.326 279.143 403.506 279.143ZM403.506 273.696C404.312 273.696 404.897 273.241 404.897 272.461C404.897 271.694 404.312 271.2 403.506 271.2C402.7 271.2 402.115 271.694 402.115 272.461C402.115 273.241 402.7 273.696 403.506 273.696ZM403.506 277.817C404.39 277.817 405.131 277.297 405.131 276.361C405.131 275.425 404.429 274.879 403.506 274.879C402.583 274.879 401.881 275.425 401.881 276.361C401.881 277.297 402.622 277.817 403.506 277.817ZM409.882 279.143C409.258 279.143 408.829 278.779 408.829 278.181C408.829 277.57 409.258 277.206 409.882 277.206C410.48 277.206 410.922 277.57 410.922 278.181C410.922 278.779 410.48 279.143 409.882 279.143ZM416.076 277.739C416.856 277.739 417.805 277.284 417.805 276.062C417.805 274.853 416.947 274.32 415.933 274.32C415.335 274.32 414.737 274.515 414.321 274.788L413.554 274.333L414.399 270.03H419.17L419.157 271.421H415.465L415.036 273.423C415.465 273.241 415.998 273.124 416.544 273.124C418.182 273.124 419.521 274.203 419.521 276.088C419.521 278.051 417.87 279.143 416.011 279.143C414.308 279.143 413.151 277.96 412.93 277.648L413.827 276.582C414.282 277.154 415.049 277.739 416.076 277.739ZM423.089 271.304H421.399V270.03H424.727V279H423.089V271.304ZM428.914 279.143C428.29 279.143 427.861 278.779 427.861 278.181C427.861 277.57 428.29 277.206 428.914 277.206C429.512 277.206 429.954 277.57 429.954 278.181C429.954 278.779 429.512 279.143 428.914 279.143ZM433.2 271.304H431.51V270.03H434.838V279H433.2V271.304ZM437.296 274.528C437.296 272.175 438.414 269.9 440.923 269.9C443.432 269.9 444.537 272.175 444.537 274.528C444.537 276.881 443.432 279.156 440.923 279.156C438.401 279.156 437.296 276.881 437.296 274.528ZM442.821 274.502C442.821 272.669 442.223 271.356 440.923 271.356C439.623 271.356 439.012 272.669 439.012 274.502C439.012 276.322 439.623 277.648 440.923 277.648C442.223 277.648 442.821 276.322 442.821 274.502ZM445.57 274.528C445.57 272.175 446.688 269.9 449.197 269.9C451.706 269.9 452.811 272.175 452.811 274.528C452.811 276.881 451.706 279.156 449.197 279.156C446.675 279.156 445.57 276.881 445.57 274.528ZM451.095 274.502C451.095 272.669 450.497 271.356 449.197 271.356C447.897 271.356 447.286 272.669 447.286 274.502C447.286 276.322 447.897 277.648 449.197 277.648C450.497 277.648 451.095 276.322 451.095 274.502ZM455.319 279.143C454.695 279.143 454.266 278.779 454.266 278.181C454.266 277.57 454.695 277.206 455.319 277.206C455.917 277.206 456.359 277.57 456.359 278.181C456.359 278.779 455.917 279.143 455.319 279.143ZM462.488 277.076H458.042V275.815L462.371 269.991H464.113V275.711H465.361V277.076H464.113V279H462.488V277.076ZM462.527 275.737V271.85L459.641 275.737H462.527ZM469.787 277.739C470.567 277.739 471.516 277.284 471.516 276.062C471.516 274.853 470.658 274.32 469.644 274.32C469.046 274.32 468.448 274.515 468.032 274.788L467.265 274.333L468.11 270.03H472.881L472.868 271.421H469.176L468.747 273.423C469.176 273.241 469.709 273.124 470.255 273.124C471.893 273.124 473.232 274.203 473.232 276.088C473.232 278.051 471.581 279.143 469.722 279.143C468.019 279.143 466.862 277.96 466.641 277.648L467.538 276.582C467.993 277.154 468.76 277.739 469.787 277.739Z" fill="white"/>
<g clip-path="url(#clip1_14221_4253)">
<path d="M414.377 320.217L432.182 332.81C432.318 332.907 432.4 333.064 432.4 333.232V354.14C432.4 354.425 432.169 354.657 431.883 354.657H419.778C419.493 354.657 419.261 354.425 419.261 354.14V342.924H408.898V354.14C408.898 354.425 408.666 354.657 408.381 354.657H396.275C395.989 354.657 395.758 354.425 395.758 354.14V333.232C395.758 333.065 395.839 332.907 395.976 332.81L413.78 320.217C413.959 320.09 414.198 320.09 414.377 320.217Z" fill="#15C1E6"/>
<path d="M437.193 326.715L429.498 321.272V314.099C429.498 313.705 429.178 313.386 428.784 313.386H424.481C424.087 313.386 423.767 313.705 423.767 314.099V317.219L415.513 311.381C414.654 310.773 413.503 310.773 412.644 311.381L390.964 326.715C389.844 327.507 389.578 329.058 390.37 330.178C391.164 331.299 392.713 331.562 393.833 330.771L414.079 316.451L434.324 330.771C434.76 331.08 435.26 331.227 435.757 331.227C436.536 331.227 437.302 330.862 437.787 330.177C438.579 329.058 438.313 327.507 437.193 326.715V326.715Z" fill="#15C1E6"/>
</g>
<g filter="url(#filter3_dd_14221_4253)">
<rect x="142.484" y="340.808" width="130.45" height="41.1419" rx="8.02768" fill="url(#paint11_linear_14221_4253)"/>
<rect x="141.841" y="340.164" width="131.736" height="42.4281" rx="8.6708" stroke="url(#paint12_linear_14221_4253)" stroke-width="1.28625"/>
</g>
<path fill-rule="evenodd" clip-rule="evenodd" d="M158.27 366.089C156.541 364.36 155.472 361.972 155.472 359.334C155.472 354.058 159.748 349.782 165.023 349.782C170.299 349.782 174.575 354.058 174.575 359.334C174.575 361.972 173.506 364.36 171.777 366.089L171.778 366.09L165.024 372.844L158.269 366.09L158.27 366.089Z" fill="#15C1E6"/>
<path d="M193.092 357.287H191.431V356.034H194.703V364.853H193.092V357.287ZM198.18 363.038C198.614 363.357 199.292 363.702 200.161 363.702C200.813 363.702 201.324 363.562 201.694 363.114C202.116 362.616 202.333 361.734 202.333 360.571C202.078 361.057 201.4 361.709 200.033 361.709C198.653 361.709 197.311 360.801 197.311 358.999C197.311 357.287 198.512 355.907 200.468 355.907C201.963 355.907 202.742 356.635 203.151 357.261C203.522 357.811 203.905 358.897 203.905 360.328C203.905 361.9 203.56 363.166 202.883 363.932C202.295 364.623 201.349 365.006 200.212 365.006C198.729 365.006 197.86 364.418 197.554 364.175L198.18 363.038ZM202.154 358.833C202.154 357.951 201.579 357.146 200.519 357.146C199.458 357.146 198.896 357.951 198.896 358.833C198.896 359.715 199.458 360.533 200.519 360.533C201.579 360.533 202.154 359.817 202.154 358.833ZM205.588 363.792L208.643 360.967C209.345 360.316 209.984 359.587 209.984 358.718C209.984 357.836 209.422 357.274 208.425 357.274C207.313 357.274 206.687 357.977 206.266 358.45L205.499 357.44C205.78 357.031 206.687 355.907 208.553 355.907C210.432 355.907 211.646 356.942 211.646 358.501C211.646 360.009 210.457 361.121 209.908 361.645L207.94 363.485H212.016V364.853H205.805L205.588 363.792ZM214.962 364.993C214.348 364.993 213.926 364.635 213.926 364.047C213.926 363.447 214.348 363.089 214.962 363.089C215.549 363.089 215.984 363.447 215.984 364.047C215.984 364.635 215.549 364.993 214.962 364.993ZM217.402 360.456C217.402 358.143 218.501 355.907 220.967 355.907C223.434 355.907 224.52 358.143 224.52 360.456C224.52 362.769 223.434 365.006 220.967 365.006C218.488 365.006 217.402 362.769 217.402 360.456ZM222.833 360.431C222.833 358.629 222.245 357.338 220.967 357.338C219.689 357.338 219.089 358.629 219.089 360.431C219.089 362.22 219.689 363.523 220.967 363.523C222.245 363.523 222.833 362.22 222.833 360.431ZM226.986 364.993C226.372 364.993 225.95 364.635 225.95 364.047C225.95 363.447 226.372 363.089 226.986 363.089C227.573 363.089 228.008 363.447 228.008 364.047C228.008 364.635 227.573 364.993 226.986 364.993ZM230.136 363.792L233.19 360.967C233.893 360.316 234.532 359.587 234.532 358.718C234.532 357.836 233.97 357.274 232.973 357.274C231.861 357.274 231.235 357.977 230.813 358.45L230.046 357.44C230.327 357.031 231.235 355.907 233.1 355.907C234.979 355.907 236.193 356.942 236.193 358.501C236.193 360.009 235.005 361.121 234.455 361.645L232.487 363.485H236.564V364.853H230.353L230.136 363.792ZM239.509 364.993C238.895 364.993 238.474 364.635 238.474 364.047C238.474 363.447 238.895 363.089 239.509 363.089C240.097 363.089 240.531 363.447 240.531 364.047C240.531 364.635 240.097 364.993 239.509 364.993ZM242.659 363.792L245.713 360.967C246.416 360.316 247.055 359.587 247.055 358.718C247.055 357.836 246.493 357.274 245.496 357.274C244.384 357.274 243.758 357.977 243.336 358.45L242.569 357.44C242.851 357.031 243.758 355.907 245.624 355.907C247.502 355.907 248.717 356.942 248.717 358.501C248.717 360.009 247.528 361.121 246.978 361.645L245.01 363.485H249.087V364.853H242.876L242.659 363.792ZM253.732 363.613C254.499 363.613 255.432 363.166 255.432 361.964C255.432 360.776 254.588 360.252 253.591 360.252C253.003 360.252 252.416 360.443 252.007 360.712L251.253 360.265L252.083 356.034H256.774L256.761 357.402H253.131L252.71 359.37C253.131 359.191 253.655 359.076 254.192 359.076C255.802 359.076 257.119 360.137 257.119 361.99C257.119 363.92 255.496 364.993 253.668 364.993C251.994 364.993 250.856 363.83 250.639 363.523L251.521 362.475C251.968 363.038 252.722 363.613 253.732 363.613Z" fill="white"/>
<g clip-path="url(#clip2_14221_4253)">
<path d="M208.12 402.112L224.192 413.48C224.316 413.567 224.39 413.709 224.39 413.861V432.734C224.39 432.992 224.181 433.201 223.923 433.201H212.996C212.738 433.201 212.529 432.992 212.529 432.734V422.609H203.174V432.734C203.174 432.992 202.965 433.201 202.707 433.201H191.779C191.521 433.201 191.312 432.992 191.312 432.734V413.861C191.312 413.709 191.386 413.567 191.51 413.48L207.581 402.112C207.743 401.998 207.959 401.998 208.12 402.112Z" fill="#15C1E6"/>
<path d="M228.718 407.977L221.771 403.064V396.589C221.771 396.234 221.483 395.945 221.127 395.945H217.242C216.887 395.945 216.598 396.234 216.598 396.589V399.405L209.147 394.135C208.372 393.586 207.333 393.586 206.558 394.135L186.987 407.977C185.976 408.693 185.736 410.092 186.451 411.103C187.167 412.115 188.566 412.353 189.577 411.639L207.852 398.712L226.128 411.639C226.521 411.917 226.973 412.051 227.421 412.051C228.124 412.051 228.816 411.721 229.254 411.103C229.969 410.092 229.729 408.692 228.718 407.977V407.977Z" fill="#15C1E6"/>
</g>
<g filter="url(#filter4_dd_14221_4253)">
<rect x="164.781" y="117.857" width="127.242" height="40.1302" rx="7.83028" fill="url(#paint13_linear_14221_4253)"/>
<rect x="163.924" y="117" width="128.957" height="41.8452" rx="8.68778" stroke="url(#paint14_linear_14221_4253)" stroke-width="1.715"/>
</g>
<path fill-rule="evenodd" clip-rule="evenodd" d="M180.179 142.517C178.492 140.831 177.449 138.502 177.449 135.928C177.449 130.783 181.62 126.611 186.766 126.611C191.911 126.611 196.083 130.783 196.083 135.928C196.083 138.501 195.039 140.831 193.353 142.517L193.354 142.518L186.766 149.107L180.178 142.518L180.179 142.517Z" fill="#15C1E6"/>
<path d="M205.767 140.939L208.821 138.115C209.524 137.463 210.163 136.735 210.163 135.866C210.163 134.984 209.601 134.422 208.604 134.422C207.492 134.422 206.866 135.124 206.444 135.597L205.677 134.588C205.958 134.179 206.866 133.054 208.732 133.054C210.61 133.054 211.824 134.089 211.824 135.648C211.824 137.156 210.636 138.268 210.086 138.792L208.118 140.633H212.195V142H205.984L205.767 140.939ZM213.44 137.604C213.44 135.291 214.539 133.054 217.006 133.054C219.473 133.054 220.559 135.291 220.559 137.604C220.559 139.917 219.473 142.153 217.006 142.153C214.527 142.153 213.44 139.917 213.44 137.604ZM218.872 137.578C218.872 135.776 218.284 134.485 217.006 134.485C215.728 134.485 215.127 135.776 215.127 137.578C215.127 139.367 215.728 140.671 217.006 140.671C218.284 140.671 218.872 139.367 218.872 137.578ZM226.609 137.425C227.325 137.591 228.271 138.192 228.271 139.457C228.271 141.144 226.801 142.141 224.999 142.141C223.325 142.141 222.188 140.978 221.97 140.671L222.852 139.623C223.299 140.185 224.053 140.76 225.063 140.76C226.073 140.76 226.622 140.326 226.622 139.393C226.622 138.473 225.779 138.051 224.871 138.051H224.283V136.837H224.999C225.817 136.837 226.379 136.402 226.379 135.597C226.379 134.894 225.83 134.422 224.935 134.422C224.143 134.422 223.517 134.754 223.095 135.278L222.264 134.345C222.673 133.846 223.683 133.054 225.076 133.054C226.712 133.054 227.99 133.91 227.99 135.38C227.99 136.441 227.185 137.182 226.609 137.386V137.425ZM231.408 142.141C230.794 142.141 230.372 141.783 230.372 141.195C230.372 140.594 230.794 140.236 231.408 140.236C231.995 140.236 232.43 140.594 232.43 141.195C232.43 141.783 231.995 142.141 231.408 142.141ZM233.848 137.604C233.848 135.291 234.947 133.054 237.413 133.054C239.88 133.054 240.966 135.291 240.966 137.604C240.966 139.917 239.88 142.153 237.413 142.153C234.934 142.153 233.848 139.917 233.848 137.604ZM239.279 137.578C239.279 135.776 238.691 134.485 237.413 134.485C236.135 134.485 235.535 135.776 235.535 137.578C235.535 139.367 236.135 140.671 237.413 140.671C238.691 140.671 239.279 139.367 239.279 137.578ZM243.432 142.141C242.818 142.141 242.396 141.783 242.396 141.195C242.396 140.594 242.818 140.236 243.432 140.236C244.02 140.236 244.454 140.594 244.454 141.195C244.454 141.783 244.02 142.141 243.432 142.141ZM247.645 134.434H245.983V133.182H249.255V142H247.645V134.434ZM253.832 134.434H252.17V133.182H255.442V142H253.832V134.434ZM262.894 137.425C263.61 137.591 264.555 138.192 264.555 139.457C264.555 141.144 263.086 142.141 261.284 142.141C259.609 142.141 258.472 140.978 258.255 140.671L259.137 139.623C259.584 140.185 260.338 140.76 261.347 140.76C262.357 140.76 262.907 140.326 262.907 139.393C262.907 138.473 262.063 138.051 261.156 138.051H260.568V136.837H261.284C262.101 136.837 262.664 136.402 262.664 135.597C262.664 134.894 262.114 134.422 261.22 134.422C260.427 134.422 259.801 134.754 259.379 135.278L258.549 134.345C258.958 133.846 259.967 133.054 261.36 133.054C262.996 133.054 264.274 133.91 264.274 135.38C264.274 136.441 263.469 137.182 262.894 137.386V137.425ZM267.692 142.141C267.079 142.141 266.657 141.783 266.657 141.195C266.657 140.594 267.079 140.236 267.692 140.236C268.28 140.236 268.714 140.594 268.714 141.195C268.714 141.783 268.28 142.141 267.692 142.141ZM271.905 134.434H270.244V133.182H273.515V142H271.905V134.434ZM275.932 137.604C275.932 135.291 277.031 133.054 279.498 133.054C281.964 133.054 283.051 135.291 283.051 137.604C283.051 139.917 281.964 142.153 279.498 142.153C277.018 142.153 275.932 139.917 275.932 137.604ZM281.364 137.578C281.364 135.776 280.776 134.485 279.498 134.485C278.22 134.485 277.619 135.776 277.619 137.578C277.619 139.367 278.22 140.671 279.498 140.671C280.776 140.671 281.364 139.367 281.364 137.578Z" fill="white"/>
<g clip-path="url(#clip3_14221_4253)">
<path d="M228.801 177.703L244.477 188.791C244.598 188.876 244.67 189.015 244.67 189.163V207.571C244.67 207.823 244.466 208.027 244.215 208.027H233.556C233.305 208.027 233.101 207.823 233.101 207.571V197.696H223.976V207.571C223.976 207.823 223.772 208.027 223.521 208.027H212.862C212.61 208.027 212.406 207.823 212.406 207.571V189.163C212.406 189.015 212.478 188.876 212.599 188.791L228.275 177.703C228.433 177.591 228.643 177.591 228.801 177.703Z" fill="#15C1E6"/>
<path d="M248.891 183.424L242.115 178.631V172.316C242.115 171.969 241.834 171.687 241.487 171.687H237.698C237.351 171.687 237.07 171.969 237.07 172.316V175.062L229.802 169.922C229.045 169.387 228.032 169.387 227.276 169.922L208.186 183.424C207.2 184.121 206.966 185.487 207.663 186.473C208.362 187.46 209.727 187.692 210.712 186.995L228.539 174.387L246.365 186.995C246.749 187.267 247.189 187.397 247.626 187.397C248.312 187.397 248.987 187.075 249.414 186.472C250.111 185.486 249.877 184.121 248.891 183.424V183.424Z" fill="#15C1E6"/>
</g>
<g opacity="0.8">
<g filter="url(#filter5_dd_14221_4253)">
<rect x="109.902" y="241.338" width="83.4023" height="26.3038" rx="5.13245" fill="url(#paint15_linear_14221_4253)"/>
<rect x="109.259" y="240.695" width="84.6886" height="27.5901" rx="5.77558" stroke="url(#paint16_linear_14221_4253)" stroke-width="1.28625"/>
</g>
<path fill-rule="evenodd" clip-rule="evenodd" d="M119.995 257.501C118.889 256.396 118.206 254.869 118.206 253.182C118.206 249.81 120.94 247.075 124.313 247.075C127.685 247.075 130.419 249.81 130.419 253.182C130.419 254.869 129.736 256.396 128.63 257.501L128.631 257.502L124.313 261.82L119.994 257.502L119.995 257.501Z" fill="#15C1E6"/>
<path d="M138.38 252.029H137.359V251.259H139.37V256.679H138.38V252.029ZM141.507 255.563C141.774 255.76 142.19 255.972 142.724 255.972C143.125 255.972 143.439 255.885 143.667 255.611C143.926 255.304 144.06 254.762 144.06 254.048C143.903 254.346 143.486 254.747 142.646 254.747C141.798 254.747 140.973 254.189 140.973 253.081C140.973 252.029 141.711 251.181 142.913 251.181C143.832 251.181 144.311 251.628 144.562 252.013C144.79 252.351 145.026 253.019 145.026 253.898C145.026 254.864 144.814 255.642 144.397 256.113C144.036 256.537 143.455 256.773 142.756 256.773C141.845 256.773 141.311 256.412 141.122 256.262L141.507 255.563ZM143.95 252.979C143.95 252.437 143.596 251.943 142.944 251.943C142.292 251.943 141.947 252.437 141.947 252.979C141.947 253.521 142.292 254.024 142.944 254.024C143.596 254.024 143.95 253.584 143.95 252.979ZM148.045 256.765C146.946 256.765 146.035 256.215 146.035 255.163C146.035 254.511 146.451 254.024 147.071 253.843V253.82C146.679 253.671 146.2 253.27 146.2 252.602C146.2 251.676 147.071 251.181 148.045 251.181C149.019 251.181 149.891 251.676 149.891 252.602C149.891 253.27 149.412 253.671 149.019 253.82V253.843C149.64 254.024 150.056 254.511 150.056 255.163C150.056 256.215 149.145 256.765 148.045 256.765ZM148.045 253.474C148.532 253.474 148.886 253.199 148.886 252.728C148.886 252.265 148.532 251.966 148.045 251.966C147.558 251.966 147.205 252.265 147.205 252.728C147.205 253.199 147.558 253.474 148.045 253.474ZM148.045 255.964C148.579 255.964 149.027 255.65 149.027 255.084C149.027 254.519 148.603 254.189 148.045 254.189C147.488 254.189 147.064 254.519 147.064 255.084C147.064 255.65 147.511 255.964 148.045 255.964ZM151.897 256.765C151.52 256.765 151.261 256.545 151.261 256.184C151.261 255.815 151.52 255.595 151.897 255.595C152.259 255.595 152.526 255.815 152.526 256.184C152.526 256.545 152.259 256.765 151.897 256.765ZM155.64 255.917C156.111 255.917 156.684 255.642 156.684 254.904C156.684 254.173 156.166 253.851 155.553 253.851C155.192 253.851 154.831 253.969 154.58 254.134L154.116 253.859L154.627 251.259H157.509L157.501 252.1H155.271L155.011 253.309C155.271 253.199 155.593 253.129 155.923 253.129C156.912 253.129 157.721 253.78 157.721 254.919C157.721 256.105 156.724 256.765 155.601 256.765C154.572 256.765 153.873 256.05 153.739 255.862L154.281 255.218C154.556 255.563 155.019 255.917 155.64 255.917ZM159.877 252.029H158.856V251.259H160.866V256.679H159.877V252.029ZM163.396 256.765C163.019 256.765 162.76 256.545 162.76 256.184C162.76 255.815 163.019 255.595 163.396 255.595C163.758 255.595 164.025 255.815 164.025 256.184C164.025 256.545 163.758 256.765 163.396 256.765ZM165.986 252.029H164.965V251.259H166.975V256.679H165.986V252.029ZM168.461 253.977C168.461 252.555 169.136 251.181 170.652 251.181C172.168 251.181 172.835 252.555 172.835 253.977C172.835 255.398 172.168 256.773 170.652 256.773C169.128 256.773 168.461 255.398 168.461 253.977ZM171.799 253.961C171.799 252.854 171.437 252.06 170.652 252.06C169.867 252.06 169.497 252.854 169.497 253.961C169.497 255.061 169.867 255.862 170.652 255.862C171.437 255.862 171.799 255.061 171.799 253.961ZM173.459 253.977C173.459 252.555 174.135 251.181 175.651 251.181C177.167 251.181 177.834 252.555 177.834 253.977C177.834 255.398 177.167 256.773 175.651 256.773C174.127 256.773 173.459 255.398 173.459 253.977ZM176.798 253.961C176.798 252.854 176.436 252.06 175.651 252.06C174.865 252.06 174.496 252.854 174.496 253.961C174.496 255.061 174.865 255.862 175.651 255.862C176.436 255.862 176.798 255.061 176.798 253.961ZM179.349 256.765C178.972 256.765 178.713 256.545 178.713 256.184C178.713 255.815 178.972 255.595 179.349 255.595C179.711 255.595 179.978 255.815 179.978 256.184C179.978 256.545 179.711 256.765 179.349 256.765ZM183.092 255.917C183.563 255.917 184.137 255.642 184.137 254.904C184.137 254.173 183.618 253.851 183.005 253.851C182.644 253.851 182.283 253.969 182.032 254.134L181.568 253.859L182.079 251.259H184.961L184.953 252.1H182.723L182.464 253.309C182.723 253.199 183.045 253.129 183.375 253.129C184.364 253.129 185.173 253.78 185.173 254.919C185.173 256.105 184.176 256.765 183.053 256.765C182.024 256.765 181.325 256.05 181.191 255.862L181.733 255.218C182.008 255.563 182.471 255.917 183.092 255.917Z" fill="white"/>
<g clip-path="url(#clip4_14221_4253)">
<path d="M151.863 281.156L162.139 288.424C162.218 288.48 162.265 288.571 162.265 288.668V300.734C162.265 300.899 162.131 301.033 161.966 301.033H154.98C154.815 301.033 154.682 300.899 154.682 300.734V294.261H148.701V300.734C148.701 300.899 148.567 301.033 148.402 301.033H141.416C141.251 301.033 141.117 300.899 141.117 300.734V288.668C141.117 288.571 141.164 288.48 141.243 288.424L151.519 281.156C151.622 281.083 151.76 281.083 151.863 281.156Z" fill="#15C1E6"/>
<path d="M165.032 284.906L160.591 281.765V277.625C160.591 277.398 160.407 277.213 160.179 277.213H157.696C157.468 277.213 157.284 277.398 157.284 277.625V279.426L152.52 276.056C152.024 275.705 151.36 275.705 150.864 276.056L138.352 284.906C137.705 285.363 137.552 286.258 138.009 286.904C138.467 287.552 139.362 287.704 140.008 287.247L151.692 278.982L163.377 287.247C163.628 287.425 163.917 287.51 164.204 287.51C164.653 287.51 165.096 287.299 165.375 286.904C165.832 286.258 165.679 285.363 165.032 284.906V284.906Z" fill="#15C1E6"/>
</g>
</g>
<g opacity="0.32">
<g clip-path="url(#clip5_14221_4253)">
<path d="M224.155 281.264L232.248 286.988C232.31 287.032 232.347 287.104 232.347 287.18V296.683C232.347 296.813 232.242 296.918 232.112 296.918H226.61C226.48 296.918 226.375 296.813 226.375 296.683V291.585H221.664V296.683C221.664 296.813 221.559 296.918 221.429 296.918H215.926C215.797 296.918 215.691 296.813 215.691 296.683V287.18C215.691 287.104 215.728 287.032 215.791 286.988L223.883 281.264C223.965 281.206 224.074 281.206 224.155 281.264Z" fill="#15C1E6"/>
<path d="M234.526 284.217L231.028 281.743V278.483C231.028 278.304 230.883 278.159 230.703 278.159H228.747C228.568 278.159 228.423 278.304 228.423 278.483V279.901L224.671 277.247C224.281 276.971 223.758 276.971 223.367 277.247L213.512 284.217C213.003 284.577 212.882 285.282 213.243 285.791C213.603 286.301 214.308 286.421 214.816 286.061L224.019 279.552L233.222 286.061C233.42 286.201 233.647 286.268 233.873 286.268C234.227 286.268 234.575 286.102 234.795 285.791C235.156 285.282 235.035 284.577 234.526 284.217V284.217Z" fill="#15C1E6"/>
</g>
</g>
<g opacity="0.3">
<g filter="url(#filter6_dd_14221_4253)">
<rect x="362.004" y="156.445" width="66.2941" height="20.9082" rx="4.07964" fill="url(#paint17_linear_14221_4253)"/>
<rect x="361.575" y="156.017" width="67.1516" height="21.7657" rx="4.50839" stroke="url(#paint18_linear_14221_4253)" stroke-width="0.8575"/>
</g>
<path fill-rule="evenodd" clip-rule="evenodd" d="M370.025 169.293C369.146 168.415 368.603 167.201 368.603 165.86C368.603 163.179 370.776 161.006 373.457 161.006C376.138 161.006 378.311 163.179 378.311 165.86C378.311 167.201 377.768 168.415 376.889 169.293L376.89 169.294L373.457 172.726L370.025 169.294L370.025 169.293Z" fill="#15C1E6"/>
<path d="M382.231 168.577L383.665 167.251C383.995 166.945 384.295 166.603 384.295 166.195C384.295 165.781 384.031 165.517 383.563 165.517C383.041 165.517 382.747 165.847 382.549 166.069L382.189 165.595C382.321 165.403 382.747 164.875 383.623 164.875C384.505 164.875 385.075 165.361 385.075 166.093C385.075 166.801 384.517 167.323 384.259 167.569L383.335 168.433H385.249V169.075H382.333L382.231 168.577ZM385.834 167.011C385.834 165.925 386.35 164.875 387.508 164.875C388.666 164.875 389.176 165.925 389.176 167.011C389.176 168.097 388.666 169.147 387.508 169.147C386.344 169.147 385.834 168.097 385.834 167.011ZM388.384 166.999C388.384 166.153 388.108 165.547 387.508 165.547C386.908 165.547 386.626 166.153 386.626 166.999C386.626 167.839 386.908 168.451 387.508 168.451C388.108 168.451 388.384 167.839 388.384 166.999ZM392.016 166.927C392.352 167.005 392.796 167.287 392.796 167.881C392.796 168.673 392.106 169.141 391.26 169.141C390.474 169.141 389.94 168.595 389.838 168.451L390.252 167.959C390.462 168.223 390.816 168.493 391.29 168.493C391.764 168.493 392.022 168.289 392.022 167.851C392.022 167.419 391.626 167.221 391.2 167.221H390.924V166.651H391.26C391.644 166.651 391.908 166.447 391.908 166.069C391.908 165.739 391.65 165.517 391.23 165.517C390.858 165.517 390.564 165.673 390.366 165.919L389.976 165.481C390.168 165.247 390.642 164.875 391.296 164.875C392.064 164.875 392.664 165.277 392.664 165.967C392.664 166.465 392.286 166.813 392.016 166.909V166.927ZM394.269 169.141C393.981 169.141 393.783 168.973 393.783 168.697C393.783 168.415 393.981 168.247 394.269 168.247C394.545 168.247 394.749 168.415 394.749 168.697C394.749 168.973 394.545 169.141 394.269 169.141ZM395.415 167.011C395.415 165.925 395.931 164.875 397.089 164.875C398.247 164.875 398.757 165.925 398.757 167.011C398.757 168.097 398.247 169.147 397.089 169.147C395.925 169.147 395.415 168.097 395.415 167.011ZM397.965 166.999C397.965 166.153 397.689 165.547 397.089 165.547C396.489 165.547 396.207 166.153 396.207 166.999C396.207 167.839 396.489 168.451 397.089 168.451C397.689 168.451 397.965 167.839 397.965 166.999ZM399.914 169.141C399.626 169.141 399.428 168.973 399.428 168.697C399.428 168.415 399.626 168.247 399.914 168.247C400.19 168.247 400.394 168.415 400.394 168.697C400.394 168.973 400.19 169.141 399.914 169.141ZM401.892 165.523H401.112V164.935H402.648V169.075H401.892V165.523ZM404.797 165.523H404.017V164.935H405.553V169.075H404.797V165.523ZM409.052 166.927C409.388 167.005 409.832 167.287 409.832 167.881C409.832 168.673 409.142 169.141 408.296 169.141C407.51 169.141 406.976 168.595 406.874 168.451L407.288 167.959C407.498 168.223 407.852 168.493 408.326 168.493C408.8 168.493 409.058 168.289 409.058 167.851C409.058 167.419 408.662 167.221 408.236 167.221H407.96V166.651H408.296C408.68 166.651 408.944 166.447 408.944 166.069C408.944 165.739 408.686 165.517 408.266 165.517C407.894 165.517 407.6 165.673 407.402 165.919L407.012 165.481C407.204 165.247 407.678 164.875 408.332 164.875C409.1 164.875 409.7 165.277 409.7 165.967C409.7 166.465 409.322 166.813 409.052 166.909V166.927ZM411.304 169.141C411.016 169.141 410.818 168.973 410.818 168.697C410.818 168.415 411.016 168.247 411.304 168.247C411.58 168.247 411.784 168.415 411.784 168.697C411.784 168.973 411.58 169.141 411.304 169.141ZM414.887 165.583H412.631V164.935H415.517L415.727 165.391L413.807 169.075H413.027L414.887 165.583ZM417.677 168.493C418.037 168.493 418.475 168.283 418.475 167.719C418.475 167.161 418.079 166.915 417.611 166.915C417.335 166.915 417.059 167.005 416.867 167.131L416.513 166.921L416.903 164.935H419.105L419.099 165.577H417.395L417.197 166.501C417.395 166.417 417.641 166.363 417.893 166.363C418.649 166.363 419.267 166.861 419.267 167.731C419.267 168.637 418.505 169.141 417.647 169.141C416.861 169.141 416.327 168.595 416.225 168.451L416.639 167.959C416.849 168.223 417.203 168.493 417.677 168.493Z" fill="white"/>
<g clip-path="url(#clip6_14221_4253)">
<path d="M395.358 188.448L403.526 194.225C403.589 194.269 403.626 194.342 403.626 194.418V204.01C403.626 204.141 403.52 204.247 403.389 204.247H397.836C397.705 204.247 397.599 204.141 397.599 204.01V198.865H392.844V204.01C392.844 204.141 392.738 204.247 392.607 204.247H387.054C386.923 204.247 386.816 204.141 386.816 204.01V194.419C386.816 194.342 386.854 194.269 386.917 194.225L395.084 188.448C395.166 188.39 395.276 188.39 395.358 188.448Z" fill="#15C1E6"/>
<path d="M405.826 191.428L402.296 188.931V185.641C402.296 185.46 402.149 185.314 401.968 185.314H399.994C399.813 185.314 399.667 185.46 399.667 185.641V187.072L395.88 184.394C395.486 184.115 394.958 184.115 394.564 184.394L384.618 191.428C384.104 191.792 383.983 192.503 384.346 193.017C384.71 193.531 385.421 193.652 385.934 193.289L395.222 186.72L404.51 193.289C404.71 193.431 404.939 193.498 405.167 193.498C405.524 193.498 405.876 193.331 406.098 193.017C406.462 192.503 406.34 191.792 405.826 191.428V191.428Z" fill="#15C1E6"/>
</g>
</g>
<g opacity="0.3">
<g filter="url(#filter7_dd_14221_4253)">
<rect x="321.703" y="390.543" width="65.2249" height="20.5709" rx="4.01384" fill="url(#paint19_linear_14221_4253)"/>
<rect x="321.274" y="390.114" width="66.0824" height="21.4284" rx="4.44259" stroke="url(#paint20_linear_14221_4253)" stroke-width="0.8575"/>
</g>
<path fill-rule="evenodd" clip-rule="evenodd" d="M329.596 403.184C328.732 402.319 328.197 401.125 328.197 399.806C328.197 397.168 330.335 395.03 332.973 395.03C335.61 395.03 337.749 397.168 337.749 399.806C337.749 401.125 337.214 402.319 336.349 403.184L336.35 403.184L332.973 406.561L329.596 403.184L329.596 403.184Z" fill="#15C1E6"/>
<path d="M342.365 399.513H341.585V398.925H343.121V403.065H342.365V399.513ZM344.754 402.213C344.958 402.363 345.276 402.525 345.684 402.525C345.99 402.525 346.23 402.459 346.404 402.249C346.602 402.015 346.704 401.601 346.704 401.055C346.584 401.283 346.266 401.589 345.624 401.589C344.976 401.589 344.346 401.163 344.346 400.317C344.346 399.513 344.91 398.865 345.828 398.865C346.53 398.865 346.896 399.207 347.088 399.501C347.262 399.759 347.442 400.269 347.442 400.941C347.442 401.679 347.28 402.273 346.962 402.633C346.686 402.957 346.242 403.137 345.708 403.137C345.012 403.137 344.604 402.861 344.46 402.747L344.754 402.213ZM346.62 400.239C346.62 399.825 346.35 399.447 345.852 399.447C345.354 399.447 345.09 399.825 345.09 400.239C345.09 400.653 345.354 401.037 345.852 401.037C346.35 401.037 346.62 400.701 346.62 400.239ZM348.232 402.567L349.666 401.241C349.996 400.935 350.296 400.593 350.296 400.185C350.296 399.771 350.032 399.507 349.564 399.507C349.042 399.507 348.748 399.837 348.55 400.059L348.19 399.585C348.322 399.393 348.748 398.865 349.624 398.865C350.506 398.865 351.076 399.351 351.076 400.083C351.076 400.791 350.518 401.313 350.26 401.559L349.336 402.423H351.25V403.065H348.334L348.232 402.567ZM352.632 403.131C352.344 403.131 352.146 402.963 352.146 402.687C352.146 402.405 352.344 402.237 352.632 402.237C352.908 402.237 353.112 402.405 353.112 402.687C353.112 402.963 352.908 403.131 352.632 403.131ZM354.61 399.513H353.83V398.925H355.366V403.065H354.61V399.513ZM359.309 399.789C359.087 399.609 358.787 399.477 358.439 399.477C358.127 399.477 357.911 399.579 357.731 399.783C357.551 399.993 357.395 400.377 357.395 400.923C357.635 400.611 357.953 400.401 358.499 400.401C359.147 400.401 359.753 400.821 359.753 401.685C359.753 402.489 359.189 403.137 358.271 403.137C357.539 403.137 357.155 402.699 356.981 402.435C356.807 402.177 356.657 401.769 356.657 401.073C356.657 400.329 356.891 399.753 357.203 399.399C357.497 399.063 357.869 398.865 358.415 398.865C358.997 398.865 359.375 399.069 359.603 399.231L359.309 399.789ZM359.009 401.745C359.009 401.331 358.733 400.971 358.241 400.971C357.779 400.971 357.479 401.331 357.479 401.745C357.479 402.165 357.779 402.531 358.283 402.531C358.775 402.531 359.009 402.165 359.009 401.745ZM361.994 403.131C361.154 403.131 360.458 402.711 360.458 401.907C360.458 401.409 360.776 401.037 361.25 400.899V400.881C360.95 400.767 360.584 400.461 360.584 399.951C360.584 399.243 361.25 398.865 361.994 398.865C362.738 398.865 363.404 399.243 363.404 399.951C363.404 400.461 363.038 400.767 362.738 400.881V400.899C363.212 401.037 363.53 401.409 363.53 401.907C363.53 402.711 362.834 403.131 361.994 403.131ZM361.994 400.617C362.366 400.617 362.636 400.407 362.636 400.047C362.636 399.693 362.366 399.465 361.994 399.465C361.622 399.465 361.352 399.693 361.352 400.047C361.352 400.407 361.622 400.617 361.994 400.617ZM361.994 402.519C362.402 402.519 362.744 402.279 362.744 401.847C362.744 401.415 362.42 401.163 361.994 401.163C361.568 401.163 361.244 401.415 361.244 401.847C361.244 402.279 361.586 402.519 361.994 402.519ZM364.936 403.131C364.648 403.131 364.45 402.963 364.45 402.687C364.45 402.405 364.648 402.237 364.936 402.237C365.212 402.237 365.416 402.405 365.416 402.687C365.416 402.963 365.212 403.131 364.936 403.131ZM366.082 401.001C366.082 399.915 366.598 398.865 367.756 398.865C368.914 398.865 369.424 399.915 369.424 401.001C369.424 402.087 368.914 403.137 367.756 403.137C366.592 403.137 366.082 402.087 366.082 401.001ZM368.632 400.989C368.632 400.143 368.356 399.537 367.756 399.537C367.156 399.537 366.874 400.143 366.874 400.989C366.874 401.829 367.156 402.441 367.756 402.441C368.356 402.441 368.632 401.829 368.632 400.989ZM370.582 403.131C370.294 403.131 370.096 402.963 370.096 402.687C370.096 402.405 370.294 402.237 370.582 402.237C370.858 402.237 371.062 402.405 371.062 402.687C371.062 402.963 370.858 403.131 370.582 403.131ZM373.44 402.483C373.8 402.483 374.238 402.273 374.238 401.709C374.238 401.151 373.842 400.905 373.374 400.905C373.098 400.905 372.822 400.995 372.63 401.121L372.276 400.911L372.666 398.925H374.868L374.862 399.567H373.158L372.96 400.491C373.158 400.407 373.404 400.353 373.656 400.353C374.412 400.353 375.03 400.851 375.03 401.721C375.03 402.627 374.268 403.131 373.41 403.131C372.624 403.131 372.09 402.585 371.988 402.441L372.402 401.949C372.612 402.213 372.966 402.483 373.44 402.483ZM375.663 401.001C375.663 399.915 376.179 398.865 377.337 398.865C378.495 398.865 379.005 399.915 379.005 401.001C379.005 402.087 378.495 403.137 377.337 403.137C376.173 403.137 375.663 402.087 375.663 401.001ZM378.213 400.989C378.213 400.143 377.937 399.537 377.337 399.537C376.737 399.537 376.455 400.143 376.455 400.989C376.455 401.829 376.737 402.441 377.337 402.441C377.937 402.441 378.213 401.829 378.213 400.989Z" fill="white"/>
<g clip-path="url(#clip7_14221_4253)">
<path d="M354.517 422.053L362.553 427.736C362.615 427.78 362.652 427.851 362.652 427.927V437.363C362.652 437.492 362.547 437.597 362.418 437.597H356.955C356.826 437.597 356.722 437.492 356.722 437.363V432.301H352.044V437.363C352.044 437.492 351.939 437.597 351.811 437.597H346.347C346.218 437.597 346.113 437.492 346.113 437.363V427.927C346.113 427.851 346.15 427.78 346.212 427.737L354.248 422.053C354.329 421.995 354.436 421.995 354.517 422.053Z" fill="#15C1E6"/>
<path d="M364.816 424.985L361.343 422.529V419.291C361.343 419.113 361.198 418.969 361.021 418.969H359.078C358.9 418.969 358.756 419.113 358.756 419.291V420.699L355.031 418.064C354.643 417.79 354.124 417.79 353.736 418.064L343.95 424.985C343.445 425.343 343.325 426.043 343.682 426.548C344.041 427.054 344.74 427.173 345.245 426.816L354.383 420.353L363.521 426.816C363.718 426.955 363.943 427.022 364.168 427.022C364.519 427.022 364.865 426.857 365.084 426.548C365.441 426.043 365.322 425.343 364.816 424.985V424.985Z" fill="#15C1E6"/>
</g>
</g>
<g filter="url(#filter8_dd_14221_4253)">
<circle cx="331.564" cy="349.812" r="3.00125" fill="#15C1E6"/>
</g>
<g filter="url(#filter9_dd_14221_4253)">
<circle cx="172.927" cy="318.942" r="3.00125" fill="#15C1E6"/>
</g>
<g filter="url(#filter10_dd_14221_4253)">
<circle cx="309.267" cy="196.32" r="3.00125" fill="#15C1E6"/>
</g>
<g filter="url(#filter11_dd_14221_4253)">
<circle cx="290.404" cy="249.485" r="3.00125" fill="#15C1E6"/>
</g>
<g filter="url(#filter12_dd_14221_4253)">
<circle cx="291.263" cy="423.557" r="3.00125" fill="#15C1E6"/>
</g>
</g>
<defs>
<filter id="filter0_d_14221_4253" x="3.1782" y="11.9483" width="581.817" height="580.99" filterUnits="userSpaceOnUse" color-interpolation-filters="sRGB">
<feFlood flood-opacity="0" result="BackgroundImageFix"/>
<feColorMatrix in="SourceAlpha" type="matrix" values="0 0 0 0 0 0 0 0 0 0 0 0 0 0 0 0 0 0 127 0" result="hardAlpha"/>
<feOffset dx="-0.460336" dy="5.06369"/>
<feGaussianBlur stdDeviation="3.68268"/>
<feColorMatrix type="matrix" values="0 0 0 0 0.075 0 0 0 0 0.18 0 0 0 0 0.45 0 0 0 0.08 0"/>
<feBlend mode="normal" in2="BackgroundImageFix" result="effect1_dropShadow_14221_4253"/>
<feBlend mode="normal" in="SourceGraphic" in2="effect1_dropShadow_14221_4253" result="shape"/>
</filter>
<filter id="filter1_d_14221_4253" x="62.0337" y="70.7179" width="464.102" height="463.45" filterUnits="userSpaceOnUse" color-interpolation-filters="sRGB">
<feFlood flood-opacity="0" result="BackgroundImageFix"/>
<feColorMatrix in="SourceAlpha" type="matrix" values="0 0 0 0 0 0 0 0 0 0 0 0 0 0 0 0 0 0 127 0" result="hardAlpha"/>
<feOffset dx="-0.460336" dy="5.06369"/>
<feGaussianBlur stdDeviation="3.68268"/>
<feColorMatrix type="matrix" values="0 0 0 0 0.075 0 0 0 0 0.18 0 0 0 0 0.45 0 0 0 0.08 0"/>
<feBlend mode="normal" in2="BackgroundImageFix" result="effect1_dropShadow_14221_4253"/>
<feBlend mode="normal" in="SourceGraphic" in2="effect1_dropShadow_14221_4253" result="shape"/>
</filter>
<filter id="filter2_dd_14221_4253" x="331.134" y="244.768" width="166.806" height="67.8718" filterUnits="userSpaceOnUse" color-interpolation-filters="sRGB">
<feFlood flood-opacity="0" result="BackgroundImageFix"/>
<feColorMatrix in="SourceAlpha" type="matrix" values="0 0 0 0 0 0 0 0 0 0 0 0 0 0 0 0 0 0 127 0" result="hardAlpha"/>
<feOffset dx="4.2875" dy="4.2875"/>
<feGaussianBlur stdDeviation="4.2875"/>
<feColorMatrix type="matrix" values="0 0 0 0 0 0 0 0 0 0.296699 0 0 0 0 0.858629 0 0 0 0.08 0"/>
<feBlend mode="normal" in2="BackgroundImageFix" result="effect1_dropShadow_14221_4253"/>
<feColorMatrix in="SourceAlpha" type="matrix" values="0 0 0 0 0 0 0 0 0 0 0 0 0 0 0 0 0 0 127 0" result="hardAlpha"/>
<feOffset/>
<feGaussianBlur stdDeviation="3.00125"/>
<feComposite in2="hardAlpha" operator="out"/>
<feColorMatrix type="matrix" values="0 0 0 0 0.0354167 0 0 0 0 0.105426 0 0 0 0 0.2125 0 0 0 0.07 0"/>
<feBlend mode="normal" in2="effect1_dropShadow_14221_4253" result="effect2_dropShadow_14221_4253"/>
<feBlend mode="normal" in="SourceGraphic" in2="effect2_dropShadow_14221_4253" result="shape"/>
</filter>
<filter id="filter3_dd_14221_4253" x="135.781" y="334.103" width="150.049" height="60.7433" filterUnits="userSpaceOnUse" color-interpolation-filters="sRGB">
<feFlood flood-opacity="0" result="BackgroundImageFix"/>
<feColorMatrix in="SourceAlpha" type="matrix" values="0 0 0 0 0 0 0 0 0 0 0 0 0 0 0 0 0 0 127 0" result="hardAlpha"/>
<feOffset dx="3.87031" dy="3.87031"/>
<feGaussianBlur stdDeviation="3.87031"/>
<feColorMatrix type="matrix" values="0 0 0 0 0 0 0 0 0 0.296699 0 0 0 0 0.858629 0 0 0 0.08 0"/>
<feBlend mode="normal" in2="BackgroundImageFix" result="effect1_dropShadow_14221_4253"/>
<feColorMatrix in="SourceAlpha" type="matrix" values="0 0 0 0 0 0 0 0 0 0 0 0 0 0 0 0 0 0 127 0" result="hardAlpha"/>
<feOffset/>
<feGaussianBlur stdDeviation="2.70922"/>
<feComposite in2="hardAlpha" operator="out"/>
<feColorMatrix type="matrix" values="0 0 0 0 0.0354167 0 0 0 0 0.105426 0 0 0 0 0.2125 0 0 0 0.07 0"/>
<feBlend mode="normal" in2="effect1_dropShadow_14221_4253" result="effect2_dropShadow_14221_4253"/>
<feBlend mode="normal" in="SourceGraphic" in2="effect2_dropShadow_14221_4253" result="shape"/>
</filter>
<filter id="filter4_dd_14221_4253" x="157.781" y="110.857" width="147.283" height="60.1702" filterUnits="userSpaceOnUse" color-interpolation-filters="sRGB">
<feFlood flood-opacity="0" result="BackgroundImageFix"/>
<feColorMatrix in="SourceAlpha" type="matrix" values="0 0 0 0 0 0 0 0 0 0 0 0 0 0 0 0 0 0 127 0" result="hardAlpha"/>
<feOffset dx="3.77514" dy="3.77514"/>
<feGaussianBlur stdDeviation="3.77514"/>
<feColorMatrix type="matrix" values="0 0 0 0 0 0 0 0 0 0.296699 0 0 0 0 0.858629 0 0 0 0.08 0"/>
<feBlend mode="normal" in2="BackgroundImageFix" result="effect1_dropShadow_14221_4253"/>
<feColorMatrix in="SourceAlpha" type="matrix" values="0 0 0 0 0 0 0 0 0 0 0 0 0 0 0 0 0 0 127 0" result="hardAlpha"/>
<feOffset/>
<feGaussianBlur stdDeviation="2.6426"/>
<feComposite in2="hardAlpha" operator="out"/>
<feColorMatrix type="matrix" values="0 0 0 0 0.0354167 0 0 0 0 0.105426 0 0 0 0 0.2125 0 0 0 0.07 0"/>
<feBlend mode="normal" in2="effect1_dropShadow_14221_4253" result="effect2_dropShadow_14221_4253"/>
<feBlend mode="normal" in="SourceGraphic" in2="effect2_dropShadow_14221_4253" result="shape"/>
</filter>
<filter id="filter5_dd_14221_4253" x="105.153" y="236.588" width="96.8603" height="39.7636" filterUnits="userSpaceOnUse" color-interpolation-filters="sRGB">
<feFlood flood-opacity="0" result="BackgroundImageFix"/>
<feColorMatrix in="SourceAlpha" type="matrix" values="0 0 0 0 0 0 0 0 0 0 0 0 0 0 0 0 0 0 127 0" result="hardAlpha"/>
<feOffset dx="2.47446" dy="2.47446"/>
<feGaussianBlur stdDeviation="2.47446"/>
<feColorMatrix type="matrix" values="0 0 0 0 0 0 0 0 0 0.296699 0 0 0 0 0.858629 0 0 0 0.08 0"/>
<feBlend mode="normal" in2="BackgroundImageFix" result="effect1_dropShadow_14221_4253"/>
<feColorMatrix in="SourceAlpha" type="matrix" values="0 0 0 0 0 0 0 0 0 0 0 0 0 0 0 0 0 0 127 0" result="hardAlpha"/>
<feOffset/>
<feGaussianBlur stdDeviation="1.73212"/>
<feComposite in2="hardAlpha" operator="out"/>
<feColorMatrix type="matrix" values="0 0 0 0 0.0354167 0 0 0 0 0.105426 0 0 0 0 0.2125 0 0 0 0.07 0"/>
<feBlend mode="normal" in2="effect1_dropShadow_14221_4253" result="effect2_dropShadow_14221_4253"/>
<feBlend mode="normal" in="SourceGraphic" in2="effect2_dropShadow_14221_4253" result="shape"/>
</filter>
<filter id="filter6_dd_14221_4253" x="358.391" y="152.834" width="76.666" height="31.2773" filterUnits="userSpaceOnUse" color-interpolation-filters="sRGB">
<feFlood flood-opacity="0" result="BackgroundImageFix"/>
<feColorMatrix in="SourceAlpha" type="matrix" values="0 0 0 0 0 0 0 0 0 0 0 0 0 0 0 0 0 0 127 0" result="hardAlpha"/>
<feOffset dx="1.96688" dy="1.96688"/>
<feGaussianBlur stdDeviation="1.96688"/>
<feColorMatrix type="matrix" values="0 0 0 0 0 0 0 0 0 0.296699 0 0 0 0 0.858629 0 0 0 0.08 0"/>
<feBlend mode="normal" in2="BackgroundImageFix" result="effect1_dropShadow_14221_4253"/>
<feColorMatrix in="SourceAlpha" type="matrix" values="0 0 0 0 0 0 0 0 0 0 0 0 0 0 0 0 0 0 127 0" result="hardAlpha"/>
<feOffset/>
<feGaussianBlur stdDeviation="1.37682"/>
<feComposite in2="hardAlpha" operator="out"/>
<feColorMatrix type="matrix" values="0 0 0 0 0.0354167 0 0 0 0 0.105426 0 0 0 0 0.2125 0 0 0 0.07 0"/>
<feBlend mode="normal" in2="effect1_dropShadow_14221_4253" result="effect2_dropShadow_14221_4253"/>
<feBlend mode="normal" in="SourceGraphic" in2="effect2_dropShadow_14221_4253" result="shape"/>
</filter>
<filter id="filter7_dd_14221_4253" x="318.135" y="386.976" width="75.4561" height="30.8008" filterUnits="userSpaceOnUse" color-interpolation-filters="sRGB">
<feFlood flood-opacity="0" result="BackgroundImageFix"/>
<feColorMatrix in="SourceAlpha" type="matrix" values="0 0 0 0 0 0 0 0 0 0 0 0 0 0 0 0 0 0 127 0" result="hardAlpha"/>
<feOffset dx="1.93516" dy="1.93516"/>
<feGaussianBlur stdDeviation="1.93516"/>
<feColorMatrix type="matrix" values="0 0 0 0 0 0 0 0 0 0.296699 0 0 0 0 0.858629 0 0 0 0.08 0"/>
<feBlend mode="normal" in2="BackgroundImageFix" result="effect1_dropShadow_14221_4253"/>
<feColorMatrix in="SourceAlpha" type="matrix" values="0 0 0 0 0 0 0 0 0 0 0 0 0 0 0 0 0 0 127 0" result="hardAlpha"/>
<feOffset/>
<feGaussianBlur stdDeviation="1.35461"/>
<feComposite in2="hardAlpha" operator="out"/>
<feColorMatrix type="matrix" values="0 0 0 0 0.0354167 0 0 0 0 0.105426 0 0 0 0 0.2125 0 0 0 0.07 0"/>
<feBlend mode="normal" in2="effect1_dropShadow_14221_4253" result="effect2_dropShadow_14221_4253"/>
<feBlend mode="normal" in="SourceGraphic" in2="effect2_dropShadow_14221_4253" result="shape"/>
</filter>
<filter id="filter8_dd_14221_4253" x="315.7" y="333.948" width="31.7289" height="31.7279" filterUnits="userSpaceOnUse" color-interpolation-filters="sRGB">
<feFlood flood-opacity="0" result="BackgroundImageFix"/>
<feColorMatrix in="SourceAlpha" type="matrix" values="0 0 0 0 0 0 0 0 0 0 0 0 0 0 0 0 0 0 127 0" result="hardAlpha"/>
<feOffset/>
<feGaussianBlur stdDeviation="2.5725"/>
<feColorMatrix type="matrix" values="0 0 0 0 0.0823529 0 0 0 0 0.756863 0 0 0 0 0.901961 0 0 0 1 0"/>
<feBlend mode="normal" in2="BackgroundImageFix" result="effect1_dropShadow_14221_4253"/>
<feColorMatrix in="SourceAlpha" type="matrix" values="0 0 0 0 0 0 0 0 0 0 0 0 0 0 0 0 0 0 127 0" result="hardAlpha"/>
<feOffset/>
<feGaussianBlur stdDeviation="6.43125"/>
<feColorMatrix type="matrix" values="0 0 0 0 0.0823529 0 0 0 0 0.756863 0 0 0 0 0.901961 0 0 0 1 0"/>
<feBlend mode="normal" in2="effect1_dropShadow_14221_4253" result="effect2_dropShadow_14221_4253"/>
<feBlend mode="normal" in="SourceGraphic" in2="effect2_dropShadow_14221_4253" result="shape"/>
</filter>
<filter id="filter9_dd_14221_4253" x="157.063" y="303.078" width="31.7289" height="31.7279" filterUnits="userSpaceOnUse" color-interpolation-filters="sRGB">
<feFlood flood-opacity="0" result="BackgroundImageFix"/>
<feColorMatrix in="SourceAlpha" type="matrix" values="0 0 0 0 0 0 0 0 0 0 0 0 0 0 0 0 0 0 127 0" result="hardAlpha"/>
<feOffset/>
<feGaussianBlur stdDeviation="2.5725"/>
<feColorMatrix type="matrix" values="0 0 0 0 0.0823529 0 0 0 0 0.756863 0 0 0 0 0.901961 0 0 0 1 0"/>
<feBlend mode="normal" in2="BackgroundImageFix" result="effect1_dropShadow_14221_4253"/>
<feColorMatrix in="SourceAlpha" type="matrix" values="0 0 0 0 0 0 0 0 0 0 0 0 0 0 0 0 0 0 127 0" result="hardAlpha"/>
<feOffset/>
<feGaussianBlur stdDeviation="6.43125"/>
<feColorMatrix type="matrix" values="0 0 0 0 0.0823529 0 0 0 0 0.756863 0 0 0 0 0.901961 0 0 0 1 0"/>
<feBlend mode="normal" in2="effect1_dropShadow_14221_4253" result="effect2_dropShadow_14221_4253"/>
<feBlend mode="normal" in="SourceGraphic" in2="effect2_dropShadow_14221_4253" result="shape"/>
</filter>
<filter id="filter10_dd_14221_4253" x="293.403" y="180.456" width="31.7289" height="31.7279" filterUnits="userSpaceOnUse" color-interpolation-filters="sRGB">
<feFlood flood-opacity="0" result="BackgroundImageFix"/>
<feColorMatrix in="SourceAlpha" type="matrix" values="0 0 0 0 0 0 0 0 0 0 0 0 0 0 0 0 0 0 127 0" result="hardAlpha"/>
<feOffset/>
<feGaussianBlur stdDeviation="2.5725"/>
<feColorMatrix type="matrix" values="0 0 0 0 0.0823529 0 0 0 0 0.756863 0 0 0 0 0.901961 0 0 0 1 0"/>
<feBlend mode="normal" in2="BackgroundImageFix" result="effect1_dropShadow_14221_4253"/>
<feColorMatrix in="SourceAlpha" type="matrix" values="0 0 0 0 0 0 0 0 0 0 0 0 0 0 0 0 0 0 127 0" result="hardAlpha"/>
<feOffset/>
<feGaussianBlur stdDeviation="6.43125"/>
<feColorMatrix type="matrix" values="0 0 0 0 0.0823529 0 0 0 0 0.756863 0 0 0 0 0.901961 0 0 0 1 0"/>
<feBlend mode="normal" in2="effect1_dropShadow_14221_4253" result="effect2_dropShadow_14221_4253"/>
<feBlend mode="normal" in="SourceGraphic" in2="effect2_dropShadow_14221_4253" result="shape"/>
</filter>
<filter id="filter11_dd_14221_4253" x="274.54" y="233.621" width="31.7289" height="31.7279" filterUnits="userSpaceOnUse" color-interpolation-filters="sRGB">
<feFlood flood-opacity="0" result="BackgroundImageFix"/>
<feColorMatrix in="SourceAlpha" type="matrix" values="0 0 0 0 0 0 0 0 0 0 0 0 0 0 0 0 0 0 127 0" result="hardAlpha"/>
<feOffset/>
<feGaussianBlur stdDeviation="2.5725"/>
<feColorMatrix type="matrix" values="0 0 0 0 0.0823529 0 0 0 0 0.756863 0 0 0 0 0.901961 0 0 0 1 0"/>
<feBlend mode="normal" in2="BackgroundImageFix" result="effect1_dropShadow_14221_4253"/>
<feColorMatrix in="SourceAlpha" type="matrix" values="0 0 0 0 0 0 0 0 0 0 0 0 0 0 0 0 0 0 127 0" result="hardAlpha"/>
<feOffset/>
<feGaussianBlur stdDeviation="6.43125"/>
<feColorMatrix type="matrix" values="0 0 0 0 0.0823529 0 0 0 0 0.756863 0 0 0 0 0.901961 0 0 0 1 0"/>
<feBlend mode="normal" in2="effect1_dropShadow_14221_4253" result="effect2_dropShadow_14221_4253"/>
<feBlend mode="normal" in="SourceGraphic" in2="effect2_dropShadow_14221_4253" result="shape"/>
</filter>
<filter id="filter12_dd_14221_4253" x="275.399" y="407.693" width="31.7289" height="31.7279" filterUnits="userSpaceOnUse" color-interpolation-filters="sRGB">
<feFlood flood-opacity="0" result="BackgroundImageFix"/>
<feColorMatrix in="SourceAlpha" type="matrix" values="0 0 0 0 0 0 0 0 0 0 0 0 0 0 0 0 0 0 127 0" result="hardAlpha"/>
<feOffset/>
<feGaussianBlur stdDeviation="2.5725"/>
<feColorMatrix type="matrix" values="0 0 0 0 0.0823529 0 0 0 0 0.756863 0 0 0 0 0.901961 0 0 0 1 0"/>
<feBlend mode="normal" in2="BackgroundImageFix" result="effect1_dropShadow_14221_4253"/>
<feColorMatrix in="SourceAlpha" type="matrix" values="0 0 0 0 0 0 0 0 0 0 0 0 0 0 0 0 0 0 127 0" result="hardAlpha"/>
<feOffset/>
<feGaussianBlur stdDeviation="6.43125"/>
<feColorMatrix type="matrix" values="0 0 0 0 0.0823529 0 0 0 0 0.756863 0 0 0 0 0.901961 0 0 0 1 0"/>
<feBlend mode="normal" in2="effect1_dropShadow_14221_4253" result="effect2_dropShadow_14221_4253"/>
<feBlend mode="normal" in="SourceGraphic" in2="effect2_dropShadow_14221_4253" result="shape"/>
</filter>
<radialGradient id="paint0_radial_14221_4253" cx="0" cy="0" r="1" gradientUnits="userSpaceOnUse" gradientTransform="translate(295.698 277.529) rotate(90) scale(121.603 331.573)">
<stop stop-color="#092349"/>
<stop offset="0.515625" stop-color="#092349" stop-opacity="0.8"/>
<stop offset="0.739583" stop-color="#092349" stop-opacity="0"/>
<stop offset="1" stop-color="#092349" stop-opacity="0"/>
</radialGradient>
<linearGradient id="paint1_linear_14221_4253" x1="294.555" y1="173.595" x2="294.555" y2="412.969" gradientUnits="userSpaceOnUse">
<stop stop-color="#303B45" stop-opacity="0"/>
<stop offset="0.171669" stop-color="#0C1014" stop-opacity="0.744681"/>
<stop offset="0.489583" stop-color="#000203"/>
<stop offset="0.807945" stop-color="#0D1115" stop-opacity="0.72449"/>
<stop offset="1" stop-color="#303B45" stop-opacity="0"/>
</linearGradient>
<linearGradient id="paint2_linear_14221_4253" x1="11.5469" y1="278.915" x2="578.873" y2="286.096" gradientUnits="userSpaceOnUse">
<stop stop-color="#15C1E6"/>
<stop offset="1" stop-color="#1089A3"/>
</linearGradient>
<linearGradient id="paint3_linear_14221_4253" x1="70.8933" y1="282.787" x2="519.247" y2="288.463" gradientUnits="userSpaceOnUse">
<stop stop-color="#15C1E6"/>
<stop offset="1" stop-color="#1089A3"/>
</linearGradient>
<radialGradient id="paint4_radial_14221_4253" cx="0" cy="0" r="1" gradientUnits="userSpaceOnUse" gradientTransform="translate(105.772 207.051) rotate(8.42909) scale(280.705 327.169)">
<stop stop-color="#15C1E6"/>
<stop offset="0.869792" stop-color="#15C1E6" stop-opacity="0"/>
</radialGradient>
<linearGradient id="paint5_linear_14221_4253" x1="406.351" y1="178.708" x2="406.345" y2="178.725" gradientUnits="userSpaceOnUse">
<stop stop-color="#15C1E6"/>
<stop offset="1" stop-color="#15C1E6" stop-opacity="0"/>
</linearGradient>
<radialGradient id="paint6_radial_14221_4253" cx="0" cy="0" r="1" gradientUnits="userSpaceOnUse" gradientTransform="translate(538.219 251.199) rotate(148.078) scale(219.738 168.524)">
<stop stop-color="#15C1E6"/>
<stop offset="1" stop-color="#15C1E6" stop-opacity="0"/>
</radialGradient>
<linearGradient id="paint7_linear_14221_4253" x1="408.981" y1="180.301" x2="408.488" y2="181.351" gradientUnits="userSpaceOnUse">
<stop stop-color="#15C1E6"/>
<stop offset="1" stop-color="#15C1E6" stop-opacity="0"/>
</linearGradient>
<linearGradient id="paint8_linear_14221_4253" x1="406.969" y1="178.371" x2="406.461" y2="179.534" gradientUnits="userSpaceOnUse">
<stop stop-color="#15C1E6"/>
<stop offset="1" stop-color="#15C1E6" stop-opacity="0"/>
</linearGradient>
<linearGradient id="paint9_linear_14221_4253" x1="491.908" y1="233.148" x2="465.04" y2="333.436" gradientUnits="userSpaceOnUse">
<stop stop-color="#0A479C"/>
<stop offset="1" stop-color="#091B36"/>
</linearGradient>
<linearGradient id="paint10_linear_14221_4253" x1="354.987" y1="295.582" x2="389.495" y2="213.519" gradientUnits="userSpaceOnUse">
<stop stop-color="#1B4582"/>
<stop offset="1" stop-color="#3160A6"/>
</linearGradient>
<linearGradient id="paint11_linear_14221_4253" x1="280.648" y1="323.352" x2="256.394" y2="413.881" gradientUnits="userSpaceOnUse">
<stop stop-color="#0A479C"/>
<stop offset="1" stop-color="#091B36"/>
</linearGradient>
<linearGradient id="paint12_linear_14221_4253" x1="157.05" y1="379.71" x2="188.2" y2="305.633" gradientUnits="userSpaceOnUse">
<stop stop-color="#1B4582"/>
<stop offset="1" stop-color="#3160A6"/>
</linearGradient>
<linearGradient id="paint13_linear_14221_4253" x1="299.548" y1="100.831" x2="275.89" y2="189.134" gradientUnits="userSpaceOnUse">
<stop stop-color="#0A479C"/>
<stop offset="1" stop-color="#091B36"/>
</linearGradient>
<linearGradient id="paint14_linear_14221_4253" x1="178.988" y1="155.804" x2="209.373" y2="83.5474" gradientUnits="userSpaceOnUse">
<stop stop-color="#1B4582"/>
<stop offset="1" stop-color="#3160A6"/>
</linearGradient>
<linearGradient id="paint15_linear_14221_4253" x1="198.237" y1="230.178" x2="182.73" y2="288.057" gradientUnits="userSpaceOnUse">
<stop stop-color="#0A479C"/>
<stop offset="1" stop-color="#091B36"/>
</linearGradient>
<linearGradient id="paint16_linear_14221_4253" x1="119.215" y1="266.21" x2="139.131" y2="218.849" gradientUnits="userSpaceOnUse">
<stop stop-color="#1B4582"/>
<stop offset="1" stop-color="#3160A6"/>
</linearGradient>
<linearGradient id="paint17_linear_14221_4253" x1="432.218" y1="147.574" x2="419.893" y2="193.581" gradientUnits="userSpaceOnUse">
<stop stop-color="#0A479C"/>
<stop offset="1" stop-color="#091B36"/>
</linearGradient>
<linearGradient id="paint18_linear_14221_4253" x1="369.406" y1="176.216" x2="385.237" y2="138.57" gradientUnits="userSpaceOnUse">
<stop stop-color="#1B4582"/>
<stop offset="1" stop-color="#3160A6"/>
</linearGradient>
<linearGradient id="paint19_linear_14221_4253" x1="390.785" y1="381.815" x2="378.658" y2="427.08" gradientUnits="userSpaceOnUse">
<stop stop-color="#0A479C"/>
<stop offset="1" stop-color="#091B36"/>
</linearGradient>
<linearGradient id="paint20_linear_14221_4253" x1="328.986" y1="409.994" x2="344.561" y2="372.955" gradientUnits="userSpaceOnUse">
<stop stop-color="#1B4582"/>
<stop offset="1" stop-color="#3160A6"/>
</linearGradient>
<clipPath id="clip0_14221_4253">
<rect width="575.382" height="343" fill="white" transform="translate(7 117)"/>
</clipPath>
<clipPath id="clip1_14221_4253">
<rect width="48.3289" height="43.7325" fill="white" transform="translate(389.914 310.925)"/>
</clipPath>
<clipPath id="clip2_14221_4253">
<rect width="43.6264" height="39.4772" fill="white" transform="translate(186.039 393.724)"/>
</clipPath>
<clipPath id="clip3_14221_4253">
<rect width="42.5536" height="38.5065" fill="white" transform="translate(207.262 169.521)"/>
</clipPath>
<clipPath id="clip4_14221_4253">
<rect width="27.8923" height="25.2395" fill="white" transform="translate(137.746 275.793)"/>
</clipPath>
<clipPath id="clip5_14221_4253">
<rect width="21.9677" height="19.8784" fill="white" transform="translate(213.035 277.04)"/>
</clipPath>
<clipPath id="clip6_14221_4253">
<rect width="22.1708" height="20.0622" fill="white" transform="translate(384.137 184.185)"/>
</clipPath>
<clipPath id="clip7_14221_4253">
<rect width="21.8132" height="19.7386" fill="white" transform="translate(343.477 417.858)"/>
</clipPath>
</defs>
</svg>
