<svg xmlns="http://www.w3.org/2000/svg" width="179" height="202" viewBox="0 0 179 202" fill="none"><mask id="mask0" maskUnits="userSpaceOnUse" x="0" y="0" width="179" height="202"><rect width="178.563" height="202" fill="#C4C4C4"></rect></mask><g mask="url(#mask0)"><g opacity="0.7"><mask id="mask1" maskUnits="userSpaceOnUse" x="11" y="80" width="156" height="121"><rect x="11.1895" y="80.3544" width="155.127" height="120.53" fill="#C4C4C4"></rect></mask><g mask="url(#mask1)"><circle cx="89.3262" cy="199.767" r="69.1934" fill="#E7EEFF"></circle></g></g><path d="M18.4277 201.934H158.425" stroke="#3D7FFC" stroke-miterlimit="10" stroke-linecap="round" stroke-linejoin="round"></path><path d="M75.7383 167.086V102.706H86.3619V154.092" stroke="#3D7FFC" stroke-miterlimit="10" stroke-linecap="round" stroke-linejoin="round"></path><path d="M93.4492 154.092V102.706H104.073V167.086" stroke="#3D7FFC" stroke-miterlimit="10" stroke-linecap="round" stroke-linejoin="round"></path><path d="M93.4492 102.706V91.4841H101.122V101.525" stroke="#3D7FFC" stroke-miterlimit="10" stroke-linecap="round" stroke-linejoin="round"></path><path d="M78.7109 101.525V91.4841H86.3836V102.706" stroke="#3D7FFC" stroke-miterlimit="10" stroke-linecap="round" stroke-linejoin="round"></path><path d="M83.4336 91.4854V84.9883H97.0083V91.4854" stroke="#3D7FFC" stroke-miterlimit="10" stroke-linecap="round" stroke-linejoin="round"></path><path d="M83.5918 84.9876L84.7132 81.4437H96.9304L97.6387 84.7513" stroke="#3D7FFC" stroke-miterlimit="10" stroke-linecap="round" stroke-linejoin="round"></path><path d="M90.7471 37.6769L89.9208 59.8851L88.4453 66.6775H86.9698L84.668 81.5617" stroke="#3D7FFC" stroke-miterlimit="10" stroke-linecap="round" stroke-linejoin="round"></path><path d="M90.9297 37.6769L91.756 59.8851L93.8217 66.6775H95.1201L97.0088 81.5617" stroke="#3D7FFC" stroke-miterlimit="10" stroke-linecap="round" stroke-linejoin="round"></path><path d="M83.4336 168.268V154.683H95.8279V168.268" stroke="#3D7FFC" stroke-miterlimit="10" stroke-linecap="round" stroke-linejoin="round"></path><path d="M72.1953 201.344V168.268H85.77V201.344" stroke="#3D7FFC" stroke-miterlimit="10" stroke-linecap="round" stroke-linejoin="round"></path><path d="M93.4492 201.344V168.268H106.434V201.344" stroke="#3D7FFC" stroke-miterlimit="10" stroke-linecap="round" stroke-linejoin="round"></path><path d="M106.438 175.946H110.569V201.934" stroke="#3D7FFC" stroke-miterlimit="10" stroke-linecap="round" stroke-linejoin="round"></path><path d="M72.2154 175.946H68.084V201.934" stroke="#3D7FFC" stroke-miterlimit="10" stroke-linecap="round" stroke-linejoin="round"></path><path d="M79.2812 106.251V106.841" stroke="#3D7FFC" stroke-miterlimit="10" stroke-linecap="round" stroke-linejoin="round"></path><path d="M82.252 106.251V106.841" stroke="#3D7FFC" stroke-miterlimit="10" stroke-linecap="round" stroke-linejoin="round"></path><path d="M76.3496 172.403V172.994" stroke="#3D7FFC" stroke-miterlimit="10" stroke-linecap="round" stroke-linejoin="round"></path><path d="M79.2812 172.403V172.994" stroke="#3D7FFC" stroke-miterlimit="10" stroke-linecap="round" stroke-linejoin="round"></path><path d="M82.252 172.403V172.994" stroke="#3D7FFC" stroke-miterlimit="10" stroke-linecap="round" stroke-linejoin="round"></path><path d="M76.3496 177.127V177.717" stroke="#3D7FFC" stroke-miterlimit="10" stroke-linecap="round" stroke-linejoin="round"></path><path d="M79.2812 177.127V177.717" stroke="#3D7FFC" stroke-miterlimit="10" stroke-linecap="round" stroke-linejoin="round"></path><path d="M82.252 177.127V177.717" stroke="#3D7FFC" stroke-miterlimit="10" stroke-linecap="round" stroke-linejoin="round"></path><path d="M76.3496 181.853V182.444" stroke="#3D7FFC" stroke-miterlimit="10" stroke-linecap="round" stroke-linejoin="round"></path><path d="M79.2812 181.853V182.444" stroke="#3D7FFC" stroke-miterlimit="10" stroke-linecap="round" stroke-linejoin="round"></path><path d="M82.252 181.853V182.444" stroke="#3D7FFC" stroke-miterlimit="10" stroke-linecap="round" stroke-linejoin="round"></path><path d="M76.3496 186.579V187.17" stroke="#3D7FFC" stroke-miterlimit="10" stroke-linecap="round" stroke-linejoin="round"></path><path d="M79.2812 186.579V187.17" stroke="#3D7FFC" stroke-miterlimit="10" stroke-linecap="round" stroke-linejoin="round"></path><path d="M82.252 186.579V187.17" stroke="#3D7FFC" stroke-miterlimit="10" stroke-linecap="round" stroke-linejoin="round"></path><path d="M76.3496 191.303V191.893" stroke="#3D7FFC" stroke-miterlimit="10" stroke-linecap="round" stroke-linejoin="round"></path><path d="M79.2812 191.303V191.893" stroke="#3D7FFC" stroke-miterlimit="10" stroke-linecap="round" stroke-linejoin="round"></path><path d="M82.252 191.303V191.893" stroke="#3D7FFC" stroke-miterlimit="10" stroke-linecap="round" stroke-linejoin="round"></path><path d="M76.3496 196.029V196.619" stroke="#3D7FFC" stroke-miterlimit="10" stroke-linecap="round" stroke-linejoin="round"></path><path d="M79.2812 196.029V196.619" stroke="#3D7FFC" stroke-miterlimit="10" stroke-linecap="round" stroke-linejoin="round"></path><path d="M82.252 196.029V196.619" stroke="#3D7FFC" stroke-miterlimit="10" stroke-linecap="round" stroke-linejoin="round"></path><path d="M96.9922 172.403V172.994" stroke="#3D7FFC" stroke-miterlimit="10" stroke-linecap="round" stroke-linejoin="round"></path><path d="M99.9648 172.403V172.994" stroke="#3D7FFC" stroke-miterlimit="10" stroke-linecap="round" stroke-linejoin="round"></path><path d="M102.895 172.403V172.994" stroke="#3D7FFC" stroke-miterlimit="10" stroke-linecap="round" stroke-linejoin="round"></path><path d="M96.9922 177.127V177.717" stroke="#3D7FFC" stroke-miterlimit="10" stroke-linecap="round" stroke-linejoin="round"></path><path d="M99.9648 177.127V177.717" stroke="#3D7FFC" stroke-miterlimit="10" stroke-linecap="round" stroke-linejoin="round"></path><path d="M102.895 177.127V177.717" stroke="#3D7FFC" stroke-miterlimit="10" stroke-linecap="round" stroke-linejoin="round"></path><path d="M96.9922 181.853V182.444" stroke="#3D7FFC" stroke-miterlimit="10" stroke-linecap="round" stroke-linejoin="round"></path><path d="M99.9648 181.853V182.444" stroke="#3D7FFC" stroke-miterlimit="10" stroke-linecap="round" stroke-linejoin="round"></path><path d="M102.895 181.853V182.444" stroke="#3D7FFC" stroke-miterlimit="10" stroke-linecap="round" stroke-linejoin="round"></path><path d="M96.9922 186.579V187.17" stroke="#3D7FFC" stroke-miterlimit="10" stroke-linecap="round" stroke-linejoin="round"></path><path d="M99.9648 186.579V187.17" stroke="#3D7FFC" stroke-miterlimit="10" stroke-linecap="round" stroke-linejoin="round"></path><path d="M102.895 186.579V187.17" stroke="#3D7FFC" stroke-miterlimit="10" stroke-linecap="round" stroke-linejoin="round"></path><path d="M96.9922 191.303V191.893" stroke="#3D7FFC" stroke-miterlimit="10" stroke-linecap="round" stroke-linejoin="round"></path><path d="M99.9648 191.303V191.893" stroke="#3D7FFC" stroke-miterlimit="10" stroke-linecap="round" stroke-linejoin="round"></path><path d="M102.895 191.303V191.893" stroke="#3D7FFC" stroke-miterlimit="10" stroke-linecap="round" stroke-linejoin="round"></path><path d="M96.9922 196.029V196.619" stroke="#3D7FFC" stroke-miterlimit="10" stroke-linecap="round" stroke-linejoin="round"></path><path d="M99.9648 196.029V196.619" stroke="#3D7FFC" stroke-miterlimit="10" stroke-linecap="round" stroke-linejoin="round"></path><path d="M102.895 196.029V196.619" stroke="#3D7FFC" stroke-miterlimit="10" stroke-linecap="round" stroke-linejoin="round"></path><path d="M79.2812 110.977V111.567" stroke="#3D7FFC" stroke-miterlimit="10" stroke-linecap="round" stroke-linejoin="round"></path><path d="M82.252 110.977V111.567" stroke="#3D7FFC" stroke-miterlimit="10" stroke-linecap="round" stroke-linejoin="round"></path><path d="M88.1562 158.818V159.409" stroke="#3D7FFC" stroke-miterlimit="10" stroke-linecap="round" stroke-linejoin="round"></path><path d="M91.0879 158.818V159.409" stroke="#3D7FFC" stroke-miterlimit="10" stroke-linecap="round" stroke-linejoin="round"></path><path d="M88.1562 163.542V164.133" stroke="#3D7FFC" stroke-miterlimit="10" stroke-linecap="round" stroke-linejoin="round"></path><path d="M91.0879 163.542V164.133" stroke="#3D7FFC" stroke-miterlimit="10" stroke-linecap="round" stroke-linejoin="round"></path><path d="M82.252 95.0287V95.6193" stroke="#3D7FFC" stroke-miterlimit="10" stroke-linecap="round" stroke-linejoin="round"></path><path d="M82.252 98.5732V99.1639" stroke="#3D7FFC" stroke-miterlimit="10" stroke-linecap="round" stroke-linejoin="round"></path><path d="M97.6016 95.0287V95.6193" stroke="#3D7FFC" stroke-miterlimit="10" stroke-linecap="round" stroke-linejoin="round"></path><path d="M97.6016 98.5732V99.1639" stroke="#3D7FFC" stroke-miterlimit="10" stroke-linecap="round" stroke-linejoin="round"></path><path d="M79.2812 115.7V116.291" stroke="#3D7FFC" stroke-miterlimit="10" stroke-linecap="round" stroke-linejoin="round"></path><path d="M82.252 115.7V116.291" stroke="#3D7FFC" stroke-miterlimit="10" stroke-linecap="round" stroke-linejoin="round"></path><path d="M79.2812 120.426V121.017" stroke="#3D7FFC" stroke-miterlimit="10" stroke-linecap="round" stroke-linejoin="round"></path><path d="M82.252 120.426V121.017" stroke="#3D7FFC" stroke-miterlimit="10" stroke-linecap="round" stroke-linejoin="round"></path><path d="M79.2812 125.152V125.743" stroke="#3D7FFC" stroke-miterlimit="10" stroke-linecap="round" stroke-linejoin="round"></path><path d="M82.252 125.152V125.743" stroke="#3D7FFC" stroke-miterlimit="10" stroke-linecap="round" stroke-linejoin="round"></path><path d="M79.2812 129.876V130.467" stroke="#3D7FFC" stroke-miterlimit="10" stroke-linecap="round" stroke-linejoin="round"></path><path d="M82.252 129.876V130.467" stroke="#3D7FFC" stroke-miterlimit="10" stroke-linecap="round" stroke-linejoin="round"></path><path d="M79.2812 134.602V135.193" stroke="#3D7FFC" stroke-miterlimit="10" stroke-linecap="round" stroke-linejoin="round"></path><path d="M82.252 134.602V135.193" stroke="#3D7FFC" stroke-miterlimit="10" stroke-linecap="round" stroke-linejoin="round"></path><path d="M79.2812 139.326V139.916" stroke="#3D7FFC" stroke-miterlimit="10" stroke-linecap="round" stroke-linejoin="round"></path><path d="M82.252 139.326V139.916" stroke="#3D7FFC" stroke-miterlimit="10" stroke-linecap="round" stroke-linejoin="round"></path><path d="M79.2812 144.052V144.642" stroke="#3D7FFC" stroke-miterlimit="10" stroke-linecap="round" stroke-linejoin="round"></path><path d="M82.252 144.052V144.642" stroke="#3D7FFC" stroke-miterlimit="10" stroke-linecap="round" stroke-linejoin="round"></path><path d="M79.2812 148.778V149.369" stroke="#3D7FFC" stroke-miterlimit="10" stroke-linecap="round" stroke-linejoin="round"></path><path d="M82.252 148.778V149.369" stroke="#3D7FFC" stroke-miterlimit="10" stroke-linecap="round" stroke-linejoin="round"></path><path d="M79.2812 153.501V154.092" stroke="#3D7FFC" stroke-miterlimit="10" stroke-linecap="round" stroke-linejoin="round"></path><path d="M79.8906 158.228V158.818" stroke="#3D7FFC" stroke-miterlimit="10" stroke-linecap="round" stroke-linejoin="round"></path><path d="M79.8906 162.951V163.542" stroke="#3D7FFC" stroke-miterlimit="10" stroke-linecap="round" stroke-linejoin="round"></path><path d="M99.9648 106.251V106.841" stroke="#3D7FFC" stroke-miterlimit="10" stroke-linecap="round" stroke-linejoin="round"></path><path d="M96.9922 106.251V106.841" stroke="#3D7FFC" stroke-miterlimit="10" stroke-linecap="round" stroke-linejoin="round"></path><path d="M99.9648 110.977V111.567" stroke="#3D7FFC" stroke-miterlimit="10" stroke-linecap="round" stroke-linejoin="round"></path><path d="M96.9922 110.977V111.567" stroke="#3D7FFC" stroke-miterlimit="10" stroke-linecap="round" stroke-linejoin="round"></path><path d="M99.9648 115.7V116.291" stroke="#3D7FFC" stroke-miterlimit="10" stroke-linecap="round" stroke-linejoin="round"></path><path d="M96.9922 115.7V116.291" stroke="#3D7FFC" stroke-miterlimit="10" stroke-linecap="round" stroke-linejoin="round"></path><path d="M99.9648 120.426V121.017" stroke="#3D7FFC" stroke-miterlimit="10" stroke-linecap="round" stroke-linejoin="round"></path><path d="M96.9922 120.426V121.017" stroke="#3D7FFC" stroke-miterlimit="10" stroke-linecap="round" stroke-linejoin="round"></path><path d="M99.9648 125.152V125.743" stroke="#3D7FFC" stroke-miterlimit="10" stroke-linecap="round" stroke-linejoin="round"></path><path d="M96.9922 125.152V125.743" stroke="#3D7FFC" stroke-miterlimit="10" stroke-linecap="round" stroke-linejoin="round"></path><path d="M99.9648 129.876V130.467" stroke="#3D7FFC" stroke-miterlimit="10" stroke-linecap="round" stroke-linejoin="round"></path><path d="M96.9922 129.876V130.467" stroke="#3D7FFC" stroke-miterlimit="10" stroke-linecap="round" stroke-linejoin="round"></path><path d="M99.9648 134.602V135.193" stroke="#3D7FFC" stroke-miterlimit="10" stroke-linecap="round" stroke-linejoin="round"></path><path d="M96.9922 134.602V135.193" stroke="#3D7FFC" stroke-miterlimit="10" stroke-linecap="round" stroke-linejoin="round"></path><path d="M99.9648 139.326V139.916" stroke="#3D7FFC" stroke-miterlimit="10" stroke-linecap="round" stroke-linejoin="round"></path><path d="M96.9922 139.326V139.916" stroke="#3D7FFC" stroke-miterlimit="10" stroke-linecap="round" stroke-linejoin="round"></path><path d="M99.9648 144.052V144.642" stroke="#3D7FFC" stroke-miterlimit="10" stroke-linecap="round" stroke-linejoin="round"></path><path d="M96.9922 144.052V144.642" stroke="#3D7FFC" stroke-miterlimit="10" stroke-linecap="round" stroke-linejoin="round"></path><path d="M99.9648 148.778V149.369" stroke="#3D7FFC" stroke-miterlimit="10" stroke-linecap="round" stroke-linejoin="round"></path><path d="M96.9922 148.778V149.369" stroke="#3D7FFC" stroke-miterlimit="10" stroke-linecap="round" stroke-linejoin="round"></path><path d="M99.9648 153.501V154.092" stroke="#3D7FFC" stroke-miterlimit="10" stroke-linecap="round" stroke-linejoin="round"></path><path d="M99.9648 158.228V158.818" stroke="#3D7FFC" stroke-miterlimit="10" stroke-linecap="round" stroke-linejoin="round"></path><path d="M99.9648 162.951V163.542" stroke="#3D7FFC" stroke-miterlimit="10" stroke-linecap="round" stroke-linejoin="round"></path><path d="M89.9062 89.1211V89.7117" stroke="#3D7FFC" stroke-miterlimit="10" stroke-linecap="round" stroke-linejoin="round"></path><path d="M89.9062 93.8472V94.4378" stroke="#3D7FFC" stroke-miterlimit="10" stroke-linecap="round" stroke-linejoin="round"></path><path d="M89.9062 98.5732V99.1639" stroke="#3D7FFC" stroke-miterlimit="10" stroke-linecap="round" stroke-linejoin="round"></path><path d="M89.9062 103.297V103.888" stroke="#3D7FFC" stroke-miterlimit="10" stroke-linecap="round" stroke-linejoin="round"></path><path d="M89.9062 108.023V108.614" stroke="#3D7FFC" stroke-miterlimit="10" stroke-linecap="round" stroke-linejoin="round"></path><path d="M89.9062 112.747V113.337" stroke="#3D7FFC" stroke-miterlimit="10" stroke-linecap="round" stroke-linejoin="round"></path><path d="M89.9062 117.473V118.063" stroke="#3D7FFC" stroke-miterlimit="10" stroke-linecap="round" stroke-linejoin="round"></path><path d="M89.9062 122.199V122.789" stroke="#3D7FFC" stroke-miterlimit="10" stroke-linecap="round" stroke-linejoin="round"></path><path d="M89.9062 126.922V127.513" stroke="#3D7FFC" stroke-miterlimit="10" stroke-linecap="round" stroke-linejoin="round"></path><path d="M89.9062 131.648V132.239" stroke="#3D7FFC" stroke-miterlimit="10" stroke-linecap="round" stroke-linejoin="round"></path><path d="M89.9062 136.375V136.965" stroke="#3D7FFC" stroke-miterlimit="10" stroke-linecap="round" stroke-linejoin="round"></path><path d="M89.9062 141.098V141.689" stroke="#3D7FFC" stroke-miterlimit="10" stroke-linecap="round" stroke-linejoin="round"></path><path d="M89.9062 145.824V146.415" stroke="#3D7FFC" stroke-miterlimit="10" stroke-linecap="round" stroke-linejoin="round"></path><path d="M89.9062 150.55V151.141" stroke="#3D7FFC" stroke-miterlimit="10" stroke-linecap="round" stroke-linejoin="round"></path><path d="M89.9062 168.859V169.449" stroke="#3D7FFC" stroke-miterlimit="10" stroke-linecap="round" stroke-linejoin="round"></path><path d="M89.9062 173.585V174.175" stroke="#3D7FFC" stroke-miterlimit="10" stroke-linecap="round" stroke-linejoin="round"></path><path d="M89.9062 178.308V178.899" stroke="#3D7FFC" stroke-miterlimit="10" stroke-linecap="round" stroke-linejoin="round"></path><path d="M89.9062 183.035V183.625" stroke="#3D7FFC" stroke-miterlimit="10" stroke-linecap="round" stroke-linejoin="round"></path><path d="M89.9062 187.758V188.349" stroke="#3D7FFC" stroke-miterlimit="10" stroke-linecap="round" stroke-linejoin="round"></path><path d="M89.9062 192.484V193.075" stroke="#3D7FFC" stroke-miterlimit="10" stroke-linecap="round" stroke-linejoin="round"></path><path d="M89.9062 197.21V197.801" stroke="#3D7FFC" stroke-miterlimit="10" stroke-linecap="round" stroke-linejoin="round"></path><path d="M85.7949 77.8992H95.8284" stroke="#3D7FFC" stroke-miterlimit="10" stroke-linecap="round" stroke-linejoin="round"></path><path d="M91.0879 61.3629V77.3103" stroke="#3D7FFC" stroke-miterlimit="10" stroke-linecap="round" stroke-linejoin="round"></path><path d="M31.5686 92.6632H28.0273V97.979H31.5686V92.6632Z" stroke="#3D7FFC" stroke-miterlimit="10" stroke-linecap="round" stroke-linejoin="round"></path><path d="M33.3387 89.1211H25.666V92.665H33.3387V89.1211Z" stroke="#3D7FFC" stroke-miterlimit="10" stroke-linecap="round" stroke-linejoin="round"></path><path d="M27.1293 88.7659C26.0079 85.3402 30.7295 85.2811 30.7295 82.446C33.5035 84.218 33.3854 87.88 32.3231 88.8841" stroke="#3D7FFC" stroke-miterlimit="10" stroke-linecap="round" stroke-linejoin="round"></path><path d="M46.3086 98.5708V102.115" stroke="#3D7FFC" stroke-miterlimit="10" stroke-linecap="round" stroke-linejoin="round"></path><path d="M52.0323 99.6918L50.2617 102.763" stroke="#3D7FFC" stroke-miterlimit="10" stroke-linecap="round" stroke-linejoin="round"></path><path d="M55.9305 103.532L53.3926 104.831" stroke="#3D7FFC" stroke-miterlimit="10" stroke-linecap="round" stroke-linejoin="round"></path><path d="M41.8379 99.6918L43.6085 102.763" stroke="#3D7FFC" stroke-miterlimit="10" stroke-linecap="round" stroke-linejoin="round"></path><path d="M37.9375 103.532L40.4754 104.831" stroke="#3D7FFC" stroke-miterlimit="10" stroke-linecap="round" stroke-linejoin="round"></path><path d="M39.7535 115.935L33.3203 122.432L37.3337 137.789L48.9017 120.424L41.8783 120.365L39.7535 115.935Z" stroke="#3D7FFC" stroke-miterlimit="10" stroke-linecap="round" stroke-linejoin="round"></path><path d="M49.2812 115.7V120.425" stroke="#3D7FFC" stroke-miterlimit="10" stroke-linecap="round" stroke-linejoin="round"></path><path d="M49.0805 120.189L54.8645 127.277L36.8633 160.471V146.355L51.6774 124.028" stroke="#3D7FFC" stroke-miterlimit="10" stroke-linecap="round" stroke-linejoin="round"></path><path d="M37.168 146.353L37.345 137.788" stroke="#3D7FFC" stroke-miterlimit="10" stroke-linecap="round" stroke-linejoin="round"></path><path d="M56.7246 132.946L60.4429 127.099L66.7581 130.229L59.7346 142.633L57.6099 141.806" stroke="#3D7FFC" stroke-miterlimit="10" stroke-linecap="round" stroke-linejoin="round"></path><path d="M55.1079 127.276L59.1213 158.107L36.3984 176.89L37.1657 160.47" stroke="#3D7FFC" stroke-miterlimit="10" stroke-linecap="round" stroke-linejoin="round"></path><path d="M58.5273 158.52C58.6454 158.875 59.1176 176.594 59.1176 176.594" stroke="#3D7FFC" stroke-miterlimit="10" stroke-linecap="round" stroke-linejoin="round"></path><path d="M52.9809 105.245C49.2036 100.934 44.482 101.465 40.7637 105.127L43.0655 113.101C45.4263 119.184 48.9085 118.535 50.9742 112.628L52.9809 105.245Z" stroke="#3D7FFC" stroke-miterlimit="10" stroke-linecap="round" stroke-linejoin="round"></path><path d="M31.5703 97.3893C31.8064 97.9799 40.0693 115.935 39.7151 115.935" stroke="#3D7FFC" stroke-miterlimit="10" stroke-linecap="round" stroke-linejoin="round"></path><path d="M28.4395 97.7427L33.8693 121.487" stroke="#3D7FFC" stroke-miterlimit="10" stroke-linecap="round" stroke-linejoin="round"></path><path d="M62.5475 135.369L60.8359 134.601L62.6656 132.297L64.3772 133.065" stroke="#3D7FFC" stroke-miterlimit="10" stroke-linecap="round" stroke-linejoin="round"></path><path d="M62.2597 177.718H30.3887V181.852H62.2597V177.718Z" stroke="#3D7FFC" stroke-miterlimit="10" stroke-linecap="round" stroke-linejoin="round"></path><path d="M32.6407 181.85L34.5294 184.095V196.026L29.9258 201.224" stroke="#3D7FFC" stroke-miterlimit="10" stroke-linecap="round" stroke-linejoin="round"></path><path d="M60.9693 181.85L58.7266 184.095V196.026L63.5072 201.224" stroke="#3D7FFC" stroke-miterlimit="10" stroke-linecap="round" stroke-linejoin="round"></path><path d="M34.502 196.026H58.7003" stroke="#3D7FFC" stroke-miterlimit="10" stroke-linecap="round" stroke-linejoin="round"></path><path d="M38.043 182.441V195.435" stroke="#3D7FFC" stroke-miterlimit="10" stroke-linecap="round" stroke-linejoin="round"></path><path d="M55.1836 183.032V196.026" stroke="#3D7FFC" stroke-miterlimit="10" stroke-linecap="round" stroke-linejoin="round"></path><path d="M51.2801 107.431C48.034 104.301 45.142 104.891 42.25 107.667" stroke="#3D7FFC" stroke-miterlimit="10" stroke-linecap="round" stroke-linejoin="round"></path><path d="M42.8594 110.619C46.4006 110.442 46.9318 107.371 46.9908 106.367C46.8137 107.725 47.699 110.383 51.2403 110.738" stroke="#3D7FFC" stroke-miterlimit="10" stroke-linecap="round" stroke-linejoin="round"></path><path d="M42.7656 187.167V190.711" stroke="#3D7FFC" stroke-miterlimit="10" stroke-linecap="round" stroke-linejoin="round"></path><path d="M46.3086 187.167V190.711" stroke="#3D7FFC" stroke-miterlimit="10" stroke-linecap="round" stroke-linejoin="round"></path><path d="M49.8516 187.167V190.711" stroke="#3D7FFC" stroke-miterlimit="10" stroke-linecap="round" stroke-linejoin="round"></path><path d="M43.9473 116.291V119.835" stroke="#3D7FFC" stroke-miterlimit="10" stroke-linecap="round" stroke-linejoin="round"></path><path d="M127.162 123.381V108.969C127.162 106.902 129.169 105.248 131.589 105.248C134.008 105.248 136.015 106.902 136.015 108.969V123.381" stroke="#3D7FFC" stroke-miterlimit="10" stroke-linecap="round" stroke-linejoin="round"></path><path d="M141.383 119.247C142.917 119.247 144.275 120.252 144.275 121.551V123.382" stroke="#3D7FFC" stroke-miterlimit="10" stroke-linecap="round" stroke-linejoin="round"></path><path d="M123.205 119.542C122.851 119.424 122.32 119.306 121.907 119.306C120.372 119.306 118.896 120.31 118.896 121.609V123.381" stroke="#3D7FFC" stroke-miterlimit="10" stroke-linecap="round" stroke-linejoin="round"></path><path d="M123.008 123.381V104.599C123.008 101.055 127.021 98.2198 131.566 98.2198C136.11 98.2198 140.124 101.055 140.124 104.599V123.381" stroke="#3D7FFC" stroke-miterlimit="10" stroke-linecap="round" stroke-linejoin="round"></path><path d="M123.008 104.48V98.2192C123.008 94.6753 127.021 91.8402 131.566 91.8402C136.11 91.8402 140.124 94.6753 140.124 98.2192V104.48" stroke="#3D7FFC" stroke-miterlimit="10" stroke-linecap="round" stroke-linejoin="round"></path><path d="M124.801 93.8485V90.3046C124.801 87.4104 127.929 85.1069 131.588 85.1069C135.247 85.1069 138.375 87.4104 138.375 90.3046V93.8485" stroke="#3D7FFC" stroke-miterlimit="10" stroke-linecap="round" stroke-linejoin="round"></path><path d="M125.98 86.1709V82.9223C125.98 80.6779 128.695 78.7878 131.587 78.7878C134.479 78.7878 137.194 80.6188 137.194 82.9223V86.1709" stroke="#3D7FFC" stroke-miterlimit="10" stroke-linecap="round" stroke-linejoin="round"></path><path d="M127.162 79.6734V76.8974C127.162 75.4208 129.7 74.1804 131.589 74.1804C133.477 74.1804 136.015 75.4208 136.015 76.8974V79.6734" stroke="#3D7FFC" stroke-miterlimit="10" stroke-linecap="round" stroke-linejoin="round"></path><path d="M129.006 74.8302L130.599 69.1009L131.485 46.5383" stroke="#3D7FFC" stroke-miterlimit="10" stroke-linecap="round" stroke-linejoin="round"></path><path d="M134.886 74.8302L133.292 69.1009L132.348 46.5383" stroke="#3D7FFC" stroke-miterlimit="10" stroke-linecap="round" stroke-linejoin="round"></path><path d="M118.896 180.673V123.971H144.275V164.725" stroke="#3D7FFC" stroke-miterlimit="10" stroke-linecap="round" stroke-linejoin="round"></path><path d="M130.703 110.386H132.474" stroke="#3D7FFC" stroke-miterlimit="10" stroke-linecap="round" stroke-linejoin="round"></path><path d="M130.703 114.521H132.474" stroke="#3D7FFC" stroke-miterlimit="10" stroke-linecap="round" stroke-linejoin="round"></path><path d="M130.703 118.657H132.474" stroke="#3D7FFC" stroke-miterlimit="10" stroke-linecap="round" stroke-linejoin="round"></path><path d="M119.467 128.697H122.418" stroke="#3D7FFC" stroke-miterlimit="10" stroke-linecap="round" stroke-linejoin="round"></path><path d="M119.467 133.423H122.418" stroke="#3D7FFC" stroke-miterlimit="10" stroke-linecap="round" stroke-linejoin="round"></path><path d="M119.467 138.147H122.418" stroke="#3D7FFC" stroke-miterlimit="10" stroke-linecap="round" stroke-linejoin="round"></path><path d="M119.467 142.873H122.418" stroke="#3D7FFC" stroke-miterlimit="10" stroke-linecap="round" stroke-linejoin="round"></path><path d="M119.467 147.596H122.418" stroke="#3D7FFC" stroke-miterlimit="10" stroke-linecap="round" stroke-linejoin="round"></path><path d="M119.467 152.323H122.418" stroke="#3D7FFC" stroke-miterlimit="10" stroke-linecap="round" stroke-linejoin="round"></path><path d="M119.467 157.049H122.418" stroke="#3D7FFC" stroke-miterlimit="10" stroke-linecap="round" stroke-linejoin="round"></path><path d="M119.467 161.772H122.418" stroke="#3D7FFC" stroke-miterlimit="10" stroke-linecap="round" stroke-linejoin="round"></path><path d="M119.467 166.498H122.418" stroke="#3D7FFC" stroke-miterlimit="10" stroke-linecap="round" stroke-linejoin="round"></path><path d="M119.467 171.223H122.418" stroke="#3D7FFC" stroke-miterlimit="10" stroke-linecap="round" stroke-linejoin="round"></path><path d="M119.467 175.948H122.418" stroke="#3D7FFC" stroke-miterlimit="10" stroke-linecap="round" stroke-linejoin="round"></path><path d="M125.98 128.697H127.161" stroke="#3D7FFC" stroke-miterlimit="10" stroke-linecap="round" stroke-linejoin="round"></path><path d="M125.98 133.423H127.161" stroke="#3D7FFC" stroke-miterlimit="10" stroke-linecap="round" stroke-linejoin="round"></path><path d="M125.98 138.147H127.161" stroke="#3D7FFC" stroke-miterlimit="10" stroke-linecap="round" stroke-linejoin="round"></path><path d="M125.98 142.873H127.161" stroke="#3D7FFC" stroke-miterlimit="10" stroke-linecap="round" stroke-linejoin="round"></path><path d="M125.98 147.596H127.161" stroke="#3D7FFC" stroke-miterlimit="10" stroke-linecap="round" stroke-linejoin="round"></path><path d="M125.98 152.323H127.161" stroke="#3D7FFC" stroke-miterlimit="10" stroke-linecap="round" stroke-linejoin="round"></path><path d="M125.98 157.049H127.161" stroke="#3D7FFC" stroke-miterlimit="10" stroke-linecap="round" stroke-linejoin="round"></path><path d="M125.98 161.772H127.161" stroke="#3D7FFC" stroke-miterlimit="10" stroke-linecap="round" stroke-linejoin="round"></path><path d="M125.98 166.498H127.161" stroke="#3D7FFC" stroke-miterlimit="10" stroke-linecap="round" stroke-linejoin="round"></path><path d="M125.98 171.223H127.161" stroke="#3D7FFC" stroke-miterlimit="10" stroke-linecap="round" stroke-linejoin="round"></path><path d="M125.98 175.948H127.161" stroke="#3D7FFC" stroke-miterlimit="10" stroke-linecap="round" stroke-linejoin="round"></path><path d="M130.703 128.697H131.884" stroke="#3D7FFC" stroke-miterlimit="10" stroke-linecap="round" stroke-linejoin="round"></path><path d="M130.703 133.423H131.884" stroke="#3D7FFC" stroke-miterlimit="10" stroke-linecap="round" stroke-linejoin="round"></path><path d="M130.703 138.147H131.884" stroke="#3D7FFC" stroke-miterlimit="10" stroke-linecap="round" stroke-linejoin="round"></path><path d="M130.703 142.873H131.884" stroke="#3D7FFC" stroke-miterlimit="10" stroke-linecap="round" stroke-linejoin="round"></path><path d="M130.703 147.596H131.884" stroke="#3D7FFC" stroke-miterlimit="10" stroke-linecap="round" stroke-linejoin="round"></path><path d="M130.703 152.323H131.884" stroke="#3D7FFC" stroke-miterlimit="10" stroke-linecap="round" stroke-linejoin="round"></path><path d="M130.703 157.049H131.884" stroke="#3D7FFC" stroke-miterlimit="10" stroke-linecap="round" stroke-linejoin="round"></path><path d="M130.703 161.772H131.884" stroke="#3D7FFC" stroke-miterlimit="10" stroke-linecap="round" stroke-linejoin="round"></path><path d="M130.703 166.498H131.884" stroke="#3D7FFC" stroke-miterlimit="10" stroke-linecap="round" stroke-linejoin="round"></path><path d="M130.703 171.223H131.884" stroke="#3D7FFC" stroke-miterlimit="10" stroke-linecap="round" stroke-linejoin="round"></path><path d="M130.703 175.948H131.884" stroke="#3D7FFC" stroke-miterlimit="10" stroke-linecap="round" stroke-linejoin="round"></path><path d="M130.703 180.674H131.884" stroke="#3D7FFC" stroke-miterlimit="10" stroke-linecap="round" stroke-linejoin="round"></path><path d="M130.703 185.398H131.884" stroke="#3D7FFC" stroke-miterlimit="10" stroke-linecap="round" stroke-linejoin="round"></path><path d="M135.428 128.697H136.608" stroke="#3D7FFC" stroke-miterlimit="10" stroke-linecap="round" stroke-linejoin="round"></path><path d="M135.428 133.423H136.608" stroke="#3D7FFC" stroke-miterlimit="10" stroke-linecap="round" stroke-linejoin="round"></path><path d="M135.428 138.147H136.608" stroke="#3D7FFC" stroke-miterlimit="10" stroke-linecap="round" stroke-linejoin="round"></path><path d="M135.428 142.873H136.608" stroke="#3D7FFC" stroke-miterlimit="10" stroke-linecap="round" stroke-linejoin="round"></path><path d="M135.428 147.596H136.608" stroke="#3D7FFC" stroke-miterlimit="10" stroke-linecap="round" stroke-linejoin="round"></path><path d="M135.428 152.323H136.608" stroke="#3D7FFC" stroke-miterlimit="10" stroke-linecap="round" stroke-linejoin="round"></path><path d="M135.428 157.049H136.608" stroke="#3D7FFC" stroke-miterlimit="10" stroke-linecap="round" stroke-linejoin="round"></path><path d="M135.428 161.772H136.608" stroke="#3D7FFC" stroke-miterlimit="10" stroke-linecap="round" stroke-linejoin="round"></path><path d="M140.15 128.697H143.101" stroke="#3D7FFC" stroke-miterlimit="10" stroke-linecap="round" stroke-linejoin="round"></path><path d="M140.15 133.423H143.101" stroke="#3D7FFC" stroke-miterlimit="10" stroke-linecap="round" stroke-linejoin="round"></path><path d="M140.15 138.147H143.101" stroke="#3D7FFC" stroke-miterlimit="10" stroke-linecap="round" stroke-linejoin="round"></path><path d="M140.15 142.873H143.101" stroke="#3D7FFC" stroke-miterlimit="10" stroke-linecap="round" stroke-linejoin="round"></path><path d="M140.15 147.596H143.101" stroke="#3D7FFC" stroke-miterlimit="10" stroke-linecap="round" stroke-linejoin="round"></path><path d="M140.15 152.323H143.101" stroke="#3D7FFC" stroke-miterlimit="10" stroke-linecap="round" stroke-linejoin="round"></path><path d="M140.15 157.049H143.101" stroke="#3D7FFC" stroke-miterlimit="10" stroke-linecap="round" stroke-linejoin="round"></path><path d="M140.15 161.772H143.101" stroke="#3D7FFC" stroke-miterlimit="10" stroke-linecap="round" stroke-linejoin="round"></path><path d="M114.744 200.753V180.672H127.138V201.344" stroke="#3D7FFC" stroke-miterlimit="10" stroke-linecap="round" stroke-linejoin="round"></path><path d="M128.301 188.94H136.564" stroke="#3D7FFC" stroke-miterlimit="10" stroke-linecap="round" stroke-linejoin="round"></path><path d="M136.566 201.934V165.314H151.912V201.343" stroke="#3D7FFC" stroke-miterlimit="10" stroke-linecap="round" stroke-linejoin="round"></path><path d="M137.178 169.45H151.343" stroke="#3D7FFC" stroke-miterlimit="10" stroke-linecap="round" stroke-linejoin="round"></path><path d="M137.178 174.176H151.343" stroke="#3D7FFC" stroke-miterlimit="10" stroke-linecap="round" stroke-linejoin="round"></path><path d="M137.178 178.899H151.343" stroke="#3D7FFC" stroke-miterlimit="10" stroke-linecap="round" stroke-linejoin="round"></path><path d="M137.178 183.625H151.343" stroke="#3D7FFC" stroke-miterlimit="10" stroke-linecap="round" stroke-linejoin="round"></path><path d="M137.178 188.349H151.343" stroke="#3D7FFC" stroke-miterlimit="10" stroke-linecap="round" stroke-linejoin="round"></path><path d="M137.178 193.075H151.343" stroke="#3D7FFC" stroke-miterlimit="10" stroke-linecap="round" stroke-linejoin="round"></path><path d="M137.178 197.801H151.343" stroke="#3D7FFC" stroke-miterlimit="10" stroke-linecap="round" stroke-linejoin="round"></path><path d="M115.312 184.807H126.526" stroke="#3D7FFC" stroke-miterlimit="10" stroke-linecap="round" stroke-linejoin="round"></path><path d="M115.312 188.94H126.526" stroke="#3D7FFC" stroke-miterlimit="10" stroke-linecap="round" stroke-linejoin="round"></path><path d="M115.312 193.075H126.526" stroke="#3D7FFC" stroke-miterlimit="10" stroke-linecap="round" stroke-linejoin="round"></path><path d="M115.312 197.21H126.526" stroke="#3D7FFC" stroke-miterlimit="10" stroke-linecap="round" stroke-linejoin="round"></path></g></svg>