<svg xmlns="http://www.w3.org/2000/svg" width="88" height="29" viewBox="0 0 88 29" fill="none"><path d="M42.2806 28.9565V26.6409H42.5618V28.9565H42.2806Z" fill="#8599AC"></path><path d="M44.5731 28.9565L43.3836 26.9439C43.3836 27.117 43.3836 27.1819 43.3836 27.2468V28.9565H43.1457V26.6409H43.5133L44.6379 28.5237V28.3722C44.6379 28.2856 44.6379 28.2207 44.6379 28.1991V26.6409H44.8758V28.9565H44.5731Z" fill="#8599AC"></path><path d="M45.4382 28.2857C45.5463 28.6103 45.7626 28.7618 46.1302 28.7618C46.4763 28.7618 46.6925 28.6103 46.6925 28.329C46.6925 28.1559 46.5628 28.026 46.3465 27.9611L45.8923 27.8529C45.6977 27.8096 45.6112 27.7663 45.5031 27.6797C45.3733 27.5715 45.3084 27.42 45.3084 27.2253C45.3084 26.8574 45.6112 26.5977 46.087 26.5977C46.4979 26.5977 46.779 26.7924 46.9088 27.1603L46.6493 27.2253C46.6277 27.0954 46.5844 27.0521 46.4979 26.9656C46.3898 26.8574 46.2384 26.8141 46.0654 26.8141C45.7842 26.8141 45.5679 26.9656 45.5679 27.182C45.5679 27.3551 45.6761 27.4633 45.9356 27.5283L46.3681 27.6365C46.7574 27.723 46.9737 27.9394 46.9737 28.2641C46.9737 28.6969 46.6277 28.9566 46.1086 28.9566C45.8275 28.9566 45.6112 28.8917 45.4382 28.7186C45.3084 28.6103 45.2652 28.5021 45.1786 28.2857H45.4382Z" fill="#8599AC"></path><path d="M47.4062 28.9565V26.6409H48.2281C48.4443 26.6409 48.5957 26.6842 48.7255 26.7924C48.8769 26.9006 48.985 27.117 48.985 27.3334C48.985 27.723 48.6822 28.0259 48.2713 28.0259H47.709V28.9565H47.4062ZM48.2064 27.7879C48.4876 27.7879 48.6606 27.6148 48.6606 27.355C48.6606 27.0953 48.4876 26.9006 48.2281 26.9006H47.6874V27.7879H48.2064Z" fill="#8599AC"></path><path d="M49.2878 28.9565V26.6409H49.5689V28.9565H49.2878Z" fill="#8599AC"></path><path d="M51.5153 28.9565L51.0828 27.961H50.4124V28.9565H50.1528V26.6409H51.0612C51.4937 26.6409 51.7965 26.9006 51.7965 27.2901C51.7965 27.4416 51.7316 27.6148 51.6451 27.723C51.5802 27.8095 51.5153 27.8312 51.3856 27.8961L51.8397 28.9565H51.5153ZM51.0395 27.723C51.2126 27.723 51.3207 27.6797 51.4072 27.5931C51.4937 27.5065 51.5153 27.3983 51.5153 27.2901C51.5153 27.0521 51.3423 26.9006 51.0828 26.9006H50.4556V27.723H51.0395Z" fill="#8599AC"></path><path d="M53.7429 28.9565H52.2507V26.6409H53.7213V26.9006H52.5534V27.6364H53.4834V27.8745H52.5534V28.6968H53.7646V28.9565H53.7429Z" fill="#8599AC"></path><path d="M56.3381 27.7879C56.3381 28.0476 56.1219 28.264 55.8623 28.264C55.6028 28.264 55.3865 28.0476 55.3865 27.7879C55.3865 27.5065 55.6028 27.3118 55.8623 27.3118C56.1435 27.3118 56.3381 27.5282 56.3381 27.7879Z" fill="#8599AC"></path><path d="M58.1765 28.9565V26.6409H58.4576V28.9565H58.1765Z" fill="#8599AC"></path><path d="M60.4689 28.9565L59.2794 26.9439C59.2794 27.117 59.2794 27.1819 59.2794 27.2468V28.9565H59.0415V26.6409H59.4092L60.5338 28.5237V28.3722C60.5338 28.2856 60.5338 28.2207 60.5338 28.1991V26.6409H60.7717V28.9565H60.4689Z" fill="#8599AC"></path><path d="M61.3123 28.9565V26.6409H62.7181V26.9006H61.5935V27.6364H62.5234V27.8745H61.5935V28.9782H61.3123V28.9565Z" fill="#8599AC"></path><path d="M64.7727 27.8096C64.7727 28.1559 64.6645 28.4805 64.4699 28.7186C64.2969 28.9133 64.1022 28.9999 63.8211 28.9999C63.5399 28.9999 63.3237 28.8917 63.1723 28.6969C62.9993 28.4589 62.8911 28.1559 62.8911 27.8096C62.8911 27.0954 63.2804 26.5977 63.8427 26.5977C64.405 26.6193 64.7727 27.0954 64.7727 27.8096ZM63.1723 27.8096C63.1723 28.3939 63.4318 28.7618 63.8211 28.7618C64.2104 28.7618 64.4699 28.3723 64.4699 27.788C64.4699 27.182 64.232 26.8357 63.8211 26.8357C63.4318 26.8357 63.1723 27.2253 63.1723 27.8096Z" fill="#8599AC"></path><path d="M66.5677 28.9565L66.1352 27.961H65.4647V28.9565H65.2052V26.6409H66.1135C66.5461 26.6409 66.8489 26.9006 66.8489 27.2901C66.8489 27.4416 66.784 27.6148 66.6975 27.723C66.6326 27.8095 66.5677 27.8312 66.4379 27.8961L66.8921 28.9565H66.5677ZM66.0703 27.723C66.2433 27.723 66.3514 27.6797 66.4379 27.5931C66.5245 27.5065 66.5461 27.3983 66.5461 27.2901C66.5461 27.0521 66.3731 26.9006 66.1135 26.9006H65.4863V27.723H66.0703Z" fill="#8599AC"></path><path d="M69.2278 28.9565V26.9439L68.4708 28.9565H68.2762L67.5193 26.9439V28.9565H67.2814V26.6409H67.7139L68.406 28.4804L69.098 26.6409H69.5306V28.9565H69.2278Z" fill="#8599AC"></path><path d="M72.2988 27.7879C72.2988 28.0476 72.0825 28.264 71.823 28.264C71.5635 28.264 71.3472 28.0476 71.3472 27.7879C71.3472 27.5065 71.5635 27.3118 71.823 27.3118C72.0825 27.3118 72.2988 27.5282 72.2988 27.7879Z" fill="#8599AC"></path><path d="M75.7807 28.2424C75.7159 28.4805 75.6726 28.5887 75.5428 28.7402C75.3915 28.9133 75.1752 28.9999 74.9157 28.9999C74.6561 28.9999 74.4399 28.9133 74.2885 28.7186C74.0939 28.4805 73.9857 28.1559 73.9857 27.7663C73.9857 27.0521 74.3534 26.5977 74.9373 26.5977C75.3698 26.5977 75.651 26.8357 75.7591 27.3335L75.4996 27.3768C75.3915 26.9872 75.2184 26.8357 74.9373 26.8357C74.5264 26.8357 74.2885 27.2036 74.2885 27.8096C74.2885 28.3939 74.5264 28.7618 74.9157 28.7618C75.0887 28.7618 75.2401 28.6753 75.3482 28.5454C75.4131 28.4588 75.4563 28.3723 75.4996 28.1775L75.7807 28.2424Z" fill="#8599AC"></path><path d="M77.9002 27.8096C77.9002 28.1559 77.7921 28.4805 77.5974 28.7186C77.4244 28.9133 77.2298 28.9999 76.9486 28.9999C76.6675 28.9999 76.4512 28.8917 76.2998 28.6969C76.1268 28.4589 76.0187 28.1559 76.0187 27.8096C76.0187 27.0954 76.408 26.5977 76.9703 26.5977C77.5109 26.6193 77.9002 27.0954 77.9002 27.8096ZM76.2998 27.8096C76.2998 28.3939 76.5593 28.7618 76.9486 28.7618C77.3379 28.7618 77.5974 28.3723 77.5974 27.788C77.5974 27.182 77.3595 26.8357 76.9486 26.8357C76.5593 26.8357 76.2998 27.2253 76.2998 27.8096Z" fill="#8599AC"></path><path d="M79.7385 28.9565L78.549 26.9439C78.549 27.117 78.549 27.1819 78.549 27.2468V28.9565H78.3111V26.6409H78.6787L79.8033 28.5237V28.3722C79.8033 28.2856 79.8033 28.2207 79.8033 28.1991V26.6409H80.0412V28.9565H79.7385Z" fill="#8599AC"></path><path d="M82.0093 28.9565L80.8199 26.9439C80.8199 27.117 80.8199 27.1819 80.8199 27.2468V28.9565H80.582V26.6409H80.9496L82.0742 28.5237V28.3722C82.0742 28.2856 82.0742 28.2207 82.0742 28.1991V26.6409H82.3121V28.9565H82.0093Z" fill="#8599AC"></path><path d="M84.3667 28.9565H82.8744V26.6409H84.345V26.9006H83.1772V27.6364H84.1071V27.8745H83.1772V28.6968H84.3883V28.9565H84.3667Z" fill="#8599AC"></path><path d="M86.2914 28.2424C86.2265 28.4805 86.1833 28.5887 86.0535 28.7402C85.9021 28.9133 85.6859 28.9999 85.4264 28.9999C85.1668 28.9999 84.9506 28.9133 84.7992 28.7186C84.6045 28.4805 84.4964 28.1559 84.4964 27.7663C84.4964 27.0521 84.8641 26.5977 85.448 26.5977C85.8805 26.5977 86.1617 26.8357 86.2698 27.3335L86.0103 27.3768C85.9021 26.9872 85.7291 26.8357 85.448 26.8357C85.0371 26.8357 84.7992 27.2036 84.7992 27.8096C84.7992 28.3939 85.0371 28.7618 85.4264 28.7618C85.5994 28.7618 85.7508 28.6753 85.8589 28.5454C85.9238 28.4588 85.967 28.3723 86.0103 28.1775L86.2914 28.2424Z" fill="#8599AC"></path><path d="M87.07 28.9565V26.9006H86.3996V26.6409H88V26.9006H87.3296V28.9565H87.07Z" fill="#8599AC"></path><path d="M13.4952 4.32826C13.971 4.19841 14.3171 3.96035 14.555 3.63573C14.7929 3.28946 14.901 2.92155 14.901 2.48871C14.901 1.90438 14.7063 1.40662 14.2954 0.952145C13.8845 0.497668 13.2357 0.28125 12.349 0.28125H8.0885V8.72155H12.1111C13.3655 8.72155 14.1873 8.48349 14.5766 7.98573C14.9659 7.48797 15.1605 6.92528 15.1605 6.29767C15.1389 5.25886 14.5982 4.60961 13.4952 4.32826ZM10.4675 2.09916H11.6137C12.1976 2.09916 12.4788 2.33722 12.4788 2.81334C12.4788 2.98647 12.4139 3.15961 12.2841 3.3111C12.1544 3.46259 11.9381 3.54916 11.6569 3.54916H10.4675V2.09916ZM12.4139 6.60065C12.2625 6.75214 12.0462 6.83871 11.7218 6.83871H10.4675V5.30215H11.6353C12.0246 5.30215 12.2841 5.38871 12.4139 5.5402C12.5653 5.71334 12.6302 5.88647 12.6302 6.08125C12.6302 6.27603 12.5653 6.44916 12.4139 6.60065ZM27.1202 5.84319C27.0553 5.6917 26.9688 5.56185 26.8823 5.45364C26.6228 5.12901 26.32 4.91259 25.9524 4.80438C25.5847 4.67453 24.8926 4.56632 23.8545 4.45812C23.4653 4.41483 23.2706 4.28498 23.2706 4.0902C23.2706 4.02528 23.3355 3.93871 23.4653 3.87379C23.595 3.80886 23.7897 3.76558 24.0492 3.76558C24.6115 3.76558 24.9791 3.96035 25.1522 4.32826L27.0121 3.982C26.6012 2.87826 25.6279 2.33722 24.0924 2.33722C23.2274 2.33722 22.5137 2.532 21.9946 2.94319C21.7784 3.09468 21.6053 3.28946 21.4756 3.48423V2.48871H19.0317V6.25438C19.0317 6.53573 18.9669 6.7305 18.8371 6.882C18.7073 7.03349 18.5343 7.09841 18.318 7.09841C18.1234 7.09841 17.9936 7.05513 17.9288 6.94692C17.8639 6.83871 17.8206 6.66558 17.8206 6.42752V2.42379H15.3552V6.92528C15.3552 7.55289 15.5282 8.00737 15.8526 8.35364C16.177 8.67826 16.6311 8.8514 17.2367 8.8514C18.2099 8.8514 18.8587 8.46185 19.1831 7.68274V8.72155H21.4539V7.96408C22.0162 8.54841 22.8597 8.8514 24.0276 8.8514C25.044 8.8514 25.8226 8.65662 26.4065 8.24543C26.7525 8.00737 26.9904 7.72603 27.1202 7.37976V8.72155H29.5857V2.44543H27.1202V5.84319ZM24.1573 7.35811C23.3787 7.35811 22.9462 7.1417 22.8381 6.68722L21.4756 6.882V5.49692C21.5405 5.58349 21.5837 5.67006 21.6702 5.75662C21.9946 6.12453 22.7732 6.40588 24.0492 6.57901C24.5033 6.64394 24.8061 6.70886 24.9359 6.75214C25.0656 6.81707 25.1305 6.90364 25.1305 7.01185C25.1089 7.22826 24.7845 7.35811 24.1573 7.35811ZM53.4402 5.45364C53.1807 5.12901 52.8779 4.91259 52.5102 4.80438C52.1426 4.67453 51.4505 4.56632 50.4124 4.45812C50.0231 4.41483 49.8285 4.28498 49.8285 4.0902C49.8285 4.02528 49.8934 3.93871 50.0231 3.87379C50.1529 3.80886 50.3475 3.76558 50.6071 3.76558C51.1694 3.76558 51.537 3.96035 51.71 4.32826L53.5699 3.982C53.159 2.87826 52.1858 2.33722 50.6503 2.33722C49.7852 2.33722 49.0715 2.532 48.5525 2.94319C48.2497 3.18125 48.0335 3.44095 47.9037 3.74394C47.4279 2.81334 46.4979 2.33722 45.0922 2.33722C44.2271 2.33722 43.5134 2.532 42.9944 2.94319C42.6051 3.22453 42.3456 3.59244 42.2591 4.02528C42.1077 3.74394 41.9347 3.48423 41.6968 3.26782C41.0696 2.66185 40.2694 2.35886 39.2529 2.35886C38.2148 2.35886 37.393 2.68349 36.7658 3.33274C36.4198 3.70065 36.1603 4.13349 36.0089 4.58797C36.0089 3.982 35.9224 3.54916 35.8142 3.3111C35.6845 3.02976 35.4466 2.81334 35.1438 2.6402C34.8194 2.46707 34.4517 2.3805 33.9759 2.3805C33.1109 2.3805 32.5053 2.72677 32.1593 3.39767V2.51035H29.8668V8.78647H32.3323V4.93423C32.3323 4.30662 32.5486 4.00364 33.0027 4.00364C33.1541 4.00364 33.2839 4.04692 33.392 4.13349C33.5002 4.22006 33.5434 4.43647 33.5434 4.7611V8.72155H36.0089V6.7305C36.1603 7.18498 36.4198 7.57453 36.7874 7.9208C37.4146 8.52677 38.2581 8.82976 39.3178 8.82976C40.2694 8.82976 41.0263 8.61334 41.5886 8.1805C41.8265 7.98573 42.0212 7.79095 42.1942 7.55289C42.7132 8.39692 43.6648 8.82976 45.0706 8.82976C46.087 8.82976 46.8656 8.63498 47.4495 8.22379C47.6442 8.09394 47.7956 7.94244 47.9253 7.76931C48.466 8.46185 49.3743 8.82976 50.6503 8.82976C51.6668 8.82976 52.4453 8.63498 53.0293 8.22379C53.6132 7.81259 53.8944 7.27155 53.8944 6.57901C53.8295 6.14617 53.6997 5.77826 53.4402 5.45364ZM39.2745 3.74394C39.5124 3.74394 39.7287 3.80886 39.9017 3.96035C40.0747 4.11185 40.1612 4.39319 40.1612 4.82603H38.4095C38.3878 4.11185 38.6906 3.74394 39.2745 3.74394ZM45.1571 7.35811C44.3785 7.35811 43.946 7.1417 43.8378 6.68722L42.5618 6.86035C42.5835 6.79543 42.6051 6.70886 42.6267 6.62229L40.3343 6.4708C40.2478 6.9902 39.9234 7.24991 39.3827 7.24991C39.015 7.24991 38.7555 7.16334 38.6257 6.96856C38.496 6.77379 38.4311 6.49244 38.4095 6.08125H42.6051C42.6051 5.92976 42.6051 5.79991 42.6051 5.71334C42.6051 5.6917 42.6051 5.6917 42.6051 5.67006C42.6267 5.6917 42.6267 5.71334 42.6483 5.73498C42.9727 6.10289 43.7513 6.38423 45.0273 6.55737C45.4815 6.62229 45.7843 6.68722 45.914 6.7305C46.0438 6.79543 46.1087 6.882 46.1087 6.9902C46.1087 7.22826 45.7843 7.35811 45.1571 7.35811ZM50.7152 7.35811C49.9366 7.35811 49.5041 7.1417 49.396 6.68722L48.2713 6.83871C48.2713 6.77379 48.293 6.68722 48.293 6.62229C48.293 6.16782 48.1632 5.79991 47.9037 5.47528C47.6442 5.15065 47.3414 4.93423 46.9737 4.82603C46.6061 4.69617 45.914 4.58797 44.8759 4.47976C44.4866 4.43647 44.292 4.30662 44.292 4.11185C44.292 4.04692 44.3569 3.96035 44.4866 3.89543C44.6164 3.8305 44.811 3.78722 45.0706 3.78722C45.6329 3.78722 46.0005 3.982 46.1735 4.34991L47.8388 4.04692C47.7956 4.19841 47.7956 4.34991 47.7956 4.52304C47.7956 4.97752 47.9469 5.41035 48.2713 5.77826C48.5958 6.14617 49.3743 6.42752 50.6503 6.60065C51.1045 6.66558 51.4073 6.7305 51.537 6.77379C51.6668 6.83871 51.7317 6.92528 51.7317 7.03349C51.6668 7.22826 51.3424 7.35811 50.7152 7.35811Z" fill="#8599AC"></path><path d="M14.9442 19.8022H6.57459V3.65747H0V25.0396H14.9442V19.8022ZM24.698 19.3261C24.3519 20.7761 23.7031 21.2739 22.2974 21.2739C21.4107 21.2739 20.7186 20.9925 20.3077 20.4515C19.9617 19.997 19.8535 19.5858 19.8535 18.3306H30.494C30.5156 17.941 30.5156 17.5515 30.5156 17.4C30.5156 12.1843 27.1851 8.78657 22.0595 8.78657C19.5724 8.78657 17.3232 9.60896 15.7877 11.1239C14.2738 12.5955 13.3222 14.9761 13.3222 17.2702C13.3222 22.0746 16.9339 25.3425 22.2325 25.3425C26.5579 25.3425 29.6722 23.2216 30.494 19.694L24.698 19.3261ZM19.8319 15.1925C19.8319 13.3746 20.6105 12.4657 22.0811 12.4657C23.595 12.4657 24.2222 13.2664 24.2871 15.1925H19.8319ZM46.0437 25.0396C45.6328 23.8493 45.568 23.3515 45.568 21.9231V15.5821C45.568 12.7687 45.4166 11.9246 44.638 10.994C43.4918 9.58732 41.0912 8.78657 37.8904 8.78657C35.2303 8.78657 33.3704 9.26269 31.8348 10.3664C30.6454 11.1888 30.0831 12.0978 29.6289 13.7858L35.2952 14.3052C35.4898 13.1582 36.29 12.5739 37.6958 12.5739C39.0799 12.5739 39.5773 13.05 39.5773 14.3052V14.6948C37.0253 14.8246 34.9275 15.1493 33.1325 15.7119C30.667 16.5127 29.1531 18.3955 29.1531 20.6246C29.1531 23.4813 31.4023 25.3642 34.7545 25.3642C37.0902 25.3642 38.6041 24.5851 39.8801 22.8321C39.8801 23.6328 39.9017 24.1522 40.0963 25.0396H46.0437ZM39.5773 18.3306C39.5773 20.6463 38.8636 21.5769 37.1767 21.5769C36.1819 21.5769 35.5979 21.0358 35.5979 20.1269C35.5979 18.7202 36.8739 17.8761 39.5773 17.5948V18.3306ZM61.4421 25.0396V3.65747H55.3001V10.6045C54.1106 9.32762 53.0292 8.8515 51.4289 8.8515C47.5793 8.8515 45.157 11.903 45.157 17.097C45.157 22.2261 47.4928 25.3642 51.2991 25.3642C53.3753 25.3642 54.4999 24.7149 55.6245 22.9187V25.0396H61.4421ZM55.3001 18.7202C55.3001 20.3 54.6296 21.209 53.505 21.209C52.1858 21.209 51.5586 19.9537 51.5586 17.3351C51.5586 14.0888 52.1642 12.6605 53.5483 12.6605C54.7378 12.6605 55.3001 13.3746 55.3001 14.7813V18.7202ZM72.3637 19.3261C72.0177 20.7761 71.3689 21.2739 69.9631 21.2739C69.0764 21.2739 68.3844 20.9925 67.9735 20.4515C67.6274 19.997 67.5193 19.5858 67.5193 18.3306H78.1597C78.1814 17.941 78.1814 17.5515 78.1814 17.4C78.1814 12.1843 74.8508 8.78657 69.7252 8.78657C67.2381 8.78657 64.9889 9.60896 63.4534 11.1239C61.9395 12.5955 60.988 14.9761 60.988 17.2702C60.988 22.0746 64.5997 25.3425 69.8983 25.3425C74.2236 25.3425 77.3379 23.2216 78.1597 19.694L72.3637 19.3261ZM67.4977 15.1925C67.4977 13.3746 68.2762 12.4657 69.7469 12.4657C71.2608 12.4657 71.8879 13.2664 71.9528 15.1925H67.4977ZM83.7395 25.0396V17.7246C83.7395 15.344 84.7343 14.2619 86.8105 14.2619C87.1998 14.2619 87.4593 14.2836 88 14.4134V8.89478C87.6107 8.82986 87.4161 8.82986 87.1566 8.82986C84.8425 8.82986 83.6962 9.82538 82.9393 12.4224V9.1112H77.7488V25.0396H83.7395Z" fill="#8599AC"></path><path d="M29.5857 0H27.1202V1.9694H29.5857V0Z" fill="#8599AC"></path></svg>