<svg xmlns="http://www.w3.org/2000/svg" width="138" height="31" viewBox="0 0 138 31" fill="none"><path d="M12.3787 16.981C12.4985 16.9523 12.6027 16.8793 12.6701 16.7769C12.7375 16.6745 12.763 16.5504 12.7413 16.43C12.6869 16.172 12.4351 15.997 12.1833 16.062C12.1228 16.0714 12.0649 16.0929 12.0132 16.1253C11.9614 16.1577 11.9168 16.2003 11.8822 16.2504C11.8476 16.3005 11.8237 16.357 11.8119 16.4166C11.8001 16.4763 11.8007 16.5376 11.8136 16.597C11.866 16.862 12.1158 17.042 12.3777 16.981H12.3787ZM21.9954 14.989C22.1152 14.9597 22.2193 14.8862 22.2867 14.7836C22.354 14.6809 22.3795 14.5566 22.358 14.436C22.3026 14.176 22.0498 14 21.798 14.066C21.7374 14.0763 21.6797 14.0985 21.628 14.1315C21.5764 14.1645 21.5321 14.2075 21.4976 14.258C21.4632 14.3084 21.4394 14.3652 21.4277 14.4251C21.4159 14.4849 21.4165 14.5464 21.4293 14.606C21.4797 14.864 21.7315 15.043 21.9954 14.989ZM13.5321 19.093C13.6693 18.9846 13.7587 18.8275 13.7813 18.6548C13.8038 18.4822 13.7578 18.3076 13.6529 18.168C13.5402 18.0354 13.381 17.9502 13.2074 17.9298C13.0339 17.9094 12.859 17.9552 12.7182 18.058C12.6511 18.111 12.5952 18.1767 12.5538 18.2512C12.5124 18.3258 12.4864 18.4077 12.4771 18.4924C12.4678 18.577 12.4755 18.6626 12.4998 18.7442C12.5241 18.8259 12.5644 18.9019 12.6184 18.968C12.833 19.249 13.25 19.319 13.5321 19.093ZM21.394 12.968C21.531 12.859 21.6197 12.7014 21.6416 12.5285C21.6634 12.3556 21.6165 12.1811 21.5109 12.042C21.3984 11.9108 21.2399 11.8269 21.0676 11.8073C20.8952 11.7876 20.7217 11.8336 20.5821 11.936C20.5154 11.989 20.4598 12.0545 20.4186 12.1289C20.3774 12.2032 20.3513 12.2849 20.342 12.3693C20.3326 12.4536 20.3401 12.539 20.364 12.6204C20.388 12.7019 20.4279 12.7779 20.4814 12.844C20.697 13.126 21.113 13.195 21.394 12.968ZM16.1148 20.572C16.1571 20.4649 16.1775 20.3506 16.1749 20.2356C16.1722 20.1206 16.1465 20.0073 16.0992 19.9023C16.0519 19.7973 15.9841 19.7027 15.8996 19.624C15.8151 19.5453 15.7157 19.4841 15.6071 19.444C15.1337 19.261 14.6401 19.491 14.4457 19.966C14.2704 20.413 14.5122 20.916 14.9755 21.095C15.1965 21.1718 15.4389 21.1602 15.6514 21.0626C15.8639 20.9649 16.0298 20.789 16.1138 20.572H16.1148ZM19.6867 11.106C19.7279 10.9988 19.7473 10.8846 19.7438 10.7699C19.7404 10.6552 19.7141 10.5424 19.6666 10.4378C19.619 10.3332 19.5511 10.2391 19.4667 10.1607C19.3824 10.0823 19.2832 10.0212 19.1749 9.981C18.7025 9.801 18.211 10.033 18.0145 10.503C17.8363 10.953 18.082 11.455 18.5404 11.633C19.0087 11.783 19.5104 11.567 19.6867 11.106ZM21.2822 16.629C21.2037 16.991 21.3829 17.329 21.7365 17.422C21.9035 17.4648 22.0808 17.4411 22.2304 17.3559C22.3801 17.2707 22.4902 17.1307 22.5373 16.966C22.5586 16.8847 22.5634 16.8 22.5515 16.7169C22.5395 16.6337 22.5111 16.5537 22.4678 16.4816C22.4245 16.4094 22.3673 16.3464 22.2993 16.2964C22.2314 16.2464 22.1541 16.2102 22.0719 16.19C21.991 16.167 21.9063 16.1602 21.8226 16.17C21.739 16.1797 21.6582 16.2057 21.5847 16.2466C21.5113 16.2876 21.4468 16.3425 21.3949 16.4083C21.3429 16.4741 21.3047 16.5494 21.2822 16.63V16.629ZM19.9687 18.422C19.7914 18.6063 19.6932 18.8518 19.6947 19.1066C19.6962 19.3615 19.7973 19.6058 19.9768 19.788C20.3595 20.153 20.9639 20.147 21.3104 19.785C21.7083 19.415 21.7154 18.794 21.3366 18.435C21.1566 18.2539 20.9117 18.1508 20.6554 18.1484C20.399 18.1459 20.1522 18.2443 19.9687 18.422ZM17.9501 19.472C17.4313 19.602 17.0697 20.133 17.1976 20.654C17.3114 21.198 17.8624 21.54 18.3983 21.422C18.9453 21.311 19.2757 20.764 19.1669 20.231C19.0359 19.684 18.5031 19.366 17.9501 19.472ZM11.6041 14.064C11.5064 14.42 11.7099 14.759 12.0695 14.867C12.192 14.8969 12.3208 14.8904 12.4397 14.8484C12.5586 14.8063 12.6624 14.7305 12.7383 14.6304C12.8143 14.5303 12.8589 14.4103 12.8667 14.2852C12.8746 14.1601 12.8452 14.0355 12.7824 13.9269C12.7195 13.8182 12.6259 13.7302 12.5132 13.6739C12.4005 13.6175 12.2735 13.5953 12.1482 13.6099C12.0228 13.6245 11.9045 13.6753 11.808 13.756C11.7114 13.8367 11.6409 13.9438 11.6051 14.064H11.6041ZM12.8058 11.26C12.4432 11.641 12.4271 12.238 12.8008 12.606C12.8905 12.6962 12.9974 12.7678 13.1152 12.8167C13.2331 12.8655 13.3595 12.8907 13.4872 12.8907C13.6149 12.8907 13.7414 12.8655 13.8592 12.8167C13.9771 12.7678 14.084 12.6962 14.1737 12.606C14.2627 12.5168 14.3332 12.4111 14.3811 12.2949C14.4289 12.1787 14.4533 12.0543 14.4527 11.9288C14.4522 11.8032 14.4267 11.679 14.3778 11.5632C14.3289 11.4475 14.2575 11.3424 14.1677 11.254C14.0778 11.1656 13.9714 11.0957 13.8543 11.0481C13.7373 11.0006 13.6119 10.9764 13.4855 10.977C13.359 10.9776 13.2339 11.0028 13.1173 11.0514C13.0007 11.0999 12.8948 11.1708 12.8058 11.26ZM15.7441 9.628C15.4829 9.68152 15.2536 9.83539 15.1062 10.0561C14.9589 10.2767 14.9053 10.5463 14.9574 10.806C15.0954 11.343 15.6222 11.686 16.1742 11.56C16.4327 11.5026 16.6577 11.3459 16.8 11.1242C16.9424 10.9025 16.9904 10.6338 16.9337 10.377C16.8078 9.847 16.2689 9.502 15.7451 9.628H15.7441ZM22.1697 21.61C22.4587 21.889 22.8879 21.898 23.1628 21.608C23.23 21.5475 23.2838 21.4737 23.3208 21.3914C23.3577 21.3092 23.3771 21.2202 23.3775 21.1301C23.378 21.04 23.3596 20.9508 23.3235 20.8682C23.2874 20.7855 23.2344 20.7112 23.1679 20.65C23.1047 20.584 23.029 20.5311 22.945 20.4945C22.8611 20.4578 22.7706 20.4382 22.6789 20.4366C22.5872 20.435 22.4961 20.4516 22.4109 20.4853C22.3257 20.519 22.2482 20.5692 22.1827 20.633C21.9108 20.906 21.9078 21.353 22.1707 21.61H22.1697ZM10.8939 10.352C11.174 10.626 11.6202 10.639 11.8922 10.348C12.0216 10.2178 12.0941 10.0421 12.0937 9.85909C12.0933 9.67612 12.0202 9.5007 11.8902 9.371C11.7576 9.2424 11.5798 9.17022 11.3945 9.16985C11.2092 9.16947 11.031 9.24093 10.898 9.369C10.7701 9.50093 10.6984 9.67666 10.6977 9.8597C10.6969 10.0428 10.7672 10.2191 10.8939 10.352ZM24.148 19.19C24.3198 19.2623 24.5134 19.2639 24.6864 19.1945C24.8595 19.1252 24.9976 18.9905 25.0707 18.82C25.1412 18.6499 25.1414 18.459 25.0713 18.2887C25.0012 18.1184 24.8663 17.9824 24.696 17.91C24.6124 17.8724 24.5219 17.8523 24.4301 17.8508C24.3384 17.8493 24.2473 17.8665 24.1625 17.9014C24.0777 17.9363 24.001 17.988 23.9372 18.0535C23.8734 18.119 23.8237 18.1967 23.7914 18.282C23.7541 18.3648 23.7337 18.4541 23.7314 18.5447C23.7291 18.6354 23.7451 18.7256 23.7783 18.8101C23.8114 18.8946 23.8612 18.9717 23.9247 19.0369C23.9882 19.1021 24.0641 19.1542 24.148 19.19ZM25.1432 16.467C25.2535 16.4685 25.363 16.4483 25.4655 16.4076C25.5679 16.367 25.6612 16.3066 25.7401 16.2301C25.819 16.1535 25.8819 16.0622 25.9252 15.9615C25.9685 15.8608 25.9913 15.7525 25.9924 15.643C25.995 15.5337 25.9759 15.425 25.9359 15.3231C25.896 15.2213 25.8362 15.1283 25.7598 15.0495C25.6835 14.9707 25.5922 14.9078 25.4912 14.8643C25.3902 14.8208 25.2815 14.7976 25.1714 14.796C24.949 14.7927 24.7342 14.8763 24.5733 15.0288C24.4124 15.1812 24.3183 15.3903 24.3112 15.611C24.3147 15.8318 24.4026 16.0431 24.5571 16.202C24.7115 16.3609 24.921 16.4556 25.1432 16.467ZM25.1311 13.519C25.2639 13.4687 25.3851 13.3923 25.4875 13.2944C25.5899 13.1965 25.6713 13.0791 25.727 12.9493C25.7826 12.8194 25.8114 12.6798 25.8114 12.5387C25.8115 12.3976 25.7829 12.2579 25.7274 12.128C25.5159 11.588 24.9014 11.298 24.3555 11.517C23.7844 11.739 23.5053 12.353 23.7239 12.905C23.9485 13.466 24.57 13.734 25.1311 13.519ZM9.36688 13.074C9.54067 13.1418 9.73423 13.1399 9.90661 13.0686C10.079 12.9973 10.2167 12.8623 10.2906 12.692C10.3597 12.5213 10.3594 12.3306 10.2897 12.1601C10.22 11.9896 10.0863 11.8526 9.91686 11.778C9.83138 11.7429 9.73976 11.725 9.64726 11.7252C9.55477 11.7255 9.46324 11.7439 9.37794 11.7794C9.29264 11.8149 9.21526 11.8668 9.15026 11.9321C9.08526 11.9974 9.03393 12.0749 8.99921 12.16C8.92966 12.33 8.9291 12.5201 8.99764 12.6905C9.06618 12.8609 9.19851 12.9983 9.36688 13.074ZM8.89748 16.187C9.11924 16.1858 9.33175 16.0986 9.48979 15.9442C9.64782 15.7897 9.73889 15.5801 9.74361 15.36C9.74325 15.1432 9.65845 14.9349 9.50695 14.7787C9.35544 14.6225 9.14896 14.5305 8.93072 14.522C8.82026 14.5181 8.71014 14.5361 8.60674 14.5749C8.50335 14.6136 8.40874 14.6724 8.32842 14.7477C8.24809 14.8231 8.18366 14.9136 8.13886 15.0139C8.09407 15.1142 8.06979 15.2223 8.06746 15.332C8.06532 15.4423 8.08511 15.5519 8.12568 15.6545C8.16625 15.7572 8.22681 15.8509 8.3039 15.9303C8.381 16.0098 8.4731 16.0733 8.57495 16.1173C8.6768 16.1614 8.7864 16.1851 8.89748 16.187ZM9.72346 19.463C9.85729 19.412 9.97954 19.3351 10.083 19.2366C10.1866 19.1382 10.2692 19.0203 10.3263 18.8897C10.3833 18.7591 10.4135 18.6186 10.4152 18.4763C10.4168 18.334 10.3899 18.1928 10.3359 18.061C10.2861 17.9295 10.2101 17.8093 10.1124 17.7076C10.0148 17.6059 9.89748 17.5248 9.76756 17.469C9.63763 17.4133 9.49773 17.3842 9.3562 17.3833C9.21467 17.3824 9.07442 17.4099 8.94381 17.464C8.81183 17.5143 8.69115 17.5899 8.58871 17.6866C8.48627 17.7833 8.40409 17.8992 8.3469 18.0275C8.2897 18.1558 8.25862 18.2941 8.25544 18.4344C8.25226 18.5747 8.27703 18.7142 8.32835 18.845C8.54996 19.395 9.16139 19.678 9.72346 19.463ZM19.7894 22.151C19.6973 22.1875 19.6134 22.2419 19.5428 22.311C19.4721 22.3802 19.4161 22.4626 19.378 22.5535C19.3399 22.6445 19.3205 22.742 19.3209 22.8405C19.3213 22.939 19.3416 23.0364 19.3804 23.127C19.4572 23.3119 19.6038 23.4595 19.7889 23.5384C19.9739 23.6173 20.1828 23.6211 20.3706 23.549C20.4638 23.5118 20.5484 23.4563 20.6195 23.3859C20.6906 23.3155 20.7467 23.2316 20.7844 23.1392C20.8221 23.0468 20.8407 22.9478 20.839 22.8481C20.8373 22.7484 20.8154 22.6501 20.7745 22.559C20.7386 22.4667 20.6842 22.3825 20.6146 22.3116C20.545 22.2407 20.4617 22.1845 20.3696 22.1464C20.2776 22.1083 20.1788 22.089 20.079 22.0898C19.9793 22.0906 19.8808 22.1114 19.7894 22.151ZM17.0082 22.543C16.4512 22.533 15.9949 22.994 15.9838 23.551C15.9949 24.126 16.4512 24.561 17.0002 24.577C17.2709 24.5735 17.5298 24.466 17.7225 24.2772C17.9151 24.0883 18.0267 23.8327 18.0337 23.564C18.0427 23.012 17.5824 22.556 17.0082 22.543ZM14.3822 22.021C13.7869 21.771 13.113 22.074 12.8652 22.666C12.7548 22.9503 12.7617 23.2664 12.8845 23.5457C13.0072 23.825 13.2359 24.045 13.521 24.158C13.6605 24.2153 13.8101 24.2445 13.9611 24.2441C14.1121 24.2437 14.2615 24.2136 14.4008 24.1556C14.54 24.0976 14.6663 24.0128 14.7724 23.9061C14.8785 23.7995 14.9622 23.673 15.0188 23.534C15.1358 23.2495 15.1345 22.9306 15.0152 22.647C14.8959 22.3635 14.6683 22.1384 14.3822 22.021ZM12.0785 20.37C11.9609 20.2504 11.8206 20.1552 11.6657 20.0898C11.5108 20.0244 11.3443 19.9902 11.176 19.989C11.0077 19.9879 10.8408 20.02 10.685 20.0833C10.5292 20.1466 10.3876 20.24 10.2684 20.358C10.1462 20.4752 10.0485 20.6153 9.98119 20.7702C9.91384 20.9251 9.8781 21.0917 9.87604 21.2604C9.87398 21.4291 9.90564 21.5965 9.96918 21.753C10.0327 21.9095 10.1269 22.0519 10.2462 22.172C10.4893 22.4116 10.8172 22.5472 11.1597 22.5496C11.5022 22.5521 11.8321 22.4212 12.0785 22.185C12.199 22.0661 12.2946 21.9247 12.3598 21.7689C12.425 21.6132 12.4586 21.4462 12.4586 21.2775C12.4586 21.1088 12.425 20.9418 12.3598 20.7861C12.2946 20.6304 12.199 20.489 12.0785 20.37ZM13.7023 7.44C13.5167 7.51467 13.3683 7.6592 13.2896 7.84205C13.2109 8.0249 13.2083 8.23122 13.2822 8.416C13.3613 8.60219 13.5101 8.75065 13.6972 8.83011C13.8844 8.90957 14.0953 8.91383 14.2855 8.842C14.4711 8.76253 14.6176 8.61349 14.6931 8.42733C14.7685 8.24117 14.7669 8.03296 14.6884 7.848C14.6518 7.75596 14.5969 7.67215 14.527 7.60156C14.4572 7.53098 14.3737 7.47504 14.2816 7.43708C14.1896 7.39912 14.0908 7.37991 13.9911 7.38058C13.8914 7.38126 13.7928 7.4018 13.7013 7.441L13.7023 7.44ZM17.0697 6.407C16.7969 6.40727 16.5354 6.51489 16.3424 6.70628C16.1494 6.89767 16.0408 7.15721 16.0402 7.428C16.0493 7.956 16.4925 8.422 17.0657 8.424C17.199 8.42521 17.3312 8.4 17.4546 8.34984C17.578 8.29969 17.69 8.2256 17.7842 8.13192C17.8784 8.03823 17.9528 7.92684 18.0031 7.80425C18.0533 7.68166 18.0785 7.55035 18.077 7.418C18.0871 6.881 17.6267 6.413 17.0697 6.407ZM20.565 6.824C20.2801 6.7128 19.9627 6.71606 19.6801 6.83309C19.3975 6.95012 19.1719 7.17173 19.0511 7.451C18.8153 8.031 19.1075 8.729 19.6887 8.96C19.8305 9.0169 19.9823 9.04542 20.1352 9.04393C20.2882 9.04244 20.4394 9.01096 20.58 8.95131C20.7207 8.89165 20.8481 8.805 20.955 8.69632C21.0618 8.58764 21.146 8.45907 21.2026 8.318C21.26 8.17839 21.2891 8.02889 21.2881 7.8781C21.2871 7.72731 21.2561 7.57821 21.1968 7.43936C21.1375 7.30052 21.0512 7.17467 20.9428 7.06907C20.8344 6.96346 20.706 6.88018 20.565 6.824ZM23.8085 8.815C23.2948 8.312 22.4819 8.302 21.9762 8.821C21.4776 9.298 21.4776 10.111 21.9762 10.607C22.0952 10.7271 22.2368 10.8228 22.393 10.8885C22.5492 10.9542 22.717 10.9886 22.8866 10.9898C23.0563 10.991 23.2245 10.959 23.3817 10.8955C23.5388 10.8321 23.6818 10.7384 23.8025 10.62C24.3112 10.11 24.3243 9.315 23.8075 8.815H23.8085ZM23.9465 24.464C23.9988 24.5252 24.0627 24.5756 24.1346 24.6123C24.2065 24.6489 24.285 24.6712 24.3655 24.6777C24.4461 24.6842 24.5272 24.6748 24.6041 24.6502C24.681 24.6255 24.7523 24.586 24.8138 24.534C24.8756 24.4829 24.9265 24.4201 24.9635 24.3492C25.0004 24.2783 25.0227 24.2007 25.029 24.1211C25.0353 24.0415 25.0255 23.9615 25.0001 23.8857C24.9747 23.81 24.9343 23.74 24.8813 23.68C24.8294 23.6191 24.766 23.5689 24.6946 23.5323C24.6232 23.4957 24.5453 23.4734 24.4652 23.4667C24.3851 23.46 24.3045 23.4691 24.228 23.4933C24.1514 23.5176 24.0804 23.5565 24.0191 23.608C23.9577 23.6595 23.9071 23.7225 23.8702 23.7933C23.8334 23.8642 23.8109 23.9416 23.8042 24.0211C23.7975 24.1006 23.8066 24.1806 23.831 24.2566C23.8554 24.3326 23.8947 24.4031 23.9465 24.464ZM25.811 22.797C25.8856 22.8524 25.9705 22.8925 26.0608 22.915C26.1511 22.9375 26.245 22.942 26.337 22.9281C26.4291 22.9142 26.5175 22.8823 26.597 22.8342C26.6765 22.7862 26.7456 22.7228 26.8002 22.648C26.9119 22.4993 26.9597 22.3128 26.9333 22.1291C26.9069 21.9455 26.8083 21.7797 26.6592 21.668C26.5844 21.6127 26.4995 21.5726 26.4091 21.5499C26.3187 21.5272 26.2248 21.5224 26.1325 21.5358C26.0403 21.5492 25.9516 21.5804 25.8716 21.6278C25.7915 21.6752 25.7217 21.7378 25.666 21.812C25.6103 21.8862 25.5699 21.9706 25.547 22.0603C25.5242 22.15 25.5193 22.2433 25.5328 22.3348C25.5463 22.4264 25.5778 22.5144 25.6255 22.5939C25.6733 22.6734 25.7363 22.7427 25.811 22.798V22.797ZM27.4328 20.522C27.5346 20.5645 27.644 20.5861 27.7545 20.5857C27.8649 20.5853 27.9742 20.5628 28.0757 20.5196C28.1772 20.4764 28.2689 20.4134 28.3454 20.3342C28.4218 20.2551 28.4814 20.1615 28.5207 20.059C28.5623 19.9578 28.5833 19.8495 28.5824 19.7402C28.5815 19.6309 28.5588 19.5229 28.5155 19.4224C28.4722 19.3219 28.4092 19.231 28.3302 19.1549C28.2512 19.0787 28.1578 19.019 28.0553 18.979C27.9534 18.9382 27.8443 18.9178 27.7344 18.919C27.6245 18.9203 27.5159 18.9431 27.4149 18.9863C27.314 19.0294 27.2226 19.092 27.1461 19.1704C27.0697 19.2488 27.0096 19.3414 26.9694 19.443C26.8888 19.6474 26.8922 19.875 26.9788 20.077C27.0654 20.279 27.2285 20.4391 27.4328 20.523V20.522ZM28.5348 17.559C28.6501 17.5714 28.7668 17.561 28.8781 17.5286C28.9894 17.4962 29.0933 17.4423 29.1836 17.3701C29.274 17.2978 29.3491 17.2086 29.4047 17.1075C29.4604 17.0065 29.4954 16.8955 29.5078 16.781C29.5203 16.6665 29.5099 16.5507 29.4772 16.4402C29.4445 16.3296 29.3903 16.2266 29.3175 16.1369C29.2447 16.0472 29.1549 15.9726 29.0531 15.9174C28.9513 15.8621 28.8395 15.8273 28.7241 15.815C28.4905 15.7905 28.2565 15.8587 28.0732 16.0045C27.8898 16.1504 27.7719 16.3623 27.7451 16.594C27.6917 17.073 28.0472 17.516 28.5348 17.559ZM28.7564 14.484C29.3436 14.386 29.7415 13.819 29.6267 13.232C29.5884 13.022 29.4881 12.828 29.3387 12.6746C29.1892 12.5212 28.9973 12.4153 28.7872 12.3703C28.577 12.3253 28.3582 12.3433 28.1583 12.4219C27.9584 12.5005 27.7866 12.6362 27.6645 12.8118C27.5424 12.9875 27.4755 13.1951 27.4724 13.4085C27.4693 13.6219 27.5301 13.8314 27.647 14.0105C27.764 14.1896 27.9318 14.3302 28.1293 14.4145C28.3268 14.4987 28.545 14.523 28.7564 14.484ZM9.21679 7.283C9.44847 7.536 9.82822 7.571 10.0811 7.356C10.2044 7.25142 10.2815 7.10307 10.296 6.9427C10.3105 6.78234 10.2612 6.62271 10.1586 6.498C10.0512 6.37737 9.9008 6.30293 9.73914 6.29043C9.57747 6.27792 9.41724 6.32834 9.29234 6.431C9.16995 6.53496 9.09348 6.6824 9.07936 6.84169C9.06523 7.00098 9.11457 7.15942 9.21679 7.283ZM7.452 9.3C7.76829 9.53 8.2105 9.466 8.44117 9.146C8.49714 9.07344 8.53793 8.99051 8.56117 8.90208C8.5844 8.81365 8.5896 8.7215 8.57647 8.63104C8.56333 8.54059 8.53212 8.45365 8.48467 8.37534C8.43722 8.29702 8.37448 8.22891 8.30015 8.175C8.22611 8.11884 8.14152 8.07791 8.05134 8.05462C7.96117 8.03133 7.86721 8.02614 7.77499 8.03937C7.68277 8.0526 7.59413 8.08397 7.51428 8.13164C7.43443 8.17931 7.36497 8.24233 7.30997 8.317C7.25426 8.3908 7.21373 8.47477 7.19072 8.56411C7.1677 8.65346 7.16264 8.74643 7.17583 8.83772C7.18902 8.92901 7.2202 9.01682 7.26759 9.09614C7.31497 9.17546 7.37764 9.24473 7.452 9.3ZM6.0438 11.987C6.25157 12.0686 6.48341 12.0653 6.68873 11.9778C6.89405 11.8903 7.05618 11.7257 7.13974 11.52C7.22172 11.3155 7.21853 11.0871 7.13089 10.8849C7.04324 10.6828 6.8783 10.5235 6.67235 10.442C6.46511 10.3596 6.23343 10.3619 6.0279 10.4484C5.82238 10.535 5.6597 10.6988 5.5754 10.904C5.49601 11.1095 5.50053 11.3377 5.58801 11.54C5.67549 11.7422 5.83901 11.9026 6.0438 11.987ZM5.38502 15.15C5.86853 15.21 6.30771 14.847 6.37218 14.369C6.39136 14.1355 6.3178 13.9039 6.16722 13.7236C6.01664 13.5433 5.80098 13.4286 5.56634 13.404C5.33387 13.3807 5.10154 13.4495 4.91989 13.5954C4.73823 13.7413 4.62194 13.9524 4.59631 14.183C4.58334 14.298 4.59352 14.4145 4.62626 14.5256C4.659 14.6367 4.71364 14.7402 4.78702 14.8302C4.8604 14.9202 4.95105 14.9948 5.0537 15.0497C5.15636 15.1046 5.26898 15.1387 5.38502 15.15ZM5.73556 18.6C6.3339 18.496 6.72272 17.934 6.61191 17.352C6.58794 17.212 6.53604 17.0782 6.45926 16.9584C6.38247 16.8386 6.28236 16.7353 6.16478 16.6544C6.04721 16.5735 5.91455 16.5168 5.7746 16.4876C5.63464 16.4583 5.4902 16.4571 5.34977 16.484C5.20981 16.5092 5.07622 16.5614 4.95662 16.6378C4.83701 16.7142 4.73373 16.8133 4.65269 16.9293C4.57164 17.0453 4.5144 17.1761 4.48425 17.314C4.45409 17.452 4.45161 17.5946 4.47694 17.7335C4.50227 17.8724 4.55492 18.0051 4.63188 18.1238C4.70884 18.2425 4.80861 18.3451 4.92548 18.4255C5.04236 18.506 5.17405 18.5628 5.31304 18.5928C5.45204 18.6227 5.59561 18.6252 5.73556 18.6ZM22.2452 24.948C22.1847 24.981 22.1313 25.0254 22.0881 25.0789C22.0449 25.1323 22.0127 25.1937 21.9934 25.2595C21.9741 25.3253 21.968 25.3942 21.9755 25.4623C21.983 25.5304 22.004 25.5964 22.0372 25.6565C22.0704 25.7166 22.1152 25.7696 22.169 25.8125C22.2229 25.8554 22.2847 25.8873 22.3509 25.9065C22.4172 25.9257 22.4866 25.9317 22.5553 25.9242C22.6239 25.9168 22.6903 25.896 22.7509 25.863C22.8635 25.7916 22.9445 25.6803 22.9776 25.5518C23.0107 25.4233 22.9933 25.2871 22.929 25.1708C22.8648 25.0545 22.7584 24.9667 22.6314 24.9254C22.5044 24.884 22.3664 24.8921 22.2452 24.948ZM20.154 25.708C20.0004 25.7548 19.8713 25.8595 19.7946 25.9998C19.718 26.1401 19.6998 26.3046 19.7441 26.458C19.8448 26.783 20.1802 26.962 20.5076 26.871C20.6627 26.8226 20.7925 26.7155 20.8688 26.573C20.9451 26.4304 20.9619 26.2638 20.9156 26.109C20.8657 25.9573 20.7584 25.8307 20.6163 25.7561C20.4742 25.6814 20.3084 25.6646 20.154 25.709V25.708ZM17.7345 26.097C17.6417 26.1021 17.5508 26.1255 17.4671 26.1658C17.3835 26.2062 17.3088 26.2627 17.2475 26.3321C17.1861 26.4015 17.1393 26.4823 17.1099 26.5699C17.0804 26.6574 17.0688 26.7499 17.0757 26.842C17.0945 27.0228 17.1831 27.1894 17.3231 27.3067C17.463 27.4239 17.6433 27.4827 17.826 27.4707C18.0087 27.4586 18.1796 27.3767 18.3027 27.2421C18.4258 27.1075 18.4915 26.9307 18.486 26.749C18.4719 26.363 18.1233 26.075 17.7345 26.097ZM15.039 25.827C14.8011 25.781 14.5545 25.8301 14.3528 25.9636C14.1512 26.0971 14.0108 26.3043 13.9622 26.54C13.9144 26.7776 13.9635 27.0243 14.0987 27.226C14.2339 27.4278 14.4442 27.568 14.6834 27.616C14.8027 27.6399 14.9255 27.64 15.0449 27.6163C15.1642 27.5926 15.2775 27.5455 15.3783 27.4778C15.4791 27.4101 15.5653 27.3232 15.6319 27.2221C15.6985 27.121 15.7442 27.0078 15.7662 26.889C15.8114 26.6523 15.7602 26.4076 15.6239 26.2083C15.4876 26.009 15.2772 25.8716 15.039 25.826V25.827ZM12.283 24.826C12.0243 24.7009 11.7266 24.6816 11.4536 24.7721C11.1807 24.8626 10.9545 25.0557 10.8234 25.31C10.5635 25.84 10.7731 26.476 11.2999 26.758C11.8368 27.02 12.4885 26.805 12.7665 26.269C12.8931 26.0137 12.9133 25.7191 12.8228 25.4491C12.7323 25.1791 12.5384 24.9552 12.283 24.826ZM9.94809 23.033C9.70089 22.8082 9.37435 22.6892 9.03934 22.7019C8.70433 22.7147 8.3879 22.8581 8.15872 23.101C7.92955 23.3439 7.80613 23.6667 7.81526 23.9994C7.82439 24.3321 7.96532 24.6478 8.20747 24.878C8.7212 25.356 9.53107 25.332 10.0095 24.826C10.1244 24.7044 10.214 24.5615 10.2731 24.4055C10.3322 24.2495 10.3597 24.0834 10.3539 23.9168C10.3482 23.7502 10.3094 23.5864 10.2398 23.4347C10.1701 23.2831 10.071 23.1465 9.94809 23.033ZM8.03422 20.352C7.85787 20.0338 7.56187 19.7978 7.21084 19.6955C6.85981 19.5932 6.48227 19.6329 6.16064 19.806C5.84118 19.9811 5.60471 20.2748 5.50312 20.6228C5.40152 20.9707 5.44309 21.3445 5.61872 21.662C5.7929 21.9803 6.08685 22.2171 6.43639 22.3209C6.78592 22.4247 7.16263 22.387 7.48423 22.216C7.80507 22.0402 8.04284 21.7455 8.14569 21.3963C8.24853 21.0471 8.2081 20.6717 8.03321 20.352H8.03422ZM11.3563 5.102C11.2425 5.17248 11.1601 5.28347 11.126 5.41227C11.0919 5.54107 11.1087 5.67793 11.1729 5.79485C11.2371 5.91176 11.344 5.99989 11.4715 6.04119C11.599 6.08249 11.7376 6.07383 11.8589 6.017C11.9806 5.94948 12.0708 5.83741 12.1103 5.70475C12.1498 5.57209 12.1355 5.42935 12.0705 5.307C12.0029 5.18576 11.8897 5.09607 11.7556 5.05763C11.6215 5.0192 11.4775 5.03516 11.3553 5.102H11.3563ZM13.6016 4.1C13.4476 4.14712 13.3186 4.25264 13.2426 4.39364C13.1666 4.53463 13.1497 4.69971 13.1956 4.853C13.2964 5.173 13.6328 5.356 13.9521 5.26C14.2785 5.164 14.4558 4.82 14.358 4.503C14.3358 4.42662 14.2984 4.35543 14.2481 4.29361C14.1977 4.23179 14.1354 4.18059 14.0648 4.14304C13.9943 4.10549 13.9168 4.08234 13.8371 4.07494C13.7573 4.06755 13.6769 4.07607 13.6006 4.1H13.6016ZM16.2699 3.468C16.0842 3.48186 15.9115 3.56743 15.7887 3.70635C15.6659 3.84528 15.6029 4.02646 15.6131 4.211C15.6413 4.595 15.9758 4.894 16.3686 4.871C16.4618 4.86466 16.5528 4.84014 16.6364 4.79884C16.72 4.75755 16.7945 4.70029 16.8558 4.63035C16.9171 4.56041 16.9639 4.47915 16.9935 4.39124C17.0231 4.30332 17.035 4.21047 17.0284 4.118C17.0145 3.93202 16.9268 3.75911 16.7846 3.63724C16.6424 3.51538 16.4573 3.45451 16.2699 3.468ZM19.4207 3.36C19.3023 3.33561 19.1801 3.3349 19.0613 3.35792C18.9425 3.38094 18.8296 3.42722 18.7291 3.49407C18.6285 3.56092 18.5424 3.64699 18.4758 3.74725C18.4091 3.84751 18.3633 3.95995 18.3409 4.078C18.3179 4.19573 18.3185 4.31681 18.3426 4.43432C18.3667 4.55184 18.4139 4.66348 18.4815 4.76289C18.618 4.96365 18.8292 5.10236 19.0687 5.1485C19.3082 5.19465 19.5563 5.14446 19.7586 5.00896C19.8587 4.94187 19.9445 4.85586 20.0112 4.75583C20.0778 4.65581 20.124 4.54373 20.147 4.426C20.192 4.18915 20.1409 3.94425 20.0049 3.7446C19.8689 3.54495 19.6589 3.40673 19.4207 3.36ZM22.7015 4.149C22.5734 4.08607 22.434 4.04909 22.2913 4.0402C22.1487 4.03132 22.0057 4.05071 21.8707 4.09725C21.7357 4.14379 21.6114 4.21654 21.505 4.31127C21.3986 4.406 21.3122 4.52081 21.251 4.649C21.125 4.90534 21.1068 5.20084 21.2003 5.47052C21.2938 5.7402 21.4914 5.96195 21.7496 6.087C22.0078 6.21205 22.3055 6.23015 22.5771 6.13732C22.8488 6.04449 23.0721 5.84834 23.1981 5.592C23.2611 5.46492 23.2982 5.32674 23.3074 5.18538C23.3165 5.04403 23.2975 4.90227 23.2513 4.76823C23.2052 4.63419 23.1329 4.5105 23.0386 4.40425C22.9442 4.29799 22.8297 4.21125 22.7015 4.149ZM25.9087 6.081C25.7872 5.96662 25.644 5.87725 25.4874 5.81807C25.3309 5.75888 25.1641 5.73104 24.9967 5.73615C24.8293 5.74127 24.6645 5.77923 24.5119 5.84786C24.3593 5.91648 24.222 6.01441 24.1077 6.136C23.8779 6.3828 23.7554 6.70964 23.7669 7.04554C23.7784 7.38144 23.923 7.69928 24.1691 7.93C24.4163 8.15902 24.7449 8.2812 25.0827 8.26966C25.4206 8.25813 25.74 8.11383 25.9707 7.8685C26.2014 7.62318 26.3245 7.29693 26.3128 6.96152C26.3012 6.62611 26.1559 6.30902 25.9087 6.08V6.081ZM28.4905 9.303C28.3138 8.98509 28.0181 8.74907 27.6674 8.64612C27.3167 8.54317 26.9393 8.58157 26.6169 8.753C26.2967 8.92715 26.059 9.21996 25.9556 9.56751C25.8522 9.91506 25.8915 10.2891 26.0649 10.608C26.2398 10.9276 26.5347 11.1658 26.8856 11.2707C27.2365 11.3755 27.6149 11.3386 27.9385 11.168C28.2597 10.9923 28.4979 10.6977 28.6013 10.3484C28.7047 9.99903 28.6649 9.62329 28.4905 9.303ZM19.32 30.103C19.363 30.3089 19.4867 30.4895 19.6638 30.6049C19.8409 30.7203 20.0569 30.7612 20.2643 30.7185C20.4718 30.6758 20.6537 30.553 20.7699 30.3772C20.8862 30.2014 20.9273 29.9869 20.8843 29.781C20.8398 29.576 20.7156 29.3966 20.5387 29.2818C20.3619 29.1671 20.1465 29.1262 19.9395 29.168C19.7329 29.2116 19.5519 29.3343 19.4359 29.5096C19.3199 29.6848 19.2782 29.8984 19.32 30.104V30.103ZM22.5111 29.339C22.614 29.5613 22.8015 29.734 23.0325 29.8191C23.2634 29.9042 23.519 29.8948 23.7431 29.793C23.9671 29.6892 24.1405 29.5014 24.2251 29.2707C24.3098 29.0401 24.2987 28.7855 24.1943 28.563C24.1432 28.4531 24.0707 28.3543 23.9809 28.2723C23.8911 28.1903 23.7859 28.1268 23.6713 28.0855C23.5566 28.0441 23.4349 28.0257 23.313 28.0313C23.1912 28.0368 23.0717 28.0663 22.9614 28.118C22.7408 28.2228 22.5702 28.409 22.4861 28.637C22.4019 28.865 22.4109 29.1165 22.5111 29.338V29.339ZM25.7778 27.765C26.1807 28.254 26.9029 28.325 27.3875 27.915C27.5036 27.8203 27.5997 27.7036 27.6701 27.5717C27.7405 27.4399 27.7839 27.2955 27.7978 27.1469C27.8117 26.9983 27.7957 26.8484 27.7509 26.706C27.706 26.5635 27.6332 26.4313 27.5365 26.317C27.4415 26.202 27.3244 26.107 27.192 26.0373C27.0597 25.9676 26.9147 25.9248 26.7655 25.9112C26.6163 25.8976 26.4659 25.9136 26.3229 25.9582C26.18 26.0028 26.0474 26.0751 25.9329 26.171C25.7003 26.3625 25.5534 26.6376 25.5243 26.9363C25.4953 27.2349 25.5864 27.5328 25.7778 27.765ZM28.8541 25.149C29.143 25.3466 29.4989 25.4228 29.8442 25.3609C30.1895 25.2991 30.4962 25.1043 30.6974 24.819C30.8975 24.5314 30.9743 24.1766 30.911 23.8328C30.8476 23.4889 30.6492 23.1842 30.3595 22.9855C30.0698 22.7869 29.7124 22.7106 29.3661 22.7735C29.0197 22.8364 28.7127 23.0334 28.5126 23.321C28.1057 23.914 28.2487 24.744 28.8551 25.149H28.8541ZM31.1014 21.747C31.9122 22.02 32.7987 21.572 33.0727 20.758C33.2013 20.3675 33.1688 19.9422 32.9823 19.5754C32.7957 19.2086 32.4704 18.9301 32.0774 18.801C31.8831 18.7374 31.6781 18.7123 31.474 18.7274C31.27 18.7425 31.0709 18.7973 30.8882 18.8888C30.7055 18.9803 30.5428 19.1066 30.4093 19.2605C30.2758 19.4145 30.1741 19.593 30.1102 19.786C30.0454 19.9794 30.0196 20.1835 30.0344 20.3868C30.0491 20.59 30.1041 20.7884 30.1962 20.9706C30.2882 21.1527 30.4156 21.315 30.5709 21.4483C30.7262 21.5815 30.9065 21.683 31.1014 21.747ZM13.2208 1.177C13.2415 1.27969 13.2826 1.37726 13.3416 1.46406C13.4007 1.55087 13.4765 1.62517 13.5646 1.68266C13.6528 1.74015 13.7516 1.77969 13.8553 1.79897C13.959 1.81826 14.0655 1.81691 14.1687 1.795C14.2715 1.77406 14.3691 1.73313 14.456 1.67457C14.5428 1.61601 14.6171 1.54098 14.6746 1.45379C14.732 1.3666 14.7716 1.26899 14.7909 1.16656C14.8102 1.06414 14.809 0.958934 14.7872 0.857003C14.7349 0.660471 14.6088 0.491274 14.4348 0.384187C14.2607 0.277099 14.052 0.240254 13.8515 0.281225C13.6509 0.322195 13.4738 0.437869 13.3565 0.604473C13.2392 0.771077 13.1906 0.975956 13.2208 1.177ZM9.91082 2.405C9.9623 2.51484 10.0352 2.61348 10.1252 2.69523C10.2153 2.77697 10.3208 2.84021 10.4356 2.8813C10.5504 2.92239 10.6722 2.94051 10.7941 2.93463C10.916 2.92874 11.0355 2.89896 11.1458 2.847C11.2561 2.79692 11.3554 2.72566 11.4379 2.63732C11.5204 2.54898 11.5845 2.4453 11.6264 2.33227C11.6683 2.21924 11.6873 2.09908 11.6823 1.97872C11.6773 1.85837 11.6483 1.74019 11.597 1.631C11.4916 1.41107 11.3038 1.24078 11.0736 1.15651C10.8434 1.07224 10.5891 1.08067 10.3651 1.18C10.1423 1.28386 9.96974 1.47066 9.88471 1.69994C9.79968 1.92923 9.80906 2.18253 9.91082 2.405ZM6.56457 4.643C6.96749 5.128 7.68569 5.2 8.17726 4.791C8.29293 4.69683 8.38873 4.5809 8.45916 4.44988C8.52959 4.31885 8.57326 4.17531 8.58767 4.02749C8.60209 3.87967 8.58695 3.73047 8.54314 3.58847C8.49933 3.44647 8.42771 3.31446 8.33238 3.2C8.23735 3.08393 8.12002 2.98778 7.98722 2.91715C7.85441 2.84651 7.70878 2.80281 7.5588 2.78857C7.40882 2.77433 7.25749 2.78985 7.1136 2.83421C6.96972 2.87858 6.83616 2.95091 6.7207 3.047C6.60422 3.14116 6.50771 3.25731 6.43674 3.38873C6.36577 3.52016 6.32175 3.66425 6.30723 3.81267C6.29271 3.96109 6.30798 4.11089 6.35215 4.25342C6.39632 4.39594 6.46852 4.52836 6.56457 4.643ZM3.74715 7.982C4.0377 8.18071 4.39576 8.25692 4.74282 8.19393C5.08989 8.13095 5.39763 7.9339 5.59857 7.646C6.00552 7.046 5.85644 6.231 5.25307 5.813C4.96419 5.61515 4.60803 5.5392 4.26279 5.60182C3.91755 5.66445 3.61146 5.86052 3.41172 6.147C3.21143 6.4346 3.13426 6.78935 3.19714 7.13338C3.26003 7.4774 3.45784 7.78261 3.74715 7.982ZM2.03072 12.166C2.42343 12.2942 2.85137 12.2623 3.2204 12.0773C3.58942 11.8923 3.86931 11.5694 3.99847 11.1795C4.12764 10.7896 4.09552 10.3648 3.90916 9.99844C3.72281 9.63209 3.39749 9.35424 3.00477 9.226C2.81032 9.16251 2.60518 9.13766 2.40105 9.15287C2.19692 9.16809 1.99782 9.22307 1.81509 9.31467C1.44607 9.49968 1.16618 9.82264 1.03701 10.2125C0.973057 10.4055 0.948026 10.6092 0.96335 10.8119C0.978675 11.0145 1.03406 11.2122 1.12633 11.3936C1.31268 11.7599 1.638 12.0378 2.03072 12.166ZM17.0566 29.599C16.8788 29.6058 16.7106 29.6806 16.5872 29.8079C16.4639 29.9351 16.3949 30.1049 16.3949 30.2815C16.3949 30.4581 16.4639 30.6279 16.5872 30.7551C16.7106 30.8824 16.8788 30.9573 17.0566 30.964C17.2384 30.9624 17.4123 30.8899 17.5406 30.7621C17.669 30.6343 17.7415 30.4615 17.7426 30.281C17.7418 30.1007 17.6694 29.928 17.5412 29.8003C17.413 29.6727 17.2392 29.6003 17.0576 29.599H17.0566ZM14.1717 29.168C13.9638 29.1257 13.7474 29.1669 13.57 29.2825C13.3925 29.3981 13.2684 29.5788 13.2248 29.785C13.2035 29.8868 13.2027 29.9919 13.2222 30.094C13.2418 30.1962 13.2815 30.2936 13.339 30.3805C13.3964 30.4675 13.4706 30.5424 13.5572 30.6009C13.6439 30.6594 13.7412 30.7004 13.8438 30.7215C13.9464 30.7427 14.0522 30.7435 14.1551 30.7241C14.258 30.7046 14.3561 30.6653 14.4437 30.6082C14.5313 30.5512 14.6067 30.4775 14.6656 30.3915C14.7246 30.3055 14.7659 30.2088 14.7872 30.107C14.8296 29.9016 14.7889 29.6878 14.6736 29.512C14.5584 29.3363 14.3781 29.2127 14.1717 29.168ZM11.1397 28.118C11.0301 28.0662 10.9113 28.0365 10.79 28.0306C10.6688 28.0248 10.5476 28.0429 10.4334 28.0839C10.3193 28.1249 10.2145 28.1881 10.1251 28.2696C10.0358 28.3512 9.96359 28.4495 9.91283 28.559C9.80937 28.7811 9.79899 29.035 9.884 29.2647C9.969 29.4944 10.1424 29.6812 10.3661 29.784C10.4773 29.843 10.5995 29.8787 10.7252 29.8891C10.8508 29.8995 10.9773 29.8843 11.0968 29.8445C11.2163 29.8047 11.3264 29.741 11.4202 29.6574C11.5141 29.5738 11.5897 29.4721 11.6426 29.3585C11.6954 29.2448 11.7243 29.1216 11.7275 28.9965C11.7307 28.8714 11.7081 28.7469 11.6611 28.6308C11.6141 28.5146 11.5437 28.4093 11.4542 28.3211C11.3648 28.2329 11.2581 28.1638 11.1407 28.118H11.1397ZM8.17726 26.17C7.94326 25.9778 7.64202 25.8857 7.33966 25.9138C7.0373 25.9419 6.75854 26.088 6.56457 26.32C6.46826 26.4343 6.39573 26.5663 6.35116 26.7086C6.3066 26.8509 6.29088 27.0005 6.30493 27.1488C6.31899 27.2971 6.36252 27.4412 6.43302 27.5727C6.50352 27.7042 6.59959 27.8206 6.71566 27.915C6.83101 28.0117 6.96462 28.0847 7.10869 28.1295C7.25276 28.1744 7.40439 28.1903 7.55472 28.1764C7.70505 28.1624 7.85108 28.1188 7.98426 28.0482C8.11743 27.9776 8.2351 27.8813 8.33037 27.765C8.73329 27.283 8.66076 26.561 8.17726 26.17ZM5.59353 23.32C5.3928 23.034 5.08607 22.8387 4.74054 22.7769C4.39502 22.715 4.03888 22.7917 3.75018 22.99C3.46103 23.1883 3.2625 23.492 3.19779 23.8349C3.13308 24.1778 3.20744 24.5322 3.40467 24.821C3.60804 25.1061 3.91623 25.3003 4.26266 25.3617C4.60909 25.4231 4.96594 25.3467 5.25609 25.149C5.39962 25.0512 5.52227 24.9263 5.61698 24.7813C5.71169 24.6363 5.77659 24.4742 5.80795 24.3042C5.83931 24.1342 5.83651 23.9597 5.79971 23.7908C5.76291 23.6219 5.69284 23.4619 5.59353 23.32ZM4.002 19.783C3.87126 19.3939 3.59088 19.0719 3.22199 18.8872C2.8531 18.7025 2.42561 18.6701 2.03273 18.797C1.6392 18.9257 1.31318 19.2042 1.12623 19.5713C0.939267 19.9383 0.90664 20.3641 1.0355 20.755C1.09933 20.9485 1.20102 21.1276 1.33474 21.2821C1.46845 21.4365 1.63156 21.5632 1.8147 21.6549C1.99785 21.7466 2.19743 21.8015 2.402 21.8164C2.60656 21.8314 2.81209 21.8061 3.00679 21.742C3.4006 21.6131 3.72675 21.3342 3.91356 20.9667C4.10036 20.5992 4.13253 20.1731 4.00301 19.782L4.002 19.783ZM3.60311 15.479C3.58406 15.0173 3.38592 14.5809 3.05015 14.2609C2.71438 13.9409 2.26698 13.7623 1.80155 13.7623C1.33613 13.7623 0.888733 13.9409 0.55296 14.2609C0.217186 14.5809 0.0190499 15.0173 0 15.479C0 16.473 0.806847 17.277 1.80004 17.277C2.03751 17.277 2.27263 17.2304 2.49191 17.14C2.7112 17.0495 2.91033 16.917 3.07786 16.7499C3.2454 16.5828 3.37804 16.3846 3.46818 16.1665C3.55832 15.9484 3.60417 15.7147 3.60311 15.479ZM17.0485 2.94251e-06C16.9586 -0.000129754 16.8696 0.017383 16.7866 0.0515339C16.7035 0.0856848 16.6281 0.1358 16.5646 0.198996C16.5011 0.262193 16.4509 0.337224 16.4167 0.419773C16.3826 0.502323 16.3652 0.590762 16.3656 0.680003C16.3656 0.814579 16.4058 0.94613 16.4812 1.058C16.5565 1.16987 16.6636 1.25702 16.7889 1.30843C16.9142 1.35984 17.052 1.37319 17.1849 1.34679C17.3179 1.32039 17.4399 1.25542 17.5356 1.16012C17.6313 1.06482 17.6964 0.943473 17.7226 0.811434C17.7488 0.679396 17.735 0.542608 17.6828 0.418389C17.6306 0.294171 17.5425 0.188108 17.4296 0.11363C17.3167 0.0391518 17.1841 -0.00039287 17.0485 2.94251e-06ZM20.2679 0.248003C20.1656 0.226597 20.06 0.225409 19.9572 0.244505C19.8544 0.263601 19.7564 0.302607 19.6688 0.359297C19.5812 0.415988 19.5058 0.489251 19.4467 0.574905C19.3876 0.660559 19.3461 0.756926 19.3245 0.858503C19.303 0.960081 19.3018 1.06488 19.321 1.16692C19.3402 1.26895 19.3795 1.36623 19.4366 1.45319C19.4937 1.54015 19.5675 1.6151 19.6538 1.67375C19.7401 1.73239 19.8372 1.7736 19.9395 1.795C20.0424 1.81735 20.1488 1.81911 20.2524 1.80018C20.356 1.78125 20.4548 1.74201 20.5429 1.68475C20.6311 1.6275 20.7068 1.55337 20.7658 1.4667C20.8248 1.38004 20.8658 1.28257 20.8864 1.18C20.9078 1.07846 20.9088 0.973702 20.8893 0.871771C20.8698 0.76984 20.8302 0.672752 20.7727 0.586109C20.7152 0.499466 20.641 0.424981 20.5543 0.366951C20.4677 0.308921 20.3703 0.268494 20.2679 0.248003ZM23.742 1.178C23.5185 1.07851 23.2647 1.06967 23.0348 1.15336C22.8048 1.23706 22.6169 1.40667 22.5111 1.626C22.4101 1.84736 22.4007 2.09924 22.4849 2.32742C22.5691 2.5556 22.7402 2.74182 22.9614 2.846C23.0716 2.8981 23.1912 2.92791 23.3131 2.9337C23.4351 2.93949 23.557 2.92114 23.6717 2.87973C23.7864 2.83832 23.8917 2.77467 23.9814 2.69248C24.0712 2.6103 24.1435 2.51121 24.1943 2.401C24.2459 2.2913 24.2751 2.17255 24.2802 2.05159C24.2853 1.93063 24.2663 1.80986 24.2241 1.69626C24.182 1.58265 24.1176 1.47845 24.0347 1.38967C23.9518 1.3009 23.852 1.22929 23.741 1.179L23.742 1.178ZM27.3854 3.049C27.2701 2.95338 27.1367 2.88143 26.9931 2.83733C26.8495 2.79323 26.6986 2.77785 26.5489 2.79208C26.3993 2.80631 26.254 2.84987 26.1215 2.92023C25.9889 2.9906 25.8718 3.08637 25.7768 3.202C25.681 3.31655 25.6089 3.44876 25.5647 3.59105C25.5206 3.73333 25.5051 3.88288 25.5194 4.0311C25.5336 4.17932 25.5772 4.32328 25.6476 4.45472C25.7181 4.58616 25.814 4.70248 25.9299 4.797C26.045 4.89249 26.1781 4.96439 26.3214 5.00856C26.4647 5.05272 26.6153 5.06828 26.7647 5.05434C26.9141 5.04039 27.0592 4.99722 27.1917 4.9273C27.3241 4.85739 27.4413 4.76213 27.5365 4.647C27.9465 4.159 27.871 3.447 27.3854 3.049ZM30.6934 6.147C30.5436 5.93297 30.3332 5.76784 30.0889 5.67249C29.8445 5.57714 29.5772 5.55585 29.3207 5.61131C29.0642 5.66676 28.83 5.79648 28.6477 5.98406C28.4654 6.17164 28.3433 6.40866 28.2967 6.66516C28.25 6.92165 28.2811 7.18611 28.3859 7.42509C28.4906 7.66407 28.6644 7.86685 28.8853 8.00779C29.1061 8.14874 29.3641 8.22151 29.6266 8.21692C29.8891 8.21233 30.1443 8.13058 30.36 7.982C30.6492 7.78247 30.8468 7.47711 30.9093 7.13302C30.9718 6.78893 30.8942 6.43428 30.6934 6.147ZM33.0727 10.209C32.9387 9.82407 32.6576 9.50693 32.29 9.32615C31.9224 9.14536 31.4979 9.11546 31.1083 9.2429C30.7187 9.37034 30.3953 9.64489 30.2079 10.0072C30.0206 10.3695 29.9844 10.7904 30.1072 11.179C30.2392 11.5671 30.5199 11.8879 30.8884 12.0721C31.257 12.2563 31.6838 12.2889 32.0764 12.163C32.469 12.0343 32.7942 11.7564 32.9809 11.3902C33.1676 11.024 33.2006 10.5993 33.0727 10.209ZM34.1082 15.48C34.1082 15.0047 33.918 14.5489 33.5795 14.2129C33.2409 13.8768 32.7818 13.688 32.3031 13.688C31.8243 13.688 31.3652 13.8768 31.0267 14.2129C30.6882 14.5489 30.498 15.0047 30.498 15.48C30.498 16.474 31.3059 17.278 32.3011 17.278C33.2983 17.278 34.1082 16.474 34.1082 15.48Z" fill="#8599AC"></path><path d="M101.428 18.759C101.428 20.463 101.491 20.509 103.04 20.509H108.216C108.436 20.509 108.621 20.692 108.621 20.914V22.212C108.621 22.499 108.518 22.601 108.216 22.64C107.558 22.742 106.229 22.922 103.799 22.922C100.402 22.922 98.6055 22.947 98.6055 18.759V12.329C98.6055 8.144 100.402 8.16699 103.799 8.16699C106.229 8.16699 107.558 8.35 108.216 8.451C108.518 8.49 108.621 8.59299 108.621 8.87899V10.177C108.621 10.2842 108.578 10.387 108.503 10.4635C108.427 10.5399 108.324 10.5839 108.216 10.586H103.04C101.491 10.586 101.428 10.631 101.428 12.33V14.194H107.967C108.195 14.194 108.373 14.379 108.373 14.598V16.065C108.374 16.1722 108.331 16.2752 108.255 16.3513C108.179 16.4274 108.075 16.4705 107.967 16.471H101.428V18.759ZM131.646 22.933C129.839 22.933 128.01 22.624 127.027 22.4C126.825 22.359 126.64 22.218 126.64 21.995V20.532C126.64 20.309 126.825 20.145 127.027 20.145H127.068C127.887 20.247 129.799 20.512 131.688 20.512C133.504 20.512 134.06 19.864 134.06 18.687C134.06 17.163 130.403 16.319 128.617 15.588C126.839 14.857 126.21 13.456 126.21 12.036C126.21 9.799 128.019 8.173 131.818 8.173C133.767 8.173 135.55 8.54199 136.244 8.70699C136.45 8.74899 136.611 8.891 136.611 9.093V10.596C136.611 10.797 136.472 10.961 136.263 10.961H136.225C134.875 10.841 133.475 10.593 131.699 10.593C130.185 10.593 129.053 11.121 129.053 12.036C129.053 12.704 129.821 13.319 130.727 13.678C131.634 14.033 132.825 14.493 134.183 15.036C135.904 15.729 137.021 16.736 137.021 18.686C137.021 20.736 135.735 22.933 131.646 22.933ZM120.782 12.76C120.782 11.235 119.594 10.586 117.546 10.586C117.12 10.586 115.26 10.626 114.893 10.666V15.072C115.223 15.092 117.204 15.134 117.546 15.134C119.655 15.134 120.782 14.729 120.782 12.943V12.76ZM123.847 22.762H121.352C121.129 22.762 121.047 22.557 120.946 22.356L118.002 17.43H117.546C117.018 17.43 115.364 17.372 114.893 17.346V22.356C114.893 22.578 114.73 22.762 114.507 22.762H112.466C112.358 22.7615 112.254 22.7185 112.177 22.6425C112.101 22.5665 112.058 22.4635 112.057 22.356V9.04C112.057 8.633 112.298 8.49 112.708 8.43C113.769 8.267 116.058 8.16699 117.546 8.16699C120.696 8.16699 123.6 9.285 123.6 12.76V12.943C123.6 15.094 122.516 16.272 120.84 16.918L124.051 22.356C124.093 22.418 124.093 22.476 124.093 22.521C124.093 22.659 124.01 22.762 123.847 22.762ZM96.1004 10.684H92.0238V22.356C92.0223 22.4639 91.9781 22.5668 91.9009 22.6428C91.8237 22.7187 91.7195 22.7615 91.6108 22.762H89.5882C89.48 22.7612 89.3764 22.7182 89.2999 22.6422C89.2234 22.5662 89.18 22.4634 89.1792 22.356V10.684H85.0997C84.8781 10.684 84.6937 10.544 84.6937 10.32V8.597C84.6937 8.37 84.8781 8.21 85.1007 8.21H96.1004C96.322 8.21 96.5053 8.37 96.5053 8.597V10.32C96.5053 10.544 96.322 10.684 96.1004 10.684ZM76.5396 22.922C73.2528 22.922 70.4213 21.502 70.4213 17.172V8.618C70.4213 8.392 70.6076 8.231 70.8313 8.231H72.8509C73.0775 8.231 73.2609 8.391 73.2609 8.618V17.17C73.2609 19.488 74.3377 20.587 76.5396 20.587C78.7476 20.587 79.8244 19.487 79.8244 17.17V8.61999C79.8244 8.39399 80.0068 8.23299 80.2314 8.23299H82.254C82.4807 8.23299 82.665 8.39299 82.665 8.61999V17.172C82.665 21.502 79.8325 22.923 76.5406 22.923L76.5396 22.922ZM60.172 18.76C60.172 20.464 60.2385 20.51 61.7837 20.51H66.9552C67.1808 20.51 67.3662 20.693 67.3662 20.915V22.213C67.3662 22.5 67.2624 22.602 66.9552 22.641C66.3024 22.743 64.9718 22.923 62.5422 22.923C59.1496 22.923 57.3516 22.948 57.3516 18.76V12.33C57.3516 8.145 59.1496 8.168 62.5422 8.168C64.9718 8.168 66.3024 8.399 66.9552 8.5C67.2624 8.54 67.3662 8.547 67.3662 8.831V10.178C67.3654 10.2861 67.3218 10.3895 67.245 10.466C67.1681 10.5425 67.064 10.5859 66.9552 10.587H61.7837C60.2385 10.587 60.172 10.632 60.172 12.331V14.067H66.7124C66.937 14.067 67.1214 14.252 67.1214 14.471V16.066C67.1203 16.1734 67.0769 16.276 67.0004 16.3519C66.924 16.4278 66.8206 16.471 66.7124 16.472H60.172V18.76ZM51.4136 12.76C51.4136 11.236 50.2249 10.587 48.1821 10.587C47.752 10.587 45.8925 10.627 45.5279 10.667V15.073C45.8502 15.093 47.8316 15.135 48.1821 15.135C50.2834 15.135 51.4136 14.73 51.4136 12.944V12.761V12.76ZM54.4808 22.763H51.9847C51.7611 22.763 51.6785 22.558 51.5777 22.357L48.6344 17.431H48.1821C47.6493 17.431 45.9973 17.373 45.5279 17.347V22.357C45.5279 22.579 45.3627 22.763 45.1381 22.763H43.0943C42.9863 22.7619 42.8831 22.7188 42.807 22.6428C42.7308 22.5668 42.6878 22.4642 42.6873 22.357V9.04C42.6873 8.633 42.9291 8.49 43.34 8.43C44.4048 8.267 46.6883 8.16699 48.1821 8.16699C51.3279 8.16699 54.235 9.285 54.235 12.76V12.943C54.235 15.094 53.1522 16.272 51.477 16.918L54.6822 22.356C54.7256 22.418 54.7256 22.476 54.7256 22.521C54.7256 22.659 54.643 22.762 54.4808 22.762V22.763Z" fill="#8599AC"></path></svg>