<svg xmlns:v="https://vecta.io/nano" xmlns="http://www.w3.org/2000/svg" xmlns:xlink="http://www.w3.org/1999/xlink" id="Layer_1" x="0px" y="0px" viewBox="0 0 165 44" xml:space="preserve"><g>	<defs>		<rect id="SVGID_1_" x="7" y="1" width="151" height="30"></rect>	</defs>	<clipPath id="SVGID_00000010275744604245549430000011617474595095093167_">		<use xlink:href="#SVGID_1_"></use>	</clipPath>	<g clip-path="url(#SVGID_00000010275744604245549430000011617474595095093167_)">		<path fill="#8599AC" d="M64.5,14.5h-0.2v-0.7C64.8,13.7,64.9,14.3,64.5,14.5C64.5,14.5,64.5,14.5,64.5,14.5z M65.1,13.7   c-0.5-0.1-1-0.2-1.5-0.1c0,0.1,0.1,0.2,0.2,0.2v0.8C63.2,14.9,66.3,14.8,65.1,13.7C65.1,13.7,65.1,13.7,65.1,13.7z M65.9,7.6   l0.1,0c-0.2,0.3,0.4,0.4,0.3,0C66.9,8,65.8,8.3,65.9,7.6C65.9,7.6,65.9,7.6,65.9,7.6z M66.4,8.3c0.1,0,0.2,0,0.2,0.1   c0-0.1,0.2-1.1,0-1.1c-0.2,0.3-0.6,0.2-0.9,0.1C65.7,7.8,65.9,8.4,66.4,8.3C66.4,8.3,66.4,8.3,66.4,8.3z"></path>		<path fill="#8599AC" d="M67.6,7.6L67.6,7.6c0,0.3,0.6,0.4,0.4,0l0.1,0C68.3,8.1,67.4,8.1,67.6,7.6z M68,8.1c0.3,0,0.4-0.5,0.4-0.8   c-0.3,0.2-0.7,0.3-0.9,0c-0.2,0,0.1,1.1,0.1,1.1C67.5,8.4,67.6,8.2,68,8.1L68,8.1L68,8.1z M79.1,15.5c0.1-0.9-1.4-0.3-0.6,0.1   c-0.1-0.6,0.5-0.4,0.3,0.1c-2.1,0.9-0.6-2.7,0.9-0.5C79.5,15.2,79.3,15.3,79.1,15.5z M76.6,13.9c-0.2-2,2-0.7,2.3,0.5   c-0.6-0.2-1.3,0.1-1.3,0.7C77.3,14.6,77,14.2,76.6,13.9L76.6,13.9L76.6,13.9z M73.7,15.1c-0.8-0.1-1.5,0-2.3,0.3   c-0.5-3.3,5.2-2.1,5.9,0.1C76.1,15.6,74.9,15.2,73.7,15.1L73.7,15.1L73.7,15.1z M73.3,15.8c-0.6,0.1-1.2,0-1.8-0.2   c0.6-0.2,1.2-0.4,1.8-0.3C73.3,15.5,73.3,15.6,73.3,15.8C73.3,15.8,73.3,15.8,73.3,15.8z M69.2,15.8c-1.4-0.2-5.2-1.2-6.6-0.8   c0.2-3.7,6-0.2,8.6-0.6c0.1,0.6-0.3,1.5,0.6,1.6C70.9,16,70,15.9,69.2,15.8L69.2,15.8L69.2,15.8z M64.4,15.6c-0.6,0-1.3,0-1.8-0.3   C63.1,15.1,64.5,14.8,64.4,15.6L64.4,15.6z M56.7,15.6c0.6-0.2,1.2-0.4,1.7-0.7c-0.6-0.2-1.2-0.6-1.7-0.9c1.9,0.2,3.9,0.2,5.8,0.2   c-0.1,0.8-0.4,1.5,0.7,1.6C61,15.9,58.8,15.9,56.7,15.6L56.7,15.6L56.7,15.6z M60.6,12.5c1.1-0.2,2.2-0.4,3.3-0.5   c0.6,1.3-1.1,0.6-1.5,1.4c0-0.7-0.5,0-0.4,0.3c-0.4,0.1-0.2-0.8-0.6-0.6c-0.1,0.1,0,0.4-0.2,0.4l0,0.2c-0.4,0-0.2-0.7-0.4-0.7   c-0.2,0-0.1,0.4-0.4,0.4l0,0.3C60,13.5,60.1,12.7,60.6,12.5L60.6,12.5L60.6,12.5z M63.3,9.2c0.1-0.9,1.1-1.4,1.6-2   C64.9,7.9,63.7,8.7,63.3,9.2z M64.5,6.6c0,0.5-0.6,0.8-1,1.1C63.7,7.3,64.1,6.9,64.5,6.6L64.5,6.6z M64.8,6.2   c0.4-0.1,0.8,0.1,1.1,0.4c0,0,0.2-0.1,0.1-0.2c1.2-0.3,2,0,3-0.4c0,0.4-0.3,0.7-0.6,0.9c0.3,0.7,0.5,1.8-0.4,2   c0.1,0.1,0.3,0.2,0.2,0.3L68,9c-0.2,0.2,0.3,0.2,0.2,0.4L68,9.3c-0.2,0.3,0.4,0.3,0.2,0.6c-2.2-0.6,1-1.1-1.6-1.3   c0,0.8,1,0.8-0.4,1.3c-0.2-0.3,0.3-0.3,0.1-0.6L66,9.6l0-0.1l0.3-0.2l-0.1-0.2l-0.3,0.1c0.6-0.8-0.1-0.1-0.4-0.8   c-0.1-0.5-0.2-1.1-0.1-1.5C65.1,6.9,64.9,6.5,64.8,6.2C64.8,6.2,64.8,6.2,64.8,6.2z M65.4,5.1c-0.4-0.2,0.7-0.8,0.5-0.3   C65.6,5,65.7,5.3,66,5.2c0.1,0.3-0.4,0.4-0.5,0.1l0.1-0.1L65.5,5C65.5,5,65.4,5.2,65.4,5.1z M68.1,5.8c-0.7,0.1-1.7,0.1-2.5,0.2   C66.4,5.6,67.3,5.5,68.1,5.8L68.1,5.8L68.1,5.8z M67.7,4.4c-0.1,0.2-0.8,0.6-0.2,0.6c0,0.3-0.5,0.4-0.5,0h0.1V4.7H67l0-0.2   c-0.2-0.1-0.5-0.1-0.4,0.2h-0.1v0.4h0.2c0.1,0.3-0.5,0.4-0.4,0c0.3,0,0.2-0.5-0.1-0.3c0,0-0.1-0.3-0.1-0.3   C66.6,4.3,67.1,4.3,67.7,4.4C67.7,4.5,67.7,4.4,67.7,4.4z M67.8,5.1c0.3,0.1,0.4-0.3,0.1-0.3l0-0.3l0.6,0.3l0,0.2l-0.2-0.1   l-0.1,0.3l0.1,0C68.1,5.5,67.6,5.4,67.8,5.1L67.8,5.1z M70.8,8.5c-0.6-0.6-1.6-0.8-1.7-1.7C69.6,7.5,70.6,7.7,70.8,8.5   C70.8,8.6,70.8,8.5,70.8,8.5z M70.5,7.4c-0.4-0.3-1.1-0.4-1.2-1.1C69.9,6.4,70.2,6.9,70.5,7.4C70.5,7.4,70.5,7.4,70.5,7.4z    M69.7,11.7c-0.8,0-1.5-0.7-1.1-1.5C68.6,10.8,69.3,11.3,69.7,11.7L69.7,11.7z M70.2,11.6c-0.5-0.7-1.6-1.2-1.5-2.2   C69,10.3,70.3,10.6,70.2,11.6L70.2,11.6L70.2,11.6z M69.1,7.8c0.5,0.7,1.6,1,1.5,2C70.2,9.1,69.1,8.7,69.1,7.8z M70.5,10.7   C70,10,68.8,9.6,69,8.6C69.3,9.4,70.5,9.8,70.5,10.7L70.5,10.7z M66.7,11l0.2,0c-0.2,0.2-0.3,0.4-0.3,0.6l-0.3,0   C66.3,11.4,66.4,11.1,66.7,11L66.7,11z M67.6,11.5l-0.6,0C67,10.9,67.5,10.8,67.6,11.5C67.6,11.5,67.6,11.5,67.6,11.5z M68.4,11.4   c-0.4,0.1-0.4-0.3-0.7-0.5C68,10.9,68.2,11.2,68.4,11.4C68.4,11.4,68.4,11.4,68.4,11.4z M67.8,10.5l-1.2,0.1   C66.1,9.9,68.4,9.9,67.8,10.5L67.8,10.5L67.8,10.5z M65.1,12.5l0,0.4l-0.2,0C64.8,12.7,64.9,12.6,65.1,12.5z M64.8,12.2   c0.2-0.6,1.1-1,1-1.8C66.4,11.2,65.4,11.8,64.8,12.2C64.8,12.2,64.8,12.2,64.8,12.2z M64.5,12.9l-0.3,0   C64.4,12.6,64.5,12.6,64.5,12.9L64.5,12.9z M64.4,12c-0.2-1,1.1-1.5,1.2-2.5C65.9,10.6,64.8,11.2,64.4,12L64.4,12z M63.6,10.3   c-0.1-1,0.9-1.5,1.3-2.2C64.9,9,64,9.5,63.6,10.3C63.6,10.3,63.6,10.3,63.6,10.3z M65.2,8.9c0.3,1-1,1.6-1.2,2.5   C63.8,10.3,64.8,9.7,65.2,8.9z M71.3,10.9c0.1-0.3-0.2-0.9-0.2-1.2c1.7,0.4,3.4,1.3,5,1.8c0,0.4,0.2,0.8,0.5,1.2   c-0.7,1.4-2.7,0-4.1,0.4c0.3-0.6,0.1-1.4-0.6-1.6c0.7,1.6-0.1,1.3-0.8,2.4c-1.2,0.5-2.9-1.5-3.2-0.4c-0.2,0.1-0.1-0.3-0.3-0.4   c0.3-0.8-0.5,0-0.3,0.3c-0.5,0,0-0.9-0.5-0.7c-0.1,0.1,0.1,0.4-0.2,0.4c-0.1,0.5-0.2-0.1-0.4-0.2c0.3-0.7-0.2-0.2-0.4,0   c-0.2,0.7-0.5-0.8,0.1-0.9c1.5-0.6,4.4,1,4.8-0.6l0.4,0.4c0.1-0.4-0.3-0.9-0.3-1.4C71,10.5,71.1,10.8,71.3,10.9L71.3,10.9   L71.3,10.9z M75.5,10.1c1.9-1.4,1.1,1.2,1.9,2.2c-1.5,0.5-0.3-2.8-1.6-1.9c0.1,0.7,0.2-0.1,0.4,0C76.6,11.4,75,10.9,75.5,10.1   L75.5,10.1z M75.6,8.5c-1.3,0.6-4.4,0.9-3.2-1.4c0.9-1.3,3.7,1,3.6-1c0.6,2.4-2.7-0.1-3.4,1.3c-0.8,2.8,3.9-0.4,3.7,1.4   C76.1,8.6,75.8,8.5,75.6,8.5C75.6,8.5,75.6,8.5,75.6,8.5z M74.8,8.1C72.6,8.9,72.7,7.3,74.8,8.1L74.8,8.1z M76.1,7.5   c-1,0.7-2.4-0.8-3.3,0.2c0.4-1.7,3.2,1,3.5-1.2C76.4,6.9,76.3,7.3,76.1,7.5L76.1,7.5L76.1,7.5z M77.3,8.3c1.9-0.1-0.2,3.1,0.8,4.3   c-1.3-0.6-0.1-3.1-1.9-3C76.6,9.2,76.9,8.7,77.3,8.3z M78.4,6.7c0.1,0.4,0.5,0.6,0.9,0.7C78.5,9,76.8,7.7,78.4,6.7L78.4,6.7z    M78.2,11c-0.2-1.5,1.1-2.6,1.1-3.9c-1.6-0.1-0.8-2.6,0.5-1.5c0.5,0.4-0.1,1.6-0.6,0.9c-0.1-0.6,0.1-0.2,0.3-0.2   C80,6,79.2,5.7,79,6.1c-0.1,1.4,1.7,0.5,2.3,0.1c0-0.7-0.6-0.1-0.8,0c-0.6-3.1-3.4,0-3.3,1.6c-0.3,0-0.5,0.4-0.7,0.6l-0.4-0.4   c1.5-0.6,0.3-3.3-1.1-2.5c-0.5,0.4,0.4,1.2,0.2,0.4c0.4-0.4,0.7,0.6,0.1,0.6c-1.4-0.3-3.5-0.8-3.7,1.2c0,3.9,5.8-0.9,3.3,2.8   C73.7,10,71.9,9.8,70.9,9l0.5,0.2c-0.1-0.4-0.4-0.9-0.6-1.3C71,7.9,71.1,8,71.3,8c-0.3-1.1-1.9-1.8-1.8-2.7c0,0-1,0.3-1.1,0.3   c-0.1-0.4,1-1.3,0-1.3c0-0.5-0.5,0-0.5-0.3c-0.1-0.1-0.2,0-0.3,0c-0.1-0.2-0.3-0.2-0.4-0.1c-0.1-0.3-0.5-0.8,0-0.6   c0-0.1,0-0.3,0-0.4l-0.4,0V2.5c-0.1,0-0.3,0-0.4,0c0,0.1,0.1,0.3,0.1,0.4h-0.4c0,0.6,0.8,0.2,0.2,1.1c-0.1-0.1-0.2-0.1-0.3,0   c0,0.4-0.3-0.1-0.4,0.2c0,0.4-0.3,0-0.4,0.2c-0.8,0.5-0.1,0.7,0.2,1.4c-0.4,0-0.8-0.1-1.2-0.2c0.3,0.9-1.4,1.7-1.4,2.9   c0.1,0,0.2-0.2,0.4-0.1c-0.1,0.5-0.9,1.8,0,1.2c0.1,0.5-0.6,2,0.3,1.4c0,0.2,0,0.4,0,0.6c-6.3,0.3-1,3.3-8.8,1.8   c2.6,1.5,2.6,1.8-0.4,2.5c6.8,0.8,12.1,0,18.8,0.4c0.6-1.2,3.4-0.3,4.7,0.1c0.9,0.5,1.4-1,2.3-0.6c0.8,0.5,1.7,0.8,2.6,0.9   C80.6,15.4,78.1,13.9,78.2,11L78.2,11z"></path>		<path fill="#8599AC" d="M70,14.6v-0.1l-0.7-0.1v0.2h0.1c0.1,1.5-0.8,0.5-0.5-0.2l-0.6-0.1c0.1,1.3,0.6,1.3,1.8,1.4   c-0.1-0.1-0.1-0.8-0.1-1L70,14.6"></path>		<path fill="#8599AC" d="M67.6,15c-0.1,0-0.3,0-0.4,0v-0.3c0.2,0,0.2,0.2,0.4,0.2c0.1-0.7-0.5,0-0.4-0.6c0.1,0,0.6,0.1,0.6,0.4H68   c0.2-0.6-1.1-0.5-1.4-0.6c0.1,0.2,0.2,0.7,0.1,1l-0.1,0v0.2l1.3,0.2l0.1-0.4C67.9,14.8,67.7,14.9,67.6,15 M74.2,13.7v0.5   c0.2,0,0.2-0.3,0.5-0.2v0.8h-0.2v0.1l0.8,0.1c-0.1-0.1-0.2-0.7-0.1-1c0.3,0,0.3,0.4,0.5,0.3V14L74.2,13.7"></path>		<path fill="#8599AC" d="M73.8,14.6c-0.2,0.1-0.5,0.1-0.4-0.2c0,0,0.2,0,0.2,0.1h0.1v-0.3c-0.2,0-0.1,0.1-0.4,0.1   c-0.1-0.7,0.5-0.2,0.7-0.1L74,13.7h-1.3v0.2l0.1,0c0,0.3,0,0.7-0.1,0.9c0.3-0.1,1.5,0.2,1.4-0.3C73.9,14.5,73.9,14.5,73.8,14.6    M65.5,13.9c0.2,0,0.3,1,0,0.8l0,0.1l0.8,0.1c-0.1-0.1-0.2-0.8-0.1-1h0.1v-0.1l-0.8-0.1L65.5,13.9 M76.1,12.3   c0.1-0.3-2-0.5-2.1-0.6C74.5,12.2,75.4,12.2,76.1,12.3"></path>		<path fill="#8599AC" d="M76.1,12.7l0.1-0.2l-2.7-0.5C74.3,12.5,75.3,12.6,76.1,12.7 M75.9,11.9c0.2-0.3-1.5-0.3-1.6-0.4   C74.8,11.8,75.4,11.8,75.9,11.9 M84.9,6.4C79.5,7.4,82.9,4.4,84.9,6.4L84.9,6.4z M81.5,5.8L81.5,5.8c0.1,1.5,3.7,1.4,3.8,0   C84,5.3,82.7,5.3,81.5,5.8L81.5,5.8L81.5,5.8z"></path>		<path fill="#8599AC" d="M82.1,3.8c-0.3,0.1-0.1,0.4,0,0.5c-0.3-0.1-0.5,0.4-0.2,0.5C82,4.6,82.2,4.7,82.1,5c-0.1,0.5-1,0-0.4-0.1   l-0.2-0.5l-0.3,0.2C80.8,4.1,81.7,4,82.1,3.8C82.1,3.8,82.1,3.8,82.1,3.8z M84.6,3.8c-0.3,0-0.3,0.2-0.3,0.4   C84,4,83.7,4.4,83.9,4.7C84.4,4.4,84.2,5,83.8,5c-0.3,0.1-0.5-0.6-0.1-0.3c0-0.2,0-0.4,0-0.6h-0.2l0.1-0.3H83l0,0.3h-0.2   c0.1,0.2,0.1,0.4,0,0.6c0.1,0,0.2,0,0.2,0c0.1,0.5-0.7,0.5-0.7,0c0.5,0.1,0.4-0.7-0.1-0.4c0-0.2-0.1-0.4-0.3-0.4   C82.9,3.5,83.7,3.5,84.6,3.8L84.6,3.8z M85.5,4.3l-0.1,0.3l-0.2-0.2L85,4.8c0.7,0.2-0.7,0.6-0.4-0.1c0.1,0,0.2,0,0.2,0.1   c0.3-0.2,0.2-0.6-0.2-0.5c0.1-0.2,0.1-0.4-0.1-0.5C84.9,3.9,85.2,4.1,85.5,4.3z M80.6,4.4L80.6,4.4c0.3,0.4,0.5,0.7,0.7,1.2   c1.3-0.5,2.7-0.5,4,0c0.1-0.4,0.4-0.8,0.7-1.2l-0.1,0c0.3-0.3,0.1-0.8-0.4-0.6c0-0.4-0.4-0.4-0.6-0.3c0-0.3-0.4-0.4-0.6-0.2   C84.4,3,84.1,2.8,83.9,3c-0.1-0.3-0.3-0.7-0.3-1L84,2.2V1.6l-0.5,0.1L83.7,1h-0.7L83,1.7l-0.5-0.1v0.7L83,2.1c0,0.3-0.2,0.7-0.3,1   c-0.2-0.2-0.5-0.1-0.6,0.2c-0.2-0.2-0.6,0-0.6,0.2c-0.4-0.3-0.5,0.2-0.6,0.3C80.6,3.6,80.3,4.2,80.6,4.4L80.6,4.4z M82.2,6.4   c0.7,0,1.5,0,2.3,0C83.7,6.2,82.9,6.2,82.2,6.4 M69.8,13.3c0.8,0,2.1,0.1,1.7-1.1C71.3,13.5,70.4,12.8,69.8,13.3 M75.9,13.1   c0,0,0-0.1,0.1-0.2l-2.5-0.5C74.2,12.9,75.1,13,75.9,13.1 M93.9,14.7h0.4v-0.1h-0.1v-0.5c0.1,0.1,0.7,0.9,0.9,0.7v-1h0.1v-0.2   h-0.4v0.1h0.1v0.3c-0.2-0.3-0.7-0.6-1.1-0.5l0,0.1H94v0.8h-0.1L93.9,14.7"></path>		<path fill="#8599AC" d="M93,14.7C92,13.6,93.7,13.3,93,14.7L93,14.7z M93,13.6c-0.7-0.1-1,0.8-0.4,1.2   C93.6,15.2,94.2,13.6,93,13.6z M96.3,13c-0.8,0.8,1.3,1.2,1.8,1.3C97.4,13.6,96.4,13.9,96.3,13"></path>		<path fill="#8599AC" d="M106.2,15.5c0.9,0,0.6-0.9,0.6-1.5l3.4-0.2c-0.6,0.4-1.2,0.7-1.8,0.9c0.6,0.3,1.1,0.5,1.8,0.7   C108.8,15.5,107.5,15.5,106.2,15.5C106.2,15.5,106.2,15.5,106.2,15.5z M104.9,15.4c-0.4-0.9,1.2-0.4,1.7-0.4   C106.2,15.4,105.4,15.3,104.9,15.4C104.9,15.4,104.9,15.4,104.9,15.4z M100.9,15.5c0.2-0.5,1.2-0.5,0.6-1.3   c-0.5-0.6-1.3,0.2-1.7-0.2c2,0.1,6.9-2.9,6.8,0.7C104.6,14.3,102.8,15.1,100.9,15.5L100.9,15.5z M100.6,14.3   c0.4-0.2,0.8,0.6,0.4,0.8C100.9,14.8,100.8,14.5,100.6,14.3z M99.9,13.5L99.9,13.5L99.9,13.5L99.9,13.5z M100.3,15.8   c-1.2-0.1-2.6,0.3-3.6-0.5c0.7-0.9,1.6,0.3,2.5,0c-0.3-1.2-4.2-0.4-3.4-2.6c0.6-0.7-0.7-0.2-0.4,0.3c-0.4-0.2-1.4,0-0.7-0.5   c0.1-0.6,0-1-0.1-1.4c0.3,0.3,1.1-1,0.8-1.2l0.1-0.1c0.3,0.2,1.4,0,1.3-0.4l0.2,0c0.1,1.1-1.5,0.2-1.7,1.3   c1.6-0.4,3.1-0.4,4.6,0.6c-0.4,0.8,0.2,1.9-0.7,2.5c-0.3-0.4,0.7-1,0.2-1.4c-0.2,0.2-0.3,0.8-0.5,1.1c-0.9-0.6,0.1-1.5-1.3-0.1   C98.5,13.5,101,14.6,100.3,15.8L100.3,15.8L100.3,15.8z M95.9,14.6c0.3-0.5,1,0,1.4,0.1C96.7,14.9,96.2,15.3,95.9,14.6z    M95.5,15.8c0.2-0.1,0.4-0.3,0.3-0.6c0.1,0.1,0.3,0.2,0.5,0.2c0,0.1,0.2,0.3,0.3,0.3C96.5,15.8,95.5,15.8,95.5,15.8z M93.9,15.7   l0-0.4c0.6-0.1,1.2,0,1.7,0.3C95.1,15.7,94.4,15.7,93.9,15.7L93.9,15.7L93.9,15.7z M89.6,15.3c0.2-0.4,0.5-0.7,0.7-1   c0.3,0.2,0.1,0.7,0,0.8h0.4c0-0.1-0.2-0.3-0.1-0.5l0.4,0.4l0.4-0.6l0,0.4c-0.1,0-0.2,0.1-0.1,0.2l0.7-0.1l0-0.2c0,0-0.1,0-0.1,0   L91.9,14l0.1,0l0-0.2c-0.4-0.1-0.7,0.3-0.8,0.7c-0.1-0.1-0.5-0.6-0.6-0.5c1.4-0.6,5.5-1.6,4.9,1.2C93.5,14.5,91.6,15.7,89.6,15.3   L89.6,15.3z M89.3,14.9c-0.2-0.6-0.8-1-1.4-0.7C88.8,11.7,91.4,12.7,89.3,14.9L89.3,14.9L89.3,14.9z M88.9,15.6   c-1,1-1.1-1.3-0.6-0.1c0.7-0.4-0.7-1-0.6-0.1c-0.2-0.2-0.4-0.3-0.7-0.3C87.6,14.1,89.5,14.1,88.9,15.6L88.9,15.6L88.9,15.6z    M88.5,8.9c0.1-1.8,1.7,0.2,2.1,0.6c-2-0.3-0.6,2.3-1.9,3C89.1,11.3,89,10,88.5,8.9L88.5,8.9z M88.4,8.1C88,8,87.8,7.7,87.5,7.3   c0.4-0.1,0.7-0.4,0.8-0.7C89.1,7,89.5,8.2,88.4,8.1z M94,8.2c1.7-2.9-3-0.2-3.2-1.8c1,1.1,3-1,3.9,0.6c0.7,3.1-2.9,0.8-4.2,1.7   l-0.2-0.1C91.3,7.3,92.8,8.8,94,8.2z M93.8,7.9c-0.3,0.6-1.4,0.1-1.9,0C92.4,7.8,93.4,7.4,93.8,7.9L93.8,7.9L93.8,7.9z M90.1,7.2   L90.1,7.2C91.2,8.3,93.7,6,94,7.8C93.1,6.6,91,8.8,90.1,7.2z M90.9,9.8c0.8,0.4-0.1,1.7-0.6,0.8c0.2-0.7,0.3,0.2,0.5,0   c-1-1.8-0.1,2.3-1.5,1.7C90,11.5,89.2,9.2,90.9,9.8L90.9,9.8L90.9,9.8z M94.1,11.7l0.3,0l0,0.7l-0.3,0   C94,12.4,94.1,11.7,94.1,11.7z M94.5,10.6c0.1-0.2,0.2-0.3,0.3-0.5l0.2,0.1c-0.1,0.2-0.2,0.4-0.3,0.6   C94.6,10.7,94.4,10.7,94.5,10.6z M96.3,9.1c0.1,0,0,0.2,0.1,0.2C95.6,9.8,95.5,9.2,96.3,9.1L96.3,9.1z M98.4,9.6   c0.4,0,0.4-0.9,0.7-1.2c0.6,0.1,1.1-1,0.6-1.1c-0.1,0.9-1.1,0.7-1.7,0.5c-0.6-0.1-1,0.6-1.5,0.4C96,7.8,96.7,8,96.8,7.7   c-0.1-0.9-1.2,0.5-0.8-0.8c0.5,0.4,0.9-0.5,0.1-0.1c1.1-0.8,2.6-0.7,3.5-1.7c0,0.3,0.2,0.8-0.1,1.1c0.2,0.2,0.3,0,0.4-0.2   c1.4,0.6,1.5,3.7,0.4,4c0.2-0.6-0.4-0.2-0.6-0.1c0.2,0.3-0.1,0.7-0.4,0.2c-0.1-0.5,0.3,0.1,0.3-0.2c0.1-0.2,0.2-0.4-0.1-0.4   c0.3-0.6-0.9-0.4-0.8,0.2l0.2,0.1c-0.1,0.3-0.5,0.3-0.6,0C98.2,9.7,98.3,9.6,98.4,9.6L98.4,9.6L98.4,9.6z M99,4.6   c0.2-0.3,0.5-0.5,0.8-0.6C99.8,4.6,98.6,5.7,99,4.6z M100.9,4.3c0,0.5-0.6,0.8-0.7,1.3C99.7,5.1,100.5,4.5,100.9,4.3L100.9,4.3z    M101.8,4.9c-0.1,0.6-0.8,0.7-1.1,1.1C100.2,5.5,101.5,5.1,101.8,4.9z M102.7,6C101,7.1,100.6,5.8,102.7,6L102.7,6z M103,7   C101.1,7.8,101,6.3,103,7L103,7z M103.1,8C101.3,8.5,101.3,7.1,103.1,8C103.1,8,103.1,8,103.1,8z M102.9,8.9   C101.2,9.2,101.4,7.8,102.9,8.9C102.9,8.9,102.9,8.9,102.9,8.9z M101.4,9.3c-0.1-0.7,1,0.4,1.1,0.5C102.1,9.9,101.6,9.7,101.4,9.3   z M101.1,10.1c-0.2-1,0.7,0.4,0.8,0.5C101.6,10.5,101.3,10.3,101.1,10.1z M100.7,10.7c0-0.7,0.6,0.3,0.7,0.4   C101.2,11.2,100.9,11,100.7,10.7z M100.2,10.6C99.6,10.4,100.6,10.1,100.2,10.6C100.2,10.6,100.2,10.6,100.2,10.6z M102,12.7   c0.2,0,0.4,0,0.6,0.1c-0.8,0.2-1.7,0.4-2.5,0.6C100.7,13.3,101.3,13,102,12.7C102,12.7,102,12.7,102,12.7z M109.5,14.6   c0.9-0.4,1.7-1,2.4-1.6c-3.1,0.9-4.8-0.2-7.5-0.4c-0.5,0-1.2,0.6-1.6-0.1c-0.8-0.6-1.8,0.3-2.6,0.4c0.2-0.5-0.1-1.1,0.1-1.5   c0.2,0.4,0.6,0.6,1,0.6c0-0.1-0.2-0.3-0.2-0.4c0.4,0.2,0.9,0,1.2,0.2c0-0.3-0.4-0.6-0.6-0.7c0.3,0,0.6,0,0.9,0   c-0.1-0.3-0.3-0.7-0.6-0.9c0.4,0,0.9,0,1.2,0c-0.2-0.3-0.4-0.6-0.7-0.7c0.3-0.1,0.9-0.1,1.2-0.1c-0.3-0.3-0.6-0.6-1-0.7   c0.2-0.1,1-0.3,1.2-0.3c-0.8-0.7-1.3-0.6-0.1-1.2c-0.3-0.3-0.8-0.4-1.2-0.5c1.2-0.8,0.3-1-0.7-0.9c0.2-0.3,0.3-0.7,0.6-1   c-0.4,0-0.9,0-1.3,0.2l0.2-0.9c-0.4,0-0.9,0.2-1.3,0.5c0-0.3,0.1-0.6,0.1-0.8c-1,0.1-2.3,1-1.6,1.9c-0.3-0.2-0.3-0.7-0.7-0.6   C98,5,98.1,5.1,98.1,5.3c-0.3-0.2-0.3-0.8-0.7-0.6c0,0,0.2,0.3,0.1,0.3c-0.3-0.2-0.3-0.8-0.8-0.5C96.8,4.6,97,4.8,97,4.9   c-0.3-0.1-0.4-0.8-0.8-0.6c0.1,0.1,0.2,0.2,0.2,0.3c-0.3-0.1-0.4-0.7-0.8-0.5c0.1,0.1,0.1,0.2,0.1,0.3c-0.3-0.1-0.3-0.6-0.7-0.5   c0,0.1,0.1,0.2,0.1,0.3c-0.1-0.1-0.4-0.7-0.5-0.2c1.2,0.7,2.7,1,3.9,1.6c-1.6-0.1-4.1,1.4-2.1,3c0.7,0.3,1.5-0.7,2.3-0.2   c0.1,0.5-1,0.7-0.6,1c0.2,0.3-0.5,0.4-0.5,0c0.1-0.1,0.3-0.1,0.3-0.5l-0.2,0c0.2-0.3-0.1-0.3-0.4-0.3C97.2,8.9,97,9,96.8,9   c0-0.3-1.5-0.1-1.3,0.3c-0.2,0.1-0.4,0.7-0.7,0.3c-0.6,0.5-0.5,1.1-0.6,1.7c-0.4-0.2-0.5,1.5-0.1,1.4c-1,0.2-3.2,1.1-3.8-0.2   c0.3-0.3,0.5-0.7,0.5-1.2c1.1-0.4,2.1-0.4,3.3-0.5c-0.2-0.1-0.1-0.3,0-0.4c-0.8,0.1-1.5,0.1-2.3,0c0.1-0.7-0.6-1.1-1-1.5   c5.3,1.1,6.2-3.4,1.5-2.9c-0.6,0.3-1.7,0.2-1.3-0.7c-0.7,0.1-0.7,1.1-0.5,1.6c-1.1-1.4-0.8,0.8,0.3,1c-0.5,0.4-0.9,0.2-1.3-0.3   c0.1-1.5-3-4.5-3.4-1.5c-0.2-0.1-0.5-0.2-0.8-0.3C85.1,7,89,7,87.3,5.8c-0.3,0-0.3,0.4-0.1,0.4c0.2-0.6,0.6,0.2,0.1,0.3   c-0.8,0.3-0.8-1-0.2-1.2c1.2-0.5,1.7,1.8,0.3,1.7c2.4,3.9,0.9,8.2-3.6,9.5c2.4-0.3,2.5-1.5,4.9-0.3c1.3-0.8,3.3-0.4,4.9-0.8   c2.5,2.1,7.6,0.1,10.9-0.3c1.5,1.8,5.6,0.4,7.9,0.3C111.4,15.3,110.4,15,109.5,14.6L109.5,14.6z"></path>		<path fill="#8599AC" d="M90.6,12.3c0.4-0.1,2-0.3,2.2-0.6C92.6,11.8,90.6,11.9,90.6,12.3 M90.6,12.7c0.8-0.2,1.9-0.2,2.5-0.7   c-0.8,0.3-1.8,0.3-2.6,0.5L90.6,12.7"></path>		<path fill="#8599AC" d="M93.2,12.6L93.2,12.6l-2.4,0.4l0.1,0.2L93.2,12.6 M90.8,11.7l0,0.2c0.5-0.1,1.2-0.1,1.5-0.4L90.8,11.7   L90.8,11.7z M105.5,13.4l0.2,0v0.8l-0.1,0v0.1l0.7,0.1c-0.1-0.1-0.2-0.7-0.2-1c0.2,0,0.1,0.2,0.3,0.3c0.1-0.5-0.7-0.4-1-0.5v0.4   C105.5,13.7,105.5,13.4,105.5,13.4 M105.3,14.2h-0.1l-0.1-0.8h0.1l0-0.2l-0.7,0.1l0,0.1h0.1l0.1,0.8l-0.1,0l0,0.1l0.7-0.1   L105.3,14.2 M102.3,14.3c0-0.1-0.1-0.2-0.1-0.4C102.4,13.7,102.7,14.3,102.3,14.3L102.3,14.3z M102.9,13.9c0-0.2-0.4-0.2-0.7-0.2   c0,0-0.6,0.2-0.6,0.2l0,0.1l0.1,0c0.1,0.2,0.2,0.9,0.2,1l0.6-0.1c0,0-0.1-0.2-0.1-0.1l0-0.3c0.2-0.1,0.3,0.2,0.4,0.4l0.4-0.1   l-0.3-0.4C102.8,14.3,102.9,14.3,102.9,13.9L102.9,13.9L102.9,13.9z"></path>		<path fill="#8599AC" d="M103.9,14.5C102.8,13.5,104.4,13.1,103.9,14.5L103.9,14.5z M104.1,13.4C101,13.8,105.6,15.8,104.1,13.4   C104.1,13.4,104.1,13.4,104.1,13.4z M85.9,14.1L85.9,14.1c0.4-0.5-0.7-0.3-0.9-0.4c0.1-0.1,0.4-0.1,0.6-0.1   c0.5-0.2-0.9-0.2-0.6,0.2c0.3,0,0.7-0.1,0.9,0.1c-0.4-0.1-0.8,0.1-1.2,0l0-0.1c-0.3-0.2-0.6-0.2-0.5,0.2c-0.1,0-0.3-0.6-0.4,0   c0.2,0.1,0.2,0.3,0.4,0.4c0,0.1-0.2,0.2-0.2,0.1c-0.6,0.4,0.3,0.2,0.5,0.1c0.4-0.4,0.7-0.1,0.1,0c-0.1,0.4,0.8,0,0.7-0.2   c0.3-0.2,0.4,0.2,0,0C85.1,14.8,85.8,14.4,85.9,14.1"></path>		<path fill="#8599AC" d="M83.9,7.8h2.4v2.7h-2.4V7.8z M83.7,10.7h2.9V7.6h-2.9V10.7z M84.2,13.4c0.4-0.1,0.7-0.4,1.2-0.3   c0,0.2-0.8,0.2-0.3,0.4c0.4-0.2,0.5,0.1,0.7-0.4c0.1,0,0.6-0.1,0.4,0.1c-0.7,0,0.3,0.5,0.3-0.2c-0.1,0-0.2,0-0.3-0.1   c0.6-0.5-0.8-0.2-1.1-0.4c1-0.2,0.4-0.4-0.1,0c2,0.2,1,0.2-0.3,0.1c0.2-0.3-0.4-0.2-0.5-0.3c0.1,0.3-0.3,0.4-0.1,0.1   c-0.1-0.2-0.3,0-0.3,0.1c0.2,0,0.2,0.4,0.4,0.4C83.6,13.2,83.4,13.5,84.2,13.4"></path>		<path fill="#8599AC" d="M83.8,12.4c0.6,0,1-0.5,1.7-0.4c0,0.2-1,0.2-0.3,0.4c0.1-0.2,0.4,0,0.6-0.1c-0.1-0.1,0.1-0.1,0.1-0.2   c0.3,0,0.8,0.1,0.2,0.1c0.1,0.6,0.9-0.3,0.2-0.3c0.7-0.5-1-0.1-1.1-0.4c0.2-0.1,0.6,0.1,0.6-0.2c-0.2,0-0.7,0-0.8,0.2   c0.3,0.3,1-0.2,1.3,0.1c-0.6,0.1-1.1,0.1-1.7,0c0.1-0.2-0.3-0.3-0.5-0.2c0,0.1,0.1,0.3-0.1,0.3c-0.1-0.2-0.2-0.5-0.4-0.1   c0.2,0.1,0.2,0.3,0.4,0.4C84.1,12.2,83.6,12.1,83.8,12.4 M83.5,15.9v-4.7h3.3C87.4,14.1,85.3,14.6,83.5,15.9   C83.5,15.9,83.5,15.9,83.5,15.9z M83.5,7.4h3.3v3.5h-3.3C83.5,10.9,83.5,7.4,83.5,7.4z M83.2,10.9h-3.3V7.4h3.3   C83.2,7.4,83.2,10.9,83.2,10.9z M83.2,15.9c-1.8-1.1-3.8-2-3.3-4.7h3.3C83.2,11.2,83.2,15.9,83.2,15.9z M79.5,13.1   c-0.7-1.3-0.7-2.9,0-4.2V13.1z M87.2,8.9c0.7,1.3,0.7,3,0,4.3C87.2,13.2,87.2,8.9,87.2,8.9z M86,14.9c3.2-1.9,1.6-5.2,1.2-7.9   h-1.5c-0.2-0.1-0.6-0.4-0.8-0.2L85.3,7h-3.7l0.4-0.2c-0.2-0.2-0.7,0-0.9,0.2c0,0-1.5,0-1.5,0c-1.4,5.4-0.8,6.7,3.9,9.8   C83.9,15.8,84.8,15.4,86,14.9L86,14.9L86,14.9z"></path>		<path fill="#8599AC" d="M80.3,8.7c0.2,0,0.4-0.1,0.6-0.2c0.3,0.1,0.7-0.3,1-0.2c-0.9,0.4-0.3,0.4,0.3,0.2   c-0.1-0.1,0.1-0.1,0.1-0.2c0.2,0.1,0.4-0.1,0.5,0.1c-0.3-0.1-0.4,0.2,0,0.2c0.3-0.2,0.4-0.5,0-0.6c0.6-0.5-0.9-0.2-1-0.4   c0.1-0.1,0.8,0,0.5-0.2c-2.2,0.5,2.7,0.5-1,0.4l0-0.1c-0.4-0.2-0.5-0.2-0.6,0.2c-0.4-0.7-0.5,0,0,0.3C80.4,8.4,79.9,8.3,80.3,8.7    M81.4,12.9c0.1,0.2,1.3,0.6,1,0.9C82.3,13.7,80.4,12.5,81.4,12.9z M81.5,12.4c0.3,0.3,1.1,0.4,1,0.9   C82.1,13.1,81.3,12.8,81.5,12.4z M81.7,12c0.1,0.1,1,0.4,0.8,0.7c-0.3-0.2-0.6-0.3-0.9-0.5L81.7,12L81.7,12z M82.6,11.9l0,0.4   c-0.2-0.1-0.4-0.2-0.6-0.4H82.6z M82.4,14.3c-0.4-0.2-0.9-0.5-1-0.9C81.7,13.6,82.5,13.8,82.4,14.3z M82.1,14.6   c0.3,0.1,0.5,0.4,0.8,0.5c0.1-1.2,0.1-2.4,0.1-3.6h-1.6c-0.4,0-0.1,0.9-0.6,0.6C81.1,9.7,78.9,13.6,82.1,14.6   C82.1,14.6,82.1,14.6,82.1,14.6z"></path>		<path fill="#8599AC" d="M86.1,8.2c-0.3-0.5-0.6,0.6-0.4,0.8c0,0.2,0.5,0.4,0.2,0.5c-0.7-0.3-0.5-0.9-0.3-1.5   c-0.2-0.3-1.1,0-0.5,0.1c-0.1,0.1-0.3,0.1,0,0.2C84.5,8.9,84.5,8,84.2,8c-0.3,0.3,0.2,0.6,0.4,0.9c-0.3,0.3-0.4-0.1-0.6,0.2   c-0.1,0.5,0.5,0.1,0.8,0L85,9.3c-0.4,0-0.1,0.2-0.2,0.4c-0.1,0.1-0.2,0-0.2-0.1c-0.2,0-0.1,0.2-0.2,0.2c-0.1,0.1,0.1,0.1,0,0.2   c0,0,0.1,0.1,0.1,0.1c0.1-0.3,0.8-0.1,0.6-0.5c0.1,0,0.4,0.3,0.5,0.5c-0.6,0,0.1,0.6,0.3-0.1c0-0.2-0.4-0.2-0.2-0.5   c1,0.5-0.5-1.2,0.3-1.3c0.1,0.2-0.3,0.4,0.1,0.6C86.4,9,85.9,8.4,86.1,8.2 M82.6,9.4c-0.1,0.6,0.9-0.3,0.2-0.3   c0.6-0.5-0.7-0.3-1-0.4c1-0.2,0.4-0.4-0.2-0.1c0.1,0.5,0.9-0.1,1.2,0.3c-1.1,0.1-1.3,0-2.1-0.3c-0.1,0.1,0.1,0.4-0.1,0.3   c-0.1-0.2,0.1-0.3-0.2-0.3c-0.4,0.1,0.6,0.8,0.1,0.7c-0.7,0.7,1.1-0.2,1.5-0.1c0,0.1-0.3,0.3-0.4,0.2C81,9.9,82,9.5,82.2,9.6   c-0.1,0.1-0.4,0-0.6,0.2c-0.1,0.5,1.2-0.1,1.2,0.3c-0.6-0.1-1.1,0.1-1.6-0.1c0.2-0.2-0.4-0.3-0.5-0.2c0.1,0.4-0.1,0.4-0.2,0   c-0.5-0.1-0.1,0.5,0.1,0.6c-0.1,0.1-0.2,0.2-0.3,0c-0.7,0.9,1.6-0.5,1.5,0c-0.2,0-0.3,0-0.5,0c-0.1,0.4,0.4,0.1,0.6,0.1   c0.2-0.1,0.3-0.5,0.8-0.2c-0.7,0.3,0.3,0.5,0.3-0.2c-0.1,0-0.2,0-0.3,0c0.6-0.5-0.8-0.3-1-0.4c0.1-0.1,0.9-0.1,0.4-0.3   C82,9,83.2,9.5,82.6,9.4 M100.3,9.3c0.7-0.2,0.7-2,0-2.6C100.5,7.5,100.7,8.6,100.3,9.3 M98.4,6.3l0.2,0.1c0,0.1-0.2,0.1-0.3,0.1   C98.4,6.5,98.4,6.4,98.4,6.3C98.4,6.3,98.4,6.3,98.4,6.3z M97.9,6.5c0-0.1,0.1-0.1,0.1-0.2l0,0.2C98.1,6.5,97.9,6.5,97.9,6.5z    M98.1,6.1c-0.2,0-0.3,0.2-0.4,0.4c0.3,0.4,0.9,0.4,1.2,0C98.6,6.3,98.4,6,98.1,6.1z M15.2,30.7v-0.5c-1.1,0-1.8-0.3-1.8-1.4v-8   c2.2,0,2.7,0.4,2.9,2.1h0.5v-3.2H7V23h0.5c0.2-1.7,0.7-2.1,2.9-2.1v8c0,1.2-0.7,1.4-1.8,1.4v0.5H15.2 M24.8,25.5v3.3   c0,1.1-0.6,1.4-1.5,1.4v0.5h5.8v-0.5c-1.1,0-1.5-0.3-1.5-1.4v-7.1c0-1.2,0.4-1.4,1.5-1.4v-0.5h-5.8v0.5c0.9,0,1.5,0.4,1.5,1.4v2.9   H21v-2.9c0-1.1,0.6-1.4,1.5-1.4v-0.5h-5.3v0.5c0.7,0.1,1,0.3,1,1.4v7.1c0,1.2-0.4,1.4-1.5,1.4v0.5h5.8v-0.5   c-0.9,0-1.5-0.4-1.5-1.4v-3.3H24.8z M38.7,30.7v-3.2h-0.4c-0.6,2.3-1.3,2.5-2.4,2.5h-1.3c-0.6,0-0.8-0.2-0.8-0.8v-3.7   c1.6,0,2.8-0.2,2.9,1.4h0.4v-3.5h-0.4c-0.1,1.4-1.3,1.2-2.9,1.2v-4h1.7c1.7,0,2.5,0.7,2.6,2.3h0.3v-3.1h-9v0.5   c1.1,0,1.5,0.3,1.5,1.4v7.1c0,1.2-0.4,1.4-1.5,1.4v0.5L38.7,30.7 M44.4,30.8h0.3c0.1-0.3,0.3-0.5,0.6-0.5c0.6,0,1.1,0.7,3.5,0.7   c0.5,0,0.9-0.1,1.4-0.3c0.4-0.2,0.8-0.5,1.1-0.8c0.3-0.3,0.6-0.8,0.7-1.2s0.2-0.9,0.2-1.4c0-3.7-6-3.1-6-5.6   c0-0.9,0.9-1.4,1.8-1.4c1.4,0,2.4,1.1,2.9,2.5h0.3v-3h-0.5c-0.1,0.2-0.1,0.4-0.4,0.4c-0.5,0-1-0.7-2.5-0.7c-1.9,0-3.9,0.8-3.9,3.2   c0,4,6,3.4,6,6c0,0.8-0.9,1.5-2.1,1.5c-0.8,0-1.5-0.3-2.1-0.8c-0.6-0.5-1-1.2-1.2-2h-0.4L44.4,30.8 M124.1,30.7v-0.4   c-0.9,0-1.3-0.6-1.3-1.7V22c0-1.2,0.2-1.6,1.1-1.6v-0.5h-5.1v0.5c0.9,0,1.1,0.5,1.1,1.6v6.6c0,1.2-0.4,1.7-1.3,1.7v0.4H124.1    M131.4,30.7l3.4-8.8v6.6c0,1.3-0.2,1.6-1.5,1.7v0.4h5.7v-0.4c-1.4-0.1-1.5-0.6-1.5-1.7V22c0-1.5,0.2-1.5,1.5-1.7v-0.5h-4.4   l-2.7,7.1l-2.6-7.1h-4.4v0.5c1,0,1.4,0.6,1.4,1.7v6.7c0,1.2-0.2,1.4-1.4,1.6v0.4h3.9v-0.4c-1.4-0.2-1.5-0.4-1.5-1.6v-6.3l3.3,8.3   L131.4,30.7 M148.9,30.7v-3.2h-0.4c-0.6,2.3-1.3,2.5-2.4,2.5h-1.3c-0.6,0-0.8-0.2-0.8-0.8v-3.7c1.6,0,2.7-0.2,2.9,1.4h0.4v-3.5   h-0.4c-0.1,1.4-1.3,1.2-2.9,1.2v-4h1.7c1.7,0,2.5,0.7,2.6,2.3h0.3v-3.1h-9v0.5c1.1,0,1.5,0.3,1.5,1.4v7.1c0,1.2-0.4,1.4-1.5,1.4   v0.4L148.9,30.7 M150.2,30.8h0.3c0.1-0.3,0.3-0.5,0.6-0.5c1.1,0.4,2.3,0.6,3.5,0.7c0.5,0,0.9-0.1,1.4-0.3s0.8-0.5,1.1-0.8   c0.3-0.3,0.6-0.8,0.7-1.2c0.2-0.4,0.2-0.9,0.2-1.4c0-3.7-6-3.1-6-5.6c0-0.9,0.9-1.4,1.8-1.4c1.4,0,2.4,1.1,2.9,2.5h0.3v-3h-0.5   c-0.1,0.2-0.1,0.4-0.4,0.4c-0.5,0-1-0.7-2.5-0.7c-1.9,0-3.9,0.8-3.9,3.2c0,4,6,3.4,6,6c0,0.8-0.9,1.5-2.1,1.5   c-0.8,0-1.5-0.3-2.1-0.8c-0.6-0.5-1-1.2-1.2-2H150L150.2,30.8 M116.7,30.7v-0.5c-1.1,0-1.8-0.3-1.8-1.4v-8c2.2,0,2.7,0.4,2.9,2.1   h0.5v-3.2h-9.9V23h0.5c0.2-1.7,0.7-2.1,2.9-2.1v8c0,1.2-0.7,1.4-1.8,1.4v0.5L116.7,30.7 M63.9,20.3c0.6,0,0.8,0.1,1.3,0.8v7.7   c0,1.2-0.5,1.4-1.7,1.4v0.5h4.4v-0.5c-1.2,0-1.7-0.3-1.7-1.4v-6.1h0l6.2,8h1.3V22c0-1.2,0.4-1.6,1.5-1.7v-0.5h-3.8v0.5   c1.1,0.2,1.3,0.5,1.3,1.7v4.6h0l-5-6.7h-7.8v0.5c1,0,1.4,0.5,1.4,1.4v5.3c0,2-0.6,2.8-2.3,2.8c-1,0-2.3-0.5-2.3-2.1v-6   c0-1.2,0.4-1.4,1.5-1.4v-0.5h-5.7v0.5c1.1,0,1.5,0.3,1.5,1.4v5.8c0,2.6,1.8,3.5,4.3,3.5c2.7,0,4.1-0.9,4.1-3.5v-5.8   C62.3,20.6,62.8,20.3,63.9,20.3 M79.9,20.6c2.9-0.3,4,1.9,4,4.4c0,3.6-0.9,4.9-3,4.9c-0.7,0-1-0.2-1-1.1L79.9,20.6L79.9,20.6z    M77.1,28.8c0,1.2-0.4,1.4-1.5,1.4v0.5H81c3.4,0,5.7-1.4,5.7-5.4c0-4-2.3-5.4-5.7-5.4h-5.4v0.5c1.1,0,1.5,0.3,1.5,1.4L77.1,28.8   L77.1,28.8z M92,26.4h-2.7l1.3-4L92,26.4z M97.4,30.3c-0.3,0-0.6-0.1-0.9-0.3c-0.3-0.2-0.4-0.4-0.5-0.7l-3.5-9.8l-2,0.5l-3.1,8.8   c-0.1,0.4-0.4,0.8-0.7,1.1c-0.4,0.3-0.8,0.4-1.3,0.4v0.5h4.3v-0.5c-0.9,0-1.5-0.3-1.5-0.7c0-0.3,0.1-0.6,0.2-0.9l0.6-1.4h3.2   l0.7,1.6c0.1,0.2,0.2,0.5,0.2,0.7c0,0.1,0,0.2,0,0.2S93,30,92.9,30c-0.1,0.1-0.3,0.2-0.4,0.1h-0.8v0.5h11.6v-0.5   c-1.1,0-1.7-0.3-1.7-1.4v-3.2l2.6-4.1c0.2-0.4,0.5-0.7,0.8-0.9c0.3-0.2,0.7-0.3,1.1-0.3v-0.5h-3.9v0.5c0.6,0,1,0.2,1,0.6   c0,0.3-0.1,0.7-0.3,1l-1.8,2.6l-1.5-2.7c-0.2-0.3-0.4-0.7-0.4-1.1c0-0.3,0.2-0.5,0.9-0.5v-0.5h-5.8v0.5c0.6,0.1,1.3,0,1.8,0.8   l2.8,4.4v3.2C98.9,30,98.2,30.2,97.4,30.3L97.4,30.3L97.4,30.3z"></path>	</g></g></svg>