<svg width="133" height="44" viewBox="0 0 133 44" fill="none" xmlns="http://www.w3.org/2000/svg">
<g id="updated_Effecti_logo_color">
<g id="Group">
<g id="Group_2">
<g id="Group_3">
<g id="Group_4">
<path id="Vector" d="M50.6 13.1C45.5 13.1 41.2 17.3 41.2 22.5C41.2 27.7 45.4 31.9 50.6 31.9C53.6 31.9 56.2 30.5 57.9 28.3L55.9 26.3C54.7 28 52.8 29.1 50.6 29.1C47.5 29.1 44.9 26.9 44.2 24H53H57H59.9C60 23.5 60 23.1 60 22.6C60 17.3 55.8 13.1 50.6 13.1ZM44.3 21.1C45 18.2 47.5 16 50.7 16C53.8 16 56.4 18.2 57.1 21.1H44.3Z" fill="#008CFF"/>
<path id="Vector_2" d="M78.4 13.1H74.8V10.3C74.8 9.60002 75.4 9.00002 76.1 9.00002H78.1V6.30002H76.1C73.8 6.30002 72 8.10002 72 10.4V13.2H65.4V10.4C65.4 9.70002 66 9.10002 66.7 9.10002H68.7V6.30002H66.7C64.4 6.30002 62.6 8.10002 62.6 10.4V13.2H59V16H62.6V31.9H65.4V15.9H72V31.8H74.8V15.9H78.4V13.1Z" fill="#008CFF"/>
<path id="Vector_3" d="M86.8 29C83.7 29 81.1 26.8 80.4 23.9H89.2H93.2H96.1C96.2 23.4 96.2 23 96.2 22.5C96.2 17.4 92 13.1 86.8 13.1C81.7 13.1 77.4 17.3 77.4 22.5C77.4 27.7 81.6 31.9 86.8 31.9C89.8 31.9 92.4 30.5 94.1 28.3L92.1 26.3C90.9 27.9 89 29 86.8 29ZM86.8 15.9C89.9 15.9 92.5 18.1 93.2 21H80.4C81.1 18.1 83.6 15.9 86.8 15.9Z" fill="#008CFF"/>
<path id="Vector_4" d="M108.1 15.9C110.3 15.9 112.3 17 113.4 18.7L115.4 16.7C113.7 14.5 111 13.1 108.1 13.1C103 13.1 98.7 17.3 98.7 22.5C98.7 27.7 102.9 31.9 108.1 31.9C111.1 31.9 113.7 30.5 115.4 28.3L113.4 26.3C112.2 28 110.3 29.1 108.1 29.1C104.5 29.1 101.5 26.2 101.5 22.5C101.5 18.9 104.5 15.9 108.1 15.9Z" fill="#008CFF"/>
<path id="Vector_5" d="M126 31.9V29H124C123.3 29 122.7 28.4 122.7 27.7V15.9H126V13.1H122.7V6.20001H119.9V13.1H116.6V15.9H119.9V27.7C119.9 30 121.7 31.8 124 31.8C124 31.9 126 31.9 126 31.9Z" fill="#008CFF"/>
<path id="Vector_6" d="M132.9 13.1H130.1V31.8H132.9V13.1Z" fill="#008CFF"/>
<path id="Vector_7" d="M131.5 9.10002C132.3 9.10002 132.9 8.50002 132.9 7.70002C132.9 6.90002 132.3 6.30002 131.5 6.30002C130.7 6.30002 130.1 6.90002 130.1 7.70002C130.1 8.40002 130.7 9.10002 131.5 9.10002Z" fill="#008CFF"/>
<path id="Vector_8" d="M26.9 11.1L17.3 16.7V6.90002H14.4V16.7L4.7 11.1L3.3 13.6L15.9 20.8L28.4 13.6L26.9 11.1Z" fill="#008CFF"/>
<path id="Vector_9" d="M0.399994 18.5L10.2 24.1L1.59999 29L3.09999 31.5L11.6 26.6V37.8H14.4V23.3L1.79999 16.1L0.399994 18.5Z" fill="#008CFF"/>
<path id="Vector_10" d="M31.2 18.5L29.8 16.1L17.3 23.3V37.8H20.1V26.6L28.7 31.5L30.1 29L21.6 24.1L31.2 18.5Z" fill="#008CFF"/>
<path id="Vector_11" d="M21.1313 7.7813L19.7802 10.6821L22.3184 11.8643L23.6695 8.96346L21.1313 7.7813Z" fill="#008CFF"/>
<path id="Vector_12" d="M10.4919 7.76584L7.95374 8.948L9.30478 11.8488L11.843 10.6666L10.4919 7.76584Z" fill="#008CFF"/>
<path id="Vector_13" d="M24.0599 31.8955L21.767 33.5027L23.6038 36.1231L25.8967 34.5159L24.0599 31.8955Z" fill="#008CFF"/>
<path id="Vector_14" d="M7.5266 31.7545L5.6898 34.3746L7.98244 35.9818L9.81924 33.3617L7.5266 31.7545Z" fill="#008CFF"/>
<path id="Vector_15" d="M3.37076 22.1661L0.182922 22.4457L0.427535 25.235L3.61537 24.9555L3.37076 22.1661Z" fill="#008CFF"/>
<path id="Vector_16" d="M28.2413 22.2416L27.9963 25.0309L31.1841 25.311L31.4292 22.5216L28.2413 22.2416Z" fill="#008CFF"/>
</g>
</g>
</g>
</g>
</g>
</svg>
