<svg width="211" height="43" viewBox="0 0 211 43" fill="none" xmlns="http://www.w3.org/2000/svg">
<g clip-path="url(#clip0_5726_1269)">
<path d="M57.6074 32.0239C57.6124 29.6321 59.1009 27.8894 62.1604 26.6952C64.5927 25.7378 67.7056 25.2286 71.4214 25.179L71.4109 30.0965C71.4062 32.4726 70.8034 34.1708 69.6199 35.1444C68.3945 36.1521 66.5281 36.6598 64.0722 36.6545C61.9199 36.6502 60.2664 36.2475 59.1581 35.4577C58.1117 34.7126 57.6043 33.5894 57.6074 32.0239ZM68.0199 9.14823L56.7741 9.12453C53.6277 9.11782 53.1536 11.1278 53.1513 12.3262C53.1486 13.5476 53.614 15.598 56.7605 15.6048L67.2164 15.6267C69.3418 15.6314 70.2672 15.9776 70.6684 16.2665C71.1797 16.6367 71.4378 17.3604 71.4355 18.4178L71.4331 19.614C66.141 19.6571 61.8332 20.3206 58.6209 21.5885C53.4821 23.6014 50.8715 27.1897 50.8609 32.2543C50.8542 35.3659 52.0251 37.8496 54.3407 39.6374C56.5994 41.3814 59.5832 42.2695 63.2096 42.2771C64.9332 42.3317 66.6514 42.0588 68.2743 41.4726C69.5548 40.917 70.7649 40.2097 71.8789 39.3658C72.3263 41.5632 73.9269 41.9326 74.9419 41.9347C76.1334 41.9373 78.1336 41.4372 78.1409 38.059L78.1764 21.0004C78.1837 17.5756 77.5577 14.8725 76.3135 12.9637C74.6477 10.4398 71.8572 9.15618 68.0199 9.14823Z" fill="#141414"/>
<path d="M115.542 8.93594C113.498 8.93999 111.486 9.44631 109.682 10.4109C107.974 11.2533 106.466 12.4535 105.259 13.931C104.255 12.4881 102.958 11.2759 101.453 10.3743C99.6267 9.36117 97.5668 8.85033 95.4813 8.89352C93.4202 8.85391 91.3777 9.29271 89.5125 10.1755C88.3873 10.7295 87.3858 11.5076 86.5685 12.4624L86.569 12.3896C86.5728 10.3592 85.4851 9.23892 83.5062 9.23502C81.5271 9.23065 80.435 10.3462 80.4306 12.3765L80.3766 38.3014C80.3212 39.2817 80.5801 40.2539 81.1153 41.0749C81.6549 41.813 82.5383 42.1884 83.7413 42.1908C84.9427 42.1934 85.8279 41.822 86.3719 41.0863C86.9097 40.267 87.1729 39.2963 87.1226 38.3158L87.1536 23.3965C87.0844 21.2703 87.8519 19.2026 89.2895 17.6423C89.9607 16.8977 90.7847 16.3089 91.7048 15.9169C92.6249 15.5248 93.6186 15.339 94.6174 15.372C96.9142 15.3767 98.4786 15.9962 99.3994 17.2651C100.356 18.5845 100.838 20.6369 100.832 23.3648L100.8 38.3446C100.745 39.325 101.004 40.2973 101.54 41.1183C102.08 41.856 102.963 42.2315 104.166 42.2341C105.367 42.2365 106.252 41.865 106.797 41.1293C107.335 40.3102 107.598 39.3394 107.547 38.359L107.578 23.4397C107.509 21.3135 108.276 19.2458 109.714 17.6853C110.385 16.9409 111.209 16.3522 112.129 15.9602C113.05 15.5682 114.043 15.3822 115.042 15.4152C117.339 15.4199 118.903 16.039 119.824 17.3083C120.78 18.628 121.262 20.6802 121.256 23.4079L121.225 38.388C121.17 39.3682 121.429 40.3405 121.964 41.1615C122.505 41.8992 123.388 42.2747 124.591 42.2773C125.792 42.28 126.676 41.9085 127.221 41.1725C127.759 40.3534 128.023 39.3825 127.972 38.402L128.006 21.7712C128.015 17.7706 126.933 14.6009 124.792 12.3498C122.641 10.0927 119.529 8.94436 115.542 8.93594Z" fill="#141414"/>
<path d="M146.343 35.7648H143.449C140.81 35.7592 140.147 35.6525 139.797 35.3004C139.303 34.7476 139.048 34.0205 139.085 33.2781L139.123 15.561L143.166 15.5694C146.312 15.5761 146.786 13.528 146.789 12.3066C146.792 11.1078 146.326 9.09588 143.18 9.08948L139.137 9.08075L139.146 4.23458C139.19 3.25374 138.922 2.28429 138.38 1.46688C137.82 0.684391 136.945 0.286598 135.78 0.283948C134.573 0.281453 133.686 0.666769 133.143 1.42883C132.612 2.25887 132.352 3.23488 132.399 4.22055L132.39 9.06641L131.629 9.06469C128.483 9.05798 128.009 11.0683 128.006 12.2668C128.004 13.488 128.469 15.5384 131.616 15.5449L132.376 15.5466L132.336 34.4251C132.328 38.0762 133.008 40.1276 135.306 41.504C136.742 42.3654 138.078 42.3046 143.684 42.2481V42.2604L146.329 42.2687C149.476 42.2754 149.951 40.227 149.952 39.0056C149.955 37.8072 149.49 35.7715 146.343 35.7648Z" fill="#141414"/>
<path d="M176.373 23.3098C175.105 21.6971 173.283 20.6394 170.929 20.1856C170.929 20.1856 159.099 17.8275 158.949 17.7708C158.105 17.4386 157.998 16.9708 157.998 16.6C157.981 16.465 157.993 16.3276 158.035 16.198C158.077 16.0684 158.149 15.9501 158.242 15.8517C158.297 15.8099 158.643 15.6011 160.037 15.604L172.498 15.6304C175.646 15.6371 176.12 13.5887 176.123 12.3673C176.124 11.1689 175.659 9.15687 172.512 9.15016L160.112 9.12381C157.603 9.11851 155.487 9.8277 153.823 11.2324C152.121 12.6667 151.257 14.697 151.251 17.2669C151.243 21.1956 153.869 23.6152 159.054 24.4581L168.314 26.0684C169.696 26.2859 170.688 26.7915 171.259 27.5702C171.731 28.2194 171.969 29.17 171.968 30.3955C172.022 31.6551 171.586 32.8865 170.75 33.8267C170.171 34.4506 169.467 34.9449 168.686 35.2775C167.903 35.6101 167.06 35.7737 166.212 35.7575H154.892C151.746 35.7508 151.271 37.8146 151.268 39.036C151.266 40.2341 151.732 42.2464 154.878 42.253L158.921 42.2614L166.562 42.2768C168.156 42.2943 169.738 41.9891 171.214 41.3797C172.688 40.7703 174.026 39.869 175.148 38.7293C176.618 37.234 177.616 35.3358 178.019 33.2723C178.936 29.9966 178.34 25.6064 176.373 23.3098Z" fill="#141414"/>
<path d="M201.105 33.1117C200.4 34.0796 199.472 34.8623 198.403 35.3934C197.333 35.9246 196.153 36.1888 194.96 36.1635C192.449 36.1585 190.455 35.1434 188.862 33.0604C187.226 30.8801 186.371 28.2063 186.44 25.4752C186.381 22.7538 187.245 20.0933 188.892 17.9332C189.589 16.9655 190.511 16.1826 191.574 15.6516C192.639 15.1206 193.816 14.8574 195.004 14.8845C197.515 14.8898 199.52 15.9059 201.133 17.9906C202.781 20.143 203.645 22.7969 203.584 25.5117C203.649 28.2562 202.774 30.9397 201.105 33.1117ZM205.888 13.7626C202.913 10.46 199.254 8.78044 195.017 8.7714C190.735 8.76251 187.07 10.4273 184.122 13.7202C181.67 16.411 180.153 19.8301 179.798 23.4629C179.523 26.1949 180.219 30.6235 181.276 33.2198C181.969 34.7492 182.892 36.1617 184.014 37.407C185.403 38.94 187.095 40.1647 188.981 41.0033C190.868 41.8418 192.907 42.2758 194.968 42.2773C197.031 42.2787 199.071 41.8479 200.957 41.0121C202.844 40.1762 204.538 38.954 205.93 37.423C208.84 34.2129 210.32 30.1898 210.331 25.4648C210.398 21.1351 208.807 16.9452 205.888 13.7626Z" fill="#141414"/>
<path d="M22.7479 40.9804C22.4341 41.2971 22.0611 41.5482 21.6504 41.719C21.2395 41.8899 20.7992 41.977 20.3548 41.9756C19.9103 41.9742 19.4705 41.8841 19.0609 41.7107C18.6511 41.5373 18.2798 41.2837 17.9681 40.965L7.50895 30.2678C7.16598 29.9173 6.89509 29.5022 6.71169 29.0462C6.52814 28.5904 6.43582 28.1026 6.43987 27.6108C6.44392 27.119 6.54418 26.6328 6.73505 26.18C6.92607 25.7273 7.20366 25.3167 7.55239 24.9719C7.90112 24.6272 8.31384 24.3547 8.76719 24.1706C9.22055 23.9863 9.7055 23.8936 10.1945 23.8978C10.6834 23.9022 11.1666 24.0034 11.6167 24.1957C12.0668 24.3879 12.4748 24.6674 12.8173 25.0184L17.8184 30.1365L17.8146 30.1401L19.1582 31.4914C19.3145 31.6488 19.5002 31.7735 19.7046 31.8585C19.909 31.9435 20.1281 31.9872 20.3493 31.9867C20.5704 31.9864 20.7893 31.9423 20.9935 31.8566C21.1976 31.771 21.3831 31.6458 21.5389 31.488L38.9193 13.9091C38.4945 12.917 37.991 11.9608 37.4139 11.0498L22.7469 25.8611C22.4335 26.1778 22.0607 26.4288 21.6502 26.5997C21.2398 26.7706 20.7997 26.8581 20.3554 26.8569C19.9111 26.8556 19.4716 26.7658 19.062 26.5926C18.6524 26.4195 18.2811 26.1664 17.9694 25.848C15.1482 22.9657 10.4609 18.1803 7.51892 15.1976C7.17065 14.8436 6.8954 14.4238 6.70905 13.9622C6.52285 13.5007 6.42913 13.0067 6.43364 12.5086C6.43816 12.0105 6.5406 11.5183 6.73505 11.0603C6.9295 10.6021 7.21222 10.1873 7.56687 9.83976L7.63537 9.77224C7.97881 9.43262 8.38577 9.16472 8.83258 8.98383C9.27955 8.80295 9.7575 8.71282 10.2392 8.71858C10.7207 8.72435 11.1965 8.82587 11.6389 9.0172C12.0816 9.20869 12.482 9.48626 12.8173 9.83399L17.8184 15.0168L17.8146 15.0204L19.1582 16.3718C19.3145 16.5291 19.5002 16.6538 19.7046 16.7387C19.909 16.8237 20.1281 16.8673 20.3493 16.8669C20.5704 16.8665 20.7893 16.8224 20.9935 16.7368C21.1976 16.6512 21.3829 16.526 21.5389 16.3682L32.2587 5.52596C28.6457 2.88441 24.2609 1.52823 19.7965 1.67169C15.3321 1.815 11.0424 3.44967 7.60408 6.31764C4.16595 9.18577 1.77511 13.1238 0.809085 17.5104C-0.156935 21.8969 0.356822 26.4822 2.26925 30.5424C4.18167 34.6027 7.38378 37.9066 11.3704 39.933C15.357 41.9594 19.9009 42.5927 24.285 41.733C28.6692 40.8733 32.6438 38.5695 35.5818 35.1852C38.5197 31.8011 40.2535 27.5291 40.5096 23.0436L22.7479 40.9804Z" fill="#00C7C4"/>
<path d="M209.162 7.22438C209.223 7.17385 209.27 7.10977 209.302 7.03726C209.333 6.96475 209.347 6.88568 209.344 6.80663C209.349 6.72538 209.335 6.64414 209.305 6.56898C209.274 6.49382 209.226 6.42692 209.165 6.37328C209.025 6.26631 208.851 6.21313 208.675 6.22358H207.851V8.13582H208.141V7.37408H208.578L209.055 8.13582H209.388L208.869 7.34663C208.975 7.33026 209.075 7.28831 209.162 7.22438ZM208.141 6.46263H208.645C208.918 6.46263 209.055 6.57724 209.055 6.80663C209.055 7.04567 208.918 7.16528 208.645 7.16528H208.141V6.46263Z" fill="#141414"/>
<path d="M210.098 6.24612C209.945 5.9804 209.724 5.761 209.459 5.61115C209.17 5.4588 208.849 5.37927 208.522 5.37927C208.197 5.37927 207.875 5.4588 207.586 5.61115C207.32 5.76038 207.101 5.98009 206.951 6.24612C206.8 6.53319 206.721 6.85318 206.721 7.17815C206.721 7.50312 206.8 7.8231 206.951 8.11017C207.101 8.37729 207.32 8.59825 207.586 8.74889C207.875 8.90108 208.197 8.98061 208.522 8.98061C208.849 8.98061 209.17 8.90108 209.459 8.74889C209.726 8.59763 209.945 8.37698 210.098 8.11017C210.25 7.82388 210.331 7.50358 210.331 7.17815C210.331 6.85271 210.25 6.53242 210.098 6.24612ZM209.83 7.96406C209.708 8.18892 209.525 8.37402 209.302 8.49767C209.062 8.62305 208.795 8.68854 208.524 8.68854C208.253 8.68854 207.987 8.62305 207.745 8.49767C207.523 8.37449 207.337 8.18939 207.216 7.96406C207.091 7.7208 207.026 7.45119 207.026 7.17752C207.026 6.90385 207.091 6.63424 207.216 6.39098C207.341 6.16706 207.524 5.98227 207.745 5.85737C207.987 5.72981 208.253 5.66307 208.524 5.66307C208.796 5.66307 209.062 5.72981 209.302 5.85737C209.525 5.9829 209.707 6.16753 209.83 6.39098C209.954 6.63424 210.02 6.90401 210.02 7.17752C210.02 7.45119 209.954 7.7208 209.83 7.96406Z" fill="#141414"/>
</g>
<defs>
<clipPath id="clip0_5726_1269">
<rect width="210" height="42" fill="white" transform="translate(0.333252 0.283936)"/>
</clipPath>
</defs>
</svg>
