<svg width="123" height="14" viewBox="0 0 123 14" fill="none" xmlns="http://www.w3.org/2000/svg">
<g clip-path="url(#clip0_6531_48184)">
<path d="M112.218 5.36851L115.291 4.87185L116.945 2.11765L117.469 3.31092L118.261 4.08494L118.657 4.96214L121.408 5.65162L119.315 7.87438L119.973 10.7866L118.657 10.277L116.898 9.34178L114.014 10.6963L114.393 7.5809L112.218 5.36851ZM64.9961 5.45881L68.0686 4.96214L69.6758 2.02734L71.1411 4.917L74.45 5.45881L72.1338 7.62605L72.6064 10.7866L69.6758 9.43208L66.7451 10.7866L67.1232 7.67119L64.9961 5.45881ZM76.7661 5.45881L79.8387 4.96214L81.4458 2.02734L82.9584 4.917L86.22 5.45881L83.9038 7.62605L84.4238 10.7866L81.4458 9.43208L78.5624 10.7866L78.9405 7.67119L76.7661 5.45881ZM88.7725 5.45881L91.8451 4.96214L93.4522 2.02734L94.9176 4.917L98.2264 5.45881L95.9102 7.62605L96.4302 10.7866L93.4522 9.43208L90.5215 10.7866L90.8997 7.67119L88.7725 5.45881ZM100.401 5.45881L103.473 4.96214L105.08 2.02734L106.593 4.917L109.855 5.45881L107.538 7.62605L108.058 10.7866L105.08 9.43208L102.197 10.7866L102.575 7.67119L100.401 5.45881Z" fill="#FF9D28"/>
<path d="M75.3446 5.18983L71.4213 4.64803L69.6723 1.26172L67.9234 4.64803L64 5.18983L66.8362 7.80858L66.1744 11.5561L69.6723 9.79521L73.1702 11.5561L72.5085 7.80858L75.3446 5.18983ZM69.6723 8.98251L67.2143 10.2467L67.687 7.62798L65.7017 5.7768L68.4906 5.37044L69.7196 2.97744L70.9486 5.37044L73.7375 5.7768L71.7522 7.62798L72.2249 10.2467L69.6723 8.98251ZM87.162 5.18983L83.2386 4.64803L81.4896 1.26172L79.7407 4.64803L75.8173 5.18983L78.6535 7.80858L77.9917 11.5561L81.4896 9.79521L84.9876 11.5561L84.3258 7.80858L87.162 5.18983ZM81.4896 8.98251L79.0316 10.2467L79.5043 7.62798L77.519 5.7768L80.3079 5.37044L81.5369 2.97744L82.7659 5.37044L85.5548 5.7768L83.5695 7.62798L84.0422 10.2467L81.4896 8.98251ZM98.9793 5.18983L95.0559 4.64803L93.307 1.26172L91.558 4.64803L87.6346 5.18983L90.4708 7.80858L89.809 11.5561L93.307 9.79521L96.8049 11.5561L96.1431 7.80858L98.9793 5.18983ZM93.307 8.98251L90.849 10.2467L91.3217 7.62798L89.3363 5.7768L92.1252 5.37044L93.3542 2.97744L94.5832 5.37044L97.3721 5.7768L95.3868 7.62798L95.8595 10.2467L93.307 8.98251ZM110.797 5.18983L106.873 4.64803L105.124 1.26172L103.375 4.64803L99.452 5.18983L102.288 7.80858L101.626 11.5561L105.124 9.79521L108.622 11.5561L107.96 7.80858L110.797 5.18983ZM105.124 8.98251L102.666 10.2467L103.139 7.62798L101.154 5.7768L103.943 5.37044L105.172 2.97744L106.401 5.37044L109.189 5.7768L107.204 7.62798L107.677 10.2467L105.124 8.98251ZM122.614 5.18983L118.691 4.64803L116.942 1.26172L115.193 4.64803L111.269 5.18983L114.105 7.80858L113.444 11.5561L116.942 9.79521L120.44 11.5561L119.778 7.80858L122.614 5.18983ZM116.942 8.98251L114.484 10.2467L114.956 7.62798L112.971 5.7768L115.76 5.37044L116.989 2.97744L118.218 5.37044L121.007 5.7768L119.021 7.62798L119.494 10.2467L116.942 8.98251Z" fill="#FF9D28"/>
</g>
<path d="M0.339844 4.84309L5.47672 4.84411L8.60028 4.84464V1.75L0.339844 4.84309Z" fill="#FF9D28"/>
<path d="M8.59766 1.74254V12.6682L12.4989 0.28125L8.59766 1.74254Z" fill="#68C5ED"/>
<path d="M8.59622 4.84428L5.47266 4.84375L8.59622 12.6753V4.84428Z" fill="#044D80"/>
<path d="M0.339844 4.83594L6.27772 6.84643L5.47672 4.83696L0.339844 4.83594Z" fill="#E54747"/>
<path d="M19.2635 9.79041C19.2182 9.83571 19.1427 9.89222 19.0372 9.96009C18.9315 10.028 18.7939 10.0959 18.6242 10.1639C18.4545 10.2316 18.247 10.29 18.0019 10.3392C17.7567 10.3881 17.4758 10.4127 17.159 10.4127C16.548 10.4127 16.0199 10.3146 15.575 10.1186C15.1298 9.92258 14.7621 9.64893 14.4718 9.29825C14.1814 8.94745 13.9683 8.53266 13.8325 8.05353C13.6968 7.57456 13.6289 7.04846 13.6289 6.47509C13.6289 5.90194 13.7024 5.37189 13.8495 4.88536C13.9966 4.39878 14.2172 3.9784 14.5114 3.62369C14.8056 3.26925 15.1733 2.99199 15.6146 2.79202C16.0559 2.59228 16.5744 2.49219 17.1703 2.49219C17.4645 2.49219 17.7304 2.51867 17.968 2.57138C18.2056 2.62421 18.413 2.68649 18.5903 2.75809C18.7675 2.82987 18.9146 2.90515 19.0316 2.98439C19.1484 3.06358 19.2371 3.12974 19.2975 3.18238C19.3654 3.24288 19.4238 3.31447 19.4729 3.39735C19.5219 3.48046 19.5464 3.57098 19.5464 3.66895C19.5464 3.81993 19.4898 3.97073 19.3767 4.12156C19.2636 4.27254 19.1391 4.41208 19.0033 4.54022C18.9128 4.4497 18.811 4.35743 18.6978 4.26304C18.5847 4.16875 18.4583 4.08587 18.3188 4.01409C18.1791 3.94249 18.0207 3.88218 17.8436 3.83305C17.6663 3.78406 17.4683 3.75947 17.2496 3.75947C16.8649 3.75947 16.5424 3.83692 16.2822 3.99144C16.022 4.14614 15.8126 4.34786 15.6542 4.59681C15.4958 4.84576 15.3827 5.13054 15.3148 5.45109C15.2469 5.77179 15.213 6.098 15.213 6.42987C15.213 6.7845 15.2469 7.12393 15.3148 7.44816C15.3826 7.77255 15.4995 8.05927 15.6656 8.30811C15.8313 8.55702 16.0483 8.75699 16.3161 8.90778C16.5837 9.0588 16.9175 9.13412 17.3175 9.13412C17.5285 9.13412 17.7228 9.10778 17.9001 9.05496C18.0773 9.00221 18.2339 8.93803 18.3697 8.86248C18.5054 8.78724 18.6243 8.70808 18.7261 8.62501C18.8279 8.54201 18.9128 8.47045 18.9807 8.40995C19.0259 8.46285 19.0786 8.52704 19.1391 8.60236C19.1998 8.67848 19.2565 8.7578 19.3088 8.83998C19.3615 8.92306 19.4067 9.00598 19.4445 9.08882C19.4822 9.17197 19.5011 9.24729 19.5011 9.31508C19.5011 9.41328 19.4822 9.4962 19.4445 9.56407C19.4067 9.63198 19.3464 9.70749 19.2635 9.79041ZM25.0943 8.9226C25.0943 9.52216 25.1815 9.95853 25.3561 10.2317C25.2196 10.2847 25.0924 10.3227 24.9748 10.3455C24.8571 10.3683 24.7338 10.3796 24.6049 10.3796C24.3317 10.3796 24.1248 10.3265 23.9846 10.2203C23.8441 10.1141 23.7549 9.96237 23.7171 9.76495C23.55 9.93968 23.33 10.0876 23.0569 10.209C22.7837 10.3302 22.4497 10.3911 22.0552 10.3911C21.8503 10.3911 21.6454 10.3627 21.4405 10.3061C21.2356 10.2491 21.0496 10.1566 20.8827 10.0282C20.7157 9.89948 20.5792 9.72737 20.473 9.51174C20.3666 9.29612 20.3136 9.0333 20.3136 8.7232C20.3136 8.33741 20.4065 8.02336 20.5925 7.7814C20.7784 7.53922 21.0117 7.34826 21.2926 7.20826C21.5732 7.06841 21.8768 6.97215 22.2032 6.91906C22.5294 6.86605 22.8292 6.83212 23.1024 6.8168C23.1935 6.80931 23.2826 6.8054 23.3699 6.8054H23.6146V6.59821C23.6146 6.30651 23.5367 6.09929 23.3813 5.97658C23.2256 5.85383 22.9733 5.79231 22.6243 5.79231C22.298 5.79231 22.0077 5.84547 21.7535 5.95165C21.4992 6.05802 21.2507 6.17932 21.008 6.31594C20.9016 6.18696 20.8162 6.04472 20.7519 5.88906C20.6873 5.73363 20.6551 5.61784 20.6551 5.54188C20.6551 5.4357 20.7138 5.33325 20.8315 5.23452C20.9491 5.13602 21.1104 5.04671 21.3153 4.96702C21.5203 4.88733 21.7554 4.82296 22.0211 4.77352C22.2866 4.72423 22.5674 4.69953 22.8634 4.69953C23.2732 4.69953 23.6203 4.74133 23.9049 4.82474C24.1894 4.90835 24.4209 5.03729 24.5992 5.21175C24.7775 5.38645 24.9046 5.6045 24.9805 5.8663C25.0563 6.12813 25.0944 6.4337 25.0944 6.78264V8.9226H25.0943ZM23.6373 7.60219H23.478C23.4248 7.60219 23.3716 7.60614 23.3186 7.61362C23.1288 7.6289 22.941 7.65163 22.7552 7.68184C22.5692 7.71228 22.4041 7.7654 22.2601 7.84126C22.1158 7.91718 21.9983 8.01591 21.9072 8.13718C21.8161 8.25867 21.7706 8.41432 21.7706 8.60395C21.7706 8.81646 21.8312 8.99659 21.9527 9.14461C22.074 9.29262 22.2789 9.36661 22.5674 9.36661C22.7114 9.36661 22.8481 9.34776 22.9772 9.30961C23.1061 9.27184 23.2199 9.22247 23.3186 9.16175C23.4172 9.10102 23.4951 9.03467 23.552 8.96246C23.6089 8.89045 23.6373 8.8241 23.6373 8.76333V7.60219H23.6373ZM27.9285 5.35969C28.0494 5.21563 28.2387 5.06944 28.4958 4.92142C28.753 4.77344 29.0783 4.69945 29.4717 4.69945C29.7517 4.69945 30.0183 4.74691 30.2718 4.84173C30.525 4.9367 30.7502 5.09041 30.9468 5.30277C31.1436 5.51531 31.3005 5.79615 31.4178 6.14512C31.5351 6.49428 31.5938 6.92313 31.5938 7.43141C31.5938 8.02332 31.5256 8.51104 31.3895 8.89417C31.2532 9.27754 31.0774 9.5811 30.8619 9.80489C30.6463 10.0288 30.406 10.1862 30.1414 10.2773C29.8766 10.3683 29.6117 10.4139 29.3471 10.4139C29.1277 10.4139 28.9366 10.3892 28.7741 10.3399C28.6113 10.2905 28.4733 10.2356 28.3598 10.1748C28.2464 10.1142 28.1594 10.0536 28.099 9.99269C28.0385 9.93204 28.0006 9.8902 27.9855 9.8674V12.6657H26.4374V4.85879C26.4755 4.85134 26.5214 4.84371 26.5751 4.83607C26.621 4.82862 26.6745 4.82288 26.7357 4.81897C26.7968 4.81524 26.8695 4.8133 26.9535 4.8133C27.2057 4.8133 27.4199 4.85511 27.5957 4.93852C27.7716 5.02212 27.8826 5.16243 27.9285 5.35969ZM29.9774 7.46553C29.9774 7.2379 29.9585 7.02555 29.9208 6.82813C29.8831 6.6309 29.8209 6.46012 29.7341 6.3159C29.6473 6.1718 29.5302 6.05977 29.3831 5.98004C29.2358 5.90039 29.0568 5.8606 28.8456 5.8606C28.5287 5.8606 28.308 5.9214 28.1835 6.04266C28.059 6.16416 27.9968 6.29705 27.9968 6.44111V8.85439C28.057 8.91519 28.1644 8.98716 28.3192 9.07065C28.4739 9.15422 28.653 9.19579 28.8568 9.19579C29.2417 9.19579 29.5246 9.04417 29.7058 8.74053C29.8869 8.43705 29.9774 8.01196 29.9774 7.46553ZM32.7885 9.42354C32.7353 9.27184 32.7012 9.11238 32.6861 8.9454C32.6708 8.77853 32.6633 8.61163 32.6633 8.44446V3.16269C32.7163 3.15524 32.7733 3.14761 32.8341 3.13993C32.887 3.13248 32.944 3.12682 33.0048 3.12287C33.0655 3.11914 33.1261 3.1172 33.1869 3.1172C33.3082 3.1172 33.4297 3.1286 33.5512 3.15133C33.6724 3.17413 33.7825 3.21966 33.8813 3.28791C33.9798 3.3562 34.0595 3.44926 34.1203 3.5668C34.181 3.68453 34.2113 3.83825 34.2113 4.02781V4.83599H35.805V5.98578H34.2113V8.41322C34.2113 8.94259 34.4276 9.20719 34.8602 9.20719C34.9664 9.20719 35.0668 9.19021 35.1618 9.15597C35.2566 9.12184 35.342 9.08395 35.418 9.04219C35.4938 9.00046 35.5602 8.95684 35.6171 8.91127C35.6741 8.86571 35.7139 8.83162 35.7366 8.80886C35.8505 8.97592 35.9376 9.12051 35.9984 9.24254C36.0591 9.36471 36.0895 9.47936 36.0895 9.58649C36.0895 9.68617 36.0497 9.78391 35.97 9.8796C35.8902 9.97529 35.7782 10.0635 35.6341 10.1439C35.49 10.2243 35.3155 10.2894 35.1106 10.3392C34.9057 10.389 34.6817 10.4139 34.439 10.4139C33.9684 10.4139 33.6023 10.3228 33.3405 10.1407C33.0787 9.95853 32.8946 9.71946 32.7885 9.42354ZM39.7257 9.27552C39.916 9.27552 40.0835 9.25473 40.2283 9.21289C40.3729 9.17132 40.5024 9.12006 40.6166 9.05933C40.7308 8.99868 40.8299 8.93225 40.9137 8.86012C40.9974 8.78807 41.0735 8.72168 41.1422 8.66084C41.2334 8.77462 41.3286 8.92085 41.4277 9.09904C41.5266 9.27754 41.5762 9.42354 41.5762 9.53732C41.5762 9.70434 41.4812 9.85611 41.2917 9.99269C41.1323 10.1142 40.9063 10.2185 40.6144 10.3057C40.3221 10.3929 39.9787 10.4366 39.5842 10.4366C39.2274 10.4366 38.8765 10.3911 38.5313 10.3C38.186 10.209 37.8786 10.0496 37.6093 9.82187C37.3398 9.59432 37.1216 9.2889 36.9548 8.90561C36.7878 8.5224 36.7044 8.03871 36.7044 7.45421C36.7044 6.97607 36.7784 6.56454 36.9263 6.21915C37.0743 5.8739 37.2715 5.5874 37.5183 5.35973C37.7648 5.13206 38.0436 4.96524 38.3549 4.85883C38.6659 4.75269 38.9847 4.69949 39.3111 4.69949C39.736 4.69949 40.0964 4.76603 40.3923 4.89869C40.6884 5.03155 40.9291 5.20993 41.1152 5.43372C41.301 5.65759 41.4357 5.91372 41.5192 6.20208C41.6026 6.49056 41.6444 6.794 41.6444 7.11272V7.27206C41.6444 7.33294 41.6425 7.39728 41.6387 7.46557C41.6349 7.53393 41.6311 7.60044 41.6274 7.66477C41.6235 7.72942 41.6178 7.78057 41.6104 7.81849H38.2524C38.2829 8.23591 38.4123 8.58305 38.6407 8.86012C38.869 9.1372 39.2307 9.27552 39.7257 9.27552ZM40.2444 6.9647C40.2444 6.60046 40.1737 6.3045 40.0325 6.07683C39.8913 5.8492 39.6374 5.73531 39.2713 5.73531C38.9582 5.73531 38.7083 5.8435 38.5214 6.05977C38.3343 6.27607 38.241 6.57769 38.241 6.96467H40.2444V6.9647ZM44.3384 5.38846C44.3839 5.32074 44.4446 5.2455 44.5205 5.16258C44.5963 5.07974 44.6893 5.00445 44.7994 4.93673C44.9093 4.86898 45.0308 4.81239 45.1637 4.76725C45.2963 4.72206 45.4386 4.69949 45.5906 4.69949C45.6816 4.69949 45.7784 4.70713 45.8808 4.72206C45.9832 4.73719 46.078 4.76546 46.1653 4.80673C46.2525 4.84819 46.3228 4.90455 46.3759 4.97607C46.4289 5.04759 46.4556 5.13598 46.4556 5.24128C46.4556 5.40686 46.4138 5.59702 46.3304 5.81169C46.2468 6.02655 46.1634 6.20976 46.08 6.36146C45.9508 6.25525 45.8219 6.17366 45.6929 6.11673C45.5638 6.05984 45.4121 6.03134 45.2376 6.03134C45.0024 6.03134 44.8051 6.09986 44.6458 6.23678C44.4863 6.37374 44.4067 6.53737 44.4067 6.72765V10.4127H42.8587V4.85879C42.8965 4.85134 42.9421 4.84371 42.9952 4.83607C43.0408 4.82862 43.0938 4.82288 43.1546 4.81897C43.2153 4.81524 43.2873 4.8133 43.3709 4.8133C43.6136 4.8133 43.8242 4.86039 44.0026 4.95437C44.1808 5.04823 44.2929 5.19302 44.3384 5.38846ZM48.7397 5.38846C48.7852 5.32074 48.8459 5.2455 48.9218 5.16258C48.9976 5.07974 49.0906 5.00445 49.2007 4.93673C49.3106 4.86898 49.4321 4.81239 49.5649 4.76725C49.6976 4.72206 49.8399 4.69949 49.9918 4.69949C50.0828 4.69949 50.1796 4.70713 50.282 4.72206C50.3844 4.73719 50.4793 4.76546 50.5666 4.80673C50.6538 4.84819 50.7239 4.90455 50.7773 4.97607C50.8302 5.04759 50.8569 5.13598 50.8569 5.24128C50.8569 5.40686 50.815 5.59702 50.7317 5.81169C50.648 6.02655 50.5646 6.20976 50.4812 6.36146C50.3522 6.25525 50.2231 6.17366 50.0942 6.11673C49.9652 6.05984 49.8134 6.03134 49.6389 6.03134C49.4037 6.03134 49.2064 6.09986 49.047 6.23678C48.8877 6.37374 48.808 6.53737 48.808 6.72765V10.4127H47.26V4.85879C47.2979 4.85134 47.3434 4.84371 47.3966 4.83607C47.4421 4.82862 47.4952 4.82288 47.5559 4.81897C47.6166 4.81524 47.6886 4.8133 47.7721 4.8133C48.015 4.8133 48.2256 4.86039 48.4039 4.95437C48.5821 5.04823 48.6941 5.19302 48.7397 5.38846ZM56.1271 8.9226C56.1271 9.52216 56.2143 9.95853 56.3889 10.2317C56.2523 10.2847 56.1252 10.3227 56.0076 10.3455C55.8899 10.3683 55.7667 10.3796 55.6377 10.3796C55.3645 10.3796 55.1577 10.3265 55.0174 10.2203C54.8768 10.1141 54.7877 9.96237 54.7498 9.76495C54.5829 9.93968 54.3628 10.0876 54.0896 10.209C53.8165 10.3302 53.4824 10.3911 53.088 10.3911C52.8831 10.3911 52.6782 10.3627 52.4733 10.3061C52.2684 10.2491 52.0823 10.1566 51.9155 10.0282C51.7485 9.89948 51.612 9.72737 51.5058 9.51174C51.3994 9.29612 51.3465 9.0333 51.3465 8.7232C51.3465 8.33741 51.4392 8.02336 51.6253 7.7814C51.8112 7.53922 52.0446 7.34826 52.3254 7.20826C52.606 7.06841 52.9095 6.97215 53.236 6.91906C53.5621 6.86605 53.862 6.83212 54.1352 6.8168C54.2263 6.80931 54.3154 6.8054 54.4028 6.8054H54.6474V6.59821C54.6474 6.30651 54.5695 6.09929 54.414 5.97658C54.2584 5.85383 54.0061 5.79231 53.6571 5.79231C53.3308 5.79231 53.0405 5.84547 52.7864 5.95165C52.532 6.05802 52.2836 6.17932 52.0408 6.31594C51.9345 6.18696 51.849 6.04472 51.7846 5.88906C51.7201 5.73363 51.6879 5.61784 51.6879 5.54188C51.6879 5.4357 51.7466 5.33325 51.8644 5.23452C51.9819 5.13602 52.1432 5.04671 52.3481 4.96702C52.553 4.88733 52.7881 4.82296 53.0538 4.77352C53.3194 4.72423 53.6002 4.69953 53.8961 4.69953C54.3059 4.69953 54.6531 4.74133 54.9377 4.82474C55.2222 4.90835 55.4536 5.03729 55.632 5.21175C55.8102 5.38645 55.9373 5.6045 56.0133 5.8663C56.089 6.12813 56.1271 6.4337 56.1271 6.78264V8.9226ZM54.6701 7.60219H54.5108C54.4576 7.60219 54.4044 7.60614 54.3515 7.61362C54.1617 7.6289 53.9738 7.65163 53.788 7.68184C53.6019 7.71228 53.4369 7.7654 53.2929 7.84126C53.1486 7.91718 53.031 8.01591 52.94 8.13718C52.8489 8.25867 52.8034 8.41432 52.8034 8.60395C52.8034 8.81646 52.8641 8.99659 52.9855 9.14461C53.1068 9.29262 53.3118 9.36661 53.6002 9.36661C53.7443 9.36661 53.8809 9.34776 54.01 9.30961C54.139 9.27184 54.2527 9.22247 54.3515 9.16175C54.4499 9.10102 54.5279 9.03467 54.5848 8.96246C54.6417 8.89045 54.6702 8.8241 54.6702 8.76333V7.60219H54.6701Z" fill="#044D80"/>
<defs>
<clipPath id="clip0_6531_48184">
<rect width="58.6139" height="10.8362" fill="white" transform="translate(64 0.988281)"/>
</clipPath>
</defs>
</svg>
