<svg width="56" height="57" viewBox="0 0 56 57" fill="none" xmlns="http://www.w3.org/2000/svg">
<rect y="0.193542" width="56" height="56" rx="9.33333" fill="#15C1E6" fill-opacity="0.05"/>
<g clip-path="url(#clip0_15763_28826)">
<path d="M44.3153 13.5268H37.9189C37.366 13.5075 37.0639 14.2404 37.4689 14.6197L38.9796 16.1304L30.5903 26.3197H20.6582C20.4717 26.3197 20.2917 26.4032 20.1696 26.5447L8.52744 40.4947C7.87815 41.2532 7.92315 42.3975 8.63029 43.0982L9.99958 44.4675C10.7582 45.2582 12.1467 45.1939 12.8282 44.3389L22.8696 32.0732L33.1232 32.1118C33.316 32.1118 33.496 32.0282 33.6182 31.8739L43.081 20.2382L44.4953 21.6525C44.8746 22.0575 45.6074 21.7554 45.5882 21.2025V14.8061C45.5946 14.0989 45.0224 13.5268 44.3153 13.5268Z" fill="#9D97F4"/>
<path fill-rule="evenodd" clip-rule="evenodd" d="M30.5839 26.3132H20.6517C20.4653 26.3132 20.2853 26.3968 20.1632 26.5382L8.52744 40.4947C7.87815 41.2532 7.92315 42.3975 8.63029 43.0982L9.99958 44.4675C10.7582 45.2582 12.1467 45.1939 12.8282 44.3389L22.8696 32.0732L33.1232 32.1118C33.316 32.1118 33.496 32.0282 33.6182 31.8739L43.081 20.2382L44.4953 21.6525C44.8746 22.0575 45.6074 21.7554 45.5882 21.2025V14.8061C45.5946 14.0989 45.0224 13.5268 44.3153 13.5268H37.9189C37.366 13.5075 37.0639 14.2404 37.4689 14.6197L38.9796 16.1304L30.5903 26.3197L30.5839 26.3132Z" fill="#9D97F4"/>
<path d="M18.6971 25.2911V25.2783C19.1921 24.7126 19.9057 24.3847 20.6578 24.3847H25.2607V19.3254C25.2607 18.6054 24.6821 18.0269 23.9621 18.0269H19.0507C18.3307 18.0269 17.7521 18.6054 17.7521 19.3254V26.429L18.7035 25.2911H18.6971Z" fill="#BFBAFC"/>
<path d="M23.7824 34.0019L17.746 41.369V43.7219C17.746 44.4419 18.3246 45.0205 19.0446 45.0205H23.956C24.676 45.0205 25.2546 44.4419 25.2546 43.7219V34.0019H23.776H23.7824Z" fill="#BFBAFC"/>
<path d="M35.116 33.089C34.6274 33.6868 33.901 34.034 33.1231 34.034H33.1167L27.8324 34.0147V43.7218C27.8324 44.4418 28.411 45.0204 29.131 45.0204H34.0424C34.7624 45.0204 35.341 44.4418 35.341 43.7218V32.8126L35.116 33.0954V33.089Z" fill="#D4D0FF"/>
<path d="M43.2353 23.1118L37.9189 29.6497V43.7283C37.9189 44.4483 38.4974 45.0268 39.2174 45.0268H44.1289C44.8489 45.0268 45.4274 44.4483 45.4274 43.7283V23.7097C44.7267 23.8447 43.8974 23.7161 43.2353 23.1054V23.1118Z" fill="#BFBAFC"/>
<path d="M15.1181 27.4719C14.9638 26.9254 14.4739 26.5269 13.876 26.5269H8.96459C8.24459 26.5269 7.66602 27.1054 7.66602 27.8254L7.66603 38.5211L15.1181 29.5911L15.1181 27.4719Z" fill="#D4D0FF"/>
</g>
<defs>
<clipPath id="clip0_15763_28826">
<rect width="37.9286" height="31.5" fill="white" transform="translate(7.66602 13.5269)"/>
</clipPath>
</defs>
</svg>
