<svg width="248" height="154" viewBox="0 0 248 154" fill="none" xmlns="http://www.w3.org/2000/svg">
<g clip-path="url(#clip0_6549_15936)">
<path d="M223.602 6H10.3971C7.41638 6 5 8.93535 5 12.5563V159.443C5 163.064 7.41637 166 10.3971 166H223.602C226.583 166 229 163.064 229 159.443V12.5563C229 8.93535 226.583 6 223.602 6Z" fill="white"/>
<path d="M9.98105 6H224.019C226.77 6 229 8.71651 229 12.0675V159.932C229 163.284 226.77 166 224.019 166H9.98105C7.2301 166 5 163.284 5 159.932V12.0675C5 8.71651 7.2301 6 9.98105 6Z" stroke="#D2DCE4"/>
<path d="M24.2106 39H22.3658C21.0592 39 20 40.0592 20 41.3659V41.3659C20 42.6725 21.0592 43.7317 22.3658 43.7317H24.2106C25.5173 43.7317 26.5765 42.6725 26.5765 41.3659V41.3659C26.5765 40.0592 25.5173 39 24.2106 39Z" fill="#B8C4D0"/>
<path d="M69.7237 39H49.2153C47.9087 39 46.8495 40.0592 46.8495 41.3659V41.3659C46.8495 42.6725 47.9087 43.7317 49.2153 43.7317H69.7237C71.0304 43.7317 72.0896 42.6725 72.0896 41.3659C72.0896 40.0592 71.0304 39 69.7237 39Z" fill="#15C1E6"/>
<path d="M104.666 39H77.0385C75.7318 39 74.6726 40.0592 74.6726 41.3659V41.3659C74.6726 42.6725 75.7318 43.7317 77.0385 43.7317H104.666C105.973 43.7317 107.032 42.6725 107.032 41.3659C107.032 40.0592 105.973 39 104.666 39Z" fill="#9BACBC"/>
<path d="M115.027 39H111.993C110.686 39 109.627 40.0592 109.627 41.3659V41.3659C109.627 42.6725 110.686 43.7317 111.993 43.7317H115.027C116.334 43.7317 117.393 42.6725 117.393 41.3659V41.3659C117.393 40.0592 116.334 39 115.027 39Z" fill="#D2DCE4"/>
<path d="M158.669 39H123.942C122.635 39 121.576 40.0592 121.576 41.3659V41.3659C121.576 42.6725 122.635 43.7317 123.942 43.7317H158.669C159.976 43.7317 161.035 42.6725 161.035 41.3659C161.035 40.0592 159.976 39 158.669 39Z" fill="#B8C4D0"/>
<path d="M213.472 39H167.784C166.477 39 165.418 40.0592 165.418 41.3659V41.3659C165.418 42.6725 166.477 43.7317 167.784 43.7317H213.472C214.778 43.7317 215.838 42.6725 215.838 41.3659C215.838 40.0592 214.778 39 213.472 39Z" fill="#9D97F4"/>
<path d="M25.2106 113H23.3658C22.0592 113 21 114.059 21 115.366V115.366C21 116.672 22.0592 117.732 23.3658 117.732H25.2106C26.5173 117.732 27.5765 116.672 27.5765 115.366V115.366C27.5765 114.059 26.5173 113 25.2106 113Z" fill="#B8C4D0"/>
<path d="M70.7239 113H50.2155C48.9088 113 47.8496 114.059 47.8496 115.366V115.366C47.8496 116.672 48.9088 117.732 50.2155 117.732H70.7239C72.0305 117.732 73.0897 116.672 73.0897 115.366V115.366C73.0897 114.059 72.0305 113 70.7239 113Z" fill="#15C1E6"/>
<path d="M107.469 113H79.8413C78.5347 113 77.4755 114.059 77.4755 115.366V115.366C77.4755 116.672 78.5347 117.732 79.8413 117.732H107.469C108.775 117.732 109.835 116.672 109.835 115.366C109.835 114.059 108.775 113 107.469 113Z" fill="#D2DCE4"/>
<path d="M125 113H116.578C115.272 113 114.212 114.059 114.212 115.366V115.366C114.212 116.672 115.272 117.732 116.578 117.732H125C126.306 117.732 127.365 116.672 127.365 115.366V115.366C127.365 114.059 126.306 113 125 113Z" fill="#9BACBC"/>
<path d="M171.039 113H134.12C132.813 113 131.754 114.059 131.754 115.366V115.366C131.754 116.672 132.813 117.732 134.12 117.732H171.039C172.346 117.732 173.405 116.672 173.405 115.366C173.405 114.059 172.346 113 171.039 113Z" fill="#B8C4D0"/>
<path d="M140.874 127H113.246C111.939 127 110.88 128.059 110.88 129.366V129.366C110.88 130.672 111.939 131.732 113.246 131.732H140.874C142.18 131.732 143.239 130.672 143.239 129.366C143.239 128.059 142.18 127 140.874 127Z" fill="#D2DCE4"/>
<path d="M152.816 127H149.781C148.475 127 147.415 128.059 147.415 129.366V129.366C147.415 130.672 148.475 131.732 149.781 131.732H152.816C154.122 131.732 155.181 130.672 155.181 129.366V129.366C155.181 128.059 154.122 127 152.816 127Z" fill="#9BACBC"/>
<path d="M193.634 127H162.202C160.895 127 159.836 128.059 159.836 129.366C159.836 130.672 160.895 131.732 162.202 131.732H193.634C194.941 131.732 196 130.672 196 129.366C196 128.059 194.941 127 193.634 127Z" fill="#D2DCE4"/>
<path d="M25.2106 127H23.3658C22.0592 127 21 128.059 21 129.366V129.366C21 130.672 22.0592 131.732 23.3658 131.732H25.2106C26.5173 131.732 27.5765 130.672 27.5765 129.366V129.366C27.5765 128.059 26.5173 127 25.2106 127Z" fill="#B8C4D0"/>
<path d="M63.6029 127H50.2135C48.9069 127 47.8477 128.059 47.8477 129.366V129.366C47.8477 130.672 48.9069 131.732 50.2135 131.732H63.6029C64.9095 131.732 65.9687 130.672 65.9687 129.366V129.366C65.9687 128.059 64.9095 127 63.6029 127Z" fill="#B8C4D0"/>
<path d="M103.921 127H73.0576C71.751 127 70.6918 128.059 70.6918 129.366V129.366C70.6918 130.672 71.751 131.732 73.0576 131.732H103.921C105.228 131.732 106.287 130.672 106.287 129.366C106.287 128.059 105.228 127 103.921 127Z" fill="#9D97F4"/>
<path d="M179.373 71H148.51C147.203 71 146.144 72.0592 146.144 73.3659V73.3659C146.144 74.6725 147.203 75.7317 148.51 75.7317H179.373C180.68 75.7317 181.739 74.6725 181.739 73.3659C181.739 72.0592 180.68 71 179.373 71Z" fill="#D2DCE4"/>
<path d="M23.2106 71H21.3658C20.0592 71 19 72.0592 19 73.3659V73.3659C19 74.6725 20.0592 75.7317 21.3658 75.7317H23.2106C24.5173 75.7317 25.5765 74.6725 25.5765 73.3659V73.3659C25.5765 72.0592 24.5173 71 23.2106 71Z" fill="#B8C4D0"/>
<path d="M100.557 71H76.1658C74.8592 71 73.7999 72.0592 73.7999 73.3659V73.3659C73.7999 74.6725 74.8592 75.7317 76.1658 75.7317H100.557C101.864 75.7317 102.923 74.6725 102.923 73.3659C102.923 72.0592 101.864 71 100.557 71Z" fill="#9BACBC"/>
<path d="M107.418 73.3658C107.418 72.0592 108.477 71 109.784 71H139.353C140.659 71 141.719 72.0592 141.719 73.3658C141.719 74.6725 140.659 75.7317 139.353 75.7317H109.784C108.477 75.7317 107.418 74.6725 107.418 73.3658Z" fill="#B8C4D0"/>
<path d="M24.2106 85H22.3658C21.0592 85 20 86.0592 20 87.3658V87.3659C20 88.6725 21.0592 89.7317 22.3658 89.7317H24.2106C25.5173 89.7317 26.5765 88.6725 26.5765 87.3659V87.3658C26.5765 86.0592 25.5173 85 24.2106 85Z" fill="#B8C4D0"/>
<path d="M115.148 85H77.1658C75.8592 85 74.7999 86.0592 74.7999 87.3658V87.3659C74.7999 88.6725 75.8592 89.7317 77.1658 89.7317H115.148C116.455 89.7317 117.514 88.6725 117.514 87.3658C117.514 86.0592 116.455 85 115.148 85Z" fill="#B8C4D0"/>
<path d="M135.39 85H123.942C122.635 85 121.576 86.0592 121.576 87.3658V87.3659C121.576 88.6725 122.635 89.7317 123.942 89.7317H135.39C136.697 89.7317 137.756 88.6725 137.756 87.3659V87.3658C137.756 86.0592 136.697 85 135.39 85Z" fill="#9BACBC"/>
<path d="M182.378 85H144.396C143.089 85 142.03 86.0592 142.03 87.3658V87.3659C142.03 88.6725 143.089 89.7317 144.396 89.7317H182.378C183.685 89.7317 184.744 88.6725 184.744 87.3658C184.744 86.0592 183.685 85 182.378 85Z" fill="#15C1E6"/>
<path d="M25.2106 141H23.3658C22.0592 141 21 142.059 21 143.366V143.366C21 144.672 22.0592 145.732 23.3658 145.732H25.2106C26.5173 145.732 27.5765 144.672 27.5765 143.366V143.366C27.5765 142.059 26.5173 141 25.2106 141Z" fill="#B8C4D0"/>
<path d="M99.3482 141H61.3658C60.0592 141 59 142.059 59 143.366V143.366C59 144.672 60.0592 145.732 61.3658 145.732H99.3482C100.655 145.732 101.714 144.672 101.714 143.366C101.714 142.059 100.655 141 99.3482 141Z" fill="#B8C4D0"/>
<path d="M119.59 141H108.142C106.835 141 105.776 142.059 105.776 143.366V143.366C105.776 144.672 106.835 145.732 108.142 145.732H119.59C120.897 145.732 121.956 144.672 121.956 143.366V143.366C121.956 142.059 120.897 141 119.59 141Z" fill="#9BACBC"/>
<path d="M166.578 141H128.596C127.289 141 126.23 142.059 126.23 143.366V143.366C126.23 144.672 127.289 145.732 128.596 145.732H166.578C167.885 145.732 168.944 144.672 168.944 143.366C168.944 142.059 167.885 141 166.578 141Z" fill="#15C1E6"/>
<path d="M24.2106 99H22.3658C21.0592 99 20 100.059 20 101.366V101.366C20 102.672 21.0592 103.732 22.3658 103.732H24.2106C25.5173 103.732 26.5765 102.672 26.5765 101.366V101.366C26.5765 100.059 25.5173 99 24.2106 99Z" fill="#B8C4D0"/>
<path d="M124.588 99H91.7828C90.4762 99 89.417 100.059 89.417 101.366V101.366C89.417 102.672 90.4762 103.732 91.7828 103.732H124.588C125.894 103.732 126.954 102.672 126.954 101.366C126.954 100.059 125.894 99 124.588 99Z" fill="#9BACBC"/>
<path d="M131.078 101.365C131.078 100.059 132.136 99 133.443 99H154.599C155.905 99 156.965 100.059 156.965 101.365C156.965 102.672 155.905 103.731 154.599 103.731H133.443C132.136 103.731 131.078 102.672 131.078 101.365Z" fill="#D2DCE4"/>
<path d="M5 29L229 29" stroke="#D2DCE4"/>
<path fill-rule="evenodd" clip-rule="evenodd" d="M27.7478 17.8837H28.5299C28.6923 17.8837 28.824 18.0154 28.8242 18.1779V19.649C28.8242 19.8115 28.6925 19.9432 28.53 19.9432H27.7479C27.6574 20.2814 27.5235 20.602 27.3522 20.8983L27.9054 21.4515C28.0203 21.5664 28.0203 21.7527 27.9054 21.8676L26.8655 22.9078C26.7506 23.0227 26.5644 23.0227 26.4495 22.9078L25.8963 22.3545C25.6001 22.5257 25.2797 22.6597 24.9415 22.7503V23.5327C24.9415 23.6952 24.8099 23.8269 24.6473 23.8269H23.1767C23.0142 23.8269 22.8826 23.6952 22.8826 23.5327V22.7503C22.5444 22.6597 22.224 22.5257 21.9278 22.3546L21.3747 22.9078C21.2598 23.0227 21.0736 23.0227 20.9586 22.9078L19.9188 21.8676C19.8039 21.7527 19.8039 21.5664 19.9188 21.4515L20.472 20.8983C20.3007 20.602 20.1669 20.2814 20.0763 19.9432H19.2942C19.1317 19.9432 19 19.8115 19 19.649V18.1779C19 18.0154 19.1317 17.8837 19.2942 17.8837H20.0763C20.1668 17.5454 20.3007 17.2249 20.4719 16.9286L19.9187 16.3754C19.8038 16.2604 19.8038 16.0741 19.9187 15.9592L20.9586 14.9191C21.0735 14.8041 21.2597 14.8041 21.3746 14.9191L21.9278 15.4724C22.224 15.3011 22.5443 15.1672 22.8826 15.0766V14.2943C22.8826 14.1317 23.0142 14 23.1766 14H24.6473C24.8099 14 24.9415 14.1317 24.9415 14.2943V15.0765C25.2797 15.1672 25.6001 15.3011 25.8963 15.4724L26.4495 14.919C26.5643 14.8041 26.7506 14.8041 26.8654 14.919L27.9053 15.9592C28.0202 16.0741 28.0202 16.2604 27.9053 16.3753L27.3521 16.9285C27.5234 17.2248 27.6573 17.5454 27.7478 17.8837ZM23.9106 20.8773C24.9957 20.8773 25.8754 19.9974 25.8754 18.912C25.8754 17.8266 24.9957 16.9467 23.9106 16.9467C22.8256 16.9467 21.946 17.8266 21.946 18.912C21.946 19.9974 22.8256 20.8773 23.9106 20.8773Z" fill="#B8C4D0"/>
<path d="M107.61 16.5298H39.9386C38.632 16.5298 37.5728 17.589 37.5728 18.8956V18.8956C37.5728 20.2023 38.632 21.2615 39.9386 21.2615H107.61C108.917 21.2615 109.976 20.2023 109.976 18.8956C109.976 17.589 108.917 16.5298 107.61 16.5298Z" fill="#B8C4D0"/>
<path d="M113.729 56.1443H110.695C109.388 56.1443 108.329 57.2035 108.329 58.5101V58.5101C108.329 59.8168 109.388 60.876 110.695 60.876H113.729C115.036 60.876 116.095 59.8168 116.095 58.5101V58.5101C116.095 57.2035 115.036 56.1443 113.729 56.1443Z" fill="#9BACBC"/>
<path d="M143.357 56.1443H122.849C121.542 56.1443 120.483 57.2035 120.483 58.5101V58.5101C120.483 59.8168 121.542 60.876 122.849 60.876H143.357C144.664 60.876 145.723 59.8168 145.723 58.5101C145.723 57.2035 144.664 56.1443 143.357 56.1443Z" fill="#B8C4D0"/>
<path d="M162.434 56.1443H152.024C150.718 56.1443 149.658 57.2035 149.658 58.5101V58.5101C149.658 59.8168 150.718 60.876 152.024 60.876H162.434C163.741 60.876 164.8 59.8168 164.8 58.5101V58.5101C164.8 57.2035 163.741 56.1443 162.434 56.1443Z" fill="#D2DCE4"/>
<path d="M23.2106 56.1443H21.3658C20.0592 56.1443 19 57.2035 19 58.5101V58.5101C19 59.8168 20.0592 60.876 21.3658 60.876H23.2106C24.5173 60.876 25.5765 59.8168 25.5765 58.5101V58.5101C25.5765 57.2035 24.5173 56.1443 23.2106 56.1443Z" fill="#B8C4D0"/>
<path d="M61.6049 56.1443H48.2155C46.9088 56.1443 45.8496 57.2035 45.8496 58.5101V58.5101C45.8496 59.8168 46.9088 60.876 48.2155 60.876H61.6049C62.9115 60.876 63.9707 59.8168 63.9707 58.5101C63.9707 57.2035 62.9115 56.1443 61.6049 56.1443Z" fill="#B8C4D0"/>
<path d="M101.579 56.1443H70.7153C69.4087 56.1443 68.3495 57.2035 68.3495 58.5101V58.5101C68.3495 59.8168 69.4087 60.876 70.7153 60.876H101.579C102.885 60.876 103.945 59.8168 103.945 58.5101C103.945 57.2035 102.885 56.1443 101.579 56.1443Z" fill="#D2DCE4"/>
<path d="M183.771 53V61.7634" stroke="#9BACBC" stroke-width="0.718427"/>
<path d="M171.238 57.8963C171.238 57.6147 171.273 57.3565 171.343 57.1214C171.415 56.8841 171.517 56.6805 171.65 56.5106C171.78 56.3407 171.939 56.2081 172.125 56.1128C172.311 56.0174 172.519 55.9696 172.749 55.9696C172.975 55.9696 173.172 56.008 173.339 56.0848C173.51 56.1592 173.656 56.2687 173.779 56.4129V54.4548H174.425V59.816H173.832L173.804 59.4181C173.678 59.5717 173.528 59.6881 173.354 59.7671C173.179 59.8463 172.975 59.8858 172.742 59.8858C172.514 59.8858 172.307 59.8369 172.121 59.7392C171.937 59.6415 171.78 59.5066 171.65 59.3343C171.519 59.1622 171.418 58.9597 171.346 58.727C171.274 58.4919 171.238 58.2396 171.238 57.9696V57.8963ZM171.883 57.9696C171.883 58.1534 171.904 58.328 171.943 58.4931C171.983 58.6584 172.044 58.8038 172.128 58.9294C172.21 59.0551 172.315 59.1551 172.442 59.2296C172.57 59.3018 172.724 59.3378 172.903 59.3378C173.119 59.3378 173.298 59.2889 173.44 59.1913C173.583 59.0935 173.696 58.9621 173.779 58.7968V57.0446C173.696 56.8911 173.583 56.7655 173.44 56.6677C173.298 56.5676 173.122 56.5176 172.91 56.5176C172.729 56.5176 172.573 56.5548 172.442 56.6293C172.315 56.7037 172.21 56.8038 172.128 56.9294C172.044 57.0575 171.983 57.2052 171.943 57.3728C171.904 57.538 171.883 57.7125 171.883 57.8963V57.9696ZM177.322 59.8858C177.057 59.8858 176.812 59.8404 176.588 59.7497C176.367 59.6589 176.179 59.5322 176.02 59.3693C175.862 59.2064 175.738 59.0132 175.65 58.7898C175.561 58.5664 175.517 58.3233 175.517 58.0604V57.9138C175.517 57.6089 175.566 57.3366 175.664 57.097C175.762 56.855 175.892 56.6503 176.055 56.4827C176.216 56.3174 176.398 56.1907 176.603 56.1023C176.809 56.0138 177.022 55.9696 177.238 55.9696C177.511 55.9696 177.748 56.0174 177.95 56.1128C178.155 56.2058 178.325 56.335 178.46 56.5001C178.594 56.6677 178.695 56.8643 178.76 57.09C178.827 57.3157 178.861 57.5601 178.861 57.823V58.1127H176.163V58.1371C176.18 58.321 176.216 58.4827 176.271 58.6223C176.329 58.762 176.408 58.8852 176.509 58.9922C176.611 59.1063 176.735 59.1958 176.879 59.2611C177.023 59.3262 177.182 59.3587 177.357 59.3587C177.587 59.3587 177.792 59.3122 177.971 59.2191C178.15 59.126 178.299 59.0028 178.418 58.8492L178.812 59.1563C178.687 59.3472 178.498 59.517 178.247 59.666C177.997 59.8125 177.69 59.8858 177.322 59.8858ZM177.238 56.5001C177.107 56.5001 176.985 56.5246 176.868 56.5734C176.752 56.62 176.647 56.6886 176.554 56.7794C176.461 56.8725 176.382 56.9865 176.317 57.1214C176.254 57.2541 176.21 57.4076 176.184 57.5822H178.216V57.5508C178.216 57.4344 178.193 57.31 178.149 57.1773C178.105 57.0423 178.043 56.926 177.964 56.8283C177.885 56.7305 177.785 56.6514 177.663 56.5909C177.546 56.5304 177.403 56.5001 177.238 56.5001Z" fill="#526373"/>
<path d="M216.37 111.703H169.924C168.63 111.703 167.581 112.751 167.581 114.045V114.045C167.581 115.339 168.63 116.388 169.924 116.388H216.37C217.664 116.388 218.713 115.339 218.713 114.045C218.713 112.751 217.664 111.703 216.37 111.703Z" fill="#D2DCE4"/>
<path d="M182.795 68.9753H180.035C178.742 68.9753 177.693 70.0241 177.693 71.3179V71.3179C177.693 72.6117 178.742 73.6605 180.035 73.6605H182.795C184.088 73.6605 185.137 72.6117 185.137 71.3179V71.3179C185.137 70.0241 184.088 68.9753 182.795 68.9753Z" fill="#7879F1"/>
<path d="M211.448 68.9753H191.939C190.645 68.9753 189.597 70.0241 189.597 71.3179V71.3179C189.597 72.6117 190.645 73.6605 191.939 73.6605H211.448C212.742 73.6605 213.791 72.6117 213.791 71.3179C213.791 70.0241 212.742 68.9753 211.448 68.9753Z" fill="#15C1E6"/>
<path d="M192.259 83.0007H181.435C180.142 83.0007 179.093 84.0495 179.093 85.3433V85.3433C179.093 86.6371 180.142 87.6859 181.435 87.6859H192.259C193.553 87.6859 194.602 86.6371 194.602 85.3433V85.3433C194.602 84.0495 193.553 83.0007 192.259 83.0007Z" fill="#7879F1"/>
<path d="M205.959 97.6912H176.524C175.23 97.6912 174.182 98.74 174.182 100.034V100.034C174.182 101.327 175.23 102.376 176.524 102.376H205.959C207.253 102.376 208.301 101.327 208.301 100.034C208.301 98.74 207.253 97.6912 205.959 97.6912Z" fill="#7879F1"/>
<g filter="url(#filter0_d_6549_15936)">
<path d="M238.602 64H168.109C165.152 64 162.755 66.397 162.755 69.3539V116.646C162.755 119.603 165.152 122 168.109 122H238.602C241.559 122 243.956 119.603 243.956 116.646V69.3539C243.956 66.397 241.559 64 238.602 64Z" fill="white"/>
</g>
<path d="M172.84 73.1692C172.84 72.9123 172.872 72.6765 172.935 72.4619C173.001 72.2453 173.095 72.0595 173.215 71.9043C173.335 71.7493 173.479 71.6283 173.649 71.5412C173.819 71.4541 174.009 71.4105 174.219 71.4105C174.425 71.4105 174.605 71.4456 174.758 71.5157C174.913 71.5836 175.046 71.6835 175.159 71.8152V70.0278H175.748V74.9216H175.207L175.182 74.5584C175.067 74.6985 174.93 74.8048 174.77 74.877C174.611 74.9491 174.425 74.9853 174.213 74.9853C174.005 74.9853 173.815 74.9407 173.645 74.8515C173.477 74.7623 173.335 74.6391 173.215 74.4819C173.097 74.3247 173.004 74.1399 172.938 73.9275C172.873 73.713 172.84 73.4826 172.84 73.2362V73.1692ZM173.429 73.2362C173.429 73.404 173.447 73.5633 173.483 73.714C173.519 73.8649 173.575 73.9976 173.652 74.1123C173.727 74.227 173.822 74.3184 173.939 74.3863C174.055 74.4521 174.196 74.4851 174.359 74.4851C174.556 74.4851 174.721 74.4405 174.85 74.3512C174.979 74.2621 175.083 74.1421 175.159 73.9912V72.3918C175.083 72.2517 174.979 72.1369 174.85 72.0478C174.721 71.9564 174.559 71.9108 174.366 71.9108C174.2 71.9108 174.058 71.9448 173.939 72.0127C173.822 72.0807 173.727 72.172 173.652 72.2867C173.575 72.4035 173.519 72.5384 173.483 72.6914C173.447 72.8422 173.429 73.0014 173.429 73.1692V73.2362ZM178.393 74.9853C178.151 74.9853 177.928 74.9439 177.724 74.861C177.522 74.7783 177.349 74.6624 177.204 74.5137C177.06 74.3651 176.948 74.1887 176.866 73.9849C176.786 73.781 176.746 73.559 176.746 73.319V73.1852C176.746 72.907 176.79 72.6584 176.88 72.4396C176.969 72.2187 177.088 72.0318 177.236 71.8789C177.383 71.7281 177.55 71.6123 177.736 71.5317C177.926 71.4509 178.119 71.4105 178.316 71.4105C178.565 71.4105 178.782 71.4541 178.967 71.5412C179.153 71.6261 179.308 71.744 179.431 71.8948C179.555 72.0478 179.646 72.2272 179.706 72.4333C179.767 72.6393 179.798 72.8623 179.798 73.1023V73.3668H177.335V73.389C177.35 73.5569 177.383 73.7045 177.434 73.8319C177.487 73.9594 177.559 74.072 177.651 74.1697C177.744 74.2738 177.857 74.3555 177.988 74.415C178.12 74.4744 178.266 74.5042 178.424 74.5042C178.635 74.5042 178.822 74.4617 178.985 74.3767C179.149 74.2918 179.285 74.1792 179.393 74.039L179.753 74.3194C179.639 74.4936 179.467 74.6486 179.237 74.7846C179.009 74.9183 178.729 74.9853 178.393 74.9853ZM178.316 71.8948C178.197 71.8948 178.085 71.9171 177.979 71.9617C177.873 72.0042 177.777 72.0668 177.692 72.1497C177.607 72.2347 177.535 72.3387 177.475 72.4619C177.418 72.583 177.378 72.7232 177.355 72.8825H179.208V72.8538C179.208 72.7476 179.189 72.634 179.148 72.5129C179.107 72.3897 179.051 72.2836 178.979 72.1943C178.907 72.1051 178.815 72.0329 178.705 71.9777C178.597 71.9225 178.467 71.8948 178.316 71.8948ZM182.184 70.6396V71.4743H183.497V71.9298H182.184V73.8033C182.184 73.9371 182.202 74.0475 182.235 74.1346C182.269 74.2217 182.316 74.2908 182.375 74.3417C182.435 74.3948 182.503 74.432 182.58 74.4533C182.658 74.4744 182.741 74.4851 182.828 74.4851C182.891 74.4851 182.958 74.4819 183.026 74.4756C183.093 74.4671 183.16 74.4575 183.226 74.4468C183.29 74.4363 183.35 74.4256 183.405 74.415C183.462 74.4023 183.508 74.3917 183.545 74.3832L183.628 74.8005C183.578 74.8302 183.519 74.8568 183.449 74.8802C183.379 74.9014 183.303 74.9195 183.22 74.9343C183.137 74.9513 183.049 74.9641 182.956 74.9726C182.864 74.9811 182.773 74.9853 182.681 74.9853C182.528 74.9853 182.385 74.9641 182.251 74.9216C182.119 74.877 182.005 74.8069 181.907 74.7113C181.81 74.6178 181.732 74.4967 181.674 74.3481C181.619 74.1972 181.592 74.0157 181.592 73.8033V71.9298H180.687V71.4743H181.592V70.6396H182.184ZM186.231 74.9853C185.988 74.9853 185.765 74.9439 185.562 74.861C185.36 74.7783 185.186 74.6624 185.042 74.5137C184.898 74.3651 184.785 74.1887 184.705 73.9849C184.624 73.781 184.583 73.559 184.583 73.319V73.1852C184.583 72.907 184.628 72.6584 184.717 72.4396C184.807 72.2187 184.925 72.0318 185.074 71.8789C185.221 71.7281 185.387 71.6123 185.574 71.5317C185.763 71.4509 185.956 71.4105 186.154 71.4105C186.403 71.4105 186.619 71.4541 186.804 71.5412C186.991 71.6261 187.146 71.744 187.269 71.8948C187.392 72.0478 187.483 72.2272 187.543 72.4333C187.605 72.6393 187.636 72.8623 187.636 73.1023V73.3668H185.172V73.389C185.187 73.5569 185.221 73.7045 185.271 73.8319C185.325 73.9594 185.396 74.072 185.488 74.1697C185.581 74.2738 185.694 74.3555 185.826 74.415C185.957 74.4744 186.103 74.5042 186.263 74.5042C186.473 74.5042 186.659 74.4617 186.824 74.3767C186.987 74.2918 187.122 74.1792 187.231 74.039L187.591 74.3194C187.476 74.4936 187.304 74.6486 187.075 74.7846C186.848 74.9183 186.566 74.9853 186.231 74.9853ZM186.154 71.8948C186.035 71.8948 185.923 71.9171 185.816 71.9617C185.71 72.0042 185.615 72.0668 185.53 72.1497C185.445 72.2347 185.372 72.3387 185.313 72.4619C185.256 72.583 185.215 72.7232 185.192 72.8825H187.047V72.8538C187.047 72.7476 187.026 72.634 186.986 72.5129C186.945 72.3897 186.889 72.2836 186.817 72.1943C186.744 72.1051 186.654 72.0329 186.543 71.9777C186.434 71.9225 186.305 71.8948 186.154 71.8948ZM190.095 74.5074C190.201 74.5074 190.304 74.4904 190.404 74.4564C190.507 74.4225 190.596 74.3747 190.676 74.3131C190.754 74.2536 190.816 74.1835 190.863 74.1028C190.912 74.0199 190.938 73.9308 190.94 73.8351H191.497C191.495 73.9881 191.455 74.1346 191.376 74.2748C191.3 74.4128 191.196 74.5339 191.067 74.6381C190.938 74.7442 190.788 74.8292 190.621 74.8929C190.453 74.9545 190.278 74.9853 190.095 74.9853C189.834 74.9853 189.606 74.9386 189.41 74.8451C189.215 74.7516 189.052 74.6253 188.923 74.4659C188.791 74.3088 188.692 74.1272 188.627 73.9211C188.561 73.713 188.528 73.4942 188.528 73.2648V73.1311C188.528 72.9038 188.561 72.686 188.627 72.4779C188.692 72.2698 188.791 72.086 188.923 71.9267C189.052 71.7695 189.215 71.6442 189.41 71.5507C189.606 71.4573 189.834 71.4105 190.095 71.4105C190.299 71.4105 190.486 71.4435 190.656 71.5093C190.828 71.573 190.977 71.6601 191.102 71.7706C191.225 71.8832 191.321 72.0159 191.392 72.1689C191.462 72.3217 191.497 72.4853 191.497 72.6594H190.94C190.938 72.5554 190.914 72.4577 190.87 72.3664C190.827 72.2729 190.769 72.1912 190.694 72.1211C190.62 72.051 190.531 71.9957 190.426 71.9554C190.325 71.915 190.214 71.8948 190.095 71.8948C189.913 71.8948 189.759 71.932 189.633 72.0064C189.51 72.0785 189.41 72.1731 189.333 72.2899C189.258 72.4088 189.202 72.5415 189.168 72.6882C189.136 72.8347 189.121 72.9824 189.121 73.1311V73.2648C189.121 73.4156 189.136 73.5653 189.168 73.714C189.202 73.8607 189.258 73.9923 189.333 74.1091C189.408 74.228 189.507 74.3247 189.63 74.399C189.755 74.4713 189.91 74.5074 190.095 74.5074ZM193.94 70.6396V71.4743H195.254V71.9298H193.94V73.8033C193.94 73.9371 193.958 74.0475 193.992 74.1346C194.025 74.2217 194.073 74.2908 194.132 74.3417C194.191 74.3948 194.26 74.432 194.336 74.4533C194.415 74.4744 194.498 74.4851 194.584 74.4851C194.648 74.4851 194.714 74.4819 194.782 74.4756C194.849 74.4671 194.917 74.4575 194.983 74.4468C195.046 74.4363 195.106 74.4256 195.161 74.415C195.218 74.4023 195.265 74.3917 195.301 74.3832L195.384 74.8005C195.335 74.8302 195.276 74.8568 195.206 74.8802C195.135 74.9014 195.06 74.9195 194.976 74.9343C194.893 74.9513 194.806 74.9641 194.711 74.9726C194.621 74.9811 194.529 74.9853 194.438 74.9853C194.285 74.9853 194.141 74.9641 194.008 74.9216C193.876 74.877 193.761 74.8069 193.663 74.7113C193.566 74.6178 193.489 74.4967 193.431 74.3481C193.376 74.1972 193.348 74.0157 193.348 73.8033V71.9298H192.443V71.4743H193.348V70.6396H193.94ZM199.325 75.4027H196.404V74.9216H199.325V75.4027ZM203.305 73.2362C203.305 73.387 203.293 73.5325 203.269 73.6727C203.248 73.8107 203.216 73.9403 203.174 74.0613C203.116 74.2207 203.042 74.364 202.947 74.4914C202.857 74.6168 202.746 74.7208 202.616 74.8037C202.523 74.861 202.42 74.9056 202.307 74.9375C202.197 74.9694 202.076 74.9853 201.948 74.9853C201.798 74.9853 201.663 74.9673 201.54 74.9311C201.418 74.895 201.309 74.843 201.211 74.775C201.165 74.741 201.12 74.7039 201.078 74.6635C201.035 74.6231 200.995 74.5785 200.956 74.5297L200.928 74.9216H200.386V70.0278H200.975V71.8439C201.025 71.7823 201.079 71.727 201.138 71.6782C201.197 71.6272 201.262 71.5836 201.329 71.5475C201.414 71.5029 201.508 71.4689 201.61 71.4456C201.712 71.4223 201.822 71.4105 201.941 71.4105C202.09 71.4105 202.227 71.4308 202.352 71.4711C202.477 71.5114 202.591 71.5677 202.693 71.6399C202.784 71.7079 202.866 71.7908 202.938 71.8885C203.011 71.9841 203.074 72.0913 203.129 72.2102C203.186 72.3441 203.23 72.4927 203.26 72.6563C203.29 72.8177 203.305 72.9887 203.305 73.1692V73.2362ZM202.715 73.1692C202.715 73.061 202.707 72.9558 202.693 72.8538C202.68 72.7498 202.66 72.6521 202.633 72.5607C202.595 72.4481 202.544 72.3451 202.482 72.2517C202.421 72.1582 202.345 72.0849 202.257 72.0318C202.195 71.9936 202.126 71.9639 202.049 71.9426C201.973 71.9213 201.888 71.9108 201.795 71.9108C201.693 71.9108 201.599 71.9246 201.514 71.9521C201.429 71.9777 201.354 72.0137 201.288 72.0605C201.22 72.1093 201.159 72.1667 201.106 72.2325C201.055 72.2963 201.012 72.3664 200.975 72.4428V73.9498C201.013 74.0263 201.058 74.0975 201.11 74.1633C201.163 74.227 201.223 74.2833 201.291 74.3322C201.359 74.381 201.435 74.4193 201.52 74.4468C201.605 74.4724 201.698 74.4851 201.801 74.4851C201.898 74.4851 201.988 74.4734 202.068 74.4501C202.149 74.4245 202.221 74.3885 202.285 74.3417C202.37 74.2823 202.441 74.2068 202.498 74.1155C202.556 74.0242 202.602 73.9222 202.636 73.8096C202.664 73.7247 202.683 73.6334 202.696 73.5357C202.708 73.4379 202.715 73.3381 202.715 73.2362V73.1692ZM204.394 70.0278H206.156V74.4118H207.281V74.9216H204.394V74.4118H205.566V70.5407H204.394V70.0278ZM208.055 73.1661C208.055 72.9175 208.091 72.6871 208.163 72.4747C208.236 72.2601 208.339 72.0743 208.476 71.9171C208.609 71.76 208.773 71.6368 208.967 71.5475C209.16 71.4562 209.377 71.4105 209.619 71.4105C209.864 71.4105 210.083 71.4562 210.276 71.5475C210.471 71.6368 210.636 71.76 210.773 71.9171C210.906 72.0743 211.01 72.2601 211.082 72.4747C211.154 72.6871 211.19 72.9175 211.19 73.1661V73.2362C211.19 73.4847 211.154 73.7152 211.082 73.9275C211.01 74.1399 210.906 74.3247 210.773 74.4819C210.636 74.6391 210.472 74.7623 210.279 74.8515C210.086 74.9407 209.868 74.9853 209.625 74.9853C209.382 74.9853 209.162 74.9407 208.967 74.8515C208.773 74.7623 208.609 74.6391 208.476 74.4819C208.339 74.3247 208.236 74.1399 208.163 73.9275C208.091 73.7152 208.055 73.4847 208.055 73.2362V73.1661ZM208.645 73.2362C208.645 73.4061 208.665 73.5685 208.705 73.7236C208.745 73.8765 208.807 74.0114 208.89 74.1283C208.97 74.2451 209.072 74.3374 209.195 74.4055C209.318 74.4734 209.462 74.5074 209.625 74.5074C209.787 74.5074 209.929 74.4734 210.049 74.4055C210.172 74.3374 210.276 74.2451 210.358 74.1283C210.439 74.0114 210.5 73.8765 210.54 73.7236C210.58 73.5685 210.601 73.4061 210.601 73.2362V73.1661C210.601 72.9982 210.579 72.8379 210.537 72.685C210.496 72.5299 210.436 72.394 210.355 72.2771C210.272 72.1604 210.17 72.068 210.046 71.9999C209.925 71.9298 209.783 71.8948 209.619 71.8948C209.456 71.8948 209.314 71.9298 209.192 71.9999C209.071 72.068 208.97 72.1604 208.89 72.2771C208.807 72.394 208.745 72.5299 208.705 72.685C208.665 72.8379 208.645 72.9982 208.645 73.1661V73.2362ZM213.608 74.5074C213.715 74.5074 213.817 74.4904 213.917 74.4564C214.02 74.4225 214.109 74.3747 214.188 74.3131C214.267 74.2536 214.33 74.1835 214.376 74.1028C214.425 74.0199 214.45 73.9308 214.453 73.8351H215.01C215.008 73.9881 214.968 74.1346 214.889 74.2748C214.812 74.4128 214.709 74.5339 214.58 74.6381C214.45 74.7442 214.302 74.8292 214.134 74.8929C213.967 74.9545 213.791 74.9853 213.608 74.9853C213.347 74.9853 213.119 74.9386 212.923 74.8451C212.728 74.7516 212.566 74.6253 212.436 74.4659C212.304 74.3088 212.205 74.1272 212.14 73.9211C212.074 73.713 212.041 73.4942 212.041 73.2648V73.1311C212.041 72.9038 212.074 72.686 212.14 72.4779C212.205 72.2698 212.304 72.086 212.436 71.9267C212.566 71.7695 212.728 71.6442 212.923 71.5507C213.119 71.4573 213.347 71.4105 213.608 71.4105C213.813 71.4105 213.999 71.4435 214.169 71.5093C214.341 71.573 214.49 71.6601 214.615 71.7706C214.738 71.8832 214.835 72.0159 214.905 72.1689C214.976 72.3217 215.01 72.4853 215.01 72.6594H214.453C214.45 72.5554 214.427 72.4577 214.383 72.3664C214.34 72.2729 214.282 72.1912 214.207 72.1211C214.133 72.051 214.044 71.9957 213.939 71.9554C213.838 71.915 213.728 71.8948 213.608 71.8948C213.425 71.8948 213.271 71.932 213.146 72.0064C213.023 72.0785 212.923 72.1731 212.847 72.2899C212.77 72.4088 212.715 72.5415 212.681 72.6882C212.65 72.8347 212.634 72.9824 212.634 73.1311V73.2648C212.634 73.4156 212.65 73.5653 212.681 73.714C212.715 73.8607 212.77 73.9923 212.847 74.1091C212.921 74.228 213.02 74.3247 213.143 74.399C213.268 74.4713 213.423 74.5074 213.608 74.5074ZM217.09 73.3126L216.657 73.73V74.9216H216.065V70.0278H216.657V73.0227L217.043 72.6085L218.174 71.4743H218.891L217.496 72.9112L219.105 74.9216H218.355L217.09 73.3126Z" fill="#526373"/>
<path d="M172.84 86.2189C172.84 85.9618 172.872 85.7261 172.935 85.5116C173.001 85.2949 173.095 85.109 173.215 84.954C173.335 84.799 173.479 84.6778 173.649 84.5907C173.819 84.5037 174.009 84.4602 174.219 84.4602C174.425 84.4602 174.605 84.4952 174.758 84.5653C174.913 84.6333 175.046 84.7331 175.159 84.8648V83.0774H175.748V87.9712H175.207L175.182 87.608C175.067 87.7482 174.93 87.8543 174.77 87.9266C174.611 87.9988 174.425 88.0349 174.213 88.0349C174.005 88.0349 173.815 87.9903 173.645 87.9011C173.477 87.8119 173.335 87.6886 173.215 87.5315C173.097 87.3743 173.004 87.1896 172.938 86.9772C172.873 86.7626 172.84 86.5321 172.84 86.2857V86.2189ZM173.429 86.2857C173.429 86.4535 173.447 86.6129 173.483 86.7637C173.519 86.9144 173.575 87.0472 173.652 87.162C173.727 87.2767 173.822 87.3679 173.939 87.4359C174.055 87.5018 174.196 87.5347 174.359 87.5347C174.556 87.5347 174.721 87.4901 174.85 87.4009C174.979 87.3117 175.083 87.1916 175.159 87.0409V85.4415C175.083 85.3013 174.979 85.1866 174.85 85.0974C174.721 85.006 174.559 84.9603 174.366 84.9603C174.2 84.9603 174.058 84.9943 173.939 85.0623C173.822 85.1303 173.727 85.2216 173.652 85.3363C173.575 85.4532 173.519 85.588 173.483 85.7409C173.447 85.8917 173.429 86.0511 173.429 86.2189V86.2857ZM178.393 88.0349C178.151 88.0349 177.928 87.9935 177.724 87.9106C177.522 87.8278 177.349 87.7121 177.204 87.5634C177.06 87.4147 176.948 87.2384 176.866 87.0345C176.786 86.8306 176.746 86.6086 176.746 86.3686V86.2348C176.746 85.9565 176.79 85.7081 176.88 85.4893C176.969 85.2684 177.088 85.0814 177.236 84.9285C177.383 84.7777 177.55 84.662 177.736 84.5812C177.926 84.5005 178.119 84.4602 178.316 84.4602C178.565 84.4602 178.782 84.5037 178.967 84.5907C179.153 84.6758 179.308 84.7936 179.431 84.9444C179.555 85.0974 179.646 85.2768 179.706 85.4828C179.767 85.6889 179.798 85.9119 179.798 86.152V86.4164H177.335V86.4387C177.35 86.6065 177.383 86.7541 177.434 86.8816C177.487 87.009 177.559 87.1215 177.651 87.2193C177.744 87.3233 177.857 87.4051 177.988 87.4646C178.12 87.5241 178.266 87.5538 178.424 87.5538C178.635 87.5538 178.822 87.5113 178.985 87.4264C179.149 87.3414 179.285 87.2289 179.393 87.0887L179.753 87.369C179.639 87.5432 179.467 87.6983 179.237 87.8342C179.009 87.968 178.729 88.0349 178.393 88.0349ZM178.316 84.9444C178.197 84.9444 178.085 84.9667 177.979 85.0113C177.873 85.0538 177.777 85.1165 177.692 85.1993C177.607 85.2843 177.535 85.3884 177.475 85.5116C177.418 85.6326 177.378 85.7728 177.355 85.9321H179.208V85.9034C179.208 85.7972 179.189 85.6836 179.148 85.5626C179.107 85.4393 179.051 85.3331 178.979 85.2439C178.907 85.1547 178.815 85.0825 178.705 85.0273C178.597 84.972 178.467 84.9444 178.316 84.9444ZM183.054 87.9712C183.03 87.9266 183.012 87.8713 182.997 87.8055C182.984 87.7376 182.974 87.6675 182.968 87.5952C182.908 87.6547 182.842 87.711 182.767 87.7641C182.695 87.8172 182.615 87.8639 182.528 87.9042C182.44 87.9447 182.344 87.9765 182.244 87.9998C182.145 88.0233 182.039 88.0349 181.926 88.0349C181.743 88.0349 181.578 88.0083 181.429 87.9552C181.282 87.9021 181.158 87.83 181.056 87.7386C180.953 87.6494 180.872 87.5432 180.815 87.42C180.759 87.2947 180.732 87.1598 180.732 87.0153C180.732 86.8263 180.769 86.6606 180.843 86.5183C180.919 86.3761 181.026 86.2571 181.165 86.1615C181.303 86.0681 181.469 85.998 181.662 85.9512C181.857 85.9045 182.075 85.8811 182.314 85.8811H182.959V85.6103C182.959 85.5063 182.939 85.4127 182.902 85.33C182.863 85.2471 182.809 85.176 182.738 85.1165C182.668 85.0591 182.582 85.0145 182.481 84.9827C182.381 84.9508 182.268 84.9349 182.143 84.9349C182.026 84.9349 181.921 84.9497 181.827 84.9795C181.736 85.0093 181.658 85.0486 181.595 85.0974C181.531 85.1462 181.481 85.2046 181.446 85.2726C181.411 85.3385 181.394 85.4074 181.394 85.4797H180.802C180.803 85.3544 180.835 85.2312 180.897 85.1101C180.961 84.989 181.053 84.8796 181.171 84.782C181.288 84.6863 181.431 84.6088 181.598 84.5494C181.768 84.4898 181.96 84.4602 182.174 84.4602C182.37 84.4602 182.552 84.4846 182.72 84.5334C182.888 84.5802 183.033 84.6513 183.156 84.7469C183.277 84.8446 183.373 84.9657 183.443 85.1101C183.513 85.2545 183.547 85.4234 183.547 85.6167V87.2193C183.547 87.334 183.559 87.4562 183.58 87.5857C183.601 87.7131 183.631 87.8246 183.669 87.9202V87.9712H183.054ZM182.012 87.5219C182.127 87.5219 182.234 87.5071 182.334 87.4773C182.434 87.4476 182.525 87.4083 182.608 87.3595C182.689 87.3106 182.759 87.2554 182.819 87.1938C182.877 87.13 182.925 87.0642 182.959 86.9963V86.2985H182.411C182.206 86.2985 182.028 86.3165 181.875 86.3526C181.725 86.3866 181.604 86.4397 181.516 86.512C181.451 86.5629 181.403 86.6235 181.369 86.6936C181.336 86.7637 181.32 86.8433 181.32 86.9325C181.32 87.0175 181.334 87.0961 181.362 87.1683C181.392 87.2405 181.435 87.3021 181.493 87.3531C181.55 87.4062 181.623 87.4476 181.71 87.4773C181.796 87.5071 181.897 87.5219 182.012 87.5219ZM184.597 86.2189C184.597 85.9618 184.628 85.7261 184.692 85.5116C184.757 85.2949 184.851 85.109 184.972 84.954C185.091 84.799 185.235 84.6778 185.406 84.5907C185.576 84.5037 185.765 84.4602 185.976 84.4602C186.181 84.4602 186.362 84.4952 186.514 84.5653C186.67 84.6333 186.803 84.7331 186.916 84.8648V83.0774H187.505V87.9712H186.964L186.937 87.608C186.824 87.7482 186.686 87.8543 186.527 87.9266C186.367 87.9988 186.181 88.0349 185.97 88.0349C185.761 88.0349 185.572 87.9903 185.402 87.9011C185.234 87.8119 185.091 87.6886 184.972 87.5315C184.853 87.3743 184.761 87.1896 184.695 86.9772C184.629 86.7626 184.597 86.5321 184.597 86.2857V86.2189ZM185.186 86.2857C185.186 86.4535 185.203 86.6129 185.24 86.7637C185.276 86.9144 185.332 87.0472 185.409 87.162C185.483 87.2767 185.578 87.3679 185.695 87.4359C185.812 87.5018 185.953 87.5347 186.116 87.5347C186.313 87.5347 186.477 87.4901 186.606 87.4009C186.736 87.3117 186.839 87.1916 186.916 87.0409V85.4415C186.839 85.3013 186.736 85.1866 186.606 85.0974C186.477 85.006 186.316 84.9603 186.123 84.9603C185.956 84.9603 185.815 84.9943 185.695 85.0623C185.578 85.1303 185.483 85.2216 185.409 85.3363C185.332 85.4532 185.276 85.588 185.24 85.7409C185.203 85.8917 185.186 86.0511 185.186 86.2189V86.2857ZM191.488 88.4522H188.566V87.9712H191.488V88.4522ZM192.542 89.2965V84.5239H193.081L193.109 84.8999C193.156 84.8403 193.207 84.7872 193.262 84.7405C193.317 84.6916 193.377 84.6503 193.44 84.6163C193.53 84.5653 193.629 84.5271 193.737 84.5016C193.847 84.474 193.966 84.4602 194.091 84.4602C194.312 84.4602 194.507 84.5037 194.677 84.5907C194.847 84.6778 194.989 84.799 195.103 84.954C195.218 85.109 195.306 85.2949 195.365 85.5116C195.424 85.7261 195.454 85.9618 195.454 86.2189V86.2857C195.454 86.5321 195.424 86.7626 195.365 86.9772C195.306 87.1896 195.218 87.3743 195.103 87.5315C194.989 87.6886 194.847 87.8119 194.677 87.9011C194.509 87.9903 194.317 88.0349 194.1 88.0349C193.968 88.0349 193.845 88.0211 193.73 87.9935C193.618 87.9659 193.516 87.9266 193.424 87.8756C193.369 87.8438 193.317 87.8087 193.268 87.7705C193.22 87.7301 193.174 87.6866 193.131 87.6398V89.2965H192.542ZM194.864 86.2189C194.864 86.0511 194.846 85.8917 194.807 85.7409C194.771 85.588 194.715 85.4532 194.639 85.3363C194.56 85.2216 194.461 85.1303 194.343 85.0623C194.223 84.9943 194.081 84.9603 193.915 84.9603C193.824 84.9603 193.739 84.971 193.66 84.9922C193.584 85.0135 193.515 85.0443 193.453 85.0846C193.385 85.125 193.324 85.1749 193.272 85.2344C193.219 85.2938 193.172 85.3596 193.131 85.4319V87.0919C193.168 87.1555 193.209 87.2151 193.256 87.2702C193.303 87.3255 193.355 87.3722 193.415 87.4104C193.483 87.455 193.559 87.4901 193.642 87.5156C193.727 87.5411 193.82 87.5538 193.922 87.5538C194.085 87.5538 194.226 87.5198 194.345 87.4519C194.464 87.3818 194.562 87.2883 194.639 87.1715C194.715 87.0546 194.771 86.9197 194.807 86.7669C194.846 86.6139 194.864 86.4535 194.864 86.2857V86.2189ZM198.729 87.9712C198.706 87.9266 198.687 87.8713 198.673 87.8055C198.659 87.7376 198.65 87.6675 198.644 87.5952C198.584 87.6547 198.517 87.711 198.443 87.7641C198.37 87.8172 198.291 87.8639 198.204 87.9042C198.114 87.9447 198.02 87.9765 197.92 87.9998C197.82 88.0233 197.714 88.0349 197.602 88.0349C197.419 88.0349 197.253 88.0083 197.104 87.9552C196.958 87.9021 196.834 87.83 196.732 87.7386C196.628 87.6494 196.547 87.5432 196.489 87.42C196.434 87.2947 196.406 87.1598 196.406 87.0153C196.406 86.8263 196.444 86.6606 196.518 86.5183C196.595 86.3761 196.702 86.2571 196.84 86.1615C196.978 86.0681 197.144 85.998 197.337 85.9512C197.533 85.9045 197.75 85.8811 197.99 85.8811H198.634V85.6103C198.634 85.5063 198.615 85.4127 198.576 85.33C198.538 85.2471 198.484 85.176 198.414 85.1165C198.344 85.0591 198.258 85.0145 198.156 84.9827C198.057 84.9508 197.944 84.9349 197.819 84.9349C197.702 84.9349 197.596 84.9497 197.503 84.9795C197.412 85.0093 197.334 85.0486 197.271 85.0974C197.206 85.1462 197.157 85.2046 197.12 85.2726C197.087 85.3385 197.07 85.4074 197.07 85.4797H196.477C196.479 85.3544 196.511 85.2312 196.572 85.1101C196.636 84.989 196.727 84.8796 196.847 84.782C196.964 84.6863 197.105 84.6088 197.273 84.5494C197.443 84.4898 197.636 84.4602 197.85 84.4602C198.045 84.4602 198.227 84.4846 198.395 84.5334C198.562 84.5802 198.708 84.6513 198.831 84.7469C198.953 84.8446 199.048 84.9657 199.118 85.1101C199.189 85.2545 199.223 85.4234 199.223 85.6167V87.2193C199.223 87.334 199.233 87.4562 199.255 87.5857C199.276 87.7131 199.306 87.8246 199.345 87.9202V87.9712H198.729ZM197.688 87.5219C197.803 87.5219 197.91 87.5071 198.009 87.4773C198.109 87.4476 198.2 87.4083 198.283 87.3595C198.365 87.3106 198.435 87.2554 198.493 87.1938C198.553 87.13 198.6 87.0642 198.634 86.9963V86.2985H198.085C197.882 86.2985 197.704 86.3165 197.551 86.3526C197.399 86.3866 197.28 86.4397 197.19 86.512C197.127 86.5629 197.078 86.6235 197.044 86.6936C197.012 86.7637 196.996 86.8433 196.996 86.9325C196.996 87.0175 197.01 87.0961 197.037 87.1683C197.067 87.2405 197.111 87.3021 197.168 87.3531C197.226 87.4062 197.298 87.4476 197.385 87.4773C197.472 87.5071 197.573 87.5219 197.688 87.5219ZM200.275 86.2189C200.275 85.9618 200.306 85.7261 200.368 85.5116C200.431 85.2949 200.522 85.109 200.641 84.954C200.76 84.799 200.904 84.6778 201.074 84.5907C201.244 84.5037 201.436 84.4602 201.651 84.4602C201.789 84.4602 201.915 84.4761 202.03 84.508C202.147 84.5398 202.252 84.5865 202.345 84.6481C202.397 84.68 202.444 84.7171 202.489 84.7597C202.536 84.8021 202.58 84.8488 202.62 84.8999L202.649 84.5239H203.183V87.8979C203.183 88.1252 203.147 88.327 203.075 88.5033C203.005 88.6795 202.906 88.8293 202.779 88.9525C202.65 89.0757 202.496 89.1691 202.317 89.2329C202.138 89.2965 201.941 89.3285 201.725 89.3285C201.635 89.3285 201.533 89.3178 201.418 89.2965C201.304 89.2775 201.188 89.2446 201.071 89.1978C200.952 89.1532 200.838 89.0927 200.727 89.0162C200.619 88.9397 200.525 88.8453 200.447 88.7326L200.753 88.379C200.825 88.466 200.9 88.5394 200.975 88.5989C201.052 88.6605 201.129 88.7093 201.208 88.7454C201.287 88.7815 201.365 88.807 201.444 88.8218C201.522 88.8388 201.601 88.8473 201.68 88.8473C201.82 88.8473 201.946 88.8272 202.059 88.7868C202.172 88.7464 202.268 88.687 202.349 88.6084C202.427 88.5319 202.488 88.4364 202.53 88.3217C202.573 88.2069 202.595 88.0752 202.595 87.9266V87.6303C202.55 87.6813 202.502 87.7279 202.451 87.7705C202.402 87.813 202.349 87.8501 202.291 87.8819C202.202 87.9309 202.104 87.968 201.995 87.9935C201.887 88.0211 201.77 88.0349 201.644 88.0349C201.434 88.0349 201.244 87.9903 201.074 87.9011C200.904 87.8119 200.761 87.6886 200.644 87.5315C200.525 87.3743 200.434 87.1896 200.37 86.9772C200.307 86.7626 200.275 86.5321 200.275 86.2857V86.2189ZM200.864 86.2857C200.864 86.4535 200.881 86.6129 200.915 86.7637C200.951 86.9144 201.008 87.0472 201.084 87.162C201.158 87.2767 201.254 87.3679 201.371 87.4359C201.488 87.5018 201.628 87.5347 201.791 87.5347C201.894 87.5347 201.984 87.523 202.065 87.4996C202.148 87.4742 202.222 87.4391 202.288 87.3945C202.352 87.3499 202.41 87.2968 202.46 87.2352C202.511 87.1736 202.556 87.1057 202.595 87.0313V85.451C202.556 85.3788 202.511 85.313 202.46 85.2535C202.41 85.194 202.351 85.142 202.285 85.0974C202.219 85.0549 202.146 85.0219 202.065 84.9986C201.984 84.9731 201.895 84.9603 201.797 84.9603C201.632 84.9603 201.489 84.9943 201.371 85.0623C201.254 85.1303 201.158 85.2216 201.084 85.3363C201.008 85.4532 200.951 85.588 200.915 85.7409C200.881 85.8917 200.864 86.0511 200.864 86.2189V86.2857ZM205.825 88.0349C205.582 88.0349 205.36 87.9935 205.156 87.9106C204.954 87.8278 204.78 87.7121 204.637 87.5634C204.492 87.4147 204.379 87.2384 204.299 87.0345C204.218 86.8306 204.177 86.6086 204.177 86.3686V86.2348C204.177 85.9565 204.222 85.7081 204.311 85.4893C204.401 85.2684 204.519 85.0814 204.668 84.9285C204.815 84.7777 204.981 84.662 205.169 84.5812C205.357 84.5005 205.55 84.4602 205.748 84.4602C205.997 84.4602 206.213 84.5037 206.398 84.5907C206.586 84.6758 206.74 84.7936 206.864 84.9444C206.987 85.0974 207.078 85.2768 207.137 85.4828C207.199 85.6889 207.23 85.9119 207.23 86.152V86.4164H204.767V86.4387C204.782 86.6065 204.815 86.7541 204.865 86.8816C204.919 87.009 204.991 87.1215 205.083 87.2193C205.176 87.3233 205.288 87.4051 205.42 87.4646C205.551 87.5241 205.697 87.5538 205.857 87.5538C206.067 87.5538 206.254 87.5113 206.418 87.4264C206.581 87.3414 206.717 87.2289 206.825 87.0887L207.185 87.369C207.071 87.5432 206.898 87.6983 206.669 87.8342C206.442 87.968 206.16 88.0349 205.825 88.0349ZM205.748 84.9444C205.63 84.9444 205.517 84.9667 205.41 85.0113C205.304 85.0538 205.209 85.1165 205.124 85.1993C205.039 85.2843 204.967 85.3884 204.907 85.5116C204.849 85.6326 204.809 85.7728 204.786 85.9321H206.641V85.9034C206.641 85.7972 206.62 85.6836 206.58 85.5626C206.54 85.4393 206.483 85.3331 206.411 85.2439C206.339 85.1547 206.248 85.0825 206.137 85.0273C206.028 84.972 205.9 84.9444 205.748 84.9444Z" fill="#526373"/>
<path d="M173.283 101.022L172.55 97.5746H173.073L173.474 99.7727L173.544 100.267L173.63 99.7727L174.182 97.5746H174.561L175.109 99.7727L175.201 100.315L175.287 99.7727L175.669 97.5746H176.192L175.459 101.022H174.994L174.455 98.9093L174.366 98.3745L174.28 98.9093L173.748 101.022H173.283ZM179.136 101.022C179.113 100.978 179.093 100.923 179.078 100.856C179.066 100.788 179.056 100.718 179.05 100.646C178.99 100.705 178.923 100.762 178.848 100.815C178.777 100.868 178.697 100.915 178.61 100.955C178.521 100.995 178.427 101.027 178.327 101.05C178.227 101.074 178.12 101.086 178.008 101.086C177.826 101.086 177.659 101.059 177.511 101.006C177.364 100.953 177.24 100.881 177.138 100.789C177.034 100.7 176.953 100.594 176.896 100.471C176.841 100.346 176.813 100.21 176.813 100.066C176.813 99.8772 176.85 99.7111 176.925 99.5692C177.001 99.4264 177.109 99.3078 177.246 99.2126C177.384 99.1193 177.55 99.0484 177.743 99.0017C177.938 98.955 178.157 98.9317 178.397 98.9317H179.04V98.661C179.04 98.5574 179.021 98.4632 178.983 98.381C178.945 98.2979 178.89 98.227 178.82 98.1673C178.75 98.1103 178.665 98.0655 178.562 98.0338C178.462 98.0011 178.35 97.9853 178.224 97.9853C178.107 97.9853 178.003 98.0002 177.909 98.0301C177.818 98.0599 177.741 98.0991 177.676 98.1486C177.613 98.1971 177.563 98.255 177.527 98.3232C177.492 98.3894 177.475 98.4585 177.475 98.5304H176.883C176.886 98.4053 176.917 98.2821 176.979 98.1607C177.042 98.0394 177.134 97.9302 177.252 97.8331C177.369 97.737 177.512 97.6595 177.68 97.5998C177.85 97.541 178.042 97.5111 178.257 97.5111C178.452 97.5111 178.634 97.5354 178.801 97.5839C178.969 97.6306 179.114 97.7025 179.238 97.7977C179.359 97.8957 179.454 98.0161 179.524 98.1607C179.594 98.3054 179.63 98.4744 179.63 98.6676V100.27C179.63 100.385 179.64 100.507 179.661 100.636C179.683 100.764 179.713 100.876 179.751 100.971V101.022H179.136ZM178.093 100.573C178.208 100.573 178.316 100.558 178.415 100.528C178.515 100.499 178.607 100.459 178.69 100.41C178.77 100.362 178.84 100.307 178.9 100.245C178.96 100.181 179.006 100.115 179.04 100.047V99.3489H178.492C178.288 99.3489 178.11 99.3676 177.957 99.403C177.806 99.4376 177.686 99.4908 177.597 99.5626C177.533 99.614 177.484 99.6747 177.45 99.7447C177.419 99.8147 177.403 99.894 177.403 99.9836C177.403 100.069 177.417 100.147 177.444 100.219C177.474 100.292 177.517 100.353 177.574 100.404C177.632 100.457 177.704 100.499 177.791 100.528C177.878 100.558 177.98 100.573 178.093 100.573ZM180.881 97.5746H182.644V100.512H183.768V101.022H180.881V100.512H182.055V98.0879H180.881V97.5746ZM181.978 96.6702C181.978 96.6188 181.985 96.571 181.999 96.5264C182.017 96.4818 182.042 96.4436 182.076 96.4117C182.104 96.3842 182.139 96.3629 182.181 96.3481C182.226 96.3311 182.276 96.3226 182.331 96.3226C182.387 96.3226 182.435 96.3311 182.478 96.3481C182.52 96.3629 182.556 96.3842 182.583 96.4117C182.617 96.4415 182.643 96.4786 182.659 96.5233C182.676 96.5679 182.685 96.6167 182.685 96.6702C182.685 96.7654 182.656 96.8447 182.596 96.9091C182.536 96.9726 182.448 97.0043 182.331 97.0043C182.212 97.0043 182.123 96.9726 182.064 96.9091C182.006 96.8447 181.978 96.7654 181.978 96.6702ZM186.103 96.7402V97.5746H187.416V98.0301H186.103V99.9033C186.103 100.038 186.12 100.148 186.155 100.235C186.188 100.322 186.235 100.391 186.295 100.442C186.355 100.495 186.422 100.532 186.498 100.554C186.578 100.574 186.66 100.586 186.747 100.586C186.811 100.586 186.876 100.582 186.944 100.576C187.013 100.568 187.08 100.558 187.145 100.547C187.209 100.537 187.268 100.526 187.323 100.516C187.381 100.503 187.428 100.492 187.464 100.484L187.546 100.901C187.498 100.931 187.438 100.957 187.368 100.98C187.298 101.002 187.222 101.02 187.139 101.035C187.056 101.051 186.968 101.064 186.874 101.073C186.783 101.081 186.691 101.086 186.601 101.086C186.448 101.086 186.304 101.064 186.171 101.022C186.039 100.978 185.924 100.908 185.826 100.811C185.728 100.718 185.651 100.597 185.594 100.448C185.539 100.298 185.511 100.116 185.511 99.9033V98.0301H184.606V97.5746H185.511V96.7402H186.103ZM191.488 101.503H188.567V101.022H191.488V101.503ZM193.135 98.0879C193.182 98.0179 193.234 97.9535 193.291 97.8966C193.348 97.8369 193.409 97.7846 193.473 97.7407C193.575 97.6661 193.686 97.6101 193.807 97.5718C193.931 97.5335 194.061 97.513 194.199 97.5111C194.38 97.5111 194.544 97.5373 194.69 97.5905C194.839 97.6418 194.965 97.7221 195.069 97.8331C195.173 97.9433 195.253 98.0833 195.308 98.2531C195.365 98.4212 195.394 98.6209 195.394 98.8524V101.022H194.804V98.8458C194.804 98.7096 194.788 98.591 194.757 98.4893C194.725 98.3848 194.678 98.2989 194.617 98.2308C194.551 98.157 194.468 98.101 194.368 98.0655C194.268 98.0273 194.154 98.0086 194.024 98.0114C193.918 98.0114 193.817 98.0263 193.722 98.0562C193.625 98.0851 193.538 98.1281 193.457 98.1831C193.393 98.2261 193.334 98.2756 193.278 98.3334C193.226 98.3885 193.177 98.4501 193.135 98.5173V101.022H192.546V96.1282H193.135V98.0879ZM196.557 97.5746H198.319V100.512H199.444V101.022H196.557V100.512H197.729V98.0879H196.557V97.5746ZM197.653 96.6702C197.653 96.6188 197.66 96.571 197.675 96.5264C197.692 96.4818 197.718 96.4436 197.752 96.4117C197.78 96.3842 197.814 96.3629 197.857 96.3481C197.901 96.3311 197.952 96.3226 198.007 96.3226C198.062 96.3226 198.111 96.3311 198.153 96.3481C198.196 96.3629 198.231 96.3842 198.259 96.4117C198.292 96.4415 198.317 96.4786 198.335 96.5233C198.352 96.5679 198.36 96.6167 198.36 96.6702C198.36 96.7654 198.33 96.8447 198.271 96.9091C198.212 96.9726 198.123 97.0043 198.007 97.0043C197.888 97.0043 197.798 96.9726 197.739 96.9091C197.682 96.8447 197.653 96.7654 197.653 96.6702ZM200.272 99.2696C200.272 99.0129 200.304 98.7768 200.368 98.5621C200.433 98.3456 200.527 98.1598 200.648 98.0049C200.767 97.8499 200.911 97.7286 201.081 97.6418C201.251 97.5541 201.441 97.5111 201.651 97.5111C201.858 97.5111 202.037 97.5457 202.19 97.6157C202.345 97.6838 202.479 97.7837 202.591 97.9153V96.1282H203.181V101.022H202.639L202.614 100.658C202.499 100.799 202.362 100.905 202.203 100.978C202.043 101.049 201.858 101.086 201.645 101.086C201.437 101.086 201.248 101.041 201.078 100.951C200.91 100.863 200.767 100.74 200.648 100.582C200.529 100.425 200.436 100.24 200.371 100.028C200.305 99.8137 200.272 99.5832 200.272 99.3368V99.2696ZM200.862 99.3368C200.862 99.5048 200.879 99.6635 200.916 99.8147C200.951 99.9649 201.008 100.098 201.085 100.212C201.159 100.327 201.255 100.419 201.371 100.487C201.488 100.553 201.628 100.586 201.791 100.586C201.989 100.586 202.153 100.541 202.282 100.452C202.412 100.363 202.515 100.242 202.591 100.092V98.4921C202.515 98.3521 202.412 98.2373 202.282 98.1486C202.153 98.0571 201.991 98.0114 201.798 98.0114C201.633 98.0114 201.49 98.045 201.371 98.1131C201.255 98.1813 201.159 98.2728 201.085 98.3876C201.008 98.5042 200.951 98.6386 200.916 98.7917C200.879 98.9429 200.862 99.1016 200.862 99.2696V99.3368ZM204.191 99.2696C204.191 99.0129 204.223 98.7768 204.286 98.5621C204.352 98.3456 204.446 98.1598 204.567 98.0049C204.686 97.8499 204.83 97.7286 205 97.6418C205.17 97.5541 205.361 97.5111 205.571 97.5111C205.777 97.5111 205.956 97.5457 206.109 97.6157C206.264 97.6838 206.397 97.7837 206.51 97.9153V96.1282H207.099V101.022H206.558L206.533 100.658C206.418 100.799 206.281 100.905 206.121 100.978C205.963 101.049 205.777 101.086 205.564 101.086C205.356 101.086 205.166 101.041 204.997 100.951C204.829 100.863 204.686 100.74 204.567 100.582C204.448 100.425 204.355 100.24 204.29 100.028C204.224 99.8137 204.191 99.5832 204.191 99.3368V99.2696ZM204.78 99.3368C204.78 99.5048 204.799 99.6635 204.834 99.8147C204.87 99.9649 204.927 100.098 205.003 100.212C205.078 100.327 205.173 100.419 205.29 100.487C205.407 100.553 205.547 100.586 205.711 100.586C205.908 100.586 206.072 100.541 206.201 100.452C206.331 100.363 206.434 100.242 206.51 100.092V98.4921C206.434 98.3521 206.331 98.2373 206.201 98.1486C206.072 98.0571 205.91 98.0114 205.717 98.0114C205.551 98.0114 205.409 98.045 205.29 98.1131C205.173 98.1813 205.078 98.2728 205.003 98.3876C204.927 98.5042 204.87 98.6386 204.834 98.7917C204.799 98.9429 204.78 99.1016 204.78 99.2696V99.3368ZM209.744 101.086C209.502 101.086 209.279 101.044 209.075 100.962C208.874 100.879 208.7 100.763 208.555 100.615C208.412 100.465 208.299 100.289 208.218 100.085C208.137 99.8809 208.097 99.6597 208.097 99.4198V99.2854C208.097 99.0073 208.142 98.759 208.231 98.5397C208.32 98.3194 208.439 98.1318 208.587 97.9797C208.734 97.8285 208.901 97.7127 209.087 97.6325C209.277 97.5513 209.47 97.5111 209.668 97.5111C209.916 97.5111 210.133 97.5541 210.318 97.6418C210.504 97.7267 210.659 97.8443 210.782 97.9955C210.906 98.1486 210.997 98.3278 211.057 98.5341C211.118 98.7394 211.149 98.9625 211.149 99.2024V99.4674H208.686V99.4899C208.701 99.6569 208.734 99.8053 208.785 99.9323C208.838 100.06 208.91 100.172 209.002 100.27C209.095 100.374 209.208 100.456 209.339 100.516C209.471 100.574 209.617 100.604 209.776 100.604C209.986 100.604 210.173 100.562 210.336 100.477C210.501 100.392 210.636 100.279 210.744 100.139L211.104 100.419C210.99 100.594 210.818 100.749 210.588 100.885C210.361 101.019 210.08 101.086 209.744 101.086ZM209.668 97.9955C209.548 97.9955 209.436 98.0179 209.33 98.0618C209.224 98.1047 209.128 98.1673 209.044 98.2503C208.959 98.3353 208.886 98.4389 208.826 98.5621C208.769 98.6834 208.729 98.8234 208.706 98.983H210.559V98.9541C210.559 98.8477 210.54 98.7348 210.5 98.6134C210.459 98.4902 210.403 98.3838 210.331 98.2952C210.258 98.2056 210.166 98.1337 210.056 98.0777C209.948 98.0226 209.818 97.9955 209.668 97.9955ZM212.14 101.022V97.5746H212.669L212.711 98.0842C212.761 98.0123 212.816 97.9461 212.876 97.8873C212.938 97.8257 213.002 97.7725 213.07 97.7277C213.173 97.6595 213.283 97.6073 213.401 97.5718C213.523 97.5335 213.651 97.513 213.784 97.5111C213.964 97.5111 214.128 97.5363 214.275 97.5877C214.423 97.6381 214.549 97.7183 214.654 97.8266C214.758 97.9349 214.838 98.073 214.893 98.241C214.95 98.4062 214.979 98.6041 214.979 98.8328V101.022H214.389V98.8458C214.389 98.6928 214.372 98.563 214.338 98.4576C214.304 98.3512 214.254 98.2653 214.188 98.199C214.121 98.1337 214.038 98.0851 213.94 98.0562C213.845 98.0263 213.734 98.0114 213.609 98.0114C213.5 98.0114 213.4 98.0273 213.306 98.059C213.213 98.0889 213.127 98.1299 213.048 98.1831C212.984 98.2298 212.924 98.2839 212.869 98.3455C212.816 98.4071 212.77 98.4753 212.729 98.55V101.022H212.14Z" fill="#526373"/>
<path d="M174.346 109.789V110.625H175.659V111.08H174.346V112.953C174.346 113.087 174.363 113.198 174.398 113.285C174.431 113.372 174.478 113.441 174.538 113.492C174.597 113.545 174.665 113.582 174.741 113.603C174.82 113.624 174.903 113.635 174.99 113.635C175.054 113.635 175.12 113.632 175.187 113.625C175.255 113.617 175.323 113.608 175.388 113.596C175.452 113.586 175.511 113.576 175.567 113.565C175.624 113.553 175.671 113.541 175.707 113.533L175.789 113.95C175.741 113.98 175.681 114.007 175.611 114.031C175.541 114.051 175.464 114.07 175.382 114.085C175.299 114.101 175.211 114.114 175.117 114.123C175.026 114.131 174.935 114.135 174.844 114.135C174.691 114.135 174.547 114.114 174.413 114.072C174.282 114.027 174.167 113.957 174.069 113.862C173.972 113.768 173.894 113.647 173.837 113.498C173.782 113.347 173.754 113.165 173.754 112.953V111.08H172.849V110.625H173.754V109.789H174.346ZM179.135 114.072C179.112 114.027 179.092 113.972 179.077 113.905C179.065 113.838 179.055 113.768 179.049 113.695C178.99 113.755 178.922 113.811 178.848 113.864C178.776 113.918 178.697 113.964 178.609 114.004C178.52 114.045 178.426 114.077 178.326 114.101C178.226 114.124 178.12 114.135 178.007 114.135C177.825 114.135 177.659 114.109 177.51 114.056C177.364 114.003 177.24 113.931 177.137 113.839C177.033 113.75 176.952 113.643 176.895 113.52C176.84 113.395 176.812 113.26 176.812 113.116C176.812 112.926 176.849 112.761 176.924 112.618C177.001 112.476 177.108 112.357 177.245 112.262C177.383 112.168 177.55 112.098 177.743 112.052C177.938 112.005 178.156 111.982 178.396 111.982H179.039V111.711C179.039 111.607 179.02 111.513 178.982 111.43C178.944 111.347 178.89 111.276 178.82 111.216C178.75 111.159 178.664 111.115 178.561 111.083C178.461 111.051 178.349 111.035 178.223 111.035C178.107 111.035 178.002 111.05 177.908 111.08C177.817 111.11 177.74 111.149 177.676 111.198C177.612 111.246 177.563 111.305 177.526 111.373C177.492 111.439 177.475 111.508 177.475 111.58H176.882C176.885 111.454 176.917 111.331 176.978 111.211C177.042 111.089 177.133 110.98 177.252 110.882C177.368 110.787 177.511 110.71 177.679 110.65C177.849 110.59 178.041 110.56 178.256 110.56C178.451 110.56 178.633 110.585 178.8 110.634C178.968 110.681 179.114 110.752 179.237 110.847C179.358 110.945 179.454 111.066 179.524 111.211C179.594 111.355 179.629 111.524 179.629 111.717V113.319C179.629 113.434 179.639 113.556 179.661 113.686C179.682 113.813 179.712 113.925 179.75 114.02V114.072H179.135ZM178.093 113.623C178.208 113.623 178.315 113.608 178.415 113.578C178.515 113.548 178.606 113.509 178.689 113.46C178.769 113.411 178.839 113.356 178.899 113.294C178.959 113.231 179.006 113.164 179.039 113.096V112.399H178.491C178.288 112.399 178.11 112.417 177.956 112.453C177.805 112.487 177.686 112.54 177.596 112.613C177.533 112.663 177.483 112.724 177.45 112.794C177.418 112.864 177.402 112.944 177.402 113.033C177.402 113.118 177.416 113.196 177.443 113.269C177.473 113.341 177.517 113.402 177.574 113.454C177.632 113.507 177.704 113.548 177.79 113.578C177.877 113.608 177.979 113.623 178.093 113.623ZM180.68 112.32C180.68 112.062 180.711 111.827 180.772 111.612C180.837 111.396 180.927 111.209 181.047 111.054C181.165 110.899 181.31 110.779 181.48 110.691C181.65 110.604 181.842 110.56 182.057 110.56C182.195 110.56 182.321 110.576 182.436 110.608C182.552 110.641 182.658 110.687 182.751 110.749C182.802 110.781 182.85 110.818 182.895 110.86C182.942 110.903 182.984 110.949 183.026 111L183.054 110.625H183.589V113.998C183.589 114.226 183.553 114.427 183.481 114.604C183.411 114.78 183.312 114.929 183.184 115.053C183.054 115.176 182.901 115.269 182.722 115.333C182.544 115.397 182.347 115.429 182.129 115.429C182.041 115.429 181.939 115.418 181.824 115.397C181.709 115.378 181.594 115.345 181.477 115.298C181.358 115.253 181.243 115.193 181.133 115.117C181.024 115.04 180.931 114.945 180.853 114.833L181.158 114.479C181.231 114.566 181.304 114.64 181.381 114.699C181.457 114.76 181.535 114.81 181.613 114.845C181.693 114.882 181.771 114.907 181.849 114.922C181.928 114.94 182.006 114.948 182.086 114.948C182.226 114.948 182.352 114.927 182.465 114.887C182.577 114.847 182.674 114.787 182.754 114.709C182.833 114.633 182.894 114.536 182.936 114.422C182.979 114.308 182.999 114.175 182.999 114.027V113.731C182.956 113.781 182.907 113.828 182.857 113.871C182.807 113.913 182.754 113.95 182.697 113.982C182.607 114.031 182.509 114.069 182.401 114.094C182.293 114.121 182.175 114.135 182.05 114.135C181.84 114.135 181.65 114.09 181.48 114.002C181.31 113.912 181.166 113.789 181.05 113.632C180.931 113.475 180.84 113.29 180.776 113.078C180.712 112.863 180.68 112.632 180.68 112.386V112.32ZM181.27 112.386C181.27 112.554 181.287 112.714 181.32 112.864C181.357 113.015 181.413 113.148 181.489 113.262C181.564 113.377 181.659 113.469 181.777 113.536C181.893 113.602 182.033 113.635 182.197 113.635C182.298 113.635 182.39 113.624 182.471 113.6C182.553 113.574 182.628 113.54 182.694 113.495C182.758 113.45 182.815 113.397 182.866 113.335C182.917 113.274 182.961 113.206 182.999 113.132V111.552C182.961 111.479 182.917 111.413 182.866 111.354C182.815 111.295 182.757 111.243 182.69 111.198C182.625 111.155 182.551 111.122 182.471 111.099C182.39 111.074 182.301 111.061 182.203 111.061C182.037 111.061 181.895 111.095 181.777 111.162C181.659 111.23 181.564 111.322 181.489 111.437C181.413 111.553 181.357 111.689 181.32 111.841C181.287 111.992 181.27 112.152 181.27 112.32V112.386ZM187.568 114.552H184.647V114.072H187.568V114.552ZM189.802 114.072L188.384 110.625H188.99L189.977 113.224L190.031 113.438L190.088 113.224L191.054 110.625H191.656L190.252 114.072H189.802ZM192.637 110.625H194.399V113.562H195.524V114.072H192.637V113.562H193.81V111.137H192.637V110.625ZM193.734 109.719C193.734 109.668 193.74 109.62 193.755 109.576C193.773 109.532 193.798 109.493 193.832 109.462C193.86 109.434 193.894 109.412 193.937 109.397C193.982 109.381 194.032 109.372 194.087 109.372C194.143 109.372 194.191 109.381 194.233 109.397C194.276 109.412 194.312 109.434 194.339 109.462C194.373 109.491 194.399 109.528 194.415 109.573C194.432 109.618 194.44 109.666 194.44 109.719C194.44 109.815 194.411 109.895 194.352 109.958C194.292 110.022 194.204 110.054 194.087 110.054C193.968 110.054 193.879 110.022 193.82 109.958C193.762 109.895 193.734 109.815 193.734 109.719ZM196.352 112.32C196.352 112.062 196.385 111.827 196.448 111.612C196.513 111.396 196.608 111.209 196.728 111.054C196.848 110.899 196.991 110.779 197.161 110.691C197.332 110.604 197.522 110.56 197.732 110.56C197.938 110.56 198.118 110.596 198.27 110.666C198.426 110.734 198.559 110.834 198.672 110.965V109.178H199.261V114.072H198.72L198.694 113.709C198.58 113.849 198.443 113.955 198.283 114.027C198.124 114.1 197.938 114.135 197.726 114.135C197.518 114.135 197.328 114.09 197.158 114.002C196.99 113.912 196.848 113.789 196.728 113.632C196.61 113.475 196.517 113.29 196.451 113.078C196.386 112.863 196.352 112.632 196.352 112.386V112.32ZM196.942 112.386C196.942 112.554 196.96 112.714 196.996 112.864C197.032 113.015 197.088 113.148 197.165 113.262C197.24 113.377 197.335 113.469 197.452 113.536C197.568 113.602 197.708 113.635 197.872 113.635C198.069 113.635 198.234 113.591 198.362 113.501C198.492 113.412 198.596 113.292 198.672 113.141V111.542C198.596 111.401 198.492 111.287 198.362 111.198C198.234 111.106 198.072 111.061 197.879 111.061C197.713 111.061 197.571 111.095 197.452 111.162C197.335 111.23 197.24 111.322 197.165 111.437C197.088 111.553 197.032 111.689 196.996 111.841C196.96 111.992 196.942 112.152 196.942 112.32V112.386ZM201.905 114.135C201.664 114.135 201.441 114.094 201.236 114.011C201.035 113.928 200.862 113.812 200.717 113.664C200.573 113.515 200.461 113.339 200.379 113.134C200.299 112.931 200.258 112.709 200.258 112.469V112.336C200.258 112.056 200.303 111.808 200.393 111.59C200.481 111.369 200.601 111.182 200.749 111.029C200.896 110.878 201.063 110.762 201.249 110.682C201.439 110.6 201.632 110.56 201.829 110.56C202.078 110.56 202.295 110.604 202.48 110.691C202.666 110.776 202.821 110.894 202.944 111.045C203.068 111.198 203.159 111.377 203.219 111.583C203.28 111.79 203.311 112.013 203.311 112.252V112.517H200.848V112.539C200.863 112.707 200.896 112.854 200.947 112.982C201 113.109 201.072 113.222 201.163 113.319C201.257 113.424 201.37 113.506 201.501 113.565C201.633 113.624 201.779 113.654 201.937 113.654C202.148 113.654 202.335 113.611 202.498 113.526C202.662 113.442 202.798 113.33 202.906 113.189L203.266 113.47C203.152 113.643 202.98 113.799 202.75 113.934C202.522 114.069 202.242 114.135 201.905 114.135ZM201.829 111.045C201.71 111.045 201.597 111.067 201.491 111.112C201.386 111.154 201.289 111.216 201.205 111.3C201.12 111.384 201.048 111.489 200.988 111.612C200.931 111.733 200.89 111.874 200.867 112.032H202.721V112.004C202.721 111.898 202.701 111.784 202.661 111.663C202.62 111.539 202.564 111.434 202.492 111.344C202.42 111.255 202.328 111.183 202.218 111.128C202.11 111.073 201.98 111.045 201.829 111.045ZM204.136 112.316C204.136 112.068 204.172 111.837 204.244 111.624C204.316 111.411 204.421 111.224 204.556 111.067C204.691 110.91 204.854 110.787 205.047 110.697C205.24 110.606 205.458 110.56 205.701 110.56C205.944 110.56 206.163 110.606 206.357 110.697C206.552 110.787 206.718 110.91 206.853 111.067C206.988 111.224 207.09 111.411 207.163 111.624C207.235 111.837 207.271 112.068 207.271 112.316V112.386C207.271 112.634 207.235 112.865 207.163 113.078C207.09 113.29 206.988 113.475 206.853 113.632C206.718 113.789 206.553 113.912 206.359 114.002C206.166 114.09 205.949 114.135 205.707 114.135C205.463 114.135 205.242 114.09 205.047 114.002C204.854 113.912 204.691 113.789 204.556 113.632C204.421 113.475 204.316 113.29 204.244 113.078C204.172 112.865 204.136 112.634 204.136 112.386V112.316ZM204.725 112.386C204.725 112.556 204.746 112.718 204.786 112.873C204.826 113.026 204.888 113.162 204.971 113.278C205.052 113.395 205.154 113.487 205.277 113.555C205.4 113.624 205.543 113.657 205.707 113.657C205.869 113.657 206.009 113.624 206.131 113.555C206.254 113.487 206.357 113.395 206.44 113.278C206.52 113.162 206.581 113.026 206.621 112.873C206.662 112.718 206.681 112.556 206.681 112.386V112.316C206.681 112.148 206.66 111.988 206.618 111.835C206.578 111.68 206.517 111.544 206.436 111.427C206.354 111.311 206.25 111.218 206.127 111.15C206.006 111.08 205.864 111.045 205.701 111.045C205.537 111.045 205.394 111.08 205.273 111.15C205.153 111.218 205.052 111.311 204.971 111.427C204.888 111.544 204.826 111.68 204.786 111.835C204.746 111.988 204.725 112.148 204.725 112.316V112.386Z" fill="#526373"/>
<path d="M162.755 69.183C162.755 66.3205 165.076 64 167.938 64H238.773C241.635 64 243.956 66.3205 243.956 69.183V80.4128H162.755V69.183Z" fill="#B8C3CF" fill-opacity="0.2"/>
</g>
<defs>
<filter id="filter0_d_6549_15936" x="153.018" y="60.1051" width="98.7273" height="75.5268" filterUnits="userSpaceOnUse" color-interpolation-filters="sRGB">
<feFlood flood-opacity="0" result="BackgroundImageFix"/>
<feColorMatrix in="SourceAlpha" type="matrix" values="0 0 0 0 0 0 0 0 0 0 0 0 0 0 0 0 0 0 127 0" result="hardAlpha"/>
<feOffset dx="-0.973713" dy="4.86857"/>
<feGaussianBlur stdDeviation="4.38171"/>
<feColorMatrix type="matrix" values="0 0 0 0 0.0941177 0 0 0 0 0.188235 0 0 0 0 0.247059 0 0 0 0.1 0"/>
<feBlend mode="normal" in2="BackgroundImageFix" result="effect1_dropShadow_6549_15936"/>
<feBlend mode="normal" in="SourceGraphic" in2="effect1_dropShadow_6549_15936" result="shape"/>
</filter>
<clipPath id="clip0_6549_15936">
<rect width="248" height="154" fill="white"/>
</clipPath>
</defs>
</svg>
