<svg width="96" height="14" viewBox="0 0 96 14" fill="none" xmlns="http://www.w3.org/2000/svg">
<path d="M20.5904 11.0884C20.0378 11.0884 19.5515 10.9816 19.1315 10.7679C18.7115 10.5468 18.3873 10.2374 18.1588 9.83947C17.9304 9.44158 17.8162 8.98474 17.8162 8.46895V5.79421C17.8162 5.27105 17.9304 4.81421 18.1588 4.42368C18.3873 4.02579 18.7115 3.72 19.1315 3.50631C19.5515 3.28526 20.0378 3.17474 20.5904 3.17474C21.1357 3.17474 21.6146 3.28158 22.0273 3.49526C22.4473 3.70895 22.7715 4 22.9999 4.36842C23.2283 4.73684 23.3425 5.15316 23.3425 5.61737V5.70579C23.3425 5.74263 23.3278 5.77579 23.2983 5.80526C23.2762 5.82737 23.2467 5.83842 23.2099 5.83842H22.2041C22.1673 5.83842 22.1341 5.82737 22.1046 5.80526C22.0825 5.77579 22.0715 5.74263 22.0715 5.70579V5.65053C22.0715 5.25263 21.9352 4.92474 21.6625 4.66684C21.3973 4.40895 21.0399 4.28 20.5904 4.28C20.141 4.28 19.7799 4.41631 19.5073 4.68895C19.2346 4.95421 19.0983 5.30789 19.0983 5.75V8.51316C19.0983 8.95526 19.242 9.31263 19.5294 9.58526C19.8167 9.85053 20.1888 9.98316 20.6457 9.98316C21.0878 9.98316 21.4341 9.86895 21.6846 9.64053C21.9425 9.40474 22.0715 9.08421 22.0715 8.67895V7.99368C22.0715 7.95684 22.0531 7.93842 22.0162 7.93842H20.6567C20.6199 7.93842 20.5867 7.92737 20.5573 7.90526C20.5352 7.87579 20.5241 7.84263 20.5241 7.80579V6.98789C20.5241 6.95105 20.5352 6.92158 20.5573 6.89947C20.5867 6.87 20.6199 6.85526 20.6567 6.85526H23.2099C23.2467 6.85526 23.2762 6.87 23.2983 6.89947C23.3278 6.92158 23.3425 6.95105 23.3425 6.98789V8.40263C23.3425 9.25 23.092 9.90947 22.591 10.3811C22.0973 10.8526 21.4304 11.0884 20.5904 11.0884ZM26.2414 9.82842C26.2267 9.84316 26.2193 9.85789 26.2193 9.87263C26.2267 9.88737 26.2414 9.89474 26.2635 9.89474H29.4135C29.4504 9.89474 29.4798 9.90947 29.502 9.93895C29.5314 9.96105 29.5462 9.99053 29.5462 10.0274V10.8674C29.5462 10.9042 29.5314 10.9374 29.502 10.9668C29.4798 10.9889 29.4504 11 29.4135 11H24.6609C24.6241 11 24.5909 10.9889 24.5614 10.9668C24.5393 10.9374 24.5283 10.9042 24.5283 10.8674V10.0716C24.5283 10.0053 24.5504 9.95 24.5946 9.90579C25.1546 9.30895 25.803 8.57579 26.5398 7.70632L27.0593 7.09842C27.7372 6.31 28.0762 5.71316 28.0762 5.30789C28.0762 5.00579 27.9693 4.75895 27.7556 4.56737C27.542 4.37579 27.2656 4.28 26.9267 4.28C26.5877 4.28 26.3114 4.37579 26.0977 4.56737C25.8914 4.75895 25.7883 5.01316 25.7883 5.33V5.61737C25.7883 5.65421 25.7735 5.68737 25.7441 5.71684C25.722 5.73895 25.6925 5.75 25.6556 5.75H24.6277C24.5909 5.75 24.5577 5.73895 24.5283 5.71684C24.5062 5.68737 24.4951 5.65421 24.4951 5.61737V5.1421C24.5098 4.74421 24.6241 4.39789 24.8377 4.10316C25.0514 3.80842 25.3388 3.58 25.6998 3.41789C26.0683 3.25579 26.4772 3.17474 26.9267 3.17474C27.4204 3.17474 27.8514 3.26684 28.2198 3.45105C28.5883 3.63526 28.872 3.88947 29.0709 4.21368C29.2698 4.53053 29.3693 4.88789 29.3693 5.28579C29.3693 5.89 29.0488 6.58632 28.4077 7.37474C28.0541 7.81684 27.472 8.48 26.6614 9.36421L26.2414 9.82842Z" fill="#303B45"/>
<g clip-path="url(#clip0_6531_53438)">
<path d="M6.62212 13.8727C10.2794 13.8727 13.2442 11.0426 13.2442 7.55158C13.2442 4.06053 10.2794 1.23047 6.62212 1.23047C2.96483 1.23047 0 4.06053 0 7.55158C0 11.0426 2.96483 13.8727 6.62212 13.8727Z" fill="#FF492C"/>
<path d="M9.49134 6.07412H8.36028C8.39074 5.90472 8.50067 5.8099 8.72317 5.70244L8.9311 5.6013C9.30327 5.41926 9.50193 5.21319 9.50193 4.8769C9.50193 4.66578 9.41584 4.4989 9.24499 4.3788C9.07414 4.2587 8.87283 4.19928 8.63708 4.19928C8.45471 4.19723 8.27566 4.24601 8.12188 4.33961C7.96693 4.43063 7.8517 4.54821 7.78018 4.69486L8.10731 5.00838C8.23446 4.76312 8.41855 4.64302 8.66092 4.64302C8.86621 4.64302 8.99203 4.74416 8.99203 4.88449C8.99203 5.00206 8.93111 5.09941 8.69536 5.21319L8.56159 5.27513C8.27154 5.41546 8.07023 5.57602 7.95368 5.75807C7.83713 5.94011 7.78018 6.16894 7.78018 6.4458V6.52166H9.49134V6.07412ZM9.34035 7.03746H7.46762L6.53125 8.58487H8.40398L9.34035 10.1335L10.2767 8.58487L9.34035 7.03746Z" fill="white"/>
<path d="M6.69013 9.60995C5.49815 9.60995 4.52734 8.68328 4.52734 7.54548C4.52734 6.40768 5.49815 5.481 6.69013 5.481L7.43048 4.00313C7.18668 3.95684 6.9387 3.93356 6.69013 3.93359C4.60019 3.93359 2.90625 5.55053 2.90625 7.54548C2.90625 9.54042 4.60019 11.1574 6.69013 11.1574C7.49103 11.1588 8.27149 10.9161 8.91781 10.4646L8.09931 9.10932C7.70774 9.43219 7.20757 9.60989 6.69013 9.60995Z" fill="white"/>
</g>
<g clip-path="url(#clip1_6531_53438)">
<path d="M85.4115 6.08531L88.484 5.58865L90.1384 2.83445L90.6622 4.02772L91.4543 4.80173L91.8504 5.58865V10.9938L90.0911 10.0586L87.2077 11.4131L87.5859 8.2977L85.4115 6.08531ZM38.1895 6.1756L41.262 5.67894L42.8691 2.74414L44.3345 5.6338L47.6433 6.1756L45.3271 8.34285L45.7998 11.5034L42.8691 10.1489L39.9384 11.5034L40.3166 8.38799L38.1895 6.1756ZM49.9595 6.1756L53.032 5.67894L54.6392 2.74414L56.1518 5.6338L59.4134 6.1756L57.0972 8.34285L57.6171 11.5034L54.6392 10.1489L51.7557 11.5034L52.1339 8.38799L49.9595 6.1756ZM61.9659 6.1756L65.0384 5.67894L66.6456 2.74414L68.1109 5.6338L71.4198 6.1756L69.1036 8.34285L69.6235 11.5034L66.6456 10.1489L63.7149 11.5034L64.093 8.38799L61.9659 6.1756ZM73.5942 6.1756L76.6667 5.67894L78.2738 2.74414L79.7864 5.6338L83.048 6.1756L80.7318 8.34285L81.2518 11.5034L78.2738 10.1489L75.3904 11.5034L75.7685 8.38799L73.5942 6.1756Z" fill="#FF492C"/>
<path d="M48.5419 5.89881L44.6185 5.35701L42.8696 1.9707L41.1206 5.35701L37.1973 5.89881L40.0334 8.51757L39.3717 12.2651L42.8696 10.5042L46.3675 12.2651L45.7057 8.51757L48.5419 5.89881ZM42.8696 9.69149L40.4116 10.9557L40.8843 8.33697L38.899 6.48578L41.6878 6.07943L42.9168 3.68643L44.1458 6.07943L46.9347 6.48578L44.9494 8.33697L45.4221 10.9557L42.8696 9.69149ZM60.3592 5.89881L56.4359 5.35701L54.6869 1.9707L52.9379 5.35701L49.0146 5.89881L51.8507 8.51757L51.189 12.2651L54.6869 10.5042L58.1848 12.2651L57.5231 8.51757L60.3592 5.89881ZM54.6869 9.69149L52.2289 10.9557L52.7016 8.33697L50.7163 6.48578L53.5052 6.07943L54.7342 3.68643L55.9632 6.07943L58.7521 6.48578L56.7668 8.33697L57.2394 10.9557L54.6869 9.69149ZM72.1765 5.89881L68.2532 5.35701L66.5042 1.9707L64.7553 5.35701L60.8319 5.89881L63.6681 8.51757L63.0063 12.2651L66.5042 10.5042L70.0022 12.2651L69.3404 8.51757L72.1765 5.89881ZM66.5042 9.69149L64.0462 10.9557L64.5189 8.33697L62.5336 6.48578L65.3225 6.07943L66.5515 3.68643L67.7805 6.07943L70.5694 6.48578L68.5841 8.33697L69.0568 10.9557L66.5042 9.69149ZM83.9939 5.89881L80.0705 5.35701L78.3215 1.9707L76.5726 5.35701L72.6492 5.89881L75.4854 8.51757L74.8236 12.2651L78.3215 10.5042L81.8195 12.2651L81.1577 8.51757L83.9939 5.89881ZM78.3215 9.69149L75.8635 10.9557L76.3362 8.33697L74.3509 6.48578L77.1398 6.07943L78.3688 3.68643L79.5978 6.07943L82.3867 6.48578L80.4014 8.33697L80.8741 10.9557L78.3215 9.69149ZM95.8112 5.89881L91.8878 5.35701L90.1389 1.9707L88.3899 5.35701L84.4666 5.89881L87.3027 8.51757L86.6409 12.2651L90.1389 10.5042L93.6368 12.2651L92.975 8.51757L95.8112 5.89881ZM90.1389 9.69149L87.6809 10.9557L88.1536 8.33697L86.1683 6.48578L88.9571 6.07943L90.1861 3.68643L91.4151 6.07943L94.204 6.48578L92.2187 8.33697L92.6914 10.9557L90.1389 9.69149Z" fill="#FF492C"/>
</g>
<defs>
<clipPath id="clip0_6531_53438">
<rect width="13.2442" height="12.6422" fill="white" transform="translate(0 1.23047)"/>
</clipPath>
<clipPath id="clip1_6531_53438">
<rect width="58.6139" height="10.8362" fill="white" transform="translate(37.1973 1.70508)"/>
</clipPath>
</defs>
</svg>
