<svg width="471" height="521" viewBox="0 0 471 521" fill="none" xmlns="http://www.w3.org/2000/svg">
<g opacity="0.8">
<g opacity="0.8">
<path fill-rule="evenodd" clip-rule="evenodd" d="M47.3228 6.16073e-05L45.602 6.15865e-05L45.602 69.6387L5.30845e-06 69.6387L5.28823e-06 71.3582L45.602 71.3582L45.602 164.21L4.19621e-06 164.21L4.17598e-06 165.929L45.602 165.929L45.602 258.781L3.08396e-06 258.781L3.06374e-06 260.5L45.602 260.5L45.602 353.352L1.97171e-06 353.352L1.95149e-06 355.071L45.602 355.071L45.602 447.922L8.59464e-07 447.922L8.39241e-07 449.642L45.602 449.642L45.602 521L47.3228 521L47.3228 449.642L140.248 449.642L140.248 521L141.968 521L141.968 449.642L234.893 449.642L234.893 521L236.614 521L236.614 449.642L329.539 449.642L329.539 521L331.26 521L331.26 449.642L424.185 449.642L424.185 521L425.905 521L425.905 449.642L470.647 449.642L470.647 447.922L425.905 447.922L425.905 355.071L470.647 355.071L470.647 353.352L425.905 353.352L425.905 260.5L470.647 260.5L470.647 258.781L425.905 258.781L425.905 165.929L470.647 165.929L470.647 164.21L425.905 164.21L425.905 71.3582L470.647 71.3582L470.647 69.6387L425.905 69.6387L425.905 6.61848e-05L424.185 6.6164e-05L424.185 69.6387L331.26 69.6387L331.26 6.50404e-05L329.539 6.50196e-05L329.539 69.6387L236.614 69.6387L236.614 6.38961e-05L234.893 6.38753e-05L234.893 69.6387L141.968 69.6387L141.968 6.27517e-05L140.248 6.27309e-05L140.248 69.6387L47.3228 69.6387L47.3228 6.16073e-05ZM47.3228 165.929L140.248 165.929L140.248 258.781L47.3228 258.781L47.3228 165.929ZM236.614 260.5L329.539 260.5L329.539 353.352L236.614 353.352L236.614 260.5ZM234.893 353.352L141.968 353.352L141.968 260.5L234.893 260.5L234.893 353.352ZM236.614 258.781L236.614 165.929L329.539 165.929L329.539 258.781L236.614 258.781ZM234.893 258.781L141.968 258.781L141.968 165.929L234.893 165.929L234.893 258.781ZM47.3228 260.5L140.248 260.5L140.248 353.352L47.3228 353.352L47.3228 260.5ZM47.3228 447.922L47.3228 355.071L140.248 355.071L140.248 447.922L47.3228 447.922ZM141.968 447.922L141.968 355.071L234.893 355.071L234.893 447.922L141.968 447.922ZM236.614 447.922L236.614 355.071L329.539 355.071L329.539 447.922L236.614 447.922ZM424.185 447.922L331.26 447.922L331.26 355.071L424.185 355.071L424.185 447.922ZM424.185 353.352L331.26 353.352L331.26 260.5L424.185 260.5L424.185 353.352ZM424.185 258.781L331.26 258.781L331.26 165.929L424.185 165.929L424.185 258.781ZM424.185 71.3582L424.185 164.21L331.26 164.21L331.26 71.3582L424.185 71.3582ZM329.539 71.3582L329.539 164.21L236.614 164.21L236.614 71.3582L329.539 71.3582ZM234.893 71.3582L234.893 164.21L141.968 164.21L141.968 71.3582L234.893 71.3582ZM140.248 71.3582L140.248 164.21L47.3228 164.21L47.3228 71.3582L140.248 71.3582Z" fill="url(#paint0_diamond_6372_18092)"/>
<g filter="url(#filter0_d_6372_18092)">
<rect x="301.295" y="137" width="58.0924" height="58.0924" rx="5.43713" fill="white"/>
<rect x="301.869" y="137.574" width="56.9441" height="56.9441" rx="4.86299" stroke="#D2DCE4" stroke-width="1.14826"/>
</g>
<g clip-path="url(#clip0_6372_18092)">
<path d="M345.692 156.358L330.27 148.068C330.1 147.977 329.899 147.977 329.729 148.068L314.308 156.358C314.121 156.462 314.003 156.662 314 156.881V175.118C314 175.339 314.119 175.539 314.31 175.642L329.729 183.931C329.741 183.937 329.753 183.942 329.766 183.947C329.774 183.95 329.782 183.953 329.791 183.957C329.857 183.985 329.928 183.999 329.999 183.999C330.07 183.999 330.141 183.985 330.207 183.957C330.216 183.955 330.225 183.951 330.233 183.947C330.245 183.943 330.257 183.938 330.269 183.932L345.689 175.643C345.88 175.54 345.999 175.339 345.999 175.118V156.878C345.995 156.661 345.877 156.462 345.691 156.358H345.692ZM329.42 165.529V182.426L315.161 174.76V157.863L329.42 165.529ZM344.174 156.881L330 164.501L315.826 156.881L330 149.262L344.174 156.881ZM344.839 157.863V174.76L330.58 182.426V165.529L344.839 157.863Z" fill="#15C1E6"/>
<path d="M330.58 165.528L344.839 157.862V174.76L330.58 182.425V165.528Z" fill="#15C1E6" fill-opacity="0.7"/>
<path d="M315.16 157.862L329.419 165.528V182.425L315.16 174.76V157.862Z" fill="#15C1E6" fill-opacity="0.3"/>
<path d="M330 149.262L315.826 156.881L330 164.501L344.174 156.881L330 149.262Z" fill="#15C1E6" fill-opacity="0.5"/>
</g>
<g filter="url(#filter1_d_6372_18092)">
<rect x="301" y="231" width="58.0924" height="58.0924" rx="5.43713" fill="white"/>
<rect x="301.574" y="231.574" width="56.9441" height="56.9441" rx="4.86299" stroke="#D2DCE4" stroke-width="1.14826"/>
</g>
<g clip-path="url(#clip1_6372_18092)">
<path d="M345.692 250.358L330.27 242.068C330.1 241.977 329.899 241.977 329.729 242.068L314.308 250.358C314.121 250.462 314.003 250.662 314 250.881V269.118C314 269.339 314.119 269.539 314.31 269.642L329.729 277.931C329.741 277.937 329.753 277.942 329.766 277.947C329.774 277.95 329.782 277.953 329.791 277.957C329.857 277.985 329.928 277.999 329.999 277.999C330.07 277.999 330.141 277.985 330.207 277.957C330.216 277.955 330.225 277.951 330.233 277.947C330.245 277.943 330.257 277.938 330.269 277.932L345.689 269.643C345.88 269.54 345.999 269.339 345.999 269.118V250.878C345.995 250.661 345.877 250.462 345.691 250.358H345.692ZM329.42 259.529V276.426L315.161 268.76V251.863L329.42 259.529ZM344.174 250.881L330 258.501L315.826 250.881L330 243.262L344.174 250.881ZM344.839 251.863V268.76L330.58 276.426V259.529L344.839 251.863Z" fill="#D2DCE4"/>
</g>
<g filter="url(#filter2_d_6372_18092)">
<rect x="301" y="324" width="58.0924" height="58.0924" rx="5.43713" fill="white"/>
<rect x="301.574" y="324.574" width="56.9441" height="56.9441" rx="4.86299" stroke="#D2DCE4" stroke-width="1.14826"/>
</g>
<g clip-path="url(#clip2_6372_18092)">
<path d="M345.692 343.358L330.27 335.068C330.1 334.977 329.899 334.977 329.729 335.068L314.308 343.358C314.121 343.462 314.003 343.662 314 343.881V362.118C314 362.339 314.119 362.539 314.31 362.642L329.729 370.931C329.741 370.937 329.753 370.942 329.766 370.947C329.774 370.95 329.782 370.953 329.791 370.957C329.857 370.985 329.928 370.999 329.999 370.999C330.07 370.999 330.141 370.985 330.207 370.957C330.216 370.955 330.225 370.951 330.233 370.947C330.245 370.943 330.257 370.938 330.269 370.932L345.689 362.643C345.88 362.54 345.999 362.339 345.999 362.118V343.878C345.995 343.661 345.877 343.462 345.691 343.358H345.692ZM329.42 352.529V369.426L315.161 361.76V344.863L329.42 352.529ZM344.174 343.881L330 351.501L315.826 343.881L330 336.262L344.174 343.881ZM344.839 344.863V361.76L330.58 369.426V352.529L344.839 344.863Z" fill="#D2DCE4"/>
</g>
<g filter="url(#filter3_d_6372_18092)">
<rect x="205.787" y="137" width="58.0924" height="58.0924" rx="6.19653" fill="white"/>
<rect x="206.441" y="137.654" width="56.7838" height="56.7838" rx="5.54221" stroke="#D2DCE4" stroke-width="1.30864"/>
</g>
<g clip-path="url(#clip3_6372_18092)">
<path d="M250.692 156.358L235.27 148.068C235.1 147.977 234.899 147.977 234.729 148.068L219.308 156.358C219.121 156.462 219.003 156.662 219 156.881V175.118C219 175.339 219.119 175.539 219.31 175.642L234.729 183.931C234.741 183.937 234.753 183.942 234.766 183.947C234.774 183.95 234.782 183.953 234.791 183.957C234.857 183.985 234.928 183.999 234.999 183.999C235.07 183.999 235.141 183.985 235.207 183.957C235.216 183.955 235.225 183.951 235.233 183.947C235.245 183.943 235.257 183.938 235.269 183.932L250.689 175.643C250.88 175.54 250.999 175.339 250.999 175.118V156.878C250.995 156.661 250.877 156.462 250.691 156.358H250.692ZM234.42 165.529V182.426L220.161 174.76V157.863L234.42 165.529ZM249.174 156.881L235 164.501L220.826 156.881L235 149.262L249.174 156.881ZM249.839 157.863V174.76L235.58 182.426V165.529L249.839 157.863Z" fill="#D2DCE4"/>
</g>
<g filter="url(#filter4_d_6372_18092)">
<rect x="205.787" y="231" width="58.0924" height="58.0924" rx="6.19653" fill="white"/>
<rect x="206.441" y="231.654" width="56.7838" height="56.7838" rx="5.54221" stroke="#D2DCE4" stroke-width="1.30864"/>
</g>
<g clip-path="url(#clip4_6372_18092)">
<path d="M250.692 250.358L235.27 242.068C235.1 241.977 234.899 241.977 234.729 242.068L219.308 250.358C219.121 250.462 219.003 250.662 219 250.881V269.118C219 269.339 219.119 269.539 219.31 269.642L234.729 277.931C234.741 277.937 234.753 277.942 234.766 277.947C234.774 277.95 234.782 277.953 234.791 277.957C234.857 277.985 234.928 277.999 234.999 277.999C235.07 277.999 235.141 277.985 235.207 277.957C235.216 277.955 235.225 277.951 235.233 277.947C235.245 277.943 235.257 277.938 235.269 277.932L250.689 269.643C250.88 269.54 250.999 269.339 250.999 269.118V250.878C250.995 250.661 250.877 250.462 250.691 250.358H250.692ZM234.42 259.529V276.426L220.161 268.76V251.863L234.42 259.529ZM249.174 250.881L235 258.501L220.826 250.881L235 243.262L249.174 250.881ZM249.839 251.863V268.76L235.58 276.426V259.529L249.839 251.863Z" fill="#D2DCE4"/>
</g>
<g filter="url(#filter5_d_6372_18092)">
<rect x="205.787" y="324" width="58.0924" height="58.0924" rx="6.19653" fill="white"/>
<rect x="206.441" y="324.654" width="56.7838" height="56.7838" rx="5.54221" stroke="#D2DCE4" stroke-width="1.30864"/>
</g>
<g clip-path="url(#clip5_6372_18092)">
<path d="M249.692 343.358L234.27 335.068C234.1 334.977 233.899 334.977 233.729 335.068L218.308 343.358C218.121 343.462 218.003 343.662 218 343.881V362.118C218 362.339 218.119 362.539 218.31 362.642L233.729 370.931C233.741 370.937 233.753 370.942 233.766 370.947C233.774 370.95 233.782 370.953 233.791 370.957C233.857 370.985 233.928 370.999 233.999 370.999C234.07 370.999 234.141 370.985 234.207 370.957C234.216 370.955 234.225 370.951 234.233 370.947C234.245 370.943 234.257 370.938 234.269 370.932L249.689 362.643C249.88 362.54 249.999 362.339 249.999 362.118V343.878C249.995 343.661 249.877 343.462 249.691 343.358H249.692ZM233.42 352.529V369.426L219.161 361.76V344.863L233.42 352.529ZM248.174 343.881L234 351.501L219.826 343.881L234 336.262L248.174 343.881ZM248.839 344.863V361.76L234.58 369.426V352.529L248.839 344.863Z" fill="#9D97F4"/>
</g>
<g filter="url(#filter6_d_6372_18092)">
<rect x="205.521" y="425.432" width="60.6292" height="60.6292" rx="6.19653" fill="white"/>
<rect x="206.176" y="426.086" width="59.3205" height="59.3205" rx="5.54221" stroke="#D2DCE4" stroke-width="1.30864"/>
</g>
<g clip-path="url(#clip6_6372_18092)">
<path d="M251.692 446.358L236.27 438.068C236.1 437.977 235.899 437.977 235.729 438.068L220.308 446.358C220.121 446.462 220.003 446.662 220 446.881V465.118C220 465.339 220.119 465.539 220.31 465.642L235.729 473.931C235.741 473.937 235.753 473.942 235.766 473.947C235.774 473.95 235.782 473.953 235.791 473.957C235.857 473.985 235.928 473.999 235.999 473.999C236.07 473.999 236.141 473.985 236.207 473.957C236.216 473.955 236.225 473.951 236.233 473.947C236.245 473.943 236.257 473.938 236.269 473.932L251.689 465.643C251.88 465.54 251.999 465.339 251.999 465.118V446.878C251.995 446.661 251.877 446.462 251.691 446.358H251.692ZM235.42 455.529V472.426L221.161 464.76V447.863L235.42 455.529ZM250.174 446.881L236 454.501L221.826 446.881L236 439.262L250.174 446.881ZM250.839 447.863V464.76L236.58 472.426V455.529L250.839 447.863Z" fill="#D2DCE4"/>
</g>
<g filter="url(#filter7_d_6372_18092)">
<rect x="205.787" y="42.3867" width="58.0924" height="58.0924" rx="6.19653" fill="white"/>
<rect x="206.441" y="43.041" width="56.7838" height="56.7838" rx="5.54221" stroke="#D2DCE4" stroke-width="1.30864"/>
</g>
<g clip-path="url(#clip7_6372_18092)">
<path d="M250.692 61.3583L235.27 53.0679C235.1 52.9774 234.899 52.9774 234.729 53.0679L219.308 61.3583C219.121 61.4623 219.003 61.6618 219 61.8812V80.1177C219 80.3386 219.119 80.5394 219.31 80.642L234.729 88.9311C234.741 88.9375 234.753 88.9425 234.766 88.9468C234.774 88.9503 234.782 88.9532 234.791 88.9567C234.857 88.9852 234.928 88.9995 234.999 88.9995C235.07 88.9995 235.141 88.9852 235.207 88.9574C235.216 88.9546 235.225 88.951 235.233 88.9475C235.245 88.9432 235.257 88.9382 235.269 88.9318L250.689 80.6427C250.88 80.5401 250.999 80.3393 250.999 80.1184V61.8784C250.995 61.6611 250.877 61.4623 250.691 61.3583H250.692ZM234.42 70.5286V87.4259L220.161 79.7601V62.8629L234.42 70.5286ZM249.174 61.8812L235 69.5007L220.826 61.8812L235 54.2618L249.174 61.8812ZM249.839 62.8629V79.7601L235.58 87.4259V70.5286L249.839 62.8629Z" fill="#D2DCE4"/>
</g>
<g filter="url(#filter8_d_6372_18092)">
<rect x="396" y="231" width="58.0924" height="58.0924" rx="4.46261" fill="white"/>
<rect x="396.471" y="231.471" width="57.1499" height="57.1499" rx="3.99138" stroke="#D2DCE4" stroke-width="0.942458"/>
</g>
</g>
<g clip-path="url(#clip8_6372_18092)">
<path d="M440.692 250.358L425.27 242.068C425.1 241.977 424.899 241.977 424.729 242.068L409.308 250.358C409.121 250.462 409.003 250.662 409 250.881V269.118C409 269.339 409.119 269.539 409.31 269.642L424.729 277.931C424.741 277.937 424.753 277.942 424.766 277.947C424.774 277.95 424.782 277.953 424.791 277.957C424.857 277.985 424.928 277.999 424.999 277.999C425.07 277.999 425.141 277.985 425.207 277.957C425.216 277.955 425.225 277.951 425.233 277.947C425.245 277.943 425.257 277.938 425.269 277.932L440.689 269.643C440.88 269.54 440.999 269.339 440.999 269.118V250.878C440.995 250.661 440.877 250.462 440.691 250.358H440.692ZM424.42 259.529V276.426L410.161 268.76V251.863L424.42 259.529ZM439.174 250.881L425 258.501L410.826 250.881L425 243.262L439.174 250.881ZM439.839 251.863V268.76L425.58 276.426V259.529L439.839 251.863Z" fill="#FECE4D"/>
<path d="M425.58 259.528L439.839 251.862V268.76L425.58 276.425V259.528Z" fill="#FECE4D" fill-opacity="0.7"/>
<path d="M410.16 251.862L424.419 259.528V276.425L410.16 268.76V251.862Z" fill="#FECE4D" fill-opacity="0.3"/>
<path d="M425 243.262L410.826 250.881L425 258.501L439.174 250.881L425 243.262Z" fill="#FECE4D" fill-opacity="0.5"/>
</g>
</g>
<defs>
<filter id="filter0_d_6372_18092" x="295.858" y="131.563" width="79.8403" height="79.8413" filterUnits="userSpaceOnUse" color-interpolation-filters="sRGB">
<feFlood flood-opacity="0" result="BackgroundImageFix"/>
<feColorMatrix in="SourceAlpha" type="matrix" values="0 0 0 0 0 0 0 0 0 0 0 0 0 0 0 0 0 0 127 0" result="hardAlpha"/>
<feOffset dx="5.43713" dy="5.43713"/>
<feGaussianBlur stdDeviation="5.43713"/>
<feColorMatrix type="matrix" values="0 0 0 0 0.0941177 0 0 0 0 0.188235 0 0 0 0 0.247059 0 0 0 0.05 0"/>
<feBlend mode="normal" in2="BackgroundImageFix" result="effect1_dropShadow_6372_18092"/>
<feBlend mode="normal" in="SourceGraphic" in2="effect1_dropShadow_6372_18092" result="shape"/>
</filter>
<filter id="filter1_d_6372_18092" x="295.563" y="225.563" width="79.8403" height="79.8413" filterUnits="userSpaceOnUse" color-interpolation-filters="sRGB">
<feFlood flood-opacity="0" result="BackgroundImageFix"/>
<feColorMatrix in="SourceAlpha" type="matrix" values="0 0 0 0 0 0 0 0 0 0 0 0 0 0 0 0 0 0 127 0" result="hardAlpha"/>
<feOffset dx="5.43713" dy="5.43713"/>
<feGaussianBlur stdDeviation="5.43713"/>
<feColorMatrix type="matrix" values="0 0 0 0 0.0941177 0 0 0 0 0.188235 0 0 0 0 0.247059 0 0 0 0.05 0"/>
<feBlend mode="normal" in2="BackgroundImageFix" result="effect1_dropShadow_6372_18092"/>
<feBlend mode="normal" in="SourceGraphic" in2="effect1_dropShadow_6372_18092" result="shape"/>
</filter>
<filter id="filter2_d_6372_18092" x="295.563" y="318.563" width="79.8403" height="79.8413" filterUnits="userSpaceOnUse" color-interpolation-filters="sRGB">
<feFlood flood-opacity="0" result="BackgroundImageFix"/>
<feColorMatrix in="SourceAlpha" type="matrix" values="0 0 0 0 0 0 0 0 0 0 0 0 0 0 0 0 0 0 127 0" result="hardAlpha"/>
<feOffset dx="5.43713" dy="5.43713"/>
<feGaussianBlur stdDeviation="5.43713"/>
<feColorMatrix type="matrix" values="0 0 0 0 0.0941177 0 0 0 0 0.188235 0 0 0 0 0.247059 0 0 0 0.05 0"/>
<feBlend mode="normal" in2="BackgroundImageFix" result="effect1_dropShadow_6372_18092"/>
<feBlend mode="normal" in="SourceGraphic" in2="effect1_dropShadow_6372_18092" result="shape"/>
</filter>
<filter id="filter3_d_6372_18092" x="199.591" y="130.803" width="82.8779" height="82.8789" filterUnits="userSpaceOnUse" color-interpolation-filters="sRGB">
<feFlood flood-opacity="0" result="BackgroundImageFix"/>
<feColorMatrix in="SourceAlpha" type="matrix" values="0 0 0 0 0 0 0 0 0 0 0 0 0 0 0 0 0 0 127 0" result="hardAlpha"/>
<feOffset dx="6.19653" dy="6.19653"/>
<feGaussianBlur stdDeviation="6.19653"/>
<feColorMatrix type="matrix" values="0 0 0 0 0.0941177 0 0 0 0 0.188235 0 0 0 0 0.247059 0 0 0 0.05 0"/>
<feBlend mode="normal" in2="BackgroundImageFix" result="effect1_dropShadow_6372_18092"/>
<feBlend mode="normal" in="SourceGraphic" in2="effect1_dropShadow_6372_18092" result="shape"/>
</filter>
<filter id="filter4_d_6372_18092" x="199.591" y="224.803" width="82.8779" height="82.8789" filterUnits="userSpaceOnUse" color-interpolation-filters="sRGB">
<feFlood flood-opacity="0" result="BackgroundImageFix"/>
<feColorMatrix in="SourceAlpha" type="matrix" values="0 0 0 0 0 0 0 0 0 0 0 0 0 0 0 0 0 0 127 0" result="hardAlpha"/>
<feOffset dx="6.19653" dy="6.19653"/>
<feGaussianBlur stdDeviation="6.19653"/>
<feColorMatrix type="matrix" values="0 0 0 0 0.0941177 0 0 0 0 0.188235 0 0 0 0 0.247059 0 0 0 0.05 0"/>
<feBlend mode="normal" in2="BackgroundImageFix" result="effect1_dropShadow_6372_18092"/>
<feBlend mode="normal" in="SourceGraphic" in2="effect1_dropShadow_6372_18092" result="shape"/>
</filter>
<filter id="filter5_d_6372_18092" x="199.591" y="317.803" width="82.8779" height="82.8789" filterUnits="userSpaceOnUse" color-interpolation-filters="sRGB">
<feFlood flood-opacity="0" result="BackgroundImageFix"/>
<feColorMatrix in="SourceAlpha" type="matrix" values="0 0 0 0 0 0 0 0 0 0 0 0 0 0 0 0 0 0 127 0" result="hardAlpha"/>
<feOffset dx="6.19653" dy="6.19653"/>
<feGaussianBlur stdDeviation="6.19653"/>
<feColorMatrix type="matrix" values="0 0 0 0 0.0941177 0 0 0 0 0.188235 0 0 0 0 0.247059 0 0 0 0.05 0"/>
<feBlend mode="normal" in2="BackgroundImageFix" result="effect1_dropShadow_6372_18092"/>
<feBlend mode="normal" in="SourceGraphic" in2="effect1_dropShadow_6372_18092" result="shape"/>
</filter>
<filter id="filter6_d_6372_18092" x="199.325" y="419.235" width="85.415" height="85.415" filterUnits="userSpaceOnUse" color-interpolation-filters="sRGB">
<feFlood flood-opacity="0" result="BackgroundImageFix"/>
<feColorMatrix in="SourceAlpha" type="matrix" values="0 0 0 0 0 0 0 0 0 0 0 0 0 0 0 0 0 0 127 0" result="hardAlpha"/>
<feOffset dx="6.19653" dy="6.19653"/>
<feGaussianBlur stdDeviation="6.19653"/>
<feColorMatrix type="matrix" values="0 0 0 0 0.0941177 0 0 0 0 0.188235 0 0 0 0 0.247059 0 0 0 0.05 0"/>
<feBlend mode="normal" in2="BackgroundImageFix" result="effect1_dropShadow_6372_18092"/>
<feBlend mode="normal" in="SourceGraphic" in2="effect1_dropShadow_6372_18092" result="shape"/>
</filter>
<filter id="filter7_d_6372_18092" x="199.591" y="36.1902" width="82.8779" height="82.8789" filterUnits="userSpaceOnUse" color-interpolation-filters="sRGB">
<feFlood flood-opacity="0" result="BackgroundImageFix"/>
<feColorMatrix in="SourceAlpha" type="matrix" values="0 0 0 0 0 0 0 0 0 0 0 0 0 0 0 0 0 0 127 0" result="hardAlpha"/>
<feOffset dx="6.19653" dy="6.19653"/>
<feGaussianBlur stdDeviation="6.19653"/>
<feColorMatrix type="matrix" values="0 0 0 0 0.0941177 0 0 0 0 0.188235 0 0 0 0 0.247059 0 0 0 0.05 0"/>
<feBlend mode="normal" in2="BackgroundImageFix" result="effect1_dropShadow_6372_18092"/>
<feBlend mode="normal" in="SourceGraphic" in2="effect1_dropShadow_6372_18092" result="shape"/>
</filter>
<filter id="filter8_d_6372_18092" x="391.537" y="226.537" width="75.9423" height="75.9432" filterUnits="userSpaceOnUse" color-interpolation-filters="sRGB">
<feFlood flood-opacity="0" result="BackgroundImageFix"/>
<feColorMatrix in="SourceAlpha" type="matrix" values="0 0 0 0 0 0 0 0 0 0 0 0 0 0 0 0 0 0 127 0" result="hardAlpha"/>
<feOffset dx="4.46261" dy="4.46261"/>
<feGaussianBlur stdDeviation="4.46261"/>
<feColorMatrix type="matrix" values="0 0 0 0 0.0941177 0 0 0 0 0.188235 0 0 0 0 0.247059 0 0 0 0.05 0"/>
<feBlend mode="normal" in2="BackgroundImageFix" result="effect1_dropShadow_6372_18092"/>
<feBlend mode="normal" in="SourceGraphic" in2="effect1_dropShadow_6372_18092" result="shape"/>
</filter>
<radialGradient id="paint0_diamond_6372_18092" cx="0" cy="0" r="1" gradientUnits="userSpaceOnUse" gradientTransform="translate(-0.353431 261) scale(533.5 590.577)">
<stop stop-color="white" stop-opacity="0"/>
<stop offset="0.554768" stop-color="#D2DCE4" stop-opacity="0.6"/>
<stop offset="1" stop-color="#D2DCE4" stop-opacity="0"/>
</radialGradient>
<clipPath id="clip0_6372_18092">
<rect width="32" height="36" fill="white" transform="translate(314 148)"/>
</clipPath>
<clipPath id="clip1_6372_18092">
<rect width="32" height="36" fill="white" transform="translate(314 242)"/>
</clipPath>
<clipPath id="clip2_6372_18092">
<rect width="32" height="36" fill="white" transform="translate(314 335)"/>
</clipPath>
<clipPath id="clip3_6372_18092">
<rect width="32" height="36" fill="white" transform="translate(219 148)"/>
</clipPath>
<clipPath id="clip4_6372_18092">
<rect width="32" height="36" fill="white" transform="translate(219 242)"/>
</clipPath>
<clipPath id="clip5_6372_18092">
<rect width="32" height="36" fill="white" transform="translate(218 335)"/>
</clipPath>
<clipPath id="clip6_6372_18092">
<rect width="32" height="36" fill="white" transform="translate(220 438)"/>
</clipPath>
<clipPath id="clip7_6372_18092">
<rect width="32" height="36" fill="white" transform="translate(219 53)"/>
</clipPath>
<clipPath id="clip8_6372_18092">
<rect width="32" height="36" fill="white" transform="translate(409 242)"/>
</clipPath>
</defs>
</svg>
