<svg width="471" height="521" viewBox="0 0 471 521" fill="none" xmlns="http://www.w3.org/2000/svg">
<g opacity="0.8">
<path fill-rule="evenodd" clip-rule="evenodd" d="M423.327 6.16073e-05L425.048 6.15865e-05L425.048 69.6387L470.65 69.6387L470.65 71.3582L425.048 71.3582L425.048 164.21L470.65 164.21L470.65 165.929L425.048 165.929L425.048 258.781L470.65 258.781L470.65 260.5L425.048 260.5L425.048 353.352L470.65 353.352L470.65 355.071L425.048 355.071L425.048 447.922L470.65 447.922L470.65 449.642L425.048 449.642L425.048 521L423.327 521L423.327 449.642L330.402 449.642L330.402 521L328.681 521L328.681 449.642L235.756 449.642L235.756 521L234.035 521L234.035 449.642L141.109 449.642L141.109 521L139.389 521L139.389 449.642L46.4631 449.642L46.4631 521L44.7422 521L44.7422 449.642L0.000395889 449.642L0.000395869 447.922L44.7422 447.922L44.7422 355.071L0.000394777 355.071L0.000394757 353.352L44.7422 353.352L44.7422 260.5L0.000393665 260.5L0.000393645 258.781L44.7422 258.781L44.7422 165.929L0.000392553 165.929L0.000392532 164.21L44.7422 164.21L44.7422 71.3582L0.00039144 71.3582L0.00039142 69.6387L44.7422 69.6387L44.7422 6.61848e-05L46.4631 6.6164e-05L46.4631 69.6387L139.389 69.6387L139.389 6.50405e-05L141.109 6.50197e-05L141.109 69.6387L234.035 69.6387L234.035 6.38961e-05L235.756 6.38753e-05L235.756 69.6387L328.681 69.6387L328.681 6.27517e-05L330.402 6.27309e-05L330.402 69.6387L423.327 69.6387L423.327 6.16073e-05ZM423.327 165.929L330.402 165.929L330.402 258.781L423.327 258.781L423.327 165.929ZM234.035 260.5L141.109 260.5L141.109 353.352L234.035 353.352L234.035 260.5ZM235.756 353.352L328.681 353.352L328.681 260.5L235.756 260.5L235.756 353.352ZM234.035 258.781L234.035 165.929L141.109 165.929L141.109 258.781L234.035 258.781ZM235.756 258.781L328.681 258.781L328.681 165.929L235.756 165.929L235.756 258.781ZM423.327 260.5L330.402 260.5L330.402 353.352L423.327 353.352L423.327 260.5ZM423.327 447.922L423.327 355.071L330.402 355.071L330.402 447.922L423.327 447.922ZM328.681 447.922L328.681 355.071L235.756 355.071L235.756 447.922L328.681 447.922ZM234.035 447.922L234.035 355.071L141.109 355.071L141.109 447.922L234.035 447.922ZM46.4631 447.922L139.389 447.922L139.389 355.071L46.4631 355.071L46.4631 447.922ZM46.4631 353.352L139.389 353.352L139.389 260.5L46.4631 260.5L46.4631 353.352ZM46.4631 258.781L139.389 258.781L139.389 165.929L46.4631 165.929L46.4631 258.781ZM46.4631 71.3582L46.4631 164.21L139.389 164.21L139.389 71.3582L46.4631 71.3582ZM141.109 71.3582L141.109 164.21L234.035 164.21L234.035 71.3582L141.109 71.3582ZM235.756 71.3582L235.756 164.21L328.681 164.21L328.681 71.3582L235.756 71.3582ZM330.402 71.3582L330.402 164.21L423.327 164.21L423.327 71.3582L330.402 71.3582Z" fill="url(#paint0_diamond_6372_18046)"/>
<g filter="url(#filter0_d_6372_18046)">
<rect width="58.0928" height="58.0924" rx="5.43713" transform="matrix(-1 -1.74844e-07 -1.74847e-07 1 169.352 137)" fill="white"/>
<rect x="-0.574132" y="0.574132" width="56.9445" height="56.9441" rx="4.86299" transform="matrix(-1 -1.74844e-07 -1.74847e-07 1 168.203 137)" stroke="#D2DCE4" stroke-width="1.14826"/>
</g>
<g clip-path="url(#clip0_6372_18046)">
<path d="M124.954 156.358L140.376 148.068C140.546 147.977 140.748 147.977 140.917 148.068L156.339 156.358C156.525 156.462 156.643 156.662 156.646 156.881V175.118C156.646 175.339 156.528 175.539 156.337 175.642L140.917 183.931C140.905 183.937 140.893 183.942 140.881 183.947C140.872 183.95 140.864 183.953 140.856 183.957C140.789 183.985 140.718 183.999 140.647 183.999C140.576 183.999 140.505 183.985 140.439 183.957C140.43 183.955 140.422 183.951 140.413 183.947C140.401 183.943 140.389 183.938 140.377 183.932L124.957 175.643C124.766 175.54 124.648 175.339 124.648 175.118V156.878C124.651 156.661 124.769 156.462 124.955 156.358H124.954ZM141.227 165.529V182.426L155.486 174.76V157.863L141.227 165.529ZM126.472 156.881L140.646 164.501L154.821 156.881L140.646 149.262L126.472 156.881ZM125.807 157.863V174.76L140.066 182.426V165.529L125.807 157.863Z" fill="#D2DCE4"/>
</g>
<g filter="url(#filter1_d_6372_18046)">
<rect width="58.0928" height="58.0924" rx="5.43713" transform="matrix(-1 -1.74844e-07 -1.74847e-07 1 169.646 231)" fill="white"/>
<rect x="-0.574132" y="0.574132" width="56.9445" height="56.9441" rx="4.86299" transform="matrix(-1 -1.74844e-07 -1.74847e-07 1 168.498 231)" stroke="#D2DCE4" stroke-width="1.14826"/>
</g>
<g clip-path="url(#clip1_6372_18046)">
<path d="M124.954 250.358L140.376 242.068C140.546 241.977 140.748 241.977 140.917 242.068L156.339 250.358C156.525 250.462 156.643 250.662 156.646 250.881V269.118C156.646 269.339 156.528 269.539 156.337 269.642L140.917 277.931C140.905 277.937 140.893 277.942 140.881 277.947C140.872 277.95 140.864 277.953 140.856 277.957C140.789 277.985 140.718 277.999 140.647 277.999C140.576 277.999 140.505 277.985 140.439 277.957C140.43 277.955 140.422 277.951 140.413 277.947C140.401 277.943 140.389 277.938 140.377 277.932L124.957 269.643C124.766 269.54 124.648 269.339 124.648 269.118V250.878C124.651 250.661 124.769 250.462 124.955 250.358H124.954ZM141.227 259.529V276.426L155.486 268.76V251.863L141.227 259.529ZM126.472 250.881L140.646 258.501L154.821 250.881L140.646 243.262L126.472 250.881ZM125.807 251.863V268.76L140.066 276.426V259.529L125.807 251.863Z" fill="#D2DCE4"/>
</g>
<g filter="url(#filter2_d_6372_18046)">
<rect width="58.0928" height="58.0924" rx="5.43713" transform="matrix(-1 -1.74844e-07 -1.74847e-07 1 169.646 324)" fill="white"/>
<rect x="-0.574132" y="0.574132" width="56.9445" height="56.9441" rx="4.86299" transform="matrix(-1 -1.74844e-07 -1.74847e-07 1 168.498 324)" stroke="#D2DCE4" stroke-width="1.14826"/>
</g>
<g clip-path="url(#clip2_6372_18046)">
<path d="M124.954 343.358L140.376 335.068C140.546 334.977 140.748 334.977 140.917 335.068L156.339 343.358C156.525 343.462 156.643 343.662 156.646 343.881V362.118C156.646 362.339 156.528 362.539 156.337 362.642L140.917 370.931C140.905 370.937 140.893 370.942 140.881 370.947C140.872 370.95 140.864 370.953 140.856 370.957C140.789 370.985 140.718 370.999 140.647 370.999C140.576 370.999 140.505 370.985 140.439 370.957C140.43 370.955 140.422 370.951 140.413 370.947C140.401 370.943 140.389 370.938 140.377 370.932L124.957 362.643C124.766 362.54 124.648 362.339 124.648 362.118V343.878C124.651 343.661 124.769 343.462 124.955 343.358H124.954ZM141.227 352.529V369.426L155.486 361.76V344.863L141.227 352.529ZM126.472 343.881L140.646 351.501L154.821 343.881L140.646 336.262L126.472 343.881ZM125.807 344.863V361.76L140.066 369.426V352.529L125.807 344.863Z" fill="#15C1E6"/>
<path d="M140.066 352.528L125.807 344.862V361.76L140.066 369.425V352.528Z" fill="#15C1E6" fill-opacity="0.7"/>
<path d="M155.486 344.862L141.227 352.528V369.425L155.486 361.76V344.862Z" fill="#15C1E6" fill-opacity="0.3"/>
<path d="M140.646 336.262L154.82 343.881L140.646 351.501L126.472 343.881L140.646 336.262Z" fill="#15C1E6" fill-opacity="0.5"/>
</g>
<g filter="url(#filter3_d_6372_18046)">
<rect width="58.0928" height="58.0924" rx="6.19653" transform="matrix(-1 -1.74844e-07 -1.74847e-07 1 264.863 137)" fill="white"/>
<rect x="-0.654321" y="0.654321" width="56.7841" height="56.7838" rx="5.54221" transform="matrix(-1 -1.74844e-07 -1.74847e-07 1 263.555 137)" stroke="#D2DCE4" stroke-width="1.30864"/>
</g>
<g clip-path="url(#clip3_6372_18046)">
<path d="M220.958 156.358L236.38 148.068C236.55 147.977 236.751 147.977 236.921 148.068L252.343 156.358C252.529 156.462 252.647 156.662 252.65 156.881V175.118C252.65 175.339 252.532 175.539 252.341 175.642L236.921 183.931C236.909 183.937 236.897 183.942 236.885 183.947C236.876 183.95 236.868 183.953 236.86 183.957C236.793 183.985 236.722 183.999 236.651 183.999C236.58 183.999 236.509 183.985 236.443 183.957C236.434 183.955 236.426 183.951 236.417 183.947C236.405 183.943 236.393 183.938 236.381 183.932L220.961 175.643C220.77 175.54 220.652 175.339 220.652 175.118V156.878C220.655 156.661 220.773 156.462 220.959 156.358H220.958ZM237.231 165.529V182.426L251.49 174.76V157.863L237.231 165.529ZM222.476 156.881L236.65 164.501L250.824 156.881L236.65 149.262L222.476 156.881ZM221.811 157.863V174.76L236.07 182.426V165.529L221.811 157.863Z" fill="#9D97F4"/>
</g>
<g filter="url(#filter4_d_6372_18046)">
<rect width="58.0928" height="58.0924" rx="6.19653" transform="matrix(-1 -1.74844e-07 -1.74847e-07 1 264.863 231)" fill="white"/>
<rect x="-0.654321" y="0.654321" width="56.7841" height="56.7838" rx="5.54221" transform="matrix(-1 -1.74844e-07 -1.74847e-07 1 263.555 231)" stroke="#D2DCE4" stroke-width="1.30864"/>
</g>
<g clip-path="url(#clip4_6372_18046)">
<path d="M219.958 250.358L235.38 242.068C235.55 241.977 235.751 241.977 235.921 242.068L251.343 250.358C251.529 250.462 251.647 250.662 251.65 250.881V269.118C251.65 269.339 251.532 269.539 251.341 269.642L235.921 277.931C235.909 277.937 235.897 277.942 235.885 277.947C235.876 277.95 235.868 277.953 235.86 277.957C235.793 277.985 235.722 277.999 235.651 277.999C235.58 277.999 235.509 277.985 235.443 277.957C235.434 277.955 235.426 277.951 235.417 277.947C235.405 277.943 235.393 277.938 235.381 277.932L219.961 269.643C219.77 269.54 219.652 269.339 219.652 269.118V250.878C219.655 250.661 219.773 250.462 219.959 250.358H219.958ZM236.231 259.529V276.426L250.49 268.76V251.863L236.231 259.529ZM221.476 250.881L235.65 258.501L249.824 250.881L235.65 243.262L221.476 250.881ZM220.811 251.863V268.76L235.07 276.426V259.529L220.811 251.863Z" fill="#D2DCE4"/>
</g>
<g filter="url(#filter5_d_6372_18046)">
<rect width="58.0928" height="58.0924" rx="6.19653" transform="matrix(-1 -1.74844e-07 -1.74847e-07 1 264.863 324)" fill="white"/>
<rect x="-0.654321" y="0.654321" width="56.7841" height="56.7838" rx="5.54221" transform="matrix(-1 -1.74844e-07 -1.74847e-07 1 263.555 324)" stroke="#D2DCE4" stroke-width="1.30864"/>
</g>
<g clip-path="url(#clip5_6372_18046)">
<path d="M219.958 343.358L235.38 335.068C235.55 334.977 235.751 334.977 235.921 335.068L251.343 343.358C251.529 343.462 251.647 343.662 251.65 343.881V362.118C251.65 362.339 251.532 362.539 251.341 362.642L235.921 370.931C235.909 370.937 235.897 370.942 235.885 370.947C235.876 370.95 235.868 370.953 235.86 370.957C235.793 370.985 235.722 370.999 235.651 370.999C235.58 370.999 235.509 370.985 235.443 370.957C235.434 370.955 235.426 370.951 235.417 370.947C235.405 370.943 235.393 370.938 235.381 370.932L219.961 362.643C219.77 362.54 219.652 362.339 219.652 362.118V343.878C219.655 343.661 219.773 343.462 219.959 343.358H219.958ZM236.231 352.529V369.426L250.49 361.76V344.863L236.231 352.529ZM221.476 343.881L235.65 351.501L249.824 343.881L235.65 336.262L221.476 343.881ZM220.811 344.863V361.76L235.07 369.426V352.529L220.811 344.863Z" fill="#D2DCE4"/>
</g>
<g filter="url(#filter6_d_6372_18046)">
<rect width="60.6296" height="60.6292" rx="6.19653" transform="matrix(-1 -1.74844e-07 -1.74847e-07 1 265.127 425.432)" fill="white"/>
<rect x="-0.654321" y="0.654321" width="59.3209" height="59.3205" rx="5.54221" transform="matrix(-1 -1.74844e-07 -1.74847e-07 1 263.818 425.432)" stroke="#D2DCE4" stroke-width="1.30864"/>
</g>
<g clip-path="url(#clip6_6372_18046)">
<path d="M218.956 446.358L234.378 438.068C234.548 437.977 234.749 437.977 234.919 438.068L250.341 446.358C250.527 446.462 250.645 446.662 250.648 446.881V465.118C250.648 465.339 250.53 465.539 250.339 465.642L234.919 473.931C234.907 473.937 234.895 473.942 234.883 473.947C234.874 473.95 234.866 473.953 234.858 473.957C234.791 473.985 234.72 473.999 234.649 473.999C234.578 473.999 234.507 473.985 234.441 473.957C234.432 473.955 234.424 473.951 234.415 473.947C234.403 473.943 234.391 473.938 234.379 473.932L218.959 465.643C218.768 465.54 218.65 465.339 218.65 465.118V446.878C218.653 446.661 218.771 446.462 218.957 446.358H218.956ZM235.229 455.529V472.426L249.488 464.76V447.863L235.229 455.529ZM220.474 446.881L234.648 454.501L248.823 446.881L234.648 439.262L220.474 446.881ZM219.809 447.863V464.76L234.068 472.426V455.529L219.809 447.863Z" fill="#D2DCE4"/>
</g>
<g filter="url(#filter7_d_6372_18046)">
<rect width="58.0928" height="58.0924" rx="6.19653" transform="matrix(-1 -1.74844e-07 -1.74847e-07 1 264.863 42.3867)" fill="white"/>
<rect x="-0.654321" y="0.654321" width="56.7841" height="56.7838" rx="5.54221" transform="matrix(-1 -1.74844e-07 -1.74847e-07 1 263.555 42.3867)" stroke="#D2DCE4" stroke-width="1.30864"/>
</g>
<g clip-path="url(#clip7_6372_18046)">
<path d="M219.958 61.3583L235.38 53.0679C235.55 52.9774 235.751 52.9774 235.921 53.0679L251.343 61.3583C251.529 61.4623 251.647 61.6618 251.65 61.8812V80.1177C251.65 80.3386 251.532 80.5394 251.341 80.642L235.921 88.9311C235.909 88.9375 235.897 88.9425 235.885 88.9468C235.876 88.9503 235.868 88.9532 235.86 88.9567C235.793 88.9852 235.722 88.9995 235.651 88.9995C235.58 88.9995 235.509 88.9852 235.443 88.9574C235.434 88.9546 235.426 88.951 235.417 88.9475C235.405 88.9432 235.393 88.9382 235.381 88.9318L219.961 80.6427C219.77 80.5401 219.652 80.3393 219.652 80.1184V61.8784C219.655 61.6611 219.773 61.4623 219.959 61.3583H219.958ZM236.231 70.5286V87.4259L250.49 79.7601V62.8629L236.231 70.5286ZM221.476 61.8812L235.65 69.5007L249.824 61.8812L235.65 54.2618L221.476 61.8812ZM220.811 62.8629V79.7601L235.07 87.4259V70.5286L220.811 62.8629Z" fill="#D2DCE4"/>
</g>
<g filter="url(#filter8_d_6372_18046)">
<rect width="58.0928" height="58.0924" rx="4.46261" transform="matrix(-1 -1.74844e-07 -1.74847e-07 1 74.6465 231)" fill="white"/>
<rect x="-0.471229" y="0.471229" width="57.1503" height="57.1499" rx="3.99138" transform="matrix(-1 -1.74844e-07 -1.74847e-07 1 73.704 231)" stroke="#D2DCE4" stroke-width="0.942458"/>
</g>
<g clip-path="url(#clip8_6372_18046)">
<path d="M61.6924 250.358L46.2699 242.068C46.1004 241.977 45.8989 241.977 45.7294 242.068L30.3076 250.358C30.1214 250.462 30.0035 250.662 30 250.881V269.118C30 269.339 30.1186 269.539 30.3097 269.642L45.7294 277.931C45.7412 277.937 45.7531 277.942 45.7657 277.947C45.774 277.95 45.7824 277.953 45.7908 277.957C45.857 277.985 45.9282 277.999 45.9993 277.999C46.0704 277.999 46.1409 277.985 46.2071 277.957C46.2162 277.955 46.2246 277.951 46.2329 277.947C46.2455 277.943 46.2574 277.938 46.2692 277.932L61.6889 269.643C61.88 269.54 61.9986 269.339 61.9986 269.118V250.878C61.9951 250.661 61.8773 250.462 61.691 250.358H61.6924ZM45.4197 259.529V276.426L31.1605 268.76V251.863L45.4197 259.529ZM60.1741 250.881L46 258.501L31.8259 250.881L46 243.262L60.1741 250.881ZM60.8395 251.863V268.76L46.5803 276.426V259.529L60.8395 251.863Z" fill="#FECE4D"/>
<path d="M46.5801 259.528L60.8393 251.862V268.76L46.5801 276.425V259.528Z" fill="#FECE4D" fill-opacity="0.7"/>
<path d="M31.1602 251.862L45.4193 259.528V276.425L31.1602 268.76V251.862Z" fill="#FECE4D" fill-opacity="0.3"/>
<path d="M46.0003 243.262L31.8262 250.881L46.0003 258.501L60.1744 250.881L46.0003 243.262Z" fill="#FECE4D" fill-opacity="0.5"/>
</g>
</g>
<defs>
<filter id="filter0_d_6372_18046" x="105.821" y="131.563" width="79.8423" height="79.8413" filterUnits="userSpaceOnUse" color-interpolation-filters="sRGB">
<feFlood flood-opacity="0" result="BackgroundImageFix"/>
<feColorMatrix in="SourceAlpha" type="matrix" values="0 0 0 0 0 0 0 0 0 0 0 0 0 0 0 0 0 0 127 0" result="hardAlpha"/>
<feOffset dx="5.43713" dy="5.43713"/>
<feGaussianBlur stdDeviation="5.43713"/>
<feColorMatrix type="matrix" values="0 0 0 0 0.0941177 0 0 0 0 0.188235 0 0 0 0 0.247059 0 0 0 0.05 0"/>
<feBlend mode="normal" in2="BackgroundImageFix" result="effect1_dropShadow_6372_18046"/>
<feBlend mode="normal" in="SourceGraphic" in2="effect1_dropShadow_6372_18046" result="shape"/>
</filter>
<filter id="filter1_d_6372_18046" x="106.116" y="225.563" width="79.8423" height="79.8413" filterUnits="userSpaceOnUse" color-interpolation-filters="sRGB">
<feFlood flood-opacity="0" result="BackgroundImageFix"/>
<feColorMatrix in="SourceAlpha" type="matrix" values="0 0 0 0 0 0 0 0 0 0 0 0 0 0 0 0 0 0 127 0" result="hardAlpha"/>
<feOffset dx="5.43713" dy="5.43713"/>
<feGaussianBlur stdDeviation="5.43713"/>
<feColorMatrix type="matrix" values="0 0 0 0 0.0941177 0 0 0 0 0.188235 0 0 0 0 0.247059 0 0 0 0.05 0"/>
<feBlend mode="normal" in2="BackgroundImageFix" result="effect1_dropShadow_6372_18046"/>
<feBlend mode="normal" in="SourceGraphic" in2="effect1_dropShadow_6372_18046" result="shape"/>
</filter>
<filter id="filter2_d_6372_18046" x="106.116" y="318.563" width="79.8423" height="79.8413" filterUnits="userSpaceOnUse" color-interpolation-filters="sRGB">
<feFlood flood-opacity="0" result="BackgroundImageFix"/>
<feColorMatrix in="SourceAlpha" type="matrix" values="0 0 0 0 0 0 0 0 0 0 0 0 0 0 0 0 0 0 127 0" result="hardAlpha"/>
<feOffset dx="5.43713" dy="5.43713"/>
<feGaussianBlur stdDeviation="5.43713"/>
<feColorMatrix type="matrix" values="0 0 0 0 0.0941177 0 0 0 0 0.188235 0 0 0 0 0.247059 0 0 0 0.05 0"/>
<feBlend mode="normal" in2="BackgroundImageFix" result="effect1_dropShadow_6372_18046"/>
<feBlend mode="normal" in="SourceGraphic" in2="effect1_dropShadow_6372_18046" result="shape"/>
</filter>
<filter id="filter3_d_6372_18046" x="200.573" y="130.803" width="82.8799" height="82.8789" filterUnits="userSpaceOnUse" color-interpolation-filters="sRGB">
<feFlood flood-opacity="0" result="BackgroundImageFix"/>
<feColorMatrix in="SourceAlpha" type="matrix" values="0 0 0 0 0 0 0 0 0 0 0 0 0 0 0 0 0 0 127 0" result="hardAlpha"/>
<feOffset dx="6.19653" dy="6.19653"/>
<feGaussianBlur stdDeviation="6.19653"/>
<feColorMatrix type="matrix" values="0 0 0 0 0.0941177 0 0 0 0 0.188235 0 0 0 0 0.247059 0 0 0 0.05 0"/>
<feBlend mode="normal" in2="BackgroundImageFix" result="effect1_dropShadow_6372_18046"/>
<feBlend mode="normal" in="SourceGraphic" in2="effect1_dropShadow_6372_18046" result="shape"/>
</filter>
<filter id="filter4_d_6372_18046" x="200.573" y="224.803" width="82.8799" height="82.8789" filterUnits="userSpaceOnUse" color-interpolation-filters="sRGB">
<feFlood flood-opacity="0" result="BackgroundImageFix"/>
<feColorMatrix in="SourceAlpha" type="matrix" values="0 0 0 0 0 0 0 0 0 0 0 0 0 0 0 0 0 0 127 0" result="hardAlpha"/>
<feOffset dx="6.19653" dy="6.19653"/>
<feGaussianBlur stdDeviation="6.19653"/>
<feColorMatrix type="matrix" values="0 0 0 0 0.0941177 0 0 0 0 0.188235 0 0 0 0 0.247059 0 0 0 0.05 0"/>
<feBlend mode="normal" in2="BackgroundImageFix" result="effect1_dropShadow_6372_18046"/>
<feBlend mode="normal" in="SourceGraphic" in2="effect1_dropShadow_6372_18046" result="shape"/>
</filter>
<filter id="filter5_d_6372_18046" x="200.573" y="317.803" width="82.8799" height="82.8789" filterUnits="userSpaceOnUse" color-interpolation-filters="sRGB">
<feFlood flood-opacity="0" result="BackgroundImageFix"/>
<feColorMatrix in="SourceAlpha" type="matrix" values="0 0 0 0 0 0 0 0 0 0 0 0 0 0 0 0 0 0 127 0" result="hardAlpha"/>
<feOffset dx="6.19653" dy="6.19653"/>
<feGaussianBlur stdDeviation="6.19653"/>
<feColorMatrix type="matrix" values="0 0 0 0 0.0941177 0 0 0 0 0.188235 0 0 0 0 0.247059 0 0 0 0.05 0"/>
<feBlend mode="normal" in2="BackgroundImageFix" result="effect1_dropShadow_6372_18046"/>
<feBlend mode="normal" in="SourceGraphic" in2="effect1_dropShadow_6372_18046" result="shape"/>
</filter>
<filter id="filter6_d_6372_18046" x="198.302" y="419.235" width="85.415" height="85.415" filterUnits="userSpaceOnUse" color-interpolation-filters="sRGB">
<feFlood flood-opacity="0" result="BackgroundImageFix"/>
<feColorMatrix in="SourceAlpha" type="matrix" values="0 0 0 0 0 0 0 0 0 0 0 0 0 0 0 0 0 0 127 0" result="hardAlpha"/>
<feOffset dx="6.19653" dy="6.19653"/>
<feGaussianBlur stdDeviation="6.19653"/>
<feColorMatrix type="matrix" values="0 0 0 0 0.0941177 0 0 0 0 0.188235 0 0 0 0 0.247059 0 0 0 0.05 0"/>
<feBlend mode="normal" in2="BackgroundImageFix" result="effect1_dropShadow_6372_18046"/>
<feBlend mode="normal" in="SourceGraphic" in2="effect1_dropShadow_6372_18046" result="shape"/>
</filter>
<filter id="filter7_d_6372_18046" x="200.573" y="36.1902" width="82.8799" height="82.8789" filterUnits="userSpaceOnUse" color-interpolation-filters="sRGB">
<feFlood flood-opacity="0" result="BackgroundImageFix"/>
<feColorMatrix in="SourceAlpha" type="matrix" values="0 0 0 0 0 0 0 0 0 0 0 0 0 0 0 0 0 0 127 0" result="hardAlpha"/>
<feOffset dx="6.19653" dy="6.19653"/>
<feGaussianBlur stdDeviation="6.19653"/>
<feColorMatrix type="matrix" values="0 0 0 0 0.0941177 0 0 0 0 0.188235 0 0 0 0 0.247059 0 0 0 0.05 0"/>
<feBlend mode="normal" in2="BackgroundImageFix" result="effect1_dropShadow_6372_18046"/>
<feBlend mode="normal" in="SourceGraphic" in2="effect1_dropShadow_6372_18046" result="shape"/>
</filter>
<filter id="filter8_d_6372_18046" x="12.0901" y="226.537" width="75.9442" height="75.9432" filterUnits="userSpaceOnUse" color-interpolation-filters="sRGB">
<feFlood flood-opacity="0" result="BackgroundImageFix"/>
<feColorMatrix in="SourceAlpha" type="matrix" values="0 0 0 0 0 0 0 0 0 0 0 0 0 0 0 0 0 0 127 0" result="hardAlpha"/>
<feOffset dx="4.46261" dy="4.46261"/>
<feGaussianBlur stdDeviation="4.46261"/>
<feColorMatrix type="matrix" values="0 0 0 0 0.0941177 0 0 0 0 0.188235 0 0 0 0 0.247059 0 0 0 0.05 0"/>
<feBlend mode="normal" in2="BackgroundImageFix" result="effect1_dropShadow_6372_18046"/>
<feBlend mode="normal" in="SourceGraphic" in2="effect1_dropShadow_6372_18046" result="shape"/>
</filter>
<radialGradient id="paint0_diamond_6372_18046" cx="0" cy="0" r="1" gradientUnits="userSpaceOnUse" gradientTransform="translate(471.004 261) rotate(180) scale(533.503 590.577)">
<stop stop-color="white" stop-opacity="0"/>
<stop offset="0.554768" stop-color="#D2DCE4" stop-opacity="0.6"/>
<stop offset="1" stop-color="#D2DCE4" stop-opacity="0"/>
</radialGradient>
<clipPath id="clip0_6372_18046">
<rect width="32.0002" height="36" fill="white" transform="matrix(-1 0 0 1 156.646 148)"/>
</clipPath>
<clipPath id="clip1_6372_18046">
<rect width="32.0002" height="36" fill="white" transform="matrix(-1 0 0 1 156.646 242)"/>
</clipPath>
<clipPath id="clip2_6372_18046">
<rect width="32.0002" height="36" fill="white" transform="matrix(-1 0 0 1 156.646 335)"/>
</clipPath>
<clipPath id="clip3_6372_18046">
<rect width="32.0002" height="36" fill="white" transform="matrix(-1 0 0 1 252.65 148)"/>
</clipPath>
<clipPath id="clip4_6372_18046">
<rect width="32.0002" height="36" fill="white" transform="matrix(-1 0 0 1 251.65 242)"/>
</clipPath>
<clipPath id="clip5_6372_18046">
<rect width="32.0002" height="36" fill="white" transform="matrix(-1 0 0 1 251.65 335)"/>
</clipPath>
<clipPath id="clip6_6372_18046">
<rect width="32.0002" height="36" fill="white" transform="matrix(-1 0 0 1 250.648 438)"/>
</clipPath>
<clipPath id="clip7_6372_18046">
<rect width="32.0002" height="36" fill="white" transform="matrix(-1 0 0 1 251.65 53)"/>
</clipPath>
<clipPath id="clip8_6372_18046">
<rect width="32" height="36" fill="white" transform="translate(30 242)"/>
</clipPath>
</defs>
</svg>
