<svg width="111" height="41" viewBox="0 0 111 41" fill="none" xmlns="http://www.w3.org/2000/svg">
<path d="M72.0083 10.5289C75.0846 8.02228 78.3887 7.68046 82.0347 8.81984C85.3389 9.84527 87.048 12.2379 87.5037 15.6561C87.6176 16.9094 87.6176 18.1627 87.6176 19.3021C87.6176 22.8341 87.6176 26.3662 87.6176 29.7843C87.6176 30.9236 87.3898 31.1515 86.2504 31.1515C85.225 31.1515 84.0856 31.1515 83.0602 31.1515C82.1487 31.1515 81.8069 30.8097 81.8069 29.8982C81.8069 26.0243 81.8069 22.1505 81.8069 18.1627C81.8069 17.593 81.8069 17.0233 81.6929 16.4536C81.3511 14.8585 80.2117 13.8331 78.5027 13.8331C76.7936 13.8331 75.5403 14.7446 75.1985 16.3397C75.0846 16.9094 75.0846 17.4791 75.0846 18.0487C75.0846 21.9226 75.0846 25.7965 75.0846 29.7843C75.0846 30.9236 74.8567 31.1515 73.7173 31.1515C72.6919 31.1515 71.6664 31.1515 70.641 31.1515C69.5016 31.1515 69.2738 30.9236 69.2738 29.7843C69.2738 26.0243 69.2738 22.1505 69.2738 18.3906C69.2738 17.9348 69.2738 17.4791 69.2738 17.0233C69.1598 15.0864 67.7926 13.8331 65.9696 13.8331C64.0327 13.8331 62.7793 15.0864 62.6654 17.0233C62.5515 19.5299 62.6654 22.1505 62.6654 24.771C62.6654 26.4801 62.6654 28.1892 62.6654 29.8982C62.6654 30.8097 62.3236 31.1515 61.4121 31.1515C60.2727 31.1515 59.2473 31.1515 58.1079 31.1515C57.1964 31.1515 56.8546 30.8097 56.8546 29.8982C56.8546 29.3285 56.8546 28.7588 56.8546 28.1892C56.8546 24.4292 56.8546 20.6693 56.8546 16.9094C56.8546 11.2125 60.8424 7.68046 66.5393 8.13621C68.4762 8.36409 70.4131 8.93377 72.0083 10.5289Z" fill="#DDD8C2"/>
<path d="M104.025 29.3286C101.974 31.2655 99.4671 31.7212 96.8466 31.4934C92.0612 31.1516 89.0988 26.9359 90.4661 22.3784C91.2636 19.6439 93.6563 17.8209 96.8466 17.707C98.7835 17.593 100.72 17.707 102.657 17.707C103.911 17.707 104.366 17.1373 103.911 15.884C103.455 14.5167 102.429 13.8331 101.062 13.6052C99.4671 13.3774 97.9859 13.8331 97.1884 15.4282C96.7326 16.3397 96.1629 16.6815 95.1375 16.6815C94.226 16.6815 93.2006 16.6815 92.2891 16.6815C91.1497 16.6815 90.8079 16.2258 91.1497 15.0864C91.9473 12.0101 93.8842 9.8453 96.8466 8.81987C99.4671 7.90837 102.088 8.02231 104.708 8.93381C108.012 10.1871 109.835 12.8077 109.949 16.3397C110.063 20.8972 109.949 25.4547 109.949 30.0122C109.949 30.8097 109.608 31.2655 108.81 31.1516C107.898 31.1516 106.987 31.1516 106.075 31.1516C104.252 31.1516 104.252 31.1516 104.025 29.3286ZM104.025 21.9226C102.088 21.9226 100.151 21.9226 98.2138 21.9226C96.9605 21.9226 96.049 22.8341 95.9351 23.9735C95.8211 25.1129 96.5048 26.0244 97.7581 26.3662C99.1253 26.708 100.493 26.5941 101.746 26.0244C103.455 25.4547 104.252 23.8596 104.025 21.9226Z" fill="#DDD8C2"/>
<path d="M35.4345 29.3254C32.9279 31.4902 30.0794 31.832 27.1171 31.2623C23.4711 30.4648 21.3063 27.5024 21.6481 23.6285C21.876 20.3244 24.4965 17.8177 28.1425 17.5899C30.0794 17.4759 32.1303 17.5899 34.0672 17.5899C35.5484 17.5899 35.8902 17.0202 35.4345 15.6529C34.8648 14.2857 33.8394 13.716 32.4721 13.6021C30.877 13.4881 29.3958 13.8299 28.7122 15.4251C28.2564 16.3366 27.5728 16.6784 26.6613 16.6784C25.6359 16.6784 24.6104 16.6784 23.585 16.6784C22.6735 16.6784 22.4456 16.2226 22.5596 15.3111C23.2432 11.6651 26.2056 8.93064 30.0794 8.36095C32.3582 8.01914 34.523 8.24702 36.5739 9.15851C39.5362 10.5258 41.2453 12.9184 41.3592 16.1087C41.4732 20.7801 41.3592 25.3376 41.3592 30.009C41.3592 30.8066 41.0174 31.1484 40.2198 31.1484C39.3083 31.1484 38.2829 31.1484 37.3714 31.1484C35.7763 31.1484 35.7763 31.1484 35.4345 29.3254ZM35.4345 21.9195C33.4975 21.9195 31.5606 21.9195 29.6237 21.9195C28.3704 21.9195 27.5728 22.831 27.4589 23.8564C27.3449 24.9958 28.0286 26.0212 29.1679 26.363C30.5352 26.7048 31.9024 26.7048 33.2697 26.0212C34.9787 25.3376 35.6624 23.8564 35.4345 21.9195Z" fill="#DDD8C2"/>
<path d="M5.81079 24.2029C5.81079 26.0259 5.81079 27.9629 5.81079 29.7859C5.81079 30.9252 5.58292 31.1531 4.44355 31.1531C3.30418 31.1531 2.27874 31.1531 1.13937 31.1531C0.341811 31.1531 0 30.8113 0 30.0137C0 23.2914 0 16.4552 0 9.73292C0 8.93536 0.341811 8.59355 1.13937 8.59355C2.27874 8.59355 3.30418 8.59355 4.44355 8.59355C5.58292 8.59355 5.81079 8.82143 5.81079 9.9608C5.81079 12.8092 5.81079 15.7716 5.81079 18.62C5.81079 18.8479 5.81079 19.0758 5.81079 19.5315C6.15261 19.1897 6.26654 18.9618 6.49442 18.734C8.65922 15.6577 10.824 12.5814 12.9888 9.50505C13.4446 8.82143 14.0143 8.47961 14.8118 8.47961C16.0651 8.47961 17.4324 8.47961 18.6857 8.47961C19.0275 8.47961 19.4833 8.70749 19.5972 8.93536C19.7111 9.16324 19.5972 9.73292 19.3693 9.9608C16.9766 13.3789 14.47 16.797 12.0773 20.2151C11.6216 20.8988 11.6216 21.3545 11.9634 22.0381C13.4446 24.4308 15.6094 25.3423 18.2299 25.5702C19.5972 25.6841 19.8251 25.7981 19.8251 27.1653C19.8251 27.9629 19.8251 28.7604 19.8251 29.558C19.8251 30.6974 19.5972 30.9252 18.4578 30.9252C13.2167 30.9252 9.22891 28.8744 6.38048 24.4308C6.26654 24.2029 6.15261 24.089 6.03867 23.8611C5.92473 24.089 5.81079 24.089 5.81079 24.2029Z" fill="#DDD8C2"/>
<path d="M44.8912 23.0613C44.8912 21.0104 44.8912 19.0735 44.8912 17.0226C45.0052 11.8954 48.7651 8.47733 53.8923 8.7052C54.5759 8.7052 54.9177 9.04701 54.9177 9.73063C54.9177 10.9839 54.9177 12.1233 54.9177 13.3766C54.9177 14.0602 54.462 14.2881 53.8923 14.4021C51.6135 14.8578 50.702 15.7693 50.702 18.162C50.702 21.808 50.702 25.5679 50.702 29.2139C50.702 31.1508 50.702 31.1508 48.7651 31.1508C47.8536 31.1508 46.9421 31.1508 46.0306 31.1508C45.233 31.1508 44.8912 30.809 44.8912 30.0114C44.8912 27.6188 44.8912 25.34 44.8912 23.0613Z" fill="#DDD8C2"/>
</svg>
