<svg width="167" height="41" viewBox="0 0 167 41" fill="none" xmlns="http://www.w3.org/2000/svg">
<mask id="mask0_15712_16250" style="mask-type:luminance" maskUnits="userSpaceOnUse" x="0" y="6" width="167" height="29">
<path d="M166.801 6.0968H0.800781V34.3168H166.801V6.0968Z" fill="white"/>
</mask>
<g mask="url(#mask0_15712_16250)">
<path fill-rule="evenodd" clip-rule="evenodd" d="M166.799 29.4078H166.542V27.4331L165.771 29.4078H165.579L164.808 27.4331V29.4078H164.551V27.1783H165.065L165.707 28.8345L166.349 27.1783H166.863V29.4078H166.799ZM164.102 27.3694H163.395V29.3441H163.139V27.3694H162.432V27.1783H164.166V27.3694H164.102ZM35.2832 20.9992C35.2832 24.5665 37.2739 28.1975 41.2554 28.1975C45.2368 28.1975 47.2275 24.6302 47.2275 20.9992C47.2275 17.4319 45.2368 13.8008 41.2554 13.8008C37.2739 13.8008 35.2832 17.3682 35.2832 20.9992ZM49.2182 20.9355C49.2182 25.7768 46.3927 29.8538 41.1911 29.8538C35.9896 29.8538 33.1641 25.7768 33.1641 20.9355C33.1641 16.0941 35.9896 12.0172 41.1911 12.0172C46.3927 12.0809 49.2182 16.1578 49.2182 20.9355ZM48.8971 12.5268H51.2089L56.5389 27.3057H56.6031L61.8047 12.5268H63.9238L57.5664 29.3441H55.383L48.8971 12.5268ZM76.8956 19.7888C76.7672 16.6674 74.8407 13.8008 71.5014 13.8008C68.0979 13.8008 66.2356 16.7311 65.9145 19.7888H76.8956ZM65.9145 21.5088C65.9788 24.5028 67.52 28.1338 71.5014 28.1338C74.5196 28.1338 76.1892 26.3501 76.8314 23.8021H78.8863C77.9873 27.6242 75.7397 29.8538 71.5014 29.8538C66.1072 29.8538 63.8596 25.7131 63.8596 20.9355C63.8596 16.4763 66.1072 12.0172 71.5014 12.0172C76.9598 12.0172 79.1432 16.7311 78.9505 21.4451C78.9505 21.5088 65.9145 21.5088 65.9145 21.5088ZM100.206 17.4956C100.078 14.9475 98.1513 13.8008 95.7753 13.8008C93.913 13.8008 91.7938 14.5016 91.7938 16.7311C91.7938 18.5785 93.913 19.2155 95.3258 19.5977L98.0871 20.2347C100.463 20.617 102.903 21.9547 102.903 24.885C102.903 28.516 99.243 29.9175 96.0964 29.9175C92.1791 29.9175 89.482 28.0701 89.0967 23.9932H91.1517C91.3443 26.7961 93.3993 28.1975 96.1606 28.1975C98.0871 28.1975 100.784 27.3694 100.784 25.0124C100.784 23.0376 98.9219 22.4006 97.0596 21.9547L94.4267 21.3814C91.7296 20.6807 89.6747 19.7251 89.6747 16.8585C89.6747 13.4186 93.0782 12.1446 96.0321 12.1446C99.4356 12.1446 102.133 13.9282 102.261 17.5593C102.325 17.4956 100.206 17.4956 100.206 17.4956ZM107.976 12.5268H111.444V14.2468H107.976V25.5857C107.976 26.9235 108.169 27.6879 109.646 27.8153C110.224 27.8153 110.802 27.7516 111.444 27.6879V29.4715C110.802 29.4715 110.224 29.5352 109.582 29.5352C106.821 29.5352 105.857 28.6434 105.922 25.7768V14.3105H103.931V12.5905H105.922V7.49435H107.976V12.5268ZM113.884 20.9992C113.884 24.5665 115.875 28.1975 119.857 28.1975C123.838 28.1975 125.829 24.6302 125.829 20.9992C125.829 17.4319 123.838 13.8008 119.857 13.8008C115.875 13.8008 113.884 17.3682 113.884 20.9992ZM127.884 20.9355C127.884 25.7768 125.058 29.8538 119.857 29.8538C114.655 29.8538 111.829 25.7768 111.829 20.9355C111.829 16.0941 114.655 12.0172 119.857 12.0172C125.058 12.0172 127.884 16.1578 127.884 20.9355ZM142.525 17.8141C141.947 15.3297 140.406 13.7371 137.709 13.7371C133.727 13.7371 131.737 17.3045 131.737 20.9355C131.737 24.5028 133.727 28.1338 137.709 28.1338C140.277 28.1338 142.397 26.159 142.653 23.3561H144.708C144.13 27.4331 141.498 29.8538 137.709 29.8538C132.507 29.8538 129.682 25.7768 129.682 20.9355C129.682 16.0941 132.507 12.0172 137.709 12.0172C141.305 12.0172 144.13 13.9282 144.58 17.8141H142.525ZM146.892 6.0929H148.947V20.6807L158.322 12.5268H161.084L153.827 18.7696L161.533 29.3441H158.964L152.35 20.2347L149.011 23.0376V29.4078H146.956L146.892 6.0929ZM88.6472 12.3994C86.2712 12.7179 84.4731 14.1831 83.5741 16.4763H83.5099V12.5268H81.5834V29.3441H83.6383V20.4259C83.6383 17.3682 85.629 14.8838 88.583 14.4379L88.6472 12.3994Z" fill="white"/>
<path fill-rule="evenodd" clip-rule="evenodd" d="M0.800781 6.1554V20.9343C2.98415 15.01 9.08473 10.5508 15.2495 10.5508C22.1207 10.5508 26.4874 16.0292 25.0105 22.8453C23.9188 28.0689 19.6163 32.528 14.6074 34.3117H29.2487V6.1554H0.800781Z" fill="#FF1F2C"/>
<path fill-rule="evenodd" clip-rule="evenodd" d="M20.5143 22.8444C20.5143 16.9838 16.9824 12.2062 12.6799 12.2062C8.37738 12.2062 4.78125 16.9838 4.78125 22.8444C4.78125 28.705 8.31317 33.4827 12.6157 33.4827C16.9182 33.4827 20.5143 28.705 20.5143 22.8444Z" fill="#FF1F2C"/>
</g>
</svg>
