<svg width="37" height="37" viewBox="0 0 37 37" fill="none" xmlns="http://www.w3.org/2000/svg">
<rect width="36.419" height="35.5307" transform="translate(-0.00585938 0.882812)" fill="white"/>
<mask id="mask0_6289_16774" style="mask-type:alpha" maskUnits="userSpaceOnUse" x="-1" y="0" width="38" height="37">
<rect x="-0.00585938" y="0.882812" width="36.419" height="35.5307" fill="#F5EFEF"/>
</mask>
<g mask="url(#mask0_6289_16774)">
<path d="M17.7534 31.5188C24.6168 31.5188 30.1807 26.0907 30.1807 19.3947C30.1807 12.6987 24.6168 7.27051 17.7534 7.27051C10.8901 7.27051 5.32617 12.6987 5.32617 19.3947C5.32617 26.0907 10.8901 31.5188 17.7534 31.5188Z" fill="white"/>
<path d="M30.1173 21.0085C29.3276 26.9518 24.0965 31.5502 17.7741 31.5502C10.9081 31.5515 5.32617 26.1057 5.32617 19.4083C5.32617 18.9006 5.36371 18.3917 5.4375 17.9017C5.46468 17.687 5.51258 17.4798 5.55012 17.2689C6.82262 17.7728 8.20774 18.4498 8.82005 19.5081C9.38704 20.4705 9.13591 21.5957 9.21875 22.6301C9.28218 23.5381 9.66018 24.3906 10.0796 25.1901C10.5003 25.9529 11.9489 28.6568 13.2524 28.1491C13.967 27.8763 14.0719 27.3863 14.2816 26.751C14.5974 25.7344 15.479 24.9173 15.9411 23.9372C16.2777 23.302 16.4874 22.2676 15.9411 21.6677C15.5631 21.2143 14.912 21.16 14.345 21.0325C13.6939 20.8872 13.1269 20.6511 12.5806 20.3429C10.354 19.0901 9.45047 16.6577 11.6563 14.9881C12.455 14.3894 13.1903 13.609 13.211 12.5923C13.2304 11.4582 11.9748 10.1675 10.9495 9.29351C11.6472 8.83001 12.3761 8.42082 13.1592 8.11772C13.2227 8.09246 13.2913 8.07478 13.3547 8.05078C14.2738 8.55848 15.6123 8.59763 15.8376 9.08386C16.1172 9.73553 15.0194 10.5741 16.266 10.8633C17.5308 11.1677 18.7774 9.46022 20.4149 9.171C21.2615 9.01314 21.7845 8.53322 22.1548 8.08362C22.1923 8.09751 22.3101 8.13161 22.3489 8.14677C23.3612 8.52943 24.2907 9.02577 25.1593 9.66228C24.2273 10.1611 24.6716 10.8281 24.001 11.2601C22.2482 12.422 22.6404 13.2626 23.487 13.9345C24.8851 15.0231 25.5852 13.3084 26.4124 14.7974C26.6493 15.2331 26.5897 15.7951 26.235 16.1588C25.4868 16.9027 24.2066 16.4493 23.2603 16.4493C22.1172 16.4316 21.035 16.7031 20.3839 17.6478C19.7923 18.4826 19.7146 19.7721 20.5211 20.5159C21.2111 21.1335 22.1755 21.0426 22.8849 21.6955C24.0072 22.7665 22.0383 27.3585 24.402 26.7056C26.7658 26.0337 28.7749 22.5846 29.5231 21.6046C29.7211 21.357 29.9179 21.1663 30.1147 21.0097L30.1173 21.0085Z" fill="#98DEF4"/>
<path fill-rule="evenodd" clip-rule="evenodd" d="M24.1286 16.8138C23.0872 15.7982 22.443 14.3949 22.443 12.8448C22.443 9.74536 25.0184 7.23277 28.1953 7.23278C31.3722 7.23278 33.9476 9.74536 33.9476 12.8448C33.9476 14.3948 33.3035 15.7981 32.2622 16.8137L32.263 16.8144L28.1955 20.7827L24.128 16.8144L24.1286 16.8138Z" fill="#15C1E6"/>
<path fill-rule="evenodd" clip-rule="evenodd" d="M16.0587 7.23392C15.5921 6.77885 15.3034 6.15008 15.3034 5.45553C15.3034 4.06678 16.4574 2.94098 17.8809 2.94098C19.3043 2.94098 20.4583 4.06678 20.4583 5.45553C20.4583 6.15005 20.1697 6.77879 19.7031 7.23386L19.7034 7.23419L17.8809 9.01225L16.0584 7.23419L16.0587 7.23392Z" fill="#15C1E6"/>
<path fill-rule="evenodd" clip-rule="evenodd" d="M11.6159 23.652C10.8828 22.937 10.4294 21.9492 10.4294 20.8581C10.4294 18.6764 12.2423 16.9078 14.4785 16.9078C16.7148 16.9078 18.5276 18.6764 18.5276 20.8581C18.5276 21.9492 18.0742 22.937 17.3412 23.6519L17.3418 23.6524L14.4786 26.4457L11.6155 23.6524L11.6159 23.652Z" fill="#15C1E6"/>
</g>
</svg>
