<svg width="89" height="41" viewBox="0 0 89 41" fill="none" xmlns="http://www.w3.org/2000/svg">
<g clip-path="url(#clip0_15712_16470)">
<path d="M33.5841 10.4743C33.5841 7.56552 34.7695 4.9343 36.681 3.03602C34.7895 1.16074 32.1887 0 29.3154 0C23.5366 0 18.8528 4.6905 18.8528 10.4743C18.8528 16.2581 23.5381 20.9486 29.3154 20.9486C32.1887 20.9486 34.791 19.7878 36.681 17.911C34.7695 16.0127 33.5841 13.3815 33.5841 10.4727V10.4743Z" fill="#D9EFEB"/>
<path d="M48.3153 10.4743C48.3153 7.56553 49.5008 4.93431 51.4123 3.03603C49.5207 1.15922 46.92 -0.00152588 44.0466 -0.00152588C41.1733 -0.00152588 38.5711 1.15922 36.681 3.03603C38.5925 4.93431 39.778 7.56553 39.778 10.4743C39.778 13.383 38.5925 16.0143 36.681 17.9125C38.5726 19.7893 41.1733 20.9501 44.0466 20.9501C46.92 20.9501 49.5222 19.7893 51.4123 17.9125C49.5008 16.0143 48.3153 13.383 48.3153 10.4743Z" fill="#F8DB82"/>
<path d="M39.778 10.4743C39.778 7.56551 38.5925 4.93429 36.681 3.03601C34.7695 4.93429 33.584 7.56551 33.584 10.4743C33.584 13.383 34.7695 16.0142 36.681 17.9125C38.5925 16.0142 39.778 13.383 39.778 10.4743Z" fill="#E5D378"/>
<path d="M58.7794 0C55.906 0 53.3038 1.16074 51.4138 3.03755C53.3252 4.93583 54.5107 7.56705 54.5107 10.4758C54.5107 13.3846 53.3252 16.0158 51.4138 17.9141C53.3053 19.7909 55.906 20.9516 58.7794 20.9516C64.5582 20.9516 69.2419 16.2611 69.2419 10.4773C69.2419 4.69357 64.5582 0 58.7794 0Z" fill="#F8AD82"/>
<path d="M54.5107 10.4743C54.5107 7.56551 53.3253 4.93429 51.4138 3.03601C49.5023 4.93429 48.3168 7.56551 48.3168 10.4743C48.3168 13.383 49.5023 16.0142 51.4138 17.9125C53.3253 16.0142 54.5107 13.383 54.5107 10.4743Z" fill="#F8DB82"/>
<path opacity="0.8" d="M54.5107 10.4743C54.5107 7.56551 53.3253 4.93429 51.4138 3.03601C49.5023 4.93429 48.3168 7.56551 48.3168 10.4743C48.3168 13.383 49.5023 16.0142 51.4138 17.9125C53.3253 16.0142 54.5107 13.383 54.5107 10.4743Z" fill="#F49B43"/>
<path d="M5.48939 35.5751C5.51083 34.5064 5.76202 33.5143 6.37007 32.628C7.34879 31.199 9.02439 30.6209 10.7184 31.1208C12.3419 31.5992 13.3972 33.0006 13.437 34.7287C13.4477 35.2194 13.3788 35.2945 12.878 35.2961C10.7858 35.2976 8.69356 35.3068 6.60135 35.2884C6.21385 35.2853 6.12501 35.4157 6.14952 35.7775C6.29043 37.7509 7.31968 39.088 9.05962 39.4483C10.5131 39.7489 11.7553 39.3717 12.7248 38.1971C12.8274 38.0729 13.1154 37.9487 13.2134 38.0055C13.4768 38.1557 13.3359 38.3796 13.1828 38.5621C12.0126 39.9544 10.5499 40.4788 8.77167 40.0341C7.02561 39.5971 6.00248 38.4563 5.62264 36.7221C5.54146 36.3479 5.53074 35.9585 5.48785 35.5767L5.48939 35.5751ZM6.29043 34.6521H12.708C12.8902 33.2843 11.5087 31.797 9.9403 31.6421C8.12379 31.4612 6.38386 32.8826 6.2889 34.6521H6.29043Z" fill="white"/>
<path d="M81.7431 35.296C81.5532 36.9996 82.4293 38.6142 83.8629 39.2198C85.3271 39.8378 87.1544 39.6369 88.2786 38.1772C88.372 38.056 88.6661 37.9533 88.7749 38.0131C89.0184 38.145 88.8836 38.3566 88.7488 38.5344C87.6552 39.9712 85.9138 40.514 84.0896 39.9834C82.4278 39.4989 81.2591 38.0576 81.0968 36.3249C80.9865 35.1473 81.106 34.0172 81.6987 32.9684C82.61 31.3569 84.3025 30.6239 86.0853 31.0671C87.7946 31.4918 88.9357 32.9485 88.9985 34.7685C89.0123 35.1871 88.8177 35.3037 88.4318 35.3021C86.3855 35.2929 84.3392 35.2975 82.293 35.2975C82.1184 35.2975 81.9423 35.2975 81.7431 35.2975V35.296ZM88.2679 34.6489C88.4272 33.1309 86.8894 31.6635 85.1296 31.6191C83.503 31.5777 81.7539 33.1892 81.8504 34.6489H88.2679Z" fill="white"/>
<path d="M28.2724 38.1757C27.9063 38.582 27.6353 38.9561 27.2937 39.2521C25.661 40.6704 23.2624 40.4481 21.8671 38.7721C20.4611 37.0824 20.4197 34.2258 21.7461 32.4732C23.3237 30.3893 26.7974 30.3265 28.2724 32.9592C28.2724 32.7568 28.2709 32.5529 28.2724 32.3505C28.2755 32.0837 28.251 31.8107 28.3 31.5531C28.323 31.4305 28.4884 31.3354 28.591 31.2281C28.7028 31.3415 28.8345 31.4427 28.9157 31.5746C28.9632 31.6497 28.9279 31.777 28.9279 31.8813C28.9279 34.3714 28.9279 36.8616 28.9279 39.3533C28.9279 39.4575 28.9632 39.5848 28.9157 39.6599C28.8315 39.7918 28.6982 39.8915 28.5849 40.0034C28.4853 39.8945 28.3153 39.7949 28.2984 39.6737C28.254 39.3533 28.2755 39.0236 28.2724 38.697C28.2709 38.5421 28.2724 38.3888 28.2724 38.1772V38.1757ZM28.4302 35.6104C28.3612 34.764 28.179 33.9912 27.7624 33.2858C27.1099 32.1803 26.1434 31.5531 24.8462 31.5731C23.5366 31.593 22.5456 32.2217 21.9483 33.384C21.256 34.7302 21.2514 36.1271 21.8641 37.501C22.4384 38.789 23.4401 39.5357 24.8798 39.5373C26.338 39.5373 27.3565 38.7829 27.9232 37.4749C28.1774 36.8892 28.2663 36.2329 28.4286 35.6088L28.4302 35.6104Z" fill="white"/>
<path d="M69.1669 33.0604C69.1669 32.6188 69.1531 32.2815 69.1715 31.9472C69.1868 31.6758 69.0413 31.248 69.4824 31.2465C69.9557 31.245 69.8148 31.6927 69.8179 31.9733C69.8316 33.3088 69.824 34.6444 69.824 35.9784C69.824 37.0763 69.824 38.1741 69.824 39.272C69.824 39.3901 69.8607 39.5327 69.8087 39.6231C69.7244 39.7673 69.5805 39.8761 69.461 40.0003C69.3645 39.8715 69.1945 39.7504 69.1838 39.6155C69.1485 39.1616 69.17 38.7047 69.17 38.2477L69.0168 38.1327C69 38.2063 69.003 38.2922 68.9647 38.3505C68.0917 39.6538 66.8848 40.3346 65.3041 40.1506C63.5964 39.9528 62.5013 38.9255 61.9728 37.3339C61.4444 35.7407 61.5317 34.1644 62.4691 32.7231C64.1386 30.1578 67.8359 30.4905 68.9954 32.8672C69.0138 32.9056 69.052 32.9332 69.1669 33.062V33.0604ZM62.3236 35.5076C62.3496 36.4921 62.5641 37.3891 63.1292 38.1741C64.4434 40.0019 67.0808 40.0111 68.4118 38.1941C69.4809 36.7343 69.5085 34.4956 68.4762 33.0068C67.1176 31.0487 64.3055 31.0916 63.0006 33.0896C62.5135 33.8348 62.3435 34.6658 62.3236 35.5076Z" fill="white"/>
<path d="M53.0312 32.7354C53.7557 31.961 54.549 31.4029 55.5615 31.1867C57.4591 30.7788 59.1776 32.0178 59.2603 33.9636C59.3415 35.8296 59.3002 37.7003 59.2864 39.5695C59.2864 39.7151 59.0735 39.8577 58.9601 40.0019C58.8591 39.847 58.6707 39.6952 58.6691 39.5388C58.6477 37.9365 58.663 36.3341 58.6492 34.7333C58.6462 34.3362 58.614 33.9298 58.519 33.545C58.2158 32.303 57.3489 31.6712 56.0761 31.7494C55.1004 31.8092 54.2764 32.2079 53.6347 32.9562C53.2334 33.4223 53.022 33.9544 53.0266 34.5815C53.0388 36.1685 53.0312 37.7555 53.0281 39.3425C53.0281 39.4882 53.0388 39.6523 52.9791 39.7765C52.9316 39.8761 52.7754 39.9988 52.685 39.985C52.5686 39.9681 52.44 39.8439 52.3757 39.732C52.3236 39.6415 52.3542 39.5005 52.3527 39.3824C52.3527 35.4509 52.3527 31.5209 52.3527 27.5895C52.3527 27.5005 52.3205 27.3901 52.3619 27.3273C52.4492 27.1939 52.5748 27.0865 52.6835 26.9669C52.7969 27.0835 52.9362 27.1847 53.0143 27.3211C53.0664 27.4116 53.0297 27.5527 53.0297 27.6723C53.0297 29.1995 53.0297 30.7282 53.0297 32.2554C53.0297 32.4164 53.0297 32.5759 53.0297 32.7369L53.0312 32.7354Z" fill="white"/>
<path d="M75.1004 35.4356C74.5705 35.8787 74.0972 36.2559 73.65 36.6622C73.5627 36.742 73.5504 36.9321 73.5489 37.0732C73.5397 37.8598 73.5458 38.6449 73.5428 39.4315C73.5428 39.6829 73.5734 39.9957 73.2089 39.9911C72.8811 39.9865 72.898 39.6952 72.898 39.4545C72.898 35.4785 72.898 31.5041 72.898 27.5281C72.898 27.4254 72.8735 27.295 72.924 27.223C72.9991 27.1156 73.1262 26.996 73.2411 26.9838C73.3253 26.9746 73.4754 27.1126 73.5106 27.2153C73.5627 27.3625 73.5428 27.5373 73.5428 27.6998C73.5428 30.2222 73.5428 32.743 73.5428 35.2654C73.5428 35.4264 73.5428 35.5858 73.5428 35.8588C73.7404 35.7116 73.866 35.6288 73.9808 35.5322C75.6181 34.1629 77.2555 32.7905 78.8928 31.4197C78.9831 31.3431 79.0674 31.2342 79.1731 31.2066C79.2956 31.1744 79.5085 31.1683 79.556 31.2373C79.6279 31.3431 79.6402 31.5409 79.5897 31.6651C79.5406 31.7877 79.386 31.8721 79.2711 31.9671C78.1652 32.8871 77.0579 33.8056 75.952 34.7256C75.8402 34.8176 75.7361 34.9188 75.5967 35.0461C75.7315 35.1964 75.8448 35.3282 75.9643 35.454C77.1314 36.6975 78.3 37.9395 79.4687 39.1831C79.5498 39.2689 79.6816 39.3502 79.6953 39.4468C79.7168 39.5986 79.7015 39.7949 79.6172 39.9083C79.5728 39.9666 79.3354 39.9175 79.2052 39.8639C79.1041 39.8225 79.0352 39.7029 78.954 39.617C77.7655 38.3535 76.5754 37.0885 75.3899 35.822C75.2904 35.7146 75.2123 35.5874 75.0974 35.4356H75.1004Z" fill="white"/>
<path d="M47.2064 30.949C47.9309 30.9674 48.833 31.2894 49.5452 32.0361C49.6555 32.1511 49.7366 32.4501 49.6662 32.5498C49.4931 32.8013 49.294 32.6341 49.1179 32.4701C48.1652 31.5761 47.0502 31.3538 45.8249 31.7494C45.1249 31.9748 44.6409 32.4532 44.6149 33.2321C44.5919 33.9559 45.01 34.4327 45.6487 34.6934C46.2369 34.9326 46.848 35.1105 47.4484 35.3175C47.8543 35.457 48.2663 35.5781 48.6599 35.7468C49.5391 36.1225 49.9924 36.8048 49.9986 37.7616C50.0047 38.7184 49.5467 39.3962 48.6997 39.8163C47.09 40.6136 44.8599 40.1153 43.7342 38.7077C43.5764 38.5114 43.3773 38.286 43.6745 38.0622C43.9486 37.8552 44.0972 38.0959 44.2488 38.2814C45.2046 39.4483 46.7484 39.9052 48.081 39.4023C48.591 39.2091 49.0413 38.93 49.2572 38.3903C49.5406 37.6788 49.3154 36.8983 48.6262 36.5549C48.0228 36.2543 47.3565 36.0826 46.7255 35.8327C46.122 35.595 45.4879 35.3987 44.9396 35.066C43.7786 34.3607 43.6392 32.7752 44.5996 31.8076C45.1601 31.2418 45.9459 30.9505 47.2064 30.9536V30.949Z" fill="white"/>
<path d="M16.4574 31.1483C16.4574 30.4077 16.4589 29.7423 16.4574 29.0768C16.4574 28.8238 16.4819 28.5417 16.7974 28.5831C16.9199 28.5984 17.0823 28.8943 17.0915 29.0691C17.1252 29.7453 17.1053 30.4246 17.1053 31.1453C17.7317 31.1453 18.2938 31.1453 18.8544 31.1453C19.104 31.1453 19.3889 31.1667 19.3583 31.4795C19.3476 31.5961 19.0504 31.754 18.8728 31.7709C18.4163 31.8123 17.9538 31.7969 17.4943 31.7816C17.2125 31.7709 17.0991 31.8583 17.1007 32.1573C17.1099 34.1307 17.1053 36.1041 17.1099 38.0775C17.1099 38.2845 17.1344 38.493 17.1742 38.697C17.2768 39.2122 17.7072 39.456 18.2892 39.3931C18.4424 39.3763 18.6093 39.4882 18.7701 39.5403C18.6537 39.6814 18.5557 39.9175 18.4163 39.9467C17.3764 40.1659 16.5784 39.778 16.485 38.6019C16.4283 37.8935 16.4589 37.179 16.4574 36.466C16.4543 35.0415 16.4497 33.617 16.462 32.1925C16.465 31.8889 16.3777 31.7601 16.0592 31.7801C15.7345 31.8015 15.4021 31.8153 15.0835 31.7663C14.9395 31.7433 14.8201 31.5608 14.6884 31.4504C14.8262 31.3492 14.9564 31.1744 15.1019 31.1606C15.5262 31.1207 15.9565 31.1468 16.4559 31.1468L16.4574 31.1483Z" fill="white"/>
<path d="M36.3058 33.5235C36.3058 35.4525 36.3058 37.3814 36.3058 39.3103C36.3058 39.4284 36.3441 39.5725 36.292 39.6599C36.2124 39.7933 36.0822 39.9467 35.9489 39.9773C35.8724 39.9942 35.7223 39.7964 35.6472 39.6707C35.6013 39.5925 35.6304 39.4683 35.6304 39.364C35.6304 35.4325 35.6304 31.4995 35.6304 27.568C35.6304 27.4637 35.5997 27.3334 35.6503 27.2629C35.736 27.1433 35.8754 26.9838 35.9903 26.9869C36.096 26.9899 36.2246 27.1678 36.292 27.2951C36.341 27.3901 36.3073 27.5281 36.3073 27.6462C36.3073 29.6043 36.3073 31.5639 36.3073 33.522L36.3058 33.5235Z" fill="white"/>
<path d="M0.719882 33.3227C0.911336 33.0007 1.04306 32.7415 1.20847 32.5054C1.91762 31.4918 2.86263 30.9076 4.13389 30.9536C4.27786 30.9582 4.45247 30.9705 4.55662 31.0518C4.66077 31.133 4.76798 31.3247 4.73888 31.432C4.71284 31.5286 4.4785 31.6605 4.38048 31.6314C3.28077 31.2971 2.51189 31.8414 1.83644 32.5836C1.08135 33.4116 0.660149 34.3761 0.684655 35.5276C0.713756 36.8033 0.692313 38.0791 0.690782 39.3564C0.690782 39.4882 0.715288 39.6446 0.655554 39.7474C0.592757 39.8578 0.441126 39.9881 0.333912 39.9835C0.228229 39.9789 0.0980405 39.8348 0.033712 39.7213C-0.0168318 39.6293 0.0122692 39.4898 0.0122692 39.3717C0.0122692 36.8647 0.0122692 34.3561 0.0122692 31.8491C0.0122692 31.7755 -0.0153002 31.682 0.0183957 31.6298C0.114888 31.4872 0.237419 31.3615 0.349228 31.2296C0.462569 31.36 0.658617 31.4826 0.673934 31.6237C0.718351 32.05 0.68925 32.4824 0.692313 32.9133C0.692313 33.0237 0.70763 33.1341 0.721414 33.3273L0.719882 33.3227Z" fill="white"/>
<path d="M32.5717 35.5261C32.5717 36.788 32.5717 38.0484 32.5717 39.3103C32.5717 39.4146 32.6054 39.5357 32.5625 39.6185C32.489 39.7596 32.3695 39.8762 32.2684 40.0019C32.149 39.8777 32.0019 39.7688 31.9177 39.6247C31.8656 39.5357 31.9024 39.3931 31.9024 39.2735C31.9024 36.7359 31.9024 34.1982 31.9024 31.662C31.9024 31.5884 31.8763 31.498 31.9085 31.4428C32.0065 31.2726 32.1076 31.0027 32.2455 30.9766C32.538 30.923 32.5732 31.1928 32.5717 31.4305C32.5717 32.7952 32.5717 34.1614 32.5717 35.5261Z" fill="white"/>
<path d="M32.832 29.0538C32.8366 29.4356 32.6084 29.6794 32.2469 29.6794C31.8763 29.6794 31.6619 29.4494 31.6665 29.0553C31.6695 28.6843 31.8518 28.4773 32.227 28.4573C32.5977 28.4389 32.829 28.6705 32.8336 29.0523L32.832 29.0538Z" fill="white"/>
</g>
<defs>
<clipPath id="clip0_15712_16470">
<rect width="89" height="40.1935" fill="white"/>
</clipPath>
</defs>
</svg>
