<svg width="56" height="57" viewBox="0 0 56 57" fill="none" xmlns="http://www.w3.org/2000/svg">
<rect y="0.193542" width="56" height="56" rx="9.33333" fill="#15C1E6" fill-opacity="0.05"/>
<path fill-rule="evenodd" clip-rule="evenodd" d="M16.6658 15.0269C16.1135 15.0269 15.6658 15.4746 15.6658 16.0269V26.429C17.0412 25.6512 18.6304 25.2072 20.3232 25.2072C25.5561 25.2072 29.7981 29.4493 29.7981 34.6821C29.7981 35.4912 29.6965 36.2769 29.5054 37.0269H44.6658C45.2181 37.0269 45.6658 36.5792 45.6658 36.0269V16.0269C45.6658 15.4746 45.2181 15.0269 44.6658 15.0269H16.6658ZM27.6858 37.0269C27.9211 36.2874 28.0481 35.4996 28.0481 34.6821C28.0481 30.4158 24.5896 26.9572 20.3232 26.9572C18.5741 26.9572 16.9607 27.5386 15.6658 28.5186V36.0269C15.6658 36.5792 16.1135 37.0269 16.6658 37.0269H27.6858Z" fill="#98DEF4"/>
<path d="M19.666 19.5269C19.666 18.6984 20.3376 18.0269 21.166 18.0269C21.9944 18.0269 22.666 18.6984 22.666 19.5269C22.666 20.3553 21.9944 21.0269 21.166 21.0269C20.3376 21.0269 19.666 20.3553 19.666 19.5269Z" fill="#15C1E6"/>
<path d="M24.666 19.5269C24.666 18.6984 25.3376 18.0269 26.166 18.0269C26.9944 18.0269 27.666 18.6984 27.666 19.5269C27.666 20.3553 26.9944 21.0269 26.166 21.0269C25.3376 21.0269 24.666 20.3553 24.666 19.5269Z" fill="#15C1E6"/>
<path d="M29.666 19.5269C29.666 18.6984 30.3376 18.0269 31.166 18.0269C31.9944 18.0269 32.666 18.6984 32.666 19.5269C32.666 20.3553 31.9944 21.0269 31.166 21.0269C30.3376 21.0269 29.666 20.3553 29.666 19.5269Z" fill="#15C1E6"/>
<path fill-rule="evenodd" clip-rule="evenodd" d="M14.862 40.1453C13.4634 38.7473 12.5984 36.8157 12.5984 34.682C12.5984 30.4157 16.0569 26.9571 20.3233 26.9571C24.5896 26.9571 28.0482 30.4157 28.0482 34.682C28.0482 36.8156 27.1832 38.7471 25.7848 40.1451L25.7858 40.1461L20.3235 45.6085L14.8612 40.1461L14.862 40.1453Z" fill="#15C1E6"/>
<path fill-rule="evenodd" clip-rule="evenodd" d="M14.862 40.1453C13.4634 38.7473 12.5984 36.8157 12.5984 34.682C12.5984 30.4157 16.0569 26.9571 20.3233 26.9571C24.5896 26.9571 28.0482 30.4157 28.0482 34.682C28.0482 36.8156 27.1832 38.7471 25.7848 40.1451L25.7858 40.1461L20.3235 45.6085L14.8612 40.1461L14.862 40.1453Z" fill="#15C1E6"/>
</svg>
