<svg width="306" height="146" viewBox="0 0 306 146" fill="none" xmlns="http://www.w3.org/2000/svg">
<g clip-path="url(#clip0_6544_14667)">
<mask id="mask0_6544_14667" style="mask-type:luminance" maskUnits="userSpaceOnUse" x="0" y="0" width="306" height="146">
<path d="M306 0H0V146H306V0Z" fill="white"/>
</mask>
<g mask="url(#mask0_6544_14667)">
<g filter="url(#filter0_d_6544_14667)">
<path d="M40.9195 60.5942H1.55729C-0.959632 60.5942 -3 62.6346 -3 65.1515V105.395C-3 107.912 -0.959632 109.952 1.55729 109.952H40.9195C43.4364 109.952 45.4768 107.912 45.4768 105.395V65.1515C45.4768 62.6346 43.4364 60.5942 40.9195 60.5942Z" fill="white"/>
<path d="M40.9194 61.0959H1.55724C-0.682637 61.0959 -2.49841 62.9117 -2.49841 65.1516V105.395C-2.49841 107.635 -0.682637 109.451 1.55724 109.451H40.9194C43.1593 109.451 44.9751 107.635 44.9751 105.395V65.1516C44.9751 62.9117 43.1593 61.0959 40.9194 61.0959Z" stroke="#D2DCE4" stroke-width="1.00328"/>
</g>
<path d="M29.5722 89.5314C29.5722 86.654 27.8142 84.7576 25.0221 83.5805L22.8504 82.6976L22.9883 77.466C24.2637 77.6295 25.8494 78.4143 27.0214 79.6568L29.1586 76.4197C27.7797 74.8503 25.4357 73.9347 23.3675 73.7712L23.402 71.9402H20.9201L20.8511 73.7058C18.9897 73.8693 17.1972 74.4252 16.0252 75.4061C14.7498 76.4524 13.7502 77.9892 13.7502 80.1472C13.7502 82.8284 15.4048 84.2671 16.1631 84.823C16.9215 85.4115 17.9556 85.902 19.2655 86.4251L20.4375 86.8829L20.3341 92.3434C18.8518 92.3107 16.3699 91.1663 15.3703 89.6622L12.8195 92.9319C14.543 94.9919 17.3696 96.169 19.9549 96.2671L19.8859 98H22.3678L22.4368 96.2017C23.7467 96.1036 25.7115 95.4823 26.918 94.5668C28.2623 93.5532 29.5722 91.8529 29.5722 89.5314ZM20.8167 77.4334L20.7132 81.9783L20.3341 81.8148C19.4723 81.4224 18.5761 80.8339 18.5761 79.6241C18.5761 78.3489 19.5068 77.5314 20.8167 77.4334ZM24.8153 90.1526C24.8153 91.4278 23.5743 92.3107 22.5057 92.4088L22.6091 87.5369L23.1607 87.7984C24.1948 88.2889 24.8153 88.9101 24.8153 90.1526Z" fill="#D2DCE4"/>
<g filter="url(#filter1_d_6544_14667)">
<path d="M41.2772 117.52H1.91496C-0.601966 117.52 -2.64233 119.56 -2.64233 122.077V164.084C-2.64233 166.601 -0.601966 168.641 1.91496 168.641H41.2772C43.7941 168.641 45.8345 166.601 45.8345 164.084V122.077C45.8345 119.56 43.7941 117.52 41.2772 117.52Z" fill="white"/>
<path d="M41.2771 118.021H1.9149C-0.32497 118.021 -2.14075 119.837 -2.14075 122.077V164.083C-2.14075 166.323 -0.32497 168.139 1.9149 168.139H41.2771C43.517 168.139 45.3328 166.323 45.3328 164.083V122.077C45.3328 119.837 43.517 118.021 41.2771 118.021Z" stroke="#D2DCE4" stroke-width="1.00328"/>
</g>
<path d="M33.8125 139.929H26.7061V139.916C26.3118 139.911 25.9288 139.794 25.6094 139.579C25.29 139.363 25.0499 139.062 24.9217 138.715C24.8996 138.662 24.8809 138.607 24.8659 138.552L22.7804 132.322L22.7291 132.166C22.6397 131.93 22.4716 131.728 22.2495 131.588C22.0274 131.448 21.7629 131.377 21.4947 131.387C21.2266 131.397 20.969 131.487 20.7596 131.644C20.5502 131.8 20.4001 132.014 20.3312 132.255L18.2211 138.529C18.2213 138.533 18.2213 138.537 18.2211 138.54C18.2043 138.606 18.1827 138.67 18.1565 138.733C18.0253 139.077 17.7839 139.376 17.4647 139.588C17.1456 139.8 16.7641 139.915 16.3721 139.918V139.932H9.25892C8.94924 139.981 8.66892 140.133 8.46852 140.358C8.26812 140.584 8.1608 140.868 8.16595 141.161C8.16453 141.35 8.20893 141.536 8.29583 141.707C8.38272 141.878 8.50988 142.028 8.66783 142.147L8.72583 142.191L14.2486 146.105C14.511 146.281 14.7244 146.513 14.8711 146.781C15.0178 147.05 15.0934 147.347 15.0917 147.648C15.091 147.788 15.0738 147.928 15.0404 148.064C15.0162 148.169 14.9818 148.272 14.9378 148.371L12.8434 154.635V154.657L12.8277 154.703C12.7939 154.819 12.7767 154.938 12.7764 155.058C12.7714 155.218 12.8004 155.377 12.8618 155.526C12.9233 155.676 13.0159 155.813 13.1343 155.929C13.2527 156.045 13.3946 156.137 13.5518 156.202C13.709 156.266 13.8783 156.301 14.0501 156.304C14.2732 156.305 14.4924 156.249 14.6835 156.142L14.9066 155.989L20.3892 152.115L20.5097 152.028C20.8137 151.832 21.1739 151.725 21.5438 151.722C21.9136 151.718 22.2761 151.819 22.5841 152.01C22.6519 152.05 22.716 152.095 22.7759 152.145L28.2273 156.003L28.3812 156.114C28.5816 156.231 28.8138 156.292 29.0504 156.29C29.2218 156.286 29.3908 156.25 29.5476 156.186C29.7044 156.121 29.8459 156.029 29.9641 155.913C30.0822 155.797 30.1746 155.66 30.236 155.511C30.2973 155.362 30.3265 155.203 30.3218 155.044C30.3225 154.919 30.3029 154.793 30.2638 154.674C30.2638 154.655 30.2504 154.635 30.2459 154.614L28.1425 148.328C28.1075 148.246 28.08 148.162 28.06 148.076C27.9716 147.733 27.9874 147.373 28.1055 147.038C28.2237 146.702 28.4396 146.404 28.7292 146.176C28.776 146.139 28.8251 146.106 28.8741 146.073L34.3367 142.209L34.5018 142.089C34.644 141.971 34.7574 141.825 34.8344 141.662C34.9113 141.5 34.95 141.324 34.9479 141.146C34.9487 140.85 34.8342 140.563 34.6254 140.339C34.4166 140.115 34.1279 139.97 33.8125 139.929Z" fill="#D2DCE4"/>
<g filter="url(#filter2_d_6544_14667)">
<path d="M108.268 60.5942H67.1426C64.6257 60.5942 62.5853 62.6346 62.5853 65.1515V105.395C62.5853 107.912 64.6257 109.952 67.1426 109.952H108.268C110.785 109.952 112.825 107.912 112.825 105.395V65.1515C112.825 62.6346 110.785 60.5942 108.268 60.5942Z" fill="white"/>
<path d="M108.268 61.0959H67.1427C64.9028 61.0959 63.087 62.9117 63.087 65.1516V105.395C63.087 107.635 64.9028 109.451 67.1427 109.451H108.268C110.508 109.451 112.323 107.635 112.323 105.395V65.1516C112.323 62.9117 110.508 61.0959 108.268 61.0959Z" stroke="#D2DCE4" stroke-width="1.00328"/>
</g>
<path d="M95.6549 89.5314C95.6549 86.654 93.8968 84.7576 91.1047 83.5805L88.9331 82.6976L89.071 77.466C90.3464 77.6295 91.932 78.4143 93.104 79.6568L95.2412 76.4197C93.8624 74.8503 91.5184 73.9347 89.4501 73.7712L89.4846 71.9402H87.0027L86.9338 73.7058C85.0724 73.8693 83.2799 74.4252 82.1079 75.4061C80.8325 76.4524 79.8328 77.9892 79.8328 80.1472C79.8328 82.8284 81.4874 84.2671 82.2458 84.823C83.0041 85.4115 84.0382 85.902 85.3481 86.4251L86.5201 86.8829L86.4167 92.3434C84.9345 92.3107 82.4526 91.1663 81.4529 89.6622L78.9021 92.9319C80.6256 94.9919 83.4522 96.169 86.0375 96.2671L85.9686 98H88.4505L88.5194 96.2017C89.8293 96.1036 91.7941 95.4823 93.0006 94.5668C94.345 93.5532 95.6549 91.8529 95.6549 89.5314ZM86.8993 77.4334L86.7959 81.9783L86.4167 81.8148C85.5549 81.4224 84.6587 80.8339 84.6587 79.6241C84.6587 78.3489 85.5894 77.5314 86.8993 77.4334ZM90.8979 90.1526C90.8979 91.4278 89.657 92.3107 88.5884 92.4088L88.6918 87.5369L89.2433 87.7984C90.2774 88.2889 90.8979 88.9101 90.8979 90.1526Z" fill="#D2DCE4"/>
<g filter="url(#filter3_d_6544_14667)">
<path d="M108.268 117.52H67.1426C64.6257 117.52 62.5853 119.56 62.5853 122.077V164.084C62.5853 166.601 64.6257 168.641 67.1426 168.641H108.268C110.785 168.641 112.825 166.601 112.825 164.084V122.077C112.825 119.56 110.785 117.52 108.268 117.52Z" fill="white"/>
<path d="M108.268 118.021H67.1427C64.9028 118.021 63.087 119.837 63.087 122.077V164.083C63.087 166.323 64.9028 168.139 67.1427 168.139H108.268C110.508 168.139 112.323 166.323 112.323 164.083V122.077C112.323 119.837 110.508 118.021 108.268 118.021Z" stroke="#D2DCE4" stroke-width="1.00328"/>
</g>
<path d="M99.8951 139.929H92.7886V139.916C92.3944 139.911 92.0113 139.794 91.6919 139.579C91.3725 139.363 91.1324 139.062 91.0042 138.715C90.9821 138.662 90.9635 138.607 90.9484 138.552L88.8629 132.322L88.8116 132.166C88.7222 131.93 88.5542 131.728 88.332 131.588C88.1099 131.448 87.8454 131.377 87.5773 131.387C87.3092 131.397 87.0515 131.487 86.8421 131.644C86.6328 131.8 86.4826 132.014 86.4137 132.255L84.3037 138.529C84.3038 138.533 84.3038 138.537 84.3037 138.54C84.2868 138.606 84.2652 138.67 84.239 138.733C84.1079 139.077 83.8664 139.376 83.5472 139.588C83.2281 139.8 82.8467 139.915 82.4546 139.918V139.932H75.3414C75.0318 139.981 74.7514 140.133 74.551 140.358C74.3506 140.584 74.2433 140.868 74.2485 141.161C74.2471 141.35 74.2915 141.536 74.3783 141.707C74.4652 141.878 74.5924 142.028 74.7503 142.147L74.8083 142.191L80.3311 146.105C80.5935 146.281 80.807 146.513 80.9536 146.781C81.1003 147.05 81.1759 147.347 81.1742 147.648C81.1735 147.788 81.1563 147.928 81.123 148.064C81.0987 148.169 81.0643 148.272 81.0203 148.371L78.9259 154.635V154.657L78.9103 154.703C78.8764 154.819 78.8592 154.938 78.859 155.058C78.8539 155.218 78.8829 155.377 78.9444 155.526C79.0058 155.676 79.0984 155.813 79.2168 155.929C79.3352 156.045 79.4771 156.137 79.6343 156.202C79.7915 156.266 79.9609 156.301 80.1326 156.304C80.3557 156.305 80.5749 156.249 80.7661 156.142L80.9891 155.989L86.4717 152.115L86.5922 152.028C86.8962 151.832 87.2565 151.725 87.6263 151.722C87.9962 151.718 88.3586 151.819 88.6666 152.01C88.7344 152.05 88.7985 152.095 88.8584 152.145L94.3098 156.003L94.4637 156.114C94.6641 156.231 94.8963 156.292 95.1329 156.29C95.3044 156.286 95.4733 156.25 95.6301 156.186C95.7869 156.121 95.9284 156.029 96.0466 155.913C96.1647 155.797 96.2571 155.66 96.3185 155.511C96.3799 155.362 96.409 155.203 96.4043 155.044C96.405 154.919 96.3855 154.793 96.3463 154.674C96.3463 154.655 96.3329 154.635 96.3284 154.614L94.225 148.328C94.1901 148.246 94.1625 148.162 94.1425 148.076C94.0541 147.733 94.0699 147.373 94.188 147.038C94.3062 146.702 94.5221 146.404 94.8117 146.176C94.8585 146.139 94.9076 146.106 94.9567 146.073L100.419 142.209L100.584 142.089C100.727 141.971 100.84 141.825 100.917 141.662C100.994 141.5 101.033 141.324 101.03 141.146C101.031 140.85 100.917 140.563 100.708 140.339C100.499 140.115 100.21 139.97 99.8951 139.929Z" fill="#FECE4D"/>
<g filter="url(#filter4_d_6544_14667)">
<path d="M173.49 60.5942H133.246C130.729 60.5942 128.689 62.6346 128.689 65.1515V105.395C128.689 107.912 130.729 109.952 133.246 109.952H173.49C176.007 109.952 178.047 107.912 178.047 105.395V65.1515C178.047 62.6346 176.007 60.5942 173.49 60.5942Z" fill="white"/>
<path d="M173.49 61.0959H133.247C131.007 61.0959 129.191 62.9117 129.191 65.1516V105.395C129.191 107.635 131.007 109.451 133.247 109.451H173.49C175.73 109.451 177.546 107.635 177.546 105.395V65.1516C177.546 62.9117 175.73 61.0959 173.49 61.0959Z" stroke="#D2DCE4" stroke-width="1.00328"/>
</g>
<path d="M161.737 89.5314C161.737 86.654 159.979 84.7576 157.187 83.5805L155.016 82.6976L155.153 77.466C156.429 77.6295 158.015 78.4143 159.187 79.6568L161.324 76.4197C159.945 74.8503 157.601 73.9347 155.533 73.7712L155.567 71.9402H153.085L153.016 73.7058C151.155 73.8693 149.362 74.4252 148.19 75.4061C146.915 76.4524 145.915 77.9892 145.915 80.1472C145.915 82.8284 147.57 84.2671 148.328 84.823C149.087 85.4115 150.121 85.902 151.431 86.4251L152.603 86.8829L152.499 92.3434C151.017 92.3107 148.535 91.1663 147.535 89.6622L144.985 92.9319C146.708 94.9919 149.535 96.169 152.12 96.2671L152.051 98H154.533L154.602 96.2017C155.912 96.1036 157.877 95.4823 159.083 94.5668C160.427 93.5532 161.737 91.8529 161.737 89.5314ZM152.982 77.4334L152.878 81.9783L152.499 81.8148C151.637 81.4224 150.741 80.8339 150.741 79.6241C150.741 78.3489 151.672 77.5314 152.982 77.4334ZM156.98 90.1526C156.98 91.4278 155.739 92.3107 154.671 92.4088L154.774 87.5369L155.326 87.7984C156.36 88.2889 156.98 88.9101 156.98 90.1526Z" fill="#D2DCE4"/>
<g filter="url(#filter5_d_6544_14667)">
<path d="M173.49 117.52H133.246C130.729 117.52 128.689 119.56 128.689 122.077V164.084C128.689 166.601 130.729 168.641 133.246 168.641H173.49C176.007 168.641 178.047 166.601 178.047 164.084V122.077C178.047 119.56 176.007 117.52 173.49 117.52Z" fill="white"/>
<path d="M173.49 118.021H133.247C131.007 118.021 129.191 119.837 129.191 122.077V164.083C129.191 166.323 131.007 168.139 133.247 168.139H173.49C175.73 168.139 177.546 166.323 177.546 164.083V122.077C177.546 119.837 175.73 118.021 173.49 118.021Z" stroke="#D2DCE4" stroke-width="1.00328"/>
</g>
<path d="M165.976 139.929H158.87V139.916C158.475 139.911 158.092 139.794 157.773 139.579C157.453 139.363 157.213 139.062 157.085 138.715C157.063 138.662 157.044 138.607 157.029 138.552L154.944 132.322L154.893 132.166C154.803 131.93 154.635 131.728 154.413 131.588C154.191 131.448 153.926 131.377 153.658 131.387C153.39 131.397 153.132 131.487 152.923 131.644C152.714 131.8 152.564 132.014 152.495 132.255L150.385 138.529C150.385 138.533 150.385 138.537 150.385 138.54C150.368 138.606 150.346 138.67 150.32 138.733C150.189 139.077 149.947 139.376 149.628 139.588C149.309 139.8 148.928 139.915 148.536 139.918V139.932H141.422C141.113 139.981 140.832 140.133 140.632 140.358C140.432 140.584 140.324 140.868 140.329 141.161C140.328 141.35 140.372 141.536 140.459 141.707C140.546 141.878 140.673 142.028 140.831 142.147L140.889 142.191L146.412 146.105C146.674 146.281 146.888 146.513 147.035 146.781C147.181 147.05 147.257 147.347 147.255 147.648C147.254 147.788 147.237 147.928 147.204 148.064C147.18 148.169 147.145 148.272 147.101 148.371L145.007 154.635V154.657L144.991 154.703C144.957 154.819 144.94 154.938 144.94 155.058C144.935 155.218 144.964 155.377 145.025 155.526C145.087 155.676 145.179 155.813 145.298 155.929C145.416 156.045 145.558 156.137 145.715 156.202C145.872 156.266 146.042 156.301 146.214 156.304C146.437 156.305 146.656 156.249 146.847 156.142L147.07 155.989L152.553 152.115L152.673 152.028C152.977 151.832 153.337 151.725 153.707 151.722C154.077 151.718 154.44 151.819 154.748 152.01C154.815 152.05 154.879 152.095 154.939 152.145L160.391 156.003L160.545 156.114C160.745 156.231 160.977 156.292 161.214 156.29C161.385 156.286 161.554 156.25 161.711 156.186C161.868 156.121 162.009 156.029 162.128 155.913C162.246 155.797 162.338 155.66 162.399 155.511C162.461 155.362 162.49 155.203 162.485 155.044C162.486 154.919 162.466 154.793 162.427 154.674C162.427 154.655 162.414 154.635 162.409 154.614L160.306 148.328C160.271 148.246 160.243 148.162 160.223 148.076C160.135 147.733 160.151 147.373 160.269 147.038C160.387 146.702 160.603 146.404 160.893 146.176C160.939 146.139 160.989 146.106 161.038 146.073L166.5 142.209L166.665 142.089C166.808 141.971 166.921 141.825 166.998 141.662C167.075 141.5 167.113 141.324 167.111 141.146C167.112 140.85 166.998 140.563 166.789 140.339C166.58 140.115 166.291 139.97 165.976 139.929Z" fill="#D2DCE4"/>
<g filter="url(#filter6_d_6544_14667)">
<path d="M237.831 60.5942H198.468C195.951 60.5942 193.911 62.6346 193.911 65.1515V105.395C193.911 107.912 195.951 109.952 198.468 109.952H237.831C240.347 109.952 242.388 107.912 242.388 105.395V65.1515C242.388 62.6346 240.347 60.5942 237.831 60.5942Z" fill="white"/>
<path d="M237.831 61.0959H198.469C196.229 61.0959 194.413 62.9117 194.413 65.1516V105.395C194.413 107.635 196.229 109.451 198.469 109.451H237.831C240.071 109.451 241.886 107.635 241.886 105.395V65.1516C241.886 62.9117 240.071 61.0959 237.831 61.0959Z" stroke="#D2DCE4" stroke-width="1.00328"/>
</g>
<path d="M226.884 89.5314C226.884 86.654 225.126 84.7576 222.334 83.5805L220.162 82.6976L220.3 77.466C221.575 77.6295 223.161 78.4143 224.333 79.6568L226.47 76.4197C225.091 74.8503 222.747 73.9347 220.679 73.7712L220.713 71.9402H218.232L218.163 73.7058C216.301 73.8693 214.509 74.4252 213.337 75.4061C212.061 76.4524 211.062 77.9892 211.062 80.1472C211.062 82.8284 212.716 84.2671 213.475 84.823C214.233 85.4115 215.267 85.902 216.577 86.4251L217.749 86.8829L217.646 92.3434C216.163 92.3107 213.681 91.1663 212.682 89.6622L210.131 92.9319C211.855 94.9919 214.681 96.169 217.266 96.2671L217.197 98H219.679L219.748 96.2017C221.058 96.1036 223.023 95.4823 224.229 94.5668C225.574 93.5532 226.884 91.8529 226.884 89.5314ZM218.128 77.4334L218.025 81.9783L217.646 81.8148C216.784 81.4224 215.888 80.8339 215.888 79.6241C215.888 78.3489 216.818 77.5314 218.128 77.4334ZM222.127 90.1526C222.127 91.4278 220.886 92.3107 219.817 92.4088L219.921 87.5369L220.472 87.7984C221.506 88.2889 222.127 88.9101 222.127 90.1526Z" fill="#15C1E6"/>
<g filter="url(#filter7_d_6544_14667)">
<path d="M237.831 117.52H198.468C195.951 117.52 193.911 119.56 193.911 122.077V164.084C193.911 166.601 195.951 168.641 198.468 168.641H237.831C240.347 168.641 242.388 166.601 242.388 164.084V122.077C242.388 119.56 240.347 117.52 237.831 117.52Z" fill="white"/>
<path d="M237.831 118.021H198.469C196.229 118.021 194.413 119.837 194.413 122.077V164.083C194.413 166.323 196.229 168.139 198.469 168.139H237.831C240.071 168.139 241.886 166.323 241.886 164.083V122.077C241.886 119.837 240.071 118.021 237.831 118.021Z" stroke="#D2DCE4" stroke-width="1.00328"/>
</g>
<path d="M231.126 139.929H224.02V139.916C223.625 139.911 223.242 139.794 222.923 139.579C222.604 139.363 222.363 139.062 222.235 138.715C222.213 138.662 222.195 138.607 222.179 138.552L220.094 132.322L220.043 132.166C219.953 131.93 219.785 131.728 219.563 131.588C219.341 131.448 219.076 131.377 218.808 131.387C218.54 131.397 218.283 131.487 218.073 131.644C217.864 131.8 217.714 132.014 217.645 132.255L215.535 138.529C215.535 138.533 215.535 138.537 215.535 138.54C215.518 138.606 215.496 138.67 215.47 138.733C215.339 139.077 215.097 139.376 214.778 139.588C214.459 139.8 214.078 139.915 213.686 139.918V139.932H206.573C206.263 139.981 205.983 140.133 205.782 140.358C205.582 140.584 205.474 140.868 205.48 141.161C205.478 141.35 205.523 141.536 205.609 141.707C205.696 141.878 205.823 142.028 205.981 142.147L206.039 142.191L211.562 146.105C211.825 146.281 212.038 146.513 212.185 146.781C212.331 147.05 212.407 147.347 212.405 147.648C212.405 147.788 212.387 147.928 212.354 148.064C212.33 148.169 212.295 148.272 212.251 148.371L210.157 154.635V154.657L210.141 154.703C210.107 154.819 210.09 154.938 210.09 155.058C210.085 155.218 210.114 155.377 210.175 155.526C210.237 155.676 210.329 155.813 210.448 155.929C210.566 156.045 210.708 156.137 210.865 156.202C211.023 156.266 211.192 156.301 211.364 156.304C211.587 156.305 211.806 156.249 211.997 156.142L212.22 155.989L217.703 152.115L217.823 152.028C218.127 151.832 218.488 151.725 218.857 151.722C219.227 151.718 219.59 151.819 219.898 152.01C219.965 152.05 220.03 152.095 220.089 152.145L225.541 156.003L225.695 156.114C225.895 156.231 226.127 156.292 226.364 156.29C226.535 156.286 226.704 156.25 226.861 156.186C227.018 156.121 227.16 156.029 227.278 155.913C227.396 155.797 227.488 155.66 227.55 155.511C227.611 155.362 227.64 155.203 227.635 155.044C227.636 154.919 227.617 154.793 227.577 154.674C227.577 154.655 227.564 154.635 227.56 154.614L225.456 148.328C225.421 148.246 225.394 148.162 225.374 148.076C225.285 147.733 225.301 147.373 225.419 147.038C225.537 146.702 225.753 146.404 226.043 146.176C226.09 146.139 226.139 146.106 226.188 146.073L231.65 142.209L231.815 142.089C231.958 141.971 232.071 141.825 232.148 141.662C232.225 141.5 232.264 141.324 232.261 141.146C232.262 140.85 232.148 140.563 231.939 140.339C231.73 140.115 231.441 139.97 231.126 139.929Z" fill="#D2DCE4"/>
<g filter="url(#filter8_d_6544_14667)">
<path d="M304.816 60.5942H264.572C262.055 60.5942 260.015 62.6346 260.015 65.1515V105.395C260.015 107.912 262.055 109.952 264.572 109.952H304.816C307.333 109.952 309.373 107.912 309.373 105.395V65.1515C309.373 62.6346 307.333 60.5942 304.816 60.5942Z" fill="white"/>
<path d="M304.816 61.0959H264.573C262.333 61.0959 260.517 62.9117 260.517 65.1516V105.395C260.517 107.635 262.333 109.451 264.573 109.451H304.816C307.056 109.451 308.872 107.635 308.872 105.395V65.1516C308.872 62.9117 307.056 61.0959 304.816 61.0959Z" stroke="#D2DCE4" stroke-width="1.00328"/>
</g>
<path d="M293.899 89.5314C293.899 86.654 292.141 84.7576 289.348 83.5805L287.177 82.6976L287.315 77.466C288.59 77.6295 290.176 78.4143 291.348 79.6568L293.485 76.4197C292.106 74.8503 289.762 73.9347 287.694 73.7712L287.728 71.9402H285.246L285.178 73.7058C283.316 73.8693 281.524 74.4252 280.352 75.4061C279.076 76.4524 278.077 77.9892 278.077 80.1472C278.077 82.8284 279.731 84.2671 280.49 84.823C281.248 85.4115 282.282 85.902 283.592 86.4251L284.764 86.8829L284.66 92.3434C283.178 92.3107 280.696 91.1663 279.697 89.6622L277.146 92.9319C278.869 94.9919 281.696 96.169 284.281 96.2671L284.212 98H286.694L286.763 96.2017C288.073 96.1036 290.038 95.4823 291.244 94.5668C292.589 93.5532 293.899 91.8529 293.899 89.5314ZM285.143 77.4334L285.04 81.9783L284.66 81.8148C283.799 81.4224 282.902 80.8339 282.902 79.6241C282.902 78.3489 283.833 77.5314 285.143 77.4334ZM289.142 90.1526C289.142 91.4278 287.901 92.3107 286.832 92.4088L286.936 87.5369L287.487 87.7984C288.521 88.2889 289.142 88.9101 289.142 90.1526Z" fill="#D2DCE4"/>
<g filter="url(#filter9_d_6544_14667)">
<path d="M304.816 117.52H264.572C262.055 117.52 260.015 119.56 260.015 122.077V164.084C260.015 166.601 262.055 168.641 264.572 168.641H304.816C307.333 168.641 309.373 166.601 309.373 164.084V122.077C309.373 119.56 307.333 117.52 304.816 117.52Z" fill="white"/>
<path d="M304.816 118.021H264.573C262.333 118.021 260.517 119.837 260.517 122.077V164.083C260.517 166.323 262.333 168.139 264.573 168.139H304.816C307.056 168.139 308.872 166.323 308.872 164.083V122.077C308.872 119.837 307.056 118.021 304.816 118.021Z" stroke="#D2DCE4" stroke-width="1.00328"/>
</g>
<path d="M297.205 139.929H290.099V139.916C289.704 139.911 289.321 139.794 289.002 139.579C288.682 139.363 288.442 139.062 288.314 138.715C288.292 138.662 288.273 138.607 288.258 138.552L286.173 132.322L286.122 132.166C286.032 131.93 285.864 131.728 285.642 131.588C285.42 131.448 285.155 131.377 284.887 131.387C284.619 131.397 284.361 131.487 284.152 131.644C283.943 131.8 283.793 132.014 283.724 132.255L281.614 138.529C281.614 138.533 281.614 138.537 281.614 138.54C281.597 138.606 281.575 138.67 281.549 138.733C281.418 139.077 281.176 139.376 280.857 139.588C280.538 139.8 280.157 139.915 279.765 139.918V139.932H272.651C272.342 139.981 272.061 140.133 271.861 140.358C271.661 140.584 271.553 140.868 271.558 141.161C271.557 141.35 271.601 141.536 271.688 141.707C271.775 141.878 271.902 142.028 272.06 142.147L272.118 142.191L277.641 146.105C277.903 146.281 278.117 146.513 278.264 146.781C278.41 147.05 278.486 147.347 278.484 147.648C278.483 147.788 278.466 147.928 278.433 148.064C278.409 148.169 278.374 148.272 278.33 148.371L276.236 154.635V154.657L276.22 154.703C276.186 154.819 276.169 154.938 276.169 155.058C276.164 155.218 276.193 155.377 276.254 155.526C276.316 155.676 276.408 155.813 276.527 155.929C276.645 156.045 276.787 156.137 276.944 156.202C277.101 156.266 277.271 156.301 277.443 156.304C277.666 156.305 277.885 156.249 278.076 156.142L278.299 155.989L283.782 152.115L283.902 152.028C284.206 151.832 284.566 151.725 284.936 151.722C285.306 151.718 285.669 151.819 285.977 152.01C286.044 152.05 286.108 152.095 286.168 152.145L291.62 156.003L291.774 156.114C291.974 156.231 292.206 156.292 292.443 156.29C292.614 156.286 292.783 156.25 292.94 156.186C293.097 156.121 293.238 156.029 293.357 155.913C293.475 155.797 293.567 155.66 293.628 155.511C293.69 155.362 293.719 155.203 293.714 155.044C293.715 154.919 293.695 154.793 293.656 154.674C293.656 154.655 293.643 154.635 293.638 154.614L291.535 148.328C291.5 148.246 291.472 148.162 291.452 148.076C291.364 147.733 291.38 147.373 291.498 147.038C291.616 146.702 291.832 146.404 292.122 146.176C292.168 146.139 292.218 146.106 292.267 146.073L297.729 142.209L297.894 142.089C298.037 141.971 298.15 141.825 298.227 141.662C298.304 141.5 298.342 141.324 298.34 141.146C298.341 140.85 298.227 140.563 298.018 140.339C297.809 140.115 297.52 139.97 297.205 139.929Z" fill="#D2DCE4"/>
<g filter="url(#filter10_d_6544_14667)">
<path d="M41.3741 4H2.01188C-0.505042 4 -2.54541 6.04037 -2.54541 8.55729V48.8009C-2.54541 51.3178 -0.505042 53.3582 2.01188 53.3582H41.3741C43.891 53.3582 45.9314 51.3178 45.9314 48.8009V8.55729C45.9314 6.04037 43.891 4 41.3741 4Z" fill="white"/>
<path d="M41.374 4.50171H2.01183C-0.228047 4.50171 -2.04382 6.31749 -2.04382 8.55736V48.801C-2.04382 51.0408 -0.228047 52.8566 2.01183 52.8566H41.374C43.6139 52.8566 45.4297 51.0408 45.4297 48.801V8.55736C45.4297 6.31749 43.6139 4.50171 41.374 4.50171Z" stroke="#D2DCE4" stroke-width="1.00328"/>
</g>
<path fill-rule="evenodd" clip-rule="evenodd" d="M36.4989 39.9466C37.258 39.9466 37.7183 39.1089 37.3113 38.4681L28.5401 24.6584C28.162 24.0631 27.2933 24.0631 26.9152 24.6584L20.6065 34.591C20.2785 35.1074 19.5584 35.1908 19.1211 34.763L14.6894 30.4284C14.2927 30.0403 13.6509 30.0673 13.2881 30.4872L6.49078 38.3549C5.95206 38.9785 6.39503 39.9466 7.21907 39.9466H17.2049H23.9353H36.4989Z" fill="#9D97F4"/>
<path d="M13.3649 20.4983C13.3649 22.3487 11.8647 23.8488 10.0141 23.8488C8.16343 23.8488 6.66321 22.3487 6.66321 20.4983C6.66321 18.6478 8.16343 17.1477 10.0141 17.1477C11.8647 17.1477 13.3649 18.6478 13.3649 20.4983Z" fill="#9D97F4"/>
<g filter="url(#filter11_d_6544_14667)">
<path d="M108.256 4H67.1311C64.6142 4 62.5739 6.04037 62.5739 8.55729V48.8009C62.5739 51.3178 64.6142 53.3582 67.1311 53.3582H108.256C110.773 53.3582 112.813 51.3178 112.813 48.8009V8.55729C112.813 6.04037 110.773 4 108.256 4Z" fill="white"/>
<path d="M108.256 4.50171H67.1311C64.8912 4.50171 63.0754 6.31749 63.0754 8.55736V48.801C63.0754 51.0408 64.8912 52.8566 67.1311 52.8566H108.256C110.496 52.8566 112.312 51.0408 112.312 48.801V8.55736C112.312 6.31749 110.496 4.50171 108.256 4.50171Z" stroke="#D2DCE4" stroke-width="1.00328"/>
</g>
<path fill-rule="evenodd" clip-rule="evenodd" d="M102.574 39.9471C103.333 39.9471 103.793 39.1094 103.386 38.4686L94.6151 24.6589C94.237 24.0636 93.3682 24.0636 92.9902 24.6589L86.6814 34.5915C86.3535 35.1079 85.6334 35.1913 85.1961 34.7635L80.7644 30.4288C80.3677 30.0408 79.7259 30.0678 79.3632 30.4877L72.5659 38.3554C72.0272 38.979 72.4701 39.9471 73.2942 39.9471H83.2799H90.0103H102.574Z" fill="#D2DCE4"/>
<path d="M79.4396 20.4978C79.4396 22.3482 77.9394 23.8483 76.0888 23.8483C74.2381 23.8483 72.7379 22.3482 72.7379 20.4978C72.7379 18.6473 74.2381 17.1472 76.0888 17.1472C77.9394 17.1472 79.4396 18.6473 79.4396 20.4978Z" fill="#D2DCE4"/>
<g filter="url(#filter12_d_6544_14667)">
<path d="M173.452 4H133.208C130.691 4 128.651 6.04037 128.651 8.55729V48.8009C128.651 51.3178 130.691 53.3582 133.208 53.3582H173.452C175.969 53.3582 178.009 51.3178 178.009 48.8009V8.55729C178.009 6.04037 175.969 4 173.452 4Z" fill="white"/>
<path d="M173.451 4.50171H133.208C130.968 4.50171 129.152 6.31749 129.152 8.55736V48.801C129.152 51.0408 130.968 52.8566 133.208 52.8566H173.451C175.691 52.8566 177.507 51.0408 177.507 48.801V8.55736C177.507 6.31749 175.691 4.50171 173.451 4.50171Z" stroke="#D2DCE4" stroke-width="1.00328"/>
</g>
<path fill-rule="evenodd" clip-rule="evenodd" d="M168.651 39.9466C169.41 39.9466 169.87 39.1089 169.463 38.4681L160.692 24.6584C160.314 24.0631 159.445 24.0631 159.067 24.6584L152.758 34.591C152.43 35.1074 151.71 35.1908 151.273 34.763L146.841 30.4284C146.445 30.0403 145.803 30.0673 145.44 30.4872L138.643 38.3549C138.104 38.9785 138.547 39.9466 139.371 39.9466H149.357H156.087H168.651Z" fill="#D2DCE4"/>
<path d="M145.517 20.4978C145.517 22.3482 144.016 23.8483 142.166 23.8483C140.315 23.8483 138.815 22.3482 138.815 20.4978C138.815 18.6473 140.315 17.1472 142.166 17.1472C144.016 17.1472 145.517 18.6473 145.517 20.4978Z" fill="#D2DCE4"/>
<g filter="url(#filter13_d_6544_14667)">
<path d="M238.182 4H198.82C196.303 4 194.263 6.04037 194.263 8.55729V48.8009C194.263 51.3178 196.303 53.3582 198.82 53.3582H238.182C240.699 53.3582 242.74 51.3178 242.74 48.8009V8.55729C242.74 6.04037 240.699 4 238.182 4Z" fill="white"/>
<path d="M238.183 4.50171H198.821C196.581 4.50171 194.765 6.31749 194.765 8.55736V48.801C194.765 51.0408 196.581 52.8566 198.821 52.8566H238.183C240.423 52.8566 242.238 51.0408 242.238 48.801V8.55736C242.238 6.31749 240.423 4.50171 238.183 4.50171Z" stroke="#D2DCE4" stroke-width="1.00328"/>
</g>
<path fill-rule="evenodd" clip-rule="evenodd" d="M233.145 39.9471C233.904 39.9471 234.365 39.1094 233.958 38.4686L225.187 24.6589C224.808 24.0636 223.94 24.0636 223.562 24.6589L217.253 34.5915C216.925 35.1079 216.205 35.1913 215.768 34.7635L211.336 30.4288C210.939 30.0408 210.297 30.0678 209.935 30.4877L203.137 38.3554C202.599 38.979 203.042 39.9471 203.866 39.9471H213.851H220.582H233.145Z" fill="#D2DCE4"/>
<path d="M210.011 20.4978C210.011 22.3482 208.511 23.8483 206.66 23.8483C204.81 23.8483 203.31 22.3482 203.31 20.4978C203.31 18.6473 204.81 17.1472 206.66 17.1472C208.511 17.1472 210.011 18.6473 210.011 20.4978Z" fill="#D2DCE4"/>
<g filter="url(#filter14_d_6544_14667)">
<path d="M305.195 4.11816H264.951C262.434 4.11816 260.394 6.15853 260.394 8.67545V48.9191C260.394 51.436 262.434 53.4764 264.951 53.4764H305.195C307.712 53.4764 309.752 51.436 309.752 48.9191V8.67545C309.752 6.15853 307.712 4.11816 305.195 4.11816Z" fill="white"/>
<path d="M305.195 4.61987H264.952C262.712 4.61987 260.896 6.43565 260.896 8.67552V48.9191C260.896 51.159 262.712 52.9748 264.952 52.9748H305.195C307.435 52.9748 309.251 51.159 309.251 48.9191V8.67552C309.251 6.43565 307.435 4.61987 305.195 4.61987Z" stroke="#D2DCE4" stroke-width="1.00328"/>
</g>
<path fill-rule="evenodd" clip-rule="evenodd" d="M300.154 40.0652C300.913 40.0652 301.373 39.2275 300.967 38.5868L292.195 24.777C291.817 24.1818 290.948 24.1818 290.57 24.777L284.262 34.7097C283.934 35.226 283.214 35.3094 282.776 34.8817L278.345 30.547C277.948 30.159 277.306 30.1859 276.943 30.6058L270.146 38.4736C269.607 39.0971 270.05 40.0652 270.874 40.0652H280.86H287.59H300.154Z" fill="#D2DCE4"/>
<path d="M277.02 20.6167C277.02 22.4671 275.52 23.9672 273.669 23.9672C271.819 23.9672 270.319 22.4671 270.319 20.6167C270.319 18.7662 271.819 17.2661 273.669 17.2661C275.52 17.2661 277.02 18.7662 277.02 20.6167Z" fill="#D2DCE4"/>
</g>
</g>
<defs>
<filter id="filter0_d_6544_14667" x="-7.55729" y="56.0369" width="66.706" height="67.5874" filterUnits="userSpaceOnUse" color-interpolation-filters="sRGB">
<feFlood flood-opacity="0" result="BackgroundImageFix"/>
<feColorMatrix in="SourceAlpha" type="matrix" values="0 0 0 0 0 0 0 0 0 0 0 0 0 0 0 0 0 0 127 0" result="hardAlpha"/>
<feOffset dx="4.55729" dy="4.55729"/>
<feGaussianBlur stdDeviation="4.55729"/>
<feColorMatrix type="matrix" values="0 0 0 0 0.0941177 0 0 0 0 0.188235 0 0 0 0 0.247059 0 0 0 0.05 0"/>
<feBlend mode="normal" in2="BackgroundImageFix" result="effect1_dropShadow_6544_14667"/>
<feBlend mode="normal" in="SourceGraphic" in2="effect1_dropShadow_6544_14667" result="shape"/>
</filter>
<filter id="filter1_d_6544_14667" x="-7.19962" y="112.962" width="66.706" height="69.3507" filterUnits="userSpaceOnUse" color-interpolation-filters="sRGB">
<feFlood flood-opacity="0" result="BackgroundImageFix"/>
<feColorMatrix in="SourceAlpha" type="matrix" values="0 0 0 0 0 0 0 0 0 0 0 0 0 0 0 0 0 0 127 0" result="hardAlpha"/>
<feOffset dx="4.55729" dy="4.55729"/>
<feGaussianBlur stdDeviation="4.55729"/>
<feColorMatrix type="matrix" values="0 0 0 0 0.0941177 0 0 0 0 0.188235 0 0 0 0 0.247059 0 0 0 0.05 0"/>
<feBlend mode="normal" in2="BackgroundImageFix" result="effect1_dropShadow_6544_14667"/>
<feBlend mode="normal" in="SourceGraphic" in2="effect1_dropShadow_6544_14667" result="shape"/>
</filter>
<filter id="filter2_d_6544_14667" x="58.028" y="56.0369" width="68.4688" height="67.5874" filterUnits="userSpaceOnUse" color-interpolation-filters="sRGB">
<feFlood flood-opacity="0" result="BackgroundImageFix"/>
<feColorMatrix in="SourceAlpha" type="matrix" values="0 0 0 0 0 0 0 0 0 0 0 0 0 0 0 0 0 0 127 0" result="hardAlpha"/>
<feOffset dx="4.55729" dy="4.55729"/>
<feGaussianBlur stdDeviation="4.55729"/>
<feColorMatrix type="matrix" values="0 0 0 0 0.0941177 0 0 0 0 0.188235 0 0 0 0 0.247059 0 0 0 0.05 0"/>
<feBlend mode="normal" in2="BackgroundImageFix" result="effect1_dropShadow_6544_14667"/>
<feBlend mode="normal" in="SourceGraphic" in2="effect1_dropShadow_6544_14667" result="shape"/>
</filter>
<filter id="filter3_d_6544_14667" x="58.028" y="112.962" width="68.4688" height="69.3507" filterUnits="userSpaceOnUse" color-interpolation-filters="sRGB">
<feFlood flood-opacity="0" result="BackgroundImageFix"/>
<feColorMatrix in="SourceAlpha" type="matrix" values="0 0 0 0 0 0 0 0 0 0 0 0 0 0 0 0 0 0 127 0" result="hardAlpha"/>
<feOffset dx="4.55729" dy="4.55729"/>
<feGaussianBlur stdDeviation="4.55729"/>
<feColorMatrix type="matrix" values="0 0 0 0 0.0941177 0 0 0 0 0.188235 0 0 0 0 0.247059 0 0 0 0.05 0"/>
<feBlend mode="normal" in2="BackgroundImageFix" result="effect1_dropShadow_6544_14667"/>
<feBlend mode="normal" in="SourceGraphic" in2="effect1_dropShadow_6544_14667" result="shape"/>
</filter>
<filter id="filter4_d_6544_14667" x="124.132" y="56.0369" width="67.5877" height="67.5874" filterUnits="userSpaceOnUse" color-interpolation-filters="sRGB">
<feFlood flood-opacity="0" result="BackgroundImageFix"/>
<feColorMatrix in="SourceAlpha" type="matrix" values="0 0 0 0 0 0 0 0 0 0 0 0 0 0 0 0 0 0 127 0" result="hardAlpha"/>
<feOffset dx="4.55729" dy="4.55729"/>
<feGaussianBlur stdDeviation="4.55729"/>
<feColorMatrix type="matrix" values="0 0 0 0 0.0941177 0 0 0 0 0.188235 0 0 0 0 0.247059 0 0 0 0.05 0"/>
<feBlend mode="normal" in2="BackgroundImageFix" result="effect1_dropShadow_6544_14667"/>
<feBlend mode="normal" in="SourceGraphic" in2="effect1_dropShadow_6544_14667" result="shape"/>
</filter>
<filter id="filter5_d_6544_14667" x="124.132" y="112.962" width="67.5877" height="69.3507" filterUnits="userSpaceOnUse" color-interpolation-filters="sRGB">
<feFlood flood-opacity="0" result="BackgroundImageFix"/>
<feColorMatrix in="SourceAlpha" type="matrix" values="0 0 0 0 0 0 0 0 0 0 0 0 0 0 0 0 0 0 127 0" result="hardAlpha"/>
<feOffset dx="4.55729" dy="4.55729"/>
<feGaussianBlur stdDeviation="4.55729"/>
<feColorMatrix type="matrix" values="0 0 0 0 0.0941177 0 0 0 0 0.188235 0 0 0 0 0.247059 0 0 0 0.05 0"/>
<feBlend mode="normal" in2="BackgroundImageFix" result="effect1_dropShadow_6544_14667"/>
<feBlend mode="normal" in="SourceGraphic" in2="effect1_dropShadow_6544_14667" result="shape"/>
</filter>
<filter id="filter6_d_6544_14667" x="189.354" y="56.0369" width="66.7062" height="67.5874" filterUnits="userSpaceOnUse" color-interpolation-filters="sRGB">
<feFlood flood-opacity="0" result="BackgroundImageFix"/>
<feColorMatrix in="SourceAlpha" type="matrix" values="0 0 0 0 0 0 0 0 0 0 0 0 0 0 0 0 0 0 127 0" result="hardAlpha"/>
<feOffset dx="4.55729" dy="4.55729"/>
<feGaussianBlur stdDeviation="4.55729"/>
<feColorMatrix type="matrix" values="0 0 0 0 0.0941177 0 0 0 0 0.188235 0 0 0 0 0.247059 0 0 0 0.05 0"/>
<feBlend mode="normal" in2="BackgroundImageFix" result="effect1_dropShadow_6544_14667"/>
<feBlend mode="normal" in="SourceGraphic" in2="effect1_dropShadow_6544_14667" result="shape"/>
</filter>
<filter id="filter7_d_6544_14667" x="189.354" y="112.962" width="66.7062" height="69.3507" filterUnits="userSpaceOnUse" color-interpolation-filters="sRGB">
<feFlood flood-opacity="0" result="BackgroundImageFix"/>
<feColorMatrix in="SourceAlpha" type="matrix" values="0 0 0 0 0 0 0 0 0 0 0 0 0 0 0 0 0 0 127 0" result="hardAlpha"/>
<feOffset dx="4.55729" dy="4.55729"/>
<feGaussianBlur stdDeviation="4.55729"/>
<feColorMatrix type="matrix" values="0 0 0 0 0.0941177 0 0 0 0 0.188235 0 0 0 0 0.247059 0 0 0 0.05 0"/>
<feBlend mode="normal" in2="BackgroundImageFix" result="effect1_dropShadow_6544_14667"/>
<feBlend mode="normal" in="SourceGraphic" in2="effect1_dropShadow_6544_14667" result="shape"/>
</filter>
<filter id="filter8_d_6544_14667" x="255.458" y="56.0369" width="67.5877" height="67.5874" filterUnits="userSpaceOnUse" color-interpolation-filters="sRGB">
<feFlood flood-opacity="0" result="BackgroundImageFix"/>
<feColorMatrix in="SourceAlpha" type="matrix" values="0 0 0 0 0 0 0 0 0 0 0 0 0 0 0 0 0 0 127 0" result="hardAlpha"/>
<feOffset dx="4.55729" dy="4.55729"/>
<feGaussianBlur stdDeviation="4.55729"/>
<feColorMatrix type="matrix" values="0 0 0 0 0.0941177 0 0 0 0 0.188235 0 0 0 0 0.247059 0 0 0 0.05 0"/>
<feBlend mode="normal" in2="BackgroundImageFix" result="effect1_dropShadow_6544_14667"/>
<feBlend mode="normal" in="SourceGraphic" in2="effect1_dropShadow_6544_14667" result="shape"/>
</filter>
<filter id="filter9_d_6544_14667" x="255.458" y="112.962" width="67.5877" height="69.3507" filterUnits="userSpaceOnUse" color-interpolation-filters="sRGB">
<feFlood flood-opacity="0" result="BackgroundImageFix"/>
<feColorMatrix in="SourceAlpha" type="matrix" values="0 0 0 0 0 0 0 0 0 0 0 0 0 0 0 0 0 0 127 0" result="hardAlpha"/>
<feOffset dx="4.55729" dy="4.55729"/>
<feGaussianBlur stdDeviation="4.55729"/>
<feColorMatrix type="matrix" values="0 0 0 0 0.0941177 0 0 0 0 0.188235 0 0 0 0 0.247059 0 0 0 0.05 0"/>
<feBlend mode="normal" in2="BackgroundImageFix" result="effect1_dropShadow_6544_14667"/>
<feBlend mode="normal" in="SourceGraphic" in2="effect1_dropShadow_6544_14667" result="shape"/>
</filter>
<filter id="filter10_d_6544_14667" x="-7.1027" y="-0.55729" width="66.706" height="67.5873" filterUnits="userSpaceOnUse" color-interpolation-filters="sRGB">
<feFlood flood-opacity="0" result="BackgroundImageFix"/>
<feColorMatrix in="SourceAlpha" type="matrix" values="0 0 0 0 0 0 0 0 0 0 0 0 0 0 0 0 0 0 127 0" result="hardAlpha"/>
<feOffset dx="4.55729" dy="4.55729"/>
<feGaussianBlur stdDeviation="4.55729"/>
<feColorMatrix type="matrix" values="0 0 0 0 0.0941177 0 0 0 0 0.188235 0 0 0 0 0.247059 0 0 0 0.05 0"/>
<feBlend mode="normal" in2="BackgroundImageFix" result="effect1_dropShadow_6544_14667"/>
<feBlend mode="normal" in="SourceGraphic" in2="effect1_dropShadow_6544_14667" result="shape"/>
</filter>
<filter id="filter11_d_6544_14667" x="58.0166" y="-0.55729" width="68.4688" height="67.5873" filterUnits="userSpaceOnUse" color-interpolation-filters="sRGB">
<feFlood flood-opacity="0" result="BackgroundImageFix"/>
<feColorMatrix in="SourceAlpha" type="matrix" values="0 0 0 0 0 0 0 0 0 0 0 0 0 0 0 0 0 0 127 0" result="hardAlpha"/>
<feOffset dx="4.55729" dy="4.55729"/>
<feGaussianBlur stdDeviation="4.55729"/>
<feColorMatrix type="matrix" values="0 0 0 0 0.0941177 0 0 0 0 0.188235 0 0 0 0 0.247059 0 0 0 0.05 0"/>
<feBlend mode="normal" in2="BackgroundImageFix" result="effect1_dropShadow_6544_14667"/>
<feBlend mode="normal" in="SourceGraphic" in2="effect1_dropShadow_6544_14667" result="shape"/>
</filter>
<filter id="filter12_d_6544_14667" x="124.093" y="-0.55729" width="67.5879" height="67.5873" filterUnits="userSpaceOnUse" color-interpolation-filters="sRGB">
<feFlood flood-opacity="0" result="BackgroundImageFix"/>
<feColorMatrix in="SourceAlpha" type="matrix" values="0 0 0 0 0 0 0 0 0 0 0 0 0 0 0 0 0 0 127 0" result="hardAlpha"/>
<feOffset dx="4.55729" dy="4.55729"/>
<feGaussianBlur stdDeviation="4.55729"/>
<feColorMatrix type="matrix" values="0 0 0 0 0.0941177 0 0 0 0 0.188235 0 0 0 0 0.247059 0 0 0 0.05 0"/>
<feBlend mode="normal" in2="BackgroundImageFix" result="effect1_dropShadow_6544_14667"/>
<feBlend mode="normal" in="SourceGraphic" in2="effect1_dropShadow_6544_14667" result="shape"/>
</filter>
<filter id="filter13_d_6544_14667" x="189.706" y="-0.55729" width="66.7062" height="67.5873" filterUnits="userSpaceOnUse" color-interpolation-filters="sRGB">
<feFlood flood-opacity="0" result="BackgroundImageFix"/>
<feColorMatrix in="SourceAlpha" type="matrix" values="0 0 0 0 0 0 0 0 0 0 0 0 0 0 0 0 0 0 127 0" result="hardAlpha"/>
<feOffset dx="4.55729" dy="4.55729"/>
<feGaussianBlur stdDeviation="4.55729"/>
<feColorMatrix type="matrix" values="0 0 0 0 0.0941177 0 0 0 0 0.188235 0 0 0 0 0.247059 0 0 0 0.05 0"/>
<feBlend mode="normal" in2="BackgroundImageFix" result="effect1_dropShadow_6544_14667"/>
<feBlend mode="normal" in="SourceGraphic" in2="effect1_dropShadow_6544_14667" result="shape"/>
</filter>
<filter id="filter14_d_6544_14667" x="255.837" y="-0.439126" width="67.5877" height="67.5873" filterUnits="userSpaceOnUse" color-interpolation-filters="sRGB">
<feFlood flood-opacity="0" result="BackgroundImageFix"/>
<feColorMatrix in="SourceAlpha" type="matrix" values="0 0 0 0 0 0 0 0 0 0 0 0 0 0 0 0 0 0 127 0" result="hardAlpha"/>
<feOffset dx="4.55729" dy="4.55729"/>
<feGaussianBlur stdDeviation="4.55729"/>
<feColorMatrix type="matrix" values="0 0 0 0 0.0941177 0 0 0 0 0.188235 0 0 0 0 0.247059 0 0 0 0.05 0"/>
<feBlend mode="normal" in2="BackgroundImageFix" result="effect1_dropShadow_6544_14667"/>
<feBlend mode="normal" in="SourceGraphic" in2="effect1_dropShadow_6544_14667" result="shape"/>
</filter>
<clipPath id="clip0_6544_14667">
<path d="M0 0H306V138.5C306 142.642 302.642 146 298.5 146H7.49999C3.35786 146 0 142.642 0 138.5V0Z" fill="white"/>
</clipPath>
</defs>
</svg>
