<svg width="244" height="138" viewBox="0 0 244 138" fill="none" xmlns="http://www.w3.org/2000/svg">
<g clip-path="url(#clip0_6540_15614)">
<g filter="url(#filter0_d_6540_15614)">
<path d="M232.575 5.02368H11.4248C7.87648 5.02368 5 7.90016 5 11.4485V153.325C5 156.874 7.87648 159.75 11.4248 159.75H232.575C236.124 159.75 239 156.874 239 153.325V11.4485C239 7.90016 236.124 5.02368 232.575 5.02368Z" fill="white"/>
<path d="M11.4248 5.52353H232.575C235.847 5.52353 238.5 8.17622 238.5 11.4485V153.325C238.5 156.598 235.847 159.25 232.575 159.25H11.4248C8.15254 159.25 5.49985 156.598 5.49985 153.325V11.4485C5.49985 8.17622 8.15254 5.52353 11.4248 5.52353Z" stroke="#D2DCE4" stroke-width="0.999694"/>
</g>
<g filter="url(#filter1_f_6540_15614)">
<path d="M18.8634 50.804H72.0197C72.5936 50.804 73.0588 51.2693 73.0588 51.8432V141.429C73.0588 142.002 72.5936 142.468 72.0197 142.468H18.8634C18.2895 142.468 17.8243 142.002 17.8243 141.429V51.8432C17.8243 51.2693 18.2895 50.804 18.8634 50.804Z" fill="#EDF1F6" stroke="#D2DCE4" stroke-width="0.692766"/>
<path d="M83.8921 50.8041H225.492C226.065 50.8041 226.531 51.2694 226.531 51.8433V73.7873C226.531 74.3612 226.065 74.8265 225.492 74.8265H83.8921C83.3182 74.8265 82.853 74.3612 82.853 73.7873V51.8433C82.853 51.2694 83.3182 50.8041 83.8921 50.8041Z" fill="#EDF1F6" stroke="#D2DCE4" stroke-width="0.692766"/>
<path d="M83.8921 84.9356H225.492C226.065 84.9356 226.531 85.4009 226.531 85.9748V107.919C226.531 108.493 226.065 108.958 225.492 108.958H83.8921C83.3182 108.958 82.853 108.493 82.853 107.919V85.9748C82.853 85.4009 83.3182 84.9356 83.8921 84.9356Z" fill="#EDF1F6" stroke="#D2DCE4" stroke-width="0.692766"/>
<path d="M83.9182 119.067H225.518C226.092 119.067 226.557 119.532 226.557 120.106V142.05C226.557 142.624 226.092 143.089 225.518 143.089H83.9182C83.3443 143.089 82.8791 142.624 82.8791 142.05V120.106C82.8791 119.532 83.3443 119.067 83.9182 119.067Z" fill="#EDF1F6" stroke="#D2DCE4" stroke-width="0.692766"/>
</g>
<line x1="5.68079" y1="38.758" x2="238.609" y2="38.7579" stroke="#D2DCE4" stroke-width="0.510676"/>
<path d="M35.7098 27.3221H211.003C211.426 27.3221 211.769 27.6651 211.769 28.0881V32.0497C211.769 32.4728 211.426 32.8157 211.003 32.8157H35.7098C35.2868 32.8157 34.9438 32.4728 34.9438 32.0497V28.0881C34.9438 27.6651 35.2868 27.3221 35.7098 27.3221Z" fill="#EDF1F6" stroke="#D2DCE4" stroke-width="0.510676"/>
<path d="M22.7418 28.3385L24.7843 30.381L22.7418 32.4234" stroke="#D2DCE4" stroke-width="0.766014" stroke-linecap="round"/>
<path d="M16.1011 32.0903L14.0586 30.0479L16.1011 28.0054" stroke="#D2DCE4" stroke-width="0.766014" stroke-linecap="round"/>
<path d="M6.05029 10.8557C6.05029 8.16216 8.23382 5.97864 10.9273 5.97864H232.772C235.631 5.97864 237.949 8.29654 237.949 11.1558V21.2603H6.05029V10.8557Z" fill="#EDF1F6"/>
<path d="M16.8182 13.4352C16.8193 13.8939 16.6843 14.3427 16.4304 14.7246C16.1764 15.1066 15.8149 15.4045 15.3916 15.5809C14.9683 15.7572 14.5022 15.8039 14.0524 15.715C13.6025 15.6262 13.1891 15.4059 12.8645 15.0819C12.5399 14.758 12.3186 14.345 12.2288 13.8951C12.1389 13.4453 12.1845 12.9789 12.3597 12.555C12.5349 12.1311 12.8319 11.7687 13.2131 11.5137C13.5942 11.2588 14.0425 11.1227 14.501 11.1227C15.1132 11.127 15.6992 11.3719 16.1327 11.8045C16.5661 12.2371 16.8123 12.8228 16.8182 13.4352V13.4352Z" fill="#F66058"/>
<path d="M26.9418 13.4354C26.9429 13.8943 26.8078 14.3432 26.5536 14.7253C26.2994 15.1074 25.9376 15.4054 25.514 15.5815C25.0903 15.7577 24.624 15.804 24.174 15.7148C23.724 15.6255 23.3106 15.4046 22.9862 15.0801C22.6618 14.7556 22.441 14.342 22.3517 13.8918C22.2625 13.4416 22.3089 12.9751 22.4849 12.5513C22.661 12.1275 22.9589 11.7654 23.3408 11.5112C23.7227 11.2569 24.1715 11.1217 24.6302 11.1228C24.9342 11.1214 25.2355 11.1801 25.5166 11.2958C25.7977 11.4115 26.0531 11.5818 26.2681 11.7969C26.483 12.0119 26.6532 12.2674 26.7689 12.5487C26.8845 12.8299 26.9433 13.1313 26.9418 13.4354Z" fill="#F9BD2E"/>
<path d="M37.0619 13.4354C37.063 13.8941 36.9281 14.3428 36.6741 14.7248C36.4202 15.1067 36.0587 15.4047 35.6354 15.581C35.2121 15.7573 34.746 15.804 34.2962 15.7152C33.8463 15.6264 33.4329 15.406 33.1083 15.0821C32.7837 14.7581 32.5624 14.3451 32.4725 13.8953C32.3827 13.4454 32.4282 12.979 32.6035 12.5551C32.7787 12.1312 33.0757 11.7688 33.4568 11.5139C33.838 11.2589 34.2862 11.1228 34.7448 11.1228C35.357 11.1272 35.943 11.372 36.3765 11.8046C36.8099 12.2372 37.0561 12.8229 37.0619 13.4354V13.4354Z" fill="#3CC840"/>
<g filter="url(#filter2_d_6540_15614)">
<rect x="80.144" y="59.251" width="84.513" height="83.0303" rx="6.43765" fill="white"/>
<rect x="80.5752" y="59.6822" width="83.6506" height="82.1679" rx="6.00646" stroke="#D2DCE4" stroke-width="0.862377"/>
</g>
<rect x="102.018" y="93.6934" width="39.9026" height="31.9285" rx="3.47867" fill="#15C1E6" stroke="#15C1E6" stroke-width="0.632485"/>
<path d="M135.592 96.0382V78.5688C135.592 76.473 133.893 74.7739 131.797 74.7739H112.142C110.046 74.7739 108.347 76.473 108.347 78.5688V85.4061" stroke="#15C1E6" stroke-width="3.79491"/>
<rect x="117.967" y="101.007" width="8.00542" height="8.00542" rx="3.47867" fill="#384452" stroke="#15C1E6" stroke-width="0.632485"/>
<rect x="119.646" y="104.674" width="4.65157" height="11.9612" rx="2.32578" fill="#384452"/>
</g>
<defs>
<filter id="filter0_d_6540_15614" x="-5.36626" y="-1.19608" width="254.733" height="175.459" filterUnits="userSpaceOnUse" color-interpolation-filters="sRGB">
<feFlood flood-opacity="0" result="BackgroundImageFix"/>
<feColorMatrix in="SourceAlpha" type="matrix" values="0 0 0 0 0 0 0 0 0 0 0 0 0 0 0 0 0 0 127 0" result="hardAlpha"/>
<feOffset dy="4.14651"/>
<feGaussianBlur stdDeviation="5.18313"/>
<feColorMatrix type="matrix" values="0 0 0 0 0.0941177 0 0 0 0 0.188235 0 0 0 0 0.247059 0 0 0 0.05 0"/>
<feBlend mode="normal" in2="BackgroundImageFix" result="effect1_dropShadow_6540_15614"/>
<feBlend mode="normal" in="SourceGraphic" in2="effect1_dropShadow_6540_15614" result="shape"/>
</filter>
<filter id="filter1_f_6540_15614" x="14.2781" y="47.2578" width="215.825" height="99.3776" filterUnits="userSpaceOnUse" color-interpolation-filters="sRGB">
<feFlood flood-opacity="0" result="BackgroundImageFix"/>
<feBlend mode="normal" in="SourceGraphic" in2="BackgroundImageFix" result="shape"/>
<feGaussianBlur stdDeviation="1.59991" result="effect1_foregroundBlur_6540_15614"/>
</filter>
<filter id="filter2_d_6540_15614" x="69.7571" y="53.0188" width="105.287" height="103.804" filterUnits="userSpaceOnUse" color-interpolation-filters="sRGB">
<feFlood flood-opacity="0" result="BackgroundImageFix"/>
<feColorMatrix in="SourceAlpha" type="matrix" values="0 0 0 0 0 0 0 0 0 0 0 0 0 0 0 0 0 0 127 0" result="hardAlpha"/>
<feOffset dy="4.1548"/>
<feGaussianBlur stdDeviation="5.1935"/>
<feColorMatrix type="matrix" values="0 0 0 0 0.0941177 0 0 0 0 0.188235 0 0 0 0 0.247059 0 0 0 0.05 0"/>
<feBlend mode="normal" in2="BackgroundImageFix" result="effect1_dropShadow_6540_15614"/>
<feBlend mode="normal" in="SourceGraphic" in2="effect1_dropShadow_6540_15614" result="shape"/>
</filter>
<clipPath id="clip0_6540_15614">
<rect width="244" height="138" fill="white"/>
</clipPath>
</defs>
</svg>
