<svg width="97" height="41" viewBox="0 0 97 41" fill="none" xmlns="http://www.w3.org/2000/svg">
<g clip-path="url(#clip0_15712_16258)">
<path d="M96.5432 3.0968H0V37.0968H96.5432V3.0968Z" fill="#E32213"/>
<path d="M17.105 26.3724L11.2284 17.1168C10.6617 16.2353 10.9346 15.06 11.8161 14.5143C12.6975 13.9477 13.8729 14.2205 14.4185 15.102L17.084 19.3205L19.7494 15.102C20.3161 14.2205 21.4704 13.9686 22.3519 14.5143C23.2333 15.081 23.4852 16.2353 22.9395 17.1168L17.105 26.3724Z" fill="white"/>
<path d="M25.6469 26.3724L19.7703 17.1168C19.2037 16.2353 19.4765 15.06 20.358 14.5143C21.2395 13.9477 22.4148 14.2205 22.9605 15.102L25.6259 19.3205L28.2913 15.102C28.858 14.2205 30.0123 13.9686 30.8938 14.5143C31.7753 15.081 32.0271 16.2353 31.4815 17.1168L25.6469 26.3724Z" fill="white"/>
<path d="M38.0296 14.0735C34.5247 14.0735 31.6704 16.8439 31.6704 20.2649C31.6704 23.6859 34.5247 26.4563 38.0296 26.4563C41.5346 26.4563 44.3889 23.6859 44.3889 20.2649C44.3889 16.8439 41.5346 14.0735 38.0296 14.0735ZM38.0296 23.2032C36.5605 23.2032 35.3432 21.86 35.3432 20.2229C35.3432 18.5859 36.5395 17.2427 38.0296 17.2427C39.5198 17.2427 40.7161 18.5859 40.7161 20.2229C40.7161 21.86 39.5198 23.2032 38.0296 23.2032Z" fill="white"/>
<path d="M49.0691 26.1193H45.2914V18.6267C45.2914 16.2761 47.2012 14.3662 49.5518 14.3662H52.2593V17.6193H49.6568C49.3839 17.6193 49.0481 18.0181 49.0481 18.2909V26.1193H49.0691Z" fill="white"/>
<path d="M56.8346 22.2808V17.6005H58.4926C59.3951 17.6005 60.1087 16.866 60.1087 15.9845C60.1087 15.082 59.3741 14.3684 58.4926 14.3684H56.8346V12.7524C56.8346 11.8289 56.079 11.0734 55.0296 11.0734C54.0642 11.0734 53.3087 11.8919 53.3087 12.8783V22.5746C53.3087 24.5474 54.9037 26.1425 56.8766 26.1425H60.1087V22.8684H57.4222C57.1074 22.8684 56.8346 22.5956 56.8346 22.2808Z" fill="white"/>
<path d="M72.5543 21.4415C72.6383 21.0637 72.6802 20.6649 72.6802 20.2452C72.6802 16.8452 69.9099 14.0538 66.5099 14.0538C63.1099 14.0538 60.3395 16.8242 60.3395 20.2452C60.3395 23.6662 63.1099 26.4365 66.5099 26.4365C69.1333 26.4365 71.4 24.7785 72.2815 22.4489H68.5667C68.042 23.0575 67.2864 23.4353 66.4679 23.4353C65.2506 23.4353 64.2012 22.6168 63.7605 21.4415H72.5543ZM66.4679 17.0761C67.5593 17.0761 68.5037 17.7267 68.9864 18.6921H63.9284C64.4321 17.7267 65.3765 17.0761 66.4679 17.0761Z" fill="white"/>
<path d="M85.5667 26.1862H81.9148L81.8938 20.2677C81.8938 19.5121 81.558 17.6862 79.4383 17.6862C77.7383 17.6862 77.1087 19.1134 77.1087 19.9109C77.1087 21.5479 77.1087 26.1862 77.1087 26.1862H73.4988V19.9109C73.4988 17.5393 75.3457 14.2023 79.4383 14.2023C83.405 14.2023 85.5457 17.3294 85.5457 20.2677V26.1862H85.5667Z" fill="white"/>
</g>
<defs>
<clipPath id="clip0_15712_16258">
<rect width="96.5432" height="34" fill="white" transform="translate(0 3.0968)"/>
</clipPath>
</defs>
</svg>
