<svg width="198" height="205" viewBox="0 0 198 205" fill="none" xmlns="http://www.w3.org/2000/svg">
<ellipse cx="98.9555" cy="118.098" rx="87.3559" ry="86.8133" fill="#E7EEFF"/>
<g clip-path="url(#clip0_13862_2719)">
<path d="M139.114 149.71L137.522 132.785L139.114 149.71Z" fill="#DDD6FF"/>
<path d="M135.674 113.146L134.707 102.862C134.591 103.195 134.473 103.529 134.367 103.867L134.799 103.827L135.676 113.146H135.674Z" fill="white"/>
<path d="M137.523 132.785L137.482 132.356L137.523 132.785Z" fill="white"/>
<path d="M74.3844 189.228L45.2136 193.792L44.301 202.092H43.7185L43.3105 204.995H55.7665H64.9233V205H100.935V202.092H72.8775L74.8466 185.276H74.8395L74.3844 189.228Z" fill="#42505D"/>
<path d="M71.9389 201.593L72.5214 201.524L72.9294 204.995H60.4734H51.3166V205H15.3047V202.093H43.3624" fill="#42505D"/>
<path d="M74.3846 189.228L74.8398 185.276H46.209L45.2139 193.792L74.3846 189.228Z" fill="#303B45"/>
<path d="M7.97185 118.721H23.168L26.5473 116.009H5.26465V173.459L7.97185 172.667V118.721Z" fill="#42505D"/>
<path d="M112.076 124.645V175.412H16.268L16.051 176.103C15.8081 176.877 15.3035 177.575 14.5653 178.046L7.53558 182.541C6.82813 182.994 6.04757 183.234 5.26465 183.281V185.79H114.784V125.468L112.076 124.647V124.645ZM60.0241 182.784C58.8851 182.784 57.9631 181.862 57.9631 180.723C57.9631 179.584 58.8875 178.662 60.0241 178.662C61.1608 178.662 62.0852 179.584 62.0852 180.723C62.0852 181.862 61.1631 182.784 60.0241 182.784Z" fill="#42505D"/>
<path d="M10.3525 162.555V157.931L10.8501 157.853L11.0977 155.495L10.3525 155.61V151.073L11.5858 150.882L12.3758 143.392L10.3525 143.708V121.107H20.1932L23.1669 118.721H7.9707V172.667L9.33138 172.268L9.60964 169.637L10.1332 164.64L10.3525 162.555Z" fill="white"/>
<path d="M109.694 123.921V128.232L101.712 129.474L86.8741 173.025H47.2777H17.0175L16.2676 175.412H112.078V124.645L109.694 123.921ZM98.7546 141.843L100.389 137.049L109.694 135.599V140.136L98.7546 141.843ZM109.694 173.025H88.131L92.1871 161.119L109.694 158.391V173.025ZM109.694 153.155L94.0713 155.591L97.9222 144.291L109.694 142.459V153.158V153.155Z" fill="white"/>
<path d="M50.8474 137.4L27.0368 141.11L24.6055 148.852L49.9701 144.902L50.8474 137.4Z" fill="white"/>
<path d="M49.4307 149.521L23.1063 153.625L22.3398 156.065L49.1524 151.889L49.4307 149.521Z" fill="white"/>
<path d="M47.8493 168.021L47.8587 168.019L48.4837 162.692L18.8082 167.311L17.5631 171.283L17.082 172.815L47.8493 168.024V168.021Z" fill="white"/>
<path d="M10.3539 143.708L12.3772 143.392L13.8676 129.269H13.87C14.0964 127.121 15.1811 125.137 16.872 123.779L16.8672 123.772L20.1923 121.105H10.3516V143.706L10.3539 143.708Z" fill="#F2F0FF"/>
<path d="M109.694 123.921L104.173 122.247L101.709 129.477L109.694 128.234V123.921Z" fill="#C6DBFF"/>
<path d="M52.6305 122.164L28.7562 135.629L27.0371 141.11L50.8477 137.4L52.6305 122.164Z" fill="#C6DBFF"/>
<path d="M60.0239 178.661C58.8849 178.661 57.9629 179.583 57.9629 180.722C57.9629 181.861 58.8873 182.783 60.0239 182.783C61.1606 182.783 62.085 181.861 62.085 180.722C62.085 179.583 61.163 178.661 60.0239 178.661Z" fill="white"/>
<path d="M46.5219 168.024L17.0826 172.815L17.0166 173.025L45.9323 173.025L46.5219 168.024Z" fill="#C6DBFF"/>
<path d="M88.1299 173.025H109.693V158.39L92.186 161.116L88.1299 173.025Z" fill="#C6DBFF"/>
<path d="M47.4937 162.689L49.3653 151.889L22.3388 156.065L19.0656 166.488L18.8086 167.311L47.4937 162.689Z" fill="#C6DBFF"/>
<path d="M10.3525 162.555L10.8501 157.853L10.3525 157.93V162.555Z" fill="#F2F0FF"/>
<path d="M97.9222 144.289L94.0713 155.589L109.694 153.155V142.456L97.9222 144.289Z" fill="#C6DBFF"/>
<path d="M49.9699 144.902L24.6053 148.852L23.1055 153.625L49.4299 149.521L49.9699 144.902Z" fill="#C6DBFF"/>
<path d="M10.3525 155.61L11.0977 155.494L11.5859 150.882L10.3525 151.073V155.61Z" fill="#F2F0FF"/>
<path d="M109.695 135.599L100.387 137.049L98.7549 141.843L109.695 140.136V135.599Z" fill="#C6DBFF"/>
<path d="M89.6422 89.9322C86.013 89.5124 82.9049 86.817 82.1409 83.0416L80.127 73.0947L79.9501 72.2198C79.594 70.4606 77.8772 69.3216 76.118 69.6777C74.3588 70.0338 73.2198 71.7506 73.5759 73.5098C73.932 75.269 75.6488 76.408 77.408 76.0519L78.9361 83.5957L78.4055 83.7042C77.4174 83.9047 76.4411 83.8174 75.5521 83.5061L73.7174 95.2758H88.8051L89.6375 89.9298L89.6422 89.9322Z" fill="#FEB79C"/>
<path d="M78.4086 83.7067L78.9392 83.5982L77.4111 76.052C75.6496 76.4081 73.9352 75.2714 73.5791 73.5099C73.223 71.7507 74.3596 70.0339 76.1212 69.6778C77.8804 69.3217 79.5972 70.4584 79.9532 72.2199L80.1301 73.0925L82.144 83.0417C82.9081 86.8148 86.0185 89.5125 89.6454 89.9323C90.5297 90.0337 91.4447 90.0054 92.3644 89.8191L99.9412 88.2839L100.809 88.107C102.722 87.7203 104.066 86.1356 104.259 84.308C104.311 83.8128 104.285 83.2987 104.155 82.787L101.531 72.4463L87.5725 75.2738C85.6365 75.6652 83.7499 74.4296 83.3278 72.5076L80.7503 59.7781C82.7453 61.2261 85.3134 61.8746 87.9145 61.3487L97.7269 59.3607C98.2811 60.3064 98.7173 61.3416 98.998 62.457L99.6842 65.1666C102.92 63.8885 104.877 60.4455 104.162 56.9177C103.688 54.576 102.139 52.7295 100.137 51.7721C99.4012 49.0979 97.069 47.2373 94.3971 47.0251C93.9184 46.9567 93.4185 46.9614 92.9162 47.0628L92.5931 47.1288C92.5931 47.1288 92.5884 47.1288 92.5861 47.1288L87.4287 48.1735L86.8981 48.282C85.7638 48.5131 84.8253 49.1686 84.2098 50.0483C83.2311 49.2205 81.9011 48.8314 80.5499 49.105C78.5218 49.5153 77.1187 51.2792 77.0786 53.2625C71.5958 54.734 68.1269 60.2285 69.2707 65.8693L70.8459 73.649L70.9025 73.9225L71.169 75.2408L72.025 79.4666C72.4188 81.4121 73.8125 82.8955 75.5599 83.5062C76.4466 83.8151 77.4253 83.9024 78.4134 83.7043L78.4086 83.7067ZM100.455 75.6629C100.83 77.4362 99.696 79.1742 97.9226 79.5492C96.1493 79.9218 94.4089 78.7898 94.0363 77.0165L100.455 75.6629Z" fill="#091B36"/>
<path d="M98.9967 62.4593C98.7137 61.3463 98.2774 60.311 97.7256 59.363L87.9132 61.351C85.3121 61.8769 82.7464 61.2284 80.749 59.7804L83.3265 72.5099C83.7486 74.4319 85.6352 75.6675 87.5713 75.2761L101.529 72.4486L99.6853 65.1689L98.999 62.4593H98.9967Z" fill="#FEB79C"/>
<path d="M97.9205 79.5494C99.6938 79.1768 100.828 77.4364 100.453 75.6631L94.0342 77.0167C94.4068 78.79 96.1471 79.9243 97.9205 79.5494Z" fill="white"/>
<path d="M72.9922 95.2807L74.242 100.285L82.8117 134.599L79.2956 120.511L83.13 98.1294H84.3233L88.1577 120.511L83.7267 138.259L91.3247 107.838V95.2783H88.8086H73.7185H72.9922V95.2807Z" fill="white"/>
<path d="M88.1589 120.511L84.3245 98.1294H83.1313L79.2969 120.511L82.8129 134.599L83.7279 138.259L88.1589 120.511Z" fill="#9FC0FF"/>
<path d="M14.5646 178.043C15.3027 177.572 15.8074 176.876 16.0503 176.1L16.2672 175.409L17.0171 173.023L17.0832 172.815L17.5643 171.282L9.61008 169.636L9.33182 172.266L7.97114 172.664L5.26394 173.457L3.625 173.935C3.20053 174.063 2.78549 174.247 2.39167 174.497C0.172614 175.916 -0.475888 178.866 0.943741 181.085C1.9106 182.597 3.58963 183.38 5.26158 183.276C6.0445 183.227 6.82506 182.989 7.53252 182.536L14.5623 178.041L14.5646 178.043Z" fill="#FEB79C"/>
<path d="M20.1939 121.107L16.8689 123.774L16.8736 123.781C15.1828 125.14 14.098 127.123 13.8716 129.271H13.8692L12.3789 143.392L11.5889 150.879L11.1007 155.494L10.8508 157.853L10.3555 162.555L10.1362 164.639L9.61035 169.636L10.0348 165.63L18.7719 167.436L17.5669 171.282L18.812 167.311L19.0714 166.488L22.3446 156.065L23.111 153.624L24.6084 148.854L27.0397 141.109L28.7612 135.629L52.6355 122.164L51.197 144.71L78.5803 140.463V144.946L50.657 149.33L50.3787 151.698L96.5803 144.496L92.7341 155.796L48.4874 162.689L47.8625 168.021L90.8499 161.326L86.8599 173.027H47.2753H86.8717L101.709 129.476L104.174 122.246L109.694 123.921L112.078 124.645L114.786 125.465L125.07 128.587L136.25 131.981L134.42 112.545L132.828 111.781L123.546 107.331L112.562 102.065L100.844 96.4477L100.839 96.4594C99.205 95.6765 97.3892 95.2568 95.5026 95.2898V95.278H91.3263V107.838L83.7282 138.258L82.8156 134.598L74.2459 100.284L72.9961 95.2804H72.2014L64.4453 92.6628V92.6722C60.7406 91.4224 56.5006 92.0095 53.2109 94.6177C53.192 94.6319 53.1755 94.6484 53.159 94.6649L26.5492 116.011L23.1699 118.721L20.1963 121.107H20.1939Z" fill="#3D7FFC"/>
<path d="M10.0325 165.63L9.61035 169.637L17.5645 171.283L18.7696 167.436L10.0325 165.63Z" fill="white"/>
<path d="M133.407 89.0666L132.219 89.1772L133.771 105.844L134.959 105.733L133.407 89.0666Z" fill="#3D7FFC"/>
<path d="M140.199 161.225L139.114 149.71L137.523 132.785L137.482 132.356L135.674 113.146L134.797 103.827L134.365 103.867L133.61 103.937L133.792 105.892L134.419 112.545L136.249 131.981L137.81 148.564L139.114 162.418H179.991V161.225H140.199Z" fill="#3D7FFC"/>
<path d="M196.583 161.225H179.807V162.418H196.583V161.225Z" fill="#3D7FFC"/>
<path d="M193.191 125.156C191.717 125.241 190.349 124.645 189.408 123.624L192.17 152.959C189.613 152.959 187.736 155.032 187.977 157.589H148.123C147.883 155.032 145.617 152.959 143.06 152.959L137.83 97.3817C140.386 97.3817 142.263 95.3088 142.023 92.7525H181.876C182.117 95.3088 184.383 97.3817 186.939 97.3817L188.868 117.884C189.597 116.712 190.828 115.865 192.297 115.672L189.797 89.1162H133.413L134.708 102.864L135.675 113.149L137.483 132.358L137.523 132.79L139.115 149.712L140.2 161.227H176.825H196.584L195.712 151.945L194.596 140.093L193.191 125.159V125.156Z" fill="#0BE597"/>
<path d="M188.867 117.884L186.938 97.3816C184.382 97.3816 182.116 95.3087 181.875 92.7524H142.022C142.262 95.3087 140.385 97.3816 137.829 97.3816L143.06 152.959C145.616 152.959 147.882 155.032 148.123 157.588H187.976C187.735 155.032 189.613 152.959 192.169 152.959L189.407 123.623C188.747 122.907 188.297 121.985 188.176 120.945C188.049 119.832 188.318 118.766 188.867 117.884Z" fill="white"/>
<path d="M197.657 119.853C197.355 117.235 194.99 115.358 192.372 115.658C192.346 115.66 192.322 115.667 192.296 115.67C190.825 115.863 189.596 116.707 188.868 117.882C188.318 118.764 188.049 119.829 188.177 120.943C188.297 121.985 188.747 122.905 189.408 123.621C190.349 124.643 191.716 125.239 193.19 125.154C193.282 125.15 193.372 125.147 193.464 125.138C196.081 124.836 197.958 122.471 197.659 119.853H197.657Z" fill="#FEB79C"/>
<path d="M47.8503 168.024L47.2607 173.025H47.2725H47.2749H86.8594L90.8471 161.324L47.8597 168.019L47.8503 168.021V168.024Z" fill="#76A5FF"/>
<path d="M48.4756 162.69H48.485L92.7317 155.797L96.5779 144.496L50.3763 151.698L48.4756 162.69Z" fill="#76A5FF"/>
<path d="M78.5776 144.944V140.463L51.1943 144.708L50.6543 149.328L78.5776 144.944Z" fill="#76A5FF"/>
<path d="M148.744 128.977C148.268 129.795 147.453 130.131 146.516 130.137C144.523 130.152 143.187 128.714 143.037 126.826C142.894 125.035 144.047 123.555 146.096 123.543C147.004 123.537 147.795 123.846 148.325 124.52H148.352C148.313 124.232 148.286 123.894 148.247 123.453L148.037 120.973L149.802 120.964L150.572 129.966L148.879 129.978L148.78 128.98H148.738L148.744 128.977ZM148.574 126.79C148.484 125.733 147.666 124.81 146.522 124.816C145.377 124.822 144.769 125.754 144.853 126.811C144.943 127.911 145.74 128.774 146.902 128.765C147.98 128.759 148.67 127.98 148.571 126.787L148.574 126.79Z" fill="black"/>
<path d="M154.174 130.086C152.859 130.095 151.739 129.432 151.625 128.108C151.511 126.787 152.847 126.269 154.234 126.17L155.84 126.056L155.825 125.885C155.753 125.077 155.148 124.702 154.216 124.708C153.285 124.714 152.614 125.032 152.341 125.241L151.706 124.178C152.197 123.887 153.108 123.507 154.276 123.501C155.472 123.495 156.179 123.776 156.718 124.214C157.245 124.654 157.548 125.223 157.646 126.293L157.979 129.918L156.262 129.93L156.17 129.196C155.933 129.657 155.187 130.083 154.18 130.089L154.174 130.086ZM153.407 128.042C153.455 128.579 153.92 128.944 154.66 128.938C155.358 128.932 155.84 128.552 156.05 128.234L155.945 127.069L154.738 127.141C153.794 127.198 153.36 127.503 153.407 128.039V128.042Z" fill="black"/>
<path d="M162.274 128.627C162.636 128.627 162.903 128.519 162.903 128.519L163.125 129.813C163.044 129.84 162.532 130.026 161.78 130.032C160.399 130.041 159.772 129.454 159.62 127.806L159.347 124.885L158.346 124.891L158.227 123.603L159.227 123.597L159.059 121.809L160.821 121.8L160.989 123.588L162.544 123.579L162.666 124.864L161.112 124.873L161.351 127.429C161.441 128.396 161.645 128.63 162.274 128.627Z" fill="black"/>
<path d="M166.026 130.002C164.717 130.011 163.593 129.349 163.467 128.028C163.341 126.71 164.666 126.191 166.047 126.093L167.646 125.979L167.628 125.811C167.548 125.005 166.942 124.631 166.014 124.637C165.085 124.643 164.42 124.957 164.15 125.167L163.506 124.103C163.992 123.816 164.896 123.432 166.062 123.426C167.227 123.42 167.958 123.702 168.5 124.139C169.03 124.577 169.336 125.149 169.444 126.215L169.809 129.831L168.099 129.843L167.997 129.109C167.763 129.571 167.026 129.993 166.026 130.002ZM165.241 127.965C165.292 128.501 165.759 128.864 166.496 128.861C167.191 128.855 167.667 128.474 167.874 128.16L167.757 126.997L166.556 127.069C165.615 127.126 165.187 127.432 165.241 127.965Z" fill="black"/>
<path d="M173.109 124.633C172.528 124.636 172.258 124.846 172.291 125.146C172.318 125.418 172.564 125.637 173.334 125.856L173.819 125.996C175.347 126.443 175.925 126.934 176.021 127.845C176.147 129.046 175.23 129.942 173.577 129.954C172.549 129.96 171.357 129.576 170.755 128.992L171.36 127.851C172.21 128.42 172.917 128.702 173.487 128.699C174.152 128.696 174.433 128.456 174.394 128.09C174.361 127.764 174.077 127.584 173.19 127.314L172.387 127.072C171.357 126.766 170.787 126.209 170.695 125.286C170.578 124.145 171.608 123.399 172.894 123.39C174.083 123.384 174.775 123.678 175.368 124.049L174.724 125.157C174.308 124.888 173.714 124.63 173.106 124.633H173.109Z" fill="black"/>
<path d="M180.594 128.624C181.493 128.618 182.254 128.235 182.541 127.971L183.332 128.867C183 129.235 182.062 129.894 180.426 129.906C178.404 129.921 176.78 128.768 176.565 126.734C176.349 124.7 177.766 123.364 179.668 123.352C181.72 123.34 183.101 124.601 183.29 126.276C183.326 126.599 183.356 127.12 183.356 127.12L178.437 127.15C178.713 128.151 179.581 128.63 180.591 128.624H180.594ZM178.296 126.072L181.502 126.051C181.397 125.362 181.034 124.574 179.794 124.58C178.746 124.586 178.266 125.278 178.299 126.069L178.296 126.072Z" fill="black"/>
<path d="M187.572 128.46C187.932 128.46 188.195 128.352 188.195 128.352L188.441 129.643C188.36 129.67 187.857 129.856 187.111 129.862C185.742 129.871 185.11 129.286 184.924 127.645L184.594 124.736L183.603 124.742L183.459 123.46L184.451 123.454L184.25 121.671L185.993 121.662L186.197 123.445L187.737 123.436L187.884 124.715L186.344 124.724L186.635 127.267C186.745 128.229 186.952 128.463 187.572 128.46Z" fill="black"/>
<path d="M148.038 138.409C147.445 138.415 147.167 138.631 147.191 138.939C147.214 139.221 147.46 139.446 148.242 139.667L148.736 139.811C150.288 140.267 150.869 140.77 150.95 141.711C151.055 142.948 150.099 143.873 148.413 143.888C147.364 143.897 146.151 143.505 145.549 142.903L146.19 141.726C147.047 142.31 147.766 142.6 148.347 142.594C149.027 142.588 149.318 142.343 149.288 141.965C149.261 141.63 148.973 141.444 148.074 141.168L147.259 140.92C146.214 140.608 145.642 140.036 145.564 139.083C145.468 137.906 146.534 137.136 147.847 137.124C149.06 137.115 149.764 137.415 150.36 137.798L149.68 138.939C149.261 138.661 148.658 138.4 148.038 138.406V138.409Z" fill="black"/>
<path d="M154.218 143.831C152.888 143.843 151.753 143.166 151.636 141.809C151.519 140.455 152.873 139.919 154.275 139.814L155.902 139.691L155.887 139.517C155.812 138.687 155.201 138.307 154.257 138.316C153.314 138.325 152.637 138.651 152.358 138.867L151.714 137.777C152.211 137.48 153.134 137.085 154.317 137.073C155.501 137.061 156.243 137.351 156.792 137.798C157.325 138.247 157.634 138.831 157.732 139.928L158.071 143.645L156.333 143.663L156.237 142.911C155.998 143.385 155.243 143.822 154.224 143.834L154.218 143.831ZM153.439 141.74C153.487 142.291 153.958 142.663 154.71 142.657C155.417 142.651 155.905 142.255 156.115 141.932L156.007 140.739L154.785 140.817C153.829 140.88 153.391 141.192 153.439 141.743V141.74Z" fill="black"/>
<path d="M166.536 138.37C165.637 138.379 165.245 139.116 165.352 140.224L165.679 143.574L163.873 143.592L163.525 139.946C163.441 139.065 163.139 138.4 162.282 138.406C161.353 138.415 161.024 139.245 161.119 140.26L161.434 143.613L159.627 143.63L159.028 137.154L160.826 137.139L160.904 138.112H160.946C161.197 137.51 161.982 137.01 162.866 137.004C163.849 136.995 164.475 137.363 164.879 138.214C165.281 137.423 166.009 136.98 166.991 136.971C168.771 136.956 169.382 138.148 169.529 139.628L169.921 143.538L168.118 143.556L167.758 139.925C167.68 139.137 167.423 138.367 166.536 138.373V138.37Z" fill="black"/>
<path d="M172.83 137.957C173.298 137.181 174.077 136.881 174.972 136.875C176.955 136.857 178.328 138.31 178.534 140.227C178.732 142.058 177.615 143.583 175.55 143.604C174.511 143.613 173.897 143.271 173.271 142.633L173.244 142.648C173.289 142.957 173.334 143.25 173.381 143.709L173.615 145.967L171.827 145.985L170.919 137.061L172.737 137.046L172.803 137.951L172.833 137.963L172.83 137.957ZM172.986 140.275C173.097 141.357 173.939 142.301 175.092 142.292C176.245 142.283 176.83 141.324 176.716 140.242C176.596 139.122 175.778 138.25 174.616 138.259C173.537 138.268 172.863 139.062 172.989 140.275H172.986Z" fill="black"/>
<path d="M180.974 134.239L181.98 143.418L180.201 143.436L179.206 134.254L180.974 134.239Z" fill="black"/>
<path d="M186.989 142.205C187.897 142.196 188.664 141.8 188.954 141.531L189.76 142.444C189.428 142.822 188.484 143.502 186.83 143.517C184.787 143.538 183.139 142.36 182.909 140.275C182.681 138.211 184.101 136.818 186.024 136.803C188.097 136.785 189.502 138.073 189.7 139.787C189.739 140.12 189.772 140.653 189.772 140.653L184.802 140.698C185.087 141.722 185.967 142.211 186.986 142.202L186.989 142.205ZM184.652 139.595L187.891 139.565C187.783 138.861 187.411 138.052 186.156 138.064C185.096 138.073 184.619 138.783 184.652 139.595Z" fill="black"/>
<path d="M153.629 99.5068C153.605 99.2282 153.835 99.0005 154.144 99.0005H157.499C157.808 99.0005 158.077 99.2282 158.101 99.5068L158.35 102.539C158.374 102.817 158.143 103.042 157.835 103.042H154.491C154.183 103.042 153.916 102.817 153.892 102.539L153.629 99.5068Z" fill="#C0BAFC"/>
<path d="M166.343 105.106C166.322 104.83 166.556 104.603 166.861 104.603H170.199C170.507 104.603 170.771 104.827 170.792 105.106L171.005 108.108C171.026 108.383 170.792 108.605 170.486 108.605H167.161C166.855 108.605 166.589 108.383 166.571 108.108L166.346 105.106H166.343Z" fill="#C0BAFC"/>
<path d="M154.111 105.055C154.087 104.776 154.318 104.552 154.623 104.552H157.961C158.269 104.552 158.536 104.776 158.557 105.055L158.805 108.057C158.829 108.332 158.599 108.554 158.293 108.554H154.968C154.662 108.554 154.396 108.332 154.372 108.057L154.111 105.055Z" fill="#9D97F4"/>
<path d="M160.668 110.543C160.647 110.268 160.875 110.046 161.181 110.046H164.5C164.806 110.046 165.069 110.268 165.09 110.543L165.318 113.512C165.339 113.785 165.108 114.006 164.806 114.006H161.498C161.193 114.006 160.929 113.785 160.908 113.512L160.668 110.543Z" fill="#9D97F4"/>
<path d="M165.924 99.5068C165.903 99.2282 166.137 99.0005 166.445 99.0005H169.801C170.109 99.0005 170.376 99.2282 170.397 99.5068L170.613 102.539C170.634 102.817 170.4 103.042 170.091 103.042H166.748C166.439 103.042 166.173 102.817 166.152 102.539L165.924 99.5068Z" fill="#9D97F4"/>
<path d="M159.776 99.5068C159.752 99.2282 159.986 99.0005 160.294 99.0005H163.65C163.958 99.0005 164.225 99.2282 164.249 99.5068L164.482 102.539C164.503 102.817 164.273 103.042 163.964 103.042H160.621C160.312 103.042 160.046 102.817 160.022 102.539L159.776 99.5068Z" fill="#D4D0FF"/>
<path d="M154.591 110.594C154.567 110.319 154.794 110.097 155.1 110.097H158.419C158.725 110.097 158.991 110.319 159.012 110.594L159.258 113.563C159.279 113.836 159.051 114.058 158.749 114.058H155.441C155.136 114.058 154.872 113.836 154.848 113.563L154.591 110.594Z" fill="#D4D0FF"/>
<path d="M160.226 105.055C160.205 104.776 160.436 104.552 160.741 104.552H164.079C164.387 104.552 164.651 104.776 164.672 105.055L164.902 108.057C164.923 108.332 164.693 108.554 164.387 108.554H161.062C160.756 108.554 160.49 108.332 160.469 108.057L160.226 105.055Z" fill="#C5C0F8"/>
<path d="M166.751 110.543C166.73 110.268 166.961 110.046 167.267 110.046H170.586C170.892 110.046 171.155 110.268 171.173 110.543L171.383 113.512C171.401 113.785 171.17 114.006 170.868 114.006H167.56C167.255 114.006 166.991 113.785 166.973 113.512L166.751 110.543Z" fill="#C5C0F8"/>
</g>
<g clip-path="url(#clip1_13862_2719)">
<path d="M143.154 66.5457C143.169 65.7821 142.766 65.1136 142.169 64.776C142.78 64.462 143.208 63.809 143.221 63.0456C143.241 61.9596 142.424 61.063 141.391 61.0431L124.178 60.7058C123.147 60.6857 122.293 61.5508 122.271 62.6357C122.256 63.4005 122.658 64.068 123.255 64.4068C122.644 64.7208 122.218 65.3736 122.201 66.1362C122.186 66.901 122.588 67.5696 123.185 67.906C122.574 68.22 122.148 68.8728 122.132 69.6364C122.112 70.7238 122.93 71.6203 123.961 71.6392L141.176 71.9762C142.206 71.9965 143.062 71.1325 143.083 70.0463C143.098 69.2827 142.696 68.6141 142.097 68.2754C142.708 67.9615 143.136 67.3084 143.151 66.5448L143.154 66.5457Z" fill="#76A5FF"/>
<path d="M132.57 71.8087L123.963 71.6401C123.963 71.6401 125.337 74.8888 125.764 75.1733C126.191 75.4542 126.465 75.4605 127.186 75.4753C127.905 75.4888 132.498 75.5789 132.498 75.5789C132.498 75.5789 137.088 75.667 137.809 75.6815C138.529 75.6951 138.803 75.7002 139.241 75.4355C139.679 75.1694 141.179 71.977 141.179 71.977L132.571 71.8085L132.57 71.8087Z" fill="#3D7FFC"/>
<path d="M140.569 65.2642C140.497 65.2945 140.419 65.3109 140.334 65.3086L125.067 65.0118C124.752 65.0044 124.502 64.7446 124.508 64.4307C124.514 64.1168 124.773 63.8687 125.089 63.872L140.356 64.17C140.67 64.1762 140.921 64.4372 140.915 64.7511C140.909 64.9817 140.768 65.1784 140.568 65.2644L140.569 65.2642Z" fill="#3D7FFC"/>
<path d="M140.5 68.7644C140.428 68.7947 140.35 68.8111 140.265 68.81L124.999 68.5118C124.685 68.5044 124.435 68.2444 124.442 67.9305C124.448 67.6166 124.706 67.3673 125.021 67.372L140.29 67.6723C140.603 67.6786 140.854 67.9372 140.847 68.2525C140.842 68.4842 140.7 68.6798 140.5 68.7644Z" fill="#3D7FFC"/>
<path d="M154.575 36.1434C154.805 24.3822 145.457 14.659 133.693 14.4291C121.929 14.1981 112.207 23.5479 111.977 35.3103C111.873 40.6204 113.723 45.5128 116.863 49.3067C116.902 49.3526 117.079 49.5361 117.127 49.5867C121.892 54.6839 124.076 59.1818 124.046 60.7027L132.782 60.874L141.52 61.0449C141.549 59.5254 143.921 55.1396 148.864 50.241C148.922 50.183 149.078 50.01 149.105 49.9795C152.414 46.3071 154.469 41.4737 154.573 36.1426L154.575 36.1434Z" fill="#FFD03E"/>
<path d="M125.22 60.7267C124.756 57.8632 122.366 54.0332 118.66 49.9499L118.1 49.2847C115.004 45.6115 113.352 40.9415 113.446 36.1347C113.66 25.208 122.724 16.4928 133.65 16.707C144.576 16.9201 153.292 25.9837 153.079 36.9102C152.985 41.717 151.15 46.3172 147.916 49.8682L147.328 50.5125C143.467 54.4459 140.926 58.407 140.352 61.022L125.219 60.7269L125.22 60.7267Z" fill="#FECE4D"/>
<path d="M144.388 20.1283C148.015 24.0342 150.196 29.2938 150.084 35.0312C149.982 40.1969 147.462 45.1319 143.985 48.947L143.352 49.6395C139.204 53.8678 136.472 58.1231 135.857 60.9348L140.351 61.0223C140.925 58.4073 143.466 54.4462 147.327 50.5128L147.915 49.8685C151.15 46.3176 152.984 41.7173 153.078 36.9105C153.215 29.9648 149.741 23.7739 144.388 20.1283Z" fill="#FECE4D"/>
<path opacity="0.5" d="M131.136 59.5851L129.997 59.5613L130.244 46.9582C130.298 44.2412 128.938 41.4559 126.204 38.6801C125.984 38.4563 125.986 38.0958 126.211 37.8743C126.434 37.6568 126.794 37.6567 127.016 37.8803C129.974 40.8842 131.442 43.945 131.382 46.9807L131.137 59.5837L131.136 59.5851Z" fill="white"/>
<path opacity="0.5" d="M135.275 60.1847C135.203 60.215 135.125 60.2314 135.042 60.2301C134.728 60.2239 134.478 59.9639 134.484 59.65L134.729 47.047C134.79 44.0124 136.377 41.0108 139.452 38.1251C139.679 37.9106 140.041 37.9214 140.255 38.15C140.471 38.3794 140.458 38.7391 140.23 38.9549C137.389 41.6226 135.921 44.3516 135.868 47.0696L135.62 59.673C135.617 59.9032 135.474 60.0991 135.274 60.1849L135.275 60.1847Z" fill="white"/>
<path d="M139.223 37.7885C139.097 37.8424 138.947 37.7996 138.872 37.679C138.788 37.5461 138.827 37.3697 138.959 37.2875C141.285 35.8073 142.057 35.1504 142.312 34.8694C141.685 34.9278 140.102 35.4666 139.535 35.6604L139.201 35.7743C139.081 35.8149 138.946 35.7686 138.874 35.6623C138.803 35.5558 138.812 35.4152 138.895 35.3186C141.454 32.3789 141.965 31.4045 142.059 31.0998C141.272 31.296 138.334 33.5397 137.804 34.3893C137.725 34.5152 137.565 34.5598 137.433 34.493C137.302 34.4261 137.243 34.2705 137.298 34.1325C138.793 30.4181 138.974 29.3185 138.957 28.9946C138.682 29.1647 137.816 29.9521 135.378 33.5961C135.302 33.709 135.16 33.7519 135.035 33.7014C134.909 33.6511 134.838 33.5199 134.861 33.3882C135.557 29.549 135.567 28.3206 135.506 27.927C134.948 28.6037 133.655 31.8332 133.185 33.638C133.15 33.7753 133.016 33.8654 132.875 33.8485C132.733 33.8318 132.627 33.7124 132.625 33.57C132.589 29.7253 132.405 28.3993 132.282 27.9438C131.876 28.8466 131.278 32.208 130.978 34.4879C130.962 34.6222 130.853 34.7231 130.719 34.7336C130.584 34.7443 130.462 34.6586 130.424 34.5295C129.134 30.0738 128.527 28.85 128.282 28.5161C128.029 29.4947 128.497 33.9918 128.764 34.8734C128.8 34.9991 128.75 35.1339 128.638 35.2005C128.525 35.2686 128.384 35.2504 128.291 35.1588C125.364 32.2491 124.322 31.5155 123.957 31.3401C124.239 32.3921 127.114 36.5145 127.662 37.1122C127.768 37.2279 127.76 37.408 127.645 37.5135C127.53 37.6204 127.35 37.6124 127.244 37.4967C127.194 37.4427 122.678 31.6273 123.503 30.834C123.772 30.5781 124.102 30.2587 128.05 34.1201C127.773 32.3113 127.38 28.5619 127.927 27.9827C128.036 27.8681 128.183 27.8219 128.33 27.8588C128.594 27.924 129.067 28.0384 130.598 33.103C131.171 29.1509 131.754 27.1664 132.336 27.2024C132.675 27.2219 133.052 27.2463 133.169 31.834C133.816 29.9322 134.913 27.0958 135.672 27.2656C136.003 27.3385 136.443 27.4347 135.653 32.1856C138.512 28.0437 138.957 28.2769 139.258 28.4355C139.631 28.6319 139.831 29.1544 138.364 32.9909C139.606 31.8692 141.536 30.4633 142.229 30.5222C142.41 30.5387 142.552 30.6374 142.616 30.7947C142.716 31.0441 142.898 31.4938 140.004 34.9064C142.103 34.2155 142.765 34.1502 142.962 34.5578C143.103 34.8528 143.278 35.218 139.267 37.7701C139.253 37.7798 139.238 37.7871 139.225 37.7931L139.223 37.7885Z" fill="white"/>
<path d="M133.997 10.7515C133.925 10.7818 133.846 10.7972 133.764 10.7969C133.45 10.7907 133.2 10.5307 133.205 10.217L133.313 4.73242C133.319 4.41973 133.578 4.17037 133.894 4.17493C134.207 4.18128 134.458 4.44106 134.452 4.75496L134.344 10.2396C134.34 10.4686 134.197 10.6669 133.997 10.7515Z" fill="#FFD03E"/>
<path d="M144.62 13.2612C144.476 13.323 144.306 13.3245 144.153 13.2513C143.869 13.1161 143.748 12.7757 143.884 12.4928L146.243 7.53936C146.379 7.25643 146.717 7.13576 147 7.26993C147.284 7.40513 147.405 7.74556 147.27 8.02829L144.911 12.9817C144.849 13.1122 144.744 13.2087 144.621 13.261L144.62 13.2612Z" fill="#FFD03E"/>
<path d="M153.263 19.9253C153.038 20.0202 152.771 19.9643 152.605 19.769C152.402 19.5287 152.431 19.1702 152.671 18.9673L156.862 15.4262C157.102 15.2221 157.462 15.2543 157.664 15.4947C157.865 15.7351 157.837 16.0936 157.595 16.2967L153.405 19.8364C153.361 19.8735 153.311 19.9027 153.262 19.9243L153.263 19.9253Z" fill="#FFD03E"/>
<path d="M163.667 28.0629C163.645 28.0715 163.623 28.08 163.599 28.0864L158.322 29.585C158.019 29.6701 157.705 29.4939 157.619 29.1913C157.535 28.8895 157.712 28.579 158.011 28.4894L163.288 26.9908C163.59 26.9046 163.905 27.0806 163.99 27.3834C164.069 27.6624 163.927 27.9512 163.666 28.0619L163.667 28.0629Z" fill="#FFD03E"/>
<path d="M164.512 41.2611C164.42 41.301 164.314 41.3157 164.207 41.2995L158.782 40.489C158.472 40.4437 158.257 40.1545 158.305 39.8426C158.35 39.531 158.639 39.3153 158.951 39.3639L164.374 40.1735C164.686 40.2197 164.899 40.5091 164.853 40.8197C164.824 41.0242 164.689 41.1853 164.512 41.2599L164.512 41.2611Z" fill="#FFD03E"/>
<path d="M123.287 12.8423C122.998 12.965 122.665 12.8317 122.541 12.5426L120.378 7.50236C120.254 7.2133 120.387 6.87878 120.676 6.75487C120.676 6.75487 120.677 6.75481 120.678 6.75468C120.966 6.63218 121.299 6.76556 121.424 7.05322L123.586 12.0949C123.71 12.3839 123.577 12.7184 123.287 12.8423Z" fill="#FFD03E"/>
<path d="M114.39 19.1641C114.193 19.2483 113.954 19.2163 113.784 19.0614L109.735 15.3616C109.503 15.1497 109.487 14.7897 109.699 14.5579C109.91 14.3249 110.27 14.3087 110.504 14.5216L114.552 18.2214C114.784 18.4346 114.8 18.7933 114.59 19.0261C114.532 19.0877 114.464 19.1334 114.391 19.1651L114.39 19.1641Z" fill="#FFD03E"/>
<path d="M108.891 28.5922C108.769 28.6442 108.627 28.6535 108.491 28.6098L103.278 26.9057C102.979 26.809 102.815 26.4879 102.913 26.1889C103.01 25.8889 103.332 25.7272 103.631 25.8252L108.846 27.5279C109.145 27.6246 109.307 27.9459 109.209 28.2449C109.156 28.4087 109.037 28.5299 108.892 28.592L108.891 28.5922Z" fill="#FFD03E"/>
<path d="M107.764 39.4481C107.715 39.4698 107.661 39.4835 107.604 39.4891L102.152 40.0873C101.839 40.1218 101.558 39.8956 101.525 39.5843C101.49 39.2721 101.716 38.9921 102.028 38.9564L107.48 38.3582C107.791 38.3238 108.073 38.5499 108.106 38.8611C108.135 39.1172 107.99 39.3519 107.764 39.4469L107.764 39.4481Z" fill="#FFD03E"/>
</g>
<defs>
<clipPath id="clip0_13862_2719">
<rect width="197.493" height="158.02" fill="white" transform="translate(0.194336 46.9802)"/>
</clipPath>
<clipPath id="clip1_13862_2719">
<rect width="63.6186" height="71.3339" fill="white" transform="translate(96.7539 10.1938) rotate(-9.22036)"/>
</clipPath>
</defs>
</svg>
