<svg xmlns="http://www.w3.org/2000/svg" width="18" height="18"
  viewBox="0 0 18 18" fill="#526373">
  <g transform="translate(-563 -2560)">
    <rect fill="none" width="18" height="18" transform="translate(563 2560)"/>
    <path fill-rule="evenodd" d="M12.353,16.489h2.729V26H12.353Zm1.295-1.19h-.02a1.65,1.65,0,0,1,.039-3.3,1.65,1.65,0,1,1-.019,3.3ZM26,26H22.906V21.078c0-1.288-.484-2.167-1.548-2.167a1.585,1.585,0,0,0-1.478,1.165,2.368,2.368,0,0,0-.067.777V26H16.748s.04-8.718,0-9.511h3.065v1.493A2.772,2.772,0,0,1,22.537,16.4C24.476,16.4,26,17.767,26,20.711V26Z" transform="translate(553 2550)"/>
  </g>
</svg>
