<svg xmlns="http://www.w3.org/2000/svg" width="18.004" height="18"
  viewBox="0 0 18.004 18" fill="#526373">
  <g transform="translate(-562.996 -2560)">
    <rect fill="none" width="18" height="18" transform="translate(563 2560)"/>
    <path fill-rule="evenodd" d="M20.678,21.039a1.23,1.23,0,0,1-1.238-1.208,1.246,1.246,0,0,1,1.238-1.225A1.229,1.229,0,0,1,21.9,19.832a1.213,1.213,0,0,1-1.219,1.208m.286,2.344a4.032,4.032,0,0,1-2.955.922H17.99a4.028,4.028,0,0,1-2.954-.922.483.483,0,0,1,0-.689.5.5,0,0,1,.7,0,3.143,3.143,0,0,0,2.258.637h.019a3.147,3.147,0,0,0,2.26-.637.5.5,0,0,1,.7,0,.484.484,0,0,1,0,.689M14.1,19.832a1.245,1.245,0,0,1,1.237-1.225,1.229,1.229,0,0,1,1.219,1.225,1.213,1.213,0,0,1-1.219,1.208A1.229,1.229,0,0,1,14.1,19.832M24,12.14a.819.819,0,1,1-.826.818A.824.824,0,0,1,24,12.14m3,6.366a2.166,2.166,0,0,0-3.527-1.663,10.251,10.251,0,0,0-4.789-1.422l.936-2.933,2.573.6a1.8,1.8,0,1,0,.2-.955l-2.99-.7a.492.492,0,0,0-.581.327L17.66,15.4a10.444,10.444,0,0,0-5.168,1.413A2.166,2.166,0,0,0,9,18.506a2.136,2.136,0,0,0,.937,1.764,3.73,3.73,0,0,0-.036.515,4.7,4.7,0,0,0,2.441,3.871,10.459,10.459,0,0,0,5.623,1.514,10.459,10.459,0,0,0,5.623-1.514,4.7,4.7,0,0,0,2.441-3.871,3.738,3.738,0,0,0-.03-.47,2.139,2.139,0,0,0,1-1.809" transform="translate(553.998 2550.165)"/>
  </g>
</svg>
