<svg width="47" height="47" viewBox="0 0 47 47" fill="none" xmlns="http://www.w3.org/2000/svg">
<g clip-path="url(#clip0_6003_4094)">
<g clip-path="url(#clip1_6003_4094)">
<path d="M37.3424 17.863L34.8371 20.3683C34.2835 20.922 34.2835 21.7571 34.8371 22.3108C35.1185 22.5922 35.8084 23.1459 36.7796 22.3108L40.2561 18.8343C40.5375 18.5529 40.6737 18.2806 40.6737 17.863C40.6737 17.4455 40.5375 17.1641 40.2561 16.8918L36.7796 13.4153C36.2259 12.8616 35.3908 12.8616 34.8371 13.4153C34.2835 13.969 34.2835 14.8041 34.8371 15.3578L37.3424 17.863Z" fill="#FECE4D"/>
<path d="M27.3313 17.8708L29.8365 20.3761C30.3902 20.9298 30.3902 21.7649 29.8365 22.3186C29.5551 22.6 28.8653 23.1537 27.894 22.3186L24.4175 18.8421C24.1362 18.5607 24 18.2884 24 17.8708C24 17.4533 24.1362 17.1719 24.4175 16.8996L27.894 13.4231C28.4477 12.8694 29.2828 12.8694 29.8365 13.4231C30.3902 13.9768 30.3902 14.8119 29.8365 15.3656L27.3313 17.8708Z" fill="#FECE4D"/>
<path d="M0 43C0 43.99 0.39 44.92 1.13 45.66C1.83 46.35 2.76 46.74 3.75 46.74V46.77C4.75 46.77 5.68 46.38 6.38 45.68L17.21 34.84C18.15 35.18 19.16 35.35 20.16 35.35C21.16 35.35 22.04 35.2 22.94 34.9C24.22 34.47 25.35 33.76 26.31 32.8C27.93 31.17 28.83 29.02 28.86 26.73V26.67C28.86 26.27 28.71 25.91 28.44 25.63C28.16 25.35 27.78 25.19 27.39 25.19C27 25.19 26.63 25.34 26.35 25.62L23.61 28.36L19.48 27.26L18.37 23.13L21.09 20.41C21.51 19.99 21.64 19.36 21.41 18.81C21.18 18.26 20.65 17.9 20.05 17.9C17.94 17.91 15.92 18.68 14.36 20.05C13.21 21.07 12.34 22.37 11.85 23.82C11.23 25.7 11.26 27.7 11.92 29.54L1.09 40.38C0.39 41.08 0 42.01 0 43Z" fill="#3D7FFC"/>
<path fill-rule="evenodd" clip-rule="evenodd" d="M45.8599 0H17.9599C17.0299 0 16.4099 0.62 16.4099 1.55V17.09C17.3899 16.71 18.4399 16.49 19.5099 16.43V9.3H44.3099V27.9H30.2699C30.1299 28.98 29.8299 30.03 29.3599 31H45.8499C46.3599 31 46.8699 30.67 47.1499 30.23C47.2999 29.99 47.3999 29.72 47.3999 29.46V1.55C47.3999 0.62 46.6299 0 45.8499 0H45.8599ZM20.9299 6.26C19.9699 6.26 19.1899 5.49 19.1899 4.53C19.1899 3.57 19.9699 2.79 20.9299 2.79C21.8899 2.79 22.6699 3.57 22.6699 4.53C22.6699 5.49 21.8899 6.26 20.9299 6.26ZM28.3699 5.97C28.0899 6.15 27.7599 6.26 27.4099 6.26C27.0899 6.26 26.7799 6.17 26.5199 6.02C26.0099 5.72 25.6699 5.16 25.6699 4.53C25.6699 4.25 25.7399 3.98 25.8599 3.73C25.9799 3.48 26.1699 3.27 26.3899 3.11C26.6799 2.91 27.0299 2.79 27.4099 2.79C27.8199 2.79 28.1999 2.94 28.4999 3.18C28.8899 3.49 29.1499 3.98 29.1499 4.53C29.1499 5.13 28.8399 5.66 28.3699 5.98V5.97ZM33.8899 6.26C32.9299 6.26 32.1499 5.49 32.1499 4.53C32.1499 3.57 32.9299 2.79 33.8899 2.79C34.8499 2.79 35.6299 3.57 35.6299 4.53C35.6299 5.49 34.8499 6.26 33.8899 6.26Z" fill="#C6DBFF"/>
</g>
</g>
<defs>
<clipPath id="clip0_6003_4094">
<rect width="47" height="47" fill="white"/>
</clipPath>
<clipPath id="clip1_6003_4094">
<rect width="47.41" height="46.77" fill="white"/>
</clipPath>
</defs>
</svg>
