<svg width="588" height="311" viewBox="0 0 588 311" fill="none" xmlns="http://www.w3.org/2000/svg">
<path d="M0 8C0 3.58172 3.58172 0 8 0H580C584.418 0 588 3.58172 588 8V303C588 307.418 584.418 311 580 311H7.99998C3.58171 311 0 307.418 0 303V8Z" fill="#22395B"/>
<path d="M139.305 48H446.225C450.566 48 454.117 51.5514 454.117 55.892V236.303C454.117 240.644 450.566 244.195 446.225 244.195H139.305C134.964 244.195 131.413 240.644 131.413 236.303V55.892C131.413 51.5514 134.964 48 139.305 48Z" fill="url(#paint0_linear_6007_5143)"/>
<path d="M131.412 55.892C131.412 51.5514 134.963 48 139.304 48H446.224C450.565 48 454.116 51.5514 454.116 55.892V65.1257H131.412V55.892Z" fill="#062E69"/>
<path d="M144.197 56.6813C144.197 58.1019 143.014 59.2068 141.672 59.2068C140.251 59.2068 139.146 58.023 139.146 56.6813C139.146 55.2608 140.33 54.1559 141.672 54.1559C143.014 54.1559 144.197 55.2608 144.197 56.6813Z" fill="white"/>
<path d="M154.93 56.6813C154.93 58.1019 153.746 59.2068 152.405 59.2068C151.063 59.2068 149.879 58.023 149.879 56.6813C149.879 55.2608 151.063 54.1559 152.405 54.1559C153.746 54.1559 154.93 55.2608 154.93 56.6813Z" fill="white"/>
<path d="M165.9 56.6813C165.9 58.1019 164.716 59.2068 163.375 59.2068C161.954 59.2068 160.849 58.023 160.849 56.6813C160.849 55.2608 162.033 54.1559 163.375 54.1559C164.716 54.1559 165.9 55.2608 165.9 56.6813Z" fill="white"/>
<path d="M177.028 58.2598C177.975 56.3657 179.869 55.103 182 55.103H235.744C237.875 55.103 239.769 56.2868 240.716 58.2598L244.347 65.7572H173.397L177.028 58.2598Z" fill="#0F3E82"/>
<path d="M454.116 65.1257H131.412V87.618H454.116V65.1257Z" fill="#0F3E82"/>
<path d="M143.644 77.4373H139.619" stroke="#9BACBC" stroke-width="1.11888" stroke-linecap="round" stroke-linejoin="round"/>
<path d="M141.276 79.0946L139.619 77.4372L141.276 75.7799" stroke="#9BACBC" stroke-width="1.11888" stroke-linecap="round" stroke-linejoin="round"/>
<path d="M150.352 76.964H154.377" stroke="#9BACBC" stroke-width="1.11888" stroke-linecap="round" stroke-linejoin="round"/>
<path d="M152.719 75.3066L154.377 76.964L152.719 78.6213" stroke="#9BACBC" stroke-width="1.11888" stroke-linecap="round" stroke-linejoin="round"/>
<path d="M164.4 74.5961L164.715 75.701L163.531 75.7799" stroke="#9BACBC" stroke-width="1.11888" stroke-linecap="round" stroke-linejoin="round"/>
<path d="M165.19 77.2005C165.19 77.5951 165.032 77.9897 164.795 78.3054C164.164 79.2524 162.901 79.4103 161.954 78.7789C161.007 78.1475 160.849 76.8848 161.48 75.9378C162.112 74.9907 163.374 74.8329 164.322 75.4643L164.558 75.6221" stroke="#9BACBC" stroke-width="1.11888" stroke-linecap="round"/>
<path d="M179 72.8599H429.019C431.465 72.8599 433.438 74.8329 433.438 77.2794C433.438 79.7259 431.465 81.6989 429.019 81.6989H179C176.553 81.6989 174.58 79.7259 174.58 77.2794C174.58 74.8329 176.553 72.8599 179 72.8599Z" fill="white" fill-opacity="0.16"/>
<g filter="url(#filter0_bd_6007_5143)">
<path d="M122.73 108.789H248.213C259.104 108.789 267.943 117.628 267.943 128.519V130.492C267.943 141.383 259.104 150.222 248.213 150.222H122.73C111.839 150.222 103 141.383 103 130.492V128.519C103 117.628 111.839 108.789 122.73 108.789Z" fill="url(#paint1_linear_6007_5143)" shape-rendering="crispEdges"/>
<path d="M122.73 109.789H248.213C258.552 109.789 266.943 118.181 266.943 128.519V130.492C266.943 140.831 258.552 149.222 248.213 149.222H122.73C112.391 149.222 104 140.831 104 130.492V128.519C104 118.181 112.391 109.789 122.73 109.789Z" stroke="url(#paint2_linear_6007_5143)" stroke-width="2" shape-rendering="crispEdges"/>
</g>
<path d="M151.041 124.731V124.358H150.668H148.042V123.841H154.715V124.358H152.168H151.795V124.731V133.671H151.041V124.731Z" fill="#3D7FFC" stroke="white" stroke-width="0.745918"/>
<path d="M155.302 136.638L155.428 136.168C155.578 136.202 155.764 136.232 155.955 136.232C156.343 136.232 156.639 136.13 156.859 135.876C156.956 135.764 157.025 135.638 157.081 135.518C157.119 135.437 157.158 135.344 157.197 135.252C157.213 135.213 157.229 135.175 157.245 135.138L157.251 135.123L157.256 135.109L157.572 134.162L157.616 134.029L157.562 133.9L154.779 127.235H155.464L157.581 132.679L157.935 133.589L158.278 132.675L160.318 127.235H161.006L157.74 135.325L157.74 135.325L157.737 135.333C157.513 135.93 157.268 136.277 157.022 136.477C156.786 136.669 156.519 136.749 156.192 136.749C155.834 136.749 155.53 136.695 155.316 136.641C155.311 136.64 155.307 136.639 155.302 136.638Z" fill="#3D7FFC" stroke="white" stroke-width="0.745918"/>
<path d="M163.791 127.967V129.114L164.466 128.186C165.019 127.426 165.768 127.077 166.768 127.077C167.774 127.077 168.558 127.451 169.095 128.049C169.636 128.65 169.947 129.504 169.947 130.492C169.947 132.45 168.662 133.908 166.768 133.908C165.727 133.908 165.044 133.433 164.548 132.725L163.87 131.756V132.939V136.591H163.116V127.235H163.791V127.967ZM166.532 133.391C168.219 133.391 169.193 131.973 169.193 130.413C169.193 129.629 168.953 128.906 168.49 128.373C168.022 127.835 167.346 127.515 166.532 127.515C165.717 127.515 165.041 127.835 164.573 128.373C164.11 128.906 163.87 129.629 163.87 130.413C163.87 131.233 164.107 131.975 164.571 132.52C165.039 133.07 165.717 133.391 166.532 133.391Z" fill="#3D7FFC" stroke="white" stroke-width="0.745918"/>
<path d="M177.783 133.034C177.658 133.137 177.486 133.266 177.259 133.393C176.8 133.649 176.092 133.908 175.054 133.908C174.078 133.908 173.271 133.566 172.707 132.985C172.143 132.403 171.796 131.554 171.796 130.492C171.796 128.415 173.281 127.077 175.133 127.077C176.07 127.077 176.84 127.4 177.375 127.935C177.909 128.469 178.232 129.239 178.232 130.177C178.232 130.266 178.232 130.356 178.226 130.435H172.844H172.45L172.472 130.829C172.515 131.619 172.804 132.286 173.297 132.755C173.79 133.225 174.459 133.47 175.212 133.47C175.993 133.47 176.622 133.252 177.075 133.026C177.275 132.926 177.44 132.825 177.568 132.74L177.783 133.034ZM177.263 130.234H177.672L177.635 129.827C177.591 129.341 177.415 128.732 177.021 128.245C176.615 127.745 175.993 127.393 175.123 127.436C174.301 127.439 173.69 127.788 173.28 128.267C172.878 128.739 172.676 129.328 172.63 129.827L172.593 130.234H173.002H177.263Z" fill="#3D7FFC" stroke="white" stroke-width="0.745918"/>
<path d="M186.813 127.077C187.833 127.077 188.704 127.422 189.317 128.009C189.929 128.595 190.307 129.442 190.307 130.492C190.307 131.543 189.929 132.39 189.317 132.975C188.704 133.563 187.833 133.908 186.813 133.908C185.793 133.908 184.922 133.563 184.309 132.975C183.697 132.39 183.319 131.543 183.319 130.492C183.319 128.499 184.799 127.077 186.813 127.077ZM186.813 133.391C187.669 133.391 188.366 133.049 188.843 132.491C189.314 131.939 189.553 131.197 189.553 130.413C189.553 129.629 189.313 128.904 188.837 128.37C188.357 127.831 187.661 127.515 186.813 127.515C185.965 127.515 185.269 127.831 184.788 128.37C184.312 128.904 184.072 129.629 184.072 130.413C184.072 131.233 184.31 131.977 184.786 132.523C185.267 133.075 185.965 133.391 186.813 133.391Z" fill="#3D7FFC" stroke="white" stroke-width="0.745918"/>
<path d="M195.731 123.831L195.707 124.18C195.549 124.149 195.361 124.121 195.179 124.121C194.896 124.121 194.644 124.175 194.429 124.291C194.211 124.409 194.054 124.58 193.944 124.778C193.737 125.154 193.701 125.634 193.701 126.073V126.862V127.235H194.074H195.437V127.673H194.074H193.701V128.046V133.75H193.026V128.046V127.673H192.653H192V127.235H192.653H193.026V126.862V126.152C193.026 125.23 193.183 124.705 193.418 124.412C193.673 124.093 194.124 123.762 194.863 123.762C195.261 123.762 195.547 123.797 195.731 123.831Z" fill="#3D7FFC" stroke="white" stroke-width="0.745918"/>
<path d="M200.835 124.914L200.809 124.911H200.782C200.414 124.911 200.208 124.662 200.208 124.415C200.208 124.169 200.414 123.92 200.782 123.92C200.99 123.92 201.132 123.979 201.216 124.054C201.295 124.123 201.356 124.234 201.356 124.415C201.356 124.603 201.29 124.736 201.207 124.815C201.128 124.889 201.007 124.939 200.835 124.914ZM200.366 127.235H201.12V133.75H200.366V127.235Z" fill="#3D7FFC" stroke="white" stroke-width="0.745918"/>
<path d="M209.721 129.782V133.75H208.968V130.019C208.968 129.432 208.934 128.81 208.677 128.333C208.542 128.082 208.345 127.87 208.07 127.725C207.799 127.582 207.473 127.515 207.095 127.515C206.544 127.515 206.094 127.663 205.746 127.931C206.108 127.44 206.717 127.077 207.49 127.077C208.427 127.077 208.95 127.377 209.258 127.809C209.585 128.266 209.721 128.94 209.721 129.782ZM205.28 128.34H205.354C205.337 128.364 205.32 128.389 205.303 128.414C204.95 128.956 204.828 129.673 204.828 130.413V133.671H204.075V127.156H204.828V127.967V128.34H205.201H205.28Z" fill="#3D7FFC" stroke="white" stroke-width="0.745918"/>
<path d="M218.202 127.967V123.92H218.877V133.75H218.202V132.939V131.658L217.515 132.738C217.037 133.489 216.214 133.907 215.304 133.907C214.298 133.907 213.514 133.533 212.977 132.936C212.436 132.334 212.125 131.481 212.125 130.492C212.125 128.535 213.41 127.077 215.304 127.077C216.382 127.077 217.115 127.502 217.509 128.159L218.202 129.313V127.967ZM215.541 133.391C217.228 133.391 218.202 131.973 218.202 130.413C218.202 129.629 217.962 128.906 217.499 128.373C217.031 127.835 216.355 127.515 215.541 127.515C214.726 127.515 214.05 127.835 213.582 128.373C213.119 128.906 212.879 129.629 212.879 130.413C212.879 131.233 213.116 131.975 213.58 132.519C214.048 133.07 214.726 133.391 215.541 133.391Z" fill="#3D7FFC" stroke="white" stroke-width="0.745918"/>
<path d="M221.833 131.203V127.235H222.507V131.203C222.507 131.678 222.542 132.243 222.805 132.693C223.093 133.186 223.606 133.47 224.38 133.47C225.138 133.47 225.706 133.129 226.069 132.597C226.421 132.081 226.568 131.407 226.568 130.729V127.156H227.321V133.75H226.647V133.097V131.657L225.948 132.916C225.632 133.484 224.905 133.908 223.985 133.908C223.085 133.908 222.584 133.626 222.287 133.207C221.97 132.76 221.833 132.087 221.833 131.203Z" fill="#3D7FFC" stroke="white" stroke-width="0.745918"/>
<path d="M232.312 130.136L232.334 130.143L232.356 130.148C232.723 130.221 232.928 130.29 233.21 130.431C233.957 130.805 234.424 131.26 234.424 131.992C234.424 132.652 234.134 133.118 233.705 133.44C233.267 133.768 232.676 133.949 232.102 133.986C231.092 133.983 230.317 133.593 229.761 133.01L230.022 132.691C230.647 133.212 231.395 133.549 232.114 133.549C232.5 133.549 232.932 133.486 233.281 133.279C233.655 133.057 233.907 132.682 233.907 132.15C233.907 131.531 233.435 131.18 233.05 130.987C232.752 130.839 232.4 130.734 232.167 130.665C232.102 130.645 232.045 130.629 232.003 130.615C231.933 130.588 231.865 130.562 231.798 130.537C231.346 130.365 230.956 130.218 230.652 129.988C230.337 129.75 230.119 129.424 230.119 128.835C230.119 128.288 230.355 127.882 230.722 127.603C231.098 127.316 231.626 127.156 232.193 127.156C233.143 127.156 233.731 127.445 234.141 127.781L233.957 128.034C233.48 127.658 232.832 127.436 232.193 127.436C231.808 127.436 231.425 127.498 231.128 127.696C230.804 127.912 230.636 128.253 230.636 128.677C230.636 129.168 230.927 129.487 231.254 129.693C231.559 129.885 231.95 130.015 232.287 130.128C232.295 130.13 232.303 130.133 232.312 130.136Z" fill="#3D7FFC" stroke="white" stroke-width="0.745918"/>
<path d="M236.69 127.673H235.958V127.235H236.611H236.984V126.862V125.025H237.738V126.862V127.235H238.111H239.474V127.594H238.111H237.738V127.967V131.282V131.295C237.738 131.6 237.738 131.871 237.759 132.104C237.781 132.346 237.828 132.575 237.935 132.79L237.946 132.811L237.958 132.83C238.065 132.989 238.206 133.134 238.398 133.238C238.589 133.341 238.81 133.391 239.058 133.391C239.226 133.391 239.376 133.374 239.506 133.35L239.535 133.783C239.246 133.865 238.918 133.908 238.584 133.908C238.182 133.908 237.909 133.825 237.719 133.707C237.531 133.591 237.396 133.423 237.297 133.201C237.088 132.733 237.063 132.085 237.063 131.36V128.046V127.673H236.69Z" fill="#3D7FFC" stroke="white" stroke-width="0.745918"/>
<path d="M244.583 126.998C244.748 126.998 244.875 127.014 244.968 127.033L244.895 127.649C244.743 127.615 244.563 127.594 244.347 127.594C243.808 127.594 243.397 127.784 243.093 128.074L243.108 128.042C243.283 127.657 243.499 127.401 243.737 127.24C243.973 127.08 244.254 126.998 244.583 126.998ZM242.316 130.413V133.671H241.563V127.156H242.316V127.888V128.261H242.689H242.768H242.923C242.83 128.377 242.75 128.503 242.683 128.636C242.398 129.194 242.316 129.873 242.316 130.413Z" fill="#3D7FFC" stroke="white" stroke-width="0.745918"/>
<path d="M246.692 136.636L246.817 136.168C246.968 136.202 247.153 136.232 247.345 136.232C247.732 136.232 248.028 136.13 248.248 135.876C248.345 135.764 248.414 135.638 248.47 135.518C248.508 135.437 248.548 135.344 248.586 135.252C248.603 135.213 248.619 135.175 248.635 135.138L248.641 135.123L248.646 135.109L248.961 134.162L249.006 134.029L248.952 133.9L246.169 127.235H246.853L248.97 132.679L249.324 133.589L249.667 132.675L251.707 127.235H252.4L249.208 135.327L249.208 135.327L249.205 135.333C248.982 135.93 248.736 136.277 248.491 136.477C248.254 136.669 247.987 136.749 247.661 136.749C247.26 136.749 246.935 136.694 246.712 136.641C246.705 136.639 246.699 136.637 246.692 136.636Z" fill="#3D7FFC" stroke="white" stroke-width="0.745918"/>
<path d="M120.678 129.861L125.65 135.701L136.856 122.6" stroke="white" stroke-width="1.49184" stroke-linecap="square" stroke-linejoin="round"/>
<g filter="url(#filter1_bd_6007_5143)">
<path d="M331.871 221.172H422.944C433.835 221.172 442.674 230.011 442.674 240.902V242.953C442.674 253.844 433.835 262.683 422.944 262.683H331.871C320.98 262.683 312.141 253.844 312.141 242.953V240.902C312.141 230.011 320.98 221.172 331.871 221.172Z" fill="url(#paint3_linear_6007_5143)" fill-opacity="0.5" shape-rendering="crispEdges"/>
<path d="M331.871 221.672H422.944C433.559 221.672 442.174 230.287 442.174 240.902V242.953C442.174 253.568 433.559 262.183 422.944 262.183H331.871C321.256 262.183 312.641 253.568 312.641 242.953V240.902C312.641 230.287 321.256 221.672 331.871 221.672Z" stroke="url(#paint4_linear_6007_5143)" shape-rendering="crispEdges"/>
</g>
<path d="M352.94 246.505V245.242H348.126V241.612H352.546V240.349H348.126V237.192H352.861V235.93H346.627V246.505H352.94Z" fill="#B8C4D0"/>
<path d="M361.621 246.505V235.93H360.201V240.349C359.727 239.56 358.859 239.086 357.675 239.086C355.544 239.086 354.124 240.744 354.124 242.875C354.124 245.005 355.544 246.663 357.675 246.663C358.701 246.663 359.648 246.189 360.201 245.321V246.505H361.621ZM360.201 242.875C360.201 244.295 359.332 245.479 357.912 245.479C356.491 245.479 355.623 244.374 355.623 242.875C355.623 241.454 356.491 240.349 357.912 240.349C359.411 240.27 360.201 241.375 360.201 242.875Z" fill="#B8C4D0"/>
<path d="M370.065 246.505V239.165H368.566V243.111C368.566 244.374 368.014 245.479 366.751 245.479C365.409 245.479 365.251 244.532 365.251 243.585V239.244H363.831V243.585C363.831 245.4 364.383 246.663 366.356 246.663C367.382 246.663 368.25 246.189 368.645 245.479V246.505H370.065Z" fill="#B8C4D0"/>
<path d="M378.353 245.558L377.801 244.453C377.801 244.453 377.011 245.4 375.591 245.4C374.17 245.4 373.223 244.374 373.223 242.796C373.223 241.296 374.328 240.27 375.591 240.27C376.854 240.27 377.485 240.902 377.801 241.138L378.353 240.033C378.274 239.954 377.485 239.007 375.512 239.007C373.618 239.007 371.803 240.428 371.803 242.796C371.803 245.163 373.539 246.584 375.512 246.584C377.406 246.663 378.195 245.795 378.353 245.558Z" fill="#B8C4D0"/>
<path d="M385.692 246.505V242.243C385.692 240.112 384.666 239.086 382.535 239.086C381.351 239.086 380.325 239.481 379.773 239.797L380.246 240.744C380.483 240.586 381.351 240.112 382.456 240.112C383.482 240.112 384.271 240.665 384.271 241.77V242.085L382.298 242.164C380.641 242.243 379.457 242.953 379.457 244.374C379.457 245.794 380.641 246.663 381.983 246.663C383.324 246.663 384.035 245.873 384.271 245.558V246.505H385.692ZM384.192 243.032V244.611C383.877 245.005 383.324 245.637 382.298 245.637C381.351 245.637 380.799 245.084 380.799 244.374C380.799 243.664 381.272 243.19 382.456 243.111L384.192 243.032Z" fill="#B8C4D0"/>
<path d="M391.295 246.426L391.216 245.242C391.216 245.242 390.901 245.4 390.427 245.4C390.033 245.4 389.796 245.242 389.638 245.006C389.48 244.69 389.48 244.295 389.48 243.664V240.349H391.216V239.165H389.48V236.956H387.981V239.165H386.876V240.349H387.981V243.664C387.981 245.084 388.06 246.584 389.875 246.584C390.427 246.663 390.901 246.584 391.295 246.426Z" fill="#B8C4D0"/>
<path d="M394.373 236.798C394.373 236.245 393.978 235.93 393.426 235.93C392.873 235.93 392.479 236.324 392.479 236.798C392.479 237.35 392.873 237.666 393.426 237.666C393.978 237.745 394.373 237.35 394.373 236.798ZM394.136 246.505V239.244H392.637V246.505H394.136Z" fill="#B8C4D0"/>
<path d="M403.607 242.874C403.607 240.586 401.95 239.086 399.74 239.086C397.531 239.086 395.873 240.665 395.873 242.874C395.873 245.163 397.531 246.663 399.74 246.663C401.95 246.663 403.607 245.163 403.607 242.874ZM402.187 242.874C402.187 244.295 401.319 245.479 399.819 245.479C398.32 245.479 397.452 244.374 397.452 242.874C397.452 241.454 398.32 240.349 399.819 240.349C401.24 240.27 402.187 241.375 402.187 242.874Z" fill="#B8C4D0"/>
<path d="M411.657 246.505V242.164C411.657 240.428 411.104 239.086 409.052 239.086C408.026 239.086 407.237 239.639 406.843 240.349H406.764V239.165H405.264V246.426H406.764V242.874C406.764 241.454 407.237 240.349 408.658 240.349C409.999 240.349 410.157 241.296 410.157 242.48V246.584H411.657V246.505Z" fill="#B8C4D0"/>
<g filter="url(#filter2_bd_6007_5143)">
<path d="M301.327 108.789H345.443C356.887 108.789 366.199 118.102 366.199 129.545C366.199 140.989 356.887 150.301 345.443 150.301H301.327C289.884 150.301 280.571 140.989 280.571 129.545C280.571 118.102 289.884 108.789 301.327 108.789Z" fill="url(#paint5_linear_6007_5143)" fill-opacity="0.5" shape-rendering="crispEdges"/>
<path d="M301.327 109.289H345.443C356.611 109.289 365.699 118.378 365.699 129.545C365.699 140.712 356.611 149.801 345.443 149.801H301.327C290.16 149.801 281.071 140.712 281.071 129.545C281.071 118.378 290.16 109.289 301.327 109.289Z" stroke="url(#paint6_linear_6007_5143)" shape-rendering="crispEdges"/>
</g>
<path d="M312.769 131.203C312.769 129.94 311.98 129.072 310.954 128.598L308.981 127.809C308.35 127.572 307.639 127.178 307.639 126.231C307.639 125.284 308.429 124.731 309.455 124.731C310.481 124.731 311.27 125.284 311.822 125.836L312.611 124.81C312.296 124.494 311.27 123.469 309.612 123.469C307.955 123.469 306.219 124.416 306.219 126.31C306.219 127.572 306.85 128.362 307.955 128.914C308.35 129.151 309.06 129.388 309.612 129.624C310.165 129.861 311.349 130.256 311.349 131.361C311.349 132.465 310.402 133.176 309.297 133.176C308.192 133.176 307.166 132.386 306.613 131.676L305.745 132.702C306.219 133.255 307.324 134.517 309.139 134.517C310.954 134.281 312.769 133.255 312.769 131.203Z" fill="#B8C4D0"/>
<path d="M321.056 134.123L317.82 129.545L320.661 126.783H318.925L315.926 129.703V123.469H314.506V134.044H315.926V131.282L316.794 130.492L319.32 134.044H321.056V134.123Z" fill="#B8C4D0"/>
<path d="M323.898 124.415C323.898 123.863 323.504 123.547 322.951 123.547C322.399 123.547 322.004 123.942 322.004 124.415C322.004 124.968 322.399 125.283 322.951 125.283C323.425 125.362 323.898 124.968 323.898 124.415ZM323.661 134.123V126.862H322.162V134.123H323.661Z" fill="#B8C4D0"/>
<path d="M327.448 134.123V123.547H326.028V134.123H327.448Z" fill="#B8C4D0"/>
<path d="M331.238 134.123V123.547H329.817V134.123H331.238Z" fill="#B8C4D0"/>
<path d="M338.419 131.992C338.419 131.045 337.787 130.492 336.998 130.098C336.682 129.94 336.446 129.861 336.051 129.782C335.341 129.545 334.631 129.309 334.631 128.677C334.631 128.046 335.104 127.809 335.814 127.809C336.525 127.809 337.235 128.125 337.629 128.598L338.261 127.73C337.787 127.257 337.077 126.783 335.814 126.783C334.552 126.783 333.368 127.493 333.368 128.835C333.368 130.177 334.473 130.571 335.499 130.966C335.972 131.124 337.156 131.36 337.156 132.15C337.156 132.939 336.446 133.176 335.735 133.176C335.025 133.176 334.236 132.781 333.605 132.15L332.894 133.018C333.526 133.807 334.473 134.359 335.735 134.359C336.998 134.28 338.419 133.57 338.419 131.992Z" fill="#B8C4D0"/>
<g filter="url(#filter3_bd_6007_5143)">
<path d="M201.256 221.172H277.651C288.542 221.172 297.381 230.011 297.381 240.902V242.875C297.381 253.766 288.542 262.605 277.651 262.605H201.256C190.365 262.605 181.526 253.766 181.526 242.875V240.902C181.526 230.011 190.365 221.172 201.256 221.172Z" fill="url(#paint7_linear_6007_5143)" shape-rendering="crispEdges"/>
<path d="M201.256 222.172H277.651C287.99 222.172 296.381 230.563 296.381 240.902V242.875C296.381 253.213 287.99 261.605 277.651 261.605H201.256C190.917 261.605 182.526 253.213 182.526 242.875V240.902C182.526 230.563 190.917 222.172 201.256 222.172Z" stroke="url(#paint8_linear_6007_5143)" stroke-width="2" shape-rendering="crispEdges"/>
</g>
<path d="M233.77 238.929C233.77 237.903 233.376 237.192 232.744 236.64C232.113 236.087 231.245 235.851 230.219 235.851H227.22V246.426H228.719V241.849H230.219C232.113 241.928 233.77 241.059 233.77 238.929ZM232.192 238.929C232.192 240.27 231.166 240.744 229.982 240.744H228.641V237.113H229.982C231.166 237.113 232.192 237.587 232.192 238.929Z" fill="white"/>
<path d="M241.584 242.559C241.584 240.507 240.164 239.086 238.112 239.086C236.06 239.086 234.402 240.586 234.402 242.874C234.402 245.163 235.902 246.663 238.033 246.663C240.242 246.663 241.111 245.558 241.268 245.479L240.637 244.611C240.479 244.69 239.611 245.479 238.191 245.479C236.849 245.479 235.902 244.611 235.823 243.19H241.426C241.505 243.19 241.584 242.874 241.584 242.559ZM240.164 242.243H235.902C235.981 241.375 236.612 240.191 238.033 240.191C239.532 240.112 240.164 241.375 240.164 242.243Z" fill="white"/>
<path d="M250.502 242.874C250.502 240.586 248.845 239.086 246.635 239.086C244.425 239.086 242.768 240.665 242.768 242.874C242.768 245.163 244.425 246.663 246.635 246.663C248.845 246.663 250.502 245.163 250.502 242.874ZM249.003 242.874C249.003 244.295 248.134 245.479 246.635 245.479C245.135 245.479 244.267 244.374 244.267 242.874C244.267 241.454 245.135 240.349 246.635 240.349C248.134 240.27 249.003 241.375 249.003 242.874Z" fill="white"/>
<path d="M259.815 242.874C259.815 240.744 258.474 239.086 256.264 239.086C255.159 239.086 254.291 239.481 253.66 240.349V239.165H252.239V249.346H253.738V245.321C254.291 246.11 255.08 246.663 256.264 246.663C258.395 246.663 259.815 245.005 259.815 242.874ZM258.316 242.874C258.316 244.295 257.448 245.479 256.027 245.479C254.607 245.479 253.738 244.374 253.738 242.874C253.738 241.454 254.607 240.349 256.027 240.349C257.448 240.27 258.316 241.375 258.316 242.874Z" fill="white"/>
<path d="M263.05 246.505V235.93H261.63V246.505H263.05Z" fill="white"/>
<path d="M271.969 242.559C271.969 240.507 270.548 239.086 268.496 239.086C266.444 239.086 264.787 240.586 264.787 242.874C264.787 245.163 266.286 246.663 268.417 246.663C270.627 246.663 271.495 245.558 271.653 245.479L271.022 244.611C270.864 244.69 269.996 245.479 268.575 245.479C267.233 245.479 266.286 244.611 266.207 243.19H271.811C271.89 243.19 271.969 242.874 271.969 242.559ZM270.548 242.243H266.286C266.365 241.375 266.997 240.191 268.417 240.191C269.917 240.112 270.548 241.375 270.548 242.243Z" fill="white"/>
<path d="M199.756 241.77L199.282 241.138L198.099 242.164L198.572 242.796L199.756 241.77ZM204.097 248.083L203.465 248.557C203.623 248.715 203.86 248.872 204.097 248.872C204.333 248.872 204.57 248.793 204.728 248.557L204.097 248.083ZM215.935 235.535L216.408 234.904L215.224 233.878L214.751 234.509L215.935 235.535ZM198.572 242.796L203.544 248.636L204.728 247.61L199.756 241.77L198.572 242.796ZM204.728 248.636L215.935 235.535L214.751 234.509L203.544 247.61L204.728 248.636Z" fill="white"/>
<g filter="url(#filter4_bd_6007_5143)">
<path d="M379.142 166.717H464.692C475.583 166.717 484.422 175.556 484.422 186.447V188.42C484.422 199.311 475.583 208.15 464.692 208.15H379.142C368.251 208.15 359.412 199.311 359.412 188.42V186.447C359.412 175.556 368.251 166.717 379.142 166.717Z" fill="url(#paint9_linear_6007_5143)" shape-rendering="crispEdges"/>
<path d="M379.142 167.717H464.692C475.03 167.717 483.422 176.108 483.422 186.447V188.42C483.422 198.758 475.03 207.15 464.692 207.15H379.142C368.803 207.15 360.412 198.758 360.412 188.42V186.447C360.412 176.108 368.803 167.717 379.142 167.717Z" stroke="url(#paint10_linear_6007_5143)" stroke-width="2" shape-rendering="crispEdges"/>
</g>
<path d="M410.316 192.05V190.787H406.606V181.475H405.107V192.05H410.316Z" fill="white"/>
<path d="M418.839 188.42C418.839 186.131 417.182 184.631 414.972 184.631C412.762 184.631 411.105 186.21 411.105 188.42C411.105 190.708 412.762 192.208 414.972 192.208C417.182 192.208 418.839 190.708 418.839 188.42ZM417.339 188.341C417.339 189.761 416.471 190.945 414.972 190.945C413.472 190.945 412.604 189.84 412.604 188.341C412.604 186.92 413.472 185.815 414.972 185.815C416.471 185.815 417.339 186.92 417.339 188.341Z" fill="white"/>
<path d="M426.651 191.103L426.099 189.998C426.099 189.998 425.31 190.945 423.889 190.945C422.469 190.945 421.522 189.919 421.522 188.341C421.522 186.762 422.627 185.815 423.889 185.815C425.152 185.815 425.783 186.447 426.099 186.683L426.651 185.579C426.573 185.5 425.783 184.553 423.81 184.553C421.916 184.553 420.101 185.973 420.101 188.341C420.101 190.708 421.837 192.129 423.81 192.129C425.704 192.208 426.415 191.34 426.651 191.103Z" fill="white"/>
<path d="M433.913 192.05V187.788C433.913 185.657 432.887 184.631 430.756 184.631C429.572 184.631 428.546 185.026 427.994 185.342L428.467 186.289C428.704 186.131 429.572 185.657 430.677 185.657C431.703 185.657 432.492 186.21 432.492 187.315V187.63L430.519 187.709C428.862 187.788 427.678 188.499 427.678 189.919C427.678 191.34 428.862 192.208 430.204 192.208C431.545 192.208 432.256 191.419 432.492 191.103V192.05H433.913ZM432.492 188.577V190.156C432.256 190.55 431.624 191.182 430.598 191.182C429.651 191.182 429.099 190.629 429.099 189.919C429.099 189.209 429.572 188.735 430.756 188.656L432.492 188.577Z" fill="white"/>
<path d="M439.516 191.971L439.437 190.787C439.437 190.787 439.122 190.945 438.648 190.945C438.253 190.945 438.017 190.787 437.859 190.55C437.701 190.235 437.701 189.84 437.701 189.209V185.894H439.437V184.71H437.701V182.501H436.202V184.71H435.097V185.894H436.202V189.209C436.202 190.629 436.28 192.129 438.096 192.129C438.727 192.208 439.122 192.129 439.516 191.971Z" fill="white"/>
<path d="M442.672 182.343C442.672 181.79 442.278 181.475 441.725 181.475C441.173 181.475 440.778 181.869 440.778 182.343C440.778 182.895 441.173 183.211 441.725 183.211C442.278 183.29 442.672 182.895 442.672 182.343ZM442.436 192.05V184.789H440.936V192.05H442.436Z" fill="white"/>
<path d="M451.906 188.42C451.906 186.131 450.248 184.631 448.038 184.631C445.829 184.631 444.171 186.21 444.171 188.42C444.171 190.708 445.829 192.208 448.038 192.208C450.248 192.208 451.906 190.708 451.906 188.42ZM450.406 188.341C450.406 189.761 449.538 190.945 448.038 190.945C446.539 190.945 445.671 189.84 445.671 188.341C445.671 186.92 446.539 185.815 448.038 185.815C449.538 185.815 450.406 186.92 450.406 188.341Z" fill="white"/>
<path d="M459.956 192.05V187.709C459.956 185.973 459.404 184.631 457.352 184.631C456.326 184.631 455.537 185.184 455.142 185.894H455.063V184.71H453.564V191.971H455.063V188.341C455.063 186.92 455.537 185.815 456.958 185.815C458.299 185.815 458.457 186.762 458.457 187.946V192.05H459.956Z" fill="white"/>
<path d="M377.09 187.788L382.062 193.628L393.268 180.528" stroke="white" stroke-width="1.49184" stroke-linecap="square" stroke-linejoin="round"/>
<g filter="url(#filter5_bd_6007_5143)">
<path d="M258.553 166.717H326.266C337.157 166.717 345.997 175.556 345.997 186.447V188.499C345.997 199.389 337.157 208.229 326.266 208.229H258.553C247.662 208.229 238.823 199.389 238.823 188.499V186.447C238.823 175.556 247.662 166.717 258.553 166.717Z" fill="url(#paint11_linear_6007_5143)" fill-opacity="0.5" shape-rendering="crispEdges"/>
<path d="M258.553 167.217H326.266C336.881 167.217 345.497 175.832 345.497 186.447V188.499C345.497 199.113 336.881 207.729 326.266 207.729H258.553C247.938 207.729 239.323 199.113 239.323 188.499V186.447C239.323 175.832 247.938 167.217 258.553 167.217Z" stroke="url(#paint12_linear_6007_5143)" shape-rendering="crispEdges"/>
</g>
<path d="M270.312 190.629L269.68 189.525C268.97 190.314 267.944 190.787 266.523 190.787C264.235 190.787 262.577 189.13 262.577 186.683C262.577 184.237 264.235 182.58 266.523 182.58C268.023 182.58 269.207 183.369 269.601 183.842L270.233 182.658C269.68 182.106 268.418 181.238 266.445 181.238C263.446 181.238 260.999 183.369 260.999 186.683C260.999 189.998 263.288 192.129 266.366 192.129C268.496 192.208 269.68 191.419 270.312 190.629Z" fill="#B8C4D0"/>
<path d="M278.992 188.42C278.992 186.131 277.335 184.631 275.125 184.631C272.916 184.631 271.258 186.21 271.258 188.42C271.258 190.708 272.916 192.208 275.125 192.208C277.335 192.208 278.992 190.708 278.992 188.42ZM277.493 188.341C277.493 189.761 276.625 190.945 275.125 190.945C273.626 190.945 272.758 189.84 272.758 188.341C272.758 186.92 273.626 185.815 275.125 185.815C276.625 185.815 277.493 186.92 277.493 188.341Z" fill="#B8C4D0"/>
<path d="M291.225 192.05V187.63C291.225 186.052 290.672 184.631 288.778 184.631C287.752 184.631 286.963 185.184 286.489 186.052C286.174 185.105 285.385 184.631 284.359 184.631C283.412 184.631 282.622 185.263 282.228 185.894H282.149V184.71H280.649V191.971H282.149V188.183C282.149 186.841 282.701 185.736 283.885 185.736C284.911 185.736 285.227 186.604 285.227 187.709V191.971H286.726V188.183C286.726 186.841 287.279 185.736 288.463 185.736C289.646 185.736 289.804 186.841 289.804 187.709V191.971H291.225V192.05Z" fill="#B8C4D0"/>
<path d="M301.011 188.42C301.011 186.289 299.67 184.631 297.46 184.631C296.355 184.631 295.487 185.026 294.855 185.894V184.71H293.435V194.812H294.934V190.787C295.487 191.576 296.276 192.129 297.46 192.129C299.591 192.208 301.011 190.55 301.011 188.42ZM299.512 188.341C299.512 189.761 298.644 190.945 297.223 190.945C295.802 190.945 294.934 189.84 294.934 188.341C294.934 186.92 295.802 185.815 297.223 185.815C298.644 185.815 299.512 186.92 299.512 188.341Z" fill="#B8C4D0"/>
<path d="M308.351 192.05V187.788C308.351 185.657 307.325 184.631 305.194 184.631C304.01 184.631 302.984 185.026 302.432 185.342L302.905 186.289C303.142 186.131 304.01 185.657 305.115 185.657C306.141 185.657 306.93 186.21 306.93 187.315V187.63L304.957 187.709C303.3 187.788 302.116 188.499 302.116 189.919C302.116 191.34 303.3 192.208 304.642 192.208C305.983 192.208 306.694 191.419 306.93 191.103V192.05H308.351ZM306.851 188.577V190.156C306.536 190.55 305.983 191.182 304.957 191.182C304.01 191.182 303.458 190.629 303.458 189.919C303.458 189.209 303.931 188.735 305.115 188.656L306.851 188.577Z" fill="#B8C4D0"/>
<path d="M316.716 192.05V187.709C316.716 185.973 316.163 184.631 314.111 184.631C313.085 184.631 312.296 185.184 311.901 185.894H311.822V184.71H310.323V191.971H311.822V188.341C311.822 186.92 312.296 185.815 313.717 185.815C315.058 185.815 315.216 186.762 315.216 187.946V192.05H316.716Z" fill="#B8C4D0"/>
<path d="M325.002 184.789H323.503L321.372 190.472L319.162 184.789H317.663L320.662 191.971L320.346 192.918C320.109 193.471 320.03 193.786 319.399 193.786C319.004 193.786 318.61 193.628 318.61 193.628L318.294 194.812C318.294 194.812 318.846 195.049 319.636 195.049C320.425 195.049 321.056 194.654 321.53 193.392L325.002 184.789Z" fill="#B8C4D0"/>
<g filter="url(#filter6_bd_6007_5143)">
<path d="M156.667 166.717H206.229C217.12 166.717 225.959 175.556 225.959 186.447V188.499C225.959 199.389 217.12 208.229 206.229 208.229H156.667C145.776 208.229 136.937 199.389 136.937 188.499V186.447C136.937 175.556 145.776 166.717 156.667 166.717Z" fill="url(#paint13_linear_6007_5143)" fill-opacity="0.5" shape-rendering="crispEdges"/>
<path d="M156.667 167.217H206.229C216.844 167.217 225.459 175.832 225.459 186.447V188.499C225.459 199.113 216.844 207.729 206.229 207.729H156.667C146.052 207.729 137.437 199.113 137.437 188.499V186.447C137.437 175.832 146.052 167.217 156.667 167.217Z" stroke="url(#paint14_linear_6007_5143)" shape-rendering="crispEdges"/>
</g>
<path d="M172.449 192.05L169.451 187.315C170.555 187.078 171.897 186.289 171.897 184.395C171.897 182.264 170.24 181.396 168.346 181.396H165.347V191.971H166.846V187.394H167.951L170.713 191.971H172.449V192.05ZM170.319 184.474C170.319 185.105 170.082 185.579 169.608 185.894C169.135 186.21 168.582 186.289 167.793 186.289H166.688V182.738H167.793C168.503 182.738 169.135 182.738 169.608 183.132C170.082 183.369 170.319 183.842 170.319 184.474Z" fill="#B8C4D0"/>
<path d="M180.658 188.42C180.658 186.131 179.001 184.631 176.791 184.631C174.581 184.631 172.924 186.21 172.924 188.42C172.924 190.708 174.581 192.208 176.791 192.208C178.922 192.208 180.658 190.708 180.658 188.42ZM179.159 188.341C179.159 189.761 178.291 190.945 176.791 190.945C175.292 190.945 174.424 189.84 174.424 188.341C174.424 186.92 175.292 185.815 176.791 185.815C178.212 185.815 179.159 186.92 179.159 188.341Z" fill="#B8C4D0"/>
<path d="M183.893 192.05V181.475H182.472V192.05H183.893Z" fill="#B8C4D0"/>
<path d="M192.811 188.104C192.811 186.052 191.391 184.631 189.339 184.631C187.287 184.631 185.629 186.131 185.629 188.42C185.629 190.708 187.129 192.208 189.26 192.208C191.469 192.208 192.338 191.103 192.495 191.024L191.864 190.156C191.706 190.235 190.838 191.024 189.418 191.024C188.076 191.024 187.129 190.156 187.05 188.735H192.653C192.732 188.735 192.811 188.341 192.811 188.104ZM191.391 187.788H187.129C187.208 186.92 187.839 185.736 189.26 185.736C190.759 185.657 191.391 186.92 191.391 187.788Z" fill="#B8C4D0"/>
<path d="M199.283 189.919C199.283 188.972 198.652 188.42 197.863 188.025C197.547 187.867 197.31 187.788 196.916 187.709C196.205 187.473 195.495 187.236 195.495 186.605C195.495 185.973 195.969 185.736 196.679 185.736C197.389 185.736 198.099 186.052 198.494 186.526L199.125 185.657C198.652 185.184 197.942 184.71 196.679 184.71C195.416 184.71 194.232 185.421 194.232 186.762C194.232 188.104 195.337 188.499 196.363 188.893C196.837 189.051 198.02 189.288 198.02 190.077C198.02 190.866 197.31 191.103 196.6 191.103C195.89 191.103 195.1 190.708 194.469 190.077L193.759 190.945C194.39 191.734 195.337 192.287 196.6 192.287C197.942 192.208 199.283 191.498 199.283 189.919Z" fill="#B8C4D0"/>
<g filter="url(#filter7_bd_6007_5143)">
<path d="M398.162 108.789H460.745C471.636 108.789 480.475 117.628 480.475 128.519V130.571C480.475 141.462 471.636 150.301 460.745 150.301H398.162C387.271 150.301 378.432 141.462 378.432 130.571V128.519C378.432 117.628 387.271 108.789 398.162 108.789Z" fill="url(#paint15_linear_6007_5143)" shape-rendering="crispEdges"/>
<path d="M398.162 109.289H460.745C471.36 109.289 479.975 117.904 479.975 128.519V130.571C479.975 141.186 471.36 149.801 460.745 149.801H398.162C387.547 149.801 378.932 141.186 378.932 130.571V128.519C378.932 117.904 387.547 109.289 398.162 109.289Z" stroke="url(#paint16_linear_6007_5143)" shape-rendering="crispEdges"/>
</g>
<g filter="url(#filter8_bd_6007_5143)">
<path d="M398.161 108H460.745C472.109 108 481.264 117.155 481.264 128.519V130.571C481.264 141.936 472.109 151.09 460.745 151.09H398.161C386.797 151.09 377.642 141.936 377.642 130.571V128.519C377.642 117.234 386.797 108 398.161 108Z" fill="url(#paint17_linear_6007_5143)" fill-opacity="0.5" shape-rendering="crispEdges"/>
<path d="M398.161 108.5H460.745C471.833 108.5 480.764 117.431 480.764 128.519V130.571C480.764 141.66 471.833 150.59 460.745 150.59H398.161C387.073 150.59 378.142 141.66 378.142 130.571V128.519C378.142 117.509 387.074 108.5 398.161 108.5Z" stroke="url(#paint18_linear_6007_5143)" shape-rendering="crispEdges"/>
</g>
<path d="M405.974 134.833V124.258H404.475V134.833C404.475 135.859 404.396 136.727 403.449 136.727C403.054 136.727 402.817 136.648 402.659 136.569V137.674C402.738 137.753 403.212 137.911 403.843 137.911C404.632 137.911 405.264 137.516 405.579 137.043C405.816 136.648 405.974 135.859 405.974 134.833Z" fill="#B8C4D0"/>
<path d="M415.525 131.281C415.525 128.993 413.867 127.493 411.658 127.493C409.448 127.493 407.791 129.072 407.791 131.281C407.791 133.57 409.448 135.07 411.658 135.07C413.867 135.07 415.525 133.491 415.525 131.281ZM414.025 131.203C414.025 132.623 413.157 133.807 411.658 133.807C410.158 133.807 409.29 132.702 409.29 131.203C409.29 129.782 410.158 128.677 411.658 128.677C413.157 128.677 414.025 129.782 414.025 131.203Z" fill="#B8C4D0"/>
<path d="M424.836 131.203C424.836 129.072 423.495 127.414 421.285 127.414C420.101 127.414 419.233 127.888 418.759 128.677V124.258H417.339V134.833H418.759V133.649C419.391 134.517 420.259 134.991 421.285 134.991C423.495 135.07 424.836 133.412 424.836 131.203ZM423.337 131.203C423.337 132.623 422.469 133.807 421.048 133.807C419.628 133.807 418.681 132.702 418.681 131.203C418.681 129.782 419.549 128.677 421.048 128.677C422.469 128.677 423.337 129.782 423.337 131.203Z" fill="#B8C4D0"/>
<path d="M433.281 134.833L433.202 133.649C433.202 133.649 432.886 133.807 432.412 133.807C432.018 133.807 431.781 133.649 431.623 133.412C431.465 133.097 431.465 132.702 431.465 132.071V128.756H433.202V127.572H431.465V125.362H429.966V127.572H428.94V128.756H430.045V132.071C430.045 133.491 430.124 134.991 431.939 134.991C432.491 135.07 432.886 134.991 433.281 134.833Z" fill="#B8C4D0"/>
<path d="M436.439 125.205C436.439 124.652 436.044 124.337 435.491 124.337C434.939 124.337 434.544 124.731 434.544 125.205C434.544 125.757 434.939 126.073 435.491 126.073C436.044 126.073 436.439 125.757 436.439 125.205ZM436.202 134.912V127.651H434.702V134.912H436.202Z" fill="#B8C4D0"/>
<path d="M441.962 134.833L441.883 133.649C441.883 133.649 441.567 133.807 441.094 133.807C440.699 133.807 440.462 133.649 440.305 133.412C440.147 133.097 440.147 132.702 440.147 132.071V128.756H441.883V127.572H440.147V125.362H438.647V127.572H437.621V128.756H438.726V132.071C438.726 133.491 438.805 134.991 440.62 134.991C441.173 135.07 441.567 134.991 441.962 134.833Z" fill="#B8C4D0"/>
<path d="M444.882 134.912V124.337H443.462V134.912H444.882Z" fill="#B8C4D0"/>
<path d="M453.801 130.966C453.801 128.914 452.38 127.493 450.328 127.493C448.276 127.493 446.619 128.993 446.619 131.281C446.619 133.57 448.118 135.07 450.249 135.07C452.459 135.07 453.327 133.965 453.485 133.886L452.854 133.018C452.696 133.097 451.828 133.886 450.407 133.886C449.065 133.886 448.118 133.018 448.039 131.597H453.643C453.722 131.597 453.801 131.203 453.801 130.966ZM452.38 130.571H448.118C448.197 129.703 448.829 128.519 450.249 128.519C451.749 128.519 452.38 129.782 452.38 130.571Z" fill="#B8C4D0"/>
<path d="M460.35 132.781C460.35 131.834 459.719 131.282 458.93 130.887C458.614 130.729 458.377 130.65 457.983 130.571C457.272 130.334 456.562 130.098 456.562 129.466C456.562 128.835 457.036 128.598 457.746 128.598C458.456 128.598 459.166 128.914 459.561 129.387L460.192 128.519C459.719 128.046 459.008 127.572 457.667 127.572C456.404 127.572 455.22 128.283 455.22 129.624C455.22 130.966 456.325 131.36 457.351 131.755C457.825 131.913 459.009 132.15 459.009 132.939C459.009 133.728 458.298 133.965 457.588 133.965C456.878 133.965 456.088 133.57 455.457 132.939L454.747 133.807C455.378 134.596 456.325 135.149 457.588 135.149C458.93 135.07 460.35 134.28 460.35 132.781Z" fill="#B8C4D0"/>
<defs>
<filter id="filter0_bd_6007_5143" x="88.9414" y="97.1755" width="193.06" height="69.5504" filterUnits="userSpaceOnUse" color-interpolation-filters="sRGB">
<feFlood flood-opacity="0" result="BackgroundImageFix"/>
<feGaussianBlur in="BackgroundImageFix" stdDeviation="2.76366"/>
<feComposite in2="SourceAlpha" operator="in" result="effect1_backgroundBlur_6007_5143"/>
<feColorMatrix in="SourceAlpha" type="matrix" values="0 0 0 0 0 0 0 0 0 0 0 0 0 0 0 0 0 0 127 0" result="hardAlpha"/>
<feMorphology radius="0.611245" operator="erode" in="SourceAlpha" result="effect2_dropShadow_6007_5143"/>
<feOffset dy="2.44498"/>
<feGaussianBlur stdDeviation="7.33494"/>
<feComposite in2="hardAlpha" operator="out"/>
<feColorMatrix type="matrix" values="0 0 0 0 0 0 0 0 0 0 0 0 0 0 0 0 0 0 0.2 0"/>
<feBlend mode="normal" in2="effect1_backgroundBlur_6007_5143" result="effect2_dropShadow_6007_5143"/>
<feBlend mode="normal" in="SourceGraphic" in2="effect2_dropShadow_6007_5143" result="shape"/>
</filter>
<filter id="filter1_bd_6007_5143" x="298.082" y="209.558" width="158.651" height="69.6292" filterUnits="userSpaceOnUse" color-interpolation-filters="sRGB">
<feFlood flood-opacity="0" result="BackgroundImageFix"/>
<feGaussianBlur in="BackgroundImageFix" stdDeviation="2.76366"/>
<feComposite in2="SourceAlpha" operator="in" result="effect1_backgroundBlur_6007_5143"/>
<feColorMatrix in="SourceAlpha" type="matrix" values="0 0 0 0 0 0 0 0 0 0 0 0 0 0 0 0 0 0 127 0" result="hardAlpha"/>
<feMorphology radius="0.611245" operator="erode" in="SourceAlpha" result="effect2_dropShadow_6007_5143"/>
<feOffset dy="2.44498"/>
<feGaussianBlur stdDeviation="7.33494"/>
<feComposite in2="hardAlpha" operator="out"/>
<feColorMatrix type="matrix" values="0 0 0 0 0 0 0 0 0 0 0 0 0 0 0 0 0 0 0.2 0"/>
<feBlend mode="normal" in2="effect1_backgroundBlur_6007_5143" result="effect2_dropShadow_6007_5143"/>
<feBlend mode="normal" in="SourceGraphic" in2="effect2_dropShadow_6007_5143" result="shape"/>
</filter>
<filter id="filter2_bd_6007_5143" x="266.512" y="97.1755" width="113.746" height="69.6292" filterUnits="userSpaceOnUse" color-interpolation-filters="sRGB">
<feFlood flood-opacity="0" result="BackgroundImageFix"/>
<feGaussianBlur in="BackgroundImageFix" stdDeviation="2.76366"/>
<feComposite in2="SourceAlpha" operator="in" result="effect1_backgroundBlur_6007_5143"/>
<feColorMatrix in="SourceAlpha" type="matrix" values="0 0 0 0 0 0 0 0 0 0 0 0 0 0 0 0 0 0 127 0" result="hardAlpha"/>
<feMorphology radius="0.611245" operator="erode" in="SourceAlpha" result="effect2_dropShadow_6007_5143"/>
<feOffset dy="2.44498"/>
<feGaussianBlur stdDeviation="7.33494"/>
<feComposite in2="hardAlpha" operator="out"/>
<feColorMatrix type="matrix" values="0 0 0 0 0 0 0 0 0 0 0 0 0 0 0 0 0 0 0.2 0"/>
<feBlend mode="normal" in2="effect1_backgroundBlur_6007_5143" result="effect2_dropShadow_6007_5143"/>
<feBlend mode="normal" in="SourceGraphic" in2="effect2_dropShadow_6007_5143" result="shape"/>
</filter>
<filter id="filter3_bd_6007_5143" x="167.467" y="209.558" width="143.972" height="69.5504" filterUnits="userSpaceOnUse" color-interpolation-filters="sRGB">
<feFlood flood-opacity="0" result="BackgroundImageFix"/>
<feGaussianBlur in="BackgroundImageFix" stdDeviation="2.76366"/>
<feComposite in2="SourceAlpha" operator="in" result="effect1_backgroundBlur_6007_5143"/>
<feColorMatrix in="SourceAlpha" type="matrix" values="0 0 0 0 0 0 0 0 0 0 0 0 0 0 0 0 0 0 127 0" result="hardAlpha"/>
<feMorphology radius="0.611245" operator="erode" in="SourceAlpha" result="effect2_dropShadow_6007_5143"/>
<feOffset dy="2.44498"/>
<feGaussianBlur stdDeviation="7.33494"/>
<feComposite in2="hardAlpha" operator="out"/>
<feColorMatrix type="matrix" values="0 0 0 0 0 0 0 0 0 0 0 0 0 0 0 0 0 0 0.2 0"/>
<feBlend mode="normal" in2="effect1_backgroundBlur_6007_5143" result="effect2_dropShadow_6007_5143"/>
<feBlend mode="normal" in="SourceGraphic" in2="effect2_dropShadow_6007_5143" result="shape"/>
</filter>
<filter id="filter4_bd_6007_5143" x="345.353" y="155.103" width="153.127" height="69.5504" filterUnits="userSpaceOnUse" color-interpolation-filters="sRGB">
<feFlood flood-opacity="0" result="BackgroundImageFix"/>
<feGaussianBlur in="BackgroundImageFix" stdDeviation="2.76366"/>
<feComposite in2="SourceAlpha" operator="in" result="effect1_backgroundBlur_6007_5143"/>
<feColorMatrix in="SourceAlpha" type="matrix" values="0 0 0 0 0 0 0 0 0 0 0 0 0 0 0 0 0 0 127 0" result="hardAlpha"/>
<feMorphology radius="0.611245" operator="erode" in="SourceAlpha" result="effect2_dropShadow_6007_5143"/>
<feOffset dy="2.44498"/>
<feGaussianBlur stdDeviation="7.33494"/>
<feComposite in2="hardAlpha" operator="out"/>
<feColorMatrix type="matrix" values="0 0 0 0 0 0 0 0 0 0 0 0 0 0 0 0 0 0 0.2 0"/>
<feBlend mode="normal" in2="effect1_backgroundBlur_6007_5143" result="effect2_dropShadow_6007_5143"/>
<feBlend mode="normal" in="SourceGraphic" in2="effect2_dropShadow_6007_5143" result="shape"/>
</filter>
<filter id="filter5_bd_6007_5143" x="224.764" y="155.103" width="135.291" height="69.6292" filterUnits="userSpaceOnUse" color-interpolation-filters="sRGB">
<feFlood flood-opacity="0" result="BackgroundImageFix"/>
<feGaussianBlur in="BackgroundImageFix" stdDeviation="2.76366"/>
<feComposite in2="SourceAlpha" operator="in" result="effect1_backgroundBlur_6007_5143"/>
<feColorMatrix in="SourceAlpha" type="matrix" values="0 0 0 0 0 0 0 0 0 0 0 0 0 0 0 0 0 0 127 0" result="hardAlpha"/>
<feMorphology radius="0.611245" operator="erode" in="SourceAlpha" result="effect2_dropShadow_6007_5143"/>
<feOffset dy="2.44498"/>
<feGaussianBlur stdDeviation="7.33494"/>
<feComposite in2="hardAlpha" operator="out"/>
<feColorMatrix type="matrix" values="0 0 0 0 0 0 0 0 0 0 0 0 0 0 0 0 0 0 0.2 0"/>
<feBlend mode="normal" in2="effect1_backgroundBlur_6007_5143" result="effect2_dropShadow_6007_5143"/>
<feBlend mode="normal" in="SourceGraphic" in2="effect2_dropShadow_6007_5143" result="shape"/>
</filter>
<filter id="filter6_bd_6007_5143" x="122.879" y="155.103" width="117.139" height="69.6292" filterUnits="userSpaceOnUse" color-interpolation-filters="sRGB">
<feFlood flood-opacity="0" result="BackgroundImageFix"/>
<feGaussianBlur in="BackgroundImageFix" stdDeviation="2.76366"/>
<feComposite in2="SourceAlpha" operator="in" result="effect1_backgroundBlur_6007_5143"/>
<feColorMatrix in="SourceAlpha" type="matrix" values="0 0 0 0 0 0 0 0 0 0 0 0 0 0 0 0 0 0 127 0" result="hardAlpha"/>
<feMorphology radius="0.611245" operator="erode" in="SourceAlpha" result="effect2_dropShadow_6007_5143"/>
<feOffset dy="2.44498"/>
<feGaussianBlur stdDeviation="7.33494"/>
<feComposite in2="hardAlpha" operator="out"/>
<feColorMatrix type="matrix" values="0 0 0 0 0 0 0 0 0 0 0 0 0 0 0 0 0 0 0.2 0"/>
<feBlend mode="normal" in2="effect1_backgroundBlur_6007_5143" result="effect2_dropShadow_6007_5143"/>
<feBlend mode="normal" in="SourceGraphic" in2="effect2_dropShadow_6007_5143" result="shape"/>
</filter>
<filter id="filter7_bd_6007_5143" x="364.373" y="97.1754" width="130.161" height="69.6292" filterUnits="userSpaceOnUse" color-interpolation-filters="sRGB">
<feFlood flood-opacity="0" result="BackgroundImageFix"/>
<feGaussianBlur in="BackgroundImageFix" stdDeviation="2.76366"/>
<feComposite in2="SourceAlpha" operator="in" result="effect1_backgroundBlur_6007_5143"/>
<feColorMatrix in="SourceAlpha" type="matrix" values="0 0 0 0 0 0 0 0 0 0 0 0 0 0 0 0 0 0 127 0" result="hardAlpha"/>
<feMorphology radius="0.611245" operator="erode" in="SourceAlpha" result="effect2_dropShadow_6007_5143"/>
<feOffset dy="2.44498"/>
<feGaussianBlur stdDeviation="7.33494"/>
<feComposite in2="hardAlpha" operator="out"/>
<feColorMatrix type="matrix" values="0 0 0 0 0 0 0 0 0 0 0 0 0 0 0 0 0 0 0.2 0"/>
<feBlend mode="normal" in2="effect1_backgroundBlur_6007_5143" result="effect2_dropShadow_6007_5143"/>
<feBlend mode="normal" in="SourceGraphic" in2="effect2_dropShadow_6007_5143" result="shape"/>
</filter>
<filter id="filter8_bd_6007_5143" x="363.583" y="96.3863" width="131.739" height="71.2076" filterUnits="userSpaceOnUse" color-interpolation-filters="sRGB">
<feFlood flood-opacity="0" result="BackgroundImageFix"/>
<feGaussianBlur in="BackgroundImageFix" stdDeviation="2.76366"/>
<feComposite in2="SourceAlpha" operator="in" result="effect1_backgroundBlur_6007_5143"/>
<feColorMatrix in="SourceAlpha" type="matrix" values="0 0 0 0 0 0 0 0 0 0 0 0 0 0 0 0 0 0 127 0" result="hardAlpha"/>
<feMorphology radius="0.611245" operator="erode" in="SourceAlpha" result="effect2_dropShadow_6007_5143"/>
<feOffset dy="2.44498"/>
<feGaussianBlur stdDeviation="7.33494"/>
<feComposite in2="hardAlpha" operator="out"/>
<feColorMatrix type="matrix" values="0 0 0 0 0 0 0 0 0 0 0 0 0 0 0 0 0 0 0.2 0"/>
<feBlend mode="normal" in2="effect1_backgroundBlur_6007_5143" result="effect2_dropShadow_6007_5143"/>
<feBlend mode="normal" in="SourceGraphic" in2="effect2_dropShadow_6007_5143" result="shape"/>
</filter>
<linearGradient id="paint0_linear_6007_5143" x1="158.618" y1="48" x2="433.905" y2="271.34" gradientUnits="userSpaceOnUse">
<stop stop-color="#0C2966"/>
<stop offset="1" stop-color="#0045C9"/>
</linearGradient>
<linearGradient id="paint1_linear_6007_5143" x1="109.731" y1="108.789" x2="166.119" y2="196.052" gradientUnits="userSpaceOnUse">
<stop stop-color="white" stop-opacity="0.09"/>
<stop offset="1" stop-color="white" stop-opacity="0.3"/>
</linearGradient>
<linearGradient id="paint2_linear_6007_5143" x1="125.422" y1="109.618" x2="162.37" y2="188.3" gradientUnits="userSpaceOnUse">
<stop stop-color="white" stop-opacity="0.4"/>
<stop offset="1" stop-color="white"/>
</linearGradient>
<linearGradient id="paint3_linear_6007_5143" x1="317.468" y1="221.172" x2="378.206" y2="295.418" gradientUnits="userSpaceOnUse">
<stop stop-color="white" stop-opacity="0.09"/>
<stop offset="1" stop-color="white" stop-opacity="0.3"/>
</linearGradient>
<linearGradient id="paint4_linear_6007_5143" x1="329.885" y1="222.002" x2="372.148" y2="293.092" gradientUnits="userSpaceOnUse">
<stop stop-color="white" stop-opacity="0.4"/>
<stop offset="1" stop-color="#3D7FFC"/>
</linearGradient>
<linearGradient id="paint5_linear_6007_5143" x1="284.066" y1="108.789" x2="344.552" y2="157.292" gradientUnits="userSpaceOnUse">
<stop stop-color="white" stop-opacity="0.09"/>
<stop offset="1" stop-color="white" stop-opacity="0.3"/>
</linearGradient>
<linearGradient id="paint6_linear_6007_5143" x1="292.211" y1="109.619" x2="340.087" y2="162.447" gradientUnits="userSpaceOnUse">
<stop stop-color="white" stop-opacity="0.4"/>
<stop offset="1" stop-color="#3D7FFC"/>
</linearGradient>
<linearGradient id="paint7_linear_6007_5143" x1="186.254" y1="221.172" x2="247.889" y2="288.168" gradientUnits="userSpaceOnUse">
<stop stop-color="white" stop-opacity="0.09"/>
<stop offset="1" stop-color="white" stop-opacity="0.3"/>
</linearGradient>
<linearGradient id="paint8_linear_6007_5143" x1="197.275" y1="222" x2="241.646" y2="288.369" gradientUnits="userSpaceOnUse">
<stop stop-color="white" stop-opacity="0.4"/>
<stop offset="1" stop-color="white"/>
</linearGradient>
<linearGradient id="paint9_linear_6007_5143" x1="364.514" y1="166.717" x2="425.585" y2="238.346" gradientUnits="userSpaceOnUse">
<stop stop-color="white" stop-opacity="0.09"/>
<stop offset="1" stop-color="white" stop-opacity="0.3"/>
</linearGradient>
<linearGradient id="paint10_linear_6007_5143" x1="376.406" y1="167.545" x2="419.401" y2="236.939" gradientUnits="userSpaceOnUse">
<stop stop-color="white" stop-opacity="0.4"/>
<stop offset="1" stop-color="white"/>
</linearGradient>
<linearGradient id="paint11_linear_6007_5143" x1="243.197" y1="166.717" x2="305.164" y2="228.909" gradientUnits="userSpaceOnUse">
<stop stop-color="white" stop-opacity="0.09"/>
<stop offset="1" stop-color="white" stop-opacity="0.3"/>
</linearGradient>
<linearGradient id="paint12_linear_6007_5143" x1="253.392" y1="167.547" x2="299.097" y2="230.668" gradientUnits="userSpaceOnUse">
<stop stop-color="white" stop-opacity="0.4"/>
<stop offset="1" stop-color="#3D7FFC"/>
</linearGradient>
<linearGradient id="paint13_linear_6007_5143" x1="140.57" y1="166.717" x2="201.526" y2="217.532" gradientUnits="userSpaceOnUse">
<stop stop-color="white" stop-opacity="0.09"/>
<stop offset="1" stop-color="white" stop-opacity="0.3"/>
</linearGradient>
<linearGradient id="paint14_linear_6007_5143" x1="149.039" y1="167.547" x2="196.697" y2="222.218" gradientUnits="userSpaceOnUse">
<stop stop-color="white" stop-opacity="0.4"/>
<stop offset="1" stop-color="#3D7FFC"/>
</linearGradient>
<linearGradient id="paint15_linear_6007_5143" x1="382.596" y1="108.789" x2="444.499" y2="167.944" gradientUnits="userSpaceOnUse">
<stop stop-color="white" stop-opacity="0.09"/>
<stop offset="1" stop-color="white" stop-opacity="0.3"/>
</linearGradient>
<linearGradient id="paint16_linear_6007_5143" x1="392.303" y1="109.619" x2="438.662" y2="170.58" gradientUnits="userSpaceOnUse">
<stop stop-color="white" stop-opacity="0.4"/>
<stop offset="1" stop-color="#3D7FFC"/>
</linearGradient>
<linearGradient id="paint17_linear_6007_5143" x1="381.871" y1="108" x2="446.049" y2="167.995" gradientUnits="userSpaceOnUse">
<stop stop-color="white" stop-opacity="0.09"/>
<stop offset="1" stop-color="white" stop-opacity="0.3"/>
</linearGradient>
<linearGradient id="paint18_linear_6007_5143" x1="391.728" y1="108.862" x2="440.122" y2="171.116" gradientUnits="userSpaceOnUse">
<stop stop-color="white" stop-opacity="0.4"/>
<stop offset="1" stop-color="#3D7FFC"/>
</linearGradient>
</defs>
</svg>
