<svg width="47" height="47" viewBox="0 0 47 47" fill="none" xmlns="http://www.w3.org/2000/svg">
<g clip-path="url(#clip0_6005_4207)">
<g clip-path="url(#clip1_6005_4207)">
<path d="M35.01 10.36C34.64 10.08 34.13 10.01 33.66 10.01H26V0.76C26 0.34 26.34 0 26.76 0H38.06V9.58H46.94V26.89C46.94 27.31 46.6 27.65 46.18 27.65H42.97V19.45C42.97 18.72 42.68 18.01 42.18 17.51C42.18 17.51 37.03 11.89 35.02 10.36H35.01Z" fill="#FECE4D"/>
<path d="M39.52 8.11997H46.23L39.52 1.40997V8.11997Z" fill="#C6DBFF"/>
<path d="M18.02 12.77C18.02 12.2 18.19 11.67 18.49 11.23H14.62V3.58002H5.61C5.27 3.58002 5 3.85002 5 4.18002V21.89H18.02V12.77Z" fill="#E7EEFF"/>
<path d="M21.1 10.01L15.79 4.70001V10.05H20.32C20.47 10.03 20.62 10 20.77 10H21.09L21.1 10.01Z" fill="#C6DBFF"/>
<path d="M33.73 20.58C33.33 20.58 33 20.25 33 19.85V12.5C33 12.33 33.03 12.17 33.09 12.01H20.78C20.35 12.01 20.02 12.34 20.02 12.77V21.89H20.6C20.99 21.89 21.37 21.93 21.73 22.01C22.08 22.08 22.41 22.19 22.73 22.33C23.08 22.48 23.42 22.67 23.73 22.9C24.97 23.78 25.83 25.17 26 26.77C26 26.83 26 26.9 26.01 26.96C26.01 27.09 26.03 27.21 26.03 27.34V33.52C26.03 34 25.83 34.45 25.52 34.81L29.24 37.78C29.71 38.16 29.99 38.73 29.99 39.34C29.99 39.46 29.97 39.57 29.95 39.68H40.21C40.64 39.68 40.97 39.35 40.97 38.92V20.59H33.73V20.58Z" fill="#C6DBFF"/>
<path d="M34.71 12.73L34.52 12.82L34.47 19.11H40.89C40.85 19.04 40.81 18.97 40.76 18.91L34.72 12.73H34.71Z" fill="#76A5FF"/>
<path d="M41.11 19.09L34.52 12.47V12.82L34.71 12.73L40.75 18.91C40.81 18.97 40.85 19.04 40.88 19.11H41.08C41.08 19.11 41.1 19.11 41.11 19.09Z" fill="#76A5FF"/>
<path d="M23.63 25.74C23.41 25.32 23.1 24.95 22.73 24.65C22.43 24.41 22.1 24.22 21.73 24.09C21.37 23.96 21 23.88 20.6 23.88H3.44C3.29 23.88 3.15 23.91 3 23.92C1.31 24.15 0 25.58 0 27.32V39.34C0 41.24 1.54 42.78 3.44 42.78H11.58L7.28 39.34H4.41C3.86 39.34 3.41 38.89 3.41 38.34V28.32C3.41 27.78 3.84 27.35 4.37 27.33C4.38 27.33 4.39 27.33 4.41 27.33H19.59C19.74 27.33 19.88 27.37 20.01 27.43C20.13 27.49 20.23 27.56 20.32 27.66C20.48 27.84 20.59 28.07 20.59 28.33V30.76L24.02 33.51V27.33C24.02 26.75 23.87 26.22 23.62 25.74H23.63Z" fill="#3D7FFC"/>
<path d="M18.0201 38.91V35.87C13.1101 35.65 9.99006 33.29 7.32006 30.69H7.31006C7.31006 37.44 13.3201 42.74 19.4001 42.81V46.2L25.0601 41.67H20.7801C19.2601 41.67 18.0201 40.43 18.0201 38.91Z" fill="#3D7FFC"/>
<path d="M20.02 32.95V38.91C20.02 39.34 20.35 39.67 20.78 39.67H27.56L27.99 39.33L20.02 32.95Z" fill="#3D7FFC"/>
<path d="M19.02 38.91V35.89C18.93 35.89 18.84 35.89 18.75 35.89C18.5 35.89 18.26 35.88 18.02 35.87V38.91C18.02 40.43 19.26 41.67 20.78 41.67H25.06L26.31 40.67H20.77C19.8 40.67 19.01 39.89 19.01 38.91H19.02Z" fill="#3D7FFC"/>
<path d="M20.02 38.91V32.95L19.4 32.46V35.88C19.27 35.88 19.15 35.88 19.02 35.88V38.9C19.02 39.88 19.81 40.66 20.78 40.66H26.32L27.57 39.66H20.79C20.36 39.66 20.03 39.33 20.03 38.9L20.02 38.91Z" fill="#3D7FFC"/>
</g>
</g>
<defs>
<clipPath id="clip0_6005_4207">
<rect width="47" height="47" fill="white"/>
</clipPath>
<clipPath id="clip1_6005_4207">
<rect width="46.94" height="46.2" fill="white"/>
</clipPath>
</defs>
</svg>
