<svg width="68" height="64" viewBox="0 0 68 64" fill="none" xmlns="http://www.w3.org/2000/svg">
<rect width="68" height="64" rx="9.17916" fill="#092349"/>
<mask id="mask0_56516_11907" style="mask-type:luminance" maskUnits="userSpaceOnUse" x="12" y="19" width="44" height="26">
<path d="M12 19H55.6177V44.5966H12V19Z" fill="white"/>
</mask>
<g mask="url(#mask0_56516_11907)">
<path d="M24.3968 28.3381C24.3968 28.8592 24.4546 29.2813 24.5549 29.5903C24.6694 29.8992 24.8134 30.2376 25.014 30.602C25.0778 30.6983 25.1126 30.8108 25.1143 30.9262C25.1143 31.0676 25.0282 31.2079 24.8417 31.3483L23.9377 31.939C23.8282 32.016 23.6987 32.0598 23.5648 32.0652C23.422 32.0652 23.278 31.9956 23.1341 31.8694C22.9413 31.6659 22.7685 31.4444 22.6183 31.2079C22.4581 30.9378 22.3096 30.6608 22.1734 30.3779C21.0546 31.6725 19.6479 32.3187 17.9545 32.3187C16.7495 32.3187 15.7889 31.9814 15.0855 31.3069C14.3822 30.6314 14.0234 29.7306 14.0234 28.6057C14.0234 27.4102 14.4542 26.4398 15.3298 25.7087C16.2043 24.9777 17.3667 24.6111 18.8443 24.6111C19.3328 24.6111 19.8344 24.6546 20.3654 24.7242C20.8965 24.7938 21.4417 24.907 22.0153 25.0332V24.0062C22.0153 22.9379 21.7863 22.1927 21.3414 21.7565C20.8823 21.3213 20.107 21.1092 19.0024 21.1092C18.5008 21.1092 17.9839 21.1657 17.4529 21.2919C16.9218 21.4192 16.4061 21.5737 15.9034 21.7706C15.6744 21.8685 15.501 21.9251 15.4018 21.9534C15.3273 21.9775 15.2499 21.9918 15.1717 21.9958C14.971 21.9958 14.8707 21.8544 14.8707 21.5596V20.8698C14.8707 20.6457 14.8991 20.4771 14.971 20.3781C15.043 20.2802 15.1717 20.1812 15.3723 20.0833C15.9486 19.8038 16.5553 19.5913 17.1803 19.4502C17.912 19.266 18.6643 19.1761 19.4189 19.1825C21.1255 19.1825 22.374 19.5633 23.1777 20.3216C23.9672 21.0809 24.3685 22.2351 24.3685 23.781V28.3392L24.3968 28.3381ZM18.5717 30.4758C19.0449 30.4758 19.5334 30.392 20.0503 30.2234C20.5661 30.0548 21.0252 29.7447 21.4134 29.3226C21.6438 29.0647 21.8107 28.7566 21.9008 28.423C21.9869 28.0857 22.0436 27.6778 22.0436 27.1991V26.6084C21.6282 26.5105 21.1833 26.4256 20.7242 26.3691C20.2767 26.3136 19.8263 26.2856 19.3753 26.2853C18.4146 26.2853 17.7113 26.4681 17.2381 26.8477C16.7637 27.2274 16.5347 27.7615 16.5347 28.4654C16.5347 29.1257 16.707 29.6185 17.0658 29.9558C17.4104 30.3072 17.912 30.4758 18.5717 30.4758ZM30.0933 31.9956C29.8349 31.9956 29.6626 31.952 29.5481 31.8541C29.4336 31.7704 29.3332 31.5735 29.2471 31.3058L25.8755 20.4347C25.7882 20.1529 25.7457 19.9702 25.7457 19.8723C25.7457 19.6471 25.8602 19.5198 26.0903 19.5198H27.4969C27.7696 19.5198 27.9549 19.5633 28.0563 19.6612C28.1708 19.745 28.257 19.9419 28.3431 20.2095L30.753 29.5196L32.9917 20.2095C33.0637 19.9277 33.1498 19.745 33.2643 19.6612C33.3788 19.5764 33.5805 19.5198 33.8379 19.5198H34.9861C35.2587 19.5198 35.4452 19.5633 35.5597 19.6612C35.6753 19.745 35.7756 19.9419 35.8323 20.2095L38.1004 29.6327L40.5822 20.2095C40.6673 19.9277 40.7676 19.745 40.869 19.6612C40.9835 19.5764 41.17 19.5198 41.4284 19.5198H42.7631C42.9921 19.5198 43.1208 19.6329 43.1208 19.8723C43.1208 19.9419 43.1066 20.0126 43.0924 20.0964C43.0783 20.1812 43.0488 20.2933 42.9921 20.4488L39.5343 31.32C39.4482 31.6018 39.3479 31.7845 39.2334 31.8683C39.1178 31.9531 38.9313 32.0097 38.6882 32.0097H37.4538C37.1812 32.0097 36.9947 31.9662 36.8802 31.8683C36.7657 31.7704 36.6643 31.5876 36.6076 31.3058L34.3831 22.2351L32.1739 31.2917C32.1019 31.5735 32.0157 31.7562 31.9012 31.8541C31.7867 31.952 31.585 31.9956 31.3277 31.9956H30.0933ZM48.5305 32.3752C47.7867 32.3759 47.0454 32.2908 46.3212 32.1218C45.6037 31.9531 45.0443 31.7704 44.6714 31.5593C44.4413 31.4331 44.2832 31.2917 44.2265 31.1655C44.1704 31.0417 44.1406 30.9076 44.1393 30.7717V30.0537C44.1393 29.76 44.2549 29.6186 44.4697 29.6186C44.5575 29.6189 44.6448 29.6333 44.7281 29.661C44.8153 29.6893 44.944 29.7447 45.088 29.8013C45.5743 30.0124 46.1053 30.181 46.6647 30.293C47.2394 30.4062 47.7988 30.4617 48.3724 30.4617C49.2774 30.4617 49.9797 30.3072 50.4671 29.9982C50.9556 29.6882 51.213 29.2389 51.213 28.6623C51.213 28.2685 51.0843 27.9443 50.8259 27.6778C50.5674 27.4102 50.08 27.1708 49.3767 26.9467L47.2961 26.3136C46.2493 25.9894 45.4751 25.5118 45.0007 24.8787C44.5275 24.2597 44.2832 23.571 44.2832 22.8389C44.2832 22.2482 44.413 21.7293 44.6714 21.2778C44.9288 20.8285 45.2733 20.4347 45.7041 20.1246C46.1525 19.7923 46.658 19.5445 47.1958 19.3936C47.7838 19.2276 48.3927 19.147 49.0037 19.1543C49.32 19.1543 49.6493 19.1684 49.9655 19.2108C50.2948 19.2533 50.5969 19.3087 50.8978 19.3653C51.1846 19.436 51.4572 19.5067 51.7157 19.5905C51.9741 19.6754 52.1747 19.7591 52.3187 19.844C52.5193 19.956 52.6633 20.0692 52.7483 20.1954C52.8356 20.3074 52.8781 20.4619 52.8781 20.6599V21.3202C52.8781 21.6161 52.7636 21.7706 52.5477 21.7706C52.4332 21.7706 52.2467 21.714 52.0024 21.602C51.1846 21.2365 50.2665 21.0526 49.248 21.0526C48.4302 21.0526 47.7846 21.1799 47.3397 21.4475C46.8948 21.714 46.6647 22.122 46.6647 22.6986C46.6647 23.0924 46.8087 23.4296 47.0955 23.6972C47.3822 23.9649 47.9133 24.2314 48.6744 24.4707L50.7114 25.1039C51.744 25.427 52.491 25.8763 52.9359 26.4539C53.3797 27.0305 53.5956 27.6919 53.5956 28.423C53.5956 29.0278 53.4658 29.5761 53.2227 30.0548C52.9669 30.5374 52.6098 30.9593 52.1758 31.2917C51.7298 31.6442 51.1988 31.8966 50.5827 32.0793C49.9174 32.28 49.2256 32.3798 48.5305 32.3752Z" fill="white"/>
<path fill-rule="evenodd" clip-rule="evenodd" d="M51.2425 39.2106C46.5209 42.6276 39.6631 44.4433 33.7671 44.4433C25.5016 44.4433 18.056 41.4462 12.4315 36.468C11.9866 36.0742 12.3879 35.5401 12.9189 35.849C19.0025 39.3085 26.5059 41.4048 34.2687 41.4048C39.5061 41.4048 45.2593 40.3355 50.5534 38.1412C51.3429 37.7898 52.0168 38.6482 51.2425 39.2106Z" fill="#FF9900"/>
<path fill-rule="evenodd" clip-rule="evenodd" d="M53.2125 37.0164C52.6095 36.2571 49.2237 36.6509 47.6883 36.8336C47.2293 36.8902 47.1573 36.4964 47.5727 36.2005C50.2705 34.3446 54.7042 34.8787 55.2211 35.4977C55.7369 36.1309 55.0772 40.4758 52.5517 42.558C52.1646 42.8811 51.7917 42.7125 51.9629 42.2904C52.5375 40.8979 53.8155 37.7616 53.2125 37.0164Z" fill="#FF9900"/>
</g>
</svg>
