<svg width="53" height="53" viewBox="0 0 53 53" fill="none" xmlns="http://www.w3.org/2000/svg">
    <rect x="0.5" y="0.5" width="52" height="52" rx="7.5" fill="url(#paint0_linear_56287_20248)" fill-opacity="0.12" stroke="url(#paint1_linear_56287_20248)"/>
    <g opacity="0.8" clip-path="url(#clip0_56287_20248)">
        <path d="M39.7405 18.9653L26.7277 12.0565C26.5847 11.9812 26.4147 11.9812 26.2717 12.0565L13.2595 18.9653C13.1024 19.052 13.0029 19.2182 13 19.401V34.5981C13 34.7821 13.1 34.9495 13.2613 35.035L26.2717 41.9426C26.2817 41.9479 26.2917 41.9521 26.3023 41.9556C26.3093 41.9586 26.3164 41.961 26.3235 41.9639C26.3794 41.9877 26.4394 41.9996 26.4994 41.9996C26.5594 41.9996 26.6189 41.9877 26.6748 41.9645C26.6824 41.9622 26.6895 41.9592 26.6965 41.9562C26.7071 41.9527 26.7171 41.9485 26.7271 41.9432L39.7375 35.0356C39.8988 34.9501 39.9988 34.7827 39.9988 34.5987V19.3986C39.9959 19.2176 39.8964 19.052 39.7393 18.9653H39.7405ZM26.0104 26.6072V40.6882L13.9792 34.3001V20.219L26.0104 26.6072ZM38.4594 19.401L26.5 25.7505L14.5406 19.401L26.5 13.0515L38.4594 19.401ZM39.0208 20.219V34.3001L26.9896 40.6882V26.6072L39.0208 20.219Z" fill="#9D97F4"/>
        <path d="M26.9902 26.6064L39.0214 20.2183V34.2993L26.9902 40.6874V26.6064Z" fill="#9D97F4" fill-opacity="0.3"/>
        <path d="M13.9805 20.2183L26.0117 26.6064V40.6874L13.9805 34.2993V20.2183Z" fill="#9D97F4" fill-opacity="0.5"/>
        <path d="M26.5004 13.0518L14.541 19.4013L26.5004 25.7508L38.4598 19.4013L26.5004 13.0518Z" fill="#9D97F4" fill-opacity="0.7"/>
    </g>
    <defs>
        <linearGradient id="paint0_linear_56287_20248" x1="26.5" y1="0" x2="26.5" y2="53" gradientUnits="userSpaceOnUse">
            <stop stop-color="#9D97F4" stop-opacity="0.8"/>
            <stop offset="1" stop-color="#9D97F4" stop-opacity="0.4"/>
        </linearGradient>
        <linearGradient id="paint1_linear_56287_20248" x1="36.5" y1="13.5" x2="10.5" y2="42.5" gradientUnits="userSpaceOnUse">
            <stop stop-color="white" stop-opacity="0.16"/>
            <stop offset="0.529" stop-color="white" stop-opacity="0.3"/>
            <stop offset="1" stop-color="white" stop-opacity="0.02"/>
        </linearGradient>
        <clipPath id="clip0_56287_20248">
            <rect width="27" height="30" fill="white" transform="translate(13 12)"/>
        </clipPath>
    </defs>
</svg>
