<svg width="588" height="311" viewBox="0 0 588 311" fill="none" xmlns="http://www.w3.org/2000/svg">
<path d="M0 8C0 3.58172 3.58172 0 8 0H580C584.418 0 588 3.58172 588 8V303C588 307.418 584.418 311 580 311H7.99998C3.58171 311 0 307.418 0 303V8Z" fill="#22395B"/>
<rect x="167" y="39" width="76.8869" height="61.3989" rx="3.06799" fill="url(#paint0_linear_6005_3711)"/>
<mask id="mask0_6005_3711" style="mask-type:alpha" maskUnits="userSpaceOnUse" x="167" y="39" width="77" height="62">
<rect x="167" y="39" width="76.8869" height="61.3989" rx="3.06799" fill="url(#paint1_linear_6005_3711)"/>
</mask>
<g mask="url(#mask0_6005_3711)">
<rect x="198.108" y="51.66" width="23.873" height="3.61712" rx="1.80856" fill="#D2DCE4"/>
<rect x="197.976" y="58.9132" width="39.2731" height="1.65943" rx="0.829714" fill="#D2DCE4"/>
<rect x="197.976" y="62.2319" width="39.2731" height="1.65943" rx="0.829714" fill="#D2DCE4"/>
<rect x="171.979" y="74.9543" width="65.2709" height="1.10629" rx="0.553143" fill="#EDF1F6"/>
<rect x="179.169" y="78.2732" width="58.08" height="1.10629" rx="0.553143" fill="#EDF1F6"/>
<rect x="171.701" y="78.3198" width="5.42568" height="5.06397" rx="2.53199" fill="#EDF1F6"/>
<rect x="179.169" y="81.592" width="58.08" height="1.10629" rx="0.553143" fill="#EDF1F6"/>
<rect x="221.207" y="88.2297" width="16.0266" height="6.51082" rx="3.25541" fill="#C6DBFF"/>
<mask id="mask1_6005_3711" style="mask-type:alpha" maskUnits="userSpaceOnUse" x="171" y="44" width="24" height="24">
<circle cx="183.275" cy="56.0005" r="11.5748" fill="#C4C4C4"/>
</mask>
<g mask="url(#mask1_6005_3711)">
<path d="M182.974 67.9893C189.507 67.9893 194.803 62.6941 194.803 56.1622C194.803 49.6303 189.507 44.3351 182.974 44.3351C176.441 44.3351 171.145 49.6303 171.145 56.1622C171.145 62.6941 176.441 67.9893 182.974 67.9893Z" fill="#EDF1F6"/>
<path d="M178.754 64.3891C179.827 64.3891 180.696 63.1309 180.696 61.5788C180.696 60.0267 179.827 58.7684 178.754 58.7684C177.682 58.7684 176.812 60.0267 176.812 61.5788C176.812 63.1309 177.682 64.3891 178.754 64.3891Z" fill="#E7C6A7"/>
<path d="M177.391 66.2054L189.3 65.5407C189.3 65.5407 191.116 60.5782 190.708 60.2491C190.293 59.92 183.428 56.2804 183.428 56.2804L176.727 56.4449L177.391 66.2054Z" fill="#4F3D28"/>
<path d="M183.509 77.7824C187.985 77.7824 191.613 74.4881 191.613 70.4242C191.613 66.3604 187.985 63.066 183.509 63.066C179.034 63.066 175.406 66.3604 175.406 70.4242C175.406 74.4881 179.034 77.7824 183.509 77.7824Z" fill="black"/>
<path d="M183.106 65.4639C182.139 65.4639 181.344 64.8561 181.318 64.0998L181.205 60.6219C181.18 59.8521 181.966 59.2038 182.951 59.1903C183.944 59.1768 184.765 59.7846 184.782 60.5544L184.895 64.0322C184.921 64.8021 184.134 65.4504 183.149 65.4639C183.141 65.4639 183.124 65.4639 183.106 65.4639Z" fill="#E7C6A7"/>
<path d="M182.981 59.058C182.343 59.0711 181.816 59.5318 181.685 60.1308L181.737 62.1908C181.757 62.9345 182.363 63.5203 183.1 63.5203C183.113 63.5203 183.12 63.5203 183.133 63.5203C183.771 63.5071 184.298 63.0464 184.43 62.4475L184.377 60.3875C184.357 59.6306 183.738 59.0382 182.981 59.058Z" fill="#DFB996"/>
<path d="M187.236 55.4579C187.236 58.5381 184.754 62.0329 182.707 62.0329C181.153 62.0329 178.178 58.5446 178.178 55.4579C178.178 52.3777 180.205 49.8767 182.707 49.8767C185.208 49.8767 187.236 52.3777 187.236 55.4579Z" fill="#E7C6A7"/>
<path d="M180.594 50.9888C180.172 51.0349 179.718 51.3508 179.27 51.8181C178.586 52.7922 178.178 54.0624 178.178 55.4577C178.178 57.1492 179.073 58.9591 180.139 60.2557C179.652 59.2487 179.428 58.2351 180.041 57.011C180.594 55.8987 181.403 53.4108 181.403 53.4108C181.403 53.4108 182.272 50.8045 180.594 50.9888Z" fill="#DFB996"/>
<path d="M182.703 49.8767C181.137 49.8767 179.761 50.8574 178.945 52.3448C179.359 53.2267 180.715 55.4974 183.882 56.1424C186.409 56.6557 184.902 59.0185 184.862 60.9403C186.172 59.6635 187.232 57.4718 187.232 55.4579C187.232 52.3777 185.205 49.8767 182.703 49.8767Z" fill="#DFB996"/>
<path d="M179.294 51.4891C179.294 51.4891 180.426 54.8391 184.382 55.6421C187.424 56.2607 184.633 59.5515 185.561 61.5326C186.252 63.0068 187.792 62.6514 186.614 64.1389C185.436 65.6263 186.364 70.6481 189.899 69.5358C193.434 68.4169 193.993 62.5264 192.631 60.111C191.268 57.6889 189.464 56.886 189.28 54.6548C189.096 52.4237 187.417 48.8894 183.948 48.6393C181.749 48.4813 178.735 48.2641 179.294 51.4891Z" fill="#4F3D28"/>
<path d="M180.657 52.8514C180.657 52.8514 179.848 55.3392 179.295 56.4515C178.367 58.3141 179.354 59.6765 180.289 61.289C180.973 62.4737 180.111 64.0532 179.604 64.8233C178.676 66.2515 177.866 66.5608 178.92 67.6731C179.973 68.792 173.956 72.9449 173.337 69.1605C172.719 65.3761 174.516 64.073 175.385 62.3354C176.254 60.5979 174.457 60.6637 175.51 56.8793C176.056 54.9246 178.176 50.6137 179.854 50.4294C181.526 50.2451 180.657 52.8514 180.657 52.8514Z" fill="#4F3D28"/>
</g>
</g>
<rect x="253.29" y="69.4229" width="76.8869" height="61.3989" rx="3.06799" fill="url(#paint2_linear_6005_3711)"/>
<mask id="mask2_6005_3711" style="mask-type:alpha" maskUnits="userSpaceOnUse" x="253" y="69" width="78" height="62">
<rect x="253.29" y="69.4229" width="76.8869" height="61.3989" rx="3.06799" fill="url(#paint3_linear_6005_3711)"/>
</mask>
<g mask="url(#mask2_6005_3711)">
<rect x="284.398" y="82.0828" width="23.873" height="3.61712" rx="1.80856" fill="#D2DCE4"/>
<rect x="284.266" y="89.3359" width="39.2731" height="1.65943" rx="0.829714" fill="#D2DCE4"/>
<rect x="284.266" y="92.6548" width="39.2731" height="1.65943" rx="0.829714" fill="#D2DCE4"/>
<rect x="258.267" y="105.377" width="65.2709" height="1.10629" rx="0.553143" fill="#EDF1F6"/>
<rect x="265.459" y="108.696" width="58.08" height="1.10629" rx="0.553143" fill="#EDF1F6"/>
<rect x="257.991" y="108.743" width="5.42568" height="5.06397" rx="2.53199" fill="#EDF1F6"/>
<rect x="265.459" y="112.015" width="58.08" height="1.10629" rx="0.553143" fill="#EDF1F6"/>
<rect x="307.497" y="118.653" width="16.0266" height="6.51082" rx="3.25541" fill="#C6DBFF"/>
</g>
<rect x="339.579" y="110.909" width="76.8869" height="61.3989" rx="3.06799" fill="url(#paint4_linear_6005_3711)"/>
<mask id="mask3_6005_3711" style="mask-type:alpha" maskUnits="userSpaceOnUse" x="339" y="110" width="78" height="63">
<rect x="339.579" y="110.909" width="76.8869" height="61.3989" rx="3.06799" fill="url(#paint5_linear_6005_3711)"/>
</mask>
<g mask="url(#mask3_6005_3711)">
<rect x="370.687" y="123.569" width="23.873" height="3.61712" rx="1.80856" fill="#D2DCE4"/>
<rect x="370.554" y="130.822" width="39.2731" height="1.65943" rx="0.829714" fill="#D2DCE4"/>
<rect x="370.554" y="134.141" width="39.2731" height="1.65943" rx="0.829714" fill="#D2DCE4"/>
<rect x="344.557" y="146.863" width="65.2709" height="1.10629" rx="0.553143" fill="#EDF1F6"/>
<rect x="351.748" y="150.182" width="58.08" height="1.10629" rx="0.553143" fill="#EDF1F6"/>
<rect x="344.279" y="150.229" width="5.42568" height="5.06397" rx="2.53199" fill="#EDF1F6"/>
<rect x="351.748" y="153.501" width="58.08" height="1.10629" rx="0.553143" fill="#EDF1F6"/>
<rect x="393.787" y="160.138" width="16.0266" height="6.51082" rx="3.25541" fill="#C6DBFF"/>
</g>
<rect x="167" y="108.696" width="76.8869" height="61.3989" rx="3.06799" fill="url(#paint6_linear_6005_3711)"/>
<mask id="mask4_6005_3711" style="mask-type:alpha" maskUnits="userSpaceOnUse" x="167" y="108" width="77" height="63">
<rect x="167" y="108.696" width="76.8869" height="61.3989" rx="3.06799" fill="url(#paint7_linear_6005_3711)"/>
</mask>
<g mask="url(#mask4_6005_3711)">
<rect x="198.108" y="121.356" width="23.873" height="3.61712" rx="1.80856" fill="#D2DCE4"/>
<rect x="197.976" y="128.609" width="39.2731" height="1.65943" rx="0.829714" fill="#D2DCE4"/>
<rect x="197.976" y="131.928" width="39.2731" height="1.65943" rx="0.829714" fill="#D2DCE4"/>
<rect x="171.979" y="144.65" width="65.2709" height="1.10629" rx="0.553143" fill="#EDF1F6"/>
<rect x="179.169" y="147.969" width="58.08" height="1.10629" rx="0.553143" fill="#EDF1F6"/>
<rect x="171.701" y="148.016" width="5.42568" height="5.06397" rx="2.53199" fill="#EDF1F6"/>
<rect x="179.169" y="151.288" width="58.08" height="1.10629" rx="0.553143" fill="#EDF1F6"/>
<rect x="221.207" y="157.926" width="16.0266" height="6.51082" rx="3.25541" fill="#C6DBFF"/>
</g>
<rect x="253.29" y="139.119" width="76.8869" height="61.3989" rx="3.06799" fill="url(#paint8_linear_6005_3711)"/>
<mask id="mask5_6005_3711" style="mask-type:alpha" maskUnits="userSpaceOnUse" x="253" y="139" width="78" height="62">
<rect x="253.29" y="139.119" width="76.8869" height="61.3989" rx="3.06799" fill="url(#paint9_linear_6005_3711)"/>
</mask>
<g mask="url(#mask5_6005_3711)">
<rect x="284.398" y="151.779" width="23.873" height="3.61712" rx="1.80856" fill="#D2DCE4"/>
<rect x="284.266" y="159.032" width="39.2731" height="1.65943" rx="0.829714" fill="#D2DCE4"/>
<rect x="284.266" y="162.351" width="39.2731" height="1.65943" rx="0.829714" fill="#D2DCE4"/>
<rect x="258.267" y="175.073" width="65.2709" height="1.10629" rx="0.553143" fill="#EDF1F6"/>
<rect x="265.459" y="178.392" width="58.08" height="1.10629" rx="0.553143" fill="#EDF1F6"/>
<rect x="257.991" y="178.439" width="5.42568" height="5.06397" rx="2.53199" fill="#EDF1F6"/>
<rect x="265.459" y="181.711" width="58.08" height="1.10629" rx="0.553143" fill="#EDF1F6"/>
<rect x="307.497" y="188.349" width="16.0266" height="6.51082" rx="3.25541" fill="#C6DBFF"/>
</g>
<rect x="339.579" y="180.604" width="76.8869" height="61.3989" rx="3.06799" fill="url(#paint10_linear_6005_3711)"/>
<mask id="mask6_6005_3711" style="mask-type:alpha" maskUnits="userSpaceOnUse" x="339" y="180" width="78" height="63">
<rect x="339.579" y="180.604" width="76.8869" height="61.3989" rx="3.06799" fill="url(#paint11_linear_6005_3711)"/>
</mask>
<g mask="url(#mask6_6005_3711)">
<rect x="370.687" y="193.264" width="23.873" height="3.61712" rx="1.80856" fill="#D2DCE4"/>
<rect x="370.554" y="200.518" width="39.2731" height="1.65943" rx="0.829714" fill="#D2DCE4"/>
<rect x="370.554" y="203.836" width="39.2731" height="1.65943" rx="0.829714" fill="#D2DCE4"/>
<rect x="344.557" y="216.559" width="65.2709" height="1.10629" rx="0.553143" fill="#EDF1F6"/>
<rect x="351.748" y="219.878" width="58.08" height="1.10629" rx="0.553143" fill="#EDF1F6"/>
<rect x="344.279" y="219.924" width="5.42568" height="5.06397" rx="2.53199" fill="#EDF1F6"/>
<rect x="351.748" y="223.197" width="58.08" height="1.10629" rx="0.553143" fill="#EDF1F6"/>
<rect x="393.787" y="229.834" width="16.0266" height="6.51082" rx="3.25541" fill="#C6DBFF"/>
</g>
<rect x="167" y="180.052" width="76.8869" height="61.3989" rx="3.06799" fill="url(#paint12_linear_6005_3711)"/>
<mask id="mask7_6005_3711" style="mask-type:alpha" maskUnits="userSpaceOnUse" x="167" y="180" width="77" height="62">
<rect x="167" y="180.052" width="76.8869" height="61.3989" rx="3.06799" fill="url(#paint13_linear_6005_3711)"/>
</mask>
<g mask="url(#mask7_6005_3711)">
<rect x="198.108" y="192.712" width="23.873" height="3.61712" rx="1.80856" fill="#D2DCE4"/>
<rect x="197.976" y="199.964" width="39.2731" height="1.65943" rx="0.829714" fill="#D2DCE4"/>
<rect x="197.976" y="203.283" width="39.2731" height="1.65943" rx="0.829714" fill="#D2DCE4"/>
<rect x="171.979" y="216.006" width="65.2709" height="1.10629" rx="0.553143" fill="#EDF1F6"/>
<rect x="179.169" y="219.325" width="58.08" height="1.10629" rx="0.553143" fill="#EDF1F6"/>
<rect x="171.701" y="219.371" width="5.42568" height="5.06397" rx="2.53199" fill="#EDF1F6"/>
<rect x="179.169" y="222.643" width="58.08" height="1.10629" rx="0.553143" fill="#EDF1F6"/>
<rect x="221.207" y="229.281" width="16.0266" height="6.51082" rx="3.25541" fill="#C6DBFF"/>
</g>
<rect x="253.29" y="210.474" width="76.8869" height="61.3989" rx="3.06799" fill="url(#paint14_linear_6005_3711)"/>
<mask id="mask8_6005_3711" style="mask-type:alpha" maskUnits="userSpaceOnUse" x="253" y="210" width="78" height="62">
<rect x="253.29" y="210.474" width="76.8869" height="61.3989" rx="3.06799" fill="url(#paint15_linear_6005_3711)"/>
</mask>
<g mask="url(#mask8_6005_3711)">
<rect x="284.398" y="223.134" width="23.873" height="3.61712" rx="1.80856" fill="#D2DCE4"/>
<rect x="284.266" y="230.387" width="39.2731" height="1.65943" rx="0.829714" fill="#D2DCE4"/>
<rect x="284.266" y="233.706" width="39.2731" height="1.65943" rx="0.829714" fill="#D2DCE4"/>
<rect x="258.267" y="246.428" width="65.2709" height="1.10629" rx="0.553143" fill="#EDF1F6"/>
<rect x="265.459" y="249.747" width="58.08" height="1.10629" rx="0.553143" fill="#EDF1F6"/>
<rect x="257.991" y="249.794" width="5.42568" height="5.06397" rx="2.53199" fill="#EDF1F6"/>
<rect x="265.459" y="253.066" width="58.08" height="1.10629" rx="0.553143" fill="#EDF1F6"/>
<rect x="307.497" y="259.704" width="16.0266" height="6.51082" rx="3.25541" fill="#C6DBFF"/>
</g>
<mask id="mask9_6005_3711" style="mask-type:alpha" maskUnits="userSpaceOnUse" x="171" y="114" width="24" height="24">
<circle cx="183.277" cy="125.692" r="11.5748" fill="#C4C4C4"/>
</mask>
<g mask="url(#mask9_6005_3711)">
<circle cx="183.277" cy="125.692" r="11.5748" fill="#EDF1F6"/>
<path d="M189.217 123.067C189.539 119.308 188.124 118.077 187.213 117.832C186.593 117.666 186.817 117.832 186.486 117.755C185.97 117.635 185.832 116.92 184.116 116.868C177.702 116.672 176.931 122.803 178.365 125.218C180.022 128.013 182.545 128.289 184.724 128.029C186.36 127.835 188.837 127.528 189.217 123.067Z" fill="#D58B53"/>
<path d="M191.456 153.949C194.015 146.326 197.539 140.8 195.691 137.725C193.92 134.783 193.365 134.847 192.008 134.632C187.085 133.853 186.766 131.898 183.958 131.984C183.902 131.987 183.562 131.984 183.5 131.984C180.714 131.907 179.615 133.994 175.471 134.632C174.112 134.841 173.559 134.783 171.788 137.725C169.941 140.797 173.461 146.326 176.024 153.949C177.39 158.018 175.201 161.89 174.483 163.311C173.691 164.882 173.335 164.716 173.458 165.833C173.654 167.601 178.372 168.954 183.074 168.908C183.295 168.905 184.283 168.908 184.556 168.908C189.209 168.926 193.831 167.582 194.025 165.833C194.147 164.716 193.791 164.882 192.999 163.311C192.278 161.887 190.09 158.015 191.456 153.949Z" fill="#3D7FFC"/>
<path d="M187.109 133.85C186.827 129.526 186.806 125.936 185.599 126.467C185.179 126.654 182.303 126.654 181.88 126.467C180.673 125.933 180.627 129.044 180.37 133.85C180.33 134.574 181.312 136.35 183.74 136.35C186.054 136.35 187.156 134.574 187.109 133.85Z" fill="#E7C6A7"/>
<path d="M187.887 120.513C187.42 118.553 185.61 117.426 183.627 117.469C181.644 117.426 179.837 118.55 179.367 120.513C179.054 121.827 178.965 128.924 180.935 131.128C181.328 131.566 182.676 132.88 183.615 132.88C184.674 132.88 185.938 131.585 186.316 131.128C187.921 129.179 187.801 126.69 187.997 124.892C188.225 122.83 188.2 121.827 187.887 120.513Z" fill="#E7C6A7"/>
<path d="M188.623 124.619C188.329 125.187 186.484 122.867 186.386 120.308C185.134 121.956 181.856 123.812 178.593 123.143C178.569 123.361 178.372 122.87 178.363 121.68C178.342 118.479 180.794 116.524 185.953 117.641C190.376 118.602 188.725 124.429 188.623 124.619Z" fill="#D58B53"/>
<path d="M186.814 127.43C186.617 127.645 186.433 127.884 186.292 128.09C186.086 128.387 185.58 128.519 185.23 128.421C184.849 128.314 184.417 128.17 183.898 128.142C183.609 128.127 183.615 128.127 183.348 128.142C182.827 128.173 182.394 128.314 182.013 128.421C181.663 128.519 181.16 128.387 180.951 128.09C180.807 127.884 180.626 127.645 180.43 127.43C179.61 126.543 179.095 126.215 179.285 126.445C179.497 126.7 179.423 126.605 179.558 128.685C179.693 130.762 181.489 132.987 183.465 132.95C183.49 132.95 183.744 132.95 183.769 132.95C185.749 132.99 187.584 130.766 187.719 128.685C187.857 126.605 187.78 126.7 187.992 126.445C188.189 126.218 187.633 126.543 186.814 127.43ZM184.769 129.455C184.644 129.523 184.438 129.584 184.285 129.624C183.898 129.722 183.342 129.719 182.953 129.624C182.799 129.587 182.593 129.523 182.468 129.455C182.36 129.4 182.36 129.244 182.468 129.188C182.744 129.047 183.075 128.992 183.41 128.952C183.502 128.94 183.729 128.94 183.821 128.952C184.159 128.992 184.487 129.05 184.763 129.188C184.877 129.244 184.877 129.4 184.769 129.455Z" fill="#D58B53"/>
</g>
<mask id="mask10_6005_3711" style="mask-type:alpha" maskUnits="userSpaceOnUse" x="257" y="74" width="24" height="24">
<ellipse cx="269.076" cy="86.1461" rx="11.5748" ry="11.5748" fill="#C4C4C4"/>
</mask>
<g mask="url(#mask10_6005_3711)">
<ellipse cx="270.013" cy="85.699" rx="12.0488" ry="12.0488" fill="#EDF1F6"/>
<path d="M264.639 87.527C264.669 87.4656 264.634 87.3883 264.57 87.3697C264.299 87.2897 264.098 87.1164 264.052 86.8951C264.023 86.7484 264.066 86.5991 264.162 86.4711C264.186 86.4391 264.189 86.3912 264.173 86.3538C263.945 86.3352 263.752 86.1752 263.722 85.9646C263.706 85.8579 263.736 85.7539 263.795 85.6713C263.792 85.6633 263.789 85.6553 263.787 85.6473C263.779 85.618 263.765 85.5886 263.738 85.578C263.132 85.33 262.583 83.6423 264.028 82.7811C264.09 82.7438 264.095 82.6478 264.036 82.5998C263.698 82.3145 263.492 81.9413 263.51 81.5627C263.545 80.8774 264.299 80.4375 265.194 80.5842C265.208 80.5868 265.219 80.5895 265.232 80.5895C265.31 80.6028 265.366 80.5175 265.331 80.4402C265.05 79.7923 265.028 79.1871 265.323 78.9124C265.602 78.6512 266.095 78.7525 266.597 79.1204C266.661 79.1684 266.744 79.1284 266.75 79.0458C266.777 78.5818 266.962 78.2406 267.214 78.2406C267.38 78.2406 267.541 78.3952 267.656 78.6325C267.696 78.7178 267.806 78.7178 267.836 78.6352C268.16 77.7633 268.758 77.2487 269.244 77.4647C269.52 77.5873 269.705 77.9179 269.783 78.3552C269.799 78.4485 269.909 78.4805 269.96 78.4085C270.365 77.838 270.989 77.5927 271.563 77.8486C271.974 78.0299 272.277 78.4299 272.429 78.9204C272.446 78.9711 272.488 79.0031 272.534 79.0031C272.794 78.9951 273.068 79.0484 273.338 79.1684C274.256 79.5737 274.819 80.6161 274.69 81.5893C274.679 81.6613 274.738 81.728 274.805 81.72C275.253 81.68 275.674 81.9093 275.819 82.3145C275.95 82.6771 275.822 83.0797 275.529 83.349C275.465 83.4077 275.503 83.5303 275.591 83.541C275.977 83.597 276.294 83.8369 276.361 84.1702C276.436 84.5435 276.173 84.9114 275.749 85.0607C275.674 85.0874 275.661 85.1967 275.728 85.2527C276.033 85.506 276.205 85.7886 276.135 85.9699C276.068 86.1459 275.795 86.1752 275.452 86.0712C275.374 86.0472 275.309 86.1299 275.339 86.2125C275.468 86.5458 275.457 86.8737 275.288 87.0684C275.132 87.2443 274.878 87.2683 274.612 87.1644C274.545 87.1377 274.475 87.1937 274.484 87.271C274.526 87.6843 274.39 88.0469 274.108 88.1749C273.886 88.2762 273.62 88.2042 273.389 88.0149C273.352 87.9855 273.304 87.9855 273.269 88.0149C272.789 88.4415 272.22 88.7881 271.579 89.028C270.772 89.3293 270.048 89.4013 269.26 89.3133C269.193 89.3053 269.142 89.3693 269.155 89.4413C269.279 90.0545 268.906 90.4118 268.364 90.4998C268.174 90.5318 267.884 90.4385 267.79 90.3078C267.777 90.2865 267.694 90.2438 267.613 90.3291C267.267 90.6811 266.592 90.3078 266.466 89.6946C266.436 89.5533 266.433 89.4146 266.449 89.284C266.457 89.2147 266.356 89.0787 266.205 89.1773C266.149 89.2147 266.074 89.2253 265.999 89.2387C265.46 89.3347 264.674 88.9001 264.548 88.2868C264.5 88.0042 264.537 87.7429 264.639 87.527Z" fill="#526373"/>
<path d="M276.188 110.377C278.357 103.956 281.342 99.3012 279.776 96.7123C278.277 94.2327 277.805 94.2887 276.655 94.1074C272.487 93.4488 272.214 91.8038 269.838 91.8784C269.792 91.8811 269.503 91.8784 269.452 91.8784C267.092 91.8118 266.161 93.5715 262.651 94.1074C261.501 94.2834 261.032 94.2327 259.53 96.7123C257.964 99.3012 260.948 103.956 263.115 110.377C264.274 113.803 262.418 117.063 261.809 118.261C261.139 119.583 260.836 119.444 260.94 120.386C261.107 121.876 265.102 123.014 269.084 122.974C269.272 122.972 270.109 122.974 270.339 122.974C274.279 122.988 278.194 121.857 278.36 120.386C278.465 119.444 278.164 119.583 277.491 118.261C276.885 117.063 275.032 113.8 276.188 110.377Z" fill="#76A5FF"/>
<path d="M272.508 93.4484C272.269 89.8063 272.25 86.7828 271.229 87.2308C270.872 87.3881 268.435 87.3881 268.081 87.2308C267.059 86.7828 267.021 89.4011 266.801 93.4484C266.769 94.0563 267.601 95.5547 269.655 95.5547C271.618 95.5547 272.548 94.0589 272.508 93.4484Z" fill="#E7C6A7"/>
<path d="M272.895 83.4095C272.536 81.8376 271.144 80.9375 269.62 80.9716C268.096 80.9375 266.704 81.8376 266.345 83.4095C266.105 84.4618 266.034 90.1432 267.551 91.9093C267.853 92.261 268.889 93.3106 269.611 93.3106C270.426 93.3106 271.398 92.2741 271.687 91.9093C272.92 90.3479 272.829 88.3561 272.981 86.9155C273.154 85.2648 273.133 84.4618 272.895 83.4095Z" fill="#DFB996"/>
<path d="M273.48 82.5705C273.057 80.9735 271.413 80.0589 269.613 80.0936C267.814 80.0589 266.17 80.9735 265.747 82.5705C265.462 83.6397 265.379 89.412 267.171 91.2064C267.527 91.5636 268.75 92.6301 269.603 92.6301C270.565 92.6301 271.713 91.577 272.054 91.2064C273.51 89.62 273.403 87.5963 273.582 86.1326C273.786 84.4555 273.762 83.6397 273.48 82.5705Z" fill="#E7C6A7"/>
<path d="M265.129 81.8852C265.089 81.7466 265.059 81.5973 265.049 81.4453C264.984 80.5521 265.488 79.7896 266.178 79.7416C266.529 79.7176 266.861 79.8855 267.108 80.1735C267.341 80.0455 267.634 79.9575 267.958 79.9335C268.31 79.9095 268.639 79.9629 268.899 80.0775C269.017 79.4243 269.449 78.9284 269.999 78.8911C270.653 78.8431 271.235 79.459 271.345 80.2881C271.589 80.1415 271.898 80.0429 272.241 80.0189C273.04 79.9629 273.721 80.3281 273.815 80.848C274.247 81.0827 274.571 81.6106 274.617 82.2478C274.643 82.6237 274.571 82.9757 274.424 83.261C274.708 83.3223 274.928 83.5409 274.947 83.8209C274.971 84.1648 274.681 84.4661 274.3 84.4928C274.249 84.4954 274.201 84.4954 274.155 84.4901C274.129 84.6287 274.083 84.7727 274.016 84.9087C273.689 85.5806 273 85.9192 272.474 85.6686C272.056 85.4659 271.871 84.946 271.981 84.4021C271.699 84.5354 271.391 84.5834 271.082 84.5194C270.578 84.4154 270.189 84.0422 269.991 83.5409C269.884 83.6262 269.755 83.6662 269.626 83.6422C269.481 83.6156 269.363 83.5089 269.296 83.3623C269.087 83.4983 268.843 83.5862 268.575 83.6049C268.084 83.6396 267.634 83.4369 267.333 83.0983C267.336 83.1143 267.339 83.133 267.339 83.149C267.4 84.0048 266.784 84.746 265.96 84.8047C265.137 84.8634 264.421 84.2181 264.36 83.3623C264.314 82.7304 264.633 82.1678 265.129 81.8852Z" fill="#526373"/>
</g>
<mask id="mask11_6005_3711" style="mask-type:alpha" maskUnits="userSpaceOnUse" x="344" y="185" width="25" height="25">
<circle cx="356.332" cy="197.356" r="11.7731" fill="#C4C4C4"/>
</mask>
<g mask="url(#mask11_6005_3711)">
<circle cx="356.332" cy="196.988" r="11.7731" fill="#EDF1F6"/>
<path d="M352.834 198.506L352.483 198.368C352.283 198.289 352.117 198.142 352.018 197.952C351.883 197.694 351.728 197.301 351.742 196.885C351.768 196.163 352.313 195.258 352.566 195.53C352.819 195.802 353.152 196.705 353.152 196.705V198.506H352.834Z" fill="#E7C6A7"/>
<path d="M360.839 198.506L361.468 198.257C361.468 198.257 361.955 197.607 361.929 196.885C361.903 196.163 361.359 195.258 361.105 195.53C360.852 195.802 360.52 196.705 360.52 196.705V198.506H360.839Z" fill="#E7C6A7"/>
<path d="M360.839 198.507L361.187 198.37C361.392 198.288 361.561 198.135 361.663 197.938C361.795 197.68 361.945 197.294 361.931 196.885C361.905 196.163 361.361 195.258 361.107 195.53C360.854 195.801 360.521 196.704 360.521 196.704V198.506H360.839V198.507Z" fill="#E7C6A7"/>
<path d="M354.241 199.698C354.241 199.698 354.437 202.668 353.837 203.333C353.115 204.134 349.858 204.71 350.018 204.992C350.018 204.992 352.13 208.708 356.587 208.708C361.045 208.708 363.233 205.41 363.568 204.934C363.668 204.714 360.512 204.138 359.894 203.519C359.288 202.913 359.265 199.582 359.265 199.582L354.241 199.698Z" fill="#E7C6A7"/>
<path d="M362.709 205.484C362.894 205.23 363.071 204.987 363.238 204.755C363.157 204.727 363.069 204.696 362.975 204.662C362.053 204.378 360.329 203.959 359.89 203.52C359.398 203.028 359.29 200.739 359.267 199.895L354.427 200.383C354.439 200.622 354.451 200.899 354.456 201.187L360.372 207.704C360.558 207.607 362.541 205.588 362.709 205.484Z" fill="#DFB996"/>
<path d="M360.829 195.603C360.829 197 360.606 198.517 360.309 199.582C360.273 199.71 360.217 199.832 360.142 199.942C359.131 201.424 357.702 202.606 356.721 202.606C355.658 202.606 354.364 201.574 353.366 199.964C353.296 199.852 353.273 199.719 353.217 199.598C352.693 198.483 352.569 197.008 352.613 195.603C352.735 191.808 354.453 188.728 356.721 188.728C358.99 188.728 360.829 191.806 360.829 195.603Z" fill="#E7C6A7"/>
<path d="M362.993 197.071C362.993 192.081 360.337 188.036 356.638 188.036C352.938 188.036 350.985 192.102 350.523 197.071C350.402 198.377 349.298 200.46 350.536 202.3C350.63 202.439 350.84 202.599 350.993 202.669C351.629 202.963 352.554 203.417 353.117 203.576C353.205 203.6 352.669 202.586 352.756 202.552C352.756 202.552 353.67 202.272 354.186 202.253C354.186 202.253 354.266 201.676 354.261 201.165C354.261 201.165 353.102 199.906 352.863 198.507C352.861 198.506 352.859 198.504 352.857 198.502C352.067 197.919 351.987 197.72 351.911 197.413C351.651 196.344 352.315 194.974 352.611 195.807C353.11 194.793 353.501 193.022 353.501 193.022C353.556 193.041 353.487 193.988 353.543 194.01C353.873 194.136 354.353 194.275 354.924 194.348C354.965 194.354 355.008 193.432 355.049 193.434C355.087 193.436 355.122 194.356 355.16 194.361C356.749 194.545 358.692 194.428 359.975 194.117C360.058 194.097 360.046 193.319 360.123 193.297C360.2 194.2 360.482 195.168 360.823 195.991C361.106 195.482 361.401 195.675 361.545 196.1C361.73 196.642 361.486 197.389 361.192 197.838C361.091 197.991 360.576 198.354 360.551 198.508C360.551 198.508 360.491 199.12 360.108 199.97C360.04 200.12 359.964 200.203 359.32 200.984C359.321 201.665 359.409 201.985 359.436 202.096C359.436 202.096 360.53 202.21 361.022 202.386C361.053 202.398 360.488 203.589 360.519 203.58C361.085 203.397 362.662 202.934 363.02 202.396C364.149 200.925 363.132 199.116 362.993 197.071Z" fill="#514B4E"/>
<path opacity="0.41" d="M354.261 201.166C354.261 201.166 353.117 199.911 352.862 198.507C352.298 199.386 352.103 201.505 352.756 202.554C352.756 202.554 353.67 202.274 354.186 202.254C354.186 202.253 354.266 201.677 354.261 201.166Z" fill="black"/>
<path opacity="0.41" d="M360.551 198.518C360.551 198.518 360.551 198.547 360.537 198.616C360.502 198.828 360.397 199.332 360.11 199.969C360.042 200.118 359.966 200.201 359.322 200.982C359.323 201.664 359.411 201.983 359.438 202.095C359.438 202.095 360.532 202.208 361.024 202.385C361.279 201.055 361.057 199.441 360.551 198.518Z" fill="black"/>
<path d="M361.836 204.33L361.863 204.345C361.843 204.381 361.38 205.224 360.522 206.075C360.015 206.578 359.474 206.98 358.913 207.27C358.204 207.637 357.463 207.823 356.712 207.823C355.967 207.823 355.243 207.638 354.557 207.273C354.016 206.985 353.498 206.583 353.02 206.081C352.211 205.232 351.751 204.302 351.751 204.302C350.791 204.597 345.047 206.081 347.5 208.708C347.5 208.708 352.254 210.601 356.712 210.601C361.169 210.601 368.473 206.345 365.895 205.205C368.861 205.753 362.751 204.6 361.836 204.33Z" fill="#76A5FF"/>
<path d="M351.764 204.332C351.782 204.368 352.211 205.231 353.019 206.081C353.498 206.583 354.015 206.985 354.557 207.273C355.242 207.638 355.967 207.823 356.711 207.823C357.463 207.823 358.204 207.637 358.913 207.27C359.473 206.981 360.014 206.579 360.522 206.075C361.38 205.224 361.843 204.38 361.862 204.345L361.836 204.33C361.642 204.273 361.446 204.213 361.256 204.152C361.112 204.392 360.709 205.014 360.084 205.634C359.036 206.675 357.901 207.201 356.712 207.201C355.54 207.201 354.449 206.68 353.47 205.653C352.85 205.003 352.476 204.32 352.359 204.102C352.162 204.168 351.947 204.242 351.749 204.303L351.764 204.332Z" fill="#76A5FF"/>
</g>
<path d="M246.501 190.411C250.389 186.522 250.389 180.218 246.501 176.33C242.612 172.442 236.308 172.442 232.42 176.33C228.532 180.218 228.532 186.522 232.42 190.411C236.308 194.299 242.612 194.299 246.501 190.411Z" fill="#0BE597"/>
<path d="M238.394 187.503C238.317 187.503 238.248 187.48 238.194 187.426C238.064 187.319 235.075 184.753 234.768 184.446C234.645 184.323 234.645 184.131 234.768 184.008C234.891 183.885 235.083 183.885 235.206 184.008C235.421 184.223 237.242 185.798 238.363 186.751L244.355 179.346C244.462 179.215 244.654 179.192 244.785 179.299C244.915 179.407 244.938 179.599 244.831 179.73L238.64 187.38C238.586 187.442 238.509 187.488 238.432 187.496C238.417 187.503 238.409 187.503 238.394 187.503Z" fill="white" stroke="black" stroke-width="1.10629"/>
<mask id="mask12_6005_3711" style="mask-type:alpha" maskUnits="userSpaceOnUse" x="171" y="185" width="24" height="24">
<ellipse cx="183.312" cy="197.193" rx="11.6104" ry="11.6104" fill="#C4C4C4"/>
</mask>
<g mask="url(#mask12_6005_3711)">
<ellipse cx="183.312" cy="197.556" rx="11.6104" ry="11.6104" fill="#EDF1F6"/>
<path d="M176.297 197.71C176.354 197.658 176.349 197.56 176.292 197.514C176.042 197.313 175.905 197.048 175.952 196.795C175.983 196.628 176.091 196.491 176.248 196.393C176.287 196.37 176.31 196.321 176.307 196.275C176.075 196.159 175.941 195.909 176.001 195.672C176.029 195.553 176.104 195.455 176.202 195.393C176.202 195.383 176.204 195.373 176.204 195.365C176.209 195.332 176.204 195.295 176.184 195.272C175.653 194.754 175.794 192.745 177.676 192.448C177.756 192.435 177.802 192.338 177.764 192.26C177.529 191.817 177.475 191.335 177.655 190.944C177.983 190.235 178.96 190.091 179.838 190.624C179.851 190.632 179.862 190.64 179.875 190.647C179.952 190.696 180.045 190.629 180.042 190.531C180.024 189.73 180.256 189.083 180.681 188.918C181.086 188.761 181.56 189.076 181.926 189.676C181.973 189.753 182.078 189.745 182.117 189.663C182.344 189.186 182.681 188.903 182.944 189.011C183.12 189.083 183.22 189.31 183.241 189.611C183.248 189.717 183.359 189.766 183.429 189.689C184.14 188.905 184.986 188.617 185.403 189.05C185.64 189.295 185.694 189.725 185.589 190.217C185.566 190.323 185.669 190.402 185.754 190.348C186.419 189.918 187.179 189.923 187.674 190.436C188.027 190.802 188.174 191.351 188.125 191.933C188.12 191.992 188.151 192.046 188.2 192.064C188.476 192.167 188.741 192.338 188.973 192.577C189.762 193.394 189.909 194.729 189.36 195.7C189.318 195.772 189.352 195.865 189.424 195.888C189.911 196.035 190.251 196.455 190.233 196.944C190.215 197.383 189.911 197.754 189.491 197.913C189.398 197.949 189.385 198.091 189.473 198.143C189.854 198.364 190.081 198.751 190.012 199.129C189.932 199.555 189.499 199.83 188.994 199.81C188.903 199.805 188.844 199.915 188.89 200.003C189.102 200.397 189.161 200.771 189.014 200.933C188.87 201.09 188.568 201.005 188.256 200.75C188.184 200.691 188.081 200.753 188.079 200.853C188.071 201.258 187.921 201.6 187.661 201.734C187.424 201.855 187.146 201.773 186.911 201.549C186.852 201.492 186.756 201.521 186.731 201.606C186.599 202.059 186.303 202.384 185.955 202.399C185.679 202.412 185.432 202.224 185.269 201.925C185.243 201.876 185.192 201.858 185.143 201.876C184.457 202.121 183.715 202.247 182.942 202.229C181.967 202.206 181.176 201.977 180.387 201.549C180.32 201.513 180.238 201.557 180.223 201.639C180.091 202.34 179.547 202.556 178.944 202.422C178.73 202.373 178.467 202.157 178.426 201.979C178.418 201.951 178.354 201.871 178.23 201.925C177.72 202.149 177.166 201.469 177.297 200.771C177.328 200.608 177.382 200.462 177.457 200.33C177.496 200.261 177.444 200.075 177.246 200.114C177.171 200.129 177.088 200.109 177.001 200.091C176.395 199.962 175.756 199.173 175.885 198.472C175.949 198.153 176.096 197.893 176.297 197.71Z" fill="#60514B"/>
<path d="M176.152 203.475C176.208 203.424 176.203 203.326 176.146 203.279C175.896 203.078 175.76 202.813 175.806 202.56C175.837 202.393 175.945 202.256 176.103 202.158C176.141 202.135 176.164 202.086 176.162 202.04C175.93 201.924 175.796 201.674 175.855 201.437C175.883 201.319 175.958 201.221 176.056 201.159C176.056 201.148 176.059 201.138 176.059 201.13C176.064 201.097 176.059 201.061 176.038 201.038C175.507 200.52 175.649 198.51 177.53 198.214C177.61 198.201 177.657 198.103 177.618 198.026C177.384 197.582 177.329 197.101 177.51 196.709C177.837 196 178.814 195.856 179.693 196.389C179.706 196.397 179.716 196.405 179.729 196.413C179.806 196.462 179.899 196.395 179.897 196.297C179.879 195.495 180.111 194.849 180.536 194.684C180.94 194.527 181.415 194.841 181.781 195.441C181.827 195.519 181.933 195.511 181.971 195.428C182.198 194.952 182.536 194.668 182.799 194.777C182.974 194.849 183.075 195.075 183.095 195.377C183.103 195.483 183.214 195.531 183.283 195.454C183.995 194.671 184.84 194.382 185.258 194.815C185.495 195.06 185.549 195.49 185.443 195.982C185.42 196.088 185.523 196.168 185.608 196.114C186.273 195.683 187.034 195.689 187.528 196.201C187.882 196.567 188.028 197.116 187.979 197.698C187.974 197.758 188.005 197.812 188.054 197.83C188.33 197.933 188.595 198.103 188.827 198.343C189.616 199.159 189.763 200.494 189.214 201.465C189.173 201.538 189.206 201.63 189.279 201.653C189.766 201.8 190.106 202.22 190.088 202.71C190.07 203.148 189.766 203.519 189.346 203.679C189.253 203.715 189.24 203.856 189.327 203.908C189.709 204.13 189.936 204.516 189.866 204.895C189.786 205.32 189.353 205.596 188.848 205.575C188.758 205.57 188.699 205.681 188.745 205.768C188.956 206.163 189.016 206.536 188.869 206.698C188.724 206.856 188.423 206.771 188.111 206.516C188.039 206.456 187.936 206.518 187.933 206.619C187.925 207.023 187.776 207.366 187.516 207.5C187.278 207.621 187 207.538 186.765 207.314C186.706 207.258 186.611 207.286 186.585 207.371C186.454 207.824 186.157 208.149 185.809 208.165C185.533 208.177 185.286 207.989 185.124 207.69C185.098 207.641 185.046 207.623 184.997 207.641C184.312 207.886 183.569 208.013 182.796 207.994C181.822 207.971 181.031 207.742 180.242 207.314C180.175 207.278 180.092 207.322 180.077 207.404C179.946 208.105 179.402 208.322 178.799 208.188C178.585 208.139 178.322 207.922 178.281 207.745C178.273 207.716 178.208 207.636 178.085 207.69C177.574 207.915 177.02 207.234 177.152 206.536C177.183 206.374 177.237 206.227 177.311 206.096C177.35 206.026 177.298 205.84 177.1 205.879C177.025 205.895 176.943 205.874 176.855 205.856C176.249 205.727 175.61 204.939 175.739 204.238C175.804 203.918 175.95 203.658 176.152 203.475Z" fill="#60514B"/>
<path d="M188.534 220.376C190.452 214.666 193.091 210.528 191.707 208.227C190.379 206.021 189.972 206.011 188.946 205.911C184.985 205.519 185.021 204.254 182.918 204.321C182.876 204.321 182.621 204.321 182.575 204.321C180.487 204.262 180.513 205.521 176.562 205.911C175.536 206.011 175.129 206.021 173.801 208.227C172.417 210.528 175.054 214.668 176.974 220.376C177.997 223.421 176.358 226.322 175.819 227.387C175.227 228.564 174.958 228.438 175.051 229.275C175.198 230.6 178.732 231.612 182.255 231.579C182.423 231.576 183.16 231.579 183.364 231.579C186.848 231.592 190.31 230.587 190.457 229.275C190.55 228.438 190.284 228.561 189.689 227.387C189.15 226.322 187.511 223.421 188.534 220.376Z" fill="#4685F1"/>
<path d="M185.069 205.058C184.708 201.301 184.649 198.429 183.693 198.849C183.358 198.995 183.046 199.178 182.752 199.423C182.458 199.178 182.144 198.995 181.811 198.849C180.855 198.426 180.796 201.301 180.435 205.058C180.381 205.63 181.239 208.109 182.752 208.109C184.108 208.106 185.126 205.63 185.069 205.058Z" fill="#E7C6A7"/>
<path d="M180.655 202.598C180.642 202.755 181.796 204.319 182.748 204.319C183.843 204.319 184.874 202.755 184.858 202.6C184.446 203.002 183.637 203.68 182.748 203.68C181.956 203.68 181.083 203 180.655 202.598Z" fill="#DFB996"/>
<path d="M186.755 193.917C186.317 192.361 184.616 191.469 182.752 191.503C180.889 191.467 179.188 192.361 178.749 193.917C178.456 194.958 178.432 195.754 178.641 197.388C178.824 198.813 179.01 200.964 180.518 202.51C180.871 202.871 181.858 203.721 182.739 203.721C183.734 203.721 184.629 202.873 184.982 202.51C186.49 200.964 186.675 198.813 186.858 197.388C187.072 195.754 187.049 194.958 186.755 193.917Z" fill="#E7C6A7"/>
<path d="M177.924 193.793C177.865 193.649 177.818 193.497 177.787 193.332C177.617 192.389 178.066 191.521 178.787 191.392C179.156 191.325 179.527 191.467 179.821 191.745C180.053 191.58 180.352 191.454 180.692 191.392C181.063 191.325 181.416 191.348 181.705 191.438C181.756 190.73 182.156 190.155 182.733 190.05C183.419 189.926 184.107 190.516 184.318 191.384C184.561 191.201 184.875 191.06 185.236 190.995C186.074 190.843 186.837 191.158 186.996 191.699C187.478 191.9 187.883 192.425 188.004 193.095C188.076 193.492 188.038 193.876 187.917 194.195C188.226 194.226 188.481 194.438 188.535 194.731C188.6 195.095 188.329 195.448 187.927 195.52C187.875 195.53 187.824 195.533 187.772 195.533C187.759 195.685 187.728 195.839 187.672 195.996C187.401 196.749 186.71 197.187 186.128 196.978C185.661 196.811 185.409 196.277 185.463 195.687C185.179 195.863 184.857 195.948 184.525 195.914C183.981 195.863 183.525 195.507 183.257 194.994C183.151 195.097 183.019 195.154 182.883 195.144C182.726 195.131 182.592 195.03 182.504 194.883C182.298 195.053 182.048 195.175 181.769 195.224C181.254 195.316 180.754 195.151 180.398 194.824C180.403 194.842 180.408 194.86 180.411 194.878C180.573 195.783 180.006 196.641 179.143 196.798C178.28 196.952 177.447 196.347 177.285 195.443C177.158 194.783 177.432 194.149 177.924 193.793Z" fill="#60514B"/>
</g>
<mask id="mask13_6005_3711" style="mask-type:alpha" maskUnits="userSpaceOnUse" x="257" y="143" width="24" height="24">
<circle cx="269.29" cy="155.119" r="11.5748" fill="#C4C4C4"/>
</mask>
<g mask="url(#mask13_6005_3711)">
<circle cx="269.325" cy="155.153" r="11.2702" fill="#EDF1F6"/>
<path d="M277.255 163.475C277.21 161.979 276.021 161.282 276.414 159.873C276.772 158.585 277.16 158.206 277.022 157.214C276.904 156.341 276.193 155.92 275.91 154.404C275.695 153.248 276.431 152.449 275.703 150.744C273.935 146.591 271.706 146.022 268.699 146.2C267.229 146.288 266.997 146.914 266.611 147.065C266.203 147.223 266.163 147.107 265.862 147.182C265.184 147.355 263.874 148.792 263.807 151.992C263.777 153.444 262.81 152.935 262.232 154.08C261.618 155.294 262.825 156.72 261.265 157.008C259.337 157.364 258.844 158.941 258.912 159.738C259.117 162.124 258.04 162.031 257.414 162.828C255.997 164.628 257.334 167.237 257.775 168.069C260.682 173.571 270.965 175.494 276.173 166.528C276.449 166.054 277.3 165.047 277.255 163.475Z" fill="#965C39"/>
<path d="M275.423 175.707C277.306 170.097 279.895 166.029 278.535 163.768C277.233 161.602 276.832 161.59 275.826 161.492C271.937 161.109 271.972 159.865 269.909 159.928C269.869 159.928 269.619 159.928 269.574 159.928C267.525 159.87 267.55 161.109 263.672 161.492C262.665 161.592 262.265 161.602 260.963 163.768C259.603 166.029 262.192 170.097 264.075 175.707C265.079 178.7 263.469 181.552 262.943 182.597C262.36 183.753 262.099 183.63 262.19 184.455C262.335 185.755 265.803 186.75 269.258 186.718C269.421 186.715 270.147 186.718 270.347 186.718C273.768 186.73 277.165 185.743 277.308 184.455C277.398 183.632 277.138 183.755 276.554 182.597C276.029 181.552 274.419 178.702 275.423 175.707Z" fill="#091B36"/>
<path d="M272.025 160.653C271.672 156.961 271.615 154.136 270.676 154.552C270.348 154.697 270.042 154.875 269.752 155.116C269.461 154.875 269.156 154.697 268.828 154.552C267.889 154.136 267.831 156.963 267.478 160.653C267.423 161.214 268.267 163.651 269.752 163.651C271.081 163.651 272.078 161.214 272.025 160.653Z" fill="#E7C6A7"/>
<path d="M267.687 158.236C267.674 158.392 268.808 159.928 269.74 159.928C270.814 159.928 271.826 158.392 271.813 158.239C271.407 158.635 270.614 159.301 269.74 159.301C268.964 159.299 268.107 158.632 267.687 158.236Z" fill="#DFB996"/>
<path d="M273.678 149.704C273.247 148.175 271.579 147.298 269.749 147.333C267.921 147.298 266.251 148.175 265.82 149.704C265.532 150.727 265.507 151.509 265.715 153.115C265.895 154.516 266.076 156.629 267.558 158.148C267.906 158.504 268.873 159.339 269.739 159.339C270.715 159.339 271.592 158.504 271.94 158.148C273.42 156.629 273.602 154.514 273.783 153.115C273.991 151.509 273.965 150.729 273.678 149.704Z" fill="#E7C6A7"/>
<path d="M274.736 151.13C274.801 149.478 273.777 147.255 272.182 147.295C271.897 147.303 271.742 147.4 271.664 147.533C271.318 147.25 270.56 146.769 269.711 146.769C268.887 146.769 268.169 147.245 267.838 147.528C267.758 147.4 267.605 147.303 267.322 147.295C265.727 147.255 264.703 149.478 264.768 151.13C264.798 151.915 264.641 152.814 265.011 152.992C265.8 153.373 266.574 151.937 267.119 150.523C267.072 151.235 267.089 151.827 267.137 152.143C267.167 152.343 267.282 152.459 267.548 152.481C267.548 152.481 268.204 152.604 269.643 152.584C269.678 152.584 269.824 152.584 269.859 152.584C271.298 152.604 271.954 152.481 271.954 152.481C272.22 152.459 272.335 152.343 272.365 152.143C272.413 151.829 272.433 151.238 272.383 150.523C272.928 151.937 273.702 153.373 274.491 152.992C274.861 152.814 274.704 151.915 274.736 151.13Z" fill="#965C39"/>
</g>
<mask id="mask14_6005_3711" style="mask-type:alpha" maskUnits="userSpaceOnUse" x="257" y="215" width="24" height="24">
<circle cx="269.25" cy="226.987" r="11.5341" fill="#C4C4C4"/>
</mask>
<g mask="url(#mask14_6005_3711)">
<circle cx="269.25" cy="226.987" r="11.5341" fill="#EDF1F6"/>
<path d="M283.64 254.716C283.481 249.996 282.175 237.656 281.283 236.572C280.231 235.297 275.293 232.555 272.457 231.885C269.94 231.311 269.207 231.534 267.582 231.439C265.958 231.343 257.068 236.126 256.877 237.242C256.463 239.283 255.475 244.129 255.157 246.17C254.742 249.008 254.583 251.878 254.711 254.747L283.64 254.716Z" fill="#3D7FFC"/>
<path d="M266.152 227.963V231.757C266.152 231.821 266.184 231.853 266.216 231.885C266.662 232.331 269.625 235.01 272.429 231.981C272.461 231.949 272.493 231.885 272.493 231.821L272.206 227.931C272.206 227.835 272.11 227.74 272.015 227.74H266.344C266.216 227.772 266.152 227.835 266.152 227.963Z" fill="#E7C6A7"/>
<path d="M274.176 224.902C274.081 224.838 273.953 224.806 273.858 224.806C274.335 221.841 274.112 218.142 269.27 218.301C266.466 218.397 265.542 220.916 265.351 223.594C265.351 223.722 265.223 223.786 265.128 223.754C264.968 223.722 264.809 223.754 264.682 223.786C263.694 224.073 264.331 226.464 265.319 226.974C265.383 227.006 265.414 227.038 265.414 227.102C265.829 229.589 267.167 231.183 269.047 231.311C270.799 231.438 272.169 230.099 273.029 228.058C273.061 227.995 273.093 227.963 273.157 227.963C274.176 227.644 275.132 225.316 274.176 224.902Z" fill="#E7C6A7"/>
<path d="M269.275 231.534C269.179 231.534 269.116 231.534 269.02 231.534C268.001 231.47 267.077 230.96 266.439 230.163C266.376 230.099 266.376 229.972 266.471 229.908C266.535 229.844 266.662 229.844 266.726 229.94C267.3 230.673 268.128 231.12 269.052 231.183C270.04 231.247 270.996 230.833 271.633 230.067C271.697 230.004 271.824 230.004 271.888 230.067C271.951 230.131 271.951 230.227 271.888 230.29C271.219 231.056 270.295 231.502 269.275 231.534Z" fill="#DFB996"/>
<path d="M265.319 223.818L265.924 224.806H266.593V223.116C267.071 222.638 267.39 222 267.517 221.331L272.487 221.682C272.487 221.682 272.328 222.893 272.71 223.372V225.348H273.316L273.889 224.806C273.889 224.806 275.1 220.438 274.59 219.354C274.367 218.748 273.698 218.429 273.125 218.652C273.125 218.652 271.5 216.739 269.206 217.377C266.912 218.047 265.096 219.418 264.745 220.374C264.363 221.363 265.319 223.818 265.319 223.818Z" fill="#42505D"/>
<path d="M272.33 232.268L269.495 247.86C269.463 248.083 269.144 248.083 269.112 247.86L266.149 232.268C266.118 232.108 266.277 231.981 266.436 232.044L269.208 233.352C269.272 233.384 269.335 233.384 269.367 233.352L272.044 232.044C272.203 231.981 272.362 232.108 272.33 232.268Z" fill="#9FC0FF"/>
<path d="M266.434 232.044L269.206 233.352C269.27 233.384 269.333 233.384 269.365 233.352L272.042 232.044C272.169 231.981 272.36 232.108 272.328 232.268L271.691 235.807C271.659 235.966 271.5 236.03 271.373 235.934L269.493 234.34C269.429 234.276 269.302 234.276 269.238 234.34L267.231 236.317C267.135 236.413 266.944 236.381 266.912 236.221L266.179 232.299C266.147 232.108 266.307 231.981 266.434 232.044Z" fill="#F7FAFF"/>
</g>
<mask id="mask15_6005_3711" style="mask-type:alpha" maskUnits="userSpaceOnUse" x="344" y="116" width="24" height="24">
<circle cx="355.898" cy="127.779" r="11.3394" fill="#C4C4C4"/>
</mask>
<g mask="url(#mask15_6005_3711)">
<circle cx="355.898" cy="127.779" r="11.3394" fill="#EDF1F6"/>
<path d="M359.73 133.781C359.446 133.665 359.203 133.466 359.038 133.207L358.925 133.029C358.781 132.804 358.701 132.543 358.694 132.276C358.672 131.544 358.67 130.884 358.694 130.348L353.608 130.79C353.608 130.79 353.62 131.44 353.615 132.484C353.614 132.69 353.57 132.893 353.486 133.081L353.468 133.121C353.315 133.464 353.038 133.735 352.692 133.878C352.646 133.897 352.6 133.916 352.554 133.937L346.992 136.163C346.155 136.497 345.575 137.27 345.484 138.167L345.429 138.705H365.18V135.972L360.094 133.937C359.973 133.882 359.852 133.83 359.73 133.781Z" fill="#E7C6A7"/>
<path d="M355.073 130.663L353.628 131.844L359.059 137.189L361.963 134.684L360.097 133.937C359.976 133.882 359.855 133.83 359.733 133.78C359.449 133.664 359.206 133.466 359.041 133.206L358.928 133.028C358.784 132.803 358.704 132.542 358.696 132.276C358.675 131.545 358.672 130.885 358.697 130.348L355.073 130.663Z" fill="#DFB996"/>
<path d="M356.104 137.235C354.182 137.235 352.582 135.967 351.789 134.244L346.993 136.163C346.156 136.498 345.575 137.27 345.484 138.167L345.424 138.764H365.181V135.973L360.671 134.168C359.81 135.929 358.054 137.235 356.104 137.235Z" fill="#0E63F4"/>
<path d="M352.537 127.717C352.532 127.493 352.53 127.277 352.532 127.069C352.416 126.885 352.202 126.632 351.929 126.692C351.509 126.784 351.958 128.084 351.958 128.084C351.958 128.084 352.044 129.5 352.345 129.532C352.488 129.547 352.6 129.56 352.696 129.553C352.577 128.816 352.551 128.404 352.537 127.717Z" fill="#E7C6A7"/>
<path d="M359.498 127.634C359.529 128.524 359.645 129.282 359.484 130.202C359.465 130.308 359.433 130.412 359.388 130.51C358.927 131.51 358.226 132.189 357.584 132.874C356.995 133.502 355.426 133.49 354.923 133.076C354.084 132.386 353.628 131.9 353.023 130.922C352.927 130.766 352.86 130.594 352.827 130.414C352.584 129.111 352.547 128.676 352.527 127.768C352.434 123.47 353.529 122.062 355.89 122.016C358.324 121.969 359.35 123.423 359.498 127.634Z" fill="#E7C6A7"/>
<path d="M360.165 126.565C359.734 126.487 359.477 127.157 359.477 127.157C359.486 127.312 359.493 127.471 359.498 127.634C359.522 128.291 359.59 128.875 359.56 129.507C359.646 129.504 359.745 129.489 359.866 129.472C360.171 129.428 360.196 127.983 360.196 127.983C360.196 127.983 360.597 126.642 360.165 126.565Z" fill="#E7C6A7"/>
<path d="M353.23 121.874C353.137 121.942 353.054 122.021 352.982 122.109C352.618 122.55 351.563 123.983 351.853 125.47C351.853 125.47 352.019 126.464 352.256 126.961C352.364 127.187 352.395 127.375 352.456 127.46C352.51 127.535 352.578 127.51 352.59 127.419C352.656 126.93 352.842 125.512 352.817 125.131C352.79 124.715 352.915 123.854 353.96 123.783C354.98 123.714 355.017 123.848 355.949 123.854C356.881 123.848 356.918 123.714 357.938 123.783C358.983 123.854 359.064 124.748 359.072 125.164C359.08 125.597 359.346 126.796 359.446 127.235C359.467 127.325 359.513 127.329 359.552 127.245C359.597 127.145 359.662 127.011 359.737 126.878C360.007 126.395 360.045 125.47 360.045 125.47C360.334 123.995 359.297 122.573 358.925 122.12C358.839 122.015 358.739 121.924 358.626 121.848C357.99 121.42 355.661 120.106 353.23 121.874Z" fill="#3C3219"/>
<path opacity="0.5" d="M359.161 133.486L359.11 133.407C359.128 133.429 359.145 133.456 359.161 133.486Z" fill="#C8C8C8"/>
<path d="M356.241 137.991C353.931 137.991 351.963 136.525 351.217 134.473L346.993 136.163C346.156 136.498 345.576 137.27 345.485 138.167L345.388 139.119H365.18V135.973L361.284 134.413C360.555 136.496 358.573 137.991 356.241 137.991Z" fill="#76A5FF"/>
</g>
<path d="M332.793 79.7821C336.681 75.8938 336.681 69.5897 332.793 65.7014C328.904 61.8131 322.6 61.8131 318.712 65.7014C314.824 69.5897 314.824 75.8938 318.712 79.7821C322.6 83.6704 328.904 83.6704 332.793 79.7821Z" fill="#0BE597"/>
<path d="M324.686 76.8748C324.609 76.8748 324.54 76.8518 324.486 76.7979C324.356 76.6904 321.368 74.1248 321.06 73.8175C320.938 73.6946 320.938 73.5026 321.06 73.3797C321.183 73.2568 321.376 73.2568 321.498 73.3797C321.713 73.5947 323.534 75.1695 324.655 76.122L330.647 68.717C330.755 68.5864 330.947 68.5634 331.077 68.6709C331.208 68.7785 331.231 68.9705 331.123 69.1011L324.932 76.7519C324.878 76.8133 324.802 76.8594 324.724 76.8671C324.709 76.8748 324.701 76.8748 324.686 76.8748Z" fill="white" stroke="black" stroke-width="1.10629"/>
<path d="M419.085 190.964C422.973 187.076 422.973 180.772 419.085 176.883C415.196 172.995 408.892 172.995 405.004 176.883C401.116 180.772 401.116 187.076 405.004 190.964C408.892 194.852 415.196 194.852 419.085 190.964Z" fill="#0BE597"/>
<path d="M410.978 188.057C410.901 188.057 410.832 188.034 410.778 187.98C410.648 187.872 407.66 185.307 407.352 184.999C407.23 184.876 407.23 184.684 407.352 184.562C407.475 184.439 407.668 184.439 407.79 184.562C408.005 184.777 409.826 186.351 410.947 187.304L416.939 179.899C417.047 179.768 417.239 179.745 417.369 179.853C417.5 179.96 417.523 180.152 417.415 180.283L411.224 187.934C411.17 187.995 411.094 188.041 411.016 188.049C411.001 188.057 410.993 188.057 410.978 188.057Z" fill="white" stroke="black" stroke-width="1.10629"/>
<defs>
<linearGradient id="paint0_linear_6005_3711" x1="173.482" y1="39" x2="252.207" y2="87.6263" gradientUnits="userSpaceOnUse">
<stop stop-color="#0C2966"/>
<stop offset="1" stop-color="#0045C9"/>
</linearGradient>
<linearGradient id="paint1_linear_6005_3711" x1="173.482" y1="39" x2="252.207" y2="87.6263" gradientUnits="userSpaceOnUse">
<stop stop-color="#0C2966"/>
<stop offset="1" stop-color="#0045C9"/>
</linearGradient>
<linearGradient id="paint2_linear_6005_3711" x1="259.772" y1="69.4229" x2="338.497" y2="118.049" gradientUnits="userSpaceOnUse">
<stop stop-color="#0C2966"/>
<stop offset="1" stop-color="#0045C9"/>
</linearGradient>
<linearGradient id="paint3_linear_6005_3711" x1="259.772" y1="69.4229" x2="338.497" y2="118.049" gradientUnits="userSpaceOnUse">
<stop stop-color="#0C2966"/>
<stop offset="1" stop-color="#0045C9"/>
</linearGradient>
<linearGradient id="paint4_linear_6005_3711" x1="346.06" y1="110.909" x2="424.786" y2="159.535" gradientUnits="userSpaceOnUse">
<stop stop-color="#0C2966"/>
<stop offset="1" stop-color="#0045C9"/>
</linearGradient>
<linearGradient id="paint5_linear_6005_3711" x1="346.06" y1="110.909" x2="424.786" y2="159.535" gradientUnits="userSpaceOnUse">
<stop stop-color="#0C2966"/>
<stop offset="1" stop-color="#0045C9"/>
</linearGradient>
<linearGradient id="paint6_linear_6005_3711" x1="173.482" y1="108.696" x2="252.207" y2="157.322" gradientUnits="userSpaceOnUse">
<stop stop-color="#0C2966"/>
<stop offset="1" stop-color="#0045C9"/>
</linearGradient>
<linearGradient id="paint7_linear_6005_3711" x1="173.482" y1="108.696" x2="252.207" y2="157.322" gradientUnits="userSpaceOnUse">
<stop stop-color="#0C2966"/>
<stop offset="1" stop-color="#0045C9"/>
</linearGradient>
<linearGradient id="paint8_linear_6005_3711" x1="259.772" y1="139.119" x2="338.497" y2="187.745" gradientUnits="userSpaceOnUse">
<stop stop-color="#0C2966"/>
<stop offset="1" stop-color="#0045C9"/>
</linearGradient>
<linearGradient id="paint9_linear_6005_3711" x1="259.772" y1="139.119" x2="338.497" y2="187.745" gradientUnits="userSpaceOnUse">
<stop stop-color="#0C2966"/>
<stop offset="1" stop-color="#0045C9"/>
</linearGradient>
<linearGradient id="paint10_linear_6005_3711" x1="346.06" y1="180.604" x2="424.786" y2="229.231" gradientUnits="userSpaceOnUse">
<stop stop-color="#0C2966"/>
<stop offset="1" stop-color="#0045C9"/>
</linearGradient>
<linearGradient id="paint11_linear_6005_3711" x1="346.06" y1="180.604" x2="424.786" y2="229.231" gradientUnits="userSpaceOnUse">
<stop stop-color="#0C2966"/>
<stop offset="1" stop-color="#0045C9"/>
</linearGradient>
<linearGradient id="paint12_linear_6005_3711" x1="173.482" y1="180.052" x2="252.207" y2="228.678" gradientUnits="userSpaceOnUse">
<stop stop-color="#0C2966"/>
<stop offset="1" stop-color="#0045C9"/>
</linearGradient>
<linearGradient id="paint13_linear_6005_3711" x1="173.482" y1="180.052" x2="252.207" y2="228.678" gradientUnits="userSpaceOnUse">
<stop stop-color="#0C2966"/>
<stop offset="1" stop-color="#0045C9"/>
</linearGradient>
<linearGradient id="paint14_linear_6005_3711" x1="259.772" y1="210.474" x2="338.497" y2="259.1" gradientUnits="userSpaceOnUse">
<stop stop-color="#0C2966"/>
<stop offset="1" stop-color="#0045C9"/>
</linearGradient>
<linearGradient id="paint15_linear_6005_3711" x1="259.772" y1="210.474" x2="338.497" y2="259.1" gradientUnits="userSpaceOnUse">
<stop stop-color="#0C2966"/>
<stop offset="1" stop-color="#0045C9"/>
</linearGradient>
</defs>
</svg>
