<svg width="588" height="311" viewBox="0 0 588 311" fill="none" xmlns="http://www.w3.org/2000/svg">
<path d="M0 8C0 3.58172 3.58172 0 8 0H580C584.418 0 588 3.58172 588 8V303C588 307.418 584.418 311 580 311H7.99998C3.58171 311 0 307.418 0 303V8Z" fill="#22395B"/>
<g filter="url(#filter0_di_6005_3658)">
<path d="M435.714 48.7601H152.274C151.018 48.7601 150 49.8116 150 51.1087V226.713C150 228.01 151.018 229.062 152.274 229.062H435.714C436.97 229.062 437.988 228.01 437.988 226.713V51.1087C437.988 49.8116 436.97 48.7601 435.714 48.7601Z" fill="url(#paint0_linear_6005_3658)"/>
<path d="M437.988 43.88C437.988 41.1848 435.803 39 433.108 39H154.88C152.185 39 150 41.1848 150 43.88C150 46.5751 152.185 48.7599 154.88 48.7599H433.108C435.803 48.7599 437.988 46.5751 437.988 43.88Z" fill="#000C36"/>
<path d="M437.988 43.88C437.988 41.1848 435.803 39 433.108 39H154.88C152.185 39 150 41.1848 150 43.88C150 46.5751 152.185 48.7599 154.88 48.7599H433.108C435.803 48.7599 437.988 46.5751 437.988 43.88Z" fill="#05306F"/>
<path d="M160.269 44.1334C160.27 44.4383 160.18 44.7366 160.011 44.9905C159.842 45.2445 159.602 45.4426 159.321 45.5598C159.039 45.677 158.73 45.708 158.431 45.649C158.132 45.59 157.857 45.4434 157.641 45.2281C157.425 45.0127 157.278 44.7382 157.219 44.4391C157.159 44.1401 157.189 43.8301 157.306 43.5483C157.422 43.2664 157.619 43.0255 157.873 42.856C158.126 42.6865 158.424 42.5961 158.729 42.5961C159.136 42.599 159.525 42.7617 159.813 43.0493C160.101 43.3369 160.265 43.7263 160.269 44.1334Z" fill="white"/>
<path d="M167.456 44.1334C167.457 44.4385 167.367 44.737 167.198 44.9909C167.029 45.2449 166.788 45.443 166.507 45.5602C166.225 45.6772 165.915 45.708 165.616 45.6487C165.317 45.5894 165.042 45.4425 164.827 45.2268C164.611 45.0111 164.464 44.7361 164.405 44.4369C164.346 44.1376 164.377 43.8274 164.494 43.5457C164.611 43.264 164.809 43.0233 165.062 42.8542C165.316 42.6852 165.615 42.5953 165.919 42.5961C166.121 42.5951 166.322 42.6342 166.509 42.7111C166.695 42.788 166.865 42.9012 167.008 43.0442C167.151 43.1871 167.264 43.357 167.341 43.544C167.418 43.7309 167.457 43.9312 167.456 44.1334Z" fill="white"/>
<path d="M174.641 44.1334C174.642 44.4383 174.552 44.7366 174.383 44.9905C174.214 45.2445 173.974 45.4426 173.693 45.5598C173.411 45.677 173.102 45.708 172.803 45.649C172.504 45.59 172.229 45.4434 172.013 45.2281C171.797 45.0127 171.65 44.7382 171.591 44.4391C171.531 44.1401 171.561 43.8301 171.678 43.5483C171.794 43.2664 171.992 43.0255 172.245 42.856C172.498 42.6865 172.796 42.5961 173.101 42.5961C173.508 42.599 173.897 42.7617 174.185 43.0493C174.473 43.3369 174.637 43.7263 174.641 44.1334Z" fill="white"/>
<path d="M421.049 53.0709C421.049 52.392 420.499 51.8417 419.82 51.8417H183.571C182.892 51.8417 182.342 52.392 182.342 53.0709V57.804C182.342 58.4829 182.892 59.0332 183.571 59.0332H419.82C420.499 59.0332 421.049 58.4829 421.049 57.804V53.0709Z" fill="white"/>
<path d="M175.978 51.8417H171.249C170.571 51.8417 170.02 52.392 170.02 53.0709V57.804C170.02 58.4829 170.571 59.0332 171.249 59.0332H175.978C176.657 59.0332 177.207 58.4829 177.207 57.804V53.0709C177.207 52.392 176.657 51.8417 175.978 51.8417Z" fill="white"/>
<path d="M161.497 59.0331H166.226C166.905 59.0331 167.455 58.4828 167.455 57.8039V53.0708C167.455 52.3919 166.905 51.8416 166.226 51.8416H161.497C160.818 51.8416 160.268 52.3919 160.268 53.0708V57.8039C160.268 58.4828 160.818 59.0331 161.497 59.0331Z" fill="white"/>
<path d="M348.15 73.4175H224.001C222.983 73.4175 222.157 74.243 222.157 75.2613V98.0013C222.157 99.0196 222.983 99.8451 224.001 99.8451H348.15C349.168 99.8451 349.994 99.0196 349.994 98.0013V75.2613C349.994 74.243 349.168 73.4175 348.15 73.4175Z" fill="#EDF1F6" fill-opacity="0.16"/>
<path d="M348.15 105.376H224.001C222.983 105.376 222.157 106.202 222.157 107.22V166.222C222.157 167.24 222.983 168.065 224.001 168.065H348.15C349.168 168.065 349.994 167.24 349.994 166.222V107.22C349.994 106.202 349.168 105.376 348.15 105.376Z" fill="#EDF1F6" fill-opacity="0.16"/>
<path d="M348.15 174.211H224.001C222.983 174.211 222.157 175.037 222.157 176.055V235.671C222.157 236.689 222.983 237.515 224.001 237.515H348.15C349.168 237.515 349.994 236.689 349.994 235.671V176.055C349.994 175.037 349.168 174.211 348.15 174.211Z" fill="#EDF1F6" fill-opacity="0.16"/>
<path d="M214.168 85.7094H176.063C174.706 85.7094 173.605 86.81 173.605 88.1677V142.867C173.605 144.225 174.706 145.325 176.063 145.325H214.168C215.526 145.325 216.627 144.225 216.627 142.867V88.1677C216.627 86.81 215.526 85.7094 214.168 85.7094Z" fill="#EDF1F6" fill-opacity="0.16"/>
<path d="M400.389 73.4175H357.982C356.625 73.4175 355.524 74.5181 355.524 75.8759V130.575C355.524 131.933 356.625 133.033 357.982 133.033H400.389C401.747 133.033 402.848 131.933 402.848 130.575V75.8759C402.848 74.5181 401.747 73.4175 400.389 73.4175Z" fill="#EDF1F6" fill-opacity="0.16"/>
<path d="M400.389 137.95H357.982C356.625 137.95 355.524 139.051 355.524 140.408V182.201C355.524 183.559 356.625 184.659 357.982 184.659H400.389C401.747 184.659 402.848 183.559 402.848 182.201V140.408C402.848 139.051 401.747 137.95 400.389 137.95Z" fill="#EDF1F6" fill-opacity="0.16"/>
<path d="M214.168 150.242H176.063C174.706 150.242 173.605 151.343 173.605 152.7V217.848C173.605 219.205 174.706 220.306 176.063 220.306H214.168C215.526 220.306 216.627 219.205 216.627 217.848V152.7C216.627 151.343 215.526 150.242 214.168 150.242Z" fill="#EDF1F6" fill-opacity="0.16"/>
<path fill-rule="evenodd" clip-rule="evenodd" d="M364.884 73.0632C360.302 73.0632 356.587 76.778 356.587 81.3603C356.587 85.9426 360.302 89.6573 364.884 89.6573H373.678L317.057 144.509L277.285 110.566C274.207 107.938 269.682 107.915 266.577 110.512L173.199 188.587L183.844 201.318L271.844 127.738L312.024 162.03C315.279 164.807 320.111 164.655 323.184 161.678L385.995 100.83V110.768C385.995 115.35 389.709 119.065 394.292 119.065C398.874 119.065 402.589 115.35 402.589 110.768V81.3603C402.589 76.778 398.874 73.0632 394.292 73.0632H364.884Z" fill="url(#paint1_linear_6005_3658)"/>
<path d="M437.877 48.8334H150V64.1983H437.877V48.8334Z" fill="#05306F"/>
<path d="M407.165 55.2676H395.676C394.914 55.2676 394.297 55.8843 394.297 56.645C394.297 57.4058 394.914 58.0225 395.676 58.0225H407.165C407.926 58.0225 408.544 57.4058 408.544 56.645C408.544 55.8843 407.926 55.2676 407.165 55.2676Z" fill="#EDF1F6" fill-opacity="0.16"/>
<path d="M429.237 55.2676H417.748C416.987 55.2676 416.369 55.8843 416.369 56.645C416.369 57.4058 416.987 58.0225 417.748 58.0225H429.237C429.999 58.0225 430.616 57.4058 430.616 56.645C430.616 55.8843 429.999 55.2676 429.237 55.2676Z" fill="#EDF1F6" fill-opacity="0.16"/>
<path d="M385.104 55.2676H373.615C372.854 55.2676 372.236 55.8843 372.236 56.645C372.236 57.4058 372.854 58.0225 373.615 58.0225H385.104C385.866 58.0225 386.483 57.4058 386.483 56.645C386.483 55.8843 385.866 55.2676 385.104 55.2676Z" fill="#EDF1F6" fill-opacity="0.16"/>
<path d="M362.751 55.2676H351.262C350.501 55.2676 349.883 55.8843 349.883 56.645C349.883 57.4058 350.501 58.0225 351.262 58.0225H362.751C363.513 58.0225 364.13 57.4058 364.13 56.645C364.13 55.8843 363.513 55.2676 362.751 55.2676Z" fill="#EDF1F6" fill-opacity="0.16"/>
</g>
<rect x="432.714" y="43.9166" width="5.28553" height="4.85531" fill="#000D36"/>
<rect x="432.714" y="43.9166" width="5.28553" height="4.85531" fill="#05306F"/>
<path d="M238.569 125.043H179.595C176.88 125.043 174.678 127.245 174.678 129.96V163.212C174.678 165.928 176.88 168.129 179.595 168.129H238.569C241.285 168.129 243.486 165.928 243.486 163.212V129.96C243.486 127.245 241.285 125.043 238.569 125.043Z" fill="#3D7FFC"/>
<path d="M220.979 146.908C223.82 146.908 226.123 144.604 226.123 141.763C226.123 138.922 223.82 136.619 220.979 136.619C218.138 136.619 215.834 138.922 215.834 141.763C215.834 144.604 218.138 146.908 220.979 146.908Z" fill="white"/>
<path d="M211.976 156.452C211.976 152.246 215.385 148.836 219.591 148.836H222.367C226.572 148.836 229.982 152.246 229.982 156.452C229.982 157.574 229.073 158.483 227.951 158.483H214.007C212.885 158.483 211.976 157.574 211.976 156.452Z" fill="white"/>
<path d="M194.614 153.338V139.191" stroke="white" stroke-width="2.15109" stroke-linecap="round" stroke-linejoin="round"/>
<path d="M187.537 146.265L194.61 139.191L201.684 146.265" stroke="white" stroke-width="2.15109" stroke-linecap="round" stroke-linejoin="round"/>
<path d="M238.569 176.67H179.595C176.88 176.67 174.678 178.871 174.678 181.586V214.838C174.678 217.554 176.88 219.755 179.595 219.755H238.569C241.285 219.755 243.486 217.554 243.486 214.838V181.586C243.486 178.871 241.285 176.67 238.569 176.67Z" fill="#3D7FFC"/>
<path d="M215.834 210.109V205.608H222.265L215.834 210.109Z" fill="white"/>
<path d="M211.976 191.99C211.976 190.632 213.077 189.531 214.435 189.531H230.739C232.096 189.531 233.197 190.632 233.197 191.99V203.779C233.197 205.136 232.096 206.237 230.739 206.237H214.435C213.077 206.237 211.976 205.136 211.976 203.779V191.99Z" fill="white"/>
<path d="M194.614 204.965V190.817" stroke="white" stroke-width="2.15109" stroke-linecap="round" stroke-linejoin="round"/>
<path d="M187.537 197.891L194.61 190.817L201.684 197.891" stroke="white" stroke-width="2.15109" stroke-linecap="round" stroke-linejoin="round"/>
<path d="M238.569 228.296H179.595C176.88 228.296 174.678 230.497 174.678 233.213V266.464C174.678 269.18 176.88 271.381 179.595 271.381H238.569C241.285 271.381 243.486 269.18 243.486 266.464V233.213C243.486 230.497 241.285 228.296 238.569 228.296Z" fill="#3D7FFC"/>
<path d="M221.901 258.149L221.877 259.659H223.411L223.435 258.125C224.37 258.029 225.521 257.669 226.336 256.998C227.294 256.255 228.061 254.961 228.061 253.379C228.061 251.174 226.959 249.975 224.969 249.064L223.459 248.369L223.483 243.767C224.466 243.887 225.617 244.366 226.384 245.277L227.678 243.455C226.743 242.353 224.969 241.61 223.483 241.49L223.507 240.004H221.973L221.925 241.466C219.432 241.73 217.419 243.479 217.419 245.996C217.419 247.842 218.522 248.873 219.121 249.352C219.624 249.759 220.295 250.095 221.134 250.455L221.997 250.838L221.949 255.776C220.727 255.752 219.097 254.865 218.33 253.618L216.844 255.536C218.042 257.142 219.984 258.101 221.901 258.149ZM222.093 243.743L222.069 247.866L221.805 247.746C221.038 247.386 220.152 246.859 220.152 245.733C220.152 244.438 220.942 243.863 222.093 243.743ZM223.339 255.8L223.387 251.317L223.867 251.557C224.778 251.989 225.353 252.564 225.353 253.738C225.353 254.937 224.274 255.728 223.339 255.8Z" fill="white"/>
<path d="M194.614 256.591V242.443" stroke="white" stroke-width="2.15109" stroke-linecap="round" stroke-linejoin="round"/>
<path d="M187.537 249.517L194.61 242.443L201.684 249.517" stroke="white" stroke-width="2.15109" stroke-linecap="round" stroke-linejoin="round"/>
<path d="M238.569 73.4242H179.595C176.88 73.4242 174.678 75.6255 174.678 78.341V111.593C174.678 114.308 176.88 116.51 179.595 116.51H238.569C241.285 116.51 243.486 114.308 243.486 111.593V78.341C243.486 75.6255 241.285 73.4242 238.569 73.4242Z" fill="#3D7FFC"/>
<path d="M194.614 101.719V87.5715" stroke="white" stroke-width="2.15109" stroke-linecap="round" stroke-linejoin="round"/>
<path d="M187.537 94.6455L194.61 87.5715L201.684 94.6455" stroke="white" stroke-width="2.15109" stroke-linecap="round" stroke-linejoin="round"/>
<path d="M219.631 104.818C217.608 104.818 215.63 104.218 213.948 103.094C212.266 101.969 210.954 100.372 210.18 98.5022C209.406 96.6326 209.203 94.5755 209.598 92.591C209.992 90.6064 210.967 88.7835 212.398 87.3528C213.828 85.922 215.651 84.9478 217.636 84.5533C219.62 84.1581 221.677 84.3609 223.547 85.1353C225.416 85.9097 227.014 87.2206 228.138 88.9034C229.262 90.5855 229.862 92.5639 229.862 94.5872C229.859 97.2994 228.78 99.8998 226.862 101.818C224.945 103.735 222.344 104.815 219.631 104.818ZM219.631 86.4026C218.013 86.4026 216.431 86.8826 215.085 87.7818C213.739 88.6815 212.69 89.9593 212.07 91.4552C211.451 92.9505 211.289 94.5964 211.604 96.1839C211.92 97.7714 212.7 99.2298 213.844 100.374C214.989 101.519 216.447 102.299 218.035 102.614C219.623 102.93 221.268 102.768 222.764 102.149C224.259 101.529 225.538 100.48 226.437 99.134C227.336 97.788 227.816 96.206 227.816 94.5872C227.814 92.417 226.951 90.3372 225.416 88.8026C223.882 87.2686 221.802 86.4051 219.631 86.4026Z" fill="white"/>
<path d="M226.495 100.002L225.048 101.448L230.463 106.864L231.91 105.417L226.495 100.002Z" fill="white"/>
<rect x="150" y="43.9166" width="5.53137" height="4.91677" fill="#000D36"/>
<rect x="150" y="43.9166" width="5.53137" height="4.91677" fill="#05306F"/>
<defs>
<filter id="filter0_di_6005_3658" x="135.25" y="24.2497" width="323.635" height="234.161" filterUnits="userSpaceOnUse" color-interpolation-filters="sRGB">
<feFlood flood-opacity="0" result="BackgroundImageFix"/>
<feColorMatrix in="SourceAlpha" type="matrix" values="0 0 0 0 0 0 0 0 0 0 0 0 0 0 0 0 0 0 127 0" result="hardAlpha"/>
<feOffset dx="3.07298" dy="3.07298"/>
<feGaussianBlur stdDeviation="8.91165"/>
<feColorMatrix type="matrix" values="0 0 0 0 0 0 0 0 0 0.296699 0 0 0 0 0.858629 0 0 0 0.14 0"/>
<feBlend mode="normal" in2="BackgroundImageFix" result="effect1_dropShadow_6005_3658"/>
<feBlend mode="normal" in="SourceGraphic" in2="effect1_dropShadow_6005_3658" result="shape"/>
<feColorMatrix in="SourceAlpha" type="matrix" values="0 0 0 0 0 0 0 0 0 0 0 0 0 0 0 0 0 0 127 0" result="hardAlpha"/>
<feOffset/>
<feGaussianBlur stdDeviation="2.15109"/>
<feComposite in2="hardAlpha" operator="arithmetic" k2="-1" k3="1"/>
<feColorMatrix type="matrix" values="0 0 0 0 0.0354167 0 0 0 0 0.105426 0 0 0 0 0.2125 0 0 0 0.09 0"/>
<feBlend mode="normal" in2="shape" result="effect2_innerShadow_6005_3658"/>
</filter>
<linearGradient id="paint0_linear_6005_3658" x1="174.278" y1="48.7601" x2="425.636" y2="246.79" gradientUnits="userSpaceOnUse">
<stop stop-color="#0C2966"/>
<stop offset="1" stop-color="#0045C9"/>
</linearGradient>
<linearGradient id="paint1_linear_6005_3658" x1="396.5" y1="73" x2="173" y2="208" gradientUnits="userSpaceOnUse">
<stop stop-color="#0BE597"/>
<stop offset="1" stop-color="#5B588E" stop-opacity="0"/>
</linearGradient>
</defs>
</svg>
