<svg width="78" height="77" viewBox="0 0 78 77" fill="none" xmlns="http://www.w3.org/2000/svg">
<path fill-rule="evenodd" clip-rule="evenodd" d="M43.5096 58.5535C47.8312 61.7248 50.4618 65.4557 50.6497 68.8135V69H61.3599V68.8135C61.3599 65.4557 63.4268 62.2844 68.1242 59.1132L68.3121 58.9266H68.5V45.8685C68.1242 46.055 67.9363 46.2416 67.7484 46.4281L67.3726 46.6147C65.4936 47.7339 63.8025 48.6667 62.2994 49.7859L62.1115 49.9725C59.8567 51.6514 57.6019 53.5168 55.9108 55.5688C54.2197 53.5168 51.965 51.6514 49.7102 49.9725C48.207 48.8532 46.5159 47.9205 44.449 46.6147L44.0732 46.4281C43.8853 46.2416 43.6975 46.2416 43.3217 46.055L39.9395 44.1896C39.3758 43.8165 39 43.63 38.6242 43.4434L38.2484 43.2569C36.1815 41.9511 34.3025 41.0184 32.6115 39.7125C29.4172 37.474 27.3503 35.2355 26.2229 32.8104C25.4713 31.1315 25.2834 29.6391 25.2834 28.1468C25.2834 22.737 29.6051 18.4465 35.0541 18.4465C40.5032 18.4465 45.2006 22.9235 45.2006 28.1468C45.2006 29.6391 45.0127 31.1315 44.2611 32.8104C43.3217 34.8624 41.6306 36.9144 39 38.7798C39.3758 38.9664 39.9395 39.3394 40.5032 39.526L40.879 39.7125L41.0669 39.8991L43.5096 41.3914C44.8248 42.1376 45.5764 42.5107 46.1401 42.8838L46.7038 43.2569C47.4554 43.63 48.0191 44.0031 48.5828 44.3761L48.7707 44.5627C51.0255 42.3242 52.7166 39.8991 53.8439 37.2875C55.3471 34.1162 55.7229 31.1315 55.7229 28.3333C55.7229 17.1407 46.7038 8.18654 35.6178 8H35.242H34.8662C23.9682 8 14.949 17.1407 14.949 28.1468C14.949 31.1315 15.5127 34.1162 16.828 37.1009C18.707 41.2049 22.0892 45.1223 26.9745 48.2936C29.0414 49.5994 31.1083 50.9052 33.3631 52.211C33.551 52.3976 33.7389 52.3976 34.1147 52.5841L37.6847 54.6361C38.0605 54.8226 38.4363 55.0092 38.6242 55.1957L39 55.3823C41.0669 56.6881 42.3822 57.6208 43.5096 58.5535ZM24.9076 51.8379C23.7803 51.0917 22.6529 50.3456 21.7134 49.4128C21.5255 49.5994 21.3376 49.5994 21.1497 49.7859C18.1433 52.0245 15.5127 54.4495 13.4459 57.2477C11.0032 60.792 9.5 64.7095 9.5 68.8135H20.2102C20.2102 65.2691 22.8408 61.5382 27.3503 58.367C28.4777 57.6208 29.6051 56.8746 31.1083 55.9419L31.4841 55.7554L31.2962 55.5688C28.8535 54.263 26.7866 53.1437 24.9076 51.8379Z" fill="#0540F7"/>
</svg>
