<svg width="78" height="77" viewBox="0 0 78 77" fill="none" xmlns="http://www.w3.org/2000/svg">
<path d="M59.1334 42.5934C61.7994 41.6848 61.1683 37.9657 60.4428 33.7136C59.5479 28.459 58.514 22.3872 63.3938 19.7881C63.3938 19.7881 60.2379 24.1505 64.9835 30.5463C69.7973 37.0313 70.6145 50.5881 60.8479 53.4386C56.2391 54.7839 51.9903 51.4569 48.7875 47.5688C39.8993 43.5068 45.3843 41.4688 31.6917 47.5688C30.4978 51.539 24.4192 55.1126 20.5851 55.1784C10.444 55.3521 8.8355 42.1215 11.6616 34.4743C14.4477 26.9352 10.2227 23.6927 10.2227 23.6927C15.6135 24.7305 16.2965 30.8562 16.8852 36.1579C17.3633 40.4475 17.7802 44.1995 20.5851 44.277C29.007 44.277 26.1714 30.5017 26.1714 30.5017L38.5404 26.6111L50.7187 30.3678C50.7187 30.3678 53.1703 44.6292 59.131 42.5958L59.1334 42.5934Z" fill="url(#paint0_linear_11704_45497)"/>
<path d="M60.864 49.9023C60.1174 49.7967 56.0973 50.0503 52.2914 48.7871C51.5448 50.2006 56.7591 54.0676 58.3276 53.9947C59.8937 53.9196 64.0717 52.4334 63.9987 52.0601C63.9233 51.6891 63.9987 50.3484 60.864 49.9023Z" fill="url(#paint1_linear_11704_45497)"/>
<path d="M27.8913 44.1015C26.9021 42.8031 25.6539 43.2844 24.832 42.3899C26.1744 40.6781 26.3981 38.2998 26.3981 38.2998L29.1582 38.3749L32.2929 41.4249L29.1582 51.3917C29.2337 48.1939 29.3067 45.961 27.8889 44.1015H27.8913Z" fill="url(#paint2_linear_11704_45497)"/>
<path d="M22.2969 54.4387C22.8927 54.5867 25.3562 54.2908 26.9223 52.8773C23.7147 48.5642 25.952 45.5143 23.7147 43.4316C23.3543 43.7628 22.8197 43.8026 22.8197 43.8026L22.2969 54.4387Z" fill="url(#paint3_linear_11704_45497)"/>
<path d="M49.6038 41.3474C49.8276 39.4877 51.9165 39.1895 53.0351 38.0743C52.2133 36.2899 51.9165 34.9492 51.9165 34.9492L49.0055 35.6934L47.364 38.6684C47.364 38.6684 45.798 47.149 52.437 49.0085C49.3777 45.6604 49.3777 43.2069 49.6015 41.3474H49.6038Z" fill="url(#paint4_linear_11704_45497)"/>
<path d="M13.2324 39.7352C13.2489 38.8471 12.8553 38.1197 12.3533 38.1104C11.8513 38.1011 11.431 38.8136 11.4146 39.7017C11.3981 40.5897 11.7917 41.3172 12.2936 41.3265C12.7956 41.3358 13.2159 40.6234 13.2324 39.7352Z" fill="#1890FF"/>
<path d="M13.3482 36.3421C13.43 35.6466 13.1717 35.0448 12.7712 34.998C12.3707 34.9511 11.9798 35.4769 11.8979 36.1724C11.8161 36.8679 12.0744 37.4696 12.4749 37.5164C12.8754 37.5633 13.2663 37.0374 13.3482 36.3421Z" fill="#1890FF"/>
<path d="M13.6894 33.3541C13.7295 32.6745 13.4652 32.1061 13.0991 32.0846C12.7329 32.0631 12.4036 32.5966 12.3634 33.2763C12.3233 33.9558 12.5876 34.5242 12.9537 34.5456C13.3199 34.5671 13.6492 34.0336 13.6894 33.3541Z" fill="#1890FF"/>
<path d="M13.2354 31.6333C13.5951 31.5854 13.8129 30.9954 13.7217 30.3154C13.6306 29.6356 13.2652 29.1232 12.9055 29.1711C12.5458 29.219 12.328 29.809 12.4192 30.489C12.5103 31.1688 12.8757 31.6812 13.2354 31.6333Z" fill="#1890FF"/>
<path d="M12.7269 28.6377C12.9913 28.5804 13.1085 28.0883 12.9888 27.5383C12.869 26.9884 12.5576 26.5889 12.2932 26.6461C12.0288 26.7033 11.9116 27.1956 12.0313 27.7456C12.1511 28.2955 12.4625 28.6949 12.7269 28.6377Z" fill="#1890FF"/>
<path d="M13.5219 44.9498C14.0943 44.8105 14.377 43.9572 14.1533 43.0438C13.9297 42.1305 13.2844 41.5032 12.712 41.6424C12.1396 41.7818 11.8569 42.6351 12.0805 43.5484C12.3042 44.4616 12.9495 45.0891 13.5219 44.9498Z" fill="#1890FF"/>
<path d="M15.8883 49.1769C16.5692 48.8777 16.7423 47.7782 16.275 46.7209C15.8076 45.6637 14.8769 45.049 14.1961 45.3481C13.5152 45.6472 13.3422 46.7467 13.8095 47.8041C14.2768 48.8613 15.2075 49.476 15.8883 49.1769Z" fill="url(#paint5_linear_11704_45497)"/>
<path d="M24.7818 53.394C25.9468 53.1391 26.7664 52.3657 26.6124 51.6665C26.4585 50.9674 25.3893 50.6072 24.2243 50.8622C23.0593 51.1171 22.2396 51.8906 22.3936 52.5897C22.5475 53.2888 23.6168 53.649 24.7818 53.394Z" fill="url(#paint6_linear_11704_45497)"/>
<path d="M29.3432 50.8969C30.1754 50.2381 30.5701 49.3526 30.2248 48.919C29.8795 48.4853 28.9248 48.6679 28.0926 49.3266C27.2604 49.9854 26.8656 50.8709 27.2109 51.3045C27.5563 51.7382 28.511 51.5556 29.3432 50.8969Z" fill="url(#paint7_linear_11704_45497)"/>
<path d="M11.2996 41.7358C11.3194 40.7699 10.9326 39.9788 10.4359 39.9688C9.93909 39.9588 9.52042 40.7337 9.50072 41.6996C9.48102 42.6654 9.86776 43.4566 10.3645 43.4665C10.8613 43.4766 11.28 42.7016 11.2996 41.7358Z" fill="#1890FF"/>
<path d="M11.3503 37.9225C11.4582 37.1689 11.2911 36.5217 10.9769 36.477C10.6627 36.4324 10.3205 37.0069 10.2125 37.7603C10.1045 38.5139 10.2717 39.1611 10.5859 39.2058C10.9 39.2506 11.2423 38.6759 11.3503 37.9225Z" fill="#1890FF"/>
<path d="M11.7345 35.0595C11.8681 34.5032 11.8021 34.0108 11.5871 33.9594C11.3721 33.9082 11.0894 34.3173 10.9558 34.8735C10.8222 35.4296 10.8882 35.922 11.1032 35.9734C11.3183 36.0248 11.6009 35.6156 11.7345 35.0595Z" fill="#1890FF"/>
<path d="M12.0998 32.4556C12.2394 31.9009 12.2421 31.4237 12.1058 31.3896C11.9695 31.3555 11.746 31.7776 11.6064 32.3322C11.4669 32.8869 11.4642 33.3642 11.6005 33.3983C11.7367 33.4323 11.9603 33.0103 12.0998 32.4556Z" fill="#1890FF"/>
<path d="M11.9172 47.7931C12.5028 47.6272 12.737 46.6493 12.4403 45.6092C12.1437 44.5689 11.4285 43.8601 10.843 44.026C10.2575 44.1921 10.0233 45.1698 10.32 46.2101C10.6166 47.2504 11.3317 47.9591 11.9172 47.7931Z" fill="#1890FF"/>
<path d="M14.3254 52.4397C14.9766 52.1113 15.0466 50.9428 14.4819 49.8297C13.9171 48.7165 12.9314 48.0803 12.2803 48.4087C11.6292 48.737 11.5591 49.9055 12.1239 51.0187C12.6886 52.1319 13.6743 52.7681 14.3254 52.4397Z" fill="url(#paint8_linear_11704_45497)"/>
<path d="M24.2355 54.5553C24.3824 53.7173 23.5107 52.8653 22.2885 52.6522C21.0662 52.4391 19.9561 52.9456 19.8091 53.7835C19.6621 54.6215 20.5338 55.4735 21.7562 55.6866C22.9785 55.8997 24.0884 55.3933 24.2355 54.5553Z" fill="#1890FF"/>
<path d="M66.2484 37.3005C66.7312 37.1584 66.9191 36.3558 66.6682 35.5076C66.4173 34.6593 65.8226 34.0867 65.3398 34.2286C64.8568 34.3705 64.6689 35.1732 64.9198 36.0215C65.1707 36.8698 65.7654 37.4423 66.2484 37.3005Z" fill="#1890FF"/>
<path d="M65.0323 33.702C65.407 33.5499 65.4974 32.9039 65.2341 32.2589C64.9709 31.6139 64.4537 31.2142 64.079 31.3663C63.7045 31.5182 63.6141 32.1643 63.8772 32.8093C64.1405 33.4543 64.6576 33.8539 65.0323 33.702Z" fill="#1890FF"/>
<path d="M64.1079 30.6355C64.4562 30.5169 64.5606 29.9014 64.3411 29.2609C64.1217 28.6204 63.6614 28.1972 63.3131 28.3158C62.9647 28.4345 62.8602 29.05 63.0797 29.6904C63.2991 30.331 63.7594 30.7542 64.1079 30.6355Z" fill="#1890FF"/>
<path d="M63.1087 27.5829C63.4607 27.4952 63.611 26.8856 63.4444 26.2214C63.2778 25.5572 62.8573 25.0898 62.5052 25.1776C62.1533 25.2653 62.0029 25.8749 62.1695 26.5392C62.3361 27.2034 62.7566 27.6707 63.1087 27.5829Z" fill="#1890FF"/>
<path d="M62.4586 24.6969C62.7287 24.6811 62.921 24.2119 62.8881 23.6488C62.8551 23.0857 62.6093 22.6419 62.3394 22.6576C62.0693 22.6733 61.877 23.1426 61.9099 23.7057C61.9429 24.2688 62.1885 24.7126 62.4586 24.6969Z" fill="#1890FF"/>
<path d="M66.0658 41.1297C66.6522 41.1154 67.1087 40.3397 67.0854 39.3973C67.0622 38.4549 66.5678 37.7026 65.9814 37.717C65.395 37.7314 64.9385 38.507 64.9618 39.4494C64.985 40.3918 65.4792 41.1441 66.0658 41.1297Z" fill="#1890FF"/>
<path d="M66.5935 43.9904C66.7662 42.84 66.3128 41.8189 65.5808 41.7097C64.8489 41.6006 64.1156 42.4445 63.943 43.5949C63.7702 44.7454 64.2237 45.7664 64.9556 45.8756C65.6875 45.9848 66.4209 45.1407 66.5935 43.9904Z" fill="#1890FF"/>
<path d="M63.9394 48.978C64.6785 47.96 64.7412 46.7478 64.0795 46.2704C63.418 45.7929 62.2824 46.2308 61.5434 47.2488C60.8043 48.2666 60.7416 49.4788 61.4033 49.9563C62.065 50.4337 63.2004 49.9958 63.9394 48.978Z" fill="#1890FF"/>
<path d="M59.7522 52.7547C60.7501 52.3274 61.3237 51.4344 61.0332 50.76C60.7427 50.0857 59.6983 49.8853 58.7003 50.3125C57.7023 50.7398 57.1287 51.6327 57.4192 52.3071C57.7097 52.9815 58.7542 53.1819 59.7522 52.7547Z" fill="url(#paint9_linear_11704_45497)"/>
<path d="M68.6897 38.7772C69.1669 38.6346 69.3287 37.7707 69.0512 36.8479C68.7736 35.925 68.1618 35.2925 67.6846 35.4351C67.2075 35.5777 67.0457 36.4415 67.3231 37.3644C67.6008 38.2873 68.2126 38.9198 68.6897 38.7772Z" fill="#1890FF"/>
<path d="M67.3169 34.7495C67.6081 34.6204 67.5947 33.9558 67.2867 33.2649C66.9789 32.5741 66.4934 32.1185 66.2022 32.2474C65.9109 32.3764 65.9243 33.0411 66.2322 33.7319C66.54 34.4228 67.0256 34.8784 67.3169 34.7495Z" fill="#1890FF"/>
<path d="M65.9898 31.7193C66.1846 31.6097 66.116 31.1207 65.8367 30.6272C65.5573 30.1338 65.1729 29.8225 64.9781 29.9321C64.7833 30.0418 64.8517 30.5307 65.1312 31.0242C65.4105 31.5178 65.795 31.8289 65.9898 31.7193Z" fill="#1890FF"/>
<path d="M69.4977 41.4649C69.5114 40.3316 69.0543 39.4073 68.4769 39.4004C67.8994 39.3934 67.4202 40.3065 67.4065 41.4398C67.3929 42.573 67.8498 43.4973 68.4273 43.5043C69.0048 43.5112 69.4841 42.5981 69.4977 41.4649Z" fill="#1890FF"/>
<path d="M68.6474 46.5858C68.9334 45.3913 68.6998 44.3122 68.1254 44.1755C67.551 44.0387 66.8535 44.8962 66.5674 46.0907C66.2814 47.285 66.515 48.3641 67.0894 48.5008C67.6637 48.6376 68.3613 47.7802 68.6474 46.5858Z" fill="#1890FF"/>
<path d="M65.3776 51.8283C66.3553 50.8573 66.7966 49.7187 66.3634 49.285C65.9301 48.8514 64.7863 49.287 63.8086 50.258C62.8308 51.229 62.3895 52.3676 62.8227 52.8012C63.2561 53.2349 64.3999 52.7992 65.3776 51.8283Z" fill="#1890FF"/>
<path d="M22.574 32.0891C21.8722 22.0892 37.3146 11 37.3146 11V11.0047C37.4912 11.0704 54.7022 17.5155 55.397 27.4636C55.397 42.8355 23.6267 47.0617 22.5764 32.0891H22.574Z" fill="url(#paint10_linear_11704_45497)"/>
<path d="M46.1683 15.5362L37.8124 20.3706C36.7668 20.3706 32.5159 18.9571 29.082 18.4359C29.5295 17.9898 30.1278 17.2455 31.0227 16.4284C35.0523 18.7341 39.1549 19.5934 42.737 13.5264C44.0794 14.1955 45.4972 15.0877 46.1683 15.5338V15.5362Z" fill="url(#paint11_linear_11704_45497)"/>
<path d="M49.0813 35.8429C48.7751 36.5027 48.5585 37.0333 49.4534 37.4794C49.4534 37.4794 47.7365 38.5947 46.4695 39.191C45.2001 39.7851 47.5881 35.1737 47.5881 35.1737C49.6771 33.3893 52.2889 28.5527 54.4533 26.9912C52.0652 34.2065 49.5288 34.8755 49.0813 35.8429Z" fill="url(#paint12_linear_11704_45497)"/>
<path d="M28.1125 36.8853C28.3268 37.1836 28.6353 39.191 27.8888 39.7124C27.8888 39.7124 28.4115 40.0833 31.0234 40.9026C32.2928 41.4967 29.2336 35.9932 29.2336 35.9932C27.1446 34.2087 25.5784 32.9432 23.4141 31.3818C25.2794 34.8028 27.2623 35.6951 28.1149 36.8853H28.1125Z" fill="url(#paint13_linear_11704_45497)"/>
<path d="M37.9514 20.1214C37.9514 20.1214 24.0964 14.7869 21.5128 21.3681C20.413 24.1715 21.6871 33.6055 29.1081 36.1296C29.5154 37.7989 29.8287 40.1115 29.9512 42.5276C38.3353 55.3308 48.4104 43.4667 48.4104 43.4667C48.4104 43.4667 46.9172 38.2215 47.897 35.3077C55.6335 31.6168 56.4908 19.1353 54.1734 16.407C50.4594 12.0398 40.7634 17.1583 37.949 20.119L37.9514 20.1214Z" fill="url(#paint14_linear_11704_45497)"/>
<path d="M38.3694 34.2071C41.8008 34.0451 51.3908 34.4302 53.8142 28.6473C47.6956 30.2086 43.0678 26.2195 38.3694 26.4026C27.8492 29.4643 25.4611 28.1448 21.5469 26.7242C22.5172 35.6183 34.9379 34.3691 38.3694 34.2048V34.2071Z" fill="url(#paint15_linear_11704_45497)"/>
<path d="M24.5854 63.8118C15.1179 62.3937 15.1862 52.1943 17.9369 46.7988C18.0688 46.5382 18.2078 46.2893 18.3538 46.0522C19.7457 43.7723 20.1507 41.6028 20.1413 39.8371C20.1413 39.8089 20.1413 39.7809 20.1413 39.7527C20.1413 39.6986 20.1413 39.6447 20.139 39.5907C20.139 39.5555 20.139 39.5179 20.1366 39.4827C20.1366 39.4569 20.1366 39.4287 20.1343 39.4028C20.0353 37.1089 19.2699 35.6016 19.2699 35.6016C22.3292 37.2333 23.1818 39.7103 23.2924 42.34C23.2924 42.3611 23.2924 42.3823 23.2948 42.4011C23.2948 42.4434 23.2972 42.4857 23.2995 42.5279C23.2995 42.5843 23.3019 42.6406 23.3042 42.697C23.3042 42.7463 23.3042 42.7956 23.3042 42.8449C23.3042 42.9246 23.3042 43.0021 23.3042 43.082C23.2924 45.4018 22.8191 47.7896 22.8615 49.7807C22.8615 49.8463 22.8638 49.9097 22.8685 49.9755C22.8732 50.0647 22.878 50.154 22.8827 50.2432C23.0004 51.9994 23.6127 53.3965 25.4567 54.089C29.7714 55.7068 30.1835 47.2989 29.5852 38.6702C36.1513 39.1915 37.8681 41.6451 39.8064 47.5219C40.4235 55.4086 33.0143 65.075 24.5854 63.8118Z" fill="url(#paint16_linear_11704_45497)"/>
<path d="M54.3343 49.9054C61.9766 52.6172 61.9271 49.5954 64.082 58.1184C66.237 66.6413 43.6845 66.8621 43.6845 66.8621L49.007 60.4664C49.007 60.4664 47.1348 58.6819 43.6845 58.1207C40.385 57.5854 39.9399 47.8673 39.7539 47.6208C40.8019 41.2839 41.9983 38.3747 47.5539 37.8535C47.4667 42.0046 49.1837 48.0787 54.3319 49.9077L54.3343 49.9054Z" fill="url(#paint17_linear_11704_45497)"/>
<path d="M63.932 60.6137C61.6946 66.7137 43.6875 66.8616 43.6875 66.8616C43.9347 66.5634 45.2796 64.854 45.9507 64.1826C45.6917 64.5465 45.3854 65.0794 45.1712 65.4692C45.0723 65.6477 45.2488 65.8472 45.442 65.7792C56.0965 62.0225 62.7403 57.5027 62.8862 54.0654C63.2584 55.1078 64.8269 58.7518 63.932 60.6113V60.6137Z" fill="url(#paint18_linear_11704_45497)"/>
<path d="M38.2332 24.5519C43.1765 19.525 56.4499 12.9109 55.0793 24.6106C53.7133 36.2798 42.1992 28.6842 38.4122 26.8271C34.8702 28.3485 24.3993 35.7751 21.6085 27.1628C18.8177 18.553 32.7128 21.7321 38.2308 24.5519H38.2332Z" fill="url(#paint19_linear_11704_45497)"/>
<path d="M53.2625 22.8265C50.3515 20.2226 47.5184 20.8918 40.877 25.1322C40.0575 25.7426 39.5723 24.9091 40.1304 24.3879C46.7718 18.2034 54.0091 17.0976 53.2625 22.8265Z" fill="url(#paint20_linear_11704_45497)"/>
<path d="M24.4585 29.2243C23.5636 22.9014 29.084 22.9014 35.5017 25.207C35.8738 25.3409 36.107 24.8549 35.5017 24.5379C27.8169 20.5206 20.2995 22.5304 22.1459 26.6205C22.9654 28.4378 24.4492 29.1563 24.4585 29.2243Z" fill="url(#paint21_linear_11704_45497)"/>
<path d="M27.6688 30.7108C24.8333 30.7108 23.863 26.6206 27.0731 24.5381C26.4017 28.0342 28.6392 30.0416 36.1755 26.1746C36.7007 25.9046 37.1458 26.5057 36.8466 26.7687C33.1916 29.2223 29.407 30.7108 27.6688 30.7108Z" fill="url(#paint22_linear_11704_45497)"/>
<path d="M50.2741 30.3398C53.4818 30.0534 55.8698 24.5381 50.2741 22.2324C52.2878 28.2572 47.3631 31.3823 40.6488 26.0266C40.1873 25.6581 40.126 26.1017 40.7241 26.6207C41.32 27.1419 45.2766 30.7859 50.2741 30.3398Z" fill="url(#paint23_linear_11704_45497)"/>
<path d="M35.9157 25.8183C35.9157 25.8183 27.4091 22.3668 28.41 26.0601C29.4085 29.751 35.9157 25.8183 35.9157 25.8183Z" fill="white"/>
<path d="M24.683 63.8865C31.9203 64.8022 36.8024 61.6559 39.0092 57.3405C40.799 60.6134 45.0053 61.6043 48.7075 60.8364L52.8431 56.1783C46.3948 57.6386 41.0227 54.3657 39.8287 47.3735C39.0092 53.8444 34.5321 59.423 26.2492 58.4558C22.9356 58.0683 20.7924 56.2252 19.6078 53.6941C18.2489 50.7921 17.3705 48.7847 17.6672 47.3711C16.8476 49.0828 16.1647 51.999 16.3978 54.9573C16.8618 60.8342 20.7854 63.391 24.6808 63.8841L24.683 63.8865Z" fill="url(#paint24_linear_11704_45497)"/>
<path d="M39.0064 57.3409C38.2929 58.7356 37.3014 60.0082 36.0391 61.06C36.9175 58.4562 37.0636 57.0427 37.0636 54.3661C38.5778 52.422 39.4963 49.9708 39.8261 47.374C40.2052 49.5951 41.006 51.4406 42.1294 52.8775C41.1708 56.5215 41.0201 57.3409 42.9608 60.5388C41.0955 60.0175 39.6565 58.5266 39.0064 57.3409Z" fill="url(#paint25_linear_11704_45497)"/>
<path d="M48.7047 56.4485C49.0038 56.7467 48.2313 59.6722 47.7344 61.0598L48.0335 61.5811C48.0335 61.5811 50.0401 59.3553 51.5402 57.639C52.0395 57.0683 52.6047 56.5213 52.8826 56.1504C51.764 56.3734 50.4192 56.5964 48.7047 56.4485Z" fill="url(#paint26_linear_11704_45497)"/>
<path d="M40.8945 25.6021C40.8945 25.6021 50.4609 19.0162 49.5024 25.2735C48.5415 31.5331 40.8945 25.6021 40.8945 25.6021Z" fill="white"/>
<path d="M19.0864 49.3689C19.2857 48.5805 19.032 47.8372 18.52 47.7085C18.0079 47.5799 17.4313 48.1148 17.232 48.9031C17.0328 49.6916 17.2864 50.435 17.7985 50.5636C18.3106 50.6923 18.8872 50.1574 19.0864 49.3689Z" fill="#69C0FF"/>
<path d="M19.794 46.3728C20.0339 45.7729 19.912 45.1609 19.5218 45.0057C19.1315 44.8506 18.6207 45.2112 18.3808 45.811C18.1409 46.4108 18.2627 47.0228 18.653 47.1779C19.0432 47.3331 19.554 46.9726 19.794 46.3728Z" fill="#69C0FF"/>
<path d="M20.4482 43.5106C20.6104 42.9608 20.4668 42.4343 20.1274 42.3347C19.788 42.2353 19.3813 42.6003 19.2191 43.1501C19.0569 43.7001 19.2005 44.2264 19.5399 44.326C19.8793 44.4255 20.286 44.0604 20.4482 43.5106Z" fill="#69C0FF"/>
<path d="M20.9564 40.8135C20.9743 40.2393 20.7032 39.765 20.3509 39.7541C19.9985 39.7432 19.6984 40.1997 19.6805 40.774C19.6626 41.3481 19.9337 41.8224 20.286 41.8334C20.6384 41.8443 20.9385 41.3876 20.9564 40.8135Z" fill="#69C0FF"/>
<path d="M20.308 39.1431C20.5687 39.1241 20.7523 38.7272 20.7179 38.2564C20.6836 37.7857 20.4444 37.4193 20.1836 37.4382C19.9229 37.4572 19.7393 37.8541 19.7737 38.3249C19.808 38.7956 20.0472 39.162 20.308 39.1431Z" fill="#69C0FF"/>
<path d="M18.5014 54.2176C19.0864 54.1473 19.4723 53.3588 19.3634 52.4564C19.2545 51.5539 18.692 50.8791 18.107 50.9494C17.522 51.0195 17.1361 51.808 17.245 52.7104C17.3539 53.613 17.9164 54.2877 18.5014 54.2176Z" fill="#69C0FF"/>
<path d="M19.9949 58.0531C20.592 57.8381 20.7985 56.8977 20.4562 55.9524C20.1139 55.0072 19.3524 54.4151 18.7554 54.63C18.1584 54.8448 17.9519 55.7854 18.2942 56.7305C18.6365 57.6759 19.3979 58.2679 19.9949 58.0531Z" fill="#69C0FF"/>
<path d="M24.2647 60.6056C24.6366 60.0454 24.1766 59.0889 23.2374 58.4691C22.2981 57.8493 21.2352 57.801 20.8633 58.361C20.4914 58.9212 20.9514 59.8777 21.8907 60.4975C22.83 61.1174 23.8928 61.1657 24.2647 60.6056Z" fill="#69C0FF"/>
<path d="M29.0654 61.5803C29.1784 60.9326 28.3184 60.2427 27.1445 60.0392C25.9707 59.8359 24.9276 60.196 24.8146 60.8437C24.7018 61.4915 25.5618 62.1815 26.7356 62.3848C27.9094 62.5883 28.9526 62.2281 29.0654 61.5803Z" fill="#69C0FF"/>
<path d="M32.1677 61.8862C33.2268 61.5157 33.9181 60.7401 33.7119 60.1541C33.5054 59.5679 32.4795 59.3932 31.4204 59.7639C30.3613 60.1345 29.67 60.91 29.8762 61.4962C30.0827 62.0821 31.1086 62.2569 32.1677 61.8862Z" fill="#69C0FF"/>
<path d="M36.2595 59.1882C37.0372 58.5208 37.4133 57.685 37.0994 57.3213C36.7854 56.9576 35.9003 57.204 35.1226 57.8714C34.3447 58.5388 33.9687 59.3746 34.2827 59.7383C34.5966 60.102 35.4816 59.8556 36.2595 59.1882Z" fill="url(#paint27_linear_11704_45497)"/>
<path d="M17.1568 51.2688C17.3559 50.4363 17.0886 49.6596 16.5597 49.5339C16.0309 49.4082 15.4407 49.9812 15.2417 50.8137C15.0426 51.6462 15.3099 52.4229 15.8388 52.5486C16.3676 52.6743 16.9578 52.1014 17.1568 51.2688Z" fill="#69C0FF"/>
<path d="M17.1813 47.7323C17.4174 47.1087 17.4658 46.5494 17.2893 46.4831C17.1129 46.4166 16.7785 46.8682 16.5424 47.4918C16.3063 48.1155 16.2579 48.6748 16.4344 48.7411C16.6108 48.8076 16.9452 48.3558 17.1813 47.7323Z" fill="#69C0FF"/>
<path d="M18.3396 45.1124C18.5962 44.588 18.6593 44.0923 18.4805 44.0053C18.3016 43.9183 17.9486 44.2729 17.6919 44.7973C17.4352 45.3217 17.3721 45.8175 17.551 45.9045C17.7298 45.9915 18.0829 45.6368 18.3396 45.1124Z" fill="#69C0FF"/>
<path d="M16.5416 56.3875C17.1439 56.3196 17.5447 55.4937 17.4369 54.5428C17.329 53.5919 16.7534 52.876 16.1511 52.9439C15.5488 53.0118 15.148 53.8377 15.2558 54.7886C15.3637 55.7395 15.9393 56.4554 16.5416 56.3875Z" fill="#69C0FF"/>
<path d="M18.1498 60.4067C18.7826 60.1725 18.9969 59.1804 18.6283 58.1909C18.2598 57.2013 17.448 56.5891 16.8152 56.8234C16.1823 57.0576 15.9681 58.0497 16.3366 59.0392C16.7051 60.0288 17.5169 60.641 18.1498 60.4067Z" fill="#69C0FF"/>
<path d="M22.0681 63.5291C22.6083 62.9766 22.3652 61.8669 21.5251 61.0505C20.685 60.2339 19.5661 60.02 19.0259 60.5725C18.4856 61.1249 18.7287 62.2346 19.5688 63.0512C20.4089 63.8676 21.5279 64.0816 22.0681 63.5291Z" fill="#69C0FF"/>
<path d="M27.3113 64.4924C27.4902 63.7564 26.6668 62.9259 25.4722 62.6372C24.2776 62.3487 23.1642 62.7114 22.9853 63.4474C22.8065 64.1833 23.6299 65.014 24.8245 65.3025C26.0191 65.5911 27.1324 65.2284 27.3113 64.4924Z" fill="#69C0FF"/>
<path d="M30.6287 64.9323C31.7596 64.7115 32.579 64.0363 32.4588 63.4242C32.3385 62.8121 31.3242 62.4949 30.1933 62.7157C29.0624 62.9365 28.2431 63.6116 28.3632 64.2237C28.4835 64.8358 29.4978 65.1531 30.6287 64.9323Z" fill="#69C0FF"/>
<path d="M35.636 62.4985C36.589 61.8276 37.1353 60.9641 36.8562 60.5702C36.5771 60.1762 35.5783 60.4006 34.6252 61.0717C33.6722 61.7426 33.1258 62.6059 33.405 63C33.6842 63.394 34.683 63.1696 35.636 62.4985Z" fill="url(#paint28_linear_11704_45497)"/>
<path d="M45.6335 57.034C44.5689 56.7921 43.6246 57.0622 43.521 57.6374C43.4173 58.2126 44.1969 58.8724 45.2613 59.1143C46.3259 59.356 47.2703 59.086 47.3739 58.5108C47.4775 57.9356 46.698 57.2758 45.6335 57.034Z" fill="url(#paint29_linear_11704_45497)"/>
<path d="M41.8286 55.2864C41.0444 54.6009 40.1236 54.3778 39.7679 54.7863C39.4123 55.195 39.7633 56.0848 40.5452 56.768C41.3293 57.4536 42.2502 57.6766 42.6034 57.2681C42.9567 56.8596 42.6082 55.9698 41.8262 55.2864H41.8286Z" fill="url(#paint30_linear_11704_45497)"/>
<path d="M42.5998 58.7973C41.6555 58.2902 40.6923 58.2714 40.445 58.7551C40.1976 59.2388 40.7606 60.0394 41.7049 60.5466C42.6469 61.0537 43.6126 61.0726 43.8598 60.5888C44.1071 60.1052 43.5443 59.3045 42.5998 58.7973Z" fill="url(#paint31_linear_11704_45497)"/>
<path d="M51.5387 57.6388L49.5981 59.8692C49.0658 59.8035 48.616 59.5265 48.4747 59.132C48.2463 58.4981 48.8397 57.7467 49.7959 57.4509C50.4648 57.2442 51.1172 57.3569 51.5387 57.6364V57.6388Z" fill="url(#paint32_linear_11704_45497)"/>
<path d="M47.3039 62.5011C47.1461 62.5011 46.9837 62.4917 46.8187 62.4683C45.7049 62.311 44.8592 61.6442 44.9299 60.9773C45.0006 60.3106 45.9615 59.8996 47.0754 60.057C47.7819 60.1556 48.3778 60.4609 48.7052 60.8388L47.3063 62.5011H47.3039Z" fill="url(#paint33_linear_11704_45497)"/>
<defs>
<linearGradient id="paint0_linear_11704_45497" x1="10.2227" y1="37.4821" x2="68.4549" y2="37.4821" gradientUnits="userSpaceOnUse">
<stop stop-color="#0050B3"/>
<stop offset="0.28" stop-color="#003A8C"/>
<stop offset="0.77" stop-color="#003A8C"/>
<stop offset="1" stop-color="#0050B3"/>
</linearGradient>
<linearGradient id="paint1_linear_11704_45497" x1="57.0534" y1="53.4453" x2="58.8992" y2="48.3092" gradientUnits="userSpaceOnUse">
<stop offset="0.13" stop-color="#002766"/>
<stop offset="1" stop-color="#0147A3"/>
</linearGradient>
<linearGradient id="paint2_linear_11704_45497" x1="30.383" y1="43.7164" x2="26.9549" y2="45.2103" gradientUnits="userSpaceOnUse">
<stop stop-color="#002766"/>
<stop offset="1" stop-color="#003A8C"/>
</linearGradient>
<linearGradient id="paint3_linear_11704_45497" x1="20.3469" y1="49.2263" x2="25.1203" y2="48.7775" gradientUnits="userSpaceOnUse">
<stop stop-color="#002766"/>
<stop offset="1" stop-color="#013C90"/>
</linearGradient>
<linearGradient id="paint4_linear_11704_45497" x1="48.0565" y1="41.4436" x2="51.4875" y2="41.8947" gradientUnits="userSpaceOnUse">
<stop stop-color="#002766"/>
<stop offset="1" stop-color="#003A8C"/>
</linearGradient>
<linearGradient id="paint5_linear_11704_45497" x1="0.745587" y1="57.7381" x2="3.17087" y2="60.6651" gradientUnits="userSpaceOnUse">
<stop stop-color="#1890FF"/>
<stop offset="1" stop-color="#0050B3"/>
</linearGradient>
<linearGradient id="paint6_linear_11704_45497" x1="31.1335" y1="68.8468" x2="34.9507" y2="67.6259" gradientUnits="userSpaceOnUse">
<stop stop-color="#0050B3"/>
<stop offset="1" stop-color="#188FFF"/>
</linearGradient>
<linearGradient id="paint7_linear_11704_45497" x1="19.2263" y1="37.7488" x2="21.5094" y2="36.4836" gradientUnits="userSpaceOnUse">
<stop stop-color="#1890FF"/>
<stop offset="1" stop-color="#0050B3"/>
</linearGradient>
<linearGradient id="paint8_linear_11704_45497" x1="-1.47302" y1="61.3125" x2="1.27746" y2="64.8513" gradientUnits="userSpaceOnUse">
<stop stop-color="#1890FF"/>
<stop offset="1" stop-color="#096DD9"/>
</linearGradient>
<linearGradient id="paint9_linear_11704_45497" x1="59.8742" y1="51.1826" x2="58.0841" y2="52.8456" gradientUnits="userSpaceOnUse">
<stop stop-color="#1890FF"/>
<stop offset="1" stop-color="#0050B3"/>
</linearGradient>
<linearGradient id="paint10_linear_11704_45497" x1="38.9725" y1="11.0728" x2="38.9725" y2="41.4221" gradientUnits="userSpaceOnUse">
<stop stop-color="#003A8C"/>
<stop offset="1" stop-color="#1890FF"/>
</linearGradient>
<linearGradient id="paint11_linear_11704_45497" x1="38.6414" y1="19.6052" x2="34.7082" y2="9.40708" gradientUnits="userSpaceOnUse">
<stop stop-color="#003A8C"/>
<stop offset="1" stop-color="#0050B3"/>
</linearGradient>
<linearGradient id="paint12_linear_11704_45497" x1="52.9366" y1="35.8147" x2="51.0021" y2="33.8013" gradientUnits="userSpaceOnUse">
<stop stop-color="#1890FF"/>
<stop offset="1" stop-color="#096DD9"/>
</linearGradient>
<linearGradient id="paint13_linear_11704_45497" x1="24.1159" y1="37.8082" x2="28.8836" y2="35.3427" gradientUnits="userSpaceOnUse">
<stop stop-color="#1890FF"/>
<stop offset="1" stop-color="#096DD9"/>
</linearGradient>
<linearGradient id="paint14_linear_11704_45497" x1="38.2364" y1="14.6437" x2="38.2364" y2="33.4623" gradientUnits="userSpaceOnUse">
<stop stop-color="#1890FF"/>
<stop offset="1" stop-color="#003A8C"/>
</linearGradient>
<linearGradient id="paint15_linear_11704_45497" x1="37.6817" y1="22.8267" x2="37.6817" y2="34.2071" gradientUnits="userSpaceOnUse">
<stop offset="0.16" stop-color="#002966"/>
<stop offset="1" stop-color="#013B8D"/>
</linearGradient>
<linearGradient id="paint16_linear_11704_45497" x1="31.8343" y1="41.8047" x2="23.4348" y2="52.4658" gradientUnits="userSpaceOnUse">
<stop stop-color="#003A8C"/>
<stop offset="1" stop-color="#1890FF"/>
</linearGradient>
<linearGradient id="paint17_linear_11704_45497" x1="40.1118" y1="46.1604" x2="51.1732" y2="57.9431" gradientUnits="userSpaceOnUse">
<stop stop-color="#003A8C"/>
<stop offset="1" stop-color="#1890FF"/>
</linearGradient>
<linearGradient id="paint18_linear_11704_45497" x1="53.3787" y1="60.6725" x2="57.0068" y2="71.3928" gradientUnits="userSpaceOnUse">
<stop stop-color="#1890FF"/>
<stop offset="1" stop-color="#0050B3"/>
</linearGradient>
<linearGradient id="paint19_linear_11704_45497" x1="38.212" y1="21.1897" x2="38.212" y2="31.307" gradientUnits="userSpaceOnUse">
<stop stop-color="#003A8C"/>
<stop offset="1" stop-color="#0050B3"/>
</linearGradient>
<linearGradient id="paint20_linear_11704_45497" x1="43.6936" y1="26.1676" x2="58.652" y2="13.2558" gradientUnits="userSpaceOnUse">
<stop stop-color="#01439B"/>
<stop offset="1" stop-color="#0050B3"/>
</linearGradient>
<linearGradient id="paint21_linear_11704_45497" x1="35.8126" y1="25.402" x2="12.2806" y2="26.3114" gradientUnits="userSpaceOnUse">
<stop stop-color="#014199"/>
<stop offset="0.73" stop-color="#0050B3"/>
</linearGradient>
<linearGradient id="paint22_linear_11704_45497" x1="25.09" y1="27.973" x2="36.4308" y2="26.3268" gradientUnits="userSpaceOnUse">
<stop stop-color="#096DD9"/>
<stop offset="1" stop-color="#0147A4"/>
</linearGradient>
<linearGradient id="paint23_linear_11704_45497" x1="54.1223" y1="26.6254" x2="40.6916" y2="25.6522" gradientUnits="userSpaceOnUse">
<stop stop-color="#096DD9"/>
<stop offset="1" stop-color="#01459F"/>
</linearGradient>
<linearGradient id="paint24_linear_11704_45497" x1="55.8269" y1="58.188" x2="18.8239" y2="54.1488" gradientUnits="userSpaceOnUse">
<stop stop-color="#1890FF"/>
<stop offset="0.46" stop-color="#003A8C"/>
<stop offset="1" stop-color="#1890FF"/>
</linearGradient>
<linearGradient id="paint25_linear_11704_45497" x1="36.9458" y1="54.1594" x2="42.0939" y2="54.4572" gradientUnits="userSpaceOnUse">
<stop offset="0.09" stop-color="#034399"/>
<stop offset="0.47" stop-color="#002766"/>
<stop offset="1" stop-color="#054BA2"/>
</linearGradient>
<linearGradient id="paint26_linear_11704_45497" x1="50.8596" y1="59.09" x2="48.1012" y2="57.5214" gradientUnits="userSpaceOnUse">
<stop stop-color="#0050B3"/>
<stop offset="1" stop-color="#0E6ACC"/>
</linearGradient>
<linearGradient id="paint27_linear_11704_45497" x1="31.9175" y1="55.2691" x2="36.9932" y2="50.4509" gradientUnits="userSpaceOnUse">
<stop stop-color="#69C0FF"/>
<stop offset="1" stop-color="#096DD9"/>
</linearGradient>
<linearGradient id="paint28_linear_11704_45497" x1="31.0292" y1="52.9344" x2="35.0937" y2="50.0458" gradientUnits="userSpaceOnUse">
<stop stop-color="#69C0FF"/>
<stop offset="1" stop-color="#096DD9"/>
</linearGradient>
<linearGradient id="paint29_linear_11704_45497" x1="40.0095" y1="53.9206" x2="49.2418" y2="61.0127" gradientUnits="userSpaceOnUse">
<stop stop-color="#096DD9"/>
<stop offset="0.41" stop-color="#69C0FF"/>
<stop offset="0.72" stop-color="#69C0FF"/>
<stop offset="1" stop-color="#096DD9"/>
</linearGradient>
<linearGradient id="paint30_linear_11704_45497" x1="39.4264" y1="54.6807" x2="48.6563" y2="61.7752" gradientUnits="userSpaceOnUse">
<stop stop-color="#096DD9"/>
<stop offset="0.41" stop-color="#69C0FF"/>
<stop offset="0.72" stop-color="#69C0FF"/>
<stop offset="1" stop-color="#096DD9"/>
</linearGradient>
<linearGradient id="paint31_linear_11704_45497" x1="38.0192" y1="56.5128" x2="47.2491" y2="63.6073" gradientUnits="userSpaceOnUse">
<stop stop-color="#096DD9"/>
<stop offset="0.41" stop-color="#69C0FF"/>
<stop offset="0.72" stop-color="#69C0FF"/>
<stop offset="1" stop-color="#096DD9"/>
</linearGradient>
<linearGradient id="paint32_linear_11704_45497" x1="41.4989" y1="51.9755" x2="50.7312" y2="59.07" gradientUnits="userSpaceOnUse">
<stop stop-color="#096DD9"/>
<stop offset="0.41" stop-color="#69C0FF"/>
<stop offset="0.72" stop-color="#69C0FF"/>
<stop offset="1" stop-color="#096DD9"/>
</linearGradient>
<linearGradient id="paint33_linear_11704_45497" x1="39.0186" y1="55.2061" x2="48.2487" y2="62.3006" gradientUnits="userSpaceOnUse">
<stop stop-color="#096DD9"/>
<stop offset="0.41" stop-color="#69C0FF"/>
<stop offset="0.72" stop-color="#69C0FF"/>
<stop offset="1" stop-color="#096DD9"/>
</linearGradient>
</defs>
</svg>
