<svg width="47" height="47" viewBox="0 0 47 47" fill="none" xmlns="http://www.w3.org/2000/svg">
<g id="product_discovery">
<g id="Group 9869">
<g id="Frame" clip-path="url(#clip0_11744_43226)">
<path id="Vector" d="M5.68442 4.68348C3.44951 6.91844 1.92754 9.76594 1.31095 12.8659C0.694363 15.9659 1.01085 19.179 2.22041 22.0991C3.42996 25.0192 5.47826 27.515 8.10627 29.271C10.7343 31.027 13.824 31.9642 16.9847 31.9642C20.1453 31.9642 23.235 31.027 25.8631 29.271C28.4911 27.515 30.5394 25.0192 31.7489 22.0991C32.9585 19.179 33.275 15.9659 32.6584 12.8659C32.0418 9.76594 30.5198 6.91844 28.2849 4.68348C26.8009 3.19949 25.0392 2.02232 23.1003 1.21919C21.1614 0.416059 19.0833 0.00268555 16.9847 0.00268555C14.886 0.00268555 12.8079 0.416059 10.869 1.21919C8.9301 2.02232 7.16838 3.19949 5.68442 4.68348ZM26.1091 25.1081C24.3042 26.914 22.0043 28.1441 19.5003 28.6427C16.9963 29.1413 14.4006 28.8862 12.0416 27.9094C9.68267 26.9327 7.66637 25.2783 6.24775 23.1555C4.82912 21.0327 4.07192 18.5369 4.07192 15.9837C4.07192 13.4305 4.82912 10.9347 6.24775 8.81191C7.66637 6.68912 9.68267 5.03474 12.0416 4.05801C14.4006 3.08129 16.9963 2.82611 19.5003 3.32474C22.0043 3.82338 24.3042 5.05344 26.1091 6.85933C28.5281 9.27975 29.887 12.5617 29.887 15.9837C29.887 19.4057 28.5281 22.6877 26.1091 25.1081Z" fill="#3D7FFC"/>
<path id="Vector_2" d="M29.8363 25.3595L26.3594 28.8364L27.6632 30.1403L31.1402 26.6633L29.8363 25.3595Z" fill="#FECE4D"/>
<path id="Vector_3" d="M31.5747 26.2449L27.2285 30.5911L38.5286 41.8912L42.8748 37.545L31.5747 26.2449Z" fill="#C6DBFF"/>
<path id="Vector_4" d="M31.576 26.2408L30.707 27.1104L42.0111 38.4065L42.88 37.5369L31.576 26.2408Z" fill="#C6DBFF"/>
<path id="Vector_5" d="M39.8398 43.2003L41.1429 44.5033C41.7192 45.0795 42.5007 45.4031 43.3157 45.4031C44.1306 45.4031 44.9121 45.0795 45.4884 44.5033C46.0646 43.927 46.3882 43.1455 46.3882 42.3305C46.3882 41.5156 46.0646 40.7341 45.4884 40.1578L44.1854 38.8547L39.8398 43.2003Z" fill="#C6DBFF"/>
<path id="Vector_6" d="M42.8774 37.5496L38.5312 41.8958L39.8351 43.1996L44.1813 38.8534L42.8774 37.5496Z" fill="#C6DBFF"/>
<path id="Vector_7" d="M7.45358 6.42261C5.56224 8.31363 4.27414 10.723 3.75219 13.3462C3.23024 15.9693 3.49789 18.6883 4.52128 21.1592C5.54468 23.6302 7.27785 25.7422 9.50162 27.2282C11.7254 28.7141 14.3398 29.5073 17.0144 29.5073C19.6889 29.5073 22.3034 28.7141 24.5272 27.2282C26.7509 25.7422 28.4841 23.6302 29.5075 21.1592C30.5309 18.6883 30.7985 15.9693 30.2766 13.3462C29.7546 10.723 28.4665 8.31363 26.5752 6.42261C24.0393 3.88722 20.6003 2.46289 17.0144 2.46289C13.4285 2.46289 9.98942 3.88722 7.45358 6.42261ZM26.1388 25.1078C24.3339 26.9137 22.034 28.1438 19.53 28.6424C17.026 29.141 14.4303 28.8859 12.0714 27.9091C9.7124 26.9324 7.69608 25.278 6.27745 23.1552C4.85883 21.0324 4.10162 18.5366 4.10162 15.9834C4.10162 13.4302 4.85883 10.9344 6.27745 8.8116C7.69608 6.68881 9.7124 5.03442 12.0714 4.0577C14.4303 3.08097 17.026 2.82579 19.53 3.32443C22.034 3.82307 24.3339 5.05312 26.1388 6.85901C28.5537 9.2835 29.9071 12.5678 29.9013 15.9898C29.8956 19.4118 28.5312 22.6915 26.108 25.1078H26.1388Z" fill="#3D7FFC"/>
</g>
</g>
<g id="Group 1142934">
<path id="Vector_8" d="M24.307 11.9135L17.9988 14.795C17.886 14.8458 17.8145 14.9587 17.8145 15.081V23.7511C17.8145 23.9783 18.0513 24.1309 18.2595 24.0356L24.5677 21.154C24.6805 21.1016 24.7521 20.9887 24.7521 20.8663V12.1963C24.7521 11.9675 24.5168 11.8165 24.307 11.9119V11.9135Z" fill="#FECE4D"/>
<path id="Vector_9" d="M22.8631 9.74523L16.9189 7.02742C16.8362 6.99086 16.7409 6.99086 16.6598 7.02742L10.7156 9.74523C10.4724 9.85649 10.4724 10.2045 10.7156 10.3142L16.6598 13.032C16.7409 13.0702 16.8362 13.0702 16.9189 13.032L22.8631 10.3142C23.1063 10.2045 23.1063 9.8549 22.8631 9.74523Z" fill="#FECE4D"/>
<path id="Vector_10" d="M15.5817 14.7932L9.27193 11.9117C9.06531 11.8163 8.83008 11.9689 8.83008 12.1962V20.8662C8.83008 20.9886 8.90003 21.0998 9.01288 21.1539L15.3211 24.0354C15.5293 24.1307 15.7661 23.9782 15.7661 23.7509V15.0809C15.7661 14.9569 15.6962 14.8457 15.5833 14.7948L15.5817 14.7932Z" fill="#FECE4D"/>
</g>
</g>
<defs>
<clipPath id="clip0_11744_43226">
<rect width="46" height="46" fill="white" transform="translate(1)"/>
</clipPath>
</defs>
</svg>
