<svg width="78" height="77" viewBox="0 0 78 77" fill="none" xmlns="http://www.w3.org/2000/svg">
<path d="M62.3268 42.7427H16.8945V40.1806C16.8945 38.459 18.2901 37.0635 20.0115 37.0635H59.2097C60.9313 37.0635 62.3268 38.459 62.3268 40.1806V42.7427Z" fill="#DFDEDF"/>
<path d="M59.1618 72.4573H20.0596C18.3116 72.4573 16.8945 71.0403 16.8945 69.2923V42.7441H62.3268V69.2923C62.3268 71.0403 60.91 72.4573 59.1618 72.4573Z" fill="white"/>
<path d="M61.7645 42.2288V39.9311C61.7645 38.5746 60.665 37.4749 59.3085 37.4749H19.9864C18.6299 37.4749 17.5304 38.5746 17.5304 39.9311V42.2288H61.7645ZM61.7645 69.6204V43.2592H17.5304V69.6204C17.5304 70.9769 18.6299 72.0764 19.9864 72.0764H59.3085C60.665 72.0764 61.7645 70.9769 61.7645 69.6204ZM20.217 36.4447L20.37 34.7744L19.7204 36.458C19.8085 36.4513 19.8965 36.4447 19.9864 36.4447H20.217ZM58.8083 33.629L59.0351 36.4447H59.3085C59.4548 36.4447 59.598 36.4566 59.7396 36.4741L58.8083 33.629ZM61.9273 37.6371C62.4656 38.2509 62.7949 39.0524 62.7949 39.9311V69.6204C62.7949 71.5429 61.2308 73.1068 59.3085 73.1068H19.9864C18.0641 73.1068 16.5 71.5429 16.5 69.6204V39.9311C16.5 38.9994 16.8695 38.154 17.4669 37.5277L20.9427 28.5188L22.4583 11.9622L24.1683 12.1187L22.8026 27.0365L23.2837 27.222L22.6308 28.9143L21.9415 36.4447H57.3124L55.3496 12.0774L57.061 11.9395L58.2188 26.3106L58.2195 26.3104L61.9273 37.6371ZM20.3259 39.1544C20.7556 39.1544 21.1039 39.5027 21.1039 39.9323C21.1039 40.362 20.7556 40.7103 20.3259 40.7103C19.8963 40.7103 19.548 40.362 19.548 39.9323C19.548 39.5027 19.8963 39.1544 20.3259 39.1544ZM22.9857 39.1544C23.4154 39.1544 23.7637 39.5027 23.7637 39.9323C23.7637 40.362 23.4154 40.7103 22.9857 40.7103C22.556 40.7103 22.2077 40.362 22.2077 39.9323C22.2077 39.5027 22.556 39.1544 22.9857 39.1544ZM25.5617 39.1544C25.9914 39.1544 26.3397 39.5027 26.3397 39.9323C26.3397 40.362 25.9914 40.7103 25.5617 40.7103C25.132 40.7103 24.7837 40.362 24.7837 39.9323C24.7837 39.5027 25.132 39.1544 25.5617 39.1544Z" fill="black"/>
<path d="M23.0126 56.0365C23.1462 55.8819 23.2166 55.6786 23.2166 55.4263C23.2166 55.1739 23.1462 54.9788 23.0126 54.8241C22.8719 54.6695 22.6748 54.5963 22.4216 54.5963H21.1834V56.2642H22.4216C22.6748 56.2642 22.8719 56.1909 23.0126 56.0365ZM22.4216 53.5957C22.9562 53.5957 23.3784 53.7585 23.6949 54.0919C24.0115 54.4254 24.1663 54.8728 24.1663 55.4263C24.1663 55.9875 24.0115 56.4269 23.7021 56.7604C23.3855 57.0942 22.9634 57.2649 22.4216 57.2649H21.1834V59.5099H20.2266V53.5957H22.4216ZM27.5835 57.2227V55.4975H28.614V59.3928H27.5835V59.0416C27.2712 59.3537 26.8654 59.5098 26.358 59.5098C25.8896 59.5098 25.5149 59.3537 25.2261 59.0494C24.9373 58.745 24.7968 58.3546 24.7968 57.8707V55.4975H25.8272V57.652C25.8272 57.9253 25.8974 58.1517 26.0457 58.3157C26.1862 58.4795 26.3736 58.5654 26.6155 58.5654C27.2635 58.5654 27.5835 58.1204 27.5835 57.2227ZM32.6337 58.2922C32.8366 58.0814 32.9381 57.8003 32.9381 57.4491C32.9381 57.0979 32.8366 56.809 32.6337 56.5983C32.4228 56.3874 32.1653 56.2782 31.8452 56.2782C31.5564 56.2782 31.2989 56.3874 31.0725 56.6061C30.8461 56.8247 30.7369 57.1055 30.7369 57.4491C30.7369 57.7926 30.8461 58.0738 31.0725 58.2843C31.2989 58.5031 31.5564 58.6123 31.8452 58.6123C32.1653 58.6123 32.4228 58.5031 32.6337 58.2922ZM32.0248 55.3805C32.5323 55.3805 32.9849 55.5758 33.3676 55.9661C33.75 56.3641 33.9372 56.8558 33.9372 57.4491C33.9372 58.0423 33.75 58.5342 33.3676 58.9244C32.9849 59.3149 32.54 59.5098 32.0248 59.5098C31.5174 59.5098 31.0881 59.3693 30.7369 59.0885V61.2511H29.7065V55.4975H30.7369V55.8098C31.0803 55.521 31.5096 55.3805 32.0248 55.3805ZM37.6449 58.2922C37.8478 58.0814 37.9492 57.8003 37.9492 57.4491C37.9492 57.0979 37.8478 56.809 37.6449 56.5983C37.434 56.3874 37.1765 56.2782 36.8564 56.2782C36.5676 56.2782 36.3101 56.3874 36.0837 56.6061C35.8573 56.8247 35.7479 57.1055 35.7479 57.4491C35.7479 57.7926 35.8573 58.0738 36.0837 58.2843C36.3101 58.5031 36.5676 58.6123 36.8564 58.6123C37.1765 58.6123 37.434 58.5031 37.6449 58.2922ZM37.0358 55.3805C37.5432 55.3805 37.9961 55.5758 38.3787 55.9661C38.761 56.3641 38.9484 56.8558 38.9484 57.4491C38.9484 58.0423 38.761 58.5342 38.3787 58.9244C37.9961 59.3149 37.5512 59.5098 37.0358 59.5098C36.5285 59.5098 36.0992 59.3693 35.7479 59.0885V61.2511H34.7176V55.4975H35.7479V55.8098C36.0915 55.521 36.5208 55.3805 37.0358 55.3805ZM40.4702 56.9963H42.3515C42.2891 56.7544 42.1719 56.575 42.0081 56.4576C41.844 56.3406 41.6491 56.2782 41.4303 56.2782C41.2198 56.2782 41.0167 56.3406 40.8371 56.4656C40.6498 56.5905 40.5248 56.7699 40.4702 56.9963ZM41.4303 55.3805C41.9612 55.3805 42.4218 55.5679 42.8043 55.9348C43.1868 56.3095 43.3819 56.7855 43.4054 57.371V57.7224H40.4391C40.4937 57.9955 40.6107 58.2139 40.7905 58.3781C40.9699 58.542 41.1728 58.6277 41.4147 58.6277C41.8598 58.6277 42.1799 58.4561 42.3828 58.1126L43.304 58.3078C43.1399 58.706 42.8902 59.0027 42.5623 59.2056C42.2345 59.4085 41.852 59.5098 41.4147 59.5098C40.8527 59.5098 40.3765 59.3149 39.9941 58.9324C39.6116 58.5499 39.4163 58.0503 39.4163 57.4491C39.4163 56.8482 39.6116 56.3486 40.0018 55.9581C40.3843 55.5758 40.8606 55.3805 41.4303 55.3805ZM46.2465 58.5499C46.4416 58.5499 46.6602 58.4873 46.8944 58.3625L47.191 59.2211C46.8319 59.4163 46.4962 59.5099 46.1761 59.5099C45.7 59.5099 45.3253 59.3772 45.052 59.1195C44.779 58.8622 44.6462 58.4795 44.6462 57.9565V56.3406H43.8109V55.4975H44.6462V54.319H45.6767V55.4975H46.949V56.3406H45.6767V57.8784C45.6767 58.3235 45.864 58.5499 46.2465 58.5499ZM48.4083 56.9963H50.2896C50.2272 56.7544 50.11 56.575 49.9462 56.4576C49.7822 56.3406 49.5872 56.2782 49.3684 56.2782C49.1579 56.2782 48.9548 56.3406 48.7753 56.4656C48.5879 56.5905 48.463 56.7699 48.4083 56.9963ZM49.3684 55.3805C49.8994 55.3805 50.36 55.5679 50.7424 55.9348C51.1249 56.3095 51.32 56.7855 51.3435 57.371V57.7224H48.3772C48.4318 57.9955 48.5489 58.2139 48.7286 58.3781C48.908 58.542 49.1109 58.6277 49.3529 58.6277C49.7979 58.6277 50.118 58.4561 50.3209 58.1126L51.2419 58.3078C51.0781 58.706 50.8283 59.0027 50.5005 59.2056C50.1726 59.4085 49.7901 59.5098 49.3529 59.5098C48.7908 59.5098 48.3147 59.3149 47.9322 58.9324C47.5497 58.5499 47.3544 58.0503 47.3544 57.4491C47.3544 56.8482 47.5497 56.3486 47.94 55.9581C48.3224 55.5758 48.7988 55.3805 49.3684 55.3805ZM53.037 56.9963H54.9182C54.8558 56.7544 54.7387 56.575 54.5748 56.4576C54.4108 56.3406 54.2159 56.2782 53.997 56.2782C53.7865 56.2782 53.5835 56.3406 53.4039 56.4656C53.2165 56.5905 53.0916 56.7699 53.037 56.9963ZM53.997 55.3805C54.528 55.3805 54.9886 55.5679 55.3711 55.9348C55.7535 56.3095 55.9487 56.7855 55.9722 57.371V57.7224H53.0059C53.0605 57.9955 53.1775 58.2139 53.3572 58.3781C53.5366 58.542 53.7395 58.6277 53.9815 58.6277C54.4265 58.6277 54.7466 58.4561 54.9495 58.1126L55.8707 58.3078C55.7067 58.706 55.457 59.0027 55.1291 59.2056C54.8012 59.4085 54.4188 59.5098 53.9815 59.5098C53.4194 59.5098 52.9433 59.3149 52.5608 58.9324C52.1783 58.5499 51.983 58.0503 51.983 57.4491C51.983 56.8482 52.1783 56.3486 52.5686 55.9581C52.9511 55.5758 53.4274 55.3805 53.997 55.3805ZM59.1801 55.4429C59.2973 55.4429 59.391 55.4507 59.4535 55.474L59.3988 56.4656H59.1725C58.2436 56.4656 57.7828 57.0198 57.7828 58.1362V59.3928H56.7525V55.4975H57.7828V56.2079C58.1341 55.7004 58.6025 55.4429 59.1801 55.4429Z" fill="black"/>
<path d="M54.6709 27.9864L60.2301 25.3026V22.6189L47.3863 16.4845L60.2301 9.87098V7.28317L54.8626 4.79102L39.6547 12.3629L24.1911 4.79102L19.207 7.47486V9.77513L31.2839 16.3886L19.207 22.5231V25.3026L24.3828 27.9864L39.7186 20.1268L54.6709 27.9864Z" fill="#00D8A2"/>
<path d="M55.3701 26.8915V25.7356L59.5547 23.5671V24.8655L55.3701 26.8915ZM19.546 23.5367L23.5895 25.858V26.7821L19.546 24.7364V23.5367ZM40.2581 18.6552L54.1681 25.528V26.9099L40.2581 19.784V18.6552ZM24.7916 25.7291L39.056 18.6566V19.7836L24.7916 27.0005V25.7291ZM34.8918 14.1725L20.4569 7.2033L24.1955 5.30322L39.657 13.3186L54.8596 5.30666L58.7303 7.2892L44.6536 14.3734C44.0908 14.6566 44.0917 15.4604 44.655 15.7424L58.5865 22.715L54.9755 24.5861L39.657 16.7372L24.0675 24.7464L20.507 22.7023L34.8998 15.548C35.47 15.2646 35.4653 14.4494 34.8918 14.1725ZM19.7257 9.56453V8.29612L33.1885 15.0129L31.8275 15.5566L19.7257 9.56453ZM47.3316 15.6313C47.3132 15.6201 46.0422 15.0205 46.0422 15.0205L59.5547 8.21998V9.494L47.3316 15.6313ZM48.6841 16.2974L60.5607 10.334C60.681 10.2736 60.757 10.1504 60.757 10.0159V7.19426C60.757 7.06062 60.6821 6.93837 60.5633 6.87743L55.0236 4.04006C54.9222 3.98816 54.8019 3.98798 54.7003 4.03952L39.8166 11.5921C39.7163 11.6431 39.5976 11.6436 39.4967 11.5932L24.3509 4.03735C24.2501 3.98707 24.1313 3.98762 24.0308 4.03861L18.5385 6.82969C18.419 6.89045 18.3438 7.01306 18.3438 7.14706V10.0143C18.3438 10.1497 18.4206 10.2734 18.5421 10.3335L30.4687 16.2259L18.5973 22.1204C18.4785 22.1795 18.4022 22.2998 18.3998 22.4327L18.3479 25.2522C18.3454 25.3887 18.4213 25.5146 18.543 25.5762L24.2462 28.4617C24.3469 28.5125 24.4657 28.5127 24.5666 28.4621L39.4964 20.9654C39.5973 20.9146 39.7165 20.9149 39.8174 20.9661L54.561 28.4626C54.6601 28.5129 54.7771 28.5142 54.8773 28.4657L60.556 25.7164C60.6788 25.6569 60.757 25.5325 60.757 25.3961V22.4503C60.757 22.3144 60.6797 22.1906 60.5578 22.1307L48.6841 16.2974Z" fill="black"/>
</svg>
