<svg width="47" height="47" viewBox="0 0 47 47" fill="none" xmlns="http://www.w3.org/2000/svg">
<g id="ratings" clip-path="url(#clip0_11744_43240)">
<g id="Group 111711">
<g id="Frame 110785">
<rect id="Rectangle 7218" x="2" y="28.1401" width="11.8465" height="19.0139" rx="1.14083" fill="#9FC0FF"/>
<rect id="Rectangle 7219" x="17.2148" y="18.6333" width="11.8465" height="28.5208" rx="1.14083" fill="#3D7FFC"/>
<rect id="Rectangle 7220" x="32.4297" y="34.605" width="11.8465" height="12.5492" rx="1.14083" fill="#C6DBFF"/>
</g>
<g id="Group 110784">
<g id="Group 8744">
<path id="star_12" d="M29.3581 4.29884H25.7728V4.2922C25.5739 4.28975 25.3807 4.23059 25.2195 4.12229C25.0584 4.01399 24.9372 3.86224 24.8726 3.68755C24.8615 3.6609 24.8521 3.63356 24.8444 3.60591L23.7922 0.470921L23.7652 0.392342C23.7202 0.273806 23.6354 0.172029 23.5233 0.101498C23.4112 0.0309678 23.2778 -0.00455623 23.1425 0.000468279C23.0073 0.00549278 22.8773 0.0509452 22.7717 0.129562C22.666 0.208179 22.5903 0.315743 22.5555 0.437245L21.491 3.59418C21.4911 3.59592 21.4911 3.59805 21.491 3.59979C21.4825 3.63283 21.4716 3.66506 21.4583 3.69674C21.3923 3.86994 21.2705 4.02014 21.1095 4.12688C20.9484 4.23362 20.7559 4.29153 20.5581 4.29322V4.29986H16.9695C16.8132 4.325 16.6718 4.40124 16.5707 4.51467C16.4696 4.62811 16.4155 4.77105 16.4181 4.91828C16.4173 5.01338 16.4397 5.10737 16.4836 5.19331C16.5274 5.27925 16.5916 5.35503 16.6712 5.41476L16.7005 5.4367L19.4868 7.40627C19.6503 7.51687 19.7753 7.6697 19.8463 7.8456C19.9173 8.0215 19.9312 8.21301 19.8863 8.39616C19.8741 8.44907 19.8568 8.50078 19.8345 8.55077L18.7778 11.7026V11.7138L18.77 11.7368C18.7528 11.795 18.7441 11.8555 18.7441 11.9159C18.7415 11.9963 18.7562 12.076 18.7872 12.1511C18.8182 12.2263 18.8649 12.2954 18.9246 12.3537C18.9844 12.412 19.0559 12.4585 19.1352 12.4909C19.2145 12.5234 19.3 12.5409 19.3866 12.5425C19.4992 12.543 19.6098 12.5152 19.7062 12.4613L19.8188 12.3838L22.5848 10.4351L22.6456 10.3913C22.7989 10.2926 22.9807 10.2388 23.1673 10.2372C23.3539 10.2355 23.5367 10.2856 23.6921 10.3816C23.7263 10.4017 23.7587 10.4243 23.7889 10.4494L26.5391 12.3909L26.6168 12.4466C26.7179 12.5055 26.835 12.5362 26.9544 12.5353C27.0409 12.5334 27.1262 12.5159 27.2053 12.4833C27.2844 12.4507 27.3557 12.4038 27.4153 12.3455C27.4749 12.2873 27.5216 12.2185 27.5525 12.1435C27.5835 12.0684 27.5982 11.9886 27.5958 11.9082C27.5962 11.8452 27.5863 11.7828 27.5666 11.7225C27.5666 11.7131 27.5598 11.7023 27.5564 11.6919L26.4953 8.52883C26.4777 8.48782 26.4637 8.44543 26.4536 8.40229C26.4343 8.32839 26.4245 8.25281 26.4244 8.17676C26.4233 8.03751 26.4553 7.89959 26.5181 7.77315C26.581 7.64671 26.6731 7.53466 26.7878 7.44505C26.8115 7.42624 26.8362 7.40973 26.861 7.39301L29.6169 5.44946L29.7002 5.38874C29.7719 5.32913 29.8292 5.25575 29.868 5.17392C29.9068 5.09209 29.9263 5.00361 29.9252 4.9142C29.9267 4.7653 29.87 4.62067 29.7658 4.50753C29.6615 4.39439 29.5167 4.32054 29.3581 4.29884Z" fill="#FECE4D"/>
</g>
</g>
</g>
</g>
<defs>
<clipPath id="clip0_11744_43240">
<rect width="47" height="47" fill="white"/>
</clipPath>
</defs>
</svg>
