<svg width="47" height="47" viewBox="0 0 47 47" fill="none" xmlns="http://www.w3.org/2000/svg">
<g id="sales_market_share" clip-path="url(#clip0_11737_43034)">
<g id="Icons" clip-path="url(#clip1_11737_43034)">
<rect id="Rectangle 8689" y="18" width="7" height="15" fill="#3D7FFC"/>
<rect id="Rectangle 8690" x="9" y="8" width="7" height="25" fill="#3D7FFC"/>
<path id="Subtract" fill-rule="evenodd" clip-rule="evenodd" d="M25 0H18V20.4849C19.3308 17.5753 21.8826 15.341 25 14.4373V0ZM20.3103 33C19.353 32.0572 18.566 30.9418 18 29.7043V33H20.3103Z" fill="#3D7FFC"/>
<path id="Subtract_2" fill-rule="evenodd" clip-rule="evenodd" d="M34 8H27V14.0533C27.3601 14.018 27.7252 14 28.0946 14C30.265 14 32.2899 14.6232 34 15.7005V8Z" fill="#3D7FFC"/>
<path id="Vector" d="M37.5014 33.8049L34.293 36.4288L35.5818 38.0047L38.7902 35.3808L37.5014 33.8049Z" fill="#3D7FFC"/>
<path id="Vector_2" d="M35.1484 38.3078L39.1454 35.0391L45.6571 42.5715C46.5598 43.6753 46.3968 45.3017 45.2932 46.2044C44.1894 47.107 42.563 46.944 41.6603 45.8403L35.1484 38.3078Z" fill="#C6DBFF"/>
<path id="Vector_3" d="M19.2406 14.9632C17.2323 16.6057 15.7563 18.8066 14.999 21.2879C14.2417 23.7691 14.2372 26.4192 14.9861 28.903C15.7349 31.3869 17.2034 33.5927 19.206 35.242C21.2085 36.8912 23.6553 37.9095 26.2366 38.1682C28.8178 38.427 31.4179 37.9144 33.7079 36.6954C35.9979 35.4763 37.8751 33.6057 39.1019 31.3199C40.3287 29.034 40.8502 26.4358 40.6004 23.8536C40.3505 21.2714 39.3406 18.8212 37.6982 16.8131C36.6078 15.4796 35.2653 14.3741 33.7475 13.5594C32.2298 12.7448 30.5665 12.2371 28.8525 12.0654C27.1385 11.8936 25.4075 12.0611 23.7583 12.5583C22.109 13.0556 20.5739 13.8728 19.2406 14.9632ZM34.0187 33.0335C32.4527 34.3149 30.5418 35.1031 28.5277 35.2984C26.5138 35.4938 24.4871 35.0874 22.7039 34.1308C20.921 33.1742 19.4616 31.7101 18.5106 29.924C17.5598 28.1379 17.1599 26.1099 17.3617 24.0965C17.5635 22.0831 18.3578 20.1747 19.6442 18.6129C20.9308 17.051 22.6515 15.9057 24.5889 15.322C26.5264 14.7382 28.5935 14.7421 30.5286 15.3331C32.4638 15.9243 34.1802 17.076 35.4609 18.6427C37.1771 20.7426 37.9894 23.4381 37.7189 26.1366C37.4484 28.8352 36.1175 31.3159 34.0187 33.0335Z" fill="#FECE4D"/>
<path id="Union" d="M28.2766 18L26.6686 18.0352C26.6153 18.0366 26.5647 18.059 26.5278 18.0975C26.4909 18.1361 26.4708 18.1877 26.4718 18.2411L26.4959 19.3448C26.2202 19.3925 25.9587 19.4596 25.7115 19.5464C25.2019 19.7252 24.7633 19.9647 24.401 20.2669C24.0463 20.5566 23.7608 20.922 23.5652 21.3363C23.3729 21.7476 23.282 22.1947 23.2926 22.6775C23.3024 23.1266 23.3834 23.5226 23.5381 23.8651C23.6973 24.2149 23.9354 24.523 24.2337 24.7651C24.5458 25.0245 24.9402 25.2457 25.4171 25.4286C25.894 25.6116 26.4616 25.7696 27.12 25.9027C27.6977 26.0062 28.1853 26.1068 28.5794 26.2066C28.9735 26.3064 29.2962 26.4179 29.5388 26.5444C29.7814 26.671 29.9598 26.8144 30.072 26.9797C30.1841 27.1449 30.2425 27.345 30.2477 27.5827C30.2556 27.8028 30.2032 28.0209 30.0963 28.2135C29.983 28.4087 29.8248 28.5742 29.635 28.6962C29.4339 28.8298 29.1895 28.9333 28.9038 29.0093C28.5939 29.0912 28.2751 29.1346 27.9546 29.1385C27.6035 29.1475 27.253 29.1074 26.913 29.0192C26.5978 28.9391 26.3011 28.7982 26.0397 28.6045C25.777 28.4083 25.5588 28.1588 25.3992 27.8722C25.2276 27.576 25.1218 27.2243 25.0768 26.8173L23 26.8628C23.0318 27.4973 23.1632 28.0791 23.3889 28.6052C23.6075 29.1231 23.9394 29.5853 24.3602 29.9576C24.7813 30.3307 25.2984 30.6192 25.9171 30.8198C26.1771 30.9042 26.4552 30.9692 26.7513 31.0148L26.7764 32.1596C26.7777 32.213 26.8001 32.2636 26.8386 32.3005C26.8772 32.3375 26.9287 32.3576 26.9821 32.3566L28.5909 32.3214C28.6443 32.3201 28.6949 32.2978 28.7318 32.2592C28.7687 32.2206 28.7889 32.169 28.7878 32.1156L28.7643 31.0421C29.1338 30.9931 29.4834 30.9097 29.813 30.7919C30.3421 30.6027 30.7967 30.3466 31.1769 30.0235C31.5487 29.7077 31.8481 29.3153 32.0546 28.8731C32.2617 28.4303 32.3595 27.9444 32.3479 27.4153C32.3379 26.9661 32.2622 26.5752 32.1209 26.2428C31.9888 25.9224 31.7968 25.6303 31.5552 25.3821C31.3149 25.137 31.0389 24.9297 30.7367 24.7673C30.4217 24.5979 30.0922 24.457 29.7522 24.3463C29.4027 24.2325 29.0475 24.1369 28.688 24.0599C28.3251 23.98 27.9728 23.9103 27.6281 23.8481C27.2344 23.774 26.8943 23.6983 26.6167 23.6196C26.3391 23.5409 26.1099 23.4499 25.9322 23.3507C25.7522 23.2513 25.6208 23.1405 25.5381 23.0184C25.4529 22.8907 25.4074 22.7407 25.4073 22.5872C25.3984 22.1794 25.5749 21.8501 25.9385 21.6098C26.3022 21.3696 26.831 21.2389 27.5247 21.2238C28.9509 21.1927 29.7532 21.8286 29.9316 23.1313L31.9864 23.0864C31.9577 22.4724 31.8269 21.9226 31.5918 21.4423C31.3667 20.9729 31.0414 20.5586 30.6389 20.2286C30.2396 19.9015 29.7674 19.6563 29.2219 19.4875C28.9932 19.4174 28.7549 19.3633 28.507 19.3251L28.4823 18.1971C28.481 18.1437 28.4587 18.093 28.4201 18.0561C28.3816 18.0191 28.33 17.999 28.2766 18Z" fill="#FECE4D"/>
</g>
</g>
<defs>
<clipPath id="clip0_11737_43034">
<rect width="47" height="47" fill="white"/>
</clipPath>
<clipPath id="clip1_11737_43034">
<rect width="47" height="47" fill="white"/>
</clipPath>
</defs>
</svg>
