<svg width="47" height="47" viewBox="0 0 47 47" fill="none" xmlns="http://www.w3.org/2000/svg">
<g id="sales" clip-path="url(#clip0_11737_43124)">
<g id="Group 111719">
<g id="Group 111718">
<path id="Exclude" fill-rule="evenodd" clip-rule="evenodd" d="M15.6492 8.98291L10.6779 11.853L8.00391 21.4929L25.0869 11.63L15.6492 8.98291ZM15.6724 15.9315C16.7744 15.9315 17.6679 15.0381 17.6679 13.936C17.6679 12.8339 16.7744 11.9405 15.6724 11.9405C14.5703 11.9405 13.6769 12.8339 13.6769 13.936C13.6769 15.0381 14.5703 15.9315 15.6724 15.9315Z" fill="#9FC0FF"/>
<path id="Subtract" fill-rule="evenodd" clip-rule="evenodd" d="M14.8969 0.572121C17.0535 1.72783 18.3169 4.47066 16.8088 7.50957C16.4135 8.30627 16.6635 8.90656 17.078 9.90142C17.1363 10.0414 17.1978 10.1892 17.2613 10.3464C17.4877 10.9072 17.7512 11.6632 17.598 12.491C17.4363 13.3653 16.8611 14.0979 15.919 14.7447C15.4743 15.05 14.8663 14.9371 14.561 14.4924C14.2557 14.0477 14.3686 13.4396 14.8133 13.1343C15.5035 12.6605 15.6425 12.323 15.6772 12.1357C15.7204 11.9018 15.6625 11.6044 15.4499 11.0777C15.4073 10.9721 15.3565 10.8561 15.3015 10.7306C14.8875 9.78561 14.2363 8.29912 15.059 6.64121C16.0861 4.57151 15.2247 2.9641 13.9742 2.29392C13.3293 1.94831 12.5818 1.85137 11.8881 2.05705C11.2089 2.25842 10.4972 2.77508 9.95679 3.81431C9.70792 4.2929 9.11819 4.47913 8.6396 4.23026C8.161 3.9814 7.97477 3.39167 8.22364 2.91308C8.98032 1.45792 10.0895 0.552766 11.3328 0.184163C12.5616 -0.18013 13.8383 0.00478388 14.8969 0.572121Z" fill="#3D7FFC"/>
</g>
<path id="Exclude_2" fill-rule="evenodd" clip-rule="evenodd" d="M25.083 11.6365L8 21.4994L22.7985 47.1311L39.8815 37.2683L25.083 11.6365ZM26.2577 26.9153C27.7695 26.0519 29.4188 26.4656 30.3069 28.0207C31.195 29.5757 30.7133 31.2064 29.2015 32.0698C27.6897 32.9333 26.0404 32.5195 25.1523 30.9645C24.2642 29.4095 24.7459 27.7787 26.2577 26.9153ZM22.8264 21.9436L24.1426 21.9748L23.6478 35.4516L22.3172 35.4287L22.8264 21.9436ZM17.2583 25.3337C18.7701 24.4702 20.4194 24.884 21.3075 26.439C22.1956 27.994 21.7222 29.6392 20.2104 30.5026C18.713 31.3578 17.041 30.9379 16.153 29.3829C15.2649 27.8278 15.7609 26.1888 17.2583 25.3337ZM28.4285 30.7164C29.134 30.3135 29.2124 29.5814 28.793 28.847C28.3819 28.1271 27.7115 27.8226 27.006 28.2255C26.3148 28.6202 26.2365 29.3524 26.6477 30.0723C27.067 30.8066 27.7374 31.1111 28.4285 30.7164ZM19.4374 29.1492C20.1429 28.7463 20.2274 27.9915 19.8163 27.2716C19.3969 26.5373 18.7121 26.241 18.0066 26.6439C17.3155 27.0386 17.2516 27.7625 17.6709 28.4968C18.0821 29.2167 18.7463 29.5439 19.4374 29.1492Z" fill="#9FC0FF"/>
</g>
</g>
<defs>
<clipPath id="clip0_11737_43124">
<rect width="47" height="47" fill="white"/>
</clipPath>
</defs>
</svg>
