<svg width="78" height="77" viewBox="0 0 78 77" fill="none" xmlns="http://www.w3.org/2000/svg">
<path d="M47.9362 47.0423C46.8311 47.0087 45.7538 47.392 44.9183 48.1161C44.0828 48.8402 43.5502 49.8521 43.4264 50.9508C43.4209 50.9721 43.4204 50.9943 43.425 51.0158C43.4296 51.0373 43.4391 51.0574 43.4529 51.0746C43.4666 51.0918 43.4842 51.1055 43.5041 51.1147C43.5241 51.1239 43.5459 51.1283 43.5679 51.1276H52.3222C52.3424 51.1278 52.3623 51.1236 52.3808 51.1155C52.3992 51.1073 52.4157 51.0952 52.4291 51.0802C52.4425 51.0651 52.4525 51.0473 52.4585 51.0281C52.4644 51.0088 52.4662 50.9885 52.4637 50.9685C52.3776 49.8499 51.854 48.8104 51.0065 48.0753C50.1589 47.3403 49.0557 46.9691 47.9362 47.0423Z" fill="#5FBB49"/>
<path d="M66.6999 17.6836L48.13 38.5349C48.077 38.5922 48.0128 38.6379 47.9412 38.6692C47.8697 38.7005 47.7925 38.7167 47.7144 38.7167C47.6364 38.7167 47.5591 38.7005 47.4876 38.6692C47.4161 38.6379 47.3518 38.5922 47.2988 38.5349L37.8194 28.7548C37.739 28.6544 37.6952 28.5296 37.6952 28.401C37.6952 28.2725 37.739 28.1477 37.8194 28.0473L40.9497 24.0327C41.0021 23.9597 41.0711 23.9002 41.1511 23.8591C41.2311 23.8181 41.3196 23.7967 41.4095 23.7967C41.4994 23.7967 41.588 23.8181 41.668 23.8591C41.7479 23.9002 41.817 23.9597 41.8693 24.0327L47.175 29.9043C47.2281 29.9675 47.2944 30.0184 47.3693 30.0532C47.4441 30.0881 47.5257 30.1062 47.6083 30.1062C47.6909 30.1062 47.7725 30.0881 47.8473 30.0532C47.9222 30.0184 47.9885 29.9675 48.0416 29.9043L62.8267 9.63668C62.8678 9.57678 62.8922 9.50696 62.8972 9.43448C62.9022 9.36199 62.8877 9.28949 62.8552 9.2245C62.8227 9.15951 62.7734 9.10442 62.7124 9.06493C62.6514 9.02545 62.581 9.00303 62.5084 9H10.4421C10.3249 9 10.2124 9.04658 10.1295 9.1295C10.0466 9.21242 10 9.32488 10 9.44214V68.6887C10 68.806 10.0466 68.9184 10.1295 69.0013C10.2124 69.0843 10.3249 69.1308 10.4421 69.1308H67.0359C67.1531 69.1308 67.2656 69.0843 67.3485 69.0013C67.4314 68.9184 67.478 68.806 67.478 68.6887V17.9489C67.5132 17.8457 67.5059 17.7328 67.4578 17.6349C67.4098 17.5371 67.3248 17.4623 67.2216 17.4272C67.1184 17.392 67.0054 17.3992 66.9076 17.4473C66.8098 17.4954 66.735 17.5804 66.6999 17.6836ZM26.0231 62.5341C22.3079 62.7214 18.6661 61.4524 15.8716 58.997C15.7833 58.8969 15.7346 58.768 15.7346 58.6345C15.7346 58.501 15.7833 58.3721 15.8716 58.2719L18.0823 55.177C18.1188 55.1136 18.1676 55.0581 18.2259 55.0139C18.2841 54.9697 18.3507 54.9375 18.4215 54.9194C18.4924 54.9013 18.5662 54.8975 18.6385 54.9083C18.7109 54.9191 18.7803 54.9443 18.8428 54.9824C20.8623 56.8547 23.5168 57.8912 26.2707 57.8828C29.1711 57.8828 30.586 56.5387 30.586 55.1239C30.586 50.7379 16.2961 53.7444 16.2961 44.4065C16.2961 40.2857 19.8332 36.8547 25.7048 36.8547C29.0744 36.7349 32.3731 37.8408 34.9897 39.9674C35.088 40.0695 35.143 40.2058 35.143 40.3476C35.143 40.4894 35.088 40.6257 34.9897 40.7279L32.8143 43.7521C32.7694 43.8122 32.7126 43.8625 32.6475 43.8998C32.5823 43.9371 32.5102 43.9607 32.4356 43.969C32.361 43.9772 32.2855 43.9701 32.2137 43.948C32.142 43.9259 32.0755 43.8893 32.0185 43.8405C30.0892 42.3071 27.6916 41.4829 25.2273 41.506C22.9635 41.506 21.6901 42.5141 21.6901 43.9997C21.6901 47.9436 35.9447 45.3084 35.9447 54.611C35.9447 59.1031 32.7082 62.5341 26.0054 62.5341H26.0231ZM57.185 53.9213C57.1875 53.987 57.1764 54.0525 57.1524 54.1137C57.1284 54.1749 57.092 54.2305 57.0455 54.277C56.999 54.3234 56.9434 54.3598 56.8822 54.3838C56.821 54.4078 56.7555 54.419 56.6898 54.4165H43.6025C43.5816 54.4187 43.5613 54.425 43.5428 54.4351C43.5243 54.4452 43.508 54.4589 43.4948 54.4753C43.4817 54.4918 43.4719 54.5107 43.4661 54.5309C43.4603 54.5512 43.4586 54.5724 43.461 54.5933C43.6733 55.8163 44.3355 56.9155 45.3173 57.6749C46.2992 58.4342 47.5297 58.7986 48.7667 58.6964C50.39 58.662 51.9662 58.1448 53.2942 57.2108C53.346 57.1673 53.4065 57.1354 53.4716 57.1171C53.5367 57.0987 53.6049 57.0945 53.6718 57.1045C53.7387 57.1145 53.8027 57.1386 53.8595 57.1753C53.9164 57.2119 53.9648 57.2602 54.0016 57.3169L55.5933 59.6337C55.6597 59.7366 55.6855 59.8604 55.6659 59.9813C55.6463 60.1021 55.5827 60.2114 55.4872 60.2881C53.3859 61.8215 50.8367 62.6174 48.2361 62.5518C46.9371 62.6243 45.6372 62.4245 44.4198 61.9652C43.2025 61.506 42.0945 60.7973 41.1671 59.8849C40.2396 58.9724 39.513 57.8761 39.034 56.6664C38.5549 55.4567 38.334 54.1602 38.3853 52.8601C38.3492 51.5912 38.5708 50.3282 39.0366 49.1474C39.5025 47.9665 40.2029 46.8923 41.0955 45.9898C41.9881 45.0872 43.0545 44.375 44.2301 43.8962C45.4058 43.4173 46.6663 43.1818 47.9355 43.2038C53.4357 43.2038 57.1673 47.3246 57.1673 53.3553L57.185 53.9213Z" fill="#5FBB49"/>
</svg>
