<svg width="47" height="47" viewBox="0 0 47 47" fill="none" xmlns="http://www.w3.org/2000/svg">
<g id="sets_referral_headers" clip-path="url(#clip0_11744_43189)">
<g id="Group 1142915">
<g id="Group 1142770">
<path id="Exclude" fill-rule="evenodd" clip-rule="evenodd" d="M22.05 0H41.45C41.9784 0 42.5 0.42 42.5 1.05V19.95C42.5 20.4716 41.9784 21 41.45 21H22.05C21.42 21 21 20.4716 21 19.95V1.05C21 0.42 21.42 0 22.05 0ZM23 18.9H40.4V6.3H23V18.9ZM34.2207 3.06152C34.2207 3.71251 33.693 4.24023 33.042 4.24023C32.391 4.24023 31.8633 3.71251 31.8633 3.06152C31.8633 2.41054 32.391 1.88281 33.042 1.88281C33.693 1.88281 34.2207 2.41054 34.2207 3.06152ZM28.8037 4.24023C29.4547 4.24023 29.9824 3.71251 29.9824 3.06152C29.9824 2.41054 29.4547 1.88281 28.8037 1.88281C28.1527 1.88281 27.625 2.41054 27.625 3.06152C27.625 3.71251 28.1527 4.24023 28.8037 4.24023ZM25.7402 3.06152C25.7402 3.71251 25.2125 4.24023 24.5615 4.24023C23.9105 4.24023 23.3828 3.71251 23.3828 3.06152C23.3828 2.41054 23.9105 1.88281 24.5615 1.88281C25.2125 1.88281 25.7402 2.41054 25.7402 3.06152Z" fill="#C6DBFF"/>
</g>
<rect id="Rectangle 8688" x="26" y="11" width="12" height="3" rx="0.358868" fill="#FECE4D"/>
<g id="Group 1142768">
<path id="Exclude_2" fill-rule="evenodd" clip-rule="evenodd" d="M1.15 11H21.85C22.4287 11 23 11.46 23 12.15V32.85C23 33.4213 22.4287 34 21.85 34H1.15C0.46 34 0 33.4213 0 32.85V12.15C0 11.46 0.46 11 1.15 11ZM2.3 31.7H20.7V17.9H2.3V31.7ZM13.9335 14.3535C13.9335 15.0664 13.3555 15.6444 12.6425 15.6444C11.9296 15.6444 11.3516 15.0664 11.3516 14.3535C11.3516 13.6405 11.9296 13.0625 12.6425 13.0625C13.3555 13.0625 13.9335 13.6405 13.9335 14.3535ZM7.998 15.6444C8.71098 15.6444 9.28897 15.0664 9.28897 14.3535C9.28897 13.6405 8.71098 13.0625 7.998 13.0625C7.28502 13.0625 6.70703 13.6405 6.70703 14.3535C6.70703 15.0664 7.28502 15.6444 7.998 15.6444ZM4.64443 14.3535C4.64443 15.0664 4.06645 15.6444 3.35347 15.6444C2.64049 15.6444 2.0625 15.0664 2.0625 14.3535C2.0625 13.6405 2.64049 13.0625 3.35347 13.0625C4.06645 13.0625 4.64443 13.6405 4.64443 14.3535Z" fill="#76A5FF"/>
</g>
<g id="Group 1142769">
<path id="Exclude_3" fill-rule="evenodd" clip-rule="evenodd" d="M22.3 21H45.7C46.3542 21 47 21.52 47 22.3V45.7C47 46.3458 46.3542 47 45.7 47H22.3C21.52 47 21 46.3458 21 45.7V22.3C21 21.52 21.52 21 22.3 21ZM23.6 44.4H44.4V28.8H23.6V44.4ZM36.7507 24.7953C36.7507 25.6013 36.0974 26.2546 35.2914 26.2546C34.4854 26.2546 33.832 25.6013 33.832 24.7953C33.832 23.9893 34.4854 23.3359 35.2914 23.3359C36.0974 23.3359 36.7507 23.9893 36.7507 24.7953ZM30.0414 26.2546C30.8474 26.2546 31.5007 25.6013 31.5007 24.7953C31.5007 23.9893 30.8474 23.3359 30.0414 23.3359C29.2354 23.3359 28.582 23.9893 28.582 24.7953C28.582 25.6013 29.2354 26.2546 30.0414 26.2546ZM26.2507 24.7875C26.2507 25.5935 25.5974 26.2468 24.7914 26.2468C23.9854 26.2468 23.332 25.5935 23.332 24.7875C23.332 23.9815 23.9854 23.3281 24.7914 23.3281C25.5974 23.3281 26.2507 23.9815 26.2507 24.7875Z" fill="#3D7FFC"/>
</g>
<rect id="Rectangle 8686" x="5" y="23" width="13" height="3" rx="0.412698" fill="#FECE4D"/>
<rect id="Rectangle 8687" x="27" y="35" width="15" height="3.88889" rx="0.555556" fill="#FECE4D"/>
</g>
</g>
<defs>
<clipPath id="clip0_11744_43189">
<rect width="47" height="47" fill="white"/>
</clipPath>
</defs>
</svg>
