<svg width="666" height="492" viewBox="0 0 666 492" fill="none" xmlns="http://www.w3.org/2000/svg">
<g id="Property 1=3">
<g id="blue_background_lines">
<mask id="mask0_51305_18264" style="mask-type:alpha" maskUnits="userSpaceOnUse" x="0" y="169" width="666" height="241">
<g id="Group">
<path id="Vector" d="M665.529 169.289L0 169.289L0 409.73L665.529 409.73L665.529 169.289Z" fill="url(#paint0_linear_51305_18264)"/>
</g>
</mask>
<g mask="url(#mask0_51305_18264)">
<g id="Group_2">
<g id="Vector_2" filter="url(#filter0_d_51305_18264)">
<path d="M330.199 562.292C478.65 562.292 598.992 442.125 598.992 293.892C598.992 145.658 478.65 25.4907 330.199 25.4907C181.749 25.4907 61.4063 145.658 61.4063 293.892C61.4063 442.125 181.749 562.292 330.199 562.292Z" stroke="url(#paint1_linear_51305_18264)" stroke-width="4.32704"/>
</g>
<g id="Vector_3" filter="url(#filter1_d_51305_18264)">
<path d="M332.766 528.673C462.621 528.673 567.89 423.557 567.89 293.891C567.89 164.225 462.621 59.1104 332.766 59.1104C202.91 59.1104 97.6416 164.225 97.6416 293.891C97.6416 423.557 202.91 528.673 332.766 528.673Z" stroke="url(#paint2_linear_51305_18264)" stroke-width="3.24528"/>
</g>
<g id="Vector_4" filter="url(#filter2_d_51305_18264)">
<path d="M332.922 497.556C445.567 497.556 536.884 406.372 536.884 293.891C536.884 181.41 445.567 90.2258 332.922 90.2258C220.276 90.2258 128.959 181.41 128.959 293.891C128.959 406.372 220.276 497.556 332.922 497.556Z" stroke="url(#paint3_linear_51305_18264)" stroke-width="1.62264"/>
</g>
<g id="Group_3" opacity="0.4">
<g id="Vector_5" filter="url(#filter3_d_51305_18264)">
<path d="M332.973 462.383C426.051 462.383 501.506 387.038 501.506 294.096C501.506 201.154 426.051 125.809 332.973 125.809C239.895 125.809 164.44 201.154 164.44 294.096C164.44 387.038 239.895 462.383 332.973 462.383Z" stroke="url(#paint4_linear_51305_18264)" stroke-width="1.08176"/>
</g>
</g>
</g>
</g>
</g>
<g id="Group 1143379">
<g id="Vector_6" filter="url(#filter4_dd_51305_18264)">
<path d="M322.798 406.323V470.999H96.3163C83.0069 470.999 74.6881 456.578 81.3411 445.041L197.274 244.075L240.226 268.383C235.586 279.98 233.04 292.634 233.04 305.881C233.04 357.903 272.309 400.738 322.798 406.323Z" fill="url(#paint5_linear_51305_18264)"/>
<path d="M232.172 305.881C232.172 358.085 271.378 401.115 321.93 407.097V470.132H96.3163C83.676 470.132 75.7725 456.435 82.0927 445.475L197.596 245.254L239.141 268.766C234.638 280.271 232.172 292.79 232.172 305.881Z" stroke="url(#paint6_linear_51305_18264)" stroke-width="1.73522"/>
</g>
<g id="Vector_7" filter="url(#filter5_dd_51305_18264)">
<path d="M572.079 470.999H344.512V406.403C395.345 401.153 434.992 358.149 434.992 305.881C434.992 292.505 432.392 279.725 427.676 268.041L470.535 243.784L586.846 445.406C593.406 456.781 585.207 470.999 572.083 470.999H572.079Z" fill="#3D7FFC"/>
</g>
<path id="Our partners" d="M476.515 419.264C472.137 419.264 468.573 416.316 468.573 411.432C468.573 406.548 472.137 403.6 476.515 403.6C480.915 403.6 484.457 406.548 484.457 411.432C484.457 416.316 480.915 419.264 476.515 419.264ZM481.509 411.41C481.509 408.11 479.331 406.086 476.515 406.086C473.699 406.086 471.521 408.11 471.521 411.41C471.521 414.71 473.721 416.756 476.515 416.756C479.331 416.756 481.509 414.71 481.509 411.41ZM489.971 414.05C489.971 415.634 490.235 416.888 491.863 416.888C493.557 416.888 494.195 415.546 494.195 413.764V408.352H497.011V419H494.283L494.261 417.504C493.645 418.56 492.501 419.198 490.961 419.198C487.903 419.198 487.155 417.218 487.155 414.666V408.352H489.971V414.05ZM500.039 408.352H502.833L502.789 410.068H502.855C503.273 408.924 504.329 408.154 505.473 408.154C506.199 408.154 506.595 408.352 506.595 408.352L506.397 410.794H506.265C505.957 410.706 505.473 410.662 505.099 410.662C504.263 410.662 503.625 411.014 503.229 411.696C502.965 412.224 502.833 412.95 502.833 413.764V419H500.039V408.352ZM449.341 435.848L449.385 435.87C450.243 434.594 451.519 434.11 452.927 434.11C456.051 434.11 457.965 436.53 457.965 439.698C457.965 442.712 455.963 445.198 452.729 445.198C451.101 445.198 450.199 444.626 449.319 443.57L449.275 443.592C449.297 444.098 449.319 444.582 449.319 445.33V449.026H446.525V434.352H449.385L449.341 435.848ZM452.135 436.398C450.441 436.398 449.253 437.696 449.253 439.698C449.253 441.48 450.419 443.042 452.223 443.042C454.049 443.042 455.105 441.48 455.105 439.698C455.105 437.85 453.961 436.398 452.135 436.398ZM466.552 443.768C466.112 444.538 464.88 445.242 463.296 445.242C461.228 445.242 459.556 444.12 459.556 441.898C459.556 439.676 461.734 438.818 463.934 438.664L466.486 438.488V438.202C466.486 436.838 465.584 436.2 464.11 436.2C462.702 436.2 461.536 436.728 461.074 437.08L460.216 435.276C461.03 434.792 462.526 434.154 464.374 434.154C466.266 434.154 467.344 434.638 468.136 435.386C468.906 436.134 469.302 437.102 469.302 438.906V445H466.596L466.552 443.768ZM464.594 440.314C463.098 440.402 462.372 440.908 462.372 441.81C462.372 442.712 463.054 443.328 464.22 443.328C465.32 443.328 466.134 442.69 466.508 442.162V440.204L464.594 440.314ZM472.154 434.352H474.948L474.904 436.068H474.97C475.388 434.924 476.444 434.154 477.588 434.154C478.314 434.154 478.71 434.352 478.71 434.352L478.512 436.794H478.38C478.072 436.706 477.588 436.662 477.214 436.662C476.378 436.662 475.74 437.014 475.344 437.696C475.08 438.224 474.948 438.95 474.948 439.764V445H472.154V434.352ZM483.821 440.864C483.821 442.492 484.107 442.888 485.097 442.888C485.669 442.888 486.109 442.712 486.109 442.712L486.263 444.89C486.131 444.934 485.295 445.242 484.107 445.242C481.929 445.242 481.027 444.252 481.027 441.48V436.552H479.443V434.374H481.027V431.338H483.821V434.374H486.285V436.552H483.821V440.864ZM495.392 439.302C495.392 437.718 495.106 436.464 493.478 436.464C491.74 436.464 491.146 437.916 491.146 439.698V445H488.33V434.352H491.146L491.124 435.958H491.19C491.762 434.836 492.84 434.154 494.38 434.154C497.438 434.154 498.208 436.134 498.208 438.686V445H495.392V439.302ZM503.388 440.578C503.652 442.272 504.95 443.086 506.556 443.086C507.986 443.086 509.262 442.448 509.768 442.008L510.868 443.526C510.274 444.142 508.668 445.242 506.072 445.242C502.86 445.242 500.484 443.284 500.484 439.852C500.484 436.442 502.97 434.154 506.006 434.154C509.284 434.154 511.264 436.31 511.264 439.148C511.264 439.698 511.22 440.578 511.22 440.578H503.388ZM505.984 436.244C504.312 436.244 503.432 437.41 503.344 438.752H508.448C508.404 437.586 507.964 436.244 505.984 436.244ZM513.574 434.352H516.368L516.324 436.068H516.39C516.808 434.924 517.864 434.154 519.008 434.154C519.734 434.154 520.13 434.352 520.13 434.352L519.932 436.794H519.8C519.492 436.706 519.008 436.662 518.634 436.662C517.798 436.662 517.16 437.014 516.764 437.696C516.5 438.224 516.368 438.95 516.368 439.764V445H513.574V434.352ZM527.779 437.168C527.163 436.706 526.261 436.266 525.293 436.266C524.369 436.266 523.907 436.618 523.907 437.124C523.907 437.586 524.259 437.96 525.447 438.334L526.195 438.576C528.549 439.346 529.385 440.182 529.385 441.722C529.385 443.746 527.779 445.242 525.161 445.242C523.533 445.242 521.707 444.582 520.849 443.592L521.993 441.678C523.247 442.646 524.325 443.13 525.227 443.13C526.283 443.13 526.767 442.734 526.767 442.118C526.767 441.568 526.349 441.26 524.985 440.798L523.753 440.38C522.169 439.852 521.355 438.906 521.355 437.344C521.355 435.408 523.115 434.154 525.161 434.154C527.053 434.154 528.109 434.66 528.989 435.298L527.779 437.168Z" fill="white"/>
<g id="Vector_8" filter="url(#filter6_dd_51305_18264)">
<path d="M459.125 222.055L415.399 246.806C397.059 221.375 367.191 204.823 333.466 204.823C299.74 204.823 269.641 221.504 251.321 247.101L207.578 222.343L318.875 29.4143C325.346 18.1952 341.526 18.1952 347.997 29.4143L459.125 222.055Z" fill="url(#paint7_linear_51305_18264)"/>
<path d="M319.626 29.8479L319.626 29.8478C325.763 19.2075 341.109 19.2075 347.246 29.8478L347.997 29.4143L347.246 29.8479L457.937 221.73L415.645 245.67C397.112 220.379 367.203 203.956 333.466 203.956C299.728 203.956 269.59 220.507 251.072 245.963L208.767 222.019L319.626 29.8479Z" stroke="url(#paint8_linear_51305_18264)" stroke-width="1.73522"/>
</g>
<path id="World Wide Web" d="M146.441 419L142.591 406.372L138.741 419.022H137.069L132.757 403.82H134.473L138.037 416.426L141.777 403.82H143.383L147.255 416.558L150.907 403.82H152.623L148.113 419H146.441ZM159.012 419.22C155.998 419.22 153.644 417.042 153.644 413.874C153.644 410.728 155.998 408.484 159.012 408.484C162.026 408.484 164.402 410.728 164.402 413.874C164.402 417.042 162.026 419.22 159.012 419.22ZM159.012 417.79C161.3 417.79 162.73 416.03 162.73 413.83C162.73 411.608 161.3 409.892 159.012 409.892C156.724 409.892 155.316 411.608 155.316 413.83C155.316 416.03 156.724 417.79 159.012 417.79ZM167.207 419V408.682H168.835V410.442C169.319 409.188 170.309 408.484 171.453 408.484C172.135 408.484 172.553 408.66 172.553 408.66L172.443 410.2C172.443 410.2 172.399 410.2 172.377 410.2C172.025 410.046 171.563 410.002 171.255 410.002C170.309 410.002 169.693 410.662 169.517 410.904C169.099 411.498 168.835 412.092 168.835 413.654V419H167.207ZM174.739 419V403.82H176.367V419H174.739ZM188.085 419V417.218H188.063C187.315 418.45 185.929 419.22 184.191 419.22C181.045 419.22 179.263 416.954 179.263 413.852C179.263 410.794 181.243 408.484 184.279 408.484C185.863 408.484 187.249 409.21 187.997 410.442H188.041V403.82H189.669V419H188.085ZM184.521 417.812C186.809 417.812 188.085 416.03 188.085 413.808C188.085 411.564 186.809 409.87 184.521 409.87C182.255 409.87 180.935 411.542 180.935 413.786C180.935 416.008 182.255 417.812 184.521 417.812ZM210.44 419L206.59 406.372L202.74 419.022H201.068L196.756 403.82H198.472L202.036 416.426L205.776 403.82H207.382L211.254 416.558L214.906 403.82H216.622L212.112 419H210.44ZM220.867 405.14C220.845 405.778 220.383 406.262 219.723 406.262C219.041 406.262 218.557 405.778 218.557 405.14C218.557 404.502 219.041 404.018 219.723 404.018C220.383 404.018 220.867 404.502 220.867 405.14ZM218.909 419V408.682H220.537V419H218.909ZM232.255 419V417.218H232.233C231.485 418.45 230.099 419.22 228.361 419.22C225.215 419.22 223.433 416.954 223.433 413.852C223.433 410.794 225.413 408.484 228.449 408.484C230.033 408.484 231.419 409.21 232.167 410.442H232.211V403.82H233.839V419H232.255ZM228.691 417.812C230.979 417.812 232.255 416.03 232.255 413.808C232.255 411.564 230.979 409.87 228.691 409.87C226.425 409.87 225.105 411.542 225.105 413.786C225.105 416.008 226.425 417.812 228.691 417.812ZM246.312 417.526C245.366 418.648 243.87 419.22 241.846 419.22C238.81 419.22 236.764 417.13 236.764 413.808C236.764 410.882 238.766 408.484 241.846 408.484C244.684 408.484 246.642 410.53 246.642 413.368C246.642 413.742 246.576 414.226 246.576 414.226H238.436C238.458 416.36 239.932 417.856 242.132 417.856C244.156 417.856 245.608 416.558 245.608 416.558L246.312 417.526ZM244.992 412.994C244.992 411.542 244.046 409.87 241.78 409.848C239.712 409.826 238.59 411.388 238.458 412.994H244.992ZM181.555 445L177.705 432.372L173.855 445.022H172.183L167.871 429.82H169.587L173.151 442.426L176.891 429.82H178.497L182.369 442.558L186.021 429.82H187.737L183.227 445H181.555ZM198.307 443.526C197.361 444.648 195.865 445.22 193.841 445.22C190.805 445.22 188.759 443.13 188.759 439.808C188.759 436.882 190.761 434.484 193.841 434.484C196.679 434.484 198.637 436.53 198.637 439.368C198.637 439.742 198.571 440.226 198.571 440.226H190.431C190.453 442.36 191.927 443.856 194.127 443.856C196.151 443.856 197.603 442.558 197.603 442.558L198.307 443.526ZM196.987 438.994C196.987 437.542 196.041 435.87 193.775 435.848C191.707 435.826 190.585 437.388 190.453 438.994H196.987ZM201.443 445V429.82H203.071V436.486H203.093C203.665 435.518 205.029 434.484 206.855 434.484C210.023 434.484 211.849 436.75 211.849 439.808C211.849 442.866 209.781 445.22 206.899 445.22C205.381 445.22 203.863 444.604 203.071 443.218H203.027V445H201.443ZM206.547 443.79C208.835 443.79 210.177 442.052 210.177 439.83C210.177 437.586 208.879 435.848 206.591 435.848C204.523 435.848 203.005 437.586 203.005 439.83C203.005 442.052 204.259 443.79 206.547 443.79Z" fill="#303B45"/>
<path id="Our customers" d="M322.928 138.265C318.748 138.265 315.162 135.295 315.162 130.433C315.162 125.593 318.748 122.601 322.928 122.601C327.086 122.601 330.694 125.593 330.694 130.433C330.694 135.295 327.13 138.265 322.928 138.265ZM322.928 136.769C326.228 136.769 329 134.371 329 130.411C329 126.429 326.228 124.075 322.928 124.075C319.65 124.075 316.856 126.407 316.856 130.411C316.856 134.371 319.672 136.769 322.928 136.769ZM340.763 127.661H342.369V138.001H340.785L340.763 136.351C340.301 137.451 338.981 138.177 337.507 138.177C334.559 138.177 333.833 136.373 333.833 133.909V127.661H335.483V133.799C335.483 135.713 336.099 136.769 338.013 136.769C339.861 136.769 340.763 135.185 340.763 133.381V127.661ZM345.835 138.001V127.683H347.463V129.443C347.947 128.189 348.937 127.485 350.081 127.485C350.763 127.485 351.181 127.661 351.181 127.661L351.071 129.201C351.071 129.201 351.027 129.201 351.005 129.201C350.653 129.047 350.191 129.003 349.883 129.003C348.937 129.003 348.321 129.663 348.145 129.905C347.727 130.499 347.463 131.093 347.463 132.655V138.001H345.835ZM294.384 162.593C293.9 163.143 292.8 164.243 290.204 164.243C287.432 164.243 285.078 162.263 285.078 158.853C285.078 155.597 287.564 153.485 290.292 153.485C292.58 153.485 293.57 154.233 294.274 154.871L293.548 156.147C292.866 155.509 291.964 154.959 290.358 154.959C288.356 154.959 286.75 156.455 286.75 158.831C286.75 161.185 288.334 162.769 290.512 162.769C292.646 162.769 293.68 161.405 293.68 161.405L294.384 162.593ZM303.397 153.661H305.003V164.001H303.419L303.397 162.351C302.935 163.451 301.615 164.177 300.141 164.177C297.193 164.177 296.467 162.373 296.467 159.909V153.661H298.117V159.799C298.117 161.713 298.733 162.769 300.647 162.769C302.495 162.769 303.397 161.185 303.397 159.381V153.661ZM308.338 161.361C309.328 162.483 310.362 162.923 311.352 162.923C312.474 162.923 313.552 162.439 313.552 161.207C313.552 159.975 311.814 159.557 311.022 159.293C310.274 159.051 308.074 158.545 308.074 156.367C308.074 154.475 309.724 153.485 311.396 153.485C313.068 153.485 314.058 154.035 314.784 154.695L313.992 155.685C313.266 155.069 312.32 154.739 311.396 154.739C310.318 154.739 309.57 155.245 309.57 156.213C309.57 157.159 310.626 157.599 311.77 157.973C312.804 158.325 315.092 158.853 315.092 161.075C315.092 163.055 313.442 164.221 311.308 164.221C309.614 164.221 308.25 163.495 307.48 162.395L308.338 161.361ZM322.381 163.891C321.897 164.111 321.303 164.221 320.599 164.221C318.135 164.221 318.135 161.911 318.135 160.041V155.069H316.595V153.705H318.135V150.515H319.785V153.705H322.315V155.069H319.763V160.371C319.763 161.207 319.763 161.933 320.093 162.417C320.269 162.681 320.665 162.813 321.149 162.813C321.787 162.813 322.293 162.571 322.293 162.571L322.381 163.891ZM329.331 164.221C326.317 164.221 323.963 162.043 323.963 158.875C323.963 155.729 326.317 153.485 329.331 153.485C332.345 153.485 334.721 155.729 334.721 158.875C334.721 162.043 332.345 164.221 329.331 164.221ZM329.331 162.791C331.619 162.791 333.049 161.031 333.049 158.831C333.049 156.609 331.619 154.893 329.331 154.893C327.043 154.893 325.635 156.609 325.635 158.831C325.635 161.031 327.043 162.791 329.331 162.791ZM345.358 155.707C345.798 154.431 347.03 153.485 348.482 153.485C351.496 153.485 352.068 155.619 352.068 157.775V164.001H350.44V157.863C350.44 156.609 350.11 154.893 348.262 154.893C346.568 154.893 345.622 156.543 345.622 158.567V164.001H343.994V157.863C343.994 156.609 343.664 154.893 341.816 154.893C340.122 154.893 339.154 156.543 339.154 158.567V164.001H337.526V153.683H339.154L339.132 155.333H339.198C339.704 154.277 340.782 153.485 342.036 153.485C344.06 153.485 344.984 154.431 345.358 155.707ZM364.298 162.527C363.352 163.649 361.856 164.221 359.832 164.221C356.796 164.221 354.75 162.131 354.75 158.809C354.75 155.883 356.752 153.485 359.832 153.485C362.67 153.485 364.628 155.531 364.628 158.369C364.628 158.743 364.562 159.227 364.562 159.227H356.422C356.444 161.361 357.918 162.857 360.118 162.857C362.142 162.857 363.594 161.559 363.594 161.559L364.298 162.527ZM362.978 157.995C362.978 156.543 362.032 154.871 359.766 154.849C357.698 154.827 356.576 156.389 356.444 157.995H362.978ZM367.324 164.001V153.683H368.952V155.443C369.436 154.189 370.426 153.485 371.57 153.485C372.252 153.485 372.67 153.661 372.67 153.661L372.56 155.201C372.56 155.201 372.516 155.201 372.494 155.201C372.142 155.047 371.68 155.003 371.372 155.003C370.426 155.003 369.81 155.663 369.634 155.905C369.216 156.499 368.952 157.093 368.952 158.655V164.001H367.324ZM374.292 161.361C375.282 162.483 376.316 162.923 377.306 162.923C378.428 162.923 379.506 162.439 379.506 161.207C379.506 159.975 377.768 159.557 376.976 159.293C376.228 159.051 374.028 158.545 374.028 156.367C374.028 154.475 375.678 153.485 377.35 153.485C379.022 153.485 380.012 154.035 380.738 154.695L379.946 155.685C379.22 155.069 378.274 154.739 377.35 154.739C376.272 154.739 375.524 155.245 375.524 156.213C375.524 157.159 376.58 157.599 377.724 157.973C378.758 158.325 381.046 158.853 381.046 161.075C381.046 163.055 379.396 164.221 377.262 164.221C375.568 164.221 374.204 163.495 373.434 162.395L374.292 161.361Z" fill="#303B45"/>
</g>
<g id="Group 1143401">
<g id="Ellipse 2583" filter="url(#filter7_dd_51305_18264)">
<circle cx="332.5" cy="305.5" r="75.5" fill="url(#paint9_linear_51305_18264)"/>
<circle cx="332.5" cy="305.5" r="74.63" stroke="url(#paint10_linear_51305_18264)" stroke-width="1.74"/>
</g>
<g id="bright_logo_on_dark" clip-path="url(#clip0_51305_18264)">
<g id="Group_4">
<path id="Vector_9" d="M318.406 287.515C318.864 288.384 318.635 289.115 318.315 289.893C317.812 291.173 317.949 292.408 318.864 293.46C319.778 294.557 321.059 294.694 322.385 294.42C324.214 294.008 325.265 292.271 324.991 290.35C324.854 289.436 324.305 288.521 324.808 287.515C324.351 287.744 324.351 287.744 323.802 288.658C323.299 288.064 322.842 287.424 322.293 286.783C321.836 286.28 321.379 285.823 321.653 285C321.104 285.274 320.83 285.64 320.647 286.097C320.51 286.555 320.418 287.012 320.327 287.469C320.235 287.927 320.007 288.338 319.55 288.612C319.275 288.109 319.001 287.744 318.406 287.515Z" fill="#3D7FFC"/>
</g>
<path id="Vector_10" d="M279.486 314.162V293.072L277 292.662V290.709L283.483 289.89L284.584 289.734V290.583V297.751C284.836 297.499 285.15 297.215 285.528 296.995C285.874 296.743 286.283 296.522 286.692 296.333C287.133 296.144 287.573 295.987 288.077 295.861C288.58 295.735 289.115 295.672 289.682 295.672C290.689 295.672 291.633 295.829 292.514 296.176C293.395 296.522 294.182 297.058 294.843 297.782C295.503 298.538 296.038 299.483 296.448 300.68C296.825 301.877 297.045 303.295 297.045 305.027C297.045 306.508 296.825 307.862 296.385 309.154C295.944 310.445 295.283 311.516 294.434 312.461C293.584 313.406 292.545 314.131 291.35 314.666C290.122 315.202 288.769 315.485 287.227 315.485C286.157 315.485 285.182 315.422 284.269 315.328C283.388 315.233 282.601 315.107 281.941 314.95C281.28 314.792 280.745 314.666 280.336 314.509C279.927 314.351 279.612 314.257 279.486 314.162ZM287.573 298.727C286.881 298.727 286.283 298.853 285.78 299.105C285.276 299.357 284.867 299.641 284.584 299.956V312.43C284.741 312.682 285.024 312.902 285.465 313.028C285.906 313.186 286.441 313.249 287.007 313.249C287.762 313.249 288.423 313.06 288.958 312.65C289.524 312.241 289.965 311.705 290.343 311.012C290.72 310.319 290.972 309.5 291.161 308.587C291.35 307.673 291.444 306.665 291.444 305.626C291.444 304.555 291.381 303.578 291.224 302.696C291.066 301.846 290.846 301.121 290.5 300.523C290.185 299.924 289.776 299.483 289.273 299.168C288.832 298.885 288.234 298.727 287.573 298.727Z" fill="#3D7FFC"/>
<path id="Vector_11" d="M299.793 314.924V312.687L302.185 312.372V299.583L299.919 298.89V296.37L305.583 295.551H305.678L306.559 296.276V297.662L306.527 300.245H306.59C306.716 299.898 306.968 299.457 307.314 298.922C307.66 298.386 308.101 297.851 308.604 297.347C309.108 296.843 309.706 296.402 310.366 296.055C311.027 295.709 311.751 295.52 312.538 295.52C312.884 295.52 313.136 295.52 313.324 295.551C313.513 295.583 313.671 295.614 313.796 295.646V301.41C313.671 301.316 313.356 301.221 312.852 301.127C312.349 301.032 311.72 300.969 311.027 300.969C310.65 300.969 310.241 301.001 309.863 301.032C309.485 301.064 309.108 301.127 308.761 301.221C308.415 301.284 308.132 301.379 307.849 301.473C307.566 301.568 307.377 301.662 307.22 301.757V312.341L311.342 312.75V314.924H299.793Z" fill="#3D7FFC"/>
<path id="Vector_12" d="M317.326 315.107V312.871L319.749 312.556V299.767L317.515 299.042V296.554L323.62 295.735L324.91 295.607V296.459V312.524L327.302 312.871V315.107H317.326Z" fill="#3D7FFC"/>
<path id="Vector_13" d="M338.395 308.964C337.451 308.964 336.571 308.898 335.789 308.767C335.594 308.964 335.431 309.193 335.3 309.455C335.17 309.718 335.105 310.013 335.105 310.374C335.105 310.767 335.17 311.095 335.333 311.357C335.496 311.587 335.724 311.784 336.05 311.915C336.375 312.046 336.766 312.144 337.288 312.177C337.809 312.21 338.395 312.243 339.08 312.243H342.501C344.977 312.243 346.801 312.669 348.039 313.489C349.245 314.341 349.864 315.718 349.864 317.62C349.864 318.768 349.571 319.85 348.952 320.801C348.365 321.752 347.551 322.539 346.508 323.227C345.498 323.883 344.293 324.408 342.957 324.768C341.621 325.129 340.22 325.326 338.754 325.326H338.721C337.092 325.326 335.724 325.195 334.584 324.9C333.443 324.604 332.498 324.211 331.749 323.719C331 323.227 330.478 322.604 330.12 321.916C329.762 321.227 329.599 320.44 329.599 319.62C329.599 319.096 329.696 318.604 329.892 318.112C330.087 317.653 330.348 317.227 330.674 316.833C331 316.44 331.358 316.112 331.814 315.817C332.238 315.522 332.694 315.292 333.15 315.128C332.498 314.767 331.977 314.341 331.619 313.817C331.26 313.292 331.097 312.669 331.097 311.948C331.097 311.062 331.325 310.341 331.782 309.718C332.238 309.128 332.824 308.57 333.541 308.111C332.368 307.586 331.521 306.832 330.967 305.849C330.413 304.865 330.12 303.717 330.12 302.406C330.12 301.356 330.348 300.438 330.804 299.586C331.26 298.733 331.912 298.012 332.694 297.422C333.508 296.831 334.421 296.372 335.496 296.044C336.571 295.717 337.711 295.553 338.917 295.553H338.949C341.816 295.553 343.934 296.11 345.335 297.225C345.498 297.028 345.726 296.831 345.987 296.635C346.247 296.438 346.573 296.241 346.932 296.077C347.29 295.913 347.681 295.782 348.105 295.684C348.528 295.585 348.984 295.52 349.473 295.52H350.288V299.389H346.899C347.029 299.75 347.127 300.143 347.192 300.537C347.257 300.93 347.29 301.389 347.29 301.848C347.29 302.897 347.062 303.848 346.638 304.701C346.215 305.553 345.596 306.308 344.814 306.963C344.032 307.586 343.087 308.078 342.012 308.439C340.904 308.8 339.731 308.964 338.395 308.964ZM337.516 315.948C336.766 315.948 336.082 315.882 335.463 315.784C335.235 316.046 335.007 316.374 334.812 316.768C334.616 317.161 334.518 317.751 334.518 318.44C334.518 319.227 334.616 319.883 334.812 320.407C335.007 320.932 335.333 321.391 335.724 321.719C336.115 322.047 336.636 322.309 337.223 322.44C337.809 322.604 338.493 322.67 339.275 322.67H339.308C339.992 322.67 340.676 322.604 341.36 322.44C342.012 322.276 342.631 322.047 343.152 321.719C343.674 321.391 344.097 320.965 344.39 320.473C344.716 319.981 344.879 319.391 344.879 318.735C344.879 318.243 344.814 317.784 344.716 317.423C344.618 317.063 344.423 316.768 344.13 316.538C343.836 316.309 343.478 316.145 342.989 316.046C342.501 315.948 341.882 315.882 341.132 315.882H337.516V315.948ZM338.819 306.668C339.405 306.668 339.894 306.537 340.285 306.308C340.676 306.078 340.969 305.75 341.197 305.357C341.425 304.963 341.556 304.471 341.654 303.914C341.751 303.357 341.784 302.766 341.784 302.176C341.784 300.668 341.556 299.553 341.067 298.864C340.578 298.176 339.796 297.848 338.656 297.848H338.624C337.548 297.848 336.766 298.209 336.278 298.897C335.789 299.586 335.528 300.602 335.528 302.012C335.528 302.701 335.594 303.324 335.691 303.881C335.789 304.439 335.984 304.93 336.213 305.357C336.473 305.75 336.799 306.078 337.223 306.308C337.646 306.537 338.167 306.668 338.819 306.668Z" fill="#3D7FFC"/>
<path id="Vector_14" d="M352.131 315.107V312.871L354.176 312.524V292.89L351.69 292.48V290.527L358.141 289.708L358.516 289.645H359.218L359.274 295.766L359.218 298.15C359.501 297.866 359.683 297.845 360.155 297.53C360.627 297.215 361.1 296.932 361.666 296.68C362.232 296.428 362.862 296.207 363.523 296.018C364.183 295.861 364.907 295.766 365.631 295.766C366.701 295.766 367.614 295.924 368.306 296.207C368.998 296.491 369.565 296.963 370.005 297.593C370.446 298.223 370.697 299.011 370.886 299.956C371.044 300.901 371.138 302.035 371.138 303.326V312.524L373.467 312.871V315.107H364.183V312.934L366.04 312.556V303.295C366.04 302.539 366.009 301.877 365.914 301.31C365.851 300.743 365.694 300.302 365.474 299.924C365.253 299.546 364.97 299.294 364.593 299.137C364.215 298.979 363.711 298.885 363.114 298.885C362.767 298.885 362.421 298.916 362.044 299.011C361.666 299.105 361.32 299.2 361.005 299.294C360.659 299.42 360.344 299.546 360.061 299.704C359.778 299.861 359.526 300.019 359.306 300.176V312.556L361.572 312.902V315.139H352.131V315.107Z" fill="#3D7FFC"/>
<path id="Vector_15" d="M377.163 311.251V299.029H374.834V297.139C374.928 297.108 375.054 297.076 375.243 297.013C375.432 296.95 375.621 296.856 375.841 296.793C376.03 296.73 376.219 296.635 376.407 296.572C376.596 296.509 376.691 296.446 376.722 296.415C377.1 296.131 377.477 295.596 377.886 294.808C378.012 294.588 378.107 294.336 378.264 294.021C378.421 293.706 378.516 293.422 378.642 293.107C378.768 292.792 378.893 292.477 378.988 292.162C379.114 291.847 379.177 291.564 379.271 291.312H382.229L382.292 296.226H387.17V299.061H382.292V308.259C382.292 309.141 382.292 309.834 382.323 310.369C382.355 310.905 382.418 311.283 382.512 311.535C382.607 311.787 382.796 311.976 383.016 312.039C383.236 312.102 383.551 312.165 383.928 312.165H383.96C384.212 312.165 384.495 312.133 384.81 312.102C385.093 312.07 385.376 312.007 385.659 311.944C385.942 311.881 386.194 311.818 386.446 311.755C386.698 311.692 386.886 311.629 387.044 311.566H387.075L387.862 313.519C387.516 313.771 387.138 314.023 386.635 314.275C386.131 314.527 385.628 314.748 385.03 314.968C384.432 315.189 383.834 315.346 383.173 315.472C382.512 315.598 381.883 315.661 381.222 315.661H381.191C380.467 315.661 379.837 315.567 379.334 315.378C378.83 315.189 378.39 314.905 378.075 314.527C377.761 314.149 377.54 313.708 377.383 313.141C377.226 312.574 377.163 311.976 377.163 311.251Z" fill="#3D7FFC"/>
</g>
</g>
</g>
<defs>
<filter id="filter0_d_51305_18264" x="51.8114" y="21.1413" width="555.902" height="555.118" filterUnits="userSpaceOnUse" color-interpolation-filters="sRGB">
<feFlood flood-opacity="0" result="BackgroundImageFix"/>
<feColorMatrix in="SourceAlpha" type="matrix" values="0 0 0 0 0 0 0 0 0 0 0 0 0 0 0 0 0 0 127 0" result="hardAlpha"/>
<feOffset dx="-0.437161" dy="4.80877"/>
<feGaussianBlur stdDeviation="3.49728"/>
<feColorMatrix type="matrix" values="0 0 0 0 0.075 0 0 0 0 0.18 0 0 0 0 0.45 0 0 0 0.08 0"/>
<feBlend mode="normal" in2="BackgroundImageFix" result="effect1_dropShadow_51305_18264"/>
<feBlend mode="normal" in="SourceGraphic" in2="effect1_dropShadow_51305_18264" result="shape"/>
</filter>
<filter id="filter1_d_51305_18264" x="87.7927" y="55.0684" width="488.978" height="488.291" filterUnits="userSpaceOnUse" color-interpolation-filters="sRGB">
<feFlood flood-opacity="0" result="BackgroundImageFix"/>
<feColorMatrix in="SourceAlpha" type="matrix" values="0 0 0 0 0 0 0 0 0 0 0 0 0 0 0 0 0 0 127 0" result="hardAlpha"/>
<feOffset dx="-0.483874" dy="5.32261"/>
<feGaussianBlur stdDeviation="3.87099"/>
<feColorMatrix type="matrix" values="0 0 0 0 0.075 0 0 0 0 0.18 0 0 0 0 0.45 0 0 0 0.08 0"/>
<feBlend mode="normal" in2="BackgroundImageFix" result="effect1_dropShadow_51305_18264"/>
<feBlend mode="normal" in="SourceGraphic" in2="effect1_dropShadow_51305_18264" result="shape"/>
</filter>
<filter id="filter2_d_51305_18264" x="118.38" y="86.5417" width="427.934" height="427.339" filterUnits="userSpaceOnUse" color-interpolation-filters="sRGB">
<feFlood flood-opacity="0" result="BackgroundImageFix"/>
<feColorMatrix in="SourceAlpha" type="matrix" values="0 0 0 0 0 0 0 0 0 0 0 0 0 0 0 0 0 0 127 0" result="hardAlpha"/>
<feOffset dx="-0.574573" dy="6.3203"/>
<feGaussianBlur stdDeviation="4.59658"/>
<feColorMatrix type="matrix" values="0 0 0 0 0.075 0 0 0 0 0.18 0 0 0 0 0.45 0 0 0 0.08 0"/>
<feBlend mode="normal" in2="BackgroundImageFix" result="effect1_dropShadow_51305_18264"/>
<feBlend mode="normal" in="SourceGraphic" in2="effect1_dropShadow_51305_18264" result="shape"/>
</filter>
<filter id="filter3_d_51305_18264" x="151.784" y="121.705" width="360.953" height="360.461" filterUnits="userSpaceOnUse" color-interpolation-filters="sRGB">
<feFlood flood-opacity="0" result="BackgroundImageFix"/>
<feColorMatrix in="SourceAlpha" type="matrix" values="0 0 0 0 0 0 0 0 0 0 0 0 0 0 0 0 0 0 127 0" result="hardAlpha"/>
<feOffset dx="-0.712668" dy="7.83935"/>
<feGaussianBlur stdDeviation="5.70135"/>
<feColorMatrix type="matrix" values="0 0 0 0 0.075 0 0 0 0 0.18 0 0 0 0 0.45 0 0 0 0.08 0"/>
<feBlend mode="normal" in2="BackgroundImageFix" result="effect1_dropShadow_51305_18264"/>
<feBlend mode="normal" in="SourceGraphic" in2="effect1_dropShadow_51305_18264" result="shape"/>
</filter>
<filter id="filter4_dd_51305_18264" x="67" y="234.075" width="267.798" height="250.924" filterUnits="userSpaceOnUse" color-interpolation-filters="sRGB">
<feFlood flood-opacity="0" result="BackgroundImageFix"/>
<feColorMatrix in="SourceAlpha" type="matrix" values="0 0 0 0 0 0 0 0 0 0 0 0 0 0 0 0 0 0 127 0" result="hardAlpha"/>
<feOffset dy="4"/>
<feGaussianBlur stdDeviation="5"/>
<feColorMatrix type="matrix" values="0 0 0 0 0.607843 0 0 0 0 0.67451 0 0 0 0 0.737255 0 0 0 0.35 0"/>
<feBlend mode="normal" in2="BackgroundImageFix" result="effect1_dropShadow_51305_18264"/>
<feColorMatrix in="SourceAlpha" type="matrix" values="0 0 0 0 0 0 0 0 0 0 0 0 0 0 0 0 0 0 127 0" result="hardAlpha"/>
<feOffset dy="2"/>
<feGaussianBlur stdDeviation="6"/>
<feColorMatrix type="matrix" values="0 0 0 0 0.89625 0 0 0 0 0.930414 0 0 0 0 0.995833 0 0 0 0.5 0"/>
<feBlend mode="normal" in2="effect1_dropShadow_51305_18264" result="effect2_dropShadow_51305_18264"/>
<feBlend mode="normal" in="SourceGraphic" in2="effect2_dropShadow_51305_18264" result="shape"/>
</filter>
<filter id="filter5_dd_51305_18264" x="330.63" y="232.216" width="272.407" height="254.979" filterUnits="userSpaceOnUse" color-interpolation-filters="sRGB">
<feFlood flood-opacity="0" result="BackgroundImageFix"/>
<feColorMatrix in="SourceAlpha" type="matrix" values="0 0 0 0 0 0 0 0 0 0 0 0 0 0 0 0 0 0 127 0" result="hardAlpha"/>
<feOffset dy="4.62725"/>
<feGaussianBlur stdDeviation="5.78406"/>
<feColorMatrix type="matrix" values="0 0 0 0 0.607843 0 0 0 0 0.67451 0 0 0 0 0.737255 0 0 0 0.35 0"/>
<feBlend mode="normal" in2="BackgroundImageFix" result="effect1_dropShadow_51305_18264"/>
<feColorMatrix in="SourceAlpha" type="matrix" values="0 0 0 0 0 0 0 0 0 0 0 0 0 0 0 0 0 0 127 0" result="hardAlpha"/>
<feOffset dy="2.31363"/>
<feGaussianBlur stdDeviation="6.94088"/>
<feColorMatrix type="matrix" values="0 0 0 0 0.89625 0 0 0 0 0.930414 0 0 0 0 0.995833 0 0 0 0.5 0"/>
<feBlend mode="normal" in2="effect1_dropShadow_51305_18264" result="effect2_dropShadow_51305_18264"/>
<feBlend mode="normal" in="SourceGraphic" in2="effect2_dropShadow_51305_18264" result="shape"/>
</filter>
<filter id="filter6_dd_51305_18264" x="193.696" y="9.43187" width="279.31" height="253.865" filterUnits="userSpaceOnUse" color-interpolation-filters="sRGB">
<feFlood flood-opacity="0" result="BackgroundImageFix"/>
<feColorMatrix in="SourceAlpha" type="matrix" values="0 0 0 0 0 0 0 0 0 0 0 0 0 0 0 0 0 0 127 0" result="hardAlpha"/>
<feOffset dy="4.62725"/>
<feGaussianBlur stdDeviation="5.78406"/>
<feColorMatrix type="matrix" values="0 0 0 0 0.607843 0 0 0 0 0.67451 0 0 0 0 0.737255 0 0 0 0.35 0"/>
<feBlend mode="normal" in2="BackgroundImageFix" result="effect1_dropShadow_51305_18264"/>
<feColorMatrix in="SourceAlpha" type="matrix" values="0 0 0 0 0 0 0 0 0 0 0 0 0 0 0 0 0 0 127 0" result="hardAlpha"/>
<feOffset dy="2.31363"/>
<feGaussianBlur stdDeviation="6.94088"/>
<feColorMatrix type="matrix" values="0 0 0 0 0.89625 0 0 0 0 0.930414 0 0 0 0 0.995833 0 0 0 0.5 0"/>
<feBlend mode="normal" in2="effect1_dropShadow_51305_18264" result="effect2_dropShadow_51305_18264"/>
<feBlend mode="normal" in="SourceGraphic" in2="effect2_dropShadow_51305_18264" result="shape"/>
</filter>
<filter id="filter7_dd_51305_18264" x="245" y="220" width="175" height="175" filterUnits="userSpaceOnUse" color-interpolation-filters="sRGB">
<feFlood flood-opacity="0" result="BackgroundImageFix"/>
<feColorMatrix in="SourceAlpha" type="matrix" values="0 0 0 0 0 0 0 0 0 0 0 0 0 0 0 0 0 0 127 0" result="hardAlpha"/>
<feOffset dy="4"/>
<feGaussianBlur stdDeviation="5"/>
<feColorMatrix type="matrix" values="0 0 0 0 0.607843 0 0 0 0 0.67451 0 0 0 0 0.737255 0 0 0 0.35 0"/>
<feBlend mode="normal" in2="BackgroundImageFix" result="effect1_dropShadow_51305_18264"/>
<feColorMatrix in="SourceAlpha" type="matrix" values="0 0 0 0 0 0 0 0 0 0 0 0 0 0 0 0 0 0 127 0" result="hardAlpha"/>
<feOffset dy="2"/>
<feGaussianBlur stdDeviation="6"/>
<feColorMatrix type="matrix" values="0 0 0 0 0.89625 0 0 0 0 0.930414 0 0 0 0 0.995833 0 0 0 0.5 0"/>
<feBlend mode="normal" in2="effect1_dropShadow_51305_18264" result="effect2_dropShadow_51305_18264"/>
<feBlend mode="normal" in="SourceGraphic" in2="effect2_dropShadow_51305_18264" result="shape"/>
</filter>
<linearGradient id="paint0_linear_51305_18264" x1="332.765" y1="169.289" x2="332.765" y2="409.73" gradientUnits="userSpaceOnUse">
<stop stop-color="#303B45" stop-opacity="0"/>
<stop offset="0.276042" stop-color="#0C1014" stop-opacity="0.744681"/>
<stop offset="0.489583" stop-color="#000203"/>
<stop offset="0.729167" stop-color="#0D1115" stop-opacity="0.72449"/>
<stop offset="1" stop-color="#303B45" stop-opacity="0"/>
</linearGradient>
<linearGradient id="paint1_linear_51305_18264" x1="61.447" y1="276.357" x2="600.212" y2="283.177" gradientUnits="userSpaceOnUse">
<stop stop-color="#3D7FFC"/>
<stop offset="0.526042" stop-color="white"/>
<stop offset="1" stop-color="#3D7FFC"/>
</linearGradient>
<linearGradient id="paint2_linear_51305_18264" x1="97.6773" y1="278.553" x2="568.957" y2="284.519" gradientUnits="userSpaceOnUse">
<stop stop-color="#3D7FFC"/>
<stop offset="0.526042" stop-color="white"/>
<stop offset="1" stop-color="#3D7FFC"/>
</linearGradient>
<linearGradient id="paint3_linear_51305_18264" x1="128.99" y1="280.585" x2="537.809" y2="285.76" gradientUnits="userSpaceOnUse">
<stop stop-color="#3D7FFC"/>
<stop offset="0.526042" stop-color="white"/>
<stop offset="1" stop-color="#3D7FFC"/>
</linearGradient>
<linearGradient id="paint4_linear_51305_18264" x1="164.466" y1="283.102" x2="502.271" y2="287.378" gradientUnits="userSpaceOnUse">
<stop stop-color="#3D7FFC"/>
<stop offset="0.526042" stop-color="white"/>
<stop offset="1" stop-color="#3D7FFC"/>
</linearGradient>
<linearGradient id="paint5_linear_51305_18264" x1="186" y1="244" x2="276" y2="479" gradientUnits="userSpaceOnUse">
<stop stop-color="#E7EEFF"/>
<stop offset="1" stop-color="white"/>
</linearGradient>
<linearGradient id="paint6_linear_51305_18264" x1="200.899" y1="244.075" x2="200.899" y2="470.999" gradientUnits="userSpaceOnUse">
<stop stop-color="#C6DBFF"/>
<stop offset="1" stop-color="#F5F8FF"/>
</linearGradient>
<linearGradient id="paint7_linear_51305_18264" x1="333.352" y1="21" x2="333.352" y2="247.101" gradientUnits="userSpaceOnUse">
<stop stop-color="#E7EEFF"/>
<stop offset="1" stop-color="white"/>
</linearGradient>
<linearGradient id="paint8_linear_51305_18264" x1="333.352" y1="21" x2="333.352" y2="247.101" gradientUnits="userSpaceOnUse">
<stop stop-color="#C6DBFF"/>
<stop offset="1" stop-color="#F5F8FF"/>
</linearGradient>
<linearGradient id="paint9_linear_51305_18264" x1="360" y1="233" x2="292" y2="375.5" gradientUnits="userSpaceOnUse">
<stop stop-color="#E7EEFF"/>
<stop offset="1" stop-color="white"/>
</linearGradient>
<linearGradient id="paint10_linear_51305_18264" x1="376" y1="243.5" x2="332.5" y2="381" gradientUnits="userSpaceOnUse">
<stop stop-color="#C6DBFF"/>
<stop offset="1" stop-color="#F5F8FF"/>
</linearGradient>
<clipPath id="clip0_51305_18264">
<rect width="112.211" height="40.3258" fill="white" transform="translate(277 285)"/>
</clipPath>
</defs>
</svg>
