<svg width="666" height="492" viewBox="0 0 666 492" fill="none" xmlns="http://www.w3.org/2000/svg">
<g id="Property 1=1">
<g id="blue_background_lines">
<mask id="mask0_51305_18208" style="mask-type:alpha" maskUnits="userSpaceOnUse" x="0" y="169" width="666" height="241">
<g id="Group">
<path id="Vector" d="M665.529 169.289L0 169.289L0 409.73L665.529 409.73L665.529 169.289Z" fill="url(#paint0_linear_51305_18208)"/>
</g>
</mask>
<g mask="url(#mask0_51305_18208)">
<g id="Group_2">
<g id="Vector_2" filter="url(#filter0_d_51305_18208)">
<path d="M330.199 562.292C478.65 562.292 598.992 442.125 598.992 293.892C598.992 145.658 478.65 25.4907 330.199 25.4907C181.749 25.4907 61.4063 145.658 61.4063 293.892C61.4063 442.125 181.749 562.292 330.199 562.292Z" stroke="url(#paint1_linear_51305_18208)" stroke-width="4.32704"/>
</g>
<g id="Vector_3" filter="url(#filter1_d_51305_18208)">
<path d="M332.766 528.673C462.621 528.673 567.89 423.557 567.89 293.891C567.89 164.225 462.621 59.1104 332.766 59.1104C202.91 59.1104 97.6416 164.225 97.6416 293.891C97.6416 423.557 202.91 528.673 332.766 528.673Z" stroke="url(#paint2_linear_51305_18208)" stroke-width="3.24528"/>
</g>
<g id="Vector_4" filter="url(#filter2_d_51305_18208)">
<path d="M332.922 497.556C445.567 497.556 536.884 406.372 536.884 293.891C536.884 181.41 445.567 90.2258 332.922 90.2258C220.276 90.2258 128.959 181.41 128.959 293.891C128.959 406.372 220.276 497.556 332.922 497.556Z" stroke="url(#paint3_linear_51305_18208)" stroke-width="1.62264"/>
</g>
<g id="Group_3" opacity="0.4">
<g id="Vector_5" filter="url(#filter3_d_51305_18208)">
<path d="M332.973 462.383C426.051 462.383 501.506 387.038 501.506 294.096C501.506 201.154 426.051 125.809 332.973 125.809C239.895 125.809 164.44 201.154 164.44 294.096C164.44 387.038 239.895 462.383 332.973 462.383Z" stroke="url(#paint4_linear_51305_18208)" stroke-width="1.08176"/>
</g>
</g>
</g>
</g>
</g>
<g id="Group 1143379">
<g id="Vector_6" filter="url(#filter4_dd_51305_18208)">
<path d="M322.798 406.323V470.999H96.3163C83.0069 470.999 74.6881 456.578 81.3411 445.041L197.274 244.075L240.226 268.383C235.586 279.98 233.04 292.634 233.04 305.881C233.04 357.903 272.309 400.738 322.798 406.323Z" fill="url(#paint5_linear_51305_18208)"/>
<path d="M232.172 305.881C232.172 358.085 271.378 401.115 321.93 407.097V470.132H96.3163C83.676 470.132 75.7725 456.435 82.0927 445.475L197.596 245.254L239.141 268.766C234.638 280.271 232.172 292.79 232.172 305.881Z" stroke="url(#paint6_linear_51305_18208)" stroke-width="1.73522"/>
</g>
<g id="Vector_7" filter="url(#filter5_dd_51305_18208)">
<path d="M572.079 470.999H344.512V406.403C395.345 401.153 434.992 358.149 434.992 305.881C434.992 292.505 432.392 279.725 427.676 268.041L470.535 243.784L586.846 445.406C593.406 456.781 585.207 470.999 572.083 470.999H572.079Z" fill="url(#paint7_linear_51305_18208)"/>
<path d="M572.079 470.132H345.379V407.182C396.277 401.531 435.859 358.33 435.859 305.881C435.859 292.661 433.341 280.016 428.763 268.423L470.214 244.963L586.094 445.839C592.322 456.637 584.537 470.132 572.083 470.132H572.079Z" stroke="url(#paint8_linear_51305_18208)" stroke-width="1.73522"/>
</g>
<g id="Vector_8" filter="url(#filter6_dd_51305_18208)">
<path d="M459.125 222.055L415.399 246.806C397.059 221.375 367.191 204.823 333.466 204.823C299.74 204.823 269.641 221.504 251.321 247.101L207.578 222.343L318.875 29.4143C325.346 18.1952 341.526 18.1952 347.997 29.4143L459.125 222.055Z" fill="#3D7FFC"/>
</g>
<path id="Our partners" d="M477.428 419.264C473.248 419.264 469.662 416.294 469.662 411.432C469.662 406.592 473.248 403.6 477.428 403.6C481.586 403.6 485.194 406.592 485.194 411.432C485.194 416.294 481.63 419.264 477.428 419.264ZM477.428 417.768C480.728 417.768 483.5 415.37 483.5 411.41C483.5 407.428 480.728 405.074 477.428 405.074C474.15 405.074 471.356 407.406 471.356 411.41C471.356 415.37 474.172 417.768 477.428 417.768ZM495.263 408.66H496.869V419H495.285L495.263 417.35C494.801 418.45 493.481 419.176 492.007 419.176C489.059 419.176 488.333 417.372 488.333 414.908V408.66H489.983V414.798C489.983 416.712 490.599 417.768 492.513 417.768C494.361 417.768 495.263 416.184 495.263 414.38V408.66ZM500.335 419V408.682H501.963V410.442C502.447 409.188 503.437 408.484 504.581 408.484C505.263 408.484 505.681 408.66 505.681 408.66L505.571 410.2C505.571 410.2 505.527 410.2 505.505 410.2C505.153 410.046 504.691 410.002 504.383 410.002C503.437 410.002 502.821 410.662 502.645 410.904C502.227 411.498 501.963 412.092 501.963 413.654V419H500.335ZM449.959 449.136V434.66H451.587V436.486H451.609C452.181 435.518 453.545 434.484 455.371 434.484C458.539 434.484 460.387 436.772 460.387 439.83C460.387 442.888 458.297 445.22 455.415 445.22C453.897 445.22 452.401 444.626 451.609 443.24L451.587 443.218V449.136H449.959ZM455.063 443.79C457.351 443.79 458.693 442.052 458.693 439.83C458.693 437.586 457.395 435.848 455.107 435.848C453.039 435.848 451.521 437.586 451.521 439.83C451.521 442.052 452.753 443.79 455.063 443.79ZM469.142 445L469.12 443.636C468.724 444.076 467.69 445.22 465.732 445.22C463.774 445.22 462.19 443.966 462.19 442.074C462.19 440.314 463.488 439.082 466.304 438.95L469.098 438.818V438.356C469.098 436.618 467.932 435.848 466.37 435.848C464.83 435.848 463.598 436.464 463.312 436.662L462.762 435.496C463.444 435.1 464.808 434.484 466.436 434.484C469.45 434.484 470.748 436.046 470.748 438.95V445H469.142ZM469.12 440.006L466.436 440.138C464.522 440.226 463.884 440.996 463.884 442.052C463.884 443.086 464.742 443.922 466.062 443.922C467.47 443.922 468.636 443.108 469.12 442.448V440.006ZM474.061 445V434.682H475.689V436.442C476.173 435.188 477.163 434.484 478.307 434.484C478.989 434.484 479.407 434.66 479.407 434.66L479.297 436.2C479.297 436.2 479.253 436.2 479.231 436.2C478.879 436.046 478.417 436.002 478.109 436.002C477.163 436.002 476.547 436.662 476.371 436.904C475.953 437.498 475.689 438.092 475.689 439.654V445H474.061ZM486.103 444.89C485.619 445.11 485.025 445.22 484.321 445.22C481.857 445.22 481.857 442.91 481.857 441.04V436.068H480.317V434.704H481.857V431.514H483.507V434.704H486.037V436.068H483.485V441.37C483.485 442.206 483.485 442.932 483.815 443.416C483.991 443.68 484.387 443.812 484.871 443.812C485.509 443.812 486.015 443.57 486.015 443.57L486.103 444.89ZM493.317 434.484C496.265 434.484 496.969 436.288 496.969 438.752V445H495.341V438.862C495.341 436.948 494.725 435.892 492.811 435.892C490.963 435.892 490.039 437.41 490.039 439.192V445H488.411V434.682H490.039V436.354H490.105C490.567 435.254 491.843 434.484 493.317 434.484ZM509.253 443.526C508.307 444.648 506.811 445.22 504.787 445.22C501.751 445.22 499.705 443.13 499.705 439.808C499.705 436.882 501.707 434.484 504.787 434.484C507.625 434.484 509.583 436.53 509.583 439.368C509.583 439.742 509.517 440.226 509.517 440.226H501.377C501.399 442.36 502.873 443.856 505.073 443.856C507.097 443.856 508.549 442.558 508.549 442.558L509.253 443.526ZM507.933 438.994C507.933 437.542 506.987 435.87 504.721 435.848C502.653 435.826 501.531 437.388 501.399 438.994H507.933ZM512.28 445V434.682H513.908V436.442C514.392 435.188 515.382 434.484 516.526 434.484C517.208 434.484 517.626 434.66 517.626 434.66L517.516 436.2C517.516 436.2 517.472 436.2 517.45 436.2C517.098 436.046 516.636 436.002 516.328 436.002C515.382 436.002 514.766 436.662 514.59 436.904C514.172 437.498 513.908 438.092 513.908 439.654V445H512.28ZM519.248 442.36C520.238 443.482 521.272 443.922 522.262 443.922C523.384 443.922 524.462 443.438 524.462 442.206C524.462 440.974 522.724 440.556 521.932 440.292C521.184 440.05 518.984 439.544 518.984 437.366C518.984 435.474 520.634 434.484 522.306 434.484C523.978 434.484 524.968 435.034 525.694 435.694L524.902 436.684C524.176 436.068 523.23 435.738 522.306 435.738C521.228 435.738 520.48 436.244 520.48 437.212C520.48 438.158 521.536 438.598 522.68 438.972C523.714 439.324 526.002 439.852 526.002 442.074C526.002 444.054 524.352 445.22 522.218 445.22C520.524 445.22 519.16 444.494 518.39 443.394L519.248 442.36Z" fill="#303B45"/>
<path id="World Wide Web" d="M146.441 419L142.591 406.372L138.741 419.022H137.069L132.757 403.82H134.473L138.037 416.426L141.777 403.82H143.383L147.255 416.558L150.907 403.82H152.623L148.113 419H146.441ZM159.012 419.22C155.998 419.22 153.644 417.042 153.644 413.874C153.644 410.728 155.998 408.484 159.012 408.484C162.026 408.484 164.402 410.728 164.402 413.874C164.402 417.042 162.026 419.22 159.012 419.22ZM159.012 417.79C161.3 417.79 162.73 416.03 162.73 413.83C162.73 411.608 161.3 409.892 159.012 409.892C156.724 409.892 155.316 411.608 155.316 413.83C155.316 416.03 156.724 417.79 159.012 417.79ZM167.207 419V408.682H168.835V410.442C169.319 409.188 170.309 408.484 171.453 408.484C172.135 408.484 172.553 408.66 172.553 408.66L172.443 410.2C172.443 410.2 172.399 410.2 172.377 410.2C172.025 410.046 171.563 410.002 171.255 410.002C170.309 410.002 169.693 410.662 169.517 410.904C169.099 411.498 168.835 412.092 168.835 413.654V419H167.207ZM174.739 419V403.82H176.367V419H174.739ZM188.085 419V417.218H188.063C187.315 418.45 185.929 419.22 184.191 419.22C181.045 419.22 179.263 416.954 179.263 413.852C179.263 410.794 181.243 408.484 184.279 408.484C185.863 408.484 187.249 409.21 187.997 410.442H188.041V403.82H189.669V419H188.085ZM184.521 417.812C186.809 417.812 188.085 416.03 188.085 413.808C188.085 411.564 186.809 409.87 184.521 409.87C182.255 409.87 180.935 411.542 180.935 413.786C180.935 416.008 182.255 417.812 184.521 417.812ZM210.44 419L206.59 406.372L202.74 419.022H201.068L196.756 403.82H198.472L202.036 416.426L205.776 403.82H207.382L211.254 416.558L214.906 403.82H216.622L212.112 419H210.44ZM220.867 405.14C220.845 405.778 220.383 406.262 219.723 406.262C219.041 406.262 218.557 405.778 218.557 405.14C218.557 404.502 219.041 404.018 219.723 404.018C220.383 404.018 220.867 404.502 220.867 405.14ZM218.909 419V408.682H220.537V419H218.909ZM232.255 419V417.218H232.233C231.485 418.45 230.099 419.22 228.361 419.22C225.215 419.22 223.433 416.954 223.433 413.852C223.433 410.794 225.413 408.484 228.449 408.484C230.033 408.484 231.419 409.21 232.167 410.442H232.211V403.82H233.839V419H232.255ZM228.691 417.812C230.979 417.812 232.255 416.03 232.255 413.808C232.255 411.564 230.979 409.87 228.691 409.87C226.425 409.87 225.105 411.542 225.105 413.786C225.105 416.008 226.425 417.812 228.691 417.812ZM246.312 417.526C245.366 418.648 243.87 419.22 241.846 419.22C238.81 419.22 236.764 417.13 236.764 413.808C236.764 410.882 238.766 408.484 241.846 408.484C244.684 408.484 246.642 410.53 246.642 413.368C246.642 413.742 246.576 414.226 246.576 414.226H238.436C238.458 416.36 239.932 417.856 242.132 417.856C244.156 417.856 245.608 416.558 245.608 416.558L246.312 417.526ZM244.992 412.994C244.992 411.542 244.046 409.87 241.78 409.848C239.712 409.826 238.59 411.388 238.458 412.994H244.992ZM181.555 445L177.705 432.372L173.855 445.022H172.183L167.871 429.82H169.587L173.151 442.426L176.891 429.82H178.497L182.369 442.558L186.021 429.82H187.737L183.227 445H181.555ZM198.307 443.526C197.361 444.648 195.865 445.22 193.841 445.22C190.805 445.22 188.759 443.13 188.759 439.808C188.759 436.882 190.761 434.484 193.841 434.484C196.679 434.484 198.637 436.53 198.637 439.368C198.637 439.742 198.571 440.226 198.571 440.226H190.431C190.453 442.36 191.927 443.856 194.127 443.856C196.151 443.856 197.603 442.558 197.603 442.558L198.307 443.526ZM196.987 438.994C196.987 437.542 196.041 435.87 193.775 435.848C191.707 435.826 190.585 437.388 190.453 438.994H196.987ZM201.443 445V429.82H203.071V436.486H203.093C203.665 435.518 205.029 434.484 206.855 434.484C210.023 434.484 211.849 436.75 211.849 439.808C211.849 442.866 209.781 445.22 206.899 445.22C205.381 445.22 203.863 444.604 203.071 443.218H203.027V445H201.443ZM206.547 443.79C208.835 443.79 210.177 442.052 210.177 439.83C210.177 437.586 208.879 435.848 206.591 435.848C204.523 435.848 203.005 437.586 203.005 439.83C203.005 442.052 204.259 443.79 206.547 443.79Z" fill="#303B45"/>
<path id="Our customers" d="M322.015 138.265C317.637 138.265 314.073 135.317 314.073 130.433C314.073 125.549 317.637 122.601 322.015 122.601C326.415 122.601 329.957 125.549 329.957 130.433C329.957 135.317 326.415 138.265 322.015 138.265ZM327.009 130.411C327.009 127.111 324.831 125.087 322.015 125.087C319.199 125.087 317.021 127.111 317.021 130.411C317.021 133.711 319.221 135.757 322.015 135.757C324.831 135.757 327.009 133.711 327.009 130.411ZM335.471 133.051C335.471 134.635 335.735 135.889 337.363 135.889C339.057 135.889 339.695 134.547 339.695 132.765V127.353H342.511V138.001H339.783L339.761 136.505C339.145 137.561 338.001 138.199 336.461 138.199C333.403 138.199 332.655 136.219 332.655 133.667V127.353H335.471V133.051ZM345.539 127.353H348.333L348.289 129.069H348.355C348.773 127.925 349.829 127.155 350.973 127.155C351.699 127.155 352.095 127.353 352.095 127.353L351.897 129.795H351.765C351.457 129.707 350.973 129.663 350.599 129.663C349.763 129.663 349.125 130.015 348.729 130.697C348.465 131.225 348.333 131.951 348.333 132.765V138.001H345.539V127.353ZM290.707 160.745L291.499 162.813C291.279 163.011 290.179 164.243 287.341 164.243C284.437 164.243 281.753 162.241 281.753 158.765C281.753 155.267 284.525 153.155 287.385 153.155C290.069 153.155 291.125 154.233 291.411 154.519L290.641 156.631C290.311 156.323 289.365 155.509 287.715 155.509C286.043 155.509 284.701 156.675 284.701 158.633C284.701 160.591 286.043 161.867 287.869 161.867C289.695 161.867 290.707 160.745 290.707 160.745ZM296.065 159.051C296.065 160.635 296.329 161.889 297.957 161.889C299.651 161.889 300.289 160.547 300.289 158.765V153.353H303.105V164.001H300.377L300.355 162.505C299.739 163.561 298.595 164.199 297.055 164.199C293.997 164.199 293.249 162.219 293.249 159.667V153.353H296.065V159.051ZM312.271 156.169C311.655 155.707 310.753 155.267 309.785 155.267C308.861 155.267 308.399 155.619 308.399 156.125C308.399 156.587 308.751 156.961 309.939 157.335L310.687 157.577C313.041 158.347 313.877 159.183 313.877 160.723C313.877 162.747 312.271 164.243 309.653 164.243C308.025 164.243 306.199 163.583 305.341 162.593L306.485 160.679C307.739 161.647 308.817 162.131 309.719 162.131C310.775 162.131 311.259 161.735 311.259 161.119C311.259 160.569 310.841 160.261 309.477 159.799L308.245 159.381C306.661 158.853 305.847 157.907 305.847 156.345C305.847 154.409 307.607 153.155 309.653 153.155C311.545 153.155 312.601 153.661 313.481 154.299L312.271 156.169ZM319.347 159.865C319.347 161.493 319.633 161.889 320.623 161.889C321.195 161.889 321.635 161.713 321.635 161.713L321.789 163.891C321.657 163.935 320.821 164.243 319.633 164.243C317.455 164.243 316.553 163.253 316.553 160.481V155.553H314.969V153.375H316.553V150.339H319.347V153.375H321.811V155.553H319.347V159.865ZM328.983 164.243C325.705 164.243 323.197 162.087 323.197 158.721C323.197 155.355 325.705 153.155 328.983 153.155C332.239 153.155 334.747 155.355 334.747 158.721C334.747 162.087 332.239 164.243 328.983 164.243ZM331.843 158.655C331.843 156.829 330.787 155.421 328.983 155.421C327.135 155.421 326.123 156.829 326.123 158.655C326.123 160.481 327.135 161.911 328.983 161.911C330.787 161.911 331.843 160.481 331.843 158.655ZM350.367 158.039C350.367 156.741 350.081 155.465 348.695 155.465C347.287 155.465 346.561 156.675 346.561 158.501V164.001H343.745V158.017C343.745 156.565 343.371 155.465 342.029 155.465C340.577 155.465 339.939 156.829 339.939 158.501V164.001H337.123V153.353H339.939L339.917 154.959H339.983C340.467 153.969 341.765 153.155 343.151 153.155C344.691 153.155 345.615 153.771 346.121 155.179C346.869 153.881 348.079 153.155 349.619 153.155C352.413 153.155 353.183 155.135 353.183 157.577V164.001H350.367V158.039ZM358.347 159.579C358.611 161.273 359.909 162.087 361.515 162.087C362.945 162.087 364.221 161.449 364.727 161.009L365.827 162.527C365.233 163.143 363.627 164.243 361.031 164.243C357.819 164.243 355.443 162.285 355.443 158.853C355.443 155.443 357.929 153.155 360.965 153.155C364.243 153.155 366.223 155.311 366.223 158.149C366.223 158.699 366.179 159.579 366.179 159.579H358.347ZM360.943 155.245C359.271 155.245 358.391 156.411 358.303 157.753H363.407C363.363 156.587 362.923 155.245 360.943 155.245ZM368.532 153.353H371.326L371.282 155.069H371.348C371.766 153.925 372.822 153.155 373.966 153.155C374.692 153.155 375.088 153.353 375.088 153.353L374.89 155.795H374.758C374.45 155.707 373.966 155.663 373.592 155.663C372.756 155.663 372.118 156.015 371.722 156.697C371.458 157.225 371.326 157.951 371.326 158.765V164.001H368.532V153.353ZM382.737 156.169C382.121 155.707 381.219 155.267 380.251 155.267C379.327 155.267 378.865 155.619 378.865 156.125C378.865 156.587 379.217 156.961 380.405 157.335L381.153 157.577C383.507 158.347 384.343 159.183 384.343 160.723C384.343 162.747 382.737 164.243 380.119 164.243C378.491 164.243 376.665 163.583 375.807 162.593L376.951 160.679C378.205 161.647 379.283 162.131 380.185 162.131C381.241 162.131 381.725 161.735 381.725 161.119C381.725 160.569 381.307 160.261 379.943 159.799L378.711 159.381C377.127 158.853 376.313 157.907 376.313 156.345C376.313 154.409 378.073 153.155 380.119 153.155C382.011 153.155 383.067 153.661 383.947 154.299L382.737 156.169Z" fill="white"/>
</g>
<g id="Group 1143401">
<g id="Ellipse 2583" filter="url(#filter7_dd_51305_18208)">
<circle cx="332.5" cy="305.5" r="75.5" fill="url(#paint9_linear_51305_18208)"/>
<circle cx="332.5" cy="305.5" r="74.63" stroke="url(#paint10_linear_51305_18208)" stroke-width="1.74"/>
</g>
<g id="bright_logo_on_dark" clip-path="url(#clip0_51305_18208)">
<g id="Group_4">
<path id="Vector_9" d="M318.406 287.515C318.864 288.384 318.635 289.115 318.315 289.893C317.812 291.173 317.949 292.408 318.864 293.46C319.778 294.557 321.059 294.694 322.385 294.42C324.214 294.008 325.265 292.271 324.991 290.35C324.854 289.436 324.305 288.521 324.808 287.515C324.351 287.744 324.351 287.744 323.802 288.658C323.299 288.064 322.842 287.424 322.293 286.783C321.836 286.28 321.379 285.823 321.653 285C321.104 285.274 320.83 285.64 320.647 286.097C320.51 286.555 320.418 287.012 320.327 287.469C320.235 287.927 320.007 288.338 319.55 288.612C319.275 288.109 319.001 287.744 318.406 287.515Z" fill="#3D7FFC"/>
</g>
<path id="Vector_10" d="M279.486 314.162V293.072L277 292.662V290.709L283.483 289.89L284.584 289.734V290.583V297.751C284.836 297.499 285.15 297.215 285.528 296.995C285.874 296.743 286.283 296.522 286.692 296.333C287.133 296.144 287.573 295.987 288.077 295.861C288.58 295.735 289.115 295.672 289.682 295.672C290.689 295.672 291.633 295.829 292.514 296.176C293.395 296.522 294.182 297.058 294.843 297.782C295.503 298.538 296.038 299.483 296.448 300.68C296.825 301.877 297.045 303.295 297.045 305.027C297.045 306.508 296.825 307.862 296.385 309.154C295.944 310.445 295.283 311.516 294.434 312.461C293.584 313.406 292.545 314.131 291.35 314.666C290.122 315.202 288.769 315.485 287.227 315.485C286.157 315.485 285.182 315.422 284.269 315.328C283.388 315.233 282.601 315.107 281.941 314.95C281.28 314.792 280.745 314.666 280.336 314.509C279.927 314.351 279.612 314.257 279.486 314.162ZM287.573 298.727C286.881 298.727 286.283 298.853 285.78 299.105C285.276 299.357 284.867 299.641 284.584 299.956V312.43C284.741 312.682 285.024 312.902 285.465 313.028C285.906 313.186 286.441 313.249 287.007 313.249C287.762 313.249 288.423 313.06 288.958 312.65C289.524 312.241 289.965 311.705 290.343 311.012C290.72 310.319 290.972 309.5 291.161 308.587C291.35 307.673 291.444 306.665 291.444 305.626C291.444 304.555 291.381 303.578 291.224 302.696C291.066 301.846 290.846 301.121 290.5 300.523C290.185 299.924 289.776 299.483 289.273 299.168C288.832 298.885 288.234 298.727 287.573 298.727Z" fill="#3D7FFC"/>
<path id="Vector_11" d="M299.793 314.924V312.687L302.185 312.372V299.583L299.919 298.89V296.37L305.583 295.551H305.678L306.559 296.276V297.662L306.527 300.245H306.59C306.716 299.898 306.968 299.457 307.314 298.922C307.66 298.386 308.101 297.851 308.604 297.347C309.108 296.843 309.706 296.402 310.366 296.055C311.027 295.709 311.751 295.52 312.538 295.52C312.884 295.52 313.136 295.52 313.324 295.551C313.513 295.583 313.671 295.614 313.796 295.646V301.41C313.671 301.316 313.356 301.221 312.852 301.127C312.349 301.032 311.72 300.969 311.027 300.969C310.65 300.969 310.241 301.001 309.863 301.032C309.485 301.064 309.108 301.127 308.761 301.221C308.415 301.284 308.132 301.379 307.849 301.473C307.566 301.568 307.377 301.662 307.22 301.757V312.341L311.342 312.75V314.924H299.793Z" fill="#3D7FFC"/>
<path id="Vector_12" d="M317.326 315.107V312.871L319.749 312.556V299.767L317.515 299.042V296.554L323.62 295.735L324.91 295.607V296.459V312.524L327.302 312.871V315.107H317.326Z" fill="#3D7FFC"/>
<path id="Vector_13" d="M338.395 308.964C337.451 308.964 336.571 308.898 335.789 308.767C335.594 308.964 335.431 309.193 335.3 309.455C335.17 309.718 335.105 310.013 335.105 310.374C335.105 310.767 335.17 311.095 335.333 311.357C335.496 311.587 335.724 311.784 336.05 311.915C336.375 312.046 336.766 312.144 337.288 312.177C337.809 312.21 338.395 312.243 339.08 312.243H342.501C344.977 312.243 346.801 312.669 348.039 313.489C349.245 314.341 349.864 315.718 349.864 317.62C349.864 318.768 349.571 319.85 348.952 320.801C348.365 321.752 347.551 322.539 346.508 323.227C345.498 323.883 344.293 324.408 342.957 324.768C341.621 325.129 340.22 325.326 338.754 325.326H338.721C337.092 325.326 335.724 325.195 334.584 324.9C333.443 324.604 332.498 324.211 331.749 323.719C331 323.227 330.478 322.604 330.12 321.916C329.762 321.227 329.599 320.44 329.599 319.62C329.599 319.096 329.696 318.604 329.892 318.112C330.087 317.653 330.348 317.227 330.674 316.833C331 316.44 331.358 316.112 331.814 315.817C332.238 315.522 332.694 315.292 333.15 315.128C332.498 314.767 331.977 314.341 331.619 313.817C331.26 313.292 331.097 312.669 331.097 311.948C331.097 311.062 331.325 310.341 331.782 309.718C332.238 309.128 332.824 308.57 333.541 308.111C332.368 307.586 331.521 306.832 330.967 305.849C330.413 304.865 330.12 303.717 330.12 302.406C330.12 301.356 330.348 300.438 330.804 299.586C331.26 298.733 331.912 298.012 332.694 297.422C333.508 296.831 334.421 296.372 335.496 296.044C336.571 295.717 337.711 295.553 338.917 295.553H338.949C341.816 295.553 343.934 296.11 345.335 297.225C345.498 297.028 345.726 296.831 345.987 296.635C346.247 296.438 346.573 296.241 346.932 296.077C347.29 295.913 347.681 295.782 348.105 295.684C348.528 295.585 348.984 295.52 349.473 295.52H350.288V299.389H346.899C347.029 299.75 347.127 300.143 347.192 300.537C347.257 300.93 347.29 301.389 347.29 301.848C347.29 302.897 347.062 303.848 346.638 304.701C346.215 305.553 345.596 306.308 344.814 306.963C344.032 307.586 343.087 308.078 342.012 308.439C340.904 308.8 339.731 308.964 338.395 308.964ZM337.516 315.948C336.766 315.948 336.082 315.882 335.463 315.784C335.235 316.046 335.007 316.374 334.812 316.768C334.616 317.161 334.518 317.751 334.518 318.44C334.518 319.227 334.616 319.883 334.812 320.407C335.007 320.932 335.333 321.391 335.724 321.719C336.115 322.047 336.636 322.309 337.223 322.44C337.809 322.604 338.493 322.67 339.275 322.67H339.308C339.992 322.67 340.676 322.604 341.36 322.44C342.012 322.276 342.631 322.047 343.152 321.719C343.674 321.391 344.097 320.965 344.39 320.473C344.716 319.981 344.879 319.391 344.879 318.735C344.879 318.243 344.814 317.784 344.716 317.423C344.618 317.063 344.423 316.768 344.13 316.538C343.836 316.309 343.478 316.145 342.989 316.046C342.501 315.948 341.882 315.882 341.132 315.882H337.516V315.948ZM338.819 306.668C339.405 306.668 339.894 306.537 340.285 306.308C340.676 306.078 340.969 305.75 341.197 305.357C341.425 304.963 341.556 304.471 341.654 303.914C341.751 303.357 341.784 302.766 341.784 302.176C341.784 300.668 341.556 299.553 341.067 298.864C340.578 298.176 339.796 297.848 338.656 297.848H338.624C337.548 297.848 336.766 298.209 336.278 298.897C335.789 299.586 335.528 300.602 335.528 302.012C335.528 302.701 335.594 303.324 335.691 303.881C335.789 304.439 335.984 304.93 336.213 305.357C336.473 305.75 336.799 306.078 337.223 306.308C337.646 306.537 338.167 306.668 338.819 306.668Z" fill="#3D7FFC"/>
<path id="Vector_14" d="M352.131 315.107V312.871L354.176 312.524V292.89L351.69 292.48V290.527L358.141 289.708L358.516 289.645H359.218L359.274 295.766L359.218 298.15C359.501 297.866 359.683 297.845 360.155 297.53C360.627 297.215 361.1 296.932 361.666 296.68C362.232 296.428 362.862 296.207 363.523 296.018C364.183 295.861 364.907 295.766 365.631 295.766C366.701 295.766 367.614 295.924 368.306 296.207C368.998 296.491 369.565 296.963 370.005 297.593C370.446 298.223 370.697 299.011 370.886 299.956C371.044 300.901 371.138 302.035 371.138 303.326V312.524L373.467 312.871V315.107H364.183V312.934L366.04 312.556V303.295C366.04 302.539 366.009 301.877 365.914 301.31C365.851 300.743 365.694 300.302 365.474 299.924C365.253 299.546 364.97 299.294 364.593 299.137C364.215 298.979 363.711 298.885 363.114 298.885C362.767 298.885 362.421 298.916 362.044 299.011C361.666 299.105 361.32 299.2 361.005 299.294C360.659 299.42 360.344 299.546 360.061 299.704C359.778 299.861 359.526 300.019 359.306 300.176V312.556L361.572 312.902V315.139H352.131V315.107Z" fill="#3D7FFC"/>
<path id="Vector_15" d="M377.163 311.251V299.029H374.834V297.139C374.928 297.108 375.054 297.076 375.243 297.013C375.432 296.95 375.621 296.856 375.841 296.793C376.03 296.73 376.219 296.635 376.407 296.572C376.596 296.509 376.691 296.446 376.722 296.415C377.1 296.131 377.477 295.596 377.886 294.808C378.012 294.588 378.107 294.336 378.264 294.021C378.421 293.706 378.516 293.422 378.642 293.107C378.768 292.792 378.893 292.477 378.988 292.162C379.114 291.847 379.177 291.564 379.271 291.312H382.229L382.292 296.226H387.17V299.061H382.292V308.259C382.292 309.141 382.292 309.834 382.323 310.369C382.355 310.905 382.418 311.283 382.512 311.535C382.607 311.787 382.796 311.976 383.016 312.039C383.236 312.102 383.551 312.165 383.928 312.165H383.96C384.212 312.165 384.495 312.133 384.81 312.102C385.093 312.07 385.376 312.007 385.659 311.944C385.942 311.881 386.194 311.818 386.446 311.755C386.698 311.692 386.886 311.629 387.044 311.566H387.075L387.862 313.519C387.516 313.771 387.138 314.023 386.635 314.275C386.131 314.527 385.628 314.748 385.03 314.968C384.432 315.189 383.834 315.346 383.173 315.472C382.512 315.598 381.883 315.661 381.222 315.661H381.191C380.467 315.661 379.837 315.567 379.334 315.378C378.83 315.189 378.39 314.905 378.075 314.527C377.761 314.149 377.54 313.708 377.383 313.141C377.226 312.574 377.163 311.976 377.163 311.251Z" fill="#3D7FFC"/>
</g>
</g>
</g>
<defs>
<filter id="filter0_d_51305_18208" x="51.8114" y="21.1413" width="555.902" height="555.118" filterUnits="userSpaceOnUse" color-interpolation-filters="sRGB">
<feFlood flood-opacity="0" result="BackgroundImageFix"/>
<feColorMatrix in="SourceAlpha" type="matrix" values="0 0 0 0 0 0 0 0 0 0 0 0 0 0 0 0 0 0 127 0" result="hardAlpha"/>
<feOffset dx="-0.437161" dy="4.80877"/>
<feGaussianBlur stdDeviation="3.49728"/>
<feColorMatrix type="matrix" values="0 0 0 0 0.075 0 0 0 0 0.18 0 0 0 0 0.45 0 0 0 0.08 0"/>
<feBlend mode="normal" in2="BackgroundImageFix" result="effect1_dropShadow_51305_18208"/>
<feBlend mode="normal" in="SourceGraphic" in2="effect1_dropShadow_51305_18208" result="shape"/>
</filter>
<filter id="filter1_d_51305_18208" x="87.7927" y="55.0684" width="488.978" height="488.291" filterUnits="userSpaceOnUse" color-interpolation-filters="sRGB">
<feFlood flood-opacity="0" result="BackgroundImageFix"/>
<feColorMatrix in="SourceAlpha" type="matrix" values="0 0 0 0 0 0 0 0 0 0 0 0 0 0 0 0 0 0 127 0" result="hardAlpha"/>
<feOffset dx="-0.483874" dy="5.32261"/>
<feGaussianBlur stdDeviation="3.87099"/>
<feColorMatrix type="matrix" values="0 0 0 0 0.075 0 0 0 0 0.18 0 0 0 0 0.45 0 0 0 0.08 0"/>
<feBlend mode="normal" in2="BackgroundImageFix" result="effect1_dropShadow_51305_18208"/>
<feBlend mode="normal" in="SourceGraphic" in2="effect1_dropShadow_51305_18208" result="shape"/>
</filter>
<filter id="filter2_d_51305_18208" x="118.38" y="86.5417" width="427.934" height="427.338" filterUnits="userSpaceOnUse" color-interpolation-filters="sRGB">
<feFlood flood-opacity="0" result="BackgroundImageFix"/>
<feColorMatrix in="SourceAlpha" type="matrix" values="0 0 0 0 0 0 0 0 0 0 0 0 0 0 0 0 0 0 127 0" result="hardAlpha"/>
<feOffset dx="-0.574573" dy="6.3203"/>
<feGaussianBlur stdDeviation="4.59658"/>
<feColorMatrix type="matrix" values="0 0 0 0 0.075 0 0 0 0 0.18 0 0 0 0 0.45 0 0 0 0.08 0"/>
<feBlend mode="normal" in2="BackgroundImageFix" result="effect1_dropShadow_51305_18208"/>
<feBlend mode="normal" in="SourceGraphic" in2="effect1_dropShadow_51305_18208" result="shape"/>
</filter>
<filter id="filter3_d_51305_18208" x="151.784" y="121.705" width="360.953" height="360.461" filterUnits="userSpaceOnUse" color-interpolation-filters="sRGB">
<feFlood flood-opacity="0" result="BackgroundImageFix"/>
<feColorMatrix in="SourceAlpha" type="matrix" values="0 0 0 0 0 0 0 0 0 0 0 0 0 0 0 0 0 0 127 0" result="hardAlpha"/>
<feOffset dx="-0.712668" dy="7.83935"/>
<feGaussianBlur stdDeviation="5.70135"/>
<feColorMatrix type="matrix" values="0 0 0 0 0.075 0 0 0 0 0.18 0 0 0 0 0.45 0 0 0 0.08 0"/>
<feBlend mode="normal" in2="BackgroundImageFix" result="effect1_dropShadow_51305_18208"/>
<feBlend mode="normal" in="SourceGraphic" in2="effect1_dropShadow_51305_18208" result="shape"/>
</filter>
<filter id="filter4_dd_51305_18208" x="67" y="234.075" width="267.798" height="250.924" filterUnits="userSpaceOnUse" color-interpolation-filters="sRGB">
<feFlood flood-opacity="0" result="BackgroundImageFix"/>
<feColorMatrix in="SourceAlpha" type="matrix" values="0 0 0 0 0 0 0 0 0 0 0 0 0 0 0 0 0 0 127 0" result="hardAlpha"/>
<feOffset dy="4"/>
<feGaussianBlur stdDeviation="5"/>
<feColorMatrix type="matrix" values="0 0 0 0 0.607843 0 0 0 0 0.67451 0 0 0 0 0.737255 0 0 0 0.35 0"/>
<feBlend mode="normal" in2="BackgroundImageFix" result="effect1_dropShadow_51305_18208"/>
<feColorMatrix in="SourceAlpha" type="matrix" values="0 0 0 0 0 0 0 0 0 0 0 0 0 0 0 0 0 0 127 0" result="hardAlpha"/>
<feOffset dy="2"/>
<feGaussianBlur stdDeviation="6"/>
<feColorMatrix type="matrix" values="0 0 0 0 0.89625 0 0 0 0 0.930414 0 0 0 0 0.995833 0 0 0 0.5 0"/>
<feBlend mode="normal" in2="effect1_dropShadow_51305_18208" result="effect2_dropShadow_51305_18208"/>
<feBlend mode="normal" in="SourceGraphic" in2="effect2_dropShadow_51305_18208" result="shape"/>
</filter>
<filter id="filter5_dd_51305_18208" x="330.63" y="232.216" width="272.407" height="254.979" filterUnits="userSpaceOnUse" color-interpolation-filters="sRGB">
<feFlood flood-opacity="0" result="BackgroundImageFix"/>
<feColorMatrix in="SourceAlpha" type="matrix" values="0 0 0 0 0 0 0 0 0 0 0 0 0 0 0 0 0 0 127 0" result="hardAlpha"/>
<feOffset dy="4.62725"/>
<feGaussianBlur stdDeviation="5.78406"/>
<feColorMatrix type="matrix" values="0 0 0 0 0.607843 0 0 0 0 0.67451 0 0 0 0 0.737255 0 0 0 0.35 0"/>
<feBlend mode="normal" in2="BackgroundImageFix" result="effect1_dropShadow_51305_18208"/>
<feColorMatrix in="SourceAlpha" type="matrix" values="0 0 0 0 0 0 0 0 0 0 0 0 0 0 0 0 0 0 127 0" result="hardAlpha"/>
<feOffset dy="2.31363"/>
<feGaussianBlur stdDeviation="6.94088"/>
<feColorMatrix type="matrix" values="0 0 0 0 0.89625 0 0 0 0 0.930414 0 0 0 0 0.995833 0 0 0 0.5 0"/>
<feBlend mode="normal" in2="effect1_dropShadow_51305_18208" result="effect2_dropShadow_51305_18208"/>
<feBlend mode="normal" in="SourceGraphic" in2="effect2_dropShadow_51305_18208" result="shape"/>
</filter>
<filter id="filter6_dd_51305_18208" x="193.696" y="9.43187" width="279.31" height="253.865" filterUnits="userSpaceOnUse" color-interpolation-filters="sRGB">
<feFlood flood-opacity="0" result="BackgroundImageFix"/>
<feColorMatrix in="SourceAlpha" type="matrix" values="0 0 0 0 0 0 0 0 0 0 0 0 0 0 0 0 0 0 127 0" result="hardAlpha"/>
<feOffset dy="4.62725"/>
<feGaussianBlur stdDeviation="5.78406"/>
<feColorMatrix type="matrix" values="0 0 0 0 0.607843 0 0 0 0 0.67451 0 0 0 0 0.737255 0 0 0 0.35 0"/>
<feBlend mode="normal" in2="BackgroundImageFix" result="effect1_dropShadow_51305_18208"/>
<feColorMatrix in="SourceAlpha" type="matrix" values="0 0 0 0 0 0 0 0 0 0 0 0 0 0 0 0 0 0 127 0" result="hardAlpha"/>
<feOffset dy="2.31363"/>
<feGaussianBlur stdDeviation="6.94088"/>
<feColorMatrix type="matrix" values="0 0 0 0 0.89625 0 0 0 0 0.930414 0 0 0 0 0.995833 0 0 0 0.5 0"/>
<feBlend mode="normal" in2="effect1_dropShadow_51305_18208" result="effect2_dropShadow_51305_18208"/>
<feBlend mode="normal" in="SourceGraphic" in2="effect2_dropShadow_51305_18208" result="shape"/>
</filter>
<filter id="filter7_dd_51305_18208" x="245" y="220" width="175" height="175" filterUnits="userSpaceOnUse" color-interpolation-filters="sRGB">
<feFlood flood-opacity="0" result="BackgroundImageFix"/>
<feColorMatrix in="SourceAlpha" type="matrix" values="0 0 0 0 0 0 0 0 0 0 0 0 0 0 0 0 0 0 127 0" result="hardAlpha"/>
<feOffset dy="4"/>
<feGaussianBlur stdDeviation="5"/>
<feColorMatrix type="matrix" values="0 0 0 0 0.607843 0 0 0 0 0.67451 0 0 0 0 0.737255 0 0 0 0.35 0"/>
<feBlend mode="normal" in2="BackgroundImageFix" result="effect1_dropShadow_51305_18208"/>
<feColorMatrix in="SourceAlpha" type="matrix" values="0 0 0 0 0 0 0 0 0 0 0 0 0 0 0 0 0 0 127 0" result="hardAlpha"/>
<feOffset dy="2"/>
<feGaussianBlur stdDeviation="6"/>
<feColorMatrix type="matrix" values="0 0 0 0 0.89625 0 0 0 0 0.930414 0 0 0 0 0.995833 0 0 0 0.5 0"/>
<feBlend mode="normal" in2="effect1_dropShadow_51305_18208" result="effect2_dropShadow_51305_18208"/>
<feBlend mode="normal" in="SourceGraphic" in2="effect2_dropShadow_51305_18208" result="shape"/>
</filter>
<linearGradient id="paint0_linear_51305_18208" x1="332.765" y1="169.289" x2="332.765" y2="409.73" gradientUnits="userSpaceOnUse">
<stop stop-color="#303B45" stop-opacity="0"/>
<stop offset="0.276042" stop-color="#0C1014" stop-opacity="0.744681"/>
<stop offset="0.489583" stop-color="#000203"/>
<stop offset="0.729167" stop-color="#0D1115" stop-opacity="0.72449"/>
<stop offset="1" stop-color="#303B45" stop-opacity="0"/>
</linearGradient>
<linearGradient id="paint1_linear_51305_18208" x1="61.447" y1="276.357" x2="600.212" y2="283.177" gradientUnits="userSpaceOnUse">
<stop stop-color="#3D7FFC"/>
<stop offset="0.526042" stop-color="white"/>
<stop offset="1" stop-color="#3D7FFC"/>
</linearGradient>
<linearGradient id="paint2_linear_51305_18208" x1="97.6773" y1="278.553" x2="568.957" y2="284.519" gradientUnits="userSpaceOnUse">
<stop stop-color="#3D7FFC"/>
<stop offset="0.526042" stop-color="white"/>
<stop offset="1" stop-color="#3D7FFC"/>
</linearGradient>
<linearGradient id="paint3_linear_51305_18208" x1="128.99" y1="280.585" x2="537.809" y2="285.76" gradientUnits="userSpaceOnUse">
<stop stop-color="#3D7FFC"/>
<stop offset="0.526042" stop-color="white"/>
<stop offset="1" stop-color="#3D7FFC"/>
</linearGradient>
<linearGradient id="paint4_linear_51305_18208" x1="164.466" y1="283.102" x2="502.271" y2="287.378" gradientUnits="userSpaceOnUse">
<stop stop-color="#3D7FFC"/>
<stop offset="0.526042" stop-color="white"/>
<stop offset="1" stop-color="#3D7FFC"/>
</linearGradient>
<linearGradient id="paint5_linear_51305_18208" x1="186" y1="244" x2="276" y2="479" gradientUnits="userSpaceOnUse">
<stop stop-color="#E7EEFF"/>
<stop offset="1" stop-color="white"/>
</linearGradient>
<linearGradient id="paint6_linear_51305_18208" x1="200.899" y1="244.075" x2="200.899" y2="470.999" gradientUnits="userSpaceOnUse">
<stop stop-color="#C6DBFF"/>
<stop offset="1" stop-color="#F5F8FF"/>
</linearGradient>
<linearGradient id="paint7_linear_51305_18208" x1="466.833" y1="243.784" x2="466.833" y2="470.999" gradientUnits="userSpaceOnUse">
<stop stop-color="#E7EEFF"/>
<stop offset="1" stop-color="white"/>
</linearGradient>
<linearGradient id="paint8_linear_51305_18208" x1="466.833" y1="243.784" x2="466.833" y2="470.999" gradientUnits="userSpaceOnUse">
<stop stop-color="#C6DBFF"/>
<stop offset="1" stop-color="#F5F8FF"/>
</linearGradient>
<linearGradient id="paint9_linear_51305_18208" x1="360" y1="233" x2="292" y2="375.5" gradientUnits="userSpaceOnUse">
<stop stop-color="#E7EEFF"/>
<stop offset="1" stop-color="white"/>
</linearGradient>
<linearGradient id="paint10_linear_51305_18208" x1="376" y1="243.5" x2="332.5" y2="381" gradientUnits="userSpaceOnUse">
<stop stop-color="#C6DBFF"/>
<stop offset="1" stop-color="#F5F8FF"/>
</linearGradient>
<clipPath id="clip0_51305_18208">
<rect width="112.211" height="40.3258" fill="white" transform="translate(277 285)"/>
</clipPath>
</defs>
</svg>
